<svg width="601" height="899" viewBox="0 0 601 899" fill="none" xmlns="http://www.w3.org/2000/svg"><g clip-path="url(#clip0_7488_194275)"><path d="M595.077 604.35v-310.1C595.077 134.5 465.617 5 305.867 5h-5.79c-159.77 0-289.27 129.5-289.27 289.25v310.1c0 159.75 129.5 289.25 289.27 289.25h5.81c159.73 0 289.19-129.5 289.19-289.25zm-414.23 98.23a156.551 156.551 0 0 1-46-111.05V307.07a157.048 157.048 0 0 1 157.05-157.05 157.05 157.05 0 0 1 157.05 157.05v284.46a157.004 157.004 0 0 1-96.919 145.168 157.002 157.002 0 0 1-171.181-34.118z" fill="#E0E0E0"/><path d="M291.896 748.58a157.052 157.052 0 0 1-157-157.05V307.07a157.053 157.053 0 0 1 268.102-111.052 157.053 157.053 0 0 1 45.998 111.052v284.46a157.037 157.037 0 0 1-46.016 111.068 157.047 157.047 0 0 1-111.084 45.982z" fill="#E0E0E0"/><path d="M463.996 274.39a173.176 173.176 0 0 0-17.92-51.49l39.53-17.68 3.39 6.22 11.08-5.34a222.312 222.312 0 0 1 19.58 59.6l-55.66 8.69zm58.86 39.82h-56.1v-8.75c0-4.847-.197-9.647-.59-14.4h26.76V279.2l28.29-3.73c1.32 9.862 1.988 19.8 2 29.75v7.54c-.23.94-.36 1.45-.36 1.45zm.32 61.56h-56.42V346.4h28.6v-8.47h-28.6v-19.19h56.42v57.03zm0 74.73h-56.42v-30.86h28.6v-9.99h-28.6v-26.54h56.42v67.39zm0 74.91h-56.42v-30.49h28.6v-10.17h-28.6v-29.36h56.42v70.02zm0 57.72h-56.42v-16.47l28.6.54v-9.91l-28.6-.19v-26.04h56.42v52.07zm-1.96 47.38l-17-2.32v-16.38h-38.4v-.3c.627-6.057.941-12.141.94-18.23v-5.19h56.42v12.7a225.663 225.663 0 0 1-1.96 29.72zm-32.24 63.75l-41.9-20.4a173.488 173.488 0 0 0 15.51-42.6l43.86 3.14c-3.37 32.19-17.47 59.86-17.47 59.86zm14.101-.53l-9.27-3.42s10.13-16.25 16.16-57l10.69 1.45a222.364 222.364 0 0 1-17.58 58.97zm-52.222 55.87l-34.16-33.89a175.097 175.097 0 0 0 28.14-37.62l42.44 20.69c-13.71 25.71-36.42 50.82-36.42 50.82zm3.061 13.16l-5.84-6.38c21.83-20.18 39.25-50 39.25-50l8 2.68a224.996 224.996 0 0 1-41.41 53.7zm-72.84 35.12l-20.15-44a174.3 174.3 0 0 0 41.4-25.1l33.81 33.54c-28.2 25.96-55.06 35.56-55.06 35.56z" fill="#C9C5C5"/><path d="M389.797 805.7l-3.32-6.41c37.84-18.07 58.45-40.09 58.45-40.09l5.95 6.41a223.928 223.928 0 0 1-61.08 40.09zm-72.781 9.12l-7.17-47.72a173.504 173.504 0 0 0 46.31-11.24l1.52-.33 19.77 43.47a217.403 217.403 0 0 1-60.43 15.82z" fill="#C9C5C5"/><path d="M311.846 824.46v-6.72c31.71-1.32 61.93-14.12 61.93-14.12l3.85 7a222.625 222.625 0 0 1-65.78 13.84zm-20.14.23a223.093 223.093 0 0 1-66.63-12.41l15.23-52a174.401 174.401 0 0 0 48.77 7.72l2.63 56.69zm-72.97-14.75a223.567 223.567 0 0 1-54.08-30l28.64-42.51a174.228 174.228 0 0 0 42.11 21.18l-16.67 51.33zm-68.519-41.82a221.53 221.53 0 0 1-9.47-8.93 224.92 224.92 0 0 1-33.36-42.54l40.32-24.89a174.641 174.641 0 0 0 20.79 25.07 173.881 173.881 0 0 0 10.12 9.35l-28.4 41.94zm-45.281-55.61a222.414 222.414 0 0 1-26-70.16l43.69-6a174.07 174.07 0 0 0 22.74 52l-40.43 24.16zm431.92-487.84l-18.78 6.33a227.968 227.968 0 0 0-8.9-21.37l61-26.72a287.903 287.903 0 0 1 14.2 36.42l-44.94 12.13-2.58-6.79zm60.511 69.63l-66.65-4.9a229.474 229.474 0 0 0-7-40.35l20.17-4.65-2.49-7.25 45.38-9.64a291.287 291.287 0 0 1 10.59 66.79zm.26 44.86l-44.45-2.16-.34-4.47-21.28-1.53v-21.84c0-4.78-.143-9.527-.43-14.24l66.41 4.94c.06 2.28.09 4.567.09 6.86v32.44zm0 75.98l-43.99-2.44.2-5.49-22.28-1.56v-56.93l22.03 1.55v-7.74l44.04 1.89v70.72zm0 75.43l-44.87-3.62.08-4.33-21.28-1.77v-56.72l21.78 1.56v-7.49l44.29 2.12v70.25zm0 74.44l-44.99-3.88-.18-4.04-20.9-2.01v-56.87l21.31 1.73v-8.28l44.76 3.8v69.55zm-.281 49.74l-66.2-3.82c.27-4.55.41-9.15.41-13.77v-27.32l21.62 1.94v-6.54l44.45 3.66v33c0 4.3-.093 8.584-.28 12.85zm-12.07 71.36l-40.34-10.37 1.7-8.48-24.07-6a231.188 231.188 0 0 0 8.3-46.17l66.25 4a290.277 290.277 0 0 1-11.84 67.02zm-46.081 90.94l-36.91-24 4.19-6.3-19.7-12.63a231.398 231.398 0 0 0 30.55-56.8l24.75 9.57 1.93-7 39.83 11a290.893 290.893 0 0 1-44.64 86.16zm-75.439 70.19l-27.58-33.61 3.59-1.94-14.37-19.69a232.637 232.637 0 0 0 51-44.72l20.2 14.28 2.79-4.85 36.26 25a292.96 292.96 0 0 1-71.89 65.53zm-92.68 39.05l-15.13-36.55 7.51-2.91-8.62-24.47a230.175 230.175 0 0 0 58.83-23.28l13.76 21.58 6.3-3.88 26.13 32.94a289.717 289.717 0 0 1-88.78 36.57zm-65.181 7.31a293.142 293.142 0 0 1-37.94-2.45l-1.34-39.48 4.52.14-1.17-24.81a234.573 234.573 0 0 0 66.94-1l7.78 26.26 6.64-1.55 14.26 36.8a292.718 292.718 0 0 1-59.69 6.09zm-44.518-3.37a289.768 289.768 0 0 1-90.49-29.68l11.07-35.06 6.42 2 5.15-24.34a230.118 230.118 0 0 0 62.34 21.58l-1.24 25 7.72 1.28-.97 39.22zm-95.991-32.64a292.76 292.76 0 0 1-65.78-49.44c-3.84-3.84-7.57-7.787-11.19-11.84l25.07-29.77 5 5.69 12.59-16.23c1.593 1.7 3.213 3.367 4.86 5a233.111 233.111 0 0 0 44 34.54l-7.64 22.18 4.92 3.22-11.83 36.65zM85.507 793a291.537 291.537 0 0 1-51.63-85.52l31.88-17.26 4.32 7.72 16.6-9.54a231.734 231.734 0 0 0 35 57.11l-13.09 12.88 3.65 4.5L85.507 793zm-53.911-91.57a290.129 290.129 0 0 1-13-48.53l53.88-10.33a230.8 230.8 0 0 0 8.66 31.65l-19.24 7.42 2 5.15-32.3 14.64z" fill="#C9C5C5"/><path d="M448.945 591.53V307.07c0-86.737-70.313-157.05-157.05-157.05-86.736 0-157.05 70.313-157.05 157.05v284.46c0 86.736 70.314 157.05 157.05 157.05 86.737 0 157.05-70.314 157.05-157.05z" stroke="#fff" stroke-width="10" stroke-miterlimit="10"/><path d="M536.856 224.67l-18.78 6.33a227.968 227.968 0 0 0-8.9-21.37l61-26.72a287.903 287.903 0 0 1 14.2 36.42l-44.94 12.13-2.58-6.79zm60.511 69.63l-66.65-4.9a229.474 229.474 0 0 0-7-40.35l20.17-4.65-2.49-7.25 45.38-9.64a291.287 291.287 0 0 1 10.59 66.79zm.26 44.86l-44.45-2.16-.34-4.47-21.28-1.53v-21.84c0-4.78-.143-9.527-.43-14.24l66.41 4.94c.06 2.28.09 4.567.09 6.86v32.44zm0 75.98l-43.99-2.44.2-5.49-22.28-1.56v-56.93l22.03 1.55v-7.74l44.04 1.89v70.72zm0 75.43l-44.87-3.62.08-4.33-21.28-1.77v-56.72l21.78 1.56v-7.49l44.29 2.12v70.25zm0 74.44l-44.99-3.88-.18-4.04-20.9-2.01v-56.87l21.31 1.73v-8.28l44.76 3.8v69.55zm-.281 49.74l-66.2-3.82c.27-4.55.41-9.15.41-13.77v-27.32l21.62 1.94v-6.54l44.45 3.66v33c0 4.3-.093 8.584-.28 12.85zm-12.07 71.36l-40.34-10.37 1.7-8.48-24.07-6a231.188 231.188 0 0 0 8.3-46.17l66.25 4a290.277 290.277 0 0 1-11.84 67.02zm-553.68 15.32a290.129 290.129 0 0 1-13-48.53l53.88-10.33a230.8 230.8 0 0 0 8.66 31.65l-19.24 7.42 2 5.15-32.3 14.64zm507.599 75.62l-36.91-24 4.19-6.3-19.7-12.63a231.398 231.398 0 0 0 30.55-56.8l24.75 9.57 1.93-7 39.83 11a290.893 290.893 0 0 1-44.64 86.16zM85.507 793a291.537 291.537 0 0 1-51.63-85.52l31.88-17.26 4.32 7.72 16.6-9.54a231.734 231.734 0 0 0 35 57.11l-13.09 12.88 3.65 4.5L85.507 793zm378.249 54.24l-27.58-33.61 3.59-1.94-14.37-19.69a232.637 232.637 0 0 0 51-44.72l20.2 14.28 2.79-4.85 36.26 25a292.96 292.96 0 0 1-71.89 65.53zm-298.37 10.35a292.76 292.76 0 0 1-65.78-49.44c-3.84-3.84-7.57-7.787-11.19-11.84l25.07-29.77 5 5.69 12.59-16.23c1.593 1.7 3.213 3.367 4.86 5a233.111 233.111 0 0 0 44 34.54l-7.64 22.18 4.92 3.22-11.83 36.65zm205.69 28.7l-15.13-36.55 7.51-2.91-8.62-24.47a230.175 230.175 0 0 0 58.83-23.28l13.76 21.58 6.3-3.88 26.13 32.94a289.717 289.717 0 0 1-88.78 36.57zm-109.699 3.94a289.768 289.768 0 0 1-90.49-29.68l11.07-35.06 6.42 2 5.15-24.34a230.118 230.118 0 0 0 62.34 21.58l-1.24 25 7.72 1.28-.97 39.22zm44.518 3.37a293.142 293.142 0 0 1-37.94-2.45l-1.34-39.48 4.52.14-1.17-24.81a234.573 234.573 0 0 0 66.94-1l7.78 26.26 6.64-1.55 14.26 36.8a292.718 292.718 0 0 1-59.69 6.09zm213.801-627.9l-55.7 8.69a173.176 173.176 0 0 0-17.92-51.49l39.53-17.68 3.39 6.22 11.08-5.34a222.283 222.283 0 0 1 19.62 59.6zm3.48 47.06c-.19.94-.32 1.45-.32 1.45h-56.1v-8.75c0-4.847-.197-9.647-.59-14.4h26.76V279.2l28.29-3.73c1.32 9.862 1.988 19.8 2 29.75l-.04 7.54zm0 63.01h-56.42V346.4h28.6v-8.47h-28.6v-19.19h56.42v57.03zm0 74.73h-56.42v-30.86h28.6v-9.99h-28.6v-26.54h56.42v67.39zm0 74.91h-56.42v-30.49h28.6v-10.17h-28.6v-29.36h56.42v70.02zm0 57.72h-56.42v-16.47l28.6.54v-9.91l-28.6-.19v-26.04h56.42v52.07zm-1.96 47.38l-17-2.32v-16.38h-38.4v-.3c.627-6.057.941-12.141.94-18.23v-5.19h56.42v12.7a225.663 225.663 0 0 1-1.96 29.72zm-416.28 82a222.414 222.414 0 0 1-26-70.16l43.69-6a174.07 174.07 0 0 0 22.74 52l-40.43 24.16z" fill="#C9C5C5"/><path d="M150.217 768.12a221.53 221.53 0 0 1-9.47-8.93 224.92 224.92 0 0 1-33.36-42.54l40.32-24.89a174.641 174.641 0 0 0 20.79 25.07 173.881 173.881 0 0 0 10.12 9.35l-28.4 41.94z" fill="#0062CC"/><path d="M218.736 809.94a223.567 223.567 0 0 1-54.08-30l28.64-42.51a174.228 174.228 0 0 0 42.11 21.18l-16.67 51.33zm72.97 14.75a223.093 223.093 0 0 1-66.63-12.41l15.23-52a174.401 174.401 0 0 0 48.77 7.72l2.63 56.69z" fill="#C9C5C5"/><path d="M595.115 604.35v-310.1C595.115 134.502 465.614 5 305.865 5h-5.81C140.307 5 10.805 134.502 10.805 294.25v310.1c0 159.748 129.502 289.25 289.25 289.25h5.81c159.749 0 289.25-129.502 289.25-289.25z" stroke="#fff" stroke-width="10" stroke-miterlimit="10"/><path d="M105.316 275.25v350.94H.076V275.25h105.24z" fill="#C9C5C5"/><path d="M540.96 215.088c-.202.047-.374.028-.516-.054a.674.674 0 0 1-.269-.429c-.047-.203-.027-.367.059-.493.094-.128.242-.214.444-.26l1.307-.298-1.305-5.73.724-.165-1.479 1.43a.695.695 0 0 1-.396.2.663.663 0 0 1-.364-.089.76.76 0 0 1-.25-.286.631.631 0 0 1-.061-.379.693.693 0 0 1 .228-.396l1.39-1.335c.135-.129.272-.242.414-.34.14-.106.275-.173.408-.203a.614.614 0 0 1 .44.047c.128.06.216.192.262.394l1.483 6.512 1.19-.271c.202-.047.369-.031.501.045.14.074.233.213.279.415.046.202.023.371-.069.507-.084.134-.227.223-.429.27l-3.991.908zm8.062-1.713a3.94 3.94 0 0 1-1.073.085 3.84 3.84 0 0 1-1.113-.25.56.56 0 0 1-.314-.248.736.736 0 0 1-.105-.356.728.728 0 0 1 .091-.352.506.506 0 0 1 .278-.235c.119-.052.262-.052.43 0 .3.095.573.147.821.156.248.01.488-.012.721-.066.452-.102.809-.294 1.072-.575.264-.281.425-.649.485-1.105.066-.465.028-1.009-.114-1.631l-.199-.875.14-.032c.034.401-.017.769-.154 1.103a2.093 2.093 0 0 1-.618.84 2.452 2.452 0 0 1-.989.459 2.448 2.448 0 0 1-1.337-.052 2.437 2.437 0 0 1-1.076-.737 2.985 2.985 0 0 1-.626-1.293c-.122-.537-.118-1.037.014-1.501a2.59 2.59 0 0 1 .748-1.189 2.81 2.81 0 0 1 1.33-.683c.684-.156 1.3-.129 1.847.082.548.211 1.016.595 1.405 1.153.387.55.679 1.257.875 2.121.16.7.22 1.341.18 1.923a3.925 3.925 0 0 1-.377 1.522 3.03 3.03 0 0 1-.926 1.107 3.714 3.714 0 0 1-1.416.629zm-.538-4.358c.28-.063.511-.182.692-.354.188-.182.315-.399.38-.651.063-.26.062-.538-.006-.833a1.735 1.735 0 0 0-.356-.754 1.29 1.29 0 0 0-.621-.411 1.456 1.456 0 0 0-.778-.019 1.45 1.45 0 0 0-.692.354 1.39 1.39 0 0 0-.382.64c-.066.252-.064.529.005.833.068.296.186.547.356.754.176.197.384.338.624.422.238.077.498.083.778.019zm1.809 60.512c-.249.056-.444.043-.586-.039-.135-.092-.228-.247-.277-.465a.794.794 0 0 1 .017-.409c.042-.14.113-.295.213-.465l1.777-3.032c.273-.455.452-.852.539-1.191a2.13 2.13 0 0 0 .021-.986c-.089-.389-.281-.656-.576-.802-.287-.147-.664-.168-1.131-.062a2.91 2.91 0 0 0-.767.298c-.248.13-.488.316-.72.557-.119.125-.242.194-.37.207a.59.59 0 0 1-.35-.08.708.708 0 0 1-.32-.652.705.705 0 0 1 .203-.402 3.963 3.963 0 0 1 1.003-.768 4.773 4.773 0 0 1 1.221-.462c.591-.135 1.109-.159 1.555-.072a2.04 2.04 0 0 1 1.1.572c.288.294.487.686.599 1.177.074.326.093.658.055.994a3.831 3.831 0 0 1-.264 1.054 7.467 7.467 0 0 1-.597 1.204l-1.673 2.787-.09-.397 3.431-.782c.21-.047.381-.033.513.043.132.077.221.216.267.418.046.202.027.37-.057.504s-.232.225-.442.272l-4.294.979zm7.266-1.655c-.203.046-.375.028-.516-.055a.67.67 0 0 1-.27-.429c-.046-.203-.026-.367.06-.493.094-.127.242-.214.444-.26l1.307-.298-1.305-5.73.723-.164-1.479 1.429a.697.697 0 0 1-.396.201.672.672 0 0 1-.364-.089.759.759 0 0 1-.249-.287.632.632 0 0 1-.062-.379.695.695 0 0 1 .229-.396l1.39-1.335a3.3 3.3 0 0 1 .414-.34c.139-.105.275-.173.407-.203a.621.621 0 0 1 .441.047c.128.061.215.192.261.394l1.483 6.512 1.191-.271c.202-.046.369-.031.501.045.14.075.233.213.279.415.046.203.023.372-.069.507-.084.134-.227.224-.43.27l-3.99.909zm-2.755 50.165c-.255-.007-.441-.068-.558-.183-.108-.123-.159-.296-.153-.519a.79.79 0 0 1 .118-.392 2.13 2.13 0 0 1 .322-.398l2.474-2.496c.377-.372.65-.712.818-1.019.168-.315.256-.632.265-.951.011-.398-.109-.705-.358-.919-.242-.214-.602-.328-1.081-.341a2.858 2.858 0 0 0-.816.098 2.805 2.805 0 0 0-.836.36c-.146.092-.283.128-.41.109a.582.582 0 0 1-.319-.164.704.704 0 0 1-.149-.711.705.705 0 0 1 .297-.339 3.968 3.968 0 0 1 1.163-.495 4.836 4.836 0 0 1 1.297-.145c.606.017 1.114.122 1.524.317.409.195.717.47.923.827.206.357.302.786.289 1.289-.01.335-.074.66-.195.976a3.807 3.807 0 0 1-.516.956 7.492 7.492 0 0 1-.878 1.018l-2.312 2.284.011-.407 3.517.096c.215.005.377.062.486.168.109.107.161.264.155.471-.005.208-.066.366-.18.474-.115.109-.28.16-.495.155l-4.403-.119zm9.001.363a5.742 5.742 0 0 1-1.336-.204 3.866 3.866 0 0 1-1.194-.535.811.811 0 0 1-.314-.368.658.658 0 0 1-.037-.384.675.675 0 0 1 .188-.318.603.603 0 0 1 .351-.146.816.816 0 0 1 .464.12c.322.184.634.32.935.408.301.08.611.125.93.133.351.01.647-.03.889-.119.242-.09.425-.228.55-.416a1.22 1.22 0 0 0 .21-.689c.011-.399-.116-.698-.383-.896-.257-.207-.641-.317-1.152-.331l-.766-.021c-.223-.006-.393-.066-.51-.181-.108-.115-.16-.272-.154-.471.005-.2.065-.354.18-.462.122-.109.295-.16.519-.154l.622.017c.303.008.563-.033.781-.123.218-.097.39-.236.514-.417.125-.18.191-.402.198-.665.01-.367-.106-.649-.348-.847-.234-.198-.583-.303-1.045-.316a3.166 3.166 0 0 0-.841.085 3.279 3.279 0 0 0-.859.348.647.647 0 0 1-.422.096.539.539 0 0 1-.319-.164.684.684 0 0 1-.171-.316.63.63 0 0 1 .035-.382.686.686 0 0 1 .308-.339 3.975 3.975 0 0 1 1.15-.472 4.61 4.61 0 0 1 1.285-.144c.583.015 1.079.121 1.488.315.41.187.718.451.925.791.214.333.315.735.302 1.206-.009.335-.081.64-.216.916a1.991 1.991 0 0 1-.557.679 2.06 2.06 0 0 1-.849.384l.004-.143c.572.111 1.012.362 1.321.754.309.383.456.858.44 1.425-.013.494-.148.921-.406 1.282-.257.36-.615.633-1.075.821-.46.179-1.005.26-1.635.243zm-7.86 64.668c-.255-.014-.439-.08-.553-.199-.105-.125-.151-.3-.138-.523a.786.786 0 0 1 .129-.388c.079-.124.19-.253.333-.389l2.544-2.424c.388-.362.67-.694.847-.996.177-.309.274-.624.292-.942.022-.399-.088-.709-.332-.93-.235-.221-.592-.344-1.07-.371a2.893 2.893 0 0 0-.819.074 2.835 2.835 0 0 0-.846.337c-.149.088-.286.12-.413.097a.593.593 0 0 1-.314-.173.684.684 0 0 1-.161-.333.693.693 0 0 1 .033-.382.69.69 0 0 1 .306-.33 3.976 3.976 0 0 1 1.176-.462 4.795 4.795 0 0 1 1.301-.108c.605.034 1.11.154 1.514.36.404.206.704.491.9.853.195.363.279.795.251 1.297a2.938 2.938 0 0 1-.221.97 3.854 3.854 0 0 1-.544.941 7.544 7.544 0 0 1-.906.992l-2.377 2.218.022-.407 3.514.196c.215.012.375.072.481.182.106.11.153.268.141.476-.011.207-.076.363-.194.468-.117.106-.284.152-.499.14l-4.397-.244zm9.226.633a5.293 5.293 0 0 1-1.282-.239 4.203 4.203 0 0 1-1.178-.581.778.778 0 0 1-.292-.352.758.758 0 0 1-.014-.397.68.68 0 0 1 .198-.324.564.564 0 0 1 .344-.149.749.749 0 0 1 .436.132c.285.184.577.328.875.432.298.105.618.167.96.186.335.018.625-.025.871-.132.245-.106.438-.263.577-.471.14-.208.217-.455.233-.742.025-.446-.09-.812-.346-1.098-.255-.294-.618-.454-1.088-.48a2.147 2.147 0 0 0-.748.09 2.021 2.021 0 0 0-.729.391c-.076.06-.171.118-.286.176a.797.797 0 0 1-.363.064c-.199-.012-.348-.072-.445-.181-.098-.109-.142-.256-.132-.439l.217-3.907c.012-.216.077-.376.195-.481.126-.113.297-.163.512-.151l3.931.218c.215.012.376.077.481.195.114.11.165.269.153.476-.011.199-.079.351-.205.456-.118.105-.284.152-.499.14l-3.107-.173-.149 2.677-.394-.022c.222-.267.509-.467.86-.6.351-.132.73-.187 1.136-.164.534.03.989.171 1.367.423.386.246.675.577.868.996.201.41.286.883.256 1.416-.03.55-.181 1.029-.451 1.438-.27.4-.643.707-1.118.92-.467.206-1.015.292-1.644.257zm-9.355 71.339c-.255-.008-.441-.069-.557-.184-.108-.123-.159-.296-.152-.52a.789.789 0 0 1 .119-.391c.075-.126.183-.258.323-.398l2.48-2.489c.378-.372.652-.711.821-1.017.169-.314.258-.631.267-.95.012-.399-.107-.706-.356-.921-.241-.214-.601-.329-1.079-.343a2.862 2.862 0 0 0-.817.096 2.824 2.824 0 0 0-.837.358.6.6 0 0 1-.41.108.597.597 0 0 1-.319-.165.683.683 0 0 1-.169-.329.683.683 0 0 1 .023-.382.705.705 0 0 1 .297-.339 3.98 3.98 0 0 1 1.164-.492 4.798 4.798 0 0 1 1.298-.141c.606.018 1.113.125 1.523.32.409.196.716.473.921.83.205.357.3.787.285 1.289a2.95 2.95 0 0 1-.196.976 3.822 3.822 0 0 1-.52.955 7.512 7.512 0 0 1-.88 1.016l-2.318 2.278.012-.407 3.517.104c.215.006.377.063.486.17.108.107.16.264.154.472-.007.207-.067.365-.182.473-.115.109-.28.16-.496.153l-4.402-.13zm7.637.322a.754.754 0 0 1-.451-.145.526.526 0 0 1-.205-.354c-.019-.152.022-.318.123-.499l3.814-6.688-.016.526-3.876-.114c-.215-.007-.381-.067-.497-.183-.109-.115-.16-.272-.154-.471.006-.208.067-.365.182-.474.123-.108.292-.159.507-.152l4.63.137a.796.796 0 0 1 .521.183c.132.115.195.277.189.484a1.391 1.391 0 0 1-.085.465c-.052.126-.12.264-.204.413l-3.59 6.395a.863.863 0 0 1-.358.373c-.138.075-.315.11-.53.104zm-9.459 78.714c-.255-.016-.439-.084-.551-.204-.103-.126-.148-.301-.133-.524a.799.799 0 0 1 .133-.387c.08-.123.193-.251.337-.386l2.569-2.398c.391-.358.676-.687.856-.987.18-.308.281-.621.302-.94.026-.398-.082-.709-.323-.933-.233-.223-.589-.35-1.066-.381a2.858 2.858 0 0 0-.82.066 2.817 2.817 0 0 0-.849.328c-.15.086-.288.117-.414.093a.587.587 0 0 1-.313-.177.699.699 0 0 1-.121-.715.697.697 0 0 1 .31-.328 3.986 3.986 0 0 1 1.181-.45 4.824 4.824 0 0 1 1.301-.095c.605.04 1.109.165 1.511.375.402.211.699.498.891.862.192.365.271.798.238 1.299a2.935 2.935 0 0 1-.231.969 3.84 3.84 0 0 1-.553.935c-.237.312-.542.64-.916.983l-2.399 2.194.027-.406 3.511.23c.215.014.374.077.479.188.105.11.15.269.137.476-.014.207-.08.363-.199.467-.119.104-.286.149-.5.135l-4.395-.289zm8.49.678a3.946 3.946 0 0 1-1.052-.225 3.82 3.82 0 0 1-.995-.557.56.56 0 0 1-.231-.327.743.743 0 0 1 .001-.372.735.735 0 0 1 .188-.311.514.514 0 0 1 .333-.147c.129-.015.267.026.412.123.26.177.508.306.743.385.234.079.471.127.71.143.462.03.859-.052 1.191-.246.333-.194.593-.501.78-.92.196-.427.315-.959.357-1.596l.059-.896.143.01a2.354 2.354 0 0 1-.462 1.013 2.11 2.11 0 0 1-.833.629c-.328.13-.688.182-1.078.157a2.446 2.446 0 0 1-1.267-.431 2.441 2.441 0 0 1-.821-1.014 2.987 2.987 0 0 1-.231-1.418c.036-.549.184-1.027.442-1.434a2.58 2.58 0 0 1 1.057-.926c.438-.22.928-.311 1.469-.276.701.046 1.283.248 1.747.607.464.358.803.86 1.017 1.506.214.637.292 1.398.234 2.282-.047.716-.173 1.348-.376 1.894-.196.539-.461.99-.797 1.351a3.02 3.02 0 0 1-1.203.797c-.459.17-.971.236-1.537.199zm.728-4.33c.287.019.542-.029.765-.142.232-.121.415-.292.55-.516.135-.231.212-.497.232-.8a1.734 1.734 0 0 0-.126-.824 1.287 1.287 0 0 0-.478-.571 1.455 1.455 0 0 0-.74-.24 1.455 1.455 0 0 0-.765.141 1.4 1.4 0 0 0-.548.504c-.135.223-.212.49-.233.8-.02.303.022.578.126.824.112.24.271.434.477.583.207.142.454.222.74.241zm-8.431 62.874a5.67 5.67 0 0 1-1.328-.246 3.853 3.853 0 0 1-1.177-.573.805.805 0 0 1-.302-.377.656.656 0 0 1-.025-.386.681.681 0 0 1 .198-.312.597.597 0 0 1 .356-.134.81.81 0 0 1 .459.134c.316.195.624.341.922.438.298.09.607.144.925.163.351.02.648-.01.893-.092.244-.081.432-.214.563-.398a1.23 1.23 0 0 0 .232-.682c.023-.398-.095-.701-.355-.908-.251-.214-.631-.337-1.141-.367l-.765-.045c-.223-.013-.39-.079-.503-.197-.105-.118-.152-.277-.14-.476.011-.199.076-.351.194-.456.126-.105.301-.15.524-.137l.621.036c.303.018.565-.014.785-.097.221-.091.397-.225.527-.401.131-.176.204-.395.219-.658.022-.367-.085-.653-.321-.858-.228-.206-.573-.322-1.035-.349a3.192 3.192 0 0 0-.842.058 3.277 3.277 0 0 0-.87.321.658.658 0 0 1-.425.083.54.54 0 0 1-.313-.175.68.68 0 0 1-.161-.321.63.63 0 0 1 .046-.381.691.691 0 0 1 .319-.329 3.947 3.947 0 0 1 1.165-.435 4.63 4.63 0 0 1 1.289-.104c.581.035 1.074.155 1.477.363.404.2.704.473.899.82.204.34.292.745.264 1.215a2.19 2.19 0 0 1-.245.908 1.99 1.99 0 0 1-.579.662 2.07 2.07 0 0 1-.86.357l.009-.144c.567.13.999.395 1.295.796.297.393.429.872.395 1.438-.029.494-.177.917-.446 1.268-.268.352-.636.614-1.101.787-.465.164-1.013.228-1.642.191zm5.618.211c-.207-.013-.367-.078-.48-.196a.67.67 0 0 1-.139-.488c.012-.207.077-.359.194-.456.126-.097.292-.139.499-.127l1.338.079.346-5.866.74.043-1.818.96a.693.693 0 0 1-.437.082.67.67 0 0 1-.325-.186.758.758 0 0 1-.159-.346.633.633 0 0 1 .046-.38.695.695 0 0 1 .331-.317l1.707-.894c.165-.087.329-.157.492-.211a1.09 1.09 0 0 1 .448-.082c.167.01.304.066.41.168.106.095.153.245.141.452l-.392 6.667 1.218.072c.207.012.364.073.469.183.113.111.164.27.152.477-.012.207-.081.363-.207.467-.119.105-.281.151-.488.139l-4.086-.24zm-8.033 53.037a5.686 5.686 0 0 1-1.284-.418 3.815 3.815 0 0 1-1.092-.722.8.8 0 0 1-.25-.413.658.658 0 0 1 .025-.385.684.684 0 0 1 .238-.284.603.603 0 0 1 .37-.087c.144.011.29.076.438.194.288.234.573.419.856.555.284.127.583.221.896.282.345.066.644.075.897.026s.457-.156.611-.321c.161-.164.267-.379.319-.646.075-.391-.002-.707-.233-.946-.22-.246-.582-.417-1.083-.513l-.752-.145c-.22-.042-.377-.13-.474-.262-.088-.131-.114-.294-.076-.49.037-.196.122-.338.253-.427.138-.087.317-.109.537-.067l.611.118c.297.057.561.059.791.006.231-.062.423-.171.575-.329a1.2 1.2 0 0 0 .303-.624c.069-.36 0-.658-.206-.893-.199-.233-.526-.393-.98-.481a3.194 3.194 0 0 0-.843-.052 3.24 3.24 0 0 0-.905.204.646.646 0 0 1-.432.026.541.541 0 0 1-.288-.214.637.637 0 0 1-.021-.711.685.685 0 0 1 .359-.284 3.987 3.987 0 0 1 1.212-.279c.43-.039.86-.017 1.291.066.572.11 1.045.294 1.417.553.375.251.636.561.784.931.158.363.192.776.103 1.238a2.188 2.188 0 0 1-.362.869 1.998 1.998 0 0 1-.66.58 2.059 2.059 0 0 1-.9.241l.027-.141c.546.203.94.522 1.181.959.242.428.31.921.203 1.477-.093.486-.296.885-.608 1.199-.313.314-.711.526-1.195.636-.483.102-1.034.093-1.653-.026zm7.047 1.356a5.686 5.686 0 0 1-1.284-.418 3.836 3.836 0 0 1-1.092-.722.8.8 0 0 1-.25-.413.662.662 0 0 1 .025-.386.688.688 0 0 1 .238-.283.603.603 0 0 1 .37-.087c.144.011.29.076.438.194.288.234.573.419.856.555.284.127.583.221.896.282.345.066.644.075.897.026s.457-.156.611-.321c.161-.164.267-.379.319-.646.075-.392-.002-.707-.233-.946-.22-.246-.582-.417-1.083-.514l-.752-.144c-.22-.042-.377-.13-.474-.262-.088-.131-.114-.294-.076-.49.037-.196.122-.338.253-.427.138-.087.317-.109.537-.067l.611.118c.297.057.561.059.791.006.231-.062.423-.171.575-.329a1.2 1.2 0 0 0 .303-.624c.069-.36 0-.658-.206-.893-.199-.233-.526-.393-.98-.481a3.194 3.194 0 0 0-.843-.052 3.24 3.24 0 0 0-.905.204.646.646 0 0 1-.432.026.541.541 0 0 1-.288-.214.686.686 0 0 1-.117-.339.635.635 0 0 1 .096-.372.681.681 0 0 1 .359-.284 3.957 3.957 0 0 1 1.212-.279c.43-.039.86-.017 1.291.066.572.11 1.045.294 1.417.553.375.251.636.561.784.931.158.363.192.776.103 1.238a2.188 2.188 0 0 1-.362.869 1.998 1.998 0 0 1-.66.58 2.059 2.059 0 0 1-.9.241l.027-.141c.546.203.94.522 1.181.959.242.428.31.921.203 1.477-.093.486-.296.885-.608 1.199-.313.314-.711.526-1.195.636-.483.102-1.034.093-1.653-.026zm-33.31 72.986a5.673 5.673 0 0 1-1.19-.638 3.839 3.839 0 0 1-.948-.903.808.808 0 0 1-.173-.451.662.662 0 0 1 .093-.375.675.675 0 0 1 .284-.237.607.607 0 0 1 .38-.02.813.813 0 0 1 .397.268c.242.281.49.513.744.697.258.176.535.321.833.435.328.127.62.188.878.185.258-.004.477-.073.658-.209.187-.133.33-.326.428-.579.143-.373.122-.697-.062-.973-.174-.281-.5-.513-.976-.696l-.715-.275c-.208-.08-.349-.194-.42-.341-.064-.145-.06-.31.011-.496.072-.186.18-.312.324-.376.152-.061.332-.051.541.029l.58.223c.283.109.543.158.778.146.238-.02.446-.094.624-.222a1.19 1.19 0 0 0 .408-.561c.132-.342.117-.648-.045-.915-.155-.265-.448-.48-.88-.646a3.186 3.186 0 0 0-.821-.201 3.3 3.3 0 0 0-.926.041.641.641 0 0 1-.429-.05.528.528 0 0 1-.246-.261.677.677 0 0 1-.056-.355.63.63 0 0 1 .16-.349.687.687 0 0 1 .404-.216c.4-.085.814-.106 1.242-.061.43.037.85.135 1.259.293.544.209.976.473 1.297.794.325.313.527.664.608 1.054.091.386.052.798-.117 1.238a2.212 2.212 0 0 1-.51.791 1.988 1.988 0 0 1-1.68.533l.052-.134c.501.296.832.68.993 1.152.163.464.143.961-.061 1.49-.177.461-.447.819-.81 1.073-.363.253-.792.392-1.288.415-.493.015-1.034-.091-1.623-.317zm6.921 2.663a5.25 5.25 0 0 1-1.146-.62 4.186 4.186 0 0 1-.943-.915.77.77 0 0 1-.17-.424.757.757 0 0 1 .108-.382.687.687 0 0 1 .288-.248.562.562 0 0 1 .373-.036c.132.034.257.12.375.26.215.262.448.489.7.679.251.191.537.348.857.471.313.121.603.168.869.142a1.29 1.29 0 0 0 .694-.271c.197-.155.347-.367.45-.635.16-.417.163-.801.007-1.151-.153-.358-.449-.622-.888-.791a2.135 2.135 0 0 0-.74-.144 2.033 2.033 0 0 0-.814.149c-.09.034-.199.06-.326.08a.79.79 0 0 1-.365-.051c-.186-.072-.309-.175-.368-.309-.06-.134-.057-.286.009-.458l1.406-3.652c.077-.201.188-.334.332-.398.155-.069.333-.064.534.013l3.675 1.414c.201.078.333.188.397.333.075.14.075.306 0 .5-.071.186-.183.31-.335.371-.144.064-.317.058-.518-.02l-2.904-1.117-.963 2.502-.369-.142a2.026 2.026 0 0 1 1.003-.307 2.76 2.76 0 0 1 1.132.192c.499.192.889.466 1.171.823.292.351.466.756.52 1.213.066.453.002.928-.19 1.427-.197.514-.488.924-.87 1.23-.38.298-.829.476-1.347.533-.507.053-1.055-.034-1.644-.261zm-58.137 74.97a5.69 5.69 0 0 1-1.229.559 3.827 3.827 0 0 1-1.293.205.803.803 0 0 1-.464-.137.653.653 0 0 1-.241-.301.674.674 0 0 1-.016-.369.598.598 0 0 1 .214-.314.811.811 0 0 1 .454-.153 4.353 4.353 0 0 0 1.006-.169c.296-.097.58-.23.852-.397.299-.184.525-.379.679-.586a1.08 1.08 0 0 0 .233-.649 1.22 1.22 0 0 0-.2-.692c-.209-.34-.479-.52-.811-.541-.328-.032-.71.085-1.145.353l-.653.401c-.19.117-.366.159-.526.127-.154-.037-.283-.14-.387-.31-.105-.17-.138-.332-.102-.486.044-.158.161-.295.351-.412l.53-.326c.258-.159.454-.335.588-.529.129-.202.196-.412.202-.631a1.2 1.2 0 0 0-.198-.665c-.192-.312-.443-.486-.754-.519-.305-.038-.654.064-1.048.307a3.12 3.12 0 0 0-1.187 1.291.65.65 0 0 1-.301.311.537.537 0 0 1-.356.037.684.684 0 0 1-.316-.171.63.63 0 0 1-.18-.339.683.683 0 0 1 .073-.453c.175-.369.41-.711.705-1.023.291-.319.623-.594.997-.824.496-.305.969-.488 1.419-.548.445-.068.847-.016 1.206.157.362.162.666.443.913.844.175.286.282.581.319.886a1.99 1.99 0 0 1-.095.873 2.057 2.057 0 0 1-.501.785l-.075-.122c.539-.219 1.045-.249 1.518-.09.468.152.851.47 1.147.952.259.422.379.854.361 1.296-.019.442-.169.867-.452 1.275-.288.402-.7.767-1.237 1.097zm6.318-3.883c-.36.222-.757.4-1.189.534a4.17 4.17 0 0 1-1.299.195.77.77 0 0 1-.441-.123.744.744 0 0 1-.237-.317.683.683 0 0 1-.023-.38.565.565 0 0 1 .198-.318.74.74 0 0 1 .434-.14c.339-.012.661-.06.965-.144.304-.084.603-.216.895-.395.285-.176.499-.377.64-.605.141-.227.21-.466.206-.716a1.449 1.449 0 0 0-.232-.743c-.234-.38-.537-.615-.911-.704-.377-.096-.766-.021-1.167.226-.218.133-.405.3-.563.5a2.016 2.016 0 0 0-.376.737 1.621 1.621 0 0 1-.135.307.794.794 0 0 1-.262.26c-.17.104-.326.139-.469.105-.142-.034-.262-.129-.358-.285l-2.049-3.334c-.113-.184-.151-.353-.114-.506.039-.165.151-.304.334-.416l3.355-2.062c.183-.113.352-.151.505-.114.157.025.289.127.398.303.104.17.135.334.091.492-.036.154-.147.287-.33.4l-2.651 1.629 1.404 2.284-.337.207c.031-.347.152-.674.365-.983a2.75 2.75 0 0 1 .84-.783c.455-.28.91-.424 1.364-.431.457-.019.884.089 1.28.323.4.223.739.562 1.019 1.017.288.469.438.949.449 1.438.006.483-.125.948-.394 1.394-.266.436-.668.818-1.205 1.148zm-79.399 52a5.685 5.685 0 0 1-1.301.362 3.86 3.86 0 0 1-1.309.003.814.814 0 0 1-.437-.207.655.655 0 0 1-.192-.335.678.678 0 0 1 .041-.367.607.607 0 0 1 .26-.278.812.812 0 0 1 .473-.08 4.36 4.36 0 0 0 1.02-.012c.307-.05.608-.137.902-.26.324-.136.578-.294.762-.474.184-.181.294-.383.331-.605a1.222 1.222 0 0 0-.091-.715c-.154-.368-.393-.588-.717-.66-.32-.082-.715-.025-1.186.172l-.707.295c-.206.086-.386.101-.54.044-.146-.06-.257-.182-.334-.366-.077-.184-.086-.349-.026-.496.068-.149.205-.266.411-.353l.574-.24c.28-.116.5-.261.662-.432.159-.179.258-.376.298-.591.04-.216.009-.445-.093-.688-.141-.339-.363-.549-.665-.63-.295-.084-.656-.037-1.083.141a3.171 3.171 0 0 0-.731.423 3.24 3.24 0 0 0-.641.67.65.65 0 0 1-.345.26.53.53 0 0 1-.358-.019.681.681 0 0 1-.286-.217.631.631 0 0 1-.125-.363.681.681 0 0 1 .142-.436c.23-.338.515-.639.855-.902.337-.27.707-.49 1.112-.659.538-.225 1.033-.332 1.487-.323.45.002.84.116 1.168.342.332.216.589.541.77.975.129.309.189.617.179.924-.013.3-.09.583-.229.848-.14.266-.345.499-.616.699l-.056-.133c.567-.133 1.072-.084 1.514.146.439.223.768.596.986 1.119.191.456.243.901.156 1.335-.086.434-.301.831-.644 1.19-.346.352-.809.65-1.391.893zm5.353-2.263a.745.745 0 0 1-.47.054.527.527 0 0 1-.333-.237c-.08-.131-.112-.299-.094-.506l.714-7.666.203.486-3.578 1.495c-.199.083-.375.097-.529.04-.146-.06-.257-.182-.334-.366-.08-.192-.09-.361-.03-.507.067-.149.2-.265.399-.348l4.273-1.786a.808.808 0 0 1 .551-.049c.168.051.292.172.372.364.068.162.106.314.114.458.005.136 0 .29-.015.46l-.63 7.307a.863.863 0 0 1-.173.487 1.026 1.026 0 0 1-.44.314zm-106.285 19.355a5.636 5.636 0 0 1-1.345-.126 3.842 3.842 0 0 1-1.224-.465.802.802 0 0 1-.334-.348c-.06-.134-.08-.261-.06-.382a.68.68 0 0 1 .169-.328.609.609 0 0 1 .342-.167c.144-.02.3.011.47.094.333.165.652.283.957.353.306.062.618.089.937.079.351-.011.644-.068.88-.171.237-.103.412-.253.525-.448.122-.195.179-.428.17-.699-.012-.399-.157-.69-.434-.873-.269-.191-.659-.279-1.17-.263l-.765.024c-.224.007-.397-.044-.52-.152-.115-.108-.176-.262-.182-.461-.006-.199.045-.357.153-.472.116-.115.286-.176.509-.183l.622-.02c.303-.009.561-.065.774-.167.212-.111.375-.259.489-.447a1.2 1.2 0 0 0 .158-.675c-.011-.367-.143-.642-.397-.826-.245-.184-.599-.269-1.061-.254a3.163 3.163 0 0 0-.834.133 3.293 3.293 0 0 0-.838.398.648.648 0 0 1-.415.12.535.535 0 0 1-.328-.145.67.67 0 0 1-.189-.306.628.628 0 0 1 .012-.383.679.679 0 0 1 .288-.356 3.94 3.94 0 0 1 1.121-.538 4.557 4.557 0 0 1 1.274-.219c.582-.018 1.084.058 1.504.228.42.163.743.408.969.737.233.32.357.715.372 1.185.01.335-.044.644-.163.928a1.984 1.984 0 0 1-1.341 1.143l-.005-.144c.577.078 1.031.303 1.362.676.331.365.505.831.523 1.397.015.495-.095.929-.331 1.304-.236.374-.578.668-1.026.882-.449.205-.988.318-1.618.337zm5.808-.204a.75.75 0 0 1-.459-.118.525.525 0 0 1-.226-.34c-.028-.151.002-.319.092-.506l3.402-6.906.016.526-3.876.12c-.215.007-.384-.044-.507-.152-.115-.108-.176-.262-.182-.461-.007-.207.044-.369.152-.484.117-.115.282-.176.498-.183l4.629-.144a.804.804 0 0 1 .532.152c.139.107.211.264.218.472.005.175-.014.331-.057.469a3.74 3.74 0 0 1-.179.424l-3.195 6.601a.866.866 0 0 1-.335.394 1.034 1.034 0 0 1-.523.136zm-95.841-14.942a5.765 5.765 0 0 1-1.225-.571 3.847 3.847 0 0 1-.996-.849.798.798 0 0 1-.198-.441.65.65 0 0 1 .072-.379.666.666 0 0 1 .27-.252.601.601 0 0 1 .378-.042.818.818 0 0 1 .411.246c.258.267.518.485.783.654.266.161.551.291.855.388.334.108.63.153.887.135.257-.018.472-.099.645-.245.18-.143.312-.344.395-.602.122-.38.084-.702-.116-.968-.189-.27-.527-.484-1.013-.64l-.729-.235c-.213-.069-.359-.174-.439-.317-.072-.141-.077-.306-.016-.496s.162-.321.302-.393c.148-.069.329-.07.541-.002l.593.191c.288.093.55.127.784.102.237-.033.441-.118.611-.256.17-.138.295-.333.376-.583.113-.35.081-.653-.096-.911-.169-.256-.474-.455-.915-.597a3.22 3.22 0 0 0-.83-.154 3.312 3.312 0 0 0-.923.093.65.65 0 0 1-.431-.026.534.534 0 0 1-.26-.247.68.68 0 0 1-.076-.351.633.633 0 0 1 .14-.357.687.687 0 0 1 .391-.239 3.935 3.935 0 0 1 1.237-.13c.431.013.856.087 1.274.221.554.179 1.001.419 1.339.721.342.294.563.634.666 1.019.112.38.096.794-.048 1.242a2.188 2.188 0 0 1-.465.818 1.99 1.99 0 0 1-.725.496 2.067 2.067 0 0 1-.922.131l.044-.137c.517.267.869.632 1.055 1.094.189.455.197.952.023 1.491-.151.471-.401.843-.749 1.117-.348.273-.769.435-1.263.486-.492.043-1.037-.032-1.637-.225zm6.364 2.048a3.915 3.915 0 0 1-.967-.474 3.826 3.826 0 0 1-.829-.783.56.56 0 0 1-.144-.373.74.74 0 0 1 .091-.36.74.74 0 0 1 .259-.257.51.51 0 0 1 .358-.06c.129.016.252.089.37.219.209.236.418.42.626.554.209.134.427.238.654.311.441.142.846.16 1.216.052.37-.107.697-.341.981-.702.294-.367.538-.854.734-1.461l.275-.855.137.044a2.345 2.345 0 0 1-.695.87 2.098 2.098 0 0 1-.961.408 2.47 2.47 0 0 1-1.084-.11 2.45 2.45 0 0 1-1.124-.727 2.437 2.437 0 0 1-.549-1.183 2.991 2.991 0 0 1 .121-1.432c.169-.524.428-.951.778-1.283a2.58 2.58 0 0 1 1.25-.641 2.815 2.815 0 0 1 1.492.09c.669.216 1.184.553 1.547 1.014.363.461.57 1.03.62 1.708.052.671-.058 1.428-.329 2.271-.22.683-.496 1.265-.826 1.746a3.921 3.921 0 0 1-1.102 1.116 3.03 3.03 0 0 1-1.361.48 3.7 3.7 0 0 1-1.538-.182zm1.76-4.022c.273.088.532.104.776.049.254-.061.474-.183.659-.367a1.8 1.8 0 0 0 .42-.719c.096-.296.122-.573.079-.83a1.292 1.292 0 0 0-.325-.67 1.45 1.45 0 0 0-.659-.414 1.448 1.448 0 0 0-.777-.048 1.378 1.378 0 0 0-.654.355 1.75 1.75 0 0 0-.421.719 1.789 1.789 0 0 0-.078.83c.05.259.157.487.321.682.166.187.385.325.659.413zm-88.934-45.136c-.185-.152-.289-.321-.312-.505-.019-.191.051-.382.208-.573l.594-.72-2.28-1.881c-.191-.158-.312-.324-.363-.501-.045-.171.004-.343.146-.516.081-.098.195-.185.34-.262.152-.071.375-.146.667-.225l5.554-1.579c.192-.058.369-.078.529-.059a.83.83 0 0 1 .444.195c.16.132.252.29.275.475.029.179-.041.37-.208.573l-3.115 3.776.453.373c.178.147.275.3.29.457.026.156-.027.314-.159.474-.132.16-.279.245-.443.255-.152.009-.317-.06-.496-.207l-.452-.373-.594.72c-.157.191-.332.295-.523.313-.185.013-.371-.057-.555-.21zm1.297-2.777l2.376-2.88.268.22-4.814 1.398.259-.314 1.911 1.576zm1.927 5.313c-.16-.132-.251-.28-.272-.442a.674.674 0 0 1 .175-.476c.132-.16.274-.244.426-.253.159-.004.318.06.478.192l1.034.853 3.739-4.533.573.472-2.035-.298a.698.698 0 0 1-.401-.191.673.673 0 0 1-.152-.343.752.752 0 0 1 .075-.372.629.629 0 0 1 .262-.281.694.694 0 0 1 .453-.06l1.906.285c.184.027.358.067.522.119.169.047.305.113.41.199a.624.624 0 0 1 .232.377c.03.139-.021.289-.153.449l-4.249 5.152.942.776c.16.132.25.274.27.425.026.156-.027.314-.159.474-.132.16-.279.245-.443.255-.157.015-.316-.043-.476-.175l-3.157-2.604zM72.66 727.237c-.13-.2-.18-.392-.148-.576.04-.187.162-.349.369-.485l.78-.512-1.621-2.472c-.136-.206-.202-.402-.198-.585.008-.177.105-.327.292-.45.106-.07.24-.119.403-.149.166-.023.4-.029.703-.018l5.772.135c.201.002.376.035.524.1a.84.84 0 0 1 .366.318.723.723 0 0 1 .122.536c-.026.179-.149.34-.369.485l-4.093 2.685.322.49c.127.194.175.368.142.523-.02.157-.118.292-.291.406-.174.114-.34.151-.5.112-.147-.036-.285-.151-.412-.345l-.321-.49-.78.512c-.207.136-.405.184-.593.145-.18-.043-.337-.165-.468-.365zm2.062-2.269l3.122-2.048.19.29-5.011-.09.34-.223 1.36 2.071zm1.022 7.011a5.705 5.705 0 0 1-.596-1.212 3.857 3.857 0 0 1-.242-1.287.809.809 0 0 1 .122-.467.66.66 0 0 1 .294-.25.676.676 0 0 1 .369-.027c.126.032.233.1.32.205a.812.812 0 0 1 .166.449c.033.37.1.703.199 1.001.106.292.247.572.422.839.193.294.394.514.606.662.211.147.43.219.656.214.23.002.458-.072.685-.221.334-.219.506-.494.517-.826.023-.33-.106-.708-.386-1.135l-.42-.64c-.123-.187-.17-.361-.143-.522.032-.155.132-.287.299-.396.166-.11.327-.149.482-.116.159.038.3.151.422.338l.341.52c.167.254.35.444.547.572.205.123.417.184.636.184a1.2 1.2 0 0 0 .66-.218c.306-.201.472-.458.496-.769.029-.306-.084-.652-.337-1.039a3.2 3.2 0 0 0-.55-.641 3.306 3.306 0 0 0-.776-.507.65.65 0 0 1-.32-.291.539.539 0 0 1-.047-.356.68.68 0 0 1 .161-.32c.09-.097.2-.161.334-.191a.69.69 0 0 1 .454.06c.375.165.723.39 1.044.675.328.281.612.605.852.972.32.487.517.955.591 1.402.08.443.04.847-.122 1.211-.15.366-.423.678-.817.937-.28.183-.572.299-.875.345a1.998 1.998 0 0 1-.876-.069 2.063 2.063 0 0 1-.8-.478l.12-.078c.235.532.28 1.037.135 1.514-.138.473-.444.864-.918 1.175-.414.272-.842.405-1.284.399-.443-.005-.872-.144-1.288-.414-.41-.276-.788-.677-1.133-1.204zm-31.162-64.101c-.234.053-.43.032-.591-.062-.163-.102-.271-.274-.326-.515l-.207-.91-2.883.656c-.241.055-.447.049-.618-.019-.163-.069-.27-.212-.319-.43a1.09 1.09 0 0 1 0-.43 4.28 4.28 0 0 1 .23-.666l2.142-5.361c.071-.188.163-.34.276-.456a.845.845 0 0 1 .426-.232.723.723 0 0 1 .544.073c.16.086.268.258.326.515l1.087 4.773.572-.131c.226-.051.406-.035.54.049.139.075.232.213.278.416.046.202.023.371-.069.506-.086.126-.241.215-.467.266l-.572.131.207.91c.055.241.032.443-.07.605-.104.155-.273.259-.506.312zm-1.406-2.724l-.83-3.641.339-.077-1.834 4.665-.09-.397 2.415-.55zm8.403 1.13c-.234.053-.43.033-.591-.062-.163-.102-.271-.274-.326-.515l-.207-.91-2.883.657c-.24.054-.447.048-.618-.019-.163-.069-.27-.213-.319-.431a1.09 1.09 0 0 1 0-.43 4.33 4.33 0 0 1 .23-.665l2.142-5.361a1.3 1.3 0 0 1 .276-.456.838.838 0 0 1 .426-.232.723.723 0 0 1 .544.072c.16.087.268.258.327.515l1.087 4.773.571-.13c.226-.052.406-.035.54.049.139.074.232.213.278.415.046.202.023.371-.069.507-.086.126-.241.214-.467.266l-.572.13.208.91c.055.241.03.443-.071.605-.104.155-.273.259-.506.312zm-1.406-2.724l-.83-3.641.339-.077-1.834 4.665-.09-.397 2.415-.55zm52.409 10.318c-.234.053-.431.032-.591-.062-.163-.102-.271-.274-.326-.515l-.207-.91-2.883.656c-.241.055-.447.049-.618-.019-.163-.069-.27-.212-.319-.43a1.09 1.09 0 0 1 0-.43 4.28 4.28 0 0 1 .23-.666l2.142-5.361c.071-.188.164-.34.276-.456a.847.847 0 0 1 .426-.232.722.722 0 0 1 .544.073c.159.086.268.258.326.515l1.087 4.773.572-.131c.226-.051.406-.035.539.049.14.075.233.213.279.416.046.202.023.371-.069.506-.086.126-.241.215-.467.266l-.572.131.207.91c.055.241.032.443-.07.605-.104.155-.273.259-.506.312zm-1.406-2.724l-.829-3.641.338-.077-1.834 4.665-.09-.397 2.415-.55zm7.393 1.385c-.677.154-1.293.126-1.848-.083-.549-.218-1.017-.603-1.404-1.153s-.679-1.257-.876-2.12c-.159-.701-.222-1.337-.189-1.909.039-.582.168-1.094.387-1.536.218-.443.523-.811.914-1.105a3.787 3.787 0 0 1 1.427-.632 3.579 3.579 0 0 1 1.076-.073c.381.02.751.099 1.11.238a.56.56 0 0 1 .314.248c.067.115.1.239.097.371a.66.66 0 0 1-.092.352.538.538 0 0 1-.266.232.67.67 0 0 1-.432-.012 3.123 3.123 0 0 0-.821-.156 2.788 2.788 0 0 0-.722.066c-.451.103-.808.294-1.072.575-.263.281-.429.65-.496 1.108-.06.455-.018.998.125 1.628l.199.875-.14.032a2.483 2.483 0 0 1 .154-1.103c.137-.334.344-.61.622-.829.275-.226.604-.383.985-.469.475-.109.92-.091 1.337.051.417.142.776.388 1.077.737.3.349.509.78.626 1.293a2.96 2.96 0 0 1-.026 1.504 2.583 2.583 0 0 1-.734 1.198c-.351.325-.795.549-1.332.672zm-.353-1.172c.28-.064.511-.182.693-.354.189-.174.317-.387.382-.64.063-.26.062-.537-.006-.833a1.74 1.74 0 0 0-.356-.754 1.29 1.29 0 0 0-.621-.411c-.24-.084-.5-.094-.78-.03a1.38 1.38 0 0 0-.69.365 1.396 1.396 0 0 0-.382.64c-.066.252-.064.53.005.833.068.296.186.547.356.754.176.197.383.334.621.411.239.076.498.083.778.019zm30.011 56.066c-.161-.177-.24-.359-.237-.545.009-.192.105-.371.288-.537l.69-.629-1.991-2.185c-.166-.183-.262-.366-.287-.548-.02-.176.052-.339.217-.489.095-.086.219-.157.374-.212.161-.049.392-.091.693-.128l5.721-.775c.199-.03.376-.025.533.016a.844.844 0 0 1 .411.257c.14.153.208.323.205.509.003.181-.093.36-.288.538l-3.619 3.296.395.433c.156.171.23.336.223.493.004.159-.071.308-.224.447-.154.14-.312.203-.475.19-.152-.013-.306-.105-.462-.276l-.394-.433-.691.628c-.183.167-.37.246-.561.237-.186-.015-.36-.11-.521-.287zm1.679-2.565l2.761-2.514.233.256-4.963.7.301-.274 1.668 1.832zm2.273 6.94a5.263 5.263 0 0 1-.746-1.069 4.206 4.206 0 0 1-.434-1.24.775.775 0 0 1 .039-.456.751.751 0 0 1 .268-.292.676.676 0 0 1 .368-.093.56.56 0 0 1 .35.135.737.737 0 0 1 .218.4c.075.331.182.638.321.921.14.284.325.552.556.806.226.247.463.42.713.516.249.096.497.119.742.068.245-.05.474-.172.687-.366.33-.3.504-.643.522-1.026.024-.388-.123-.757-.44-1.105a2.14 2.14 0 0 0-.597-.46c-.22-.123-.485-.2-.794-.232a1.69 1.69 0 0 1-.327-.074.798.798 0 0 1-.303-.209c-.135-.148-.198-.295-.192-.441.007-.147.078-.282.214-.405l2.894-2.636c.159-.145.317-.214.475-.206.169.008.326.091.471.251l2.652 2.911c.145.159.214.318.206.475.004.159-.071.308-.224.447-.147.135-.303.195-.466.182-.158-.007-.309-.091-.454-.25l-2.095-2.301-1.983 1.806-.265-.292c.346-.035.69.023 1.033.175.343.151.652.378.926.679.36.395.586.815.678 1.26.104.445.078.884-.078 1.318-.145.433-.415.83-.81 1.19-.407.371-.85.607-1.329.709a2.588 2.588 0 0 1-1.443-.127c-.477-.18-.928-.503-1.353-.969zm50.53 43.22c-.214-.108-.353-.249-.417-.424-.06-.182-.035-.383.076-.604l.418-.835-2.642-1.326c-.221-.111-.376-.247-.465-.407-.081-.157-.072-.336.028-.535.057-.115.148-.225.273-.332a4.4 4.4 0 0 1 .6-.368l5.063-2.776c.175-.099.342-.158.503-.176a.842.842 0 0 1 .476.092c.186.093.31.227.374.402.068.168.043.369-.076.605l-2.195 4.375.524.263c.207.103.335.23.385.38.06.147.044.313-.049.498s-.218.301-.375.347c-.147.043-.323.012-.53-.091l-.524-.264-.419.835c-.111.221-.258.362-.44.422-.178.053-.374.026-.588-.081zm.647-2.997l1.675-3.337.31.156-4.382 2.434.182-.364 2.215 1.111zm2.814 4.627c-.228-.114-.37-.249-.427-.402-.046-.157-.019-.335.081-.535a.803.803 0 0 1 .273-.305c.122-.082.275-.156.461-.224l3.299-1.21c.5-.178.891-.37 1.173-.576.286-.214.5-.463.643-.749.179-.356.201-.684.066-.984-.128-.297-.406-.552-.834-.767a2.846 2.846 0 0 0-.781-.258 2.811 2.811 0 0 0-.91-.028c-.171.021-.31-.004-.417-.076a.58.58 0 0 1-.219-.284.699.699 0 0 1 .167-.706c.104-.1.241-.16.412-.181a3.99 3.99 0 0 1 1.263.044c.439.087.851.226 1.236.42.542.272.957.583 1.246.933.288.35.45.73.485 1.141.035.41-.06.84-.285 1.289-.151.3-.347.567-.59.802a3.807 3.807 0 0 1-.874.646 7.534 7.534 0 0 1-1.226.55l-3.063 1.087.182-.364 3.145 1.579c.192.096.315.216.369.359.053.143.033.307-.06.492-.093.186-.215.303-.365.353-.149.05-.321.026-.513-.07l-3.937-1.976zm54.421 18.955c-.238-.029-.416-.116-.535-.259-.118-.152-.161-.35-.131-.596l.115-.926-2.933-.365c-.246-.03-.437-.106-.575-.228-.13-.12-.181-.292-.153-.513a1.09 1.09 0 0 1 .147-.404 4.26 4.26 0 0 1 .442-.548l3.84-4.311c.131-.152.27-.264.415-.334a.835.835 0 0 1 .48-.073.72.72 0 0 1 .487.253c.12.136.163.334.131.595l-.604 4.858.582.072c.23.029.393.106.49.23.106.118.146.28.121.486-.026.205-.105.356-.238.452-.123.09-.3.12-.529.091l-.582-.072-.116.926c-.03.246-.121.428-.272.545-.151.11-.345.151-.582.121zm-.394-3.04l.46-3.705.345.042-3.314 3.761.05-.403 2.459.305zm6.17 3.782c-.989-.123-1.699-.589-2.129-1.398-.429-.817-.558-1.919-.386-3.304.116-.935.329-1.704.637-2.309.317-.612.722-1.052 1.213-1.321.5-.267 1.078-.36 1.736-.279.997.125 1.708.583 2.132 1.375.432.794.562 1.887.388 3.281-.115.926-.331 1.699-.65 2.319-.309.613-.71 1.061-1.204 1.346-.493.276-1.072.373-1.737.29zm.155-1.247c.539.067.966-.133 1.281-.6.323-.467.551-1.231.683-2.292.132-1.061.096-1.845-.106-2.352-.193-.515-.559-.806-1.097-.872-.531-.066-.957.126-1.278.576-.321.443-.547 1.195-.678 2.256-.132 1.061-.099 1.857.101 2.388.199.532.564.83 1.094.896zm81.766-4.126a5.693 5.693 0 0 1-1.348.088 3.834 3.834 0 0 1-1.282-.266.807.807 0 0 1-.385-.291.66.66 0 0 1-.119-.367.685.685 0 0 1 .115-.352.608.608 0 0 1 .312-.218.81.81 0 0 1 .479.018 4.32 4.32 0 0 0 1 .198c.312.013.624-.01.937-.07.345-.066.626-.169.843-.308a1.09 1.09 0 0 0 .448-.525c.089-.212.108-.451.057-.718-.075-.391-.264-.656-.566-.793-.297-.146-.695-.171-1.197-.075l-.752.145c-.22.042-.399.019-.537-.068-.131-.089-.215-.231-.253-.427-.037-.196-.012-.359.077-.49.096-.132.254-.219.474-.261l.611-.118c.298-.057.543-.153.737-.287.192-.143.329-.315.412-.518.083-.203.1-.434.05-.692-.069-.361-.243-.612-.522-.753-.271-.143-.634-.171-1.088-.084-.29.056-.558.144-.803.264a3.274 3.274 0 0 0-.764.525.652.652 0 0 1-.391.184.533.533 0 0 1-.347-.092.636.636 0 0 1-.284-.652.688.688 0 0 1 .229-.397c.295-.284.635-.52 1.022-.708a4.582 4.582 0 0 1 1.223-.418c.572-.11 1.079-.113 1.522-.011.44.094.798.285 1.072.574.281.279.466.65.555 1.112.063.329.058.643-.014.941a2 2 0 0 1-.398.783c-.192.232-.44.418-.747.558l-.027-.141c.583-.015 1.066.136 1.452.452.384.308.63.741.736 1.297.094.486.053.932-.12 1.339-.174.407-.466.752-.875 1.033-.41.274-.925.47-1.544.589zm7.212-1.384c-.979.188-1.798-.036-2.457-.674-.66-.645-1.121-1.653-1.384-3.024-.178-.925-.213-1.723-.106-2.393.113-.68.362-1.223.747-1.63.393-.409.915-.675 1.565-.8.987-.19 1.805.027 2.453.65.655.622 1.115 1.622 1.38 3.002.176.916.208 1.719.096 2.406-.106.679-.349 1.229-.731 1.652-.384.414-.905.685-1.563.811zm-.237-1.234c.533-.102.878-.424 1.034-.966.164-.543.145-1.34-.057-2.39-.201-1.05-.476-1.785-.825-2.206-.343-.429-.78-.593-1.313-.491-.525.101-.871.415-1.038.942-.168.52-.152 1.305.05 2.355.201 1.05.479 1.797.832 2.241.353.444.792.616 1.317.515zm48.778-16.484a5.744 5.744 0 0 1-1.267.468c-.463.114-.898.15-1.305.109a.799.799 0 0 1-.452-.17.66.66 0 0 1-.219-.318.688.688 0 0 1 .011-.369.606.606 0 0 1 .237-.298c.12-.08.275-.12.464-.119.371.005.71-.026 1.015-.095.303-.076.596-.187.879-.334.312-.161.552-.339.72-.534.169-.195.262-.406.28-.631a1.215 1.215 0 0 0-.149-.704c-.183-.354-.439-.554-.768-.599-.326-.056-.715.033-1.169.268l-.68.352c-.198.103-.376.132-.534.088-.151-.048-.272-.16-.364-.337-.091-.178-.113-.341-.065-.492.055-.154.181-.283.38-.385l.552-.287c.269-.139.478-.301.625-.485.144-.191.226-.396.248-.614a1.197 1.197 0 0 0-.149-.677c-.168-.326-.407-.517-.714-.574-.301-.06-.657.017-1.068.23a3.147 3.147 0 0 0-.694.481 3.258 3.258 0 0 0-.584.72.65.65 0 0 1-.322.288.54.54 0 0 1-.359.011.697.697 0 0 1-.303-.194.631.631 0 0 1-.154-.351.683.683 0 0 1 .106-.446c.202-.356.461-.679.778-.969a4.617 4.617 0 0 1 1.055-.749c.517-.268 1.002-.415 1.455-.443.449-.035.846.047 1.192.245.348.188.631.491.848.909.154.297.238.599.253.906.012.3-.041.588-.159.864a2.061 2.061 0 0 1-.556.747l-.067-.128c.555-.179 1.061-.172 1.521.021.456.187.814.531 1.075 1.034.227.44.315.879.265 1.319-.051.439-.233.852-.545 1.239-.316.379-.753.713-1.313 1.003zm6.521-3.377c-.886.459-1.735.476-2.547.052-.816-.431-1.546-1.266-2.188-2.506-.433-.836-.693-1.591-.781-2.264-.085-.684-.001-1.276.253-1.775.26-.504.685-.907 1.273-1.212.892-.462 1.738-.487 2.536-.074.805.41 1.531 1.238 2.176 2.485.43.829.688 1.589.777 2.28.092.681.014 1.278-.232 1.791-.249.507-.672.915-1.267 1.223zm-.578-1.116c.482-.249.721-.656.716-1.22.003-.567-.242-1.326-.733-2.275-.492-.95-.965-1.576-1.419-1.88-.451-.315-.917-.348-1.398-.098-.475.246-.718.645-.727 1.199-.014.546.225 1.294.717 2.243.491.949.97 1.587 1.435 1.912.465.325.934.365 1.409.119zm53.799-47.416c-.159.199-.32.311-.482.334-.163.013-.332-.051-.507-.19a.797.797 0 0 1-.241-.331 2.143 2.143 0 0 1-.124-.497l-.498-3.478c-.07-.526-.177-.949-.32-1.268a2.133 2.133 0 0 0-.598-.784c-.312-.249-.628-.339-.95-.269-.316.063-.624.282-.923.656a2.883 2.883 0 0 0-.415.711 2.831 2.831 0 0 0-.216.884c-.015.172-.069.303-.161.392a.582.582 0 0 1-.323.156.687.687 0 0 1-.365-.062.7.7 0 0 1-.291-.248.703.703 0 0 1-.092-.442 3.95 3.95 0 0 1 .306-1.226c.176-.411.398-.785.667-1.121.379-.474.769-.816 1.171-1.025.403-.21.808-.289 1.217-.238.409.051.81.233 1.202.547.262.21.483.457.662.744.185.28.335.61.451.989.121.372.215.81.283 1.313l.427 3.223-.318-.254 2.197-2.749c.135-.168.277-.263.428-.286.151-.022.307.031.469.161.162.129.252.273.27.43.017.157-.041.319-.176.487l-2.75 3.441zm5.823-7.092c-.409.511-.832.893-1.269 1.146-.439.242-.878.351-1.318.326-.435-.031-.848-.204-1.241-.518a2.22 2.22 0 0 1-.673-.844 2.062 2.062 0 0 1-.163-1.004c.03-.344.14-.674.332-.991l.196.157a2.145 2.145 0 0 1-1.34.507c-.488-.002-.938-.168-1.349-.496-.374-.299-.617-.647-.73-1.043-.118-.401-.109-.828.028-1.28.131-.458.38-.917.749-1.378.374-.468.769-.815 1.187-1.044.411-.233.825-.336 1.243-.308.411.022.803.182 1.177.481.274.22.482.477.623.774.146.29.214.595.204.914-.005.313-.087.62-.246.921l-.187-.149c.411-.386.876-.592 1.396-.615.518-.035 1.008.131 1.469.5.393.314.649.683.77 1.106.126.418.117.87-.027 1.357-.146.476-.423.97-.831 1.481zm-.935-.747c.353-.443.536-.844.547-1.202.005-.364-.161-.681-.498-.95-.336-.269-.678-.358-1.026-.269-.347.09-.698.356-1.052.799-.349.436-.531.837-.547 1.202-.011.359.152.673.488.942.337.269.682.361 1.036.276.352-.096.703-.362 1.052-.798zm-2.964-2.369c.2-.25.332-.492.396-.726a1.163 1.163 0 0 0-.024-.678 1.235 1.235 0 0 0-.412-.559c-.299-.239-.617-.32-.955-.243-.339.066-.655.283-.949.651-.294.368-.436.724-.426 1.069.004.341.155.63.455.869.305.244.627.333.966.267.339-.066.655-.283.949-.65zm13.554-49.659c-.254-.03-.433-.108-.538-.234-.097-.132-.132-.309-.105-.531a.8.8 0 0 1 .154-.379c.087-.118.206-.24.358-.366l2.696-2.254c.41-.336.713-.649.909-.939.197-.298.314-.605.353-.922.047-.396-.043-.712-.271-.949-.221-.236-.569-.382-1.044-.44a2.92 2.92 0 0 0-.823.021 2.826 2.826 0 0 0-.865.282c-.155.077-.294.101-.419.07a.59.59 0 0 1-.302-.194.668.668 0 0 1-.139-.342.698.698 0 0 1 .057-.379.701.701 0 0 1 .327-.31c.369-.188.77-.317 1.204-.385a4.804 4.804 0 0 1 1.305-.023c.602.073 1.098.225 1.488.457.39.232.67.535.842.91.172.374.228.811.167 1.31-.04.333-.135.651-.284.954a3.808 3.808 0 0 1-.603.904 7.534 7.534 0 0 1-.969.931l-2.515 2.059.048-.404 3.494.423c.214.025.37.096.468.213.099.116.135.277.111.483-.025.206-.1.358-.224.456-.125.097-.294.133-.508.107l-4.372-.529zm9.094 1.22c-.649-.078-1.197-.237-1.642-.475-.436-.246-.76-.562-.97-.95-.203-.386-.274-.828-.213-1.327.047-.396.169-.735.364-1.017.203-.289.459-.511.767-.667a2.277 2.277 0 0 1 1.018-.238l-.03.249a2.144 2.144 0 0 1-1.137-.873c-.255-.416-.351-.886-.287-1.409.057-.475.225-.865.503-1.169.278-.312.646-.528 1.103-.65.458-.129.98-.159 1.566-.088.594.072 1.098.225 1.511.46.415.227.72.525.917.895.197.361.267.779.21 1.255-.042.348-.152.66-.33.936a1.893 1.893 0 0 1-.67.655c-.269.16-.573.252-.914.275l.029-.238c.545.147.964.434 1.258.864.303.422.418.926.348 1.512-.061.499-.239.912-.536 1.238-.288.326-.678.557-1.168.69-.482.127-1.047.151-1.697.072zm.144-1.188c.562.068.999.013 1.31-.167.312-.187.494-.495.546-.922.051-.428-.053-.766-.312-1.015-.259-.248-.67-.406-1.232-.474-.555-.067-.992-.011-1.311.167-.311.179-.492.483-.544.911-.051.427.052.769.31 1.026.268.249.678.407 1.233.474zm.455-3.766c.317.038.592.023.825-.045.235-.076.423-.202.565-.378.141-.176.228-.39.258-.644.046-.38-.053-.693-.296-.94-.235-.253-.586-.408-1.053-.465-.467-.056-.845.011-1.133.201-.288.182-.454.463-.5.844-.047.388.047.708.281.962.235.253.586.408 1.053.465zm8.853-52.33c-.256-.008-.442-.069-.558-.184-.108-.122-.159-.295-.153-.519a.798.798 0 0 1 .118-.391c.076-.126.183-.259.323-.399l2.476-2.493c.377-.373.65-.712.818-1.019.169-.314.257-.631.266-.95.011-.399-.108-.706-.358-.92-.241-.214-.601-.328-1.08-.341a2.821 2.821 0 0 0-.816.097 2.843 2.843 0 0 0-.837.359c-.146.092-.282.128-.41.109a.578.578 0 0 1-.318-.165.678.678 0 0 1-.171-.328.692.692 0 0 1 .023-.382.695.695 0 0 1 .297-.339 3.968 3.968 0 0 1 1.163-.495 4.833 4.833 0 0 1 1.297-.143c.606.017 1.114.123 1.523.318.41.195.718.47.923.827.206.357.302.787.288 1.289-.01.335-.075.661-.195.977a3.856 3.856 0 0 1-.517.955c-.225.321-.518.66-.879 1.017l-2.314 2.283.011-.407 3.517.098c.216.006.378.062.487.169.108.107.16.264.154.471-.006.208-.066.366-.181.474-.114.109-.279.16-.495.154l-4.402-.122zm9.168.374c-.654-.018-1.214-.125-1.68-.322-.457-.204-.808-.489-1.053-.855-.238-.366-.349-.8-.335-1.303.011-.398.1-.747.268-1.046.176-.306.411-.551.703-.735.293-.183.623-.294.991-.331l-.007.251a2.151 2.151 0 0 1-1.212-.764c-.292-.391-.431-.85-.417-1.377.014-.478.145-.882.393-1.21.249-.336.595-.586 1.039-.749.444-.171.961-.249 1.551-.232.598.016 1.114.122 1.547.318.434.188.766.456.996.806.23.341.338.752.325 1.23-.01.351-.091.672-.243.963a1.882 1.882 0 0 1-.606.714 2.022 2.022 0 0 1-.884.358l.007-.239c.556.095 1 .343 1.332.743.34.393.502.884.486 1.475-.014.502-.154.929-.419 1.281-.257.352-.624.617-1.1.796-.467.17-1.028.246-1.682.228zm.033-1.196c.566.016.996-.08 1.289-.288.293-.215.446-.538.458-.969.012-.43-.123-.757-.404-.981-.281-.223-.705-.343-1.271-.358-.558-.016-.988.08-1.289.287-.293.207-.446.527-.458.957-.012.431.123.762.404.993.289.224.713.343 1.271.359zm.105-3.793c.319.009.592-.031.818-.121.226-.097.402-.24.527-.428s.191-.41.198-.665c.01-.383-.117-.686-.382-.909-.257-.23-.621-.352-1.092-.365-.47-.013-.84.088-1.109.304-.27.208-.41.504-.42.887-.011.39.112.701.369.932.257.23.621.352 1.091.365zm2.566-39.421c-.255-.001-.443-.057-.562-.169-.111-.12-.167-.292-.166-.515 0-.136.036-.267.108-.395.072-.127.176-.263.312-.406l2.412-2.556c.368-.382.632-.728.792-1.039.161-.319.241-.638.242-.957.001-.399-.126-.702-.381-.91-.247-.208-.61-.313-1.088-.314a2.835 2.835 0 0 0-.815.118 2.817 2.817 0 0 0-.826.381c-.144.095-.28.135-.407.118a.58.58 0 0 1-.323-.156.682.682 0 0 1-.179-.323.693.693 0 0 1 .013-.383.699.699 0 0 1 .288-.347c.344-.23.727-.405 1.15-.524a4.836 4.836 0 0 1 1.293-.176c.606.001 1.117.094 1.531.279.415.184.729.452.944.804.215.351.321.778.32 1.281a2.943 2.943 0 0 1-.17.981 3.772 3.772 0 0 1-.493.968c-.216.327-.5.673-.852 1.04l-2.255 2.34.001-.407 3.518.008c.216.001.379.053.491.157.111.104.167.26.166.467 0 .208-.057.367-.169.479-.112.111-.275.166-.491.166l-4.404-.01zm9.486.141c-.694-.001-1.288-.166-1.782-.494-.486-.337-.856-.816-1.11-1.439-.254-.623-.38-1.377-.378-2.263.002-.718.083-1.352.244-1.902.169-.559.409-1.029.722-1.411a3.038 3.038 0 0 1 1.139-.871 3.786 3.786 0 0 1 1.532-.296c.351.001.706.058 1.065.17.367.105.709.265 1.028.481a.563.563 0 0 1 .251.312.703.703 0 0 1 .011.383.666.666 0 0 1-.169.323.54.54 0 0 1-.311.167c-.128.016-.267-.021-.419-.109a3.149 3.149 0 0 0-.765-.337 2.765 2.765 0 0 0-.718-.097c-.463-.001-.854.106-1.173.32-.32.215-.564.538-.733.968-.16.43-.241.969-.243 1.615l-.002.898-.144-.001c.065-.406.198-.753.398-1.04.208-.295.472-.517.791-.668.32-.159.675-.238 1.066-.237.487.001.917.118 1.292.35.374.232.669.552.883.959.215.408.321.875.32 1.401a2.96 2.96 0 0 1-.362 1.46 2.597 2.597 0 0 1-.984 1.003c-.416.238-.899.357-1.449.355zm-.081-1.22c.287 0 .539-.063.754-.19.224-.127.396-.306.516-.538.121-.239.181-.51.182-.813 0-.311-.059-.583-.178-.814a1.285 1.285 0 0 0-.513-.54 1.382 1.382 0 0 0-.754-.205 1.38 1.38 0 0 0-.754.201 1.4 1.4 0 0 0-.516.538c-.12.231-.181.502-.182.813 0 .303.059.575.178.814.127.232.298.412.513.54.216.128.467.193.754.194zm-10.089-67.336c-.255.007-.444-.044-.567-.152-.115-.117-.175-.287-.181-.51a.786.786 0 0 1 .097-.398c.068-.13.168-.268.299-.415l2.335-2.626c.357-.393.61-.747.761-1.063.151-.323.222-.644.214-.963-.011-.399-.147-.699-.408-.899-.253-.201-.619-.294-1.097-.281a2.829 2.829 0 0 0-.811.142 2.84 2.84 0 0 0-.815.405c-.141.1-.275.143-.403.131a.587.587 0 0 1-.327-.147.676.676 0 0 1-.189-.318.693.693 0 0 1 .002-.383.703.703 0 0 1 .277-.355 3.964 3.964 0 0 1 1.135-.558 4.83 4.83 0 0 1 1.287-.215c.606-.016 1.119.062 1.539.234.419.172.742.43.967.775.225.345.344.769.358 1.272a2.95 2.95 0 0 1-.141.985 3.84 3.84 0 0 1-.464.983c-.206.333-.48.687-.821 1.064l-2.185 2.406-.011-.407 3.517-.096c.215-.006.38.042.495.142.114.101.174.255.18.462.006.208-.046.369-.154.484-.109.114-.271.175-.486.18l-4.403.121zm10.526-.192c-.239.007-.428-.052-.567-.176-.14-.132-.213-.322-.219-.569l-.026-.933-2.955.081c-.247.007-.448-.04-.602-.139-.147-.1-.223-.262-.229-.485a1.068 1.068 0 0 1 .084-.421c.068-.154.186-.357.355-.609l3.148-4.839c.107-.17.227-.301.36-.393a.848.848 0 0 1 .463-.144.719.719 0 0 1 .52.177c.139.116.212.306.219.569l.134 4.893.586-.016c.231-.006.404.045.519.153.122.101.187.255.192.462.006.208-.05.369-.166.484-.109.106-.279.163-.51.169l-.587.016.026.933c.007.248-.056.441-.188.58-.132.132-.318.2-.557.207zm-.847-2.946l-.102-3.733.347-.009-2.71 4.216-.011-.406 2.476-.068zm-9.784-69.392c-.255-.012-.44-.076-.555-.193-.106-.124-.154-.298-.144-.521a.787.787 0 0 1 .125-.39c.077-.124.187-.255.329-.393l2.517-2.452c.383-.366.662-.701.835-1.005.174-.311.267-.627.282-.946.017-.398-.097-.707-.343-.925-.238-.219-.596-.338-1.074-.359a2.822 2.822 0 0 0-.818.083 2.84 2.84 0 0 0-.842.346c-.148.089-.285.123-.412.101a.582.582 0 0 1-.316-.169.68.68 0 0 1-.165-.331.693.693 0 0 1 .029-.382.699.699 0 0 1 .302-.334 3.98 3.98 0 0 1 1.172-.475 4.786 4.786 0 0 1 1.299-.122c.606.027 1.112.141 1.518.343.406.201.709.482.909.843.2.36.288.791.266 1.293-.015.335-.085.66-.211.973-.118.315-.295.63-.533.947-.23.317-.528.652-.895 1.003l-2.352 2.243.018-.406 3.515.156c.215.009.376.068.483.177.107.109.156.267.147.474-.009.207-.072.364-.189.471-.116.106-.282.155-.497.145l-4.4-.195zm7.169.318c-.255-.011-.44-.075-.554-.192-.107-.125-.155-.299-.145-.522a.804.804 0 0 1 .125-.39c.077-.124.187-.255.329-.392l2.517-2.452c.384-.366.662-.702.835-1.005.174-.312.268-.627.282-.946.018-.399-.097-.707-.342-.926-.238-.218-.596-.338-1.075-.359a2.896 2.896 0 0 0-.818.083 2.84 2.84 0 0 0-.842.346c-.148.09-.285.123-.412.102a.584.584 0 0 1-.316-.17.702.702 0 0 1-.136-.713.7.7 0 0 1 .303-.334 3.974 3.974 0 0 1 1.171-.475 4.83 4.83 0 0 1 1.299-.122c.606.027 1.112.141 1.518.343.407.202.71.483.909.843.2.36.288.792.266 1.294a2.947 2.947 0 0 1-.211.973c-.118.314-.295.63-.533.946a7.49 7.49 0 0 1-.895 1.003l-2.352 2.244.018-.407 3.515.156c.216.01.377.069.484.177.107.109.155.267.146.474-.009.207-.072.364-.188.471-.117.107-.283.155-.498.146l-4.4-.196zm-13.612-58.985c-.255.017-.445-.027-.572-.13-.119-.113-.186-.28-.201-.503a.798.798 0 0 1 .082-.401 2.11 2.11 0 0 1 .284-.426l2.233-2.713c.342-.406.582-.77.721-1.091.138-.329.197-.652.176-.971-.026-.398-.173-.692-.441-.882-.261-.191-.63-.271-1.108-.24-.27.018-.538.075-.804.173a2.81 2.81 0 0 0-.799.436c-.137.105-.27.153-.398.146a.582.582 0 0 1-.333-.135.702.702 0 0 1-.213-.693.698.698 0 0 1 .264-.365 3.955 3.955 0 0 1 1.112-.601 4.824 4.824 0 0 1 1.278-.263c.605-.04 1.121.019 1.547.175.426.156.758.402.996.738.238.336.373.755.406 1.257.022.334-.013.664-.104.99a3.795 3.795 0 0 1-.426 1c-.194.34-.454.705-.78 1.094l-2.092 2.487-.027-.406 3.511-.229c.215-.014.382.027.5.123s.184.248.198.455c.013.207-.032.37-.136.489-.104.118-.264.185-.479.199l-4.395.287zm9.163-.479c-.995.065-1.78-.259-2.354-.973-.575-.722-.908-1.78-.999-3.173-.061-.94.003-1.736.192-2.388.197-.66.511-1.169.944-1.525.44-.356.991-.556 1.652-.599 1.003-.066 1.787.251 2.352.949.574.698.906 1.748.998 3.149.061.932-.007 1.732-.203 2.4-.189.66-.499 1.176-.93 1.548-.432.365-.983.568-1.652.612zm-.082-1.254c.542-.035.924-.312 1.146-.83.23-.519.31-1.312.24-2.379s-.252-1.83-.546-2.291c-.286-.469-.7-.686-1.242-.65-.533.035-.915.303-1.146.806-.232.495-.313 1.276-.243 2.343s.252 1.842.548 2.327c.296.484.71.709 1.243.674zm-10.259-53.08c-.207.006-.372-.045-.495-.154a.669.669 0 0 1-.18-.474c-.006-.207.046-.364.154-.471.117-.107.279-.163.487-.169l1.34-.036-.16-5.874.741-.021-1.729 1.113a.689.689 0 0 1-.428.119.672.672 0 0 1-.34-.158.756.756 0 0 1-.188-.33.627.627 0 0 1 .013-.383.694.694 0 0 1 .302-.344l1.624-1.038c.157-.1.314-.184.472-.252.158-.076.304-.116.44-.12a.63.63 0 0 1 .423.132c.114.085.174.231.179.438l.182 6.676 1.22-.033c.208-.006.369.042.483.142.123.101.187.255.192.462.006.207-.05.369-.166.484-.109.114-.267.174-.474.18l-4.092.111zm8.9-.122c-.654.018-1.219-.059-1.695-.229-.467-.179-.834-.445-1.099-.797-.257-.352-.392-.779-.406-1.282-.011-.398.06-.751.211-1.059.159-.316.379-.573.661-.772a2.28 2.28 0 0 1 .971-.386l.007.251a2.138 2.138 0 0 1-1.252-.696c-.313-.374-.477-.825-.492-1.351-.013-.479.096-.889.326-1.23.23-.35.562-.618.996-.806.433-.195.945-.301 1.536-.317.598-.016 1.119.061 1.562.233.444.163.79.413 1.039.75.248.328.379.732.392 1.21.009.351-.054.676-.189.975a1.88 1.88 0 0 1-.567.746 2.02 2.02 0 0 1-.863.407l-.006-.24c.56.065 1.017.288 1.371.669.361.374.55.855.566 1.446.014.502-.102.936-.347 1.302-.238.366-.589.651-1.055.855-.457.196-1.013.303-1.667.321zm-.033-1.197c.567-.015.99-.134 1.272-.357.281-.232.415-.562.404-.993-.012-.431-.165-.75-.458-.958-.293-.207-.722-.303-1.288-.288-.559.016-.983.135-1.272.358-.281.223-.416.55-.404.981.012.431.164.754.457.969.301.208.731.304 1.289.288zm-.103-3.792c.319-.009.589-.064.81-.166.22-.11.388-.262.502-.456.114-.195.168-.42.161-.675-.01-.383-.154-.679-.431-.887-.269-.216-.639-.317-1.11-.305-.47.013-.834.135-1.091.365-.258.223-.381.526-.371.908.011.391.151.695.42.911.269.216.639.318 1.11.305zm-21.472-53.001c-.202.046-.374.028-.515-.054a.67.67 0 0 1-.27-.43c-.046-.202-.026-.366.06-.492.094-.128.241-.215.444-.261l1.307-.297-1.305-5.73.723-.165-1.479 1.43a.69.69 0 0 1-.396.2.663.663 0 0 1-.364-.089.752.752 0 0 1-.249-.287.627.627 0 0 1-.062-.378.695.695 0 0 1 .229-.396l1.39-1.335c.134-.129.272-.242.413-.34a1.1 1.1 0 0 1 .408-.204.627.627 0 0 1 .441.047c.128.061.215.193.261.395l1.483 6.512 1.191-.272c.202-.046.369-.03.501.046.14.074.233.213.279.415.046.202.023.371-.069.507-.084.133-.227.223-.43.269l-3.991.909zm7.206-1.542a.755.755 0 0 1-.473-.028.524.524 0 0 1-.287-.29c-.057-.143-.059-.314-.007-.514l2.015-7.431.117.513-3.781.861c-.21.048-.386.031-.528-.051-.133-.085-.222-.224-.267-.418-.046-.203-.027-.371.057-.504.092-.136.243-.227.453-.275l4.516-1.029a.8.8 0 0 1 .551.047c.157.078.259.219.305.421.039.171.05.328.033.471a3.635 3.635 0 0 1-.093.451l-1.871 7.091a.86.86 0 0 1-.254.451 1.024 1.024 0 0 1-.486.234zM48.99 414.847c0-.878.175-1.632.526-2.262a3.636 3.636 0 0 1 1.508-1.436c.655-.335 1.425-.503 2.31-.503.662 0 1.257.096 1.783.288.535.191.99.466 1.365.825.383.359.674.798.873 1.317.208.526.312 1.117.312 1.771 0 .439-.056.87-.168 1.293a3.812 3.812 0 0 1-.479 1.113.77.77 0 0 1-.383.335.727.727 0 0 1-.43.036.672.672 0 0 1-.348-.204.592.592 0 0 1-.167-.371c-.008-.143.044-.303.155-.478.16-.248.276-.515.348-.802.071-.288.107-.579.107-.874 0-.566-.115-1.045-.347-1.436a2.186 2.186 0 0 0-1.005-.886c-.439-.199-.978-.299-1.616-.299-.63 0-1.169.1-1.616.299-.446.2-.786.495-1.017.886-.231.391-.347.87-.347 1.436 0 .303.036.602.108.898.08.295.2.574.359.837.104.176.147.332.132.467a.56.56 0 0 1-.144.359.642.642 0 0 1-.335.192.716.716 0 0 1-.407-.024.764.764 0 0 1-.36-.287 3.664 3.664 0 0 1-.538-1.149 5.075 5.075 0 0 1-.18-1.341zm.12 5.023c0-.263.067-.467.203-.61.143-.136.347-.204.61-.204h6.81c.263 0 .463.068.599.204.143.143.215.347.215.61v4.273c0 .199-.052.351-.156.454-.103.112-.25.168-.442.168-.2 0-.355-.056-.467-.168-.104-.103-.156-.255-.156-.454v-3.615h-2.322v3.351c0 .208-.051.363-.155.467-.104.104-.255.156-.455.156s-.351-.052-.455-.156c-.103-.104-.155-.259-.155-.467v-3.351H50.33v3.615c0 .199-.052.351-.155.454-.104.112-.256.168-.455.168-.2 0-.351-.056-.455-.168-.104-.103-.156-.255-.156-.454v-4.273zm-.096 7.045c0-.231.063-.41.191-.538.128-.12.311-.18.55-.18h7.122c.247 0 .435.06.562.18a.644.644 0 0 1 .204.491c0 .183-.036.319-.108.407a1.66 1.66 0 0 1-.335.335l-5.948 4.583v-.311h5.66c.232 0 .412.06.54.18.127.127.19.307.19.538 0 .232-.063.407-.19.527-.128.12-.308.18-.54.18h-7.18c-.224 0-.4-.056-.527-.168a.574.574 0 0 1-.191-.455.81.81 0 0 1 .107-.443c.072-.103.188-.219.347-.347l5.949-4.572v.3h-5.661c-.24 0-.423-.06-.55-.18-.129-.12-.192-.295-.192-.527zm0 11.036c0-.248.067-.439.203-.575.144-.127.34-.191.587-.191h6.462v-2.334c0-.207.056-.371.168-.491a.676.676 0 0 1 .479-.167c.207 0 .363.056.466.167.112.12.168.284.168.491v6.2c0 .207-.056.367-.168.478-.103.12-.259.18-.466.18-.2 0-.36-.06-.48-.18-.11-.111-.167-.271-.167-.478v-2.334h-6.462c-.248 0-.443-.064-.587-.192-.136-.127-.203-.319-.203-.574zm.095 5.446c0-.263.068-.466.204-.61.143-.136.347-.203.61-.203h6.81c.263 0 .463.067.599.203.143.144.215.347.215.61v4.273c0 .2-.052.351-.156.455-.103.112-.25.167-.442.167-.2 0-.355-.055-.467-.167-.104-.104-.156-.255-.156-.455v-3.614h-2.322v3.351c0 .207-.051.363-.155.467-.104.103-.255.155-.455.155s-.351-.052-.455-.155c-.103-.104-.155-.26-.155-.467v-3.351H50.33v3.614c0 .2-.052.351-.155.455-.104.112-.256.167-.455.167-.2 0-.351-.055-.455-.167-.104-.104-.156-.255-.156-.455v-4.273zm-.095 7.094c0-.248.067-.439.203-.575.144-.127.34-.191.587-.191h6.965c.255 0 .447.068.575.203.135.136.203.327.203.575v2.884c0 .926-.223 1.64-.67 2.142-.44.503-1.057.754-1.855.754-.519 0-.966-.115-1.34-.347a2.161 2.161 0 0 1-.863-.981c-.199-.431-.299-.954-.299-1.568l.18.108v.395c0 .327-.08.61-.24.849-.16.248-.41.463-.754.647l-1.663.897a.891.891 0 0 1-.49.132.555.555 0 0 1-.396-.18c-.095-.111-.143-.275-.143-.49 0-.216.043-.391.131-.527a1.24 1.24 0 0 1 .431-.359l2.226-1.209c.272-.143.451-.315.539-.514.096-.192.143-.439.143-.742v-1.137h-2.68c-.248 0-.443-.064-.587-.192-.136-.127-.203-.319-.203-.574zm4.607.766v1.867c0 .55.112.965.335 1.244.232.288.575.431 1.03.431.447 0 .782-.143 1.005-.431.231-.279.347-.694.347-1.244v-1.867h-2.717zm-4.512 10.7c0-.248.068-.439.204-.575.143-.135.339-.203.586-.203h6.906c.255 0 .447.064.574.191.136.136.204.327.204.575 0 .247-.068.435-.204.562-.127.136-.319.204-.574.204h-6.391v3.47c0 .216-.056.379-.168.491-.111.12-.27.18-.478.18-.208 0-.371-.06-.491-.18-.112-.112-.168-.275-.168-.491v-4.224zm-.095 6.708c0-.247.067-.439.203-.574.144-.128.34-.192.587-.192h7.049c.255 0 .45.064.586.192.136.135.204.327.204.574 0 .247-.068.435-.204.563-.135.135-.33.203-.586.203h-7.05c-.247 0-.442-.064-.586-.191-.136-.128-.203-.32-.203-.575zm0 3.33c0-.231.063-.411.191-.539.128-.119.311-.179.55-.179h7.122c.247 0 .435.06.562.179a.646.646 0 0 1 .204.491c0 .184-.036.319-.108.407a1.61 1.61 0 0 1-.335.335l-5.948 4.584v-.311h5.66c.232 0 .412.06.54.179.127.128.19.308.19.539 0 .231-.063.407-.19.527-.128.119-.308.179-.54.179h-7.18c-.224 0-.4-.056-.527-.168a.572.572 0 0 1-.191-.454c0-.184.035-.331.107-.443.072-.104.188-.22.347-.347l5.949-4.572v.299h-5.661c-.24 0-.423-.06-.55-.179-.129-.12-.192-.296-.192-.527zm.095 9.049c0-.264.068-.467.204-.611.143-.135.347-.203.61-.203h6.81c.263 0 .463.068.599.203.143.144.215.347.215.611v4.272c0 .2-.052.351-.156.455-.103.112-.251.168-.442.168-.2 0-.355-.056-.467-.168-.104-.104-.156-.255-.156-.455v-3.614h-2.322v3.351c0 .207-.051.363-.155.467-.104.103-.255.155-.455.155s-.351-.052-.455-.155c-.103-.104-.155-.26-.155-.467v-3.351H50.33v3.614c0 .2-.052.351-.155.455-.104.112-.256.168-.455.168-.2 0-.351-.056-.455-.168-.104-.104-.156-.255-.156-.455v-4.272z" fill="#fff"/><g clip-path="url(#clip1_7488_194275)"><path d="M233.053 317.12h117.638L337.962 286h-89.121l-15.788 31.12zm150.234 0v68.776h-67.733v95.305a33.362 33.362 0 0 0-45.319-.165v-95.14h-68.753V317.12h181.805zm24.48 172.505h-50.925v81.321h50.925v-81.321zm-179.883 0h-49.398v81.321h49.398v-81.321z" fill="#C9C5C5"/><path d="M407.767 393.023h-50.925v94.023h50.925v-94.023zm-179.883 0h-49.398v94.023h49.398v-94.023zm2.628 0h30.593v89.521h-8.19v58.453l10.695 10.065h21.901v20.134h-54.999V393.023zm123.599 0h-31.068v88.581h8.66v59.393l-10.695 10.065h-21.901v20.134h55.004V393.023zM178.486 573.964H285.04v16.807h-18.847v19.35h-87.707v-36.157zm228.811 0H299.338v16.807h18.842v19.35h89.117v-36.157z" fill="#C9C5C5"/><path d="M320.736 390.312V484.1h8.688v54.975l-9.092 9.092h-23.221v42.942h-9.121v-42.65h-24.17l-8.603-8.604v-54.689h8.189v-94.445h-69.029V318.06h5.944v69.541h68.132v93.064l.249 2.349a33.362 33.362 0 1 0 47.927.672v-96.362h68.33V318.06h6.578v72.252h-70.801z" fill="#C9C5C5"/><path d="M292.385 540.931c19.219 0 34.799-15.58 34.799-34.799s-15.58-34.799-34.799-34.799-34.799 15.58-34.799 34.799 15.58 34.799 34.799 34.799z" fill="#C9C5C5" stroke="#fff" stroke-width="5" stroke-miterlimit="10"/><path d="M316.883 592.044h-49.666v18.076h49.666v-18.076z" fill="#C9C5C5"/><path d="M262.28 353.865c-.704 0-1.408-.056-2.112-.168a10.978 10.978 0 0 1-1.992-.456 8.192 8.192 0 0 1-1.68-.816 1.552 1.552 0 0 1-.72-1.488c.048-.272.152-.504.312-.696.176-.208.392-.336.648-.384.256-.048.536.024.84.216a8.2 8.2 0 0 0 2.232.912c.784.192 1.608.288 2.472.288 1.264 0 2.184-.208 2.76-.624.576-.432.864-.984.864-1.656 0-.56-.208-1-.624-1.32-.4-.32-1.096-.584-2.088-.792l-2.64-.552c-1.52-.32-2.656-.856-3.408-1.608-.736-.768-1.104-1.776-1.104-3.024 0-.784.16-1.496.48-2.136.32-.64.768-1.192 1.344-1.656a6.263 6.263 0 0 1 2.088-1.056c.816-.256 1.712-.384 2.688-.384.96 0 1.872.12 2.736.36.864.24 1.64.592 2.328 1.056.256.176.424.392.504.648.096.256.12.512.072.768-.048.24-.16.448-.336.624-.176.176-.4.28-.672.312-.256.032-.552-.048-.888-.24a6.832 6.832 0 0 0-1.8-.72 8.527 8.527 0 0 0-1.968-.216c-.736 0-1.368.104-1.896.312-.528.208-.936.504-1.224.888-.272.368-.408.808-.408 1.32 0 .576.192 1.04.576 1.392.384.336 1.04.6 1.968.792l2.616.552c1.584.336 2.76.864 3.528 1.584.784.72 1.176 1.68 1.176 2.88 0 .768-.16 1.464-.48 2.088a4.446 4.446 0 0 1-1.344 1.608c-.576.448-1.272.792-2.088 1.032-.816.24-1.736.36-2.76.36zm14.573-.048c-.496 0-.88-.136-1.152-.408-.256-.288-.384-.68-.384-1.176v-12.96h-4.68c-.416 0-.744-.112-.984-.336-.224-.24-.336-.56-.336-.96 0-.416.112-.728.336-.936.24-.224.568-.336.984-.336h12.432c.416 0 .736.112.96.336.24.208.36.52.36.936 0 .4-.12.72-.36.96-.224.224-.544.336-.96.336h-4.68v12.96c0 .496-.128.888-.384 1.176-.256.272-.64.408-1.152.408zm7.583 0c-.384 0-.696-.088-.936-.264a1.08 1.08 0 0 1-.408-.696c-.048-.304.008-.64.168-1.008l6.336-14.04c.208-.464.456-.792.744-.984a1.785 1.785 0 0 1 1.032-.312c.368 0 .696.104.984.312.304.192.56.52.768.984l6.36 14.04c.176.368.24.704.192 1.008a1.096 1.096 0 0 1-.408.72c-.224.16-.52.24-.888.24-.448 0-.8-.104-1.056-.312-.24-.224-.456-.56-.648-1.008l-1.56-3.624 1.296.84h-10.128l1.296-.84-1.536 3.624c-.208.464-.424.8-.648 1.008-.224.208-.544.312-.96.312zm6.888-13.776l-3.36 7.992-.624-.768h8.016l-.6.768-3.384-7.992h-.048zm18.588 13.824c-1.872 0-3.456-.352-4.752-1.056a7.062 7.062 0 0 1-2.928-3c-.672-1.296-1.008-2.832-1.008-4.608 0-1.344.192-2.552.576-3.624.4-1.072.968-1.984 1.704-2.736.752-.768 1.664-1.352 2.736-1.752 1.072-.416 2.288-.624 3.648-.624.896 0 1.792.112 2.688.336a8.054 8.054 0 0 1 2.568 1.08c.272.176.448.392.528.648.096.256.112.52.048.792-.064.256-.184.48-.36.672-.176.192-.4.312-.672.36-.256.048-.544-.016-.864-.192a7.308 7.308 0 0 0-1.848-.768 8.411 8.411 0 0 0-2.088-.24c-1.184 0-2.184.24-3 .72-.816.464-1.432 1.144-1.848 2.04-.4.896-.6 1.992-.6 3.288 0 1.968.472 3.464 1.416 4.488.944 1.024 2.344 1.536 4.2 1.536.64 0 1.288-.064 1.944-.192a13.099 13.099 0 0 0 1.92-.528l-.6 1.368v-5.112h-2.64c-.4 0-.712-.104-.936-.312-.208-.208-.312-.488-.312-.84 0-.368.104-.648.312-.84.224-.192.536-.288.936-.288h3.96c.4 0 .704.112.912.336.224.208.336.512.336.912v5.832c0 .352-.072.648-.216.888-.128.24-.344.416-.648.528-.704.256-1.512.472-2.424.648-.912.16-1.808.24-2.688.24zm11.168-.24c-.528 0-.936-.136-1.224-.408-.272-.288-.408-.696-.408-1.224v-13.656c0-.528.136-.928.408-1.2.288-.288.696-.432 1.224-.432h8.568c.4 0 .704.104.912.312.224.208.336.504.336.888 0 .4-.112.712-.336.936-.208.208-.512.312-.912.312H322.4v4.656h6.72c.416 0 .728.104.936.312.208.208.312.512.312.912s-.104.704-.312.912c-.208.208-.52.312-.936.312h-6.72v4.92h7.248c.4 0 .704.104.912.312.224.208.336.512.336.912s-.112.704-.336.912c-.208.208-.512.312-.912.312h-8.568zm-131.578 92.682c-.165-.001-.293-.047-.383-.138a.574.574 0 0 1-.125-.393l.033-4.32-1.56-.012a.465.465 0 0 1-.327-.115.449.449 0 0 1-.109-.321c.001-.138.039-.242.114-.311a.463.463 0 0 1 .329-.109l4.144.032c.139.001.245.039.319.114.079.07.119.174.118.313a.431.431 0 0 1-.123.319c-.075.074-.182.111-.321.11l-1.56-.012-.033 4.319a.566.566 0 0 1-.131.391c-.086.09-.214.135-.385.133zm2.528.02a.52.52 0 0 1-.312-.09.366.366 0 0 1-.134-.234.609.609 0 0 1 .059-.335l2.148-4.664a.747.747 0 0 1 .25-.326.6.6 0 0 1 .672.005.723.723 0 0 1 .254.33l2.084 4.697a.574.574 0 0 1 .061.336.367.367 0 0 1-.138.239.496.496 0 0 1-.296.078.544.544 0 0 1-.352-.107.994.994 0 0 1-.213-.338l-.511-1.212.43.284-3.376-.026.434-.277-.521 1.204c-.07.154-.143.266-.218.334a.455.455 0 0 1-.321.102zm2.331-4.574l-1.14 2.655-.206-.258 2.671.021-.201.254-1.108-2.672h-.016zm4.11 4.559c-.176-.001-.311-.047-.407-.139-.09-.096-.134-.233-.133-.409l.035-4.552c.002-.176.048-.309.139-.399.097-.095.234-.142.41-.14l1.92.014c.394.003.73.065 1.006.184.277.12.486.289.628.509.148.22.221.482.218.786a1.293 1.293 0 0 1-.302.861c-.2.233-.47.389-.812.466l.001-.12c.394.062.7.214.916.455.217.242.324.555.321.939-.004.501-.177.889-.521 1.164-.338.269-.808.402-1.411.397l-2.008-.016zm.446-.772l1.44.011c.363.003.63-.065.802-.202.171-.143.258-.355.261-.638.002-.288-.082-.502-.251-.642-.17-.14-.436-.211-.799-.214l-1.44-.011-.013 1.696zm.019-2.472l1.304.01c.352.003.614-.062.786-.194.177-.137.266-.339.268-.606.002-.267-.084-.467-.259-.602-.17-.14-.43-.211-.782-.214l-1.304-.01-.013 1.616zm5.019 3.287c-.165-.002-.293-.048-.383-.139a.55.55 0 0 1-.133-.393l.035-4.616c.002-.171.045-.299.131-.383a.518.518 0 0 1 .385-.133c.166.001.291.047.375.139.09.086.135.214.133.385l-.032 4.271 2.319.018c.144.001.254.04.328.115.079.075.118.182.117.321a.447.447 0 0 1-.122.327c-.076.074-.185.11-.329.109l-2.824-.021zm4.516.034c-.176-.001-.312-.047-.407-.139-.09-.097-.134-.233-.133-.409l.035-4.552c.001-.176.048-.309.139-.399.097-.095.233-.142.409-.141l2.856.022c.134.001.235.037.303.107.075.07.111.169.11.297a.422.422 0 0 1-.114.311c-.07.069-.172.102-.305.101l-2.416-.018-.012 1.552 2.24.017c.139.001.242.037.311.106.069.07.103.172.102.305-.001.134-.037.235-.106.303-.07.069-.175.103-.313.102l-2.24-.017-.013 1.64 2.416.018c.133.001.234.037.303.107.074.07.111.171.11.304-.001.134-.039.235-.114.304-.07.068-.172.102-.305.101l-2.856-.022zm6.094.127a4.51 4.51 0 0 1-.703-.061 3.671 3.671 0 0 1-.663-.157 2.792 2.792 0 0 1-.558-.277.516.516 0 0 1-.236-.497.491.491 0 0 1 .106-.232.36.36 0 0 1 .217-.126c.085-.015.178.009.279.074.234.141.481.244.742.31s.535.1.823.102c.421.003.729-.064.922-.201a.663.663 0 0 0 .292-.55.526.526 0 0 0-.205-.441c-.132-.108-.364-.198-.694-.269l-.878-.191c-.506-.111-.883-.292-1.132-.545-.243-.258-.364-.595-.36-1.011a1.57 1.57 0 0 1 .617-1.259 2.1 2.1 0 0 1 .699-.347c.273-.083.572-.123.897-.121.32.003.624.045.911.127.287.082.545.202.773.358.085.06.141.132.167.218.031.085.038.17.022.256a.402.402 0 0 1-.114.207.368.368 0 0 1-.225.102.485.485 0 0 1-.295-.082 2.288 2.288 0 0 0-.598-.245 2.885 2.885 0 0 0-.656-.077 1.716 1.716 0 0 0-.632.099.915.915 0 0 0-.411.293.72.72 0 0 0-.139.439.6.6 0 0 0 .188.466c.128.113.345.202.654.269l.871.19c.527.116.918.295 1.172.537.259.242.387.563.384.963a1.507 1.507 0 0 1-.617 1.228c-.193.147-.426.26-.699.338a3.237 3.237 0 0 1-.921.113zM196.87 533.31a.638.638 0 0 1-.359-.098.76.76 0 0 1-.222-.306l-2.052-4.704a.541.541 0 0 1-.045-.352.403.403 0 0 1 .17-.239.523.523 0 0 1 .305-.086c.154.001.269.037.343.107a.704.704 0 0 1 .197.297l1.863 4.407-.344-.003 1.921-4.385a.777.777 0 0 1 .211-.287.498.498 0 0 1 .336-.101.456.456 0 0 1 .288.09c.079.06.129.14.15.241a.585.585 0 0 1-.059.352l-2.124 4.672a.76.76 0 0 1-.226.302.58.58 0 0 1-.353.093zm5.703.044a.63.63 0 0 1-.359-.099.762.762 0 0 1-.222-.305l-2.052-4.704a.543.543 0 0 1-.045-.353.404.404 0 0 1 .17-.238.522.522 0 0 1 .304-.086c.155.001.27.037.344.107a.698.698 0 0 1 .197.297l1.863 4.407-.344-.003 1.921-4.385a.777.777 0 0 1 .211-.287.498.498 0 0 1 .336-.101.456.456 0 0 1 .288.09.39.39 0 0 1 .15.241.585.585 0 0 1-.059.352l-2.124 4.672a.767.767 0 0 1-.226.302.58.58 0 0 1-.353.093zm3.975.031c-.165-.002-.293-.048-.383-.139a.574.574 0 0 1-.125-.393l.036-4.712c.002-.171.045-.301.131-.391.092-.09.22-.134.385-.133.166.001.291.047.375.139.09.091.135.222.133.393l-.036 4.712a.57.57 0 0 1-.131.391c-.086.09-.214.134-.385.133zm2.258.017c-.166-.001-.293-.048-.383-.139a.57.57 0 0 1-.125-.393l.036-4.656c.001-.17.047-.298.139-.383.091-.09.219-.134.385-.133l1.928.015c.618.005 1.094.163 1.428.475.334.312.498.745.494 1.3-.004.555-.176.988-.514 1.3-.338.307-.817.458-1.436.453l-1.423-.011-.013 1.648a.568.568 0 0 1-.131.391c-.086.09-.215.134-.385.133zm.535-2.98l1.264.01c.362.003.638-.075.826-.234.187-.164.283-.403.285-.718.002-.314-.089-.552-.274-.714-.186-.161-.46-.243-.823-.246l-1.264-.01-.014 1.912zm160.454-84.115c-.165-.001-.293-.047-.383-.138a.574.574 0 0 1-.125-.393l.033-4.32-1.56-.012a.465.465 0 0 1-.327-.115.449.449 0 0 1-.109-.321c.001-.138.039-.242.114-.311a.463.463 0 0 1 .329-.109l4.144.032c.139.001.245.039.319.114.079.07.119.174.118.313a.431.431 0 0 1-.123.319c-.075.074-.182.111-.321.11l-1.56-.012-.033 4.319a.566.566 0 0 1-.131.391c-.086.09-.214.135-.385.133zm2.528.02a.52.52 0 0 1-.312-.09.361.361 0 0 1-.134-.234.609.609 0 0 1 .059-.335l2.148-4.664a.747.747 0 0 1 .25-.326.6.6 0 0 1 .672.005.723.723 0 0 1 .254.33l2.084 4.697a.574.574 0 0 1 .061.336.367.367 0 0 1-.138.239.496.496 0 0 1-.296.078.544.544 0 0 1-.352-.107.994.994 0 0 1-.213-.338l-.511-1.212.43.284-3.376-.026.434-.277-.521 1.204c-.07.154-.143.266-.218.334a.455.455 0 0 1-.321.102zm2.331-4.574l-1.14 2.655-.206-.258 2.671.021-.202.254-1.107-2.672h-.016zm4.11 4.559c-.176-.001-.311-.047-.407-.139-.09-.096-.134-.233-.133-.409l.035-4.552c.002-.176.048-.309.139-.399.097-.095.234-.142.41-.14l1.919.014c.395.003.731.065 1.007.184.277.12.486.289.628.509.148.22.221.482.218.786a1.293 1.293 0 0 1-.302.861c-.2.233-.47.389-.812.466l.001-.12c.394.062.7.214.916.455.217.242.324.555.321.939-.004.501-.177.889-.521 1.164-.338.269-.808.402-1.411.397l-2.008-.016zm.446-.772l1.44.011c.363.003.63-.065.802-.202.171-.143.258-.355.261-.638.002-.288-.082-.502-.251-.642-.17-.14-.436-.211-.799-.214l-1.44-.011-.013 1.696zm.019-2.472l1.304.01c.352.003.614-.062.786-.194.177-.137.266-.339.268-.606.002-.267-.084-.467-.259-.602-.17-.14-.43-.211-.782-.214l-1.304-.01-.013 1.616zm5.019 3.287c-.165-.002-.293-.048-.383-.139a.55.55 0 0 1-.133-.393l.035-4.616c.002-.171.045-.299.131-.383a.518.518 0 0 1 .385-.133c.166.001.291.047.375.139.09.086.135.214.133.385l-.032 4.271 2.319.018c.144.001.253.04.328.115.079.075.118.182.117.321a.447.447 0 0 1-.122.327c-.076.074-.185.11-.329.109l-2.824-.021zm4.516.034c-.176-.001-.312-.047-.407-.139-.09-.097-.134-.233-.133-.409l.035-4.552c.001-.176.048-.309.139-.399.097-.095.233-.142.409-.141l2.856.022c.133.001.235.037.303.107.074.07.111.169.11.297a.422.422 0 0 1-.114.311c-.07.069-.172.102-.305.101l-2.416-.018-.012 1.552 2.24.017c.139.001.242.037.311.106.069.07.103.172.102.305-.001.134-.037.235-.107.303-.069.069-.174.103-.312.102l-2.24-.017-.013 1.64 2.416.018c.133.001.234.037.303.107.074.07.111.171.11.304-.001.134-.039.235-.114.304-.07.068-.172.102-.305.101l-2.856-.022zm6.094.127a4.51 4.51 0 0 1-.703-.061 3.671 3.671 0 0 1-.663-.157 2.792 2.792 0 0 1-.558-.277.516.516 0 0 1-.236-.497.491.491 0 0 1 .106-.232.36.36 0 0 1 .217-.126c.085-.015.178.009.279.074.234.141.481.244.742.31s.535.1.823.102c.421.003.729-.064.922-.201a.663.663 0 0 0 .292-.55.526.526 0 0 0-.205-.441c-.132-.108-.364-.198-.694-.269l-.878-.191c-.506-.111-.883-.292-1.132-.545-.243-.258-.364-.595-.36-1.011a1.57 1.57 0 0 1 .617-1.259 2.1 2.1 0 0 1 .699-.347c.273-.083.572-.123.897-.121.32.003.624.045.911.127.287.082.545.202.773.358.085.06.141.132.167.218.031.085.038.17.022.256a.402.402 0 0 1-.114.207.368.368 0 0 1-.225.102.485.485 0 0 1-.295-.082 2.288 2.288 0 0 0-.598-.245 2.892 2.892 0 0 0-.656-.077 1.716 1.716 0 0 0-.632.099.915.915 0 0 0-.411.293.72.72 0 0 0-.139.439.6.6 0 0 0 .188.466c.127.113.345.202.654.269l.871.19c.527.116.918.295 1.172.537.259.242.387.563.384.963a1.507 1.507 0 0 1-.617 1.228c-.193.147-.426.26-.699.338a3.237 3.237 0 0 1-.921.113zm-17.695 86.794a.638.638 0 0 1-.359-.098.76.76 0 0 1-.222-.306l-2.052-4.704a.541.541 0 0 1-.045-.352.403.403 0 0 1 .17-.239.522.522 0 0 1 .304-.086c.155.001.27.037.344.107a.704.704 0 0 1 .197.297l1.863 4.407-.344-.003 1.921-4.385a.777.777 0 0 1 .211-.287.498.498 0 0 1 .336-.101.456.456 0 0 1 .288.09c.079.06.129.14.15.241a.585.585 0 0 1-.059.352l-2.124 4.672a.76.76 0 0 1-.226.302.58.58 0 0 1-.353.093zm5.703.044a.63.63 0 0 1-.359-.099.762.762 0 0 1-.222-.305l-2.052-4.704a.537.537 0 0 1-.045-.353.404.404 0 0 1 .17-.238.522.522 0 0 1 .304-.086c.155.001.269.037.344.107a.698.698 0 0 1 .197.297l1.863 4.407-.344-.003 1.921-4.385a.777.777 0 0 1 .211-.287.498.498 0 0 1 .336-.101.456.456 0 0 1 .288.09.39.39 0 0 1 .15.241.585.585 0 0 1-.059.352l-2.124 4.672a.767.767 0 0 1-.226.302.58.58 0 0 1-.353.093zm3.975.031c-.165-.002-.293-.048-.383-.139a.57.57 0 0 1-.125-.393l.036-4.712c.002-.171.045-.301.131-.391.092-.09.22-.134.385-.133.166.001.291.047.375.139.09.091.135.222.133.393l-.036 4.712a.57.57 0 0 1-.131.391c-.086.09-.214.134-.385.133zm2.258.017c-.166-.001-.293-.048-.383-.139a.57.57 0 0 1-.125-.393l.036-4.656c.001-.17.047-.298.139-.383.091-.09.219-.134.385-.133l1.928.015c.618.005 1.094.163 1.428.475.334.312.498.745.494 1.3-.004.555-.176.988-.514 1.3-.338.307-.817.458-1.436.453l-1.424-.011-.012 1.648a.568.568 0 0 1-.131.391c-.086.09-.215.134-.385.133zm.535-2.98l1.264.01c.362.003.638-.075.825-.234.188-.164.284-.403.286-.718.002-.314-.089-.552-.275-.714-.185-.161-.459-.243-.822-.246l-1.264-.01-.014 1.912zm-166.461 63.68a.638.638 0 0 1-.359-.098.75.75 0 0 1-.222-.306l-2.052-4.704a.529.529 0 0 1-.045-.352.406.406 0 0 1 .17-.239.52.52 0 0 1 .304-.086c.155.001.269.037.343.107.08.065.146.164.198.297l1.862 4.407-.344-.003 1.922-4.385a.773.773 0 0 1 .21-.286.497.497 0 0 1 .337-.102.453.453 0 0 1 .287.09c.08.06.13.14.151.241.02.102 0 .219-.059.352l-2.124 4.672a.752.752 0 0 1-.227.302.568.568 0 0 1-.352.093zm3.975.031c-.166-.001-.293-.048-.383-.139a.57.57 0 0 1-.125-.393l.036-4.712c.001-.17.045-.301.131-.391.091-.09.22-.134.385-.133.165.001.29.048.375.139.09.091.134.222.133.393l-.036 4.712a.568.568 0 0 1-.131.391c-.086.09-.215.134-.385.133zm2.258.017c-.166-.001-.293-.047-.383-.139a.561.561 0 0 1-.125-.393l.035-4.655c.002-.171.048-.299.139-.383a.518.518 0 0 1 .385-.133l1.928.014c.619.005 1.095.163 1.429.475.333.312.498.746.494 1.3-.005.555-.176.988-.514 1.3-.339.307-.817.458-1.436.453l-1.424-.011-.012 1.648a.57.57 0 0 1-.131.391c-.086.09-.215.135-.385.133zm.534-2.98l1.264.01c.363.003.638-.075.826-.234.188-.163.283-.403.286-.717.002-.315-.089-.553-.275-.715-.185-.161-.459-.243-.822-.246l-1.264-.01-.015 1.912zm130.233 2.932a.638.638 0 0 1-.359-.098.75.75 0 0 1-.222-.306l-2.052-4.704a.529.529 0 0 1-.045-.352.406.406 0 0 1 .17-.239.52.52 0 0 1 .304-.086c.155.001.269.037.343.107.08.065.146.164.198.297l1.862 4.407-.344-.003 1.922-4.385a.773.773 0 0 1 .21-.286.497.497 0 0 1 .337-.102.453.453 0 0 1 .287.09c.08.06.13.14.151.241.02.102 0 .219-.059.352l-2.124 4.672a.752.752 0 0 1-.227.302.568.568 0 0 1-.352.093zm3.975.031c-.166-.001-.293-.048-.383-.139a.57.57 0 0 1-.125-.393l.036-4.712c.001-.17.045-.301.131-.391.091-.09.22-.134.385-.133.165.001.29.048.375.139.09.091.134.222.133.393l-.036 4.712a.568.568 0 0 1-.131.391c-.086.09-.215.134-.385.133zm2.258.017c-.166-.001-.293-.047-.383-.139a.561.561 0 0 1-.125-.393l.035-4.655c.002-.171.048-.299.139-.383a.518.518 0 0 1 .385-.133l1.928.014c.619.005 1.095.163 1.429.475.333.312.498.746.494 1.3-.005.555-.176.988-.514 1.3-.339.307-.817.458-1.436.453l-1.424-.011-.012 1.648a.57.57 0 0 1-.131.391c-.086.09-.215.135-.385.133zm.534-2.98l1.264.01c.363.003.638-.075.826-.234.188-.163.283-.403.286-.717.002-.315-.089-.553-.275-.715-.185-.161-.459-.243-.822-.246l-1.264-.01-.015 1.912zM242.961 474.157c-.878-.007-1.63-.188-2.258-.544a3.646 3.646 0 0 1-1.425-1.519c-.33-.657-.491-1.428-.484-2.314.005-.662.105-1.256.3-1.781.196-.533.475-.986.837-1.358.362-.38.803-.668 1.323-.864.528-.203 1.119-.302 1.774-.297.438.003.869.062 1.291.177.422.115.792.278 1.109.488a.76.76 0 0 1 .332.385.727.727 0 0 1 .033.431.675.675 0 0 1-.206.346.598.598 0 0 1-.373.165c-.143.006-.302-.047-.477-.16a2.674 2.674 0 0 0-.799-.353 3.58 3.58 0 0 0-.873-.114c-.567-.005-1.046.107-1.439.336a2.18 2.18 0 0 0-.893.998c-.203.437-.307.975-.312 1.613-.005.631.091 1.17.287 1.618.196.449.489.79.878 1.025.389.234.867.353 1.433.358.303.002.603-.032.899-.101.295-.078.576-.195.84-.353.176-.102.332-.145.468-.128a.558.558 0 0 1 .358.147.64.64 0 0 1 .189.336.717.717 0 0 1-.027.407.766.766 0 0 1-.29.357 3.646 3.646 0 0 1-1.153.529c-.44.117-.887.173-1.342.17zm4.999.014c-.247-.002-.442-.071-.585-.208-.135-.145-.201-.349-.199-.612l.053-6.905c.002-.264.072-.463.208-.597.145-.143.349-.213.612-.211l4.177.032c.208.002.363.055.466.159.103.105.153.253.152.444-.002.2-.055.355-.159.466-.105.103-.261.154-.468.152l-3.459-.027-.018 2.382 3.207.025c.2.001.351.054.454.159.111.104.165.252.164.444-.002.199-.059.354-.171.465-.105.103-.257.154-.456.152l-3.208-.024-.022 2.896c-.004.543-.253.812-.748.808zm89.001-.014c-.878-.007-1.63-.188-2.258-.544a3.646 3.646 0 0 1-1.425-1.519c-.33-.657-.491-1.428-.484-2.314.005-.662.105-1.256.3-1.781.196-.533.475-.986.837-1.358.362-.38.803-.668 1.323-.864.528-.203 1.119-.302 1.774-.297.438.003.869.062 1.291.177.422.115.792.278 1.109.488a.76.76 0 0 1 .332.385.727.727 0 0 1 .033.431.675.675 0 0 1-.206.346.598.598 0 0 1-.373.165c-.143.006-.302-.047-.477-.16a2.674 2.674 0 0 0-.799-.353 3.58 3.58 0 0 0-.873-.114c-.567-.005-1.046.107-1.439.336a2.18 2.18 0 0 0-.893.998c-.203.437-.307.975-.312 1.613-.005.631.091 1.17.287 1.618.196.449.489.79.878 1.025.389.234.867.353 1.433.358.303.002.603-.032.899-.101.295-.078.576-.195.84-.353.176-.102.332-.145.468-.128a.558.558 0 0 1 .358.147.64.64 0 0 1 .189.336.717.717 0 0 1-.027.407.766.766 0 0 1-.29.357 3.646 3.646 0 0 1-1.153.529c-.44.117-.887.173-1.342.17zm4.999.014c-.247-.002-.442-.071-.585-.208-.135-.145-.201-.349-.199-.612l.053-6.905c.002-.264.072-.463.208-.597.145-.143.349-.213.612-.211l4.177.032c.208.002.363.055.466.159.103.105.153.253.152.444-.002.2-.055.355-.159.466-.105.103-.261.154-.468.152l-3.459-.027-.018 2.382 3.207.025c.2.001.351.054.454.159.111.104.165.252.164.444-.002.199-.059.354-.171.465-.105.103-.257.154-.456.152l-3.208-.024-.022 2.896c-.004.543-.253.812-.748.808z" fill="#fff"/></g></g><defs><clipPath id="clip0_7488_194275"><path fill="#fff" transform="translate(.076)" d="M0 0h600.04v898.6H0z"/></clipPath><clipPath id="clip1_7488_194275"><path fill="#fff" transform="translate(177.076 286)" d="M0 0h230.69v326H0z"/></clipPath></defs></svg>