<svg width="601" height="899" viewBox="0 0 601 899" fill="none" xmlns="http://www.w3.org/2000/svg"><g clip-path="url(#clip0_7488_193495)"><path d="M595.84 604.35v-310.1C595.84 134.5 466.38 5 306.63 5h-5.79C141.07 5 11.57 134.5 11.57 294.25v310.1c0 159.75 129.5 289.25 289.27 289.25h5.81c159.73 0 289.19-129.5 289.19-289.25zm-414.23 98.23a156.564 156.564 0 0 1-46-111.05V307.07a157.052 157.052 0 0 1 268.101-111.051A157.048 157.048 0 0 1 449.71 307.07v284.46a156.995 156.995 0 0 1-96.919 145.168A156.998 156.998 0 0 1 181.61 702.58z" fill="#E0E0E0"/><path d="M292.66 748.58a157.053 157.053 0 0 1-157-157.05V307.07a157.05 157.05 0 1 1 314.1 0v284.46a157.056 157.056 0 0 1-46.016 111.068A157.047 157.047 0 0 1 292.66 748.58z" fill="#E0E0E0"/><path d="M464.76 274.39a173.204 173.204 0 0 0-17.92-51.49l39.53-17.68 3.39 6.22 11.08-5.34a222.312 222.312 0 0 1 19.58 59.6l-55.66 8.69zm58.86 39.82h-56.1v-8.75c0-4.847-.197-9.647-.59-14.4h26.76V279.2l28.29-3.73c1.32 9.862 1.988 19.8 2 29.75v7.54c-.23.94-.36 1.45-.36 1.45zm.32 61.56h-56.42V346.4h28.6v-8.47h-28.6v-19.19h56.42v57.03zm0 74.73h-56.42v-30.86h28.6v-9.99h-28.6v-26.54h56.42v67.39zm0 74.91h-56.42v-30.49h28.6v-10.17h-28.6v-29.36h56.42v70.02zm0 57.72h-56.42v-16.47l28.6.54v-9.91l-28.6-.19v-26.04h56.42v52.07zm-1.96 47.38l-17-2.32v-16.38h-38.4v-.3c.627-6.057.941-12.141.94-18.23v-5.19h56.42v12.7a225.663 225.663 0 0 1-1.96 29.72zm-32.24 63.75l-41.9-20.4a173.529 173.529 0 0 0 15.51-42.6l43.86 3.14c-3.37 32.19-17.47 59.86-17.47 59.86zm14.1-.53l-9.27-3.42s10.13-16.25 16.16-57l10.69 1.45a222.327 222.327 0 0 1-17.58 58.97zm-52.22 55.87l-34.16-33.89a175.13 175.13 0 0 0 28.14-37.62l42.44 20.69c-13.71 25.71-36.42 50.82-36.42 50.82zm3.06 13.16l-5.84-6.38c21.83-20.18 39.25-50 39.25-50l8 2.68a224.996 224.996 0 0 1-41.41 53.7zm-72.841 35.12l-20.15-44a174.28 174.28 0 0 0 41.4-25.1l33.81 33.54c-28.2 25.96-55.06 35.56-55.06 35.56z" fill="#C9C5C5"/><path d="M390.56 805.7l-3.32-6.41c37.84-18.07 58.45-40.09 58.45-40.09l5.95 6.41a223.913 223.913 0 0 1-61.08 40.09z" fill="#C9C5C5"/><path d="M317.779 814.82l-7.17-47.72a173.495 173.495 0 0 0 46.31-11.24l1.52-.33 19.77 43.47a217.403 217.403 0 0 1-60.43 15.82z" fill="#0062CC"/><path d="M312.609 824.46v-6.72c31.71-1.32 61.93-14.12 61.93-14.12l3.85 7a222.611 222.611 0 0 1-65.78 13.84z" fill="#0062CC"/><path d="M292.47 824.69a223.081 223.081 0 0 1-66.63-12.41l15.23-52a174.395 174.395 0 0 0 48.77 7.72l2.63 56.69zm-72.97-14.75a223.53 223.53 0 0 1-54.08-30l28.64-42.51a174.21 174.21 0 0 0 42.11 21.18l-16.67 51.33zm-68.521-41.82a222.127 222.127 0 0 1-9.47-8.93 224.96 224.96 0 0 1-33.36-42.54l40.32-24.89a174.773 174.773 0 0 0 30.91 34.42l-28.4 41.94zM105.7 712.51a222.428 222.428 0 0 1-26-70.16l43.69-6a174.07 174.07 0 0 0 22.74 52l-40.43 24.16zm431.919-487.84l-18.78 6.33a227.7 227.7 0 0 0-8.9-21.37l61-26.72a287.6 287.6 0 0 1 14.2 36.42l-44.94 12.13-2.58-6.79zm60.51 69.63l-66.65-4.9a229.29 229.29 0 0 0-7-40.35l20.17-4.65-2.49-7.25 45.38-9.64a291.233 291.233 0 0 1 10.59 66.79zm.261 44.86L553.94 337l-.34-4.47-21.28-1.53v-21.84c0-4.78-.144-9.527-.43-14.24l66.41 4.94c.06 2.28.09 4.567.09 6.86v32.44zm0 75.98l-43.99-2.44.2-5.49-22.28-1.56v-56.93l22.03 1.55v-7.74l44.04 1.89v70.72zm0 75.43l-44.87-3.62.08-4.33-21.28-1.77v-56.72l21.78 1.56v-7.49l44.29 2.12v70.25zm0 74.44l-44.99-3.88-.18-4.04-20.9-2.01v-56.87l21.31 1.73v-8.28l44.76 3.8v69.55zm-.28 49.74l-66.2-3.82c.27-4.55.41-9.15.41-13.77v-27.32l21.62 1.94v-6.54l44.45 3.66v33c0 4.3-.093 8.584-.28 12.85zm-12.07 71.36l-40.34-10.37 1.7-8.48-24.07-6a231.33 231.33 0 0 0 8.3-46.17l66.25 4a290.277 290.277 0 0 1-11.84 67.02zm-46.08 90.94l-36.91-24 4.19-6.3-19.7-12.63a231.465 231.465 0 0 0 30.55-56.8l24.75 9.57 1.93-7 39.83 11a290.917 290.917 0 0 1-44.64 86.16zm-75.44 70.19l-27.58-33.61 3.59-1.94L426.16 792a232.637 232.637 0 0 0 51-44.72l20.2 14.28 2.79-4.85 36.26 25a292.996 292.996 0 0 1-71.89 65.53zm-92.68 39.05l-15.13-36.55 7.51-2.91-8.62-24.47a230.175 230.175 0 0 0 58.83-23.28l13.76 21.58 6.3-3.88 26.13 32.94a289.728 289.728 0 0 1-88.78 36.57zm-65.18 7.31a293.131 293.131 0 0 1-37.94-2.45l-1.34-39.48 4.52.14-1.17-24.81a234.574 234.574 0 0 0 66.94-1l7.78 26.26 6.64-1.55 14.26 36.8a292.725 292.725 0 0 1-59.69 6.09zm-44.521-3.37a289.785 289.785 0 0 1-90.49-29.68l11.07-35.06 6.42 2 5.15-24.34a230.13 230.13 0 0 0 62.34 21.58l-1.24 25 7.72 1.28-.97 39.22zm-95.989-32.64a292.737 292.737 0 0 1-65.78-49.44c-3.84-3.84-7.57-7.787-11.19-11.84l25.07-29.77 5 5.69L131.84 756c1.593 1.7 3.213 3.367 4.86 5a233.111 233.111 0 0 0 44 34.54l-7.64 22.18 4.92 3.22-11.83 36.65zM86.27 793a291.541 291.541 0 0 1-51.63-85.52l31.88-17.26 4.32 7.72 16.6-9.54a231.738 231.738 0 0 0 35 57.11l-13.09 12.88 3.65 4.5L86.27 793zm-53.91-91.57a290.12 290.12 0 0 1-13-48.53l53.88-10.33a230.8 230.8 0 0 0 8.66 31.65l-19.24 7.42 2 5.15-32.3 14.64z" fill="#C9C5C5"/><path d="M449.71 591.53V307.07c0-86.737-70.314-157.05-157.05-157.05-86.736 0-157.05 70.313-157.05 157.05v284.46c0 86.736 70.314 157.05 157.05 157.05 86.736 0 157.05-70.314 157.05-157.05z" stroke="#fff" stroke-width="10" stroke-miterlimit="10"/><path d="M537.619 224.67l-18.78 6.33a227.7 227.7 0 0 0-8.9-21.37l61-26.72a287.6 287.6 0 0 1 14.2 36.42l-44.94 12.13-2.58-6.79zm60.51 69.63l-66.65-4.9a229.29 229.29 0 0 0-7-40.35l20.17-4.65-2.49-7.25 45.38-9.64a291.233 291.233 0 0 1 10.59 66.79zm.261 44.86L553.94 337l-.34-4.47-21.28-1.53v-21.84c0-4.78-.144-9.527-.43-14.24l66.41 4.94c.06 2.28.09 4.567.09 6.86v32.44zm0 75.98l-43.99-2.44.2-5.49-22.28-1.56v-56.93l22.03 1.55v-7.74l44.04 1.89v70.72zm0 75.43l-44.87-3.62.08-4.33-21.28-1.77v-56.72l21.78 1.56v-7.49l44.29 2.12v70.25zm0 74.44l-44.99-3.88-.18-4.04-20.9-2.01v-56.87l21.31 1.73v-8.28l44.76 3.8v69.55zm-.28 49.74l-66.2-3.82c.27-4.55.41-9.15.41-13.77v-27.32l21.62 1.94v-6.54l44.45 3.66v33c0 4.3-.093 8.584-.28 12.85zm-12.07 71.36l-40.34-10.37 1.7-8.48-24.07-6a231.33 231.33 0 0 0 8.3-46.17l66.25 4a290.277 290.277 0 0 1-11.84 67.02zM32.36 701.43a290.12 290.12 0 0 1-13-48.53l53.88-10.33a230.8 230.8 0 0 0 8.66 31.65l-19.24 7.42 2 5.15-32.3 14.64zm507.6 75.62l-36.91-24 4.19-6.3-19.7-12.63a231.465 231.465 0 0 0 30.55-56.8l24.75 9.57 1.93-7 39.83 11a290.917 290.917 0 0 1-44.64 86.16zM86.27 793a291.541 291.541 0 0 1-51.63-85.52l31.88-17.26 4.32 7.72 16.6-9.54a231.738 231.738 0 0 0 35 57.11l-13.09 12.88 3.65 4.5L86.27 793zm378.25 54.24l-27.58-33.61 3.59-1.94L426.16 792a232.637 232.637 0 0 0 51-44.72l20.2 14.28 2.79-4.85 36.26 25a292.996 292.996 0 0 1-71.89 65.53zm-298.37 10.35a292.737 292.737 0 0 1-65.78-49.44c-3.84-3.84-7.57-7.787-11.19-11.84l25.07-29.77 5 5.69L131.84 756c1.593 1.7 3.213 3.367 4.86 5a233.111 233.111 0 0 0 44 34.54l-7.64 22.18 4.92 3.22-11.83 36.65zm205.69 28.7l-15.13-36.55 7.51-2.91-8.62-24.47a230.175 230.175 0 0 0 58.83-23.28l13.76 21.58 6.3-3.88 26.13 32.94a289.728 289.728 0 0 1-88.78 36.57zm-109.701 3.94a289.785 289.785 0 0 1-90.49-29.68l11.07-35.06 6.42 2 5.15-24.34a230.13 230.13 0 0 0 62.34 21.58l-1.24 25 7.72 1.28-.97 39.22zm44.521 3.37a293.131 293.131 0 0 1-37.94-2.45l-1.34-39.48 4.52.14-1.17-24.81a234.574 234.574 0 0 0 66.94-1l7.78 26.26 6.64-1.55 14.26 36.8a292.725 292.725 0 0 1-59.69 6.09zm213.8-627.9l-55.7 8.69a173.204 173.204 0 0 0-17.92-51.49l39.53-17.68 3.39 6.22 11.08-5.34a222.354 222.354 0 0 1 19.62 59.6zm3.48 47.06c-.19.94-.32 1.45-.32 1.45h-56.1v-8.75c0-4.847-.197-9.647-.59-14.4h26.76V279.2l28.29-3.73c1.32 9.862 1.988 19.8 2 29.75l-.04 7.54zm0 63.01h-56.42V346.4h28.6v-8.47h-28.6v-19.19h56.42v57.03zm0 74.73h-56.42v-30.86h28.6v-9.99h-28.6v-26.54h56.42v67.39zm0 74.91h-56.42v-30.49h28.6v-10.17h-28.6v-29.36h56.42v70.02zm0 57.72h-56.42v-16.47l28.6.54v-9.91l-28.6-.19v-26.04h56.42v52.07zm-1.96 47.38l-17-2.32v-16.38h-38.4v-.3c.627-6.057.941-12.141.94-18.23v-5.19h56.42v12.7a225.663 225.663 0 0 1-1.96 29.72zm-416.28 82a222.428 222.428 0 0 1-26-70.16l43.69-6a174.07 174.07 0 0 0 22.74 52l-40.43 24.16zm45.279 55.61a222.127 222.127 0 0 1-9.47-8.93 224.96 224.96 0 0 1-33.36-42.54l40.32-24.89a174.773 174.773 0 0 0 30.91 34.42l-28.4 41.94zm68.521 41.82a223.53 223.53 0 0 1-54.08-30l28.64-42.51a174.21 174.21 0 0 0 42.11 21.18l-16.67 51.33zm72.97 14.75a223.081 223.081 0 0 1-66.63-12.41l15.23-52a174.395 174.395 0 0 0 48.77 7.72l2.63 56.69z" fill="#C9C5C5"/><path d="M595.88 604.35v-310.1C595.88 134.502 466.378 5 306.63 5h-5.81C141.072 5 11.57 134.502 11.57 294.25v310.1c0 159.748 129.502 289.25 289.25 289.25h5.81c159.748 0 289.25-129.502 289.25-289.25z" stroke="#fff" stroke-width="10" stroke-miterlimit="10"/><path d="M106.08 275.25v350.94H.84V275.25h105.24z" fill="#C9C5C5"/><path d="M541.724 215.088c-.203.047-.375.028-.516-.054a.675.675 0 0 1-.27-.429c-.046-.203-.026-.367.06-.493.094-.128.242-.214.444-.26l1.307-.298-1.305-5.73.723-.165-1.479 1.43a.69.69 0 0 1-.396.2.665.665 0 0 1-.364-.089.757.757 0 0 1-.249-.286.632.632 0 0 1-.062-.379.7.7 0 0 1 .229-.396l1.39-1.335a3.3 3.3 0 0 1 .414-.34 1.07 1.07 0 0 1 .407-.203.616.616 0 0 1 .441.047c.128.06.215.192.261.394l1.483 6.512 1.191-.271c.202-.047.369-.031.501.045.14.074.233.213.279.415.046.202.023.371-.069.507-.084.134-.227.223-.429.27l-3.991.908zm8.062-1.713a3.943 3.943 0 0 1-1.073.085 3.84 3.84 0 0 1-1.113-.25.557.557 0 0 1-.314-.248.738.738 0 0 1-.106-.356.74.74 0 0 1 .092-.352.506.506 0 0 1 .278-.235c.119-.052.262-.052.429 0 .3.095.574.147.822.156a2.7 2.7 0 0 0 .721-.066c.451-.102.809-.294 1.072-.575.263-.281.425-.649.485-1.105.066-.465.028-1.009-.114-1.631l-.199-.875.14-.032c.034.401-.017.769-.154 1.103a2.095 2.095 0 0 1-.619.84 2.448 2.448 0 0 1-.988.459 2.448 2.448 0 0 1-1.337-.052 2.437 2.437 0 0 1-1.076-.737 2.974 2.974 0 0 1-.626-1.293c-.123-.537-.118-1.037.014-1.501.139-.465.389-.862.748-1.189.357-.335.8-.563 1.329-.683.685-.156 1.301-.129 1.848.082.547.211 1.015.595 1.404 1.153.387.55.679 1.257.876 2.121.159.7.219 1.341.18 1.923a3.925 3.925 0 0 1-.377 1.522 3.042 3.042 0 0 1-.927 1.107 3.702 3.702 0 0 1-1.415.629zm-.539-4.358c.281-.063.511-.182.693-.354.188-.182.314-.399.38-.651.063-.26.061-.538-.006-.833a1.746 1.746 0 0 0-.356-.754 1.29 1.29 0 0 0-.621-.411 1.457 1.457 0 0 0-.778-.019c-.28.064-.511.182-.693.354a1.399 1.399 0 0 0-.382.64c-.065.252-.063.529.006.833.067.296.186.547.356.754.176.197.384.338.624.422.238.077.497.083.777.019zm1.81 60.512c-.249.056-.444.043-.586-.039-.135-.092-.228-.247-.278-.465a.794.794 0 0 1 .018-.409 2.07 2.07 0 0 1 .213-.465l1.777-3.032c.272-.455.452-.852.538-1.191.085-.346.092-.675.021-.986-.088-.389-.28-.656-.575-.802-.287-.147-.664-.168-1.131-.062-.265.061-.52.16-.767.298-.249.13-.489.316-.72.557-.119.125-.242.194-.37.207a.588.588 0 0 1-.35-.08.698.698 0 0 1-.32-.652.699.699 0 0 1 .203-.402 3.946 3.946 0 0 1 1.003-.768c.394-.213.8-.367 1.22-.462.592-.135 1.11-.159 1.555-.072.446.087.812.277 1.1.572.288.294.488.686.6 1.177.074.326.092.658.054.994-.03.334-.118.685-.263 1.054a7.467 7.467 0 0 1-.597 1.204l-1.673 2.787-.09-.397 3.43-.782c.21-.047.381-.033.513.043.132.077.221.216.267.418.046.202.027.37-.057.504s-.231.225-.441.272l-4.294.979zm7.265-1.655c-.202.046-.374.028-.515-.055a.67.67 0 0 1-.27-.429c-.046-.203-.026-.367.06-.493.093-.127.241-.214.443-.26l1.307-.298-1.305-5.73.724-.164-1.479 1.429a.697.697 0 0 1-.396.201.672.672 0 0 1-.364-.089.759.759 0 0 1-.249-.287.624.624 0 0 1-.062-.379.69.69 0 0 1 .229-.396l1.39-1.335c.134-.129.272-.242.413-.34.14-.105.276-.173.408-.203a.619.619 0 0 1 .44.047c.129.061.216.192.262.394l1.483 6.512 1.19-.271c.203-.046.37-.031.502.045.139.075.232.213.278.415.046.203.024.372-.068.507-.084.134-.228.224-.43.27l-3.991.909zm-2.754 50.165c-.256-.007-.442-.068-.558-.183-.109-.123-.16-.296-.154-.519a.792.792 0 0 1 .119-.392 2.09 2.09 0 0 1 .322-.398l2.474-2.496c.377-.372.649-.712.817-1.019.169-.315.257-.632.266-.951.01-.398-.109-.705-.359-.919-.241-.214-.601-.328-1.08-.341a2.869 2.869 0 0 0-.817.098 2.816 2.816 0 0 0-.836.36c-.146.092-.282.128-.41.109a.583.583 0 0 1-.318-.164.674.674 0 0 1-.171-.328.695.695 0 0 1 .022-.383.7.7 0 0 1 .297-.339 3.962 3.962 0 0 1 1.162-.495 4.84 4.84 0 0 1 1.297-.145c.607.017 1.115.122 1.524.317.41.195.718.47.924.827.206.357.302.786.288 1.289-.009.335-.074.66-.194.976a3.78 3.78 0 0 1-.517.956 7.478 7.478 0 0 1-.877 1.018l-2.313 2.284.011-.407 3.518.096c.215.005.377.062.486.168.109.107.16.264.155.471-.006.208-.066.366-.181.474-.114.109-.279.16-.495.155l-4.402-.119zm9.001.363a5.742 5.742 0 0 1-1.336-.204 3.872 3.872 0 0 1-1.195-.535.808.808 0 0 1-.313-.368.65.65 0 0 1-.037-.384.675.675 0 0 1 .188-.318.603.603 0 0 1 .351-.146.818.818 0 0 1 .464.12c.322.184.633.32.934.408.301.08.612.125.931.133.351.01.647-.03.889-.119.242-.09.425-.228.55-.416a1.22 1.22 0 0 0 .21-.689c.011-.399-.117-.698-.383-.896-.258-.207-.642-.317-1.152-.331l-.766-.021c-.223-.006-.393-.066-.51-.181-.108-.115-.16-.272-.155-.471.006-.2.066-.354.18-.462.123-.109.296-.16.519-.154l.622.017c.304.008.564-.033.782-.123.218-.097.39-.236.514-.417.125-.18.191-.402.198-.665.01-.367-.106-.649-.349-.847-.234-.198-.582-.303-1.045-.316a3.154 3.154 0 0 0-.84.085 3.279 3.279 0 0 0-.859.348.647.647 0 0 1-.422.096.536.536 0 0 1-.319-.164.684.684 0 0 1-.171-.316.636.636 0 0 1 .034-.382.693.693 0 0 1 .309-.339 3.964 3.964 0 0 1 1.15-.472 4.606 4.606 0 0 1 1.285-.144c.582.015 1.078.121 1.488.315.41.187.718.451.924.791.215.333.316.735.303 1.206-.009.335-.081.64-.216.916a1.991 1.991 0 0 1-.557.679c-.237.185-.52.313-.849.384l.004-.143c.572.111 1.012.362 1.321.754.308.383.455.858.44 1.425-.013.494-.149.921-.406 1.282-.257.36-.616.633-1.076.821-.459.179-1.004.26-1.634.243zm-7.861 64.668c-.255-.014-.439-.08-.552-.199-.105-.125-.151-.3-.139-.523a.798.798 0 0 1 .13-.388c.079-.124.19-.253.333-.389l2.544-2.424c.388-.362.67-.694.847-.996.177-.309.274-.624.292-.942.022-.399-.089-.709-.332-.93-.236-.221-.592-.344-1.07-.371a2.903 2.903 0 0 0-.82.074 2.84 2.84 0 0 0-.845.337c-.149.088-.287.12-.413.097a.59.59 0 0 1-.314-.173.703.703 0 0 1-.128-.715.69.69 0 0 1 .306-.33 3.965 3.965 0 0 1 1.176-.462c.437-.096.87-.132 1.301-.108.605.034 1.11.154 1.514.36.404.206.704.491.899.853.196.363.28.795.252 1.297a2.964 2.964 0 0 1-.222.97 3.79 3.79 0 0 1-.544.941 7.474 7.474 0 0 1-.906.992l-2.377 2.218.023-.407 3.513.196c.215.012.376.072.482.182.105.11.153.268.141.476-.012.207-.076.363-.194.468-.118.106-.284.152-.499.14l-4.398-.244zm9.226.633a5.295 5.295 0 0 1-1.281-.239 4.19 4.19 0 0 1-1.178-.581.771.771 0 0 1-.292-.352.748.748 0 0 1-.014-.397.685.685 0 0 1 .197-.324.567.567 0 0 1 .344-.149.745.745 0 0 1 .436.132c.286.184.578.328.875.432.298.105.619.167.961.186.335.018.625-.025.87-.132a1.29 1.29 0 0 0 .578-.471c.139-.208.217-.455.233-.742.025-.446-.091-.812-.346-1.098-.256-.294-.618-.454-1.089-.48a2.153 2.153 0 0 0-.748.09 2.037 2.037 0 0 0-.729.391c-.075.06-.17.118-.285.176a.802.802 0 0 1-.363.064c-.199-.012-.348-.072-.446-.181-.098-.109-.141-.256-.131-.439l.217-3.907c.012-.216.077-.376.195-.481.126-.113.296-.163.511-.151l3.932.218c.215.012.375.077.481.195.113.11.164.269.153.476-.011.199-.08.351-.205.456-.118.105-.284.152-.499.14l-3.107-.173-.149 2.677-.395-.022c.223-.267.51-.467.861-.6a2.75 2.75 0 0 1 1.136-.164c.533.03.989.171 1.367.423.386.246.675.577.867.996.201.41.287.883.257 1.416-.03.55-.181 1.029-.451 1.438-.27.4-.643.707-1.118.92-.467.206-1.015.292-1.645.257zm-9.354 71.339c-.255-.008-.441-.069-.558-.184-.108-.123-.158-.296-.152-.52a.79.79 0 0 1 .12-.391c.075-.126.183-.258.323-.398l2.48-2.489c.378-.372.652-.711.82-1.017a2.13 2.13 0 0 0 .268-.95c.012-.399-.107-.706-.356-.921-.241-.214-.601-.329-1.079-.343a2.858 2.858 0 0 0-.817.096 2.802 2.802 0 0 0-.837.358c-.147.092-.283.127-.41.108a.59.59 0 0 1-.319-.165.684.684 0 0 1-.17-.329.692.692 0 0 1 .024-.382.7.7 0 0 1 .297-.339 3.98 3.98 0 0 1 1.164-.492 4.795 4.795 0 0 1 1.297-.141c.606.018 1.114.125 1.523.32.41.196.717.473.922.83.205.357.3.787.285 1.289-.01.335-.076.661-.197.976a3.817 3.817 0 0 1-.519.955 7.512 7.512 0 0 1-.88 1.016l-2.318 2.278.012-.407 3.517.104c.215.006.377.063.486.17.108.107.159.264.153.472-.006.207-.066.365-.181.473-.115.109-.281.16-.496.153l-4.402-.13zm7.637.322a.754.754 0 0 1-.451-.145.526.526 0 0 1-.205-.354c-.02-.152.021-.318.122-.499l3.814-6.688-.015.526-3.876-.114c-.216-.007-.381-.067-.498-.183-.108-.115-.159-.272-.153-.471.006-.208.066-.365.181-.474.123-.108.292-.159.508-.152l4.629.137a.8.8 0 0 1 .522.183c.132.115.195.277.189.484a1.39 1.39 0 0 1-.086.465 3.617 3.617 0 0 1-.203.413l-3.59 6.395a.865.865 0 0 1-.359.373c-.137.075-.314.11-.529.104zm-9.46 78.714c-.254-.016-.438-.084-.55-.204-.104-.126-.148-.301-.133-.524a.788.788 0 0 1 .133-.387c.08-.123.192-.251.337-.386l2.568-2.398c.392-.358.677-.687.857-.987.18-.308.28-.621.301-.94.026-.398-.081-.709-.322-.933-.234-.223-.589-.35-1.067-.381a2.86 2.86 0 0 0-.82.066 2.837 2.837 0 0 0-.849.328c-.149.086-.287.117-.414.093a.588.588 0 0 1-.312-.177.699.699 0 0 1-.121-.715.697.697 0 0 1 .31-.328 3.986 3.986 0 0 1 1.181-.45 4.822 4.822 0 0 1 1.301-.095c.605.04 1.109.165 1.511.375.402.211.699.498.891.862.192.365.271.798.238 1.299a2.96 2.96 0 0 1-.231.969 3.872 3.872 0 0 1-.553.935c-.237.312-.542.64-.917.983l-2.398 2.194.026-.406 3.511.23c.215.014.375.077.48.188.104.11.15.269.136.476-.013.207-.079.363-.198.467-.119.104-.286.149-.501.135l-4.395-.289zm8.491.678a3.961 3.961 0 0 1-1.053-.225 3.835 3.835 0 0 1-.995-.557.558.558 0 0 1-.23-.327.744.744 0 0 1 0-.372.737.737 0 0 1 .189-.311.514.514 0 0 1 .333-.147c.129-.015.266.026.412.123.26.177.508.306.742.385.235.079.472.127.71.143.462.03.859-.052 1.192-.246.333-.194.593-.501.78-.92.196-.427.315-.959.357-1.596l.058-.896.144.01a2.344 2.344 0 0 1-.463 1.013 2.1 2.1 0 0 1-.832.629c-.329.13-.688.182-1.078.157a2.446 2.446 0 0 1-1.267-.431 2.441 2.441 0 0 1-.821-1.014 2.987 2.987 0 0 1-.231-1.418c.036-.549.183-1.027.442-1.434a2.583 2.583 0 0 1 1.056-.926c.438-.22.928-.311 1.47-.276.7.046 1.283.248 1.747.607.464.358.803.86 1.017 1.506.214.637.292 1.398.233 2.282-.047.716-.172 1.348-.376 1.894-.195.539-.46.99-.796 1.351a3.023 3.023 0 0 1-1.204.797c-.459.17-.971.236-1.536.199zm.728-4.33c.287.019.542-.029.765-.142.232-.121.415-.292.549-.516.136-.231.213-.497.233-.8.02-.31-.022-.585-.126-.824a1.294 1.294 0 0 0-.478-.571 1.458 1.458 0 0 0-.74-.24 1.45 1.45 0 0 0-.765.141 1.41 1.41 0 0 0-.549.504c-.134.223-.212.49-.232.8-.02.303.022.578.126.824.112.24.271.434.477.583.207.142.453.222.74.241zm-8.431 62.874a5.688 5.688 0 0 1-1.329-.246 3.876 3.876 0 0 1-1.177-.573.809.809 0 0 1-.301-.377.665.665 0 0 1-.026-.386.691.691 0 0 1 .199-.312.594.594 0 0 1 .355-.134.81.81 0 0 1 .46.134 4.3 4.3 0 0 0 .921.438c.299.09.607.144.926.163.35.02.648-.01.892-.092a1.08 1.08 0 0 0 .563-.398c.139-.184.216-.411.232-.682.024-.398-.094-.701-.354-.908-.251-.214-.631-.337-1.141-.367l-.765-.045c-.223-.013-.391-.079-.504-.197-.105-.118-.151-.277-.14-.476.012-.199.077-.351.195-.456.126-.105.301-.15.524-.137l.621.036c.303.018.564-.014.785-.097.221-.091.397-.225.527-.401.13-.176.203-.395.219-.658.021-.367-.086-.653-.321-.858-.228-.206-.573-.322-1.035-.349a3.197 3.197 0 0 0-.843.058 3.302 3.302 0 0 0-.87.321.655.655 0 0 1-.424.083.543.543 0 0 1-.314-.175.637.637 0 0 1-.114-.702.691.691 0 0 1 .319-.329 3.947 3.947 0 0 1 1.165-.435c.421-.095.85-.129 1.288-.104.582.035 1.074.155 1.478.363.404.2.703.473.899.82.203.34.291.745.264 1.215-.02.334-.102.637-.246.908a1.988 1.988 0 0 1-.578.662 2.07 2.07 0 0 1-.86.357l.008-.144c.568.13 1 .395 1.296.796.297.393.428.872.395 1.438-.029.494-.178.917-.446 1.268-.269.352-.636.614-1.102.787-.465.164-1.012.228-1.641.191zm5.617.211c-.207-.013-.367-.078-.48-.196a.68.68 0 0 1-.139-.488c.012-.207.077-.359.195-.456.126-.097.292-.139.499-.127l1.338.079.345-5.866.741.043-1.819.96a.69.69 0 0 1-.436.082.67.67 0 0 1-.325-.186.758.758 0 0 1-.159-.346.625.625 0 0 1 .046-.38.698.698 0 0 1 .33-.317l1.707-.894c.165-.087.329-.157.492-.211.164-.062.313-.09.449-.082.167.01.304.066.41.168.106.095.153.245.141.452l-.393 6.667 1.219.072c.207.012.363.073.469.183.113.111.164.27.152.477-.013.207-.082.363-.208.467-.118.105-.28.151-.488.139l-4.086-.24zm-8.032 53.037a5.71 5.71 0 0 1-1.285-.418 3.843 3.843 0 0 1-1.092-.722.804.804 0 0 1-.249-.413.65.65 0 0 1 .025-.385.69.69 0 0 1 .237-.284.606.606 0 0 1 .371-.087c.144.011.29.076.438.194.288.234.573.419.856.555.284.127.583.221.896.282.345.066.644.075.897.026s.456-.156.61-.321c.162-.164.268-.379.319-.646.076-.391-.002-.707-.232-.946-.221-.246-.582-.417-1.083-.513l-.752-.145c-.22-.042-.378-.13-.474-.262-.089-.131-.114-.294-.077-.49.038-.196.122-.338.253-.427.139-.087.318-.109.537-.067l.611.118c.298.057.562.059.791.006.232-.062.423-.171.575-.329.153-.157.254-.365.303-.624.07-.36.001-.658-.206-.893-.199-.233-.525-.393-.98-.481a3.194 3.194 0 0 0-.843-.052 3.242 3.242 0 0 0-.904.204.646.646 0 0 1-.432.026.541.541 0 0 1-.288-.214.677.677 0 0 1-.117-.339.623.623 0 0 1 .096-.372.681.681 0 0 1 .359-.284 3.987 3.987 0 0 1 1.211-.279c.43-.039.861-.017 1.292.066.572.11 1.044.294 1.417.553.374.251.635.561.784.931.157.363.192.776.103 1.238a2.19 2.19 0 0 1-.363.869 1.979 1.979 0 0 1-1.559.821l.027-.141c.546.203.94.522 1.181.959.242.428.31.921.203 1.477-.094.486-.296.885-.609 1.199-.312.314-.71.526-1.194.636-.483.102-1.034.093-1.653-.026zm7.047 1.356a5.71 5.71 0 0 1-1.285-.418 3.864 3.864 0 0 1-1.092-.722.804.804 0 0 1-.249-.413.654.654 0 0 1 .025-.386.693.693 0 0 1 .237-.283.606.606 0 0 1 .371-.087c.144.011.29.076.438.194.288.234.573.419.856.555.284.127.583.221.896.282.345.066.644.075.897.026s.456-.156.61-.321c.162-.164.268-.379.319-.646.076-.392-.002-.707-.232-.946-.221-.246-.582-.417-1.083-.514l-.752-.144c-.22-.042-.378-.13-.474-.262-.089-.131-.114-.294-.077-.49.038-.196.122-.338.253-.427.139-.087.318-.109.537-.067l.611.118c.298.057.562.059.791.006.232-.062.423-.171.575-.329.153-.157.254-.365.303-.624.07-.36.001-.658-.206-.893-.199-.233-.525-.393-.98-.481a3.194 3.194 0 0 0-.843-.052 3.242 3.242 0 0 0-.904.204.646.646 0 0 1-.432.026.541.541 0 0 1-.288-.214.677.677 0 0 1-.117-.339.621.621 0 0 1 .096-.372.681.681 0 0 1 .359-.284 3.958 3.958 0 0 1 1.211-.279c.43-.039.861-.017 1.292.066.572.11 1.044.294 1.417.553.374.251.635.561.784.931.157.363.192.776.103 1.238a2.19 2.19 0 0 1-.363.869 1.979 1.979 0 0 1-1.559.821l.027-.141c.546.203.94.522 1.181.959.242.428.31.921.203 1.477-.094.486-.296.885-.609 1.199-.312.314-.71.526-1.195.636-.482.102-1.033.093-1.652-.026zm-33.31 72.986a5.705 5.705 0 0 1-1.191-.638 3.851 3.851 0 0 1-.947-.903.801.801 0 0 1-.173-.451.662.662 0 0 1 .093-.375.675.675 0 0 1 .284-.237.604.604 0 0 1 .379-.02c.14.036.272.126.397.268.243.281.491.513.745.697.257.176.535.321.833.435.327.127.62.188.878.185.258-.004.477-.073.657-.209a1.22 1.22 0 0 0 .428-.579c.144-.373.123-.697-.061-.973-.175-.281-.5-.513-.976-.696l-.715-.275c-.209-.08-.349-.194-.42-.341-.065-.145-.061-.31.011-.496.071-.186.179-.312.324-.376.152-.061.332-.051.54.029l.581.223c.283.109.542.158.778.146.238-.02.446-.094.624-.222.177-.128.313-.315.408-.561.132-.342.117-.648-.046-.915-.154-.265-.447-.48-.879-.646a3.196 3.196 0 0 0-.821-.201 3.298 3.298 0 0 0-.926.041.644.644 0 0 1-.43-.05.53.53 0 0 1-.245-.261.677.677 0 0 1-.056-.355.63.63 0 0 1 .16-.349.687.687 0 0 1 .404-.216c.4-.085.814-.106 1.241-.061.43.037.85.135 1.26.293.543.209.976.473 1.297.794.324.313.527.664.607 1.054.091.386.052.798-.117 1.238-.12.312-.29.576-.509.791a1.995 1.995 0 0 1-.752.454 2.052 2.052 0 0 1-.928.079l.051-.134c.502.296.833.68.993 1.152.164.464.143.961-.06 1.49-.178.461-.448.819-.81 1.073-.363.253-.793.392-1.289.415-.493.015-1.034-.091-1.622-.317zm6.921 2.663a5.205 5.205 0 0 1-1.146-.62 4.165 4.165 0 0 1-.943-.915.773.773 0 0 1-.171-.424.768.768 0 0 1 .109-.382.675.675 0 0 1 .288-.248.562.562 0 0 1 .373-.036c.132.034.257.12.374.26.216.262.449.489.7.679.252.191.538.348.858.471.313.121.602.168.869.142.266-.025.497-.116.694-.271.196-.155.346-.367.449-.635.161-.417.163-.801.008-1.151-.153-.358-.449-.622-.889-.791a2.13 2.13 0 0 0-.74-.144 2.028 2.028 0 0 0-.813.149c-.09.034-.199.06-.326.08a.79.79 0 0 1-.365-.051c-.186-.072-.309-.175-.369-.309-.059-.134-.056-.286.01-.458l1.405-3.652c.078-.201.189-.334.333-.398.155-.069.332-.064.534.013l3.674 1.414c.201.078.334.188.398.333.075.14.075.306 0 .5-.072.186-.183.31-.335.371-.145.064-.317.058-.518-.02l-2.904-1.117-.963 2.502-.369-.142a2.023 2.023 0 0 1 1.003-.307 2.76 2.76 0 0 1 1.132.192c.499.192.889.466 1.171.823.292.351.465.756.52 1.213.065.453.002.928-.19 1.427-.198.514-.488.924-.871 1.23-.38.298-.828.476-1.346.533-.508.053-1.056-.034-1.644-.261zm-58.138 74.97a5.676 5.676 0 0 1-1.23.559 3.82 3.82 0 0 1-1.293.205.802.802 0 0 1-.463-.137.647.647 0 0 1-.241-.301.684.684 0 0 1-.017-.369.6.6 0 0 1 .215-.314.811.811 0 0 1 .454-.153c.37-.022.706-.078 1.006-.169.296-.097.579-.23.851-.397.299-.184.526-.379.68-.586.154-.207.231-.423.233-.649a1.227 1.227 0 0 0-.2-.692c-.209-.34-.479-.52-.811-.541-.329-.032-.71.085-1.146.353l-.652.401c-.19.117-.366.159-.526.127-.154-.037-.283-.14-.387-.31-.105-.17-.139-.332-.102-.486.043-.158.16-.295.351-.412l.53-.326a1.91 1.91 0 0 0 .587-.529 1.21 1.21 0 0 0 .203-.631 1.2 1.2 0 0 0-.198-.665c-.192-.312-.444-.486-.755-.519-.304-.038-.653.064-1.047.307a3.151 3.151 0 0 0-.658.53c-.184.188-.36.442-.529.761a.65.65 0 0 1-.301.311.54.54 0 0 1-.357.037.69.69 0 0 1-.316-.171.63.63 0 0 1-.18-.339.69.69 0 0 1 .073-.453c.176-.369.411-.711.706-1.023.291-.319.623-.594.997-.824.496-.305.969-.488 1.419-.548.445-.068.847-.016 1.206.157.362.162.666.443.912.844.176.286.282.581.32.886a1.991 1.991 0 0 1-.596 1.658l-.075-.122c.539-.219 1.045-.249 1.518-.09.468.152.85.47 1.147.952.259.422.379.854.361 1.296-.019.442-.17.867-.453 1.275-.287.402-.699.767-1.236 1.097zm6.318-3.883c-.361.222-.757.4-1.189.534-.433.135-.866.2-1.3.195a.765.765 0 0 1-.44-.123.744.744 0 0 1-.237-.317.683.683 0 0 1-.023-.38.554.554 0 0 1 .198-.318.74.74 0 0 1 .433-.14c.34-.012.661-.06.966-.144.304-.084.602-.216.895-.395a1.92 1.92 0 0 0 .64-.605c.141-.227.21-.466.205-.716a1.457 1.457 0 0 0-.231-.743c-.234-.38-.538-.615-.911-.704-.377-.096-.766-.021-1.167.226-.218.133-.406.3-.564.5a2.047 2.047 0 0 0-.376.737 1.55 1.55 0 0 1-.134.307.794.794 0 0 1-.262.26c-.17.104-.326.139-.469.105-.143-.034-.262-.129-.358-.285l-2.049-3.334c-.113-.184-.151-.353-.115-.506.04-.165.151-.304.335-.416l3.354-2.062c.184-.113.352-.151.506-.114.156.025.289.127.397.303.105.17.135.334.092.492-.037.154-.147.287-.33.4l-2.651 1.629 1.403 2.284-.336.207c.03-.347.152-.674.365-.983.213-.309.493-.57.839-.783.456-.28.911-.424 1.365-.431.457-.019.883.089 1.28.323.399.223.739.562 1.019 1.017.288.469.438.949.448 1.438.007.483-.124.948-.393 1.394-.267.436-.668.818-1.205 1.148zm-79.398 52a5.708 5.708 0 0 1-1.302.362 3.86 3.86 0 0 1-1.309.003.811.811 0 0 1-.436-.207.655.655 0 0 1-.192-.335.678.678 0 0 1 .041-.367.602.602 0 0 1 .26-.278.809.809 0 0 1 .472-.08c.37.035.71.032 1.02-.012a3.99 3.99 0 0 0 .903-.26c.324-.136.578-.294.762-.474.184-.181.294-.383.331-.605a1.23 1.23 0 0 0-.091-.715c-.154-.368-.393-.588-.717-.66-.32-.082-.716-.025-1.187.172l-.706.295c-.207.086-.386.101-.54.044-.146-.06-.258-.182-.334-.366-.077-.184-.086-.349-.026-.496.067-.149.204-.266.41-.353l.575-.24c.279-.116.5-.261.662-.432.159-.179.258-.376.298-.591a1.212 1.212 0 0 0-.093-.688c-.142-.339-.363-.549-.665-.63-.295-.084-.656-.037-1.083.141a3.171 3.171 0 0 0-.731.423 3.24 3.24 0 0 0-.641.67.65.65 0 0 1-.345.26.532.532 0 0 1-.359-.019.678.678 0 0 1-.285-.217.632.632 0 0 1-.126-.363.693.693 0 0 1 .142-.436c.231-.338.516-.639.856-.902.336-.27.707-.49 1.112-.659.537-.225 1.033-.332 1.487-.323.45.002.839.116 1.167.342.333.216.589.541.771.975.129.309.189.617.179.924a1.992 1.992 0 0 1-.846 1.547l-.055-.133c.567-.133 1.071-.084 1.514.146.439.223.767.596.986 1.119.191.456.243.901.156 1.335-.087.434-.302.831-.644 1.19-.346.352-.81.65-1.391.893zm5.353-2.263a.745.745 0 0 1-.47.054.522.522 0 0 1-.333-.237c-.081-.131-.112-.299-.094-.506l.713-7.666.203.486-3.578 1.495c-.198.083-.374.097-.528.04-.146-.06-.258-.182-.335-.366-.08-.192-.09-.361-.03-.507.068-.149.201-.265.4-.348l4.273-1.786a.808.808 0 0 1 .551-.049c.168.051.292.172.372.364.068.162.106.314.114.458.005.136 0 .29-.015.46l-.631 7.307a.862.862 0 0 1-.172.487 1.032 1.032 0 0 1-.44.314zm-106.286 19.355a5.641 5.641 0 0 1-1.345-.126 3.827 3.827 0 0 1-1.223-.465.804.804 0 0 1-.335-.348.651.651 0 0 1-.059-.382.68.68 0 0 1 .169-.328.609.609 0 0 1 .342-.167c.143-.02.3.011.47.094.332.165.651.283.957.353.305.062.617.089.936.079.351-.011.645-.068.881-.171.236-.103.411-.253.525-.448a1.22 1.22 0 0 0 .17-.699c-.012-.399-.157-.69-.434-.873-.27-.191-.66-.279-1.17-.263l-.766.024c-.223.007-.396-.044-.519-.152-.115-.108-.176-.262-.182-.461-.006-.199.045-.357.153-.472.116-.115.286-.176.509-.183l.622-.02c.303-.009.561-.065.773-.167.212-.111.375-.259.489-.447a1.2 1.2 0 0 0 .159-.675c-.011-.367-.144-.642-.397-.826-.245-.184-.599-.269-1.062-.254a3.163 3.163 0 0 0-.834.133 3.289 3.289 0 0 0-.837.398.65.65 0 0 1-.416.12.54.54 0 0 1-.328-.145.688.688 0 0 1-.189-.306.628.628 0 0 1 .012-.383.686.686 0 0 1 .289-.356 3.934 3.934 0 0 1 1.12-.538 4.558 4.558 0 0 1 1.275-.219c.582-.018 1.083.058 1.504.228.42.163.743.408.969.737.233.32.357.715.372 1.185.01.335-.044.644-.163.928a1.996 1.996 0 0 1-.517.71c-.225.199-.5.343-.825.433l-.004-.144c.577.078 1.031.303 1.362.676.331.365.505.831.522 1.397.016.495-.095.929-.33 1.304-.236.374-.578.668-1.027.882-.448.205-.988.318-1.618.337zm5.809-.204a.746.746 0 0 1-.459-.118.522.522 0 0 1-.226-.34c-.029-.151.002-.319.092-.506l3.402-6.906.016.526-3.876.12c-.215.007-.384-.044-.508-.152-.115-.108-.175-.262-.181-.461-.007-.207.044-.369.152-.484.116-.115.282-.176.497-.183l4.63-.144a.801.801 0 0 1 .531.152c.139.107.212.264.219.472.005.175-.014.331-.058.469a3.72 3.72 0 0 1-.178.424l-3.196 6.601a.86.86 0 0 1-.335.394 1.03 1.03 0 0 1-.522.136zm-95.842-14.942a5.758 5.758 0 0 1-1.224-.571 3.836 3.836 0 0 1-.997-.849.796.796 0 0 1-.197-.441.657.657 0 0 1 .071-.379.679.679 0 0 1 .27-.252.601.601 0 0 1 .378-.042.817.817 0 0 1 .412.246c.257.267.518.485.782.654.267.161.552.291.856.388.334.108.63.153.887.135.257-.018.472-.099.645-.245.18-.143.312-.344.395-.602.122-.38.083-.702-.116-.968-.19-.27-.528-.484-1.014-.64l-.729-.235c-.212-.069-.359-.174-.438-.317-.072-.141-.078-.306-.017-.496s.162-.321.303-.393c.148-.069.328-.07.541-.002l.593.191c.288.093.55.127.784.102.237-.033.44-.118.611-.256.17-.138.295-.333.376-.583.112-.35.08-.653-.097-.911-.169-.256-.474-.455-.914-.597a3.22 3.22 0 0 0-.831-.154 3.305 3.305 0 0 0-.922.093.652.652 0 0 1-.432-.026.543.543 0 0 1-.26-.247.68.68 0 0 1-.075-.351.626.626 0 0 1 .14-.357.683.683 0 0 1 .391-.239 3.93 3.93 0 0 1 1.236-.13c.432.013.857.087 1.274.221.555.179 1.001.419 1.34.721.341.294.563.634.665 1.019.113.38.097.794-.047 1.242a2.188 2.188 0 0 1-.465.818 1.993 1.993 0 0 1-.726.496 2.065 2.065 0 0 1-.922.131l.044-.137c.518.267.87.632 1.056 1.094.189.455.197.952.023 1.491-.152.471-.401.843-.749 1.117-.348.273-.769.435-1.263.486-.492.043-1.038-.032-1.638-.225zm6.364 2.048a3.926 3.926 0 0 1-.966-.474 3.803 3.803 0 0 1-.829-.783.56.56 0 0 1-.144-.373.729.729 0 0 1 .091-.36.738.738 0 0 1 .258-.257.513.513 0 0 1 .359-.06c.129.016.252.089.37.219.209.236.418.42.626.554.208.134.426.238.654.311.441.142.846.16 1.216.052.369-.107.696-.341.98-.702.294-.367.539-.854.735-1.461l.275-.855.136.044a2.335 2.335 0 0 1-.695.87 2.093 2.093 0 0 1-.961.408c-.35.046-.711.009-1.083-.11a2.446 2.446 0 0 1-1.124-.727 2.447 2.447 0 0 1-.55-1.183 2.992 2.992 0 0 1 .122-1.432c.169-.524.428-.951.778-1.283a2.58 2.58 0 0 1 1.25-.641 2.815 2.815 0 0 1 1.492.09c.668.216 1.184.553 1.547 1.014.363.461.569 1.03.619 1.708.053.671-.057 1.428-.328 2.271-.221.683-.496 1.265-.827 1.746-.32.475-.687.847-1.101 1.116a3.03 3.03 0 0 1-1.361.48c-.487.052-1-.008-1.539-.182zm1.761-4.022c.273.088.532.104.776.049.254-.061.474-.183.659-.367a1.8 1.8 0 0 0 .42-.719c.095-.296.121-.573.078-.83a1.29 1.29 0 0 0-.324-.67 1.45 1.45 0 0 0-.659-.414 1.449 1.449 0 0 0-.777-.048 1.386 1.386 0 0 0-.655.355 1.737 1.737 0 0 0-.42.719 1.803 1.803 0 0 0-.079.83c.051.259.158.487.321.682.166.187.386.325.66.413zm-88.935-45.136c-.184-.152-.288-.321-.312-.505-.018-.191.051-.382.209-.573l.594-.72-2.281-1.881c-.191-.158-.311-.324-.362-.501-.045-.171.004-.343.146-.516.081-.098.194-.185.34-.262a4.32 4.32 0 0 1 .667-.225l5.553-1.579a1.31 1.31 0 0 1 .53-.059.83.83 0 0 1 .444.195c.16.132.252.29.275.475.029.179-.041.37-.208.573l-3.115 3.776.452.373c.179.147.276.3.291.457.026.156-.027.314-.159.474-.132.16-.28.245-.443.255-.152.009-.318-.06-.496-.207l-.452-.373-.594.72c-.158.191-.332.295-.523.313-.186.013-.371-.057-.556-.21zm1.298-2.777l2.376-2.88.268.22-4.814 1.398.259-.314 1.911 1.576zm1.926 5.313c-.16-.132-.25-.28-.272-.442a.675.675 0 0 1 .176-.476c.132-.16.274-.244.426-.253.158-.004.318.06.478.192l1.034.853 3.739-4.533.572.472-2.035-.298a.704.704 0 0 1-.401-.191.671.671 0 0 1-.151-.343.762.762 0 0 1 .074-.372.635.635 0 0 1 .262-.281.698.698 0 0 1 .454-.06l1.906.285c.184.027.358.067.522.119.168.047.305.113.41.199a.623.623 0 0 1 .231.377c.031.139-.02.289-.152.449l-4.249 5.152.941.776c.16.132.25.274.271.425.026.156-.027.314-.159.474-.132.16-.28.245-.443.255-.157.015-.316-.043-.476-.175l-3.158-2.604zm-60.594-76.775c-.131-.2-.18-.392-.148-.576.039-.187.162-.349.369-.485l.78-.512-1.621-2.472c-.136-.206-.202-.402-.199-.585.008-.177.106-.327.292-.45.107-.07.241-.119.403-.149.166-.023.4-.029.704-.018l5.772.135c.2.002.376.035.523.1.148.065.27.171.366.318a.722.722 0 0 1 .123.536c-.026.179-.149.34-.37.485l-4.092 2.685.322.49c.127.194.174.368.142.523-.021.157-.118.292-.292.406-.173.114-.34.151-.498.112-.148-.036-.286-.151-.413-.345l-.322-.49-.78.512c-.207.136-.404.184-.592.145-.181-.043-.337-.165-.469-.365zm2.062-2.269l3.122-2.048.19.29-5.011-.09.34-.223 1.359 2.071zm1.021 7.011a5.696 5.696 0 0 1-.595-1.212 3.86 3.86 0 0 1-.243-1.287c0-.19.04-.346.123-.467a.658.658 0 0 1 .294-.25.677.677 0 0 1 .369-.027c.126.032.232.1.32.205a.813.813 0 0 1 .166.449c.033.37.099.703.199 1.001.106.292.247.572.422.839.192.294.394.514.606.662.21.147.43.219.655.214.23.002.459-.072.686-.221.333-.219.506-.494.517-.826.022-.33-.107-.708-.387-1.135l-.42-.64c-.122-.187-.17-.361-.142-.522.032-.155.132-.287.298-.396.167-.11.328-.149.482-.116.16.038.3.151.423.338l.341.52c.166.254.349.444.547.572.205.123.417.184.636.184a1.2 1.2 0 0 0 .659-.218c.307-.201.472-.458.497-.769.029-.306-.084-.652-.338-1.039a3.196 3.196 0 0 0-.55-.641 3.306 3.306 0 0 0-.776-.507.65.65 0 0 1-.32-.291.54.54 0 0 1-.047-.356.68.68 0 0 1 .162-.32.63.63 0 0 1 .333-.191.69.69 0 0 1 .455.06c.375.165.723.39 1.044.675.327.281.611.605.852.972.32.487.516.955.59 1.402.082.443.04.847-.121 1.211-.151.366-.423.678-.817.937-.28.183-.572.299-.876.345a1.998 1.998 0 0 1-.875-.069 2.063 2.063 0 0 1-.8-.478l.12-.078c.235.532.28 1.037.135 1.514-.139.473-.445.864-.918 1.175-.414.272-.842.405-1.284.399-.443-.005-.873-.144-1.289-.414-.41-.276-.787-.677-1.133-1.204zm-31.162-64.101c-.233.053-.43.032-.59-.062-.163-.102-.272-.274-.327-.515l-.207-.91-2.882.656c-.241.055-.447.049-.618-.019-.163-.069-.27-.212-.32-.43a1.092 1.092 0 0 1 .001-.43c.036-.164.113-.386.229-.666l2.142-5.361a1.32 1.32 0 0 1 .277-.456.845.845 0 0 1 .426-.232.723.723 0 0 1 .544.073c.159.086.268.258.326.515l1.087 4.773.572-.131c.225-.051.405-.035.539.049.14.075.233.213.279.416.046.202.023.371-.07.506-.085.126-.24.215-.466.266l-.572.131.207.91c.055.241.032.443-.07.605-.104.155-.273.259-.507.312zm-1.405-2.724l-.83-3.641.339-.077-1.835 4.665-.09-.397 2.416-.55zm8.403 1.13c-.234.053-.43.033-.592-.062-.162-.102-.27-.274-.325-.515l-.208-.91-2.882.657c-.241.054-.447.048-.618-.019-.163-.069-.27-.213-.32-.431a1.088 1.088 0 0 1 .001-.43 4.33 4.33 0 0 1 .23-.665l2.141-5.361a1.3 1.3 0 0 1 .277-.456.838.838 0 0 1 .426-.232.723.723 0 0 1 .544.072c.159.087.268.258.326.515l1.087 4.773.572-.13c.226-.052.405-.035.539.049.14.074.233.213.279.415.046.202.023.371-.069.507-.086.126-.242.214-.467.266l-.572.13.207.91c.055.241.032.443-.07.605-.104.155-.273.259-.506.312zm-1.407-2.724l-.829-3.641.339-.077-1.835 4.665-.09-.397 2.416-.55zm52.409 10.318c-.233.053-.43.032-.591-.062-.162-.102-.271-.274-.326-.515l-.207-.91-2.882.656c-.241.055-.447.049-.618-.019-.163-.069-.27-.212-.32-.43a1.092 1.092 0 0 1 .001-.43c.037-.164.113-.386.229-.666l2.142-5.361a1.32 1.32 0 0 1 .277-.456.847.847 0 0 1 .426-.232.722.722 0 0 1 .544.073c.159.086.268.258.326.515l1.087 4.773.572-.131c.226-.051.405-.035.539.049.14.075.233.213.279.416.046.202.023.371-.069.506-.086.126-.242.215-.467.266l-.572.131.207.91c.055.241.031.443-.071.605-.104.155-.272.259-.506.312zm-1.406-2.724l-.829-3.641.339-.077-1.835 4.665-.09-.397 2.415-.55zm7.394 1.385c-.677.154-1.293.126-1.848-.083-.549-.218-1.017-.603-1.404-1.153s-.679-1.257-.876-2.12c-.16-.701-.223-1.337-.189-1.909.039-.582.168-1.094.386-1.536.219-.443.523-.811.915-1.105a3.787 3.787 0 0 1 1.427-.632 3.577 3.577 0 0 1 1.076-.073c.381.02.751.099 1.11.238a.56.56 0 0 1 .314.248.703.703 0 0 1 .097.371.67.67 0 0 1-.092.352.538.538 0 0 1-.266.232.674.674 0 0 1-.433-.012 3.108 3.108 0 0 0-.821-.156 2.784 2.784 0 0 0-.721.066c-.451.103-.809.294-1.072.575-.263.281-.429.65-.497 1.108-.06.455-.018.998.126 1.628l.199.875-.14.032a2.469 2.469 0 0 1 .154-1.103 2.01 2.01 0 0 1 .621-.829c.276-.226.605-.383.986-.469.474-.109.92-.091 1.337.051.417.142.776.388 1.076.737.301.349.509.78.626 1.293a2.949 2.949 0 0 1-.026 1.504 2.582 2.582 0 0 1-.733 1.198c-.352.325-.796.549-1.332.672zm-.353-1.172a1.45 1.45 0 0 0 .692-.354 1.29 1.29 0 0 0 .383-.64c.063-.26.061-.537-.006-.833a1.752 1.752 0 0 0-.356-.754 1.29 1.29 0 0 0-.621-.411 1.39 1.39 0 0 0-.781-.03 1.38 1.38 0 0 0-.69.365 1.404 1.404 0 0 0-.382.64c-.065.252-.063.53.006.833.067.296.186.547.356.754.176.197.383.334.621.411.238.076.498.083.778.019zm30.011 56.066c-.161-.177-.24-.359-.237-.545.009-.192.105-.371.287-.537l.691-.629-1.991-2.185c-.166-.183-.262-.366-.288-.548-.02-.176.053-.339.218-.489.094-.086.219-.157.374-.212.161-.049.391-.091.692-.128l5.721-.775c.199-.03.377-.025.533.016a.842.842 0 0 1 .412.257c.14.153.208.323.205.509.003.181-.093.36-.288.538l-3.619 3.296.395.433c.156.171.23.336.223.493.004.159-.071.308-.225.447-.153.14-.311.203-.474.19-.152-.013-.306-.105-.462-.276l-.395-.433-.69.628c-.183.167-.37.246-.562.237-.185-.015-.359-.11-.52-.287zm1.679-2.565l2.76-2.514.234.256-4.963.7.3-.274 1.669 1.832zm2.273 6.94a5.185 5.185 0 0 1-.746-1.069 4.178 4.178 0 0 1-.434-1.24.783.783 0 0 1 .038-.456.759.759 0 0 1 .268-.292.681.681 0 0 1 .369-.093.556.556 0 0 1 .349.135.744.744 0 0 1 .219.4c.075.331.182.638.321.921.139.284.325.552.556.806.225.247.463.42.713.516.249.096.497.119.742.068.245-.05.474-.172.686-.366.331-.3.505-.643.523-1.026.023-.388-.123-.757-.44-1.105a2.14 2.14 0 0 0-.597-.46c-.22-.123-.485-.2-.794-.232a1.658 1.658 0 0 1-.327-.074.794.794 0 0 1-.304-.209c-.134-.148-.198-.295-.191-.441.007-.147.078-.282.214-.405l2.893-2.636c.16-.145.318-.214.476-.206.169.008.326.091.471.251l2.651 2.911c.145.159.214.318.207.475.004.159-.071.308-.224.447-.148.135-.303.195-.466.182-.158-.007-.309-.091-.455-.25l-2.095-2.301-1.982 1.806-.266-.292c.346-.035.691.023 1.034.175.343.151.652.378.926.679.36.395.586.815.678 1.26a2.29 2.29 0 0 1-.079 1.318c-.144.433-.414.83-.809 1.19-.407.371-.85.607-1.33.709a2.585 2.585 0 0 1-1.442-.127c-.478-.18-.929-.503-1.353-.969zm50.529 43.22c-.214-.108-.352-.249-.416-.424-.061-.182-.036-.383.075-.604l.419-.835-2.642-1.326c-.221-.111-.376-.247-.465-.407-.082-.157-.073-.336.028-.535.057-.115.148-.225.273-.332.132-.103.332-.226.6-.368l5.062-2.776c.175-.099.343-.158.504-.176a.844.844 0 0 1 .476.092c.185.093.31.227.374.402.068.168.042.369-.076.605l-2.196 4.375.525.263c.206.103.335.23.384.38.061.147.044.313-.049.498s-.218.301-.375.347c-.146.043-.323.012-.53-.091l-.524-.264-.418.835c-.111.221-.258.362-.44.422-.178.053-.375.026-.589-.081zm.647-2.997l1.675-3.337.31.156-4.381 2.434.182-.364 2.214 1.111zm2.815 4.627c-.228-.114-.371-.249-.427-.402-.047-.157-.02-.335.081-.535a.795.795 0 0 1 .273-.305c.121-.082.275-.156.461-.224l3.299-1.21c.499-.178.89-.37 1.173-.576.285-.214.5-.463.643-.749.179-.356.201-.684.066-.984-.128-.297-.406-.552-.834-.767a2.857 2.857 0 0 0-.781-.258 2.812 2.812 0 0 0-.91-.028c-.171.021-.31-.004-.417-.076a.58.58 0 0 1-.219-.284.699.699 0 0 1 .167-.706c.103-.1.241-.16.412-.181.41-.053.831-.038 1.263.044.439.087.851.226 1.236.42.542.272.957.583 1.246.933.288.35.45.73.485 1.141.035.41-.06.84-.286 1.289-.15.3-.347.567-.59.802a3.822 3.822 0 0 1-.873.646 7.509 7.509 0 0 1-1.227.55l-3.063 1.087.183-.364 3.145 1.579c.192.096.315.216.368.359.054.143.034.307-.059.492-.093.186-.215.303-.365.353-.15.05-.321.026-.514-.07l-3.936-1.976zm54.421 18.955c-.238-.029-.416-.116-.535-.259-.118-.152-.162-.35-.131-.596l.115-.926-2.934-.365c-.245-.03-.437-.106-.574-.228-.13-.12-.181-.292-.153-.513.015-.127.064-.262.146-.404a4.35 4.35 0 0 1 .442-.548l3.841-4.311c.131-.152.27-.264.415-.334a.83.83 0 0 1 .479-.073c.206.025.369.11.488.253.119.136.163.334.131.595l-.604 4.858.582.072c.229.029.393.106.49.23.106.118.146.28.12.486-.025.205-.104.356-.237.452-.124.09-.3.12-.53.091l-.582-.072-.115.926c-.03.246-.121.428-.273.545-.15.11-.344.151-.581.121zm-.394-3.04l.46-3.705.345.042-3.314 3.761.05-.403 2.459.305zm6.17 3.782c-.99-.123-1.7-.589-2.13-1.398-.429-.817-.557-1.919-.385-3.304.116-.935.328-1.704.637-2.309.317-.612.721-1.052 1.213-1.321.5-.267 1.078-.36 1.735-.279.998.125 1.709.583 2.133 1.375.432.794.561 1.887.388 3.281-.115.926-.332 1.699-.65 2.319-.309.613-.711 1.061-1.204 1.346-.493.276-1.072.373-1.737.29zm.155-1.247c.538.067.965-.133 1.281-.6.323-.467.551-1.231.682-2.292.132-1.061.097-1.845-.105-2.352-.193-.515-.559-.806-1.098-.872-.53-.066-.956.126-1.277.576-.321.443-.547 1.195-.679 2.256-.132 1.061-.098 1.857.101 2.388.2.532.564.83 1.095.896zm81.765-4.126a5.693 5.693 0 0 1-1.348.088 3.834 3.834 0 0 1-1.282-.266.802.802 0 0 1-.385-.291.652.652 0 0 1-.119-.367.676.676 0 0 1 .115-.352.604.604 0 0 1 .312-.218.806.806 0 0 1 .478.018c.355.111.688.177 1.001.198.311.013.624-.01.937-.07.345-.066.626-.169.843-.308a1.09 1.09 0 0 0 .448-.525c.089-.212.108-.451.057-.718-.075-.391-.264-.656-.567-.793-.296-.146-.695-.171-1.196-.075l-.752.145c-.22.042-.399.019-.537-.068-.131-.089-.215-.231-.253-.427-.038-.196-.012-.359.077-.49.096-.132.254-.219.473-.261l.612-.118c.297-.057.543-.153.737-.287.192-.143.329-.315.412-.518.083-.203.1-.434.05-.692-.069-.361-.243-.612-.522-.753-.271-.143-.634-.171-1.089-.084-.29.056-.557.144-.802.264a3.278 3.278 0 0 0-.765.525.65.65 0 0 1-.391.184.53.53 0 0 1-.346-.092.67.67 0 0 1-.235-.271.629.629 0 0 1-.049-.381.686.686 0 0 1 .228-.397c.295-.284.636-.52 1.022-.708a4.6 4.6 0 0 1 1.224-.418c.572-.11 1.079-.113 1.521-.011.441.094.798.285 1.073.574.281.279.466.65.555 1.112.063.329.058.643-.015.941a1.987 1.987 0 0 1-1.144 1.341l-.027-.141c.582-.015 1.066.136 1.452.452.384.308.629.741.736 1.297.093.486.053.932-.121 1.339-.173.407-.465.752-.874 1.033-.411.274-.925.47-1.544.589zm7.212-1.384c-.98.188-1.799-.036-2.457-.674-.66-.645-1.122-1.653-1.385-3.024-.177-.925-.212-1.723-.105-2.393.113-.68.362-1.223.747-1.63.393-.409.914-.675 1.565-.8.987-.19 1.805.027 2.452.65.656.622 1.116 1.622 1.38 3.002.176.916.208 1.719.097 2.406-.106.679-.35 1.229-.732 1.652-.383.414-.904.685-1.562.811zm-.237-1.234c.533-.102.877-.424 1.033-.966.164-.543.145-1.34-.056-2.39-.201-1.05-.477-1.785-.825-2.206-.343-.429-.781-.593-1.313-.491-.525.101-.871.415-1.038.942-.169.52-.152 1.305.049 2.355.202 1.05.479 1.797.833 2.241.353.444.792.616 1.317.515zm48.779-16.484a5.734 5.734 0 0 1-1.268.468 3.83 3.83 0 0 1-1.304.109.796.796 0 0 1-.452-.17.66.66 0 0 1-.219-.318.678.678 0 0 1 .011-.369.598.598 0 0 1 .236-.298.816.816 0 0 1 .464-.119c.372.005.71-.026 1.016-.095.302-.076.595-.187.879-.334.311-.161.551-.339.72-.534.169-.195.262-.406.28-.631a1.223 1.223 0 0 0-.149-.704c-.184-.354-.44-.554-.769-.599-.325-.056-.715.033-1.168.268l-.68.352c-.199.103-.377.132-.534.088-.151-.048-.272-.16-.364-.337-.092-.178-.114-.341-.066-.492.055-.154.182-.283.38-.385l.553-.287c.269-.139.477-.301.625-.485.143-.191.226-.396.248-.614a1.197 1.197 0 0 0-.149-.677c-.169-.326-.407-.517-.715-.574-.3-.06-.656.017-1.067.23a3.123 3.123 0 0 0-1.278 1.201.652.652 0 0 1-.323.288.538.538 0 0 1-.358.011.691.691 0 0 1-.303-.194.632.632 0 0 1-.155-.351.69.69 0 0 1 .106-.446c.202-.356.462-.679.779-.969a4.611 4.611 0 0 1 1.054-.749c.518-.268 1.003-.415 1.455-.443.45-.035.847.047 1.192.245.349.188.632.491.848.909.154.297.239.599.254.906a2 2 0 0 1-.159.864 2.053 2.053 0 0 1-.557.747l-.066-.128c.554-.179 1.061-.172 1.521.021.456.187.814.531 1.074 1.034.228.44.316.879.265 1.319-.051.439-.232.852-.544 1.239-.316.379-.754.713-1.313 1.003zm6.521-3.377c-.886.459-1.735.476-2.548.052-.816-.431-1.545-1.266-2.187-2.506-.433-.836-.694-1.591-.782-2.264-.084-.684 0-1.276.253-1.775.261-.504.685-.907 1.273-1.212.893-.462 1.738-.487 2.537-.074.805.41 1.53 1.238 2.176 2.485.429.829.688 1.589.776 2.28.092.681.015 1.278-.231 1.791-.25.507-.672.915-1.267 1.223zm-.578-1.116c.482-.249.72-.656.716-1.22.002-.567-.242-1.326-.734-2.275-.492-.95-.964-1.576-1.418-1.88-.451-.315-.917-.348-1.399-.098-.474.246-.717.645-.727 1.199-.013.546.226 1.294.717 2.243.492.949.97 1.587 1.435 1.912.465.325.935.365 1.41.119zm53.798-47.416c-.16.199-.32.311-.482.334-.164.013-.333-.051-.507-.19a.797.797 0 0 1-.241-.331 2.143 2.143 0 0 1-.124-.497l-.498-3.478c-.07-.526-.177-.949-.32-1.268a2.124 2.124 0 0 0-.599-.784c-.311-.249-.628-.339-.949-.269-.317.063-.624.282-.923.656-.17.212-.308.449-.415.711a2.831 2.831 0 0 0-.217.884c-.014.172-.068.303-.16.392a.582.582 0 0 1-.324.156.685.685 0 0 1-.364-.062.702.702 0 0 1-.292-.248.703.703 0 0 1-.091-.442 3.95 3.95 0 0 1 .306-1.226c.175-.411.398-.785.667-1.121.378-.474.769-.816 1.171-1.025.403-.21.808-.289 1.217-.238.409.051.809.233 1.202.547.262.21.482.457.662.744.184.28.335.61.451.989.121.372.215.81.282 1.313l.428 3.223-.318-.254 2.197-2.749c.134-.168.277-.263.428-.286.151-.022.307.031.469.161.162.129.252.273.269.43.018.157-.041.319-.175.487l-2.75 3.441zm5.822-7.092c-.408.511-.831.893-1.269 1.146-.438.242-.877.351-1.317.326-.435-.031-.849-.204-1.241-.518a2.233 2.233 0 0 1-.674-.844 2.086 2.086 0 0 1-.163-1.004c.03-.344.141-.674.333-.991l.196.157a2.147 2.147 0 0 1-1.34.507c-.488-.002-.938-.168-1.35-.496-.373-.299-.617-.647-.729-1.043-.118-.401-.109-.828.028-1.28.13-.458.38-.917.749-1.378.373-.468.769-.815 1.186-1.044.411-.233.826-.336 1.243-.308.411.022.804.182 1.178.481.274.22.482.477.623.774.145.29.214.595.204.914-.005.313-.087.62-.247.921l-.187-.149c.411-.386.877-.592 1.396-.615.519-.035 1.008.131 1.47.5.392.314.649.683.77 1.106.126.418.117.87-.028 1.357-.145.476-.422.97-.831 1.481zm-.935-.747c.354-.443.537-.844.548-1.202.005-.364-.161-.681-.498-.95-.336-.269-.678-.358-1.026-.269-.348.09-.698.356-1.052.799-.349.436-.531.837-.547 1.202-.011.359.151.673.488.942.336.269.682.361 1.035.276.353-.096.704-.362 1.052-.798zm-2.963-2.369c.199-.25.331-.492.396-.726a1.17 1.17 0 0 0-.024-.678 1.235 1.235 0 0 0-.412-.559c-.299-.239-.617-.32-.955-.243-.339.066-.655.283-.949.651-.294.368-.436.724-.426 1.069.004.341.155.63.454.869.306.244.628.333.967.267.339-.066.655-.283.949-.65zm13.555-49.659c-.254-.03-.433-.108-.539-.234-.096-.132-.131-.309-.104-.531a.79.79 0 0 1 .154-.379c.087-.118.206-.24.358-.366l2.696-2.254c.41-.336.713-.649.909-.939a2.13 2.13 0 0 0 .352-.922c.048-.396-.042-.712-.271-.949-.22-.236-.568-.382-1.044-.44a2.914 2.914 0 0 0-.822.021 2.832 2.832 0 0 0-.866.282c-.154.077-.293.101-.418.07a.586.586 0 0 1-.302-.194.698.698 0 0 1-.082-.721.701.701 0 0 1 .327-.31c.368-.188.77-.317 1.204-.385a4.804 4.804 0 0 1 1.305-.023c.602.073 1.098.225 1.487.457.39.232.671.535.843.91.172.374.227.811.167 1.31-.04.333-.135.651-.284.954a3.844 3.844 0 0 1-.604.904 7.52 7.52 0 0 1-.968.931l-2.516 2.059.049-.404 3.493.423c.214.025.37.096.469.213.098.116.135.277.11.483-.025.206-.099.358-.224.456-.124.097-.293.133-.507.107l-4.372-.529zm9.094 1.22c-.65-.078-1.197-.237-1.642-.475-.437-.246-.76-.562-.971-.95-.202-.386-.273-.828-.213-1.327a2.23 2.23 0 0 1 .364-1.017c.204-.289.46-.511.768-.667a2.273 2.273 0 0 1 1.017-.238l-.03.249a2.145 2.145 0 0 1-1.136-.873c-.255-.416-.351-.886-.288-1.409.058-.475.225-.865.503-1.169.279-.312.647-.528 1.104-.65.457-.129.979-.159 1.565-.088.594.072 1.098.225 1.512.46.415.227.72.525.917.895.197.361.267.779.209 1.255-.042.348-.152.66-.33.936-.17.277-.393.495-.67.655-.268.16-.573.252-.913.275l.029-.238c.545.147.964.434 1.258.864.302.422.418.926.347 1.512-.06.499-.239.912-.535 1.238-.289.326-.678.557-1.169.69-.481.127-1.047.151-1.696.072zm.144-1.188c.562.068.999.013 1.31-.167.312-.187.494-.495.545-.922.052-.428-.052-.766-.311-1.015-.259-.248-.67-.406-1.233-.474-.554-.067-.991-.011-1.31.167-.311.179-.492.483-.544.911-.052.427.052.769.31 1.026.267.249.678.407 1.233.474zm.455-3.766c.317.038.592.023.825-.045.234-.076.422-.202.564-.378a1.24 1.24 0 0 0 .259-.644c.046-.38-.053-.693-.296-.94-.235-.253-.586-.408-1.053-.465-.468-.056-.845.011-1.134.201-.287.182-.453.463-.499.844-.047.388.046.708.281.962.235.253.586.408 1.053.465zm8.852-52.33c-.255-.008-.441-.069-.557-.184-.109-.122-.16-.295-.154-.519a.799.799 0 0 1 .119-.391c.075-.126.183-.259.322-.399l2.476-2.493c.378-.373.651-.712.819-1.019.168-.314.257-.631.266-.95.011-.399-.108-.706-.358-.92-.241-.214-.601-.328-1.08-.341a2.832 2.832 0 0 0-.817.097 2.838 2.838 0 0 0-.836.359c-.146.092-.283.128-.41.109a.584.584 0 0 1-.319-.165.676.676 0 0 1-.17-.328.691.691 0 0 1 .022-.382.705.705 0 0 1 .297-.339 3.98 3.98 0 0 1 1.163-.495 4.838 4.838 0 0 1 1.297-.143c.607.017 1.114.123 1.524.318.41.195.717.47.923.827.206.357.301.787.287 1.289a2.959 2.959 0 0 1-.194.977 3.829 3.829 0 0 1-.518.955c-.224.321-.517.66-.878 1.017l-2.314 2.283.011-.407 3.517.098c.215.006.378.062.486.169.109.107.161.264.155.471-.006.208-.066.366-.181.474-.115.109-.28.16-.495.154l-4.403-.122zm9.168.374c-.654-.018-1.213-.125-1.679-.322-.457-.204-.808-.489-1.054-.855-.237-.366-.349-.8-.335-1.303a2.23 2.23 0 0 1 .269-1.046c.176-.306.41-.551.703-.735.292-.183.623-.294.991-.331l-.007.251a2.145 2.145 0 0 1-1.212-.764c-.293-.391-.432-.85-.417-1.377.013-.478.144-.882.393-1.21.249-.336.595-.586 1.038-.749.444-.171.961-.249 1.551-.232.599.016 1.114.122 1.548.318.434.188.766.456.995.806.23.341.339.752.325 1.23-.009.351-.09.672-.242.963a1.891 1.891 0 0 1-.606.714 2.027 2.027 0 0 1-.884.358l.006-.239c.556.095 1 .343 1.332.743.341.393.503.884.486 1.475-.014.502-.153.929-.418 1.281-.258.352-.624.617-1.1.796-.468.17-1.029.246-1.683.228zm.034-1.196c.566.016.996-.08 1.289-.288.293-.215.446-.538.458-.969.012-.43-.123-.757-.404-.981-.281-.223-.705-.343-1.271-.358-.559-.016-.988.08-1.289.287-.293.207-.446.527-.458.957-.012.431.123.762.403.993.29.224.713.343 1.272.359zm.105-3.793c.319.009.592-.031.818-.121.226-.097.401-.24.526-.428s.191-.41.198-.665c.011-.383-.116-.686-.381-.909-.257-.23-.621-.352-1.092-.365-.47-.013-.84.088-1.11.304-.269.208-.409.504-.42.887-.01.39.113.701.37.932.257.23.62.352 1.091.365zm2.566-39.421c-.256-.001-.443-.057-.562-.169-.112-.12-.167-.292-.167-.515a.806.806 0 0 1 .109-.395c.072-.127.176-.263.312-.406l2.412-2.556c.367-.382.632-.728.792-1.039a2.12 2.12 0 0 0 .241-.957c.001-.399-.126-.702-.38-.91-.247-.208-.61-.313-1.089-.314a2.833 2.833 0 0 0-.814.118 2.834 2.834 0 0 0-.827.381c-.143.095-.279.135-.407.118a.587.587 0 0 1-.323-.156.68.68 0 0 1-.178-.323.684.684 0 0 1 .013-.383.699.699 0 0 1 .288-.347c.343-.23.727-.405 1.15-.524a4.836 4.836 0 0 1 1.293-.176c.606.001 1.117.094 1.531.279.415.184.729.452.944.804.214.351.321.778.32 1.281a2.969 2.969 0 0 1-.17.981 3.804 3.804 0 0 1-.493.968c-.216.327-.5.673-.852 1.04l-2.256 2.34.001-.407 3.519.008c.215.001.379.053.49.157.112.104.167.26.167.467-.001.208-.057.367-.169.479-.112.111-.276.166-.491.166l-4.404-.01zm9.486.141c-.695-.001-1.289-.166-1.783-.494-.486-.337-.855-.816-1.109-1.439-.254-.623-.38-1.377-.378-2.263.002-.718.083-1.352.244-1.902.169-.559.409-1.029.721-1.411a3.046 3.046 0 0 1 1.139-.871 3.787 3.787 0 0 1 1.533-.296c.351.001.706.058 1.065.17.366.105.709.265 1.028.481a.561.561 0 0 1 .25.312c.04.128.044.256.011.383a.664.664 0 0 1-.168.323.543.543 0 0 1-.311.167.672.672 0 0 1-.419-.109 3.149 3.149 0 0 0-.765-.337 2.77 2.77 0 0 0-.718-.097c-.463-.001-.854.106-1.174.32-.319.215-.564.538-.732.968-.161.43-.242.969-.243 1.615l-.002.898-.144-.001c.065-.406.197-.753.397-1.04.209-.295.472-.517.792-.668a2.344 2.344 0 0 1 1.066-.237 2.41 2.41 0 0 1 1.291.35c.375.232.669.552.884.959.214.408.321.875.32 1.401a2.96 2.96 0 0 1-.363 1.46c-.232.422-.56.756-.983 1.003-.416.238-.899.357-1.449.355zm-.081-1.22c.287 0 .538-.063.754-.19.224-.127.396-.306.516-.538.12-.239.181-.51.181-.813a1.744 1.744 0 0 0-.177-.814 1.288 1.288 0 0 0-.514-.54 1.379 1.379 0 0 0-.753-.205 1.414 1.414 0 0 0-1.271.739c-.12.231-.18.502-.181.813a1.79 1.79 0 0 0 .178.814c.127.232.298.412.513.54.215.128.466.193.754.194zm-10.089-67.336c-.255.007-.444-.044-.567-.152-.115-.117-.176-.287-.182-.51a.807.807 0 0 1 .097-.398c.069-.13.169-.268.3-.415l2.335-2.626c.356-.393.61-.747.761-1.063.151-.323.222-.644.213-.963-.011-.399-.147-.699-.407-.899-.253-.201-.619-.294-1.098-.281a2.828 2.828 0 0 0-.81.142 2.828 2.828 0 0 0-.815.405c-.141.1-.275.143-.403.131a.587.587 0 0 1-.328-.147.675.675 0 0 1-.188-.318.702.702 0 0 1 .001-.383.706.706 0 0 1 .278-.355 3.971 3.971 0 0 1 1.134-.558 4.843 4.843 0 0 1 1.287-.215c.607-.016 1.12.062 1.539.234.42.172.742.43.967.775.225.345.345.769.358 1.272.01.335-.037.663-.14.985a3.84 3.84 0 0 1-.464.983c-.207.333-.48.687-.821 1.064l-2.185 2.406-.012-.407 3.518-.096c.215-.006.38.042.495.142.114.101.174.255.18.462.005.208-.046.369-.155.484-.108.114-.27.175-.486.18l-4.402.121zm10.526-.192c-.239.007-.429-.052-.568-.176-.139-.132-.212-.322-.219-.569l-.025-.933-2.955.081c-.248.007-.448-.04-.603-.139-.146-.1-.222-.262-.229-.485a1.089 1.089 0 0 1 .085-.421c.067-.154.186-.357.354-.609l3.149-4.839c.107-.17.227-.301.36-.393a.846.846 0 0 1 .463-.144.72.72 0 0 1 .52.177c.139.116.212.306.219.569l.133 4.893.587-.016c.231-.006.404.045.519.153.122.101.186.255.192.462.006.208-.05.369-.167.484-.108.106-.278.163-.51.169l-.586.016.026.933c.006.248-.056.441-.188.58-.132.132-.318.2-.557.207zm-.847-2.946l-.102-3.733.347-.009-2.71 4.216-.011-.406 2.476-.068zm-9.784-69.392c-.256-.012-.44-.076-.555-.193-.106-.124-.154-.298-.145-.521a.789.789 0 0 1 .126-.39 2.17 2.17 0 0 1 .328-.393l2.517-2.452c.384-.366.662-.701.836-1.005.173-.311.267-.627.281-.946.018-.398-.096-.707-.342-.925-.238-.219-.596-.338-1.074-.359a2.832 2.832 0 0 0-.819.083 2.85 2.85 0 0 0-.842.346c-.147.089-.285.123-.411.101a.579.579 0 0 1-.316-.169.68.68 0 0 1-.165-.331.684.684 0 0 1 .029-.382.694.694 0 0 1 .302-.334 3.974 3.974 0 0 1 1.171-.475 4.794 4.794 0 0 1 1.299-.122c.606.027 1.112.141 1.519.343.406.201.709.482.909.843.199.36.288.791.266 1.293-.015.335-.086.66-.211.973-.118.315-.296.63-.533.947-.23.317-.529.652-.896 1.003l-2.351 2.243.018-.406 3.515.156c.215.009.376.068.483.177.107.109.156.267.147.474-.009.207-.072.364-.189.471-.116.106-.282.155-.498.145l-4.399-.195zm7.169.318c-.255-.011-.44-.075-.555-.192-.106-.125-.154-.299-.144-.522a.794.794 0 0 1 .125-.39c.077-.124.187-.255.329-.392l2.517-2.452c.383-.366.662-.702.835-1.005a2.13 2.13 0 0 0 .281-.946c.018-.399-.096-.707-.342-.926-.238-.218-.596-.338-1.074-.359a2.893 2.893 0 0 0-.818.083c-.275.06-.555.175-.842.346-.148.09-.285.123-.412.102a.584.584 0 0 1-.316-.17.68.68 0 0 1-.165-.331.693.693 0 0 1 .029-.382.698.698 0 0 1 .302-.334 3.985 3.985 0 0 1 1.171-.475c.436-.1.869-.141 1.3-.122.605.027 1.112.141 1.518.343.406.202.709.483.909.843.199.36.288.792.266 1.294a2.947 2.947 0 0 1-.211.973 3.84 3.84 0 0 1-.533.946 7.49 7.49 0 0 1-.895 1.003l-2.352 2.244.018-.407 3.515.156c.215.01.376.069.483.177.107.109.156.267.147.474-.009.207-.072.364-.189.471-.116.107-.282.155-.497.146l-4.4-.196zm-13.612-58.985c-.255.017-.446-.027-.572-.13-.12-.113-.187-.28-.201-.503a.787.787 0 0 1 .082-.401 2.11 2.11 0 0 1 .284-.426l2.233-2.713c.341-.406.581-.77.72-1.091.139-.329.198-.652.177-.971-.026-.398-.173-.692-.442-.882-.26-.191-.629-.271-1.107-.24a2.851 2.851 0 0 0-.804.173 2.797 2.797 0 0 0-.799.436c-.137.105-.27.153-.398.146a.58.58 0 0 1-.333-.135.676.676 0 0 1-.2-.31.693.693 0 0 1-.013-.383.698.698 0 0 1 .264-.365 3.955 3.955 0 0 1 1.112-.601 4.824 4.824 0 0 1 1.278-.263c.605-.04 1.121.019 1.547.175.426.156.757.402.995.738.238.336.374.755.406 1.257.022.334-.012.664-.103.99a3.863 3.863 0 0 1-.426 1c-.194.34-.454.705-.78 1.094l-2.093 2.487-.026-.406 3.511-.229c.215-.014.382.027.5.123s.184.248.198.455c.013.207-.032.37-.136.489-.105.118-.264.185-.479.199l-4.395.287zm9.163-.479c-.995.065-1.78-.259-2.354-.973-.575-.722-.908-1.78-.999-3.173-.062-.94.002-1.736.191-2.388.197-.66.512-1.169.944-1.525.441-.356.991-.556 1.652-.599 1.003-.066 1.788.251 2.353.949.573.698.906 1.748.997 3.149.061.932-.006 1.732-.202 2.4-.189.66-.499 1.176-.931 1.548-.432.365-.982.568-1.651.612zm-.082-1.254c.542-.035.923-.312 1.145-.83.23-.519.31-1.312.241-2.379-.07-1.067-.252-1.83-.546-2.291-.286-.469-.7-.686-1.242-.65-.533.035-.916.303-1.147.806-.231.495-.312 1.276-.242 2.343s.252 1.842.548 2.327c.295.484.71.709 1.243.674zm-10.259-53.08c-.207.006-.373-.045-.495-.154-.115-.116-.175-.274-.181-.474-.005-.207.046-.364.155-.471.117-.107.279-.163.486-.169l1.34-.036-.16-5.874.742-.021-1.73 1.113a.686.686 0 0 1-.427.119.664.664 0 0 1-.34-.158.768.768 0 0 1-.189-.33.635.635 0 0 1 .014-.383.694.694 0 0 1 .302-.344l1.624-1.038c.157-.1.314-.184.472-.252.157-.076.304-.116.44-.12a.626.626 0 0 1 .422.132c.114.085.174.231.18.438l.182 6.676 1.22-.033c.207-.006.368.042.483.142.122.101.186.255.192.462.006.207-.05.369-.167.484-.108.114-.266.174-.473.18l-4.092.111zm8.9-.122c-.654.018-1.219-.059-1.695-.229-.468-.179-.834-.445-1.099-.797-.257-.352-.392-.779-.406-1.282a2.232 2.232 0 0 1 .21-1.059c.159-.316.38-.573.662-.772a2.28 2.28 0 0 1 .971-.386l.007.251a2.135 2.135 0 0 1-1.252-.696c-.314-.374-.478-.825-.492-1.351-.013-.479.096-.889.326-1.23.23-.35.562-.618.995-.806.434-.195.946-.301 1.536-.317.598-.016 1.119.061 1.563.233.444.163.79.413 1.038.75.249.328.379.732.392 1.21.01.351-.053.676-.189.975a1.868 1.868 0 0 1-.566.746c-.242.198-.53.334-.863.407l-.006-.24c.56.065 1.017.288 1.371.669.361.374.55.855.566 1.446.014.502-.102.936-.348 1.302-.237.366-.589.651-1.054.855-.458.196-1.013.303-1.667.321zm-.033-1.197c.566-.015.99-.134 1.271-.357.281-.232.416-.562.404-.993-.011-.431-.164-.75-.457-.958-.293-.207-.722-.303-1.289-.288-.558.016-.982.135-1.271.358-.281.223-.416.55-.404.981.011.431.164.754.457.969.301.208.731.304 1.289.288zm-.103-3.792c.319-.009.589-.064.809-.166.221-.11.388-.262.503-.456.114-.195.168-.42.161-.675-.011-.383-.154-.679-.431-.887-.27-.216-.64-.317-1.11-.305-.471.013-.835.135-1.092.365-.257.223-.38.526-.37.908.011.391.151.695.42.911.269.216.639.318 1.11.305zm-21.472-53.001c-.202.046-.374.028-.516-.054a.673.673 0 0 1-.269-.43c-.046-.202-.026-.366.06-.492.093-.128.241-.215.443-.261l1.307-.297-1.305-5.73.724-.165-1.479 1.43a.69.69 0 0 1-.396.2.663.663 0 0 1-.364-.089.763.763 0 0 1-.25-.287.627.627 0 0 1-.061-.378.69.69 0 0 1 .229-.396l1.39-1.335c.134-.129.272-.242.413-.34a1.1 1.1 0 0 1 .408-.204.624.624 0 0 1 .44.047c.129.061.216.193.262.395l1.483 6.512 1.19-.272c.203-.046.37-.03.502.046.139.074.232.213.278.415.046.202.024.371-.068.507-.084.133-.228.223-.43.269l-3.991.909zm7.205-1.542a.752.752 0 0 1-.472-.028.525.525 0 0 1-.288-.29c-.057-.143-.059-.314-.006-.514l2.014-7.431.117.513-3.781.861c-.21.048-.385.031-.527-.051-.134-.085-.223-.224-.267-.418-.046-.203-.027-.371.057-.504.092-.136.243-.227.453-.275l4.516-1.029a.8.8 0 0 1 .551.047c.157.078.258.219.304.421.039.171.051.328.034.471-.018.135-.05.286-.094.451l-1.871 7.091a.86.86 0 0 1-.253.451 1.028 1.028 0 0 1-.487.234zM49.752 414.847c0-.878.176-1.632.527-2.262a3.636 3.636 0 0 1 1.508-1.436c.654-.335 1.424-.503 2.31-.503.662 0 1.256.096 1.783.288.535.191.99.466 1.364.825.383.359.675.798.874 1.317.208.526.311 1.117.311 1.771 0 .439-.056.87-.167 1.293a3.812 3.812 0 0 1-.479 1.113.77.77 0 0 1-.383.335.727.727 0 0 1-.43.036.672.672 0 0 1-.348-.204.592.592 0 0 1-.167-.371c-.008-.143.044-.303.155-.478a2.67 2.67 0 0 0 .347-.802c.072-.288.108-.579.108-.874 0-.566-.116-1.045-.347-1.436a2.186 2.186 0 0 0-1.005-.886c-.44-.199-.978-.299-1.616-.299-.63 0-1.169.1-1.616.299-.447.2-.786.495-1.017.886-.231.391-.347.87-.347 1.436 0 .303.036.602.108.898.08.295.199.574.358.837.104.176.148.332.132.467a.56.56 0 0 1-.143.359.642.642 0 0 1-.336.192.716.716 0 0 1-.406-.024.764.764 0 0 1-.36-.287 3.664 3.664 0 0 1-.538-1.149 5.075 5.075 0 0 1-.18-1.341zm.12 5.023c0-.263.068-.467.203-.61.144-.136.348-.204.61-.204h6.81c.264 0 .464.068.6.204.143.143.215.347.215.61v4.273c0 .199-.052.351-.156.454-.104.112-.251.168-.443.168-.2 0-.355-.056-.466-.168-.104-.103-.156-.255-.156-.454v-3.615h-2.322v3.351c0 .208-.052.363-.156.467-.103.104-.255.156-.454.156-.2 0-.351-.052-.455-.156-.104-.104-.156-.259-.156-.467v-3.351h-2.453v3.615c0 .199-.052.351-.156.454-.103.112-.255.168-.455.168-.199 0-.35-.056-.454-.168-.104-.103-.156-.255-.156-.454v-4.273zm-.096 7.045c0-.231.064-.41.192-.538.127-.12.311-.18.55-.18h7.121c.248 0 .435.06.563.18a.644.644 0 0 1 .203.491c0 .183-.035.319-.107.407a1.66 1.66 0 0 1-.335.335l-5.949 4.583v-.311h5.661c.232 0 .411.06.539.18.128.127.191.307.191.538 0 .232-.063.407-.191.527-.128.12-.307.18-.539.18h-7.18c-.224 0-.4-.056-.527-.168a.574.574 0 0 1-.192-.455.81.81 0 0 1 .108-.443 1.79 1.79 0 0 1 .347-.347l5.948-4.572v.3h-5.66c-.24 0-.423-.06-.551-.18-.128-.12-.192-.295-.192-.527zm0 11.036c0-.248.068-.439.204-.575.143-.127.339-.191.586-.191h6.463v-2.334c0-.207.056-.371.168-.491a.676.676 0 0 1 .478-.167c.208 0 .363.056.467.167.112.12.168.284.168.491v6.2c0 .207-.056.367-.168.478-.104.12-.26.18-.467.18-.2 0-.359-.06-.478-.18-.112-.111-.168-.271-.168-.478v-2.334h-6.463c-.247 0-.443-.064-.586-.192-.136-.127-.204-.319-.204-.574zm.096 5.446c0-.263.068-.466.203-.61.144-.136.348-.203.61-.203h6.81c.264 0 .464.067.6.203.143.144.215.347.215.61v4.273c0 .2-.052.351-.156.455-.104.112-.251.167-.443.167-.2 0-.355-.055-.466-.167-.104-.104-.156-.255-.156-.455v-3.614h-2.322v3.351c0 .207-.052.363-.156.467-.103.103-.255.155-.454.155-.2 0-.351-.052-.455-.155-.104-.104-.156-.26-.156-.467v-3.351h-2.453v3.614c0 .2-.052.351-.156.455-.103.112-.255.167-.455.167-.199 0-.35-.055-.454-.167-.104-.104-.156-.255-.156-.455v-4.273zm-.096 7.094c0-.248.068-.439.204-.575.143-.127.339-.191.586-.191h6.966c.255 0 .447.068.574.203.136.136.204.327.204.575v2.884c0 .926-.224 1.64-.67 2.142-.44.503-1.058.754-1.856.754-.518 0-.965-.115-1.34-.347a2.161 2.161 0 0 1-.862-.981c-.2-.431-.299-.954-.299-1.568l.18.108v.395c0 .327-.08.61-.24.849-.16.248-.41.463-.754.647l-1.663.897a.891.891 0 0 1-.491.132.555.555 0 0 1-.395-.18c-.096-.111-.144-.275-.144-.49 0-.216.044-.391.132-.527a1.24 1.24 0 0 1 .43-.359l2.227-1.209c.271-.143.45-.315.538-.514.096-.192.144-.439.144-.742v-1.137h-2.68c-.248 0-.444-.064-.587-.192-.136-.127-.204-.319-.204-.574zm4.608.766v1.867c0 .55.112.965.335 1.244.232.288.575.431 1.03.431.446 0 .781-.143 1.005-.431.231-.279.347-.694.347-1.244v-1.867h-2.717zm-4.512 10.7c0-.248.068-.439.203-.575.144-.135.34-.203.587-.203h6.906c.255 0 .446.064.574.191.136.136.204.327.204.575 0 .247-.068.435-.204.562-.128.136-.319.204-.574.204h-6.391v3.47c0 .216-.056.379-.168.491-.112.12-.271.18-.479.18-.207 0-.37-.06-.49-.18-.112-.112-.168-.275-.168-.491v-4.224zm-.096 6.708c0-.247.068-.439.204-.574.143-.128.339-.192.586-.192h7.05c.255 0 .45.064.586.192.136.135.203.327.203.574 0 .247-.067.435-.203.563-.136.135-.331.203-.587.203h-7.049c-.247 0-.443-.064-.586-.191-.136-.128-.204-.32-.204-.575zm0 3.33c0-.231.064-.411.192-.539.127-.119.311-.179.55-.179h7.121c.248 0 .435.06.563.179a.646.646 0 0 1 .203.491c0 .184-.035.319-.107.407a1.61 1.61 0 0 1-.335.335l-5.949 4.584v-.311h5.661c.232 0 .411.06.539.179.128.128.191.308.191.539 0 .231-.063.407-.191.527-.128.119-.307.179-.539.179h-7.18c-.224 0-.4-.056-.527-.168a.572.572 0 0 1-.192-.454c0-.184.036-.331.108-.443.072-.104.188-.22.347-.347l5.948-4.572v.299h-5.66c-.24 0-.423-.06-.551-.179-.128-.12-.192-.296-.192-.527zm.096 9.049c0-.264.068-.467.203-.611.144-.135.348-.203.61-.203h6.81c.264 0 .464.068.6.203.143.144.215.347.215.611v4.272c0 .2-.052.351-.156.455-.104.112-.251.168-.443.168-.2 0-.355-.056-.466-.168-.104-.104-.156-.255-.156-.455v-3.614h-2.322v3.351c0 .207-.052.363-.156.467-.103.103-.255.155-.454.155-.2 0-.351-.052-.455-.155-.104-.104-.156-.26-.156-.467v-3.351h-2.453v3.614c0 .2-.052.351-.156.455-.103.112-.255.168-.455.168-.199 0-.35-.056-.454-.168-.104-.104-.156-.255-.156-.455v-4.272z" fill="#fff"/><g clip-path="url(#clip1_7488_193495)"><path d="M233.815 317.12h117.639L338.725 286h-89.122l-15.788 31.12zm150.235 0v68.776h-67.733v95.305a33.363 33.363 0 0 0-45.32-.165v-95.14h-68.752V317.12H384.05zm24.48 172.505h-50.926v81.321h50.926v-81.321zm-179.883 0h-49.398v81.321h49.398v-81.321z" fill="#C9C5C5"/><path d="M408.53 393.023h-50.926v94.023h50.926v-94.023zm-179.883 0h-49.398v94.023h49.398v-94.023zm2.626 0h30.594v89.521h-8.19v58.453l10.695 10.065h21.9v20.134h-54.999V393.023zm123.602 0h-31.068v88.581h8.659v59.393l-10.694 10.065h-21.901v20.134h55.004V393.023zM179.249 573.964h106.554v16.807h-18.847v19.35h-87.707v-36.157zm228.811 0H300.102v16.807h18.842v19.35h89.116v-36.157z" fill="#C9C5C5"/><path d="M321.5 390.312V484.1h8.688v54.975l-9.092 9.092h-23.222v42.942h-9.12v-42.65h-24.17l-8.604-8.604v-54.689h8.19v-94.445h-69.029V318.06h5.944v69.541h68.132v93.064l.249 2.349a33.362 33.362 0 1 0 47.927.672v-96.362h68.329V318.06h6.579v72.252H321.5z" fill="#C9C5C5"/><path d="M293.147 540.931c19.219 0 34.799-15.58 34.799-34.799s-15.58-34.799-34.799-34.799-34.799 15.58-34.799 34.799 15.58 34.799 34.799 34.799z" fill="#C9C5C5" stroke="#fff" stroke-width="5" stroke-miterlimit="10"/><path d="M317.646 592.044H267.98v18.076h49.666v-18.076z" fill="#C9C5C5"/><path d="M263.043 353.865c-.704 0-1.408-.056-2.112-.168a10.978 10.978 0 0 1-1.992-.456 8.192 8.192 0 0 1-1.68-.816 1.552 1.552 0 0 1-.72-1.488c.048-.272.152-.504.312-.696.176-.208.392-.336.648-.384.256-.048.536.024.84.216a8.2 8.2 0 0 0 2.232.912c.784.192 1.608.288 2.472.288 1.264 0 2.184-.208 2.76-.624.576-.432.864-.984.864-1.656 0-.56-.208-1-.624-1.32-.4-.32-1.096-.584-2.088-.792l-2.64-.552c-1.52-.32-2.656-.856-3.408-1.608-.736-.768-1.104-1.776-1.104-3.024 0-.784.16-1.496.48-2.136.32-.64.768-1.192 1.344-1.656a6.263 6.263 0 0 1 2.088-1.056c.816-.256 1.712-.384 2.688-.384.96 0 1.872.12 2.736.36.864.24 1.64.592 2.328 1.056.256.176.424.392.504.648.096.256.12.512.072.768-.048.24-.16.448-.336.624-.176.176-.4.28-.672.312-.256.032-.552-.048-.888-.24a6.832 6.832 0 0 0-1.8-.72 8.527 8.527 0 0 0-1.968-.216c-.736 0-1.368.104-1.896.312-.528.208-.936.504-1.224.888-.272.368-.408.808-.408 1.32 0 .576.192 1.04.576 1.392.384.336 1.04.6 1.968.792l2.616.552c1.584.336 2.76.864 3.528 1.584.784.72 1.176 1.68 1.176 2.88 0 .768-.16 1.464-.48 2.088a4.446 4.446 0 0 1-1.344 1.608c-.576.448-1.272.792-2.088 1.032-.816.24-1.736.36-2.76.36zm14.573-.048c-.496 0-.88-.136-1.152-.408-.256-.288-.384-.68-.384-1.176v-12.96h-4.68c-.416 0-.744-.112-.984-.336-.224-.24-.336-.56-.336-.96 0-.416.112-.728.336-.936.24-.224.568-.336.984-.336h12.432c.416 0 .736.112.96.336.24.208.36.52.36.936 0 .4-.12.72-.36.96-.224.224-.544.336-.96.336h-4.68v12.96c0 .496-.128.888-.384 1.176-.256.272-.64.408-1.152.408zm7.584 0c-.384 0-.696-.088-.936-.264a1.08 1.08 0 0 1-.408-.696c-.048-.304.008-.64.168-1.008l6.336-14.04c.208-.464.456-.792.744-.984a1.785 1.785 0 0 1 1.032-.312c.368 0 .696.104.984.312.304.192.56.52.768.984l6.36 14.04c.176.368.24.704.192 1.008a1.096 1.096 0 0 1-.408.72c-.224.16-.52.24-.888.24-.448 0-.8-.104-1.056-.312-.24-.224-.456-.56-.648-1.008l-1.56-3.624 1.296.84h-10.128l1.296-.84-1.536 3.624c-.208.464-.424.8-.648 1.008-.224.208-.544.312-.96.312zm6.888-13.776l-3.36 7.992-.624-.768h8.016l-.6.768-3.384-7.992h-.048zm18.587 13.824c-1.872 0-3.456-.352-4.752-1.056a7.062 7.062 0 0 1-2.928-3c-.672-1.296-1.008-2.832-1.008-4.608 0-1.344.192-2.552.576-3.624.4-1.072.968-1.984 1.704-2.736.752-.768 1.664-1.352 2.736-1.752 1.072-.416 2.288-.624 3.648-.624.896 0 1.792.112 2.688.336a8.054 8.054 0 0 1 2.568 1.08c.272.176.448.392.528.648.096.256.112.52.048.792-.064.256-.184.48-.36.672-.176.192-.4.312-.672.36-.256.048-.544-.016-.864-.192a7.308 7.308 0 0 0-1.848-.768 8.411 8.411 0 0 0-2.088-.24c-1.184 0-2.184.24-3 .72-.816.464-1.432 1.144-1.848 2.04-.4.896-.6 1.992-.6 3.288 0 1.968.472 3.464 1.416 4.488.944 1.024 2.344 1.536 4.2 1.536.64 0 1.288-.064 1.944-.192a13.099 13.099 0 0 0 1.92-.528l-.6 1.368v-5.112h-2.64c-.4 0-.712-.104-.936-.312-.208-.208-.312-.488-.312-.84 0-.368.104-.648.312-.84.224-.192.536-.288.936-.288h3.96c.4 0 .704.112.912.336.224.208.336.512.336.912v5.832c0 .352-.072.648-.216.888-.128.24-.344.416-.648.528-.704.256-1.512.472-2.424.648-.912.16-1.808.24-2.688.24zm11.168-.24c-.528 0-.936-.136-1.224-.408-.272-.288-.408-.696-.408-1.224v-13.656c0-.528.136-.928.408-1.2.288-.288.696-.432 1.224-.432h8.568c.4 0 .704.104.912.312.224.208.336.504.336.888 0 .4-.112.712-.336.936-.208.208-.512.312-.912.312h-7.248v4.656h6.72c.416 0 .728.104.936.312.208.208.312.512.312.912s-.104.704-.312.912c-.208.208-.52.312-.936.312h-6.72v4.92h7.248c.4 0 .704.104.912.312.224.208.336.512.336.912s-.112.704-.336.912c-.208.208-.512.312-.912.312h-8.568zm-131.577 92.682c-.166-.001-.293-.047-.383-.138a.57.57 0 0 1-.125-.393l.033-4.32-1.56-.012a.461.461 0 0 1-.327-.115.45.45 0 0 1-.11-.321c.002-.138.04-.242.115-.311a.46.46 0 0 1 .329-.109l4.144.032c.138.001.245.039.319.114.079.07.118.174.117.313a.434.434 0 0 1-.122.319c-.075.074-.182.111-.321.11l-1.56-.012-.033 4.319a.566.566 0 0 1-.131.391c-.086.09-.215.135-.385.133zm2.527.02a.517.517 0 0 1-.311-.09.361.361 0 0 1-.134-.234.6.6 0 0 1 .059-.335l2.147-4.664a.748.748 0 0 1 .251-.326.6.6 0 0 1 .672.005.721.721 0 0 1 .253.33l2.084 4.697a.568.568 0 0 1 .062.336.367.367 0 0 1-.138.239.497.497 0 0 1-.297.078.542.542 0 0 1-.351-.107.994.994 0 0 1-.213-.338l-.511-1.212.43.284-3.376-.026.434-.277-.521 1.204a1.045 1.045 0 0 1-.219.334c-.075.069-.182.103-.321.102zm2.332-4.574l-1.141 2.655-.206-.258 2.672.021-.202.254-1.107-2.672h-.016zm4.11 4.559c-.176-.001-.312-.047-.407-.139-.09-.096-.134-.233-.133-.409l.035-4.552c.001-.176.048-.309.139-.399.097-.095.233-.142.409-.14l1.92.014c.395.003.73.065 1.007.184.276.12.486.289.628.509.148.22.22.482.218.786a1.298 1.298 0 0 1-.303.861 1.45 1.45 0 0 1-.811.466l.001-.12c.394.062.699.214.916.455.217.242.324.555.321.939-.004.501-.178.889-.521 1.164-.338.269-.809.402-1.411.397l-2.008-.016zm.446-.772l1.44.011c.362.003.63-.065.801-.202.172-.143.259-.355.261-.638.002-.288-.081-.502-.251-.642-.169-.14-.436-.211-.798-.214l-1.44-.011-.013 1.696zm.019-2.472l1.304.01c.352.003.614-.062.785-.194.177-.137.267-.339.269-.606.002-.267-.084-.467-.259-.602-.17-.14-.431-.211-.783-.214l-1.304-.01-.012 1.616zm5.019 3.287c-.166-.002-.293-.048-.383-.139a.545.545 0 0 1-.133-.393l.035-4.616c.001-.171.045-.299.131-.383a.516.516 0 0 1 .385-.133c.165.001.29.047.375.139.09.086.134.214.133.385l-.033 4.271 2.32.018c.144.001.253.04.327.115.08.075.119.182.118.321a.444.444 0 0 1-.123.327c-.075.074-.185.11-.329.109l-2.823-.021zm4.516.034c-.176-.001-.312-.047-.407-.139-.09-.097-.135-.233-.133-.409l.035-4.552c.001-.176.047-.309.139-.399.097-.095.233-.142.409-.141l2.856.022c.133.001.234.037.303.107.074.07.111.169.11.297a.419.419 0 0 1-.115.311c-.069.069-.171.102-.304.101l-2.416-.018-.012 1.552 2.24.017c.138.001.242.037.311.106.069.07.103.172.102.305-.002.134-.037.235-.107.303-.07.069-.174.103-.313.102l-2.24-.017-.012 1.64 2.416.018c.133.001.234.037.303.107.074.07.111.171.11.304-.001.134-.04.235-.115.304-.07.068-.171.102-.304.101l-2.856-.022zm6.094.127a4.5 4.5 0 0 1-.703-.061 3.651 3.651 0 0 1-.663-.157 2.74 2.74 0 0 1-.558-.277.504.504 0 0 1-.198-.233.506.506 0 0 1-.038-.264.49.49 0 0 1 .105-.232.365.365 0 0 1 .217-.126c.086-.015.179.009.28.074.233.141.481.244.742.31.26.066.535.1.823.102.421.003.728-.064.921-.201a.664.664 0 0 0 .293-.55.526.526 0 0 0-.205-.441c-.133-.108-.364-.198-.694-.269l-.879-.191c-.505-.111-.883-.292-1.131-.545-.244-.258-.364-.595-.361-1.011a1.57 1.57 0 0 1 .166-.71c.108-.213.259-.396.452-.549.199-.153.431-.269.699-.347a3 3 0 0 1 .897-.121c.32.003.623.045.911.127.287.082.545.202.773.358a.41.41 0 0 1 .166.218.46.46 0 0 1 .022.256.393.393 0 0 1-.113.207.368.368 0 0 1-.225.102.485.485 0 0 1-.295-.082 2.28 2.28 0 0 0-.599-.245 2.876 2.876 0 0 0-.655-.077 1.725 1.725 0 0 0-.633.099.917.917 0 0 0-.41.293.714.714 0 0 0-.139.439.6.6 0 0 0 .188.466c.127.113.345.202.654.269l.871.19c.527.116.917.295 1.171.537.26.242.388.563.385.963a1.507 1.507 0 0 1-.617 1.228c-.194.147-.426.26-.699.338-.273.078-.58.116-.921.113zm-17.695 86.794a.638.638 0 0 1-.359-.098.75.75 0 0 1-.222-.306l-2.052-4.704a.529.529 0 0 1-.045-.352.403.403 0 0 1 .17-.239.52.52 0 0 1 .304-.086c.155.001.269.037.343.107.08.064.146.164.198.297l1.862 4.407-.344-.003 1.922-4.385a.786.786 0 0 1 .21-.287.502.502 0 0 1 .337-.101.453.453 0 0 1 .287.09c.08.06.13.14.151.241.02.102 0 .219-.059.352l-2.124 4.672a.752.752 0 0 1-.227.302.575.575 0 0 1-.352.093zm5.703.044a.636.636 0 0 1-.36-.099.752.752 0 0 1-.221-.305l-2.052-4.704a.53.53 0 0 1-.045-.353.407.407 0 0 1 .169-.238.525.525 0 0 1 .305-.086c.155.001.269.037.343.107a.69.69 0 0 1 .198.297l1.862 4.407-.344-.003 1.922-4.385a.786.786 0 0 1 .21-.287.502.502 0 0 1 .337-.101.453.453 0 0 1 .287.09c.08.059.13.14.15.241a.583.583 0 0 1-.058.352l-2.124 4.672a.76.76 0 0 1-.227.302.575.575 0 0 1-.352.093zm3.975.031c-.166-.002-.293-.048-.383-.139a.57.57 0 0 1-.125-.393l.036-4.712c.001-.171.045-.301.131-.391.091-.09.22-.134.385-.133.165.001.29.047.375.139.09.091.134.222.133.393l-.036 4.712a.57.57 0 0 1-.131.391c-.086.09-.215.134-.385.133zm2.257.017a.518.518 0 0 1-.382-.139.565.565 0 0 1-.125-.393l.035-4.656c.002-.17.048-.298.139-.383.092-.09.22-.134.385-.133l1.928.015c.619.005 1.095.163 1.429.475.333.312.498.745.494 1.3-.005.555-.176.988-.514 1.3-.339.307-.817.458-1.436.453l-1.424-.011-.012 1.648a.573.573 0 0 1-.131.391c-.087.09-.215.134-.386.133zm.535-2.98l1.264.01c.363.003.638-.075.826-.234.188-.164.283-.403.286-.718.002-.314-.089-.552-.275-.714-.185-.161-.459-.243-.822-.246l-1.264-.01-.015 1.912zm160.455-84.115c-.166-.001-.293-.047-.383-.138a.57.57 0 0 1-.125-.393l.033-4.32-1.56-.012a.461.461 0 0 1-.327-.115.45.45 0 0 1-.11-.321c.001-.138.04-.242.115-.311a.46.46 0 0 1 .329-.109l4.144.032c.138.001.245.039.319.114.079.07.118.174.117.313a.434.434 0 0 1-.122.319c-.075.074-.182.111-.321.11l-1.56-.012-.033 4.319a.566.566 0 0 1-.131.391c-.086.09-.215.135-.385.133zm2.527.02a.517.517 0 0 1-.311-.09.361.361 0 0 1-.134-.234.607.607 0 0 1 .058-.335l2.148-4.664a.748.748 0 0 1 .251-.326.6.6 0 0 1 .672.005.721.721 0 0 1 .253.33l2.084 4.697a.568.568 0 0 1 .062.336.367.367 0 0 1-.138.239.497.497 0 0 1-.297.078.542.542 0 0 1-.351-.107.994.994 0 0 1-.213-.338l-.511-1.212.43.284-3.376-.026.434-.277-.521 1.204a1.045 1.045 0 0 1-.219.334c-.075.069-.182.103-.321.102zm2.332-4.574l-1.141 2.655-.206-.258 2.672.021-.202.254-1.107-2.672h-.016zm4.11 4.559c-.176-.001-.312-.047-.407-.139-.09-.096-.134-.233-.133-.409l.035-4.552c.001-.176.048-.309.139-.399.097-.095.233-.142.409-.14l1.92.014c.395.003.73.065 1.007.184.276.12.486.289.628.509.148.22.22.482.218.786a1.298 1.298 0 0 1-.303.861 1.45 1.45 0 0 1-.811.466l.001-.12c.394.062.699.214.916.455.217.242.324.555.321.939-.004.501-.178.889-.521 1.164-.338.269-.809.402-1.411.397l-2.008-.016zm.446-.772l1.44.011c.362.003.63-.065.801-.202.172-.143.259-.355.261-.638.002-.288-.081-.502-.251-.642-.169-.14-.436-.211-.798-.214l-1.44-.011-.013 1.696zm.019-2.472l1.304.01c.352.003.614-.062.785-.194.177-.137.267-.339.269-.606.002-.267-.084-.467-.259-.602-.17-.14-.431-.211-.783-.214l-1.304-.01-.012 1.616zm5.019 3.287c-.166-.002-.293-.048-.383-.139a.545.545 0 0 1-.133-.393l.035-4.616c.001-.171.045-.299.131-.383a.516.516 0 0 1 .385-.133c.165.001.29.047.375.139.09.086.134.214.133.385l-.033 4.271 2.32.018c.144.001.253.04.327.115.08.075.119.182.118.321a.444.444 0 0 1-.123.327c-.075.074-.185.11-.329.109l-2.823-.021zm4.516.034c-.176-.001-.312-.047-.407-.139-.09-.097-.135-.233-.133-.409l.035-4.552c.001-.176.047-.309.139-.399.097-.095.233-.142.409-.141l2.856.022c.133.001.234.037.303.107.074.07.111.169.11.297a.419.419 0 0 1-.115.311c-.07.069-.171.102-.304.101l-2.416-.018-.012 1.552 2.24.017c.138.001.242.037.311.106.069.07.103.172.101.305-.001.134-.036.235-.106.303-.07.069-.174.103-.313.102l-2.24-.017-.012 1.64 2.416.018c.133.001.234.037.303.107.074.07.111.171.11.304-.001.134-.04.235-.115.304-.07.068-.171.102-.305.101l-2.855-.022zm6.094.127a4.5 4.5 0 0 1-.703-.061 3.651 3.651 0 0 1-.663-.157 2.74 2.74 0 0 1-.558-.277.504.504 0 0 1-.198-.233.506.506 0 0 1-.038-.264.49.49 0 0 1 .105-.232.365.365 0 0 1 .217-.126c.086-.015.179.009.28.074.233.141.481.244.741.31.261.066.536.1.824.102.421.003.728-.064.921-.201a.664.664 0 0 0 .293-.55.526.526 0 0 0-.205-.441c-.133-.108-.364-.198-.694-.269l-.879-.191c-.505-.111-.883-.292-1.131-.545-.244-.258-.364-.595-.361-1.011.002-.261.057-.498.166-.71.108-.213.259-.396.452-.549.199-.153.431-.269.699-.347a3 3 0 0 1 .897-.121c.32.003.623.045.911.127.287.082.545.202.773.358a.41.41 0 0 1 .166.218.46.46 0 0 1 .022.256.393.393 0 0 1-.113.207.368.368 0 0 1-.225.102.485.485 0 0 1-.295-.082 2.28 2.28 0 0 0-.599-.245 2.876 2.876 0 0 0-.655-.077 1.725 1.725 0 0 0-.633.099.917.917 0 0 0-.41.293.714.714 0 0 0-.139.439.6.6 0 0 0 .188.466c.127.113.345.202.654.269l.871.19c.527.116.917.295 1.171.537.26.242.388.563.385.963a1.507 1.507 0 0 1-.617 1.228c-.194.147-.426.26-.699.338-.273.078-.58.116-.921.113zm-17.695 86.794a.644.644 0 0 1-.36-.098.749.749 0 0 1-.221-.306l-2.052-4.704a.529.529 0 0 1-.045-.352.406.406 0 0 1 .169-.239.525.525 0 0 1 .305-.086c.155.001.269.037.343.107.08.064.146.164.198.297l1.862 4.407-.344-.003 1.922-4.385a.786.786 0 0 1 .21-.287.502.502 0 0 1 .337-.101.453.453 0 0 1 .287.09c.08.06.13.14.15.241a.583.583 0 0 1-.058.352l-2.124 4.672a.752.752 0 0 1-.227.302.575.575 0 0 1-.352.093zm5.703.044a.636.636 0 0 1-.36-.099.752.752 0 0 1-.221-.305l-2.052-4.704a.53.53 0 0 1-.045-.353.407.407 0 0 1 .169-.238.525.525 0 0 1 .305-.086c.155.001.269.037.343.107a.69.69 0 0 1 .198.297l1.862 4.407-.344-.003 1.922-4.385a.786.786 0 0 1 .21-.287.502.502 0 0 1 .337-.101.453.453 0 0 1 .287.09c.08.059.13.14.15.241a.583.583 0 0 1-.058.352l-2.124 4.672a.76.76 0 0 1-.227.302.575.575 0 0 1-.352.093zm3.975.031c-.166-.002-.293-.048-.383-.139a.57.57 0 0 1-.125-.393l.036-4.712c.001-.171.045-.301.131-.391.091-.09.22-.134.385-.133.165.001.29.047.375.139.09.091.134.222.133.393l-.036 4.712a.575.575 0 0 1-.131.391c-.086.09-.215.134-.385.133zm2.257.017c-.165-.001-.293-.048-.382-.139a.565.565 0 0 1-.125-.393l.035-4.656c.002-.17.048-.298.139-.383.092-.09.22-.134.385-.133l1.928.015c.619.005 1.095.163 1.429.475.333.312.498.745.494 1.3-.005.555-.176.988-.514 1.3-.339.307-.817.458-1.436.453l-1.424-.011-.013 1.648a.563.563 0 0 1-.131.391c-.086.09-.214.134-.385.133zm.535-2.98l1.264.01c.363.003.638-.075.826-.234.188-.164.283-.403.286-.718.002-.314-.089-.552-.275-.714-.185-.161-.459-.243-.822-.246l-1.264-.01-.015 1.912zm-166.461 63.68a.64.64 0 0 1-.359-.098.749.749 0 0 1-.221-.306l-2.052-4.704a.536.536 0 0 1-.046-.352.41.41 0 0 1 .17-.239.525.525 0 0 1 .305-.086c.155.001.269.037.343.107.08.065.145.164.198.297l1.862 4.407-.344-.003 1.922-4.385a.752.752 0 0 1 .21-.286.496.496 0 0 1 .337-.102.453.453 0 0 1 .287.09c.08.06.13.14.15.241a.577.577 0 0 1-.059.352l-2.123 4.672a.761.761 0 0 1-.227.302.571.571 0 0 1-.353.093zm3.975.031c-.165-.001-.293-.048-.382-.139a.565.565 0 0 1-.125-.393l.036-4.712c.001-.17.045-.301.131-.391.091-.09.219-.134.385-.133.165.001.29.048.375.139.09.091.134.222.133.393l-.037 4.712a.563.563 0 0 1-.131.391c-.086.09-.214.134-.385.133zm2.258.017c-.165-.001-.293-.047-.383-.139a.57.57 0 0 1-.125-.393l.036-4.655c.001-.171.048-.299.139-.383a.516.516 0 0 1 .385-.133l1.928.014c.619.005 1.095.163 1.428.475.334.312.499.746.494 1.3-.004.555-.175.988-.514 1.3-.338.307-.816.458-1.435.453l-1.424-.011-.013 1.648a.566.566 0 0 1-.131.391c-.086.09-.214.135-.385.133zm.535-2.98l1.264.01c.363.003.638-.075.826-.234.188-.163.283-.403.285-.717.003-.315-.089-.553-.274-.715-.186-.161-.46-.243-.822-.246l-1.264-.01-.015 1.912zm130.232 2.932a.64.64 0 0 1-.359-.098.749.749 0 0 1-.221-.306l-2.052-4.704a.536.536 0 0 1-.046-.352.41.41 0 0 1 .17-.239.525.525 0 0 1 .305-.086c.155.001.269.037.343.107.08.065.145.164.198.297l1.862 4.407-.344-.003 1.922-4.385a.752.752 0 0 1 .21-.286.496.496 0 0 1 .337-.102.453.453 0 0 1 .287.09c.08.06.13.14.15.241a.577.577 0 0 1-.059.352l-2.123 4.672a.761.761 0 0 1-.227.302.571.571 0 0 1-.353.093zm3.975.031c-.165-.001-.293-.048-.382-.139a.565.565 0 0 1-.125-.393l.036-4.712c.001-.17.045-.301.131-.391.091-.09.219-.134.385-.133.165.001.29.048.375.139.09.091.134.222.133.393l-.037 4.712a.563.563 0 0 1-.131.391c-.086.09-.214.134-.385.133zm2.258.017c-.165-.001-.293-.047-.383-.139a.57.57 0 0 1-.125-.393l.036-4.655c.001-.171.048-.299.139-.383a.516.516 0 0 1 .385-.133l1.928.014c.619.005 1.095.163 1.428.475.334.312.499.746.494 1.3-.004.555-.175.988-.514 1.3-.338.307-.816.458-1.435.453l-1.424-.011-.013 1.648a.566.566 0 0 1-.131.391c-.086.09-.214.135-.385.133zm.535-2.98l1.264.01c.363.003.638-.075.826-.234.188-.163.283-.403.285-.717.003-.315-.089-.553-.274-.715-.186-.161-.46-.243-.822-.246l-1.264-.01-.015 1.912zM243.725 474.157c-.878-.007-1.631-.188-2.258-.544a3.64 3.64 0 0 1-1.425-1.519c-.33-.657-.492-1.428-.485-2.314.005-.662.106-1.256.301-1.781.196-.533.474-.986.836-1.358.362-.38.803-.668 1.324-.864.528-.203 1.119-.302 1.773-.297.439.003.869.062 1.291.177.422.115.792.278 1.11.488a.765.765 0 0 1 .332.385.727.727 0 0 1 .033.431.67.67 0 0 1-.207.346.593.593 0 0 1-.372.165c-.144.006-.303-.047-.477-.16a2.669 2.669 0 0 0-.8-.353 3.566 3.566 0 0 0-.872-.114c-.567-.005-1.046.107-1.439.336a2.182 2.182 0 0 0-.894.998c-.202.437-.306.975-.311 1.613-.005.631.091 1.17.287 1.618.196.449.488.79.877 1.025.39.234.867.353 1.434.358.303.002.603-.032.898-.101a3.25 3.25 0 0 0 .841-.353c.176-.102.332-.145.468-.128a.56.56 0 0 1 .358.147c.095.088.158.2.188.336a.717.717 0 0 1-.027.407.76.76 0 0 1-.29.357 3.636 3.636 0 0 1-1.153.529 5.059 5.059 0 0 1-1.341.17zm4.999.014c-.248-.002-.443-.071-.585-.208-.135-.145-.201-.349-.199-.612l.053-6.905c.002-.264.071-.463.208-.597.145-.143.349-.213.612-.211l4.177.032c.207.002.362.055.465.159.103.105.154.253.153.444-.002.2-.055.355-.16.466-.104.103-.26.154-.468.152l-3.458-.027-.019 2.382 3.208.025c.199.001.35.054.453.159.111.104.166.252.165.444-.002.199-.059.354-.172.465-.104.103-.256.154-.456.152l-3.207-.024-.022 2.896c-.004.543-.254.812-.748.808zm89.001-.014c-.878-.007-1.631-.188-2.258-.544a3.64 3.64 0 0 1-1.425-1.519c-.33-.657-.492-1.428-.485-2.314.005-.662.106-1.256.301-1.781.196-.533.474-.986.836-1.358.362-.38.803-.668 1.324-.864.528-.203 1.119-.302 1.773-.297.439.003.869.062 1.291.177.422.115.792.278 1.11.488a.765.765 0 0 1 .332.385.727.727 0 0 1 .033.431.67.67 0 0 1-.207.346.593.593 0 0 1-.372.165c-.144.006-.303-.047-.477-.16a2.669 2.669 0 0 0-.8-.353 3.566 3.566 0 0 0-.872-.114c-.567-.005-1.046.107-1.439.336a2.182 2.182 0 0 0-.894.998c-.202.437-.306.975-.311 1.613-.005.631.091 1.17.287 1.618.196.449.488.79.877 1.025.39.234.867.353 1.434.358.303.002.603-.032.898-.101a3.25 3.25 0 0 0 .841-.353c.176-.102.332-.145.468-.128a.56.56 0 0 1 .358.147c.095.088.158.2.188.336a.717.717 0 0 1-.027.407.76.76 0 0 1-.29.357 3.636 3.636 0 0 1-1.153.529 5.059 5.059 0 0 1-1.341.17zm4.999.014c-.248-.002-.443-.071-.585-.208-.135-.145-.201-.349-.199-.612l.053-6.905c.002-.264.071-.463.208-.597.145-.143.349-.213.612-.211l4.177.032c.207.002.362.055.465.159.103.105.154.253.153.444-.002.2-.055.355-.16.466-.104.103-.26.154-.468.152l-3.458-.027-.019 2.382 3.208.025c.199.001.35.054.453.159.111.104.166.252.165.444-.002.199-.059.354-.172.465-.104.103-.256.154-.456.152l-3.207-.024-.022 2.896c-.004.543-.254.812-.748.808z" fill="#fff"/></g></g><defs><clipPath id="clip0_7488_193495"><path fill="#fff" transform="translate(.84)" d="M0 0h600.04v898.6H0z"/></clipPath><clipPath id="clip1_7488_193495"><path fill="#fff" transform="translate(177.84 286)" d="M0 0h230.69v326H0z"/></clipPath></defs></svg>