<svg width="80" height="80" viewBox="0 0 80 80" fill="none" xmlns="http://www.w3.org/2000/svg">
<g id="trash-03">
<g id="Solid">
<path d="M26.666 10.0013C26.666 8.16035 28.1584 6.66797 29.9993 6.66797H49.9993C51.8403 6.66797 53.3327 8.16035 53.3327 10.0013C53.3327 11.8423 51.8403 13.3346 49.9993 13.3346H29.9993C28.1584 13.3346 26.666 11.8423 26.666 10.0013Z" fill="#ED1B2E"/>
<path fill-rule="evenodd" clip-rule="evenodd" d="M6.66602 20.0013C6.66602 18.1604 8.1584 16.668 9.99935 16.668H69.9993C71.8403 16.668 73.3327 18.1604 73.3327 20.0013C73.3327 21.8423 71.8403 23.3346 69.9993 23.3346H66.4513L64.3123 55.4196C64.1445 57.9377 64.0056 60.0215 63.7565 61.7177C63.4972 63.4837 63.086 65.0975 62.2291 66.6014C60.8953 68.9427 58.8835 70.8249 56.4587 72C54.901 72.7549 53.2635 73.0579 51.4841 73.1992C49.7752 73.3348 47.6867 73.3348 45.163 73.3348H34.8359C32.3122 73.3348 30.2237 73.3348 28.5148 73.1992C26.7354 73.0579 25.0979 72.7549 23.5402 72C21.1154 70.8249 19.1036 68.9427 17.7698 66.6014C16.9129 65.0975 16.5016 63.4837 16.2424 61.7177C15.9933 60.0215 15.8544 57.9377 15.6866 55.4195L13.5476 23.3346H9.99935C8.1584 23.3346 6.66602 21.8423 6.66602 20.0013ZM33.3327 31.668C35.1736 31.668 36.666 33.1604 36.666 35.0013V51.668C36.666 53.5089 35.1736 55.0013 33.3327 55.0013C31.4917 55.0013 29.9993 53.5089 29.9993 51.668V35.0013C29.9993 33.1604 31.4917 31.668 33.3327 31.668ZM49.9993 35.0013C49.9993 33.1604 48.507 31.668 46.666 31.668C44.8251 31.668 43.3327 33.1604 43.3327 35.0013V51.668C43.3327 53.5089 44.8251 55.0013 46.666 55.0013C48.507 55.0013 49.9993 53.5089 49.9993 51.668V35.0013Z" fill="#ED1B2E"/>
</g>
</g>
</svg>
