<svg width="27" height="27" viewBox="0 0 27 27" fill="none" xmlns="http://www.w3.org/2000/svg"><path d="M13.499 8.888a4.612 4.612 0 1 0 4.612 4.613A4.603 4.603 0 0 0 13.5 8.888zm0 7.617a3.003 3.003 0 1 1 0-6.007 3.003 3.003 0 0 1 0 6.007zm5.883-7.808a1.125 1.125 0 1 1-2.25 0 1.125 1.125 0 0 1 2.25 0zm3.05 1.125a5.298 5.298 0 0 0-1.452-3.769 5.299 5.299 0 0 0-3.769-1.485c-1.462-.067-5.962-.067-7.425 0A5.321 5.321 0 0 0 6.018 6.02a5.299 5.299 0 0 0-1.452 3.77c-.067 1.462-.067 5.962 0 7.424a5.299 5.299 0 0 0 1.452 3.769 5.321 5.321 0 0 0 3.768 1.451c1.485.09 5.94.09 7.425 0a5.3 5.3 0 0 0 3.769-1.451 5.299 5.299 0 0 0 1.451-3.769c.068-1.462.068-5.962 0-7.425v.034zm-1.913 9a3.038 3.038 0 0 1-1.71 1.71 20.255 20.255 0 0 1-5.31.36 20.153 20.153 0 0 1-5.299-.36 3.04 3.04 0 0 1-1.71-1.71c-.473-1.192-.371-4.005-.371-5.31 0-1.305-.101-4.129.371-5.31A2.981 2.981 0 0 1 8.2 6.48a20.15 20.15 0 0 1 5.299-.36 20.25 20.25 0 0 1 5.31.36 3.038 3.038 0 0 1 1.71 1.71c.472 1.192.36 4.005.36 5.31 0 1.305.112 4.129-.36 5.31v.011z" fill="#000"/></svg>