<svg width="125" height="18" viewBox="0 0 125 18" fill="none" xmlns="http://www.w3.org/2000/svg">
<path d="M51.4277 0H39.6838C38.684 0 37.6527 0.813512 37.3843 1.81328L36.0271 6.87788L34.9438 10.9208L33.5331 16.1867C33.2647 17.1865 33.8604 18 34.8602 18H46.6055C47.6053 18 48.6365 17.1865 48.905 16.1867L50.9114 8.70075V8.69664L52.7561 1.81192C53.0232 0.813514 52.4274 0 51.4277 0ZM46.4617 14.7774C46.4283 14.889 46.3614 14.9875 46.2699 15.0596C46.1785 15.1316 46.0671 15.1737 45.9508 15.1801H37.0268C36.9774 15.1826 36.9282 15.1727 36.8835 15.1515C36.8389 15.1302 36.8002 15.0981 36.771 15.0582C36.7418 15.0183 36.723 14.9717 36.7162 14.9227C36.7095 14.8737 36.7151 14.8238 36.7324 14.7774L37.765 10.9222L39.3345 5.06597L39.8276 3.22392C39.8609 3.11239 39.9279 3.01386 40.0193 2.9418C40.1107 2.86974 40.2222 2.82765 40.3384 2.82127H49.2624C49.3118 2.81879 49.3611 2.82864 49.4057 2.84991C49.4504 2.87119 49.4891 2.90324 49.5183 2.94317C49.5475 2.9831 49.5663 3.02966 49.573 3.07867C49.5798 3.12768 49.5742 3.17759 49.5569 3.22392L48.2832 7.97626L47.204 8.73773C46.9972 8.88291 46.9342 9.11984 47.0629 9.26638L47.734 10.0265L47.7093 10.1155C47.7107 10.1169 46.7835 13.5791 46.4617 14.7774Z" fill="#2D5883"/>
<path d="M47.1935 5.97942L45.172 3.68953C45.0433 3.54299 44.8913 3.60599 44.831 3.82786L44.5612 4.83311H41.6084C41.4922 4.83948 41.3808 4.88157 41.2893 4.95363C41.1979 5.0257 41.1309 5.12422 41.0976 5.23575L40.558 7.25036C40.5407 7.29669 40.5351 7.34661 40.5418 7.39562C40.5486 7.44463 40.5674 7.49119 40.5966 7.53112C40.6258 7.57105 40.6645 7.6031 40.7091 7.62437C40.7538 7.64565 40.803 7.65549 40.8524 7.65301H43.8052L43.5354 8.65826C43.4751 8.88013 43.5957 8.94313 43.8025 8.79659L47.051 6.5067C47.2592 6.36152 47.3222 6.12459 47.1935 5.97942Z" fill="#2D5883"/>
<path d="M45.4377 10.3487H42.4849L42.7547 9.34348C42.815 9.12161 42.6945 9.05861 42.4877 9.20516L39.2391 11.495C39.0323 11.6402 38.9693 11.8772 39.098 12.0237L41.1195 14.3136C41.2482 14.4601 41.4002 14.3971 41.4605 14.1753L41.7303 13.17H44.683C44.7993 13.1636 44.9107 13.1215 45.0022 13.0495C45.0936 12.9774 45.1605 12.8789 45.1939 12.7674L45.7335 10.7528C45.7507 10.7062 45.756 10.6562 45.7492 10.6071C45.7423 10.558 45.7234 10.5113 45.6941 10.4713C45.6648 10.4313 45.626 10.3992 45.5813 10.3778C45.5365 10.3564 45.4872 10.3464 45.4377 10.3487Z" fill="#2D5883"/>
<path d="M65.603 7.08534V7.11822C66.863 7.33735 67.9386 8.17733 67.9386 9.97601C67.9386 12.5307 66.3079 13.5222 63.8208 13.5222H57.8203V1.50488H63.6528C66.1563 1.50488 67.4674 2.48 67.4674 4.53068C67.4674 6.00979 66.5946 6.74935 65.603 7.08534ZM62.9297 6.36222C63.7696 6.36222 64.4416 6.16136 64.4416 5.1698C64.4416 4.17825 63.7696 3.97738 62.9297 3.97738H60.8461V6.36405H62.9297V6.36222ZM60.8461 11.0516H63.0136C64.2736 11.0516 64.9128 10.7484 64.9128 9.62358C64.9128 8.49872 64.2736 8.21203 63.0136 8.21203H60.8461V11.0516Z" fill="#3C3C3B"/>
<path d="M72.9134 6.49531C71.9383 6.49531 71.469 6.86601 71.3832 7.68774H68.8614C68.9454 6.04062 70.1214 4.64551 72.928 4.64551C75.3476 4.64551 76.6934 5.58593 76.6934 8.29216V12.2419C76.6934 12.6948 76.8614 12.8811 77.1974 12.8811V13.5202C76.6977 13.7065 76.1675 13.7975 75.6343 13.7886C74.4236 13.7886 74.0876 13.2171 74.0876 12.6126H74.0547C73.7094 12.9851 73.2906 13.2818 72.8248 13.4842C72.3591 13.6867 71.8564 13.7903 71.3485 13.7886C69.5334 13.7886 68.5254 12.7642 68.5254 11.318C68.5254 9.60328 69.7854 8.81442 71.8032 8.41086C72.9116 8.19173 74.0054 8.02373 74.0054 7.30061C74.0054 6.79844 73.653 6.49531 72.9134 6.49531ZM74.0054 10.3794V9.33667C73.5573 9.5036 73.0962 9.63308 72.6267 9.7238C71.5676 9.95936 71.2152 10.3958 71.2152 10.9345C71.2152 11.6412 71.6352 11.9425 72.2907 11.9425C73.4521 11.9425 74.0054 11.2029 74.0054 10.3794Z" fill="#3C3C3B"/>
<path d="M86.5605 7.70612V13.5203H83.8707V8.56255C83.8707 7.26787 83.4178 6.83144 82.5267 6.83144C81.5023 6.83144 80.9125 7.35186 80.9125 8.54611V13.5203H78.2227V4.91589H80.9125V6.15944H80.9453C81.3982 5.36876 82.24 4.64746 83.7684 4.64746C85.4338 4.64746 86.5605 5.73945 86.5605 7.70612Z" fill="#3C3C3B"/>
<path d="M90.4925 1.50475V7.82477L93.0143 4.91767H96.2246L93.1823 8.14251L96.577 13.5203H93.3832L91.349 10.0909L90.4925 10.982V13.5203H87.8027V1.50293H90.4925V1.50475Z" fill="#3C3C3B"/>
<path d="M97.3848 1.50488H103.217C105.721 1.50488 107.284 2.816 107.284 5.33597C107.284 7.85595 105.721 9.16706 103.217 9.16706H100.411V13.5204H97.3848V1.50488ZM100.411 6.69822H102.578C103.621 6.69822 104.258 6.34579 104.258 5.3378C104.258 4.32981 103.619 3.97555 102.578 3.97555H100.411V6.69822Z" fill="#3C3C3B"/>
<path d="M111.738 6.49531C110.763 6.49531 110.293 6.86601 110.207 7.68774H107.686C107.77 6.04062 108.946 4.64551 111.752 4.64551C114.172 4.64551 115.518 5.58593 115.518 8.29216V12.2419C115.518 12.6948 115.686 12.8811 116.022 12.8811V13.5202C115.522 13.7065 114.992 13.7975 114.458 13.7886C113.248 13.7886 112.912 13.2171 112.912 12.6126H112.879C112.534 12.9851 112.115 13.2819 111.649 13.4843C111.183 13.6867 110.681 13.7903 110.173 13.7886C108.358 13.7886 107.35 12.7642 107.35 11.318C107.35 9.60328 108.61 8.81442 110.627 8.41086C111.736 8.19173 112.83 8.02373 112.83 7.30061C112.83 6.79844 112.477 6.49531 111.738 6.49531ZM112.83 10.3794V9.33667C112.382 9.5036 111.92 9.63308 111.451 9.7238C110.392 9.95936 110.039 10.3958 110.039 10.9345C110.039 11.6412 110.459 11.9425 111.115 11.9425C112.275 11.9425 112.83 11.2029 112.83 10.3794Z" fill="#3C3C3B"/>
<path d="M122.072 13.6905C121.332 15.8928 120.525 16.4972 118.71 16.4972C118.207 16.4935 117.706 16.4372 117.215 16.3292V14.3132H117.249C117.989 14.4812 118.593 14.3972 118.88 13.9608C119.132 13.5737 119.081 13.0368 118.813 12.2808L116.006 4.91992H118.696L120.646 10.5661H120.679L122.309 4.91992H124.999L122.072 13.6905Z" fill="#3C3C3B"/>
</svg>
