<svg width="40" height="40" viewBox="0 0 40 40" fill="none" xmlns="http://www.w3.org/2000/svg">
<rect width="40" height="40" rx="20" fill="#030F1A"/>
<path d="M28.3425 29H11.5753C11.2466 29 11 28.7513 11 28.4198V28.3369C11.0822 28.0053 11.0822 27.6737 11.1644 27.3422C11.3288 26.3475 12.1507 25.5185 13.137 25.2699C13.7914 25.0719 14.4978 24.8213 15.1735 24.6019C15.5129 24.4917 15.809 24.3758 16.1302 24.2203C16.5149 24.0341 16.9585 23.8532 17.2583 23.5484C17.8532 22.9435 18.1428 22.0433 18.0222 21.1651C18.0033 21.0278 17.9505 20.872 17.8966 20.7442C17.8543 20.6439 17.7916 20.5822 17.7319 20.4912C17.4749 20.1 17.2368 19.7278 16.9806 19.3374C16.5765 18.7215 15.7873 18.5279 15.609 17.8132C15.5609 17.62 15.5218 17.2944 15.4956 17.097C15.4824 16.9978 15.4666 16.896 15.455 16.7983C15.4367 16.6452 15.3966 16.4633 15.3811 16.3098C15.3188 15.6917 15.8689 15.1532 15.8979 14.5326C15.8999 14.4893 15.9031 14.4462 15.9077 14.4032C15.9189 14.2975 15.9302 14.1916 15.9353 14.0854C16.003 12.665 16.971 11.4979 18.3973 11.1782C18.8082 11.0953 19.2192 11.0124 19.6301 11.0124C20.1929 10.9746 20.7556 11.0231 21.2949 11.158C22.5817 11.4798 23.7865 12.4614 23.8953 13.7834C23.9011 13.8543 23.9041 13.9254 23.9041 13.9965C23.9041 14.0667 23.9041 14.1369 23.9041 14.207C23.9041 14.966 24.5129 15.7565 24.4178 16.5094C24.4067 16.597 24.3818 16.6909 24.3628 16.7771C24.3237 16.9546 24.3084 17.1559 24.2706 17.3347C24.2503 17.4313 24.2206 17.5572 24.1993 17.6535C24.0546 18.3089 23.3674 18.7451 22.9963 19.3044C22.7056 19.7424 22.4268 20.1437 22.1781 20.545C21.6849 21.6226 21.9315 22.866 22.8356 23.612C23.0217 23.7996 23.304 23.911 23.5391 24.0316C23.836 24.1838 24.2144 24.3902 24.3151 24.4409C25.137 24.7725 26.0411 25.0212 26.863 25.2699C27.8493 25.5185 28.589 26.3475 28.8356 27.3422C28.8473 27.3893 28.859 27.4364 28.8704 27.4837C29.0182 28.0954 28.9717 29 28.3425 29Z" fill="white"/>
</svg>
