<svg width="16" height="16" viewBox="0 0 16 16" fill="none" xmlns="http://www.w3.org/2000/svg">
<path fill-rule="evenodd" clip-rule="evenodd" d="M4.66667 6.66683C4.66667 6.29864 4.96514 6.00016 5.33333 6.00016H14C14.3682 6.00016 14.6667 6.29864 14.6667 6.66683C14.6667 7.03502 14.3682 7.3335 14 7.3335H5.33333C4.96514 7.3335 4.66667 7.03502 4.66667 6.66683Z" fill="#030F1A"/>
<path fill-rule="evenodd" clip-rule="evenodd" d="M2 4.00016C2 3.63197 2.29848 3.3335 2.66667 3.3335H14C14.3682 3.3335 14.6667 3.63197 14.6667 4.00016C14.6667 4.36835 14.3682 4.66683 14 4.66683H2.66667C2.29848 4.66683 2 4.36835 2 4.00016Z" fill="#030F1A"/>
<path fill-rule="evenodd" clip-rule="evenodd" d="M2 9.3335C2 8.96531 2.29848 8.66683 2.66667 8.66683H14C14.3682 8.66683 14.6667 8.96531 14.6667 9.3335C14.6667 9.70169 14.3682 10.0002 14 10.0002H2.66667C2.29848 10.0002 2 9.70169 2 9.3335Z" fill="#030F1A"/>
<path fill-rule="evenodd" clip-rule="evenodd" d="M4.66667 12.0002C4.66667 11.632 4.96514 11.3335 5.33333 11.3335H14C14.3682 11.3335 14.6667 11.632 14.6667 12.0002C14.6667 12.3684 14.3682 12.6668 14 12.6668H5.33333C4.96514 12.6668 4.66667 12.3684 4.66667 12.0002Z" fill="#030F1A"/>
</svg>
