<svg width="16" height="16" viewBox="0 0 16 16" fill="none" xmlns="http://www.w3.org/2000/svg">
<path fill-rule="evenodd" clip-rule="evenodd" d="M1.33325 6.66683C1.33325 6.29864 1.63173 6.00016 1.99992 6.00016H10.6666C11.0348 6.00016 11.3333 6.29864 11.3333 6.66683C11.3333 7.03502 11.0348 7.3335 10.6666 7.3335H1.99992C1.63173 7.3335 1.33325 7.03502 1.33325 6.66683Z" fill="#030F1A"/>
<path fill-rule="evenodd" clip-rule="evenodd" d="M1.33325 4.00016C1.33325 3.63197 1.63173 3.3335 1.99992 3.3335H13.3333C13.7014 3.3335 13.9999 3.63197 13.9999 4.00016C13.9999 4.36835 13.7014 4.66683 13.3333 4.66683H1.99992C1.63173 4.66683 1.33325 4.36835 1.33325 4.00016Z" fill="#030F1A"/>
<path fill-rule="evenodd" clip-rule="evenodd" d="M1.33325 9.3335C1.33325 8.96531 1.63173 8.66683 1.99992 8.66683H13.3333C13.7014 8.66683 13.9999 8.96531 13.9999 9.3335C13.9999 9.70169 13.7014 10.0002 13.3333 10.0002H1.99992C1.63173 10.0002 1.33325 9.70169 1.33325 9.3335Z" fill="#030F1A"/>
<path fill-rule="evenodd" clip-rule="evenodd" d="M1.33325 12.0002C1.33325 11.632 1.63173 11.3335 1.99992 11.3335H10.6666C11.0348 11.3335 11.3333 11.632 11.3333 12.0002C11.3333 12.3684 11.0348 12.6668 10.6666 12.6668H1.99992C1.63173 12.6668 1.33325 12.3684 1.33325 12.0002Z" fill="#030F1A"/>
</svg>
