<svg width="16" height="16" viewBox="0 0 16 16" fill="none" xmlns="http://www.w3.org/2000/svg">
<path d="M1.99992 3.3335C1.63173 3.3335 1.33325 3.63197 1.33325 4.00016C1.33325 4.36835 1.63173 4.66683 1.99992 4.66683H13.9999C14.3681 4.66683 14.6666 4.36835 14.6666 4.00016C14.6666 3.63197 14.3681 3.3335 13.9999 3.3335H1.99992Z" fill="#030F1A"/>
<path d="M3.99992 6.00016C3.63173 6.00016 3.33325 6.29864 3.33325 6.66683C3.33325 7.03502 3.63173 7.3335 3.99992 7.3335H11.9999C12.3681 7.3335 12.6666 7.03502 12.6666 6.66683C12.6666 6.29864 12.3681 6.00016 11.9999 6.00016H3.99992Z" fill="#030F1A"/>
<path d="M1.33325 9.3335C1.33325 8.96531 1.63173 8.66683 1.99992 8.66683H13.9999C14.3681 8.66683 14.6666 8.96531 14.6666 9.3335C14.6666 9.70169 14.3681 10.0002 13.9999 10.0002H1.99992C1.63173 10.0002 1.33325 9.70169 1.33325 9.3335Z" fill="#030F1A"/>
<path d="M3.99992 11.3335C3.63173 11.3335 3.33325 11.632 3.33325 12.0002C3.33325 12.3684 3.63173 12.6668 3.99992 12.6668H11.9999C12.3681 12.6668 12.6666 12.3684 12.6666 12.0002C12.6666 11.632 12.3681 11.3335 11.9999 11.3335H3.99992Z" fill="#030F1A"/>
</svg>
