<svg width="34" height="29" viewBox="0 0 34 29" fill="none" xmlns="http://www.w3.org/2000/svg">
<path d="M3.76854 28.8332C2.94437 28.8332 2.25638 28.5573 1.70454 28.0054C1.15151 27.4524 0.875 26.7638 0.875 25.9396V8.43505C0.875 7.61088 1.15151 6.92288 1.70454 6.37105C2.25638 5.81802 2.94437 5.5415 3.76854 5.5415H11.625V3.06005C11.625 2.23588 11.9015 1.54788 12.4545 0.996045C13.0064 0.443017 13.6938 0.166504 14.5168 0.166504H19.4797C20.3038 0.166504 20.9924 0.443017 21.5455 0.996045C22.0973 1.54788 22.3732 2.23588 22.3732 3.06005V5.5415H30.2297C31.0538 5.5415 31.7418 5.81802 32.2937 6.37105C32.8467 6.92288 33.1232 7.61088 33.1232 8.43505V25.9396C33.1232 26.7638 32.8473 27.4518 32.2955 28.0036C31.7424 28.5567 31.0538 28.8332 30.2297 28.8332H3.76854ZM13.4167 5.5415H20.5833V3.06005C20.5833 2.78532 20.4687 2.5327 20.2393 2.30217C20.0088 2.07284 19.7562 1.95817 19.4815 1.95817H14.5185C14.2438 1.95817 13.9912 2.07284 13.7607 2.30217C13.5313 2.5327 13.4167 2.78532 13.4167 3.06005V5.5415ZM31.3333 18.979H20.5833V21.6665H13.4167V18.979H2.66667V25.9396C2.66667 26.2144 2.78133 26.467 3.01067 26.6975C3.24119 26.9268 3.49382 27.0415 3.76854 27.0415H30.2315C30.5062 27.0415 30.7588 26.9268 30.9893 26.6975C31.2187 26.467 31.3333 26.2144 31.3333 25.9396V18.979ZM15.2083 19.8748H18.7917V16.2915H15.2083V19.8748ZM2.66667 17.1873H13.4167V14.4998H20.5833V17.1873H31.3333V8.43505C31.3333 8.16032 31.2187 7.9077 30.9893 7.67717C30.7588 7.44784 30.5062 7.33317 30.2315 7.33317H3.76854C3.49382 7.33317 3.24119 7.44784 3.01067 7.67717C2.78133 7.9077 2.66667 8.16032 2.66667 8.43505V17.1873Z" fill="#01C7B1"/>
</svg>
