<svg width="102" height="101" viewBox="0 0 102 101" fill="none" xmlns="http://www.w3.org/2000/svg">
<rect x="1" y="0.5" width="100" height="100" rx="50" fill="#F2F2F2"/>
<path fill-rule="evenodd" clip-rule="evenodd" d="M30.5317 65.8899C35.8045 60.2975 43.0154 56.8125 51.0002 56.8125C58.985 56.8125 66.196 60.2975 71.4687 65.8899C72.0448 66.501 72.2024 67.396 71.8697 68.1671C71.5369 68.9382 70.7775 69.4375 69.9377 69.4375H32.0627C31.2229 69.4375 30.4635 68.9382 30.1308 68.1671C29.798 67.396 29.9556 66.501 30.5317 65.8899Z" fill="#01C7B1"/>
<path fill-rule="evenodd" clip-rule="evenodd" d="M39.4273 41.0313C39.4273 34.6397 44.6087 29.4584 51.0002 29.4584C57.3918 29.4584 62.5731 34.6397 62.5731 41.0313C62.5731 47.4228 57.3918 52.6042 51.0002 52.6042C44.6087 52.6042 39.4273 47.4228 39.4273 41.0313Z" fill="#01C7B1"/>
<rect x="1" y="0.5" width="100" height="100" rx="50" stroke="#01C7B1"/>
</svg>
