<svg width="39" height="39" viewBox="0 0 39 39" fill="none" xmlns="http://www.w3.org/2000/svg">
<rect width="39" height="39" rx="19.5" fill="white"/>
<path d="M23.8383 11H18.2745C17.8009 11 17.3123 11.3854 17.1851 11.8591L16.5421 14.2585L16.0289 16.1738L15.3606 18.6686C15.2334 19.1423 15.5156 19.5277 15.9893 19.5277H21.5538C22.0274 19.5277 22.516 19.1423 22.6432 18.6686L23.5937 15.1221V15.1201L24.4677 11.8584C24.5942 11.3854 24.312 11 23.8383 11ZM21.4856 18.001C21.4698 18.0538 21.4381 18.1005 21.3948 18.1346C21.3515 18.1688 21.2987 18.1887 21.2436 18.1917H17.0158C16.9924 18.1929 16.969 18.1883 16.9479 18.1782C16.9267 18.1681 16.9084 18.1529 16.8946 18.134C16.8807 18.1151 16.8718 18.093 16.8686 18.0698C16.8654 18.0466 16.8681 18.0229 16.8763 18.001L17.3655 16.1745L18.1091 13.4001L18.3426 12.5274C18.3584 12.4745 18.3902 12.4279 18.4335 12.3937C18.4768 12.3596 18.5296 12.3396 18.5847 12.3366H22.8125C22.8359 12.3354 22.8592 12.3401 22.8804 12.3502C22.9016 12.3603 22.9199 12.3754 22.9337 12.3944C22.9475 12.4133 22.9565 12.4353 22.9597 12.4586C22.9628 12.4818 22.9602 12.5054 22.952 12.5274L22.3486 14.7788L21.8373 15.1396C21.7393 15.2084 21.7095 15.3206 21.7705 15.39L22.0884 15.7502L22.0767 15.7923C22.0774 15.793 21.6381 17.4332 21.4856 18.001Z" fill="#2D5883"/>
<path d="M21.8323 13.8323L20.8746 12.7475C20.8136 12.678 20.7416 12.7079 20.713 12.813L20.5852 13.2893H19.1863C19.1312 13.2923 19.0785 13.3122 19.0351 13.3464C18.9918 13.3805 18.9601 13.4272 18.9443 13.48L18.6887 14.4345C18.6804 14.4564 18.6778 14.4801 18.681 14.5033C18.6842 14.5265 18.6931 14.5485 18.7069 14.5675C18.7208 14.5864 18.7391 14.6016 18.7603 14.6116C18.7814 14.6217 18.8047 14.6264 18.8282 14.6252H20.2271L20.0992 15.1015C20.0707 15.2066 20.1278 15.2364 20.2258 15.167L21.7648 14.0821C21.8634 14.0134 21.8933 13.9011 21.8323 13.8323Z" fill="#2D5883"/>
<path d="M21 15.9023H19.6011L19.7289 15.426C19.7574 15.3209 19.7003 15.2911 19.6024 15.3605L18.0633 16.4454C17.9653 16.5141 17.9355 16.6264 17.9965 16.6958L18.9542 17.7807C19.0152 17.8501 19.0872 17.8203 19.1157 17.7151L19.2435 17.2389H20.6424C20.6975 17.2359 20.7503 17.2159 20.7936 17.1818C20.8369 17.1477 20.8687 17.101 20.8845 17.0481L21.1401 16.0937C21.1482 16.0717 21.1508 16.0479 21.1475 16.0247C21.1443 16.0014 21.1353 15.9793 21.1214 15.9604C21.1075 15.9414 21.0892 15.9262 21.068 15.9161C21.0468 15.9059 21.0234 15.9012 21 15.9023Z" fill="#2D5883"/>
<path d="M7.68714 24.5403V24.5559C8.28407 24.6597 8.79363 25.0576 8.79363 25.9098C8.79363 27.1201 8.02108 27.5898 6.84278 27.5898H4V21.8965H6.76319C7.94927 21.8965 8.57043 22.3585 8.57043 23.33C8.57043 24.0307 8.1569 24.3811 7.68714 24.5403ZM6.42061 24.1977C6.81856 24.1977 7.13692 24.1025 7.13692 23.6328C7.13692 23.163 6.81856 23.0679 6.42061 23.0679H5.4335V24.1986H6.42061V24.1977ZM5.4335 26.4193H6.4604C7.05733 26.4193 7.36013 26.2757 7.36013 25.7428C7.36013 25.2099 7.05733 25.0741 6.4604 25.0741H5.4335V26.4193Z" fill="#3C3C3B"/>
<path d="M11.1511 24.2606C10.6892 24.2606 10.4668 24.4363 10.4262 24.8256H9.23145C9.27124 24.0452 9.82838 23.3843 11.1581 23.3843C12.3044 23.3843 12.9419 23.8298 12.9419 25.1119V26.9832C12.9419 27.1977 13.0215 27.286 13.1807 27.286V27.5888C12.944 27.677 12.6928 27.7201 12.4402 27.7159C11.8666 27.7159 11.7074 27.4451 11.7074 27.1588H11.6918C11.5283 27.3352 11.3299 27.4758 11.1092 27.5717C10.8885 27.6676 10.6503 27.7167 10.4097 27.7159C9.54981 27.7159 9.07227 27.2306 9.07227 26.5454C9.07227 25.7331 9.6692 25.3593 10.6252 25.1682C11.1503 25.0643 11.6685 24.9847 11.6685 24.6422C11.6685 24.4043 11.5015 24.2606 11.1511 24.2606ZM11.6685 26.1008V25.6068C11.4562 25.6859 11.2377 25.7472 11.0153 25.7902C10.5136 25.9018 10.3466 26.1085 10.3466 26.3637C10.3466 26.6986 10.5456 26.8413 10.8561 26.8413C11.4064 26.8413 11.6685 26.4909 11.6685 26.1008Z" fill="#3C3C3B"/>
<path d="M17.6162 24.8334V27.5879H16.3418V25.2391C16.3418 24.6257 16.1273 24.419 15.7051 24.419C15.2198 24.419 14.9403 24.6655 14.9403 25.2313V27.5879H13.666V23.5115H14.9403V24.1006H14.9559C15.1705 23.726 15.5693 23.3843 16.2934 23.3843C17.0824 23.3843 17.6162 23.9016 17.6162 24.8334Z" fill="#3C3C3B"/>
<path d="M19.4794 21.8973V24.8915L20.6741 23.5143H22.195L20.7537 25.0421L22.362 27.5898H20.8489L19.8851 25.9651L19.4794 26.3873V27.5898H18.2051V21.8965H19.4794V21.8973Z" fill="#3C3C3B"/>
<path d="M22.7441 21.8965H25.5073C26.6934 21.8965 27.434 22.5176 27.434 23.7115C27.434 24.9054 26.6934 25.5265 25.5073 25.5265H24.1776V27.589H22.7441V21.8965ZM24.1776 24.3569H25.2045C25.6985 24.3569 26.0004 24.1899 26.0004 23.7124C26.0004 23.2348 25.6977 23.067 25.2045 23.067H24.1776V24.3569Z" fill="#3C3C3B"/>
<path d="M29.5437 24.2606C29.0817 24.2606 28.8594 24.4363 28.8188 24.8256H27.624C27.6638 24.0452 28.221 23.3843 29.5506 23.3843C30.6969 23.3843 31.3345 23.8298 31.3345 25.1119V26.9832C31.3345 27.1977 31.4141 27.286 31.5733 27.286V27.5888C31.3366 27.677 31.0854 27.7201 30.8328 27.7159C30.2592 27.7159 30.1 27.4451 30.1 27.1588H30.0844C29.9208 27.3352 29.7224 27.4758 29.5018 27.5717C29.2811 27.6676 29.0429 27.7167 28.8023 27.7159C27.9424 27.7159 27.4648 27.2306 27.4648 26.5454C27.4648 25.7331 28.0618 25.3593 29.0177 25.1682C29.5429 25.0643 30.0611 24.9847 30.0611 24.6422C30.0611 24.4043 29.8941 24.2606 29.5437 24.2606ZM30.0611 26.1008V25.6068C29.8488 25.6859 29.6303 25.7472 29.4079 25.7902C28.9061 25.9018 28.7392 26.1085 28.7392 26.3637C28.7392 26.6986 28.9381 26.8413 29.2487 26.8413C29.7981 26.8413 30.0611 26.4909 30.0611 26.1008Z" fill="#3C3C3B"/>
<path d="M34.4403 27.6691C34.09 28.7124 33.7076 28.9988 32.8476 28.9988C32.6093 28.997 32.3719 28.9704 32.1391 28.9192V27.9641H32.1556C32.5059 28.0437 32.7923 28.0039 32.9281 27.7971C33.0475 27.6137 33.0233 27.3594 32.8961 27.0012L31.5664 23.5139H32.8407L33.7647 26.1889H33.7802L34.5528 23.5139H35.8271L34.4403 27.6691Z" fill="#3C3C3B"/>
</svg>
