<svg width="16" height="16" viewBox="0 0 16 16" fill="none" xmlns="http://www.w3.org/2000/svg">
<path fill-rule="evenodd" clip-rule="evenodd" d="M3.99992 2C3.63173 2 3.33325 2.29848 3.33325 2.66667V13.3333C3.33325 13.7015 3.63173 14 3.99992 14H9.99992C11.8409 14 13.3333 12.5076 13.3333 10.6667C13.3333 9.4153 12.6437 8.32499 11.6238 7.75497C12.266 7.14738 12.6666 6.28714 12.6666 5.33333C12.6666 3.49238 11.1742 2 9.33325 2H3.99992ZM9.33325 7.33333C10.4378 7.33333 11.3333 6.4379 11.3333 5.33333C11.3333 4.22876 10.4378 3.33333 9.33325 3.33333H4.66659V7.33333H9.33325ZM4.66659 8.66667V12.6667H9.99992C11.1045 12.6667 11.9999 11.7712 11.9999 10.6667C11.9999 9.5621 11.1045 8.66667 9.99992 8.66667H4.66659Z" fill="#030F1A"/>
</svg>
