<svg width="41" height="40" viewBox="0 0 41 40" fill="none" xmlns="http://www.w3.org/2000/svg">
<g clip-path="url(#clip0_329_7805)">
<path d="M40.4448 21.5H33.3002C27.0593 21.5 22.0002 26.5592 22.0002 32.8V39.9446C31.8501 39.2142 39.7144 31.3499 40.4448 21.5Z" fill="#775732"/>
<path d="M19.0003 39.9446V32.8C19.0003 26.5592 13.9411 21.5 7.70026 21.5H0.555664C1.286 31.3499 9.15036 39.2142 19.0003 39.9446Z" fill="#775732"/>
<path d="M40.4448 18.4998C39.7144 8.64987 31.8501 0.78551 22.0002 0.0551758V7.19977C22.0002 13.4406 27.0593 18.4998 33.3002 18.4998H40.4448Z" fill="#775732"/>
<path d="M19.0003 0.0551758C9.15036 0.78551 1.286 8.64987 0.555664 18.4998H7.70026C13.9411 18.4998 19.0003 13.4406 19.0003 7.19977V0.0551758Z" fill="#775732"/>
<path d="M14.083 19.9998C16.8555 18.6145 19.115 16.355 20.5002 13.5825C21.8855 16.355 24.1449 18.6145 26.9175 19.9998C24.1449 21.385 21.8855 23.6445 20.5002 26.417C19.115 23.6445 16.8555 21.385 14.083 19.9998Z" fill="#CA9352"/>
</g>
<defs>
<clipPath id="clip0_329_7805">
<rect width="40" height="40" fill="white" transform="translate(0.5)"/>
</clipPath>
</defs>
</svg>
