<svg width="28" height="27" viewBox="0 0 28 27" fill="none" xmlns="http://www.w3.org/2000/svg">
<path fill-rule="evenodd" clip-rule="evenodd" d="M9.69715 0.250005C9.5594 0.249971 9.43956 0.249942 9.3252 0.256868C7.87916 0.344445 6.61289 1.25712 6.07253 2.60126C6.0298 2.70756 5.99193 2.82126 5.9484 2.95194L5.82731 3.31522C5.691 3.72417 5.30829 4.00001 4.87722 4.00001C2.32168 4.00001 0.250001 6.07169 0.250001 8.62723V19.3016C0.249985 20.3078 0.249972 21.1383 0.305244 21.8148C0.36265 22.5174 0.485856 23.1633 0.794969 23.77C1.27434 24.7108 2.03924 25.4757 2.98005 25.955C3.58672 26.2642 4.2326 26.3874 4.93522 26.4448C5.61171 26.5 6.44215 26.5 7.44835 26.5H20.5517C21.5579 26.5 22.3883 26.5 23.0648 26.4448C23.7674 26.3874 24.4133 26.2642 25.02 25.955C25.9608 25.4757 26.7257 24.7108 27.205 23.77C27.5141 23.1633 27.6374 22.5174 27.6948 21.8148C27.75 21.1383 27.75 20.3079 27.75 19.3017V8.62723C27.75 6.07169 25.6783 4.00001 23.1228 4.00001C22.6917 4.00001 22.309 3.72417 22.1727 3.31522L22.0516 2.95185C22.0081 2.82122 21.9702 2.70752 21.9275 2.60126C21.3871 1.25712 20.1208 0.344445 18.6748 0.256868C18.5604 0.249942 18.4406 0.249971 18.3029 0.250005H9.69715ZM19.625 14C19.625 17.1066 17.1066 19.625 14 19.625C10.8934 19.625 8.375 17.1066 8.375 14C8.375 10.8934 10.8934 8.375 14 8.375C17.1066 8.375 19.625 10.8934 19.625 14Z" fill="#9CABB8"/>
</svg>
