<svg width="30" height="30" viewBox="0 0 30 30" fill="none" xmlns="http://www.w3.org/2000/svg">
<path d="M0 15C0 6.71573 6.71573 0 15 0C23.2843 0 30 6.71573 30 15C30 23.2843 23.2843 30 15 30C6.71573 30 0 23.2843 0 15Z" fill="#007AFF"/>
<g clip-path="url(#clip0_2492_62346)">
<path d="M7.91699 11.9555C7.91699 10.8986 8.77381 10.0417 9.83075 10.0417C10.3799 10.0417 10.8675 9.69034 11.0411 9.16936L11.1045 8.97925C11.1344 8.88959 11.1493 8.84477 11.1653 8.805C11.3694 8.29721 11.8478 7.95242 12.3941 7.91934C12.4369 7.91675 12.4841 7.91675 12.5786 7.91675H17.422C17.5165 7.91675 17.5638 7.91675 17.6066 7.91934C18.1528 7.95242 18.6312 8.29721 18.8353 8.805C18.8513 8.84477 18.8663 8.88959 18.8962 8.97925L18.9595 9.16936C19.1332 9.69034 19.6207 10.0417 20.1699 10.0417C21.2268 10.0417 22.0837 10.8986 22.0837 11.9555V17.9751C22.0837 19.1652 22.0837 19.7602 21.852 20.2148C21.6483 20.6147 21.3232 20.9397 20.9234 21.1435C20.4688 21.3751 19.8738 21.3751 18.6837 21.3751H11.317C10.1269 21.3751 9.53182 21.3751 9.07726 21.1435C8.67742 20.9397 8.35233 20.6147 8.1486 20.2148C7.91699 19.7602 7.91699 19.1652 7.91699 17.9751V11.9555Z" stroke="white" stroke-width="2" stroke-linecap="round" stroke-linejoin="round"/>
<path d="M15.0003 18.1876C16.7607 18.1876 18.1878 16.7605 18.1878 15.0001C18.1878 13.2397 16.7607 11.8126 15.0003 11.8126C13.2399 11.8126 11.8128 13.2397 11.8128 15.0001C11.8128 16.7605 13.2399 18.1876 15.0003 18.1876Z" stroke="white" stroke-width="2" stroke-linecap="round" stroke-linejoin="round"/>
</g>
<defs>
<clipPath id="clip0_2492_62346">
<rect width="17" height="17" fill="white" transform="translate(6.5 6.5)"/>
</clipPath>
</defs>
</svg>
