<svg width="30" height="30" viewBox="0 0 30 30" fill="none" xmlns="http://www.w3.org/2000/svg">
<path d="M0 15C0 6.71573 6.71573 0 15 0C23.2843 0 30 6.71573 30 15C30 23.2843 23.2843 30 15 30C6.71573 30 0 23.2843 0 15Z" fill="#00FFB1"/>
<g clip-path="url(#clip0_2400_39907)">
<path d="M7.91602 11.9555C7.91602 10.8986 8.77284 10.0417 9.82978 10.0417C10.3789 10.0417 10.8665 9.69034 11.0401 9.16936L11.1035 8.97925C11.1334 8.88959 11.1483 8.84477 11.1643 8.805C11.3685 8.29721 11.8468 7.95242 12.3931 7.91934C12.4359 7.91675 12.4832 7.91675 12.5777 7.91675H17.421C17.5155 7.91675 17.5628 7.91675 17.6056 7.91934C18.1519 7.95242 18.6302 8.29721 18.8344 8.805C18.8504 8.84477 18.8653 8.88959 18.8952 8.97925L18.9586 9.16936C19.1322 9.69034 19.6198 10.0417 20.1689 10.0417C21.2259 10.0417 22.0827 10.8986 22.0827 11.9555V17.9751C22.0827 19.1652 22.0827 19.7602 21.8511 20.2148C21.6473 20.6147 21.3223 20.9397 20.9224 21.1435C20.4678 21.3751 19.8728 21.3751 18.6827 21.3751H11.316C10.1259 21.3751 9.53085 21.3751 9.07629 21.1435C8.67644 20.9397 8.35136 20.6147 8.14763 20.2148C7.91602 19.7602 7.91602 19.1652 7.91602 17.9751V11.9555Z" stroke="#030F1A" stroke-width="2" stroke-linecap="round" stroke-linejoin="round"/>
<path d="M14.9993 18.1876C16.7598 18.1876 18.1868 16.7605 18.1868 15.0001C18.1868 13.2397 16.7598 11.8126 14.9993 11.8126C13.2389 11.8126 11.8118 13.2397 11.8118 15.0001C11.8118 16.7605 13.2389 18.1876 14.9993 18.1876Z" stroke="#030F1A" stroke-width="2" stroke-linecap="round" stroke-linejoin="round"/>
</g>
<defs>
<clipPath id="clip0_2400_39907">
<rect width="17" height="17" fill="white" transform="translate(6.5 6.5)"/>
</clipPath>
</defs>
</svg>
