<svg width="67" height="66" viewBox="0 0 67 66" fill="none" xmlns="http://www.w3.org/2000/svg">
<path fill-rule="evenodd" clip-rule="evenodd" d="M33.5 0C15.2746 0 0.5 14.7746 0.5 33C0.5 51.2254 15.2746 66 33.5 66C51.7254 66 66.5 51.2254 66.5 33C66.5 14.7746 51.7254 0 33.5 0ZM36.5 21C36.5 19.3431 35.1569 18 33.5 18C31.8431 18 30.5 19.3431 30.5 21V33C30.5 34.6569 31.8431 36 33.5 36C35.1569 36 36.5 34.6569 36.5 33V21ZM33.5 42C31.8431 42 30.5 43.3431 30.5 45C30.5 46.6569 31.8431 48 33.5 48H33.53C35.1869 48 36.53 46.6569 36.53 45C36.53 43.3431 35.1869 42 33.53 42H33.5Z" fill="#F7961C"/>
</svg>
