<svg width="12" height="12" viewBox="0 0 12 12" fill="none" xmlns="http://www.w3.org/2000/svg">
<path fill-rule="evenodd" clip-rule="evenodd" d="M6 0.5C2.96243 0.5 0.5 2.96243 0.5 6C0.5 9.03757 2.96243 11.5 6 11.5C9.03757 11.5 11.5 9.03757 11.5 6C11.5 2.96243 9.03757 0.5 6 0.5ZM8.60355 4.85355C8.79882 4.65829 8.79882 4.34171 8.60355 4.14645C8.40829 3.95118 8.09171 3.95118 7.89645 4.14645L5.25 6.79289L4.10355 5.64645C3.90829 5.45118 3.59171 5.45118 3.39645 5.64645C3.20118 5.84171 3.20118 6.15829 3.39645 6.35355L4.89645 7.85355C5.09171 8.04882 5.40829 8.04882 5.60355 7.85355L8.60355 4.85355Z" fill="#00CC8E"/>
</svg>
