<svg width="20" height="20" viewBox="0 0 20 20" fill="none" xmlns="http://www.w3.org/2000/svg">
<path d="M18.25 9.54169C18.2532 10.7516 17.9705 11.9451 17.425 13.025C16.7782 14.3191 15.7839 15.4076 14.5535 16.1685C13.3231 16.9295 11.9051 17.3328 10.4583 17.3334C9.24845 17.3365 8.05494 17.0538 6.975 16.5084L1.75 18.25L3.49167 13.025C2.94619 11.9451 2.66351 10.7516 2.66667 9.54169C2.66723 8.09497 3.07056 6.67697 3.83149 5.44653C4.59242 4.21609 5.6809 3.2218 6.975 2.57503C8.05494 2.02955 9.24845 1.74687 10.4583 1.75003H10.9167C12.8273 1.85544 14.632 2.66189 15.985 4.01498C17.3381 5.36807 18.1446 7.17271 18.25 9.08336V9.54169Z" stroke="#030F1A" stroke-width="2" stroke-linecap="round" stroke-linejoin="round"/>
</svg>
