<svg width="22" height="21" viewBox="0 0 22 21" fill="none" xmlns="http://www.w3.org/2000/svg">
<path d="M16.25 13.7812H17.5625V17.0625H16.25V13.7812ZM13.625 10.5H14.9375V17.0625H13.625V10.5ZM7.71875 17.0625C6.84883 17.0615 6.01483 16.7154 5.39971 16.1003C4.78458 15.4852 4.43854 14.6512 4.4375 13.7812H5.75C5.75 14.1706 5.86547 14.5513 6.08179 14.875C6.29812 15.1988 6.6056 15.4511 6.96534 15.6001C7.32508 15.7491 7.72093 15.7881 8.10283 15.7122C8.48473 15.6362 8.83553 15.4487 9.11087 15.1734C9.3862 14.898 9.57371 14.5472 9.64967 14.1653C9.72564 13.7834 9.68665 13.3876 9.53764 13.0278C9.38863 12.6681 9.13629 12.3606 8.81253 12.1443C8.48877 11.928 8.10813 11.8125 7.71875 11.8125V10.5C8.58899 10.5 9.42359 10.8457 10.0389 11.4611C10.6543 12.0764 11 12.911 11 13.7812C11 14.6515 10.6543 15.4861 10.0389 16.1014C9.42359 16.7168 8.58899 17.0625 7.71875 17.0625Z" fill="black"/>
<path d="M18.875 1.3125H3.125C2.77701 1.31285 2.44337 1.45124 2.19731 1.69731C1.95124 1.94337 1.81285 2.27701 1.8125 2.625V18.375C1.81285 18.723 1.95124 19.0566 2.19731 19.3027C2.44337 19.5488 2.77701 19.6872 3.125 19.6875H18.875C19.2229 19.687 19.5565 19.5485 19.8025 19.3025C20.0485 19.0565 20.187 18.7229 20.1875 18.375V2.625C20.1872 2.27701 20.0488 1.94337 19.8027 1.69731C19.5566 1.45124 19.223 1.31285 18.875 1.3125ZM18.875 7.21875H9.6875V2.625H18.875V7.21875ZM8.375 2.625V7.21875H3.125V2.625H8.375ZM3.125 18.375V8.53125H18.875L18.8763 18.375H3.125Z" fill="black"/>
</svg>
