<svg width="24" height="24" viewBox="0 0 24 24" fill="none" xmlns="http://www.w3.org/2000/svg">
<path d="M6.187 8H17.812L17.117 19.125C17.0852 19.6328 16.8611 20.1094 16.4902 20.4577C16.1194 20.8061 15.6298 21 15.121 21H8.879C8.37022 21 7.88058 20.8061 7.50975 20.4577C7.13893 20.1094 6.9148 19.6328 6.883 19.125L6.187 8ZM19 5V7H5V5H8V4C8 3.46957 8.21071 2.96086 8.58579 2.58579C8.96086 2.21071 9.46957 2 10 2H14C14.5304 2 15.0391 2.21071 15.4142 2.58579C15.7893 2.96086 16 3.46957 16 4V5H19ZM10 5H14V4H10V5Z" fill="#ED1B2E"/>
</svg>
