<svg width="20" height="18" viewBox="0 0 20 18" fill="none" xmlns="http://www.w3.org/2000/svg">
<path d="M10.8333 3.16667C10.8333 4.08714 8.78126 4.83333 6.24996 4.83333C3.71865 4.83333 1.66663 4.08714 1.66663 3.16667M10.8333 3.16667C10.8333 2.24619 8.78126 1.5 6.24996 1.5C3.71865 1.5 1.66663 2.24619 1.66663 3.16667M10.8333 3.16667V6.88096C9.81537 7.18665 9.16663 7.64911 9.16663 8.16667M1.66663 3.16667V13.1667C1.66663 14.0871 3.71865 14.8333 6.24996 14.8333C7.35798 14.8333 8.37418 14.6904 9.16663 14.4524V8.16667M1.66663 6.5C1.66663 7.42047 3.71865 8.16667 6.24996 8.16667C7.35798 8.16667 8.37418 8.02369 9.16663 7.78571M1.66663 9.83333C1.66663 10.7538 3.71865 11.5 6.24996 11.5C7.35798 11.5 8.37418 11.357 9.16663 11.119M18.3333 8.16667C18.3333 9.08714 16.2813 9.83333 13.75 9.83333C11.2187 9.83333 9.16663 9.08714 9.16663 8.16667M18.3333 8.16667C18.3333 7.24619 16.2813 6.5 13.75 6.5C11.2187 6.5 9.16663 7.24619 9.16663 8.16667M18.3333 8.16667V14.8333C18.3333 15.7538 16.2813 16.5 13.75 16.5C11.2187 16.5 9.16663 15.7538 9.16663 14.8333V8.16667M18.3333 11.5C18.3333 12.4205 16.2813 13.1667 13.75 13.1667C11.2187 13.1667 9.16663 12.4205 9.16663 11.5" stroke="#030F1A" stroke-width="2" stroke-linecap="round" stroke-linejoin="round"/>
</svg>
