<svg width="22" height="22" viewBox="0 0 22 22" fill="none" xmlns="http://www.w3.org/2000/svg">
<path d="M20.1665 20H12.1665M1.6665 20.5L7.21577 18.3657C7.57071 18.2291 7.74818 18.1609 7.91422 18.0718C8.06171 17.9926 8.2023 17.9012 8.33454 17.7986C8.48343 17.6831 8.61788 17.5486 8.88678 17.2797L20.1665 6C21.2711 4.89543 21.2711 3.10457 20.1665 2C19.062 0.895428 17.2711 0.895427 16.1665 1.99999L4.88679 13.2797C4.61788 13.5486 4.48343 13.6831 4.3679 13.832C4.26528 13.9642 4.17391 14.1048 4.09474 14.2523C4.00561 14.4183 3.93735 14.5958 3.80084 14.9507L1.6665 20.5ZM1.6665 20.5L3.72462 15.149C3.8719 14.766 3.94554 14.5746 4.07184 14.4869C4.18222 14.4102 4.31881 14.3813 4.4508 14.4065C4.60184 14.4353 4.74689 14.5804 5.03699 14.8705L7.29608 17.1295C7.58618 17.4196 7.73123 17.5647 7.76007 17.7157C7.78527 17.8477 7.75629 17.9843 7.67965 18.0947C7.59195 18.221 7.40049 18.2946 7.01757 18.4419L1.6665 20.5Z" stroke="#9CABB8" stroke-width="2" stroke-linecap="round" stroke-linejoin="round"/>
</svg>
