<svg width="20" height="20" viewBox="0 0 20 20" fill="none" xmlns="http://www.w3.org/2000/svg">
<path d="M9.41663 3.33344H5.91663C4.51649 3.33344 3.81643 3.33344 3.28165 3.60593C2.81124 3.84561 2.42879 4.22806 2.18911 4.69847C1.91663 5.23324 1.91663 5.93331 1.91663 7.33344V14.3334C1.91663 15.7336 1.91663 16.4336 2.18911 16.9684C2.42879 17.4388 2.81124 17.8213 3.28165 18.061C3.81643 18.3334 4.51649 18.3334 5.91663 18.3334H12.9166C14.3168 18.3334 15.0168 18.3334 15.5516 18.061C16.022 17.8213 16.4045 17.4388 16.6441 16.9684C16.9166 16.4336 16.9166 15.7336 16.9166 14.3334V10.8334M6.9166 13.3334H8.31206C8.71971 13.3334 8.92353 13.3334 9.11535 13.2874C9.28541 13.2466 9.44798 13.1792 9.5971 13.0878C9.7653 12.9848 9.90942 12.8406 10.1977 12.5524L18.1666 4.58344C18.857 3.89309 18.857 2.7738 18.1666 2.08344C17.4763 1.39309 16.357 1.39308 15.6666 2.08344L7.69765 10.0524C7.4094 10.3406 7.26527 10.4848 7.1622 10.653C7.07082 10.8021 7.00348 10.9647 6.96265 11.1347C6.9166 11.3265 6.9166 11.5304 6.9166 11.938V13.3334Z" stroke="#030F1A" stroke-width="2" stroke-linecap="round" stroke-linejoin="round"/>
</svg>
