<svg width="42" height="41" viewBox="0 0 42 41" fill="none" xmlns="http://www.w3.org/2000/svg">
<ellipse cx="21" cy="20.5" rx="21" ry="20" fill="#CCF3EF"/>
<path d="M20.3333 33.8337C18.2889 33.8337 16.5556 33.1225 15.1333 31.7003C13.7111 30.2781 13 28.5448 13 26.5003V12.5003C13 11.0337 13.5222 9.7781 14.5667 8.73366C15.6111 7.68921 16.8667 7.16699 18.3333 7.16699C19.8 7.16699 21.0556 7.68921 22.1 8.73366C23.1444 9.7781 23.6667 11.0337 23.6667 12.5003V23.167H21.6667V12.5003C21.6667 11.567 21.3444 10.7781 20.7 10.1337C20.0556 9.48921 19.2667 9.16699 18.3333 9.16699C17.4 9.16699 16.6111 9.48921 15.9667 10.1337C15.3222 10.7781 15 11.567 15 12.5003V26.5003C15 27.967 15.5222 29.2225 16.5667 30.267C17.6111 31.3114 18.8667 31.8337 20.3333 31.8337C20.9778 31.8337 21.5836 31.7279 22.1507 31.5163C22.7178 31.3048 23.2231 31.0105 23.6667 30.6337V33.0337C23.1556 33.2781 22.6222 33.4728 22.0667 33.6177C21.5111 33.7625 20.9333 33.8345 20.3333 33.8337ZM26.3333 32.5003V28.5003H22.3333V25.8337H26.3333V21.8337H29V25.8337H33V28.5003H29V32.5003H26.3333ZM20.3333 26.5003V28.5003C19.4 28.5003 18.6111 28.1781 17.9667 27.5337C17.3222 26.8892 17 26.1003 17 25.167V12.5003H19V25.167C19 25.5448 19.128 25.8617 19.384 26.1177C19.64 26.3737 19.9564 26.5012 20.3333 26.5003ZM25.6667 19.167V12.5003H27.6667V19.167H25.6667Z" fill="#00B27C"/>
</svg>
