<svg width="99" height="98" viewBox="0 0 99 98" fill="none" xmlns="http://www.w3.org/2000/svg">
<path d="M49.5 98C76.562 98 98.5 76.062 98.5 49C98.5 21.938 76.562 0 49.5 0C22.438 0 0.5 21.938 0.5 49C0.5 76.062 22.438 98 49.5 98Z" fill="#F2F2F2"/>
<g filter="url(#filter0_ddd_8_2564)">
<path d="M32.125 26C32.125 24.3431 33.4681 23 35.125 23L53.212 23C54.1069 23 54.955 23.3995 55.5249 24.0894L68.1879 39.4182C68.632 39.9559 68.875 40.6315 68.875 41.3289V68C68.875 69.6569 67.5319 71 65.875 71H35.125C33.4681 71 32.125 69.6569 32.125 68V26Z" fill="url(#paint0_linear_8_2564)"/>
<path d="M32.625 26C32.625 24.6193 33.7443 23.5 35.125 23.5H53.212C53.9577 23.5 54.6645 23.8329 55.1394 24.4078L67.8024 39.7367C68.1725 40.1847 68.375 40.7477 68.375 41.3289V68C68.375 69.3807 67.2557 70.5 65.875 70.5H35.125C33.7443 70.5 32.625 69.3807 32.625 68V26Z" stroke="#9CABB8"/>
</g>
<g filter="url(#filter1_d_8_2564)">
<path d="M61.375 31.1176L53.875 23V37.25C53.875 38.9069 55.2181 40.25 56.875 40.25H68.875L61.375 31.1176Z" fill="url(#paint1_linear_8_2564)"/>
<path d="M68.3462 40H56.875C55.3562 40 54.125 38.7688 54.125 37.25V23.639L61.1864 31.2819L68.3462 40Z" stroke="#9CABB8" stroke-width="0.5"/>
</g>
<rect x="39.625" y="53.75" width="21" height="3" rx="1.5" fill="#BCBBEE"/>
<rect x="44.125" y="47.75" width="12" height="3" rx="1.5" fill="#2E2E2E"/>
<defs>
<filter id="filter0_ddd_8_2564" x="26.125" y="20" width="48.75" height="60" filterUnits="userSpaceOnUse" color-interpolation-filters="sRGB">
<feFlood flood-opacity="0" result="BackgroundImageFix"/>
<feColorMatrix in="SourceAlpha" type="matrix" values="0 0 0 0 0 0 0 0 0 0 0 0 0 0 0 0 0 0 127 0" result="hardAlpha"/>
<feOffset/>
<feComposite in2="hardAlpha" operator="out"/>
<feColorMatrix type="matrix" values="0 0 0 0 0 0 0 0 0 0 0 0 0 0 0 0 0 0 0.04 0"/>
<feBlend mode="normal" in2="BackgroundImageFix" result="effect1_dropShadow_8_2564"/>
<feColorMatrix in="SourceAlpha" type="matrix" values="0 0 0 0 0 0 0 0 0 0 0 0 0 0 0 0 0 0 127 0" result="hardAlpha"/>
<feOffset dy="1"/>
<feGaussianBlur stdDeviation="1.5"/>
<feComposite in2="hardAlpha" operator="out"/>
<feColorMatrix type="matrix" values="0 0 0 0 0 0 0 0 0 0 0 0 0 0 0 0 0 0 0.07 0"/>
<feBlend mode="normal" in2="effect1_dropShadow_8_2564" result="effect2_dropShadow_8_2564"/>
<feColorMatrix in="SourceAlpha" type="matrix" values="0 0 0 0 0 0 0 0 0 0 0 0 0 0 0 0 0 0 127 0" result="hardAlpha"/>
<feOffset dy="3"/>
<feGaussianBlur stdDeviation="3"/>
<feComposite in2="hardAlpha" operator="out"/>
<feColorMatrix type="matrix" values="0 0 0 0 0 0 0 0 0 0 0 0 0 0 0 0 0 0 0.05 0"/>
<feBlend mode="normal" in2="effect2_dropShadow_8_2564" result="effect3_dropShadow_8_2564"/>
<feBlend mode="normal" in="SourceGraphic" in2="effect3_dropShadow_8_2564" result="shape"/>
</filter>
<filter id="filter1_d_8_2564" x="51.875" y="23" width="19" height="21.25" filterUnits="userSpaceOnUse" color-interpolation-filters="sRGB">
<feFlood flood-opacity="0" result="BackgroundImageFix"/>
<feColorMatrix in="SourceAlpha" type="matrix" values="0 0 0 0 0 0 0 0 0 0 0 0 0 0 0 0 0 0 127 0" result="hardAlpha"/>
<feOffset dy="2"/>
<feGaussianBlur stdDeviation="1"/>
<feComposite in2="hardAlpha" operator="out"/>
<feColorMatrix type="matrix" values="0 0 0 0 0 0 0 0 0 0 0 0 0 0 0 0 0 0 0.13 0"/>
<feBlend mode="normal" in2="BackgroundImageFix" result="effect1_dropShadow_8_2564"/>
<feBlend mode="normal" in="SourceGraphic" in2="effect1_dropShadow_8_2564" result="shape"/>
</filter>
<linearGradient id="paint0_linear_8_2564" x1="50.5" y1="23" x2="50.5" y2="71" gradientUnits="userSpaceOnUse">
<stop stop-color="white"/>
<stop offset="1" stop-color="#EFEFEF"/>
</linearGradient>
<linearGradient id="paint1_linear_8_2564" x1="52.875" y1="40.25" x2="60.3788" y2="41.236" gradientUnits="userSpaceOnUse">
<stop stop-color="#FAFAFA"/>
<stop offset="1" stop-color="#EDEDED"/>
</linearGradient>
</defs>
</svg>
