<svg width="36" height="40" viewBox="0 0 36 40" fill="none" xmlns="http://www.w3.org/2000/svg">
<path d="M22.6571 0H0.5V36.5349H29.5794V7.12L22.6571 0ZM22.9879 1.986L27.6485 6.77971H22.9882L22.9879 1.986ZM28.4162 35.4049H1.66324V1.13H21.8235V7.90971H28.415L28.4162 35.4049Z" fill="#32BB78"/>
<path d="M25.8961 14.3877H4.18347V15.5177H25.8961V14.3877Z" fill="#32BB78"/>
<path d="M13.4888 10.6211H4.18347V11.7511H13.4888V10.6211Z" fill="#32BB78"/>
<path d="M25.8961 18.1543H4.18347V19.2843H25.8961V18.1543Z" fill="#32BB78"/>
<path d="M25.8961 21.9209H4.18347V23.0509H25.8961V21.9209Z" fill="#32BB78"/>
<path d="M25.8961 25.6875H4.18347V26.8175H25.8961V25.6875Z" fill="#32BB78"/>
<path d="M25.8961 29.4541H4.18347V30.5841H25.8961V29.4541Z" fill="#32BB78"/>
<path d="M27.4117 40.0004C31.8787 40.0004 35.5 36.4827 35.5 32.1433C35.5 27.8039 31.8787 24.2861 27.4117 24.2861C22.9447 24.2861 19.3235 27.8039 19.3235 32.1433C19.3235 36.4827 22.9447 40.0004 27.4117 40.0004Z" fill="white"/>
<path d="M24.0588 32.7115L23.6609 32.3249C23.6208 32.2863 23.589 32.2403 23.5673 32.1896C23.5456 32.139 23.5344 32.0847 23.5344 32.0298C23.5344 31.9749 23.5456 31.9206 23.5673 31.87C23.589 31.8193 23.6208 31.7733 23.6609 31.7347L27.1429 28.3504C27.1827 28.3114 27.2301 28.2806 27.2822 28.2595C27.3344 28.2384 27.3903 28.2275 27.4468 28.2275C27.5032 28.2275 27.5592 28.2384 27.6113 28.2595C27.6634 28.2806 27.7108 28.3114 27.7506 28.3504L31.2329 31.7332C31.273 31.7719 31.3048 31.8179 31.3265 31.8685C31.3482 31.9192 31.3594 31.9735 31.3594 32.0284C31.3594 32.0832 31.3482 32.1376 31.3265 32.1882C31.3048 32.2389 31.273 32.2849 31.2329 32.3235L30.835 32.7101C30.7944 32.7493 30.7462 32.7803 30.6932 32.8013C30.6402 32.8222 30.5834 32.8326 30.5262 32.832C30.4689 32.8314 30.4124 32.8197 30.3599 32.7975C30.3073 32.7754 30.2599 32.7434 30.2203 32.7032L28.1647 30.6067V35.6104C28.1648 35.6653 28.1538 35.7196 28.1322 35.7704C28.1106 35.8211 28.079 35.8672 28.039 35.906C27.9991 35.9448 27.9516 35.9756 27.8994 35.9965C27.8472 36.0175 27.7912 36.0282 27.7347 36.0281H27.1612C27.1047 36.0282 27.0487 36.0175 26.9965 35.9965C26.9443 35.9756 26.8968 35.9448 26.8568 35.906C26.8169 35.8672 26.7852 35.8211 26.7637 35.7704C26.7421 35.7196 26.731 35.6653 26.7312 35.6104V30.6067L24.6723 32.7047C24.6329 32.7451 24.5856 32.7775 24.533 32.7999C24.4805 32.8222 24.4238 32.834 24.3665 32.8347C24.3091 32.8353 24.2522 32.8247 24.1992 32.8036C24.1461 32.7824 24.098 32.7511 24.0576 32.7115H24.0588Z" fill="#32BB78"/>
</svg>
