<svg width="72" height="73" viewBox="0 0 72 73" fill="none" xmlns="http://www.w3.org/2000/svg">
<path fill-rule="evenodd" clip-rule="evenodd" d="M3 36.6665C3 18.4411 17.7746 3.6665 36 3.6665C54.2254 3.6665 69 18.4411 69 36.6665C69 54.8919 54.2254 69.6665 36 69.6665C17.7746 69.6665 3 54.8919 3 36.6665ZM39 18.6665C39 17.0096 37.6569 15.6665 36 15.6665C34.3431 15.6665 33 17.0096 33 18.6665V36.6665C33 37.8028 33.642 38.8416 34.6584 39.3498L46.6584 45.3498C48.1403 46.0908 49.9423 45.4901 50.6833 44.0081C51.4242 42.5262 50.8236 40.7242 49.3416 39.9832L39 34.8124V18.6665Z" fill="#F7961C"/>
</svg>
