<svg width="24" height="24" viewBox="0 0 24 24" fill="none" xmlns="http://www.w3.org/2000/svg">
<path d="M16.8 8.72727C24 8.72727 24 13.0909 24 13.0909V15.2727H16.8V13.0909C16.8 13.0909 16.8 11.2473 15.42 9.6C15.216 9.34909 14.964 9.10909 14.7 8.88C15.324 8.79273 16.008 8.72727 16.8 8.72727ZM7.2 10.9091C11.4 10.9091 11.928 12.6109 12 13.0909H2.4C2.472 12.6109 3 10.9091 7.2 10.9091ZM7.2 8.72727C0 8.72727 0 13.0909 0 13.0909V15.2727H14.4V13.0909C14.4 13.0909 14.4 8.72727 7.2 8.72727ZM8.4 17.4545V19.6364H15.6V17.4545L19.2 20.7273L15.6 24V21.8182H8.4V24L4.8 20.7273L8.4 17.4545ZM7.2 2.18182C7.86 2.18182 8.4 2.67273 8.4 3.27273C8.4 3.87273 7.86 4.36364 7.2 4.36364C6.54 4.36364 6 3.87273 6 3.27273C6 2.67273 6.54 2.18182 7.2 2.18182ZM7.2 0C5.208 0 3.6 1.46182 3.6 3.27273C3.6 5.08364 5.208 6.54545 7.2 6.54545C9.192 6.54545 10.8 5.08364 10.8 3.27273C10.8 1.46182 9.192 0 7.2 0ZM16.8 0C14.808 0 13.2 1.46182 13.2 3.27273C13.2 5.08364 14.808 6.54545 16.8 6.54545C18.792 6.54545 20.4 5.08364 20.4 3.27273C20.4 1.46182 18.792 0 16.8 0Z" fill="white"/>
</svg>
