<svg width="21" height="20" viewBox="0 0 21 20" fill="none" xmlns="http://www.w3.org/2000/svg">
<path d="M8.80002 4.2001C8.1635 4.2001 7.55305 4.45295 7.10297 4.90304C6.65288 5.35313 6.40002 5.96358 6.40002 6.6001C6.40002 7.23662 6.65288 7.84707 7.10297 8.29715C7.55305 8.74724 8.1635 9.0001 8.80002 9.0001C9.43654 9.0001 10.047 8.74724 10.4971 8.29715C10.9472 7.84707 11.2 7.23662 11.2 6.6001C11.2 5.96358 10.9472 5.35313 10.4971 4.90304C10.047 4.45295 9.43654 4.2001 8.80002 4.2001ZM7.60002 6.6001C7.60002 6.28184 7.72645 5.97661 7.9515 5.75157C8.17654 5.52653 8.48176 5.4001 8.80002 5.4001C9.11828 5.4001 9.42351 5.52653 9.64855 5.75157C9.8736 5.97661 10 6.28184 10 6.6001C10 6.91836 9.8736 7.22358 9.64855 7.44863C9.42351 7.67367 9.11828 7.8001 8.80002 7.8001C8.48176 7.8001 8.17654 7.67367 7.9515 7.44863C7.72645 7.22358 7.60002 6.91836 7.60002 6.6001ZM0.400024 2.4001C0.400024 1.92271 0.589667 1.46487 0.927232 1.12731C1.2648 0.78974 1.72263 0.600098 2.20002 0.600098H15.4C15.8774 0.600098 16.3353 0.78974 16.6728 1.12731C17.0104 1.46487 17.2 1.92271 17.2 2.4001V6.6001H16V5.4001H14.8C14.1635 5.4001 13.5531 5.14724 13.103 4.69715C12.6529 4.24707 12.4 3.63662 12.4 3.0001V1.8001H5.20002V3.0001C5.20002 3.63662 4.94717 4.24707 4.49708 4.69715C4.04699 5.14724 3.43654 5.4001 2.80002 5.4001H1.60002V7.8001H2.80002C3.43654 7.8001 4.04699 8.05295 4.49708 8.50304C4.94717 8.95313 5.20002 9.56358 5.20002 10.2001V11.4001H11.2V12.6001H2.20002C1.72263 12.6001 1.2648 12.4105 0.927232 12.0729C0.589667 11.7353 0.400024 11.2775 0.400024 10.8001V2.4001ZM2.20002 1.8001C2.04089 1.8001 1.88828 1.86331 1.77576 1.97583C1.66324 2.08836 1.60002 2.24097 1.60002 2.4001V4.2001H2.80002C3.11828 4.2001 3.42351 4.07367 3.64855 3.84863C3.8736 3.62358 4.00002 3.31836 4.00002 3.0001V1.8001H2.20002ZM15.4 1.8001H13.6V3.0001C13.6 3.31836 13.7265 3.62358 13.9515 3.84863C14.1765 4.07367 14.4818 4.2001 14.8 4.2001H16V2.4001C16 2.24097 15.9368 2.08836 15.8243 1.97583C15.7118 1.86331 15.5592 1.8001 15.4 1.8001ZM2.20002 11.4001H4.00002V10.2001C4.00002 9.88184 3.8736 9.57661 3.64855 9.35157C3.42351 9.12653 3.11828 9.0001 2.80002 9.0001H1.60002V10.8001C1.60002 10.9592 1.66324 11.1118 1.77576 11.2244C1.88828 11.3369 2.04089 11.4001 2.20002 11.4001ZM18.4 6.6001V3.1021C18.7511 3.22623 19.0551 3.4562 19.27 3.76031C19.4849 4.06442 19.6002 4.42771 19.6 4.8001V6.6001H18.4ZM11.2 13.8001V15.0001H4.60002C4.22763 15.0003 3.86435 14.885 3.56024 14.6701C3.25612 14.4551 3.02615 14.1512 2.90202 13.8001H11.2ZM14.2 7.8001C13.7226 7.8001 13.2648 7.98974 12.9272 8.32731C12.5897 8.66487 12.4 9.12271 12.4 9.6001V18.0001C12.4 18.4775 12.5897 18.9353 12.9272 19.2729C13.2648 19.6105 13.7226 19.8001 14.2 19.8001H19C19.4774 19.8001 19.9352 19.6105 20.2728 19.2729C20.6104 18.9353 20.8 18.4775 20.8 18.0001V9.6001C20.8 9.12271 20.6104 8.66487 20.2728 8.32731C19.9352 7.98974 19.4774 7.8001 19 7.8001H14.2ZM14.2 12.6001H15.4C15.5592 12.6001 15.7118 12.6633 15.8243 12.7758C15.9368 12.8884 16 13.041 16 13.2001C16 13.3592 15.9368 13.5118 15.8243 13.6244C15.7118 13.7369 15.5592 13.8001 15.4 13.8001H14.2C14.0409 13.8001 13.8883 13.7369 13.7758 13.6244C13.6632 13.5118 13.6 13.3592 13.6 13.2001C13.6 13.041 13.6632 12.8884 13.7758 12.7758C13.8883 12.6633 14.0409 12.6001 14.2 12.6001ZM17.8 12.6001H19C19.1592 12.6001 19.3118 12.6633 19.4243 12.7758C19.5368 12.8884 19.6 13.041 19.6 13.2001C19.6 13.3592 19.5368 13.5118 19.4243 13.6244C19.3118 13.7369 19.1592 13.8001 19 13.8001H17.8C17.6409 13.8001 17.4883 13.7369 17.3758 13.6244C17.2632 13.5118 17.2 13.3592 17.2 13.2001C17.2 13.041 17.2632 12.8884 17.3758 12.7758C17.4883 12.6633 17.6409 12.6001 17.8 12.6001ZM14.2 15.0001H15.4C15.5592 15.0001 15.7118 15.0633 15.8243 15.1758C15.9368 15.2884 16 15.441 16 15.6001C16 15.7592 15.9368 15.9118 15.8243 16.0244C15.7118 16.1369 15.5592 16.2001 15.4 16.2001H14.2C14.0409 16.2001 13.8883 16.1369 13.7758 16.0244C13.6632 15.9118 13.6 15.7592 13.6 15.6001C13.6 15.441 13.6632 15.2884 13.7758 15.1758C13.8883 15.0633 14.0409 15.0001 14.2 15.0001ZM17.8 15.0001H19C19.1592 15.0001 19.3118 15.0633 19.4243 15.1758C19.5368 15.2884 19.6 15.441 19.6 15.6001C19.6 15.7592 19.5368 15.9118 19.4243 16.0244C19.3118 16.1369 19.1592 16.2001 19 16.2001H17.8C17.6409 16.2001 17.4883 16.1369 17.3758 16.0244C17.2632 15.9118 17.2 15.7592 17.2 15.6001C17.2 15.441 17.2632 15.2884 17.3758 15.1758C17.4883 15.0633 17.6409 15.0001 17.8 15.0001ZM14.2 17.4001H15.4C15.5592 17.4001 15.7118 17.4633 15.8243 17.5758C15.9368 17.6884 16 17.841 16 18.0001C16 18.1592 15.9368 18.3118 15.8243 18.4244C15.7118 18.5369 15.5592 18.6001 15.4 18.6001H14.2C14.0409 18.6001 13.8883 18.5369 13.7758 18.4244C13.6632 18.3118 13.6 18.1592 13.6 18.0001C13.6 17.841 13.6632 17.6884 13.7758 17.5758C13.8883 17.4633 14.0409 17.4001 14.2 17.4001ZM17.8 17.4001H19C19.1592 17.4001 19.3118 17.4633 19.4243 17.5758C19.5368 17.6884 19.6 17.841 19.6 18.0001C19.6 18.1592 19.5368 18.3118 19.4243 18.4244C19.3118 18.5369 19.1592 18.6001 19 18.6001H17.8C17.6409 18.6001 17.4883 18.5369 17.3758 18.4244C17.2632 18.3118 17.2 18.1592 17.2 18.0001C17.2 17.841 17.2632 17.6884 17.3758 17.5758C17.4883 17.4633 17.6409 17.4001 17.8 17.4001ZM13.6 9.6001C13.6 9.44097 13.6632 9.28835 13.7758 9.17583C13.8883 9.06331 14.0409 9.0001 14.2 9.0001H19C19.1592 9.0001 19.3118 9.06331 19.4243 9.17583C19.5368 9.28835 19.6 9.44097 19.6 9.6001V10.8001C19.6 10.9592 19.5368 11.1118 19.4243 11.2244C19.3118 11.3369 19.1592 11.4001 19 11.4001H14.2C14.0409 11.4001 13.8883 11.3369 13.7758 11.2244C13.6632 11.1118 13.6 10.9592 13.6 10.8001V9.6001Z" fill="black"/>
</svg>
