<svg width="16" height="16" viewBox="0 0 16 16" fill="none" xmlns="http://www.w3.org/2000/svg">
<path d="M10.021 1.99984H12.6667C13.0349 1.99984 13.3334 2.29831 13.3334 2.6665C13.3334 3.03469 13.0349 3.33317 12.6667 3.33317H10.462L6.96205 12.6665H9.33341C9.7016 12.6665 10.0001 12.965 10.0001 13.3332C10.0001 13.7014 9.7016 13.9998 9.33341 13.9998H6.00686C6.00229 13.9999 5.99771 13.9999 5.99313 13.9998H3.33341C2.96522 13.9998 2.66675 13.7014 2.66675 13.3332C2.66675 12.965 2.96522 12.6665 3.33341 12.6665H5.53804L9.03804 3.33317H6.66675C6.29856 3.33317 6.00008 3.03469 6.00008 2.6665C6.00008 2.29831 6.29856 1.99984 6.66675 1.99984H9.97944C9.99323 1.9994 10.0071 1.9994 10.021 1.99984Z" fill="#030F1A"/>
</svg>
