<svg width="22" height="20" viewBox="0 0 22 20" fill="none" xmlns="http://www.w3.org/2000/svg">
<path d="M19.1036 3.2258C18.6354 2.75739 18.0795 2.38581 17.4677 2.13229C16.8558 1.87878 16.2001 1.74829 15.5378 1.74829C14.8755 1.74829 14.2197 1.87878 13.6079 2.13229C12.996 2.38581 12.4401 2.75739 11.9719 3.2258L11.0003 4.19746L10.0286 3.2258C9.08289 2.28008 7.80022 1.74878 6.46277 1.74878C5.12532 1.74878 3.84266 2.28008 2.89694 3.2258C1.95122 4.17152 1.41992 5.45418 1.41992 6.79163C1.41992 8.12908 1.95122 9.41175 2.89694 10.3575L3.8686 11.3291L11.0003 18.4608L18.1319 11.3291L19.1036 10.3575C19.572 9.88927 19.9436 9.33338 20.1971 8.72154C20.4506 8.1097 20.5811 7.45391 20.5811 6.79163C20.5811 6.12935 20.4506 5.47356 20.1971 4.86172C19.9436 4.24988 19.572 3.69399 19.1036 3.2258Z" stroke="#030F1A" stroke-width="2" stroke-linecap="round" stroke-linejoin="round"/>
</svg>
