<svg width="32" height="32" viewBox="0 0 32 32" fill="none" xmlns="http://www.w3.org/2000/svg">
<path d="M10.2198 20.631C8.32388 19.3163 7.39399 17.9131 7.2676 16.5309H0V26.7495C0 32.1896 2.4737 33.1377 5.78248 30.8075L15.104 24.1243L10.2198 20.631Z" fill="black"/>
<path d="M31.9955 16.5309H8.64893C8.82497 17.7319 9.6691 18.9497 11.3167 20.0916L26.213 30.8075C29.5218 33.1377 32.0136 32.1896 31.9955 26.7495V16.5309Z" fill="black"/>
<path d="M26.2309 1.20939L16.8281 7.95155L21.5995 11.3774C23.4773 12.6837 24.4072 14.0785 24.5516 15.448H31.9998V5.25047C31.9998 -0.189607 29.5261 -1.13772 26.2173 1.19254" fill="black"/>
<path d="M20.697 11.9252L5.80064 1.20938C2.49185 -1.12087 0.000107771 -0.172756 0.0181639 5.26732V15.4648H23.3783C23.1977 14.2723 22.3491 13.0629 20.715 11.9252" fill="black"/>
</svg>
