<svg width="32" height="32" viewBox="0 0 32 32" fill="none" xmlns="http://www.w3.org/2000/svg">
<path d="M8.98778e-05 26.7468C-0.0172355 32.1906 2.4722 33.1379 5.78001 30.8069L20.689 20.0857C22.5725 18.7747 23.4068 17.3678 23.3873 16.0001H8.98778e-05V26.7468Z" fill="#009E96"/>
<path d="M31.9998 26.7468C32.017 32.1906 29.5276 33.1379 26.2199 30.8069L11.3109 20.0857C9.42743 18.7747 8.59308 17.3678 8.61264 16.0001C9.56839 16.0001 31.9802 16.0006 31.9802 16.0006L31.9998 26.7468Z" fill="#EF4923"/>
<path d="M31.9998 5.25314C32.017 -0.190595 29.5276 -1.13789 26.2199 1.19321L11.3109 11.9143C9.42743 13.2254 8.59308 14.6322 8.61264 15.9999C9.56839 15.9999 31.9802 15.9995 31.9802 15.9995L31.9998 5.25314Z" fill="#F7961C"/>
<path d="M8.98778e-05 5.25314C-0.0172355 -0.190595 2.4722 -1.13789 5.78001 1.19321L20.689 11.9143C22.5725 13.2254 23.4068 14.6322 23.3873 15.9999H8.98778e-05V5.25314Z" fill="#082E4D"/>
</svg>
