<svg width="16" height="17" viewBox="0 0 16 17" fill="none" xmlns="http://www.w3.org/2000/svg">
<path d="M1.42218 5.95429C1.22223 5.81147 1.12225 5.74005 1.03509 5.73078C0.904739 5.71692 0.7741 5.78415 0.709617 5.89828C0.666499 5.97459 0.6665 6.0961 0.666504 6.33912V10.6609C0.666496 11.1975 0.666489 11.6404 0.695967 12.0012C0.726584 12.3759 0.792294 12.7204 0.957154 13.044C1.21282 13.5457 1.62076 13.9537 2.12253 14.2094C2.44609 14.3742 2.79056 14.4399 3.16529 14.4705C3.52608 14.5 3.96898 14.5 4.50562 14.5H11.4941C12.0307 14.5 12.4736 14.5 12.8344 14.4705C13.2091 14.4399 13.5536 14.3742 13.8771 14.2094C14.3789 13.9537 14.7869 13.5457 15.0425 13.044C15.2074 12.7204 15.2731 12.3759 15.3037 12.0012C15.3332 11.6404 15.3332 11.1975 15.3332 10.6609V6.33912C15.3332 6.22001 15.3332 6.16045 15.3223 6.11886C15.2729 5.93084 15.0685 5.82374 14.8859 5.89021C14.8455 5.90491 14.7959 5.93924 14.6967 6.00789L9.53527 9.58129C9.16932 9.83544 8.848 10.0586 8.48296 10.1471C8.16368 10.2245 7.83026 10.222 7.51215 10.1399C7.14845 10.0461 6.83045 9.81824 6.46827 9.55874L1.42218 5.95429Z" fill="#9CABB8"/>
<path d="M14.755 4.34581C14.8781 4.26061 14.9396 4.21801 14.9774 4.14949C15.0068 4.09629 15.0236 4.01203 15.0169 3.95163C15.0082 3.87386 14.9752 3.82251 14.909 3.71982C14.6558 3.32643 14.2914 3.0017 13.8771 2.79065C13.5536 2.62579 13.2091 2.56008 12.8344 2.52946C12.4736 2.49999 12.0307 2.49999 11.494 2.5H4.50564C3.969 2.49999 3.52608 2.49999 3.16529 2.52946C2.79056 2.56008 2.44609 2.62579 2.12253 2.79065C1.74984 2.98054 1.4277 3.25507 1.18275 3.5889C1.10568 3.69393 1.06715 3.74644 1.05445 3.82614C1.04453 3.88846 1.05839 3.97505 1.08728 4.03116C1.12422 4.10291 1.1883 4.14868 1.31645 4.24022L7.16653 8.41884C7.65134 8.76514 7.75422 8.82539 7.84526 8.84888C7.9513 8.87624 8.06244 8.87706 8.16887 8.85126C8.26025 8.82911 8.364 8.77038 8.85385 8.43125L14.755 4.34581Z" fill="#9CABB8"/>
</svg>
