<svg width="21" height="21" viewBox="0 0 21 21" fill="none" xmlns="http://www.w3.org/2000/svg">
<path d="M5.5 6.5H10.5M5.5 10H13.5M8.18375 16H14.7C16.3802 16 17.2202 16 17.862 15.673C18.4265 15.3854 18.8854 14.9265 19.173 14.362C19.5 13.7202 19.5 12.8802 19.5 11.2V5.8C19.5 4.11984 19.5 3.27976 19.173 2.63803C18.8854 2.07354 18.4265 1.6146 17.862 1.32698C17.2202 1 16.3802 1 14.7 1H6.3C4.61984 1 3.77976 1 3.13803 1.32698C2.57354 1.6146 2.1146 2.07354 1.82698 2.63803C1.5 3.27976 1.5 4.11984 1.5 5.8V18.3355C1.5 18.8684 1.5 19.1348 1.60923 19.2716C1.70422 19.3906 1.84827 19.4599 2.00054 19.4597C2.17563 19.4595 2.38367 19.2931 2.79976 18.9602L5.18521 17.0518C5.67252 16.662 5.91617 16.4671 6.18749 16.3285C6.4282 16.2055 6.68443 16.1156 6.94921 16.0613C7.24767 16 7.5597 16 8.18375 16Z" stroke="#030F1A" stroke-width="2" stroke-linecap="round" stroke-linejoin="round"/>
</svg>
