<svg width="20" height="16" viewBox="0 0 20 16" fill="none" xmlns="http://www.w3.org/2000/svg">
<path d="M4.99996 7.16658V10.4999M15 5.49992V8.83325M14.1666 1.33325C16.2072 1.33325 17.3109 1.64555 17.8601 1.88779C17.9332 1.92005 17.9698 1.93618 18.0753 2.03689C18.1386 2.09727 18.254 2.27441 18.2837 2.35666C18.3333 2.49387 18.3333 2.56887 18.3333 2.71887V11.6759C18.3333 12.4332 18.3333 12.8118 18.2197 13.0065C18.1042 13.2044 17.9928 13.2965 17.7766 13.3726C17.564 13.4474 17.1349 13.3649 16.2768 13.2C15.6761 13.0846 14.9637 12.9999 14.1666 12.9999C11.6666 12.9999 9.16663 14.6666 5.83329 14.6666C3.7927 14.6666 2.68901 14.3543 2.13986 14.112C2.06673 14.0798 2.03016 14.0637 1.92463 13.9629C1.86136 13.9026 1.74589 13.7254 1.71618 13.6432C1.66663 13.506 1.66663 13.431 1.66663 13.281L1.66663 4.32396C1.66663 3.56666 1.66663 3.188 1.78019 2.99337C1.89571 2.79539 2.00712 2.70335 2.22334 2.62726C2.43591 2.55246 2.86499 2.6349 3.72315 2.79979C4.32381 2.9152 5.03619 2.99992 5.83329 2.99992C8.33329 2.99992 10.8333 1.33325 14.1666 1.33325ZM12.0833 7.99992C12.0833 9.15051 11.1506 10.0833 9.99996 10.0833C8.84937 10.0833 7.91663 9.15051 7.91663 7.99992C7.91663 6.84932 8.84937 5.91658 9.99996 5.91658C11.1506 5.91658 12.0833 6.84932 12.0833 7.99992Z" stroke="#030F1A" stroke-width="2" stroke-linecap="round" stroke-linejoin="round"/>
</svg>
