<svg width="68" height="22" viewBox="0 0 68 22" fill="none" xmlns="http://www.w3.org/2000/svg">
<rect width="68" height="22" rx="11" fill="#01C7B1"/>
<rect x="8" y="5" width="12" height="12" rx="6" fill="white"/>
<path fill-rule="evenodd" clip-rule="evenodd" d="M16.7708 8.8659C16.8951 8.99016 16.8951 9.19162 16.7708 9.31588L13.2708 12.8159C13.1465 12.9401 12.9451 12.9401 12.8208 12.8159L11.2299 11.225C11.1057 11.1007 11.1057 10.8992 11.2299 10.775C11.3542 10.6507 11.5556 10.6507 11.6799 10.775L13.0458 12.1409L16.3208 8.8659C16.4451 8.74164 16.6465 8.74164 16.7708 8.8659Z" fill="#01C7B1"/>
<path d="M33.19 14.06C32.9967 14.06 32.84 14.0033 32.72 13.89C32.6067 13.77 32.55 13.61 32.55 13.41V7.56C32.55 7.36667 32.6034 7.21667 32.71 7.11C32.8234 7.00333 32.9767 6.95 33.17 6.95H35.63C36.3834 6.95 36.97 7.14 37.39 7.52C37.81 7.89333 38.02 8.42 38.02 9.1C38.02 9.78 37.81 10.31 37.39 10.69C36.97 11.07 36.3834 11.26 35.63 11.26H33.84V13.41C33.84 13.61 33.78 13.77 33.66 13.89C33.5467 14.0033 33.39 14.06 33.19 14.06ZM35.47 10.27C36.3567 10.27 36.8 9.88333 36.8 9.11C36.8 8.33667 36.3567 7.95 35.47 7.95H33.84V10.27H35.47ZM41.0346 8.99C41.7146 8.99 42.218 9.16 42.5446 9.5C42.878 9.83333 43.0446 10.3433 43.0446 11.03V13.47C43.0446 13.65 42.9913 13.7933 42.8846 13.9C42.778 14 42.6313 14.05 42.4446 14.05C42.2713 14.05 42.128 13.9967 42.0146 13.89C41.908 13.7833 41.8546 13.6433 41.8546 13.47V13.25C41.7413 13.51 41.5613 13.7133 41.3146 13.86C41.0746 14.0067 40.7946 14.08 40.4746 14.08C40.148 14.08 39.8513 14.0133 39.5846 13.88C39.318 13.7467 39.108 13.5633 38.9546 13.33C38.8013 13.0967 38.7246 12.8367 38.7246 12.55C38.7246 12.19 38.8146 11.9067 38.9946 11.7C39.1813 11.4933 39.4813 11.3433 39.8946 11.25C40.308 11.1567 40.878 11.11 41.6046 11.11H41.8546V10.88C41.8546 10.5533 41.7846 10.3167 41.6446 10.17C41.5046 10.0167 41.278 9.94 40.9646 9.94C40.7713 9.94 40.5746 9.97 40.3746 10.03C40.1746 10.0833 39.938 10.1633 39.6646 10.27C39.4913 10.3567 39.3646 10.4 39.2846 10.4C39.1646 10.4 39.0646 10.3567 38.9846 10.27C38.9113 10.1833 38.8746 10.07 38.8746 9.93C38.8746 9.81667 38.9013 9.72 38.9546 9.64C39.0146 9.55333 39.1113 9.47333 39.2446 9.4C39.478 9.27333 39.7546 9.17333 40.0746 9.1C40.4013 9.02667 40.7213 8.99 41.0346 8.99ZM40.7246 13.18C41.058 13.18 41.328 13.07 41.5346 12.85C41.748 12.6233 41.8546 12.3333 41.8546 11.98V11.77H41.6746C41.228 11.77 40.8813 11.79 40.6346 11.83C40.388 11.87 40.2113 11.94 40.1046 12.04C39.998 12.14 39.9446 12.2767 39.9446 12.45C39.9446 12.6633 40.018 12.84 40.1646 12.98C40.318 13.1133 40.5046 13.18 40.7246 13.18ZM44.935 14.06C44.755 14.06 44.605 14.01 44.485 13.91C44.3717 13.8033 44.315 13.6533 44.315 13.46V9.6C44.315 9.40667 44.3717 9.26 44.485 9.16C44.605 9.06 44.755 9.01 44.935 9.01C45.115 9.01 45.265 9.06 45.385 9.16C45.505 9.26 45.565 9.40667 45.565 9.6V13.46C45.565 13.6533 45.505 13.8033 45.385 13.91C45.265 14.01 45.115 14.06 44.935 14.06ZM44.935 8.12C44.7084 8.12 44.5284 8.06 44.395 7.94C44.2617 7.81333 44.195 7.65 44.195 7.45C44.195 7.25 44.2617 7.09 44.395 6.97C44.5284 6.85 44.7084 6.79 44.935 6.79C45.155 6.79 45.3317 6.85 45.465 6.97C45.605 7.09 45.675 7.25 45.675 7.45C45.675 7.65 45.6084 7.81333 45.475 7.94C45.3417 8.06 45.1617 8.12 44.935 8.12ZM50.9341 6.9C51.1208 6.9 51.2741 6.95333 51.3941 7.06C51.5141 7.16667 51.5741 7.30667 51.5741 7.48V13.46C51.5741 13.64 51.5174 13.7833 51.4041 13.89C51.2908 13.9967 51.1408 14.05 50.9541 14.05C50.7674 14.05 50.6174 13.9967 50.5041 13.89C50.3908 13.7833 50.3341 13.64 50.3341 13.46V13.21C50.1874 13.4833 49.9741 13.6967 49.6941 13.85C49.4208 14.0033 49.1074 14.08 48.7541 14.08C48.3341 14.08 47.9574 13.9733 47.6241 13.76C47.2974 13.5467 47.0408 13.2467 46.8541 12.86C46.6741 12.4667 46.5841 12.0167 46.5841 11.51C46.5841 11.0033 46.6741 10.56 46.8541 10.18C47.0408 9.8 47.2974 9.50667 47.6241 9.3C47.9508 9.09333 48.3274 8.99 48.7541 8.99C49.1074 8.99 49.4208 9.06333 49.6941 9.21C49.9674 9.35667 50.1774 9.56333 50.3241 9.83V7.46C50.3241 7.29333 50.3774 7.16 50.4841 7.06C50.5974 6.95333 50.7474 6.9 50.9341 6.9ZM49.0841 13.11C49.4841 13.11 49.7908 12.9733 50.0041 12.7C50.2241 12.4267 50.3341 12.0367 50.3341 11.53C50.3341 11.0233 50.2241 10.6367 50.0041 10.37C49.7908 10.0967 49.4874 9.96 49.0941 9.96C48.6941 9.96 48.3841 10.0933 48.1641 10.36C47.9441 10.6267 47.8341 11.01 47.8341 11.51C47.8341 12.0167 47.9441 12.41 48.1641 12.69C48.3841 12.97 48.6908 13.11 49.0841 13.11Z" fill="white"/>
</svg>
