<svg width="48" height="48" viewBox="0 0 48 48" fill="none" xmlns="http://www.w3.org/2000/svg">
<path d="M40 45H8V3H30L40 13V45Z" fill="#FF5722"/>
<path d="M38.5 14H29V4.5L38.5 14Z" fill="#FBE9E7"/>
<path d="M15.8098 29.4999V32.9999H13.7998V23.0469H17.1908C18.1748 23.0469 18.9608 23.3529 19.5458 23.9629C20.1308 24.5729 20.4238 25.3659 20.4238 26.3419C20.4238 27.3179 20.1338 28.0869 19.5558 28.6529C18.9778 29.2189 18.1748 29.4999 17.1488 29.4999H15.8098ZM15.8098 27.8249H17.1908C17.5738 27.8249 17.8698 27.6999 18.0798 27.4489C18.2898 27.1979 18.3938 26.8339 18.3938 26.3549C18.3938 25.8579 18.2868 25.4629 18.0728 25.1679C17.8588 24.8749 17.5718 24.7259 17.2118 24.7209H15.8098V27.8249ZM21.7638 32.9999V23.0469H24.3958C25.5578 23.0469 26.4848 23.4159 27.1738 24.1539C27.8648 24.8919 28.2168 25.9039 28.2308 27.1889V28.8019C28.2308 30.1099 27.8848 31.1369 27.1958 31.8809C26.5038 32.6279 25.5528 32.9999 24.3408 32.9999H21.7638ZM23.7728 24.7219V31.3319H24.3748C25.0448 31.3319 25.5168 31.1549 25.7898 30.8019C26.0628 30.4489 26.2068 29.8399 26.2208 28.9739V27.2449C26.2208 26.3149 26.0908 25.6669 25.8308 25.3009C25.5708 24.9339 25.1288 24.7409 24.5048 24.7229L23.7728 24.7219ZM34.8068 28.9389H31.6828V32.9999H29.6728V23.0469H35.1828V24.7219H31.6828V27.2719H34.8068V28.9389Z" fill="#FFEBEE"/>
</svg>
