<svg width="23" height="23" viewBox="0 0 23 23" fill="none" xmlns="http://www.w3.org/2000/svg">
<path d="M3.50002 21.647C4.1026 21.8296 4.91649 21.8296 6.3 21.8296H16.7C18.0835 21.8296 18.8974 21.8296 19.5 21.647M3.50002 21.647C3.37082 21.6079 3.25133 21.5603 3.13803 21.5026C2.57354 21.215 2.1146 20.756 1.82698 20.1916C1.5 19.5498 1.5 18.7097 1.5 17.0296V6.62959C1.5 4.94943 1.5 4.10935 1.82698 3.46762C2.1146 2.90313 2.57354 2.44419 3.13803 2.15657C3.77976 1.82959 4.61984 1.82959 6.3 1.82959H16.7C18.3802 1.82959 19.2202 1.82959 19.862 2.15657C20.4265 2.44419 20.8854 2.90313 21.173 3.46762C21.5 4.10935 21.5 4.94943 21.5 6.62959V17.0296C21.5 18.7097 21.5 19.5498 21.173 20.1916C20.8854 20.756 20.4265 21.215 19.862 21.5026C19.7487 21.5603 19.6292 21.6079 19.5 21.647M3.50002 21.647C3.50035 20.8377 3.50521 20.4095 3.57686 20.0492C3.89249 18.4625 5.13288 17.2221 6.71964 16.9064C7.10603 16.8296 7.57069 16.8296 8.5 16.8296H14.5C15.4293 16.8296 15.894 16.8296 16.2804 16.9064C17.8671 17.2221 19.1075 18.4625 19.4231 20.0492C19.4948 20.4095 19.4996 20.8377 19.5 21.647M15.5 9.32959C15.5 11.5387 13.7091 13.3296 11.5 13.3296C9.29086 13.3296 7.5 11.5387 7.5 9.32959C7.5 7.12045 9.29086 5.32959 11.5 5.32959C13.7091 5.32959 15.5 7.12045 15.5 9.32959Z" stroke="#01C7B1" stroke-width="2" stroke-linecap="round" stroke-linejoin="round"/>
</svg>
