<svg width="325" height="238" viewBox="0 0 325 238" fill="none" xmlns="http://www.w3.org/2000/svg">
<g filter="url(#filter0_dd_8_2646)">
<g clip-path="url(#clip0_8_2646)">
<path d="M12 12C12 5.37258 17.3726 0 24 0H301C307.627 0 313 5.37258 313 12V202C313 208.627 307.627 214 301 214H24C17.3726 214 12 208.627 12 202V12Z" fill="white"/>
<rect width="55" height="215" transform="translate(12)" fill="#CCFFEF"/>
<path d="M20 19.5C20 16.4624 22.4624 14 25.5 14C28.5376 14 31 16.4624 31 19.5V20.5C31 23.5376 28.5376 26 25.5 26C22.4624 26 20 23.5376 20 20.5V19.5Z" fill="white"/>
<rect width="11" height="2" transform="matrix(1 0 0 -1 38 21)" fill="#F8F9FB"/>
<rect x="18" y="41" width="43" height="10" rx="2" fill="#66FFD0"/>
<rect width="31" height="2" transform="matrix(1 0 0 -1 24 47)" fill="#E6EAED"/>
<rect width="31" height="2" transform="matrix(1 0 0 -1 24 61)" fill="#E6EAED"/>
<rect width="31" height="2" transform="matrix(1 0 0 -1 24 73)" fill="#E6EAED"/>
<rect width="39" height="2" transform="matrix(1 0 0 -1 91 47)" fill="#E6EAED"/>
<rect width="59" height="2" transform="matrix(1 0 0 -1 91 53)" fill="#E6EAED"/>
<rect width="103" height="2" transform="matrix(1 0 0 -1 91 102)" fill="#E6EAED"/>
<rect width="155" height="2" transform="matrix(1 0 0 -1 91 109)" fill="#E6EAED"/>
<rect width="155" height="2" transform="matrix(1 0 0 -1 91 116)" fill="#E6EAED"/>
<rect width="155" height="2" transform="matrix(1 0 0 -1 91 123)" fill="#E6EAED"/>
<rect width="155" height="2" transform="matrix(1 0 0 -1 91 130)" fill="#E6EAED"/>
<rect width="67" height="2" transform="matrix(1 0 0 -1 91 137)" fill="#E6EAED"/>
<rect width="246" height="20" transform="translate(67)" fill="#F8F9FB"/>
<path d="M288 9.5C288 6.46243 290.462 4 293.5 4C296.538 4 299 6.46243 299 9.5V10.5C299 13.5376 296.538 16 293.5 16C290.462 16 288 13.5376 288 10.5V9.5Z" fill="#F8F9FB"/>
<path d="M215 187C215 184.791 216.791 183 219 183H295C297.209 183 299 184.791 299 187V195C299 197.209 297.209 199 295 199H219C216.791 199 215 197.209 215 195V187Z" fill="#00CC8E"/>
</g>
</g>
<defs>
<filter id="filter0_dd_8_2646" x="0" y="0" width="325" height="238" filterUnits="userSpaceOnUse" color-interpolation-filters="sRGB">
<feFlood flood-opacity="0" result="BackgroundImageFix"/>
<feColorMatrix in="SourceAlpha" type="matrix" values="0 0 0 0 0 0 0 0 0 0 0 0 0 0 0 0 0 0 127 0" result="hardAlpha"/>
<feMorphology radius="4" operator="erode" in="SourceAlpha" result="effect1_dropShadow_8_2646"/>
<feOffset dy="12"/>
<feGaussianBlur stdDeviation="8"/>
<feColorMatrix type="matrix" values="0 0 0 0 0.0627451 0 0 0 0 0.0941176 0 0 0 0 0.156863 0 0 0 0.08 0"/>
<feBlend mode="normal" in2="BackgroundImageFix" result="effect1_dropShadow_8_2646"/>
<feColorMatrix in="SourceAlpha" type="matrix" values="0 0 0 0 0 0 0 0 0 0 0 0 0 0 0 0 0 0 127 0" result="hardAlpha"/>
<feMorphology radius="2" operator="erode" in="SourceAlpha" result="effect2_dropShadow_8_2646"/>
<feOffset dy="4"/>
<feGaussianBlur stdDeviation="3"/>
<feColorMatrix type="matrix" values="0 0 0 0 0.0627451 0 0 0 0 0.0941176 0 0 0 0 0.156863 0 0 0 0.03 0"/>
<feBlend mode="normal" in2="effect1_dropShadow_8_2646" result="effect2_dropShadow_8_2646"/>
<feBlend mode="normal" in="SourceGraphic" in2="effect2_dropShadow_8_2646" result="shape"/>
</filter>
<clipPath id="clip0_8_2646">
<path d="M12 12C12 5.37258 17.3726 0 24 0H301C307.627 0 313 5.37258 313 12V202C313 208.627 307.627 214 301 214H24C17.3726 214 12 208.627 12 202V12Z" fill="white"/>
</clipPath>
</defs>
</svg>
