<svg width="40" height="40" viewBox="0 0 40 40" fill="none" xmlns="http://www.w3.org/2000/svg">
<rect x="0.5" y="0.5" width="39" height="39" rx="19.5" fill="#0062CC"/>
<rect x="0.5" y="0.5" width="39" height="39" rx="19.5" stroke="white"/>
<path d="M19.9917 10.8945C16.6767 10.8945 13.9826 13.5886 13.9826 16.9035V19.7979C13.9826 20.4088 13.7222 21.3402 13.4118 21.861L12.2601 23.7738C11.549 24.9556 12.0397 26.2676 13.3417 26.7082C17.6582 28.1504 22.3152 28.1504 26.6316 26.7082C27.8435 26.3076 28.3743 24.8755 27.7133 23.7738L26.5615 21.861C26.2611 21.3402 26.0007 20.4088 26.0007 19.7979V16.9035C26.0007 13.5986 23.2966 10.8945 19.9917 10.8945Z" fill="white"/>
<path d="M21.8462 11.1857C21.5357 11.0956 21.2152 11.0255 20.8847 10.9854C19.9233 10.8652 19.0019 10.9353 18.1406 11.1857C18.4311 10.4446 19.1521 9.92383 19.9934 9.92383C20.8347 9.92383 21.5557 10.4446 21.8462 11.1857Z" fill="white"/>
<path d="M22.9973 27.0703C22.9973 28.7228 21.6452 30.0748 19.9928 30.0748C19.1715 30.0748 18.4104 29.7343 17.8696 29.1935C17.3288 28.6527 16.9883 27.8915 16.9883 27.0703" fill="white"/>
</svg>
