<svg width="24" height="24" viewBox="0 0 24 24" fill="none" xmlns="http://www.w3.org/2000/svg">
<path fill-rule="evenodd" clip-rule="evenodd" d="M12.0007 0.083374C5.41926 0.083374 0.0839844 5.41865 0.0839844 12C0.0839844 18.5814 5.41926 23.9167 12.0007 23.9167C18.582 23.9167 23.9173 18.5814 23.9173 12C23.9173 5.41865 18.582 0.083374 12.0007 0.083374ZM16.0167 7.98401C16.4397 8.40708 16.4397 9.093 16.0167 9.51607L13.5327 12L16.0167 14.484C16.4397 14.9071 16.4397 15.593 16.0167 16.0161C15.5936 16.4391 14.9077 16.4391 14.4846 16.0161L12.0007 13.5321L9.51668 16.0161C9.09361 16.4391 8.40769 16.4391 7.98462 16.0161C7.56155 15.593 7.56155 14.9071 7.98462 14.484L10.4686 12L7.98462 9.51607C7.56155 9.093 7.56155 8.40708 7.98462 7.98401C8.40769 7.56094 9.09361 7.56094 9.51668 7.98401L12.0007 10.468L14.4846 7.98401C14.9077 7.56094 15.5936 7.56094 16.0167 7.98401Z" fill="#ED1B2E"/>
</svg>
