<svg width="20" height="18" viewBox="0 0 20 18" fill="none" xmlns="http://www.w3.org/2000/svg">
<path d="M19.7072 9.60406C19.8955 9.22315 19.8955 8.77621 19.7072 8.3953C19.5413 8.0599 19.2503 7.88403 19.0996 7.7992C18.9373 7.70786 18.7292 7.61428 18.5218 7.52099L3.2638 0.65493C3.0516 0.559396 2.84003 0.464151 2.66157 0.402332C2.49772 0.345576 2.16784 0.241877 1.8026 0.343504C1.38986 0.458349 1.05508 0.760492 0.898653 1.15934C0.76023 1.51228 0.82967 1.85103 0.869383 2.01982C0.912645 2.20369 0.985778 2.42391 1.05913 2.64479L2.53593 7.09418C2.65484 7.45242 2.71429 7.63155 2.82485 7.764C2.92248 7.88095 3.04794 7.9715 3.1897 8.02731C3.35023 8.09052 3.53896 8.09052 3.91643 8.09052H10.5016C11.0037 8.09052 11.4107 8.49753 11.4107 8.99961C11.4107 9.50169 11.0037 9.9087 10.5016 9.9087H3.93361C3.5571 9.9087 3.36885 9.9087 3.2086 9.97165C3.0671 10.0272 2.94179 10.1174 2.84416 10.234C2.7336 10.3659 2.67383 10.5445 2.55431 10.9015L1.06562 15.3484C0.991473 15.5697 0.917612 15.7903 0.873791 15.9743C0.833621 16.1431 0.763023 16.4824 0.901068 16.8363C1.05696 17.2359 1.39177 17.5388 1.8049 17.6541C2.17074 17.7562 2.50137 17.6522 2.66527 17.5954C2.84409 17.5334 3.05617 17.4379 3.26908 17.3421L18.5218 10.4784C18.7292 10.3851 18.9372 10.2915 19.0996 10.2002C19.2503 10.1153 19.5413 9.93946 19.7072 9.60406Z" fill="black"/>
</svg>
