<svg width="20" height="20" viewBox="0 0 20 20" fill="none" xmlns="http://www.w3.org/2000/svg">
<path fill-rule="evenodd" clip-rule="evenodd" d="M11.7788 0.152C11.4088 -4.47035e-08 10.9388 0 9.99983 0C9.06083 0 8.59083 -4.47035e-08 8.22083 0.152C7.72828 0.354211 7.33621 0.743765 7.13083 1.235C7.03683 1.458 7.00083 1.719 6.98583 2.098C6.97916 2.3726 6.90256 2.64097 6.76327 2.87772C6.62399 3.11447 6.42662 3.31178 6.18983 3.451C5.94857 3.5851 5.67737 3.65615 5.40135 3.65754C5.12534 3.65894 4.85343 3.59065 4.61083 3.459C4.27283 3.281 4.02783 3.183 3.78583 3.151C3.25638 3.08148 2.7209 3.2238 2.29583 3.547C1.97783 3.789 1.74283 4.193 1.27383 5C0.803827 5.807 0.569827 6.21 0.516827 6.605C0.446827 7.131 0.590827 7.663 0.916827 8.084C1.06483 8.276 1.27383 8.437 1.59683 8.639C2.07383 8.936 2.37983 9.442 2.37983 10C2.37983 10.558 2.07383 11.064 1.59783 11.36C1.27383 11.563 1.06483 11.724 0.915827 11.916C0.75491 12.1239 0.636797 12.3617 0.568312 12.6156C0.499827 12.8694 0.482328 13.1343 0.516827 13.395C0.569827 13.789 0.803827 14.193 1.27383 15C1.74383 15.807 1.97783 16.21 2.29583 16.453C2.71983 16.776 3.25583 16.918 3.78583 16.849C4.02783 16.817 4.27283 16.719 4.61083 16.541C4.85355 16.4092 5.12564 16.3408 5.40185 16.3422C5.67807 16.3436 5.94945 16.4147 6.19083 16.549C6.67683 16.829 6.96483 17.344 6.98583 17.902C7.00083 18.282 7.03683 18.542 7.13083 18.765C7.33483 19.255 7.72683 19.645 8.22083 19.848C8.59083 20 9.06083 20 9.99983 20C10.9388 20 11.4088 20 11.7788 19.848C12.2714 19.6458 12.6634 19.2562 12.8688 18.765C12.9628 18.542 12.9988 18.282 13.0138 17.902C13.0338 17.344 13.3228 16.828 13.8098 16.549C14.0511 16.4149 14.3223 16.3439 14.5983 16.3425C14.8743 16.3411 15.1462 16.4093 15.3888 16.541C15.7268 16.719 15.9718 16.817 16.2138 16.849C16.7438 16.919 17.2798 16.776 17.7038 16.453C18.0218 16.211 18.2568 15.807 18.7258 15C19.1958 14.193 19.4298 13.79 19.4828 13.395C19.5172 13.1343 19.4995 12.8693 19.4309 12.6155C19.3622 12.3616 19.2439 12.1239 19.0828 11.916C18.9348 11.724 18.7258 11.563 18.4028 11.361C17.9258 11.064 17.6198 10.558 17.6198 10C17.6198 9.442 17.9258 8.936 18.4018 8.64C18.7258 8.437 18.9348 8.276 19.0838 8.084C19.2447 7.87606 19.3629 7.63829 19.4313 7.38443C19.4998 7.13057 19.5173 6.86566 19.4828 6.605C19.4298 6.211 19.1958 5.807 18.7258 5C18.2558 4.193 18.0218 3.79 17.7038 3.547C17.2788 3.2238 16.7433 3.08148 16.2138 3.151C15.9718 3.183 15.7268 3.281 15.3888 3.459C15.1461 3.59083 14.874 3.65922 14.5978 3.65782C14.3216 3.65642 14.0502 3.58528 13.8088 3.451C13.5722 3.31166 13.3751 3.11429 13.2359 2.87755C13.0968 2.64081 13.0204 2.37251 13.0138 2.098C12.9988 1.718 12.9628 1.458 12.8688 1.235C12.7672 0.991736 12.6186 0.770883 12.4316 0.585058C12.2445 0.399233 12.0227 0.252078 11.7788 0.152ZM9.99983 13C11.6698 13 13.0228 11.657 13.0228 10C13.0228 8.343 11.6688 7 9.99983 7C8.32983 7 6.97683 8.343 6.97683 10C6.97683 11.657 8.33083 13 9.99983 13Z" fill="#030F1A"/>
</svg>
