<svg width="32" height="32" viewBox="0 0 32 32" fill="none" xmlns="http://www.w3.org/2000/svg">
<g filter="url(#filter0_d_3773_6528)">
<rect x="4" y="4" width="24" height="24" rx="12" fill="#F2F2F2"/>
<path d="M13.4867 20C13.2441 20 13.0527 19.9347 12.9127 19.804C12.7821 19.664 12.7167 19.4773 12.7167 19.244C12.7167 19.0013 12.7821 18.8193 12.9127 18.698C13.0527 18.5767 13.2441 18.516 13.4867 18.516H15.0547V11.642H15.9227L13.8647 12.888C13.6874 12.9907 13.5194 13.0327 13.3607 13.014C13.2114 12.986 13.0807 12.9207 12.9687 12.818C12.8661 12.706 12.7961 12.5753 12.7587 12.426C12.7214 12.2767 12.7307 12.1273 12.7867 11.978C12.8521 11.8193 12.9734 11.6887 13.1507 11.586L15.0827 10.424C15.2694 10.312 15.4561 10.2187 15.6427 10.144C15.8294 10.06 16.0021 10.018 16.1607 10.018C16.3567 10.018 16.5201 10.074 16.6507 10.186C16.7814 10.2887 16.8467 10.4613 16.8467 10.704V18.516H18.2747C18.5174 18.516 18.7041 18.5767 18.8347 18.698C18.9747 18.8193 19.0447 19.0013 19.0447 19.244C19.0447 19.4867 18.9747 19.6733 18.8347 19.804C18.7041 19.9347 18.5174 20 18.2747 20H13.4867Z" fill="#32BB78"/>
</g>
<defs>
<filter id="filter0_d_3773_6528" x="0" y="0" width="32" height="32" filterUnits="userSpaceOnUse" color-interpolation-filters="sRGB">
<feFlood flood-opacity="0" result="BackgroundImageFix"/>
<feColorMatrix in="SourceAlpha" type="matrix" values="0 0 0 0 0 0 0 0 0 0 0 0 0 0 0 0 0 0 127 0" result="hardAlpha"/>
<feMorphology radius="4" operator="dilate" in="SourceAlpha" result="effect1_dropShadow_3773_6528"/>
<feOffset/>
<feColorMatrix type="matrix" values="0 0 0 0 0.929412 0 0 0 0 0.980392 0 0 0 0 0.968627 0 0 0 1 0"/>
<feBlend mode="normal" in2="BackgroundImageFix" result="effect1_dropShadow_3773_6528"/>
<feBlend mode="normal" in="SourceGraphic" in2="effect1_dropShadow_3773_6528" result="shape"/>
</filter>
</defs>
</svg>
