<svg width="32" height="32" viewBox="0 0 32 32" fill="none" xmlns="http://www.w3.org/2000/svg">
<g filter="url(#filter0_d_3773_5235)">
<rect x="4" y="4" width="24" height="24" rx="12" fill="#F2F2F2"/>
<path d="M13.1647 20C12.8661 20 12.6467 19.9347 12.5067 19.804C12.3761 19.664 12.3107 19.4633 12.3107 19.202C12.3107 19.0433 12.3527 18.8893 12.4367 18.74C12.5207 18.5907 12.6421 18.432 12.8007 18.264L15.6147 15.268C16.0441 14.82 16.3521 14.414 16.5387 14.05C16.7254 13.6767 16.8187 13.3033 16.8187 12.93C16.8187 12.4633 16.6694 12.1087 16.3707 11.866C16.0814 11.6233 15.6567 11.502 15.0967 11.502C14.7794 11.502 14.4621 11.5487 14.1447 11.642C13.8274 11.726 13.5054 11.8753 13.1787 12.09C13.0107 12.202 12.8521 12.2487 12.7027 12.23C12.5627 12.2113 12.4367 12.1507 12.3247 12.048C12.2221 11.9453 12.1521 11.8193 12.1147 11.67C12.0774 11.5207 12.0821 11.3713 12.1287 11.222C12.1847 11.0633 12.2967 10.928 12.4647 10.816C12.8661 10.5453 13.3141 10.34 13.8087 10.2C14.3127 10.06 14.8167 9.99 15.3207 9.99C16.0301 9.99 16.6274 10.0973 17.1127 10.312C17.5981 10.5267 17.9667 10.8393 18.2187 11.25C18.4707 11.6607 18.5967 12.16 18.5967 12.748C18.5967 13.14 18.5314 13.5227 18.4007 13.896C18.2794 14.2693 18.0881 14.6473 17.8267 15.03C17.5747 15.4127 17.2434 15.8187 16.8327 16.248L14.2007 18.992V18.516H18.3167C18.5687 18.516 18.7601 18.5767 18.8907 18.698C19.0214 18.8193 19.0867 19.0013 19.0867 19.244C19.0867 19.4867 19.0214 19.6733 18.8907 19.804C18.7601 19.9347 18.5687 20 18.3167 20H13.1647Z" fill="#32BB78"/>
</g>
<defs>
<filter id="filter0_d_3773_5235" x="0" y="0" width="32" height="32" filterUnits="userSpaceOnUse" color-interpolation-filters="sRGB">
<feFlood flood-opacity="0" result="BackgroundImageFix"/>
<feColorMatrix in="SourceAlpha" type="matrix" values="0 0 0 0 0 0 0 0 0 0 0 0 0 0 0 0 0 0 127 0" result="hardAlpha"/>
<feMorphology radius="4" operator="dilate" in="SourceAlpha" result="effect1_dropShadow_3773_5235"/>
<feOffset/>
<feColorMatrix type="matrix" values="0 0 0 0 0.929412 0 0 0 0 0.980392 0 0 0 0 0.968627 0 0 0 1 0"/>
<feBlend mode="normal" in2="BackgroundImageFix" result="effect1_dropShadow_3773_5235"/>
<feBlend mode="normal" in="SourceGraphic" in2="effect1_dropShadow_3773_5235" result="shape"/>
</filter>
</defs>
</svg>
