<svg width="68" height="22" viewBox="0 0 68 22" fill="none" xmlns="http://www.w3.org/2000/svg">
<rect width="68" height="22" rx="11" fill="#F7961C"/>
<rect x="8" y="5" width="12" height="12" rx="6" fill="white"/>
<path d="M11.7734 11H16.228" stroke="#F7961C" stroke-width="0.636364" stroke-linecap="round" stroke-linejoin="round"/>
<path d="M29.1026 14.09C28.136 14.09 27.4026 13.84 26.9026 13.34C26.4026 12.84 26.1526 12.11 26.1526 11.15V7.54C26.1526 7.34667 26.2093 7.19333 26.3226 7.08C26.436 6.96 26.5893 6.9 26.7826 6.9C26.976 6.9 27.1293 6.96 27.2426 7.08C27.356 7.19333 27.4126 7.34667 27.4126 7.54V11.22C27.4126 11.8267 27.556 12.2867 27.8426 12.6C28.1293 12.9067 28.5493 13.06 29.1026 13.06C29.6493 13.06 30.066 12.9033 30.3526 12.59C30.6393 12.2767 30.7826 11.82 30.7826 11.22V7.54C30.7826 7.34667 30.8393 7.19333 30.9526 7.08C31.066 6.96 31.2193 6.9 31.4126 6.9C31.606 6.9 31.7593 6.96 31.8726 7.08C31.986 7.19333 32.0426 7.34667 32.0426 7.54V11.15C32.0426 12.1033 31.7926 12.8333 31.2926 13.34C30.7926 13.84 30.0626 14.09 29.1026 14.09ZM36.2566 8.99C36.8433 8.99 37.2799 9.15667 37.5666 9.49C37.8533 9.82333 37.9966 10.3267 37.9966 11V13.46C37.9966 13.6467 37.9399 13.7933 37.8266 13.9C37.7199 14.0067 37.5699 14.06 37.3766 14.06C37.1833 14.06 37.0299 14.0067 36.9166 13.9C36.8033 13.7933 36.7466 13.6467 36.7466 13.46V11.07C36.7466 10.69 36.6733 10.4133 36.5266 10.24C36.3866 10.0667 36.1633 9.98 35.8566 9.98C35.4966 9.98 35.2066 10.0933 34.9866 10.32C34.7733 10.5467 34.6666 10.85 34.6666 11.23V13.46C34.6666 13.6467 34.6099 13.7933 34.4966 13.9C34.3833 14.0067 34.2299 14.06 34.0366 14.06C33.8433 14.06 33.6899 14.0067 33.5766 13.9C33.4699 13.7933 33.4166 13.6467 33.4166 13.46V9.59C33.4166 9.41667 33.4733 9.27667 33.5866 9.17C33.6999 9.06333 33.8533 9.01 34.0466 9.01C34.2199 9.01 34.3599 9.06333 34.4666 9.17C34.5799 9.27 34.6366 9.40333 34.6366 9.57V9.84C34.8033 9.56667 35.0266 9.35667 35.3066 9.21C35.5866 9.06333 35.9033 8.99 36.2566 8.99ZM42.0762 8.99C42.4962 8.99 42.8695 9.09667 43.1962 9.31C43.5295 9.52333 43.7862 9.82667 43.9662 10.22C44.1529 10.6067 44.2462 11.0533 44.2462 11.56C44.2462 12.0667 44.1529 12.51 43.9662 12.89C43.7862 13.27 43.5329 13.5633 43.2062 13.77C42.8795 13.9767 42.5029 14.08 42.0762 14.08C41.7295 14.08 41.4195 14.0067 41.1462 13.86C40.8729 13.7133 40.6629 13.51 40.5162 13.25V15.29C40.5162 15.4633 40.4595 15.6 40.3462 15.7C40.2329 15.8 40.0829 15.85 39.8962 15.85C39.7095 15.85 39.5562 15.7967 39.4362 15.69C39.3229 15.5833 39.2662 15.4433 39.2662 15.27V9.6C39.2662 9.42 39.3195 9.27667 39.4262 9.17C39.5395 9.06333 39.6895 9.01 39.8762 9.01C40.0629 9.01 40.2129 9.06333 40.3262 9.17C40.4395 9.27667 40.4962 9.42 40.4962 9.6V9.85C40.6429 9.57667 40.8529 9.36667 41.1262 9.22C41.4062 9.06667 41.7229 8.99 42.0762 8.99ZM41.7462 13.11C42.1395 13.11 42.4462 12.9767 42.6662 12.71C42.8862 12.4367 42.9962 12.0533 42.9962 11.56C42.9962 11.0533 42.8862 10.66 42.6662 10.38C42.4462 10.1 42.1395 9.96 41.7462 9.96C41.3462 9.96 41.0362 10.0967 40.8162 10.37C40.6029 10.6433 40.4962 11.0333 40.4962 11.54C40.4962 12.04 40.6029 12.4267 40.8162 12.7C41.0362 12.9733 41.3462 13.11 41.7462 13.11ZM47.3921 8.99C48.0721 8.99 48.5754 9.16 48.9021 9.5C49.2354 9.83333 49.4021 10.3433 49.4021 11.03V13.47C49.4021 13.65 49.3487 13.7933 49.2421 13.9C49.1354 14 48.9887 14.05 48.8021 14.05C48.6287 14.05 48.4854 13.9967 48.3721 13.89C48.2654 13.7833 48.2121 13.6433 48.2121 13.47V13.25C48.0987 13.51 47.9187 13.7133 47.6721 13.86C47.4321 14.0067 47.1521 14.08 46.8321 14.08C46.5054 14.08 46.2087 14.0133 45.9421 13.88C45.6754 13.7467 45.4654 13.5633 45.3121 13.33C45.1587 13.0967 45.0821 12.8367 45.0821 12.55C45.0821 12.19 45.1721 11.9067 45.3521 11.7C45.5387 11.4933 45.8387 11.3433 46.2521 11.25C46.6654 11.1567 47.2354 11.11 47.9621 11.11H48.2121V10.88C48.2121 10.5533 48.1421 10.3167 48.0021 10.17C47.8621 10.0167 47.6354 9.94 47.3221 9.94C47.1287 9.94 46.9321 9.97 46.7321 10.03C46.5321 10.0833 46.2954 10.1633 46.0221 10.27C45.8487 10.3567 45.7221 10.4 45.6421 10.4C45.5221 10.4 45.4221 10.3567 45.3421 10.27C45.2687 10.1833 45.2321 10.07 45.2321 9.93C45.2321 9.81667 45.2587 9.72 45.3121 9.64C45.3721 9.55333 45.4687 9.47333 45.6021 9.4C45.8354 9.27333 46.1121 9.17333 46.4321 9.1C46.7587 9.02667 47.0787 8.99 47.3921 8.99ZM47.0821 13.18C47.4154 13.18 47.6854 13.07 47.8921 12.85C48.1054 12.6233 48.2121 12.3333 48.2121 11.98V11.77H48.0321C47.5854 11.77 47.2387 11.79 46.9921 11.83C46.7454 11.87 46.5687 11.94 46.4621 12.04C46.3554 12.14 46.3021 12.2767 46.3021 12.45C46.3021 12.6633 46.3754 12.84 46.5221 12.98C46.6754 13.1133 46.8621 13.18 47.0821 13.18ZM51.2925 14.06C51.1125 14.06 50.9625 14.01 50.8425 13.91C50.7291 13.8033 50.6725 13.6533 50.6725 13.46V9.6C50.6725 9.40667 50.7291 9.26 50.8425 9.16C50.9625 9.06 51.1125 9.01 51.2925 9.01C51.4725 9.01 51.6225 9.06 51.7425 9.16C51.8625 9.26 51.9225 9.40667 51.9225 9.6V13.46C51.9225 13.6533 51.8625 13.8033 51.7425 13.91C51.6225 14.01 51.4725 14.06 51.2925 14.06ZM51.2925 8.12C51.0658 8.12 50.8858 8.06 50.7525 7.94C50.6191 7.81333 50.5525 7.65 50.5525 7.45C50.5525 7.25 50.6191 7.09 50.7525 6.97C50.8858 6.85 51.0658 6.79 51.2925 6.79C51.5125 6.79 51.6891 6.85 51.8225 6.97C51.9625 7.09 52.0325 7.25 52.0325 7.45C52.0325 7.65 51.9658 7.81333 51.8325 7.94C51.6991 8.06 51.5191 8.12 51.2925 8.12ZM57.2915 6.9C57.4782 6.9 57.6315 6.95333 57.7515 7.06C57.8715 7.16667 57.9315 7.30667 57.9315 7.48V13.46C57.9315 13.64 57.8749 13.7833 57.7615 13.89C57.6482 13.9967 57.4982 14.05 57.3115 14.05C57.1249 14.05 56.9749 13.9967 56.8615 13.89C56.7482 13.7833 56.6915 13.64 56.6915 13.46V13.21C56.5449 13.4833 56.3315 13.6967 56.0515 13.85C55.7782 14.0033 55.4649 14.08 55.1115 14.08C54.6915 14.08 54.3149 13.9733 53.9815 13.76C53.6549 13.5467 53.3982 13.2467 53.2115 12.86C53.0315 12.4667 52.9415 12.0167 52.9415 11.51C52.9415 11.0033 53.0315 10.56 53.2115 10.18C53.3982 9.8 53.6549 9.50667 53.9815 9.3C54.3082 9.09333 54.6849 8.99 55.1115 8.99C55.4649 8.99 55.7782 9.06333 56.0515 9.21C56.3249 9.35667 56.5349 9.56333 56.6815 9.83V7.46C56.6815 7.29333 56.7349 7.16 56.8415 7.06C56.9549 6.95333 57.1049 6.9 57.2915 6.9ZM55.4415 13.11C55.8415 13.11 56.1482 12.9733 56.3615 12.7C56.5815 12.4267 56.6915 12.0367 56.6915 11.53C56.6915 11.0233 56.5815 10.6367 56.3615 10.37C56.1482 10.0967 55.8449 9.96 55.4515 9.96C55.0515 9.96 54.7415 10.0933 54.5215 10.36C54.3015 10.6267 54.1915 11.01 54.1915 11.51C54.1915 12.0167 54.3015 12.41 54.5215 12.69C54.7415 12.97 55.0482 13.11 55.4415 13.11Z" fill="white"/>
</svg>
