<svg width="70" height="62" viewBox="0 0 70 62" fill="none" xmlns="http://www.w3.org/2000/svg">
<rect x="0.5" y="1" width="69" height="60" rx="5.5" fill="#CCF3EF"/>
<rect x="0.5" y="1" width="69" height="60" rx="5.5" stroke="#E6E6E6"/>
<path d="M49.1663 28.0618V20.816C49.1663 17.5257 49.1663 15.8806 48.526 14.6238C47.9627 13.5184 47.064 12.6196 45.9585 12.0564C44.7018 11.416 43.0567 11.416 39.7663 11.416H27.233C23.9427 11.416 22.2975 11.416 21.0408 12.0564C19.9354 12.6196 19.0366 13.5184 18.4733 14.6238C17.833 15.8806 17.833 17.5257 17.833 20.816V41.1827C17.833 44.473 17.833 46.1181 18.4733 47.3749C19.0366 48.4803 19.9354 49.3791 21.0408 49.9423C22.2975 50.5827 23.9427 50.5827 27.233 50.5827H33.4997M37.4163 29.041H25.6663M29.583 36.8743H25.6663M41.333 21.2077H25.6663M45.2497 48.6243V36.8743M39.3747 42.7493H51.1247" stroke="#32BB78" stroke-width="2" stroke-linecap="round" stroke-linejoin="round"/>
</svg>
