<svg width="20" height="24" viewBox="0 0 20 24" fill="none" xmlns="http://www.w3.org/2000/svg">
<path d="M12.1666 1.45801V5.93276C12.1666 6.53948 12.1666 6.84284 12.2847 7.07458C12.3886 7.27843 12.5543 7.44415 12.7582 7.54802C12.9899 7.66609 13.2933 7.66609 13.9 7.66609H18.3747M14.3333 13.0827H5.66665M14.3333 17.416H5.66665M7.83331 8.74935H5.66665M12.1666 1.16602H6.53331C4.71314 1.16602 3.80306 1.16602 3.10784 1.52024C2.49632 1.83183 1.99913 2.32902 1.68754 2.94055C1.33331 3.63576 1.33331 4.54585 1.33331 6.36602V17.6327C1.33331 19.4529 1.33331 20.3629 1.68754 21.0582C1.99913 21.6697 2.49632 22.1669 3.10784 22.4785C3.80306 22.8327 4.71314 22.8327 6.53331 22.8327H13.4666C15.2868 22.8327 16.1969 22.8327 16.8921 22.4785C17.5036 22.1669 18.0008 21.6697 18.3124 21.0582C18.6666 20.3629 18.6666 19.4529 18.6666 17.6327V7.66602L12.1666 1.16602Z" stroke="#030F1A" stroke-width="2" stroke-linecap="round" stroke-linejoin="round"/>
</svg>
