<svg width="70" height="62" viewBox="0 0 70 62" fill="none" xmlns="http://www.w3.org/2000/svg">
<rect x="0.5" y="1" width="69" height="60" rx="5.5" fill="#CCF3EF"/>
<rect x="0.5" y="1" width="69" height="60" rx="5.5" stroke="#E6E6E6"/>
<path d="M53.0837 24.9899C53.0837 23.8036 53.0837 23.2104 52.8491 22.9357C52.6455 22.6973 52.3401 22.5709 52.0277 22.5955C51.6675 22.6238 51.2481 23.0432 50.4092 23.8821L43.292 30.9993L50.4092 38.1165C51.2481 38.9555 51.6675 39.3749 52.0277 39.4032C52.3401 39.4278 52.6455 39.3014 52.8491 39.063C53.0837 38.7883 53.0837 38.1951 53.0837 37.0087V24.9899Z" stroke="#32BB78" stroke-width="2" stroke-linecap="round" stroke-linejoin="round"/>
<path d="M13.917 26.691C13.917 23.4007 13.917 21.7556 14.5573 20.4988C15.1206 19.3934 16.0193 18.4946 17.1248 17.9314C18.3815 17.291 20.0267 17.291 23.317 17.291H33.892C37.1823 17.291 38.8275 17.291 40.0842 17.9314C41.1896 18.4946 42.0884 19.3934 42.6517 20.4988C43.292 21.7556 43.292 23.4007 43.292 26.691V35.3077C43.292 38.598 43.292 40.2431 42.6517 41.4999C42.0884 42.6053 41.1896 43.5041 40.0842 44.0673C38.8275 44.7077 37.1823 44.7077 33.892 44.7077H23.317C20.0267 44.7077 18.3815 44.7077 17.1248 44.0673C16.0193 43.5041 15.1206 42.6053 14.5573 41.4999C13.917 40.2431 13.917 38.598 13.917 35.3077V26.691Z" stroke="#32BB78" stroke-width="2" stroke-linecap="round" stroke-linejoin="round"/>
</svg>
