<svg width="20" height="18" viewBox="0 0 20 18" fill="none" xmlns="http://www.w3.org/2000/svg">
<path d="M15.0001 12.1974C16.2134 12.8069 17.2536 13.785 18.0128 15.008C18.1632 15.2502 18.2383 15.3713 18.2643 15.539C18.3172 15.8798 18.0841 16.2988 17.7667 16.4336C17.6105 16.5 17.4348 16.5 17.0834 16.5M13.3334 8.6102C14.5682 7.99657 15.4168 6.72238 15.4168 5.25C15.4168 3.77762 14.5682 2.50343 13.3334 1.8898M11.6668 5.25C11.6668 7.32107 9.98784 9 7.91678 9C5.84571 9 4.16678 7.32107 4.16678 5.25C4.16678 3.17893 5.84571 1.5 7.91678 1.5C9.98784 1.5 11.6668 3.17893 11.6668 5.25ZM2.1328 14.782C3.46139 12.7871 5.55792 11.5 7.91677 11.5C10.2756 11.5 12.3722 12.7871 13.7008 14.782C13.9918 15.219 14.1373 15.4375 14.1206 15.7166C14.1075 15.9339 13.9651 16.2 13.7914 16.3313C13.5684 16.5 13.2616 16.5 12.6481 16.5H3.18541C2.57192 16.5 2.26517 16.5 2.04214 16.3313C1.86848 16.2 1.72601 15.9339 1.71297 15.7166C1.69622 15.4375 1.84174 15.219 2.1328 14.782Z" stroke="white" stroke-width="2" stroke-linecap="round" stroke-linejoin="round"/>
</svg>
