<svg width="79" height="78" viewBox="0 0 79 78" fill="none" xmlns="http://www.w3.org/2000/svg">
<path d="M58.6577 12.994C58.6577 23.1714 58.6538 33.3563 58.6458 43.549C58.6135 45.882 58.2337 48.1971 57.5187 50.418C56.4052 54.0325 54.6602 57.4211 52.3647 60.427C51.3216 61.793 50.2053 63.1016 49.0208 64.347C46.0857 67.3984 42.8214 70.115 39.2878 72.447C37.0328 73.9477 34.7002 75.3282 32.2997 76.583C31.6527 76.931 30.9808 77.206 30.3098 77.53C30.1178 77.63 29.9257 77.758 29.7347 77.878H29.0808C28.8888 77.758 28.6967 77.626 28.5057 77.53C27.8347 77.206 27.1628 76.93 26.5158 76.583C24.1153 75.3282 21.7827 73.9476 19.5277 72.447C15.9941 70.115 12.7298 67.3984 9.79474 64.347C8.61019 63.1016 7.49389 61.793 6.45075 60.427C4.15529 57.4211 2.41035 54.0325 1.29676 50.418C0.58184 48.1971 0.201985 45.882 0.169744 43.549C0.157744 33.3603 0.153751 23.1754 0.157751 12.994C0.157751 12.119 0.16974 12.119 0.99674 11.771C6.06741 9.661 11.1421 7.55135 16.2207 5.44202C19.6367 4.01602 23.0417 2.60102 26.4577 1.16302C27.3327 0.791025 28.2077 0.396 29.0827 0H29.7297C30.6047 0.4 31.4797 0.791025 32.3547 1.16302C35.7707 2.60102 39.1757 4.01602 42.5917 5.44202C47.6624 7.55202 52.7371 9.66166 57.8157 11.771C58.6457 12.119 58.6577 12.119 58.6577 12.994Z" fill="#0362CC"/>
<mask id="mask0_5712_62486" style="mask-type:luminance" maskUnits="userSpaceOnUse" x="0" y="0" width="59" height="78">
<path d="M58.6577 12.994C58.6577 23.1714 58.6538 33.3563 58.6458 43.549C58.6135 45.882 58.2337 48.1971 57.5187 50.418C56.4052 54.0325 54.6602 57.4211 52.3647 60.427C51.3216 61.793 50.2053 63.1016 49.0208 64.347C46.0857 67.3984 42.8214 70.115 39.2878 72.447C37.0328 73.9477 34.7002 75.3282 32.2997 76.583C31.6527 76.931 30.9808 77.206 30.3098 77.53C30.1178 77.63 29.9257 77.758 29.7347 77.878H29.0808C28.8888 77.758 28.6967 77.626 28.5057 77.53C27.8347 77.206 27.1628 76.93 26.5158 76.583C24.1153 75.3282 21.7827 73.9476 19.5277 72.447C15.9941 70.115 12.7298 67.3984 9.79474 64.347C8.61019 63.1016 7.49389 61.793 6.45075 60.427C4.15529 57.4211 2.41035 54.0325 1.29676 50.418C0.58184 48.1971 0.201985 45.882 0.169744 43.549C0.157744 33.3603 0.153751 23.1754 0.157751 12.994C0.157751 12.119 0.16974 12.119 0.99674 11.771C6.06741 9.661 11.1421 7.55135 16.2207 5.44202C19.6367 4.01602 23.0417 2.60102 26.4577 1.16302C27.3327 0.791025 28.2077 0.396 29.0827 0H29.7297C30.6047 0.4 31.4797 0.791025 32.3547 1.16302C35.7707 2.60102 39.1757 4.01602 42.5917 5.44202C47.6624 7.55202 52.7371 9.66166 57.8157 11.771C58.6457 12.119 58.6577 12.119 58.6577 12.994Z" fill="white"/>
</mask>
<g mask="url(#mask0_5712_62486)">
<path d="M59.3746 42.5363C72.1136 42.5363 82.4406 32.2093 82.4406 19.4703C82.4406 6.7313 72.1136 -3.5957 59.3746 -3.5957C46.6356 -3.5957 36.3086 6.7313 36.3086 19.4703C36.3086 32.2093 46.6356 42.5363 59.3746 42.5363Z" fill="#004999"/>
<path d="M29.2051 0H0.205078V78H29.2051V0Z" fill="#0055B2"/>
<path d="M42.1897 49.6049C42.1839 49.8178 42.1103 50.0234 41.9795 50.1916C41.8487 50.3598 41.6677 50.4818 41.4627 50.5399H17.0517C16.836 50.5251 16.6329 50.4327 16.4802 50.2797C16.3274 50.1268 16.2352 49.9236 16.2207 49.7079V49.6079C16.3207 49.0889 16.3207 48.5689 16.4287 48.0499C16.5734 47.3389 16.9113 46.6817 17.4053 46.1503C17.8993 45.6189 18.5302 45.234 19.2287 45.0379L22.9677 43.7919C23.1757 43.6919 24.2137 43.2729 24.4217 43.1689C24.4482 43.1689 24.4737 43.1583 24.4924 43.1396C24.5112 43.1208 24.5217 43.0954 24.5217 43.0689C25.2366 42.645 25.7951 42.001 26.1134 41.2332C26.4318 40.4655 26.4929 39.6153 26.2877 38.8099C26.1877 38.6019 26.1877 38.4979 26.0797 38.2909C25.5607 37.4599 25.0407 36.7329 24.4177 35.7979C24.2097 35.5899 24.1057 35.2789 23.8987 35.0709C22.8597 34.8629 22.8597 34.8629 22.7557 33.6169C22.6557 33.2019 22.6557 32.7859 22.5477 32.4739C22.3397 31.7469 22.5477 31.2279 23.1707 31.0199V29.0369C23.1685 28.4274 23.2972 27.8245 23.5481 27.269C23.7989 26.7135 24.166 26.2183 24.6247 25.8169C25.2604 25.2743 26.0114 24.8837 26.8207 24.6749C27.5477 24.5749 28.2747 24.4669 28.5867 24.4669C29.8651 24.368 31.1484 24.5818 32.3257 25.0899C32.7981 25.3287 33.2497 25.6067 33.6757 25.9209C34.4073 26.6694 34.8174 27.6742 34.8187 28.7209V30.9069C34.9574 30.9441 35.087 31.0093 35.1995 31.0984C35.3121 31.1875 35.4053 31.2987 35.4734 31.4251C35.5414 31.5515 35.583 31.6905 35.5954 31.8335C35.6079 31.9765 35.5909 32.1206 35.5457 32.2569C35.5532 32.313 35.5481 32.3702 35.5309 32.4241C35.5136 32.4781 35.4845 32.5275 35.4457 32.5689C35.3457 32.9839 35.3457 33.3999 35.2377 33.8149C35.1377 34.5419 34.9257 35.1649 34.1987 35.0609C33.4717 36.2039 32.8487 37.2419 32.1217 38.1769C31.7761 38.9229 31.6803 39.7606 31.8488 40.5653C32.0172 41.3701 32.4409 42.0991 33.0567 42.6439H33.1567C33.315 42.7706 33.4896 42.8755 33.6757 42.9559C33.7757 42.9559 35.1297 43.6829 35.3377 43.7869L36.2727 44.0989L39.0727 45.0339C39.7712 45.23 40.4021 45.6149 40.8961 46.1463C41.3901 46.6777 41.728 47.3349 41.8727 48.0459L42.1897 49.6049Z" fill="white"/>
<mask id="mask1_5712_62486" style="mask-type:luminance" maskUnits="userSpaceOnUse" x="14" y="21" width="16" height="32">
<path d="M29.002 21.4404H14.002V52.4404H29.002V21.4404Z" fill="white"/>
</mask>
<g mask="url(#mask1_5712_62486)">
<path d="M42.0012 49.6019C41.9954 49.8149 41.9217 50.0204 41.791 50.1886C41.6602 50.3568 41.4791 50.4788 41.2742 50.5369H16.8662C16.6506 50.5222 16.4477 50.4299 16.2949 50.2771C16.1422 50.1244 16.0499 49.9214 16.0352 49.7059V49.6059C16.1352 49.0869 16.1352 48.5669 16.2432 48.0479C16.3879 47.337 16.7258 46.6797 17.2198 46.1483C17.7137 45.6169 18.3447 45.232 19.0432 45.0359L22.7822 43.7899C22.9902 43.6899 24.0282 43.2709 24.2362 43.1669C24.2627 43.1669 24.2881 43.1564 24.3069 43.1376C24.3256 43.1189 24.3362 43.0934 24.3362 43.0669C25.0509 42.6431 25.6092 41.9992 25.9275 41.2317C26.2459 40.4641 26.3071 39.6142 26.1022 38.8089C26.0022 38.6009 26.0022 38.4969 25.8942 38.2899C25.3752 37.4589 24.8552 36.7319 24.2322 35.7969C24.0242 35.5889 23.9202 35.2779 23.7132 35.0699C22.6742 34.8619 22.6742 34.8619 22.5702 33.6159C22.4702 33.2009 22.4702 32.7849 22.3622 32.4729C22.1542 31.7459 22.3622 31.2269 22.9852 31.0189V29.0369C22.983 28.4274 23.1117 27.8245 23.3625 27.269C23.6134 26.7135 23.9805 26.2183 24.4392 25.8169C25.0704 25.276 25.8161 24.8852 26.6202 24.6739C27.3472 24.5739 28.0742 24.4659 28.3862 24.4659C29.6646 24.367 30.9479 24.5809 32.1252 25.0889C32.5976 25.3277 33.0491 25.6057 33.4752 25.9199C34.2067 26.6685 34.6169 27.6732 34.6182 28.7199V30.9069C34.7568 30.9441 34.8864 31.0093 34.999 31.0984C35.1116 31.1875 35.2047 31.2987 35.2728 31.4251C35.3409 31.5515 35.3824 31.6905 35.3949 31.8335C35.4073 31.9766 35.3904 32.1206 35.3452 32.2569C35.3527 32.3131 35.3476 32.3702 35.3303 32.4242C35.313 32.4781 35.2839 32.5276 35.2452 32.5689C35.1452 32.9839 35.1452 33.3999 35.0372 33.8149C34.9372 34.5419 34.7252 35.1649 33.9982 35.0609C33.2712 36.2039 32.6482 37.2419 31.9212 38.1769C31.5757 38.9228 31.4802 39.7603 31.6486 40.5648C31.8171 41.3694 32.2405 42.0982 32.8562 42.6429H32.9562C33.1144 42.7696 33.289 42.8745 33.4752 42.9549C33.5752 42.9549 34.9292 43.6819 35.1372 43.7859L36.0722 44.0979L38.8722 45.0329C39.5707 45.229 40.2016 45.6139 40.6955 46.1453C41.1895 46.6767 41.5274 47.334 41.6722 48.0449L42.0012 49.6019Z" fill="#F2F2F2"/>
</g>
</g>
<path d="M59.3723 38.94C70.1253 38.94 78.8423 30.223 78.8423 19.47C78.8423 8.71702 70.1253 0 59.3723 0C48.6194 0 39.9023 8.71702 39.9023 19.47C39.9023 30.223 48.6194 38.94 59.3723 38.94Z" fill="#00CC8E"/>
<path d="M52.3652 21.4668L56.7988 25.6543L66.8984 14.0225" stroke="white" stroke-width="2" stroke-linecap="round" stroke-linejoin="round"/>
</svg>
