<svg width="20" height="14" viewBox="0 0 20 14" fill="none" xmlns="http://www.w3.org/2000/svg">
<path d="M8.3335 6.99967C8.3335 6.0792 9.07969 5.33301 10.0002 5.33301C10.9206 5.33301 11.6668 6.0792 11.6668 6.99967C11.6668 7.92015 10.9206 8.66634 10.0002 8.66634C9.07969 8.66634 8.3335 7.92015 8.3335 6.99967Z" fill="#9CABB8"/>
<path fill-rule="evenodd" clip-rule="evenodd" d="M10.0002 0.333008C7.61545 0.333008 5.6713 1.38694 4.2308 2.5892C2.79225 3.78982 1.80598 5.17825 1.31202 5.96038L1.29195 5.99203C1.19393 6.14632 1.06667 6.34664 1.00234 6.62731C0.950393 6.85394 0.950393 7.14541 1.00234 7.37204C1.06667 7.65271 1.19393 7.85303 1.29195 8.00731L1.31202 8.03897C1.80598 8.8211 2.79225 10.2095 4.2308 11.4101C5.6713 12.6124 7.61545 13.6663 10.0002 13.6663C12.3849 13.6663 14.3291 12.6124 15.7696 11.4101C17.2081 10.2095 18.1944 8.8211 18.6883 8.03897L18.7084 8.00732C18.8064 7.85304 18.9337 7.65272 18.998 7.37204C19.05 7.14541 19.05 6.85394 18.998 6.62731C18.9337 6.34663 18.8064 6.14631 18.7084 5.99203L18.6883 5.96038C18.1944 5.17825 17.2081 3.78982 15.7696 2.5892C14.3291 1.38694 12.3849 0.333008 10.0002 0.333008ZM10.0002 3.66634C8.15922 3.66634 6.66683 5.15873 6.66683 6.99967C6.66683 8.84062 8.15922 10.333 10.0002 10.333C11.8411 10.333 13.3335 8.84062 13.3335 6.99967C13.3335 5.15873 11.8411 3.66634 10.0002 3.66634Z" fill="#9CABB8"/>
</svg>
