<svg width="79" height="78" viewBox="0 0 79 78" fill="none" xmlns="http://www.w3.org/2000/svg">
<path d="M58.6577 12.994C58.6577 23.1714 58.6538 33.3563 58.6458 43.549C58.6135 45.882 58.2337 48.1971 57.5187 50.418C56.4052 54.0325 54.6602 57.4211 52.3647 60.427C51.3216 61.793 50.2053 63.1016 49.0208 64.347C46.0857 67.3984 42.8214 70.115 39.2878 72.447C37.0328 73.9477 34.7002 75.3282 32.2997 76.583C31.6527 76.931 30.9808 77.206 30.3098 77.53C30.1178 77.63 29.9257 77.758 29.7347 77.878H29.0808C28.8888 77.758 28.6967 77.626 28.5057 77.53C27.8347 77.206 27.1628 76.93 26.5158 76.583C24.1153 75.3282 21.7827 73.9476 19.5277 72.447C15.9941 70.115 12.7298 67.3984 9.79474 64.347C8.61019 63.1016 7.49389 61.793 6.45075 60.427C4.15529 57.4211 2.41035 54.0325 1.29676 50.418C0.58184 48.1971 0.201985 45.882 0.169744 43.549C0.157744 33.3603 0.153751 23.1754 0.157751 12.994C0.157751 12.119 0.16974 12.119 0.99674 11.771C6.06741 9.661 11.1421 7.55135 16.2207 5.44202C19.6367 4.01602 23.0417 2.60102 26.4577 1.16302C27.3327 0.791025 28.2077 0.396 29.0827 0H29.7297C30.6047 0.4 31.4797 0.791025 32.3547 1.16302C35.7707 2.60102 39.1757 4.01602 42.5917 5.44202C47.6624 7.55202 52.7371 9.66166 57.8157 11.771C58.6457 12.119 58.6577 12.119 58.6577 12.994Z" fill="#FFBF66"/>
<mask id="mask0_6805_15685" style="mask-type:luminance" maskUnits="userSpaceOnUse" x="0" y="0" width="59" height="78">
<path d="M58.6577 12.994C58.6577 23.1714 58.6538 33.3563 58.6458 43.549C58.6135 45.882 58.2337 48.1971 57.5187 50.418C56.4052 54.0325 54.6602 57.4211 52.3647 60.427C51.3216 61.793 50.2053 63.1016 49.0208 64.347C46.0857 67.3984 42.8214 70.115 39.2878 72.447C37.0328 73.9477 34.7002 75.3282 32.2997 76.583C31.6527 76.931 30.9808 77.206 30.3098 77.53C30.1178 77.63 29.9257 77.758 29.7347 77.878H29.0808C28.8888 77.758 28.6967 77.626 28.5057 77.53C27.8347 77.206 27.1628 76.93 26.5158 76.583C24.1153 75.3282 21.7827 73.9476 19.5277 72.447C15.9941 70.115 12.7298 67.3984 9.79474 64.347C8.61019 63.1016 7.49389 61.793 6.45075 60.427C4.15529 57.4211 2.41035 54.0325 1.29676 50.418C0.58184 48.1971 0.201985 45.882 0.169744 43.549C0.157744 33.3603 0.153751 23.1754 0.157751 12.994C0.157751 12.119 0.16974 12.119 0.99674 11.771C6.06741 9.661 11.1421 7.55135 16.2207 5.44202C19.6367 4.01602 23.0417 2.60102 26.4577 1.16302C27.3327 0.791025 28.2077 0.396 29.0827 0H29.7297C30.6047 0.4 31.4797 0.791025 32.3547 1.16302C35.7707 2.60102 39.1757 4.01602 42.5917 5.44202C47.6624 7.55202 52.7371 9.66166 57.8157 11.771C58.6457 12.119 58.6577 12.119 58.6577 12.994Z" fill="white"/>
</mask>
<g mask="url(#mask0_6805_15685)">
<path d="M59.3726 42.5361C72.1116 42.5361 82.4386 32.2091 82.4386 19.4701C82.4386 6.73105 72.1116 -3.59595 59.3726 -3.59595C46.6336 -3.59595 36.3066 6.73105 36.3066 19.4701C36.3066 32.2091 46.6336 42.5361 59.3726 42.5361Z" fill="#CC7700"/>
<path d="M29.2031 0H0.203125V78H29.2031V0Z" fill="#CC7700"/>
<path d="M42.1877 49.6051C42.182 49.8181 42.1083 50.0236 41.9776 50.1918C41.8468 50.36 41.6657 50.482 41.4608 50.5401H17.0497C16.834 50.5254 16.631 50.4329 16.4782 50.28C16.3254 50.127 16.2332 49.9238 16.2188 49.7081V49.6081C16.3188 49.0891 16.3188 48.5691 16.4268 48.0501C16.5715 47.3392 16.9094 46.6819 17.4034 46.1505C17.8973 45.6191 18.5282 45.2342 19.2267 45.0381L22.9657 43.7921C23.1737 43.6921 24.2118 43.2731 24.4198 43.1691C24.4463 43.1691 24.4717 43.1586 24.4905 43.1398C24.5092 43.1211 24.5197 43.0956 24.5197 43.0691C25.2347 42.6452 25.7931 42.0012 26.1115 41.2335C26.4298 40.4657 26.491 39.6155 26.2858 38.8101C26.1858 38.6021 26.1858 38.4981 26.0778 38.2911C25.5588 37.4601 25.0387 36.7331 24.4157 35.7981C24.2077 35.5901 24.1038 35.2791 23.8968 35.0711C22.8578 34.8631 22.8577 34.8631 22.7537 33.6171C22.6537 33.2021 22.6537 32.7861 22.5457 32.4741C22.3377 31.7471 22.5457 31.2281 23.1687 31.0201V29.0371C23.1666 28.4276 23.2953 27.8247 23.5461 27.2692C23.7969 26.7137 24.1641 26.2185 24.6228 25.8171C25.2585 25.2745 26.0095 24.884 26.8188 24.6751C27.5458 24.5751 28.2727 24.4671 28.5847 24.4671C29.8632 24.3683 31.1464 24.5821 32.3237 25.0901C32.7962 25.3289 33.2477 25.6069 33.6737 25.9211C34.4053 26.6697 34.8155 27.6744 34.8167 28.7211V30.9071C34.9554 30.9443 35.085 31.0095 35.1976 31.0986C35.3102 31.1877 35.4033 31.2989 35.4714 31.4253C35.5395 31.5517 35.581 31.6907 35.5935 31.8337C35.6059 31.9768 35.589 32.1209 35.5438 32.2571C35.5513 32.3133 35.5462 32.3704 35.5289 32.4244C35.5116 32.4783 35.4825 32.5278 35.4438 32.5691C35.3438 32.9841 35.3438 33.4001 35.2358 33.8151C35.1357 34.5421 34.9237 35.1651 34.1968 35.0611C33.4698 36.2041 32.8467 37.2421 32.1197 38.1771C31.7741 38.9232 31.6784 39.7608 31.8468 40.5656C32.0153 41.3704 32.4389 42.0993 33.0548 42.6441H33.1548C33.313 42.7708 33.4876 42.8757 33.6737 42.9561C33.7738 42.9561 35.1278 43.6831 35.3358 43.7871L36.2708 44.0991L39.0707 45.0341C39.7693 45.2302 40.4002 45.6151 40.8941 46.1465C41.3881 46.6779 41.726 47.3352 41.8708 48.0461L42.1877 49.6051Z" fill="white"/>
<mask id="mask1_6805_15685" style="mask-type:luminance" maskUnits="userSpaceOnUse" x="14" y="21" width="16" height="32">
<path d="M29.002 21.4399H14.002V52.4399H29.002V21.4399Z" fill="white"/>
</mask>
<g mask="url(#mask1_6805_15685)">
<path d="M42.0012 49.6019C41.9954 49.8149 41.9217 50.0204 41.791 50.1886C41.6602 50.3568 41.4791 50.4788 41.2742 50.5369H16.8662C16.6506 50.5222 16.4477 50.4299 16.2949 50.2771C16.1422 50.1244 16.0499 49.9214 16.0352 49.7059V49.6059C16.1352 49.0869 16.1352 48.5669 16.2432 48.0479C16.3879 47.337 16.7258 46.6797 17.2198 46.1483C17.7137 45.6169 18.3447 45.232 19.0432 45.0359L22.7822 43.7899C22.9902 43.6899 24.0282 43.2709 24.2362 43.1669C24.2627 43.1669 24.2881 43.1564 24.3069 43.1376C24.3256 43.1189 24.3362 43.0934 24.3362 43.0669C25.0509 42.6431 25.6092 41.9992 25.9275 41.2317C26.2459 40.4641 26.3071 39.6142 26.1022 38.8089C26.0022 38.6009 26.0022 38.4969 25.8942 38.2899C25.3752 37.4589 24.8552 36.7319 24.2322 35.7969C24.0242 35.5889 23.9202 35.2779 23.7132 35.0699C22.6742 34.8619 22.6742 34.8619 22.5702 33.6159C22.4702 33.2009 22.4702 32.7849 22.3622 32.4729C22.1542 31.7459 22.3622 31.2269 22.9852 31.0189V29.0369C22.983 28.4274 23.1117 27.8245 23.3625 27.269C23.6134 26.7135 23.9805 26.2183 24.4392 25.8169C25.0704 25.276 25.8161 24.8852 26.6202 24.6739C27.3472 24.5739 28.0742 24.4659 28.3862 24.4659C29.6646 24.367 30.9479 24.5809 32.1252 25.0889C32.5976 25.3277 33.0491 25.6057 33.4752 25.9199C34.2067 26.6685 34.6169 27.6732 34.6182 28.7199V30.9069C34.7568 30.9441 34.8864 31.0093 34.999 31.0984C35.1116 31.1875 35.2047 31.2987 35.2728 31.4251C35.3409 31.5515 35.3824 31.6905 35.3949 31.8335C35.4073 31.9766 35.3904 32.1206 35.3452 32.2569C35.3527 32.3131 35.3476 32.3702 35.3303 32.4242C35.313 32.4781 35.2839 32.5276 35.2452 32.5689C35.1452 32.9839 35.1452 33.3999 35.0372 33.8149C34.9372 34.5419 34.7252 35.1649 33.9982 35.0609C33.2712 36.2039 32.6482 37.2419 31.9212 38.1769C31.5757 38.9228 31.4802 39.7603 31.6486 40.5648C31.8171 41.3694 32.2405 42.0982 32.8562 42.6429H32.9562C33.1144 42.7696 33.289 42.8745 33.4752 42.9549C33.5752 42.9549 34.9292 43.6819 35.1372 43.7859L36.0722 44.0979L38.8722 45.0329C39.5707 45.229 40.2016 45.6139 40.6955 46.1453C41.1895 46.6767 41.5274 47.334 41.6722 48.0449L42.0012 49.6019Z" fill="#F2F2F2"/>
</g>
</g>
<path d="M59.3723 38.94C70.1253 38.94 78.8423 30.223 78.8423 19.47C78.8423 8.71702 70.1253 0 59.3723 0C48.6194 0 39.9023 8.71702 39.9023 19.47C39.9023 30.223 48.6194 38.94 59.3723 38.94Z" fill="#FF3344"/>
<path d="M59.502 19.9399V11.9399" stroke="white" stroke-width="2" stroke-linecap="round"/>
<path d="M59.502 24.9689V24.9399" stroke="white" stroke-width="3" stroke-linecap="round"/>
</svg>
