<svg width="24" height="25" viewBox="0 0 24 25" fill="none" xmlns="http://www.w3.org/2000/svg">
<path d="M4.94922 4.6001C4.94922 2.80517 6.40429 1.3501 8.19922 1.3501H16.1886L22.6492 7.81076V20.6001C22.6492 22.395 21.1941 23.8501 19.3992 23.8501H8.19922C6.40429 23.8501 4.94922 22.395 4.94922 20.6001V4.6001Z" fill="white" stroke="#D2D6D9" stroke-width="1.5" stroke-linecap="round"/>
<path d="M16.1992 0.900146V3.80014C16.1992 6.00928 17.9901 7.80015 20.1992 7.80015H23.0992" stroke="#D2D6D9" stroke-width="1.5"/>
<rect x="0.400391" y="11.4001" width="16" height="9.6" rx="2" fill="#FFD147"/>
<path d="M5.22612 14.7638H5.98606V17.2993C5.98606 17.5337 5.93339 17.7373 5.82804 17.9101C5.72387 18.0829 5.57886 18.2161 5.39302 18.3096C5.20718 18.4031 4.99115 18.4499 4.74494 18.4499C4.52595 18.4499 4.32709 18.4114 4.14835 18.3345C3.97079 18.2563 3.82993 18.138 3.72576 17.9793C3.6216 17.8195 3.57011 17.6189 3.57129 17.3774H4.33656C4.33893 17.4733 4.35846 17.5556 4.39515 17.6242C4.43303 17.6917 4.48452 17.7438 4.54963 17.7805C4.61592 17.816 4.69404 17.8337 4.784 17.8337C4.8787 17.8337 4.9586 17.8136 5.0237 17.7734C5.08999 17.7319 5.1403 17.6716 5.17463 17.5923C5.20895 17.513 5.22612 17.4153 5.22612 17.2993V14.7638ZM6.62172 18.4001V14.7638H8.05637C8.33218 14.7638 8.56715 14.8165 8.76127 14.9218C8.9554 15.026 9.10337 15.171 9.20517 15.3568C9.30815 15.5415 9.35964 15.7545 9.35964 15.996C9.35964 16.2375 9.30756 16.4506 9.20339 16.6352C9.09922 16.8199 8.9483 16.9637 8.75062 17.0667C8.55413 17.1697 8.3162 17.2212 8.03684 17.2212H7.12243V16.605H7.91255C8.06052 16.605 8.18244 16.5796 8.27832 16.5287C8.37538 16.4766 8.44759 16.405 8.49494 16.3139C8.54347 16.2215 8.56774 16.1156 8.56774 15.996C8.56774 15.8753 8.54347 15.7699 8.49494 15.68C8.44759 15.5888 8.37538 15.5184 8.27832 15.4687C8.18126 15.4178 8.05815 15.3923 7.909 15.3923H7.39054V18.4001H6.62172ZM12.2702 15.9392C12.2454 15.8528 12.2105 15.7764 12.1655 15.7102C12.1205 15.6427 12.0655 15.5859 12.0004 15.5397C11.9364 15.4924 11.863 15.4563 11.7802 15.4314C11.6985 15.4065 11.608 15.3941 11.5085 15.3941C11.3227 15.3941 11.1593 15.4403 11.0185 15.5326C10.8788 15.6249 10.7699 15.7593 10.6918 15.9357C10.6136 16.1108 10.5746 16.3251 10.5746 16.5784C10.5746 16.8317 10.613 17.0472 10.69 17.2247C10.7669 17.4023 10.8758 17.5378 11.0167 17.6313C11.1576 17.7237 11.3239 17.7698 11.5156 17.7698C11.6896 17.7698 11.8382 17.739 11.9613 17.6775C12.0856 17.6148 12.1803 17.5266 12.2454 17.4129C12.3117 17.2993 12.3448 17.1649 12.3448 17.0099L12.5011 17.033H11.5636V16.4541H13.0852V16.9122C13.0852 17.2318 13.0178 17.5064 12.8828 17.7361C12.7479 17.9645 12.562 18.1409 12.3253 18.2652C12.0885 18.3883 11.8175 18.4499 11.5121 18.4499C11.1712 18.4499 10.8717 18.3747 10.6136 18.2244C10.3556 18.0729 10.1544 17.858 10.0099 17.5798C9.86671 17.3005 9.7951 16.969 9.7951 16.5855C9.7951 16.2908 9.83771 16.028 9.92294 15.7972C10.0094 15.5652 10.1301 15.3687 10.2852 15.2077C10.4402 15.0467 10.6207 14.9242 10.8267 14.8401C11.0327 14.7561 11.2558 14.7141 11.4961 14.7141C11.7021 14.7141 11.8938 14.7443 12.0714 14.8046C12.2489 14.8638 12.4064 14.9479 12.5437 15.0568C12.6822 15.1657 12.7952 15.2953 12.8828 15.4456C12.9704 15.5947 13.0266 15.7593 13.0515 15.9392H12.2702Z" fill="#030F1A"/>
</svg>
