<svg width="25" height="25" viewBox="0 0 25 25" fill="none" xmlns="http://www.w3.org/2000/svg">
<path d="M5.94922 4.6001C5.94922 2.80517 7.40429 1.3501 9.19922 1.3501H17.1886L23.6492 7.81076V20.6001C23.6492 22.395 22.1941 23.8501 20.3992 23.8501H9.19922C7.40429 23.8501 5.94922 22.395 5.94922 20.6001V4.6001Z" fill="white" stroke="#D2D6D9" stroke-width="1.5" stroke-linecap="round"/>
<path d="M17.1992 0.900146V3.80014C17.1992 6.00928 18.9901 7.80015 21.1992 7.80015H24.0992" stroke="#D2D6D9" stroke-width="1.5"/>
<rect x="0.400391" y="11.4001" width="18" height="9.6" rx="2" fill="#005BBD"/>
<path d="M4.11586 14.7638H5.06401L6.06543 17.207H6.10804L7.10946 14.7638H8.05762V18.4001H7.31188V16.0333H7.28169L6.34064 18.3824H5.83283L4.89178 16.0244H4.86159V18.4001H4.11586V14.7638ZM8.69105 18.4001V14.7638H10.1257C10.4015 14.7638 10.6365 14.8165 10.8306 14.9218C11.0247 15.026 11.1727 15.171 11.2745 15.3568C11.3775 15.5415 11.429 15.7545 11.429 15.996C11.429 16.2375 11.3769 16.4506 11.2727 16.6352C11.1686 16.8199 11.0176 16.9637 10.82 17.0667C10.6235 17.1697 10.3855 17.2212 10.1062 17.2212H9.19176V16.605H9.98189C10.1299 16.605 10.2518 16.5796 10.3477 16.5287C10.4447 16.4766 10.5169 16.405 10.5643 16.3139C10.6128 16.2215 10.6371 16.1156 10.6371 15.996C10.6371 15.8753 10.6128 15.7699 10.5643 15.68C10.5169 15.5888 10.4447 15.5184 10.3477 15.4687C10.2506 15.4178 10.1275 15.3923 9.97834 15.3923H9.45987V18.4001H8.69105ZM11.852 17.7609V17.1555L13.3701 14.7638H13.8921V15.6019H13.5832L12.6262 17.1164V17.1448H14.7835V17.7609H11.852ZM13.5974 18.4001V17.5763L13.6116 17.3082V14.7638H14.3325V18.4001H13.5974Z" fill="white"/>
</svg>
