<svg width="24" height="25" viewBox="0 0 24 25" fill="none" xmlns="http://www.w3.org/2000/svg">
<path d="M4.94922 4.80005C4.94922 3.00512 6.40429 1.55005 8.19922 1.55005H16.1886L22.6492 8.01071V20.8C22.6492 22.595 21.1941 24.05 19.3992 24.05H8.19922C6.40429 24.05 4.94922 22.595 4.94922 20.8V4.80005Z" fill="white" stroke="#D2D6D9" stroke-width="1.5" stroke-linecap="round"/>
<path d="M16.1992 1.1001V4.0001C16.1992 6.20923 17.9901 8.0001 20.1992 8.0001H23.0992" stroke="#D2D6D9" stroke-width="1.5"/>
<rect x="0.400391" y="11.6001" width="16" height="9.6" rx="2" fill="#ED1B2E"/>
<path d="M3.81654 18.6001V14.9637H5.2512C5.527 14.9637 5.76197 15.0164 5.9561 15.1218C6.15023 15.2259 6.29819 15.3709 6.39999 15.5568C6.50297 15.7414 6.55447 15.9545 6.55447 16.196C6.55447 16.4375 6.50238 16.6505 6.39822 16.8352C6.29405 17.0198 6.14313 17.1637 5.94545 17.2666C5.74895 17.3696 5.51102 17.4211 5.23167 17.4211H4.31725V16.805H5.10738C5.25534 16.805 5.37726 16.7795 5.47314 16.7286C5.57021 16.6766 5.64242 16.605 5.68976 16.5138C5.7383 16.4215 5.76256 16.3155 5.76256 16.196C5.76256 16.0752 5.7383 15.9699 5.68976 15.8799C5.64242 15.7888 5.57021 15.7184 5.47314 15.6686C5.37608 15.6177 5.25297 15.5923 5.10383 15.5923H4.58536V18.6001H3.81654ZM8.34291 18.6001H7.05384V14.9637H8.35356C8.71933 14.9637 9.03419 15.0365 9.29816 15.1821C9.56213 15.3265 9.76514 15.5343 9.90718 15.8054C10.0504 16.0764 10.122 16.4008 10.122 16.7784C10.122 17.1572 10.0504 17.4827 9.90718 17.7549C9.76514 18.0272 9.56095 18.2361 9.29461 18.3817C9.02946 18.5273 8.71222 18.6001 8.34291 18.6001ZM7.82267 17.9414H8.31095C8.53822 17.9414 8.72939 17.9011 8.88445 17.8206C9.0407 17.7389 9.15789 17.6129 9.23602 17.4424C9.31533 17.2708 9.35498 17.0494 9.35498 16.7784C9.35498 16.5097 9.31533 16.2901 9.23602 16.1196C9.15789 15.9492 9.0413 15.8237 8.88623 15.7432C8.73116 15.6627 8.53999 15.6225 8.31272 15.6225H7.82267V17.9414ZM10.6915 18.6001V14.9637H13.0992V15.5976H11.4604V16.4641H12.9394V17.098H11.4604V18.6001H10.6915Z" fill="white"/>
</svg>
