<svg width="302" height="286" viewBox="0 0 302 286" fill="none" xmlns="http://www.w3.org/2000/svg"><g clip-path="url(#clip0_19681_10692)"><rect width="302" height="286" rx="20" fill="#94E8A2"/><path opacity=".8" d="M-47.293 480.246c4.162-7.358 13.461-12.635 14.108-20.894.448-6.191-4.402-11.765-10.087-15.283-5.685-3.519-12.294-5.669-18.05-9.09-14.668-8.75-22.092-26.324-17.526-41.626 1.581-5.268 4.366-10.181 6.145-15.404 3.385-9.993 2.785-21.064-1.732-30.727-.44-.905-.846-1.833-1.286-2.738l-18.79-21.14c-27.853-31.337-22.185-77.056 12.658-102.106l.096-.069.095-.069c34.844-25.05 85.678-19.953 113.531 11.384l18.79 21.14c.885.584 1.77 1.169 2.687 1.731 9.46 6.062 21.329 9.079 32.944 8.286 6.056-.41 11.998-1.771 18.061-1.998 17.601-.636 35.058 9.725 41.286 24.544 2.443 5.802 3.32 12.074 5.883 17.836 2.564 5.763 7.567 11.274 14.355 12.215 9.068 1.275 16.84-5.721 25.769-7.774 12.094-2.78 27.92 9.505 29.501 20.622l-62.986 45.424-.192.138-126.029 90.608-.223.16-63.139 45.253c-11.709-3.836-21.521-20.396-15.869-30.423z" fill="#0E479D"/><path opacity=".8" d="M-165.613 348.616c7.509-2.57 16.988-1.074 22.807-6.087 4.338-3.777 4.838-9.956 3.452-15.244-1.386-5.288-4.266-10.177-5.761-15.438-3.789-13.431 2.886-28.751 15.85-36.258 4.47-2.58 9.488-4.293 14.056-6.738 8.728-4.689 15.577-12.185 18.966-20.839.307-.819.65-1.636.956-2.455l1.638-23.643c2.428-35.048 35.993-61.694 74.962-59.51l.107.006.107.006c38.97 2.184 68.597 32.371 66.169 67.419l-1.638 23.643c.191.847.383 1.693.61 2.542 2.17 8.934 7.894 17.166 15.943 22.795 4.195 2.937 8.938 5.197 13.017 8.255C87.456 295.966 92 311.916 86.35 324.817c-2.21 5.054-5.742 9.584-7.847 14.676-2.105 5.092-2.464 11.311 1.322 15.511 5.046 5.622 14.659 5.196 21.79 8.586 9.659 4.594 11.889 20.928 5.646 28.972l-70.537-3.856-.214-.012-140.952-7.898-.25-.014-70.523-4.049c-5.084-8.679-.619-24.606 9.601-28.117z" fill="#ED1B2E"/><rect x="49.5" y="115" width="203" height="56" rx="10" fill="#fff"/><path d="M69.324 148v-9.232h-3.728v-2.048h9.936v2.048h-3.728V148h-2.48zm4.86 0l5.184-11.28h2L86.552 148h-2.496L83 145.552h-5.264L76.696 148h-2.512zm6.16-8.64l-1.776 4.256h3.616l-1.808-4.256h-.032zm7.183 8.64v-11.28h5.152c1.258 0 2.229.32 2.912.96.682.629 1.024 1.509 1.024 2.64 0 1.131-.342 2.016-1.024 2.656-.683.64-1.654.96-2.912.96h-2.672V148h-2.48zm2.48-5.984h2.256c1.312 0 1.968-.565 1.968-1.696 0-1.109-.656-1.664-1.968-1.664h-2.256v3.36zM105.293 148v-9.232h-3.728v-2.048h9.936v2.048h-3.728V148h-2.48zm11.981.176c-1.109 0-2.085-.24-2.928-.72a5.192 5.192 0 0 1-1.952-2.032c-.458-.875-.688-1.899-.688-3.072s.23-2.192.688-3.056a5.05 5.05 0 0 1 1.952-2.032c.832-.48 1.808-.72 2.928-.72 1.12 0 2.096.24 2.928.72a4.904 4.904 0 0 1 1.952 2.032c.47.864.704 1.877.704 3.04 0 1.173-.234 2.197-.704 3.072a5.01 5.01 0 0 1-1.952 2.048c-.832.48-1.808.72-2.928.72zm0-2.112c.939 0 1.67-.325 2.192-.976.534-.661.8-1.573.8-2.736 0-1.173-.261-2.08-.784-2.72-.522-.651-1.258-.976-2.208-.976-.928 0-1.658.325-2.192.976-.522.64-.784 1.547-.784 2.72 0 1.163.262 2.075.784 2.736.534.651 1.264.976 2.192.976zm10.66 1.936l5.184-11.28h2l5.184 11.28h-2.496l-1.056-2.448h-5.264l-1.04 2.448h-2.512zm6.16-8.64l-1.776 4.256h3.616l-1.808-4.256h-.032zm7.183 8.64v-11.28h4.416c1.92 0 3.408.491 4.464 1.472 1.056.971 1.584 2.357 1.584 4.16s-.528 3.195-1.584 4.176c-1.056.981-2.544 1.472-4.464 1.472h-4.416zm2.48-2.032h1.792c2.4 0 3.6-1.205 3.6-3.616 0-2.4-1.2-3.6-3.6-3.6h-1.792v7.216zm9.91 2.032v-11.28h4.416c1.92 0 3.408.491 4.464 1.472 1.056.971 1.584 2.357 1.584 4.16s-.528 3.195-1.584 4.176c-1.056.981-2.544 1.472-4.464 1.472h-4.416zm2.48-2.032h1.792c2.4 0 3.6-1.205 3.6-3.616 0-2.4-1.2-3.6-3.6-3.6h-1.792v7.216zM169.215 148l5.184-11.28h2l5.184 11.28h-2.496l-1.056-2.448h-5.264l-1.04 2.448h-2.512zm6.16-8.64l-1.776 4.256h3.616l-1.808-4.256h-.032zm17.108 8.816c-1.216 0-2.256-.24-3.12-.72a4.983 4.983 0 0 1-2-2.016c-.459-.875-.688-1.904-.688-3.088 0-1.173.229-2.192.688-3.056a4.956 4.956 0 0 1 2-2.032c.864-.48 1.904-.72 3.12-.72a6.54 6.54 0 0 1 2.144.352c.683.235 1.243.555 1.68.96l-.768 1.968a5.14 5.14 0 0 0-1.456-.816 4.274 4.274 0 0 0-1.52-.272c-1.077 0-1.893.315-2.448.944-.544.619-.816 1.509-.816 2.672 0 1.163.272 2.059.816 2.688.555.629 1.371.944 2.448.944.533 0 1.04-.085 1.52-.256a5.47 5.47 0 0 0 1.456-.832l.768 1.968c-.437.395-.997.715-1.68.96a6.54 6.54 0 0 1-2.144.352zm5.45-.176v-11.28h2.48v4.528h5.248v-4.528h2.48V148h-2.48v-4.688h-5.248V148h-2.48zm12.484 0v-11.28h2.48V148h-2.48zm4.735 0v-11.28h2.48v9.184h5.216V148h-7.696zm9.172 0v-11.28h4.416c1.92 0 3.408.491 4.464 1.472 1.056.971 1.584 2.357 1.584 4.16s-.528 3.195-1.584 4.176c-1.056.981-2.544 1.472-4.464 1.472h-4.416zm2.48-2.032h1.792c2.4 0 3.6-1.205 3.6-3.616 0-2.4-1.2-3.6-3.6-3.6h-1.792v7.216z" fill="#2E2E2E"/></g><defs><clipPath id="clip0_19681_10692"><rect width="302" height="286" rx="20" fill="#fff"/></clipPath></defs></svg>