<svg width="15" height="16" viewBox="0 0 15 16" fill="none" xmlns="http://www.w3.org/2000/svg"><path fill-rule="evenodd" clip-rule="evenodd" d="M7.752 1.24a1.25 1.25 0 0 0-.504 0c-.192.04-.363.136-.5.213l-.037.02-4.625 2.57-.04.022c-.144.08-.325.18-.465.33a1.25 1.25 0 0 0-.268.455c-.064.196-.063.403-.063.568v5.163c0 .165-.001.373.063.568.056.17.147.324.268.455.14.152.321.252.466.331l.04.022 4.624 2.57.037.02c.137.077.308.173.5.212.167.034.338.034.504 0 .192-.04.364-.135.5-.212l.037-.02 4.625-2.57.04-.022c.144-.08.326-.18.465-.33.121-.132.212-.287.268-.456.065-.195.064-.402.063-.567V5.417c0-.165.002-.372-.063-.568a1.25 1.25 0 0 0-.268-.454c-.139-.152-.32-.252-.465-.331l-.04-.022-4.625-2.57-.037-.02a1.765 1.765 0 0 0-.5-.213zm.373 4.26a.625.625 0 1 0-1.25 0V8a.625.625 0 0 0 1.25 0V5.5zM7.5 9.875a.625.625 0 1 0 0 1.25h.006a.625.625 0 1 0 0-1.25H7.5z" fill="#9CABB8"/></svg>