<svg width="16" height="16" viewBox="0 0 16 16" fill="none" xmlns="http://www.w3.org/2000/svg"><path fill-rule="evenodd" clip-rule="evenodd" d="M4.667 6.667c0-.368.298-.666.666-.666H14a.667.667 0 1 1 0 1.333H5.333a.667.667 0 0 1-.666-.667zM2 4c0-.368.298-.666.667-.666H14a.667.667 0 1 1 0 1.333H2.667A.667.667 0 0 1 2 4.001zm0 5.334c0-.368.298-.667.667-.667H14a.667.667 0 1 1 0 1.334H2.667A.667.667 0 0 1 2 9.334zM4.667 12c0-.367.298-.666.666-.666H14a.667.667 0 0 1 0 1.333H5.333a.667.667 0 0 1-.666-.666z" fill="#030F1A"/></svg>