<svg width="66" height="22" viewBox="0 0 66 22" fill="none" xmlns="http://www.w3.org/2000/svg"><rect x=".438" y=".438" width="65.125" height="21.125" rx="5.688" fill="#000"/><rect x=".438" y=".438" width="65.125" height="21.125" rx="5.688" stroke="#A6A6A6" stroke-width=".875"/><path d="M44.84 10.56v1.26h-.79v.827h.79v2.808c0 .958.433 1.342 1.524 1.342.192 0 .375-.023.535-.05v-.818c-.137.014-.224.023-.375.023-.488 0-.703-.228-.703-.748v-2.557H46.9v-.827h-1.08v-1.26h-.981zm4.838 6.305c1.452 0 2.342-.972 2.342-2.584 0-1.602-.895-2.58-2.342-2.58-1.451 0-2.346.978-2.346 2.58 0 1.612.89 2.584 2.346 2.584zm0-.872c-.853 0-1.333-.625-1.333-1.712 0-1.077.48-1.707 1.333-1.707.85 0 1.333.63 1.333 1.707 0 1.082-.483 1.712-1.333 1.712zm3.104.777h.982v-2.936c0-.699.525-1.169 1.269-1.169.173 0 .465.032.548.06v-.968a2.073 2.073 0 0 0-.439-.041c-.648 0-1.2.356-1.342.844h-.073v-.762h-.945v4.971zm5.236-4.233c.726 0 1.2.507 1.223 1.288h-2.51c.054-.776.561-1.288 1.287-1.288zm1.219 2.89c-.183.388-.59.603-1.183.603-.785 0-1.292-.553-1.324-1.425v-.054h3.511v-.343c0-1.561-.835-2.506-2.219-2.506-1.401 0-2.291 1.009-2.291 2.598 0 1.588.872 2.565 2.296 2.565 1.137 0 1.931-.547 2.155-1.438h-.945zm-20.834-.494c.075 1.221 1.093 2.002 2.607 2.002 1.618 0 2.63-.819 2.63-2.125 0-1.026-.576-1.594-1.977-1.92l-.752-.185c-.89-.209-1.25-.488-1.25-.975 0-.615.559-1.017 1.396-1.017.795 0 1.344.392 1.444 1.022h1.031c-.061-1.15-1.074-1.96-2.46-1.96-1.491 0-2.485.81-2.485 2.026 0 1.003.563 1.6 1.798 1.888l.88.213c.904.213 1.302.525 1.302 1.046 0 .605-.625 1.045-1.477 1.045-.913 0-1.547-.411-1.637-1.06h-1.05zm-10.168-3.217c-.676 0-1.26.337-1.562.904H26.6v-.822h-.945v6.624h.982v-2.406h.077c.26.525.822.836 1.53.836 1.255 0 2.054-.991 2.054-2.57 0-1.58-.799-2.566-2.063-2.566zm-.279 4.255c-.822 0-1.337-.649-1.337-1.685 0-1.041.515-1.69 1.342-1.69.83 0 1.328.635 1.328 1.685 0 1.055-.497 1.69-1.333 1.69zm5.777-4.255c-.676 0-1.26.337-1.561.904h-.073v-.822h-.946v6.624h.982v-2.406h.078c.26.525.821.836 1.529.836 1.256 0 2.055-.991 2.055-2.57 0-1.58-.8-2.566-2.064-2.566zm-.279 4.255c-.821 0-1.337-.649-1.337-1.685 0-1.041.516-1.69 1.342-1.69.83 0 1.328.635 1.328 1.685 0 1.055-.497 1.69-1.333 1.69zm-9.56.799h1.126l-2.465-6.83h-1.14l-2.466 6.828h1.089l.629-1.812h2.602l.625 1.812zm-1.964-5.59h.08l.99 2.887h-2.063l.993-2.887zm-2.32-6.389v3.294h1.189c.981 0 1.55-.605 1.55-1.657 0-1.037-.573-1.637-1.55-1.637h-1.19zm.51.466h.622c.682 0 1.086.433 1.086 1.178 0 .755-.397 1.184-1.086 1.184h-.621V5.257zm3.97 2.876c.725 0 1.17-.486 1.17-1.292 0-.801-.447-1.29-1.17-1.29-.727 0-1.174.489-1.174 1.29 0 .806.445 1.292 1.173 1.292zm0-.436c-.427 0-.667-.313-.667-.856 0-.539.24-.854.666-.854.425 0 .667.315.667.854 0 .54-.242.856-.667.856zM29.051 5.6h-.49l-.444 1.896h-.038l-.512-1.897h-.47l-.511 1.897h-.037l-.445-1.897h-.497l.684 2.486h.505l.511-1.83h.039l.514 1.83h.509l.682-2.486zm.565 2.485h.491V6.63c0-.388.23-.63.594-.63.363 0 .536.198.536.598v1.486h.49v-1.61c0-.59-.305-.924-.86-.924-.374 0-.62.167-.742.443h-.036v-.395h-.473v2.486zm2.884 0h.492V4.629H32.5v3.456zm2.337.048c.726 0 1.171-.486 1.171-1.292 0-.801-.447-1.29-1.17-1.29-.727 0-1.174.489-1.174 1.29 0 .806.445 1.292 1.173 1.292zm0-.436c-.427 0-.666-.313-.666-.856 0-.539.24-.854.666-.854.425 0 .667.315.667.854 0 .54-.242.856-.667.856zm2.633.016c-.266 0-.46-.13-.46-.354 0-.22.155-.336.497-.358l.607-.04v.209c0 .308-.273.543-.643.543zm-.125.413c.327 0 .598-.141.747-.39h.038v.349h.473V6.387c0-.525-.352-.836-.975-.836-.564 0-.965.274-1.016.7h.475c.055-.175.244-.275.518-.275.336 0 .51.148.51.41v.215l-.674.039c-.591.037-.925.294-.925.742 0 .454.35.744.83.744zm2.923 0c.343 0 .633-.162.781-.434h.039v.393h.47V4.629h-.49v1.365h-.037c-.135-.274-.422-.436-.763-.436-.627 0-1.031.498-1.031 1.283 0 .787.4 1.285 1.031 1.285zm.14-2.127c.41 0 .669.326.669.844 0 .52-.256.842-.67.842-.415 0-.664-.317-.664-.844 0-.523.252-.842.665-.842zm4.332 2.134c.727 0 1.172-.486 1.172-1.292 0-.801-.448-1.29-1.171-1.29-.726 0-1.174.489-1.174 1.29 0 .806.446 1.292 1.174 1.292zm0-.436c-.426 0-.666-.313-.666-.856 0-.539.24-.854.667-.854.424 0 .666.315.666.854 0 .54-.242.856-.666.856zm1.821.388h.491V6.63c0-.388.23-.63.594-.63.363 0 .536.198.536.598v1.486h.49v-1.61c0-.59-.305-.924-.86-.924-.374 0-.62.167-.742.443h-.036v-.395h-.473v2.486zm4.372-3.105v.63h-.395v.414h.395v1.404c0 .479.217.67.763.67.096 0 .187-.01.267-.024v-.41a1.4 1.4 0 0 1-.187.012c-.245 0-.352-.114-.352-.374V6.024h.539V5.61h-.539v-.63h-.49zm1.688 3.105h.491V6.633c0-.377.224-.63.626-.63.347 0 .532.201.532.598v1.484h.49V6.48c0-.591-.326-.927-.856-.927-.374 0-.636.167-.757.446h-.04v-1.37h-.486v3.456zm3.909-2.116c.364 0 .601.253.613.644h-1.256c.028-.388.281-.644.644-.644zm.61 1.445c-.09.194-.294.301-.59.301-.393 0-.647-.276-.663-.712v-.027h1.756v-.172c0-.78-.418-1.253-1.11-1.253-.7 0-1.146.505-1.146 1.299 0 .794.436 1.283 1.148 1.283.569 0 .966-.274 1.078-.72h-.473zm-43.517 3.752c.012-.925.508-1.8 1.296-2.284a2.82 2.82 0 0 0-2.195-1.187c-.924-.097-1.82.553-2.29.553-.48 0-1.204-.543-1.984-.527a2.947 2.947 0 0 0-2.46 1.5c-1.064 1.842-.27 4.548.748 6.037.51.729 1.106 1.543 1.885 1.514.763-.031 1.048-.486 1.969-.486.912 0 1.18.486 1.975.468.819-.013 1.334-.732 1.826-1.468.367-.52.648-1.093.835-1.7a2.653 2.653 0 0 1-1.605-2.42zm-1.503-4.45a2.68 2.68 0 0 0 .614-1.92 2.727 2.727 0 0 0-1.765.913 2.573 2.573 0 0 0-.629 1.849 2.281 2.281 0 0 0 1.78-.842z" fill="#fff"/></svg>