<svg width="50" height="50" viewBox="0 0 50 50" fill="none" xmlns="http://www.w3.org/2000/svg"><path d="M50 24.985c-.149 8.626-1.25 15.616-5.384 19.602-3.985 4.134-11.005 5.264-19.601 5.383-8.626-.148-15.616-1.249-19.602-5.383C1.25 40.6.15 33.61 0 24.985.149 16.36 1.25 9.37 5.384 5.384 9.369 1.249 16.389.149 24.985 0c8.626.149 15.616 1.25 19.602 5.384C48.72 9.369 49.85 16.389 50 24.985z" fill="#FECC2F"/><path d="M17.728 26.74a2.885 2.885 0 1 0 0-5.77 2.885 2.885 0 0 0 0 5.77zm6.632 9.548a2.323 2.323 0 0 1-2.32 2.32h-.09a2.332 2.332 0 0 1-2.23-2.35c0-2.082-.565-3.48-1.606-3.926a1.193 1.193 0 0 0-.446-.09c-.15 0-.298.03-.447.09-1.01.476-1.576 1.874-1.576 3.926 0 1.28-.982 2.29-2.23 2.35h-.09c-.625 0-1.19-.238-1.636-.684a2.271 2.271 0 0 1-.684-1.636c0-8.656 6.633-8.745 6.692-8.745.03-.03 6.663.09 6.663 8.745z" fill="#DB3738"/><path d="M39.024 36.288a2.323 2.323 0 0 1-2.32 2.32 2.323 2.323 0 0 1-2.32-2.32c0-8.18-4.402-8.715-5.027-8.745-.624.03-5.026.565-5.026 8.745a2.323 2.323 0 0 1-2.32 2.32 2.323 2.323 0 0 1-2.32-2.32c0-.119 0-.238.03-.327.059-4.967 1.457-8.656 4.193-10.916a9.622 9.622 0 0 1 5.235-2.142h.447c.683.03 3.033.327 5.234 2.142 2.737 2.26 4.164 5.919 4.194 10.916v.327z" fill="#fff"/><path d="M29.358 21.951a4.967 4.967 0 1 0 0-9.934 4.967 4.967 0 0 0 0 9.934zm2.319 3.242c0 1.28-1.04 2.32-2.29 2.32-.178 0-5.056.209-5.056 8.745a2.323 2.323 0 0 1-2.32 2.32 2.323 2.323 0 0 1-2.32-2.32c0-.119 0-.238.03-.327.059-4.967 1.457-8.656 4.193-10.916a9.622 9.622 0 0 1 5.235-2.142h.357c1.22.12 2.171 1.13 2.171 2.32z" fill="#007AFF"/></svg>