<svg width="24" height="25" viewBox="0 0 24 25" fill="none" xmlns="http://www.w3.org/2000/svg"><path d="M16.755 2.032h-9.51c-1.159 0-1.738 0-2.206.163a3.046 3.046 0 0 0-1.881 1.936C3 4.613 3 5.21 3 6.402v14.005c0 .858.985 1.314 1.608.744a.946.946 0 0 1 1.284 0l.483.442a1.657 1.657 0 0 0 2.25 0 1.657 1.657 0 0 1 2.25 0 1.657 1.657 0 0 0 2.25 0 1.657 1.657 0 0 1 2.25 0 1.657 1.657 0 0 0 2.25 0l.483-.442a.946.946 0 0 1 1.284 0c.623.57 1.608.114 1.608-.744V6.402c0-1.193 0-1.79-.158-2.27a3.045 3.045 0 0 0-1.881-1.937c-.468-.163-1.047-.163-2.206-.163z" stroke="#0062CC" stroke-width="1.5"/><path d="M9.5 10.432l1.429 1.6 3.571-4" stroke="#0062CC" stroke-width="1.5" stroke-linecap="round" stroke-linejoin="round"/><path d="M7.5 15.533h9" stroke="#0062CC" stroke-width="1.5" stroke-linecap="round"/></svg>