<svg width="22" height="20" viewBox="0 0 22 20" fill="none" xmlns="http://www.w3.org/2000/svg"><path d="M11 14a3 3 0 1 0 0-6 3 3 0 0 0 0 6z" stroke="#0062CC" stroke-width="1.5"/><path d="M8.778 19h4.444c3.121 0 4.682 0 5.803-.735.484-.317.9-.726 1.226-1.204.749-1.1.749-2.633.749-5.697 0-3.065 0-4.597-.749-5.697a4.407 4.407 0 0 0-1.226-1.204c-.72-.473-1.622-.642-3.003-.702-.659 0-1.226-.49-1.355-1.125A2.064 2.064 0 0 0 12.634 1H9.366c-.988 0-1.839.685-2.033 1.636-.129.635-.696 1.125-1.355 1.125-1.38.06-2.282.23-3.003.702-.483.317-.9.726-1.225 1.204C1 6.767 1 8.299 1 11.364c0 3.064 0 4.596.749 5.697.324.476.74.885 1.226 1.204C4.096 19 5.657 19 8.778 19z" stroke="#0062CC" stroke-width="1.5"/><path d="M18 8h-1" stroke="#0062CC" stroke-width="1.5" stroke-linecap="round"/></svg>