<svg width="31" height="31" viewBox="0 0 31 31" fill="none" xmlns="http://www.w3.org/2000/svg"><mask id="mask0_4120_911" style="mask-type:alpha" maskUnits="userSpaceOnUse" x="0" y="0" width="31" height="31"><path fill="#D9D9D9" d="M0 0h31v31H0z"/></mask><g mask="url(#mask0_4120_911)"><path d="M3.23 27.174V5.564c0-.653.226-1.205.678-1.657a2.254 2.254 0 0 1 1.656-.678h19.872c.653 0 1.205.226 1.657.678.452.452.678 1.004.678 1.657v14.705c0 .653-.226 1.205-.678 1.657a2.254 2.254 0 0 1-1.657.678H7.8l-4.57 4.57zm1.937-4.68l1.828-1.828h18.441a.387.387 0 0 0 .286-.111.387.387 0 0 0 .112-.286V5.564a.387.387 0 0 0-.112-.286.387.387 0 0 0-.286-.112H5.564a.387.387 0 0 0-.285.112.387.387 0 0 0-.112.286v16.93zm0-16.93v-.398 17.329V5.564z" fill="#9CABB8"/></g></svg>