<svg width="302" height="196" viewBox="0 0 302 196" fill="none" xmlns="http://www.w3.org/2000/svg"><g clip-path="url(#clip0_13698_44687)"><rect width="302" height="196" rx="20" fill="#FFEA99"/><path opacity=".3" d="M-47.293 329.12c4.162-5.043 13.461-8.659 14.108-14.319.448-4.243-4.402-8.063-10.087-10.474-5.685-2.411-12.294-3.885-18.05-6.229-14.668-5.997-22.092-18.041-17.526-28.527 1.581-3.611 4.366-6.978 6.145-10.557 3.385-6.848 2.785-14.435-1.732-21.057-.44-.621-.846-1.257-1.285-1.877l-18.79-14.487c-27.854-21.476-22.186-52.808 12.657-69.975l.096-.047.095-.048c34.844-17.167 85.678-13.674 113.531 7.802l18.79 14.487c.885.401 1.77.801 2.687 1.186 9.46 4.155 21.329 6.222 32.944 5.679 6.056-.281 11.998-1.214 18.061-1.369 17.601-.436 35.058 6.665 41.286 16.82 2.443 3.976 3.32 8.275 5.884 12.224 2.563 3.949 7.566 7.726 14.354 8.371 9.068.873 16.84-3.921 25.769-5.328 12.094-1.905 27.92 6.514 29.501 14.133l-62.986 31.13-.192.094-126.029 62.095-.223.11-63.138 31.012c-11.71-2.629-21.522-13.978-15.87-20.849z" fill="#0E479D"/><path opacity=".3" d="M-165.612 238.912c7.509-1.762 16.988-.737 22.807-4.172 4.338-2.588 4.838-6.823 3.452-10.447-1.386-3.623-4.266-6.974-5.761-10.58-3.79-9.204 2.886-19.703 15.85-24.848 4.47-1.768 9.488-2.942 14.056-4.617 8.728-3.214 15.577-8.351 18.965-14.282.307-.561.65-1.121.957-1.682l1.638-16.203c2.428-24.019 35.993-42.28 74.962-40.783l.107.004.107.004c38.97 1.497 68.597 22.184 66.169 46.203l-1.638 16.203c.191.58.383 1.161.61 1.743 2.17 6.122 7.894 11.764 15.943 15.621 4.195 2.013 8.938 3.561 13.017 5.658 11.828 6.096 16.373 17.026 10.723 25.868-2.21 3.464-5.742 6.568-7.847 10.058-2.105 3.489-2.464 7.751 1.322 10.63 5.046 3.852 14.659 3.56 21.79 5.884 9.659 3.148 11.889 14.342 5.646 19.855l-70.537-2.643-.214-.008-140.952-5.413-.25-.01-70.523-2.774c-5.084-5.948-.619-16.863 9.601-19.269z" fill="#ED1B2E"/><path d="M151.409 74.665a3.3 3.3 0 0 0-.82 0 11.171 11.171 0 0 1-10.797-11.173 11.192 11.192 0 0 1 11.207-11.206 11.193 11.193 0 0 1 .41 22.379zm22.618 22.55a33.941 33.941 0 0 1-23.028 8.952c-8.883 0-16.947-3.383-23.028-8.952.341-3.212 2.391-6.355 6.047-8.815 9.362-6.218 24.669-6.218 33.962 0 3.656 2.46 5.706 5.603 6.047 8.815z" stroke="#B28F00" stroke-width="4" stroke-linecap="round" stroke-linejoin="round"/><path d="M151.001 106.167c18.87 0 34.166-15.297 34.166-34.167s-15.296-34.167-34.166-34.167c-18.871 0-34.167 15.297-34.167 34.167s15.296 34.167 34.167 34.167z" stroke="#B28F00" stroke-width="4" stroke-linecap="round" stroke-linejoin="round"/><path d="M83.363 137v-9.232h-3.728v-2.048h9.936v2.048h-3.728V137h-2.48zm8.604.176c-.587 0-1.104-.112-1.552-.336a2.803 2.803 0 0 1-1.072-.912 2.284 2.284 0 0 1-.384-1.296c0-.565.15-1.019.448-1.36.299-.341.784-.581 1.456-.72.672-.149 1.563-.224 2.672-.224h.576v-.272c0-.469-.107-.8-.32-.992-.213-.203-.576-.304-1.088-.304-.427 0-.88.069-1.36.208a6.07 6.07 0 0 0-1.408.592l-.656-1.616a5.219 5.219 0 0 1 1.008-.496 7.166 7.166 0 0 1 1.264-.336 6.55 6.55 0 0 1 1.248-.128c1.216 0 2.122.277 2.72.832.597.544.896 1.392.896 2.544V137h-2.256v-1.184c-.16.416-.432.747-.816.992-.374.245-.832.368-1.376.368zm.544-1.616c.448 0 .827-.155 1.136-.464.31-.309.464-.709.464-1.2v-.32h-.56c-.822 0-1.403.075-1.744.224-.341.139-.512.384-.512.736 0 .299.101.544.304.736.213.192.517.288.912.288zm5.706 4.32v-10.736h2.368v1.168c.213-.405.539-.725.976-.96a3.082 3.082 0 0 1 1.504-.368c.683 0 1.28.165 1.792.496.523.331.928.8 1.216 1.408.288.608.432 1.333.432 2.176 0 .843-.144 1.573-.432 2.192-.288.608-.693 1.083-1.216 1.424-.512.331-1.109.496-1.792.496a3.11 3.11 0 0 1-1.44-.336 2.533 2.533 0 0 1-.992-.896v3.936h-2.416zm4.128-4.512c.512 0 .928-.187 1.248-.56.32-.373.48-.955.48-1.744 0-.779-.16-1.349-.48-1.712-.32-.373-.736-.56-1.248-.56-.523 0-.944.187-1.264.56-.32.363-.48.933-.48 1.712 0 .789.16 1.371.48 1.744.32.373.741.56 1.264.56zm13.947 1.808c-2.208 0-3.312-1.072-3.312-3.216v-3.008h-1.488v-1.808h1.488v-2.304h2.416v2.304h2.32v1.808h-2.32v2.912c0 .448.101.784.304 1.008.213.224.549.336 1.008.336.138 0 .282-.016.432-.048.16-.032.33-.075.512-.128l.352 1.76a3.074 3.074 0 0 1-.8.272c-.31.075-.614.112-.912.112zm6.31 0c-.842 0-1.578-.165-2.208-.496a3.633 3.633 0 0 1-1.44-1.424c-.341-.619-.512-1.349-.512-2.192 0-.832.171-1.552.512-2.16a3.502 3.502 0 0 1 1.44-1.424c.63-.331 1.366-.496 2.208-.496.843 0 1.574.165 2.192.496.63.331 1.115.805 1.456 1.424.352.608.528 1.328.528 2.16 0 .843-.176 1.573-.528 2.192a3.592 3.592 0 0 1-1.456 1.424c-.618.331-1.349.496-2.192.496zm0-1.808c.512 0 .928-.187 1.248-.56.331-.373.496-.955.496-1.744 0-.779-.165-1.349-.496-1.712-.32-.373-.736-.56-1.248-.56s-.928.187-1.248.56c-.32.363-.48.933-.48 1.712 0 .789.16 1.371.48 1.744.32.373.736.56 1.248.56zm12.755 1.808c-.586 0-1.104-.112-1.552-.336a2.805 2.805 0 0 1-1.072-.912 2.284 2.284 0 0 1-.384-1.296c0-.565.15-1.019.448-1.36.299-.341.784-.581 1.456-.72.672-.149 1.563-.224 2.672-.224h.576v-.272c0-.469-.106-.8-.32-.992-.213-.203-.576-.304-1.088-.304-.426 0-.88.069-1.36.208a6.107 6.107 0 0 0-1.408.592l-.656-1.616a5.26 5.26 0 0 1 1.008-.496 7.189 7.189 0 0 1 1.264-.336 6.561 6.561 0 0 1 1.248-.128c1.216 0 2.123.277 2.72.832.598.544.896 1.392.896 2.544V137h-2.256v-1.184c-.16.416-.432.747-.816.992-.373.245-.832.368-1.376.368zm.544-1.616c.448 0 .827-.155 1.136-.464.31-.309.464-.709.464-1.2v-.32h-.56c-.821 0-1.402.075-1.744.224-.341.139-.512.384-.512.736 0 .299.102.544.304.736.214.192.518.288.912.288zm8.763 1.616c-.683 0-1.286-.165-1.808-.496-.512-.341-.912-.816-1.2-1.424-.288-.619-.432-1.349-.432-2.192 0-.843.144-1.568.432-2.176.288-.608.688-1.077 1.2-1.408.522-.331 1.125-.496 1.808-.496.522 0 1.002.112 1.44.336.437.224.768.523.992.896v-4.496h2.416V137h-2.368v-1.184a2.343 2.343 0 0 1-.992.992 2.996 2.996 0 0 1-1.488.368zm.72-1.808c.512 0 .928-.187 1.248-.56.33-.373.496-.955.496-1.744 0-.779-.166-1.349-.496-1.712-.32-.373-.736-.56-1.248-.56s-.928.187-1.248.56c-.32.363-.48.933-.48 1.712 0 .789.16 1.371.48 1.744.32.373.736.56 1.248.56zm9.045 1.808c-.682 0-1.285-.165-1.808-.496-.512-.341-.912-.816-1.2-1.424-.288-.619-.432-1.349-.432-2.192 0-.843.144-1.568.432-2.176.288-.608.688-1.077 1.2-1.408.523-.331 1.126-.496 1.808-.496a3.11 3.11 0 0 1 1.44.336c.438.224.768.523.992.896v-4.496h2.416V137h-2.368v-1.184a2.338 2.338 0 0 1-.992.992 2.99 2.99 0 0 1-1.488.368zm.72-1.808c.512 0 .928-.187 1.248-.56.331-.373.496-.955.496-1.744 0-.779-.165-1.349-.496-1.712-.32-.373-.736-.56-1.248-.56s-.928.187-1.248.56c-.32.363-.48.933-.48 1.712 0 .789.16 1.371.48 1.744.32.373.736.56 1.248.56zm13.099 1.808c-.587 0-1.104-.112-1.552-.336a2.805 2.805 0 0 1-1.072-.912 2.284 2.284 0 0 1-.384-1.296c0-.565.149-1.019.448-1.36.299-.341.784-.581 1.456-.72.672-.149 1.563-.224 2.672-.224h.576v-.272c0-.469-.107-.8-.32-.992-.213-.203-.576-.304-1.088-.304-.427 0-.88.069-1.36.208a6.089 6.089 0 0 0-1.408.592l-.656-1.616a5.202 5.202 0 0 1 1.008-.496 7.166 7.166 0 0 1 1.264-.336 6.545 6.545 0 0 1 1.248-.128c1.216 0 2.123.277 2.72.832.597.544.896 1.392.896 2.544V137h-2.256v-1.184c-.16.416-.432.747-.816.992-.373.245-.832.368-1.376.368zm.544-1.616c.448 0 .827-.155 1.136-.464.309-.309.464-.709.464-1.2v-.32h-.56c-.821 0-1.403.075-1.744.224-.341.139-.512.384-.512.736 0 .299.101.544.304.736.213.192.517.288.912.288zm10.159 4.32v-10.736h2.368v1.168c.214-.405.539-.725.976-.96.448-.245.95-.368 1.504-.368.683 0 1.28.165 1.792.496.523.331.928.8 1.216 1.408.288.608.432 1.333.432 2.176 0 .843-.144 1.573-.432 2.192-.288.608-.693 1.083-1.216 1.424-.512.331-1.109.496-1.792.496a3.116 3.116 0 0 1-1.44-.336 2.54 2.54 0 0 1-.992-.896v3.936h-2.416zm4.128-4.512c.512 0 .928-.187 1.248-.56.32-.373.48-.955.48-1.744 0-.779-.16-1.349-.48-1.712-.32-.373-.736-.56-1.248-.56-.522 0-.944.187-1.264.56-.32.363-.48.933-.48 1.712 0 .789.16 1.371.48 1.744.32.373.742.56 1.264.56zm5.638 1.632v-11.28h2.416v4.496a2.612 2.612 0 0 1 1.072-.912 3.28 3.28 0 0 1 1.456-.32c1.845 0 2.768 1.099 2.768 3.296V137h-2.416v-4.608c0-.544-.101-.933-.304-1.168-.203-.245-.501-.368-.896-.368-.512 0-.923.16-1.232.48-.299.32-.448.747-.448 1.28V137h-2.416zm13.292.176c-.843 0-1.579-.165-2.208-.496a3.62 3.62 0 0 1-1.44-1.424c-.342-.619-.512-1.349-.512-2.192 0-.832.17-1.552.512-2.16a3.49 3.49 0 0 1 1.44-1.424c.629-.331 1.365-.496 2.208-.496.842 0 1.573.165 2.192.496a3.477 3.477 0 0 1 1.456 1.424c.352.608.528 1.328.528 2.16 0 .843-.176 1.573-.528 2.192a3.604 3.604 0 0 1-1.456 1.424c-.619.331-1.35.496-2.192.496zm0-1.808c.512 0 .928-.187 1.248-.56.33-.373.496-.955.496-1.744 0-.779-.166-1.349-.496-1.712-.32-.373-.736-.56-1.248-.56s-.928.187-1.248.56c-.32.363-.48.933-.48 1.712 0 .789.16 1.371.48 1.744.32.373.736.56 1.248.56zm9.423 1.808c-2.208 0-3.312-1.072-3.312-3.216v-3.008h-1.488v-1.808h1.488v-2.304h2.416v2.304h2.32v1.808h-2.32v2.912c0 .448.102.784.304 1.008.214.224.55.336 1.008.336.139 0 .283-.016.432-.048.16-.032.331-.075.512-.128l.352 1.76c-.224.117-.49.208-.8.272a3.856 3.856 0 0 1-.912.112zm6.311 0c-.843 0-1.579-.165-2.208-.496a3.62 3.62 0 0 1-1.44-1.424c-.341-.619-.512-1.349-.512-2.192 0-.832.171-1.552.512-2.16a3.49 3.49 0 0 1 1.44-1.424c.629-.331 1.365-.496 2.208-.496.843 0 1.573.165 2.192.496a3.471 3.471 0 0 1 1.456 1.424c.352.608.528 1.328.528 2.16 0 .843-.176 1.573-.528 2.192a3.598 3.598 0 0 1-1.456 1.424c-.619.331-1.349.496-2.192.496zm0-1.808c.512 0 .928-.187 1.248-.56.331-.373.496-.955.496-1.744 0-.779-.165-1.349-.496-1.712-.32-.373-.736-.56-1.248-.56s-.928.187-1.248.56c-.32.363-.48.933-.48 1.712 0 .789.16 1.371.48 1.744.32.373.736.56 1.248.56zm-109.344 23.808c-.842 0-1.578-.165-2.208-.496a3.633 3.633 0 0 1-1.44-1.424c-.341-.619-.512-1.349-.512-2.192 0-.832.171-1.552.512-2.16a3.502 3.502 0 0 1 1.44-1.424c.63-.331 1.366-.496 2.208-.496.843 0 1.574.165 2.192.496.63.331 1.115.805 1.456 1.424.352.608.528 1.328.528 2.16 0 .843-.176 1.573-.528 2.192a3.592 3.592 0 0 1-1.456 1.424c-.618.331-1.349.496-2.192.496zm0-1.808c.512 0 .928-.187 1.248-.56.331-.373.496-.955.496-1.744 0-.779-.165-1.349-.496-1.712-.32-.373-.736-.56-1.248-.56s-.928.187-1.248.56c-.32.363-.48.933-.48 1.712 0 .789.16 1.371.48 1.744.32.373.736.56 1.248.56zm6.176 1.632v-6.048h-1.488v-1.808h1.488c.021-1.109.341-1.941.96-2.496.629-.565 1.584-.885 2.864-.96l.88-.064.144 1.76-.752.048c-.619.032-1.056.165-1.312.4-.245.224-.368.571-.368 1.04v.272h2.048v1.808h-2.048V159h-2.416zm10.563 2.88l1.504-3.312-3.232-7.424h2.544l1.968 4.992 2.032-4.992h2.4l-4.752 10.736h-2.464zm11.511-2.704c-.842 0-1.578-.165-2.208-.496a3.633 3.633 0 0 1-1.44-1.424c-.341-.619-.512-1.349-.512-2.192 0-.832.171-1.552.512-2.16a3.502 3.502 0 0 1 1.44-1.424c.63-.331 1.366-.496 2.208-.496.843 0 1.574.165 2.192.496.63.331 1.115.805 1.456 1.424.352.608.528 1.328.528 2.16 0 .843-.176 1.573-.528 2.192a3.592 3.592 0 0 1-1.456 1.424c-.618.331-1.349.496-2.192.496zm0-1.808c.512 0 .928-.187 1.248-.56.331-.373.496-.955.496-1.744 0-.779-.165-1.349-.496-1.712-.32-.373-.736-.56-1.248-.56s-.928.187-1.248.56c-.32.363-.48.933-.48 1.712 0 .789.16 1.371.48 1.744.32.373.736.56 1.248.56zm8.542 1.808c-1.002 0-1.744-.277-2.224-.832-.469-.555-.704-1.387-.704-2.496v-4.704h2.416v4.768c0 .928.4 1.392 1.2 1.392.459 0 .832-.16 1.12-.48.299-.331.448-.763.448-1.296v-4.384h2.416V159h-2.352v-1.072c-.522.832-1.296 1.248-2.32 1.248zm6.542-.176v-7.856h2.368v1.36c.373-.917 1.173-1.424 2.4-1.52l.704-.048.144 2.032-1.36.144c-1.195.117-1.792.725-1.792 1.824V159h-2.464zm14.871.176c-.854 0-1.6-.165-2.24-.496a3.562 3.562 0 0 1-1.456-1.44c-.342-.619-.512-1.349-.512-2.192 0-.843.17-1.568.512-2.176a3.392 3.392 0 0 1 1.456-1.392c.64-.331 1.386-.496 2.24-.496.501 0 1.008.075 1.52.224.512.149.928.363 1.248.64l-.672 1.664a3.075 3.075 0 0 0-.896-.496 2.655 2.655 0 0 0-.96-.192c-.63 0-1.12.197-1.472.592-.342.384-.512.933-.512 1.648 0 .704.17 1.259.512 1.664.352.395.842.592 1.472.592.298 0 .613-.059.944-.176a2.84 2.84 0 0 0 .912-.512l.672 1.664c-.32.277-.736.496-1.248.656a5.423 5.423 0 0 1-1.52.224zm3.816-.176v-11.28h2.416v4.496a2.619 2.619 0 0 1 1.072-.912c.438-.213.923-.32 1.456-.32 1.846 0 2.768 1.099 2.768 3.296V159h-2.416v-4.608c0-.544-.101-.933-.304-1.168-.202-.245-.501-.368-.896-.368-.512 0-.922.16-1.232.48-.298.32-.448.747-.448 1.28V159h-2.416zm9.42-9.376v-2.256h2.608v2.256h-2.608zm.096 9.376v-7.856h2.416V159h-2.416zm7.209.176c-1.013 0-1.755-.261-2.224-.784-.469-.533-.704-1.323-.704-2.368v-8.304h2.416v8.208c0 .853.379 1.28 1.136 1.28.117 0 .229-.005.336-.016.117-.011.229-.032.336-.064l-.032 1.872a4.535 4.535 0 0 1-1.264.176zm5.378 0c-.683 0-1.285-.165-1.808-.496-.512-.341-.912-.816-1.2-1.424-.288-.619-.432-1.349-.432-2.192 0-.843.144-1.568.432-2.176.288-.608.688-1.077 1.2-1.408.523-.331 1.125-.496 1.808-.496a3.11 3.11 0 0 1 1.44.336c.437.224.768.523.992.896v-4.496h2.416V159h-2.368v-1.184a2.338 2.338 0 0 1-.992.992 2.99 2.99 0 0 1-1.488.368zm.72-1.808c.512 0 .928-.187 1.248-.56.331-.373.496-.955.496-1.744 0-.779-.165-1.349-.496-1.712-.32-.373-.736-.56-1.248-.56s-.928.187-1.248.56c-.32.363-.48.933-.48 1.712 0 .789.16 1.371.48 1.744.32.373.736.56 1.248.56z" fill="#B28F00"/></g><defs><clipPath id="clip0_13698_44687"><rect width="302" height="196" rx="20" fill="#fff"/></clipPath></defs></svg>