<svg width="344" height="209" viewBox="0 0 344 209" fill="none" xmlns="http://www.w3.org/2000/svg"><g clip-path="url(#clip0_5736_30219)"><rect x=".5" width="343" height="209" rx="20" fill="#FFEA99"/><path opacity=".3" d="M-20.439 350.949c2.195-5.377 7.1-9.233 7.442-15.268.236-4.525-2.322-8.598-5.321-11.169-2.999-2.571-6.485-4.142-9.521-6.642-7.738-6.395-11.654-19.237-9.246-30.419.834-3.85 2.304-7.441 3.242-11.257 1.786-7.303 1.47-15.393-.914-22.455-.231-.661-.446-1.339-.678-2l-9.911-15.449c-14.693-22.9-11.704-56.31 6.677-74.616l.05-.05.05-.05c18.38-18.307 45.195-14.582 59.888 8.319l9.912 15.448c.467.427.933.854 1.417 1.264 4.99 4.431 11.251 6.635 17.378 6.056 3.195-.3 6.33-1.294 9.527-1.46 9.285-.465 18.494 7.107 21.78 17.936 1.288 4.24 1.75 8.823 3.103 13.034 1.352 4.211 3.991 8.238 7.572 8.926 4.783.932 8.883-4.181 13.593-5.681 6.379-2.031 14.728 6.946 15.562 15.07l-33.226 33.195-.1.1-66.481 66.214-.118.117-33.306 33.069c-6.176-2.803-11.353-14.905-8.37-22.232z" fill="#0E479D"/><path opacity=".3" d="M-64.116 232.716c3.48-1.554 7.883-.624 10.575-3.671 2.008-2.296 2.23-6.065 1.577-9.294-.652-3.228-1.996-6.216-2.699-9.429-1.781-8.2 1.292-17.534 7.297-22.089 2.07-1.566 4.396-2.602 6.512-4.085 4.043-2.844 7.21-7.404 8.768-12.678.141-.499.299-.997.44-1.496l.721-14.42c1.07-21.377 16.603-37.57 34.694-36.166a.829.829 0 0 1 .05.004.829.829 0 0 1 .049.004c18.09 1.404 31.89 19.875 30.822 41.251l-.721 14.421c.09.517.18 1.034.287 1.552 1.022 5.454 3.692 10.487 7.437 13.936 1.952 1.799 4.157 3.187 6.055 5.06 5.505 5.449 7.64 15.188 5.04 23.048-1.017 3.079-2.65 5.836-3.618 8.938-.968 3.103-1.125 6.896.639 9.466 2.351 3.438 6.812 3.196 10.128 5.278 4.49 2.82 5.552 12.789 2.668 17.685l-32.744-2.483-.1-.008-65.432-5.079-.116-.009-32.738-2.601c-2.375-5.304-.329-15.012 4.409-17.135z" fill="#ED1B2E"/><path d="M172.911 92.665a3.29 3.29 0 0 0-.82 0 11.17 11.17 0 0 1-10.797-11.172 11.192 11.192 0 0 1 11.207-11.207 11.193 11.193 0 0 1 .41 22.38zm22.618 22.55a33.942 33.942 0 0 1-23.028 8.952c-8.883 0-16.947-3.383-23.028-8.952.341-3.212 2.391-6.355 6.047-8.815 9.362-6.218 24.668-6.218 33.962 0 3.656 2.46 5.706 5.603 6.047 8.815z" stroke="#B28F00" stroke-width="4" stroke-linecap="round" stroke-linejoin="round"/><path d="M172.499 124.167c18.87 0 34.166-15.297 34.166-34.167s-15.296-34.167-34.166-34.167c-18.871 0-34.167 15.297-34.167 34.167s15.296 34.167 34.167 34.167z" stroke="#B28F00" stroke-width="4" stroke-linecap="round" stroke-linejoin="round"/><path d="M104.863 155v-9.232h-3.728v-2.048h9.936v2.048h-3.728V155h-2.48zm8.604.176c-.587 0-1.104-.112-1.552-.336a2.798 2.798 0 0 1-1.072-.912 2.284 2.284 0 0 1-.384-1.296c0-.565.149-1.019.448-1.36.298-.341.784-.581 1.456-.72.672-.149 1.562-.224 2.672-.224h.576v-.272c0-.469-.107-.8-.32-.992-.214-.203-.576-.304-1.088-.304-.427 0-.88.069-1.36.208a6.07 6.07 0 0 0-1.408.592l-.656-1.616a5.202 5.202 0 0 1 1.008-.496 7.143 7.143 0 0 1 1.264-.336 6.545 6.545 0 0 1 1.248-.128c1.216 0 2.122.277 2.72.832.597.544.896 1.392.896 2.544V155h-2.256v-1.184c-.16.416-.432.747-.816.992-.374.245-.832.368-1.376.368zm.544-1.616c.448 0 .826-.155 1.136-.464.309-.309.464-.709.464-1.2v-.32h-.56c-.822 0-1.403.075-1.744.224-.342.139-.512.384-.512.736 0 .299.101.544.304.736.213.192.517.288.912.288zm5.706 4.32v-10.736h2.368v1.168c.213-.405.539-.725.976-.96a3.082 3.082 0 0 1 1.504-.368c.683 0 1.28.165 1.792.496.523.331.928.8 1.216 1.408.288.608.432 1.333.432 2.176 0 .843-.144 1.573-.432 2.192-.288.608-.693 1.083-1.216 1.424-.512.331-1.109.496-1.792.496a3.11 3.11 0 0 1-1.44-.336 2.533 2.533 0 0 1-.992-.896v3.936h-2.416zm4.128-4.512c.512 0 .928-.187 1.248-.56.32-.373.48-.955.48-1.744 0-.779-.16-1.349-.48-1.712-.32-.373-.736-.56-1.248-.56-.523 0-.944.187-1.264.56-.32.363-.48.933-.48 1.712 0 .789.16 1.371.48 1.744.32.373.741.56 1.264.56zm13.947 1.808c-2.208 0-3.312-1.072-3.312-3.216v-3.008h-1.488v-1.808h1.488v-2.304h2.416v2.304h2.32v1.808h-2.32v2.912c0 .448.101.784.304 1.008.213.224.549.336 1.008.336.138 0 .282-.016.432-.048.16-.032.33-.075.512-.128l.352 1.76a3.074 3.074 0 0 1-.8.272c-.31.075-.614.112-.912.112zm6.31 0c-.842 0-1.578-.165-2.208-.496a3.633 3.633 0 0 1-1.44-1.424c-.341-.619-.512-1.349-.512-2.192 0-.832.171-1.552.512-2.16a3.502 3.502 0 0 1 1.44-1.424c.63-.331 1.366-.496 2.208-.496.843 0 1.574.165 2.192.496.63.331 1.115.805 1.456 1.424.352.608.528 1.328.528 2.16 0 .843-.176 1.573-.528 2.192a3.592 3.592 0 0 1-1.456 1.424c-.618.331-1.349.496-2.192.496zm0-1.808c.512 0 .928-.187 1.248-.56.331-.373.496-.955.496-1.744 0-.779-.165-1.349-.496-1.712-.32-.373-.736-.56-1.248-.56s-.928.187-1.248.56c-.32.363-.48.933-.48 1.712 0 .789.16 1.371.48 1.744.32.373.736.56 1.248.56zm12.755 1.808c-.586 0-1.104-.112-1.552-.336a2.805 2.805 0 0 1-1.072-.912 2.284 2.284 0 0 1-.384-1.296c0-.565.15-1.019.448-1.36.299-.341.784-.581 1.456-.72.672-.149 1.563-.224 2.672-.224h.576v-.272c0-.469-.106-.8-.32-.992-.213-.203-.576-.304-1.088-.304-.426 0-.88.069-1.36.208a6.107 6.107 0 0 0-1.408.592l-.656-1.616a5.26 5.26 0 0 1 1.008-.496 7.189 7.189 0 0 1 1.264-.336 6.561 6.561 0 0 1 1.248-.128c1.216 0 2.123.277 2.72.832.598.544.896 1.392.896 2.544V155h-2.256v-1.184c-.16.416-.432.747-.816.992-.373.245-.832.368-1.376.368zm.544-1.616c.448 0 .827-.155 1.136-.464.31-.309.464-.709.464-1.2v-.32h-.56c-.821 0-1.402.075-1.744.224-.341.139-.512.384-.512.736 0 .299.102.544.304.736.214.192.518.288.912.288zm8.763 1.616c-.683 0-1.286-.165-1.808-.496-.512-.341-.912-.816-1.2-1.424-.288-.619-.432-1.349-.432-2.192 0-.843.144-1.568.432-2.176.288-.608.688-1.077 1.2-1.408.522-.331 1.125-.496 1.808-.496.522 0 1.002.112 1.44.336.437.224.768.523.992.896v-4.496h2.416V155h-2.368v-1.184a2.343 2.343 0 0 1-.992.992 2.996 2.996 0 0 1-1.488.368zm.72-1.808c.512 0 .928-.187 1.248-.56.33-.373.496-.955.496-1.744 0-.779-.166-1.349-.496-1.712-.32-.373-.736-.56-1.248-.56s-.928.187-1.248.56c-.32.363-.48.933-.48 1.712 0 .789.16 1.371.48 1.744.32.373.736.56 1.248.56zm9.045 1.808c-.682 0-1.285-.165-1.808-.496-.512-.341-.912-.816-1.2-1.424-.288-.619-.432-1.349-.432-2.192 0-.843.144-1.568.432-2.176.288-.608.688-1.077 1.2-1.408.523-.331 1.126-.496 1.808-.496a3.11 3.11 0 0 1 1.44.336c.438.224.768.523.992.896v-4.496h2.416V155h-2.368v-1.184a2.338 2.338 0 0 1-.992.992 2.99 2.99 0 0 1-1.488.368zm.72-1.808c.512 0 .928-.187 1.248-.56.331-.373.496-.955.496-1.744 0-.779-.165-1.349-.496-1.712-.32-.373-.736-.56-1.248-.56s-.928.187-1.248.56c-.32.363-.48.933-.48 1.712 0 .789.16 1.371.48 1.744.32.373.736.56 1.248.56zm13.099 1.808c-.587 0-1.104-.112-1.552-.336a2.805 2.805 0 0 1-1.072-.912 2.284 2.284 0 0 1-.384-1.296c0-.565.149-1.019.448-1.36.299-.341.784-.581 1.456-.72.672-.149 1.563-.224 2.672-.224h.576v-.272c0-.469-.107-.8-.32-.992-.213-.203-.576-.304-1.088-.304-.427 0-.88.069-1.36.208a6.089 6.089 0 0 0-1.408.592l-.656-1.616a5.202 5.202 0 0 1 1.008-.496 7.166 7.166 0 0 1 1.264-.336 6.545 6.545 0 0 1 1.248-.128c1.216 0 2.123.277 2.72.832.597.544.896 1.392.896 2.544V155h-2.256v-1.184c-.16.416-.432.747-.816.992-.373.245-.832.368-1.376.368zm.544-1.616c.448 0 .827-.155 1.136-.464.309-.309.464-.709.464-1.2v-.32h-.56c-.821 0-1.403.075-1.744.224-.341.139-.512.384-.512.736 0 .299.101.544.304.736.213.192.517.288.912.288zm10.159 4.32v-10.736h2.368v1.168c.214-.405.539-.725.976-.96.448-.245.95-.368 1.504-.368.683 0 1.28.165 1.792.496.523.331.928.8 1.216 1.408.288.608.432 1.333.432 2.176 0 .843-.144 1.573-.432 2.192-.288.608-.693 1.083-1.216 1.424-.512.331-1.109.496-1.792.496a3.116 3.116 0 0 1-1.44-.336 2.54 2.54 0 0 1-.992-.896v3.936h-2.416zm4.128-4.512c.512 0 .928-.187 1.248-.56.32-.373.48-.955.48-1.744 0-.779-.16-1.349-.48-1.712-.32-.373-.736-.56-1.248-.56-.522 0-.944.187-1.264.56-.32.363-.48.933-.48 1.712 0 .789.16 1.371.48 1.744.32.373.742.56 1.264.56zm5.638 1.632v-11.28h2.416v4.496a2.612 2.612 0 0 1 1.072-.912 3.28 3.28 0 0 1 1.456-.32c1.845 0 2.768 1.099 2.768 3.296V155h-2.416v-4.608c0-.544-.101-.933-.304-1.168-.203-.245-.501-.368-.896-.368-.512 0-.923.16-1.232.48-.299.32-.448.747-.448 1.28V155h-2.416zm13.292.176c-.843 0-1.579-.165-2.208-.496a3.62 3.62 0 0 1-1.44-1.424c-.342-.619-.512-1.349-.512-2.192 0-.832.17-1.552.512-2.16a3.49 3.49 0 0 1 1.44-1.424c.629-.331 1.365-.496 2.208-.496.842 0 1.573.165 2.192.496a3.477 3.477 0 0 1 1.456 1.424c.352.608.528 1.328.528 2.16 0 .843-.176 1.573-.528 2.192a3.604 3.604 0 0 1-1.456 1.424c-.619.331-1.35.496-2.192.496zm0-1.808c.512 0 .928-.187 1.248-.56.33-.373.496-.955.496-1.744 0-.779-.166-1.349-.496-1.712-.32-.373-.736-.56-1.248-.56s-.928.187-1.248.56c-.32.363-.48.933-.48 1.712 0 .789.16 1.371.48 1.744.32.373.736.56 1.248.56zm9.423 1.808c-2.208 0-3.312-1.072-3.312-3.216v-3.008h-1.488v-1.808h1.488v-2.304h2.416v2.304h2.32v1.808h-2.32v2.912c0 .448.102.784.304 1.008.214.224.55.336 1.008.336.139 0 .283-.016.432-.048.16-.032.331-.075.512-.128l.352 1.76c-.224.117-.49.208-.8.272a3.856 3.856 0 0 1-.912.112zm6.311 0c-.843 0-1.579-.165-2.208-.496a3.62 3.62 0 0 1-1.44-1.424c-.341-.619-.512-1.349-.512-2.192 0-.832.171-1.552.512-2.16a3.49 3.49 0 0 1 1.44-1.424c.629-.331 1.365-.496 2.208-.496.843 0 1.573.165 2.192.496a3.471 3.471 0 0 1 1.456 1.424c.352.608.528 1.328.528 2.16 0 .843-.176 1.573-.528 2.192a3.598 3.598 0 0 1-1.456 1.424c-.619.331-1.349.496-2.192.496zm0-1.808c.512 0 .928-.187 1.248-.56.331-.373.496-.955.496-1.744 0-.779-.165-1.349-.496-1.712-.32-.373-.736-.56-1.248-.56s-.928.187-1.248.56c-.32.363-.48.933-.48 1.712 0 .789.16 1.371.48 1.744.32.373.736.56 1.248.56z" fill="#B28F00"/></g><defs><clipPath id="clip0_5736_30219"><rect x=".5" width="343" height="209" rx="20" fill="#fff"/></clipPath></defs></svg>