<svg width="48" height="46" viewBox="0 0 48 46" fill="none" xmlns="http://www.w3.org/2000/svg"><path d="M47.5 23c0 12.407-10.501 22.5-23.5 22.5S.5 35.407.5 23 11.001.5 24 .5 47.5 10.593 47.5 23z" stroke="#CCA300"/><path d="M20.212 32.897l.002.001a9.94 9.94 0 0 0 1.763.562 8.99 8.99 0 0 0 2.152.218v-.816h-.114c-.407 0-.865-.028-1.37-.082a11.131 11.131 0 0 1-1.738-.341l-1.142-.312.499-1.074a4.907 4.907 0 0 1 1.69-1.999l.568.823-.568-.823c.777-.536 1.667-.795 2.633-.795h.037a3.076 3.076 0 0 1-.495-1.705 3.1 3.1 0 0 1 .924-2.24l-4.84 8.583zm0 0c-.744-.321-1.31-.696-1.726-1.106-.365-.36-.486-.688-.486-1.01v-6.266c0-.281.097-.565.379-.878.333-.37.78-.718 1.365-1.036a8.567 8.567 0 0 1 2.026-.746 9.799 9.799 0 0 1 4.55 0c.753.179 1.428.43 2.032.749.603.318 1.049.664 1.367 1.025.274.31.372.597.372.885v.537m-9.879 7.846l9.879-7.846m0 0a3.25 3.25 0 0 0-.557-.737l.557.737zm-8.92 6.423c.352.096.687.172 1.004.229a3.11 3.11 0 0 0-.097.192l-.907-.421zm0 0c.15-.326.339-.621.563-.887-.098-.024-.198-.05-.3-.078l-.263.965zm6.121-8.093c.866 0 1.63.32 2.242.933l-2.242-.933zm0 0c-.865 0-1.63.32-2.239.934l2.24-.934zm.684 6.283a1.04 1.04 0 0 0-.015-.015 3.099 3.099 0 0 0 1.57-.86 3.23 3.23 0 0 0 .56-.738v2.731c0 .156-.033.31-.109.472-.08.172-.203.35-.382.53-.095.095-.2.19-.315.284-.182-.907-.621-1.716-1.31-2.404zm-2.331-11.81c-.442.437-.955.65-1.6.65-.668 0-1.18-.216-1.608-.645-.429-.432-.643-.946-.643-1.607 0-.646.211-1.16.646-1.602.427-.433.938-.65 1.604-.65.642 0 1.154.213 1.597.656.444.443.656.954.656 1.591 0 .661-.216 1.175-.652 1.607z" stroke="#CCA300" stroke-width="2"/></svg>