<svg width="36" height="37" viewBox="0 0 36 37" fill="none" xmlns="http://www.w3.org/2000/svg"><g clip-path="url(#clip0_13736_44938)"><g clip-path="url(#clip1_13736_44938)"><g clip-path="url(#clip2_13736_44938)" stroke="#030F1A" stroke-width="3"><path d="M16.562 32.794a5.212 5.212 0 0 0-.083.518l-.002.02c-.019.154-.027.21-.037.252a1.503 1.503 0 0 0-.042.35v.072c0 1.053.82 1.994 1.975 1.994H32.21c1.181 0 1.828-.923 2.001-1.644a1.47 1.47 0 0 0 .042-.35c0-.532-.103-.96-.17-1.24l-.008-.028c-.307-1.28-1.254-2.47-2.669-2.856a23.588 23.588 0 0 0-.39-.12c-.537-.166-1.027-.316-1.487-.503l-.115-.063-.002-.001c-.089-.05-.2-.111-.312-.171a12.294 12.294 0 0 0-.395-.206l-.044-.03-.005-.004h-.001l-.017-.015c-.184-.157-.291-.456-.172-.794.113-.183.235-.37.374-.584l.092-.14c.118-.182.244-.378.375-.59.277-.18.486-.42.628-.656.21-.35.302-.726.349-.988a3.09 3.09 0 0 0 .052-.239c.016-.09.028-.177.035-.233l.002-.009c.009-.067.013-.099.018-.124v-.003c.02-.063.034-.127.044-.193.038-.234.11-.732-.04-1.252a2.052 2.052 0 0 0-.348-.691v-.554a4.017 4.017 0 0 0-1.096-2.734c-.05-.052-.103-.1-.159-.143a5.642 5.642 0 0 0-3.826-1.165c-.477.007-.925.1-1.226.163a12.216 12.216 0 0 1-.075.016c-1.887.437-3.139 2.06-3.195 3.942a3.65 3.65 0 0 0-.032.562 1.983 1.983 0 0 0-.229.369 2.13 2.13 0 0 0-.138 1.411 3.991 3.991 0 0 0 .037.317v.008a4.756 4.756 0 0 1 .021.16c0 .092.01.182.027.272l.006.03c.028.149.063.332.106.49.046.17.142.477.376.77.225.28.487.44.699.535.18.277.34.533.507.798.116.185.234.374.364.577.023.343-.125.63-.284.767a9.345 9.345 0 0 0-.416.196c-.122.06-.238.12-.325.165a36.82 36.82 0 0 0-.956.323l-.012.004c-.35.121-.673.233-.977.329-1.324.361-2.43 1.487-2.682 2.913z" stroke-linecap="round" stroke-linejoin="round"/><path d="M26.45 18.992V7.604a2 2 0 0 0-2-2H7.07a2 2 0 0 0-2 2v24.69a2 2 0 0 0 2 2h9.759"/></g></g></g><defs><clipPath id="clip0_13736_44938"><path fill="#fff" transform="translate(0 .5)" d="M0 0h36v36H0z"/></clipPath><clipPath id="clip1_13736_44938"><path fill="#fff" transform="translate(4 4.5)" d="M0 0h31v32H0z"/></clipPath><clipPath id="clip2_13736_44938"><path fill="#fff" transform="translate(4 4.5)" d="M0 0h31v32H0z"/></clipPath></defs></svg>