<svg width="120" height="120" viewBox="0 0 120 120" fill="none" xmlns="http://www.w3.org/2000/svg"><rect width="120" height="120" rx="60" fill="#F2F2F2"/><g clip-path="url(#clip0_5434_20289)"><g clip-path="url(#clip1_5434_20289)" stroke="#9CABB8" stroke-width="2.5"><path d="M55.787 83.668a1.25 1.25 0 0 0-.037.3v.13c0 1.197.933 2.153 2.145 2.153h26.082c1.243 0 2.012-.947 2.236-1.852.025-.098.037-.2.037-.3 0-.799-.159-1.44-.285-1.947l-.007-.03c-.477-1.925-1.922-3.605-3.946-4.128a171.78 171.78 0 0 0-.726-.217c-1.05-.312-2.088-.62-3.054-1.006l-.277-.147a67.919 67.919 0 0 0-.605-.322 21.835 21.835 0 0 0-.585-.297 5.96 5.96 0 0 0-.216-.1l-.003-.003a5.14 5.14 0 0 0-.175-.122l-.007-.004a3.314 3.314 0 0 1-.096-.066 1.23 1.23 0 0 0-.061-.054c-.922-.76-1.22-2.04-.712-3.22.246-.393.51-.787.801-1.22l.169-.25c.285-.426.588-.882.896-1.379.429-.183.75-.503.966-.851.274-.441.403-.953.476-1.369.078-.27.117-.546.142-.725l.005-.034c.036-.253.055-.36.077-.427a1.24 1.24 0 0 0 .046-.189c.068-.406.149-1.04-.035-1.656a2.205 2.205 0 0 0-.715-1.09v-1.584a5.769 5.769 0 0 0-1.64-3.974 1.246 1.246 0 0 0-.134-.117c-1.784-1.349-3.989-1.938-6.167-1.8-.75.005-1.478.152-2.074.272l-.048.01-.026.005c-2.834.636-4.76 3.02-4.812 5.874a5.47 5.47 0 0 0-.047 1.16c.005.109.01.208.016.301a2.178 2.178 0 0 0-.607.744c-.29.586-.265 1.197-.123 1.726.013.218.043.43.065.584l.004.033c.036.25.052.382.052.469 0 .082.008.163.024.243l.007.038c.058.29.114.573.18.806.068.245.182.573.427.87.265.32.584.487.85.589.086.033.179.063.273.09.468.687.864 1.297 1.267 1.92a152.116 152.116 0 0 0 .794 1.212 8.116 8.116 0 0 0 .065.161c.216 1.257-.328 2.52-1.268 3.127-.266.104-.605.263-.871.39-.28.135-.548.269-.709.35-.625.191-1.274.41-1.904.62l-.01.004a67.68 67.68 0 0 1-1.919.625c-1.943.503-3.597 2.127-3.957 4.176a7.775 7.775 0 0 0-.14.848l-.004.024c-.033.27-.057.453-.1.627zm10.79-11.024l-.001-.002v.002z" stroke-linecap="round" stroke-linejoin="round"/><path d="M72.552 55.5V37.933a4 4 0 0 0-4-4h-30.62a4 4 0 0 0-4 4v42.206a4 4 0 0 0 4 4H56.5"/></g></g><defs><clipPath id="clip0_5434_20289"><path fill="#fff" transform="translate(32 32)" d="M0 0h56v56H0z"/></clipPath><clipPath id="clip1_5434_20289"><path fill="#fff" transform="translate(32 32)" d="M0 0h56v56H0z"/></clipPath></defs></svg>