<svg width="16" height="16" viewBox="0 0 16 16" fill="none" xmlns="http://www.w3.org/2000/svg"><g clip-path="url(#clip0_7854_27320)" stroke="#fff"><path d="M6.752 14.193a2.291 2.291 0 0 0-.04.243l-.001.008c-.01.075-.015.116-.024.153a.5.5 0 0 0-.015.12v.036a.74.74 0 0 0 .745.748h7.142c.432 0 .691-.33.765-.627.01-.04.014-.08.014-.12 0-.239-.047-.43-.081-.569l-.003-.01c-.143-.575-.575-1.084-1.191-1.245l-.2-.06a9.665 9.665 0 0 1-.812-.266 14.856 14.856 0 0 1-.234-.125 6.24 6.24 0 0 0-.213-.107 1.742 1.742 0 0 0-.04-.027l-.002-.001-.015-.01a.585.585 0 0 1-.17-.7 12.556 12.556 0 0 1 .256-.389c.07-.105.146-.219.223-.342a.754.754 0 0 0 .29-.273 1.23 1.23 0 0 0 .15-.422c.023-.084.034-.165.04-.21l.002-.011.011-.072.004-.02v.002a1.176 1.176 0 0 0 .005-.6.766.766 0 0 0-.19-.322v-.366a1.74 1.74 0 0 0-.495-1.2.492.492 0 0 0-.053-.046 2.686 2.686 0 0 0-1.79-.525c-.22.003-.43.045-.59.077l-.016.004-.01.002a1.819 1.819 0 0 0-1.441 1.748c-.02.13-.018.247-.013.339v.008a.744.744 0 0 0-.146.2.812.812 0 0 0-.049.569c.005.06.013.118.018.155l.002.01a2.538 2.538 0 0 1 .012.107.5.5 0 0 0 .01.097l.002.013c.016.077.032.16.052.23a.702.702 0 0 0 .477.516c.113.167.211.319.312.474a42.562 42.562 0 0 0 .212.325l.005.012c.04.276-.08.543-.268.672a4.075 4.075 0 0 0-.234.105c-.071.034-.14.068-.184.091-.17.052-.344.11-.512.167l-.004.001c-.181.062-.354.12-.518.17-.583.152-1.083.639-1.195 1.263zm2.97-2.407zm-.074-.11zm2.892.652h.001z" stroke-linecap="round" stroke-linejoin="round"/><path d="M11.585 7.246V2.552a2 2 0 0 0-2-2H2.551a2 2 0 0 0-2 2v10.345a2 2 0 0 0 2 2H6.62"/></g><defs><clipPath id="clip0_7854_27320"><path fill="#fff" d="M0 0h16v16H0z"/></clipPath></defs></svg>