<svg width="58" height="58" viewBox="0 0 58 58" fill="none" xmlns="http://www.w3.org/2000/svg"><path d="M44.03 9.157a13.37 13.37 0 0 0-4.644.83 2.313 2.313 0 0 0-1.514 2.324c.018.25.435 6.126 2.651 12.049 2.216 5.931 5.392 10.086 5.528 10.263a2.306 2.306 0 0 0 2.624.761c7-2.565 10.612-10.345 8.052-17.346-1.944-5.31-7.046-8.88-12.697-8.88z" fill="#FCC21B"/><path d="M26.765 1.481c-1.826 0-3.611.367-5.301 1.088a13.43 13.43 0 0 0-7.241 7.395 13.424 13.424 0 0 0 .113 10.345 2.306 2.306 0 0 0 2.347 1.395c.222-.022 5.424-.548 11.27-2.995 5.831-2.438 10.403-6.158 10.594-6.316a2.307 2.307 0 0 0 .657-2.696A13.503 13.503 0 0 0 26.765 1.48z" fill="#FCC21B"/><path d="M35.13 22.652a.685.685 0 0 0-.398-.49l-1.7-.738a.704.704 0 0 0-.715.095.695.695 0 0 0-.24.684c0 .01.213 1.12-.408 2.048-.449.666-1.237 1.101-2.347 1.296-2.955.521-3.285 2.438-3.521 3.834-.227 1.323-.385 1.916-1.726 2.043-1.491.14-2.588.698-3.263 1.659-1.083 1.531-.607 3.493-.589 3.575.05.208.2.38.399.466l1.699.74a.694.694 0 0 0 .952-.797c0-.015-.336-1.442.38-2.448.435-.608 1.192-.97 2.257-1.07 2.46-.235 2.75-1.944 2.963-3.19.227-1.314.399-2.351 2.393-2.7 1.495-.263 2.592-.897 3.258-1.89.951-1.432.625-3.05.607-3.117z" fill="#ED6C30"/><path d="M40.523 42.385c-1.042-.856-.842-1.432-.294-2.66.584-1.291 1.382-3.067-.784-5.147-.806-.775-1.219-1.577-1.223-2.375-.01-1.128.797-1.935.802-1.944a.699.699 0 0 0 .18-.697.688.688 0 0 0-.538-.48l-1.822-.336a.7.7 0 0 0-.607.181c-.045.05-1.228 1.21-1.224 2.928 0 1.191.562 2.329 1.65 3.384 1.459 1.4 1.029 2.361.48 3.58-.516 1.155-1.228 2.732.68 4.3.83.68 1.26 1.4 1.278 2.148.036 1.237-1.038 2.234-1.047 2.238a.696.696 0 0 0-.204.703.686.686 0 0 0 .544.494l1.821.335a.573.573 0 0 0 .123.014.722.722 0 0 0 .466-.177c.064-.059 1.555-1.418 1.51-3.294-.037-1.17-.635-2.243-1.79-3.195zm-9.905-.272c1.006-1.744.453-3.294.43-3.362a.672.672 0 0 0-.393-.399l-1.623-.652a.688.688 0 0 0-.734.145.7.7 0 0 0-.176.734c.013.04.344 1.033-.327 2.188-.308.526-.698.72-1.196.966-.566.276-1.273.62-1.7 1.536-.398.852-.294 1.676-.208 2.406.082.666.15 1.237-.122 1.803-.285.607-.775.911-1.341 1.264-.562.35-1.197.744-1.654 1.473-.39.62-.435 1.328-.48 2.016-.078 1.12-.168 1.831-1.142 2.33a.691.691 0 1 0 .054 1.26l1.622.652a.693.693 0 0 0 .57-.027c1.723-.875 1.827-2.375 1.895-3.471.036-.54.068-1.047.277-1.369.285-.462.72-.725 1.214-1.038.657-.412 1.396-.87 1.858-1.844.444-.933.34-1.803.24-2.569-.077-.62-.14-1.16.09-1.65.209-.452.504-.611 1.052-.878.575-.281 1.282-.621 1.794-1.514zm-19.81-7.77c.77-.028 1.644-.064 2.528-.68.847-.594 1.183-1.396 1.486-2.112.245-.58.453-1.079.897-1.391.454-.317.875-.272 1.346-.24.186.013.376.022.562.022.413 0 1.038-.045 1.74-.453 1.74-1.01 2.026-2.637 2.04-2.705a.712.712 0 0 0-.141-.544l-1.088-1.373a.691.691 0 1 0-1.223.317c-.005.01-.204 1.056-1.369 1.731-.321.19-.625.268-1.042.268-.159 0-.317-.01-.476-.018a7.15 7.15 0 0 0-.539-.023c-.453 0-1.051.059-1.694.517-.77.543-1.088 1.31-1.374 1.989-.258.616-.484 1.146-1 1.509-.55.38-1.125.403-1.79.43-.658.027-1.405.055-2.167.462-.643.35-1.037.938-1.413 1.51-.599.906-1.015 1.458-2.012 1.458l-.136-.004a.703.703 0 0 0-.653.376.692.692 0 0 0 .077.747l1.088 1.373c.127.154.312.25.507.259.068.004.136.009.204.009 1.79 0 2.588-1.201 3.168-2.08.294-.449.58-.875.915-1.056.467-.258.974-.276 1.559-.299z" fill="#D7598B"/><path d="M17.318 39.965v-2.134a.693.693 0 0 0-.693-.693h-2.139a.693.693 0 0 0-.693.693v2.134a.69.69 0 0 0 .693.693h2.139a.693.693 0 0 0 .693-.693z" fill="#ED6C30"/><path d="M8.832 23.3l-1.509 1.508a.69.69 0 0 0 0 .98L8.832 27.3a.71.71 0 0 0 .49.204.675.675 0 0 0 .489-.204l1.513-1.514a.69.69 0 0 0 0-.979L9.811 23.3a.69.69 0 0 0-.979 0z" fill="#40C0E7"/><path d="M4.618 27.609a.686.686 0 0 0 0-.979l-1.514-1.513a.715.715 0 0 0-.978 0L.616 26.63a.698.698 0 0 0-.208.49.69.69 0 0 0 .209.489l1.509 1.509a.691.691 0 0 0 .978 0l1.514-1.51z" fill="#ED6C30"/><path d="M12.384 42.141a.712.712 0 0 0-.984 0L9.891 43.65a.695.695 0 0 0 0 .983l1.51 1.51a.69.69 0 0 0 .978 0l1.509-1.51a.695.695 0 0 0 0-.983l-1.504-1.509zM31.07 50.71a.695.695 0 0 0-.984 0l-1.418 1.418a.695.695 0 0 0 0 .983l1.418 1.419a.69.69 0 0 0 .979 0l1.418-1.419a.695.695 0 0 0 0-.983L31.07 50.71zm19.207-9.516a.69.69 0 0 0 .98 0l1.422-1.418a.697.697 0 0 0 0-.979l-1.423-1.418a.69.69 0 0 0-.979 0l-1.418 1.418a.69.69 0 0 0 0 .979l1.418 1.418zm-4.413 9.815a.695.695 0 0 0-.983 0l-1.419 1.418a.703.703 0 0 0 0 .983l1.419 1.419a.72.72 0 0 0 .494.203.69.69 0 0 0 .489-.203l1.418-1.419a.695.695 0 0 0 0-.983l-1.418-1.418zm-25.733-3.584V45.29a.696.696 0 0 0-.693-.693H17.3a.693.693 0 0 0-.693.693v2.135a.69.69 0 0 0 .693.693h2.139c.38 0 .693-.313.693-.694z" fill="#40C0E7"/><path d="M33.032 44.66h-2.007a.693.693 0 0 0-.694.693v2.008c0 .38.313.693.694.693h2.007c.38 0 .693-.313.693-.693v-2.008a.69.69 0 0 0-.693-.693zm-21.075 5.198H9.818a.696.696 0 0 0-.693.693v2.134c0 .38.313.693.693.693h2.139a.693.693 0 0 0 .693-.693v-2.134a.69.69 0 0 0-.693-.694z" fill="#ED6C30"/><path d="M5.781 43.65a.69.69 0 0 0-.978 0l-1.51 1.513a.667.667 0 0 0-.203.489c0 .186.072.362.204.49l1.509 1.508a.69.69 0 0 0 .978 0l1.51-1.509a.69.69 0 0 0 0-.978l-1.51-1.514z" fill="#40C0E7"/><path d="M2.524 19.199c.87.258 1.826.063 2.579-.15.598-.168 1.16-.304 1.645-.159.48.136.684.408 1.028.907.358.516.802 1.16 1.763 1.536a4.452 4.452 0 0 0 2.066.29.7.7 0 0 0 .62-.662l.064-1.685a.702.702 0 0 0-.208-.508.738.738 0 0 0-.517-.213 2.96 2.96 0 0 1-1.119-.213c-.566-.222-.816-.58-1.128-1.037-.363-.522-.811-1.165-1.777-1.45-.802-.236-1.662-.055-2.406.154-.643.18-1.25.321-1.808.154-.348-.105-.643-.29-.965-.612a.707.707 0 0 0-.58-.19.69.69 0 0 0-.507.34l-.77 1.314a.69.69 0 0 0 .076.806c.454.517 1.02 1.097 1.944 1.378zm54.738 31.587c-.14-.086-.258-.095-.39-.113-1.427-.15-2.664-.63-3.58-1.364 2.003-.988 2.792-2.9 2.688-4.065 0-.045-.005-.104-.014-.163-.15-1.681-1.183-2.764-2.633-2.764-.358 0-.738.063-1.16.19-.53.159-2.061.626-2.868 3.743-1.01-.716-1.826-1.849-2.338-3.28-.045-.132-.082-.24-.2-.354a.715.715 0 0 0-.978 0l-1.5 1.504a.687.687 0 0 0-.036.938c-.068-.081-.096-.14-.091-.122.988 2.791 2.945 4.6 5.392 5.007 1.002 2.202 3.186 3.625 6.113 3.933.045.01.086.01.131.01a.7.7 0 0 0 .594-.332l1.105-1.808a.715.715 0 0 0-.235-.96zm-4.454-4.4c-.331.181-.662.33-.947.44a6.09 6.09 0 0 1 .027-1.06c.036-.467.616-.984 1.11-.984a.622.622 0 0 1 .616.643c-.013.34-.299.68-.806.961z" fill="#ED6C30"/></svg>