<svg width="22" height="22" viewBox="0 0 22 22" fill="none" xmlns="http://www.w3.org/2000/svg"><path d="M7 0C3.13 0 0 3.13 0 7v8c0 3.87 3.13 7 7 7h8c3.87 0 7-3.13 7-7V7c0-3.87-3.13-7-7-7H7zm0 1h7.5v20H7c-3.333 0-6-2.668-6-6V7c0-3.333 2.667-6 6-6zm8.5.025A5.97 5.97 0 0 1 21 7v.5h-5.5V1.025zm0 7.475H21v5h-5.5v-5zm0 6H21v.5a5.97 5.97 0 0 1-5.5 5.974V14.5z" fill="#000"/><path d="M8 6.5c-1.651 0-3 1.349-3 3a2.99 2.99 0 0 0 .879 2.116A4 4 0 0 0 4 15a.5.5 0 0 0 1 0 2.987 2.987 0 0 1 1.81-2.748 2.973 2.973 0 0 0 2.381 0A2.987 2.987 0 0 1 11 15a.5.5 0 0 0 1 0 4 4 0 0 0-1.879-3.384A2.99 2.99 0 0 0 11 9.5c0-1.651-1.349-3-3-3zm0 1c1.11 0 2 .89 2 2 0 1.11-.89 2-2 2-1.11 0-2-.89-2-2 0-1.11.89-2 2-2z" fill="#000"/></svg>