<svg width="48" height="48" viewBox="0 0 48 48" fill="none" xmlns="http://www.w3.org/2000/svg"><path d="M24.001 47.333C11.114 47.333.668 36.886.668 23.999S11.114.666 24.001.666c12.887 0 23.334 10.446 23.334 23.333 0 12.887-10.447 23.334-23.334 23.334zm0-4.667a18.666 18.666 0 1 0 0-37.333 18.666 18.666 0 0 0 0 37.333zm0-30.333a2.333 2.333 0 0 1 2.334 2.333v11.667a2.333 2.333 0 1 1-4.667 0V14.666a2.333 2.333 0 0 1 2.333-2.333zm0 23.333a2.333 2.333 0 1 1 0-4.667 2.333 2.333 0 0 1 0 4.667z" fill="#DB3738"/></svg>