<svg width="16" height="16" viewBox="0 0 16 16" fill="none" xmlns="http://www.w3.org/2000/svg"><path d="M7.999 5.5v2.666m0 2.667h.006M1.332 5.848v4.636c0 .163 0 .245.018.321a.666.666 0 0 0 .08.193c.042.067.1.125.214.24l3.282 3.282c.116.116.173.173.24.214.06.037.125.064.193.08.077.019.158.019.322.019h4.636c.163 0 .245 0 .321-.019a.668.668 0 0 0 .193-.08 1.43 1.43 0 0 0 .24-.214l3.282-3.282c.115-.115.173-.173.214-.24a.664.664 0 0 0 .08-.193c.018-.076.018-.158.018-.32V5.847c0-.163 0-.245-.018-.322a.664.664 0 0 0-.08-.192c-.041-.068-.099-.125-.214-.24L11.07 1.812a1.382 1.382 0 0 0-.24-.214.667.667 0 0 0-.193-.08c-.076-.019-.158-.019-.321-.019H5.68c-.164 0-.245 0-.322.019a.667.667 0 0 0-.192.08 1.426 1.426 0 0 0-.24.214L1.643 5.094a1.433 1.433 0 0 0-.214.24.667.667 0 0 0-.08.192c-.018.077-.018.159-.018.322z" stroke="#ED1B2E" stroke-width="2" stroke-linecap="round" stroke-linejoin="round"/></svg>