<svg width="24" height="24" viewBox="0 0 24 24" fill="none" xmlns="http://www.w3.org/2000/svg"><path d="M17.816 4.818c1.604 0 2.894 1.426 2.894 3.18 0 1.717-1.24 3.116-2.786 3.18a.859.859 0 0 0-.215 0m1.703 8.177a3.834 3.834 0 0 0 1.62-.79c1.29-1.063 1.29-2.817 0-3.88-.454-.381-1.008-.636-1.595-.781M6.184 4.818c-1.604 0-2.894 1.426-2.894 3.18 0 1.717 1.24 3.116 2.786 3.18a.86.86 0 0 1 .215 0m-1.703 8.177a3.834 3.834 0 0 1-1.62-.79c-1.29-1.063-1.29-2.817 0-3.88.454-.381 1.008-.636 1.595-.781m7.26-2.844a1.366 1.366 0 0 0-.274 0c-.949-.036-1.848-.475-2.507-1.227-.659-.751-1.026-1.755-1.023-2.798C8.019 4.809 9.656 3 11.689 3c.973-.02 1.913.386 2.613 1.129.7.742 1.103 1.759 1.12 2.828.018 1.068-.351 2.1-1.026 2.87-.676.77-1.601 1.213-2.574 1.232zm-4.135 3.353c-2 1.472-2 3.87 0 5.333 2.274 1.672 6.003 1.672 8.276 0 2.001-1.472 2.001-3.87 0-5.333-2.265-1.663-5.994-1.663-8.276 0z" stroke="#000" stroke-width="1.5" stroke-linecap="round" stroke-linejoin="round"/></svg>