<svg width="48" height="48" viewBox="0 0 48 48" fill="none" xmlns="http://www.w3.org/2000/svg"><rect width="48" height="48" rx="24" fill="#F2F2F2"/><path d="M30.98 15.381c1.924 0 3.472 1.712 3.472 3.817 0 2.06-1.488 3.74-3.343 3.816a1.021 1.021 0 0 0-.258 0m2.044 9.813a4.602 4.602 0 0 0 1.944-.95c1.548-1.275 1.548-3.38 0-4.655-.545-.458-1.21-.763-1.915-.937M17.02 15.38c-1.925 0-3.472 1.712-3.472 3.817 0 2.06 1.488 3.74 3.343 3.816.086-.011.173-.011.258 0m-2.044 9.813a4.602 4.602 0 0 1-1.944-.95c-1.548-1.275-1.548-3.38 0-4.655.546-.458 1.21-.763 1.915-.937m8.71-3.413a1.623 1.623 0 0 0-.327 0c-1.139-.043-2.218-.57-3.008-1.472-.791-.902-1.232-2.106-1.228-3.358 0-2.672 1.964-4.841 4.405-4.841 1.167-.023 2.294.464 3.135 1.354.84.89 1.323 2.112 1.345 3.394.02 1.282-.423 2.522-1.233 3.445s-1.921 1.455-3.088 1.478zm-4.96 4.023c-2.401 1.767-2.401 4.645 0 6.4 2.728 2.006 7.203 2.006 9.931 0 2.401-1.766 2.401-4.644 0-6.4-2.718-1.995-7.193-1.995-9.931 0z" stroke="#030F1A" stroke-width="1.8" stroke-linecap="round" stroke-linejoin="round"/></svg>