<svg width="31" height="31" viewBox="0 0 31 31" fill="none" xmlns="http://www.w3.org/2000/svg"><mask id="mask0_4120_916" style="mask-type:alpha" maskUnits="userSpaceOnUse" x="0" y="0" width="31" height="31"><path fill="#D9D9D9" d="M0 0h31v31H0z"/></mask><g mask="url(#mask0_4120_916)"><path d="M23.25 7.626a2.296 2.296 0 0 1-1.684-.7 2.296 2.296 0 0 1-.7-1.685c0-.655.233-1.217.7-1.684a2.296 2.296 0 0 1 1.684-.7c.655 0 1.217.233 1.684.7.467.467.7 1.029.7 1.684 0 .656-.233 1.217-.7 1.684-.467.467-1.029.7-1.684.7zm-1.466 20.468V17.91c0-.807-.196-1.534-.587-2.18a4.188 4.188 0 0 0-1.609-1.524l1.242-3.438a2.37 2.37 0 0 1 .928-1.217c.447-.306.944-.46 1.492-.46s1.045.152 1.491.454c.447.302.756.71.928 1.223l3.393 9.501h-3.328v7.825h-3.95zm-5.64-13.29c-.504 0-.932-.176-1.284-.529a1.753 1.753 0 0 1-.528-1.285c0-.504.177-.932.53-1.284a1.753 1.753 0 0 1 1.285-.528c.504 0 .932.176 1.284.53.352.352.528.78.528 1.285 0 .504-.177.932-.53 1.284a1.753 1.753 0 0 1-1.285.528zm-9.04-7.178a2.296 2.296 0 0 1-1.684-.7 2.296 2.296 0 0 1-.7-1.685c0-.655.233-1.217.7-1.684a2.296 2.296 0 0 1 1.684-.7c.656 0 1.217.233 1.684.7.467.467.7 1.029.7 1.684 0 .656-.233 1.217-.7 1.684-.467.467-1.028.7-1.684.7zM4.67 28.094v-8.769H2.633V11.65c0-.642.228-1.192.686-1.65a2.248 2.248 0 0 1 1.649-.685H9.24c.642 0 1.192.229 1.65.686.457.457.685 1.007.685 1.649v7.675H9.538v8.769H4.67zm9.712 0V23.25H13.09v-5.34c0-.49.172-.907.515-1.25.343-.343.76-.514 1.249-.514h2.583a1.7 1.7 0 0 1 1.25.514 1.7 1.7 0 0 1 .514 1.25v5.34h-1.292v4.844h-3.527z" fill="#9CABB8"/></g></svg>