<svg width="48" height="46" viewBox="0 0 48 46" fill="none" xmlns="http://www.w3.org/2000/svg"><path d="M47.5 23c0 12.407-10.501 22.5-23.5 22.5S.5 35.407.5 23 11.001.5 24 .5 47.5 10.593 47.5 23z" stroke="#CC2F26"/><mask id="mask0_7410_31261" style="mask-type:alpha" maskUnits="userSpaceOnUse" x="10" y="9" width="29" height="29"><path fill="#D9D9D9" d="M10 9h28.182v28.182H10z"/></mask><path d="M26.305 33.16h-2.142a1.408 1.408 0 0 1-1.01-.434 1.505 1.505 0 0 1-.418-1.044v-3.693h1.428v3.693h2.142v-3.693h1.428v-2.955a.753.753 0 0 0-.21-.522.703.703 0 0 0-.504-.216h-6.227l-1.428-4.432H14.88a.703.703 0 0 0-.504.216.753.753 0 0 0-.21.522v4.432h1.428v6.648h2.856v-5.17h1.428v5.17c0 .392-.15.767-.418 1.044s-.631.433-1.01.433h-2.856c-.378 0-.741-.156-1.009-.433a1.505 1.505 0 0 1-.419-1.044v-5.17c-.378 0-.741-.157-1.009-.434a1.505 1.505 0 0 1-.419-1.044v-4.432c0-.587.227-1.15.628-1.566a2.113 2.113 0 0 1 1.514-.65h4.484c.3 0 .592.098.835.279.243.181.425.437.52.731l1.102 3.422h5.198c.568 0 1.112.235 1.514.65.401.415.627.979.628 1.566v2.955c0 .391-.151.767-.419 1.044s-.63.433-1.01.433v2.216c0 .392-.15.767-.418 1.044s-.63.433-1.01.433zm5.712 0h-1.428v-8.126h2.142v-4.432a.753.753 0 0 0-.21-.522.703.703 0 0 0-.504-.216H29.16v-1.477h2.856c.568 0 1.112.234 1.514.65.401.415.627.978.628 1.565v4.432c0 .392-.151.767-.419 1.044s-.63.433-1.01.434h-.713v6.647zM17.022 17.647a2.789 2.789 0 0 1-1.586-.498 2.936 2.936 0 0 1-1.052-1.326 3.05 3.05 0 0 1-.163-1.707c.11-.573.382-1.1.782-1.513a2.83 2.83 0 0 1 1.462-.808 2.767 2.767 0 0 1 1.65.168c.522.223.968.602 1.282 1.088a3.027 3.027 0 0 1-.356 3.73 2.812 2.812 0 0 1-2.019.866zm0-4.432c-.282 0-.558.087-.793.249a1.468 1.468 0 0 0-.526.663c-.108.27-.136.567-.081.854.055.286.19.55.39.756.2.207.455.347.732.404.277.057.564.028.825-.084a1.44 1.44 0 0 0 .64-.544 1.514 1.514 0 0 0-.177-1.865 1.406 1.406 0 0 0-1.01-.433zm12.853 4.432a2.789 2.789 0 0 1-1.587-.498 2.935 2.935 0 0 1-1.052-1.326 3.05 3.05 0 0 1-.163-1.707c.11-.573.383-1.1.782-1.513a2.83 2.83 0 0 1 1.462-.808 2.767 2.767 0 0 1 1.65.168 2.88 2.88 0 0 1 1.282 1.088 3.027 3.027 0 0 1-.356 3.73 2.812 2.812 0 0 1-2.018.866zm0-4.432c-.283 0-.559.087-.794.249a1.468 1.468 0 0 0-.526.663 1.518 1.518 0 0 0 .31 1.61c.2.207.454.347.731.404.277.057.564.028.825-.084s.484-.301.641-.544a1.514 1.514 0 0 0-.178-1.865 1.406 1.406 0 0 0-1.01-.433z" fill="#CC2F26"/><path d="M25.585 22.17a2.585 2.585 0 1 1 0-5.17 2.585 2.585 0 0 1 0 5.17zm0-3.693a1.108 1.108 0 1 0 0 2.217 1.108 1.108 0 0 0 0-2.217z" fill="#CC2F26"/></svg>