<svg width="48" height="48" viewBox="0 0 48 48" fill="none" xmlns="http://www.w3.org/2000/svg"><rect width="48" height="48" rx="24" fill="#F2F2F2"/><path d="M30.98 15.382c1.924 0 3.472 1.711 3.472 3.816 0 2.06-1.488 3.74-3.343 3.816a1.012 1.012 0 0 0-.258 0m2.044 9.813a4.6 4.6 0 0 0 1.944-.949c1.548-1.276 1.548-3.38 0-4.655-.545-.458-1.21-.764-1.915-.938M17.02 15.382c-1.925 0-3.472 1.711-3.472 3.816 0 2.06 1.488 3.74 3.343 3.816.086-.011.173-.011.258 0m-2.044 9.813a4.6 4.6 0 0 1-1.944-.949c-1.548-1.276-1.548-3.38 0-4.655.546-.458 1.21-.764 1.915-.938m8.71-3.413a1.785 1.785 0 0 0-.327 0c-1.139-.042-2.218-.57-3.008-1.472-.791-.901-1.232-2.106-1.228-3.358 0-2.671 1.964-4.841 4.405-4.841 1.167-.023 2.294.464 3.135 1.355.84.89 1.323 2.11 1.345 3.393.02 1.283-.423 2.522-1.233 3.445s-1.921 1.455-3.088 1.478zm-4.96 4.023c-2.401 1.767-2.401 4.645 0 6.4 2.728 2.007 7.203 2.007 9.931 0 2.401-1.766 2.401-4.644 0-6.4-2.718-1.995-7.193-1.995-9.931 0z" stroke="#9CABB8" stroke-width="1.8" stroke-linecap="round" stroke-linejoin="round"/></svg>