<svg width="48" height="46" viewBox="0 0 48 46" fill="none" xmlns="http://www.w3.org/2000/svg"><path d="M47.5 23c0 12.407-10.501 22.5-23.5 22.5S.5 35.407.5 23 11.001.5 24 .5 47.5 10.593 47.5 23z" stroke="#48A0C8"/><mask id="mask0_24029_47436" style="mask-type:alpha" maskUnits="userSpaceOnUse" x="10" y="9" width="29" height="29"><path fill="#D9D9D9" d="M10 9h28.182v28.182H10z"/></mask><path d="M23 20c0 1.66-1.34 3-3 3s-3-1.34-3-3 1.34-3 3-3 3 1.34 3 3zm3 11H14v-2c0-2.21 2.69-4 6-4s6 1.79 6 4m-7-9c0 .55.45 1 1 1s1-.45 1-1-.45-1-1-1-1 .45-1 1zm-3 9h8c0-1.1-1.79-2-4-2s-4 .9-4 2zm18-6v2h-9v-2m9-4v2h-9v-2m9-4v2h-9v-2h9z" fill="#48A0C8"/></svg>