<svg width="30" height="24" viewBox="0 0 30 24" fill="none" xmlns="http://www.w3.org/2000/svg"><path d="M12.75 5.1c-.59 0-1.176.119-1.722.35a4.495 4.495 0 0 0-1.46.997c-.418.427-.75.935-.975 1.493a4.689 4.689 0 0 0 0 3.52c.226.558.557 1.065.975 1.493.418.427.914.766 1.46.997.546.231 1.131.35 1.722.35a4.45 4.45 0 0 0 3.182-1.347A4.652 4.652 0 0 0 17.25 9.7c0-1.22-.474-2.39-1.318-3.253A4.45 4.45 0 0 0 12.75 5.1zM10.5 9.7c0-.61.237-1.195.659-1.626A2.226 2.226 0 0 1 12.75 7.4c.597 0 1.169.242 1.591.674.422.431.659 1.016.659 1.626 0 .61-.237 1.195-.659 1.626A2.225 2.225 0 0 1 12.75 12a2.225 2.225 0 0 1-1.591-.674A2.326 2.326 0 0 1 10.5 9.7zM0 3.95c0-.915.356-1.793.989-2.44A3.338 3.338 0 0 1 3.375.5h18.75c.443 0 .882.09 1.292.263a3.38 3.38 0 0 1 1.095.747 3.506 3.506 0 0 1 .988 2.44v11.5a3.506 3.506 0 0 1-.988 2.44 3.38 3.38 0 0 1-1.095.747c-.41.174-.849.263-1.292.263H3.375a3.338 3.338 0 0 1-2.386-1.01A3.49 3.49 0 0 1 0 15.45V3.95zM3.375 2.8c-.298 0-.585.121-.796.337-.21.215-.329.508-.329.813V5.1h1.125c.298 0 .585-.121.795-.337.211-.215.33-.508.33-.813V2.8H3.375zM2.25 12h1.125a3.34 3.34 0 0 1 2.386 1.01 3.49 3.49 0 0 1 .989 2.44v1.15h12v-1.15c0-.915.356-1.792.988-2.44A3.338 3.338 0 0 1 22.125 12h1.125V7.4h-1.125a3.338 3.338 0 0 1-2.387-1.01 3.49 3.49 0 0 1-.988-2.44V2.8h-12v1.15a3.506 3.506 0 0 1-.989 2.44c-.313.32-.685.574-1.094.747-.41.174-.849.263-1.292.263H2.25V12zm21-6.9V3.95c0-.305-.119-.598-.33-.813a1.113 1.113 0 0 0-.795-.337H21v1.15c0 .635.504 1.15 1.125 1.15h1.125zm0 9.2h-1.125c-.298 0-.584.121-.796.337-.21.215-.329.508-.329.813v1.15h1.125c.298 0 .584-.121.796-.337.21-.216.329-.508.329-.813V14.3zm-21 1.15c0 .635.504 1.15 1.125 1.15H4.5v-1.15c0-.305-.119-.598-.33-.813a1.113 1.113 0 0 0-.795-.337H2.25v1.15zm1.352 5.75c.394.7.963 1.28 1.647 1.684.684.404 1.46.616 2.251.616h15.375a6.99 6.99 0 0 0 2.727-.554 7.116 7.116 0 0 0 2.311-1.58 7.295 7.295 0 0 0 1.545-2.362c.358-.884.542-1.83.542-2.787v-8.05a4.68 4.68 0 0 0-.602-2.301 4.552 4.552 0 0 0-1.648-1.684v12.035a5.04 5.04 0 0 1-1.428 3.523 4.822 4.822 0 0 1-3.447 1.46H3.602z" fill="#00B27C"/></svg>