<svg width="48" height="46" viewBox="0 0 48 46" fill="none" xmlns="http://www.w3.org/2000/svg"><path d="M47.5 23c0 12.407-10.501 22.5-23.5 22.5S.5 35.407.5 23 11.001.5 24 .5 47.5 10.593 47.5 23z" stroke="#00B27C"/><path d="M22.249 19.334a3.5 3.5 0 1 0 0 7 3.5 3.5 0 0 0 0-7zm-1.75 3.5a1.75 1.75 0 1 1 3.5 0 1.75 1.75 0 0 1-3.5 0zm-8.167-4.375a2.625 2.625 0 0 1 2.625-2.625H29.54a2.625 2.625 0 0 1 2.625 2.625v8.75a2.625 2.625 0 0 1-2.625 2.625H14.957a2.625 2.625 0 0 1-2.625-2.625v-8.75zm2.625-.875a.875.875 0 0 0-.875.875v.875h.875a.875.875 0 0 0 .875-.875v-.875h-.875zm-.875 7h.875a2.625 2.625 0 0 1 2.625 2.625v.875h9.333v-.875a2.625 2.625 0 0 1 2.625-2.625h.875v-3.5h-.875a2.625 2.625 0 0 1-2.625-2.625v-.875h-9.333v.875a2.625 2.625 0 0 1-2.625 2.625h-.875v3.5zm16.333-5.25v-.875a.875.875 0 0 0-.875-.875h-.875v.875c0 .483.392.875.875.875h.875zm0 7h-.875a.875.875 0 0 0-.875.875v.875h.875a.875.875 0 0 0 .875-.875v-.875zm-16.333.875c0 .483.392.875.875.875h.875v-.875a.875.875 0 0 0-.875-.875h-.875v.875zm1.051 4.375a3.499 3.499 0 0 0 3.032 1.75h11.959a5.542 5.542 0 0 0 5.541-5.542v-6.125a3.5 3.5 0 0 0-1.75-3.032v9.157a3.791 3.791 0 0 1-3.791 3.791h-14.99z" fill="#00B27C"/></svg>