<svg width="39" height="39" viewBox="0 0 39 39" fill="none" xmlns="http://www.w3.org/2000/svg"><path d="M17.063 13a4.875 4.875 0 1 0 0 9.75 4.875 4.875 0 0 0 0-9.75zm-2.438 4.875a2.438 2.438 0 1 1 4.875 0 2.438 2.438 0 0 1-4.875 0zM3.25 11.781a3.656 3.656 0 0 1 3.656-3.656H27.22a3.656 3.656 0 0 1 3.656 3.656V23.97a3.657 3.657 0 0 1-3.656 3.656H6.906A3.656 3.656 0 0 1 3.25 23.97V11.78zm3.656-1.219a1.219 1.219 0 0 0-1.218 1.22V13h1.218a1.219 1.219 0 0 0 1.219-1.219v-1.219H6.906zm-1.218 9.75h1.218a3.656 3.656 0 0 1 3.657 3.657v1.218h13V23.97a3.656 3.656 0 0 1 3.656-3.657h1.218v-4.875H27.22a3.656 3.656 0 0 1-3.657-3.656v-1.219h-13v1.22a3.657 3.657 0 0 1-3.656 3.655H5.688v4.876zM28.438 13v-1.219a1.218 1.218 0 0 0-1.22-1.219H26v1.22A1.22 1.22 0 0 0 27.219 13h1.218zm0 9.75h-1.22A1.218 1.218 0 0 0 26 23.969v1.218h1.219a1.218 1.218 0 0 0 1.218-1.218V22.75zm-22.75 1.219a1.22 1.22 0 0 0 1.218 1.218h1.219V23.97a1.219 1.219 0 0 0-1.219-1.219H5.688v1.219zm1.464 6.093a4.874 4.874 0 0 0 4.223 2.438h16.656a7.719 7.719 0 0 0 7.719-7.719V16.25a4.875 4.875 0 0 0-2.438-4.223V24.78a5.282 5.282 0 0 1-5.28 5.282H7.151z" fill="#030F1A"/></svg>