<svg width="26" height="26" viewBox="0 0 26 26" fill="none" xmlns="http://www.w3.org/2000/svg"><path d="M15.167 2.458v4.475c0 .607 0 .91.118 1.142.104.204.27.37.474.474.232.118.535.118 1.142.118h4.474m-4.041 5.416H8.667m8.667 4.333H8.667m2.167-8.666H8.667m6.5-7.583H9.534c-1.82 0-2.73 0-3.425.354a3.25 3.25 0 0 0-1.42 1.42c-.355.695-.355 1.605-.355 3.426v11.266c0 1.82 0 2.73.354 3.426a3.25 3.25 0 0 0 1.42 1.42c.696.354 1.606.354 3.426.354h6.933c1.82 0 2.73 0 3.426-.354a3.25 3.25 0 0 0 1.42-1.42c.354-.696.354-1.606.354-3.426V8.667l-6.5-6.5z" stroke="#063D80" stroke-width="2" stroke-linecap="round" stroke-linejoin="round"/></svg>