<svg width="14" height="15" viewBox="0 0 22 23" fill="none" xmlns="http://www.w3.org/2000/svg"><path d="M5.999 7.488a2.996 2.996 0 0 0 2.999-2.994 2.997 2.997 0 0 0-3-2.994A2.996 2.996 0 0 0 3 4.494a2.997 2.997 0 0 0 3 2.994zm2.994-2.994H20.99m-19.985 0h1.994m12.997 9.976c1.657 0 3-1.341 3-2.995a2.997 2.997 0 0 0-3-2.994 2.996 2.996 0 0 0-2.999 2.994 2.997 2.997 0 0 0 3 2.994zm-4.998 7.03a2.996 2.996 0 0 0 2.999-2.994 2.997 2.997 0 0 0-3-2.994 2.996 2.996 0 0 0-2.999 2.994 2.997 2.997 0 0 0 3 2.994zm1.999-10.025H1.005m19.985 0h-2M1 18.506h6.998m5.994 0H21" stroke="#007AFF" stroke-width="2" stroke-miterlimit="10" stroke-linecap="round"/></svg>