<svg width="22" height="22" viewBox="0 0 22 22" fill="none" xmlns="http://www.w3.org/2000/svg"><path d="M1 11c0-4.714 0-7.071 1.464-8.536C3.93 1 6.286 1 11 1c4.714 0 7.071 0 8.535 1.464C21 3.93 21 6.286 21 11c0 4.714 0 7.071-1.465 8.535C18.072 21 15.714 21 11 21s-7.071 0-8.536-1.465C1 18.072 1 15.714 1 11z" stroke="#0062CC" stroke-width="1.5"/><path d="M13 9a2 2 0 1 0 0-4 2 2 0 0 0 0 4z" stroke="#0062CC" stroke-width="1.5"/><path d="M1 11.101l1.752-1.533a2.3 2.3 0 0 1 3.14.105l4.29 4.29a2 2 0 0 0 2.564.223l.299-.21a3 3 0 0 1 3.731.224L20 17.102" stroke="#0062CC" stroke-width="1.5" stroke-linecap="round"/></svg>