<svg width="149" height="44" viewBox="0 0 149 44" fill="none" xmlns="http://www.w3.org/2000/svg"><rect x="1" y=".5" width="147.5" height="43" rx="4.5" fill="#000"/><path d="M75.45 23.926c-2.587 0-4.696 1.968-4.696 4.679 0 2.694 2.109 4.678 4.696 4.678 2.588 0 4.697-1.984 4.697-4.678-.001-2.71-2.11-4.679-4.697-4.679zm0 7.516c-1.418 0-2.64-1.17-2.64-2.836 0-1.684 1.223-2.836 2.64-2.836 1.418 0 2.64 1.152 2.64 2.836 0 1.665-1.222 2.836-2.64 2.836zm-10.246-7.516c-2.587 0-4.695 1.968-4.695 4.679 0 2.694 2.108 4.678 4.695 4.678 2.589 0 4.698-1.984 4.698-4.678 0-2.71-2.11-4.679-4.698-4.679zm0 7.516c-1.417 0-2.64-1.17-2.64-2.836 0-1.684 1.224-2.836 2.64-2.836 1.418 0 2.64 1.152 2.64 2.836.002 1.665-1.222 2.836-2.64 2.836zM53.02 25.363v1.984h4.75c-.142 1.117-.514 1.932-1.082 2.498-.69.691-1.772 1.454-3.668 1.454-2.924 0-5.21-2.358-5.21-5.282 0-2.923 2.286-5.28 5.21-5.28 1.577 0 2.729.62 3.58 1.417l1.4-1.4c-1.189-1.134-2.765-2.002-4.98-2.002-4.005 0-7.372 3.26-7.372 7.265 0 4.006 3.367 7.266 7.372 7.266 2.161 0 3.793-.71 5.067-2.038 1.312-1.312 1.72-3.155 1.72-4.643 0-.46-.035-.886-.107-1.24h-6.68v.001zm49.838 1.541c-.389-1.045-1.577-2.978-4.005-2.978-2.41 0-4.413 1.897-4.413 4.679 0 2.622 1.986 4.678 4.643 4.678 2.144 0 3.385-1.311 3.9-2.074l-1.595-1.063c-.532.78-1.259 1.293-2.305 1.293-1.045 0-1.79-.478-2.268-1.418l6.256-2.587-.213-.53zm-6.38 1.56c-.052-1.808 1.4-2.73 2.447-2.73.815 0 1.506.409 1.737.993l-4.183 1.737zM91.393 33h2.055V19.25h-2.055V33zm-3.368-8.027h-.07c-.461-.55-1.348-1.047-2.463-1.047-2.34 0-4.484 2.056-4.484 4.697 0 2.623 2.144 4.661 4.484 4.661 1.116 0 2.002-.496 2.463-1.063h.07v.674c0 1.79-.957 2.746-2.498 2.746-1.258 0-2.038-.903-2.357-1.665l-1.79.745c.514 1.24 1.878 2.764 4.147 2.764 2.41 0 4.448-1.418 4.448-4.874v-8.4h-1.949v.762h-.001zm-2.356 6.469c-1.418 0-2.605-1.188-2.605-2.819 0-1.649 1.187-2.853 2.605-2.853 1.399 0 2.498 1.204 2.498 2.853 0 1.63-1.099 2.819-2.498 2.819zm26.819-12.193h-4.918V33h2.051v-5.21h2.866c2.275 0 4.512-1.646 4.512-4.27 0-2.623-2.236-4.27-4.511-4.27zm.053 6.628h-2.92v-4.714h2.92c1.534 0 2.405 1.27 2.405 2.357 0 1.065-.871 2.357-2.405 2.357zm12.685-1.975c-1.486 0-3.025.655-3.662 2.106l1.822.76c.389-.76 1.115-1.009 1.875-1.009 1.062 0 2.141.637 2.158 1.769v.142c-.372-.213-1.168-.53-2.14-.53-1.964 0-3.964 1.079-3.964 3.095 0 1.84 1.611 3.025 3.415 3.025 1.379 0 2.14-.62 2.618-1.345h.07v1.061h1.982v-5.272c.001-2.44-1.822-3.802-4.174-3.802zm-.249 7.536c-.671 0-1.609-.336-1.609-1.168 0-1.061 1.168-1.468 2.177-1.468.901 0 1.326.194 1.874.46a2.488 2.488 0 0 1-2.442 2.176zm11.642-7.235l-2.353 5.962h-.071l-2.442-5.962h-2.211l3.662 8.332-2.088 4.635h2.141l5.644-12.968h-2.282zM118.131 33h2.051V19.25h-2.051V33zM52.66 11.268c0 .921-.273 1.655-.82 2.203-.62.651-1.43.977-2.424.977-.953 0-1.763-.33-2.429-.99-.666-.662-1-1.48-1-2.457 0-.978.334-1.796 1-2.456.666-.661 1.476-.991 2.429-.991.473 0 .925.092 1.354.276.43.185.774.43 1.032.737l-.58.58c-.437-.522-1.038-.782-1.807-.782a2.51 2.51 0 0 0-1.803.732c-.507.489-.76 1.123-.76 1.903s.253 1.415.76 1.903a2.51 2.51 0 0 0 1.803.733c.737 0 1.352-.245 1.843-.737.32-.32.504-.766.554-1.337h-2.397v-.793h3.198c.033.173.047.339.047.498zm5.071-2.757h-3.005v2.092h2.71v.793h-2.71v2.092h3.005v.812h-3.853V7.7h3.853v.811zm3.576 5.789h-.848V8.511h-1.844v-.81h4.536v.81h-1.844v5.79zm5.125 0V7.7h.848v6.6h-.848zm4.609 0h-.848V8.511h-1.844v-.81h4.536v.81H71.04v5.79zm10.429-.852c-.65.666-1.455 1-2.42 1-.965 0-1.771-.334-2.419-1-.649-.667-.972-1.483-.972-2.448 0-.964.323-1.78.972-2.447.648-.667 1.454-1.001 2.419-1.001.96 0 1.764.335 2.416 1.005.65.67.976 1.484.976 2.443 0 .965-.324 1.781-.972 2.448zm-4.213-.553a2.42 2.42 0 0 0 1.793.74c.707 0 1.306-.247 1.793-.74.488-.495.734-1.127.734-1.895s-.246-1.399-.734-1.894c-.487-.495-1.086-.741-1.793-.741-.707 0-1.305.247-1.793.741-.487.495-.733 1.127-.733 1.894 0 .768.246 1.4.733 1.895zm6.375 1.405V7.7h1.032l3.208 5.134h.036l-.036-1.272V7.7h.848v6.6h-.885l-3.357-5.383h-.036l.036 1.271V14.3h-.846z" fill="#fff"/><path d="M52.66 11.268c0 .921-.273 1.655-.82 2.203-.62.651-1.43.977-2.424.977-.953 0-1.763-.33-2.429-.99-.666-.662-1-1.48-1-2.457 0-.978.334-1.796 1-2.456.666-.661 1.476-.991 2.429-.991.473 0 .925.092 1.354.276.43.185.774.43 1.032.737l-.58.58c-.437-.522-1.038-.782-1.807-.782a2.51 2.51 0 0 0-1.803.732c-.507.489-.76 1.123-.76 1.903s.253 1.415.76 1.903a2.51 2.51 0 0 0 1.803.733c.737 0 1.352-.245 1.843-.737.32-.32.504-.766.554-1.337h-2.397v-.793h3.198c.033.173.047.339.047.498zm5.071-2.757h-3.005v2.092h2.71v.793h-2.71v2.092h3.005v.812h-3.853V7.7h3.853v.811zm3.576 5.789h-.848V8.511h-1.844v-.81h4.536v.81h-1.844v5.79zm5.125 0V7.7h.848v6.6h-.848zm4.609 0h-.848V8.511h-1.844v-.81h4.536v.81H71.04v5.79zm10.429-.852c-.65.666-1.455 1-2.42 1-.965 0-1.771-.334-2.419-1-.649-.667-.972-1.483-.972-2.448 0-.964.323-1.78.972-2.447.648-.667 1.454-1.001 2.419-1.001.96 0 1.764.335 2.416 1.005.65.67.976 1.484.976 2.443 0 .965-.324 1.781-.972 2.448zm-4.213-.553a2.42 2.42 0 0 0 1.793.74c.707 0 1.306-.247 1.793-.74.488-.495.734-1.127.734-1.895s-.246-1.399-.734-1.894c-.487-.495-1.086-.741-1.793-.741-.707 0-1.305.247-1.793.741-.487.495-.733 1.127-.733 1.894 0 .768.246 1.4.733 1.895zm6.375 1.405V7.7h1.032l3.208 5.134h.036l-.036-1.272V7.7h.848v6.6h-.885l-3.357-5.383h-.036l.036 1.271V14.3h-.846z" stroke="#fff" stroke-width=".2" stroke-miterlimit="10"/><g filter="url(#filter0_ii_22805_47353)"><path d="M11.98 8.292c-.32.339-.51.865-.51 1.546v24.327c0 .682.19 1.207.51 1.546l.081.079L25.69 22.162v-.321L12.061 8.21l-.081.081z" fill="url(#paint0_linear_22805_47353)"/><path d="M30.231 26.706l-4.542-4.544v-.321l4.544-4.543.102.058 5.382 3.058c1.537.874 1.537 2.302 0 3.177l-5.382 3.058-.104.057z" fill="url(#paint1_linear_22805_47353)"/><path d="M30.335 26.648l-4.646-4.646-13.709 13.71c.506.536 1.344.602 2.286.067l16.07-9.13z" fill="url(#paint2_linear_22805_47353)" filter="url(#filter1_i_22805_47353)"/><path d="M30.335 17.355l-16.069-9.13c-.942-.536-1.78-.468-2.286.068l13.71 13.71 4.645-4.648z" fill="url(#paint3_linear_22805_47353)"/></g><rect x="1" y=".5" width="147.5" height="43" rx="4.5" stroke="#A6A6A6"/><defs><filter id="filter0_ii_22805_47353" x="11.471" y="7.855" width="25.398" height="28.293" filterUnits="userSpaceOnUse" color-interpolation-filters="sRGB"><feFlood flood-opacity="0" result="BackgroundImageFix"/><feBlend mode="normal" in="SourceGraphic" in2="BackgroundImageFix" result="shape"/><feColorMatrix in="SourceAlpha" type="matrix" values="0 0 0 0 0 0 0 0 0 0 0 0 0 0 0 0 0 0 127 0" result="hardAlpha"/><feOffset dy="-.15"/><feComposite in2="hardAlpha" operator="arithmetic" k2="-1" k3="1"/><feColorMatrix type="matrix" values="0 0 0 0 0 0 0 0 0 0 0 0 0 0 0 0 0 0 0.12 0"/><feBlend mode="normal" in2="shape" result="effect1_innerShadow_22805_47353"/><feColorMatrix in="SourceAlpha" type="matrix" values="0 0 0 0 0 0 0 0 0 0 0 0 0 0 0 0 0 0 127 0" result="hardAlpha"/><feOffset dy=".15"/><feComposite in2="hardAlpha" operator="arithmetic" k2="-1" k3="1"/><feColorMatrix type="matrix" values="0 0 0 0 1 0 0 0 0 1 0 0 0 0 1 0 0 0 0.25 0"/><feBlend mode="normal" in2="effect1_innerShadow_22805_47353" result="effect2_innerShadow_22805_47353"/></filter><filter id="filter1_i_22805_47353" x="11.98" y="22.002" width="18.355" height="14.146" filterUnits="userSpaceOnUse" color-interpolation-filters="sRGB"><feFlood flood-opacity="0" result="BackgroundImageFix"/><feBlend mode="normal" in="SourceGraphic" in2="BackgroundImageFix" result="shape"/><feColorMatrix in="SourceAlpha" type="matrix" values="0 0 0 0 0 0 0 0 0 0 0 0 0 0 0 0 0 0 127 0" result="hardAlpha"/><feOffset dy="-.15"/><feComposite in2="hardAlpha" operator="arithmetic" k2="-1" k3="1"/><feColorMatrix type="matrix" values="0 0 0 0 0 0 0 0 0 0 0 0 0 0 0 0 0 0 0.08 0"/><feBlend mode="normal" in2="shape" result="effect1_innerShadow_22805_47353"/></filter><linearGradient id="paint0_linear_22805_47353" x1="24.481" y1="9.58" x2="6.021" y2="28.041" gradientUnits="userSpaceOnUse"><stop stop-color="#00A0FF"/><stop offset=".007" stop-color="#00A1FF"/><stop offset=".26" stop-color="#00BEFF"/><stop offset=".512" stop-color="#00D2FF"/><stop offset=".76" stop-color="#00DFFF"/><stop offset="1" stop-color="#00E3FF"/></linearGradient><linearGradient id="paint1_linear_22805_47353" x1="37.717" y1="22.002" x2="11.102" y2="22.002" gradientUnits="userSpaceOnUse"><stop stop-color="#FFE000"/><stop offset=".409" stop-color="#FFBD00"/><stop offset=".775" stop-color="#FFA500"/><stop offset="1" stop-color="#FF9C00"/></linearGradient><linearGradient id="paint2_linear_22805_47353" x1="27.812" y1="24.525" x2="2.777" y2="49.56" gradientUnits="userSpaceOnUse"><stop stop-color="#FF3A44"/><stop offset="1" stop-color="#C31162"/></linearGradient><linearGradient id="paint3_linear_22805_47353" x1="8.528" y1=".195" x2="19.706" y2="11.373" gradientUnits="userSpaceOnUse"><stop stop-color="#32A071"/><stop offset=".069" stop-color="#2DA771"/><stop offset=".476" stop-color="#15CF74"/><stop offset=".801" stop-color="#06E775"/><stop offset="1" stop-color="#00F076"/></linearGradient></defs></svg>