<svg width="74" height="22" viewBox="0 0 74 22" fill="none" xmlns="http://www.w3.org/2000/svg"><rect x=".438" y=".438" width="73.125" height="21.125" rx="3.938" fill="#000"/><rect x=".438" y=".438" width="73.125" height="21.125" rx="3.938" stroke="#A6A6A6" stroke-width=".875"/><path d="M37.348 11.963c-1.29 0-2.34.984-2.34 2.34 0 1.346 1.05 2.338 2.34 2.338 1.29 0 2.34-.992 2.34-2.339 0-1.355-1.051-2.339-2.34-2.339zm0 3.758c-.707 0-1.316-.585-1.316-1.418 0-.842.61-1.418 1.316-1.418.706 0 1.315.576 1.315 1.418 0 .833-.609 1.418-1.315 1.418zm-5.106-3.758c-1.29 0-2.34.984-2.34 2.34 0 1.346 1.05 2.338 2.34 2.338 1.29 0 2.34-.992 2.34-2.339 0-1.355-1.05-2.339-2.34-2.339zm0 3.758c-.706 0-1.315-.585-1.315-1.418 0-.842.61-1.418 1.315-1.418.707 0 1.316.576 1.316 1.418 0 .833-.61 1.418-1.316 1.418zm-6.072-3.04v.993h2.367c-.071.558-.256.966-.54 1.249-.343.345-.882.726-1.827.726-1.457 0-2.596-1.178-2.596-2.64 0-1.462 1.139-2.64 2.596-2.64.786 0 1.36.31 1.783.708l.698-.7c-.592-.567-1.377-1.001-2.481-1.001-1.996 0-3.674 1.63-3.674 3.633 0 2.002 1.678 3.633 3.674 3.633 1.077 0 1.89-.355 2.525-1.02.654-.655.857-1.577.857-2.321 0-.23-.018-.443-.053-.62h-3.33zm24.835.771c-.194-.522-.786-1.489-1.995-1.489-1.201 0-2.2.948-2.2 2.34 0 1.31.99 2.338 2.314 2.338a2.319 2.319 0 0 0 1.943-1.036l-.795-.532c-.264.39-.627.647-1.148.647-.52 0-.892-.24-1.13-.71l3.117-1.293-.106-.265zm-3.179.78c-.026-.904.698-1.365 1.22-1.365.405 0 .75.204.865.496l-2.085.869zM45.292 16.5h1.024V9.625h-1.024V16.5zm-1.678-4.014h-.036c-.23-.275-.671-.523-1.227-.523-1.166 0-2.234 1.028-2.234 2.349 0 1.31 1.068 2.33 2.234 2.33.556 0 .998-.248 1.227-.531h.035v.336c0 .895-.476 1.374-1.244 1.374-.627 0-1.016-.452-1.175-.833l-.892.372c.256.62.936 1.383 2.067 1.383 1.2 0 2.216-.71 2.216-2.438v-4.2h-.971v.381zm-1.175 3.235c-.706 0-1.298-.594-1.298-1.41 0-.824.592-1.426 1.298-1.426.698 0 1.245.602 1.245 1.427 0 .815-.547 1.409-1.245 1.409zm13.365-6.096h-2.451V16.5h1.022v-2.605h1.428c1.134 0 2.249-.823 2.249-2.135 0-1.312-1.115-2.135-2.248-2.135zm.026 3.313h-1.455v-2.356h1.455a1.19 1.19 0 0 1 1.199 1.178c0 .533-.434 1.178-1.199 1.178zm6.321-.987c-.74 0-1.507.327-1.825 1.053l.908.38c.194-.38.556-.505.935-.505.529 0 1.067.319 1.075.885v.07a2.259 2.259 0 0 0-1.066-.264c-.979 0-1.975.54-1.975 1.547 0 .92.802 1.513 1.701 1.513.688 0 1.067-.31 1.305-.673h.035v.531h.987v-2.636c.001-1.22-.908-1.9-2.08-1.9zm-.124 3.768c-.334 0-.802-.168-.802-.584 0-.53.583-.734 1.085-.734.45 0 .661.097.934.23a1.241 1.241 0 0 1-1.217 1.088zm5.802-3.618l-1.173 2.981h-.035l-1.217-2.98h-1.102l1.825 4.165-1.04 2.318h1.066l2.813-6.484h-1.137zm-9.213 4.4h1.023V9.624h-1.023V16.5zM25.993 5.634c0 .46-.136.827-.408 1.101-.31.326-.713.489-1.209.489-.474 0-.878-.165-1.21-.495a1.664 1.664 0 0 1-.498-1.228c0-.49.166-.899.498-1.229.332-.33.736-.495 1.21-.495.236 0 .461.046.675.138.215.092.386.215.515.369l-.29.29c-.217-.261-.517-.392-.9-.392-.346 0-.646.122-.898.367-.253.244-.38.561-.38.951 0 .39.127.707.38.952.252.244.552.366.898.366.367 0 .674-.123.919-.369.159-.16.25-.382.275-.668h-1.194v-.396h1.593c.017.086.024.169.024.249zm2.527-1.379h-1.497v1.047h1.35v.396h-1.35v1.046h1.497v.406H26.6v-3.3h1.92v.405zm1.782 2.895h-.423V4.255h-.918V3.85h2.26v.405h-.919V7.15zm2.554 0v-3.3h.422v3.3h-.422zm2.297 0h-.423V4.255h-.919V3.85h2.26v.405h-.918V7.15zm5.197-.426c-.324.333-.726.5-1.206.5a1.61 1.61 0 0 1-1.206-.5 1.69 1.69 0 0 1-.484-1.224c0-.482.16-.89.484-1.224a1.61 1.61 0 0 1 1.206-.5c.478 0 .879.168 1.203.503.325.335.487.742.487 1.221 0 .482-.162.89-.485 1.224zm-2.1-.277c.243.248.541.37.894.37.352 0 .65-.123.893-.37s.366-.563.366-.947-.123-.7-.366-.947a1.204 1.204 0 0 0-.893-.37c-.353 0-.65.123-.894.37-.243.248-.365.563-.365.947s.122.7.365.947zm3.177.703v-3.3h.514l1.599 2.567h.018l-.018-.636v-1.93h.422v3.3h-.44l-1.673-2.693h-.018l.018.636V7.15h-.422z" fill="#fff"/><path d="M25.993 5.634c0 .46-.136.827-.408 1.101-.31.326-.713.489-1.209.489-.474 0-.878-.165-1.21-.495a1.664 1.664 0 0 1-.498-1.228c0-.49.166-.899.498-1.229.332-.33.736-.495 1.21-.495.236 0 .461.046.675.138.215.092.386.215.515.369l-.29.29c-.217-.261-.517-.392-.9-.392-.346 0-.646.122-.898.367-.253.244-.38.561-.38.951 0 .39.127.707.38.952.252.244.552.366.898.366.367 0 .674-.123.919-.369.159-.16.25-.382.275-.668h-1.194v-.396h1.593c.017.086.024.169.024.249zm2.527-1.379h-1.497v1.047h1.35v.396h-1.35v1.046h1.497v.406H26.6v-3.3h1.92v.405zm1.782 2.895h-.423V4.255h-.918V3.85h2.26v.405h-.919V7.15zm2.554 0v-3.3h.422v3.3h-.422zm2.297 0h-.423V4.255h-.919V3.85h2.26v.405h-.918V7.15zm5.197-.426c-.324.333-.726.5-1.206.5a1.61 1.61 0 0 1-1.206-.5 1.69 1.69 0 0 1-.484-1.224c0-.482.16-.89.484-1.224a1.61 1.61 0 0 1 1.206-.5c.478 0 .879.168 1.203.503.325.335.487.742.487 1.221 0 .482-.162.89-.485 1.224zm-2.1-.277c.243.248.541.37.894.37.352 0 .65-.123.893-.37s.366-.563.366-.947-.123-.7-.366-.947a1.204 1.204 0 0 0-.893-.37c-.353 0-.65.123-.894.37-.243.248-.365.563-.365.947s.122.7.365.947zm3.177.703v-3.3h.514l1.599 2.567h.018l-.018-.636v-1.93h.422v3.3h-.44l-1.673-2.693h-.018l.018.636V7.15h-.422z" stroke="#fff" stroke-width=".175" stroke-miterlimit="10"/><g filter="url(#filter0_ii_2641_4053)"><path d="M5.719 4.146c-.16.17-.254.432-.254.773v12.163c0 .341.094.604.254.773l.04.04 6.791-6.814v-.16L5.76 4.105l-.041.04z" fill="url(#paint0_linear_2641_4053)"/><path d="M14.814 13.353l-2.263-2.272v-.16l2.264-2.272.05.029 2.683 1.529c.766.436.766 1.151 0 1.588l-2.682 1.53-.052.028z" fill="url(#paint1_linear_2641_4053)"/><path d="M14.865 13.324L12.55 11l-6.831 6.854c.252.268.669.302 1.139.034l8.007-4.565z" fill="url(#paint2_linear_2641_4053)" filter="url(#filter1_i_2641_4053)"/><path d="M14.865 8.677L6.858 4.112c-.47-.268-.887-.234-1.14.034l6.832 6.855 2.315-2.324z" fill="url(#paint3_linear_2641_4053)"/></g><defs><filter id="filter0_ii_2641_4053" x="5.465" y="3.927" width="12.656" height="14.146" filterUnits="userSpaceOnUse" color-interpolation-filters="sRGB"><feFlood flood-opacity="0" result="BackgroundImageFix"/><feBlend mode="normal" in="SourceGraphic" in2="BackgroundImageFix" result="shape"/><feColorMatrix in="SourceAlpha" type="matrix" values="0 0 0 0 0 0 0 0 0 0 0 0 0 0 0 0 0 0 127 0" result="hardAlpha"/><feOffset dy="-.131"/><feComposite in2="hardAlpha" operator="arithmetic" k2="-1" k3="1"/><feColorMatrix type="matrix" values="0 0 0 0 0 0 0 0 0 0 0 0 0 0 0 0 0 0 0.12 0"/><feBlend mode="normal" in2="shape" result="effect1_innerShadow_2641_4053"/><feColorMatrix in="SourceAlpha" type="matrix" values="0 0 0 0 0 0 0 0 0 0 0 0 0 0 0 0 0 0 127 0" result="hardAlpha"/><feOffset dy=".131"/><feComposite in2="hardAlpha" operator="arithmetic" k2="-1" k3="1"/><feColorMatrix type="matrix" values="0 0 0 0 1 0 0 0 0 1 0 0 0 0 1 0 0 0 0.25 0"/><feBlend mode="normal" in2="effect1_innerShadow_2641_4053" result="effect2_innerShadow_2641_4053"/></filter><filter id="filter1_i_2641_4053" x="5.719" y="11.001" width="9.145" height="7.073" filterUnits="userSpaceOnUse" color-interpolation-filters="sRGB"><feFlood flood-opacity="0" result="BackgroundImageFix"/><feBlend mode="normal" in="SourceGraphic" in2="BackgroundImageFix" result="shape"/><feColorMatrix in="SourceAlpha" type="matrix" values="0 0 0 0 0 0 0 0 0 0 0 0 0 0 0 0 0 0 127 0" result="hardAlpha"/><feOffset dy="-.131"/><feComposite in2="hardAlpha" operator="arithmetic" k2="-1" k3="1"/><feColorMatrix type="matrix" values="0 0 0 0 0 0 0 0 0 0 0 0 0 0 0 0 0 0 0.08 0"/><feBlend mode="normal" in2="shape" result="effect1_innerShadow_2641_4053"/></filter><linearGradient id="paint0_linear_2641_4053" x1="11.948" y1="4.79" x2="2.718" y2="13.989" gradientUnits="userSpaceOnUse"><stop stop-color="#00A0FF"/><stop offset=".007" stop-color="#00A1FF"/><stop offset=".26" stop-color="#00BEFF"/><stop offset=".512" stop-color="#00D2FF"/><stop offset=".76" stop-color="#00DFFF"/><stop offset="1" stop-color="#00E3FF"/></linearGradient><linearGradient id="paint1_linear_2641_4053" x1="18.544" y1="11.001" x2="5.282" y2="11.001" gradientUnits="userSpaceOnUse"><stop stop-color="#FFE000"/><stop offset=".409" stop-color="#FFBD00"/><stop offset=".775" stop-color="#FFA500"/><stop offset="1" stop-color="#FF9C00"/></linearGradient><linearGradient id="paint2_linear_2641_4053" x1="13.608" y1="12.262" x2="1.091" y2="24.737" gradientUnits="userSpaceOnUse"><stop stop-color="#FF3A44"/><stop offset="1" stop-color="#C31162"/></linearGradient><linearGradient id="paint3_linear_2641_4053" x1="3.998" y1=".097" x2="9.588" y2="5.668" gradientUnits="userSpaceOnUse"><stop stop-color="#32A071"/><stop offset=".069" stop-color="#2DA771"/><stop offset=".476" stop-color="#15CF74"/><stop offset=".801" stop-color="#06E775"/><stop offset="1" stop-color="#00F076"/></linearGradient></defs></svg>