<svg width="96" height="15" viewBox="0 0 96 15" fill="none" xmlns="http://www.w3.org/2000/svg"><g clip-path="url(#clip0_14675_28553)" fill="#092F4D"><path d="M48.849 2.438c0-.75.188-.938.943-.938h.377c.754 0 .943.188.943.938v3.187c.566-.563 1.509-.938 2.64-.938 1.32 0 2.83.563 2.83 2.813v4.688c0 .75-.19.937-.944.937h-.377c-.754 0-.943-.188-.943-.938V7.875c0-.938-.566-1.125-1.32-1.125-.943 0-1.886.375-1.886 2.063v3.562c0 .75-.189.938-.943.938h-.377c-.755 0-.943-.188-.943-.938V2.437zm11.505 7.687c0 .938.189 1.313 1.697 1.313 1.51 0 1.51-.563 1.51-1.313V5.812c0-.75.188-.937.942-.937h.377c.755 0 .944.188.944.938v4.312c0 2.25-1.132 3.375-3.773 3.375-2.452 0-3.772-1.125-3.772-3.375V5.812c0-.75.189-.937.943-.937h.377c.755 0 .944.188.944.938l-.189 4.312zm7.166-7.687c0-.75.19-.938.944-.938h.377c.754 0 .943.188.943.938v3.187c.377-.563 1.131-.938 2.263-.938 2.263 0 3.584 1.313 3.584 3.75V9.75c0 2.625-1.51 3.75-3.961 3.75-2.263 0-3.96-1.125-3.96-3.75V2.437h-.19zm5.659 6c0-1.126-.377-1.688-1.886-1.688-1.51 0-1.886.563-1.886 1.688V9.75c0 1.125.377 1.688 1.886 1.688 1.508 0 1.886-.563 1.886-1.688V8.437zm8.299 2.812c-.377 0-.755.188-1.132.188-.566 0-.943-.188-1.132-1.126V6.938H81.1c.755 0 .944-.187.944-.937v-.188c0-.75-.19-.937-.944-.937h-1.886V3.562c0-.75-.188-.937-.943-.937h-.377c-.754 0-.943.188-.943.938v7.5c.377 1.687 1.509 2.25 3.207 2.25.377 0 .754 0 1.131-.188.754-.188.943-.375.943-1.125.189-.75 0-.938-.754-.75zM90.907 9c-.188.75-.377.938-1.131.938h-4.338v.187c0 .938.566 1.313 2.263 1.313.755 0 1.32 0 2.075-.188.754-.188.943 0 .943.75v.188c0 .75-.189.937-.943 1.124-.755.188-1.32.188-2.075.188-3.017 0-4.338-1.125-4.338-3.75V8.437c0-2.25.943-3.75 3.961-3.75 2.452 0 3.772 1.313 3.772 3.563-.189.188-.189.563-.189.75zm-5.28-.938h3.394v-.187c0-.75-.565-1.313-1.697-1.313-1.132 0-1.698.375-1.698 1.313v.188zm6.789-5.624c0-.75.189-.938.943-.938h.377c.755 0 .943.188.943.938v7.874c0 .938.189 1.126.755 1.126.377 0 .566.187.566.75v.374c0 .75-.19.938-.566.938h-.566c-1.509 0-2.452-.75-2.452-2.625V2.437zM35.647 9.563c-.755-.563-1.32-1.313-1.32-1.876H31.12v4.688c0 2.625 1.132 3 2.452 1.875l4.15-3-2.075-1.688z"/><path d="M45.077 7.688H34.893c0 .562.377 1.125 1.131 1.687l6.601 5.063c1.51 1.124 2.452.562 2.452-1.876V7.689zM42.625.563l-4.15 3.187 2.075 1.688c.755.562 1.32 1.312 1.32 1.875h3.207V2.438c0-2.438-1.132-3-2.452-1.875z"/><path d="M40.173 5.625L33.572.563C32.063-.562 31.12 0 31.12 2.438v4.687h10.185c0-.375-.377-.937-1.132-1.5zM0 5.438v-.75C0 2.813.943 2.25 2.64 2.25h.943c.566.188.566.188.566.75v.188c0 .187 0 .374-.188.562-.189 0-.755-.188-1.32-.188-.755 0-1.132.376-1.132.938v.938h1.886c.566 0 .566.187.566.562v.188c0 .562-.189.562-.566.562H1.509v5.063c0 .562-.189.562-.566.562H.566C.189 12.563 0 12.563 0 12V5.437zM6.413 12c0 .563-.189.563-.566.563H5.66c-.566 0-.566-.188-.566-.563V7.875c0-1.688.943-2.625 2.64-2.625h.377c.566 0 .566.188.566.75v.188c0 .562-.188.562-.566.562h-.377c-.943 0-1.32.375-1.32 1.313V12zm2.828-2.25V8.437c0-2.062 1.132-3 3.395-3s3.206.938 3.206 3V9.75c0 2.063-1.131 3-3.206 3-2.452 0-3.395-.938-3.395-3zm5.093-1.313c0-1.124-.378-1.687-1.886-1.687-1.32 0-1.887.563-1.887 1.688V9.75c0 1.125.378 1.688 1.886 1.688 1.32 0 1.887-.563 1.887-1.688V8.437zM18.672 12c0 .563-.189.563-.566.563h-.377c-.566 0-.566-.188-.566-.563V8.25c0-1.875.943-2.813 3.018-2.813 1.131 0 1.697.375 2.074 1.125.378-.937 1.132-1.125 2.075-1.125 2.075 0 2.83.938 2.83 2.813V12c0 .563-.19.563-.567.563h-.188c-.566 0-.566-.188-.566-.563V8.25c0-.938-.377-1.313-1.509-1.313s-1.509.375-1.509 1.313V12c0 .563-.188.563-.566.563h-.188c-.566 0-.566-.188-.566-.563V8.25c0-.938-.377-1.313-1.509-1.313s-1.509.375-1.509 1.313V12h.189z"/></g><defs><clipPath id="clip0_14675_28553"><path fill="#fff" d="M0 0h96v15H0z"/></clipPath></defs></svg>