<svg width="389" height="495" viewBox="0 0 389 495" fill="none" xmlns="http://www.w3.org/2000/svg"><g clip-path="url(#clip0_28371_52178)"><path d="M382.931 123.911h-.731V46.499C382.2 20.804 361.324 0 335.622 0H53.378C27.676 0 6.8 20.804 6.8 46.498v77.413h-.73A6.049 6.049 0 0 0 0 129.969v53.543a6.05 6.05 0 0 0 6.069 6.059H6.8v12.774h-.73A6.05 6.05 0 0 0 0 208.404v53.542a6.05 6.05 0 0 0 6.069 6.059H6.8v469.036c0 25.658 20.84 46.498 46.578 46.498h282.244c25.702 0 46.578-20.804 46.578-46.498V222.455h.731c3.364 0 6.069-2.7 6.069-6.058v-86.428a6.049 6.049 0 0 0-6.069-6.058z" fill="#333343"/><path d="M329.284 765.912H59.682c-20.647 0-37.389-16.62-37.389-37.116V54.954c0-20.496 16.742-37.116 37.389-37.116H329.32c20.647 0 37.388 16.62 37.388 37.116V728.76c0 20.532-16.741 37.152-37.424 37.152z" fill="#fff"/><path d="M55.682 42.31c.12 0 .213.03.28.09.066.06.1.143.1.25 0 .113-.034.2-.1.26-.06.06-.154.09-.28.09h-3.31c-.127 0-.224-.03-.29-.09-.06-.06-.09-.147-.09-.26a.32.32 0 0 1 .1-.25c.066-.06.16-.09.28-.09h1.24v-5.36l-1.09.71a.3.3 0 0 1-.16.05c-.094 0-.177-.043-.25-.13a.45.45 0 0 1-.1-.28c0-.14.053-.24.16-.3l1.52-.99a.637.637 0 0 1 .35-.11.38.38 0 0 1 .28.11.42.42 0 0 1 .11.31v5.99h1.25zm6.156 0c.12 0 .213.03.28.09.066.06.1.143.1.25 0 .233-.127.35-.38.35h-3.92a.4.4 0 0 1-.28-.1.356.356 0 0 1-.11-.26c0-.127.047-.237.14-.33l2.41-2.65c.333-.373.573-.707.72-1 .153-.3.23-.6.23-.9 0-.387-.114-.683-.34-.89-.22-.207-.534-.31-.94-.31-.32 0-.627.06-.92.18-.294.113-.587.29-.88.53a.46.46 0 0 1-.28.12.237.237 0 0 1-.19-.1.43.43 0 0 1-.08-.26c0-.14.053-.253.16-.34a2.986 2.986 0 0 1 1-.6 3.43 3.43 0 0 1 1.21-.22c.633 0 1.136.167 1.51.5.38.333.57.783.57 1.35 0 .407-.093.797-.28 1.17-.18.373-.48.79-.9 1.25l-2 2.17h3.17zm2.066-3.16a.562.562 0 0 1-.4-.15.555.555 0 0 1-.16-.41c0-.167.053-.3.16-.4a.543.543 0 0 1 .4-.16c.153 0 .28.053.38.16.107.1.16.233.16.4a.555.555 0 0 1-.16.41c-.1.1-.227.15-.38.15zm0 3.9a.562.562 0 0 1-.4-.15.555.555 0 0 1-.16-.41c0-.167.053-.303.16-.41a.543.543 0 0 1 .4-.16c.153 0 .28.053.38.16.107.107.16.243.16.41a.555.555 0 0 1-.16.41c-.1.1-.227.15-.38.15zm6.465-2.26c.12 0 .213.033.28.1.067.06.1.14.1.24 0 .227-.127.34-.38.34h-.75v1.16a.392.392 0 0 1-.41.42.392.392 0 0 1-.29-.11.419.419 0 0 1-.11-.31v-1.16h-2.96a.378.378 0 0 1-.28-.1.34.34 0 0 1-.1-.25c0-.093.037-.197.11-.31l3.27-4.73a.436.436 0 0 1 .36-.18c.113 0 .21.037.29.11a.4.4 0 0 1 .12.31v4.47h.75zm-1.56 0v-3.47l-2.41 3.47h2.41zm5.496-2.21c.447 0 .837.093 1.17.28.34.187.6.45.78.79.187.333.28.72.28 1.16 0 .44-.1.833-.3 1.18-.2.34-.48.607-.84.8-.353.187-.763.28-1.23.28a3.43 3.43 0 0 1-1.21-.22 2.985 2.985 0 0 1-1-.6.456.456 0 0 1-.16-.34c0-.1.027-.183.08-.25a.237.237 0 0 1 .19-.1c.094 0 .187.037.28.11.293.24.587.42.88.54.294.113.6.17.92.17.493 0 .88-.14 1.16-.42.28-.28.42-.66.42-1.14 0-.467-.14-.843-.42-1.13-.28-.287-.657-.43-1.13-.43-.606 0-1.1.233-1.48.7a.448.448 0 0 1-.34.15.372.372 0 0 1-.24-.08.324.324 0 0 1-.09-.24v-3.45a.4.4 0 0 1 .1-.28.405.405 0 0 1 .3-.11h3.52c.12 0 .214.03.28.09.074.06.11.143.11.25 0 .107-.036.19-.11.25a.404.404 0 0 1-.28.09h-3.11v2.51c.187-.18.404-.317.65-.41.254-.1.527-.15.82-.15zm4.006 4.47a.405.405 0 0 1-.3-.11.44.44 0 0 1-.11-.31v-6.28c0-.12.037-.217.11-.29a.44.44 0 0 1 .31-.11h2.37c.74 0 1.314.18 1.72.54.414.36.62.87.62 1.53s-.206 1.173-.62 1.54c-.413.367-.986.55-1.72.55h-1.97v2.52a.44.44 0 0 1-.11.31.406.406 0 0 1-.3.11zm2.3-3.62c1.074 0 1.61-.47 1.61-1.41 0-.927-.536-1.39-1.61-1.39h-1.89v2.8h1.89zm9.996-3.53c.126 0 .223.04.29.12.073.073.11.173.11.3v6.33c0 .12-.034.217-.1.29a.36.36 0 0 1-.28.11c-.12 0-.21-.037-.27-.11a.444.444 0 0 1-.09-.29v-5.11l-2.17 4.16c-.094.193-.23.29-.41.29-.174 0-.31-.097-.41-.29l-2.18-4.11v5.06c0 .12-.034.217-.1.29-.06.073-.15.11-.27.11a.36.36 0 0 1-.28-.11.414.414 0 0 1-.1-.29v-6.33c0-.127.036-.227.11-.3a.387.387 0 0 1 .3-.12c.166 0 .3.097.4.29l2.54 4.87 2.51-4.87a.558.558 0 0 1 .17-.22.39.39 0 0 1 .23-.07z" fill="#000"/><g clip-path="url(#clip1_28371_52178)"><rect x="315.5" y="34.83" width="21" height="10.33" rx="2.17" stroke="#000" stroke-opacity=".4"/><rect x="317" y="36.33" width="18" height="7.33" rx="1.33" fill="#030F1A"/><path fill-rule="evenodd" clip-rule="evenodd" d="M338 41.996A2.166 2.166 0 0 0 338 38v3.996z" fill="#000" fill-opacity=".4"/></g><path d="M302.328 36.607a8.64 8.64 0 0 1 5.953 2.379.308.308 0 0 0 .433-.004l1.156-1.166a.321.321 0 0 0-.002-.456 10.897 10.897 0 0 0-15.08 0 .321.321 0 0 0-.003.456l1.156 1.166c.119.12.312.122.433.004a8.644 8.644 0 0 1 5.954-2.379zm0 3.796c1.217 0 2.392.453 3.294 1.27a.31.31 0 0 0 .433-.006l1.155-1.167a.321.321 0 0 0-.005-.459 7.159 7.159 0 0 0-9.752 0 .323.323 0 0 0-.004.46l1.154 1.166a.31.31 0 0 0 .433.006 4.908 4.908 0 0 1 3.292-1.27zm2.219 2.784a.312.312 0 0 0-.009-.457 3.423 3.423 0 0 0-4.42 0 .315.315 0 0 0-.009.457l1.997 2.016a.314.314 0 0 0 .444 0l1.997-2.016zm-30.875-1.85h1a1 1 0 0 1 1 1v2a1 1 0 0 1-1 1h-1a1 1 0 0 1-1-1v-2a1 1 0 0 1 1-1zm4.667-2h1a1 1 0 0 1 1 1v4a1 1 0 0 1-1 1h-1a1 1 0 0 1-1-1v-4a1 1 0 0 1 1-1zm4.666-2.334h1a1 1 0 0 1 1 1v6.334a1 1 0 0 1-1 1h-1a1 1 0 0 1-1-1v-6.334a1 1 0 0 1 1-1zm4.667-2.333h1a1 1 0 0 1 1 1v8.667a1 1 0 0 1-1 1h-1a1 1 0 0 1-1-1V35.67a1 1 0 0 1 1-1z" fill="#030F1A"/><path d="M137.098 11.148h114.805V33.25a8 8 0 0 1-8 8h-98.805a8 8 0 0 1-8-8V11.148z" fill="#333343"/><path d="M173.879 28.986h40.126" stroke="#9CABB8" stroke-width="4" stroke-linecap="round"/><path d="M148.242 28.986h1.115" stroke="#9CABB8" stroke-width="8" stroke-linecap="round"/><path d="M241.871 28.986h1.115m-8.916 0h1.115" stroke="#9CABB8" stroke-width="4" stroke-linecap="round"/><path d="M166.197 81.872a.885.885 0 0 1 .168.49.648.648 0 0 1-.266.532.909.909 0 0 1-.602.21c-.149 0-.294-.033-.434-.098a1.015 1.015 0 0 1-.336-.322l-1.862-2.828c-.186-.299-.387-.509-.602-.63-.205-.121-.476-.182-.812-.182h-1.372v3.136c0 .28-.079.504-.238.672-.158.158-.373.238-.644.238-.27 0-.49-.08-.658-.238-.158-.168-.238-.392-.238-.672v-8.19c0-.27.075-.48.224-.63.159-.15.374-.224.644-.224h3.5c1.12 0 1.97.252 2.548.756.588.495.882 1.213.882 2.156 0 .765-.219 1.395-.658 1.89-.429.485-1.04.798-1.834.938.271.065.509.182.714.35.206.168.406.401.602.7l1.274 1.946zm-3.78-4.214c.682 0 1.181-.126 1.498-.378.318-.261.476-.658.476-1.19 0-.541-.158-.934-.476-1.176-.317-.252-.816-.378-1.498-.378h-2.352v3.122h2.352zM173.3 81.13c.158 0 .284.06.378.182.102.121.154.285.154.49 0 .29-.173.532-.518.728a4.64 4.64 0 0 1-2.226.588c-1.102 0-1.974-.317-2.618-.952-.644-.635-.966-1.503-.966-2.604 0-.7.14-1.32.42-1.862.28-.541.672-.962 1.176-1.26a3.387 3.387 0 0 1 1.736-.448c.616 0 1.152.135 1.61.406.457.27.812.653 1.064 1.148.252.494.378 1.078.378 1.75 0 .401-.178.602-.532.602h-4.13c.056.644.238 1.12.546 1.428.308.299.756.448 1.344.448.298 0 .56-.037.784-.112.233-.075.494-.178.784-.308.28-.15.485-.224.616-.224zm-2.422-3.906c-.476 0-.859.15-1.148.448-.28.299-.448.728-.504 1.288h3.164c-.019-.57-.159-.999-.42-1.288-.262-.299-.626-.448-1.092-.448zm7.901 4.564c.467.028.7.238.7.63a.582.582 0 0 1-.28.518c-.177.112-.434.158-.77.14l-.378-.028c-1.568-.112-2.352-.952-2.352-2.52v-3.052h-.7c-.252 0-.448-.056-.588-.168-.13-.112-.196-.276-.196-.49 0-.215.066-.378.196-.49.14-.112.336-.168.588-.168h.7v-1.288c0-.252.08-.453.238-.602.159-.15.374-.224.644-.224.262 0 .472.075.63.224.159.15.238.35.238.602v1.288h1.19c.252 0 .444.056.574.168.14.112.21.275.21.49 0 .215-.07.378-.21.49-.13.112-.322.168-.574.168h-1.19v3.178c0 .69.318 1.06.952 1.106l.378.028zm5.616-5.796c1.606 0 2.408.938 2.408 2.814v3.444c0 .261-.079.466-.238.616-.149.15-.359.224-.63.224-.27 0-.485-.075-.644-.224-.158-.15-.238-.355-.238-.616v-3.444c0-.495-.102-.854-.308-1.078-.196-.233-.508-.35-.938-.35-.504 0-.91.159-1.218.476-.298.317-.448.742-.448 1.274v3.122c0 .261-.079.466-.238.616-.158.15-.373.224-.644.224-.27 0-.485-.075-.644-.224-.149-.15-.224-.355-.224-.616v-8.372c0-.243.08-.439.238-.588a.933.933 0 0 1 .644-.224c.262 0 .472.07.63.21.159.14.238.331.238.574v3.262a2.26 2.26 0 0 1 .924-.826 2.935 2.935 0 0 1 1.33-.294zm5.054 7.098a.95.95 0 0 1-.63-.21c-.159-.15-.238-.36-.238-.63v-5.404c0-.27.079-.476.238-.616a.95.95 0 0 1 .63-.21.95.95 0 0 1 .63.21c.168.14.252.345.252.616v5.404c0 .27-.084.48-.252.63a.95.95 0 0 1-.63.21zm0-8.316c-.317 0-.569-.084-.756-.252a.903.903 0 0 1-.28-.686c0-.28.093-.504.28-.672.187-.168.439-.252.756-.252.308 0 .555.084.742.252a.84.84 0 0 1 .294.672c0 .28-.093.508-.28.686-.187.168-.439.252-.756.252zm6.663 1.218c.821 0 1.432.233 1.834.7.401.467.602 1.171.602 2.114v3.444c0 .261-.08.466-.238.616-.15.15-.36.224-.63.224-.271 0-.486-.075-.644-.224-.159-.15-.238-.355-.238-.616v-3.346c0-.532-.103-.92-.308-1.162-.196-.243-.509-.364-.938-.364-.504 0-.91.159-1.218.476-.299.317-.448.742-.448 1.274v3.122c0 .261-.08.466-.238.616-.159.15-.374.224-.644.224-.271 0-.486-.075-.644-.224-.15-.15-.224-.355-.224-.616v-5.418c0-.243.079-.439.238-.588.158-.15.373-.224.644-.224.242 0 .438.075.588.224.158.14.238.326.238.56v.378a2.36 2.36 0 0 1 .938-.882 2.821 2.821 0 0 1 1.33-.308zm10.303 5.656c.187.177.28.378.28.602a.812.812 0 0 1-.238.574.69.69 0 0 1-.532.252c-.205 0-.397-.084-.574-.252l-3.276-2.968v2.394c0 .27-.084.476-.252.616a.95.95 0 0 1-.63.21.95.95 0 0 1-.63-.21c-.159-.14-.238-.346-.238-.616v-8.358c0-.27.079-.476.238-.616a.95.95 0 0 1 .63-.21.95.95 0 0 1 .63.21c.168.14.252.345.252.616v5.264l2.996-2.87a.79.79 0 0 1 .574-.252c.215 0 .401.08.56.238a.765.765 0 0 1 .238.56c0 .215-.089.41-.266.588l-2.198 2.044 2.436 2.184zm6.267 1.442c-.271 0-.49-.084-.658-.252-.159-.168-.238-.387-.238-.658v-8.218c0-.27.079-.486.238-.644.168-.168.387-.252.658-.252.28 0 .499.084.658.252.168.159.252.373.252.644v8.218c0 .27-.084.49-.252.658-.159.168-.378.252-.658.252zm6.863-7.098c.821 0 1.433.233 1.834.7.401.467.602 1.171.602 2.114v3.444c0 .261-.079.466-.238.616-.149.15-.359.224-.63.224s-.485-.075-.644-.224c-.159-.15-.238-.355-.238-.616v-3.346c0-.532-.103-.92-.308-1.162-.196-.243-.509-.364-.938-.364-.504 0-.91.159-1.218.476-.299.317-.448.742-.448 1.274v3.122c0 .261-.079.466-.238.616-.159.15-.373.224-.644.224s-.485-.075-.644-.224c-.149-.15-.224-.355-.224-.616v-5.418c0-.243.079-.439.238-.588.159-.15.373-.224.644-.224.243 0 .439.075.588.224.159.14.238.326.238.56v.378a2.36 2.36 0 0 1 .938-.882 2.821 2.821 0 0 1 1.33-.308zm7.77 5.796c.466.028.7.238.7.63a.584.584 0 0 1-.28.518c-.178.112-.434.158-.77.14l-.378-.028c-1.568-.112-2.352-.952-2.352-2.52v-3.052h-.7c-.252 0-.448-.056-.588-.168-.131-.112-.196-.276-.196-.49 0-.215.065-.378.196-.49.14-.112.336-.168.588-.168h.7v-1.288c0-.252.079-.453.238-.602.158-.15.373-.224.644-.224.261 0 .471.075.63.224.158.15.238.35.238.602v1.288h1.19c.252 0 .443.056.574.168.14.112.21.275.21.49 0 .215-.07.378-.21.49-.131.112-.322.168-.574.168h-1.19v3.178c0 .69.317 1.06.952 1.106l.378.028zm2.711 1.302c-.299 0-.546-.098-.742-.294a1.054 1.054 0 0 1-.294-.756c0-.299.098-.546.294-.742a.981.981 0 0 1 .742-.308c.299 0 .546.103.742.308.196.196.294.443.294.742 0 .298-.098.55-.294.756a1.005 1.005 0 0 1-.742.294z" fill="#000"/><path d="M45.7 70.236l-7.802 7.804 7.803 7.804" stroke="#2E2E2E"/><path fill="#fff" d="M22.5 103.5h344v391h-344z"/><path stroke="#D2D6D9" d="M22.5 103.5h344v391h-344z"/><rect x="30" y="120" width="329" height="146" rx="10" fill="#F2F2F2"/></g><defs><clipPath id="clip0_28371_52178"><path fill="#fff" d="M0 0h389v495H0z"/></clipPath><clipPath id="clip1_28371_52178"><path fill="#fff" transform="translate(315 34)" d="M0 0h25v12H0z"/></clipPath></defs></svg>