<svg width="26" height="27" viewBox="0 0 26 27" fill="none" xmlns="http://www.w3.org/2000/svg"><path d="M22.715 20.485a2.792 2.792 0 0 1-2.957 2.709c-2.333.013-4.665 0-6.998 0a.542.542 0 0 1 0-1.084c2.384 0 4.767.035 7.15 0 1.2-.017 1.722-.918 1.722-1.99V6.617a1.675 1.675 0 0 0-1.049-1.595 3.275 3.275 0 0 0-1.15-.103H12.76a.542.542 0 0 1 0-1.083c2.41 0 4.838-.092 7.245 0a2.78 2.78 0 0 1 2.708 2.892l.002 13.756z" fill="#000"/><path d="M3.44 13.135a.493.493 0 0 0-.15.337c0 .016 0 .03-.006.046-.007.017 0 .03.006.045a.495.495 0 0 0 .15.338l3.975 3.975a.542.542 0 0 0 .766-.766l-3.05-3.051h11.637a.542.542 0 0 0 0-1.083H5.131l3.05-3.051a.542.542 0 0 0-.766-.766L3.44 13.135z" fill="#000"/></svg>