<svg width="64" height="54" viewBox="0 0 64 54" fill="none" xmlns="http://www.w3.org/2000/svg"><mask id="mask0_3860_4735" style="mask-type:alpha" maskUnits="userSpaceOnUse" x="14" y="0" width="31" height="31"><path fill="#D9D9D9" d="M14 0h31v31H14z"/></mask><g mask="url(#mask0_3860_4735)"><path d="M17.23 27.174V5.564c0-.653.226-1.205.678-1.657a2.254 2.254 0 0 1 1.656-.678h19.872c.653 0 1.205.226 1.657.678.452.452.678 1.004.678 1.657v14.705c0 .653-.226 1.205-.678 1.657a2.254 2.254 0 0 1-1.657.678H21.8l-4.57 4.57zm1.937-4.68l1.828-1.828h18.441a.387.387 0 0 0 .286-.111.387.387 0 0 0 .112-.286V5.564a.387.387 0 0 0-.112-.286.387.387 0 0 0-.286-.112H19.564a.387.387 0 0 0-.285.112.387.387 0 0 0-.112.286v16.93zm0-16.93v-.398 17.329V5.564z" fill="#9CABB8"/></g><path d="M10.488 50v-7.05h.69l2.71 5.09 2.69-5.09h.69V50h-.76v-5.51l-2.35 4.42h-.54l-2.38-4.41V50h-.75zm10.614.09c-.766 0-1.373-.223-1.82-.67-.446-.453-.67-1.067-.67-1.84 0-.5.1-.94.3-1.32.2-.387.474-.683.82-.89.354-.213.76-.32 1.22-.32.66 0 1.177.213 1.55.64.374.42.56 1 .56 1.74v.31h-3.66c.027.553.187.977.48 1.27.294.287.7.43 1.22.43.294 0 .574-.043.84-.13.267-.093.52-.243.76-.45l.28.57c-.22.207-.5.37-.84.49-.34.113-.686.17-1.04.17zm-.13-4.44c-.46 0-.823.143-1.09.43-.266.287-.423.663-.47 1.13h2.95c-.02-.493-.15-.877-.39-1.15-.233-.273-.566-.41-1-.41zm4.903 4.44c-.38 0-.74-.053-1.08-.16a2.295 2.295 0 0 1-.84-.45l.26-.57c.24.193.503.337.79.43.293.087.59.13.89.13.38 0 .666-.07.86-.21.193-.14.29-.33.29-.57a.544.544 0 0 0-.19-.44c-.127-.113-.327-.2-.6-.26l-.91-.2c-.827-.18-1.24-.607-1.24-1.28 0-.44.173-.793.52-1.06.353-.267.813-.4 1.38-.4.333 0 .65.053.95.16.306.1.56.25.76.45l-.27.57a1.954 1.954 0 0 0-.68-.41 2.06 2.06 0 0 0-.76-.15c-.374 0-.657.073-.85.22a.693.693 0 0 0-.29.58c0 .373.246.613.74.72l.91.19c.426.093.75.243.97.45.22.2.33.473.33.82 0 .447-.177.8-.53 1.06-.354.253-.824.38-1.41.38zm4.814 0c-.38 0-.74-.053-1.08-.16a2.295 2.295 0 0 1-.84-.45l.26-.57c.24.193.503.337.79.43.293.087.59.13.89.13.38 0 .667-.07.86-.21.193-.14.29-.33.29-.57a.545.545 0 0 0-.19-.44c-.127-.113-.327-.2-.6-.26l-.91-.2c-.827-.18-1.24-.607-1.24-1.28 0-.44.173-.793.52-1.06.353-.267.813-.4 1.38-.4.333 0 .65.053.95.16.307.1.56.25.76.45l-.27.57a1.955 1.955 0 0 0-.68-.41c-.253-.1-.507-.15-.76-.15-.373 0-.657.073-.85.22a.693.693 0 0 0-.29.58c0 .373.247.613.74.72l.91.19c.427.093.75.243.97.45.22.2.33.473.33.82 0 .447-.177.8-.53 1.06-.353.253-.823.38-1.41.38zm4.705 0c-.334 0-.634-.063-.9-.19a1.63 1.63 0 0 1-.62-.54 1.326 1.326 0 0 1-.23-.76c0-.353.09-.633.27-.84.186-.207.49-.353.91-.44.426-.093 1.006-.14 1.74-.14h.32v-.31c0-.413-.087-.71-.26-.89-.167-.187-.437-.28-.81-.28a2.78 2.78 0 0 0-.85.13c-.274.08-.554.213-.84.4l-.28-.59c.253-.18.56-.323.92-.43a3.74 3.74 0 0 1 1.05-.16c.626 0 1.09.153 1.39.46.306.307.46.783.46 1.43V50h-.76v-.84a1.5 1.5 0 0 1-.59.68c-.26.167-.567.25-.92.25zm.13-.61c.4 0 .726-.137.98-.41.253-.28.38-.633.38-1.06v-.3h-.31c-.54 0-.967.027-1.28.08-.307.047-.524.133-.65.26-.12.12-.18.287-.18.5 0 .273.093.497.28.67.193.173.453.26.78.26zm5.792 2.41a4.09 4.09 0 0 1-1.19-.17 2.943 2.943 0 0 1-.98-.49l.27-.59c.3.213.597.367.89.46.3.093.624.14.97.14.96 0 1.44-.493 1.44-1.48v-.86c-.14.307-.36.55-.66.73a1.95 1.95 0 0 1-1.01.26c-.446 0-.833-.103-1.16-.31a2.088 2.088 0 0 1-.76-.85c-.173-.367-.26-.79-.26-1.27s.087-.9.26-1.26c.18-.367.434-.65.76-.85.327-.2.714-.3 1.16-.3.38 0 .717.087 1.01.26.3.173.52.41.66.71v-.88h.79v4.51c0 .747-.186 1.307-.56 1.68-.366.373-.91.56-1.63.56zm-.12-2.66c.467 0 .837-.16 1.11-.48.274-.32.41-.75.41-1.29s-.136-.967-.41-1.28c-.273-.32-.643-.48-1.11-.48-.46 0-.826.16-1.1.48-.273.313-.41.74-.41 1.28s.137.97.41 1.29c.274.32.64.48 1.1.48zm6.02.86c-.767 0-1.374-.223-1.82-.67-.447-.453-.67-1.067-.67-1.84 0-.5.1-.94.3-1.32.2-.387.473-.683.82-.89.353-.213.76-.32 1.22-.32.66 0 1.176.213 1.55.64.373.42.56 1 .56 1.74v.31h-3.66c.026.553.186.977.48 1.27.293.287.7.43 1.22.43.293 0 .573-.043.84-.13.266-.093.52-.243.76-.45l.28.57c-.22.207-.5.37-.84.49a3.28 3.28 0 0 1-1.04.17zm-.13-4.44c-.46 0-.824.143-1.09.43-.267.287-.424.663-.47 1.13h2.95c-.02-.493-.15-.877-.39-1.15-.234-.273-.567-.41-1-.41zm4.902 4.44c-.38 0-.74-.053-1.08-.16a2.295 2.295 0 0 1-.84-.45l.26-.57c.24.193.503.337.79.43.293.087.59.13.89.13.38 0 .667-.07.86-.21.193-.14.29-.33.29-.57a.544.544 0 0 0-.19-.44c-.127-.113-.327-.2-.6-.26l-.91-.2c-.827-.18-1.24-.607-1.24-1.28 0-.44.173-.793.52-1.06.353-.267.813-.4 1.38-.4.333 0 .65.053.95.16.307.1.56.25.76.45l-.27.57a1.954 1.954 0 0 0-.68-.41c-.253-.1-.507-.15-.76-.15-.373 0-.657.073-.85.22a.693.693 0 0 0-.29.58c0 .373.247.613.74.72l.91.19c.427.093.75.243.97.45.22.2.33.473.33.82 0 .447-.177.8-.53 1.06-.353.253-.823.38-1.41.38z" fill="#030F1A"/></svg>