<svg width="201" height="140" viewBox="0 0 201 140" fill="none" xmlns="http://www.w3.org/2000/svg"><path d="M162.5 0h-120c-5.523 0-10 4.477-10 10v120c0 5.523 4.477 10 10 10h120c5.523 0 10-4.477 10-10V10c0-5.523-4.477-10-10-10z" fill="#FFF4CC"/><path d="M146.5 10h-135a5 5 0 0 0-5 5v25a5 5 0 0 0 5 5h135a5 5 0 0 0 5-5V15a5 5 0 0 0-5-5z" fill="#fff" filter="url(#filter0_d_7540_31222)"/><path d="M75.5 18h-26a3 3 0 1 0 0 6h26a3 3 0 1 0 0-6z" fill="#FFEA99"/><path d="M93.5 31h-44a3 3 0 1 0 0 6h44a3 3 0 1 0 0-6z" fill="#FFF4CC"/><path d="M33.5 13h-19a5 5 0 0 0-5 5v19a5 5 0 0 0 5 5h19a5 5 0 0 0 5-5V18a5 5 0 0 0-5-5z" fill="#FECC2F"/><path d="M21.722 30.78h2l.022-.77c0-1.012.638-1.276 1.54-1.562a4.331 4.331 0 0 0 3.146-4.158A4.152 4.152 0 0 0 24.074 20a4.48 4.48 0 0 0-4.576 4.6h2.068a2.517 2.517 0 0 1 2.51-2.576 2.109 2.109 0 0 1 2.222 2.288 2.278 2.278 0 0 1-1.672 2.134l-.726.288a2.917 2.917 0 0 0-2.2 3.278l.022.768zm.99 4.754a1.465 1.465 0 0 0 1.518-1.454 1.465 1.465 0 0 0-1.518-1.452 1.468 1.468 0 0 0-1.518 1.452 1.467 1.467 0 0 0 1.518 1.454z" fill="#fff"/><path d="M54.5 53h135a5.002 5.002 0 0 1 5 5v25a5.002 5.002 0 0 1-5 5h-135a5 5 0 0 1-5-5V58a5 5 0 0 1 5-5z" fill="#fff" filter="url(#filter1_d_7540_31222)"/><path d="M118.5 61h-26a3 3 0 1 0 0 6h26a3 3 0 1 0 0-6z" fill="#FFEA99"/><path d="M136.5 74h-44a3 3 0 1 0 0 6h44a3 3 0 1 0 0-6z" fill="#FFF4CC"/><path d="M76.5 56h-19a5 5 0 0 0-5 5v19a5 5 0 0 0 5 5h19a5 5 0 0 0 5-5V61a5 5 0 0 0-5-5z" fill="#FECC2F"/><path d="M64.722 73.78h2l.022-.77c0-1.012.638-1.276 1.54-1.562a4.331 4.331 0 0 0 3.146-4.158A4.152 4.152 0 0 0 67.074 63a4.48 4.48 0 0 0-4.576 4.6h2.068a2.517 2.517 0 0 1 2.51-2.576 2.109 2.109 0 0 1 2.222 2.288 2.278 2.278 0 0 1-1.672 2.134l-.726.288a2.917 2.917 0 0 0-2.2 3.278l.022.768zm.99 4.754a1.465 1.465 0 0 0 1.518-1.454 1.465 1.465 0 0 0-1.518-1.452 1.468 1.468 0 0 0-1.518 1.452 1.467 1.467 0 0 0 1.518 1.454z" fill="#fff"/><path d="M11.5 96h135a5.002 5.002 0 0 1 5 5v25a5.004 5.004 0 0 1-1.464 3.536A5.004 5.004 0 0 1 146.5 131h-135a5.002 5.002 0 0 1-5-5v-25a5 5 0 0 1 5-5z" fill="#fff" filter="url(#filter2_d_7540_31222)"/><path d="M75.5 104h-26a3 3 0 1 0 0 6h26a3 3 0 1 0 0-6z" fill="#FFEA99"/><path d="M93.5 117h-44a3 3 0 1 0 0 6h44a3 3 0 1 0 0-6z" fill="#FFF4CC"/><path d="M33.5 99h-19a5 5 0 0 0-5 5v19a5 5 0 0 0 5 5h19a5 5 0 0 0 5-5v-19a5 5 0 0 0-5-5z" fill="#FECC2F"/><path d="M21.722 116.78h2l.022-.77c0-1.012.638-1.276 1.54-1.562a4.329 4.329 0 0 0 3.146-4.158 4.148 4.148 0 0 0-2.671-4.023 4.138 4.138 0 0 0-1.685-.267 4.48 4.48 0 0 0-4.576 4.6h2.068a2.519 2.519 0 0 1 2.51-2.576 2.096 2.096 0 0 1 1.634.636 2.108 2.108 0 0 1 .588 1.652 2.278 2.278 0 0 1-1.672 2.134l-.726.288a2.916 2.916 0 0 0-2.2 3.278l.022.768zm.99 4.754a1.461 1.461 0 0 0 1.398-.884c.078-.18.119-.374.12-.57a1.466 1.466 0 0 0-1.518-1.452 1.459 1.459 0 0 0-1.065.406 1.457 1.457 0 0 0-.453 1.046 1.469 1.469 0 0 0 .944 1.359c.183.07.378.102.574.095z" fill="#fff"/><defs><filter id="filter0_d_7540_31222" x=".5" y="7" width="157" height="47" filterUnits="userSpaceOnUse" color-interpolation-filters="sRGB"><feFlood flood-opacity="0" result="BackgroundImageFix"/><feColorMatrix in="SourceAlpha" type="matrix" values="0 0 0 0 0 0 0 0 0 0 0 0 0 0 0 0 0 0 127 0" result="hardAlpha"/><feOffset dy="3"/><feGaussianBlur stdDeviation="3"/><feColorMatrix type="matrix" values="0 0 0 0 0 0 0 0 0 0 0 0 0 0 0 0 0 0 0.161 0"/><feBlend mode="normal" in2="BackgroundImageFix" result="effect1_dropShadow_7540_31222"/><feBlend mode="normal" in="SourceGraphic" in2="effect1_dropShadow_7540_31222" result="shape"/></filter><filter id="filter1_d_7540_31222" x="43.5" y="50" width="157" height="47" filterUnits="userSpaceOnUse" color-interpolation-filters="sRGB"><feFlood flood-opacity="0" result="BackgroundImageFix"/><feColorMatrix in="SourceAlpha" type="matrix" values="0 0 0 0 0 0 0 0 0 0 0 0 0 0 0 0 0 0 127 0" result="hardAlpha"/><feOffset dy="3"/><feGaussianBlur stdDeviation="3"/><feColorMatrix type="matrix" values="0 0 0 0 0 0 0 0 0 0 0 0 0 0 0 0 0 0 0.161 0"/><feBlend mode="normal" in2="BackgroundImageFix" result="effect1_dropShadow_7540_31222"/><feBlend mode="normal" in="SourceGraphic" in2="effect1_dropShadow_7540_31222" result="shape"/></filter><filter id="filter2_d_7540_31222" x=".5" y="93" width="157" height="47" filterUnits="userSpaceOnUse" color-interpolation-filters="sRGB"><feFlood flood-opacity="0" result="BackgroundImageFix"/><feColorMatrix in="SourceAlpha" type="matrix" values="0 0 0 0 0 0 0 0 0 0 0 0 0 0 0 0 0 0 127 0" result="hardAlpha"/><feOffset dy="3"/><feGaussianBlur stdDeviation="3"/><feColorMatrix type="matrix" values="0 0 0 0 0 0 0 0 0 0 0 0 0 0 0 0 0 0 0.161 0"/><feBlend mode="normal" in2="BackgroundImageFix" result="effect1_dropShadow_7540_31222"/><feBlend mode="normal" in="SourceGraphic" in2="effect1_dropShadow_7540_31222" result="shape"/></filter></defs></svg>