<svg width="381" height="748" viewBox="0 0 381 748" fill="none" xmlns="http://www.w3.org/2000/svg"><g clip-path="url(#clip0_8753_33407)" fill="#F8F9FB"><path d="M41.529 264a16.586 16.586 0 0 0-5.125.301c-5.71-4.318-13.184 1.031-11.372 7.575a181.107 181.107 0 0 0-2.924 3.195c-5.213 5.683-7.12 14.977.13 24.434l9.247 12.063c3.722 4.855 9.987 1.092 15.625-3.23L52.77 304c2.045-1.569 4.035-3.236 5.571-4.956 6.607-6.466 8.741-11.335 6.336-14.474l-.105-.136c1.48-2.034 2.1-4.012.918-5.554l-7.275-9.491c-4.986-6.504-11.537-7.521-16.686-5.389zm-9.124 1.701a17.354 17.354 0 0 0-2.857 1.774c-.479.367-1.102.935-1.787 1.601a4.082 4.082 0 0 1 4.644-3.375zm26.3 25c2.295 2.993.235 6.598-6.887 12.058l-5.66 4.339c-7.122 5.46-11.139 6.512-13.433 3.519l-9.247-12.062c-7.603-9.918-4.331-19.596 1.925-24.392 3.235-2.48 7.523-3.845 11.96-3.219l1.064 1.387c-.248.257-.33.637-.173.943l1.158 2.216c.23.439.607.755 1.012.845a.945.945 0 0 0 .786-.165l.771-.591a.94.94 0 0 0 .364-.719c.018-.413-.189-.86-.553-1.194l-1.84-1.693c-.253-.233-.64-.253-.953-.079l-.59-.769c3.814.808 7.686 3.126 11.05 7.513l9.246 12.063zm-19.754-17.777c-.001-.011.009-.045.04-.069l.366-.28c.029-.022.063-.025.066-.027v-.002l1.841 1.694c.216.2.308.438.301.585-.003.092-.043.122-.057.133l-.772.592c-.015.011-.053.04-.142.02-.145-.032-.352-.181-.488-.442l-1.155-2.204zm24.485 12.597c1.547 2.019-.037 5.182-2.267 8.068l-.006.011c.105-1.286-.24-2.575-1.217-3.849l-9.248-12.063c-6.804-8.877-15.566-9.924-22.274-7.076l.012-.009c.803-.799 1.537-1.485 2.063-1.888 6.083-4.663 16.092-5.168 23.69 4.744l9.247 12.062zm-1.377-5.554c.513.669.717 1.369.688 2.087l-7.318-9.545c-2.058-2.686-4.285-4.662-6.57-6.039 2.367.801 4.698 2.407 6.734 5.063l6.466 8.434z"/><path d="M28.146 296.909l1.324-1.014.475.62-1.323 1.014-.476-.62zm1.848-1.416l1.323-1.014.475.62-1.323 1.014-.475-.62zm1.845-1.415l1.324-1.014.475.62-1.323 1.014-.476-.62zm1.849-1.417l1.322-1.014.476.62-1.323 1.014-.475-.62zm1.845-1.415l1.324-1.014.475.62-1.323 1.014-.476-.62zm1.848-1.416l1.323-1.015.476.62-1.324 1.015-.475-.62zm1.846-1.415l1.323-1.015.476.62-1.324 1.015-.475-.62zm1.847-1.416l1.324-1.015.475.62-1.324 1.015-.475-.62zm1.847-1.416l1.322-1.013.475.62-1.322 1.013-.475-.62zm1.847-1.416l1.322-1.013.475.62-1.322 1.013-.475-.62zm-13.192 17.215l1.323-1.014.475.62-1.323 1.014-.475-.62zm1.847-1.415l1.323-1.015.475.62-1.323 1.015-.475-.62zm1.846-1.415l1.323-1.015.475.62-1.323 1.015-.475-.62zm1.848-1.417l1.323-1.014.475.62-1.323 1.014-.475-.62zm1.846-1.415l1.323-1.015.475.62-1.323 1.015-.475-.62zm1.847-1.416l1.324-1.015.475.62-1.324 1.015-.475-.62zm1.846-1.416l1.324-1.014.475.62-1.323 1.014-.476-.62zm5.54-4.247l1.324-1.014.475.62-1.323 1.014-.475-.62z"/><path d="M25.197 291.884c-1.925 1.476-2.283 4.256-.796 6.197l7.608 9.924c1.487 1.94 4.264 2.317 6.19.84l16.807-12.884c1.925-1.475 2.283-4.255.796-6.195l-7.608-9.924c-1.488-1.941-4.264-2.318-6.19-.841l-16.807 12.883zm25.172-6.638l-3.852 2.953c.073-.413.005-.823-.241-1.144-.247-.322-.624-.494-1.044-.531l3.853-2.954 1.284 1.676zm-1.824 6.911c.217.198.307.436.3.583-.003.092-.043.123-.057.134l-.771.591c-.015.011-.054.041-.144.021-.144-.032-.35-.181-.486-.442l-1.154-2.205c-.002-.011.008-.045.04-.069l.366-.281c.028-.022.062-.025.065-.028l1.841 1.696zm-4.39-4.529c.538-.413 1.225-.457 1.5-.097.225.293.116.778-.223 1.171l-.836-1.09-.572.439.836 1.09c-.468.223-.965.204-1.19-.089-.275-.36-.053-1.012.485-1.424zm-.061 2.429l-15.037 11.527-1.284-1.675 15.037-11.527c-.074.414-.005.824.242 1.145.245.321.622.494 1.042.53zm9.962 4.664l-16.807 12.884c-1.243.953-3.037.705-4-.551l-2.883-3.76 1.16-.89-.475-.62-1.16.889-.358-.468 15.962-12.237.213.278a.855.855 0 0 0-.238.485l-.966.741.475.62.735-.563.98 1.877c.23.438.607.753 1.011.843a.937.937 0 0 0 .787-.164l.771-.591a.941.941 0 0 0 .364-.72c.018-.413-.189-.86-.553-1.193l-1.558-1.434.632-.484-.476-.62-.863.662a.852.852 0 0 0-.53.103l-.213-.278 4.779-3.663.36.469-1.161.889.475.62 1.16-.889 2.883 3.76c.963 1.256.736 3.053-.506 4.005zm-7.102-13.929l.82 1.07-1.16.889.476.62 1.16-.889.36.469-21.313 16.338-.36-.469 1.16-.89-.474-.62-1.16.89-.82-1.07c-.964-1.257-.737-3.054.506-4.006l16.806-12.884c1.242-.951 3.037-.704 4 .552z"/></g><g clip-path="url(#clip1_8753_33407)" fill="#F8F9FB"><path d="M346.529 384a16.584 16.584 0 0 0-5.125.301c-5.71-4.318-13.184 1.031-11.372 7.575a181.107 181.107 0 0 0-2.924 3.195c-5.213 5.683-7.12 14.977.13 24.434l9.247 12.063c3.722 4.855 9.987 1.092 15.625-3.23l5.66-4.338c2.045-1.569 4.035-3.236 5.571-4.956 6.608-6.466 8.742-11.335 6.336-14.474l-.105-.136c1.48-2.034 2.101-4.012.918-5.554l-7.275-9.491c-4.986-6.504-11.537-7.521-16.686-5.389zm-9.124 1.701a17.347 17.347 0 0 0-2.857 1.774c-.479.367-1.102.935-1.787 1.601a4.084 4.084 0 0 1 4.644-3.375zm26.3 25c2.295 2.993.235 6.598-6.887 12.058l-5.66 4.339c-7.122 5.46-11.139 6.512-13.433 3.519l-9.247-12.062c-7.603-9.918-4.331-19.596 1.926-24.392 3.234-2.48 7.522-3.845 11.959-3.219l1.064 1.387c-.248.257-.331.637-.173.943l1.158 2.216c.229.439.607.755 1.012.845a.938.938 0 0 0 .785-.165l.772-.591a.941.941 0 0 0 .364-.719c.018-.413-.189-.86-.553-1.194l-1.841-1.693c-.252-.233-.639-.253-.952-.079l-.589-.769c3.813.808 7.685 3.126 11.048 7.513l9.247 12.063zm-19.754-17.777c-.001-.011.009-.045.041-.069l.365-.28c.029-.022.063-.025.066-.027l.001-.002 1.84 1.694c.216.2.308.438.301.585-.003.092-.043.122-.057.133l-.772.592c-.015.011-.053.04-.142.02-.145-.032-.352-.181-.488-.442l-1.155-2.204zm24.485 12.597c1.547 2.019-.037 5.182-2.267 8.068l-.006.011c.105-1.286-.241-2.575-1.217-3.849l-9.248-12.063c-6.805-8.877-15.566-9.924-22.274-7.076l.013-.009c.802-.799 1.536-1.485 2.062-1.888 6.083-4.663 16.092-5.168 23.69 4.744l9.247 12.062zm-1.377-5.554c.513.669.717 1.369.688 2.087l-7.318-9.545c-2.058-2.686-4.285-4.662-6.571-6.039 2.368.801 4.699 2.407 6.735 5.063l6.466 8.434z"/><path d="M333.146 416.909l1.324-1.014.475.62-1.323 1.014-.476-.62zm1.848-1.416l1.323-1.014.475.62-1.323 1.014-.475-.62zm1.845-1.415l1.324-1.014.475.62-1.323 1.014-.476-.62zm1.849-1.417l1.322-1.014.476.62-1.323 1.014-.475-.62zm1.846-1.415l1.323-1.014.475.62-1.323 1.014-.475-.62zm1.847-1.416l1.323-1.015.476.62-1.324 1.015-.475-.62zm1.846-1.415l1.323-1.015.475.62-1.323 1.015-.475-.62zm1.847-1.416l1.324-1.015.475.62-1.324 1.015-.475-.62zm1.847-1.416l1.322-1.013.475.62-1.322 1.013-.475-.62zm1.847-1.416l1.322-1.013.475.62-1.322 1.013-.475-.62zm-13.192 17.215l1.323-1.014.475.62-1.323 1.014-.475-.62zm1.847-1.415l1.323-1.015.475.62-1.323 1.015-.475-.62zm1.846-1.415l1.323-1.015.475.62-1.323 1.015-.475-.62zm1.848-1.417l1.323-1.014.475.62-1.323 1.014-.475-.62zm1.846-1.415l1.323-1.015.475.62-1.323 1.015-.475-.62zm1.847-1.416l1.324-1.015.475.62-1.324 1.015-.475-.62zm1.846-1.416l1.324-1.014.475.62-1.323 1.014-.476-.62zm5.541-4.247l1.322-1.014.476.62-1.323 1.014-.475-.62z"/><path d="M330.197 411.884c-1.925 1.476-2.283 4.256-.796 6.197l7.608 9.924c1.487 1.94 4.264 2.317 6.19.84l16.807-12.884c1.925-1.475 2.283-4.255.796-6.195l-7.608-9.924c-1.488-1.941-4.264-2.318-6.19-.841l-16.807 12.883zm25.172-6.638l-3.852 2.953c.073-.413.005-.823-.241-1.144-.247-.322-.624-.494-1.044-.531l3.853-2.954 1.284 1.676zm-1.824 6.911c.217.198.307.436.301.583-.004.092-.044.123-.058.134l-.771.591c-.015.011-.054.041-.144.021-.144-.032-.35-.181-.486-.442l-1.154-2.205c-.002-.011.008-.045.039-.069l.367-.281c.028-.022.062-.025.065-.028l1.841 1.696zm-4.39-4.529c.538-.413 1.225-.457 1.501-.097.224.293.115.778-.224 1.171l-.836-1.09-.572.439.836 1.09c-.467.223-.965.204-1.189-.089-.276-.36-.054-1.012.484-1.424zm-.061 2.429l-15.037 11.527-1.284-1.675 15.037-11.527c-.074.414-.005.824.242 1.145.245.321.622.494 1.042.53zm9.962 4.664l-16.807 12.884c-1.243.953-3.037.705-4-.551l-2.882-3.76 1.16-.89-.476-.62-1.159.889-.359-.468 15.962-12.237.212.278a.86.86 0 0 0-.237.485l-.967.741.476.62.734-.563.981 1.877c.229.438.607.753 1.011.843a.938.938 0 0 0 .787-.164l.771-.591a.942.942 0 0 0 .364-.72c.018-.413-.189-.86-.553-1.193l-1.558-1.434.632-.484-.476-.62-.863.662a.852.852 0 0 0-.53.103l-.213-.278 4.779-3.663.359.469-1.16.889.475.62 1.16-.889 2.883 3.76c.963 1.256.736 3.053-.506 4.005zm-7.102-13.929l.821 1.07-1.16.889.475.62 1.16-.889.359.469-21.312 16.338-.359-.469 1.16-.89-.475-.62-1.16.89-.821-1.07c-.963-1.257-.736-3.054.507-4.006l16.806-12.884c1.242-.951 3.037-.704 3.999.552z"/></g><g clip-path="url(#clip2_8753_33407)" fill="#F8F9FB"><path d="M113.529 302a16.584 16.584 0 0 0-5.125.301c-5.71-4.318-13.184 1.031-11.372 7.575a181.107 181.107 0 0 0-2.924 3.195c-5.213 5.683-7.12 14.977.13 24.434l9.247 12.063c3.722 4.855 9.987 1.092 15.625-3.23l5.66-4.338c2.045-1.569 4.035-3.236 5.571-4.956 6.608-6.466 8.742-11.335 6.336-14.474l-.105-.136c1.48-2.034 2.101-4.012.918-5.554l-7.275-9.491c-4.986-6.504-11.537-7.521-16.686-5.389zm-9.124 1.701a17.347 17.347 0 0 0-2.857 1.774c-.479.367-1.102.935-1.787 1.601a4.084 4.084 0 0 1 4.644-3.375zm26.3 25c2.295 2.993.235 6.598-6.887 12.058l-5.66 4.339c-7.122 5.46-11.139 6.512-13.433 3.519l-9.247-12.062c-7.603-9.918-4.331-19.596 1.925-24.392 3.235-2.48 7.523-3.845 11.96-3.219l1.064 1.387c-.248.257-.331.637-.173.943l1.158 2.216c.229.439.607.755 1.012.845a.938.938 0 0 0 .785-.165l.772-.591a.941.941 0 0 0 .364-.719c.018-.413-.189-.86-.553-1.194l-1.841-1.693c-.252-.233-.639-.253-.952-.079l-.589-.769c3.813.808 7.685 3.126 11.048 7.513l9.247 12.063zm-19.754-17.777c-.001-.011.009-.045.041-.069l.365-.28c.029-.022.063-.025.066-.027l.001-.002 1.84 1.694c.216.2.308.438.301.585-.003.092-.043.122-.057.133l-.772.592c-.015.011-.053.04-.142.02-.145-.032-.352-.181-.488-.442l-1.155-2.204zm24.485 12.597c1.547 2.019-.037 5.182-2.267 8.068l-.006.011c.105-1.286-.241-2.575-1.217-3.849l-9.248-12.063c-6.805-8.877-15.566-9.924-22.274-7.076l.013-.009c.802-.799 1.536-1.485 2.062-1.888 6.083-4.663 16.092-5.168 23.69 4.744l9.247 12.062zm-1.377-5.554c.513.669.717 1.369.688 2.087l-7.318-9.545c-2.058-2.686-4.285-4.662-6.571-6.039 2.368.801 4.699 2.407 6.735 5.063l6.466 8.434z"/><path d="M100.146 334.909l1.324-1.014.475.62-1.323 1.014-.476-.62zm1.848-1.416l1.323-1.014.475.62-1.323 1.014-.475-.62zm1.845-1.415l1.324-1.014.475.62-1.323 1.014-.476-.62zm1.849-1.417l1.322-1.014.476.62-1.323 1.014-.475-.62zm1.846-1.415l1.323-1.014.475.62-1.323 1.014-.475-.62zm1.847-1.416l1.323-1.015.476.62-1.324 1.015-.475-.62zm1.846-1.415l1.323-1.015.475.62-1.323 1.015-.475-.62zm1.847-1.416l1.324-1.015.475.62-1.324 1.015-.475-.62zm1.847-1.416l1.322-1.013.475.62-1.322 1.013-.475-.62zm1.847-1.416l1.322-1.013.475.62-1.322 1.013-.475-.62zm-13.192 17.215l1.323-1.014.475.62-1.323 1.014-.475-.62zm1.847-1.415l1.323-1.015.475.62-1.323 1.015-.475-.62zm1.846-1.415l1.323-1.015.475.62-1.323 1.015-.475-.62zm1.848-1.417l1.323-1.014.475.62-1.323 1.014-.475-.62zm1.846-1.415l1.323-1.015.475.62-1.323 1.015-.475-.62zm1.847-1.416l1.324-1.015.475.62-1.324 1.015-.475-.62zm1.846-1.416l1.324-1.014.475.62-1.323 1.014-.476-.62zm5.541-4.247l1.322-1.014.476.62-1.323 1.014-.475-.62z"/><path d="M97.197 329.884c-1.925 1.476-2.283 4.256-.796 6.197l7.608 9.924c1.487 1.94 4.264 2.317 6.19.84l16.807-12.884c1.925-1.475 2.283-4.255.796-6.195l-7.608-9.924c-1.488-1.941-4.264-2.318-6.19-.841l-16.807 12.883zm25.172-6.638l-3.852 2.953c.073-.413.005-.823-.241-1.144-.247-.322-.624-.494-1.044-.531l3.853-2.954 1.284 1.676zm-1.824 6.911c.217.198.307.436.301.583-.004.092-.044.123-.058.134l-.771.591c-.015.011-.054.041-.144.021-.144-.032-.35-.181-.486-.442l-1.154-2.205c-.002-.011.008-.045.039-.069l.367-.281c.028-.022.062-.025.065-.028l1.841 1.696zm-4.39-4.529c.538-.413 1.225-.457 1.501-.097.224.293.115.778-.224 1.171l-.836-1.09-.572.439.836 1.09c-.467.223-.965.204-1.189-.089-.276-.36-.054-1.012.484-1.424zm-.061 2.429l-15.037 11.527-1.284-1.675 15.037-11.527c-.074.414-.005.824.242 1.145.245.321.622.494 1.042.53zm9.962 4.664l-16.807 12.884c-1.243.953-3.037.705-4-.551l-2.882-3.76 1.16-.89-.476-.62-1.159.889-.359-.468 15.962-12.237.212.278a.86.86 0 0 0-.237.485l-.967.741.476.62.734-.563.981 1.877c.229.438.607.753 1.011.843a.938.938 0 0 0 .787-.164l.771-.591a.942.942 0 0 0 .364-.72c.018-.413-.189-.86-.553-1.193l-1.558-1.434.632-.484-.476-.62-.863.662a.852.852 0 0 0-.53.103l-.213-.278 4.779-3.663.359.469-1.16.889.475.62 1.16-.889 2.883 3.76c.963 1.256.736 3.053-.506 4.005zm-7.102-13.929l.821 1.07-1.16.889.475.62 1.16-.889.359.469-21.312 16.338-.36-.469 1.161-.89-.475-.62-1.16.89-.82-1.07c-.964-1.257-.737-3.054.506-4.006l16.806-12.884c1.242-.951 3.037-.704 3.999.552z"/></g><g clip-path="url(#clip3_8753_33407)" fill="#F8F9FB"><path d="M296.529 279a16.584 16.584 0 0 0-5.125.301c-5.71-4.318-13.184 1.031-11.372 7.575a181.107 181.107 0 0 0-2.924 3.195c-5.213 5.683-7.12 14.977.13 24.434l9.247 12.063c3.722 4.855 9.987 1.092 15.625-3.23l5.66-4.338c2.045-1.569 4.035-3.236 5.571-4.956 6.608-6.466 8.742-11.335 6.336-14.474l-.105-.136c1.48-2.034 2.101-4.012.918-5.554l-7.275-9.491c-4.986-6.504-11.537-7.521-16.686-5.389zm-9.124 1.701a17.347 17.347 0 0 0-2.857 1.774c-.479.367-1.102.935-1.787 1.601a4.084 4.084 0 0 1 4.644-3.375zm26.3 25c2.295 2.993.235 6.598-6.887 12.058l-5.66 4.339c-7.122 5.46-11.139 6.512-13.433 3.519l-9.247-12.062c-7.603-9.918-4.331-19.596 1.926-24.392 3.234-2.48 7.522-3.845 11.959-3.219l1.064 1.387c-.248.257-.331.637-.173.943l1.158 2.216c.229.439.607.755 1.012.845a.938.938 0 0 0 .785-.165l.772-.591a.941.941 0 0 0 .364-.719c.018-.413-.189-.86-.553-1.194l-1.841-1.693c-.252-.233-.639-.253-.952-.079l-.589-.769c3.813.808 7.685 3.126 11.048 7.513l9.247 12.063zm-19.754-17.777c-.001-.011.009-.045.041-.069l.365-.28c.029-.022.063-.025.066-.027l.001-.002 1.84 1.694c.216.2.308.438.301.585-.003.092-.043.122-.057.133l-.772.592c-.015.011-.053.04-.142.02-.145-.032-.352-.181-.488-.442l-1.155-2.204zm24.485 12.597c1.547 2.019-.037 5.182-2.267 8.068l-.006.011c.105-1.286-.241-2.575-1.217-3.849l-9.248-12.063c-6.805-8.877-15.566-9.924-22.274-7.076l.013-.009c.802-.799 1.536-1.485 2.062-1.888 6.083-4.663 16.092-5.168 23.69 4.744l9.247 12.062zm-1.377-5.554c.513.669.717 1.369.688 2.087l-7.318-9.545c-2.058-2.686-4.285-4.662-6.571-6.039 2.368.801 4.699 2.407 6.735 5.063l6.466 8.434z"/><path d="M283.146 311.909l1.324-1.014.475.62-1.323 1.014-.476-.62zm1.848-1.416l1.323-1.014.475.62-1.323 1.014-.475-.62zm1.845-1.415l1.324-1.014.475.62-1.323 1.014-.476-.62zm1.849-1.417l1.322-1.014.476.62-1.323 1.014-.475-.62zm1.846-1.415l1.323-1.014.475.62-1.323 1.014-.475-.62zm1.847-1.416l1.323-1.015.476.62-1.324 1.015-.475-.62zm1.846-1.415l1.323-1.015.475.62-1.323 1.015-.475-.62zm1.847-1.416l1.324-1.015.475.62-1.324 1.015-.475-.62zm1.847-1.416l1.322-1.013.475.62-1.322 1.013-.475-.62zm1.847-1.416l1.322-1.013.475.62-1.322 1.013-.475-.62zm-13.192 17.215l1.323-1.014.475.62-1.323 1.014-.475-.62zm1.847-1.415l1.323-1.015.475.62-1.323 1.015-.475-.62zm1.846-1.415l1.323-1.015.475.62-1.323 1.015-.475-.62zm1.848-1.417l1.323-1.014.475.62-1.323 1.014-.475-.62zm1.846-1.415l1.323-1.015.475.62-1.323 1.015-.475-.62zm1.847-1.416l1.324-1.015.475.62-1.324 1.015-.475-.62zm1.846-1.416l1.324-1.014.475.62-1.323 1.014-.476-.62zm5.541-4.247l1.322-1.014.476.62-1.323 1.014-.475-.62z"/><path d="M280.197 306.884c-1.925 1.476-2.283 4.256-.796 6.197l7.608 9.924c1.487 1.94 4.264 2.317 6.19.84l16.807-12.884c1.925-1.475 2.283-4.255.796-6.195l-7.608-9.924c-1.488-1.941-4.264-2.318-6.19-.841l-16.807 12.883zm25.172-6.638l-3.852 2.953c.073-.413.005-.823-.241-1.144-.247-.322-.624-.494-1.044-.531l3.853-2.954 1.284 1.676zm-1.824 6.911c.217.198.307.436.301.583-.004.092-.044.123-.058.134l-.771.591c-.015.011-.054.041-.144.021-.144-.032-.35-.181-.486-.442l-1.154-2.205c-.002-.011.008-.045.039-.069l.367-.281c.028-.022.062-.025.065-.028l1.841 1.696zm-4.39-4.529c.538-.413 1.225-.457 1.501-.097.224.293.115.778-.224 1.171l-.836-1.09-.572.439.836 1.09c-.467.223-.965.204-1.189-.089-.276-.36-.054-1.012.484-1.424zm-.061 2.429l-15.037 11.527-1.284-1.675 15.037-11.527c-.074.414-.005.824.242 1.145.245.321.622.494 1.042.53zm9.962 4.664l-16.807 12.884c-1.243.953-3.037.705-4-.551l-2.882-3.76 1.16-.89-.476-.62-1.159.889-.359-.468 15.962-12.237.212.278a.86.86 0 0 0-.237.485l-.967.741.476.62.734-.563.981 1.877c.229.438.607.753 1.011.843a.938.938 0 0 0 .787-.164l.771-.591a.942.942 0 0 0 .364-.72c.018-.413-.189-.86-.553-1.193l-1.558-1.434.632-.484-.476-.62-.863.662a.852.852 0 0 0-.53.103l-.213-.278 4.779-3.663.359.469-1.16.889.475.62 1.16-.889 2.883 3.76c.963 1.256.736 3.053-.506 4.005zm-7.102-13.929l.821 1.07-1.16.889.475.62 1.16-.889.359.469-21.312 16.338-.359-.469 1.16-.89-.475-.62-1.16.89-.821-1.07c-.963-1.257-.736-3.054.507-4.006l16.806-12.884c1.242-.951 3.037-.704 3.999.552z"/></g><path d="M46.58 376.164c-1.917 1.107-5.017-.944-5.017-.944-3.1-2.051-5.318-5.891-6.98-8.772l-.555-.96-12.354.731-.277-.48-5.145-15.528m0 0c.302-.216.614-.419.94-.607l2.959-1.708a4.414 4.414 0 0 1 3.79-.301 4.429 4.429 0 0 1 2.63 2.752l3.45 10.413m-13.77-10.549a11.118 11.118 0 0 0-4.038 5.481 11.158 11.158 0 0 0-.09 6.817l1.736 5.662m15.528 2.557c1.41 6.867-.205 12.92-4.996 15.686m38.477-19.654c-1.558.9-4.068-.752-4.068-.752-2.52-1.666-4.322-4.787-5.673-7.128l-.45-.779-10.155.662-.225-.389-4.182-12.616m11.188 8.571l-2.91-8.785a3.34 3.34 0 0 0-1.974-2.064 3.324 3.324 0 0 0-2.843.226l-2.694 1.556a9.51 9.51 0 0 0-.763.494m-1.705 14.452l-1.492-4.51a8.853 8.853 0 0 1-.026-5.496 8.822 8.822 0 0 1 3.221-4.445m12.957.928c3.16.319 6.317-.667 9.108-2.279m-11.39 18.02c.846 4.122.35 7.886-1.54 10.477M20.436 342.61s-4.175-.15-5.56-2.55a3.878 3.878 0 0 1 1.413-5.297 3.869 3.869 0 0 1 5.286 1.429c1.386 2.4-.564 6.086-.564 6.086l-.575.332zm19.615-3.643s-4.175-.15-5.56-2.551a3.878 3.878 0 0 1-.39-2.939 3.863 3.863 0 0 1 4.736-2.734 3.88 3.88 0 0 1 2.35 1.807c1.386 2.4-.561 6.085-.561 6.085l-.575.332zm182.528 48.197c-1.916 1.107-5.016-.944-5.016-.944-3.1-2.051-5.318-5.891-6.981-8.772l-.554-.96-12.354.731-.277-.48-5.145-15.528m0 0c.302-.216.614-.419.94-.607l2.959-1.708a4.411 4.411 0 0 1 3.789-.301 4.426 4.426 0 0 1 2.631 2.752l3.45 10.413m-13.769-10.549a11.115 11.115 0 0 0-4.039 5.481 11.153 11.153 0 0 0-.09 6.817l1.736 5.662m15.529 2.557c1.409 6.867-.206 12.92-4.997 15.686m38.477-19.654c-1.558.9-4.068-.752-4.068-.752-2.52-1.666-4.322-4.787-5.673-7.128l-.45-.779-10.155.662-.225-.389-4.182-12.616m11.188 8.571l-2.91-8.785a3.329 3.329 0 0 0-4.817-1.838l-2.694 1.556c-.267.154-.52.321-.763.494m-1.705 14.452l-1.492-4.51a8.854 8.854 0 0 1-.027-5.496 8.824 8.824 0 0 1 3.222-4.445m12.956.928c3.161.319 6.317-.667 9.11-2.279m-11.392 18.02c.847 4.122.35 7.886-1.539 10.477m-26.816-30.293s-4.175-.15-5.561-2.55a3.878 3.878 0 0 1 1.414-5.297 3.869 3.869 0 0 1 5.286 1.429c1.386 2.4-.564 6.086-.564 6.086l-.575.332zm19.615-3.643s-4.175-.15-5.561-2.551a3.876 3.876 0 0 1-.389-2.939 3.864 3.864 0 0 1 4.736-2.734 3.882 3.882 0 0 1 2.351 1.807c1.385 2.4-.562 6.085-.562 6.085l-.575.332zm-69.472 136.197c-1.916 1.107-5.016-.944-5.016-.944-3.1-2.051-5.318-5.891-6.981-8.772l-.554-.96-12.354.731-.277-.48-5.145-15.528m0 0c.302-.216.614-.419.94-.607l2.959-1.708a4.411 4.411 0 0 1 3.789-.301 4.426 4.426 0 0 1 2.631 2.752l3.45 10.413m-13.769-10.549a11.115 11.115 0 0 0-4.039 5.481 11.153 11.153 0 0 0-.09 6.817l1.736 5.662m15.529 2.557c1.409 6.867-.206 12.92-4.997 15.686m38.477-19.654c-1.558.9-4.068-.752-4.068-.752-2.52-1.666-4.322-4.787-5.673-7.128l-.45-.779-10.155.662-.225-.389-4.182-12.616m11.188 8.571l-2.91-8.785a3.329 3.329 0 0 0-4.817-1.838l-2.694 1.556c-.267.154-.52.321-.763.494m-1.705 14.452l-1.492-4.51a8.854 8.854 0 0 1-.027-5.496 8.824 8.824 0 0 1 3.222-4.445m12.956.928c3.161.319 6.317-.667 9.11-2.279m-11.392 18.02c.847 4.122.35 7.886-1.539 10.477m-26.816-30.293s-4.175-.15-5.561-2.55a3.878 3.878 0 0 1 1.414-5.297 3.869 3.869 0 0 1 5.286 1.429c1.386 2.4-.564 6.086-.564 6.086l-.575.332zm19.615-3.643s-4.175-.15-5.561-2.551a3.876 3.876 0 0 1-.389-2.939 3.864 3.864 0 0 1 4.736-2.734 3.882 3.882 0 0 1 2.351 1.807c1.385 2.4-.562 6.085-.562 6.085l-.575.332z" stroke="#E6EAED"/><g clip-path="url(#clip4_8753_33407)"><path d="M110.317 397.398l9.997 13.083-9.514 7.27-9.998-13.082 9.515-7.271zm.374-2.798l-12.686 9.695 12.723 16.651 12.687-9.695-12.724-16.651zm-7.488 10.746l7.136-5.454 1.212 1.586-7.136 5.453-1.212-1.585zm2.121 2.775l7.136-5.453 1.212 1.585-7.136 5.453-1.212-1.585zm2.121 2.775l7.136-5.453 1.212 1.586-7.137 5.453-1.211-1.586zm2.12 2.775l7.136-5.453 1.212 1.586-7.136 5.453-1.212-1.586zm5.928-17.717l3.172-2.424 8.483 11.101-3.172 2.424-8.483-11.101zm-1.744-5.575c-.87.665-1.053 1.914-.395 2.775l1.23 1.611 3.172-2.424-1.231-1.611c-.658-.861-1.91-1.012-2.776-.351zm11.111 17.884l3.537 1.308-.341-3.751-3.196 2.443z" fill="#F8F9FB"/></g><g clip-path="url(#clip5_8753_33407)"><path d="M210.317 463.398l9.997 13.083-9.514 7.27-9.998-13.082 9.515-7.271zm.374-2.798l-12.686 9.695 12.723 16.651 12.687-9.695-12.724-16.651zm-7.488 10.746l7.136-5.454 1.212 1.586-7.136 5.453-1.212-1.585zm2.121 2.775l7.136-5.453 1.212 1.585-7.136 5.453-1.212-1.585zm2.121 2.775l7.136-5.453 1.212 1.586-7.137 5.453-1.211-1.586zm2.12 2.775l7.136-5.453 1.212 1.586-7.136 5.453-1.212-1.586zm5.928-17.717l3.172-2.424 8.483 11.101-3.172 2.424-8.483-11.101zm-1.744-5.575c-.87.665-1.053 1.914-.395 2.775l1.23 1.611 3.172-2.424-1.231-1.611c-.658-.861-1.91-1.012-2.776-.351zm11.111 17.884l3.537 1.308-.341-3.751-3.196 2.443z" fill="#F8F9FB"/></g><g clip-path="url(#clip6_8753_33407)"><path d="M179.175 263.977l11.714 15.33-11.149 8.52-11.714-15.33 11.149-8.52zm.438-3.278l-14.865 11.359 14.909 19.511 14.865-11.359-14.909-19.511zm-8.774 12.591l8.362-6.39 1.42 1.858-8.362 6.39-1.42-1.858zm2.485 3.252l8.362-6.39 1.42 1.858-8.362 6.39-1.42-1.858zm2.485 3.252l8.362-6.39 1.42 1.858-8.362 6.39-1.42-1.858zm2.485 3.251l8.362-6.389 1.42 1.858-8.362 6.389-1.42-1.858zm6.946-20.76l3.716-2.84 9.94 13.008-3.716 2.84-9.94-13.008zm-2.044-6.532c-1.019.779-1.234 2.242-.463 3.251l1.442 1.888 3.717-2.84-1.443-1.888c-.771-1.009-2.238-1.186-3.253-.411zm13.02 20.955l4.144 1.533-.399-4.395-3.745 2.862z" fill="#F8F9FB"/></g><g clip-path="url(#clip7_8753_33407)"><path d="M273.936 435.341l-4.255 1.575-1.039-2.858a.91.91 0 0 1 .544-1.159l2.555-.937a.915.915 0 0 1 .348-.056.907.907 0 0 1 .81.59l1.037 2.845zm.979 15.51a.89.89 0 0 1-.294-.401l-4.299-11.782 4.253-1.573 4.299 11.782a.896.896 0 0 1 .036.497l-.747 3.492a.273.273 0 0 1-.307.212.288.288 0 0 1-.125-.052l-2.816-2.175zm6.983-18.143c-3.311 2.334-5.192 2.008-7.525-1.302 3.31-2.333 5.191-2.008 7.525 1.302zm6.22 13.199c-1.798 1.729-6.368.732-9.12-1.941l-2.097-5.753a3.86 3.86 0 0 1 1.534-2.256 4.885 4.885 0 0 1 2.809-.902 1.741 1.741 0 0 0 1.591-1.144 4.382 4.382 0 0 1 1.652-2.219c1.132-.799 2.924-.985 4.261-.359 5.056 2.373 5.201 11.108 2.029 12.701-.149.067-.308.11-.471.128a2.565 2.565 0 0 0-1.916 1.35c-.07.145-.161.278-.272.395z" fill="#F8F9FB"/></g><g clip-path="url(#clip8_8753_33407)"><path d="M38.205 431.497l-5.42 2.005-1.324-3.64a1.156 1.156 0 0 1 .694-1.476l3.254-1.194a1.155 1.155 0 0 1 1.475.68l1.32 3.625zm1.246 19.757c-.17-.131-.3-.308-.374-.511l-5.476-15.008 5.418-2.004 5.477 15.008c.074.203.09.422.045.633l-.952 4.449a.349.349 0 0 1-.55.203l-3.588-2.77zm8.896-23.111c-4.217 2.973-6.613 2.558-9.586-1.659 4.217-2.972 6.613-2.558 9.586 1.659zm7.923 16.813c-2.29 2.203-8.112.932-11.617-2.472l-2.672-7.329a4.917 4.917 0 0 1 1.955-2.873 6.209 6.209 0 0 1 3.578-1.15 2.21 2.21 0 0 0 2.027-1.457 5.589 5.589 0 0 1 2.104-2.827c1.443-1.017 3.725-1.254 5.428-.457 6.44 3.023 6.626 14.151 2.585 16.179-.19.086-.393.141-.6.163a3.277 3.277 0 0 0-2.44 1.72 2.002 2.002 0 0 1-.348.503z" fill="#F8F9FB"/></g><g clip-path="url(#clip9_8753_33407)" fill="#F8F9FB"><path d="M41.529 14.833a16.57 16.57 0 0 0-5.125.3c-5.71-4.317-13.184 1.032-11.372 7.576a182.642 182.642 0 0 0-2.924 3.195c-5.213 5.683-7.12 14.977.13 24.434L31.485 62.4c3.722 4.855 9.987 1.092 15.625-3.23l5.66-4.339c2.045-1.568 4.035-3.236 5.571-4.955 6.607-6.466 8.741-11.335 6.336-14.474l-.105-.136c1.48-2.034 2.1-4.012.918-5.554l-7.275-9.491c-4.986-6.504-11.537-7.52-16.686-5.389zm-9.124 1.7a17.37 17.37 0 0 0-2.857 1.775c-.479.367-1.102.934-1.787 1.6a4.082 4.082 0 0 1 4.644-3.375zm26.3 25c2.295 2.994.235 6.6-6.887 12.06l-5.66 4.338c-7.122 5.46-11.139 6.512-13.433 3.519l-9.247-12.063c-7.603-9.917-4.331-19.595 1.925-24.392 3.235-2.48 7.523-3.844 11.96-3.219l1.064 1.388c-.248.257-.33.637-.173.943l1.158 2.216c.23.439.607.755 1.012.844a.937.937 0 0 0 .785-.164l.772-.592a.94.94 0 0 0 .364-.718c.018-.413-.189-.86-.553-1.194l-1.84-1.694c-.253-.232-.64-.252-.953-.079l-.59-.768c3.814.808 7.686 3.126 11.05 7.513l9.246 12.063zM38.951 23.758c-.001-.01.009-.045.04-.07l.366-.28c.029-.022.063-.024.066-.027l1.841 1.693c.216.2.308.437.301.585-.003.092-.043.122-.057.133l-.772.592c-.015.01-.053.04-.142.02-.145-.032-.352-.181-.488-.442l-1.155-2.204zm24.485 12.597c1.547 2.018-.037 5.182-2.267 8.067l-.006.012c.105-1.286-.24-2.576-1.217-3.85L50.698 28.52c-6.804-8.877-15.566-9.923-22.274-7.076l.012-.008c.803-.8 1.537-1.485 2.063-1.888 6.083-4.664 16.092-5.168 23.69 4.743l9.247 12.063zM62.059 30.8c.513.67.717 1.37.688 2.088l-7.318-9.546c-2.058-2.685-4.285-4.66-6.57-6.038 2.367.8 4.698 2.407 6.734 5.063l6.466 8.433z"/><path d="M28.146 47.742l1.324-1.015.475.62-1.323 1.015-.476-.62zm1.848-1.416l1.323-1.014.475.62-1.323 1.014-.475-.62zm1.845-1.415l1.324-1.014.475.62-1.323 1.014-.476-.62zm1.849-1.417l1.322-1.014.476.62-1.323 1.014-.475-.62zm1.845-1.415l1.324-1.014.475.62-1.323 1.014-.476-.62zm1.848-1.416l1.323-1.015.476.62-1.324 1.015-.475-.62zm1.846-1.415l1.323-1.015.476.62-1.324 1.015-.475-.62zm1.847-1.416l1.324-1.015.475.62-1.324 1.015-.475-.62zm1.847-1.416l1.322-1.014.475.62-1.322 1.014-.475-.62zM44.768 35l1.322-1.014.475.62-1.322 1.014-.475-.62zM31.576 52.215l1.323-1.014.475.62-1.323 1.014-.475-.62zm1.847-1.416l1.323-1.014.475.62-1.323 1.014-.475-.62zm1.846-1.415l1.323-1.014.475.62-1.323 1.014-.475-.62zm1.848-1.417l1.323-1.013.475.62-1.323 1.013-.475-.62zm1.846-1.415l1.323-1.014.475.62-1.323 1.014-.475-.62zm1.847-1.416l1.324-1.014.475.62-1.324 1.015-.475-.62zm1.846-1.415l1.324-1.014.475.62-1.323 1.014-.476-.62zm5.54-4.247l1.324-1.014.475.62-1.323 1.014-.475-.62z"/><path d="M25.197 42.717c-1.925 1.476-2.283 4.256-.796 6.196l7.608 9.925c1.487 1.94 4.264 2.317 6.19.84l16.807-12.884c1.925-1.476 2.283-4.255.796-6.195l-7.608-9.924c-1.488-1.941-4.264-2.318-6.19-.842L25.197 42.717zm25.172-6.638l-3.852 2.953c.073-.413.005-.823-.241-1.144-.247-.322-.624-.494-1.044-.531l3.853-2.954 1.284 1.676zm-1.824 6.91c.217.199.307.437.3.584-.003.092-.043.122-.057.133l-.771.592c-.015.01-.054.04-.144.02-.144-.032-.35-.18-.486-.441l-1.154-2.206c-.002-.01.008-.045.04-.068l.366-.281c.028-.022.062-.025.065-.028l1.841 1.696zm-4.39-4.529c.538-.412 1.225-.456 1.5-.097.225.294.116.778-.223 1.172l-.836-1.09-.572.438.836 1.09c-.468.224-.965.204-1.19-.088-.275-.36-.053-1.012.485-1.425zm-.061 2.43L29.057 52.417l-1.284-1.675L42.81 39.215c-.074.414-.005.823.242 1.145.245.321.622.494 1.042.53zm9.962 4.664L37.249 58.438c-1.243.952-3.037.705-4-.551l-2.883-3.76 1.16-.89-.475-.62-1.16.889-.358-.469 15.962-12.236.213.278a.855.855 0 0 0-.238.485l-.966.741.475.62.735-.563.98 1.876c.23.439.607.754 1.011.844a.936.936 0 0 0 .787-.164l.771-.592a.94.94 0 0 0 .364-.72c.018-.412-.189-.859-.553-1.192l-1.558-1.434.632-.484-.476-.62-.863.661a.858.858 0 0 0-.53.104l-.213-.278 4.779-3.663.36.468-1.161.89.475.62 1.16-.89 2.883 3.76c.963 1.257.736 3.054-.506 4.006zm-7.102-13.93l.82 1.07-1.16.89.476.62 1.16-.89.36.47L27.296 50.12l-.36-.468 1.16-.89-.474-.62-1.16.89-.82-1.07c-.964-1.257-.737-3.054.506-4.007l16.806-12.883c1.242-.951 3.037-.704 4 .552z"/></g><g clip-path="url(#clip10_8753_33407)" fill="#F8F9FB"><path d="M346.529 134.833a16.584 16.584 0 0 0-5.125.3c-5.71-4.317-13.184 1.032-11.372 7.576a181.107 181.107 0 0 0-2.924 3.195c-5.213 5.683-7.12 14.977.13 24.434l9.247 12.063c3.722 4.855 9.987 1.092 15.625-3.23l5.66-4.339c2.045-1.568 4.035-3.236 5.571-4.955 6.608-6.466 8.742-11.335 6.336-14.474l-.105-.136c1.48-2.034 2.101-4.012.918-5.554l-7.275-9.491c-4.986-6.504-11.537-7.521-16.686-5.389zm-9.124 1.7a17.353 17.353 0 0 0-2.857 1.775c-.479.367-1.102.934-1.787 1.601a4.084 4.084 0 0 1 4.644-3.376zm26.3 25.001c2.295 2.993.235 6.598-6.887 12.058l-5.66 4.339c-7.122 5.459-11.139 6.512-13.433 3.519l-9.247-12.063c-7.603-9.917-4.331-19.595 1.926-24.392 3.234-2.479 7.522-3.844 11.959-3.219l1.064 1.388c-.248.257-.331.637-.173.943l1.158 2.216c.229.439.607.755 1.012.844a.935.935 0 0 0 .785-.164l.772-.592a.938.938 0 0 0 .364-.718c.018-.413-.189-.86-.553-1.194l-1.841-1.694c-.252-.232-.639-.252-.952-.079l-.589-.768c3.813.808 7.685 3.126 11.048 7.513l9.247 12.063zm-19.754-17.777c-.001-.011.009-.045.041-.069l.365-.28c.029-.023.063-.025.066-.028l.001-.001 1.84 1.694c.216.199.308.437.301.585-.003.092-.043.122-.057.133l-.772.592c-.015.011-.053.04-.142.02-.145-.032-.352-.181-.488-.442l-1.155-2.204zm24.485 12.597c1.547 2.018-.037 5.182-2.267 8.067l-.006.012c.105-1.286-.241-2.576-1.217-3.849l-9.248-12.064c-6.805-8.877-15.566-9.923-22.274-7.076l.013-.008c.802-.799 1.536-1.485 2.062-1.888 6.083-4.664 16.092-5.168 23.69 4.743l9.247 12.063zm-1.377-5.555c.513.67.717 1.369.688 2.088l-7.318-9.546c-2.058-2.685-4.285-4.661-6.571-6.038 2.368.801 4.699 2.407 6.735 5.063l6.466 8.433z"/><path d="M333.146 167.742l1.324-1.015.475.62-1.323 1.015-.476-.62zm1.848-1.416l1.323-1.015.475.62-1.323 1.015-.475-.62zm1.845-1.415l1.324-1.015.475.621-1.323 1.014-.476-.62zm1.849-1.417l1.322-1.014.476.62-1.323 1.014-.475-.62zm1.846-1.415l1.323-1.014.475.62-1.323 1.014-.475-.62zm1.847-1.416l1.323-1.015.476.62-1.324 1.015-.475-.62zm1.846-1.415l1.323-1.015.475.62-1.323 1.015-.475-.62zm1.847-1.416l1.324-1.015.475.62-1.324 1.015-.475-.62zm1.847-1.416l1.322-1.014.475.62-1.322 1.014-.475-.62zm1.847-1.416l1.322-1.014.475.62-1.322 1.014-.475-.62zm-13.192 17.215l1.323-1.014.475.62-1.323 1.014-.475-.62zm1.847-1.416l1.323-1.014.475.62-1.323 1.014-.475-.62zm1.846-1.415l1.323-1.014.475.62-1.323 1.014-.475-.62zm1.848-1.417l1.323-1.013.475.62-1.323 1.013-.475-.62zm1.846-1.415l1.323-1.014.475.62-1.323 1.014-.475-.62zm1.847-1.416l1.324-1.014.475.62-1.324 1.015-.475-.621zm1.846-1.415l1.324-1.014.475.62-1.323 1.014-.476-.62zm5.541-4.247l1.322-1.014.476.62-1.323 1.014-.475-.62z"/><path d="M330.197 162.717c-1.925 1.476-2.283 4.256-.796 6.196l7.608 9.925c1.487 1.94 4.264 2.317 6.19.84l16.807-12.884c1.925-1.476 2.283-4.255.796-6.195l-7.608-9.924c-1.488-1.941-4.264-2.318-6.19-.842l-16.807 12.884zm25.172-6.638l-3.852 2.953c.073-.413.005-.823-.241-1.144-.247-.322-.624-.494-1.044-.531l3.853-2.954 1.284 1.676zm-1.824 6.911c.217.198.307.436.301.582-.004.093-.044.123-.058.134l-.771.592c-.015.011-.054.041-.144.021-.144-.033-.35-.181-.486-.442l-1.154-2.206c-.002-.01.008-.045.039-.068l.367-.281c.028-.022.062-.025.065-.028l1.841 1.696zm-4.39-4.53c.538-.412 1.225-.456 1.501-.097.224.294.115.778-.224 1.172l-.836-1.09-.572.438.836 1.09c-.467.224-.965.204-1.189-.088-.276-.36-.054-1.012.484-1.425zm-.061 2.43l-15.037 11.527-1.284-1.675 15.037-11.527c-.074.414-.005.823.242 1.145.245.321.622.494 1.042.53zm9.962 4.664l-16.807 12.884c-1.243.952-3.037.705-4-.551l-2.882-3.76 1.16-.89-.476-.62-1.159.889-.359-.469 15.962-12.236.212.278a.86.86 0 0 0-.237.485l-.967.741.476.62.734-.563.981 1.876c.229.439.607.754 1.011.844a.938.938 0 0 0 .787-.164l.771-.592a.94.94 0 0 0 .364-.719c.018-.413-.189-.86-.553-1.193l-1.558-1.434.632-.484-.476-.62-.863.661a.86.86 0 0 0-.53.104l-.213-.278 4.779-3.663.359.468-1.16.89.475.62 1.16-.89 2.883 3.761c.963 1.256.736 3.053-.506 4.005zm-7.102-13.929l.821 1.07-1.16.889.475.62 1.16-.889.359.469-21.312 16.337-.359-.468 1.16-.89-.475-.62-1.16.89-.821-1.071c-.963-1.256-.736-3.053.507-4.006l16.806-12.883c1.242-.952 3.037-.704 3.999.552z"/></g><g clip-path="url(#clip11_8753_33407)" fill="#F8F9FB"><path d="M113.529 52.833a16.568 16.568 0 0 0-5.125.3c-5.71-4.317-13.184 1.032-11.372 7.576a182.642 182.642 0 0 0-2.924 3.194c-5.213 5.684-7.12 14.978.13 24.435l9.247 12.063c3.722 4.855 9.987 1.092 15.625-3.23l5.66-4.339c2.045-1.568 4.035-3.236 5.571-4.955 6.608-6.466 8.742-11.335 6.336-14.474l-.105-.136c1.48-2.034 2.101-4.012.918-5.554l-7.275-9.491c-4.986-6.504-11.537-7.52-16.686-5.389zm-9.124 1.7a17.363 17.363 0 0 0-2.857 1.775c-.479.367-1.102.934-1.787 1.6a4.083 4.083 0 0 1 4.644-3.375zm26.3 25c2.295 2.994.235 6.6-6.887 12.06l-5.66 4.338c-7.122 5.459-11.139 6.512-13.433 3.519l-9.247-12.063c-7.603-9.917-4.331-19.595 1.925-24.392 3.235-2.48 7.523-3.844 11.96-3.219l1.064 1.388c-.248.257-.331.637-.173.943l1.158 2.216c.229.439.607.755 1.012.844a.936.936 0 0 0 .785-.164l.772-.592a.939.939 0 0 0 .364-.718c.018-.413-.189-.86-.553-1.194l-1.841-1.694c-.252-.232-.639-.252-.952-.079l-.589-.768c3.813.808 7.685 3.126 11.048 7.513l9.247 12.063zm-19.754-17.776c-.001-.01.009-.045.041-.07l.365-.28c.029-.022.063-.024.066-.027h.001l1.84 1.693c.216.2.308.437.301.585-.003.092-.043.122-.057.133l-.772.592c-.015.01-.053.04-.142.02-.145-.032-.352-.181-.488-.442l-1.155-2.204zm24.485 12.597c1.547 2.018-.037 5.182-2.267 8.067l-.006.012c.105-1.286-.241-2.576-1.217-3.85l-9.248-12.063c-6.805-8.876-15.566-9.923-22.274-7.076l.013-.008c.802-.8 1.536-1.485 2.062-1.888 6.083-4.664 16.092-5.168 23.69 4.743l9.247 12.063zm-1.377-5.555c.513.67.717 1.37.688 2.088l-7.318-9.546c-2.058-2.685-4.285-4.66-6.571-6.038 2.368.8 4.699 2.407 6.735 5.063l6.466 8.433z"/><path d="M100.146 85.742l1.324-1.015.475.62-1.323 1.015-.476-.62zm1.848-1.416l1.323-1.014.475.62-1.323 1.014-.475-.62zm1.845-1.415l1.324-1.014.475.62-1.323 1.014-.476-.62zm1.849-1.417l1.322-1.014.476.62-1.323 1.014-.475-.62zm1.846-1.415l1.323-1.014.475.62-1.323 1.014-.475-.62zm1.847-1.416l1.323-1.015.476.62-1.324 1.015-.475-.62zm1.846-1.415l1.323-1.015.475.62-1.323 1.015-.475-.62zm1.847-1.416l1.324-1.015.475.62-1.324 1.015-.475-.62zm1.847-1.416l1.322-1.014.475.62-1.322 1.014-.475-.62zM116.768 73l1.322-1.014.475.62-1.322 1.014-.475-.62zm-13.192 17.215l1.323-1.014.475.62-1.323 1.014-.475-.62zm1.847-1.416l1.323-1.014.475.62-1.323 1.014-.475-.62zm1.846-1.415l1.323-1.014.475.62-1.323 1.014-.475-.62zm1.848-1.417l1.323-1.013.475.62-1.323 1.013-.475-.62zm1.846-1.415l1.323-1.014.475.62-1.323 1.014-.475-.62zm1.847-1.416l1.324-1.014.475.62-1.324 1.014-.475-.62zm1.846-1.415l1.324-1.014.475.62-1.323 1.014-.476-.62zm5.541-4.247l1.322-1.014.476.62-1.323 1.014-.475-.62z"/><path d="M97.197 80.717c-1.925 1.476-2.283 4.256-.796 6.196l7.608 9.925c1.487 1.94 4.264 2.317 6.19.84l16.807-12.884c1.925-1.476 2.283-4.255.796-6.195l-7.608-9.924c-1.488-1.941-4.264-2.318-6.19-.842L97.197 80.717zm25.172-6.638l-3.852 2.953c.073-.413.005-.823-.241-1.144-.247-.322-.624-.494-1.044-.531l3.853-2.954 1.284 1.676zm-1.824 6.91c.217.199.307.437.301.584-.004.092-.044.122-.058.133l-.771.592c-.015.01-.054.04-.144.02-.144-.031-.35-.18-.486-.441l-1.154-2.206c-.002-.01.008-.045.039-.068l.367-.281c.028-.022.062-.025.065-.028l1.841 1.696zm-4.39-4.529c.538-.412 1.225-.456 1.501-.097.224.294.115.778-.224 1.172l-.836-1.09-.572.438.836 1.09c-.467.224-.965.204-1.189-.088-.276-.36-.054-1.012.484-1.425zm-.061 2.43l-15.037 11.527-1.284-1.675 15.037-11.527c-.074.414-.005.823.242 1.145.245.321.622.494 1.042.53zm9.962 4.664l-16.807 12.884c-1.243.952-3.037.705-4-.551l-2.882-3.76 1.16-.89-.476-.62-1.159.889-.359-.469 15.962-12.236.212.278a.86.86 0 0 0-.237.485l-.967.741.476.62.734-.563.981 1.876c.229.439.607.754 1.011.844a.937.937 0 0 0 .787-.164l.771-.592a.941.941 0 0 0 .364-.72c.018-.412-.189-.859-.553-1.192l-1.558-1.434.632-.484-.476-.62-.863.661a.858.858 0 0 0-.53.104l-.213-.278 4.779-3.663.359.468-1.16.89.475.62 1.16-.89 2.883 3.76c.963 1.257.736 3.054-.506 4.006zm-7.102-13.93l.821 1.07-1.16.89.475.62 1.16-.89.359.47L99.297 88.12l-.36-.468 1.161-.89-.475-.62-1.16.89-.82-1.07c-.964-1.257-.737-3.054.506-4.006l16.806-12.884c1.242-.951 3.037-.704 3.999.552z"/></g><g clip-path="url(#clip12_8753_33407)" fill="#F8F9FB"><path d="M296.529 29.833a16.568 16.568 0 0 0-5.125.3c-5.71-4.317-13.184 1.032-11.372 7.576a182.642 182.642 0 0 0-2.924 3.194c-5.213 5.684-7.12 14.978.13 24.435l9.247 12.063c3.722 4.855 9.987 1.092 15.625-3.23l5.66-4.339c2.045-1.568 4.035-3.236 5.571-4.955 6.608-6.466 8.742-11.335 6.336-14.474l-.105-.136c1.48-2.034 2.101-4.012.918-5.554l-7.275-9.491c-4.986-6.504-11.537-7.52-16.686-5.389zm-9.124 1.7a17.363 17.363 0 0 0-2.857 1.775c-.479.367-1.102.934-1.787 1.6a4.083 4.083 0 0 1 4.644-3.375zm26.3 25c2.295 2.994.235 6.6-6.887 12.06l-5.66 4.338c-7.122 5.46-11.139 6.512-13.433 3.519l-9.247-12.063c-7.603-9.917-4.331-19.595 1.926-24.392 3.234-2.48 7.522-3.844 11.959-3.219l1.064 1.388c-.248.257-.331.637-.173.943l1.158 2.216c.229.439.607.755 1.012.844a.936.936 0 0 0 .785-.164l.772-.592a.939.939 0 0 0 .364-.718c.018-.413-.189-.86-.553-1.194l-1.841-1.694c-.252-.232-.639-.252-.952-.079l-.589-.768c3.813.808 7.685 3.126 11.048 7.513l9.247 12.063zm-19.754-17.776c-.001-.01.009-.045.041-.07l.365-.28c.029-.022.063-.024.066-.027h.001l1.84 1.693c.216.2.308.437.301.585-.003.092-.043.122-.057.133l-.772.592c-.015.01-.053.04-.142.02-.145-.032-.352-.181-.488-.442l-1.155-2.204zm24.485 12.597c1.547 2.018-.037 5.182-2.267 8.067l-.006.012c.105-1.286-.241-2.576-1.217-3.85l-9.248-12.063c-6.805-8.877-15.566-9.923-22.274-7.076l.013-.008c.802-.8 1.536-1.485 2.062-1.888 6.083-4.664 16.092-5.168 23.69 4.743l9.247 12.063zm-1.377-5.555c.513.67.717 1.37.688 2.088l-7.318-9.546c-2.058-2.685-4.285-4.66-6.571-6.038 2.368.8 4.699 2.407 6.735 5.063l6.466 8.433z"/><path d="M283.146 62.742l1.324-1.015.475.62-1.323 1.015-.476-.62zm1.848-1.416l1.323-1.014.475.62-1.323 1.014-.475-.62zm1.845-1.415l1.324-1.014.475.62-1.323 1.014-.476-.62zm1.849-1.417l1.322-1.014.476.62-1.323 1.014-.475-.62zm1.846-1.415l1.323-1.014.475.62-1.323 1.014-.475-.62zm1.847-1.416l1.323-1.015.476.62-1.324 1.015-.475-.62zm1.846-1.415l1.323-1.015.475.62-1.323 1.015-.475-.62zm1.847-1.416l1.324-1.015.475.62-1.324 1.015-.475-.62zm1.847-1.416l1.322-1.014.475.62-1.322 1.014-.475-.62zM299.768 50l1.322-1.014.475.62-1.322 1.014-.475-.62zm-13.192 17.215l1.323-1.014.475.62-1.323 1.014-.475-.62zm1.847-1.416l1.323-1.014.475.62-1.323 1.014-.475-.62zm1.846-1.415l1.323-1.014.475.62-1.323 1.014-.475-.62zm1.848-1.417l1.323-1.013.475.62-1.323 1.013-.475-.62zm1.846-1.415l1.323-1.014.475.62-1.323 1.014-.475-.62zm1.847-1.416l1.324-1.014.475.62-1.324 1.015-.475-.62zm1.846-1.415l1.324-1.014.475.62-1.323 1.014-.476-.62zm5.541-4.247l1.322-1.014.476.62-1.323 1.014-.475-.62z"/><path d="M280.197 57.717c-1.925 1.476-2.283 4.256-.796 6.196l7.608 9.925c1.487 1.94 4.264 2.317 6.19.84l16.807-12.884c1.925-1.476 2.283-4.255.796-6.195l-7.608-9.924c-1.488-1.941-4.264-2.318-6.19-.842l-16.807 12.884zm25.172-6.638l-3.852 2.953c.073-.413.005-.823-.241-1.144-.247-.322-.624-.494-1.044-.531l3.853-2.954 1.284 1.676zm-1.824 6.91c.217.199.307.437.301.584-.004.092-.044.122-.058.133l-.771.592c-.015.01-.054.04-.144.02-.144-.032-.35-.18-.486-.441l-1.154-2.206c-.002-.01.008-.045.039-.068l.367-.281c.028-.022.062-.025.065-.028l1.841 1.696zm-4.39-4.529c.538-.412 1.225-.456 1.501-.097.224.294.115.778-.224 1.172l-.836-1.09-.572.438.836 1.09c-.467.224-.965.204-1.189-.088-.276-.36-.054-1.012.484-1.425zm-.061 2.43l-15.037 11.527-1.284-1.675 15.037-11.527c-.074.414-.005.823.242 1.145.245.321.622.494 1.042.53zm9.962 4.664l-16.807 12.884c-1.243.952-3.037.705-4-.551l-2.882-3.76 1.16-.89-.476-.62-1.159.889-.359-.469 15.962-12.236.212.278a.86.86 0 0 0-.237.485l-.967.741.476.62.734-.563.981 1.876c.229.439.607.754 1.011.844a.937.937 0 0 0 .787-.164l.771-.592a.941.941 0 0 0 .364-.72c.018-.412-.189-.859-.553-1.192l-1.558-1.434.632-.484-.476-.62-.863.661a.858.858 0 0 0-.53.104l-.213-.278 4.779-3.663.359.468-1.16.89.475.62 1.16-.89 2.883 3.76c.963 1.257.736 3.054-.506 4.006zm-7.102-13.93l.821 1.07-1.16.89.475.62 1.16-.89.359.47-21.312 16.337-.359-.468 1.16-.89-.475-.62-1.16.89-.821-1.07c-.963-1.257-.736-3.054.507-4.007l16.806-12.883c1.242-.952 3.037-.704 3.999.552z"/></g><path d="M46.58 126.997c-1.917 1.106-5.017-.944-5.017-.944-3.1-2.051-5.318-5.892-6.98-8.772l-.555-.96-12.354.731-.277-.48-5.145-15.528m0 0c.302-.216.614-.419.94-.607l2.959-1.709a4.419 4.419 0 0 1 3.79-.3 4.439 4.439 0 0 1 2.63 2.751l3.45 10.414m-13.77-10.549a11.114 11.114 0 0 0-4.038 5.481 11.158 11.158 0 0 0-.09 6.817l1.736 5.662m15.528 2.556c1.41 6.868-.205 12.921-4.996 15.687m38.477-19.654c-1.558.899-4.068-.752-4.068-.752-2.52-1.666-4.322-4.787-5.673-7.128l-.45-.779-10.155.662-.225-.39-4.182-12.615m11.188 8.57l-2.91-8.784a3.333 3.333 0 0 0-3.422-2.272 3.31 3.31 0 0 0-1.395.434l-2.694 1.556c-.267.154-.52.32-.763.494m-1.705 14.452l-1.492-4.51a8.853 8.853 0 0 1-.026-5.496 8.821 8.821 0 0 1 3.221-4.445m12.957.928c3.16.318 6.317-.667 9.108-2.279m-11.39 18.02c.846 4.122.35 7.886-1.54 10.477M20.436 93.443s-4.175-.15-5.56-2.55a3.878 3.878 0 0 1 1.413-5.297 3.869 3.869 0 0 1 5.286 1.429c1.386 2.4-.564 6.086-.564 6.086l-.575.332zM40.051 89.8s-4.175-.15-5.56-2.55a3.879 3.879 0 0 1-.39-2.94 3.863 3.863 0 0 1 4.736-2.734 3.88 3.88 0 0 1 2.35 1.806c1.386 2.4-.561 6.086-.561 6.086l-.575.332zm182.528 48.197c-1.916 1.106-5.016-.944-5.016-.944-3.1-2.051-5.318-5.892-6.981-8.772l-.554-.96-12.354.731-.277-.48-5.145-15.528m0 0c.302-.216.614-.419.94-.607l2.959-1.708a4.411 4.411 0 0 1 3.789-.301 4.441 4.441 0 0 1 2.631 2.751l3.45 10.414m-13.769-10.549a11.11 11.11 0 0 0-4.039 5.481 11.153 11.153 0 0 0-.09 6.817l1.736 5.662m15.529 2.556c1.409 6.868-.206 12.921-4.997 15.687m38.477-19.654c-1.558.899-4.068-.752-4.068-.752-2.52-1.666-4.322-4.787-5.673-7.128l-.45-.779-10.155.662-.225-.39-4.182-12.615m11.188 8.57l-2.91-8.784a3.329 3.329 0 0 0-3.422-2.272 3.31 3.31 0 0 0-1.395.434l-2.694 1.556c-.267.154-.52.32-.763.494m-1.705 14.452l-1.492-4.51a8.854 8.854 0 0 1-.027-5.496 8.82 8.82 0 0 1 3.222-4.445m12.956.928c3.161.318 6.317-.667 9.11-2.279m-11.392 18.02c.847 4.122.35 7.886-1.539 10.477m-26.816-30.293s-4.175-.15-5.561-2.551a3.877 3.877 0 0 1 1.414-5.296 3.869 3.869 0 0 1 5.286 1.429c1.386 2.4-.564 6.086-.564 6.086l-.575.332zm19.615-3.643s-4.175-.15-5.561-2.55a3.877 3.877 0 0 1-.389-2.94 3.864 3.864 0 0 1 7.087-.928c1.385 2.4-.562 6.086-.562 6.086l-.575.332zm-69.472 136.197c-1.916 1.106-5.016-.944-5.016-.944-3.1-2.051-5.318-5.892-6.981-8.772l-.554-.96-12.354.731-.277-.48-5.145-15.528m0 0c.302-.216.614-.419.94-.607l2.959-1.708a4.411 4.411 0 0 1 3.789-.301 4.441 4.441 0 0 1 2.631 2.751l3.45 10.414m-13.769-10.549a11.11 11.11 0 0 0-4.039 5.481 11.153 11.153 0 0 0-.09 6.817l1.736 5.662m15.529 2.556c1.409 6.868-.206 12.921-4.997 15.687m38.477-19.654c-1.558.899-4.068-.752-4.068-.752-2.52-1.666-4.322-4.787-5.673-7.128l-.45-.779-10.155.662-.225-.39-4.182-12.615m11.188 8.57l-2.91-8.784a3.329 3.329 0 0 0-3.422-2.272 3.31 3.31 0 0 0-1.395.434l-2.694 1.556c-.267.154-.52.32-.763.494m-1.705 14.452l-1.492-4.51a8.854 8.854 0 0 1-.027-5.496 8.82 8.82 0 0 1 3.222-4.445m12.956.928c3.161.318 6.317-.667 9.11-2.279m-11.392 18.02c.847 4.122.35 7.886-1.539 10.477m-26.816-30.293s-4.175-.15-5.561-2.551a3.876 3.876 0 0 1 1.414-5.296 3.869 3.869 0 0 1 5.286 1.429c1.386 2.4-.564 6.086-.564 6.086l-.575.332zm19.615-3.643s-4.175-.15-5.561-2.551a3.876 3.876 0 0 1-.389-2.939 3.864 3.864 0 0 1 7.087-.928c1.385 2.401-.562 6.086-.562 6.086l-.575.332z" stroke="#E6EAED"/><g clip-path="url(#clip13_8753_33407)"><path d="M110.317 148.231l9.997 13.082-9.514 7.271-9.998-13.083 9.515-7.27zm.374-2.798l-12.686 9.694 12.723 16.651 12.687-9.694-12.724-16.651zm-7.488 10.745l7.136-5.453 1.212 1.586-7.136 5.453-1.212-1.586zm2.121 2.775l7.136-5.453 1.212 1.586-7.136 5.453-1.212-1.586zm2.121 2.776l7.136-5.454 1.212 1.586-7.137 5.453-1.211-1.585zm2.12 2.775l7.136-5.453 1.212 1.585-7.136 5.454-1.212-1.586zm5.928-17.717l3.172-2.424 8.483 11.101-3.172 2.423-8.483-11.1zm-1.744-5.575c-.87.665-1.053 1.914-.395 2.775l1.23 1.61 3.172-2.423-1.231-1.611c-.658-.861-1.91-1.013-2.776-.351zm11.111 17.884l3.537 1.307-.341-3.75-3.196 2.443z" fill="#F8F9FB"/></g><g clip-path="url(#clip14_8753_33407)"><path d="M210.317 214.231l9.997 13.082-9.514 7.271-9.998-13.083 9.515-7.27zm.374-2.798l-12.686 9.694 12.723 16.651 12.687-9.694-12.724-16.651zm-7.488 10.745l7.136-5.453 1.212 1.586-7.136 5.453-1.212-1.586zm2.121 2.775l7.136-5.453 1.212 1.586-7.136 5.453-1.212-1.586zm2.121 2.776l7.136-5.454 1.212 1.586-7.137 5.453-1.211-1.585zm2.12 2.775l7.136-5.453 1.212 1.585-7.136 5.454-1.212-1.586zm5.928-17.717l3.172-2.424 8.483 11.101-3.172 2.423-8.483-11.1zm-1.744-5.575c-.87.665-1.053 1.914-.395 2.775l1.23 1.61 3.172-2.423-1.231-1.611c-.658-.861-1.91-1.013-2.776-.351zm11.111 17.884l3.537 1.307-.341-3.75-3.196 2.443z" fill="#F8F9FB"/></g><g clip-path="url(#clip15_8753_33407)"><path d="M179.175 14.81l11.714 15.33-11.149 8.52-11.714-15.33 11.149-8.52zm.438-3.278l-14.865 11.36 14.909 19.51 14.865-11.36-14.909-19.51zm-8.774 12.59l8.362-6.39 1.42 1.86-8.362 6.389-1.42-1.858zm2.485 3.253l8.362-6.39 1.42 1.858-8.362 6.39-1.42-1.858zm2.485 3.251l8.362-6.39 1.42 1.859-8.362 6.39-1.42-1.859zm2.485 3.252l8.362-6.39 1.42 1.858-8.362 6.39-1.42-1.858zm6.946-20.76l3.716-2.84 9.94 13.007-3.716 2.84-9.94-13.007zm-2.044-6.532c-1.019.779-1.234 2.242-.463 3.251l1.442 1.888 3.717-2.84-1.443-1.888c-.771-1.009-2.238-1.187-3.253-.41zm13.02 20.955l4.144 1.533-.399-4.395-3.745 2.862z" fill="#F8F9FB"/></g><g clip-path="url(#clip16_8753_33407)"><path d="M273.936 186.174l-4.255 1.574-1.039-2.857a.912.912 0 0 1 .544-1.159l2.555-.937a.896.896 0 0 1 1.158.533l1.037 2.846zm.979 15.51a.89.89 0 0 1-.294-.401l-4.299-11.782 4.253-1.573 4.299 11.782a.896.896 0 0 1 .036.497l-.747 3.492a.278.278 0 0 1-.172.198.295.295 0 0 1-.135.014.278.278 0 0 1-.125-.053l-2.816-2.174zm6.983-18.143c-3.311 2.334-5.192 2.008-7.525-1.302 3.31-2.334 5.191-2.008 7.525 1.302zm6.22 13.198c-1.798 1.73-6.368.732-9.12-1.94l-2.097-5.753a3.86 3.86 0 0 1 1.534-2.256 4.886 4.886 0 0 1 2.809-.903 1.734 1.734 0 0 0 1.591-1.144 4.384 4.384 0 0 1 1.652-2.218c1.132-.799 2.924-.985 4.261-.359 5.056 2.373 5.201 11.108 2.029 12.701-.149.067-.308.11-.471.128a2.563 2.563 0 0 0-1.916 1.35c-.07.145-.161.278-.272.394z" fill="#F8F9FB"/></g><g clip-path="url(#clip17_8753_33407)"><path d="M38.205 182.33l-5.42 2.005-1.324-3.64a1.158 1.158 0 0 1 .694-1.476l3.254-1.194a1.133 1.133 0 0 1 .878.034 1.14 1.14 0 0 1 .597.646l1.32 3.625zm1.246 19.757c-.17-.132-.3-.309-.374-.511l-5.476-15.008 5.418-2.004 5.477 15.008c.074.202.09.422.045.633l-.952 4.449a.349.349 0 0 1-.55.203l-3.588-2.77zm8.896-23.111c-4.217 2.972-6.613 2.558-9.586-1.659 4.217-2.973 6.613-2.558 9.586 1.659zm7.923 16.812c-2.29 2.204-8.112.933-11.617-2.471l-2.672-7.329a4.923 4.923 0 0 1 1.955-2.874 6.215 6.215 0 0 1 3.578-1.149 2.217 2.217 0 0 0 2.027-1.458 5.59 5.59 0 0 1 2.104-2.826c1.443-1.017 3.725-1.254 5.428-.458 6.44 3.024 6.626 14.151 2.585 16.18-.19.086-.393.14-.6.163a3.265 3.265 0 0 0-2.44 1.72 1.98 1.98 0 0 1-.348.502z" fill="#F8F9FB"/></g><g clip-path="url(#clip18_8753_33407)" fill="#F8F9FB"><path d="M41.529 513.168a16.555 16.555 0 0 0-5.125.3c-5.71-4.317-13.184 1.032-11.372 7.576a181.832 181.832 0 0 0-2.924 3.194c-5.213 5.684-7.12 14.978.13 24.434l9.247 12.063c3.722 4.855 9.987 1.092 15.625-3.23l5.66-4.338c2.045-1.568 4.035-3.236 5.571-4.956 6.607-6.465 8.741-11.335 6.336-14.474l-.105-.135c1.48-2.035 2.1-4.012.918-5.555l-7.275-9.491c-4.986-6.504-11.537-7.52-16.686-5.388zm-9.124 1.7a17.36 17.36 0 0 0-2.857 1.775c-.479.366-1.102.934-1.787 1.6a4.082 4.082 0 0 1 4.644-3.375zm26.3 25c2.295 2.993.235 6.599-6.887 12.059l-5.66 4.338c-7.122 5.46-11.139 6.512-13.433 3.519l-9.247-12.062c-7.603-9.918-4.331-19.596 1.925-24.392 3.235-2.48 7.523-3.844 11.96-3.219l1.064 1.387c-.248.257-.33.638-.173.943l1.158 2.217c.23.438.607.754 1.012.844a.951.951 0 0 0 .785-.164l.772-.592a.94.94 0 0 0 .364-.719c.018-.413-.189-.86-.553-1.194l-1.84-1.693c-.253-.232-.64-.252-.953-.079l-.59-.768c3.814.807 7.686 3.125 11.05 7.513l9.246 12.062zm-19.754-17.777c-.001-.01.009-.045.04-.069l.366-.28c.029-.022.063-.024.066-.027v-.001l1.841 1.693c.216.2.308.438.301.586-.003.091-.043.122-.057.132l-.772.592c-.015.011-.053.041-.142.02-.145-.031-.352-.181-.488-.442l-1.155-2.204zm24.485 12.598c1.547 2.018-.037 5.181-2.267 8.067l-.006.011c.105-1.286-.24-2.575-1.217-3.849l-9.248-12.063c-6.804-8.877-15.566-9.924-22.274-7.076l.012-.009c.803-.799 1.537-1.484 2.063-1.887 6.083-4.664 16.092-5.169 23.69 4.743l9.247 12.063zm-1.377-5.555c.513.669.717 1.369.688 2.087l-7.318-9.545c-2.058-2.685-4.285-4.661-6.57-6.038 2.367.8 4.698 2.406 6.734 5.062l6.466 8.434z"/><path d="M28.146 546.076l1.324-1.014.475.62-1.323 1.014-.476-.62zm1.848-1.416l1.323-1.014.475.62-1.323 1.014-.475-.62zm1.845-1.415l1.324-1.014.475.62-1.323 1.014-.476-.62zm1.849-1.417l1.322-1.013.476.62-1.323 1.013-.475-.62zm1.845-1.415l1.324-1.014.475.62-1.323 1.014-.476-.62zm1.848-1.416l1.323-1.014.476.62-1.324 1.014-.475-.62zm1.846-1.415l1.323-1.014.476.62-1.324 1.014-.475-.62zm1.847-1.416l1.324-1.015.475.62-1.324 1.015-.475-.62zm1.847-1.416l1.322-1.013.475.62-1.322 1.013-.475-.62zm1.847-1.415l1.322-1.014.475.62-1.322 1.014-.475-.62zM31.576 550.55l1.323-1.015.475.62-1.323 1.015-.475-.62zm1.847-1.416l1.323-1.015.475.62-1.323 1.015-.475-.62zm1.846-1.415l1.323-1.015.475.62-1.323 1.015-.475-.62zm1.848-1.417l1.323-1.014.475.62-1.323 1.014-.475-.62zm1.846-1.415l1.323-1.014.475.62-1.323 1.014-.475-.62zm1.847-1.416l1.324-1.015.475.62-1.324 1.015-.475-.62zm1.846-1.415l1.324-1.015.475.62-1.323 1.015-.476-.62zm5.54-4.248l1.324-1.014.475.62-1.323 1.014-.475-.62z"/><path d="M25.197 541.051c-1.925 1.477-2.283 4.256-.796 6.197l7.608 9.924c1.487 1.94 4.264 2.317 6.19.84l16.807-12.883c1.925-1.476 2.283-4.256.796-6.196l-7.608-9.924c-1.488-1.941-4.264-2.318-6.19-.841l-16.807 12.883zm25.172-6.638l-3.852 2.954c.073-.414.005-.823-.241-1.145-.247-.321-.624-.494-1.044-.531l3.853-2.953 1.284 1.675zm-1.824 6.911c.217.199.307.436.3.583-.003.092-.043.123-.057.134l-.771.591c-.015.011-.054.041-.144.021-.144-.032-.35-.181-.486-.442l-1.154-2.205c-.002-.011.008-.045.04-.069l.366-.281c.028-.022.062-.025.065-.027l1.841 1.695zm-4.39-4.529c.538-.412 1.225-.457 1.5-.097.225.293.116.778-.223 1.172l-.836-1.09-.572.438.836 1.09c-.468.223-.965.204-1.19-.089-.275-.359-.053-1.012.485-1.424zm-.061 2.429l-15.037 11.527-1.284-1.675 15.037-11.527c-.074.414-.005.824.242 1.146.245.321.622.493 1.042.529zm9.962 4.664l-16.807 12.884c-1.243.953-3.037.706-4-.55l-2.883-3.761 1.16-.889-.475-.62-1.16.889-.358-.469 15.962-12.236.213.277a.855.855 0 0 0-.238.485l-.966.741.475.621.735-.564.98 1.877c.23.438.607.754 1.011.843a.937.937 0 0 0 .787-.164l.771-.591a.941.941 0 0 0 .364-.72c.018-.413-.189-.86-.553-1.192l-1.558-1.434.632-.485-.476-.62-.863.662a.852.852 0 0 0-.53.103l-.213-.278 4.779-3.663.36.469-1.161.889.475.62 1.16-.889 2.883 3.76c.963 1.257.736 3.053-.506 4.005zm-7.102-13.929l.82 1.07-1.16.89.476.62 1.16-.89.36.469-21.313 16.338-.36-.469 1.16-.889-.474-.62-1.16.889-.82-1.07c-.964-1.256-.737-3.054.506-4.006l16.806-12.884c1.242-.951 3.037-.703 4 .552z"/></g><g clip-path="url(#clip19_8753_33407)" fill="#F8F9FB"><path d="M346.529 633.168a16.553 16.553 0 0 0-5.125.3c-5.71-4.317-13.184 1.032-11.372 7.576a181.832 181.832 0 0 0-2.924 3.194c-5.213 5.684-7.12 14.978.13 24.434l9.247 12.063c3.722 4.855 9.987 1.092 15.625-3.23l5.66-4.338c2.045-1.568 4.035-3.236 5.571-4.956 6.608-6.465 8.742-11.335 6.336-14.474l-.105-.135c1.48-2.035 2.101-4.012.918-5.555l-7.275-9.491c-4.986-6.504-11.537-7.52-16.686-5.388zm-9.124 1.7a17.353 17.353 0 0 0-2.857 1.775c-.479.366-1.102.934-1.787 1.6a4.084 4.084 0 0 1 4.644-3.375zm26.3 25c2.295 2.993.235 6.599-6.887 12.059l-5.66 4.338c-7.122 5.46-11.139 6.512-13.433 3.519l-9.247-12.062c-7.603-9.918-4.331-19.596 1.926-24.392 3.234-2.48 7.522-3.844 11.959-3.219l1.064 1.387c-.248.257-.331.638-.173.943l1.158 2.217c.229.438.607.754 1.012.844a.95.95 0 0 0 .785-.164l.772-.592a.94.94 0 0 0 .364-.719c.018-.413-.189-.86-.553-1.194l-1.841-1.693c-.252-.232-.639-.252-.952-.079l-.589-.768c3.813.807 7.685 3.125 11.048 7.513l9.247 12.062zm-19.754-17.777c-.001-.01.009-.045.041-.069l.365-.28c.029-.022.063-.024.066-.027l.001-.001 1.84 1.693c.216.2.308.438.301.586-.003.091-.043.122-.057.132l-.772.592c-.015.011-.053.041-.142.02-.145-.031-.352-.181-.488-.442l-1.155-2.204zm24.485 12.598c1.547 2.018-.037 5.181-2.267 8.067l-.006.011c.105-1.286-.241-2.575-1.217-3.849l-9.248-12.063c-6.805-8.877-15.566-9.924-22.274-7.076l.013-.009c.802-.799 1.536-1.484 2.062-1.887 6.083-4.664 16.092-5.169 23.69 4.743l9.247 12.063zm-1.377-5.555c.513.669.717 1.369.688 2.087l-7.318-9.545c-2.058-2.685-4.285-4.661-6.571-6.038 2.368.8 4.699 2.406 6.735 5.062l6.466 8.434z"/><path d="M333.146 666.076l1.324-1.014.475.62-1.323 1.014-.476-.62zm1.848-1.416l1.323-1.014.475.62-1.323 1.014-.475-.62zm1.845-1.415l1.324-1.014.475.62-1.323 1.014-.476-.62zm1.849-1.417l1.322-1.013.476.62-1.323 1.013-.475-.62zm1.846-1.415l1.323-1.014.475.62-1.323 1.014-.475-.62zm1.847-1.416l1.323-1.014.476.62-1.324 1.014-.475-.62zm1.846-1.415l1.323-1.014.475.62-1.323 1.014-.475-.62zm1.847-1.416l1.324-1.015.475.62-1.324 1.015-.475-.62zm1.847-1.416l1.322-1.013.475.62-1.322 1.013-.475-.62zm1.847-1.415l1.322-1.014.475.62-1.322 1.014-.475-.62zm-13.192 17.215l1.323-1.015.475.62-1.323 1.015-.475-.62zm1.847-1.416l1.323-1.015.475.62-1.323 1.015-.475-.62zm1.846-1.415l1.323-1.015.475.62-1.323 1.015-.475-.62zm1.848-1.417l1.323-1.014.475.62-1.323 1.014-.475-.62zm1.846-1.415l1.323-1.014.475.62-1.323 1.014-.475-.62zm1.847-1.416l1.324-1.015.475.62-1.324 1.015-.475-.62zm1.846-1.415l1.324-1.015.475.62-1.323 1.015-.476-.62zm5.541-4.248l1.322-1.014.476.62-1.323 1.014-.475-.62z"/><path d="M330.197 661.051c-1.925 1.477-2.283 4.256-.796 6.197l7.608 9.924c1.487 1.94 4.264 2.317 6.19.84l16.807-12.883c1.925-1.476 2.283-4.256.796-6.196l-7.608-9.924c-1.488-1.941-4.264-2.318-6.19-.841l-16.807 12.883zm25.172-6.638l-3.852 2.954c.073-.414.005-.823-.241-1.145-.247-.321-.624-.494-1.044-.531l3.853-2.953 1.284 1.675zm-1.824 6.911c.217.199.307.436.301.583-.004.092-.044.123-.058.134l-.771.591c-.015.011-.054.041-.144.021-.144-.032-.35-.181-.486-.442l-1.154-2.205c-.002-.011.008-.045.039-.069l.367-.281c.028-.022.062-.025.065-.027l1.841 1.695zm-4.39-4.529c.538-.412 1.225-.457 1.501-.097.224.293.115.778-.224 1.172l-.836-1.09-.572.438.836 1.09c-.467.223-.965.204-1.189-.089-.276-.359-.054-1.012.484-1.424zm-.061 2.429l-15.037 11.527-1.284-1.675 15.037-11.527c-.074.414-.005.824.242 1.146.245.321.622.493 1.042.529zm9.962 4.664l-16.807 12.884c-1.243.953-3.037.706-4-.55l-2.882-3.761 1.16-.889-.476-.62-1.159.889-.359-.469 15.962-12.236.212.277a.86.86 0 0 0-.237.485l-.967.741.476.621.734-.564.981 1.877c.229.438.607.754 1.011.843a.938.938 0 0 0 .787-.164l.771-.591a.942.942 0 0 0 .364-.72c.018-.413-.189-.86-.553-1.192l-1.558-1.434.632-.485-.476-.62-.863.662a.852.852 0 0 0-.53.103l-.213-.278 4.779-3.663.359.469-1.16.889.475.62 1.16-.889 2.883 3.76c.963 1.257.736 3.053-.506 4.005zm-7.102-13.929l.821 1.07-1.16.89.475.62 1.16-.89.359.469-21.312 16.338-.359-.469 1.16-.889-.475-.62-1.16.889-.821-1.07c-.963-1.256-.736-3.054.507-4.006l16.806-12.884c1.242-.951 3.037-.703 3.999.552z"/></g><g clip-path="url(#clip20_8753_33407)" fill="#F8F9FB"><path d="M113.529 551.168a16.553 16.553 0 0 0-5.125.3c-5.71-4.317-13.184 1.032-11.372 7.576a181.832 181.832 0 0 0-2.924 3.194c-5.213 5.684-7.12 14.978.13 24.434l9.247 12.063c3.722 4.855 9.987 1.092 15.625-3.23l5.66-4.338c2.045-1.568 4.035-3.236 5.571-4.956 6.608-6.465 8.742-11.335 6.336-14.474l-.105-.135c1.48-2.035 2.101-4.012.918-5.555l-7.275-9.491c-4.986-6.504-11.537-7.52-16.686-5.388zm-9.124 1.7a17.353 17.353 0 0 0-2.857 1.775c-.479.366-1.102.934-1.787 1.6a4.084 4.084 0 0 1 4.644-3.375zm26.3 25c2.295 2.993.235 6.599-6.887 12.059l-5.66 4.338c-7.122 5.46-11.139 6.512-13.433 3.519l-9.247-12.062c-7.603-9.918-4.331-19.596 1.925-24.392 3.235-2.48 7.523-3.844 11.96-3.219l1.064 1.387c-.248.257-.331.638-.173.943l1.158 2.217c.229.438.607.754 1.012.844a.95.95 0 0 0 .785-.164l.772-.592a.94.94 0 0 0 .364-.719c.018-.413-.189-.86-.553-1.194l-1.841-1.693c-.252-.232-.639-.252-.952-.079l-.589-.768c3.813.807 7.685 3.125 11.048 7.513l9.247 12.062zm-19.754-17.777c-.001-.01.009-.045.041-.069l.365-.28c.029-.022.063-.024.066-.027l.001-.001 1.84 1.693c.216.2.308.438.301.586-.003.091-.043.122-.057.132l-.772.592c-.015.011-.053.041-.142.02-.145-.031-.352-.181-.488-.442l-1.155-2.204zm24.485 12.598c1.547 2.018-.037 5.181-2.267 8.067l-.006.011c.105-1.286-.241-2.575-1.217-3.849l-9.248-12.063c-6.805-8.877-15.566-9.924-22.274-7.076l.013-.009c.802-.799 1.536-1.484 2.062-1.887 6.083-4.664 16.092-5.169 23.69 4.743l9.247 12.063zm-1.377-5.555c.513.669.717 1.369.688 2.087l-7.318-9.545c-2.058-2.685-4.285-4.661-6.571-6.038 2.368.8 4.699 2.406 6.735 5.062l6.466 8.434z"/><path d="M100.146 584.076l1.324-1.014.475.62-1.323 1.014-.476-.62zm1.848-1.416l1.323-1.014.475.62-1.323 1.014-.475-.62zm1.845-1.415l1.324-1.014.475.62-1.323 1.014-.476-.62zm1.849-1.417l1.322-1.013.476.62-1.323 1.013-.475-.62zm1.846-1.415l1.323-1.014.475.62-1.323 1.014-.475-.62zm1.847-1.416l1.323-1.014.476.62-1.324 1.014-.475-.62zm1.846-1.415l1.323-1.014.475.62-1.323 1.014-.475-.62zm1.847-1.416l1.324-1.015.475.62-1.324 1.015-.475-.62zm1.847-1.416l1.322-1.013.475.62-1.322 1.013-.475-.62zm1.847-1.415l1.322-1.014.475.62-1.322 1.014-.475-.62zm-13.192 17.215l1.323-1.015.475.62-1.323 1.015-.475-.62zm1.847-1.416l1.323-1.015.475.62-1.323 1.015-.475-.62zm1.846-1.415l1.323-1.015.475.62-1.323 1.015-.475-.62zm1.848-1.417l1.323-1.014.475.62-1.323 1.014-.475-.62zm1.846-1.415l1.323-1.014.475.62-1.323 1.014-.475-.62zm1.847-1.416l1.324-1.015.475.62-1.324 1.015-.475-.62zm1.846-1.415l1.324-1.015.475.62-1.323 1.015-.476-.62zm5.541-4.248l1.322-1.014.476.62-1.323 1.014-.475-.62z"/><path d="M97.197 579.051c-1.925 1.477-2.283 4.256-.796 6.197l7.608 9.924c1.487 1.94 4.264 2.317 6.19.84l16.807-12.883c1.925-1.476 2.283-4.256.796-6.196l-7.608-9.924c-1.488-1.941-4.264-2.318-6.19-.841l-16.807 12.883zm25.172-6.638l-3.852 2.954c.073-.414.005-.823-.241-1.145-.247-.321-.624-.494-1.044-.531l3.853-2.953 1.284 1.675zm-1.824 6.911c.217.199.307.436.301.583-.004.092-.044.123-.058.134l-.771.591c-.015.011-.054.041-.144.021-.144-.032-.35-.181-.486-.442l-1.154-2.205c-.002-.011.008-.045.039-.069l.367-.281c.028-.022.062-.025.065-.027l1.841 1.695zm-4.39-4.529c.538-.412 1.225-.457 1.501-.097.224.293.115.778-.224 1.172l-.836-1.09-.572.438.836 1.09c-.467.223-.965.204-1.189-.089-.276-.359-.054-1.012.484-1.424zm-.061 2.429l-15.037 11.527-1.284-1.675 15.037-11.527c-.074.414-.005.824.242 1.146.245.321.622.493 1.042.529zm9.962 4.664l-16.807 12.884c-1.243.953-3.037.706-4-.55l-2.882-3.761 1.16-.889-.476-.62-1.159.889-.359-.469 15.962-12.236.212.277a.86.86 0 0 0-.237.485l-.967.741.476.621.734-.564.981 1.877c.229.438.607.754 1.011.843a.938.938 0 0 0 .787-.164l.771-.591a.942.942 0 0 0 .364-.72c.018-.413-.189-.86-.553-1.192l-1.558-1.434.632-.485-.476-.62-.863.662a.852.852 0 0 0-.53.103l-.213-.278 4.779-3.663.359.469-1.16.889.475.62 1.16-.889 2.883 3.76c.963 1.257.736 3.053-.506 4.005zm-7.102-13.929l.821 1.07-1.16.89.475.62 1.16-.89.359.469-21.312 16.338-.36-.469 1.161-.889-.475-.62-1.16.889-.82-1.07c-.964-1.256-.737-3.054.506-4.006l16.806-12.884c1.242-.951 3.037-.703 3.999.552z"/></g><g clip-path="url(#clip21_8753_33407)" fill="#F8F9FB"><path d="M296.529 528.168a16.553 16.553 0 0 0-5.125.3c-5.71-4.317-13.184 1.032-11.372 7.576a181.832 181.832 0 0 0-2.924 3.194c-5.213 5.684-7.12 14.978.13 24.434l9.247 12.063c3.722 4.855 9.987 1.092 15.625-3.23l5.66-4.338c2.045-1.568 4.035-3.236 5.571-4.956 6.608-6.465 8.742-11.335 6.336-14.474l-.105-.135c1.48-2.035 2.101-4.012.918-5.555l-7.275-9.491c-4.986-6.504-11.537-7.52-16.686-5.388zm-9.124 1.7a17.353 17.353 0 0 0-2.857 1.775c-.479.366-1.102.934-1.787 1.6a4.084 4.084 0 0 1 4.644-3.375zm26.3 25c2.295 2.993.235 6.599-6.887 12.059l-5.66 4.338c-7.122 5.46-11.139 6.512-13.433 3.519l-9.247-12.062c-7.603-9.918-4.331-19.596 1.926-24.392 3.234-2.48 7.522-3.844 11.959-3.219l1.064 1.387c-.248.257-.331.638-.173.943l1.158 2.217c.229.438.607.754 1.012.844a.95.95 0 0 0 .785-.164l.772-.592a.94.94 0 0 0 .364-.719c.018-.413-.189-.86-.553-1.194l-1.841-1.693c-.252-.232-.639-.252-.952-.079l-.589-.768c3.813.807 7.685 3.125 11.048 7.513l9.247 12.062zm-19.754-17.777c-.001-.01.009-.045.041-.069l.365-.28c.029-.022.063-.024.066-.027l.001-.001 1.84 1.693c.216.2.308.438.301.586-.003.091-.043.122-.057.132l-.772.592c-.015.011-.053.041-.142.02-.145-.031-.352-.181-.488-.442l-1.155-2.204zm24.485 12.598c1.547 2.018-.037 5.181-2.267 8.067l-.006.011c.105-1.286-.241-2.575-1.217-3.849l-9.248-12.063c-6.805-8.877-15.566-9.924-22.274-7.076l.013-.009c.802-.799 1.536-1.484 2.062-1.887 6.083-4.664 16.092-5.169 23.69 4.743l9.247 12.063zm-1.377-5.555c.513.669.717 1.369.688 2.087l-7.318-9.545c-2.058-2.685-4.285-4.661-6.571-6.038 2.368.8 4.699 2.406 6.735 5.062l6.466 8.434z"/><path d="M283.146 561.076l1.324-1.014.475.62-1.323 1.014-.476-.62zm1.848-1.416l1.323-1.014.475.62-1.323 1.014-.475-.62zm1.845-1.415l1.324-1.014.475.62-1.323 1.014-.476-.62zm1.849-1.417l1.322-1.013.476.62-1.323 1.013-.475-.62zm1.846-1.415l1.323-1.014.475.62-1.323 1.014-.475-.62zm1.847-1.416l1.323-1.014.476.62-1.324 1.014-.475-.62zm1.846-1.415l1.323-1.014.475.62-1.323 1.014-.475-.62zm1.847-1.416l1.324-1.015.475.62-1.324 1.015-.475-.62zm1.847-1.416l1.322-1.013.475.62-1.322 1.013-.475-.62zm1.847-1.415l1.322-1.014.475.62-1.322 1.014-.475-.62zm-13.192 17.215l1.323-1.015.475.62-1.323 1.015-.475-.62zm1.847-1.416l1.323-1.015.475.62-1.323 1.015-.475-.62zm1.846-1.415l1.323-1.015.475.62-1.323 1.015-.475-.62zm1.848-1.417l1.323-1.014.475.62-1.323 1.014-.475-.62zm1.846-1.415l1.323-1.014.475.62-1.323 1.014-.475-.62zm1.847-1.416l1.324-1.015.475.62-1.324 1.015-.475-.62zm1.846-1.415l1.324-1.015.475.62-1.323 1.015-.476-.62zm5.541-4.248l1.322-1.014.476.62-1.323 1.014-.475-.62z"/><path d="M280.197 556.051c-1.925 1.477-2.283 4.256-.796 6.197l7.608 9.924c1.487 1.94 4.264 2.317 6.19.84l16.807-12.883c1.925-1.476 2.283-4.256.796-6.196l-7.608-9.924c-1.488-1.941-4.264-2.318-6.19-.841l-16.807 12.883zm25.172-6.638l-3.852 2.954c.073-.414.005-.823-.241-1.145-.247-.321-.624-.494-1.044-.531l3.853-2.953 1.284 1.675zm-1.824 6.911c.217.199.307.436.301.583-.004.092-.044.123-.058.134l-.771.591c-.015.011-.054.041-.144.021-.144-.032-.35-.181-.486-.442l-1.154-2.205c-.002-.011.008-.045.039-.069l.367-.281c.028-.022.062-.025.065-.027l1.841 1.695zm-4.39-4.529c.538-.412 1.225-.457 1.501-.097.224.293.115.778-.224 1.172l-.836-1.09-.572.438.836 1.09c-.467.223-.965.204-1.189-.089-.276-.359-.054-1.012.484-1.424zm-.061 2.429l-15.037 11.527-1.284-1.675 15.037-11.527c-.074.414-.005.824.242 1.146.245.321.622.493 1.042.529zm9.962 4.664l-16.807 12.884c-1.243.953-3.037.706-4-.55l-2.882-3.761 1.16-.889-.476-.62-1.159.889-.359-.469 15.962-12.236.212.277a.86.86 0 0 0-.237.485l-.967.741.476.621.734-.564.981 1.877c.229.438.607.754 1.011.843a.938.938 0 0 0 .787-.164l.771-.591a.942.942 0 0 0 .364-.72c.018-.413-.189-.86-.553-1.192l-1.558-1.434.632-.485-.476-.62-.863.662a.852.852 0 0 0-.53.103l-.213-.278 4.779-3.663.359.469-1.16.889.475.62 1.16-.889 2.883 3.76c.963 1.257.736 3.053-.506 4.005zm-7.102-13.929l.821 1.07-1.16.89.475.62 1.16-.89.359.469-21.312 16.338-.359-.469 1.16-.889-.475-.62-1.16.889-.821-1.07c-.963-1.256-.736-3.054.507-4.006l16.806-12.884c1.242-.951 3.037-.703 3.999.552z"/></g><path d="M46.58 625.332c-1.917 1.106-5.017-.945-5.017-.945-3.1-2.05-5.318-5.891-6.98-8.772l-.555-.96-12.354.731-.277-.48-5.145-15.528m0 0c.302-.215.614-.419.94-.607l2.959-1.708a4.424 4.424 0 0 1 5.414.778 4.446 4.446 0 0 1 1.006 1.673l3.45 10.414m-13.77-10.55a11.116 11.116 0 0 0-4.038 5.482 11.155 11.155 0 0 0-.09 6.816l1.736 5.662m15.528 2.557c1.41 6.867-.205 12.92-4.996 15.686m38.477-19.654c-1.558.9-4.068-.752-4.068-.752-2.52-1.666-4.322-4.786-5.673-7.127l-.45-.78-10.155.663-.225-.39-4.182-12.616m11.188 8.571l-2.91-8.784a3.324 3.324 0 0 0-1.974-2.065 3.324 3.324 0 0 0-2.843.227l-2.694 1.555a9.51 9.51 0 0 0-.763.494m-1.705 14.452l-1.492-4.51a8.853 8.853 0 0 1-.026-5.496 8.826 8.826 0 0 1 3.221-4.445m12.957.928c3.16.319 6.317-.666 9.108-2.278m-11.39 18.019c.846 4.122.35 7.886-1.54 10.478m-26.816-30.294s-4.175-.15-5.56-2.55a3.878 3.878 0 0 1 1.413-5.297 3.869 3.869 0 0 1 5.286 1.429c1.386 2.4-.564 6.087-.564 6.087l-.575.331zm19.615-3.643s-4.175-.15-5.56-2.55a3.88 3.88 0 0 1-.39-2.94 3.865 3.865 0 0 1 4.736-2.734 3.88 3.88 0 0 1 2.35 1.807c1.386 2.4-.561 6.085-.561 6.085l-.575.332zm182.528 48.198c-1.916 1.106-5.016-.945-5.016-.945-3.1-2.05-5.318-5.891-6.981-8.772l-.554-.96-12.354.731-.277-.48-5.145-15.528m0 0c.302-.215.614-.419.94-.607l2.959-1.708a4.423 4.423 0 0 1 5.414.778 4.445 4.445 0 0 1 1.006 1.673l3.45 10.414m-13.769-10.55a11.113 11.113 0 0 0-4.039 5.482 11.15 11.15 0 0 0-.09 6.816l1.736 5.662m15.529 2.557c1.409 6.867-.206 12.92-4.997 15.686m38.477-19.654c-1.558.9-4.068-.752-4.068-.752-2.52-1.666-4.322-4.786-5.673-7.127l-.45-.78-10.155.663-.225-.39-4.182-12.616m11.188 8.571l-2.91-8.784a3.314 3.314 0 0 0-.755-1.255 3.316 3.316 0 0 0-4.062-.583l-2.694 1.555c-.267.154-.52.321-.763.494m-1.705 14.452l-1.492-4.51a8.854 8.854 0 0 1-.027-5.496 8.828 8.828 0 0 1 3.222-4.445m12.956.928c3.161.319 6.317-.666 9.11-2.278m-11.392 18.019c.847 4.122.35 7.886-1.539 10.478m-26.816-30.294s-4.175-.15-5.561-2.55a3.878 3.878 0 0 1 1.414-5.297 3.869 3.869 0 0 1 5.286 1.429c1.386 2.4-.564 6.087-.564 6.087l-.575.331zm19.615-3.643s-4.175-.15-5.561-2.55a3.879 3.879 0 0 1-.389-2.94 3.867 3.867 0 0 1 1.8-2.35 3.867 3.867 0 0 1 2.936-.384 3.882 3.882 0 0 1 2.351 1.807c1.385 2.4-.562 6.085-.562 6.085l-.575.332zm-69.472 136.198c-1.916 1.106-5.016-.945-5.016-.945-3.1-2.05-5.318-5.891-6.981-8.772l-.554-.96-12.354.731-.277-.48-5.145-15.528m0 0c.302-.215.614-.419.94-.607l2.959-1.708a4.423 4.423 0 0 1 5.414.778 4.445 4.445 0 0 1 1.006 1.673l3.45 10.414m-13.769-10.55a11.113 11.113 0 0 0-4.039 5.482 11.15 11.15 0 0 0-.09 6.816l1.736 5.662m15.529 2.557c1.409 6.867-.206 12.92-4.997 15.686m38.477-19.654c-1.558.9-4.068-.752-4.068-.752-2.52-1.666-4.322-4.786-5.673-7.127l-.45-.78-10.155.663-.225-.39-4.182-12.616m11.188 8.571l-2.91-8.784a3.314 3.314 0 0 0-.755-1.255 3.316 3.316 0 0 0-4.062-.583l-2.694 1.555c-.267.154-.52.321-.763.494m-1.705 14.452l-1.492-4.51a8.854 8.854 0 0 1-.027-5.496 8.828 8.828 0 0 1 3.222-4.445m12.956.928c3.161.319 6.317-.666 9.11-2.278m-11.392 18.019c.847 4.122.35 7.886-1.539 10.478m-26.816-30.294s-4.175-.15-5.561-2.55a3.878 3.878 0 0 1 1.414-5.297 3.869 3.869 0 0 1 5.286 1.429c1.386 2.4-.564 6.087-.564 6.087l-.575.331zm19.615-3.643s-4.175-.15-5.561-2.55a3.879 3.879 0 0 1-.389-2.94 3.867 3.867 0 0 1 1.8-2.35 3.867 3.867 0 0 1 2.936-.384 3.882 3.882 0 0 1 2.351 1.807c1.385 2.4-.562 6.085-.562 6.085l-.575.332z" stroke="#E6EAED"/><g clip-path="url(#clip22_8753_33407)"><path d="M110.317 646.565l9.997 13.083-9.514 7.271-9.998-13.083 9.515-7.271zm.374-2.798l-12.686 9.695 12.723 16.651 12.687-9.695-12.724-16.651zm-7.488 10.746l7.136-5.453 1.212 1.585-7.136 5.454-1.212-1.586zm2.121 2.775l7.136-5.453 1.212 1.586-7.136 5.453-1.212-1.586zm2.121 2.775l7.136-5.453 1.212 1.586-7.137 5.453-1.211-1.586zm2.12 2.775l7.136-5.453 1.212 1.586-7.136 5.453-1.212-1.586zm5.928-17.717l3.172-2.423 8.483 11.1-3.172 2.424-8.483-11.101zm-1.744-5.574c-.87.664-1.053 1.913-.395 2.774l1.23 1.611 3.172-2.424-1.231-1.61c-.658-.862-1.91-1.013-2.776-.351zm11.111 17.883l3.537 1.308-.341-3.75-3.196 2.442z" fill="#F8F9FB"/></g><g clip-path="url(#clip23_8753_33407)"><path d="M210.317 712.565l9.997 13.083-9.514 7.271-9.998-13.083 9.515-7.271zm.374-2.798l-12.686 9.695 12.723 16.651 12.687-9.695-12.724-16.651zm-7.488 10.746l7.136-5.453 1.212 1.585-7.136 5.454-1.212-1.586zm2.121 2.775l7.136-5.453 1.212 1.586-7.136 5.453-1.212-1.586zm2.121 2.775l7.136-5.453 1.212 1.586-7.137 5.453-1.211-1.586zm2.12 2.775l7.136-5.453 1.212 1.586-7.136 5.453-1.212-1.586zm5.928-17.717l3.172-2.423 8.483 11.1-3.172 2.424-8.483-11.101zm-1.744-5.574c-.87.664-1.053 1.913-.395 2.774l1.23 1.611 3.172-2.424-1.231-1.61c-.658-.862-1.91-1.013-2.776-.351zm11.111 17.883l3.537 1.308-.341-3.75-3.196 2.442z" fill="#F8F9FB"/></g><g clip-path="url(#clip24_8753_33407)"><path d="M179.175 513.144l11.714 15.33-11.149 8.52-11.714-15.33 11.149-8.52zm.438-3.278l-14.865 11.36 14.909 19.511 14.865-11.36-14.909-19.511zm-8.774 12.591l8.362-6.39 1.42 1.859-8.362 6.389-1.42-1.858zm2.485 3.252l8.362-6.39 1.42 1.858-8.362 6.39-1.42-1.858zm2.485 3.252l8.362-6.39 1.42 1.858-8.362 6.39-1.42-1.858zm2.485 3.252l8.362-6.39 1.42 1.858-8.362 6.39-1.42-1.858zm6.946-20.76l3.716-2.84 9.94 13.007-3.716 2.84-9.94-13.007zm-2.044-6.532c-1.019.778-1.234 2.242-.463 3.251l1.442 1.887 3.717-2.84-1.443-1.887c-.771-1.009-2.238-1.187-3.253-.411zm13.02 20.954l4.144 1.533-.399-4.394-3.745 2.861z" fill="#F8F9FB"/></g><g clip-path="url(#clip25_8753_33407)"><path d="M273.936 684.508l-4.255 1.575-1.039-2.858a.91.91 0 0 1 .544-1.158l2.555-.938a.895.895 0 0 1 .69.027.894.894 0 0 1 .468.507l1.037 2.845zm.979 15.51a.89.89 0 0 1-.294-.401l-4.299-11.781 4.253-1.574 4.299 11.782a.896.896 0 0 1 .036.497l-.747 3.493a.274.274 0 0 1-.432.159l-2.816-2.175zm6.983-18.142c-3.311 2.333-5.192 2.008-7.525-1.303 3.31-2.333 5.191-2.008 7.525 1.303zm6.22 13.198c-1.798 1.73-6.368.732-9.12-1.94l-2.097-5.754a3.867 3.867 0 0 1 1.534-2.256 4.885 4.885 0 0 1 2.809-.902 1.741 1.741 0 0 0 1.591-1.144 4.386 4.386 0 0 1 1.652-2.219c1.132-.799 2.924-.984 4.261-.359 5.056 2.373 5.201 11.109 2.029 12.701-.149.067-.308.11-.471.128a2.565 2.565 0 0 0-1.916 1.35c-.07.145-.161.278-.272.395z" fill="#F8F9FB"/></g><g clip-path="url(#clip26_8753_33407)"><path d="M38.205 680.664l-5.42 2.006-1.324-3.64a1.158 1.158 0 0 1 .694-1.477l3.254-1.194a1.15 1.15 0 0 1 1.475.68l1.32 3.625zm1.246 19.757c-.17-.131-.3-.308-.374-.51l-5.476-15.009 5.418-2.004 5.477 15.008c.074.203.09.422.045.633l-.952 4.45a.347.347 0 0 1-.55.202l-3.588-2.77zm8.896-23.111c-4.217 2.973-6.613 2.558-9.586-1.659 4.217-2.972 6.613-2.557 9.586 1.659zm7.923 16.813c-2.29 2.203-8.112.932-11.617-2.472l-2.672-7.329a4.92 4.92 0 0 1 1.955-2.873 6.216 6.216 0 0 1 3.578-1.15 2.21 2.21 0 0 0 2.027-1.457 5.593 5.593 0 0 1 2.104-2.827c1.443-1.017 3.725-1.254 5.428-.457 6.44 3.023 6.626 14.151 2.585 16.18a1.99 1.99 0 0 1-.6.162 3.279 3.279 0 0 0-2.44 1.72 1.985 1.985 0 0 1-.348.503z" fill="#F8F9FB"/></g><defs><clipPath id="clip0_8753_33407"><path fill="#fff" transform="rotate(-37.473 414.635 132.423)" d="M0 0h50v50H0z"/></clipPath><clipPath id="clip1_8753_33407"><path fill="#fff" transform="rotate(-37.473 744.025 -257.173)" d="M0 0h50v50H0z"/></clipPath><clipPath id="clip2_8753_33407"><path fill="#fff" transform="rotate(-37.473 506.65 45.289)" d="M0 0h50v50H0z"/></clipPath><clipPath id="clip3_8753_33407"><path fill="#fff" transform="rotate(-37.473 564.246 -235.969)" d="M0 0h50v50H0z"/></clipPath><clipPath id="clip4_8753_33407"><path fill="#fff" transform="rotate(-37.385 644.02 59.788)" d="M0 0h24.948v24.948H0z"/></clipPath><clipPath id="clip5_8753_33407"><path fill="#fff" transform="rotate(-37.385 791.555 -54.992)" d="M0 0h24.948v24.948H0z"/></clipPath><clipPath id="clip6_8753_33407"><path fill="#fff" transform="rotate(-37.385 481.55 -104.537)" d="M0 0h29.233v29.233H0z"/></clipPath><clipPath id="clip7_8753_33407"><path fill="#fff" transform="rotate(-35.18 818.203 -195.353)" d="M0 0h27v27H0z"/></clipPath><clipPath id="clip8_8753_33407"><path fill="#fff" transform="rotate(-35.18 692.804 179.717)" d="M0 0h34.394v34.394H0z"/></clipPath><clipPath id="clip9_8753_33407"><path fill="#fff" transform="rotate(-37.473 47.34 7.84)" d="M0 0h50v50H0z"/></clipPath><clipPath id="clip10_8753_33407"><path fill="#fff" transform="rotate(-37.473 376.73 -381.757)" d="M0 0h50v50H0z"/></clipPath><clipPath id="clip11_8753_33407"><path fill="#fff" transform="rotate(-37.473 139.356 -79.295)" d="M0 0h50v50H0z"/></clipPath><clipPath id="clip12_8753_33407"><path fill="#fff" transform="rotate(-37.473 196.952 -360.552)" d="M0 0h50v50H0z"/></clipPath><clipPath id="clip13_8753_33407"><path fill="#fff" transform="rotate(-37.385 275.799 -64.796)" d="M0 0h24.948v24.948H0z"/></clipPath><clipPath id="clip14_8753_33407"><path fill="#fff" transform="rotate(-37.385 423.334 -179.576)" d="M0 0h24.948v24.948H0z"/></clipPath><clipPath id="clip15_8753_33407"><path fill="#fff" transform="rotate(-37.385 113.33 -229.12)" d="M0 0h29.233v29.233H0z"/></clipPath><clipPath id="clip16_8753_33407"><path fill="#fff" transform="rotate(-35.18 425.228 -319.937)" d="M0 0h27v27H0z"/></clipPath><clipPath id="clip17_8753_33407"><path fill="#fff" transform="rotate(-35.18 299.83 55.133)" d="M0 0h34.394v34.394H0z"/></clipPath><clipPath id="clip18_8753_33407"><path fill="#fff" transform="rotate(-37.473 781.928 257.007)" d="M0 0h50v50H0z"/></clipPath><clipPath id="clip19_8753_33407"><path fill="#fff" transform="rotate(-37.473 1111.319 -132.59)" d="M0 0h50v50H0z"/></clipPath><clipPath id="clip20_8753_33407"><path fill="#fff" transform="rotate(-37.473 873.944 169.872)" d="M0 0h50v50H0z"/></clipPath><clipPath id="clip21_8753_33407"><path fill="#fff" transform="rotate(-37.473 931.54 -111.385)" d="M0 0h50v50H0z"/></clipPath><clipPath id="clip22_8753_33407"><path fill="#fff" transform="rotate(-37.385 1012.24 184.372)" d="M0 0h24.948v24.948H0z"/></clipPath><clipPath id="clip23_8753_33407"><path fill="#fff" transform="rotate(-37.385 1159.774 69.592)" d="M0 0h24.948v24.948H0z"/></clipPath><clipPath id="clip24_8753_33407"><path fill="#fff" transform="rotate(-37.385 849.77 20.046)" d="M0 0h29.233v29.233H0z"/></clipPath><clipPath id="clip25_8753_33407"><path fill="#fff" transform="rotate(-35.18 1211.177 -70.77)" d="M0 0h27v27H0z"/></clipPath><clipPath id="clip26_8753_33407"><path fill="#fff" transform="rotate(-35.18 1085.779 304.3)" d="M0 0h34.394v34.394H0z"/></clipPath></defs></svg>