<svg width="48" height="48" viewBox="0 0 48 48" fill="none" xmlns="http://www.w3.org/2000/svg"><rect width="48" height="48" rx="24" fill="#F2F2F2"/><path d="M25.8 21.6H30m-12 6.6h12M18.6 14.4h10.8c.744 0 1.404.024 1.992.108 3.156.348 4.008 1.836 4.008 5.892v7.2c0 4.056-.852 5.544-4.008 5.892-.588.084-1.248.108-1.992.108H18.6c-.744 0-1.404-.024-1.992-.108-3.156-.348-4.008-1.836-4.008-5.892v-7.2c0-4.056.852-5.544 4.008-5.892.588-.084 1.248-.108 1.992-.108z" stroke="#9CABB8" stroke-width="1.8" stroke-linecap="round" stroke-linejoin="round"/><path d="M21.713 21.6h.011m-3.61 0h.01" stroke="#9CABB8" stroke-width="2.4" stroke-linecap="round" stroke-linejoin="round"/></svg>