<svg width="24" height="24" viewBox="0 0 29 29" fill="none" xmlns="http://www.w3.org/2000/svg"><path d="M16.2 12h4.2m-12 6.6h12M9 4.8h10.8c.744 0 1.404.024 1.992.108 3.156.348 4.008 1.836 4.008 5.892V18c0 4.056-.852 5.544-4.008 5.892-.588.084-1.248.108-1.992.108H9c-.744 0-1.404-.024-1.992-.108C3.852 23.544 3 22.056 3 18v-7.2c0-4.056.852-5.544 4.008-5.892C7.596 4.824 8.256 4.8 9 4.8z" stroke="#2E2E2E" stroke-width="1.5" stroke-linecap="round" stroke-linejoin="round"/><path d="M12.116 12h.01m-3.61 0h.01" stroke="#2E2E2E" stroke-width="2.4" stroke-linecap="round" stroke-linejoin="round"/></svg>