<svg width="375" height="812" viewBox="0 0 375 812" fill="none" xmlns="http://www.w3.org/2000/svg"><g clip-path="url(#clip0_16317_39556)"><path fill="#FFF4CC" d="M0 0h375v812H0z"/><path opacity=".8" d="M383.903-436.31c-4.193 15.882-18.247 29.655-15.914 45.961 1.812 12.211 12.635 21.223 24.056 25.922 11.42 4.699 23.883 6.387 35.386 10.871 29.33 11.486 49.688 42.866 48.119 74.351-.557 10.844-3.368 21.45-4.289 32.279-1.731 20.714 3.963 42.021 15.918 59.112 1.148 1.595 2.249 3.246 3.397 4.841l41.735 34.029C594.179-98.5 603.441-7.438 552.997 54.43l-.138.17-.139.17c-50.444 61.867-141.506 71.129-203.374 20.685l-41.735-34.03c-1.793-.802-3.587-1.605-5.426-2.352-19.092-8.223-41.119-9.613-61.106-3.69-10.422 3.082-20.245 7.971-30.755 10.7-30.524 7.876-65.406-5.69-82.517-32.163-6.707-10.365-10.87-22.233-17.772-32.474-6.902-10.24-17.966-19.073-30.235-18.344-16.396.942-27.057 17.481-41.815 24.843-19.99 9.968-52.827-7.956-60.256-28.982L68.858-153.15l.276-.339 182.458-223.777.323-.396 91.468-111.835c22.092 3.043 46.203 31.552 40.52 53.186z" fill="#007AFF"/><path opacity=".8" d="M561.556-102.292c-8.493 5.51-20.612 5.973-26.303 14.38-4.232 6.323-3.027 14.92.238 21.795 3.265 6.876 8.253 12.81 11.645 19.62 8.625 17.393 4.914 40.147-8.845 53.864-4.746 4.718-10.423 8.393-15.33 12.953-9.371 8.735-15.6 20.817-17.225 33.569-.137 1.203-.318 2.413-.455 3.616l4.947 32.819c7.333 48.65-26.165 94.041-74.815 101.375l-.134.02-.133.02c-48.65 7.334-94.041-26.165-101.375-74.815l-4.947-32.82c-.486-1.108-.971-2.218-1.501-3.32-5.306-11.662-14.782-21.422-26.356-27-6.033-2.91-12.541-4.75-18.467-7.858-17.192-9.052-27.489-29.694-24.33-48.863 1.233-7.508 4.25-14.648 5.343-22.18 1.093-7.533-.296-16.147-6.197-20.897-7.872-6.363-19.589-3.233-29.374-5.987-13.251-3.733-20.81-25.516-15.489-38.189l88.03-13.406.267-.04 175.968-26.526.311-.047 88.071-13.14c8.82 10.541 8.012 33.539-3.544 41.057z" fill="#FECC2F"/><path d="M0 324c0-9.941 8.059-18 18-18h339c9.941 0 18 8.059 18 18v488H0V324z" fill="#fff"/></g><defs><clipPath id="clip0_16317_39556"><path fill="#fff" d="M0 0h375v812H0z"/></clipPath></defs></svg>