<svg width="24" height="24" viewBox="0 0 24 24" fill="none" xmlns="http://www.w3.org/2000/svg"><g id="solar:history-bold"><path id="Vector" fill-rule="evenodd" clip-rule="evenodd" d="M5.08 5.069c3.794-3.79 9.964-3.75 13.782.069 3.82 3.82 3.86 9.993.064 13.788-3.795 3.795-9.968 3.756-13.788-.064a9.812 9.812 0 0 1-2.798-8.28.75.75 0 1 1 1.487.203 8.312 8.312 0 0 0 2.371 7.017c3.245 3.244 8.468 3.263 11.668.064 3.2-3.2 3.18-8.423-.064-11.668C14.56 2.956 9.34 2.935 6.14 6.13l.748.003a.75.75 0 0 1-.007 1.5l-2.546-.012a.75.75 0 0 1-.746-.747L3.575 4.33a.75.75 0 0 1 1.5-.008l.004.748v-.001zM12 7.249a.75.75 0 0 1 .75.75v3.69l2.28 2.28a.75.75 0 1 1-1.06 1.061l-2.72-2.72V8a.75.75 0 0 1 .75-.75v-.001z" fill="#0062CC"/></g></svg>