<svg width="71" height="23" viewBox="0 0 71 23" fill="none" xmlns="http://www.w3.org/2000/svg"><rect y=".032" width="71" height="22" rx="11" fill="#F7961C"/><rect x="8" y="5.032" width="12" height="12" rx="6" fill="#fff"/><path d="M11.773 11.033h4.454" stroke="#F7961C" stroke-width=".636" stroke-linecap="round" stroke-linejoin="round"/><path d="M24.7 6.982h3.24c.767 0 1.363.194 1.79.58.427.387.64.927.64 1.62 0 .694-.213 1.234-.64 1.62-.427.387-1.023.58-1.79.58h-1.68v2.65H24.7v-7.05zm3.04 3.22c.78 0 1.17-.336 1.17-1.01 0-.346-.097-.603-.29-.77-.193-.166-.487-.25-.88-.25h-1.48v2.03h1.48zm7.744 1.66h-3.2c.047.394.174.68.38.86.214.174.514.26.9.26a2.418 2.418 0 0 0 1.44-.48l.4 1.01a2.7 2.7 0 0 1-.88.44 3.41 3.41 0 0 1-1.03.16c-.826 0-1.48-.226-1.96-.68-.473-.46-.71-1.083-.71-1.87 0-.5.104-.943.31-1.33.207-.386.494-.686.86-.9.367-.22.784-.33 1.25-.33.687 0 1.23.224 1.63.67.407.447.61 1.054.61 1.82v.37zm-2.2-1.82c-.286 0-.516.094-.69.28-.166.18-.27.444-.31.79h1.93c-.02-.353-.11-.62-.27-.8-.153-.18-.373-.27-.66-.27zm6.192-1.04c.587 0 1.024.174 1.31.52.287.34.43.857.43 1.55v2.96h-1.51v-2.89c0-.333-.063-.576-.19-.73-.12-.153-.31-.23-.57-.23-.313 0-.566.1-.76.3-.186.2-.28.467-.28.8v2.75h-1.51v-4.91h1.47v.7a1.73 1.73 0 0 1 .67-.61c.28-.14.594-.21.94-.21zm7.838-2.02v7.05h-1.5v-.73a1.564 1.564 0 0 1-.63.6c-.267.14-.57.21-.91.21-.42 0-.797-.106-1.13-.32a2.247 2.247 0 0 1-.77-.91 3.212 3.212 0 0 1-.27-1.35c0-.506.09-.95.27-1.33.186-.386.443-.683.77-.89.326-.206.703-.31 1.13-.31.333 0 .633.07.9.21.273.14.483.337.63.59v-2.82h1.51zm-2.6 5.98c.353 0 .623-.12.81-.36.193-.246.29-.596.29-1.05 0-.453-.097-.8-.29-1.04-.187-.24-.457-.36-.81-.36-.354 0-.627.12-.82.36-.194.234-.29.574-.29 1.02 0 .454.096.807.29 1.06.193.247.466.37.82.37zm3.763-3.84h1.51v4.91h-1.51v-4.91zm1.57-2.36v1.41h-1.62v-1.41h1.62zm4.175 2.24c.587 0 1.024.174 1.31.52.287.34.43.857.43 1.55v2.96h-1.51v-2.89c0-.333-.063-.576-.19-.73-.12-.153-.31-.23-.57-.23-.313 0-.566.1-.76.3-.186.2-.28.467-.28.8v2.75h-1.51v-4.91h1.47v.7a1.73 1.73 0 0 1 .67-.61c.28-.14.594-.21.94-.21zm7.878.12v4.38c0 .794-.227 1.394-.68 1.8-.454.407-1.124.61-2.01.61-.44 0-.864-.053-1.27-.16a3.821 3.821 0 0 1-1.06-.45l.4-1.04c.633.347 1.263.52 1.89.52.826 0 1.24-.39 1.24-1.17v-.54c-.14.254-.35.454-.63.6-.28.147-.594.22-.94.22-.427 0-.807-.1-1.14-.3a2.073 2.073 0 0 1-.77-.85c-.187-.373-.28-.803-.28-1.29 0-.486.093-.913.28-1.28a2.06 2.06 0 0 1 .77-.86c.333-.206.713-.31 1.14-.31.34 0 .646.074.92.22.28.14.493.337.64.59v-.69h1.5zm-2.62 3.62c.353 0 .626-.113.82-.34.2-.226.3-.543.3-.95 0-.406-.1-.723-.3-.95-.194-.233-.467-.35-.82-.35-.354 0-.63.117-.83.35-.2.227-.3.544-.3.95 0 .4.1.717.3.95.2.227.476.34.83.34z" fill="#fff"/></svg>