<svg width="102" height="91" viewBox="0 0 102 91" fill="none" xmlns="http://www.w3.org/2000/svg"><g clip-path="url(#clip0_22718_43397)"><path d="M50.371 72.2c19.8 0 35.85-16.051 35.85-35.85C86.22 16.55 70.17.5 50.37.5S14.52 16.55 14.52 36.35c0 19.799 16.05 35.85 35.85 35.85z" fill="#FC0"/><path d="M42.677 35.73h16.226-16.226z" fill="#fff"/><path d="M42.677 35.73h16.226" stroke="#fff" stroke-width="5.087" stroke-linecap="round" stroke-linejoin="round"/><path opacity=".1" d="M93.402 88.69c-16.08 3.884-52.957.7-73.908-1.86-20.951-2.561-32.902-5.773 11.086-5.582 43.988.192 47.48 1.572 57.279.931 9.797-.64 21.621 2.628 5.543 6.511z" fill="#007AFF"/></g><defs><clipPath id="clip0_22718_43397"><path fill="#fff" transform="translate(.685 .5)" d="M0 0h100.63v90H0z"/></clipPath></defs></svg>