<svg width="95" height="94" viewBox="0 0 95 94" fill="none" xmlns="http://www.w3.org/2000/svg"><rect x=".5" y=".5" width="94" height="93" rx="46.5" fill="#F2F2F2"/><path fill-rule="evenodd" clip-rule="evenodd" d="M28.248 61.324c4.96-5.205 11.742-8.449 19.253-8.449 7.51 0 14.293 3.244 19.252 8.449.542.568.69 1.401.377 2.119a1.98 1.98 0 0 1-1.817 1.182H29.688a1.98 1.98 0 0 1-1.817-1.182 1.943 1.943 0 0 1 .377-2.12zm8.367-23.136c0-5.949 4.874-10.771 10.886-10.771s10.885 4.822 10.885 10.77c0 5.95-4.873 10.772-10.885 10.772s-10.886-4.823-10.886-10.771z" fill="#007AFF"/><rect x=".5" y=".5" width="94" height="93" rx="46.5" stroke="#007AFF"/></svg>