<svg width="57" height="58" viewBox="0 0 57 58" fill="none" xmlns="http://www.w3.org/2000/svg"><g clip-path="url(#clip0_24051_50045)"><path d="M39.188 4.063a3.563 3.563 0 0 1 3.562 3.562v42.75a3.563 3.563 0 0 1-3.563 3.563H17.814a3.563 3.563 0 0 1-3.563-3.563V7.625a3.562 3.562 0 0 1 3.563-3.563h21.375zM17.811.5a7.125 7.125 0 0 0-7.125 7.125v42.75a7.125 7.125 0 0 0 7.126 7.125h21.375a7.125 7.125 0 0 0 7.124-7.125V7.625A7.125 7.125 0 0 0 39.188.5H17.811z" fill="#9CABB8"/><path d="M28.5 50.375a3.563 3.563 0 1 0 0-7.125 3.563 3.563 0 0 0 0 7.125zm8-43.625h-15c-.817.03-1.47.683-1.5 1.5v10.5c.03.817.683 1.47 1.5 1.5h15a1.556 1.556 0 0 0 1.5-1.5V8.25a1.556 1.556 0 0 0-1.5-1.5zm0 12h-15V8.25h15v10.5zm-6-1.5v-.938c0-1.245-2.505-1.875-3.75-1.875s-3.75.63-3.75 1.876v.937h7.5zm-3.75-7.5a1.875 1.875 0 1 0 0 3.75 1.875 1.875 0 0 0 0-3.75zm3.75 0v.75H35v-.75h-4.5zm0 1.5V12H35v-.75h-4.5zm0 1.5v.75h3v-.75h-3z" fill="#9CABB8"/><path d="M29.208 26.042h5.667m-5.667 2.833h3.542m-3.542 4.25h5.667m-5.667 2.833h3.542m-10.625-9.916a.708.708 0 0 1 .708-.709h2.834a.708.708 0 0 1 .708.709v2.833a.708.708 0 0 1-.708.708h-2.834a.708.708 0 0 1-.708-.708v-2.833zm0 7.083a.708.708 0 0 1 .708-.708h2.834a.708.708 0 0 1 .708.708v2.833a.708.708 0 0 1-.708.709h-2.834a.708.708 0 0 1-.708-.709v-2.833z" stroke="#9CABB8" stroke-width="2" stroke-linecap="round" stroke-linejoin="round"/></g><defs><clipPath id="clip0_24051_50045"><path fill="#fff" transform="translate(0 .5)" d="M0 0h57v57H0z"/></clipPath></defs></svg>