<svg width="24" height="24" viewBox="0 0 24 24" fill="none" xmlns="http://www.w3.org/2000/svg"><path d="M19.5 12h-6.399l-3.75-4.5H3.75A2.252 2.252 0 0 0 1.5 9.75v4.5a1.501 1.501 0 0 0 1.5 1.5V21a1.501 1.501 0 0 0 1.5 1.5h3A1.502 1.502 0 0 0 9 21v-5.25H7.5V21h-3v-6.75H3v-4.5A.75.75 0 0 1 3.75 9h4.899l3.75 4.5H19.5a.75.75 0 0 1 .75.75v2.25h-1.5V21H16.5v-4.5H15V21a1.502 1.502 0 0 0 1.5 1.5h2.25a1.502 1.502 0 0 0 1.5-1.5v-3a1.502 1.502 0 0 0 1.5-1.5v-2.25A2.252 2.252 0 0 0 19.5 12z" fill="#000"/><path d="M17.625 11.25a2.625 2.625 0 1 1 0-5.25 2.625 2.625 0 0 1 0 5.25zm0-3.75a1.125 1.125 0 1 0 0 2.25 1.125 1.125 0 0 0 0-2.25zM6 6.75a3 3 0 1 1 0-6 3 3 0 0 1 0 6zm0-4.5a1.5 1.5 0 1 0 0 3 1.5 1.5 0 0 0 0-3z" fill="#000"/></svg>