<svg width="53" height="48" viewBox="0 0 53 48" fill="none" xmlns="http://www.w3.org/2000/svg"><rect x=".5" y=".5" width="52" height="47" rx="8.5" stroke="#007AFF"/><path d="M37 39.004H15a1 1 0 0 1-1-1v-3.5a11.926 11.926 0 0 1 6.5-10.671 5.069 5.069 0 0 1-.48-1.59l-.09-1.37a2.662 2.662 0 0 1-.73-4.157v-.062a.61.61 0 0 0-.11-.323 3.359 3.359 0 0 1 1.681-5.072 1.64 1.64 0 0 0 .865-.689 3.4 3.4 0 0 1 4.166-1.306.578.578 0 0 0 .438-.005 3.4 3.4 0 0 1 4.194 1.354c.191.305.485.533.83.641a3.31 3.31 0 0 1 1.832 1.5 3.384 3.384 0 0 1-.158 3.613.563.563 0 0 0-.088.3v.063a2.659 2.659 0 0 1-.682 4.114l-.078 1.33a5.329 5.329 0 0 1-.51 1.7A11.94 11.94 0 0 1 38 34.504v3.5a1 1 0 0 1-1 1zm-13.71-2h.792l1.207-7.884-.42-.903-.658.523a.863.863 0 0 1-.922.11v8.154zm5.42 0v-8.155a.863.863 0 0 1-.923-.108l-.676-.538-.422.917 1.2 7.884h.82zm-5.845-13.188l.654.34c.18.092.366.17.56.23l.01.003c.32.098.66.151 1.01.151H27c.311 0 .613-.042.901-.12l.017-.005c.2-.055.391-.127.575-.216l.66-.319.05-.036a.994.994 0 0 1 .143-.211c.41-.464.67-1.039.751-1.652l.116-1.9a1 1 0 0 1 .8-.917.66.66 0 0 0 .252-1.183 1 1 0 0 1-.388-.58h-.01l.002-.038a1 1 0 0 1-.019-.193v-.5c0-.254.038-.505.111-.745-.038-.466-.439-.861-.97-.885h-1.473c-1.186 0-2.287-.662-2.792-1.725l-.006-.011-.004-.011a.207.207 0 0 0-.187-.113h-1.347c-1.7 0-3.032 1.307-3.032 2.88v.108c.032.16.05.322.051.486v.506a1 1 0 0 1-.422.815.66.66 0 0 0 .27 1.19 1 1 0 0 1 .831.922l.126 1.961c.088.579.34 1.12.723 1.562.054.063.1.132.137.206zm4.397 1.718c-.08.004-.159.006-.239.006h-1.985a5.04 5.04 0 0 1-.325-.011c.187.265.45.465.756.573a1.566 1.566 0 0 0 1.793-.568zm2.447-.824v13.28l2.75-7.86c.12-.36.03-.75-.24-1.01l-1.36-1.33a.263.263 0 0 1 .04-.409.262.262 0 0 1 .15-.041h1.05c.21 0 .35-.22.26-.41l-1.23-2.62-.004-.008c-.217-.088-.437-.17-.66-.244a4.585 4.585 0 0 1-.756.652zm-5.92 1.232v1.857l1.085-.863-.03-.014a2.563 2.563 0 0 1-1.055-.98zm4.42 1.857v-1.892a2.569 2.569 0 0 1-1.092 1.023l1.092.869zm-7.297-3.516l-.003.007-1.27 2.69c-.09.19.06.41.27.41h1.05c.24 0 .35.29.19.45l-1.36 1.33c-.26.26-.36.65-.23 1l2.73 7.82h.01V24.673a4.58 4.58 0 0 1-.719-.632c-.226.073-.449.154-.668.242z" fill="#030F1A"/></svg>