<svg width="28" height="29" viewBox="0 0 28 29" fill="none" xmlns="http://www.w3.org/2000/svg"><path d="M7.583 8.083h.012m12.822 0h.011M7.583 20.917h.012m7.572-5.25h.011m5.239 5.25h.011M19.833 25H24.5v-4.667m-8.167-.583V25m8.167-8.167h-5.25m-1.05-4.666h4.433c.654 0 .98 0 1.23-.127.22-.112.398-.29.51-.51.127-.25.127-.577.127-1.23V5.867c0-.654 0-.98-.127-1.23a1.166 1.166 0 0 0-.51-.51C23.613 4 23.287 4 22.633 4H18.2c-.653 0-.98 0-1.23.127-.22.112-.398.29-.51.51-.127.25-.127.576-.127 1.23V10.3c0 .653 0 .98.128 1.23.111.22.29.398.51.51.249.127.576.127 1.229.127zm-12.833 0H9.8c.653 0 .98 0 1.23-.127.22-.112.398-.29.51-.51.127-.25.127-.577.127-1.23V5.867c0-.654 0-.98-.127-1.23a1.166 1.166 0 0 0-.51-.51C10.78 4 10.453 4 9.8 4H5.367c-.654 0-.98 0-1.23.127-.22.112-.398.29-.51.51-.127.25-.127.576-.127 1.23V10.3c0 .653 0 .98.127 1.23.112.22.29.398.51.51.25.127.576.127 1.23.127zm0 12.833H9.8c.653 0 .98 0 1.23-.127.22-.112.398-.29.51-.51.127-.25.127-.576.127-1.23V18.7c0-.653 0-.98-.127-1.23a1.166 1.166 0 0 0-.51-.51c-.25-.127-.577-.127-1.23-.127H5.367c-.654 0-.98 0-1.23.128-.22.111-.398.29-.51.51-.127.249-.127.576-.127 1.229v4.433c0 .654 0 .98.127 1.23.112.22.29.398.51.51.25.127.576.127 1.23.127z" stroke="#000" stroke-width="2" stroke-linecap="round" stroke-linejoin="round"/></svg>