<svg width="358" height="358" viewBox="0 0 358 358" fill="none" xmlns="http://www.w3.org/2000/svg"><g clip-path="url(#clip0_27081_33732)"><path d="M347.112 0H10.888C4.875 0 0 4.875 0 10.888v336.224C0 353.125 4.875 358 10.888 358h336.224c6.013 0 10.888-4.875 10.888-10.888V10.888C358 4.875 353.125 0 347.112 0z" fill="#fff"/><path d="M40.263 29.988H29.986v10.277h10.277V29.988z" fill="#000"/><path d="M50.54 29.988H40.262v10.277h10.276V29.988zm10.276 0H50.54v10.277h10.277V29.988z" fill="#000"/><path d="M71.093 29.988H60.816v10.277h10.277V29.988z" fill="#000"/><path d="M81.37 29.988H71.092v10.277h10.276V29.988z" fill="#000"/><path d="M91.646 29.988H81.369v10.277h10.277V29.988zm10.276 0H91.646v10.277h10.276V29.988zm20.554 0h-10.277v10.277h10.277V29.988zm30.829 0h-10.276v10.277h10.276V29.988zm10.277 0h-10.277v10.277h10.277V29.988zm10.277 0h-10.277v10.277h10.277V29.988zm51.382 0h-10.276v10.277h10.276V29.988zm41.107 0h-10.277v10.277h10.277V29.988zm10.276 0h-10.276v10.277h10.276V29.988zm10.277 0h-10.277v10.277h10.277V29.988zm10.277 0h-10.277v10.277h10.277V29.988zm10.276 0h-10.276v10.277h10.276V29.988zm10.277 0h-10.277v10.277h10.277V29.988zm10.276 0h-10.276v10.277h10.276V29.988zM40.263 40.265H29.986V50.54h10.277V40.266zm61.659 0H91.646V50.54h10.276V40.266zm30.83 0h-10.276V50.54h10.276V40.266zm10.277 0h-10.277V50.54h10.277V40.266zm30.83 0h-10.277V50.54h10.277V40.266zm10.276 0h-10.276V50.54h10.276V40.266zm30.83 0h-10.277V50.54h10.277V40.266zm30.83 0h-10.277V50.54h10.277V40.266zm20.553 0h-10.277V50.54h10.277V40.266zm61.659 0h-10.276V50.54h10.276V40.266zM40.263 50.541H29.986v10.277h10.277V50.542zm20.553 0H50.54v10.277h10.277V50.542z" fill="#000"/><path d="M71.093 50.541H60.816v10.277h10.277V50.542z" fill="#000"/><path d="M81.37 50.541H71.092v10.277h10.276V50.542zm20.552 0H91.646v10.277h10.276V50.542zm20.554 0h-10.277v10.277h10.277V50.542zm51.383 0h-10.277v10.277h10.277V50.542zm20.553 0h-10.277v10.277h10.277V50.542zm20.553 0h-10.277v10.277h10.277V50.542zm10.276 0h-10.276v10.277h10.276V50.542zm10.277 0h-10.277v10.277h10.277V50.542zm10.277 0h-10.277v10.277h10.277V50.542zm20.553 0h-10.277v10.277h10.277V50.542zm20.553 0h-10.277v10.277h10.277V50.542zm10.277 0h-10.277v10.277h10.277V50.542zm10.276 0h-10.276v10.277h10.276V50.542zm20.553 0h-10.276v10.277h10.276V50.542zM40.263 60.818H29.986v10.277h10.277V60.818zm20.553 0H50.54v10.277h10.277V60.818z" fill="#000"/><path d="M71.093 60.818H60.816v10.277h10.277V60.818z" fill="#000"/><path d="M81.37 60.818H71.092v10.277h10.276V60.818zm20.552 0H91.646v10.277h10.276V60.818zm20.554 0h-10.277v10.277h10.277V60.818zm10.276 0h-10.276v10.277h10.276V60.818zm10.277 0h-10.277v10.277h10.277V60.818zm10.276 0h-10.276v10.277h10.276V60.818zm10.277 0h-10.277v10.277h10.277V60.818zm20.553 0h-10.276v10.277h10.276V60.818zm10.277 0h-10.277v10.277h10.277V60.818zm10.276 0h-10.276v10.277h10.276V60.818zm30.83 0h-10.277v10.277h10.277V60.818zm30.83 0h-10.277v10.277h10.277V60.818zm20.553 0h-10.277v10.277h10.277V60.818zm10.277 0h-10.277v10.277h10.277V60.818zm10.276 0h-10.276v10.277h10.276V60.818zm20.553 0h-10.276v10.277h10.276V60.818zM40.263 71.095H29.986V81.37h10.277V71.095zm20.553 0H50.54V81.37h10.277V71.095z" fill="#000"/><path d="M71.093 71.095H60.816V81.37h10.277V71.095z" fill="#000"/><path d="M81.37 71.095H71.092V81.37h10.276V71.095zm20.552 0H91.646V81.37h10.276V71.095zm30.83 0h-10.276V81.37h10.276V71.095zm10.277 0h-10.277V81.37h10.277V71.095zm51.383 0h-10.277V81.37h10.277V71.095zm20.553 0h-10.277V81.37h10.277V71.095zm51.383 0h-10.277V81.37h10.277V71.095zm20.553 0h-10.277V81.37h10.277V71.095zm10.277 0h-10.277V81.37h10.277V71.095zm10.276 0h-10.276V81.37h10.276V71.095zm20.553 0h-10.276V81.37h10.276V71.095zM40.263 81.371H29.986v10.277h10.277V81.37zm61.659 0H91.646v10.277h10.276V81.37zm20.554 0h-10.277v10.277h10.277V81.37zm30.829 0h-10.276v10.277h10.276V81.37zm10.277 0h-10.277v10.277h10.277V81.37zm30.83 0h-10.277v10.277h10.277V81.37zm30.829 0h-10.276v10.277h10.276V81.37zm41.107 0h-10.277v10.277h10.277V81.37zm61.659 0h-10.276v10.277h10.276V81.37zM40.263 91.648H29.986v10.276h10.277V91.648z" fill="#000"/><path d="M50.54 91.648H40.262v10.276h10.276V91.648zm10.276 0H50.54v10.276h10.277V91.648z" fill="#000"/><path d="M71.093 91.648H60.816v10.276h10.277V91.648z" fill="#000"/><path d="M81.37 91.648H71.092v10.276h10.276V91.648z" fill="#000"/><path d="M91.646 91.648H81.369v10.276h10.277V91.648zm10.276 0H91.646v10.276h10.276V91.648zm20.554 0h-10.277v10.276h10.277V91.648zm20.553 0h-10.277v10.276h10.277V91.648zm20.553 0h-10.277v10.276h10.277V91.648zm20.553 0h-10.276v10.276h10.276V91.648zm20.553 0h-10.276v10.276h10.276V91.648zm20.553 0h-10.276v10.276h10.276V91.648zm20.554 0h-10.277v10.276h10.277V91.648zm20.553 0h-10.277v10.276h10.277V91.648zm10.276 0h-10.276v10.276h10.276V91.648zm10.277 0h-10.277v10.276h10.277V91.648zm10.277 0h-10.277v10.276h10.277V91.648zm10.276 0h-10.276v10.276h10.276V91.648zm10.277 0h-10.277v10.276h10.277V91.648zm10.276 0h-10.276v10.276h10.276V91.648zm-205.531 10.276h-10.277v10.277h10.277v-10.277zm10.276 0h-10.276v10.277h10.276v-10.277zm10.277 0h-10.277v10.277h10.277v-10.277zm20.553 0h-10.277v10.277h10.277v-10.277zm10.277 0h-10.277v10.277h10.277v-10.277zm10.276 0h-10.276v10.277h10.276v-10.277zm10.277 0h-10.277v10.277h10.277v-10.277zm10.276 0h-10.276v10.277h10.276v-10.277zm10.277 0h-10.277v10.277h10.277v-10.277zm20.553 0h-10.277v10.277h10.277v-10.277zm10.277 0h-10.277v10.277h10.277v-10.277zM40.263 112.201H29.986v10.277h10.277v-10.277z" fill="#000"/><path d="M50.54 112.201H40.262v10.277h10.276v-10.277zm20.553 0H60.816v10.277h10.277v-10.277zm30.829 0H91.646v10.277h10.276v-10.277zm10.277 0h-10.277v10.277h10.277v-10.277zm20.553 0h-10.276v10.277h10.276v-10.277zm41.107 0h-10.277v10.277h10.277v-10.277z" fill="#000"/><path d="M184.135 112.201h-10.276v10.277h10.276v-10.277zm20.553 0h-10.276v10.277h10.276v-10.277zm10.277 0h-10.277v10.277h10.277v-10.277zm20.553 0h-10.277v10.277h10.277v-10.277zm10.277 0h-10.277v10.277h10.277v-10.277zm10.276 0h-10.276v10.277h10.276v-10.277zm10.277 0h-10.277v10.277h10.277v-10.277zm10.276 0h-10.276v10.277h10.276v-10.277zm20.554 0h-10.277v10.277h10.277v-10.277zm10.276 0h-10.276v10.277h10.276v-10.277zm20.553 0h-10.276v10.277h10.276v-10.277zM71.093 122.478H60.816v10.276h10.277v-10.276zm41.106 0h-10.277v10.276h10.277v-10.276zm20.553 0h-10.276v10.276h10.276v-10.276zm10.277 0h-10.277v10.276h10.277v-10.276zm61.659 0h-10.276v10.276h10.276v-10.276zm20.553 0h-10.276v10.276h10.276v-10.276zm10.277 0h-10.277v10.276h10.277v-10.276zm41.106 0h-10.276v10.276h10.276v-10.276zm41.107 0h-10.277v10.276h10.277v-10.276zm10.276 0h-10.276v10.276h10.276v-10.276zM40.263 132.754H29.986v10.277h10.277v-10.277zm20.553 0H50.54v10.277h10.277v-10.277zm30.83 0H81.369v10.277h10.277v-10.277zm10.276 0H91.646v10.277h10.276v-10.277zm20.554 0h-10.277v10.277h10.277v-10.277zm20.553 0h-10.277v10.277h10.277v-10.277zm20.553 0h-10.277v10.277h10.277v-10.277zm20.553 0h-10.276v10.277h10.276v-10.277zm10.277 0h-10.277v10.277h10.277v-10.277zm20.553 0h-10.277v10.277h10.277v-10.277zm20.553 0h-10.277v10.277h10.277v-10.277zm10.277 0h-10.277v10.277h10.277v-10.277zm20.553 0h-10.277v10.277h10.277v-10.277zm20.553 0h-10.277v10.277h10.277v-10.277zm10.277 0h-10.277v10.277h10.277v-10.277zm20.553 0h-10.277v10.277h10.277v-10.277zM50.54 143.031H40.262v10.276h10.276v-10.276zm10.276 0H50.54v10.276h10.277v-10.276zm20.554 0H71.092v10.276h10.276v-10.276z" fill="#000"/><path d="M91.646 143.031H81.369v10.276h10.277v-10.276zm41.106 0h-10.276v10.276h10.276v-10.276zm20.553 0h-10.276v10.276h10.276v-10.276zm10.277 0h-10.277v10.276h10.277v-10.276zm10.277 0h-10.277v10.276h10.277v-10.276z" fill="#000"/><path d="M184.135 143.031h-10.276v10.276h10.276v-10.276zm10.277 0h-10.277v10.276h10.277v-10.276zm30.829 0h-10.276v10.276h10.276v-10.276zm10.277 0h-10.277v10.276h10.277v-10.276zm10.277 0h-10.277v10.276h10.277v-10.276zm10.276 0h-10.276v10.276h10.276v-10.276zm10.277 0h-10.277v10.276h10.277v-10.276zm10.276 0h-10.276v10.276h10.276v-10.276zm10.277 0h-10.277v10.276h10.277v-10.276zm41.106 0h-10.276v10.276h10.276v-10.276zM60.816 153.307H50.54v10.277h10.277v-10.277zm41.106 0H91.646v10.277h10.276v-10.277zm10.277 0h-10.277v10.277h10.277v-10.277zm41.106 0h-10.276v10.277h10.276v-10.277z" fill="#000"/><path d="M173.859 153.307h-10.277v10.277h10.277v-10.277z" fill="#000"/><path d="M184.135 153.307h-10.276v10.277h10.276v-10.277zm10.277 0h-10.277v10.277h10.277v-10.277zm10.276 0h-10.276v10.277h10.276v-10.277zm10.277 0h-10.277v10.277h10.277v-10.277zm20.553 0h-10.277v10.277h10.277v-10.277zm10.277 0h-10.277v10.277h10.277v-10.277zm10.276 0h-10.276v10.277h10.276v-10.277zm20.553 0h-10.276v10.277h10.276v-10.277zm10.277 0h-10.277v10.277h10.277v-10.277zm10.277 0h-10.277v10.277h10.277v-10.277zm10.276 0h-10.276v10.277h10.276v-10.277zM40.263 163.584H29.986v10.276h10.277v-10.276z" fill="#000"/><path d="M50.54 163.584H40.262v10.276h10.276v-10.276zm41.106 0H81.369v10.276h10.277v-10.276zm30.83 0h-10.277v10.276h10.277v-10.276zm10.276 0h-10.276v10.276h10.276v-10.276zm10.277 0h-10.277v10.276h10.277v-10.276zm41.106 0h-10.276v10.276h10.276v-10.276zm41.106 0h-10.276v10.276h10.276v-10.276zm10.277 0h-10.277v10.276h10.277v-10.276zm10.277 0h-10.277v10.276h10.277v-10.276zm30.829 0h-10.276v10.276h10.276v-10.276zm51.383 0h-10.276v10.276h10.276v-10.276zM40.263 173.86H29.986v10.277h10.277V173.86zm30.83 0H60.816v10.277h10.277V173.86z" fill="#000"/><path d="M81.37 173.86H71.092v10.277h10.276V173.86zm20.552 0H91.646v10.277h10.276V173.86zm30.83 0h-10.276v10.277h10.276V173.86zm30.83 0h-10.277v10.277h10.277V173.86zm10.277 0h-10.277v10.277h10.277V173.86zm20.553 0h-10.277v10.277h10.277V173.86zm10.276 0h-10.276v10.277h10.276V173.86zm10.277 0h-10.277v10.277h10.277V173.86zm10.276 0h-10.276v10.277h10.276V173.86zm10.277 0h-10.277v10.277h10.277V173.86zm10.277 0h-10.277v10.277h10.277V173.86zm20.553 0h-10.277v10.277h10.277V173.86zm10.276 0h-10.276v10.277h10.276V173.86zm51.383 0h-10.276v10.277h10.276V173.86zM40.263 184.137H29.986v10.277h10.277v-10.277zm30.83 0H60.816v10.277h10.277v-10.277zm20.553 0H81.369v10.277h10.277v-10.277zm20.553 0h-10.277v10.277h10.277v-10.277zm10.277 0h-10.277v10.277h10.277v-10.277zm10.276 0h-10.276v10.277h10.276v-10.277zm30.83 0h-10.277v10.277h10.277v-10.277zm20.553 0h-10.276v10.277h10.276v-10.277zm20.553 0h-10.276v10.277h10.276v-10.277zm20.553 0h-10.276v10.277h10.276v-10.277zm30.83 0h-10.276v10.277h10.276v-10.277zm10.277 0h-10.277v10.277h10.277v-10.277zm10.276 0h-10.276v10.277h10.276v-10.277zm41.107 0h-10.277v10.277h10.277v-10.277zM50.54 194.414H40.262v10.276h10.276v-10.276zm10.276 0H50.54v10.276h10.277v-10.276zm20.554 0H71.092v10.276h10.276v-10.276z" fill="#000"/><path d="M91.646 194.414H81.369v10.276h10.277v-10.276zm10.276 0H91.646v10.276h10.276v-10.276zm10.277 0h-10.277v10.276h10.277v-10.276zm30.83 0h-10.277v10.276h10.277v-10.276zm10.276 0h-10.276v10.276h10.276v-10.276zm20.554 0h-10.277v10.276h10.277v-10.276z" fill="#000"/><path d="M184.135 194.414h-10.276v10.276h10.276v-10.276zm10.277 0h-10.277v10.276h10.277v-10.276zm10.276 0h-10.276v10.276h10.276v-10.276zm10.277 0h-10.277v10.276h10.277v-10.276zm10.276 0h-10.276v10.276h10.276v-10.276zm20.554 0h-10.277v10.276h10.277v-10.276zm10.276 0h-10.276v10.276h10.276v-10.276zm30.83 0h-10.277v10.276h10.277v-10.276zM50.54 204.69H40.262v10.277h10.276V204.69zm20.553 0H60.816v10.277h10.277V204.69zm20.553 0H81.369v10.277h10.277V204.69zm20.553 0h-10.277v10.277h10.277V204.69zm20.553 0h-10.276v10.277h10.276V204.69zm20.553 0h-10.276v10.277h10.276V204.69zm20.554 0h-10.277v10.277h10.277V204.69zm30.829 0h-10.276v10.277h10.276V204.69zm10.277 0h-10.277v10.277h10.277V204.69zm10.276 0h-10.276v10.277h10.276V204.69zm41.107 0h-10.277v10.277h10.277V204.69zm41.106 0h-10.276v10.277h10.276V204.69zm10.277 0h-10.277v10.277h10.277V204.69zm10.276 0h-10.276v10.277h10.276V204.69zM71.093 214.967H60.816v10.276h10.277v-10.276zm20.553 0H81.369v10.276h10.277v-10.276zm10.276 0H91.646v10.276h10.276v-10.276zm10.277 0h-10.277v10.276h10.277v-10.276zm20.553 0h-10.276v10.276h10.276v-10.276zm10.277 0h-10.277v10.276h10.277v-10.276zm71.936 0h-10.277v10.276h10.277v-10.276zm30.83 0h-10.277v10.276h10.277v-10.276zm10.276 0h-10.276v10.276h10.276v-10.276zm20.553 0h-10.276v10.276h10.276v-10.276zm10.277 0h-10.277v10.276h10.277v-10.276zm10.277 0h-10.277v10.276h10.277v-10.276zm10.276 0h-10.276v10.276h10.276v-10.276zm10.277 0h-10.277v10.276h10.277v-10.276zm10.276 0h-10.276v10.276h10.276v-10.276zM40.263 225.243H29.986v10.277h10.277v-10.277z" fill="#000"/><path d="M71.093 225.243H60.816v10.277h10.277v-10.277z" fill="#000"/><path d="M81.37 225.243H71.092v10.277h10.276v-10.277z" fill="#000"/><path d="M91.646 225.243H81.369v10.277h10.277v-10.277zm41.106 0h-10.276v10.277h10.276v-10.277zm41.107 0h-10.277v10.277h10.277v-10.277z" fill="#000"/><path d="M184.135 225.243h-10.276v10.277h10.276v-10.277zm10.277 0h-10.277v10.277h10.277v-10.277zm10.276 0h-10.276v10.277h10.276v-10.277zm61.66 0h-10.277v10.277h10.277v-10.277zm30.83 0h-10.277v10.277h10.277v-10.277zm30.829 0h-10.276v10.277h10.276v-10.277zM40.263 235.52H29.986v10.277h10.277V235.52zm20.553 0H50.54v10.277h10.277V235.52zm41.106 0H91.646v10.277h10.276V235.52zm10.277 0h-10.277v10.277h10.277V235.52zm20.553 0h-10.276v10.277h10.276V235.52zm30.83 0h-10.277v10.277h10.277V235.52zm20.553 0h-10.276v10.277h10.276V235.52zm10.277 0h-10.277v10.277h10.277V235.52z" fill="#000"/><path d="M204.688 235.52h-10.276v10.277h10.276V235.52zm20.553 0h-10.276v10.277h10.276V235.52zm20.554 0h-10.277v10.277h10.277V235.52zm10.276 0h-10.276v10.277h10.276V235.52zm10.277 0h-10.277v10.277h10.277V235.52zm10.276 0h-10.276v10.277h10.276V235.52zm10.277 0h-10.277v10.277h10.277V235.52zm20.553 0h-10.276v10.277h10.276V235.52zm10.277 0h-10.277v10.277h10.277V235.52zm10.276 0h-10.276v10.277h10.276V235.52zm-195.255 10.277h-10.276v10.276h10.276v-10.276zm10.277 0h-10.277v10.276h10.277v-10.276zm10.276 0h-10.276v10.276h10.276v-10.276zm30.83 0h-10.276v10.276h10.276v-10.276z" fill="#000"/><path d="M194.412 245.797h-10.277v10.276h10.277v-10.276zm51.383 0h-10.277v10.276h10.277v-10.276zm41.106 0h-10.277v10.276h10.277v-10.276zm10.277 0h-10.277v10.276h10.277v-10.276zm20.553 0h-10.277v10.276h10.277v-10.276zm10.276 0h-10.276v10.276h10.276v-10.276zM40.263 256.073H29.986v10.277h10.277v-10.277z" fill="#000"/><path d="M50.54 256.073H40.262v10.277h10.276v-10.277zm10.276 0H50.54v10.277h10.277v-10.277z" fill="#000"/><path d="M71.093 256.073H60.816v10.277h10.277v-10.277z" fill="#000"/><path d="M81.37 256.073H71.092v10.277h10.276v-10.277z" fill="#000"/><path d="M91.646 256.073H81.369v10.277h10.277v-10.277zm10.276 0H91.646v10.277h10.276v-10.277zm20.554 0h-10.277v10.277h10.277v-10.277zm10.276 0h-10.276v10.277h10.276v-10.277zm20.553 0h-10.276v10.277h10.276v-10.277zm20.554 0h-10.277v10.277h10.277v-10.277zm51.382 0h-10.276v10.277h10.276v-10.277zm10.277 0h-10.277v10.277h10.277v-10.277zm10.277 0h-10.277v10.277h10.277v-10.277zm20.553 0h-10.277v10.277h10.277v-10.277zm20.553 0h-10.277v10.277h10.277v-10.277zm41.106 0h-10.276v10.277h10.276v-10.277zM40.263 266.35H29.986v10.276h10.277V266.35zm61.659 0H91.646v10.276h10.276V266.35zm30.83 0h-10.276v10.276h10.276V266.35zm10.277 0h-10.277v10.276h10.277V266.35zm10.276 0h-10.276v10.276h10.276V266.35zm10.277 0h-10.277v10.276h10.277V266.35zm41.106 0h-10.276v10.276h10.276V266.35zm10.277 0h-10.277v10.276h10.277V266.35zm10.276 0h-10.276v10.276h10.276V266.35zm20.554 0h-10.277v10.276h10.277V266.35zm41.106 0h-10.277v10.276h10.277V266.35zm20.553 0h-10.276v10.276h10.276V266.35zm20.553 0h-10.276v10.276h10.276V266.35z" fill="#000"/><path d="M40.263 276.626H29.986v10.277h10.277v-10.277zm20.553 0H50.54v10.277h10.277v-10.277z" fill="#000"/><path d="M71.093 276.626H60.816v10.277h10.277v-10.277z" fill="#000"/><path d="M81.37 276.626H71.092v10.277h10.276v-10.277zm20.552 0H91.646v10.277h10.276v-10.277zm30.83 0h-10.276v10.277h10.276v-10.277zm51.383 0h-10.276v10.277h10.276v-10.277zm10.277 0h-10.277v10.277h10.277v-10.277z" fill="#000"/><path d="M204.688 276.626h-10.276v10.277h10.276v-10.277zm20.553 0h-10.276v10.277h10.276v-10.277zm20.554 0h-10.277v10.277h10.277v-10.277zm10.276 0h-10.276v10.277h10.276v-10.277zm10.277 0h-10.277v10.277h10.277v-10.277zm10.276 0h-10.276v10.277h10.276v-10.277zm10.277 0h-10.277v10.277h10.277v-10.277zm10.277 0h-10.277v10.277h10.277v-10.277zm20.553 0h-10.277v10.277h10.277v-10.277zm10.276 0h-10.276v10.277h10.276v-10.277zM40.263 286.903H29.986v10.277h10.277v-10.277zm20.553 0H50.54v10.277h10.277v-10.277z" fill="#000"/><path d="M71.093 286.903H60.816v10.277h10.277v-10.277z" fill="#000"/><path d="M81.37 286.903H71.092v10.277h10.276v-10.277zm20.552 0H91.646v10.277h10.276v-10.277zm20.554 0h-10.277v10.277h10.277v-10.277zm41.106 0h-10.277v10.277h10.277v-10.277zm41.106 0h-10.276v10.277h10.276v-10.277zm10.277 0h-10.277v10.277h10.277v-10.277zm30.83 0h-10.277v10.277h10.277v-10.277zm10.276 0h-10.276v10.277h10.276v-10.277zm10.277 0h-10.277v10.277h10.277v-10.277zm10.276 0h-10.276v10.277h10.276v-10.277zm20.554 0h-10.277v10.277h10.277v-10.277zm20.553 0h-10.277v10.277h10.277v-10.277zM40.263 297.18H29.986v10.276h10.277V297.18zm20.553 0H50.54v10.276h10.277V297.18z" fill="#000"/><path d="M71.093 297.18H60.816v10.276h10.277V297.18z" fill="#000"/><path d="M81.37 297.18H71.092v10.276h10.276V297.18zm20.552 0H91.646v10.276h10.276V297.18zm41.107 0h-10.277v10.276h10.277V297.18zm20.553 0h-10.277v10.276h10.277V297.18zm10.277 0h-10.277v10.276h10.277V297.18zm10.276 0h-10.276v10.276h10.276V297.18zm30.83 0h-10.277v10.276h10.277V297.18zm10.276 0h-10.276v10.276h10.276V297.18zm10.277 0h-10.277v10.276h10.277V297.18zm10.277 0h-10.277v10.276h10.277V297.18zm10.276 0h-10.276v10.276h10.276V297.18zm30.83 0h-10.277v10.276h10.277V297.18zm20.553 0h-10.276v10.276h10.276V297.18zM40.263 307.456H29.986v10.277h10.277v-10.277zm61.659 0H91.646v10.277h10.276v-10.277zm20.554 0h-10.277v10.277h10.277v-10.277zm20.553 0h-10.277v10.277h10.277v-10.277zm30.83 0h-10.277v10.277h10.277v-10.277zm10.276 0h-10.276v10.277h10.276v-10.277zm10.277 0h-10.277v10.277h10.277v-10.277zm10.276 0h-10.276v10.277h10.276v-10.277zm10.277 0h-10.277v10.277h10.277v-10.277zm41.106 0h-10.276v10.277h10.276v-10.277zm10.277 0h-10.277v10.277h10.277v-10.277zm20.553 0h-10.277v10.277h10.277v-10.277zm10.277 0h-10.277v10.277h10.277v-10.277zm20.553 0h-10.277v10.277h10.277v-10.277zm10.276 0h-10.276v10.277h10.276v-10.277zM40.263 317.733H29.986v10.276h10.277v-10.276z" fill="#000"/><path d="M50.54 317.733H40.262v10.276h10.276v-10.276zm10.276 0H50.54v10.276h10.277v-10.276z" fill="#000"/><path d="M71.093 317.733H60.816v10.276h10.277v-10.276z" fill="#000"/><path d="M81.37 317.733H71.092v10.276h10.276v-10.276z" fill="#000"/><path d="M91.646 317.733H81.369v10.276h10.277v-10.276zm10.276 0H91.646v10.276h10.276v-10.276zm20.554 0h-10.277v10.276h10.277v-10.276zm10.276 0h-10.276v10.276h10.276v-10.276zm20.553 0h-10.276v10.276h10.276v-10.276zm20.554 0h-10.277v10.276h10.277v-10.276z" fill="#000"/><path d="M184.135 317.733h-10.276v10.276h10.276v-10.276zm71.936 0h-10.276v10.276h10.276v-10.276zm20.553 0h-10.276v10.276h10.276v-10.276zm10.277 0h-10.277v10.276h10.277v-10.276zm20.553 0h-10.276v10.276h10.276v-10.276z" fill="#000"/></g><rect x="1.361" y="1.361" width="355.278" height="355.278" rx="9.527" stroke="#F2F2F2" stroke-width="2.722"/><defs><clipPath id="clip0_27081_33732"><rect width="358" height="358" rx="10.888" fill="#fff"/></clipPath></defs></svg>