<svg xmlns="http://www.w3.org/2000/svg" width="104" height="36" viewBox="0 0 104 36" fill="none"><g clip-path="url(#clip0_14675_27449)"><path d="M41.294 18.085l2.635 3.992c.51.765.424 1.02-.51 1.02h-.765c-.935 0-1.275-.17-1.87-1.02l-2.463-3.822h-1.87v3.568c0 .934-.255 1.189-1.19 1.189h-.339c-.935 0-1.19-.255-1.19-1.19v-9.514c0-1.699.765-2.464 2.465-2.464h3.313c2.974 0 4.504 1.445 4.504 4.248 0 2.209-.935 3.568-2.72 3.993zm-4.248-5.692c-.425 0-.595.17-.595.595v2.718h3.06c1.189 0 1.783-.51 1.783-1.699 0-1.104-.51-1.699-1.784-1.699h-2.464v.085zm16.994 7.646c0 2.208-1.36 3.313-4.419 3.313-3.058 0-4.418-1.105-4.418-3.228 0-2.124 1.36-3.143 4.163-3.143h2.04v-.765c0-1.02-.68-1.274-2.124-1.274-.595 0-1.19 0-1.785.085-.934.17-1.104-.085-1.104-.935v-.085c0-.85.255-1.104 1.104-1.274.51-.085 1.02-.085 1.615-.085 3.228 0 4.928 1.02 4.928 3.483v3.908zm-2.634-1.105h-2.124c-.935 0-1.445.34-1.445 1.105.085 1.02.765 1.104 1.7 1.02 1.02 0 1.699-.086 1.784-1.19v-.935h.085zM56.249 8.74c.595-.594 1.614-.594 2.209 0 .595.595.595 1.614 0 2.209s-1.614.595-2.21 0c-.594-.595-.594-1.614 0-2.209zm-.17 5.267c0-.934.255-1.104 1.105-1.104h.34c.934 0 1.104.255 1.104 1.104v7.9c0 .935-.255 1.105-1.105 1.105h-.34c-.934 0-1.104-.255-1.104-1.104v-7.9zm4.503 7.476c0-.935.255-1.19 1.105-.935.764.255 1.699.34 2.803.34 1.19 0 1.53-.085 1.53-.594 0-.34-.17-.51-1.275-.935l-1.869-.85c-1.444-.594-2.124-1.359-2.124-2.888 0-2.039 1.19-2.973 4.163-2.973.765 0 1.53.085 2.124.255.935.255 1.105.425 1.105 1.359v.17c0 .934-.255 1.104-1.105.934a9.262 9.262 0 0 0-2.209-.255c-1.19 0-1.529.17-1.529.51 0 .34.17.425.85.68l2.124.85c1.614.594 2.379 1.444 2.379 3.058 0 2.123-1.275 3.058-4.418 3.058-1.02 0-1.87-.085-2.55-.255-.934-.255-1.104-.425-1.104-1.36v-.17zM79.36 17.83c-.086.935-.34 1.104-1.36 1.104h-5.183v.34c0 1.02.764 1.53 2.634 1.53.764 0 1.529-.086 2.464-.256.85-.17 1.104 0 1.104.935v.255c0 .934-.17 1.104-1.104 1.359-.68.17-1.445.255-2.464.255-3.654 0-5.353-1.36-5.353-4.418V17.32c0-3.058 1.614-4.587 4.758-4.587 2.974 0 4.418 1.444 4.418 4.417.17.17.085.425.085.68zm-6.458-1.02h3.993v-.34c0-1.019-.68-1.528-2.04-1.528-1.359 0-1.953.51-1.953 1.529v.34zm8.496-5.776c0-.935.255-1.19 1.19-1.19h.34c.934 0 1.19.255 1.19 1.19v7.39c0 1.53.85 2.38 2.633 2.38 1.7 0 2.634-.765 2.634-2.38v-7.39c0-.935.255-1.19 1.19-1.19h.34c.934 0 1.19.255 1.19 1.19v7.39c0 3.399-2.04 4.928-5.354 4.928-3.313 0-5.353-1.53-5.353-4.927v-7.391zm12.916 6.116c0-3.058 1.955-4.417 4.844-4.417 3.228 0 4.843 1.444 4.843 4.417v1.615c0 2.973-1.445 4.587-4.249 4.587-1.274 0-2.209-.425-2.804-1.19v3.823c0 .935-.254 1.105-1.104 1.105h-.34c-.935 0-1.105-.255-1.105-1.105V17.15h-.085zm7.053 0c0-1.444-.425-2.038-2.21-2.038-1.699 0-2.209.594-2.209 2.038v1.615c0 1.444.51 2.038 2.21 2.038 1.699 0 2.209-.594 2.209-2.038V17.15z" fill="#092F4D"/><path d="M6.797 15.282a2.865 2.865 0 0 0 2.889-2.889 2.865 2.865 0 0 0-2.889-2.888 2.865 2.865 0 0 0-2.889 2.888c0 1.53 1.275 2.889 2.89 2.889z" fill="#F69621"/><path d="M13.425 24.796a2.284 2.284 0 0 1-2.294 2.294h-.085c-1.275-.085-2.21-1.105-2.21-2.379 0-2.039-.594-3.483-1.614-3.908-.17-.085-.34-.085-.425-.085-.17 0-.34 0-.424.085-1.02.51-1.615 1.87-1.615 3.908 0 1.274-1.02 2.294-2.209 2.379h-.255A2.321 2.321 0 0 1 0 24.796c0-8.665 6.627-8.75 6.712-8.75.085 0 6.713.085 6.713 8.75z" fill="#092F4D"/><path d="M28.123 24.456c-.084-5.012-1.444-8.665-4.248-10.958-2.209-1.784-4.588-2.124-5.268-2.124h-.425c-.68 0-3.058.34-5.268 2.124-2.719 2.293-4.163 5.946-4.248 10.958v.34a2.284 2.284 0 0 0 2.294 2.294 2.284 2.284 0 0 0 2.294-2.294c0-8.24 4.419-8.75 5.013-8.75.595 0 5.013.595 5.013 8.75a2.284 2.284 0 0 0 2.294 2.294 2.284 2.284 0 0 0 2.295-2.294c.17.085.255-.085.255-.34z" fill="#EE4923"/><path d="M18.439 10.44c2.719 0 5.013-2.21 5.013-5.013 0-2.718-2.21-5.012-5.013-5.012-2.72 0-5.013 2.209-5.013 5.012a4.968 4.968 0 0 0 5.013 5.012z" fill="#009D9D"/><path d="M20.817 13.752a2.284 2.284 0 0 1-2.294 2.294c-.17 0-5.013.255-5.013 8.75a2.284 2.284 0 0 1-2.294 2.294 2.284 2.284 0 0 1-2.294-2.294v-.34c.085-5.012 1.444-8.665 4.248-10.958 2.21-1.784 4.589-2.124 5.268-2.124h.425c.935.085 1.954 1.104 1.954 2.378z" fill="#F69621"/></g><defs><clipPath id="clip0_14675_27449"><path fill="#fff" transform="translate(0 .5)" d="M0 0h104v35H0z"/></clipPath></defs></svg>