<svg width="123" height="42" viewBox="0 0 123 42" fill="none" xmlns="http://www.w3.org/2000/svg"><g clip-path="url(#clip0_13472_35043)" fill="#9BAAB7"><path d="M97.43 34.54c0-.4.1-.5.5-.5h.17c.4 0 .5.1.5.5v1.7c.29-.31.78-.51 1.36-.51.71 0 1.52.33 1.52 1.54v2.55c0 .4-.1.5-.5.5h-.17c-.4 0-.5-.1-.5-.5v-2.34c0-.5-.29-.65-.75-.65-.52 0-.96.21-.96 1.08v1.9c0 .4-.1.5-.5.5h-.17c-.4 0-.5-.1-.5-.5v-5.28.01zm6.09 4.08c0 .46.13.71.86.71s.85-.25.85-.71v-2.28c0-.4.1-.5.5-.5h.17c.4 0 .5.1.5.5v2.28c0 1.2-.61 1.81-2.01 1.81s-2.03-.64-2.03-1.81v-2.28c0-.4.1-.5.5-.5h.17c.4 0 .5.1.5.5v2.28h-.01zm3.75-4.08c0-.4.1-.5.5-.5h.16c.4 0 .5.1.5.5v1.7c.23-.31.61-.51 1.22-.51 1.24 0 1.87.74 1.87 2.02v.72c0 1.41-.79 1.96-2.13 1.96-1.18 0-2.12-.56-2.12-1.96v-3.93zm3.08 3.18c0-.57-.15-.89-.95-.89-.8 0-.97.31-.97.89v.72c0 .57.17.89.97.89.8 0 .95-.31.95-.89v-.72zm4.38 1.54c-.21.04-.42.06-.62.05-.33 0-.55-.15-.56-.57v-1.81h1.01c.4 0 .5-.1.5-.5v-.1c0-.4-.1-.5-.5-.5h-1.01v-.67c0-.4-.1-.5-.5-.5h-.16c-.4 0-.5.1-.5.5v.67l-.01 2.87v.24c0 .08 0 .16.03.24.16.93.83 1.23 1.68 1.23.21 0 .42-.01.62-.05.39-.08.49-.23.49-.64v-.1c0-.4-.1-.44-.49-.37m5-1.23c-.05.41-.17.49-.58.49h-2.26v.13c0 .47.34.68 1.17.68.36 0 .72-.05 1.08-.13.39-.08.47.03.47.43v.1c0 .4-.08.48-.47.58-.36.08-.72.12-1.09.12-1.58 0-2.33-.57-2.33-1.96v-.72c0-1.16.53-2.02 2.08-2.02 1.3 0 1.95.66 1.95 1.94 0 .12 0 .23-.02.35m-2.84-.46h1.76v-.13c0-.45-.3-.68-.88-.68-.58 0-.87.23-.87.68v.13h-.01zm3.64-3.01c0-.4.1-.5.5-.5h.16c.4 0 .5.1.5.5v4.16c0 .47.12.6.39.6h.05c.23 0 .3.05.3.41v.17c0 .36-.07.46-.3.5-.09.02-.18.02-.27.02-.76 0-1.33-.42-1.33-1.44v-4.42zm-30.14 3.85c-.44-.33-.66-.68-.69-1.02h-1.69v2.55c0 1.36.58 1.6 1.35 1.01l2.16-1.66-1.13-.87v-.01zm5.06-1.02H90c.04.3.24.6.62.89l3.47 2.68c.77.58 1.35.35 1.35-1.01v-2.55l-.01-.01zm-1.34-3.83l-2.19 1.69 1.11.85c.44.33.65.67.69 1.01h1.73v-2.54c0-1.36-.57-1.59-1.35-1.01"/><path d="M92.8 36.22l-3.47-2.68c-.77-.58-1.35-.35-1.34 1.01v2.54h5.43c-.04-.3-.24-.6-.62-.88m-21.29-.03v-.44c0-.97.51-1.32 1.37-1.32.2 0 .36.01.49.04.27.05.33.12.33.37v.09c0 .13-.02.21-.07.25-.08.07-.38 0-.69 0-.44 0-.65.17-.65.52v.5h1.02c.27 0 .32.05.32.32v.09c0 .27-.05.32-.32.32h-1.02v2.71c0 .27-.07.34-.34.34h-.09c-.28 0-.34-.07-.34-.34v-3.44l-.01-.01zm3.43 3.45c0 .27-.07.34-.34.34h-.1c-.28 0-.34-.07-.34-.34v-2.18c0-.9.48-1.35 1.44-1.35h.15c.25.03.32.09.32.36v.11c0 .25-.05.3-.32.27h-.15c-.51 0-.66.21-.66.67v2.12zm1.43-1.22v-.66c0-1.07.57-1.65 1.76-1.65s1.74.55 1.74 1.65v.66c0 1.06-.57 1.65-1.74 1.65s-1.76-.55-1.76-1.65zm2.71-.66c0-.64-.21-.92-.95-.92s-.97.28-.97.92v.66c0 .63.21.91.97.91s.95-.27.95-.91v-.66zm2.32 1.88c0 .27-.07.34-.34.34h-.1c-.28 0-.34-.07-.34-.34v-2.05c0-.99.52-1.48 1.55-1.48.56 0 .94.18 1.14.56.21-.38.59-.56 1.15-.56 1.07 0 1.54.5 1.54 1.48v2.05c0 .27-.07.34-.34.34h-.1c-.27 0-.34-.07-.34-.34v-2.05c0-.52-.17-.75-.76-.75s-.77.23-.77.75v2.05c0 .27-.07.34-.34.34h-.08c-.27 0-.34-.07-.34-.34v-2.05c0-.52-.17-.75-.76-.75s-.77.23-.77.75v2.05zM48.58 20.71l3.14 4.72c.6.89.5 1.15-.62 1.15h-.91c-1.08 0-1.51-.24-2.16-1.17l-2.92-4.46h-2.18v4.24c0 1.08-.26 1.39-1.39 1.39h-.43c-1.13 0-1.39-.31-1.39-1.39V13.88c0-2.01.86-2.88 2.88-2.88h3.93c3.52 0 5.29 1.65 5.29 4.98 0 2.59-1.08 4.17-3.23 4.72m-4.94-6.71c-.48 0-.72.24-.72.72v3.24h3.59c1.39 0 2.08-.65 2.08-1.96S48.03 14 46.52 14h-2.87v-.01zM63.62 23c0 2.59-1.58 3.86-5.2 3.86s-5.2-1.27-5.2-3.79 1.63-3.74 4.86-3.74h2.42v-.91c0-1.15-.84-1.46-2.49-1.46-.67 0-1.37.05-2.09.14-1.05.17-1.34-.07-1.34-1.13v-.1c0-1.03.26-1.29 1.29-1.46.6-.07 1.25-.12 1.94-.12 3.76 0 5.8 1.15 5.8 4.12v4.58l.01.01zm-3.11-1.32h-2.47c-1.13 0-1.7.43-1.7 1.32.1 1.15.86 1.27 2.04 1.25 1.22.02 2.01-.12 2.13-1.41v-1.16zm5.7-12c.74-.74 1.89-.74 2.64 0 .74.74.74 1.89 0 2.64-.74.74-1.89.74-2.64 0-.74-.74-.74-1.89 0-2.64zm-.24 6.25c0-1.08.26-1.34 1.34-1.34h.43c1.08 0 1.34.26 1.34 1.34v9.3c0 1.08-.26 1.34-1.34 1.34h-.43c-1.08 0-1.34-.26-1.34-1.34v-9.3zm5.34 8.78c0-1.13.29-1.41 1.32-1.13.91.26 1.99.38 3.26.38 1.41 0 1.85-.14 1.85-.69 0-.41-.24-.6-1.51-1.1L74 21.24c-1.7-.69-2.49-1.56-2.49-3.4 0-2.4 1.41-3.52 4.89-3.52.93 0 1.77.1 2.54.29 1.05.26 1.32.53 1.32 1.58v.24c0 1.08-.29 1.34-1.34 1.08-.79-.19-1.65-.29-2.56-.29-1.37 0-1.77.19-1.77.65 0 .36.22.5.98.82l2.49.98c1.89.74 2.76 1.68 2.76 3.59 0 2.49-1.51 3.62-5.15 3.62-1.17 0-2.18-.1-3.02-.31-1.05-.26-1.32-.53-1.32-1.58v-.26l-.02-.02zm22.11-4.29c-.12 1.08-.43 1.32-1.56 1.32h-6.09v.36c0 1.25.93 1.82 3.14 1.82.89 0 1.85-.12 2.9-.34 1.03-.22 1.27.02 1.27 1.15v.26c0 1.06-.21 1.29-1.27 1.56-.79.22-1.75.31-2.92.31-4.29 0-6.25-1.58-6.25-5.25v-1.92c0-3.59 1.87-5.39 5.58-5.39 3.5 0 5.25 1.72 5.25 5.17 0 .34-.02.65-.05.94m-7.64-1.22h4.72v-.36c0-1.22-.79-1.82-2.37-1.82s-2.35.6-2.35 1.82v.36zm10.03-6.8c0-1.08.26-1.39 1.39-1.39h.43c1.13 0 1.39.31 1.39 1.39v8.72c0 1.85 1.03 2.76 3.09 2.76 2.06 0 3.07-.91 3.07-2.76v-8.72c0-1.08.31-1.39 1.39-1.39h.43c1.08 0 1.39.31 1.39 1.39v8.72c0 3.95-2.42 5.75-6.28 5.75-3.86 0-6.3-1.8-6.3-5.75v-8.72zm15.17 7.16c0-3.57 2.27-5.25 5.7-5.25 3.81 0 5.73 1.75 5.73 5.25v1.92c0 3.45-1.75 5.39-5.03 5.39-1.51 0-2.61-.46-3.28-1.37v4.53c0 1.08-.26 1.34-1.34 1.34h-.43c-1.08 0-1.34-.26-1.34-1.34V19.55h-.01zm8.29.07c0-1.7-.48-2.37-2.56-2.37s-2.61.72-2.61 2.37v1.92c0 1.65.58 2.37 2.61 2.37s2.56-.72 2.56-2.37v-1.92zM7.98 17.35c1.87 0 3.39-1.52 3.39-3.39s-1.52-3.39-3.39-3.39-3.39 1.52-3.39 3.39 1.52 3.39 3.39 3.39zm3.15 1.84c-.79 1.68-1.32 3.61-1.59 5.8-.3-.49-.68-.84-1.13-1.05-.16-.08-.35-.11-.52-.11-.19 0-.36.03-.53.11-1.21.56-1.87 2.2-1.87 4.64 0 1.5-1.16 2.72-2.63 2.78h-.11c-.74 0-1.41-.29-1.95-.81-.51-.51-.8-1.21-.8-1.93C0 18.42 7.82 18.3 7.9 18.3c.04 0 1.55.02 3.23.89zm21.98 9.43c0 1.5-1.24 2.74-2.74 2.74-1.5 0-2.74-1.24-2.74-2.74 0-6.45-2.31-8.86-4.07-9.78a3.772 3.772 0 0 0 1.92-3.27c0-.77-.24-1.48-.63-2.08 1 .37 2.13.96 3.23 1.86 3.23 2.67 4.89 7 4.96 12.86.06.14.06.28.06.41M21.69 11.75c3.24 0 5.87-2.63 5.87-5.87S24.94 0 21.69 0s-5.87 2.63-5.87 5.87 2.63 5.87 5.87 5.87"/><path d="M24.45 15.56c0 1.5-1.22 2.73-2.71 2.74-.22.01-5.94.26-5.94 10.33 0 1.51-1.23 2.74-2.74 2.74-1.51 0-2.74-1.23-2.74-2.74 0-.13.01-.27.04-.4.07-5.86 1.73-10.2 4.96-12.87 2.58-2.14 5.37-2.47 6.16-2.51.02 0 .16-.01.16-.01h.07s.09 0 .18.01c1.45.08 2.56 1.29 2.56 2.71z"/></g><defs><clipPath id="clip0_13472_35043"><path fill="#fff" d="M0 0h122.41v41.23H0z"/></clipPath></defs></svg>