<svg width="86" height="43" viewBox="0 0 86 43" fill="none" xmlns="http://www.w3.org/2000/svg"><path d="M64.213 29.655c0-.234.058-.293.292-.293h.1c.233 0 .291.06.291.293v.993c.167-.184.455-.299.799-.299.417 0 .887.194.887.903v1.491c0 .234-.059.293-.292.293h-.1c-.234 0-.292-.059-.292-.293v-1.368c0-.293-.167-.379-.439-.379-.302 0-.564.121-.564.635v1.114c0 .234-.058.292-.292.292H64.5c-.233 0-.292-.058-.292-.292l.006-3.09zm3.563 2.387c0 .268.078.415.506.415s.496-.147.496-.415v-1.335c0-.234.058-.292.292-.292h.099c.233 0 .292.058.292.292v1.334c0 .702-.358 1.06-1.18 1.06-.788 0-1.19-.372-1.19-1.06v-1.334c0-.234.06-.292.293-.292h.1c.233 0 .291.058.291.292l.001 1.335zm2.197-2.387c0-.234.058-.293.292-.293h.094c.234 0 .292.06.292.293v.993c.136-.184.355-.299.717-.299.725 0 1.096.43 1.096 1.181v.42c0 .825-.465 1.148-1.247 1.148-.69 0-1.242-.326-1.242-1.147l-.002-2.296zm1.806 1.859c0-.336-.09-.52-.56-.52-.47 0-.568.184-.568.52v.42c0 .336.1.52.569.52.48 0 .559-.184.559-.52v-.42zm2.563.906c-.12.021-.243.032-.365.031-.193 0-.323-.085-.329-.332a.16.16 0 0 0 .005-.04v-1.022h.593c.234 0 .292-.059.292-.292v-.058c0-.235-.058-.293-.292-.293h-.59v-.394c0-.233-.058-.291-.292-.291h-.094c-.233 0-.292.058-.292.291v.358l-.007.034v1.68c0 .048.001.094.004.138 0 .048.005.096.018.143.095.545.483.722.985.722.122.003.244-.007.364-.032.23-.047.287-.136.287-.373v-.058c0-.234-.059-.257-.287-.215m2.915-.727c-.032.241-.099.286-.339.286h-1.326v.08c0 .272.199.398.684.398.212-.002.424-.026.631-.071.23-.048.277.015.277.252v.058c0 .233-.047.287-.277.342a2.83 2.83 0 0 1-.636.068c-.924 0-1.362-.336-1.362-1.147v-.423c0-.677.308-1.181 1.218-1.181.76 0 1.144.388 1.144 1.134 0 .069-.003.137-.011.205m-1.665-.267h1.029v-.08c0-.262-.173-.398-.517-.398-.344 0-.512.136-.512.398v.08zm2.129-1.769c0-.234.06-.293.293-.293h.092c.235 0 .293.06.293.293v2.436c0 .273.071.35.23.35h.025c.137 0 .176.033.176.242v.1c0 .21-.041.268-.175.292a.635.635 0 0 1-.157.011c-.443 0-.777-.246-.777-.846v-2.585zm-17.649 2.253c-.258-.193-.385-.397-.403-.598h-.99v1.49c0 .794.337.935.789.592l1.268-.976-.664-.509zm2.965-.598h-3.179c.024.174.14.35.363.518l2.031 1.57c.45.339.788.2.788-.593l-.002-1.495zm-.784-2.24l-1.28.989.65.502c.256.19.382.394.402.594h1.014v-1.49c0-.793-.337-.931-.789-.592" fill="#fff"/><path d="M61.502 30.637L59.47 29.07c-.45-.34-.788-.201-.788.592v1.489h3.18c-.025-.176-.143-.351-.362-.516m-12.463-.019v-.26c0-.568.3-.773.805-.773.096 0 .192.007.287.022.156.032.19.067.19.215v.054a.195.195 0 0 1-.038.148c-.05.04-.225-.005-.407-.005-.256 0-.38.103-.38.304v.295h.595c.156 0 .187.031.187.188v.053c0 .157-.031.188-.188.188h-.594v1.587c0 .161-.041.202-.202.202h-.053c-.162 0-.202-.041-.202-.202v-2.016zm2.004 2.016c0 .16-.04.202-.201.202h-.058c-.161 0-.2-.041-.2-.202v-1.274c0-.526.28-.788.843-.788.03-.001.06 0 .09.004.148.018.188.054.188.21v.063c0 .148-.031.178-.188.156a.526.526 0 0 0-.09-.004c-.3 0-.384.12-.384.393v1.24zm.836-.715v-.383c0-.626.335-.966 1.028-.966.711 0 1.02.322 1.02.966v.385c0 .62-.335.965-1.02.965-.715-.002-1.028-.323-1.028-.967zm1.586-.383c0-.375-.126-.536-.56-.536-.433 0-.567.16-.567.536v.385c0 .37.126.531.568.531.442 0 .559-.156.559-.531v-.385zm1.362 1.098c0 .16-.04.201-.201.201h-.058c-.162 0-.202-.04-.202-.201v-1.198c0-.577.304-.868.908-.868.326 0 .55.108.671.327.12-.22.343-.327.67-.327.627 0 .903.296.903.868v1.198c0 .16-.04.201-.201.201h-.058c-.16 0-.2-.04-.2-.201v-1.198c0-.304-.1-.438-.444-.438s-.451.134-.451.438v1.198c0 .16-.04.201-.202.201h-.044c-.16 0-.201-.04-.201-.201v-1.198c0-.304-.099-.438-.443-.438s-.447.134-.447.438v1.198zM35.609 21.553l1.837 2.764c.352.52.295.673-.364.673h-.532c-.63 0-.884-.143-1.263-.687l-1.713-2.61h-1.276v2.484c0 .63-.154.813-.814.813h-.252c-.66 0-.814-.182-.814-.813v-6.619c0-1.178.505-1.683 1.684-1.683H34.4c2.062 0 3.1.968 3.1 2.918.002 1.512-.63 2.438-1.891 2.76zm-2.89-3.928c-.28 0-.421.14-.421.422v1.893H34.4c.813 0 1.218-.379 1.218-1.15 0-.789-.337-1.165-1.218-1.165h-1.68zM44.416 22.9c0 1.515-.925 2.259-3.043 2.259-2.119 0-3.044-.744-3.044-2.217 0-1.459.953-2.188 2.847-2.188h1.417v-.533c0-.674-.49-.856-1.458-.856-.408.002-.815.03-1.218.084-.617.098-.789-.041-.789-.66v-.055c0-.603.154-.758.758-.856.377-.046.756-.07 1.136-.071 2.203 0 3.395.673 3.395 2.413v2.68zm-1.823-.771h-1.445c-.659 0-.996.252-.996.771.057.674.502.744 1.193.73.717.014 1.178-.072 1.248-.828v-.673zM45.93 15.1a1.091 1.091 0 1 1 0 1.544 1.074 1.074 0 0 1 0-1.544zm-.144 3.661c0-.631.154-.788.788-.788h.253c.63 0 .788.154.788.788v5.443c0 .632-.155.789-.788.789h-.253c-.631 0-.788-.154-.788-.789v-5.443zm3.131 5.135c0-.66.168-.828.772-.66.532.155 1.163.225 1.907.225.828 0 1.08-.084 1.08-.407 0-.238-.144-.35-.884-.645l-1.304-.547c-.996-.407-1.459-.911-1.459-1.992 0-1.403.828-2.062 2.862-2.062.5-.005 1 .051 1.486.168.618.154.772.309.772.926v.144c0 .63-.168.788-.788.63a6.418 6.418 0 0 0-1.505-.168c-.8 0-1.038.112-1.038.379 0 .21.126.295.574.477l1.458.573c1.108.435 1.613.982 1.613 2.104 0 1.46-.884 2.119-3.016 2.119-.688 0-1.276-.057-1.767-.183-.618-.154-.772-.308-.772-.926l.009-.155zm12.945-2.511c-.072.63-.252.771-.911.771h-3.563v.21c0 .73.547 1.067 1.837 1.067a8.537 8.537 0 0 0 1.698-.197c.603-.126.743.015.743.673v.155c0 .617-.126.758-.743.912-.463.126-1.025.183-1.712.183-2.508 0-3.661-.926-3.661-3.073v-1.122c0-2.104 1.094-3.153 3.269-3.153 2.048 0 3.072 1.01 3.072 3.03a6.4 6.4 0 0 1-.029.544zm-4.474-.717h2.763v-.21c0-.717-.462-1.066-1.388-1.066-.913 0-1.375.35-1.375 1.065v.21zm5.876-3.982c0-.632.154-.814.814-.814h.252c.66 0 .813.182.813.814v5.106c0 1.08.604 1.613 1.81 1.613 1.192 0 1.792-.533 1.792-1.613v-5.107c0-.63.182-.813.814-.813h.253c.63 0 .813.182.813.814v5.106c0 2.315-1.417 3.368-3.675 3.368-2.287 0-3.69-1.052-3.69-3.368l.004-5.107zm8.877 4.194c0-2.09 1.333-3.072 3.34-3.072 2.229 0 3.352 1.024 3.352 3.072v1.122c0 2.02-1.024 3.153-2.946 3.153-.884 0-1.53-.267-1.922-.8v2.652c0 .631-.154.788-.789.788h-.252c-.631 0-.788-.155-.788-.788l.005-6.127zm4.854.042c0-.996-.28-1.389-1.501-1.389-1.192 0-1.53.421-1.53 1.39v1.12c0 .97.338 1.39 1.53 1.39 1.193 0 1.5-.42 1.5-1.39v-1.12zM11.839 19.59a1.987 1.987 0 1 0-.001-3.974 1.987 1.987 0 0 0 0 3.973zm1.845 1.075c-.465.983-.771 2.116-.932 3.394a1.504 1.504 0 0 0-.664-.615.688.688 0 0 0-.306-.066.672.672 0 0 0-.308.066c-.706.326-1.097 1.29-1.097 2.719A1.615 1.615 0 0 1 8.84 27.79h-.067a1.615 1.615 0 0 1-1.606-1.604c0-5.974 4.575-6.04 4.624-6.04.66.035 1.306.212 1.893.518zm12.87 5.523a1.604 1.604 0 0 1-3.207 0c0-3.774-1.35-5.191-2.381-5.727a2.2 2.2 0 0 0 .753-3.135 6.6 6.6 0 0 1 1.893 1.092c1.893 1.56 2.864 4.098 2.904 7.525.03.078.043.162.038.245zm-6.687-9.879a3.44 3.44 0 1 0 0-6.88 3.44 3.44 0 0 0 0 6.88z" fill="#fff"/><path d="M21.483 18.541a1.607 1.607 0 0 1-1.589 1.604c-.13.006-3.48.15-3.48 6.047a1.604 1.604 0 1 1-3.185-.232c.041-3.432 1.014-5.973 2.905-7.536a6.497 6.497 0 0 1 3.61-1.472l.096-.007h.04c.035 0 .07.002.103.007a1.59 1.59 0 0 1 1.5 1.59z" fill="#fff"/></svg>