<svg width="176" height="176" viewBox="0 0 176 176" fill="none" xmlns="http://www.w3.org/2000/svg"><path d="M171 88c-.461 28.589-4.183 51.842-17.885 65.083-13.24 13.734-36.493 17.456-65.082 17.884-28.589-.461-51.842-4.183-65.083-17.884C9.183 139.842 5.461 116.589 5 88c.461-28.589 4.183-51.842 17.884-65.115C36.158 9.183 59.412 5.46 88 5c28.589.461 51.842 4.183 65.083 17.884C166.817 36.158 170.539 59.412 171 88z" fill="#fff"/><path d="M63.825 93.731a9.552 9.552 0 1 0 0-19.103 9.552 9.552 0 0 0 0 19.103z" fill="#F69621"/><path d="M102.855 83.949h-.231.231z" stroke="#221F20" stroke-width=".673" stroke-miterlimit="10"/><path d="M85.86 125.449c0 4.249-3.459 7.707-7.708 7.707h-.329c-4.15-.165-7.378-3.59-7.41-7.806 0-6.884-1.911-11.528-5.37-13.076a3.36 3.36 0 0 0-1.482-.329c-.526 0-1.02.099-1.482.329-3.392 1.548-5.27 6.192-5.27 13.076 0 4.216-3.26 7.641-7.377 7.806h-.33c-2.075 0-3.985-.79-5.467-2.273a7.68 7.68 0 0 1-2.273-5.434c0-28.72 22.002-29.05 22.232-29.05.264 0 22.265.33 22.265 29.05z" fill="#092F4D"/><path d="M102.491 83.949h-.032m.032 9.519h-.032" stroke="#221F20" stroke-width=".673" stroke-miterlimit="10"/><path d="M134.572 125.449c0 4.249-3.458 7.707-7.707 7.707s-7.707-3.458-7.707-7.707c0-27.206-14.624-28.951-16.699-29.083-2.075.099-16.699 1.877-16.699 29.083 0 4.249-3.458 7.707-7.707 7.707s-7.707-3.458-7.707-7.707c0-.362.033-.758.099-1.12.197-16.501 4.874-28.688 13.965-36.23 7.279-6.028 15.117-6.95 17.357-7.081h1.318c2.239.131 10.078 1.053 17.357 7.08 9.091 7.51 13.768 19.697 13.965 36.198.165.395.165.791.165 1.153z" fill="#EE4923"/><path d="M102.427 77.954c9.131 0 16.534-7.402 16.534-16.534 0-9.131-7.403-16.534-16.534-16.534-9.132 0-16.534 7.403-16.534 16.534 0 9.132 7.402 16.534 16.534 16.534z" fill="#009D9D"/><path d="M110.199 88.692c0 4.216-3.425 7.674-7.641 7.707-.626.033-16.732.725-16.732 29.083 0 4.249-3.458 7.707-7.707 7.707s-7.707-3.458-7.707-7.707c0-.362.033-.758.099-1.12.198-16.501 4.874-28.72 13.965-36.23 7.279-6.028 15.118-6.95 17.358-7.082.065 0 .461-.032.461-.032h.197c.099 0 .264 0 .494.032 4.084.231 7.213 3.624 7.213 7.642z" fill="#F69621"/></svg>