<svg width="204" height="98" viewBox="0 0 204 98" fill="none" xmlns="http://www.w3.org/2000/svg"><path d="M84.468 49.12l4.359 6.299c.833 1.184.698 1.535-.866 1.535H86.7c-1.496 0-2.096-.327-2.995-1.566l-4.063-5.947h-3.028v5.66c0 1.437-.366 1.853-1.93 1.853h-.598c-1.564 0-1.931-.416-1.931-1.854V40.016c0-2.686 1.198-3.836 3.995-3.836h5.45c4.893 0 7.354 2.206 7.354 6.649.005 3.446-1.492 5.557-4.486 6.292zm-6.855-8.952c-.666 0-1 .32-1 .96v4.316H81.6c1.93 0 2.89-.862 2.89-2.622 0-1.796-.799-2.654-2.89-2.654h-3.986zm27.746 12.022c0 3.453-2.194 5.148-7.22 5.148-5.025 0-7.22-1.695-7.22-5.052 0-3.325 2.261-4.986 6.755-4.986h3.36v-1.215c0-1.536-1.164-1.95-3.46-1.95-.966.002-1.931.066-2.89.19-1.463.224-1.87-.094-1.87-1.502v-.127c0-1.376.366-1.727 1.798-1.95a23.333 23.333 0 0 1 2.696-.164c5.224 0 8.051 1.535 8.051 5.5v6.108zm-4.325-1.757h-3.427c-1.564 0-2.363.575-2.363 1.757.135 1.535 1.19 1.696 2.829 1.663 1.7.032 2.795-.163 2.961-1.887v-1.533zm7.916-16.019a2.623 2.623 0 0 1 1.325-.68 2.688 2.688 0 0 1 1.496.14c.473.19.878.508 1.162.917a2.415 2.415 0 0 1 0 2.764 2.56 2.56 0 0 1-1.162.916 2.687 2.687 0 0 1-1.496.142 2.621 2.621 0 0 1-1.325-.68 2.438 2.438 0 0 1-.574-.805 2.368 2.368 0 0 1 0-1.91c.133-.302.328-.576.574-.804zm-.34 8.345c0-1.44.365-1.797 1.87-1.797h.598c1.498 0 1.87.351 1.87 1.797v12.405c0 1.439-.367 1.797-1.87 1.797h-.598c-1.498 0-1.87-.352-1.87-1.797V42.759zm7.425 11.701c0-1.503.4-1.887 1.831-1.503 1.263.351 2.761.511 4.524.511 1.963 0 2.562-.19 2.562-.927 0-.542-.34-.799-2.096-1.47l-3.094-1.246c-2.363-.928-3.46-2.078-3.46-4.541 0-3.197 1.964-4.7 6.788-4.7a14.995 14.995 0 0 1 3.526.385c1.465.35 1.831.702 1.831 2.11v.327c0 1.437-.4 1.796-1.87 1.437a15.83 15.83 0 0 0-3.57-.384c-1.896 0-2.462.256-2.462.864 0 .48.299.671 1.36 1.086l3.46 1.307c2.628.991 3.826 2.237 3.826 4.795 0 3.326-2.096 4.828-7.153 4.828-1.632 0-3.028-.129-4.192-.416-1.466-.351-1.831-.702-1.831-2.11l.02-.353zm30.709-5.723c-.17 1.44-.598 1.76-2.162 1.76h-8.451v.478c0 1.663 1.297 2.43 4.357 2.43a21.02 21.02 0 0 0 4.027-.447c1.432-.288 1.763.032 1.763 1.534v.352c0 1.407-.299 1.727-1.763 2.078-1.098.287-2.429.416-4.059.416-5.95 0-8.686-2.11-8.686-7.002V47.78c0-4.796 2.596-7.187 7.754-7.187 4.859 0 7.288 2.302 7.288 6.906 0 .44-.034.849-.068 1.24zm-10.613-1.633h6.553v-.48c0-1.634-1.096-2.43-3.293-2.43-2.164 0-3.26.8-3.26 2.43v.48zm13.938-9.076c0-1.44.366-1.854 1.93-1.854h.598c1.564 0 1.93.415 1.93 1.854v11.637c0 2.462 1.431 3.677 4.294 3.677 2.827 0 4.25-1.215 4.25-3.677V38.028c0-1.44.432-1.854 1.929-1.854h.6c1.496 0 1.93.415 1.93 1.854v11.637c0 5.276-3.361 7.677-8.718 7.677-5.424 0-8.751-2.398-8.751-7.677l.008-11.637zm21.058 9.56c0-4.764 3.16-7.002 7.92-7.002 5.289 0 7.953 2.334 7.953 7.002v2.556c0 4.603-2.429 7.187-6.989 7.187-2.096 0-3.627-.608-4.559-1.823v6.043c0 1.44-.366 1.797-1.87 1.797h-.598c-1.498 0-1.87-.353-1.87-1.797l.013-13.963zm11.513.096c0-2.27-.665-3.165-3.56-3.165-2.829 0-3.628.959-3.628 3.165v2.557c0 2.206.799 3.165 3.628 3.165s3.56-.959 3.56-3.165v-2.557z" fill="#09304D"/><path d="M28.082 44.645a4.85 4.85 0 0 0 2.618-.764 4.572 4.572 0 0 0 1.735-2.032c.356-.827.45-1.738.267-2.616a4.475 4.475 0 0 0-1.29-2.318A4.774 4.774 0 0 0 29 35.677a4.892 4.892 0 0 0-2.722.258 4.678 4.678 0 0 0-2.115 1.667 4.402 4.402 0 0 0-.794 2.515 4.44 4.44 0 0 0 1.382 3.202 4.813 4.813 0 0 0 3.332 1.326z" fill="#F79722"/><path d="M38.952 59.681a3.588 3.588 0 0 1-1.116 2.581 3.888 3.888 0 0 1-2.687 1.071h-.161a3.901 3.901 0 0 1-2.604-1.142 3.605 3.605 0 0 1-1.053-2.557c0-3.267-.942-5.464-2.649-6.197a1.71 1.71 0 0 0-1.463 0c-1.673.733-2.6 2.94-2.6 6.197a3.59 3.59 0 0 1-1.042 2.554 3.886 3.886 0 0 1-2.596 1.145h-.17a3.912 3.912 0 0 1-2.685-1.075A3.611 3.611 0 0 1 17 59.681c0-13.614 10.853-13.769 10.967-13.769.114 0 10.985.163 10.985 13.77z" fill="#09304D"/><path d="M62.9 59.128c-.097-7.822-2.405-13.598-6.888-17.15a15.746 15.746 0 0 0-8.563-3.357h-.651a15.754 15.754 0 0 0-8.563 3.357c-4.483 3.573-6.79 9.35-6.889 17.17a3.14 3.14 0 0 0-.047.533c.02.956.43 1.865 1.141 2.534a3.885 3.885 0 0 0 2.66 1.043c.995 0 1.95-.375 2.661-1.043a3.587 3.587 0 0 0 1.142-2.534c0-12.895 7.215-13.738 8.238-13.785 1.02.062 8.238.89 8.238 13.785a3.588 3.588 0 0 0 1.116 2.58 3.888 3.888 0 0 0 2.685 1.072c.491.005.978-.084 1.432-.264a3.68 3.68 0 0 0 1.212-.78c.346-.334.618-.733.8-1.17.183-.439.272-.907.262-1.379.025-.203.03-.408.014-.612z" fill="#EE4A23"/><path d="M47.126 37.168c1.614 0 3.191-.46 4.533-1.321a7.917 7.917 0 0 0 3.006-3.519 7.554 7.554 0 0 0 .464-4.53 7.75 7.75 0 0 0-2.233-4.013 8.268 8.268 0 0 0-4.178-2.146 8.47 8.47 0 0 0-4.715.446 8.099 8.099 0 0 0-3.662 2.888 7.623 7.623 0 0 0-1.375 4.355c0 2.08.86 4.074 2.39 5.544 1.53 1.47 3.605 2.296 5.77 2.296z" fill="#059E9E"/><path d="M50.96 42.257a3.592 3.592 0 0 1-1.105 2.569 3.891 3.891 0 0 1-2.665 1.084c-.309.015-8.255.343-8.255 13.784.01.486-.08.97-.266 1.422a3.643 3.643 0 0 1-.819 1.212 3.814 3.814 0 0 1-1.243.812 3.94 3.94 0 0 1-2.948 0 3.814 3.814 0 0 1-1.243-.813 3.643 3.643 0 0 1-.819-1.211 3.526 3.526 0 0 1-.266-1.422c0-.178.017-.355.05-.53.096-7.821 2.403-13.613 6.89-17.174a15.748 15.748 0 0 1 8.56-3.356c.033 0 .228-.015.228-.015h.097c.082 0 .164.004.245.015a3.842 3.842 0 0 1 2.529 1.132 3.552 3.552 0 0 1 1.03 2.49z" fill="#F79722"/><path d="M152.32 67.586c0-.532.138-.666.694-.666h.234c.554 0 .694.134.694.666v2.264c.396-.42 1.078-.681 1.894-.681.989 0 2.104.441 2.104 2.058v3.399c0 .532-.139.666-.693.666h-.238c-.555 0-.692-.133-.692-.666v-3.12c0-.666-.396-.862-1.041-.862-.717 0-1.338.276-1.338 1.447v2.538c0 .533-.137.667-.691.667H153c-.554 0-.694-.134-.694-.667l.014-7.043zm8.451 5.44c0 .61.185.946 1.2.946s1.176-.335 1.176-.946v-3.041c0-.534.138-.667.692-.667h.235c.554 0 .693.133.693.667v3.04c0 1.598-.85 2.417-2.798 2.417-1.87 0-2.822-.85-2.822-2.418v-3.04c0-.533.14-.666.694-.666h.234c.556 0 .694.133.694.667l.002 3.041zm5.212-5.44c0-.532.139-.666.694-.666h.222c.554 0 .694.134.694.666v2.264c.321-.42.841-.681 1.7-.681 1.72 0 2.599.98 2.599 2.692v.959c0 1.878-1.101 2.613-2.958 2.613-1.635 0-2.946-.742-2.946-2.614l-.005-5.233zm4.284 4.237c0-.766-.211-1.184-1.326-1.184s-1.35.418-1.35 1.184v.957c0 .766.236 1.186 1.35 1.186 1.141 0 1.326-.42 1.326-1.186v-.957zm6.079 2.064a4.94 4.94 0 0 1-.865.072c-.458 0-.765-.194-.781-.756a.294.294 0 0 0 .012-.093v-2.328h1.408c.554 0 .692-.134.692-.666v-.133c0-.534-.138-.666-.692-.666h-1.399v-.898c0-.533-.14-.665-.694-.665h-.222c-.555 0-.694.132-.694.665v.816l-.017.076v3.83c0 .108.003.213.01.313-.002.11.013.22.043.327.226 1.241 1.145 1.645 2.335 1.645a3.94 3.94 0 0 0 .866-.072c.545-.108.68-.31.68-.85v-.132c0-.534-.14-.586-.68-.49m6.912-1.659c-.075.55-.235.654-.804.654h-3.145v.18c0 .622.471.909 1.622.909a7.793 7.793 0 0 0 1.497-.163c.546-.108.657.036.657.575v.132c0 .532-.111.653-.657.779a6.978 6.978 0 0 1-1.509.155c-2.192 0-3.23-.766-3.23-2.613v-.964c0-1.543.731-2.693 2.89-2.693 1.802 0 2.711.885 2.711 2.585a3.66 3.66 0 0 1-.025.468m-3.949-.61h2.439v-.181c0-.598-.41-.908-1.226-.908-.816 0-1.213.31-1.213.908v.181zm5.052-4.031c0-.532.14-.666.694-.666h.219c.556 0 .694.134.694.666v5.554c0 .622.17.798.545.798h.062c.323 0 .416.074.416.55v.23c0 .478-.099.609-.416.664a1.564 1.564 0 0 1-.371.025c-1.052 0-1.845-.562-1.845-1.928l.002-5.893zm-41.866 5.134c-.612-.44-.913-.906-.955-1.364h-2.348v3.398c0 1.81.797 2.132 1.87 1.35l3.007-2.223-1.574-1.162zm7.035-1.364h-7.541c.056.398.329.798.86 1.182l4.818 3.575c1.069.775 1.87.46 1.87-1.349l-.007-3.408zm-1.863-5.102l-3.037 2.254 1.542 1.143c.607.435.908.899.954 1.354h2.406v-3.394c0-1.81-.799-2.123-1.87-1.35" fill="#9CABB7"/><path d="M145.889 69.824l-4.82-3.57c-1.069-.775-1.87-.46-1.87 1.349v3.392h7.545c-.059-.4-.34-.8-.858-1.176m-29.565-.043v-.592c0-1.295.712-1.762 1.909-1.762.228-.002.455.015.68.05.37.073.454.153.454.49v.123a.425.425 0 0 1-.094.337c-.117.091-.532-.01-.965-.01-.606 0-.901.233-.901.692v.673h1.411c.37 0 .443.07.443.428v.121c0 .358-.073.428-.443.428h-1.411v3.618c0 .366-.097.459-.478.459h-.127c-.383 0-.478-.093-.478-.46v-4.595zm4.753 4.595c0 .366-.095.46-.478.46h-.137c-.383 0-.476-.094-.476-.46v-2.904c0-1.197.667-1.796 2.002-1.796.071-.003.142 0 .213.01.35.04.445.122.445.478v.144c0 .336-.073.407-.445.356a1.321 1.321 0 0 0-.213-.01c-.71 0-.911.275-.911.897v2.825zm1.984-1.629v-.874c0-1.426.795-2.2 2.439-2.2 1.687 0 2.418.733 2.418 2.2v.877c0 1.416-.794 2.2-2.418 2.2-1.696-.003-2.439-.736-2.439-2.203zm3.762-.874c0-.854-.298-1.222-1.326-1.222-1.029 0-1.346.368-1.346 1.222v.877c0 .846.297 1.212 1.346 1.212 1.049 0 1.326-.356 1.326-1.212v-.877zm3.23 2.503c0 .366-.095.46-.478.46h-.137c-.383 0-.478-.094-.478-.46v-2.73c0-1.315.721-1.977 2.154-1.977.773 0 1.304.245 1.591.745.286-.5.814-.745 1.59-.745 1.485 0 2.142.673 2.142 1.976v2.731c0 .366-.096.46-.478.46h-.138c-.381 0-.476-.094-.476-.46v-2.73c0-.693-.234-.999-1.05-.999-.816 0-1.071.306-1.071.998v2.731c0 .366-.096.46-.478.46h-.106c-.38 0-.477-.094-.477-.46v-2.73c0-.693-.233-.999-1.049-.999s-1.061.306-1.061.998v2.731z" fill="#9CABB7"/></svg>