<svg width="40" height="40" viewBox="0 0 40 40" fill="none" xmlns="http://www.w3.org/2000/svg"><rect x=".5" y=".5" width="39" height="39" rx="19.5" fill="#007AFF"/><path d="M19.991 10.896a6.014 6.014 0 0 0-6.009 6.01V19.8c0 .61-.26 1.542-.57 2.063l-1.152 1.913c-.711 1.181-.22 2.493 1.081 2.934a20.954 20.954 0 0 0 13.29 0 2.005 2.005 0 0 0 1.082-2.934l-1.152-1.913c-.3-.521-.56-1.453-.56-2.063v-2.895c0-3.305-2.705-6.009-6.01-6.009z" fill="#fff"/><path d="M21.844 11.187a6.763 6.763 0 0 0-3.706 0 1.988 1.988 0 0 1 1.854-1.262c.84 0 1.562.52 1.852 1.262zm1.152 15.883a3.013 3.013 0 0 1-3.005 3.005c-.82 0-1.582-.34-2.123-.881a3.015 3.015 0 0 1-.881-2.123" fill="#fff"/><rect x=".5" y=".5" width="39" height="39" rx="19.5" stroke="#fff"/></svg>