<svg width="48" height="46" viewBox="0 0 48 46" fill="none" xmlns="http://www.w3.org/2000/svg"><path d="M47.5 23c0 12.407-10.501 22.5-23.5 22.5S.5 35.407.5 23 11.001.5 24 .5 47.5 10.593 47.5 23z" stroke="#007AFF"/><path d="M24.058 13.972a6.014 6.014 0 0 0-6.009 6.009v2.894c0 .61-.26 1.542-.57 2.063l-1.152 1.913c-.712 1.182-.22 2.494 1.081 2.934a20.952 20.952 0 0 0 13.29 0 2.005 2.005 0 0 0 1.082-2.934l-1.152-1.913c-.3-.52-.56-1.452-.56-2.063v-2.894c0-3.305-2.705-6.01-6.01-6.01z" fill="#007AFF"/><path d="M25.913 14.262a6.763 6.763 0 0 0-3.706 0A1.988 1.988 0 0 1 24.06 13c.841 0 1.562.52 1.853 1.262zm1.151 15.883a3.013 3.013 0 0 1-3.005 3.005c-.821 0-1.582-.34-2.123-.881a3.015 3.015 0 0 1-.881-2.123" fill="#007AFF"/></svg>