<svg width="89" height="88" viewBox="0 0 89 88" fill="none" xmlns="http://www.w3.org/2000/svg"><path d="M35.5 69C54.002 69 69 54.002 69 35.5 69 16.998 54.002 2 35.5 2 16.998 2 2 16.998 2 35.5 2 54.002 16.998 69 35.5 69z" fill="#F3F7FF" stroke="#FECC2F" stroke-width="2.5"/><path fill-rule="evenodd" clip-rule="evenodd" d="M30.132 61.494c1.759.325 3.548.493 5.368.506C50.136 62 62 50.136 62 35.5S50.136 9 35.5 9c-3.76 0-7.336.783-10.576 2.195a26.604 26.604 0 0 0-13.028 12.247A26.387 26.387 0 0 0 9 35.5a26.403 26.403 0 0 0 6.684 17.596" fill="#fff"/><path d="M30.132 61.494c1.759.325 3.548.493 5.368.506C50.136 62 62 50.136 62 35.5S50.136 9 35.5 9c-3.76 0-7.336.783-10.576 2.195a26.604 26.604 0 0 0-13.028 12.247A26.387 26.387 0 0 0 9 35.5a26.403 26.403 0 0 0 6.684 17.596m3.113 2.979a26.471 26.471 0 0 0 7.204 4.172" stroke="#FECC2F" stroke-width="2.5" stroke-linecap="round"/><path d="M63 62l6 6" stroke="#FECC2F" stroke-width="2.5"/><path fill-rule="evenodd" clip-rule="evenodd" d="M68.03 67.03a4.847 4.847 0 0 0 0 6.855L79.116 84.97a4.847 4.847 0 0 0 6.854-6.854L74.885 67.03a4.847 4.847 0 0 0-6.855 0z" fill="#FFFAEE" stroke="#FECC2F" stroke-width="2.5"/><path d="M73 69l11 11" stroke="#fff" stroke-width="2.5" stroke-linecap="round"/><path fill-rule="evenodd" clip-rule="evenodd" d="M29 24c0 11.598 9.402 21 21 21 2.278 0 4.472-.363 6.526-1.034-3.353 8.321-11.504 14.195-21.026 14.195-12.515 0-22.66-10.146-22.66-22.661 0-11.34 8.33-20.735 19.205-22.399A20.913 20.913 0 0 0 29 24z" fill="#FFFAEE"/><path d="M36 17a19.09 19.09 0 0 0-3.72.364m-3.635 1.112C21.804 21.351 17 28.114 17 36" stroke="#FFE066" stroke-width="2.5" stroke-linecap="round"/></svg>