<svg width="38" height="40" viewBox="0 0 38 40" fill="none" xmlns="http://www.w3.org/2000/svg"><rect width="38" height="40" rx="6" fill="#FECC2F"/><path d="M29.707 20.604a1.364 1.364 0 0 0 0-1.209c-.166-.335-.457-.511-.607-.596a7.731 7.731 0 0 0-.578-.278l-15.258-6.866a7.92 7.92 0 0 0-.602-.253c-.164-.056-.494-.16-.86-.058a1.364 1.364 0 0 0-.903.815c-.139.353-.07.692-.03.86.044.185.117.405.19.626l1.477 4.45c.119.357.178.537.289.669a.908.908 0 0 0 .365.263c.16.063.349.063.726.063h6.586a.91.91 0 1 1 0 1.819h-6.568c-.377 0-.565 0-.725.063a.907.907 0 0 0-.365.262c-.11.132-.17.31-.29.667l-1.488 4.447a7.71 7.71 0 0 0-.192.626c-.04.17-.111.508.027.862.156.4.49.703.904.818.366.102.696-.002.86-.059.18-.062.391-.157.604-.253l15.253-6.864c.207-.093.415-.187.578-.278.15-.085.441-.26.607-.596z" fill="#030F1A"/></svg>