<svg width="32" height="24" viewBox="0 0 32 24" fill="none" xmlns="http://www.w3.org/2000/svg"><path d="M30.125 12.665a1.5 1.5 0 0 0 0-1.33c-.182-.369-.502-.562-.668-.655a8.476 8.476 0 0 0-.635-.306L12.038 2.82a8.645 8.645 0 0 0-.663-.278c-.18-.062-.543-.177-.944-.065a1.5 1.5 0 0 0-.995.898c-.152.388-.076.76-.032.946.048.202.128.445.209.688l1.624 4.894c.131.394.196.591.318.737a1 1 0 0 0 .401.29c.177.069.385.069.8.069h7.243a1 1 0 1 1 0 2h-7.224c-.415 0-.622 0-.798.07a1 1 0 0 0-.4.288c-.122.145-.188.341-.32.734L9.62 18.984a8.409 8.409 0 0 0-.211.688c-.044.186-.122.56.03.948.171.44.54.773.994.9.402.112.766-.002.947-.065.196-.068.43-.173.664-.278l16.778-7.55c.228-.103.457-.206.635-.306.166-.094.486-.287.668-.656z" fill="#030F1A"/><path d="M1 24V0h-2v24h2z" fill="#D2D6D9" mask="url(#path-1-inside-1_8753_33299)"/></svg>