<svg width="38" height="40" viewBox="0 0 38 40" fill="none" xmlns="http://www.w3.org/2000/svg"><rect width="38" height="40" rx="5.455" fill="#FECC2F"/><path d="M29.707 20.604c.188-.38.188-.828 0-1.209-.166-.335-.457-.51-.607-.596a7.731 7.731 0 0 0-.578-.278l-15.258-6.866a7.839 7.839 0 0 0-.602-.252c-.164-.057-.494-.161-.86-.06a1.364 1.364 0 0 0-.903.816c-.139.353-.07.692-.03.86.044.185.117.405.19.626l1.477 4.45c.119.358.178.537.289.67a.908.908 0 0 0 .365.262c.16.064.349.064.726.064h6.586a.91.91 0 0 1 0 1.818h-6.568c-.377 0-.565 0-.725.063a.91.91 0 0 0-.365.262c-.11.132-.17.31-.29.668l-1.488 4.447a7.46 7.46 0 0 0-.192.625c-.04.17-.111.509.027.862.156.4.49.703.904.818.366.102.696-.002.86-.058.18-.063.391-.158.604-.254l15.253-6.863c.207-.094.415-.187.578-.279.15-.084.441-.26.607-.596z" fill="#030F1A"/></svg>