<svg width="33" height="32" viewBox="0 0 33 32" fill="none" xmlns="http://www.w3.org/2000/svg"><path d="M31.51 5.594L16.885.719a1.219 1.219 0 0 0-.77 0L1.49 5.594A1.219 1.219 0 0 0 .656 6.75v12.188a1.219 1.219 0 0 0 2.438 0V8.44l5.117 1.705a9.75 9.75 0 0 0 3.146 13.414c-2.742 1.075-5.113 3.02-6.846 5.68a1.219 1.219 0 1 0 2.04 1.332c2.297-3.522 5.923-5.54 9.949-5.54s7.652 2.018 9.948 5.54a1.219 1.219 0 0 0 2.041-1.331c-1.733-2.66-4.113-4.606-6.846-5.681a9.75 9.75 0 0 0 3.146-13.407l6.721-2.239a1.219 1.219 0 0 0 0-2.313v-.007zm-7.698 9.687a7.312 7.312 0 1 1-13.2-4.334l5.503 1.828c.25.084.52.084.77 0l5.503-1.828a7.296 7.296 0 0 1 1.424 4.334zm-7.312-4.94L5.73 6.75 16.5 3.158 27.27 6.75 16.5 10.34z" fill="#000"/></svg>