<svg width="16" height="16" viewBox="0 0 16 16" fill="none" xmlns="http://www.w3.org/2000/svg"><g clip-path="url(#clip0_1469_7799)" stroke="#fff" stroke-miterlimit="10" stroke-linecap="round"><path d="M9.9 6.375c.815 0 1.477-.652 1.477-1.457s-.662-1.457-1.478-1.457c-.815 0-1.477.652-1.477 1.457S9.084 6.375 9.9 6.375zm1.795 6.581h1.3a.214.214 0 0 0 .214-.211V9.16c0-.978-.804-1.771-1.796-1.771h-2.75a2.26 2.26 0 0 0-1.582.643l-1.044 1.03a.299.299 0 0 1-.418 0l-1.592-1.57a.239.239 0 0 0-.328 0L2.9 8.28a.23.23 0 0 0 0 .325l2.166 2.137a1.23 1.23 0 0 0 1.728 0 .573.573 0 0 1 .976.408V14a1 1 0 0 0 1 1h1.93a1 1 0 0 0 1-1V9.732M3.83 7.39V4.264"/><path d="M7.76 11.195H1.965A.956.956 0 0 1 1 10.248V1.953A.96.96 0 0 1 1.966 1h12.073a.96.96 0 0 1 .965.953v8.295a.96.96 0 0 1-.965.952h-.83"/></g><defs><clipPath id="clip0_1469_7799"><path fill="#fff" d="M0 0h16v16H0z"/></clipPath></defs></svg>