<svg width="35" height="35" viewBox="0 0 35 35" fill="none" xmlns="http://www.w3.org/2000/svg"><path d="M21.653 13.947c1.785 0 3.231-1.428 3.231-3.188 0-1.76-1.446-3.188-3.23-3.188-1.785 0-3.232 1.427-3.232 3.188 0 1.76 1.447 3.188 3.231 3.188zm3.931 14.394h2.843a.467.467 0 0 0 .468-.462v-7.84c0-2.14-1.758-3.874-3.928-3.874H18.95a4.944 4.944 0 0 0-3.46 1.408l-2.283 2.253a.654.654 0 0 1-.914 0L8.811 16.39a.522.522 0 0 0-.72 0l-1.746 1.724a.505.505 0 0 0 0 .71l4.738 4.674a2.686 2.686 0 0 0 3.78 0l.432-.427c.632-.624 1.703-.176 1.703.711v8.03a1 1 0 0 0 1 1h6.597a1 1 0 0 0 1-1V21.29m-17.22-5.125V9.328" stroke="#030F1A" stroke-width="2" stroke-miterlimit="10" stroke-linecap="round"/><path d="M16.974 24.49H4.3c-1.165 0-2.112-.924-2.112-2.073V4.27c0-1.149.947-2.083 2.112-2.083h26.41c1.164 0 2.111.934 2.111 2.083v18.146c0 1.149-.947 2.084-2.112 2.084h-1.815" stroke="#030F1A" stroke-width="2" stroke-miterlimit="10" stroke-linecap="round"/></svg>