<svg width="16" height="17" viewBox="0 0 16 17" fill="none" xmlns="http://www.w3.org/2000/svg"><g id="copy-06"><path id="Icon" d="M5 2.5h4.733c1.494 0 2.24 0 2.811.29.502.256.91.664 1.165 1.166.291.57.291 1.317.291 2.81V11.5m-9.867 3h5.4c.747 0 1.12 0 1.406-.145.25-.128.454-.332.582-.583.146-.285.146-.659.146-1.405v-5.4c0-.747 0-1.12-.146-1.406a1.333 1.333 0 0 0-.582-.582c-.286-.146-.659-.146-1.406-.146h-5.4c-.746 0-1.12 0-1.405.146-.25.127-.455.331-.583.582C2 5.847 2 6.22 2 6.967v5.4c0 .746 0 1.12.145 1.405.128.25.332.455.583.583.285.145.659.145 1.405.145z" stroke="#000" stroke-width="2" stroke-linecap="round" stroke-linejoin="round"/></g></svg>