<svg width="33" height="32" viewBox="0 0 33 32" fill="none" xmlns="http://www.w3.org/2000/svg"><path d="M.5 6a6 6 0 0 1 6-6h20a6 6 0 0 1 6 6v20a6 6 0 0 1-6 6h-20a6 6 0 0 1-6-6V6z" fill="#FF3B30"/><path d="M22.9 11.17l-1.425 11.465a1.605 1.605 0 0 1-1.605 1.404l-6.79-.028a1.605 1.605 0 0 1-1.605-1.404L10.06 11.17" fill="#fff"/><path stroke="#fff" stroke-width="2" stroke-linecap="round" stroke-linejoin="round" d="M9.451 10.2l14.048-.032M13.27 11.17a3.21 3.21 0 0 1 6.42 0"/><path stroke="#FF3B30" stroke-width="2" stroke-linecap="round" stroke-linejoin="round" d="M20.489 15.273l-.891 4.996m-6.291-.004l-.852-4.858"/></svg>