<svg width="24" height="25" viewBox="0 0 24 25" fill="none" xmlns="http://www.w3.org/2000/svg"><path d="M18 23a2.893 2.893 0 0 1-2.125-.875A2.893 2.893 0 0 1 15 20c0-.117.008-.238.025-.363s.042-.238.075-.337l-7.05-4.1c-.283.25-.6.446-.95.588A2.88 2.88 0 0 1 6 16a2.893 2.893 0 0 1-2.125-.875A2.893 2.893 0 0 1 3 13c0-.833.292-1.542.875-2.125A2.893 2.893 0 0 1 6 10a2.9 2.9 0 0 1 1.1.213c.35.142.667.338.95.587l7.05-4.1a1.843 1.843 0 0 1-.075-.337A2.734 2.734 0 0 1 15 6c0-.833.292-1.542.875-2.125A2.893 2.893 0 0 1 18 3c.833 0 1.542.292 2.125.875S21 5.167 21 6s-.292 1.542-.875 2.125A2.893 2.893 0 0 1 18 9c-.383 0-.75-.07-1.1-.212a3.273 3.273 0 0 1-.95-.588L8.9 12.3c.033.1.058.213.075.338a2.747 2.747 0 0 1 0 .725 1.813 1.813 0 0 1-.075.337l7.05 4.1c.283-.25.6-.446.95-.587.35-.141.717-.212 1.1-.213.833 0 1.542.292 2.125.875S21 19.167 21 20s-.292 1.542-.875 2.125A2.893 2.893 0 0 1 18 23z" fill="#007AFF"/></svg>