<svg xmlns="http://www.w3.org/2000/svg" width="23.035" height="23.035" viewBox="0 0 23.035 23.035"><path id="Icon_awesome-smile" data-name="Icon awesome-smile" d="M11.518.563A11.518 11.518 0 1 0 23.035 12.08 11.516 11.516 0 0 0 11.518.563zm3.715 7.8a1.486 1.486 0 1 1-1.486 1.486 1.485 1.485 0 0 1 1.486-1.484zm-7.431 0a1.486 1.486 0 1 1-1.486 1.488A1.485 1.485 0 0 1 7.8 8.365zm9.047 7.9a6.938 6.938 0 0 1-10.663 0 .744.744 0 0 1 1.142-.952 5.457 5.457 0 0 0 8.378 0 .744.744 0 0 1 1.143.958z" transform="translate(0 -.563)" fill="#00cc8e"/></svg>