<svg width="16" height="16" viewBox="0 0 16 16" fill="none" xmlns="http://www.w3.org/2000/svg">
<path fill-rule="evenodd" clip-rule="evenodd" d="M8.00033 0.664062C3.95024 0.664062 0.666992 3.94731 0.666992 7.9974C0.666992 12.0475 3.95024 15.3307 8.00033 15.3307C12.0504 15.3307 15.3337 12.0475 15.3337 7.9974C15.3337 3.94731 12.0504 0.664062 8.00033 0.664062ZM8.00033 4.66406C7.63213 4.66406 7.33366 4.96254 7.33366 5.33073C7.33366 5.69892 7.63213 5.9974 8.00033 5.9974H8.00699C8.37518 5.9974 8.67366 5.69892 8.67366 5.33073C8.67366 4.96254 8.37518 4.66406 8.00699 4.66406H8.00033ZM8.66699 7.9974C8.66699 7.62921 8.36852 7.33073 8.00033 7.33073C7.63213 7.33073 7.33366 7.62921 7.33366 7.9974V10.6641C7.33366 11.0323 7.63213 11.3307 8.00033 11.3307C8.36852 11.3307 8.66699 11.0323 8.66699 10.6641V7.9974Z" fill="#F7B643"/>
</svg>
