<svg width="120" height="40" viewBox="0 0 120 40" fill="none" xmlns="http://www.w3.org/2000/svg">
<rect x="0.5" y="0.5" width="119" height="39" rx="6.5" fill="black"/>
<path d="M81.5267 19.2004V21.4914H80.0906V22.9938H81.5267V28.0988C81.5267 29.842 82.3152 30.5392 84.2991 30.5392C84.6478 30.5392 84.9798 30.4977 85.2703 30.4479V28.9621C85.0213 28.987 84.8636 29.0036 84.5896 29.0036C83.7015 29.0036 83.3113 28.5886 83.3113 27.6423V22.9938H85.2703V21.4914H83.3113V19.2004H81.5267Z" fill="white"/>
<path d="M90.3242 30.6638C92.9638 30.6638 94.5825 28.8957 94.5825 25.9655C94.5825 23.0519 92.9555 21.2756 90.3242 21.2756C87.6845 21.2756 86.0576 23.0519 86.0576 25.9655C86.0576 28.8957 87.6762 30.6638 90.3242 30.6638ZM90.3242 29.0783C88.7719 29.0783 87.9003 27.9411 87.9003 25.9655C87.9003 24.0065 88.7719 22.861 90.3242 22.861C91.8681 22.861 92.748 24.0065 92.748 25.9655C92.748 27.9328 91.8681 29.0783 90.3242 29.0783Z" fill="white"/>
<path d="M95.9674 30.4894H97.752V25.152C97.752 23.882 98.7066 23.027 100.06 23.027C100.375 23.027 100.906 23.0851 101.056 23.1349V21.3752C100.865 21.3254 100.524 21.3005 100.259 21.3005C99.0802 21.3005 98.0758 21.9479 97.8184 22.8361H97.6856V21.4499H95.9674V30.4894Z" fill="white"/>
<path d="M105.487 22.7946C106.807 22.7946 107.67 23.716 107.712 25.1354H103.146C103.246 23.7243 104.167 22.7946 105.487 22.7946ZM107.703 28.049C107.371 28.7546 106.633 29.1447 105.553 29.1447C104.126 29.1447 103.204 28.1403 103.146 26.5549V26.4553H109.53V25.8327C109.53 22.9938 108.01 21.2756 105.495 21.2756C102.947 21.2756 101.328 23.11 101.328 25.9987C101.328 28.8874 102.914 30.6638 105.504 30.6638C107.571 30.6638 109.015 29.6677 109.422 28.049H107.703Z" fill="white"/>
<path d="M69.8231 27.1513C69.9607 29.371 71.8105 30.7906 74.5636 30.7906C77.506 30.7906 79.3472 29.3021 79.3472 26.9276C79.3472 25.0606 78.2975 24.0282 75.7509 23.4346L74.3829 23.099C72.7655 22.7205 72.1116 22.2129 72.1116 21.3267C72.1116 20.2082 73.1268 19.4769 74.6497 19.4769C76.095 19.4769 77.093 20.191 77.2737 21.3353H79.1493C79.0374 19.2446 77.1963 17.7734 74.6755 17.7734C71.9654 17.7734 70.1586 19.2446 70.1586 21.4557C70.1586 23.2797 71.1824 24.3637 73.4279 24.8885L75.0282 25.2757C76.6715 25.6629 77.3942 26.2307 77.3942 27.1771C77.3942 28.2783 76.2585 29.0785 74.7099 29.0785C73.0494 29.0785 71.8965 28.33 71.7331 27.1513H69.8231Z" fill="white"/>
<path d="M51.3357 21.3005C50.1072 21.3005 49.0447 21.9147 48.4969 22.944H48.3641V21.4499H46.6458V33.4943H48.4305V29.1198H48.5716C49.0447 30.0744 50.0657 30.6388 51.3523 30.6388C53.6351 30.6388 55.0877 28.8376 55.0877 25.9655C55.0877 23.0934 53.6351 21.3005 51.3357 21.3005ZM50.8294 29.0368C49.3353 29.0368 48.3973 27.8581 48.3973 25.9738C48.3973 24.0812 49.3353 22.9025 50.8377 22.9025C52.3484 22.9025 53.2532 24.0563 53.2532 25.9655C53.2532 27.883 52.3484 29.0368 50.8294 29.0368Z" fill="white"/>
<path d="M61.3325 21.3005C60.104 21.3005 59.0415 21.9147 58.4937 22.944H58.3609V21.4499H56.6426V33.4943H58.4273V29.1198H58.5684C59.0415 30.0744 60.0625 30.6388 61.3491 30.6388C63.6319 30.6388 65.0845 28.8376 65.0845 25.9655C65.0845 23.0934 63.6319 21.3005 61.3325 21.3005ZM60.8262 29.0368C59.3321 29.0368 58.3941 27.8581 58.3941 25.9738C58.3941 24.0812 59.3321 22.9025 60.8345 22.9025C62.3452 22.9025 63.25 24.0563 63.25 25.9655C63.25 27.883 62.3452 29.0368 60.8262 29.0368Z" fill="white"/>
<path d="M43.4438 30.4894H45.4914L41.009 18.0746H38.9356L34.4531 30.4894H36.4319L37.5762 27.1943H42.3081L43.4438 30.4894ZM39.8733 20.3287H40.0196L41.8177 25.5768H38.0666L39.8733 20.3287Z" fill="white"/>
<path d="M35.6523 8.71265V14.7017H37.8147C39.5994 14.7017 40.6328 13.6018 40.6328 11.6885C40.6328 9.8042 39.5911 8.71265 37.8147 8.71265H35.6523ZM36.582 9.55933H37.7109C38.9519 9.55933 39.6865 10.3479 39.6865 11.7009C39.6865 13.0747 38.9644 13.855 37.7109 13.855H36.582V9.55933Z" fill="white"/>
<path d="M43.7979 14.7888C45.1177 14.7888 45.9271 13.9048 45.9271 12.4397C45.9271 10.9829 45.1136 10.0947 43.7979 10.0947C42.4781 10.0947 41.6646 10.9829 41.6646 12.4397C41.6646 13.9048 42.4739 14.7888 43.7979 14.7888ZM43.7979 13.9961C43.0218 13.9961 42.586 13.4275 42.586 12.4397C42.586 11.4602 43.0218 10.8875 43.7979 10.8875C44.5699 10.8875 45.0098 11.4602 45.0098 12.4397C45.0098 13.4233 44.5699 13.9961 43.7979 13.9961Z" fill="white"/>
<path d="M52.8192 10.1819H51.9269L51.1217 13.6309H51.0511L50.1214 10.1819H49.2665L48.3368 13.6309H48.2704L47.461 10.1819H46.5562L47.8014 14.7017H48.7186L49.6483 11.373H49.7188L50.6527 14.7017H51.5782L52.8192 10.1819Z" fill="white"/>
<path d="M53.8468 14.7017H54.7392V12.0579C54.7392 11.3523 55.1583 10.9124 55.8183 10.9124C56.4782 10.9124 56.7936 11.2734 56.7936 11.9998V14.7017H57.6859V11.7756C57.6859 10.7007 57.1298 10.0947 56.1212 10.0947C55.4406 10.0947 54.9923 10.3977 54.7724 10.8999H54.706V10.1819H53.8468V14.7017Z" fill="white"/>
<path d="M59.0913 14.7017H59.9836V8.41797H59.0913V14.7017Z" fill="white"/>
<path d="M63.3396 14.7888C64.6594 14.7888 65.4688 13.9048 65.4688 12.4397C65.4688 10.9829 64.6553 10.0947 63.3396 10.0947C62.0198 10.0947 61.2063 10.9829 61.2063 12.4397C61.2063 13.9048 62.0156 14.7888 63.3396 14.7888ZM63.3396 13.9961C62.5635 13.9961 62.1277 13.4275 62.1277 12.4397C62.1277 11.4602 62.5635 10.8875 63.3396 10.8875C64.1116 10.8875 64.5515 11.4602 64.5515 12.4397C64.5515 13.4233 64.1116 13.9961 63.3396 13.9961Z" fill="white"/>
<path d="M68.1275 14.0251C67.6419 14.0251 67.2891 13.7886 67.2891 13.3818C67.2891 12.9834 67.5713 12.7717 68.1939 12.7302L69.2979 12.6597V13.0374C69.2979 13.5977 68.7999 14.0251 68.1275 14.0251ZM67.8992 14.7764C68.4927 14.7764 68.9866 14.519 69.2564 14.0667H69.327V14.7017H70.1861V11.6138C70.1861 10.6592 69.5469 10.0947 68.4139 10.0947C67.3887 10.0947 66.6583 10.5928 66.5669 11.3689H67.4302C67.5298 11.0493 67.8743 10.8667 68.3724 10.8667C68.9825 10.8667 69.2979 11.1365 69.2979 11.6138V12.0039L68.0735 12.0745C66.9986 12.1409 66.3926 12.6099 66.3926 13.4233C66.3926 14.2493 67.0276 14.7764 67.8992 14.7764Z" fill="white"/>
<path d="M73.2142 14.7764C73.8368 14.7764 74.3639 14.4817 74.6336 13.9878H74.7042V14.7017H75.5592V8.41797H74.6668V10.8999H74.6004C74.3556 10.4019 73.8326 10.1072 73.2142 10.1072C72.0728 10.1072 71.3382 11.012 71.3382 12.4397C71.3382 13.8716 72.0645 14.7764 73.2142 14.7764ZM73.4674 10.9082C74.2145 10.9082 74.6834 11.5017 74.6834 12.4438C74.6834 13.3901 74.2186 13.9753 73.4674 13.9753C72.712 13.9753 72.2596 13.3984 72.2596 12.4397C72.2596 11.4893 72.7162 10.9082 73.4674 10.9082Z" fill="white"/>
<path d="M81.3457 14.7888C82.6655 14.7888 83.4748 13.9048 83.4748 12.4397C83.4748 10.9829 82.6613 10.0947 81.3457 10.0947C80.0258 10.0947 79.2124 10.9829 79.2124 12.4397C79.2124 13.9048 80.0217 14.7888 81.3457 14.7888ZM81.3457 13.9961C80.5695 13.9961 80.1337 13.4275 80.1337 12.4397C80.1337 11.4602 80.5695 10.8875 81.3457 10.8875C82.1176 10.8875 82.5576 11.4602 82.5576 12.4397C82.5576 13.4233 82.1176 13.9961 81.3457 13.9961Z" fill="white"/>
<path d="M84.656 14.7017H85.5483V12.0579C85.5483 11.3523 85.9675 10.9124 86.6274 10.9124C87.2874 10.9124 87.6028 11.2734 87.6028 11.9998V14.7017H88.4951V11.7756C88.4951 10.7007 87.939 10.0947 86.9304 10.0947C86.2498 10.0947 85.8015 10.3977 85.5815 10.8999H85.5151V10.1819H84.656V14.7017Z" fill="white"/>
<path d="M92.6048 9.05713V10.2026H91.8868V10.9539H92.6048V13.5063C92.6048 14.3779 92.9991 14.7266 93.9911 14.7266C94.1654 14.7266 94.3314 14.7058 94.4767 14.6809V13.938C94.3521 13.9504 94.2733 13.9587 94.1363 13.9587C93.6922 13.9587 93.4972 13.7512 93.4972 13.2781V10.9539H94.4767V10.2026H93.4972V9.05713H92.6048Z" fill="white"/>
<path d="M95.6745 14.7017H96.5668V12.062C96.5668 11.3772 96.9735 10.9165 97.704 10.9165C98.3349 10.9165 98.671 11.2817 98.671 12.0039V14.7017H99.5634V11.7839C99.5634 10.709 98.9699 10.0989 98.007 10.0989C97.3263 10.0989 96.849 10.4019 96.6291 10.9082H96.5585V8.41797H95.6745V14.7017Z" fill="white"/>
<path d="M102.782 10.8542C103.442 10.8542 103.874 11.3149 103.895 12.0247H101.612C101.662 11.3191 102.123 10.8542 102.782 10.8542ZM103.891 13.4814C103.725 13.8342 103.355 14.0293 102.816 14.0293C102.102 14.0293 101.641 13.5271 101.612 12.7344V12.6846H104.804V12.3733C104.804 10.9539 104.044 10.0947 102.787 10.0947C101.512 10.0947 100.703 11.012 100.703 12.4563C100.703 13.9006 101.496 14.7888 102.791 14.7888C103.824 14.7888 104.546 14.2908 104.75 13.4814H103.891Z" fill="white"/>
<path d="M24.77 20.2991C24.7916 18.6181 25.6944 17.0275 27.1265 16.147C26.2231 14.8567 24.7098 14.0386 23.1354 13.9894C21.4561 13.8131 19.8282 14.9942 18.9725 14.9942C18.1002 14.9942 16.7827 14.0069 15.364 14.0361C13.5147 14.0958 11.7907 15.1472 10.891 16.7639C8.95705 20.1123 10.3996 25.0334 12.2522 27.74C13.1791 29.0654 14.2624 30.5458 15.6799 30.4933C17.0669 30.4358 17.585 29.6088 19.2593 29.6088C20.918 29.6088 21.4041 30.4933 22.8503 30.4599C24.3387 30.4358 25.2764 29.1287 26.1708 27.7908C26.8368 26.8464 27.3492 25.8027 27.6892 24.6983C25.9401 23.9585 24.772 22.1982 24.77 20.2991Z" fill="white"/>
<path d="M22.0383 12.2094C22.8498 11.2352 23.2496 9.98298 23.1528 8.71875C21.913 8.84897 20.7677 9.44153 19.9452 10.3784C19.141 11.2937 18.7224 12.5238 18.8015 13.7397C20.0418 13.7525 21.2611 13.176 22.0383 12.2094Z" fill="white"/>
<rect x="0.5" y="0.5" width="119" height="39" rx="6.5" stroke="#A6A6A6"/>
</svg>
