<svg width="200" height="200" viewBox="0 0 200 200" fill="none" xmlns="http://www.w3.org/2000/svg">
<path d="M0 12C0 5.37258 5.37258 0 12 0H188C194.627 0 200 5.37258 200 12V188C200 194.627 194.627 200 188 200H12C5.37258 200 0 194.627 0 188V12Z" fill="#F2F2F2"/>
<path fill-rule="evenodd" clip-rule="evenodd" d="M59.4681 130.478C69.9092 119.403 84.1882 112.503 99.9998 112.503C115.811 112.503 130.09 119.403 140.531 130.478C141.672 131.688 141.984 133.46 141.325 134.987C140.666 136.514 139.163 137.503 137.5 137.503H62.4998C60.8368 137.503 59.3331 136.514 58.6741 134.987C58.0152 133.46 58.3273 131.688 59.4681 130.478Z" fill="#979797"/>
<path fill-rule="evenodd" clip-rule="evenodd" d="M77.0831 81.2526C77.0831 68.5961 87.3433 58.3359 99.9998 58.3359C112.656 58.3359 122.916 68.5961 122.916 81.2526C122.916 93.9091 112.656 104.169 99.9998 104.169C87.3433 104.169 77.0831 93.9091 77.0831 81.2526Z" fill="#979797"/>
</svg>
