<svg width="20" height="20" viewBox="0 0 20 20" fill="none" xmlns="http://www.w3.org/2000/svg">
<path d="M6.98356 7.37389C7.56356 8.5819 8.35422 9.71411 9.35553 10.7154C10.3568 11.7167 11.4891 12.5074 12.6971 13.0874C12.801 13.1373 12.8529 13.1622 12.9187 13.1814C13.1523 13.2495 13.4392 13.2006 13.637 13.0589C13.6927 13.019 13.7403 12.9714 13.8356 12.8761C14.1269 12.5848 14.2726 12.4391 14.4191 12.3439C14.9715 11.9847 15.6837 11.9847 16.2361 12.3439C16.3825 12.4391 16.5282 12.5848 16.8196 12.8761L16.9819 13.0385C17.4248 13.4814 17.6462 13.7028 17.7665 13.9407C18.0058 14.4136 18.0058 14.9722 17.7665 15.4451C17.6462 15.683 17.4248 15.9044 16.9819 16.3473L16.8506 16.4786C16.4092 16.92 16.1886 17.1407 15.8885 17.3092C15.5556 17.4962 15.0385 17.6307 14.6567 17.6295C14.3126 17.6285 14.0774 17.5618 13.607 17.4283C11.0792 16.7108 8.69387 15.3571 6.70388 13.3671C4.7139 11.3771 3.36017 8.99179 2.6427 6.46396C2.50919 5.99358 2.44244 5.7584 2.44141 5.41428C2.44028 5.03242 2.57475 4.51535 2.76176 4.18243C2.9303 3.8824 3.15098 3.66172 3.59233 3.22037L3.72369 3.08901C4.16656 2.64614 4.388 2.42471 4.62581 2.30442C5.09878 2.06519 5.65734 2.06519 6.1303 2.30442C6.36812 2.42471 6.58955 2.64614 7.03242 3.08901L7.19481 3.2514C7.48615 3.54274 7.63182 3.68841 7.72706 3.83489C8.08622 4.3873 8.08622 5.09945 7.72706 5.65186C7.63182 5.79834 7.48615 5.94401 7.19481 6.23535C7.09955 6.33061 7.05192 6.37824 7.01206 6.43391C6.87038 6.63177 6.82146 6.91865 6.88957 7.15228C6.90873 7.21803 6.93367 7.26998 6.98356 7.37389Z" stroke="#030F1A" stroke-width="1.6" stroke-linecap="round" stroke-linejoin="round"/>
</svg>
