<svg width="48" height="48" viewBox="0 0 48 48" fill="none" xmlns="http://www.w3.org/2000/svg">
<path d="M0 8C0 3.58172 3.58172 0 8 0H40C44.4183 0 48 3.58172 48 8V40C48 44.4183 44.4183 48 40 48H8C3.58172 48 0 44.4183 0 40V8Z" fill="#ED1B2E"/>
<path d="M20.9836 21.3739C21.5636 22.5819 22.3542 23.7141 23.3555 24.7154C24.3568 25.7167 25.4891 26.5074 26.6971 27.0874C26.801 27.1373 26.8529 27.1622 26.9187 27.1814C27.1523 27.2495 27.4392 27.2006 27.637 27.0589C27.6927 27.019 27.7403 26.9714 27.8356 26.8761C28.1269 26.5848 28.2726 26.4391 28.4191 26.3439C28.9715 25.9847 29.6837 25.9847 30.2361 26.3439C30.3825 26.4391 30.5282 26.5848 30.8196 26.8761L30.9819 27.0385C31.4248 27.4814 31.6462 27.7028 31.7665 27.9407C32.0058 28.4136 32.0058 28.9722 31.7665 29.4451C31.6462 29.683 31.4248 29.9044 30.9819 30.3473L30.8506 30.4786C30.4092 30.92 30.1886 31.1407 29.8885 31.3092C29.5556 31.4962 29.0385 31.6307 28.6567 31.6295C28.3126 31.6285 28.0774 31.5618 27.607 31.4283C25.0792 30.7108 22.6939 29.3571 20.7039 27.3671C18.7139 25.3771 17.3602 22.9918 16.6427 20.464C16.5092 19.9936 16.4424 19.7584 16.4414 19.4143C16.4403 19.0324 16.5747 18.5153 16.7618 18.1824C16.9303 17.8824 17.151 17.6617 17.5923 17.2204L17.7237 17.089C18.1666 16.6461 18.388 16.4247 18.6258 16.3044C19.0988 16.0652 19.6573 16.0652 20.1303 16.3044C20.3681 16.4247 20.5896 16.6461 21.0324 17.089L21.1948 17.2514C21.4862 17.5427 21.6318 17.6884 21.7271 17.8349C22.0862 18.3873 22.0862 19.0994 21.7271 19.6519C21.6318 19.7983 21.4862 19.944 21.1948 20.2353C21.0996 20.3306 21.0519 20.3782 21.0121 20.4339C20.8704 20.6318 20.8215 20.9187 20.8896 21.1523C20.9087 21.218 20.9337 21.27 20.9836 21.3739Z" stroke="white" stroke-width="2" stroke-linecap="round" stroke-linejoin="round"/>
</svg>
