<svg width="20" height="20" viewBox="0 0 20 20" fill="none" xmlns="http://www.w3.org/2000/svg">
<path d="M18.3327 9.58073V12.1641C18.3327 14.0309 18.3327 14.9643 17.9694 15.6774C17.6498 16.3046 17.1399 16.8145 16.5127 17.1341C15.7996 17.4974 14.8662 17.4974 12.9993 17.4974H6.99935C5.13251 17.4974 4.19909 17.4974 3.48605 17.1341C2.85884 16.8145 2.34891 16.3046 2.02933 15.6774C1.66602 14.9643 1.66602 14.0309 1.66602 12.1641V7.83073C1.66602 5.96389 1.66602 5.03047 2.02933 4.31743C2.34891 3.69022 2.85884 3.18029 3.48605 2.86071C4.19909 2.4974 5.13251 2.4974 6.99935 2.4974H10.416M15.8327 6.66406V1.66406M13.3327 4.16406H18.3327M13.3327 9.9974C13.3327 11.8383 11.8403 13.3307 9.99935 13.3307C8.1584 13.3307 6.66602 11.8383 6.66602 9.9974C6.66602 8.15645 8.1584 6.66406 9.99935 6.66406C11.8403 6.66406 13.3327 8.15645 13.3327 9.9974Z" stroke="#005BBD" stroke-width="1.6" stroke-linecap="round" stroke-linejoin="round"/>
</svg>
