<svg width="16" height="16" viewBox="0 0 16 16" fill="none" xmlns="http://www.w3.org/2000/svg">
<g id="icons8-checkmark 2">
<path id="Vector" d="M14.6666 8C14.6666 11.6817 11.6816 14.6667 7.99998 14.6667C4.31831 14.6667 1.33331 11.6817 1.33331 8C1.33331 4.31833 4.31831 1.33333 7.99998 1.33333C11.6816 1.33333 14.6666 4.31833 14.6666 8Z" fill="#E6EAED"/>
<path id="Vector_2" d="M7.09767 10.9023L4.431 8.23567C4.30067 8.10533 4.30067 7.89433 4.431 7.76433L4.90234 7.293C5.03267 7.16267 5.24367 7.16267 5.37367 7.293L7.33334 9.25267L10.9597 5.62633C11.09 5.496 11.301 5.496 11.431 5.62633L11.9023 6.09767C12.0327 6.228 12.0327 6.439 11.9023 6.569L7.569 10.9023C7.439 11.0327 7.22767 11.0327 7.09767 10.9023Z" fill="white"/>
</g>
</svg>
