<svg width="16" height="16" viewBox="0 0 16 16" fill="none" xmlns="http://www.w3.org/2000/svg">
<path d="M14.6663 8.0026C14.6663 11.6843 11.6813 14.6693 7.99967 14.6693C4.31801 14.6693 1.33301 11.6843 1.33301 8.0026C1.33301 4.32094 4.31801 1.33594 7.99967 1.33594C11.6813 1.33594 14.6663 4.32094 14.6663 8.0026Z" fill="#078D79"/>
<path d="M7.09742 10.905L4.43076 8.23833C4.30042 8.108 4.30042 7.897 4.43076 7.767L4.90209 7.29567C5.03242 7.16533 5.24342 7.16533 5.37342 7.29567L7.33309 9.25533L10.9594 5.629C11.0898 5.49867 11.3008 5.49867 11.4308 5.629L11.9021 6.10033C12.0324 6.23067 12.0324 6.44167 11.9021 6.57167L7.56876 10.905C7.43876 11.0353 7.22742 11.0353 7.09742 10.905Z" fill="white"/>
</svg>
