<svg width="72" height="72" viewBox="0 0 72 72" fill="none" xmlns="http://www.w3.org/2000/svg">
<path d="M45.792 24.444L30.348 39.924L24.408 33.984C23.5282 32.9566 22.1468 32.5091 20.8317 32.8255C19.5166 33.1418 18.4898 34.1686 18.1735 35.4837C17.8571 36.7988 18.3046 38.1802 19.332 39.06L27.792 47.556C28.4714 48.2299 29.3911 48.6055 30.348 48.6C31.2924 48.596 32.1975 48.2211 32.868 47.556L50.868 29.556C51.5495 28.88 51.9329 27.9599 51.9329 27C51.9329 26.0401 51.5495 25.12 50.868 24.444C49.4639 23.0482 47.1961 23.0482 45.792 24.444ZM36 0C16.1178 0 0 16.1178 0 36C0 55.8823 16.1178 72 36 72C55.8823 72 72 55.8822 72 36C72 16.1178 55.8822 0 36 0ZM36 64.8C20.0942 64.8 7.2 51.9058 7.2 36C7.2 20.0942 20.0942 7.2 36 7.2C51.9058 7.2 64.8 20.0942 64.8 36C64.8 51.9058 51.9058 64.8 36 64.8Z" fill="#078D79"/>
</svg>
