<svg width="32" height="32" viewBox="0 0 32 32" fill="none" xmlns="http://www.w3.org/2000/svg">
<path d="M26 10.6693V27.3359C26 28.0726 25.4033 28.6693 24.6667 28.6693H7.33333C6.59667 28.6693 6 28.0726 6 27.3359V4.66927C6 3.9326 6.59667 3.33594 7.33333 3.33594H18.6667L20.6667 8.66927L26 10.6693Z" fill="#050605"/>
<path d="M18.667 3.33594V9.33594C18.667 10.0726 19.2637 10.6693 20.0003 10.6693H26.0003L18.667 3.33594Z" fill="#FFD522"/>
<path d="M21.6667 15.9974H10.3333C10.1493 15.9974 10 15.8481 10 15.6641V14.9974C10 14.8134 10.1493 14.6641 10.3333 14.6641H21.6667C21.8507 14.6641 22 14.8134 22 14.9974V15.6641C22 15.8481 21.8507 15.9974 21.6667 15.9974Z" fill="#FFD522"/>
<path d="M20.3333 18.6693H10.3333C10.1493 18.6693 10 18.5199 10 18.3359V17.6693C10 17.4853 10.1493 17.3359 10.3333 17.3359H20.3333C20.5173 17.3359 20.6667 17.4853 20.6667 17.6693V18.3359C20.6667 18.5199 20.5173 18.6693 20.3333 18.6693Z" fill="#FFD522"/>
<path d="M21.6667 21.3333H10.3333C10.1493 21.3333 10 21.184 10 21V20.3333C10 20.1493 10.1493 20 10.3333 20H21.6667C21.8507 20 22 20.1493 22 20.3333V21C22 21.184 21.8507 21.3333 21.6667 21.3333Z" fill="#FFD522"/>
<path d="M20.3333 23.9974H10.3333C10.1493 23.9974 10 23.8481 10 23.6641V22.9974C10 22.8134 10.1493 22.6641 10.3333 22.6641H20.3333C20.5173 22.6641 20.6667 22.8134 20.6667 22.9974V23.6641C20.6667 23.8481 20.5173 23.9974 20.3333 23.9974Z" fill="#FFD522"/>
</svg>
