<svg width="15" height="20" viewBox="0 0 15 20" fill="none" xmlns="http://www.w3.org/2000/svg">
<path d="M9.16732 1.92773V5.36985C9.16732 5.83656 9.16732 6.06992 9.25815 6.24818C9.33804 6.40498 9.46552 6.53246 9.62233 6.61236C9.80058 6.70318 10.0339 6.70318 10.5007 6.70318H13.9428M10.834 10.8698H4.16732M10.834 14.2031H4.16732M5.83398 7.53646H4.16732M9.16732 1.70312H4.83398C3.43385 1.70312 2.73379 1.70312 2.19901 1.97561C1.7286 2.21529 1.34615 2.59774 1.10647 3.06815C0.833984 3.60293 0.833984 4.30299 0.833984 5.70313V14.3698C0.833984 15.7699 0.833984 16.47 1.10647 17.0048C1.34615 17.4752 1.7286 17.8576 2.19901 18.0973C2.73379 18.3698 3.43385 18.3698 4.83398 18.3698H10.1673C11.5674 18.3698 12.2675 18.3698 12.8023 18.0973C13.2727 17.8576 13.6552 17.4752 13.8948 17.0048C14.1673 16.47 14.1673 15.7699 14.1673 14.3698V6.70313L9.16732 1.70312Z" stroke="#030F1A" stroke-width="1.6" stroke-linecap="round" stroke-linejoin="round"/>
</svg>
