<svg width="16" height="16" viewBox="0 0 16 16" fill="none" xmlns="http://www.w3.org/2000/svg">
<path fill-rule="evenodd" clip-rule="evenodd" d="M8.00033 0.664062C3.95024 0.664062 0.666992 3.94731 0.666992 7.9974C0.666992 12.0475 3.95024 15.3307 8.00033 15.3307C12.0504 15.3307 15.3337 12.0475 15.3337 7.9974C15.3337 3.94731 12.0504 0.664062 8.00033 0.664062ZM10.4717 5.52599C10.7321 5.78634 10.7321 6.20845 10.4717 6.4688L8.94313 7.9974L10.4717 9.52599C10.7321 9.78634 10.7321 10.2085 10.4717 10.4688C10.2114 10.7291 9.78927 10.7291 9.52892 10.4688L8.00033 8.9402L6.47173 10.4688C6.21138 10.7291 5.78927 10.7291 5.52892 10.4688C5.26857 10.2085 5.26857 9.78634 5.52892 9.52599L7.05752 7.9974L5.52892 6.4688C5.26857 6.20845 5.26857 5.78634 5.52892 5.52599C5.78927 5.26564 6.21138 5.26564 6.47173 5.52599L8.00033 7.05459L9.52892 5.52599C9.78927 5.26564 10.2114 5.26564 10.4717 5.52599Z" fill="#C4C4C4"/>
</svg>
