<svg width="24" height="24" viewBox="0 0 24 24" fill="none" xmlns="http://www.w3.org/2000/svg">
<path d="M20.7632 5.13383C20.7322 9.04783 20.2362 11.7248 18.3172 14.5818C16.3982 17.4388 13.1172 18.1458 12.7312 16.5448C12.3452 14.9438 16.5192 15.3618 17.1142 13.9548C17.2397 13.6838 17.2814 13.3815 17.234 13.0866C17.1866 12.7918 17.0522 12.5178 16.8481 12.2997C16.644 12.0817 16.3795 11.9295 16.0885 11.8627C15.7974 11.7959 15.4929 11.8175 15.2142 11.9248C14.0322 12.2578 12.4382 13.2358 13.1242 11.7248C13.8102 10.2138 17.7312 10.5898 17.1852 8.18781C16.6392 5.78581 14.0052 8.83582 13.3852 8.43482C12.8332 8.07782 13.2852 7.41081 13.9852 6.54981C15.3552 5.07381 16.7762 5.19782 16.9592 3.89982C17.1422 2.60182 16.0242 1.44682 14.1852 1.73582C12.3462 2.02482 12.3762 3.98482 11.4092 3.89982C10.4422 3.81482 11.0232 1.59181 9.64424 1.13181C9.37538 1.01447 9.0835 0.959192 8.79036 0.970101C8.49721 0.981009 8.21033 1.05783 7.95094 1.19483C7.69155 1.33183 7.46635 1.52549 7.29207 1.76145C7.11778 1.99741 6.99889 2.2696 6.94423 2.55781C6.89767 2.84872 6.91851 3.14645 7.0052 3.42802C7.09189 3.70958 7.24211 3.96746 7.44423 4.1818C5.82823 4.6048 3.58521 5.9098 2.48921 9.5268C1.63612 12.6305 1.89795 15.9352 3.2292 18.8658C3.2602 14.9518 3.75618 12.2758 5.67518 9.41782C7.59418 6.55982 10.8752 5.85281 11.2612 7.45481C11.6472 9.05681 7.47319 8.63681 6.87819 10.0448C6.75273 10.3158 6.71109 10.6181 6.7585 10.913C6.8059 11.2079 6.94022 11.4819 7.1443 11.6999C7.34838 11.918 7.61292 12.0701 7.904 12.1369C8.19509 12.2037 8.49949 12.1821 8.77821 12.0748C9.96021 11.7418 11.5542 10.7628 10.8682 12.2748C10.1822 13.7868 6.2622 13.4098 6.8072 15.8128C7.3522 18.2158 9.98719 15.1648 10.6072 15.5658C11.1582 15.9228 10.7072 16.5898 10.0072 17.4498C8.63622 18.9268 7.21524 18.8028 7.03224 20.1008C6.84924 21.3988 7.96723 22.5528 9.80623 22.2648C11.6452 21.9768 11.6162 20.0158 12.5822 20.1008C13.5482 20.1858 12.9682 22.4088 14.3472 22.8688C14.6161 22.9862 14.9079 23.0414 15.2011 23.0305C15.4942 23.0196 15.7811 22.9428 16.0405 22.8058C16.2999 22.6688 16.5251 22.4751 16.6994 22.2392C16.8736 22.0032 16.9925 21.731 17.0472 21.4428C17.0937 21.1519 17.0728 20.8542 16.9861 20.5727C16.8994 20.2911 16.7492 20.0332 16.5472 19.8188C18.1632 19.3958 20.4062 18.0898 21.5022 14.4728C22.3556 11.3692 22.0941 8.06461 20.7632 5.13383Z" fill="white"/>
</svg>
