<svg width="18" height="17" viewBox="0 0 18 17" fill="none" xmlns="http://www.w3.org/2000/svg">
<path d="M0.655151 14.2092C0.655151 17.1021 1.9682 17.6046 3.72533 16.3654L11.6468 10.6697C12.6478 9.97349 13.0871 9.22548 13.0871 8.5H0.655151V14.2092Z" fill="#009F9F"/>
<path d="M17.6551 14.2092C17.6551 17.1021 16.3421 17.6046 14.585 16.3654L6.66348 10.6697C5.66249 9.97349 5.22321 9.22548 5.22321 8.5H17.6359L17.6551 14.2092Z" fill="#EF4923"/>
<path d="M17.6551 2.79079C17.6551 -0.102123 16.3421 -0.604553 14.585 0.634621L6.66348 6.33032C5.66249 7.02651 5.22321 7.77452 5.22321 8.5H17.6359L17.6551 2.79079Z" fill="#F8971D"/>
<path d="M0.655151 2.79079C0.655151 -0.102123 1.9682 -0.604553 3.72533 0.634621L11.6468 6.33032C12.6478 7.02651 13.0871 7.77452 13.0871 8.5H0.655151V2.79079Z" fill="#082F4D"/>
</svg>
