<svg width="32" height="33" viewBox="0 0 32 33" fill="none" xmlns="http://www.w3.org/2000/svg">
<rect x="7.58789" y="8.63281" width="17.6989" height="17.6989" fill="#FFD522"/>
<path d="M25.625 9H20V12.75H12.5V9H6.875C5.83984 9 5 9.83984 5 10.875V24.625C5 25.6602 5.83984 26.5 6.875 26.5H25.625C26.6602 26.5 27.5 25.6602 27.5 24.625V10.875C27.5 9.83984 26.6602 9 25.625 9ZM16.25 15.25C17.6289 15.25 18.75 16.3711 18.75 17.75C18.75 19.1289 17.6289 20.25 16.25 20.25C14.8711 20.25 13.75 19.1289 13.75 17.75C13.75 16.3711 14.8711 15.25 16.25 15.25ZM19.8945 24H12.6055C12.1992 24 11.8711 23.6094 11.9961 23.2266C12.3203 22.2266 13.2617 21.5 14.375 21.5H14.6953C15.1758 21.6992 15.6992 21.8125 16.25 21.8125C16.8008 21.8125 17.3281 21.6992 17.8047 21.5H18.125C19.2344 21.5 20.1758 22.2227 20.5039 23.2266C20.6289 23.6094 20.3008 24 19.8945 24ZM18.75 7.75C18.75 7.05859 18.1914 6.5 17.5 6.5H15C14.3086 6.5 13.75 7.05859 13.75 7.75V11.5H18.75V7.75Z" fill="black"/>
</svg>
