<svg width="24" height="24" viewBox="0 0 24 24" fill="none" xmlns="http://www.w3.org/2000/svg">
<g clip-path="url(#clip0_7007_62278)">
<path d="M19.4912 12.0042L19.5192 11.9932C20.3857 11.6274 21.1487 11.0538 21.741 10.3231C22.3332 9.59247 22.7365 8.72721 22.915 7.80376C23.0936 6.88032 23.042 5.92711 22.7648 5.02832C22.4877 4.12953 21.9934 3.31282 21.3258 2.65033C20.6582 1.98783 19.8377 1.49994 18.9367 1.22974C18.0358 0.959534 17.0823 0.915336 16.1602 1.10105C15.2382 1.28675 14.3761 1.69666 13.65 2.29455C12.9239 2.89245 12.3563 3.65993 11.9972 4.52923V4.52022C11.6358 3.65399 11.0667 2.89003 10.3402 2.29577C9.61372 1.70152 8.7521 1.29525 7.83141 1.11281C6.91072 0.930367 5.95927 0.977376 5.06105 1.24968C4.16283 1.52199 3.34545 2.01122 2.68106 2.67419C2.01666 3.33717 1.52569 4.1535 1.25146 5.05114C0.977234 5.94878 0.928191 6.90012 1.10866 7.8212C1.28913 8.74227 1.69357 9.60476 2.28627 10.3325C2.87897 11.0603 3.6417 11.631 4.50717 11.9942H4.50017C3.63131 12.3569 2.86524 12.9281 2.26976 13.6574C1.67427 14.3866 1.26773 15.2514 1.08611 16.1753C0.904482 17.0991 0.953378 18.0534 1.22847 18.9538C1.50355 19.8543 1.99635 20.673 2.66325 21.3376C3.33015 22.0022 4.15058 22.4921 5.05195 22.7641C5.95332 23.036 6.90783 23.0816 7.83101 22.8968C8.75419 22.712 9.61758 22.3024 10.3448 21.7044C11.072 21.1064 11.6405 20.3383 12.0002 19.4682C12.3605 20.3351 12.9287 21.0999 13.6547 21.6951C14.3806 22.2903 15.242 22.6976 16.1627 22.8809C17.0834 23.0643 18.0351 23.0181 18.9337 22.7464C19.8323 22.4748 20.6502 21.986 21.3151 21.3233C21.98 20.6606 22.4715 19.8444 22.7462 18.9467C23.0208 18.049 23.0702 17.0975 22.8899 16.1762C22.7096 15.2549 22.3053 14.3921 21.7125 13.6642C21.1197 12.9362 20.3568 12.3654 19.4912 12.0022V12.0042ZM11.9912 15.0752C11.4134 13.6881 10.3121 12.5847 8.92617 12.0042L8.95417 11.9932C10.3331 11.4063 11.4261 10.3008 11.9972 8.91523C12.5767 10.303 13.677 11.4084 15.0622 11.9942H15.0552C13.6693 12.5823 12.5708 13.6923 11.9972 15.0842L11.9912 15.0752ZM13.4912 8.18423C13.5272 8.19823 13.5632 8.21122 13.5992 8.22722C14.1018 8.4395 14.5568 8.75049 14.9371 9.14178C15.3174 9.53308 15.6153 9.99671 15.8132 10.5052C15.2879 10.2991 14.8109 9.98648 14.4123 9.58703C14.0138 9.18759 13.7022 8.70997 13.4972 8.18423H13.4912ZM8.20917 10.5042C8.41488 9.97766 8.72751 9.49946 9.12734 9.0998C9.52717 8.70014 10.0055 8.38771 10.5322 8.18223C10.3268 8.70854 10.0147 9.18659 9.61539 9.58624C9.21608 9.98589 8.7383 10.2984 8.21217 10.5042H8.20917ZM8.31817 13.5042C8.82084 13.7165 9.2758 14.0275 9.6561 14.4188C10.0364 14.8101 10.3343 15.2737 10.5322 15.7822C10.0057 15.577 9.52742 15.2649 9.1276 14.8656C8.72777 14.4663 8.41505 13.9885 8.20917 13.4622C8.24817 13.4762 8.28517 13.4892 8.32017 13.5042H8.31817ZM15.8182 13.4602C15.6127 13.9866 15.3004 14.4647 14.9009 14.8644C14.5015 15.2641 14.0235 15.5766 13.4972 15.7822C13.7024 15.256 14.0145 14.7781 14.4136 14.3784C14.8127 13.9788 15.2902 13.6662 15.8162 13.4602H15.8182ZM17.2922 2.62723C18.3518 2.62117 19.3722 3.02803 20.1369 3.76156C20.9017 4.49508 21.3507 5.49761 21.3888 6.55659C21.4269 7.61558 21.0511 8.64778 20.3411 9.43437C19.631 10.221 18.6425 10.7001 17.5852 10.7702C17.3508 9.7039 16.8161 8.72697 16.0442 7.95488C15.2722 7.18279 14.2954 6.64783 13.2292 6.41323C13.3031 5.38634 13.7628 4.42544 14.5158 3.72339C15.2689 3.02134 16.2596 2.63011 17.2892 2.62823L17.2922 2.62723ZM2.65317 6.71023C2.66589 5.66349 3.08045 4.66168 3.81111 3.91204C4.54176 3.1624 5.53261 2.72228 6.57867 2.68271C7.62474 2.64315 8.646 3.00718 9.43119 3.69949C10.2164 4.39181 10.7054 5.35944 10.7972 6.40223C9.72191 6.62787 8.73517 7.16051 7.95652 7.93561C7.17787 8.71072 6.64072 9.69501 6.41017 10.7692C5.38837 10.6888 4.43436 10.2264 3.73813 9.47422C3.0419 8.72202 2.65453 7.73518 2.65317 6.71023ZM6.73817 21.3372C5.68273 21.3416 4.66674 20.9364 3.90399 20.2069C3.14123 19.4774 2.6912 18.4805 2.64857 17.4259C2.60595 16.3713 2.97406 15.3413 3.67545 14.5526C4.37684 13.7639 5.35682 13.278 6.40917 13.1972C6.64154 14.2736 7.17888 15.2603 7.957 16.0395C8.73511 16.8187 9.7211 17.3574 10.7972 17.5912C10.7139 18.611 10.2503 19.5621 9.49842 20.256C8.74654 20.9499 7.7613 21.3359 6.73817 21.3372ZM17.3002 21.3372C16.2748 21.3386 15.2866 20.9536 14.5323 20.259C13.7781 19.5644 13.3131 18.6112 13.2302 17.5892C14.3045 17.3577 15.2886 16.8192 16.0629 16.0392C16.8372 15.2592 17.3685 14.2713 17.5922 13.1952C18.6467 13.2692 19.6313 13.75 20.3381 14.5362C21.0449 15.3223 21.4186 16.3524 21.3803 17.4088C21.342 18.4653 20.8948 19.4656 20.133 20.1985C19.3711 20.9315 18.3543 21.3398 17.2972 21.3372H17.3002Z" fill="white"/>
</g>
<defs>
<clipPath id="clip0_7007_62278">
<rect width="24" height="24" fill="white"/>
</clipPath>
</defs>
</svg>
