<svg width="72" height="72" viewBox="0 0 72 72" fill="none" xmlns="http://www.w3.org/2000/svg">
<path d="M48 22.5V64.5H15C11.7 64.5 9 61.8 9 58.5V22.5H48Z" fill="black"/>
<path d="M21 7.5V58.5C21 61.8 18.3 64.5 15 64.5H58.5C61.8 64.5 64.5 61.8 64.5 58.5V7.5H21Z" fill="#FFD147"/>
<path d="M30 15H57V21H30V15ZM30 25.5H42V28.5H30V25.5ZM45 25.5H57V28.5H45V25.5ZM30 31.5H42V34.5H30V31.5ZM45 31.5H57V34.5H45V31.5ZM30 37.5H42V40.5H30V37.5ZM45 37.5H57V40.5H45V37.5ZM30 43.5H42V46.5H30V43.5ZM45 43.5H57V46.5H45V43.5ZM30 49.5H42V52.5H30V49.5ZM45 49.5H57V52.5H45V49.5ZM30 55.5H42V58.5H30V55.5ZM45 55.5H57V58.5H45V55.5Z" fill="black"/>
</svg>
