<svg width="72" height="72" viewBox="0 0 72 72" fill="none" xmlns="http://www.w3.org/2000/svg">
<path d="M36 43.2C33.5147 43.2 31.5 45.2147 31.5 47.7C31.5 50.1853 33.5147 52.2 36 52.2C38.4853 52.2 40.5 50.1853 40.5 47.7C40.5 45.2147 38.4853 43.2 36 43.2ZM36 37.8C37.9882 37.8 39.6 36.1882 39.6 34.2V23.4C39.6 21.4118 37.9882 19.8 36 19.8C34.0118 19.8 32.4 21.4118 32.4 23.4V34.2C32.4 36.1882 34.0118 37.8 36 37.8ZM36 0C16.1177 0 0 16.1177 0 36C0 55.8823 16.1177 72 36 72C55.8823 72 72 55.8822 72 36C71.9779 16.1269 55.8731 0.0220964 36 0ZM36 64.8C20.0942 64.8 7.2 51.9058 7.2 36C7.2 20.0942 20.0942 7.2 36 7.2C51.9058 7.2 64.8 20.0942 64.8 36C64.7818 51.8983 51.8983 64.7818 36 64.8Z" fill="#D80027"/>
</svg>
