<svg width="16" height="16" viewBox="0 0 16 16" fill="none" xmlns="http://www.w3.org/2000/svg">
<path fill-rule="evenodd" clip-rule="evenodd" d="M10.862 1.5288C11.8587 0.532067 13.4747 0.532069 14.4714 1.5288C15.4682 2.52553 15.4682 4.14155 14.4714 5.13827L6.92705 12.6827C6.77147 12.8383 6.65373 12.9561 6.52075 13.0593C6.40321 13.1505 6.27823 13.2317 6.14713 13.3021C5.99883 13.3817 5.84342 13.4414 5.63797 13.5204L5.55452 13.5525C5.53364 13.5606 5.51292 13.5685 5.49255 13.5764L1.90601 14.9558C1.66011 15.0504 1.38158 14.9913 1.19528 14.805C1.06793 14.6776 1.00001 14.5072 1 14.3335C0.99999 14.2531 1.01453 14.172 1.04446 14.0942L2.4798 10.3623C2.55877 10.1568 2.6185 10.0014 2.69812 9.85309C2.76849 9.72199 2.84971 9.59701 2.94092 9.47947C3.04412 9.34648 3.16189 9.22878 3.31757 9.07317L10.862 1.5288ZM3.58733 11.197L2.82738 13.1728L4.80321 12.4129L3.58733 11.197Z" fill="#030F1A"/>
<path d="M8.66667 13.3337H14C14.3682 13.3337 14.6667 13.6321 14.6667 14.0003C14.6667 14.3685 14.3682 14.667 14 14.667H8.66667C8.29848 14.667 8 14.3685 8 14.0003C8 13.6321 8.29848 13.3337 8.66667 13.3337Z" fill="#030F1A"/>
</svg>
