<svg width="32" height="32" viewBox="0 0 32 32" fill="none" xmlns="http://www.w3.org/2000/svg">
<rect width="32" height="32" rx="4" fill="black"/>
<path d="M25.9167 14.2513C26.5613 14.2513 27.0833 13.7292 27.0833 13.0846V6.08464C27.0833 5.44005 26.5613 4.91797 25.9167 4.91797H18.9167C18.2721 4.91797 17.75 5.44005 17.75 6.08464V7.83464H16V10.168H17.75V13.0846C17.75 13.7292 18.2721 14.2513 18.9167 14.2513H22.4167V16.5846H24.75V14.2513H25.9167ZM20.0833 11.918V7.2513H24.75V11.918H20.0833Z" fill="#FFD522"/>
<path d="M24.7493 22.418H22.416V24.7513H24.7493V22.418Z" fill="#FFD522"/>
<path d="M27.0833 20.082H24.75V22.4154H27.0833V20.082Z" fill="#FFD522"/>
<path d="M25.9167 27.0833C26.5613 27.0833 27.0833 26.5613 27.0833 25.9167V24.75H24.75V27.0833H25.9167Z" fill="#FFD522"/>
<path d="M22.4173 20.082H20.084V22.4154H22.4173V20.082Z" fill="#FFD522"/>
<path d="M22.4173 24.75H20.084V27.0833H22.4173V24.75Z" fill="#FFD522"/>
<path d="M10.7493 21.25H8.41602V23.5833H10.7493V21.25Z" fill="#FFD522"/>
<path d="M10.7493 8.41797H8.41602V10.7513H10.7493V8.41797Z" fill="#FFD522"/>
<path d="M23.5833 8.41797H21.25V10.7513H23.5833V8.41797Z" fill="#FFD522"/>
<path d="M27.0833 16.582H24.75V18.9154H27.0833V16.582Z" fill="#FFD522"/>
<path d="M17.7493 16.5833V14.25H14.2493V16.5833H11.916V17.75H9.58268V16.5833H7.24935V17.75H6.08268C5.4381 17.75 4.91602 18.2721 4.91602 18.9167V25.9167C4.91602 26.5613 5.4381 27.0833 6.08268 27.0833H13.0827C13.7273 27.0833 14.2493 26.5613 14.2493 25.9167V23.5833H16.5827V24.75H18.916V18.9167H20.0827H22.416V16.5833H20.0827H17.7493ZM11.916 24.75H7.24935V20.0833H11.916V24.75ZM16.5827 21.25H14.2493V18.9167H15.416H16.5827V21.25Z" fill="#FFD522"/>
<path d="M11.916 14.2513H13.0827C13.7273 14.2513 14.2493 13.7292 14.2493 13.0846V12.5013H15.9993V10.168H14.2493V6.08464C14.2493 5.44005 13.7273 4.91797 13.0827 4.91797H6.08268C5.4381 4.91797 4.91602 5.44005 4.91602 6.08464V13.0846C4.91602 13.7292 5.4381 14.2513 6.08268 14.2513H9.58268V16.5846H11.916V14.2513ZM7.24935 11.918V7.2513H11.916V11.918H7.24935Z" fill="#FFD522"/>
</svg>
