<svg width="24" height="24" viewBox="0 0 24 24" fill="none" xmlns="http://www.w3.org/2000/svg">
<path d="M11.0582 10.1721C11.5072 10.1721 11.8712 9.82377 11.8712 9.3941C11.8712 8.96442 11.5072 8.6161 11.0582 8.6161C10.6092 8.6161 10.2452 8.96442 10.2452 9.3941C10.2452 9.82377 10.6092 10.1721 11.0582 10.1721Z" fill="white"/>
<path d="M19.6711 9.6901C19.5891 9.2901 22.2651 8.92709 22.4891 7.74309C22.7131 6.55909 19.0752 9.1991 18.6682 8.9901C18.2612 8.7811 21.1301 7.19009 20.9371 5.59009C20.7441 3.99009 17.5482 9.30409 17.0802 8.92809C16.6122 8.55209 19.7402 5.55509 19.2002 3.76709C18.6602 1.97909 16.6062 7.70109 15.0532 9.31009C14.2065 10.0796 13.1786 10.6219 12.0655 10.8865C10.9525 11.1511 9.79058 11.1293 8.68823 10.8231C7.77946 10.6893 6.90735 10.3721 6.125 9.89071C5.34264 9.40936 4.66634 8.77395 4.1372 8.02309C3.3832 6.83109 3.79015 4.95109 6.16015 4.90409C8.53015 4.8571 9.93615 8.7661 9.93615 8.7661L10.3602 7.3191L11.3702 8.2481C11.3702 8.2481 11.7182 7.8481 11.6882 6.3051C11.6582 4.7621 11.2882 1.5201 7.2102 2.0501C3.1322 2.5801 0.367198 7.59209 1.1322 11.3641C1.8972 15.1361 6.29022 18.7551 9.77722 19.1071C10.0284 19.1329 10.2808 19.1442 10.5332 19.1411V21.0151H9.02124C8.88896 21.0124 8.76099 21.0623 8.6654 21.1537C8.56981 21.2452 8.51437 21.3708 8.51123 21.5031C8.51437 21.6354 8.56981 21.761 8.6654 21.8525C8.76099 21.9439 8.88896 21.9938 9.02124 21.9911H15.7491C15.8814 21.9938 16.0094 21.9439 16.105 21.8525C16.2006 21.761 16.256 21.6354 16.2592 21.5031C16.256 21.3708 16.2006 21.2452 16.105 21.1537C16.0094 21.0623 15.8814 21.0124 15.7491 21.0151H14.2372V18.0031H14.1912C14.5117 17.8101 14.8714 17.6914 15.2439 17.656C15.6163 17.6205 15.992 17.6691 16.3431 17.7981C16.2261 17.1153 16.1503 16.426 16.1162 15.7341C16.1702 15.6871 17.6161 16.2591 17.6811 16.2231C17.7461 16.1871 17.2632 14.8941 17.4622 14.7231C17.6612 14.5521 18.5622 14.8111 18.6732 14.7911C18.7842 14.7711 18.4661 13.8561 18.2441 13.5361C18.0221 13.2161 19.2941 13.2591 19.3011 13.0641C19.3081 12.8691 18.8562 12.4181 18.4302 12.2841C18.0042 12.1501 19.8682 11.8931 20.0522 11.7491C20.2362 11.6051 19.5572 10.9151 19.7042 10.8691C19.8512 10.8231 22.1042 10.7901 22.8982 10.0691C23.6922 9.3481 19.7501 10.0911 19.6711 9.6901ZM1.88024 10.2631C1.64024 9.3631 2.93923 8.7011 3.61523 9.2371C3.2658 9.26159 2.92676 9.36704 2.62512 9.54511C2.32347 9.72318 2.06746 9.96899 1.87719 10.2631H1.88024ZM2.38024 11.8301C1.86524 10.6011 3.57015 9.4361 4.62915 10.0721C4.1412 10.1673 3.68255 10.3761 3.29028 10.6815C2.898 10.9869 2.58319 11.3804 2.37121 11.8301H2.38024ZM3.32824 13.6771C2.31124 12.2951 4.07325 10.3691 5.58325 10.8611C5.00879 11.1157 4.50361 11.5042 4.11022 11.9942C3.71684 12.4841 3.44659 13.0612 3.32214 13.6771H3.32824ZM4.78515 15.4061C3.37215 13.6431 5.5762 11.0231 7.5852 11.5911C6.84635 11.9553 6.20584 12.4916 5.71752 13.155C5.22921 13.8184 4.90735 14.5894 4.77917 15.4031L4.78515 15.4061ZM13.0282 21.0241H11.7432V19.0031C12.1852 18.8995 12.6157 18.7518 13.0282 18.5621V21.0241ZM11.8802 17.7181C9.45124 18.3761 6.52421 16.0181 6.72021 15.8241C7.63021 14.5541 10.3312 17.5361 11.6062 16.8661C12.8812 16.1961 6.95021 15.2311 7.10021 14.2491C7.25022 13.2671 13.4072 16.5211 13.8082 15.7181C14.2092 14.9151 7.56617 13.9531 8.00817 13.1131C8.45017 12.2731 14.9922 15.1131 15.2922 14.1201C15.5922 13.1271 8.69814 12.7581 8.61914 12.1201C8.54014 11.4821 15.8642 12.0721 16.2992 13.0201C16.7342 13.9681 14.3032 17.0601 11.8712 17.7181H11.8802ZM16.8202 11.7251C16.6652 12.1251 15.1741 11.5661 15.1661 10.8171C15.1581 10.0681 16.5402 9.36709 16.7902 9.70609C17.0402 10.0451 16.2532 10.3451 16.2312 10.8351C16.2032 11.3611 16.9712 11.3281 16.8152 11.7251H16.8202ZM18.4282 10.9791C18.3442 11.0561 17.7372 10.8291 17.5632 10.6191C17.3892 10.4091 18.1992 9.6981 18.2852 10.0671C18.3712 10.4361 18.5072 10.9031 18.4232 10.9791H18.4282Z" fill="white"/>
</svg>
