<svg width="56" height="56" viewBox="0 0 56 56" fill="none" xmlns="http://www.w3.org/2000/svg">
<path d="M46.666 19.8346H4.66602V12.648C4.66602 11.4346 5.59585 10.4243 6.80568 10.3228L44.139 7.21131C45.4993 7.09815 46.666 8.17265 46.666 9.53765V19.8346Z" fill="#FFD522"/>
<path d="M48.9993 47.832H6.99935C5.71018 47.832 4.66602 46.7879 4.66602 45.4987V12.832C4.66602 14.1212 5.71018 15.1654 6.99935 15.1654H48.9993C50.2885 15.1654 51.3327 16.2095 51.3327 17.4987V45.4987C51.3327 46.7879 50.2885 47.832 48.9993 47.832Z" fill="black"/>
<path opacity="0.3" d="M44.334 35C46.267 35 47.834 33.433 47.834 31.5C47.834 29.567 46.267 28 44.334 28C42.401 28 40.834 29.567 40.834 31.5C40.834 33.433 42.401 35 44.334 35Z" fill="#FFD522"/>
<path d="M44.3333 29.168C43.0442 29.168 42 30.2121 42 31.5013C42 32.7905 43.0442 33.8346 44.3333 33.8346C45.6225 33.8346 46.6667 32.7905 46.6667 31.5013C46.6667 30.2121 45.6225 29.168 44.3333 29.168Z" fill="#FFD522"/>
</svg>
