<svg width="32" height="32" viewBox="0 0 32 32" fill="none" xmlns="http://www.w3.org/2000/svg">
<path d="M0 16C0 7.16344 7.16344 0 16 0C24.8366 0 32 7.16344 32 16C32 24.8366 24.8366 32 16 32C7.16344 32 0 24.8366 0 16Z" fill="#F2F2F2"/>
<path d="M22.6673 19H9.33398M21.334 21.3333H10.6673M16.0007 10V11.3333M10.6673 16.6667H9.33398M12.2101 12.8761L11.2673 11.9333M19.791 12.8761L20.7338 11.9333M22.6673 16.6667H21.334M12.6673 16.6667C12.6673 14.8257 14.1597 13.3333 16.0007 13.3333C17.8416 13.3333 19.334 14.8257 19.334 16.6667" stroke="#9CABB8" stroke-width="1.6" stroke-linecap="round" stroke-linejoin="round"/>
</svg>
