<svg width="32" height="32" viewBox="0 0 32 32" fill="none" xmlns="http://www.w3.org/2000/svg">
<path d="M24 9.4806V5.33594H8V9.4806C8 12.5299 10.0753 15.1886 13.034 15.9279L13.3333 16.0026L13.034 16.0773C10.0753 16.8173 8 19.4753 8 22.5246V26.6693H24V22.5246C24 19.4753 21.9247 16.8166 18.966 16.0773L18.6667 16.0026L18.966 15.9279C21.9247 15.1879 24 12.5299 24 9.4806Z" fill="#050605"/>
<path d="M24.0007 7.33594H8.00065C7.63265 7.33594 7.33398 7.03727 7.33398 6.66927V5.33594H24.6673V6.66927C24.6673 7.03727 24.3687 7.33594 24.0007 7.33594Z" fill="#050605"/>
<path d="M25.3333 5.33594H6.66667C6.29867 5.33594 6 5.03727 6 4.66927V4.0026C6 3.6346 6.29867 3.33594 6.66667 3.33594H25.3333C25.7013 3.33594 26 3.6346 26 4.0026V4.66927C26 5.03727 25.7013 5.33594 25.3333 5.33594Z" fill="#050605"/>
<path d="M22.8371 25.3359C21.3337 20.6693 16.6811 19.3359 16.0144 19.3359C15.3477 19.3359 10.6671 20.6693 9.17773 25.3359H22.8371Z" fill="#FFD522"/>
<path d="M8.00065 24.6641H24.0007C24.3687 24.6641 24.6673 24.9627 24.6673 25.3307V26.6641H7.33398V25.3307C7.33398 24.9627 7.63265 24.6641 8.00065 24.6641Z" fill="#050605"/>
<path d="M6.66667 26.6641H25.3333C25.7013 26.6641 26 26.9627 26 27.3307V27.9974C26 28.3654 25.7013 28.6641 25.3333 28.6641H6.66667C6.29867 28.6641 6 28.3654 6 27.9974V27.3307C6 26.9627 6.29867 26.6641 6.66667 26.6641Z" fill="#050605"/>
</svg>
