<svg width="20" height="20" viewBox="0 0 20 20" fill="none" xmlns="http://www.w3.org/2000/svg">
<path d="M6.66699 2.4974C6.66699 2.03716 7.04009 1.66406 7.50033 1.66406H12.5003C12.9606 1.66406 13.3337 2.03716 13.3337 2.4974C13.3337 2.95763 12.9606 3.33073 12.5003 3.33073H7.50033C7.04009 3.33073 6.66699 2.95763 6.66699 2.4974Z" fill="#FF0000"/>
<path fill-rule="evenodd" clip-rule="evenodd" d="M1.66699 4.9974C1.66699 4.53716 2.04009 4.16406 2.50033 4.16406H17.5003C17.9606 4.16406 18.3337 4.53716 18.3337 4.9974C18.3337 5.45763 17.9606 5.83073 17.5003 5.83073H16.6133L16.0786 13.852C16.0366 14.4815 16.0019 15.0025 15.9396 15.4265C15.8748 15.868 15.772 16.2714 15.5578 16.6474C15.2243 17.2327 14.7214 17.7033 14.1152 17.9971C13.7257 18.1858 13.3164 18.2616 12.8715 18.2969C12.4443 18.3308 11.9222 18.3308 11.2912 18.3308H8.70947C8.07854 18.3308 7.55642 18.3308 7.12918 18.2969C6.68435 18.2616 6.27495 18.1858 5.88554 17.9971C5.27934 17.7033 4.77638 17.2327 4.44293 16.6474C4.22872 16.2714 4.1259 15.868 4.06108 15.4265C3.99882 15.0024 3.96409 14.4815 3.92214 13.852L3.38739 5.83073H2.50033C2.04009 5.83073 1.66699 5.45763 1.66699 4.9974ZM8.33366 7.91406C8.7939 7.91406 9.16699 8.28716 9.16699 8.7474V12.9141C9.16699 13.3743 8.7939 13.7474 8.33366 13.7474C7.87342 13.7474 7.50033 13.3743 7.50033 12.9141V8.7474C7.50033 8.28716 7.87342 7.91406 8.33366 7.91406ZM12.5003 8.7474C12.5003 8.28716 12.1272 7.91406 11.667 7.91406C11.2068 7.91406 10.8337 8.28716 10.8337 8.7474V12.9141C10.8337 13.3743 11.2068 13.7474 11.667 13.7474C12.1272 13.7474 12.5003 13.3743 12.5003 12.9141V8.7474Z" fill="#FF0000"/>
</svg>
