<svg width="72" height="72" viewBox="0 0 72 72" fill="none" xmlns="http://www.w3.org/2000/svg">
<g id="alert-circle">
<path id="Solid" fill-rule="evenodd" clip-rule="evenodd" d="M36 3C17.7746 3 3 17.7746 3 36C3 54.2254 17.7746 69 36 69C54.2254 69 69 54.2254 69 36C69 17.7746 54.2254 3 36 3ZM39 24C39 22.3431 37.6569 21 36 21C34.3431 21 33 22.3431 33 24V36C33 37.6569 34.3431 39 36 39C37.6569 39 39 37.6569 39 36V24ZM36 45C34.3431 45 33 46.3431 33 48C33 49.6569 34.3431 51 36 51H36.03C37.6869 51 39.03 49.6569 39.03 48C39.03 46.3431 37.6869 45 36.03 45H36Z" fill="#F7961C"/>
</g>
</svg>
