<svg width="138" height="32" viewBox="0 0 138 32" fill="none" xmlns="http://www.w3.org/2000/svg">
<path d="M0.377897 26.7468C0.360572 32.1905 2.85001 33.1378 6.15781 30.8068L21.0668 20.0856C22.9503 18.7746 23.7846 17.3677 23.7651 16H0.377897V26.7468Z" fill="#009E96"/>
<path d="M32.3777 26.7468C32.395 32.1905 29.9055 33.1378 26.5978 30.8068L11.6888 20.0856C9.80536 18.7746 8.97101 17.3677 8.99057 16C9.94632 16 32.3582 16.0005 32.3582 16.0005L32.3777 26.7468Z" fill="#EF4923"/>
<path d="M32.3777 5.25314C32.395 -0.190595 29.9055 -1.13789 26.5978 1.19321L11.6888 11.9143C9.80536 13.2254 8.97101 14.6322 8.99057 15.9999C9.94632 15.9999 32.3582 15.9995 32.3582 15.9995L32.3777 5.25314Z" fill="#F7961C"/>
<path d="M0.37802 5.25314C0.360694 -0.190595 2.85013 -1.13789 6.15794 1.19321L21.0669 11.9143C22.9504 13.2254 23.7847 14.6322 23.7652 15.9999H0.37802V5.25314Z" fill="#082E4D"/>
<path d="M40.3857 5.19396C40.3857 3.59309 40.7743 3.19287 42.3288 3.19287H42.9895C44.5439 3.19287 44.9326 3.59309 44.9326 5.19396V11.9977C46.044 10.737 47.9521 9.94856 50.2411 9.94856C53.0158 9.94856 56.1403 11.2773 56.1403 16.1359V26.3495C56.1403 27.9504 55.7517 28.3506 54.1972 28.3506H53.5327C51.9782 28.3506 51.5896 27.9504 51.5896 26.3495V16.9724C51.5896 14.9713 50.4782 14.383 48.675 14.383C46.6619 14.383 44.9248 15.2114 44.9248 18.7333V26.3575C44.9248 27.9584 44.5362 28.3586 42.9817 28.3586H42.321C40.7665 28.3586 40.3779 27.9584 40.3779 26.3575L40.3857 5.19396Z" fill="#082E4D"/>
<path d="M64.0915 21.539C64.0915 23.372 64.6123 24.3806 67.457 24.3806C70.3016 24.3806 70.7524 23.372 70.7524 21.539V12.3981C70.7524 10.7972 71.1411 10.397 72.6955 10.397H73.3523C74.9068 10.397 75.2954 10.7972 75.2954 12.3981V21.535C75.2954 26.3377 72.9365 28.799 67.4531 28.799C62.2106 28.799 59.5408 26.2456 59.5408 21.535V12.3981C59.5408 10.7972 59.9294 10.397 61.4839 10.397H62.1445C63.699 10.397 64.0876 10.7972 64.0876 12.3981L64.0915 21.539Z" fill="#082E4D"/>
<path d="M78.7036 5.19396C78.7036 3.59309 79.0922 3.19287 80.6467 3.19287H81.2724C82.8269 3.19287 83.2155 3.59309 83.2155 5.19396V11.9977C84.1171 10.737 85.5744 9.94856 87.9683 9.94856C92.7911 9.94856 95.2549 12.8982 95.2549 18.041V20.9185C95.2549 26.5656 92.1654 28.7948 86.9618 28.7948C82.38 28.7948 78.7036 26.5656 78.7036 20.9185V5.19396ZM90.712 17.9249C90.712 15.6236 90.1213 14.367 86.9968 14.367C83.8723 14.367 83.2116 15.6236 83.2116 17.9249V20.8025C83.2116 23.1037 83.8723 24.3644 86.9968 24.3644C90.1912 24.3644 90.712 23.1037 90.712 20.8025V17.9249Z" fill="#082E4D"/>
<path d="M107.757 24.1283C106.956 24.2793 106.142 24.3517 105.328 24.3444C104.045 24.3444 103.187 23.7641 103.144 22.0752C103.164 21.9832 103.174 21.8893 103.175 21.795V14.7992H107.096C108.651 14.7992 109.039 14.399 109.039 12.7981V12.3979C109.039 10.797 108.651 10.3968 107.096 10.3968H103.175V7.69933C103.175 6.09846 102.786 5.69824 101.232 5.69824H100.606C99.0517 5.69824 98.6631 6.09846 98.6631 7.69933V10.1727L98.6125 10.3968V21.9071C98.6125 22.2353 98.6229 22.5488 98.6436 22.8476C98.6374 23.1785 98.6767 23.5086 98.7602 23.8281C99.3937 27.5622 101.974 28.7748 105.308 28.7748C106.123 28.7952 106.938 28.7227 107.737 28.5587C109.265 28.2345 109.645 27.6222 109.645 26.0053V25.6051C109.645 24.0042 109.257 23.8441 107.737 24.1323" fill="#082E4D"/>
<path d="M127.125 19.1294C126.916 20.7823 126.465 21.1065 124.868 21.1065H116.054V21.6468C116.054 23.5158 117.371 24.3803 120.601 24.3803C122.012 24.3568 123.418 24.1878 124.798 23.876C126.325 23.5519 126.636 23.9841 126.636 25.601V26.0012C126.636 27.6021 126.325 27.9422 124.798 28.3385C123.409 28.661 121.989 28.8181 120.566 28.8067C114.421 28.8067 111.507 26.5055 111.507 20.9304V18.0529C111.507 13.4143 113.555 9.96045 119.594 9.96045C124.646 9.96045 127.195 12.6219 127.195 17.7287C127.199 18.1979 127.176 18.667 127.125 19.1334M116.054 17.3004H122.89V16.7602C122.89 14.9632 121.743 14.0267 119.454 14.0267C117.165 14.0267 116.054 14.9632 116.054 16.7602V17.3004Z" fill="#082E4D"/>
<path d="M130.25 5.19396C130.25 3.59309 130.639 3.19287 132.193 3.19287H132.811C134.365 3.19287 134.754 3.59309 134.754 5.19396V21.8831C134.754 23.7521 135.24 24.2844 136.281 24.2844H136.456C137.358 24.2844 137.622 24.5005 137.622 25.9373V26.6216C137.622 28.0624 137.346 28.4546 136.456 28.6227C136.113 28.6905 135.763 28.7147 135.415 28.6948C132.465 28.6948 130.246 27.0059 130.246 22.9036L130.25 5.19396Z" fill="#082E4D"/>
</svg>
