<svg width="32" height="32" viewBox="0 0 32 32" fill="none" xmlns="http://www.w3.org/2000/svg">
<g id="mail-01">
<path id="Icon" d="M2.6665 9.3335L13.5531 16.9541C14.4346 17.5712 14.8754 17.8797 15.3549 17.9992C15.7784 18.1048 16.2213 18.1048 16.6448 17.9992C17.1243 17.8797 17.565 17.5712 18.4466 16.9541L29.3332 9.3335M9.0665 26.6668H22.9332C25.1734 26.6668 26.2935 26.6668 27.1491 26.2309C27.9018 25.8474 28.5137 25.2354 28.8972 24.4828C29.3332 23.6271 29.3332 22.507 29.3332 20.2668V11.7335C29.3332 9.49329 29.3332 8.37318 28.8972 7.51753C28.5137 6.76489 27.9018 6.15296 27.1491 5.76947C26.2935 5.3335 25.1734 5.3335 22.9332 5.3335H9.0665C6.82629 5.3335 5.70619 5.3335 4.85054 5.76947C4.09789 6.15296 3.48597 6.76489 3.10248 7.51753C2.6665 8.37318 2.6665 9.49329 2.6665 11.7335V20.2668C2.6665 22.507 2.6665 23.6271 3.10248 24.4828C3.48597 25.2354 4.09789 25.8474 4.85054 26.2309C5.70619 26.6668 6.82629 26.6668 9.0665 26.6668Z" stroke="#030F1A" stroke-width="2" stroke-linecap="round" stroke-linejoin="round"/>
</g>
</svg>
