<svg width="72" height="72" viewBox="0 0 72 72" fill="none" xmlns="http://www.w3.org/2000/svg">
<g id="x-circle">
<path id="Solid" fill-rule="evenodd" clip-rule="evenodd" d="M36 3C17.7746 3 3 17.7746 3 36C3 54.2254 17.7746 69 36 69C54.2254 69 69 54.2254 69 36C69 17.7746 54.2254 3 36 3ZM47.1213 24.8787C48.2929 26.0503 48.2929 27.9497 47.1213 29.1213L40.2426 36L47.1213 42.8787C48.2929 44.0503 48.2929 45.9497 47.1213 47.1213C45.9497 48.2929 44.0503 48.2929 42.8787 47.1213L36 40.2426L29.1213 47.1213C27.9497 48.2929 26.0503 48.2929 24.8787 47.1213C23.7071 45.9497 23.7071 44.0503 24.8787 42.8787L31.7574 36L24.8787 29.1213C23.7071 27.9497 23.7071 26.0503 24.8787 24.8787C26.0503 23.7071 27.9497 23.7071 29.1213 24.8787L36 31.7574L42.8787 24.8787C44.0503 23.7071 45.9497 23.7071 47.1213 24.8787Z" fill="#ED1B2E"/>
</g>
</svg>
