<svg width="125" height="18" viewBox="0 0 125 18" fill="none" xmlns="http://www.w3.org/2000/svg"><path d="M51.428 0H39.684c-1 0-2.031.814-2.3 1.813l-1.357 5.065-1.083 4.043-1.41 5.266c-.27 1 .326 1.813 1.326 1.813h11.745c1 0 2.032-.814 2.3-1.813L50.911 8.7v-.004l1.845-6.885C53.023.814 52.427 0 51.428 0zm-4.966 14.777a.566.566 0 0 1-.511.403h-8.924a.3.3 0 0 1-.295-.403l1.033-3.855 1.57-5.856.493-1.842a.565.565 0 0 1 .51-.403h8.924a.298.298 0 0 1 .295.403l-1.274 4.752-1.079.762c-.207.145-.27.382-.141.528l.671.76-.025.09c.002 0-.926 3.463-1.247 4.661z" fill="#2D5883"/><path d="M47.194 5.98l-2.022-2.29c-.129-.147-.28-.084-.341.138l-.27 1.005h-2.953a.566.566 0 0 0-.51.403l-.54 2.014a.3.3 0 0 0 .294.403h2.953l-.27 1.005c-.06.222.06.285.268.139l3.248-2.29c.208-.145.271-.382.142-.528zm-1.756 4.369h-2.953l.27-1.006c.06-.221-.06-.284-.267-.138l-3.249 2.29c-.207.145-.27.382-.141.529l2.022 2.29c.128.146.28.083.34-.139l.27-1.005h2.953a.566.566 0 0 0 .51-.403l.54-2.014a.301.301 0 0 0-.295-.404z" fill="#2D5883"/><path d="M65.603 7.085v.033c1.26.22 2.336 1.06 2.336 2.858 0 2.555-1.631 3.546-4.118 3.546h-6V1.505h5.832c2.503 0 3.814.975 3.814 3.026 0 1.479-.872 2.218-1.864 2.554zm-2.673-.723c.84 0 1.512-.2 1.512-1.192s-.672-1.193-1.512-1.193h-2.084v2.387h2.084v-.002zm-2.084 4.69h2.168c1.26 0 1.899-.304 1.899-1.428 0-1.125-.64-1.412-1.9-1.412h-2.167v2.84zm12.067-4.557c-.975 0-1.444.371-1.53 1.193h-2.522c.084-1.647 1.26-3.042 4.067-3.042 2.42 0 3.765.94 3.765 3.646v3.95c0 .453.168.64.504.64v.638a4.27 4.27 0 0 1-1.563.269c-1.21 0-1.546-.572-1.546-1.176h-.033a3.673 3.673 0 0 1-2.707 1.176c-1.815 0-2.823-1.025-2.823-2.471 0-1.715 1.26-2.504 3.278-2.907 1.109-.22 2.202-.387 2.202-1.11 0-.503-.352-.806-1.092-.806zm1.092 3.884V9.337a8.65 8.65 0 0 1-1.378.387c-1.06.235-1.412.672-1.412 1.21 0 .707.42 1.009 1.076 1.009 1.161 0 1.714-.74 1.714-1.564zM86.56 7.706v5.814h-2.69V8.563c0-1.295-.452-1.732-1.343-1.732-1.025 0-1.615.52-1.615 1.715v4.974h-2.69V4.916h2.69v1.243h.033c.453-.79 1.295-1.512 2.823-1.512 1.666 0 2.793 1.092 2.793 3.06zm3.933-6.201v6.32l2.521-2.907h3.21l-3.042 3.225 3.395 5.377h-3.194l-2.034-3.43-.856.892v2.538h-2.69V1.503h2.69v.002zm6.892 0h5.832c2.504 0 4.067 1.311 4.067 3.831s-1.563 3.831-4.067 3.831h-2.806v4.353h-3.026V1.505zm3.026 5.193h2.167c1.043 0 1.68-.352 1.68-1.36s-.639-1.362-1.68-1.362h-2.167v2.722zm11.327-.203c-.975 0-1.445.371-1.531 1.193h-2.521c.084-1.647 1.26-3.042 4.066-3.042 2.42 0 3.766.94 3.766 3.646v3.95c0 .453.168.64.504.64v.638c-.5.187-1.03.277-1.564.269-1.21 0-1.546-.572-1.546-1.176h-.033a3.668 3.668 0 0 1-2.706 1.176c-1.815 0-2.823-1.025-2.823-2.471 0-1.715 1.26-2.504 3.277-2.907 1.109-.22 2.203-.387 2.203-1.11 0-.503-.353-.806-1.092-.806zm1.092 3.884V9.337c-.448.167-.91.296-1.379.387-1.059.235-1.412.672-1.412 1.21 0 .707.42 1.009 1.076 1.009 1.16 0 1.715-.74 1.715-1.564zm9.242 3.311c-.74 2.203-1.547 2.807-3.362 2.807a7.205 7.205 0 0 1-1.495-.168v-2.016h.034c.74.168 1.344.084 1.631-.352.252-.387.201-.924-.067-1.68l-2.807-7.361h2.69l1.95 5.646h.033l1.63-5.646h2.69l-2.927 8.77z" fill="#3C3C3B"/></svg>