<svg width="121" height="40" viewBox="0 0 121 40" fill="none" xmlns="http://www.w3.org/2000/svg">
<rect x="1" y="0.5" width="119" height="39" rx="6.5" fill="black"/>
<rect x="1" y="0.5" width="119" height="39" rx="6.5" stroke="#A6A6A6"/>
<path d="M82.0267 19.2009V21.4919H80.5906V22.9943H82.0267V28.0993C82.0267 29.8425 82.8152 30.5397 84.7991 30.5397C85.1478 30.5397 85.4798 30.4982 85.7703 30.4484V28.9626C85.5213 28.9875 85.3636 29.0041 85.0896 29.0041C84.2015 29.0041 83.8113 28.589 83.8113 27.6428V22.9943H85.7703V21.4919H83.8113V19.2009H82.0267Z" fill="white"/>
<path d="M90.8242 30.6642C93.4638 30.6642 95.0825 28.8962 95.0825 25.966C95.0825 23.0524 93.4555 21.2761 90.8242 21.2761C88.1845 21.2761 86.5576 23.0524 86.5576 25.966C86.5576 28.8962 88.1762 30.6642 90.8242 30.6642ZM90.8242 29.0788C89.2719 29.0788 88.4003 27.9416 88.4003 25.966C88.4003 24.007 89.2719 22.8615 90.8242 22.8615C92.3681 22.8615 93.248 24.007 93.248 25.966C93.248 27.9333 92.3681 29.0788 90.8242 29.0788Z" fill="white"/>
<path d="M96.4674 30.4899H98.252V25.1525C98.252 23.8825 99.2066 23.0275 100.56 23.0275C100.875 23.0275 101.406 23.0856 101.556 23.1354V21.3757C101.365 21.3259 101.024 21.301 100.759 21.301C99.5802 21.301 98.5758 21.9484 98.3184 22.8366H98.1856V21.4504H96.4674V30.4899Z" fill="white"/>
<path d="M105.987 22.7951C107.307 22.7951 108.17 23.7165 108.212 25.1359H103.646C103.746 23.7248 104.667 22.7951 105.987 22.7951ZM108.203 28.0495C107.871 28.7551 107.133 29.1452 106.053 29.1452C104.626 29.1452 103.704 28.1408 103.646 26.5554V26.4557H110.03V25.8332C110.03 22.9943 108.51 21.2761 105.995 21.2761C103.447 21.2761 101.828 23.1105 101.828 25.9992C101.828 28.8879 103.414 30.6642 106.004 30.6642C108.071 30.6642 109.515 29.6681 109.922 28.0495H108.203Z" fill="white"/>
<path d="M70.3231 27.1518C70.4607 29.3715 72.3105 30.791 75.0636 30.791C78.006 30.791 79.8472 29.3026 79.8472 26.9281C79.8472 25.0611 78.7975 24.0287 76.2509 23.435L74.8829 23.0995C73.2655 22.7209 72.6116 22.2133 72.6116 21.3272C72.6116 20.2087 73.6268 19.4774 75.1497 19.4774C76.595 19.4774 77.593 20.1915 77.7737 21.3358H79.6493C79.5374 19.2451 77.6963 17.7739 75.1755 17.7739C72.4654 17.7739 70.6586 19.2451 70.6586 21.4562C70.6586 23.2802 71.6824 24.3642 73.9279 24.889L75.5282 25.2762C77.1715 25.6633 77.8942 26.2312 77.8942 27.1776C77.8942 28.2788 76.7585 29.0789 75.2099 29.0789C73.5494 29.0789 72.3965 28.3304 72.2331 27.1518H70.3231Z" fill="white"/>
<path d="M51.8357 21.301C50.6072 21.301 49.5447 21.9152 48.9969 22.9445H48.8641V21.4504H47.1458V33.4948H48.9305V29.1203H49.0716C49.5447 30.0749 50.5657 30.6393 51.8523 30.6393C54.1351 30.6393 55.5877 28.8381 55.5877 25.966C55.5877 23.0939 54.1351 21.301 51.8357 21.301ZM51.3294 29.0373C49.8353 29.0373 48.8973 27.8586 48.8973 25.9743C48.8973 24.0817 49.8353 22.903 51.3377 22.903C52.8484 22.903 53.7532 24.0568 53.7532 25.966C53.7532 27.8835 52.8484 29.0373 51.3294 29.0373Z" fill="white"/>
<path d="M61.8325 21.301C60.604 21.301 59.5415 21.9152 58.9937 22.9445H58.8609V21.4504H57.1426V33.4948H58.9273V29.1203H59.0684C59.5415 30.0749 60.5625 30.6393 61.8491 30.6393C64.1319 30.6393 65.5845 28.8381 65.5845 25.966C65.5845 23.0939 64.1319 21.301 61.8325 21.301ZM61.3262 29.0373C59.8321 29.0373 58.8941 27.8586 58.8941 25.9743C58.8941 24.0817 59.8321 22.903 61.3345 22.903C62.8452 22.903 63.75 24.0568 63.75 25.966C63.75 27.8835 62.8452 29.0373 61.3262 29.0373Z" fill="white"/>
<path d="M43.9438 30.4899H45.9914L41.509 18.075H39.4356L34.9531 30.4899H36.9319L38.0762 27.1948H42.8081L43.9438 30.4899ZM40.3733 20.3292H40.5196L42.3177 25.5773H38.5666L40.3733 20.3292Z" fill="white"/>
<path d="M36.1504 8.71069V14.6997H38.3127C40.0974 14.6997 41.1309 13.5999 41.1309 11.6865C41.1309 9.80225 40.0891 8.71069 38.3127 8.71069H36.1504ZM37.0801 9.55737H38.209C39.45 9.55737 40.1846 10.3459 40.1846 11.699C40.1846 13.0728 39.4624 13.853 38.209 13.853H37.0801V9.55737Z" fill="white"/>
<path d="M44.2959 14.7869C45.6158 14.7869 46.4251 13.9028 46.4251 12.4377C46.4251 10.981 45.6116 10.0928 44.2959 10.0928C42.9761 10.0928 42.1626 10.981 42.1626 12.4377C42.1626 13.9028 42.972 14.7869 44.2959 14.7869ZM44.2959 13.9941C43.5198 13.9941 43.084 13.4255 43.084 12.4377C43.084 11.4583 43.5198 10.8855 44.2959 10.8855C45.0679 10.8855 45.5079 11.4583 45.5079 12.4377C45.5079 13.4214 45.0679 13.9941 44.2959 13.9941Z" fill="white"/>
<path d="M53.3172 10.1799H52.4249L51.6197 13.6289H51.5492L50.6195 10.1799H49.7645L48.8348 13.6289H48.7684L47.9591 10.1799H47.0543L48.2994 14.6997H49.2167L50.1463 11.3711H50.2169L51.1507 14.6997H52.0763L53.3172 10.1799Z" fill="white"/>
<path d="M54.3449 14.6997H55.2372V12.0559C55.2372 11.3503 55.6564 10.9104 56.3163 10.9104C56.9762 10.9104 57.2917 11.2715 57.2917 11.9978V14.6997H58.184V11.7737C58.184 10.6987 57.6278 10.0928 56.6193 10.0928C55.9386 10.0928 55.4904 10.3958 55.2704 10.8979H55.204V10.1799H54.3449V14.6997Z" fill="white"/>
<path d="M59.5893 14.6997H60.4816V8.41602H59.5893V14.6997Z" fill="white"/>
<path d="M63.8377 14.7869C65.1575 14.7869 65.9668 13.9028 65.9668 12.4377C65.9668 10.981 65.1533 10.0928 63.8377 10.0928C62.5178 10.0928 61.7043 10.981 61.7043 12.4377C61.7043 13.9028 62.5137 14.7869 63.8377 14.7869ZM63.8377 13.9941C63.0615 13.9941 62.6257 13.4255 62.6257 12.4377C62.6257 11.4583 63.0615 10.8855 63.8377 10.8855C64.6096 10.8855 65.0496 11.4583 65.0496 12.4377C65.0496 13.4214 64.6096 13.9941 63.8377 13.9941Z" fill="white"/>
<path d="M68.6255 14.0232C68.1399 14.0232 67.7872 13.7866 67.7872 13.3799C67.7872 12.9814 68.0694 12.7698 68.6919 12.7283L69.7959 12.6577V13.0354C69.7959 13.5957 69.2979 14.0232 68.6255 14.0232ZM68.3973 14.7744C68.9908 14.7744 69.4847 14.5171 69.7544 14.0647H69.825V14.6997H70.6841V11.6118C70.6841 10.6572 70.045 10.0928 68.9119 10.0928C67.8868 10.0928 67.1563 10.5908 67.065 11.3669H67.9283C68.0279 11.0474 68.3724 10.8647 68.8704 10.8647C69.4805 10.8647 69.7959 11.1345 69.7959 11.6118V12.002L68.5716 12.0725C67.4966 12.1389 66.8907 12.6079 66.8907 13.4214C66.8907 14.2473 67.5257 14.7744 68.3973 14.7744Z" fill="white"/>
<path d="M73.7123 14.7744C74.3348 14.7744 74.8619 14.4797 75.1317 13.9858H75.2022V14.6997H76.0572V8.41602H75.1649V10.8979H75.0985C74.8536 10.3999 74.3307 10.1052 73.7123 10.1052C72.5709 10.1052 71.8363 11.01 71.8363 12.4377C71.8363 13.8696 72.5626 14.7744 73.7123 14.7744ZM73.9654 10.9062C74.7125 10.9062 75.1815 11.4998 75.1815 12.4419C75.1815 13.3882 74.7167 13.9734 73.9654 13.9734C73.2101 13.9734 72.7577 13.3965 72.7577 12.4377C72.7577 11.4873 73.2142 10.9062 73.9654 10.9062Z" fill="white"/>
<path d="M81.8437 14.7869C83.1635 14.7869 83.9729 13.9028 83.9729 12.4377C83.9729 10.981 83.1594 10.0928 81.8437 10.0928C80.5239 10.0928 79.7104 10.981 79.7104 12.4377C79.7104 13.9028 80.5197 14.7869 81.8437 14.7869ZM81.8437 13.9941C81.0676 13.9941 80.6318 13.4255 80.6318 12.4377C80.6318 11.4583 81.0676 10.8855 81.8437 10.8855C82.6157 10.8855 83.0556 11.4583 83.0556 12.4377C83.0556 13.4214 82.6157 13.9941 81.8437 13.9941Z" fill="white"/>
<path d="M85.1541 14.6997H86.0464V12.0559C86.0464 11.3503 86.4656 10.9104 87.1255 10.9104C87.7854 10.9104 88.1008 11.2715 88.1008 11.9978V14.6997H88.9932V11.7737C88.9932 10.6987 88.437 10.0928 87.4285 10.0928C86.7478 10.0928 86.2996 10.3958 86.0796 10.8979H86.0132V10.1799H85.1541V14.6997Z" fill="white"/>
<path d="M93.1029 9.05518V10.2007H92.3849V10.9519H93.1029V13.5044C93.1029 14.376 93.4972 14.7246 94.4891 14.7246C94.6634 14.7246 94.8294 14.7039 94.9747 14.679V13.936C94.8502 13.9485 94.7713 13.9568 94.6344 13.9568C94.1903 13.9568 93.9952 13.7493 93.9952 13.2761V10.9519H94.9747V10.2007H93.9952V9.05518H93.1029Z" fill="white"/>
<path d="M96.1725 14.6997H97.0648V12.0601C97.0648 11.3752 97.4716 10.9146 98.2021 10.9146C98.8329 10.9146 99.1691 11.2798 99.1691 12.002V14.6997H100.061V11.782C100.061 10.707 99.4679 10.0969 98.505 10.0969C97.8244 10.0969 97.3471 10.3999 97.1271 10.9062H97.0565V8.41602H96.1725V14.6997Z" fill="white"/>
<path d="M103.28 10.8523C103.94 10.8523 104.372 11.313 104.393 12.0227H102.11C102.16 11.3171 102.621 10.8523 103.28 10.8523ZM104.389 13.4795C104.223 13.8323 103.853 14.0273 103.314 14.0273C102.6 14.0273 102.139 13.5251 102.11 12.7324V12.6826H105.302V12.3713C105.302 10.9519 104.542 10.0928 103.285 10.0928C102.01 10.0928 101.201 11.01 101.201 12.4543C101.201 13.8987 101.994 14.7869 103.289 14.7869C104.322 14.7869 105.044 14.2888 105.248 13.4795H104.389Z" fill="white"/>
<path d="M25.27 20.3011C25.2916 18.6201 26.1944 17.0295 27.6265 16.149C26.7231 14.8587 25.2098 14.0406 23.6354 13.9913C21.9561 13.8151 20.3282 14.9962 19.4725 14.9962C18.6002 14.9962 17.2827 14.0088 15.864 14.038C14.0147 14.0978 12.2907 15.1491 11.391 16.7659C9.45705 20.1143 10.8996 25.0354 12.7522 27.742C13.6791 29.0673 14.7624 30.5478 16.1799 30.4953C17.5669 30.4377 18.085 29.6108 19.7593 29.6108C21.418 29.6108 21.9041 30.4953 23.3503 30.4619C24.8387 30.4377 25.7764 29.1306 26.6708 27.7927C27.3368 26.8484 27.8492 25.8047 28.1892 24.7002C26.4401 23.9604 25.272 22.2002 25.27 20.3011Z" fill="white"/>
<path d="M22.5383 12.2113C23.3498 11.2371 23.7496 9.98494 23.6528 8.7207C22.413 8.85092 21.2677 9.44348 20.4452 10.3803C19.641 11.2956 19.2224 12.5258 19.3015 13.7417C20.5418 13.7545 21.7611 13.178 22.5383 12.2113Z" fill="white"/>
</svg>
