<svg width="29" height="29" viewBox="0 0 29 29" fill="none" xmlns="http://www.w3.org/2000/svg">
<path d="M26.5827 19.563C26.5827 23.9613 23.9606 26.5834 19.5623 26.5834H18.1243C17.4598 26.5834 16.916 26.0397 16.916 25.3751V18.403C16.916 18.0767 17.1818 17.7988 17.5081 17.7988L19.6348 17.7626C19.8039 17.7505 19.9489 17.6297 19.9852 17.4605L20.4081 15.1526C20.4163 15.1003 20.4131 15.0468 20.3986 14.9959C20.3842 14.9449 20.3588 14.8977 20.3244 14.8575C20.2899 14.8173 20.2472 14.7851 20.199 14.763C20.1509 14.7409 20.0985 14.7295 20.0456 14.7297L17.4718 14.7659C17.1335 14.7659 16.8677 14.5001 16.8556 14.1738L16.8073 11.2134C16.8073 11.0201 16.9643 10.8509 17.1698 10.8509L20.0698 10.8026C20.2752 10.8026 20.4323 10.6455 20.4323 10.4401L20.3839 7.54008C20.3839 7.33466 20.2268 7.17758 20.0214 7.17758L16.7589 7.22591C16.2827 7.23315 15.8125 7.33429 15.3754 7.52355C14.9384 7.71281 14.5429 7.98647 14.2118 8.32883C13.8806 8.6712 13.6203 9.07554 13.4457 9.5187C13.2711 9.96185 13.1857 10.4351 13.1943 10.9113L13.2548 14.2342C13.2668 14.5726 13.001 14.8384 12.6627 14.8505L11.2127 14.8747C11.0073 14.8747 10.8502 15.0317 10.8502 15.2372L10.8864 17.533C10.8864 17.7384 11.0435 17.8955 11.2489 17.8955L12.6989 17.8713C13.0373 17.8713 13.3031 18.1372 13.3152 18.4634L13.4239 25.3509C13.436 26.0276 12.8923 26.5834 12.2156 26.5834H9.43643C5.0381 26.5834 2.41602 23.9613 2.41602 19.5509V9.43716C2.41602 5.03883 5.0381 2.41675 9.43643 2.41675H19.5623C23.9606 2.41675 26.5827 5.03883 26.5827 9.43716V19.563Z" fill="white"/>
</svg>
