<svg width="27" height="27" viewBox="0 0 27 27" fill="none" xmlns="http://www.w3.org/2000/svg">
<path d="M13.4987 8.8882C12.5865 8.8882 11.6947 9.15872 10.9362 9.66555C10.1777 10.1724 9.58647 10.8928 9.23736 11.7356C8.88825 12.5784 8.7969 13.5058 8.97488 14.4006C9.15285 15.2953 9.59215 16.1172 10.2372 16.7622C10.8823 17.4073 11.7042 17.8466 12.5989 18.0246C13.4936 18.2025 14.4211 18.1112 15.2639 17.7621C16.1067 17.413 16.8271 16.8218 17.3339 16.0633C17.8407 15.3047 18.1112 14.413 18.1112 13.5007C18.1127 12.8946 17.9944 12.2941 17.7632 11.7338C17.5319 11.1735 17.1922 10.6645 16.7636 10.2359C16.335 9.80726 15.8259 9.46756 15.2656 9.23629C14.7053 9.00501 14.1049 8.88672 13.4987 8.8882ZM13.4987 16.5045C12.9047 16.5045 12.3239 16.3283 11.83 15.9982C11.336 15.6682 10.951 15.1991 10.7236 14.6502C10.4963 14.1013 10.4368 13.4974 10.5527 12.9147C10.6686 12.332 10.9547 11.7968 11.3748 11.3767C11.7949 10.9566 12.3301 10.6706 12.9127 10.5547C13.4954 10.4388 14.0994 10.4983 14.6482 10.7256C15.1971 10.9529 15.6662 11.3379 15.9963 11.8319C16.3263 12.3259 16.5025 12.9066 16.5025 13.5007C16.5025 14.2973 16.186 15.0614 15.6227 15.6247C15.0594 16.188 14.2954 16.5045 13.4987 16.5045ZM19.3825 8.69695C19.3825 8.91946 19.3165 9.13696 19.1929 9.32197C19.0693 9.50698 18.8936 9.65117 18.688 9.73632C18.4825 9.82147 18.2563 9.84374 18.038 9.80034C17.8198 9.75693 17.6193 9.64978 17.462 9.49245C17.3047 9.33511 17.1975 9.13466 17.1541 8.91643C17.1107 8.6982 17.133 8.472 17.2181 8.26643C17.3033 8.06087 17.4475 7.88517 17.6325 7.76155C17.8175 7.63793 18.035 7.57195 18.2575 7.57195C18.5559 7.57195 18.842 7.69048 19.053 7.90146C19.264 8.11244 19.3825 8.39858 19.3825 8.69695ZM22.4312 9.82195C22.464 8.42338 21.9423 7.06862 20.98 6.0532C19.97 5.0786 18.6146 4.54453 17.2113 4.5682C15.7487 4.5007 11.2487 4.5007 9.78625 4.5682C8.38811 4.53793 7.03424 5.05927 6.0175 6.01945C5.05521 7.03487 4.53353 8.38963 4.56625 9.7882C4.49875 11.2507 4.49875 15.7507 4.56625 17.2132C4.53353 18.6118 5.05521 19.9665 6.0175 20.982C7.03424 21.9421 8.38811 22.4635 9.78625 22.4332C11.2712 22.5232 15.7262 22.5232 17.2113 22.4332C18.6098 22.4659 19.9646 21.9442 20.98 20.982C21.9423 19.9665 22.464 18.6118 22.4312 17.2132C22.4988 15.7507 22.4988 11.2507 22.4312 9.7882V9.82195ZM20.5187 18.822C20.366 19.2089 20.1354 19.5603 19.8413 19.8545C19.5471 20.1486 19.1957 20.3792 18.8087 20.532C17.0623 20.885 15.2769 21.0061 13.4987 20.892C11.7244 21.0063 9.94263 20.8852 8.2 20.532C7.81307 20.3792 7.46164 20.1486 7.16749 19.8545C6.87334 19.5603 6.64274 19.2089 6.49 18.822C6.0175 17.6295 6.11875 14.817 6.11875 13.512C6.11875 12.207 6.0175 9.3832 6.49 8.20195C6.63844 7.8112 6.86738 7.45603 7.16198 7.1595C7.45657 6.86297 7.81023 6.6317 8.2 6.4807C9.94263 6.12743 11.7244 6.00638 13.4987 6.1207C15.2769 6.00657 17.0623 6.12761 18.8087 6.4807C19.1957 6.63345 19.5471 6.86404 19.8413 7.15819C20.1354 7.45234 20.366 7.80377 20.5187 8.1907C20.9912 9.3832 20.8787 12.1957 20.8787 13.5007C20.8787 14.8057 20.9912 17.6295 20.5187 18.8107V18.822Z" fill="black"/>
</svg>
