<svg width="25" height="25" viewBox="0 0 25 25" fill="none" xmlns="http://www.w3.org/2000/svg">
<path d="M9.42773 22.5H15.4277C20.4277 22.5 22.4277 20.5 22.4277 15.5V9.5C22.4277 4.5 20.4277 2.5 15.4277 2.5H9.42773C4.42773 2.5 2.42773 4.5 2.42773 9.5V15.5C2.42773 20.5 4.42773 22.5 9.42773 22.5Z" stroke="white" stroke-width="1.5" stroke-linecap="round" stroke-linejoin="round"/>
<path d="M12.4277 16C12.8874 16 13.3425 15.9095 13.7671 15.7336C14.1918 15.5577 14.5776 15.2999 14.9026 14.9749C15.2276 14.6499 15.4854 14.264 15.6613 13.8394C15.8372 13.4148 15.9277 12.9596 15.9277 12.5C15.9277 12.0404 15.8372 11.5852 15.6613 11.1606C15.4854 10.736 15.2276 10.3501 14.9026 10.0251C14.5776 9.70012 14.1918 9.44231 13.7671 9.26642C13.3425 9.09053 12.8874 9 12.4277 9C11.4995 9 10.6092 9.36875 9.95286 10.0251C9.29648 10.6815 8.92773 11.5717 8.92773 12.5C8.92773 13.4283 9.29648 14.3185 9.95286 14.9749C10.6092 15.6313 11.4995 16 12.4277 16Z" stroke="white" stroke-width="1.5" stroke-linecap="round" stroke-linejoin="round"/>
<path d="M18.0645 7.5H18.0765" stroke="white" stroke-width="2" stroke-linecap="round" stroke-linejoin="round"/>
</svg>
