<svg width="17" height="17" viewBox="0 0 17 17" fill="none" xmlns="http://www.w3.org/2000/svg">
<g clip-path="url(#clip0_21145_41903)">
<path d="M14.4833 14.4868H11.9659V10.5421C11.9659 9.60146 11.9467 8.39092 10.654 8.39092C9.3415 8.39092 9.14104 9.41446 9.14104 10.4727V14.4868H6.62362V6.375H9.04187V7.48071H9.07446C9.41233 6.84321 10.234 6.17029 11.4615 6.17029C14.0122 6.17029 14.484 7.84904 14.484 10.0343L14.4833 14.4868ZM3.78037 5.26504C3.58833 5.26513 3.39815 5.22735 3.22073 5.15386C3.0433 5.08037 2.88211 4.97261 2.74638 4.83675C2.61065 4.70088 2.50304 4.53959 2.42972 4.36209C2.3564 4.18459 2.3188 3.99438 2.31908 3.80233C2.31922 3.51318 2.40511 3.23056 2.56587 2.99021C2.72663 2.74986 2.95506 2.56258 3.22225 2.45206C3.48945 2.34153 3.78343 2.31272 4.067 2.36927C4.35057 2.42582 4.61101 2.56519 4.81537 2.76975C5.01974 2.97432 5.15885 3.23489 5.21513 3.51851C5.2714 3.80214 5.24231 4.09609 5.13152 4.36318C5.02074 4.63027 4.83324 4.85851 4.59274 5.01904C4.35224 5.17957 4.06953 5.26518 3.78037 5.26504ZM5.04262 14.4868H2.51813V6.375H5.04262V14.4868ZM15.7427 0H1.25446C0.561 0 0 0.54825 0 1.22471V15.7753C0 16.4525 0.561 17 1.25446 17H15.7406C16.4333 17 17 16.4525 17 15.7753V1.22471C17 0.54825 16.4333 0 15.7406 0H15.7427Z" fill="black"/>
</g>
<defs>
<clipPath id="clip0_21145_41903">
<rect width="17" height="17" fill="white"/>
</clipPath>
</defs>
</svg>
