<svg xmlns="http://www.w3.org/2000/svg" width="749" height="265" viewBox="0 0 749 265"><defs><clipPath id="clip-path"><path id="Rectangle_22394" data-name="Rectangle 22394" d="M9 0h733a8 8 0 0 1 8 8v257H1V8a8 8 0 0 1 8-8z" fill="#f7fbfc" stroke="#f5f5f5" stroke-width="1"/></clipPath></defs><g id="Mask_Group_2" data-name="Mask Group 2" transform="translate(-1)" clip-path="url(#clip-path)"><path id="Path_32853" data-name="Path 32853" d="M560.724 325.761c.339-111.389-47.473-130.774-110.99-83.075L163.446 462.063c-36.167 26.821-52.193 55.612-51.82 83.6l448.725-.009z" transform="rotate(-90 412.832 118.654)" fill="#f7961c" opacity=".05"/><path id="Path_32854" data-name="Path 32854" d="M404.95 198.279c.305 100.438-42.806 117.917-100.078 74.908L46.731 75.377C14.12 51.193-.331 25.233.006 0l404.607.008z" transform="rotate(-90 261.064 269.564)" fill="#01c7b1" opacity=".05"/></g></svg>