<svg xmlns="http://www.w3.org/2000/svg" width="18" height="15.883" viewBox="0 0 18 15.883"><g id="Layer_2" transform="translate(-2 -4)"><path id="Path_33797" data-name="Path 33797" d="M16.4 4H8.3a3.81 3.81 0 0 0-3.6 3.971v.2a3.967 3.967 0 0 0-2.7 3.77v3.971a3.9 3.9 0 0 0 3.78 3.971h8.64a3.9 3.9 0 0 0 3.78-3.971v-.5a4.1 4.1 0 0 0 1.8-3.471v-3.97A3.81 3.81 0 0 0 16.4 4zm0 10.721v1.191a1.994 1.994 0 0 1-1.98 1.988H5.78a1.994 1.994 0 0 1-1.98-1.988v-3.971a1.994 1.994 0 0 1 1.98-1.985h8.64a1.994 1.994 0 0 1 1.98 1.985zm1.8-2.779a3.9 3.9 0 0 0-3.78-3.971H6.5a1.905 1.905 0 0 1 1.8-1.986h8.1a1.905 1.905 0 0 1 1.8 1.985z"/><g id="Group_41445" data-name="Group 41445" transform="translate(15 10.253)"><circle id="Ellipse_2484" data-name="Ellipse 2484" cx=".5" cy=".5" r=".5"/><circle id="Ellipse_2485" data-name="Ellipse 2485" cx=".5" cy=".5" r=".5" transform="translate(0 5.349)"/></g><path id="Path_33798" data-name="Path 33798" d="M11.5 11a3.442 3.442 0 1 0 0 6.882 3.442 3.442 0 1 0 0-6.882zm0 4.588a1.147 1.147 0 1 1 0-2.294 1.147 1.147 0 1 1 0 2.294z" transform="translate(-.857 -1.12)"/><g id="Group_41444" data-name="Group 41444" transform="translate(5 10.253)"><circle id="Ellipse_2482" data-name="Ellipse 2482" cx=".5" cy=".5" r=".5" transform="translate(0 5.349)"/><circle id="Ellipse_2483" data-name="Ellipse 2483" cx=".5" cy=".5" r=".5"/></g></g></svg>