<svg xmlns="http://www.w3.org/2000/svg" width="340.943" height="338.896" viewBox="0 0 340.943 338.896"><g id="sms_svg" data-name="sms svg" transform="translate(12121.614 -14991.009)"><path id="Path_33183" data-name="Path 33183" d="M85.528 334.136V113.5a6.828 6.828 0 0 1 6.96-6.656h327.024a6.839 6.839 0 0 1 6.96 6.656v220.636z" transform="translate(-12207.143 14903.433)" fill="#333"/><path id="Path_33184" data-name="Path 33184" d="M426.472 334.136v28.408a7.053 7.053 0 0 1-6.96 7.1H92.488a7.058 7.058 0 0 1-6.96-7.1v-28.408z" transform="translate(-12207.143 14903.433)" fill="#d8d8d8"/><path id="Path_33185" data-name="Path 33185" d="M206.28 419.368h99.44l-7.1-49.72h-85.236z" transform="translate(-12207.143 14903.433)" fill="#cccbca"/><g id="Group_40135" data-name="Group 40135" transform="translate(-12207.143 14903.433)" opacity=".1"><path id="Path_33186" data-name="Path 33186" d="M298.616 369.648h-85.232l-4.424 30.984 91.312-19.4z" fill="#303030"/></g><path id="Rectangle_22505" data-name="Rectangle 22505" transform="translate(-12025.723 15322.803)" fill="#d8d8d8" d="M0 0h149.16v7.104H0z"/><g id="Group_40136" data-name="Group 40136" transform="translate(-12207.143 14903.433)" opacity=".2"><path id="Path_33187" data-name="Path 33187" d="M213.384 369.648h85.232L299.1 373l-87.928 12.144z" fill="#353535"/></g><path id="Rectangle_22506" data-name="Rectangle 22506" transform="translate(-12109.723 15022.173)" fill="#333" d="M0 0h317.15v203.5H0z"/><g id="Group_40137" data-name="Group 40137" transform="translate(-12207.143 14903.433)" fill="#fff"><path id="Path_33188" data-name="Path 33188" d="M385.7 203.944H243.472a12.964 12.964 0 0 1-12.928-12.928V100.5a12.964 12.964 0 0 1 12.928-12.928H385.7a12.964 12.964 0 0 1 12.932 12.928v90.512a12.959 12.959 0 0 1-12.932 12.932z"/><path id="Path_33189" data-name="Path 33189" d="M359.848 242.736v-51.72h-64.656z"/></g><g id="Group_40138" data-name="Group 40138" transform="translate(-12207.143 14903.433)" fill="#78d0e8"><path id="Path_33190" data-name="Path 33190" d="M126.3 268.6h142.228a12.964 12.964 0 0 0 12.928-12.928v-90.52a12.964 12.964 0 0 0-12.928-12.928H126.3a12.964 12.964 0 0 0-12.928 12.928v90.512A12.966 12.966 0 0 0 126.3 268.6z"/><path id="Path_33191" data-name="Path 33191" d="M152.152 307.384v-51.72h64.656z"/></g><g id="Group_40139" data-name="Group 40139" transform="translate(-12207.143 14903.433)" fill="#fff"><path id="Rectangle_22507" data-name="Rectangle 22507" transform="translate(190.94 191.02)" d="M0 0h12.928v12.928H0z"/><path id="Rectangle_22508" data-name="Rectangle 22508" transform="translate(165.08 191.02)" d="M0 0h12.928v12.928H0z"/><path id="Rectangle_22509" data-name="Rectangle 22509" transform="translate(216.81 191.02)" d="M0 0h12.928v12.928H0z"/><path id="Rectangle_22510" data-name="Rectangle 22510" transform="translate(242.66 191.02)" d="M0 0h12.928v12.928H0z"/><path id="Rectangle_22511" data-name="Rectangle 22511" transform="translate(190.94 216.87)" d="M0 0h12.928v12.928H0z"/><path id="Rectangle_22512" data-name="Rectangle 22512" transform="translate(165.08 216.87)" d="M0 0h12.928v12.928H0z"/></g><g id="Group_40140" data-name="Group 40140" transform="translate(-12207.143 14903.433)" fill="#78d0e8"><path id="Rectangle_22513" data-name="Rectangle 22513" transform="translate(308.13 126.36)" d="M0 0h12.928v12.928H0z"/><path id="Rectangle_22514" data-name="Rectangle 22514" transform="translate(282.26 126.36)" d="M0 0h12.928v12.928H0z"/><path id="Rectangle_22515" data-name="Rectangle 22515" transform="translate(256.41 126.36)" d="M0 0h12.928v12.928H0z"/><path id="Rectangle_22516" data-name="Rectangle 22516" transform="translate(333.98 126.36)" d="M0 0h12.928v12.928H0z"/><path id="Rectangle_22517" data-name="Rectangle 22517" transform="translate(359.85 126.36)" d="M0 0h12.928v12.928H0z"/><path id="Rectangle_22518" data-name="Rectangle 22518" transform="translate(308.13 152.22)" d="M0 0h12.928v12.928H0z"/><path id="Rectangle_22519" data-name="Rectangle 22519" transform="translate(333.98 152.22)" d="M0 0h12.928v12.928H0z"/><path id="Rectangle_22520" data-name="Rectangle 22520" transform="translate(359.85 152.22)" d="M0 0h12.928v12.928H0z"/></g></g></svg>