<svg xmlns="http://www.w3.org/2000/svg" width="20" height="14" viewBox="0 0 20 14"><path id="ic_people_outline_24px" d="M15.091 13A10.066 10.066 0 0 0 11 14a9.906 9.906 0 0 0-4.091-1C4.936 13 1 14.08 1 16.25V19h20v-2.75c0-2.17-3.936-3.25-5.909-3.25zm-3.636 4.5H2.364v-1.25c0-.54 2.327-1.75 4.545-1.75s4.545 1.21 4.545 1.75zm8.182 0h-6.819v-1.25a1.914 1.914 0 0 0-.473-1.22 8.06 8.06 0 0 1 2.745-.53c2.218 0 4.545 1.21 4.545 1.75zM6.909 12a3.356 3.356 0 0 0 3.182-3.5A3.356 3.356 0 0 0 6.909 5a3.356 3.356 0 0 0-3.182 3.5A3.356 3.356 0 0 0 6.909 12zm0-5.5a1.921 1.921 0 0 1 1.818 2 1.921 1.921 0 0 1-1.818 2 1.921 1.921 0 0 1-1.818-2 1.921 1.921 0 0 1 1.818-2zm8.182 5.5a3.356 3.356 0 0 0 3.182-3.5A3.356 3.356 0 0 0 15.091 5a3.356 3.356 0 0 0-3.182 3.5 3.356 3.356 0 0 0 3.182 3.5zm0-5.5a1.921 1.921 0 0 1 1.818 2 1.921 1.921 0 0 1-1.818 2 1.921 1.921 0 0 1-1.818-2 1.921 1.921 0 0 1 1.818-2z" transform="translate(-1 -5)" fill="#fff"/></svg>