<svg xmlns="http://www.w3.org/2000/svg" width="16.091" height="12.422" viewBox="0 0 16.091 12.422"><g id="Group_39949" data-name="Group 39949" transform="translate(-960 -1049.773)" fill="#01c7b1"><path id="Icon_awesome-caret-down" data-name="Icon awesome-caret-down" d="M1.63 13.5h10.75a.834.834 0 0 1 .589 1.425L7.6 20.3a.837.837 0 0 1-1.182 0l-5.377-5.375A.834.834 0 0 1 1.63 13.5z" transform="rotate(90 -34.217 1014.763)"/><path id="Icon_awesome-caret-down-2" data-name="Icon awesome-caret-down" d="M1.63 13.5h10.75a.834.834 0 0 1 .589 1.425L7.6 20.3a.837.837 0 0 1-1.182 0l-5.377-5.375A.834.834 0 0 1 1.63 13.5z" transform="rotate(90 -29.694 1019.285)"/></g></svg>