<svg xmlns="http://www.w3.org/2000/svg" width="17.999" height="11.454" viewBox="0 0 17.999 11.454"><path id="ic_people_outline_24px" d="M13.681 11.545a9.807 9.807 0 0 0-3.681.818 9.651 9.651 0 0 0-3.682-.818C4.543 11.545 1 12.429 1 14.2v2.25h18V14.2c0-1.771-3.543-2.655-5.319-2.655zm-3.273 3.682H2.227V14.2c0-.442 2.094-1.432 4.091-1.432s4.091.99 4.091 1.432zm7.363 0h-6.135V14.2a1.489 1.489 0 0 0-.425-1 7.893 7.893 0 0 1 2.471-.434c2 0 4.091.99 4.091 1.432zm-11.454-4.5a2.864 2.864 0 1 0-2.863-2.863 2.867 2.867 0 0 0 2.864 2.863zm0-4.5a1.636 1.636 0 1 1-1.635 1.637 1.641 1.641 0 0 1 1.636-1.637zm7.363 4.5a2.864 2.864 0 1 0-2.864-2.864 2.867 2.867 0 0 0 2.865 2.864zm0-4.5a1.636 1.636 0 1 1-1.636 1.636 1.641 1.641 0 0 1 1.637-1.636z" transform="translate(-1 -5)"/></svg>