<svg xmlns="http://www.w3.org/2000/svg" width="20" height="17.779" viewBox="0 0 20 17.779"><g id="Icon_awesome-file-export" data-name="Icon awesome-file-export" fill="none" stroke="none"><path d="M13.334 4.233a.831.831 0 0 0-.243-.587l-3.4-3.4A.833.833 0 0 0 9.1 0h-.21v4.445h4.445zm6.494 6.467L16.5 7.348a.557.557 0 0 0-.951.392V10h-2.218v2.222h2.222v2.264a.557.557 0 0 0 .951.392l3.323-3.351a.591.591 0 0 0 .001-.827zm-13.161.972v-1.116A.557.557 0 0 1 7.223 10h6.112V5.556H8.612a.836.836 0 0 1-.833-.833V0H.833A.831.831 0 0 0 0 .833v16.113a.831.831 0 0 0 .833.833H12.5a.831.831 0 0 0 .833-.833v-4.723h-6.11a.557.557 0 0 1-.556-.555z"/><path d="M2 2v13.78h9.334v-1.557H7.223a2.558 2.558 0 0 1-2.556-2.555v-1.112a2.558 2.558 0 0 1 2.556-2.555h4.111v-.445H8.612a2.837 2.837 0 0 1-2.834-2.833V2H2M.833 0h6.945v4.723c0 .458.375.833.834.833h4.722v4.445H7.223a.557.557 0 0 0-.556.555v1.112c0 .305.25.555.556.555h6.111v4.723a.831.831 0 0 1-.833.833H.833A.831.831 0 0 1 0 16.946V.833C0 .372.372 0 .833 0zM8.89 0h.21a.83.83 0 0 1 .59.243l3.4 3.403a.83.83 0 0 1 .243.587v.212H8.89V0zm7.224 7.183c.137 0 .277.051.39.165l3.324 3.347a.59.59 0 0 1 0 .834l-3.323 3.35a.557.557 0 0 1-.952-.392v-2.264h-2.222v-2.222h2.222V7.74c0-.336.275-.558.561-.558z" fill="#01c7b1"/></g></svg>