<svg xmlns="http://www.w3.org/2000/svg" width="1114" height="1736" viewBox="0 0 1114 1736"><g id="Group_40814" data-name="Group 40814" transform="translate(-417 -1832)"><path id="Rectangle_21839" data-name="Rectangle 21839" transform="rotate(90 -906 1761)" fill="#359846" d="M0 0h112v113H0z"/><path id="Rectangle_22562" data-name="Rectangle 22562" transform="rotate(90 -834.5 1689.5)" fill="#00b27c" d="M0 0h112v113H0z"/><path id="Rectangle_21840" data-name="Rectangle 21840" transform="rotate(90 -962.5 1704.5)" fill="#2e833c" d="M0 0h112v113H0z"/><path id="Rectangle_22563" data-name="Rectangle 22563" transform="rotate(90 -891 1633)" fill="#00996a" d="M0 0h112v113H0z"/><path id="Rectangle_21841" data-name="Rectangle 21841" transform="rotate(90 -1019 1648)" fill="#256930" d="M0 0h112v112H0z"/><path id="Rectangle_22564" data-name="Rectangle 22564" transform="rotate(90 -947.5 1576.5)" fill="#00996a" d="M0 0h112v112H0z"/><path id="Rectangle_21838" data-name="Rectangle 21838" transform="rotate(90 -849.5 1817.5)" fill="#3dae50" d="M0 0h112v113H0z"/><path id="Rectangle_22556" data-name="Rectangle 22556" transform="rotate(90 -778 1746)" fill="#00cc8e" d="M0 0h112v113H0z"/><path id="Rectangle_21836" data-name="Rectangle 21836" transform="rotate(90 -793.5 1873.5)" fill="#4cd964" d="M0 0h112v112H0z"/><path id="Rectangle_22557" data-name="Rectangle 22557" transform="rotate(90 -722 1802)" fill="#00ffb1" d="M0 0h112v112H0z"/><path id="Rectangle_21837" data-name="Rectangle 21837" transform="rotate(90 -737 1930)" fill="#70e083" d="M0 0h112v113H0z"/><path id="Rectangle_22558" data-name="Rectangle 22558" transform="rotate(90 -665.5 1858.5)" fill="#33ffc0" d="M0 0h112v113H0z"/><path id="Rectangle_21835" data-name="Rectangle 21835" transform="rotate(90 -681 1986)" fill="#94e8a2" d="M0 0h112v112H0z"/><path id="Rectangle_22559" data-name="Rectangle 22559" transform="rotate(90 -609.5 1914.5)" fill="#66ffd0" d="M0 0h112v112H0z"/><path id="Rectangle_21834" data-name="Rectangle 21834" transform="rotate(90 -624.5 2042.5)" fill="#b7efc1" d="M0 0h112v113H0z"/><path id="Rectangle_22560" data-name="Rectangle 22560" transform="rotate(90 -553 1971)" fill="#99ffdf" d="M0 0h112v113H0z"/><path id="Rectangle_21833" data-name="Rectangle 21833" transform="rotate(90 -568 2099)" fill="#dbf7e0" d="M0 0h112v113H0z"/><path id="Rectangle_22561" data-name="Rectangle 22561" transform="rotate(90 -496.5 2027.5)" fill="#ccffef" d="M0 0h112v113H0z"/><path id="Rectangle_21753" data-name="Rectangle 21753" transform="rotate(90 -673 1528)" fill="#b22922" d="M0 0h113v113H0z"/><path id="Rectangle_21768" data-name="Rectangle 21768" transform="rotate(90 -616.5 1584.5)" fill="#cc2f26" d="M0 0h113v113H0z"/><path id="Rectangle_21769" data-name="Rectangle 21769" transform="rotate(90 -560.5 1640.5)" fill="#f34" d="M0 0h113v112H0z"/><path id="Rectangle_21771" data-name="Rectangle 21771" transform="rotate(90 -504 1697)" fill="#ff625a" d="M0 0h113v113H0z"/><path id="Rectangle_21772" data-name="Rectangle 21772" transform="rotate(90 -448 1753)" fill="#ff8983" d="M0 0h113v112H0z"/><path id="Rectangle_21773" data-name="Rectangle 21773" transform="rotate(90 -391.5 1809.5)" fill="#ffb0ac" d="M0 0h113v113H0z"/><path id="Rectangle_21774" data-name="Rectangle 21774" transform="rotate(90 -335 1866)" fill="#ffd7d5" d="M0 0h113v113H0z"/><path id="Rectangle_21766" data-name="Rectangle 21766" transform="rotate(90 -729.5 1471.5)" fill="#99231d" d="M0 0h113v113H0z"/><path id="Rectangle_21767" data-name="Rectangle 21767" transform="rotate(90 -786 1415)" fill="#801d18" d="M0 0h113v112H0z"/><path id="Rectangle_21744" data-name="Rectangle 21744" transform="rotate(90 -754.5 1609.5)" fill="#b21f3b" d="M0 0h112v113H0z"/><path id="Rectangle_21811" data-name="Rectangle 21811" transform="rotate(90 -698 1666)" fill="#cc2444" d="M0 0h112v113H0z"/><path id="Rectangle_21810" data-name="Rectangle 21810" transform="rotate(90 -642 1722)" fill="#ff2d55" d="M0 0h112v112H0z"/><path id="Rectangle_21809" data-name="Rectangle 21809" transform="rotate(90 -585.5 1778.5)" fill="#ff5777" d="M0 0h112v113H0z"/><path id="Rectangle_21805" data-name="Rectangle 21805" transform="rotate(90 -529.5 1834.5)" fill="#ff8199" d="M0 0h112v112H0z"/><path id="Rectangle_21806" data-name="Rectangle 21806" transform="rotate(90 -473 1890)" fill="#ffabbb" d="M0 0h113v112H0z"/><path id="Rectangle_21807" data-name="Rectangle 21807" transform="rotate(90 -416.5 1947.5)" fill="#ffd5dd" d="M0 0h112v113H0z"/><path id="Rectangle_21813" data-name="Rectangle 21813" transform="rotate(90 -811 1553)" fill="#991b33" d="M0 0h112v113H0z"/><path id="Rectangle_21812" data-name="Rectangle 21812" transform="rotate(90 -867.5 1496.5)" fill="#80172a" d="M0 0h112v112H0z"/><path id="Rectangle_21743" data-name="Rectangle 21743" transform="rotate(90 -1243.5 2211.5)" fill="#2e2e2e" d="M0 0h113v113H0z"/><path id="Rectangle_21825" data-name="Rectangle 21825" transform="rotate(90 -1187 2268)" fill="#9cabb8" d="M0 0h113v113H0z"/><path id="Rectangle_21826" data-name="Rectangle 21826" transform="rotate(90 -1131 2324)" fill="#e6eaed" d="M0 0h113v112H0z"/><path id="Rectangle_21827" data-name="Rectangle 21827" transform="rotate(90 -1075 2380)" fill="#f2f2f2" d="M0 0h113v112H0z"/><path id="Rectangle_21828" data-name="Rectangle 21828" transform="rotate(90 -1018.5 2436.5)" fill="#f8f9fb" d="M0 0h113v113H0z"/><g id="Rectangle_21926" data-name="Rectangle 21926" fill="#fff" stroke="#9cabb8" stroke-width="1"><path stroke="none" d="M0 0h113v113H0z" transform="rotate(90 -962 2493)"/><path fill="none" d="M1530.5 3455.5v112h-112v-112z"/></g><path id="Rectangle_21824" data-name="Rectangle 21824" transform="rotate(90 -1300 2155)" d="M0 0h113v113H0z"/><path id="Rectangle_21754" data-name="Rectangle 21754" transform="rotate(90 -592.5 1447.5)" fill="#c70" d="M0 0h113v113H0z"/><path id="Rectangle_21786" data-name="Rectangle 21786" transform="rotate(90 -649 1391)" fill="#995a00" d="M0 0h113v113H0z"/><path id="Rectangle_21787" data-name="Rectangle 21787" transform="rotate(90 -705.5 1334.5)" fill="#80500d" d="M0 0h113v112H0z"/><path id="Rectangle_21785" data-name="Rectangle 21785" transform="rotate(90 -536 1504)" fill="#c70" d="M0 0h113v113H0z"/><path id="Rectangle_21788" data-name="Rectangle 21788" transform="rotate(90 -480 1560)" fill="#ff9500" d="M0 0h113v112H0z"/><path id="Rectangle_21789" data-name="Rectangle 21789" transform="rotate(90 -423.5 1616.5)" fill="#fa3" d="M0 0h113v113H0z"/><path id="Rectangle_21790" data-name="Rectangle 21790" transform="rotate(90 -367.5 1672.5)" fill="#ffbf66" d="M0 0h113v112H0z"/><path id="Rectangle_21791" data-name="Rectangle 21791" transform="rotate(90 -311 1729)" fill="#ffd499" d="M0 0h113v113H0z"/><path id="Rectangle_21792" data-name="Rectangle 21792" transform="rotate(90 -254.5 1785.5)" fill="#ffe9cc" d="M0 0h113v113H0z"/><path id="Rectangle_21747" data-name="Rectangle 21747" transform="rotate(90 -1139 1994)" fill="#0055b2" d="M0 0h113v113H0z"/><path id="Rectangle_21757" data-name="Rectangle 21757" transform="rotate(90 -1082.5 2050.5)" fill="#0062cc" d="M0 0h113v113H0z"/><path id="Rectangle_21758" data-name="Rectangle 21758" transform="rotate(90 -1026.5 2106.5)" fill="#007aff" d="M0 0h113v112H0z"/><path id="Rectangle_21759" data-name="Rectangle 21759" transform="rotate(90 -970 2163)" fill="#3395ff" d="M0 0h113v113H0z"/><path id="Rectangle_21760" data-name="Rectangle 21760" transform="rotate(90 -914 2219)" fill="#66afff" d="M0 0h113v112H0z"/><path id="Rectangle_21761" data-name="Rectangle 21761" transform="rotate(90 -857.5 2275.5)" fill="#99caff" d="M0 0h113v113H0z"/><path id="Rectangle_21764" data-name="Rectangle 21764" transform="rotate(90 -801 2332)" fill="#cce4ff" d="M0 0h113v113H0z"/><path id="Rectangle_21756" data-name="Rectangle 21756" transform="rotate(90 -1195.5 1937.5)" fill="#004999" d="M0 0h113v113H0z"/><path id="Rectangle_21755" data-name="Rectangle 21755" transform="rotate(90 -1252 1881)" fill="#063d80" d="M0 0h113v112H0z"/><path id="Rectangle_21747-2" data-name="Rectangle 21747" transform="rotate(90 -1057.5 1912.5)" fill="#3f8caf" d="M0 0h113v113H0z"/><path id="Rectangle_21757-2" data-name="Rectangle 21757" transform="rotate(90 -1001 1969)" fill="#48a0c8" d="M0 0h113v113H0z"/><path id="Rectangle_21758-2" data-name="Rectangle 21758" transform="rotate(90 -945 2025)" fill="#5ac8fa" d="M0 0h113v112H0z"/><path id="Rectangle_21759-2" data-name="Rectangle 21759" transform="rotate(90 -888.5 2081.5)" fill="#7bd3fb" d="M0 0h113v113H0z"/><path id="Rectangle_21760-2" data-name="Rectangle 21760" transform="rotate(90 -832.5 2137.5)" fill="#9cdefc" d="M0 0h113v112H0z"/><path id="Rectangle_21761-2" data-name="Rectangle 21761" transform="rotate(90 -776 2194)" fill="#bde9fd" d="M0 0h113v113H0z"/><path id="Rectangle_21764-2" data-name="Rectangle 21764" transform="rotate(90 -719.5 2250.5)" fill="#def4fe" d="M0 0h113v113H0z"/><path id="Rectangle_21756-2" data-name="Rectangle 21756" transform="rotate(90 -1114 1856)" fill="#367896" d="M0 0h113v113H0z"/><path id="Rectangle_21755-2" data-name="Rectangle 21755" transform="rotate(90 -1170.5 1799.5)" fill="#244f63" d="M0 0h113v112H0z"/><path id="Rectangle_21770" data-name="Rectangle 21770" transform="rotate(90 -1220 2075)" fill="#4645ab" d="M0 0h113v113H0z"/><path id="Rectangle_21814" data-name="Rectangle 21814" transform="rotate(90 -1163.5 2131.5)" fill="#5856d6" d="M0 0h113v113H0z"/><path id="Rectangle_21816" data-name="Rectangle 21816" transform="rotate(90 -1107.5 2187.5)" fill="#7978de" d="M0 0h113v112H0z"/><path id="Rectangle_21817" data-name="Rectangle 21817" transform="rotate(90 -1051 2244)" fill="#9b99e6" d="M0 0h113v113H0z"/><path id="Rectangle_21818" data-name="Rectangle 21818" transform="rotate(90 -995 2300)" fill="#bcbbee" d="M0 0h113v112H0z"/><path id="Rectangle_21819" data-name="Rectangle 21819" transform="rotate(90 -938.5 2356.5)" fill="#ddddf6" d="M0 0h113v113H0z"/><path id="Rectangle_21820" data-name="Rectangle 21820" transform="rotate(90 -882 2413)" fill="#f2f2ff" d="M0 0h113v113H0z"/><path id="Rectangle_21821" data-name="Rectangle 21821" transform="rotate(90 -1276.5 2018.5)" fill="#353481" d="M0 0h113v113H0z"/><path id="Rectangle_21822" data-name="Rectangle 21822" transform="rotate(90 -1333 1962)" fill="#14134d" d="M0 0h113v112H0z"/><path id="Rectangle_21752" data-name="Rectangle 21752" transform="rotate(90 -986 1841)" fill="#018b7c" d="M0 0h113v113H0z"/><path id="Rectangle_21783" data-name="Rectangle 21783" transform="rotate(90 -1042.5 1784.5)" fill="#01786a" d="M0 0h113v113H0z"/><path id="Rectangle_21784" data-name="Rectangle 21784" transform="rotate(90 -1099 1728)" fill="#015e53" d="M0 0h113v112H0z"/><path id="Rectangle_21776" data-name="Rectangle 21776" transform="rotate(90 -929.5 1897.5)" fill="#009e96" d="M0 0h113v113H0z"/><path id="Rectangle_21846" data-name="Rectangle 21846" transform="rotate(90 -817 2010)" fill="#34d2c0" d="M0 0h113v113H0z"/><path id="Rectangle_21845" data-name="Rectangle 21845" transform="rotate(90 -761 2066)" fill="#67ddd0" d="M0 0h113v112H0z"/><path id="Rectangle_21842" data-name="Rectangle 21842" transform="rotate(90 -704.5 2122.5)" fill="#99e8df" d="M0 0h113v113H0z"/><path id="Rectangle_21843" data-name="Rectangle 21843" transform="rotate(90 -648 2179)" fill="#ccf3ef" d="M0 0h113v113H0z"/><path id="Rectangle_1891" data-name="Rectangle 1891" transform="rotate(90 -873.5 1953.5)" fill="#01c7b1" d="M0 0h113v112H0z"/><path id="Rectangle_21746" data-name="Rectangle 21746" transform="rotate(90 -511 1367)" fill="#b28f00" d="M0 0h114v114H0z"/><path id="Rectangle_21798" data-name="Rectangle 21798" transform="rotate(90 -455 1423)" fill="#cca300" d="M0 0h114v113H0z"/><path id="Rectangle_21799" data-name="Rectangle 21799" transform="rotate(90 -399 1479)" fill="#fc0" d="M0 0h114v112H0z"/><path id="Rectangle_21800" data-name="Rectangle 21800" transform="rotate(90 -342.5 1535.5)" fill="#ffd633" d="M0 0h114v113H0z"/><path id="Rectangle_21801" data-name="Rectangle 21801" transform="rotate(90 -286.5 1591.5)" fill="#ffe066" d="M0 0h114v113H0z"/><path id="Rectangle_21802" data-name="Rectangle 21802" transform="rotate(90 -230 1648)" fill="#ffea99" d="M0 0h114v113H0z"/><path id="Rectangle_21796" data-name="Rectangle 21796" transform="rotate(90 -567.5 1310.5)" fill="#997b00" d="M0 0h114v114H0z"/><path id="Rectangle_21797" data-name="Rectangle 21797" transform="rotate(90 -624 1254)" fill="#806600" d="M0 0h114v113H0z"/><path id="Rectangle_21803" data-name="Rectangle 21803" transform="rotate(90 -173.5 1704.5)" fill="#fff4cc" d="M0 0h114v114H0z"/><text id="_100" data-name="100" transform="translate(1457 1852)" font-size="20" font-family="NunitoSans-Regular, Nunito Sans"><tspan x="0" y="0">100</tspan></text><text id="_200" data-name="200" transform="translate(1343 1852)" font-size="20" font-family="NunitoSans-Regular, Nunito Sans"><tspan x="0" y="0">200</tspan></text><text id="_300" data-name="300" transform="translate(1229 1852)" font-size="20" font-family="NunitoSans-Regular, Nunito Sans"><tspan x="0" y="0">300</tspan></text><text id="_400" data-name="400" transform="translate(1118 1852)" font-size="20" font-family="NunitoSans-Regular, Nunito Sans"><tspan x="0" y="0">400</tspan></text><text id="_500" data-name="500" transform="translate(1005 1852)" font-size="20" font-family="NunitoSans-Regular, Nunito Sans"><tspan x="0" y="0">500</tspan></text><text id="_600" data-name="600" transform="translate(898 1852)" font-size="20" font-family="NunitoSans-Regular, Nunito Sans"><tspan x="0" y="0">600</tspan></text><text id="_700" data-name="700" transform="translate(787 1852)" font-size="20" font-family="NunitoSans-Regular, Nunito Sans"><tspan x="0" y="0">700</tspan></text><text id="_800" data-name="800" transform="translate(669 1852)" font-size="20" font-family="NunitoSans-Regular, Nunito Sans"><tspan x="0" y="0">800</tspan></text><text id="_900" data-name="900" transform="translate(551 1852)" font-size="20" font-family="NunitoSans-Regular, Nunito Sans"><tspan x="0" y="0">900</tspan></text><text id="Yellow" transform="translate(417 1942)" font-size="14" font-family="NunitoSans-Regular, Nunito Sans"><tspan x="0" y="0">Yellow</tspan></text><text id="Orange" transform="translate(417 2102)" font-size="13" font-family="NunitoSans-Regular, Nunito Sans"><tspan x="0" y="0">Orange</tspan></text><text id="Pink" transform="translate(417 2265)" font-size="14" font-family="NunitoSans-Regular, Nunito Sans"><tspan x="0" y="0">Pink</tspan></text><text id="Red" transform="translate(417 2426)" font-size="14" font-family="NunitoSans-Regular, Nunito Sans"><tspan x="0" y="0">Red</tspan></text><text id="Spring_Green" data-name="Spring Green" transform="translate(417 2588)" font-size="14" font-family="NunitoSans-Regular, Nunito Sans"><tspan x="0" y="0">Spring Green</tspan></text><text id="Green" transform="translate(417 2728)" font-size="14" font-family="NunitoSans-Regular, Nunito Sans"><tspan x="0" y="0">Green</tspan></text><text id="Teal" transform="translate(417 2889)" font-size="14" font-family="NunitoSans-Regular, Nunito Sans"><tspan x="0" y="0">Teal</tspan></text><text id="Cyan" transform="translate(417 3029)" font-size="14" font-family="NunitoSans-Regular, Nunito Sans"><tspan x="0" y="0">Cyan</tspan></text><text id="Blue" transform="translate(417 3191)" font-size="14" font-family="NunitoSans-Regular, Nunito Sans"><tspan x="0" y="0">Blue</tspan></text><text id="Purple" transform="translate(417 3356)" font-size="14" font-family="NunitoSans-Regular, Nunito Sans"><tspan x="0" y="0">Purple</tspan></text><text id="Neutrals" transform="translate(417 3520)" font-size="13" font-family="NunitoSans-Regular, Nunito Sans"><tspan x="0" y="0">Neutrals</tspan></text></g></svg>