<svg xmlns="http://www.w3.org/2000/svg" width="119" height="140" viewBox="0 0 119 140"><g id="Group_41039" data-name="Group 41039" transform="translate(2819 -2139)"><g id="document-svgrepo-com" transform="translate(-2819 2139)"><g id="Group_41038" data-name="Group 41038"><g id="Group_41037" data-name="Group 41037" fill="#01c7b1"><path id="Path_33779" data-name="Path 33779" d="M130.334 0H55v127.872h98.87V24.92zm1.125 6.951l15.846 16.778H131.46zm18.456 116.966h-90.96V3.955H127.5v23.729h22.411z" transform="translate(-55)"/><path id="Rectangle_22681" data-name="Rectangle 22681" transform="translate(12.524 50.358)" d="M0 0h73.823v3.955H0z"/><path id="Rectangle_22682" data-name="Rectangle 22682" transform="translate(12.524 37.175)" d="M0 0h31.638v3.955H0z"/><path id="Rectangle_22683" data-name="Rectangle 22683" transform="translate(12.524 63.54)" d="M0 0h73.823v3.955H0z"/><path id="Rectangle_22684" data-name="Rectangle 22684" transform="translate(12.524 76.723)" d="M0 0h73.823v3.955H0z"/><path id="Rectangle_22685" data-name="Rectangle 22685" transform="translate(12.524 89.906)" d="M0 0h73.823v3.955H0z"/><path id="Rectangle_22686" data-name="Rectangle 22686" transform="translate(12.524 103.089)" d="M0 0h73.823v3.955H0z"/></g></g></g><circle id="Ellipse_2474" data-name="Ellipse 2474" cx="27.5" cy="27.5" r="27.5" transform="translate(-2755 2224)" fill="#fff"/><path id="Icon_awesome-arrow-up" data-name="Icon awesome-arrow-up" d="M2.18 17.94L.827 16.587a1.456 1.456 0 0 1 0-2.066L12.666 2.676a1.456 1.456 0 0 1 2.066 0l11.84 11.84a1.456 1.456 0 0 1 0 2.066l-1.353 1.353a1.464 1.464 0 0 1-2.09-.024l-6.989-7.338v17.513a1.459 1.459 0 0 1-1.462 1.462h-1.95a1.459 1.459 0 0 1-1.462-1.462V10.573l-7 7.343a1.454 1.454 0 0 1-2.09.024z" transform="translate(-2741.08 2235.551)" fill="#01c7b1"/></g></svg>