<svg xmlns="http://www.w3.org/2000/svg" width="18.969" height="20" viewBox="0 0 18.969 20"><g id="Group_39913" data-name="Group 39913" transform="translate(16122 16363)"><path id="file-block-alt" d="M7 8a1 1 0 0 0 0 2h1a1 1 0 0 0 0-2zm5 12H5a1 1 0 0 1-1-1V5a1 1 0 0 1 1-1h5v3a3 3 0 0 0 3 3h3v1a1 1 0 0 0 2 0V8.94a1.31 1.31 0 0 0-.06-.27v-.09a1.07 1.07 0 0 0-.19-.28l-6-6a1.07 1.07 0 0 0-.28-.19.32.32 0 0 0-.09 0L11.06 2H5a3 3 0 0 0-3 3v14a3 3 0 0 0 3 3h7a1 1 0 0 0 0-2zm0-14.59L14.59 8H13a1 1 0 0 1-1-1zM11 18a1 1 0 0 0 0-2H7a1 1 0 0 0 0 2zm2-6H7a1 1 0 0 0 0 2h6a1 1 0 0 0 0-2z" transform="translate(-16124 -16365)"/><path id="mbri-timer" d="M-16106.232-16347.934v1.4a.233.233 0 1 1-.467 0v-1.4a.234.234 0 0 1 .467 0zm-.7-2.568a.233.233 0 0 0 0 .467h.232v.7a.227.227 0 0 0 .233.233 2.568 2.568 0 1 1-2.566 2.568 2.624 2.624 0 0 1 .846-1.926.233.233 0 1 0-.307-.35 3.053 3.053 0 1 0 2.262-.744v-.481h.232a.233.233 0 0 0 0-.467z" stroke="#000" stroke-width=".8"/></g></svg>