<svg xmlns="http://www.w3.org/2000/svg" width="29.25" height="29.25" viewBox="0 0 29.25 29.25"><g id="Icon_ionic-ios-help-circle-outline" data-name="Icon ionic-ios-help-circle-outline" transform="translate(-3.375 -3.375)" fill="#fff"><path id="Path_32277" data-name="Path 32277" d="M18 5.344a12.651 12.651 0 1 1-8.951 3.705A12.573 12.573 0 0 1 18 5.344m0-1.969A14.625 14.625 0 1 0 32.625 18 14.623 14.623 0 0 0 18 3.375z"/><path id="Path_32278" data-name="Path 32278" d="M18.049 11.25c2.637 0 4.451 1.462 4.451 3.565a3.439 3.439 0 0 1-1.976 3.122c-1.223.71-1.638 1.23-1.638 2.13v.555h-2.44l-.021-.6a2.927 2.927 0 0 1 1.659-3.094c1.188-.71 1.688-1.16 1.688-2.032a1.707 1.707 0 0 0-1.892-1.516A1.779 1.779 0 0 0 16 15.11h-2.5c.049-2.264 1.723-3.86 4.549-3.86zM16.2 23.3a1.509 1.509 0 1 1 1.5 1.448 1.473 1.473 0 0 1-1.5-1.448z"/></g></svg>