<svg xmlns="http://www.w3.org/2000/svg" width="489" height="277" viewBox="0 0 489 277"><g id="Group_40819" data-name="Group 40819" transform="translate(-417 -1417)"><g id="Rectangle_22005" data-name="Rectangle 22005" stroke="#707070" stroke-width="1"><path stroke="none" d="M0 0h489v277H0z" transform="translate(417 1417)"/><path fill="none" d="M417.5 1417.5h488v276h-488z"/></g><g id="Hubtel_Primary_Monochrome" data-name="Hubtel Primary Monochrome" transform="translate(542.585 1478.899)" fill="#fff"><path id="Path_32258" data-name="Path 32258" d="M137.06 276.55c0-3.84.93-4.78 4.75-4.78h1.61c3.82 0 4.75.94 4.75 4.78v16.14c2.72-3 7.39-4.87 13-4.87 6.79 0 14.43 3.16 14.43 14.69v24.26c0 3.84-.93 4.78-4.75 4.78h-1.61c-3.82 0-4.75-.94-4.75-4.78v-22.29c0-4.78-2.72-6.15-7.13-6.15-4.92 0-9.17 2-9.17 10.33v18.11c0 3.84-.93 4.78-4.75 4.78h-1.61c-3.82 0-4.75-.94-4.75-4.78z" transform="translate(-137.06 -179.38)"/><path id="Path_32259" data-name="Path 32259" d="M195 315.32c0 4.36 1.27 6.75 8.23 6.75s8.06-2.39 8.06-6.75v-21.7c0-3.84.93-4.78 4.75-4.78h1.61c3.82 0 4.75.94 4.75 4.78v21.7c0 11.45-5.77 17.25-19.18 17.25-12.82 0-19.35-6.07-19.35-17.25v-21.7c0-3.84.93-4.78 4.75-4.78h1.61c3.82 0 4.75.94 4.75 4.78z" transform="translate(-137.06 -179.38)"/><path id="Path_32260" data-name="Path 32260" d="M230.78 276.55c0-3.84.93-4.78 4.75-4.78h1.53c3.82 0 4.75.94 4.75 4.78v16.14c2.21-3 5.77-4.87 11.63-4.87 11.8 0 17.82 7 17.82 19.22v6.83c0 13.41-7.55 18.71-20.29 18.71-11.2 0-20.2-5.3-20.2-18.71zm29.37 30.24c0-5.47-1.44-8.45-9.08-8.45s-9.25 3-9.25 8.45v6.83c0 5.47 1.61 8.46 9.25 8.46 7.81 0 9.08-3 9.08-8.46z" transform="translate(-137.06 -179.38)"/><path id="Path_32261" data-name="Path 32261" d="M301.85 321.48a31.488 31.488 0 0 1-5.94.51c-3.14 0-5.23-1.38-5.34-5.39a3.117 3.117 0 0 0 .08-.66v-16.59h9.59c3.82 0 4.76-.94 4.76-4.78v-.94c0-3.84-.94-4.78-4.76-4.78h-9.59v-6.41c0-3.84-.93-4.78-4.75-4.78h-1.53c-3.82 0-4.75.94-4.75 4.78v5.88l-.08.53v27.33q0 1.17.08 2.24a8.339 8.339 0 0 0 .29 2.33c1.55 8.86 7.86 11.75 16 11.75a27.058 27.058 0 0 0 5.94-.51c3.73-.77 4.67-2.22 4.67-6.07V325c0-3.85-.93-4.19-4.67-3.5" transform="translate(-137.06 -179.38)"/><path id="Path_32262" data-name="Path 32262" d="M349.21 309.6c-.51 3.93-1.61 4.7-5.52 4.7h-21.55v1.28c0 4.44 3.23 6.49 11.12 6.49a51.791 51.791 0 0 0 10.27-1.19c3.74-.77 4.5.26 4.5 4.1v.94c0 3.85-.76 4.61-4.5 5.55a45.441 45.441 0 0 1-10.35 1.11c-15 0-22.15-5.47-22.15-18.71V307c0-11 5-19.22 19.78-19.22 12.39 0 18.59 6.32 18.59 18.45a28.353 28.353 0 0 1-.17 3.33m-27.08-4.36h16.72V304c0-4.27-2.8-6.49-8.4-6.49s-8.32 2.22-8.32 6.49z" transform="translate(-137.06 -179.38)"/><path id="Path_32263" data-name="Path 32263" d="M356.86 276.55c0-3.84.93-4.78 4.75-4.78h1.53c3.82 0 4.75.94 4.75 4.78v39.63c0 4.44 1.19 5.72 3.73 5.72h.38c2.21 0 2.89.51 2.89 3.93v1.62c0 3.42-.68 4.36-2.89 4.78a10.478 10.478 0 0 1-2.55.17c-7.22 0-12.65-4-12.65-13.75z" transform="translate(-137.06 -179.38)"/><path id="Path_32264" data-name="Path 32264" d="M243.18 228.34c-4.2-3.12-6.26-6.45-6.54-9.73h-16.1v24.25c0 12.91 5.48 15.16 12.81 9.63L254 236.63z" transform="translate(-137.06 -179.38)"/><path id="Path_32265" data-name="Path 32265" d="M291.42 218.61H239.7c.39 2.85 2.26 5.74 5.91 8.45l33 25.43c7.33 5.53 12.85 3.28 12.81-9.63z" transform="translate(-137.06 -179.38)"/><path id="Path_32266" data-name="Path 32266" d="M278.65 182.25l-20.83 16 10.57 8.13c4.16 3.1 6.22 6.41 6.54 9.66h16.5v-24.2c0-12.91-5.48-15.16-12.81-9.63" transform="translate(-137.06 -179.38)"/><path id="Path_32267" data-name="Path 32267" d="M266.39 207.68l-33-25.43c-7.33-5.53-12.85-3.28-12.81 9.63v24.2h51.75c-.4-2.83-2.28-5.7-5.9-8.4" transform="translate(-137.06 -179.38)"/></g></g></svg>