<svg width="128" height="128" viewBox="0 0 128 128" fill="none" xmlns="http://www.w3.org/2000/svg"><rect width="128" height="128" rx="64" fill="#9CABB8"/><g clip-path="url(#clip0_2172_10345)"><path d="M104 32c8.837 0 16-7.163 16-16s-7.163-16-16-16-16 7.163-16 16 7.163 16 16 16z" fill="#007AFF"/><path d="M103.331 10.988h-4.418a1.261 1.261 0 0 0-1.262 1.262v8.835a1.263 1.263 0 0 0 1.262 1.263h8.835a1.263 1.263 0 0 0 1.263-1.263v-4.417" stroke="#fff" stroke-width="1.455" stroke-linecap="round" stroke-linejoin="round"/><path d="M108.064 10.042a1.338 1.338 0 0 1 1.891 1.891l-5.993 5.997-2.525.631.631-2.525 5.996-5.994z" stroke="#fff" stroke-width="1.455" stroke-linecap="round" stroke-linejoin="round"/></g><path d="M65.5 65.602a14.18 14.18 0 1 0 0-28.358 14.18 14.18 0 0 0 0 28.358zm0 6.23c-18.852 0-30.938 10.403-30.938 15.469v9.458h61.876V87.3c0-6.125-11.442-15.468-30.938-15.468z" fill="#E6EAED"/><defs><clipPath id="clip0_2172_10345"><path fill="#fff" transform="translate(88)" d="M0 0h32v32H0z"/></clipPath></defs></svg>