<svg width="43" height="43" viewBox="0 0 43 43" fill="none" xmlns="http://www.w3.org/2000/svg"><path d="M41.484 24.114a4.111 4.111 0 1 0 0 5.812 4.1 4.1 0 0 0 0-5.812zm-1.933 3.867a1.359 1.359 0 0 1-2.334-.962c0-.362.142-.709.394-.968a1.368 1.368 0 0 1 1.94 1.929v.001z" fill="#F9A926"/><path d="M28.064 26.673l-.914.914-10.554 10.545a4.1 4.1 0 0 1-5.812 0l-2.906-2.906-2.906-2.906a4.113 4.113 0 0 1 0-5.821l11.46-11.459 5.82 5.821 5.812 5.812z" fill="#FFC033"/><path d="M30.969 23.758l-2.906 2.915-5.812-5.812-5.821-5.821 2.906-2.906a1.361 1.361 0 0 1 1.937 0l4.852 4.843 4.843 4.843a1.362 1.362 0 0 1 0 1.938z" fill="#F26D76"/><path d="M11.76 36.543a4.117 4.117 0 0 1-3.9 2.815H4.815a1.375 1.375 0 0 0-1.37 1.37A1.369 1.369 0 0 1 2.072 42.1a1.254 1.254 0 0 1-.8-.274 1.313 1.313 0 0 1-.576-1.1 4.118 4.118 0 0 1 4.112-4.112h3.05a1.363 1.363 0 0 0 1.3-.941 1.373 1.373 0 0 1 2.6.868l.001.002z" fill="#D7EBFF"/><path d="M11.76 36.542a4.118 4.118 0 0 1-3.9 2.815H4.815a1.375 1.375 0 0 0-1.37 1.371 1.37 1.37 0 0 1-1.374 1.37 1.254 1.254 0 0 1-.8-.274l5.21-5.209h1.37a1.363 1.363 0 0 0 1.3-.941 1.373 1.373 0 0 1 2.6.868h.01z" fill="#BDDEFF"/><path d="M30.97 23.758l-2.906 2.915-5.812-5.812 3.875-3.884 4.843 4.843a1.362 1.362 0 0 1 0 1.938z" fill="#E65C64"/><path d="M28.063 26.673L16.595 38.132a4.101 4.101 0 0 1-5.812 0l-2.906-2.906 13.47-13.461.9-.9 5.816 5.808z" fill="#F9A926"/><path d="M29.032 15.437a1.37 1.37 0 0 1-.969-2.34L39.694 1.466a1.371 1.371 0 1 1 1.938 1.938l-11.63 11.633a1.368 1.368 0 0 1-.97.4z" fill="#FFC033"/><path d="M40.868 19.054c-.287 0-.567-.089-.8-.256a7.287 7.287 0 0 0-7.518-.6 1.372 1.372 0 1 1-1.226-2.452 10.02 10.02 0 0 1 10.34.818 1.371 1.371 0 0 1-.8 2.485l.004.005z" fill="#E65C64"/><path d="M26.123 12.532A1.372 1.372 0 0 1 24.8 10.8a9.637 9.637 0 0 0-1.495-8.22A1.37 1.37 0 0 1 25.527.974a12.369 12.369 0 0 1 1.918 10.549 1.371 1.371 0 0 1-1.322 1.009z" fill="#F26D76"/><path d="M32.185 4.614a1.371 1.371 0 1 0 0-2.742 1.371 1.371 0 0 0 0 2.742z" fill="#36D9D9"/><path d="M39.496 12.838a1.371 1.371 0 1 0 0-2.742 1.371 1.371 0 0 0 0 2.742z" fill="#43BFBF"/><path d="M17.81 25.302h-2.742v2.741h2.741v-2.741z" fill="#36D9D9"/><path d="M28.064 15.039a1.369 1.369 0 0 0 1.936 0L41.632 3.408a1.37 1.37 0 0 0 0-1.936L28.064 15.04z" fill="#F9A926"/><path d="M17.81 25.302v2.741h-2.742l2.741-2.741z" fill="#43BFBF"/><path d="M18.181 1.269a4.112 4.112 0 1 0 0 5.812 4.1 4.1 0 0 0 0-5.812zm-1.933 3.868a1.36 1.36 0 0 1-2.333-.962c0-.362.141-.709.393-.968a1.368 1.368 0 1 1 1.94 1.93z" fill="#FFC033"/></svg>