<svg xmlns="http://www.w3.org/2000/svg" width="17.6" height="16" viewBox="0 0 17.6 16"><path id="money-withdraw" d="M9.8 10a2.4 2.4 0 1 0 2.4 2.4A2.4 2.4 0 0 0 9.8 10zm0 3.2a.8.8 0 1 1 .8-.8.8.8 0 0 1-.8.8zm-.568-5.032a.8.8 0 0 0 .264.168.752.752 0 0 0 .608 0 .8.8 0 0 0 .264-.168l1.832-1.8A.826.826 0 0 0 11.032 5.2l-.432.472V2.8a.8.8 0 1 0-1.6 0v2.872L8.568 5.2A.826.826 0 1 0 7.4 6.368zM15.4 12.4a.8.8 0 1 0-.8.8.8.8 0 0 0 .8-.8zm.8-5.6h-2.4a.8.8 0 1 0 0 1.6h2.4a.8.8 0 0 1 .8.8v6.4a.8.8 0 0 1-.8.8H3.4a.8.8 0 0 1-.8-.8V9.2a.8.8 0 0 1 .8-.8h2.4a.8.8 0 1 0 0-1.6H3.4A2.4 2.4 0 0 0 1 9.2v6.4A2.4 2.4 0 0 0 3.4 18h12.8a2.4 2.4 0 0 0 2.4-2.4V9.2a2.4 2.4 0 0 0-2.4-2.4zm-12 5.6a.8.8 0 1 0 .8-.8.8.8 0 0 0-.8.8z" transform="translate(-1 -2)" fill="#01c7b1"/></svg>