<svg xmlns="http://www.w3.org/2000/svg" width="20" height="12.727" viewBox="0 0 20 12.727"><path id="money-bill" d="M5.545 10.455a.909.909 0 1 0 .909.909.909.909 0 0 0-.909-.909zm10.909 0a.909.909 0 1 0 .909.909.909.909 0 0 0-.908-.909zM18.273 5H3.727A2.727 2.727 0 0 0 1 7.727V15a2.727 2.727 0 0 0 2.727 2.727h14.546A2.727 2.727 0 0 0 21 15V7.727A2.727 2.727 0 0 0 18.273 5zm.909 10a.909.909 0 0 1-.909.909H3.727A.909.909 0 0 1 2.818 15V7.727a.909.909 0 0 1 .909-.909h14.546a.909.909 0 0 1 .909.909zM11 8.636a2.727 2.727 0 1 0 2.727 2.727A2.727 2.727 0 0 0 11 8.636zm0 3.636a.909.909 0 1 1 .909-.909.909.909 0 0 1-.909.91z" transform="translate(-1 -5)" fill="#fff"/></svg>