<svg xmlns="http://www.w3.org/2000/svg" width="17.604" height="16" viewBox="0 0 17.604 16"><path id="money-insert" d="M8.57 5.2L9 4.73V7.6a.8.8 0 1 0 1.6 0V4.73l.432.44a.8.8 0 1 0 1.168-1.1l-1.83-1.837a.827.827 0 0 0-1.136 0L7.4 4.034A.826.826 0 1 0 8.57 5.2zM9.8 10a2.4 2.4 0 1 0 2.4 2.4A2.4 2.4 0 0 0 9.8 10zm0 3.2a.8.8 0 1 1 .8-.8.8.8 0 0 1-.8.8zm-5.6-.8a.8.8 0 1 0 .8-.8.8.8 0 0 0-.8.8zm11.2 0a.8.8 0 1 0-.8.8.8.8 0 0 0 .8-.8zm.8-5.6H13a.8.8 0 0 0 0 1.6h3.2a.8.8 0 0 1 .8.8v6.4a.8.8 0 0 1-.8.8H3.4a.8.8 0 0 1-.8-.8V9.2a.8.8 0 0 1 .8-.8h3.2a.8.8 0 0 0 0-1.6H3.4A2.4 2.4 0 0 0 1 9.2v6.4A2.4 2.4 0 0 0 3.4 18h12.8a2.4 2.4 0 0 0 2.4-2.4V9.2a2.4 2.4 0 0 0-2.4-2.4z" transform="translate(-1 -2.005)" fill="#01c7b1"/></svg>