<svg width="114" height="115" viewBox="0 0 114 115" fill="none" xmlns="http://www.w3.org/2000/svg"><path d="M56.73 13.023c-3.564 0-6.454-2.915-6.454-6.511C50.276 2.915 53.166 0 56.73 0c3.564 0 6.454 2.915 6.454 6.512 0 3.596-2.89 6.511-6.454 6.511z" fill="#CF7B00"/><path d="M63.185 6.512c0 3.596-2.89 6.511-6.454 6.511V0c3.564 0 6.454 2.915 6.454 6.512z" fill="#CF933C"/><path d="M57 115c-8.118 0-14.7-6.639-14.7-14.83 0-8.19 6.582-14.83 14.7-14.83 8.12 0 14.701 6.64 14.701 14.83 0 8.191-6.581 14.83-14.7 14.83z" fill="#940009"/><path d="M71.701 100.17c0 8.19-6.581 14.829-14.7 14.829V85.34c8.119 0 14.7 6.64 14.7 14.83z" fill="#FF0029"/><path d="M10.043 90.265c14.02-15.97 21.66-36.52 21.54-57.852v-.148c0-14.223 11.43-25.753 25.53-25.753 14.1 0 25.53 11.53 25.53 25.753l-.001.218c-.175 21.248 7.405 41.825 21.314 57.782h.001-93.914z" fill="#FF9800"/><path d="M57 6.513l.113-.001c14.1 0 25.53 11.53 25.53 25.753l-.001.218c-.175 21.248 7.405 41.825 21.314 57.782h.001H57V6.513z" fill="#F7DC4D"/><path d="M13.008 100.17h87.983c3.684 0 6.671-3.013 6.671-6.73 0-3.716-2.987-6.729-6.671-6.729H13.008c-3.684 0-6.671 3.013-6.671 6.73 0 3.716 2.987 6.729 6.67 6.729z" fill="#E5BF2B"/><path d="M22.129 72.433A86.764 86.764 0 0 0 28.83 54.68h56.498a86.923 86.923 0 0 0 6.638 17.753H22.129z" fill="#005A95"/><path d="M57 54.68h28.282a86.908 86.908 0 0 0 6.638 17.753H57V54.68z" fill="#31AAEF"/><path d="M57 86.711h43.991c3.684 0 6.671 3.013 6.671 6.73 0 3.716-2.987 6.729-6.671 6.729H56.999V86.711z" fill="#F9ED9D"/></svg>