<svg id="Notifications" xmlns="http://www.w3.org/2000/svg" width="31.409" height="31.61" viewBox="0 0 31.409 31.61"><ellipse id="Ellipse_2" data-name="Ellipse 2" cx="15.705" cy="15.805" rx="15.705" ry="15.805"/><path id="Icon_awesome-bell" data-name="Icon awesome-bell" d="M7.7 17.61a2.2 2.2 0 0 0 2.2-2.2H5.5a2.2 2.2 0 0 0 2.2 2.2zm7.408-5.149c-.665-.714-1.908-1.788-1.908-5.307a5.432 5.432 0 0 0-4.4-5.337V1.1a1.1 1.1 0 1 0-2.2 0v.717a5.432 5.432 0 0 0-4.4 5.337c0 3.519-1.239 4.593-1.9 5.307a1.075 1.075 0 0 0-.3.747 1.1 1.1 0 0 0 1.1 1.1h13.2a1.1 1.1 0 0 0 1.1-1.1 1.074 1.074 0 0 0-.3-.747z" transform="translate(8 7)" fill="#fff"/></svg>