<svg xmlns="http://www.w3.org/2000/svg" width="376.242" height="388.531" viewBox="0 0 376.242 388.531"><g id="payment-method-svgrepo-com" transform="rotate(-12 272.284 199.749)"><g id="Group_40105" data-name="Group 40105" transform="translate(23.73 59.489)"><g id="Group_40104" data-name="Group 40104"><path id="Path_32882" data-name="Path 32882" d="M227.561 73.051v100.795a11.776 11.776 0 0 1-11.776 11.777H35.506a11.776 11.776 0 0 1-11.776-11.777V73.051a11.776 11.776 0 0 1 11.776-11.776h180.279a11.775 11.775 0 0 1 11.776 11.776z" transform="translate(-23.73 -61.275)" fill="#29abe2"/><path id="Rectangle_22487" data-name="Rectangle 22487" transform="translate(0 26.456)" fill="#4d4d4d" d="M0 0h203.831v30.407H0z"/></g><path id="Path_32883" data-name="Path 32883" d="M50.1 157.475a24.392 24.392 0 0 0 6.3 16.379 14.1 14.1 0 0 1-1.647.088 16.468 16.468 0 0 1 0-32.935 14.083 14.083 0 0 1 1.647.088 24.392 24.392 0 0 0-6.3 16.38z" transform="translate(-24.154 -63.599)" fill="#fc7a51"/><circle id="Ellipse_2258" data-name="Ellipse 2258" cx="16.468" cy="16.468" r="16.468" transform="translate(33.983 77.408)" fill="#f4d521"/></g><g id="Group_40106" data-name="Group 40106" transform="translate(107.464 94.618)"><path id="Rectangle_22488" data-name="Rectangle 22488" fill="#86d359" d="M0 0h254.488v136.978H0z"/><path id="Path_32884" data-name="Path 32884" d="M410.7 162.288v60.455a23.908 23.908 0 0 0-23.912 23.475H209.25a23.908 23.908 0 0 0-23.912-23.475v-60.455a23.92 23.92 0 0 0 23.922-23.922h177.521a23.92 23.92 0 0 0 23.919 23.922z" transform="translate(-170.779 -123.803)" fill="#77bc4a"/></g><g id="Group_40107" data-name="Group 40107" transform="translate(93.735 168.457)"><path id="Path_32885" data-name="Path 32885" d="M196.9 253.6a42.209 42.209 0 0 1-42.2 42.213q-1.573 0-3.116-.116a42.2 42.2 0 0 1 0-84.183q1.544-.117 3.116-.117a42.2 42.2 0 0 1 42.2 42.203z" transform="translate(-112.486 -211.4)" fill="#f9de58"/><circle id="Ellipse_2259" data-name="Ellipse 2259" cx="27.378" cy="27.378" r="27.378" transform="translate(14.832 14.826)" fill="#d6b71d"/></g><g id="Group_40109" data-name="Group 40109" transform="translate(115.475)"><path id="Path_32886" data-name="Path 32886" d="M330.555 20.951v282.742a20.951 20.951 0 0 1-20.961 20.951H173.713a20.957 20.957 0 0 1-20.961-20.951V20.951A20.957 20.957 0 0 1 173.713 0h135.881a20.951 20.951 0 0 1 20.961 20.951z" transform="translate(-152.752)" fill="gray"/><path id="Rectangle_22489" data-name="Rectangle 22489" transform="translate(8.396 42.85)" fill="#01c7b1" d="M0 0h161.02v233.214H0z"/><circle id="Ellipse_2260" data-name="Ellipse 2260" cx="16.592" cy="16.592" r="16.592" transform="translate(72.312 284.404)" fill="#4d4d4d"/><path id="Path_32887" data-name="Path 32887" d="M305.827 104.505H179.245a2.728 2.728 0 0 1-2.727-2.727V67.427a2.728 2.728 0 0 1 2.727-2.727h126.582a2.728 2.728 0 0 1 2.727 2.727v34.351a2.727 2.727 0 0 1-2.727 2.727z" transform="translate(-153.445 -1.886)" fill="#e6e6e6"/><path id="Path_32888" data-name="Path 32888" d="M309.091 147h-17.846a2.728 2.728 0 0 1-2.727-2.727v-17.846a2.728 2.728 0 0 1 2.727-2.727h17.846a2.728 2.728 0 0 1 2.727 2.727v17.846a2.728 2.728 0 0 1-2.727 2.727z" transform="translate(-156.709 -3.605)" fill="#f9de58"/><path id="Path_32889" data-name="Path 32889" d="M309.091 183h-17.846a2.728 2.728 0 0 1-2.727-2.727v-17.846a2.728 2.728 0 0 1 2.727-2.727h17.846a2.728 2.728 0 0 1 2.727 2.727v17.846a2.728 2.728 0 0 1-2.727 2.727z" transform="translate(-156.709 -4.654)" fill="#fc7a51"/><g id="Group_40108" data-name="Group 40108" transform="translate(23.073 120.095)" fill="gray"><path id="Path_32890" data-name="Path 32890" d="M197.091 147h-17.846a2.728 2.728 0 0 1-2.727-2.727v-17.846a2.728 2.728 0 0 1 2.727-2.727h17.846a2.728 2.728 0 0 1 2.727 2.727v17.846a2.728 2.728 0 0 1-2.727 2.727z" transform="translate(-176.518 -123.7)"/><path id="Path_32891" data-name="Path 32891" d="M234.424 147h-17.846a2.728 2.728 0 0 1-2.727-2.727v-17.846a2.728 2.728 0 0 1 2.727-2.727h17.846a2.728 2.728 0 0 1 2.727 2.727v17.846a2.727 2.727 0 0 1-2.727 2.727z" transform="translate(-177.606 -123.7)"/><path id="Path_32892" data-name="Path 32892" d="M271.758 147h-17.846a2.728 2.728 0 0 1-2.727-2.727v-17.846a2.728 2.728 0 0 1 2.727-2.727h17.846a2.728 2.728 0 0 1 2.727 2.727v17.846a2.728 2.728 0 0 1-2.727 2.727z" transform="translate(-178.694 -123.7)"/><path id="Path_32893" data-name="Path 32893" d="M197.091 183h-17.846a2.728 2.728 0 0 1-2.727-2.727v-17.846a2.728 2.728 0 0 1 2.727-2.727h17.846a2.728 2.728 0 0 1 2.727 2.727v17.846a2.728 2.728 0 0 1-2.727 2.727z" transform="translate(-176.518 -124.749)"/><path id="Path_32894" data-name="Path 32894" d="M234.424 183h-17.846a2.728 2.728 0 0 1-2.727-2.727v-17.846a2.728 2.728 0 0 1 2.727-2.727h17.846a2.728 2.728 0 0 1 2.727 2.727v17.846a2.727 2.727 0 0 1-2.727 2.727z" transform="translate(-177.606 -124.749)"/><path id="Path_32895" data-name="Path 32895" d="M271.758 183h-17.846a2.728 2.728 0 0 1-2.727-2.727v-17.846a2.728 2.728 0 0 1 2.727-2.727h17.846a2.728 2.728 0 0 1 2.727 2.727v17.846a2.728 2.728 0 0 1-2.727 2.727z" transform="translate(-178.694 -124.749)"/><path id="Path_32896" data-name="Path 32896" d="M197.091 219.732h-17.846a2.728 2.728 0 0 1-2.727-2.732v-17.842a2.728 2.728 0 0 1 2.727-2.727h17.846a2.728 2.728 0 0 1 2.727 2.727V217a2.728 2.728 0 0 1-2.727 2.732z" transform="translate(-176.518 -125.82)"/><path id="Path_32897" data-name="Path 32897" d="M234.424 219.732h-17.846a2.728 2.728 0 0 1-2.727-2.732v-17.842a2.728 2.728 0 0 1 2.727-2.727h17.846a2.728 2.728 0 0 1 2.727 2.727V217a2.727 2.727 0 0 1-2.727 2.732z" transform="translate(-177.606 -125.82)"/><path id="Path_32898" data-name="Path 32898" d="M271.758 219.732h-17.846a2.728 2.728 0 0 1-2.727-2.732v-17.842a2.728 2.728 0 0 1 2.727-2.727h17.846a2.728 2.728 0 0 1 2.727 2.727V217a2.728 2.728 0 0 1-2.727 2.732z" transform="translate(-178.694 -125.82)"/><path id="Path_32899" data-name="Path 32899" d="M309.091 219.732h-17.846a2.728 2.728 0 0 1-2.727-2.732v-17.842a2.728 2.728 0 0 1 2.727-2.727h17.846a2.728 2.728 0 0 1 2.727 2.727V217a2.728 2.728 0 0 1-2.727 2.732z" transform="translate(-179.782 -125.82)"/></g><path id="Rectangle_22490" data-name="Rectangle 22490" transform="translate(115.305 88.057)" fill="#999" d="M0 0h28.155v6.796H0z"/></g><path id="Path_32900" data-name="Path 32900" d="M332.209 20.951v282.742a20.951 20.951 0 0 1-20.961 20.951h-2.777l-14.806-48.582L222.59 42.854 209.532 0h101.717a20.951 20.951 0 0 1 20.96 20.951z" transform="translate(-43.976)" fill="#fff" opacity=".32"/><g id="Group_40112" data-name="Group 40112" transform="translate(112.552 171.866)"><path id="Path_32901" data-name="Path 32901" d="M326.837 275.2v66.843h-56.756a19.424 19.424 0 0 0-19.446 19.446 19.446 19.446 0 0 1-38.892 0V275.2z" transform="translate(-176.636 -244.133)" fill="#e6e6e6"/><g id="Group_40110" data-name="Group 40110" transform="translate(49.936 45.63)" fill="#999"><path id="Rectangle_22491" data-name="Rectangle 22491" d="M0 0h85.435v9.709H0z"/><path id="Rectangle_22492" data-name="Rectangle 22492" transform="translate(0 21.635)" d="M0 0h85.435v9.709H0z"/><path id="Rectangle_22493" data-name="Rectangle 22493" transform="translate(0 43.269)" d="M0 0h85.435v9.709H0z"/><path id="Rectangle_22494" data-name="Rectangle 22494" transform="translate(0 64.904)" d="M0 0h85.435v9.709H0z"/></g><path id="Path_32902" data-name="Path 32902" d="M290.113 363.5v19.446h-58.338a19.421 19.421 0 0 0 19.446-19.446 19.446 19.446 0 1 1 38.892 0z" transform="translate(-177.22 -246.139)" fill="#ccc"/><path id="Path_32903" data-name="Path 32903" d="M400.684 349.739a19.408 19.408 0 0 0-13.757-5.689H271.832a19.424 19.424 0 0 1 19.446 19.45v77.785l11.509 11.65 11.507-11.65 11.508 11.65 11.509-11.65 11.5 11.65 11.508-11.65 11.511 11.65 11.508-11.65 11.515 11.65 11.516-11.65V363.5a19.42 19.42 0 0 0-5.685-13.761z" transform="translate(-178.387 -246.139)" fill="#e6e6e6"/><path id="Path_32904" data-name="Path 32904" d="M406.373 363.5H291.278a19.424 19.424 0 0 0-19.446-19.446h115.095a19.424 19.424 0 0 1 19.446 19.446z" transform="translate(-178.387 -246.139)" fill="#f2f2f2"/><g id="Group_40111" data-name="Group 40111" transform="translate(127.604 126.487)" fill="#999"><path id="Rectangle_22495" data-name="Rectangle 22495" d="M0 0h85.435v9.709H0z"/><path id="Rectangle_22496" data-name="Rectangle 22496" transform="translate(0 21.635)" d="M0 0h85.435v9.709H0z"/><path id="Rectangle_22497" data-name="Rectangle 22497" transform="translate(0 43.269)" d="M0 0h85.435v9.709H0z"/></g><path id="Rectangle_22498" data-name="Rectangle 22498" fill="#2496b5" d="M0 0h125.24v23.786H0z"/><path id="Rectangle_22499" data-name="Rectangle 22499" transform="translate(7.767)" fill="#29abe2" d="M0 0h125.24v23.786H0z"/><path id="Rectangle_22500" data-name="Rectangle 22500" transform="translate(13.349 6.796)" fill="#2496b5" d="M0 0h114.076v10.194H0z"/><path id="Path_32905" data-name="Path 32905" d="M306.337 254.7H191.242a19.9 19.9 0 0 1 19.9 19.9h115.1a19.9 19.9 0 0 0-19.905-19.9z" transform="translate(-176.038 -243.535)" fill="#e6e6e6"/></g><path id="Rectangle_22501" data-name="Rectangle 22501" transform="translate(115.363 59.489)" fill="#4d4d4d" opacity=".2" d="M0 0h16.914v124.347H0z"/><path id="Path_32906" data-name="Path 32906" d="M152.249 211.52v84.18a41.972 41.972 0 0 1-16.922-4.942v-74.306a41.807 41.807 0 0 1 16.922-4.932z" transform="translate(-19.966 -42.943)" fill="#4d4d4d" opacity=".2"/><path id="Rectangle_22502" data-name="Rectangle 22502" transform="translate(280.458 94.618)" fill="#4d4d4d" opacity=".2" d="M0 0h13.521v136.978H0z"/></g></svg>