<svg xmlns="http://www.w3.org/2000/svg" width="20" height="12.727" viewBox="0 0 20 12.727"><path id="ic_people_outline_24px" d="M15.091 12.273a10.9 10.9 0 0 0-4.091.909 10.724 10.724 0 0 0-4.091-.909c-1.973 0-5.909.982-5.909 2.954v2.5h20v-2.5c0-1.972-3.936-2.954-5.909-2.954zm-3.636 4.091H2.364v-1.137c0-.491 2.327-1.591 4.545-1.591s4.545 1.1 4.545 1.591zm8.182 0h-6.819v-1.137a1.654 1.654 0 0 0-.473-1.109 8.77 8.77 0 0 1 2.745-.482c2.218 0 4.545 1.1 4.545 1.591zm-12.727-5a3.182 3.182 0 1 0-3.183-3.182 3.185 3.185 0 0 0 3.182 3.182zm0-5a1.818 1.818 0 1 1-1.819 1.818 1.824 1.824 0 0 1 1.818-1.818zm8.182 5a3.182 3.182 0 1 0-3.182-3.182 3.185 3.185 0 0 0 3.181 3.182zm0-5a1.818 1.818 0 1 1-1.818 1.818 1.824 1.824 0 0 1 1.817-1.818z" transform="translate(-1 -5)" fill="#01c7b1"/></svg>