<svg width="87" height="126" viewBox="0 0 87 126" fill="none" xmlns="http://www.w3.org/2000/svg"><path d="M81.293 104.556l-.002-.002-9.354-7.277-9.358 7.277-9.357-7.277-9.358 7.277-9.357-7.277-9.357 7.277-9.356-7.277-9.354 7.275L6.437.002l9.358 7.277L25.153 0l9.356 7.279L43.867 0l9.357 7.279L62.582 0l9.356 7.279L81.293 0v104.555z" fill="#7978DE"/><path stroke="#BCBBEE" stroke-width="2" stroke-linecap="round" d="M19.68 21.311h48.367M19.68 40.48h48.367M19.68 58.369h48.367M19.68 77.111h25.209"/><path d="M12.04 113.309c-9.582-.664-15.795 7.511-7.763 11.406 8.033 3.891 66.361-3.039 75.854-1.715 9.492 1.324 9.234-5.914-7.704-9.691-16.939-3.781-50.807.66-60.388 0z" fill="#DDDDF6"/></svg>