<svg xmlns="http://www.w3.org/2000/svg" width="23.5" height="23.5" viewBox="0 0 23.5 23.5"><g id="settings" transform="translate(-.25 -.25)" fill="none" stroke="#fff" stroke-linecap="round" stroke-linejoin="round" stroke-width="1.5"><circle id="Ellipse_2219" data-name="Ellipse 2219" cx="3" cy="3" r="3" transform="translate(9 9)"/><path id="Path_32851" data-name="Path 32851" d="M19.4 15a1.65 1.65 0 0 0 .33 1.82l.06.06a2 2 0 1 1-2.83 2.83l-.06-.06a1.663 1.663 0 0 0-2.82 1.18V21a2 2 0 0 1-4 0v-.09A1.65 1.65 0 0 0 9 19.4a1.65 1.65 0 0 0-1.82.33l-.06.06a2 2 0 1 1-2.83-2.83l.06-.06a1.663 1.663 0 0 0-1.18-2.82H3a2 2 0 1 1 0-4h.09A1.65 1.65 0 0 0 4.6 9a1.65 1.65 0 0 0-.33-1.82l-.06-.06a2 2 0 1 1 2.83-2.83l.06.06a1.65 1.65 0 0 0 1.82.33H9a1.65 1.65 0 0 0 1-1.51V3a2 2 0 0 1 4 0v.09a1.663 1.663 0 0 0 2.82 1.18l.06-.06a2 2 0 1 1 2.83 2.83l-.06.06a1.65 1.65 0 0 0-.33 1.82V9a1.65 1.65 0 0 0 1.51 1H21a2 2 0 0 1 0 4h-.09a1.65 1.65 0 0 0-1.51 1z"/></g></svg>