<svg width="80" height="79" viewBox="0 0 80 79" fill="none" xmlns="http://www.w3.org/2000/svg"><g clip-path="url(#clip0_2434_10230)"><path d="M78.842 14.05v1.48l.739 1.479-1.479-.74-1.479 1.48.739-2.218-1.479-.74h1.479l1.48-.74z" fill="#01C7B1"/><path d="M70.708 0l-.739 2.958 2.221 1.479h-2.961L67.01 5.916l.739-2.958-1.478-1.484 2.218.739L70.708 0z" fill="#FC0"/><path d="M10.617 11.092v1.479l.739.739H9.878l-.739.739V12.57l-.739-.74h1.478l.739-.74z" fill="#FF2D55"/><path d="M4.702.74l-.74 2.957 1.481 1.48-2.22-.74-2.218 2.218.738-2.958L.265 2.22l2.218.74L4.702.74zm35.934 63.594c15.777 0 28.566-12.912 28.566-28.84 0-15.928-12.79-28.84-28.566-28.84-15.777 0-28.566 12.912-28.566 28.84 0 15.928 12.79 28.84 28.566 28.84z" fill="#007AFF"/><path d="M29.201 38.082l5.916 5.176L50.646 26.99" stroke="#fff" stroke-width="6" stroke-linecap="round" stroke-linejoin="round"/><path opacity=".1" d="M73.709 77.106c-12.783 3.088-42.1.557-58.756-1.479s-26.157-4.589 8.813-4.437c34.97.152 37.747 1.25 45.536.74 7.789-.509 17.189 2.09 4.407 5.176z" fill="#007AFF"/></g><defs><clipPath id="clip0_2434_10230"><path fill="#fff" d="M0 0h80v78.549H0z"/></clipPath></defs></svg>