<svg xmlns="http://www.w3.org/2000/svg" width="46.305" height="59.84" viewBox="0 0 46.305 59.84"><path id="upload-file-svgrepo-com" d="M76.368 48.062c-.009-.152-.02-.3-.034-.454v-.053a11.502 11.502 0 0 0-.062-.49l-.02-.131q-.033-.2-.073-.407l-.017-.089a12.056 12.056 0 0 0-.107-.465l-.035-.133q-.049-.183-.1-.363l-.036-.119q-.069-.219-.147-.435l-.052-.138q-.061-.162-.127-.321c-.02-.047-.039-.1-.059-.142q-.087-.2-.181-.4a5.024 5.024 0 0 0-.072-.147q-.069-.14-.142-.277c-.029-.054-.057-.109-.087-.163q-.1-.184-.209-.364c-.032-.053-.065-.1-.1-.157q-.074-.117-.15-.233l-.119-.177a10.383 10.383 0 0 0-.362-.495l-.148-.189c-.048-.062-.1-.124-.152-.185s-.1-.114-.148-.171q-.133-.151-.271-.3c-.045-.048-.091-.1-.137-.144q-.092-.094-.187-.187l-.129-.123q-.172-.163-.351-.318l-.118-.1c-.072-.061-.145-.12-.218-.179l-.121-.095q-.214-.167-.436-.323l-.08-.057c-.081-.056-.163-.11-.245-.164l-.12-.077a10.757 10.757 0 0 0-.557-.332 11.136 11.136 0 1 0-9.288 20.175c.113.042.228.081.343.119l.145.049c.1.033.207.063.312.094l.189.054.293.074c.073.018.147.035.221.051q.138.03.278.057c.083.016.167.031.251.045s.173.029.26.041.19.025.286.036c.079.009.157.019.237.027.113.011.226.018.34.026.064 0 .128.01.193.013a10.83 10.83 0 0 0 1.083 0c.06 0 .119-.008.179-.012.119-.008.237-.016.355-.027.071-.007.142-.016.212-.024.105-.012.21-.025.314-.04l.223-.035q.149-.025.3-.053l.226-.046c.1-.021.192-.043.288-.066l.222-.055c.1-.026.193-.054.288-.082.07-.021.141-.04.21-.062.11-.035.219-.073.328-.111.053-.018.107-.035.159-.055q.5-.185.982-.416l.019-.009c.138-.067.274-.137.409-.21l.126-.069q.163-.09.322-.185l.1-.061q.2-.123.4-.254l.092-.064q.155-.106.306-.218l.115-.085q.172-.13.34-.267l.036-.029c.121-.1.24-.2.357-.309l.1-.093q.135-.124.265-.253l.089-.088c.11-.111.219-.225.325-.341l.064-.072q.13-.144.254-.293l.09-.109q.129-.159.253-.322l.044-.057q.141-.19.274-.386l.073-.11q.1-.153.2-.31l.069-.111q.123-.2.237-.413l.034-.065q.1-.182.188-.367l.061-.127q.086-.181.165-.365l.036-.082q.093-.222.177-.448l.042-.117q.064-.179.122-.36l.041-.13c.048-.155.093-.312.134-.471 0-.014.007-.028.01-.041a8.27 8.27 0 0 0 .1-.441l.028-.139q.039-.2.07-.395l.017-.1q.037-.245.063-.494c0-.039.007-.079.011-.119q.019-.2.03-.4c0-.048.006-.1.008-.144a10.866 10.866 0 0 0 0-1.022.645.645 0 0 1-.016-.135zm-7.742 7.5h-7.649a1.687 1.687 0 1 1 0-3.374h7.649a1.687 1.687 0 1 1 0 3.374zm1.514-9.151a1.734 1.734 0 0 1-2.424-.005l-.965-.932v3.34a1.687 1.687 0 0 1-3.374 0v-3.353l-.915.951a1.665 1.665 0 0 1-2.367 0 1.688 1.688 0 0 1 .011-2.386l3.827-3.815a1.718 1.718 0 0 1 .281-.227 1.519 1.519 0 0 1 .385-.13 1.642 1.642 0 0 1 .537-.031h.005a1.629 1.629 0 0 1 .513.025 1.6 1.6 0 0 1 .433.184v-.014a1.656 1.656 0 0 1 .252.2l3.8 3.812a1.686 1.686 0 0 1 .002 2.384zm-.7-35.391H58.878V.839zM50.742 48.7a14.494 14.494 0 0 1 14.472-14.51 13.873 13.873 0 0 1 5.361 1.046V14.4H57.266a1.753 1.753 0 0 1-1.766-1.69V0H31.845a1.753 1.753 0 0 0-1.762 1.687v55.67a1.72 1.72 0 0 0 1.717 1.687l23.344.076a14.449 14.449 0 0 1-4.402-10.42zM38.931 20.921H61.2a1.687 1.687 0 1 1 0 3.374H38.931a1.687 1.687 0 1 1 0-3.374zm-1.687 8.661a1.687 1.687 0 0 1 1.687-1.682H61.2a1.687 1.687 0 1 1 0 3.374H38.931a1.687 1.687 0 0 1-1.687-1.692z" transform="translate(-30.083)" opacity=".2"/></svg>