<svg xmlns="http://www.w3.org/2000/svg" width="82.509" height="33.203" viewBox="0 0 82.509 33.203"><g id="Group_40721" data-name="Group 40721" transform="translate(-521.145 -129.387)"><rect id="Rectangle_82" data-name="Rectangle 82" width="82.509" height="33.203" rx="12.701" transform="translate(521.145 129.387)" fill="#fff"/><path id="Path_151" data-name="Path 151" d="M579.625 142.012c-4.568 0-8.649 2.367-8.649 6.741 0 5.016 7.237 5.362 7.237 7.882 0 1.062-1.216 2.01-3.293 2.01a10.934 10.934 0 0 1-5.151-1.327l-.943 4.414a16.067 16.067 0 0 0 5.91 1.122c4.994 0 8.932-2.481 8.932-6.932 0-5.3-7.27-5.637-7.27-7.974 0-.831.992-1.737 3.069-1.737a10.42 10.42 0 0 1 4.243.965l.923-4.263a13.809 13.809 0 0 0-5.008-.901zm-41.784.323l-.112.642a21.513 21.513 0 0 1 3.652 1.052c2.233.8 2.387 1.273 2.761 2.729l4.089 15.765h5.483l8.436-20.188h-5.458l-5.426 13.725-2.215-11.634a2.4 2.4 0 0 0-2.481-2.092zm26.517 0l-4.29 20.188h5.21l4.275-20.188h-5.2zm29.088 0a2.458 2.458 0 0 0-2.412 1.851l-7.642 18.338h5.458l1.057-3.057h6.661l.643 3.057h4.825l-4.218-20.188zm.712 5.458l1.62 7.575h-4.342l2.729-7.575z" transform="translate(-8.465 -6.443)" fill="#1434cb"/></g></svg>