<svg width="32" height="32" viewBox="0 0 32 32" fill="none" xmlns="http://www.w3.org/2000/svg">
<path d="M18.0394 11.1361C17.2762 11.6803 16.3422 12.0003 15.3334 12.0003C12.7561 12.0003 10.6667 9.91099 10.6667 7.33366C10.6667 4.75633 12.7561 2.66699 15.3334 2.66699C17.0041 2.66699 18.4697 3.54488 19.2941 4.86452M8.00008 26.7832H11.4805C11.9343 26.7832 12.3853 26.8372 12.8252 26.9452L16.5026 27.8388C17.3005 28.0332 18.1318 28.0521 18.938 27.8955L23.004 27.1045C24.0781 26.8952 25.0662 26.3809 25.8405 25.6277L28.7173 22.8293C29.5388 22.0315 29.5388 20.7369 28.7173 19.9377C27.9776 19.2182 26.8064 19.1372 25.9696 19.7474L22.6169 22.1935C22.1367 22.5444 21.5525 22.7334 20.9516 22.7334H17.7141L19.7748 22.7333C20.9364 22.7333 21.8772 21.8181 21.8772 20.6882V20.2792C21.8772 19.341 21.2208 18.5229 20.2855 18.2962L17.1049 17.5226C16.5873 17.3971 16.0572 17.3337 15.5243 17.3337C14.2379 17.3337 11.9093 18.3987 11.9093 18.3987L8.00008 20.0335M26.6667 8.66699C26.6667 11.2443 24.5774 13.3337 22.0001 13.3337C19.4228 13.3337 17.3334 11.2443 17.3334 8.66699C17.3334 6.08966 19.4228 4.00033 22.0001 4.00033C24.5774 4.00033 26.6667 6.08966 26.6667 8.66699ZM2.66675 19.467L2.66675 27.2003C2.66675 27.9471 2.66675 28.3204 2.81207 28.6056C2.9399 28.8565 3.14388 29.0605 3.39476 29.1883C3.67998 29.3337 4.05334 29.3337 4.80008 29.3337H5.86675C6.61348 29.3337 6.98685 29.3337 7.27207 29.1883C7.52295 29.0605 7.72693 28.8565 7.85476 28.6056C8.00008 28.3204 8.00008 27.9471 8.00008 27.2003V19.467C8.00008 18.7203 8.00008 18.3469 7.85476 18.0617C7.72693 17.8108 7.52295 17.6068 7.27207 17.479C6.98685 17.3337 6.61349 17.3337 5.86675 17.3337L4.80008 17.3337C4.05335 17.3337 3.67998 17.3337 3.39476 17.479C3.14388 17.6068 2.9399 17.8108 2.81207 18.0617C2.66675 18.3469 2.66675 18.7203 2.66675 19.467Z" stroke="#F7961C" stroke-width="2.6" stroke-linecap="round" stroke-linejoin="round"/>
</svg>
