<svg xmlns="http://www.w3.org/2000/svg" width="96" height="97" viewBox="0 0 96 97" fill="none">
  <path d="M20 36.5V68.5M38 36.5V68.5M58 36.5V68.5M76 36.5V68.5M12 74.9L12 78.1C12 80.3402 12 81.4603 12.436 82.3159C12.8195 83.0686 13.4314 83.6805 14.184 84.064C15.0397 84.5 16.1598 84.5 18.4 84.5H77.6C79.8402 84.5 80.9603 84.5 81.816 84.064C82.5686 83.6805 83.1805 83.0686 83.564 82.3159C84 81.4603 84 80.3402 84 78.1V74.9C84 72.6597 84 71.5396 83.564 70.684C83.1805 69.9313 82.5686 69.3194 81.816 68.9359C80.9603 68.5 79.8402 68.5 77.6 68.5H18.4C16.1598 68.5 15.0397 68.5 14.184 68.9359C13.4314 69.3194 12.8195 69.9313 12.436 70.684C12 71.5396 12 72.6597 12 74.9ZM46.6116 12.8085L17.0116 19.3863C15.2234 19.7836 14.3293 19.9823 13.6619 20.4632C13.0732 20.8873 12.6109 21.4635 12.3246 22.1302C12 22.8861 12 23.802 12 25.6339L12 30.1C12 32.3402 12 33.4603 12.436 34.3159C12.8195 35.0686 13.4314 35.6805 14.184 36.064C15.0397 36.5 16.1598 36.5 18.4 36.5H77.6C79.8402 36.5 80.9603 36.5 81.816 36.064C82.5686 35.6805 83.1805 35.0686 83.564 34.3159C84 33.4603 84 32.3402 84 30.1V25.6339C84 23.802 84 22.8861 83.6754 22.1302C83.3891 21.4635 82.9268 20.8873 82.3381 20.4632C81.6707 19.9823 80.7766 19.7836 78.9884 19.3863L49.3884 12.8085C48.8703 12.6933 48.6112 12.6358 48.3494 12.6128C48.1169 12.5924 47.8831 12.5924 47.6506 12.6128C47.3888 12.6358 47.1297 12.6933 46.6116 12.8085Z" stroke="#030F1A" stroke-width="4" stroke-linecap="round" stroke-linejoin="round"/>
</svg>