<svg width="88" height="88" viewBox="0 0 88 88" fill="none" xmlns="http://www.w3.org/2000/svg">
<g id="file-06">
<path id="Solid" fill-rule="evenodd" clip-rule="evenodd" d="M47.6667 7.39053C47.6667 7.29409 47.6667 7.24587 47.6625 7.15841C47.576 5.3479 45.9838 3.7565 44.1733 3.67085C44.0859 3.66672 44.0572 3.66673 44 3.66675H32.1151C29.1636 3.66671 26.7277 3.66667 24.7433 3.8288C22.6823 3.99719 20.7877 4.3586 19.0081 5.26533C16.2484 6.67147 14.0047 8.91519 12.5986 11.6749C11.6918 13.4545 11.3304 15.349 11.162 17.4101C10.9999 19.3944 11 21.8304 11 24.7819V63.2182C11 66.1697 10.9999 68.6058 11.162 70.5901C11.3304 72.6511 11.6918 74.5457 12.5986 76.3253C14.0047 79.085 16.2484 81.3287 19.0081 82.7348C20.7877 83.6416 22.6823 84.003 24.7433 84.1714C26.7277 84.3335 29.1636 84.3335 32.1152 84.3334H55.8849C58.8364 84.3335 61.2723 84.3335 63.2567 84.1714C65.3177 84.003 67.2123 83.6416 68.9919 82.7348C71.7516 81.3287 73.9953 79.085 75.4014 76.3253C76.3082 74.5457 76.6696 72.6511 76.838 70.5901C77.0001 68.6058 77.0001 66.1698 77 63.2183V36.6665C77 36.6096 77 36.5811 76.9959 36.4938C76.9104 34.683 75.3188 33.0907 73.5081 33.0043C73.4208 33.0001 73.3727 33.0001 73.2765 33.0001L57.083 33.0001C56.1576 33.0002 55.2564 33.0003 54.4932 32.938C53.655 32.8695 52.666 32.7079 51.6708 32.2008C50.2909 31.4978 49.169 30.3759 48.466 28.9961C47.9589 28.0008 47.7973 27.0118 47.7288 26.1736C47.6665 25.4104 47.6666 24.5091 47.6667 23.5837L47.6667 7.39053ZM69.3292 25.6667C70.4058 25.6667 70.9441 25.6667 71.385 25.3964C72.0078 25.0146 72.3801 24.1152 72.2094 23.4049C72.0885 22.902 71.7375 22.5513 71.0354 21.8499L58.8169 9.63138C58.1155 8.92927 57.7648 8.57822 57.2618 8.45733C56.5516 8.28661 55.6522 8.65892 55.2704 9.28166C55 9.72263 55 10.2609 55 11.3376L55 22.7333C55 23.76 55 24.2734 55.1998 24.6655C55.3756 25.0105 55.656 25.291 56.001 25.4667C56.3932 25.6665 56.9065 25.6666 57.9333 25.6666H57.9333L69.3292 25.6667ZM29.3333 33.0001C27.3083 33.0001 25.6667 34.6417 25.6667 36.6667C25.6667 38.6918 27.3083 40.3334 29.3333 40.3334H36.6667C38.6917 40.3334 40.3333 38.6918 40.3333 36.6667C40.3333 34.6417 38.6917 33.0001 36.6667 33.0001H29.3333ZM25.6667 51.3334C25.6667 49.3084 27.3083 47.6667 29.3333 47.6667H58.6667C60.6917 47.6667 62.3333 49.3084 62.3333 51.3334C62.3333 53.3585 60.6917 55.0001 58.6667 55.0001H29.3333C27.3083 55.0001 25.6667 53.3585 25.6667 51.3334ZM25.6667 66.0001C25.6667 63.975 27.3083 62.3334 29.3333 62.3334H58.6667C60.6917 62.3334 62.3333 63.975 62.3333 66.0001C62.3333 68.0251 60.6917 69.6667 58.6667 69.6667H29.3333C27.3083 69.6667 25.6667 68.0251 25.6667 66.0001Z" fill="#DFAC14"/>
</g>
</svg>
