<svg width="24" height="30" viewBox="0 0 24 30" fill="none" xmlns="http://www.w3.org/2000/svg">
<path d="M14.6667 2.02539V7.53278C14.6667 8.27951 14.6667 8.65288 14.812 8.9381C14.9399 9.18898 15.1438 9.39295 15.3947 9.52079C15.6799 9.66611 16.0533 9.66611 16.8 9.66611H22.3074M17.3334 16.3327H6.66671M17.3334 21.666H6.66671M9.33337 10.9993H6.66671M14.6667 1.66602H7.73337C5.49316 1.66602 4.37306 1.66602 3.51741 2.10199C2.76476 2.48548 2.15284 3.09741 1.76935 3.85005C1.33337 4.7057 1.33337 5.82581 1.33337 8.06602V21.9327C1.33337 24.1729 1.33337 25.293 1.76935 26.1486C2.15284 26.9013 2.76476 27.5132 3.51741 27.8967C4.37306 28.3327 5.49316 28.3327 7.73337 28.3327H16.2667C18.5069 28.3327 19.627 28.3327 20.4827 27.8967C21.2353 27.5132 21.8472 26.9013 22.2307 26.1486C22.6667 25.293 22.6667 24.1729 22.6667 21.9327V9.66602L14.6667 1.66602Z" stroke="#030F1A" stroke-width="2" stroke-linecap="round" stroke-linejoin="round"/>
</svg>
