<svg width="81" height="81" viewBox="0 0 81 81" fill="none" xmlns="http://www.w3.org/2000/svg">
<path fill-rule="evenodd" clip-rule="evenodd" d="M40.5006 3.83398C20.2502 3.83398 3.83398 20.2502 3.83398 40.5006C3.83398 60.7511 20.2502 77.1673 40.5006 77.1673C60.7511 77.1673 77.1673 60.7511 77.1673 40.5006C77.1673 20.2502 60.7511 3.83398 40.5006 3.83398ZM40.5006 23.834C38.6597 23.834 37.1673 25.3264 37.1673 27.1673C37.1673 29.0083 38.6597 30.5006 40.5006 30.5006H40.534C42.3749 30.5006 43.8673 29.0083 43.8673 27.1673C43.8673 25.3264 42.3749 23.834 40.534 23.834H40.5006ZM43.834 40.5006C43.834 38.6597 42.3416 37.1673 40.5006 37.1673C38.6597 37.1673 37.1673 38.6597 37.1673 40.5006V53.834C37.1673 55.6749 38.6597 57.1673 40.5006 57.1673C42.3416 57.1673 43.834 55.6749 43.834 53.834V40.5006Z" fill="#FFD147"/>
</svg>
