<svg width="80" height="80" viewBox="0 0 80 80" fill="none" xmlns="http://www.w3.org/2000/svg">
<g id="link-03">
<g id="Solid">
<path fill-rule="evenodd" clip-rule="evenodd" d="M42.5843 9.16905C46.3563 5.52589 51.4084 3.51 56.6523 3.55557C61.8963 3.60113 66.9125 5.70451 70.6207 9.41267C74.3288 13.1208 76.4322 18.1371 76.4778 23.381C76.5234 28.625 74.5075 33.677 70.8643 37.449L70.8237 37.4904L60.8241 47.4899C58.7966 49.5182 56.3565 51.0867 53.6695 52.0891C50.9825 53.0914 48.1113 53.5041 45.2507 53.2993C42.3902 53.0944 39.6071 52.2767 37.0903 50.9017C34.5736 49.5267 32.3819 47.6264 30.6641 45.3299C29.5614 43.8558 29.8626 41.7668 31.3368 40.6641C32.8109 39.5614 34.8999 39.8626 36.0026 41.3367C37.1478 42.8678 38.6088 44.1346 40.2867 45.0513C41.9645 45.9679 43.8199 46.5131 45.727 46.6496C47.634 46.7862 49.5481 46.5111 51.3395 45.8428C53.1308 45.1746 54.7575 44.1289 56.1092 42.7767L66.088 32.7979C68.5048 30.2854 69.8417 26.9258 69.8114 23.4389C69.781 19.943 68.3787 16.5988 65.9066 14.1267C63.4345 11.6546 60.0904 10.2524 56.5944 10.222C53.106 10.1917 49.7451 11.5297 47.2321 13.9485L41.5168 19.6306C40.2113 20.9285 38.1007 20.9223 36.8028 19.6168C35.5048 18.3113 35.511 16.2007 36.8165 14.9028L42.5499 9.20279L42.5843 9.16905Z" fill="#007AFF"/>
<path fill-rule="evenodd" clip-rule="evenodd" d="M26.3305 27.911C29.0175 26.9086 31.8887 26.4959 34.7493 26.7007C37.6099 26.9056 40.3929 27.7233 42.9097 29.0983C45.4265 30.4733 47.6181 32.3736 49.3359 34.6701C50.4386 36.1442 50.1374 38.2332 48.6633 39.3359C47.1891 40.4386 45.1002 40.1374 43.9975 38.6633C42.8523 37.1323 41.3912 35.8654 39.7133 34.9488C38.0355 34.0321 36.1801 33.487 34.2731 33.3504C32.366 33.2138 30.4519 33.489 28.6605 34.1572C26.8692 34.8254 25.2425 35.8711 23.8908 37.2233L13.912 47.2021C11.4952 49.7146 10.1584 53.0742 10.1887 56.5611C10.219 60.057 11.6213 63.4012 14.0934 65.8733C16.5655 68.3454 19.9097 69.7477 23.4056 69.778C26.8924 69.8083 30.252 68.4715 32.7646 66.0547L38.443 60.3763C39.7447 59.0746 41.8553 59.0746 43.157 60.3763C44.4588 61.6781 44.4588 63.7886 43.157 65.0904L37.457 70.7904L37.4157 70.831C33.6437 74.4741 28.5916 76.49 23.3477 76.4445C18.1038 76.3989 13.0875 74.2955 9.37935 70.5873C5.67119 66.8792 3.56781 61.8629 3.52224 56.619C3.47667 51.3751 5.49256 46.323 9.13572 42.551L9.17633 42.5097L19.1759 32.5101C19.1758 32.5102 19.176 32.5099 19.1759 32.5101C21.2034 30.482 23.6437 28.9132 26.3305 27.911Z" fill="#007AFF"/>
</g>
</g>
</svg>
