<svg width="32" height="32" viewBox="0 0 32 32" fill="none" xmlns="http://www.w3.org/2000/svg">
<g id="link-03">
<path id="Icon" d="M13.3336 17.3335C13.9062 18.099 14.6367 18.7324 15.4757 19.1907C16.3146 19.649 17.2423 19.9216 18.1958 19.9899C19.1493 20.0582 20.1064 19.9206 21.0021 19.5865C21.8977 19.2524 22.7111 18.7295 23.3869 18.0535L27.3869 14.0535C28.6013 12.7961 29.2733 11.1121 29.2581 9.36411C29.2429 7.61613 28.5418 5.94405 27.3057 4.70799C26.0697 3.47194 24.3976 2.77081 22.6496 2.75562C20.9016 2.74043 19.2176 3.4124 17.9603 4.62678L15.6669 6.90678M18.6669 14.6668C18.0943 13.9013 17.3638 13.2679 16.5249 12.8095C15.6859 12.3512 14.7583 12.0786 13.8047 12.0103C12.8512 11.942 11.8942 12.0796 10.9985 12.4137C10.1028 12.7479 9.28945 13.2707 8.6136 13.9468L4.6136 17.9468C3.39921 19.2041 2.72725 20.8881 2.74244 22.6361C2.75763 24.3841 3.45876 26.0562 4.69481 27.2922C5.93086 28.5283 7.60295 29.2294 9.35093 29.2446C11.0989 29.2598 12.7829 28.5878 14.0403 27.3735L16.3203 25.0935" stroke="#030F1A" stroke-width="2" stroke-linecap="round" stroke-linejoin="round"/>
</g>
</svg>
