<svg width="32" height="32" viewBox="0 0 32 32" fill="none" xmlns="http://www.w3.org/2000/svg">
<path d="M16 23.3327H16.0133M10.9333 29.3327H21.0666C22.5601 29.3327 23.3068 29.3327 23.8773 29.042C24.379 28.7864 24.787 28.3784 25.0426 27.8767C25.3333 27.3062 25.3333 26.5595 25.3333 25.066V6.93268C25.3333 5.43921 25.3333 4.69247 25.0426 4.12204C24.787 3.62028 24.379 3.21233 23.8773 2.95666C23.3068 2.66602 22.5601 2.66602 21.0666 2.66602H10.9333C9.43982 2.66602 8.69308 2.66602 8.12265 2.95666C7.62089 3.21233 7.21294 3.62028 6.95728 4.12204C6.66663 4.69247 6.66663 5.43921 6.66663 6.93268V25.066C6.66663 26.5595 6.66663 27.3062 6.95728 27.8767C7.21294 28.3784 7.62089 28.7864 8.12265 29.042C8.69308 29.3327 9.43982 29.3327 10.9333 29.3327ZM16.6666 23.3327C16.6666 23.7009 16.3681 23.9993 16 23.9993C15.6318 23.9993 15.3333 23.7009 15.3333 23.3327C15.3333 22.9645 15.6318 22.666 16 22.666C16.3681 22.666 16.6666 22.9645 16.6666 23.3327Z" stroke="#030F1A" stroke-width="2" stroke-linecap="round" stroke-linejoin="round"/>
</svg>
