<svg width="32" height="32" viewBox="0 0 32 32" fill="none" xmlns="http://www.w3.org/2000/svg">
<g id="phone-01">
<path id="Icon" d="M15.9993 23.3334H16.0127M10.9327 29.3334H21.066C22.5595 29.3334 23.3062 29.3334 23.8767 29.0428C24.3784 28.7871 24.7864 28.3792 25.042 27.8774C25.3327 27.307 25.3327 26.5602 25.3327 25.0667V6.93341C25.3327 5.43994 25.3327 4.6932 25.042 4.12277C24.7864 3.62101 24.3784 3.21306 23.8767 2.9574C23.3062 2.66675 22.5595 2.66675 21.066 2.66675H10.9327C9.43921 2.66675 8.69247 2.66675 8.12204 2.9574C7.62028 3.21306 7.21233 3.62101 6.95666 4.12277C6.66602 4.6932 6.66602 5.43994 6.66602 6.93342V25.0667C6.66602 26.5602 6.66602 27.307 6.95666 27.8774C7.21233 28.3792 7.62028 28.7871 8.12204 29.0428C8.69247 29.3334 9.43921 29.3334 10.9327 29.3334ZM16.666 23.3334C16.666 23.7016 16.3675 24.0001 15.9993 24.0001C15.6312 24.0001 15.3327 23.7016 15.3327 23.3334C15.3327 22.9652 15.6312 22.6667 15.9993 22.6667C16.3675 22.6667 16.666 22.9652 16.666 23.3334Z" stroke="#030F1A" stroke-width="2" stroke-linecap="round" stroke-linejoin="round"/>
</g>
</svg>
