<svg width="20" height="20" viewBox="0 0 20 20" fill="none" xmlns="http://www.w3.org/2000/svg">
<g clip-path="url(#clip0_4479_4476)">
<path d="M14.9998 5.83268V4.33268C14.9998 3.39926 14.9998 2.93255 14.8182 2.57603C14.6584 2.26243 14.4034 2.00746 14.0898 1.84767C13.7333 1.66602 13.2666 1.66602 12.3332 1.66602H7.6665C6.73308 1.66602 6.26637 1.66602 5.90985 1.84767C5.59625 2.00746 5.34128 2.26243 5.18149 2.57603C4.99984 2.93255 4.99984 3.39926 4.99984 4.33268V5.83268M4.99984 14.9993C4.22486 14.9993 3.83737 14.9993 3.51946 14.9142C2.65673 14.683 1.98286 14.0091 1.75169 13.1464C1.6665 12.8285 1.6665 12.441 1.6665 11.666V9.83268C1.6665 8.43255 1.6665 7.73249 1.93899 7.19771C2.17867 6.7273 2.56112 6.34485 3.03153 6.10517C3.56631 5.83268 4.26637 5.83268 5.6665 5.83268H14.3332C15.7333 5.83268 16.4334 5.83268 16.9681 6.10517C17.4386 6.34485 17.821 6.7273 18.0607 7.19771C18.3332 7.73249 18.3332 8.43255 18.3332 9.83268V11.666C18.3332 12.441 18.3332 12.8285 18.248 13.1464C18.0168 14.0091 17.3429 14.683 16.4802 14.9142C16.1623 14.9993 15.7748 14.9993 14.9998 14.9993M12.4998 8.74935H14.9998M7.6665 18.3327H12.3332C13.2666 18.3327 13.7333 18.3327 14.0898 18.151C14.4034 17.9912 14.6584 17.7363 14.8182 17.4227C14.9998 17.0661 14.9998 16.5994 14.9998 15.666V14.3327C14.9998 13.3993 14.9998 12.9326 14.8182 12.576C14.6584 12.2624 14.4034 12.0075 14.0898 11.8477C13.7333 11.666 13.2666 11.666 12.3332 11.666H7.6665C6.73308 11.666 6.26637 11.666 5.90985 11.8477C5.59625 12.0075 5.34128 12.2624 5.18149 12.576C4.99984 12.9326 4.99984 13.3993 4.99984 14.3327V15.666C4.99984 16.5994 4.99984 17.0661 5.18149 17.4227C5.34128 17.7363 5.59625 17.9912 5.90985 18.151C6.26637 18.3327 6.73308 18.3327 7.6665 18.3327Z" stroke="#030F1A" stroke-width="2" stroke-linecap="round" stroke-linejoin="round"/>
</g>
<defs>
<clipPath id="clip0_4479_4476">
<rect width="20" height="20" fill="white"/>
</clipPath>
</defs>
</svg>
