<svg width="64" height="64" viewBox="0 0 64 64" fill="none" xmlns="http://www.w3.org/2000/svg">
<g clip-path="url(#clip0_3226_31484)">
<path d="M64 0H0V64H64V0Z" fill="white"/>
<path d="M9.65517 8H8V9.65517H9.65517V8Z" fill="black"/>
<path d="M11.3103 8H9.65517V9.65517H11.3103V8Z" fill="black"/>
<path d="M12.9655 8H11.3103V9.65517H12.9655V8Z" fill="black"/>
<path d="M14.6207 8H12.9655V9.65517H14.6207V8Z" fill="black"/>
<path d="M16.2759 8H14.6207V9.65517H16.2759V8Z" fill="black"/>
<path d="M17.931 8H16.2759V9.65517H17.931V8Z" fill="black"/>
<path d="M19.5862 8H17.931V9.65517H19.5862V8Z" fill="black"/>
<path d="M22.8966 8H21.2414V9.65517H22.8966V8Z" fill="black"/>
<path d="M29.5172 8H27.8621V9.65517H29.5172V8Z" fill="black"/>
<path d="M31.1724 8H29.5172V9.65517H31.1724V8Z" fill="black"/>
<path d="M32.8276 8H31.1724V9.65517H32.8276V8Z" fill="black"/>
<path d="M34.4828 8H32.8276V9.65517H34.4828V8Z" fill="black"/>
<path d="M36.1379 8H34.4828V9.65517H36.1379V8Z" fill="black"/>
<path d="M39.4483 8H37.7931V9.65517H39.4483V8Z" fill="black"/>
<path d="M42.7586 8H41.1035V9.65517H42.7586V8Z" fill="black"/>
<path d="M46.069 8H44.4138V9.65517H46.069V8Z" fill="black"/>
<path d="M47.7241 8H46.069V9.65517H47.7241V8Z" fill="black"/>
<path d="M49.3793 8H47.7241V9.65517H49.3793V8Z" fill="black"/>
<path d="M51.0345 8H49.3793V9.65517H51.0345V8Z" fill="black"/>
<path d="M52.6897 8H51.0345V9.65517H52.6897V8Z" fill="black"/>
<path d="M54.3448 8H52.6897V9.65517H54.3448V8Z" fill="black"/>
<path d="M56 8H54.3448V9.65517H56V8Z" fill="black"/>
<path d="M9.65517 9.65517H8V11.3103H9.65517V9.65517Z" fill="black"/>
<path d="M19.5862 9.65517H17.931V11.3103H19.5862V9.65517Z" fill="black"/>
<path d="M24.5517 9.65517H22.8966V11.3103H24.5517V9.65517Z" fill="black"/>
<path d="M26.2069 9.65517H24.5517V11.3103H26.2069V9.65517Z" fill="black"/>
<path d="M29.5172 9.65517H27.8621V11.3103H29.5172V9.65517Z" fill="black"/>
<path d="M32.8276 9.65517H31.1724V11.3103H32.8276V9.65517Z" fill="black"/>
<path d="M34.4828 9.65517H32.8276V11.3103H34.4828V9.65517Z" fill="black"/>
<path d="M37.7931 9.65517H36.1379V11.3103H37.7931V9.65517Z" fill="black"/>
<path d="M46.069 9.65517H44.4138V11.3103H46.069V9.65517Z" fill="black"/>
<path d="M56 9.65517H54.3448V11.3103H56V9.65517Z" fill="black"/>
<path d="M9.65517 11.3103H8V12.9655H9.65517V11.3103Z" fill="black"/>
<path d="M12.9655 11.3103H11.3103V12.9655H12.9655V11.3103Z" fill="black"/>
<path d="M14.6207 11.3103H12.9655V12.9655H14.6207V11.3103Z" fill="black"/>
<path d="M16.2759 11.3103H14.6207V12.9655H16.2759V11.3103Z" fill="black"/>
<path d="M19.5862 11.3103H17.931V12.9655H19.5862V11.3103Z" fill="black"/>
<path d="M27.8621 11.3103H26.2069V12.9655H27.8621V11.3103Z" fill="black"/>
<path d="M31.1724 11.3103H29.5172V12.9655H31.1724V11.3103Z" fill="black"/>
<path d="M37.7931 11.3103H36.1379V12.9655H37.7931V11.3103Z" fill="black"/>
<path d="M39.4483 11.3103H37.7931V12.9655H39.4483V11.3103Z" fill="black"/>
<path d="M41.1035 11.3103H39.4483V12.9655H41.1035V11.3103Z" fill="black"/>
<path d="M42.7586 11.3103H41.1035V12.9655H42.7586V11.3103Z" fill="black"/>
<path d="M46.069 11.3103H44.4138V12.9655H46.069V11.3103Z" fill="black"/>
<path d="M49.3793 11.3103H47.7241V12.9655H49.3793V11.3103Z" fill="black"/>
<path d="M51.0345 11.3103H49.3793V12.9655H51.0345V11.3103Z" fill="black"/>
<path d="M52.6897 11.3103H51.0345V12.9655H52.6897V11.3103Z" fill="black"/>
<path d="M56 11.3103H54.3448V12.9655H56V11.3103Z" fill="black"/>
<path d="M9.65517 12.9655H8V14.6207H9.65517V12.9655Z" fill="black"/>
<path d="M12.9655 12.9655H11.3103V14.6207H12.9655V12.9655Z" fill="black"/>
<path d="M14.6207 12.9655H12.9655V14.6207H14.6207V12.9655Z" fill="black"/>
<path d="M16.2759 12.9655H14.6207V14.6207H16.2759V12.9655Z" fill="black"/>
<path d="M19.5862 12.9655H17.931V14.6207H19.5862V12.9655Z" fill="black"/>
<path d="M22.8966 12.9655H21.2414V14.6207H22.8966V12.9655Z" fill="black"/>
<path d="M27.8621 12.9655H26.2069V14.6207H27.8621V12.9655Z" fill="black"/>
<path d="M31.1724 12.9655H29.5172V14.6207H31.1724V12.9655Z" fill="black"/>
<path d="M32.8276 12.9655H31.1724V14.6207H32.8276V12.9655Z" fill="black"/>
<path d="M39.4483 12.9655H37.7931V14.6207H39.4483V12.9655Z" fill="black"/>
<path d="M46.069 12.9655H44.4138V14.6207H46.069V12.9655Z" fill="black"/>
<path d="M49.3793 12.9655H47.7241V14.6207H49.3793V12.9655Z" fill="black"/>
<path d="M51.0345 12.9655H49.3793V14.6207H51.0345V12.9655Z" fill="black"/>
<path d="M52.6897 12.9655H51.0345V14.6207H52.6897V12.9655Z" fill="black"/>
<path d="M56 12.9655H54.3448V14.6207H56V12.9655Z" fill="black"/>
<path d="M9.65517 14.6207H8V16.2759H9.65517V14.6207Z" fill="black"/>
<path d="M12.9655 14.6207H11.3103V16.2759H12.9655V14.6207Z" fill="black"/>
<path d="M14.6207 14.6207H12.9655V16.2759H14.6207V14.6207Z" fill="black"/>
<path d="M16.2759 14.6207H14.6207V16.2759H16.2759V14.6207Z" fill="black"/>
<path d="M19.5862 14.6207H17.931V16.2759H19.5862V14.6207Z" fill="black"/>
<path d="M24.5517 14.6207H22.8966V16.2759H24.5517V14.6207Z" fill="black"/>
<path d="M26.2069 14.6207H24.5517V16.2759H26.2069V14.6207Z" fill="black"/>
<path d="M31.1724 14.6207H29.5172V16.2759H31.1724V14.6207Z" fill="black"/>
<path d="M32.8276 14.6207H31.1724V16.2759H32.8276V14.6207Z" fill="black"/>
<path d="M36.1379 14.6207H34.4828V16.2759H36.1379V14.6207Z" fill="black"/>
<path d="M42.7586 14.6207H41.1035V16.2759H42.7586V14.6207Z" fill="black"/>
<path d="M46.069 14.6207H44.4138V16.2759H46.069V14.6207Z" fill="black"/>
<path d="M49.3793 14.6207H47.7241V16.2759H49.3793V14.6207Z" fill="black"/>
<path d="M51.0345 14.6207H49.3793V16.2759H51.0345V14.6207Z" fill="black"/>
<path d="M52.6897 14.6207H51.0345V16.2759H52.6897V14.6207Z" fill="black"/>
<path d="M56 14.6207H54.3448V16.2759H56V14.6207Z" fill="black"/>
<path d="M9.65517 16.2759H8V17.931H9.65517V16.2759Z" fill="black"/>
<path d="M19.5862 16.2759H17.931V17.931H19.5862V16.2759Z" fill="black"/>
<path d="M22.8966 16.2759H21.2414V17.931H22.8966V16.2759Z" fill="black"/>
<path d="M29.5172 16.2759H27.8621V17.931H29.5172V16.2759Z" fill="black"/>
<path d="M34.4828 16.2759H32.8276V17.931H34.4828V16.2759Z" fill="black"/>
<path d="M36.1379 16.2759H34.4828V17.931H36.1379V16.2759Z" fill="black"/>
<path d="M37.7931 16.2759H36.1379V17.931H37.7931V16.2759Z" fill="black"/>
<path d="M39.4483 16.2759H37.7931V17.931H39.4483V16.2759Z" fill="black"/>
<path d="M46.069 16.2759H44.4138V17.931H46.069V16.2759Z" fill="black"/>
<path d="M56 16.2759H54.3448V17.931H56V16.2759Z" fill="black"/>
<path d="M9.65517 17.931H8V19.5862H9.65517V17.931Z" fill="black"/>
<path d="M11.3103 17.931H9.65517V19.5862H11.3103V17.931Z" fill="black"/>
<path d="M12.9655 17.931H11.3103V19.5862H12.9655V17.931Z" fill="black"/>
<path d="M14.6207 17.931H12.9655V19.5862H14.6207V17.931Z" fill="black"/>
<path d="M16.2759 17.931H14.6207V19.5862H16.2759V17.931Z" fill="black"/>
<path d="M17.931 17.931H16.2759V19.5862H17.931V17.931Z" fill="black"/>
<path d="M19.5862 17.931H17.931V19.5862H19.5862V17.931Z" fill="black"/>
<path d="M22.8966 17.931H21.2414V19.5862H22.8966V17.931Z" fill="black"/>
<path d="M26.2069 17.931H24.5517V19.5862H26.2069V17.931Z" fill="black"/>
<path d="M29.5172 17.931H27.8621V19.5862H29.5172V17.931Z" fill="black"/>
<path d="M32.8276 17.931H31.1724V19.5862H32.8276V17.931Z" fill="black"/>
<path d="M36.1379 17.931H34.4828V19.5862H36.1379V17.931Z" fill="black"/>
<path d="M39.4483 17.931H37.7931V19.5862H39.4483V17.931Z" fill="black"/>
<path d="M42.7586 17.931H41.1035V19.5862H42.7586V17.931Z" fill="black"/>
<path d="M46.069 17.931H44.4138V19.5862H46.069V17.931Z" fill="black"/>
<path d="M47.7241 17.931H46.069V19.5862H47.7241V17.931Z" fill="black"/>
<path d="M49.3793 17.931H47.7241V19.5862H49.3793V17.931Z" fill="black"/>
<path d="M51.0345 17.931H49.3793V19.5862H51.0345V17.931Z" fill="black"/>
<path d="M52.6897 17.931H51.0345V19.5862H52.6897V17.931Z" fill="black"/>
<path d="M54.3448 17.931H52.6897V19.5862H54.3448V17.931Z" fill="black"/>
<path d="M56 17.931H54.3448V19.5862H56V17.931Z" fill="black"/>
<path d="M26.2069 19.5862H24.5517V21.2414H26.2069V19.5862Z" fill="black"/>
<path d="M31.1724 19.5862H29.5172V21.2414H31.1724V19.5862Z" fill="black"/>
<path d="M36.1379 19.5862H34.4828V21.2414H36.1379V19.5862Z" fill="black"/>
<path d="M39.4483 19.5862H37.7931V21.2414H39.4483V19.5862Z" fill="black"/>
<path d="M41.1035 19.5862H39.4483V21.2414H41.1035V19.5862Z" fill="black"/>
<path d="M42.7586 19.5862H41.1035V21.2414H42.7586V19.5862Z" fill="black"/>
<path d="M17.931 21.2414H16.2759V22.8966H17.931V21.2414Z" fill="black"/>
<path d="M19.5862 21.2414H17.931V22.8966H19.5862V21.2414Z" fill="black"/>
<path d="M22.8966 21.2414H21.2414V22.8966H22.8966V21.2414Z" fill="black"/>
<path d="M29.5172 21.2414H27.8621V22.8966H29.5172V21.2414Z" fill="black"/>
<path d="M36.1379 21.2414H34.4828V22.8966H36.1379V21.2414Z" fill="black"/>
<path d="M44.4138 21.2414H42.7586V22.8966H44.4138V21.2414Z" fill="black"/>
<path d="M47.7241 21.2414H46.069V22.8966H47.7241V21.2414Z" fill="black"/>
<path d="M51.0345 21.2414H49.3793V22.8966H51.0345V21.2414Z" fill="black"/>
<path d="M56 21.2414H54.3448V22.8966H56V21.2414Z" fill="black"/>
<path d="M9.65517 22.8966H8V24.5517H9.65517V22.8966Z" fill="black"/>
<path d="M12.9655 22.8966H11.3103V24.5517H12.9655V22.8966Z" fill="black"/>
<path d="M14.6207 22.8966H12.9655V24.5517H14.6207V22.8966Z" fill="black"/>
<path d="M16.2759 22.8966H14.6207V24.5517H16.2759V22.8966Z" fill="black"/>
<path d="M21.2414 22.8966H19.5862V24.5517H21.2414V22.8966Z" fill="black"/>
<path d="M27.8621 22.8966H26.2069V24.5517H27.8621V22.8966Z" fill="black"/>
<path d="M29.5172 22.8966H27.8621V24.5517H29.5172V22.8966Z" fill="black"/>
<path d="M31.1724 22.8966H29.5172V24.5517H31.1724V22.8966Z" fill="black"/>
<path d="M36.1379 22.8966H34.4828V24.5517H36.1379V22.8966Z" fill="black"/>
<path d="M39.4483 22.8966H37.7931V24.5517H39.4483V22.8966Z" fill="black"/>
<path d="M41.1035 22.8966H39.4483V24.5517H41.1035V22.8966Z" fill="black"/>
<path d="M42.7586 22.8966H41.1035V24.5517H42.7586V22.8966Z" fill="black"/>
<path d="M44.4138 22.8966H42.7586V24.5517H44.4138V22.8966Z" fill="black"/>
<path d="M46.069 22.8966H44.4138V24.5517H46.069V22.8966Z" fill="black"/>
<path d="M49.3793 22.8966H47.7241V24.5517H49.3793V22.8966Z" fill="black"/>
<path d="M51.0345 22.8966H49.3793V24.5517H51.0345V22.8966Z" fill="black"/>
<path d="M54.3448 22.8966H52.6897V24.5517H54.3448V22.8966Z" fill="black"/>
<path d="M11.3103 24.5517H9.65517V26.2069H11.3103V24.5517Z" fill="black"/>
<path d="M12.9655 24.5517H11.3103V26.2069H12.9655V24.5517Z" fill="black"/>
<path d="M17.931 24.5517H16.2759V26.2069H17.931V24.5517Z" fill="black"/>
<path d="M19.5862 24.5517H17.931V26.2069H19.5862V24.5517Z" fill="black"/>
<path d="M21.2414 24.5517H19.5862V26.2069H21.2414V24.5517Z" fill="black"/>
<path d="M22.8966 24.5517H21.2414V26.2069H22.8966V24.5517Z" fill="black"/>
<path d="M24.5517 24.5517H22.8966V26.2069H24.5517V24.5517Z" fill="black"/>
<path d="M27.8621 24.5517H26.2069V26.2069H27.8621V24.5517Z" fill="black"/>
<path d="M29.5172 24.5517H27.8621V26.2069H29.5172V24.5517Z" fill="black"/>
<path d="M32.8276 24.5517H31.1724V26.2069H32.8276V24.5517Z" fill="black"/>
<path d="M34.4828 24.5517H32.8276V26.2069H34.4828V24.5517Z" fill="black"/>
<path d="M37.7931 24.5517H36.1379V26.2069H37.7931V24.5517Z" fill="black"/>
<path d="M39.4483 24.5517H37.7931V26.2069H39.4483V24.5517Z" fill="black"/>
<path d="M41.1035 24.5517H39.4483V26.2069H41.1035V24.5517Z" fill="black"/>
<path d="M44.4138 24.5517H42.7586V26.2069H44.4138V24.5517Z" fill="black"/>
<path d="M49.3793 24.5517H47.7241V26.2069H49.3793V24.5517Z" fill="black"/>
<path d="M51.0345 24.5517H49.3793V26.2069H51.0345V24.5517Z" fill="black"/>
<path d="M52.6897 24.5517H51.0345V26.2069H52.6897V24.5517Z" fill="black"/>
<path d="M9.65517 26.2069H8V27.8621H9.65517V26.2069Z" fill="black"/>
<path d="M12.9655 26.2069H11.3103V27.8621H12.9655V26.2069Z" fill="black"/>
<path d="M16.2759 26.2069H14.6207V27.8621H16.2759V26.2069Z" fill="black"/>
<path d="M17.931 26.2069H16.2759V27.8621H17.931V26.2069Z" fill="black"/>
<path d="M24.5517 26.2069H22.8966V27.8621H24.5517V26.2069Z" fill="black"/>
<path d="M27.8621 26.2069H26.2069V27.8621H27.8621V26.2069Z" fill="black"/>
<path d="M32.8276 26.2069H31.1724V27.8621H32.8276V26.2069Z" fill="black"/>
<path d="M39.4483 26.2069H37.7931V27.8621H39.4483V26.2069Z" fill="black"/>
<path d="M41.1035 26.2069H39.4483V27.8621H41.1035V26.2069Z" fill="black"/>
<path d="M42.7586 26.2069H41.1035V27.8621H42.7586V26.2069Z" fill="black"/>
<path d="M46.069 26.2069H44.4138V27.8621H46.069V26.2069Z" fill="black"/>
<path d="M51.0345 26.2069H49.3793V27.8621H51.0345V26.2069Z" fill="black"/>
<path d="M52.6897 26.2069H51.0345V27.8621H52.6897V26.2069Z" fill="black"/>
<path d="M9.65517 27.8621H8V29.5172H9.65517V27.8621Z" fill="black"/>
<path d="M11.3103 27.8621H9.65517V29.5172H11.3103V27.8621Z" fill="black"/>
<path d="M14.6207 27.8621H12.9655V29.5172H14.6207V27.8621Z" fill="black"/>
<path d="M19.5862 27.8621H17.931V29.5172H19.5862V27.8621Z" fill="black"/>
<path d="M31.1724 27.8621H29.5172V29.5172H31.1724V27.8621Z" fill="black"/>
<path d="M32.8276 27.8621H31.1724V29.5172H32.8276V27.8621Z" fill="black"/>
<path d="M34.4828 27.8621H32.8276V29.5172H34.4828V27.8621Z" fill="black"/>
<path d="M36.1379 27.8621H34.4828V29.5172H36.1379V27.8621Z" fill="black"/>
<path d="M37.7931 27.8621H36.1379V29.5172H37.7931V27.8621Z" fill="black"/>
<path d="M41.1035 27.8621H39.4483V29.5172H41.1035V27.8621Z" fill="black"/>
<path d="M44.4138 27.8621H42.7586V29.5172H44.4138V27.8621Z" fill="black"/>
<path d="M47.7241 27.8621H46.069V29.5172H47.7241V27.8621Z" fill="black"/>
<path d="M49.3793 27.8621H47.7241V29.5172H49.3793V27.8621Z" fill="black"/>
<path d="M51.0345 27.8621H49.3793V29.5172H51.0345V27.8621Z" fill="black"/>
<path d="M54.3448 27.8621H52.6897V29.5172H54.3448V27.8621Z" fill="black"/>
<path d="M56 27.8621H54.3448V29.5172H56V27.8621Z" fill="black"/>
<path d="M14.6207 29.5172H12.9655V31.1724H14.6207V29.5172Z" fill="black"/>
<path d="M21.2414 29.5172H19.5862V31.1724H21.2414V29.5172Z" fill="black"/>
<path d="M24.5517 29.5172H22.8966V31.1724H24.5517V29.5172Z" fill="black"/>
<path d="M26.2069 29.5172H24.5517V31.1724H26.2069V29.5172Z" fill="black"/>
<path d="M27.8621 29.5172H26.2069V31.1724H27.8621V29.5172Z" fill="black"/>
<path d="M31.1724 29.5172H29.5172V31.1724H31.1724V29.5172Z" fill="black"/>
<path d="M32.8276 29.5172H31.1724V31.1724H32.8276V29.5172Z" fill="black"/>
<path d="M36.1379 29.5172H34.4828V31.1724H36.1379V29.5172Z" fill="black"/>
<path d="M37.7931 29.5172H36.1379V31.1724H37.7931V29.5172Z" fill="black"/>
<path d="M56 29.5172H54.3448V31.1724H56V29.5172Z" fill="black"/>
<path d="M9.65517 31.1724H8V32.8276H9.65517V31.1724Z" fill="black"/>
<path d="M12.9655 31.1724H11.3103V32.8276H12.9655V31.1724Z" fill="black"/>
<path d="M19.5862 31.1724H17.931V32.8276H19.5862V31.1724Z" fill="black"/>
<path d="M22.8966 31.1724H21.2414V32.8276H22.8966V31.1724Z" fill="black"/>
<path d="M26.2069 31.1724H24.5517V32.8276H26.2069V31.1724Z" fill="black"/>
<path d="M29.5172 31.1724H27.8621V32.8276H29.5172V31.1724Z" fill="black"/>
<path d="M31.1724 31.1724H29.5172V32.8276H31.1724V31.1724Z" fill="black"/>
<path d="M32.8276 31.1724H31.1724V32.8276H32.8276V31.1724Z" fill="black"/>
<path d="M37.7931 31.1724H36.1379V32.8276H37.7931V31.1724Z" fill="black"/>
<path d="M39.4483 31.1724H37.7931V32.8276H39.4483V31.1724Z" fill="black"/>
<path d="M41.1035 31.1724H39.4483V32.8276H41.1035V31.1724Z" fill="black"/>
<path d="M44.4138 31.1724H42.7586V32.8276H44.4138V31.1724Z" fill="black"/>
<path d="M47.7241 31.1724H46.069V32.8276H47.7241V31.1724Z" fill="black"/>
<path d="M52.6897 31.1724H51.0345V32.8276H52.6897V31.1724Z" fill="black"/>
<path d="M54.3448 31.1724H52.6897V32.8276H54.3448V31.1724Z" fill="black"/>
<path d="M12.9655 32.8276H11.3103V34.4828H12.9655V32.8276Z" fill="black"/>
<path d="M17.931 32.8276H16.2759V34.4828H17.931V32.8276Z" fill="black"/>
<path d="M21.2414 32.8276H19.5862V34.4828H21.2414V32.8276Z" fill="black"/>
<path d="M24.5517 32.8276H22.8966V34.4828H24.5517V32.8276Z" fill="black"/>
<path d="M26.2069 32.8276H24.5517V34.4828H26.2069V32.8276Z" fill="black"/>
<path d="M29.5172 32.8276H27.8621V34.4828H29.5172V32.8276Z" fill="black"/>
<path d="M31.1724 32.8276H29.5172V34.4828H31.1724V32.8276Z" fill="black"/>
<path d="M34.4828 32.8276H32.8276V34.4828H34.4828V32.8276Z" fill="black"/>
<path d="M37.7931 32.8276H36.1379V34.4828H37.7931V32.8276Z" fill="black"/>
<path d="M39.4483 32.8276H37.7931V34.4828H39.4483V32.8276Z" fill="black"/>
<path d="M42.7586 32.8276H41.1035V34.4828H42.7586V32.8276Z" fill="black"/>
<path d="M44.4138 32.8276H42.7586V34.4828H44.4138V32.8276Z" fill="black"/>
<path d="M51.0345 32.8276H49.3793V34.4828H51.0345V32.8276Z" fill="black"/>
<path d="M54.3448 32.8276H52.6897V34.4828H54.3448V32.8276Z" fill="black"/>
<path d="M11.3103 34.4828H9.65517V36.1379H11.3103V34.4828Z" fill="black"/>
<path d="M14.6207 34.4828H12.9655V36.1379H14.6207V34.4828Z" fill="black"/>
<path d="M17.931 34.4828H16.2759V36.1379H17.931V34.4828Z" fill="black"/>
<path d="M19.5862 34.4828H17.931V36.1379H19.5862V34.4828Z" fill="black"/>
<path d="M21.2414 34.4828H19.5862V36.1379H21.2414V34.4828Z" fill="black"/>
<path d="M22.8966 34.4828H21.2414V36.1379H22.8966V34.4828Z" fill="black"/>
<path d="M24.5517 34.4828H22.8966V36.1379H24.5517V34.4828Z" fill="black"/>
<path d="M27.8621 34.4828H26.2069V36.1379H27.8621V34.4828Z" fill="black"/>
<path d="M31.1724 34.4828H29.5172V36.1379H31.1724V34.4828Z" fill="black"/>
<path d="M37.7931 34.4828H36.1379V36.1379H37.7931V34.4828Z" fill="black"/>
<path d="M39.4483 34.4828H37.7931V36.1379H39.4483V34.4828Z" fill="black"/>
<path d="M42.7586 34.4828H41.1035V36.1379H42.7586V34.4828Z" fill="black"/>
<path d="M56 34.4828H54.3448V36.1379H56V34.4828Z" fill="black"/>
<path d="M12.9655 36.1379H11.3103V37.7931H12.9655V36.1379Z" fill="black"/>
<path d="M21.2414 36.1379H19.5862V37.7931H21.2414V36.1379Z" fill="black"/>
<path d="M24.5517 36.1379H22.8966V37.7931H24.5517V36.1379Z" fill="black"/>
<path d="M29.5172 36.1379H27.8621V37.7931H29.5172V36.1379Z" fill="black"/>
<path d="M32.8276 36.1379H31.1724V37.7931H32.8276V36.1379Z" fill="black"/>
<path d="M34.4828 36.1379H32.8276V37.7931H34.4828V36.1379Z" fill="black"/>
<path d="M36.1379 36.1379H34.4828V37.7931H36.1379V36.1379Z" fill="black"/>
<path d="M37.7931 36.1379H36.1379V37.7931H37.7931V36.1379Z" fill="black"/>
<path d="M41.1035 36.1379H39.4483V37.7931H41.1035V36.1379Z" fill="black"/>
<path d="M44.4138 36.1379H42.7586V37.7931H44.4138V36.1379Z" fill="black"/>
<path d="M46.069 36.1379H44.4138V37.7931H46.069V36.1379Z" fill="black"/>
<path d="M49.3793 36.1379H47.7241V37.7931H49.3793V36.1379Z" fill="black"/>
<path d="M51.0345 36.1379H49.3793V37.7931H51.0345V36.1379Z" fill="black"/>
<path d="M52.6897 36.1379H51.0345V37.7931H52.6897V36.1379Z" fill="black"/>
<path d="M54.3448 36.1379H52.6897V37.7931H54.3448V36.1379Z" fill="black"/>
<path d="M9.65517 37.7931H8V39.4483H9.65517V37.7931Z" fill="black"/>
<path d="M11.3103 37.7931H9.65517V39.4483H11.3103V37.7931Z" fill="black"/>
<path d="M16.2759 37.7931H14.6207V39.4483H16.2759V37.7931Z" fill="black"/>
<path d="M19.5862 37.7931H17.931V39.4483H19.5862V37.7931Z" fill="black"/>
<path d="M24.5517 37.7931H22.8966V39.4483H24.5517V37.7931Z" fill="black"/>
<path d="M32.8276 37.7931H31.1724V39.4483H32.8276V37.7931Z" fill="black"/>
<path d="M39.4483 37.7931H37.7931V39.4483H39.4483V37.7931Z" fill="black"/>
<path d="M41.1035 37.7931H39.4483V39.4483H41.1035V37.7931Z" fill="black"/>
<path d="M44.4138 37.7931H42.7586V39.4483H44.4138V37.7931Z" fill="black"/>
<path d="M46.069 37.7931H44.4138V39.4483H46.069V37.7931Z" fill="black"/>
<path d="M47.7241 37.7931H46.069V39.4483H47.7241V37.7931Z" fill="black"/>
<path d="M49.3793 37.7931H47.7241V39.4483H49.3793V37.7931Z" fill="black"/>
<path d="M52.6897 37.7931H51.0345V39.4483H52.6897V37.7931Z" fill="black"/>
<path d="M9.65517 39.4483H8V41.1035H9.65517V39.4483Z" fill="black"/>
<path d="M12.9655 39.4483H11.3103V41.1035H12.9655V39.4483Z" fill="black"/>
<path d="M17.931 39.4483H16.2759V41.1035H17.931V39.4483Z" fill="black"/>
<path d="M22.8966 39.4483H21.2414V41.1035H22.8966V39.4483Z" fill="black"/>
<path d="M26.2069 39.4483H24.5517V41.1035H26.2069V39.4483Z" fill="black"/>
<path d="M31.1724 39.4483H29.5172V41.1035H31.1724V39.4483Z" fill="black"/>
<path d="M34.4828 39.4483H32.8276V41.1035H34.4828V39.4483Z" fill="black"/>
<path d="M36.1379 39.4483H34.4828V41.1035H36.1379V39.4483Z" fill="black"/>
<path d="M37.7931 39.4483H36.1379V41.1035H37.7931V39.4483Z" fill="black"/>
<path d="M44.4138 39.4483H42.7586V41.1035H44.4138V39.4483Z" fill="black"/>
<path d="M47.7241 39.4483H46.069V41.1035H47.7241V39.4483Z" fill="black"/>
<path d="M52.6897 39.4483H51.0345V41.1035H52.6897V39.4483Z" fill="black"/>
<path d="M54.3448 39.4483H52.6897V41.1035H54.3448V39.4483Z" fill="black"/>
<path d="M12.9655 41.1035H11.3103V42.7586H12.9655V41.1035Z" fill="black"/>
<path d="M19.5862 41.1035H17.931V42.7586H19.5862V41.1035Z" fill="black"/>
<path d="M24.5517 41.1035H22.8966V42.7586H24.5517V41.1035Z" fill="black"/>
<path d="M27.8621 41.1035H26.2069V42.7586H27.8621V41.1035Z" fill="black"/>
<path d="M31.1724 41.1035H29.5172V42.7586H31.1724V41.1035Z" fill="black"/>
<path d="M32.8276 41.1035H31.1724V42.7586H32.8276V41.1035Z" fill="black"/>
<path d="M34.4828 41.1035H32.8276V42.7586H34.4828V41.1035Z" fill="black"/>
<path d="M39.4483 41.1035H37.7931V42.7586H39.4483V41.1035Z" fill="black"/>
<path d="M42.7586 41.1035H41.1035V42.7586H42.7586V41.1035Z" fill="black"/>
<path d="M44.4138 41.1035H42.7586V42.7586H44.4138V41.1035Z" fill="black"/>
<path d="M46.069 41.1035H44.4138V42.7586H46.069V41.1035Z" fill="black"/>
<path d="M47.7241 41.1035H46.069V42.7586H47.7241V41.1035Z" fill="black"/>
<path d="M49.3793 41.1035H47.7241V42.7586H49.3793V41.1035Z" fill="black"/>
<path d="M52.6897 41.1035H51.0345V42.7586H52.6897V41.1035Z" fill="black"/>
<path d="M54.3448 41.1035H52.6897V42.7586H54.3448V41.1035Z" fill="black"/>
<path d="M56 41.1035H54.3448V42.7586H56V41.1035Z" fill="black"/>
<path d="M22.8966 42.7586H21.2414V44.4138H22.8966V42.7586Z" fill="black"/>
<path d="M24.5517 42.7586H22.8966V44.4138H24.5517V42.7586Z" fill="black"/>
<path d="M27.8621 42.7586H26.2069V44.4138H27.8621V42.7586Z" fill="black"/>
<path d="M29.5172 42.7586H27.8621V44.4138H29.5172V42.7586Z" fill="black"/>
<path d="M31.1724 42.7586H29.5172V44.4138H31.1724V42.7586Z" fill="black"/>
<path d="M34.4828 42.7586H32.8276V44.4138H34.4828V42.7586Z" fill="black"/>
<path d="M36.1379 42.7586H34.4828V44.4138H36.1379V42.7586Z" fill="black"/>
<path d="M37.7931 42.7586H36.1379V44.4138H37.7931V42.7586Z" fill="black"/>
<path d="M42.7586 42.7586H41.1035V44.4138H42.7586V42.7586Z" fill="black"/>
<path d="M49.3793 42.7586H47.7241V44.4138H49.3793V42.7586Z" fill="black"/>
<path d="M9.65517 44.4138H8V46.069H9.65517V44.4138Z" fill="black"/>
<path d="M11.3103 44.4138H9.65517V46.069H11.3103V44.4138Z" fill="black"/>
<path d="M12.9655 44.4138H11.3103V46.069H12.9655V44.4138Z" fill="black"/>
<path d="M14.6207 44.4138H12.9655V46.069H14.6207V44.4138Z" fill="black"/>
<path d="M16.2759 44.4138H14.6207V46.069H16.2759V44.4138Z" fill="black"/>
<path d="M17.931 44.4138H16.2759V46.069H17.931V44.4138Z" fill="black"/>
<path d="M19.5862 44.4138H17.931V46.069H19.5862V44.4138Z" fill="black"/>
<path d="M24.5517 44.4138H22.8966V46.069H24.5517V44.4138Z" fill="black"/>
<path d="M29.5172 44.4138H27.8621V46.069H29.5172V44.4138Z" fill="black"/>
<path d="M32.8276 44.4138H31.1724V46.069H32.8276V44.4138Z" fill="black"/>
<path d="M34.4828 44.4138H32.8276V46.069H34.4828V44.4138Z" fill="black"/>
<path d="M37.7931 44.4138H36.1379V46.069H37.7931V44.4138Z" fill="black"/>
<path d="M41.1035 44.4138H39.4483V46.069H41.1035V44.4138Z" fill="black"/>
<path d="M42.7586 44.4138H41.1035V46.069H42.7586V44.4138Z" fill="black"/>
<path d="M46.069 44.4138H44.4138V46.069H46.069V44.4138Z" fill="black"/>
<path d="M49.3793 44.4138H47.7241V46.069H49.3793V44.4138Z" fill="black"/>
<path d="M51.0345 44.4138H49.3793V46.069H51.0345V44.4138Z" fill="black"/>
<path d="M54.3448 44.4138H52.6897V46.069H54.3448V44.4138Z" fill="black"/>
<path d="M9.65517 46.069H8V47.7241H9.65517V46.069Z" fill="black"/>
<path d="M19.5862 46.069H17.931V47.7241H19.5862V46.069Z" fill="black"/>
<path d="M22.8966 46.069H21.2414V47.7241H22.8966V46.069Z" fill="black"/>
<path d="M24.5517 46.069H22.8966V47.7241H24.5517V46.069Z" fill="black"/>
<path d="M29.5172 46.069H27.8621V47.7241H29.5172V46.069Z" fill="black"/>
<path d="M37.7931 46.069H36.1379V47.7241H37.7931V46.069Z" fill="black"/>
<path d="M41.1035 46.069H39.4483V47.7241H41.1035V46.069Z" fill="black"/>
<path d="M42.7586 46.069H41.1035V47.7241H42.7586V46.069Z" fill="black"/>
<path d="M49.3793 46.069H47.7241V47.7241H49.3793V46.069Z" fill="black"/>
<path d="M51.0345 46.069H49.3793V47.7241H51.0345V46.069Z" fill="black"/>
<path d="M54.3448 46.069H52.6897V47.7241H54.3448V46.069Z" fill="black"/>
<path d="M9.65517 47.7241H8V49.3793H9.65517V47.7241Z" fill="black"/>
<path d="M12.9655 47.7241H11.3103V49.3793H12.9655V47.7241Z" fill="black"/>
<path d="M14.6207 47.7241H12.9655V49.3793H14.6207V47.7241Z" fill="black"/>
<path d="M16.2759 47.7241H14.6207V49.3793H16.2759V47.7241Z" fill="black"/>
<path d="M19.5862 47.7241H17.931V49.3793H19.5862V47.7241Z" fill="black"/>
<path d="M26.2069 47.7241H24.5517V49.3793H26.2069V47.7241Z" fill="black"/>
<path d="M29.5172 47.7241H27.8621V49.3793H29.5172V47.7241Z" fill="black"/>
<path d="M34.4828 47.7241H32.8276V49.3793H34.4828V47.7241Z" fill="black"/>
<path d="M36.1379 47.7241H34.4828V49.3793H36.1379V47.7241Z" fill="black"/>
<path d="M42.7586 47.7241H41.1035V49.3793H42.7586V47.7241Z" fill="black"/>
<path d="M44.4138 47.7241H42.7586V49.3793H44.4138V47.7241Z" fill="black"/>
<path d="M46.069 47.7241H44.4138V49.3793H46.069V47.7241Z" fill="black"/>
<path d="M47.7241 47.7241H46.069V49.3793H47.7241V47.7241Z" fill="black"/>
<path d="M49.3793 47.7241H47.7241V49.3793H49.3793V47.7241Z" fill="black"/>
<path d="M52.6897 47.7241H51.0345V49.3793H52.6897V47.7241Z" fill="black"/>
<path d="M56 47.7241H54.3448V49.3793H56V47.7241Z" fill="black"/>
<path d="M9.65517 49.3793H8V51.0345H9.65517V49.3793Z" fill="black"/>
<path d="M12.9655 49.3793H11.3103V51.0345H12.9655V49.3793Z" fill="black"/>
<path d="M14.6207 49.3793H12.9655V51.0345H14.6207V49.3793Z" fill="black"/>
<path d="M16.2759 49.3793H14.6207V51.0345H16.2759V49.3793Z" fill="black"/>
<path d="M19.5862 49.3793H17.931V51.0345H19.5862V49.3793Z" fill="black"/>
<path d="M24.5517 49.3793H22.8966V51.0345H24.5517V49.3793Z" fill="black"/>
<path d="M26.2069 49.3793H24.5517V51.0345H26.2069V49.3793Z" fill="black"/>
<path d="M29.5172 49.3793H27.8621V51.0345H29.5172V49.3793Z" fill="black"/>
<path d="M32.8276 49.3793H31.1724V51.0345H32.8276V49.3793Z" fill="black"/>
<path d="M36.1379 49.3793H34.4828V51.0345H36.1379V49.3793Z" fill="black"/>
<path d="M39.4483 49.3793H37.7931V51.0345H39.4483V49.3793Z" fill="black"/>
<path d="M41.1035 49.3793H39.4483V51.0345H41.1035V49.3793Z" fill="black"/>
<path d="M42.7586 49.3793H41.1035V51.0345H42.7586V49.3793Z" fill="black"/>
<path d="M49.3793 49.3793H47.7241V51.0345H49.3793V49.3793Z" fill="black"/>
<path d="M54.3448 49.3793H52.6897V51.0345H54.3448V49.3793Z" fill="black"/>
<path d="M56 49.3793H54.3448V51.0345H56V49.3793Z" fill="black"/>
<path d="M9.65517 51.0345H8V52.6897H9.65517V51.0345Z" fill="black"/>
<path d="M12.9655 51.0345H11.3103V52.6897H12.9655V51.0345Z" fill="black"/>
<path d="M14.6207 51.0345H12.9655V52.6897H14.6207V51.0345Z" fill="black"/>
<path d="M16.2759 51.0345H14.6207V52.6897H16.2759V51.0345Z" fill="black"/>
<path d="M19.5862 51.0345H17.931V52.6897H19.5862V51.0345Z" fill="black"/>
<path d="M26.2069 51.0345H24.5517V52.6897H26.2069V51.0345Z" fill="black"/>
<path d="M27.8621 51.0345H26.2069V52.6897H27.8621V51.0345Z" fill="black"/>
<path d="M31.1724 51.0345H29.5172V52.6897H31.1724V51.0345Z" fill="black"/>
<path d="M42.7586 51.0345H41.1035V52.6897H42.7586V51.0345Z" fill="black"/>
<path d="M46.069 51.0345H44.4138V52.6897H46.069V51.0345Z" fill="black"/>
<path d="M47.7241 51.0345H46.069V52.6897H47.7241V51.0345Z" fill="black"/>
<path d="M52.6897 51.0345H51.0345V52.6897H52.6897V51.0345Z" fill="black"/>
<path d="M9.65517 52.6897H8V54.3448H9.65517V52.6897Z" fill="black"/>
<path d="M19.5862 52.6897H17.931V54.3448H19.5862V52.6897Z" fill="black"/>
<path d="M24.5517 52.6897H22.8966V54.3448H24.5517V52.6897Z" fill="black"/>
<path d="M32.8276 52.6897H31.1724V54.3448H32.8276V52.6897Z" fill="black"/>
<path d="M37.7931 52.6897H36.1379V54.3448H37.7931V52.6897Z" fill="black"/>
<path d="M39.4483 52.6897H37.7931V54.3448H39.4483V52.6897Z" fill="black"/>
<path d="M41.1035 52.6897H39.4483V54.3448H41.1035V52.6897Z" fill="black"/>
<path d="M46.069 52.6897H44.4138V54.3448H46.069V52.6897Z" fill="black"/>
<path d="M49.3793 52.6897H47.7241V54.3448H49.3793V52.6897Z" fill="black"/>
<path d="M54.3448 52.6897H52.6897V54.3448H54.3448V52.6897Z" fill="black"/>
<path d="M56 52.6897H54.3448V54.3448H56V52.6897Z" fill="black"/>
<path d="M9.65517 54.3448H8V56H9.65517V54.3448Z" fill="black"/>
<path d="M11.3103 54.3448H9.65517V56H11.3103V54.3448Z" fill="black"/>
<path d="M12.9655 54.3448H11.3103V56H12.9655V54.3448Z" fill="black"/>
<path d="M14.6207 54.3448H12.9655V56H14.6207V54.3448Z" fill="black"/>
<path d="M16.2759 54.3448H14.6207V56H16.2759V54.3448Z" fill="black"/>
<path d="M17.931 54.3448H16.2759V56H17.931V54.3448Z" fill="black"/>
<path d="M19.5862 54.3448H17.931V56H19.5862V54.3448Z" fill="black"/>
<path d="M24.5517 54.3448H22.8966V56H24.5517V54.3448Z" fill="black"/>
<path d="M32.8276 54.3448H31.1724V56H32.8276V54.3448Z" fill="black"/>
<path d="M37.7931 54.3448H36.1379V56H37.7931V54.3448Z" fill="black"/>
<path d="M39.4483 54.3448H37.7931V56H39.4483V54.3448Z" fill="black"/>
<path d="M41.1035 54.3448H39.4483V56H41.1035V54.3448Z" fill="black"/>
<path d="M42.7586 54.3448H41.1035V56H42.7586V54.3448Z" fill="black"/>
<path d="M47.7241 54.3448H46.069V56H47.7241V54.3448Z" fill="black"/>
<path d="M51.0345 54.3448H49.3793V56H51.0345V54.3448Z" fill="black"/>
<path d="M52.6897 54.3448H51.0345V56H52.6897V54.3448Z" fill="black"/>
</g>
<defs>
<clipPath id="clip0_3226_31484">
<rect width="64" height="64" fill="white"/>
</clipPath>
</defs>
</svg>
