<svg width="164" height="160" viewBox="0 0 164 160" fill="none" xmlns="http://www.w3.org/2000/svg">
<path d="M5.65517 0H0V5.51724H5.65517V0Z" fill="black"/>
<path d="M11.3103 0H5.65517V5.51724H11.3103V0Z" fill="black"/>
<path d="M16.9655 0H11.3103V5.51724H16.9655V0Z" fill="black"/>
<path d="M22.6207 0H16.9655V5.51724H22.6207V0Z" fill="black"/>
<path d="M28.2759 0H22.6207V5.51724H28.2759V0Z" fill="black"/>
<path d="M33.931 0H28.2759V5.51724H33.931V0Z" fill="black"/>
<path d="M39.5862 0H33.931V5.51724H39.5862V0Z" fill="black"/>
<path d="M50.8966 0H45.2414V5.51724H50.8966V0Z" fill="black"/>
<path d="M73.5172 0H67.8621V5.51724H73.5172V0Z" fill="black"/>
<path d="M79.1724 0H73.5172V5.51724H79.1724V0Z" fill="black"/>
<path d="M84.8276 0H79.1724V5.51724H84.8276V0Z" fill="black"/>
<path d="M90.4828 0H84.8276V5.51724H90.4828V0Z" fill="black"/>
<path d="M96.1379 0H90.4828V5.51724H96.1379V0Z" fill="black"/>
<path d="M107.448 0H101.793V5.51724H107.448V0Z" fill="black"/>
<path d="M118.759 0H113.103V5.51724H118.759V0Z" fill="black"/>
<path d="M130.069 0H124.414V5.51724H130.069V0Z" fill="black"/>
<path d="M135.724 0H130.069V5.51724H135.724V0Z" fill="black"/>
<path d="M141.379 0H135.724V5.51724H141.379V0Z" fill="black"/>
<path d="M147.034 0H141.379V5.51724H147.034V0Z" fill="black"/>
<path d="M152.69 0H147.034V5.51724H152.69V0Z" fill="black"/>
<path d="M158.345 0H152.69V5.51724H158.345V0Z" fill="black"/>
<path d="M164 0H158.345V5.51724H164V0Z" fill="black"/>
<path d="M5.65517 5.51724H0V11.0345H5.65517V5.51724Z" fill="black"/>
<path d="M39.5862 5.51724H33.931V11.0345H39.5862V5.51724Z" fill="black"/>
<path d="M56.5517 5.51724H50.8966V11.0345H56.5517V5.51724Z" fill="black"/>
<path d="M62.2069 5.51724H56.5517V11.0345H62.2069V5.51724Z" fill="black"/>
<path d="M73.5172 5.51724H67.8621V11.0345H73.5172V5.51724Z" fill="black"/>
<path d="M84.8276 5.51724H79.1724V11.0345H84.8276V5.51724Z" fill="black"/>
<path d="M90.4828 5.51724H84.8276V11.0345H90.4828V5.51724Z" fill="black"/>
<path d="M101.793 5.51724H96.1379V11.0345H101.793V5.51724Z" fill="black"/>
<path d="M130.069 5.51724H124.414V11.0345H130.069V5.51724Z" fill="black"/>
<path d="M164 5.51724H158.345V11.0345H164V5.51724Z" fill="black"/>
<path d="M5.65517 11.0345H0V16.5517H5.65517V11.0345Z" fill="black"/>
<path d="M16.9655 11.0345H11.3103V16.5517H16.9655V11.0345Z" fill="black"/>
<path d="M22.6207 11.0345H16.9655V16.5517H22.6207V11.0345Z" fill="black"/>
<path d="M28.2759 11.0345H22.6207V16.5517H28.2759V11.0345Z" fill="black"/>
<path d="M39.5862 11.0345H33.931V16.5517H39.5862V11.0345Z" fill="black"/>
<path d="M67.8621 11.0345H62.2069V16.5517H67.8621V11.0345Z" fill="black"/>
<path d="M79.1724 11.0345H73.5172V16.5517H79.1724V11.0345Z" fill="black"/>
<path d="M101.793 11.0345H96.1379V16.5517H101.793V11.0345Z" fill="black"/>
<path d="M107.448 11.0345H101.793V16.5517H107.448V11.0345Z" fill="black"/>
<path d="M113.103 11.0345H107.448V16.5517H113.103V11.0345Z" fill="black"/>
<path d="M118.759 11.0345H113.103V16.5517H118.759V11.0345Z" fill="black"/>
<path d="M130.069 11.0345H124.414V16.5517H130.069V11.0345Z" fill="black"/>
<path d="M141.379 11.0345H135.724V16.5517H141.379V11.0345Z" fill="black"/>
<path d="M147.034 11.0345H141.379V16.5517H147.034V11.0345Z" fill="black"/>
<path d="M152.69 11.0345H147.034V16.5517H152.69V11.0345Z" fill="black"/>
<path d="M164 11.0345H158.345V16.5517H164V11.0345Z" fill="black"/>
<path d="M5.65517 16.5517H0V22.069H5.65517V16.5517Z" fill="black"/>
<path d="M16.9655 16.5517H11.3103V22.069H16.9655V16.5517Z" fill="black"/>
<path d="M22.6207 16.5517H16.9655V22.069H22.6207V16.5517Z" fill="black"/>
<path d="M28.2759 16.5517H22.6207V22.069H28.2759V16.5517Z" fill="black"/>
<path d="M39.5862 16.5517H33.931V22.069H39.5862V16.5517Z" fill="black"/>
<path d="M50.8966 16.5517H45.2414V22.069H50.8966V16.5517Z" fill="black"/>
<path d="M67.8621 16.5517H62.2069V22.069H67.8621V16.5517Z" fill="black"/>
<path d="M79.1724 16.5517H73.5172V22.069H79.1724V16.5517Z" fill="black"/>
<path d="M84.8276 16.5517H79.1724V22.069H84.8276V16.5517Z" fill="black"/>
<path d="M107.448 16.5517H101.793V22.069H107.448V16.5517Z" fill="black"/>
<path d="M130.069 16.5517H124.414V22.069H130.069V16.5517Z" fill="black"/>
<path d="M141.379 16.5517H135.724V22.069H141.379V16.5517Z" fill="black"/>
<path d="M147.034 16.5517H141.379V22.069H147.034V16.5517Z" fill="black"/>
<path d="M152.69 16.5517H147.034V22.069H152.69V16.5517Z" fill="black"/>
<path d="M164 16.5517H158.345V22.069H164V16.5517Z" fill="black"/>
<path d="M5.65517 22.069H0V27.5862H5.65517V22.069Z" fill="black"/>
<path d="M16.9655 22.069H11.3103V27.5862H16.9655V22.069Z" fill="black"/>
<path d="M22.6207 22.069H16.9655V27.5862H22.6207V22.069Z" fill="black"/>
<path d="M28.2759 22.069H22.6207V27.5862H28.2759V22.069Z" fill="black"/>
<path d="M39.5862 22.069H33.931V27.5862H39.5862V22.069Z" fill="black"/>
<path d="M56.5517 22.069H50.8966V27.5862H56.5517V22.069Z" fill="black"/>
<path d="M62.2069 22.069H56.5517V27.5862H62.2069V22.069Z" fill="black"/>
<path d="M79.1724 22.069H73.5172V27.5862H79.1724V22.069Z" fill="black"/>
<path d="M84.8276 22.069H79.1724V27.5862H84.8276V22.069Z" fill="black"/>
<path d="M96.1379 22.069H90.4828V27.5862H96.1379V22.069Z" fill="black"/>
<path d="M118.759 22.069H113.103V27.5862H118.759V22.069Z" fill="black"/>
<path d="M130.069 22.069H124.414V27.5862H130.069V22.069Z" fill="black"/>
<path d="M141.379 22.069H135.724V27.5862H141.379V22.069Z" fill="black"/>
<path d="M147.034 22.069H141.379V27.5862H147.034V22.069Z" fill="black"/>
<path d="M152.69 22.069H147.034V27.5862H152.69V22.069Z" fill="black"/>
<path d="M164 22.069H158.345V27.5862H164V22.069Z" fill="black"/>
<path d="M5.65517 27.5862H0V33.1035H5.65517V27.5862Z" fill="black"/>
<path d="M39.5862 27.5862H33.931V33.1035H39.5862V27.5862Z" fill="black"/>
<path d="M50.8966 27.5862H45.2414V33.1035H50.8966V27.5862Z" fill="black"/>
<path d="M73.5172 27.5862H67.8621V33.1035H73.5172V27.5862Z" fill="black"/>
<path d="M90.4828 27.5862H84.8276V33.1035H90.4828V27.5862Z" fill="black"/>
<path d="M96.1379 27.5862H90.4828V33.1035H96.1379V27.5862Z" fill="black"/>
<path d="M101.793 27.5862H96.1379V33.1035H101.793V27.5862Z" fill="black"/>
<path d="M107.448 27.5862H101.793V33.1035H107.448V27.5862Z" fill="black"/>
<path d="M130.069 27.5862H124.414V33.1035H130.069V27.5862Z" fill="black"/>
<path d="M164 27.5862H158.345V33.1035H164V27.5862Z" fill="black"/>
<path d="M5.65517 33.1035H0V38.6207H5.65517V33.1035Z" fill="black"/>
<path d="M11.3103 33.1035H5.65517V38.6207H11.3103V33.1035Z" fill="black"/>
<path d="M16.9655 33.1035H11.3103V38.6207H16.9655V33.1035Z" fill="black"/>
<path d="M22.6207 33.1035H16.9655V38.6207H22.6207V33.1035Z" fill="black"/>
<path d="M28.2759 33.1035H22.6207V38.6207H28.2759V33.1035Z" fill="black"/>
<path d="M33.931 33.1035H28.2759V38.6207H33.931V33.1035Z" fill="black"/>
<path d="M39.5862 33.1035H33.931V38.6207H39.5862V33.1035Z" fill="black"/>
<path d="M50.8966 33.1035H45.2414V38.6207H50.8966V33.1035Z" fill="black"/>
<path d="M62.2069 33.1035H56.5517V38.6207H62.2069V33.1035Z" fill="black"/>
<path d="M73.5172 33.1035H67.8621V38.6207H73.5172V33.1035Z" fill="black"/>
<path d="M84.8276 33.1035H79.1724V38.6207H84.8276V33.1035Z" fill="black"/>
<path d="M96.1379 33.1035H90.4828V38.6207H96.1379V33.1035Z" fill="black"/>
<path d="M107.448 33.1035H101.793V38.6207H107.448V33.1035Z" fill="black"/>
<path d="M118.759 33.1035H113.103V38.6207H118.759V33.1035Z" fill="black"/>
<path d="M130.069 33.1035H124.414V38.6207H130.069V33.1035Z" fill="black"/>
<path d="M135.724 33.1035H130.069V38.6207H135.724V33.1035Z" fill="black"/>
<path d="M141.379 33.1035H135.724V38.6207H141.379V33.1035Z" fill="black"/>
<path d="M147.034 33.1035H141.379V38.6207H147.034V33.1035Z" fill="black"/>
<path d="M152.69 33.1035H147.034V38.6207H152.69V33.1035Z" fill="black"/>
<path d="M158.345 33.1035H152.69V38.6207H158.345V33.1035Z" fill="black"/>
<path d="M164 33.1035H158.345V38.6207H164V33.1035Z" fill="black"/>
<path d="M62.2069 38.6207H56.5517V44.1379H62.2069V38.6207Z" fill="black"/>
<path d="M79.1724 38.6207H73.5172V44.1379H79.1724V38.6207Z" fill="black"/>
<path d="M96.1379 38.6207H90.4828V44.1379H96.1379V38.6207Z" fill="black"/>
<path d="M107.448 38.6207H101.793V44.1379H107.448V38.6207Z" fill="black"/>
<path d="M113.103 38.6207H107.448V44.1379H113.103V38.6207Z" fill="black"/>
<path d="M118.759 38.6207H113.103V44.1379H118.759V38.6207Z" fill="black"/>
<path d="M33.931 44.1379H28.2759V49.6552H33.931V44.1379Z" fill="black"/>
<path d="M39.5862 44.1379H33.931V49.6552H39.5862V44.1379Z" fill="black"/>
<path d="M50.8966 44.1379H45.2414V49.6552H50.8966V44.1379Z" fill="black"/>
<path d="M73.5172 44.1379H67.8621V49.6552H73.5172V44.1379Z" fill="black"/>
<path d="M96.1379 44.1379H90.4828V49.6552H96.1379V44.1379Z" fill="black"/>
<path d="M124.414 44.1379H118.759V49.6552H124.414V44.1379Z" fill="black"/>
<path d="M135.724 44.1379H130.069V49.6552H135.724V44.1379Z" fill="black"/>
<path d="M147.034 44.1379H141.379V49.6552H147.034V44.1379Z" fill="black"/>
<path d="M164 44.1379H158.345V49.6552H164V44.1379Z" fill="black"/>
<path d="M5.65517 49.6552H0V55.1724H5.65517V49.6552Z" fill="black"/>
<path d="M16.9655 49.6552H11.3103V55.1724H16.9655V49.6552Z" fill="black"/>
<path d="M22.6207 49.6552H16.9655V55.1724H22.6207V49.6552Z" fill="black"/>
<path d="M28.2759 49.6552H22.6207V55.1724H28.2759V49.6552Z" fill="black"/>
<path d="M45.2414 49.6552H39.5862V55.1724H45.2414V49.6552Z" fill="black"/>
<path d="M67.8621 49.6552H62.2069V55.1724H67.8621V49.6552Z" fill="black"/>
<path d="M73.5172 49.6552H67.8621V55.1724H73.5172V49.6552Z" fill="black"/>
<path d="M79.1724 49.6552H73.5172V55.1724H79.1724V49.6552Z" fill="black"/>
<path d="M96.1379 49.6552H90.4828V55.1724H96.1379V49.6552Z" fill="black"/>
<path d="M107.448 49.6552H101.793V55.1724H107.448V49.6552Z" fill="black"/>
<path d="M113.103 49.6552H107.448V55.1724H113.103V49.6552Z" fill="black"/>
<path d="M118.759 49.6552H113.103V55.1724H118.759V49.6552Z" fill="black"/>
<path d="M124.414 49.6552H118.759V55.1724H124.414V49.6552Z" fill="black"/>
<path d="M130.069 49.6552H124.414V55.1724H130.069V49.6552Z" fill="black"/>
<path d="M141.379 49.6552H135.724V55.1724H141.379V49.6552Z" fill="black"/>
<path d="M147.034 49.6552H141.379V55.1724H147.034V49.6552Z" fill="black"/>
<path d="M158.345 49.6552H152.69V55.1724H158.345V49.6552Z" fill="black"/>
<path d="M11.3103 55.1724H5.65517V60.6897H11.3103V55.1724Z" fill="black"/>
<path d="M16.9655 55.1724H11.3103V60.6897H16.9655V55.1724Z" fill="black"/>
<path d="M33.931 55.1724H28.2759V60.6897H33.931V55.1724Z" fill="black"/>
<path d="M39.5862 55.1724H33.931V60.6897H39.5862V55.1724Z" fill="black"/>
<path d="M45.2414 55.1724H39.5862V60.6897H45.2414V55.1724Z" fill="black"/>
<path d="M50.8966 55.1724H45.2414V60.6897H50.8966V55.1724Z" fill="black"/>
<path d="M56.5517 55.1724H50.8966V60.6897H56.5517V55.1724Z" fill="black"/>
<path d="M67.8621 55.1724H62.2069V60.6897H67.8621V55.1724Z" fill="black"/>
<path d="M73.5172 55.1724H67.8621V60.6897H73.5172V55.1724Z" fill="black"/>
<path d="M84.8276 55.1724H79.1724V60.6897H84.8276V55.1724Z" fill="black"/>
<path d="M90.4828 55.1724H84.8276V60.6897H90.4828V55.1724Z" fill="black"/>
<path d="M101.793 55.1724H96.1379V60.6897H101.793V55.1724Z" fill="black"/>
<path d="M107.448 55.1724H101.793V60.6897H107.448V55.1724Z" fill="black"/>
<path d="M113.103 55.1724H107.448V60.6897H113.103V55.1724Z" fill="black"/>
<path d="M124.414 55.1724H118.759V60.6897H124.414V55.1724Z" fill="black"/>
<path d="M141.379 55.1724H135.724V60.6897H141.379V55.1724Z" fill="black"/>
<path d="M147.034 55.1724H141.379V60.6897H147.034V55.1724Z" fill="black"/>
<path d="M152.69 55.1724H147.034V60.6897H152.69V55.1724Z" fill="black"/>
<path d="M5.65517 60.6897H0V66.2069H5.65517V60.6897Z" fill="black"/>
<path d="M16.9655 60.6897H11.3103V66.2069H16.9655V60.6897Z" fill="black"/>
<path d="M28.2759 60.6897H22.6207V66.2069H28.2759V60.6897Z" fill="black"/>
<path d="M33.931 60.6897H28.2759V66.2069H33.931V60.6897Z" fill="black"/>
<path d="M56.5517 60.6897H50.8966V66.2069H56.5517V60.6897Z" fill="black"/>
<path d="M67.8621 60.6897H62.2069V66.2069H67.8621V60.6897Z" fill="black"/>
<path d="M84.8276 60.6897H79.1724V66.2069H84.8276V60.6897Z" fill="black"/>
<path d="M107.448 60.6897H101.793V66.2069H107.448V60.6897Z" fill="black"/>
<path d="M113.103 60.6897H107.448V66.2069H113.103V60.6897Z" fill="black"/>
<path d="M118.759 60.6897H113.103V66.2069H118.759V60.6897Z" fill="black"/>
<path d="M130.069 60.6897H124.414V66.2069H130.069V60.6897Z" fill="black"/>
<path d="M147.034 60.6897H141.379V66.2069H147.034V60.6897Z" fill="black"/>
<path d="M152.69 60.6897H147.034V66.2069H152.69V60.6897Z" fill="black"/>
<path d="M5.65517 66.2069H0V71.7241H5.65517V66.2069Z" fill="black"/>
<path d="M11.3103 66.2069H5.65517V71.7241H11.3103V66.2069Z" fill="black"/>
<path d="M22.6207 66.2069H16.9655V71.7241H22.6207V66.2069Z" fill="black"/>
<path d="M39.5862 66.2069H33.931V71.7241H39.5862V66.2069Z" fill="black"/>
<path d="M79.1724 66.2069H73.5172V71.7241H79.1724V66.2069Z" fill="black"/>
<path d="M84.8276 66.2069H79.1724V71.7241H84.8276V66.2069Z" fill="black"/>
<path d="M90.4828 66.2069H84.8276V71.7241H90.4828V66.2069Z" fill="black"/>
<path d="M96.1379 66.2069H90.4828V71.7241H96.1379V66.2069Z" fill="black"/>
<path d="M101.793 66.2069H96.1379V71.7241H101.793V66.2069Z" fill="black"/>
<path d="M113.103 66.2069H107.448V71.7241H113.103V66.2069Z" fill="black"/>
<path d="M124.414 66.2069H118.759V71.7241H124.414V66.2069Z" fill="black"/>
<path d="M135.724 66.2069H130.069V71.7241H135.724V66.2069Z" fill="black"/>
<path d="M141.379 66.2069H135.724V71.7241H141.379V66.2069Z" fill="black"/>
<path d="M147.034 66.2069H141.379V71.7241H147.034V66.2069Z" fill="black"/>
<path d="M158.345 66.2069H152.69V71.7241H158.345V66.2069Z" fill="black"/>
<path d="M164 66.2069H158.345V71.7241H164V66.2069Z" fill="black"/>
<path d="M22.6207 71.7241H16.9655V77.2414H22.6207V71.7241Z" fill="black"/>
<path d="M45.2414 71.7241H39.5862V77.2414H45.2414V71.7241Z" fill="black"/>
<path d="M56.5517 71.7241H50.8966V77.2414H56.5517V71.7241Z" fill="black"/>
<path d="M62.2069 71.7241H56.5517V77.2414H62.2069V71.7241Z" fill="black"/>
<path d="M67.8621 71.7241H62.2069V77.2414H67.8621V71.7241Z" fill="black"/>
<path d="M79.1724 71.7241H73.5172V77.2414H79.1724V71.7241Z" fill="black"/>
<path d="M84.8276 71.7241H79.1724V77.2414H84.8276V71.7241Z" fill="black"/>
<path d="M96.1379 71.7241H90.4828V77.2414H96.1379V71.7241Z" fill="black"/>
<path d="M101.793 71.7241H96.1379V77.2414H101.793V71.7241Z" fill="black"/>
<path d="M164 71.7241H158.345V77.2414H164V71.7241Z" fill="black"/>
<path d="M5.65517 77.2414H0V82.7586H5.65517V77.2414Z" fill="black"/>
<path d="M16.9655 77.2414H11.3103V82.7586H16.9655V77.2414Z" fill="black"/>
<path d="M39.5862 77.2414H33.931V82.7586H39.5862V77.2414Z" fill="black"/>
<path d="M50.8966 77.2414H45.2414V82.7586H50.8966V77.2414Z" fill="black"/>
<path d="M62.2069 77.2414H56.5517V82.7586H62.2069V77.2414Z" fill="black"/>
<path d="M73.5172 77.2414H67.8621V82.7586H73.5172V77.2414Z" fill="black"/>
<path d="M79.1724 77.2414H73.5172V82.7586H79.1724V77.2414Z" fill="black"/>
<path d="M84.8276 77.2414H79.1724V82.7586H84.8276V77.2414Z" fill="black"/>
<path d="M101.793 77.2414H96.1379V82.7586H101.793V77.2414Z" fill="black"/>
<path d="M107.448 77.2414H101.793V82.7586H107.448V77.2414Z" fill="black"/>
<path d="M113.103 77.2414H107.448V82.7586H113.103V77.2414Z" fill="black"/>
<path d="M124.414 77.2414H118.759V82.7586H124.414V77.2414Z" fill="black"/>
<path d="M135.724 77.2414H130.069V82.7586H135.724V77.2414Z" fill="black"/>
<path d="M152.69 77.2414H147.034V82.7586H152.69V77.2414Z" fill="black"/>
<path d="M158.345 77.2414H152.69V82.7586H158.345V77.2414Z" fill="black"/>
<path d="M16.9655 82.7586H11.3103V88.2759H16.9655V82.7586Z" fill="black"/>
<path d="M33.931 82.7586H28.2759V88.2759H33.931V82.7586Z" fill="black"/>
<path d="M45.2414 82.7586H39.5862V88.2759H45.2414V82.7586Z" fill="black"/>
<path d="M56.5517 82.7586H50.8966V88.2759H56.5517V82.7586Z" fill="black"/>
<path d="M62.2069 82.7586H56.5517V88.2759H62.2069V82.7586Z" fill="black"/>
<path d="M73.5172 82.7586H67.8621V88.2759H73.5172V82.7586Z" fill="black"/>
<path d="M79.1724 82.7586H73.5172V88.2759H79.1724V82.7586Z" fill="black"/>
<path d="M90.4828 82.7586H84.8276V88.2759H90.4828V82.7586Z" fill="black"/>
<path d="M101.793 82.7586H96.1379V88.2759H101.793V82.7586Z" fill="black"/>
<path d="M107.448 82.7586H101.793V88.2759H107.448V82.7586Z" fill="black"/>
<path d="M118.759 82.7586H113.103V88.2759H118.759V82.7586Z" fill="black"/>
<path d="M124.414 82.7586H118.759V88.2759H124.414V82.7586Z" fill="black"/>
<path d="M147.034 82.7586H141.379V88.2759H147.034V82.7586Z" fill="black"/>
<path d="M158.345 82.7586H152.69V88.2759H158.345V82.7586Z" fill="black"/>
<path d="M11.3103 88.2759H5.65517V93.7931H11.3103V88.2759Z" fill="black"/>
<path d="M22.6207 88.2759H16.9655V93.7931H22.6207V88.2759Z" fill="black"/>
<path d="M33.931 88.2759H28.2759V93.7931H33.931V88.2759Z" fill="black"/>
<path d="M39.5862 88.2759H33.931V93.7931H39.5862V88.2759Z" fill="black"/>
<path d="M45.2414 88.2759H39.5862V93.7931H45.2414V88.2759Z" fill="black"/>
<path d="M50.8966 88.2759H45.2414V93.7931H50.8966V88.2759Z" fill="black"/>
<path d="M56.5517 88.2759H50.8966V93.7931H56.5517V88.2759Z" fill="black"/>
<path d="M67.8621 88.2759H62.2069V93.7931H67.8621V88.2759Z" fill="black"/>
<path d="M79.1724 88.2759H73.5172V93.7931H79.1724V88.2759Z" fill="black"/>
<path d="M101.793 88.2759H96.1379V93.7931H101.793V88.2759Z" fill="black"/>
<path d="M107.448 88.2759H101.793V93.7931H107.448V88.2759Z" fill="black"/>
<path d="M118.759 88.2759H113.103V93.7931H118.759V88.2759Z" fill="black"/>
<path d="M164 88.2759H158.345V93.7931H164V88.2759Z" fill="black"/>
<path d="M16.9655 93.7931H11.3103V99.3104H16.9655V93.7931Z" fill="black"/>
<path d="M45.2414 93.7931H39.5862V99.3104H45.2414V93.7931Z" fill="black"/>
<path d="M56.5517 93.7931H50.8966V99.3104H56.5517V93.7931Z" fill="black"/>
<path d="M73.5172 93.7931H67.8621V99.3104H73.5172V93.7931Z" fill="black"/>
<path d="M84.8276 93.7931H79.1724V99.3104H84.8276V93.7931Z" fill="black"/>
<path d="M90.4828 93.7931H84.8276V99.3104H90.4828V93.7931Z" fill="black"/>
<path d="M96.1379 93.7931H90.4828V99.3104H96.1379V93.7931Z" fill="black"/>
<path d="M101.793 93.7931H96.1379V99.3104H101.793V93.7931Z" fill="black"/>
<path d="M113.103 93.7931H107.448V99.3104H113.103V93.7931Z" fill="black"/>
<path d="M124.414 93.7931H118.759V99.3104H124.414V93.7931Z" fill="black"/>
<path d="M130.069 93.7931H124.414V99.3104H130.069V93.7931Z" fill="black"/>
<path d="M141.379 93.7931H135.724V99.3104H141.379V93.7931Z" fill="black"/>
<path d="M147.034 93.7931H141.379V99.3104H147.034V93.7931Z" fill="black"/>
<path d="M152.69 93.7931H147.034V99.3104H152.69V93.7931Z" fill="black"/>
<path d="M158.345 93.7931H152.69V99.3104H158.345V93.7931Z" fill="black"/>
<path d="M5.65517 99.3104H0V104.828H5.65517V99.3104Z" fill="black"/>
<path d="M11.3103 99.3104H5.65517V104.828H11.3103V99.3104Z" fill="black"/>
<path d="M28.2759 99.3104H22.6207V104.828H28.2759V99.3104Z" fill="black"/>
<path d="M39.5862 99.3104H33.931V104.828H39.5862V99.3104Z" fill="black"/>
<path d="M56.5517 99.3104H50.8966V104.828H56.5517V99.3104Z" fill="black"/>
<path d="M84.8276 99.3104H79.1724V104.828H84.8276V99.3104Z" fill="black"/>
<path d="M107.448 99.3104H101.793V104.828H107.448V99.3104Z" fill="black"/>
<path d="M113.103 99.3104H107.448V104.828H113.103V99.3104Z" fill="black"/>
<path d="M124.414 99.3104H118.759V104.828H124.414V99.3104Z" fill="black"/>
<path d="M130.069 99.3104H124.414V104.828H130.069V99.3104Z" fill="black"/>
<path d="M135.724 99.3104H130.069V104.828H135.724V99.3104Z" fill="black"/>
<path d="M141.379 99.3104H135.724V104.828H141.379V99.3104Z" fill="black"/>
<path d="M152.69 99.3104H147.034V104.828H152.69V99.3104Z" fill="black"/>
<path d="M5.65517 104.828H0V110.345H5.65517V104.828Z" fill="black"/>
<path d="M16.9655 104.828H11.3103V110.345H16.9655V104.828Z" fill="black"/>
<path d="M33.931 104.828H28.2759V110.345H33.931V104.828Z" fill="black"/>
<path d="M50.8966 104.828H45.2414V110.345H50.8966V104.828Z" fill="black"/>
<path d="M62.2069 104.828H56.5517V110.345H62.2069V104.828Z" fill="black"/>
<path d="M79.1724 104.828H73.5172V110.345H79.1724V104.828Z" fill="black"/>
<path d="M90.4828 104.828H84.8276V110.345H90.4828V104.828Z" fill="black"/>
<path d="M96.1379 104.828H90.4828V110.345H96.1379V104.828Z" fill="black"/>
<path d="M101.793 104.828H96.1379V110.345H101.793V104.828Z" fill="black"/>
<path d="M124.414 104.828H118.759V110.345H124.414V104.828Z" fill="black"/>
<path d="M135.724 104.828H130.069V110.345H135.724V104.828Z" fill="black"/>
<path d="M152.69 104.828H147.034V110.345H152.69V104.828Z" fill="black"/>
<path d="M158.345 104.828H152.69V110.345H158.345V104.828Z" fill="black"/>
<path d="M16.9655 110.345H11.3103V115.862H16.9655V110.345Z" fill="black"/>
<path d="M39.5862 110.345H33.931V115.862H39.5862V110.345Z" fill="black"/>
<path d="M56.5517 110.345H50.8966V115.862H56.5517V110.345Z" fill="black"/>
<path d="M67.8621 110.345H62.2069V115.862H67.8621V110.345Z" fill="black"/>
<path d="M79.1724 110.345H73.5172V115.862H79.1724V110.345Z" fill="black"/>
<path d="M84.8276 110.345H79.1724V115.862H84.8276V110.345Z" fill="black"/>
<path d="M90.4828 110.345H84.8276V115.862H90.4828V110.345Z" fill="black"/>
<path d="M107.448 110.345H101.793V115.862H107.448V110.345Z" fill="black"/>
<path d="M118.759 110.345H113.103V115.862H118.759V110.345Z" fill="black"/>
<path d="M124.414 110.345H118.759V115.862H124.414V110.345Z" fill="black"/>
<path d="M130.069 110.345H124.414V115.862H130.069V110.345Z" fill="black"/>
<path d="M135.724 110.345H130.069V115.862H135.724V110.345Z" fill="black"/>
<path d="M141.379 110.345H135.724V115.862H141.379V110.345Z" fill="black"/>
<path d="M152.69 110.345H147.034V115.862H152.69V110.345Z" fill="black"/>
<path d="M158.345 110.345H152.69V115.862H158.345V110.345Z" fill="black"/>
<path d="M164 110.345H158.345V115.862H164V110.345Z" fill="black"/>
<path d="M50.8966 115.862H45.2414V121.379H50.8966V115.862Z" fill="black"/>
<path d="M56.5517 115.862H50.8966V121.379H56.5517V115.862Z" fill="black"/>
<path d="M67.8621 115.862H62.2069V121.379H67.8621V115.862Z" fill="black"/>
<path d="M73.5172 115.862H67.8621V121.379H73.5172V115.862Z" fill="black"/>
<path d="M79.1724 115.862H73.5172V121.379H79.1724V115.862Z" fill="black"/>
<path d="M90.4828 115.862H84.8276V121.379H90.4828V115.862Z" fill="black"/>
<path d="M96.1379 115.862H90.4828V121.379H96.1379V115.862Z" fill="black"/>
<path d="M101.793 115.862H96.1379V121.379H101.793V115.862Z" fill="black"/>
<path d="M118.759 115.862H113.103V121.379H118.759V115.862Z" fill="black"/>
<path d="M141.379 115.862H135.724V121.379H141.379V115.862Z" fill="black"/>
<path d="M5.65517 121.379H0V126.897H5.65517V121.379Z" fill="black"/>
<path d="M11.3103 121.379H5.65517V126.897H11.3103V121.379Z" fill="black"/>
<path d="M16.9655 121.379H11.3103V126.897H16.9655V121.379Z" fill="black"/>
<path d="M22.6207 121.379H16.9655V126.897H22.6207V121.379Z" fill="black"/>
<path d="M28.2759 121.379H22.6207V126.897H28.2759V121.379Z" fill="black"/>
<path d="M33.931 121.379H28.2759V126.897H33.931V121.379Z" fill="black"/>
<path d="M39.5862 121.379H33.931V126.897H39.5862V121.379Z" fill="black"/>
<path d="M56.5517 121.379H50.8966V126.897H56.5517V121.379Z" fill="black"/>
<path d="M73.5172 121.379H67.8621V126.897H73.5172V121.379Z" fill="black"/>
<path d="M84.8276 121.379H79.1724V126.897H84.8276V121.379Z" fill="black"/>
<path d="M90.4828 121.379H84.8276V126.897H90.4828V121.379Z" fill="black"/>
<path d="M101.793 121.379H96.1379V126.897H101.793V121.379Z" fill="black"/>
<path d="M113.103 121.379H107.448V126.897H113.103V121.379Z" fill="black"/>
<path d="M118.759 121.379H113.103V126.897H118.759V121.379Z" fill="black"/>
<path d="M130.069 121.379H124.414V126.897H130.069V121.379Z" fill="black"/>
<path d="M141.379 121.379H135.724V126.897H141.379V121.379Z" fill="black"/>
<path d="M147.034 121.379H141.379V126.897H147.034V121.379Z" fill="black"/>
<path d="M158.345 121.379H152.69V126.897H158.345V121.379Z" fill="black"/>
<path d="M5.65517 126.897H0V132.414H5.65517V126.897Z" fill="black"/>
<path d="M39.5862 126.897H33.931V132.414H39.5862V126.897Z" fill="black"/>
<path d="M50.8966 126.897H45.2414V132.414H50.8966V126.897Z" fill="black"/>
<path d="M56.5517 126.897H50.8966V132.414H56.5517V126.897Z" fill="black"/>
<path d="M73.5172 126.897H67.8621V132.414H73.5172V126.897Z" fill="black"/>
<path d="M101.793 126.897H96.1379V132.414H101.793V126.897Z" fill="black"/>
<path d="M113.103 126.897H107.448V132.414H113.103V126.897Z" fill="black"/>
<path d="M118.759 126.897H113.103V132.414H118.759V126.897Z" fill="black"/>
<path d="M141.379 126.897H135.724V132.414H141.379V126.897Z" fill="black"/>
<path d="M147.034 126.897H141.379V132.414H147.034V126.897Z" fill="black"/>
<path d="M158.345 126.897H152.69V132.414H158.345V126.897Z" fill="black"/>
<path d="M5.65517 132.414H0V137.931H5.65517V132.414Z" fill="black"/>
<path d="M16.9655 132.414H11.3103V137.931H16.9655V132.414Z" fill="black"/>
<path d="M22.6207 132.414H16.9655V137.931H22.6207V132.414Z" fill="black"/>
<path d="M28.2759 132.414H22.6207V137.931H28.2759V132.414Z" fill="black"/>
<path d="M39.5862 132.414H33.931V137.931H39.5862V132.414Z" fill="black"/>
<path d="M62.2069 132.414H56.5517V137.931H62.2069V132.414Z" fill="black"/>
<path d="M73.5172 132.414H67.8621V137.931H73.5172V132.414Z" fill="black"/>
<path d="M90.4828 132.414H84.8276V137.931H90.4828V132.414Z" fill="black"/>
<path d="M96.1379 132.414H90.4828V137.931H96.1379V132.414Z" fill="black"/>
<path d="M118.759 132.414H113.103V137.931H118.759V132.414Z" fill="black"/>
<path d="M124.414 132.414H118.759V137.931H124.414V132.414Z" fill="black"/>
<path d="M130.069 132.414H124.414V137.931H130.069V132.414Z" fill="black"/>
<path d="M135.724 132.414H130.069V137.931H135.724V132.414Z" fill="black"/>
<path d="M141.379 132.414H135.724V137.931H141.379V132.414Z" fill="black"/>
<path d="M152.69 132.414H147.034V137.931H152.69V132.414Z" fill="black"/>
<path d="M164 132.414H158.345V137.931H164V132.414Z" fill="black"/>
<path d="M5.65517 137.931H0V143.448H5.65517V137.931Z" fill="black"/>
<path d="M16.9655 137.931H11.3103V143.448H16.9655V137.931Z" fill="black"/>
<path d="M22.6207 137.931H16.9655V143.448H22.6207V137.931Z" fill="black"/>
<path d="M28.2759 137.931H22.6207V143.448H28.2759V137.931Z" fill="black"/>
<path d="M39.5862 137.931H33.931V143.448H39.5862V137.931Z" fill="black"/>
<path d="M56.5517 137.931H50.8966V143.448H56.5517V137.931Z" fill="black"/>
<path d="M62.2069 137.931H56.5517V143.448H62.2069V137.931Z" fill="black"/>
<path d="M73.5172 137.931H67.8621V143.448H73.5172V137.931Z" fill="black"/>
<path d="M84.8276 137.931H79.1724V143.448H84.8276V137.931Z" fill="black"/>
<path d="M96.1379 137.931H90.4828V143.448H96.1379V137.931Z" fill="black"/>
<path d="M107.448 137.931H101.793V143.448H107.448V137.931Z" fill="black"/>
<path d="M113.103 137.931H107.448V143.448H113.103V137.931Z" fill="black"/>
<path d="M118.759 137.931H113.103V143.448H118.759V137.931Z" fill="black"/>
<path d="M141.379 137.931H135.724V143.448H141.379V137.931Z" fill="black"/>
<path d="M158.345 137.931H152.69V143.448H158.345V137.931Z" fill="black"/>
<path d="M164 137.931H158.345V143.448H164V137.931Z" fill="black"/>
<path d="M5.65517 143.448H0V148.966H5.65517V143.448Z" fill="black"/>
<path d="M16.9655 143.448H11.3103V148.966H16.9655V143.448Z" fill="black"/>
<path d="M22.6207 143.448H16.9655V148.966H22.6207V143.448Z" fill="black"/>
<path d="M28.2759 143.448H22.6207V148.966H28.2759V143.448Z" fill="black"/>
<path d="M39.5862 143.448H33.931V148.966H39.5862V143.448Z" fill="black"/>
<path d="M62.2069 143.448H56.5517V148.966H62.2069V143.448Z" fill="black"/>
<path d="M67.8621 143.448H62.2069V148.966H67.8621V143.448Z" fill="black"/>
<path d="M79.1724 143.448H73.5172V148.966H79.1724V143.448Z" fill="black"/>
<path d="M118.759 143.448H113.103V148.966H118.759V143.448Z" fill="black"/>
<path d="M130.069 143.448H124.414V148.966H130.069V143.448Z" fill="black"/>
<path d="M135.724 143.448H130.069V148.966H135.724V143.448Z" fill="black"/>
<path d="M152.69 143.448H147.034V148.966H152.69V143.448Z" fill="black"/>
<path d="M5.65517 148.966H0V154.483H5.65517V148.966Z" fill="black"/>
<path d="M39.5862 148.966H33.931V154.483H39.5862V148.966Z" fill="black"/>
<path d="M56.5517 148.966H50.8966V154.483H56.5517V148.966Z" fill="black"/>
<path d="M84.8276 148.966H79.1724V154.483H84.8276V148.966Z" fill="black"/>
<path d="M101.793 148.966H96.1379V154.483H101.793V148.966Z" fill="black"/>
<path d="M107.448 148.966H101.793V154.483H107.448V148.966Z" fill="black"/>
<path d="M113.103 148.966H107.448V154.483H113.103V148.966Z" fill="black"/>
<path d="M130.069 148.966H124.414V154.483H130.069V148.966Z" fill="black"/>
<path d="M141.379 148.966H135.724V154.483H141.379V148.966Z" fill="black"/>
<path d="M158.345 148.966H152.69V154.483H158.345V148.966Z" fill="black"/>
<path d="M164 148.966H158.345V154.483H164V148.966Z" fill="black"/>
<path d="M5.65517 154.483H0V160H5.65517V154.483Z" fill="black"/>
<path d="M11.3103 154.483H5.65517V160H11.3103V154.483Z" fill="black"/>
<path d="M16.9655 154.483H11.3103V160H16.9655V154.483Z" fill="black"/>
<path d="M22.6207 154.483H16.9655V160H22.6207V154.483Z" fill="black"/>
<path d="M28.2759 154.483H22.6207V160H28.2759V154.483Z" fill="black"/>
<path d="M33.931 154.483H28.2759V160H33.931V154.483Z" fill="black"/>
<path d="M39.5862 154.483H33.931V160H39.5862V154.483Z" fill="black"/>
<path d="M56.5517 154.483H50.8966V160H56.5517V154.483Z" fill="black"/>
<path d="M84.8276 154.483H79.1724V160H84.8276V154.483Z" fill="black"/>
<path d="M101.793 154.483H96.1379V160H101.793V154.483Z" fill="black"/>
<path d="M107.448 154.483H101.793V160H107.448V154.483Z" fill="black"/>
<path d="M113.103 154.483H107.448V160H113.103V154.483Z" fill="black"/>
<path d="M118.759 154.483H113.103V160H118.759V154.483Z" fill="black"/>
<path d="M135.724 154.483H130.069V160H135.724V154.483Z" fill="black"/>
<path d="M147.034 154.483H141.379V160H147.034V154.483Z" fill="black"/>
<path d="M152.69 154.483H147.034V160H152.69V154.483Z" fill="black"/>
</svg>
