<svg width="64" height="64" viewBox="0 0 64 64" fill="none" xmlns="http://www.w3.org/2000/svg">
<path d="M36 9.33463H28V6.66797C28 4.45864 29.7907 2.66797 32 2.66797C34.2093 2.66797 36 4.45864 36 6.66797V9.33463Z" fill="url(#paint0_linear_3436_157941)"/>
<path d="M52 28C52 16.9547 43.0453 8 32 8C20.9547 8 12 16.9547 12 28C12 28.52 12 45.3333 12 45.3333H52C52 45.3333 52 28.52 52 28Z" fill="#F5BE00"/>
<path d="M52.0006 45.332H12.0007L6.83398 47.3987C5.92732 47.7614 5.33398 48.6387 5.33398 49.6134C5.33398 50.9307 6.40198 51.9987 7.71932 51.9987H56.282C57.5993 51.9987 58.6673 50.9307 58.6673 49.6134C58.6673 48.6387 58.074 47.7614 57.1673 47.3987L52.0006 45.332Z" fill="url(#paint1_linear_3436_157941)"/>
<path d="M37.3327 52C37.3327 54.9453 34.9447 57.3333 31.9993 57.3333C29.054 57.3333 26.666 54.9453 26.666 52H37.3327Z" fill="url(#paint2_linear_3436_157941)"/>
<defs>
<linearGradient id="paint0_linear_3436_157941" x1="32" y1="2.65864" x2="32" y2="9.3413" gradientUnits="userSpaceOnUse">
<stop stop-color="#FEDE00"/>
<stop offset="1" stop-color="#FFD000"/>
</linearGradient>
<linearGradient id="paint1_linear_3436_157941" x1="32.0007" y1="45.3227" x2="32.0007" y2="52.0054" gradientUnits="userSpaceOnUse">
<stop stop-color="#FEDE00"/>
<stop offset="1" stop-color="#FFD000"/>
</linearGradient>
<linearGradient id="paint2_linear_3436_157941" x1="31.9993" y1="57.2253" x2="31.9993" y2="51.812" gradientUnits="userSpaceOnUse">
<stop offset="0.486" stop-color="#FBC300"/>
<stop offset="1" stop-color="#DBAA00"/>
</linearGradient>
</defs>
</svg>
