<svg width="25" height="25" viewBox="0 0 25 25" fill="none" xmlns="http://www.w3.org/2000/svg"><path d="M24.583 17.563c0 4.398-2.622 7.02-7.02 7.02h-1.438a1.212 1.212 0 0 1-1.208-1.208v-6.972c0-.326.265-.604.592-.604l2.126-.036a.385.385 0 0 0 .35-.303l.424-2.307a.365.365 0 0 0-.363-.423l-2.573.036a.614.614 0 0 1-.617-.592l-.048-2.96c0-.194.157-.363.362-.363l2.9-.048a.356.356 0 0 0 .363-.363l-.048-2.9a.356.356 0 0 0-.363-.362l-3.262.048a3.62 3.62 0 0 0-3.565 3.685l.06 3.323a.598.598 0 0 1-.592.617l-1.45.024a.356.356 0 0 0-.362.362l.036 2.296c0 .205.157.363.363.363l1.45-.025c.338 0 .604.266.616.592l.109 6.888a1.21 1.21 0 0 1-1.209 1.232H7.437c-4.398 0-7.02-2.622-7.02-7.032V7.437c0-4.398 2.622-7.02 7.02-7.02h10.126c4.398 0 7.02 2.622 7.02 7.02v10.126z" fill="#fff"/></svg>