<svg width="50" height="50" viewBox="0 0 50 50" fill="none" xmlns="http://www.w3.org/2000/svg"><circle cx="25" cy="25" r="25" fill="#F2F2F2"/><path d="M27 15.27v4.13c0 .56 0 .84.109 1.054a1 1 0 0 0 .437.437c.214.11.494.11 1.054.11h4.13M29 26h-8m8 4h-8m2-8h-2m6-7h-5.2c-1.68 0-2.52 0-3.162.327a3 3 0 0 0-1.311 1.311C17 17.28 17 18.12 17 19.8v10.4c0 1.68 0 2.52.327 3.162a3 3 0 0 0 1.311 1.311C19.28 35 20.12 35 21.8 35h6.4c1.68 0 2.52 0 3.162-.327a3 3 0 0 0 1.311-1.311C33 32.72 33 31.88 33 30.2V21l-6-6z" stroke="#34D2C0" stroke-width="2" stroke-linecap="round" stroke-linejoin="round"/></svg>