<svg width="29" height="30" viewBox="0 0 29 30" fill="none" xmlns="http://www.w3.org/2000/svg"><path d="M9.834 18.555a3.111 3.111 0 0 0 3.11 3.111h2.89a3.333 3.333 0 0 0 0-6.666h-2.667a3.333 3.333 0 1 1 0-6.667h2.889a3.111 3.111 0 0 1 3.111 3.111M14.5 6.334v2m0 13.332v2M27.834 15c0 7.364-5.97 13.333-13.334 13.333-7.363 0-13.333-5.97-13.333-13.333 0-7.364 5.97-13.334 13.333-13.334 7.364 0 13.334 5.97 13.334 13.334z" stroke="#E1005C" stroke-width="2" stroke-linecap="round" stroke-linejoin="round"/></svg>