<svg width="46" height="41" viewBox="0 0 46 41" fill="none" xmlns="http://www.w3.org/2000/svg"><path d="M25.083 5.917c0 2.3-5.13 4.166-11.458 4.166S2.166 8.218 2.166 5.917m22.917 0c0-2.302-5.13-4.167-11.458-4.167S2.166 3.615 2.166 5.917m22.917 0v9.285c-2.545.765-4.166 1.92-4.166 3.215m-18.75-12.5v25c0 2.3 5.13 4.166 11.458 4.166 2.77 0 5.31-.357 7.291-.952V18.417M2.166 14.25c0 2.301 5.13 4.167 11.459 4.167 2.77 0 5.31-.358 7.291-.953m-18.75 5.12c0 2.3 5.13 4.166 11.459 4.166 2.77 0 5.31-.357 7.291-.952m22.917-7.381c0 2.3-5.13 4.166-11.458 4.166s-11.459-1.865-11.459-4.166m22.917 0c0-2.302-5.13-4.167-11.458-4.167s-11.459 1.866-11.459 4.167m22.917 0v16.666c0 2.302-5.13 4.167-11.458 4.167s-11.459-1.865-11.459-4.167V18.417m22.917 8.333c0 2.301-5.13 4.167-11.458 4.167S20.916 29.05 20.916 26.75" stroke="#F70378" stroke-width="3" stroke-linecap="round" stroke-linejoin="round"/></svg>