<svg width="29" height="26" viewBox="0 0 29 26" fill="none" xmlns="http://www.w3.org/2000/svg"><path d="M25.834 7.667V18.6c0 2.24 0 3.36-.436 4.216a4 4 0 0 1-1.748 1.748c-.856.436-1.976.436-4.216.436H9.567c-2.24 0-3.36 0-4.216-.436a4 4 0 0 1-1.748-1.748c-.436-.856-.436-1.976-.436-4.216V7.667M3.3 1h22.4c.747 0 1.12 0 1.406.145.25.128.454.332.582.583.146.285.146.659.146 1.405v2.4c0 .747 0 1.12-.146 1.406-.127.25-.331.455-.582.582-.286.146-.659.146-1.406.146H3.3c-.746 0-1.12 0-1.405-.146a1.333 1.333 0 0 1-.583-.582c-.145-.286-.145-.659-.145-1.406v-2.4c0-.746 0-1.12.145-1.405a1.34 1.34 0 0 1 .583-.583C2.18 1 2.554 1 3.3 1zm8 11.333h6.4c.747 0 1.12 0 1.406.146.25.128.454.332.582.582.146.286.146.659.146 1.406v1.066c0 .747 0 1.12-.146 1.406a1.33 1.33 0 0 1-.582.582c-.286.146-.659.146-1.406.146h-6.4c-.746 0-1.12 0-1.405-.146a1.333 1.333 0 0 1-.583-.582c-.145-.286-.145-.659-.145-1.406v-1.066c0-.747 0-1.12.145-1.406.128-.25.332-.454.583-.582.285-.146.659-.146 1.405-.146z" stroke="#E1005C" stroke-width="2" stroke-linecap="round" stroke-linejoin="round"/></svg>