<svg width="44" height="45" viewBox="0 0 44 45" fill="none" xmlns="http://www.w3.org/2000/svg"><path d="M7.417 26.666h27.366c2.11 0 3.165 0 4.005-.393a4.166 4.166 0 0 0 1.788-1.6c.483-.792.6-1.84.833-3.937l1.219-10.97c.07-.64.106-.96.004-1.208a1.042 1.042 0 0 0-.459-.512c-.235-.13-.557-.13-1.202-.13H6.375m-5.208-6.25h2.6c.552 0 .828 0 1.043.105.19.092.347.24.451.424.118.208.136.484.17 1.034l1.888 30.208c.034.55.052.825.17 1.034.104.183.261.331.45.424.216.104.492.104 1.043.104h27.601m-23.958 7.292h.02m18.73 0h.02m-17.728 0a1.042 1.042 0 1 1-2.084 0 1.042 1.042 0 0 1 2.084 0zm18.75 0a1.042 1.042 0 1 1-2.084 0 1.042 1.042 0 0 1 2.084 0z" stroke="#F70378" stroke-width="2" stroke-linecap="round" stroke-linejoin="round"/></svg>