<svg width="343" height="1203" viewBox="0 0 343 1203" fill="none" xmlns="http://www.w3.org/2000/svg"><mask id="path-1-inside-1_7843_270846" fill="#fff"><path fill-rule="evenodd" clip-rule="evenodd" d="M0 8a8 8 0 0 1 8-8h327a8 8 0 0 1 8 8v542.178c-12.393 1.482-22 12.03-22 24.822s9.607 23.34 22 24.822V1195a8 8 0 0 1-8 8H8a8 8 0 0 1-8-8V600c13.807 0 25-11.193 25-25s-11.193-25-25-25V8z"/></mask><path fill-rule="evenodd" clip-rule="evenodd" d="M0 8a8 8 0 0 1 8-8h327a8 8 0 0 1 8 8v542.178c-12.393 1.482-22 12.03-22 24.822s9.607 23.34 22 24.822V1195a8 8 0 0 1-8 8H8a8 8 0 0 1-8-8V600c13.807 0 25-11.193 25-25s-11.193-25-25-25V8z" fill="#fff"/><path d="M343 550.178l.119.993.881-.105v-.888h-1zm0 49.644h1v-.888l-.881-.105-.119.993zM0 600v-1h-1v1h1zm0-50h-1v1h1v-1zM8-1a9 9 0 0 0-9 9h2a7 7 0 0 1 7-7v-2zm327 0H8v2h327v-2zm9 9a9 9 0 0 0-9-9v2a7 7 0 0 1 7 7h2zm0 542.178V8h-2v542.178h2zM322 575c0-12.279 9.223-22.406 21.119-23.829l-.238-1.986C329.992 550.727 320 561.696 320 575h2zm21.119 23.829C331.223 597.406 322 587.279 322 575h-2c0 13.304 9.992 24.273 22.881 25.815l.238-1.986zM344 1195V599.822h-2V1195h2zm-9 9a9 9 0 0 0 9-9h-2c0 3.87-3.134 7-7 7v2zm-327 0h327v-2H8v2zm-9-9a9 9 0 0 0 9 9v-2c-3.866 0-7-3.13-7-7h-2zm0-595v595h2V600h-2zm25-25c0 13.255-10.745 24-24 24v2c14.36 0 26-11.641 26-26h-2zM0 551c13.255 0 24 10.745 24 24h2c0-14.359-11.64-26-26-26v2zM-1 8v542h2V8h-2z" fill="#E6EAED" mask="url(#path-1-inside-1_7843_270846)"/><path stroke="#E6EAED" stroke-linecap="round" stroke-dasharray="5 5" d="M16.5 93.5h305m-305 306.678h305m-305 156h305"/></svg>