<svg width="24" height="24" viewBox="0 0 24 24" fill="none" xmlns="http://www.w3.org/2000/svg"><g clip-path="url(#clip0_7163_76695)" fill="#F70378"><path d="M12 5.44c2.137 0 2.39.01 3.231.047.781.035 1.203.166 1.485.276.371.143.64.318.918.596.282.282.453.547.597.92.11.28.24.705.275 1.483.038.844.047 1.097.047 3.232 0 2.137-.01 2.39-.047 3.231-.034.781-.165 1.203-.275 1.484a2.49 2.49 0 0 1-.597.92 2.46 2.46 0 0 1-.918.596c-.282.11-.707.24-1.485.275-.844.038-1.097.047-3.231.047-2.137 0-2.39-.01-3.231-.047-.782-.034-1.203-.166-1.485-.275a2.472 2.472 0 0 1-.918-.597 2.46 2.46 0 0 1-.597-.919c-.11-.28-.24-.706-.275-1.484-.038-.844-.047-1.097-.047-3.231 0-2.138.01-2.39.047-3.232.034-.78.165-1.203.275-1.484.143-.372.319-.64.597-.919a2.46 2.46 0 0 1 .918-.596c.282-.11.707-.241 1.485-.276.84-.037 1.094-.046 3.231-.046zM12 4c-2.172 0-2.444.01-3.297.047-.85.037-1.434.175-1.94.372a3.905 3.905 0 0 0-1.42.925 3.92 3.92 0 0 0-.924 1.415c-.197.51-.335 1.091-.372 1.941C4.009 9.556 4 9.828 4 12c0 2.172.01 2.444.047 3.297.037.85.175 1.434.372 1.94.206.529.478.976.925 1.42.443.443.89.718 1.415.921.51.197 1.091.335 1.941.372.853.038 1.125.047 3.297.047s2.444-.01 3.297-.047c.85-.037 1.434-.175 1.94-.372a3.91 3.91 0 0 0 1.416-.922 3.91 3.91 0 0 0 .922-1.415c.197-.51.334-1.091.372-1.941.037-.853.047-1.125.047-3.297s-.01-2.444-.047-3.297c-.038-.85-.175-1.434-.372-1.94a3.748 3.748 0 0 0-.916-1.422 3.911 3.911 0 0 0-1.415-.922c-.51-.197-1.091-.334-1.941-.372C14.444 4.01 14.172 4 12 4z"/><path d="M12 7.89a4.11 4.11 0 0 0 0 8.22 4.11 4.11 0 0 0 0-8.22zm0 6.776a2.666 2.666 0 1 1 0-5.332 2.666 2.666 0 0 1 0 5.332zm5.231-6.938a.96.96 0 1 1-1.919 0 .96.96 0 0 1 1.92 0z"/></g><defs><clipPath id="clip0_7163_76695"><path fill="#fff" transform="translate(4 4)" d="M0 0h16v16H0z"/></clipPath></defs></svg>