<svg width="24" height="24" viewBox="0 0 24 24" fill="none" xmlns="http://www.w3.org/2000/svg"><g clip-path="url(#clip0_7163_76697)"><path d="M18.816 4H5.18C4.528 4 4 4.516 4 5.153v13.69A1.17 1.17 0 0 0 5.181 20h13.635c.653 0 1.184-.519 1.184-1.153V5.153C20 4.516 19.469 4 18.816 4zM8.746 17.634H6.373V9.997h2.375v7.637zM7.56 8.956a1.376 1.376 0 1 1-.004-2.751 1.376 1.376 0 0 1 .004 2.751zm10.075 8.678h-2.372v-3.712c0-.885-.015-2.025-1.234-2.025-1.234 0-1.422.966-1.422 1.962v3.775h-2.368V9.997h2.274v1.044h.032c.315-.6 1.09-1.235 2.243-1.235 2.404 0 2.847 1.582 2.847 3.638v4.19z" fill="#F70378"/></g><defs><clipPath id="clip0_7163_76697"><path fill="#fff" transform="translate(4 4)" d="M0 0h16v16H0z"/></clipPath></defs></svg>