<svg width="600" height="811" viewBox="0 0 600 811" fill="none" xmlns="http://www.w3.org/2000/svg"><g clip-path="url(#clip0_6994_63023)"><path d="M600 810.417V.872H0v809.545h600z" fill="#fff"/><path d="M325.237 18.158v436.01h255.578V18.158H325.237z" fill="#DDD"/><path d="M176.13 798.691v-52.726h246.758v52.726m-204.826 0v-52.726m41.213 52.726v-52.726m40.234 52.726v-52.726m41.265 52.726v-52.726m41.214 52.726v-52.726" stroke="#231F20" stroke-opacity=".3" stroke-width="1.258" stroke-miterlimit="10"/><path d="M587.52 737.412v-31.779H12.14v31.779h575.38zm-272.285-35.428V12.61h-80.24v689.374h80.24zm-84.643-.013V12.598H12.316V701.97h218.276z" fill="#DDD"/><path d="M376.365 335.23V128.504h-51.128V335.23h51.128zm204.449-.012V128.491h-51.128v206.727h51.128zm.013 107.376V374.28H466.846v68.314h113.981z" fill="#0062CC"/><path d="M580.827 636.779V459.051H325.25v177.728h255.577z" fill="#DDD"/><path d="M524.214 133.549V59.763H382.895v73.786h141.319zM421.983 56.92V18.89h-96.746v38.03h96.746z" fill="#0062CC"/><path d="M585.168 15.114v684.391H322.067V15.114h263.101zm2.516-2.516H319.551V702.02h268.133V12.598z" fill="#DDD"/><path d="M453.749 313.037c39.611 0 71.723-32.111 71.723-71.722 0-39.612-32.112-71.723-71.723-71.723s-71.723 32.111-71.723 71.723c0 39.611 32.112 71.722 71.723 71.722z" fill="#0062CC"/><path d="M325.237 641.281v55.795h255.578v-55.795H325.237z" fill="#DDD"/><path d="M336.484 682.384v-25.653h117.064v25.653m-97.161 0v-25.653m19.55 25.653v-25.653m19.085 25.653v-25.653m19.576 25.653v-25.653m19.55 25.653v-25.653" stroke="#231F20" stroke-opacity=".3" stroke-width="1.258" stroke-miterlimit="10"/><path d="M453.547 682.384v-25.653h117.064v25.653m-97.161 0v-25.653m19.551 25.653v-25.653m19.085 25.653v-25.653m19.576 25.653v-25.653m19.55 25.653v-25.653" stroke="#231F20" stroke-opacity=".3" stroke-width="1.258" stroke-miterlimit="10"/><path d="M466.833 441.737H350.801V335.229" stroke="#0062CC" stroke-width="2.516" stroke-miterlimit="10"/><path d="M426.018 103.61c-.649 0-1.298-.052-1.947-.155a10.163 10.163 0 0 1-1.837-.42 7.573 7.573 0 0 1-1.548-.753 1.429 1.429 0 0 1-.664-1.371c.044-.251.14-.465.288-.642a1.01 1.01 0 0 1 .597-.354c.236-.044.494.022.774.199a7.543 7.543 0 0 0 2.058.841 9.543 9.543 0 0 0 2.279.266c1.165 0 2.013-.192 2.544-.576.531-.398.796-.907.796-1.526 0-.516-.192-.922-.575-1.217-.369-.295-1.01-.538-1.925-.73l-2.433-.509c-1.402-.295-2.449-.789-3.142-1.482-.678-.708-1.018-1.637-1.018-2.788 0-.722.148-1.379.443-1.969a4.566 4.566 0 0 1 1.239-1.526 5.762 5.762 0 0 1 1.925-.974c.752-.236 1.578-.354 2.477-.354.885 0 1.726.111 2.522.332a7.293 7.293 0 0 1 2.146.974c.236.162.391.361.465.597.089.236.111.472.066.708a1.103 1.103 0 0 1-.309.575 1.018 1.018 0 0 1-.62.288c-.236.03-.509-.044-.818-.221a6.302 6.302 0 0 0-1.66-.664 7.858 7.858 0 0 0-1.814-.2c-.678 0-1.261.097-1.748.288-.486.192-.862.465-1.128.819-.251.34-.376.745-.376 1.217 0 .53.177.958.531 1.283.354.31.959.553 1.814.73l2.412.509c1.46.31 2.544.796 3.252 1.46.722.664 1.084 1.549 1.084 2.655 0 .708-.148 1.349-.443 1.924a4.09 4.09 0 0 1-1.239 1.483c-.531.413-1.172.73-1.924.951-.752.221-1.601.332-2.544.332zm13.433-.044c-.457 0-.811-.126-1.062-.376-.236-.266-.354-.627-.354-1.084V90.159h-4.314c-.383 0-.686-.103-.907-.31-.206-.221-.31-.516-.31-.885 0-.383.104-.67.31-.863.221-.206.524-.31.907-.31h11.46c.384 0 .679.104.885.31.221.192.332.48.332.863 0 .369-.111.664-.332.885-.206.207-.501.31-.885.31h-4.314v11.947c0 .457-.118.818-.354 1.084-.236.25-.59.376-1.062.376zm6.99 0c-.354 0-.641-.081-.862-.244a.991.991 0 0 1-.376-.641c-.045-.281.007-.59.154-.929l5.841-12.943c.192-.427.42-.73.686-.907.28-.192.597-.287.951-.287.339 0 .642.096.907.287.28.177.516.48.708.907l5.863 12.943c.162.339.221.648.177.929a1.01 1.01 0 0 1-.376.663c-.207.148-.48.222-.819.222-.413 0-.737-.096-.973-.288-.221-.206-.421-.516-.598-.929l-1.438-3.34 1.195.773h-9.336l1.195-.774-1.416 3.341c-.192.428-.391.737-.598.929-.206.192-.501.288-.885.288zm6.35-12.7l-3.097 7.368-.576-.708h7.39l-.553.708-3.12-7.367h-.044zm17.134 12.744c-1.725 0-3.185-.325-4.38-.974a6.498 6.498 0 0 1-2.699-2.765c-.62-1.195-.929-2.61-.929-4.248 0-1.239.177-2.352.531-3.34.368-.989.892-1.83 1.57-2.522a6.81 6.81 0 0 1 2.522-1.615c.989-.384 2.11-.576 3.363-.576.826 0 1.652.104 2.478.31.841.192 1.63.524 2.367.996.251.162.413.361.487.597.089.236.103.48.044.73a1.4 1.4 0 0 1-.332.62 1.064 1.064 0 0 1-.619.331c-.236.045-.502-.014-.796-.177a6.751 6.751 0 0 0-1.704-.708 7.759 7.759 0 0 0-1.925-.22c-1.091 0-2.013.22-2.765.663-.752.428-1.32 1.054-1.704 1.88-.368.826-.553 1.837-.553 3.031 0 1.814.435 3.194 1.306 4.137.87.944 2.16 1.416 3.871 1.416.59 0 1.187-.059 1.792-.177s1.195-.28 1.77-.486l-.553 1.261v-4.713h-2.434c-.368 0-.656-.096-.862-.287-.192-.192-.288-.45-.288-.775 0-.339.096-.597.288-.774.206-.177.494-.265.862-.265h3.651c.368 0 .649.103.84.31.207.191.31.471.31.84v5.376c0 .325-.066.597-.199.819-.118.221-.317.383-.597.486a14.83 14.83 0 0 1-2.235.598c-.84.147-1.666.221-2.478.221zm10.295-.221c-.487 0-.863-.126-1.128-.376-.251-.266-.376-.642-.376-1.129V89.296c0-.487.125-.855.376-1.106.265-.266.641-.398 1.128-.398h7.898c.369 0 .649.096.841.287.206.192.31.465.31.819 0 .368-.104.656-.31.863-.192.191-.472.287-.841.287h-6.681v4.292h6.194c.384 0 .672.096.863.288.192.192.288.472.288.84 0 .37-.096.65-.288.841-.191.192-.479.288-.863.288h-6.194v4.535h6.681c.369 0 .649.096.841.288.206.191.31.472.31.84 0 .369-.104.649-.31.841-.192.192-.472.288-.841.288h-7.898zm-55.296 133.306a9.766 9.766 0 0 1-1.55-.124 8.088 8.088 0 0 1-1.462-.334 6.051 6.051 0 0 1-1.232-.599 1.132 1.132 0 0 1-.529-1.092c.035-.2.112-.37.229-.511a.805.805 0 0 1 .476-.282c.188-.035.393.018.616.159a6.038 6.038 0 0 0 1.638.669 7.6 7.6 0 0 0 1.814.211c.928 0 1.603-.152 2.026-.457.423-.317.634-.723.634-1.216 0-.411-.153-.734-.458-.968-.294-.235-.804-.429-1.532-.582l-1.938-.405c-1.115-.235-1.949-.628-2.501-1.18-.54-.563-.81-1.303-.81-2.219 0-.575.117-1.098.352-1.568.235-.469.564-.874.987-1.215.434-.34.945-.599 1.532-.775a6.56 6.56 0 0 1 1.973-.282 7.47 7.47 0 0 1 2.007.264 5.854 5.854 0 0 1 1.709.775c.188.13.311.288.37.476.07.188.088.376.053.564a.89.89 0 0 1-.247.458.806.806 0 0 1-.493.228c-.188.024-.405-.035-.652-.176a5.04 5.04 0 0 0-1.321-.528 6.234 6.234 0 0 0-1.444-.159c-.54 0-1.004.077-1.392.229-.387.153-.686.37-.898.652-.199.27-.299.593-.299.969 0 .423.141.763.423 1.021.281.247.763.441 1.444.582l1.92.405c1.162.246 2.025.634 2.589 1.162.575.529.863 1.233.863 2.114 0 .563-.118 1.074-.353 1.532a3.257 3.257 0 0 1-.986 1.18c-.423.329-.933.581-1.532.757-.599.177-1.274.265-2.026.265zm7.959-.036c-.364 0-.646-.099-.845-.299-.188-.211-.282-.499-.282-.863v-10.374c0-.376.094-.663.282-.863.199-.2.481-.3.845-.3s.64.1.828.3c.199.2.299.487.299.863v10.374c0 .364-.094.652-.282.863-.188.2-.469.299-.845.299zm7.965 0c-.364 0-.646-.099-.845-.299-.188-.211-.282-.499-.282-.863v-9.511h-3.435c-.305 0-.546-.082-.722-.247-.164-.176-.246-.411-.246-.704 0-.305.082-.534.246-.687.176-.164.417-.247.722-.247h9.124c.305 0 .54.083.704.247.176.153.264.382.264.687 0 .293-.088.528-.264.704-.164.165-.399.247-.704.247h-3.435v9.511c0 .364-.094.652-.282.863-.187.2-.469.299-.845.299zm11.163 0c-.364 0-.646-.099-.845-.299-.188-.211-.282-.499-.282-.863v-9.511h-3.435c-.305 0-.546-.082-.722-.247-.164-.176-.247-.411-.247-.704 0-.305.083-.534.247-.687.176-.164.417-.247.722-.247h9.124c.305 0 .54.083.704.247.176.153.264.382.264.687 0 .293-.088.528-.264.704-.164.165-.399.247-.704.247h-3.435v9.511c0 .364-.094.652-.282.863-.188.2-.469.299-.845.299zm7.945 0c-.364 0-.646-.099-.845-.299-.188-.211-.282-.499-.282-.863v-10.374c0-.376.094-.663.282-.863.199-.2.481-.3.845-.3s.64.1.828.3c.199.2.299.487.299.863v10.374c0 .364-.094.652-.282.863-.187.2-.469.299-.845.299zm4.9 0c-.34 0-.604-.093-.792-.281-.176-.188-.264-.458-.264-.811v-10.479c0-.364.088-.64.264-.828.188-.2.428-.3.722-.3.27 0 .47.053.599.159.141.094.305.258.493.493l6.746 8.754h-.458v-8.331c0-.341.088-.605.264-.793.188-.188.452-.282.793-.282.34 0 .599.094.775.282.176.188.264.452.264.793v10.568c0 .328-.082.587-.247.775-.164.188-.387.281-.669.281-.27 0-.487-.052-.652-.158a2.621 2.621 0 0 1-.511-.511l-6.728-8.754h.441v8.331c0 .353-.088.623-.265.811-.176.188-.434.281-.775.281zm18.09.036c-1.374 0-2.536-.259-3.488-.775a5.185 5.185 0 0 1-2.148-2.202c-.493-.951-.74-2.078-.74-3.382 0-.986.141-1.872.423-2.659a5.645 5.645 0 0 1 1.25-2.008 5.417 5.417 0 0 1 2.008-1.286c.787-.305 1.679-.458 2.677-.458a8.08 8.08 0 0 1 1.973.247 5.925 5.925 0 0 1 1.885.792c.199.13.328.288.387.476.07.188.082.382.035.581a1.121 1.121 0 0 1-.264.493.855.855 0 0 1-.493.265c-.188.035-.399-.012-.634-.141a5.32 5.32 0 0 0-1.356-.564 6.197 6.197 0 0 0-1.533-.176c-.869 0-1.603.176-2.201.528a3.25 3.25 0 0 0-1.357 1.497c-.293.658-.44 1.462-.44 2.413 0 1.445.346 2.543 1.039 3.294.693.752 1.72 1.127 3.083 1.127.469 0 .945-.047 1.426-.141a9.65 9.65 0 0 0 1.409-.387l-.44 1.004v-3.752h-1.938c-.293 0-.522-.076-.686-.229-.153-.152-.229-.358-.229-.616 0-.27.076-.476.229-.617.164-.141.393-.211.686-.211h2.907c.293 0 .516.082.669.247.164.152.247.375.247.669v4.28c0 .258-.053.475-.159.652-.094.176-.252.305-.476.387-.516.188-1.109.346-1.778.476-.67.117-1.327.176-1.973.176zm-51.815 23.964c-.282 0-.511-.064-.687-.193a.795.795 0 0 1-.3-.511c-.035-.223.006-.47.124-.74l4.65-10.303c.152-.341.334-.582.546-.723.223-.152.475-.229.757-.229.27 0 .511.077.722.229.223.141.411.382.564.723l4.667 10.303c.129.27.176.517.141.74a.803.803 0 0 1-.299.528c-.165.118-.382.176-.652.176-.329 0-.587-.076-.775-.229-.176-.164-.335-.41-.476-.739l-1.144-2.66.951.617h-7.433l.951-.617-1.127 2.66c-.153.34-.311.587-.476.739-.164.153-.399.229-.704.229zm5.055-10.109l-2.466 5.865-.458-.564h5.883l-.441.564-2.483-5.865h-.035zm9.055 10.109c-.364 0-.646-.099-.845-.299-.188-.211-.282-.499-.282-.863v-10.251c0-.376.1-.657.299-.845.2-.2.482-.3.846-.3h4.245c1.362 0 2.413.329 3.152.987.74.646 1.11 1.556 1.11 2.73 0 .763-.17 1.421-.511 1.972-.329.552-.81.975-1.444 1.269-.634.293-1.403.44-2.307.44l.158-.264h.581c.482 0 .899.117 1.251.352.364.235.681.605.951 1.11l1.321 2.448c.141.246.205.487.194.722a.82.82 0 0 1-.264.581c-.165.141-.406.211-.723.211-.317 0-.575-.064-.775-.193-.199-.141-.375-.353-.528-.634l-1.779-3.276c-.211-.4-.464-.664-.757-.793-.282-.141-.646-.211-1.092-.211h-1.673v3.945c0 .364-.094.652-.282.863-.188.2-.47.299-.846.299zm1.128-6.781h2.747c.81 0 1.421-.164 1.832-.493.423-.34.634-.845.634-1.514 0-.658-.211-1.151-.634-1.48-.411-.34-1.022-.511-1.832-.511h-2.747v3.998zm11.017 6.641c-.387 0-.687-.1-.898-.3-.2-.211-.299-.511-.299-.898v-10.022c0-.387.099-.681.299-.881.211-.211.511-.317.898-.317h6.288c.294 0 .517.077.669.229.165.153.247.37.247.652 0 .294-.082.523-.247.687-.152.153-.375.229-.669.229h-5.319v3.417h4.932c.305 0 .534.076.687.229.152.152.229.376.229.669 0 .294-.077.517-.229.669-.153.153-.382.229-.687.229h-4.932v3.611h5.319c.294 0 .517.076.669.229.165.153.247.376.247.669 0 .294-.082.517-.247.67-.152.152-.375.229-.669.229h-6.288zm9.212.14c-.282 0-.511-.064-.687-.193a.795.795 0 0 1-.3-.511c-.035-.223.006-.47.124-.74l4.649-10.303c.153-.341.335-.582.546-.723.224-.152.476-.229.758-.229.27 0 .511.077.722.229.223.141.411.382.564.723l4.667 10.303c.129.27.176.517.141.74a.8.8 0 0 1-.3.528c-.164.118-.381.176-.651.176-.329 0-.587-.076-.775-.229-.176-.164-.335-.41-.476-.739l-1.145-2.66.952.617h-7.433l.951-.617-1.127 2.66c-.153.34-.311.587-.476.739-.164.153-.399.229-.704.229zm5.055-10.109l-2.466 5.865-.458-.564h5.883l-.441.564-2.483-5.865h-.035zm-117.615 3.722c0 .226-.05.415-.151.566-.109.143-.268.26-.478.352l-7.372 3.284c-.21.092-.394.117-.554.075a.642.642 0 0 1-.377-.264.824.824 0 0 1-.139-.478c0-.243.055-.423.164-.541.101-.126.256-.231.465-.314l6.907-2.982v.541l-6.919-2.969a1.217 1.217 0 0 1-.453-.327c-.109-.126-.164-.302-.164-.529a.71.71 0 0 1 .139-.452.607.607 0 0 1 .377-.24c.16-.033.344-.004.554.089l7.372 3.283c.21.092.369.21.478.352.101.135.151.319.151.554zm-.101-6.302c0 .277-.071.491-.213.642-.151.143-.365.214-.642.214h-7.158c-.277 0-.487-.071-.629-.214-.151-.151-.227-.365-.227-.642v-4.491c0-.21.055-.369.164-.478.109-.117.264-.176.465-.176.21 0 .373.059.491.176.109.109.163.268.163.478v3.799h2.441v-3.522c0-.218.054-.382.164-.491.109-.109.268-.163.478-.163.209 0 .369.054.478.163.109.109.163.273.163.491v3.522h2.579v-3.799c0-.21.055-.369.164-.478.109-.117.268-.176.478-.176.21 0 .369.059.478.176.109.109.163.268.163.478v4.491zm.101-7.406c0 .244-.067.432-.201.566-.134.126-.327.189-.579.189h-7.485c-.26 0-.457-.063-.592-.189a.678.678 0 0 1-.214-.515c0-.193.038-.336.114-.428.067-.101.184-.218.352-.352l6.253-4.819v.327h-5.951c-.243 0-.432-.063-.566-.188-.134-.135-.202-.323-.202-.567 0-.243.068-.427.202-.553.134-.126.323-.189.566-.189h7.548c.235 0 .42.059.554.176a.604.604 0 0 1 .201.478.857.857 0 0 1-.113.466 1.857 1.857 0 0 1-.365.365l-6.253 4.806v-.315h5.951c.252 0 .445.063.579.189.134.126.201.31.201.553zm-.101-9.511c0 .276-.071.49-.213.641-.151.143-.365.214-.642.214h-7.158c-.277 0-.487-.071-.629-.214-.151-.151-.227-.365-.227-.641v-2.441c0-1.484.382-2.629 1.145-3.434.763-.814 1.858-1.221 3.284-1.221.712 0 1.346.105 1.899.315a3.543 3.543 0 0 1 1.384.906c.377.394.667.88.868 1.459.193.57.289 1.229.289 1.975v2.441zm-1.333-.755v-1.585c0-.52-.063-.969-.189-1.346a2.488 2.488 0 0 0-.578-.957 2.394 2.394 0 0 0-.969-.578 4.507 4.507 0 0 0-1.371-.189c-1.041 0-1.816.256-2.328.767-.512.512-.767 1.279-.767 2.303v1.585h6.202zm1.459-11.948c0 .855-.188 1.606-.566 2.252a3.87 3.87 0 0 1-1.585 1.484c-.688.352-1.493.529-2.415.529-.697 0-1.321-.101-1.875-.302a4.091 4.091 0 0 1-1.434-.856 3.734 3.734 0 0 1-.919-1.346 4.573 4.573 0 0 1-.327-1.761c0-.864.189-1.615.566-2.252a3.792 3.792 0 0 1 1.573-1.485c.679-.352 1.48-.528 2.403-.528.696 0 1.325.101 1.887.302.562.201 1.044.49 1.447.868.402.369.713.818.931 1.346.209.52.314 1.103.314 1.749zm-1.384 0c0-.545-.125-1.007-.377-1.384-.252-.386-.616-.68-1.095-.881-.478-.209-1.048-.314-1.71-.314-1.007 0-1.787.226-2.341.679-.553.445-.83 1.078-.83 1.9 0 .537.126.998.378 1.384.243.385.603.683 1.082.893.469.201 1.04.302 1.711.302.998 0 1.778-.227 2.34-.68.561-.452.842-1.086.842-1.899zm1.359-6.708c0 .26-.071.462-.214.604-.151.134-.356.201-.616.201h-7.322c-.269 0-.47-.071-.604-.213-.143-.143-.214-.344-.214-.604v-3.032c0-.973.235-1.724.705-2.252.461-.529 1.111-.793 1.95-.793.545 0 1.014.122 1.409.365.394.235.696.579.905 1.032.21.453.315 1.002.315 1.648l-.189-.114v-.415c0-.344.084-.641.252-.893.168-.26.432-.486.792-.679l1.749-.944a.938.938 0 0 1 .516-.138.583.583 0 0 1 .415.188c.101.118.151.29.151.516 0 .227-.046.411-.138.554a1.306 1.306 0 0 1-.453.377l-2.34 1.271c-.285.151-.474.331-.566.541-.101.201-.151.461-.151.78v1.195h2.818c.26 0 .465.067.616.201.143.135.214.336.214.604zm-4.843-.805v-1.963c0-.578-.118-1.014-.353-1.308-.243-.302-.604-.453-1.082-.453-.469 0-.822.151-1.056.453-.244.294-.365.73-.365 1.308v1.963h2.856zm144.831 186.244c-.923 0-1.716-.185-2.378-.554a3.815 3.815 0 0 1-1.51-1.585c-.352-.688-.528-1.497-.528-2.428 0-.696.1-1.321.302-1.874.201-.562.49-1.04.868-1.435a3.675 3.675 0 0 1 1.384-.918c.553-.218 1.174-.327 1.862-.327.461 0 .914.059 1.358.176.445.117.835.285 1.17.503a.807.807 0 0 1 .353.403.768.768 0 0 1 .037.453.708.708 0 0 1-.214.365c-.1.1-.23.159-.39.176-.151.008-.318-.046-.503-.164a2.8 2.8 0 0 0-.843-.365 3.795 3.795 0 0 0-.918-.113c-.596 0-1.099.122-1.51.365a2.292 2.292 0 0 0-.931 1.057c-.209.461-.314 1.027-.314 1.698 0 .663.105 1.229.314 1.698.21.47.52.827.931 1.07.411.243.914.365 1.51.365.319 0 .633-.038.943-.114.311-.083.604-.209.881-.377.185-.109.348-.155.491-.138a.582.582 0 0 1 .377.151.665.665 0 0 1 .201.352.745.745 0 0 1-.327.805 3.83 3.83 0 0 1-1.207.566 5.328 5.328 0 0 1-1.409.189zm5.229-.025c-.26 0-.461-.072-.604-.214-.134-.151-.201-.357-.201-.617v-7.41c0-.268.067-.474.201-.616.143-.143.344-.214.604-.214s.457.071.591.214c.143.142.214.348.214.616v2.969h4.567v-2.969c0-.268.067-.474.201-.616.143-.143.344-.214.604-.214s.457.071.592.214c.142.142.213.348.213.616v7.41c0 .26-.071.466-.213.617-.135.142-.332.214-.592.214-.26 0-.461-.072-.604-.214-.134-.151-.201-.357-.201-.617v-3.094h-4.567v3.094c0 .26-.067.466-.201.617-.134.142-.335.214-.604.214zm9.731 0c-.26 0-.462-.072-.604-.214-.134-.151-.202-.357-.202-.617v-7.322c0-.268.072-.469.214-.603.143-.143.344-.214.604-.214h3.032c.973 0 1.724.235 2.252.704.528.461.793 1.111.793 1.95 0 .545-.122 1.015-.365 1.409a2.28 2.28 0 0 1-1.032.906c-.453.21-1.002.315-1.648.315l.113-.189h.416c.343 0 .641.084.893.251.26.168.486.432.679.793l.944 1.749c.1.176.146.348.138.516a.582.582 0 0 1-.189.415c-.117.1-.289.151-.515.151-.227 0-.411-.046-.554-.139a1.278 1.278 0 0 1-.377-.453l-1.271-2.34c-.151-.285-.331-.473-.541-.566-.201-.1-.461-.151-.78-.151h-1.195v2.818c0 .26-.067.466-.202.617-.134.142-.335.214-.603.214zm.805-4.844h1.962c.579 0 1.015-.117 1.309-.352.302-.243.453-.604.453-1.082 0-.47-.151-.822-.453-1.057-.294-.243-.73-.365-1.309-.365h-1.962v2.856zm7.819 4.844c-.26 0-.461-.072-.604-.214-.134-.151-.201-.357-.201-.617v-7.41c0-.268.067-.474.201-.616.143-.143.344-.214.604-.214s.457.071.592.214c.142.142.213.348.213.616v7.41c0 .26-.067.466-.201.617-.134.142-.335.214-.604.214zm5.803.025a7 7 0 0 1-1.107-.088 5.811 5.811 0 0 1-1.044-.239 4.292 4.292 0 0 1-.881-.428.815.815 0 0 1-.378-.78.774.774 0 0 1 .164-.365.57.57 0 0 1 .34-.201c.134-.025.281.012.44.113.369.218.759.378 1.17.478.411.101.843.151 1.296.151.662 0 1.145-.109 1.447-.327.302-.226.453-.516.453-.868a.826.826 0 0 0-.328-.692c-.209-.168-.574-.306-1.094-.415l-1.384-.289c-.797-.168-1.392-.449-1.786-.843-.386-.403-.579-.931-.579-1.586 0-.411.084-.784.251-1.119.168-.336.403-.625.705-.868a3.27 3.27 0 0 1 1.094-.554 4.7 4.7 0 0 1 1.41-.201c.503 0 .981.063 1.434.189.453.125.859.31 1.22.553a.645.645 0 0 1 .264.34.732.732 0 0 1 .038.402.626.626 0 0 1-.176.327.575.575 0 0 1-.352.164c-.135.017-.29-.025-.466-.126a3.57 3.57 0 0 0-.943-.377 4.447 4.447 0 0 0-1.032-.113c-.386 0-.717.054-.994.163a1.43 1.43 0 0 0-.642.466 1.134 1.134 0 0 0-.213.692c0 .301.1.545.302.729.201.176.545.315 1.031.415l1.371.29c.831.176 1.447.453 1.85.83.411.378.616.881.616 1.51a2.371 2.371 0 0 1-.956 1.937 3.267 3.267 0 0 1-1.094.541 5.12 5.12 0 0 1-1.447.189zm7.639-.025c-.26 0-.461-.072-.604-.214-.134-.151-.201-.357-.201-.617v-6.793h-2.453c-.218 0-.39-.059-.516-.176-.118-.126-.176-.294-.176-.504 0-.218.058-.381.176-.49.126-.118.298-.176.516-.176h6.516c.218 0 .386.058.504.176.125.109.188.272.188.49 0 .21-.063.378-.188.504-.118.117-.286.176-.504.176h-2.453v6.793c0 .26-.067.466-.201.617-.134.142-.336.214-.604.214zm5.625 0c-.235 0-.415-.067-.541-.202-.126-.134-.189-.318-.189-.553v-7.561c0-.243.067-.428.201-.554.135-.134.319-.201.554-.201.21 0 .373.042.491.126.125.075.239.21.339.402l3.108 5.75h-.403l3.108-5.75c.1-.192.209-.327.327-.402.117-.084.281-.126.49-.126.235 0 .415.067.541.201.126.126.189.311.189.554v7.561c0 .235-.063.419-.189.553-.117.135-.297.202-.541.202-.235 0-.415-.067-.541-.202-.126-.134-.188-.318-.188-.553v-5.825h.276l-2.642 4.818a1.012 1.012 0 0 1-.264.315.63.63 0 0 1-.377.101.688.688 0 0 1-.39-.101.982.982 0 0 1-.264-.315l-2.668-4.831h.302v5.838c0 .235-.062.419-.188.553-.118.135-.298.202-.541.202zm10.255 0a.807.807 0 0 1-.491-.139.566.566 0 0 1-.213-.365.943.943 0 0 1 .088-.528l3.321-7.36c.109-.243.239-.415.39-.515a.936.936 0 0 1 .541-.164.86.86 0 0 1 .516.164c.159.1.293.272.402.515l3.334 7.36c.092.193.126.369.101.528a.575.575 0 0 1-.214.378.783.783 0 0 1-.465.126c-.235 0-.42-.055-.554-.164-.126-.117-.239-.293-.34-.528l-.817-1.9.679.44h-5.309l.679-.44-.805 1.9c-.109.243-.222.419-.34.528-.117.109-.285.164-.503.164zm3.611-7.222l-1.762 4.19-.327-.403h4.202l-.314.403-1.774-4.19h-.025zm8.622 7.247a7 7 0 0 1-1.107-.088 5.822 5.822 0 0 1-1.045-.239 4.308 4.308 0 0 1-.88-.428.815.815 0 0 1-.378-.78.764.764 0 0 1 .164-.365.57.57 0 0 1 .34-.201c.134-.025.281.012.44.113.369.218.759.378 1.17.478.411.101.843.151 1.296.151.662 0 1.145-.109 1.446-.327.302-.226.453-.516.453-.868a.825.825 0 0 0-.327-.692c-.209-.168-.574-.306-1.094-.415l-1.384-.289c-.797-.168-1.392-.449-1.787-.843-.385-.403-.578-.931-.578-1.586 0-.411.084-.784.251-1.119.168-.336.403-.625.705-.868a3.27 3.27 0 0 1 1.094-.554 4.699 4.699 0 0 1 1.409-.201c.504 0 .982.063 1.435.189.453.125.859.31 1.22.553a.645.645 0 0 1 .264.34c.05.134.063.268.038.402a.626.626 0 0 1-.176.327.578.578 0 0 1-.353.164c-.134.017-.289-.025-.465-.126a3.562 3.562 0 0 0-.944-.377 4.432 4.432 0 0 0-1.031-.113c-.386 0-.717.054-.994.163a1.43 1.43 0 0 0-.642.466 1.135 1.135 0 0 0-.214.692c0 .301.101.545.302.729.202.176.546.315 1.032.415l1.371.29c.831.176 1.447.453 1.85.83.411.378.616.881.616 1.51a2.371 2.371 0 0 1-.956 1.937 3.262 3.262 0 0 1-1.095.541c-.427.126-.91.189-1.446.189zm-50.087 16.874c-.26 0-.461-.071-.604-.214-.142-.151-.214-.356-.214-.616v-7.259c0-.269.067-.47.202-.604.142-.143.343-.214.603-.214.26 0 .458.071.592.214.142.134.214.335.214.604v6.718h3.648c.226 0 .398.058.516.176.126.117.189.285.189.503 0 .218-.063.39-.189.516-.118.117-.29.176-.516.176h-4.441zm7.052.101c-.26 0-.461-.072-.604-.214-.134-.151-.201-.357-.201-.617v-7.41c0-.268.067-.474.201-.616.143-.143.344-.214.604-.214s.457.071.591.214c.143.142.214.348.214.616v7.41c0 .26-.067.466-.201.617-.135.142-.336.214-.604.214zm7.01.025c-.981 0-1.811-.185-2.491-.554a3.707 3.707 0 0 1-1.535-1.572c-.352-.68-.528-1.485-.528-2.416 0-.704.101-1.338.302-1.899a4.05 4.05 0 0 1 .893-1.435 3.877 3.877 0 0 1 1.434-.918c.562-.218 1.2-.327 1.913-.327.469 0 .939.059 1.409.176.478.109.926.298 1.346.566a.634.634 0 0 1 .277.34c.05.134.058.272.025.415a.805.805 0 0 1-.189.352.604.604 0 0 1-.352.189c-.135.025-.285-.008-.453-.101a3.86 3.86 0 0 0-.969-.402 4.401 4.401 0 0 0-1.094-.126c-.621 0-1.145.126-1.573.377-.428.244-.751.6-.969 1.07-.209.469-.314 1.044-.314 1.723 0 1.032.247 1.816.742 2.353.495.537 1.229.805 2.202.805.335 0 .675-.034 1.019-.101a6.89 6.89 0 0 0 1.006-.276l-.314.717v-2.68h-1.384c-.21 0-.374-.055-.491-.164a.593.593 0 0 1-.163-.44c0-.193.054-.34.163-.44.117-.101.281-.151.491-.151h2.076c.209 0 .369.059.478.176.117.109.176.268.176.478v3.057c0 .185-.038.34-.113.466a.604.604 0 0 1-.34.276 8.267 8.267 0 0 1-1.271.34 8.134 8.134 0 0 1-1.409.126zm5.804-.025c-.26 0-.461-.072-.604-.214-.134-.151-.201-.357-.201-.617v-7.41c0-.268.067-.474.201-.616.143-.143.344-.214.604-.214s.457.071.591.214c.143.142.214.348.214.616v2.969h4.567v-2.969c0-.268.067-.474.201-.616.143-.143.344-.214.604-.214s.457.071.591.214c.143.142.214.348.214.616v7.41c0 .26-.071.466-.214.617-.134.142-.331.214-.591.214-.26 0-.461-.072-.604-.214-.134-.151-.201-.357-.201-.617v-3.094h-4.567v3.094c0 .26-.067.466-.201.617-.134.142-.336.214-.604.214zm11.869 0c-.26 0-.461-.072-.604-.214-.134-.151-.201-.357-.201-.617v-6.793h-2.453c-.218 0-.39-.059-.516-.176-.118-.126-.176-.294-.176-.504 0-.218.058-.381.176-.49.126-.118.298-.176.516-.176h6.517c.218 0 .385.058.503.176.126.109.188.272.188.49a.68.68 0 0 1-.188.504c-.118.117-.285.176-.503.176h-2.454v6.793c0 .26-.067.466-.201.617-.134.142-.336.214-.604.214zm-51.367 16.899c-.277 0-.491-.071-.642-.214-.142-.151-.213-.365-.213-.641v-7.159c0-.277.071-.486.213-.629.151-.151.365-.226.642-.226h4.491c.21 0 .369.054.478.163.118.109.177.264.177.466 0 .209-.059.373-.177.49-.109.109-.268.164-.478.164h-3.799v2.441h3.523c.218 0 .381.054.49.163.109.109.164.268.164.478 0 .21-.055.369-.164.478-.109.109-.272.164-.49.164h-3.523v2.579h3.799c.21 0 .369.054.478.163.118.109.177.269.177.478 0 .21-.059.369-.177.479-.109.109-.268.163-.478.163h-4.491zm6.892.101a.792.792 0 0 1-.516-.164.69.69 0 0 1-.239-.428c-.017-.176.042-.352.176-.528l2.881-3.837v.692l-2.743-3.674c-.134-.184-.192-.36-.176-.528a.606.606 0 0 1 .227-.428.738.738 0 0 1 .503-.176.77.77 0 0 1 .44.126c.135.075.269.205.403.39l2.264 3.12h-.515l2.252-3.12c.134-.185.264-.315.39-.39a.857.857 0 0 1 .465-.126c.21 0 .382.055.516.164.134.109.21.251.226.427.017.168-.046.348-.188.541l-2.743 3.674v-.692l2.868 3.837c.135.176.193.352.177.528a.639.639 0 0 1-.227.428c-.134.109-.31.164-.528.164a.817.817 0 0 1-.441-.126 1.81 1.81 0 0 1-.402-.403l-2.391-3.271h.554l-2.378 3.271a1.514 1.514 0 0 1-.402.403.838.838 0 0 1-.453.126zm8.956 0c-.26 0-.462-.072-.604-.214-.134-.151-.201-.357-.201-.617v-7.322c0-.268.071-.469.213-.603.143-.143.344-.214.604-.214h3.032c.973 0 1.724.243 2.252.729.529.487.793 1.166.793 2.038 0 .873-.264 1.556-.793 2.051-.528.487-1.279.73-2.252.73h-2.239v2.591c0 .26-.067.466-.201.617-.135.142-.336.214-.604.214zm.805-4.693h1.988c.57 0 1.002-.126 1.295-.377.294-.26.441-.638.441-1.133 0-.494-.147-.868-.441-1.119-.293-.252-.725-.378-1.295-.378h-1.988v3.007zm7.452 4.592c-.277 0-.491-.071-.642-.214-.142-.151-.214-.365-.214-.641v-7.159c0-.277.072-.486.214-.629.151-.151.365-.226.642-.226h4.491c.21 0 .369.054.478.163.118.109.176.264.176.466 0 .209-.058.373-.176.49-.109.109-.268.164-.478.164h-3.799v2.441h3.523c.218 0 .381.054.49.163.109.109.164.268.164.478 0 .21-.055.369-.164.478-.109.109-.272.164-.49.164h-3.523v2.579h3.799c.21 0 .369.054.478.163.118.109.176.269.176.478 0 .21-.058.369-.176.479-.109.109-.268.163-.478.163h-4.491zm7.456.101c-.26 0-.461-.072-.604-.214-.134-.151-.201-.357-.201-.617v-7.322c0-.268.071-.469.214-.603.143-.143.344-.214.604-.214h3.032c.973 0 1.723.235 2.252.704.528.461.792 1.111.792 1.95 0 .545-.121 1.015-.364 1.409a2.28 2.28 0 0 1-1.032.906c-.453.21-1.002.315-1.648.315l.113-.189h.415c.344 0 .642.084.893.251.26.168.487.432.68.793l.943 1.749a.94.94 0 0 1 .139.516.59.59 0 0 1-.189.415c-.117.1-.289.151-.516.151-.226 0-.411-.046-.553-.139a1.28 1.28 0 0 1-.378-.453l-1.27-2.34c-.151-.285-.332-.473-.541-.566-.202-.1-.462-.151-.78-.151h-1.196v2.818c0 .26-.067.466-.201.617-.134.142-.335.214-.604.214zm.805-4.844h1.963c.579 0 1.015-.117 1.308-.352.302-.243.453-.604.453-1.082 0-.47-.151-.822-.453-1.057-.293-.243-.729-.365-1.308-.365h-1.963v2.856zm7.82 4.844c-.26 0-.461-.072-.604-.214-.134-.151-.201-.357-.201-.617v-7.41c0-.268.067-.474.201-.616.143-.143.344-.214.604-.214s.457.071.591.214c.143.142.214.348.214.616v7.41c0 .26-.067.466-.201.617-.134.142-.336.214-.604.214zm3.601-.101c-.277 0-.491-.071-.642-.214-.142-.151-.214-.365-.214-.641v-7.159c0-.277.072-.486.214-.629.151-.151.365-.226.642-.226h4.491c.21 0 .369.054.478.163.118.109.176.264.176.466 0 .209-.058.373-.176.49-.109.109-.268.164-.478.164h-3.799v2.441h3.522c.219 0 .382.054.491.163.109.109.164.268.164.478 0 .21-.055.369-.164.478-.109.109-.272.164-.491.164h-3.522v2.579h3.799c.21 0 .369.054.478.163.118.109.176.269.176.478 0 .21-.058.369-.176.479-.109.109-.268.163-.478.163h-4.491zm7.406.101c-.243 0-.432-.067-.566-.202-.126-.134-.189-.327-.189-.578v-7.486c0-.26.063-.457.189-.591a.675.675 0 0 1 .516-.214c.193 0 .335.038.427.113.101.067.218.185.353.353l4.818 6.252h-.327v-5.951c0-.243.063-.431.189-.566.134-.134.323-.201.566-.201.243 0 .428.067.553.201.126.135.189.323.189.566v7.549c0 .235-.059.419-.176.553a.602.602 0 0 1-.478.202.848.848 0 0 1-.466-.114 1.847 1.847 0 0 1-.364-.364l-4.806-6.253h.314v5.951c0 .251-.063.444-.189.578-.125.135-.31.202-.553.202zm12.783.025c-.923 0-1.716-.185-2.378-.554a3.815 3.815 0 0 1-1.51-1.585c-.352-.688-.528-1.497-.528-2.428 0-.696.1-1.321.302-1.874.201-.562.49-1.04.868-1.435a3.675 3.675 0 0 1 1.384-.918c.553-.218 1.174-.327 1.862-.327.461 0 .914.059 1.358.176.445.117.835.285 1.17.503a.807.807 0 0 1 .353.403.768.768 0 0 1 .037.453.708.708 0 0 1-.214.365c-.1.1-.23.159-.39.176-.151.008-.318-.046-.503-.164a2.8 2.8 0 0 0-.843-.365 3.795 3.795 0 0 0-.918-.113c-.596 0-1.099.122-1.51.365a2.292 2.292 0 0 0-.931 1.057c-.209.461-.314 1.027-.314 1.698 0 .663.105 1.229.314 1.698.21.47.52.827.931 1.07.411.243.914.365 1.51.365.319 0 .633-.038.943-.114.311-.083.604-.209.881-.377.185-.109.348-.155.491-.138a.582.582 0 0 1 .377.151.665.665 0 0 1 .201.352.745.745 0 0 1-.327.805 3.83 3.83 0 0 1-1.207.566 5.328 5.328 0 0 1-1.409.189zm5.28-.126c-.277 0-.491-.071-.642-.214-.143-.151-.214-.365-.214-.641v-7.159c0-.277.071-.486.214-.629.151-.151.365-.226.642-.226h4.491c.21 0 .369.054.478.163.117.109.176.264.176.466 0 .209-.059.373-.176.49-.109.109-.268.164-.478.164h-3.8v2.441h3.523c.218 0 .382.054.491.163.109.109.163.268.163.478 0 .21-.054.369-.163.478-.109.109-.273.164-.491.164h-3.523v2.579h3.8c.21 0 .369.054.478.163.117.109.176.269.176.478 0 .21-.059.369-.176.479-.109.109-.268.163-.478.163h-4.491zM363.066 33.598c-.208 0-.369-.057-.483-.171-.107-.12-.161-.285-.161-.493v-5.938c0-.215.054-.376.161-.483.114-.114.275-.172.483-.172.208 0 .366.058.473.172.114.107.171.268.171.483v2.566h.02l2.889-2.898c.107-.108.215-.188.322-.242a.798.798 0 0 1 .362-.08c.195 0 .333.05.413.15a.42.42 0 0 1 .101.353.608.608 0 0 1-.192.372l-2.938 2.909.01-.584 3.069 3.12c.141.134.215.275.222.423a.475.475 0 0 1-.141.372c-.094.094-.235.141-.423.141a.692.692 0 0 1-.392-.1 2.724 2.724 0 0 1-.332-.292l-2.97-2.97h-.02v2.698c0 .208-.053.372-.161.493-.107.114-.268.171-.483.171zm6.694 0c-.208 0-.369-.057-.484-.171-.107-.12-.161-.285-.161-.493v-5.928c0-.215.054-.38.161-.493.115-.114.276-.172.484-.172.208 0 .365.058.473.172.114.114.171.278.171.493v5.928c0 .208-.054.372-.161.493-.108.114-.269.171-.483.171zm2.88-.08c-.221 0-.392-.057-.513-.172-.114-.12-.171-.291-.171-.513v-5.727c0-.221.057-.389.171-.503.121-.12.292-.181.513-.181h1.953c1.187 0 2.103.305 2.747.916.651.61.977 1.486.977 2.627 0 .57-.084 1.077-.252 1.52a2.83 2.83 0 0 1-.725 1.107 3.157 3.157 0 0 1-1.167.694c-.456.154-.983.232-1.58.232h-1.953zm.604-1.067h1.268c.416 0 .775-.05 1.077-.151a1.98 1.98 0 0 0 .765-.463c.208-.208.362-.466.463-.775.101-.316.151-.681.151-1.097 0-.832-.205-1.453-.614-1.862-.409-.41-1.023-.614-1.842-.614h-1.268v4.962zm8.824 1.167a5.65 5.65 0 0 1-.886-.07 4.608 4.608 0 0 1-.835-.192 3.43 3.43 0 0 1-.705-.342.653.653 0 0 1-.302-.624.622.622 0 0 1 .131-.291.46.46 0 0 1 .272-.162c.107-.02.225.01.352.091.296.175.608.302.936.383.329.08.675.12 1.037.12.53 0 .916-.087 1.157-.261.242-.182.363-.413.363-.695a.659.659 0 0 0-.262-.553c-.168-.135-.46-.245-.876-.333l-1.107-.231c-.637-.134-1.113-.359-1.429-.674-.308-.322-.463-.745-.463-1.268a1.977 1.977 0 0 1 .765-1.59c.248-.195.54-.343.876-.444a3.752 3.752 0 0 1 1.127-.16c.403 0 .785.05 1.147.15.363.101.688.249.977.443a.518.518 0 0 1 .211.272c.04.107.05.215.03.322a.5.5 0 0 1-.141.262.463.463 0 0 1-.282.13c-.107.014-.231-.02-.372-.1a2.86 2.86 0 0 0-.755-.302c-.255-.06-.53-.09-.825-.09a2.17 2.17 0 0 0-.795.13 1.148 1.148 0 0 0-.514.373.906.906 0 0 0-.171.553c0 .242.081.436.242.584.161.14.436.252.825.332l1.097.232c.665.14 1.158.362 1.48.664.329.302.493.704.493 1.207 0 .323-.067.614-.201.876a1.874 1.874 0 0 1-.564.675 2.608 2.608 0 0 1-.876.432 4.1 4.1 0 0 1-1.157.151zm-41.967 13.98c-.208 0-.369-.057-.483-.171-.107-.12-.161-.285-.161-.493v-5.858c0-.215.057-.376.171-.483.114-.114.276-.171.484-.171h2.425c.778 0 1.379.195 1.802.584.422.389.634.932.634 1.63 0 .698-.212 1.245-.634 1.64-.423.39-1.024.584-1.802.584h-1.791v2.074c0 .208-.054.372-.161.493-.108.114-.269.171-.484.171zm.645-3.754h1.59c.456 0 .802-.1 1.036-.302.235-.208.353-.51.353-.906s-.118-.694-.353-.896c-.234-.2-.58-.301-1.036-.301h-1.59v2.405zm5.931 3.674c-.208 0-.369-.057-.483-.172-.114-.12-.171-.285-.171-.493v-5.807c0-.215.054-.376.161-.483.114-.114.275-.171.483-.171.208 0 .366.057.473.171.114.107.171.268.171.483v5.374h2.919c.181 0 .319.047.413.141.1.094.151.229.151.403a.56.56 0 0 1-.151.413c-.094.094-.232.14-.413.14h-3.553zm4.92.08a.647.647 0 0 1-.392-.11.452.452 0 0 1-.171-.292.763.763 0 0 1 .07-.423l2.657-5.888c.088-.195.192-.332.312-.413a.75.75 0 0 1 .433-.13.69.69 0 0 1 .413.13c.127.08.235.218.322.413l2.667 5.888a.71.71 0 0 1 .08.422.459.459 0 0 1-.171.302.627.627 0 0 1-.372.101c-.188 0-.336-.044-.443-.13a1.246 1.246 0 0 1-.272-.424l-.654-1.52.544.353h-4.248l.544-.352-.644 1.52a1.308 1.308 0 0 1-.272.422c-.094.087-.228.131-.403.131zm2.889-5.777l-1.409 3.352-.262-.323h3.362l-.252.322-1.419-3.351h-.02zm6.207 5.777c-.208 0-.369-.057-.483-.171-.108-.12-.161-.288-.161-.503v-3.06l.272.775-2.426-3.412a.59.59 0 0 1-.121-.382.54.54 0 0 1 .171-.352c.101-.101.242-.151.423-.151.134 0 .255.033.362.1.114.067.222.171.322.312l1.802 2.557h-.282l1.812-2.557c.107-.147.211-.251.312-.312.1-.067.225-.1.372-.1.175 0 .309.047.403.14.1.088.151.198.151.333a.701.701 0 0 1-.141.422l-2.406 3.402.262-.775v3.06c0 .45-.215.674-.644.674zm6.866.02c-.785 0-1.449-.147-1.993-.443a2.961 2.961 0 0 1-1.228-1.258c-.282-.543-.422-1.187-.422-1.932 0-.564.08-1.07.241-1.52a3.23 3.23 0 0 1 .715-1.147 3.086 3.086 0 0 1 1.147-.735c.45-.174.96-.262 1.53-.262.376 0 .751.047 1.127.141.383.087.741.238 1.077.453a.501.501 0 0 1 .221.272.561.561 0 0 1 .021.332.65.65 0 0 1-.151.282.487.487 0 0 1-.282.15c-.108.021-.228-.006-.363-.08a3.061 3.061 0 0 0-.775-.322 3.519 3.519 0 0 0-.875-.1c-.497 0-.916.1-1.258.302a1.85 1.85 0 0 0-.775.855c-.168.376-.252.835-.252 1.379 0 .825.198 1.453.594 1.882.396.43.983.644 1.761.644.269 0 .54-.027.816-.08a5.54 5.54 0 0 0 .805-.222l-.252.574v-2.144h-1.107a.561.561 0 0 1-.393-.13.477.477 0 0 1-.13-.353c0-.154.043-.272.13-.352a.588.588 0 0 1 .393-.121h1.661c.167 0 .295.047.382.14.094.088.141.216.141.383v2.446c0 .148-.03.272-.091.372a.477.477 0 0 1-.271.222 6.716 6.716 0 0 1-1.017.272c-.382.067-.758.1-1.127.1zm4.643-.02c-.208 0-.369-.057-.483-.171-.107-.12-.161-.285-.161-.493v-5.858c0-.215.057-.376.171-.483.114-.114.275-.171.483-.171h2.426c.778 0 1.378.188 1.801.564.423.369.634.889.634 1.56 0 .436-.097.812-.292 1.127a1.822 1.822 0 0 1-.825.725c-.362.167-.802.251-1.318.251l.09-.15h.332c.275 0 .514.066.715.2.208.135.389.346.543.635l.755 1.398a.747.747 0 0 1 .111.413.468.468 0 0 1-.151.332c-.094.08-.232.121-.413.121a.805.805 0 0 1-.443-.11 1.033 1.033 0 0 1-.301-.363l-1.017-1.872c-.121-.228-.265-.38-.433-.453-.161-.08-.369-.12-.624-.12h-.956v2.254c0 .208-.054.372-.161.493-.107.114-.268.171-.483.171zm.644-3.875h1.57c.463 0 .812-.094 1.047-.282.241-.194.362-.483.362-.865 0-.376-.121-.658-.362-.846-.235-.194-.584-.291-1.047-.291h-1.57v2.284zm8.743 3.895c-.685 0-1.285-.15-1.802-.453a3.089 3.089 0 0 1-1.187-1.268c-.282-.55-.423-1.194-.423-1.932 0-.557.08-1.057.242-1.5a3.26 3.26 0 0 1 .684-1.147 2.99 2.99 0 0 1 1.077-.735 3.66 3.66 0 0 1 1.409-.262c.691 0 1.291.151 1.801.453.51.295.906.715 1.188 1.258.282.544.423 1.185.423 1.923 0 .557-.081 1.06-.242 1.51a3.292 3.292 0 0 1-.694 1.157c-.295.322-.654.57-1.077.745a3.713 3.713 0 0 1-1.399.251zm0-1.107c.436 0 .805-.1 1.107-.302.309-.201.543-.493.704-.875.168-.383.252-.84.252-1.37 0-.804-.181-1.428-.543-1.871-.356-.443-.863-.665-1.52-.665-.43 0-.799.101-1.107.302-.309.195-.547.484-.715.866-.161.376-.241.832-.241 1.369 0 .798.181 1.422.543 1.872.362.45.869.674 1.52.674zm7.671 1.107c-.49 0-.923-.064-1.299-.191a2.482 2.482 0 0 1-.936-.564 2.4 2.4 0 0 1-.573-.946 4.057 4.057 0 0 1-.192-1.308v-3.613c0-.222.054-.386.161-.493.114-.108.276-.161.484-.161.208 0 .365.053.473.16.114.108.171.272.171.494v3.603c0 .637.144 1.117.432 1.44.296.314.722.472 1.279.472.557 0 .979-.158 1.268-.473.288-.322.433-.802.433-1.44v-3.602c0-.222.053-.386.161-.493.114-.108.275-.161.483-.161.201 0 .355.053.463.16.114.108.171.272.171.494v3.613c0 .657-.114 1.211-.342 1.66-.222.45-.554.789-.997 1.017-.443.221-.99.332-1.64.332zm5.085-.02c-.195 0-.345-.054-.453-.16-.1-.108-.151-.263-.151-.464v-5.988c0-.208.051-.366.151-.473a.543.543 0 0 1 .413-.171c.154 0 .268.03.342.09.081.054.174.148.282.282l3.855 5.002h-.262v-4.76c0-.195.05-.346.151-.453.107-.108.258-.161.453-.161.194 0 .342.053.443.16.1.108.151.259.151.453v6.04c0 .187-.047.335-.141.442a.484.484 0 0 1-.383.161.68.68 0 0 1-.372-.09 1.479 1.479 0 0 1-.292-.292l-3.845-5.002h.252v4.76c0 .201-.05.356-.151.463-.101.107-.248.161-.443.161zm7.609-.08c-.221 0-.392-.057-.513-.172-.114-.12-.171-.291-.171-.513v-5.727c0-.221.057-.389.171-.503.121-.12.292-.181.513-.181h1.953c1.188 0 2.103.305 2.748.916.65.61.976 1.486.976 2.627 0 .57-.084 1.077-.252 1.52a2.84 2.84 0 0 1-.724 1.107 3.17 3.17 0 0 1-1.168.694c-.456.154-.983.232-1.58.232h-1.953zm.604-1.067h1.268c.416 0 .775-.05 1.077-.151a1.98 1.98 0 0 0 .765-.463c.208-.208.363-.467.463-.775.101-.316.151-.681.151-1.097 0-.832-.205-1.453-.614-1.862-.409-.41-1.023-.614-1.842-.614h-1.268v4.962z" fill="#fff"/><path d="M416.82 548.158c-.312 0-.554-.086-.725-.257-.161-.181-.241-.428-.241-.74v-8.786c0-.322.085-.564.256-.725.171-.171.413-.256.725-.256h3.638c1.168 0 2.068.292 2.703.875.634.584.951 1.399.951 2.446 0 1.047-.317 1.867-.951 2.461-.635.584-1.535.876-2.703.876h-2.687v3.109c0 .312-.081.559-.242.74-.161.171-.402.257-.724.257zm.966-5.631h2.385c.685 0 1.203-.151 1.555-.453.352-.312.529-.765.529-1.359s-.177-1.042-.529-1.343c-.352-.302-.87-.453-1.555-.453h-2.385v3.608zm12.613 5.661c-1.027 0-1.928-.226-2.703-.679a4.652 4.652 0 0 1-1.781-1.902c-.423-.826-.634-1.792-.634-2.899 0-.835.121-1.585.362-2.25a4.906 4.906 0 0 1 1.027-1.721 4.49 4.49 0 0 1 1.615-1.102c.634-.261 1.339-.392 2.114-.392 1.036 0 1.937.226 2.702.679a4.549 4.549 0 0 1 1.782 1.887c.422.816.634 1.777.634 2.884 0 .835-.121 1.59-.363 2.264a4.919 4.919 0 0 1-1.041 1.736 4.474 4.474 0 0 1-1.616 1.118c-.624.251-1.323.377-2.098.377zm0-1.661c.654 0 1.208-.151 1.66-.452.463-.302.816-.74 1.057-1.314.252-.574.378-1.258.378-2.053 0-1.208-.272-2.144-.816-2.808-.533-.664-1.293-.996-2.279-.996-.644 0-1.198.15-1.661.452-.463.292-.82.725-1.072 1.299-.241.563-.362 1.248-.362 2.053 0 1.198.272 2.134.815 2.808.544.674 1.304 1.011 2.28 1.011zm8.064 1.51c-.312 0-.554-.085-.725-.257-.171-.181-.256-.427-.256-.739v-8.711c0-.322.08-.564.241-.725.171-.171.413-.256.725-.256s.548.085.709.256c.171.161.257.403.257.725v8.062h4.378c.272 0 .478.07.619.211.151.141.226.342.226.604 0 .261-.075.468-.226.619-.141.141-.347.211-.619.211h-5.329zm11.691.151c-1.026 0-1.927-.226-2.702-.679a4.64 4.64 0 0 1-1.781-1.902c-.423-.826-.634-1.792-.634-2.899 0-.835.12-1.585.362-2.25a4.891 4.891 0 0 1 1.027-1.721c.452-.483.991-.85 1.615-1.102.634-.261 1.338-.392 2.113-.392 1.037 0 1.938.226 2.703.679a4.54 4.54 0 0 1 1.781 1.887c.423.816.634 1.777.634 2.884 0 .835-.12 1.59-.362 2.264a4.936 4.936 0 0 1-1.042 1.736 4.47 4.47 0 0 1-1.615 1.118c-.624.251-1.324.377-2.099.377zm0-1.661c.655 0 1.208-.151 1.661-.452.463-.302.815-.74 1.057-1.314.251-.574.377-1.258.377-2.053 0-1.208-.271-2.144-.815-2.808-.533-.664-1.293-.996-2.28-.996-.644 0-1.197.15-1.66.452-.463.292-.82.725-1.072 1.299-.242.563-.362 1.248-.362 2.053 0 1.198.271 2.134.815 2.808.543.674 1.303 1.011 2.279 1.011zm16.134 1.661c-1.108 0-2.059-.221-2.854-.664a4.582 4.582 0 0 1-1.811-1.902c-.423-.826-.634-1.797-.634-2.914 0-.835.12-1.585.362-2.25a4.778 4.778 0 0 1 1.042-1.721 4.407 4.407 0 0 1 1.66-1.102c.665-.261 1.409-.392 2.235-.392.553 0 1.097.07 1.63.211a4.816 4.816 0 0 1 1.404.604c.211.131.352.292.423.483.07.181.085.363.045.544a.841.841 0 0 1-.257.437.745.745 0 0 1-.468.212c-.181.01-.382-.056-.603-.196a3.328 3.328 0 0 0-1.012-.438 4.507 4.507 0 0 0-1.102-.136c-.715 0-1.318.146-1.812.438a2.754 2.754 0 0 0-1.117 1.268c-.251.553-.377 1.233-.377 2.038 0 .795.126 1.474.377 2.038.252.564.624.991 1.117 1.283.494.292 1.097.438 1.812.438.382 0 .76-.045 1.132-.136.373-.1.725-.251 1.057-.453.221-.131.418-.186.589-.166a.71.71 0 0 1 .453.181c.12.111.201.252.241.423a.9.9 0 0 1-.03.513.957.957 0 0 1-.362.453 4.6 4.6 0 0 1-1.45.68 6.39 6.39 0 0 1-1.69.226zm6.29-.151c-.312 0-.553-.085-.724-.257-.171-.181-.257-.427-.257-.739v-8.711c0-.322.08-.564.242-.725.171-.171.412-.256.724-.256s.549.085.71.256c.171.161.256.403.256.725v8.062h4.378c.272 0 .479.07.619.211.151.141.227.342.227.604 0 .261-.076.468-.227.619-.14.141-.347.211-.619.211h-5.329zm11.492.151c-.735 0-1.384-.096-1.947-.287a3.715 3.715 0 0 1-1.404-.845 3.612 3.612 0 0 1-.861-1.419c-.191-.564-.287-1.218-.287-1.963v-5.42c0-.332.081-.578.242-.739.171-.161.412-.242.724-.242s.549.081.71.242c.171.161.257.407.257.739v5.405c0 .956.216 1.676.649 2.159.443.473 1.082.709 1.917.709s1.469-.236 1.902-.709c.433-.483.649-1.203.649-2.159v-5.405c0-.332.081-.578.242-.739.171-.161.413-.242.725-.242.302 0 .533.081.694.242.171.161.257.407.257.739v5.42c0 .986-.171 1.817-.514 2.491a3.324 3.324 0 0 1-1.494 1.525c-.664.332-1.485.498-2.461.498zm7.749-.151c-.332 0-.589-.085-.77-.257-.171-.181-.257-.437-.257-.769v-8.591c0-.332.086-.583.257-.754.181-.182.438-.272.77-.272h3.623c.745 0 1.379.111 1.902.332.524.221.921.538 1.193.951.282.413.423.906.423 1.48 0 .644-.186 1.187-.559 1.63-.372.443-.88.74-1.525.891v-.227c.745.111 1.324.393 1.737.846.412.453.619 1.041.619 1.766 0 .946-.323 1.681-.967 2.204-.634.513-1.519.77-2.657.77h-3.789zm.83-1.464h2.718c.684 0 1.187-.131 1.509-.393.323-.272.484-.674.484-1.208 0-.543-.161-.946-.484-1.207-.322-.262-.825-.393-1.509-.393h-2.718v3.201zm0-4.665h2.461c.664 0 1.158-.126 1.48-.378.332-.261.498-.644.498-1.147s-.166-.881-.498-1.132c-.322-.262-.816-.393-1.48-.393h-2.461v3.05zm-83.702 27.25c-.312 0-.554-.086-.725-.257-.161-.181-.241-.428-.241-.74v-8.786c0-.322.085-.564.256-.725.171-.171.413-.256.725-.256h3.638c1.168 0 2.069.282 2.703.845.634.554.951 1.334.951 2.34 0 .654-.146 1.218-.438 1.691-.282.473-.694.835-1.238 1.087-.543.252-1.203.378-1.978.378l.136-.227h.498c.413 0 .77.101 1.072.302.312.201.584.518.816.951l1.132 2.099c.121.211.176.417.166.619a.701.701 0 0 1-.227.498c-.14.12-.347.181-.619.181-.271 0-.493-.055-.664-.166a1.557 1.557 0 0 1-.453-.544l-1.524-2.808c-.182-.342-.398-.568-.65-.679-.241-.121-.553-.181-.936-.181h-1.434v3.381c0 .312-.08.559-.241.74-.161.171-.403.257-.725.257zm.966-5.812h2.355c.695 0 1.218-.141 1.57-.423.363-.292.544-.725.544-1.298 0-.564-.181-.987-.544-1.269-.352-.291-.875-.437-1.57-.437h-2.355v3.427zm9.444 5.691c-.332 0-.589-.085-.77-.257-.171-.181-.257-.437-.257-.769v-8.591c0-.332.086-.583.257-.754.181-.182.438-.272.77-.272h5.39c.251 0 .442.065.573.196.141.131.212.317.212.559 0 .251-.071.448-.212.588-.131.131-.322.197-.573.197h-4.56v2.928h4.227c.262 0 .458.066.589.197.131.131.196.322.196.573 0 .252-.065.443-.196.574-.131.131-.327.196-.589.196h-4.227v3.095h4.56c.251 0 .442.066.573.196.141.131.212.323.212.574 0 .252-.071.443-.212.574-.131.131-.322.196-.573.196h-5.39zm11.502.151c-.442 0-.885-.035-1.328-.106a6.93 6.93 0 0 1-1.253-.286 5.113 5.113 0 0 1-1.057-.514.969.969 0 0 1-.377-.438.972.972 0 0 1-.076-.498.925.925 0 0 1 .196-.438.692.692 0 0 1 .408-.241c.161-.03.337.015.528.136.443.261.911.453 1.404.573a6.513 6.513 0 0 0 1.555.182c.796 0 1.374-.131 1.737-.393.362-.272.543-.619.543-1.042 0-.352-.131-.629-.392-.83-.252-.201-.69-.367-1.314-.498l-1.661-.347c-.956-.202-1.67-.539-2.143-1.012-.463-.483-.695-1.117-.695-1.902 0-.493.101-.941.302-1.344.202-.402.483-.749.846-1.041.372-.292.81-.514 1.313-.665a5.627 5.627 0 0 1 1.691-.241c.604 0 1.177.075 1.721.226a4.976 4.976 0 0 1 1.464.665c.161.11.267.246.317.407a.883.883 0 0 1 .046.483.76.76 0 0 1-.212.393.687.687 0 0 1-.422.196c-.161.02-.348-.03-.559-.151a4.324 4.324 0 0 0-1.132-.453 5.398 5.398 0 0 0-1.238-.136c-.463 0-.861.066-1.193.197-.332.13-.589.317-.77.558a1.358 1.358 0 0 0-.256.83c0 .363.12.655.362.876.241.211.654.378 1.238.498l1.645.348c.997.211 1.737.543 2.22.996.493.453.739 1.057.739 1.812 0 .483-.1.92-.302 1.313-.191.392-.473.73-.845 1.011-.362.282-.8.499-1.313.65a6.155 6.155 0 0 1-1.737.226zm9.167-.03c-.312 0-.553-.086-.724-.257-.161-.181-.242-.428-.242-.74v-8.152h-2.944c-.261 0-.468-.07-.619-.211-.141-.151-.211-.352-.211-.604 0-.262.07-.458.211-.589.151-.141.358-.211.619-.211h7.821c.261 0 .463.07.603.211.151.131.227.327.227.589 0 .252-.076.453-.227.604-.14.141-.342.211-.603.211h-2.944v8.152c0 .312-.081.559-.242.74-.161.171-.402.257-.725.257zm4.771 0c-.242 0-.438-.055-.589-.166a.68.68 0 0 1-.257-.438c-.03-.191.005-.403.106-.634l3.985-8.832c.131-.292.287-.498.468-.619.192-.131.408-.196.65-.196.231 0 .437.065.619.196.191.121.352.327.483.619l4 8.832c.111.231.151.443.121.634a.69.69 0 0 1-.257.453c-.14.101-.327.151-.558.151-.282 0-.503-.066-.664-.196-.151-.141-.287-.353-.408-.634l-.981-2.28.815.528h-6.371l.815-.528-.966 2.28c-.131.291-.267.503-.408.634-.14.13-.342.196-.603.196zm4.332-8.666l-2.113 5.028-.393-.484h5.043l-.378.484-2.128-5.028h-.031zm11.146 8.696c-.735 0-1.384-.096-1.948-.287a3.73 3.73 0 0 1-1.404-.845 3.622 3.622 0 0 1-.86-1.419c-.191-.564-.287-1.218-.287-1.963v-5.42c0-.332.08-.578.241-.739.172-.161.413-.242.725-.242s.549.081.71.242c.171.161.256.407.256.739v5.405c0 .956.217 1.676.649 2.159.443.473 1.082.709 1.918.709.835 0 1.469-.236 1.902-.709.433-.483.649-1.203.649-2.159v-5.405c0-.332.081-.578.242-.739.171-.161.412-.242.724-.242.302 0 .534.081.695.242.171.161.256.407.256.739v5.42c0 .986-.171 1.817-.513 2.491a3.324 3.324 0 0 1-1.494 1.525c-.665.332-1.485.498-2.461.498zm7.688-.03c-.312 0-.553-.086-.724-.257-.161-.181-.242-.428-.242-.74v-8.786c0-.322.086-.564.257-.725.171-.171.412-.256.724-.256h3.639c1.167 0 2.068.282 2.702.845.634.554.951 1.334.951 2.34 0 .654-.146 1.218-.438 1.691-.281.473-.694.835-1.238 1.087-.543.252-1.202.378-1.977.378l.136-.227h.498c.412 0 .77.101 1.072.302.312.201.583.518.815.951l1.132 2.099c.121.211.176.417.166.619a.7.7 0 0 1-.226.498c-.141.12-.347.181-.619.181s-.493-.055-.664-.166a1.546 1.546 0 0 1-.453-.544l-1.525-2.808c-.181-.342-.398-.568-.649-.679-.242-.121-.554-.181-.936-.181h-1.434v3.381c0 .312-.081.559-.242.74-.161.171-.403.257-.725.257zm.967-5.812h2.355c.694 0 1.217-.141 1.57-.423.362-.292.543-.725.543-1.298 0-.564-.181-.987-.543-1.269-.353-.291-.876-.437-1.57-.437h-2.355v3.427zm8.331 5.812c-.242 0-.438-.055-.589-.166a.684.684 0 0 1-.257-.438c-.03-.191.005-.403.106-.634l3.986-8.832c.13-.292.286-.498.468-.619a1.12 1.12 0 0 1 .649-.196c.231 0 .438.065.619.196.191.121.352.327.483.619l4 8.832c.111.231.151.443.121.634a.689.689 0 0 1-.256.453c-.141.101-.327.151-.559.151-.282 0-.503-.066-.664-.196-.151-.141-.287-.353-.408-.634l-.981-2.28.815.528h-6.371l.815-.528-.966 2.28c-.131.291-.266.503-.407.634-.141.13-.343.196-.604.196zm4.333-8.666l-2.114 5.028-.393-.484h5.043l-.378.484-2.128-5.028h-.03zm7.701 8.666c-.292 0-.518-.081-.679-.242-.151-.161-.227-.392-.227-.694v-8.983c0-.312.076-.548.227-.709a.812.812 0 0 1 .619-.257c.231 0 .402.045.513.136.121.08.262.221.423.423l5.782 7.503h-.393v-7.141c0-.292.076-.518.227-.679.161-.161.387-.242.679-.242.292 0 .513.081.664.242.151.161.227.387.227.679v9.058c0 .282-.071.503-.212.664a.722.722 0 0 1-.573.242c-.232 0-.418-.045-.559-.136a2.24 2.24 0 0 1-.438-.438l-5.767-7.503h.378v7.141c0 .302-.076.533-.227.694-.151.161-.372.242-.664.242zm13.92 0c-.312 0-.553-.086-.725-.257-.161-.181-.241-.428-.241-.74v-8.152h-2.944c-.262 0-.468-.07-.619-.211-.141-.151-.211-.352-.211-.604 0-.262.07-.458.211-.589.151-.141.357-.211.619-.211h7.82c.262 0 .463.07.604.211.151.131.227.327.227.589 0 .252-.076.453-.227.604-.141.141-.342.211-.604.211h-2.944v8.152c0 .312-.08.559-.241.74-.161.171-.403.257-.725.257zM257.695 686.94c-.276 0-.49-.071-.641-.213-.143-.151-.214-.365-.214-.642v-7.158c0-.277.071-.487.214-.63.151-.15.365-.226.641-.226h4.492c.209 0 .369.055.478.164.117.109.176.264.176.465 0 .21-.059.373-.176.491-.109.109-.269.163-.478.163h-3.8v2.441h3.523c.218 0 .382.054.491.163.109.109.163.269.163.479 0 .209-.054.369-.163.478-.109.109-.273.163-.491.163h-3.523v2.579h3.8c.209 0 .369.055.478.164.117.109.176.268.176.478 0 .209-.059.369-.176.478-.109.109-.269.163-.478.163h-4.492zm7.406.101c-.243 0-.431-.067-.566-.201-.125-.134-.188-.327-.188-.579v-7.485c0-.26.063-.458.188-.592a.68.68 0 0 1 .516-.214c.193 0 .336.038.428.114.101.067.218.184.352.352l4.819 6.252h-.327v-5.95c0-.243.062-.432.188-.566.134-.135.323-.202.566-.202.244 0 .428.067.554.202.126.134.189.323.189.566v7.548c0 .235-.059.42-.177.554a.601.601 0 0 1-.478.201.854.854 0 0 1-.465-.113 1.857 1.857 0 0 1-.365-.365l-4.806-6.253h.315v5.951c0 .252-.063.445-.189.579-.126.134-.31.201-.554.201zm11.601 0c-.26 0-.462-.071-.604-.214-.135-.151-.202-.356-.202-.616v-6.794h-2.453c-.218 0-.39-.059-.516-.176a.71.71 0 0 1-.176-.503c0-.218.059-.382.176-.491.126-.117.298-.176.516-.176h6.517c.218 0 .386.059.503.176.126.109.189.273.189.491a.68.68 0 0 1-.189.503c-.117.117-.285.176-.503.176h-2.453v6.794c0 .26-.067.465-.202.616-.134.143-.335.214-.603.214zm5.675 0c-.26 0-.462-.071-.604-.214-.134-.151-.202-.356-.202-.616v-7.322c0-.269.072-.47.214-.604.143-.143.344-.214.604-.214h3.032c.973 0 1.724.235 2.252.705.528.461.793 1.111.793 1.95 0 .545-.122 1.014-.365 1.409a2.272 2.272 0 0 1-1.032.905c-.453.21-1.002.315-1.648.315l.113-.189h.416c.343 0 .641.084.893.252.26.168.486.432.679.792l.944 1.749c.1.176.146.348.138.516a.58.58 0 0 1-.189.415c-.117.101-.289.151-.515.151-.227 0-.411-.046-.554-.138a1.296 1.296 0 0 1-.377-.453l-1.271-2.34c-.151-.285-.331-.474-.541-.566-.201-.101-.461-.151-.78-.151h-1.195v2.818c0 .26-.067.465-.202.616-.134.143-.335.214-.603.214zm.805-4.844h1.962c.579 0 1.015-.117 1.309-.352.302-.243.453-.604.453-1.082 0-.469-.151-.822-.453-1.056-.294-.244-.73-.365-1.309-.365h-1.962v2.855zm9.835 4.844c-.26 0-.462-.071-.604-.214-.135-.151-.202-.36-.202-.629v-3.824l.34.968-3.032-4.265a.737.737 0 0 1-.151-.478.67.67 0 0 1 .214-.44c.126-.126.302-.189.528-.189.168 0 .319.042.453.126.143.084.277.214.403.39l2.252 3.196h-.352l2.264-3.196a1.43 1.43 0 0 1 .39-.39.82.82 0 0 1 .466-.126c.218 0 .385.059.503.177a.524.524 0 0 1 .189.415c.008.167-.051.344-.177.528l-3.006 4.252.327-.968v3.824c0 .562-.269.843-.805.843zm-30.38 94.399c-1.292 0-2.401-.259-3.329-.775a5.36 5.36 0 0 1-2.114-2.219c-.493-.963-.739-2.096-.739-3.4 0-.974.141-1.849.422-2.624a5.576 5.576 0 0 1 1.216-2.008 5.142 5.142 0 0 1 1.937-1.286c.775-.305 1.644-.458 2.607-.458.646 0 1.28.083 1.902.247a5.618 5.618 0 0 1 1.638.704c.247.153.411.341.493.564.082.211.1.423.053.634a.993.993 0 0 1-.299.511.878.878 0 0 1-.546.247c-.212.011-.447-.065-.705-.229a3.888 3.888 0 0 0-1.18-.511 5.267 5.267 0 0 0-1.286-.159c-.833 0-1.538.171-2.113.511-.576.341-1.01.834-1.304 1.48-.293.645-.44 1.438-.44 2.377 0 .928.147 1.72.44 2.378.294.658.728 1.157 1.304 1.497.575.341 1.28.511 2.113.511.446 0 .887-.053 1.321-.159a4.732 4.732 0 0 0 1.233-.528c.258-.153.487-.217.687-.194a.819.819 0 0 1 .528.212.942.942 0 0 1 .282.493 1.06 1.06 0 0 1-.035.599c-.07.199-.211.375-.423.528-.469.341-1.033.605-1.691.793a7.462 7.462 0 0 1-1.972.264zm6.059-.035c-.281 0-.51-.065-.687-.194a.794.794 0 0 1-.299-.511c-.035-.223.006-.47.123-.74l4.65-10.303c.153-.341.335-.582.546-.722.223-.153.476-.229.758-.229.27 0 .51.076.722.229.223.14.411.381.563.722l4.668 10.303c.129.27.176.517.141.74a.804.804 0 0 1-.3.528c-.164.118-.381.177-.651.177-.329 0-.588-.077-.775-.229-.177-.165-.335-.411-.476-.74l-1.145-2.66.951.617h-7.432l.951-.617-1.128 2.66c-.152.34-.311.587-.475.74-.165.152-.399.229-.705.229zm5.055-10.11l-2.466 5.865-.457-.564h5.882l-.44.564-2.483-5.865h-.036zm9.056 10.11c-.364 0-.646-.1-.846-.3-.187-.211-.281-.499-.281-.863v-10.251c0-.375.099-.657.299-.845.2-.2.481-.3.845-.3h4.245c1.362 0 2.413.329 3.153.987.74.646 1.11 1.556 1.11 2.73 0 .763-.171 1.421-.511 1.972-.329.552-.81.975-1.444 1.269-.635.293-1.404.44-2.308.44l.159-.264h.581c.481 0 .898.117 1.25.352.364.235.682.605.952 1.11l1.321 2.448c.14.246.205.487.193.722a.81.81 0 0 1-.264.581c-.164.141-.405.212-.722.212-.317 0-.575-.065-.775-.194-.2-.141-.376-.352-.528-.634l-1.779-3.276c-.212-.399-.464-.664-.758-.793-.281-.141-.645-.211-1.092-.211h-1.673v3.945c0 .364-.094.652-.282.863-.188.2-.469.3-.845.3zm1.127-6.781h2.748c.81 0 1.421-.165 1.831-.494.423-.34.635-.845.635-1.514 0-.658-.212-1.151-.635-1.48-.41-.34-1.021-.511-1.831-.511h-2.748v3.999zm15.729 6.781c-.364 0-.646-.1-.845-.3-.188-.211-.282-.499-.282-.863v-10.251c0-.375.1-.657.299-.845.2-.2.482-.3.846-.3h4.244c1.362 0 2.413.341 3.153 1.022.74.681 1.11 1.632 1.11 2.853 0 1.222-.37 2.179-1.11 2.871-.74.681-1.791 1.022-3.153 1.022h-3.135v3.628c0 .364-.094.652-.282.863-.187.2-.469.3-.845.3zm1.127-6.57h2.783c.799 0 1.403-.176 1.814-.528.411-.364.617-.893.617-1.586 0-.692-.206-1.215-.617-1.567-.411-.352-1.015-.529-1.814-.529h-2.783v4.21zm8.069 6.57c-.282 0-.511-.065-.687-.194a.794.794 0 0 1-.299-.511c-.036-.223.005-.47.123-.74l4.65-10.303c.152-.341.334-.582.546-.722.223-.153.475-.229.757-.229.27 0 .511.076.722.229.223.14.411.381.564.722l4.667 10.303c.129.27.176.517.141.74a.803.803 0 0 1-.299.528c-.165.118-.382.177-.652.177-.329 0-.587-.077-.775-.229-.176-.165-.335-.411-.476-.74l-1.144-2.66.951.617h-7.433l.951-.617-1.127 2.66c-.153.34-.311.587-.476.74-.164.152-.399.229-.704.229zm5.055-10.11l-2.466 5.865-.458-.564h5.883l-.441.564-2.483-5.865h-.035zm9.055 10.11c-.364 0-.645-.1-.845-.3-.188-.211-.282-.499-.282-.863v-10.251c0-.375.1-.657.3-.845.199-.2.481-.3.845-.3h4.245c1.362 0 2.413.329 3.152.987.74.646 1.11 1.556 1.11 2.73 0 .763-.17 1.421-.511 1.972-.328.552-.81.975-1.444 1.269-.634.293-1.403.44-2.307.44l.158-.264h.581c.482 0 .899.117 1.251.352.364.235.681.605.951 1.11l1.321 2.448c.141.246.206.487.194.722a.818.818 0 0 1-.264.581c-.165.141-.405.212-.723.212-.317 0-.575-.065-.774-.194-.2-.141-.376-.352-.529-.634l-1.779-3.276c-.211-.399-.464-.664-.757-.793-.282-.141-.646-.211-1.092-.211h-1.673v3.945c0 .364-.094.652-.282.863-.188.2-.47.3-.846.3zm1.128-6.781h2.747c.81 0 1.421-.165 1.832-.494.423-.34.634-.845.634-1.514 0-.658-.211-1.151-.634-1.48-.411-.34-1.022-.511-1.832-.511h-2.747v3.999zm10.947 6.781c-.364 0-.646-.1-.846-.3-.187-.211-.281-.499-.281-.863V769.85c0-.375.094-.657.281-.845.2-.2.482-.299.846-.299s.64.099.828.299c.199.188.299.47.299.845v4.492h.035l5.055-5.073a2.21 2.21 0 0 1 .564-.423 1.41 1.41 0 0 1 .634-.14c.341 0 .581.088.722.264a.731.731 0 0 1 .176.616c-.023.235-.135.452-.334.652l-5.143 5.09.017-1.021 5.372 5.46c.247.234.376.481.388.739a.831.831 0 0 1-.247.652c-.164.164-.411.247-.74.247-.281 0-.51-.059-.687-.177a4.838 4.838 0 0 1-.581-.51l-5.196-5.196h-.035v4.72c0 .364-.094.652-.282.863-.188.2-.469.3-.845.3zm29.479-105.045c-.332 0-.589-.085-.77-.256-.171-.181-.257-.438-.257-.77v-8.59c0-.332.086-.584.257-.755.181-.181.438-.272.77-.272h3.623c.745 0 1.379.111 1.902.332.524.222.921.539 1.193.951.282.413.423.906.423 1.48 0 .644-.187 1.187-.559 1.63-.372.443-.881.74-1.525.891v-.226c.745.11 1.324.392 1.736.845.413.453.619 1.042.619 1.766 0 .946-.322 1.681-.966 2.204-.634.514-1.52.77-2.657.77h-3.789zm.83-1.464h2.717c.685 0 1.188-.131 1.51-.393.322-.271.483-.674.483-1.207 0-.544-.161-.946-.483-1.208-.322-.262-.825-.393-1.51-.393h-2.717v3.201zm0-4.665h2.461c.664 0 1.157-.126 1.479-.377.332-.262.499-.645.499-1.148 0-.503-.167-.88-.499-1.132-.322-.262-.815-.393-1.479-.393h-2.461v3.05zm8.569 6.25c-.242 0-.438-.055-.589-.166a.679.679 0 0 1-.256-.438c-.031-.191.005-.402.105-.634l3.986-8.831c.131-.292.287-.499.468-.619a1.12 1.12 0 0 1 .649-.197c.231 0 .438.066.619.197.191.12.352.327.483.619l4.001 8.831c.11.232.151.443.12.634a.689.689 0 0 1-.256.453c-.141.101-.327.151-.559.151-.282 0-.503-.065-.664-.196-.151-.141-.287-.352-.408-.634l-.981-2.28.815.529h-6.371l.816-.529-.967 2.28c-.13.292-.266.503-.407.634-.141.131-.342.196-.604.196zm4.333-8.665l-2.114 5.027-.392-.483h5.042l-.377.483-2.129-5.027h-.03zm7.762 8.665c-.312 0-.554-.085-.725-.257-.161-.181-.242-.427-.242-.739v-8.787c0-.322.086-.563.257-.724.171-.171.413-.257.725-.257h3.638c1.168 0 2.068.282 2.702.845.635.554.952 1.334.952 2.34 0 .655-.146 1.218-.438 1.691-.282.473-.695.836-1.238 1.087-.544.252-1.203.378-1.978.378l.136-.227h.498c.413 0 .77.101 1.072.302.312.202.584.519.815.951l1.133 2.099c.12.211.176.417.166.619a.701.701 0 0 1-.227.498c-.141.121-.347.181-.619.181s-.493-.055-.664-.166a1.562 1.562 0 0 1-.453-.543l-1.525-2.808c-.181-.343-.397-.569-.649-.68-.241-.121-.553-.181-.936-.181h-1.434v3.382c0 .312-.081.558-.242.739-.161.172-.402.257-.724.257zm.966-5.812h2.355c.694 0 1.218-.141 1.57-.423.362-.292.544-.725.544-1.298 0-.564-.182-.987-.544-1.268-.352-.292-.876-.438-1.57-.438h-2.355v3.427zm9.383 5.812c-.312 0-.553-.085-.724-.257-.161-.181-.242-.427-.242-.739v-8.787c0-.322.086-.563.257-.724.171-.171.412-.257.724-.257h3.639c1.167 0 2.068.282 2.702.845.634.554.951 1.334.951 2.34 0 .655-.146 1.218-.438 1.691-.281.473-.694.836-1.238 1.087-.543.252-1.202.378-1.977.378l.136-.227h.498c.412 0 .77.101 1.072.302.312.202.583.519.815.951l1.132 2.099c.121.211.176.417.166.619a.7.7 0 0 1-.226.498c-.141.121-.347.181-.619.181s-.493-.055-.664-.166a1.54 1.54 0 0 1-.453-.543l-1.525-2.808c-.181-.343-.398-.569-.649-.68-.242-.121-.554-.181-.936-.181h-1.435v3.382c0 .312-.08.558-.241.739-.161.172-.403.257-.725.257zm.966-5.812h2.356c.694 0 1.217-.141 1.57-.423.362-.292.543-.725.543-1.298 0-.564-.181-.987-.543-1.268-.353-.292-.876-.438-1.57-.438h-2.356v3.427zm9.384 5.812c-.312 0-.554-.085-.725-.257-.161-.181-.241-.427-.241-.739v-8.892c0-.322.08-.569.241-.74.171-.171.413-.257.725-.257s.548.086.709.257c.172.171.257.418.257.74v8.892c0 .312-.08.558-.241.739-.161.172-.403.257-.725.257zm8.246.03c-1.107 0-2.058-.221-2.853-.664a4.59 4.59 0 0 1-1.812-1.902c-.422-.825-.634-1.797-.634-2.914 0-.835.121-1.585.363-2.249a4.767 4.767 0 0 1 1.041-1.721 4.407 4.407 0 0 1 1.661-1.102c.664-.262 1.409-.393 2.234-.393.554 0 1.097.071 1.631.211a4.843 4.843 0 0 1 1.404.604c.211.131.352.292.422.483a.92.92 0 0 1 .046.544.854.854 0 0 1-.257.438.754.754 0 0 1-.468.211c-.181.01-.382-.055-.604-.196a3.372 3.372 0 0 0-1.011-.438 4.513 4.513 0 0 0-1.102-.136c-.715 0-1.319.146-1.812.438a2.754 2.754 0 0 0-1.117 1.268c-.252.554-.378 1.233-.378 2.038 0 .795.126 1.475.378 2.038.251.564.624.992 1.117 1.283.493.292 1.097.438 1.812.438.382 0 .759-.045 1.132-.136.372-.1.725-.251 1.057-.453.221-.13.417-.186.588-.166.182.01.333.071.453.182.121.11.202.251.242.422.04.161.03.332-.03.514a.96.96 0 0 1-.363.453 4.604 4.604 0 0 1-1.449.679 6.392 6.392 0 0 1-1.691.226zm5.194-.03c-.241 0-.438-.055-.589-.166a.679.679 0 0 1-.256-.438c-.03-.191.005-.402.105-.634l3.986-8.831c.131-.292.287-.499.468-.619.191-.131.408-.197.649-.197.232 0 .438.066.619.197.191.12.352.327.483.619l4.001 8.831c.111.232.151.443.121.634a.694.694 0 0 1-.257.453c-.141.101-.327.151-.559.151-.281 0-.503-.065-.664-.196-.151-.141-.287-.352-.407-.634l-.982-2.28.815.529h-6.37l.815-.529-.966 2.28c-.131.292-.267.503-.408.634-.141.131-.342.196-.604.196zm4.333-8.665l-2.114 5.027-.392-.483h5.042l-.377.483-2.129-5.027h-.03zm7.822 8.544c-.332 0-.589-.085-.77-.256-.171-.181-.256-.438-.256-.77v-8.59c0-.332.085-.584.256-.755.181-.181.438-.272.77-.272h2.929c1.781 0 3.155.458 4.121 1.374.977.916 1.465 2.229 1.465 3.94 0 .856-.126 1.616-.378 2.28a4.238 4.238 0 0 1-1.087 1.66c-.473.453-1.056.801-1.751 1.042-.684.232-1.474.347-2.37.347h-2.929zm.906-1.6h1.902c.624 0 1.163-.075 1.616-.226a2.973 2.973 0 0 0 1.147-.695 2.87 2.87 0 0 0 .694-1.162c.151-.473.227-1.022.227-1.646 0-1.248-.307-2.179-.921-2.793-.614-.614-1.535-.921-2.763-.921h-1.902v7.443zm10.594 1.6c-.332 0-.589-.085-.77-.256-.171-.181-.257-.438-.257-.77v-8.59c0-.332.086-.584.257-.755.181-.181.438-.272.77-.272h5.389c.252 0 .443.065.574.196.141.131.211.317.211.559 0 .252-.07.448-.211.589-.131.131-.322.196-.574.196h-4.559v2.929h4.227c.262 0 .458.065.589.196.131.131.196.322.196.574 0 .251-.065.443-.196.573-.131.131-.327.197-.589.197h-4.227v3.094h4.559c.252 0 .443.066.574.197.141.131.211.322.211.573 0 .252-.07.443-.211.574-.131.131-.322.196-.574.196h-5.389zm9.008 0c-.332 0-.589-.085-.77-.256-.171-.181-.257-.438-.257-.77v-8.59c0-.332.086-.584.257-.755.181-.181.438-.272.77-.272h2.929c1.781 0 3.155.458 4.121 1.374.976.916 1.464 2.229 1.464 3.94 0 .856-.125 1.616-.377 2.28a4.26 4.26 0 0 1-1.087 1.66c-.473.453-1.057.801-1.751 1.042-.685.232-1.475.347-2.37.347h-2.929zm.906-1.6h1.902c.624 0 1.162-.075 1.615-.226a2.977 2.977 0 0 0 1.148-.695 2.87 2.87 0 0 0 .694-1.162c.151-.473.226-1.022.226-1.646 0-1.248-.307-2.179-.92-2.793-.614-.614-1.535-.921-2.763-.921h-1.902v7.443zm18.617 1.751c-1.107 0-2.058-.221-2.853-.664a4.59 4.59 0 0 1-1.812-1.902c-.423-.825-.634-1.797-.634-2.914 0-.835.121-1.585.362-2.249a4.783 4.783 0 0 1 1.042-1.721 4.407 4.407 0 0 1 1.661-1.102c.664-.262 1.409-.393 2.234-.393.554 0 1.097.071 1.631.211a4.843 4.843 0 0 1 1.404.604c.211.131.352.292.422.483a.92.92 0 0 1 .046.544.854.854 0 0 1-.257.438.754.754 0 0 1-.468.211c-.181.01-.383-.055-.604-.196a3.372 3.372 0 0 0-1.011-.438 4.513 4.513 0 0 0-1.102-.136c-.715 0-1.319.146-1.812.438a2.754 2.754 0 0 0-1.117 1.268c-.252.554-.378 1.233-.378 2.038 0 .795.126 1.475.378 2.038.251.564.624.992 1.117 1.283.493.292 1.097.438 1.812.438.382 0 .759-.045 1.132-.136a4.06 4.06 0 0 0 1.057-.453c.221-.13.417-.186.588-.166.181.01.332.071.453.182.121.11.202.251.242.422.04.161.03.332-.03.514a.966.966 0 0 1-.363.453 4.604 4.604 0 0 1-1.449.679 6.398 6.398 0 0 1-1.691.226zm5.194-.03c-.242 0-.438-.055-.589-.166a.679.679 0 0 1-.256-.438c-.031-.191.005-.402.105-.634l3.986-8.831c.131-.292.287-.499.468-.619a1.12 1.12 0 0 1 .649-.197c.232 0 .438.066.619.197.191.12.352.327.483.619l4.001 8.831c.11.232.151.443.121.634a.694.694 0 0 1-.257.453c-.141.101-.327.151-.559.151-.281 0-.503-.065-.664-.196-.151-.141-.287-.352-.408-.634l-.981-2.28.815.529h-6.371l.816-.529-.966 2.28c-.131.292-.267.503-.408.634-.141.131-.342.196-.604.196zm4.333-8.665l-2.114 5.027-.392-.483h5.042l-.377.483-2.129-5.027h-.03zm7.762 8.665c-.312 0-.554-.085-.725-.257-.161-.181-.241-.427-.241-.739v-8.787c0-.322.085-.563.256-.724.171-.171.413-.257.725-.257h3.638c1.168 0 2.068.282 2.703.845.634.554.951 1.334.951 2.34 0 .655-.146 1.218-.438 1.691-.282.473-.695.836-1.238 1.087-.544.252-1.203.378-1.978.378l.136-.227h.498c.413 0 .77.101 1.072.302.312.202.584.519.815.951l1.133 2.099c.12.211.176.417.166.619a.701.701 0 0 1-.227.498c-.141.121-.347.181-.619.181-.271 0-.493-.055-.664-.166a1.562 1.562 0 0 1-.453-.543l-1.525-2.808c-.181-.343-.397-.569-.649-.68-.241-.121-.553-.181-.936-.181h-1.434v3.382c0 .312-.081.558-.242.739-.161.172-.402.257-.724.257zm.966-5.812h2.355c.695 0 1.218-.141 1.57-.423.362-.292.544-.725.544-1.298 0-.564-.182-.987-.544-1.268-.352-.292-.875-.438-1.57-.438h-2.355v3.427zm13.482 5.812c-.312 0-.554-.085-.725-.257-.161-.181-.241-.427-.241-.739v-8.787c0-.322.085-.563.256-.724.171-.171.413-.257.725-.257h3.638c1.168 0 2.069.292 2.703.876.634.583.951 1.399.951 2.445 0 1.047-.317 1.867-.951 2.461-.634.584-1.535.876-2.703.876h-2.687v3.11c0 .312-.08.558-.241.739-.161.172-.403.257-.725.257zm.966-5.631h2.385c.685 0 1.203-.151 1.555-.453.353-.312.529-.765.529-1.359 0-.593-.176-1.041-.529-1.343-.352-.302-.87-.453-1.555-.453h-2.385v3.608zm6.916 5.631c-.242 0-.438-.055-.589-.166a.679.679 0 0 1-.256-.438c-.031-.191.005-.402.105-.634l3.986-8.831c.131-.292.287-.499.468-.619a1.12 1.12 0 0 1 .649-.197c.232 0 .438.066.619.197.191.12.352.327.483.619l4.001 8.831c.11.232.151.443.121.634a.694.694 0 0 1-.257.453c-.141.101-.327.151-.559.151-.281 0-.503-.065-.664-.196-.151-.141-.287-.352-.408-.634l-.981-2.28.815.529h-6.371l.816-.529-.966 2.28c-.131.292-.267.503-.408.634-.141.131-.342.196-.604.196zm4.333-8.665l-2.114 5.027-.392-.483h5.042l-.377.483-2.129-5.027h-.03zm7.762 8.665c-.312 0-.554-.085-.725-.257-.161-.181-.241-.427-.241-.739v-8.787c0-.322.085-.563.256-.724.171-.171.413-.257.725-.257h3.638c1.168 0 2.068.282 2.703.845.634.554.951 1.334.951 2.34 0 .655-.146 1.218-.438 1.691-.282.473-.695.836-1.238 1.087-.544.252-1.203.378-1.978.378l.136-.227h.498c.413 0 .77.101 1.072.302.312.202.584.519.815.951l1.133 2.099c.12.211.176.417.166.619a.701.701 0 0 1-.227.498c-.141.121-.347.181-.619.181-.271 0-.493-.055-.664-.166a1.562 1.562 0 0 1-.453-.543l-1.525-2.808c-.181-.343-.397-.569-.649-.68-.241-.121-.553-.181-.936-.181h-1.434v3.382c0 .312-.081.558-.242.739-.161.172-.402.257-.724.257zm.966-5.812h2.355c.695 0 1.218-.141 1.57-.423.362-.292.544-.725.544-1.298 0-.564-.182-.987-.544-1.268-.352-.292-.875-.438-1.57-.438h-2.355v3.427zm9.383 5.812c-.312 0-.553-.085-.724-.257-.161-.181-.242-.427-.242-.739v-8.907c0-.322.081-.564.242-.725.171-.171.412-.257.724-.257s.549.086.71.257c.171.161.257.403.257.725v3.849h.03l4.333-4.348c.161-.161.322-.281.483-.362.161-.08.342-.121.543-.121.292 0 .498.076.619.227a.628.628 0 0 1 .151.528.915.915 0 0 1-.287.559l-4.408 4.363.015-.876 4.605 4.68c.211.201.322.413.332.634a.71.71 0 0 1-.212.559c-.141.141-.352.211-.634.211-.241 0-.438-.05-.588-.151a4.095 4.095 0 0 1-.499-.438l-4.453-4.453h-.03v4.046c0 .312-.081.558-.242.739-.161.172-.403.257-.725.257zM284.356 423.234c0 .362-.087.657-.261.885-.175.215-.45.389-.826.524l-11.896 4.207c-.429.147-.792.12-1.087-.081-.295-.215-.443-.57-.443-1.067 0-.362.087-.644.262-.845.161-.201.423-.363.785-.483l10.749-3.624v.806l-10.729-3.785c-.362-.134-.631-.302-.805-.503-.175-.201-.262-.463-.262-.785s.087-.577.262-.765c.174-.188.449-.349.825-.483l10.709-3.663v.704l-10.749-3.684c-.349-.12-.611-.281-.785-.483-.175-.201-.262-.476-.262-.825 0-.429.148-.745.443-.946.295-.201.658-.228 1.087-.081l11.916 4.248c.363.134.631.308.806.523.174.215.261.503.261.866 0 .362-.087.65-.261.865-.175.215-.45.389-.826.524l-9.984 3.502v-.463l10.004 3.543c.363.134.631.308.806.523.174.201.261.483.261.846zm0-16.36c0 .322-.073.584-.221.785a.91.91 0 0 1-.584.343c-.255.04-.537-.007-.845-.141l-11.776-5.314c-.389-.175-.664-.383-.825-.624a1.495 1.495 0 0 1-.262-.866c0-.309.087-.584.262-.825.161-.255.436-.47.825-.644l11.776-5.335c.308-.147.59-.201.845-.161a.924.924 0 0 1 .604.343c.134.187.201.436.201.744 0 .376-.087.671-.261.886-.188.201-.47.382-.846.544l-3.039 1.308.704-1.087v8.494l-.704-1.087 3.039 1.289c.389.174.671.355.846.543.174.188.261.456.261.805zm-11.554-5.777l6.703 2.818-.644.524v-6.723l.644.503-6.703 2.838v.04zm11.393-10.369c0 .416-.114.738-.342.966-.241.228-.57.342-.986.342h-11.615c-.429 0-.751-.107-.966-.322-.228-.228-.342-.55-.342-.966 0-.416.114-.731.342-.946.215-.228.537-.342.966-.342h10.749v-5.838c0-.362.094-.637.282-.825.188-.201.456-.302.805-.302.349 0 .624.101.826.302.187.188.281.463.281.825v7.106zm.161-11.283c0 .416-.114.738-.342.966-.241.215-.57.322-.986.322h-11.876c-.43 0-.752-.107-.967-.322-.228-.228-.342-.55-.342-.966 0-.416.114-.731.342-.946.215-.228.537-.342.967-.342h5.133v-.04l-5.798-5.778a2.537 2.537 0 0 1-.483-.644 1.599 1.599 0 0 1-.161-.724c0-.389.101-.665.302-.826a.84.84 0 0 1 .705-.201c.268.027.516.154.744.383l5.818 5.877-1.168-.02 6.24-6.139c.269-.282.551-.43.846-.443a.948.948 0 0 1 .745.282c.187.188.281.469.281.845 0 .322-.067.584-.201.785a5.533 5.533 0 0 1-.584.664l-5.938 5.939v.04h5.395c.416 0 .745.107.986.322.228.215.342.537.342.966zm0-16.697c0 .362-.087.657-.261.885-.175.215-.45.39-.826.524l-11.896 4.207c-.429.147-.792.121-1.087-.081-.295-.214-.443-.57-.443-1.067 0-.362.087-.644.262-.845.161-.201.423-.362.785-.483l10.749-3.623v.805l-10.729-3.784c-.362-.135-.631-.302-.805-.504-.175-.201-.262-.463-.262-.785s.087-.577.262-.765c.174-.187.449-.348.825-.483l10.709-3.663v.704l-10.749-3.683c-.349-.121-.611-.282-.785-.483-.175-.202-.262-.477-.262-.826 0-.429.148-.744.443-.946.295-.201.658-.228 1.087-.08l11.916 4.247c.363.134.631.309.806.523.174.215.261.504.261.866s-.087.651-.261.865c-.175.215-.45.39-.826.524l-9.984 3.502v-.463l10.004 3.543c.363.134.631.309.806.523.174.202.261.483.261.846zm0-16.359c0 .322-.073.583-.221.785a.904.904 0 0 1-.584.342c-.255.04-.537-.007-.845-.141l-11.776-5.314c-.389-.175-.664-.383-.825-.624a1.495 1.495 0 0 1-.262-.866c0-.308.087-.583.262-.825.161-.255.436-.47.825-.644l11.776-5.334c.308-.148.59-.202.845-.161.255.04.456.154.604.342.134.188.201.436.201.745 0 .375-.087.671-.261.885-.188.202-.47.383-.846.544l-3.039 1.308.704-1.087v8.495l-.704-1.087 3.039 1.288c.389.174.671.356.846.543.174.188.261.457.261.806zm-11.554-5.777l6.703 2.818-.644.523v-6.723l.644.503-6.703 2.838v.041zm11.554-12.414c0 .416-.114.738-.342.966-.241.215-.577.322-1.006.322h-6.12l1.55-.544-6.823 4.852a1.18 1.18 0 0 1-.765.241 1.073 1.073 0 0 1-.705-.342c-.201-.201-.302-.483-.302-.846 0-.268.067-.509.202-.724.134-.228.342-.443.624-.644l5.112-3.603v.563l-5.112-3.623c-.296-.215-.504-.423-.624-.624-.135-.201-.202-.45-.202-.745 0-.349.094-.617.282-.805a.841.841 0 0 1 .664-.302c.269-.013.55.081.846.282l6.803 4.811-1.55-.524h6.12c.899 0 1.348.43 1.348 1.289z" fill="#5A6064"/><path d="M557.846 254.272c0 .226-.051.415-.151.566-.109.143-.269.26-.478.352l-7.373 3.284c-.209.092-.394.117-.553.075a.647.647 0 0 1-.378-.264.823.823 0 0 1-.138-.478c0-.243.055-.423.164-.541.1-.126.255-.231.465-.314l6.907-2.982v.541l-6.919-2.969a1.2 1.2 0 0 1-.453-.327c-.109-.126-.164-.302-.164-.529a.71.71 0 0 1 .138-.452.612.612 0 0 1 .378-.24c.159-.033.344-.004.553.089l7.373 3.283c.209.092.369.21.478.352.1.135.151.319.151.554zm-.101-6.302c0 .277-.071.491-.214.642-.151.143-.365.214-.641.214h-7.159c-.277 0-.486-.071-.629-.214-.151-.151-.226-.365-.226-.642v-4.491c0-.21.054-.369.163-.478.109-.117.264-.176.466-.176.209 0 .373.059.49.176.109.109.164.268.164.478v3.799h2.441v-3.522c0-.218.054-.382.163-.491.109-.109.269-.163.478-.163.21 0 .369.054.478.163.109.109.164.273.164.491v3.522h2.579v-3.799c0-.21.054-.369.163-.478.109-.117.269-.176.478-.176.21 0 .37.059.479.176.109.109.163.268.163.478v4.491zm.101-7.406c0 .244-.067.432-.202.566-.134.126-.327.189-.578.189h-7.486c-.26 0-.457-.063-.591-.189a.675.675 0 0 1-.214-.515c0-.193.038-.336.113-.428.067-.101.185-.218.353-.352l6.252-4.819v.327h-5.951c-.243 0-.431-.063-.566-.188-.134-.135-.201-.323-.201-.567 0-.243.067-.427.201-.553.135-.126.323-.189.566-.189h7.549c.235 0 .419.059.553.176a.602.602 0 0 1 .202.478.857.857 0 0 1-.113.466 1.885 1.885 0 0 1-.365.365l-6.253 4.806v-.315h5.951c.251 0 .444.063.578.189.135.126.202.31.202.553zm-.101-9.511c0 .276-.071.49-.214.641-.151.143-.365.214-.641.214h-7.159c-.277 0-.486-.071-.629-.214-.151-.151-.226-.365-.226-.641v-2.441c0-1.484.381-2.629 1.145-3.434.763-.814 1.857-1.221 3.283-1.221.713 0 1.346.105 1.9.315a3.55 3.55 0 0 1 1.384.906c.377.394.666.88.868 1.459.193.57.289 1.229.289 1.975v2.441zm-1.333-.755v-1.585c0-.52-.063-.969-.189-1.346a2.477 2.477 0 0 0-.579-.957 2.394 2.394 0 0 0-.969-.578 4.507 4.507 0 0 0-1.371-.189c-1.04 0-1.816.256-2.327.767-.512.512-.768 1.279-.768 2.303v1.585h6.203zm1.459-11.948c0 .855-.189 1.606-.566 2.252a3.875 3.875 0 0 1-1.585 1.484c-.688.352-1.493.529-2.416.529-.696 0-1.321-.101-1.874-.302a4.105 4.105 0 0 1-1.435-.856 3.744 3.744 0 0 1-.918-1.346 4.573 4.573 0 0 1-.327-1.761c0-.864.189-1.615.566-2.252a3.786 3.786 0 0 1 1.573-1.485c.679-.352 1.48-.528 2.403-.528.696 0 1.325.101 1.887.302.562.201 1.044.49 1.446.868.403.369.713.818.931 1.346.21.52.315 1.103.315 1.749zm-1.384 0c0-.545-.126-1.007-.377-1.384-.252-.386-.617-.68-1.095-.881-.478-.209-1.048-.314-1.711-.314-1.006 0-1.786.226-2.34.679-.553.445-.83 1.078-.83 1.9 0 .537.126.998.377 1.384.243.385.604.683 1.082.893.47.201 1.04.302 1.711.302.998 0 1.778-.227 2.34-.68.562-.452.843-1.086.843-1.899zm1.359-6.708c0 .26-.072.462-.214.604-.151.134-.357.201-.617.201h-7.322c-.268 0-.469-.071-.603-.213-.143-.143-.214-.344-.214-.604v-3.032c0-.973.235-1.724.704-2.252.462-.529 1.112-.793 1.95-.793.545 0 1.015.122 1.409.365.394.235.696.579.906 1.032.21.453.315 1.002.315 1.648l-.189-.114v-.415c0-.344.084-.641.252-.893.167-.26.431-.486.792-.679l1.749-.944a.938.938 0 0 1 .516-.138.585.585 0 0 1 .415.188c.1.118.151.29.151.516 0 .227-.046.411-.139.554-.1.142-.251.268-.453.377l-2.34 1.271c-.285.151-.473.331-.566.541-.1.201-.151.461-.151.78v1.195h2.818c.26 0 .466.067.617.201.142.135.214.336.214.604zm-4.844-.805v-1.963c0-.578-.117-1.014-.352-1.308-.243-.302-.604-.453-1.082-.453-.47 0-.822.151-1.057.453-.243.294-.365.73-.365 1.308v1.963h2.856z" fill="#fff"/></g><defs><clipPath id="clip0_6994_63023"><path fill="#fff" transform="translate(0 .872)" d="M0 0h600v809.545H0z"/></clipPath></defs></svg>