<svg width="32" height="32" viewBox="0 0 32 32" fill="none" xmlns="http://www.w3.org/2000/svg"><path d="M0 8a8 8 0 0 1 8-8h16a8 8 0 0 1 8 8v16a8 8 0 0 1-8 8H8a8 8 0 0 1-8-8V8z" fill="#FEFBE7"/><path d="M10.25 7A3.262 3.262 0 0 0 7 10.25v11.5A3.262 3.262 0 0 0 10.25 25h11.5A3.261 3.261 0 0 0 25 21.75v-11.5A3.262 3.262 0 0 0 21.75 7h-11.5zm0 1.5h11.5c.975 0 1.75.775 1.75 1.75V11h-15v-.75c0-.975.775-1.75 1.75-1.75zm-1.75 4h15v9.25a1.74 1.74 0 0 1-1.75 1.75h-11.5a1.74 1.74 0 0 1-1.75-1.75V12.5zm3.25 2a1.25 1.25 0 1 0 0 2.5 1.25 1.25 0 0 0 0-2.5zm4.25 0a1.25 1.25 0 1 0 0 2.5 1.25 1.25 0 0 0 0-2.5zm4.25 0a1.25 1.25 0 1 0 0 2.5 1.25 1.25 0 0 0 0-2.5zm-8.5 4.5a1.25 1.25 0 1 0 0 2.5 1.25 1.25 0 0 0 0-2.5zM16 19a1.25 1.25 0 1 0 0 2.5 1.25 1.25 0 0 0 0-2.5z" fill="#FF6900"/></svg>