<svg width="44" height="45" viewBox="0 0 44 45" fill="none" xmlns="http://www.w3.org/2000/svg"><path d="M7.416 26.667h27.366c2.11 0 3.166 0 4.005-.393a4.167 4.167 0 0 0 1.788-1.6c.484-.792.6-1.84.833-3.938l1.219-10.968c.071-.64.107-.961.004-1.209a1.042 1.042 0 0 0-.459-.512c-.235-.13-.557-.13-1.201-.13H6.375m-5.209-6.25h2.6c.552 0 .828 0 1.044.105.19.092.347.24.45.424.119.208.136.483.17 1.034l1.888 30.208c.035.55.052.825.17 1.034.104.183.261.331.451.423.216.105.491.105 1.043.105h27.6m-23.958 7.292h.021m18.73 0h.02m-17.729 0a1.042 1.042 0 1 1-2.083 0 1.042 1.042 0 0 1 2.083 0zm18.75 0a1.042 1.042 0 1 1-2.083 0 1.042 1.042 0 0 1 2.083 0z" stroke="#FF6900" stroke-width="2" stroke-linecap="round" stroke-linejoin="round"/></svg>