<svg width="22" height="22" viewBox="0 0 22 22" fill="none" xmlns="http://www.w3.org/2000/svg"><path fill-rule="evenodd" clip-rule="evenodd" d="M7.523 0h-.051c-.19 0-.43-.001-.664.055a2 2 0 0 0-.579.24c-.206.126-.375.296-.509.43l-.036.037L.762 5.684l-.036.036a2.754 2.754 0 0 0-.431.51 2 2 0 0 0-.24.578A2.795 2.795 0 0 0 0 7.472v7.056c0 .19-.001.43.055.665.05.204.13.399.24.578.126.206.296.375.43.509l.037.036 4.922 4.923.036.036c.134.135.303.304.51.43.178.11.373.19.578.24.235.056.474.056.664.055h7.056c.19 0 .43.001.665-.055.204-.05.399-.13.578-.24.206-.126.375-.295.509-.43l.036-.036 4.923-4.923.036-.036c.135-.134.304-.303.43-.509.11-.179.19-.374.24-.578a2.8 2.8 0 0 0 .055-.665V7.472c0-.19.001-.43-.055-.664-.05-.205-.13-.4-.24-.579a2.795 2.795 0 0 0-.43-.509l-.036-.036L16.316.762 16.28.726a2.795 2.795 0 0 0-.509-.431 2.001 2.001 0 0 0-.578-.24A2.795 2.795 0 0 0 14.528 0H7.523zM12 7a1 1 0 1 0-2 0v4a1 1 0 0 0 2 0V7zm-1 7a1 1 0 0 0 0 2h.01a1 1 0 1 0 0-2H11z" fill="#ED1B2E"/></svg>