<svg width="899" height="601" viewBox="0 0 899 601" fill="none" xmlns="http://www.w3.org/2000/svg"><g clip-path="url(#clip0_7756_224706)"><path d="M604.75 5.04h-310.1C134.9 5.04 5.4 134.5 5.4 294.25v5.79c0 159.77 129.5 289.27 289.25 289.27h310.1C764.5 589.31 894 459.81 894 300.04v-5.81C894 134.5 764.5 5.04 604.75 5.04zm98.23 414.23a156.557 156.557 0 0 1-111.05 46H307.47a157.05 157.05 0 1 1 0-314.1h284.46a156.995 156.995 0 0 1 154.091 187.688 157.004 157.004 0 0 1-43.041 80.412z" fill="#E0E0E0"/><path d="M748.98 308.22a157.047 157.047 0 0 1-157.05 157H307.47a157.048 157.048 0 0 1-157.05-157.05 157.05 157.05 0 0 1 157.05-157.05h284.46a157.047 157.047 0 0 1 111.069 46.017A157.059 157.059 0 0 1 748.98 308.22z" fill="#E0E0E0"/><path d="M274.79 136.12a173.186 173.186 0 0 0-51.49 17.92l-17.68-39.53 6.22-3.39-5.34-11.08a222.342 222.342 0 0 1 59.6-19.58l8.69 55.66zm39.82-58.86v56.1h-8.75c-4.847 0-9.647.197-14.4.59v-26.76H279.6l-3.73-28.29c9.862-1.32 19.8-1.988 29.75-2h7.54c.94.23 1.45.36 1.45.36zm61.561-.32v56.42h-29.37v-28.6h-8.47v28.6h-19.19V76.94h57.03zm74.73 0v56.42h-30.86v-28.6h-9.99v28.6h-26.54V76.94h67.39zm74.909 0v56.42h-30.49v-28.6h-10.17v28.6h-29.36V76.94h70.02zm57.72 0v56.42h-16.47l.54-28.6h-9.91l-.19 28.6h-26.04V76.94h52.07zm47.38 1.96l-2.32 17h-16.38v38.4h-.3a177.303 177.303 0 0 0-18.23-.94h-5.19V76.94h12.7c9.939-.001 19.867.654 29.72 1.96zm63.75 32.24l-20.4 41.9a173.514 173.514 0 0 0-42.6-15.51l3.14-43.86c32.19 3.37 59.86 17.47 59.86 17.47zm-.53-14.1l-3.42 9.27s-16.25-10.13-57-16.16l1.45-10.69a222.335 222.335 0 0 1 58.97 17.58zM750 149.26l-33.89 34.16a175.13 175.13 0 0 0-37.62-28.14l20.69-42.44c25.71 13.71 50.82 36.42 50.82 36.42zm13.16-3.06l-6.38 5.84c-20.18-21.83-50-39.25-50-39.25l2.68-8a224.996 224.996 0 0 1 53.7 41.41zm35.121 72.84l-44 20.15a174.28 174.28 0 0 0-25.1-41.4l33.54-33.81c25.96 28.2 35.56 55.06 35.56 55.06z" fill="#C9C5C5"/><path d="M806.101 210.32l-6.41 3.32c-18.07-37.84-40.09-58.45-40.09-58.45l6.41-5.95a223.951 223.951 0 0 1 40.09 61.08zm9.12 72.78l-47.72 7.17a173.504 173.504 0 0 0-11.24-46.31l-.33-1.52 43.47-19.77a217.472 217.472 0 0 1 15.82 60.43z" fill="#C9C5C5"/><path d="M824.861 288.27h-6.72c-1.32-31.71-14.12-61.93-14.12-61.93l7-3.85a222.681 222.681 0 0 1 13.84 65.78zm.23 20.14a223.15 223.15 0 0 1-12.41 66.63l-52-15.23a174.432 174.432 0 0 0 7.72-48.77l56.69-2.63zm-14.751 72.97a223.514 223.514 0 0 1-30 54.08l-42.51-28.64a174.156 174.156 0 0 0 21.18-42.11l51.33 16.67zm-41.82 68.52a221.53 221.53 0 0 1-8.93 9.47 224.888 224.888 0 0 1-42.54 33.36l-24.89-40.32a174.707 174.707 0 0 0 25.07-20.79 174.206 174.206 0 0 0 9.35-10.12l41.94 28.4zm-55.61 45.28a222.394 222.394 0 0 1-70.16 26l-6-43.69a174.047 174.047 0 0 0 52-22.74l24.16 40.43zM225.071 63.26l6.33 18.78a227.664 227.664 0 0 0-21.37 8.9l-26.72-61a287.752 287.752 0 0 1 36.42-14.2l12.13 44.94-6.79 2.58zM294.7 2.75l-4.9 66.65a229.398 229.398 0 0 0-40.35 7l-4.65-20.17-7.25 2.49-9.64-45.38A291.292 291.292 0 0 1 294.7 2.75zm44.86-.26l-2.16 44.45-4.47.34-1.53 21.28h-21.84c-4.78 0-9.526.144-14.24.43l4.94-66.41c2.28-.06 4.567-.09 6.86-.09h32.44zm75.981 0l-2.44 43.99-5.49-.2-1.56 22.28h-56.93l1.55-22.03h-7.74l1.89-44.04h70.72zm75.43 0l-3.62 44.87-4.33-.08-1.77 21.28h-56.72l1.56-21.78h-7.49l2.12-44.29h70.25zm74.44 0l-3.88 44.99-4.04.18-2.01 20.9h-56.87l1.73-21.31h-8.28l3.8-44.76h69.55zm49.74.28l-3.82 66.2c-4.55-.27-9.15-.41-13.77-.41h-27.32l1.94-21.62h-6.54l3.66-44.45h33c4.3 0 8.583.094 12.85.28zm71.359 12.07l-10.37 40.34-8.48-1.7-6 24.07a231.275 231.275 0 0 0-46.17-8.3l4-66.25a290.303 290.303 0 0 1 67.02 11.84zm90.941 46.08l-24 36.91-6.3-4.19-12.63 19.7a231.47 231.47 0 0 0-56.8-30.55l9.57-24.75-7-1.93 11-39.83a290.943 290.943 0 0 1 86.16 44.64zm70.19 75.44l-33.61 27.58-1.94-3.59-19.69 14.37a232.66 232.66 0 0 0-44.72-51l14.28-20.2-4.85-2.79 25-36.26a293.01 293.01 0 0 1 65.53 71.89zm39.049 92.68l-36.55 15.13-2.91-7.51-24.47 8.62a230.103 230.103 0 0 0-23.28-58.83l21.58-13.76-3.88-6.3 32.94-26.13a289.728 289.728 0 0 1 36.57 88.78zm7.31 65.18a293.131 293.131 0 0 1-2.45 37.94l-39.48 1.34.14-4.52-24.81 1.17a234.501 234.501 0 0 0-1-66.94l26.26-7.78-1.55-6.64 36.8-14.26a292.655 292.655 0 0 1 6.09 59.69zm-3.369 44.52a289.794 289.794 0 0 1-29.68 90.49l-35.06-11.07 2-6.42-24.34-5.15a230.164 230.164 0 0 0 21.58-62.34l25 1.24 1.28-7.72 39.22.97zm-32.641 95.99a292.708 292.708 0 0 1-49.44 65.78c-3.84 3.84-7.786 7.57-11.84 11.19l-29.77-25.07 5.69-5-16.23-12.59c1.7-1.593 3.367-3.213 5-4.86a233.07 233.07 0 0 0 34.54-44l22.18 7.64 3.22-4.92 36.65 11.83zm-64.589 79.88a291.53 291.53 0 0 1-85.52 51.63l-17.26-31.88 7.72-4.32-9.54-16.6a231.737 231.737 0 0 0 57.11-35l12.88 13.09 4.5-3.65 30.11 26.73zm-91.57 53.91a290.203 290.203 0 0 1-48.53 13l-10.33-53.88a230.81 230.81 0 0 0 31.65-8.66l7.42 19.24 5.15-2 14.64 32.3z" fill="#C9C5C5"/><path d="M591.93 151.17H307.47c-86.736 0-157.05 70.314-157.05 157.05 0 86.736 70.314 157.05 157.05 157.05h284.46c86.736 0 157.05-70.314 157.05-157.05 0-86.736-70.314-157.05-157.05-157.05z" stroke="#fff" stroke-width="10" stroke-miterlimit="10"/><path d="M225.071 63.26l6.33 18.78a227.664 227.664 0 0 0-21.37 8.9l-26.72-61a287.752 287.752 0 0 1 36.42-14.2l12.13 44.94-6.79 2.58zM294.7 2.75l-4.9 66.65a229.398 229.398 0 0 0-40.35 7l-4.65-20.17-7.25 2.49-9.64-45.38A291.292 291.292 0 0 1 294.7 2.75zm44.86-.26l-2.16 44.45-4.47.34-1.53 21.28h-21.84c-4.78 0-9.526.144-14.24.43l4.94-66.41c2.28-.06 4.567-.09 6.86-.09h32.44zm75.981 0l-2.44 43.99-5.49-.2-1.56 22.28h-56.93l1.55-22.03h-7.74l1.89-44.04h70.72zm75.43 0l-3.62 44.87-4.33-.08-1.77 21.28h-56.72l1.56-21.78h-7.49l2.12-44.29h70.25zm74.44 0l-3.88 44.99-4.04.18-2.01 20.9h-56.87l1.73-21.31h-8.28l3.8-44.76h69.55zm49.74.28l-3.82 66.2c-4.55-.27-9.15-.41-13.77-.41h-27.32l1.94-21.62h-6.54l3.66-44.45h33c4.3 0 8.583.094 12.85.28zm71.359 12.07l-10.37 40.34-8.48-1.7-6 24.07a231.275 231.275 0 0 0-46.17-8.3l4-66.25a290.303 290.303 0 0 1 67.02 11.84zm15.321 553.68a290.203 290.203 0 0 1-48.53 13l-10.33-53.88a230.81 230.81 0 0 0 31.65-8.66l7.42 19.24 5.15-2 14.64 32.3zm75.62-507.6l-24 36.91-6.3-4.19-12.63 19.7a231.47 231.47 0 0 0-56.8-30.55l9.57-24.75-7-1.93 11-39.83a290.943 290.943 0 0 1 86.16 44.64zm15.95 453.69a291.53 291.53 0 0 1-85.52 51.63l-17.26-31.88 7.72-4.32-9.54-16.6a231.737 231.737 0 0 0 57.11-35l12.88 13.09 4.5-3.65 30.11 26.73zm54.24-378.25l-33.61 27.58-1.94-3.59-19.69 14.37a232.66 232.66 0 0 0-44.72-51l14.28-20.2-4.85-2.79 25-36.26a293.01 293.01 0 0 1 65.53 71.89zm10.349 298.37a292.708 292.708 0 0 1-49.44 65.78c-3.84 3.84-7.786 7.57-11.84 11.19l-29.77-25.07 5.69-5-16.23-12.59c1.7-1.593 3.367-3.213 5-4.86a233.07 233.07 0 0 0 34.54-44l22.18 7.64 3.22-4.92 36.65 11.83zm28.7-205.69l-36.55 15.13-2.91-7.51-24.47 8.62a230.103 230.103 0 0 0-23.28-58.83l21.58-13.76-3.88-6.3 32.94-26.13a289.728 289.728 0 0 1 36.57 88.78zm3.941 109.7a289.794 289.794 0 0 1-29.68 90.49l-35.06-11.07 2-6.42-24.34-5.15a230.164 230.164 0 0 0 21.58-62.34l25 1.24 1.28-7.72 39.22.97zM894 294.22a293.131 293.131 0 0 1-2.45 37.94l-39.48 1.34.14-4.52-24.81 1.17a234.501 234.501 0 0 0-1-66.94l26.26-7.78-1.55-6.64 36.8-14.26a292.655 292.655 0 0 1 6.09 59.69zM266.1 80.42l8.69 55.7a173.186 173.186 0 0 0-51.49 17.92l-17.68-39.53 6.22-3.39-5.34-11.08a222.334 222.334 0 0 1 59.6-19.62zm47.06-3.48c.94.19 1.45.32 1.45.32v56.1h-8.75c-4.847 0-9.647.197-14.4.59v-26.76H279.6l-3.73-28.29c9.862-1.32 19.8-1.988 29.75-2l7.54.04zm63.011 0v56.42h-29.37v-28.6h-8.47v28.6h-19.19V76.94h57.03zm74.73 0v56.42h-30.86v-28.6h-9.99v28.6h-26.54V76.94h67.39zm74.909 0v56.42h-30.49v-28.6h-10.17v28.6h-29.36V76.94h70.02zm57.72 0v56.42h-16.47l.54-28.6h-9.91l-.19 28.6h-26.04V76.94h52.07zm47.38 1.96l-2.32 17h-16.38v38.4h-.3a177.303 177.303 0 0 0-18.23-.94h-5.19V76.94h12.7c9.939-.001 19.867.654 29.72 1.96zm82 416.28a222.394 222.394 0 0 1-70.16 26l-6-43.69a174.047 174.047 0 0 0 52-22.74l24.16 40.43zm55.61-45.28a221.53 221.53 0 0 1-8.93 9.47 224.888 224.888 0 0 1-42.54 33.36l-24.89-40.32a174.707 174.707 0 0 0 25.07-20.79 174.206 174.206 0 0 0 9.35-10.12l41.94 28.4zm41.82-68.52a223.514 223.514 0 0 1-30 54.08l-42.51-28.64a174.156 174.156 0 0 0 21.18-42.11l51.33 16.67zm14.751-72.97a223.15 223.15 0 0 1-12.41 66.63l-52-15.23a174.432 174.432 0 0 0 7.72-48.77l56.69-2.63z" fill="#C9C5C5"/><path d="M604.75 5h-310.1C134.902 5 5.4 134.502 5.4 294.25v5.81c0 159.748 129.502 289.25 289.25 289.25h310.1C764.499 589.31 894 459.808 894 300.06v-5.81C894 134.502 764.499 5 604.75 5z" stroke="#fff" stroke-width="10" stroke-miterlimit="10"/><path d="M275.65 494.8h350.94v105.24H275.65V494.8z" fill="#0062CC"/><g clip-path="url(#clip1_7756_224706)"><path d="M317.52 367.184V249.545l-31.12 12.729v89.122l31.12 15.788zm.001-150.234h68.775v67.733h95.305a33.363 33.363 0 0 0-.164 45.32h-95.141v68.752h-68.775V216.95zm172.504-24.48v50.925h81.322V192.47h-81.322zm0 179.882v49.398h81.322v-49.398h-81.322z" fill="#C9C5C5"/><path d="M533.712 402.406a.636.636 0 0 1-.099.36.749.749 0 0 1-.306.221l-4.704 2.052a.528.528 0 0 1-.352.045.41.41 0 0 1-.239-.169.525.525 0 0 1-.085-.305c.001-.155.036-.269.106-.343a.7.7 0 0 1 .298-.198l4.406-1.862-.002.344-4.386-1.922a.782.782 0 0 1-.286-.21.497.497 0 0 1-.102-.337.448.448 0 0 1 .091-.287.378.378 0 0 1 .241-.15.581.581 0 0 1 .351.058l4.672 2.124c.133.06.234.135.302.227a.568.568 0 0 1 .094.352zm.044-5.703a.644.644 0 0 1-.099.36.749.749 0 0 1-.306.221l-4.704 2.052a.529.529 0 0 1-.352.045.41.41 0 0 1-.239-.169.533.533 0 0 1-.086-.305c.002-.155.037-.269.107-.343a.7.7 0 0 1 .298-.198l4.406-1.862-.003.344-4.385-1.922a.773.773 0 0 1-.286-.21.497.497 0 0 1-.102-.337.453.453 0 0 1 .09-.287c.06-.08.14-.13.242-.15a.581.581 0 0 1 .351.058l4.672 2.124c.133.06.234.135.302.227a.568.568 0 0 1 .094.352zm.03-3.975c-.001.166-.047.293-.139.383a.57.57 0 0 1-.393.125l-4.712-.036c-.17-.001-.301-.045-.391-.131-.09-.091-.134-.22-.133-.385.002-.165.048-.29.139-.375.092-.09.223-.134.393-.133l4.712.036a.573.573 0 0 1 .391.131c.09.086.134.215.133.385zm.017-2.257c-.001.165-.047.293-.139.383a.565.565 0 0 1-.392.124l-4.656-.035c-.171-.002-.299-.048-.383-.139a.518.518 0 0 1-.133-.385l.014-1.928c.005-.619.164-1.095.475-1.429.312-.333.746-.498 1.3-.494.555.005.988.176 1.3.514.307.339.458.817.453 1.436l-.011 1.424 1.648.013a.561.561 0 0 1 .391.131c.09.086.135.214.133.385zm-2.98-.535l.01-1.264c.003-.363-.075-.638-.233-.826-.164-.188-.404-.283-.718-.286-.315-.002-.553.089-.714.275-.162.185-.244.459-.247.822l-.009 1.264 1.911.015zm2.889-167.823a.63.63 0 0 1-.099.359.76.76 0 0 1-.306.222l-4.704 2.052a.54.54 0 0 1-.352.045.41.41 0 0 1-.239-.17.522.522 0 0 1-.085-.305c.001-.154.036-.269.106-.343a.719.719 0 0 1 .298-.198l4.406-1.862-.002.344-4.386-1.921a.772.772 0 0 1-.286-.211.493.493 0 0 1-.102-.336.449.449 0 0 1 .091-.288.387.387 0 0 1 .241-.15.583.583 0 0 1 .351.059l4.672 2.124a.744.744 0 0 1 .302.226.571.571 0 0 1 .094.353zm.044-5.703a.638.638 0 0 1-.099.359.76.76 0 0 1-.306.222l-4.704 2.052a.541.541 0 0 1-.352.045.406.406 0 0 1-.239-.17.53.53 0 0 1-.086-.305c.002-.154.037-.269.107-.343a.708.708 0 0 1 .298-.197l4.406-1.863-.003.344-4.385-1.921a.764.764 0 0 1-.286-.211.493.493 0 0 1-.102-.336.454.454 0 0 1 .09-.288.392.392 0 0 1 .242-.15.583.583 0 0 1 .351.059l4.672 2.124a.744.744 0 0 1 .302.226.573.573 0 0 1 .094.353zm.03-3.975c-.001.165-.047.293-.139.383a.574.574 0 0 1-.393.125l-4.712-.036c-.17-.002-.301-.045-.391-.131-.09-.092-.134-.22-.133-.385.002-.166.048-.291.139-.375.092-.09.223-.135.393-.133l4.712.036a.568.568 0 0 1 .391.131c.09.086.134.214.133.385zm.017-2.258c-.001.165-.047.293-.139.383a.565.565 0 0 1-.392.125l-4.656-.036c-.171-.001-.299-.047-.383-.139-.09-.091-.135-.219-.133-.385l.014-1.928c.005-.618.164-1.094.475-1.428.312-.334.746-.498 1.3-.494.555.004.988.175 1.3.514.307.338.458.817.453 1.435l-.011 1.424 1.648.013a.566.566 0 0 1 .391.131c.09.086.135.214.133.385zm-2.98-.535l.01-1.264c.003-.362-.075-.638-.233-.826-.164-.188-.404-.283-.718-.285-.315-.003-.553.089-.714.274-.162.186-.244.46-.247.823l-.009 1.263 1.911.015z" fill="#fff"/><path d="M393.424 192.47v50.925h94.022V192.47h-94.022zm0 179.882v49.398h94.022v-49.398h-94.022zm0-2.626v-30.594h89.521v8.19h58.452l10.065-10.694v-21.901h20.134v54.999H393.424zm0-123.601v31.068h88.581v-8.66h59.392l10.065 10.694v21.901h20.134v-55.003H393.424zm180.94 175.625V315.197h16.808v18.846h19.349v87.707h-36.157zm0-228.81v107.958h16.808v-18.842h19.349V192.94h-36.157z" fill="#C9C5C5"/><path d="M390.713 279.5H484.5v-8.688h54.976l9.092 9.092v23.222h42.942v9.12h-42.651v24.17l-8.603 8.604h-54.689v-8.19h-94.445v69.029H318.46v-5.944h69.542v-68.132h93.063l2.35-.249a33.36 33.36 0 0 0 51.093-4.827 33.36 33.36 0 0 0-50.421-43.1h-96.363v-68.329H318.46v-6.579h72.253V279.5z" fill="#C9C5C5"/><path d="M541.331 307.852c0-19.219-15.58-34.799-34.799-34.799s-34.799 15.58-34.799 34.799 15.58 34.799 34.799 34.799 34.799-15.58 34.799-34.799z" fill="#C9C5C5" stroke="#fff" stroke-width="5" stroke-miterlimit="10"/><path d="M592.444 283.353v49.666h18.076v-49.666h-18.076z" fill="#C9C5C5"/></g><path d="M215.49 59.316c.046.203.028.375-.055.516a.671.671 0 0 1-.429.27c-.202.046-.366.026-.492-.06-.128-.094-.215-.242-.261-.444l-.298-1.307-5.729 1.305-.165-.723 1.429 1.479a.7.7 0 0 1 .201.396.672.672 0 0 1-.089.364.765.765 0 0 1-.287.25.632.632 0 0 1-.379.06.702.702 0 0 1-.396-.228l-1.335-1.39a3.362 3.362 0 0 1-.34-.413 1.091 1.091 0 0 1-.203-.408.62.62 0 0 1 .047-.44c.061-.13.192-.216.395-.262l6.511-1.483-.271-1.19c-.046-.203-.031-.37.045-.502.075-.14.213-.233.416-.279.202-.046.371-.023.506.069.134.084.224.227.27.43l.909 3.99zm-1.714-8.062c.077.335.105.693.085 1.073a3.808 3.808 0 0 1-.25 1.113.56.56 0 0 1-.247.314.744.744 0 0 1-.357.106.737.737 0 0 1-.352-.092.511.511 0 0 1-.235-.278c-.052-.119-.052-.262 0-.43.096-.3.148-.573.157-.82a2.787 2.787 0 0 0-.066-.722c-.103-.451-.295-.809-.576-1.072-.281-.263-.649-.425-1.104-.485-.466-.066-1.009-.028-1.632.114l-.875.2-.032-.14c.402-.035.769.016 1.103.153.334.137.614.343.841.619.218.277.371.607.458.988.106.467.089.912-.051 1.337a2.448 2.448 0 0 1-.737 1.076 2.996 2.996 0 0 1-1.294.627c-.537.122-1.037.117-1.501-.015a2.589 2.589 0 0 1-1.189-.748 2.81 2.81 0 0 1-.683-1.33c-.156-.684-.128-1.3.082-1.847.211-.547.596-1.015 1.154-1.404.55-.387 1.256-.68 2.12-.876.7-.16 1.341-.22 1.923-.18.572.033 1.08.16 1.522.377.443.219.812.528 1.107.927.294.391.504.863.629 1.415zm-4.357.539a1.456 1.456 0 0 0-.354-.693 1.367 1.367 0 0 0-.652-.38 1.794 1.794 0 0 0-.833.006c-.303.07-.555.188-.754.356a1.281 1.281 0 0 0-.41.621 1.455 1.455 0 0 0-.02.778c.064.28.182.51.354.693a1.4 1.4 0 0 0 .64.382c.252.065.53.063.833-.006a1.79 1.79 0 0 0 .754-.356 1.48 1.48 0 0 0 .422-.624c.077-.238.083-.497.02-.777zm60.51-1.81c.057.25.044.445-.039.586-.091.136-.246.228-.464.278a.795.795 0 0 1-.409-.018 2.118 2.118 0 0 1-.466-.213l-3.031-1.776c-.455-.273-.852-.453-1.191-.54a2.126 2.126 0 0 0-.987-.02c-.389.088-.656.28-.802.575-.147.287-.167.664-.061 1.131.06.265.159.52.297.767.13.249.316.489.557.72.125.12.194.242.207.37a.587.587 0 0 1-.08.35.682.682 0 0 1-.275.247.695.695 0 0 1-.376.073.698.698 0 0 1-.402-.203 3.98 3.98 0 0 1-.769-1.003 4.837 4.837 0 0 1-.462-1.22c-.135-.592-.159-1.11-.072-1.555.087-.446.278-.812.572-1.1.295-.288.687-.488 1.177-.6.327-.074.658-.092.994-.054.334.03.686.118 1.054.263.367.137.768.336 1.204.597l2.787 1.673-.397.09-.781-3.43c-.048-.21-.034-.381.043-.513.076-.132.215-.221.418-.267.202-.046.37-.027.503.057.134.084.225.23.273.441l.978 4.294zm-1.655-7.265c.046.202.028.374-.054.515a.673.673 0 0 1-.43.27c-.202.046-.366.026-.492-.06-.128-.093-.215-.241-.261-.443l-.298-1.307-5.729 1.305-.165-.724 1.429 1.479c.12.128.186.26.201.396a.672.672 0 0 1-.089.364.758.758 0 0 1-.287.25.63.63 0 0 1-.379.061.695.695 0 0 1-.395-.229l-1.336-1.39a3.27 3.27 0 0 1-.339-.413 1.08 1.08 0 0 1-.204-.408.625.625 0 0 1 .047-.44c.061-.129.193-.216.395-.262l6.511-1.483-.271-1.19c-.046-.203-.031-.37.046-.502.074-.14.213-.232.415-.278.202-.047.371-.023.506.068.134.084.224.228.27.43l.909 3.99zm50.165 2.754c-.007.256-.068.441-.183.558-.122.109-.295.16-.519.154a.798.798 0 0 1-.392-.119 2.15 2.15 0 0 1-.398-.322l-2.495-2.474c-.373-.377-.713-.65-1.02-.817a2.12 2.12 0 0 0-.95-.265c-.399-.011-.706.108-.92.358-.214.241-.327.602-.34 1.08-.008.271.025.544.097.817.065.273.185.552.361.836.092.146.128.282.108.41a.585.585 0 0 1-.164.319.677.677 0 0 1-.328.17.693.693 0 0 1-.382-.022.692.692 0 0 1-.339-.297 3.97 3.97 0 0 1-.496-1.162 4.795 4.795 0 0 1-.144-1.297c.016-.607.122-1.114.316-1.524.195-.41.471-.718.827-.924.357-.206.787-.302 1.289-.288.335.009.661.074.977.194.316.112.635.284.956.517.321.224.66.516 1.017.877l2.285 2.313-.407-.011.095-3.518c.006-.215.062-.377.169-.486.106-.109.263-.16.471-.155.207.006.365.066.474.18.108.115.16.28.154.496l-.119 4.402zm.363-9c-.012.43-.079.875-.204 1.335a3.84 3.84 0 0 1-.535 1.195.804.804 0 0 1-.367.313.659.659 0 0 1-.385.038.687.687 0 0 1-.318-.189.603.603 0 0 1-.146-.35.815.815 0 0 1 .12-.465 4.33 4.33 0 0 0 .409-.934c.08-.301.124-.611.133-.93.009-.352-.031-.648-.12-.89a1.087 1.087 0 0 0-.416-.55 1.225 1.225 0 0 0-.689-.21c-.399-.01-.697.117-.896.383-.207.258-.317.642-.331 1.152l-.02.766c-.006.223-.067.393-.182.51-.114.108-.271.16-.471.155-.199-.006-.353-.066-.462-.18-.108-.123-.159-.296-.153-.52l.016-.621a1.893 1.893 0 0 0-.122-.782 1.214 1.214 0 0 0-.417-.514 1.2 1.2 0 0 0-.665-.198c-.367-.01-.65.107-.848.349-.198.234-.303.582-.315 1.045-.008.295.02.575.085.84.056.257.172.543.347.86a.653.653 0 0 1 .097.421.541.541 0 0 1-.164.319.688.688 0 0 1-.316.171.634.634 0 0 1-.383-.034.684.684 0 0 1-.338-.309 3.94 3.94 0 0 1-.472-1.15 4.571 4.571 0 0 1-.145-1.285c.016-.582.121-1.078.316-1.488.186-.41.45-.718.791-.924.333-.215.735-.316 1.205-.303.335.009.641.081.916.216.268.135.494.32.68.557.185.237.313.52.384.849l-.144-.004c.111-.572.363-1.012.754-1.32.384-.31.859-.456 1.425-.44.494.012.922.148 1.282.405s.634.616.821 1.076c.179.46.26 1.004.243 1.634zm64.668 7.86c-.014.255-.08.439-.198.552-.126.105-.3.151-.523.139a.798.798 0 0 1-.389-.13 2.15 2.15 0 0 1-.389-.333l-2.424-2.544c-.362-.388-.693-.67-.995-.847a2.125 2.125 0 0 0-.943-.292c-.398-.022-.708.089-.929.332-.221.236-.345.592-.372 1.07-.015.271.01.544.075.82.056.274.169.556.336.845.088.15.12.287.097.413a.58.58 0 0 1-.173.314.68.68 0 0 1-.333.162.693.693 0 0 1-.381-.034.7.7 0 0 1-.331-.306 3.973 3.973 0 0 1-.462-1.176 4.83 4.83 0 0 1-.108-1.3c.034-.606.154-1.11.36-1.515.207-.404.491-.704.853-.9.363-.195.795-.279 1.297-.251.335.019.658.093.971.222.313.121.626.302.94.544a7.5 7.5 0 0 1 .993.906l2.217 2.377-.406-.023.195-3.513c.012-.215.073-.376.183-.482.109-.105.268-.152.475-.141.207.012.363.076.469.194.105.118.152.284.14.5l-.245 4.397zm.633-9.226a5.2 5.2 0 0 1-.239 1.281 4.19 4.19 0 0 1-.581 1.178.77.77 0 0 1-.352.293.753.753 0 0 1-.396.014.684.684 0 0 1-.325-.198.558.558 0 0 1-.148-.344.733.733 0 0 1 .132-.436c.183-.286.327-.578.432-.875.104-.298.166-.618.185-.961a1.906 1.906 0 0 0-.131-.87 1.302 1.302 0 0 0-.472-.578 1.45 1.45 0 0 0-.742-.233c-.446-.025-.812.09-1.098.346-.294.256-.454.619-.48 1.089a2.15 2.15 0 0 0 .481 1.477c.06.075.119.17.176.285.05.115.071.236.064.363-.011.2-.071.348-.181.446-.109.098-.255.141-.438.131l-3.908-.217c-.215-.012-.375-.077-.481-.195-.113-.126-.163-.296-.151-.511l.219-3.932c.012-.215.076-.375.194-.48.11-.114.269-.165.476-.154.199.011.351.08.456.205.105.118.152.284.14.5l-.173 3.107 2.677.148-.022.395a2.023 2.023 0 0 1-.599-.86 2.768 2.768 0 0 1-.165-1.137c.03-.534.171-.99.424-1.367.245-.386.577-.675.995-.867.411-.201.883-.287 1.417-.257.549.03 1.029.18 1.437.451.401.27.708.643.921 1.118.206.467.291 1.016.256 1.645zm71.339 9.354c-.007.255-.069.441-.184.558-.123.108-.296.158-.519.152a.797.797 0 0 1-.392-.12 2.128 2.128 0 0 1-.397-.323l-2.489-2.48c-.372-.378-.711-.652-1.018-.82a2.125 2.125 0 0 0-.95-.268c-.398-.012-.705.107-.92.356-.215.241-.329.6-.343 1.08-.008.27.023.543.095.816.064.274.183.553.359.837.091.147.127.283.107.41a.579.579 0 0 1-.165.319.68.68 0 0 1-.328.17.697.697 0 0 1-.383-.023.697.697 0 0 1-.338-.298 4.004 4.004 0 0 1-.493-1.164 4.835 4.835 0 0 1-.141-1.297c.018-.606.125-1.114.321-1.523.195-.41.472-.717.829-.922.358-.205.787-.3 1.29-.285.335.01.66.076.976.197.316.113.634.286.954.519.321.225.659.518 1.016.88l2.278 2.319-.407-.012.104-3.518c.007-.215.064-.377.171-.486.107-.108.264-.16.471-.153.207.006.365.066.474.181.108.115.159.28.153.496l-.131 4.402zm.322-7.636a.748.748 0 0 1-.145.45.522.522 0 0 1-.353.205c-.152.02-.319-.021-.5-.122l-6.688-3.814.527.015-.115 3.876c-.006.216-.067.382-.182.498-.115.108-.272.16-.472.153-.207-.006-.365-.066-.473-.181-.108-.123-.159-.292-.153-.508l.137-4.63a.803.803 0 0 1 .183-.52c.116-.133.277-.196.485-.19.175.005.33.034.464.086.126.051.264.12.413.203l6.396 3.59a.86.86 0 0 1 .372.358c.076.139.11.315.104.53zm78.715 9.459c-.017.255-.085.438-.204.55-.127.104-.302.148-.525.134a.797.797 0 0 1-.387-.134 2.136 2.136 0 0 1-.385-.337l-2.398-2.568c-.359-.392-.688-.677-.988-.857a2.124 2.124 0 0 0-.939-.301c-.399-.026-.709.081-.933.322-.223.234-.351.589-.382 1.067-.018.27.004.544.066.82.054.275.163.558.328.849.086.15.117.287.093.414a.586.586 0 0 1-.177.312.676.676 0 0 1-.334.158.695.695 0 0 1-.381-.037.705.705 0 0 1-.328-.31 3.993 3.993 0 0 1-.45-1.18 4.826 4.826 0 0 1-.094-1.302c.039-.605.164-1.109.375-1.51.21-.403.497-.7.862-.892.364-.192.797-.271 1.299-.238.334.022.657.099.968.231.312.125.624.31.935.554.313.236.64.541.984.916l2.193 2.398-.406-.026.23-3.511c.015-.215.077-.375.188-.48.111-.104.27-.15.477-.136.207.013.362.08.466.198.105.119.15.286.135.5l-.288 4.396zm.677-8.49a3.875 3.875 0 0 1-.225 1.052c-.135.359-.321.69-.557.995a.56.56 0 0 1-.327.23.74.74 0 0 1-.372 0 .735.735 0 0 1-.311-.189.508.508 0 0 1-.146-.333c-.016-.129.025-.266.123-.412.177-.26.305-.508.384-.742.08-.235.127-.472.143-.71.03-.462-.052-.86-.246-1.192-.194-.332-.5-.593-.92-.78-.427-.196-.959-.315-1.596-.357l-.895-.058.009-.144c.394.082.732.236 1.013.463.281.226.491.504.629.832.13.329.183.688.157 1.078-.031.478-.175.9-.431 1.267a2.44 2.44 0 0 1-1.013.821 2.994 2.994 0 0 1-1.419.231c-.549-.036-1.027-.183-1.434-.442a2.583 2.583 0 0 1-.926-1.056 2.81 2.81 0 0 1-.275-1.47c.046-.7.248-1.283.606-1.747.358-.464.86-.803 1.506-1.017.638-.213 1.399-.291 2.282-.233.717.047 1.348.172 1.895.376.539.195.989.46 1.351.796.361.336.627.737.796 1.204.17.459.236.97.199 1.536zm-4.33-.729a1.452 1.452 0 0 0-.141-.765 1.371 1.371 0 0 0-.516-.55 1.796 1.796 0 0 0-.8-.232 1.746 1.746 0 0 0-.824.126 1.286 1.286 0 0 0-.571.478 1.449 1.449 0 0 0-.241.74c-.019.287.029.542.142.765a1.4 1.4 0 0 0 .503.549c.224.134.49.212.801.232.302.02.577-.022.824-.126.239-.112.433-.271.583-.477.141-.207.221-.453.24-.74zm62.874 8.431c-.025.43-.107.873-.246 1.329a3.82 3.82 0 0 1-.573 1.177.803.803 0 0 1-.377.301.656.656 0 0 1-.385.026.677.677 0 0 1-.312-.199.605.605 0 0 1-.135-.355.805.805 0 0 1 .135-.46c.194-.316.34-.623.438-.921.089-.299.143-.607.162-.926.021-.35-.01-.648-.091-.892a1.091 1.091 0 0 0-.399-.563 1.221 1.221 0 0 0-.681-.232c-.399-.024-.701.094-.908.354-.215.251-.337.632-.367 1.141l-.045.765c-.013.223-.079.39-.198.504-.118.105-.277.151-.476.14-.199-.012-.351-.077-.456-.195-.104-.126-.15-.3-.137-.524l.037-.62a1.903 1.903 0 0 0-.098-.786 1.213 1.213 0 0 0-.4-.527 1.205 1.205 0 0 0-.659-.219c-.366-.021-.652.086-.858.322-.205.227-.322.572-.349 1.034-.017.295.002.576.059.843.048.258.155.548.32.87a.65.65 0 0 1 .083.424.54.54 0 0 1-.174.314.682.682 0 0 1-.322.16.628.628 0 0 1-.38-.046.682.682 0 0 1-.329-.319 3.942 3.942 0 0 1-.435-1.164 4.593 4.593 0 0 1-.104-1.29c.034-.58.155-1.073.362-1.477.2-.404.473-.703.821-.898.339-.204.744-.292 1.214-.265.335.02.637.102.909.246a1.988 1.988 0 0 1 1.018 1.438l-.143-.008c.129-.568.394-1 .795-1.296.393-.297.873-.428 1.438-.395.494.029.917.178 1.269.446.352.269.614.636.786 1.102.165.465.228 1.012.191 1.641zm.211-5.617c-.012.207-.078.367-.196.48a.674.674 0 0 1-.488.139c-.207-.012-.359-.077-.456-.195-.096-.126-.139-.292-.126-.499l.078-1.338-5.866-.345.044-.741.96 1.819a.698.698 0 0 1 .082.436.675.675 0 0 1-.187.325.764.764 0 0 1-.345.16.633.633 0 0 1-.381-.047.694.694 0 0 1-.316-.33l-.895-1.707a3.443 3.443 0 0 1-.211-.492 1.09 1.09 0 0 1-.081-.449.623.623 0 0 1 .168-.41c.094-.106.245-.153.452-.14l6.666.392.072-1.219c.012-.207.073-.363.184-.469.11-.113.269-.164.476-.151.207.012.363.08.467.207.105.118.152.28.14.488l-.241 4.086zm53.038 8.032a5.744 5.744 0 0 1-.418 1.285 3.856 3.856 0 0 1-.722 1.092.805.805 0 0 1-.414.25.656.656 0 0 1-.385-.026.678.678 0 0 1-.283-.237.598.598 0 0 1-.088-.37.816.816 0 0 1 .194-.439 4.37 4.37 0 0 0 .555-.856 4.01 4.01 0 0 0 .282-.896c.067-.345.075-.644.026-.897a1.079 1.079 0 0 0-.321-.61 1.224 1.224 0 0 0-.645-.32c-.392-.075-.708.003-.947.233-.246.22-.417.582-.513 1.083l-.145.753c-.042.219-.129.377-.262.473-.13.089-.294.114-.49.077-.195-.038-.338-.122-.426-.253-.087-.139-.11-.318-.068-.537l.118-.611c.057-.298.059-.562.006-.791a1.215 1.215 0 0 0-.328-.575 1.203 1.203 0 0 0-.624-.303c-.361-.07-.658-.001-.893.206-.233.199-.394.525-.481.98-.056.29-.074.57-.053.843.015.263.083.564.204.904a.652.652 0 0 1 .027.432.538.538 0 0 1-.214.288.683.683 0 0 1-.34.117.63.63 0 0 1-.371-.096.69.69 0 0 1-.285-.359 3.957 3.957 0 0 1-.278-1.211c-.039-.43-.018-.86.065-1.292.11-.572.295-1.044.553-1.417.251-.374.561-.635.931-.784.364-.157.776-.191 1.239-.103.329.064.618.184.869.363a1.987 1.987 0 0 1 .821 1.56l-.141-.028c.202-.546.522-.94.958-1.18.429-.243.921-.31 1.477-.204.486.094.886.297 1.2.609.313.312.525.71.635 1.194.102.483.094 1.034-.025 1.653zm1.355-7.047a5.69 5.69 0 0 1-.417 1.285 3.854 3.854 0 0 1-.722 1.092.804.804 0 0 1-.414.25.656.656 0 0 1-.385-.026.687.687 0 0 1-.284-.237.605.605 0 0 1-.087-.37.816.816 0 0 1 .194-.439 4.37 4.37 0 0 0 .555-.856 4.01 4.01 0 0 0 .282-.896c.066-.345.075-.644.026-.897a1.079 1.079 0 0 0-.321-.61 1.224 1.224 0 0 0-.645-.32c-.392-.075-.708.003-.947.233-.246.22-.417.582-.513 1.083l-.145.752c-.042.22-.129.378-.262.474-.13.089-.294.114-.49.077-.196-.038-.338-.122-.426-.253-.087-.139-.11-.318-.068-.537l.118-.611c.057-.298.059-.562.006-.791a1.215 1.215 0 0 0-.328-.575 1.203 1.203 0 0 0-.624-.303c-.361-.07-.658-.001-.893.206-.233.199-.394.525-.481.98-.056.29-.074.57-.053.843.015.262.083.564.204.904a.652.652 0 0 1 .027.432.538.538 0 0 1-.214.288.682.682 0 0 1-.34.117.63.63 0 0 1-.371-.096.69.69 0 0 1-.285-.359 3.957 3.957 0 0 1-.278-1.211c-.04-.43-.018-.86.065-1.292.11-.572.295-1.044.553-1.417.251-.374.561-.635.931-.784.364-.157.776-.192 1.239-.103.329.064.618.184.868.363.243.176.436.396.58.66.145.263.225.563.242.9l-.141-.028c.202-.546.522-.94.958-1.18.429-.243.921-.31 1.477-.204.486.094.886.297 1.199.609.314.312.526.71.636 1.195.102.482.094 1.033-.026 1.652zm72.986 33.31a5.69 5.69 0 0 1-.637 1.191 3.861 3.861 0 0 1-.904.948.803.803 0 0 1-.451.172.655.655 0 0 1-.374-.092.686.686 0 0 1-.238-.284.607.607 0 0 1-.02-.38.816.816 0 0 1 .268-.397 4.32 4.32 0 0 0 .697-.745c.176-.257.321-.534.436-.832.126-.328.187-.62.184-.878a1.083 1.083 0 0 0-.209-.658 1.224 1.224 0 0 0-.579-.428c-.372-.143-.696-.122-.973.062-.28.174-.512.5-.696.976l-.275.715c-.08.208-.194.348-.341.42-.144.064-.31.06-.496-.011-.186-.072-.311-.18-.375-.324-.062-.152-.052-.332.028-.54l.224-.582c.109-.283.157-.542.145-.777a1.202 1.202 0 0 0-.222-.624 1.197 1.197 0 0 0-.561-.408c-.342-.132-.647-.117-.915.045-.264.155-.48.448-.646.88a3.149 3.149 0 0 0-.2.82c-.032.262-.019.57.041.927a.656.656 0 0 1-.05.43.54.54 0 0 1-.261.245.682.682 0 0 1-.355.056.631.631 0 0 1-.349-.16.684.684 0 0 1-.217-.404 3.952 3.952 0 0 1-.06-1.242c.037-.43.134-.85.292-1.26.209-.543.474-.975.794-1.297.313-.324.664-.526 1.055-.607.385-.091.798-.052 1.237.117.313.12.576.29.791.51a1.982 1.982 0 0 1 .534 1.68l-.135-.052c.296-.502.68-.833 1.152-.993.465-.163.961-.143 1.49.06.462.178.819.448 1.073.811.254.363.392.792.415 1.288.015.493-.09 1.034-.317 1.622zm2.664-6.92a5.23 5.23 0 0 1-.621 1.146c-.262.37-.567.683-.914.943a.774.774 0 0 1-.425.17.749.749 0 0 1-.381-.108.69.69 0 0 1-.249-.288.562.562 0 0 1-.036-.373.745.745 0 0 1 .26-.375 4.19 4.19 0 0 0 .68-.7 3.45 3.45 0 0 0 .471-.857c.12-.313.167-.603.142-.87a1.292 1.292 0 0 0-.272-.693 1.45 1.45 0 0 0-.635-.45c-.417-.16-.8-.163-1.151-.007-.358.153-.622.449-.791.888a2.153 2.153 0 0 0-.143.74 2.03 2.03 0 0 0 .148.814c.034.09.061.198.08.326a.79.79 0 0 1-.051.365c-.071.186-.174.309-.308.368-.134.06-.287.057-.458-.01l-3.653-1.405c-.201-.077-.333-.188-.398-.332-.068-.155-.064-.333.013-.534l1.415-3.675c.077-.2.188-.334.332-.398.14-.074.307-.074.5 0 .186.072.31.184.371.336.065.144.058.317-.019.518l-1.118 2.904 2.502.963-.142.368a2.023 2.023 0 0 1-.306-1.002 2.742 2.742 0 0 1 .191-1.132c.192-.499.467-.89.823-1.171a2.288 2.288 0 0 1 1.213-.52c.453-.066.929-.002 1.428.19.513.197.923.487 1.229.87.298.38.476.829.533 1.347.053.507-.034 1.055-.26 1.644zm140.179 232.15c.013.43-.029.879-.126 1.345a3.89 3.89 0 0 1-.465 1.224.81.81 0 0 1-.349.334.649.649 0 0 1-.381.059.683.683 0 0 1-.329-.169.601.601 0 0 1-.166-.342.805.805 0 0 1 .093-.47c.165-.332.283-.651.353-.957.063-.305.089-.617.079-.936-.011-.351-.068-.645-.171-.881a1.09 1.09 0 0 0-.447-.525 1.226 1.226 0 0 0-.7-.17c-.399.013-.69.157-.873.434-.191.27-.279.66-.263 1.17l.024.766c.007.223-.043.396-.151.519-.109.115-.262.176-.462.182-.199.006-.356-.045-.471-.153-.116-.116-.177-.286-.184-.509l-.019-.622a1.922 1.922 0 0 0-.168-.773 1.21 1.21 0 0 0-.446-.489 1.201 1.201 0 0 0-.676-.159c-.366.012-.642.144-.826.397-.183.245-.268.599-.254 1.062.009.295.054.573.134.834.071.253.204.532.397.837.092.141.132.28.121.416a.541.541 0 0 1-.146.328.69.69 0 0 1-.305.189.63.63 0 0 1-.384-.012.686.686 0 0 1-.356-.289 3.96 3.96 0 0 1-.538-1.12 4.632 4.632 0 0 1-.219-1.275c-.018-.582.058-1.083.229-1.504.162-.42.408-.743.736-.969.32-.233.715-.357 1.186-.372.335-.01.644.044.927.163a1.987 1.987 0 0 1 1.143 1.342l-.143.004c.077-.577.303-1.031.676-1.362.365-.331.83-.505 1.396-.522.495-.016.929.095 1.304.33.374.236.668.578.882 1.027.205.448.318.988.338 1.618zm-.205-5.809a.746.746 0 0 1-.117.459.524.524 0 0 1-.34.226c-.151.029-.32-.002-.506-.092l-6.907-3.402.526-.016.121 3.876c.006.215-.044.384-.152.508-.108.115-.262.175-.462.182-.207.006-.368-.045-.483-.153-.116-.116-.177-.282-.183-.497l-.144-4.63a.8.8 0 0 1 .151-.531c.107-.139.265-.212.472-.219a1.4 1.4 0 0 1 .469.058c.129.044.271.103.425.178l6.601 3.196a.858.858 0 0 1 .393.335c.084.133.13.307.136.522zm-14.942 95.842c-.132.41-.322.818-.57 1.224a3.874 3.874 0 0 1-.849.997.802.802 0 0 1-.441.197.655.655 0 0 1-.379-.071.689.689 0 0 1-.253-.27.608.608 0 0 1-.042-.378.817.817 0 0 1 .246-.412c.267-.257.485-.518.654-.782.161-.267.291-.552.389-.856.107-.334.152-.63.135-.887a1.095 1.095 0 0 0-.245-.645 1.233 1.233 0 0 0-.603-.395c-.379-.122-.702-.083-.967.116-.271.19-.484.528-.641 1.014l-.235.729c-.068.212-.174.359-.317.438-.14.072-.306.078-.496.017-.189-.061-.32-.162-.392-.303-.07-.148-.071-.328-.002-.541l.191-.592c.092-.289.126-.551.101-.785a1.21 1.21 0 0 0-.256-.611 1.202 1.202 0 0 0-.583-.376c-.349-.112-.653-.08-.911.097-.256.169-.454.474-.596.914a3.137 3.137 0 0 0-.154.831c-.018.262.013.57.092.922a.646.646 0 0 1-.026.432.538.538 0 0 1-.247.26.678.678 0 0 1-.351.075.624.624 0 0 1-.357-.14.683.683 0 0 1-.239-.391 3.959 3.959 0 0 1-.13-1.236c.013-.432.087-.857.222-1.274.178-.555.419-1.001.72-1.34.295-.341.634-.563 1.019-.665.38-.113.794-.097 1.242.048.319.102.592.257.819.464a1.99 1.99 0 0 1 .626 1.648l-.137-.044c.267-.518.632-.87 1.095-1.056.454-.189.951-.197 1.491-.023.47.152.843.401 1.116.749.274.348.436.769.486 1.263.043.492-.032 1.038-.225 1.638zm2.049-6.364a3.879 3.879 0 0 1-.475.966 3.775 3.775 0 0 1-.782.829.557.557 0 0 1-.373.144.736.736 0 0 1-.361-.091.726.726 0 0 1-.256-.258.514.514 0 0 1-.061-.359c.017-.129.09-.252.22-.369.235-.21.419-.419.554-.627.134-.208.237-.426.311-.654.142-.441.159-.846.052-1.216-.108-.369-.342-.696-.703-.98-.366-.294-.853-.539-1.461-.735l-.854-.275.044-.136c.362.175.652.407.87.695.217.288.353.608.407.961.047.35.01.711-.11 1.083a2.452 2.452 0 0 1-.726 1.124c-.336.286-.73.469-1.183.55a2.991 2.991 0 0 1-1.432-.122c-.524-.168-.952-.428-1.284-.778a2.58 2.58 0 0 1-.641-1.25c-.106-.478-.075-.975.091-1.492.215-.668.553-1.184 1.013-1.547.461-.363 1.03-.569 1.709-.619.67-.052 1.427.057 2.27.329.684.22 1.266.495 1.746.826.475.32.847.687 1.116 1.101.27.413.429.867.48 1.361.053.487-.008 1-.181 1.539zm-4.023-1.76a1.45 1.45 0 0 0 .049-.777 1.362 1.362 0 0 0-.366-.658 1.786 1.786 0 0 0-.72-.421 1.75 1.75 0 0 0-.829-.078 1.293 1.293 0 0 0-.671.324 1.455 1.455 0 0 0-.413.66 1.445 1.445 0 0 0-.049.776c.055.244.174.462.355.655.183.185.423.325.72.42.288.093.565.119.829.079.26-.051.487-.158.682-.321.188-.166.325-.386.413-.659zm-45.135 88.934c-.153.184-.321.288-.506.312-.191.018-.382-.051-.573-.209l-.72-.594-1.881 2.281c-.157.191-.324.311-.501.362-.171.045-.343-.004-.515-.146a1.067 1.067 0 0 1-.262-.34 4.199 4.199 0 0 1-.226-.667l-1.579-5.553a1.31 1.31 0 0 1-.059-.53.84.84 0 0 1 .195-.444.72.72 0 0 1 .476-.275c.178-.029.369.041.572.209l3.776 3.114.374-.452c.147-.179.299-.275.456-.291.156-.026.315.027.475.159.16.132.245.28.255.443.009.152-.061.318-.208.496l-.373.452.72.594c.191.158.296.332.314.523.012.186-.058.371-.21.556zm-2.777-1.298l-2.881-2.376.221-.268 1.397 4.814-.314-.259 1.577-1.911zm5.312-1.926c-.132.16-.279.25-.442.272a.671.671 0 0 1-.475-.176c-.161-.132-.245-.274-.254-.426-.004-.158.06-.318.192-.478l.853-1.034-4.533-3.739.472-.572-.298 2.035a.692.692 0 0 1-.191.401.678.678 0 0 1-.342.152.778.778 0 0 1-.373-.075.632.632 0 0 1-.28-.262.704.704 0 0 1-.061-.454l.285-1.906c.028-.184.068-.358.12-.521a1.08 1.08 0 0 1 .199-.411.617.617 0 0 1 .377-.231c.139-.031.288.02.448.152l5.152 4.25.777-.942c.132-.16.273-.25.424-.271.157-.026.315.027.475.159.16.132.245.28.255.443.015.157-.044.316-.176.476l-2.604 3.158zm-76.775 60.593c-.2.132-.392.181-.575.149-.188-.039-.35-.162-.485-.369l-.512-.781-2.472 1.622c-.207.136-.402.202-.586.198-.177-.008-.327-.105-.449-.292a1.094 1.094 0 0 1-.15-.403 4.311 4.311 0 0 1-.018-.703l.135-5.772c.002-.201.035-.376.101-.524a.834.834 0 0 1 .318-.366.72.72 0 0 1 .535-.122c.179.026.341.148.485.369l2.685 4.092.491-.321c.193-.127.367-.175.522-.143.157.022.292.119.406.292.114.174.151.34.113.499-.037.148-.152.285-.345.412l-.491.322.512.781c.136.206.185.404.146.592-.044.181-.166.337-.366.468zm-2.268-2.061l-2.049-3.122.29-.191-.09 5.012-.223-.34 2.072-1.359zm7.011-1.022a5.73 5.73 0 0 1-1.213.596c-.448.16-.877.241-1.286.242a.805.805 0 0 1-.468-.123.654.654 0 0 1-.25-.293.688.688 0 0 1-.027-.369.605.605 0 0 1 .205-.321.816.816 0 0 1 .449-.166c.37-.032.704-.098 1.001-.198a4.03 4.03 0 0 0 .84-.422c.293-.193.514-.395.661-.606.148-.211.219-.43.214-.656a1.225 1.225 0 0 0-.22-.685c-.219-.334-.495-.506-.827-.517-.329-.023-.707.106-1.134.386l-.641.42c-.187.123-.361.17-.522.143-.155-.032-.287-.132-.396-.299-.11-.166-.148-.327-.116-.482.039-.159.152-.3.338-.422l.521-.342a1.9 1.9 0 0 0 .571-.546c.124-.205.185-.417.184-.636 0-.22-.073-.439-.217-.659-.202-.307-.458-.473-.77-.497-.305-.029-.651.083-1.038.337a3.164 3.164 0 0 0-.642.55 3.298 3.298 0 0 0-.507.776.651.651 0 0 1-.291.32.53.53 0 0 1-.355.047.634.634 0 0 1-.511-.495.677.677 0 0 1 .06-.454c.164-.375.389-.723.675-1.044.281-.328.605-.612.972-.853.487-.319.954-.516 1.402-.59.443-.081.846-.04 1.21.122.367.151.679.423.937.816.184.281.299.572.345.876a1.984 1.984 0 0 1-.546 1.676l-.079-.12c.533-.236 1.038-.28 1.515-.135.472.138.864.444 1.175.918.271.413.404.842.398 1.284-.005.443-.143.872-.414 1.288-.275.41-.676.788-1.203 1.133zm-64.102 31.163c.053.233.033.43-.062.591-.102.162-.274.271-.515.326l-.91.207.657 2.882c.055.241.048.447-.019.618-.069.163-.213.27-.431.319a1.087 1.087 0 0 1-.43 0 4.306 4.306 0 0 1-.665-.229l-5.361-2.142a1.31 1.31 0 0 1-.456-.277.84.84 0 0 1-.232-.426.723.723 0 0 1 .072-.544c.087-.159.258-.268.515-.326l4.773-1.087-.13-.572c-.052-.225-.035-.405.049-.539.074-.14.213-.233.415-.279.202-.046.371-.023.507.069.126.086.214.242.266.467l.13.572.91-.207c.241-.055.443-.031.605.071.155.104.259.272.312.506zm-2.724 1.406l-3.641.829-.077-.339 4.665 1.835-.397.09-.55-2.415zm1.13-8.403c.054.233.033.43-.061.591-.103.162-.274.271-.515.325l-.911.208.657 2.882c.055.241.049.447-.019.618-.069.163-.213.27-.43.319a1.088 1.088 0 0 1-.43 0 4.384 4.384 0 0 1-.666-.229l-5.361-2.142a1.32 1.32 0 0 1-.456-.277.84.84 0 0 1-.232-.426.718.718 0 0 1 .073-.544c.086-.159.258-.268.515-.326l4.772-1.087-.13-.572c-.051-.226-.035-.405.049-.539.075-.14.213-.233.415-.279.203-.046.372-.023.507.069.126.086.215.242.266.467l.13.572.91-.207c.242-.055.443-.032.606.071.154.104.258.272.311.506zm-2.723 1.406l-3.641.829-.077-.339 4.664 1.835-.396.09-.55-2.415zm10.317-52.409c.053.233.033.43-.062.591-.102.162-.274.271-.515.326l-.91.207.657 2.882c.055.241.048.447-.019.618-.069.163-.213.27-.431.319a1.087 1.087 0 0 1-.43 0 4.306 4.306 0 0 1-.665-.229l-5.361-2.142a1.31 1.31 0 0 1-.456-.277.84.84 0 0 1-.232-.426.723.723 0 0 1 .072-.544c.087-.159.258-.268.515-.326l4.773-1.087-.13-.572c-.052-.225-.035-.405.049-.539.074-.14.213-.233.415-.279.202-.046.371-.023.507.069.126.086.214.242.266.467l.13.572.91-.207c.241-.055.443-.031.605.071.155.104.259.272.312.506zm-2.724 1.406l-3.641.829-.077-.339 4.665 1.835-.397.09-.55-2.415zm1.385-7.394c.154.677.127 1.293-.082 1.848-.219.549-.603 1.017-1.154 1.404-.55.388-1.257.679-2.12.876-.7.16-1.336.223-1.909.189-.581-.039-1.094-.168-1.536-.386a3.037 3.037 0 0 1-1.104-.915 3.756 3.756 0 0 1-.632-1.427 3.576 3.576 0 0 1-.074-1.076c.02-.381.099-.751.239-1.11a.56.56 0 0 1 .247-.314.706.706 0 0 1 .371-.097.67.67 0 0 1 .352.092.54.54 0 0 1 .233.266.674.674 0 0 1-.012.433 3.08 3.08 0 0 0-.157.821c-.009.247.013.488.066.721.103.451.295.809.576 1.072.281.263.65.429 1.107.497.456.06.998.018 1.629-.126l.875-.199.032.14a2.466 2.466 0 0 1-1.103-.154 2.01 2.01 0 0 1-.829-.621 2.343 2.343 0 0 1-.47-.986 2.414 2.414 0 0 1 .051-1.337c.143-.417.388-.776.737-1.076.349-.301.78-.509 1.294-.626a2.945 2.945 0 0 1 1.503.026c.464.131.863.376 1.198.733.326.352.55.796.672 1.332zm-1.172.353a1.442 1.442 0 0 0-.354-.692 1.29 1.29 0 0 0-.639-.383 1.81 1.81 0 0 0-.834.006 1.748 1.748 0 0 0-.753.356 1.29 1.29 0 0 0-.411.621 1.38 1.38 0 0 0-.031.781c.064.28.186.51.366.69.172.181.385.309.639.382.252.065.53.063.834-.006.295-.067.546-.186.753-.356.197-.176.334-.383.411-.621.077-.238.083-.498.019-.778zm56.066-30.011c-.177.161-.358.24-.545.237-.191-.009-.37-.105-.537-.287l-.628-.691-2.186 1.991c-.183.166-.365.262-.547.288-.176.02-.339-.053-.49-.218a1.085 1.085 0 0 1-.211-.374 4.326 4.326 0 0 1-.129-.692l-.775-5.721a1.32 1.32 0 0 1 .017-.533.837.837 0 0 1 .256-.412.721.721 0 0 1 .51-.205c.181-.003.36.093.537.288l3.296 3.619.433-.395c.172-.156.336-.23.494-.223.158-.004.307.071.447.225.139.153.203.311.189.474-.012.152-.104.306-.275.462l-.434.395.629.69c.166.183.245.37.236.562-.014.185-.11.359-.287.52zm-2.565-1.679l-2.514-2.76.257-.234.7 4.963-.274-.3 1.831-1.669zm6.94-2.273a5.205 5.205 0 0 1-1.068.746c-.4.213-.813.358-1.241.434a.78.78 0 0 1-.455-.038.762.762 0 0 1-.293-.268.7.7 0 0 1-.093-.369.568.568 0 0 1 .135-.349.748.748 0 0 1 .4-.219c.331-.075.638-.182.922-.321.283-.139.551-.324.805-.556.248-.225.42-.463.516-.712.097-.25.12-.498.069-.743a1.456 1.456 0 0 0-.366-.686c-.301-.331-.643-.505-1.026-.523-.389-.023-.757.123-1.105.44a2.14 2.14 0 0 0-.46.597c-.124.22-.201.485-.232.794-.01.096-.035.205-.075.327a.783.783 0 0 1-.209.304c-.147.134-.294.198-.441.191-.146-.007-.281-.078-.405-.214l-2.635-2.893c-.145-.16-.214-.318-.207-.476.008-.169.092-.326.251-.471l2.911-2.651c.159-.145.318-.214.476-.207.158-.004.307.071.447.224.134.148.195.303.181.466-.007.158-.09.31-.25.455l-2.3 2.095 1.805 1.982-.292.266a2.027 2.027 0 0 1 .175-1.034 2.76 2.76 0 0 1 .679-.926c.395-.36.815-.586 1.26-.678a2.29 2.29 0 0 1 1.318.079c.434.144.831.414 1.191.809.37.407.607.85.709 1.33.096.473.054.954-.127 1.442-.181.478-.504.929-.97 1.353zm43.22-50.529c-.107.214-.248.353-.423.416-.182.061-.384.036-.605-.075l-.834-.419-1.326 2.642c-.111.221-.247.376-.408.465-.157.082-.335.073-.535-.028a1.073 1.073 0 0 1-.331-.273 4.173 4.173 0 0 1-.369-.6l-2.775-5.062a1.298 1.298 0 0 1-.176-.504.843.843 0 0 1 .091-.476.722.722 0 0 1 .402-.374c.168-.067.37-.042.605.076l4.375 2.196.263-.524c.104-.207.231-.336.381-.385.146-.061.312-.044.497.049.186.093.302.218.348.375.042.146.012.323-.092.53l-.263.524.834.418c.221.111.362.258.422.44.054.178.027.375-.081.589zm-2.996-.647l-3.338-1.675.156-.31 2.434 4.382-.363-.183 1.111-2.214zm4.626-2.815c-.114.228-.248.371-.402.428-.157.046-.335.019-.535-.082a.785.785 0 0 1-.304-.273 2.13 2.13 0 0 1-.225-.461l-1.21-3.299c-.177-.499-.369-.89-.576-1.173a2.125 2.125 0 0 0-.748-.643c-.357-.179-.685-.201-.985-.066-.296.128-.552.406-.767.834a2.926 2.926 0 0 0-.258.781 2.84 2.84 0 0 0-.028.91c.021.171-.004.31-.075.417a.585.585 0 0 1-.284.219.703.703 0 0 1-.707-.167.7.7 0 0 1-.181-.412 3.964 3.964 0 0 1 .045-1.263c.086-.439.226-.851.419-1.236.272-.542.583-.957.933-1.246.35-.288.731-.45 1.141-.485.411-.035.84.06 1.29.286.299.15.566.347.802.59.238.236.454.527.646.873.196.339.379.748.549 1.227l1.088 3.063-.364-.183 1.578-3.144c.097-.193.217-.316.359-.369.143-.054.307-.034.493.059.185.093.303.215.352.365.05.15.027.321-.07.514l-1.976 3.936zm18.955-54.42c-.029.237-.116.415-.259.534-.151.118-.35.162-.595.131l-.927-.115-.364 2.934c-.031.245-.107.437-.228.574-.121.13-.292.181-.514.153a1.075 1.075 0 0 1-.404-.146 4.423 4.423 0 0 1-.548-.442l-4.31-3.841a1.315 1.315 0 0 1-.335-.415.847.847 0 0 1-.073-.479.719.719 0 0 1 .254-.487c.135-.12.334-.164.595-.132l4.857.604.073-.582c.028-.229.105-.393.23-.49.117-.106.279-.146.485-.12.206.025.357.104.453.237.089.124.119.3.091.53l-.073.582.927.115c.245.03.427.121.545.273.11.15.15.344.12.582zm-3.039.394l-3.706-.461.043-.345 3.761 3.314-.404-.05.306-2.458zm3.782-6.171c-.123.99-.59 1.7-1.399 2.13-.817.429-1.918.557-3.304.385-.934-.116-1.704-.328-2.309-.637-.612-.317-1.052-.721-1.32-1.213-.268-.5-.361-1.078-.279-1.735.124-.998.582-1.709 1.375-2.133.793-.432 1.886-.561 3.28-.388.926.115 1.699.332 2.319.65.613.309 1.062.711 1.346 1.204.276.493.373 1.072.291 1.737zm-1.247-.155c.066-.538-.134-.965-.601-1.281-.466-.323-1.23-.55-2.291-.682s-1.845-.097-2.353.105c-.514.194-.805.559-.872 1.098-.066.53.126.956.577 1.278.442.32 1.194.546 2.255.678s1.857.098 2.389-.101c.531-.2.83-.564.896-1.095zM660.843 129.212c-.051.428-.16.864-.327 1.311a3.842 3.842 0 0 1-.644 1.139.805.805 0 0 1-.395.278.65.65 0 0 1-.386.001.682.682 0 0 1-.3-.217.601.601 0 0 1-.112-.363.805.805 0 0 1 .163-.45c.213-.304.378-.601.493-.893.108-.292.181-.597.219-.914.042-.348.03-.647-.036-.896a1.086 1.086 0 0 0-.363-.587 1.225 1.225 0 0 0-.666-.273c-.396-.048-.706.051-.928.298-.23.237-.375.609-.437 1.116l-.092.761c-.026.221-.102.385-.228.49-.124.098-.285.135-.483.111-.198-.024-.346-.098-.443-.223-.097-.132-.132-.309-.105-.531l.075-.617c.036-.301.02-.565-.05-.79a1.212 1.212 0 0 0-.367-.551 1.193 1.193 0 0 0-.644-.258c-.364-.045-.656.045-.876.267-.219.215-.356.552-.412 1.011-.035.294-.033.575.007.845.032.261.121.557.266.888a.65.65 0 0 1 .057.429.534.534 0 0 1-.194.302.669.669 0 0 1-.33.141.631.631 0 0 1-.377-.07.686.686 0 0 1-.309-.338 3.97 3.97 0 0 1-.363-1.19 4.58 4.58 0 0 1-.024-1.292c.07-.579.221-1.063.453-1.453.224-.39.515-.673.874-.846.351-.183.761-.246 1.228-.189.333.04.63.14.892.3.254.16.462.366.625.618.162.253.263.547.303.881l-.143-.017c.164-.559.456-.974.874-1.245.411-.272.897-.374 1.46-.306.491.06.904.234 1.238.524.335.289.574.672.718 1.147.135.475.165 1.025.089 1.651zm.882-7.291c-.12.99-.584 1.702-1.391 2.135-.816.431-1.917.563-3.303.396-.935-.113-1.705-.323-2.311-.629-.613-.315-1.055-.718-1.325-1.209-.269-.499-.364-1.077-.284-1.734.12-.998.576-1.711 1.367-2.138.792-.434 1.885-.567 3.279-.399.927.112 1.701.326 2.322.643.613.307 1.063.707 1.349 1.199.278.492.377 1.071.297 1.736zm-1.248-.151c.065-.538-.136-.965-.605-1.278-.467-.322-1.232-.547-2.293-.675-1.061-.129-1.846-.091-2.352.113-.514.195-.804.562-.869 1.1-.064.531.13.956.581 1.276.444.319 1.196.543 2.258.671 1.061.128 1.857.092 2.388-.109.531-.201.828-.567.892-1.098zm-56.037-9.3c-.007.255-.068.441-.183.557-.123.109-.296.16-.519.154a.803.803 0 0 1-.392-.119 2.13 2.13 0 0 1-.398-.322l-2.494-2.476c-.372-.378-.712-.651-1.018-.819a2.135 2.135 0 0 0-.951-.266c-.399-.011-.705.108-.92.358-.214.241-.328.601-.341 1.08-.008.271.025.543.097.817.064.273.184.552.36.836.092.146.128.283.108.41a.589.589 0 0 1-.164.319.68.68 0 0 1-.328.17.695.695 0 0 1-.383-.022.705.705 0 0 1-.339-.297 3.977 3.977 0 0 1-.494-1.163 4.799 4.799 0 0 1-.144-1.297c.017-.607.123-1.114.318-1.524.195-.41.471-.717.828-.923.357-.205.786-.301 1.289-.287.335.009.66.074.976.194.316.113.635.285.956.518.321.224.66.517 1.017.878l2.282 2.315-.407-.012.098-3.517c.006-.215.063-.377.169-.486.107-.109.264-.161.472-.155.207.006.365.066.473.181.109.115.16.28.154.495l-.122 4.403zm.375-9.168c-.019.654-.126 1.213-.323 1.679-.204.457-.489.808-.855 1.054-.366.237-.8.349-1.302.335a2.224 2.224 0 0 1-1.046-.269 2.057 2.057 0 0 1-.735-.703 2.27 2.27 0 0 1-.332-.991l.251.007c-.125.508-.38.912-.764 1.212-.391.293-.85.432-1.376.417-.479-.013-.882-.144-1.21-.393-.337-.249-.587-.595-.75-1.038-.171-.444-.248-.961-.232-1.551.017-.599.123-1.114.318-1.548.188-.434.457-.766.806-.995.342-.23.752-.339 1.23-.325.351.009.672.09.964.242.291.144.529.346.713.606.185.253.304.548.359.884l-.24-.006c.096-.556.343-1 .744-1.332.392-.341.884-.503 1.474-.486.502.014.93.153 1.281.418.352.258.618.624.796 1.1.171.468.247 1.029.229 1.683zm-1.197-.034c.016-.566-.08-.996-.287-1.289-.216-.293-.539-.446-.969-.458-.431-.012-.758.123-.981.404-.224.281-.343.705-.359 1.271-.015.559.08.988.288 1.289.207.293.526.446.957.458.43.012.761-.123.993-.403.223-.29.343-.713.358-1.272zm-3.792-.105a2.064 2.064 0 0 0-.121-.817 1.172 1.172 0 0 0-.429-.527 1.235 1.235 0 0 0-.665-.198c-.382-.011-.685.116-.908.382-.231.257-.353.62-.366 1.091-.013.47.089.84.305 1.11.208.269.503.409.886.42.391.01.701-.113.932-.37.231-.257.353-.62.366-1.091zm-39.422-2.566c-.001.256-.057.443-.169.562-.12.112-.291.167-.515.167a.809.809 0 0 1-.395-.109 2.159 2.159 0 0 1-.406-.312l-2.555-2.412c-.382-.367-.729-.632-1.04-.792a2.12 2.12 0 0 0-.957-.241c-.399-.001-.702.126-.91.38-.208.247-.313.61-.314 1.089 0 .271.039.542.118.814.071.271.198.547.381.827.095.143.135.279.119.407a.588.588 0 0 1-.157.323.676.676 0 0 1-.323.178.685.685 0 0 1-.383-.013.693.693 0 0 1-.346-.288 3.939 3.939 0 0 1-.524-1.15 4.795 4.795 0 0 1-.177-1.293c.002-.606.094-1.116.279-1.531.184-.415.452-.729.804-.944.352-.214.779-.321 1.281-.32.335.001.662.058.981.17.319.105.642.269.969.493.326.216.673.5 1.039.852l2.34 2.256-.406-.001.008-3.519c0-.215.052-.379.156-.49.104-.112.26-.167.468-.167.207 0 .366.057.478.169.111.112.167.276.166.491l-.01 4.404zm.142-9.485c-.002.694-.167 1.288-.495 1.782-.336.485-.816.855-1.439 1.11-.623.253-1.377.38-2.263.377-.718-.002-1.352-.083-1.902-.244-.558-.169-1.028-.41-1.411-.721a3.054 3.054 0 0 1-.871-1.14 3.77 3.77 0 0 1-.295-1.532 3.57 3.57 0 0 1 .17-1.065c.104-.366.265-.71.481-1.028a.56.56 0 0 1 .312-.25.695.695 0 0 1 .383-.011.66.66 0 0 1 .322.168c.088.08.144.184.167.311a.67.67 0 0 1-.108.42 3.07 3.07 0 0 0-.337.764 2.77 2.77 0 0 0-.098.718c-.001.463.106.854.321 1.174.214.32.537.564.967.732.431.16.969.242 1.616.243l.897.002v.144a2.472 2.472 0 0 1-1.041-.397 2.009 2.009 0 0 1-.668-.792 2.345 2.345 0 0 1-.237-1.066 2.41 2.41 0 0 1 .35-1.291 2.44 2.44 0 0 1 .96-.884c.407-.214.874-.32 1.401-.32a2.955 2.955 0 0 1 1.459.363c.422.232.757.56 1.003.983.239.416.357.899.356 1.45zm-1.221.08a1.45 1.45 0 0 0-.19-.754 1.288 1.288 0 0 0-.537-.516c-.239-.12-.51-.18-.814-.181a1.75 1.75 0 0 0-.814.177c-.232.12-.411.29-.54.514a1.389 1.389 0 0 0-.205.753c-.001.287.067.539.202.755.127.215.306.387.537.516.231.12.502.18.814.181.303 0 .574-.058.814-.178a1.4 1.4 0 0 0 .54-.513c.128-.215.192-.466.193-.754zm-67.335 10.089c.007.256-.044.444-.152.567-.117.115-.287.176-.51.182a.81.81 0 0 1-.398-.097 2.11 2.11 0 0 1-.415-.3l-2.626-2.335c-.393-.356-.747-.61-1.062-.761a2.128 2.128 0 0 0-.964-.213c-.399.01-.698.147-.899.407-.2.253-.294.62-.281 1.098.007.271.055.541.142.81.079.269.214.541.405.815.1.141.144.275.131.403a.587.587 0 0 1-.147.328.675.675 0 0 1-.318.188.702.702 0 0 1-.383-.001.706.706 0 0 1-.355-.278 4.024 4.024 0 0 1-.558-1.134 4.802 4.802 0 0 1-.214-1.287c-.017-.607.061-1.12.233-1.54.172-.42.431-.741.776-.966.345-.225.769-.345 1.271-.358.335-.01.664.037.986.14.322.095.649.25.982.464.333.207.688.48 1.064.821l2.407 2.185-.407.012-.096-3.518c-.006-.215.041-.38.142-.495.1-.114.254-.174.462-.18.207-.005.368.046.483.155.115.108.175.27.181.486l.12 4.402zm-.192-10.526c.007.24-.052.429-.176.568-.132.14-.321.212-.568.219l-.934.025.081 2.955c.007.248-.04.448-.139.603-.1.146-.261.222-.485.229a1.087 1.087 0 0 1-.421-.085 4.264 4.264 0 0 1-.608-.354l-4.84-3.149a1.31 1.31 0 0 1-.392-.36.838.838 0 0 1-.145-.463.72.72 0 0 1 .178-.52c.115-.139.305-.212.568-.219l4.893-.133-.016-.587c-.006-.23.045-.404.154-.519.1-.122.254-.186.462-.192.207-.005.368.05.483.167.107.108.163.278.17.51l.016.586.933-.026c.247-.006.44.056.58.188.131.132.2.318.206.557zm-2.946.847l-3.732.102-.01-.347 4.217 2.71-.407.012-.068-2.477zm-69.393 9.785c-.011.255-.075.439-.192.554-.125.106-.299.155-.522.145a.788.788 0 0 1-.389-.126 2.104 2.104 0 0 1-.393-.328l-2.452-2.517c-.366-.384-.702-.662-1.005-.836a2.126 2.126 0 0 0-.946-.281c-.399-.018-.707.096-.926.342-.218.238-.338.596-.359 1.074-.012.271.016.544.083.819.06.274.175.554.346.842.09.147.123.285.102.411a.58.58 0 0 1-.17.316.675.675 0 0 1-.331.165.684.684 0 0 1-.382-.029.697.697 0 0 1-.334-.302 3.974 3.974 0 0 1-.475-1.171 4.835 4.835 0 0 1-.122-1.3c.027-.605.141-1.111.343-1.518.202-.406.483-.709.843-.909.36-.2.792-.288 1.294-.266.335.015.659.086.973.211.314.118.63.296.946.533.318.23.652.529 1.003.896l2.244 2.352-.407-.019.156-3.515c.01-.215.069-.376.177-.483.109-.107.267-.156.474-.147.207.01.364.072.471.189.107.117.155.282.146.498l-.196 4.4zm.319-7.17c-.012.255-.076.44-.193.555-.124.106-.298.154-.521.144a.794.794 0 0 1-.39-.125 2.162 2.162 0 0 1-.393-.329l-2.452-2.517c-.366-.383-.701-.662-1.005-.835a2.124 2.124 0 0 0-.946-.281c-.398-.018-.707.096-.926.342-.218.238-.337.596-.359 1.074-.012.271.016.544.084.818.059.275.175.555.346.842.089.148.123.285.101.412a.583.583 0 0 1-.17.316.675.675 0 0 1-.33.165.695.695 0 0 1-.382-.029.695.695 0 0 1-.334-.302 3.98 3.98 0 0 1-.476-1.171 4.833 4.833 0 0 1-.122-1.3c.027-.605.142-1.111.343-1.518.202-.406.483-.71.843-.909.361-.2.792-.288 1.294-.266.335.015.659.085.973.211.314.118.63.296.947.533.317.23.651.528 1.002.895l2.244 2.352-.407-.018.157-3.515c.009-.215.068-.376.177-.483.108-.107.266-.156.474-.147.207.01.364.072.47.189.107.116.156.282.146.497l-.195 4.4zm-58.985 13.612c.016.255-.027.446-.131.572-.112.12-.28.187-.503.201a.787.787 0 0 1-.401-.082 2.11 2.11 0 0 1-.426-.284l-2.713-2.233c-.406-.341-.769-.581-1.09-.72a2.116 2.116 0 0 0-.971-.177c-.398.026-.693.173-.883.442-.191.26-.271.629-.239 1.107.017.271.075.539.172.804.089.266.235.533.436.799.105.137.154.27.146.398a.585.585 0 0 1-.134.333.684.684 0 0 1-.311.2.692.692 0 0 1-.383.013.702.702 0 0 1-.365-.264 3.978 3.978 0 0 1-.6-1.112 4.787 4.787 0 0 1-.264-1.278c-.039-.605.019-1.121.175-1.547.156-.426.402-.757.739-.995.336-.238.755-.374 1.256-.406.335-.022.665.012.991.103.325.083.658.225.999.426.34.194.705.454 1.094.78l2.488 2.093-.406.026-.23-3.511c-.014-.215.027-.382.124-.5.096-.118.247-.184.454-.197.207-.014.37.031.489.136.119.104.185.263.199.478l.288 4.395zm-.479-9.163c.065.995-.26 1.78-.974 2.354-.722.575-1.78.908-3.173.999-.94.062-1.735-.002-2.387-.191-.661-.197-1.169-.512-1.525-.944-.357-.441-.557-.991-.6-1.652-.066-1.003.251-1.788.95-2.353.698-.573 1.748-.906 3.149-.997.931-.061 1.731.006 2.4.203.66.188 1.176.498 1.548.93.364.432.568.982.612 1.65zm-1.254.082c-.036-.541-.313-.923-.831-1.145-.519-.23-1.312-.31-2.378-.24-1.067.07-1.831.251-2.292.545-.469.287-.685.7-.65 1.242.035.533.304.916.807 1.147.494.231 1.275.312 2.342.242 1.067-.07 1.843-.252 2.327-.548.485-.295.709-.71.675-1.243zm-53.079 10.259c.006.208-.046.373-.154.495a.677.677 0 0 1-.474.181c-.208.005-.365-.046-.471-.155-.107-.117-.164-.279-.169-.486l-.037-1.34-5.874.16-.02-.742 1.112 1.73a.694.694 0 0 1 .12.427.666.666 0 0 1-.159.34.768.768 0 0 1-.33.189.636.636 0 0 1-.383-.014.699.699 0 0 1-.344-.302l-1.038-1.624a3.33 3.33 0 0 1-.252-.472 1.092 1.092 0 0 1-.12-.44.621.621 0 0 1 .133-.422c.084-.114.23-.174.438-.18l6.675-.182-.033-1.22c-.005-.207.042-.368.143-.483.1-.122.254-.186.461-.192.208-.006.369.05.484.167.115.108.175.266.18.474l.112 4.091zm-.123-8.899c.018.654-.058 1.218-.229 1.694-.179.468-.444.834-.796 1.099-.352.257-.78.392-1.282.406a2.234 2.234 0 0 1-1.06-.21 2.073 2.073 0 0 1-.772-.662 2.262 2.262 0 0 1-.385-.971l.251-.007c-.098.514-.33.931-.696 1.252-.375.314-.826.478-1.352.492-.478.013-.888-.096-1.23-.326-.349-.23-.618-.562-.805-.995-.196-.434-.301-.946-.318-1.536-.016-.598.062-1.12.233-1.563.164-.444.414-.79.75-1.038.329-.249.732-.38 1.211-.392.351-.01.676.053.975.189.298.127.547.316.745.566.199.242.334.53.407.863l-.239.006c.064-.56.287-1.017.669-1.37.373-.362.855-.55 1.445-.567.503-.013.937.102 1.303.348.365.237.65.589.854 1.054.196.458.303 1.014.321 1.668zm-1.196.032c-.016-.566-.135-.99-.358-1.271-.231-.281-.562-.416-.993-.404-.431.011-.75.164-.957.457-.208.293-.304.722-.288 1.289.015.558.134.982.358 1.271.223.281.55.416.98.404.431-.011.754-.164.97-.457.207-.301.303-.731.288-1.289zm-3.793.103a2.065 2.065 0 0 0-.165-.81 1.17 1.17 0 0 0-.457-.502 1.239 1.239 0 0 0-.675-.16c-.383.01-.678.153-.886.43-.216.27-.318.64-.305 1.11.013.471.134.835.365 1.092.222.257.525.38.908.37.391-.011.694-.151.91-.42.216-.269.318-.639.305-1.11zm-53.001 21.472c.046.202.028.374-.055.516a.674.674 0 0 1-.429.269c-.202.046-.367.026-.493-.059-.127-.094-.214-.242-.26-.444l-.298-1.307-5.73 1.305-.164-.724 1.429 1.479c.119.128.186.26.201.396a.672.672 0 0 1-.089.364.77.77 0 0 1-.287.25.631.631 0 0 1-.379.061.692.692 0 0 1-.396-.229l-1.335-1.389a3.45 3.45 0 0 1-.34-.414 1.096 1.096 0 0 1-.203-.408.619.619 0 0 1 .047-.44c.061-.129.192-.216.394-.262l6.512-1.483-.271-1.19c-.046-.203-.031-.37.045-.502.075-.139.213-.232.415-.278.203-.046.372-.023.507.068.134.085.224.228.27.43l.909 3.991zm-1.543-7.205a.749.749 0 0 1-.027.473.525.525 0 0 1-.291.287c-.142.057-.314.059-.514.006l-7.431-2.014.514-.117.861 3.781c.048.21.03.386-.052.527-.084.134-.223.223-.418.267-.202.046-.37.027-.504-.057-.135-.092-.227-.243-.275-.453l-1.028-4.516a.8.8 0 0 1 .046-.551c.079-.157.219-.258.422-.304.171-.039.328-.051.471-.034.135.018.285.05.451.094l7.091 1.871c.19.046.341.131.45.253.108.115.186.277.234.487zm168.923 436.777c-.878 0-1.632-.175-2.262-.526a3.634 3.634 0 0 1-1.437-1.508c-.335-.655-.502-1.425-.502-2.31 0-.663.095-1.257.287-1.784a3.79 3.79 0 0 1 .826-1.364 3.505 3.505 0 0 1 1.316-.874 4.81 4.81 0 0 1 1.772-.311c.438 0 .869.056 1.292.168.423.111.794.271 1.113.478a.768.768 0 0 1 .335.383.728.728 0 0 1 .036.431.672.672 0 0 1-.203.347.596.596 0 0 1-.371.168c-.144.008-.304-.044-.479-.156a2.677 2.677 0 0 0-.802-.347 3.575 3.575 0 0 0-.874-.107c-.566 0-1.045.115-1.436.347a2.175 2.175 0 0 0-.885 1.005c-.2.439-.3.977-.3 1.616 0 .63.1 1.169.3 1.615.199.447.494.786.885 1.018.391.231.87.347 1.436.347.304 0 .603-.036.898-.108.295-.08.574-.199.838-.359.175-.104.331-.148.467-.132a.56.56 0 0 1 .359.144.646.646 0 0 1 .191.335.716.716 0 0 1-.024.407.757.757 0 0 1-.287.359 3.658 3.658 0 0 1-1.149.539 5.102 5.102 0 0 1-1.34.179zm5.022-.12c-.263 0-.466-.067-.61-.203-.136-.144-.203-.347-.203-.61v-6.81c0-.264.067-.463.203-.599.144-.143.347-.215.61-.215h4.273c.2 0 .351.052.455.155.112.104.167.252.167.443 0 .2-.055.355-.167.467-.104.104-.255.156-.455.156h-3.614v2.321h3.351c.207 0 .363.052.467.156.103.104.155.255.155.455 0 .199-.052.351-.155.455-.104.103-.26.155-.467.155h-3.351v2.454h3.614c.2 0 .351.052.455.155.112.104.167.256.167.455 0 .2-.055.351-.167.455-.104.104-.255.155-.455.155h-4.273zm7.046.096c-.232 0-.411-.064-.539-.191-.119-.128-.179-.311-.179-.551V543.4c0-.247.06-.435.179-.562a.645.645 0 0 1 .491-.204c.184 0 .319.036.407.108.096.064.207.175.335.335l4.584 5.948h-.311v-5.661c0-.231.06-.411.179-.538.128-.128.307-.192.539-.192.231 0 .407.064.526.192.12.127.18.307.18.538v7.181c0 .224-.056.399-.168.527a.573.573 0 0 1-.454.191.814.814 0 0 1-.443-.107 1.74 1.74 0 0 1-.347-.348l-4.572-5.948h.299v5.661c0 .24-.06.423-.18.551-.119.127-.295.191-.526.191zm11.035 0c-.247 0-.439-.068-.574-.203-.128-.144-.192-.339-.192-.587v-6.463h-2.334c-.207 0-.371-.055-.49-.167a.673.673 0 0 1-.168-.479c0-.207.056-.363.168-.467.119-.111.283-.167.49-.167h6.2c.207 0 .367.056.479.167.119.104.179.26.179.467 0 .2-.06.359-.179.479-.112.112-.272.167-.479.167h-2.334v6.463c0 .248-.064.443-.191.587-.128.135-.32.203-.575.203zm5.447-.096c-.263 0-.467-.067-.611-.203-.135-.144-.203-.347-.203-.61v-6.81c0-.264.068-.463.203-.599.144-.143.348-.215.611-.215h4.272c.2 0 .352.052.455.155.112.104.168.252.168.443 0 .2-.056.355-.168.467-.103.104-.255.156-.455.156h-3.614v2.321h3.351c.208 0 .363.052.467.156.104.104.156.255.156.455 0 .199-.052.351-.156.455-.104.103-.259.155-.467.155h-3.351v2.454h3.614c.2 0 .352.052.455.155.112.104.168.256.168.455 0 .2-.056.351-.168.455-.103.104-.255.155-.455.155h-4.272zm7.093.096c-.247 0-.439-.068-.574-.203-.128-.144-.192-.339-.192-.587v-6.965c0-.256.068-.447.204-.575.135-.135.327-.203.574-.203h2.884c.926 0 1.64.223 2.143.67.502.439.754 1.057.754 1.855 0 .519-.116.966-.347 1.341a2.164 2.164 0 0 1-.982.861c-.431.2-.953.3-1.568.3l.108-.18h.395c.327 0 .61.08.85.239.247.16.463.411.646.754l.898 1.664a.9.9 0 0 1 .131.491.556.556 0 0 1-.179.395c-.112.095-.275.143-.491.143a.958.958 0 0 1-.526-.131 1.228 1.228 0 0 1-.359-.431l-1.209-2.226c-.144-.272-.315-.451-.515-.539-.191-.096-.439-.144-.742-.144h-1.137v2.681c0 .248-.064.443-.191.587-.128.135-.32.203-.575.203zm.766-4.608h1.867c.551 0 .966-.111 1.245-.335.287-.231.431-.574.431-1.029 0-.447-.144-.782-.431-1.005-.279-.232-.694-.347-1.245-.347h-1.867v2.716zm10.7 4.512c-.247 0-.439-.067-.574-.203-.136-.144-.204-.339-.204-.586v-6.906c0-.255.064-.447.192-.575.135-.135.327-.203.574-.203.247 0 .435.068.563.203.135.128.203.32.203.575v6.391h3.471c.215 0 .379.056.491.168.119.111.179.271.179.478 0 .208-.06.371-.179.491-.112.112-.276.167-.491.167h-4.225zm6.709.096c-.248 0-.439-.068-.575-.203-.128-.144-.191-.339-.191-.587v-7.049c0-.255.063-.451.191-.586.136-.136.327-.204.575-.204.247 0 .434.068.562.204.136.135.203.331.203.586v7.049c0 .248-.063.443-.191.587-.128.135-.319.203-.574.203zm3.329 0c-.231 0-.411-.064-.538-.191-.12-.128-.18-.311-.18-.551V543.4c0-.247.06-.435.18-.562a.642.642 0 0 1 .491-.204c.183 0 .319.036.406.108.096.064.208.175.336.335l4.583 5.948h-.311v-5.661c0-.231.06-.411.18-.538.127-.128.307-.192.538-.192.232 0 .407.064.527.192.12.127.179.307.179.538v7.181c0 .224-.055.399-.167.527a.575.575 0 0 1-.455.191.818.818 0 0 1-.443-.107 1.793 1.793 0 0 1-.347-.348l-4.572-5.948h.3v5.661c0 .24-.06.423-.18.551-.12.127-.295.191-.527.191zm9.049-.096c-.263 0-.467-.067-.61-.203-.136-.144-.204-.347-.204-.61v-6.81c0-.264.068-.463.204-.599.143-.143.347-.215.61-.215h4.273c.199 0 .351.052.454.155.112.104.168.252.168.443 0 .2-.056.355-.168.467-.103.104-.255.156-.454.156h-3.615v2.321h3.351c.208 0 .363.052.467.156.104.104.156.255.156.455 0 .199-.052.351-.156.455-.104.103-.259.155-.467.155h-3.351v2.454h3.615c.199 0 .351.052.454.155.112.104.168.256.168.455 0 .2-.056.351-.168.455-.103.104-.255.155-.454.155h-4.273zm-127.179-213.17c0 .704-.056 1.408-.168 2.112a10.978 10.978 0 0 1-.456 1.992 8.192 8.192 0 0 1-.816 1.68 1.552 1.552 0 0 1-1.488.72 1.462 1.462 0 0 1-.696-.312 1.093 1.093 0 0 1-.384-.648c-.048-.256.024-.536.216-.84a8.2 8.2 0 0 0 .912-2.232c.192-.784.288-1.608.288-2.472 0-1.264-.208-2.184-.624-2.76-.432-.576-.984-.864-1.656-.864-.56 0-1 .208-1.32.624-.32.4-.584 1.096-.792 2.088l-.552 2.64c-.32 1.52-.856 2.656-1.608 3.408-.768.736-1.776 1.104-3.024 1.104-.784 0-1.496-.16-2.136-.48a4.954 4.954 0 0 1-1.656-1.344 6.263 6.263 0 0 1-1.056-2.088c-.256-.816-.384-1.712-.384-2.688 0-.96.12-1.872.36-2.736.24-.864.592-1.64 1.056-2.328.176-.256.392-.424.648-.504a1.41 1.41 0 0 1 .768-.072c.24.048.448.16.624.336.176.176.28.4.312.672.032.256-.048.552-.24.888a6.832 6.832 0 0 0-.72 1.8 8.527 8.527 0 0 0-.216 1.968c0 .736.104 1.368.312 1.896.208.528.504.936.888 1.224.368.272.808.408 1.32.408.576 0 1.04-.192 1.392-.576.336-.384.6-1.04.792-1.968l.552-2.616c.336-1.584.864-2.76 1.584-3.528.72-.784 1.68-1.176 2.88-1.176.768 0 1.464.16 2.088.48.624.304 1.16.752 1.608 1.344.448.576.792 1.272 1.032 2.088.24.816.36 1.736.36 2.76zm-.048-14.573c0 .496-.136.88-.408 1.152-.288.256-.68.384-1.176.384h-12.96v4.68c0 .416-.112.744-.336.984-.24.224-.56.336-.96.336-.416 0-.728-.112-.936-.336-.224-.24-.336-.568-.336-.984v-12.432c0-.416.112-.736.336-.96.208-.24.52-.36.936-.36.4 0 .72.12.96.36.224.224.336.544.336.96v4.68h12.96c.496 0 .888.128 1.176.384.272.256.408.64.408 1.152zm0-7.584c0 .384-.088.696-.264.936a1.08 1.08 0 0 1-.696.408c-.304.048-.64-.008-1.008-.168l-14.04-6.336c-.464-.208-.792-.456-.984-.744a1.785 1.785 0 0 1-.312-1.032c0-.368.104-.696.312-.984.192-.304.52-.56.984-.768l14.04-6.36c.368-.176.704-.24 1.008-.192.304.048.544.184.72.408.16.224.24.52.24.888 0 .448-.104.8-.312 1.056-.224.24-.56.456-1.008.648l-3.624 1.56.84-1.296v10.128l-.84-1.296 3.624 1.536c.464.208.8.424 1.008.648.208.224.312.544.312.96zm-13.776-6.888l7.992 3.36-.768.624v-8.016l.768.6-7.992 3.384v.048zm13.824-18.587c0 1.872-.352 3.456-1.056 4.752a7.062 7.062 0 0 1-3 2.928c-1.296.672-2.832 1.008-4.608 1.008-1.344 0-2.552-.192-3.624-.576-1.072-.4-1.984-.968-2.736-1.704-.768-.752-1.352-1.664-1.752-2.736-.416-1.072-.624-2.288-.624-3.648 0-.896.112-1.792.336-2.688a8.054 8.054 0 0 1 1.08-2.568c.176-.272.392-.448.648-.528.256-.096.52-.112.792-.048.256.064.48.184.672.36.192.176.312.4.36.672.048.256-.016.544-.192.864a7.308 7.308 0 0 0-.768 1.848c-.16.624-.24 1.32-.24 2.088 0 1.184.24 2.184.72 3 .464.816 1.144 1.432 2.04 1.848.896.4 1.992.6 3.288.6 1.968 0 3.464-.472 4.488-1.416 1.024-.944 1.536-2.344 1.536-4.2 0-.64-.064-1.288-.192-1.944a13.099 13.099 0 0 0-.528-1.92l1.368.6h-5.112v2.64c0 .4-.104.712-.312.936-.208.208-.488.312-.84.312-.368 0-.648-.104-.84-.312-.192-.224-.288-.536-.288-.936v-3.96c0-.4.112-.704.336-.912.208-.224.512-.336.912-.336h5.832c.352 0 .648.072.888.216.24.128.416.344.528.648.256.704.472 1.512.648 2.424.16.912.24 1.808.24 2.688zm-.24-11.168c0 .528-.136.936-.408 1.224-.288.272-.696.408-1.224.408h-13.656c-.528 0-.928-.136-1.2-.408-.288-.288-.432-.696-.432-1.224v-8.568c0-.4.104-.704.312-.912.208-.224.504-.336.888-.336.4 0 .712.112.936.336.208.208.312.512.312.912v7.248h4.656v-6.72c0-.416.104-.728.312-.936.208-.208.512-.312.912-.312s.704.104.912.312c.208.208.312.52.312.936v6.72h4.92v-7.248c0-.4.104-.704.312-.912.208-.224.512-.336.912-.336s.704.112.912.336c.208.208.312.512.312.912v8.568zm92.684 131.284a.52.52 0 0 1-.139.383.574.574 0 0 1-.393.125l-4.32-.033-.012 1.559a.465.465 0 0 1-.114.328.452.452 0 0 1-.321.109c-.139-.001-.243-.039-.311-.114a.463.463 0 0 1-.11-.329l.032-4.144c.001-.139.039-.245.114-.319.07-.08.175-.119.313-.118a.43.43 0 0 1 .319.123c.074.075.111.182.11.321l-.012 1.56 4.32.033a.57.57 0 0 1 .391.131c.09.086.134.214.133.385zm.019-2.528a.514.514 0 0 1-.09.311.36.36 0 0 1-.233.135.612.612 0 0 1-.336-.059l-4.663-2.148a.747.747 0 0 1-.326-.25.593.593 0 0 1 .005-.672.723.723 0 0 1 .33-.254l4.696-2.084a.574.574 0 0 1 .336-.061.365.365 0 0 1 .239.138.496.496 0 0 1 .078.296.539.539 0 0 1-.107.351.984.984 0 0 1-.337.214l-1.212.511.283-.43-.026 3.376-.277-.435 1.204.522c.155.07.266.143.335.218.069.076.102.182.101.321zm-4.574-2.331l2.655 1.14-.257.206.02-2.672.255.202-2.673 1.108v.016zm4.56-4.11c-.002.176-.048.311-.139.407-.097.09-.233.134-.409.132l-4.552-.034c-.176-.002-.309-.048-.399-.14-.095-.096-.142-.233-.141-.409l.015-1.92c.003-.394.064-.73.183-1.006.12-.277.29-.486.509-.628a1.35 1.35 0 0 1 .786-.218c.341.002.629.103.862.302.233.199.388.47.465.812l-.12-.001c.062-.394.214-.7.456-.917.241-.216.554-.323.938-.32.501.004.889.177 1.164.521.269.338.402.808.397 1.411l-.015 2.008zm-.773-.446l.011-1.44c.003-.363-.064-.63-.202-.802-.142-.172-.355-.259-.638-.261-.288-.002-.502.082-.642.251-.139.17-.211.436-.214.799l-.011 1.44 1.696.013zm-2.472-.019l.01-1.304c.003-.352-.062-.614-.194-.786-.137-.177-.339-.266-.606-.268-.266-.002-.467.084-.602.259-.14.17-.211.43-.214.782l-.01 1.304 1.616.013zm3.287-5.019a.52.52 0 0 1-.139.383.55.55 0 0 1-.393.133l-4.616-.036c-.171-.001-.298-.044-.383-.13-.09-.092-.134-.22-.133-.385.001-.166.048-.291.139-.375.086-.09.214-.135.385-.133l4.272.032.018-2.32c.001-.144.039-.253.114-.327.075-.079.182-.118.321-.117a.444.444 0 0 1 .327.122c.074.076.111.185.11.329l-.022 2.824zm.035-4.516c-.002.176-.048.312-.139.407-.097.09-.233.134-.409.133l-4.552-.035c-.176-.002-.309-.048-.399-.139-.096-.097-.143-.233-.141-.409l.022-2.856c.001-.134.036-.235.106-.303.07-.075.169-.111.297-.11a.422.422 0 0 1 .311.114c.069.07.103.172.102.305l-.019 2.416 1.552.012.017-2.24c.001-.139.037-.242.107-.311s.171-.103.305-.102c.133.001.234.037.303.106.069.07.102.175.101.313l-.017 2.24 1.64.013.019-2.416c.001-.134.036-.235.106-.303.07-.075.172-.111.305-.11.133.001.234.039.303.114.069.07.103.172.102.305l-.022 2.856zm.127-6.095c-.002.235-.023.47-.062.704a3.691 3.691 0 0 1-.157.663 2.738 2.738 0 0 1-.276.558.523.523 0 0 1-.498.236.483.483 0 0 1-.231-.106.366.366 0 0 1-.127-.217c-.015-.085.01-.178.075-.279.14-.234.243-.481.309-.742s.1-.535.103-.823c.003-.421-.064-.729-.201-.922a.664.664 0 0 0-.55-.292.526.526 0 0 0-.442.205c-.107.132-.197.363-.269.694l-.191.878c-.11.506-.292.883-.545 1.132-.257.243-.594.363-1.01.36a1.57 1.57 0 0 1-1.26-.617 2.099 2.099 0 0 1-.346-.699 2.945 2.945 0 0 1-.121-.897c.002-.32.044-.624.127-.911a2.61 2.61 0 0 1 .358-.773.407.407 0 0 1 .217-.167.479.479 0 0 1 .256-.022c.08.017.149.055.207.114a.368.368 0 0 1 .102.225.487.487 0 0 1-.082.295 2.27 2.27 0 0 0-.244.598c-.05.202-.076.421-.077.656-.002.245.031.456.099.632a.907.907 0 0 0 .293.411.718.718 0 0 0 .438.139.602.602 0 0 0 .466-.188c.113-.128.203-.346.269-.654l.191-.871c.116-.527.295-.918.537-1.172.242-.259.563-.388.963-.384.256.001.487.057.694.165.208.103.385.253.533.452.148.193.261.426.339.699.078.272.115.579.113.92zm-.209-154.936a.52.52 0 0 1-.139.383.574.574 0 0 1-.393.125l-4.32-.033-.012 1.559a.465.465 0 0 1-.114.328.452.452 0 0 1-.321.109c-.139-.001-.243-.039-.311-.114a.463.463 0 0 1-.11-.329l.032-4.144c.001-.139.039-.245.114-.319.07-.08.175-.119.313-.118a.43.43 0 0 1 .319.123c.074.075.111.182.11.321l-.012 1.56 4.32.033a.57.57 0 0 1 .391.131c.09.086.134.214.133.385zm.019-2.528a.514.514 0 0 1-.09.311.36.36 0 0 1-.233.135.612.612 0 0 1-.336-.059l-4.663-2.148a.747.747 0 0 1-.326-.25.593.593 0 0 1 .005-.672.723.723 0 0 1 .33-.254l4.696-2.084a.574.574 0 0 1 .336-.061.365.365 0 0 1 .239.138.496.496 0 0 1 .078.296.539.539 0 0 1-.107.351.984.984 0 0 1-.337.214l-1.212.511.283-.43-.026 3.376-.277-.435 1.204.522c.155.07.266.143.335.218.069.076.102.182.101.321zm-4.574-2.331l2.655 1.14-.257.206.02-2.672.255.202-2.673 1.108v.016zm4.56-4.11c-.002.176-.048.311-.139.407-.097.09-.233.134-.409.132l-4.552-.034c-.176-.002-.309-.048-.399-.14-.095-.096-.142-.233-.141-.409l.015-1.92c.003-.394.064-.73.183-1.006.12-.277.29-.486.509-.628a1.35 1.35 0 0 1 .786-.218c.341.002.629.103.862.302.233.199.388.47.465.812l-.12-.001c.062-.394.214-.7.456-.917.241-.216.554-.323.938-.32.501.004.889.177 1.164.521.269.338.402.808.397 1.411l-.015 2.008zm-.773-.446l.011-1.44c.003-.363-.064-.63-.202-.802-.142-.172-.355-.259-.638-.261-.288-.002-.502.082-.642.251-.139.17-.211.436-.214.799l-.011 1.44 1.696.013zm-2.472-.019l.01-1.304c.003-.352-.062-.614-.194-.786-.137-.177-.339-.266-.606-.268-.266-.002-.467.084-.602.259-.14.17-.211.43-.214.782l-.01 1.304 1.616.013zm3.287-5.019a.52.52 0 0 1-.139.383.55.55 0 0 1-.393.133l-4.616-.036c-.171-.001-.298-.044-.383-.13-.09-.092-.134-.22-.133-.385.001-.166.048-.291.139-.375.086-.09.214-.135.385-.133l4.272.032.018-2.32c.001-.144.039-.253.114-.327.075-.079.182-.118.321-.117a.444.444 0 0 1 .327.122c.074.076.111.185.11.329l-.022 2.824zm.035-4.516c-.002.176-.048.312-.139.407-.097.09-.233.134-.409.133l-4.552-.035c-.176-.002-.309-.048-.399-.139-.096-.097-.143-.233-.141-.409l.022-2.856c.001-.134.036-.235.106-.303.07-.075.169-.111.297-.11a.422.422 0 0 1 .311.114c.069.07.103.172.102.305l-.019 2.416 1.552.012.017-2.24c.001-.139.037-.242.107-.311s.171-.103.305-.102c.133.001.234.037.303.106.069.07.102.175.101.313l-.017 2.24 1.64.013.019-2.416c.001-.134.036-.235.106-.303.07-.075.172-.111.305-.11.133.001.234.039.303.114.069.07.103.172.102.305l-.022 2.856zm.127-6.095c-.002.235-.023.47-.062.704a3.691 3.691 0 0 1-.157.663 2.738 2.738 0 0 1-.276.558.523.523 0 0 1-.498.236.483.483 0 0 1-.231-.106.366.366 0 0 1-.127-.217c-.015-.085.01-.178.075-.279.14-.234.243-.481.309-.742s.1-.535.103-.823c.003-.421-.064-.729-.201-.922a.664.664 0 0 0-.55-.292.526.526 0 0 0-.442.205c-.107.132-.197.363-.269.694l-.191.878c-.11.506-.292.883-.545 1.132-.257.243-.594.363-1.01.36a1.57 1.57 0 0 1-1.26-.617 2.099 2.099 0 0 1-.346-.699 2.945 2.945 0 0 1-.121-.897c.002-.32.044-.624.127-.911a2.61 2.61 0 0 1 .358-.773.407.407 0 0 1 .217-.167.479.479 0 0 1 .256-.022c.08.017.149.055.207.114a.368.368 0 0 1 .102.225.487.487 0 0 1-.082.295 2.27 2.27 0 0 0-.244.598c-.05.202-.076.421-.077.656-.002.245.031.456.099.632a.907.907 0 0 0 .293.411.718.718 0 0 0 .438.139.602.602 0 0 0 .466-.188c.113-.128.203-.346.269-.654l.191-.871c.116-.527.295-.918.537-1.172.242-.259.563-.388.963-.384.256.001.487.057.694.165.208.103.385.253.533.452.148.193.261.426.339.699.078.272.115.579.113.92zm147.585 171.686a.63.63 0 0 1-.099.359.76.76 0 0 1-.306.222l-4.704 2.052a.528.528 0 0 1-.352.045.406.406 0 0 1-.239-.17.52.52 0 0 1-.085-.304c.001-.155.036-.269.106-.343a.7.7 0 0 1 .298-.198l4.406-1.862-.002.344-4.386-1.922a.782.782 0 0 1-.286-.21.497.497 0 0 1-.102-.337.448.448 0 0 1 .091-.287.384.384 0 0 1 .241-.151.582.582 0 0 1 .351.059l4.672 2.124c.133.06.234.135.303.226a.58.58 0 0 1 .093.353zm.03-3.975c-.001.165-.047.293-.139.383a.566.566 0 0 1-.393.125l-4.711-.036c-.171-.002-.301-.045-.391-.131a.518.518 0 0 1-.133-.385c.001-.166.047-.291.138-.375.092-.09.223-.134.393-.133l4.712.036a.566.566 0 0 1 .391.131c.09.086.135.214.133.385zm.018-2.258c-.002.166-.048.293-.139.383a.565.565 0 0 1-.393.125l-4.656-.036c-.171-.001-.298-.047-.383-.138-.09-.092-.134-.22-.133-.385l.015-1.928c.005-.619.163-1.095.475-1.429.312-.333.745-.498 1.3-.494.554.004.988.176 1.3.514.306.339.457.817.453 1.436l-.011 1.424 1.648.012a.575.575 0 0 1 .391.131c.09.086.134.215.133.385zm-2.98-.535l.009-1.264c.003-.362-.075-.637-.233-.825-.164-.188-.403-.283-.718-.286-.315-.002-.553.089-.714.275-.162.185-.244.459-.246.822l-.01 1.264 1.912.014zm2.932-130.232a.63.63 0 0 1-.099.359.76.76 0 0 1-.306.222l-4.704 2.052a.528.528 0 0 1-.352.045.406.406 0 0 1-.239-.17.52.52 0 0 1-.085-.304c.001-.155.036-.269.106-.343a.7.7 0 0 1 .298-.198l4.406-1.862-.002.344-4.386-1.922a.782.782 0 0 1-.286-.21.497.497 0 0 1-.102-.337.448.448 0 0 1 .091-.287.384.384 0 0 1 .241-.151.582.582 0 0 1 .351.059l4.672 2.124c.133.06.234.135.303.226a.58.58 0 0 1 .093.353zm.03-3.975c-.001.165-.047.293-.139.383a.566.566 0 0 1-.393.125l-4.711-.036c-.171-.002-.301-.045-.391-.131a.518.518 0 0 1-.133-.385c.001-.166.047-.291.138-.375.092-.09.223-.134.393-.133l4.712.036a.566.566 0 0 1 .391.131c.09.086.135.214.133.385zm.018-2.258c-.002.166-.048.293-.139.383a.565.565 0 0 1-.393.125l-4.656-.036c-.171-.001-.298-.047-.383-.138-.09-.092-.134-.22-.133-.385l.015-1.928c.005-.619.163-1.095.475-1.429.312-.333.745-.498 1.3-.494.554.004.988.176 1.3.514.306.339.457.817.453 1.436l-.011 1.424 1.648.012a.575.575 0 0 1 .391.131c.09.086.134.215.133.385zm-2.98-.535l.009-1.264c.003-.362-.075-.637-.233-.825-.164-.188-.403-.283-.718-.286-.315-.002-.553.089-.714.275-.162.185-.244.459-.246.822l-.01 1.264 1.912.014zm-117.014 123.98c-.007.878-.188 1.63-.544 2.258a3.637 3.637 0 0 1-1.519 1.424c-.657.331-1.428.492-2.314.485-.662-.005-1.256-.105-1.781-.301a3.79 3.79 0 0 1-1.358-.836 3.492 3.492 0 0 1-.863-1.323c-.204-.528-.303-1.119-.298-1.774a5.07 5.07 0 0 1 .178-1.291c.115-.422.277-.792.487-1.109a.762.762 0 0 1 .386-.332.726.726 0 0 1 .431-.033c.135.033.25.102.345.206.095.097.15.221.165.372.007.144-.046.303-.159.478a2.64 2.64 0 0 0-.354.799 3.58 3.58 0 0 0-.114.873c-.004.566.108 1.046.336 1.439.228.392.561.69.998.893.438.203.976.307 1.614.312.63.005 1.169-.091 1.618-.287.448-.196.79-.489 1.024-.878.234-.389.354-.867.358-1.433a3.78 3.78 0 0 0-.101-.899 3.226 3.226 0 0 0-.352-.84c-.103-.177-.145-.333-.128-.468a.555.555 0 0 1 .146-.358.643.643 0 0 1 .336-.189.717.717 0 0 1 .407.027.766.766 0 0 1 .357.29c.229.321.406.705.53 1.153.116.44.172.887.169 1.342zm.014-4.999c-.001.247-.071.442-.207.585-.145.134-.349.201-.612.199l-6.906-.053c-.263-.002-.462-.072-.597-.209-.142-.144-.212-.348-.21-.612l.032-4.176c.001-.208.054-.363.159-.466.104-.103.252-.154.444-.152.199.001.354.055.465.159.103.105.154.261.152.468l-.026 3.459 2.381.018.025-3.207c.002-.2.055-.351.159-.454.105-.111.253-.165.444-.164.2.002.355.059.466.171.103.105.153.257.152.456l-.025 3.207 2.896.023c.543.004.812.253.808.748zm-.014-89.001c-.007.878-.188 1.63-.544 2.258a3.637 3.637 0 0 1-1.519 1.424c-.657.331-1.428.492-2.314.485-.662-.005-1.256-.105-1.781-.301a3.79 3.79 0 0 1-1.358-.836 3.492 3.492 0 0 1-.863-1.323c-.204-.528-.303-1.119-.298-1.774a5.07 5.07 0 0 1 .178-1.291c.115-.422.277-.792.487-1.109a.762.762 0 0 1 .386-.332.726.726 0 0 1 .431-.033c.135.033.25.102.345.206.095.097.15.221.165.372.007.144-.046.303-.159.478a2.64 2.64 0 0 0-.354.799 3.58 3.58 0 0 0-.114.873c-.004.566.108 1.046.336 1.439.228.392.561.69.998.893.438.203.976.307 1.614.312.63.005 1.169-.091 1.618-.287.448-.196.79-.489 1.024-.878.234-.389.354-.867.358-1.433a3.78 3.78 0 0 0-.101-.899 3.226 3.226 0 0 0-.352-.84c-.103-.177-.145-.333-.128-.468a.555.555 0 0 1 .146-.358.643.643 0 0 1 .336-.189.717.717 0 0 1 .407.027.766.766 0 0 1 .357.29c.229.321.406.705.53 1.153.116.44.172.887.169 1.342zm.014-4.999c-.001.247-.071.442-.207.585-.145.134-.349.201-.612.199l-6.906-.053c-.263-.002-.462-.072-.597-.209-.142-.144-.212-.348-.21-.612l.032-4.176c.001-.208.054-.363.159-.466.104-.103.252-.154.444-.152.199.001.354.055.465.159.103.105.154.261.152.468l-.026 3.459 2.381.018.025-3.207c.002-.2.055-.351.159-.454.105-.111.253-.165.444-.164.2.002.355.059.466.171.103.105.153.257.152.456l-.025 3.207 2.896.023c.543.004.812.253.808.748zM798.924 125.39c.225.367.412.777.559 1.229.147.453.215.884.205 1.293a.81.81 0 0 1-.137.464.658.658 0 0 1-.301.241.678.678 0 0 1-.37.016.602.602 0 0 1-.314-.214.811.811 0 0 1-.153-.454 4.355 4.355 0 0 0-.168-1.006 4.066 4.066 0 0 0-.397-.852c-.184-.299-.38-.525-.587-.679a1.078 1.078 0 0 0-.649-.233c-.23-.009-.46.058-.691.2-.34.209-.521.479-.542.81-.032.329.086.711.353 1.146l.401.653c.117.19.16.365.127.526-.037.153-.14.283-.31.387-.17.104-.332.138-.485.102-.158-.044-.296-.161-.413-.351l-.325-.53a1.917 1.917 0 0 0-.53-.588 1.203 1.203 0 0 0-.63-.202 1.198 1.198 0 0 0-.665.198c-.313.192-.486.443-.52.754-.038.304.065.654.307 1.048.155.251.331.471.53.657.188.184.442.361.761.53.15.076.254.177.312.3a.54.54 0 0 1 .036.357.684.684 0 0 1-.171.316.63.63 0 0 1-.339.18.687.687 0 0 1-.452-.073 3.952 3.952 0 0 1-1.024-.705 4.633 4.633 0 0 1-.823-.997c-.305-.497-.488-.969-.549-1.419-.068-.445-.015-.848.157-1.207.162-.361.444-.665.845-.912.285-.175.58-.282.885-.319.298-.034.589-.002.873.095.285.097.546.264.786.501l-.123.075c-.219-.54-.249-1.046-.09-1.518.153-.468.47-.851.953-1.147.421-.259.853-.38 1.295-.361.442.018.868.169 1.276.452.401.287.767.7 1.097 1.237zm-3.883-6.318c.221.36.399.756.534 1.189a4.2 4.2 0 0 1 .194 1.299.778.778 0 0 1-.122.441.761.761 0 0 1-.318.237.691.691 0 0 1-.38.023.572.572 0 0 1-.318-.198.748.748 0 0 1-.14-.434 4.168 4.168 0 0 0-.144-.965 3.458 3.458 0 0 0-.395-.895 1.908 1.908 0 0 0-.604-.64 1.298 1.298 0 0 0-.717-.206c-.25.004-.498.081-.742.232-.381.234-.616.537-.705.91-.096.378-.02.767.226 1.168.134.218.301.405.501.563.193.162.439.288.737.376.092.028.194.073.307.134a.794.794 0 0 1 .259.263c.105.169.14.326.106.468-.034.143-.129.263-.286.359l-3.334 2.049c-.184.113-.352.151-.506.114-.164-.039-.303-.151-.416-.334l-2.062-3.355c-.113-.183-.151-.352-.114-.506.026-.156.127-.288.304-.397.17-.104.334-.135.491-.091.154.036.287.146.4.33l1.629 2.651 2.284-1.404.207.337a2.041 2.041 0 0 1-.983-.365 2.75 2.75 0 0 1-.783-.84c-.28-.455-.423-.91-.431-1.364a2.295 2.295 0 0 1 .323-1.281c.223-.399.562-.738 1.018-1.018.469-.289.948-.438 1.438-.449a2.6 2.6 0 0 1 1.394.394c.435.266.818.668 1.148 1.205zm52 79.398c.166.397.287.831.363 1.301.075.47.076.907.002 1.309a.8.8 0 0 1-.207.437.651.651 0 0 1-.335.192.679.679 0 0 1-.367-.041.605.605 0 0 1-.277-.26.812.812 0 0 1-.081-.473 4.363 4.363 0 0 0-.011-1.02 4.076 4.076 0 0 0-.261-.903c-.135-.324-.293-.577-.474-.761a1.08 1.08 0 0 0-.605-.331 1.218 1.218 0 0 0-.714.091c-.368.154-.589.393-.661.717-.082.32-.025.715.172 1.186l.295.707c.086.206.101.386.044.539-.06.147-.182.258-.366.335-.184.077-.349.085-.495.025-.149-.067-.267-.204-.353-.41l-.24-.574a1.89 1.89 0 0 0-.433-.662 1.21 1.21 0 0 0-.591-.298 1.196 1.196 0 0 0-.688.093c-.338.141-.548.363-.63.665-.084.295-.037.656.142 1.083.113.272.254.516.422.731.157.211.381.425.67.641a.656.656 0 0 1 .261.345.542.542 0 0 1-.019.358.636.636 0 0 1-.581.411.686.686 0 0 1-.435-.142 3.921 3.921 0 0 1-.902-.855 4.582 4.582 0 0 1-.66-1.113c-.224-.537-.332-1.032-.323-1.486.002-.45.116-.84.342-1.168.216-.332.541-.589.975-.77.31-.13.618-.189.925-.179.299.013.582.09.848.229.266.14.499.345.698.616l-.132.056c-.133-.567-.085-1.072.145-1.514.223-.439.596-.768 1.119-.986.456-.191.902-.243 1.336-.156.434.086.83.301 1.19.644.352.346.649.809.892 1.391zm-2.263-5.353a.745.745 0 0 1 .054.47.527.527 0 0 1-.237.333c-.131.08-.299.112-.505.094l-7.666-.714.486-.203 1.495 3.578c.083.199.096.375.039.529-.06.146-.182.257-.366.334-.191.08-.36.09-.506.03-.15-.067-.266-.2-.349-.399l-1.786-4.274a.798.798 0 0 1-.048-.55c.051-.168.172-.292.363-.372a1.39 1.39 0 0 1 .458-.114c.137-.005.29 0 .461.015l7.307.63a.866.866 0 0 1 .487.173c.126.094.23.241.313.44zm-53.395 68.872c.081.423.11.872.088 1.348a3.889 3.889 0 0 1-.266 1.282.809.809 0 0 1-.292.385.66.66 0 0 1-.367.119.682.682 0 0 1-.351-.115.602.602 0 0 1-.218-.312.816.816 0 0 1 .017-.479 4.33 4.33 0 0 0 .198-1 4.018 4.018 0 0 0-.07-.938c-.066-.344-.169-.625-.308-.842a1.086 1.086 0 0 0-.524-.448 1.228 1.228 0 0 0-.718-.057c-.392.075-.656.264-.793.566-.147.296-.172.695-.075 1.197l.144.752c.042.219.02.398-.068.537-.088.131-.231.215-.426.253-.196.037-.36.012-.49-.077-.133-.097-.22-.255-.262-.474l-.117-.611a1.895 1.895 0 0 0-.288-.737 1.21 1.21 0 0 0-.518-.413 1.213 1.213 0 0 0-.692-.05c-.36.07-.611.244-.753.523-.143.271-.17.634-.083 1.088.055.29.143.558.263.803.111.238.286.493.525.764a.654.654 0 0 1 .185.391.545.545 0 0 1-.092.347.686.686 0 0 1-.272.235.634.634 0 0 1-.381.049.69.69 0 0 1-.397-.229 3.948 3.948 0 0 1-.708-1.022 4.564 4.564 0 0 1-.417-1.224c-.11-.572-.114-1.079-.012-1.521.094-.44.286-.798.574-1.073.279-.281.65-.465 1.112-.554.329-.063.643-.059.941.014.291.074.552.207.784.398.231.192.417.44.557.746l-.141.028c-.014-.583.137-1.067.453-1.452.308-.384.74-.63 1.296-.737.486-.093.933-.052 1.34.121.407.174.751.465 1.033.875.274.41.47.925.589 1.544zm-1.384-7.212c.188.979-.037 1.798-.674 2.457-.646.66-1.654 1.121-3.025 1.384-.925.178-1.722.213-2.393.106-.68-.113-1.223-.362-1.63-.747-.408-.393-.675-.915-.8-1.565-.189-.988.028-1.805.651-2.453.621-.655 1.622-1.115 3.001-1.38.917-.176 1.719-.208 2.407-.096.678.105 1.228.349 1.651.731.415.384.685.904.812 1.563zm-1.234.236c-.103-.532-.425-.877-.966-1.033-.544-.164-1.34-.145-2.39.057-1.05.201-1.786.476-2.206.825-.43.342-.594.78-.492 1.313.101.525.415.871.943 1.038.52.168 1.305.152 2.355-.05 1.05-.201 1.797-.479 2.241-.832.444-.353.615-.793.515-1.318zm-16.484-48.778c.198.383.354.805.467 1.267.114.463.15.897.11 1.305a.813.813 0 0 1-.17.452.66.66 0 0 1-.318.219.691.691 0 0 1-.37-.011.61.61 0 0 1-.298-.237.814.814 0 0 1-.119-.464 4.363 4.363 0 0 0-.094-1.016 4.037 4.037 0 0 0-.334-.878c-.162-.312-.34-.552-.535-.72a1.09 1.09 0 0 0-.63-.281 1.226 1.226 0 0 0-.705.15c-.354.183-.554.439-.599.768-.056.326.033.715.268 1.169l.352.68c.103.198.133.376.088.534-.047.151-.16.272-.337.363-.177.092-.341.114-.492.066-.154-.055-.282-.181-.385-.38l-.286-.552a1.895 1.895 0 0 0-.486-.625 1.205 1.205 0 0 0-.613-.248 1.194 1.194 0 0 0-.678.149c-.326.168-.517.407-.573.714-.06.301.016.657.229 1.068.136.262.296.493.481.694.174.197.414.392.72.584a.65.65 0 0 1 .288.322.54.54 0 0 1 .011.359.68.68 0 0 1-.194.302.632.632 0 0 1-.351.155.684.684 0 0 1-.446-.106 3.954 3.954 0 0 1-.969-.778 4.583 4.583 0 0 1-.748-1.055c-.268-.517-.416-1.002-.444-1.455-.035-.449.047-.846.245-1.192.188-.349.491-.631.909-.848.298-.154.6-.238.906-.253.3-.012.588.041.865.159.276.117.525.303.746.556l-.127.066c-.18-.554-.172-1.061.021-1.52.186-.456.531-.814 1.034-1.075.439-.227.878-.316 1.318-.265.44.051.853.233 1.239.545.379.316.714.753 1.004 1.313zm-3.378-6.521c.459.885.476 1.735.053 2.547-.431.816-1.267 1.545-2.507 2.188-.836.433-1.59.693-2.263.781-.684.085-1.276 0-1.776-.253-.503-.26-.907-.685-1.212-1.273-.462-.892-.486-1.738-.073-2.536.409-.805 1.238-1.531 2.485-2.176.829-.43 1.589-.689 2.28-.777.68-.092 1.277-.015 1.791.232.507.249.914.672 1.222 1.267zm-1.116.578c-.249-.482-.656-.721-1.22-.716-.567-.003-1.325.242-2.275.733-.949.492-1.576.965-1.88 1.419-.315.45-.347.917-.098 1.398.246.475.646.717 1.199.727.546.014 1.294-.225 2.243-.717.95-.491 1.587-.97 1.912-1.435.326-.465.365-.935.119-1.409zm-47.416-53.798c.199.159.311.32.335.482.012.163-.051.332-.191.507a.797.797 0 0 1-.331.241 2.084 2.084 0 0 1-.497.123l-3.478.499c-.526.07-.948.176-1.267.32a2.118 2.118 0 0 0-.785.598c-.249.312-.339.628-.269.95.064.316.283.624.657.923.211.169.448.308.71.415.257.113.551.185.884.216.172.015.303.069.393.161a.588.588 0 0 1 .155.323.68.68 0 0 1-.062.365.691.691 0 0 1-.248.291.698.698 0 0 1-.441.092 4 4 0 0 1-1.226-.306 4.803 4.803 0 0 1-1.122-.667c-.474-.379-.815-.769-1.025-1.172a2.043 2.043 0 0 1-.238-1.216c.051-.409.234-.81.548-1.202.209-.262.457-.483.743-.662a3.82 3.82 0 0 1 .989-.451c.373-.121.81-.215 1.314-.283l3.222-.427-.254.318-2.748-2.197c-.169-.135-.264-.278-.286-.428-.023-.151.031-.307.16-.469.13-.163.273-.252.43-.27.157-.017.32.041.488.176l3.44 2.75zm-7.092-5.823c.511.409.893.832 1.146 1.269.242.439.351.878.326 1.318-.031.435-.203.848-.517 1.241a2.223 2.223 0 0 1-.845.673 2.06 2.06 0 0 1-1.003.163 2.27 2.27 0 0 1-.991-.332l.157-.197c.329.407.498.853.507 1.34a2.134 2.134 0 0 1-.497 1.35c-.299.374-.646.617-1.043.729-.401.119-.828.11-1.28-.027-.457-.131-.917-.381-1.378-.749-.467-.374-.815-.769-1.043-1.187-.233-.411-.336-.825-.309-1.243.022-.411.183-.803.482-1.177a2.18 2.18 0 0 1 .773-.623c.291-.146.595-.214.914-.204.313.005.62.087.922.246l-.15.187c-.386-.411-.591-.876-.615-1.396-.035-.518.132-1.008.5-1.469.314-.393.683-.649 1.107-.771.417-.126.869-.116 1.357.028.476.146.969.423 1.48.831zm-.747.935c-.443-.354-.843-.536-1.202-.547-.364-.005-.68.161-.949.497-.269.337-.359.679-.269 1.027.09.347.356.698.798 1.052.436.348.837.531 1.202.547.359.011.673-.152.942-.488.269-.337.361-.682.276-1.036-.096-.352-.362-.703-.798-1.052zm-2.369 2.964a2.04 2.04 0 0 0-.725-.396 1.166 1.166 0 0 0-.679.024 1.245 1.245 0 0 0-.559.411c-.239.3-.32.618-.242.956.066.339.283.655.65.949.368.294.725.436 1.07.426.34-.004.63-.156.869-.455.244-.305.333-.627.267-.966-.066-.339-.283-.656-.651-.949z" fill="#fff"/><path d="M660.505 131.015c-.031.254-.109.433-.234.539-.132.096-.309.131-.531.104a.786.786 0 0 1-.379-.154 2.136 2.136 0 0 1-.367-.358l-2.254-2.695c-.336-.411-.649-.714-.939-.91a2.13 2.13 0 0 0-.922-.352c-.396-.048-.712.042-.949.271-.235.22-.382.568-.439 1.044-.033.269-.026.543.021.822.039.278.132.567.281.866.078.154.101.293.07.418a.584.584 0 0 1-.193.302.685.685 0 0 1-.343.14.696.696 0 0 1-.378-.058.703.703 0 0 1-.311-.327 3.986 3.986 0 0 1-.384-1.204 4.765 4.765 0 0 1-.023-1.305c.072-.602.225-1.097.457-1.487.232-.39.535-.671.909-.843.375-.171.811-.227 1.31-.167.333.04.651.135.955.284.304.142.605.343.903.604.299.253.61.576.932.968l2.059 2.516-.404-.049.422-3.493c.026-.214.097-.37.213-.469.117-.098.278-.135.484-.11.206.025.357.099.455.224.097.124.133.293.107.507l-.528 4.372zm1.22-9.094c-.079.65-.237 1.197-.476 1.642-.246.437-.562.76-.949.971-.386.202-.829.273-1.328.213a2.23 2.23 0 0 1-1.017-.364 2.065 2.065 0 0 1-.666-.768 2.26 2.26 0 0 1-.239-1.017l.249.03a2.148 2.148 0 0 1-.872 1.136c-.417.255-.887.351-1.409.288-.476-.058-.865-.225-1.169-.503-.312-.279-.529-.647-.65-1.104-.13-.457-.159-.979-.088-1.565.071-.594.225-1.098.46-1.512.227-.415.525-.72.894-.917.361-.197.78-.267 1.255-.209.349.042.661.152.937.33.276.17.495.393.654.67.16.268.252.573.275.913l-.237-.029c.146-.545.434-.964.863-1.258.422-.302.927-.418 1.513-.347.499.06.911.239 1.237.535.327.289.557.678.691 1.169.126.481.15 1.047.072 1.696zm-1.188-.144c.068-.562.012-.999-.167-1.31-.188-.312-.495-.493-.923-.545-.428-.052-.766.052-1.014.311-.249.26-.407.67-.475 1.233-.067.554-.011.991.167 1.31.18.311.483.492.911.544.428.052.77-.052 1.026-.31.249-.267.408-.678.475-1.233zm-3.767-.455a2.071 2.071 0 0 0-.045-.825 1.169 1.169 0 0 0-.378-.564 1.236 1.236 0 0 0-.643-.259c-.381-.046-.694.053-.94.296-.254.235-.409.586-.465 1.053-.057.468.01.845.2 1.134.183.287.464.453.844.499.388.047.709-.046.962-.281.254-.235.409-.586.465-1.053z" fill="#fff"/></g><defs><clipPath id="clip0_7756_224706"><path fill="#fff" transform="rotate(-90 300.22 299.82)" d="M0 0h600.04v898.6H0z"/></clipPath><clipPath id="clip1_7756_224706"><path fill="#fff" transform="rotate(-90 354.78 68.38)" d="M0 0h230.69v326H0z"/></clipPath></defs></svg>