<svg width="553" height="827" viewBox="0 0 553 827" fill="none" xmlns="http://www.w3.org/2000/svg"><g clip-path="url(#clip0_6445_189935)"><path d="M547.591 556.196V270.804c0-147.021-119.145-266.202-266.166-266.202h-5.329c-147.04 0-266.221 119.181-266.221 266.202v285.392c0 147.021 119.181 266.202 266.221 266.202h5.347c147.003 0 266.148-119.181 266.148-266.202zm-381.225 90.403a144.073 144.073 0 0 1-42.334-102.202V282.603a144.535 144.535 0 1 1 289.072 0v261.794a144.484 144.484 0 0 1-89.196 133.601 144.495 144.495 0 0 1-157.542-31.399z" fill="#E0E0E0"/><path d="M268.568 688.933a144.538 144.538 0 0 1-144.49-144.536V282.603a144.54 144.54 0 0 1 144.536-144.537A144.538 144.538 0 0 1 413.15 282.603v261.794a144.543 144.543 0 0 1-42.35 102.219 144.537 144.537 0 0 1-102.232 42.317z" fill="#E0E0E0"/><path d="M426.955 252.527a159.377 159.377 0 0 0-16.492-47.388l36.38-16.271 3.12 5.725 10.197-4.915a204.617 204.617 0 0 1 18.02 54.851l-51.225 7.998zm54.17 36.647h-51.63v-8.053c0-4.461-.181-8.878-.543-13.253h24.628v-10.915l26.036-3.432a208.055 208.055 0 0 1 1.84 27.379v6.939c-.211.865-.331 1.335-.331 1.335zm.295 56.655h-51.925v-27.03h26.321v-7.795h-26.321v-17.661h51.925v52.486zm0 68.775h-51.925v-28.401h26.321v-9.194h-26.321v-24.425h51.925v62.02zm0 68.941h-51.925v-28.06h26.321v-9.36h-26.321v-27.021h51.925v64.441zm0 53.121h-51.925v-15.157l26.321.497v-9.121l-26.321-.175v-23.965h51.925v47.921zm-1.804 43.605l-15.645-2.135v-15.075H428.63v-.276c.577-5.574.866-11.173.865-16.777v-4.777h51.925v11.688a207.782 207.782 0 0 1-1.804 27.352zm-29.671 58.67l-38.562-18.774a159.612 159.612 0 0 0 14.274-39.206l40.366 2.89c-3.102 29.625-16.078 55.09-16.078 55.09zm12.976-.488l-8.531-3.147s9.322-14.955 14.872-52.458l9.838 1.334a204.579 204.579 0 0 1-16.179 54.271zm-48.059 51.419l-31.438-31.19a161.213 161.213 0 0 0 25.898-34.622l39.058 19.041c-12.618 23.661-33.518 46.771-33.518 46.771zm2.816 12.111l-5.374-5.871c20.09-18.572 36.122-46.016 36.122-46.016l7.363 2.466a207.033 207.033 0 0 1-38.111 49.421zm-67.036 32.322l-18.544-40.494a160.412 160.412 0 0 0 38.101-23.1l31.116 30.867c-25.953 23.892-50.673 32.727-50.673 32.727z" fill="#C9C5C5"/><path d="M358.667 741.502l-3.055-5.899c34.825-16.631 53.793-36.896 53.793-36.896l5.475 5.899a206.062 206.062 0 0 1-56.213 36.896zm-66.98 8.394l-6.599-43.918a159.658 159.658 0 0 0 42.62-10.344l1.399-.304 18.195 40.006a200.102 200.102 0 0 1-55.615 14.56z" fill="#C9C5C5"/><path d="M286.928 758.767v-6.184c29.184-1.215 56.996-12.995 56.996-12.995l3.543 6.442a204.897 204.897 0 0 1-60.539 12.737zm-18.535.212a205.357 205.357 0 0 1-61.321-11.421l14.017-47.857a160.512 160.512 0 0 0 44.884 7.105l2.42 52.173zm-67.156-13.575a205.7 205.7 0 0 1-49.771-27.609l26.358-39.123a160.313 160.313 0 0 0 38.755 19.492l-15.342 47.24zm-63.06-38.488a203.436 203.436 0 0 1-8.715-8.218 206.934 206.934 0 0 1-30.702-39.151l37.107-22.906a160.806 160.806 0 0 0 19.134 23.072 160.36 160.36 0 0 0 9.313 8.605l-26.137 38.598zm-41.673-51.179a204.692 204.692 0 0 1-23.928-64.57l40.209-5.521a160.21 160.21 0 0 0 20.928 47.856l-37.209 22.235zM494.01 206.769l-17.284 5.825a209.618 209.618 0 0 0-8.191-19.667l56.14-24.591a264.777 264.777 0 0 1 13.068 33.518l-41.359 11.164-2.374-6.249zm55.689 64.081l-61.34-4.51a211.132 211.132 0 0 0-6.442-37.134l18.563-4.28-2.292-6.672 41.764-8.872a268.069 268.069 0 0 1 9.747 61.468zm.238 41.286l-40.908-1.988-.313-4.114-19.584-1.408v-20.1c0-4.399-.132-8.767-.396-13.105l61.118 4.546c.056 2.099.083 4.203.083 6.314v29.855zm0 69.926l-40.484-2.246.184-5.052-20.505-1.436v-52.394l20.275 1.427v-7.124l40.53 1.74v65.085zm0 69.42l-41.294-3.332.073-3.985-19.584-1.629v-52.201l20.044 1.436v-6.893l40.761 1.951v64.653zm0 68.509l-41.405-3.571-.165-3.718-19.235-1.85v-52.339l19.612 1.593v-7.621l41.193 3.498v64.008zm-.257 45.776l-60.926-3.515c.249-4.188.378-8.421.378-12.673v-25.143l19.897 1.785v-6.019l40.908 3.369v30.37c0 3.958-.086 7.9-.257 11.826zm-11.108 65.674l-37.126-9.544 1.565-7.804-22.153-5.522a212.793 212.793 0 0 0 7.639-42.491l60.971 3.681a267.15 267.15 0 0 1-10.896 61.68zm-42.409 83.694l-33.969-22.088 3.856-5.798-18.13-11.623a213.056 213.056 0 0 0 28.116-52.274l22.778 8.807 1.776-6.442 36.656 10.123a267.73 267.73 0 0 1-41.083 79.295zm-69.429 64.598l-25.382-30.932 3.304-1.786-13.225-18.121a214.091 214.091 0 0 0 46.936-41.157l18.59 13.142 2.568-4.463 33.371 23.008a269.667 269.667 0 0 1-66.162 60.309zm-85.295 35.938l-13.925-33.637 6.912-2.679-7.933-22.52a211.816 211.816 0 0 0 54.142-21.425l12.664 19.861 5.798-3.571 24.048 30.315a266.643 266.643 0 0 1-81.706 33.656zm-59.987 6.727a269.634 269.634 0 0 1-34.917-2.255l-1.233-36.334 4.16.129-1.077-22.833a215.887 215.887 0 0 0 61.607-.92l7.16 24.167 6.111-1.426 13.123 33.867a269.343 269.343 0 0 1-54.934 5.605zm-40.972-3.1a266.709 266.709 0 0 1-83.28-27.315l10.188-32.267 5.909 1.841 4.739-22.401a211.825 211.825 0 0 0 57.373 19.861l-1.141 23.008 7.105 1.178-.893 36.095zm-88.342-30.04a269.417 269.417 0 0 1-60.539-45.501 265.87 265.87 0 0 1-10.298-10.896l23.072-27.398 4.602 5.236 11.587-14.936a176.731 176.731 0 0 0 4.472 4.601 214.56 214.56 0 0 0 40.495 31.788l-7.032 20.413 4.528 2.963-10.887 33.73zm-73.515-59.444a268.314 268.314 0 0 1-47.517-78.705l29.34-15.885 3.976 7.105 15.277-8.78a213.264 213.264 0 0 0 32.212 52.559l-12.047 11.854 3.359 4.141-24.6 27.711zm-49.614-84.273a267.01 267.01 0 0 1-11.965-44.663l49.587-9.507a212.423 212.423 0 0 0 7.97 29.128l-17.707 6.829 1.841 4.74-29.726 13.473z" fill="#C9C5C5"/><path d="M413.104 544.397V282.603c0-79.825-64.711-144.537-144.536-144.537s-144.536 64.712-144.536 144.537v261.794c0 79.825 64.711 144.536 144.536 144.536s144.536-64.711 144.536-144.536z" stroke="#fff" stroke-width="9.203" stroke-miterlimit="10"/><path d="M494.01 206.769l-17.284 5.825a209.618 209.618 0 0 0-8.191-19.667l56.14-24.591a264.777 264.777 0 0 1 13.068 33.518l-41.359 11.164-2.374-6.249zm55.689 64.081l-61.34-4.51a211.132 211.132 0 0 0-6.442-37.134l18.563-4.28-2.292-6.672 41.764-8.872a268.069 268.069 0 0 1 9.747 61.468zm.238 41.286l-40.908-1.988-.313-4.114-19.584-1.408v-20.1c0-4.399-.132-8.767-.396-13.105l61.118 4.546c.056 2.099.083 4.203.083 6.314v29.855zm0 69.926l-40.484-2.246.184-5.052-20.505-1.436v-52.394l20.275 1.427v-7.124l40.53 1.74v65.085zm0 69.42l-41.294-3.332.073-3.985-19.584-1.629v-52.201l20.044 1.436v-6.893l40.761 1.951v64.653zm0 68.509l-41.405-3.571-.165-3.718-19.235-1.85v-52.339l19.612 1.593v-7.621l41.193 3.498v64.008zm-.257 45.776l-60.926-3.515c.249-4.188.378-8.421.378-12.673v-25.143l19.897 1.785v-6.019l40.908 3.369v30.37c0 3.958-.086 7.9-.257 11.826zm-11.108 65.674l-37.126-9.544 1.565-7.804-22.153-5.522a212.793 212.793 0 0 0 7.639-42.491l60.971 3.681a267.15 267.15 0 0 1-10.896 61.68zm-509.563 14.1a267.01 267.01 0 0 1-11.965-44.663l49.587-9.507a212.423 212.423 0 0 0 7.97 29.128l-17.707 6.829 1.841 4.74-29.726 13.473zm467.154 69.594l-33.969-22.088 3.856-5.798-18.13-11.623a213.056 213.056 0 0 0 28.116-52.274l22.778 8.807 1.776-6.442 36.656 10.123a267.73 267.73 0 0 1-41.083 79.295zm-417.54 14.679a268.314 268.314 0 0 1-47.517-78.705l29.34-15.885 3.976 7.105 15.277-8.78a213.264 213.264 0 0 0 32.212 52.559l-12.047 11.854 3.359 4.141-24.6 27.711zm348.111 49.919l-25.382-30.932 3.304-1.786-13.225-18.121a214.091 214.091 0 0 0 46.936-41.157l18.59 13.142 2.568-4.463 33.371 23.008a269.667 269.667 0 0 1-66.162 60.309zm-274.596 9.525a269.417 269.417 0 0 1-60.539-45.501 265.87 265.87 0 0 1-10.298-10.896l23.072-27.398 4.602 5.236 11.587-14.936a176.731 176.731 0 0 0 4.472 4.601 214.56 214.56 0 0 0 40.495 31.788l-7.032 20.413 4.528 2.963-10.887 33.73zm189.301 26.413l-13.925-33.637 6.912-2.679-7.933-22.52a211.816 211.816 0 0 0 54.142-21.425l12.664 19.861 5.798-3.571 24.048 30.315a266.643 266.643 0 0 1-81.706 33.656zm-100.959 3.627a266.709 266.709 0 0 1-83.28-27.315l10.188-32.267 5.909 1.841 4.739-22.401a211.825 211.825 0 0 0 57.373 19.861l-1.141 23.008 7.105 1.178-.893 36.095zm40.972 3.1a269.634 269.634 0 0 1-34.917-2.255l-1.233-36.334 4.16.129-1.077-22.833a215.887 215.887 0 0 0 61.607-.92l7.16 24.167 6.111-1.426 13.123 33.867a269.343 269.343 0 0 1-54.934 5.605zm196.765-577.869l-51.262 7.998a159.377 159.377 0 0 0-16.492-47.388l36.38-16.271 3.12 5.725 10.197-4.915a204.617 204.617 0 0 1 18.057 54.851zm3.203 43.31c-.175.865-.295 1.335-.295 1.335h-51.63v-8.053c0-4.461-.181-8.878-.543-13.253h24.628v-10.915l26.036-3.432a208.055 208.055 0 0 1 1.84 27.379l-.036 6.939zm0 57.99h-51.925v-27.03h26.321v-7.795h-26.321v-17.661h51.925v52.486zm0 68.775h-51.925v-28.401h26.321v-9.194h-26.321v-24.425h51.925v62.02zm0 68.941h-51.925v-28.06h26.321v-9.36h-26.321v-27.021h51.925v64.441zm0 53.121h-51.925v-15.157l26.321.497v-9.121l-26.321-.175v-23.965h51.925v47.921zm-1.804 43.605l-15.645-2.135v-15.075H428.63v-.276c.577-5.574.866-11.173.865-16.777v-4.777h51.925v11.688a207.782 207.782 0 0 1-1.804 27.352zM96.504 655.737a204.692 204.692 0 0 1-23.928-64.57l40.209-5.521a160.21 160.21 0 0 0 20.928 47.856l-37.209 22.235zm41.673 51.179a203.436 203.436 0 0 1-8.715-8.218 206.934 206.934 0 0 1-30.702-39.151l37.107-22.906a160.806 160.806 0 0 0 19.134 23.072 160.36 160.36 0 0 0 9.313 8.605l-26.137 38.598zm63.06 38.488a205.7 205.7 0 0 1-49.771-27.609l26.358-39.123a160.313 160.313 0 0 0 38.755 19.492l-15.342 47.24zm67.156 13.575a205.357 205.357 0 0 1-61.321-11.421l14.017-47.857a160.512 160.512 0 0 0 44.884 7.105l2.42 52.173z" fill="#C9C5C5"/><path d="M547.627 556.196V270.804c0-147.019-119.183-266.202-266.202-266.202h-5.347c-147.02 0-266.203 119.183-266.203 266.202v285.392c0 147.019 119.183 266.202 266.203 266.202h5.347c147.019 0 266.202-119.183 266.202-266.202z" stroke="#fff" stroke-width="9.203" stroke-miterlimit="10"/><path d="M96.855 253.318v322.978H0V253.318h96.855z" fill="#0062CC"/><g clip-path="url(#clip1_6445_189935)"><path d="M214.303 291.851h108.265l-11.715-28.64h-82.02l-14.53 28.64zm138.262.001v63.295h-62.336v87.711a30.706 30.706 0 0 0-41.708-.151v-87.56h-63.274v-63.295h167.318zm22.53 158.759h-46.867v74.842h46.867v-74.842zm-165.549 0h-45.463v74.842h45.463v-74.842z" fill="#C9C5C5"/><path d="M181.889 490.453a.584.584 0 0 1-.331-.091.69.69 0 0 1-.204-.281l-1.888-4.329a.498.498 0 0 1-.042-.325.377.377 0 0 1 .157-.219.475.475 0 0 1 .28-.079c.142.001.248.034.316.098a.647.647 0 0 1 .182.274l1.714 4.055-.317-.002 1.769-4.036a.707.707 0 0 1 .193-.264.46.46 0 0 1 .31-.093.417.417 0 0 1 .265.083.353.353 0 0 1 .138.222.533.533 0 0 1-.054.323l-1.955 4.3a.694.694 0 0 1-.208.278.533.533 0 0 1-.325.086zm5.249.04a.582.582 0 0 1-.331-.091.69.69 0 0 1-.204-.281l-1.888-4.329a.494.494 0 0 1-.042-.324.373.373 0 0 1 .156-.22.485.485 0 0 1 .281-.079c.142.001.247.034.315.098.074.06.134.151.182.274l1.714 4.055-.316-.002 1.768-4.036a.725.725 0 0 1 .194-.264.458.458 0 0 1 .31-.093.418.418 0 0 1 .264.083.358.358 0 0 1 .138.222.536.536 0 0 1-.054.324l-1.954 4.299a.689.689 0 0 1-.209.278.524.524 0 0 1-.324.086zm3.658.028c-.152-.001-.27-.043-.353-.127a.53.53 0 0 1-.115-.362l.034-4.337c.001-.157.041-.277.12-.359a.48.48 0 0 1 .355-.123c.152.001.267.044.345.128.083.084.123.205.122.362l-.033 4.336a.525.525 0 0 1-.121.36c-.079.083-.197.124-.354.122zm2.078.016c-.152-.001-.27-.043-.353-.128a.52.52 0 0 1-.115-.361l.033-4.285c.001-.157.044-.275.128-.352a.477.477 0 0 1 .354-.123l1.775.014c.569.004 1.007.15 1.314.437.307.287.459.686.455 1.196-.004.511-.162.909-.473 1.197-.311.282-.752.421-1.321.416l-1.311-.01-.011 1.517a.53.53 0 0 1-.121.36c-.079.083-.197.124-.354.122zm.492-2.742l1.163.009c.334.002.587-.069.76-.215.173-.151.261-.371.263-.661.002-.289-.082-.509-.253-.657-.17-.149-.422-.224-.756-.227l-1.163-.009-.014 1.76zm154.451 2.658a.582.582 0 0 1-.331-.091.69.69 0 0 1-.204-.281l-1.888-4.329a.498.498 0 0 1-.042-.325.371.371 0 0 1 .156-.219.478.478 0 0 1 .281-.079c.142.001.247.034.316.098a.656.656 0 0 1 .182.274l1.713 4.055-.316-.002 1.768-4.036a.708.708 0 0 1 .194-.264.458.458 0 0 1 .31-.093.413.413 0 0 1 .264.083c.073.054.12.128.138.222a.533.533 0 0 1-.054.323l-1.954 4.3a.696.696 0 0 1-.209.278.53.53 0 0 1-.324.086zm5.248.04a.58.58 0 0 1-.33-.091.69.69 0 0 1-.204-.281l-1.889-4.329a.487.487 0 0 1-.041-.324.373.373 0 0 1 .156-.22.482.482 0 0 1 .28-.079c.143.001.248.034.316.098.073.06.134.151.182.274l1.714 4.055-.317-.002 1.769-4.036a.724.724 0 0 1 .193-.264.461.461 0 0 1 .31-.093.421.421 0 0 1 .265.083.358.358 0 0 1 .138.222.536.536 0 0 1-.054.324l-1.955 4.299a.687.687 0 0 1-.208.278.525.525 0 0 1-.325.086zm3.659.028c-.153-.001-.27-.043-.353-.127a.525.525 0 0 1-.115-.362l.033-4.337c.002-.157.042-.277.121-.359a.477.477 0 0 1 .354-.123c.153.001.268.044.345.128.083.084.124.205.123.362l-.033 4.336a.53.53 0 0 1-.121.36c-.079.083-.197.124-.354.122zm2.077.016c-.152-.001-.269-.043-.352-.128a.52.52 0 0 1-.115-.361l.033-4.285c.001-.157.044-.275.128-.352a.477.477 0 0 1 .354-.123l1.774.014c.57.004 1.008.15 1.315.437.307.287.459.686.455 1.196-.004.511-.162.909-.473 1.197-.312.282-.752.421-1.321.416l-1.311-.01-.012 1.517a.525.525 0 0 1-.12.36c-.079.083-.197.124-.355.122zm.493-2.742l1.163.009c.334.002.587-.069.76-.215.173-.151.261-.371.263-.661.002-.289-.082-.509-.253-.657-.171-.149-.423-.224-.756-.227l-1.164-.009-.013 1.76z" fill="#fff"/><path d="M375.095 361.707h-46.867v86.531h46.867v-86.531zm-165.549 0h-45.463v86.531h45.463v-86.531zm2.417 0h28.156v82.388h-7.538v53.795l9.843 9.263h20.156v18.53h-50.617V361.707zm113.752 0h-28.592v81.523h7.969v54.66l-9.842 9.263h-20.156v18.53h50.621V361.707zM164.083 528.23h98.064v15.469h-17.345v17.807h-80.719V528.23zm210.58 0h-99.357v15.469h17.341v17.807h82.016V528.23z" fill="#C9C5C5"/><path d="M294.999 359.212v86.314h7.996v50.595l-8.368 8.368h-21.371v39.52h-8.393v-39.252h-22.245l-7.918-7.918v-50.331h7.538v-86.92h-63.53v-66.872h5.471v64h62.703v85.649l.229 2.162a30.703 30.703 0 1 0 44.109.618v-88.684h62.885v-63.745h6.054v66.496h-65.16z" fill="#C9C5C5"/><path d="M268.906 497.829c17.688 0 32.026-14.339 32.026-32.026 0-17.688-14.338-32.027-32.026-32.027-17.687 0-32.026 14.339-32.026 32.027 0 17.687 14.339 32.026 32.026 32.026z" fill="#C9C5C5" stroke="#fff" stroke-width="4.602" stroke-miterlimit="10"/><path d="M291.453 544.869h-45.708v16.636h45.708v-16.636z" fill="#C9C5C5"/></g><path d="M497.629 197.907c-.186.043-.344.026-.474-.05a.613.613 0 0 1-.248-.395c-.043-.186-.024-.337.055-.453.086-.118.222-.198.408-.24l1.203-.274-1.201-5.273.666-.152-1.361 1.315a.636.636 0 0 1-.365.185.607.607 0 0 1-.335-.082.696.696 0 0 1-.229-.264.577.577 0 0 1-.057-.348.637.637 0 0 1 .211-.365l1.279-1.228c.123-.119.25-.223.38-.313a.994.994 0 0 1 .376-.187.568.568 0 0 1 .405.043c.118.056.198.177.241.363l1.365 5.993 1.095-.25c.186-.042.34-.028.461.042.129.069.215.196.257.382.042.186.021.342-.063.466-.078.124-.21.206-.396.249l-3.673.836zm7.42-1.577c-.308.07-.637.096-.987.078a3.499 3.499 0 0 1-1.024-.23.51.51 0 0 1-.289-.227.685.685 0 0 1-.098-.329.679.679 0 0 1 .085-.324.467.467 0 0 1 .255-.216.559.559 0 0 1 .396 0c.276.088.528.136.756.144a2.53 2.53 0 0 0 .664-.061c.415-.094.744-.271.986-.529.242-.259.391-.598.446-1.017.061-.428.026-.928-.104-1.501l-.184-.806.129-.029c.031.37-.016.708-.142 1.015a1.93 1.93 0 0 1-.569.774 2.262 2.262 0 0 1-.909.422c-.43.097-.84.082-1.231-.048a2.253 2.253 0 0 1-.991-.678 2.754 2.754 0 0 1-.576-1.19c-.112-.494-.108-.955.013-1.382a2.38 2.38 0 0 1 .689-1.094 2.592 2.592 0 0 1 1.223-.629c.63-.143 1.197-.118 1.701.076.503.194.934.548 1.292 1.061.356.507.625 1.157.806 1.952.147.644.202 1.234.166 1.769a3.613 3.613 0 0 1-.348 1.401 2.78 2.78 0 0 1-.852 1.019 3.4 3.4 0 0 1-1.303.579zm-.495-4.01a1.34 1.34 0 0 0 .637-.326c.173-.167.289-.367.35-.599.058-.24.056-.495-.006-.767a1.595 1.595 0 0 0-.327-.694 1.188 1.188 0 0 0-.572-.378 1.339 1.339 0 0 0-.716-.018c-.257.059-.47.168-.637.326a1.286 1.286 0 0 0-.352.589c-.06.232-.058.487.005.767.062.272.171.503.328.693.162.182.353.311.574.389.219.071.458.077.716.018zm1.665 55.689c-.229.053-.409.041-.539-.035-.125-.085-.21-.227-.256-.428a.743.743 0 0 1 .016-.376c.039-.129.104-.272.196-.429l1.635-2.79c.252-.418.417-.784.496-1.095.078-.319.085-.622.02-.909-.082-.357-.258-.603-.53-.737-.264-.136-.611-.155-1.041-.057a2.635 2.635 0 0 0-.706.274 2.61 2.61 0 0 0-.662.512.557.557 0 0 1-.341.191.541.541 0 0 1-.322-.074.645.645 0 0 1-.295-.599.647.647 0 0 1 .187-.37 3.67 3.67 0 0 1 .924-.708 4.432 4.432 0 0 1 1.123-.425c.544-.124 1.021-.146 1.431-.066.41.08.747.255 1.012.526s.449.632.552 1.083c.068.301.085.606.05.915a3.542 3.542 0 0 1-.242.97c-.127.338-.31.707-.55 1.108l-1.54 2.565-.083-.365 3.158-.719c.193-.044.35-.031.472.039.121.07.203.199.246.385.042.186.024.341-.053.464s-.213.206-.406.25l-3.952.9zm6.686-1.523c-.186.043-.344.026-.474-.05a.613.613 0 0 1-.248-.395c-.043-.186-.024-.337.055-.453.086-.118.222-.198.408-.24l1.203-.274-1.201-5.273.666-.152-1.361 1.316a.64.64 0 0 1-.365.184.615.615 0 0 1-.335-.081.696.696 0 0 1-.229-.264.58.58 0 0 1-.057-.349.631.631 0 0 1 .211-.364l1.279-1.229c.123-.119.25-.223.38-.313.129-.097.254-.159.376-.187a.573.573 0 0 1 .405.043c.118.056.198.177.241.363l1.365 5.993 1.095-.249c.186-.043.34-.029.461.041.129.069.214.196.257.382.042.187.021.342-.063.467-.078.123-.21.206-.396.248l-3.673.836zm-2.524 46.168c-.235-.007-.406-.063-.513-.168-.1-.113-.147-.272-.142-.478a.743.743 0 0 1 .109-.361c.069-.115.168-.238.297-.366l2.276-2.297c.348-.343.598-.656.753-.938.155-.29.236-.581.244-.875.01-.367-.1-.649-.33-.846-.222-.197-.553-.302-.994-.314a2.7 2.7 0 0 0-.752.09 2.63 2.63 0 0 0-.769.332.547.547 0 0 1-.377.1.542.542 0 0 1-.294-.151.632.632 0 0 1-.157-.302.64.64 0 0 1 .021-.352.635.635 0 0 1 .273-.312 3.673 3.673 0 0 1 1.07-.456 4.427 4.427 0 0 1 1.193-.133c.558.015 1.026.112 1.403.291.377.18.66.433.85.762.189.328.278.723.265 1.186a2.717 2.717 0 0 1-.178.898 3.512 3.512 0 0 1-.476.88 6.88 6.88 0 0 1-.807.937l-2.129 2.102.01-.374 3.237.087c.199.006.348.057.448.156.1.098.148.242.143.433-.006.191-.061.336-.167.436-.105.1-.257.148-.455.142l-4.052-.109zm8.284.334a5.227 5.227 0 0 1-1.229-.188 3.543 3.543 0 0 1-1.1-.492.744.744 0 0 1-.288-.338.606.606 0 0 1-.035-.354.63.63 0 0 1 .173-.293.558.558 0 0 1 .324-.134.746.746 0 0 1 .426.11c.297.17.584.295.861.376.277.074.562.115.856.123.323.008.596-.028.818-.111a.994.994 0 0 0 .506-.383 1.12 1.12 0 0 0 .194-.633c.01-.367-.108-.642-.353-.825-.237-.19-.59-.292-1.06-.304l-.705-.019c-.205-.006-.362-.062-.469-.167-.1-.106-.148-.25-.143-.434.005-.184.061-.325.166-.425.113-.1.272-.147.478-.142l.572.016c.279.007.519-.03.72-.113.2-.09.358-.218.473-.384.114-.166.175-.37.182-.612.009-.338-.098-.598-.321-.78-.215-.182-.536-.279-.962-.29a2.871 2.871 0 0 0-1.564.398.6.6 0 0 1-.388.089.498.498 0 0 1-.294-.151.628.628 0 0 1-.157-.291.577.577 0 0 1 .032-.352.637.637 0 0 1 .283-.312 3.657 3.657 0 0 1 1.059-.434c.385-.1.779-.144 1.183-.133.535.014.992.111 1.369.29.377.172.661.415.851.728.197.307.29.677.278 1.11a2.003 2.003 0 0 1-.199.843 1.826 1.826 0 0 1-1.293.979l.003-.132c.526.102.931.333 1.215.694.285.352.42.789.406 1.311-.013.455-.137.848-.374 1.18a2.192 2.192 0 0 1-.99.755c-.423.165-.924.24-1.504.224zm-7.233 59.515c-.234-.013-.404-.074-.508-.183-.097-.116-.139-.276-.128-.481a.74.74 0 0 1 .119-.358 2 2 0 0 1 .307-.358l2.341-2.23c.357-.334.617-.639.779-.917a1.95 1.95 0 0 0 .269-.867c.021-.367-.081-.652-.305-.856-.217-.203-.545-.317-.985-.341a2.654 2.654 0 0 0-.754.068 2.585 2.585 0 0 0-.778.31.557.557 0 0 1-.38.089.538.538 0 0 1-.289-.159.628.628 0 0 1-.149-.307.639.639 0 0 1 .031-.351.644.644 0 0 1 .281-.304 3.648 3.648 0 0 1 1.083-.425 4.426 4.426 0 0 1 1.197-.099c.557.031 1.022.141 1.394.331.371.19.647.451.827.785.18.334.258.731.232 1.193a2.717 2.717 0 0 1-.204.894 3.53 3.53 0 0 1-.501.865 6.85 6.85 0 0 1-.834.914l-2.187 2.04.021-.374 3.233.18c.198.011.346.067.443.168.097.101.141.247.13.438-.01.19-.07.334-.178.431-.109.097-.262.14-.46.129l-4.047-.225zm8.491.582a4.776 4.776 0 0 1-1.179-.22 3.865 3.865 0 0 1-1.085-.534.718.718 0 0 1-.269-.324.69.69 0 0 1-.012-.365.628.628 0 0 1 .182-.299.517.517 0 0 1 .316-.137.69.69 0 0 1 .402.122c.262.169.531.302.805.398.274.096.569.153.884.17.308.017.575-.023.801-.121.226-.097.403-.242.532-.433.128-.192.199-.42.214-.684.023-.41-.083-.747-.319-1.01-.235-.271-.569-.418-1.001-.442a1.982 1.982 0 0 0-.689.083 1.865 1.865 0 0 0-.671.36 1.529 1.529 0 0 1-.262.162.734.734 0 0 1-.335.059c-.183-.011-.32-.066-.41-.167a.537.537 0 0 1-.121-.404l.2-3.596c.011-.198.071-.345.179-.442.116-.104.274-.15.471-.139l3.619.201c.198.011.345.07.442.179.105.101.152.247.141.438a.559.559 0 0 1-.189.42c-.108.097-.261.14-.459.129l-2.86-.159-.136 2.463-.363-.02c.205-.246.468-.43.791-.552a2.529 2.529 0 0 1 1.046-.151c.491.027.91.157 1.258.39.355.225.621.53.798.915.185.378.264.813.237 1.304a2.61 2.61 0 0 1-.416 1.323 2.375 2.375 0 0 1-1.029.847c-.429.19-.934.268-1.513.236zm-8.61 65.656c-.235-.007-.406-.064-.513-.17-.1-.113-.146-.272-.14-.478a.726.726 0 0 1 .109-.36c.07-.116.169-.238.298-.366l2.283-2.291c.348-.342.599-.654.755-.936.155-.289.237-.581.246-.874.011-.367-.099-.65-.328-.847-.222-.198-.553-.303-.993-.316-.25-.008-.5.022-.752.088a2.586 2.586 0 0 0-.77.329.544.544 0 0 1-.378.099.536.536 0 0 1-.293-.151.633.633 0 0 1-.156-.303.64.64 0 0 1 .021-.352.644.644 0 0 1 .274-.311 3.632 3.632 0 0 1 1.071-.453c.4-.099.798-.142 1.194-.13.558.016 1.025.115 1.402.295s.659.434.848.763c.188.329.276.725.262 1.187a2.696 2.696 0 0 1-.181.898 3.53 3.53 0 0 1-.477.879 6.981 6.981 0 0 1-.81.934l-2.134 2.097.011-.374 3.237.096c.198.005.347.058.447.156.1.099.147.243.141.434-.005.191-.061.336-.167.436-.106.1-.258.146-.456.141l-4.051-.12zm7.028.296a.69.69 0 0 1-.415-.134.483.483 0 0 1-.189-.325.755.755 0 0 1 .113-.459l3.51-6.155-.014.484-3.567-.106c-.198-.005-.351-.061-.458-.167-.1-.106-.147-.251-.141-.434.005-.191.061-.336.167-.436.113-.1.269-.146.467-.141l4.26.127a.732.732 0 0 1 .48.168c.122.106.18.255.174.446a1.284 1.284 0 0 1-.078.427c-.048.117-.11.243-.188.381l-3.304 5.885a.788.788 0 0 1-.329.343.944.944 0 0 1-.488.096zm-8.704 72.443c-.234-.016-.403-.078-.506-.188-.096-.117-.137-.278-.123-.483a.729.729 0 0 1 .123-.356c.073-.113.177-.231.31-.355l2.364-2.207c.36-.33.622-.633.788-.909.165-.283.258-.571.277-.865.024-.366-.075-.652-.297-.858-.214-.205-.541-.323-.981-.351a2.655 2.655 0 0 0-.755.06c-.253.05-.514.151-.781.302a.551.551 0 0 1-.381.086.533.533 0 0 1-.287-.163.65.65 0 0 1-.112-.658.645.645 0 0 1 .285-.302 3.692 3.692 0 0 1 1.087-.414 4.424 4.424 0 0 1 1.198-.087c.557.037 1.02.152 1.39.345.37.194.643.458.82.794.177.335.25.734.219 1.195-.02.308-.091.605-.213.891a3.502 3.502 0 0 1-.509.861 6.884 6.884 0 0 1-.843.905l-2.208 2.019.025-.374 3.231.212c.198.013.345.071.442.173.096.102.138.248.125.438-.012.191-.073.334-.182.43-.11.096-.263.137-.461.124l-4.045-.265zm7.814.623a3.629 3.629 0 0 1-.969-.207 3.523 3.523 0 0 1-.915-.513.512.512 0 0 1-.212-.301.683.683 0 0 1 0-.342.687.687 0 0 1 .173-.287.476.476 0 0 1 .307-.134.56.56 0 0 1 .379.113 2.54 2.54 0 0 0 1.337.485c.425.028.791-.047 1.097-.226.306-.178.545-.461.718-.847.18-.393.289-.882.328-1.468l.054-.825.132.009a2.144 2.144 0 0 1-.426.932 1.92 1.92 0 0 1-.766.579c-.302.12-.633.168-.992.145a2.252 2.252 0 0 1-1.166-.397 2.252 2.252 0 0 1-.756-.932 2.759 2.759 0 0 1-.212-1.306c.033-.505.169-.945.407-1.32a2.37 2.37 0 0 1 .972-.852 2.593 2.593 0 0 1 1.352-.254c.645.043 1.181.229 1.608.559.427.329.739.791.936 1.386.197.586.268 1.287.215 2.1-.043.659-.159 1.241-.346 1.743-.18.496-.424.911-.733 1.244a2.784 2.784 0 0 1-1.108.733 3.404 3.404 0 0 1-1.414.183zm.67-3.985a1.34 1.34 0 0 0 .704-.13c.214-.112.382-.27.506-.475.124-.213.196-.458.214-.737a1.607 1.607 0 0 0-.116-.758 1.181 1.181 0 0 0-.44-.525 1.334 1.334 0 0 0-.681-.222 1.332 1.332 0 0 0-.704.131 1.28 1.28 0 0 0-.505.463 1.614 1.614 0 0 0-.214.737c-.018.278.02.531.116.758.103.22.25.399.439.537.191.13.417.204.681.221zm-7.759 57.864a5.272 5.272 0 0 1-1.223-.226 3.55 3.55 0 0 1-1.083-.528.735.735 0 0 1-.278-.347.606.606 0 0 1-.023-.354.62.62 0 0 1 .182-.287.56.56 0 0 1 .328-.125.75.75 0 0 1 .423.125c.291.179.573.313.848.403.274.082.558.132.851.149.323.019.597-.009.822-.084a.997.997 0 0 0 .518-.367c.128-.169.199-.378.213-.627.022-.367-.087-.645-.326-.836-.231-.197-.581-.31-1.05-.338l-.704-.041c-.205-.012-.359-.073-.463-.182-.097-.108-.14-.254-.129-.438.011-.183.07-.323.179-.419.116-.097.277-.139.482-.126l.572.033c.278.017.519-.013.722-.09.204-.083.365-.206.485-.368a1.11 1.11 0 0 0 .202-.606c.019-.338-.079-.601-.296-.79-.21-.189-.527-.296-.952-.321a2.911 2.911 0 0 0-.776.054 3 3 0 0 0-.8.295.604.604 0 0 1-.391.076.492.492 0 0 1-.288-.161.585.585 0 0 1-.106-.646.624.624 0 0 1 .294-.302 3.613 3.613 0 0 1 1.072-.401 4.237 4.237 0 0 1 1.186-.095c.535.031.988.142 1.359.333.372.184.648.436.828.755.187.313.268.685.243 1.118a2.015 2.015 0 0 1-.226.836 1.831 1.831 0 0 1-.532.609 1.89 1.89 0 0 1-.792.328l.008-.132c.522.119.92.364 1.192.733.273.361.394.803.364 1.323-.027.455-.164.844-.411 1.168a2.197 2.197 0 0 1-1.014.723c-.428.152-.931.21-1.51.176zm5.17.194c-.191-.011-.338-.071-.442-.18a.62.62 0 0 1-.128-.449c.011-.191.071-.331.179-.42.116-.089.269-.128.459-.116l1.232.072.318-5.399.681.04-1.674.884a.64.64 0 0 1-.401.075.607.607 0 0 1-.299-.172.686.686 0 0 1-.147-.317.585.585 0 0 1 .043-.351.643.643 0 0 1 .304-.291l1.571-.823c.152-.079.303-.144.453-.194a1.01 1.01 0 0 1 .412-.075.57.57 0 0 1 .377.154c.098.087.142.226.13.416l-.361 6.136 1.122.066c.19.011.334.067.431.169.104.102.151.248.14.438-.011.191-.075.334-.191.43-.109.097-.258.14-.449.128l-3.76-.221zm-7.387 48.813a5.228 5.228 0 0 1-1.183-.385 3.571 3.571 0 0 1-1.005-.664.745.745 0 0 1-.229-.381.605.605 0 0 1 .023-.354.628.628 0 0 1 .218-.261.557.557 0 0 1 .341-.081c.133.011.267.07.403.179.265.215.528.386.788.51.262.118.537.205.825.26a2.2 2.2 0 0 0 .825.024c.233-.045.421-.143.562-.295.149-.151.247-.349.294-.594.069-.361-.002-.651-.214-.872-.203-.226-.536-.383-.997-.472l-.692-.133c-.202-.039-.347-.119-.436-.241-.082-.12-.105-.271-.07-.451.034-.18.112-.311.232-.393.128-.08.292-.1.494-.062l.563.109c.274.052.516.054.728.005a1.11 1.11 0 0 0 .529-.302c.14-.145.233-.336.279-.574.064-.332 0-.606-.19-.822-.183-.215-.483-.362-.902-.443a2.935 2.935 0 0 0-.776-.048 3.001 3.001 0 0 0-.832.188.599.599 0 0 1-.397.024.494.494 0 0 1-.265-.197.626.626 0 0 1-.108-.312.574.574 0 0 1 .088-.342.632.632 0 0 1 .331-.262c.348-.142.72-.228 1.115-.256a4.241 4.241 0 0 1 1.188.06c.526.101.961.271 1.304.509.345.231.585.516.722.857.145.334.176.714.094 1.14a2.012 2.012 0 0 1-.333.799 1.842 1.842 0 0 1-.607.534 1.892 1.892 0 0 1-.828.222l.025-.13c.502.186.864.48 1.086.882.223.394.286.848.187 1.36-.086.447-.273.815-.56 1.103a2.194 2.194 0 0 1-1.099.585c-.445.094-.952.086-1.521-.023zm6.485 1.248a5.288 5.288 0 0 1-1.182-.385 3.543 3.543 0 0 1-1.005-.664.747.747 0 0 1-.23-.381.6.6 0 0 1 .024-.355.624.624 0 0 1 .218-.26.556.556 0 0 1 .341-.081.75.75 0 0 1 .403.179c.265.215.528.386.788.51.261.118.536.205.825.26a2.2 2.2 0 0 0 .825.024c.233-.045.42-.143.562-.295.148-.151.246-.349.293-.595.07-.36-.001-.65-.213-.871-.204-.226-.536-.383-.998-.472l-.692-.133c-.202-.039-.347-.119-.436-.241-.081-.12-.105-.271-.07-.451.035-.18.112-.311.233-.393.127-.08.292-.101.494-.062l.562.109c.274.052.517.054.728.005.213-.056.389-.157.53-.302.14-.145.233-.336.278-.574.064-.332.001-.606-.189-.822-.183-.215-.484-.362-.902-.443a2.94 2.94 0 0 0-.776-.048 3.038 3.038 0 0 0-.833.187.593.593 0 0 1-.397.025.497.497 0 0 1-.265-.197.626.626 0 0 1-.108-.312.581.581 0 0 1 .088-.342.628.628 0 0 1 .331-.262 3.622 3.622 0 0 1 1.115-.256 4.21 4.21 0 0 1 1.189.06c.526.101.961.271 1.304.509.344.231.585.516.721.857.145.334.177.714.095 1.139-.059.303-.17.57-.334.8a1.832 1.832 0 0 1-.607.534 1.912 1.912 0 0 1-.828.222l.025-.13c.503.186.865.48 1.087.882.223.394.285.848.187 1.36a2.08 2.08 0 0 1-.56 1.103 2.197 2.197 0 0 1-1.1.585c-.444.094-.951.086-1.521-.023zm-30.648 67.171a5.242 5.242 0 0 1-1.096-.587 3.547 3.547 0 0 1-.872-.831.738.738 0 0 1-.159-.415.6.6 0 0 1 .086-.345.616.616 0 0 1 .261-.218.553.553 0 0 1 .349-.019.743.743 0 0 1 .365.247c.223.259.452.473.686.641.237.162.492.296.766.401.302.116.571.173.808.17a.997.997 0 0 0 .605-.192c.173-.123.305-.3.394-.533.132-.343.113-.641-.057-.895-.16-.259-.459-.472-.898-.641l-.658-.253c-.192-.074-.32-.179-.386-.314-.059-.133-.056-.285.01-.457.066-.171.165-.286.298-.345.14-.056.306-.048.498.026l.534.206c.261.1.499.145.716.134.219-.018.411-.086.574-.204a1.11 1.11 0 0 0 .376-.517c.121-.315.107-.596-.042-.842-.142-.243-.412-.442-.81-.595a2.919 2.919 0 0 0-.755-.184 2.99 2.99 0 0 0-.852.038.602.602 0 0 1-.396-.046.494.494 0 0 1-.226-.241.63.63 0 0 1-.051-.326.58.58 0 0 1 .147-.321.636.636 0 0 1 .372-.2 3.621 3.621 0 0 1 1.142-.055c.396.034.783.124 1.16.269.5.192.898.436 1.194.731.298.287.484.611.559.97.083.355.047.734-.108 1.139-.111.287-.267.53-.469.728-.2.191-.43.33-.692.418a1.901 1.901 0 0 1-.854.073l.047-.124c.462.272.766.626.914 1.06.15.428.132.885-.056 1.371-.163.425-.412.755-.746.988-.333.234-.728.361-1.185.382-.454.014-.952-.083-1.493-.292zm6.369 2.452a4.823 4.823 0 0 1-1.054-.572 3.862 3.862 0 0 1-.869-.841.72.72 0 0 1-.156-.391.695.695 0 0 1 .1-.351.62.62 0 0 1 .265-.228.518.518 0 0 1 .343-.034.688.688 0 0 1 .345.239c.198.242.413.45.644.626.231.176.494.32.789.433.288.111.554.155.8.131.245-.024.458-.107.639-.25a1.34 1.34 0 0 0 .413-.584c.148-.384.15-.737.007-1.06-.141-.329-.413-.572-.818-.727a1.96 1.96 0 0 0-.681-.133 1.878 1.878 0 0 0-.749.137 1.5 1.5 0 0 1-.299.074.73.73 0 0 1-.336-.047c-.172-.066-.285-.161-.34-.284a.544.544 0 0 1 .009-.422l1.294-3.361c.071-.185.173-.307.306-.366.142-.063.306-.059.491.012l3.382 1.301c.185.071.307.174.366.306.069.129.069.282 0 .461-.066.171-.169.285-.308.341-.133.059-.292.053-.477-.018l-2.673-1.029-.886 2.303-.339-.13c.27-.172.578-.266.923-.283.344-.016.692.042 1.041.177.459.177.818.429 1.078.757.269.324.428.696.479 1.117.06.416.001.854-.175 1.313-.182.473-.449.85-.802 1.132a2.38 2.38 0 0 1-1.239.49c-.467.049-.971-.031-1.513-.239zM276.682 794.866a5.241 5.241 0 0 1-1.238-.115 3.578 3.578 0 0 1-1.127-.428.744.744 0 0 1-.307-.321c-.055-.124-.074-.241-.055-.351a.633.633 0 0 1 .156-.303.559.559 0 0 1 .315-.153.755.755 0 0 1 .432.086c.306.152.6.261.881.325.281.058.568.082.862.073.323-.01.593-.063.81-.158a.997.997 0 0 0 .483-.411c.112-.18.164-.395.157-.644-.012-.367-.145-.635-.4-.803-.248-.176-.607-.257-1.076-.243l-.705.022c-.206.007-.365-.04-.478-.139-.106-.1-.162-.241-.168-.425-.005-.183.041-.328.141-.434.107-.106.263-.162.469-.169l.572-.017a1.77 1.77 0 0 0 .712-.155c.195-.101.345-.238.45-.41.105-.173.153-.38.146-.622-.011-.338-.132-.591-.365-.76-.226-.169-.552-.247-.978-.234a2.882 2.882 0 0 0-.767.123c-.233.066-.49.188-.771.365a.596.596 0 0 1-.382.111.49.49 0 0 1-.302-.134.625.625 0 0 1-.174-.281.584.584 0 0 1 .011-.353.631.631 0 0 1 .265-.327 3.595 3.595 0 0 1 1.032-.495c.378-.122.769-.19 1.173-.202.535-.017.997.053 1.384.21.386.15.684.376.891.678.215.295.329.658.343 1.091.009.309-.041.593-.15.854-.11.253-.268.471-.476.653a1.89 1.89 0 0 1-.759.399l-.004-.132c.531.071.949.279 1.254.622.304.336.464.764.48 1.285.015.455-.087.855-.304 1.2s-.532.615-.944.812c-.413.189-.91.292-1.489.31zm5.345-.188a.68.68 0 0 1-.422-.108.477.477 0 0 1-.208-.313.748.748 0 0 1 .085-.465l3.13-6.357.015.484-3.567.111c-.198.006-.354-.04-.467-.139-.106-.1-.162-.242-.167-.425-.006-.191.04-.339.14-.445.107-.106.259-.163.458-.169l4.26-.132a.737.737 0 0 1 .489.139c.128.099.195.244.201.435.005.161-.012.305-.052.431a3.554 3.554 0 0 1-.165.391l-2.941 6.075a.783.783 0 0 1-.308.362.947.947 0 0 1-.481.125zm-88.19-13.749a5.285 5.285 0 0 1-1.127-.525 3.54 3.54 0 0 1-.917-.782.73.73 0 0 1-.182-.405.598.598 0 0 1 .066-.349.63.63 0 0 1 .248-.233.558.558 0 0 1 .348-.038.744.744 0 0 1 .379.226c.237.246.477.447.72.602.245.149.508.268.787.358.308.099.58.14.817.124.236-.017.434-.092.593-.226.166-.131.287-.316.364-.554.112-.349.077-.646-.107-.89-.174-.249-.485-.446-.933-.59l-.671-.216c-.195-.063-.33-.16-.403-.292-.067-.129-.072-.281-.015-.456.056-.175.149-.295.278-.362.136-.064.302-.064.498-.001l.545.175c.266.086.507.117.722.094.218-.03.406-.109.562-.236a1.11 1.11 0 0 0 .347-.536c.103-.322.073-.601-.089-.839-.156-.235-.436-.418-.842-.549a2.95 2.95 0 0 0-.764-.142 3.02 3.02 0 0 0-.849.086.6.6 0 0 1-.397-.024.493.493 0 0 1-.24-.228.623.623 0 0 1-.069-.323.582.582 0 0 1 .129-.329.63.63 0 0 1 .36-.219 3.638 3.638 0 0 1 1.138-.12c.397.012.788.08 1.172.204.51.164.921.385 1.233.663.314.271.518.584.612.938.104.349.089.73-.044 1.143a2.014 2.014 0 0 1-.427.753 1.826 1.826 0 0 1-1.517.577l.041-.126c.476.246.8.581.972 1.007.173.418.18.876.021 1.372-.14.433-.37.776-.69 1.028-.32.252-.708.401-1.162.447-.453.04-.955-.03-1.507-.207zm5.857 1.885a3.592 3.592 0 0 1-.89-.436 3.527 3.527 0 0 1-.763-.721.514.514 0 0 1-.132-.343.69.69 0 0 1 .083-.332.688.688 0 0 1 .238-.236.473.473 0 0 1 .331-.055c.118.015.231.082.34.202a2.554 2.554 0 0 0 1.178.796c.405.13.778.146 1.119.048.34-.099.641-.315.902-.647.271-.337.496-.786.676-1.345l.253-.786.126.04a2.154 2.154 0 0 1-.64.801c-.265.2-.559.325-.884.375a2.255 2.255 0 0 1-.997-.101 2.256 2.256 0 0 1-1.035-.669 2.238 2.238 0 0 1-.505-1.088 2.753 2.753 0 0 1 .111-1.318c.156-.483.394-.876.716-1.181.329-.303.713-.5 1.151-.59.44-.098.898-.07 1.373.083.615.198 1.09.509 1.424.933.334.424.524.948.57 1.572.048.617-.053 1.314-.303 2.09-.202.629-.456 1.164-.76 1.606-.295.437-.633.78-1.014 1.028-.38.247-.798.395-1.253.441a3.386 3.386 0 0 1-1.415-.167zm1.62-3.702c.251.081.489.096.714.045a1.25 1.25 0 0 0 .606-.337c.173-.176.302-.397.387-.662.088-.273.112-.527.072-.764a1.182 1.182 0 0 0-.299-.617 1.332 1.332 0 0 0-.606-.38 1.338 1.338 0 0 0-.715-.045c-.224.051-.425.16-.602.327a1.61 1.61 0 0 0-.387.662c-.086.266-.11.52-.072.764.046.238.145.447.295.627.153.173.355.299.607.38zm-81.834-41.531c-.17-.14-.265-.295-.287-.465-.017-.176.047-.352.192-.527l.547-.663-2.099-1.731c-.176-.145-.287-.299-.334-.461-.041-.158.004-.316.135-.475a.997.997 0 0 1 .313-.241c.14-.065.344-.135.614-.207l5.11-1.453c.178-.054.34-.072.488-.055a.766.766 0 0 1 .408.18.662.662 0 0 1 .254.437c.026.165-.038.34-.192.527l-2.867 3.475.417.344c.164.135.253.275.267.42.024.144-.025.289-.146.437-.122.147-.257.225-.408.234-.14.009-.292-.055-.456-.19l-.417-.344-.546.663c-.145.176-.306.272-.481.289-.171.011-.342-.054-.512-.194zm1.195-2.556l2.186-2.651.247.204-4.431 1.285.239-.288 1.759 1.45zm1.772 4.889c-.147-.121-.23-.256-.25-.406a.622.622 0 0 1 .162-.438c.121-.147.252-.225.392-.233.146-.004.292.055.439.177l.952.785 3.441-4.172.527.434-1.873-.274a.635.635 0 0 1-.369-.176.613.613 0 0 1-.139-.315.693.693 0 0 1 .068-.343.585.585 0 0 1 .242-.258.647.647 0 0 1 .417-.056l1.754.262c.169.026.329.063.48.111a.996.996 0 0 1 .378.183.57.57 0 0 1 .213.347c.028.128-.019.265-.14.412l-3.911 4.742.866.715c.148.121.231.251.249.39.024.144-.024.29-.146.437-.121.147-.257.226-.408.235-.144.014-.29-.04-.438-.162l-2.906-2.397zM66.69 669.267c-.12-.184-.165-.361-.136-.53.036-.172.15-.321.34-.446l.718-.471-1.492-2.275c-.125-.191-.186-.37-.183-.539.007-.163.097-.301.269-.414a1.02 1.02 0 0 1 .37-.138c.154-.021.37-.026.648-.016l5.312.124c.185.002.346.033.482.093s.248.157.337.292c.105.16.142.324.112.493-.023.165-.136.314-.339.447l-3.766 2.471.296.451c.116.178.16.338.13.481-.019.144-.108.269-.268.373-.16.105-.313.14-.459.104-.136-.034-.263-.139-.38-.317l-.296-.452-.718.472c-.19.124-.372.169-.545.133-.166-.04-.31-.152-.431-.336zm1.898-2.088l2.874-1.885.175.267-4.613-.083.313-.205 1.251 1.906zm.94 6.452a5.23 5.23 0 0 1-.548-1.116 3.544 3.544 0 0 1-.223-1.184c0-.175.037-.318.113-.429a.603.603 0 0 1 .27-.231.628.628 0 0 1 .34-.025c.116.03.214.093.295.189.084.102.135.24.152.413.03.341.091.648.183.921.098.27.227.527.389.773.177.27.363.473.557.609a.997.997 0 0 0 .604.197 1.13 1.13 0 0 0 .63-.203c.307-.202.466-.455.476-.76.021-.304-.098-.652-.355-1.045l-.387-.589c-.113-.172-.156-.332-.13-.481.029-.142.12-.264.274-.364.153-.101.301-.137.443-.107.147.036.276.139.39.311l.313.479c.153.234.321.409.504.526.188.114.383.17.585.17a1.11 1.11 0 0 0 .606-.201c.283-.185.435-.421.458-.708.026-.281-.077-.599-.311-.956a2.937 2.937 0 0 0-.506-.59 2.998 2.998 0 0 0-.714-.466.603.603 0 0 1-.295-.268.499.499 0 0 1-.043-.328.63.63 0 0 1 .149-.295.584.584 0 0 1 .306-.175.638.638 0 0 1 .419.055c.345.152.665.359.96.621.302.259.564.558.785.895.294.448.475.878.543 1.29.075.408.037.78-.112 1.115-.138.337-.39.624-.751.862a2.023 2.023 0 0 1-.806.318 1.849 1.849 0 0 1-.806-.064 1.896 1.896 0 0 1-.736-.44l.11-.072c.217.49.258.955.124 1.394-.127.435-.409.795-.845 1.081-.38.25-.774.372-1.181.367a2.2 2.2 0 0 1-1.186-.381c-.377-.253-.725-.623-1.043-1.108zm-28.726-59.013c-.215.049-.396.03-.544-.056-.15-.094-.25-.252-.3-.474l-.19-.838-2.653.604c-.222.051-.412.045-.569-.017-.15-.064-.248-.196-.294-.396a1.004 1.004 0 0 1 0-.396c.034-.151.104-.355.211-.613l1.972-4.934c.066-.173.15-.313.255-.419a.771.771 0 0 1 .392-.214.665.665 0 0 1 .5.067c.147.08.247.238.3.474l1 4.392.527-.119c.208-.048.373-.033.496.045.129.068.214.196.257.382.042.186.02.342-.064.466-.079.116-.222.198-.43.245l-.526.12.19.838c.051.221.03.407-.064.557-.096.142-.251.237-.466.286zm-1.294-2.506l-.763-3.351.311-.071-1.688 4.293-.083-.365 2.223-.506zm7.734 1.04c-.215.049-.396.03-.544-.057-.15-.094-.25-.252-.3-.474l-.191-.838-2.653.604c-.222.051-.411.045-.569-.017-.15-.064-.247-.196-.293-.396a1.004 1.004 0 0 1 0-.396 3.95 3.95 0 0 1 .21-.612l1.972-4.934c.066-.173.151-.313.255-.42a.777.777 0 0 1 .392-.213.665.665 0 0 1 .501.066c.146.08.246.238.3.474l1 4.393.527-.12c.207-.047.373-.032.496.045.128.069.214.196.256.382.043.186.022.342-.063.467-.08.115-.222.197-.43.244l-.526.12.19.838c.051.222.03.408-.065.557-.095.142-.25.238-.465.287zm-1.294-2.507l-.764-3.351.312-.071-1.688 4.293-.083-.365 2.223-.506zm48.233 9.496c-.215.049-.396.03-.544-.057-.15-.094-.25-.252-.3-.474l-.19-.838-2.653.605c-.222.05-.412.044-.57-.018-.15-.063-.247-.196-.293-.396a.999.999 0 0 1 0-.395c.034-.151.104-.355.211-.613l1.972-4.934c.066-.173.15-.313.254-.42a.777.777 0 0 1 .392-.213.66.66 0 0 1 .501.067c.147.079.246.237.3.473l1 4.393.527-.12c.208-.047.373-.032.496.045.129.069.214.196.256.382.043.187.022.342-.063.467-.079.116-.222.197-.43.244l-.526.12.19.838c.051.222.03.408-.064.557-.096.142-.251.238-.466.287zm-1.294-2.507l-.763-3.351.311-.071-1.688 4.293-.083-.365 2.223-.506zm6.804 1.274c-.623.142-1.19.117-1.7-.075-.506-.202-.936-.555-1.293-1.062-.356-.506-.625-1.156-.806-1.951-.146-.645-.204-1.23-.174-1.757a3.743 3.743 0 0 1 .356-1.414c.2-.407.481-.746.842-1.016a3.477 3.477 0 0 1 1.313-.582c.315-.071.645-.094.99-.067.35.018.691.091 1.022.219a.519.519 0 0 1 .289.228c.062.107.091.22.089.341a.615.615 0 0 1-.084.325.5.5 0 0 1-.245.213.615.615 0 0 1-.398-.011 2.921 2.921 0 0 0-.756-.144 2.567 2.567 0 0 0-.664.061c-.415.095-.744.271-.987.53-.242.258-.394.598-.457 1.019-.055.419-.016.919.116 1.499l.183.805-.129.03a2.277 2.277 0 0 1 .142-1.016 1.84 1.84 0 0 1 .572-.762c.254-.209.556-.353.907-.433a2.225 2.225 0 0 1 1.231.047c.383.131.714.357.99.679.276.321.469.717.576 1.19.111.487.103.948-.024 1.384a2.374 2.374 0 0 1-.675 1.102c-.323.3-.732.506-1.226.618zm-.325-1.078c.258-.059.47-.167.638-.326.174-.16.292-.356.352-.588a1.659 1.659 0 0 0-.006-.767 1.6 1.6 0 0 0-.327-.694 1.188 1.188 0 0 0-.572-.378 1.27 1.27 0 0 0-.718-.028 1.27 1.27 0 0 0-.635.336 1.285 1.285 0 0 0-.352.589 1.61 1.61 0 0 0 .005.767c.062.272.171.503.328.693.162.182.352.308.572.378.22.071.458.077.715.018zm27.662 51.611c-.148-.163-.221-.33-.218-.502.008-.176.097-.341.265-.494l.635-.579-1.832-2.011c-.153-.168-.241-.336-.265-.504-.018-.162.049-.312.201-.45a.999.999 0 0 1 .344-.195c.148-.045.36-.084.637-.118l5.265-.713c.183-.028.347-.023.491.015.143.038.27.116.378.236a.66.66 0 0 1 .189.469c.003.166-.086.331-.265.494l-3.33 3.034.363.399c.143.157.212.308.205.454.003.145-.065.282-.206.411-.142.129-.287.187-.437.174-.14-.011-.282-.096-.425-.253l-.364-.399-.635.578c-.168.153-.34.226-.517.218-.171-.013-.33-.101-.479-.264zm1.545-2.361l2.541-2.314.215.236-4.568.645.277-.253 1.535 1.686zm2.093 6.387a4.738 4.738 0 0 1-.687-.983 3.858 3.858 0 0 1-.399-1.142.71.71 0 0 1 .035-.419.69.69 0 0 1 .246-.269.627.627 0 0 1 .34-.086.518.518 0 0 1 .321.124.682.682 0 0 1 .201.368c.069.305.168.588.296.849.128.26.299.507.511.741.208.228.427.386.656.475.23.089.458.11.684.063.225-.047.436-.159.631-.337.304-.277.464-.592.481-.944.022-.358-.113-.697-.405-1.017a1.971 1.971 0 0 0-1.28-.637 1.46 1.46 0 0 1-.301-.069.721.721 0 0 1-.279-.192c-.124-.136-.183-.271-.176-.406a.535.535 0 0 1 .197-.373l2.662-2.425c.147-.134.293-.197.438-.19.156.007.3.084.434.231l2.44 2.679c.133.146.197.292.19.438.003.145-.065.282-.206.411a.559.559 0 0 1-.429.167c-.146-.007-.285-.083-.418-.23l-1.929-2.117-1.824 1.661-.245-.269c.319-.032.636.022.952.162.316.139.6.347.852.624.331.364.539.751.624 1.16.095.41.071.814-.072 1.213-.133.399-.382.764-.745 1.096a2.619 2.619 0 0 1-1.224.652c-.435.089-.878.05-1.328-.117-.439-.166-.854-.463-1.244-.892zm46.49 39.768c-.197-.099-.325-.229-.384-.39-.055-.168-.032-.353.07-.557l.385-.767-2.431-1.221c-.204-.102-.346-.227-.428-.375-.075-.144-.067-.309.025-.492.053-.105.137-.207.252-.305a4.01 4.01 0 0 1 .552-.339l4.659-2.555a1.22 1.22 0 0 1 .463-.162.774.774 0 0 1 .439.085c.17.085.285.209.344.37.062.154.039.34-.07.556l-2.021 4.027.483.242c.19.095.308.212.354.35.055.135.04.287-.045.458-.086.171-.201.277-.346.32-.134.039-.297.011-.487-.085l-.482-.242-.386.768c-.102.203-.237.333-.404.388-.165.049-.345.025-.542-.074zm.595-2.758l1.542-3.071.285.143-4.033 2.24.168-.335 2.038 1.023zm2.591 4.258c-.21-.105-.341-.229-.394-.37-.042-.145-.017-.309.075-.492a.735.735 0 0 1 .252-.281c.111-.075.253-.144.423-.206l3.036-1.114c.46-.163.82-.34 1.08-.53.263-.197.46-.426.592-.689.165-.328.185-.63.061-.906-.118-.273-.374-.508-.768-.706a2.623 2.623 0 0 0-.718-.237 2.598 2.598 0 0 0-.838-.026.552.552 0 0 1-.384-.07.536.536 0 0 1-.202-.261.652.652 0 0 1 .154-.65.648.648 0 0 1 .38-.167 3.68 3.68 0 0 1 1.162.041c.404.08.783.208 1.137.386.499.251.881.537 1.147.859.265.322.414.672.447 1.05.032.378-.056.773-.263 1.187-.139.275-.32.521-.543.738-.217.22-.485.418-.804.595-.312.18-.689.348-1.129.505l-2.819 1.001.168-.335 2.894 1.453c.177.089.291.199.34.33.049.132.03.283-.055.453-.086.171-.198.279-.336.325-.138.046-.295.024-.473-.065l-3.622-1.818zm50.07 17.441c-.219-.027-.383-.107-.492-.239-.109-.139-.149-.322-.121-.548l.106-.852-2.7-.336c-.226-.028-.402-.098-.529-.21-.119-.111-.166-.268-.141-.472.015-.117.06-.241.135-.372.083-.13.219-.299.407-.505l3.534-3.967a1.21 1.21 0 0 1 .383-.307.779.779 0 0 1 .441-.068.666.666 0 0 1 .448.234c.111.124.151.307.121.548l-.556 4.47.536.067c.211.026.361.096.451.211.097.108.134.257.111.447-.024.189-.097.328-.219.417-.113.082-.276.11-.487.083l-.536-.066-.106.852c-.028.226-.112.393-.251.502-.138.101-.317.138-.535.111zm-.363-2.798l.424-3.41.317.039-3.05 3.462.047-.372 2.262.281zm5.679 3.481c-.911-.113-1.564-.542-1.96-1.287-.395-.752-.513-1.766-.355-3.041.107-.86.303-1.568.586-2.125.292-.563.664-.968 1.117-1.215.46-.246.992-.332 1.597-.257.918.114 1.572.536 1.963 1.265.397.731.516 1.737.357 3.019-.106.853-.305 1.564-.598 2.135-.285.564-.655.977-1.109 1.238-.453.255-.986.344-1.598.268zm.143-1.148c.495.062.888-.122 1.178-.553.298-.429.507-1.132.629-2.108.121-.977.089-1.698-.098-2.165-.178-.474-.514-.741-1.01-.803-.488-.061-.88.116-1.176.531-.295.407-.503 1.099-.624 2.076-.121.976-.09 1.709.093 2.198.183.489.519.763 1.008.824zm197.447-123.936a5.244 5.244 0 0 1-1.206-.301 3.553 3.553 0 0 1-1.049-.593.736.736 0 0 1-.255-.364.605.605 0 0 1-.002-.355.62.62 0 0 1 .2-.275.555.555 0 0 1 .334-.104.747.747 0 0 1 .415.15c.279.196.553.348.821.454.269.099.55.167.841.202.321.039.596.028.825-.034a.995.995 0 0 0 .54-.334c.138-.161.222-.365.252-.613.044-.364-.048-.649-.274-.854-.219-.211-.561-.345-1.028-.402l-.7-.084c-.204-.025-.354-.095-.451-.21-.09-.114-.124-.263-.102-.445.022-.182.09-.318.205-.408.121-.089.284-.121.488-.096l.569.069c.277.033.519.018.727-.046.208-.071.377-.183.506-.338.13-.154.209-.352.239-.592.04-.336-.042-.605-.247-.807-.197-.201-.508-.328-.93-.379a2.972 2.972 0 0 0-.778.006c-.24.03-.513.112-.817.245a.592.592 0 0 1-.395.052.491.491 0 0 1-.278-.177.624.624 0 0 1-.129-.305.573.573 0 0 1 .064-.347.631.631 0 0 1 .311-.284 3.67 3.67 0 0 1 1.095-.334 4.231 4.231 0 0 1 1.19-.022c.532.064.977.203 1.336.417.36.206.62.474.779.804.168.324.226.7.174 1.13-.037.307-.129.58-.276.821a1.837 1.837 0 0 1-.569.575 1.891 1.891 0 0 1-.811.279l.016-.131c.515.151.896.419 1.146.804.25.378.344.826.281 1.343-.055.452-.215.832-.482 1.14a2.193 2.193 0 0 1-1.056.66c-.437.125-.943.153-1.519.083zm6.71.811c-.911-.11-1.566-.537-1.964-1.28-.398-.751-.519-1.764-.365-3.04.104-.86.297-1.569.579-2.127.29-.564.661-.97 1.113-1.219.458-.247.99-.335 1.596-.261.918.111 1.574.53 1.967 1.258.4.729.522 1.735.367 3.018-.103.853-.3 1.565-.591 2.136-.283.565-.651.979-1.105 1.243-.452.255-.985.346-1.597.272zm.139-1.148c.496.06.888-.125 1.177-.556.296-.431.503-1.134.621-2.111.118-.977.083-1.699-.104-2.165-.18-.473-.518-.739-1.013-.799-.489-.059-.88.119-1.174.535-.294.408-.5 1.1-.618 2.077-.118.977-.084 1.71.101 2.198s.521.762 1.01.821zm8.555-51.571c-.235-.007-.406-.063-.513-.169-.1-.113-.147-.272-.141-.478a.736.736 0 0 1 .109-.36c.07-.116.168-.238.297-.367l2.278-2.294c.348-.343.599-.656.754-.938.155-.29.236-.581.244-.875.011-.367-.099-.649-.329-.846-.222-.198-.553-.302-.994-.315-.249-.006-.5.023-.751.09a2.594 2.594 0 0 0-.77.331.552.552 0 0 1-.377.1.544.544 0 0 1-.294-.152.626.626 0 0 1-.156-.302.631.631 0 0 1 .02-.352.654.654 0 0 1 .273-.312 3.69 3.69 0 0 1 1.071-.455 4.429 4.429 0 0 1 1.194-.132c.557.016 1.025.113 1.402.293.377.179.66.433.849.762.189.328.278.723.265 1.186a2.744 2.744 0 0 1-.179.898 3.535 3.535 0 0 1-.477.88 6.95 6.95 0 0 1-.808.936l-2.13 2.1.01-.374 3.237.09c.199.006.348.057.448.156.1.098.147.243.142.433-.005.191-.061.337-.166.437-.106.099-.258.147-.456.141l-4.052-.112zm8.438.344c-.602-.016-1.117-.115-1.546-.296-.42-.188-.744-.451-.969-.787-.219-.337-.322-.737-.309-1.199.011-.367.093-.688.247-.963.163-.282.378-.507.647-.676a2.08 2.08 0 0 1 .912-.305l-.006.231a1.971 1.971 0 0 1-1.115-.703c-.27-.36-.397-.783-.384-1.267.012-.44.133-.812.362-1.114.229-.309.547-.539.955-.69.409-.157.885-.228 1.428-.213.55.015 1.025.113 1.424.293.399.172.705.42.916.741.212.315.311.692.299 1.133a2.007 2.007 0 0 1-.223.886 1.727 1.727 0 0 1-.558.657 1.885 1.885 0 0 1-.814.33l.006-.221c.512.088.921.316 1.227.685.313.361.462.813.447 1.356-.013.463-.142.856-.386 1.18-.236.324-.574.568-1.012.732-.43.157-.946.227-1.548.21zm.03-1.101c.522.015.917-.073 1.187-.264.27-.199.41-.496.421-.892.011-.397-.113-.697-.371-.903-.259-.206-.649-.316-1.17-.33-.514-.014-.909.074-1.187.264-.269.191-.41.485-.421.881-.011.397.113.701.372.914.266.206.656.316 1.169.33zm.097-3.49a1.91 1.91 0 0 0 .753-.111c.208-.09.37-.222.485-.395.115-.173.175-.377.182-.612.01-.352-.107-.631-.352-.836-.236-.212-.571-.324-1.004-.336-.433-.012-.774.081-1.021.28-.248.191-.377.463-.387.816-.01.359.104.645.34.857.237.213.571.325 1.004.337zm2.36-36.281c-.235 0-.407-.052-.517-.155-.103-.11-.154-.268-.153-.474a.73.73 0 0 1 .1-.363c.066-.118.162-.242.287-.374l2.22-2.352c.338-.352.581-.671.729-.957.147-.293.221-.587.222-.88.001-.367-.116-.647-.35-.838-.228-.192-.562-.288-1.002-.289a2.65 2.65 0 0 0-.749.108c-.25.066-.504.183-.761.351a.551.551 0 0 1-.375.109.544.544 0 0 1-.297-.143.643.643 0 0 1-.153-.651.653.653 0 0 1 .265-.319c.317-.212.67-.372 1.059-.482a4.431 4.431 0 0 1 1.19-.162c.558.001 1.028.087 1.409.256.382.17.671.417.869.74.197.324.295.717.294 1.18 0 .308-.053.609-.156.903a3.51 3.51 0 0 1-.454.891c-.199.3-.46.619-.784.956l-2.076 2.154.001-.374 3.238.007c.199.001.349.049.452.144.102.096.153.239.153.43-.001.191-.052.338-.155.441-.103.102-.254.153-.452.153l-4.054-.01zm8.73.131c-.639-.002-1.185-.153-1.64-.456-.447-.309-.787-.75-1.021-1.324-.234-.573-.35-1.267-.348-2.082.002-.661.077-1.245.225-1.751.155-.514.376-.947.664-1.298a2.801 2.801 0 0 1 1.048-.802 3.47 3.47 0 0 1 1.41-.272c.323.001.65.053.98.156.338.097.653.244.947.443.117.074.194.17.23.287.037.118.04.235.01.353a.61.61 0 0 1-.155.297.5.5 0 0 1-.286.153.618.618 0 0 1-.386-.1 2.54 2.54 0 0 0-1.364-.399c-.426-.001-.786.097-1.081.294-.294.198-.518.495-.674.891-.147.396-.222.892-.223 1.486l-.002.827-.132-.001c.059-.374.181-.693.365-.957a1.85 1.85 0 0 1 .729-.615c.294-.146.621-.219.981-.218.447.001.844.108 1.188.322.345.214.616.508.813.883.198.375.296.805.295 1.289-.001.5-.113.947-.334 1.343a2.368 2.368 0 0 1-.905.923c-.383.22-.827.329-1.334.328zm-.074-1.124a1.33 1.33 0 0 0 .694-.174c.206-.117.364-.282.475-.495.111-.22.166-.47.167-.749a1.6 1.6 0 0 0-.164-.749 1.185 1.185 0 0 0-.472-.497 1.28 1.28 0 0 0-.694-.189c-.264 0-.495.062-.694.186a1.286 1.286 0 0 0-.475.495c-.11.212-.166.462-.167.748 0 .279.054.529.164.75.117.213.274.378.472.496.198.118.429.178.694.178zm-9.286-61.97c-.235.006-.409-.04-.522-.14-.106-.107-.161-.264-.167-.469a.734.734 0 0 1 .089-.366c.063-.12.155-.247.276-.383l2.149-2.416c.328-.362.561-.688.7-.978.139-.298.205-.593.197-.887-.01-.367-.135-.643-.376-.827-.232-.185-.569-.271-1.009-.259-.25.007-.499.05-.746.13a2.602 2.602 0 0 0-.75.374.56.56 0 0 1-.372.12.546.546 0 0 1-.301-.135.63.63 0 0 1-.173-.293.642.642 0 0 1 .001-.353.649.649 0 0 1 .256-.326 3.63 3.63 0 0 1 1.044-.513 4.427 4.427 0 0 1 1.184-.198c.558-.015 1.03.056 1.417.215.386.158.683.396.89.714.207.317.316.707.329 1.17.008.308-.035.61-.129.907-.088.296-.23.597-.428.904a6.818 6.818 0 0 1-.755.979l-2.011 2.215-.01-.375 3.237-.088c.198-.005.35.038.455.131.105.092.161.234.166.425.005.191-.042.339-.142.445-.1.105-.249.161-.447.166l-4.052.111zm9.687-.177c-.22.006-.394-.048-.522-.162-.128-.121-.196-.296-.202-.523l-.023-.859-2.72.074c-.227.007-.412-.036-.554-.128-.135-.092-.205-.24-.211-.446a1.01 1.01 0 0 1 .078-.388c.062-.141.171-.327.326-.559l2.897-4.454c.099-.157.21-.277.332-.362a.772.772 0 0 1 .426-.132.662.662 0 0 1 .479.163c.127.106.195.281.201.523l.123 4.503.54-.014c.213-.006.372.041.477.141.113.092.172.234.177.425.005.191-.046.339-.153.445-.1.098-.257.15-.469.156l-.54.015.024.858c.006.228-.052.406-.173.534-.122.121-.293.184-.513.19zm-.779-2.711l-.094-3.435.319-.009-2.494 3.881-.01-.375 2.279-.062zm-9.002-63.864c-.235-.01-.405-.069-.51-.177-.098-.114-.142-.274-.133-.48a.727.727 0 0 1 .115-.358c.071-.115.172-.235.303-.362l2.316-2.256c.353-.337.609-.646.769-.925.16-.287.246-.577.259-.871.016-.367-.089-.651-.315-.852-.219-.201-.548-.311-.989-.33-.249-.011-.5.014-.753.076-.252.055-.51.162-.775.319a.551.551 0 0 1-.379.093.53.53 0 0 1-.29-.156.618.618 0 0 1-.152-.304.641.641 0 0 1 .026-.352.644.644 0 0 1 .279-.307 3.65 3.65 0 0 1 1.077-.438c.401-.092.8-.13 1.196-.112.558.025 1.023.13 1.397.316.374.185.653.444.837.776.184.331.265.728.245 1.19a2.746 2.746 0 0 1-.194.896 3.543 3.543 0 0 1-.491.871 6.933 6.933 0 0 1-.824.923l-2.164 2.064.016-.374 3.235.144c.198.009.347.063.445.163.099.1.144.245.135.436-.008.191-.066.335-.173.433-.108.098-.26.143-.458.134l-4.05-.18zm6.598.293c-.235-.01-.405-.069-.51-.177-.098-.114-.142-.274-.133-.48a.727.727 0 0 1 .115-.358c.071-.115.172-.235.303-.362l2.316-2.256c.353-.337.609-.646.769-.925.16-.287.246-.577.259-.871.016-.367-.089-.651-.315-.852-.219-.201-.549-.311-.989-.33-.249-.011-.5.014-.753.076-.252.055-.51.162-.775.319a.551.551 0 0 1-.379.093.53.53 0 0 1-.29-.156.618.618 0 0 1-.152-.304.641.641 0 0 1 .026-.352.644.644 0 0 1 .279-.307 3.65 3.65 0 0 1 1.077-.438c.401-.092.8-.13 1.196-.112.558.025 1.023.13 1.397.316.374.185.653.444.837.776.184.331.265.728.245 1.19a2.746 2.746 0 0 1-.194.896 3.543 3.543 0 0 1-.491.871 7.005 7.005 0 0 1-.824.923l-2.164 2.064.016-.374 3.235.144c.198.009.347.063.445.163.099.1.144.245.135.436-.008.191-.066.335-.173.433-.108.098-.26.143-.458.134l-4.05-.18zm-12.532-54.284c-.235.015-.41-.025-.527-.12-.11-.103-.171-.258-.185-.463a.729.729 0 0 1 .076-.369c.058-.121.145-.252.261-.392l2.055-2.497c.315-.373.536-.708.663-1.003.128-.303.182-.601.163-.894-.024-.366-.16-.637-.407-.812-.239-.176-.579-.25-1.018-.221-.25.017-.496.069-.741.159a2.61 2.61 0 0 0-.735.401.55.55 0 0 1-.367.135.546.546 0 0 1-.306-.124.625.625 0 0 1-.184-.286.638.638 0 0 1-.012-.352.641.641 0 0 1 .243-.336 3.642 3.642 0 0 1 1.024-.553c.388-.136.78-.216 1.176-.242.557-.037 1.031.017 1.423.161.392.143.698.37.917.679.219.31.343.695.373 1.157.02.308-.011.611-.095.911a3.543 3.543 0 0 1-.392.92 6.949 6.949 0 0 1-.718 1.007l-1.926 2.289-.024-.373 3.231-.211c.198-.013.352.024.46.113.109.089.17.228.182.419.013.19-.029.34-.125.449-.096.11-.243.171-.44.184l-4.045.264zm8.433-.441c-.916.06-1.638-.239-2.167-.896-.529-.664-.835-1.638-.919-2.92-.057-.865.002-1.597.176-2.197.181-.608.471-1.076.869-1.403.405-.329.912-.513 1.52-.552.923-.061 1.645.231 2.165.874.528.642.834 1.608.918 2.898.056.857-.006 1.593-.186 2.209-.174.607-.459 1.082-.856 1.424-.398.335-.905.523-1.52.563zm-.076-1.154c.499-.032.85-.287 1.054-.764.212-.478.286-1.207.222-2.189-.065-.982-.232-1.685-.503-2.109-.263-.431-.644-.631-1.142-.598-.491.032-.843.279-1.056.742-.213.455-.287 1.174-.223 2.156.064.982.232 1.696.504 2.142.272.445.654.652 1.144.62zm-9.44-48.851c-.191.006-.342-.042-.455-.141a.617.617 0 0 1-.166-.437c-.006-.19.042-.335.142-.433.107-.099.257-.15.447-.156l1.234-.033-.148-5.406.683-.019-1.592 1.024a.636.636 0 0 1-.393.11.617.617 0 0 1-.313-.146.707.707 0 0 1-.174-.304.585.585 0 0 1 .013-.353.645.645 0 0 1 .278-.316l1.494-.955a3.17 3.17 0 0 1 .435-.232.995.995 0 0 1 .404-.11.567.567 0 0 1 .389.121c.105.078.16.213.166.403l.167 6.144 1.123-.03c.191-.005.339.038.444.131.113.092.172.234.177.425.005.191-.046.339-.153.445-.1.105-.245.161-.436.166l-3.766.102zm8.191-.112c-.602.016-1.122-.054-1.56-.211-.43-.165-.767-.409-1.011-.733-.237-.324-.361-.718-.374-1.18-.01-.367.055-.692.194-.975.146-.29.349-.527.609-.711.259-.183.557-.301.893-.355l.007.232a1.977 1.977 0 0 1-1.153-.641 1.963 1.963 0 0 1-.452-1.244c-.012-.44.088-.818.3-1.132.211-.322.517-.569.916-.741.399-.18.87-.277 1.413-.292.551-.015 1.03.056 1.439.214.408.151.726.381.955.69.229.303.349.674.361 1.114.009.323-.049.623-.174.898a1.726 1.726 0 0 1-.521.686 1.867 1.867 0 0 1-.794.374l-.006-.22c.515.059.936.265 1.262.616.332.343.506.787.521 1.33.012.462-.094.862-.32 1.199-.219.336-.542.598-.971.786-.421.181-.932.279-1.534.296zm-.03-1.102c.521-.014.911-.123 1.17-.329.258-.213.382-.517.372-.914-.011-.396-.151-.69-.421-.881-.27-.191-.665-.279-1.186-.265-.514.014-.904.124-1.17.33-.259.205-.383.506-.372.902.01.397.151.694.421.892.277.191.672.279 1.186.265zm-.095-3.49c.293-.008.542-.059.745-.152a1.07 1.07 0 0 0 .611-1.042c-.01-.352-.142-.624-.397-.815-.248-.199-.589-.293-1.022-.281-.433.012-.768.124-1.004.336-.237.205-.351.483-.341.836.01.359.139.639.386.837.248.199.589.293 1.022.281zm-19.769-48.776c-.187.042-.345.026-.475-.05a.62.62 0 0 1-.248-.395c-.043-.187-.024-.338.055-.453.086-.118.222-.198.408-.24l1.203-.274-1.201-5.273.666-.152-1.361 1.315a.636.636 0 0 1-.365.185.616.616 0 0 1-.335-.082.705.705 0 0 1-.229-.264.577.577 0 0 1-.057-.348.64.64 0 0 1 .211-.365l1.279-1.229c.123-.118.25-.222.381-.312a.983.983 0 0 1 .375-.187.568.568 0 0 1 .405.043c.118.056.199.177.241.363l1.365 5.993 1.095-.25c.186-.042.34-.028.462.042.128.068.214.196.256.382.043.186.021.342-.063.466-.077.123-.209.206-.395.248l-3.673.837zm6.631-1.42a.688.688 0 0 1-.435-.025.48.48 0 0 1-.265-.267c-.052-.132-.054-.289-.006-.474l1.854-6.838.108.472-3.48.793c-.193.044-.355.028-.485-.048-.123-.077-.205-.205-.246-.384-.042-.187-.025-.341.053-.464.084-.125.223-.209.417-.253l4.156-.947a.736.736 0 0 1 .507.043c.144.072.238.202.28.388.036.157.046.302.031.433a3.506 3.506 0 0 1-.086.415l-1.722 6.527a.797.797 0 0 1-.233.414.954.954 0 0 1-.448.215zM44.912 381.792c0-.808.162-1.502.485-2.082a3.348 3.348 0 0 1 1.388-1.322c.602-.308 1.31-.462 2.126-.462.61 0 1.156.088 1.64.264.493.176.911.43 1.256.76.353.331.62.735.804 1.212a4.41 4.41 0 0 1 .287 1.63c0 .404-.052.8-.154 1.19-.103.389-.25.73-.44 1.024a.703.703 0 0 1-.353.308.66.66 0 0 1-.397.033.612.612 0 0 1-.32-.187.547.547 0 0 1-.154-.341c-.007-.133.04-.279.144-.441.147-.228.253-.474.32-.738.065-.264.098-.532.098-.804 0-.521-.106-.962-.32-1.322a2.01 2.01 0 0 0-.924-.815c-.404-.183-.9-.275-1.487-.275-.58 0-1.076.092-1.487.275a2.002 2.002 0 0 0-.937.815c-.212.36-.319.801-.319 1.322 0 .279.033.554.1.826.072.272.183.529.33.771.095.162.135.305.12.43a.513.513 0 0 1-.132.33.588.588 0 0 1-.308.176.655.655 0 0 1-.705-.286 3.357 3.357 0 0 1-.495-1.057 4.67 4.67 0 0 1-.166-1.234zm.11 4.623c0-.243.063-.43.188-.562.132-.125.32-.187.562-.187h6.267c.242 0 .426.062.55.187.133.132.199.319.199.562v3.932c0 .183-.048.323-.143.418-.096.103-.232.155-.408.155-.184 0-.327-.052-.43-.155-.095-.095-.143-.235-.143-.418v-3.327h-2.137v3.085c0 .19-.047.334-.143.429-.095.096-.235.143-.418.143-.184 0-.323-.047-.419-.143-.095-.095-.143-.239-.143-.429v-3.085h-2.258v3.327c0 .183-.048.323-.143.418-.096.103-.235.155-.419.155-.183 0-.323-.052-.418-.155-.096-.095-.143-.235-.143-.418v-3.932zm-.088 6.484c0-.213.06-.378.177-.496.117-.11.286-.165.506-.165h6.554c.228 0 .4.055.518.165a.593.593 0 0 1 .187.452c0 .169-.033.293-.1.374a1.517 1.517 0 0 1-.308.309l-5.474 4.218v-.286h5.21c.213 0 .378.055.496.165.117.117.176.283.176.496 0 .213-.059.374-.176.484-.118.11-.283.166-.496.166h-6.609c-.205 0-.367-.052-.484-.155a.526.526 0 0 1-.177-.418c0-.169.033-.305.1-.408a1.62 1.62 0 0 1 .319-.319l5.474-4.208v.276h-5.21c-.22 0-.389-.055-.506-.166-.118-.11-.177-.271-.177-.484zm0 10.156c0-.228.063-.404.188-.529.132-.117.312-.176.54-.176h5.947v-2.148c0-.191.052-.342.154-.452a.623.623 0 0 1 .441-.154c.19 0 .334.052.43.154.102.11.154.261.154.452v5.705c0 .191-.052.338-.154.441-.096.11-.24.165-.43.165a.596.596 0 0 1-.44-.165c-.103-.103-.155-.25-.155-.441v-2.147h-5.948c-.227 0-.407-.059-.54-.177-.124-.117-.187-.293-.187-.528zm.089 5.012c0-.242.062-.429.187-.561.132-.125.32-.188.562-.188h6.267c.242 0 .426.063.55.188.133.132.199.319.199.561V412c0 .183-.048.323-.143.418-.096.103-.232.154-.408.154-.184 0-.327-.051-.43-.154-.095-.095-.143-.235-.143-.418v-3.327h-2.137v3.084c0 .191-.047.334-.143.43-.095.095-.235.143-.418.143-.184 0-.323-.048-.419-.143-.095-.096-.143-.239-.143-.43v-3.084h-2.258V412c0 .183-.048.323-.143.418-.096.103-.235.154-.419.154-.183 0-.323-.051-.418-.154-.096-.095-.143-.235-.143-.418v-3.933zm-.089 6.529c0-.228.063-.404.188-.529.132-.118.312-.176.54-.176h6.41c.235 0 .411.062.528.187.125.125.188.301.188.529v2.654c0 .852-.206 1.509-.617 1.972-.404.462-.973.694-1.707.694-.478 0-.889-.107-1.234-.32a1.991 1.991 0 0 1-.793-.903c-.184-.397-.275-.878-.275-1.443l.165.099v.364c0 .301-.074.561-.22.782-.147.227-.379.426-.694.594l-1.531.827a.826.826 0 0 1-.452.121.517.517 0 0 1-.364-.165c-.088-.103-.132-.254-.132-.452s.04-.36.122-.485c.088-.125.22-.235.396-.33l2.049-1.113c.25-.132.415-.29.495-.473.088-.176.133-.404.133-.683V415.3H45.66c-.227 0-.407-.058-.54-.176-.124-.117-.187-.294-.187-.528zm4.241.704v1.719c0 .506.103.888.308 1.145.213.265.53.397.948.397.41 0 .72-.132.925-.397.213-.257.32-.639.32-1.145V415.3h-2.501zm-4.152 9.848c0-.228.062-.404.187-.529.132-.125.312-.187.54-.187h6.355c.235 0 .411.059.529.176.124.125.187.301.187.529 0 .227-.063.4-.188.518-.117.124-.293.187-.528.187h-5.882v3.194c0 .198-.051.349-.154.452-.103.11-.25.165-.44.165-.192 0-.342-.055-.452-.165-.103-.103-.154-.254-.154-.452v-3.888zm-.089 6.174c0-.228.063-.404.188-.529.132-.117.312-.176.54-.176h6.487c.235 0 .415.059.54.176.124.125.187.301.187.529 0 .227-.063.4-.187.517-.125.125-.305.188-.54.188H45.66c-.227 0-.407-.059-.54-.177-.124-.117-.187-.293-.187-.528zm0 3.064c0-.213.06-.378.177-.495.117-.11.286-.166.506-.166h6.554c.228 0 .4.056.518.166a.591.591 0 0 1 .187.451c0 .169-.033.294-.1.375a1.492 1.492 0 0 1-.308.308l-5.474 4.219v-.287h5.21c.213 0 .378.055.496.166.117.117.176.282.176.495 0 .213-.059.375-.176.485-.118.11-.283.165-.496.165h-6.609c-.205 0-.367-.051-.484-.154a.528.528 0 0 1-.177-.419c0-.169.033-.304.1-.407a1.62 1.62 0 0 1 .319-.32l5.474-4.207v.275h-5.21c-.22 0-.389-.055-.506-.165-.118-.11-.177-.272-.177-.485zm.089 8.328c0-.242.062-.43.187-.562.132-.125.32-.187.562-.187h6.267c.242 0 .426.062.55.187.133.132.199.32.199.562v3.932c0 .184-.048.323-.143.419-.096.102-.232.154-.408.154-.184 0-.327-.052-.43-.154-.095-.096-.143-.235-.143-.419v-3.326h-2.137v3.084c0 .191-.047.334-.143.429-.095.096-.235.144-.418.144-.184 0-.323-.048-.419-.144-.095-.095-.143-.238-.143-.429v-3.084h-2.258v3.326c0 .184-.048.323-.143.419-.096.102-.235.154-.419.154-.183 0-.323-.052-.418-.154-.096-.096-.143-.235-.143-.419v-3.932zm196.141-116.813c-.648 0-1.296-.052-1.944-.155a10.016 10.016 0 0 1-1.833-.42 7.475 7.475 0 0 1-1.546-.751 1.43 1.43 0 0 1-.663-1.369c.044-.25.14-.464.287-.641.162-.191.361-.309.597-.353.235-.044.493.022.773.199a7.532 7.532 0 0 0 2.054.839c.721.177 1.48.265 2.275.265 1.163 0 2.01-.191 2.54-.574.53-.398.795-.906.795-1.524 0-.516-.191-.921-.574-1.215-.368-.295-1.009-.538-1.922-.729l-2.43-.508c-1.398-.294-2.444-.788-3.136-1.48-.677-.707-1.016-1.634-1.016-2.783 0-.721.147-1.377.442-1.966a4.554 4.554 0 0 1 1.237-1.524 5.758 5.758 0 0 1 1.921-.972 8.253 8.253 0 0 1 2.474-.353c.884 0 1.723.11 2.518.331a7.309 7.309 0 0 1 2.143.972c.235.162.39.361.463.597.089.235.111.471.067.706a1.103 1.103 0 0 1-.31.575 1.016 1.016 0 0 1-.618.287c-.236.029-.508-.044-.817-.221a6.312 6.312 0 0 0-1.657-.663 7.87 7.87 0 0 0-1.811-.199c-.677 0-1.259.096-1.745.288-.486.191-.861.463-1.126.817-.251.339-.376.743-.376 1.215 0 .53.177.957.53 1.281.354.309.957.552 1.811.729l2.408.508c1.458.309 2.54.795 3.247 1.457.721.663 1.082 1.547 1.082 2.651 0 .707-.147 1.347-.442 1.922a4.08 4.08 0 0 1-1.237 1.479c-.53.413-1.17.729-1.921.95-.751.221-1.598.332-2.54.332zm13.412-.045c-.457 0-.81-.125-1.061-.375-.235-.265-.353-.626-.353-1.082v-11.928h-4.307c-.383 0-.685-.103-.906-.309-.206-.221-.309-.515-.309-.883 0-.383.103-.67.309-.862.221-.206.523-.309.906-.309h11.441c.383 0 .678.103.884.309.221.192.331.479.331.862 0 .368-.11.662-.331.883-.206.206-.501.309-.884.309h-4.307v11.928c0 .456-.118.817-.353 1.082-.236.25-.589.375-1.06.375zm6.979 0c-.354 0-.641-.081-.862-.243a.992.992 0 0 1-.375-.64c-.044-.28.007-.589.154-.928l5.832-12.921c.191-.427.419-.729.684-.906.28-.191.597-.287.95-.287.339 0 .641.096.906.287.279.177.515.479.706.906l5.854 12.921c.162.339.221.648.176.928-.044.28-.169.501-.375.663-.206.147-.479.22-.817.22-.413 0-.737-.095-.972-.287-.221-.206-.42-.515-.597-.927l-1.435-3.336 1.192.773h-9.321l1.193-.773-1.413 3.336c-.192.427-.391.736-.597.927-.206.192-.5.287-.883.287zm6.339-12.678l-3.092 7.355-.575-.707h7.378l-.553.707-3.114-7.355h-.044zm17.107 12.723c-1.723 0-3.181-.324-4.374-.972a6.5 6.5 0 0 1-2.694-2.761c-.619-1.193-.928-2.607-.928-4.241 0-1.237.177-2.349.53-3.335.368-.987.891-1.826 1.568-2.518a6.794 6.794 0 0 1 2.518-1.613c.987-.383 2.106-.574 3.357-.574.825 0 1.65.103 2.474.309.84.192 1.627.523 2.364.994.25.162.412.361.486.597.088.235.103.478.044.728-.059.236-.17.442-.332.619a1.058 1.058 0 0 1-.618.331c-.236.044-.501-.015-.795-.177a6.761 6.761 0 0 0-1.701-.706 7.706 7.706 0 0 0-1.922-.221c-1.089 0-2.009.221-2.76.662-.751.427-1.318 1.053-1.701 1.878-.368.825-.552 1.833-.552 3.026 0 1.811.434 3.188 1.303 4.13.869.943 2.157 1.414 3.865 1.414.589 0 1.185-.059 1.789-.177a12.08 12.08 0 0 0 1.767-.486l-.552 1.259v-4.704h-2.43c-.368 0-.655-.096-.861-.288-.191-.191-.287-.449-.287-.773 0-.338.096-.596.287-.773.206-.176.493-.265.861-.265h3.645c.368 0 .648.103.839.31.206.191.309.471.309.839v5.367c0 .324-.066.597-.198.817-.118.221-.317.383-.597.486a14.66 14.66 0 0 1-2.231.597 14.32 14.32 0 0 1-2.473.221zm10.278-.221c-.486 0-.862-.125-1.127-.376-.25-.265-.375-.64-.375-1.126V311.61c0-.486.125-.854.375-1.105.265-.265.641-.397 1.127-.397h7.885c.368 0 .648.096.839.287.206.191.309.464.309.817 0 .368-.103.656-.309.862-.191.191-.471.287-.839.287h-6.671v4.285h6.185c.383 0 .67.096.861.287.192.191.288.471.288.839s-.096.648-.288.84c-.191.191-.478.287-.861.287h-6.185v4.528h6.671c.368 0 .648.095.839.287.206.191.309.471.309.839s-.103.648-.309.84c-.191.191-.471.287-.839.287h-7.885zm-120.821 84.703a.476.476 0 0 1-.352-.128.518.518 0 0 1-.115-.362l.03-3.975-1.435-.011a.425.425 0 0 1-.302-.106.413.413 0 0 1-.1-.295c.001-.128.036-.223.105-.286a.426.426 0 0 1 .303-.101l3.813.029c.128.001.226.036.294.106.073.064.109.16.108.288a.398.398 0 0 1-.112.293.402.402 0 0 1-.296.101l-1.435-.011-.031 3.976a.516.516 0 0 1-.121.359c-.079.083-.197.124-.354.123zm2.326.018a.478.478 0 0 1-.286-.083.334.334 0 0 1-.124-.215.559.559 0 0 1 .054-.309l1.977-4.292a.686.686 0 0 1 .231-.3.544.544 0 0 1 .317-.093.5.5 0 0 1 .301.098.66.66 0 0 1 .233.304l1.918 4.322a.53.53 0 0 1 .057.309.339.339 0 0 1-.127.22.455.455 0 0 1-.273.072.494.494 0 0 1-.323-.099.905.905 0 0 1-.197-.31l-.47-1.116.396.261-3.107-.024.399-.254-.479 1.108a.955.955 0 0 1-.201.307c-.07.064-.168.095-.296.094zm2.146-4.21l-1.05 2.444-.189-.237 2.459.019-.186.234-1.019-2.46h-.015zm3.783 4.196c-.162-.001-.287-.043-.375-.128-.083-.089-.124-.214-.122-.376l.032-4.189c.001-.162.044-.285.128-.367.089-.088.214-.131.376-.13l1.767.014c.364.002.672.059.927.169.254.11.447.266.578.468.136.202.203.443.2.723a1.192 1.192 0 0 1-.278.793 1.332 1.332 0 0 1-.747.429l.001-.111c.363.057.644.197.843.419.2.223.298.51.296.864-.004.461-.164.818-.48 1.071-.311.248-.744.37-1.299.366l-1.847-.015zm.41-.711l1.325.011c.334.002.58-.06.738-.186.158-.131.238-.327.24-.587.002-.265-.075-.462-.231-.591-.156-.129-.401-.195-.735-.197l-1.325-.01-.012 1.56zm.017-2.275l1.201.01c.323.002.564-.057.722-.179.163-.126.246-.312.248-.557.002-.246-.078-.431-.239-.555-.156-.128-.396-.194-.72-.196l-1.2-.01-.012 1.487zm4.619 3.025a.477.477 0 0 1-.352-.128.503.503 0 0 1-.123-.361l.033-4.248c.001-.157.041-.275.121-.353.084-.083.202-.123.354-.122.152.001.267.043.345.128.083.079.124.197.122.354l-.03 3.931 2.135.017c.133.001.233.036.301.105.073.069.11.168.109.295a.412.412 0 0 1-.113.302c-.069.068-.17.101-.303.1l-2.599-.02zm4.156.032c-.162-.001-.286-.044-.374-.128-.083-.089-.124-.214-.122-.376l.032-4.189c.001-.162.044-.285.128-.368.089-.087.214-.13.376-.129l2.629.02c.122.001.215.034.279.098.068.064.102.155.101.273a.384.384 0 0 1-.106.286c-.064.064-.157.095-.28.094l-2.223-.017-.011 1.428 2.061.016c.128.001.223.034.286.098.064.064.095.158.094.28-.001.123-.034.216-.098.279-.064.064-.16.095-.288.094l-2.061-.016-.012 1.509 2.224.017c.122.001.215.034.279.098.068.065.101.158.101.281-.001.123-.036.216-.106.279-.064.063-.157.094-.28.093l-2.629-.02zm5.609.117a4.158 4.158 0 0 1-.647-.057 3.378 3.378 0 0 1-.61-.144 2.538 2.538 0 0 1-.514-.254.48.48 0 0 1-.217-.459.446.446 0 0 1 .097-.212.339.339 0 0 1 .2-.117c.079-.014.164.009.257.069.215.129.443.224.683.285.24.06.492.092.757.094.388.003.671-.059.849-.185a.612.612 0 0 0 .269-.506.483.483 0 0 0-.189-.406c-.122-.1-.335-.182-.638-.248l-.809-.176c-.465-.102-.813-.269-1.042-.501-.224-.238-.334-.548-.331-.93a1.446 1.446 0 0 1 .568-1.159c.183-.141.397-.248.643-.319.251-.077.526-.114.826-.112.294.002.574.041.838.117.265.076.502.185.712.329a.382.382 0 0 1 .153.2.426.426 0 0 1 .02.236.368.368 0 0 1-.104.191.343.343 0 0 1-.207.094.45.45 0 0 1-.272-.076 2.127 2.127 0 0 0-.55-.225 2.625 2.625 0 0 0-.604-.071 1.592 1.592 0 0 0-.582.091.853.853 0 0 0-.378.27.662.662 0 0 0-.128.404.552.552 0 0 0 .174.428c.117.104.317.187.601.248l.802.175c.485.107.844.272 1.078.495.239.222.357.518.354.886a1.379 1.379 0 0 1-.152.639 1.36 1.36 0 0 1-.416.49c-.178.136-.392.24-.643.312a3.003 3.003 0 0 1-.848.104zm142.592-.192a.48.48 0 0 1-.353-.128.528.528 0 0 1-.115-.362l.031-3.975-1.436-.011a.423.423 0 0 1-.301-.106.413.413 0 0 1-.101-.295c.001-.128.036-.223.106-.286a.425.425 0 0 1 .302-.101l3.814.029c.128.001.226.036.294.106.073.064.109.16.108.288a.399.399 0 0 1-.113.293c-.069.068-.167.102-.295.101l-1.436-.011-.03 3.976a.52.52 0 0 1-.121.359c-.079.083-.197.124-.354.123zm2.326.018a.476.476 0 0 1-.286-.083.33.33 0 0 1-.124-.215.559.559 0 0 1 .054-.309l1.977-4.292a.685.685 0 0 1 .23-.3.55.55 0 0 1 .619.005c.093.06.17.161.233.304l1.918 4.322a.52.52 0 0 1 .056.309.333.333 0 0 1-.126.22.459.459 0 0 1-.273.072.497.497 0 0 1-.324-.099.905.905 0 0 1-.196-.31l-.47-1.116.396.261-3.107-.024.399-.254-.48 1.108a.923.923 0 0 1-.201.307c-.069.064-.167.095-.295.094zm2.146-4.21l-1.05 2.444-.19-.237 2.459.019-.185.234-1.02-2.46h-.014zm3.782 4.196c-.162-.001-.287-.043-.374-.128-.083-.089-.124-.214-.123-.376l.033-4.189c.001-.162.044-.285.128-.367.089-.088.214-.131.376-.13l1.767.014c.363.002.672.059.927.169.254.11.447.266.578.468.135.202.202.443.2.723a1.192 1.192 0 0 1-.278.793 1.338 1.338 0 0 1-.747.429l.001-.111c.362.057.644.197.843.419.2.223.298.51.295.864-.003.461-.163.818-.479 1.071-.311.248-.744.37-1.299.366l-1.848-.015zm.411-.711l1.325.011c.334.002.58-.06.738-.186.158-.131.238-.327.24-.587.002-.265-.075-.462-.231-.591-.156-.129-.401-.195-.735-.197l-1.325-.01-.012 1.56zm.017-2.275l1.2.01c.324.002.565-.057.723-.179.163-.126.246-.312.247-.557.002-.246-.077-.431-.238-.555-.156-.128-.396-.194-.72-.196l-1.2-.01-.012 1.487zm4.619 3.025a.476.476 0 0 1-.352-.128.503.503 0 0 1-.123-.361l.033-4.248c.001-.157.041-.275.12-.353.084-.083.203-.123.355-.122.152.001.267.043.345.128.083.079.123.197.122.354l-.03 3.931 2.135.017c.133.001.233.036.301.105.073.069.109.168.108.295a.412.412 0 0 1-.112.302c-.07.068-.171.101-.303.1l-2.599-.02zm4.156.032c-.162-.001-.287-.044-.374-.128-.083-.089-.124-.214-.123-.376l.033-4.189c.001-.162.044-.285.128-.368.089-.087.214-.13.376-.129l2.628.02c.123.001.216.034.279.098.069.064.102.155.101.273a.384.384 0 0 1-.105.286c-.064.064-.158.095-.28.094l-2.224-.017-.011 1.428 2.062.016c.127.001.223.034.286.098.063.064.095.158.094.28-.001.123-.034.216-.098.279-.064.064-.16.095-.288.094l-2.062-.016-.011 1.509 2.223.017c.123.001.216.034.279.098.069.065.102.158.101.281-.001.123-.036.216-.105.279-.064.063-.158.094-.28.093l-2.629-.02zm5.609.117a4.147 4.147 0 0 1-.647-.057 3.378 3.378 0 0 1-.61-.144 2.538 2.538 0 0 1-.514-.254.475.475 0 0 1-.217-.459.446.446 0 0 1 .097-.212.339.339 0 0 1 .2-.117c.078-.014.164.009.257.069.215.129.443.224.683.285.24.06.492.092.757.094.388.003.671-.059.848-.185a.607.607 0 0 0 .269-.506.48.48 0 0 0-.188-.406c-.122-.1-.335-.182-.639-.248l-.808-.176c-.466-.102-.813-.269-1.042-.501-.224-.238-.334-.548-.331-.93.001-.241.052-.459.152-.655.1-.195.238-.363.416-.504.183-.141.397-.248.643-.319.251-.077.526-.114.826-.112.294.002.574.041.838.117.264.076.502.185.712.329a.382.382 0 0 1 .153.2.435.435 0 0 1 .02.236.363.363 0 0 1-.105.191.338.338 0 0 1-.206.094.448.448 0 0 1-.272-.076 2.134 2.134 0 0 0-.551-.225 2.61 2.61 0 0 0-.603-.071 1.588 1.588 0 0 0-.582.091.842.842 0 0 0-.378.27.662.662 0 0 0-.128.404.552.552 0 0 0 .173.428c.117.104.318.187.602.248l.801.175c.485.107.845.272 1.079.495.239.222.357.518.354.886a1.391 1.391 0 0 1-.568 1.129c-.178.136-.393.24-.643.312a3.008 3.008 0 0 1-.848.104zM205.176 546.402a.58.58 0 0 1-.33-.091.69.69 0 0 1-.204-.281l-1.889-4.329a.49.49 0 0 1-.041-.325.371.371 0 0 1 .156-.219.475.475 0 0 1 .28-.079c.143.001.248.034.316.098a.647.647 0 0 1 .182.274l1.714 4.055-.317-.002 1.769-4.036a.707.707 0 0 1 .193-.264.461.461 0 0 1 .31-.093.415.415 0 0 1 .265.083.353.353 0 0 1 .138.222.533.533 0 0 1-.054.323l-1.955 4.3a.694.694 0 0 1-.208.278.531.531 0 0 1-.325.086zm3.659.028a.48.48 0 0 1-.353-.128.523.523 0 0 1-.115-.362l.034-4.336c.001-.157.041-.277.12-.36.084-.083.202-.123.354-.122.153.001.268.044.346.128.082.084.123.204.122.361l-.033 4.337a.53.53 0 0 1-.121.36c-.079.082-.197.123-.354.122zm2.078.016a.478.478 0 0 1-.353-.128.523.523 0 0 1-.115-.362l.033-4.284c.001-.158.044-.275.128-.353.084-.083.202-.123.354-.122l1.775.013c.569.005 1.007.15 1.314.437.307.288.459.686.455 1.197-.004.51-.162.909-.473 1.196-.312.283-.752.421-1.321.417l-1.311-.01-.012 1.517a.525.525 0 0 1-.12.36c-.079.082-.197.123-.354.122zm.492-2.743l1.163.009c.334.003.587-.069.76-.215.173-.15.261-.371.263-.66.002-.29-.082-.509-.253-.658-.17-.148-.423-.224-.756-.226l-1.164-.009-.013 1.759zm119.855 2.699a.58.58 0 0 1-.33-.091.69.69 0 0 1-.204-.281l-1.889-4.329a.49.49 0 0 1-.041-.325.371.371 0 0 1 .156-.219.475.475 0 0 1 .28-.079c.143.001.248.034.316.098a.647.647 0 0 1 .182.274l1.714 4.055-.317-.002 1.769-4.036a.707.707 0 0 1 .193-.264.461.461 0 0 1 .31-.093.415.415 0 0 1 .265.083.353.353 0 0 1 .138.222.533.533 0 0 1-.054.323l-1.955 4.3a.694.694 0 0 1-.208.278.531.531 0 0 1-.325.086zm3.659.028a.478.478 0 0 1-.353-.128.523.523 0 0 1-.115-.362l.034-4.336c.001-.157.041-.277.12-.36.084-.083.202-.123.354-.122.153.001.268.044.346.128.082.084.123.204.122.361l-.033 4.337a.53.53 0 0 1-.121.36c-.079.082-.197.123-.354.122zm2.077.016a.477.477 0 0 1-.352-.128.523.523 0 0 1-.115-.362l.033-4.284c.001-.158.044-.275.128-.353.084-.083.202-.123.354-.122l1.775.013c.569.005 1.007.15 1.314.437.307.288.459.686.455 1.197-.004.51-.162.909-.473 1.196-.312.283-.752.421-1.321.417l-1.311-.01-.012 1.517a.525.525 0 0 1-.12.36c-.079.082-.197.123-.355.122zm.493-2.743l1.163.009c.334.003.587-.069.76-.215.173-.15.261-.371.263-.66.002-.29-.082-.509-.253-.658-.17-.148-.423-.224-.756-.226l-1.164-.009-.013 1.759zm-114.104-107.37c-.808-.007-1.5-.174-2.078-.501a3.35 3.35 0 0 1-1.311-1.398c-.304-.604-.452-1.314-.446-2.129.005-.61.097-1.156.277-1.639.18-.491.436-.908.769-1.25a3.23 3.23 0 0 1 1.218-.795 4.432 4.432 0 0 1 1.633-.274c.403.003.8.058 1.188.164.388.105.729.255 1.021.448a.713.713 0 0 1 .306.355.63.63 0 0 1-.16.715.546.546 0 0 1-.343.151c-.132.006-.279-.042-.439-.146a2.44 2.44 0 0 0-.736-.325 3.254 3.254 0 0 0-.803-.106c-.521-.004-.963.099-1.324.309a2.008 2.008 0 0 0-.822.919c-.187.403-.283.898-.287 1.485-.005.58.083 1.077.264 1.489.18.413.449.727.808.943.358.215.798.325 1.319.329.279.002.554-.028.827-.092a3 3 0 0 0 .773-.325c.163-.094.306-.133.431-.118a.514.514 0 0 1 .329.135.584.584 0 0 1 .174.31.664.664 0 0 1-.025.374.698.698 0 0 1-.267.328 3.338 3.338 0 0 1-1.061.488 4.679 4.679 0 0 1-1.235.156zm4.601.013c-.228-.002-.407-.066-.538-.191-.124-.134-.185-.321-.183-.564l.049-6.355c.001-.242.065-.425.191-.549.133-.131.321-.196.563-.194l3.844.029c.191.002.334.051.429.147.094.096.141.232.14.409-.002.183-.051.326-.147.428-.096.095-.24.141-.43.14l-3.184-.025-.016 2.192 2.951.023c.184.001.323.05.418.146.102.097.152.233.151.409-.001.184-.054.326-.158.428-.096.095-.236.142-.419.14l-2.952-.022-.021 2.665c-.003.5-.233.747-.688.744zm81.909-.013c-.807-.007-1.5-.174-2.078-.501a3.35 3.35 0 0 1-1.311-1.398c-.303-.604-.452-1.314-.446-2.129.005-.61.097-1.156.277-1.639.18-.491.437-.908.77-1.25a3.22 3.22 0 0 1 1.217-.795 4.44 4.44 0 0 1 1.633-.274c.404.003.8.058 1.188.164.389.105.729.255 1.021.448a.708.708 0 0 1 .306.355.63.63 0 0 1-.16.715.546.546 0 0 1-.343.151c-.132.006-.278-.042-.439-.146a2.44 2.44 0 0 0-.736-.325 3.248 3.248 0 0 0-.803-.106c-.521-.004-.963.099-1.324.309a2.02 2.02 0 0 0-.822.919c-.187.403-.282.898-.287 1.485-.004.58.084 1.077.264 1.489a2 2 0 0 0 .808.943c.358.215.798.325 1.319.329a3.49 3.49 0 0 0 .827-.092 3 3 0 0 0 .773-.325c.163-.094.306-.133.431-.118a.514.514 0 0 1 .329.135.584.584 0 0 1 .174.31.656.656 0 0 1-.025.374.698.698 0 0 1-.267.328 3.338 3.338 0 0 1-1.061.488 4.674 4.674 0 0 1-1.235.156zm4.601.013c-.228-.002-.407-.066-.538-.191-.124-.134-.185-.321-.183-.564l.049-6.355c.002-.242.065-.425.191-.549.133-.131.321-.196.563-.194l3.844.029c.191.002.334.051.429.147.095.096.141.232.14.409-.001.183-.05.326-.147.428-.096.095-.239.141-.43.14l-3.183-.025-.017 2.192 2.952.023c.183.001.322.05.417.146.102.097.153.233.151.409-.001.184-.054.326-.157.428-.096.095-.236.142-.42.14l-2.952-.022-.02 2.665c-.004.5-.234.747-.689.744zM436.807 734.86a5.252 5.252 0 0 1-1.131.514 3.533 3.533 0 0 1-1.19.189.753.753 0 0 1-.427-.126.61.61 0 0 1-.222-.277.637.637 0 0 1-.015-.34.557.557 0 0 1 .197-.289.75.75 0 0 1 .418-.141c.341-.02.65-.072.926-.155.273-.09.534-.212.784-.366.275-.169.484-.349.625-.539a1 1 0 0 0 .215-.597 1.13 1.13 0 0 0-.184-.637c-.193-.313-.441-.479-.746-.498-.303-.03-.654.078-1.055.325l-.6.369c-.175.107-.337.146-.485.116-.141-.033-.26-.129-.356-.285-.096-.156-.127-.305-.093-.447.04-.145.147-.271.322-.379l.488-.3c.238-.146.418-.309.541-.487.119-.186.181-.379.187-.58a1.106 1.106 0 0 0-.183-.612c-.177-.288-.408-.448-.694-.479-.28-.034-.602.06-.965.283a2.9 2.9 0 0 0-.604.488c-.17.173-.332.407-.488.7a.598.598 0 0 1-.276.287.494.494 0 0 1-.329.033.586.586 0 0 1-.456-.469.628.628 0 0 1 .067-.416 3.62 3.62 0 0 1 .649-.942c.268-.294.574-.547.918-.758.456-.281.892-.449 1.305-.505.41-.063.78-.014 1.111.145.333.149.613.407.839.777.162.262.26.534.294.814.031.275.002.543-.087.804a1.9 1.9 0 0 1-.461.723l-.069-.113c.496-.201.962-.229 1.397-.083.431.141.783.433 1.056.877.238.388.349.785.332 1.192a2.193 2.193 0 0 1-.417 1.174c-.264.369-.643.706-1.138 1.01zm5.815-3.574a4.812 4.812 0 0 1-1.094.492 3.87 3.87 0 0 1-1.196.179.716.716 0 0 1-.406-.113.691.691 0 0 1-.218-.293.636.636 0 0 1-.021-.349.521.521 0 0 1 .182-.293.682.682 0 0 1 .399-.129c.312-.01.609-.055.889-.132a3.16 3.16 0 0 0 .823-.364 1.75 1.75 0 0 0 .589-.556c.13-.209.193-.429.19-.659a1.341 1.341 0 0 0-.213-.684c-.216-.35-.495-.566-.839-.648-.347-.088-.705-.019-1.074.208a1.97 1.97 0 0 0-.519.461 1.875 1.875 0 0 0-.346.678 1.448 1.448 0 0 1-.123.282.725.725 0 0 1-.241.239c-.157.096-.301.129-.432.097a.535.535 0 0 1-.329-.262l-1.886-3.069c-.104-.169-.139-.324-.106-.466.037-.151.139-.279.308-.382l3.087-1.898c.169-.104.324-.139.466-.105.144.024.266.117.366.279.096.157.124.308.084.453-.034.141-.135.264-.304.368l-2.44 1.499 1.292 2.102-.31.191c.028-.319.14-.621.336-.905.196-.284.454-.524.773-.721.419-.257.837-.389 1.256-.396a2.1 2.1 0 0 1 1.178.297c.367.205.68.517.937.936.266.432.403.873.413 1.324.006.444-.115.872-.362 1.283-.245.4-.615.752-1.109 1.056zm-73.066 47.854a5.233 5.233 0 0 1-1.197.333 3.53 3.53 0 0 1-1.205.002.73.73 0 0 1-.402-.19.6.6 0 0 1-.177-.308.63.63 0 0 1 .038-.338.548.548 0 0 1 .24-.255.743.743 0 0 1 .434-.075c.34.033.653.03.939-.01.283-.047.56-.126.831-.24.298-.124.532-.27.701-.436a.997.997 0 0 0 .304-.557 1.12 1.12 0 0 0-.083-.657c-.142-.339-.362-.542-.66-.608-.294-.076-.658-.023-1.092.158l-.651.272c-.189.079-.355.092-.496.04-.134-.055-.237-.167-.308-.337-.071-.169-.078-.321-.023-.456.062-.137.188-.245.377-.325l.529-.22c.257-.108.46-.241.609-.398.146-.165.238-.346.274-.545a1.105 1.105 0 0 0-.085-.633c-.13-.311-.334-.504-.612-.579-.272-.078-.604-.035-.997.13-.25.104-.475.234-.673.388a3.032 3.032 0 0 0-.59.617.601.601 0 0 1-.317.24.497.497 0 0 1-.33-.017.636.636 0 0 1-.263-.201.578.578 0 0 1-.115-.334.63.63 0 0 1 .131-.401c.212-.311.474-.588.787-.83.31-.249.651-.451 1.023-.607.495-.206.951-.305 1.368-.297.415.002.773.107 1.075.315.306.199.542.498.709.897.119.285.174.568.165.851a1.831 1.831 0 0 1-.211.78 1.902 1.902 0 0 1-.567.643l-.051-.122c.522-.122.986-.078 1.393.134.404.206.707.549.908 1.03.175.42.223.83.143 1.229-.08.399-.277.765-.593 1.095-.318.324-.745.598-1.28.822zm4.927-2.083a.691.691 0 0 1-.433.05.479.479 0 0 1-.306-.219c-.074-.12-.103-.275-.087-.465l.657-7.055.187.447-3.293 1.376c-.183.077-.345.089-.486.037-.135-.056-.237-.168-.308-.337-.074-.176-.083-.332-.028-.466.062-.138.185-.245.368-.321l3.933-1.644a.736.736 0 0 1 .506-.044c.155.047.269.158.343.334.062.149.097.29.104.422.005.125 0 .267-.013.424l-.581 6.724a.798.798 0 0 1-.158.449.952.952 0 0 1-.405.288zm-63.376-49.143a5.218 5.218 0 0 1-1.24.081 3.566 3.566 0 0 1-1.18-.244.747.747 0 0 1-.354-.269.603.603 0 0 1-.11-.338.63.63 0 0 1 .106-.323.555.555 0 0 1 .287-.201.744.744 0 0 1 .44.017c.326.101.633.162.921.182.287.012.574-.009.863-.065a2.2 2.2 0 0 0 .775-.283.999.999 0 0 0 .412-.483c.083-.195.1-.415.053-.661-.069-.36-.243-.603-.521-.73-.273-.134-.64-.157-1.101-.069l-.693.133c-.202.039-.366.018-.494-.062-.12-.082-.198-.213-.232-.393-.035-.18-.011-.33.07-.451.089-.121.234-.202.436-.24l.563-.108c.274-.053.5-.141.678-.265.177-.131.303-.29.38-.477.076-.186.091-.399.046-.637-.064-.331-.224-.562-.481-.692-.25-.132-.583-.158-1.002-.077a2.92 2.92 0 0 0-.738.242 3 3 0 0 0-.704.483.6.6 0 0 1-.36.17.495.495 0 0 1-.319-.085.622.622 0 0 1-.216-.25.58.58 0 0 1-.045-.35.636.636 0 0 1 .21-.366c.272-.261.585-.478.941-.651.354-.18.729-.308 1.126-.384.527-.102.993-.105 1.4-.011.405.087.735.263.987.528.259.257.429.598.511 1.024.058.303.054.591-.013.866a1.843 1.843 0 0 1-.367.721 1.902 1.902 0 0 1-.686.513l-.025-.13c.535-.013.981.126 1.336.417.353.283.579.681.677 1.193.086.447.049.858-.111 1.233-.16.374-.428.691-.804.95-.378.252-.852.433-1.422.542zm6.638-1.273c-.902.173-1.655-.034-2.261-.621-.608-.594-1.033-1.521-1.275-2.783-.163-.851-.195-1.585-.097-2.202.104-.626.334-1.126.688-1.501.361-.376.841-.621 1.44-.736.909-.174 1.661.025 2.257.599.603.572 1.027 1.493 1.27 2.762.162.844.192 1.582.089 2.215-.097.624-.322 1.131-.673 1.52-.353.381-.832.63-1.438.747zm-.218-1.136c.49-.094.807-.391.951-.889.151-.5.133-1.233-.052-2.2-.185-.966-.439-1.643-.76-2.03-.315-.395-.718-.546-1.208-.452-.483.093-.802.382-.955.867-.155.479-.14 1.201.046 2.167.185.967.44 1.654.765 2.063.326.409.73.567 1.213.474zm44.88-15.166a5.235 5.235 0 0 1-1.167.43 3.541 3.541 0 0 1-1.2.101.738.738 0 0 1-.416-.157.614.614 0 0 1-.202-.292.645.645 0 0 1 .01-.341.566.566 0 0 1 .218-.274.754.754 0 0 1 .427-.109c.342.005.653-.024.935-.087.278-.07.548-.172.809-.307.286-.149.507-.313.662-.493a.987.987 0 0 0 .258-.58 1.118 1.118 0 0 0-.137-.648c-.169-.326-.405-.51-.707-.551-.3-.052-.658.03-1.076.246l-.626.325c-.182.094-.346.121-.491.08-.139-.044-.25-.147-.335-.31-.084-.163-.104-.314-.06-.452.05-.142.167-.261.349-.355l.509-.264c.248-.128.439-.277.575-.446.132-.176.208-.364.228-.565a1.101 1.101 0 0 0-.137-.624c-.155-.3-.374-.476-.657-.527-.277-.056-.605.015-.983.211a2.934 2.934 0 0 0-.639.442c-.181.16-.361.381-.537.663a.591.591 0 0 1-.297.265.493.493 0 0 1-.33.01.626.626 0 0 1-.278-.178.585.585 0 0 1-.143-.323.632.632 0 0 1 .098-.411 3.65 3.65 0 0 1 .716-.892c.289-.273.612-.503.971-.688.476-.247.922-.383 1.339-.409.413-.032.779.043 1.097.226.321.173.581.452.78.836.142.274.22.552.234.835.01.275-.039.54-.147.795a1.892 1.892 0 0 1-.512.687l-.061-.117c.51-.165.977-.159 1.4.019.419.171.749.489.988.952.21.404.291.808.244 1.213a2.182 2.182 0 0 1-.501 1.14c-.29.349-.693.657-1.208.924zm6.001-3.109c-.815.423-1.596.439-2.344.049-.751-.397-1.422-1.166-2.013-2.307-.399-.769-.638-1.464-.72-2.083-.077-.63 0-1.174.233-1.634.24-.463.631-.835 1.172-1.116.821-.425 1.599-.448 2.334-.067.741.377 1.409 1.139 2.003 2.287.395.763.633 1.462.715 2.098.084.626.013 1.176-.213 1.648-.23.467-.619.842-1.167 1.125zm-.532-1.026c.444-.23.663-.604.659-1.123.003-.522-.222-1.22-.675-2.094-.452-.874-.887-1.451-1.305-1.73-.415-.29-.844-.32-1.287-.091-.437.227-.66.594-.669 1.104-.013.502.207 1.19.66 2.064.452.874.892 1.461 1.32 1.76.428.299.86.336 1.297.11zm49.497-43.628c-.146.184-.294.286-.443.308-.151.012-.306-.047-.467-.175a.743.743 0 0 1-.222-.305 1.967 1.967 0 0 1-.113-.457l-.459-3.201c-.064-.484-.163-.873-.294-1.166a1.964 1.964 0 0 0-.551-.723c-.287-.229-.578-.311-.874-.247-.291.058-.575.26-.85.604a2.62 2.62 0 0 0-.381.654 2.593 2.593 0 0 0-.2.813.553.553 0 0 1-.147.362.546.546 0 0 1-.298.143.634.634 0 0 1-.335-.057.635.635 0 0 1-.269-.229.64.64 0 0 1-.084-.406c.031-.379.124-.755.281-1.128.162-.379.367-.723.614-1.033.349-.435.708-.75 1.078-.943a1.885 1.885 0 0 1 1.12-.218c.376.046.745.214 1.106.503.241.193.444.421.61.685.169.258.308.561.414.91.112.342.199.745.261 1.209l.393 2.965-.293-.234 2.022-2.529c.124-.155.256-.243.394-.263.139-.021.283.028.432.147.149.12.232.252.248.396.016.144-.038.294-.162.449l-2.531 3.166zm5.359-6.527c-.376.471-.765.822-1.168 1.055-.403.223-.807.323-1.212.3-.401-.028-.781-.187-1.143-.476a2.051 2.051 0 0 1-.619-.777 1.895 1.895 0 0 1-.15-.924c.027-.317.129-.621.306-.912l.18.145a1.974 1.974 0 0 1-1.233.466 1.96 1.96 0 0 1-1.242-.457c-.344-.275-.568-.595-.671-.96a2.02 2.02 0 0 1 .025-1.178c.121-.421.35-.844.69-1.268.343-.43.707-.75 1.092-.96.378-.215.759-.31 1.143-.284.379.02.74.168 1.084.443.253.202.444.439.573.712.135.267.197.547.188.841-.004.288-.08.571-.227.848l-.172-.137c.379-.356.807-.545 1.285-.567.477-.032.928.122 1.352.461.362.289.598.628.709 1.018.116.384.108.8-.025 1.249-.134.438-.389.892-.765 1.362zm-.86-.687c.325-.408.493-.776.503-1.107.005-.334-.148-.626-.458-.873-.309-.248-.624-.33-.944-.248-.32.083-.643.328-.968.735-.321.402-.489.77-.504 1.106-.01.331.14.62.449.867.31.248.628.333.953.255.325-.089.648-.334.969-.735zm-2.728-2.181c.184-.229.305-.452.365-.667.054-.22.046-.429-.023-.625a1.144 1.144 0 0 0-.378-.514c-.276-.22-.569-.294-.879-.223-.312.061-.604.26-.874.599-.271.338-.401.666-.392.984.004.313.143.58.418.8.281.224.578.306.89.245.312-.061.603-.26.873-.599z" fill="#fff"/><path d="M431.658 607.463c-.233-.028-.398-.099-.495-.215-.089-.121-.121-.284-.096-.488a.727.727 0 0 1 .142-.349c.079-.109.189-.222.329-.338l2.481-2.074c.378-.31.656-.598.837-.864.181-.274.289-.557.324-.849.044-.364-.039-.655-.249-.873-.203-.217-.524-.352-.961-.405-.248-.03-.5-.023-.757.02a2.616 2.616 0 0 0-.797.259.552.552 0 0 1-.385.064.541.541 0 0 1-.278-.178.648.648 0 0 1-.075-.664.648.648 0 0 1 .301-.285 3.65 3.65 0 0 1 1.108-.354 4.402 4.402 0 0 1 1.201-.021c.554.067 1.01.207 1.369.42.359.214.617.493.775.837.158.345.21.747.154 1.206a2.72 2.72 0 0 1-.261.878c-.131.28-.316.558-.556.832-.233.275-.53.561-.891.857l-2.315 1.895.045-.372 3.215.389c.196.024.34.089.431.196.09.107.124.256.101.445-.023.19-.091.329-.206.419-.114.09-.27.123-.467.099l-4.024-.487zm8.37 1.123c-.598-.072-1.102-.218-1.511-.438-.402-.226-.7-.517-.893-.873-.187-.355-.252-.763-.197-1.222a2.06 2.06 0 0 1 .336-.936 1.9 1.9 0 0 1 .706-.613c.284-.144.596-.217.936-.22l-.027.23a1.977 1.977 0 0 1-1.046-.804 1.959 1.959 0 0 1-.265-1.296c.053-.438.207-.796.463-1.076a2.023 2.023 0 0 1 1.016-.599c.421-.119.901-.146 1.441-.08.546.066 1.01.207 1.391.423.381.209.662.483.843.823.182.333.246.718.193 1.155-.038.321-.14.608-.303.862a1.727 1.727 0 0 1-.617.602 1.863 1.863 0 0 1-.841.254l.027-.219c.501.135.887.399 1.158.795.278.388.385.852.319 1.392-.055.459-.219.839-.492 1.138-.266.301-.624.513-1.076.636-.443.117-.963.139-1.561.066zm.132-1.093c.518.062.92.011 1.206-.154.287-.172.454-.455.502-.849.048-.394-.048-.705-.287-.933-.238-.229-.616-.374-1.134-.437-.51-.062-.912-.01-1.206.154-.286.165-.453.444-.5.838-.048.394.047.708.285.944.246.23.624.375 1.134.437zm.419-3.466c.292.035.545.021.76-.042a1.08 1.08 0 0 0 .519-.348c.13-.161.21-.359.238-.592.042-.35-.049-.638-.273-.865-.216-.233-.539-.376-.969-.428-.43-.052-.777.01-1.043.185-.264.167-.417.426-.46.776-.043.357.043.652.259.886.216.233.539.376.969.428z" fill="#fff"/></g><defs><clipPath id="clip0_6445_189935"><path fill="#fff" d="M0 0h552.229v827H0z"/></clipPath><clipPath id="clip1_6445_189935"><path fill="#fff" transform="translate(162.786 263.212)" d="M0 0h212.309v300.024H0z"/></clipPath></defs></svg>