<svg width="13" height="13" viewBox="0 0 13 13" fill="none" xmlns="http://www.w3.org/2000/svg"><path fill-rule="evenodd" clip-rule="evenodd" d="M5.74.8a1.244 1.244 0 0 1 1.522 0l.636.488.796-.105c.56-.074 1.1.238 1.316.76l.307.741.74.306c.522.217.835.756.76 1.317l-.104.796.488.636a1.246 1.246 0 0 1 0 1.52l-.488.637.105.796c.074.56-.239 1.1-.76 1.316h-.001l-.74.307-.306.74a1.249 1.249 0 0 1-1.317.76l-.796-.104-.636.488a1.245 1.245 0 0 1-1.521 0l-.636-.488-.797.105c-.56.074-1.1-.239-1.316-.76l-.306-.741-.74-.306h-.001a1.249 1.249 0 0 1-.76-1.317l.105-.796L.8 7.26a1.246 1.246 0 0 1 0-1.521l.489-.636-.105-.796a1.25 1.25 0 0 1 .76-1.317l.741-.306.306-.741a1.249 1.249 0 0 1 1.316-.76l.797.105L5.741.8zm3.04 4.728a.542.542 0 0 0-.766-.766L5.96 6.817l-.7-.7a.542.542 0 0 0-.767.765l1.084 1.084a.542.542 0 0 0 .766 0L8.78 5.528z" fill="#fff"/></svg>