<svg xmlns="http://www.w3.org/2000/svg" version="1.1" width="256" height="256" viewBox="0 0 256 256" xml:space="preserve"><g stroke="none" stroke-width="0" stroke-dasharray="none" stroke-linecap="butt" stroke-linejoin="miter" stroke-miterlimit="10" fill="#fff" fill-rule="nonzero" opacity="1"><path d="M116.746 243.471c-9.796 0-17.765-7.972-17.765-17.765s7.97-17.764 17.765-17.764c9.798 0 17.767 7.972 17.767 17.764s-7.971 17.765-17.767 17.765zm0-27.192c-5.199 0-9.428 4.229-9.428 9.427s4.23 9.428 9.428 9.428c5.201 0 9.43-4.23 9.43-9.428s-4.232-9.427-9.43-9.427z" opacity="1"/><path d="M227.84 95.592c-8.656-47.343-50.179-83.35-99.983-83.35-49.805 0-91.328 36.007-99.983 83.35-14.938 2.15-26.467 14.997-26.467 30.52v31.812c0 14.156 9.59 26.09 22.606 29.715.135.259.295.512.489.745 20.816 25.096 47.483 38.78 79.388 40.863v-8.348c-26.776-1.906-49.532-12.66-67.861-32.102h2.86c8.222 0 14.913-6.69 14.913-14.913v-63.733c0-8.222-6.69-14.91-14.913-14.91h-2.464c8.671-42.546 46.362-74.662 91.432-74.662s82.76 32.119 91.434 74.662h-2.467c-8.22 0-14.91 6.688-14.91 14.91v63.733c0 8.222 6.69 14.913 14.91 14.913h6.61c17.022.003 30.873-13.848 30.873-30.87v-31.815c0-15.523-11.53-28.37-26.468-30.52zm-188.95 7.986c3.624 0 6.575 2.948 6.575 6.573v63.733a6.582 6.582 0 0 1-6.576 6.576H32.28c-12.426 0-22.536-10.11-22.536-22.536v-31.812c0-12.426 10.11-22.534 22.536-22.534h6.61zm207.08 54.348c0 12.426-10.111 22.537-22.537 22.537h-6.609c-3.622 0-6.573-2.95-6.573-6.576v-63.736a6.58 6.58 0 0 1 6.573-6.573h6.61c12.428 0 22.535 10.108 22.535 22.534v31.814z" opacity=".97"/></g></svg>