<?xml version="1.0" standalone="no"?>
<!DOCTYPE svg PUBLIC "-//W3C//DTD SVG 20010904//EN"
 "http://www.w3.org/TR/2001/REC-SVG-20010904/DTD/svg10.dtd">
<svg version="1.0" xmlns="http://www.w3.org/2000/svg"
 width="300.000000pt" height="300.000000pt" viewBox="0 0 300.000000 300.000000"
 preserveAspectRatio="xMidYMid meet">
<metadata>
Created by potrace 1.10, written by Peter Selinger 2001-2011
</metadata>
<g transform="translate(0.000000,300.000000) scale(0.100000,-0.100000)"
fill="#FFFFFF" stroke="none">
<path d="M557 2985 c-43 -15 -60 -32 -86 -90 -23 -48 -42 -65 -101 -89 -24
-10 -54 -28 -65 -40 -12 -13 -28 -27 -36 -32 -7 -5 -23 -26 -33 -46 -11 -21
-23 -38 -27 -38 -4 0 -22 -20 -39 -44 -21 -32 -30 -56 -30 -86 0 -59 -19 -128
-50 -181 -19 -31 -26 -54 -23 -76 3 -17 0 -34 -6 -37 -6 -4 -11 -14 -11 -22 0
-16 66 -110 93 -133 10 -7 17 -24 17 -38 0 -28 17 -63 38 -79 12 -9 21 -4 45
23 29 32 29 36 17 72 -15 45 -5 81 43 170 104 192 220 311 385 396 28 15 52
34 52 42 0 46 100 113 225 153 22 7 54 19 72 27 17 7 38 13 46 13 8 0 31 12
52 26 29 19 40 22 46 13 11 -18 91 -12 102 7 6 10 13 11 24 5 9 -4 24 -6 34
-4 11 3 19 0 19 -6 0 -6 16 -11 36 -11 49 0 35 15 -28 31 -29 6 -59 21 -68 31
-9 12 -33 21 -60 25 -25 2 -60 12 -78 20 -43 19 -52 10 -23 -21 22 -23 22 -46
1 -46 -6 0 -19 -8 -29 -17 -11 -9 -70 -34 -131 -54 -134 -46 -208 -87 -255
-141 -19 -23 -35 -45 -35 -49 0 -4 -16 -14 -35 -23 -121 -58 -268 -199 -334
-321 -12 -22 -34 -60 -50 -85 -37 -61 -51 -103 -52 -164 0 -28 -3 -44 -6 -36
-3 8 -25 40 -48 70 -23 30 -48 66 -55 79 -16 31 -6 110 22 159 24 42 47 131
48 181 0 30 36 90 74 126 6 6 18 23 26 38 16 32 47 57 123 96 39 21 62 43 93
89 23 34 56 72 74 85 32 21 51 47 33 47 -4 -1 -25 -7 -46 -15z"/>
<path d="M1478 2969 c-37 -27 -35 -42 7 -59 19 -7 37 -22 41 -32 3 -10 11 -18
19 -18 7 0 15 -6 18 -12 8 -21 42 6 42 33 0 26 24 28 38 4 7 -13 112 -32 150
-28 9 2 17 -2 17 -7 0 -6 8 -10 18 -10 10 0 22 -4 27 -9 6 -5 24 -12 42 -16
29 -6 32 -4 38 26 4 18 14 39 22 47 7 8 12 22 9 31 -2 9 -7 29 -10 44 l-7 29
-67 -7 c-37 -4 -77 -13 -89 -21 -33 -21 -149 -18 -219 6 -71 24 -63 24 -96 -1z
m396 -43 c-3 -8 0 -24 6 -36 16 -30 8 -34 -35 -16 -21 9 -48 16 -61 16 -40 0
-36 18 8 33 57 20 89 21 82 3z"/>
<path d="M1225 2859 c-126 -12 -407 -120 -447 -172 -10 -12 -18 -30 -18 -40 0
-10 -14 -26 -31 -35 -55 -30 -173 -109 -194 -129 -102 -102 -148 -161 -205
-268 -44 -80 -44 -83 -38 -197 0 -14 -6 -34 -15 -42 -26 -27 -31 -56 -11 -77
25 -27 36 -24 64 23 51 85 99 135 182 191 79 53 223 127 247 127 6 0 57 14
113 31 94 28 164 44 303 69 198 35 391 90 442 124 21 14 44 26 51 26 18 0 92
-36 122 -59 37 -29 43 -22 -243 -321 -116 -122 -175 -187 -227 -250 -24 -30
-61 -73 -81 -95 -21 -22 -65 -69 -98 -105 -59 -63 -75 -100 -50 -116 11 -7
114 93 183 176 16 19 58 68 95 109 36 40 77 87 91 104 14 17 47 54 73 82 27
27 70 75 95 105 26 30 60 69 77 86 16 16 58 60 92 97 34 37 68 67 77 67 18 0
49 -24 114 -87 51 -49 51 -59 12 -193 -20 -69 -21 -101 -24 -420 -4 -395 -12
-506 -47 -660 -23 -99 -74 -228 -114 -290 -43 -67 -143 -171 -205 -212 -43
-29 -139 -64 -200 -73 -87 -13 -94 -22 -69 -94 10 -27 15 -31 47 -31 77 0 208
55 291 121 l51 41 34 -21 c45 -28 91 -26 157 6 29 15 56 29 59 33 3 3 36 28
73 55 38 26 95 73 128 104 47 45 59 63 59 87 0 21 13 44 45 79 72 79 96 119
115 192 26 96 29 103 55 103 30 0 35 16 24 75 -11 59 -15 64 -33 40 -23 -32
-36 -8 -36 67 0 65 -4 91 -31 188 -7 26 -6 48 4 82 13 43 13 54 -3 115 -25 94
-50 175 -60 195 -5 9 -21 45 -35 80 -41 100 -49 118 -57 118 -5 0 -8 4 -8 10
0 5 -19 36 -41 69 -52 76 -48 91 24 91 68 0 108 -20 174 -87 64 -64 143 -220
143 -279 l0 -38 39 38 39 38 -14 42 c-8 22 -40 82 -70 133 -51 85 -55 95 -49
135 6 39 4 47 -18 68 -14 13 -22 30 -20 38 6 14 -18 39 -72 78 -46 33 -95 56
-95 45 0 -6 23 -40 50 -76 57 -75 83 -122 76 -134 -3 -5 -36 7 -73 26 -71 36
-93 38 -202 17 -18 -4 -36 -3 -40 2 -3 5 -36 36 -73 68 -48 41 -68 65 -68 82
0 29 129 164 157 164 11 0 50 -31 88 -70 38 -38 71 -67 74 -65 9 10 -50 84
-83 105 -20 12 -36 27 -36 34 0 39 -91 146 -124 146 -6 0 -22 6 -36 13 -22 11
-105 40 -195 66 -68 21 -124 22 -159 6 -33 -16 -38 -16 -92 5 -64 23 -180 31
-299 19z m273 -83 c39 -13 76 -28 83 -35 8 -6 28 -22 46 -36 33 -27 49 -70 38
-106 -8 -25 -30 -24 -155 14 -184 56 -405 68 -565 31 -78 -18 -105 -18 -105 1
0 15 38 35 160 82 144 56 211 71 332 72 77 1 110 -4 166 -23z m218 -5 c16 -5
82 -26 147 -47 64 -20 117 -41 117 -45 0 -5 6 -9 14 -9 17 0 29 -27 19 -45
-16 -27 -98 -121 -125 -143 l-28 -23 -70 37 c-75 41 -86 56 -71 97 14 37 -4
91 -45 136 -19 21 -34 41 -34 45 0 9 43 7 76 -3z m-330 -176 c97 -20 167 -42
191 -61 17 -13 17 -15 -2 -29 -33 -26 -226 -80 -375 -105 -36 -7 -103 -21
-150 -32 -47 -11 -107 -24 -135 -30 -159 -31 -403 -145 -482 -223 -8 -9 -28
-22 -44 -30 -28 -15 -29 -15 -29 9 0 27 63 154 110 220 44 62 80 99 140 143
95 70 155 95 365 148 6 1 82 3 171 4 115 1 184 -3 240 -14z m297 -57 c3 -8 -6
-14 -24 -15 -29 -2 -40 11 -16 20 22 9 35 7 40 -5z m215 -120 c3 -13 -3 -18
-20 -18 -13 0 -27 4 -33 8 -21 15 -12 27 18 27 22 0 33 -5 35 -17z m212 -204
c0 -19 -5 -24 -26 -24 -20 0 -25 4 -20 16 3 9 6 22 6 29 0 8 7 11 20 8 13 -3
20 -14 20 -29z m312 -18 c-7 -25 -9 -26 -21 -13 -9 12 -10 21 -1 37 16 30 32
12 22 -24z m-276 -112 c65 -104 161 -340 180 -444 35 -185 29 -433 -13 -590
-13 -47 -67 -165 -83 -180 -3 -3 -12 -18 -19 -33 -20 -37 -171 -179 -240 -226
-94 -63 -171 -90 -171 -60 0 10 29 68 40 79 3 3 10 14 17 25 68 112 93 173
121 295 48 205 52 250 53 610 0 190 4 386 8 435 8 89 31 165 50 165 5 0 31
-34 57 -76z m-1792 -30 c7 -18 0 -34 -15 -34 -5 0 -9 11 -9 25 0 28 15 34 24
9z m2052 -868 c7 -8 19 -16 26 -19 9 -3 4 -14 -15 -34 -16 -18 -35 -56 -46
-96 -17 -62 -67 -155 -77 -144 -3 2 6 29 20 58 13 30 27 71 31 92 4 20 11 39
15 42 4 2 6 19 5 37 -2 33 10 78 20 78 4 0 13 -6 21 -14z m-206 -452 c0 -9
-20 -37 -45 -62 -25 -25 -45 -41 -45 -37 0 5 -6 2 -12 -6 -7 -9 -44 -38 -83
-66 -128 -93 -183 -110 -247 -77 -29 15 -76 12 -88 -5 -13 -20 -116 -82 -168
-101 -83 -32 -120 -36 -128 -16 -8 22 -2 27 43 36 21 5 49 11 63 14 32 7 167
73 174 85 14 22 109 95 103 78 -10 -25 34 -67 70 -67 36 0 116 41 188 95 38
30 128 108 149 132 15 17 26 16 26 -3z"/>
<path d="M1284 2765 c-4 -8 -12 -15 -20 -15 -8 0 -23 -6 -34 -12 -16 -11 -22
-9 -34 7 -14 19 -15 19 -35 1 -13 -12 -36 -19 -61 -19 -32 0 -40 -3 -40 -18 0
-15 11 -18 83 -21 59 -2 87 0 99 11 10 7 24 11 32 8 10 -4 22 6 35 29 26 43
26 44 1 44 -11 0 -23 -7 -26 -15z"/>
<path d="M1345 2759 c-9 -29 2 -36 20 -13 18 24 19 34 1 34 -8 0 -18 -9 -21
-21z"/>
<path d="M1451 2714 c-28 -27 -32 -36 -22 -47 12 -16 55 -28 112 -32 37 -3 37
-3 67 57 4 9 -93 58 -110 57 -7 -1 -28 -17 -47 -35z m89 -30 c0 -8 -8 -14 -18
-14 -23 0 -32 8 -26 25 7 17 44 7 44 -11z"/>
<path d="M1733 2704 c4 -22 7 -66 7 -99 0 -59 1 -61 32 -73 25 -9 34 -9 39 0
5 8 11 3 18 -15 6 -15 16 -27 23 -27 19 0 68 52 68 73 0 11 5 37 11 58 15 48
-1 73 -43 67 -15 -3 -28 -1 -28 4 0 9 -54 33 -100 43 l-33 7 6 -38z m123 -62
c6 -9 20 -31 30 -49 15 -29 16 -36 3 -48 -18 -19 -59 -8 -59 15 0 10 -7 21
-16 24 -10 4 -14 12 -10 22 3 8 2 24 -4 33 -5 10 -6 21 -3 25 10 9 46 -4 59
-22z"/>
<path d="M1107 2583 c-3 -5 -8 -22 -11 -39 -9 -40 -34 -47 -86 -27 -42 17 -49
30 -27 52 10 11 5 12 -28 6 -22 -4 -47 -13 -56 -21 -8 -8 -21 -14 -27 -14 -6
0 -16 -9 -22 -21 -8 -14 -15 -17 -24 -10 -7 6 -17 6 -26 1 -9 -5 -19 -5 -27 1
-17 15 -53 -7 -53 -31 0 -11 5 -20 10 -20 15 0 12 -42 -5 -63 -16 -23 -55 -14
-55 11 0 10 -9 23 -19 29 -36 23 -129 -78 -220 -240 -18 -32 -31 -61 -28 -64
4 -3 25 11 48 31 24 20 78 53 121 73 70 33 101 63 65 63 -39 0 -85 39 -71 61
7 12 64 12 64 0 0 -5 8 -8 18 -7 12 1 17 -6 17 -26 -1 -22 4 -28 20 -28 37 0
65 12 65 27 0 11 7 14 28 10 15 -3 61 3 102 14 222 59 229 61 235 80 8 25 25
24 32 -1 8 -29 43 -26 43 4 0 13 7 26 15 30 8 3 15 17 15 31 0 14 5 24 12 23
7 -2 14 7 16 20 2 12 9 22 17 22 7 0 20 3 28 6 12 4 14 -4 13 -42 -2 -35 -8
-50 -26 -64 -13 -10 -18 -20 -12 -23 5 -4 15 0 22 8 7 9 22 12 38 9 15 -3 47
2 71 10 24 9 54 16 67 16 12 0 30 10 38 22 20 28 21 48 1 22 -14 -19 -14 -19
-15 2 0 26 -22 36 -56 28 -16 -4 -31 -1 -42 9 -11 10 -51 17 -114 22 -83 6
-98 5 -98 -8 0 -16 -27 -30 -41 -21 -5 3 -9 12 -9 20 0 15 -16 19 -23 7z m284
-63 c13 -10 20 -20 14 -20 -5 -1 -20 -3 -32 -6 -25 -4 -38 10 -29 31 7 20 19
19 47 -5z m-220 -19 c-6 -10 -8 -20 -6 -23 3 -2 -8 -3 -24 0 -16 2 -32 -1 -35
-7 -4 -6 -12 -11 -18 -11 -22 0 35 49 61 53 14 2 27 5 29 6 1 0 -2 -7 -7 -18z
m-163 -34 c7 -6 18 -19 23 -29 8 -15 5 -20 -13 -27 -16 -6 -25 -5 -31 5 -4 8
-13 14 -20 14 -7 0 -18 10 -26 21 -11 18 -11 23 1 30 14 9 45 3 66 -14z m-184
-4 c6 -15 8 -14 20 2 13 18 14 18 25 -3 7 -13 16 -20 21 -17 6 3 15 -5 21 -19
9 -19 9 -28 -2 -38 -23 -23 -47 -28 -53 -11 -4 10 -15 14 -31 11 -17 -4 -25
-1 -25 8 0 8 -9 19 -20 26 -26 17 -25 31 3 44 31 16 34 16 41 -3z m-254 -173
c0 -12 -49 -45 -56 -37 -3 3 -1 15 6 26 11 21 50 30 50 11z"/>
<path d="M2065 2008 c-4 -37 -5 -73 -2 -80 3 -10 22 -12 68 -8 57 4 64 7 61
25 -5 34 -38 70 -61 68 -14 -2 -21 3 -21 15 0 13 -2 14 -9 3 -6 -10 -11 -6
-18 15 -9 26 -11 23 -18 -38z"/>
<path d="M2185 1900 c-3 -5 -26 -10 -49 -10 -27 0 -52 -7 -65 -18 -19 -15 -22
-25 -19 -82 3 -72 -1 -70 92 -54 42 7 41 8 25 -56 -3 -12 8 -16 49 -18 48 -3
53 -1 62 22 7 20 3 43 -20 107 -17 45 -30 85 -30 88 0 3 -5 -2 -11 -12 -5 -9
-7 -22 -4 -27 3 -6 1 -10 -4 -10 -6 0 -11 -9 -11 -20 0 -11 -6 -20 -14 -20 -8
0 -16 -7 -20 -15 -6 -17 -24 -19 -44 -6 -16 10 -6 61 13 61 7 0 15 9 18 20 3
11 9 19 14 18 12 -3 53 21 53 32 0 13 -27 13 -35 0z m60 -167 c5 -17 2 -23 -9
-23 -9 0 -16 7 -16 16 0 8 -5 12 -11 8 -7 -4 -7 1 1 16 13 24 24 18 35 -17z"/>
<path d="M2280 1597 c0 -21 16 -47 30 -47 3 0 4 16 2 35 -5 39 -32 50 -32 12z"/>
<path d="M2060 1530 c-2 -231 -22 -446 -52 -560 -11 -41 -24 -88 -28 -105 -10
-41 -48 -133 -68 -167 -15 -25 -15 -29 3 -48 23 -25 30 -25 63 1 122 95 194
174 264 289 45 75 88 274 88 410 0 99 0 99 -31 120 -34 25 -50 19 -31 -10 7
-11 12 -24 12 -30 0 -24 -22 -6 -60 50 -23 33 -45 58 -51 55 -5 -4 -5 -13 1
-25 5 -10 10 -24 10 -30 0 -22 -21 2 -43 48 -18 39 -27 47 -50 47 -25 1 -27
-2 -27 -45z m70 -67 c0 -7 -2 -13 -4 -13 -2 0 -11 -3 -20 -6 -12 -5 -16 1 -16
23 0 16 3 33 7 36 7 8 32 -23 33 -40z m81 -69 c23 4 29 2 29 -12 0 -10 11 -28
25 -40 14 -12 25 -29 25 -37 0 -11 -7 -14 -25 -9 -17 4 -25 2 -25 -7 0 -7 -10
-3 -25 11 -22 21 -25 21 -25 5 0 -14 -4 -13 -21 9 -12 15 -24 25 -27 22 -11
-12 -32 18 -32 45 0 24 5 30 33 37 27 7 32 6 35 -11 3 -15 9 -18 33 -13z m-78
-97 c42 -31 96 -47 130 -40 32 6 33 4 13 -99 -32 -164 -99 -283 -224 -398 -42
-38 -80 -70 -84 -70 -12 0 -9 23 7 54 9 16 13 31 10 34 -3 3 -1 10 5 16 5 7
13 30 19 51 5 22 19 74 30 116 24 92 41 211 41 288 0 51 5 71 17 71 3 0 19
-10 36 -23z"/>
<path d="M2056 2560 c-10 -11 -16 -26 -12 -35 5 -14 8 -14 31 1 14 9 25 12 25
6 0 -5 14 -15 32 -21 l32 -11 -22 -20 c-12 -11 -28 -20 -36 -20 -8 0 -17 -3
-19 -7 -3 -5 -20 -8 -38 -8 -25 0 -36 6 -45 22 l-11 23 -23 -25 c-13 -14 -20
-31 -17 -39 8 -19 33 -21 40 -3 3 8 9 6 19 -7 8 -10 20 -16 26 -12 7 4 12 3
12 -2 0 -5 11 -14 25 -20 20 -9 25 -19 25 -47 0 -39 -1 -39 33 -26 20 8 23 15
19 40 -3 20 0 31 8 31 8 0 10 12 5 40 -6 33 -4 40 9 40 37 0 9 47 -58 98 -34
26 -36 26 -60 2z"/>
<path d="M1665 2450 c6 -18 2 -20 -37 -20 -49 0 -95 -25 -79 -43 5 -7 8 -32 7
-56 -2 -36 -7 -46 -28 -57 -24 -12 -27 -12 -31 4 -9 36 -7 76 5 83 23 14 -7
32 -40 24 -26 -5 -31 -12 -36 -49 -8 -48 0 -76 20 -76 10 0 12 -9 7 -32 -8
-43 -30 -77 -37 -57 -11 36 -16 42 -12 17 4 -34 -4 -35 -49 -5 -39 25 -42 34
-17 53 16 11 13 16 -28 54 -41 38 -49 41 -85 36 -75 -9 -105 -18 -105 -31 0
-20 -31 -27 -50 -10 -13 12 -22 13 -51 3 -45 -16 -41 -12 -48 -55 -8 -49 -35
-52 -39 -4 -3 30 -6 33 -30 28 -54 -11 -83 -27 -92 -52 -11 -28 -28 -33 -36
-10 -10 24 -22 18 -46 -25 -13 -22 -31 -43 -41 -46 -9 -3 -15 -10 -11 -15 8
-14 -25 -61 -37 -53 -5 3 -15 1 -22 -4 -16 -14 -67 -3 -67 14 0 8 5 14 10 14
6 0 10 6 10 14 0 9 20 19 50 26 33 8 50 17 50 27 0 11 -5 13 -17 8 -10 -4 -31
-12 -48 -18 -99 -36 -275 -220 -275 -287 0 -27 18 -25 85 10 31 17 68 30 80
30 13 0 27 5 30 11 5 7 12 6 23 -4 25 -21 61 -27 91 -15 l26 11 -33 9 c-33 9
-42 23 -19 31 6 2 0 8 -14 12 -23 6 -26 12 -26 46 0 31 3 39 18 39 9 0 19 -6
22 -12 3 -10 8 -10 21 1 15 13 19 13 27 0 5 -8 9 -24 9 -36 0 -24 14 -31 25
-13 11 18 25 0 25 -31 0 -16 3 -29 6 -29 5 0 45 20 53 26 1 1 -6 13 -18 25
-12 13 -21 29 -21 36 0 7 -4 13 -10 13 -5 0 -10 16 -10 37 0 34 1 35 18 20 10
-10 24 -17 30 -17 7 0 12 -9 12 -20 0 -11 6 -20 14 -20 11 0 13 -9 9 -35 -5
-34 9 -50 20 -22 4 9 8 8 16 -3 17 -25 22 -4 10 44 -6 26 -9 50 -5 53 10 11
16 -2 27 -63 6 -32 17 -71 25 -87 18 -34 54 -51 70 -32 5 7 19 13 30 12 15 -2
20 5 22 38 3 39 18 59 35 48 4 -3 7 -30 6 -61 -2 -34 2 -57 8 -59 20 -7 24 51
8 132 -8 44 -15 95 -15 113 0 18 -9 51 -21 73 -25 50 -20 75 6 31 11 -18 25
-30 32 -28 9 4 11 -3 6 -24 -6 -30 13 -154 28 -180 7 -13 15 82 10 132 -2 19
15 33 24 18 3 -5 21 -10 40 -10 29 0 39 7 65 46 18 25 35 44 38 42 19 -8 91
-64 92 -70 0 -3 -14 -19 -32 -35 -17 -15 -44 -40 -59 -55 -31 -33 -38 -34 -54
-12 -7 11 -27 17 -51 18 -27 1 -38 5 -36 14 1 8 -2 11 -8 7 -5 -3 -10 -35 -10
-71 0 -36 -7 -98 -15 -139 -14 -68 -14 -77 1 -100 18 -28 45 -32 64 -10 11 13
7 15 -24 15 -39 0 -45 10 -21 30 9 7 14 19 11 27 -4 9 3 13 19 13 18 0 25 5
25 20 0 16 5 19 30 14 20 -5 30 -3 30 6 0 7 7 10 16 6 10 -4 25 3 40 19 29 32
29 36 4 58 -23 20 -27 57 -5 57 8 0 15 -4 15 -10 0 -5 6 -10 14 -10 8 0 17 -8
20 -17 5 -12 10 -13 18 -5 9 9 5 17 -15 32 -15 12 -27 31 -27 43 0 16 3 18 12
9 28 -28 74 -14 132 39 67 61 74 80 47 116 -12 14 -19 29 -15 32 3 3 11 -2 18
-12 7 -9 21 -17 30 -17 13 0 16 -5 11 -22 -4 -17 8 -8 45 30 27 29 58 64 66
78 9 13 23 24 30 24 17 0 18 12 2 29 -11 10 -9 15 7 27 11 8 26 12 33 9 20 -8
44 26 30 42 -6 7 -17 13 -25 13 -8 0 -22 8 -31 17 -16 16 -17 16 -20 0 -5 -24
-22 -21 -22 3 0 11 -5 20 -11 20 -6 0 -8 -9 -4 -20z m21 -65 c-9 -13 -16 -33
-16 -45 0 -11 -4 -20 -8 -20 -4 0 -16 -13 -25 -30 -31 -52 -48 -39 -45 32 l3
62 50 12 c28 6 52 12 54 13 2 0 -4 -10 -13 -24z m-431 -93 c-3 -8 0 -19 7 -23
9 -6 7 -14 -10 -32 -17 -18 -20 -26 -10 -30 9 -3 7 -10 -9 -22 -13 -9 -23 -25
-23 -36 0 -13 -7 -19 -24 -19 -19 0 -27 8 -36 35 -11 34 -6 60 10 50 4 -3 11
11 14 30 5 24 12 35 24 35 9 0 23 9 30 20 14 23 37 17 27 -8z m-137 -58 c-9
-51 -14 -53 -45 -20 -30 31 -29 33 12 31 19 -1 34 -6 33 -11z m-208 -59 c0
-20 -51 -60 -72 -57 -12 2 -24 -2 -28 -8 -8 -13 -56 -17 -68 -6 -11 12 14 41
38 44 13 2 39 19 59 37 33 32 37 33 53 18 10 -9 18 -21 18 -28z m101 5 c5 0 9
-11 9 -25 0 -14 4 -25 9 -25 14 0 25 -80 13 -92 -16 -16 -55 1 -49 22 2 10 -3
24 -12 32 -22 19 -17 102 6 94 8 -3 19 -6 24 -6z m499 -3 c0 -18 -42 -67 -58
-67 -32 0 8 79 41 80 9 0 17 -6 17 -13z m-575 -77 c4 -16 13 -30 21 -30 16 0
18 -23 4 -50 -8 -14 -6 -21 6 -28 17 -10 12 -44 -11 -76 -13 -17 -16 -18 -38
-3 -16 10 -24 25 -25 44 0 15 -2 52 -5 81 -3 28 -1 52 3 52 4 0 10 9 13 20 8
30 24 24 32 -10z m-400 -100 c11 -52 0 -67 -58 -75 -29 -4 -58 -12 -64 -17
-20 -16 -16 8 5 34 30 38 85 88 98 88 7 0 15 -13 19 -30z m678 -10 c6 -23 -10
-99 -25 -117 -6 -7 -17 -13 -26 -13 -30 0 8 148 39 150 4 0 9 -9 12 -20z"/>
<path d="M2235 2411 c3 -11 0 -29 -7 -41 -11 -19 -10 -24 11 -41 13 -10 31
-19 40 -19 9 0 22 -5 28 -11 6 -6 16 -10 22 -8 6 2 -10 34 -36 71 -48 67 -70
86 -58 49z"/>
<path d="M1807 2282 c-31 -31 -57 -62 -57 -67 0 -6 -9 -16 -19 -22 -13 -8 -18
-19 -14 -34 4 -14 0 -25 -11 -31 -9 -5 -16 -15 -16 -23 0 -8 -9 -19 -20 -25
-14 -7 -20 -7 -20 0 0 5 -7 10 -15 10 -23 0 -18 -22 15 -60 l29 -34 36 34 c40
39 42 38 16 -21 -10 -24 -22 -63 -26 -86 -4 -23 -20 -61 -37 -84 -26 -36 -29
-47 -24 -88 20 -167 19 -183 -9 -246 -39 -84 -46 -220 -17 -320 38 -131 44
-218 18 -277 -5 -11 -4 -18 2 -18 36 0 48 160 19 268 -9 35 -17 96 -17 136 0
109 38 176 144 253 35 25 42 39 77 148 42 130 46 175 25 257 -22 88 -29 138
-17 138 5 0 15 -19 22 -42 38 -142 65 -173 66 -75 1 78 -4 97 -27 97 -9 0 -20
8 -24 18 -3 9 -9 23 -12 31 -5 10 0 12 22 9 16 -3 36 -8 45 -12 13 -6 19 0 27
26 20 64 19 83 -5 81 -29 -3 -50 22 -34 41 9 11 4 20 -26 45 -21 17 -42 31
-48 30 -5 0 -36 -26 -68 -57z m101 -13 c10 -15 6 -22 -21 -41 -17 -12 -27 -16
-21 -8 6 8 11 27 10 41 -2 30 16 34 32 8z m-68 -9 c0 -20 -44 -70 -61 -70 -5
0 -9 9 -9 20 0 11 5 20 10 20 6 0 10 5 10 11 0 12 29 38 43 39 4 0 7 -9 7 -20z
m115 -70 c-3 -5 -12 -10 -18 -10 -7 0 -24 -7 -39 -14 -26 -14 -28 -13 -28 4 0
19 16 27 63 29 17 1 26 -3 22 -9z m-179 -34 c3 -14 1 -32 -4 -42 -8 -14 -10
-9 -14 24 -4 45 8 57 18 18z m83 -31 c-12 -12 -43 6 -47 28 -2 8 5 17 15 19
22 5 47 -32 32 -47z m-20 -67 c22 -44 20 -58 -7 -58 -11 0 -24 16 -35 40 -22
51 -21 60 2 60 12 0 26 -15 40 -42z m-51 -145 c14 34 42 36 42 3 0 -14 -4 -28
-10 -31 -13 -8 -13 -62 0 -70 15 -9 -7 -35 -29 -35 -9 0 -22 -4 -30 -9 -12 -8
-13 -12 -1 -26 16 -19 6 -32 -38 -44 -30 -9 -44 0 -22 14 6 3 10 12 10 18 0 7
-9 1 -19 -12 -16 -21 -19 -21 -24 -6 -4 9 -7 32 -7 51 0 28 4 34 18 32 12 -2
18 5 20 27 4 34 22 60 22 31 0 -9 5 -14 10 -11 6 3 10 17 10 31 0 14 5 35 12
47 12 22 12 21 18 -8 l7 -30 11 28z m92 -82 c0 -49 -15 -75 -30 -51 -4 7 -6
26 -5 44 2 17 3 37 4 44 1 6 8 12 16 12 11 0 15 -12 15 -49z m-75 -161 c-1
-16 -8 -36 -14 -44 -7 -8 -10 -19 -7 -24 3 -6 -1 -15 -9 -22 -8 -7 -15 -19
-15 -27 0 -9 -8 -13 -22 -11 -19 2 -24 10 -26 41 -2 28 0 37 12 37 10 0 16 9
16 25 0 15 6 25 14 25 7 0 19 7 26 15 19 23 28 18 25 -15z"/>
<path d="M2696 2305 c-11 -8 -31 -15 -45 -15 -14 0 -55 -7 -91 -16 l-66 -16
-1 -40 c-2 -42 11 -75 57 -143 14 -22 34 -62 44 -90 25 -67 33 -74 54 -45 36
51 65 106 73 140 4 19 12 53 18 75 14 54 14 138 -1 153 -15 15 -19 15 -42 -3z
m17 -66 c3 -10 -5 -57 -18 -103 -23 -85 -51 -140 -65 -131 -16 10 -100 173
-100 194 0 23 28 38 93 49 70 12 85 11 90 -9z"/>
<path d="M2224 2195 c-14 -22 -15 -30 -4 -58 20 -49 26 -52 39 -15 9 25 14 30
21 19 7 -12 13 -13 34 -3 33 15 26 31 -24 60 -48 27 -46 27 -66 -3z"/>
<path d="M2353 2119 c-18 -18 -16 -32 2 -25 8 3 15 1 15 -5 0 -5 -11 -14 -24
-19 -31 -12 -42 -30 -25 -42 8 -5 10 -11 4 -14 -36 -16 -40 -22 -22 -42 9 -10
17 -22 17 -26 0 -5 6 -22 14 -39 16 -36 66 -195 66 -211 0 -6 4 -17 9 -25 12
-19 30 -1 67 67 28 52 28 53 16 133 -6 44 -14 84 -18 90 -8 14 -46 -21 -40
-37 6 -17 -19 -36 -41 -32 -23 4 -36 64 -17 83 8 7 14 25 14 39 0 16 6 26 15
26 23 0 18 27 -12 60 -23 25 -30 29 -40 19z m107 -283 c0 -19 -5 -47 -10 -62
-9 -24 -13 -25 -25 -13 -7 8 -17 31 -20 51 -6 34 -4 39 16 47 37 15 39 13 39
-23z"/>
<path d="M1590 2042 c0 -5 7 -17 15 -28 15 -19 21 -104 8 -104 -23 1 -34 21
-35 64 l-1 48 -43 -43 -43 -42 46 -41 c26 -23 50 -41 53 -41 3 0 21 12 38 27
39 33 42 72 10 129 -19 35 -48 53 -48 31z"/>
<path d="M1442 1878 c-17 -22 -62 -117 -62 -131 0 -8 -19 -43 -42 -78 -39 -58
-43 -70 -43 -125 0 -73 22 -114 61 -114 36 0 63 -17 76 -48 6 -16 12 -22 15
-14 3 7 -2 28 -11 46 -9 19 -16 38 -16 43 0 4 19 28 41 53 53 59 87 134 95
213 6 64 6 64 -32 108 -56 64 -64 68 -82 47z m38 -80 c1 -41 1 -42 16 -23 16
19 16 19 11 -10 -3 -16 -9 -43 -13 -60 -6 -29 -6 -29 10 -10 21 28 22 -2 0
-33 -10 -14 -14 -32 -10 -48 5 -18 0 -31 -18 -49 -31 -31 -51 -24 -76 28 -21
42 -19 57 7 57 11 0 14 6 8 23 -4 12 -9 37 -12 56 -5 30 -4 33 16 26 17 -5 21
-2 22 14 1 12 3 26 4 31 1 6 3 17 4 25 0 8 8 15 16 15 11 0 15 -12 15 -42z
m-107 -229 c18 -33 15 -49 -9 -49 -9 0 -12 -5 -8 -11 4 -7 1 -10 -7 -7 -16 5
-23 40 -15 74 8 32 17 30 39 -7z"/>
<path d="M1933 1767 c-7 -15 -13 -36 -13 -45 0 -9 -9 -66 -21 -127 -19 -98
-50 -180 -85 -225 -33 -42 -64 -114 -64 -148 0 -20 9 -60 20 -89 16 -43 18
-66 13 -132 -4 -62 -2 -97 12 -146 9 -36 20 -65 24 -65 12 0 59 113 76 185 50
209 60 300 30 289 -11 -4 -19 3 -26 24 -6 18 -17 29 -27 28 -24 -2 -29 66 -7
84 15 12 19 11 33 -7 10 -11 25 -23 35 -26 15 -6 17 1 17 61 0 45 -3 62 -10
52 -16 -26 -23 -2 -12 41 9 36 8 45 -6 55 -15 11 -14 16 8 60 21 40 24 59 20
104 -5 53 -5 54 -17 27z m-65 -502 c27 -30 32 -43 32 -83 0 -26 -5 -63 -10
-82 -42 -163 -52 -196 -60 -204 -7 -7 -10 29 -9 100 0 75 -5 123 -15 153 -19
52 -20 91 -4 126 15 33 27 32 66 -10z"/>
<path d="M1304 1720 c-16 -22 -32 -40 -36 -40 -4 0 -12 -9 -18 -21 -11 -20
-11 -20 19 -4 28 14 81 78 81 97 0 18 -18 5 -46 -32z"/>
<path d="M1060 1701 c0 -12 9 -20 28 -24 37 -7 42 1 13 24 -29 24 -41 24 -41
0z"/>
<path d="M1197 1604 c-4 -4 -7 -14 -7 -23 0 -9 -14 -24 -30 -33 -33 -19 -37
-33 -16 -61 11 -14 25 -17 58 -15 43 3 43 3 46 43 2 30 -3 47 -20 68 -13 16
-27 25 -31 21z"/>
<path d="M1205 1378 c10 -44 10 -45 44 -51 56 -12 94 -66 56 -81 -16 -6 -55
26 -55 45 0 6 -6 9 -12 6 -15 -5 -12 -85 4 -104 14 -18 37 -16 44 2 7 17 40
20 49 4 4 -6 4 -26 1 -45 -5 -24 -12 -34 -26 -34 -10 0 -22 -9 -25 -20 -4 -12
-15 -20 -29 -20 -35 0 -43 -16 -67 -138 l-22 -112 44 -85 c24 -47 49 -84 55
-83 6 2 30 25 53 51 l41 48 0 115 c0 64 5 124 11 135 15 28 23 146 15 213 -7
55 -9 58 -59 91 -29 18 -65 47 -81 64 -38 40 -49 39 -41 -1z m139 -320 c-18
-57 -24 -99 -24 -181 0 -93 -17 -147 -46 -147 -8 0 -19 11 -24 24 -5 13 -13
27 -19 30 -18 11 -21 81 -7 146 8 36 12 68 10 71 -4 8 38 48 68 64 37 21 50
18 42 -7z"/>
<path d="M2860 1174 c0 -27 -5 -37 -20 -41 -13 -4 -20 -14 -20 -30 0 -36 -66
-93 -108 -93 -26 0 -35 -5 -44 -27 -16 -42 -22 -129 -9 -137 18 -12 13 -87
-10 -133 -15 -31 -19 -53 -15 -76 4 -18 11 -57 16 -87 11 -68 43 -100 98 -100
20 0 43 4 50 9 16 10 42 58 42 77 0 16 32 161 62 277 11 44 17 81 14 84 -3 3
-1 14 5 25 8 14 6 25 -5 43 -23 35 -20 46 10 39 26 -7 26 -6 21 32 -15 109
-42 174 -72 174 -11 0 -15 -11 -15 -36z m34 -80 c10 -26 6 -58 -9 -78 -10 -13
-12 -33 -8 -66 4 -33 -1 -78 -15 -137 -12 -48 -29 -124 -38 -168 -9 -44 -19
-90 -21 -102 -7 -31 -37 -55 -64 -51 -27 4 -42 30 -61 113 -13 54 -13 64 1 84
23 36 25 54 18 209 -2 54 9 72 50 78 6 1 22 11 34 23 13 12 26 21 30 21 5 0
20 20 35 45 28 48 38 54 48 29z"/>
<path d="M1467 1061 c-12 -38 -19 -107 -23 -225 -6 -148 -13 -214 -41 -349 -4
-20 -1 -27 10 -27 11 0 23 22 37 69 17 59 20 96 20 275 0 127 4 215 11 227 5
11 9 34 7 52 -3 30 -5 29 -21 -22z"/>
<path d="M2459 1083 c-17 -4 -57 -138 -45 -150 11 -11 64 44 75 78 21 69 15
84 -30 72z"/>
<path d="M1744 930 c4 -19 11 -77 16 -129 11 -99 15 -115 26 -87 8 22 -24 228
-38 241 -8 7 -9 0 -4 -25z"/>
<path d="M2212 637 c-33 -33 -39 -46 -30 -55 7 -7 17 -12 24 -12 7 0 14 -4 16
-10 2 -5 14 -11 28 -12 24 -3 25 -1 25 61 0 35 -5 66 -10 68 -6 2 -30 -16 -53
-40z"/>
<path d="M2110 515 c14 -8 35 -14 47 -15 12 0 25 -4 28 -10 9 -15 35 -12 35 4
0 8 -21 17 -57 25 -73 14 -84 14 -53 -4z"/>
<path d="M2040 481 c0 -5 15 -19 33 -30 17 -11 41 -34 52 -50 24 -37 45 -40
45 -7 0 29 -19 50 -71 76 -42 22 -59 25 -59 11z"/>
<path d="M1726 433 c-13 -13 -5 -33 33 -77 22 -25 42 -53 45 -63 8 -30 46
-189 51 -214 14 -75 16 -79 41 -79 23 0 24 2 24 74 0 80 -8 116 -20 96 -5 -8
-14 9 -24 42 -16 56 -137 234 -150 221z"/>
<path d="M1937 288 c4 -24 7 -98 6 -165 -3 -126 4 -147 31 -95 8 15 32 49 53
74 21 26 43 61 50 77 11 31 10 32 -43 67 -30 20 -63 47 -73 60 -27 35 -34 30
-24 -18z m83 -83 c13 -16 6 -47 -15 -65 -13 -11 -15 -6 -15 34 0 47 9 57 30
31z"/>
<path d="M1548 240 c-86 -88 -92 -105 -57 -166 11 -21 18 -46 16 -56 -4 -14 1
-18 19 -18 30 0 31 19 4 79 -11 24 -20 48 -20 55 0 6 26 39 58 74 57 62 58 62
82 45 53 -37 88 -76 105 -116 45 -108 50 -122 48 -129 -2 -5 8 -8 21 -8 l25 0
-19 48 c-10 26 -24 62 -30 79 -21 56 -69 123 -88 123 -10 0 -26 15 -36 35 -11
19 -26 35 -35 35 -9 0 -51 -36 -93 -80z"/>
<path d="M1402 259 c1 -13 8 -23 13 -21 15 3 12 35 -3 40 -9 3 -13 -3 -10 -19z"/>
</g>
</svg>
