<svg width="100" height="100" viewBox="0 0 100 100" fill="none" xmlns="http://www.w3.org/2000/svg"><path d="M13 31a2 2 0 1 0 0-4 2 2 0 0 0 0 4z" fill="#78A0CF"/><path d="M77 14a1 1 0 1 0 0-2 1 1 0 0 0 0 2z" fill="#F1BC19"/><path d="M50 87c20.434 0 37-16.566 37-37S70.434 13 50 13 13 29.566 13 50s16.566 37 37 37z" fill="#CEE1F4"/><path d="M83 19a4 4 0 1 0 0-8 4 4 0 0 0 0 8z" fill="#F1BC19"/><path d="M87 26a2 2 0 1 0 0-4 2 2 0 0 0 0 4z" fill="#78A0CF"/><path d="M81 78a2 2 0 1 0 0-4 2 2 0 0 0 0 4zM15 67a4 4 0 1 0 0-8 4 4 0 0 0 0 8z" fill="#FBCD59"/><path d="M25 89a2 2 0 1 0 0-4 2 2 0 0 0 0 4z" fill="#78A0CF"/><path d="M28.5 30a2.5 2.5 0 1 0 0-5 2.5 2.5 0 0 0 0 5z" fill="#fff"/><path d="M24 72a1 1 0 1 0 0-2 1 1 0 0 0 0 2z" fill="#F1BC19"/><path d="M82 41a1 1 0 1 0 0-2 1 1 0 0 0 0 2z" fill="#fff"/><path d="M23.833 67.3a2.136 2.136 0 0 1-2.133-2.134V54.648a4.707 4.707 0 0 0 4-4.648 4.707 4.707 0 0 0-4-4.648v-9.519c0-1.177.957-2.134 2.133-2.134h52.334c1.176 0 2.133.957 2.133 2.134v9.52a4.707 4.707 0 0 0-4 4.647 4.707 4.707 0 0 0 4 4.648v10.52a2.136 2.136 0 0 1-2.133 2.133H23.833z" fill="#F6CCA4"/><path d="M76.167 34.4c.79 0 1.433.643 1.433 1.434v8.951a5.41 5.41 0 0 0-4 5.216 5.41 5.41 0 0 0 4 5.216v9.951c0 .791-.643 1.434-1.433 1.434H23.833c-.79 0-1.433-.643-1.433-1.434v-9.951a5.41 5.41 0 0 0 4-5.216 5.41 5.41 0 0 0-4-5.216v-8.951c0-.791.643-1.434 1.433-1.434h52.334zm0-1.4H23.833A2.834 2.834 0 0 0 21 35.833V46a4 4 0 0 1 0 8v11.167A2.834 2.834 0 0 0 23.833 68h52.333A2.834 2.834 0 0 0 79 65.167V54a4 4 0 0 1 0-8V35.833A2.834 2.834 0 0 0 76.167 33z" fill="#472B29"/><path d="M70 41a1 1 0 1 0 0-2 1 1 0 0 0 0 2zm0-4a1 1 0 1 0 0-2 1 1 0 0 0 0 2zm0 8a1 1 0 1 0 0-2 1 1 0 0 0 0 2zm0 4a1 1 0 1 0 0-2 1 1 0 0 0 0 2zm0 4a1 1 0 1 0 0-2 1 1 0 0 0 0 2zm0 4a1 1 0 1 0 0-2 1 1 0 0 0 0 2zm0 4a1 1 0 1 0 0-2 1 1 0 0 0 0 2zm0 4a1 1 0 1 0 0-2 1 1 0 0 0 0 2zm-3.479-27.25H52.833a.25.25 0 0 1 0-.5h13.688a.25.25 0 0 1 0 .5zm-17.604 0h-10.25a.25.25 0 0 1 0-.5h10.25a.25.25 0 0 1 0 .5zm-13.417 0h-10a.25.25 0 0 1 0-.5h10a.25.25 0 0 1 0 .5z" fill="#472B29"/><path d="M25.5 44a.25.25 0 0 1-.25-.25v-6.234a.25.25 0 0 1 .5 0v6.234a.25.25 0 0 1-.25.25zm41-.25a.25.25 0 0 1-.25-.25v-6a.25.25 0 0 1 .5 0v6a.25.25 0 0 1-.25.25zm.002 19.983a.25.25 0 0 1-.25-.25V47.522a.25.25 0 0 1 .5 0v15.962a.25.25 0 0 1-.25.248zm-41.002.059a.25.25 0 0 1-.25-.25v-6.234a.25.25 0 0 1 .5 0v6.234a.25.25 0 0 1-.25.25z" fill="#472B29"/><path d="M66.5 63.75h-5.833a.25.25 0 0 1 0-.5H66.5a.25.25 0 0 1 0 .5zm-9.083 0h-7.75a.25.25 0 0 1 0-.5h7.75a.25.25 0 0 1 0 .5zm-10.667 0H25.5a.25.25 0 0 1 0-.5h21.25a.25.25 0 0 1 0 .5zM60.5 44H42.625a.5.5 0 0 1 0-1H60.5a.5.5 0 0 1 0 1zm-21.187 0H32.5a.5.5 0 0 1 0-1h6.813a.5.5 0 0 1 0 1zM60.5 49h-6.125a.5.5 0 0 1 0-1H60.5a.5.5 0 0 1 0 1zm-9.375 0H32.5a.5.5 0 0 1 0-1h18.625a.5.5 0 0 1 0 1zm0 9H32.5a.5.5 0 0 1 0-1h18.625a.5.5 0 0 1 0 1zm9.375-4H47.125a.5.5 0 0 1 0-1H60.5a.5.5 0 0 1 0 1zm-16.687 0H32.5a.5.5 0 0 1 0-1h11.313a.5.5 0 0 1 0 1z" fill="#472B29"/></svg>