<svg width="62" height="63" viewBox="0 0 62 63" fill="none" xmlns="http://www.w3.org/2000/svg"><g clip-path="url(#clip0_2336_1586)"><path d="M60.325 0H1.675C.75 0 0 .75 0 1.675v59.65C0 62.25.75 63 1.675 63h58.65C61.25 63 62 62.25 62 61.325V1.675C62 .75 61.25 0 60.325 0z" fill="#fff"/><path d="M6.973 5.277h-1.78v1.809h1.78V5.277zm1.78 0h-1.78v1.809h1.78V5.277zm1.78 0h-1.78v1.809h1.78V5.277zm1.78 0h-1.78v1.809h1.78V5.277z" fill="#000"/><path d="M14.092 5.277h-1.78v1.809h1.78V5.277zm1.78 0h-1.78v1.809h1.78V5.277zm1.78 0h-1.78v1.809h1.78V5.277zm3.559 0h-1.78v1.809h1.78V5.277zm5.339 0h-1.78v1.809h1.78V5.277z" fill="#000"/><path d="M28.33 5.277h-1.78v1.809h1.78V5.277zm1.78 0h-1.78v1.809h1.78V5.277zm8.899 0h-1.78v1.809h1.78V5.277zm7.119 0h-1.78v1.809h1.78V5.277zm1.78 0h-1.78v1.809h1.78V5.277z" fill="#000"/><path d="M49.687 5.277h-1.78v1.809h1.78V5.277zm1.78 0h-1.78v1.809h1.78V5.277zm1.78 0h-1.78v1.809h1.78V5.277z" fill="#000"/><path d="M55.026 5.277h-1.78v1.809h1.78V5.277z" fill="#000"/><path d="M56.806 5.277h-1.78v1.809h1.78V5.277zM6.973 7.086h-1.78v1.808h1.78V7.086zm10.679 0h-1.78v1.808h1.78V7.086zm5.339 0h-1.78v1.808h1.78V7.086zm1.779 0h-1.779v1.808h1.78V7.086zm5.34 0h-1.78v1.808h1.78V7.086zm1.78 0h-1.78v1.808h1.78V7.086zm5.34 0h-1.78v1.808h1.78V7.086zm5.338 0h-1.78v1.808h1.78V7.086zm3.56 0h-1.78v1.808h1.78V7.086zm10.678 0h-1.78v1.808h1.78V7.086zM6.973 8.894h-1.78v1.809h1.78V8.894zm3.56 0h-1.78v1.809h1.78V8.894zm1.78 0h-1.78v1.809h1.78V8.894z" fill="#000"/><path d="M14.092 8.894h-1.78v1.809h1.78V8.894zm3.56 0h-1.78v1.809h1.78V8.894zm3.559 0h-1.78v1.809h1.78V8.894zm8.899 0h-1.78v1.809h1.78V8.894zm3.56 0h-1.78v1.809h1.78V8.894zm3.56 0h-1.78v1.809h1.78V8.894z" fill="#000"/><path d="M39.009 8.894h-1.78v1.809h1.78V8.894zm1.78 0h-1.78v1.809h1.78V8.894z" fill="#000"/><path d="M42.568 8.894h-1.78v1.809h1.78V8.894zm3.56 0h-1.78v1.809h1.78V8.894zm3.559 0h-1.78v1.809h1.78V8.894zm1.78 0h-1.78v1.809h1.78V8.894zm1.78 0h-1.78v1.809h1.78V8.894zm3.559 0h-1.78v1.809h1.78V8.894zM6.973 10.703h-1.78v1.808h1.78v-1.808zm3.56 0h-1.78v1.808h1.78v-1.808zm1.78 0h-1.78v1.808h1.78v-1.808z" fill="#000"/><path d="M14.092 10.703h-1.78v1.808h1.78v-1.808zm3.56 0h-1.78v1.808h1.78v-1.808zm3.559 0h-1.78v1.808h1.78v-1.808zm1.78 0h-1.78v1.808h1.78v-1.808zm1.779 0h-1.779v1.808h1.78v-1.808z" fill="#000"/><path d="M26.55 10.703h-1.78v1.808h1.78v-1.808z" fill="#000"/><path d="M28.33 10.703h-1.78v1.808h1.78v-1.808zm3.56 0h-1.78v1.808h1.78v-1.808zm1.78 0h-1.78v1.808h1.78v-1.808zm1.78 0h-1.78v1.808h1.78v-1.808zm5.339 0h-1.78v1.808h1.78v-1.808zm5.339 0h-1.78v1.808h1.78v-1.808zm3.559 0h-1.78v1.808h1.78v-1.808zm1.78 0h-1.78v1.808h1.78v-1.808zm1.78 0h-1.78v1.808h1.78v-1.808zm3.559 0h-1.78v1.808h1.78v-1.808zM6.973 12.511h-1.78v1.809h1.78v-1.81zm3.56 0h-1.78v1.809h1.78v-1.81zm1.78 0h-1.78v1.809h1.78v-1.81z" fill="#000"/><path d="M14.092 12.511h-1.78v1.809h1.78v-1.81zm3.56 0h-1.78v1.809h1.78v-1.81zm5.339 0h-1.78v1.809h1.78v-1.81zm1.779 0h-1.779v1.809h1.78v-1.81zm8.9 0h-1.78v1.809h1.78v-1.81zm3.56 0h-1.78v1.809h1.78v-1.81zm8.898 0h-1.78v1.809h1.78v-1.81zm3.559 0h-1.78v1.809h1.78v-1.81zm1.78 0h-1.78v1.809h1.78v-1.81zm1.78 0h-1.78v1.809h1.78v-1.81zm3.559 0h-1.78v1.809h1.78v-1.81zM6.973 14.32h-1.78v1.808h1.78V14.32zm10.679 0h-1.78v1.808h1.78V14.32zm3.559 0h-1.78v1.808h1.78V14.32zm5.339 0h-1.78v1.808h1.78V14.32z" fill="#000"/><path d="M28.33 14.32h-1.78v1.808h1.78V14.32zm5.34 0h-1.78v1.808h1.78V14.32zm5.339 0h-1.78v1.808h1.78V14.32zm7.119 0h-1.78v1.808h1.78V14.32zm10.678 0h-1.78v1.808h1.78V14.32zM6.973 16.128h-1.78v1.809h1.78v-1.809zm1.78 0h-1.78v1.809h1.78v-1.809zm1.78 0h-1.78v1.809h1.78v-1.809zm1.78 0h-1.78v1.809h1.78v-1.809z" fill="#000"/><path d="M14.092 16.128h-1.78v1.809h1.78v-1.809zm1.78 0h-1.78v1.809h1.78v-1.809zm1.78 0h-1.78v1.809h1.78v-1.809zm3.559 0h-1.78v1.809h1.78v-1.809zm3.559 0h-1.779v1.809h1.78v-1.809zm3.56 0h-1.78v1.809h1.78v-1.809zm3.56 0h-1.78v1.809h1.78v-1.809zm3.56 0h-1.78v1.809h1.78v-1.809zm3.559 0h-1.78v1.809h1.78v-1.809zm3.559 0h-1.78v1.809h1.78v-1.809zm3.56 0h-1.78v1.809h1.78v-1.809zm1.78 0h-1.78v1.809h1.78v-1.809z" fill="#000"/><path d="M49.687 16.128h-1.78v1.809h1.78v-1.809zm1.78 0h-1.78v1.809h1.78v-1.809zm1.78 0h-1.78v1.809h1.78v-1.809z" fill="#000"/><path d="M55.026 16.128h-1.78v1.809h1.78v-1.809z" fill="#000"/><path d="M56.806 16.128h-1.78v1.809h1.78v-1.809zm-35.595 1.809h-1.78v1.808h1.78v-1.808zm1.78 0h-1.78v1.808h1.78v-1.808zm1.779 0h-1.779v1.808h1.78v-1.808zm3.56 0h-1.78v1.808h1.78v-1.808zm1.78 0h-1.78v1.808h1.78v-1.808zm1.78 0h-1.78v1.808h1.78v-1.808zm1.78 0h-1.78v1.808h1.78v-1.808zm1.78 0h-1.78v1.808h1.78v-1.808z" fill="#000"/><path d="M37.23 17.937h-1.78v1.808h1.78v-1.808zm3.559 0h-1.78v1.808h1.78v-1.808z" fill="#000"/><path d="M42.568 17.937h-1.78v1.808h1.78v-1.808zM6.973 19.745h-1.78v1.808h1.78v-1.808zm1.78 0h-1.78v1.808h1.78v-1.808zm3.56 0h-1.78v1.808h1.78v-1.808zm5.339 0h-1.78v1.808h1.78v-1.808z" fill="#000"/><path d="M19.432 19.745h-1.78v1.808h1.78v-1.808zm3.559 0h-1.78v1.808h1.78v-1.808zm7.119 0h-1.78v1.808h1.78v-1.808zm1.78 0h-1.78v1.808h1.78v-1.808zm3.56 0h-1.78v1.808h1.78v-1.808z" fill="#000"/><path d="M37.23 19.745h-1.78v1.808h1.78v-1.808zm3.559 0h-1.78v1.808h1.78v-1.808z" fill="#000"/><path d="M42.568 19.745h-1.78v1.808h1.78v-1.808zm1.78 0h-1.78v1.808h1.78v-1.808zm1.78 0h-1.78v1.808h1.78v-1.808zm1.78 0h-1.78v1.808h1.78v-1.808zm3.559 0h-1.78v1.808h1.78v-1.808zm1.78 0h-1.78v1.808h1.78v-1.808zm3.559 0h-1.78v1.808h1.78v-1.808zm-44.493 1.808h-1.78v1.809h1.78v-1.808zm7.119 0h-1.78v1.809h1.78v-1.808zm3.559 0h-1.78v1.809h1.78v-1.808zm1.779 0h-1.779v1.809h1.78v-1.808zm10.68 0h-1.78v1.809h1.78v-1.808zm3.559 0h-1.78v1.809h1.78v-1.808zm1.78 0h-1.78v1.809h1.78v-1.808zm7.119 0h-1.78v1.809h1.78v-1.808zm7.118 0h-1.78v1.809h1.78v-1.808z" fill="#000"/><path d="M56.806 21.553h-1.78v1.809h1.78v-1.808zM6.973 23.362h-1.78v1.808h1.78v-1.808zm3.56 0h-1.78v1.808h1.78v-1.808zm5.339 0h-1.78v1.808h1.78v-1.808zm1.78 0h-1.78v1.808h1.78v-1.808zm3.559 0h-1.78v1.808h1.78v-1.808zm3.559 0h-1.779v1.808h1.78v-1.808zm3.56 0h-1.78v1.808h1.78v-1.808zm3.56 0h-1.78v1.808h1.78v-1.808zm1.78 0h-1.78v1.808h1.78v-1.808zm3.56 0h-1.78v1.808h1.78v-1.808zm3.559 0h-1.78v1.808h1.78v-1.808z" fill="#000"/><path d="M42.568 23.362h-1.78v1.808h1.78v-1.808zm3.56 0h-1.78v1.808h1.78v-1.808zm3.559 0h-1.78v1.808h1.78v-1.808zm1.78 0h-1.78v1.808h1.78v-1.808zm3.559 0h-1.78v1.808h1.78v-1.808zM8.753 25.17h-1.78v1.809h1.78V25.17zm1.78 0h-1.78v1.809h1.78V25.17zm3.559 0h-1.78v1.809h1.78V25.17zm1.78 0h-1.78v1.809h1.78V25.17zm7.119 0h-1.78v1.809h1.78V25.17zm3.559 0h-1.78v1.809h1.78V25.17z" fill="#000"/><path d="M28.33 25.17h-1.78v1.809h1.78V25.17zm1.78 0h-1.78v1.809h1.78V25.17zm1.78 0h-1.78v1.809h1.78V25.17zm1.78 0h-1.78v1.809h1.78V25.17zm5.339 0h-1.78v1.809h1.78V25.17zm1.78 0h-1.78v1.809h1.78V25.17z" fill="#000"/><path d="M42.568 25.17h-1.78v1.809h1.78V25.17zm1.78 0h-1.78v1.809h1.78V25.17zm1.78 0h-1.78v1.809h1.78V25.17zm1.78 0h-1.78v1.809h1.78V25.17z" fill="#000"/><path d="M49.687 25.17h-1.78v1.809h1.78V25.17zm7.119 0h-1.78v1.809h1.78V25.17zm-46.273 1.809h-1.78v1.808h1.78V26.98zm7.119 0h-1.78v1.808h1.78V26.98zm1.78 0h-1.78v1.808h1.78V26.98zm7.118 0h-1.78v1.808h1.78V26.98zm3.56 0h-1.78v1.808h1.78V26.98zm1.78 0h-1.78v1.808h1.78V26.98zm1.78 0h-1.78v1.808h1.78V26.98zm1.78 0h-1.78v1.808h1.78V26.98zm1.78 0h-1.78v1.808h1.78V26.98zm3.559 0h-1.78v1.808h1.78V26.98z" fill="#000"/><path d="M42.568 26.979h-1.78v1.808h1.78V26.98zm1.78 0h-1.78v1.808h1.78V26.98zm3.56 0h-1.78v1.808h1.78V26.98z" fill="#000"/><path d="M49.687 26.979h-1.78v1.808h1.78V26.98zm1.78 0h-1.78v1.808h1.78V26.98zm1.78 0h-1.78v1.808h1.78V26.98zM6.973 28.787h-1.78v1.809h1.78v-1.809zm1.78 0h-1.78v1.809h1.78v-1.809zm7.119 0h-1.78v1.809h1.78v-1.809zm5.339 0h-1.78v1.809h1.78v-1.809zm1.78 0h-1.78v1.809h1.78v-1.809zm1.779 0h-1.779v1.809h1.78v-1.809zm7.12 0h-1.78v1.809h1.78v-1.809zm7.119 0h-1.78v1.809h1.78v-1.809zm1.78 0h-1.78v1.809h1.78v-1.809z" fill="#000"/><path d="M42.568 28.787h-1.78v1.809h1.78v-1.809zm5.34 0h-1.78v1.809h1.78v-1.809zm8.898 0h-1.78v1.809h1.78v-1.809zM6.973 30.596h-1.78v1.808h1.78v-1.808zm5.34 0h-1.78v1.808h1.78v-1.808z" fill="#000"/><path d="M14.092 30.596h-1.78v1.808h1.78v-1.808zm3.56 0h-1.78v1.808h1.78v-1.808zm5.339 0h-1.78v1.808h1.78v-1.808zm5.339 0h-1.78v1.808h1.78v-1.808zm1.78 0h-1.78v1.808h1.78v-1.808zm3.56 0h-1.78v1.808h1.78v-1.808zm1.78 0h-1.78v1.808h1.78v-1.808z" fill="#000"/><path d="M37.23 30.596h-1.78v1.808h1.78v-1.808z" fill="#000"/><path d="M39.009 30.596h-1.78v1.808h1.78v-1.808zm1.78 0h-1.78v1.808h1.78v-1.808z" fill="#000"/><path d="M42.568 30.596h-1.78v1.808h1.78v-1.808zm3.56 0h-1.78v1.808h1.78v-1.808zm1.78 0h-1.78v1.808h1.78v-1.808zm8.898 0h-1.78v1.808h1.78v-1.808zM6.973 32.404h-1.78v1.809h1.78v-1.809zm5.34 0h-1.78v1.809h1.78v-1.809zm3.559 0h-1.78v1.809h1.78v-1.809zm3.56 0h-1.78v1.809h1.78v-1.809z" fill="#000"/><path d="M21.211 32.404h-1.78v1.809h1.78v-1.809zm1.78 0h-1.78v1.809h1.78v-1.809zm5.339 0h-1.78v1.809h1.78v-1.809zm3.56 0h-1.78v1.809h1.78v-1.809zm3.56 0h-1.78v1.809h1.78v-1.809zm3.559 0h-1.78v1.809h1.78v-1.809zm5.339 0h-1.78v1.809h1.78v-1.809zm1.78 0h-1.78v1.809h1.78v-1.809zm1.78 0h-1.78v1.809h1.78v-1.809zm7.118 0h-1.78v1.809h1.78v-1.809zM8.753 34.213h-1.78v1.808h1.78v-1.808zm1.78 0h-1.78v1.808h1.78v-1.808zm3.559 0h-1.78v1.808h1.78v-1.808zm1.78 0h-1.78v1.808h1.78v-1.808zm1.78 0h-1.78v1.808h1.78v-1.808zm1.78 0h-1.78v1.808h1.78v-1.808zm5.338 0h-1.779v1.808h1.78v-1.808z" fill="#000"/><path d="M26.55 34.213h-1.78v1.808h1.78v-1.808zm3.56 0h-1.78v1.808h1.78v-1.808zm1.78 0h-1.78v1.808h1.78v-1.808zm1.78 0h-1.78v1.808h1.78v-1.808zm1.78 0h-1.78v1.808h1.78v-1.808z" fill="#000"/><path d="M37.23 34.213h-1.78v1.808h1.78v-1.808z" fill="#000"/><path d="M39.009 34.213h-1.78v1.808h1.78v-1.808zm3.559 0h-1.78v1.808h1.78v-1.808zm1.78 0h-1.78v1.808h1.78v-1.808zm5.339 0h-1.78v1.808h1.78v-1.808zM8.753 36.021h-1.78v1.809h1.78v-1.81zm3.56 0h-1.78v1.809h1.78v-1.81zm3.559 0h-1.78v1.809h1.78v-1.81zm3.56 0h-1.78v1.809h1.78v-1.81zm3.559 0h-1.78v1.809h1.78v-1.81zm3.559 0h-1.78v1.809h1.78v-1.81zm3.56 0h-1.78v1.809h1.78v-1.81zm5.34 0h-1.78v1.809h1.78v-1.81z" fill="#000"/><path d="M37.23 36.021h-1.78v1.809h1.78v-1.81z" fill="#000"/><path d="M39.009 36.021h-1.78v1.809h1.78v-1.81zm7.119 0h-1.78v1.809h1.78v-1.81zm7.119 0h-1.78v1.809h1.78v-1.81z" fill="#000"/><path d="M55.026 36.021h-1.78v1.809h1.78v-1.81z" fill="#000"/><path d="M56.806 36.021h-1.78v1.809h1.78v-1.81zM12.313 37.83h-1.78v1.808h1.78V37.83zm3.559 0h-1.78v1.808h1.78V37.83zm1.78 0h-1.78v1.808h1.78V37.83z" fill="#000"/><path d="M19.432 37.83h-1.78v1.808h1.78V37.83zm3.559 0h-1.78v1.808h1.78V37.83zm1.779 0h-1.779v1.808h1.78V37.83zm12.46 0h-1.78v1.808h1.78V37.83zm5.338 0h-1.78v1.808h1.78V37.83zm1.78 0h-1.78v1.808h1.78V37.83zm3.56 0h-1.78v1.808h1.78V37.83z" fill="#000"/><path d="M49.687 37.83h-1.78v1.808h1.78V37.83zm1.78 0h-1.78v1.808h1.78V37.83zm1.78 0h-1.78v1.808h1.78V37.83z" fill="#000"/><path d="M55.026 37.83h-1.78v1.808h1.78V37.83z" fill="#000"/><path d="M56.806 37.83h-1.78v1.808h1.78V37.83zM6.973 39.638h-1.78v1.808h1.78v-1.808zm5.34 0h-1.78v1.808h1.78v-1.808z" fill="#000"/><path d="M14.092 39.638h-1.78v1.808h1.78v-1.808zm1.78 0h-1.78v1.808h1.78v-1.808zm7.119 0h-1.78v1.808h1.78v-1.808zm7.119 0h-1.78v1.808h1.78v-1.808zm1.78 0h-1.78v1.808h1.78v-1.808zm1.78 0h-1.78v1.808h1.78v-1.808zm1.78 0h-1.78v1.808h1.78v-1.808zm10.678 0h-1.78v1.808h1.78v-1.808zm5.339 0h-1.78v1.808h1.78v-1.808zm5.339 0h-1.78v1.808h1.78v-1.808zM6.973 41.446h-1.78v1.809h1.78v-1.809zm3.56 0h-1.78v1.809h1.78v-1.809zm7.119 0h-1.78v1.809h1.78v-1.809z" fill="#000"/><path d="M19.432 41.446h-1.78v1.809h1.78v-1.809zm3.559 0h-1.78v1.809h1.78v-1.809zm5.339 0h-1.78v1.809h1.78v-1.809zm3.56 0h-1.78v1.809h1.78v-1.809zm1.78 0h-1.78v1.809h1.78v-1.809zm1.78 0h-1.78v1.809h1.78v-1.809zm3.559 0h-1.78v1.809h1.78v-1.809zm3.559 0h-1.78v1.809h1.78v-1.809zm1.78 0h-1.78v1.809h1.78v-1.809zm1.78 0h-1.78v1.809h1.78v-1.809zm1.78 0h-1.78v1.809h1.78v-1.809z" fill="#000"/><path d="M49.687 41.446h-1.78v1.809h1.78v-1.809zm3.56 0h-1.78v1.809h1.78v-1.809z" fill="#000"/><path d="M55.026 41.446h-1.78v1.809h1.78v-1.809z" fill="#000"/><path d="M56.806 41.446h-1.78v1.809h1.78v-1.809zm-33.815 1.809h-1.78v1.808h1.78v-1.808zm1.779 0h-1.779v1.808h1.78v-1.808z" fill="#000"/><path d="M26.55 43.255h-1.78v1.808h1.78v-1.808zm5.34 0h-1.78v1.808h1.78v-1.808zm1.78 0h-1.78v1.808h1.78v-1.808zm8.898 0h-1.78v1.808h1.78v-1.808zm7.119 0h-1.78v1.808h1.78v-1.808zm1.78 0h-1.78v1.808h1.78v-1.808zm3.559 0h-1.78v1.808h1.78v-1.808zm1.78 0h-1.78v1.808h1.78v-1.808zM6.973 45.063h-1.78v1.809h1.78v-1.809zm1.78 0h-1.78v1.809h1.78v-1.809zm1.78 0h-1.78v1.809h1.78v-1.809zm1.78 0h-1.78v1.809h1.78v-1.809z" fill="#000"/><path d="M14.092 45.063h-1.78v1.809h1.78v-1.809zm1.78 0h-1.78v1.809h1.78v-1.809zm1.78 0h-1.78v1.809h1.78v-1.809zm3.559 0h-1.78v1.809h1.78v-1.809zm1.78 0h-1.78v1.809h1.78v-1.809zm3.559 0h-1.78v1.809h1.78v-1.809zm3.56 0h-1.78v1.809h1.78v-1.809zm8.899 0h-1.78v1.809h1.78v-1.809zm1.78 0h-1.78v1.809h1.78v-1.809z" fill="#000"/><path d="M42.568 45.063h-1.78v1.809h1.78v-1.809zm3.56 0h-1.78v1.809h1.78v-1.809zm3.559 0h-1.78v1.809h1.78v-1.809zm7.119 0h-1.78v1.809h1.78v-1.809zM6.973 46.872h-1.78v1.808h1.78v-1.808zm10.679 0h-1.78v1.808h1.78v-1.808zm5.339 0h-1.78v1.808h1.78v-1.808zm1.779 0h-1.779v1.808h1.78v-1.808z" fill="#000"/><path d="M26.55 46.872h-1.78v1.808h1.78v-1.808z" fill="#000"/><path d="M28.33 46.872h-1.78v1.808h1.78v-1.808zm7.12 0h-1.78v1.808h1.78v-1.808zm1.78 0h-1.78v1.808h1.78v-1.808z" fill="#000"/><path d="M39.009 46.872h-1.78v1.808h1.78v-1.808zm3.559 0h-1.78v1.808h1.78v-1.808zm7.119 0h-1.78v1.808h1.78v-1.808zm3.56 0h-1.78v1.808h1.78v-1.808zm3.559 0h-1.78v1.808h1.78v-1.808zM6.973 48.68h-1.78v1.809h1.78V48.68zm3.56 0h-1.78v1.809h1.78V48.68zm1.78 0h-1.78v1.809h1.78V48.68z" fill="#000"/><path d="M14.092 48.68h-1.78v1.809h1.78V48.68zm3.56 0h-1.78v1.809h1.78V48.68zm5.339 0h-1.78v1.809h1.78V48.68zm8.899 0h-1.78v1.809h1.78V48.68zm1.78 0h-1.78v1.809h1.78V48.68zm1.78 0h-1.78v1.809h1.78V48.68zm3.559 0h-1.78v1.809h1.78V48.68zm3.559 0h-1.78v1.809h1.78V48.68zm1.78 0h-1.78v1.809h1.78V48.68zm1.78 0h-1.78v1.809h1.78V48.68zm1.78 0h-1.78v1.809h1.78V48.68z" fill="#000"/><path d="M49.687 48.68h-1.78v1.809h1.78V48.68zm1.78 0h-1.78v1.809h1.78V48.68zm3.559 0h-1.78v1.809h1.78V48.68zm1.78 0h-1.78v1.809h1.78V48.68zM6.973 50.489h-1.78v1.808h1.78V50.49zm3.56 0h-1.78v1.808h1.78V50.49zm1.78 0h-1.78v1.808h1.78V50.49z" fill="#000"/><path d="M14.092 50.489h-1.78v1.808h1.78V50.49zm3.56 0h-1.78v1.808h1.78V50.49zm3.559 0h-1.78v1.808h1.78V50.49zm7.119 0h-1.78v1.808h1.78V50.49zm7.12 0h-1.78v1.808h1.78V50.49z" fill="#000"/><path d="M37.23 50.489h-1.78v1.808h1.78V50.49zm5.338 0h-1.78v1.808h1.78V50.49zm1.78 0h-1.78v1.808h1.78V50.49zm1.78 0h-1.78v1.808h1.78V50.49zm1.78 0h-1.78v1.808h1.78V50.49zm3.559 0h-1.78v1.808h1.78V50.49zm3.559 0h-1.78v1.808h1.78V50.49zM6.973 52.297h-1.78v1.809h1.78v-1.809zm3.56 0h-1.78v1.809h1.78v-1.809zm1.78 0h-1.78v1.809h1.78v-1.809z" fill="#000"/><path d="M14.092 52.297h-1.78v1.809h1.78v-1.809zm3.56 0h-1.78v1.809h1.78v-1.809zm7.118 0h-1.779v1.809h1.78v-1.809zm3.56 0h-1.78v1.809h1.78v-1.809zm1.78 0h-1.78v1.809h1.78v-1.809zm1.78 0h-1.78v1.809h1.78v-1.809zm5.34 0h-1.78v1.809h1.78v-1.809z" fill="#000"/><path d="M39.009 52.297h-1.78v1.809h1.78v-1.809zm1.78 0h-1.78v1.809h1.78v-1.809z" fill="#000"/><path d="M42.568 52.297h-1.78v1.809h1.78v-1.809zm1.78 0h-1.78v1.809h1.78v-1.809zm5.339 0h-1.78v1.809h1.78v-1.809zm3.56 0h-1.78v1.809h1.78v-1.809zM6.973 54.106h-1.78v1.808h1.78v-1.808zm10.679 0h-1.78v1.808h1.78v-1.808zm3.559 0h-1.78v1.808h1.78v-1.808zm3.559 0h-1.779v1.808h1.78v-1.808zm5.34 0h-1.78v1.808h1.78v-1.808zm1.78 0h-1.78v1.808h1.78v-1.808zm1.78 0h-1.78v1.808h1.78v-1.808zm1.78 0h-1.78v1.808h1.78v-1.808z" fill="#000"/><path d="M37.23 54.106h-1.78v1.808h1.78v-1.808zm7.118 0h-1.78v1.808h1.78v-1.808zm1.78 0h-1.78v1.808h1.78v-1.808zm3.559 0h-1.78v1.808h1.78v-1.808zm1.78 0h-1.78v1.808h1.78v-1.808zm3.559 0h-1.78v1.808h1.78v-1.808zm1.78 0h-1.78v1.808h1.78v-1.808zM6.973 55.914h-1.78v1.808h1.78v-1.808zm1.78 0h-1.78v1.808h1.78v-1.808zm1.78 0h-1.78v1.808h1.78v-1.808zm1.78 0h-1.78v1.808h1.78v-1.808z" fill="#000"/><path d="M14.092 55.914h-1.78v1.808h1.78v-1.808zm1.78 0h-1.78v1.808h1.78v-1.808zm1.78 0h-1.78v1.808h1.78v-1.808zm3.559 0h-1.78v1.808h1.78v-1.808zm1.78 0h-1.78v1.808h1.78v-1.808zm3.559 0h-1.78v1.808h1.78v-1.808zm3.56 0h-1.78v1.808h1.78v-1.808zm1.78 0h-1.78v1.808h1.78v-1.808zm12.458 0h-1.78v1.808h1.78v-1.808zm3.56 0h-1.78v1.808h1.78v-1.808z" fill="#000"/><path d="M49.687 55.914h-1.78v1.808h1.78v-1.808zm3.56 0h-1.78v1.808h1.78v-1.808z" fill="#000"/><path fill="#fff" fill-opacity=".8" d="M0 29h62v34H0z" filter="url(#filter0_b_2336_1586)"/></g><rect x=".209" y=".209" width="61.581" height="62.581" rx="1.466" stroke="#F2F2F2" stroke-width=".419"/><defs><filter id="filter0_b_2336_1586" x="-5" y="24" width="72" height="44" filterUnits="userSpaceOnUse" color-interpolation-filters="sRGB"><feFlood flood-opacity="0" result="BackgroundImageFix"/><feGaussianBlur in="BackgroundImageFix" stdDeviation="2.5"/><feComposite in2="SourceAlpha" operator="in" result="effect1_backgroundBlur_2336_1586"/><feBlend mode="normal" in="SourceGraphic" in2="effect1_backgroundBlur_2336_1586" result="shape"/></filter><clipPath id="clip0_2336_1586"><rect width="62" height="63" rx="1.675" fill="#fff"/></clipPath></defs></svg>