<svg width="100" height="100" viewBox="0 0 100 100" fill="none" xmlns="http://www.w3.org/2000/svg"><path d="M77 12a1 1 0 1 0 0 2 1 1 0 0 0 0-2z" fill="#F1BC19"/><path d="M50 13a37 37 0 1 0 0 74 37 37 0 0 0 0-74z" fill="#FEF1F2"/><path d="M83 11a4 4 0 1 0 0 8 4 4 0 0 0 0-8z" fill="#F1BC19"/><path d="M87 22a2 2 0 1 0 0 4 2 2 0 0 0 0-4z" fill="#88AE45"/><path d="M81 74a2 2 0 1 0 0 4 2 2 0 0 0 0-4zM15 59a4 4 0 1 0 0 8 4 4 0 0 0 0-8z" fill="#FBCD59"/><path d="M25 85a2 2 0 1 0 0 4 2 2 0 0 0 0-4z" fill="#88AE45"/><path d="M18.5 49a2.5 2.5 0 1 0 0 5 2.5 2.5 0 0 0 0-5zm61-17a1.5 1.5 0 1 0 0 3 1.5 1.5 0 0 0 0-3z" fill="#fff"/><path d="M35 72.3c-4.026 0-7.3-3.275-7.3-7.3V35c0-4.026 3.273-7.3 7.3-7.3h30c4.024 0 7.3 3.273 7.3 7.3v30c0 4.024-3.275 7.3-7.3 7.3H35z" fill="#EA5167"/><path d="M65 28.4c3.639 0 6.6 2.961 6.6 6.6v30c0 3.639-2.961 6.6-6.6 6.6H35a6.608 6.608 0 0 1-6.6-6.6V35c0-3.639 2.961-6.6 6.6-6.6h30zm0-1.4H35c-4.4 0-8 3.6-8 8v30c0 4.4 3.6 8 8 8h30c4.4 0 8-3.6 8-8V35c0-4.4-3.6-8-8-8z" fill="#472B29"/><path d="M68.5 47.875V64c0 2.475-2.025 4.5-4.5 4.5H36a4.513 4.513 0 0 1-4.5-4.5V36c0-2.475 2.025-4.5 4.5-4.5h28c2.475 0 4.5 2.025 4.5 4.5v11.875z" fill="#EA5167"/><path d="M68.5 47.375a.5.5 0 0 1-.5-.5V43a.5.5 0 0 1 1 0v3.875a.5.5 0 0 1-.5.5zm0-6.875a.5.5 0 0 1-.5-.5v-2a.5.5 0 0 1 1 0v2a.5.5 0 0 1-.5.5z" fill="#472B29"/><path d="M64 69H36c-2.757 0-5-2.243-5-5V36c0-2.757 2.243-5 5-5h25.375a.5.5 0 0 1 0 1H36c-2.206 0-4 1.794-4 4v28c0 2.206 1.794 4 4 4h28c2.206 0 4-1.794 4-4V49.625a.5.5 0 0 1 1 0V64c0 2.757-2.243 5-5 5z" fill="#472B29"/><path d="M52.702 60.131c0 .753-.262 1.392-.786 1.915a2.57 2.57 0 0 1-1.882.788 2.66 2.66 0 0 1-1.932-.788 2.576 2.576 0 0 1-.805-1.915c0-.729.269-1.363.805-1.899a2.632 2.632 0 0 1 1.932-.803c.729 0 1.357.267 1.882.803.525.536.786 1.169.786 1.899zM48.972 55c-.113-2.486-.255-4.573-.426-6.261a96.49 96.49 0 0 0-.512-4.258c-.171-1.153-.32-2.092-.445-2.823a11.846 11.846 0 0 1-.188-1.984c0-1.095.245-1.842.735-2.241s1.147-.599 1.967-.599c.799 0 1.43.205 1.899.615.468.411.702 1.129.702 2.156 0 .593-.057 1.265-.171 2.017-.114.753-.256 1.705-.427 2.858a131.041 131.041 0 0 0-.547 4.258c-.195 1.688-.372 3.775-.53 6.261L48.973 55z" fill="#fff"/><path d="M50.034 63.085a2.91 2.91 0 0 1-2.107-.86 2.827 2.827 0 0 1-.88-2.093c0-.795.295-1.493.878-2.075a2.885 2.885 0 0 1 2.109-.877c.796 0 1.49.296 2.06.879.57.58.858 1.277.858 2.073 0 .819-.29 1.523-.86 2.092a2.822 2.822 0 0 1-2.058.86zm0-5.405c-.69 0-1.265.239-1.755.73-.493.492-.732 1.055-.732 1.722 0 .689.239 1.258.729 1.736a2.399 2.399 0 0 0 1.758.717c.667 0 1.225-.233 1.705-.715.48-.48.713-1.047.713-1.738 0-.67-.234-1.233-.715-1.724-.48-.49-1.037-.728-1.703-.728zm1.229-2.43h-2.53l-.01-.237c-.114-2.477-.257-4.578-.426-6.247a95.133 95.133 0 0 0-.511-4.247c-.171-1.15-.32-2.088-.444-2.817a12.157 12.157 0 0 1-.191-2.026c0-1.168.278-1.987.828-2.435.534-.435 1.249-.655 2.125-.655.857 0 1.55.228 2.064.678.522.458.787 1.247.787 2.344 0 .602-.06 1.292-.174 2.054-.114.753-.256 1.705-.427 2.858a129.607 129.607 0 0 0-.545 4.249c-.194 1.676-.372 3.778-.53 6.248l-.016.233zm-1.16-18.165c-.758 0-1.367.183-1.81.543-.426.348-.642 1.036-.642 2.047 0 .574.062 1.229.185 1.942.125.73.274 1.673.446 2.828a96.31 96.31 0 0 1 .513 4.27c.165 1.625.305 3.654.417 6.036l1.583-.001c.154-2.378.328-4.41.516-6.04.19-1.661.375-3.096.548-4.266.17-1.153.313-2.105.427-2.858a13.52 13.52 0 0 0 .168-1.98c0-.945-.208-1.607-.617-1.968-.42-.367-1.002-.553-1.734-.553z" fill="#472B29"/></svg>