<svg width="178" height="179" viewBox="0 0 178 179" fill="none" xmlns="http://www.w3.org/2000/svg"><path d="M49.984 13.983c-1.014-1.962-.248-4.384 1.758-5.309a89 89 0 0 1 78.378 1.895c1.959 1.02 2.607 3.476 1.499 5.388l-4.913 8.479c-1.108 1.911-3.551 2.552-5.522 1.553a71.194 71.194 0 0 0-61.262-1.48c-2.017.902-4.426.144-5.44-1.819l-4.498-8.707z" fill="#FB3B52"/><path d="M135.032 18.044c1.197-1.858 3.678-2.4 5.48-1.122a89.002 89.002 0 0 1 32.336 102.418c-.74 2.082-3.084 3.062-5.129 2.228l-9.076-3.697c-2.046-.833-3.017-3.165-2.3-5.254a71.197 71.197 0 0 0-25.484-80.713c-1.787-1.298-2.33-3.765-1.134-5.622l5.307-8.238z" fill="#5654D4"/><path d="M166.395 124.642c2.012.914 2.91 3.29 1.907 5.258a88.993 88.993 0 0 1-61.438 46.789 88.999 88.999 0 0 1-92.147-136.21 89.001 89.001 0 0 1 26.918-26.328c1.87-1.176 4.317-.495 5.407 1.427L51.88 24.1c1.09 1.921.41 4.353-1.447 5.55a71.198 71.198 0 0 0-9.463 112.41 71.198 71.198 0 0 0 111.105-19.529c1.024-1.957 3.385-2.854 5.397-1.94l8.923 4.051z" fill="#3FC8E4"/></svg>