<svg width="11" height="5" viewBox="0 0 11 5" fill="none" xmlns="http://www.w3.org/2000/svg"><path d="M5.501 3.042a.542.542 0 1 0 0-1.083.542.542 0 0 0 0 1.083zm3.792 0a.542.542 0 1 0 0-1.083.542.542 0 0 0 0 1.083zm-7.583 0a.542.542 0 1 0 0-1.083.542.542 0 0 0 0 1.083z" fill="#030F1A"/><path d="M5.501 3.042a.542.542 0 1 0 0-1.083.542.542 0 0 0 0 1.083zm3.792 0a.542.542 0 1 0 0-1.083.542.542 0 0 0 0 1.083zm-7.583 0a.542.542 0 1 0 0-1.083.542.542 0 0 0 0 1.083z" stroke="#030F1A" stroke-width="2" stroke-linecap="round" stroke-linejoin="round"/></svg>