<svg width="656" height="610" viewBox="0 0 656 610" fill="none" xmlns="http://www.w3.org/2000/svg"><g clip-path="url(#clip0_8401_111006)"><g clip-path="url(#clip1_8401_111006)"><path d="M642.545 22.866v160.485c0 7.897-.327 15.711-.98 23.439-10.461 125.43-104.147 227.205-225.692 249.947a278.83 278.83 0 0 1-51.491 4.763h-72.228a279.099 279.099 0 0 1-56.155-5.674c-126.699-25.974-222-138.094-222-272.475V22.866h628.546z" fill="#E2E2E2"/><path d="M630.239 213.467s-19.78 123.507-112.899 186.076l-29.1-43.648s58.452-34.259 93.28-142.428h48.719zM19.964 177.278s5.843 143.731 107.064 216.208l35.318-41.082s-82.2-51.305-88.463-175.095l-53.919-.031zM73.89 29.214H19.964v118.782H73.89V29.214z" fill="#FFD2FF"/><path d="M556.571 196.958l-.912-.183-32.928-6.555c-3.025 25.369-6.594 47.79-16.197 66.359-18.378 35.492-39.055 48.38-39.055 48.38l19.666 26.855c55.075-48.327 68.882-98.177 72.343-121.072.13-.873.138-.912.245-1.708l-3.522-.054.36-12.022zM98.227 177.386s-4.112 83.037 67.841 151.617l21.495-26.985s-25.799-18.531-40.648-55.639c-7.772-19.411-11.709-44.344-10.376-71.359l-38.312 2.366z" fill="#E6D6F5"/><path d="M129.417 208.681l-20.783 2.389a180.252 180.252 0 0 1-2.297-27.865l23.088-1.379m-14.144 56.613a154.463 154.463 0 0 1-5.468-21.441m17.215 49.267a180.883 180.883 0 0 1-10.369-23.738m24.528 46.536a179.703 179.703 0 0 1-12.107-18.999m48.29 31.955l-11.907 14.472c-5.859-5.827-16.687-17.413-21.695-23.975" stroke="#D1B9ED" stroke-width="5.588" stroke-miterlimit="10"/><path d="M83.248 147.437V24.665m85.17 318.902a240.253 240.253 0 0 1-83.822-166.289M570.914 21.602V160.47a240.227 240.227 0 0 1-82.705 181.635" stroke="#C1C1C1" stroke-width=".798" stroke-miterlimit="10"/><path d="M497.039 285.019l13.462 10.988a209.189 209.189 0 0 1-18.807 21.02l-12.636-15.223m33.051-40.003l15.262 9.043a209.732 209.732 0 0 1-13.868 21.242m29.207-55.225a194.778 194.778 0 0 1-11.778 25.951m3.056-59.575l17.437 3.982a205.872 205.872 0 0 1-7.107 25.729" stroke="#D1B9ED" stroke-width="5.588" stroke-miterlimit="10"/><path d="M30.708 140.347V39.751h35.379m5.567 208.696l-25.523 8.959a232.346 232.346 0 0 1-13.417-70.609m44.768 136.509a232.602 232.602 0 0 1-29.498-61.083m98.38 92.555l-21.243 23.325c-18.149-14.136-31.037-30.875-44.285-49.628l27.063-18.6m454.89 32.452a237.943 237.943 0 0 1-40.403 38.027l-17.735-30.569m93.042-63.058a237.251 237.251 0 0 1-31.994 52.07l-27.277-22.114m48.259-88.33l28.587-.222a234.892 234.892 0 0 1-15.737 54.368L568.9 273.31" stroke="#F9B1F6" stroke-width="5.588" stroke-miterlimit="10"/><path d="M621.157 34.889v133.905" stroke="#D8D8D8" stroke-width="5.588" stroke-miterlimit="10"/><path d="M137.389 142.882l-39.82-.414V34.888h79.028l-.115 63.297h-38.833l-.26 44.697z" fill="#E6D6F5"/><path d="M396.308 22.866a65.972 65.972 0 0 1-19.336 44.107 66.048 66.048 0 0 1-46.82 19.389h-7.061a66.205 66.205 0 0 1-66.156-63.496h139.373z" fill="#5A6064"/><path d="M416.854 22.866a84.79 84.79 0 0 1-84.673 80.51h-12.497a84.787 84.787 0 0 1-84.673-80.51h181.843z" stroke="#605F5F" stroke-width=".798" stroke-miterlimit="10"/><path d="M470.581 362.865a54.702 54.702 0 0 1-54.708 54.712v39.16a278.83 278.83 0 0 1-51.491 4.763h-72.228a279.099 279.099 0 0 1-56.155-5.674v-38.249a54.72 54.72 0 0 1-50.044-32.587 54.716 54.716 0 0 1 9.571-58.945 54.713 54.713 0 0 1 94.943 31.666h70.934a54.706 54.706 0 0 1 57.05-49.553 54.708 54.708 0 0 1 52.128 54.707z" fill="#5A6064"/><path d="M552.811 105.283H524.04v33.18h28.771v-33.18zm0 43.388H524.04v33.18h28.771v-33.18zm-39.89-43.189v82.333c0 4.319-.199 8.592-.574 12.811-3.607 40.324-20.608 73.213-51.4 98.429-10.024-11.708-28.448-16.594-45.074-16.172-45.487 1.156-70.253 21.762-72.848 49.559h-34.943c-6.218-38.9-43.604-49.559-72.083-49.559-15.392 0-26.749-1.478-42.961 13.278-32.247-27.766-48.726-64.2-48.726-108.346v-82.333h110.272c15.477 16.609 40.587 21.633 65.092 21.633h12.497c24.505 0 48.084-5.024 63.56-21.633h117.188z" fill="#E6D6F5"/><path d="M316.345 136.802h-60.199v22.382h60.199v-22.382zm80.767 0h-60.198v22.382h60.198v-22.382zm-29.59 56.419H318.88v22.382h48.642v-22.382zm-67.504 0h-48.642v22.382h48.642v-22.382zm-66.263 0h-48.642v22.382h48.642v-22.382zm140.376 46.198h-48.643v22.383h48.643v-22.383zm-61.416 0h-48.643v22.383h48.643v-22.383zm-65.505 0h-48.643v22.383h48.643v-22.383zm-76.762-102.617v45.485h22.384v-45.485h-22.384zm272.894 0h-22.384v22.382h22.384v-22.382zm39.974-.337h-22.384v22.383h22.384v-22.383zm64.402-25.975h-18.593v22.904h18.593V110.49zm-64.402 55.249h-22.384v22.383h22.384v-22.383zm64.226-11.877h-18.241v22.398h18.241v-22.398zm-104.2 39.359h-22.384v22.382h22.384v-22.382zm-36.099 0h-22.384v22.382h22.384v-22.382zm4.978 46.198h-22.384v22.383h22.384v-22.383z" fill="#DFCDF7"/><path d="M130.252 134.236l-24.85-.391V42.852h62.274l-.115 52.377" stroke="#D1B9ED" stroke-width="5.588" stroke-miterlimit="10"/><path d="M642.545 22.866v160.485c0 7.897-.327 15.711-.98 23.439h-83.31V98.484H422.957V22.866h219.588z" fill="#FCC3D2"/><path d="M584.131 191.537h44.99v-42.483h-44.99m0-16.281h44.99V91.086h-44.99m26.481-20.269h18.509V36.825H565.66v33.992h23.357m-38.818 1.891V36.825H497.23m-60.895 47.836V60.747h49.278v23.914m2.298-47.836h-49.279" stroke="#F1A1B1" stroke-width="5.588" stroke-miterlimit="10"/><path d="M0 228.124c2.336 26.074 15.316 71.704 43.956 119.311 8.04 13.347 44.101 70.885 117.425 107.204 59.608 29.527 113.642 27.337 164.107 27.337 57.809 0 101.436.812 154.321-21.594 69.295-29.366 108.741-78.42 123.589-99.057a298.387 298.387 0 0 0 53.299-133.193v361.064H0V228.124z" fill="#fff"/><path d="M39.1 435.656H0v127.941h39.1V435.656zm617.911 0H617.91v127.941h39.101V435.656zm-400.099 44.421v39.099h127.947v-39.099H256.912z" fill="#A0A0A0"/><path d="M280.886 504.562c-.346 0-.613-.09-.802-.268-.178-.188-.267-.455-.267-.801v-8.939c0-.346.089-.608.267-.786.189-.188.456-.282.802-.282h5.608c.262 0 .461.068.597.204.147.136.22.33.22.581 0 .262-.073.466-.22.613-.136.136-.335.204-.597.204h-4.744v3.048h4.399c.272 0 .476.068.612.204.137.136.205.335.205.597 0 .262-.068.461-.205.597-.136.136-.34.204-.612.204h-4.399v3.221h4.744c.262 0 .461.068.597.204.147.136.22.335.22.597 0 .262-.073.461-.22.597-.136.136-.335.205-.597.205h-5.608zm9.248.125c-.304 0-.539-.084-.707-.251-.157-.168-.236-.409-.236-.723v-9.348c0-.324.079-.57.236-.738a.846.846 0 0 1 .644-.267c.241 0 .419.047.534.141.126.084.273.231.44.44l6.017 7.808h-.408v-7.431c0-.304.079-.539.236-.707.167-.167.403-.251.707-.251.303 0 .534.084.691.251.157.168.236.403.236.707v9.427c0 .293-.074.523-.22.691-.147.167-.346.251-.597.251-.241 0-.435-.047-.582-.141a2.283 2.283 0 0 1-.455-.456l-6.002-7.808h.393v7.431c0 .314-.079.555-.236.723-.157.167-.387.251-.691.251zm14.486 0c-.325 0-.576-.089-.754-.267-.168-.188-.251-.445-.251-.77v-8.483h-3.064c-.272 0-.487-.074-.644-.22-.147-.157-.22-.367-.22-.629 0-.272.073-.476.22-.612.157-.147.372-.22.644-.22h8.138c.272 0 .482.073.628.22.158.136.236.34.236.612 0 .262-.078.472-.236.629-.146.146-.356.22-.628.22h-3.064v8.483c0 .325-.083.582-.251.77-.167.178-.419.267-.754.267zm7.087 0c-.325 0-.576-.089-.754-.267-.168-.188-.252-.445-.252-.77v-9.143c0-.335.089-.587.268-.754.178-.178.429-.267.754-.267h3.786c1.215 0 2.152.293 2.812.879.66.576.99 1.388.99 2.435 0 .681-.152 1.268-.456 1.76-.293.492-.722.869-1.288 1.131-.566.262-1.252.393-2.058.393l.141-.236h.519c.429 0 .801.105 1.115.315.325.209.608.539.849.989l1.178 2.184c.126.22.183.435.173.644a.73.73 0 0 1-.236.519c-.147.125-.361.188-.644.188-.283 0-.513-.057-.691-.173a1.612 1.612 0 0 1-.472-.565l-1.586-2.922c-.189-.356-.414-.592-.676-.707-.251-.126-.576-.189-.974-.189h-1.493v3.519c0 .325-.083.582-.251.77-.168.178-.419.267-.754.267zm1.005-6.048h2.451c.723 0 1.268-.147 1.634-.44.377-.304.566-.754.566-1.351 0-.587-.189-1.027-.566-1.32-.366-.304-.911-.456-1.634-.456h-2.451v3.567zm8.67 6.048c-.251 0-.455-.057-.612-.173a.703.703 0 0 1-.267-.455c-.032-.199.005-.419.11-.66l4.147-9.191c.136-.303.299-.518.487-.644a1.17 1.17 0 0 1 .676-.204c.241 0 .455.068.644.204.199.126.366.341.503.644l4.163 9.191c.115.241.157.461.126.66a.718.718 0 0 1-.268.471c-.146.105-.34.157-.581.157-.293 0-.523-.068-.691-.204-.157-.147-.299-.367-.424-.66l-1.021-2.372.848.55h-6.63l.848-.55-1.005 2.372c-.136.304-.278.524-.424.66-.147.136-.356.204-.629.204zm4.509-9.018l-2.199 5.232-.409-.503h5.248l-.393.503-2.215-5.232h-.032zm8.015 9.018c-.304 0-.54-.084-.707-.251-.157-.168-.236-.409-.236-.723v-9.348c0-.324.079-.57.236-.738a.844.844 0 0 1 .644-.267c.241 0 .419.047.534.141.126.084.273.231.44.44l6.017 7.808h-.408v-7.431c0-.304.078-.539.235-.707.168-.167.404-.251.707-.251.304 0 .535.084.692.251.157.168.235.403.235.707v9.427c0 .293-.073.523-.22.691-.146.167-.345.251-.597.251-.24 0-.434-.047-.581-.141a2.31 2.31 0 0 1-.456-.456l-6.001-7.808h.393v7.431c0 .314-.079.555-.236.723-.157.167-.387.251-.691.251zm15.963.032c-1.153 0-2.142-.231-2.97-.692a4.771 4.771 0 0 1-1.885-1.979c-.44-.859-.66-1.87-.66-3.032 0-.87.126-1.65.377-2.341a4.987 4.987 0 0 1 1.084-1.791 4.598 4.598 0 0 1 1.728-1.147c.692-.272 1.467-.409 2.326-.409.576 0 1.141.074 1.696.22a5.028 5.028 0 0 1 1.461.629c.22.136.367.304.44.503a.948.948 0 0 1 .047.565.873.873 0 0 1-.267.456.783.783 0 0 1-.487.22c-.188.01-.398-.058-.628-.205a3.5 3.5 0 0 0-1.053-.455 4.723 4.723 0 0 0-1.147-.142c-.743 0-1.372.152-1.885.456a2.863 2.863 0 0 0-1.162 1.32c-.262.576-.393 1.283-.393 2.121 0 .827.131 1.534.393 2.121.261.586.649 1.031 1.162 1.335.513.304 1.142.456 1.885.456a4.99 4.99 0 0 0 1.179-.142 4.27 4.27 0 0 0 1.099-.471c.231-.136.435-.194.613-.173a.73.73 0 0 1 .471.189c.126.115.21.261.252.44a.94.94 0 0 1-.032.534.988.988 0 0 1-.377.471 4.783 4.783 0 0 1-1.508.707 6.658 6.658 0 0 1-1.759.236zm6.593-.157c-.345 0-.613-.09-.801-.268-.178-.188-.267-.455-.267-.801v-8.939c0-.346.089-.608.267-.786.188-.188.456-.282.801-.282h5.609c.262 0 .461.068.597.204.146.136.22.33.22.581 0 .262-.074.466-.22.613-.136.136-.335.204-.597.204h-4.745v3.048h4.399c.273 0 .477.068.613.204.136.136.204.335.204.597 0 .262-.068.461-.204.597-.136.136-.34.204-.613.204h-4.399v3.221h4.745c.262 0 .461.068.597.204.146.136.22.335.22.597 0 .262-.074.461-.22.597-.136.136-.335.205-.597.205h-5.609zM23.127 552.194c0 1.054-.211 1.959-.633 2.716a4.364 4.364 0 0 1-1.81 1.724c-.786.403-1.71.604-2.773.604-.796 0-1.51-.115-2.141-.345a4.556 4.556 0 0 1-1.638-.992 4.198 4.198 0 0 1-1.05-1.58c-.249-.633-.373-1.341-.373-2.127 0-.527.067-1.044.201-1.552s.326-.953.575-1.336a.927.927 0 0 1 .46-.403.878.878 0 0 1 .517-.043.81.81 0 0 1 .417.245.713.713 0 0 1 .2.445c.01.173-.052.364-.186.575-.192.297-.33.618-.417.963a4.31 4.31 0 0 0-.129 1.049c0 .68.139 1.254.417 1.724.277.469.68.824 1.207 1.063.527.24 1.173.359 1.94.359.756 0 1.403-.119 1.94-.359a2.609 2.609 0 0 0 1.22-1.063c.279-.47.418-1.044.418-1.724 0-.364-.044-.724-.13-1.078a3.88 3.88 0 0 0-.43-1.006c-.125-.211-.178-.398-.159-.56a.668.668 0 0 1 .173-.431.768.768 0 0 1 .402-.23.86.86 0 0 1 .489.028.919.919 0 0 1 .43.345c.278.383.494.843.647 1.38.144.527.216 1.063.216 1.609zm-.029-5.973c0 .297-.081.527-.244.69-.173.153-.407.229-.704.229h-8.464c-.306 0-.541-.076-.704-.229-.163-.163-.244-.393-.244-.69 0-.297.081-.522.244-.676.163-.162.398-.244.704-.244h3.391v-5.216h-3.391c-.306 0-.541-.077-.704-.23-.163-.163-.244-.393-.244-.69 0-.297.081-.522.244-.675.163-.163.398-.244.704-.244h8.464c.297 0 .531.081.704.244.163.153.244.378.244.675 0 .297-.081.527-.244.69-.173.153-.407.23-.704.23h-3.535v5.216h3.535c.297 0 .531.077.704.23.163.153.244.383.244.69zm-.115-11.171c0 .316-.081.56-.244.732-.173.163-.417.245-.733.245H13.83c-.316 0-.556-.082-.719-.245-.172-.172-.258-.416-.258-.732v-5.13c0-.24.062-.422.186-.546.125-.135.302-.202.532-.202.24 0 .426.067.56.202.125.124.187.306.187.546v4.339h2.788v-4.023c0-.249.062-.436.187-.561.124-.124.306-.186.546-.186.24 0 .421.062.546.186.124.125.187.312.187.561v4.023h2.945v-4.339c0-.24.063-.422.187-.546.125-.135.307-.202.546-.202.24 0 .422.067.546.202.125.124.187.306.187.546v5.13zm.144-12.296c0 1.053-.211 1.959-.633 2.715a4.366 4.366 0 0 1-1.81 1.725c-.786.402-1.71.603-2.773.603-.796 0-1.51-.115-2.141-.345a4.554 4.554 0 0 1-1.638-.991 4.194 4.194 0 0 1-1.05-1.581c-.249-.632-.373-1.341-.373-2.126 0-.527.067-1.045.201-1.552a4.58 4.58 0 0 1 .575-1.337.92.92 0 0 1 .46-.402.87.87 0 0 1 .517-.043c.163.038.302.12.417.244a.715.715 0 0 1 .2.446c.01.172-.052.364-.186.574-.192.297-.33.618-.417.963a4.323 4.323 0 0 0-.129 1.049c0 .68.139 1.255.417 1.724.277.47.68.824 1.207 1.064.527.239 1.173.359 1.94.359.756 0 1.403-.12 1.94-.359.536-.24.943-.594 1.22-1.064.279-.469.418-1.044.418-1.724a4.55 4.55 0 0 0-.13-1.078 3.91 3.91 0 0 0-.43-1.006c-.125-.21-.178-.397-.159-.56a.673.673 0 0 1 .173-.431.768.768 0 0 1 .402-.23.86.86 0 0 1 .489.029.907.907 0 0 1 .43.345c.278.383.494.843.647 1.379a6.09 6.09 0 0 1 .216 1.61zm-.029-5.974c0 .297-.081.527-.244.69-.173.153-.407.23-.704.23h-8.478c-.307 0-.537-.077-.69-.23-.163-.163-.244-.393-.244-.69 0-.297.081-.522.244-.675.153-.163.383-.244.69-.244h3.664v-.029l-4.139-4.124a1.802 1.802 0 0 1-.344-.46 1.14 1.14 0 0 1-.115-.517c0-.278.072-.474.215-.589a.596.596 0 0 1 .503-.144c.192.019.369.11.532.273l4.152 4.196-.833-.015 4.455-4.382c.191-.201.392-.307.603-.316.21-.01.388.057.532.201.134.134.201.335.201.603 0 .23-.048.417-.144.561a3.975 3.975 0 0 1-.416.474l-4.24 4.239v.029h3.852c.297 0 .531.076.704.23.163.153.244.383.244.689zm0-13.457c0 .297-.081.527-.244.69-.173.153-.407.23-.704.23h-8.464c-.306 0-.541-.077-.704-.23-.163-.163-.244-.393-.244-.69 0-.297.081-.522.244-.675.163-.163.398-.245.704-.245h8.464c.297 0 .531.077.704.23.163.154.244.383.244.69zm0-3.998c0 .278-.077.493-.23.647-.153.143-.373.215-.66.215h-8.55c-.298 0-.523-.072-.676-.215a.775.775 0 0 1-.244-.589c0-.221.043-.384.129-.489.077-.115.21-.249.402-.402l7.142-5.504v.374h-6.797c-.278 0-.493-.072-.647-.216-.153-.153-.23-.369-.23-.646 0-.278.077-.489.23-.633.154-.143.37-.215.647-.215h8.622c.268 0 .479.067.632.201.153.134.23.316.23.546 0 .22-.043.398-.13.532a2.125 2.125 0 0 1-.416.416l-7.142 5.489v-.359h6.797c.287 0 .508.072.661.216.153.143.23.354.23.632zm0-13.888c0 .229-.053.416-.158.56a.648.648 0 0 1-.417.244c-.182.029-.383-.005-.603-.1l-8.406-3.794c-.278-.124-.475-.273-.59-.445a1.069 1.069 0 0 1-.186-.618c0-.221.062-.417.186-.589.115-.182.312-.336.59-.46l8.406-3.808c.22-.105.421-.144.603-.115.182.029.326.11.431.244.096.134.144.312.144.532 0 .268-.062.479-.187.632-.134.144-.335.273-.603.388l-2.17.934.503-.776v6.064l-.503-.776 2.17.92c.277.124.479.254.603.388.125.134.187.325.187.575zm-8.248-4.125l4.785 2.012-.46.374v-4.8l.46.36-4.785 2.026v.028zm8.248-7.387c0 .297-.081.526-.244.689-.173.154-.407.23-.704.23h-8.363c-.307 0-.537-.081-.69-.244-.163-.163-.244-.393-.244-.69v-3.463c0-1.111.268-1.968.804-2.572.527-.603 1.27-.905 2.227-.905.623 0 1.16.139 1.61.416.45.269.795.661 1.035 1.179.239.517.359 1.145.359 1.882l-.216-.129v-.474a1.8 1.8 0 0 1 .288-1.021c.191-.297.493-.555.905-.776l1.997-1.077a1.07 1.07 0 0 1 .59-.158.666.666 0 0 1 .474.215c.115.134.172.331.172.589 0 .259-.053.47-.158.633a1.493 1.493 0 0 1-.517.431l-2.673 1.451c-.326.172-.541.378-.647.618-.115.23-.172.527-.172.891v1.365h3.219c.297 0 .531.077.704.23.163.153.244.383.244.69zm-5.532-.92v-2.242c0-.661-.134-1.159-.403-1.494-.277-.345-.69-.517-1.235-.517-.537 0-.94.172-1.207.517-.278.335-.417.833-.417 1.494v2.242h3.262zm5.417-8.989c0 .316-.081.561-.244.733-.173.163-.417.244-.733.244H13.83c-.316 0-.556-.081-.719-.244-.172-.172-.258-.417-.258-.733v-5.13c0-.239.062-.421.186-.546.125-.134.302-.201.532-.201.24 0 .426.067.56.201.125.125.187.307.187.546v4.34h2.788v-4.024c0-.249.062-.435.187-.56.124-.125.306-.187.546-.187.24 0 .421.062.546.187.124.125.187.311.187.56v4.024h2.945v-4.34c0-.239.063-.421.187-.546.125-.134.307-.201.546-.201.24 0 .422.067.546.201.125.125.187.307.187.546v5.13zm.115-7.515c0 .23-.053.417-.158.561a.648.648 0 0 1-.417.244c-.182.029-.383-.005-.603-.101l-8.406-3.793c-.278-.125-.475-.273-.59-.446a1.069 1.069 0 0 1-.186-.618c0-.22.062-.416.186-.589.115-.182.312-.335.59-.46l8.406-3.807c.22-.106.421-.144.603-.115.182.028.326.11.431.244.096.134.144.311.144.532 0 .268-.062.479-.187.632-.134.143-.335.273-.603.388l-2.17.934.503-.776v6.064l-.503-.776 2.17.919c.277.125.479.254.603.388.125.135.187.326.187.575zm-8.248-4.124l4.785 2.012-.46.373v-4.799l.46.359-4.785 2.026v.029zm630.338 93.81c0 .325-.089.581-.267.77-.189.178-.456.267-.801.267h-9.065c-.346 0-.608-.089-.786-.267-.188-.189-.283-.456-.283-.801v-5.483c0-.273.068-.477.205-.613.136-.136.33-.204.581-.204.262 0 .466.068.613.204.136.136.204.34.204.613v4.54h3.126v-4.211c0-.261.068-.46.205-.597.136-.146.329-.219.581-.219.262 0 .466.073.613.219.136.137.204.336.204.597v4.211h3.802c.712 0 1.068.325 1.068.974zm.031-12.55c0 1.068-.235 2.006-.706 2.812a4.842 4.842 0 0 1-1.98 1.854c-.859.44-1.864.66-3.016.66-.87 0-1.65-.126-2.341-.377a5.102 5.102 0 0 1-1.791-1.069 4.658 4.658 0 0 1-1.147-1.681c-.273-.659-.409-1.393-.409-2.199 0-1.079.236-2.016.707-2.812a4.734 4.734 0 0 1 1.964-1.854c.848-.44 1.849-.66 3.001-.66.869 0 1.655.126 2.356.377a5.138 5.138 0 0 1 1.807 1.084c.503.461.89 1.021 1.163 1.681.262.65.392 1.377.392 2.184zm-1.728 0c0-.681-.157-1.257-.471-1.728-.314-.482-.77-.849-1.367-1.1-.597-.262-1.309-.393-2.136-.393-1.257 0-2.231.283-2.923.849-.691.555-1.037 1.345-1.037 2.372 0 .67.158 1.246.472 1.728.304.482.754.854 1.351 1.116.586.251 1.299.377 2.137.377 1.246 0 2.22-.283 2.922-.849.701-.565 1.052-1.356 1.052-2.372zm1.728-12.335c0 1.068-.235 2.005-.706 2.812a4.842 4.842 0 0 1-1.98 1.854c-.859.44-1.864.66-3.016.66-.87 0-1.65-.126-2.341-.378a5.085 5.085 0 0 1-1.791-1.068 4.667 4.667 0 0 1-1.147-1.681c-.273-.66-.409-1.393-.409-2.199 0-1.079.236-2.017.707-2.813a4.725 4.725 0 0 1 1.964-1.853c.848-.44 1.849-.66 3.001-.66.869 0 1.655.125 2.356.377a5.138 5.138 0 0 1 1.807 1.084c.503.461.89 1.021 1.163 1.681.262.649.392 1.377.392 2.184zm-1.728 0c0-.681-.157-1.257-.471-1.729-.314-.481-.77-.848-1.367-1.099-.597-.262-1.309-.393-2.136-.393-1.257 0-2.231.283-2.923.848-.691.555-1.037 1.346-1.037 2.373 0 .67.158 1.246.472 1.728.304.482.754.853 1.351 1.115.586.252 1.299.377 2.137.377 1.246 0 2.22-.282 2.922-.848.701-.566 1.052-1.356 1.052-2.372zm1.571-8.439c0 .345-.089.612-.267.801-.188.178-.455.267-.801.267h-8.939c-.346 0-.608-.089-.786-.267-.188-.189-.283-.456-.283-.801v-3.048c0-1.854.477-3.284 1.43-4.289.953-1.016 2.32-1.524 4.101-1.524.89 0 1.681.131 2.372.393a4.423 4.423 0 0 1 1.728 1.131c.471.492.833 1.099 1.084 1.822.241.712.361 1.535.361 2.467v3.048zm-1.665-.943v-1.98c0-.649-.078-1.209-.236-1.681a3.102 3.102 0 0 0-.722-1.194 2.996 2.996 0 0 0-1.21-.722c-.492-.157-1.063-.236-1.712-.236-1.299 0-2.268.319-2.907.958-.639.639-.958 1.598-.958 2.875v1.98h7.745zm1.791-14.331c0 .251-.058.455-.173.612a.708.708 0 0 1-.455.268c-.199.031-.419-.006-.66-.11l-9.191-4.148c-.304-.136-.518-.299-.644-.487a1.17 1.17 0 0 1-.204-.676c0-.241.068-.455.204-.644.126-.199.34-.366.644-.503l9.191-4.163c.241-.115.461-.157.66-.126a.718.718 0 0 1 .471.268c.105.146.157.34.157.581 0 .293-.068.524-.204.691-.147.157-.367.299-.66.424l-2.372 1.021.55-.848v6.63l-.55-.848 2.372 1.005c.304.136.524.278.66.424.136.147.204.356.204.629zm-9.018-4.509l5.232 2.199-.503.409v-5.248l.503.393-5.232 2.215v.032zm9.018-8.078c0 .325-.089.576-.267.754-.189.168-.445.252-.77.252h-9.143c-.336 0-.587-.089-.755-.267-.178-.178-.267-.43-.267-.754V481.2c0-1.215.294-2.152.88-2.812.576-.66 1.388-.99 2.435-.99.681 0 1.268.152 1.76.456.492.293.869.723 1.131 1.288.262.566.393 1.252.393 2.058l-.236-.141v-.518c0-.43.105-.802.314-1.116.21-.325.54-.607.99-.848l2.184-1.179c.22-.125.435-.183.644-.172.21.01.382.089.519.235.125.147.188.362.188.644 0 .283-.058.514-.173.692a1.61 1.61 0 0 1-.565.471l-2.923 1.587c-.356.188-.591.413-.706.675-.126.252-.189.576-.189.974v1.493h3.519c.325 0 .581.084.77.251.178.168.267.419.267.754zm-6.049-1.005v-2.451c0-.723-.146-1.267-.439-1.634-.304-.377-.755-.565-1.352-.565-.586 0-1.026.188-1.319.565-.304.367-.456.911-.456 1.634v2.451h3.566zm5.923-9.828c0 .346-.089.613-.267.801-.188.178-.455.267-.801.267h-8.939c-.346 0-.608-.089-.786-.267-.188-.188-.283-.455-.283-.801v-5.609c0-.261.068-.46.205-.597.136-.146.33-.22.581-.22.262 0 .466.074.613.22.136.137.204.336.204.597v4.745h3.048v-4.399c0-.272.068-.476.204-.613.136-.136.335-.204.597-.204.262 0 .461.068.597.204.136.137.204.341.204.613v4.399h3.221v-4.745c0-.261.068-.46.204-.597.136-.146.335-.22.597-.22.262 0 .461.074.597.22.136.137.204.336.204.597v5.609zm.126-8.216c0 .251-.058.455-.173.612a.708.708 0 0 1-.455.268c-.199.031-.419-.006-.66-.11l-9.191-4.148c-.304-.136-.518-.299-.644-.487a1.17 1.17 0 0 1-.204-.676c0-.241.068-.455.204-.644.126-.199.34-.366.644-.503l9.191-4.163c.241-.115.461-.157.66-.125.199.031.356.12.471.267.105.146.157.34.157.581 0 .293-.068.524-.204.691-.147.157-.367.299-.66.424l-2.372 1.022.55-.849v6.63l-.55-.848 2.372 1.005c.304.136.524.278.66.424.136.147.204.356.204.629zm-9.018-4.509l5.232 2.199-.503.409v-5.248l.503.393-5.232 2.215v.032z" fill="#fff"/></g><path d="M298.277 55.94V36.355h8.072c1.207 0 2.285.108 3.235.326.949.198 1.76.514 2.433.95.692.415 1.217.95 1.573 1.602.356.653.534 1.434.534 2.345 0 .751-.158 1.424-.475 2.017-.316.574-.821 1.039-1.513 1.395-.693.356-1.593.603-2.701.742v.445c1.88.119 3.264.584 4.155 1.395.89.791 1.335 1.87 1.335 3.235 0 1.127-.297 2.077-.89 2.848-.594.752-1.474 1.326-2.641 1.722-1.148.375-2.582.563-4.303.563h-8.814zm4.095-3.442h4.689c.495 0 .96-.03 1.395-.089.435-.08.831-.198 1.187-.356.356-.178.623-.425.801-.742.198-.316.297-.712.297-1.187 0-.435-.079-.801-.238-1.098a2.062 2.062 0 0 0-.652-.772 3.487 3.487 0 0 0-1.009-.534 4.86 4.86 0 0 0-1.276-.267c-.455-.06-.94-.089-1.455-.089h-3.739v5.134zm0-7.834h3.057c.653 0 1.246-.04 1.78-.119.554-.08 1.029-.208 1.425-.386.415-.198.732-.455.95-.771.237-.337.356-.752.356-1.247 0-.474-.099-.86-.297-1.157a2.022 2.022 0 0 0-.831-.742 4.395 4.395 0 0 0-1.246-.386 8.485 8.485 0 0 0-1.455-.118h-3.739v4.926zm14.067 11.276l6.677-19.585h6.202l6.707 19.585h-4.659l-4.926-16.202h-.416l-4.956 16.202h-4.629zm3.739-3.828v-2.938h12.701v2.938h-12.701zm18.468 3.828V36.355h7.953c.95 0 1.84.079 2.671.237a9.407 9.407 0 0 1 2.256.653 6.23 6.23 0 0 1 1.78 1.128c.514.455.9.999 1.157 1.632.258.613.386 1.315.386 2.107 0 .692-.109 1.315-.326 1.87a3.975 3.975 0 0 1-.95 1.483c-.435.415-.989.762-1.662 1.039-.653.257-1.414.435-2.285.534v.415c1.009.119 1.82.356 2.434.712a3.728 3.728 0 0 1 1.424 1.455c.356.613.663 1.375.92 2.285l1.157 4.035h-4.718l-.89-3.709c-.178-.791-.436-1.415-.772-1.87a2.63 2.63 0 0 0-1.276-.95c-.494-.177-1.098-.266-1.81-.266h-3.175v6.795h-4.274zm4.274-10.03h2.759c.337 0 .713-.01 1.128-.03.416-.02.831-.079 1.246-.178a3.559 3.559 0 0 0 1.158-.474 2.41 2.41 0 0 0 .86-.92c.238-.396.357-.9.357-1.514 0-.633-.109-1.147-.327-1.543a2.503 2.503 0 0 0-.831-.92 3.674 3.674 0 0 0-1.068-.475 5.476 5.476 0 0 0-1.068-.178c-.337-.02-.604-.03-.802-.03h-3.412v6.262zm-77.41 359.88v-3.112h5.037c.616 0 1.187-.097 1.715-.291a3.415 3.415 0 0 0 1.398-.923c.404-.439.712-1.011.923-1.714.229-.721.343-1.592.343-2.611 0-.985-.106-1.829-.317-2.533-.193-.721-.501-1.31-.923-1.767a3.41 3.41 0 0 0-1.556-1.028c-.615-.211-1.336-.317-2.163-.317h-4.457v-3.112h4.325c2.11 0 3.834.343 5.17 1.028 1.336.686 2.312 1.671 2.928 2.954.633 1.267.949 2.788.949 4.564 0 1.371-.167 2.558-.501 3.56-.316 1.003-.756 1.847-1.319 2.533a7.173 7.173 0 0 1-1.872 1.635 7.946 7.946 0 0 1-2.242.87c-.774.176-1.539.264-2.295.264h-5.143zm-1.794 0v-17.408h3.798v17.408h-3.798zm16.61.185l-.264-3.482c.194.035.387.062.581.079h.448c.739 0 1.301-.105 1.688-.316.387-.211.66-.546.818-1.003.158-.457.237-1.055.237-1.793v-11.078h3.798v11.104c0 1.424-.202 2.629-.606 3.614-.405.967-1.047 1.705-1.926 2.215-.879.51-2.013.765-3.402.765-.159 0-.343-.009-.554-.026a43.6 43.6 0 0 1-.818-.079zm17.004-.185v-17.408h7.175c1.072 0 2.031.096 2.875.29.844.176 1.565.457 2.163.844.615.369 1.081.844 1.398 1.424.316.58.474 1.275.474 2.084 0 .668-.14 1.266-.422 1.793-.281.51-.729.924-1.345 1.24-.615.317-1.415.536-2.4.66v.395c1.67.106 2.901.519 3.693 1.24.791.703 1.187 1.662 1.187 2.875 0 1.002-.264 1.846-.792 2.532-.527.668-1.31 1.178-2.347 1.53-1.02.334-2.295.501-3.825.501h-7.834zm3.64-3.06h4.168a9.16 9.16 0 0 0 1.24-.079c.386-.07.738-.176 1.055-.316.316-.159.553-.378.712-.66.176-.281.264-.633.264-1.055 0-.387-.071-.712-.212-.976a1.825 1.825 0 0 0-.58-.685 3.072 3.072 0 0 0-.897-.475 4.347 4.347 0 0 0-1.134-.238 10.131 10.131 0 0 0-1.292-.079h-3.324v4.563zm0-6.963h2.717c.58 0 1.108-.035 1.583-.105a4.759 4.759 0 0 0 1.266-.343c.369-.176.65-.405.844-.686.211-.299.316-.668.316-1.108 0-.422-.088-.765-.263-1.029a1.795 1.795 0 0 0-.739-.659 3.898 3.898 0 0 0-1.108-.343 7.57 7.57 0 0 0-1.292-.105h-3.324v4.378zm21.729 10.392c-1.266 0-2.401-.193-3.403-.58a7.296 7.296 0 0 1-2.585-1.741c-.703-.774-1.248-1.714-1.635-2.822-.369-1.125-.554-2.409-.554-3.851 0-2.057.361-3.754 1.081-5.091.721-1.354 1.706-2.365 2.955-3.033 1.248-.686 2.664-1.029 4.246-1.029 1.231 0 2.348.203 3.35.607a6.64 6.64 0 0 1 2.559 1.741c.721.756 1.274 1.697 1.661 2.822.387 1.126.581 2.427.581 3.904 0 1.494-.203 2.805-.607 3.93-.387 1.125-.941 2.075-1.662 2.849a6.969 6.969 0 0 1-2.611 1.714c-1.002.387-2.128.58-3.376.58zm.079-3.033c.492 0 .985-.088 1.477-.264.51-.176.976-.475 1.398-.897.44-.422.782-1.011 1.029-1.767.246-.773.369-1.741.369-2.901 0-1.407-.185-2.559-.554-3.455-.352-.915-.862-1.592-1.53-2.031-.651-.44-1.398-.66-2.242-.66-.457 0-.941.088-1.451.264-.492.158-.958.457-1.398.897-.439.422-.791 1.02-1.055 1.793-.263.774-.395 1.776-.395 3.007 0 1.161.123 2.128.369 2.902.246.756.572 1.362.976 1.82.422.457.888.791 1.398 1.002a4.65 4.65 0 0 0 1.609.29zm18.853 3.033c-1.266 0-2.4-.193-3.403-.58a7.292 7.292 0 0 1-2.584-1.741c-.704-.774-1.249-1.714-1.636-2.822-.369-1.125-.554-2.409-.554-3.851 0-2.057.361-3.754 1.082-5.091.721-1.354 1.705-2.365 2.954-3.033 1.248-.686 2.664-1.029 4.247-1.029 1.23 0 2.347.203 3.349.607a6.633 6.633 0 0 1 2.559 1.741c.721.756 1.275 1.697 1.662 2.822.386 1.126.58 2.427.58 3.904 0 1.494-.202 2.805-.607 3.93-.387 1.125-.941 2.075-1.662 2.849a6.96 6.96 0 0 1-2.611 1.714c-1.002.387-2.128.58-3.376.58zm.079-3.033c.493 0 .985-.088 1.477-.264.51-.176.976-.475 1.398-.897.44-.422.783-1.011 1.029-1.767.246-.773.369-1.741.369-2.901 0-1.407-.185-2.559-.554-3.455-.351-.915-.861-1.592-1.53-2.031-.65-.44-1.398-.66-2.242-.66-.457 0-.94.088-1.45.264-.493.158-.959.457-1.398.897-.44.422-.792 1.02-1.055 1.793-.264.774-.396 1.776-.396 3.007 0 1.161.123 2.128.369 2.902.246.756.572 1.362.976 1.82.422.457.888.791 1.398 1.002.528.193 1.064.29 1.609.29zm14.461 2.664v-17.408h3.824v17.408h-3.824zm-5.064-14.217v-3.191h13.979v3.191h-13.979zm27.679 14.217v-17.408h3.772v17.408h-3.772zm-11.342 0v-17.408h3.798v17.408h-3.798zm2.269-7.253v-3.113h10.603v3.113h-10.603zM225.248 205.594c-2.304 0-4.284-.46-5.939-1.382-1.634-.943-2.89-2.262-3.77-3.959-.88-1.718-1.32-3.739-1.32-6.064 0-1.739.251-3.3.754-4.682.503-1.404 1.226-2.598 2.168-3.582.943-1.006 2.095-1.77 3.457-2.294 1.382-.545 2.932-.817 4.65-.817 1.152 0 2.283.147 3.393.44 1.111.293 2.085.712 2.923 1.257.439.272.733.607.879 1.005.147.377.178.754.095 1.132a1.766 1.766 0 0 1-.535.911c-.251.251-.576.398-.974.44-.377.021-.796-.116-1.256-.409a6.976 6.976 0 0 0-2.106-.911 9.393 9.393 0 0 0-2.293-.283c-1.488 0-2.745.304-3.771.911-1.026.608-1.801 1.488-2.325 2.64-.524 1.152-.786 2.566-.786 4.242 0 1.654.262 3.068.786 4.241.524 1.174 1.299 2.064 2.325 2.671 1.026.608 2.283.911 3.771.911.796 0 1.581-.094 2.356-.282a8.538 8.538 0 0 0 2.2-.943c.461-.272.869-.387 1.225-.346.377.021.691.147.943.377.251.231.419.524.502.88a1.89 1.89 0 0 1-.062 1.069c-.126.356-.377.67-.754.942-.838.608-1.844 1.079-3.017 1.414a13.323 13.323 0 0 1-3.519.471zm16.576 0c-1.592 0-2.975-.324-4.148-.974a6.816 6.816 0 0 1-2.734-2.765c-.649-1.215-.974-2.639-.974-4.273 0-1.236.178-2.336.534-3.299.377-.985.912-1.823 1.603-2.514a6.597 6.597 0 0 1 2.482-1.602c.964-.377 2.043-.566 3.237-.566 1.592 0 2.974.325 4.147.974a6.822 6.822 0 0 1 2.734 2.765c.649 1.194.974 2.608.974 4.242 0 1.236-.189 2.346-.566 3.331a7.047 7.047 0 0 1-1.571 2.545 7.138 7.138 0 0 1-2.482 1.602c-.964.356-2.042.534-3.236.534zm0-2.985c.775 0 1.455-.188 2.042-.565.586-.377 1.037-.932 1.351-1.665.335-.755.503-1.687.503-2.797 0-1.676-.356-2.922-1.069-3.739-.712-.838-1.654-1.257-2.827-1.257-.775 0-1.456.189-2.043.566-.586.356-1.047.911-1.382 1.665-.315.733-.472 1.655-.472 2.765 0 1.655.356 2.912 1.069 3.771.712.838 1.655 1.256 2.828 1.256zm18.198 2.985c-1.613 0-3.017-.324-4.211-.974a6.92 6.92 0 0 1-2.765-2.827c-.649-1.215-.974-2.64-.974-4.274 0-1.236.178-2.335.534-3.299.377-.985.912-1.812 1.603-2.482.691-.692 1.529-1.215 2.514-1.571.984-.377 2.084-.566 3.299-.566.691 0 1.435.094 2.231.283a7.557 7.557 0 0 1 2.293.943c.336.209.556.46.66.754.105.293.126.597.063.911a1.675 1.675 0 0 1-.408.785c-.189.21-.43.346-.723.409-.293.042-.618-.032-.974-.22a5.529 5.529 0 0 0-1.414-.597 4.738 4.738 0 0 0-1.383-.22c-.691 0-1.298.115-1.822.346a3.575 3.575 0 0 0-1.351.942c-.356.398-.628.901-.817 1.508-.189.608-.283 1.31-.283 2.106 0 1.55.367 2.775 1.1 3.676.754.88 1.812 1.32 3.173 1.32.44 0 .891-.063 1.352-.189a6.076 6.076 0 0 0 1.445-.597c.356-.188.67-.251.943-.188.293.062.534.209.722.439.189.21.304.472.346.786.042.293 0 .587-.126.88-.105.293-.314.534-.628.722a7.774 7.774 0 0 1-2.2.912 9.34 9.34 0 0 1-2.199.282zm9.668-.062c-.629 0-1.111-.168-1.446-.503-.335-.356-.503-.859-.503-1.508v-18.664c0-.65.168-1.142.503-1.477.335-.335.817-.503 1.446-.503.628 0 1.11.168 1.445.503.356.335.534.827.534 1.477v11.594h.063l5.184-5.467a9.914 9.914 0 0 1 1.1-.974c.314-.231.744-.346 1.288-.346.545 0 .953.147 1.226.44.293.272.44.607.44 1.005 0 .398-.189.796-.566 1.194l-5.467 5.782v-1.634l6.001 6.473c.377.398.545.806.503 1.225a1.386 1.386 0 0 1-.503 1.006c-.314.251-.712.377-1.194.377-.586 0-1.058-.116-1.414-.346-.335-.23-.712-.576-1.131-1.037l-5.467-5.719h-.063v5.091c0 1.34-.66 2.011-1.979 2.011zm21.475.062c-1.361 0-2.503-.23-3.425-.691-.9-.461-1.571-1.131-2.01-2.011-.44-.9-.66-2.011-.66-3.33v-6.693h-1.634c-.503 0-.89-.126-1.163-.377-.272-.272-.408-.639-.408-1.1 0-.482.136-.848.408-1.1.273-.251.66-.377 1.163-.377h1.634v-2.859c0-.649.167-1.142.502-1.477.357-.335.849-.503 1.477-.503.629 0 1.11.168 1.446.503.335.335.502.828.502 1.477v2.859h3.331c.503 0 .89.126 1.163.377.272.252.408.618.408 1.1 0 .461-.136.828-.408 1.1-.273.251-.66.377-1.163.377h-3.331v6.473c0 1.005.22 1.759.66 2.262.44.503 1.152.754 2.137.754.356 0 .67-.031.942-.094.273-.063.514-.105.723-.126a.72.72 0 0 1 .629.252c.167.167.251.523.251 1.068 0 .419-.073.796-.22 1.131-.126.314-.367.534-.723.66a7.2 7.2 0 0 1-1.068.22 6.28 6.28 0 0 1-1.163.125zm10.08 0c-1.11 0-2.105-.209-2.985-.628-.859-.44-1.54-1.026-2.042-1.76-.482-.733-.723-1.56-.723-2.482 0-1.131.293-2.021.88-2.671.586-.67 1.539-1.152 2.859-1.445 1.32-.293 3.09-.44 5.31-.44h1.571v2.262h-1.539c-1.299 0-2.336.063-3.111.189-.775.126-1.33.346-1.665.66-.315.293-.472.712-.472 1.257 0 .691.241 1.257.723 1.696.482.44 1.152.66 2.011.66.691 0 1.299-.157 1.822-.471a3.635 3.635 0 0 0 1.289-1.351c.314-.566.471-1.215.471-1.948v-3.614c0-1.047-.23-1.801-.691-2.262-.461-.461-1.236-.691-2.326-.691-.607 0-1.267.073-1.979.22-.691.146-1.424.398-2.2.754-.398.188-.754.241-1.068.157a1.203 1.203 0 0 1-.691-.503 1.643 1.643 0 0 1-.251-.88c0-.314.083-.618.251-.911.167-.314.45-.545.848-.691a14.322 14.322 0 0 1 2.765-.849 13.564 13.564 0 0 1 2.451-.251c1.508 0 2.744.231 3.708.691.984.461 1.718 1.163 2.199 2.106.482.921.723 2.115.723 3.582v7.541c0 .649-.157 1.152-.471 1.508-.314.335-.765.503-1.351.503-.587 0-1.048-.168-1.383-.503-.314-.356-.471-.859-.471-1.508v-1.509h.251a4.344 4.344 0 0 1-.88 1.917 4.266 4.266 0 0 1-1.602 1.226c-.65.293-1.393.439-2.231.439zm14.073-.094c-.629 0-1.11-.188-1.446-.565-.335-.377-.502-.901-.502-1.571v-11.532c0-.691.167-1.215.502-1.571.336-.377.817-.566 1.446-.566.628 0 1.11.189 1.445.566.356.356.534.88.534 1.571v11.532c0 .67-.167 1.194-.502 1.571-.336.377-.828.565-1.477.565zm0-18.727c-.733 0-1.309-.178-1.728-.534-.398-.377-.597-.89-.597-1.54 0-.67.199-1.183.597-1.539.419-.356.995-.534 1.728-.534.754 0 1.33.178 1.728.534.398.356.597.869.597 1.539 0 .65-.199 1.163-.597 1.54-.398.356-.974.534-1.728.534zm11.308 18.821c-1.739 0-3.048-.492-3.928-1.476-.88-1.006-1.32-2.472-1.32-4.399v-14.862c0-.65.168-1.142.503-1.477.335-.335.817-.503 1.445-.503.629 0 1.111.168 1.446.503.356.335.534.827.534 1.477v14.673c0 .964.199 1.676.597 2.137.419.461 1.005.691 1.76.691h.471l.44-.063c.293-.042.492.042.597.252.105.188.157.586.157 1.194 0 .523-.105.932-.314 1.225-.21.293-.555.471-1.037.534l-.66.063c-.23.021-.461.031-.691.031zm21.046-.062c-.649 0-1.152-.178-1.508-.535-.335-.377-.503-.89-.503-1.539V186.49h-6.127c-.545 0-.974-.146-1.288-.439-.293-.315-.44-.734-.44-1.257 0-.545.147-.953.44-1.226.314-.293.743-.44 1.288-.44h16.276c.545 0 .964.147 1.257.44.314.273.471.681.471 1.226 0 .523-.157.942-.471 1.257-.293.293-.712.439-1.257.439h-6.127v16.968c0 .649-.167 1.162-.503 1.539-.335.357-.837.535-1.508.535zm14.39.062c-1.11 0-2.105-.209-2.985-.628-.859-.44-1.54-1.026-2.042-1.76-.482-.733-.723-1.56-.723-2.482 0-1.131.293-2.021.88-2.671.586-.67 1.539-1.152 2.859-1.445 1.32-.293 3.09-.44 5.31-.44h1.571v2.262h-1.539c-1.299 0-2.336.063-3.111.189-.775.126-1.33.346-1.665.66-.314.293-.472.712-.472 1.257 0 .691.241 1.257.723 1.696.482.44 1.152.66 2.011.66.691 0 1.299-.157 1.823-.471a3.632 3.632 0 0 0 1.288-1.351c.314-.566.471-1.215.471-1.948v-3.614c0-1.047-.23-1.801-.691-2.262-.461-.461-1.236-.691-2.325-.691-.608 0-1.268.073-1.98.22-.691.146-1.424.398-2.199.754-.398.188-.754.241-1.069.157a1.206 1.206 0 0 1-.691-.503 1.643 1.643 0 0 1-.251-.88c0-.314.083-.618.251-.911.168-.314.45-.545.848-.691a14.31 14.31 0 0 1 2.766-.849c.9-.167 1.717-.251 2.45-.251 1.509 0 2.744.231 3.708.691.985.461 1.718 1.163 2.2 2.106.481.921.722 2.115.722 3.582v7.541c0 .649-.157 1.152-.471 1.508-.314.335-.765.503-1.351.503-.587 0-1.048-.168-1.383-.503-.314-.356-.471-.859-.471-1.508v-1.509h.251a4.354 4.354 0 0 1-.879 1.917 4.27 4.27 0 0 1-1.603 1.226c-.649.293-1.393.439-2.231.439zm20.986 0c-1.299 0-2.441-.324-3.425-.974-.964-.649-1.603-1.518-1.917-2.608l.346-.785v2.294c0 .649-.168 1.152-.503 1.508-.335.335-.807.503-1.414.503-.629 0-1.11-.168-1.445-.503-.336-.356-.503-.859-.503-1.508v-18.664c0-.65.167-1.142.503-1.477.335-.335.816-.503 1.445-.503.628 0 1.11.168 1.445.503.356.335.534.827.534 1.477v8.169h-.377c.336-1.026.985-1.854 1.948-2.482.964-.629 2.085-.943 3.363-.943 1.361 0 2.545.325 3.55.974 1.006.65 1.791 1.571 2.357 2.765.565 1.173.848 2.587.848 4.242 0 1.634-.283 3.058-.848 4.273-.566 1.194-1.362 2.116-2.388 2.765-1.006.65-2.179.974-3.519.974zm-1.1-2.985c.775 0 1.456-.188 2.042-.565.587-.377 1.037-.932 1.351-1.665.335-.755.503-1.687.503-2.797 0-1.676-.356-2.922-1.068-3.739-.712-.838-1.655-1.257-2.828-1.257-.775 0-1.456.189-2.043.566-.586.356-1.047.911-1.382 1.665-.314.733-.471 1.655-.471 2.765 0 1.655.356 2.912 1.068 3.771.712.838 1.655 1.256 2.828 1.256zm16.327 2.985c-1.739 0-3.048-.492-3.928-1.476-.88-1.006-1.32-2.472-1.32-4.399v-14.862c0-.65.168-1.142.503-1.477.335-.335.817-.503 1.445-.503.629 0 1.111.168 1.446.503.356.335.534.827.534 1.477v14.673c0 .964.199 1.676.597 2.137.419.461 1.005.691 1.759.691h.472l.44-.063c.293-.042.492.042.597.252.104.188.157.586.157 1.194 0 .523-.105.932-.314 1.225-.21.293-.556.471-1.037.534l-.66.063a7.622 7.622 0 0 1-.691.031zm12.205 0c-1.738 0-3.236-.324-4.493-.974-1.257-.649-2.231-1.571-2.922-2.765-.67-1.194-1.006-2.608-1.006-4.241 0-1.593.325-2.986.974-4.18a7.31 7.31 0 0 1 2.734-2.796c1.173-.691 2.503-1.037 3.991-1.037 1.089 0 2.063.178 2.922.534.88.356 1.623.87 2.231 1.54.628.67 1.099 1.487 1.414 2.451.335.942.502 2.011.502 3.205 0 .377-.136.67-.408.88-.252.188-.618.282-1.1.282h-10.086v-2.262h8.829l-.502.471c0-.963-.147-1.77-.44-2.419-.273-.65-.681-1.142-1.226-1.477-.524-.356-1.183-.534-1.979-.534-.88 0-1.634.209-2.263.628-.607.398-1.078.974-1.414 1.728-.314.734-.471 1.613-.471 2.64v.22c0 1.718.398 3.006 1.194 3.865.817.838 2.011 1.256 3.582 1.256a9.93 9.93 0 0 0 1.822-.188 7.049 7.049 0 0 0 1.949-.723c.44-.251.827-.356 1.162-.314.335.021.597.136.786.346.209.209.335.471.377.785.042.293-.021.597-.189.911-.146.315-.408.587-.785.817-.733.461-1.582.807-2.545 1.037-.943.21-1.823.314-2.64.314zm15.082 0a15.57 15.57 0 0 1-2.859-.282c-1.006-.189-1.906-.514-2.702-.974-.336-.21-.576-.451-.723-.723a1.785 1.785 0 0 1-.157-.848c.042-.294.146-.545.314-.755a1.31 1.31 0 0 1 .691-.408c.294-.063.608-.01.943.157.838.398 1.623.681 2.356.848.734.147 1.456.22 2.169.22 1.005 0 1.749-.167 2.23-.502.503-.356.755-.817.755-1.383 0-.482-.168-.848-.503-1.1-.314-.272-.796-.471-1.446-.597l-3.142-.597c-1.298-.251-2.293-.722-2.985-1.414-.67-.712-1.005-1.623-1.005-2.733 0-1.006.272-1.875.817-2.608.565-.733 1.34-1.299 2.325-1.697.985-.398 2.116-.597 3.393-.597.922 0 1.781.105 2.577.314a9.032 9.032 0 0 1 2.357.912c.314.167.523.387.628.659.126.273.157.555.094.849a1.832 1.832 0 0 1-.377.754 1.316 1.316 0 0 1-.722.408c-.273.042-.587-.021-.943-.188a8.483 8.483 0 0 0-1.885-.723 6.974 6.974 0 0 0-1.697-.22c-1.027 0-1.791.178-2.294.534-.482.356-.723.828-.723 1.414 0 .44.147.807.44 1.1.294.293.744.492 1.351.597l3.143.597c1.361.251 2.388.712 3.079 1.383.712.67 1.068 1.571 1.068 2.702 0 1.529-.597 2.733-1.791 3.613-1.194.859-2.786 1.288-4.776 1.288zM553.867 63.691c-.314 0-.576-.07-.785-.21-.198-.15-.361-.372-.489-.662l-4.556-10.23c-.128-.29-.163-.547-.105-.768a.891.891 0 0 1 .367-.523 1.14 1.14 0 0 1 .663-.193c.338 0 .588.076.751.227.174.14.32.355.436.646l4.137 9.584h-.75l4.119-9.601c.128-.28.28-.489.454-.629.175-.15.419-.227.733-.227.256 0 .466.065.629.193a.84.84 0 0 1 .331.523c.047.221.006.477-.122.768l-4.556 10.23c-.128.29-.291.512-.489.663-.186.14-.442.21-.768.21zm8.674 0c-.361 0-.64-.099-.838-.296-.186-.21-.279-.495-.279-.856V52.258c0-.373.093-.658.279-.856.198-.198.477-.297.838-.297s.634.1.821.297c.197.198.296.483.296.856v10.281c0 .361-.093.646-.279.856-.186.197-.465.296-.838.296zm4.927 0c-.361 0-.64-.099-.838-.296-.186-.21-.279-.495-.279-.856V52.38c0-.372.099-.65.296-.837.198-.198.477-.297.838-.297h4.207c1.35 0 2.392.338 3.125 1.013.733.675 1.1 1.617 1.1 2.828 0 1.21-.367 2.158-1.1 2.845-.733.675-1.775 1.012-3.125 1.012h-3.107v3.596c0 .361-.093.646-.279.856-.186.197-.466.296-.838.296zm1.117-6.51h2.758c.791 0 1.391-.175 1.798-.524.407-.361.611-.885.611-1.571 0-.687-.204-1.205-.611-1.554-.407-.35-1.007-.524-1.798-.524h-2.758v4.172zM55.421 239.552a10.63 10.63 0 0 1-.582-1.571 8.679 8.679 0 0 1-.336-1.581 6.484 6.484 0 0 1 .026-1.477 1.223 1.223 0 0 1 .828-1.012c.212-.056.413-.058.604-.007a.863.863 0 0 1 .49.337c.12.167.162.392.125.674a6.486 6.486 0 0 0 .089 1.905c.123.626.328 1.25.616 1.869.42.907.876 1.498 1.366 1.773.501.269.993.292 1.475.069.402-.187.649-.482.74-.887.096-.394.054-.981-.127-1.762l-.482-2.078c-.276-1.197-.27-2.19.02-2.98.305-.783.906-1.383 1.802-1.798a3.717 3.717 0 0 1 1.692-.366c.565.016 1.11.154 1.635.413.53.27 1.014.652 1.453 1.147.455.5.845 1.1 1.17 1.8.319.689.536 1.383.652 2.083.115.7.12 1.374.017 2.022a.973.973 0 0 1-.297.577 1.117 1.117 0 0 1-.528.307.956.956 0 0 1-.56-.033.871.871 0 0 1-.447-.379c-.108-.173-.149-.412-.123-.717a5.403 5.403 0 0 0-.082-1.531 6.736 6.736 0 0 0-.5-1.483c-.245-.529-.53-.947-.855-1.257-.325-.31-.673-.504-1.044-.583a1.715 1.715 0 0 0-1.083.147c-.413.192-.682.484-.807.876-.113.388-.085.946.087 1.676l.474 2.06c.286 1.249.298 2.268.038 3.059-.256.802-.814 1.402-1.675 1.802a3.571 3.571 0 0 1-1.658.35 3.506 3.506 0 0 1-1.601-.429c-.513-.264-.992-.649-1.435-1.155-.444-.505-.836-1.125-1.177-1.86zm4.783 10.312c-.405-.873-.578-1.713-.52-2.521a4.118 4.118 0 0 1 .82-2.201c.5-.664 1.199-1.204 2.094-1.62.677-.314 1.325-.496 1.944-.545a4.276 4.276 0 0 1 1.784.239 3.981 3.981 0 0 1 1.51.953c.451.432.829.975 1.132 1.63.405.872.578 1.712.52 2.52a4.115 4.115 0 0 1-.82 2.201c-.49.659-1.182 1.197-2.077 1.612-.677.314-1.334.493-1.969.536a4.236 4.236 0 0 1-1.794-.214 4.301 4.301 0 0 1-1.51-.953c-.44-.437-.81-.983-1.114-1.637zm1.635-.759c.197.425.474.75.83.975.355.226.774.332 1.255.318.499-.008 1.052-.154 1.66-.436.919-.426 1.511-.938 1.778-1.536.278-.603.268-1.226-.03-1.869a2.23 2.23 0 0 0-.829-.975c-.344-.231-.765-.343-1.264-.335-.481.015-1.026.163-1.635.445-.907.421-1.505.935-1.795 1.544-.278.603-.268 1.226.03 1.869zm1.947 8.393c-.16-.345-.193-.657-.1-.937.11-.274.343-.494.7-.659l5.836-2.707-.367-.792c-.128-.276-.157-.52-.089-.733.08-.219.246-.387.499-.504.264-.122.5-.141.706-.055.207.085.375.265.502.541l.655 1.412-.855-.357.585-.271c1.182-.548 2.205-.66 3.067-.335.874.321 1.623 1.019 2.248 2.096l.323.562c.13.219.175.421.136.607a.728.728 0 0 1-.252.451c-.127.115-.28.192-.456.233-.177.04-.355.032-.535-.025a.643.643 0 0 1-.38-.325l-.13-.233c-.35-.633-.737-1.032-1.162-1.198-.425-.165-.93-.112-1.516.16l-.637.295.147-.403.807 1.739c.128.275.157.52.089.733-.069.213-.235.381-.5.503-.252.117-.487.136-.706.056-.206-.086-.374-.266-.502-.541l-.678-1.464-5.838 2.707c-.734.341-1.267.155-1.597-.556zm3.355 7.323c-.282-.608-.42-1.207-.415-1.795a3.27 3.27 0 0 1 .446-1.567 2.67 2.67 0 0 1 1.176-1.027c.62-.287 1.183-.353 1.688-.197.516.151 1.022.551 1.518 1.2.496.649 1.027 1.581 1.591 2.798l.4.861-1.24.575-.392-.844c-.33-.711-.628-1.264-.894-1.656-.266-.393-.527-.641-.785-.745-.24-.098-.51-.078-.808.061-.379.176-.628.451-.746.827-.119.376-.069.799.15 1.27.175.379.416.672.72.879.323.213.679.334 1.069.362.39.029.785-.05 1.187-.236l1.98-.919c.574-.266.929-.584 1.064-.954.136-.369.065-.853-.212-1.45a5.983 5.983 0 0 0-.624-1.028 6.34 6.34 0 0 0-.972-1.014c-.204-.17-.323-.352-.358-.546a.724.724 0 0 1 .1-.506 1 1 0 0 1 .419-.362c.172-.079.36-.111.563-.093.215.012.413.108.594.289.463.427.853.86 1.168 1.299.32.451.574.878.76 1.28.384.826.572 1.562.564 2.207a2.763 2.763 0 0 1-.595 1.741c-.382.498-.975.933-1.779 1.306l-4.132 1.917c-.356.165-.672.206-.947.125-.263-.087-.47-.292-.618-.613-.15-.321-.175-.617-.076-.885.115-.263.35-.477.706-.642l.827-.383.064.137a2.629 2.629 0 0 1-1.274.005 2.57 2.57 0 0 1-1.08-.566 3.253 3.253 0 0 1-.807-1.111zm5.436 11.63c-.128-.275-.169-.528-.122-.759a.853.853 0 0 1 .363-.524c.202-.136.462-.208.78-.215l12.18-.126c.403-.006.72.063.954.206.25.149.44.361.568.636.122.265.157.534.103.81-.036.282-.187.575-.45.879l-7.957 9.235c-.206.248-.425.406-.66.473a.87.87 0 0 1-.652-.053c-.189-.108-.345-.294-.467-.558-.15-.321-.192-.608-.128-.861.081-.247.25-.514.508-.8l2.08-2.326-.17 1.21-3.37-7.267 1.033.651-3.111.104c-.402.005-.715-.038-.939-.13-.224-.091-.405-.286-.543-.585zm12.175.358l-6.852.249.344-.704 2.667 5.752-.75-.175 4.607-5.088-.016-.034zm-5.873 13.23c-.165-.356-.201-.674-.108-.954.11-.274.343-.494.699-.659l6.509-3.019c.355-.165.668-.198.937-.099.269.098.48.314.635.647.154.333.182.633.083.902-.098.269-.325.486-.681.651l-1.085.503-.08-.172c.764-.159 1.432-.085 2.006.22.575.306 1.077.833 1.508 1.582.135.23.16.449.074.656-.069.213-.247.4-.534.562-.277.156-.544.196-.802.12-.242-.069-.451-.251-.63-.545l-.21-.362c-.393-.669-.856-1.096-1.389-1.281-.52-.191-1.108-.135-1.763.169l-3.564 1.653c-.356.165-.674.201-.954.108-.27-.099-.486-.326-.651-.682zm4.444 9.672c-.442-.952-.645-1.856-.608-2.709a4.248 4.248 0 0 1 .772-2.305c.484-.67 1.174-1.213 2.07-1.629.872-.404 1.718-.58 2.537-.528a4.415 4.415 0 0 1 2.227.787c.677.467 1.205 1.108 1.583 1.924.277.596.427 1.175.45 1.737a3.622 3.622 0 0 1-.277 1.613 3.892 3.892 0 0 1-.984 1.398c-.431.424-.974.787-1.628 1.09a.632.632 0 0 1-.586 0c-.167-.09-.312-.267-.435-.531l-2.563-5.527 1.24-.575 2.244 4.839-.386-.156c.528-.245.932-.53 1.214-.856a1.86 1.86 0 0 0 .498-1.047c.061-.378-.009-.784-.21-1.221-.224-.482-.531-.842-.92-1.08-.373-.231-.808-.343-1.307-.335-.481.014-1.003.151-1.566.412l-.12.056c-.942.437-1.547.982-1.815 1.637-.251.66-.177 1.421.222 2.282.138.299.327.616.566.951.256.342.553.636.891.884.25.177.406.363.468.557a.665.665 0 0 1 .01.518.803.803 0 0 1-.334.407.891.891 0 0 1-.547.128c-.21 0-.426-.075-.648-.223a5.088 5.088 0 0 1-1.215-1.131 7.353 7.353 0 0 1-.843-1.367zm3.69 7.955c-.283-.608-.42-1.206-.415-1.795a3.263 3.263 0 0 1 .445-1.566 2.67 2.67 0 0 1 1.177-1.027c.62-.288 1.182-.353 1.687-.197.517.151 1.023.551 1.519 1.199.496.649 1.026 1.582 1.59 2.799l.4.861-1.24.575-.391-.844c-.33-.712-.628-1.264-.894-1.657s-.528-.641-.785-.745c-.24-.097-.51-.077-.808.061-.38.176-.628.452-.746.828-.12.375-.07.799.149 1.269.176.379.416.672.722.879a2.19 2.19 0 0 0 1.067.363c.39.028.786-.051 1.188-.237l1.98-.918c.574-.267.928-.585 1.064-.954.135-.37.065-.853-.212-1.45a5.951 5.951 0 0 0-.624-1.029 6.387 6.387 0 0 0-.972-1.014c-.205-.17-.324-.352-.358-.545a.727.727 0 0 1 .1-.507.996.996 0 0 1 .418-.361c.172-.08.36-.111.564-.094.214.012.412.108.594.289a8.6 8.6 0 0 1 1.168 1.3c.32.451.574.877.76 1.279.384.827.572 1.562.564 2.208a2.763 2.763 0 0 1-.595 1.74c-.383.498-.976.934-1.78 1.306l-4.132 1.917c-.355.165-.67.207-.946.125-.264-.087-.47-.291-.619-.613-.149-.321-.174-.616-.076-.885.116-.263.351-.476.707-.642l.826-.383.064.138a2.572 2.572 0 0 1-2.353-.562 3.243 3.243 0 0 1-.808-1.111zm461.022 30.289c-.289.477-.616.93-.98 1.36a8.74 8.74 0 0 1-1.125 1.16c-.407.33-.821.597-1.241.802a1.224 1.224 0 0 1-1.301-.124 1.147 1.147 0 0 1-.343-.496.86.86 0 0 1 .006-.596c.072-.192.236-.352.49-.479a6.48 6.48 0 0 0 1.532-1.136 8.187 8.187 0 0 0 1.209-1.553c.518-.855.755-1.563.709-2.123-.056-.566-.311-.987-.765-1.263-.379-.23-.762-.269-1.149-.119-.38.139-.844.502-1.392 1.087l-1.455 1.559c-.84.897-1.668 1.445-2.485 1.646-.821.182-1.654.018-2.498-.494a3.723 3.723 0 0 1-1.248-1.2 3.917 3.917 0 0 1-.568-1.588 4.947 4.947 0 0 1 .142-1.845 7.06 7.06 0 0 1 .842-1.975 8.063 8.063 0 0 1 1.365-1.703 6.266 6.266 0 0 1 1.669-1.141.977.977 0 0 1 .645-.076c.212.04.395.129.549.267.142.13.237.291.284.483a.874.874 0 0 1-.064.582c-.084.186-.259.354-.527.502-.47.263-.878.57-1.225.922a6.715 6.715 0 0 0-.953 1.243c-.302.497-.49.967-.566 1.41-.076.442-.043.839.098 1.192.138.334.38.607.726.817.389.236.782.296 1.177.181.385-.122.833-.457 1.343-1.006l1.446-1.543c.877-.933 1.716-1.512 2.518-1.736.808-.235 1.618-.107 2.429.385.52.315.925.709 1.216 1.181.297.461.476.984.536 1.568.067.573.014 1.185-.158 1.835-.172.651-.469 1.322-.888 2.014zm5.893-9.719c-.499.822-1.1 1.434-1.802 1.837a4.11 4.11 0 0 1-2.285.546c-.831-.045-1.668-.323-2.512-.835-.639-.387-1.151-.824-1.537-1.309a4.283 4.283 0 0 1-.797-1.615 3.987 3.987 0 0 1-.05-1.784c.107-.616.348-1.232.721-1.849.499-.823 1.1-1.435 1.803-1.838a4.122 4.122 0 0 1 2.284-.546c.82.039 1.652.314 2.496.826.639.387 1.153.832 1.543 1.335.398.492.672 1.028.823 1.609.141.573.157 1.168.05 1.784-.117.609-.363 1.222-.737 1.839zm-1.542-.935a2.23 2.23 0 0 0 .347-1.232c-.011-.421-.156-.828-.437-1.22-.284-.409-.713-.788-1.287-1.135-.865-.525-1.621-.731-2.266-.619-.656.105-1.167.461-1.535 1.067-.242.4-.358.811-.347 1.232 0 .414.143.826.427 1.235.28.392.707.762 1.281 1.11.855.518 1.615.728 2.282.629.656-.106 1.168-.461 1.535-1.067zm5.881-6.296c-.196.325-.437.526-.722.605-.289.062-.601-.009-.936-.212l-5.502-3.336-.453.746c-.158.26-.344.421-.559.483-.226.055-.458.011-.696-.134-.249-.151-.396-.336-.44-.555-.045-.219.012-.459.169-.719l.807-1.331.182.909-.552-.334c-1.115-.676-1.777-1.462-1.988-2.36-.222-.903-.06-1.915.486-3.034l.286-.582c.109-.229.252-.38.428-.45a.727.727 0 0 1 .515-.044c.167.042.316.126.448.25s.224.277.278.457a.644.644 0 0 1-.058.498l-.121.237c-.331.643-.446 1.187-.347 1.632.1.446.426.836.978 1.17l.601.364-.417.103.993-1.64c.158-.259.344-.42.559-.482.215-.062.447-.018.696.133.238.145.385.33.44.556.045.219-.011.459-.169.718l-.836 1.38 5.502 3.336c.692.42.835.965.428 1.636zm4.209-6.868c-.348.573-.768 1.022-1.259 1.345a3.272 3.272 0 0 1-1.549.504 2.68 2.68 0 0 1-1.509-.404c-.584-.355-.952-.785-1.104-1.291-.162-.513-.113-1.156.149-1.93.262-.773.741-1.734 1.436-2.881l.492-.811 1.169.708-.482.796c-.407.671-.699 1.226-.877 1.666-.178.439-.238.795-.181 1.066.053.255.22.467.502.638.357.216.724.269 1.102.158.379-.111.702-.389.971-.832.217-.358.326-.721.327-1.089a2.18 2.18 0 0 0-.294-1.089 2.39 2.39 0 0 0-.859-.854l-1.866-1.131c-.541-.328-1.003-.445-1.385-.352-.383.094-.745.422-1.086.985-.19.314-.359.677-.506 1.091a6.316 6.316 0 0 0-.299 1.373c-.028.264-.112.465-.254.601a.727.727 0 0 1-.476.199.993.993 0 0 1-.533-.146 1.09 1.09 0 0 1-.392-.415c-.11-.185-.14-.403-.091-.654a8.592 8.592 0 0 1 .427-1.694c.196-.518.408-.966.638-1.345.472-.779.978-1.345 1.518-1.699a2.768 2.768 0 0 1 1.777-.477c.627.04 1.319.29 2.076.749l3.896 2.362c.335.203.545.442.631.715.075.268.02.553-.163.856-.184.303-.415.488-.693.557-.282.05-.591-.026-.927-.229l-.779-.473.079-.13c.333.306.571.657.714 1.055.14.381.183.784.131 1.212-.051.427-.209.857-.471 1.29zm6.623-10.998c-.157.26-.345.435-.562.525a.854.854 0 0 1-.638-.009c-.225-.092-.429-.268-.613-.527l-6.897-10.042c-.228-.331-.348-.633-.36-.906a1.414 1.414 0 0 1 .212-.826 1.3 1.3 0 0 1 .615-.538c.254-.127.581-.165.98-.116l12.103 1.456c.321.032.574.126.76.283a.873.873 0 0 1 .32.572c.016.217-.051.45-.202.699-.184.303-.399.498-.644.586-.25.07-.566.079-.948.025l-3.09-.431 1.099-.532-4.152 6.849-.037-1.221 1.821 2.525c.229.331.367.615.416.851.049.237-.012.496-.183.777zm-6.492-10.306l4.027 5.549-.775.107 3.287-5.421.273.721-6.792-.989-.02.033zm14.258-2.502c-.203.336-.447.543-.732.622-.289.062-.601-.009-.937-.213l-6.135-3.719c-.335-.204-.537-.445-.605-.723-.068-.278-.007-.574.183-.888.19-.313.425-.504.703-.572.278-.069.584-.001.92.202l1.022.62-.098.163c-.557-.545-.869-1.142-.936-1.789-.066-.647.091-1.358.472-2.133.117-.24.284-.383.504-.427.215-.062.47-.019.764.13.284.143.466.342.547.599.077.239.044.514-.101.826l-.184.377c-.335.699-.432 1.321-.289 1.867.132.539.507.995 1.124 1.369l3.359 2.037c.336.203.543.447.622.732.068.278 0 .585-.203.92zm5.551-9.082c-.544.898-1.181 1.57-1.91 2.016a4.243 4.243 0 0 1-2.344.643c-.826-.027-1.662-.297-2.506-.809-.822-.498-1.44-1.102-1.853-1.812a4.415 4.415 0 0 1-.589-2.287c.011-.823.249-1.618.714-2.386.342-.563.739-1.011 1.191-1.343.46-.343.958-.566 1.494-.67a3.913 3.913 0 0 1 1.709.037c.592.122 1.196.371 1.813.744a.635.635 0 0 1 .327.487c.018.189-.048.408-.199.657l-3.158 5.21-1.169-.709 2.765-4.561.086.408c-.498-.302-.96-.479-1.387-.531a1.848 1.848 0 0 0-1.147.171c-.348.159-.647.444-.896.855-.275.454-.403.909-.384 1.365.016.439.166.863.45 1.272.28.392.686.748 1.216 1.07l.113.069c.888.538 1.678.736 2.371.593.688-.159 1.279-.645 1.771-1.456.17-.282.328-.615.473-1.001.141-.403.22-.813.237-1.232.008-.306.075-.539.202-.699a.665.665 0 0 1 .424-.298.803.803 0 0 1 .524.052c.165.07.302.197.412.382.116.174.175.395.176.662a5.096 5.096 0 0 1-.262 1.639 7.355 7.355 0 0 1-.664 1.462zm4.546-7.498c-.347.573-.767 1.022-1.259 1.345a3.268 3.268 0 0 1-1.549.504 2.676 2.676 0 0 1-1.508-.404c-.585-.355-.953-.785-1.104-1.291-.163-.513-.113-1.156.149-1.93.261-.773.74-1.734 1.435-2.881l.493-.811 1.168.708-.482.796c-.407.671-.699 1.226-.877 1.666-.178.439-.238.795-.181 1.066.053.255.221.467.502.637.357.217.725.27 1.103.159.378-.112.701-.389.97-.833.217-.357.326-.72.328-1.089a2.191 2.191 0 0 0-.295-1.088 2.38 2.38 0 0 0-.858-.854l-1.867-1.131c-.541-.328-1.003-.446-1.385-.352-.382.094-.744.422-1.085.985a5.95 5.95 0 0 0-.507 1.091 6.44 6.44 0 0 0-.299 1.372c-.027.265-.112.465-.253.601a.726.726 0 0 1-.477.2.995.995 0 0 1-.533-.146 1.09 1.09 0 0 1-.392-.415c-.11-.185-.14-.403-.091-.655a8.609 8.609 0 0 1 .428-1.694c.195-.517.408-.966.637-1.344.473-.779.979-1.346 1.519-1.699a2.764 2.764 0 0 1 1.776-.477c.627.04 1.319.29 2.077.749l3.895 2.362c.335.203.546.442.631.715.075.268.021.553-.163.856-.184.303-.415.488-.693.556-.282.051-.591-.025-.926-.228l-.78-.473.079-.13a2.576 2.576 0 0 1 .846 2.267 3.239 3.239 0 0 1-.472 1.29z" fill="#fff"/></g><defs><clipPath id="clip0_8401_111006"><path fill="#fff" d="M0 0h655.406v609.105H0z"/></clipPath><clipPath id="clip1_8401_111006"><path fill="#fff" transform="translate(0 21.602)" d="M0 0h657.003v567.593H0z"/></clipPath></defs></svg>