<svg width="32" height="33" viewBox="0 0 32 33" fill="none" xmlns="http://www.w3.org/2000/svg"><g filter="url(#filter0_d_8618_2148)"><rect x="4" y="4.5" width="24" height="24" rx="12" fill="#F2F2F2"/><path d="M13.165 20.5c-.299 0-.518-.065-.658-.196-.13-.14-.196-.34-.196-.602a.93.93 0 0 1 .126-.462c.084-.15.205-.308.364-.476l2.814-2.996c.43-.448.737-.854.924-1.218.186-.373.28-.747.28-1.12 0-.467-.15-.821-.448-1.064-.29-.243-.714-.364-1.274-.364-.318 0-.635.047-.952.14-.318.084-.64.233-.966.448-.168.112-.327.159-.476.14a.684.684 0 0 1-.378-.182.798.798 0 0 1-.21-.378.814.814 0 0 1 .014-.448.818.818 0 0 1 .336-.406 4.65 4.65 0 0 1 1.344-.616 5.627 5.627 0 0 1 1.512-.21c.71 0 1.306.107 1.792.322.485.215.854.527 1.106.938.252.41.378.91.378 1.498 0 .392-.066.775-.196 1.148a4.474 4.474 0 0 1-.574 1.134 8.793 8.793 0 0 1-.994 1.218L14.2 19.492v-.476h4.116c.252 0 .443.06.574.182.13.121.196.303.196.546 0 .243-.066.43-.196.56-.13.13-.322.196-.574.196h-5.152z" fill="#009E96"/></g><defs><filter id="filter0_d_8618_2148" x="0" y=".5" width="32" height="32" filterUnits="userSpaceOnUse" color-interpolation-filters="sRGB"><feFlood flood-opacity="0" result="BackgroundImageFix"/><feColorMatrix in="SourceAlpha" type="matrix" values="0 0 0 0 0 0 0 0 0 0 0 0 0 0 0 0 0 0 127 0" result="hardAlpha"/><feMorphology radius="4" operator="dilate" in="SourceAlpha" result="effect1_dropShadow_8618_2148"/><feOffset/><feColorMatrix type="matrix" values="0 0 0 0 0.8 0 0 0 0 0.952941 0 0 0 0 0.937255 0 0 0 1 0"/><feBlend mode="normal" in2="BackgroundImageFix" result="effect1_dropShadow_8618_2148"/><feBlend mode="normal" in="SourceGraphic" in2="effect1_dropShadow_8618_2148" result="shape"/></filter></defs></svg>