<svg width="32" height="32" viewBox="0 0 32 32" fill="none" xmlns="http://www.w3.org/2000/svg"><path d="M0 8a8 8 0 0 1 8-8h16a8 8 0 0 1 8 8v16a8 8 0 0 1-8 8H8a8 8 0 0 1-8-8V8z" fill="#EDFAF7"/><path d="M16 6c-4.685 0-8.5 3.815-8.5 8.5 0 2.103.772 4.032 2.04 5.516l.003.004.003.003s3.616 4.127 4.903 5.355a2.258 2.258 0 0 0 3.1 0c1.468-1.4 4.906-5.357 4.906-5.357l.002-.002.003-.003A8.466 8.466 0 0 0 24.5 14.5C24.5 9.815 20.685 6 16 6zm0 1.5c3.875 0 7 3.125 7 7a6.95 6.95 0 0 1-1.68 4.541c-.008.008-3.525 4.03-4.805 5.252a.731.731 0 0 1-1.03 0c-1.07-1.021-4.794-5.24-4.805-5.252l-.001-.001A6.954 6.954 0 0 1 9 14.5c0-3.875 3.125-7 7-7zm0 4c-.938 0-1.736.379-2.248.955-.513.577-.752 1.316-.752 2.045 0 .73.24 1.468.752 2.045.512.576 1.31.955 2.248.955.938 0 1.736-.379 2.248-.955A3.069 3.069 0 0 0 19 14.5c0-.73-.24-1.468-.752-2.045-.512-.576-1.31-.955-2.248-.955zm0 1.5c.563 0 .89.184 1.127.451.238.267.373.653.373 1.049 0 .396-.136.782-.373 1.049-.238.267-.564.451-1.127.451-.563 0-.89-.184-1.127-.451s-.373-.653-.373-1.049c0-.396.136-.782.373-1.049.238-.267.565-.451 1.127-.451z" fill="#009E96"/></svg>