<svg width="367" height="843" viewBox="0 0 367 843" fill="none" xmlns="http://www.w3.org/2000/svg"><g filter="url(#filter0_dd_8659_21526)"><mask id="path-1-inside-1_8659_21526" fill="#fff"><path fill-rule="evenodd" clip-rule="evenodd" d="M12 8a8 8 0 0 1 8-8h327a8 8 0 0 1 8 8v214.063c-8.963.761-16 8.277-16 17.437 0 9.16 7.037 16.676 16 17.437V811a8 8 0 0 1-8 8H20a8 8 0 0 1-8-8V256.937c8.963-.761 16-8.277 16-17.437 0-9.16-7.037-16.676-16-17.437V8z"/></mask><path fill-rule="evenodd" clip-rule="evenodd" d="M12 8a8 8 0 0 1 8-8h327a8 8 0 0 1 8 8v214.063c-8.963.761-16 8.277-16 17.437 0 9.16 7.037 16.676 16 17.437V811a8 8 0 0 1-8 8H20a8 8 0 0 1-8-8V256.937c8.963-.761 16-8.277 16-17.437 0-9.16-7.037-16.676-16-17.437V8z" fill="#fff"/><path d="M355 222.063l.085.997.915-.078v-.919h-1zm0 34.874h1v-.919l-.915-.078-.085.997zm-343 0l-.085-.997-.915.078v.919h1zm0-34.874h-1v.919l.915.078.085-.997zM20-1a9 9 0 0 0-9 9h2a7 7 0 0 1 7-7v-2zm327 0H20v2h327v-2zm9 9a9 9 0 0 0-9-9v2a7 7 0 0 1 7 7h2zm0 214.063V8h-2v214.063h2zM340 239.5c0-8.636 6.635-15.723 15.085-16.44l-.17-1.993c-9.476.804-16.915 8.749-16.915 18.433h2zm15.085 16.44c-8.45-.717-15.085-7.804-15.085-16.44h-2c0 9.684 7.439 17.629 16.915 18.433l.17-1.993zM356 811V256.937h-2V811h2zm-9 9a9 9 0 0 0 9-9h-2a7 7 0 0 1-7 7v2zm-327 0h327v-2H20v2zm-9-9a9 9 0 0 0 9 9v-2a7 7 0 0 1-7-7h-2zm0-554.063V811h2V256.937h-2zM27 239.5c0 8.636-6.635 15.723-15.085 16.44l.17 1.993C21.56 257.129 29 249.184 29 239.5h-2zm-15.085-16.44c8.45.717 15.085 7.804 15.085 16.44h2c0-9.684-7.44-17.629-16.915-18.433l-.17 1.993zM11 8v214.063h2V8h-2z" fill="#E6EAED" mask="url(#path-1-inside-1_8659_21526)"/></g><defs><filter id="filter0_dd_8659_21526" x="0" y="0" width="367" height="843" filterUnits="userSpaceOnUse" color-interpolation-filters="sRGB"><feFlood flood-opacity="0" result="BackgroundImageFix"/><feColorMatrix in="SourceAlpha" type="matrix" values="0 0 0 0 0 0 0 0 0 0 0 0 0 0 0 0 0 0 127 0" result="hardAlpha"/><feMorphology radius="4" operator="erode" in="SourceAlpha" result="effect1_dropShadow_8659_21526"/><feOffset dy="12"/><feGaussianBlur stdDeviation="8"/><feColorMatrix type="matrix" values="0 0 0 0 0.0627451 0 0 0 0 0.0941176 0 0 0 0 0.156863 0 0 0 0.08 0"/><feBlend mode="normal" in2="BackgroundImageFix" result="effect1_dropShadow_8659_21526"/><feColorMatrix in="SourceAlpha" type="matrix" values="0 0 0 0 0 0 0 0 0 0 0 0 0 0 0 0 0 0 127 0" result="hardAlpha"/><feMorphology radius="2" operator="erode" in="SourceAlpha" result="effect2_dropShadow_8659_21526"/><feOffset dy="4"/><feGaussianBlur stdDeviation="3"/><feColorMatrix type="matrix" values="0 0 0 0 0.0627451 0 0 0 0 0.0941176 0 0 0 0 0.156863 0 0 0 0.03 0"/><feBlend mode="normal" in2="effect1_dropShadow_8659_21526" result="effect2_dropShadow_8659_21526"/><feBlend mode="normal" in="SourceGraphic" in2="effect2_dropShadow_8659_21526" result="shape"/></filter></defs></svg>