<svg width="330" height="231" viewBox="0 0 330 231" fill="none" xmlns="http://www.w3.org/2000/svg"><path d="M330 .663v84.262c0 4.147-.172 8.249-.515 12.307-5.492 65.856-54.679 119.293-118.492 131.234a146.383 146.383 0 0 1-27.034 2.5h-37.922a146.485 146.485 0 0 1-29.482-2.979C50.035 214.35 0 155.481 0 84.925V.663h330z" fill="#E2E2E2"/><path d="M323.523 100.738s-10.385 64.847-59.274 97.699l-15.278-22.917s30.688-17.988 48.974-74.782h25.578zM3.132 81.737s3.067 75.465 56.21 113.52l18.547-21.57s-43.156-26.97-46.445-91.95H3.132zM31.444 3.996H3.132v62.366h28.312V3.996zM284.862 92.07l-.479-.096-17.288-3.442c-1.608 13.32-3.462 25.092-8.503 34.842-9.65 18.635-20.505 25.402-20.505 25.402l10.381 14.108c28.859-25.382 36.108-51.555 37.925-63.577.069-.458.073-.478.129-.896l-1.849-.029.189-6.312z" fill="#66AFFF"/><path d="M44.226 81.793s-2.16 43.599 35.618 79.606l11.285-14.168s-13.533-9.73-21.345-29.213c-4.08-10.192-6.147-23.283-5.448-37.467l-20.11 1.242z" fill="#66AFFF"/><path d="M60.597 98.225l-10.911 1.254a94.644 94.644 0 0 1-1.206-14.63l12.121-.724m-7.426 29.724a81.08 81.08 0 0 1-2.87-11.257m9.038 25.868a94.965 94.965 0 0 1-5.444-12.464m12.878 24.432a94.313 94.313 0 0 1-6.357-9.975m25.354 16.779l-6.252 7.598c-3.076-3.059-8.76-9.142-11.39-12.588" stroke="#3395FF" stroke-width="2.814" stroke-miterlimit="10"/><path d="M36.357 66.07V1.607m44.716 167.44a126.139 126.139 0 0 1-44.008-87.31M292.392 0v72.912a126.128 126.128 0 0 1-43.421 95.367" stroke="#C1C1C1" stroke-width=".402" stroke-miterlimit="10"/><path d="M253.606 138.306l7.068 5.769a109.697 109.697 0 0 1-9.874 11.036l-6.634-7.992m17.353-21.004l8.012 4.748a109.83 109.83 0 0 1-7.281 11.153m15.334-28.995a102.343 102.343 0 0 1-6.199 13.625m1.608-31.279l9.155 2.09a108.137 108.137 0 0 1-3.719 13.51M8.772 62.346V9.528h18.575m2.923 109.576l-13.384 4.704a122.008 122.008 0 0 1-7.044-37.074m23.488 71.675a122.143 122.143 0 0 1-15.487-32.072m51.651 48.596l-11.152 12.246c-9.53-7.422-16.296-16.21-23.251-26.057l14.208-9.766m238.827 17.04a124.944 124.944 0 0 1-21.212 19.965l-9.328-16.05m48.866-33.109a124.553 124.553 0 0 1-16.798 27.34l-14.321-11.608m25.338-46.38l15.008-.116a123.283 123.283 0 0 1-8.262 28.545l-16.082-4.824" stroke="#3395FF" stroke-width="2.814" stroke-miterlimit="10"/><path d="M318.771 6.976v70.306" stroke="#D8D8D8" stroke-width="2.814" stroke-miterlimit="10"/><path d="M64.783 63.677l-20.907-.217V6.976h41.492l-.06 33.233h-20.39l-.136 23.468z" fill="#66AFFF"/><path d="M200.72.663a34.637 34.637 0 0 1-10.147 23.158 34.686 34.686 0 0 1-24.582 10.18h-3.707A34.759 34.759 0 0 1 127.547.663h73.173z" fill="#5A6064"/><path d="M211.507.663a44.516 44.516 0 0 1-44.455 42.272h-6.561A44.516 44.516 0 0 1 116.036.663h95.471z" stroke="#605F5F" stroke-width=".402" stroke-miterlimit="10"/><path d="M239.715 179.179a28.713 28.713 0 0 1-8.411 20.312 28.716 28.716 0 0 1-20.312 8.414v20.561a146.452 146.452 0 0 1-27.033 2.501h-37.922a146.557 146.557 0 0 1-29.482-2.979v-20.083a28.725 28.725 0 0 1-21.266-48.054 28.732 28.732 0 0 1 13.993-8.467 28.732 28.732 0 0 1 29.747 9.919 28.721 28.721 0 0 1 6.111 15.17h37.242a28.725 28.725 0 0 1 49.393-17.141 28.723 28.723 0 0 1 7.928 19.847h.012z" fill="#5A6064"/><path d="M282.888 43.937h-15.105v17.42h15.105v-17.42zm0 22.78h-15.105v17.42h15.105v-17.42zm-20.943-22.676V87.27c0 2.267-.105 4.51-.302 6.726-1.893 21.172-10.819 38.44-26.985 51.68-5.263-6.148-14.937-8.713-23.665-8.492-23.882.607-36.884 11.427-38.247 26.021h-18.358c-3.265-20.424-22.893-26.021-37.845-26.021-8.081 0-14.044-.776-22.555 6.972-16.93-14.578-25.583-33.708-25.583-56.886V44.04h57.896c8.125 8.72 21.308 11.358 34.174 11.358h6.578c12.865 0 25.245-2.638 33.37-11.358h61.522z" fill="#66AFFF"/><path d="M158.738 60.484h-31.605v11.752h31.605V60.484zm42.404 0h-31.605v11.752h31.605V60.484zm-15.535 35.252h-25.538v11.752h25.538V95.736zm-35.44 0h-25.539v11.752h25.539V95.736zm-34.79 0H89.838v11.752h25.539V95.736zm73.7 24.256h-25.538v11.752h25.538v-11.752zm-32.245 0h-25.538v11.752h25.538v-11.752zm-34.391 0H96.902v11.752h25.539v-11.752zM82.14 60.484v23.882h11.75V60.484H82.14zm143.275 0h-11.752v11.752h11.752V60.484zm20.986-.176h-11.752V72.06h11.752V60.308zm33.813-13.638h-9.762v12.025h9.762V46.67zm-33.813 29.009h-11.752V87.43h11.752V75.679zm33.721-6.237h-9.577v11.76h9.577v-11.76zm-54.708 26.294h-11.752v11.752h11.752V95.736zm-18.953 0h-11.752v11.752h11.752V95.736zm2.614 24.256h-11.752v11.752h11.752v-11.752z" fill="#3395FF"/><path d="M61.035 59.138l-13.046-.205V11.157h32.695l-.06 27.5" stroke="#3395FF" stroke-width="2.814" stroke-miterlimit="10"/><path d="M330 .663v84.262c0 4.147-.171 8.249-.514 12.307H285.73V40.366h-71.034V.663H330z" fill="#66AFFF"/><path d="M299.332 89.224h23.62V66.918h-23.62m0-8.548h23.62V36.482h-23.62m13.903-10.642h9.717V7.993h-33.318V25.84h12.263m-20.38.993V7.993h-27.81m-31.972 25.116V20.553h25.872v12.556m1.206-25.116h-25.872" stroke="#3395FF" stroke-width="2.814" stroke-miterlimit="10"/><path d="M150.222 18.233V8.37h4.065a7.31 7.31 0 0 1 1.63.165c.478.1.886.259 1.225.478.349.21.613.478.792.807.18.329.269.722.269 1.18 0 .38-.079.718-.239 1.017-.159.289-.413.523-.762.703-.349.179-.802.303-1.36.373v.224c.946.06 1.644.294 2.092.703.449.398.673.941.673 1.629 0 .568-.15 1.046-.449 1.435-.299.378-.742.667-1.33.866-.578.19-1.3.284-2.167.284h-4.439zm2.063-1.733h2.361c.249 0 .483-.015.703-.045.219-.04.418-.1.597-.18a.919.919 0 0 0 .404-.373c.1-.16.149-.359.149-.598 0-.22-.039-.404-.119-.553a1.04 1.04 0 0 0-.329-.388c-.139-.11-.309-.2-.508-.27a2.441 2.441 0 0 0-.643-.134 5.66 5.66 0 0 0-.732-.045h-1.883V16.5zm0-3.946h1.539c.329 0 .628-.02.897-.06.279-.04.518-.104.717-.194.21-.1.369-.23.479-.389.119-.169.179-.378.179-.627 0-.24-.05-.434-.15-.583a1.014 1.014 0 0 0-.418-.374 2.21 2.21 0 0 0-.628-.194 4.264 4.264 0 0 0-.732-.06h-1.883v2.481zm7.084 5.68l3.363-9.865h3.124l3.377 9.864h-2.346l-2.481-8.16h-.209l-2.496 8.16h-2.332zm1.883-1.929v-1.48h6.397v1.48h-6.397zm9.302 1.928V8.37h4.005c.478 0 .927.04 1.345.12.419.07.797.18 1.136.329.349.15.648.338.897.568.259.229.453.503.583.822.129.309.194.662.194 1.06 0 .35-.055.663-.165.942a1.992 1.992 0 0 1-.478.748 2.676 2.676 0 0 1-.837.523 4.53 4.53 0 0 1-1.151.269v.209c.509.06.917.18 1.226.359.309.179.548.423.717.732.18.309.334.692.464 1.15l.583 2.033h-2.377l-.448-1.868c-.09-.398-.219-.712-.389-.941a1.32 1.32 0 0 0-.642-.479 2.71 2.71 0 0 0-.912-.134h-1.599v3.422h-2.152zm2.152-5.051h1.39c.169 0 .358-.005.568-.015.209-.01.418-.04.627-.09.22-.05.414-.13.583-.239.18-.11.324-.264.434-.463.119-.2.179-.454.179-.762 0-.32-.055-.578-.164-.778a1.27 1.27 0 0 0-.419-.463 1.852 1.852 0 0 0-.538-.24 2.76 2.76 0 0 0-.538-.089 7.193 7.193 0 0 0-.404-.015h-1.718v3.154zM133.72 203.59v-1.568h2.537c.31 0 .598-.048.863-.146a1.71 1.71 0 0 0 .704-.465c.204-.221.359-.509.465-.863.115-.363.173-.802.173-1.315 0-.496-.053-.921-.159-1.276a2.098 2.098 0 0 0-.465-.89 1.728 1.728 0 0 0-.784-.518 3.369 3.369 0 0 0-1.089-.159h-2.245v-1.568h2.178c1.063 0 1.931.173 2.604.518.673.346 1.164.842 1.474 1.488.319.638.479 1.404.479 2.298 0 .691-.085 1.289-.253 1.794-.159.505-.381.93-.664 1.275a3.623 3.623 0 0 1-.943.824 4.023 4.023 0 0 1-1.129.438 5.18 5.18 0 0 1-1.156.133h-2.59zm-.904 0v-8.768h1.913v8.768h-1.913zm8.366.093l-.133-1.754c.097.018.195.031.292.04h.226c.372 0 .655-.053.85-.159a.876.876 0 0 0 .412-.505c.08-.23.119-.531.119-.903v-5.58h1.913v5.593c0 .717-.102 1.324-.305 1.82a2.262 2.262 0 0 1-.97 1.116c-.443.257-1.014.385-1.714.385-.079 0-.172-.004-.279-.013a19.007 19.007 0 0 1-.411-.04zm8.564-.093v-8.768h3.613c.54 0 1.023.049 1.448.147.425.088.788.23 1.089.425.31.186.545.425.704.717.16.292.239.642.239 1.049a1.9 1.9 0 0 1-.212.904c-.142.257-.368.465-.678.624-.31.159-.713.27-1.209.332v.199c.842.054 1.462.262 1.86.625.399.354.598.837.598 1.448 0 .505-.133.93-.399 1.275-.265.337-.659.593-1.182.77-.514.169-1.156.253-1.926.253h-3.945zm1.833-1.541h2.099c.221 0 .429-.013.624-.04a2.34 2.34 0 0 0 .531-.159.822.822 0 0 0 .359-.332.983.983 0 0 0 .133-.532c0-.195-.036-.358-.106-.491a.931.931 0 0 0-.293-.346 1.565 1.565 0 0 0-.451-.239 2.152 2.152 0 0 0-.572-.119 4.943 4.943 0 0 0-.65-.04h-1.674v2.298zm0-3.507h1.368c.292 0 .558-.018.797-.053.248-.036.461-.093.638-.173a1.05 1.05 0 0 0 .425-.345.947.947 0 0 0 .159-.558c0-.213-.044-.385-.133-.518a.89.89 0 0 0-.372-.332 1.936 1.936 0 0 0-.558-.173 3.728 3.728 0 0 0-.65-.053h-1.674v2.205zm10.943 5.234c-.638 0-1.209-.098-1.714-.292a3.684 3.684 0 0 1-1.302-.877 4.095 4.095 0 0 1-.823-1.422c-.186-.566-.279-1.213-.279-1.939 0-1.036.181-1.891.544-2.564.364-.682.86-1.191 1.488-1.528.629-.345 1.342-.518 2.139-.518.62 0 1.182.102 1.687.306.505.195.934.487 1.289.877.363.38.642.854.837 1.421.194.567.292 1.222.292 1.966 0 .753-.102 1.413-.306 1.979a3.967 3.967 0 0 1-.837 1.435 3.506 3.506 0 0 1-1.315.864 4.707 4.707 0 0 1-1.7.292zm.04-1.528c.248 0 .496-.044.744-.133.256-.088.491-.239.704-.451.221-.213.394-.51.518-.89.124-.39.186-.877.186-1.462 0-.708-.093-1.288-.279-1.74-.177-.46-.434-.801-.771-1.023a1.97 1.97 0 0 0-1.129-.332c-.23 0-.474.044-.73.133-.248.08-.483.23-.704.452-.222.212-.399.513-.532.903s-.199.894-.199 1.514c0 .585.062 1.072.186 1.462.124.38.288.686.491.916.213.23.448.399.704.505.266.097.536.146.811.146zm9.495 1.528c-.638 0-1.209-.098-1.714-.292a3.675 3.675 0 0 1-1.302-.877 4.095 4.095 0 0 1-.823-1.422c-.186-.566-.279-1.213-.279-1.939 0-1.036.181-1.891.544-2.564.364-.682.859-1.191 1.488-1.528.629-.345 1.342-.518 2.139-.518.62 0 1.182.102 1.687.306.505.195.934.487 1.289.877.363.38.642.854.836 1.421.195.567.293 1.222.293 1.966 0 .753-.102 1.413-.306 1.979a3.967 3.967 0 0 1-.837 1.435 3.506 3.506 0 0 1-1.315.864 4.707 4.707 0 0 1-1.7.292zm.04-1.528c.248 0 .496-.044.744-.133.256-.088.491-.239.704-.451.221-.213.394-.51.518-.89.124-.39.186-.877.186-1.462 0-.708-.093-1.288-.279-1.74-.177-.46-.434-.801-.771-1.023a1.97 1.97 0 0 0-1.129-.332c-.23 0-.474.044-.731.133-.247.08-.482.23-.704.452-.221.212-.398.513-.531.903s-.199.894-.199 1.514c0 .585.062 1.072.186 1.462.124.38.288.686.491.916.213.23.448.399.704.505.266.097.536.146.811.146zm7.283 1.342v-8.768h1.926v8.768h-1.926zm-2.551-7.16v-1.608h7.041v1.608h-7.041zm13.94 7.16v-8.768h1.9v8.768h-1.9zm-5.712 0v-8.768h1.913v8.768h-1.913zm1.143-3.653v-1.568h5.34v1.568h-5.34zM116.872 89.19v-1.867h3.023a2.96 2.96 0 0 0 1.028-.174c.327-.116.607-.3.839-.554.242-.264.427-.606.554-1.028.137-.433.205-.955.205-1.567 0-.59-.063-1.097-.189-1.52-.117-.432-.301-.785-.554-1.06a2.05 2.05 0 0 0-.934-.617 4.021 4.021 0 0 0-1.298-.19h-2.674v-1.867h2.595c1.266 0 2.3.206 3.102.617.802.412 1.387 1.002 1.756 1.773.38.76.57 1.672.57 2.737 0 .823-.1 1.535-.301 2.137-.189.601-.453 1.107-.791 1.519a4.31 4.31 0 0 1-1.123.981 4.76 4.76 0 0 1-1.345.522 6.21 6.21 0 0 1-1.377.158h-3.086zm-1.076 0V78.746h2.279V89.19h-2.279zm12.762.222c-.464 0-.876-.09-1.234-.269a2.091 2.091 0 0 1-.855-.775c-.2-.349-.301-.77-.301-1.266 0-.58.127-1.04.38-1.377.264-.338.596-.596.997-.776a5.41 5.41 0 0 1 1.298-.38c.453-.084.875-.152 1.266-.205.358-.053.648-.106.87-.158.222-.064.38-.148.475-.254a.658.658 0 0 0 .158-.459c0-.21-.047-.395-.142-.553a1.007 1.007 0 0 0-.428-.38c-.19-.106-.437-.158-.743-.158-.296 0-.575.052-.839.158a1.735 1.735 0 0 0-.681.49c-.179.211-.3.48-.364.808l-2.025-.57a3.5 3.5 0 0 1 .522-1.171c.243-.327.533-.596.87-.807a3.699 3.699 0 0 1 1.14-.49 5.67 5.67 0 0 1 1.377-.16c.643 0 1.192.08 1.645.238.454.159.818.401 1.092.728.285.317.491.707.617 1.171.138.454.206.976.206 1.567v1.424a39.89 39.89 0 0 0 .063 2.263l.095 1.14h-2.009a79.567 79.567 0 0 0-.111-.934 16.655 16.655 0 0 1-.063-1.06h-.269a4.12 4.12 0 0 1-.633 1.123 3.044 3.044 0 0 1-1.013.807c-.401.19-.855.285-1.361.285zm.965-1.662c.201 0 .401-.031.601-.095.211-.073.412-.179.602-.316.2-.137.38-.311.538-.522a2.45 2.45 0 0 0 .395-.712l-.031-1.25.364.063a2.22 2.22 0 0 1-.649.332 5.594 5.594 0 0 1-.775.174c-.264.042-.528.09-.792.143a4.08 4.08 0 0 0-.712.205c-.211.085-.38.2-.506.348-.127.148-.19.349-.19.602 0 .316.105.57.316.76.222.179.502.268.839.268zm6.268 1.44v-8.308h1.867l-.016 2.58h.301c.137-.686.337-1.23.601-1.63.274-.411.601-.707.981-.886.391-.19.828-.285 1.314-.285.548 0 .997.1 1.345.3.359.19.643.444.854.76a3.6 3.6 0 0 1 .475 1.045c.106.369.174.738.206 1.107.031.37.047.702.047.997v4.32h-2.278v-4.05c0-.201-.011-.444-.032-.729a3.293 3.293 0 0 0-.174-.838 1.521 1.521 0 0 0-.443-.712c-.201-.19-.486-.285-.855-.285-.422 0-.775.132-1.06.395-.274.254-.485.602-.633 1.045a4.679 4.679 0 0 0-.222 1.487v3.687h-2.278zm13.736.222c-.718 0-1.346-.106-1.884-.317a3.654 3.654 0 0 1-1.345-.886 3.812 3.812 0 0 1-.791-1.345 5.337 5.337 0 0 1-.269-1.725c0-.654.09-1.25.269-1.788a3.935 3.935 0 0 1 .807-1.424 3.66 3.66 0 0 1 1.329-.934c.528-.221 1.129-.332 1.804-.332.517 0 .982.069 1.393.206.411.126.77.31 1.076.553.306.233.554.517.744.855.2.327.332.696.395 1.108l-2.088.633a1.913 1.913 0 0 0-.269-.855 1.3 1.3 0 0 0-.554-.538 1.78 1.78 0 0 0-.807-.174c-.254 0-.491.053-.713.158-.21.095-.4.248-.569.46a2.31 2.31 0 0 0-.38.79c-.095.328-.142.723-.142 1.187 0 .623.079 1.13.237 1.52.169.39.406.68.712.87.306.18.665.269 1.076.269.412 0 .739-.085.981-.253.253-.17.438-.38.554-.633.127-.264.201-.538.222-.823l2.009.427a3.695 3.695 0 0 1-.316 1.171 2.858 2.858 0 0 1-.728.95c-.306.274-.691.49-1.155.648-.454.148-.987.222-1.598.222zm5.071-.222v-8.308h2.279v8.308h-2.279zm1.139-9.51c-.443 0-.786-.095-1.028-.285-.232-.19-.348-.459-.348-.807 0-.37.116-.649.348-.839.242-.19.585-.285 1.028-.285.454 0 .797.095 1.029.285.243.19.364.47.364.839 0 .348-.121.617-.364.807-.232.19-.575.285-1.029.285zm3.173 9.51v-8.308h1.867l-.016 2.58h.301c.137-.686.337-1.23.601-1.63.274-.411.601-.707.981-.886.391-.19.828-.285 1.314-.285.548 0 .997.1 1.345.3a2.3 2.3 0 0 1 .854.76 3.6 3.6 0 0 1 .475 1.045c.106.369.174.738.206 1.107.031.37.047.702.047.997v4.32h-2.278v-4.05c0-.201-.011-.444-.032-.729a3.293 3.293 0 0 0-.174-.838 1.521 1.521 0 0 0-.443-.712c-.201-.19-.486-.285-.855-.285-.422 0-.775.132-1.06.395-.274.254-.485.602-.633 1.045a4.679 4.679 0 0 0-.222 1.487v3.687h-2.278zm13.182 2.865c-.918 0-1.667-.074-2.247-.222-.581-.137-1.008-.343-1.282-.617a1.405 1.405 0 0 1-.396-1.013c0-.485.19-.88.57-1.187.38-.306.949-.49 1.709-.553v-.301c-.58 0-1.023-.064-1.329-.19-.296-.127-.444-.343-.444-.649 0-.295.148-.559.444-.791.295-.232.791-.412 1.487-.538v-.3c-.643-.054-1.15-.27-1.519-.65s-.554-.87-.554-1.471c0-.528.148-.997.443-1.409.296-.422.733-.754 1.314-.997.58-.253 1.292-.38 2.136-.38h4.209v1.757l-2.642-.364v.332c.685.106 1.181.285 1.487.538.306.243.459.575.459.997 0 .433-.142.813-.427 1.14-.275.327-.675.585-1.203.775-.517.18-1.145.27-1.883.27-.137 0-.29-.006-.459-.017a68.5 68.5 0 0 0-.76-.095c-.2.159-.358.29-.474.396-.116.105-.174.206-.174.3 0 .075.037.138.11.19a1.1 1.1 0 0 0 .317.096c.126.02.258.031.396.031h2.389c.211 0 .485.016.823.048.338.031.675.116 1.013.253a1.9 1.9 0 0 1 .854.649c.232.295.348.722.348 1.282 0 .611-.174 1.113-.522 1.503-.337.4-.854.696-1.551.886-.696.2-1.577.3-2.642.3zm.237-1.836c.644 0 1.145-.037 1.503-.11.37-.064.628-.17.776-.317a.754.754 0 0 0 .221-.554c0-.211-.047-.375-.142-.49a.715.715 0 0 0-.348-.238 1.478 1.478 0 0 0-.428-.095 5.312 5.312 0 0 0-.364-.016h-2.009c-.443.042-.76.158-.95.348a.91.91 0 0 0-.285.665c0 .211.074.374.222.49.148.117.369.196.665.238.306.053.685.079 1.139.079zm-.016-5.19c.496 0 .871-.122 1.124-.364.253-.254.38-.575.38-.966 0-.422-.132-.77-.396-1.044-.253-.275-.623-.412-1.108-.412-.485 0-.865.138-1.139.412-.264.264-.396.606-.396 1.028 0 .264.058.501.174.712.127.201.301.36.522.475.233.106.512.158.839.158zm9.625 4.161V78.746h2.279V89.19h-2.279zm1.077-3.908v-1.868h6.045v1.868h-6.045zm0-4.59v-1.946h6.63v1.947h-6.63zm8.085 8.498V77.907h2.247V89.19H191.1zm8.047.222c-.833 0-1.566-.163-2.199-.49a3.636 3.636 0 0 1-1.488-1.472c-.358-.654-.538-1.467-.538-2.437 0-.97.18-1.778.538-2.422a3.528 3.528 0 0 1 1.504-1.44c.633-.327 1.355-.49 2.168-.49.833 0 1.566.163 2.199.49a3.513 3.513 0 0 1 1.488 1.472c.369.644.554 1.45.554 2.421 0 .992-.185 1.81-.554 2.453a3.514 3.514 0 0 1-1.519 1.44c-.644.317-1.361.475-2.153.475zm.064-1.693c.253 0 .49-.042.712-.127.221-.084.417-.221.585-.411a2 2 0 0 0 .412-.792c.105-.337.158-.743.158-1.218 0-.507-.058-.934-.174-1.282-.106-.348-.253-.628-.443-.839a1.532 1.532 0 0 0-.633-.474 2.068 2.068 0 0 0-1.472-.016 1.422 1.422 0 0 0-.585.427c-.169.19-.306.449-.412.776-.105.327-.158.733-.158 1.218 0 .506.053.934.158 1.282.106.348.253.633.443.854.19.211.406.364.649.46.243.094.496.142.76.142zm9.533 1.693c-.833 0-1.566-.163-2.199-.49a3.636 3.636 0 0 1-1.488-1.472c-.359-.654-.538-1.467-.538-2.437 0-.97.179-1.778.538-2.422a3.526 3.526 0 0 1 1.503-1.44c.633-.327 1.356-.49 2.168-.49.834 0 1.567.163 2.2.49a3.513 3.513 0 0 1 1.488 1.472c.369.644.553 1.45.553 2.421 0 .992-.184 1.81-.553 2.453a3.511 3.511 0 0 1-1.52 1.44c-.643.317-1.361.475-2.152.475zm.064-1.693c.253 0 .49-.042.712-.127.221-.084.416-.221.585-.411a2 2 0 0 0 .412-.792c.105-.337.158-.743.158-1.218 0-.507-.058-.934-.174-1.282-.106-.348-.253-.628-.443-.839a1.532 1.532 0 0 0-.633-.474 2.068 2.068 0 0 0-1.472-.016 1.425 1.425 0 0 0-.586.427c-.168.19-.305.449-.411.776-.105.327-.158.733-.158 1.218 0 .506.053.934.158 1.282.106.348.253.633.443.854.19.211.406.364.649.46.243.094.496.142.76.142zm5.751 1.471v-8.308h1.899l-.016 2.88h.301c.084-.717.227-1.302.427-1.756.2-.454.48-.786.839-.997.369-.211.823-.317 1.361-.317a3.364 3.364 0 0 1 .728.08l-.08 2.42a2.94 2.94 0 0 0-1.06-.206 1.894 1.894 0 0 0-1.044.286 2.02 2.02 0 0 0-.712.823c-.169.359-.29.802-.364 1.33v3.765h-2.279zM60.015 30.84a.456.456 0 0 1-.325-.11.445.445 0 0 1-.11-.316c0-.138.036-.24.11-.309a.479.479 0 0 1 .325-.103h.886v-3.885h.49l-1.163.704a.458.458 0 0 1-.285.071.442.442 0 0 1-.221-.11.504.504 0 0 1-.119-.222.417.417 0 0 1 .016-.253.46.46 0 0 1 .206-.221l1.092-.657a2.28 2.28 0 0 1 .316-.159.718.718 0 0 1 .293-.07.41.41 0 0 1 .277.094c.074.058.11.156.11.293v4.415h.808c.137 0 .242.034.316.103.08.069.119.171.119.309 0 .137-.04.242-.119.316-.074.074-.18.11-.316.11h-2.706zm5.883.08c-.659 0-1.163-.248-1.51-.744-.35-.5-.523-1.213-.523-2.136 0-.623.076-1.145.23-1.567.157-.427.387-.749.688-.965.306-.216.677-.325 1.115-.325.665 0 1.169.243 1.512.728.348.486.522 1.192.522 2.12 0 .618-.08 1.143-.238 1.576-.153.427-.38.754-.68.98-.3.222-.673.333-1.116.333zm0-.83c.359 0 .623-.167.792-.5.174-.332.26-.851.26-1.558 0-.707-.086-1.219-.26-1.535-.17-.322-.433-.483-.792-.483-.353 0-.617.161-.79.483-.175.316-.262.828-.262 1.535s.087 1.226.261 1.559c.174.332.438.498.791.498zm3.605.75a.456.456 0 0 1-.324-.11.445.445 0 0 1-.11-.316c0-.138.036-.24.11-.309a.478.478 0 0 1 .324-.103h.886v-3.885h.491l-1.163.704a.458.458 0 0 1-.285.071.442.442 0 0 1-.222-.11.504.504 0 0 1-.118-.222.417.417 0 0 1 .016-.253.46.46 0 0 1 .205-.221l1.092-.657c.106-.063.211-.116.317-.159a.718.718 0 0 1 .293-.07.41.41 0 0 1 .276.094c.074.058.111.156.111.293v4.415h.807c.138 0 .243.034.317.103.079.069.118.171.118.309 0 .137-.04.242-.118.316-.074.074-.18.11-.317.11h-2.706zm186.424 2.702V27.74h1.266v5.802h-1.266zm.598-2.172v-1.037h3.358v1.038h-3.358zm0-2.55v-1.08h3.683v1.08h-3.683zm4.492 4.722v-6.268h1.248v6.268h-1.248zm4.514.123a3.05 3.05 0 0 1-1.019-.158 2.058 2.058 0 0 1-.748-.457 2.017 2.017 0 0 1-.466-.739 2.933 2.933 0 0 1-.158-.993c0-.364.05-.698.15-1.003a2.37 2.37 0 0 1 .448-.8 1.99 1.99 0 0 1 .73-.527c.287-.123.612-.185.975-.185.358 0 .672.059.941.176.276.117.504.29.686.519.182.229.313.507.396.835.087.328.117.706.087 1.134l-3.595.027v-.695l2.848-.026-.422.36c.041-.31.021-.566-.061-.765a.841.841 0 0 0-.352-.44.968.968 0 0 0-.519-.14c-.222 0-.419.059-.589.176-.164.117-.293.29-.387.519a2.227 2.227 0 0 0-.131.808c0 .498.108.865.325 1.1.217.228.504.342.861.342.165 0 .302-.02.414-.061a.823.823 0 0 0 .281-.176.761.761 0 0 0 .176-.238c.041-.088.073-.178.096-.272l1.108.229a1.765 1.765 0 0 1-.22.588 1.49 1.49 0 0 1-.404.458 1.776 1.776 0 0 1-.607.299c-.24.07-.521.105-.844.105zm2.335-.123l1.53-2.312-1.521-2.304h1.45l.844 1.724h.141l.835-1.724h1.451l-1.521 2.304 1.538 2.312h-1.45l-.853-1.732h-.141l-.835 1.732h-1.468zm5.428 0v-4.616h1.266v4.616h-1.266zm.633-5.284c-.246 0-.437-.052-.572-.158a.549.549 0 0 1-.193-.448c0-.206.065-.36.193-.466.135-.106.326-.159.572-.159.252 0 .442.053.571.159.135.105.203.26.203.466a.536.536 0 0 1-.203.448c-.129.105-.319.158-.571.158zm1.762 5.284v-4.616h1.038l-.009 1.434h.167c.076-.381.187-.683.334-.906.152-.229.334-.393.545-.492a1.64 1.64 0 0 1 .73-.159c.305 0 .554.056.747.167.199.106.358.247.475.422.117.176.205.37.264.58.058.206.096.41.114.616.017.205.026.39.026.554v2.4h-1.266v-2.25c0-.112-.006-.247-.017-.405a1.835 1.835 0 0 0-.097-.466.845.845 0 0 0-.246-.396c-.112-.105-.27-.158-.475-.158a.834.834 0 0 0-.589.22c-.152.14-.27.334-.352.58a2.605 2.605 0 0 0-.123.827v2.048h-1.266zm7.324 1.591c-.51 0-.926-.04-1.249-.123-.322-.076-.56-.19-.712-.343a.783.783 0 0 1-.22-.562c0-.27.106-.49.317-.66.211-.17.527-.272.949-.307v-.167c-.322 0-.568-.036-.738-.106-.164-.07-.246-.19-.246-.36 0-.165.082-.311.246-.44.164-.129.439-.229.826-.299V31.6c-.357-.03-.639-.15-.844-.36-.205-.211-.307-.484-.307-.818 0-.293.082-.554.246-.782.164-.235.407-.42.729-.554.323-.141.718-.211 1.187-.211h2.339v.976l-1.468-.203v.185c.381.059.656.158.826.299a.67.67 0 0 1 .255.554c0 .24-.079.451-.237.633-.153.181-.376.325-.669.43-.287.1-.635.15-1.046.15-.076 0-.161-.003-.255-.009-.088-.011-.228-.03-.422-.053a5.093 5.093 0 0 0-.263.22c-.065.059-.097.114-.097.167 0 .041.02.077.061.106a.632.632 0 0 0 .176.053c.071.011.144.017.22.017h1.328c.117 0 .269.009.457.026a2 2 0 0 1 .562.141c.188.07.346.19.475.36.129.165.193.402.193.713 0 .34-.096.618-.29.835-.187.223-.474.387-.861.492-.387.112-.876.167-1.468.167zm.131-1.02c.358 0 .636-.02.836-.061.205-.035.348-.094.43-.176a.415.415 0 0 0 .124-.308.418.418 0 0 0-.08-.272.393.393 0 0 0-.193-.132.818.818 0 0 0-.237-.053 2.933 2.933 0 0 0-.203-.009h-1.116c-.246.024-.422.088-.528.194a.508.508 0 0 0-.158.37c0 .116.041.207.123.272a.774.774 0 0 0 .369.131c.17.03.381.044.633.044zm-.008-2.883c.275 0 .483-.068.624-.202a.725.725 0 0 0 .211-.537.801.801 0 0 0-.22-.58c-.141-.152-.346-.229-.615-.229-.27 0-.481.077-.633.23a.771.771 0 0 0-.22.57c0 .147.032.279.097.396.07.111.167.2.29.264.129.059.284.088.466.088zm5.004 2.312v-1.187l2.928-3.455v-.097h-2.84V27.74h4.238v1.283l-2.849 3.367v.088h2.954v1.064h-4.431zm7.302.123c-.463 0-.87-.09-1.222-.273a2.02 2.02 0 0 1-.826-.817c-.2-.364-.299-.815-.299-1.354 0-.54.099-.988.299-1.345.205-.358.483-.624.835-.8a2.586 2.586 0 0 1 1.204-.273c.463 0 .871.091 1.222.273.352.182.628.454.827.817.205.358.308.806.308 1.346 0 .55-.103 1.005-.308 1.362a1.95 1.95 0 0 1-.844.8 2.673 2.673 0 0 1-1.196.264zm.035-.94a1.1 1.1 0 0 0 .396-.071.825.825 0 0 0 .325-.229c.1-.11.176-.257.229-.44.058-.187.088-.412.088-.676 0-.281-.032-.519-.097-.712a1.223 1.223 0 0 0-.246-.466.849.849 0 0 0-.352-.264 1.148 1.148 0 0 0-.817-.009.797.797 0 0 0-.326.238c-.093.105-.17.249-.228.43a2.22 2.22 0 0 0-.088.677c0 .282.029.52.088.713.058.193.14.351.246.474a.948.948 0 0 0 .36.255c.135.053.276.08.422.08zm3.196.817v-4.616h1.037l-.009 1.434h.167c.076-.381.188-.683.334-.906a1.36 1.36 0 0 1 .545-.492 1.64 1.64 0 0 1 .73-.159c.305 0 .554.056.747.167.2.106.358.247.475.422.117.176.205.37.264.58.058.206.097.41.114.616.018.205.027.39.027.554v2.4h-1.266v-2.25a5.47 5.47 0 0 0-.018-.405 1.835 1.835 0 0 0-.097-.466.845.845 0 0 0-.246-.396c-.111-.105-.27-.158-.475-.158a.836.836 0 0 0-.589.22c-.152.14-.269.334-.351.58a2.605 2.605 0 0 0-.123.827v2.048h-1.266zm7.639.123a3.05 3.05 0 0 1-1.019-.158 2.058 2.058 0 0 1-.748-.457 2.017 2.017 0 0 1-.466-.739 2.933 2.933 0 0 1-.158-.993c0-.364.05-.698.15-1.003a2.37 2.37 0 0 1 .448-.8 1.99 1.99 0 0 1 .73-.527c.287-.123.612-.185.976-.185.357 0 .671.059.94.176.276.117.504.29.686.519.182.229.314.507.396.835.087.328.117.706.087 1.134l-3.595.027v-.695l2.848-.026-.422.36c.041-.31.021-.566-.061-.765a.841.841 0 0 0-.352-.44.968.968 0 0 0-.519-.14c-.222 0-.419.059-.589.176-.164.117-.293.29-.387.519a2.227 2.227 0 0 0-.131.808c0 .498.108.865.325 1.1.217.228.504.342.861.342.165 0 .302-.02.414-.061a.823.823 0 0 0 .281-.176.761.761 0 0 0 .176-.238c.041-.088.073-.178.097-.272l1.107.229a1.765 1.765 0 0 1-.22.588 1.49 1.49 0 0 1-.404.458 1.776 1.776 0 0 1-.607.299c-.24.07-.521.105-.844.105zM14.84 36.57a.457.457 0 0 1-.325-.111.445.445 0 0 1-.11-.317c0-.137.037-.24.11-.309a.479.479 0 0 1 .325-.102h.886v-3.885h.49l-1.163.704a.459.459 0 0 1-.284.071.443.443 0 0 1-.222-.11.504.504 0 0 1-.119-.222.417.417 0 0 1 .016-.254.46.46 0 0 1 .206-.221l1.092-.657c.105-.063.21-.116.316-.158a.718.718 0 0 1 .293-.071.41.41 0 0 1 .277.095c.074.058.11.155.11.293v4.415h.808c.137 0 .242.034.316.102.08.07.119.172.119.31 0 .136-.04.242-.119.316-.073.073-.179.11-.316.11H14.84zm5.884.078c-.66 0-1.164-.248-1.512-.743-.348-.501-.522-1.214-.522-2.137 0-.622.076-1.144.23-1.566.158-.428.387-.75.688-.966.306-.216.678-.324 1.116-.324.664 0 1.168.243 1.51.728.349.485.523 1.192.523 2.12 0 .618-.08 1.143-.237 1.575-.153.427-.38.754-.68.981-.302.222-.673.332-1.116.332zm0-.83c.358 0 .622-.166.79-.499.175-.332.262-.852.262-1.559 0-.706-.087-1.218-.261-1.535-.169-.321-.433-.482-.791-.482-.354 0-.618.16-.792.482-.174.317-.26.829-.26 1.535 0 .707.086 1.227.26 1.56.174.331.438.498.792.498zm4.633.83c-.285 0-.58-.037-.886-.11a2.55 2.55 0 0 1-.8-.333.532.532 0 0 1-.213-.237.433.433 0 0 1-.031-.253.45.45 0 0 1 .118-.214.4.4 0 0 1 .23-.103.538.538 0 0 1 .308.071c.216.117.425.201.625.254.2.047.406.07.617.07.233 0 .428-.03.586-.094a.719.719 0 0 0 .356-.285.808.808 0 0 0 .127-.459c0-.264-.09-.459-.27-.585-.173-.132-.43-.198-.767-.198h-.506c-.148 0-.261-.037-.34-.11a.417.417 0 0 1-.111-.31.42.42 0 0 1 .11-.308c.08-.074.193-.11.34-.11h.412c.2 0 .372-.033.514-.096a.8.8 0 0 0 .333-.285.794.794 0 0 0 .118-.443c0-.242-.081-.427-.245-.554-.158-.126-.39-.19-.696-.19a2.1 2.1 0 0 0-.554.072 2.167 2.167 0 0 0-.562.245.43.43 0 0 1-.277.071.355.355 0 0 1-.213-.103.45.45 0 0 1-.119-.205.417.417 0 0 1 .016-.253.454.454 0 0 1 .198-.23 2.61 2.61 0 0 1 .751-.332c.275-.08.557-.119.847-.119.385 0 .715.06.989.182.274.116.483.285.625.506.148.217.222.48.222.792 0 .221-.043.424-.127.609a1.316 1.316 0 0 1-.91.728v-.095c.38.063.675.221.886.475.211.247.317.559.317.933 0 .327-.082.612-.245.855a1.58 1.58 0 0 1-.697.562c-.3.126-.66.19-1.076.19zm-11.164 66.611c-.295-.636-.421-1.241-.378-1.816a2.902 2.902 0 0 1 .61-1.547c.361-.463.863-.843 1.504-1.141.48-.223.943-.353 1.389-.391a3.03 3.03 0 0 1 1.266.14c.398.131.757.351 1.076.66.327.312.6.705.82 1.179.148.318.252.649.313.993.062.344.07.666.027.967a.616.616 0 0 1-.164.372.585.585 0 0 1-.3.17.532.532 0 0 1-.32-.03.472.472 0 0 1-.247-.213c-.054-.101-.07-.234-.048-.399a2.126 2.126 0 0 0-.018-.698 2.87 2.87 0 0 0-.215-.669c-.19-.41-.435-.718-.734-.924a1.744 1.744 0 0 0-1.026-.304c-.385.003-.81.112-1.272.326-.456.212-.813.465-1.07.76a1.739 1.739 0 0 0-.44.984c-.036.361.041.747.232 1.157.102.22.228.424.38.614.157.187.337.349.541.487.134.092.218.19.253.294a.446.446 0 0 1 .016.308.509.509 0 0 1-.178.251.577.577 0 0 1-.303.12.6.6 0 0 1-.357-.088 2.896 2.896 0 0 1-.776-.651 4.068 4.068 0 0 1-.58-.911zm1.633 3.475c-.08-.173-.096-.328-.046-.463.055-.138.173-.249.352-.332l5.15-2.389c.18-.083.337-.1.473-.05.135.049.243.161.324.334.08.174.095.328.046.464-.047.141-.16.253-.34.336l-2.245 1.042-.057-.122c.366-.015.688.075.968.268.287.197.51.466.669.807.158.341.224.651.199.93a1.292 1.292 0 0 1-.352.763c-.203.228-.501.433-.895.616l-2.098.973c-.18.083-.34.101-.48.054-.136-.049-.244-.161-.325-.334-.08-.174-.097-.331-.05-.472.055-.138.173-.249.352-.332l2.047-.949c.33-.153.54-.328.63-.525.095-.191.082-.417-.04-.677-.146-.318-.366-.525-.657-.622-.282-.094-.588-.064-.917.088l-1.9.881c-.37.172-.639.076-.808-.289zm2.361 5.069c-.08-.173-.09-.33-.028-.471.06-.141.184-.254.369-.34l3.182-1.476c.191-.089.357-.109.498-.063.147.045.261.154.341.327.08.173.09.33.03.471-.053.144-.175.26-.366.349l-3.182 1.476c-.185.086-.351.106-.498.062-.147-.044-.262-.156-.346-.335zm5.169-2.397c-.094-.202-.118-.384-.074-.545a.612.612 0 0 1 .349-.362c.185-.086.352-.097.501-.033.152.07.275.207.369.409.096.208.12.39.073.545-.047.156-.163.276-.348.362a.613.613 0 0 1-.501.032c-.15-.064-.273-.2-.369-.408zm-3.747 5.53c-.223-.48-.254-.904-.095-1.273.165-.372.513-.681 1.045-.927l4.102-1.903c.179-.083.336-.1.472-.05.135.05.243.161.323.335.08.173.096.327.047.463-.047.141-.16.253-.34.336l-4.05 1.879c-.265.123-.436.269-.513.438-.073.174-.062.366.035.574l.06.13.074.113c.049.076.051.142.007.197-.039.053-.142.119-.31.197a.635.635 0 0 1-.378.07c-.108-.021-.201-.093-.28-.218a19.356 19.356 0 0 1-.102-.174 2.269 2.269 0 0 1-.097-.187zm1.284 2.769c-.222-.48-.254-.904-.095-1.273.165-.371.513-.68 1.045-.927l4.102-1.902c.18-.084.337-.1.472-.051.135.05.243.161.324.335.08.173.096.328.046.463-.047.141-.16.253-.34.337l-4.049 1.878c-.266.123-.437.269-.513.438-.074.175-.062.366.034.574l.06.13.074.114c.05.075.052.141.007.197-.038.053-.141.118-.31.196a.635.635 0 0 1-.378.07c-.107-.02-.2-.093-.28-.218a19.356 19.356 0 0 1-.101-.174 2.269 2.269 0 0 1-.098-.187zm.888 1.847c-.08-.173-.09-.331-.028-.471.06-.141.184-.254.369-.34l3.182-1.476c.191-.089.357-.11.498-.063.147.045.261.153.341.327.08.173.09.33.03.471-.053.144-.175.26-.366.349l-3.182 1.476c-.186.086-.352.106-.498.062-.147-.044-.262-.156-.346-.335zm5.169-2.397c-.094-.203-.119-.384-.074-.546a.613.613 0 0 1 .349-.361c.185-.086.352-.097.501-.033.152.07.275.207.369.409.096.208.12.39.073.545-.047.156-.163.276-.348.362a.613.613 0 0 1-.501.032c-.15-.064-.272-.2-.37-.408zm-4.152 4.611c-.08-.173-.096-.328-.046-.463.055-.138.172-.249.352-.332l3.278-1.52c.179-.083.336-.1.471-.05.136.049.242.158.32.326.078.167.092.319.043.454-.05.136-.165.245-.344.328l-.59.273.173-.196c.366-.014.688.075.967.268.288.197.511.466.67.807.158.341.224.651.199.93a1.292 1.292 0 0 1-.352.763c-.203.228-.502.433-.895.616l-2.098.973c-.18.083-.34.101-.481.054-.135-.049-.243-.161-.324-.334-.08-.174-.097-.331-.05-.472.055-.138.173-.249.352-.332l2.046-.949c.33-.153.54-.328.632-.525.094-.191.08-.417-.04-.677-.148-.318-.367-.525-.658-.622-.282-.094-.588-.064-.917.088l-1.9.881c-.37.172-.64.076-.808-.289zm1.442 7.245a5.224 5.224 0 0 1-.336-.951 3.34 3.34 0 0 1-.097-.914.549.549 0 0 1 .104-.322.513.513 0 0 1 .235-.151.566.566 0 0 1 .265.003c.09.029.166.078.227.148.06.07.088.159.082.268-.01.313.021.59.09.832.068.25.139.456.214.618.18.387.409.632.688.734.276.111.6.081.97-.091l.78-.362.036.078a1.38 1.38 0 0 1-.965-.216 1.862 1.862 0 0 1-.69-.808 2.062 2.062 0 0 1-.202-1.118c.047-.366.194-.701.44-1.005.245-.303.58-.553 1.001-.749.318-.147.624-.236.919-.268.303-.028.585-.004.845.072.262.082.497.216.702.402.214.188.387.424.518.708.167.358.222.712.166 1.061a1.307 1.307 0 0 1-.449.851l-.257.013.616-.285c.18-.083.337-.1.472-.05a.615.615 0 0 1 .324.334c.08.174.096.328.046.463-.05.136-.164.245-.343.328l-3.339 1.549c-.688.319-1.29.377-1.806.173-.515-.203-.934-.652-1.256-1.345zm2.564-1.221c.104.226.246.395.425.509.18.113.384.169.615.168.24.001.492-.06.758-.184.4-.185.666-.428.8-.729.14-.304.133-.623-.023-.958a1.158 1.158 0 0 0-.426-.509 1.176 1.176 0 0 0-.619-.177c-.23.002-.48.065-.745.188-.399.185-.668.43-.809.733-.14.304-.132.624.023.959zm1.693 6.264a.614.614 0 0 1-.061-.382.426.426 0 0 1 .183-.264.719.719 0 0 1 .392-.109l6.135-.063c.203-.003.363.032.48.104a.71.71 0 0 1 .286.321.646.646 0 0 1 .052.407c-.018.142-.094.29-.227.443l-4.007 4.651a.687.687 0 0 1-.332.238.432.432 0 0 1-.329-.027.593.593 0 0 1-.235-.28c-.075-.162-.097-.307-.064-.434a1.16 1.16 0 0 1 .255-.403l1.048-1.171-.086.609-1.697-3.66.52.328-1.566.052a1.24 1.24 0 0 1-.473-.065c-.113-.046-.204-.144-.274-.295zm6.132.18l-3.45.126.172-.354 1.343 2.896-.378-.088 2.321-2.562-.008-.018zm-2.958 6.664c-.083-.18-.101-.34-.054-.481.055-.138.172-.249.352-.332l3.278-1.52c.179-.083.336-.1.472-.05.135.049.242.158.32.325.077.168.091.32.041.455-.05.135-.163.245-.343.328l-.546.253-.04-.086c.384-.08.721-.043 1.01.11.29.154.542.42.76.797.067.116.08.226.037.33-.035.108-.124.202-.27.283a.507.507 0 0 1-.403.061c-.122-.035-.227-.126-.317-.274l-.106-.183c-.198-.337-.431-.552-.7-.645-.262-.096-.558-.068-.887.085l-1.796.833c-.179.083-.339.101-.48.054-.136-.05-.245-.164-.328-.343zm2.238 4.871c-.222-.48-.325-.935-.306-1.365.018-.43.148-.817.389-1.16.244-.338.591-.612 1.042-.821.44-.204.865-.292 1.278-.266.415.032.79.164 1.122.397.34.235.606.558.797.968.14.301.215.592.226.875a1.83 1.83 0 0 1-.139.813c-.105.259-.27.494-.495.704a2.924 2.924 0 0 1-.82.549.32.32 0 0 1-.296 0 .557.557 0 0 1-.218-.268l-1.292-2.783.625-.29 1.13 2.437-.194-.079c.265-.123.47-.267.611-.431a.933.933 0 0 0 .25-.527 1.05 1.05 0 0 0-.105-.615 1.217 1.217 0 0 0-.463-.544 1.189 1.189 0 0 0-.658-.169 2.055 2.055 0 0 0-.789.208l-.06.028c-.475.22-.78.495-.915.825-.126.332-.089.716.112 1.149.07.15.165.31.285.479.13.172.279.32.45.445a.588.588 0 0 1 .235.281.334.334 0 0 1 .005.261.401.401 0 0 1-.169.204.442.442 0 0 1-.275.065.594.594 0 0 1-.326-.112 2.568 2.568 0 0 1-.612-.57 3.717 3.717 0 0 1-.425-.688zm1.858 4.006a2.085 2.085 0 0 1-.208-.904 1.65 1.65 0 0 1 .224-.789c.14-.227.338-.399.593-.517.312-.145.595-.178.85-.099.26.076.514.277.764.604.25.327.517.796.801 1.409l.201.434-.624.289-.197-.425a6.206 6.206 0 0 0-.45-.834c-.134-.198-.266-.323-.396-.375-.12-.049-.257-.039-.407.031a.666.666 0 0 0-.376.416c-.06.19-.034.403.076.64.088.191.21.338.363.442.162.108.342.169.538.183.196.014.395-.025.598-.119l.997-.463c.29-.134.468-.294.536-.48s.033-.43-.107-.73a3.005 3.005 0 0 0-.314-.519 3.192 3.192 0 0 0-.49-.51.471.471 0 0 1-.18-.275.367.367 0 0 1 .05-.255.5.5 0 0 1 .211-.182.551.551 0 0 1 .284-.047.452.452 0 0 1 .3.146 4.126 4.126 0 0 1 .971 1.298c.193.417.287.787.283 1.112a1.393 1.393 0 0 1-.3.877c-.192.251-.49.47-.895.658l-2.082.965c-.179.083-.338.104-.476.063-.133-.044-.237-.147-.312-.309a.569.569 0 0 1-.038-.446c.058-.132.177-.24.356-.323l.416-.193.032.07a1.308 1.308 0 0 1-1.185-.283 1.631 1.631 0 0 1-.407-.56zm3.097 6.45a.552.552 0 0 1-.043-.412.538.538 0 0 1 .29-.282c.15-.07.282-.082.395-.036a.58.58 0 0 1 .277.303l.45.972 4.259-1.975.25.538-1.364-.917a.56.56 0 0 1-.223-.276.533.533 0 0 1 .009-.299c.04-.096.1-.177.182-.243a.503.503 0 0 1 .286-.111.552.552 0 0 1 .347.112l1.275.863c.123.084.235.173.335.267a.864.864 0 0 1 .226.284.497.497 0 0 1 .037.352c-.026.111-.114.201-.264.27l-4.84 2.245.41.884c.07.151.087.284.049.399-.035.122-.128.218-.278.287-.15.07-.286.08-.407.031-.119-.043-.213-.14-.282-.29l-1.376-2.966zm2.904 6.489c-.335-.723-.32-1.401.047-2.035.372-.636 1.064-1.189 2.076-1.658.682-.317 1.294-.498 1.834-.545.548-.044 1.018.044 1.408.264.392.225.7.578.922 1.058.338.728.328 1.404-.03 2.026-.354.628-1.04 1.178-2.058 1.65-.676.314-1.292.494-1.846.541-.546.049-1.02-.033-1.422-.248-.395-.216-.706-.568-.93-1.053zm.91-.423c.183.393.5.598.95.614.452.022 1.066-.147 1.84-.506.775-.359 1.292-.715 1.55-1.067.267-.348.31-.719.127-1.112-.18-.387-.49-.595-.931-.622-.436-.03-1.04.135-1.816.494-.774.36-1.3.719-1.575 1.079-.276.359-.324.733-.144 1.12zm1.974 6.594c-.08-.173-.098-.33-.05-.472.052-.143.168-.257.347-.34l.677-.314-.994-2.142a.83.83 0 0 1-.088-.486c.027-.139.121-.246.283-.321a.873.873 0 0 1 .336-.071c.134.001.32.024.558.068l4.545.779c.159.025.293.071.402.14.11.069.193.167.252.294.07.15.081.296.035.437-.042.139-.158.252-.348.341l-3.547 1.645.197.425c.078.167.095.311.051.429-.035.122-.127.217-.277.287-.15.07-.287.08-.408.031-.112-.046-.208-.153-.285-.321l-.197-.425-.677.314c-.18.083-.34.098-.484.046-.139-.056-.248-.17-.328-.344zm1.893-1.552l2.706-1.255.116.251-3.95-.654.295-.137.833 1.795zm227.841 11.033c-.363.599-.795 1.042-1.296 1.327a2.906 2.906 0 0 1-1.625.356c-.586-.042-1.181-.246-1.786-.613a4.157 4.157 0 0 1-1.099-.935 3.03 3.03 0 0 1-.59-1.129 2.783 2.783 0 0 1-.051-1.261c.076-.445.25-.891.521-1.338.182-.3.398-.571.649-.814.252-.242.515-.43.788-.562a.615.615 0 0 1 .401-.07.583.583 0 0 1 .309.154c.079.078.13.172.153.283a.477.477 0 0 1-.04.322c-.054.102-.155.189-.304.263a2.143 2.143 0 0 0-.569.404c-.168.166-.313.35-.436.552-.234.387-.353.762-.357 1.125-.004.363.103.703.32 1.021.217.318.543.609.979.873.431.261.84.416 1.228.465.387.049.741-.012 1.061-.184.32-.171.597-.45.832-.837.126-.207.225-.426.298-.657a2.58 2.58 0 0 0 .102-.721c.002-.163.036-.288.103-.374a.448.448 0 0 1 .247-.185.508.508 0 0 1 .308.008.568.568 0 0 1 .395.529c.025.314-.011.65-.108 1.008-.1.349-.245.679-.433.99zm1.975-3.293c-.1.163-.219.262-.359.296-.146.031-.303-.004-.472-.107l-4.855-2.944c-.169-.102-.271-.223-.305-.363-.035-.141-.002-.292.097-.456.099-.163.219-.262.359-.297.143-.039.299-.008.468.094l2.117 1.284-.069.115a1.543 1.543 0 0 1-.317-.953c.003-.348.101-.684.296-1.005.195-.322.416-.55.661-.684.245-.134.522-.179.83-.134.303.042.639.175 1.01.4l1.978 1.199c.169.103.273.226.313.369.034.14.002.292-.097.455-.099.164-.22.265-.364.305-.145.031-.303-.004-.472-.107l-1.929-1.17c-.31-.188-.573-.265-.787-.231-.211.029-.391.165-.54.411-.181.299-.231.597-.15.892.08.287.275.525.585.713l1.791 1.085c.348.212.419.489.211.833zm2.89-4.787c-.099.163-.224.259-.375.287-.151.028-.313-.012-.488-.117l-3-1.819c-.179-.109-.289-.235-.329-.379-.045-.146-.018-.301.081-.465.099-.163.224-.259.375-.287.149-.036.313 0 .493.109l3 1.819c.174.106.284.232.329.379.046.146.017.304-.086.473zm-4.871-2.954c-.116.191-.253.313-.412.365-.161.045-.326.015-.495-.087-.174-.106-.276-.239-.306-.398-.027-.165.018-.343.134-.534.119-.196.256-.318.411-.365.156-.048.321-.019.495.087a.614.614 0 0 1 .306.398c.03.16-.014.338-.133.534zm6.68.027c-.275.452-.609.715-1.004.789-.4.07-.851-.047-1.353-.351l-3.866-2.344c-.169-.102-.271-.224-.305-.364-.034-.14-.002-.291.097-.455.099-.163.219-.262.359-.297.143-.039.3-.008.468.094l3.818 2.315c.251.152.467.212.65.182.186-.037.338-.153.457-.349l.075-.123.053-.124c.035-.083.088-.122.159-.116.066.003.178.052.336.148a.627.627 0 0 1 .269.275c.043.1.035.218-.025.354-.027.058-.057.118-.088.181-.03.064-.064.125-.1.185zm1.582-2.61c-.274.452-.609.715-1.003.789-.401.07-.852-.047-1.353-.351l-3.866-2.344c-.169-.103-.271-.224-.305-.364-.035-.14-.002-.292.097-.455.099-.164.219-.263.359-.297.143-.04.299-.008.468.094l3.817 2.315c.251.152.468.212.651.181.185-.036.338-.152.457-.348l.074-.123.053-.124c.036-.083.089-.122.16-.116.065.002.177.052.335.147a.638.638 0 0 1 .269.275c.044.101.036.219-.024.354l-.088.182a2.21 2.21 0 0 1-.101.185zm1.038-1.767c-.099.163-.224.259-.375.287-.151.027-.314-.012-.488-.117l-3-1.819c-.18-.109-.29-.235-.329-.379-.046-.146-.019-.302.08-.465.1-.164.225-.259.375-.287.149-.036.314 0 .493.109l3 1.819c.175.106.285.232.33.378.045.147.016.305-.086.474zm-4.872-2.954c-.115.191-.253.313-.411.365a.617.617 0 0 1-.495-.087c-.174-.106-.277-.239-.306-.398-.027-.165.018-.343.133-.534.119-.196.256-.318.412-.365.155-.048.32-.019.494.087a.616.616 0 0 1 .307.398c.03.16-.015.338-.134.534zm6.143.875c-.099.164-.218.263-.358.297-.146.031-.303-.005-.472-.107l-3.09-1.873c-.169-.103-.27-.224-.305-.364-.034-.14-.003-.289.092-.447.096-.158.214-.255.354-.289.14-.034.295 0 .464.102l.556.337-.259-.034a1.54 1.54 0 0 1-.317-.952 1.94 1.94 0 0 1 .296-1.005c.195-.322.415-.55.661-.684.245-.134.522-.179.83-.134.303.042.639.175 1.01.4l1.978 1.199c.169.103.273.225.313.369.034.14.002.292-.097.455-.099.164-.221.265-.364.305-.145.031-.303-.005-.472-.107l-1.929-1.17c-.31-.188-.573-.265-.787-.231-.211.028-.391.165-.54.41-.182.3-.232.598-.15.893.08.287.275.524.585.713l1.79 1.085c.349.212.42.489.211.832zm5.21-5.236a5.198 5.198 0 0 1-.602.809 3.35 3.35 0 0 1-.705.59.551.551 0 0 1-.325.093.512.512 0 0 1-.257-.111.477.477 0 0 1-.148-.492.358.358 0 0 1 .176-.217c.266-.168.479-.347.641-.54.17-.195.301-.369.394-.521.221-.365.296-.692.226-.981-.062-.291-.268-.542-.617-.754l-.735-.446.044-.074c.229.251.348.558.358.922.009.355-.086.696-.285 1.023-.218.36-.489.624-.815.791-.331.165-.691.23-1.079.196-.389-.035-.783-.173-1.181-.414a2.934 2.934 0 0 1-.734-.613 2.237 2.237 0 0 1-.412-.742 1.863 1.863 0 0 1-.058-.807 2.11 2.11 0 0 1 .299-.824c.204-.338.467-.581.788-.73.319-.157.638-.191.956-.102l.155.206-.58-.352c-.169-.102-.271-.224-.305-.364a.614.614 0 0 1 .097-.455c.099-.164.219-.262.359-.297.14-.034.294 0 .463.102l3.148 1.908c.648.394 1.032.861 1.15 1.403.119.541-.02 1.139-.416 1.793zm-2.443-1.448a1.15 1.15 0 0 0 .185-.636 1.098 1.098 0 0 0-.204-.605 1.775 1.775 0 0 0-.574-.527c-.376-.228-.727-.314-1.051-.257-.331.053-.592.237-.783.553a1.156 1.156 0 0 0-.185.637c.005.212.072.417.198.613.131.191.321.362.572.514.376.228.729.315 1.059.262.331-.053.592-.238.783-.554zm4.256-4.898a.612.612 0 0 1-.283.264.432.432 0 0 1-.322-.005.722.722 0 0 1-.308-.265l-3.474-5.057c-.115-.167-.175-.319-.181-.457a.708.708 0 0 1 .107-.416.66.66 0 0 1 .309-.271c.128-.064.293-.083.494-.058l6.095.733c.162.016.29.064.383.143a.436.436 0 0 1 .161.288.6.6 0 0 1-.102.352c-.092.152-.2.251-.324.295a1.192 1.192 0 0 1-.477.012l-1.556-.217.553-.268-2.091 3.45-.019-.615.917 1.272c.116.166.185.309.21.428.025.12-.006.25-.092.392zm-3.27-5.191l2.029 2.795-.391.054 1.655-2.731.138.363-3.421-.497-.01.016zm7.181-1.26c-.102.169-.225.273-.369.313-.145.031-.302-.004-.471-.107l-3.09-1.873c-.169-.103-.271-.224-.305-.364-.034-.14-.004-.289.092-.447.096-.158.214-.254.354-.289.14-.034.295 0 .463.102l.515.313-.049.081c-.281-.274-.438-.574-.471-.9-.034-.326.045-.684.237-1.075.059-.121.143-.192.254-.215.108-.031.237-.009.385.066a.504.504 0 0 1 .275.301c.039.121.022.259-.051.416l-.092.19c-.169.352-.218.666-.146.941.067.271.255.501.566.689l1.692 1.026c.169.102.273.225.313.369.035.14 0 .294-.102.463zm2.796-4.574c-.275.452-.595.791-.962 1.015a2.133 2.133 0 0 1-1.181.324c-.416-.014-.837-.149-1.262-.407-.414-.251-.725-.555-.933-.913a2.222 2.222 0 0 1-.297-1.152c.006-.414.125-.815.36-1.202.172-.283.372-.508.6-.676.231-.172.482-.285.752-.337.274-.058.561-.052.861.019.298.061.602.186.913.374.098.06.153.142.164.245.01.096-.023.206-.099.331l-1.591 2.624-.589-.357 1.393-2.297.043.205a1.789 1.789 0 0 0-.699-.267.934.934 0 0 0-.577.086c-.175.08-.326.224-.451.431a1.21 1.21 0 0 0-.194.687c.008.221.084.435.227.641.141.197.345.377.612.539l.057.035c.447.27.845.37 1.194.299.347-.081.644-.325.892-.734.086-.142.165-.31.238-.504.071-.203.111-.41.12-.621.004-.154.038-.271.101-.352a.337.337 0 0 1 .214-.15.41.41 0 0 1 .264.026.45.45 0 0 1 .207.193.594.594 0 0 1 .089.333c.004.264-.04.539-.132.826a3.686 3.686 0 0 1-.334.736zm2.289-3.776a2.09 2.09 0 0 1-.634.677c-.25.154-.51.239-.78.254-.267.01-.52-.058-.76-.204-.294-.178-.479-.395-.556-.65-.082-.258-.057-.582.075-.972.132-.389.373-.873.723-1.45l.248-.409.589.357-.243.4a6.26 6.26 0 0 0-.442.839c-.089.222-.119.401-.091.537.027.128.111.235.253.321.18.109.365.136.555.08.191-.056.354-.196.489-.419a1.06 1.06 0 0 0 .165-.549 1.107 1.107 0 0 0-.148-.548 1.206 1.206 0 0 0-.433-.43l-.94-.57c-.272-.165-.505-.224-.697-.177-.193.048-.375.213-.547.496a2.96 2.96 0 0 0-.406 1.241.472.472 0 0 1-.127.303.366.366 0 0 1-.24.1.506.506 0 0 1-.269-.073.56.56 0 0 1-.197-.209.456.456 0 0 1-.046-.33c.048-.313.12-.598.215-.853.099-.261.206-.487.322-.677.237-.393.492-.678.764-.856.275-.183.574-.263.895-.24.316.02.664.146 1.046.377l1.962 1.189c.168.103.274.223.318.361.037.135.01.278-.083.431a.568.568 0 0 1-.349.28c-.142.026-.297-.013-.466-.115l-.393-.238.04-.065a1.298 1.298 0 0 1 .426 1.141 1.622 1.622 0 0 1-.238.65zm3.628-6.167a.553.553 0 0 1-.318.266.543.543 0 0 1-.396-.084c-.142-.086-.225-.189-.25-.308a.58.58 0 0 1 .097-.4l.555-.915-4.013-2.433.307-.507-.001 1.642a.556.556 0 0 1-.105.339.53.53 0 0 1-.253.16.61.61 0 0 1-.303-.016.504.504 0 0 1-.252-.175.555.555 0 0 1-.1-.352l.005-1.539c.001-.149.013-.291.035-.426a.865.865 0 0 1 .11-.347.494.494 0 0 1 .272-.227c.106-.04.23-.017.371.069l4.562 2.766.505-.834c.086-.142.187-.229.305-.263.12-.038.251-.015.393.071.141.086.226.193.252.321.03.122.002.255-.083.396l-1.695 2.796zm3.767-6.029c-.413.681-.985 1.046-1.715 1.095-.736.046-1.581-.22-2.534-.798-.643-.39-1.135-.796-1.475-1.219-.342-.431-.531-.869-.566-1.315-.032-.452.089-.904.363-1.356.417-.687.983-1.055 1.699-1.106.719-.055 1.559.208 2.518.789.637.387 1.13.797 1.478 1.232.345.425.541.865.587 1.317.041.45-.078.903-.355 1.361zm-.859-.52c.225-.371.219-.748-.019-1.13-.234-.388-.717-.803-1.447-1.246-.73-.443-1.313-.674-1.749-.692-.438-.027-.77.145-.994.515-.222.365-.221.739.003 1.12.218.378.692.788 1.422 1.231.73.443 1.321.678 1.774.707.452.028.789-.14 1.01-.505zm4.374-5.315c-.099.163-.22.265-.364.305-.148.036-.307.003-.476-.099l-.638-.387-1.224 2.019a.83.83 0 0 1-.354.345c-.13.055-.272.036-.424-.056a.866.866 0 0 1-.247-.239 3.411 3.411 0 0 1-.255-.501l-1.887-4.208a1.053 1.053 0 0 1-.108-.412.674.674 0 0 1 .103-.373.577.577 0 0 1 .344-.272c.138-.043.297-.01.477.099l3.343 2.027.243-.401c.096-.158.205-.252.327-.282.121-.039.252-.015.394.071.141.086.226.193.252.321.025.119-.011.258-.107.416l-.242.4.637.387c.169.102.272.228.308.377.031.145-.003.3-.102.463zm-2.344-.706l-2.551-1.546.144-.237 1.659 3.644-.278-.169 1.026-1.692zm-43.072 6.406a.351.351 0 0 1-.248-.084.34.34 0 0 1-.084-.241c0-.105.028-.183.084-.235a.364.364 0 0 1 .248-.079h.675v-2.961h.374l-.886.537a.354.354 0 0 1-.218.054.335.335 0 0 1-.168-.084.382.382 0 0 1-.091-.169.32.32 0 0 1 .012-.193.349.349 0 0 1 .157-.169l.832-.501c.081-.048.161-.088.241-.12a.554.554 0 0 1 .224-.054c.084 0 .154.024.211.072.056.044.084.118.084.223v3.365h.615c.105 0 .185.026.242.079.06.052.09.13.09.235 0 .104-.03.185-.09.241-.057.056-.137.084-.242.084h-2.062zm4.484.061c-.502 0-.886-.189-1.152-.567-.265-.382-.398-.925-.398-1.628 0-.475.059-.873.175-1.195.121-.325.296-.57.525-.735.233-.165.517-.248.85-.248.507 0 .891.185 1.152.555.266.37.398.909.398 1.617 0 .47-.06.87-.181 1.2-.116.325-.289.575-.518.747-.23.169-.513.254-.851.254zm0-.633c.274 0 .475-.127.603-.38.133-.254.199-.65.199-1.188 0-.539-.066-.929-.199-1.17a.635.635 0 0 0-.603-.368.645.645 0 0 0-.603.368c-.132.241-.199.631-.199 1.17 0 .538.067.934.199 1.188.133.253.334.38.603.38zm3.616.633a2.33 2.33 0 0 1-.85-.139 1.216 1.216 0 0 1-.543-.416 1.124 1.124 0 0 1-.187-.651c0-.201.041-.378.121-.531.084-.157.199-.284.344-.38.144-.097.309-.157.494-.181v.127a1.086 1.086 0 0 1-.621-.368 1.073 1.073 0 0 1-.229-.688c0-.241.06-.446.181-.615.12-.173.291-.303.512-.392a2.02 2.02 0 0 1 .778-.139c.302 0 .563.047.784.139.222.089.392.219.513.392.121.169.181.374.181.615 0 .177-.036.34-.109.489a.94.94 0 0 1-.295.368 1.04 1.04 0 0 1-.44.193v-.121c.281.04.508.159.681.356.177.193.265.438.265.736 0 .253-.064.47-.193.651-.124.181-.305.32-.542.416a2.283 2.283 0 0 1-.845.139zm0-.603c.286 0 .501-.055.646-.163.144-.113.217-.278.217-.495 0-.217-.073-.38-.217-.488-.145-.109-.36-.163-.646-.163-.281 0-.496.054-.645.163-.145.108-.217.271-.217.488 0 .217.072.382.217.495.149.108.364.163.645.163zm0-1.912c.161 0 .298-.024.41-.072a.59.59 0 0 0 .26-.224.624.624 0 0 0 .09-.337.546.546 0 0 0-.205-.453c-.132-.112-.317-.168-.555-.168-.237 0-.422.056-.554.168a.553.553 0 0 0-.199.453c0 .197.066.351.199.464.132.113.317.169.554.169zm-4.092-42.483a.348.348 0 0 1-.247-.084.34.34 0 0 1-.085-.242c0-.104.029-.183.085-.235a.364.364 0 0 1 .247-.078h.675v-2.961h.374l-.886.536a.352.352 0 0 1-.217.055.334.334 0 0 1-.169-.085.397.397 0 0 1-.091-.169.313.313 0 0 1 .013-.193.35.35 0 0 1 .156-.169l.833-.5c.08-.048.16-.088.241-.12a.547.547 0 0 1 .223-.055c.084 0 .155.024.211.072.056.045.084.119.084.224v3.365h.616c.104 0 .185.026.241.078.06.052.09.13.09.235 0 .105-.03.185-.09.242-.056.056-.137.084-.241.084h-2.063zm4.485.06c-.503 0-.887-.189-1.152-.567-.266-.382-.398-.924-.398-1.628 0-.474.058-.872.175-1.194.12-.326.295-.57.524-.736.233-.165.517-.247.851-.247.506 0 .89.185 1.151.555.266.37.399.908.399 1.616 0 .47-.061.87-.181 1.2-.117.326-.29.575-.519.748-.229.169-.513.253-.85.253zm0-.633c.273 0 .474-.127.603-.38.132-.253.199-.65.199-1.188 0-.539-.067-.929-.199-1.17a.638.638 0 0 0-.603-.368.644.644 0 0 0-.603.368c-.133.241-.2.631-.2 1.17 0 .539.067.935.2 1.188.132.253.333.38.603.38zm2.844.621a.375.375 0 0 1-.229-.066.262.262 0 0 1-.109-.175.412.412 0 0 1 .054-.253l1.822-3.426v.266h-1.954a.36.36 0 0 1-.254-.085.319.319 0 0 1-.084-.235c0-.105.028-.185.084-.241a.36.36 0 0 1 .254-.085h2.334a.4.4 0 0 1 .265.085.295.295 0 0 1 .102.24.708.708 0 0 1-.036.236 1.872 1.872 0 0 1-.096.211l-1.713 3.275a.434.434 0 0 1-.175.193.518.518 0 0 1-.265.06zm-6.722-22.427a.35.35 0 0 1-.247-.084.34.34 0 0 1-.084-.242c0-.104.028-.182.084-.235a.366.366 0 0 1 .247-.078h.676v-2.961h.374l-.887.536a.349.349 0 0 1-.217.055.342.342 0 0 1-.169-.085.385.385 0 0 1-.09-.169.32.32 0 0 1 .012-.193.348.348 0 0 1 .157-.168l.832-.501c.08-.048.161-.088.241-.12a.55.55 0 0 1 .223-.055c.085 0 .155.024.211.072.057.045.085.12.085.224v3.365h.615c.105 0 .185.026.241.078.061.053.091.13.091.235 0 .105-.03.185-.091.242-.056.056-.136.084-.241.084h-2.063zm4.485.06c-.503 0-.887-.189-1.152-.566-.265-.383-.398-.925-.398-1.629 0-.474.058-.872.175-1.194.121-.326.296-.57.525-.736.233-.164.516-.247.85-.247.507 0 .891.185 1.152.555.265.37.398.909.398 1.616 0 .47-.06.87-.181 1.2-.117.326-.289.575-.519.748-.229.169-.512.253-.85.253zm0-.633c.273 0 .474-.127.603-.38.133-.253.199-.65.199-1.188 0-.539-.066-.929-.199-1.17a.638.638 0 0 0-.603-.368c-.269 0-.47.123-.603.368-.133.241-.199.631-.199 1.17 0 .539.066.935.199 1.188.133.253.334.38.603.38zm3.773.633c-.35 0-.649-.082-.899-.247a1.582 1.582 0 0 1-.561-.724c-.128-.313-.193-.693-.193-1.14 0-.361.041-.68.121-.958a2.05 2.05 0 0 1 .362-.712c.157-.193.348-.34.573-.44a1.9 1.9 0 0 1 1.309-.067c.184.053.357.133.518.242a.28.28 0 0 1 .127.157c.02.064.022.128.006.193a.329.329 0 0 1-.085.162.272.272 0 0 1-.156.085.338.338 0 0 1-.211-.055 1.404 1.404 0 0 0-.748-.217c-.233 0-.43.055-.591.163a1.005 1.005 0 0 0-.368.489 2.35 2.35 0 0 0-.121.814v.452h-.072c.032-.205.098-.38.199-.525.104-.148.237-.26.398-.337.161-.08.34-.12.537-.12.245 0 .462.057.651.174.189.117.338.277.446.482.109.206.163.44.163.706 0 .273-.06.519-.181.736a1.296 1.296 0 0 1-.494.506 1.432 1.432 0 0 1-.73.181zm-.042-.615a.734.734 0 0 0 .38-.096.65.65 0 0 0 .259-.272c.06-.12.09-.257.09-.41a.884.884 0 0 0-.09-.41.65.65 0 0 0-.259-.271.7.7 0 0 0-.38-.103.696.696 0 0 0-.38.103.706.706 0 0 0-.26.271.884.884 0 0 0-.09.41c0 .153.03.29.09.41a.706.706 0 0 0 .26.272.729.729 0 0 0 .38.096zM54.92 121.011a.345.345 0 0 1-.247-.085.337.337 0 0 1-.084-.241c0-.104.028-.183.084-.235a.367.367 0 0 1 .247-.079h.676v-2.961h.374l-.887.537a.351.351 0 0 1-.217.054.338.338 0 0 1-.169-.084.384.384 0 0 1-.09-.169.317.317 0 0 1 .012-.193.351.351 0 0 1 .157-.169l.832-.5a1.6 1.6 0 0 1 .241-.121.55.55 0 0 1 .223-.054c.085 0 .155.024.211.072.056.044.085.119.085.223v3.365h.615c.104 0 .185.027.241.079.06.052.09.131.09.235 0 .105-.03.185-.09.241-.056.057-.137.085-.241.085H54.92zm4.485.06c-.503 0-.887-.189-1.152-.567-.265-.382-.398-.925-.398-1.628 0-.475.058-.873.175-1.194.12-.326.295-.571.524-.736.234-.165.517-.247.85-.247.507 0 .891.185 1.153.555.265.369.398.908.398 1.616 0 .47-.06.87-.181 1.2-.117.326-.29.575-.519.748-.229.169-.512.253-.85.253zm0-.633c.273 0 .474-.127.603-.38.133-.253.199-.649.199-1.188 0-.539-.066-.929-.2-1.17a.638.638 0 0 0-.602-.368c-.27 0-.47.123-.603.368-.133.241-.2.631-.2 1.17 0 .539.067.935.2 1.188.132.253.334.38.603.38zm3.652.633c-.213 0-.43-.028-.651-.084a2.12 2.12 0 0 1-.61-.26.384.384 0 0 1-.156-.169.378.378 0 0 1-.018-.199.342.342 0 0 1 .09-.168.28.28 0 0 1 .17-.085.375.375 0 0 1 .222.054c.149.085.3.149.453.193.152.045.315.067.488.067a.95.95 0 0 0 .434-.091.647.647 0 0 0 .278-.253.732.732 0 0 0 .096-.38.735.735 0 0 0-.205-.543c-.137-.14-.324-.211-.56-.211a1.06 1.06 0 0 0-.375.067 1.01 1.01 0 0 0-.355.217.831.831 0 0 1-.14.096.4.4 0 0 1-.18.042c-.1 0-.177-.026-.23-.078a.293.293 0 0 1-.078-.217v-1.972c0-.109.029-.191.085-.247a.34.34 0 0 1 .253-.091h1.984c.109 0 .191.028.247.084.06.053.09.131.09.236 0 .1-.03.179-.09.235-.056.056-.138.084-.247.084h-1.568v1.351h-.199c.105-.141.243-.249.416-.325.173-.077.362-.115.567-.115.27 0 .503.058.7.175.2.112.356.271.464.476.113.201.169.437.169.706 0 .277-.062.523-.187.736a1.302 1.302 0 0 1-.537.494 1.782 1.782 0 0 1-.82.175z" fill="#fff"/></svg>