<svg width="821" height="763" viewBox="0 0 821 763" fill="none" xmlns="http://www.w3.org/2000/svg"><g clip-path="url(#clip0_8406_19975)"><path d="M788.474 267.401s-24.778 154.712-141.424 233.09l-36.452-54.675s73.22-42.916 116.847-178.415h61.029zM24.008 222.069s7.32 180.045 134.115 270.835l44.241-51.462S99.396 377.174 91.55 222.107l-67.542-.038zM91.56 36.595H24.007v148.793h67.551V36.595z" fill="#CCF3EF"/><path d="M696.193 246.721l-1.142-.231-41.248-8.21c-3.789 31.778-8.259 59.864-20.289 83.125-23.022 44.46-48.922 60.604-48.922 60.604l24.634 33.639c68.99-60.536 86.286-122.981 90.621-151.661.163-1.094.173-1.142.307-2.14l-4.412-.067.451-15.059zm-574.148-24.518s-5.152 104.018 84.981 189.925l26.926-33.803s-32.317-23.213-50.917-69.696c-9.737-24.317-14.667-55.549-12.998-89.39l-47.992 2.964z" fill="#E6D6F5"/><path d="M161.116 261.406l-26.035 2.993a225.74 225.74 0 0 1-2.878-34.906l28.922-1.726m-17.718 70.914a193.488 193.488 0 0 1-6.849-26.858m21.565 61.716a226.472 226.472 0 0 1-12.989-29.735m30.725 58.291a225.111 225.111 0 0 1-15.166-23.798m60.492 40.028l-14.917 18.129c-7.338-7.299-20.902-21.812-27.176-30.033m442.527-9.39l16.864 13.764a261.898 261.898 0 0 1-23.559 26.331l-15.828-19.069m41.402-50.11l19.118 11.328a262.869 262.869 0 0 1-17.372 26.609m36.586-69.179a244.04 244.04 0 0 1-14.754 32.508m3.828-74.627l21.842 4.988a257.746 257.746 0 0 1-8.902 32.23" stroke="#D1B9ED" stroke-width="7" stroke-miterlimit="10"/><path d="M37.467 175.806V49.794h44.317M56.786 322.441a291.055 291.055 0 0 1-16.806-88.449m56.078 170.999a291.376 291.376 0 0 1-36.95-76.516m123.236 115.94l-26.61 29.218c-22.735-17.707-38.879-38.676-55.474-62.167m603.722 17.352a298.041 298.041 0 0 1-50.611 47.635L628 443.56m119.705-84.39a297.148 297.148 0 0 1-40.078 65.226M736 285.77h33.72a294.253 294.253 0 0 1-19.713 68.105" stroke="#99E8DF" stroke-width="7" stroke-miterlimit="10"/><path d="M777.097 43.703V211.44" stroke="#D8D8D8" stroke-width="7" stroke-miterlimit="10"/><path d="M171.101 178.981l-49.881-.518V43.703h98.996l-.144 79.288h-48.644l-.327 55.99z" fill="#E6D6F5"/><path d="M495.438 28.643a82.633 82.633 0 0 1-24.221 55.25 82.728 82.728 0 0 1-58.65 24.288h-8.844a82.93 82.93 0 0 1-82.871-79.538h174.586zm93.039 425.902a68.515 68.515 0 0 1-20.069 48.461 68.53 68.53 0 0 1-48.461 20.075v49.054a349.362 349.362 0 0 1-64.501 5.966h-90.477a349.604 349.604 0 0 1-70.343-7.108v-47.912a68.547 68.547 0 0 1-62.688-40.822 68.538 68.538 0 0 1 11.989-73.837 68.535 68.535 0 0 1 72.383-18.892 68.537 68.537 0 0 1 46.548 58.559h88.857a68.522 68.522 0 0 1 23.291-45.357 68.534 68.534 0 0 1 94.556 4.463 68.527 68.527 0 0 1 18.915 47.35z" fill="#565656"/><path d="M691.483 131.883h-36.04v41.563h36.04v-41.563zm0 54.35h-36.04v41.562h36.04v-41.562zm-49.968-54.1v103.135c0 5.41-.25 10.762-.72 16.047-4.518 50.513-25.814 91.711-64.386 123.298-12.556-14.666-35.636-20.786-56.462-20.259-56.98 1.449-88.003 27.261-91.255 62.081h-43.771c-7.789-48.728-54.62-62.081-90.295-62.081-19.281 0-33.507-1.851-53.815 16.633-40.394-34.781-61.038-80.421-61.038-135.719V132.133h138.134c19.387 20.805 50.841 27.098 81.538 27.098H415.1c30.696 0 60.232-6.293 79.619-27.098h146.796z" fill="#E6D6F5"/><path d="M395.272 171.365h-75.408v28.038h75.408v-28.038zm101.173 0h-75.408v28.038h75.408v-28.038zm-37.066 70.675h-60.932v28.038h60.932V242.04zm-84.559 0h-60.932v28.038h60.932V242.04zm-83.005 0h-60.932v28.038h60.932V242.04zm175.843 57.869h-60.933v28.038h60.933v-28.038zm-76.933 0h-60.933v28.038h60.933v-28.038zm-82.056 0h-60.932v28.038h60.932v-28.038zm-96.156-128.544v56.977h28.039v-56.977h-28.039zm341.843 0h-28.039v28.038h28.039v-28.038zm50.074-.422h-28.04v28.038h28.04v-28.038zm80.674-32.537h-23.291v28.69h23.291v-28.69zm-80.674 69.207h-28.04v28.038h28.04v-28.038zm80.453-14.877h-22.85v28.057h22.85v-28.057zM554.356 242.04h-28.039v28.038h28.039V242.04zm-45.22 0h-28.039v28.038h28.039V242.04zm6.235 57.869h-28.039v28.038h28.039v-28.038z" fill="#DFCDF7"/><path d="M162.161 168.151l-31.128-.489V53.678h78.007l-.144 65.611" stroke="#D1B9ED" stroke-width="7" stroke-miterlimit="10"/><path d="M803.889 28.643v201.032c0 9.893-.409 19.68-1.228 29.362H698.303V123.365H528.82V28.643h275.069z" fill="#E6EAED"/><path d="M72 456.06H23v268h49v-268zm732 0h-49v268h49v-268zm-512 145v49h229v-49H292z" fill="#565656"/><path d="M323.756 637.06v-21.12h4.608v21.12h-4.608zm3.2 0v-3.776h12.96v3.776h-12.96zm0-8.96v-3.424h11.36v3.424h-11.36zm0-8.416v-3.744h12.896v3.744h-12.896zm16.457 17.376v-21.12h6.016l9.472 14.976h.32l-.288-14.976h4.512v21.12h-5.472l-10.016-15.616h-.32l.256 15.616h-4.48zm29.01 0v-21.12h4.64v21.12h-4.64zm-6.144-17.248v-3.872h16.96v3.872h-16.96zM386.1 637.06v-21.12h8.576c1.024 0 1.984.085 2.88.256.896.149 1.707.384 2.432.704.747.32 1.387.725 1.92 1.216a4.656 4.656 0 0 1 1.248 1.76c.277.661.416 1.419.416 2.272 0 .747-.117 1.419-.352 2.016a4.279 4.279 0 0 1-1.024 1.6c-.469.448-1.067.821-1.792 1.12-.704.277-1.525.469-2.464.576v.448c1.088.128 1.963.384 2.624.768a4.025 4.025 0 0 1 1.536 1.568c.384.661.715 1.483.992 2.464l1.248 4.352h-5.088l-.96-4c-.192-.853-.469-1.525-.832-2.016a2.833 2.833 0 0 0-1.376-1.024c-.533-.192-1.184-.288-1.952-.288h-3.424v7.328H386.1zm4.608-10.816h2.976c.363 0 .768-.011 1.216-.032a7.232 7.232 0 0 0 1.344-.192 3.85 3.85 0 0 0 1.248-.512c.384-.235.693-.565.928-.992.256-.427.384-.971.384-1.632 0-.683-.117-1.237-.352-1.664a2.702 2.702 0 0 0-.896-.992 3.977 3.977 0 0 0-1.152-.512 5.842 5.842 0 0 0-1.152-.192 15.872 15.872 0 0 0-.864-.032h-3.68v6.752zm15.289 10.816l7.2-21.12h6.688l7.232 21.12h-5.024l-5.312-17.472h-.448l-5.344 17.472h-4.992zm4.032-4.128v-3.168h13.696v3.168h-13.696zm19.915 4.128v-21.12h6.016l9.472 14.976h.32l-.288-14.976h4.512v21.12h-5.472l-10.016-15.616h-.32l.256 15.616h-4.48zm34.226.448c-1.642 0-3.114-.235-4.416-.704-1.28-.469-2.368-1.163-3.264-2.08-.896-.917-1.578-2.048-2.048-3.392-.469-1.344-.704-2.88-.704-4.608 0-1.792.235-3.371.704-4.736.491-1.387 1.184-2.56 2.08-3.52a8.552 8.552 0 0 1 3.2-2.208c1.238-.512 2.624-.768 4.16-.768 1.195 0 2.294.16 3.296.48 1.003.32 1.867.779 2.592 1.376a5.96 5.96 0 0 1 1.696 2.144c.406.832.608 1.771.608 2.816l-4.256 1.088c0-.917-.192-1.675-.576-2.272a3.582 3.582 0 0 0-1.504-1.376 4.32 4.32 0 0 0-2.016-.48c-.64 0-1.269.128-1.888.384-.597.256-1.152.672-1.664 1.248-.49.555-.885 1.291-1.184 2.208-.277.896-.416 2.005-.416 3.328 0 1.707.246 3.104.736 4.192.491 1.067 1.163 1.856 2.016 2.368.875.491 1.856.736 2.944.736 1.152 0 2.048-.235 2.688-.704a3.988 3.988 0 0 0 1.408-1.888 7.137 7.137 0 0 0 .48-2.432l4.064.64a11.152 11.152 0 0 1-.512 3.2 6.476 6.476 0 0 1-1.504 2.592c-.682.747-1.578 1.333-2.688 1.76-1.109.405-2.453.608-4.032.608zm11.961-.448v-21.12h4.608v21.12h-4.608zm3.2 0v-3.776h12.96v3.776h-12.96zm0-8.96v-3.424h11.36v3.424h-11.36zm0-8.416v-3.744h12.896v3.744h-12.896zM60.448 698.218c0 1.643-.235 3.115-.704 4.416-.47 1.28-1.163 2.368-2.08 3.264-.917.896-2.048 1.579-3.392 2.048-1.344.469-2.88.704-4.608.704-1.792 0-3.37-.235-4.736-.704-1.387-.491-2.56-1.184-3.52-2.08a8.545 8.545 0 0 1-2.208-3.2c-.512-1.237-.768-2.624-.768-4.16 0-1.195.16-2.293.48-3.296.32-1.003.779-1.867 1.376-2.592a5.968 5.968 0 0 1 2.144-1.696c.832-.405 1.77-.608 2.816-.608l1.088 4.256c-.917 0-1.675.192-2.272.576a3.582 3.582 0 0 0-1.376 1.504 4.325 4.325 0 0 0-.48 2.016c0 .64.128 1.269.384 1.888.256.597.672 1.152 1.248 1.664.555.491 1.29.885 2.208 1.184.896.277 2.005.416 3.328.416 1.707 0 3.104-.245 4.192-.736 1.067-.491 1.856-1.163 2.368-2.016.49-.875.736-1.856.736-2.944 0-1.152-.235-2.048-.704-2.688a3.993 3.993 0 0 0-1.888-1.408 7.135 7.135 0 0 0-2.432-.48l.64-4.064c1.13.021 2.197.192 3.2.512.981.299 1.845.8 2.592 1.504.747.683 1.333 1.579 1.76 2.688.405 1.109.608 2.453.608 4.032zM60 672.497H38.88v-4.576H60v4.576zm0 13.76H38.88v-4.608H60v4.608zm-8.8-2.752h-3.776v-12.864H51.2v12.864zm8.8-20.123H38.88v-4.608H60v4.608zm0-3.2h-3.776v-12.96H60v12.96zm-8.96 0h-3.424v-11.36h3.424v11.36zm-8.416 0H38.88v-12.896h3.744v12.896zm17.824-25.652c0 1.643-.235 3.115-.704 4.416-.47 1.28-1.163 2.368-2.08 3.264-.917.896-2.048 1.579-3.392 2.048-1.344.47-2.88.704-4.608.704-1.792 0-3.37-.234-4.736-.704-1.387-.49-2.56-1.184-3.52-2.08a8.537 8.537 0 0 1-2.208-3.2c-.512-1.237-.768-2.624-.768-4.16 0-1.194.16-2.293.48-3.296.32-1.002.779-1.866 1.376-2.592a5.979 5.979 0 0 1 2.144-1.696c.832-.405 1.77-.608 2.816-.608l1.088 4.256c-.917 0-1.675.192-2.272.576a3.588 3.588 0 0 0-1.376 1.504 4.325 4.325 0 0 0-.48 2.016c0 .64.128 1.27.384 1.888.256.598.672 1.152 1.248 1.664.555.491 1.29.886 2.208 1.184.896.278 2.005.416 3.328.416 1.707 0 3.104-.245 4.192-.736 1.067-.49 1.856-1.162 2.368-2.016.49-.874.736-1.856.736-2.944 0-1.152-.235-2.048-.704-2.688a4 4 0 0 0-1.888-1.408 7.183 7.183 0 0 0-2.432-.48l.64-4.064c1.13.022 2.197.192 3.2.512.981.299 1.845.8 2.592 1.504.747.683 1.333 1.579 1.76 2.688.405 1.11.608 2.454.608 4.032zM60 622.569H38.88v-4.608h9.44a14.947 14.947 0 0 0-1.696-3.008 15.503 15.503 0 0 0-2.304-2.528 15.575 15.575 0 0 0-2.656-1.888c-.939-.533-1.867-.917-2.784-1.152v-5.28a14.01 14.01 0 0 1 3.168 1.344 17.363 17.363 0 0 1 2.912 2.144 19.076 19.076 0 0 1 2.464 2.624 13.231 13.231 0 0 1 1.664 2.88h.448c0-1.216.15-2.24.448-3.072.299-.832.725-1.525 1.28-2.08a7.224 7.224 0 0 1 1.856-1.44 12.775 12.775 0 0 1 2.176-1.024L60 603.785v5.216l-3.744 1.088c-.875.256-1.643.587-2.304.992-.661.406-1.173.992-1.536 1.76-.384.768-.576 1.856-.576 3.264v1.856H60v4.608zm0-29.062H38.88v-4.672H60v4.672zm0-9.219H38.88v-6.016l14.976-9.472v-.32l-14.976.288v-4.512H60v5.472l-15.616 10.016v.32L60 579.808v4.48zm0-30.116l-21.12-7.2v-6.688L60 533.052v5.024l-17.472 5.312v.448L60 549.18v4.992zm-4.128-4.032h-3.168v-13.696h3.168v13.696zM60 530.226H38.88v-8.576c0-1.024.085-1.984.256-2.88.15-.896.384-1.707.704-2.432a6.698 6.698 0 0 1 1.216-1.92 4.656 4.656 0 0 1 1.76-1.248c.661-.278 1.419-.416 2.272-.416.747 0 1.419.117 2.016.352.597.213 1.13.554 1.6 1.024.448.469.821 1.066 1.12 1.792.277.704.47 1.525.576 2.464h.448c.128-1.088.384-1.963.768-2.624a4.01 4.01 0 0 1 1.568-1.536c.661-.384 1.483-.715 2.464-.992L60 511.986v5.088l-4 .96c-.853.192-1.525.469-2.016.832a2.83 2.83 0 0 0-1.024 1.376c-.192.533-.288 1.184-.288 1.952v3.424H60v4.608zm-10.816-4.608v-2.976c0-.363-.01-.768-.032-1.216a7.283 7.283 0 0 0-.192-1.344 3.832 3.832 0 0 0-.512-1.248 2.6 2.6 0 0 0-.992-.928c-.427-.256-.97-.384-1.632-.384-.683 0-1.237.117-1.664.352a2.694 2.694 0 0 0-.992.896 3.954 3.954 0 0 0-.512 1.152c-.107.405-.17.789-.192 1.152-.021.362-.032.65-.032.864v3.68h6.752zM60 508.694H38.88v-4.608H60v4.608zm0-3.2h-3.776v-12.96H60v12.96zm-8.96 0h-3.424v-11.36h3.424v11.36zm-8.416 0H38.88v-12.896h3.744v12.896zM60 490.641l-21.12-7.2v-6.688L60 469.521v5.024l-17.472 5.312v.448L60 485.649v4.992zm-4.128-4.032h-3.168v-13.696h3.168v13.696zM790 677.569h-21.12v-4.608H790v4.608zm-7.904-2.176h-3.776v-12.224h3.776v12.224zm-9.28 0h-3.936v-13.408h3.936v13.408zm17.632-25.413c0 1.536-.235 2.912-.704 4.128a8.863 8.863 0 0 1-2.112 3.136c-.939.853-2.08 1.515-3.424 1.984-1.365.448-2.923.672-4.672.672-2.496 0-4.555-.437-6.176-1.312-1.643-.875-2.869-2.069-3.68-3.584-.832-1.515-1.248-3.232-1.248-5.152 0-1.493.245-2.848.736-4.064a8.037 8.037 0 0 1 2.112-3.104c.917-.875 2.059-1.547 3.424-2.016 1.365-.469 2.944-.704 4.736-.704 1.813 0 3.403.245 4.768.736 1.365.469 2.517 1.141 3.456 2.016a8.46 8.46 0 0 1 2.08 3.168c.469 1.216.704 2.581.704 4.096zm-3.68-.096c0-.597-.107-1.195-.32-1.792-.213-.619-.576-1.184-1.088-1.696-.512-.533-1.227-.949-2.144-1.248-.939-.299-2.112-.448-3.52-.448-1.707 0-3.104.224-4.192.672-1.109.427-1.931 1.045-2.464 1.856-.533.789-.8 1.696-.8 2.72 0 .555.107 1.141.32 1.76.192.597.555 1.163 1.088 1.696.512.533 1.237.96 2.176 1.28.939.32 2.155.48 3.648.48 1.408 0 2.581-.149 3.52-.448.917-.299 1.653-.693 2.208-1.184.555-.512.96-1.077 1.216-1.696.235-.64.352-1.291.352-1.952zm3.68-22.873c0 1.536-.235 2.912-.704 4.128a8.863 8.863 0 0 1-2.112 3.136c-.939.853-2.08 1.515-3.424 1.984-1.365.448-2.923.672-4.672.672-2.496 0-4.555-.437-6.176-1.312-1.643-.875-2.869-2.069-3.68-3.584-.832-1.515-1.248-3.232-1.248-5.152 0-1.493.245-2.848.736-4.064a8.037 8.037 0 0 1 2.112-3.104c.917-.875 2.059-1.547 3.424-2.016 1.365-.469 2.944-.704 4.736-.704 1.813 0 3.403.245 4.768.736 1.365.469 2.517 1.141 3.456 2.016a8.46 8.46 0 0 1 2.08 3.168c.469 1.216.704 2.581.704 4.096zm-3.68-.096c0-.597-.107-1.195-.32-1.792-.213-.619-.576-1.184-1.088-1.696-.512-.533-1.227-.949-2.144-1.248-.939-.299-2.112-.448-3.52-.448-1.707 0-3.104.224-4.192.672-1.109.427-1.931 1.045-2.464 1.856-.533.789-.8 1.696-.8 2.72 0 .555.107 1.141.32 1.76.192.597.555 1.163 1.088 1.696.512.533 1.237.96 2.176 1.28.939.32 2.155.48 3.648.48 1.408 0 2.581-.149 3.52-.448.917-.299 1.653-.693 2.208-1.184.555-.512.96-1.077 1.216-1.696.235-.64.352-1.291.352-1.952zM790 611.05h-3.776v-6.112c0-.747-.117-1.44-.352-2.08a4.143 4.143 0 0 0-1.12-1.696c-.533-.491-1.227-.864-2.08-1.12-.875-.278-1.931-.416-3.168-.416-1.195 0-2.219.128-3.072.384-.875.234-1.589.608-2.144 1.12-.576.49-.992 1.12-1.248 1.888-.256.746-.384 1.621-.384 2.624v5.408h-3.776v-5.248c0-2.56.416-4.651 1.248-6.272.832-1.622 2.027-2.806 3.584-3.552 1.536-.768 3.381-1.152 5.536-1.152 1.664 0 3.104.202 4.32.608 1.216.384 2.24.917 3.072 1.6a8.676 8.676 0 0 1 1.984 2.272c.491.853.843 1.76 1.056 2.72.213.938.32 1.866.32 2.784v6.24zm0 2.176h-21.12v-4.608H790v4.608zm0-27.741l-21.12-7.2v-6.688l21.12-7.232v5.024l-17.472 5.312v.448L790 580.493v4.992zm-4.128-4.032h-3.168v-13.696h3.168v13.696zM790 561.538h-21.12v-8.576c0-1.024.085-1.984.256-2.88.149-.896.384-1.707.704-2.432a6.691 6.691 0 0 1 1.216-1.92 4.656 4.656 0 0 1 1.76-1.248c.661-.277 1.419-.416 2.272-.416.747 0 1.419.117 2.016.352a4.279 4.279 0 0 1 1.6 1.024c.448.469.821 1.067 1.12 1.792.277.704.469 1.525.576 2.464h.448c.128-1.088.384-1.963.768-2.624a4.025 4.025 0 0 1 1.568-1.536c.661-.384 1.483-.715 2.464-.992l4.352-1.248v5.088l-4 .96c-.853.192-1.525.469-2.016.832a2.833 2.833 0 0 0-1.024 1.376c-.192.533-.288 1.184-.288 1.952v3.424H790v4.608zm-10.816-4.608v-2.976c0-.363-.011-.768-.032-1.216a7.232 7.232 0 0 0-.192-1.344 3.85 3.85 0 0 0-.512-1.248 2.607 2.607 0 0 0-.992-.928c-.427-.256-.971-.384-1.632-.384-.683 0-1.237.117-1.664.352a2.702 2.702 0 0 0-.992.896 3.977 3.977 0 0 0-.512 1.152 5.842 5.842 0 0 0-.192 1.152c-.021.363-.032.651-.032.864v3.68h6.752zM790 540.007h-21.12v-4.608H790v4.608zm0-3.2h-3.776v-12.96H790v12.96zm-8.96 0h-3.424v-11.36h3.424v11.36zm-8.416 0h-3.744v-12.896h3.744v12.896zM790 521.954l-21.12-7.2v-6.688l21.12-7.232v5.024l-17.472 5.312v.448L790 516.962v4.992zm-4.128-4.032h-3.168v-13.696h3.168v13.696zM380.272 73V51.88h8.704c1.301 0 2.464.118 3.488.352 1.024.214 1.899.555 2.624 1.024.747.448 1.312 1.024 1.696 1.728.384.704.576 1.547.576 2.528 0 .81-.171 1.536-.512 2.176-.341.619-.885 1.12-1.632 1.504-.747.384-1.717.65-2.912.8v.48c2.027.128 3.52.63 4.48 1.504.96.854 1.44 2.016 1.44 3.488 0 1.216-.32 2.24-.96 3.072-.64.81-1.589 1.43-2.848 1.856-1.237.406-2.784.608-4.64.608h-9.504zm4.416-3.712h5.056c.533 0 1.035-.032 1.504-.096a5.618 5.618 0 0 0 1.28-.384c.384-.192.672-.458.864-.8.213-.341.32-.768.32-1.28 0-.47-.085-.864-.256-1.184a2.23 2.23 0 0 0-.704-.832 3.755 3.755 0 0 0-1.088-.576 5.231 5.231 0 0 0-1.376-.288 12.137 12.137 0 0 0-1.568-.096h-4.032v5.536zm0-8.448h3.296c.704 0 1.344-.042 1.92-.128.597-.085 1.109-.224 1.536-.416.448-.213.789-.49 1.024-.832.256-.362.384-.81.384-1.344 0-.512-.107-.928-.32-1.248a2.177 2.177 0 0 0-.896-.8 4.739 4.739 0 0 0-1.344-.416 9.154 9.154 0 0 0-1.568-.128h-4.032v5.312zM399.857 73l7.2-21.12h6.688L420.977 73h-5.024l-5.312-17.472h-.448L404.849 73h-4.992zm4.032-4.128v-3.168h13.696v3.168h-13.696zM423.803 73V51.88h8.576c1.024 0 1.984.086 2.88.256.896.15 1.707.384 2.432.704a6.7 6.7 0 0 1 1.92 1.216c.555.49.971 1.078 1.248 1.76.278.662.416 1.419.416 2.272 0 .747-.117 1.419-.352 2.016a4.266 4.266 0 0 1-1.024 1.6c-.469.448-1.066.822-1.792 1.12-.704.278-1.525.47-2.464.576v.448c1.088.128 1.963.384 2.624.768a4.01 4.01 0 0 1 1.536 1.568c.384.662.715 1.483.992 2.464L442.043 73h-5.088l-.96-4c-.192-.853-.469-1.525-.832-2.016a2.83 2.83 0 0 0-1.376-1.024c-.533-.192-1.184-.288-1.952-.288h-3.424V73h-4.608zm4.608-10.816h2.976c.363 0 .768-.01 1.216-.032a7.283 7.283 0 0 0 1.344-.192 3.83 3.83 0 0 0 1.248-.512c.384-.234.694-.565.928-.992.256-.426.384-.97.384-1.632 0-.682-.117-1.237-.352-1.664a2.694 2.694 0 0 0-.896-.992 3.957 3.957 0 0 0-1.152-.512 5.901 5.901 0 0 0-1.152-.192c-.362-.021-.65-.032-.864-.032h-3.68v6.752zM340.448 523v-3.776h6.112c.747 0 1.44-.117 2.08-.352a4.14 4.14 0 0 0 1.696-1.12c.491-.533.864-1.226 1.12-2.08.277-.874.416-1.93.416-3.168 0-1.194-.128-2.218-.384-3.072-.235-.874-.608-1.589-1.12-2.144-.491-.576-1.12-.992-1.888-1.248-.747-.256-1.621-.384-2.624-.384h-5.408v-3.776h5.248c2.56 0 4.651.416 6.272 1.248 1.621.832 2.805 2.027 3.552 3.584.768 1.536 1.152 3.382 1.152 5.536 0 1.664-.203 3.104-.608 4.32-.384 1.216-.917 2.24-1.6 3.072a8.692 8.692 0 0 1-2.272 1.984 9.583 9.583 0 0 1-2.72 1.056c-.939.214-1.867.32-2.784.32h-6.24zm-2.176 0v-21.12h4.608V523h-4.608zm20.152.224l-.32-4.224c.234.043.469.075.704.096h.544c.896 0 1.578-.128 2.048-.384.469-.256.8-.661.991-1.216.193-.554.289-1.28.289-2.176v-13.44h4.608v13.472c0 1.728-.246 3.19-.736 4.384-.491 1.174-1.27 2.07-2.336 2.688-1.067.619-2.443.928-4.128.928-.192 0-.416-.01-.672-.032a43.32 43.32 0 0 1-.992-.096zm20.629-.224v-21.12h8.704c1.302 0 2.464.118 3.488.352 1.024.214 1.899.555 2.624 1.024.747.448 1.312 1.024 1.696 1.728.384.704.576 1.547.576 2.528 0 .811-.17 1.536-.512 2.176-.341.619-.885 1.12-1.632 1.504-.746.384-1.717.651-2.912.8v.48c2.027.128 3.52.63 4.48 1.504.96.854 1.44 2.016 1.44 3.488 0 1.216-.32 2.24-.96 3.072-.64.811-1.589 1.43-2.848 1.856-1.237.406-2.784.608-4.64.608h-9.504zm4.416-3.712h5.056c.534 0 1.035-.032 1.504-.096.47-.085.896-.213 1.28-.384.384-.192.672-.458.864-.8.214-.341.32-.768.32-1.28 0-.469-.085-.864-.256-1.184a2.227 2.227 0 0 0-.704-.832 3.77 3.77 0 0 0-1.088-.576 5.255 5.255 0 0 0-1.376-.288 12.126 12.126 0 0 0-1.568-.096h-4.032v5.536zm0-8.448h3.296c.704 0 1.344-.042 1.92-.128.598-.085 1.11-.224 1.536-.416.448-.213.79-.49 1.024-.832.256-.362.384-.81.384-1.344 0-.512-.106-.928-.32-1.248a2.179 2.179 0 0 0-.896-.8 4.758 4.758 0 0 0-1.344-.416 9.176 9.176 0 0 0-1.568-.128h-4.032v5.312zm26.361 12.608c-1.536 0-2.912-.234-4.128-.704a8.837 8.837 0 0 1-3.136-2.112c-.853-.938-1.514-2.08-1.984-3.424-.448-1.365-.672-2.922-.672-4.672 0-2.496.438-4.554 1.312-6.176.875-1.642 2.07-2.869 3.584-3.68 1.515-.832 3.232-1.248 5.152-1.248 1.494 0 2.848.246 4.064.736a8.059 8.059 0 0 1 3.104 2.112c.875.918 1.547 2.059 2.016 3.424.47 1.366.704 2.944.704 4.736 0 1.814-.245 3.403-.736 4.768-.469 1.366-1.141 2.518-2.016 3.456a8.431 8.431 0 0 1-3.168 2.08c-1.216.47-2.581.704-4.096.704zm.096-3.68c.598 0 1.195-.106 1.792-.32.619-.213 1.184-.576 1.696-1.088.534-.512.95-1.226 1.248-2.144.299-.938.448-2.112.448-3.52 0-1.706-.224-3.104-.672-4.192-.426-1.109-1.045-1.93-1.856-2.464-.789-.533-1.696-.8-2.72-.8-.554 0-1.141.107-1.76.32-.597.192-1.162.555-1.696 1.088-.533.512-.96 1.238-1.28 2.176-.32.939-.48 2.155-.48 3.648 0 1.408.15 2.582.448 3.52.299.918.694 1.654 1.184 2.208.512.555 1.078.96 1.696 1.216.64.235 1.291.352 1.952.352zm22.873 3.68c-1.536 0-2.912-.234-4.128-.704a8.837 8.837 0 0 1-3.136-2.112c-.853-.938-1.515-2.08-1.984-3.424-.448-1.365-.672-2.922-.672-4.672 0-2.496.437-4.554 1.312-6.176.875-1.642 2.069-2.869 3.584-3.68 1.515-.832 3.232-1.248 5.152-1.248 1.493 0 2.848.246 4.064.736a8.059 8.059 0 0 1 3.104 2.112c.875.918 1.547 2.059 2.016 3.424.469 1.366.704 2.944.704 4.736 0 1.814-.245 3.403-.736 4.768-.469 1.366-1.141 2.518-2.016 3.456a8.447 8.447 0 0 1-3.168 2.08c-1.216.47-2.581.704-4.096.704zm.096-3.68c.597 0 1.195-.106 1.792-.32.619-.213 1.184-.576 1.696-1.088.533-.512.949-1.226 1.248-2.144.299-.938.448-2.112.448-3.52 0-1.706-.224-3.104-.672-4.192-.427-1.109-1.045-1.93-1.856-2.464-.789-.533-1.696-.8-2.72-.8-.555 0-1.141.107-1.76.32-.597.192-1.163.555-1.696 1.088-.533.512-.96 1.238-1.28 2.176-.32.939-.48 2.155-.48 3.648 0 1.408.149 2.582.448 3.52.299.918.693 1.654 1.184 2.208.512.555 1.077.96 1.696 1.216.64.235 1.291.352 1.952.352zM450.439 523v-21.12h4.64V523h-4.64zm-6.144-17.248v-3.872h16.96v3.872h-16.96zM477.876 523v-21.12h4.576V523h-4.576zm-13.76 0v-21.12h4.608V523h-4.608zm2.752-8.8v-3.776h12.864v3.776h-12.864z" fill="#fff"/><path d="M284.936 258.508c-1.643 0-3.115-.234-4.416-.704-1.28-.469-2.368-1.162-3.264-2.08-.896-.917-1.579-2.048-2.048-3.392-.469-1.344-.704-2.88-.704-4.608 0-1.792.235-3.37.704-4.736.491-1.386 1.184-2.56 2.08-3.52a8.552 8.552 0 0 1 3.2-2.208c1.237-.512 2.624-.768 4.16-.768 1.195 0 2.293.16 3.296.48 1.003.32 1.867.779 2.592 1.376a5.97 5.97 0 0 1 1.696 2.144c.405.832.608 1.771.608 2.816l-4.256 1.088c0-.917-.192-1.674-.576-2.272a3.589 3.589 0 0 0-1.504-1.376 4.325 4.325 0 0 0-2.016-.48c-.64 0-1.269.128-1.888.384-.597.256-1.152.672-1.664 1.248-.491.555-.885 1.291-1.184 2.208-.277.896-.416 2.006-.416 3.328 0 1.707.245 3.104.736 4.192.491 1.067 1.163 1.856 2.016 2.368.875.491 1.856.736 2.944.736 1.152 0 2.048-.234 2.688-.704a3.99 3.99 0 0 0 1.408-1.888 7.132 7.132 0 0 0 .48-2.432l4.064.64a11.147 11.147 0 0 1-.512 3.2 6.474 6.474 0 0 1-1.504 2.592c-.683.747-1.579 1.334-2.688 1.76-1.109.406-2.453.608-4.032.608zm21.144 0c-1.536 0-2.912-.234-4.128-.704a8.837 8.837 0 0 1-3.136-2.112c-.853-.938-1.514-2.08-1.984-3.424-.448-1.365-.672-2.922-.672-4.672 0-2.496.438-4.554 1.312-6.176.875-1.642 2.07-2.869 3.584-3.68 1.515-.832 3.232-1.248 5.152-1.248 1.494 0 2.848.246 4.064.736a8.059 8.059 0 0 1 3.104 2.112c.875.918 1.547 2.059 2.016 3.424.47 1.366.704 2.944.704 4.736 0 1.814-.245 3.403-.736 4.768-.469 1.366-1.141 2.518-2.016 3.456a8.431 8.431 0 0 1-3.168 2.08c-1.216.47-2.581.704-4.096.704zm.096-3.68c.598 0 1.195-.106 1.792-.32.619-.213 1.184-.576 1.696-1.088.534-.512.95-1.226 1.248-2.144.299-.938.448-2.112.448-3.52 0-1.706-.224-3.104-.672-4.192-.426-1.109-1.045-1.93-1.856-2.464-.789-.533-1.696-.8-2.72-.8-.554 0-1.141.107-1.76.32-.597.192-1.162.555-1.696 1.088-.533.512-.96 1.238-1.28 2.176-.32.939-.48 2.155-.48 3.648 0 1.408.15 2.582.448 3.52.299.918.694 1.654 1.184 2.208.512.555 1.078.96 1.696 1.216.64.235 1.291.352 1.952.352zm23.385 3.68c-1.643 0-3.115-.234-4.416-.704-1.28-.469-2.368-1.162-3.264-2.08-.896-.917-1.579-2.048-2.048-3.392-.469-1.344-.704-2.88-.704-4.608 0-1.792.235-3.37.704-4.736.491-1.386 1.184-2.56 2.08-3.52a8.552 8.552 0 0 1 3.2-2.208c1.237-.512 2.624-.768 4.16-.768 1.195 0 2.293.16 3.296.48 1.003.32 1.867.779 2.592 1.376a5.97 5.97 0 0 1 1.696 2.144c.405.832.608 1.771.608 2.816l-4.256 1.088c0-.917-.192-1.674-.576-2.272a3.589 3.589 0 0 0-1.504-1.376 4.325 4.325 0 0 0-2.016-.48c-.64 0-1.269.128-1.888.384-.597.256-1.152.672-1.664 1.248-.491.555-.885 1.291-1.184 2.208-.277.896-.416 2.006-.416 3.328 0 1.707.245 3.104.736 4.192.491 1.067 1.163 1.856 2.016 2.368.875.491 1.856.736 2.944.736 1.152 0 2.048-.234 2.688-.704a3.99 3.99 0 0 0 1.408-1.888 7.132 7.132 0 0 0 .48-2.432l4.064.64a11.147 11.147 0 0 1-.512 3.2 6.474 6.474 0 0 1-1.504 2.592c-.683.747-1.579 1.334-2.688 1.76-1.109.406-2.453.608-4.032.608zm11.961-.448v-21.12h4.608v9.44a14.905 14.905 0 0 0 3.008-1.696 15.462 15.462 0 0 0 2.528-2.304 15.48 15.48 0 0 0 1.888-2.656c.533-.938.917-1.866 1.152-2.784h5.28a14 14 0 0 1-1.344 3.168 17.296 17.296 0 0 1-2.144 2.912 18.958 18.958 0 0 1-2.624 2.464 13.219 13.219 0 0 1-2.88 1.664v.448c1.216 0 2.24.15 3.072.448.832.299 1.525.726 2.08 1.28a7.236 7.236 0 0 1 1.44 1.856 12.71 12.71 0 0 1 1.024 2.176l1.696 4.704h-5.216l-1.088-3.744c-.256-.874-.587-1.642-.992-2.304-.405-.661-.992-1.173-1.76-1.536-.768-.384-1.856-.576-3.264-.576h-1.856v8.16h-4.608zm26.511 0v-21.12h4.64v21.12h-4.64zm-6.144-17.248v-3.872h16.96v3.872h-16.96zm15.936 17.248l7.2-21.12h6.688l7.232 21.12h-5.024l-5.312-17.472h-.448l-5.344 17.472h-4.992zm4.032-4.128v-3.168h13.696v3.168h-13.696zm19.915 4.128v-21.12h4.672v21.12h-4.672zm9.219 0v-21.12h4.608v21.12h-4.608zm.928 0v-3.904h12.544v3.904h-12.544zm26.926 0v-21.12h4.64v21.12h-4.64zm-6.144-17.248v-3.872h16.96v3.872h-16.96zm15.937 17.248l7.2-21.12h6.688l7.232 21.12h-5.024l-5.312-17.472h-.448l-5.344 17.472h-4.992zm4.032-4.128v-3.168h13.696v3.168H452.67zm19.915 4.128v-21.12h8.704c1.301 0 2.464.118 3.488.352 1.024.214 1.898.555 2.624 1.024.746.448 1.312 1.024 1.696 1.728.384.704.576 1.547.576 2.528 0 .811-.171 1.536-.512 2.176-.342.619-.886 1.12-1.632 1.504-.747.384-1.718.651-2.912.8v.48c2.026.128 3.52.63 4.48 1.504.96.854 1.44 2.016 1.44 3.488 0 1.216-.32 2.24-.96 3.072-.64.811-1.59 1.43-2.848 1.856-1.238.406-2.784.608-4.64.608h-9.504zm4.416-3.712h5.056c.533 0 1.034-.032 1.504-.096a5.588 5.588 0 0 0 1.28-.384c.384-.192.672-.458.864-.8.213-.341.32-.768.32-1.28 0-.469-.086-.864-.256-1.184a2.246 2.246 0 0 0-.704-.832 3.797 3.797 0 0 0-1.088-.576 5.264 5.264 0 0 0-1.376-.288 12.149 12.149 0 0 0-1.568-.096h-4.032v5.536zm0-8.448h3.296c.704 0 1.344-.042 1.92-.128.597-.085 1.109-.224 1.536-.416.448-.213.789-.49 1.024-.832.256-.362.384-.81.384-1.344 0-.512-.107-.928-.32-1.248a2.185 2.185 0 0 0-.896-.8 4.758 4.758 0 0 0-1.344-.416 9.193 9.193 0 0 0-1.568-.128h-4.032v5.312zm17.209 12.16v-21.12h4.608v21.12h-4.608zm.928 0v-3.904h12.544v3.904h-12.544zm15.197 0v-21.12h4.608v21.12h-4.608zm3.2 0v-3.776h12.96v3.776h-12.96zm0-8.96v-3.424h11.36v3.424h-11.36zm0-8.416v-3.744h12.896v3.744h-12.896zm24.521 17.824c-1.386 0-2.634-.138-3.744-.416-1.088-.277-2.026-.682-2.816-1.216a5.876 5.876 0 0 1-1.792-2.048c-.426-.832-.672-1.792-.736-2.88l4.064-1.28c.043.96.278 1.76.704 2.4.448.64 1.067 1.12 1.856 1.44.811.299 1.718.448 2.72.448.939 0 1.728-.117 2.368-.352.662-.234 1.163-.544 1.504-.928.342-.405.512-.842.512-1.312 0-.554-.224-1.002-.672-1.344-.426-.341-1.002-.629-1.728-.864a29.63 29.63 0 0 0-2.496-.672 105.383 105.383 0 0 1-3.072-.8 12.524 12.524 0 0 1-2.72-1.152 5.73 5.73 0 0 1-1.952-1.824c-.469-.746-.704-1.685-.704-2.816 0-1.301.32-2.421.96-3.36.662-.96 1.611-1.706 2.848-2.24 1.259-.533 2.784-.8 4.576-.8 1.75 0 3.264.267 4.544.8 1.28.512 2.272 1.259 2.976 2.24.704.96 1.067 2.091 1.088 3.392l-4.128 1.12c0-.661-.106-1.237-.32-1.728a3.18 3.18 0 0 0-.896-1.248c-.384-.341-.864-.597-1.44-.768-.554-.17-1.184-.256-1.888-.256-.832 0-1.546.118-2.144.352-.597.214-1.056.502-1.376.864-.298.342-.448.758-.448 1.248 0 .576.235 1.046.704 1.408.47.363 1.099.672 1.888.928.811.235 1.686.459 2.624.672.918.192 1.846.438 2.784.736.96.278 1.846.651 2.656 1.12a5.188 5.188 0 0 1 1.984 1.856c.512.768.768 1.75.768 2.944 0 1.28-.341 2.4-1.024 3.36-.682.939-1.696 1.675-3.04 2.208-1.344.512-3.008.768-4.992.768zM57.991 288.207c-.618-1.242-1.05-2.42-1.297-3.537-.238-1.097-.293-2.118-.168-3.063a5.881 5.881 0 0 1 1.033-2.517c.555-.753 1.305-1.401 2.25-1.943l2.958 3.066c-.84.466-1.451 1.033-1.834 1.701-.373.686-.526 1.454-.46 2.303.093.859.364 1.737.812 2.634.418.84.875 1.495 1.37 1.963.506.487 1.006.798 1.502.932.515.124.983.082 1.403-.127.496-.248.797-.648.903-1.201.115-.534.116-1.178.003-1.932a29.227 29.227 0 0 0-.512-2.534c-.237-1.05-.456-2.085-.655-3.106a12.561 12.561 0 0 1-.182-2.948 5.727 5.727 0 0 1 .762-2.561c.459-.753 1.194-1.382 2.206-1.886 1.165-.581 2.31-.794 3.436-.64 1.154.164 2.246.681 3.275 1.55 1.039.889 1.958 2.135 2.757 3.739.78 1.566 1.217 3.04 1.31 4.424.114 1.374-.112 2.595-.677 3.662-.545 1.059-1.395 1.888-2.55 2.487l-2.844-3.195c.592-.295 1.06-.647 1.404-1.057a3.18 3.18 0 0 0 .717-1.359c.135-.496.15-1.039.045-1.631-.094-.573-.299-1.174-.613-1.804-.37-.745-.794-1.332-1.271-1.762-.457-.439-.92-.721-1.387-.846-.439-.115-.878-.063-1.317.156-.515.257-.83.676-.946 1.258-.115.582-.111 1.283.012 2.103a45.1 45.1 0 0 0 .569 2.649c.237.906.431 1.846.583 2.82.18.983.24 1.942.182 2.876a5.189 5.189 0 0 1-.776 2.604c-.46.801-1.223 1.468-2.293 2.001-1.145.57-2.3.765-3.464.582-1.144-.193-2.255-.771-3.332-1.736-1.058-.975-2.029-2.35-2.914-4.125zm9.685 19.431c-.686-1.374-1.09-2.71-1.212-4.008a8.853 8.853 0 0 1 .492-3.749c.46-1.182 1.186-2.283 2.18-3.303 1.022-1.01 2.316-1.905 3.881-2.685 2.234-1.114 4.272-1.64 6.113-1.581 1.86.05 3.491.572 4.892 1.566 1.42.985 2.559 2.336 3.415 4.055.666 1.336 1.051 2.658 1.154 3.965a8.05 8.05 0 0 1-.505 3.721c-.431 1.192-1.153 2.302-2.166 3.331-1.012 1.029-2.32 1.943-3.924 2.743-1.623.809-3.155 1.298-4.596 1.468-1.431.189-2.762.101-3.993-.263a8.448 8.448 0 0 1-3.274-1.908c-.963-.879-1.782-1.996-2.457-3.352zm3.336-1.555a5.283 5.283 0 0 0 1.086 1.461c.467.459 1.043.803 1.73 1.033.696.249 1.521.302 2.476.16.973-.151 2.09-.541 3.35-1.169 1.527-.761 2.678-1.585 3.452-2.471.803-.877 1.262-1.797 1.378-2.76.125-.945-.041-1.875-.498-2.792-.247-.496-.604-.973-1.071-1.432-.439-.449-1.015-.793-1.73-1.033-.697-.249-1.536-.307-2.519-.175-.983.133-2.142.532-3.48 1.198-1.26.628-2.243 1.285-2.95 1.971-.688.676-1.17 1.358-1.448 2.045-.268.705-.378 1.392-.332 2.06.076.677.261 1.312.556 1.904zm3.214 13.694l18.902-9.421 2.055 4.124-18.902 9.421-2.055-4.124zm8.044-1.578l3.38-1.684 5.452 10.94-3.38 1.684-5.452-10.94zm8.306-4.14l3.523-1.755 5.98 12-3.522 1.756-5.981-12.001zm-9.455 19.554l22.114-2.976 2.984 5.986-15.677 15.893-2.241-4.497 13.268-12.547-.2-.401-18.021 3.01-2.227-4.468zm5.493 1.768l2.836-1.413 6.109 12.258-2.836 1.413-6.109-12.258zm7.666 24.635l22.114-2.977 2.983 5.986-15.677 15.894-2.241-4.497 13.268-12.548-.199-.401-18.022 3.011-2.226-4.468zm5.493 1.767l2.835-1.413 6.109 12.258-2.835 1.413-6.11-12.258zm5.188 19.666l18.903-9.421 3.825 7.676c.457.916.809 1.813 1.055 2.691.266.869.418 1.699.455 2.491a6.706 6.706 0 0 1-.232 2.261 4.673 4.673 0 0 1-1.018 1.902c-.469.543-1.084 1.005-1.848 1.386-.668.333-1.322.527-1.962.584a4.28 4.28 0 0 1-1.888-.203c-.611-.22-1.211-.588-1.802-1.104-.562-.507-1.1-1.156-1.615-1.949l-.401.2c.371 1.031.532 1.928.483 2.691a4.011 4.011 0 0 1-.718 2.074c-.42.639-1.008 1.301-1.763 1.987l-3.338 3.058-2.27-4.553 3.152-2.644c.678-.552 1.156-1.1 1.434-1.644a2.832 2.832 0 0 0 .302-1.688c-.066-.563-.27-1.188-.613-1.875l-1.527-3.065-6.559 3.269-2.055-4.124zm11.736-.701l1.327 2.664c.162.324.352.682.571 1.074.219.391.476.764.772 1.117.304.373.643.669 1.015.889.381.239.815.368 1.301.388.496.039 1.04-.089 1.632-.384.611-.305 1.055-.657 1.333-1.058a2.7 2.7 0 0 0 .488-1.244c.048-.429.03-.849-.056-1.26a5.85 5.85 0 0 0-.342-1.116 15.143 15.143 0 0 0-.357-.788l-1.641-3.293-6.043 3.011zm-2.132 19.971l18.903-9.42 2.055 4.124-18.903 9.42-2.055-4.124zm1.427 2.864l3.38-1.684 5.781 11.599-3.38 1.685-5.781-11.6zm8.02-3.996l3.064-1.528 5.067 10.168-3.064 1.527-5.067-10.167zm7.532-3.754l3.351-1.67 5.752 11.542-3.351 1.67-5.752-11.542zm-8.926 21.044l22.114-2.976 2.983 5.985-15.677 15.894-2.241-4.497 13.268-12.548-.199-.401-18.022 3.011-2.226-4.468zm5.493 1.767l2.835-1.413 6.109 12.258-2.835 1.413-6.109-12.258zm541.317 30.226c-.719 1.185-1.484 2.181-2.297 2.985-.801.787-1.634 1.379-2.499 1.778a5.878 5.878 0 0 1-2.681.47c-.932-.066-1.881-.354-2.844-.863l1.012-4.139c.843.461 1.649.675 2.418.642.779-.051 1.51-.331 2.193-.84.676-.539 1.274-1.237 1.794-2.094.486-.803.795-1.538.926-2.207.142-.687.138-1.277-.014-1.768-.169-.502-.455-.874-.856-1.118-.474-.287-.973-.328-1.498-.122-.513.188-1.058.531-1.634 1.03-.577.499-1.2 1.094-1.869 1.786-.761.761-1.52 1.498-2.277 2.212a12.536 12.536 0 0 1-2.395 1.729 5.721 5.721 0 0 1-2.572.723c-.882.014-1.806-.272-2.773-.858-1.113-.675-1.904-1.529-2.375-2.563-.478-1.063-.625-2.262-.439-3.596.196-1.353.759-2.796 1.688-4.328.907-1.496 1.921-2.653 3.04-3.471 1.102-.829 2.254-1.29 3.459-1.383 1.185-.105 2.34.171 3.464.828l-1.182 4.11c-.566-.343-1.114-.55-1.644-.622a3.192 3.192 0 0 0-1.532.119c-.49.152-.958.429-1.403.833-.433.386-.833.88-1.198 1.482-.431.712-.701 1.384-.81 2.016-.127.621-.119 1.163.025 1.625.137.432.416.775.835 1.03.493.298 1.016.341 1.569.128.554-.214 1.144-.591 1.773-1.134a46.831 46.831 0 0 0 1.935-1.895 28.168 28.168 0 0 1 2.072-1.999 11.837 11.837 0 0 1 2.335-1.691 5.189 5.189 0 0 1 2.616-.734c.922-.039 1.894.25 2.915.87 1.095.663 1.876 1.536 2.343 2.617.448 1.071.552 2.319.312 3.745-.259 1.414-.903 2.97-1.932 4.667zm11.257-18.566c-.797 1.313-1.711 2.368-2.743 3.165a8.854 8.854 0 0 1-3.431 1.586c-1.246.243-2.564.217-3.957-.078-1.4-.325-2.848-.941-4.343-1.848-2.135-1.294-3.668-2.735-4.601-4.324-.951-1.599-1.381-3.257-1.289-4.972.074-1.727.609-3.411 1.604-5.053.774-1.277 1.686-2.308 2.736-3.093a8.046 8.046 0 0 1 3.416-1.56c1.237-.272 2.562-.255 3.973.052 1.411.306 2.882.924 4.414 1.853 1.551.94 2.783 1.974 3.696 3.101.924 1.11 1.561 2.281 1.91 3.516a8.454 8.454 0 0 1 .136 3.787c-.229 1.284-.736 2.573-1.521 3.868zm-3.097-1.99a5.31 5.31 0 0 0 .655-1.698c.138-.64.121-1.311-.051-2.015-.161-.721-.557-1.447-1.186-2.178-.648-.742-1.574-1.478-2.778-2.208-1.459-.885-2.77-1.418-3.933-1.599-1.17-.21-2.193-.107-3.069.309-.866.399-1.564 1.036-2.095 1.912a5.406 5.406 0 0 0-.638 1.67c-.146.611-.129 1.282.051 2.015.161.721.56 1.462 1.197 2.222.636.761 1.593 1.528 2.87 2.302 1.204.73 2.285 1.211 3.243 1.442.939.22 1.773.264 2.501.132.74-.15 1.38-.423 1.92-.819.532-.426.97-.922 1.313-1.487zm9.861-10.03l-18.06-10.95 2.389-3.94 18.06 10.949-2.389 3.941zm-5.631-5.959l-3.229-1.958 6.338-10.452 3.229 1.957-6.338 10.453zm-7.935-4.811l-3.366-2.041 6.951-11.465 3.366 2.041-6.951 11.465zm21.581-2.45l-14.327-17.106 3.467-5.719 21.81 4.765-2.605 4.296-17.695-4.516-.232.383 12.17 13.628-2.588 4.269zm-1.44-5.588l-2.709-1.642 7.101-11.712 2.709 1.643-7.101 11.711zm16.734-19.637l-14.327-17.107 3.468-5.719 21.809 4.766-2.605 4.296-17.694-4.516-.232.383 12.169 13.628-2.588 4.269zm-1.439-5.588l-2.709-1.643 7.101-11.711 2.708 1.642-7.1 11.712zm13.854-14.889l-18.059-10.95 4.446-7.334a15.476 15.476 0 0 1 1.712-2.33 10.13 10.13 0 0 1 1.863-1.714 6.71 6.71 0 0 1 2.035-1.012 4.673 4.673 0 0 1 2.152-.154c.709.105 1.429.38 2.159.822.638.387 1.152.836 1.541 1.346.4.492.679 1.061.837 1.705.14.634.15 1.338.029 2.113-.128.746-.39 1.548-.785 2.406l.383.232c.674-.864 1.346-1.479 2.017-1.845a4.011 4.011 0 0 1 2.137-.501c.765.015 1.639.158 2.622.429l4.368 1.189-2.638 4.351-3.918-1.253c-.829-.278-1.548-.389-2.155-.333a2.826 2.826 0 0 0-1.589.645c-.441.357-.86.863-1.258 1.52l-1.776 2.928 6.267 3.799-2.39 3.941zm-6.859-9.548l1.543-2.545a25.2 25.2 0 0 0 .603-1.057c.214-.394.391-.81.532-1.248.152-.457.222-.901.21-1.333a2.603 2.603 0 0 0-.368-1.308c-.232-.44-.631-.831-1.196-1.174-.584-.354-1.119-.542-1.605-.562a2.689 2.689 0 0 0-1.313.252 3.952 3.952 0 0 0-1.035.719 5.95 5.95 0 0 0-.762.886c-.206.299-.364.54-.475.722l-1.908 3.147 5.774 3.501zm18.022-8.864L716.277 330l2.389-3.94 18.06 10.95-2.39 3.94zm1.66-2.736l-3.229-1.958 6.719-11.082 3.229 1.958-6.719 11.082zm-7.662-4.646l-2.928-1.775 5.89-9.714 2.927 1.775-5.889 9.714zm-7.197-4.363l-3.201-1.941 6.686-11.027 3.201 1.941-6.686 11.027zm22.559-3.692l-14.327-17.107 3.468-5.719 21.809 4.766-2.605 4.296-17.694-4.516-.232.383 12.169 13.628-2.588 4.269zm-1.439-5.588l-2.709-1.643 7.101-11.711 2.709 1.642-7.101 11.712z" fill="#030F1A"/><path d="M731.717 238.929h56.356v-53.217m0-20.393v-52.22m0-25.39v-42.58h-79.494m-19.368.001h-66.352M547 105.06v-44m64.185-15.93h-61.729" stroke="#D2D6D9" stroke-width="7" stroke-miterlimit="10"/></g><defs><clipPath id="clip0_8406_19975"><path fill="#fff" d="M0 0h821v763H0z"/></clipPath></defs></svg>