<svg width="22" height="20" viewBox="0 0 22 20" fill="none" xmlns="http://www.w3.org/2000/svg"><path d="M1 2.6c0-.56 0-.84.109-1.054a1 1 0 0 1 .437-.437C1.76 1 2.04 1 2.6 1h16.8c.56 0 .84 0 1.054.109a1 1 0 0 1 .437.437C21 1.76 21 2.04 21 2.6v.67c0 .268 0 .403-.033.528-.029.11-.077.215-.141.31-.073.106-.175.194-.378.37l-6.396 5.543c-.203.176-.305.265-.377.371-.065.095-.113.2-.142.31-.033.125-.033.26-.033.529v5.227c0 .196 0 .294-.031.378a.5.5 0 0 1-.133.196c-.066.06-.157.096-.339.17l-3.4 1.36c-.367.146-.551.22-.699.189a.5.5 0 0 1-.315-.213c-.083-.126-.083-.324-.083-.72v-6.587c0-.27 0-.404-.033-.529a1.001 1.001 0 0 0-.141-.31c-.073-.106-.175-.194-.378-.37L1.552 4.478c-.203-.177-.305-.265-.378-.371a1 1 0 0 1-.141-.31C1 3.673 1 3.538 1 3.269V2.6z" stroke="#030F1A" stroke-width="2" stroke-linecap="round" stroke-linejoin="round"/></svg>