<svg width="51" height="50" viewBox="0 0 51 50" fill="none" xmlns="http://www.w3.org/2000/svg"><rect x=".5" width="50" height="50" rx="6.25" fill="#FFF2CF"/><path d="M11.5 17v16a2.667 2.667 0 0 0 2.667 2.667h22c.666 0 .666-.664.666-.664V17H11.5z" fill="#F57C00"/><path d="M36.167 14.333h-22a2.666 2.666 0 1 0 0 5.334h22c.666 0 .666.666.666.666V15a.666.666 0 0 0-.666-.667z" fill="#942A09"/><path d="M14.167 17v2.667h22c.666 0 .666.668.666.668v13.998h1.334V17h-24z" fill="#4CAF50"/><path d="M14.167 18.333v1.334h19.122a4.694 4.694 0 0 1-.401-1.334H14.167z" fill="#C8E6C9"/><path d="M39.5 24.333h-6a2.667 2.667 0 0 0 0 5.334h6v-5.334z" fill="#BF360C"/><path d="M33.5 25.667a1.333 1.333 0 1 0 0 2.666 1.333 1.333 0 0 0 0-2.666z" fill="#FFECB3"/></svg>