<svg width="56" height="57" viewBox="0 0 56 57" fill="none" xmlns="http://www.w3.org/2000/svg"><path d="M0 28.5c0 15.464 12.536 28 28 28s28-12.536 28-28S43.464.5 28 .5 0 13.036 0 28.5zm50.4 0c0 12.371-10.029 22.4-22.4 22.4-12.371 0-22.4-10.029-22.4-22.4C5.6 16.129 15.629 6.1 28 6.1c12.371 0 22.4 10.029 22.4 22.4z" fill="#F2F2F2"/><path d="M53.2 28.5c1.546 0 2.814-1.257 2.66-2.795A28.001 28.001 0 0 0 30.795.64C29.257.485 28 1.754 28 3.3s1.259 2.782 2.793 2.975a22.4 22.4 0 0 1 19.432 19.432c.193 1.534 1.429 2.793 2.975 2.793z" fill="#FF6900"/></svg>