<svg width="61" height="60" viewBox="0 0 61 60" fill="none" xmlns="http://www.w3.org/2000/svg"><g style="mix-blend-mode:luminosity"><path d="M1.426 30C1.426 13.945 14.446.926 30.5.926 46.555.926 59.574 13.946 59.574 30c0 16.055-13.02 29.074-29.074 29.074-16.055 0-29.074-13.02-29.074-29.074z" fill="#EFC849"/><path d="M19.145 12.434a1.96 1.96 0 0 0-1.957 1.957v31.37a1.96 1.96 0 0 0 1.957 1.958H41.69a1.96 1.96 0 0 0 1.957-1.957V21.504l-9.457-9.082H19.144v.012z" fill="#F5F5F5"/><path d="M43.66 21.516h-7.488a1.96 1.96 0 0 1-1.957-1.957v-7.125l9.445 9.082z" fill="#E1E1E1"/><path d="M40.895 24.2c0 .339-.27.608-.61.608H20.703c-.34 0-.61-.27-.61-.609 0-.34.27-.61.61-.61h19.582a.6.6 0 0 1 .61.61zm0 3.21c0 .34-.27.61-.61.61H20.703c-.34 0-.61-.27-.61-.61 0-.34.27-.61.61-.61h19.582c.34 0 .61.27.61.61zm0 3.059c0 .34-.27.609-.61.609H20.703c-.34 0-.61-.27-.61-.61 0-.34.27-.609.61-.609h19.582c.34 0 .61.27.61.61zm0 3.21c0 .34-.27.61-.61.61H20.703c-.34 0-.61-.27-.61-.61 0-.34.27-.609.61-.609h19.582c.34 0 .61.27.61.61zm-9.938 2.602H20.703c-.34 0-.61.27-.61.61 0 .34.27.609.61.609h10.254c.34 0 .61-.27.61-.61 0-.34-.27-.609-.61-.609z" fill="#C9C9C8"/><path d="M41.691 37.852a6.996 6.996 0 1 0 0 13.992 6.996 6.996 0 0 0 0-13.992z" fill="#49A0AE"/><path d="M46.227 44.121l-3.82-3.82a.997.997 0 0 0-1.407.012l-3.82 3.82c-.903.902.504 2.308 1.406 1.394l3.82-3.82c-.468 0-.937 0-1.406.012l3.82 3.82c.914.89 2.309-.516 1.407-1.418zm-4.524-2.918v7.899-7.899z" fill="#fff"/><path d="M40.707 41.203v7.887c0 1.277 1.992 1.289 1.992.012v-7.899c-.011-1.277-1.992-1.289-1.992 0z" fill="#fff"/></g></svg>