<svg width="22" height="23" viewBox="0 0 22 23" fill="none" xmlns="http://www.w3.org/2000/svg"><path d="M18 7.167v-6m-3 3h6m0 7v5.2c0 1.68 0 2.52-.327 3.162a3 3 0 0 1-1.311 1.311c-.642.327-1.482.327-3.162.327H5.8c-1.68 0-2.52 0-3.162-.327a3 3 0 0 1-1.311-1.311C1 18.887 1 18.047 1 16.367v-10.4c0-1.68 0-2.52.327-3.162a3 3 0 0 1 1.311-1.311c.642-.327 1.482-.327 3.162-.327H11M1.146 19.093A4.002 4.002 0 0 1 5 16.167h7c.93 0 1.394 0 1.78.077a4 4 0 0 1 3.143 3.143c.077.386.077.85.077 1.78m-4-12.5a4 4 0 1 1-8 0 4 4 0 0 1 8 0z" stroke="#030F1A" stroke-width="2" stroke-linecap="round" stroke-linejoin="round"/></svg>