<svg width="20" height="20" viewBox="0 0 20 20" fill="none" xmlns="http://www.w3.org/2000/svg"><path d="M6 1a1 1 0 0 1 1-1h6a1 1 0 1 1 0 2H7a1 1 0 0 1-1-1z" fill="#ED1B2E"/><path fill-rule="evenodd" clip-rule="evenodd" d="M0 4a1 1 0 0 1 1-1h18a1 1 0 1 1 0 2h-1.064l-.642 9.626c-.05.755-.092 1.38-.167 1.889-.078.53-.201 1.014-.458 1.465a4 4 0 0 1-1.731 1.62c-.468.226-.959.317-1.493.36-.512.04-1.139.04-1.896.04H8.451c-.757 0-1.384 0-1.896-.04-.534-.043-1.025-.134-1.493-.36a4 4 0 0 1-1.73-1.62c-.258-.451-.381-.935-.46-1.465-.074-.509-.115-1.134-.166-1.89L2.064 5H1a1 1 0 0 1-1-1zm8 3.5a1 1 0 0 1 1 1v5a1 1 0 1 1-2 0v-5a1 1 0 0 1 1-1zm5 1a1 1 0 1 0-2 0v5a1 1 0 1 0 2 0v-5z" fill="#ED1B2E"/></svg>