<svg width="22" height="18" viewBox="0 0 22 18" fill="none" xmlns="http://www.w3.org/2000/svg"><path d="M9 5V4m0 5.5v-1M9 14v-1M4.2 1h13.6c1.12 0 1.68 0 2.108.218a2 2 0 0 1 .874.874C21 2.52 21 3.08 21 4.2v1.3a3.5 3.5 0 1 0 0 7v1.3c0 1.12 0 1.68-.218 2.108a2 2 0 0 1-.874.874C19.48 17 18.92 17 17.8 17H4.2c-1.12 0-1.68 0-2.108-.218a2 2 0 0 1-.874-.874C1 15.48 1 14.92 1 13.8v-1.3a3.5 3.5 0 1 0 0-7V4.2c0-1.12 0-1.68.218-2.108a2 2 0 0 1 .874-.874C2.52 1 3.08 1 4.2 1z" stroke="#030F1A" stroke-width="2" stroke-linecap="round" stroke-linejoin="round"/></svg>