<svg width="49" height="48" viewBox="0 0 49 48" fill="none" xmlns="http://www.w3.org/2000/svg"><path d="M42 23a4.476 4.476 0 0 1-3.282-1.439A8.442 8.442 0 0 1 34 23a8.5 8.5 0 0 1-7.066-13.223A4.471 4.471 0 0 1 25.5 6.5c0-.89.267-1.715.713-2.414A20.21 20.21 0 0 0 24.5 4c-11.046 0-20 8.954-20 20s8.954 20 20 20 20-8.954 20-20c0-.579-.033-1.149-.082-1.716A4.466 4.466 0 0 1 42 23z" fill="#FFB300"/><path d="M35 11a1.5 1.5 0 1 0 0 3 1.5 1.5 0 0 0 0-3zm8 3a1.5 1.5 0 1 0 0 3 1.5 1.5 0 0 0 0-3zM36.5 4a2 2 0 1 0 0 4 2 2 0 0 0 0-4z" fill="#FFB300"/><path d="M13.5 19a3 3 0 1 0 0 6 3 3 0 0 0 0-6zm15 13a3 3 0 1 0 0 6 3 3 0 0 0 0-6zM17 31a2.5 2.5 0 1 0 0 5 2.5 2.5 0 0 0 0-5zm6-8a1.5 1.5 0 1 0 0 3 1.5 1.5 0 0 0 0-3zm12 3a1.5 1.5 0 1 0 0 3 1.5 1.5 0 0 0 0-3zM19 12a1.5 1.5 0 1 0 0 3 1.5 1.5 0 0 0 0-3z" fill="#683529"/></svg>