<svg width="101" height="100" viewBox="0 0 101 100" fill="none" xmlns="http://www.w3.org/2000/svg"><path d="M13.5 27a2 2 0 1 0 0 4 2 2 0 0 0 0-4z" fill="#EE3E54"/><path d="M77.5 12a1 1 0 1 0 0 2 1 1 0 0 0 0-2z" fill="#F1BC19"/><path d="M50.5 13a37 37 0 1 0 0 74 37 37 0 0 0 0-74z" fill="#F9DBD2"/><path d="M83.5 11a4 4 0 1 0 0 8 4 4 0 0 0 0-8z" fill="#F1BC19"/><path d="M87.5 22a2 2 0 1 0 0 4 2 2 0 0 0 0-4z" fill="#EE3E54"/><path d="M81.5 74a2 2 0 1 0 0 4 2 2 0 0 0 0-4zm-66-15a4 4 0 1 0 0 8 4 4 0 0 0 0-8z" fill="#FBCD59"/><path d="M25.5 85a2 2 0 1 0 0 4 2 2 0 0 0 0-4z" fill="#EE3E54"/><path d="M19 51a2.5 2.5 0 1 0 0 5 2.5 2.5 0 0 0 0-5z" fill="#fff"/><path d="M21.5 66a1 1 0 1 0 0 2 1 1 0 0 0 0-2z" fill="#F1BC19"/><path d="M80.5 33a1 1 0 1 0 0 2 1 1 0 0 0 0-2z" fill="#fff"/><path d="M50.5 26a24 24 0 1 0 0 48 24 24 0 0 0 0-48z" fill="#FDFCEE"/><path d="M50.5 26.4c13 0 23.6 10.6 23.6 23.6 0 13-10.6 23.6-23.6 23.6-13 0-23.6-10.6-23.6-23.6 0-13 10.6-23.6 23.6-23.6zm0-1.4c-13.8 0-25 11.2-25 25s11.2 25 25 25 25-11.2 25-25-11.2-25-25-25z" fill="#472B29"/><path d="M50.5 30.4a19.6 19.6 0 1 0 0 39.2 19.6 19.6 0 0 0 0-39.2z" fill="#EE3E54"/><path d="M50.5 33.4c10.3 0 18.8 8 19.5 18.1 0-.5.1-1 .1-1.5 0-10.8-8.8-19.6-19.6-19.6S30.9 39.2 30.9 50c0 .5 0 1 .1 1.5.7-10.1 9.2-18.1 19.5-18.1z" fill="#F06272"/><path d="M50.5 30.8c10.6 0 19.3 8.6 19.3 19.2s-8.6 19.3-19.3 19.3c-10.6 0-19.2-8.6-19.2-19.3 0-10.6 8.6-19.2 19.2-19.2zm0-.8c-11 0-20 9-20 20s9 20 20 20 20-9 20-20-9-20-20-20z" fill="#472B29"/><path d="M52.8 50l5.9-5.9c.3-.3.5-.7.5-1.1 0-.4-.2-.8-.5-1.1-.6-.6-1.7-.6-2.3 0l-5.9 5.8-5.9-5.9c-.6-.6-1.7-.6-2.3 0-.6.6-.6 1.7 0 2.3l5.9 5.9-5.9 5.9c-.6.6-.6 1.7 0 2.3.6.6 1.7.6 2.3 0l5.9-5.9 5.9 5.9c.3.3.7.5 1.1.5.4 0 .8-.2 1.1-.5.6-.6.6-1.7 0-2.3L52.8 50z" fill="#FDFCEE"/><path d="M43.5 59c-.5 0-1-.2-1.4-.6-.8-.8-.8-2 0-2.8l5.6-5.6-5.6-5.6c-.4-.4-.6-.9-.6-1.4 0-.5.2-1 .6-1.4.8-.8 2.1-.8 2.8 0l5.6 5.6 5.6-5.6c.8-.8 2-.8 2.8 0 .4.4.6.9.6 1.4 0 .5-.2 1-.6 1.4L53.3 50l5.6 5.6c.8.8.8 2 0 2.8-.8.8-2.1.8-2.8 0l-5.6-5.6-5.6 5.6c-.4.4-.9.6-1.4.6zm0-17.3c-.3 0-.6.1-.9.4-.2.2-.4.5-.4.9s.1.6.4.9l6.1 6.1-6.1 6.1c-.5.5-.5 1.3 0 1.8s1.3.5 1.8 0l6.1-6.1 6.1 6.1c.5.5 1.3.5 1.8 0s.5-1.3 0-1.8L52.3 50l6.1-6.1c.2-.2.4-.6.4-.9 0-.3-.1-.6-.4-.9-.5-.5-1.3-.5-1.8 0l-6.1 6.1-6.1-6.1c-.3-.2-.6-.4-.9-.4z" fill="#472B29"/></svg>