<svg width="85" height="84" viewBox="0 0 85 84" fill="none" xmlns="http://www.w3.org/2000/svg"><path d="M11.42 26.04a1.68 1.68 0 1 0 0-3.36 1.68 1.68 0 0 0 0 3.36z" fill="#78A0CF"/><path d="M65.18 11.76a.84.84 0 1 0 0-1.68.84.84 0 0 0 0 1.68z" fill="#F1BC19"/><path d="M42.5 73.08c17.165 0 31.08-13.915 31.08-31.08S59.665 10.92 42.5 10.92 11.42 24.835 11.42 42 25.335 73.08 42.5 73.08z" fill="#CEE1F4"/><path d="M70.22 15.96a3.36 3.36 0 1 0 0-6.72 3.36 3.36 0 0 0 0 6.72z" fill="#F1BC19"/><path d="M73.58 21.84a1.68 1.68 0 1 0 0-3.36 1.68 1.68 0 0 0 0 3.36z" fill="#78A0CF"/><path d="M68.54 65.52a1.68 1.68 0 1 0 0-3.36 1.68 1.68 0 0 0 0 3.36zM13.1 56.28a3.36 3.36 0 1 0 0-6.72 3.36 3.36 0 0 0 0 6.72z" fill="#FBCD59"/><path d="M21.5 74.76a1.68 1.68 0 1 0 0-3.36 1.68 1.68 0 0 0 0 3.36z" fill="#78A0CF"/><path d="M24.44 25.2a2.1 2.1 0 1 0 0-4.2 2.1 2.1 0 0 0 0 4.2z" fill="#fff"/><path d="M20.66 60.48a.84.84 0 1 0 0-1.68.84.84 0 0 0 0 1.68z" fill="#F1BC19"/><path d="M69.38 34.44a.84.84 0 1 0 0-1.68.84.84 0 0 0 0 1.68z" fill="#fff"/><path d="M20.518 56.532a1.794 1.794 0 0 1-1.791-1.793v-8.835a3.954 3.954 0 0 0 3.36-3.905 3.953 3.953 0 0 0-3.36-3.904V30.1c0-.989.803-1.792 1.791-1.792h43.96c.989 0 1.793.803 1.793 1.792v7.996A3.954 3.954 0 0 0 62.91 42c0 1.978 1.46 3.62 3.36 3.905v8.836c0 .988-.804 1.792-1.792 1.792h-43.96z" fill="#F6CCA4"/><path d="M64.48 28.896c.663 0 1.203.54 1.203 1.204v7.52a4.544 4.544 0 0 0-3.36 4.38 4.544 4.544 0 0 0 3.36 4.382v8.359c0 .664-.54 1.204-1.204 1.204H20.52c-.664 0-1.204-.54-1.204-1.204v-8.359a4.544 4.544 0 0 0 3.36-4.381 4.544 4.544 0 0 0-3.36-4.382V30.1c0-.664.54-1.204 1.204-1.204h43.96zm0-1.176H20.518a2.38 2.38 0 0 0-2.38 2.38v8.54a3.36 3.36 0 0 1 0 6.72v9.38a2.38 2.38 0 0 0 2.38 2.38h43.96a2.38 2.38 0 0 0 2.38-2.38v-9.38a3.36 3.36 0 0 1 0-6.72V30.1a2.38 2.38 0 0 0-2.38-2.38z" fill="#472B29"/><path d="M59.299 34.44a.84.84 0 1 0 0-1.68.84.84 0 0 0 0 1.68zm0-3.36a.84.84 0 1 0 0-1.68.84.84 0 0 0 0 1.68zm0 6.72a.84.84 0 1 0 0-1.68.84.84 0 0 0 0 1.68zm0 3.36a.84.84 0 1 0 0-1.68.84.84 0 0 0 0 1.68zm0 3.36a.84.84 0 1 0 0-1.68.84.84 0 0 0 0 1.68zm0 3.36a.84.84 0 1 0 0-1.68.84.84 0 0 0 0 1.68zm0 3.36a.84.84 0 1 0 0-1.68.84.84 0 0 0 0 1.68zm0 3.36a.84.84 0 1 0 0-1.68.84.84 0 0 0 0 1.68zm-2.923-22.89H44.878a.21.21 0 1 1 0-.42h11.498a.21.21 0 0 1 0 .42zm-14.786 0h-8.61a.21.21 0 0 1 0-.42h8.61a.21.21 0 0 1 0 .42zm-11.271 0h-8.4a.21.21 0 0 1 0-.42h8.4a.21.21 0 0 1 0 .42z" fill="#472B29"/><path d="M21.919 36.96a.21.21 0 0 1-.21-.21v-5.237a.21.21 0 0 1 .42 0v5.236a.21.21 0 0 1-.21.21zm34.44-.21a.21.21 0 0 1-.21-.21V31.5a.21.21 0 0 1 .42 0v5.04a.21.21 0 0 1-.21.21zm.001 16.785a.21.21 0 0 1-.21-.21V39.918a.21.21 0 0 1 .42 0v13.408a.21.21 0 0 1-.21.21zm-34.441.05a.21.21 0 0 1-.21-.21V48.14a.21.21 0 0 1 .42 0v5.236a.21.21 0 0 1-.21.21z" fill="#472B29"/><path d="M56.36 53.55h-4.9a.21.21 0 0 1 0-.42h4.9a.21.21 0 0 1 0 .42zm-7.63 0h-6.51a.21.21 0 0 1 0-.42h6.51a.21.21 0 0 1 0 .42zm-8.962-.001h-17.85a.21.21 0 0 1 0-.42h17.85a.21.21 0 0 1 0 .42zM51.32 36.96H36.303a.42.42 0 0 1 0-.84H51.32a.42.42 0 0 1 0 .84zm-17.799 0h-5.723a.42.42 0 0 1 0-.84h5.723a.42.42 0 0 1 0 .84zm17.797 4.2h-5.145a.42.42 0 0 1 0-.84h5.145a.42.42 0 0 1 0 .84zm-7.875 0H27.798a.42.42 0 0 1 0-.84h15.645a.42.42 0 0 1 0 .84zm0 7.559H27.798a.42.42 0 0 1 0-.84h15.645a.42.42 0 0 1 0 .84zm7.877-3.359H40.085a.42.42 0 0 1 0-.84H51.32a.42.42 0 0 1 0 .84zm-14.019 0h-9.503a.42.42 0 0 1 0-.84h9.503a.42.42 0 0 1 0 .84z" fill="#472B29"/></svg>