<svg width="50" height="50" viewBox="0 0 50 50" fill="none" xmlns="http://www.w3.org/2000/svg"><circle cx="25" cy="25" r="25" fill="#F2F2F2"/><path d="M29 31l3 3m0 0l3-3m-3 3v-6m3-5H15m20 2v-3.8c0-1.12 0-1.68-.218-2.108a2 2 0 0 0-.874-.874C33.48 18 32.92 18 31.8 18H18.2c-1.12 0-1.68 0-2.108.218a2 2 0 0 0-.874.874C15 19.52 15 20.08 15 21.2v7.6c0 1.12 0 1.68.218 2.108a2 2 0 0 0 .874.874C16.52 32 17.08 32 18.2 32H25" stroke="#01C7B1" stroke-width="2" stroke-linecap="round" stroke-linejoin="round"/></svg>