<svg width="130" height="65" viewBox="0 0 130 65" fill="none" xmlns="http://www.w3.org/2000/svg"><path d="M42.279 25.72h.664l-1.3-4.31c.267-.355.429-.783.429-1.255 0-.797-.458-1.491-1.122-1.83V11.34a1.24 1.24 0 0 0 .221-.56c0-.385-.221-.724-.56-.901l-15.149-6.79a.844.844 0 0 0-.753 0L9.563 9.894a.904.904 0 0 0-.56.9c0 .385.265.724.634.828l5.182 1.786v2.731c0 .296.133.576.37.753a.882.882 0 0 0 .53.177.915.915 0 0 0 .34-.059 25.948 25.948 0 0 1 9.006-1.624c3.041 0 6.112.546 9.005 1.624l.34.074a.829.829 0 0 0 .517-.192c.059-.044.118-.088.162-.133a.878.878 0 0 0 .236-.59v-2.805l3.735-1.226v6.186a2.058 2.058 0 0 0-1.122 1.83c0 .473.163.901.428 1.256l-1.299 4.31h.665l.856-2.864.487.148-.812 2.716h1.462v-2.657h.516v2.658h1.462l-.812-2.717.487-.148.9 2.864z" fill="#0A2F4D"/><path d="M13.387 41.753c-.015 4.208 1.787 4.931 4.193 3.13l10.807-8.282c1.358-1.019 1.963-2.096 1.948-3.16H13.387v8.312z" fill="#009E96"/><path d="M36.565 41.753c.015 4.208-1.786 4.931-4.192 3.13l-10.807-8.282c-1.358-1.019-1.964-2.096-1.949-3.16H36.55l.015 8.312z" fill="#EF4923"/><path d="M36.565 25.16c.015-4.208-1.786-4.931-4.192-3.13l-10.807 8.282c-1.358 1.018-1.964 2.096-1.949 3.16H36.55l.015-8.313z" fill="#F7961C"/><path d="M13.387 25.16c-.015-4.208 1.787-4.931 4.193-3.13l10.807 8.282c1.358 1.018 1.963 2.096 1.948 3.16H13.387v-8.313zM46 24.535c0-1.24.295-1.535 1.535-1.535h.517c1.24 0 1.535.295 1.535 1.535v5.197c.871-.96 2.392-1.565 4.193-1.565 2.2 0 4.665 1.019 4.665 4.724v7.81c0 1.24-.295 1.535-1.535 1.535h-.517c-1.24 0-1.535-.295-1.535-1.535v-7.175c0-1.535-.871-1.978-2.303-1.978-1.595 0-2.968.635-2.968 3.322v5.83c0 1.24-.295 1.535-1.535 1.535h-.517c-1.24 0-1.535-.295-1.535-1.535V24.535zm18.734 12.948c0 1.402.414 2.17 2.658 2.17 2.244 0 2.598-.768 2.598-2.17V30.5c0-1.24.295-1.536 1.535-1.536h.517c1.24 0 1.536.296 1.536 1.536v6.983c0 3.676-1.86 5.55-6.2 5.55-4.135 0-6.26-1.948-6.26-5.55V30.5c0-1.24.295-1.536 1.535-1.536h.517c1.24 0 1.535.296 1.535 1.536v6.983h.03zm21.023-2.746c0-1.757-.472-2.717-2.938-2.717-2.465 0-2.982.96-2.982 2.717v2.2c0 1.756.517 2.716 2.982 2.716 2.525 0 2.938-.96 2.938-2.717v-2.2zm-9.478-9.73c0-1.24.296-1.535 1.536-1.535h.487c1.24 0 1.535.296 1.535 1.536v5.196c.709-.96 1.86-1.564 3.75-1.564 3.809 0 5.758 2.258 5.758 6.185v2.2c0 4.31-2.436 6.023-6.555 6.023-3.617 0-6.526-1.697-6.526-6.023V25.008h.015zM99.236 39.46c-.28.06-.96.163-1.92.163-1.018 0-1.697-.443-1.727-1.727.015-.074.03-.148.03-.207v-5.344h3.1c1.24 0 1.536-.295 1.536-1.535v-.296c0-1.24-.296-1.535-1.536-1.535h-3.1v-2.067c0-1.24-.295-1.535-1.535-1.535h-.488c-1.24 0-1.535.295-1.535 1.535v1.89l-.03.177v8.784c0 .251.015.487.03.724 0 .295.03.546.089.752.502 2.85 2.539 3.78 5.167 3.78.96 0 1.565-.089 1.919-.163 1.211-.25 1.506-.708 1.506-1.948v-.296c0-1.255-.295-1.373-1.506-1.151zm6.555-5.225h5.403v-.414c0-1.373-.9-2.081-2.716-2.081-1.816 0-2.687.708-2.687 2.081v.414zm8.74 1.402c-.163 1.27-.517 1.506-1.787 1.506h-6.968v.413c0 1.433 1.048 2.082 3.587 2.082 1.433 0 2.791-.28 3.322-.384 1.211-.25 1.447.089 1.447 1.314v.295c0 1.24-.251 1.492-1.447 1.787-.517.133-1.816.354-3.351.354-4.857 0-7.16-1.757-7.16-6.023v-2.2c0-3.543 1.624-6.186 6.392-6.186 4.001 0 6.009 2.038 6.009 5.935.015.266.015.62-.044 1.107zm2.48-10.629c0-1.24.295-1.536 1.535-1.536h.487c1.24 0 1.536.296 1.536 1.536v12.755c0 1.432.384 1.846 1.21 1.846h.133c.709 0 .93.162.93 1.27v.516c0 1.092-.221 1.402-.93 1.535-.133.03-.251.06-.827.06-2.332 0-4.089-1.285-4.089-4.43V25.008h.015z" fill="#082E4D"/><path d="M78.344 57.411c0 1.491-.87 2.126-2.82 2.126-1.55 0-2.524-.62-2.524-2.023 0-1.402.915-1.963 2.746-1.963h1.594v-.812c0-.915-.62-1.225-1.756-1.225-.591 0-1.093.059-1.477.147-.325.074-.428-.014-.428-.34v-.102c0-.31.074-.384.399-.458.443-.089.93-.133 1.447-.133 1.89 0 2.834.694 2.834 2.111v2.672h-.015zm-1.004-1.063h-1.58c-1.195 0-1.756.325-1.756 1.166 0 .768.502 1.152 1.506 1.152 1.24 0 1.816-.28 1.816-1.3v-1.018h.014zm2.318-.93c0-1.757.96-2.79 2.997-2.79.443 0 .842.059 1.181.177.325.103.399.207.399.517v.133c0 .34-.074.428-.399.325a3.482 3.482 0 0 0-1.151-.193c-1.506 0-2.023.591-2.023 1.846v1.3c0 1.357.605 1.845 2.096 1.845a3.8 3.8 0 0 0 1.211-.178c.31-.103.399 0 .399.34v.133c0 .28-.089.384-.428.487a4.226 4.226 0 0 1-1.255.177c-2.067 0-3.042-.886-3.042-2.79v-1.329h.015zm10.822 1.993c0 1.491-.871 2.126-2.82 2.126-1.55 0-2.525-.62-2.525-2.023 0-1.402.916-1.963 2.746-1.963h1.58v-.812c0-.915-.62-1.225-1.757-1.225-.59 0-1.092.059-1.476.147-.325.074-.428-.014-.428-.34v-.102c0-.31.074-.384.398-.458.443-.089.93-.133 1.447-.133 1.89 0 2.835.694 2.835 2.111v2.672zm-1.02-1.063h-1.579c-1.196 0-1.757.325-1.757 1.166 0 .768.502 1.152 1.506 1.152 1.24 0 1.816-.28 1.816-1.3v-1.018h.015zm8.224.384c0 1.875-.99 2.82-2.953 2.82-2.037 0-2.952-.945-2.952-2.82v-1.255c0-1.904.93-2.834 2.79-2.834 1.033 0 1.742.324 2.096.989v-3.204c0-.369.074-.428.428-.428h.148c.34 0 .428.074.428.428v6.304h.015zm-4.887-.015c0 1.3.443 1.875 1.934 1.875 1.462 0 1.934-.576 1.934-1.875v-1.255c0-1.299-.472-1.875-1.934-1.875-1.461 0-1.934.576-1.934 1.875v1.255zm11.826-.664c-.045.34-.118.413-.487.413h-4.06v.399c0 1.225.605 1.712 2.096 1.712a6.74 6.74 0 0 0 1.831-.25c.324-.09.428.014.428.354v.118c0 .28-.059.384-.414.487-.575.177-1.195.251-1.845.251-2.111 0-3.115-.827-3.115-2.82v-1.255c0-1.904.945-2.834 2.835-2.834 1.771 0 2.76.915 2.76 2.687.015.325 0 .56-.029.738zm-4.547-.428h3.631v-.443c0-1.093-.605-1.639-1.815-1.639-1.211 0-1.816.547-1.816 1.639v.443zm7.056 3.351c0 .37-.073.428-.428.428h-.147c-.34 0-.428-.074-.428-.428v-3.824c0-1.683.856-2.524 2.568-2.524 1.063 0 1.757.384 2.067 1.122.34-.738 1.019-1.122 2.067-1.122 1.786 0 2.554.886 2.554 2.524v3.824c0 .37-.089.428-.428.428h-.148c-.369 0-.428-.074-.428-.428v-3.824c0-1.063-.369-1.565-1.55-1.565-1.196 0-1.58.488-1.58 1.565v3.824c0 .37-.073.428-.428.428h-.133c-.369 0-.428-.074-.428-.428v-3.824c0-1.063-.384-1.565-1.565-1.565s-1.565.502-1.565 1.565v3.824zm11.693-1.107c.162.59.354.738.827.738.383 0 .605-.162.753-.738l1.122-4.65c.073-.34.206-.444.561-.444h.118c.369 0 .443.074.354.443l-1.55 6.186c-.458 1.816-1.358 2.76-2.702 2.85-.31.044-.413-.06-.487-.384l-.03-.118c-.073-.31.015-.37.355-.4.989-.102 1.461-.722 1.86-2.036a1.447 1.447 0 0 1-.679.147c-.901 0-1.226-.487-1.506-1.58l-1.284-4.68c-.089-.368-.03-.442.339-.442h.103c.37 0 .488.074.576.443l1.27 4.665z" fill="#9BAAB7"/><path d="M13.505 41.62c0 4.193 1.787 4.931 4.178 3.13l10.792-8.267c1.358-1.019 1.964-2.096 1.964-3.145H13.505v8.282z" fill="#009D9D"/><path d="M36.654 41.62c0 4.193-1.786 4.931-4.178 3.13l-10.792-8.267c-1.358-1.019-1.963-2.096-1.963-3.145h16.903l.03 8.282z" fill="#EE4923"/><path d="M36.654 25.056c0-4.193-1.786-4.93-4.178-3.13l-10.792 8.268c-1.358 1.018-1.963 2.096-1.963 3.16h16.903l.03-8.298z" fill="#F69621"/><path d="M13.505 25.056c0-4.193 1.786-4.93 4.178-3.13l10.792 8.268c1.358 1.018 1.963 2.096 1.963 3.16H13.506v-8.298z" fill="#092F4D"/></svg>