<svg xmlns="http://www.w3.org/2000/svg" width="109.482" height="93.372" viewBox="0 0 109.482 93.372"><g id="Group_9186" data-name="Group 9186" transform="translate(-690.63 -157.742)"><g id="Group_9183" data-name="Group 9183" transform="translate(709.589 201.474)"><path id="Path_9616" data-name="Path 9616" d="M-384.35 1114.384a45.294 45.294 0 0 1-6.543-7.119 6.6 6.6 0 0 1 3.424-2.267c1.242-.345 2.713.3 4.094 2.267 4.732 8.549 13.348 14.728 13.348 14.728l-8.264-1.906z" transform="translate(396.2 -1104.909)" fill="#b17c49"/><path id="Path_9618" data-name="Path 9618" d="M-390.895 1107s.04-.505 1.073-1.06c1.855 2.271 4.908 6.169 16.064 12.531 10.165 8.883-4.514 2.843-4.514 2.843z" transform="translate(396.2 -1104.579)" fill="#7f5533"/><path id="Path_9615" data-name="Path 9615" d="M-325.368 1148.469c-.988-2.8-2.259-15.167-16.451-15.707-7.458-.282-20.925.771-32.708-4.624-11.742-5.375-19.366-17.609-19.914-18.866s-1.061-3.162 1.156-3.682 4.444 1.66 8.861 5.907c5.234 5.033 15.032 8.849 22.385 9.5 10.183.9 11.885-.319 12.275-1.822.474-1.821-2.124-3.648-8.79-5.412-5.179-1.369-8.106-3.664-7.584-6.023.732-3.307 4.04-2.457 7.929-1.926s10.746 3.26 17.81 3.759c5.974.422 12.938 1.4 18.4 9.369 3.219 4.7 5.279 12.936 11.529 20.014s-13.91 12.309-14.898 9.513z" transform="translate(394.916 -1104.781)" fill="#b17c49"/><rect id="Rectangle_1690" data-name="Rectangle 1690" width="22.429" height="14.513" rx="2" transform="rotate(-30 101.099 -100.597)" fill="#dc2308"/></g><g id="Group_9185" data-name="Group 9185" transform="translate(715.537 160.721)"><circle id="Ellipse_5" data-name="Ellipse 5" cx="16.481" cy="16.481" r="16.481" fill="#fc0"/><g id="Group_9184" data-name="Group 9184" transform="translate(11.084 7.629)" fill="none" stroke="#ff9500" stroke-linecap="round" stroke-linejoin="round" stroke-width="1.5"><path id="Path_9617" data-name="Path 9617" d="M-371.28 1091.9a6.066 6.066 0 0 1-4.648 2.163 6.078 6.078 0 0 1-6.078-6.079 6.077 6.077 0 0 1 6.078-6.077 6.064 6.064 0 0 1 4.715 2.243" transform="translate(382.006 -1079.13)"/><path id="Line_109" data-name="Line 109" transform="translate(3.851)" d="M3.605 0L0 17.704"/></g></g><g id="Group_9162" data-name="Group 9162" transform="translate(770.542 181.038)"><path id="Path_9560" data-name="Path 9560" d="M47.585 14.208l-.7 2.782 1.738 2.086-2.782-.7-2.086 1.738.7-2.782-1.738-2.086 2.782.7z" transform="translate(-42.718 -14.208)" fill="#01c7b1"/></g><g id="Group_9163" data-name="Group 9163" transform="translate(784.474 161.629)"><path id="Path_9561" data-name="Path 9561" d="M45.637 7.14l-1.043 4.52 3.129 3.477-4.868-1.043-3.477 3.129 1.391-4.868-3.129-3.477 4.52 1.391z" transform="translate(-37.64 -7.14)" fill="#fc0"/></g><path id="Path_9562" data-name="Path 9562" d="M11.944 12.715l-.7 2.434 1.391 1.738-2.086-.7-1.735 1.743.348-2.43-1.391-1.742 2.434.7z" transform="translate(697.462 163.108)" fill="#ff2d55"/><path id="Path_9563" data-name="Path 9563" d="M11.587 7.538l-1.387 4.52 3.129 3.477-4.52-1.391-3.481 3.129 1.391-4.52L3.59 9.276l4.52 1.391z" transform="translate(687.041 150.205)" fill="#007aff"/></g></svg>