<svg width="66" height="66" viewBox="0 0 66 66" fill="none" xmlns="http://www.w3.org/2000/svg"><rect x="5" y="5" width="56" height="56" rx="28" fill="#CCF3EF"/><path d="M29 40.333h-7.333m4-7.333h-6M29 25.667h-6.667M39.667 21L30.87 33.313c-.389.545-.583.818-.575 1.045a.667.667 0 0 0 .259.503c.18.139.515.139 1.184.139h6.594L37 45l8.795-12.313c.39-.545.584-.818.576-1.045a.667.667 0 0 0-.26-.503C45.932 31 45.598 31 44.928 31h-6.594l1.334-10z" stroke="#009E96" stroke-width="2" stroke-linecap="round" stroke-linejoin="round"/><rect x="5" y="5" width="56" height="56" rx="28" stroke="#EDFAF7" stroke-width="10"/></svg>