<svg xmlns="http://www.w3.org/2000/svg" width="36" height="36" viewBox="0 0 36 36"><g id="Group_37741" data-name="Group 37741" transform="translate(-.497)"><path id="Icon_metro-instagram" data-name="Icon metro-instagram" d="M13.131 1.928H4.673a2.108 2.108 0 0 0-2.1 2.1v8.458a2.108 2.108 0 0 0 2.1 2.1h8.458a2.108 2.108 0 0 0 2.1-2.1V4.03a2.108 2.108 0 0 0-2.1-2.102zm-6.507 5.54h4.556a2.411 2.411 0 1 1-4.556 0zm7.026 0v4.748a.794.794 0 0 1-.791.791H4.945a.794.794 0 0 1-.791-.791V7.468h1.237a3.6 3.6 0 1 0 7.021 0zm0-2.771a.4.4 0 0 1-.4.4h-.791a.4.4 0 0 1-.4-.4v-.79a.4.4 0 0 1 .4-.4h.791a.4.4 0 0 1 .4.4z" transform="translate(9.188 10.735)" fill="#fff"/><g id="Ellipse_22" data-name="Ellipse 22" transform="translate(.497)" fill="none" stroke="#fff" stroke-width=".7"><circle cx="18" cy="18" r="18" stroke="none"/><circle cx="18" cy="18" r="17.65" fill="none"/></g></g></svg>