<svg width="178" height="178" viewBox="0 0 178 178" fill="none" xmlns="http://www.w3.org/2000/svg"><path d="M49.984 13.483c-1.014-1.962-.248-4.384 1.758-5.309a89 89 0 0 1 78.378 1.895c1.959 1.02 2.607 3.476 1.499 5.388l-4.913 8.479c-1.108 1.911-3.551 2.552-5.522 1.553a71.194 71.194 0 0 0-61.262-1.48c-2.017.902-4.426.144-5.44-1.819l-4.498-8.707z" fill="#FB3B52"/><path d="M135.032 17.544c1.197-1.858 3.678-2.4 5.48-1.122a89.002 89.002 0 0 1 32.336 102.418c-.74 2.082-3.084 3.062-5.129 2.228l-9.076-3.697c-2.046-.833-3.017-3.165-2.3-5.254a71.197 71.197 0 0 0-25.484-80.713c-1.787-1.298-2.33-3.765-1.134-5.622l5.307-8.238z" fill="#5654D4"/><path d="M166.395 124.142c2.012.914 2.91 3.29 1.907 5.258a88.993 88.993 0 0 1-61.438 46.789 88.999 88.999 0 0 1-92.147-136.21 89.001 89.001 0 0 1 26.918-26.328c1.87-1.176 4.317-.495 5.407 1.427L51.88 23.6c1.09 1.921.41 4.353-1.447 5.55a71.198 71.198 0 0 0-9.463 112.41 71.198 71.198 0 0 0 111.105-19.529c1.024-1.957 3.385-2.854 5.397-1.94l8.923 4.051z" fill="#3FC8E4"/><path d="M49.78 83.05a.405.405 0 0 1-.3-.11.44.44 0 0 1-.11-.31v-6.31c0-.127.037-.227.11-.3a.387.387 0 0 1 .3-.12c.127 0 .227.04.3.12.073.073.11.173.11.3v6.31a.44.44 0 0 1-.11.31.405.405 0 0 1-.3.11zm4.479-5.04c1.166 0 1.75.643 1.75 1.93v2.71a.405.405 0 0 1-.11.3c-.067.067-.164.1-.29.1a.429.429 0 0 1-.3-.1.405.405 0 0 1-.11-.3v-2.66c0-.453-.09-.783-.27-.99-.174-.207-.454-.31-.84-.31-.447 0-.804.137-1.07.41-.267.273-.4.643-.4 1.11v2.44a.405.405 0 0 1-.11.3c-.067.067-.164.1-.29.1a.429.429 0 0 1-.3-.1.405.405 0 0 1-.11-.3v-4.22c0-.12.036-.217.11-.29a.405.405 0 0 1 .3-.11.36.36 0 0 1 .28.11.38.38 0 0 1 .11.28v.51c.16-.3.383-.527.67-.68.286-.16.613-.24.98-.24zm6.743.27c.073-.16.19-.24.35-.24.1 0 .19.033.27.1.08.067.12.15.12.25 0 .06-.013.113-.04.16l-1.95 4.2a.5.5 0 0 1-.18.21.507.507 0 0 1-.51 0 .576.576 0 0 1-.19-.21l-1.94-4.2a.297.297 0 0 1-.04-.15c0-.1.043-.187.13-.26a.477.477 0 0 1 .3-.11c.067 0 .13.02.19.06a.37.37 0 0 1 .15.17l1.67 3.75 1.67-3.73zm3.588 4.79a2.37 2.37 0 0 1-1.22-.31 2.114 2.114 0 0 1-.81-.88c-.186-.387-.28-.833-.28-1.34 0-.507.094-.95.28-1.33a2.11 2.11 0 0 1 .81-.89 2.37 2.37 0 0 1 1.22-.31c.46 0 .867.103 1.22.31.354.207.624.503.81.89.194.38.29.823.29 1.33 0 .507-.096.953-.29 1.34-.186.38-.456.673-.81.88-.353.207-.76.31-1.22.31zm0-.67c.48 0 .847-.157 1.1-.47.26-.32.39-.783.39-1.39 0-.593-.13-1.05-.39-1.37-.26-.327-.626-.49-1.1-.49-.473 0-.84.163-1.1.49-.26.32-.39.777-.39 1.37 0 .6.127 1.06.38 1.38.26.32.63.48 1.11.48zm3.937.65a.453.453 0 0 1-.3-.1.405.405 0 0 1-.11-.3v-4.22c0-.127.037-.223.11-.29.08-.073.18-.11.3-.11s.217.037.29.11c.074.067.11.163.11.29v4.22c0 .133-.037.233-.11.3a.414.414 0 0 1-.29.1zm0-6.07a.549.549 0 0 1-.39-.14.482.482 0 0 1-.15-.37.47.47 0 0 1 .15-.36c.1-.093.23-.14.39-.14s.29.047.39.14c.1.093.15.213.15.36 0 .153-.05.277-.15.37a.55.55 0 0 1-.39.14zm3.924 6.09c-.453 0-.856-.103-1.21-.31a2.114 2.114 0 0 1-.81-.88c-.186-.38-.28-.82-.28-1.32 0-.5.097-.943.29-1.33.2-.387.477-.687.83-.9.354-.213.76-.32 1.22-.32.254 0 .504.037.75.11a2 2 0 0 1 .66.3c.12.08.204.16.25.24.054.073.08.157.08.25s-.026.17-.08.23a.228.228 0 0 1-.19.09.337.337 0 0 1-.15-.04 1.31 1.31 0 0 1-.14-.08 3.104 3.104 0 0 0-.57-.32 1.43 1.43 0 0 0-.57-.1c-.486 0-.866.167-1.14.5-.266.327-.4.783-.4 1.37 0 .587.134 1.04.4 1.36.274.32.654.48 1.14.48a1.5 1.5 0 0 0 .58-.1 2.63 2.63 0 0 0 .5-.27 2.33 2.33 0 0 1 .21-.12.397.397 0 0 1 .17-.05c.074 0 .134.03.18.09a.33.33 0 0 1 .08.23.438.438 0 0 1-.07.24 1.037 1.037 0 0 1-.26.23c-.186.127-.413.23-.68.31-.26.073-.523.11-.79.11zm6.546-1.2c.073 0 .136.03.19.09.053.06.08.137.08.23 0 .167-.117.32-.35.46a3.17 3.17 0 0 1-.76.32c-.267.067-.527.1-.78.1-.754 0-1.35-.223-1.79-.67-.434-.447-.65-1.063-.65-1.85 0-.5.096-.94.29-1.32a2.16 2.16 0 0 1 .81-.9c.353-.213.753-.32 1.2-.32.633 0 1.136.207 1.51.62.373.413.56.973.56 1.68 0 .133-.027.23-.08.29-.054.06-.14.09-.26.09h-3.22c.06 1.147.603 1.72 1.63 1.72.26 0 .483-.033.67-.1.186-.073.386-.17.6-.29.173-.1.29-.15.35-.15zm-1.75-3.23c-.427 0-.77.133-1.03.4-.254.267-.404.643-.45 1.13h2.83c-.014-.493-.137-.87-.37-1.13-.234-.267-.56-.4-.98-.4zm11.191.69a.324.324 0 0 1 .34.34v2.49c0 .16-.027.28-.08.36-.046.08-.136.143-.27.19-.266.113-.59.203-.97.27s-.76.1-1.14.1c-.7 0-1.303-.143-1.81-.43a2.885 2.885 0 0 1-1.17-1.24c-.266-.54-.4-1.187-.4-1.94 0-.74.133-1.38.4-1.92s.65-.953 1.15-1.24c.5-.293 1.087-.44 1.76-.44.467 0 .9.073 1.3.22.4.14.737.343 1.01.61.113.113.17.23.17.35a.414.414 0 0 1-.08.25.246.246 0 0 1-.2.1c-.08 0-.173-.04-.28-.12-.347-.267-.66-.45-.94-.55a2.714 2.714 0 0 0-.97-.16c-.793 0-1.403.25-1.83.75-.42.5-.63 1.217-.63 2.15 0 .953.213 1.68.64 2.18.433.493 1.067.74 1.9.74.62 0 1.184-.093 1.69-.28v-2.14h-1.46a.389.389 0 0 1-.27-.09.296.296 0 0 1-.1-.23c0-.1.034-.177.1-.23a.389.389 0 0 1 .27-.09h1.87zm5.647 2.54c.073 0 .136.03.19.09.053.06.08.137.08.23 0 .167-.117.32-.35.46a3.17 3.17 0 0 1-.76.32c-.267.067-.527.1-.78.1-.754 0-1.35-.223-1.79-.67-.434-.447-.65-1.063-.65-1.85 0-.5.096-.94.29-1.32a2.16 2.16 0 0 1 .81-.9c.353-.213.753-.32 1.2-.32.633 0 1.136.207 1.51.62.373.413.56.973.56 1.68 0 .133-.027.23-.08.29-.054.06-.14.09-.26.09h-3.22c.06 1.147.603 1.72 1.63 1.72.26 0 .483-.033.67-.1.186-.073.386-.17.6-.29.173-.1.29-.15.35-.15zm-1.75-3.23c-.427 0-.77.133-1.03.4-.254.267-.404.643-.45 1.13h2.83c-.014-.493-.137-.87-.37-1.13-.234-.267-.56-.4-.98-.4zm5.703-.63c1.167 0 1.75.643 1.75 1.93v2.71a.405.405 0 0 1-.11.3c-.067.067-.163.1-.29.1a.429.429 0 0 1-.3-.1.405.405 0 0 1-.11-.3v-2.66c0-.453-.09-.783-.27-.99-.173-.207-.453-.31-.84-.31-.447 0-.803.137-1.07.41-.267.273-.4.643-.4 1.11v2.44a.405.405 0 0 1-.11.3c-.067.067-.163.1-.29.1a.429.429 0 0 1-.3-.1.405.405 0 0 1-.11-.3v-4.22c0-.12.037-.217.11-.29a.405.405 0 0 1 .3-.11.36.36 0 0 1 .28.11.38.38 0 0 1 .11.28v.51c.16-.3.383-.527.67-.68.287-.16.613-.24.98-.24zm7.003 3.86c.074 0 .137.03.19.09a.33.33 0 0 1 .08.23c0 .167-.116.32-.35.46-.24.14-.493.247-.76.32a3.2 3.2 0 0 1-.78.1c-.753 0-1.35-.223-1.79-.67-.433-.447-.65-1.063-.65-1.85 0-.5.097-.94.29-1.32.194-.387.464-.687.81-.9a2.28 2.28 0 0 1 1.2-.32c.634 0 1.137.207 1.51.62.374.413.56.973.56 1.68 0 .133-.026.23-.08.29-.053.06-.14.09-.26.09h-3.22c.06 1.147.604 1.72 1.63 1.72.26 0 .484-.033.67-.1a4.77 4.77 0 0 0 .6-.29c.174-.1.29-.15.35-.15zm-1.75-3.23c-.426 0-.77.133-1.03.4-.253.267-.403.643-.45 1.13h2.83c-.013-.493-.136-.87-.37-1.13-.233-.267-.56-.4-.98-.4zm5.664-.61c.28-.02.42.093.42.34 0 .107-.03.193-.09.26-.06.06-.163.097-.31.11l-.3.03c-.447.04-.78.2-1 .48-.213.273-.32.597-.32.97v2.43c0 .133-.037.233-.11.3a.414.414 0 0 1-.29.1.453.453 0 0 1-.3-.1.407.407 0 0 1-.11-.3v-4.22c0-.127.04-.223.12-.29a.415.415 0 0 1 .29-.11c.107 0 .197.037.27.11a.36.36 0 0 1 .11.28v.56a1.53 1.53 0 0 1 .59-.67 2.05 2.05 0 0 1 .89-.27l.14-.01zm3.066-.02c1.22 0 1.83.64 1.83 1.92v2.72a.39.39 0 0 1-.11.29.358.358 0 0 1-.28.11.393.393 0 0 1-.29-.11.393.393 0 0 1-.11-.29v-.48c-.126.287-.32.51-.58.67-.26.153-.56.23-.9.23-.313 0-.603-.063-.87-.19a1.557 1.557 0 0 1-.62-.53 1.313 1.313 0 0 1-.23-.75c0-.367.094-.65.28-.85.187-.207.494-.353.92-.44.427-.093 1.02-.14 1.78-.14h.22v-.33c0-.4-.083-.693-.25-.88-.16-.187-.423-.28-.79-.28-.453 0-.913.123-1.38.37-.18.113-.306.17-.38.17a.257.257 0 0 1-.2-.09.335.335 0 0 1-.08-.23c0-.093.027-.173.08-.24.06-.073.154-.147.28-.22.234-.133.497-.237.79-.31.3-.08.597-.12.89-.12zm-.33 4.42c.4 0 .727-.133.98-.4.26-.273.39-.623.39-1.05v-.29h-.18c-.586 0-1.033.027-1.34.08-.306.047-.526.13-.66.25-.126.113-.19.283-.19.51 0 .26.094.477.28.65.194.167.434.25.72.25zm5.893-.02c.233.02.35.127.35.32 0 .113-.043.2-.13.26-.08.053-.203.073-.37.06l-.27-.02c-.533-.04-.927-.2-1.18-.48-.253-.28-.38-.703-.38-1.27v-2.51h-.67a.422.422 0 0 1-.27-.08.312.312 0 0 1-.09-.23c0-.1.03-.18.09-.24a.39.39 0 0 1 .27-.09h.67V77c0-.127.037-.223.11-.29a.404.404 0 0 1 .3-.11c.12 0 .217.037.29.11.073.067.11.163.11.29v1.13h1.11c.107 0 .19.03.25.09.067.06.1.14.1.24 0 .093-.033.17-.1.23a.363.363 0 0 1-.25.08h-1.11v2.55c0 .367.073.633.22.8.153.16.38.25.68.27l.27.02zm4.918-.54c.074 0 .137.03.19.09a.33.33 0 0 1 .08.23c0 .167-.116.32-.35.46-.24.14-.493.247-.76.32a3.2 3.2 0 0 1-.78.1c-.753 0-1.35-.223-1.79-.67-.433-.447-.65-1.063-.65-1.85 0-.5.097-.94.29-1.32.194-.387.464-.687.81-.9a2.28 2.28 0 0 1 1.2-.32c.634 0 1.137.207 1.51.62.374.413.56.973.56 1.68 0 .133-.026.23-.08.29-.053.06-.14.09-.26.09h-3.22c.06 1.147.604 1.72 1.63 1.72.26 0 .484-.033.67-.1a4.77 4.77 0 0 0 .6-.29c.174-.1.29-.15.35-.15zm-1.75-3.23c-.426 0-.77.133-1.03.4-.253.267-.403.643-.45 1.13h2.83c-.013-.493-.136-.87-.37-1.13-.233-.267-.56-.4-.98-.4zm7.164-2.74c.127 0 .227.037.3.11a.38.38 0 0 1 .11.28v6.36c0 .12-.037.217-.11.29a.404.404 0 0 1-.3.11.404.404 0 0 1-.3-.11.413.413 0 0 1-.1-.29v-.54a1.599 1.599 0 0 1-.65.71 1.9 1.9 0 0 1-.99.25 2.02 2.02 0 0 1-1.13-.32 2.115 2.115 0 0 1-.76-.89c-.18-.387-.27-.833-.27-1.34 0-.5.09-.94.27-1.32.18-.38.433-.673.76-.88.327-.207.703-.31 1.13-.31.38 0 .71.083.99.25.287.167.503.403.65.71v-2.68c0-.12.033-.213.1-.28a.404.404 0 0 1 .3-.11zm-1.88 6.5c.473 0 .837-.16 1.09-.48.26-.327.39-.787.39-1.38 0-.593-.13-1.05-.39-1.37-.253-.32-.617-.48-1.09-.48-.473 0-.843.16-1.11.48-.26.32-.39.77-.39 1.35 0 .593.13 1.057.39 1.39.267.327.637.49 1.11.49z" fill="#9CABB8"/><path d="M51.582 95.666a.7.7 0 0 1 .518.196c.13.121.196.285.196.49v3.01c0 .43-.056.733-.168.91-.112.177-.34.322-.686.434a7.228 7.228 0 0 1-1.302.308c-.495.075-.97.112-1.428.112-1.017 0-1.9-.201-2.646-.602a4.117 4.117 0 0 1-1.722-1.736c-.392-.765-.588-1.675-.588-2.73 0-1.036.196-1.932.588-2.688a4.144 4.144 0 0 1 1.694-1.75c.728-.41 1.587-.616 2.576-.616 1.316 0 2.394.355 3.234 1.064a.981.981 0 0 1 .238.308.75.75 0 0 1 .084.364.803.803 0 0 1-.168.518.504.504 0 0 1-.406.21.882.882 0 0 1-.28-.042 2.042 2.042 0 0 1-.294-.168c-.41-.29-.793-.49-1.148-.602a3.71 3.71 0 0 0-1.204-.182c-1.017 0-1.787.303-2.31.91-.513.597-.77 1.489-.77 2.674 0 2.427 1.064 3.64 3.192 3.64.635 0 1.27-.089 1.904-.266v-2.478h-1.582c-.224 0-.401-.056-.532-.168-.121-.112-.182-.27-.182-.476 0-.205.06-.364.182-.476.13-.112.308-.168.532-.168h2.478zm10.464-4.606c.27 0 .485.084.644.252.158.159.238.373.238.644v8.218c0 .271-.084.49-.252.658a.83.83 0 0 1-.63.252c-.271 0-.486-.084-.644-.252-.16-.168-.238-.387-.238-.658v-3.458H56.11v3.458c0 .271-.084.49-.252.658-.16.168-.374.252-.644.252a.872.872 0 0 1-.644-.252c-.16-.168-.238-.387-.238-.658v-8.218c0-.27.079-.485.238-.644.158-.168.373-.252.644-.252.27 0 .485.084.644.252.168.159.252.373.252.644v3.304h5.054v-3.304c0-.27.079-.485.238-.644.158-.168.373-.252.644-.252zm6.42 10.066c-.718 0-1.4-.093-2.044-.28-.634-.196-1.152-.457-1.554-.784-.214-.159-.322-.383-.322-.672 0-.196.056-.364.168-.504.122-.15.262-.224.42-.224.168 0 .36.065.574.196.402.29.822.5 1.26.63.439.13.924.196 1.456.196.682 0 1.204-.117 1.568-.35.364-.243.546-.593.546-1.05 0-.355-.172-.625-.518-.812-.336-.196-.9-.383-1.694-.56-.821-.177-1.488-.383-2.002-.616-.513-.233-.9-.532-1.162-.896-.261-.364-.392-.826-.392-1.386 0-.579.164-1.097.49-1.554.327-.457.78-.812 1.358-1.064.588-.261 1.246-.392 1.974-.392 1.335 0 2.422.355 3.262 1.064a.916.916 0 0 1 .252.308.7.7 0 0 1 .084.364c0 .196-.06.369-.182.518a.504.504 0 0 1-.406.21.836.836 0 0 1-.266-.042 2.316 2.316 0 0 1-.308-.154 4.48 4.48 0 0 0-1.12-.616c-.354-.14-.793-.21-1.316-.21-.634 0-1.138.13-1.512.392-.364.252-.546.607-.546 1.064 0 .383.164.677.49.882.327.205.882.397 1.666.574.831.187 1.503.397 2.016.63.523.224.92.513 1.19.868.28.355.42.798.42 1.33 0 .579-.163 1.092-.49 1.54-.317.439-.77.784-1.358 1.036-.578.243-1.246.364-2.002.364zm12.967-6.44c.616 0 1.157.135 1.624.406.476.261.844.63 1.106 1.106.261.476.392 1.022.392 1.638 0 .644-.15 1.213-.448 1.708a3 3 0 0 1-1.246 1.162c-.532.271-1.148.406-1.848.406a5.36 5.36 0 0 1-1.708-.28 4.581 4.581 0 0 1-1.414-.784c-.215-.187-.322-.406-.322-.658 0-.205.056-.378.168-.518.121-.15.261-.224.42-.224.093 0 .182.019.266.056.084.028.182.08.294.154.373.261.737.462 1.092.602.355.14.733.21 1.134.21.616 0 1.087-.154 1.414-.462.326-.308.49-.747.49-1.316 0-.55-.168-.985-.504-1.302-.327-.327-.78-.49-1.358-.49-.364 0-.69.051-.98.154-.28.103-.57.275-.868.518a.956.956 0 0 1-.546.182.707.707 0 0 1-.476-.168.56.56 0 0 1-.196-.448V91.97c0-.261.075-.467.224-.616.15-.15.36-.224.63-.224h4.662c.56 0 .84.233.84.7 0 .467-.28.7-.84.7h-3.752v2.66c.476-.336 1.06-.504 1.75-.504zm5.384 4.298c.318 0 .574.117.77.35.196.233.294.574.294 1.022 0 .887-.308 1.652-.924 2.296a.55.55 0 0 1-.392.182.525.525 0 0 1-.364-.14.437.437 0 0 1-.154-.336c0-.112.047-.219.14-.322.28-.299.462-.635.546-1.008a1.077 1.077 0 0 1-.672-.308.988.988 0 0 1-.252-.686c0-.299.094-.546.28-.742a.966.966 0 0 1 .728-.308zm5.643-7.98c1.25 0 2.212.425 2.884 1.274.681.84 1.022 2.044 1.022 3.612 0 1.073-.159 2.007-.476 2.8-.317.784-.775 1.386-1.372 1.806-.588.42-1.283.63-2.086.63a4.907 4.907 0 0 1-1.61-.28 4.283 4.283 0 0 1-1.358-.784 1.24 1.24 0 0 1-.266-.294.875.875 0 0 1-.07-.364c0-.205.056-.378.168-.518.121-.15.261-.224.42-.224.093 0 .182.019.266.056.084.028.187.08.308.154.775.541 1.465.812 2.072.812.681 0 1.218-.313 1.61-.938.392-.635.597-1.521.616-2.66a2.45 2.45 0 0 1-.966 1.008c-.43.243-.91.364-1.442.364-.588 0-1.11-.13-1.568-.392a2.894 2.894 0 0 1-1.078-1.12c-.252-.485-.378-1.036-.378-1.652 0-.635.14-1.2.42-1.694.29-.504.681-.896 1.176-1.176.504-.28 1.073-.42 1.708-.42zm.098 5.026c.523 0 .943-.163 1.26-.49.327-.336.49-.77.49-1.302 0-.541-.163-.975-.49-1.302-.317-.336-.737-.504-1.26-.504-.513 0-.924.168-1.232.504-.308.327-.462.76-.462 1.302 0 .541.154.975.462 1.302.308.327.719.49 1.232.49zm11.461-4.9c.242 0 .429.07.56.21.13.13.196.303.196.518 0 .215-.066.439-.196.672l-4.466 8.106c-.187.317-.444.476-.77.476a.911.911 0 0 1-.602-.224.762.762 0 0 1-.252-.574.93.93 0 0 1 .14-.476l4.018-7.252h-4.228c-.56 0-.84-.238-.84-.714 0-.495.28-.742.84-.742h5.6zm8.324 8.414c.56 0 .84.238.84.714 0 .495-.28.742-.84.742h-5.32c-.243 0-.434-.07-.574-.21a.768.768 0 0 1-.21-.546c0-.28.107-.532.322-.756l3.192-3.43c.392-.43.677-.821.854-1.176.187-.364.28-.723.28-1.078 0-.439-.126-.775-.378-1.008-.252-.233-.611-.35-1.078-.35a2.93 2.93 0 0 0-1.12.224c-.355.14-.714.336-1.078.588a2.23 2.23 0 0 1-.28.168.75.75 0 0 1-.28.056c-.159 0-.299-.075-.42-.224a.862.862 0 0 1-.168-.532.87.87 0 0 1 .07-.364c.056-.103.14-.2.252-.294a4.734 4.734 0 0 1 1.442-.77 4.899 4.899 0 0 1 1.652-.294c.961 0 1.727.243 2.296.728.579.485.868 1.139.868 1.96a3.66 3.66 0 0 1-.364 1.61c-.243.495-.653 1.05-1.232 1.666l-2.422 2.576h3.696zm3.172 1.54c-.298 0-.546-.098-.742-.294a1.052 1.052 0 0 1-.294-.756c0-.299.098-.546.294-.742a.983.983 0 0 1 .742-.308c.299 0 .546.103.742.308.196.196.294.443.294.742s-.098.551-.294.756a1.005 1.005 0 0 1-.742.294zm8.709-1.54c.56 0 .84.238.84.714 0 .495-.28.742-.84.742h-5.32c-.243 0-.434-.07-.574-.21a.768.768 0 0 1-.21-.546c0-.28.107-.532.322-.756l3.192-3.43c.392-.43.677-.821.854-1.176.187-.364.28-.723.28-1.078 0-.439-.126-.775-.378-1.008-.252-.233-.611-.35-1.078-.35a2.93 2.93 0 0 0-1.12.224c-.355.14-.714.336-1.078.588a2.23 2.23 0 0 1-.28.168.75.75 0 0 1-.28.056c-.159 0-.299-.075-.42-.224a.862.862 0 0 1-.168-.532.87.87 0 0 1 .07-.364c.056-.103.14-.2.252-.294a4.734 4.734 0 0 1 1.442-.77 4.899 4.899 0 0 1 1.652-.294c.961 0 1.727.243 2.296.728.579.485.868 1.139.868 1.96a3.66 3.66 0 0 1-.364 1.61c-.243.495-.653 1.05-1.232 1.666l-2.422 2.576h3.696zm5.636 1.582c-1.167 0-2.058-.429-2.674-1.288-.616-.868-.924-2.128-.924-3.78 0-1.643.308-2.893.924-3.752.616-.868 1.507-1.302 2.674-1.302s2.058.434 2.674 1.302c.616.859.924 2.11.924 3.752 0 1.643-.308 2.898-.924 3.766-.616.868-1.507 1.302-2.674 1.302zm0-1.414c.635 0 1.097-.29 1.386-.868.289-.588.434-1.517.434-2.786 0-1.279-.145-2.203-.434-2.772-.289-.579-.751-.868-1.386-.868-.635 0-1.097.29-1.386.868-.289.579-.434 1.503-.434 2.772 0 1.27.145 2.198.434 2.786.289.579.751.868 1.386.868z" fill="#030F1A"/></svg>