<svg width="81" height="100" viewBox="0 0 81 100" fill="none" xmlns="http://www.w3.org/2000/svg"><path d="M37.188.313h23.187C71.352.313 80.25 9.21 80.25 20.188v18.218c0 .915-.742 1.657-1.656 1.657H18.969a1.656 1.656 0 0 1-1.657-1.657V20.188C17.313 9.21 26.212.313 37.188.313z" fill="#A5C3DC"/><path d="M32.219 11.907l-3.313 3.312a2.342 2.342 0 0 0 0 3.313L53.75 43.376H67l-31.469-31.47a2.342 2.342 0 0 0-3.312 0z" fill="#FAA019"/><path d="M32.219 11.907a2.342 2.342 0 0 0 0 3.312l28.156 28.157H67l-31.469-31.47a2.342 2.342 0 0 0-3.312 0z" fill="#FFD205"/><path d="M48.781 11.907l3.313 3.312a2.343 2.343 0 0 1 0 3.313L27.25 43.376H14l31.469-31.47a2.342 2.342 0 0 1 3.312 0z" fill="#FAA019"/><path d="M48.781 11.907a2.343 2.343 0 0 1 0 3.312L20.625 43.376H14l31.469-31.47a2.342 2.342 0 0 1 3.312 0z" fill="#FFD205"/><path d="M15.656 21.844l-3.312 3.313a2.342 2.342 0 0 0 0 3.312l24.844 24.844h13.25l-31.47-31.469a2.342 2.342 0 0 0-3.312 0z" fill="#FAA019"/><path d="M15.656 21.844a2.342 2.342 0 0 0 0 3.313l28.157 28.156h6.624L18.97 21.844a2.342 2.342 0 0 0-3.313 0z" fill="#FFD205"/><path d="M5.719 25.157l-3.313 3.312a2.342 2.342 0 0 0 0 3.313L27.25 56.626H40.5L9.031 25.156a2.342 2.342 0 0 0-3.312 0z" fill="#FAA019"/><path d="M5.719 25.157a2.342 2.342 0 0 0 0 3.312l28.156 28.157H40.5L9.031 25.156a2.342 2.342 0 0 0-3.312 0z" fill="#FFD205"/><path d="M18.969 11.907l-3.313 3.312a2.342 2.342 0 0 0 0 3.313l28.157 28.156h13.25L22.28 11.907a2.342 2.342 0 0 0-3.312 0z" fill="#FAA019"/><path d="M18.969 11.907a2.342 2.342 0 0 0 0 3.312l31.468 31.469h6.626L22.28 11.907a2.342 2.342 0 0 0-3.312 0z" fill="#FFD205"/><path d="M75.281 25.157l3.313 3.312a2.343 2.343 0 0 1 0 3.313L53.75 56.626H40.5l31.469-31.47a2.342 2.342 0 0 1 3.312 0z" fill="#FAA019"/><path d="M75.281 25.157a2.343 2.343 0 0 1 0 3.312L47.125 56.626H40.5l31.469-31.47a2.342 2.342 0 0 1 3.312 0z" fill="#FFD205"/><path d="M58.719 15.22l3.312 3.312a2.342 2.342 0 0 1 0 3.312L37.188 46.688h-13.25l31.468-31.469a2.342 2.342 0 0 1 3.313 0z" fill="#FAA019"/><path d="M58.719 15.22a2.343 2.343 0 0 1 0 3.312L30.562 46.688h-6.625l31.47-31.469a2.342 2.342 0 0 1 3.312 0z" fill="#FFD205"/><path d="M75.281 11.907l3.313 3.312a2.343 2.343 0 0 1 0 3.313L47.125 50h-13.25l38.094-38.094a2.342 2.342 0 0 1 3.312 0z" fill="#FAA019"/><path d="M75.281 11.907a2.342 2.342 0 0 1 0 3.312L40.5 50.001h-6.625l38.094-38.094a2.342 2.342 0 0 1 3.312 0z" fill="#FFD205"/><path d="M77.19 36.75H48.782c-.914 0-1.656.742-1.656 1.656a8.281 8.281 0 0 1-8.281 8.282H22.28A8.281 8.281 0 0 1 14 38.406c0-.914-.742-1.656-1.656-1.656H3.809a3.06 3.06 0 0 0-3.017 3.562l8.973 53.84a6.625 6.625 0 0 0 6.535 5.535h48.4a6.625 6.625 0 0 0 6.535-5.535l8.973-53.84a3.06 3.06 0 0 0-3.017-3.562z" fill="#F04B37"/><path d="M77.19 36.75H57.317a3.06 3.06 0 0 1 3.017 3.562l-8.973 53.84a6.625 6.625 0 0 1-6.535 5.535H64.7a6.625 6.625 0 0 0 6.535-5.535l8.973-53.84a3.06 3.06 0 0 0-3.017-3.562z" fill="#E1322D"/><path d="M30.563 86.438c7.317 0 13.25-5.933 13.25-13.25 0-7.318-5.933-13.25-13.25-13.25-7.318 0-13.25 5.932-13.25 13.25 0 7.317 5.932 13.25 13.25 13.25z" fill="#FAA019"/></svg>