<svg width="24" height="25" viewBox="0 0 24 25" fill="none" xmlns="http://www.w3.org/2000/svg"><g clip-path="url(#clip0_214_4723)"><path d="M22.255.5H1.705A1.72 1.72 0 0 0 0 2.23v20.5a1.72 1.72 0 0 0 1.705 1.725h20.55a1.72 1.72 0 0 0 1.71-1.725V2.23A1.725 1.725 0 0 0 22.255.5zm-15 20.54H3.69V9.605h3.56V21.04h.005zm-1.78-13A2.06 2.06 0 1 1 7.525 6a2.06 2.06 0 0 1-2.06 2.045l.01-.005zm15.095 13H17V15.5c0-1.33 0-3.035-1.845-3.035S13.02 13.91 13.02 15.4v5.64H9.5V9.605h3.405v1.56h.05A3.744 3.744 0 0 1 16.32 9.32c3.595 0 4.265 2.37 4.265 5.45l-.015 6.27z" fill="#000"/></g><defs><clipPath id="clip0_214_4723"><path fill="#fff" transform="translate(0 .5)" d="M0 0h24v24H0z"/></clipPath></defs></svg>