<svg width="100" height="100" viewBox="0 0 100 100" fill="none" xmlns="http://www.w3.org/2000/svg"><path d="M13 31a2 2 0 1 0 0-4 2 2 0 0 0 0 4z" fill="#EE3E54"/><path d="M77 14a1 1 0 1 0 0-2 1 1 0 0 0 0 2z" fill="#F1BC19"/><path d="M50 87c20.434 0 37-16.566 37-37S70.434 13 50 13 13 29.566 13 50s16.566 37 37 37z" fill="#FFF2CF"/><path d="M83 19a4 4 0 1 0 0-8 4 4 0 0 0 0 8z" fill="#F1BC19"/><path d="M87 26a2 2 0 1 0 0-4 2 2 0 0 0 0 4z" fill="#EE3E54"/><path d="M81 78a2 2 0 1 0 0-4 2 2 0 0 0 0 4zM15 67a4 4 0 1 0 0-8 4 4 0 0 0 0 8z" fill="#FBCD59"/><path d="M25 89a2 2 0 1 0 0-4 2 2 0 0 0 0 4z" fill="#EE3E54"/><path d="M18.5 56a2.5 2.5 0 1 0 0-5 2.5 2.5 0 0 0 0 5z" fill="#fff"/><path d="M21 68a1 1 0 1 0 0-2 1 1 0 0 0 0 2z" fill="#F1BC19"/><path d="M80 35a1 1 0 1 0 0-2 1 1 0 0 0 0 2z" fill="#fff"/><path d="M35 72.3c-4.025 0-7.3-3.275-7.3-7.3V35c0-4.025 3.274-7.3 7.3-7.3h30c4.025 0 7.3 3.275 7.3 7.3v30c0 4.025-3.274 7.3-7.3 7.3H35z" fill="#EE3E54"/><path d="M65 28.4c3.639 0 6.6 2.961 6.6 6.6v30c0 3.639-2.961 6.6-6.6 6.6H35a6.608 6.608 0 0 1-6.6-6.6V35c0-3.639 2.961-6.6 6.6-6.6h30zm0-1.4H35c-4.4 0-8 3.6-8 8v30c0 4.4 3.6 8 8 8h30c4.4 0 8-3.6 8-8V35c0-4.4-3.6-8-8-8z" fill="#472B29"/><path d="M50 67.5c9.665 0 17.5-7.835 17.5-17.5S59.665 32.5 50 32.5 32.5 40.335 32.5 50 40.335 67.5 50 67.5z" fill="#fff"/><path d="M48 38.961c0-.618.189-1.099.566-1.444.377-.344.851-.517 1.426-.517.573 0 1.052.178 1.433.535.383.356.575.832.575 1.426 0 1.568-.075 4.182-.223 7.842-.149 3.66-.223 6.274-.223 7.843 0 .427-.165.761-.495.998a1.78 1.78 0 0 1-1.067.356c-1.04 0-1.561-.451-1.561-1.354 0-1.569-.071-4.182-.215-7.843-.145-3.659-.216-6.274-.216-7.842zM50 63a2 2 0 1 0 0-4 2 2 0 0 0 0 4z" fill="#EE3E54"/><path d="M51.633 50.996h-.008a.25.25 0 0 1-.242-.258c.036-1.143.084-2.458.145-3.946.149-3.715.223-6.277.223-7.832 0-.527-.162-.933-.494-1.243-.338-.315-.751-.468-1.264-.468s-.925.148-1.257.452c-.326.298-.484.71-.484 1.26a.25.25 0 0 1-.5 0c0-.688.218-1.236.647-1.629.423-.386.959-.583 1.594-.583.637 0 1.177.203 1.605.603.434.403.653.945.653 1.609 0 1.562-.073 4.13-.223 7.852-.061 1.486-.108 2.8-.145 3.941a.25.25 0 0 1-.25.242zm-3.418-3.943a.25.25 0 0 1-.25-.24 337.97 337.97 0 0 1-.191-5.931.25.25 0 0 1 .245-.255h.005a.25.25 0 0 1 .25.245c.032 1.52.096 3.512.191 5.922a.25.25 0 0 1-.24.26l-.01-.001zm1.777 9.197c-1.497 0-1.811-.872-1.811-1.604 0-1.316-.051-3.395-.153-6.18a.25.25 0 0 1 .241-.259c.162-.015.254.103.259.241.102 2.79.153 4.875.153 6.198 0 .514.149 1.104 1.311 1.104.333 0 .634-.1.921-.309.264-.19.392-.45.392-.795 0-.64.012-1.455.036-2.444a.248.248 0 0 1 .256-.244.25.25 0 0 1 .244.256 103.28 103.28 0 0 0-.036 2.431c0 .51-.201.914-.599 1.201-.37.268-.779.404-1.214.404zm.008 7A2.252 2.252 0 0 1 47.75 61a.25.25 0 0 1 .5 0c0 .965.785 1.75 1.75 1.75a.25.25 0 0 1 0 .5zm1.2-.4a.25.25 0 0 1-.15-.45 1.752 1.752 0 1 0-2.392-2.524.25.25 0 1 1-.383-.321A2.248 2.248 0 0 1 50 58.75c1.24 0 2.25 1.009 2.25 2.25 0 .714-.328 1.37-.9 1.8a.249.249 0 0 1-.15.05z" fill="#472B29"/><path d="M50 68c-9.925 0-18-8.075-18-18 0-1.661.226-3.306.672-4.889a.501.501 0 0 1 .963.271A16.992 16.992 0 0 0 33 50c0 9.374 7.626 17 17 17a16.95 16.95 0 0 0 9.131-2.657.5.5 0 0 1 .537.843A17.94 17.94 0 0 1 50 68zm11.427-4.245a.5.5 0 0 1-.326-.878A16.998 16.998 0 0 0 67 50c0-9.374-7.626-17-17-17a17 17 0 0 0-4.886.713.501.501 0 0 1-.288-.958A18.009 18.009 0 0 1 50 32c9.925 0 18 8.075 18 18a17.993 17.993 0 0 1-6.247 13.634.498.498 0 0 1-.326.121zM34.08 43.223a.502.502 0 0 1-.455-.71 18.077 18.077 0 0 1 8.513-8.71.499.499 0 1 1 .437.899 17.083 17.083 0 0 0-8.042 8.229.494.494 0 0 1-.453.292z" fill="#472B29"/></svg>