<svg width="28" height="28" viewBox="0 0 28 28" fill="none" xmlns="http://www.w3.org/2000/svg"><circle cx="14" cy="14" r="14" fill="#082E4D"/><path d="M13.576 19.16a7.632 7.632 0 0 1-1.792-.224 5.15 5.15 0 0 1-1.616-.672c-.213-.139-.357-.299-.432-.48a.877.877 0 0 1-.064-.512.91.91 0 0 1 .24-.432.808.808 0 0 1 .464-.208c.192-.021.4.027.624.144.437.235.859.405 1.264.512.405.096.821.144 1.248.144.47 0 .864-.064 1.184-.192.32-.128.56-.32.72-.576.17-.256.256-.565.256-.928 0-.533-.181-.928-.544-1.184-.352-.267-.87-.4-1.552-.4h-1.024c-.299 0-.528-.075-.688-.224-.15-.15-.224-.357-.224-.624s.075-.475.224-.624c.16-.15.39-.224.688-.224h.832c.405 0 .752-.064 1.04-.192a1.62 1.62 0 0 0 .672-.576c.16-.245.24-.544.24-.896 0-.49-.165-.864-.496-1.12-.32-.256-.79-.384-1.408-.384a4.24 4.24 0 0 0-1.12.144c-.341.085-.72.25-1.136.496a.869.869 0 0 1-.56.144.72.72 0 0 1-.432-.208.91.91 0 0 1-.24-.416.844.844 0 0 1 .032-.512c.064-.181.197-.336.4-.464a5.28 5.28 0 0 1 1.52-.672 6.146 6.146 0 0 1 1.712-.24c.779 0 1.445.123 2 .368.555.235.976.576 1.264 1.024.299.437.448.97.448 1.6 0 .448-.085.859-.256 1.232-.17.363-.41.672-.72.928a2.75 2.75 0 0 1-1.12.544v-.192c.768.128 1.365.448 1.792.96.427.501.64 1.13.64 1.888 0 .661-.165 1.237-.496 1.728-.33.49-.8.87-1.408 1.136-.608.256-1.333.384-2.176.384z" fill="#fff"/></svg>