<svg width="28" height="28" viewBox="0 0 28 28" fill="none" xmlns="http://www.w3.org/2000/svg"><circle cx="14" cy="14" r="14" fill="#082E4D"/><path d="M14.216 19.16c-.928 0-1.723-.219-2.384-.656-.65-.448-1.147-1.088-1.488-1.92-.341-.832-.512-1.84-.512-3.024 0-.96.107-1.808.32-2.544.224-.747.544-1.376.96-1.888a4.073 4.073 0 0 1 1.52-1.168c.608-.267 1.29-.4 2.048-.4.47 0 .944.075 1.424.224.49.139.95.352 1.376.64a.75.75 0 0 1 .336.416.93.93 0 0 1 .016.512.89.89 0 0 1-.224.432.725.725 0 0 1-.416.224c-.17.021-.357-.027-.56-.144a4.162 4.162 0 0 0-1.024-.448 3.712 3.712 0 0 0-.96-.128c-.619 0-1.141.144-1.568.432-.427.288-.752.72-.976 1.296-.213.576-.32 1.296-.32 2.16v1.2h-.192c.085-.544.261-1.008.528-1.392.277-.395.63-.693 1.056-.896a3.14 3.14 0 0 1 1.424-.32c.65 0 1.227.155 1.728.464.501.31.896.736 1.184 1.28.288.544.432 1.168.432 1.872 0 .725-.16 1.376-.48 1.952a3.453 3.453 0 0 1-1.312 1.344c-.555.32-1.2.48-1.936.48zm-.112-1.632c.384 0 .72-.085 1.008-.256.299-.17.528-.41.688-.72a2.4 2.4 0 0 0 .24-1.088c0-.416-.08-.779-.24-1.088a1.72 1.72 0 0 0-.688-.72 1.852 1.852 0 0 0-1.008-.272c-.384 0-.72.09-1.008.272-.288.17-.517.41-.688.72-.16.31-.24.672-.24 1.088 0 .405.08.768.24 1.088.17.31.4.55.688.72.288.17.624.256 1.008.256z" fill="#fff"/></svg>