<svg width="28" height="28" viewBox="0 0 28 28" fill="none" xmlns="http://www.w3.org/2000/svg"><circle cx="14" cy="14" r="14" fill="#082E4D"/><path d="M11.752 19.128c-.245 0-.448-.059-.608-.176a.699.699 0 0 1-.288-.464c-.032-.203.016-.427.144-.672l4.832-9.088v.704h-5.184c-.288 0-.512-.075-.672-.224-.15-.15-.224-.357-.224-.624 0-.277.075-.49.224-.64.16-.15.384-.224.672-.224h6.192c.288 0 .523.075.704.224.181.15.272.363.272.64 0 .235-.032.443-.096.624a5.15 5.15 0 0 1-.256.56l-4.544 8.688a1.15 1.15 0 0 1-.464.512c-.181.107-.416.16-.704.16z" fill="#fff"/></svg>