<svg width="28" height="28" viewBox="0 0 28 28" fill="none" xmlns="http://www.w3.org/2000/svg"><circle cx="14" cy="14" r="14" fill="#082E4D"/><path d="M11.496 19c-.277 0-.496-.075-.656-.224-.15-.16-.224-.373-.224-.64 0-.277.075-.485.224-.624.16-.139.379-.208.656-.208h1.792V9.448h.992l-2.352 1.424c-.203.117-.395.165-.576.144a.895.895 0 0 1-.448-.224 1.018 1.018 0 0 1-.24-.448.844.844 0 0 1 .032-.512.93.93 0 0 1 .416-.448l2.208-1.328c.213-.128.427-.235.64-.32a1.45 1.45 0 0 1 .592-.144.83.83 0 0 1 .56.192c.15.117.224.315.224.592v8.928h1.632c.277 0 .49.07.64.208.16.139.24.347.24.624s-.08.49-.24.64c-.15.15-.363.224-.64.224h-5.472z" fill="#fff"/></svg>