<svg width="28" height="28" viewBox="0 0 28 28" fill="none" xmlns="http://www.w3.org/2000/svg"><circle cx="14" cy="14" r="14" fill="#082E4D"/><path d="M13.896 19.16a6.99 6.99 0 0 1-1.728-.224 5.598 5.598 0 0 1-1.616-.688c-.203-.128-.341-.277-.416-.448a1.007 1.007 0 0 1-.048-.528.914.914 0 0 1 .24-.448.751.751 0 0 1 .448-.224c.181-.021.379.027.592.144.395.224.795.395 1.2.512a4.65 4.65 0 0 0 1.296.176c.448 0 .832-.08 1.152-.24.32-.16.565-.384.736-.672a1.94 1.94 0 0 0 .256-1.008c0-.597-.181-1.077-.544-1.44-.363-.373-.859-.56-1.488-.56a2.86 2.86 0 0 0-.992.176c-.32.107-.635.299-.944.576-.096.085-.219.17-.368.256-.15.075-.31.112-.48.112-.267 0-.47-.07-.608-.208-.139-.139-.208-.33-.208-.576V8.616c0-.288.075-.507.224-.656.16-.16.384-.24.672-.24h5.264c.288 0 .507.075.656.224.16.139.24.347.24.624 0 .267-.08.475-.24.624-.15.15-.368.224-.656.224h-4.16V13h-.528a2.707 2.707 0 0 1 1.104-.864 3.68 3.68 0 0 1 1.504-.304c.715 0 1.333.155 1.856.464.533.299.944.72 1.232 1.264.299.533.448 1.157.448 1.872 0 .736-.165 1.387-.496 1.952-.33.555-.805.992-1.424 1.312-.608.31-1.333.464-2.176.464z" fill="#fff"/></svg>