<svg width="42" height="42" viewBox="0 0 42 42" fill="none" xmlns="http://www.w3.org/2000/svg"><path d="M34.416 13.333v-11.5m-5.75 5.75h11.5m0 13.417v9.966c0 3.22 0 4.83-.626 6.06a5.75 5.75 0 0 1-2.513 2.514c-1.23.626-2.84.626-6.06.626H11.032c-3.22 0-4.83 0-6.06-.626a5.75 5.75 0 0 1-2.513-2.513c-.627-1.23-.627-2.84-.627-6.06V11.032c0-3.22 0-4.83.627-6.06A5.75 5.75 0 0 1 4.973 2.46c1.23-.627 2.84-.627 6.06-.627H21M2.112 36.192A7.67 7.67 0 0 1 9.5 30.583h13.416c1.782 0 2.672 0 3.413.147a7.667 7.667 0 0 1 6.023 6.024c.148.74.148 1.631.148 3.412m-7.667-23.958a7.667 7.667 0 1 1-15.333 0 7.667 7.667 0 0 1 15.333 0z" stroke="#007AFF" stroke-width="2" stroke-linecap="round" stroke-linejoin="round"/></svg>