<svg width="13" height="13" viewBox="0 0 13 13" fill="none" xmlns="http://www.w3.org/2000/svg"><path d="M8.667 9.208L11.375 6.5 8.667 3.792" fill="#FF6900"/><path d="M8.667 9.208L11.375 6.5m0 0L8.667 3.792M11.375 6.5h-6.5M6.5 9.208c0 .504 0 .756-.055.963-.15.56-.589.998-1.15 1.149-.206.055-.458.055-.962.055h-.27c-.758 0-1.136 0-1.435-.124a1.625 1.625 0 0 1-.88-.88c-.123-.298-.123-.676-.123-1.434V4.064c0-.758 0-1.136.124-1.435.165-.398.481-.714.88-.88.298-.123.676-.123 1.433-.123h.271c.504 0 .756 0 .963.055.56.15.998.589 1.149 1.15.055.206.055.458.055.962" stroke="#FF6900" stroke-linecap="round" stroke-linejoin="round"/></svg>