<svg width="60" height="60" viewBox="0 0 60 60" fill="none" xmlns="http://www.w3.org/2000/svg"><circle cx="30" cy="30" r="30" fill="#FFE9CC"/><path d="M16.667 23.333l10.886 7.62c.882.618 1.323.927 1.802 1.046.424.106.866.106 1.29 0 .48-.12.92-.428 1.802-1.045l10.886-7.62M23.067 40.666h13.866c2.24 0 3.36 0 4.216-.436a4 4 0 0 0 1.748-1.748c.436-.856.436-1.976.436-4.216v-8.534c0-2.24 0-3.36-.436-4.216a4 4 0 0 0-1.748-1.748c-.855-.436-1.975-.436-4.216-.436H23.067c-2.24 0-3.36 0-4.216.436a4 4 0 0 0-1.748 1.748c-.436.856-.436 1.976-.436 4.216v8.534c0 2.24 0 3.36.436 4.215a4 4 0 0 0 1.748 1.749c.855.436 1.976.436 4.216.436z" stroke="#F7961C" stroke-width="2" stroke-linecap="round" stroke-linejoin="round"/></svg>