<svg width="121" height="120" viewBox="0 0 121 120" fill="none" xmlns="http://www.w3.org/2000/svg"><path d="M16.1 37.2a2.4 2.4 0 1 0 0-4.8 2.4 2.4 0 0 0 0 4.8z" fill="#78A0CF"/><path d="M92.9 16.8a1.2 1.2 0 1 0 0-2.4 1.2 1.2 0 0 0 0 2.4z" fill="#F1BC19"/><path d="M60.5 104.4c24.521 0 44.4-19.879 44.4-44.4 0-24.521-19.879-44.4-44.4-44.4-24.522 0-44.4 19.879-44.4 44.4 0 24.522 19.878 44.4 44.4 44.4z" fill="#CEE1F4"/><path d="M100.1 22.8a4.8 4.8 0 1 0 0-9.6 4.8 4.8 0 0 0 0 9.6z" fill="#F1BC19"/><path d="M104.9 31.2a2.4 2.4 0 1 0 0-4.8 2.4 2.4 0 0 0 0 4.8z" fill="#78A0CF"/><path d="M97.7 93.6a2.4 2.4 0 1 0 0-4.8 2.4 2.4 0 0 0 0 4.8zM18.5 80.4a4.8 4.8 0 1 0 0-9.6 4.8 4.8 0 0 0 0 9.6z" fill="#FBCD59"/><path d="M30.5 106.8a2.4 2.4 0 1 0 0-4.8 2.4 2.4 0 0 0 0 4.8z" fill="#78A0CF"/><path d="M34.7 36a3 3 0 1 0 0-6 3 3 0 0 0 0 6z" fill="#fff"/><path d="M29.3 86.4a1.2 1.2 0 1 0 0-2.4 1.2 1.2 0 0 0 0 2.4z" fill="#F1BC19"/><path d="M98.9 49.2a1.2 1.2 0 1 0 0-2.4 1.2 1.2 0 0 0 0 2.4z" fill="#fff"/><path d="M29.1 80.76a2.563 2.563 0 0 1-2.56-2.56V65.577A5.648 5.648 0 0 0 31.34 60a5.648 5.648 0 0 0-4.8-5.577V43a2.563 2.563 0 0 1 2.56-2.561h62.8a2.563 2.563 0 0 1 2.56 2.56v11.424A5.648 5.648 0 0 0 89.66 60a5.648 5.648 0 0 0 4.8 5.578V78.2a2.563 2.563 0 0 1-2.56 2.56H29.1z" fill="#F6CCA4"/><path d="M91.9 41.28c.948 0 1.72.772 1.72 1.72v10.742a6.491 6.491 0 0 0-4.8 6.26 6.491 6.491 0 0 0 4.8 6.258v11.942c0 .949-.772 1.72-1.72 1.72H29.1c-.948 0-1.72-.771-1.72-1.72V66.26a6.491 6.491 0 0 0 4.8-6.259 6.491 6.491 0 0 0-4.8-6.259V43.001c0-.95.772-1.72 1.72-1.72h62.8zm0-1.68H29.1a3.4 3.4 0 0 0-3.4 3.4v12.2a4.8 4.8 0 0 1 0 9.6v13.4a3.4 3.4 0 0 0 3.4 3.4h62.8a3.4 3.4 0 0 0 3.4-3.4V64.8a4.8 4.8 0 0 1 0-9.6V43a3.4 3.4 0 0 0-3.4-3.4z" fill="#472B29"/><path d="M84.5 49.2a1.2 1.2 0 1 0 0-2.4 1.2 1.2 0 0 0 0 2.4zm0-4.8a1.2 1.2 0 1 0 0-2.4 1.2 1.2 0 0 0 0 2.4zm0 9.6a1.2 1.2 0 1 0 0-2.4 1.2 1.2 0 0 0 0 2.4zm0 4.8a1.2 1.2 0 1 0 0-2.4 1.2 1.2 0 0 0 0 2.4zm0 4.8a1.2 1.2 0 1 0 0-2.4 1.2 1.2 0 0 0 0 2.4zm0 4.8a1.2 1.2 0 1 0 0-2.4 1.2 1.2 0 0 0 0 2.4zm0 4.8a1.2 1.2 0 1 0 0-2.4 1.2 1.2 0 0 0 0 2.4zm0 4.8a1.2 1.2 0 1 0 0-2.4 1.2 1.2 0 0 0 0 2.4zm-4.175-32.7H63.9a.3.3 0 0 1 0-.6h16.425a.3.3 0 0 1 0 .6zm-21.125 0H46.9a.3.3 0 0 1 0-.6h12.3a.3.3 0 0 1 0 .6zm-16.1 0h-12a.3.3 0 0 1 0-.6h12a.3.3 0 0 1 0 .6z" fill="#472B29"/><path d="M31.1 52.8a.3.3 0 0 1-.3-.3v-7.48a.3.3 0 0 1 .6 0v7.48a.3.3 0 0 1-.3.3zm49.2-.3a.3.3 0 0 1-.3-.3V45a.3.3 0 0 1 .6 0v7.2a.3.3 0 0 1-.3.3zm.002 23.978a.3.3 0 0 1-.3-.3V57.025a.3.3 0 0 1 .6 0V76.18a.3.3 0 0 1-.3.298zM31.1 76.55a.3.3 0 0 1-.3-.3v-7.48a.3.3 0 0 1 .6 0v7.48a.3.3 0 0 1-.3.3z" fill="#472B29"/><path d="M80.3 76.5h-7a.3.3 0 0 1 0-.6h7a.3.3 0 0 1 0 .6zm-10.9 0h-9.3a.3.3 0 0 1 0-.6h9.3a.3.3 0 0 1 0 .6zm-12.8 0H31.1a.3.3 0 0 1 0-.6h25.5a.3.3 0 0 1 0 .6zm16.5-23.7H51.65a.6.6 0 0 1 0-1.2H73.1a.6.6 0 0 1 0 1.2zm-25.424 0H39.5a.6.6 0 0 1 0-1.2h8.176a.6.6 0 0 1 0 1.2zm25.424 6h-7.35a.6.6 0 0 1 0-1.2h7.35a.6.6 0 0 1 0 1.2zm-11.25 0H39.5a.6.6 0 0 1 0-1.2h22.35a.6.6 0 0 1 0 1.2zm0 10.8H39.5a.6.6 0 0 1 0-1.2h22.35a.6.6 0 0 1 0 1.2zm11.25-4.8H57.05a.6.6 0 0 1 0-1.2H73.1a.6.6 0 0 1 0 1.2zm-20.024 0H39.5a.6.6 0 0 1 0-1.2h13.576a.6.6 0 0 1 0 1.2z" fill="#472B29"/></svg>