<svg width="36" height="36" viewBox="0 0 36 36" fill="none" xmlns="http://www.w3.org/2000/svg"><path d="M20.55 11.92a5.833 5.833 0 1 1 1.568-7.84M8.001 31.478h4.35a7.05 7.05 0 0 1 1.681.203l4.597 1.117a7.126 7.126 0 0 0 3.044.07l5.083-.988a7.008 7.008 0 0 0 3.545-1.846l3.596-3.498a2.505 2.505 0 0 0 0-3.614 2.683 2.683 0 0 0-3.434-.239l-4.191 3.058c-.6.439-1.33.675-2.082.675h-4.047 2.576c1.452 0 2.628-1.144 2.628-2.556v-.512c0-1.172-.82-2.195-1.99-2.479l-3.975-.966a8.374 8.374 0 0 0-1.976-.237c-1.608 0-4.519 1.332-4.519 1.332L8.001 23.04M31.334 8.833a5.833 5.833 0 1 1-11.667 0 5.833 5.833 0 0 1 11.667 0zm-30 13.5V32c0 .933 0 1.4.182 1.756.16.314.414.569.728.729.357.181.823.181 1.757.181h1.333c.933 0 1.4 0 1.757-.181a1.67 1.67 0 0 0 .728-.729c.182-.356.182-.823.182-1.756v-9.667c0-.933 0-1.4-.182-1.757a1.667 1.667 0 0 0-.728-.728c-.357-.182-.824-.182-1.757-.182H4.001c-.934 0-1.4 0-1.757.182-.314.16-.569.415-.728.728-.182.357-.182.824-.182 1.757z" stroke="#FF6900" stroke-width="2" stroke-linecap="round" stroke-linejoin="round"/></svg>