<svg width="101" height="100" viewBox="0 0 101 100" fill="none" xmlns="http://www.w3.org/2000/svg"><path d="M79.5 12a1 1 0 1 0 0 2 1 1 0 0 0 0-2z" fill="#F1BC19"/><path d="M50.5 13a37 37 0 1 0 0 74 37 37 0 0 0 0-74z" fill="#FEFBE7"/><path d="M85.5 11a4 4 0 1 0 0 8 4 4 0 0 0 0-8z" fill="#F1BC19"/><path d="M13.5 27a2 2 0 1 0 0 4 2 2 0 0 0 0-4z" fill="#00A5A5"/><path d="M80.5 76a2 2 0 1 0 0 4 2 2 0 0 0 0-4zm-54-4a4 4 0 1 0 0 8 4 4 0 0 0 0-8z" fill="#FBCD59"/><path d="M27.5 85a2 2 0 1 0 0 4 2 2 0 0 0 0-4z" fill="#00A5A5"/><path d="M59 78a2.5 2.5 0 1 0 0 5 2.5 2.5 0 0 0 0-5zM23.529 68a.971.971 0 1 0 0 1.942.971.971 0 0 0 0-1.942z" fill="#fff"/><path d="M85.5 30a1 1 0 1 0 0 2 1 1 0 0 0 0-2z" fill="#F1BC19"/><path d="M78.5 66a2 2 0 1 0 0 4 2 2 0 0 0 0-4zm1-33a1 1 0 1 0 0 2 1 1 0 0 0 0-2z" fill="#fff"/><path d="M50.5 25a25 25 0 1 0 0 50 25 25 0 0 0 0-50z" fill="#FDFCEF"/><path d="M50.5 30.5a19.5 19.5 0 1 0 0 39.002 19.5 19.5 0 0 0 0-39.002z" fill="#FF6900"/><path d="M58.5 51.5h-16a1.5 1.5 0 0 1 0-3h16a1.5 1.5 0 0 1 0 3z" fill="#FDFCEF"/><path d="M50.499 26.4C63.513 26.4 74.1 36.986 74.1 49.999 74.1 63.013 63.513 73.6 50.499 73.6 37.487 73.6 26.9 63.013 26.9 50c0-13.013 10.587-23.6 23.599-23.6zm0-1.4C36.714 25 25.5 36.215 25.5 50s11.214 25 24.999 25C64.285 75 75.5 63.784 75.5 49.999 75.5 36.214 64.285 25 50.499 25z" fill="#472B29"/><path d="M50.626 33.375c10.333 0 18.781 7.99 19.55 18.126.038-.497.076-.994.076-1.5 0-10.839-8.787-19.626-19.626-19.626S31 39.162 31 50.001c0 .506.038 1.003.076 1.5.769-10.136 9.218-18.126 19.55-18.126z" fill="#FF9A54"/><path d="M58.5 48.75c.689 0 1.25.561 1.25 1.25s-.561 1.25-1.25 1.25h-16c-.689 0-1.25-.561-1.25-1.25s.561-1.25 1.25-1.25h16zm0-.75h-16a2 2 0 1 0 0 4h16a2 2 0 1 0 0-4z" fill="#472B29"/><path d="M50.5 70c-11.028 0-20-8.972-20-20s8.972-20 20-20 20 8.972 20 20-8.972 20-20 20zm0-39c-10.477 0-19 8.523-19 19s8.523 19 19 19 19-8.523 19-19-8.523-19-19-19z" fill="#472B29"/></svg>