<svg width="553" height="827" viewBox="0 0 553 827" fill="none" xmlns="http://www.w3.org/2000/svg"><g clip-path="url(#clip0_6445_189812)"><path d="M547.591 556.196V270.804c0-147.021-119.145-266.202-266.166-266.202h-5.329c-147.04 0-266.221 119.181-266.221 266.202v285.392c0 147.021 119.181 266.202 266.221 266.202h5.347c147.003 0 266.148-119.181 266.148-266.202zm-381.225 90.403a144.073 144.073 0 0 1-42.334-102.202V282.603a144.535 144.535 0 1 1 289.072 0v261.794a144.484 144.484 0 0 1-89.196 133.601 144.495 144.495 0 0 1-157.542-31.399z" fill="#E0E0E0"/><path d="M268.568 688.933a144.538 144.538 0 0 1-144.49-144.536V282.603a144.54 144.54 0 0 1 144.536-144.537A144.538 144.538 0 0 1 413.15 282.603v261.794a144.543 144.543 0 0 1-42.35 102.219 144.537 144.537 0 0 1-102.232 42.317z" fill="#E0E0E0"/><path d="M426.955 252.527a159.377 159.377 0 0 0-16.492-47.388l36.38-16.271 3.12 5.725 10.197-4.915a204.617 204.617 0 0 1 18.02 54.851l-51.225 7.998zm54.17 36.647h-51.63v-8.053c0-4.461-.181-8.878-.543-13.253h24.628v-10.915l26.036-3.432a208.055 208.055 0 0 1 1.84 27.379v6.939c-.211.865-.331 1.335-.331 1.335zm.295 56.655h-51.925v-27.03h26.321v-7.795h-26.321v-17.661h51.925v52.486zm0 68.775h-51.925v-28.401h26.321v-9.194h-26.321v-24.425h51.925v62.02zm0 68.941h-51.925v-28.06h26.321v-9.36h-26.321v-27.021h51.925v64.441zm0 53.121h-51.925v-15.157l26.321.497v-9.121l-26.321-.175v-23.965h51.925v47.921zm-1.804 43.605l-15.645-2.135v-15.075H428.63v-.276c.577-5.574.866-11.173.865-16.777v-4.777h51.925v11.688a207.782 207.782 0 0 1-1.804 27.352z" fill="#C9C5C5"/><path d="M449.945 638.941l-38.562-18.774a159.612 159.612 0 0 0 14.274-39.206l40.366 2.89c-3.102 29.625-16.078 55.09-16.078 55.09zm12.976-.488l-8.531-3.147s9.322-14.955 14.872-52.458l9.838 1.334a204.579 204.579 0 0 1-16.179 54.271zm-48.059 51.419l-31.438-31.19a161.213 161.213 0 0 0 25.898-34.622l39.058 19.041c-12.618 23.661-33.518 46.771-33.518 46.771zm2.816 12.111l-5.374-5.871c20.09-18.572 36.122-46.016 36.122-46.016l7.363 2.466a207.033 207.033 0 0 1-38.111 49.421zm-67.036 32.322l-18.544-40.494a160.412 160.412 0 0 0 38.101-23.1l31.116 30.867c-25.953 23.892-50.673 32.727-50.673 32.727z" fill="#0062CC"/><path d="M358.667 741.502l-3.055-5.899c34.825-16.631 53.793-36.896 53.793-36.896l5.475 5.899a206.062 206.062 0 0 1-56.213 36.896zm-66.98 8.394l-6.599-43.918a159.658 159.658 0 0 0 42.62-10.344l1.399-.304 18.195 40.006a200.102 200.102 0 0 1-55.615 14.56z" fill="#0062CC"/><path d="M286.928 758.767v-6.184c29.184-1.215 56.996-12.995 56.996-12.995l3.543 6.442a204.897 204.897 0 0 1-60.539 12.737z" fill="#0062CC"/><path d="M268.393 758.979a205.357 205.357 0 0 1-61.321-11.421l14.017-47.857a160.512 160.512 0 0 0 44.884 7.105l2.42 52.173z" fill="#C9C5C5"/><path d="M201.237 745.404a205.7 205.7 0 0 1-49.771-27.609l26.358-39.123a160.313 160.313 0 0 0 38.755 19.492l-15.342 47.24zm-63.06-38.488a203.436 203.436 0 0 1-8.715-8.218 206.934 206.934 0 0 1-30.702-39.151l37.107-22.906a160.806 160.806 0 0 0 19.134 23.072 160.36 160.36 0 0 0 9.313 8.605l-26.137 38.598zm-41.673-51.179a204.692 204.692 0 0 1-23.928-64.57l40.209-5.521a160.21 160.21 0 0 0 20.928 47.856l-37.209 22.235z" fill="#0062CC"/><path d="M494.01 206.769l-17.284 5.825a209.618 209.618 0 0 0-8.191-19.667l56.14-24.591a264.777 264.777 0 0 1 13.068 33.518l-41.359 11.164-2.374-6.249zm55.689 64.081l-61.34-4.51a211.132 211.132 0 0 0-6.442-37.134l18.563-4.28-2.292-6.672 41.764-8.872a268.069 268.069 0 0 1 9.747 61.468zm.238 41.286l-40.908-1.988-.313-4.114-19.584-1.408v-20.1c0-4.399-.132-8.767-.396-13.105l61.118 4.546c.056 2.099.083 4.203.083 6.314v29.855zm0 69.926l-40.484-2.246.184-5.052-20.505-1.436v-52.394l20.275 1.427v-7.124l40.53 1.74v65.085zm0 69.42l-41.294-3.332.073-3.985-19.584-1.629v-52.201l20.044 1.436v-6.893l40.761 1.951v64.653zm0 68.509l-41.405-3.571-.165-3.718-19.235-1.85v-52.339l19.612 1.593v-7.621l41.193 3.498v64.008zm-.257 45.776l-60.926-3.515c.249-4.188.378-8.421.378-12.673v-25.143l19.897 1.785v-6.019l40.908 3.369v30.37c0 3.958-.086 7.9-.257 11.826zm-11.108 65.674l-37.126-9.544 1.565-7.804-22.153-5.522a212.793 212.793 0 0 0 7.639-42.491l60.971 3.681a267.15 267.15 0 0 1-10.896 61.68zm-42.409 83.694l-33.969-22.088 3.856-5.798-18.13-11.623a213.056 213.056 0 0 0 28.116-52.274l22.778 8.807 1.776-6.442 36.656 10.123a267.73 267.73 0 0 1-41.083 79.295zm-69.429 64.598l-25.382-30.932 3.304-1.786-13.225-18.121a214.091 214.091 0 0 0 46.936-41.157l18.59 13.142 2.568-4.463 33.371 23.008a269.667 269.667 0 0 1-66.162 60.309zm-85.295 35.938l-13.925-33.637 6.912-2.679-7.933-22.52a211.816 211.816 0 0 0 54.142-21.425l12.664 19.861 5.798-3.571 24.048 30.315a266.643 266.643 0 0 1-81.706 33.656zm-59.987 6.727a269.634 269.634 0 0 1-34.917-2.255l-1.233-36.334 4.16.129-1.077-22.833a215.887 215.887 0 0 0 61.607-.92l7.16 24.167 6.111-1.426 13.123 33.867a269.343 269.343 0 0 1-54.934 5.605zm-40.972-3.1a266.709 266.709 0 0 1-83.28-27.315l10.188-32.267 5.909 1.841 4.739-22.401a211.825 211.825 0 0 0 57.373 19.861l-1.141 23.008 7.105 1.178-.893 36.095z" fill="#C9C5C5"/><path d="M152.138 789.258a269.417 269.417 0 0 1-60.539-45.501 265.87 265.87 0 0 1-10.298-10.896l23.072-27.398 4.602 5.236 11.587-14.936a176.731 176.731 0 0 0 4.472 4.601 214.56 214.56 0 0 0 40.495 31.788l-7.032 20.413 4.528 2.963-10.887 33.73zm-73.515-59.444a268.314 268.314 0 0 1-47.517-78.705l29.34-15.885 3.976 7.105 15.277-8.78a213.264 213.264 0 0 0 32.212 52.559l-12.047 11.854 3.359 4.141-24.6 27.711zm-49.614-84.273a267.01 267.01 0 0 1-11.965-44.663l49.587-9.507a212.423 212.423 0 0 0 7.97 29.128l-17.707 6.829 1.841 4.74-29.726 13.473z" fill="#0062CC"/><path d="M413.104 544.397V282.603c0-79.825-64.711-144.537-144.536-144.537s-144.536 64.712-144.536 144.537v261.794c0 79.825 64.711 144.536 144.536 144.536s144.536-64.711 144.536-144.536z" stroke="#fff" stroke-width="9.203" stroke-miterlimit="10"/><path d="M494.01 206.769l-17.284 5.825a209.618 209.618 0 0 0-8.191-19.667l56.14-24.591a264.777 264.777 0 0 1 13.068 33.518l-41.359 11.164-2.374-6.249zm55.689 64.081l-61.34-4.51a211.132 211.132 0 0 0-6.442-37.134l18.563-4.28-2.292-6.672 41.764-8.872a268.069 268.069 0 0 1 9.747 61.468zm.238 41.286l-40.908-1.988-.313-4.114-19.584-1.408v-20.1c0-4.399-.132-8.767-.396-13.105l61.118 4.546c.056 2.099.083 4.203.083 6.314v29.855zm0 69.926l-40.484-2.246.184-5.052-20.505-1.436v-52.394l20.275 1.427v-7.124l40.53 1.74v65.085zm0 69.42l-41.294-3.332.073-3.985-19.584-1.629v-52.201l20.044 1.436v-6.893l40.761 1.951v64.653zm0 68.509l-41.405-3.571-.165-3.718-19.235-1.85v-52.339l19.612 1.593v-7.621l41.193 3.498v64.008zm-.257 45.776l-60.926-3.515c.249-4.188.378-8.421.378-12.673v-25.143l19.897 1.785v-6.019l40.908 3.369v30.37c0 3.958-.086 7.9-.257 11.826zm-11.108 65.674l-37.126-9.544 1.565-7.804-22.153-5.522a212.793 212.793 0 0 0 7.639-42.491l60.971 3.681a267.15 267.15 0 0 1-10.896 61.68zm-42.409 83.694l-33.969-22.088 3.856-5.798-18.13-11.623a213.056 213.056 0 0 0 28.116-52.274l22.778 8.807 1.776-6.442 36.656 10.123a267.73 267.73 0 0 1-41.083 79.295zm-69.429 64.598l-25.382-30.932 3.304-1.786-13.225-18.121a214.091 214.091 0 0 0 46.936-41.157l18.59 13.142 2.568-4.463 33.371 23.008a269.667 269.667 0 0 1-66.162 60.309zm-85.295 35.938l-13.925-33.637 6.912-2.679-7.933-22.52a211.816 211.816 0 0 0 54.142-21.425l12.664 19.861 5.798-3.571 24.048 30.315a266.643 266.643 0 0 1-81.706 33.656zm-100.959 3.627a266.709 266.709 0 0 1-83.28-27.315l10.188-32.267 5.909 1.841 4.739-22.401a211.825 211.825 0 0 0 57.373 19.861l-1.141 23.008 7.105 1.178-.893 36.095zm40.972 3.1a269.634 269.634 0 0 1-34.917-2.255l-1.233-36.334 4.16.129-1.077-22.833a215.887 215.887 0 0 0 61.607-.92l7.16 24.167 6.111-1.426 13.123 33.867a269.343 269.343 0 0 1-54.934 5.605zm196.765-577.869l-51.262 7.998a159.377 159.377 0 0 0-16.492-47.388l36.38-16.271 3.12 5.725 10.197-4.915a204.617 204.617 0 0 1 18.057 54.851zm3.203 43.31c-.175.865-.295 1.335-.295 1.335h-51.63v-8.053c0-4.461-.181-8.878-.543-13.253h24.628v-10.915l26.036-3.432a208.055 208.055 0 0 1 1.84 27.379l-.036 6.939zm0 57.99h-51.925v-27.03h26.321v-7.795h-26.321v-17.661h51.925v52.486zm0 68.775h-51.925v-28.401h26.321v-9.194h-26.321v-24.425h51.925v62.02zm0 68.941h-51.925v-28.06h26.321v-9.36h-26.321v-27.021h51.925v64.441zm0 53.121h-51.925v-15.157l26.321.497v-9.121l-26.321-.175v-23.965h51.925v47.921zm-1.804 43.605l-15.645-2.135v-15.075H428.63v-.276c.577-5.574.866-11.173.865-16.777v-4.777h51.925v11.688a207.782 207.782 0 0 1-1.804 27.352zM268.393 758.979a205.357 205.357 0 0 1-61.321-11.421l14.017-47.857a160.512 160.512 0 0 0 44.884 7.105l2.42 52.173z" fill="#0062CC"/><path d="M547.627 556.196V270.804c0-147.019-119.183-266.202-266.202-266.202h-5.347c-147.02 0-266.203 119.183-266.203 266.202v285.392c0 147.019 119.183 266.202 266.203 266.202h5.347c147.019 0 266.202-119.183 266.202-266.202z" stroke="#fff" stroke-width="9.203" stroke-miterlimit="10"/><path d="M96.855 253.318v322.978H0V253.318h96.855z" fill="#C9C5C5"/><g clip-path="url(#clip1_6445_189812)"><path d="M214.303 291.851h108.265l-11.715-28.64h-82.02l-14.53 28.64zm138.262.001v63.295h-62.336v87.711a30.706 30.706 0 0 0-41.708-.151v-87.56h-63.274v-63.295h167.318zm22.53 158.759h-46.867v74.842h46.867v-74.842zm-165.549 0h-45.463v74.842h45.463v-74.842z" fill="#C9C5C5"/><path d="M375.095 361.707h-46.867v86.531h46.867v-86.531zm-165.549 0h-45.463v86.531h45.463v-86.531zm2.417 0h28.156v82.388h-7.538v53.795l9.843 9.263h20.156v18.53h-50.617V361.707zm113.752 0h-28.592v81.523h7.969v54.66l-9.842 9.263h-20.156v18.53h50.621V361.707zM164.083 528.23h98.064v15.469h-17.345v17.807h-80.719V528.23zm210.58 0h-99.357v15.469h17.341v17.807h82.016V528.23z" fill="#C9C5C5"/><path d="M294.999 359.212v86.314h7.996v50.595l-8.368 8.368h-21.371v39.52h-8.393v-39.252h-22.245l-7.918-7.918v-50.331h7.538v-86.92h-63.53v-66.872h5.471v64h62.703v85.649l.229 2.162a30.703 30.703 0 1 0 44.109.618v-88.684h62.885v-63.745h6.054v66.496h-65.16z" fill="#C9C5C5"/><path d="M268.906 497.829c17.688 0 32.026-14.339 32.026-32.026 0-17.688-14.338-32.027-32.026-32.027-17.687 0-32.026 14.339-32.026 32.027 0 17.687 14.339 32.026 32.026 32.026z" fill="#C9C5C5" stroke="#fff" stroke-width="4.602" stroke-miterlimit="10"/><path d="M291.453 544.869h-45.708v16.636h45.708v-16.636z" fill="#C9C5C5"/><path d="M181.926 490.453a.578.578 0 0 1-.33-.091.69.69 0 0 1-.204-.281l-1.889-4.329a.498.498 0 0 1-.042-.325.377.377 0 0 1 .157-.219.475.475 0 0 1 .28-.079c.142.001.248.034.316.098a.647.647 0 0 1 .182.274l1.714 4.055-.317-.002 1.769-4.036a.707.707 0 0 1 .193-.264.46.46 0 0 1 .31-.093.417.417 0 0 1 .265.083.353.353 0 0 1 .138.222.533.533 0 0 1-.054.323l-1.955 4.3a.694.694 0 0 1-.208.278.531.531 0 0 1-.325.086zm5.249.04a.582.582 0 0 1-.331-.091.69.69 0 0 1-.204-.281l-1.888-4.329a.494.494 0 0 1-.042-.324.373.373 0 0 1 .156-.22.485.485 0 0 1 .281-.079c.142.001.247.034.316.098.073.06.133.151.181.274l1.714 4.055-.316-.002 1.768-4.036a.725.725 0 0 1 .194-.264.458.458 0 0 1 .31-.093.418.418 0 0 1 .264.083.358.358 0 0 1 .138.222.536.536 0 0 1-.054.324l-1.954 4.299a.689.689 0 0 1-.209.278.524.524 0 0 1-.324.086zm3.658.028c-.152-.001-.27-.043-.352-.127a.52.52 0 0 1-.115-.362l.033-4.337c.001-.157.041-.277.12-.359a.481.481 0 0 1 .355-.123c.152.001.267.044.345.128.083.084.123.205.122.362l-.033 4.336a.52.52 0 0 1-.121.36c-.079.083-.197.124-.354.122zm2.078.016c-.152-.001-.27-.043-.353-.128a.525.525 0 0 1-.115-.361l.033-4.285c.002-.157.044-.275.128-.352.084-.083.202-.124.355-.123l1.774.014c.569.004 1.007.15 1.314.437.307.287.459.686.455 1.196-.004.511-.162.909-.473 1.197-.311.282-.752.421-1.321.416l-1.311-.01-.011 1.517a.525.525 0 0 1-.121.36c-.079.083-.197.124-.354.122zm.492-2.742l1.163.009c.334.002.587-.069.76-.215.173-.151.261-.371.263-.661.002-.289-.082-.509-.252-.657-.171-.149-.423-.224-.757-.227l-1.163-.009-.014 1.76zm154.451 2.658a.582.582 0 0 1-.331-.091.69.69 0 0 1-.204-.281l-1.888-4.329a.498.498 0 0 1-.042-.325.376.376 0 0 1 .156-.219.478.478 0 0 1 .281-.079c.142.001.247.034.316.098a.647.647 0 0 1 .182.274l1.713 4.055-.316-.002 1.769-4.036a.696.696 0 0 1 .193-.264.458.458 0 0 1 .31-.093.413.413 0 0 1 .264.083.35.35 0 0 1 .139.222.548.548 0 0 1-.054.323l-1.955 4.3a.704.704 0 0 1-.208.278.533.533 0 0 1-.325.086zm5.248.04a.58.58 0 0 1-.33-.091.69.69 0 0 1-.204-.281l-1.889-4.329a.487.487 0 0 1-.041-.324.373.373 0 0 1 .156-.22.482.482 0 0 1 .28-.079c.143.001.248.034.316.098.073.06.134.151.182.274l1.714 4.055-.317-.002 1.769-4.036a.714.714 0 0 1 .194-.264.458.458 0 0 1 .31-.093.42.42 0 0 1 .264.083.358.358 0 0 1 .138.222.536.536 0 0 1-.054.324l-1.955 4.299a.687.687 0 0 1-.208.278.525.525 0 0 1-.325.086zm3.659.028c-.152-.001-.27-.043-.353-.127a.525.525 0 0 1-.115-.362l.034-4.337c.001-.157.041-.277.12-.359.084-.083.202-.124.355-.123.152.001.267.044.345.128.082.084.123.205.122.362l-.033 4.336a.53.53 0 0 1-.121.36c-.079.083-.197.124-.354.122zm2.078.016c-.153-.001-.27-.043-.353-.128a.52.52 0 0 1-.115-.361l.033-4.285c.001-.157.044-.275.128-.352a.477.477 0 0 1 .354-.123l1.775.014c.569.004 1.007.15 1.314.437.307.287.459.686.455 1.196-.004.511-.162.909-.473 1.197-.312.282-.752.421-1.321.416l-1.311-.01-.012 1.517a.525.525 0 0 1-.12.36c-.079.083-.197.124-.354.122zm.492-2.742l1.163.009c.334.002.587-.069.76-.215.173-.151.261-.371.263-.661.002-.289-.082-.509-.253-.657-.17-.149-.423-.224-.756-.227l-1.164-.009-.013 1.76z" fill="#fff"/></g><path d="M497.666 197.907c-.186.043-.344.026-.475-.05a.621.621 0 0 1-.248-.395c-.042-.186-.024-.337.055-.453.086-.118.223-.198.409-.24l1.203-.274-1.201-5.273.665-.152-1.361 1.315a.634.634 0 0 1-.364.185.605.605 0 0 1-.335-.082.707.707 0 0 1-.23-.264.592.592 0 0 1-.057-.348.648.648 0 0 1 .211-.365l1.279-1.228c.124-.119.251-.223.381-.313a.99.99 0 0 1 .375-.187.566.566 0 0 1 .405.043c.119.056.199.177.241.363l1.365 5.993 1.096-.25c.186-.042.34-.028.461.042.129.069.214.196.257.382.042.186.021.342-.064.466-.077.124-.209.206-.395.249l-3.673.836zm7.42-1.577c-.308.07-.637.096-.988.078a3.513 3.513 0 0 1-1.024-.23.513.513 0 0 1-.289-.227.683.683 0 0 1-.097-.329.678.678 0 0 1 .084-.324.469.469 0 0 1 .256-.216.556.556 0 0 1 .395 0c.276.088.528.136.756.144.228.009.449-.012.664-.061.415-.094.744-.271.987-.529.242-.259.391-.598.446-1.017.061-.428.026-.928-.105-1.501l-.183-.806.129-.029c.031.37-.016.708-.142 1.015a1.948 1.948 0 0 1-.569.774 2.266 2.266 0 0 1-.91.422c-.429.097-.84.082-1.231-.048a2.25 2.25 0 0 1-.99-.678 2.754 2.754 0 0 1-.576-1.19 2.754 2.754 0 0 1 .013-1.382c.128-.428.358-.793.688-1.094a2.596 2.596 0 0 1 1.224-.629c.63-.143 1.197-.118 1.7.076.504.194.935.548 1.293 1.061.356.507.625 1.157.806 1.952.146.644.202 1.234.166 1.769a3.613 3.613 0 0 1-.348 1.401 2.78 2.78 0 0 1-.852 1.019c-.361.27-.795.463-1.303.579zm-.496-4.01c.258-.059.471-.168.638-.326.173-.167.289-.367.349-.599.059-.24.057-.495-.005-.767a1.607 1.607 0 0 0-.328-.694 1.185 1.185 0 0 0-.571-.378 1.339 1.339 0 0 0-.716-.018c-.258.059-.47.168-.638.326a1.284 1.284 0 0 0-.351.589c-.06.232-.059.487.005.767.062.272.171.503.327.693.162.182.354.311.575.389.219.071.458.077.715.018zm1.665 55.689c-.229.053-.408.041-.539-.035-.124-.085-.209-.227-.255-.428a.721.721 0 0 1 .016-.376c.038-.129.104-.272.196-.429l1.635-2.79c.251-.418.417-.784.496-1.095.078-.319.084-.622.019-.909-.081-.357-.258-.603-.529-.737-.265-.136-.612-.155-1.041-.057a2.622 2.622 0 0 0-.706.274c-.229.12-.45.29-.663.512a.555.555 0 0 1-.341.191.54.54 0 0 1-.321-.074.62.62 0 0 1-.227-.253.636.636 0 0 1-.068-.346.641.641 0 0 1 .187-.37c.26-.278.568-.514.923-.708a4.447 4.447 0 0 1 1.123-.425c.545-.124 1.022-.146 1.431-.066.41.08.748.255 1.013.526.265.271.449.632.551 1.083.069.301.086.606.051.915a3.51 3.51 0 0 1-.243.97 6.856 6.856 0 0 1-.549 1.108l-1.54 2.565-.083-.365 3.157-.719c.194-.044.351-.031.472.039.122.07.204.199.246.385.043.186.025.341-.052.464-.078.123-.213.206-.406.25l-3.953.9zm6.687-1.523c-.186.043-.344.026-.475-.05a.621.621 0 0 1-.248-.395c-.042-.186-.024-.337.055-.453.086-.118.223-.198.409-.24l1.203-.274-1.201-5.273.665-.152-1.361 1.316a.638.638 0 0 1-.364.184.613.613 0 0 1-.335-.081.699.699 0 0 1-.23-.264.587.587 0 0 1-.057-.349.643.643 0 0 1 .211-.364l1.279-1.229c.124-.119.251-.223.381-.313.128-.097.254-.159.375-.187a.572.572 0 0 1 .405.043c.119.056.199.177.241.363l1.365 5.993 1.096-.249c.186-.043.34-.029.461.041.129.069.214.196.257.382.042.187.021.342-.064.467-.077.123-.209.206-.395.248l-3.673.836zm-2.524 46.168c-.235-.007-.406-.063-.513-.168-.1-.113-.147-.272-.142-.478a.743.743 0 0 1 .109-.361c.07-.115.168-.238.297-.366l2.277-2.297c.347-.343.598-.656.752-.938.155-.29.236-.581.244-.875.01-.367-.1-.649-.33-.846-.222-.197-.553-.302-.994-.314a2.69 2.69 0 0 0-.751.09c-.252.06-.508.17-.77.332a.547.547 0 0 1-.377.1.536.536 0 0 1-.293-.151.64.64 0 0 1-.137-.654.635.635 0 0 1 .273-.312 3.673 3.673 0 0 1 1.07-.456 4.43 4.43 0 0 1 1.194-.133c.557.015 1.025.112 1.402.291.377.18.661.433.85.762.189.328.278.723.265 1.186a2.692 2.692 0 0 1-.178.898 3.512 3.512 0 0 1-.476.88 6.88 6.88 0 0 1-.807.937l-2.129 2.102.01-.374 3.238.087c.198.006.347.057.447.156.1.098.148.242.143.433-.006.191-.061.336-.166.436-.106.1-.258.148-.456.142l-4.052-.109zm8.284.334a5.227 5.227 0 0 1-1.229-.188 3.543 3.543 0 0 1-1.1-.492.744.744 0 0 1-.288-.338.606.606 0 0 1-.035-.354.632.632 0 0 1 .174-.293.555.555 0 0 1 .323-.134.746.746 0 0 1 .426.11c.297.17.584.295.861.376.277.074.562.115.856.123.323.008.596-.028.818-.111a.99.99 0 0 0 .506-.383 1.12 1.12 0 0 0 .194-.633c.01-.367-.108-.642-.352-.825-.238-.19-.591-.292-1.061-.304l-.705-.019c-.205-.006-.362-.062-.469-.167-.1-.106-.148-.25-.143-.434.005-.184.061-.325.166-.425.113-.1.272-.147.478-.142l.572.016c.279.007.519-.03.72-.113.2-.09.358-.218.473-.384.114-.166.175-.37.182-.612.009-.338-.098-.598-.321-.78-.215-.182-.536-.279-.962-.29a2.871 2.871 0 0 0-1.564.398.6.6 0 0 1-.388.089.498.498 0 0 1-.294-.151.628.628 0 0 1-.157-.291.577.577 0 0 1 .032-.352.635.635 0 0 1 .284-.312 3.65 3.65 0 0 1 1.058-.434c.385-.1.779-.144 1.183-.133.535.014.992.111 1.369.29.377.172.661.415.851.728.197.307.29.677.278 1.11a2.003 2.003 0 0 1-.199.843 1.834 1.834 0 0 1-.512.625 1.898 1.898 0 0 1-.781.354l.003-.132c.526.102.932.333 1.216.694.284.352.419.789.405 1.311a2.075 2.075 0 0 1-.374 1.18 2.192 2.192 0 0 1-.99.755c-.423.165-.924.24-1.504.224zm-7.233 59.515c-.234-.013-.404-.074-.508-.183-.097-.116-.139-.276-.128-.481a.74.74 0 0 1 .119-.358 2 2 0 0 1 .307-.358l2.342-2.23c.356-.334.616-.639.779-.917a1.96 1.96 0 0 0 .268-.867c.021-.367-.081-.652-.305-.856-.217-.203-.545-.317-.985-.341a2.654 2.654 0 0 0-.754.068 2.585 2.585 0 0 0-.778.31.557.557 0 0 1-.38.089.541.541 0 0 1-.289-.159.637.637 0 0 1-.149-.307.639.639 0 0 1 .031-.351.644.644 0 0 1 .281-.304 3.659 3.659 0 0 1 1.083-.425 4.426 4.426 0 0 1 1.197-.099c.557.031 1.022.141 1.394.331.372.19.648.451.828.785.18.334.257.731.231 1.193a2.717 2.717 0 0 1-.204.894 3.524 3.524 0 0 1-.5.865c-.215.29-.493.594-.834.914l-2.188 2.04.021-.374 3.233.18c.198.011.346.067.443.168.098.101.141.247.13.438-.01.19-.07.334-.178.431-.108.097-.262.14-.46.129l-4.047-.225zm8.491.582a4.776 4.776 0 0 1-1.179-.22 3.865 3.865 0 0 1-1.085-.534.709.709 0 0 1-.268-.324.68.68 0 0 1-.013-.365.628.628 0 0 1 .182-.299.517.517 0 0 1 .316-.137.687.687 0 0 1 .402.122c.262.169.531.302.805.398.274.096.569.153.884.17.308.017.575-.023.801-.121.226-.097.403-.242.532-.433.128-.192.199-.42.214-.684.023-.41-.083-.747-.319-1.01-.235-.271-.569-.418-1.001-.442a1.982 1.982 0 0 0-.689.083 1.873 1.873 0 0 0-.671.36 1.49 1.49 0 0 1-.262.162.734.734 0 0 1-.335.059c-.183-.011-.319-.066-.41-.167a.532.532 0 0 1-.12-.404l.199-3.596c.011-.198.071-.345.179-.442.117-.104.274-.15.472-.139l3.618.201c.198.011.345.07.442.179.105.101.152.247.141.438a.559.559 0 0 1-.189.42c-.108.097-.261.14-.459.129l-2.859-.159-.137 2.463-.363-.02c.205-.246.469-.43.792-.552a2.524 2.524 0 0 1 1.045-.151c.491.027.911.157 1.258.39.355.225.621.53.798.915.185.378.264.813.237 1.304a2.61 2.61 0 0 1-.416 1.323 2.375 2.375 0 0 1-1.029.847c-.429.19-.934.268-1.513.236zm-8.61 65.656c-.235-.007-.406-.064-.513-.17-.1-.113-.146-.272-.14-.478a.717.717 0 0 1 .11-.36c.069-.116.168-.238.297-.366l2.283-2.291c.348-.342.599-.654.755-.936.155-.289.237-.581.246-.874.011-.367-.098-.65-.328-.847-.222-.198-.553-.303-.993-.316-.25-.008-.5.022-.752.088a2.586 2.586 0 0 0-.77.329.544.544 0 0 1-.378.099.536.536 0 0 1-.293-.151.633.633 0 0 1-.156-.303.64.64 0 0 1 .021-.352.644.644 0 0 1 .274-.311 3.632 3.632 0 0 1 1.071-.453c.4-.099.798-.142 1.194-.13.558.016 1.025.115 1.402.295s.659.434.848.763c.189.329.276.725.262 1.187a2.72 2.72 0 0 1-.18.898 3.567 3.567 0 0 1-.478.879 6.91 6.91 0 0 1-.81.934l-2.134 2.097.011-.374 3.237.096c.198.005.347.058.447.156.1.099.147.243.141.434-.005.191-.061.336-.167.436-.105.1-.257.146-.456.141l-4.051-.12zm7.028.296a.69.69 0 0 1-.415-.134.482.482 0 0 1-.188-.325.746.746 0 0 1 .112-.459l3.51-6.155-.014.484-3.567-.106c-.198-.005-.351-.061-.458-.167-.1-.106-.147-.251-.141-.434.005-.191.061-.336.167-.436.113-.1.269-.146.467-.141l4.261.127a.731.731 0 0 1 .479.168c.122.106.18.255.175.446a1.284 1.284 0 0 1-.079.427c-.048.117-.11.243-.188.381l-3.304 5.885a.788.788 0 0 1-.329.343.944.944 0 0 1-.488.096zm-8.704 72.443c-.235-.016-.403-.078-.507-.188-.095-.117-.136-.278-.122-.483a.738.738 0 0 1 .122-.356c.074-.113.177-.231.311-.355l2.363-2.207c.36-.33.623-.633.788-.909.166-.283.259-.571.278-.865.024-.366-.075-.652-.297-.858-.215-.205-.542-.323-.981-.351a2.652 2.652 0 0 0-.755.06c-.254.05-.514.151-.782.302a.548.548 0 0 1-.38.086.539.539 0 0 1-.288-.163.618.618 0 0 1-.145-.307.64.64 0 0 1 .034-.351.645.645 0 0 1 .285-.302 3.696 3.696 0 0 1 1.086-.414 4.427 4.427 0 0 1 1.198-.087c.557.037 1.021.152 1.391.345.37.194.643.458.82.794.176.335.249.734.219 1.195-.02.308-.091.605-.213.891a3.502 3.502 0 0 1-.509.861 7.024 7.024 0 0 1-.843.905l-2.208 2.019.025-.374 3.231.212c.198.013.345.071.441.173.097.102.138.248.126.438-.013.191-.073.334-.183.43-.109.096-.263.137-.461.124l-4.044-.265zm7.814.623a3.629 3.629 0 0 1-.969-.207 3.545 3.545 0 0 1-.916-.513.517.517 0 0 1-.212-.301.682.682 0 0 1 .001-.342.687.687 0 0 1 .173-.287.474.474 0 0 1 .307-.134.56.56 0 0 1 .379.113 2.54 2.54 0 0 0 1.337.485c.425.028.79-.047 1.096-.226.306-.178.546-.461.718-.847.181-.393.29-.882.328-1.468l.055-.825.131.009a2.154 2.154 0 0 1-.425.932 1.924 1.924 0 0 1-.767.579 2.26 2.26 0 0 1-.991.145 2.256 2.256 0 0 1-1.167-.397 2.25 2.25 0 0 1-.755-.932 2.746 2.746 0 0 1-.212-1.306c.033-.505.168-.945.406-1.32.246-.374.57-.658.972-.852a2.597 2.597 0 0 1 1.353-.254c.645.043 1.181.229 1.608.559.427.329.739.791.935 1.386.197.586.269 1.287.216 2.1-.044.659-.159 1.241-.347 1.743a3.614 3.614 0 0 1-.732 1.244 2.791 2.791 0 0 1-1.108.733 3.406 3.406 0 0 1-1.414.183zm.67-3.985c.264.017.498-.026.704-.13.213-.112.382-.27.506-.475.124-.213.195-.458.214-.737a1.62 1.62 0 0 0-.116-.758 1.187 1.187 0 0 0-.44-.525 1.334 1.334 0 0 0-.681-.222 1.33 1.33 0 0 0-.704.131 1.274 1.274 0 0 0-.505.463 1.614 1.614 0 0 0-.214.737c-.018.278.02.531.116.758.103.22.249.399.439.537.19.13.417.204.681.221zm-7.76 57.864a5.264 5.264 0 0 1-1.222-.226 3.555 3.555 0 0 1-1.084-.528.733.733 0 0 1-.277-.347.598.598 0 0 1-.023-.354.62.62 0 0 1 .182-.287.56.56 0 0 1 .327-.125.746.746 0 0 1 .423.125c.291.179.574.313.848.403.275.082.559.132.852.149.323.019.596-.009.822-.084a1 1 0 0 0 .518-.367c.127-.169.198-.378.213-.627.022-.367-.087-.645-.326-.836-.231-.197-.581-.31-1.05-.338l-.704-.041c-.205-.012-.36-.073-.464-.182-.096-.108-.139-.254-.128-.438.01-.183.07-.323.179-.419.116-.097.276-.139.482-.126l.571.033c.279.017.52-.013.723-.09.203-.083.365-.206.485-.368s.187-.364.201-.606c.02-.338-.079-.601-.295-.79-.21-.189-.527-.296-.952-.321a2.908 2.908 0 0 0-.776.054 3.018 3.018 0 0 0-.801.295.601.601 0 0 1-.39.076.495.495 0 0 1-.289-.161.585.585 0 0 1-.105-.646.626.626 0 0 1 .293-.302 3.634 3.634 0 0 1 1.072-.401 4.24 4.24 0 0 1 1.186-.095c.535.031.989.142 1.36.333.372.184.647.436.827.755.188.313.269.685.243 1.118a2.015 2.015 0 0 1-.225.836c-.132.243-.31.445-.533.609a1.892 1.892 0 0 1-.791.328l.007-.132c.523.119.92.364 1.193.733.273.361.394.803.363 1.323a2.073 2.073 0 0 1-.41 1.168 2.197 2.197 0 0 1-1.014.723c-.428.152-.932.21-1.511.176zm5.17.194c-.19-.011-.338-.071-.442-.18a.625.625 0 0 1-.128-.449c.012-.191.071-.331.18-.42.115-.089.268-.128.459-.116l1.231.072.318-5.399.682.04-1.674.884a.642.642 0 0 1-.402.075.611.611 0 0 1-.299-.172.694.694 0 0 1-.146-.317.577.577 0 0 1 .042-.351.648.648 0 0 1 .304-.291l1.571-.823c.152-.079.303-.144.453-.194.151-.057.288-.082.413-.075.154.009.279.06.377.154.098.087.141.226.13.416l-.361 6.136 1.121.066c.191.011.335.067.432.169.104.102.151.248.139.438-.011.191-.074.334-.19.43-.109.097-.259.14-.449.128l-3.761-.221zm-7.386 48.813a5.228 5.228 0 0 1-1.183-.385 3.571 3.571 0 0 1-1.005-.664.745.745 0 0 1-.229-.381.605.605 0 0 1 .023-.354.623.623 0 0 1 .219-.261.553.553 0 0 1 .34-.081c.133.011.267.07.403.179.266.215.528.386.788.51.262.118.537.205.825.26.317.061.593.069.826.024a.998.998 0 0 0 .561-.295c.149-.151.247-.349.294-.594.069-.361-.002-.651-.214-.872-.203-.226-.535-.383-.997-.472l-.692-.133c-.202-.039-.347-.119-.436-.241-.082-.12-.105-.271-.07-.451.034-.18.112-.311.232-.393.128-.08.293-.1.494-.062l.563.109c.274.052.517.054.728.005a1.11 1.11 0 0 0 .529-.302c.14-.145.233-.336.279-.574.064-.332.001-.606-.19-.822-.183-.215-.483-.362-.902-.443a2.93 2.93 0 0 0-.775-.048 3 3 0 0 0-.833.188.599.599 0 0 1-.397.024.494.494 0 0 1-.265-.197.626.626 0 0 1-.108-.312.574.574 0 0 1 .088-.342.632.632 0 0 1 .331-.262c.349-.142.72-.228 1.115-.256a4.24 4.24 0 0 1 1.188.06c.527.101.961.271 1.304.509.345.231.585.516.722.857.145.334.176.714.094 1.14a2.012 2.012 0 0 1-.333.799 1.832 1.832 0 0 1-.607.534 1.892 1.892 0 0 1-.828.222l.025-.13c.502.186.864.48 1.086.882.223.394.286.848.187 1.36-.086.447-.272.815-.56 1.103a2.194 2.194 0 0 1-1.099.585c-.445.094-.952.086-1.521-.023zm6.485 1.248a5.288 5.288 0 0 1-1.182-.385 3.543 3.543 0 0 1-1.005-.664.747.747 0 0 1-.23-.381.6.6 0 0 1 .024-.355.624.624 0 0 1 .218-.26.556.556 0 0 1 .341-.081.75.75 0 0 1 .403.179c.265.215.528.386.788.51.261.118.536.205.825.26a2.2 2.2 0 0 0 .825.024c.233-.045.42-.143.562-.295.148-.151.246-.349.293-.595.07-.36-.001-.65-.213-.871-.204-.226-.536-.383-.997-.472l-.693-.133c-.202-.039-.347-.119-.436-.241-.081-.12-.105-.271-.07-.451.035-.18.112-.311.233-.393.127-.08.292-.101.494-.062l.562.109c.274.052.517.054.728.005.213-.056.39-.157.53-.302s.233-.336.278-.574c.064-.332.001-.606-.189-.822-.183-.215-.484-.362-.902-.443a2.937 2.937 0 0 0-.776-.048 3.024 3.024 0 0 0-.832.187.596.596 0 0 1-.398.025.497.497 0 0 1-.265-.197.589.589 0 0 1-.02-.654.632.632 0 0 1 .331-.262 3.622 3.622 0 0 1 1.115-.256 4.21 4.21 0 0 1 1.189.06c.526.101.961.271 1.304.509.344.231.585.516.721.857.145.334.177.714.095 1.139-.058.303-.17.57-.333.8a1.835 1.835 0 0 1-.608.534 1.912 1.912 0 0 1-.828.222l.025-.13c.503.186.865.48 1.087.882.223.394.285.848.187 1.36a2.08 2.08 0 0 1-.56 1.103 2.197 2.197 0 0 1-1.1.585c-.444.094-.951.086-1.521-.023zm-30.648 67.171a5.242 5.242 0 0 1-1.096-.587 3.547 3.547 0 0 1-.872-.831.738.738 0 0 1-.159-.415.607.607 0 0 1 .086-.345.616.616 0 0 1 .261-.218.553.553 0 0 1 .349-.019.75.75 0 0 1 .366.247c.222.259.451.473.685.641.237.162.492.296.766.401.302.116.571.173.808.17a.997.997 0 0 0 .605-.192c.173-.123.305-.3.394-.533.132-.343.113-.641-.056-.895-.161-.259-.46-.472-.899-.641l-.658-.253c-.191-.074-.32-.179-.386-.314-.059-.133-.056-.285.01-.457.066-.171.165-.286.298-.345.14-.056.306-.048.498.026l.534.206c.261.1.499.145.716.134.219-.018.411-.086.574-.204.164-.118.289-.291.376-.517.121-.315.107-.596-.042-.842-.142-.243-.412-.442-.81-.595a2.919 2.919 0 0 0-.755-.184 2.99 2.99 0 0 0-.852.038.603.603 0 0 1-.396-.046.499.499 0 0 1-.226-.241.63.63 0 0 1-.051-.326.58.58 0 0 1 .147-.321.636.636 0 0 1 .372-.2 3.621 3.621 0 0 1 1.142-.055c.396.034.783.124 1.16.269.5.192.898.436 1.194.731.298.287.484.611.559.97.083.355.047.734-.108 1.139-.111.287-.267.53-.469.728-.2.191-.43.33-.692.418a1.901 1.901 0 0 1-.854.073l.047-.124c.462.272.767.626.914 1.06.15.428.132.885-.055 1.371-.164.425-.413.755-.746.988a2.195 2.195 0 0 1-1.186.382c-.454.014-.951-.083-1.493-.292zm6.37 2.452a4.807 4.807 0 0 1-1.055-.572 3.836 3.836 0 0 1-.868-.841.713.713 0 0 1-.157-.391.695.695 0 0 1 .1-.351.62.62 0 0 1 .265-.228.518.518 0 0 1 .343-.034.688.688 0 0 1 .345.239c.198.242.413.45.644.626.231.176.495.32.789.433.288.111.555.155.8.131.245-.024.458-.107.639-.25.181-.143.318-.337.413-.584.148-.384.15-.737.007-1.06-.141-.329-.413-.572-.818-.727a1.958 1.958 0 0 0-1.429.004 1.529 1.529 0 0 1-.3.074.73.73 0 0 1-.336-.047c-.172-.066-.285-.161-.339-.284a.539.539 0 0 1 .008-.422l1.294-3.361c.071-.185.173-.307.306-.366.142-.063.306-.059.491.012l3.382 1.301c.185.071.307.174.366.306.069.129.069.282 0 .461-.066.171-.169.285-.308.341-.133.059-.292.053-.477-.018l-2.673-1.029-.886 2.303-.339-.13c.27-.172.578-.266.923-.283.344-.016.692.042 1.041.177.459.177.819.429 1.078.757.269.324.428.696.479 1.117.06.416.002.854-.175 1.313-.182.473-.449.85-.801 1.132-.35.274-.763.438-1.24.49-.467.049-.971-.031-1.512-.239zM276.718 794.866a5.246 5.246 0 0 1-1.238-.115 3.572 3.572 0 0 1-1.126-.428.738.738 0 0 1-.307-.321.597.597 0 0 1-.055-.351.623.623 0 0 1 .155-.303.565.565 0 0 1 .315-.153.756.756 0 0 1 .433.086c.306.152.599.261.88.325.281.058.569.082.862.073.323-.01.593-.063.811-.158.217-.095.378-.232.483-.411.112-.18.164-.395.156-.644-.011-.367-.144-.635-.399-.803-.248-.176-.607-.257-1.077-.243l-.704.022c-.206.007-.365-.04-.479-.139-.106-.1-.161-.241-.167-.425-.006-.183.041-.328.141-.434.107-.106.263-.162.468-.169l.573-.017a1.76 1.76 0 0 0 .711-.155c.195-.101.346-.238.45-.41.105-.173.154-.38.146-.622-.01-.338-.132-.591-.365-.76-.226-.169-.551-.247-.977-.234a2.882 2.882 0 0 0-1.539.488.594.594 0 0 1-.382.111.488.488 0 0 1-.301-.134.618.618 0 0 1-.175-.281.577.577 0 0 1 .012-.353.626.626 0 0 1 .265-.327 3.601 3.601 0 0 1 1.031-.495 4.22 4.22 0 0 1 1.173-.202c.536-.017.997.053 1.384.21.387.15.684.376.892.678.215.295.329.658.342 1.091.01.309-.04.593-.149.854a1.833 1.833 0 0 1-1.235 1.052l-.004-.132c.531.071.949.279 1.253.622.305.336.465.764.481 1.285.014.455-.087.855-.304 1.2s-.532.615-.945.812c-.413.189-.909.292-1.489.31zm5.346-.188a.678.678 0 0 1-.422-.108.482.482 0 0 1-.209-.313.748.748 0 0 1 .085-.465l3.131-6.357.015.484-3.567.111c-.198.006-.354-.04-.467-.139-.106-.1-.162-.242-.168-.425-.006-.191.041-.339.141-.445.107-.106.259-.163.457-.169l4.261-.132a.737.737 0 0 1 .489.139c.128.099.195.244.201.435a1.29 1.29 0 0 1-.053.431 3.35 3.35 0 0 1-.164.391l-2.941 6.075a.789.789 0 0 1-.308.362.95.95 0 0 1-.481.125zm-88.19-13.749a5.285 5.285 0 0 1-1.127-.525 3.54 3.54 0 0 1-.917-.782.737.737 0 0 1-.182-.405.598.598 0 0 1 .066-.349.63.63 0 0 1 .248-.233.558.558 0 0 1 .348-.038.744.744 0 0 1 .379.226c.237.246.477.447.72.602.245.149.508.268.787.358.308.099.58.14.817.124.237-.017.434-.092.593-.226.166-.131.287-.316.364-.554.112-.349.077-.646-.107-.89-.174-.249-.485-.446-.933-.59l-.671-.216c-.195-.063-.33-.16-.403-.292-.066-.129-.072-.281-.015-.456.056-.175.149-.295.278-.362.137-.064.303-.064.498-.001l.545.175c.266.086.507.117.722.094.218-.03.406-.109.562-.236a1.11 1.11 0 0 0 .347-.536c.103-.322.074-.601-.089-.839-.156-.235-.436-.418-.842-.549a2.95 2.95 0 0 0-.764-.142 3.02 3.02 0 0 0-.849.086.6.6 0 0 1-.397-.024.497.497 0 0 1-.24-.228.623.623 0 0 1-.069-.323.582.582 0 0 1 .129-.329.63.63 0 0 1 .36-.219 3.638 3.638 0 0 1 1.138-.12c.397.012.788.08 1.172.204.51.164.921.385 1.233.663.314.271.518.584.612.938.104.349.089.73-.044 1.143a2.014 2.014 0 0 1-.427.753 1.826 1.826 0 0 1-1.517.577l.041-.126c.476.246.8.581.972 1.007.173.418.18.876.021 1.372-.14.433-.37.776-.69 1.028-.32.252-.708.401-1.162.447-.453.04-.955-.03-1.507-.207zm5.857 1.885a3.592 3.592 0 0 1-.89-.436 3.527 3.527 0 0 1-.763-.721.514.514 0 0 1-.132-.343.69.69 0 0 1 .083-.332.688.688 0 0 1 .238-.236.473.473 0 0 1 .331-.055.56.56 0 0 1 .34.202 2.554 2.554 0 0 0 1.178.796c.406.13.778.146 1.119.048.34-.099.641-.315.902-.647.271-.337.496-.786.676-1.345l.253-.786.126.04a2.152 2.152 0 0 1-.639.801c-.265.2-.56.325-.885.375a2.255 2.255 0 0 1-.997-.101 2.256 2.256 0 0 1-1.035-.669 2.247 2.247 0 0 1-.505-1.088 2.742 2.742 0 0 1 .112-1.318c.155-.483.393-.876.715-1.181.329-.303.713-.5 1.151-.59.44-.098.898-.07 1.373.083.615.198 1.09.509 1.424.933.334.424.524.948.57 1.572.048.617-.053 1.314-.303 2.09-.202.629-.456 1.164-.76 1.606-.295.437-.633.78-1.014 1.028-.38.247-.798.395-1.252.441a3.389 3.389 0 0 1-1.416-.167zm1.62-3.702c.251.081.489.096.714.045a1.25 1.25 0 0 0 .606-.337c.173-.176.302-.397.387-.662.088-.273.112-.527.072-.764a1.188 1.188 0 0 0-.298-.617 1.34 1.34 0 0 0-.607-.38 1.338 1.338 0 0 0-.715-.045c-.224.051-.425.16-.602.327a1.61 1.61 0 0 0-.387.662c-.086.266-.11.52-.072.764.046.238.145.447.295.627.153.173.355.299.607.38zm-81.834-41.531c-.17-.14-.266-.295-.287-.465-.017-.176.047-.352.192-.527l.546-.663-2.099-1.731c-.175-.145-.286-.299-.333-.461-.041-.158.003-.316.134-.475.075-.09.179-.171.313-.241a3.97 3.97 0 0 1 .614-.207l5.111-1.453c.177-.054.34-.072.488-.055a.773.773 0 0 1 .408.18.66.66 0 0 1 .253.437c.027.165-.037.34-.192.527l-2.866 3.475.416.344c.164.135.254.275.267.42.025.144-.024.289-.145.437-.122.147-.258.225-.408.234-.14.009-.292-.055-.457-.19l-.416-.344-.547.663c-.145.176-.305.272-.481.289-.171.011-.341-.054-.511-.194zm1.194-2.556l2.187-2.651.246.204-4.43 1.285.238-.288 1.759 1.45zm1.773 4.889c-.147-.121-.231-.256-.25-.406a.62.62 0 0 1 .161-.438c.122-.147.252-.225.393-.233.145-.004.292.055.439.177l.952.785 3.441-4.172.527.434-1.873-.274a.635.635 0 0 1-.369-.176.614.614 0 0 1-.14-.315.705.705 0 0 1 .069-.343.582.582 0 0 1 .241-.258.647.647 0 0 1 .417-.056l1.755.262c.169.026.329.063.48.111a.984.984 0 0 1 .377.183c.119.098.19.214.214.347.027.128-.019.265-.141.412l-3.911 4.742.867.715c.147.121.23.251.249.39.024.144-.025.29-.146.437-.122.147-.257.226-.408.235-.145.014-.291-.04-.438-.162l-2.906-2.397zm-55.756-70.647c-.121-.184-.167-.361-.137-.53.036-.172.149-.321.34-.446l.718-.471-1.493-2.275c-.125-.191-.186-.37-.182-.539.007-.163.097-.301.269-.414.098-.064.221-.11.37-.138.153-.021.37-.026.648-.016l5.312.124c.185.002.346.033.482.093s.248.157.337.292c.104.16.142.324.112.493-.023.165-.137.314-.34.447l-3.766 2.471.296.451c.117.178.16.338.131.481-.02.144-.109.269-.268.373-.16.105-.313.14-.46.104-.136-.034-.262-.139-.379-.317l-.296-.452-.718.472c-.19.124-.372.169-.545.133-.167-.04-.31-.152-.431-.336zm1.897-2.088l2.873-1.885.175.267-4.612-.083.313-.205 1.25 1.906zm.94 6.452a5.23 5.23 0 0 1-.548-1.116 3.546 3.546 0 0 1-.224-1.184c0-.175.037-.318.114-.429a.603.603 0 0 1 .27-.231.628.628 0 0 1 .34-.025.56.56 0 0 1 .294.189c.085.102.136.24.153.413.03.341.091.648.183.921.098.27.227.527.388.773.177.27.363.473.558.609a.997.997 0 0 0 .603.197 1.13 1.13 0 0 0 .631-.203c.307-.202.466-.455.476-.76.02-.304-.098-.652-.356-1.045l-.386-.589c-.113-.172-.157-.332-.131-.481a.577.577 0 0 1 .274-.364c.154-.101.302-.137.444-.107.146.036.276.139.389.311l.314.479c.153.234.32.409.503.526.189.114.384.17.585.17a1.11 1.11 0 0 0 .607-.201c.282-.185.435-.421.457-.708.027-.281-.077-.599-.31-.956a2.937 2.937 0 0 0-.506-.59 2.998 2.998 0 0 0-.715-.466.604.604 0 0 1-.294-.268.499.499 0 0 1-.044-.328.631.631 0 0 1 .15-.295.584.584 0 0 1 .306-.175.638.638 0 0 1 .418.055c.345.152.666.359.961.621.302.259.563.558.785.895.294.448.475.878.543 1.29.075.408.037.78-.112 1.115-.139.337-.39.624-.752.862a2.023 2.023 0 0 1-.806.318 1.849 1.849 0 0 1-.806-.064 1.896 1.896 0 0 1-.736-.44l.11-.072c.217.49.259.955.125 1.394-.127.435-.41.795-.845 1.081-.38.25-.775.372-1.182.367a2.2 2.2 0 0 1-1.186-.381c-.376-.253-.724-.623-1.042-1.108zM40.84 614.618c-.216.049-.397.03-.545-.056-.15-.094-.25-.252-.3-.474l-.19-.838-2.653.604c-.222.051-.412.045-.569-.017-.15-.064-.248-.196-.294-.396a1.004 1.004 0 0 1 0-.396c.034-.151.105-.355.211-.613l1.972-4.934c.066-.173.15-.313.255-.419a.771.771 0 0 1 .392-.214.665.665 0 0 1 .5.067c.147.08.247.238.3.474l1 4.392.527-.119c.208-.048.373-.033.496.045.129.068.214.196.257.382.042.186.021.342-.064.466-.079.116-.222.198-.43.245l-.526.12.191.838c.05.221.029.407-.065.557-.096.142-.251.237-.466.286zm-1.295-2.506l-.763-3.351.312-.071-1.689 4.293-.083-.365 2.223-.506zm7.734 1.04c-.215.049-.396.03-.544-.057-.15-.094-.25-.252-.3-.474l-.19-.838-2.654.604c-.221.051-.411.045-.568-.017-.15-.064-.248-.196-.294-.396a1.004 1.004 0 0 1 0-.396 3.95 3.95 0 0 1 .211-.612l1.971-4.934c.066-.173.151-.313.255-.42a.777.777 0 0 1 .392-.213.665.665 0 0 1 .501.066c.146.08.246.238.3.474l1 4.393.527-.12c.207-.047.373-.032.496.045.128.069.214.196.256.382.043.186.022.342-.063.467-.079.115-.222.197-.43.244l-.526.12.19.838c.051.222.03.408-.065.557-.095.142-.25.238-.465.287zm-1.294-2.507l-.763-3.351.311-.071-1.688 4.293-.083-.365 2.223-.506zm48.233 9.496c-.215.049-.397.03-.544-.057-.15-.094-.25-.252-.3-.474l-.191-.838-2.653.605c-.222.05-.411.044-.569-.018-.15-.063-.247-.196-.293-.396a.999.999 0 0 1 0-.395c.034-.151.104-.355.21-.613l1.972-4.934c.066-.173.151-.313.255-.42a.777.777 0 0 1 .392-.213.66.66 0 0 1 .5.067c.147.079.247.237.3.473l1.001 4.393.527-.12c.207-.047.373-.032.496.045.128.069.214.196.256.382.043.187.021.342-.063.467-.08.116-.222.197-.43.244l-.526.12.19.838c.051.222.03.408-.065.557-.095.142-.25.238-.465.287zm-1.294-2.507l-.764-3.351.312-.071-1.688 4.293-.083-.365 2.223-.506zm6.804 1.274c-.623.142-1.19.117-1.7-.075-.506-.202-.937-.555-1.293-1.062-.356-.506-.625-1.156-.806-1.951-.147-.645-.205-1.23-.174-1.757a3.743 3.743 0 0 1 .356-1.414c.2-.407.481-.746.841-1.016a3.478 3.478 0 0 1 1.314-.582c.315-.071.645-.094.99-.067.35.018.69.091 1.021.219a.516.516 0 0 1 .289.228c.062.107.092.22.089.341a.615.615 0 0 1-.084.325.495.495 0 0 1-.245.213.613.613 0 0 1-.398-.011 2.922 2.922 0 0 0-.756-.144 2.567 2.567 0 0 0-.663.061c-.416.095-.745.271-.987.53-.242.258-.395.598-.457 1.019-.055.419-.017.919.115 1.499l.184.805-.129.03a2.276 2.276 0 0 1 .142-1.016 1.84 1.84 0 0 1 .572-.762c.253-.209.556-.353.906-.433a2.222 2.222 0 0 1 1.231.047c.384.131.714.357.991.679.276.321.468.717.576 1.19.111.487.103.948-.024 1.384a2.374 2.374 0 0 1-.675 1.102c-.324.3-.732.506-1.226.618zm-.325-1.078c.258-.059.47-.167.638-.326.174-.16.291-.356.351-.588a1.645 1.645 0 0 0-.005-.767 1.623 1.623 0 0 0-.327-.694 1.19 1.19 0 0 0-.572-.378 1.27 1.27 0 0 0-.719-.028 1.279 1.279 0 0 0-.635.336 1.286 1.286 0 0 0-.351.589 1.61 1.61 0 0 0 .005.767c.062.272.171.503.328.693.161.182.352.308.571.378.22.071.458.077.716.018zm27.662 51.611c-.148-.163-.221-.33-.218-.502.008-.176.096-.341.264-.494l.636-.579-1.832-2.011c-.154-.168-.242-.336-.265-.504-.019-.162.048-.312.2-.45.087-.079.202-.144.345-.195.147-.045.36-.084.637-.118l5.265-.713c.183-.028.346-.023.49.015a.77.77 0 0 1 .379.236.665.665 0 0 1 .189.469c.002.166-.086.331-.265.494l-3.331 3.034.364.399c.143.157.211.308.205.454.003.145-.066.282-.207.411s-.287.187-.437.174c-.14-.011-.281-.096-.425-.253l-.363-.399-.635.578c-.168.153-.341.226-.517.218-.171-.013-.331-.101-.479-.264zm1.545-2.361l2.541-2.314.215.236-4.568.645.277-.253 1.535 1.686zm2.092 6.387a4.815 4.815 0 0 1-.687-.983 3.858 3.858 0 0 1-.399-1.142.71.71 0 0 1 .035-.419.693.693 0 0 1 .247-.269.626.626 0 0 1 .339-.086.518.518 0 0 1 .322.124.682.682 0 0 1 .201.368 3.8 3.8 0 0 0 .296.849c.128.26.298.507.511.741.207.228.426.386.656.475.23.089.457.11.683.063a1.34 1.34 0 0 0 .632-.337c.304-.277.464-.592.481-.944.021-.358-.113-.697-.405-1.017a1.961 1.961 0 0 0-.55-.424 1.875 1.875 0 0 0-.73-.213 1.446 1.446 0 0 1-.301-.069.725.725 0 0 1-.28-.192c-.123-.136-.182-.271-.176-.406a.539.539 0 0 1 .197-.373l2.663-2.425c.147-.134.293-.197.438-.19.155.007.3.084.433.231l2.44 2.679c.134.146.197.292.191.438.003.145-.066.282-.207.411a.558.558 0 0 1-.429.167c-.145-.007-.284-.083-.418-.23l-1.928-2.117-1.824 1.661-.245-.269c.319-.032.636.022.952.162.315.139.599.347.851.624.332.364.54.751.625 1.16.095.41.071.814-.073 1.213-.133.399-.381.764-.745 1.096a2.61 2.61 0 0 1-1.223.652c-.436.089-.878.05-1.328-.117-.439-.166-.854-.463-1.245-.892zm46.491 39.768c-.197-.099-.325-.229-.384-.39-.055-.168-.032-.353.07-.557l.386-.767-2.432-1.221c-.203-.102-.346-.227-.428-.375-.075-.144-.067-.309.025-.492.053-.105.137-.207.252-.305a4.01 4.01 0 0 1 .552-.339l4.659-2.555a1.22 1.22 0 0 1 .463-.162.774.774 0 0 1 .439.085c.17.085.285.209.344.37.062.154.039.34-.07.556l-2.021 4.027.483.242c.19.095.308.212.354.35.055.135.04.287-.045.458-.086.171-.201.277-.345.32-.135.039-.298.011-.488-.085l-.482-.242-.386.768c-.102.203-.237.333-.404.388-.165.049-.345.025-.542-.074zm.595-2.758l1.542-3.071.285.143-4.032 2.24.168-.335 2.037 1.023zm2.591 4.258c-.21-.105-.341-.229-.394-.37-.042-.145-.017-.309.075-.492a.735.735 0 0 1 .252-.281 1.95 1.95 0 0 1 .424-.206l3.036-1.114c.46-.163.819-.34 1.079-.53.263-.197.461-.426.592-.689.165-.328.185-.63.061-.906-.118-.273-.374-.508-.768-.706a2.623 2.623 0 0 0-.718-.237 2.598 2.598 0 0 0-.838-.026.554.554 0 0 1-.384-.07.529.529 0 0 1-.201-.261.652.652 0 0 1 .153-.65.648.648 0 0 1 .38-.167 3.679 3.679 0 0 1 1.162.041c.404.08.783.208 1.138.386.498.251.88.537 1.146.859.265.322.414.672.447 1.05.032.378-.056.773-.263 1.187-.139.275-.32.521-.543.738-.217.22-.485.418-.804.595-.312.18-.689.348-1.129.505l-2.819 1.001.168-.335 2.894 1.453c.177.089.291.199.34.33.049.132.03.283-.055.453-.086.171-.198.279-.336.325-.138.046-.295.024-.472-.065l-3.623-1.818zm50.07 17.441c-.219-.027-.383-.107-.492-.239-.109-.139-.149-.322-.121-.548l.106-.852-2.7-.336c-.226-.028-.402-.098-.528-.21-.12-.111-.167-.268-.142-.472.015-.117.06-.241.135-.372.083-.13.219-.299.407-.505l3.535-3.967c.121-.14.248-.243.382-.307a.779.779 0 0 1 .441-.068c.19.024.339.102.448.234.111.124.151.307.121.548l-.556 4.47.536.067c.211.026.362.096.451.211.097.108.134.257.111.447-.024.189-.096.328-.218.417-.114.082-.277.11-.488.083l-.536-.066-.106.852c-.028.226-.111.393-.251.502-.138.101-.317.138-.535.111zm-.363-2.798l.424-3.41.317.039-3.05 3.462.047-.372 2.262.281zm5.679 3.481c-.911-.113-1.564-.542-1.96-1.287-.395-.752-.513-1.766-.355-3.041.107-.86.303-1.568.586-2.125.292-.563.665-.968 1.117-1.215.46-.246.992-.332 1.597-.257.918.114 1.572.536 1.963 1.265.397.731.516 1.737.357 3.019-.106.853-.305 1.564-.598 2.135-.285.564-.654.977-1.109 1.238-.453.255-.986.344-1.598.268zm.143-1.148c.495.062.888-.122 1.178-.553.298-.429.507-1.132.629-2.108.121-.977.089-1.698-.097-2.165-.178-.474-.515-.741-1.011-.803-.488-.061-.88.116-1.176.531-.294.407-.502 1.099-.624 2.076-.121.976-.09 1.709.093 2.198.184.489.519.763 1.008.824zm197.447-123.936a5.22 5.22 0 0 1-1.206-.301 3.54 3.54 0 0 1-1.049-.593.732.732 0 0 1-.256-.364.604.604 0 0 1-.001-.355.626.626 0 0 1 .199-.275.56.56 0 0 1 .335-.104.741.741 0 0 1 .414.15c.28.196.554.348.822.454.269.099.549.167.841.202.321.039.596.028.825-.034.229-.061.409-.172.54-.334a1.13 1.13 0 0 0 .251-.613c.044-.364-.047-.649-.274-.854-.218-.211-.561-.345-1.027-.402l-.7-.084c-.204-.025-.355-.095-.452-.21-.09-.114-.123-.263-.101-.445.022-.182.09-.318.204-.408.122-.089.285-.121.489-.096l.569.069c.277.033.519.018.726-.046a1.11 1.11 0 0 0 .507-.338 1.1 1.1 0 0 0 .238-.592c.041-.336-.041-.605-.246-.807-.198-.201-.508-.328-.931-.379a2.964 2.964 0 0 0-.777.006c-.24.03-.513.112-.818.245a.589.589 0 0 1-.394.052.488.488 0 0 1-.278-.177.626.626 0 0 1-.13-.305.58.58 0 0 1 .064-.347.638.638 0 0 1 .312-.284 3.665 3.665 0 0 1 1.094-.334 4.232 4.232 0 0 1 1.19-.022c.532.064.978.203 1.337.417.359.206.619.474.779.804.168.324.226.7.174 1.13-.037.307-.129.58-.277.821a1.816 1.816 0 0 1-.569.575 1.882 1.882 0 0 1-.81.279l.016-.131c.514.151.896.419 1.145.804.25.378.344.826.282 1.343a2.084 2.084 0 0 1-.482 1.14 2.203 2.203 0 0 1-1.056.66c-.437.125-.943.153-1.519.083zm6.71.811c-.912-.11-1.566-.537-1.965-1.28-.397-.751-.519-1.764-.364-3.04.104-.86.297-1.569.579-2.127.29-.564.66-.97 1.112-1.219.459-.247.991-.335 1.596-.261.919.111 1.574.53 1.967 1.258.4.729.523 1.735.368 3.018-.104.853-.301 1.565-.592 2.136-.282.565-.651.979-1.104 1.243-.453.255-.985.346-1.597.272zm.138-1.148c.496.06.888-.125 1.177-.556.296-.431.503-1.134.622-2.111.118-.977.083-1.699-.105-2.165-.179-.473-.517-.739-1.013-.799-.488-.059-.879.119-1.174.535-.293.408-.499 1.1-.617 2.077-.118.977-.085 1.71.1 2.198s.522.762 1.01.821zm8.556-51.571c-.235-.007-.406-.063-.513-.169-.1-.113-.147-.272-.141-.478a.726.726 0 0 1 .109-.36c.069-.116.168-.238.297-.367l2.278-2.294c.348-.343.599-.656.753-.938.155-.29.237-.581.245-.875.01-.367-.099-.649-.329-.846-.222-.198-.554-.302-.994-.315a2.66 2.66 0 0 0-.752.09 2.59 2.59 0 0 0-.769.331.556.556 0 0 1-.378.1.544.544 0 0 1-.293-.152.627.627 0 0 1-.157-.302.64.64 0 0 1 .021-.352.648.648 0 0 1 .273-.312 3.677 3.677 0 0 1 1.071-.455 4.426 4.426 0 0 1 1.193-.132c.558.016 1.026.113 1.403.293.377.179.66.433.849.762.189.328.277.723.264 1.186a2.693 2.693 0 0 1-.179.898 3.497 3.497 0 0 1-.476.88 7.023 7.023 0 0 1-.808.936l-2.13 2.1.01-.374 3.237.09c.198.006.347.057.448.156.1.098.147.243.142.433-.006.191-.061.337-.167.437-.105.099-.257.147-.455.141l-4.052-.112zm8.437.344c-.601-.016-1.117-.115-1.545-.296-.421-.188-.744-.451-.97-.787-.218-.337-.321-.737-.308-1.199.01-.367.093-.688.247-.963.162-.282.378-.507.647-.676a2.08 2.08 0 0 1 .912-.305l-.006.231a1.977 1.977 0 0 1-1.116-.703 1.96 1.96 0 0 1-.383-1.267c.012-.44.132-.812.361-1.114.229-.309.548-.539.956-.69.408-.157.884-.228 1.427-.213.551.015 1.026.113 1.425.293.399.172.704.42.916.741.211.315.311.692.299 1.133a2.02 2.02 0 0 1-.223.886 1.744 1.744 0 0 1-.558.657 1.885 1.885 0 0 1-.814.33l.006-.221c.512.088.921.316 1.226.685.313.361.462.813.447 1.356-.013.463-.141.856-.385 1.18-.237.324-.574.568-1.012.732-.431.157-.947.227-1.549.21zm.031-1.101c.521.015.917-.073 1.186-.264.27-.199.411-.496.422-.892.011-.397-.113-.697-.372-.903-.258-.206-.648-.316-1.17-.33-.513-.014-.909.074-1.186.264-.27.191-.41.485-.421.881-.011.397.113.701.371.914.266.206.656.316 1.17.33zm.097-3.49c.294.008.544-.029.752-.111.209-.09.37-.222.485-.395.115-.173.176-.377.182-.612.01-.352-.107-.631-.351-.836-.236-.212-.571-.324-1.004-.336-.433-.012-.774.081-1.022.28-.248.191-.376.463-.386.816-.01.359.103.645.34.857.236.213.571.325 1.004.337zm2.36-36.281c-.235 0-.407-.052-.517-.155-.102-.11-.153-.268-.153-.474a.73.73 0 0 1 .1-.363c.066-.118.162-.242.287-.374l2.22-2.352c.338-.352.581-.671.729-.957.147-.293.222-.587.222-.88.001-.367-.116-.647-.35-.838-.228-.192-.561-.288-1.002-.289a2.655 2.655 0 0 0-.749.108c-.25.066-.504.183-.761.351a.55.55 0 0 1-.375.109.544.544 0 0 1-.297-.143.633.633 0 0 1-.164-.298.643.643 0 0 1 .011-.353.65.65 0 0 1 .266-.319 3.683 3.683 0 0 1 1.058-.482 4.431 4.431 0 0 1 1.19-.162c.558.001 1.028.087 1.409.256.382.17.671.417.869.74.197.324.295.717.294 1.18 0 .308-.052.609-.156.903a3.51 3.51 0 0 1-.454.891c-.199.3-.46.619-.784.956l-2.076 2.154.001-.374 3.239.007c.198.001.348.049.451.144.102.096.153.239.153.43s-.052.338-.155.441c-.103.102-.254.153-.452.153l-4.054-.01zm8.73.131c-.638-.002-1.185-.153-1.64-.456-.447-.309-.787-.75-1.021-1.324-.234-.573-.349-1.267-.348-2.082.002-.661.077-1.245.225-1.751.155-.514.376-.947.664-1.298a2.801 2.801 0 0 1 1.048-.802 3.47 3.47 0 0 1 1.41-.272c.324.001.65.053.98.156.338.097.653.244.947.443.117.074.194.17.23.287.037.118.04.235.01.353a.608.608 0 0 1-.154.297.507.507 0 0 1-.287.153.614.614 0 0 1-.385-.1 2.89 2.89 0 0 0-.705-.31 2.54 2.54 0 0 0-.66-.089c-.426-.001-.786.097-1.08.294-.295.198-.519.495-.674.891-.148.396-.223.892-.224 1.486l-.002.827-.132-.001c.059-.374.181-.693.365-.957a1.85 1.85 0 0 1 .729-.615c.294-.146.621-.219.981-.218.448.001.844.108 1.188.322.345.214.616.508.813.883.198.375.296.805.295 1.289-.001.5-.112.947-.334 1.343a2.368 2.368 0 0 1-.905.923c-.382.22-.827.329-1.334.328zm-.074-1.124a1.33 1.33 0 0 0 .694-.174c.206-.117.364-.282.475-.495.111-.22.166-.47.167-.749a1.612 1.612 0 0 0-.163-.749 1.193 1.193 0 0 0-.473-.497 1.28 1.28 0 0 0-.693-.189c-.265 0-.496.062-.695.186a1.286 1.286 0 0 0-.475.495c-.11.212-.166.462-.167.748 0 .279.054.529.164.75.117.213.274.378.472.496.198.118.43.178.694.178zm-9.287-61.97c-.234.006-.408-.04-.521-.14-.106-.107-.162-.264-.167-.469a.723.723 0 0 1 .089-.366c.063-.12.155-.247.276-.383l2.149-2.416c.328-.362.561-.688.7-.978.139-.298.204-.593.196-.887-.01-.367-.135-.643-.375-.827-.233-.185-.569-.271-1.01-.259-.249.007-.498.05-.745.13a2.62 2.62 0 0 0-.751.374.555.555 0 0 1-.371.12.543.543 0 0 1-.301-.135.622.622 0 0 1-.173-.293.642.642 0 0 1 .001-.353.649.649 0 0 1 .256-.326 3.61 3.61 0 0 1 1.043-.513 4.441 4.441 0 0 1 1.185-.198c.558-.015 1.03.056 1.416.215.386.158.683.396.89.714.207.317.317.707.33 1.17.008.308-.035.61-.13.907-.087.296-.23.597-.427.904-.19.306-.442.633-.755.979l-2.011 2.215-.011-.375 3.237-.088c.199-.005.35.038.456.131.105.092.16.234.166.425.005.191-.043.339-.143.445-.099.105-.249.161-.447.166l-4.052.111zm9.688-.177c-.22.006-.395-.048-.523-.162-.128-.121-.195-.296-.201-.523l-.024-.859-2.719.074c-.228.007-.413-.036-.555-.128-.134-.092-.205-.24-.21-.446a1.008 1.008 0 0 1 .077-.388c.063-.141.171-.327.327-.559l2.897-4.454a1.22 1.22 0 0 1 .332-.362.767.767 0 0 1 .426-.132.66.66 0 0 1 .478.163c.128.106.195.281.202.523l.123 4.503.539-.014c.213-.006.372.041.478.141.113.092.172.234.177.425.005.191-.046.339-.153.445-.1.098-.257.15-.47.156l-.539.015.023.858c.006.228-.051.406-.173.534-.121.121-.292.184-.512.19zm-.78-2.711l-.093-3.435.319-.009-2.494 3.881-.011-.375 2.279-.062zm-9.001-63.864c-.235-.01-.405-.069-.51-.177-.098-.114-.143-.274-.134-.48a.729.729 0 0 1 .116-.358c.071-.115.172-.235.302-.362l2.317-2.256c.353-.337.609-.646.768-.925.16-.287.247-.577.26-.871.016-.367-.089-.651-.315-.852-.219-.201-.549-.311-.989-.33-.249-.011-.5.014-.753.076a2.61 2.61 0 0 0-.775.319.551.551 0 0 1-.379.093.536.536 0 0 1-.291-.156.641.641 0 0 1-.125-.656.642.642 0 0 1 .278-.307 3.657 3.657 0 0 1 1.078-.438c.401-.092.8-.13 1.196-.112.557.025 1.023.13 1.397.316.374.185.653.444.837.776.183.331.265.728.244 1.19a2.696 2.696 0 0 1-.194.896 3.538 3.538 0 0 1-.49.871 7.005 7.005 0 0 1-.824.923l-2.165 2.064.017-.374 3.235.144c.198.009.346.063.445.163.098.1.143.245.135.436-.009.191-.067.335-.174.433-.107.098-.26.143-.458.134l-4.049-.18zm6.598.293c-.235-.01-.405-.069-.511-.177-.097-.114-.142-.274-.133-.48a.729.729 0 0 1 .116-.358c.071-.115.172-.235.302-.362l2.317-2.256c.353-.337.609-.646.768-.925.16-.287.247-.577.26-.871.016-.367-.089-.651-.315-.852-.219-.201-.549-.311-.989-.33a2.653 2.653 0 0 0-.753.076 2.61 2.61 0 0 0-.775.319.551.551 0 0 1-.379.093.536.536 0 0 1-.291-.156.641.641 0 0 1-.125-.656.637.637 0 0 1 .278-.307 3.657 3.657 0 0 1 1.078-.438c.401-.092.8-.13 1.196-.112.557.025 1.023.13 1.397.316.374.185.653.444.837.776.183.331.265.728.244 1.19a2.696 2.696 0 0 1-.194.896 3.538 3.538 0 0 1-.49.871 7.005 7.005 0 0 1-.824.923l-2.165 2.064.017-.374 3.235.144c.198.009.346.063.445.163.098.1.143.245.135.436-.009.191-.067.335-.174.433-.107.098-.26.143-.458.134l-4.049-.18zm-12.532-54.284c-.235.015-.41-.025-.527-.12-.109-.103-.171-.258-.184-.463a.717.717 0 0 1 .075-.369c.058-.121.145-.252.261-.392l2.056-2.497c.314-.373.535-.708.662-1.003.128-.303.182-.601.163-.894-.024-.366-.16-.637-.406-.812-.24-.176-.58-.25-1.019-.221a2.664 2.664 0 0 0-.741.159 2.61 2.61 0 0 0-.735.401.55.55 0 0 1-.366.135.546.546 0 0 1-.307-.124.633.633 0 0 1-.184-.286.638.638 0 0 1-.012-.352.641.641 0 0 1 .243-.336 3.642 3.642 0 0 1 1.024-.553c.388-.136.78-.216 1.176-.242.557-.037 1.031.017 1.423.161.392.143.698.37.917.679.219.31.343.695.373 1.157.02.308-.011.611-.095.911a3.543 3.543 0 0 1-.392.92 6.949 6.949 0 0 1-.718 1.007l-1.925 2.289-.025-.373 3.232-.211c.197-.013.351.024.46.113.108.089.169.228.181.419.013.19-.029.34-.125.449-.096.11-.242.171-.44.184l-4.045.264zm8.433-.441c-.916.06-1.638-.239-2.167-.896-.529-.664-.835-1.638-.919-2.92-.057-.865.002-1.597.176-2.197.181-.608.471-1.076.869-1.403.405-.329.912-.513 1.52-.552.923-.061 1.645.231 2.166.874.527.642.833 1.608.918 2.898.056.857-.007 1.593-.187 2.209-.174.607-.459 1.082-.856 1.424-.398.335-.904.523-1.52.563zm-.075-1.154c.498-.032.849-.287 1.053-.764.212-.478.286-1.207.222-2.189-.065-.982-.232-1.685-.502-2.109-.264-.431-.645-.631-1.143-.598-.491.032-.843.279-1.056.742-.213.455-.287 1.174-.223 2.156.064.982.232 1.696.504 2.142.272.445.654.652 1.145.62zm-9.441-48.851a.635.635 0 0 1-.455-.141.621.621 0 0 1-.166-.437c-.006-.19.042-.335.142-.433.108-.099.257-.15.448-.156l1.233-.033-.147-5.406.682-.019-1.592 1.024a.636.636 0 0 1-.393.11.621.621 0 0 1-.313-.146.695.695 0 0 1-.173-.304.577.577 0 0 1 .012-.353.645.645 0 0 1 .278-.316l1.494-.955a3.17 3.17 0 0 1 .435-.232.995.995 0 0 1 .405-.11.57.57 0 0 1 .389.121c.105.078.16.213.165.403l.167 6.144 1.123-.03c.191-.005.339.038.445.131.112.092.171.234.176.425.006.191-.045.339-.153.445-.1.105-.245.161-.436.166l-3.766.102zm8.191-.112c-.602.016-1.122-.054-1.559-.211-.431-.165-.768-.409-1.012-.733-.237-.324-.361-.718-.374-1.18-.01-.367.055-.692.194-.975.146-.29.349-.527.609-.711.259-.183.557-.301.894-.355l.006.232a1.977 1.977 0 0 1-1.153-.641 1.963 1.963 0 0 1-.452-1.244c-.012-.44.088-.818.3-1.132.211-.322.517-.569.916-.741.399-.18.87-.277 1.413-.292.551-.015 1.03.056 1.439.214.408.151.726.381.955.69.229.303.349.674.361 1.114.009.323-.049.623-.174.898a1.726 1.726 0 0 1-.521.686 1.867 1.867 0 0 1-.794.374l-.006-.22c.516.059.936.265 1.262.616.332.343.506.787.521 1.33.012.462-.094.862-.32 1.199-.219.336-.542.598-.971.786-.421.181-.932.279-1.534.296zm-.03-1.102c.521-.014.911-.123 1.17-.329.259-.213.383-.517.372-.914-.011-.396-.151-.69-.421-.881-.27-.191-.665-.279-1.186-.265-.514.014-.904.124-1.17.33-.259.205-.383.506-.372.902.011.397.151.694.421.892.277.191.672.279 1.186.265zm-.095-3.49c.293-.008.542-.059.745-.152a1.07 1.07 0 0 0 .611-1.042c-.01-.352-.142-.624-.397-.815-.248-.199-.588-.293-1.022-.281-.433.012-.767.124-1.004.336-.237.205-.351.483-.341.836.01.359.139.639.386.837.248.199.589.293 1.022.281zm-19.769-48.776c-.186.042-.345.026-.475-.05a.62.62 0 0 1-.248-.395c-.042-.187-.024-.338.055-.453.086-.118.222-.198.408-.24l1.203-.274-1.201-5.273.666-.152-1.361 1.315a.637.637 0 0 1-.364.185.611.611 0 0 1-.335-.082.699.699 0 0 1-.23-.264.577.577 0 0 1-.057-.348.645.645 0 0 1 .211-.365l1.279-1.229c.124-.118.25-.222.381-.312a.983.983 0 0 1 .375-.187.568.568 0 0 1 .405.043c.118.056.199.177.241.363l1.365 5.993 1.095-.25c.187-.042.34-.028.462.042.128.068.214.196.256.382.043.186.022.342-.063.466-.077.123-.209.206-.395.248l-3.673.837zm6.631-1.42a.688.688 0 0 1-.435-.025.48.48 0 0 1-.265-.267c-.052-.132-.054-.289-.006-.474l1.854-6.838.108.472-3.48.793c-.193.044-.355.028-.485-.048-.123-.077-.205-.205-.246-.384-.042-.187-.025-.341.053-.464.084-.125.223-.209.417-.253l4.156-.947a.736.736 0 0 1 .507.043c.144.072.238.202.28.388.036.157.046.302.031.433a3.506 3.506 0 0 1-.086.415l-1.722 6.527a.797.797 0 0 1-.233.414.954.954 0 0 1-.448.215zM44.949 381.792c0-.808.162-1.502.485-2.082a3.348 3.348 0 0 1 1.387-1.322c.602-.308 1.311-.462 2.126-.462.61 0 1.157.088 1.641.264.492.176.911.43 1.256.76.352.331.62.735.804 1.212.191.484.286 1.028.286 1.63 0 .404-.05.8-.154 1.19-.102.389-.25.73-.44 1.024a.703.703 0 0 1-.353.308.661.661 0 0 1-.396.033.612.612 0 0 1-.32-.187.547.547 0 0 1-.154-.341c-.007-.133.04-.279.143-.441.147-.228.254-.474.32-.738s.099-.532.099-.804c0-.521-.107-.962-.32-1.322a2.01 2.01 0 0 0-.925-.815c-.404-.183-.9-.275-1.487-.275-.58 0-1.076.092-1.487.275a2.002 2.002 0 0 0-.936.815c-.213.36-.32.801-.32 1.322 0 .279.034.554.1.826.073.272.183.529.33.771.096.162.136.305.121.43a.514.514 0 0 1-.132.33.589.589 0 0 1-.308.176.655.655 0 0 1-.705-.286 3.357 3.357 0 0 1-.496-1.057 4.667 4.667 0 0 1-.165-1.234zm.11 4.623c0-.243.063-.43.187-.562.133-.125.32-.187.562-.187h6.267c.243 0 .426.062.551.187.132.132.198.319.198.562v3.932c0 .183-.047.323-.143.418-.095.103-.231.155-.407.155-.184 0-.327-.052-.43-.155-.095-.095-.143-.235-.143-.418v-3.327h-2.137v3.085c0 .19-.048.334-.143.429-.096.096-.235.143-.419.143-.183 0-.323-.047-.418-.143-.096-.095-.143-.239-.143-.429v-3.085h-2.258v3.327c0 .183-.048.323-.144.418-.095.103-.235.155-.418.155-.184 0-.323-.052-.419-.155-.095-.095-.143-.235-.143-.418v-3.932zm-.088 6.484c0-.213.059-.378.176-.496.118-.11.287-.165.507-.165h6.554c.227 0 .4.055.517.165a.593.593 0 0 1 .188.452c0 .169-.034.293-.1.374a1.522 1.522 0 0 1-.308.309l-5.474 4.218v-.286h5.21c.212 0 .378.055.495.165.118.117.177.283.177.496 0 .213-.06.374-.177.484-.117.11-.282.166-.495.166h-6.61c-.205 0-.366-.052-.484-.155a.526.526 0 0 1-.176-.418c0-.169.033-.305.1-.408.065-.095.172-.202.319-.319l5.474-4.208v.276h-5.21c-.22 0-.39-.055-.507-.166-.117-.11-.176-.271-.176-.484zm0 10.156c0-.228.062-.404.187-.529.132-.117.312-.176.54-.176h5.948v-2.148c0-.191.051-.342.154-.452a.623.623 0 0 1 .44-.154c.191 0 .335.052.43.154.103.11.154.261.154.452v5.705c0 .191-.051.338-.154.441-.095.11-.239.165-.43.165a.596.596 0 0 1-.44-.165c-.103-.103-.154-.25-.154-.441v-2.147h-5.948c-.228 0-.408-.059-.54-.177-.125-.117-.187-.293-.187-.528zm.088 5.012c0-.242.063-.429.187-.561.133-.125.32-.188.562-.188h6.267c.243 0 .426.063.551.188.132.132.198.319.198.561V412c0 .183-.047.323-.143.418-.095.103-.231.154-.407.154-.184 0-.327-.051-.43-.154-.095-.095-.143-.235-.143-.418v-3.327h-2.137v3.084c0 .191-.048.334-.143.43-.096.095-.235.143-.419.143-.183 0-.323-.048-.418-.143-.096-.096-.143-.239-.143-.43v-3.084h-2.258V412c0 .183-.048.323-.144.418-.095.103-.235.154-.418.154-.184 0-.323-.051-.419-.154-.095-.095-.143-.235-.143-.418v-3.933zm-.088 6.529c0-.228.062-.404.187-.529.132-.118.312-.176.54-.176h6.41c.235 0 .412.062.53.187.124.125.186.301.186.529v2.654c0 .852-.205 1.509-.616 1.972-.404.462-.973.694-1.708.694-.477 0-.888-.107-1.233-.32a1.991 1.991 0 0 1-.793-.903c-.184-.397-.276-.878-.276-1.443l.166.099v.364c0 .301-.074.561-.22.782-.148.227-.379.426-.695.594l-1.53.827a.826.826 0 0 1-.452.121.517.517 0 0 1-.364-.165c-.088-.103-.132-.254-.132-.452s.04-.36.121-.485a1.12 1.12 0 0 1 .397-.33l2.048-1.113c.25-.132.415-.29.496-.473.088-.176.132-.404.132-.683V415.3h-2.467c-.228 0-.408-.058-.54-.176-.125-.117-.187-.294-.187-.528zm4.24.704v1.719c0 .506.103.888.309 1.145.213.265.529.397.947.397.412 0 .72-.132.925-.397.213-.257.32-.639.32-1.145V415.3h-2.5zm-4.152 9.848c0-.228.063-.404.187-.529.133-.125.312-.187.54-.187h6.355c.235 0 .412.059.53.176.124.125.186.301.186.529 0 .227-.062.4-.187.518-.117.124-.294.187-.529.187H46.26v3.194c0 .198-.052.349-.154.452-.103.11-.25.165-.441.165s-.342-.055-.452-.165c-.102-.103-.154-.254-.154-.452v-3.888zm-.088 6.174c0-.228.062-.404.187-.529.132-.117.312-.176.54-.176h6.487c.235 0 .415.059.54.176.125.125.188.301.188.529 0 .227-.063.4-.188.517-.125.125-.305.188-.54.188h-6.487c-.228 0-.408-.059-.54-.177-.125-.117-.187-.293-.187-.528zm0 3.064c0-.213.059-.378.176-.495.118-.11.287-.166.507-.166h6.554c.227 0 .4.056.517.166a.591.591 0 0 1 .188.451c0 .169-.034.294-.1.375a1.496 1.496 0 0 1-.308.308l-5.474 4.219v-.287h5.21c.212 0 .378.055.495.166.118.117.177.282.177.495 0 .213-.06.375-.177.485-.117.11-.282.165-.495.165h-6.61c-.205 0-.366-.051-.484-.154a.528.528 0 0 1-.176-.419c0-.169.033-.304.1-.407.065-.096.172-.202.319-.32l5.474-4.207v.275h-5.21c-.22 0-.39-.055-.507-.165-.117-.11-.176-.272-.176-.485zm.088 8.328c0-.242.063-.43.187-.562.133-.125.32-.187.562-.187h6.267c.243 0 .426.062.551.187.132.132.198.32.198.562v3.932c0 .184-.047.323-.143.419-.095.102-.231.154-.407.154-.184 0-.327-.052-.43-.154-.095-.096-.143-.235-.143-.419v-3.326h-2.137v3.084c0 .191-.048.334-.143.429-.096.096-.235.144-.419.144-.183 0-.323-.048-.418-.144-.096-.095-.143-.238-.143-.429v-3.084h-2.258v3.326c0 .184-.048.323-.144.419-.095.102-.235.154-.418.154-.184 0-.323-.052-.419-.154-.095-.096-.143-.235-.143-.419v-3.932zm196.142-116.813c-.648 0-1.296-.052-1.944-.155a10.016 10.016 0 0 1-1.833-.42 7.5 7.5 0 0 1-1.546-.751 1.427 1.427 0 0 1-.663-1.369c.044-.25.14-.464.287-.641.162-.191.361-.309.597-.353.235-.044.493.022.773.199a7.545 7.545 0 0 0 2.054.839c.721.177 1.48.265 2.275.265 1.163 0 2.01-.191 2.54-.574.53-.398.795-.906.795-1.524 0-.516-.191-.921-.574-1.215-.368-.295-1.009-.538-1.922-.729l-2.429-.508c-1.399-.294-2.445-.788-3.137-1.48-.677-.707-1.016-1.634-1.016-2.783 0-.721.147-1.377.442-1.966a4.554 4.554 0 0 1 1.237-1.524 5.768 5.768 0 0 1 1.921-.972 8.253 8.253 0 0 1 2.474-.353c.884 0 1.723.11 2.518.331.795.221 1.51.545 2.143.972.235.162.39.361.464.597a1.3 1.3 0 0 1 .066.706 1.102 1.102 0 0 1-.309.575 1.019 1.019 0 0 1-.619.287c-.235.029-.508-.044-.817-.221a6.312 6.312 0 0 0-1.657-.663 7.87 7.87 0 0 0-1.811-.199c-.677 0-1.259.096-1.745.288-.486.191-.861.463-1.126.817-.251.339-.376.743-.376 1.215 0 .53.177.957.53 1.281.354.309.957.552 1.812.729l2.407.508c1.458.309 2.54.795 3.247 1.457.721.663 1.082 1.547 1.082 2.651 0 .707-.147 1.347-.442 1.922a4.087 4.087 0 0 1-1.236 1.479c-.531.413-1.171.729-1.922.95-.751.221-1.598.332-2.54.332zm13.412-.045c-.457 0-.81-.125-1.06-.375-.236-.265-.354-.626-.354-1.082v-11.928h-4.307c-.383 0-.685-.103-.906-.309-.206-.221-.309-.515-.309-.883 0-.383.103-.67.309-.862.221-.206.523-.309.906-.309h11.441c.383 0 .678.103.884.309.221.192.331.479.331.862 0 .368-.11.662-.331.883-.206.206-.501.309-.884.309h-4.307v11.928c0 .456-.117.817-.353 1.082-.236.25-.589.375-1.06.375zm6.979 0c-.354 0-.641-.081-.862-.243a.992.992 0 0 1-.375-.64c-.044-.28.007-.589.154-.928l5.832-12.921c.191-.427.419-.729.684-.906.28-.191.597-.287.95-.287.339 0 .641.096.906.287.279.177.515.479.707.906l5.853 12.921c.162.339.221.648.176.928-.044.28-.169.501-.375.663-.206.147-.479.22-.817.22-.413 0-.737-.095-.972-.287-.221-.206-.42-.515-.596-.927l-1.436-3.336 1.193.773h-9.321l1.192-.773-1.413 3.336c-.192.427-.391.736-.597.927-.206.192-.5.287-.883.287zm6.339-12.678l-3.092 7.355-.575-.707h7.378l-.553.707-3.114-7.355h-.044zm17.107 12.723c-1.723 0-3.181-.324-4.374-.972a6.5 6.5 0 0 1-2.694-2.761c-.619-1.193-.928-2.607-.928-4.241 0-1.237.177-2.349.53-3.335.368-.987.891-1.826 1.568-2.518a6.794 6.794 0 0 1 2.518-1.613c.987-.383 2.106-.574 3.358-.574.824 0 1.649.103 2.473.309.84.192 1.628.523 2.364.994.25.162.412.361.486.597.088.235.103.478.044.728a1.406 1.406 0 0 1-.331.619 1.064 1.064 0 0 1-.619.331c-.235.044-.501-.015-.795-.177a6.746 6.746 0 0 0-1.701-.706 7.703 7.703 0 0 0-1.921-.221c-1.09 0-2.01.221-2.761.662-.751.427-1.318 1.053-1.701 1.878-.368.825-.552 1.833-.552 3.026 0 1.811.434 3.188 1.303 4.13.869.943 2.157 1.414 3.865 1.414.589 0 1.186-.059 1.789-.177a12.08 12.08 0 0 0 1.767-.486l-.552 1.259v-4.704h-2.429c-.369 0-.656-.096-.862-.288-.191-.191-.287-.449-.287-.773 0-.338.096-.596.287-.773.206-.176.493-.265.862-.265h3.644c.368 0 .648.103.839.31.206.191.31.471.31.839v5.367c0 .324-.067.597-.199.817-.118.221-.317.383-.597.486-.648.236-1.391.435-2.23.597a14.33 14.33 0 0 1-2.474.221zm10.278-.221c-.486 0-.862-.125-1.127-.376-.25-.265-.375-.64-.375-1.126V311.61c0-.486.125-.854.375-1.105.265-.265.641-.397 1.127-.397h7.885c.368 0 .648.096.839.287.207.191.31.464.31.817 0 .368-.103.656-.31.862-.191.191-.471.287-.839.287h-6.67v4.285h6.184c.383 0 .67.096.862.287.191.191.287.471.287.839s-.096.648-.287.84c-.192.191-.479.287-.862.287h-6.184v4.528h6.67c.368 0 .648.095.839.287.207.191.31.471.31.839s-.103.648-.31.84c-.191.191-.471.287-.839.287h-7.885zm-120.821 84.703a.48.48 0 0 1-.353-.128.523.523 0 0 1-.115-.362l.031-3.975-1.436-.011a.423.423 0 0 1-.301-.106.413.413 0 0 1-.101-.295c.001-.128.036-.223.106-.286a.425.425 0 0 1 .302-.101l3.814.029c.128.001.225.036.294.106.073.064.109.16.108.288a.399.399 0 0 1-.113.293c-.069.068-.168.102-.295.101l-1.436-.011-.03 3.976a.525.525 0 0 1-.121.359c-.079.083-.197.124-.354.123zm2.326.018a.48.48 0 0 1-.287-.083.333.333 0 0 1-.123-.215.559.559 0 0 1 .054-.309l1.977-4.292a.685.685 0 0 1 .23-.3.55.55 0 0 1 .619.005c.092.06.17.161.233.304l1.918 4.322a.52.52 0 0 1 .056.309.33.33 0 0 1-.127.22.453.453 0 0 1-.272.072.497.497 0 0 1-.324-.099.905.905 0 0 1-.196-.31l-.47-1.116.395.261-3.106-.024.399-.254-.48 1.108a.955.955 0 0 1-.201.307c-.069.064-.167.095-.295.094zm2.145-4.21l-1.049 2.444-.19-.237 2.459.019-.186.234-1.019-2.46h-.015zm3.783 4.196c-.162-.001-.287-.043-.374-.128-.083-.089-.124-.214-.123-.376l.033-4.189c.001-.162.043-.285.128-.367.089-.088.214-.131.376-.13l1.767.014c.363.002.672.059.926.169.255.11.448.266.578.468.136.202.203.443.201.723a1.192 1.192 0 0 1-.278.793 1.338 1.338 0 0 1-.747.429v-.111c.363.057.644.197.844.419.2.223.298.51.295.864-.003.461-.163.818-.479 1.071-.311.248-.744.37-1.299.366l-1.848-.015zm.411-.711l1.325.011c.334.002.579-.06.738-.186.158-.131.238-.327.24-.587.002-.265-.075-.462-.231-.591-.157-.129-.401-.195-.735-.197l-1.325-.01-.012 1.56zm.017-2.275l1.2.01c.324.002.565-.057.723-.179.163-.126.245-.312.247-.557.002-.246-.077-.431-.238-.555-.156-.128-.397-.194-.72-.196l-1.201-.01-.011 1.487zm4.619 3.025a.48.48 0 0 1-.353-.128.506.506 0 0 1-.122-.361l.033-4.248c.001-.157.041-.275.12-.353.084-.083.202-.123.355-.122.152.001.267.043.345.128.082.079.123.197.122.354l-.03 3.931 2.135.017c.132.001.233.036.301.105.073.069.109.168.108.295a.408.408 0 0 1-.113.302c-.069.068-.17.101-.302.1l-2.599-.02zm4.156.032c-.162-.001-.287-.044-.374-.128-.083-.089-.124-.214-.123-.376l.032-4.189c.002-.162.044-.285.128-.368a.514.514 0 0 1 .377-.129l2.628.02c.123.001.216.034.279.098.069.064.102.155.101.273a.388.388 0 0 1-.105.286c-.064.064-.158.095-.28.094l-2.224-.017-.011 1.428 2.062.016c.127.001.223.034.286.098.063.064.095.158.094.28-.001.123-.034.216-.098.279-.065.064-.161.095-.288.094l-2.062-.016-.011 1.509 2.223.017c.123.001.216.034.279.098.068.065.102.158.101.281-.001.123-.036.216-.105.279-.064.063-.158.094-.281.093l-2.628-.02zm5.609.117a4.147 4.147 0 0 1-.647-.057 3.358 3.358 0 0 1-.61-.144 2.512 2.512 0 0 1-.514-.254.475.475 0 0 1-.217-.459.446.446 0 0 1 .097-.212.339.339 0 0 1 .2-.117c.078-.014.164.009.257.069.215.129.442.224.682.285.241.06.493.092.758.094.388.003.671-.059.848-.185a.607.607 0 0 0 .269-.506.48.48 0 0 0-.188-.406c-.122-.1-.335-.182-.639-.248l-.808-.176c-.466-.102-.813-.269-1.042-.501-.224-.238-.334-.548-.332-.93a1.446 1.446 0 0 1 .569-1.159c.183-.141.397-.248.643-.319a2.74 2.74 0 0 1 .825-.112c.295.002.574.041.839.117.264.076.502.185.712.329a.382.382 0 0 1 .153.2.435.435 0 0 1 .02.236.363.363 0 0 1-.105.191.338.338 0 0 1-.206.094.448.448 0 0 1-.272-.076 2.134 2.134 0 0 0-.551-.225 2.61 2.61 0 0 0-.603-.071 1.588 1.588 0 0 0-.582.091.842.842 0 0 0-.378.27.662.662 0 0 0-.128.404.548.548 0 0 0 .173.428c.117.104.318.187.602.248l.801.175c.485.107.845.272 1.079.495.239.222.357.518.354.886a1.391 1.391 0 0 1-.569 1.129c-.177.136-.392.24-.642.312a3.008 3.008 0 0 1-.848.104zm142.591-.192a.477.477 0 0 1-.352-.128.523.523 0 0 1-.115-.362l.031-3.975-1.436-.011a.421.421 0 0 1-.301-.106.413.413 0 0 1-.101-.295c.001-.128.036-.223.105-.286a.426.426 0 0 1 .303-.101l3.814.029c.127.001.225.036.293.106.073.064.11.16.109.288a.399.399 0 0 1-.113.293c-.069.068-.168.102-.295.101l-1.436-.011-.031 3.976a.52.52 0 0 1-.12.359c-.079.083-.198.124-.355.123zm2.327.018a.479.479 0 0 1-.287-.083.333.333 0 0 1-.123-.215.559.559 0 0 1 .054-.309l1.976-4.292a.686.686 0 0 1 .231-.3.546.546 0 0 1 .618.005c.093.06.171.161.234.304l1.918 4.322a.528.528 0 0 1 .056.309.335.335 0 0 1-.127.22.455.455 0 0 1-.273.072.496.496 0 0 1-.323-.099.89.89 0 0 1-.196-.31l-.47-1.116.395.261-3.107-.024.4-.254-.48 1.108a.955.955 0 0 1-.201.307c-.069.064-.168.095-.295.094zm2.145-4.21l-1.049 2.444-.19-.237 2.459.019-.186.234-1.019-2.46h-.015zm3.783 4.196c-.162-.001-.287-.043-.375-.128-.082-.089-.123-.214-.122-.376l.032-4.189c.002-.162.044-.285.128-.367.089-.088.215-.131.377-.13l1.767.014c.363.002.672.059.926.169.255.11.447.266.578.468.136.202.203.443.201.723a1.192 1.192 0 0 1-.279.793 1.332 1.332 0 0 1-.747.429l.001-.111c.363.057.644.197.844.419.199.223.298.51.295.864-.004.461-.163.818-.48 1.071-.311.248-.744.37-1.298.366l-1.848-.015zm.41-.711l1.326.011c.333.002.579-.06.737-.186.158-.131.238-.327.24-.587.002-.265-.075-.462-.231-.591-.156-.129-.401-.195-.734-.197l-1.326-.01-.012 1.56zm.018-2.275l1.2.01c.324.002.565-.057.723-.179.163-.126.245-.312.247-.557.002-.246-.078-.431-.239-.555-.156-.128-.396-.194-.72-.196l-1.2-.01-.011 1.487zm4.619 3.025a.478.478 0 0 1-.353-.128.502.502 0 0 1-.122-.361l.032-4.248c.002-.157.042-.275.121-.353.084-.083.202-.123.354-.122.152.001.267.043.345.128.083.079.124.197.123.354l-.03 3.931 2.135.017c.132.001.233.036.301.105.073.069.109.168.108.295a.412.412 0 0 1-.113.302c-.069.068-.17.101-.303.1l-2.598-.02zm4.156.032c-.162-.001-.287-.044-.375-.128-.082-.089-.123-.214-.122-.376l.032-4.189c.001-.162.044-.285.128-.368.089-.087.215-.13.377-.129l2.628.02c.123.001.216.034.279.098.068.064.102.155.101.273a.388.388 0 0 1-.105.286c-.065.064-.158.095-.281.094l-2.223-.017-.011 1.428 2.061.016c.128.001.223.034.287.098.063.064.094.158.093.28-.001.123-.033.216-.098.279-.064.064-.16.095-.287.094l-2.062-.016-.011 1.509 2.223.017c.123.001.216.034.279.098.068.065.102.158.101.281-.001.123-.036.216-.105.279-.065.063-.158.094-.281.093l-2.628-.02zm5.609.117a4.17 4.17 0 0 1-.648-.057 3.378 3.378 0 0 1-.61-.144 2.503 2.503 0 0 1-.513-.254.484.484 0 0 1-.218-.459.447.447 0 0 1 .098-.212.337.337 0 0 1 .199-.117c.079-.014.165.009.258.069.215.129.442.224.682.285.24.06.493.092.758.094.388.003.67-.059.848-.185a.61.61 0 0 0 .269-.506.484.484 0 0 0-.188-.406c-.122-.1-.335-.182-.639-.248l-.809-.176c-.465-.102-.812-.269-1.041-.501-.224-.238-.335-.548-.332-.93.002-.241.053-.459.152-.655.1-.195.239-.363.417-.504a1.9 1.9 0 0 1 .643-.319 2.74 2.74 0 0 1 .825-.112c.295.002.574.041.839.117.264.076.501.185.711.329a.382.382 0 0 1 .153.2.436.436 0 0 1 .021.236.37.37 0 0 1-.105.191.338.338 0 0 1-.207.094.45.45 0 0 1-.272-.076 2.113 2.113 0 0 0-.55-.225 2.61 2.61 0 0 0-.603-.071 1.598 1.598 0 0 0-.583.091.844.844 0 0 0-.377.27.663.663 0 0 0-.129.404.552.552 0 0 0 .174.428c.117.104.318.187.602.248l.801.175c.485.107.845.272 1.078.495.239.222.357.518.354.886a1.367 1.367 0 0 1-.152.639 1.35 1.35 0 0 1-.416.49c-.178.136-.392.24-.643.312a3 3 0 0 1-.847.104zM205.213 546.402a.582.582 0 0 1-.331-.091.69.69 0 0 1-.204-.281l-1.888-4.329a.498.498 0 0 1-.042-.325.377.377 0 0 1 .157-.219.475.475 0 0 1 .28-.079c.142.001.248.034.316.098a.647.647 0 0 1 .182.274l1.714 4.055-.317-.002 1.769-4.036a.707.707 0 0 1 .193-.264.46.46 0 0 1 .31-.093.413.413 0 0 1 .264.083.35.35 0 0 1 .139.222.533.533 0 0 1-.054.323l-1.955 4.3a.694.694 0 0 1-.208.278.533.533 0 0 1-.325.086zm3.658.028a.477.477 0 0 1-.352-.128.523.523 0 0 1-.115-.362l.033-4.336c.001-.157.042-.277.121-.36.084-.083.202-.123.354-.122.152.001.267.044.345.128.083.084.124.204.123.361l-.034 4.337a.525.525 0 0 1-.12.36c-.08.082-.198.123-.355.122zm2.078.016a.476.476 0 0 1-.352-.128.523.523 0 0 1-.115-.362l.033-4.284c.001-.158.043-.275.127-.353a.48.48 0 0 1 .355-.122l1.774.013c.57.005 1.008.15 1.315.437.307.288.458.686.454 1.197-.004.51-.161.909-.473 1.196-.311.283-.751.421-1.321.417l-1.31-.01-.012 1.517a.52.52 0 0 1-.121.36c-.079.082-.197.123-.354.122zm.492-2.743l1.164.009c.333.003.587-.069.76-.215.173-.15.26-.371.262-.66.003-.29-.082-.509-.252-.658-.171-.148-.423-.224-.757-.226l-1.163-.009-.014 1.759zm119.856 2.699a.582.582 0 0 1-.331-.091.69.69 0 0 1-.204-.281l-1.888-4.329a.498.498 0 0 1-.042-.325.377.377 0 0 1 .157-.219.475.475 0 0 1 .28-.079c.142.001.248.034.316.098a.647.647 0 0 1 .182.274l1.714 4.055-.317-.002 1.769-4.036a.707.707 0 0 1 .193-.264.46.46 0 0 1 .31-.093.413.413 0 0 1 .264.083.35.35 0 0 1 .139.222.533.533 0 0 1-.054.323l-1.955 4.3a.694.694 0 0 1-.208.278.533.533 0 0 1-.325.086zm3.658.028a.477.477 0 0 1-.352-.128.523.523 0 0 1-.115-.362l.033-4.336c.001-.157.042-.277.121-.36.084-.083.202-.123.354-.122.152.001.267.044.345.128.083.084.124.204.123.361l-.034 4.337a.525.525 0 0 1-.12.36c-.08.082-.198.123-.355.122zm2.078.016a.476.476 0 0 1-.352-.128.518.518 0 0 1-.115-.362l.033-4.284c.001-.158.043-.275.127-.353a.48.48 0 0 1 .355-.122l1.774.013c.57.005 1.008.15 1.315.437.307.288.458.686.454 1.197-.004.51-.161.909-.473 1.196-.311.283-.751.421-1.321.417l-1.31-.01-.012 1.517a.52.52 0 0 1-.121.36c-.079.082-.197.123-.354.122zm.492-2.743l1.164.009c.333.003.587-.069.76-.215.173-.15.26-.371.262-.66.003-.29-.082-.509-.252-.658-.171-.148-.423-.224-.757-.226l-1.163-.009-.014 1.759zm-114.103-107.37c-.808-.007-1.501-.174-2.078-.501a3.35 3.35 0 0 1-1.311-1.398c-.304-.604-.453-1.314-.447-2.129.005-.61.097-1.156.277-1.639.18-.491.437-.908.77-1.25.333-.35.739-.615 1.218-.795a4.43 4.43 0 0 1 1.632-.274c.404.003.8.058 1.189.164a3.49 3.49 0 0 1 1.02.448.703.703 0 0 1 .306.355.661.661 0 0 1 .03.397.616.616 0 0 1-.19.318.544.544 0 0 1-.342.151c-.132.006-.279-.042-.44-.146a2.424 2.424 0 0 0-.735-.325 3.26 3.26 0 0 0-.803-.106c-.522-.004-.963.099-1.325.309a2.02 2.02 0 0 0-.822.919c-.186.403-.282.898-.287 1.485-.004.58.084 1.077.264 1.489.181.413.45.727.808.943.358.215.798.325 1.319.329.28.002.555-.028.827-.092.273-.072.53-.18.774-.325.162-.094.306-.133.43-.118a.519.519 0 0 1 .33.135.597.597 0 0 1 .174.31.664.664 0 0 1-.025.374.698.698 0 0 1-.267.328 3.348 3.348 0 0 1-1.061.488 4.684 4.684 0 0 1-1.235.156zm4.6.013c-.227-.002-.407-.066-.538-.191-.124-.134-.185-.321-.183-.564l.049-6.355c.002-.242.066-.425.192-.549.133-.131.321-.196.563-.194l3.844.029c.191.002.334.051.428.147.095.096.142.232.14.409-.001.183-.05.326-.146.428-.096.095-.24.141-.431.14l-3.183-.025-.017 2.192 2.952.023c.184.001.323.05.417.146.103.097.153.233.152.409-.002.184-.054.326-.158.428-.096.095-.236.142-.42.14l-2.951-.022-.021 2.665c-.004.5-.233.747-.689.744zm81.91-.013c-.808-.007-1.5-.174-2.078-.501a3.35 3.35 0 0 1-1.311-1.398c-.304-.604-.453-1.314-.446-2.129.004-.61.097-1.156.277-1.639.18-.491.436-.908.769-1.25.333-.35.739-.615 1.218-.795a4.43 4.43 0 0 1 1.632-.274c.404.003.8.058 1.189.164.388.105.728.255 1.021.448a.706.706 0 0 1 .305.355.661.661 0 0 1 .03.397.621.621 0 0 1-.189.318.546.546 0 0 1-.343.151c-.132.006-.279-.042-.439-.146a2.44 2.44 0 0 0-.736-.325 3.26 3.26 0 0 0-.803-.106c-.522-.004-.963.099-1.324.309a2.016 2.016 0 0 0-.823.919c-.186.403-.282.898-.286 1.485-.005.58.083 1.077.264 1.489.18.413.449.727.807.943.359.215.798.325 1.32.329.279.002.554-.028.827-.092a3 3 0 0 0 .773-.325c.162-.094.306-.133.431-.118a.514.514 0 0 1 .329.135.597.597 0 0 1 .174.31.664.664 0 0 1-.025.374.698.698 0 0 1-.267.328 3.338 3.338 0 0 1-1.061.488 4.679 4.679 0 0 1-1.235.156zm4.601.013c-.228-.002-.407-.066-.539-.191-.123-.134-.184-.321-.182-.564l.048-6.355c.002-.242.066-.425.192-.549.133-.131.321-.196.563-.194l3.844.029c.191.002.334.051.429.147.094.096.141.232.14.409-.002.183-.051.326-.147.428-.096.095-.24.141-.431.14l-3.183-.025-.017 2.192 2.952.023c.184.001.323.05.418.146.102.097.152.233.151.409-.002.184-.054.326-.158.428-.096.095-.236.142-.419.14l-2.952-.022-.021 2.665c-.003.5-.233.747-.688.744zM436.845 734.86a5.26 5.26 0 0 1-1.132.514 3.53 3.53 0 0 1-1.19.189.753.753 0 0 1-.427-.126.61.61 0 0 1-.222-.277.637.637 0 0 1-.015-.34.553.553 0 0 1 .198-.289.743.743 0 0 1 .417-.141c.342-.02.65-.072.926-.155.273-.09.534-.212.784-.366.275-.169.484-.349.625-.539a1 1 0 0 0 .215-.597 1.13 1.13 0 0 0-.184-.637c-.193-.313-.441-.479-.746-.498-.303-.03-.654.078-1.055.325l-.6.369c-.175.107-.337.146-.484.116-.142-.033-.261-.129-.357-.285-.096-.156-.127-.305-.093-.447.04-.145.147-.271.322-.379l.488-.3c.238-.146.418-.309.541-.487.119-.186.181-.379.187-.58a1.106 1.106 0 0 0-.183-.612c-.176-.288-.408-.448-.694-.479-.28-.034-.602.06-.964.283a2.88 2.88 0 0 0-.605.488c-.17.173-.332.407-.488.7a.598.598 0 0 1-.276.287.494.494 0 0 1-.329.033.62.62 0 0 1-.29-.157.58.58 0 0 1-.166-.312.628.628 0 0 1 .067-.416 3.62 3.62 0 0 1 .649-.942c.268-.294.574-.547.918-.758.457-.281.892-.449 1.306-.505.409-.063.78-.014 1.11.145.333.149.613.407.84.777.161.262.259.534.293.814a1.827 1.827 0 0 1-.548 1.527l-.069-.113c.496-.201.962-.229 1.397-.083.431.141.783.433 1.056.877.238.388.349.785.332 1.192a2.193 2.193 0 0 1-.417 1.174c-.264.369-.643.706-1.137 1.01zm5.814-3.574a4.812 4.812 0 0 1-1.094.492 3.87 3.87 0 0 1-1.196.179.716.716 0 0 1-.406-.113.7.7 0 0 1-.218-.293.636.636 0 0 1-.021-.349.521.521 0 0 1 .182-.293.682.682 0 0 1 .399-.129c.313-.01.609-.055.889-.132a3.16 3.16 0 0 0 .823-.364 1.75 1.75 0 0 0 .589-.556 1.19 1.19 0 0 0 .19-.659 1.341 1.341 0 0 0-.213-.684c-.216-.35-.495-.566-.839-.648-.347-.088-.705-.019-1.074.208a1.95 1.95 0 0 0-.518.461c-.15.177-.265.404-.346.678a1.522 1.522 0 0 1-.124.282.725.725 0 0 1-.241.239c-.157.096-.3.129-.432.097a.535.535 0 0 1-.329-.262l-1.886-3.069c-.104-.169-.139-.324-.105-.466.036-.151.138-.279.307-.382l3.088-1.898c.168-.104.324-.139.465-.105.144.024.266.117.366.279.096.157.124.308.084.453-.034.141-.135.264-.304.368l-2.44 1.499 1.292 2.102-.31.191c.028-.319.14-.621.336-.905.196-.284.454-.524.773-.721.419-.257.838-.389 1.256-.396a2.1 2.1 0 0 1 1.178.297c.367.205.68.517.937.936.266.432.403.873.413 1.324.006.444-.115.872-.362 1.283-.245.4-.615.752-1.109 1.056zm-73.066 47.854a5.233 5.233 0 0 1-1.197.333 3.53 3.53 0 0 1-1.205.002.736.736 0 0 1-.402-.19.606.606 0 0 1-.177-.308.63.63 0 0 1 .038-.338.548.548 0 0 1 .24-.255.743.743 0 0 1 .434-.075c.34.033.653.03.939-.01.283-.047.56-.126.831-.24.298-.124.532-.27.701-.436.169-.166.271-.352.305-.557a1.13 1.13 0 0 0-.084-.657c-.142-.339-.362-.542-.66-.608-.294-.076-.658-.023-1.092.158l-.65.272c-.19.079-.356.092-.497.04-.134-.055-.237-.167-.308-.337-.071-.169-.078-.321-.023-.456.062-.137.188-.245.377-.325l.529-.22c.257-.108.461-.241.609-.398.147-.165.238-.346.274-.545a1.105 1.105 0 0 0-.085-.633c-.13-.311-.334-.504-.612-.579-.272-.078-.604-.035-.997.13-.25.104-.475.234-.673.388a3.032 3.032 0 0 0-.59.617.598.598 0 0 1-.317.24.497.497 0 0 1-.33-.017.643.643 0 0 1-.263-.201.578.578 0 0 1-.115-.334.63.63 0 0 1 .131-.401c.212-.311.474-.588.787-.83.31-.249.651-.451 1.024-.607.494-.206.95-.305 1.368-.297.414.002.772.107 1.074.315.306.199.542.498.71.897.118.285.173.568.164.851a1.831 1.831 0 0 1-.211.78 1.902 1.902 0 0 1-.567.643l-.051-.122c.522-.122.986-.078 1.393.134.404.206.707.549.908 1.03.175.42.223.83.143 1.229a2.191 2.191 0 0 1-.592 1.095c-.319.324-.745.598-1.281.822zm4.927-2.083a.691.691 0 0 1-.433.05.479.479 0 0 1-.306-.219c-.074-.12-.103-.275-.087-.465l.657-7.055.187.447-3.293 1.376c-.183.077-.345.089-.486.037-.135-.056-.237-.168-.308-.337-.074-.176-.083-.332-.028-.466.062-.138.185-.245.368-.321l3.933-1.644a.736.736 0 0 1 .506-.044c.155.047.269.158.343.334.062.149.097.29.105.422.004.125 0 .267-.014.424l-.58 6.724a.806.806 0 0 1-.159.449.952.952 0 0 1-.405.288zm-63.376-49.143c-.39.075-.803.102-1.241.081a3.56 3.56 0 0 1-1.179-.244.745.745 0 0 1-.355-.269.601.601 0 0 1-.109-.338.621.621 0 0 1 .106-.323.557.557 0 0 1 .286-.201.747.747 0 0 1 .441.017c.326.101.633.162.921.182.286.012.574-.009.862-.065.318-.061.576-.155.776-.283a.999.999 0 0 0 .412-.483c.082-.195.1-.415.053-.661-.069-.36-.243-.603-.522-.73-.272-.134-.639-.157-1.101-.069l-.692.133c-.202.039-.367.018-.494-.062-.121-.082-.198-.213-.233-.393-.034-.18-.011-.33.071-.451.089-.121.234-.202.436-.24l.562-.108c.274-.053.5-.141.679-.265.176-.131.303-.29.379-.477.077-.186.092-.399.046-.637-.063-.331-.224-.562-.48-.692-.25-.132-.584-.158-1.002-.077a2.94 2.94 0 0 0-.739.242 3.017 3.017 0 0 0-.703.483.6.6 0 0 1-.36.17.494.494 0 0 1-.319-.085.625.625 0 0 1-.217-.25.58.58 0 0 1-.044-.35.63.63 0 0 1 .21-.366c.271-.261.585-.478.94-.651a4.24 4.24 0 0 1 1.127-.384c.526-.102.993-.105 1.4-.011.405.087.734.263.987.528.259.257.429.598.51 1.024a2 2 0 0 1-.013.866c-.068.267-.19.508-.366.721a1.897 1.897 0 0 1-.687.513l-.025-.13c.536-.013.981.126 1.336.417.354.283.58.681.678 1.193.086.447.049.858-.111 1.233-.16.374-.428.691-.805.95-.378.252-.851.433-1.421.542zm6.637-1.273c-.901.173-1.655-.034-2.261-.621-.607-.594-1.032-1.521-1.274-2.783-.163-.851-.196-1.585-.097-2.202.104-.626.333-1.126.688-1.501.361-.376.841-.621 1.44-.736.908-.174 1.661.025 2.257.599.603.572 1.026 1.493 1.27 2.762.162.844.191 1.582.088 2.215-.097.624-.321 1.131-.673 1.52-.352.381-.832.63-1.438.747zm-.218-1.136c.491-.094.808-.391.951-.889.151-.5.134-1.233-.051-2.2-.186-.966-.439-1.643-.76-2.03-.315-.395-.718-.546-1.208-.452-.484.093-.802.382-.956.867-.154.479-.139 1.201.046 2.167.186.967.441 1.654.766 2.063.325.409.729.567 1.212.474zm44.88-15.166a5.245 5.245 0 0 1-1.166.43 3.549 3.549 0 0 1-1.201.101.741.741 0 0 1-.416-.157.605.605 0 0 1-.201-.292.625.625 0 0 1 .01-.341.56.56 0 0 1 .218-.274.752.752 0 0 1 .427-.109c.341.005.653-.024.935-.087a3.74 3.74 0 0 0 .808-.307c.287-.149.508-.313.663-.493a.999.999 0 0 0 .258-.58 1.134 1.134 0 0 0-.137-.648c-.169-.326-.405-.51-.708-.551-.299-.052-.658.03-1.075.246l-.626.325c-.183.094-.347.121-.492.08-.138-.044-.25-.147-.334-.31-.085-.163-.105-.314-.061-.452.051-.142.167-.261.35-.355l.509-.264c.247-.128.439-.277.574-.446.133-.176.209-.364.229-.565a1.11 1.11 0 0 0-.137-.624c-.155-.3-.375-.476-.658-.527-.276-.056-.604.015-.982.211a2.934 2.934 0 0 0-.639.442c-.182.16-.361.381-.538.663a.593.593 0 0 1-.296.265.493.493 0 0 1-.33.01.584.584 0 0 1-.421-.501.637.637 0 0 1 .097-.411c.186-.327.425-.625.717-.892a4.22 4.22 0 0 1 .97-.688c.476-.247.923-.383 1.34-.409.413-.032.778.043 1.096.226.321.173.582.452.781.836.142.274.219.552.233.835a1.828 1.828 0 0 1-.658 1.482l-.061-.117c.51-.165.976-.159 1.399.019.42.171.749.489.989.952.209.404.291.808.244 1.213a2.198 2.198 0 0 1-.501 1.14c-.291.349-.694.657-1.209.924zm6.002-3.109c-.815.423-1.597.439-2.344.049-.752-.397-1.423-1.166-2.014-2.307-.398-.769-.638-1.464-.719-2.083-.078-.63 0-1.174.233-1.634.24-.463.63-.835 1.171-1.116.822-.425 1.6-.448 2.335-.067.741.377 1.408 1.139 2.003 2.287.395.763.633 1.462.714 2.098.085.626.014 1.176-.213 1.648-.23.467-.618.842-1.166 1.125zm-.532-1.026c.443-.23.663-.604.659-1.123.002-.522-.223-1.22-.675-2.094-.453-.874-.888-1.451-1.306-1.73-.414-.29-.843-.32-1.287-.091-.437.227-.66.594-.669 1.104-.012.502.208 1.19.66 2.064.453.874.893 1.461 1.321 1.76.428.299.86.336 1.297.11zm49.497-43.628c-.146.184-.294.286-.443.308-.15.012-.306-.047-.466-.175a.726.726 0 0 1-.222-.305 1.915 1.915 0 0 1-.114-.457l-.459-3.201c-.064-.484-.162-.873-.294-1.166a1.964 1.964 0 0 0-.551-.723c-.287-.229-.578-.311-.874-.247-.291.058-.574.26-.85.604a2.62 2.62 0 0 0-.381.654 2.593 2.593 0 0 0-.2.813.553.553 0 0 1-.147.362.546.546 0 0 1-.298.143.636.636 0 0 1-.335-.057.641.641 0 0 1-.269-.229.64.64 0 0 1-.084-.406c.031-.379.125-.755.282-1.128.161-.379.366-.723.613-1.033.349-.435.708-.75 1.079-.943a1.88 1.88 0 0 1 1.119-.218c.376.046.745.214 1.107.503.24.193.444.421.609.685.17.258.308.561.415.91.111.342.198.745.26 1.209l.393 2.965-.293-.234 2.023-2.529c.123-.155.255-.243.393-.263.139-.021.283.028.432.147.149.12.232.252.248.396.016.144-.038.294-.161.449l-2.532 3.166zm5.359-6.527c-.376.471-.765.822-1.168 1.055-.403.223-.807.323-1.212.3-.4-.028-.781-.187-1.143-.476a2.051 2.051 0 0 1-.619-.777 1.919 1.919 0 0 1-.15-.924c.027-.317.129-.621.306-.912l.18.145a1.974 1.974 0 0 1-1.233.466 1.96 1.96 0 0 1-1.242-.457c-.344-.275-.568-.595-.671-.96a2.02 2.02 0 0 1 .025-1.178c.121-.421.35-.844.69-1.268.344-.43.708-.75 1.092-.96.378-.215.759-.31 1.144-.284.378.02.739.168 1.083.443.253.202.444.439.573.712.135.267.197.547.188.841-.004.288-.08.571-.227.848l-.172-.137c.379-.356.807-.545 1.285-.567.477-.032.928.122 1.352.461.362.289.598.628.71 1.018.115.384.107.8-.026 1.249-.134.438-.389.892-.765 1.362zm-.86-.687c.325-.408.493-.776.503-1.107.005-.334-.148-.626-.457-.873-.31-.248-.625-.33-.945-.248-.32.083-.643.328-.968.735-.321.402-.489.77-.504 1.106-.01.331.14.62.449.867.31.248.628.333.954.255.324-.089.647-.334.968-.735zm-2.727-2.181a1.91 1.91 0 0 0 .364-.667c.054-.22.046-.429-.023-.625a1.137 1.137 0 0 0-.378-.514c-.276-.22-.569-.294-.879-.223-.312.061-.603.26-.874.599-.27.338-.401.666-.392.984.004.313.143.58.418.8.281.224.578.306.89.245.312-.061.603-.26.874-.599z" fill="#fff"/><path d="M431.695 607.463c-.233-.028-.398-.099-.495-.215-.089-.121-.121-.284-.097-.488a.737.737 0 0 1 .142-.349c.08-.109.19-.222.33-.338l2.481-2.074c.377-.31.656-.598.836-.864.181-.274.289-.557.325-.849.044-.364-.039-.655-.25-.873-.203-.217-.523-.352-.96-.405a2.64 2.64 0 0 0-.757.02 2.608 2.608 0 0 0-.797.259.553.553 0 0 1-.385.064.537.537 0 0 1-.278-.178.622.622 0 0 1-.128-.315.639.639 0 0 1 .053-.349.648.648 0 0 1 .301-.285 3.65 3.65 0 0 1 1.108-.354 4.395 4.395 0 0 1 1.2-.021c.554.067 1.011.207 1.37.42.358.214.617.493.775.837.158.345.209.747.154 1.206a2.722 2.722 0 0 1-.262.878c-.13.28-.315.558-.555.832-.233.275-.53.561-.892.857l-2.315 1.895.045-.372 3.215.389c.197.024.341.089.431.196.091.107.125.256.102.445-.023.19-.092.329-.206.419-.114.09-.27.123-.467.099l-4.024-.487zm8.37 1.123c-.598-.072-1.102-.218-1.512-.438-.401-.226-.699-.517-.893-.873-.186-.355-.251-.763-.196-1.222.044-.364.156-.676.335-.936.188-.266.423-.47.707-.613.283-.144.595-.217.936-.22l-.028.23a1.978 1.978 0 0 1-1.045-.804 1.959 1.959 0 0 1-.265-1.296c.053-.438.207-.796.463-1.076.256-.287.595-.487 1.015-.599.421-.119.902-.146 1.441-.08.547.066 1.011.207 1.391.423.382.209.663.483.844.823.182.333.246.718.193 1.155-.039.321-.14.608-.304.862a1.716 1.716 0 0 1-.616.602 1.867 1.867 0 0 1-.841.254l.027-.219c.501.135.887.399 1.157.795.279.388.385.852.32 1.392-.055.459-.22.839-.493 1.138-.265.301-.624.513-1.075.636-.443.117-.964.139-1.561.066zm.132-1.093c.517.062.919.011 1.206-.154.287-.172.454-.455.502-.849.047-.394-.048-.705-.287-.933-.239-.229-.617-.374-1.134-.437-.511-.062-.912-.01-1.206.154-.286.165-.453.444-.501.838-.047.394.048.708.286.944.245.23.624.375 1.134.437zm.419-3.466c.292.035.545.021.759-.042.216-.07.389-.186.52-.348.13-.161.209-.359.238-.592.042-.35-.049-.638-.273-.865-.216-.233-.539-.376-.969-.428-.43-.052-.778.01-1.043.185-.264.167-.418.426-.46.776-.043.357.043.652.259.886.216.233.539.376.969.428z" fill="#fff"/></g><defs><clipPath id="clip0_6445_189812"><path fill="#fff" d="M0 0h552.229v827H0z"/></clipPath><clipPath id="clip1_6445_189812"><path fill="#fff" transform="translate(162.786 263.212)" d="M0 0h212.309v300.024H0z"/></clipPath></defs></svg>