<svg width="899" height="601" viewBox="0 0 899 601" fill="none" xmlns="http://www.w3.org/2000/svg"><g clip-path="url(#clip0_7756_224452)"><path d="M604.55 5.04h-310.1C134.7 5.04 5.2 134.5 5.2 294.25v5.79c0 159.77 129.5 289.27 289.25 289.27h310.1c159.75 0 289.25-129.5 289.25-289.27v-5.81C893.8 134.5 764.3 5.04 604.55 5.04zm98.23 414.23a156.54 156.54 0 0 1-111.05 46H307.27a157.05 157.05 0 1 1 0-314.1h284.46a157.002 157.002 0 0 1 111.05 268.1z" fill="#E0E0E0"/><path d="M748.78 308.22a157.05 157.05 0 0 1-157.05 157H307.27a157.05 157.05 0 1 1 0-314.1h284.46a157.04 157.04 0 0 1 111.069 46.017A157.059 157.059 0 0 1 748.78 308.22z" fill="#E0E0E0"/><path d="M274.59 136.12a173.196 173.196 0 0 0-51.49 17.92l-17.68-39.53 6.22-3.39-5.34-11.08a222.342 222.342 0 0 1 59.6-19.58l8.69 55.66zm39.82-58.86v56.1h-8.75c-4.846 0-9.646.197-14.4.59v-26.76H279.4l-3.73-28.29a226.265 226.265 0 0 1 29.75-2h7.54c.94.23 1.45.36 1.45.36zm61.56-.32v56.42H346.6v-28.6h-8.47v28.6h-19.19V76.94h57.03zm74.73 0v56.42h-30.86v-28.6h-9.99v28.6h-26.54V76.94h67.39zm74.91 0v56.42h-30.49v-28.6h-10.17v28.6h-29.36V76.94h70.02zm57.72 0v56.42h-16.47l.54-28.6h-9.91l-.19 28.6h-26.04V76.94h52.07zm47.38 1.96l-2.32 17h-16.38v38.4h-.3a177.303 177.303 0 0 0-18.23-.94h-5.19V76.94h12.7c9.939-.001 19.867.654 29.72 1.96z" fill="#C9C5C5"/><path d="M694.46 111.14l-20.4 41.9a173.529 173.529 0 0 0-42.6-15.51l3.14-43.86c32.19 3.37 59.86 17.47 59.86 17.47zm-.53-14.1l-3.42 9.27s-16.25-10.13-57-16.16l1.45-10.69a222.335 222.335 0 0 1 58.97 17.58zm55.87 52.22l-33.89 34.16a175.13 175.13 0 0 0-37.62-28.14l20.69-42.44c25.71 13.71 50.82 36.42 50.82 36.42zm13.16-3.06l-6.38 5.84c-20.18-21.83-50-39.25-50-39.25l2.68-8a224.996 224.996 0 0 1 53.7 41.41zm35.12 72.84l-44 20.15a174.248 174.248 0 0 0-25.1-41.4l33.54-33.81c25.96 28.2 35.56 55.06 35.56 55.06z" fill="#0062CC"/><path d="M805.9 210.32l-6.41 3.32c-18.07-37.84-40.09-58.45-40.09-58.45l6.41-5.95a223.928 223.928 0 0 1 40.09 61.08zm9.12 72.78l-47.72 7.17a173.466 173.466 0 0 0-11.24-46.31l-.33-1.52 43.47-19.77a217.403 217.403 0 0 1 15.82 60.43z" fill="#0062CC"/><path d="M824.66 288.27h-6.72c-1.32-31.71-14.12-61.93-14.12-61.93l7-3.85a222.618 222.618 0 0 1 13.84 65.78z" fill="#0062CC"/><path d="M824.89 308.41a223.087 223.087 0 0 1-12.41 66.63l-52-15.23a174.359 174.359 0 0 0 7.72-48.77l56.69-2.63zm-14.75 72.97a223.548 223.548 0 0 1-30 54.08l-42.51-28.64a174.192 174.192 0 0 0 21.18-42.11l51.33 16.67zm-41.82 68.52a221.53 221.53 0 0 1-8.93 9.47 224.888 224.888 0 0 1-42.54 33.36l-24.89-40.32a174.707 174.707 0 0 0 25.07-20.79 174.206 174.206 0 0 0 9.35-10.12l41.94 28.4zm-55.61 45.28a222.394 222.394 0 0 1-70.16 26l-6-43.69a174.059 174.059 0 0 0 52-22.74l24.16 40.43zM224.87 63.26l6.33 18.78a227.887 227.887 0 0 0-21.37 8.9l-26.72-61a287.81 287.81 0 0 1 36.42-14.2l12.13 44.94-6.79 2.58zM294.5 2.75l-4.9 66.65a229.382 229.382 0 0 0-40.35 7l-4.65-20.17-7.25 2.49-9.64-45.38A291.292 291.292 0 0 1 294.5 2.75zm44.86-.26l-2.16 44.45-4.47.34-1.53 21.28h-21.84c-4.78 0-9.527.144-14.24.43l4.94-66.41c2.28-.06 4.567-.09 6.86-.09h32.44zm75.98 0l-2.44 43.99-5.49-.2-1.56 22.28h-56.93l1.55-22.03h-7.74l1.89-44.04h70.72zm75.43 0l-3.62 44.87-4.33-.08-1.77 21.28h-56.72l1.56-21.78h-7.49l2.12-44.29h70.25zm74.44 0l-3.88 44.99-4.04.18-2.01 20.9h-56.87l1.73-21.31h-8.28l3.8-44.76h69.55zm49.74.28l-3.82 66.2c-4.55-.27-9.15-.41-13.77-.41h-27.32l1.94-21.62h-6.54l3.66-44.45h33c4.3 0 8.584.094 12.85.28zm71.36 12.07l-10.37 40.34-8.48-1.7-6 24.07a231.275 231.275 0 0 0-46.17-8.3l4-66.25a290.312 290.312 0 0 1 67.02 11.84zm90.94 46.08l-24 36.91-6.299-4.19-12.631 19.7a231.446 231.446 0 0 0-56.799-30.55l9.57-24.75-7-1.93 11-39.83a290.926 290.926 0 0 1 86.159 44.64zm70.19 75.44l-33.61 27.58-1.94-3.59-19.69 14.37a232.634 232.634 0 0 0-44.72-51l14.28-20.2-4.85-2.79 25-36.26a292.99 292.99 0 0 1 65.53 71.89zm39.05 92.68l-36.55 15.13-2.91-7.51-24.47 8.62a230.103 230.103 0 0 0-23.28-58.83l21.58-13.76-3.88-6.3 32.94-26.13a289.728 289.728 0 0 1 36.57 88.78zm7.31 65.18a293.131 293.131 0 0 1-2.45 37.94l-39.48 1.34.14-4.52-24.81 1.17a234.537 234.537 0 0 0-1-66.94l26.26-7.78-1.55-6.64 36.8-14.26a292.725 292.725 0 0 1 6.09 59.69zm-3.369 44.52a289.794 289.794 0 0 1-29.68 90.49l-35.06-11.07 2-6.42-24.34-5.15a230.198 230.198 0 0 0 21.58-62.34l25 1.24 1.28-7.72 39.22.97zm-32.641 95.99a292.737 292.737 0 0 1-49.44 65.78c-3.84 3.84-7.786 7.57-11.84 11.19l-29.77-25.07 5.69-5-16.23-12.59c1.7-1.593 3.367-3.213 5-4.86a233.07 233.07 0 0 0 34.54-44l22.18 7.64 3.22-4.92 36.65 11.83zm-64.589 79.88a291.544 291.544 0 0 1-85.52 51.63l-17.26-31.88 7.72-4.32-9.54-16.6a231.737 231.737 0 0 0 57.11-35l12.88 13.09 4.5-3.65 30.11 26.73zm-91.571 53.91a290.166 290.166 0 0 1-48.529 13l-10.33-53.88a230.758 230.758 0 0 0 31.649-8.66l7.421 19.24 5.149-2 14.64 32.3z" fill="#C9C5C5"/><path d="M591.73 151.17H307.27c-86.736 0-157.05 70.314-157.05 157.05 0 86.736 70.314 157.05 157.05 157.05h284.46c86.737 0 157.05-70.314 157.05-157.05 0-86.736-70.313-157.05-157.05-157.05z" stroke="#fff" stroke-width="10" stroke-miterlimit="10"/><path d="M224.87 63.26l6.33 18.78a227.887 227.887 0 0 0-21.37 8.9l-26.72-61a287.81 287.81 0 0 1 36.42-14.2l12.13 44.94-6.79 2.58zM294.5 2.75l-4.9 66.65a229.382 229.382 0 0 0-40.35 7l-4.65-20.17-7.25 2.49-9.64-45.38A291.292 291.292 0 0 1 294.5 2.75zm44.86-.26l-2.16 44.45-4.47.34-1.53 21.28h-21.84c-4.78 0-9.527.144-14.24.43l4.94-66.41c2.28-.06 4.567-.09 6.86-.09h32.44zm75.98 0l-2.44 43.99-5.49-.2-1.56 22.28h-56.93l1.55-22.03h-7.74l1.89-44.04h70.72zm75.43 0l-3.62 44.87-4.33-.08-1.77 21.28h-56.72l1.56-21.78h-7.49l2.12-44.29h70.25zm74.44 0l-3.88 44.99-4.04.18-2.01 20.9h-56.87l1.73-21.31h-8.28l3.8-44.76h69.55zm49.74.28l-3.82 66.2c-4.55-.27-9.15-.41-13.77-.41h-27.32l1.94-21.62h-6.54l3.66-44.45h33c4.3 0 8.584.094 12.85.28zm71.36 12.07l-10.37 40.34-8.48-1.7-6 24.07a231.275 231.275 0 0 0-46.17-8.3l4-66.25a290.312 290.312 0 0 1 67.02 11.84zm15.32 553.68a290.166 290.166 0 0 1-48.529 13l-10.33-53.88a230.758 230.758 0 0 0 31.649-8.66l7.421 19.24 5.149-2 14.64 32.3zm75.62-507.6l-24 36.91-6.299-4.19-12.631 19.7a231.446 231.446 0 0 0-56.799-30.55l9.57-24.75-7-1.93 11-39.83a290.926 290.926 0 0 1 86.159 44.64zm15.951 453.69a291.544 291.544 0 0 1-85.52 51.63l-17.26-31.88 7.72-4.32-9.54-16.6a231.737 231.737 0 0 0 57.11-35l12.88 13.09 4.5-3.65 30.11 26.73zm54.239-378.25l-33.61 27.58-1.94-3.59-19.69 14.37a232.634 232.634 0 0 0-44.72-51l14.28-20.2-4.85-2.79 25-36.26a292.99 292.99 0 0 1 65.53 71.89zm10.35 298.37a292.737 292.737 0 0 1-49.44 65.78c-3.84 3.84-7.786 7.57-11.84 11.19l-29.77-25.07 5.69-5-16.23-12.59c1.7-1.593 3.367-3.213 5-4.86a233.07 233.07 0 0 0 34.54-44l22.18 7.64 3.22-4.92 36.65 11.83zm28.7-205.69l-36.55 15.13-2.91-7.51-24.47 8.62a230.103 230.103 0 0 0-23.28-58.83l21.58-13.76-3.88-6.3 32.94-26.13a289.728 289.728 0 0 1 36.57 88.78zm3.941 109.7a289.794 289.794 0 0 1-29.68 90.49l-35.06-11.07 2-6.42-24.34-5.15a230.198 230.198 0 0 0 21.58-62.34l25 1.24 1.28-7.72 39.22.97zm3.369-44.52a293.131 293.131 0 0 1-2.45 37.94l-39.48 1.34.14-4.52-24.81 1.17a234.537 234.537 0 0 0-1-66.94l26.26-7.78-1.55-6.64 36.8-14.26a292.725 292.725 0 0 1 6.09 59.69z" fill="#C9C5C5"/><path d="M265.9 80.42l8.69 55.7a173.196 173.196 0 0 0-51.49 17.92l-17.68-39.53 6.22-3.39-5.34-11.08a222.345 222.345 0 0 1 59.6-19.62zm47.06-3.48c.94.19 1.45.32 1.45.32v56.1h-8.75c-4.846 0-9.646.197-14.4.59v-26.76H279.4l-3.73-28.29a226.265 226.265 0 0 1 29.75-2l7.54.04zm63.01 0v56.42H346.6v-28.6h-8.47v28.6h-19.19V76.94h57.03zm74.73 0v56.42h-30.86v-28.6h-9.99v28.6h-26.54V76.94h67.39zm74.91 0v56.42h-30.49v-28.6h-10.17v28.6h-29.36V76.94h70.02zm57.72 0v56.42h-16.47l.54-28.6h-9.91l-.19 28.6h-26.04V76.94h52.07zm47.38 1.96l-2.32 17h-16.38v38.4h-.3a177.303 177.303 0 0 0-18.23-.94h-5.19V76.94h12.7c9.939-.001 19.867.654 29.72 1.96zm82 416.28a222.394 222.394 0 0 1-70.16 26l-6-43.69a174.059 174.059 0 0 0 52-22.74l24.16 40.43zm55.61-45.28a221.53 221.53 0 0 1-8.93 9.47 224.888 224.888 0 0 1-42.54 33.36l-24.89-40.32a174.707 174.707 0 0 0 25.07-20.79 174.206 174.206 0 0 0 9.35-10.12l41.94 28.4zm41.82-68.52a223.548 223.548 0 0 1-30 54.08l-42.51-28.64a174.192 174.192 0 0 0 21.18-42.11l51.33 16.67zm14.75-72.97a223.087 223.087 0 0 1-12.41 66.63l-52-15.23a174.359 174.359 0 0 0 7.72-48.77l56.69-2.63z" fill="#0062CC"/><path d="M604.55 5h-310.1C134.702 5 5.2 134.502 5.2 294.25v5.81c0 159.748 129.502 289.25 289.25 289.25h310.1c159.749 0 289.25-129.502 289.25-289.25v-5.81C893.8 134.502 764.299 5 604.55 5z" stroke="#fff" stroke-width="10" stroke-miterlimit="10"/><path d="M275.45 494.8h350.94v105.24H275.45V494.8z" fill="#C9C5C5"/><g clip-path="url(#clip1_7756_224452)"><path d="M317.32 367.144V249.505l-31.12 12.729v89.122l31.12 15.788zm0-150.234h68.776v67.733h95.305a33.363 33.363 0 0 0-.164 45.32h-95.141v68.752H317.32V216.91zm172.506-24.48v50.925h81.321V192.43h-81.321zm0 179.882v49.398h81.321v-49.398h-81.321z" fill="#C9C5C5"/><path d="M393.224 192.43v50.925h94.022V192.43h-94.022zm0 179.882v49.398h94.022v-49.398h-94.022zm0-2.626v-30.594h89.52v8.19h58.453l10.065-10.695v-21.9h20.134v54.999H393.224zm0-123.601v31.068h88.581v-8.66h59.392l10.065 10.694v21.901h20.134v-55.003H393.224zm180.94 175.625V315.157h16.807v18.846h19.35v87.707h-36.157zm0-228.81v107.958h16.807v-18.842h19.35V192.9h-36.157z" fill="#C9C5C5"/><path d="M390.513 279.46H484.3v-8.688h54.975l9.092 9.092v23.222h42.942v9.12h-42.65v24.17l-8.604 8.604h-54.689v-8.19h-94.445v69.029H318.26v-5.944h69.541v-68.132h93.064l2.349-.249a33.362 33.362 0 1 0 .672-47.927h-96.362v-68.329H318.26v-6.579h72.253v70.801z" fill="#C9C5C5"/><path d="M541.131 307.812c0-19.219-15.58-34.799-34.799-34.799s-34.799 15.58-34.799 34.799 15.58 34.799 34.799 34.799 34.799-15.58 34.799-34.799z" fill="#C9C5C5" stroke="#fff" stroke-width="5" stroke-miterlimit="10"/><path d="M592.245 283.313v49.666h18.076v-49.666h-18.076z" fill="#C9C5C5"/><path d="M533.511 402.326a.63.63 0 0 1-.099.359.753.753 0 0 1-.305.222l-4.704 2.052a.531.531 0 0 1-.353.045.404.404 0 0 1-.238-.17.52.52 0 0 1-.086-.304c.001-.155.037-.269.107-.343a.69.69 0 0 1 .297-.198l4.407-1.862-.003.344-4.385-1.922a.786.786 0 0 1-.287-.21.497.497 0 0 1-.101-.337.453.453 0 0 1 .09-.287c.059-.08.14-.13.241-.151a.585.585 0 0 1 .352.059l4.671 2.124c.133.06.234.135.303.226a.58.58 0 0 1 .093.353zm.044-5.703a.63.63 0 0 1-.099.359.741.741 0 0 1-.306.222l-4.704 2.052a.528.528 0 0 1-.352.045.406.406 0 0 1-.239-.17.52.52 0 0 1-.085-.304c.001-.155.036-.269.106-.343a.7.7 0 0 1 .298-.198l4.406-1.862-.002.344-4.386-1.922a.782.782 0 0 1-.286-.21.492.492 0 0 1-.101-.337c0-.117.031-.213.09-.287a.384.384 0 0 1 .241-.151.59.59 0 0 1 .351.059l4.672 2.124c.133.06.234.135.303.227a.575.575 0 0 1 .093.352zm.03-3.975c-.001.166-.047.293-.139.383a.566.566 0 0 1-.393.125l-4.711-.036c-.171-.001-.301-.045-.391-.131a.516.516 0 0 1-.133-.385c.001-.165.047-.29.138-.375.092-.09.223-.134.393-.133l4.712.036a.566.566 0 0 1 .391.131c.09.086.135.215.133.385zm.018-2.258c-.002.166-.048.293-.139.383a.565.565 0 0 1-.393.125l-4.656-.035c-.171-.002-.298-.048-.383-.139-.09-.092-.134-.22-.133-.385l.015-1.928c.005-.619.163-1.095.475-1.429.312-.333.745-.498 1.3-.494.554.005.988.176 1.3.514.306.339.457.817.453 1.436l-.011 1.424 1.648.012a.575.575 0 0 1 .391.131c.09.086.134.215.133.385zm-2.98-.534l.01-1.264c.002-.363-.076-.638-.234-.826-.164-.188-.403-.283-.718-.286-.315-.002-.553.089-.714.275-.162.185-.244.459-.246.822l-.01 1.264 1.912.015zm2.888-167.823a.633.633 0 0 1-.099.359.762.762 0 0 1-.305.222l-4.704 2.052a.544.544 0 0 1-.353.045.409.409 0 0 1-.238-.17.523.523 0 0 1-.086-.305c.001-.154.037-.269.107-.343a.708.708 0 0 1 .297-.198l4.407-1.862-.003.344-4.385-1.922a.764.764 0 0 1-.287-.21.495.495 0 0 1-.101-.337.453.453 0 0 1 .09-.287.39.39 0 0 1 .241-.15.577.577 0 0 1 .352.059l4.671 2.124a.754.754 0 0 1 .303.226.578.578 0 0 1 .093.353zm.044-5.703a.63.63 0 0 1-.099.359.76.76 0 0 1-.306.222l-4.704 2.052a.54.54 0 0 1-.352.045.41.41 0 0 1-.239-.17.522.522 0 0 1-.085-.305c.001-.154.036-.269.106-.343a.719.719 0 0 1 .298-.198l4.406-1.862-.002.344-4.386-1.921a.772.772 0 0 1-.286-.211.49.49 0 0 1-.101-.336c0-.118.031-.214.09-.288a.387.387 0 0 1 .241-.15.574.574 0 0 1 .351.059l4.672 2.124a.754.754 0 0 1 .303.226.578.578 0 0 1 .093.353zm.03-3.975c-.001.165-.047.293-.139.383a.57.57 0 0 1-.393.125l-4.711-.037c-.171-.001-.301-.045-.391-.131-.09-.091-.135-.219-.133-.385.001-.165.047-.29.138-.375.092-.089.223-.134.393-.132l4.712.036a.566.566 0 0 1 .391.131c.09.086.135.214.133.385zm.018-2.258c-.002.165-.048.293-.139.383a.57.57 0 0 1-.393.125l-4.656-.036c-.171-.001-.298-.047-.383-.139-.09-.091-.134-.219-.133-.385l.015-1.928c.005-.618.163-1.095.475-1.428.312-.334.745-.498 1.3-.494.554.004.988.175 1.3.514.306.338.457.817.453 1.435l-.011 1.424 1.648.013a.57.57 0 0 1 .391.131c.09.086.134.214.133.385zm-2.98-.535l.01-1.264c.002-.363-.076-.638-.234-.826-.164-.188-.403-.283-.718-.285-.315-.003-.553.089-.714.274-.162.186-.244.46-.246.822l-.01 1.264 1.912.015z" fill="#fff"/></g><path d="M215.289 59.236c.046.203.028.375-.054.516a.673.673 0 0 1-.43.27c-.202.046-.366.026-.492-.06-.128-.094-.215-.242-.261-.444l-.297-1.307-5.73 1.305-.165-.723 1.429 1.479c.12.128.186.26.201.396a.672.672 0 0 1-.089.364.758.758 0 0 1-.287.25.631.631 0 0 1-.379.06.696.696 0 0 1-.395-.228l-1.336-1.39a3.352 3.352 0 0 1-.339-.414 1.08 1.08 0 0 1-.204-.407.625.625 0 0 1 .047-.44c.061-.13.193-.216.395-.263l6.511-1.483-.271-1.19c-.046-.202-.031-.37.046-.501.074-.14.213-.233.415-.279.202-.046.371-.023.507.069.133.084.223.227.269.43l.909 3.99zm-1.713-8.062c.076.335.104.692.085 1.073a3.84 3.84 0 0 1-.25 1.113.562.562 0 0 1-.248.314.74.74 0 0 1-.356.106.74.74 0 0 1-.353-.092.511.511 0 0 1-.235-.278c-.051-.119-.051-.262.001-.43.095-.3.147-.573.156-.82a2.787 2.787 0 0 0-.066-.722c-.103-.451-.295-.809-.575-1.072-.281-.263-.65-.425-1.105-.485-.465-.066-1.009-.028-1.631.114l-.876.2-.031-.14c.401-.035.769.016 1.102.153.334.137.615.343.841.619.219.277.372.607.458.988.107.467.09.912-.051 1.337a2.44 2.44 0 0 1-.737 1.076 2.985 2.985 0 0 1-1.293.626c-.537.123-1.038.118-1.501-.014a2.579 2.579 0 0 1-1.189-.748 2.82 2.82 0 0 1-.684-1.33c-.156-.684-.128-1.3.083-1.847.211-.547.595-1.015 1.153-1.404.55-.387 1.257-.68 2.12-.876.7-.16 1.341-.22 1.923-.18a3.92 3.92 0 0 1 1.522.377c.443.219.812.527 1.107.927.294.391.504.863.63 1.415zm-4.358.538a1.455 1.455 0 0 0-.354-.692 1.368 1.368 0 0 0-.651-.38 1.799 1.799 0 0 0-.834.006 1.76 1.76 0 0 0-.753.356 1.29 1.29 0 0 0-.411.621 1.446 1.446 0 0 0-.019.778c.063.28.181.51.354.692.172.182.385.31.639.383.252.065.53.063.834-.006.295-.067.546-.186.753-.356.197-.176.338-.384.423-.624.076-.238.083-.497.019-.778zm60.51-1.809c.057.25.044.444-.038.586-.092.135-.247.228-.465.278a.795.795 0 0 1-.409-.018 2.13 2.13 0 0 1-.466-.213l-3.031-1.777c-.455-.272-.852-.452-1.191-.538a2.125 2.125 0 0 0-.987-.021c-.388.088-.656.28-.801.575-.148.287-.168.664-.062 1.131.06.265.16.52.298.767.13.249.315.489.556.72.126.119.195.242.207.37a.58.58 0 0 1-.08.35.675.675 0 0 1-.275.247.692.692 0 0 1-.376.073.698.698 0 0 1-.402-.203 3.98 3.98 0 0 1-.769-1.003 4.836 4.836 0 0 1-.462-1.22c-.134-.592-.158-1.11-.071-1.555.086-.446.277-.812.571-1.1.295-.288.687-.488 1.177-.6.327-.074.658-.092.994-.054.335.03.686.118 1.055.263a7.46 7.46 0 0 1 1.203.597l2.787 1.673-.396.09-.782-3.43c-.048-.21-.033-.381.043-.513s.216-.221.418-.267c.202-.046.37-.027.504.057s.224.23.272.44l.978 4.295zm-1.655-7.265c.047.202.028.374-.054.515a.673.673 0 0 1-.43.27c-.202.046-.366.026-.492-.06-.128-.093-.214-.241-.261-.444l-.297-1.306-5.73 1.304-.165-.723 1.43 1.479a.69.69 0 0 1 .2.396.663.663 0 0 1-.089.364.755.755 0 0 1-.286.25.633.633 0 0 1-.379.061.695.695 0 0 1-.396-.229l-1.335-1.39a3.362 3.362 0 0 1-.34-.413 1.076 1.076 0 0 1-.203-.408.615.615 0 0 1 .047-.44c.06-.129.192-.216.394-.262l6.512-1.483-.271-1.19c-.047-.203-.031-.37.045-.502.074-.14.213-.232.415-.279.202-.046.371-.023.507.07.134.083.223.227.269.429l.909 3.99zm50.166 2.754c-.007.255-.068.441-.183.558-.123.108-.296.16-.519.154a.799.799 0 0 1-.392-.119 2.154 2.154 0 0 1-.398-.322l-2.495-2.474c-.373-.377-.713-.65-1.02-.817a2.122 2.122 0 0 0-.95-.266c-.399-.01-.706.109-.92.359-.214.241-.328.601-.341 1.08a2.9 2.9 0 0 0 .098.817c.065.273.185.551.361.836.091.146.128.282.108.41a.585.585 0 0 1-.164.318.677.677 0 0 1-.328.171.692.692 0 0 1-.382-.022.698.698 0 0 1-.34-.297 3.969 3.969 0 0 1-.495-1.163 4.836 4.836 0 0 1-.145-1.296c.017-.607.122-1.114.317-1.524.195-.41.47-.718.827-.924.357-.206.787-.302 1.289-.288.335.009.661.074.977.194.316.112.634.284.955.517.322.224.661.516 1.018.877l2.284 2.313-.406-.011.095-3.518c.006-.215.062-.377.168-.486.107-.109.264-.16.472-.155.207.006.365.066.474.18.108.115.16.28.154.496l-.119 4.402zm.363-9c-.012.43-.08.875-.204 1.335a3.84 3.84 0 0 1-.535 1.195.806.806 0 0 1-.368.313.656.656 0 0 1-.384.038.682.682 0 0 1-.318-.189.604.604 0 0 1-.146-.35.815.815 0 0 1 .12-.465c.185-.322.321-.633.409-.934.08-.302.124-.612.133-.93.009-.352-.031-.648-.12-.89a1.087 1.087 0 0 0-.416-.55 1.224 1.224 0 0 0-.689-.21c-.399-.01-.698.117-.896.383-.207.258-.317.642-.331 1.152l-.02.766c-.007.223-.067.393-.182.51-.115.108-.272.16-.471.155-.199-.006-.353-.066-.462-.18-.108-.123-.16-.296-.154-.52l.017-.621a1.91 1.91 0 0 0-.122-.782 1.214 1.214 0 0 0-.417-.514 1.204 1.204 0 0 0-.666-.198c-.366-.01-.649.106-.847.349-.198.234-.303.582-.316 1.044-.008.296.021.576.085.84.057.258.173.544.348.86a.653.653 0 0 1 .097.422.543.543 0 0 1-.165.319.678.678 0 0 1-.316.17.632.632 0 0 1-.382-.033.689.689 0 0 1-.339-.309 3.937 3.937 0 0 1-.471-1.15 4.571 4.571 0 0 1-.145-1.285c.016-.582.121-1.078.315-1.488.187-.41.451-.718.792-.925.333-.214.734-.315 1.205-.302.335.009.64.081.916.216a1.987 1.987 0 0 1 1.064 1.406l-.144-.004c.111-.572.363-1.012.754-1.32.384-.31.858-.456 1.425-.441.494.013.922.149 1.282.406s.634.616.821 1.076c.179.46.26 1.004.243 1.634zm64.668 7.86c-.014.255-.08.439-.198.552-.126.105-.301.151-.524.139a.798.798 0 0 1-.388-.13 2.15 2.15 0 0 1-.389-.333l-2.424-2.544c-.362-.388-.694-.67-.995-.847a2.128 2.128 0 0 0-.943-.292c-.399-.022-.708.089-.93.332-.22.236-.344.592-.371 1.07-.015.271.01.544.075.82.056.274.168.556.336.845.088.149.12.287.097.413a.587.587 0 0 1-.173.314.684.684 0 0 1-.333.161.697.697 0 0 1-.382-.033.698.698 0 0 1-.33-.306 3.974 3.974 0 0 1-.462-1.176 4.791 4.791 0 0 1-.108-1.3c.034-.606.154-1.11.36-1.515.206-.404.491-.704.853-.9.363-.195.795-.279 1.297-.251.334.019.658.093.97.222.313.121.627.302.941.543a7.5 7.5 0 0 1 .993.907l2.217 2.377-.406-.023.195-3.513c.012-.215.073-.376.182-.482.11-.105.269-.153.476-.141.207.011.363.076.468.194.106.118.152.284.141.5l-.245 4.397zm.633-9.226a5.247 5.247 0 0 1-.239 1.281 4.19 4.19 0 0 1-.581 1.178.771.771 0 0 1-.352.293.753.753 0 0 1-.396.013.684.684 0 0 1-.325-.197.565.565 0 0 1-.149-.344.747.747 0 0 1 .132-.437c.184-.285.328-.577.433-.875a3.48 3.48 0 0 0 .185-.96 1.907 1.907 0 0 0-.131-.87 1.303 1.303 0 0 0-.472-.578 1.45 1.45 0 0 0-.742-.233c-.446-.025-.812.09-1.098.346-.294.256-.454.618-.48 1.088-.014.255.016.505.09.749.067.243.197.486.391.729.06.075.119.17.176.285.05.115.071.236.064.363-.011.2-.072.348-.181.446-.109.098-.255.141-.439.131l-3.907-.217c-.215-.012-.376-.077-.481-.195-.113-.126-.163-.296-.151-.511l.218-3.932c.012-.215.077-.375.195-.48.11-.114.269-.165.476-.154.199.011.351.08.456.205.105.118.152.284.14.5l-.173 3.106 2.677.15-.022.394a2.023 2.023 0 0 1-.599-.86 2.735 2.735 0 0 1-.165-1.137c.03-.533.171-.99.424-1.367.245-.386.577-.675.995-.867.411-.201.883-.287 1.417-.257.549.03 1.028.18 1.437.451.4.27.707.643.921 1.118.205.467.291 1.015.256 1.645zm71.339 9.354c-.008.255-.069.441-.184.557-.123.109-.296.16-.519.153a.794.794 0 0 1-.392-.12 2.123 2.123 0 0 1-.398-.323l-2.488-2.48c-.372-.378-.712-.652-1.018-.82a2.125 2.125 0 0 0-.95-.268c-.399-.012-.705.107-.92.356-.215.241-.329.6-.344 1.08-.008.27.024.543.096.816.064.274.183.553.358.837.092.147.128.283.108.41a.592.592 0 0 1-.165.319.684.684 0 0 1-.328.17.697.697 0 0 1-.383-.024.697.697 0 0 1-.338-.297 3.948 3.948 0 0 1-.493-1.164 4.795 4.795 0 0 1-.141-1.297c.018-.606.125-1.114.321-1.523.195-.41.472-.717.829-.922.357-.205.787-.3 1.29-.285.335.01.66.076.976.197.316.113.634.286.954.519.321.225.659.518 1.016.88l2.278 2.318-.407-.012.104-3.517c.007-.215.063-.377.17-.486.107-.108.264-.16.472-.153.207.006.365.066.473.181.109.115.16.28.153.496l-.13 4.402zm.322-7.637a.755.755 0 0 1-.145.451.522.522 0 0 1-.353.205c-.153.02-.319-.021-.5-.122l-6.688-3.814.527.015-.115 3.876c-.006.215-.067.381-.182.498-.115.108-.273.16-.472.153-.207-.006-.365-.066-.474-.181-.108-.123-.159-.292-.152-.508l.137-4.63a.798.798 0 0 1 .183-.52c.116-.133.277-.196.485-.19a1.4 1.4 0 0 1 .464.086c.126.051.264.12.413.203l6.395 3.59a.863.863 0 0 1 .373.359c.076.137.11.314.104.53zm78.715 9.46c-.017.254-.085.438-.204.55-.127.104-.302.148-.525.133a.798.798 0 0 1-.387-.133 2.136 2.136 0 0 1-.386-.337l-2.398-2.568c-.358-.392-.687-.677-.987-.857a2.123 2.123 0 0 0-.94-.301c-.398-.026-.709.081-.932.322-.224.233-.351.589-.382 1.067-.018.27.004.544.066.82.054.275.163.558.328.849.086.15.117.287.093.414a.587.587 0 0 1-.177.312.677.677 0 0 1-.334.158.693.693 0 0 1-.381-.037.7.7 0 0 1-.328-.31 3.993 3.993 0 0 1-.45-1.18 4.787 4.787 0 0 1-.094-1.302c.039-.605.164-1.109.375-1.51.21-.403.497-.7.862-.892.364-.192.797-.271 1.299-.238.334.022.657.099.968.231.312.125.623.31.935.553.312.237.64.542.984.917l2.193 2.398-.406-.026.23-3.511c.014-.215.077-.375.188-.48.111-.104.269-.15.476-.136.207.013.363.08.467.198.104.119.149.286.135.5l-.288 4.396zm.677-8.49a3.875 3.875 0 0 1-.225 1.052c-.136.359-.321.69-.557.995a.56.56 0 0 1-.327.23.741.741 0 0 1-.372 0 .734.734 0 0 1-.311-.189.508.508 0 0 1-.146-.333c-.016-.13.025-.266.123-.412.177-.26.305-.508.384-.742.08-.235.127-.472.143-.71.03-.462-.052-.86-.246-1.192-.194-.333-.501-.593-.92-.78-.427-.196-.959-.315-1.596-.357l-.896-.058.01-.144c.394.082.732.236 1.013.462.281.227.491.504.629.833.13.329.183.688.157 1.078-.031.478-.175.9-.431 1.267a2.44 2.44 0 0 1-1.013.821 2.994 2.994 0 0 1-1.419.23c-.549-.035-1.027-.182-1.434-.441a2.585 2.585 0 0 1-.926-1.056 2.822 2.822 0 0 1-.276-1.47c.046-.7.249-1.283.607-1.747.358-.464.86-.803 1.506-1.017.638-.214 1.398-.291 2.282-.233.717.047 1.348.172 1.894.376.539.195.99.46 1.351.796.362.336.628.737.797 1.204.17.459.236.97.199 1.536zm-4.33-.729a1.442 1.442 0 0 0-.142-.765 1.362 1.362 0 0 0-.515-.55 1.795 1.795 0 0 0-.801-.232c-.31-.02-.585.022-.823.126a1.29 1.29 0 0 0-.572.478 1.457 1.457 0 0 0-.24.74c-.019.287.028.542.142.765a1.4 1.4 0 0 0 .503.549c.223.134.49.212.801.232.302.02.577-.022.823-.126.24-.112.434-.271.584-.477.141-.207.221-.453.24-.74zm62.874 8.431c-.025.43-.107.873-.246 1.329-.139.455-.33.847-.573 1.177a.808.808 0 0 1-.377.301.656.656 0 0 1-.385.026.676.676 0 0 1-.312-.199.605.605 0 0 1-.135-.355.806.806 0 0 1 .135-.46c.194-.316.34-.623.438-.921.089-.299.143-.607.162-.926.021-.35-.01-.648-.091-.892a1.091 1.091 0 0 0-.399-.563 1.225 1.225 0 0 0-.682-.232c-.398-.024-.701.094-.908.354-.214.25-.337.631-.367 1.141l-.045.765c-.013.223-.078.39-.197.504-.118.105-.277.151-.476.14-.199-.012-.351-.077-.456-.195-.104-.126-.15-.3-.137-.524l.037-.621a1.92 1.92 0 0 0-.098-.785 1.207 1.207 0 0 0-.401-.527 1.199 1.199 0 0 0-.658-.219c-.367-.021-.653.086-.858.321-.205.228-.322.573-.349 1.035a3.2 3.2 0 0 0 .058.843c.049.258.156.548.321.87a.65.65 0 0 1 .083.424.541.541 0 0 1-.175.314.674.674 0 0 1-.321.16.633.633 0 0 1-.381-.046.69.69 0 0 1-.329-.319 3.999 3.999 0 0 1-.435-1.165 4.593 4.593 0 0 1-.103-1.288c.034-.582.155-1.074.362-1.478.2-.404.473-.703.82-.899.34-.203.745-.291 1.215-.264.334.02.637.102.909.245.263.144.483.337.661.579.177.242.296.529.357.86l-.144-.008c.13-.568.395-1 .796-1.296.393-.297.873-.428 1.438-.395.494.029.917.178 1.269.446.351.269.614.636.786 1.102.164.465.228 1.012.191 1.641zm.211-5.617c-.012.207-.078.367-.196.48a.675.675 0 0 1-.488.139c-.207-.013-.359-.077-.456-.195-.097-.126-.139-.292-.127-.499l.079-1.338-5.866-.345.044-.741.959 1.819a.693.693 0 0 1 .083.436.676.676 0 0 1-.187.325.765.765 0 0 1-.345.16.63.63 0 0 1-.381-.047.7.7 0 0 1-.317-.33l-.894-1.707a3.333 3.333 0 0 1-.211-.492 1.09 1.09 0 0 1-.081-.449.613.613 0 0 1 .168-.41c.094-.106.244-.153.451-.14l6.667.392.072-1.219c.012-.207.073-.363.183-.469.111-.113.27-.164.477-.152.207.013.363.082.467.208.105.118.152.28.139.488l-.24 4.086zm53.037 8.032a5.69 5.69 0 0 1-.417 1.285 3.876 3.876 0 0 1-.722 1.092.808.808 0 0 1-.414.25.655.655 0 0 1-.385-.026.68.68 0 0 1-.284-.237.605.605 0 0 1-.087-.37.816.816 0 0 1 .194-.439 4.37 4.37 0 0 0 .555-.856c.128-.284.222-.583.282-.896.066-.345.075-.644.026-.897a1.084 1.084 0 0 0-.321-.61 1.222 1.222 0 0 0-.646-.32c-.391-.075-.707.003-.946.233-.246.22-.417.582-.513 1.083l-.145.752c-.042.22-.129.378-.262.474-.131.089-.294.114-.49.077-.196-.038-.338-.122-.426-.253-.088-.139-.11-.318-.068-.537l.118-.611c.057-.298.059-.562.006-.791a1.215 1.215 0 0 0-.328-.575 1.203 1.203 0 0 0-.625-.303c-.36-.07-.658-.001-.892.206-.234.199-.394.525-.481.98-.056.29-.074.57-.053.843.015.262.082.564.204.904a.645.645 0 0 1 .026.432.537.537 0 0 1-.213.288.682.682 0 0 1-.34.117.63.63 0 0 1-.371-.096.686.686 0 0 1-.285-.359 3.987 3.987 0 0 1-.279-1.211 4.6 4.6 0 0 1 .066-1.292c.11-.572.295-1.044.553-1.417.251-.374.561-.636.931-.784.363-.157.776-.192 1.239-.103.329.064.618.184.868.362a1.987 1.987 0 0 1 .822 1.56l-.142-.027c.203-.546.523-.94.959-1.18.428-.243.921-.31 1.477-.204.486.094.886.296 1.199.609.314.312.526.71.636 1.195.102.482.093 1.033-.026 1.652zm1.356-7.047a5.66 5.66 0 0 1-.418 1.285 3.834 3.834 0 0 1-.722 1.092.803.803 0 0 1-.413.25.656.656 0 0 1-.385-.026.681.681 0 0 1-.284-.237.605.605 0 0 1-.087-.37.816.816 0 0 1 .194-.439 4.38 4.38 0 0 0 .555-.856c.128-.284.222-.583.282-.896.066-.345.075-.644.026-.897a1.09 1.09 0 0 0-.321-.61 1.222 1.222 0 0 0-.646-.32c-.391-.075-.707.003-.946.233-.246.22-.417.582-.513 1.083l-.145.752c-.042.22-.13.378-.262.474-.131.089-.294.114-.49.076-.196-.037-.338-.121-.427-.252-.087-.139-.109-.318-.067-.537l.118-.611c.057-.298.059-.562.006-.791a1.215 1.215 0 0 0-.328-.575 1.203 1.203 0 0 0-.625-.303c-.36-.07-.658-.001-.892.206-.234.198-.394.525-.481.98-.056.29-.074.57-.053.843.014.262.082.564.204.904a.645.645 0 0 1 .026.432.537.537 0 0 1-.213.288.682.682 0 0 1-.34.117.63.63 0 0 1-.371-.096.686.686 0 0 1-.285-.359 3.987 3.987 0 0 1-.279-1.211 4.6 4.6 0 0 1 .066-1.292c.11-.572.294-1.044.553-1.417.251-.374.561-.636.931-.784.363-.157.776-.192 1.238-.103.33.064.619.184.869.362a1.98 1.98 0 0 1 .821 1.56l-.141-.027c.203-.546.522-.94.959-1.18.428-.243.921-.31 1.477-.204.486.094.886.296 1.199.609.314.312.526.71.636 1.194.102.483.093 1.034-.026 1.653zm72.986 33.31a5.696 5.696 0 0 1-.638 1.191c-.27.392-.571.708-.903.948a.804.804 0 0 1-.451.172.657.657 0 0 1-.375-.093.69.69 0 0 1-.237-.283.607.607 0 0 1-.02-.38.808.808 0 0 1 .268-.397 4.32 4.32 0 0 0 .697-.745c.176-.257.321-.534.436-.832.126-.328.187-.62.184-.878a1.09 1.09 0 0 0-.209-.658 1.224 1.224 0 0 0-.579-.428c-.372-.143-.697-.122-.973.062-.28.174-.513.5-.696.976l-.275.715c-.08.208-.194.348-.341.42-.145.064-.31.06-.496-.011-.186-.072-.311-.18-.375-.324-.062-.152-.052-.332.028-.54l.224-.582a1.92 1.92 0 0 0 .145-.777 1.21 1.21 0 0 0-.222-.624 1.197 1.197 0 0 0-.561-.408c-.342-.132-.647-.117-.915.045-.265.155-.48.448-.646.88a3.189 3.189 0 0 0-.201.82c-.032.262-.018.57.042.927a.655.655 0 0 1-.05.43.538.538 0 0 1-.262.245.68.68 0 0 1-.355.056.631.631 0 0 1-.348-.16.684.684 0 0 1-.217-.404 3.981 3.981 0 0 1-.061-1.242c.038-.43.135-.85.293-1.26.209-.543.474-.975.794-1.297.313-.324.664-.526 1.054-.607.386-.091.798-.052 1.238.117.312.12.576.29.791.51a1.987 1.987 0 0 1 .533 1.68l-.134-.052c.296-.502.68-.833 1.152-.993.464-.163.961-.143 1.49.06.462.178.819.448 1.073.81.254.364.392.793.415 1.289.015.493-.09 1.034-.317 1.622zm2.664-6.92a5.23 5.23 0 0 1-.621 1.146 4.207 4.207 0 0 1-.915.943.77.77 0 0 1-.424.17.756.756 0 0 1-.382-.108.688.688 0 0 1-.248-.288.562.562 0 0 1-.036-.373.745.745 0 0 1 .26-.375c.262-.215.489-.448.68-.7.19-.251.347-.537.471-.857.12-.313.167-.603.142-.87a1.3 1.3 0 0 0-.272-.694 1.451 1.451 0 0 0-.635-.449c-.417-.16-.801-.163-1.151-.007-.358.153-.622.449-.791.888a2.154 2.154 0 0 0-.144.74c-.011.252.038.523.149.814.034.09.06.198.08.325a.79.79 0 0 1-.051.366c-.072.186-.174.309-.308.368-.135.06-.287.057-.458-.01l-3.653-1.405c-.201-.077-.334-.188-.398-.332-.068-.155-.064-.333.013-.534l1.414-3.675c.078-.201.189-.334.333-.398.14-.074.306-.074.5 0 .186.072.31.184.371.336.064.144.058.317-.02.518l-1.117 2.904 2.502.963-.142.368a2.034 2.034 0 0 1-.307-1.002 2.76 2.76 0 0 1 .192-1.132c.192-.5.466-.89.823-1.171a2.288 2.288 0 0 1 1.213-.52c.453-.066.928-.002 1.427.19.514.197.924.487 1.23.87.298.38.476.829.533 1.347.053.507-.034 1.055-.26 1.643zm140.178 232.15a5.69 5.69 0 0 1-.125 1.345 3.874 3.874 0 0 1-.465 1.223.806.806 0 0 1-.349.335.651.651 0 0 1-.382.059.68.68 0 0 1-.328-.169.601.601 0 0 1-.166-.342.805.805 0 0 1 .093-.47c.165-.332.283-.651.353-.957.063-.305.089-.617.079-.936-.011-.351-.068-.645-.171-.881a1.09 1.09 0 0 0-.447-.525 1.226 1.226 0 0 0-.7-.17c-.399.012-.69.157-.873.434-.191.27-.279.66-.263 1.17l.024.766c.007.223-.044.396-.152.519-.108.115-.262.176-.461.182-.199.006-.357-.045-.472-.153-.115-.116-.176-.286-.183-.509l-.019-.622a1.922 1.922 0 0 0-.168-.773 1.21 1.21 0 0 0-.446-.489 1.205 1.205 0 0 0-.676-.159c-.367.011-.642.144-.826.397-.184.245-.268.599-.254 1.062.009.295.054.573.134.834.071.253.204.532.397.837a.65.65 0 0 1 .12.416.54.54 0 0 1-.145.328.646.646 0 0 1-.689.177.686.686 0 0 1-.356-.289 3.953 3.953 0 0 1-.538-1.121 4.588 4.588 0 0 1-.219-1.274c-.018-.582.058-1.083.229-1.504.162-.42.408-.743.736-.969.32-.233.715-.357 1.186-.372.335-.01.644.044.927.163a1.987 1.987 0 0 1 1.143 1.342l-.144.004c.078-.577.304-1.031.677-1.362.364-.331.83-.505 1.396-.522.495-.016.929.095 1.304.33.374.236.668.578.882 1.027.205.448.318.988.337 1.618zm-.204-5.809a.746.746 0 0 1-.117.459.524.524 0 0 1-.341.226c-.15.029-.319-.002-.505-.092l-6.907-3.402.526-.016.12 3.876c.007.215-.043.384-.151.507-.109.116-.262.176-.462.182-.207.007-.368-.044-.483-.152-.116-.116-.177-.282-.184-.497l-.143-4.63a.795.795 0 0 1 .151-.531c.107-.139.265-.212.472-.219.175-.005.332.014.469.058.129.044.27.103.424.178l6.602 3.196a.858.858 0 0 1 .393.335c.084.133.129.307.136.522zm-14.942 95.842c-.132.41-.322.818-.571 1.224a3.852 3.852 0 0 1-.849.997.797.797 0 0 1-.44.197.659.659 0 0 1-.38-.071.686.686 0 0 1-.252-.27.608.608 0 0 1-.042-.378.817.817 0 0 1 .246-.412c.267-.257.485-.518.654-.782.161-.267.291-.552.389-.856.107-.334.152-.63.134-.887a1.082 1.082 0 0 0-.245-.645 1.223 1.223 0 0 0-.602-.395c-.379-.122-.702-.083-.967.116-.271.19-.485.527-.641 1.014l-.235.729c-.068.212-.174.358-.317.438-.141.072-.306.078-.496.017-.19-.062-.321-.162-.393-.303-.069-.148-.07-.328-.001-.541l.19-.593c.093-.288.127-.55.102-.784a1.218 1.218 0 0 0-.256-.611 1.202 1.202 0 0 0-.583-.376c-.349-.112-.653-.08-.911.097-.256.169-.455.474-.596.914a3.18 3.18 0 0 0-.155.83c-.017.263.014.571.093.923a.646.646 0 0 1-.026.432.538.538 0 0 1-.247.26.678.678 0 0 1-.351.075.631.631 0 0 1-.357-.14.683.683 0 0 1-.239-.391 3.959 3.959 0 0 1-.13-1.236c.013-.432.087-.857.222-1.274.178-.555.418-1.001.72-1.34.294-.341.634-.563 1.019-.665.38-.113.794-.097 1.242.047.319.103.592.258.818.465.22.205.385.447.496.726.112.278.155.586.131.922l-.137-.044c.267-.518.632-.87 1.094-1.056.455-.189.952-.197 1.491-.023.471.152.844.401 1.117.749.274.348.436.769.486 1.263.043.492-.032 1.038-.225 1.638zm2.049-6.364a3.93 3.93 0 0 1-.475.966c-.219.315-.48.592-.782.829a.563.563 0 0 1-.374.144.732.732 0 0 1-.36-.091.726.726 0 0 1-.256-.258.508.508 0 0 1-.061-.359c.017-.129.09-.252.22-.37.235-.209.419-.418.553-.626a2.76 2.76 0 0 0 .312-.654c.141-.441.159-.846.052-1.216-.108-.369-.342-.696-.703-.98-.367-.294-.854-.539-1.461-.735l-.855-.275.044-.136c.363.175.653.407.871.695.217.288.353.608.407.961.046.35.01.711-.11 1.083a2.446 2.446 0 0 1-.727 1.124 2.448 2.448 0 0 1-1.182.55 2.991 2.991 0 0 1-1.432-.122c-.524-.169-.952-.428-1.284-.778a2.58 2.58 0 0 1-.641-1.25 2.806 2.806 0 0 1 .091-1.492c.215-.668.553-1.184 1.013-1.547.461-.363 1.03-.569 1.708-.619.671-.053 1.428.057 2.271.328.683.221 1.265.496 1.746.827.475.32.847.687 1.116 1.101.269.413.429.867.48 1.361.053.487-.008 1-.181 1.539zm-4.023-1.761c.088-.273.105-.532.049-.776a1.378 1.378 0 0 0-.366-.659 1.796 1.796 0 0 0-.72-.42 1.754 1.754 0 0 0-.83-.078 1.29 1.29 0 0 0-.67.324 1.449 1.449 0 0 0-.413.659 1.45 1.45 0 0 0-.049.777c.055.244.174.462.355.655.183.185.423.325.719.42.289.093.566.119.83.079.259-.051.487-.158.682-.322.187-.165.325-.385.413-.659zm-45.136 88.935c-.152.184-.32.288-.505.312-.191.018-.382-.051-.573-.209l-.72-.594-1.881 2.281c-.157.19-.324.311-.501.362-.171.045-.343-.004-.515-.146a1.083 1.083 0 0 1-.263-.34 4.32 4.32 0 0 1-.225-.667l-1.579-5.553a1.31 1.31 0 0 1-.059-.53.83.83 0 0 1 .195-.444.72.72 0 0 1 .475-.275c.179-.029.37.041.573.208l3.776 3.115.373-.452c.148-.179.3-.276.457-.291.156-.026.314.027.474.159.16.132.245.28.255.443.009.152-.06.317-.207.496l-.373.452.72.594c.191.158.295.332.314.523.012.186-.058.371-.211.556zm-2.777-1.298l-2.88-2.376.221-.268 1.397 4.814-.314-.259 1.576-1.911zm5.313-1.926c-.132.16-.279.25-.442.271a.674.674 0 0 1-.476-.175c-.16-.132-.244-.274-.253-.426-.004-.158.06-.318.192-.478l.853-1.034-4.533-3.739.472-.572-.298 2.035a.698.698 0 0 1-.191.401.672.672 0 0 1-.342.151.766.766 0 0 1-.373-.074.632.632 0 0 1-.28-.262.698.698 0 0 1-.061-.454l.285-1.906c.027-.184.067-.358.12-.522.046-.168.112-.305.198-.41a.622.622 0 0 1 .378-.231c.138-.031.288.02.448.152l5.152 4.249.777-.941c.132-.16.273-.25.424-.271.156-.026.314.027.475.159.16.132.245.28.255.443.015.157-.044.316-.176.476l-2.604 3.158zm-76.775 60.593c-.2.131-.392.181-.575.149-.188-.039-.35-.162-.486-.369l-.512-.781-2.471 1.622c-.207.136-.402.202-.586.198-.177-.008-.327-.105-.449-.292a1.094 1.094 0 0 1-.15-.403 4.32 4.32 0 0 1-.018-.704l.135-5.771a1.33 1.33 0 0 1 .1-.524.847.847 0 0 1 .318-.366.719.719 0 0 1 .536-.122c.179.025.341.148.485.369l2.685 4.092.491-.321c.193-.127.367-.175.522-.143.157.021.292.119.406.292.114.174.151.34.112.499-.036.148-.151.285-.344.412l-.491.322.512.781c.136.206.184.404.145.591-.043.182-.165.338-.365.469zm-2.269-2.061l-2.048-3.122.29-.191-.09 5.012-.223-.34 2.071-1.359zm7.011-1.022c-.36.237-.764.435-1.212.596-.448.16-.877.241-1.287.242a.802.802 0 0 1-.467-.123.65.65 0 0 1-.25-.294.684.684 0 0 1-.027-.368.605.605 0 0 1 .205-.321.816.816 0 0 1 .449-.166c.37-.032.703-.099 1.001-.198.293-.106.573-.247.839-.422.294-.193.514-.395.662-.606.148-.211.219-.43.214-.656a1.219 1.219 0 0 0-.221-.685c-.219-.334-.494-.506-.826-.517-.329-.023-.708.106-1.135.386l-.64.42c-.187.123-.361.17-.522.143-.155-.033-.287-.132-.396-.299-.11-.167-.148-.327-.116-.482.039-.159.151-.3.338-.422l.52-.342c.254-.166.445-.348.572-.547.123-.204.185-.416.184-.636a1.197 1.197 0 0 0-.218-.658c-.201-.307-.457-.473-.769-.497-.305-.029-.652.083-1.038.337a3.164 3.164 0 0 0-.642.55 3.298 3.298 0 0 0-.507.776.651.651 0 0 1-.291.32.536.536 0 0 1-.355.047.634.634 0 0 1-.511-.495.683.683 0 0 1 .059-.454c.165-.375.39-.723.675-1.044.282-.328.606-.612.973-.853.487-.319.954-.516 1.401-.59.444-.081.847-.04 1.211.122.366.151.679.423.937.816.184.281.299.572.345.876.042.297.019.589-.069.876a2.08 2.08 0 0 1-.477.8l-.079-.121c.533-.235 1.037-.28 1.514-.134.473.138.865.444 1.175.918.272.413.405.841.399 1.284-.005.443-.143.872-.414 1.288-.275.41-.677.788-1.204 1.133zm-64.101 31.163c.053.233.032.43-.062.591-.102.162-.274.271-.515.325l-.91.208.656 2.882c.055.241.049.447-.018.618-.07.163-.213.27-.431.319a1.087 1.087 0 0 1-.43 0 4.46 4.46 0 0 1-.666-.229l-5.361-2.142a1.305 1.305 0 0 1-.455-.277.84.84 0 0 1-.232-.426.722.722 0 0 1 .072-.544c.087-.159.258-.268.515-.326l4.773-1.087-.13-.572c-.052-.226-.035-.405.049-.539.074-.14.213-.233.415-.279.202-.046.371-.023.507.069.125.086.214.242.265.467l.131.572.91-.207c.241-.055.443-.032.605.071.155.103.259.272.312.506zm-2.724 1.406l-3.641.829-.077-.339 4.665 1.835-.397.09-.55-2.415zm1.13-8.404c.053.234.033.431-.062.591-.102.163-.273.271-.515.326l-.91.208.657 2.882c.055.241.048.447-.019.618-.069.163-.213.269-.431.319a1.101 1.101 0 0 1-.429 0 4.384 4.384 0 0 1-.666-.229l-5.361-2.142a1.32 1.32 0 0 1-.456-.277.84.84 0 0 1-.232-.426.722.722 0 0 1 .072-.544c.087-.159.259-.268.515-.326l4.773-1.087-.13-.572c-.051-.226-.035-.405.049-.539.075-.14.213-.233.415-.279.202-.046.371-.023.507.069.126.086.214.242.266.467l.13.572.91-.207c.241-.055.443-.032.606.071.154.103.258.272.311.505zm-2.724 1.406l-3.641.83-.077-.339 4.665 1.835-.397.09-.55-2.416zm10.318-52.408c.053.233.032.43-.062.591-.102.162-.274.271-.515.325l-.91.208.656 2.882c.055.241.049.447-.018.618-.07.163-.213.27-.431.319a1.087 1.087 0 0 1-.43 0 4.46 4.46 0 0 1-.666-.229l-5.361-2.142a1.305 1.305 0 0 1-.455-.277.84.84 0 0 1-.232-.426.722.722 0 0 1 .072-.544c.087-.159.258-.268.515-.326l4.773-1.087-.13-.572c-.052-.226-.035-.405.049-.539.074-.14.213-.233.415-.279.202-.046.371-.023.507.069.125.086.214.242.265.467l.131.572.91-.207c.241-.055.443-.032.605.071.155.103.259.272.312.506zm-2.724 1.406l-3.641.829-.077-.339 4.665 1.835-.397.09-.55-2.415zm1.385-7.394c.154.677.126 1.293-.083 1.848-.218.549-.603 1.017-1.153 1.404s-1.257.679-2.12.876c-.7.159-1.337.223-1.909.189-.582-.039-1.094-.168-1.536-.386a3.058 3.058 0 0 1-1.105-.915 3.787 3.787 0 0 1-.632-1.427 3.577 3.577 0 0 1-.073-1.076c.02-.381.099-.751.238-1.11a.56.56 0 0 1 .248-.314.706.706 0 0 1 .371-.097.67.67 0 0 1 .352.092.545.545 0 0 1 .233.266.685.685 0 0 1-.012.432c-.096.3-.148.574-.157.822-.009.247.013.488.066.721.103.451.295.809.576 1.072.28.263.65.429 1.107.497.455.059.998.018 1.628-.126l.876-.199.032.14a2.466 2.466 0 0 1-1.103-.154 2.003 2.003 0 0 1-.829-.621 2.35 2.35 0 0 1-.47-.986 2.414 2.414 0 0 1 .051-1.337c.142-.417.388-.776.737-1.076.349-.301.78-.509 1.294-.626a2.956 2.956 0 0 1 1.503.025c.464.132.863.377 1.198.734.326.352.55.796.672 1.332zm-1.172.353a1.45 1.45 0 0 0-.354-.692 1.29 1.29 0 0 0-.639-.383 1.81 1.81 0 0 0-.834.006 1.748 1.748 0 0 0-.753.356c-.2.168-.336.375-.411.621-.085.24-.095.5-.031.781.064.28.185.51.366.69.172.181.385.309.639.382.252.065.53.063.833-.006a1.79 1.79 0 0 0 .754-.356c.197-.176.334-.383.411-.621.076-.239.083-.498.019-.778zm56.066-30.011c-.177.161-.359.24-.545.237-.191-.009-.371-.105-.537-.288l-.629-.69-2.185 1.991c-.183.166-.366.262-.547.288-.176.02-.34-.053-.49-.218a1.085 1.085 0 0 1-.211-.374 4.326 4.326 0 0 1-.129-.692l-.775-5.721a1.302 1.302 0 0 1 .017-.533.833.833 0 0 1 .256-.412.719.719 0 0 1 .509-.205c.181-.003.36.093.538.288l3.296 3.619.433-.395c.171-.156.336-.23.494-.223.158-.004.307.071.447.225.139.153.203.311.189.474-.013.152-.104.306-.275.462l-.434.395.629.69c.166.183.245.37.236.562-.014.185-.11.359-.287.52zm-2.565-1.679l-2.514-2.76.256-.234.7 4.963-.274-.3 1.832-1.669zm6.94-2.273a5.223 5.223 0 0 1-1.069.746 4.178 4.178 0 0 1-1.24.434.78.78 0 0 1-.455-.038.755.755 0 0 1-.293-.268.681.681 0 0 1-.093-.369.556.556 0 0 1 .135-.349.741.741 0 0 1 .4-.219c.331-.075.638-.182.922-.321.283-.139.551-.325.805-.556.248-.225.42-.463.516-.713.096-.249.119-.497.069-.742a1.456 1.456 0 0 0-.366-.686c-.301-.331-.643-.505-1.027-.523-.388-.023-.756.123-1.105.44a2.136 2.136 0 0 0-.459.597c-.124.22-.201.485-.232.794a1.667 1.667 0 0 1-.075.327.794.794 0 0 1-.209.304c-.148.134-.295.198-.441.191-.147-.007-.282-.078-.405-.214l-2.635-2.893c-.145-.16-.214-.318-.207-.476.008-.169.092-.326.251-.471l2.911-2.651c.159-.145.318-.214.476-.207.158-.004.307.071.447.224.134.148.194.303.181.466-.007.158-.091.309-.25.455l-2.3 2.095 1.805 1.982-.292.266a2.027 2.027 0 0 1 .175-1.034 2.76 2.76 0 0 1 .679-.926c.395-.36.815-.586 1.26-.678a2.29 2.29 0 0 1 1.318.079c.434.144.831.414 1.19.809.371.407.607.85.709 1.33.097.473.055.954-.126 1.442-.181.478-.504.929-.97 1.353zm43.22-50.529c-.107.213-.249.352-.423.416-.183.061-.384.035-.605-.075l-.835-.419-1.326 2.642c-.111.221-.246.376-.407.465-.157.082-.336.073-.535-.028a1.087 1.087 0 0 1-.332-.273 4.277 4.277 0 0 1-.368-.6l-2.776-5.062a1.331 1.331 0 0 1-.176-.504.844.844 0 0 1 .092-.476.722.722 0 0 1 .402-.374c.168-.068.37-.042.605.076l4.375 2.196.263-.525c.104-.206.231-.335.38-.384.147-.061.313-.044.498.049.186.093.301.218.347.375.043.146.012.323-.091.529l-.263.525.834.418c.221.111.362.258.422.44.053.178.026.375-.081.589zm-2.996-.647l-3.338-1.675.156-.31 2.434 4.381-.364-.182 1.112-2.214zm4.626-2.815c-.114.228-.248.371-.402.427-.157.047-.335.02-.535-.081a.795.795 0 0 1-.305-.273 2.154 2.154 0 0 1-.224-.461l-1.21-3.299c-.177-.499-.369-.89-.576-1.173a2.134 2.134 0 0 0-.748-.643c-.357-.179-.685-.201-.985-.066-.296.128-.552.406-.767.834a2.914 2.914 0 0 0-.258.781 2.84 2.84 0 0 0-.028.91c.021.171-.004.31-.076.417a.576.576 0 0 1-.284.219.699.699 0 0 1-.706-.167.694.694 0 0 1-.181-.412 3.963 3.963 0 0 1 .045-1.263c.086-.439.226-.851.419-1.236.272-.542.583-.957.933-1.246.35-.288.731-.45 1.141-.485.41-.035.84.06 1.289.286.3.15.567.347.802.59.239.236.455.527.647.873.195.339.379.748.549 1.227l1.087 3.063-.363-.183 1.578-3.145c.097-.192.216-.315.359-.368.143-.054.307-.034.493.059.185.093.302.215.352.365.05.15.026.321-.07.514l-1.976 3.936zm18.955-54.421c-.029.238-.116.416-.259.535-.151.118-.35.162-.595.131l-.927-.115-.364 2.933c-.031.246-.107.437-.229.575-.12.13-.291.181-.513.153a1.075 1.075 0 0 1-.404-.146 4.35 4.35 0 0 1-.548-.442l-4.311-3.841a1.311 1.311 0 0 1-.334-.415.838.838 0 0 1-.073-.479.726.726 0 0 1 .253-.488c.136-.119.334-.163.596-.131l4.857.604.073-.582c.028-.229.105-.393.229-.49.118-.106.28-.146.486-.12.206.025.357.104.453.237.089.123.119.3.091.53l-.073.582.927.115c.245.03.427.121.545.273.11.15.15.344.12.581zm-3.04.394l-3.705-.46.043-.345 3.761 3.314-.404-.05.305-2.459zm3.782-6.17c-.123.99-.589 1.7-1.398 2.13-.817.429-1.919.557-3.304.385-.934-.116-1.704-.328-2.309-.637-.612-.317-1.052-.721-1.321-1.213-.267-.5-.36-1.078-.278-1.735.124-.998.582-1.709 1.374-2.133.794-.432 1.887-.561 3.281-.388.926.115 1.699.332 2.319.65.613.309 1.061.711 1.346 1.204.276.493.373 1.072.29 1.737zm-1.247-.155c.067-.538-.133-.965-.6-1.281-.467-.323-1.23-.551-2.291-.682-1.061-.132-1.846-.097-2.353.105-.515.193-.805.559-.872 1.098-.066.53.126.956.577 1.277.442.321 1.194.547 2.255.679s1.857.098 2.388-.101c.532-.2.83-.565.896-1.095zM660.643 129.132a5.736 5.736 0 0 1-.327 1.31 3.87 3.87 0 0 1-.644 1.14.805.805 0 0 1-.395.278.65.65 0 0 1-.386.001.682.682 0 0 1-.3-.217.609.609 0 0 1-.113-.363.818.818 0 0 1 .163-.45c.214-.304.379-.602.494-.893.108-.292.181-.597.219-.914.042-.348.03-.647-.036-.896a1.086 1.086 0 0 0-.363-.587 1.225 1.225 0 0 0-.666-.273c-.396-.048-.706.051-.928.298-.23.237-.376.609-.437 1.116l-.092.761c-.027.221-.103.385-.228.49-.124.098-.285.135-.483.111-.198-.024-.346-.098-.444-.223-.096-.132-.131-.309-.104-.531l.074-.618c.037-.301.02-.564-.049-.789a1.212 1.212 0 0 0-.367-.551 1.205 1.205 0 0 0-.644-.259c-.364-.044-.656.046-.876.268-.219.215-.356.552-.412 1.011-.035.293-.033.575.007.845.032.261.121.557.266.888a.65.65 0 0 1 .057.429.542.542 0 0 1-.194.302.673.673 0 0 1-.33.141.634.634 0 0 1-.378-.07.692.692 0 0 1-.308-.339 3.927 3.927 0 0 1-.363-1.189 4.58 4.58 0 0 1-.024-1.292c.07-.579.221-1.063.453-1.453.224-.39.515-.673.874-.846.351-.183.761-.246 1.228-.189.333.04.63.14.892.3a2 2 0 0 1 .624.618c.163.253.264.547.304.881l-.143-.017c.164-.559.455-.974.874-1.245.411-.272.897-.374 1.459-.306.492.06.904.234 1.239.524.335.289.574.672.717 1.147.136.475.166 1.025.09 1.651zm.882-7.291c-.12.99-.584 1.702-1.392 2.134-.815.432-1.916.564-3.303.397-.934-.113-1.705-.323-2.31-.629-.613-.315-1.055-.718-1.325-1.209-.269-.499-.364-1.077-.285-1.734.121-.999.577-1.711 1.368-2.138.792-.434 1.885-.567 3.279-.399.927.112 1.701.326 2.321.642.614.308 1.064.708 1.35 1.2.278.492.377 1.071.297 1.736zm-1.248-.151c.065-.538-.136-.965-.605-1.278-.467-.322-1.232-.547-2.293-.676-1.062-.128-1.846-.09-2.353.114-.513.195-.803.562-.868 1.1-.064.531.13.956.581 1.276.444.319 1.196.543 2.258.671 1.061.128 1.857.092 2.388-.109.53-.201.828-.567.892-1.098zm-56.037-9.3c-.007.255-.068.441-.183.557-.123.109-.296.16-.519.154a.8.8 0 0 1-.392-.119 2.098 2.098 0 0 1-.398-.322l-2.494-2.476c-.372-.378-.712-.651-1.019-.819a2.128 2.128 0 0 0-.95-.266c-.399-.011-.705.108-.92.358-.214.241-.328.601-.341 1.08-.008.271.025.543.097.817.064.273.184.552.36.836.091.146.128.283.108.41a.589.589 0 0 1-.164.319.704.704 0 0 1-.711.148.705.705 0 0 1-.339-.297 3.95 3.95 0 0 1-.494-1.163 4.799 4.799 0 0 1-.144-1.297c.017-.607.123-1.114.318-1.524.195-.41.471-.717.828-.923.356-.206.786-.301 1.289-.287.335.009.66.074.976.194.316.113.635.285.955.518.321.224.661.517 1.018.878l2.282 2.314-.407-.011.098-3.517c.006-.215.062-.378.169-.486.107-.109.264-.161.471-.155.208.006.366.066.474.181.109.115.16.28.154.495l-.122 4.403zm.374-9.168c-.018.654-.125 1.213-.322 1.679-.204.457-.489.808-.855 1.054-.366.237-.8.349-1.303.335a2.242 2.242 0 0 1-1.046-.269 2.062 2.062 0 0 1-.734-.703 2.27 2.27 0 0 1-.332-.991l.251.007c-.126.508-.38.911-.764 1.212-.391.293-.85.431-1.376.417-.479-.013-.882-.144-1.211-.393-.336-.249-.586-.595-.749-1.039-.171-.443-.249-.96-.232-1.55.016-.599.122-1.115.318-1.548.188-.434.456-.766.806-.995.342-.23.752-.339 1.23-.325.351.009.672.09.963.242.292.144.529.346.714.606.184.253.304.548.358.884l-.239-.006c.095-.556.343-1 .744-1.333.392-.34.884-.502 1.474-.485.502.014.929.153 1.281.418.352.258.617.624.796 1.1.17.468.247 1.029.228 1.683zm-1.196-.034c.016-.566-.08-.996-.287-1.289-.216-.293-.539-.446-.97-.458-.43-.012-.757.123-.981.404-.223.281-.342.705-.358 1.271-.016.559.08.988.287 1.289.208.293.527.446.957.458.431.012.762-.123.993-.404.224-.289.343-.712.359-1.271zm-3.792-.105a2.09 2.09 0 0 0-.121-.818 1.174 1.174 0 0 0-.429-.526 1.237 1.237 0 0 0-.665-.198c-.383-.011-.685.116-.908.381-.231.257-.353.621-.366 1.092-.013.47.088.84.304 1.11.208.269.504.409.887.419.391.011.701-.112.932-.369.231-.257.352-.62.366-1.091zm-39.422-2.566c-.001.256-.057.443-.169.562-.12.112-.292.167-.515.167a.806.806 0 0 1-.395-.109 2.127 2.127 0 0 1-.406-.312l-2.555-2.412c-.383-.367-.729-.632-1.04-.792a2.124 2.124 0 0 0-.957-.242c-.399 0-.702.126-.91.381-.208.247-.313.61-.314 1.089-.001.271.039.542.118.814.071.271.198.547.381.827.095.143.135.279.119.407a.59.59 0 0 1-.157.322.674.674 0 0 1-.323.179.684.684 0 0 1-.383-.013.699.699 0 0 1-.347-.288 3.993 3.993 0 0 1-.524-1.15 4.837 4.837 0 0 1-.176-1.293c.001-.606.094-1.117.279-1.531.184-.415.452-.73.804-.944.351-.214.779-.321 1.281-.32.335 0 .662.058.981.17.319.105.642.269.968.493.327.216.673.5 1.04.852l2.34 2.256-.407-.001.009-3.519c0-.215.052-.379.156-.49.104-.112.26-.167.467-.167.208 0 .367.057.479.169.111.112.167.275.166.491l-.01 4.404zm.142-9.486c-.002.695-.167 1.289-.495 1.782-.336.486-.816.856-1.439 1.11-.623.254-1.377.38-2.263.378-.718-.002-1.352-.083-1.902-.244-.558-.169-1.029-.41-1.411-.721a3.056 3.056 0 0 1-.871-1.14 3.772 3.772 0 0 1-.295-1.532c0-.35.057-.706.17-1.065.104-.366.265-.71.481-1.028a.56.56 0 0 1 .311-.25.696.696 0 0 1 .383-.011.66.66 0 0 1 .323.168c.088.08.143.184.167.311a.672.672 0 0 1-.109.419c-.16.27-.272.526-.337.765a2.82 2.82 0 0 0-.097.718c-.001.463.106.854.32 1.174.215.32.538.564.968.732.431.16.969.242 1.615.243l.898.002v.144a2.473 2.473 0 0 1-1.041-.398 2.008 2.008 0 0 1-.668-.791 2.345 2.345 0 0 1-.237-1.066 2.41 2.41 0 0 1 .35-1.291 2.44 2.44 0 0 1 .96-.884c.407-.214.874-.321 1.401-.32a2.954 2.954 0 0 1 1.459.363c.422.232.757.56 1.003.983.238.416.357.899.356 1.45zm-1.221.081a1.46 1.46 0 0 0-.19-.754 1.288 1.288 0 0 0-.537-.516 1.798 1.798 0 0 0-.814-.181 1.75 1.75 0 0 0-.814.177c-.232.12-.412.29-.54.514a1.389 1.389 0 0 0-.205.753c-.001.287.067.539.202.755.127.215.306.387.537.516.231.12.502.18.813.18.304.002.575-.058.815-.177.231-.127.411-.298.539-.513.129-.215.193-.466.194-.754zm-67.336 10.089c.007.255-.043.444-.152.567-.116.115-.286.176-.51.182a.804.804 0 0 1-.397-.097 2.2 2.2 0 0 1-.416-.3l-2.625-2.335c-.393-.356-.748-.61-1.063-.761a2.125 2.125 0 0 0-.964-.213c-.398.01-.698.147-.898.407-.201.253-.295.62-.282 1.098.008.271.055.541.142.81.079.269.215.541.406.815.099.141.143.275.13.403a.582.582 0 0 1-.146.328.684.684 0 0 1-.318.188.696.696 0 0 1-.384-.002.692.692 0 0 1-.354-.277 3.971 3.971 0 0 1-.558-1.134 4.804 4.804 0 0 1-.215-1.287c-.017-.607.061-1.12.233-1.54.172-.42.431-.742.776-.966.345-.225.769-.345 1.271-.358.335-.01.664.037.986.14.322.095.649.25.982.464.333.207.688.48 1.065.821l2.406 2.185-.407.012-.096-3.518c-.006-.215.042-.38.142-.495.101-.114.255-.174.462-.18.208-.005.369.046.483.155.115.108.175.27.181.486l.12 4.402zm-.191-10.526c.006.24-.052.429-.176.568-.132.139-.322.212-.569.219l-.933.025.08 2.955c.007.248-.039.448-.139.603-.099.146-.261.222-.484.228a1.091 1.091 0 0 1-.422-.084 4.32 4.32 0 0 1-.608-.354l-4.839-3.149a1.302 1.302 0 0 1-.393-.36.838.838 0 0 1-.145-.463.724.724 0 0 1 .178-.52c.116-.139.305-.212.569-.219l4.893-.133-.016-.587c-.007-.231.045-.404.153-.519.101-.122.254-.186.462-.192.207-.006.368.05.483.166.107.11.164.28.17.51l.016.587.933-.026c.247-.006.441.056.58.188.131.132.2.318.207.557zm-2.946.847l-3.733.102-.01-.347 4.217 2.71-.407.011-.067-2.476zm-69.393 9.784c-.011.256-.075.44-.192.555-.125.106-.299.154-.522.145a.795.795 0 0 1-.39-.126 2.103 2.103 0 0 1-.392-.329l-2.452-2.516c-.367-.384-.702-.662-1.006-.836a2.12 2.12 0 0 0-.945-.281c-.399-.018-.708.096-.926.342-.218.238-.338.596-.359 1.074-.012.271.016.544.083.818.06.275.175.555.346.842.089.148.123.285.102.412a.59.59 0 0 1-.17.316.68.68 0 0 1-.331.165.693.693 0 0 1-.382-.029.698.698 0 0 1-.334-.302 3.974 3.974 0 0 1-.475-1.171 4.796 4.796 0 0 1-.122-1.3c.027-.605.141-1.111.343-1.518.202-.406.483-.71.843-.909.36-.2.791-.288 1.294-.266.334.015.659.086.973.211.314.118.629.296.946.533.318.23.652.529 1.003.896l2.243 2.351-.406-.018.156-3.515c.01-.215.069-.376.177-.483.109-.107.267-.156.474-.147.207.01.364.072.471.189.106.116.155.282.145.497l-.195 4.4zm.318-7.169c-.011.255-.075.44-.192.555-.124.106-.298.154-.522.144a.793.793 0 0 1-.389-.125 2.093 2.093 0 0 1-.393-.329l-2.452-2.517c-.366-.383-.701-.662-1.005-.835a2.124 2.124 0 0 0-.946-.281c-.399-.018-.707.096-.926.342-.218.238-.338.596-.359 1.074-.012.271.016.544.084.818.059.274.175.555.346.842.089.148.123.285.101.412a.583.583 0 0 1-.17.316.678.678 0 0 1-.331.165.695.695 0 0 1-.382-.029.703.703 0 0 1-.334-.302 3.978 3.978 0 0 1-.475-1.171 4.834 4.834 0 0 1-.122-1.3c.027-.605.142-1.112.343-1.518.202-.406.483-.71.843-.909.361-.2.792-.288 1.294-.266.335.015.659.085.973.211.314.118.63.296.947.533.317.23.651.528 1.002.895l2.244 2.352-.407-.018.156-3.515c.01-.215.069-.376.178-.483.108-.107.266-.156.473-.147.208.01.365.072.471.189.107.116.155.282.146.497l-.196 4.4zm-58.985 13.612c.017.255-.027.446-.13.572-.112.12-.28.187-.503.201a.787.787 0 0 1-.401-.082 2.11 2.11 0 0 1-.426-.284l-2.713-2.233c-.406-.341-.77-.581-1.09-.72a2.118 2.118 0 0 0-.972-.177c-.398.026-.692.173-.882.442-.191.26-.271.629-.24 1.107.018.27.076.539.173.804.089.266.235.532.436.799.105.137.153.27.146.398a.585.585 0 0 1-.134.333.684.684 0 0 1-.311.2.692.692 0 0 1-.383.013.702.702 0 0 1-.365-.264 3.98 3.98 0 0 1-.601-1.112 4.824 4.824 0 0 1-.263-1.278c-.04-.605.019-1.121.175-1.547.156-.426.402-.758.738-.995.337-.238.756-.374 1.257-.406.335-.022.665.012.99.103.326.083.659.225 1 .426.34.194.705.454 1.094.78l2.488 2.093-.406.026-.23-3.511c-.014-.215.027-.382.123-.5.097-.118.248-.184.455-.198.207-.013.37.032.489.136.119.105.185.264.199.479l.287 4.395zm-.479-9.163c.065.995-.259 1.78-.973 2.354-.722.575-1.78.908-3.173.999-.94.062-1.735-.002-2.388-.192-.66-.196-1.168-.511-1.524-.943-.357-.441-.557-.991-.6-1.652-.066-1.003.251-1.788.949-2.353.699-.574 1.748-.906 3.15-.998.931-.06 1.731.007 2.4.203.66.19 1.176.5 1.548.93.364.433.568.983.611 1.652zm-1.254.082c-.035-.542-.312-.923-.83-1.145-.519-.23-1.312-.31-2.379-.24-1.066.07-1.83.251-2.291.545-.469.286-.686.7-.65 1.242.035.533.304.916.806 1.146.495.232 1.276.313 2.343.243s1.843-.252 2.327-.548c.484-.295.709-.71.674-1.243zm-53.079 10.259c.006.207-.046.372-.154.495a.677.677 0 0 1-.474.181c-.207.005-.364-.046-.471-.155-.107-.117-.163-.279-.169-.486l-.036-1.34-5.875.16-.02-.742 1.113 1.73a.692.692 0 0 1 .119.427.664.664 0 0 1-.158.34.768.768 0 0 1-.33.188.63.63 0 0 1-.384-.013.697.697 0 0 1-.343-.302l-1.038-1.624a3.443 3.443 0 0 1-.253-.472 1.078 1.078 0 0 1-.119-.44.616.616 0 0 1 .132-.422c.085-.114.231-.174.438-.18l6.676-.182-.033-1.22c-.006-.207.041-.368.142-.483.101-.122.254-.186.462-.192.207-.006.368.05.483.166.115.109.175.267.181.474l.111 4.092zm-.122-8.9c.017.654-.059 1.219-.23 1.695-.179.468-.444.834-.796 1.099-.352.257-.779.392-1.282.406a2.227 2.227 0 0 1-1.059-.21 2.074 2.074 0 0 1-.772-.662 2.268 2.268 0 0 1-.386-.971l.251-.007c-.098.513-.33.931-.696 1.252-.375.314-.825.478-1.352.492-.478.013-.888-.096-1.23-.326-.349-.23-.618-.562-.805-.996-.195-.433-.301-.945-.317-1.535-.017-.599.061-1.12.233-1.563.163-.444.413-.79.75-1.038.328-.249.732-.38 1.21-.392.351-.01.676.053.975.189.299.127.547.316.746.566.198.242.333.53.406.863l-.239.006c.065-.56.288-1.017.669-1.37.373-.362.855-.55 1.445-.567.503-.014.937.102 1.303.348.366.237.65.589.855 1.054.196.458.303 1.013.321 1.667zm-1.197.033c-.015-.566-.135-.99-.358-1.271-.231-.281-.562-.416-.993-.404-.43.011-.749.164-.957.457-.207.293-.303.722-.288 1.289.015.558.134.982.358 1.271.223.281.55.416.981.404.43-.011.753-.164.969-.457.207-.301.303-.731.288-1.289zm-3.792.103a2.064 2.064 0 0 0-.166-.81 1.17 1.17 0 0 0-.457-.502 1.235 1.235 0 0 0-.675-.16c-.382.01-.678.153-.886.43-.216.27-.318.64-.305 1.11.013.471.135.834.365 1.092.223.257.525.38.908.37.391-.011.694-.151.911-.42.216-.269.317-.639.305-1.11zm-53.002 21.472c.046.202.028.374-.054.515a.67.67 0 0 1-.43.27c-.202.046-.366.026-.492-.06-.128-.093-.215-.241-.261-.443l-.298-1.307-5.729 1.305-.165-.724 1.429 1.479c.12.128.186.26.201.396a.672.672 0 0 1-.089.364.763.763 0 0 1-.287.25.629.629 0 0 1-.379.061.69.69 0 0 1-.395-.229l-1.336-1.39a3.266 3.266 0 0 1-.339-.413 1.084 1.084 0 0 1-.204-.408.624.624 0 0 1 .047-.44c.061-.129.192-.216.395-.262l6.511-1.483-.271-1.19c-.046-.203-.031-.37.046-.502.074-.139.213-.232.415-.278.202-.046.371-.024.506.068.134.084.224.228.27.43l.909 3.991zm-1.543-7.205a.745.745 0 0 1-.027.472.524.524 0 0 1-.291.288c-.142.057-.314.059-.514.006l-7.431-2.014.514-.117.861 3.781c.048.21.031.385-.052.527-.084.134-.223.223-.418.267-.202.046-.37.027-.504-.057-.135-.092-.227-.243-.275-.453l-1.028-4.516a.8.8 0 0 1 .046-.551c.079-.157.22-.258.422-.304.171-.039.328-.051.471-.034.135.018.285.05.451.094l7.091 1.871a.86.86 0 0 1 .451.253c.108.114.185.277.233.487zm168.923 436.777c-.877 0-1.631-.175-2.262-.527a3.632 3.632 0 0 1-1.436-1.508c-.335-.654-.503-1.424-.503-2.309 0-.663.096-1.257.288-1.784.191-.534.466-.989.826-1.364a3.497 3.497 0 0 1 1.316-.874 4.808 4.808 0 0 1 1.771-.311c.439 0 .87.056 1.293.168.423.111.794.271 1.113.478a.773.773 0 0 1 .335.383.728.728 0 0 1 .036.431.667.667 0 0 1-.204.347.591.591 0 0 1-.371.168c-.143.008-.303-.044-.478-.156a2.688 2.688 0 0 0-.802-.347 3.581 3.581 0 0 0-.874-.107c-.566 0-1.045.115-1.436.347a2.183 2.183 0 0 0-.886 1.005c-.199.439-.299.977-.299 1.616 0 .63.1 1.169.299 1.615.2.447.495.786.886 1.018.391.231.87.347 1.436.347.303 0 .603-.036.898-.108.295-.08.574-.199.838-.359.175-.104.331-.148.466-.132a.556.556 0 0 1 .359.144.64.64 0 0 1 .192.335.716.716 0 0 1-.024.407.763.763 0 0 1-.287.359 3.658 3.658 0 0 1-1.149.539 5.104 5.104 0 0 1-1.341.179zm5.023-.12c-.263 0-.467-.067-.61-.203-.136-.144-.204-.347-.204-.61v-6.81c0-.264.068-.463.204-.599.143-.143.347-.215.61-.215h4.273c.199 0 .351.052.455.155.111.104.167.252.167.443 0 .2-.056.355-.167.467-.104.104-.256.156-.455.156h-3.615v2.321h3.352c.207 0 .363.052.466.156.104.104.156.255.156.455 0 .199-.052.351-.156.455-.103.103-.259.155-.466.155h-3.352v2.454h3.615c.199 0 .351.052.455.155.111.104.167.256.167.455s-.056.351-.167.455c-.104.104-.256.155-.455.155h-4.273zm7.046.096c-.232 0-.411-.064-.539-.191-.12-.128-.179-.312-.179-.551v-7.121c0-.247.059-.435.179-.562a.644.644 0 0 1 .491-.204c.183 0 .319.036.407.108.095.064.207.175.335.335l4.584 5.948h-.312v-5.661c0-.231.06-.411.18-.538.128-.128.307-.192.539-.192.231 0 .407.064.526.192.12.127.18.307.18.538v7.181c0 .223-.056.399-.168.527a.575.575 0 0 1-.455.191.803.803 0 0 1-.442-.108 1.73 1.73 0 0 1-.348-.347l-4.571-5.948h.299v5.661c0 .239-.06.423-.18.551-.119.127-.295.191-.526.191zm11.035 0c-.247 0-.439-.068-.575-.203-.127-.144-.191-.339-.191-.587v-6.463h-2.334c-.207 0-.371-.055-.491-.167a.677.677 0 0 1-.167-.479c0-.207.056-.363.167-.467.12-.111.284-.167.491-.167h6.2c.207 0 .367.056.478.167.12.104.18.26.18.467 0 .2-.06.359-.18.479-.111.112-.271.167-.478.167h-2.334v6.463c0 .248-.064.443-.192.587-.127.135-.319.203-.574.203zm5.447-.096c-.264 0-.467-.067-.611-.203-.135-.144-.203-.347-.203-.61v-6.81c0-.264.068-.463.203-.599.144-.143.347-.215.611-.215h4.272c.2 0 .351.052.455.155.112.104.168.252.168.443 0 .2-.056.355-.168.467-.104.104-.255.156-.455.156h-3.614v2.321h3.351c.207 0 .363.052.467.156.103.104.155.255.155.455 0 .199-.052.351-.155.455-.104.103-.26.155-.467.155h-3.351v2.454h3.614c.2 0 .351.052.455.155.112.104.168.256.168.455s-.056.351-.168.455c-.104.104-.255.155-.455.155h-4.272zm7.093.096c-.247 0-.439-.068-.575-.203-.127-.144-.191-.339-.191-.587v-6.965c0-.256.068-.447.203-.575.136-.135.328-.203.575-.203h2.884c.926 0 1.64.223 2.143.67.502.439.754 1.057.754 1.855 0 .519-.116.966-.348 1.341-.223.375-.55.662-.981.861-.431.2-.953.299-1.568.299l.108-.179h.395c.327 0 .61.08.85.239.247.16.462.411.646.754l.898 1.664a.897.897 0 0 1 .131.491.56.56 0 0 1-.179.395c-.112.095-.276.143-.491.143a.964.964 0 0 1-.527-.131 1.25 1.25 0 0 1-.359-.431l-1.208-2.226c-.144-.272-.316-.451-.515-.539-.192-.096-.439-.144-.742-.144h-1.137v2.681c0 .248-.064.443-.192.587-.127.135-.319.203-.574.203zm.766-4.608h1.867c.55 0 .965-.111 1.245-.335.287-.231.43-.574.43-1.029 0-.447-.143-.782-.43-1.005-.28-.232-.695-.347-1.245-.347h-1.867v2.716zm10.7 4.512c-.247 0-.439-.067-.575-.203-.135-.144-.203-.339-.203-.586v-6.906c0-.255.064-.447.191-.575.136-.135.328-.203.575-.203.247 0 .435.068.562.203.136.128.204.32.204.575v6.391h3.471c.215 0 .379.056.49.167.12.112.18.272.18.479 0 .208-.06.371-.18.491-.111.112-.275.167-.49.167h-4.225zm6.708.096c-.247 0-.439-.068-.574-.203-.128-.144-.192-.339-.192-.587v-7.049c0-.255.064-.451.192-.586.135-.136.327-.204.574-.204.248 0 .435.068.563.204.135.135.203.331.203.586v7.049c0 .248-.064.443-.191.587-.128.135-.319.203-.575.203zm3.33 0c-.231 0-.411-.064-.538-.191-.12-.128-.18-.312-.18-.551v-7.121c0-.247.06-.435.18-.562a.641.641 0 0 1 .49-.204c.184 0 .319.036.407.108.096.064.208.175.335.335l4.584 5.948h-.311v-5.661c0-.231.06-.411.18-.538.127-.128.307-.192.538-.192.232 0 .407.064.527.192.119.127.179.307.179.538v7.181c0 .223-.056.399-.167.527a.577.577 0 0 1-.455.191.807.807 0 0 1-.443-.108 1.73 1.73 0 0 1-.347-.347l-4.572-5.948h.299v5.661c0 .239-.06.423-.179.551-.12.127-.295.191-.527.191zm9.049-.096c-.264 0-.467-.067-.611-.203-.135-.144-.203-.347-.203-.61v-6.81c0-.264.068-.463.203-.599.144-.143.347-.215.611-.215h4.272c.2 0 .351.052.455.155.112.104.168.252.168.443 0 .2-.056.355-.168.467-.104.104-.255.156-.455.156h-3.614v2.321h3.351c.208 0 .363.052.467.156.104.104.155.255.155.455 0 .199-.051.351-.155.455-.104.103-.259.155-.467.155h-3.351v2.454h3.614c.2 0 .351.052.455.155.112.104.168.256.168.455s-.056.351-.168.455c-.104.104-.255.155-.455.155h-4.272zm-127.179-213.17c0 .704-.056 1.408-.168 2.112a10.978 10.978 0 0 1-.456 1.992 8.192 8.192 0 0 1-.816 1.68 1.552 1.552 0 0 1-1.488.72 1.462 1.462 0 0 1-.696-.312 1.093 1.093 0 0 1-.384-.648c-.048-.256.024-.536.216-.84a8.2 8.2 0 0 0 .912-2.232c.192-.784.288-1.608.288-2.472 0-1.264-.208-2.184-.624-2.76-.432-.576-.984-.864-1.656-.864-.56 0-1 .208-1.32.624-.32.4-.584 1.096-.792 2.088l-.552 2.64c-.32 1.52-.856 2.656-1.608 3.408-.768.736-1.776 1.104-3.024 1.104-.784 0-1.496-.16-2.136-.48a4.954 4.954 0 0 1-1.656-1.344 6.263 6.263 0 0 1-1.056-2.088c-.256-.816-.384-1.712-.384-2.688 0-.96.12-1.872.36-2.736.24-.864.592-1.64 1.056-2.328.176-.256.392-.424.648-.504a1.41 1.41 0 0 1 .768-.072c.24.048.448.16.624.336.176.176.28.4.312.672.032.256-.048.552-.24.888a6.832 6.832 0 0 0-.72 1.8 8.527 8.527 0 0 0-.216 1.968c0 .736.104 1.368.312 1.896.208.528.504.936.888 1.224.368.272.808.408 1.32.408.576 0 1.04-.192 1.392-.576.336-.384.6-1.04.792-1.968l.552-2.616c.336-1.584.864-2.76 1.584-3.528.72-.784 1.68-1.176 2.88-1.176.768 0 1.464.16 2.088.48.624.304 1.16.752 1.608 1.344.448.576.792 1.272 1.032 2.088.24.816.36 1.736.36 2.76zm-.048-14.573c0 .496-.136.88-.408 1.152-.288.256-.68.384-1.176.384h-12.96v4.68c0 .416-.112.744-.336.984-.24.224-.56.336-.96.336-.416 0-.728-.112-.936-.336-.224-.24-.336-.568-.336-.984v-12.432c0-.416.112-.736.336-.96.208-.24.52-.36.936-.36.4 0 .72.12.96.36.224.224.336.544.336.96v4.68h12.96c.496 0 .888.128 1.176.384.272.256.408.64.408 1.152zm0-7.584c0 .384-.088.696-.264.936a1.08 1.08 0 0 1-.696.408c-.304.048-.64-.008-1.008-.168l-14.04-6.336c-.464-.208-.792-.456-.984-.744a1.785 1.785 0 0 1-.312-1.032c0-.368.104-.696.312-.984.192-.304.52-.56.984-.768l14.04-6.36c.368-.176.704-.24 1.008-.192.304.048.544.184.72.408.16.224.24.52.24.888 0 .448-.104.8-.312 1.056-.224.24-.56.456-1.008.648l-3.624 1.56.84-1.296v10.128l-.84-1.296 3.624 1.536c.464.208.8.424 1.008.648.208.224.312.544.312.96zm-13.776-6.888l7.992 3.36-.768.624v-8.016l.768.6-7.992 3.384v.048zm13.824-18.587c0 1.872-.352 3.456-1.056 4.752a7.062 7.062 0 0 1-3 2.928c-1.296.672-2.832 1.008-4.608 1.008-1.344 0-2.552-.192-3.624-.576-1.072-.4-1.984-.968-2.736-1.704-.768-.752-1.352-1.664-1.752-2.736-.416-1.072-.624-2.288-.624-3.648 0-.896.112-1.792.336-2.688a8.054 8.054 0 0 1 1.08-2.568c.176-.272.392-.448.648-.528.256-.096.52-.112.792-.048.256.064.48.184.672.36.192.176.312.4.36.672.048.256-.016.544-.192.864a7.308 7.308 0 0 0-.768 1.848c-.16.624-.24 1.32-.24 2.088 0 1.184.24 2.184.72 3 .464.816 1.144 1.432 2.04 1.848.896.4 1.992.6 3.288.6 1.968 0 3.464-.472 4.488-1.416 1.024-.944 1.536-2.344 1.536-4.2 0-.64-.064-1.288-.192-1.944a13.099 13.099 0 0 0-.528-1.92l1.368.6h-5.112v2.64c0 .4-.104.712-.312.936-.208.208-.488.312-.84.312-.368 0-.648-.104-.84-.312-.192-.224-.288-.536-.288-.936v-3.96c0-.4.112-.704.336-.912.208-.224.512-.336.912-.336h5.832c.352 0 .648.072.888.216.24.128.416.344.528.648.256.704.472 1.512.648 2.424.16.912.24 1.808.24 2.688zm-.24-11.168c0 .528-.136.936-.408 1.224-.288.272-.696.408-1.224.408h-13.656c-.528 0-.928-.136-1.2-.408-.288-.288-.432-.696-.432-1.224v-8.568c0-.4.104-.704.312-.912.208-.224.504-.336.888-.336.4 0 .712.112.936.336.208.208.312.512.312.912v7.248h4.656v-6.72c0-.416.104-.728.312-.936.208-.208.512-.312.912-.312s.704.104.912.312c.208.208.312.52.312.936v6.72h4.92v-7.248c0-.4.104-.704.312-.912.208-.224.512-.336.912-.336s.704.112.912.336c.208.208.312.512.312.912v8.568zm92.683 131.284c-.001.165-.047.293-.139.383a.57.57 0 0 1-.393.125l-4.32-.034-.012 1.56a.465.465 0 0 1-.114.328.452.452 0 0 1-.321.109c-.139-.001-.242-.039-.311-.114a.465.465 0 0 1-.11-.329l.032-4.144c.001-.139.039-.245.115-.319.07-.08.174-.119.313-.118a.433.433 0 0 1 .319.123c.074.075.11.182.109.321l-.012 1.559 4.32.034a.568.568 0 0 1 .391.131c.09.086.134.214.133.385zm.02-2.528a.515.515 0 0 1-.091.311.36.36 0 0 1-.233.135.609.609 0 0 1-.335-.059l-4.664-2.148a.747.747 0 0 1-.326-.25.592.592 0 0 1-.101-.345c0-.123.036-.232.106-.327a.723.723 0 0 1 .33-.254l4.696-2.084a.568.568 0 0 1 .337-.061.363.363 0 0 1 .239.138.503.503 0 0 1 .077.296.538.538 0 0 1-.106.351.99.99 0 0 1-.338.214l-1.212.51.283-.429-.026 3.376-.276-.435 1.204.522c.154.07.265.143.334.218.069.075.103.182.102.321zm-4.575-2.331l2.656 1.14-.258.206.021-2.672.254.202-2.672 1.108-.001.016zm4.56-4.11c-.001.176-.048.311-.139.407-.097.089-.233.134-.409.132l-4.552-.035c-.176-.001-.309-.047-.399-.139-.095-.096-.142-.233-.141-.409l.015-1.92c.003-.394.064-.73.184-1.006.119-.277.289-.486.509-.628.219-.148.481-.221.785-.218.342.002.629.103.862.302.233.199.388.47.466.812l-.12-.001c.062-.394.213-.7.455-.917.242-.216.554-.323.938-.32.502.003.89.177 1.164.521.27.338.402.808.398 1.411l-.016 2.008zm-.772-.446l.011-1.44c.002-.363-.065-.63-.202-.802-.143-.172-.356-.259-.638-.261-.288-.002-.502.082-.642.251-.14.17-.212.436-.214.799l-.011 1.44 1.696.013zm-2.472-.019l.01-1.304c.002-.352-.062-.614-.194-.786-.138-.177-.34-.266-.606-.268-.267-.003-.468.084-.602.259-.14.169-.212.43-.214.782l-.01 1.304 1.616.013zm3.286-5.019c-.001.165-.047.293-.139.383a.546.546 0 0 1-.393.133l-4.616-.036c-.17-.001-.298-.045-.383-.131-.09-.091-.134-.219-.133-.385.002-.165.048-.29.139-.375.086-.09.215-.134.385-.133l4.272.033.018-2.32c.001-.144.039-.253.115-.327.075-.079.182-.118.32-.117a.448.448 0 0 1 .328.122c.074.075.11.185.109.329l-.022 2.824zm.035-4.516c-.001.176-.048.312-.139.407-.097.09-.233.134-.409.133l-4.552-.035c-.176-.002-.309-.048-.399-.139-.095-.097-.142-.233-.141-.409l.022-2.856c.001-.134.037-.235.106-.304.07-.074.169-.11.297-.109a.42.42 0 0 1 .311.114c.069.07.103.172.102.305l-.018 2.416 1.551.012.018-2.24c.001-.139.036-.243.106-.311.07-.069.172-.103.305-.102.133.001.234.036.303.106.069.07.103.174.102.313l-.018 2.24 1.64.013.019-2.416c.001-.134.036-.235.106-.303.07-.075.172-.111.305-.11.133.001.235.039.303.114.069.07.103.172.102.305l-.022 2.856zm.127-6.095c-.002.235-.022.47-.062.704a3.608 3.608 0 0 1-.157.663 2.738 2.738 0 0 1-.276.558.526.526 0 0 1-.233.198.531.531 0 0 1-.265.038.492.492 0 0 1-.231-.106.36.36 0 0 1-.126-.217c-.016-.085.009-.179.074-.279.14-.234.244-.481.31-.742s.1-.535.102-.823c.003-.422-.064-.729-.201-.922a.664.664 0 0 0-.55-.292.524.524 0 0 0-.441.205c-.108.132-.198.363-.27.694l-.191.878c-.11.506-.292.883-.544 1.132-.258.243-.595.363-1.011.36a1.577 1.577 0 0 1-.711-.165 1.653 1.653 0 0 1-.548-.453 2.086 2.086 0 0 1-.347-.698 2.977 2.977 0 0 1-.121-.897 3.38 3.38 0 0 1 .127-.911c.082-.288.201-.545.358-.774a.413.413 0 0 1 .217-.166.47.47 0 0 1 .256-.022c.08.017.149.055.207.114a.363.363 0 0 1 .103.225.489.489 0 0 1-.083.295 2.27 2.27 0 0 0-.244.598c-.05.202-.075.421-.077.655-.002.246.031.457.099.633a.915.915 0 0 0 .293.411.72.72 0 0 0 .439.139.597.597 0 0 0 .465-.189c.113-.127.203-.345.269-.653l.191-.871c.116-.527.295-.918.537-1.172.242-.259.563-.388.963-.385a1.507 1.507 0 0 1 1.227.618c.148.193.261.426.339.699.078.272.115.579.113.92zm-.209-154.936c-.001.165-.047.293-.139.383a.57.57 0 0 1-.393.125l-4.32-.034-.012 1.56a.465.465 0 0 1-.114.328.452.452 0 0 1-.321.109c-.139-.001-.242-.039-.311-.114a.465.465 0 0 1-.11-.329l.032-4.144c.001-.139.039-.245.115-.319.07-.08.174-.119.313-.118a.433.433 0 0 1 .319.123c.074.075.11.182.109.321l-.012 1.559 4.32.034a.568.568 0 0 1 .391.131c.09.086.134.214.133.385zm.02-2.528a.515.515 0 0 1-.091.311.36.36 0 0 1-.233.135.609.609 0 0 1-.335-.059l-4.664-2.148a.747.747 0 0 1-.326-.25.592.592 0 0 1-.101-.345c0-.123.036-.232.106-.327a.723.723 0 0 1 .33-.254l4.696-2.084a.568.568 0 0 1 .337-.061.363.363 0 0 1 .239.138.503.503 0 0 1 .077.296.538.538 0 0 1-.106.351.99.99 0 0 1-.338.214l-1.212.51.283-.429-.026 3.376-.276-.435 1.204.522c.154.07.265.143.334.218.069.075.103.182.102.321zm-4.575-2.331l2.656 1.14-.258.206.021-2.672.254.202-2.672 1.108-.001.016zm4.56-4.11c-.001.176-.048.311-.139.407-.097.089-.233.134-.409.132l-4.552-.035c-.176-.001-.309-.047-.399-.139-.095-.096-.142-.233-.141-.409l.015-1.92c.003-.394.064-.73.184-1.006.119-.277.289-.486.509-.628.219-.148.481-.221.785-.218.342.002.629.103.862.302.233.199.388.47.466.812l-.12-.001c.062-.394.213-.7.455-.917.242-.216.554-.323.938-.32.502.003.89.177 1.164.521.27.338.402.808.398 1.411l-.016 2.008zm-.772-.446l.011-1.44c.002-.363-.065-.63-.202-.802-.143-.172-.356-.259-.638-.261-.288-.002-.502.082-.642.251-.14.17-.212.436-.214.799l-.011 1.44 1.696.013zm-2.472-.019l.01-1.304c.002-.352-.062-.614-.194-.786-.138-.177-.34-.266-.606-.268-.267-.003-.468.084-.602.259-.14.169-.212.43-.214.782l-.01 1.304 1.616.013zm3.286-5.019c-.001.165-.047.293-.139.383a.546.546 0 0 1-.393.133l-4.616-.036c-.17-.001-.298-.045-.383-.131-.09-.091-.134-.219-.133-.385.002-.165.048-.29.139-.375.086-.09.215-.134.385-.133l4.272.033.018-2.32c.001-.144.039-.253.115-.327.075-.079.182-.118.32-.117a.448.448 0 0 1 .328.122c.074.075.11.185.109.329l-.022 2.824zm.035-4.516c-.001.176-.048.312-.139.407-.097.09-.233.134-.409.133l-4.552-.035c-.176-.002-.309-.048-.399-.139-.095-.097-.142-.233-.141-.409l.022-2.856c.001-.134.037-.235.106-.304.07-.074.169-.11.297-.109a.42.42 0 0 1 .311.114c.069.07.103.172.102.305l-.018 2.416 1.551.012.018-2.24c.001-.139.036-.243.106-.311.07-.069.172-.103.305-.102.133.001.234.036.303.106.069.07.103.174.102.313l-.018 2.24 1.64.013.019-2.416c.001-.134.036-.235.106-.303.07-.075.172-.111.305-.11.133.001.235.039.303.114.069.07.103.172.102.305l-.022 2.856zm.127-6.095c-.002.235-.022.47-.062.704a3.608 3.608 0 0 1-.157.663 2.738 2.738 0 0 1-.276.558.526.526 0 0 1-.233.198.531.531 0 0 1-.265.038.492.492 0 0 1-.231-.106.36.36 0 0 1-.126-.217c-.016-.085.009-.179.074-.279.14-.234.244-.481.31-.742s.1-.535.102-.823c.003-.422-.064-.729-.201-.922a.664.664 0 0 0-.55-.292.524.524 0 0 0-.441.205c-.108.132-.198.363-.27.694l-.191.878c-.11.506-.292.883-.544 1.132-.258.243-.595.363-1.011.36a1.577 1.577 0 0 1-.711-.165 1.653 1.653 0 0 1-.548-.453 2.086 2.086 0 0 1-.347-.698 2.977 2.977 0 0 1-.121-.897 3.38 3.38 0 0 1 .127-.911c.082-.288.201-.545.358-.774a.413.413 0 0 1 .217-.166.47.47 0 0 1 .256-.022c.08.017.149.055.207.114a.363.363 0 0 1 .103.225.489.489 0 0 1-.083.295 2.27 2.27 0 0 0-.244.598c-.05.202-.075.421-.077.655-.002.246.031.457.099.633a.915.915 0 0 0 .293.411.72.72 0 0 0 .439.139.597.597 0 0 0 .465-.189c.113-.127.203-.345.269-.653l.191-.871c.116-.527.295-.918.537-1.172.242-.259.563-.388.963-.385a1.507 1.507 0 0 1 1.227.618c.148.193.261.426.339.699.078.272.115.579.113.92zm147.586 171.687a.64.64 0 0 1-.099.359.749.749 0 0 1-.306.221l-4.704 2.052a.536.536 0 0 1-.352.046.41.41 0 0 1-.239-.17.533.533 0 0 1-.086-.305c.002-.155.037-.269.107-.343a.71.71 0 0 1 .298-.198l4.406-1.862-.003.344-4.385-1.922a.76.76 0 0 1-.286-.21.496.496 0 0 1-.102-.337.448.448 0 0 1 .091-.287.378.378 0 0 1 .241-.15.581.581 0 0 1 .351.058l4.672 2.124c.133.06.234.136.302.227a.571.571 0 0 1 .094.353zm.03-3.975c-.001.165-.047.292-.139.382a.561.561 0 0 1-.393.125l-4.712-.036c-.17-.001-.301-.045-.391-.131-.09-.091-.134-.219-.133-.385.002-.165.048-.29.139-.375.092-.09.223-.134.393-.133l4.712.036a.573.573 0 0 1 .391.131c.09.087.134.215.133.386zm.018-2.258c-.002.165-.048.293-.139.383a.574.574 0 0 1-.393.125l-4.656-.036c-.171-.001-.299-.048-.383-.139a.516.516 0 0 1-.133-.385l.015-1.928c.004-.619.163-1.095.475-1.428.311-.334.745-.499 1.299-.494.555.004.988.175 1.3.514.307.338.458.816.453 1.435l-.01 1.424 1.647.013a.566.566 0 0 1 .391.131c.09.086.135.214.134.385zm-2.98-.535l.009-1.264c.003-.363-.075-.638-.233-.826-.164-.188-.404-.283-.718-.285-.315-.003-.553.089-.714.274-.162.185-.244.46-.247.822l-.009 1.264 1.912.015zm2.932-130.232a.64.64 0 0 1-.099.359.749.749 0 0 1-.306.221l-4.704 2.052a.536.536 0 0 1-.352.046.41.41 0 0 1-.239-.17.533.533 0 0 1-.086-.305c.002-.155.037-.269.107-.343a.71.71 0 0 1 .298-.198l4.406-1.862-.003.344-4.385-1.922a.76.76 0 0 1-.286-.21.496.496 0 0 1-.102-.337.448.448 0 0 1 .091-.287.378.378 0 0 1 .241-.15.581.581 0 0 1 .351.058l4.672 2.124c.133.06.234.136.302.227a.571.571 0 0 1 .094.353zm.03-3.975c-.001.165-.047.292-.139.382a.561.561 0 0 1-.393.125l-4.712-.036c-.17-.001-.301-.045-.391-.131-.09-.091-.134-.219-.133-.385.002-.165.048-.29.139-.375.092-.09.223-.134.393-.133l4.712.036a.573.573 0 0 1 .391.131c.09.087.134.215.133.386zm.018-2.258c-.002.165-.048.293-.139.383a.574.574 0 0 1-.393.125l-4.656-.036c-.171-.001-.299-.048-.383-.139a.516.516 0 0 1-.133-.385l.015-1.928c.004-.619.163-1.095.475-1.428.311-.334.745-.499 1.299-.494.555.004.988.175 1.3.514.307.338.458.816.453 1.435l-.01 1.424 1.647.013a.566.566 0 0 1 .391.131c.09.086.135.214.134.385zm-2.98-.535l.009-1.264c.003-.363-.075-.638-.233-.826-.164-.188-.404-.283-.718-.285-.315-.003-.553.089-.714.274-.162.185-.244.46-.247.822l-.009 1.264 1.912.015zM474.357 357.235c-.007.878-.188 1.631-.544 2.258a3.633 3.633 0 0 1-1.519 1.425c-.657.33-1.428.492-2.314.485-.662-.005-1.256-.106-1.781-.301a3.81 3.81 0 0 1-1.358-.836 3.488 3.488 0 0 1-.863-1.324c-.204-.528-.303-1.119-.298-1.773.003-.439.063-.87.178-1.292.115-.422.277-.791.487-1.109a.765.765 0 0 1 .385-.332.727.727 0 0 1 .431-.033.67.67 0 0 1 .346.207c.095.096.15.22.165.372.007.144-.047.303-.16.477a2.669 2.669 0 0 0-.353.8 3.566 3.566 0 0 0-.114.872c-.005.567.107 1.046.336 1.439.228.393.561.691.998.894.438.202.975.306 1.614.311.63.005 1.169-.091 1.618-.287a2.178 2.178 0 0 0 1.024-.877c.234-.39.353-.867.358-1.434a3.771 3.771 0 0 0-.101-.898 3.25 3.25 0 0 0-.353-.841c-.102-.176-.145-.332-.128-.468a.56.56 0 0 1 .147-.358.631.631 0 0 1 .336-.188.717.717 0 0 1 .407.027.76.76 0 0 1 .357.29c.229.321.405.705.53 1.153a5.1 5.1 0 0 1 .169 1.341zm.014-4.999c-.002.248-.071.443-.208.585-.144.135-.348.201-.612.199l-6.905-.053c-.263-.002-.462-.071-.597-.208-.142-.145-.213-.349-.211-.612l.032-4.177c.002-.207.055-.363.16-.465.104-.103.252-.154.444-.153.199.002.354.055.465.16.103.104.154.26.152.467l-.026 3.459 2.381.019.025-3.208c.001-.199.054-.351.159-.453.105-.111.253-.166.444-.165.2.002.355.059.466.172.102.104.153.256.152.456l-.025 3.207 2.896.022c.543.004.812.254.808.748zm-.014-89.001c-.007.878-.188 1.631-.544 2.258a3.633 3.633 0 0 1-1.519 1.425c-.657.33-1.428.492-2.314.485-.662-.005-1.256-.106-1.781-.301a3.81 3.81 0 0 1-1.358-.836 3.488 3.488 0 0 1-.863-1.324c-.204-.528-.303-1.119-.298-1.773.003-.439.063-.87.178-1.292.115-.422.277-.791.487-1.109a.765.765 0 0 1 .385-.332.727.727 0 0 1 .431-.033.67.67 0 0 1 .346.207c.095.096.15.22.165.372.007.144-.047.303-.16.477a2.669 2.669 0 0 0-.353.8 3.566 3.566 0 0 0-.114.872c-.005.567.107 1.046.336 1.439.228.393.561.691.998.894.438.202.975.306 1.614.311.63.005 1.169-.091 1.618-.287a2.178 2.178 0 0 0 1.024-.877c.234-.39.353-.867.358-1.434a3.771 3.771 0 0 0-.101-.898 3.25 3.25 0 0 0-.353-.841c-.102-.176-.145-.332-.128-.468a.56.56 0 0 1 .147-.358.631.631 0 0 1 .336-.188.717.717 0 0 1 .407.027.76.76 0 0 1 .357.29c.229.321.405.705.53 1.153a5.1 5.1 0 0 1 .169 1.341zm.014-4.999c-.002.248-.071.443-.208.585-.144.135-.348.201-.612.199l-6.905-.053c-.263-.002-.462-.071-.597-.208-.142-.145-.213-.349-.211-.612l.032-4.177c.002-.207.055-.363.16-.465.104-.103.252-.154.444-.153.199.002.354.055.465.16.103.104.154.26.152.467l-.026 3.459 2.381.019.025-3.208c.001-.199.054-.351.159-.453.105-.111.253-.166.444-.165.2.002.355.059.466.172.102.104.153.256.152.456l-.025 3.207 2.896.022c.543.004.812.254.808.748zm324.352-132.927c.226.368.412.777.56 1.23.147.453.215.884.204 1.293a.812.812 0 0 1-.136.464.66.66 0 0 1-.302.241.674.674 0 0 1-.369.016.598.598 0 0 1-.314-.214.811.811 0 0 1-.153-.454 4.353 4.353 0 0 0-.169-1.006 4.016 4.016 0 0 0-.397-.852c-.184-.299-.379-.525-.586-.679a1.08 1.08 0 0 0-.649-.233c-.23-.009-.46.058-.692.2-.339.209-.52.479-.541.81-.032.329.086.711.353 1.146l.401.653c.117.19.159.365.127.526-.037.153-.14.282-.31.387-.17.104-.332.138-.485.102-.158-.044-.296-.161-.413-.351l-.326-.53a1.89 1.89 0 0 0-.529-.588 1.217 1.217 0 0 0-.631-.203 1.217 1.217 0 0 0-.665.198c-.312.193-.485.444-.519.755-.038.304.064.654.307 1.048.154.251.331.471.53.657.188.184.442.361.761.53.15.076.254.176.311.3a.533.533 0 0 1 .037.357.684.684 0 0 1-.171.316.63.63 0 0 1-.339.18.686.686 0 0 1-.452-.073 3.952 3.952 0 0 1-1.024-.705 4.604 4.604 0 0 1-.823-.997c-.305-.497-.488-.97-.549-1.419-.068-.446-.015-.848.157-1.207.162-.361.443-.665.844-.912.286-.175.581-.282.886-.319.298-.034.589-.002.873.095.284.097.546.264.786.501l-.123.075c-.219-.54-.249-1.046-.09-1.518.152-.468.47-.851.953-1.147.421-.259.853-.38 1.295-.361.442.018.867.169 1.275.452.402.287.767.699 1.097 1.236zm-3.883-6.317c.222.36.4.756.535 1.189a4.2 4.2 0 0 1 .194 1.299.77.77 0 0 1-.123.441.76.76 0 0 1-.317.237.681.681 0 0 1-.38.022.565.565 0 0 1-.318-.197.74.74 0 0 1-.14-.434 4.168 4.168 0 0 0-.144-.965 3.492 3.492 0 0 0-.395-.895 1.909 1.909 0 0 0-.604-.64 1.302 1.302 0 0 0-.717-.206c-.25.004-.498.081-.743.232-.38.234-.615.537-.704.91-.096.378-.021.767.226 1.168.134.217.3.405.501.563.193.162.438.288.736.376.092.028.195.073.308.134a.8.8 0 0 1 .259.262c.104.17.14.327.106.469-.034.143-.13.262-.286.359l-3.334 2.049c-.184.113-.352.151-.506.114-.165-.039-.303-.151-.416-.334l-2.062-3.355c-.113-.183-.151-.352-.114-.506.026-.156.127-.288.304-.397.169-.104.333-.135.491-.091.154.036.287.146.4.33l1.629 2.651 2.284-1.404.207.337a2.029 2.029 0 0 1-.983-.366 2.734 2.734 0 0 1-.783-.839c-.28-.455-.423-.91-.431-1.364a2.286 2.286 0 0 1 .323-1.281c.223-.399.562-.738 1.017-1.018.469-.289.949-.438 1.439-.449.483-.006.947.125 1.393.394.436.266.818.668 1.148 1.205zm52.001 79.398c.166.397.287.831.362 1.301.076.47.077.907.003 1.309a.8.8 0 0 1-.207.437.655.655 0 0 1-.335.192.679.679 0 0 1-.367-.041.61.61 0 0 1-.278-.261.807.807 0 0 1-.08-.472 4.363 4.363 0 0 0-.011-1.02 4.076 4.076 0 0 0-.261-.903c-.135-.324-.293-.578-.474-.761a1.084 1.084 0 0 0-.605-.331 1.222 1.222 0 0 0-.715.091c-.368.154-.588.393-.66.717-.082.32-.025.715.172 1.186l.295.707c.086.206.101.386.044.539-.06.147-.182.258-.366.335-.184.077-.349.085-.495.025-.15-.067-.267-.204-.353-.41l-.24-.574a1.903 1.903 0 0 0-.433-.663 1.213 1.213 0 0 0-.591-.297 1.195 1.195 0 0 0-.688.093c-.338.141-.548.363-.63.665-.084.295-.037.655.141 1.082.114.273.255.517.423.732.157.211.38.425.67.641a.656.656 0 0 1 .261.345.542.542 0 0 1-.019.358.638.638 0 0 1-.581.411.685.685 0 0 1-.435-.142 3.926 3.926 0 0 1-.903-.855 4.61 4.61 0 0 1-.659-1.113c-.225-.537-.332-1.032-.323-1.486.002-.451.116-.84.342-1.168.216-.332.541-.589.975-.77.31-.13.618-.189.924-.179.3.013.583.089.849.229.265.14.498.345.698.616l-.132.056c-.134-.567-.085-1.072.145-1.514.223-.439.596-.768 1.119-.986.456-.191.901-.243 1.335-.156.434.086.831.301 1.191.644.352.345.649.809.892 1.391zm-2.263-5.353a.745.745 0 0 1 .054.47.527.527 0 0 1-.237.333c-.131.08-.299.112-.506.094l-7.665-.714.485-.203 1.496 3.578c.083.199.096.375.039.528-.06.147-.182.258-.366.335-.192.08-.36.09-.507.03-.149-.067-.265-.2-.348-.399l-1.786-4.274a.798.798 0 0 1-.048-.55c.05-.168.171-.293.363-.372a1.39 1.39 0 0 1 .458-.114c.137-.005.29 0 .461.015l7.306.63a.866.866 0 0 1 .488.173c.126.094.23.241.313.44zm-53.396 68.872c.082.423.111.872.088 1.348a3.864 3.864 0 0 1-.265 1.282.815.815 0 0 1-.292.385.66.66 0 0 1-.367.119.67.67 0 0 1-.351-.116.603.603 0 0 1-.219-.311.826.826 0 0 1 .018-.479c.111-.354.177-.688.198-1.001a4.068 4.068 0 0 0-.07-.937c-.066-.344-.169-.625-.308-.842a1.084 1.084 0 0 0-.525-.448 1.224 1.224 0 0 0-.717-.057c-.392.075-.657.264-.793.566-.147.296-.172.695-.076 1.197l.145.752c.042.219.019.398-.068.537-.088.131-.231.215-.427.252-.196.038-.359.013-.49-.076-.132-.097-.219-.255-.261-.474l-.117-.611a1.91 1.91 0 0 0-.288-.737 1.215 1.215 0 0 0-.518-.413 1.205 1.205 0 0 0-.692-.05c-.36.07-.611.244-.753.523-.143.271-.171.634-.083 1.088.055.29.143.558.263.803.111.238.286.493.525.764a.647.647 0 0 1 .184.391.538.538 0 0 1-.091.347.643.643 0 0 1-.653.284.688.688 0 0 1-.397-.229 3.948 3.948 0 0 1-.708-1.022 4.6 4.6 0 0 1-.418-1.224c-.109-.572-.113-1.079-.011-1.521.094-.44.285-.798.574-1.073.279-.281.65-.466 1.112-.554.329-.063.643-.059.941.014a1.98 1.98 0 0 1 1.341 1.144l-.141.027c-.014-.582.137-1.066.453-1.451.308-.384.74-.63 1.296-.737.486-.093.933-.053 1.34.121.407.174.751.465 1.033.874.273.411.47.926.588 1.545zm-1.383-7.212c.187.979-.037 1.798-.675 2.457-.645.66-1.653 1.121-3.024 1.384-.925.178-1.722.213-2.393.106-.68-.113-1.223-.363-1.63-.748-.409-.392-.675-.914-.8-1.564-.189-.988.027-1.805.651-2.453.621-.655 1.622-1.115 3.001-1.38.917-.176 1.719-.208 2.406-.096.679.105 1.229.349 1.652.731.415.383.685.904.812 1.563zm-1.235.236c-.102-.532-.424-.877-.966-1.033-.543-.164-1.34-.145-2.39.056-1.05.202-1.785.477-2.205.826-.43.342-.594.78-.492 1.313.101.525.415.871.943 1.038.519.168 1.304.151 2.354-.05s1.797-.479 2.241-.832c.444-.353.616-.793.515-1.318zm-16.484-48.778c.199.383.354.805.468 1.268.114.462.15.897.11 1.304a.804.804 0 0 1-.171.452.652.652 0 0 1-.318.219.678.678 0 0 1-.369-.011.602.602 0 0 1-.298-.236.816.816 0 0 1-.119-.464 4.302 4.302 0 0 0-.095-1.016 4.06 4.06 0 0 0-.333-.879c-.162-.311-.34-.552-.535-.72a1.082 1.082 0 0 0-.63-.28 1.224 1.224 0 0 0-.705.149c-.354.184-.554.44-.599.769-.056.325.033.715.268 1.168l.352.68c.103.199.132.377.088.534-.048.151-.16.272-.337.364-.177.092-.341.113-.492.066-.154-.055-.282-.182-.385-.38l-.286-.553a1.93 1.93 0 0 0-.486-.625 1.218 1.218 0 0 0-.613-.248 1.202 1.202 0 0 0-.678.149c-.326.169-.517.407-.574.715-.059.3.017.656.23 1.067.136.262.296.494.481.694.174.198.414.392.72.584.144.088.24.195.288.323.045.12.048.24.011.358a.64.64 0 0 1-.545.458.69.69 0 0 1-.446-.106 3.958 3.958 0 0 1-.969-.779 4.611 4.611 0 0 1-.749-1.054c-.267-.518-.415-1.003-.443-1.455-.035-.45.047-.847.245-1.192.188-.349.491-.632.909-.848.297-.154.6-.239.906-.254a2 2 0 0 1 .864.159c.277.117.526.303.747.557l-.128.066c-.179-.554-.172-1.061.022-1.521.186-.456.53-.814 1.034-1.074.439-.228.878-.316 1.318-.265.44.051.853.232 1.239.544.379.316.714.754 1.003 1.313zm-3.377-6.521c.459.886.476 1.735.052 2.547-.431.817-1.266 1.546-2.506 2.188-.836.433-1.59.694-2.264.782-.684.084-1.275 0-1.775-.254-.503-.26-.907-.684-1.212-1.272-.462-.893-.487-1.738-.073-2.537.409-.805 1.238-1.53 2.485-2.176.828-.429 1.588-.688 2.28-.777.68-.091 1.277-.014 1.791.232.506.25.914.672 1.222 1.267zm-1.116.578c-.249-.482-.656-.72-1.22-.716-.567-.002-1.326.242-2.275.734-.949.491-1.576.964-1.88 1.418-.315.451-.347.917-.098 1.399.246.474.645.717 1.199.727.546.013 1.294-.226 2.243-.717.949-.492 1.587-.97 1.912-1.435.325-.465.365-.935.119-1.41zm-47.416-53.798c.199.16.311.32.334.482.013.164-.051.333-.19.507a.797.797 0 0 1-.331.241 2.143 2.143 0 0 1-.497.124l-3.478.498c-.526.07-.948.177-1.267.32a2.12 2.12 0 0 0-.785.599c-.249.311-.339.628-.269.949.064.317.282.624.656.923.212.17.449.308.711.415.257.113.551.186.884.217.172.014.303.068.393.16a.588.588 0 0 1 .155.323.678.678 0 0 1-.062.365.695.695 0 0 1-.248.292.698.698 0 0 1-.441.091 3.949 3.949 0 0 1-1.227-.306 4.783 4.783 0 0 1-1.121-.667c-.474-.378-.815-.769-1.025-1.171a2.046 2.046 0 0 1-.238-1.217c.051-.409.234-.809.547-1.202.21-.262.458-.482.744-.662.28-.184.61-.335.989-.451.372-.121.81-.215 1.314-.282l3.222-.428-.254.318-2.749-2.197c-.168-.134-.263-.277-.286-.428-.022-.151.031-.307.161-.469.129-.162.273-.252.43-.269.157-.018.319.041.488.175l3.44 2.75zm-7.092-5.822c.511.408.893.831 1.146 1.268.242.439.351.878.326 1.318-.031.435-.203.849-.517 1.241a2.235 2.235 0 0 1-.845.674c-.325.138-.66.192-1.004.162a2.254 2.254 0 0 1-.99-.332l.157-.196c.329.406.498.853.507 1.34-.003.488-.168.938-.497 1.349-.299.374-.647.618-1.043.73-.401.118-.828.109-1.28-.028-.458-.13-.917-.38-1.378-.749-.467-.374-.815-.769-1.043-1.186-.234-.412-.337-.826-.309-1.243.022-.411.183-.804.482-1.178.219-.274.477-.482.773-.623.29-.146.595-.214.914-.204.313.005.62.087.922.247l-.15.187c-.386-.411-.591-.877-.615-1.396-.035-.519.132-1.008.5-1.47.314-.392.683-.649 1.106-.77.418-.126.87-.117 1.357.027.477.146.97.423 1.481.832zm-.747.935c-.443-.354-.843-.537-1.202-.548-.364-.005-.681.161-.95.498-.269.336-.358.678-.268 1.026.089.348.356.698.798 1.052.436.349.837.531 1.202.547.359.011.673-.151.942-.488.269-.336.361-.682.276-1.035-.096-.353-.362-.704-.798-1.052zm-2.369 2.963a2.075 2.075 0 0 0-.726-.396 1.17 1.17 0 0 0-.678.024 1.24 1.24 0 0 0-.559.412c-.239.299-.32.617-.243.955.067.339.284.655.651.949.368.294.724.436 1.07.426.34-.004.629-.155.869-.454.244-.306.333-.628.266-.967-.066-.339-.283-.655-.65-.949z" fill="#fff"/><path d="M660.304 130.935c-.03.254-.108.433-.233.539-.133.096-.31.131-.531.104a.804.804 0 0 1-.38-.154 2.133 2.133 0 0 1-.366-.358l-2.254-2.696c-.336-.41-.649-.713-.939-.909a2.13 2.13 0 0 0-.922-.352c-.396-.048-.712.042-.949.271-.235.22-.382.568-.439 1.044-.033.269-.026.543.021.822.038.278.132.567.281.866.078.154.101.293.07.418a.584.584 0 0 1-.193.302.7.7 0 0 1-.722.082.701.701 0 0 1-.31-.327 3.987 3.987 0 0 1-.385-1.204 4.845 4.845 0 0 1-.023-1.305c.073-.602.225-1.098.457-1.487.232-.39.536-.671.91-.843.374-.172.811-.227 1.31-.167.333.04.651.135.954.284.305.142.606.343.904.604.299.253.609.576.932.968l2.058 2.516-.404-.049.423-3.493c.026-.214.097-.37.213-.469.116-.098.278-.135.484-.11.206.025.357.099.455.224.097.124.133.293.107.507l-.529 4.372zm1.221-9.094c-.079.65-.238 1.197-.476 1.642-.246.437-.562.76-.949.971-.386.202-.829.273-1.328.213a2.23 2.23 0 0 1-1.017-.364 2.077 2.077 0 0 1-.667-.768 2.273 2.273 0 0 1-.238-1.017l.249.03a2.145 2.145 0 0 1-.873 1.136c-.416.255-.886.351-1.409.288-.475-.058-.865-.225-1.168-.503-.312-.279-.529-.647-.651-1.104-.129-.457-.158-.979-.088-1.565.072-.595.226-1.098.46-1.512.227-.415.525-.72.895-.917.361-.197.78-.267 1.255-.21.348.043.661.153.936.331.277.17.495.393.655.67.16.268.252.573.275.913l-.237-.029c.146-.545.434-.964.863-1.258.422-.302.926-.418 1.513-.347.499.06.911.239 1.237.535.327.289.557.678.69 1.169.127.481.151 1.047.073 1.696zm-1.189-.144c.068-.562.013-.999-.167-1.31-.187-.312-.494-.494-.922-.545-.428-.052-.766.052-1.014.311-.249.259-.407.67-.475 1.233-.067.554-.011.991.167 1.31.18.311.483.492.911.544.428.052.77-.052 1.026-.31.249-.267.407-.678.474-1.233zm-3.766-.455a2.071 2.071 0 0 0-.045-.825 1.169 1.169 0 0 0-.378-.564 1.24 1.24 0 0 0-.644-.259c-.38-.046-.693.053-.94.296-.253.235-.408.586-.464 1.053-.057.468.01.845.2 1.134.182.287.464.453.844.499.388.047.709-.047.962-.281.253-.235.408-.586.465-1.053z" fill="#fff"/></g><defs><clipPath id="clip0_7756_224452"><path fill="#fff" transform="rotate(-90 300.12 299.92)" d="M0 0h600.04v898.6H0z"/></clipPath><clipPath id="clip1_7756_224452"><path fill="#fff" transform="rotate(-90 354.66 68.46)" d="M0 0h230.69v326H0z"/></clipPath></defs></svg>