<svg width="298" height="194" viewBox="0 0 298 194" fill="none" xmlns="http://www.w3.org/2000/svg"><path d="M201.208 2H96.79A94.766 94.766 0 0 0 2.027 96.763c0 52.335 42.425 94.763 94.763 94.763h104.418a94.766 94.766 0 0 0 94.763-94.763C295.971 44.428 253.536 2 201.208 2zm19.771 125.019a41.24 41.24 0 0 1-29.249 12.094h-81.712a41.382 41.382 0 0 1-29.49-11.986 41.368 41.368 0 0 1 29.49-70.75h81.712a41.366 41.366 0 0 1 38.239 25.544 41.368 41.368 0 0 1-8.99 45.098z" fill="#E0E0E0"/><path d="M233.096 97.76A41.362 41.362 0 0 1 220.975 127a41.364 41.364 0 0 1-29.245 12.112h-81.712a41.384 41.384 0 0 1-29.49-11.986 41.368 41.368 0 0 1 29.49-70.75h81.712a41.365 41.365 0 0 1 41.366 41.383z" fill="#606060"/><path d="M201.208 2H96.79C44.454 2 2.027 44.427 2.027 96.763c0 52.336 42.427 94.763 94.763 94.763h104.418c52.336 0 94.763-42.427 94.763-94.763C295.971 44.427 253.544 2 201.208 2z" stroke="#fff" stroke-width="3.595" stroke-miterlimit="10"/><path d="M233.096 97.76A41.362 41.362 0 0 1 220.975 127a41.364 41.364 0 0 1-29.245 12.112h-81.712a41.384 41.384 0 0 1-29.49-11.986 41.368 41.368 0 0 1 29.49-70.75h81.712a41.365 41.365 0 0 1 41.366 41.383z" stroke="#fff" stroke-width=".327" stroke-miterlimit="10"/><path d="M137.758 31.325l-2.213 22.896h-26.203a43.728 43.728 0 0 0-8.171.764l-8.694-23.167 45.281-.493zm32.977 0l-2.399 22.896h-29.275l2.758-22.896h28.916zm29.038 0l-5.046 22.958a43.495 43.495 0 0 0-2.331-.063h-20.349l3.118-22.895h24.608zm17.842 3.817l-11.884 21.154a43.447 43.447 0 0 0-7.665-1.71l12.29-21.898 7.259 2.454zm16.981 8.243l-18.765 17.65a43.7 43.7 0 0 0-6.729-3.51l17.126-19.072 8.368 4.932zm12.403 13.005l-22.382 12.061a44.108 44.108 0 0 0-5.929-5.406l20.414-15.45c3.226 3.073 7.897 8.796 7.897 8.796zm8.562 14.683l-24.364 6.837a43.74 43.74 0 0 0-4.183-6.602l23.533-10.204c3.075 3.984 5.014 9.969 5.014 9.969zm4.839 17.826h-25.318a43.221 43.221 0 0 0-2.432-7.844l25.73-3.596c1.775 4.18 2.02 11.44 2.02 11.44zm.343 13.933l-24.821-2.425a43.99 43.99 0 0 0-.291-8.246l25.112.768c.493 3.183 0 9.903 0 9.903zm-1.167 8.476c-.556 5.723-4.017 11.505-4.017 11.505l-21.748-11.316a43.349 43.349 0 0 0 1.778-7.684l23.987 7.495zm-5.155 15.227l-6.674 10.917-19.212-15.228a43.324 43.324 0 0 0 4.167-7.743l21.719 12.054zm-10.17 14.516l-9.714 8.194-13.4-18.631a43.916 43.916 0 0 0 5.478-5.765l17.636 16.202zm-11.849 10.916l-13.708 6.822-7.975-21.389a43.565 43.565 0 0 0 7.583-4.498l14.1 19.065zm-16.934 7.815l-14.882 2.233-.729-21.226a43.365 43.365 0 0 0 8.384-2.33l7.227 21.323zm-17.679 2.233H185.82l2.543-20.592h4.033a43.53 43.53 0 0 0 4.638-.245l.755 20.837zm-12.06-20.592l-2.514 20.592-32.348-.494 4.753-20.098h30.109zm-33.464 0l-5.03 20.592h-32.626l8.021-20.592h29.635zm-33.115 0l-8.015 20.592H89.178l9.403-21.922a43.764 43.764 0 0 0 10.76 1.337l9.809-.007z" fill="#C9C5C5"/><path d="M137.758 19.656l1.111 8.825H90.078l-8.05-24.657c9.25-2.102 57.034-1.121 57.034-1.121l2.654 16.953h-3.958zm49.915-1.539h-4.063l.978 10.38h-35.761l-.947-8.419h-3.083l-2.52-17.604h45.396v15.643zm24.38-14.852l-1.821 15.832h-4.484l-.631 9.806a67.832 67.832 0 0 0-7.282-.392h-4.837v-9.976h-2.805V2.49s13.172-.908 21.86.775zm.004 26.749l.137.02a19.887 19.887 0 0 1 7.289 2.637l.261-.513 3.798-7.442 4.063.843 8.687-15.973s-7.426-3.9-21.572-5.605l-2.66 15.41 2.942.563-2.942 10.076m44.968-8.83l-12.189 14.43-2.941-1.543-5.847 6.406a66.754 66.754 0 0 0-8.6-5.092l5.2-7.743-3.503-1.893 9.387-15.215c13.011 5.397 18.493 10.65 18.493 10.65zm17.515 17.263l-14.967 11.29-2.549-2.916-7.864 5.684a66.073 66.073 0 0 0-6.661-6.906l6.537-7.152-2.347-1.853 12.881-13.45c10.904 7.697 14.97 15.303 14.97 15.303zm12.967 21.042l-18.457 7.63-1.726-3.158-8.498 3.964a66.724 66.724 0 0 0-4.86-8.906l8.808-5.308-1.814-2.461 15.101-10.95c6.524 6.625 11.446 19.19 11.446 19.19zm6.764 23.668l-21.039 3.772-.618-3.2-8.658 1.732a66.31 66.31 0 0 0-2.252-9.95l9.198-2.732-1.118-3.3 18.957-7.296c2.853 6.462 5.53 20.974 5.53 20.974zm0 24.075h-21.533l.615-4.416-8.887-.536c.144-1.781.215-3.595.215-5.402v-1.546c0-1.072-.026-2.14-.078-3.204h9.119l-.369-3.245 20.918-1.961c1.968 7.51 0 20.31 0 20.31zm-.984 3.076c-.859 14.273-5.782 22.579-5.782 22.579l-19.689-6.93.863-3.706-8.057-2.393a66.205 66.205 0 0 0 2.664-9.338l8.959 1.635.493-2.831 20.549.984zm-6.715 24.667c-5.256 14.254-11.466 19.483-11.466 19.483L257.63 143.42l1.935-2.811-7.877-4.111a66.786 66.786 0 0 0 6.174-10.159l8.119 4.135 1.104-2.51 19.49 7.027zm-13.664 21.552c-8.824 12.309-15.571 15.12-15.571 15.12l-14.054-14.165 3.01-3.014-6.259-5.762a66.693 66.693 0 0 0 7.22-6.831l7.165 5.961 1.961-2.412 16.528 11.103zm-39.816-2.562l5.959 6.73 2.425-1.922 14.153 14.482s-9.94 8.332-19.288 10.649l-10.263-16.372 3.014-1.81-4.909-6.949 8.909-4.808zm.717 30.642s-10.328 5.023-22.082 5.527l-5.425-17.183 4.409-1.307-3.023-8.658-.03-.082 8.992-1.909v.023l4.487 8.616 3.033-1.105 9.639 16.078zm-24.027 5.527s-4.952.755-8.347.755v-27.178h.872l1.262 9.414 1.552-.193 4.661 17.202z" fill="#0062CC"/><path d="M216.651 161.011v.023a65.66 65.66 0 0 1-8.975 1.961l-.03-.082 9.005-1.902zm-.924-130.085c1.357.375 2.695.791 4.013 1.249l-.261.513a19.123 19.123 0 0 0-3.752-1.762z" fill="#C9C5C5"/><path d="M201.208 2H96.79C44.454 2 2.027 44.427 2.027 96.763c0 52.336 42.427 94.763 94.763 94.763h104.418c52.336 0 94.763-42.427 94.763-94.763C295.971 44.427 253.544 2 201.208 2z" stroke="#fff" stroke-width="3.595" stroke-miterlimit="10"/><path d="M233.096 97.76A41.362 41.362 0 0 1 220.975 127a41.364 41.364 0 0 1-29.245 12.112h-81.712a41.384 41.384 0 0 1-29.49-11.986 41.368 41.368 0 0 1 29.49-70.75h81.712a41.365 41.365 0 0 1 41.366 41.383z" stroke="#fff" stroke-width=".327" stroke-miterlimit="10"/><path d="M233.096 97.76A41.362 41.362 0 0 1 220.975 127a41.364 41.364 0 0 1-29.245 12.112h-81.712a41.384 41.384 0 0 1-29.49-11.986 41.368 41.368 0 0 1 29.49-70.75h81.712a41.365 41.365 0 0 1 41.366 41.383z" stroke="#fff" stroke-width="3.595" stroke-miterlimit="10"/><path d="M74.088 194v-32.989l127.349-.608v33.345L74.087 194zM202.692 65.938v65.595h-51.403v-30.956l1.752-.284.042-1.357-1.794.278V65.938h51.403zm-52.171 0v33.394l-6.328.922V65.938h6.328zm0 34.763v30.832h-6.328v-29.802l6.328-1.03zm-7.422-34.763v34.453l-7.782 1.085.022-6.991-4.706.046V65.938h12.466zm0 35.973v29.622h-12.466v-28.001l2.794-.046 9.672-1.575zm-13.617-35.973h-12.466v28.387h12.466V65.938zm-.001 37.614v27.981h-12.469v-27.769l12.469-.212z" fill="#C9C5C5"/><path d="M152.825 99.276v.769l-.759.091-1.336.186-6.276 1.063-1.154.183-9.645 1.431-3.023.092-1.151-.046-12.469.137-1.399-.046v28.397h-15.535V66.085l15.921-.147v29.017h18.986v6.907l8.113-1.177 1.095-.157 6.328-.918.768-.111 1.536-.223z" fill="#C9C5C5"/><path d="M110.623 106.859c0 .403-.052.785-.157 1.145a2.55 2.55 0 0 1-.439.871.441.441 0 0 1-.376.181.44.44 0 0 1-.283-.095c-.083-.068-.125-.146-.125-.235 0-.094.036-.201.11-.321.162-.225.279-.461.353-.706.073-.246.109-.518.109-.816 0-.382-.065-.675-.196-.879a.664.664 0 0 0-.588-.306c-.199 0-.35.097-.455.29-.11.189-.214.505-.314.95-.099.46-.214.834-.345 1.121-.131.288-.298.505-.502.651-.204.147-.463.22-.777.22-.324 0-.614-.091-.87-.274a1.779 1.779 0 0 1-.596-.761 2.687 2.687 0 0 1-.22-1.106c0-.748.199-1.357.596-1.828a.512.512 0 0 1 .173-.141.385.385 0 0 1 .204-.047c.109 0 .206.034.29.102a.281.281 0 0 1 .117.227.46.46 0 0 1-.023.149 1.493 1.493 0 0 1-.086.173 2.489 2.489 0 0 0-.345.627 2.01 2.01 0 0 0-.118.738c0 .355.073.638.219.847.142.204.34.306.597.306a.551.551 0 0 0 .494-.275c.115-.183.222-.494.321-.933.105-.466.223-.842.353-1.13.126-.293.288-.515.487-.667.199-.157.447-.235.745-.235.324 0 .612.092.863.275.246.177.439.431.58.76.136.325.204.699.204 1.122zm-.031-4.785a.524.524 0 0 1-.133.376.517.517 0 0 1-.369.134h-4.236v1.427c0 .314-.139.471-.416.471-.277 0-.416-.157-.416-.471v-3.867c0-.314.139-.47.416-.47.277 0 .416.156.416.47v1.428h4.236a.5.5 0 0 1 .369.141.487.487 0 0 1 .133.361zm-.643-7.33a.483.483 0 0 1 .204-.047c.12 0 .222.05.306.15a.483.483 0 0 1 .062.564.467.467 0 0 1-.211.173l-1.052.47v2.761l1.052.471a.47.47 0 0 1 .211.173.5.5 0 0 1-.062.572.385.385 0 0 1-.306.149.474.474 0 0 1-.204-.047l-4.652-2.165a.487.487 0 0 1-.235-.212.613.613 0 0 1-.087-.313c0-.11.029-.212.087-.306.052-.1.13-.173.235-.22l4.652-2.173zm-1.475 1.655l-2.33 1.036 2.33 1.035V96.4zm-.91-6.5c0-.12.037-.217.11-.29a.355.355 0 0 1 .274-.11h1.687c.241 0 .41.03.51.094.099.063.18.19.243.384.073.21.131.452.173.73.041.277.062.544.062.8 0 .57-.112 1.064-.337 1.482-.225.419-.549.74-.973.965-.428.22-.938.33-1.529.33-.581 0-1.083-.11-1.506-.33a2.323 2.323 0 0 1-.981-.949c-.23-.408-.345-.889-.345-1.443 0-.738.199-1.342.596-1.812a.551.551 0 0 1 .173-.134.418.418 0 0 1 .204-.047.45.45 0 0 1 .29.094.283.283 0 0 1 .117.228c0 .057-.007.11-.023.157a1.143 1.143 0 0 1-.094.164c-.162.23-.275.445-.337.644a2.078 2.078 0 0 0-.102.674c0 .57.169 1.002.509 1.295.335.287.835.431 1.499.431 1.359 0 2.039-.596 2.039-1.788a3.92 3.92 0 0 0-.149-1.067h-1.388v.886a.447.447 0 0 1-.094.298.346.346 0 0 1-.267.102.346.346 0 0 1-.267-.102.442.442 0 0 1-.094-.298V89.9zm2.989-2.027a.504.504 0 0 1-.126.36c-.083.084-.201.126-.353.126h-4.573a.477.477 0 0 1-.353-.126.504.504 0 0 1-.126-.36V85.04c0-.152.034-.27.102-.353a.353.353 0 0 1 .291-.126c.13 0 .232.042.306.126a.546.546 0 0 1 .102.353v2.33h1.521v-2.173c0-.152.034-.27.102-.353.068-.084.168-.126.298-.126.126 0 .223.042.291.126a.545.545 0 0 1 .102.353v2.173h1.616v-2.33a.52.52 0 0 1 .109-.353c.068-.084.168-.126.299-.126.125 0 .222.042.29.126a.546.546 0 0 1 .102.353v2.832zm-.499-71.379c.183 0 .275.078.275.233 0 .162-.092.243-.275.243h-1.546c-.187 0-.28-.081-.28-.243 0-.155.093-.233.28-.233h.475v-2.087l-.439.27a.238.238 0 0 1-.114.037.209.209 0 0 1-.165-.082.29.29 0 0 1-.064-.183.23.23 0 0 1 .119-.206l.709-.44a.513.513 0 0 1 .261-.082.28.28 0 0 1 .206.078.29.29 0 0 1 .078.215v2.48h.48zm2.744 0c.183 0 .275.078.275.233 0 .162-.092.243-.275.243h-1.547c-.186 0-.279-.081-.279-.243 0-.155.093-.233.279-.233h.476v-2.087l-.439.27a.238.238 0 0 1-.114.037.207.207 0 0 1-.165-.082.29.29 0 0 1-.064-.183c0-.089.039-.158.119-.206l.709-.44a.507.507 0 0 1 .261-.082.28.28 0 0 1 .206.078.29.29 0 0 1 .077.215v2.48h.481zm1.824.517c-.381 0-.673-.14-.874-.42-.201-.285-.302-.697-.302-1.236 0-.537.101-.946.302-1.227.201-.283.493-.425.874-.425s.673.142.874.425c.201.28.302.69.302 1.227 0 .537-.101.947-.302 1.23-.201.284-.493.426-.874.426zm0-.462a.475.475 0 0 0 .453-.284c.095-.192.142-.495.142-.91 0-.418-.047-.72-.142-.906a.474.474 0 0 0-.453-.284.474.474 0 0 0-.453.284c-.095.189-.142.49-.142.906 0 .415.047.718.142.91.094.19.246.284.453.284zm-.318 27.727c.183 0 .275.078.275.233 0 .162-.092.243-.275.243h-1.546c-.187 0-.28-.081-.28-.243 0-.155.093-.233.28-.233h.475v-2.087l-.439.27a.237.237 0 0 1-.114.037.209.209 0 0 1-.165-.082.29.29 0 0 1-.064-.183.23.23 0 0 1 .119-.206l.709-.44a.512.512 0 0 1 .261-.082.28.28 0 0 1 .206.078.29.29 0 0 1 .078.215v2.48h.48zm2.73 0c.183 0 .275.078.275.233 0 .162-.092.243-.275.243h-1.739a.253.253 0 0 1-.187-.069.25.25 0 0 1-.069-.178c0-.092.035-.174.105-.247l1.044-1.121c.128-.14.221-.269.279-.385a.767.767 0 0 0 .091-.352c0-.144-.041-.253-.123-.33-.083-.076-.2-.114-.353-.114a.956.956 0 0 0-.366.073 1.75 1.75 0 0 0-.352.192.71.71 0 0 1-.091.055.247.247 0 0 1-.092.019c-.052 0-.098-.025-.137-.074a.28.28 0 0 1-.055-.173.28.28 0 0 1 .023-.12.326.326 0 0 1 .082-.096c.134-.106.291-.19.471-.251a1.6 1.6 0 0 1 .54-.096c.315 0 .565.079.751.238a.793.793 0 0 1 .283.64c0 .186-.039.362-.118.526-.08.162-.214.344-.403.545l-.792.842h1.208zm2.039-1.592a.99.99 0 0 1 .513.132.875.875 0 0 1 .347.366c.086.156.129.334.129.536 0 .207-.048.393-.142.558a.983.983 0 0 1-.385.38 1.101 1.101 0 0 1-.553.137c-.409 0-.725-.137-.948-.412-.219-.277-.329-.672-.329-1.185 0-.35.052-.654.156-.91.103-.26.251-.458.443-.595a1.16 1.16 0 0 1 .687-.206c.174 0 .348.032.521.096.177.06.327.145.449.252a.29.29 0 0 1 .082.1c.019.03.028.069.028.114 0 .068-.02.126-.06.174a.164.164 0 0 1-.132.069.268.268 0 0 1-.087-.014.874.874 0 0 1-.101-.055c-.253-.176-.479-.265-.677-.265-.223 0-.398.104-.527.311-.128.205-.195.493-.201.865a.772.772 0 0 1 .316-.325.911.911 0 0 1 .471-.123zm-.123 1.642a.526.526 0 0 0 .402-.16.61.61 0 0 0 .151-.43.593.593 0 0 0-.151-.425.526.526 0 0 0-.402-.16.556.556 0 0 0-.417.164.577.577 0 0 0-.155.421.6.6 0 0 0 .155.43c.107.107.246.16.417.16zm45.688-27.832c.183 0 .275.078.275.233 0 .162-.092.243-.275.243h-1.546c-.187 0-.28-.081-.28-.243 0-.155.093-.233.28-.233h.475v-2.087l-.439.27a.238.238 0 0 1-.114.037.209.209 0 0 1-.165-.082.29.29 0 0 1-.064-.183.23.23 0 0 1 .119-.206l.709-.44a.513.513 0 0 1 .261-.082.28.28 0 0 1 .206.078.29.29 0 0 1 .078.215v2.48h.48zm2.744 0c.183 0 .274.078.274.233 0 .162-.091.243-.274.243h-1.547c-.186 0-.279-.081-.279-.243 0-.155.093-.233.279-.233h.476v-2.087l-.439.27a.238.238 0 0 1-.114.037.207.207 0 0 1-.165-.082.29.29 0 0 1-.064-.183c0-.089.039-.158.119-.206l.709-.44a.507.507 0 0 1 .261-.082.28.28 0 0 1 .206.078.29.29 0 0 1 .077.215v2.48h.481zm2.744 0c.183 0 .274.078.274.233 0 .162-.091.243-.274.243h-1.547c-.186 0-.279-.081-.279-.243 0-.155.093-.233.279-.233h.476v-2.087l-.439.27a.238.238 0 0 1-.115.037.206.206 0 0 1-.164-.082.29.29 0 0 1-.065-.183.23.23 0 0 1 .119-.206l.71-.44a.507.507 0 0 1 .261-.082c.085 0 .154.026.205.078a.29.29 0 0 1 .078.215v2.48h.481zm-17.253 28.109c.183 0 .274.078.274.233 0 .162-.091.243-.274.243h-1.547c-.186 0-.279-.081-.279-.243 0-.155.093-.233.279-.233h.476v-2.087l-.439.27a.238.238 0 0 1-.115.037.209.209 0 0 1-.165-.083.295.295 0 0 1-.064-.182.23.23 0 0 1 .119-.207l.71-.439a.507.507 0 0 1 .26-.082c.086 0 .154.026.206.078a.29.29 0 0 1 .078.215v2.48h.481zm2.73 0c.183 0 .274.078.274.233 0 .162-.091.243-.274.243h-1.739a.254.254 0 0 1-.188-.069.25.25 0 0 1-.068-.178c0-.092.035-.174.105-.247l1.043-1.122c.128-.14.221-.268.279-.384a.769.769 0 0 0 .092-.352c0-.144-.041-.253-.124-.33-.082-.076-.2-.114-.352-.114a.956.956 0 0 0-.366.073c-.116.046-.234.11-.353.192a.71.71 0 0 1-.091.055.247.247 0 0 1-.092.019c-.051 0-.097-.025-.137-.074a.28.28 0 0 1-.055-.174.29.29 0 0 1 .023-.118.34.34 0 0 1 .082-.097 1.56 1.56 0 0 1 .472-.251 1.6 1.6 0 0 1 .54-.096c.314 0 .564.079.75.237a.794.794 0 0 1 .284.641c0 .186-.04.362-.119.526a2.343 2.343 0 0 1-.403.545l-.791.842h1.208zm2.771-2.75c.079 0 .14.023.183.068.042.043.064.1.064.17s-.022.143-.064.22l-1.46 2.649c-.061.103-.145.155-.252.155a.296.296 0 0 1-.196-.073.25.25 0 0 1-.083-.188.3.3 0 0 1 .046-.155l1.313-2.37h-1.382c-.183 0-.274-.078-.274-.234 0-.161.091-.242.274-.242h1.831zm23.915 3.077c.183 0 .274.077.274.233 0 .162-.091.242-.274.242h-1.547c-.186 0-.279-.08-.279-.242 0-.156.093-.233.279-.233h.476v-2.087l-.439.27a.238.238 0 0 1-.115.037.209.209 0 0 1-.165-.083.295.295 0 0 1-.064-.183.23.23 0 0 1 .119-.206l.71-.439a.507.507 0 0 1 .26-.082c.086 0 .154.026.206.078a.29.29 0 0 1 .078.215v2.48h.481zm2.73 0c.183 0 .274.077.274.233 0 .162-.091.242-.274.242h-1.739a.254.254 0 0 1-.188-.068.25.25 0 0 1-.068-.179.35.35 0 0 1 .105-.247l1.043-1.12a1.81 1.81 0 0 0 .279-.385.769.769 0 0 0 .092-.352c0-.144-.041-.254-.124-.33-.082-.076-.2-.114-.352-.114a.956.956 0 0 0-.366.073c-.116.046-.234.11-.353.192a.733.733 0 0 1-.091.055.247.247 0 0 1-.092.018c-.051 0-.097-.024-.137-.073a.28.28 0 0 1-.055-.174.29.29 0 0 1 .023-.119.342.342 0 0 1 .082-.096c.135-.107.292-.19.472-.252a1.6 1.6 0 0 1 .54-.096c.314 0 .564.08.75.238a.794.794 0 0 1 .284.64c0 .187-.04.362-.119.527a2.346 2.346 0 0 1-.403.545l-.791.842h1.208zm2.46-1.18a.767.767 0 0 1 .59.786.793.793 0 0 1-.32.668c-.214.159-.51.238-.888.238s-.674-.08-.888-.238a.793.793 0 0 1-.32-.668.762.762 0 0 1 .595-.787.796.796 0 0 1-.38-.284.776.776 0 0 1-.137-.457c0-.269.1-.48.302-.636.201-.156.477-.234.828-.234s.627.078.828.234a.762.762 0 0 1 .302.636.791.791 0 0 1-.137.462.743.743 0 0 1-.375.28zm-.618-1.15c-.382 0-.572.156-.572.467 0 .156.047.275.142.357.097.08.241.12.43.12s.331-.04.425-.12c.098-.082.147-.201.147-.357 0-.31-.191-.467-.572-.467zm0 2.38c.436 0 .654-.163.654-.49 0-.326-.218-.49-.654-.49-.436 0-.655.164-.655.49 0 .327.219.49.655.49zm11.115-28.486c.183 0 .275.078.275.233 0 .162-.092.243-.275.243h-1.547c-.186 0-.279-.081-.279-.243 0-.155.093-.233.279-.233h.476v-2.087l-.439.27a.238.238 0 0 1-.114.037.209.209 0 0 1-.165-.082.29.29 0 0 1-.064-.183.23.23 0 0 1 .119-.206l.709-.44a.513.513 0 0 1 .261-.082.28.28 0 0 1 .206.078.29.29 0 0 1 .078.215v2.48h.48zm2.744 0c.183 0 .274.078.274.233 0 .162-.091.243-.274.243h-1.547c-.186 0-.279-.081-.279-.243 0-.155.093-.233.279-.233h.476v-2.087l-.439.27a.238.238 0 0 1-.115.037.206.206 0 0 1-.164-.082.29.29 0 0 1-.064-.183c0-.089.039-.158.119-.206l.709-.44a.507.507 0 0 1 .261-.082.28.28 0 0 1 .206.078.294.294 0 0 1 .077.215v2.48h.481zm2.73 0c.183 0 .274.078.274.233 0 .162-.091.243-.274.243h-1.739a.255.255 0 0 1-.188-.069.254.254 0 0 1-.068-.178c0-.092.035-.174.105-.247l1.043-1.121c.128-.14.221-.269.279-.385a.769.769 0 0 0 .092-.352c0-.144-.041-.253-.124-.33-.082-.076-.199-.114-.352-.114a.956.956 0 0 0-.366.073 1.78 1.78 0 0 0-.352.192.72.72 0 0 1-.092.055.242.242 0 0 1-.091.019c-.052 0-.098-.025-.138-.074a.286.286 0 0 1-.055-.174.29.29 0 0 1 .023-.118.345.345 0 0 1 .083-.097c.134-.106.291-.19.471-.251a1.6 1.6 0 0 1 .54-.096c.314 0 .564.079.75.238a.79.79 0 0 1 .284.64c0 .186-.04.362-.119.527a2.315 2.315 0 0 1-.403.544l-.791.842h1.208zm5.476 29.231c.086-.161.198-.205.335-.132.143.077.171.196.084.357l-.731 1.363c-.088.164-.203.207-.346.131-.137-.074-.162-.192-.074-.356l.226-.42-1.839-.986.03.514a.239.239 0 0 1-.022.118.207.207 0 0 1-.15.107.292.292 0 0 1-.192-.03.23.23 0 0 1-.125-.203l-.052-.832a.51.51 0 0 1 .051-.27.28.28 0 0 1 .166-.144.29.29 0 0 1 .226.033l2.186 1.173.227-.423zm1.291-2.406c.086-.16.198-.205.335-.131.143.076.171.195.084.356l-.822 1.533a.254.254 0 0 1-.149.132.252.252 0 0 1-.19-.023.346.346 0 0 1-.168-.21l-.494-1.45a1.753 1.753 0 0 0-.207-.427.77.77 0 0 0-.267-.248c-.127-.067-.243-.083-.349-.046-.106.036-.195.122-.267.256a.936.936 0 0 0-.109.357 1.69 1.69 0 0 0 .003.401.782.782 0 0 1 .005.107.26.26 0 0 1-.027.09c-.025.045-.068.074-.13.086a.281.281 0 0 1-.179-.034.286.286 0 0 1-.094-.077.345.345 0 0 1-.046-.118 1.57 1.57 0 0 1 .001-.534c.029-.189.086-.363.171-.521.149-.277.337-.46.565-.549a.792.792 0 0 1 .698.053c.164.088.3.206.408.354.105.146.201.35.289.612l.368 1.096.571-1.065zm-1.638-2.85c.193-.36.464-.571.812-.634.348-.066.747.022 1.199.264.309.166.553.356.732.57.177.213.28.438.308.674.031.235-.016.467-.141.699a1.608 1.608 0 0 1-.329.42 1.404 1.404 0 0 1-.436.27.402.402 0 0 1-.125.031.285.285 0 0 1-.116-.036.262.262 0 0 1-.123-.129.173.173 0 0 1 0-.155.23.23 0 0 1 .057-.068.522.522 0 0 1 .092-.065c.276-.14.461-.296.554-.471.106-.196.099-.4-.021-.609-.122-.21-.346-.407-.671-.588a.796.796 0 0 1 .141.434.938.938 0 0 1-.118.471c-.091.17-.209.3-.355.391a.948.948 0 0 1-.489.138 1.151 1.151 0 0 1-.534-.147 1.102 1.102 0 0 1-.423-.383 1.005 1.005 0 0 1-.157-.52 1.128 1.128 0 0 1 .143-.557zm1.462.749a.547.547 0 0 0 .054-.439.585.585 0 0 0-.299-.342.576.576 0 0 0-.451-.06.54.54 0 0 0-.34.285.522.522 0 0 0-.045.432c.046.14.148.25.303.334a.596.596 0 0 0 .447.069.527.527 0 0 0 .331-.28zm11.698 11.378c.123-.135.242-.15.357-.046.12.108.118.23-.005.366l-1.039 1.145c-.126.138-.248.153-.368.044-.115-.105-.11-.226.015-.364l.32-.352-1.545-1.402-.096.507a.235.235 0 0 1-.049.109.209.209 0 0 1-.172.067.294.294 0 0 1-.179-.076.23.23 0 0 1-.072-.227l.151-.82a.506.506 0 0 1 .115-.248.276.276 0 0 1 .195-.1.29.29 0 0 1 .212.086l1.837 1.667.323-.356zm.683-2.51a.751.751 0 0 1 .502-.138.798.798 0 0 1 .477.223.81.81 0 0 1 .286.673c-.016.262-.14.522-.374.78a1.797 1.797 0 0 1-.452.362 1.376 1.376 0 0 1-.504.173.278.278 0 0 1-.318-.22c-.009-.063.003-.113.038-.152a.19.19 0 0 1 .069-.048.738.738 0 0 1 .105-.041 2.03 2.03 0 0 0 .392-.139c.111-.055.213-.133.306-.235.135-.15.206-.287.213-.412.005-.128-.054-.247-.176-.358-.12-.108-.243-.15-.369-.124-.126.021-.261.11-.405.269l-.175.193a.206.206 0 0 1-.162.076.272.272 0 0 1-.244-.222.208.208 0 0 1 .06-.168l.123-.135c.281-.31.305-.57.072-.781-.108-.099-.221-.142-.339-.13a.53.53 0 0 0-.335.192c-.149.165-.244.4-.283.707-.01.048-.019.085-.027.111a.213.213 0 0 1-.045.07.177.177 0 0 1-.143.056.283.283 0 0 1-.166-.076.249.249 0 0 1-.069-.094.38.38 0 0 1-.019-.129c.007-.166.047-.336.121-.508.073-.176.173-.333.298-.471.213-.235.44-.37.68-.402a.767.767 0 0 1 .652.208c.128.12.212.26.25.419a.757.757 0 0 1-.039.471zm2.769-.525c-.256.282-.556.404-.899.364-.345-.041-.718-.243-1.118-.606-.398-.361-.633-.71-.705-1.048-.075-.34.016-.65.272-.933.256-.283.557-.403.903-.362.343.04.713.24 1.111.601.397.36.633.711.708 1.05.075.34-.016.652-.272.934zm-.342-.31a.473.473 0 0 0 .094-.527c-.079-.199-.272-.438-.579-.717-.309-.28-.565-.448-.766-.503a.474.474 0 0 0-.515.144.475.475 0 0 0-.094.526c.077.198.268.436.576.714.307.28.563.448.769.507a.475.475 0 0 0 .515-.145zm8.377 11.03c.157-.094.276-.074.355.06.083.138.046.254-.111.348l-1.327.793c-.16.096-.282.074-.364-.065-.08-.133-.04-.248.119-.343l.409-.244-1.07-1.791-.239.457a.242.242 0 0 1-.079.09.209.209 0 0 1-.184.014.289.289 0 0 1-.149-.125.23.23 0 0 1-.003-.237l.383-.741a.506.506 0 0 1 .182-.205.277.277 0 0 1 .216-.039.288.288 0 0 1 .177.145l1.273 2.13.412-.247zm1.384-2.203a.754.754 0 0 1 .521.014c.158.062.288.18.391.353.143.238.169.48.078.726-.091.247-.286.459-.585.637-.17.102-.349.174-.538.215a1.375 1.375 0 0 1-.532.02.276.276 0 0 1-.2-.13.26.26 0 0 1-.04-.174c.009-.063.036-.107.08-.134a.18.18 0 0 1 .08-.026.762.762 0 0 1 .113-.009c.153.008.292.002.415-.019.123-.02.243-.065.361-.136.173-.103.281-.213.324-.332.041-.12.02-.252-.064-.393-.083-.139-.189-.214-.317-.227-.127-.016-.282.03-.466.14l-.224.134a.205.205 0 0 1-.176.026.265.265 0 0 1-.132-.114.254.254 0 0 1-.037-.17.205.205 0 0 1 .106-.143l.157-.094c.359-.214.458-.456.296-.726-.075-.125-.171-.2-.287-.222a.527.527 0 0 0-.375.085c-.192.115-.35.313-.477.594a2.952 2.952 0 0 1-.058.1.248.248 0 0 1-.064.053.177.177 0 0 1-.153.012.281.281 0 0 1-.136-.121.241.241 0 0 1-.039-.11.367.367 0 0 1 .019-.13c.055-.157.143-.307.263-.45.122-.147.263-.269.422-.364.273-.163.529-.225.768-.187.242.037.43.166.563.389a.842.842 0 0 1 .118.473.763.763 0 0 1-.175.44zm3.327-.612c.157-.094.275-.074.355.06.083.138.046.254-.111.348l-1.328.794c-.16.095-.281.073-.364-.065-.08-.134-.04-.248.12-.344l.408-.244-1.07-1.791-.238.457a.244.244 0 0 1-.08.09.209.209 0 0 1-.184.014.291.291 0 0 1-.148-.124.228.228 0 0 1-.004-.238l.384-.741a.511.511 0 0 1 .181-.205.28.28 0 0 1 .217-.038.29.29 0 0 1 .177.144l1.272 2.13.413-.247zm2.731 15.505c.176-.052.286-.003.33.146.045.155-.02.259-.195.31l-1.484.436c-.179.053-.291.001-.336-.154-.044-.149.023-.25.202-.302l.456-.135-.588-2.002-.346.383a.236.236 0 0 1-.099.068.207.207 0 0 1-.181-.033.288.288 0 0 1-.113-.157.228.228 0 0 1 .056-.231l.556-.622a.513.513 0 0 1 .227-.152.28.28 0 0 1 .22.016.292.292 0 0 1 .135.184l.699 2.38.461-.135zm1.892-1.787a.75.75 0 0 1 .5.144c.137.1.234.246.291.44a.808.808 0 0 1-.107.722c-.15.216-.391.373-.725.47-.19.057-.382.081-.575.074a1.379 1.379 0 0 1-.52-.114.277.277 0 0 1-.161-.176.258.258 0 0 1 .005-.178c.024-.058.061-.095.111-.11a.18.18 0 0 1 .084-.005.771.771 0 0 1 .111.02c.147.046.282.074.406.085.125.012.252-.002.384-.04.193-.058.326-.138.397-.241.07-.107.082-.24.036-.397-.046-.155-.129-.255-.25-.299-.119-.048-.281-.041-.486.019l-.25.073a.206.206 0 0 1-.177-.019.273.273 0 0 1-.093-.316.206.206 0 0 1 .138-.112l.176-.052c.401-.118.557-.328.469-.629-.042-.14-.116-.236-.223-.287a.529.529 0 0 0-.385-.011c-.214.062-.417.214-.61.456a2.165 2.165 0 0 1-.081.08.236.236 0 0 1-.075.037.178.178 0 0 1-.151-.027.282.282 0 0 1-.102-.152.253.253 0 0 1-.01-.116.411.411 0 0 1 .05-.12 1.655 1.655 0 0 1 .868-.617c.304-.09.568-.086.79.011a.764.764 0 0 1 .448.517.834.834 0 0 1-.005.488.756.756 0 0 1-.278.382zm3.36.243c.176-.051.285-.002.329.147.046.155-.019.258-.195.31l-1.668.49a.252.252 0 0 1-.199-.013.252.252 0 0 1-.117-.152.351.351 0 0 1 .032-.266l.685-1.37c.083-.171.136-.32.159-.448a.777.777 0 0 0-.011-.364c-.041-.137-.111-.23-.212-.28a.498.498 0 0 0-.37-.011.963.963 0 0 0-.331.173 1.77 1.77 0 0 0-.284.284.692.692 0 0 1-.072.078.24.24 0 0 1-.083.044c-.049.014-.1.004-.152-.032a.282.282 0 0 1-.102-.151.286.286 0 0 1-.011-.12.328.328 0 0 1 .052-.116c.098-.14.225-.265.381-.374.155-.113.318-.194.491-.245.301-.089.564-.083.787.017a.795.795 0 0 1 .453.534c.052.179.064.358.034.539-.031.177-.108.39-.233.636l-.522 1.03 1.159-.34zm-1.697 13.938c.182-.013.279.057.291.213.012.16-.073.248-.256.262l-1.542.115c-.186.014-.284-.06-.296-.221-.012-.155.075-.24.26-.254l.475-.035-.155-2.08-.418.301a.238.238 0 0 1-.112.045.208.208 0 0 1-.17-.07.29.29 0 0 1-.078-.177.23.23 0 0 1 .104-.215l.674-.49a.51.51 0 0 1 .254-.102.277.277 0 0 1 .211.062.29.29 0 0 1 .094.209l.185 2.473.479-.036zm2.224-1.35a.748.748 0 0 1 .458.246c.114.126.178.29.193.49a.809.809 0 0 1-.256.685c-.192.18-.461.282-.808.308a1.796 1.796 0 0 1-.577-.049 1.368 1.368 0 0 1-.484-.22.275.275 0 0 1-.121-.207.263.263 0 0 1 .042-.173c.036-.052.079-.08.131-.083a.183.183 0 0 1 .084.012.782.782 0 0 1 .104.043c.134.075.26.131.379.168.12.037.247.05.384.04.201-.014.347-.065.439-.151.091-.09.13-.217.118-.381-.012-.161-.073-.276-.182-.344-.106-.072-.266-.1-.479-.084l-.26.02a.206.206 0 0 1-.169-.057.265.265 0 0 1-.067-.16.254.254 0 0 1 .042-.168.21.21 0 0 1 .16-.08l.182-.014c.417-.032.614-.204.59-.517-.011-.146-.063-.255-.157-.328a.53.53 0 0 0-.374-.091c-.222.016-.453.122-.692.318a1.91 1.91 0 0 1-.097.062.225.225 0 0 1-.081.02.178.178 0 0 1-.142-.059.282.282 0 0 1-.068-.169.258.258 0 0 1 .015-.116.4.4 0 0 1 .074-.106c.12-.116.266-.211.438-.285a1.63 1.63 0 0 1 .54-.137c.317-.024.574.035.771.176.2.141.31.341.329.6a.83.83 0 0 1-.107.476.762.762 0 0 1-.352.315zm2.736-.204a.753.753 0 0 1 .459.245.8.8 0 0 1 .192.49.809.809 0 0 1-.256.685c-.192.18-.461.283-.808.308a1.8 1.8 0 0 1-.577-.048 1.376 1.376 0 0 1-.484-.22.276.276 0 0 1-.121-.208.263.263 0 0 1 .042-.172c.036-.052.08-.08.131-.084a.181.181 0 0 1 .084.012.782.782 0 0 1 .104.043c.134.076.261.132.38.169.119.037.247.05.383.04.201-.015.347-.066.439-.152.091-.09.13-.216.118-.38-.012-.162-.072-.276-.182-.345-.106-.071-.265-.1-.478-.083l-.261.02a.207.207 0 0 1-.169-.057.272.272 0 0 1-.067-.16.25.25 0 0 1 .043-.169.206.206 0 0 1 .159-.08l.182-.014c.417-.031.614-.203.59-.517-.011-.146-.063-.255-.157-.327a.529.529 0 0 0-.374-.092c-.222.017-.453.123-.692.318a1.983 1.983 0 0 1-.097.062.223.223 0 0 1-.081.02.178.178 0 0 1-.142-.058.282.282 0 0 1-.067-.17.246.246 0 0 1 .014-.115.407.407 0 0 1 .075-.107c.119-.116.265-.21.437-.285a1.63 1.63 0 0 1 .54-.136c.317-.024.574.035.771.176.2.141.31.34.329.6a.83.83 0 0 1-.107.475.763.763 0 0 1-.352.316zm-3.412 14.15c.182.02.265.108.247.263-.017.16-.117.23-.299.21l-1.537-.17c-.185-.022-.269-.112-.251-.273.017-.154.118-.221.303-.2l.473.052.231-2.074-.466.22a.236.236 0 0 1-.118.023.205.205 0 0 1-.154-.1.29.29 0 0 1-.044-.189.23.23 0 0 1 .141-.191l.754-.358a.509.509 0 0 1 .268-.053c.085.01.15.043.196.1a.29.29 0 0 1 .054.222l-.275 2.465.477.053zm2.435-.916a.75.75 0 0 1 .406.326.802.802 0 0 1 .099.517.808.808 0 0 1-.379.626c-.221.14-.504.192-.85.154a1.795 1.795 0 0 1-.558-.155 1.367 1.367 0 0 1-.436-.306.278.278 0 0 1-.007-.388c.045-.044.093-.063.144-.057a.18.18 0 0 1 .08.027.792.792 0 0 1 .095.061c.117.1.231.178.342.236.11.059.233.096.369.11.201.023.353 0 .459-.068.106-.07.169-.188.187-.352.018-.16-.021-.285-.115-.372-.091-.09-.243-.147-.455-.17l-.26-.03a.209.209 0 0 1-.156-.086.266.266 0 0 1-.036-.17.252.252 0 0 1 .073-.157.205.205 0 0 1 .171-.05l.182.02c.415.046.64-.087.675-.399.016-.145-.015-.262-.094-.351a.528.528 0 0 0-.351-.159c-.221-.025-.467.037-.739.185-.045.02-.08.034-.106.043a.23.23 0 0 1-.083.005.176.176 0 0 1-.129-.084.278.278 0 0 1-.035-.178.261.261 0 0 1 .035-.112.403.403 0 0 1 .093-.09c.139-.093.3-.159.483-.2.186-.044.371-.055.556-.035.315.035.557.14.725.316a.77.77 0 0 1 .213.65.837.837 0 0 1-.193.448.76.76 0 0 1-.405.245zm3.196.927c.091.01.157.037.198.082a.213.213 0 0 1 .05.176c-.017.151-.117.217-.298.197l-.232-.026-.04.36c-.011.093-.046.163-.107.208a.277.277 0 0 1-.213.055.29.29 0 0 1-.2-.1.294.294 0 0 1-.053-.228l.04-.359-1.192-.133a.257.257 0 0 1-.183-.09.25.25 0 0 1-.049-.184.352.352 0 0 1 .096-.201l1.631-1.863a.287.287 0 0 1 .124-.083.296.296 0 0 1 .145-.02.299.299 0 0 1 .196.1.277.277 0 0 1 .062.228l-.207 1.855.232.026zm-.805-.09l.137-1.223-.983 1.129.846.094zm-7.3 14.454c.164.082.211.193.141.332-.073.144-.191.176-.354.093l-1.383-.694c-.166-.083-.213-.197-.14-.342.07-.139.188-.167.354-.083l.425.214.937-1.865-.514.044a.23.23 0 0 1-.118-.019.208.208 0 0 1-.111-.147.294.294 0 0 1 .025-.192.23.23 0 0 1 .199-.131l.831-.074a.51.51 0 0 1 .27.043.283.283 0 0 1 .149.162.29.29 0 0 1-.027.227l-1.113 2.217.429.215zm2.602-.014a.76.76 0 0 1 .267.446.805.805 0 0 1-.087.52.807.807 0 0 1-.572.455c-.256.056-.54.005-.851-.151a1.788 1.788 0 0 1-.47-.338 1.378 1.378 0 0 1-.302-.439.28.28 0 0 1 .002-.239.268.268 0 0 1 .126-.127c.057-.026.109-.027.155-.004a.183.183 0 0 1 .065.054.682.682 0 0 1 .068.09c.076.134.156.247.239.34.083.093.186.17.308.232.18.09.332.122.454.095.125-.03.224-.118.298-.266.072-.144.079-.274.021-.388-.055-.116-.177-.222-.368-.318l-.233-.117a.204.204 0 0 1-.116-.136.266.266 0 0 1 .024-.171.253.253 0 0 1 .123-.123.205.205 0 0 1 .178.013l.164.082c.373.187.631.141.772-.14.065-.131.077-.252.033-.362a.527.527 0 0 0-.274-.271c-.199-.1-.451-.127-.757-.083a1.907 1.907 0 0 1-.114.004.231.231 0 0 1-.08-.025.178.178 0 0 1-.092-.123.281.281 0 0 1 .029-.18.268.268 0 0 1 .072-.092.398.398 0 0 1 .119-.053c.162-.038.336-.044.522-.019.189.023.367.077.533.16.284.143.474.325.57.548.1.224.091.452-.025.683a.843.843 0 0 1-.337.354.766.766 0 0 1-.464.089zm2.344.722c.18.09.318.209.415.356a.9.9 0 0 1 .16.486c.007.177-.035.356-.125.536a1.065 1.065 0 0 1-.382.433.977.977 0 0 1-.534.156 1.314 1.314 0 0 1-.6-.152 1.746 1.746 0 0 1-.457-.333 1.487 1.487 0 0 1-.298-.436.274.274 0 0 1 .002-.239.262.262 0 0 1 .125-.127c.058-.026.109-.027.156-.004.027.014.05.032.069.056.021.02.042.049.063.088.071.131.148.243.231.336a.976.976 0 0 0 .301.227c.179.091.34.115.48.073.141-.042.253-.146.336-.313a.554.554 0 0 0 .044-.454c-.047-.143-.155-.257-.324-.342a.964.964 0 0 0-.309-.099 1.016 1.016 0 0 0-.33.024.32.32 0 0 1-.186-.027.228.228 0 0 1-.114-.119.182.182 0 0 1 .008-.159l.641-1.276a.269.269 0 0 1 .156-.147.276.276 0 0 1 .217.027l1.361.684c.164.082.211.191.143.327-.069.137-.185.164-.348.082l-1.096-.551-.39.777a.965.965 0 0 1 .585.11zm-10.219 11.762c.16.088.202.201.127.337-.078.141-.197.168-.358.079l-1.353-.749c-.163-.09-.205-.206-.127-.347.076-.137.195-.16.358-.069l.416.23 1.01-1.826-.515.024a.222.222 0 0 1-.117-.024.21.21 0 0 1-.105-.151.295.295 0 0 1 .033-.192.23.23 0 0 1 .204-.122l.833-.041a.505.505 0 0 1 .268.054.284.284 0 0 1 .143.168.293.293 0 0 1-.036.226l-1.202 2.17.421.233zm2.6.089a.756.756 0 0 1 .249.457.795.795 0 0 1-.108.516.807.807 0 0 1-.589.432c-.259.045-.54-.017-.845-.185a1.812 1.812 0 0 1-.456-.357 1.388 1.388 0 0 1-.284-.45.276.276 0 0 1 .012-.239.264.264 0 0 1 .13-.122c.058-.023.11-.023.156.003a.187.187 0 0 1 .063.055.82.82 0 0 1 .064.093c.07.137.145.253.225.35.079.096.179.177.299.244.176.097.326.135.45.113.125-.025.227-.11.307-.254.079-.141.091-.27.037-.387-.05-.118-.168-.229-.355-.333l-.228-.126a.21.21 0 0 1-.111-.14.27.27 0 0 1 .032-.171.25.25 0 0 1 .128-.117.205.205 0 0 1 .177.02l.16.088c.366.203.625.166.777-.108.071-.129.087-.249.048-.361a.529.529 0 0 0-.263-.281c-.195-.108-.446-.146-.753-.114a1.36 1.36 0 0 1-.115-.001.227.227 0 0 1-.078-.027.178.178 0 0 1-.087-.127.276.276 0 0 1 .036-.179.26.26 0 0 1 .075-.089.436.436 0 0 1 .121-.048c.164-.031.338-.031.522.002.189.031.365.091.527.181.278.154.46.344.548.57a.767.767 0 0 1-.053.682.84.84 0 0 1-.35.34.762.762 0 0 1-.468.07zm2.34.825a.985.985 0 0 1 .384.364c.089.147.131.31.127.489-.001.177-.05.354-.148.53-.1.182-.231.321-.394.42a.977.977 0 0 1-.52.146 1.105 1.105 0 0 1-.551-.148c-.358-.198-.568-.471-.629-.819-.058-.349.037-.748.285-1.197.17-.307.363-.547.577-.721a1.3 1.3 0 0 1 .677-.305c.237-.026.47.025.7.152.152.084.289.196.41.336.125.14.215.285.27.438a.29.29 0 0 1 .024.128.224.224 0 0 1-.032.113.268.268 0 0 1-.136.124.165.165 0 0 1-.149-.005.267.267 0 0 1-.07-.054.898.898 0 0 1-.061-.097c-.136-.277-.291-.464-.464-.56-.195-.108-.399-.102-.611.018-.211.116-.41.336-.595.659a.776.776 0 0 1 .433-.132.912.912 0 0 1 .473.121zm-.904 1.377c.147.081.29.1.43.055a.61.61 0 0 0 .34-.303.592.592 0 0 0 .074-.446.526.526 0 0 0-.275-.335.55.55 0 0 0-.444-.057.579.579 0 0 0-.34.293.605.605 0 0 0-.072.451.564.564 0 0 0 .287.342zM228.34 135c.109.146.102.266-.023.359-.129.097-.249.072-.358-.074l-.927-1.239c-.112-.148-.103-.271.027-.368.124-.094.242-.066.354.083l.285.381 1.671-1.25-.48-.19a.232.232 0 0 1-.098-.07.206.206 0 0 1-.032-.181.287.287 0 0 1 .108-.161.23.23 0 0 1 .236-.028l.777.305c.098.04.172.093.222.159a.282.282 0 0 1 .061.212.292.292 0 0 1-.126.191l-1.985 1.486.288.385zm2.334 1.148a.756.756 0 0 1 .04.519.806.806 0 0 1-.31.426.81.81 0 0 1-.715.152c-.254-.065-.486-.236-.694-.515a1.778 1.778 0 0 1-.27-.513 1.392 1.392 0 0 1-.074-.527.28.28 0 0 1 .277-.27c.063.002.11.024.141.066.019.024.03.05.035.077a.8.8 0 0 1 .02.11c.008.154.029.291.062.411.033.121.09.236.173.346.12.161.242.257.364.287.124.029.252-.006.384-.105.129-.097.194-.209.193-.338.003-.128-.06-.278-.188-.449l-.156-.208a.208.208 0 0 1-.044-.174.264.264 0 0 1 .099-.142.253.253 0 0 1 .165-.055c.06.004.112.035.154.091l.109.146c.251.335.502.408.753.22a.432.432 0 0 0 .192-.309.533.533 0 0 0-.124-.365c-.134-.178-.347-.315-.64-.412a2.989 2.989 0 0 1-.105-.048.219.219 0 0 1-.06-.058.176.176 0 0 1-.027-.151.28.28 0 0 1 .106-.148.263.263 0 0 1 .105-.05.39.39 0 0 1 .13.006c.162.038.321.11.476.215.159.106.294.233.406.382.19.254.278.502.265.745a.765.765 0 0 1-.328.6.843.843 0 0 1-.458.166.77.77 0 0 1-.456-.128zm3.161 1.604c.048.064.066.126.055.188a.233.233 0 0 1-.097.153.46.46 0 0 1-.215.08l-2.995.419c-.12.013-.212-.023-.276-.108a.3.3 0 0 1-.059-.202.249.249 0 0 1 .101-.178.306.306 0 0 1 .152-.057l2.684-.369-.828-1.106c-.109-.147-.102-.266.023-.36.129-.097.249-.072.358.075l1.097 1.465zm-16.276 5.126c.078.166.046.282-.095.348-.146.068-.258.02-.336-.146l-.656-1.401c-.079-.168-.045-.287.101-.355.141-.066.251-.015.33.154l.202.43 1.889-.885-.43-.283a.23.23 0 0 1-.082-.088.206.206 0 0 1 .005-.184.29.29 0 0 1 .138-.136.231.231 0 0 1 .237.021l.699.456c.088.059.15.126.185.201.036.077.042.15.017.219a.292.292 0 0 1-.162.162l-2.246 1.052.204.435zm2.052 1.599a.746.746 0 0 1-.066.516.795.795 0 0 1-.39.354.808.808 0 0 1-.731.004c-.236-.115-.427-.33-.575-.645a1.79 1.79 0 0 1-.159-.557 1.345 1.345 0 0 1 .034-.531.274.274 0 0 1 .15-.187.261.261 0 0 1 .176-.022c.061.015.103.046.125.093a.178.178 0 0 1 .018.083.76.76 0 0 1-.003.112c-.023.152-.03.291-.023.415.008.125.041.249.099.373.086.183.185.301.298.356.116.053.249.045.398-.025.146-.068.232-.166.257-.292.029-.125-.001-.284-.092-.477l-.111-.237a.207.207 0 0 1-.007-.178.256.256 0 0 1 .126-.119.254.254 0 0 1 .172-.021.21.21 0 0 1 .132.12l.078.166c.177.379.408.501.693.368.132-.062.216-.15.25-.264a.53.53 0 0 0-.048-.382c-.094-.201-.275-.379-.543-.534a2.844 2.844 0 0 1-.092-.067.25.25 0 0 1-.048-.069.181.181 0 0 1 .004-.154.282.282 0 0 1 .134-.123.25.25 0 0 1 .114-.028.39.39 0 0 1 .126.032c.151.071.292.173.422.308.134.135.241.288.32.456.134.287.171.548.109.783a.768.768 0 0 1-.443.521.838.838 0 0 1-.483.069.763.763 0 0 1-.421-.217zm1.217 2.596a.77.77 0 0 1-.073.514.814.814 0 0 1-.39.355.79.79 0 0 1-.74-.007c-.235-.126-.432-.361-.593-.703-.16-.343-.214-.644-.161-.905a.792.792 0 0 1 .47-.573.763.763 0 0 1 .965.205.797.797 0 0 1 .095-.465.783.783 0 0 1 .357-.318.758.758 0 0 1 .704.004c.226.116.414.333.562.651.149.317.196.6.14.849a.758.758 0 0 1-.448.543.788.788 0 0 1-.476.072.74.74 0 0 1-.412-.222zm.778-1.046c-.162-.346-.384-.452-.666-.32-.14.066-.228.159-.263.279-.03.123-.005.269.075.44.08.172.176.283.288.335.116.054.245.048.386-.018.282-.132.342-.371.18-.716zm-2.155 1.009c.185.395.425.523.721.385.296-.139.351-.405.166-.8-.185-.396-.426-.524-.721-.385-.296.138-.351.405-.166.8zm-14.613.398c.025.181-.04.283-.194.304-.16.022-.253-.058-.277-.239l-.21-1.533c-.025-.184.042-.287.202-.309.155-.021.244.06.269.245l.065.471 2.067-.283-.327-.398a.227.227 0 0 1-.051-.109.207.207 0 0 1 .059-.174.287.287 0 0 1 .172-.088.23.23 0 0 1 .221.09l.531.643a.507.507 0 0 1 .117.247.28.28 0 0 1-.049.215.292.292 0 0 1-.203.106l-2.457.336.065.476zm1.484 2.137a.75.75 0 0 1-.217.473.796.796 0 0 1-.478.222.805.805 0 0 1-.699-.214c-.19-.18-.31-.442-.357-.787a1.783 1.783 0 0 1 .014-.579c.035-.189.099-.355.19-.497a.275.275 0 0 1 .199-.133.263.263 0 0 1 .175.031c.054.033.084.075.091.126a.18.18 0 0 1-.007.084.7.7 0 0 1-.036.107 1.937 1.937 0 0 0-.145.389c-.03.121-.035.25-.017.386.028.199.087.342.179.428.095.086.224.117.387.095.16-.022.271-.09.332-.203.065-.11.083-.271.054-.483l-.035-.258a.21.21 0 0 1 .046-.173.262.262 0 0 1 .156-.076.252.252 0 0 1 .17.032.207.207 0 0 1 .091.154l.024.181c.057.414.241.6.552.557a.435.435 0 0 0 .318-.177.533.533 0 0 0 .068-.379c-.03-.221-.15-.444-.36-.671a2.337 2.337 0 0 1-.068-.093.236.236 0 0 1-.024-.079.179.179 0 0 1 .049-.146.278.278 0 0 1 .165-.078.27.27 0 0 1 .116.007.42.42 0 0 1 .111.068c.123.113.227.253.311.42.088.169.145.346.17.531.043.314 0 .574-.129.779a.763.763 0 0 1-.578.366.84.84 0 0 1-.482-.077.766.766 0 0 1-.336-.333zm1.886 1.906c.056.405-.039.735-.284.99-.242.258-.617.422-1.125.491a2.441 2.441 0 0 1-.928-.03 1.284 1.284 0 0 1-.645-.364 1.148 1.148 0 0 1-.297-.648 1.603 1.603 0 0 1 .02-.533c.04-.181.104-.34.193-.475a.394.394 0 0 1 .084-.099.274.274 0 0 1 .115-.039.263.263 0 0 1 .175.032c.054.032.084.074.091.126a.218.218 0 0 1-.006.088.548.548 0 0 1-.037.107c-.141.275-.198.51-.171.707.03.22.155.38.375.48.223.098.519.126.889.081a.793.793 0 0 1-.369-.268.938.938 0 0 1-.182-.451 1.009 1.009 0 0 1 .058-.525.948.948 0 0 1 .314-.399c.146-.103.319-.168.519-.195.205-.028.394-.008.567.061.176.071.32.181.433.329.113.15.183.329.211.534zm-1.623.254c.023.17.095.298.215.387a.586.586 0 0 0 .443.101.573.573 0 0 0 .4-.217.535.535 0 0 0 .107-.43.52.52 0 0 0-.217-.377.603.603 0 0 0-.443-.092.597.597 0 0 0-.401.208.525.525 0 0 0-.104.42zm-15.741-2.506c-.01.183-.093.269-.249.26-.161-.009-.236-.105-.226-.288l.09-1.544c.011-.186.097-.274.259-.264.155.009.227.106.216.292l-.027.475 2.083.121-.244-.454a.235.235 0 0 1-.03-.116.209.209 0 0 1 .092-.16.291.291 0 0 1 .186-.053.23.23 0 0 1 .199.131l.397.733a.513.513 0 0 1 .067.265.275.275 0 0 1-.09.201.29.29 0 0 1-.219.066l-2.476-.145-.028.48zm.446 2.884c-.005.092-.029.159-.071.202-.042.044-.1.063-.173.059-.152-.009-.223-.105-.213-.287l.014-.233-.361-.021a.291.291 0 0 1-.214-.095.279.279 0 0 1-.066-.211.294.294 0 0 1 .09-.205c.055-.049.129-.07.224-.065l.361.021.069-1.197a.263.263 0 0 1 .08-.188.254.254 0 0 1 .182-.058.35.35 0 0 1 .206.086l1.946 1.529a.282.282 0 0 1 .089.12.305.305 0 0 1-.061.345c-.055.055-.13.079-.224.074l-1.864-.109-.014.233zm.047-.808l1.229.071-1.179-.921-.05.85zm-1.275 2.454c.022-.381.179-.664.471-.848.295-.185.712-.261 1.251-.23.536.031.938.156 1.207.373.271.218.396.517.374.897-.022.381-.181.664-.476.848-.292.185-.706.261-1.242.23s-.939-.155-1.211-.373c-.271-.218-.396-.517-.374-.897zm.462.027a.47.47 0 0 0 .256.468c.187.106.487.171.901.195.417.024.722-.005.913-.089a.476.476 0 0 0 .31-.436.473.473 0 0 0-.257-.468c-.184-.106-.482-.171-.897-.195-.414-.024-.72.006-.917.089a.474.474 0 0 0-.309.436zm-22.538-2.945c.183 0 .274.078.274.234 0 .161-.091.242-.274.242h-1.547c-.186 0-.279-.081-.279-.242 0-.156.093-.234.279-.234h.476v-2.086l-.439.27a.241.241 0 0 1-.115.036.205.205 0 0 1-.164-.082.29.29 0 0 1-.064-.183c0-.089.039-.157.119-.206l.709-.439a.507.507 0 0 1 .261-.083c.085 0 .154.026.206.078a.295.295 0 0 1 .077.215v2.48h.481zm2.853-.613c.092 0 .161.02.206.06.046.039.069.096.069.169 0 .152-.092.229-.275.229h-.233v.361c0 .095-.027.168-.082.22a.279.279 0 0 1-.206.078.294.294 0 0 1-.211-.078.297.297 0 0 1-.078-.22v-.361h-1.198a.26.26 0 0 1-.193-.069.254.254 0 0 1-.068-.178.35.35 0 0 1 .073-.211l1.414-2.032a.301.301 0 0 1 .114-.096.302.302 0 0 1 .348.042.278.278 0 0 1 .087.219v1.867h.233zm-.81 0v-1.231l-.851 1.231h.851zm3.444.613c.183 0 .275.078.275.234 0 .161-.092.242-.275.242h-1.546c-.186 0-.279-.081-.279-.242 0-.156.093-.234.279-.234h.476v-2.086l-.44.27a.238.238 0 0 1-.114.036.208.208 0 0 1-.165-.082.29.29 0 0 1-.064-.183.23.23 0 0 1 .119-.206l.709-.439a.513.513 0 0 1 .261-.083c.086 0 .154.026.206.078a.291.291 0 0 1 .078.215v2.48h.48zm-41.847.971c.184 0 .275.078.275.233 0 .162-.091.243-.275.243h-1.546c-.186 0-.279-.081-.279-.243 0-.155.093-.233.279-.233h.476v-2.087l-.44.27a.227.227 0 0 1-.114.037.21.21 0 0 1-.165-.083.291.291 0 0 1-.064-.183c0-.088.04-.157.119-.206l.709-.439a.511.511 0 0 1 .261-.082c.086 0 .154.026.206.078a.288.288 0 0 1 .078.215v2.48h.48zm2.854-.613c.092 0 .16.019.206.059.046.04.069.096.069.169 0 .153-.092.229-.275.229h-.233v.362a.287.287 0 0 1-.083.219.277.277 0 0 1-.206.078.293.293 0 0 1-.21-.078.296.296 0 0 1-.078-.219v-.362h-1.199a.263.263 0 0 1-.192-.068.252.252 0 0 1-.069-.179c0-.073.025-.143.074-.21l1.414-2.032a.278.278 0 0 1 .114-.096.299.299 0 0 1 .348.041.28.28 0 0 1 .087.22v1.867h.233zm-.81 0v-1.231l-.851 1.231h.851zm3.43.613c.183 0 .275.078.275.233 0 .162-.092.243-.275.243h-1.739a.252.252 0 0 1-.187-.069.25.25 0 0 1-.069-.178c0-.092.035-.174.105-.248l1.044-1.121c.128-.14.221-.268.279-.384a.766.766 0 0 0 .091-.352c0-.144-.041-.254-.123-.33-.083-.076-.2-.114-.353-.114a.952.952 0 0 0-.366.073 1.78 1.78 0 0 0-.352.192.63.63 0 0 1-.091.055.25.25 0 0 1-.092.018c-.052 0-.098-.024-.137-.073a.28.28 0 0 1-.055-.174c0-.045.007-.085.023-.119a.339.339 0 0 1 .082-.096c.134-.106.291-.19.471-.251.18-.064.36-.096.54-.096.315 0 .565.079.751.237a.795.795 0 0 1 .283.641c0 .186-.039.362-.119.526a2.324 2.324 0 0 1-.402.545l-.792.842h1.208zm-33.909-.981c.183 0 .274.078.274.234 0 .161-.091.242-.274.242h-1.547c-.186 0-.279-.081-.279-.242 0-.156.093-.234.279-.234h.476v-2.086l-.439.27a.24.24 0 0 1-.114.036.207.207 0 0 1-.165-.082.29.29 0 0 1-.064-.183c0-.089.039-.157.119-.206l.709-.439a.507.507 0 0 1 .261-.083c.085 0 .154.026.206.078a.29.29 0 0 1 .077.215v2.48h.481zm2.853-.613c.092 0 .161.02.206.06.046.039.069.096.069.169 0 .152-.091.229-.275.229h-.233v.361c0 .095-.027.168-.082.22a.279.279 0 0 1-.206.078.294.294 0 0 1-.211-.078c-.052-.052-.077-.125-.077-.22v-.361h-1.199c-.083 0-.147-.023-.192-.069a.25.25 0 0 1-.069-.178.35.35 0 0 1 .073-.211l1.414-2.032a.309.309 0 0 1 .114-.096.302.302 0 0 1 .348.042.278.278 0 0 1 .087.219v1.867h.233zm-.809 0v-1.231l-.852 1.231h.852zm3.018-.567a.755.755 0 0 1 .595.782.808.808 0 0 1-.307.664c-.204.164-.48.247-.828.247-.198 0-.389-.031-.572-.092a1.374 1.374 0 0 1-.467-.256.278.278 0 0 1-.105-.215c0-.067.018-.124.055-.169.04-.049.085-.074.137-.074a.18.18 0 0 1 .082.019.76.76 0 0 1 .101.05c.128.086.25.151.366.197.116.046.243.069.38.069.201 0 .351-.04.448-.119.098-.083.147-.206.147-.371 0-.162-.052-.281-.156-.357-.1-.079-.257-.119-.471-.119h-.261a.207.207 0 0 1-.165-.069.267.267 0 0 1-.054-.164.26.26 0 0 1 .054-.165.207.207 0 0 1 .165-.069h.183c.418 0 .627-.157.627-.471a.432.432 0 0 0-.133-.339.529.529 0 0 0-.366-.119c-.222 0-.46.089-.714.266l-.1.055a.241.241 0 0 1-.083.013.177.177 0 0 1-.137-.068.287.287 0 0 1-.055-.174c0-.046.008-.084.023-.115a.386.386 0 0 1 .083-.1 1.43 1.43 0 0 1 .457-.252c.18-.064.363-.096.549-.096.317 0 .569.078.755.233a.767.767 0 0 1 .284.623.828.828 0 0 1-.142.466.755.755 0 0 1-.375.289zm66.844-49.154c.183 0 .275.078.275.233 0 .162-.092.243-.275.243h-1.546c-.187 0-.28-.081-.28-.243 0-.155.093-.233.28-.233h.475v-2.087l-.439.27a.238.238 0 0 1-.114.037.209.209 0 0 1-.165-.083.29.29 0 0 1-.064-.183.23.23 0 0 1 .119-.206l.709-.439a.513.513 0 0 1 .261-.082.28.28 0 0 1 .206.078.29.29 0 0 1 .078.215v2.48h.48zm2.854-.613c.091 0 .16.02.206.06a.21.21 0 0 1 .068.168c0 .153-.091.229-.274.229h-.234v.362a.287.287 0 0 1-.082.219.277.277 0 0 1-.206.078.293.293 0 0 1-.21-.078.296.296 0 0 1-.078-.219v-.362h-1.199a.263.263 0 0 1-.192-.068.252.252 0 0 1-.069-.179c0-.073.025-.143.073-.21l1.414-2.032a.292.292 0 0 1 .115-.096.296.296 0 0 1 .142-.037c.079 0 .147.026.205.078a.28.28 0 0 1 .087.22v1.867h.234zm-.81 0v-1.231l-.851 1.23h.851zm3.553 0c.092 0 .161.02.206.06a.21.21 0 0 1 .069.168c0 .153-.091.229-.275.229h-.233v.362a.287.287 0 0 1-.082.219.279.279 0 0 1-.206.078.294.294 0 0 1-.211-.078c-.052-.052-.077-.125-.077-.219v-.362h-1.199a.264.264 0 0 1-.193-.068.256.256 0 0 1-.068-.179.35.35 0 0 1 .073-.21l1.414-2.032a.297.297 0 0 1 .114-.096.299.299 0 0 1 .142-.037c.08 0 .148.026.206.078a.28.28 0 0 1 .087.22v1.867h.233zm-.809 0v-1.231l-.852 1.23h.852zM146.94 79.303c0 .13-.056.196-.167.196-.116 0-.173-.066-.173-.196v-1.105c0-.133.057-.2.173-.2.111 0 .167.067.167.2v.34h1.49l-.193-.314a.174.174 0 0 1-.026-.082.15.15 0 0 1 .059-.117.208.208 0 0 1 .131-.046c.063 0 .112.028.147.085l.313.507c.04.065.059.127.059.186a.2.2 0 0 1-.055.147.209.209 0 0 1-.154.056h-1.771v.343zm.438 2.038c0 .065-.015.114-.043.147-.028.033-.069.049-.121.049-.109 0-.163-.065-.163-.196v-.167h-.259a.204.204 0 0 1-.156-.059.2.2 0 0 1-.056-.147.21.21 0 0 1 .056-.15.21.21 0 0 1 .156-.056h.259v-.856c0-.059.016-.105.049-.137a.179.179 0 0 1 .127-.05c.052 0 .103.018.151.053l1.451 1.01c.03.022.053.049.068.082a.206.206 0 0 1 .026.101.2.2 0 0 1-.212.21h-1.333v.166zm0-.579h.879l-.879-.608v.608zm.696 1.924a.75.75 0 0 1-.095.38.64.64 0 0 1-.258.258.783.783 0 0 1-.383.091.753.753 0 0 1-.398-.105.703.703 0 0 1-.272-.29.941.941 0 0 1-.095-.432c0-.135.022-.268.066-.399.046-.128.107-.238.183-.33a.197.197 0 0 1 .153-.075c.048 0 .089.013.121.04.035.028.053.06.053.097a.164.164 0 0 1-.013.063.344.344 0 0 1-.036.068 1.263 1.263 0 0 0-.141.255.708.708 0 0 0-.049.265c0 .144.036.254.108.33.072.076.174.114.307.114.129 0 .23-.039.304-.117a.43.43 0 0 0 .115-.317.68.68 0 0 0-.036-.23.738.738 0 0 0-.121-.202.219.219 0 0 1-.043-.127c0-.044.013-.08.039-.111a.132.132 0 0 1 .105-.046h1.02c.061 0 .109.017.144.052a.202.202 0 0 1 .052.147v1.089c0 .13-.055.196-.164.196-.108 0-.163-.066-.163-.196v-.876h-.621a.694.694 0 0 1 .118.408zm-12.2-1.707c.131 0 .196.055.196.167 0 .115-.065.173-.196.173h-1.105c-.133 0-.199-.058-.199-.173 0-.112.066-.167.199-.167h.34v-1.49l-.314.192a.168.168 0 0 1-.081.026.15.15 0 0 1-.118-.058.205.205 0 0 1-.046-.131c0-.063.028-.112.085-.147l.507-.314a.361.361 0 0 1 .186-.059c.061 0 .11.019.147.056a.208.208 0 0 1 .056.153v1.772h.343zm2.038-.438c.065 0 .114.014.147.042.033.029.049.07.049.121 0 .11-.065.164-.196.164h-.167v.258c0 .068-.019.12-.058.157a.201.201 0 0 1-.148.055.21.21 0 0 1-.15-.055c-.037-.037-.055-.09-.055-.157v-.258h-.857a.185.185 0 0 1-.137-.05.178.178 0 0 1-.049-.127.25.25 0 0 1 .052-.15l1.01-1.451a.207.207 0 0 1 .082-.069.212.212 0 0 1 .101-.026.2.2 0 0 1 .209.212v1.334h.167zm-.578 0v-.88l-.608.88h.608zm2.466-1.526c.057 0 .1.016.131.049.03.03.045.07.045.12 0 .05-.015.103-.045.157l-1.043 1.893c-.043.074-.103.111-.18.111a.21.21 0 0 1-.14-.052.179.179 0 0 1-.059-.134c0-.037.011-.074.033-.111l.938-1.694h-.987c-.131 0-.197-.055-.197-.166 0-.116.066-.173.197-.173h1.307zm-4.252 36.937c.13 0 .196.055.196.166 0 .116-.066.174-.196.174h-1.105c-.133 0-.199-.058-.199-.174 0-.111.066-.166.199-.166h.34v-1.491l-.314.193a.173.173 0 0 1-.082.026.145.145 0 0 1-.117-.059.203.203 0 0 1-.046-.13c0-.064.028-.113.085-.148l.507-.313a.355.355 0 0 1 .186-.059c.061 0 .11.018.147.055a.209.209 0 0 1 .055.154v1.772h.344zm2.038-.438c.065 0 .114.014.147.042.033.028.049.069.049.121 0 .109-.065.163-.196.163h-.167v.259c0 .067-.019.12-.059.157a.198.198 0 0 1-.147.055.209.209 0 0 1-.15-.055.214.214 0 0 1-.056-.157v-.259h-.856c-.059 0-.105-.016-.137-.049a.176.176 0 0 1-.049-.127.25.25 0 0 1 .052-.15l1.01-1.452a.207.207 0 0 1 .082-.068.203.203 0 0 1 .101-.026c.057 0 .106.018.147.055.042.037.062.09.062.157v1.334h.167zm-.579 0v-.88l-.608.88h.608zm2.245-.406a.55.55 0 0 1 .421.562.566.566 0 0 1-.229.478c-.152.113-.363.17-.634.17-.27 0-.481-.057-.634-.17a.569.569 0 0 1-.229-.478c0-.141.037-.261.112-.359a.545.545 0 0 1 .313-.203.57.57 0 0 1-.271-.202.561.561 0 0 1-.098-.327c0-.192.072-.343.216-.454.144-.112.341-.167.591-.167.251 0 .448.055.592.167a.542.542 0 0 1 .216.454.566.566 0 0 1-.098.33.528.528 0 0 1-.268.199zm-.442-.82c-.272 0-.408.111-.408.333 0 .111.034.196.101.255.07.057.172.085.307.085s.237-.028.304-.085c.07-.059.105-.144.105-.255 0-.222-.136-.333-.409-.333zm0 1.7c.312 0 .468-.117.468-.35 0-.233-.156-.35-.468-.35-.311 0-.467.117-.467.35 0 .233.156.35.467.35zm-16.989-35.009c.131 0 .196.055.196.167 0 .115-.065.173-.196.173h-1.105c-.133 0-.199-.058-.199-.173 0-.112.066-.167.199-.167h.34v-1.49l-.313.192a.17.17 0 0 1-.082.026.15.15 0 0 1-.118-.058.211.211 0 0 1-.046-.131c0-.063.029-.112.085-.147l.507-.314a.361.361 0 0 1 .186-.059c.061 0 .11.019.147.056a.208.208 0 0 1 .056.153v1.772h.343zm2.038-.438c.066 0 .115.014.147.042.033.029.049.07.049.121 0 .11-.065.164-.196.164h-.166v.258c0 .068-.02.12-.059.157a.199.199 0 0 1-.147.055.213.213 0 0 1-.151-.055c-.037-.037-.055-.09-.055-.157v-.258h-.857a.187.187 0 0 1-.137-.05.183.183 0 0 1-.049-.127c0-.052.018-.102.052-.15l1.01-1.451a.207.207 0 0 1 .082-.069.216.216 0 0 1 .249.03.2.2 0 0 1 .062.156v1.334h.166zm-.578 0v-.88l-.608.88h.608zm1.728-1.556c.292 0 .516.1.673.298.159.196.238.477.238.843 0 .25-.037.468-.111.653a.923.923 0 0 1-.32.422.816.816 0 0 1-.487.147c-.124 0-.249-.022-.376-.065a1.004 1.004 0 0 1-.317-.183.295.295 0 0 1-.062-.069.202.202 0 0 1-.016-.085c0-.048.013-.088.039-.12.028-.036.061-.053.098-.053.022 0 .042.004.062.013.02.007.044.019.072.036.181.126.342.19.484.19a.424.424 0 0 0 .376-.22c.091-.148.139-.355.143-.62a.57.57 0 0 1-.225.235.673.673 0 0 1-.337.085.726.726 0 0 1-.366-.092.674.674 0 0 1-.252-.261.835.835 0 0 1-.088-.386.79.79 0 0 1 .098-.395.723.723 0 0 1 .275-.275.804.804 0 0 1 .399-.098zm.022 1.174a.393.393 0 0 0 .295-.115.418.418 0 0 0 .114-.304.412.412 0 0 0-.114-.304.388.388 0 0 0-.295-.118.372.372 0 0 0-.287.118.425.425 0 0 0-.108.304c0 .127.036.228.108.304a.377.377 0 0 0 .287.115zm-3.538 35.793c.131 0 .196.055.196.166 0 .116-.065.174-.196.174h-1.105c-.133 0-.199-.058-.199-.174 0-.111.066-.166.199-.166h.34v-1.491l-.314.193a.17.17 0 0 1-.081.026.147.147 0 0 1-.118-.059.203.203 0 0 1-.046-.13c0-.064.029-.113.085-.148l.507-.313a.355.355 0 0 1 .186-.059c.061 0 .11.018.147.055a.21.21 0 0 1 .056.154v1.772h.343zm1.424-1.135c.144 0 .27.032.379.095a.64.64 0 0 1 .258.258.786.786 0 0 1 .092.383c0 .15-.035.283-.105.399a.707.707 0 0 1-.291.271.94.94 0 0 1-.431.095c-.135 0-.268-.022-.399-.066a1.03 1.03 0 0 1-.33-.183.197.197 0 0 1-.075-.153c0-.048.013-.089.039-.121.028-.035.061-.053.098-.053.022 0 .042.005.062.013a.33.33 0 0 1 .069.036c.087.061.172.108.255.141a.704.704 0 0 0 .264.049c.144 0 .254-.036.33-.108.077-.072.115-.174.115-.307a.396.396 0 0 0-.118-.304.429.429 0 0 0-.317-.114.71.71 0 0 0-.229.035.73.73 0 0 0-.202.121.221.221 0 0 1-.128.043.167.167 0 0 1-.111-.039.133.133 0 0 1-.046-.105v-1.02a.19.19 0 0 1 .053-.143.199.199 0 0 1 .147-.053h1.088c.131 0 .196.055.196.164 0 .109-.065.163-.196.163h-.876v.621a.695.695 0 0 1 .409-.118zm1.839 1.504c-.273 0-.481-.1-.625-.301-.143-.202-.215-.497-.215-.882 0-.384.072-.676.215-.876.144-.203.352-.304.625-.304.272 0 .48.101.624.304.144.2.216.492.216.876 0 .383-.072.676-.216.879-.144.203-.352.304-.624.304zm0-.33a.338.338 0 0 0 .323-.203c.068-.137.102-.354.102-.65 0-.299-.034-.515-.102-.647a.336.336 0 0 0-.323-.203.338.338 0 0 0-.324.203c-.068.135-.101.35-.101.647 0 .296.033.513.101.65a.34.34 0 0 0 .324.203zm21.855-2.696c0 .131-.055.196-.166.196-.116 0-.174-.065-.174-.196v-1.105c0-.133.058-.199.174-.199.111 0 .166.066.166.199v.34h1.491l-.193-.314a.17.17 0 0 1-.026-.081c0-.046.019-.085.059-.118a.203.203 0 0 1 .13-.046c.064 0 .113.028.147.085l.314.507a.364.364 0 0 1 .059.186c0 .061-.018.11-.055.147a.211.211 0 0 1-.154.056h-1.772v.343zm.438 2.038c0 .065-.014.115-.042.147-.028.033-.069.049-.121.049-.109 0-.163-.065-.163-.196v-.167h-.259c-.067 0-.12-.019-.157-.058a.2.2 0 0 1-.055-.148c0-.061.018-.111.055-.15.037-.037.09-.055.157-.055h.259v-.857c0-.059.016-.104.049-.137a.176.176 0 0 1 .127-.049.25.25 0 0 1 .15.052l1.452 1.01c.03.022.053.049.068.082a.206.206 0 0 1 .026.101.211.211 0 0 1-.055.147c-.037.042-.09.062-.157.062h-1.334v.167zm0-.578h.88l-.88-.608v.608zm.7 1.943a.708.708 0 0 1-.095.366.627.627 0 0 1-.261.249.786.786 0 0 1-.383.091.794.794 0 0 1-.399-.101.703.703 0 0 1-.271-.275.79.79 0 0 1-.098-.395c0-.292.098-.518.294-.677.199-.157.481-.235.847-.235.25 0 .467.037.65.111.185.074.327.18.425.317a.83.83 0 0 1 .147.49c0 .124-.023.249-.068.373a.963.963 0 0 1-.18.32.22.22 0 0 1-.072.059.193.193 0 0 1-.206-.023.117.117 0 0 1-.049-.095c0-.021.003-.042.01-.062a.7.7 0 0 1 .039-.072c.126-.181.19-.342.19-.483 0-.16-.075-.285-.223-.376-.146-.092-.352-.14-.617-.144.098.05.175.125.232.225a.664.664 0 0 1 .088.337zm-1.174-.088c0 .12.039.216.115.287a.436.436 0 0 0 .307.108.425.425 0 0 0 .304-.108.374.374 0 0 0 .114-.287.4.4 0 0 0-.117-.298.414.414 0 0 0-.301-.111.429.429 0 0 0-.307.111.406.406 0 0 0-.115.298zm74.282-100.117c.183 0 .275.078.275.233 0 .162-.092.243-.275.243h-1.547c-.186 0-.279-.081-.279-.243 0-.155.093-.233.279-.233h.476v-2.087l-.439.27a.238.238 0 0 1-.114.037.207.207 0 0 1-.165-.082.29.29 0 0 1-.064-.183c0-.089.039-.158.119-.206l.709-.44a.507.507 0 0 1 .261-.082.28.28 0 0 1 .206.078.29.29 0 0 1 .077.215v2.48h.481zm2.744 0c.183 0 .274.078.274.233 0 .162-.091.243-.274.243h-1.547c-.186 0-.279-.081-.279-.243 0-.155.093-.233.279-.233h.476v-2.087l-.439.27a.238.238 0 0 1-.115.037.206.206 0 0 1-.164-.082.29.29 0 0 1-.065-.183.23.23 0 0 1 .119-.206l.71-.44a.507.507 0 0 1 .261-.082c.085 0 .154.026.205.078a.29.29 0 0 1 .078.215v2.48h.481zm2.318-1.18a.753.753 0 0 1 .439.278.797.797 0 0 1 .156.504.807.807 0 0 1-.307.663c-.204.165-.48.248-.828.248-.198 0-.389-.031-.572-.092a1.377 1.377 0 0 1-.467-.256.277.277 0 0 1-.105-.215.26.26 0 0 1 .055-.17c.04-.049.085-.073.137-.073.031 0 .058.006.083.018.024.01.057.026.1.05.128.086.25.152.366.197.116.046.243.07.38.07.201 0 .351-.04.448-.12.098-.082.147-.206.147-.37 0-.162-.052-.281-.156-.357-.1-.08-.257-.12-.471-.12h-.261a.208.208 0 0 1-.165-.068.27.27 0 0 1-.054-.165c0-.064.018-.119.054-.164a.208.208 0 0 1 .165-.07h.183c.418 0 .627-.156.627-.47 0-.147-.044-.26-.133-.339a.527.527 0 0 0-.366-.119c-.222 0-.46.088-.713.265a2.62 2.62 0 0 1-.101.055.236.236 0 0 1-.083.014.179.179 0 0 1-.137-.069.286.286 0 0 1-.055-.174.26.26 0 0 1 .023-.114.388.388 0 0 1 .083-.1 1.43 1.43 0 0 1 .457-.252c.18-.064.363-.096.549-.096.317 0 .569.078.755.233a.766.766 0 0 1 .284.622.83.83 0 0 1-.142.467.759.759 0 0 1-.375.288zm14.757 7.93c.159.092.199.205.122.34-.081.14-.201.164-.36.072l-1.339-.773c-.161-.093-.201-.21-.12-.35.077-.134.197-.155.358-.062l.412.238 1.043-1.807-.515.014a.236.236 0 0 1-.117-.025.207.207 0 0 1-.102-.154.298.298 0 0 1 .036-.19.23.23 0 0 1 .206-.12l.834-.025a.508.508 0 0 1 .267.059.28.28 0 0 1 .14.17.29.29 0 0 1-.041.225l-1.24 2.148.416.24zm2.377 1.372c.158.092.198.205.121.34-.081.14-.201.164-.359.072l-1.34-.773c-.161-.093-.201-.21-.12-.35.078-.134.197-.155.358-.062l.412.238 1.044-1.807-.516.014a.235.235 0 0 1-.117-.026.206.206 0 0 1-.102-.153.298.298 0 0 1 .036-.19.23.23 0 0 1 .206-.12l.834-.026a.508.508 0 0 1 .267.06.28.28 0 0 1 .14.17.294.294 0 0 1-.04.225l-1.241 2.148.417.24zm2.777.896c.08.046.129.097.149.154a.213.213 0 0 1-.025.181c-.076.132-.194.153-.352.061l-.202-.117-.181.314a.295.295 0 0 1-.181.149.28.28 0 0 1-.218-.036.295.295 0 0 1-.143-.173.298.298 0 0 1 .042-.229l.181-.313-1.038-.6a.262.262 0 0 1-.132-.155.253.253 0 0 1 .03-.189.348.348 0 0 1 .168-.145l2.241-1.053a.286.286 0 0 1 .147-.026.295.295 0 0 1 .141.04.293.293 0 0 1 .139.17c.025.073.013.151-.034.233l-.934 1.617.202.117zm-.701-.405l.615-1.066-1.352.64.737.426zM258.311 36.4c.129.13.139.249.029.359-.115.114-.236.107-.366-.023l-1.093-1.093c-.132-.132-.141-.255-.026-.37.11-.11.23-.098.362.033l.337.337 1.475-1.476-.502-.12a.233.233 0 0 1-.106-.054.208.208 0 0 1-.059-.175.291.291 0 0 1 .085-.175.228.228 0 0 1 .229-.061l.812.19a.506.506 0 0 1 .243.127c.061.06.091.127.091.2a.293.293 0 0 1-.097.207l-1.754 1.754.34.34zm1.94 1.94c.129.13.139.249.029.36-.114.113-.236.106-.366-.024l-1.093-1.093c-.132-.132-.141-.255-.026-.37.11-.11.231-.098.362.033l.337.337 1.475-1.476-.501-.12a.236.236 0 0 1-.107-.054.207.207 0 0 1-.058-.175.285.285 0 0 1 .084-.175.228.228 0 0 1 .229-.061l.813.19a.508.508 0 0 1 .242.127c.061.06.091.127.091.2a.294.294 0 0 1-.097.207L259.911 38l.34.34zm2.532.287c.142.142.236.298.282.469.049.17.049.34 0 .511a1.11 1.11 0 0 1-.288.47 1.059 1.059 0 0 1-.499.29.98.98 0 0 1-.556-.019 1.313 1.313 0 0 1-.521-.333 1.741 1.741 0 0 1-.33-.46 1.497 1.497 0 0 1-.146-.508.28.28 0 0 1 .236-.307c.063-.007.113.008.149.045a.209.209 0 0 1 .049.075c.013.026.023.06.032.103.026.147.064.277.113.392.05.114.121.218.214.31.142.143.287.216.433.22.147.005.286-.06.418-.19a.555.555 0 0 0 .184-.418c0-.151-.067-.293-.2-.427a.958.958 0 0 0-.262-.191 1.016 1.016 0 0 0-.321-.08.311.311 0 0 1-.168-.085.23.23 0 0 1-.071-.149.184.184 0 0 1 .058-.149l1.01-1.01c.06-.06.125-.09.194-.09s.135.031.197.094l1.078 1.078c.129.129.14.248.032.355-.108.108-.227.097-.356-.032l-.867-.867-.615.615a.967.967 0 0 1 .521.288zm8.781 13.837c.092.159.07.277-.065.355-.14.08-.255.042-.347-.117l-.773-1.34c-.093-.16-.07-.282.07-.362.135-.078.249-.036.342.125l.238.412 1.807-1.044-.454-.245a.23.23 0 0 1-.088-.08.207.207 0 0 1-.012-.184.296.296 0 0 1 .127-.148.23.23 0 0 1 .238 0l.735.395c.093.052.16.113.202.185a.28.28 0 0 1 .035.217.29.29 0 0 1-.147.175l-2.148 1.24.24.416zm1.372 2.376c.092.159.07.277-.065.355-.14.08-.256.042-.347-.117l-.773-1.34c-.093-.16-.07-.281.07-.362.135-.078.249-.036.342.125l.238.412 1.807-1.043-.454-.246a.243.243 0 0 1-.089-.08.21.21 0 0 1-.011-.184.297.297 0 0 1 .127-.147.23.23 0 0 1 .238 0l.735.394c.093.052.16.114.201.185a.277.277 0 0 1 .036.217.291.291 0 0 1-.147.175l-2.148 1.24.24.416zm2.389.954a.978.978 0 0 1 .142.51.876.876 0 0 1-.143.484 1.099 1.099 0 0 1-.4.38c-.18.103-.364.155-.554.155a.977.977 0 0 1-.521-.143 1.108 1.108 0 0 1-.396-.41c-.205-.355-.243-.697-.117-1.027.131-.329.418-.621.862-.878.303-.175.592-.282.866-.32a1.3 1.3 0 0 1 .737.087c.217.1.39.264.522.491.087.15.146.318.177.5.036.184.038.355.006.514a.29.29 0 0 1-.046.122.214.214 0 0 1-.085.08.266.266 0 0 1-.18.036.165.165 0 0 1-.126-.08.289.289 0 0 1-.032-.082.82.82 0 0 1-.002-.115c.026-.308-.01-.547-.109-.72-.112-.192-.289-.292-.533-.3-.241-.008-.524.078-.849.259a.77.77 0 0 1 .439.11.92.92 0 0 1 .342.347zm-1.484.714a.527.527 0 0 0 .34.27.611.611 0 0 0 .448-.085.595.595 0 0 0 .293-.344.531.531 0 0 0-.062-.429.558.558 0 0 0-.351-.278.58.58 0 0 0-.443.076.6.6 0 0 0-.294.35.56.56 0 0 0 .069.44zm6.166 16.696c.047.177-.004.285-.155.325-.156.042-.258-.025-.305-.202l-.4-1.494c-.049-.18.005-.29.162-.332.15-.04.249.029.297.209l.123.46 2.016-.54-.375-.355a.233.233 0 0 1-.064-.101.207.207 0 0 1 .036-.18.292.292 0 0 1 .161-.11.228.228 0 0 1 .229.062l.608.571a.505.505 0 0 1 .147.23.278.278 0 0 1-.022.22.289.289 0 0 1-.187.13l-2.396.643.125.464zm.71 2.65c.047.177-.004.285-.155.326-.156.041-.258-.026-.305-.203l-.4-1.494c-.048-.18.006-.29.162-.332.15-.04.249.03.297.209l.124.46 2.015-.54-.374-.355a.227.227 0 0 1-.065-.1.204.204 0 0 1 .037-.181.29.29 0 0 1 .16-.11.228.228 0 0 1 .229.062l.608.572a.504.504 0 0 1 .147.23.277.277 0 0 1-.021.22.293.293 0 0 1-.188.13l-2.396.642.125.464zm3.369 1.947c.02.077.014.142-.019.195a.233.233 0 0 1-.147.106.452.452 0 0 1-.229-.005l-2.937-.725c-.116-.032-.188-.1-.215-.203a.298.298 0 0 1 .019-.209.25.25 0 0 1 .16-.128.303.303 0 0 1 .162.004l2.63.655-.358-1.335c-.047-.176.004-.285.155-.325.156-.042.258.025.305.202l.474 1.768zm-.473 18.009c-.024.18-.113.261-.268.24-.16-.02-.228-.122-.204-.303l.203-1.534c.024-.184.117-.266.277-.244.154.02.219.123.195.307l-.063.472 2.069.273-.21-.47a.238.238 0 0 1-.022-.119.209.209 0 0 1 .104-.152.29.29 0 0 1 .19-.04.23.23 0 0 1 .188.145l.343.76a.512.512 0 0 1 .047.27.278.278 0 0 1-.104.194.29.29 0 0 1-.223.05l-2.459-.326-.063.476zm-.36 2.72c-.024.18-.113.261-.267.24-.161-.02-.229-.122-.205-.303l.203-1.533c.024-.185.117-.266.277-.245.154.02.219.123.195.307l-.063.472 2.069.273-.21-.47a.225.225 0 0 1-.021-.119.208.208 0 0 1 .103-.152.291.291 0 0 1 .19-.04.23.23 0 0 1 .188.145l.343.76a.511.511 0 0 1 .047.27.278.278 0 0 1-.104.194.29.29 0 0 1-.223.05l-2.459-.326-.063.476zm.85 2.575a.768.768 0 0 1-.857.482.794.794 0 0 1-.621-.405c-.129-.233-.169-.537-.119-.912.049-.375.167-.658.352-.849a.791.791 0 0 1 .704-.23.81.81 0 0 1 .479.22c.126.122.2.28.224.473a.796.796 0 0 1 .331-.339.778.778 0 0 1 .471-.076.758.758 0 0 1 .591.383c.128.22.169.504.123.851-.046.348-.159.612-.34.791a.76.76 0 0 1-.67.216.786.786 0 0 1-.44-.197.742.742 0 0 1-.228-.408zm1.22-.462c.05-.378-.079-.588-.388-.628-.154-.02-.278.011-.372.093-.092.087-.15.224-.175.411-.024.188-.004.334.063.438.069.107.18.171.334.192.309.041.488-.128.538-.506zm-2.359-.312c-.057.432.076.67.4.713.323.043.514-.152.571-.585.057-.432-.076-.67-.4-.713-.323-.042-.514.153-.571.585zm-1.395 22.125c.047-.177.146-.245.296-.205.156.042.211.151.163.328l-.4 1.494c-.048.18-.15.249-.306.207-.151-.04-.202-.15-.154-.33l.124-.46-2.016-.54.147.494a.229.229 0 0 1 .006.12.208.208 0 0 1-.122.138.295.295 0 0 1-.194.015.231.231 0 0 1-.168-.168l-.24-.799a.51.51 0 0 1-.013-.274.278.278 0 0 1 .129-.178.292.292 0 0 1 .228-.02l2.395.642.125-.464zm.71-2.65c.047-.177.146-.245.296-.205.157.042.211.151.164.328l-.401 1.494c-.048.18-.15.249-.306.207-.151-.041-.202-.151-.153-.33l.123-.46-2.016-.54.147.494a.229.229 0 0 1 .006.12.206.206 0 0 1-.122.138.286.286 0 0 1-.193.014.228.228 0 0 1-.169-.168l-.24-.799a.496.496 0 0 1-.012-.273.282.282 0 0 1 .128-.179.293.293 0 0 1 .228-.019l2.396.642.124-.464zm-2.251-2.383c.105-.395.321-.662.646-.803.323-.144.732-.149 1.227-.017.338.091.62.22.843.388.221.166.372.361.454.585.083.222.091.459.023.712-.045.168-.12.33-.225.485a1.398 1.398 0 0 1-.362.362.38.38 0 0 1-.115.059.283.283 0 0 1-.121-.008.269.269 0 0 1-.15-.097.176.176 0 0 1-.035-.152.211.211 0 0 1 .04-.079.516.516 0 0 1 .075-.084c.236-.199.38-.394.432-.586.057-.215.004-.411-.16-.587-.168-.178-.43-.318-.788-.42a.814.814 0 0 1 .237.391.944.944 0 0 1-.008.486 1.008 1.008 0 0 1-.256.461.937.937 0 0 1-.445.246 1.147 1.147 0 0 1-.553-.02 1.112 1.112 0 0 1-.5-.276 1.01 1.01 0 0 1-.271-.471 1.125 1.125 0 0 1 .012-.575zm1.595.394a.55.55 0 0 0-.048-.439.59.59 0 0 0-.37-.265.578.578 0 0 0-.453.045.538.538 0 0 0-.265.355.519.519 0 0 0 .055.432c.077.125.201.21.372.256.17.045.321.034.45-.036a.532.532 0 0 0 .259-.348zm-9.211 24.598c.091-.159.205-.199.339-.121.14.081.165.2.073.359l-.773 1.339c-.093.161-.21.201-.35.121-.135-.078-.155-.198-.062-.359l.238-.412-1.808-1.043.015.515a.248.248 0 0 1-.026.118.208.208 0 0 1-.154.101.285.285 0 0 1-.19-.036.23.23 0 0 1-.119-.206l-.026-.834a.508.508 0 0 1 .059-.267.28.28 0 0 1 .171-.139.289.289 0 0 1 .225.04l2.148 1.24.24-.416zm1.365-2.365c.091-.158.205-.198.339-.121.14.081.165.201.073.359l-.869 1.506a.25.25 0 0 1-.154.128.245.245 0 0 1-.188-.029.348.348 0 0 1-.162-.215l-.449-1.464a1.801 1.801 0 0 0-.193-.434.77.77 0 0 0-.26-.255c-.124-.072-.24-.091-.347-.058-.107.033-.199.116-.275.248a.942.942 0 0 0-.12.353 1.772 1.772 0 0 0-.009.402.754.754 0 0 1 .001.106.224.224 0 0 1-.03.089c-.026.045-.07.072-.132.082a.287.287 0 0 1-.178-.039.288.288 0 0 1-.091-.08.327.327 0 0 1-.042-.119c-.026-.17-.02-.348.017-.534.035-.188.097-.36.187-.516.157-.272.351-.449.581-.531a.796.796 0 0 1 .697.075c.161.093.293.215.396.366.101.15.191.357.271.621l.333 1.107.604-1.047zm1.381-2.391c.091-.159.205-.199.339-.121.14.08.165.2.073.359l-.773 1.339c-.093.161-.21.201-.35.12-.135-.077-.155-.197-.062-.358l.237-.412-1.807-1.043.015.515a.241.241 0 0 1-.026.117.206.206 0 0 1-.154.102.297.297 0 0 1-.19-.036.23.23 0 0 1-.119-.206l-.026-.834a.508.508 0 0 1 .059-.267.28.28 0 0 1 .171-.14.29.29 0 0 1 .225.041l2.148 1.24.24-.416zm-18.084 22.715c.129-.129.249-.139.359-.029.114.115.107.236-.023.366l-1.093 1.094c-.132.131-.255.14-.369.025-.11-.11-.099-.23.032-.362l.337-.336-1.476-1.476-.119.502a.24.24 0 0 1-.055.106.21.21 0 0 1-.175.059.293.293 0 0 1-.175-.085.228.228 0 0 1-.061-.229l.191-.812a.51.51 0 0 1 .126-.243.279.279 0 0 1 .2-.091c.074 0 .143.033.208.097l1.753 1.754.34-.34zm1.93-1.93c.13-.129.25-.139.36-.029.114.114.106.236-.023.365l-1.23 1.23a.253.253 0 0 1-.181.084.25.25 0 0 1-.175-.078.348.348 0 0 1-.1-.249l-.055-1.53a1.778 1.778 0 0 0-.074-.469.764.764 0 0 0-.185-.314c-.101-.102-.208-.15-.32-.146a.504.504 0 0 0-.33.169.927.927 0 0 0-.207.31c-.05.114-.088.243-.113.385a.987.987 0 0 1-.026.104.233.233 0 0 1-.052.077c-.037.037-.086.052-.149.046a.29.29 0 0 1-.162-.084.295.295 0 0 1-.068-.101.338.338 0 0 1-.009-.126c.019-.17.071-.341.155-.511.082-.173.187-.323.314-.45.222-.222.455-.343.699-.362a.79.79 0 0 1 .653.252c.132.132.228.284.288.456.059.171.092.394.101.67l.035 1.155.854-.854zm1.944-1.943c.129-.13.249-.139.359-.029.114.114.107.236-.023.365l-1.229 1.23a.255.255 0 0 1-.182.084.248.248 0 0 1-.174-.078.352.352 0 0 1-.101-.249l-.055-1.53a1.746 1.746 0 0 0-.074-.47.766.766 0 0 0-.184-.313c-.102-.102-.209-.15-.321-.146-.112.004-.222.06-.33.168a.973.973 0 0 0-.207.311 1.74 1.74 0 0 0-.113.385.738.738 0 0 1-.026.103.227.227 0 0 1-.052.078c-.036.037-.086.052-.149.045a.273.273 0 0 1-.161-.084.278.278 0 0 1-.068-.1.34.34 0 0 1-.01-.126c.019-.171.071-.341.155-.511.082-.173.187-.323.314-.45.222-.222.455-.343.699-.363a.796.796 0 0 1 .654.253c.131.131.227.283.288.456.058.17.091.394.1.67l.035 1.155.855-.854zM240.16 173.71c.158-.091.276-.07.354.065.081.14.042.256-.117.347l-1.339.774c-.161.093-.282.069-.363-.071-.078-.135-.036-.248.125-.341l.412-.238-1.043-1.807-.246.453a.235.235 0 0 1-.08.089.207.207 0 0 1-.184.011.283.283 0 0 1-.147-.127.23.23 0 0 1 0-.237l.395-.735a.5.5 0 0 1 .184-.202.277.277 0 0 1 .217-.036c.071.019.13.068.175.148l1.24 2.147.417-.24zm2.364-1.365c.158-.091.276-.07.354.065.081.14.042.256-.116.347l-1.506.87a.255.255 0 0 1-.197.034.25.25 0 0 1-.149-.12.353.353 0 0 1-.032-.267l.343-1.492c.041-.186.057-.343.05-.473a.776.776 0 0 0-.097-.351c-.072-.124-.163-.198-.272-.223-.11-.025-.23.001-.362.077a.956.956 0 0 0-.281.246 1.797 1.797 0 0 0-.209.343.683.683 0 0 1-.052.093.229.229 0 0 1-.07.062c-.045.026-.097.028-.155.005a.286.286 0 0 1-.135-.123.277.277 0 0 1-.039-.114.326.326 0 0 1 .023-.125 1.55 1.55 0 0 1 .282-.453c.124-.146.264-.264.42-.354.272-.157.528-.213.769-.169a.797.797 0 0 1 .566.413c.093.161.146.333.16.515a2.36 2.36 0 0 1-.077.673l-.264 1.125 1.046-.604zm1.433-2.19a.748.748 0 0 1 .52.022.79.79 0 0 1 .386.358.81.81 0 0 1 .067.728c-.095.245-.293.454-.594.628a1.812 1.812 0 0 1-.541.207 1.394 1.394 0 0 1-.533.011.275.275 0 0 1-.198-.134.258.258 0 0 1-.037-.174c.01-.062.037-.106.082-.132a.187.187 0 0 1 .08-.025.762.762 0 0 1 .113-.007c.153.01.292.006.415-.012.123-.019.244-.062.363-.131.175-.101.284-.21.329-.327.044-.12.024-.252-.058-.394-.081-.14-.186-.217-.314-.232-.126-.018-.282.026-.467.133l-.226.13a.206.206 0 0 1-.177.023.27.27 0 0 1-.13-.115.254.254 0 0 1-.035-.17.21.21 0 0 1 .109-.142l.158-.091c.362-.209.464-.45.307-.722a.432.432 0 0 0-.284-.227.528.528 0 0 0-.376.08c-.193.111-.355.307-.486.587a3.1 3.1 0 0 1-.06.098.227.227 0 0 1-.064.053.176.176 0 0 1-.153.009.286.286 0 0 1-.135-.123.255.255 0 0 1-.037-.111.392.392 0 0 1 .021-.128 1.64 1.64 0 0 1 .698-.804c.275-.159.531-.218.77-.176.242.04.427.173.557.397a.835.835 0 0 1 .111.475.769.769 0 0 1-.181.438zm-26.313 11.469c.178-.045.285.009.324.159.039.157-.03.258-.207.303l-1.5.378c-.18.046-.29-.01-.33-.167-.038-.151.033-.249.214-.294l.461-.117-.511-2.023-.359.369a.244.244 0 0 1-.102.064.21.21 0 0 1-.18-.04.286.286 0 0 1-.107-.162.227.227 0 0 1 .065-.228l.58-.6a.51.51 0 0 1 .233-.143.274.274 0 0 1 .218.025.29.29 0 0 1 .129.189l.606 2.405.466-.118zm2.647-.668c.178-.044.285.009.324.159.039.157-.03.258-.207.303l-1.686.425a.253.253 0 0 1-.199-.02.256.256 0 0 1-.11-.157.345.345 0 0 1 .041-.265l.738-1.342a1.78 1.78 0 0 0 .176-.441.773.773 0 0 0 .003-.364c-.035-.139-.102-.236-.201-.29a.499.499 0 0 0-.369-.024.943.943 0 0 0-.337.16c-.101.073-.2.164-.295.273a.664.664 0 0 1-.075.075.252.252 0 0 1-.084.041.175.175 0 0 1-.151-.038.275.275 0 0 1-.096-.155.282.282 0 0 1-.007-.121.322.322 0 0 1 .056-.113c.104-.137.236-.256.396-.36a1.59 1.59 0 0 1 .5-.225c.304-.077.566-.061.785.047a.791.791 0 0 1 .432.552c.046.18.05.36.014.539a2.357 2.357 0 0 1-.258.627l-.561 1.01 1.171-.296zm2.635-1.297c.088-.022.16-.02.214.007.054.028.09.077.108.148.037.148-.033.244-.21.289l-.227.057.089.35a.292.292 0 0 1-.026.234.279.279 0 0 1-.181.125.293.293 0 0 1-.223-.024c-.063-.037-.106-.102-.129-.194l-.089-.35-1.162.293c-.08.02-.148.014-.203-.019a.247.247 0 0 1-.11-.156.351.351 0 0 1 .019-.222l.874-2.316a.282.282 0 0 1 .087-.121.305.305 0 0 1 .348-.046c.068.036.114.1.138.192l.456 1.81.227-.057zm-.786.198l-.301-1.193-.524 1.402.825-.209zm-19.539 1.097c0 .183-.078.274-.233.274-.162 0-.243-.091-.243-.274v-1.547c0-.186.081-.279.243-.279.155 0 .233.093.233.279v.476h2.086l-.269-.44a.227.227 0 0 1-.037-.114c0-.064.027-.119.082-.165a.295.295 0 0 1 .183-.064.23.23 0 0 1 .206.119l.439.71a.507.507 0 0 1 .083.26.277.277 0 0 1-.078.206.29.29 0 0 1-.215.078h-2.48v.481zm0 2.73c0 .183-.078.274-.233.274-.162 0-.243-.091-.243-.274v-1.739c0-.08.023-.142.069-.188a.248.248 0 0 1 .178-.069c.092 0 .174.036.247.106l1.121 1.043c.141.128.269.221.385.279a.767.767 0 0 0 .352.092c.143 0 .253-.042.329-.124.077-.082.115-.2.115-.352a.971.971 0 0 0-.073-.366 1.742 1.742 0 0 0-.193-.353.724.724 0 0 1-.054-.091.233.233 0 0 1-.019-.092c0-.052.025-.097.073-.137a.28.28 0 0 1 .174-.055c.046 0 .086.008.119.023a.328.328 0 0 1 .096.082c.107.135.191.292.252.472.064.18.096.36.096.54 0 .314-.079.564-.238.75a.792.792 0 0 1-.64.284c-.186 0-.362-.04-.527-.119a2.38 2.38 0 0 1-.544-.403l-.842-.792v1.209zm1.588 2.011c0 .201-.045.378-.133.531a.896.896 0 0 1-.361.361 1.092 1.092 0 0 1-.536.128c-.21 0-.396-.048-.558-.146a.985.985 0 0 1-.38-.407 1.32 1.32 0 0 1-.133-.604c0-.189.031-.375.092-.559a1.49 1.49 0 0 1 .256-.462.278.278 0 0 1 .215-.105c.067 0 .124.018.17.055.048.04.073.085.073.137 0 .031-.006.06-.019.087a.37.37 0 0 1-.05.096 1.776 1.776 0 0 0-.197.357c-.045.116-.068.24-.068.371 0 .201.05.355.151.462.1.107.244.16.43.16.18 0 .322-.055.425-.165.107-.106.161-.254.161-.443a.948.948 0 0 0-.051-.321.997.997 0 0 0-.169-.283.312.312 0 0 1-.06-.179c0-.061.019-.113.055-.155a.185.185 0 0 1 .147-.065h1.427c.086 0 .153.025.202.074.049.048.073.117.073.206v1.523c0 .183-.076.275-.229.275-.152 0-.229-.092-.229-.275v-1.226h-.869c.11.156.165.346.165.572z" fill="#fff"/></svg>