<svg width="22" height="23" viewBox="0 0 22 23" fill="none" xmlns="http://www.w3.org/2000/svg"><path d="M17 6.84v-1.8c0-1.12 0-1.68-.218-2.108a2 2 0 0 0-.874-.874c-.428-.218-.988-.218-2.108-.218H8.2c-1.12 0-1.68 0-2.108.218a2 2 0 0 0-.874.874C5 3.36 5 3.92 5 5.04v1.8m0 11c-.93 0-1.395 0-1.776-.102a3 3 0 0 1-2.122-2.122C1 15.235 1 14.77 1 13.84v-2.2c0-1.68 0-2.52.327-3.162a3 3 0 0 1 1.311-1.311C3.28 6.84 4.12 6.84 5.8 6.84h10.4c1.68 0 2.52 0 3.162.327a3 3 0 0 1 1.311 1.31C21 9.12 21 9.96 21 11.64v2.2c0 .93 0 1.395-.102 1.776a3 3 0 0 1-2.122 2.122c-.381.102-.846.102-1.776.102m-3-7.5h3m-8.8 11.5h5.6c1.12 0 1.68 0 2.108-.218a2 2 0 0 0 .874-.874C17 20.32 17 19.76 17 18.64v-1.6c0-1.12 0-1.68-.218-2.108a2 2 0 0 0-.874-.874c-.428-.218-.988-.218-2.108-.218H8.2c-1.12 0-1.68 0-2.108.218a2 2 0 0 0-.874.874C5 15.36 5 15.92 5 17.04v1.6c0 1.12 0 1.68.218 2.108a2 2 0 0 0 .874.874c.428.218.988.218 2.108.218z" stroke="#fff" stroke-width="2" stroke-linecap="round" stroke-linejoin="round"/></svg>