<svg width="33" height="33" viewBox="0 0 33 33" fill="none" xmlns="http://www.w3.org/2000/svg"><g filter="url(#filter0_d_7955_15416)"><rect x="4.334" y="4.5" width="24" height="24" rx="12" fill="#F2F2F2"/><path d="M15.64 20.64a6.675 6.675 0 0 1-1.567-.196 4.51 4.51 0 0 1-1.414-.588.942.942 0 0 1-.378-.42.768.768 0 0 1-.056-.448.798.798 0 0 1 .21-.378.707.707 0 0 1 .406-.182.95.95 0 0 1 .546.126c.382.205.751.355 1.106.448.354.084.718.126 1.092.126.41 0 .756-.056 1.036-.168.28-.112.49-.28.63-.504a1.43 1.43 0 0 0 .224-.812c0-.467-.159-.812-.476-1.036-.308-.233-.76-.35-1.358-.35h-.896c-.262 0-.462-.065-.602-.196-.13-.13-.196-.313-.196-.546 0-.233.065-.415.196-.546.14-.13.34-.196.602-.196h.728c.354 0 .658-.056.91-.168a1.42 1.42 0 0 0 .588-.504c.14-.215.21-.476.21-.784 0-.43-.145-.756-.434-.98-.28-.224-.69-.336-1.232-.336a3.71 3.71 0 0 0-.98.126c-.299.075-.63.22-.994.434a.76.76 0 0 1-.49.126.63.63 0 0 1-.378-.182.798.798 0 0 1-.21-.364.739.739 0 0 1 .028-.448.803.803 0 0 1 .35-.406 4.624 4.624 0 0 1 1.33-.588c.485-.14.984-.21 1.498-.21.681 0 1.264.107 1.75.322.485.205.854.504 1.106.896.261.383.392.85.392 1.4 0 .392-.075.751-.224 1.078-.15.317-.36.588-.63.812-.27.224-.598.383-.98.476v-.168c.672.112 1.194.392 1.568.84.373.439.56.99.56 1.652 0 .579-.145 1.083-.434 1.512-.29.43-.7.76-1.232.994-.532.224-1.167.336-1.904.336z" fill="#FF6900"/></g><defs><filter id="filter0_d_7955_15416" x=".334" y=".5" width="32" height="32" filterUnits="userSpaceOnUse" color-interpolation-filters="sRGB"><feFlood flood-opacity="0" result="BackgroundImageFix"/><feColorMatrix in="SourceAlpha" type="matrix" values="0 0 0 0 0 0 0 0 0 0 0 0 0 0 0 0 0 0 127 0" result="hardAlpha"/><feMorphology radius="4" operator="dilate" in="SourceAlpha" result="effect1_dropShadow_7955_15416"/><feOffset/><feColorMatrix type="matrix" values="0 0 0 0 1 0 0 0 0 0.94902 0 0 0 0 0.811765 0 0 0 1 0"/><feBlend mode="normal" in2="BackgroundImageFix" result="effect1_dropShadow_7955_15416"/><feBlend mode="normal" in="SourceGraphic" in2="effect1_dropShadow_7955_15416" result="shape"/></filter></defs></svg>