<svg width="101" height="100" viewBox="0 0 101 100" fill="none" xmlns="http://www.w3.org/2000/svg"><path d="M77.5 12a1 1 0 1 0 0 2 1 1 0 0 0 0-2z" fill="#F1BC19"/><path d="M50.5 13a37 37 0 1 0 0 74 37 37 0 0 0 0-74z" fill="#FEFBE7"/><path d="M83.5 11a4 4 0 1 0 0 8 4 4 0 0 0 0-8z" fill="#F1BC19"/><path d="M87.5 22a2 2 0 1 0 0 4 2 2 0 0 0 0-4z" fill="#8889B9"/><path d="M81.5 74a2 2 0 1 0 0 4 2 2 0 0 0 0-4zm-66-15a4 4 0 1 0 0 8 4 4 0 0 0 0-8z" fill="#FBCD59"/><path d="M25.5 85a2 2 0 1 0 0 4 2 2 0 0 0 0-4z" fill="#8889B9"/><path d="M19 49a2.5 2.5 0 1 0 0 5 2.5 2.5 0 0 0 0-5zm61-17a1.5 1.5 0 1 0 0 3 1.5 1.5 0 0 0 0-3z" fill="#fff"/><path d="M70.703 35.576v-6.197c0-1.446-1.172-2.629-2.605-2.629H32.771c-1.432 0-2.605 1.183-2.605 2.629v43.804l6.904-6.901 6.434 6.901 7.01-6.901 7.01 6.901 6.434-6.901 6.743 6.901v-27.98" fill="#FEFDEF"/><path d="M30.167 73.884a.7.7 0 0 1-.7-.7V29.379c0-1.836 1.483-3.33 3.305-3.33h35.327c1.822 0 3.305 1.494 3.305 3.33v6.197a.7.7 0 1 1-1.4 0v-6.197c0-1.063-.854-1.93-1.904-1.93H32.771c-1.05 0-1.905.866-1.905 1.93v42.115l5.708-5.707c.134-.134.318-.225.507-.205.19.004.37.084.5.223l5.943 6.375 6.498-6.396a.7.7 0 0 1 .982 0l6.498 6.396 5.943-6.375a.705.705 0 0 1 .504-.223c.186-.032.375.074.509.21L70 71.467V45.204a.7.7 0 1 1 1.4 0v27.979a.7.7 0 0 1-1.201.489l-6.231-6.377-5.934 6.365a.705.705 0 0 1-.497.223.655.655 0 0 1-.506-.201l-6.519-6.418-6.52 6.418a.689.689 0 0 1-.506.2.705.705 0 0 1-.497-.222l-5.939-6.371-6.391 6.389a.686.686 0 0 1-.492.206z" fill="#472B29"/><path d="M62.29 54.352c.012 0 .037.013.074.037l-.018-.009c.18.124.341.222.484.293.143.072.698.154.698.154v-2.845l-.167-.093a7.77 7.77 0 0 1-.586-.353 3.278 3.278 0 0 1-.501-.409 2.53 2.53 0 0 1-.377-.475 1.63 1.63 0 0 1-.21-.549 1.316 1.316 0 0 1-.041-.279 8.067 8.067 0 0 1-.005-.279c0-.292.048-.546.144-.763.096-.217.228-.402.395-.553.167-.151.366-.273.595-.364.23-.089.481-.15.753-.181v-.261a.57.57 0 0 1 .084-.316c.056-.087.158-.131.306-.131h-.039c.329 0 .509.159.541.475l-.01.25c.177.031.359.079.545.144.187.065.397.147.631.246l-.029-.018a.72.72 0 0 1 .252.139c.061.057.096.146.109.269v.057a.721.721 0 0 1-.133.362.907.907 0 0 1-.152.163.29.29 0 0 1-.19.07.83.83 0 0 1-.156-.014.457.457 0 0 1-.167-.079v-.037l-.293-.055c-.18-.093-.378-.168-.504-.223v2.538l-.054.019c.502.254.89.536 1.162.847.273.309.453.632.54.967a2.864 2.864 0 0 1 .102.754c0 .285-.046.542-.14.772a1.896 1.896 0 0 1-.962 1.019 2.997 2.997 0 0 1-.648.219v.67c-.092.124-.116.23-.166.316-.049.087-.306-.301-.306-.301h-.056s-.279.389-.372.305c-.093-.084-.14-.206.103-.367v-.623c-.577-.037-.866-.112-1.107-.223a5.625 5.625 0 0 1-.745-.419.513.513 0 0 1-.14-.158c-.025-.049-.053-.117.396-.204v-.057c-.48-.057-.463-.12-.429-.191a1.119 1.119 0 0 1 .284-.372c.056-.046.108-.07.158-.07.068 0 .128.02.182.061.053.04.104.082.153-.075h.01c.012.206.022.209.028.209l-.026-.009zm.722-3.953c.145.136.317.257.516.363v-2.036a1.24 1.24 0 0 0-.59.288.739.739 0 0 0-.237.576 1.336 1.336 0 0 0 .028.279.947.947 0 0 0 .283.53zm1.759 2.451a1.93 1.93 0 0 0-.446-.395v2.316c.217-.087.399-.22.544-.4a.972.972 0 0 0 .219-.632.906.906 0 0 0-.018-.187 4.87 4.87 0 0 1-.037-.176 1.336 1.336 0 0 0-.262-.526zm5.812-10.15a.7.7 0 0 1-.7-.7v-3.667a.7.7 0 1 1 1.4 0V42a.699.699 0 0 1-.7.7zM66 35H36a.5.5 0 0 1 0-1h30a.5.5 0 0 1 0 1zm-18 4H36a.5.5 0 0 1 0-1h12a.5.5 0 0 1 0 1zm8 9H39a.5.5 0 0 1 0-1h17a.5.5 0 0 1 0 1zm0 3H39a.5.5 0 0 1 0-1h17a.5.5 0 0 1 0 1zm0 3H39a.5.5 0 0 1 0-1h17a.5.5 0 0 1 0 1zm0 3H39a.5.5 0 0 1 0-1h17a.5.5 0 0 1 0 1zM36 47a.5.5 0 1 0 0 1 .5.5 0 0 0 0-1zm0 3a.5.5 0 1 0 0 1 .5.5 0 0 0 0-1zm0 3a.5.5 0 1 0 0 1 .5.5 0 0 0 0-1zm0 3a.5.5 0 1 0 0 1 .5.5 0 0 0 0-1z" fill="#472B29"/></svg>