<svg width="62" height="63" viewBox="0 0 62 63" fill="none" xmlns="http://www.w3.org/2000/svg"><g clip-path="url(#clip0_1503_2677)"><path d="M60.325 0H1.675C.75 0 0 .75 0 1.675v59.65C0 62.25.75 63 1.675 63h58.65C61.25 63 62 62.25 62 61.325V1.675C62 .75 61.25 0 60.325 0z" fill="#fff"/><path d="M6.973 5.277h-1.78v1.809h1.78V5.277zm1.78 0h-1.78v1.809h1.78V5.277zm1.78 0h-1.78v1.809h1.78V5.277zm1.78 0h-1.78v1.809h1.78V5.277z" fill="#000"/><path d="M14.092 5.277h-1.78v1.809h1.78V5.277zm1.78 0h-1.78v1.809h1.78V5.277zm1.78 0h-1.78v1.809h1.78V5.277zm3.559 0h-1.78v1.809h1.78V5.277zm5.339 0h-1.78v1.809h1.78V5.277z" fill="#000"/><path d="M28.33 5.277h-1.78v1.809h1.78V5.277zm1.78 0h-1.78v1.809h1.78V5.277zm8.899 0h-1.78v1.809h1.78V5.277zm7.119 0h-1.78v1.809h1.78V5.277z" fill="#000"/><path d="M47.907 5.277h-1.78v1.809h1.78V5.277zm1.78 0h-1.78v1.809h1.78V5.277zm1.78 0h-1.78v1.809h1.78V5.277zm1.78 0h-1.78v1.809h1.78V5.277z" fill="#000"/><path d="M55.026 5.277h-1.78v1.809h1.78V5.277z" fill="#000"/><path d="M56.806 5.277h-1.78v1.809h1.78V5.277zM6.973 7.086h-1.78v1.808h1.78V7.086zm10.679 0h-1.78v1.808h1.78V7.086zm5.339 0h-1.78v1.808h1.78V7.086zm1.779 0h-1.779v1.808h1.78V7.086zm5.34 0h-1.78v1.808h1.78V7.086zm1.78 0h-1.78v1.808h1.78V7.086zm5.339 0h-1.78v1.808h1.78V7.086zm5.339 0h-1.78v1.808h1.78V7.086zm3.56 0h-1.78v1.808h1.78V7.086zm10.678 0h-1.78v1.808h1.78V7.086zM6.973 8.894h-1.78v1.809h1.78V8.894zm3.56 0h-1.78v1.809h1.78V8.894zm1.78 0h-1.78v1.809h1.78V8.894z" fill="#000"/><path d="M14.092 8.894h-1.78v1.809h1.78V8.894zm3.56 0h-1.78v1.809h1.78V8.894zm3.559 0h-1.78v1.809h1.78V8.894zm8.899 0h-1.78v1.809h1.78V8.894zm3.56 0h-1.78v1.809h1.78V8.894zm3.559 0h-1.78v1.809h1.78V8.894zm1.78 0h-1.78v1.809h1.78V8.894z" fill="#000"/><path d="M40.788 8.894h-1.78v1.809h1.78V8.894zm1.78 0h-1.78v1.809h1.78V8.894zm3.56 0h-1.78v1.809h1.78V8.894zm3.559 0h-1.78v1.809h1.78V8.894zm1.78 0h-1.78v1.809h1.78V8.894zm1.78 0h-1.78v1.809h1.78V8.894zm3.559 0h-1.78v1.809h1.78V8.894zM6.973 10.703h-1.78v1.808h1.78v-1.808zm3.56 0h-1.78v1.808h1.78v-1.808zm1.78 0h-1.78v1.808h1.78v-1.808z" fill="#000"/><path d="M14.092 10.703h-1.78v1.808h1.78v-1.808zm3.56 0h-1.78v1.808h1.78v-1.808zm3.559 0h-1.78v1.808h1.78v-1.808zm1.78 0h-1.78v1.808h1.78v-1.808zm1.779 0h-1.779v1.808h1.78v-1.808z" fill="#000"/><path d="M26.55 10.703h-1.78v1.808h1.78v-1.808z" fill="#000"/><path d="M28.33 10.703h-1.78v1.808h1.78v-1.808zm3.56 0h-1.78v1.808h1.78v-1.808zm1.78 0h-1.78v1.808h1.78v-1.808zm1.78 0h-1.78v1.808h1.78v-1.808zm5.338 0h-1.78v1.808h1.78v-1.808zm5.34 0h-1.78v1.808h1.78v-1.808zm3.559 0h-1.78v1.808h1.78v-1.808zm1.78 0h-1.78v1.808h1.78v-1.808zm1.78 0h-1.78v1.808h1.78v-1.808zm3.559 0h-1.78v1.808h1.78v-1.808zM6.973 12.511h-1.78v1.809h1.78v-1.81zm3.56 0h-1.78v1.809h1.78v-1.81zm1.78 0h-1.78v1.809h1.78v-1.81z" fill="#000"/><path d="M14.092 12.511h-1.78v1.809h1.78v-1.81zm3.56 0h-1.78v1.809h1.78v-1.81zm5.339 0h-1.78v1.809h1.78v-1.81zm1.779 0h-1.779v1.809h1.78v-1.81zm8.9 0h-1.78v1.809h1.78v-1.81zm3.559 0h-1.78v1.809h1.78v-1.81zm8.899 0h-1.78v1.809h1.78v-1.81zm3.559 0h-1.78v1.809h1.78v-1.81zm1.78 0h-1.78v1.809h1.78v-1.81zm1.78 0h-1.78v1.809h1.78v-1.81zm3.559 0h-1.78v1.809h1.78v-1.81zM6.973 14.32h-1.78v1.808h1.78V14.32zm10.679 0h-1.78v1.808h1.78V14.32zm3.559 0h-1.78v1.808h1.78V14.32zm5.339 0h-1.78v1.808h1.78V14.32z" fill="#000"/><path d="M28.33 14.32h-1.78v1.808h1.78V14.32zm5.34 0h-1.78v1.808h1.78V14.32zm5.339 0h-1.78v1.808h1.78V14.32zm7.119 0h-1.78v1.808h1.78V14.32zm10.678 0h-1.78v1.808h1.78V14.32zM6.973 16.128h-1.78v1.809h1.78v-1.809zm1.78 0h-1.78v1.809h1.78v-1.809zm1.78 0h-1.78v1.809h1.78v-1.809zm1.78 0h-1.78v1.809h1.78v-1.809z" fill="#000"/><path d="M14.092 16.128h-1.78v1.809h1.78v-1.809zm1.78 0h-1.78v1.809h1.78v-1.809zm1.78 0h-1.78v1.809h1.78v-1.809zm3.559 0h-1.78v1.809h1.78v-1.809zm3.559 0h-1.779v1.809h1.78v-1.809zm3.56 0h-1.78v1.809h1.78v-1.809zm3.56 0h-1.78v1.809h1.78v-1.809zm3.56 0h-1.78v1.809h1.78v-1.809zm3.559 0h-1.78v1.809h1.78v-1.809zm3.559 0h-1.78v1.809h1.78v-1.809zm3.56 0h-1.78v1.809h1.78v-1.809z" fill="#000"/><path d="M47.907 16.128h-1.78v1.809h1.78v-1.809zm1.78 0h-1.78v1.809h1.78v-1.809zm1.78 0h-1.78v1.809h1.78v-1.809zm1.78 0h-1.78v1.809h1.78v-1.809z" fill="#000"/><path d="M55.026 16.128h-1.78v1.809h1.78v-1.809z" fill="#000"/><path d="M56.806 16.128h-1.78v1.809h1.78v-1.809zm-35.595 1.809h-1.78v1.808h1.78v-1.808zm1.78 0h-1.78v1.808h1.78v-1.808zm1.779 0h-1.779v1.808h1.78v-1.808zm3.56 0h-1.78v1.808h1.78v-1.808zm1.78 0h-1.78v1.808h1.78v-1.808zm1.78 0h-1.78v1.808h1.78v-1.808zm1.78 0h-1.78v1.808h1.78v-1.808zm1.78 0h-1.78v1.808h1.78v-1.808z" fill="#000"/><path d="M37.229 17.937h-1.78v1.808h1.78v-1.808zm3.559 0h-1.78v1.808h1.78v-1.808zm1.78 0h-1.78v1.808h1.78v-1.808zM6.973 19.745h-1.78v1.808h1.78v-1.808zm1.78 0h-1.78v1.808h1.78v-1.808zm3.56 0h-1.78v1.808h1.78v-1.808zm5.339 0h-1.78v1.808h1.78v-1.808z" fill="#000"/><path d="M19.432 19.745h-1.78v1.808h1.78v-1.808zm3.559 0h-1.78v1.808h1.78v-1.808zm7.119 0h-1.78v1.808h1.78v-1.808zm1.78 0h-1.78v1.808h1.78v-1.808zm3.56 0h-1.78v1.808h1.78v-1.808z" fill="#000"/><path d="M37.229 19.745h-1.78v1.808h1.78v-1.808zm3.559 0h-1.78v1.808h1.78v-1.808zm1.78 0h-1.78v1.808h1.78v-1.808zm1.78 0h-1.78v1.808h1.78v-1.808zm1.78 0h-1.78v1.808h1.78v-1.808z" fill="#000"/><path d="M47.907 19.745h-1.78v1.808h1.78v-1.808zm3.56 0h-1.78v1.808h1.78v-1.808zm1.78 0h-1.78v1.808h1.78v-1.808zm3.559 0h-1.78v1.808h1.78v-1.808zm-44.493 1.808h-1.78v1.809h1.78v-1.808zm7.119 0h-1.78v1.809h1.78v-1.808zm3.559 0h-1.78v1.809h1.78v-1.808zm1.779 0h-1.779v1.809h1.78v-1.808zm10.68 0h-1.78v1.809h1.78v-1.808zm3.559 0h-1.78v1.809h1.78v-1.808z" fill="#000"/><path d="M40.788 21.553h-1.78v1.809h1.78v-1.808zm7.119 0h-1.78v1.809h1.78v-1.808zm7.119 0h-1.78v1.809h1.78v-1.808z" fill="#000"/><path d="M56.806 21.553h-1.78v1.809h1.78v-1.808zM6.973 23.362h-1.78v1.808h1.78v-1.808zm3.56 0h-1.78v1.808h1.78v-1.808zm5.339 0h-1.78v1.808h1.78v-1.808zm1.78 0h-1.78v1.808h1.78v-1.808zm3.559 0h-1.78v1.808h1.78v-1.808zm3.559 0h-1.779v1.808h1.78v-1.808zm3.56 0h-1.78v1.808h1.78v-1.808zm3.56 0h-1.78v1.808h1.78v-1.808zm1.78 0h-1.78v1.808h1.78v-1.808zm3.559 0h-1.78v1.808h1.78v-1.808zm3.559 0h-1.78v1.808h1.78v-1.808zm1.78 0h-1.78v1.808h1.78v-1.808zm3.56 0h-1.78v1.808h1.78v-1.808zm3.559 0h-1.78v1.808h1.78v-1.808zm1.78 0h-1.78v1.808h1.78v-1.808z" fill="#000"/><path d="M55.026 23.362h-1.78v1.808h1.78v-1.808zM8.753 25.17h-1.78v1.809h1.78V25.17zm1.78 0h-1.78v1.809h1.78V25.17zm3.559 0h-1.78v1.809h1.78V25.17zm1.78 0h-1.78v1.809h1.78V25.17zm7.119 0h-1.78v1.809h1.78V25.17zm3.559 0h-1.78v1.809h1.78V25.17z" fill="#000"/><path d="M28.33 25.17h-1.78v1.809h1.78V25.17zm1.78 0h-1.78v1.809h1.78V25.17zm1.78 0h-1.78v1.809h1.78V25.17zm1.78 0h-1.78v1.809h1.78V25.17zm5.339 0h-1.78v1.809h1.78V25.17z" fill="#000"/><path d="M40.788 25.17h-1.78v1.809h1.78V25.17zm1.78 0h-1.78v1.809h1.78V25.17zm1.78 0h-1.78v1.809h1.78V25.17zm1.78 0h-1.78v1.809h1.78V25.17z" fill="#000"/><path d="M47.907 25.17h-1.78v1.809h1.78V25.17zm1.78 0h-1.78v1.809h1.78V25.17zm7.119 0h-1.78v1.809h1.78V25.17zm-46.273 1.809h-1.78v1.808h1.78V26.98zm7.119 0h-1.78v1.808h1.78V26.98zm1.78 0h-1.78v1.808h1.78V26.98zm7.118 0h-1.78v1.808h1.78V26.98zm3.56 0h-1.78v1.808h1.78V26.98zm1.78 0h-1.78v1.808h1.78V26.98zm1.78 0h-1.78v1.808h1.78V26.98zm1.78 0h-1.78v1.808h1.78V26.98z" fill="#000"/><path d="M37.229 26.979h-1.78v1.808h1.78V26.98zm3.559 0h-1.78v1.808h1.78V26.98zm1.78 0h-1.78v1.808h1.78V26.98zm1.78 0h-1.78v1.808h1.78V26.98zm3.559 0h-1.78v1.808h1.78V26.98zm1.78 0h-1.78v1.808h1.78V26.98zm1.78 0h-1.78v1.808h1.78V26.98zm1.78 0h-1.78v1.808h1.78V26.98zM6.973 28.787h-1.78v1.809h1.78v-1.809zm1.78 0h-1.78v1.809h1.78v-1.809zm7.119 0h-1.78v1.809h1.78v-1.809zm5.339 0h-1.78v1.809h1.78v-1.809zm1.78 0h-1.78v1.809h1.78v-1.809zm1.779 0h-1.779v1.809h1.78v-1.809zm7.12 0h-1.78v1.809h1.78v-1.809zm7.119 0h-1.78v1.809h1.78v-1.809z" fill="#000"/><path d="M40.788 28.787h-1.78v1.809h1.78v-1.809zm1.78 0h-1.78v1.809h1.78v-1.809zm5.339 0h-1.78v1.809h1.78v-1.809zm8.899 0h-1.78v1.809h1.78v-1.809zM6.973 30.596h-1.78v1.808h1.78v-1.808zm5.34 0h-1.78v1.808h1.78v-1.808z" fill="#000"/><path d="M14.092 30.596h-1.78v1.808h1.78v-1.808zm3.56 0h-1.78v1.808h1.78v-1.808zm5.339 0h-1.78v1.808h1.78v-1.808zm5.339 0h-1.78v1.808h1.78v-1.808zm1.78 0h-1.78v1.808h1.78v-1.808zm3.56 0h-1.78v1.808h1.78v-1.808zm1.78 0h-1.78v1.808h1.78v-1.808z" fill="#000"/><path d="M37.229 30.596h-1.78v1.808h1.78v-1.808zm1.78 0h-1.78v1.808h1.78v-1.808z" fill="#000"/><path d="M40.788 30.596h-1.78v1.808h1.78v-1.808zm1.78 0h-1.78v1.808h1.78v-1.808zm3.56 0h-1.78v1.808h1.78v-1.808z" fill="#000"/><path d="M47.907 30.596h-1.78v1.808h1.78v-1.808zm8.899 0h-1.78v1.808h1.78v-1.808zM6.973 32.404h-1.78v1.809h1.78v-1.809zm5.34 0h-1.78v1.809h1.78v-1.809zm3.559 0h-1.78v1.809h1.78v-1.809zm3.56 0h-1.78v1.809h1.78v-1.809z" fill="#000"/><path d="M21.211 32.404h-1.78v1.809h1.78v-1.809zm1.78 0h-1.78v1.809h1.78v-1.809zm5.339 0h-1.78v1.809h1.78v-1.809zm3.56 0h-1.78v1.809h1.78v-1.809zm3.56 0h-1.78v1.809h1.78v-1.809zm3.559 0h-1.78v1.809h1.78v-1.809zm5.339 0h-1.78v1.809h1.78v-1.809zm1.78 0h-1.78v1.809h1.78v-1.809z" fill="#000"/><path d="M47.907 32.404h-1.78v1.809h1.78v-1.809zm7.119 0h-1.78v1.809h1.78v-1.809zM8.753 34.213h-1.78v1.808h1.78v-1.808zm1.78 0h-1.78v1.808h1.78v-1.808zm3.559 0h-1.78v1.808h1.78v-1.808zm1.78 0h-1.78v1.808h1.78v-1.808zm1.78 0h-1.78v1.808h1.78v-1.808zm1.78 0h-1.78v1.808h1.78v-1.808zm5.338 0h-1.779v1.808h1.78v-1.808z" fill="#000"/><path d="M26.55 34.213h-1.78v1.808h1.78v-1.808zm3.56 0h-1.78v1.808h1.78v-1.808zm1.78 0h-1.78v1.808h1.78v-1.808zm1.78 0h-1.78v1.808h1.78v-1.808zm1.78 0h-1.78v1.808h1.78v-1.808z" fill="#000"/><path d="M37.229 34.213h-1.78v1.808h1.78v-1.808zm1.78 0h-1.78v1.808h1.78v-1.808zm3.559 0h-1.78v1.808h1.78v-1.808zm1.78 0h-1.78v1.808h1.78v-1.808zm5.339 0h-1.78v1.808h1.78v-1.808zM8.753 36.021h-1.78v1.809h1.78v-1.81zm3.56 0h-1.78v1.809h1.78v-1.81zm3.559 0h-1.78v1.809h1.78v-1.81zm3.56 0h-1.78v1.809h1.78v-1.81zm3.559 0h-1.78v1.809h1.78v-1.81zm3.559 0h-1.78v1.809h1.78v-1.81zm3.56 0h-1.78v1.809h1.78v-1.81z" fill="#000"/><path d="M35.45 36.021h-1.78v1.809h1.78v-1.81z" fill="#000"/><path d="M37.229 36.021h-1.78v1.809h1.78v-1.81zm1.78 0h-1.78v1.809h1.78v-1.81zm7.119 0h-1.78v1.809h1.78v-1.81zm7.119 0h-1.78v1.809h1.78v-1.81z" fill="#000"/><path d="M55.026 36.021h-1.78v1.809h1.78v-1.81z" fill="#000"/><path d="M56.806 36.021h-1.78v1.809h1.78v-1.81zM12.313 37.83h-1.78v1.808h1.78V37.83zm3.559 0h-1.78v1.808h1.78V37.83zm1.78 0h-1.78v1.808h1.78V37.83z" fill="#000"/><path d="M19.432 37.83h-1.78v1.808h1.78V37.83zm3.559 0h-1.78v1.808h1.78V37.83zm1.779 0h-1.779v1.808h1.78V37.83zm12.459 0h-1.78v1.808h1.78V37.83zm5.339 0h-1.78v1.808h1.78V37.83zm1.78 0h-1.78v1.808h1.78V37.83zm3.559 0h-1.78v1.808h1.78V37.83zm1.78 0h-1.78v1.808h1.78V37.83zm1.78 0h-1.78v1.808h1.78V37.83zm1.78 0h-1.78v1.808h1.78V37.83z" fill="#000"/><path d="M55.026 37.83h-1.78v1.808h1.78V37.83z" fill="#000"/><path d="M56.806 37.83h-1.78v1.808h1.78V37.83zM6.973 39.638h-1.78v1.809h1.78v-1.809zm5.34 0h-1.78v1.809h1.78v-1.809z" fill="#000"/><path d="M14.092 39.638h-1.78v1.809h1.78v-1.809zm1.78 0h-1.78v1.809h1.78v-1.809zm7.119 0h-1.78v1.809h1.78v-1.809zm7.119 0h-1.78v1.809h1.78v-1.809zm1.78 0h-1.78v1.809h1.78v-1.809zm1.78 0h-1.78v1.809h1.78v-1.809zm1.78 0h-1.78v1.809h1.78v-1.809zm10.678 0h-1.78v1.809h1.78v-1.809zm5.339 0h-1.78v1.809h1.78v-1.809zm5.339 0h-1.78v1.809h1.78v-1.809zM6.973 41.447h-1.78v1.808h1.78v-1.809zm3.56 0h-1.78v1.808h1.78v-1.809zm7.119 0h-1.78v1.808h1.78v-1.809z" fill="#000"/><path d="M19.432 41.447h-1.78v1.808h1.78v-1.809zm3.559 0h-1.78v1.808h1.78v-1.809zm5.339 0h-1.78v1.808h1.78v-1.809zm3.56 0h-1.78v1.808h1.78v-1.809zm1.78 0h-1.78v1.808h1.78v-1.809zm1.78 0h-1.78v1.808h1.78v-1.809zm3.559 0h-1.78v1.808h1.78v-1.809zm3.559 0h-1.78v1.808h1.78v-1.809zm1.78 0h-1.78v1.808h1.78v-1.809zm1.78 0h-1.78v1.808h1.78v-1.809z" fill="#000"/><path d="M47.907 41.447h-1.78v1.808h1.78v-1.809zm1.78 0h-1.78v1.808h1.78v-1.809zm3.56 0h-1.78v1.808h1.78v-1.809z" fill="#000"/><path d="M55.026 41.447h-1.78v1.808h1.78v-1.809z" fill="#000"/><path d="M56.806 41.447h-1.78v1.808h1.78v-1.809zm-33.815 1.808h-1.78v1.808h1.78v-1.808zm1.779 0h-1.779v1.808h1.78v-1.808z" fill="#000"/><path d="M26.55 43.255h-1.78v1.808h1.78v-1.808zm5.34 0h-1.78v1.808h1.78v-1.808zm1.78 0h-1.78v1.808h1.78v-1.808zm8.898 0h-1.78v1.808h1.78v-1.808zm7.119 0h-1.78v1.808h1.78v-1.808zm1.78 0h-1.78v1.808h1.78v-1.808zm3.559 0h-1.78v1.808h1.78v-1.808zm1.78 0h-1.78v1.808h1.78v-1.808zM6.973 45.063h-1.78v1.809h1.78v-1.809zm1.78 0h-1.78v1.809h1.78v-1.809zm1.78 0h-1.78v1.809h1.78v-1.809zm1.78 0h-1.78v1.809h1.78v-1.809z" fill="#000"/><path d="M14.092 45.063h-1.78v1.809h1.78v-1.809zm1.78 0h-1.78v1.809h1.78v-1.809zm1.78 0h-1.78v1.809h1.78v-1.809zm3.559 0h-1.78v1.809h1.78v-1.809zm1.78 0h-1.78v1.809h1.78v-1.809zm3.559 0h-1.78v1.809h1.78v-1.809zm3.56 0h-1.78v1.809h1.78v-1.809zm8.899 0h-1.78v1.809h1.78v-1.809z" fill="#000"/><path d="M40.788 45.063h-1.78v1.809h1.78v-1.809zm1.78 0h-1.78v1.809h1.78v-1.809zm3.56 0h-1.78v1.809h1.78v-1.809zm3.559 0h-1.78v1.809h1.78v-1.809zm7.119 0h-1.78v1.809h1.78v-1.809zM6.973 46.872h-1.78v1.808h1.78v-1.808zm10.679 0h-1.78v1.808h1.78v-1.808zm5.339 0h-1.78v1.808h1.78v-1.808zm1.779 0h-1.779v1.808h1.78v-1.808z" fill="#000"/><path d="M26.55 46.872h-1.78v1.808h1.78v-1.808z" fill="#000"/><path d="M28.33 46.872h-1.78v1.808h1.78v-1.808zm7.12 0h-1.78v1.808h1.78v-1.808z" fill="#000"/><path d="M37.229 46.872h-1.78v1.808h1.78v-1.808zm1.78 0h-1.78v1.808h1.78v-1.808zm3.559 0h-1.78v1.808h1.78v-1.808zm7.119 0h-1.78v1.808h1.78v-1.808zm3.56 0h-1.78v1.808h1.78v-1.808zm3.559 0h-1.78v1.808h1.78v-1.808zM6.973 48.68h-1.78v1.809h1.78V48.68zm3.56 0h-1.78v1.809h1.78V48.68zm1.78 0h-1.78v1.809h1.78V48.68z" fill="#000"/><path d="M14.092 48.68h-1.78v1.809h1.78V48.68zm3.56 0h-1.78v1.809h1.78V48.68zm5.339 0h-1.78v1.809h1.78V48.68zm8.899 0h-1.78v1.809h1.78V48.68zm1.78 0h-1.78v1.809h1.78V48.68zm1.78 0h-1.78v1.809h1.78V48.68zm3.559 0h-1.78v1.809h1.78V48.68zm3.559 0h-1.78v1.809h1.78V48.68zm1.78 0h-1.78v1.809h1.78V48.68zm1.78 0h-1.78v1.809h1.78V48.68z" fill="#000"/><path d="M47.907 48.68h-1.78v1.809h1.78V48.68zm1.78 0h-1.78v1.809h1.78V48.68zm1.78 0h-1.78v1.809h1.78V48.68zm3.559 0h-1.78v1.809h1.78V48.68zm1.78 0h-1.78v1.809h1.78V48.68zM6.973 50.489h-1.78v1.808h1.78V50.49zm3.56 0h-1.78v1.808h1.78V50.49zm1.78 0h-1.78v1.808h1.78V50.49z" fill="#000"/><path d="M14.092 50.489h-1.78v1.808h1.78V50.49zm3.56 0h-1.78v1.808h1.78V50.49zm3.559 0h-1.78v1.808h1.78V50.49zm7.119 0h-1.78v1.808h1.78V50.49zm7.12 0h-1.78v1.808h1.78V50.49z" fill="#000"/><path d="M37.229 50.489h-1.78v1.808h1.78V50.49zm5.339 0h-1.78v1.808h1.78V50.49zm1.78 0h-1.78v1.808h1.78V50.49zm1.78 0h-1.78v1.808h1.78V50.49z" fill="#000"/><path d="M47.907 50.489h-1.78v1.808h1.78V50.49zm3.56 0h-1.78v1.808h1.78V50.49zm3.559 0h-1.78v1.808h1.78V50.49zM6.973 52.297h-1.78v1.809h1.78v-1.809zm3.56 0h-1.78v1.809h1.78v-1.809zm1.78 0h-1.78v1.809h1.78v-1.809z" fill="#000"/><path d="M14.092 52.297h-1.78v1.809h1.78v-1.809zm3.56 0h-1.78v1.809h1.78v-1.809zm7.118 0h-1.779v1.809h1.78v-1.809zm3.56 0h-1.78v1.809h1.78v-1.809zm1.78 0h-1.78v1.809h1.78v-1.809zm1.78 0h-1.78v1.809h1.78v-1.809zm5.339 0h-1.78v1.809h1.78v-1.809zm1.78 0h-1.78v1.809h1.78v-1.809z" fill="#000"/><path d="M40.788 52.297h-1.78v1.809h1.78v-1.809zm1.78 0h-1.78v1.809h1.78v-1.809zm1.78 0h-1.78v1.809h1.78v-1.809zm5.339 0h-1.78v1.809h1.78v-1.809zm3.56 0h-1.78v1.809h1.78v-1.809zM6.973 54.106h-1.78v1.808h1.78v-1.808zm10.679 0h-1.78v1.808h1.78v-1.808zm3.559 0h-1.78v1.808h1.78v-1.808zm3.559 0h-1.779v1.808h1.78v-1.808zm5.34 0h-1.78v1.808h1.78v-1.808zm1.78 0h-1.78v1.808h1.78v-1.808zm1.78 0h-1.78v1.808h1.78v-1.808zm1.78 0h-1.78v1.808h1.78v-1.808z" fill="#000"/><path d="M37.229 54.106h-1.78v1.808h1.78v-1.808zm7.119 0h-1.78v1.808h1.78v-1.808zm1.78 0h-1.78v1.808h1.78v-1.808zm3.559 0h-1.78v1.808h1.78v-1.808zm1.78 0h-1.78v1.808h1.78v-1.808zm3.559 0h-1.78v1.808h1.78v-1.808zm1.78 0h-1.78v1.808h1.78v-1.808zM6.973 55.914h-1.78v1.808h1.78v-1.808zm1.78 0h-1.78v1.808h1.78v-1.808zm1.78 0h-1.78v1.808h1.78v-1.808zm1.78 0h-1.78v1.808h1.78v-1.808z" fill="#000"/><path d="M14.092 55.914h-1.78v1.808h1.78v-1.808zm1.78 0h-1.78v1.808h1.78v-1.808zm1.78 0h-1.78v1.808h1.78v-1.808zm3.559 0h-1.78v1.808h1.78v-1.808zm1.78 0h-1.78v1.808h1.78v-1.808zm3.559 0h-1.78v1.808h1.78v-1.808zm3.56 0h-1.78v1.808h1.78v-1.808zm1.78 0h-1.78v1.808h1.78v-1.808zm12.458 0h-1.78v1.808h1.78v-1.808zm3.559 0h-1.78v1.808h1.78v-1.808zm1.78 0h-1.78v1.808h1.78v-1.808zm3.56 0h-1.78v1.808h1.78v-1.808z" fill="#000"/></g><rect x=".209" y=".209" width="61.581" height="62.581" rx="1.466" stroke="#F2F2F2" stroke-width=".419"/><defs><clipPath id="clip0_1503_2677"><rect width="62" height="63" rx="1.675" fill="#fff"/></clipPath></defs></svg>