<svg width="60" height="60" viewBox="0 0 60 60" fill="none" xmlns="http://www.w3.org/2000/svg"><circle cx="30" cy="30" r="30" fill="#FFE9CC"/><path d="M35.333 38l4 4m0 0l4-4m-4 4v-8m4-6.667H16.667M43.333 30v-5.067c0-1.493 0-2.24-.29-2.81a2.667 2.667 0 0 0-1.166-1.166c-.57-.29-1.317-.29-2.81-.29H20.933c-1.493 0-2.24 0-2.81.29a2.67 2.67 0 0 0-1.166 1.166c-.29.57-.29 1.317-.29 2.81v10.134c0 1.493 0 2.24.29 2.81.256.502.664.91 1.166 1.166.57.29 1.317.29 2.81.29H30" stroke="#FA3" stroke-width="2" stroke-linecap="round" stroke-linejoin="round"/></svg>