<svg width="431" height="214" viewBox="0 0 431 214" fill="none" xmlns="http://www.w3.org/2000/svg"><g filter="url(#filter0_dd_6976_140751)"><path fill-rule="evenodd" clip-rule="evenodd" d="M33.647 0h258.176a8.53 8.53 0 0 0 17.021 0h87.587c7.537 0 13.647 6.11 13.647 13.647v56.634c-6.075 3.106-10.235 9.427-10.235 16.719 0 7.292 4.16 13.613 10.235 16.719v56.634c0 7.537-6.11 13.647-13.647 13.647h-87.587a8.53 8.53 0 1 0-17.021 0H33.647C26.11 174 20 167.89 20 160.353v-55.656C27.288 102.121 32.51 95.17 32.51 87S27.288 71.879 20 69.303V13.647C20 6.11 26.11 0 33.647 0z" fill="#fff"/><path stroke="#fff" stroke-width="1.137" stroke-linecap="round" stroke-dasharray="3.41 3.41" d="M300.333 8.529v155.804"/></g><path d="M301 15v144.412" stroke="#E6EAED" stroke-width="1.067" stroke-linecap="round" stroke-dasharray="3.2 3.2"/><defs><filter id="filter0_dd_6976_140751" x="0" y="0" width="430.078" height="214" filterUnits="userSpaceOnUse" color-interpolation-filters="sRGB"><feFlood flood-opacity="0" result="BackgroundImageFix"/><feColorMatrix in="SourceAlpha" type="matrix" values="0 0 0 0 0 0 0 0 0 0 0 0 0 0 0 0 0 0 127 0" result="hardAlpha"/><feMorphology radius="4" operator="erode" in="SourceAlpha" result="effect1_dropShadow_6976_140751"/><feOffset dy="20"/><feGaussianBlur stdDeviation="12"/><feColorMatrix type="matrix" values="0 0 0 0 0.0627451 0 0 0 0 0.0941176 0 0 0 0 0.156863 0 0 0 0.08 0"/><feBlend mode="normal" in2="BackgroundImageFix" result="effect1_dropShadow_6976_140751"/><feColorMatrix in="SourceAlpha" type="matrix" values="0 0 0 0 0 0 0 0 0 0 0 0 0 0 0 0 0 0 127 0" result="hardAlpha"/><feMorphology radius="4" operator="erode" in="SourceAlpha" result="effect2_dropShadow_6976_140751"/><feOffset dy="8"/><feGaussianBlur stdDeviation="4"/><feColorMatrix type="matrix" values="0 0 0 0 0.0627451 0 0 0 0 0.0941176 0 0 0 0 0.156863 0 0 0 0.03 0"/><feBlend mode="normal" in2="effect1_dropShadow_6976_140751" result="effect2_dropShadow_6976_140751"/><feBlend mode="normal" in="SourceGraphic" in2="effect2_dropShadow_6976_140751" result="shape"/></filter></defs></svg>