<svg width="553" height="827" viewBox="0 0 553 827" fill="none" xmlns="http://www.w3.org/2000/svg"><g clip-path="url(#clip0_6445_189690)"><path d="M547.591 556.196V270.804c0-147.021-119.145-266.202-266.166-266.202h-5.329c-147.04 0-266.221 119.181-266.221 266.202v285.392c0 147.021 119.181 266.202 266.221 266.202h5.347c147.003 0 266.148-119.181 266.148-266.202zm-381.225 90.403a144.073 144.073 0 0 1-42.334-102.202V282.603a144.535 144.535 0 1 1 289.072 0v261.794a144.484 144.484 0 0 1-89.196 133.601 144.495 144.495 0 0 1-157.542-31.399z" fill="#E0E0E0"/><path d="M268.568 688.933a144.538 144.538 0 0 1-144.49-144.536V282.603a144.54 144.54 0 0 1 144.536-144.537A144.538 144.538 0 0 1 413.15 282.603v261.794a144.543 144.543 0 0 1-42.35 102.219 144.537 144.537 0 0 1-102.232 42.317z" fill="#E0E0E0"/><path d="M426.955 252.527a159.377 159.377 0 0 0-16.492-47.388l36.38-16.271 3.12 5.725 10.197-4.915a204.617 204.617 0 0 1 18.02 54.851l-51.225 7.998zm54.17 36.647h-51.63v-8.053c0-4.461-.181-8.878-.543-13.253h24.628v-10.915l26.036-3.432a208.055 208.055 0 0 1 1.84 27.379v6.939c-.211.865-.331 1.335-.331 1.335zm.295 56.655h-51.925v-27.03h26.321v-7.795h-26.321v-17.661h51.925v52.486zm0 68.775h-51.925v-28.401h26.321v-9.194h-26.321v-24.425h51.925v62.02zm0 68.941h-51.925v-28.06h26.321v-9.36h-26.321v-27.021h51.925v64.441zm0 53.121h-51.925v-15.157l26.321.497v-9.121l-26.321-.175v-23.965h51.925v47.921zm-1.804 43.605l-15.645-2.135v-15.075H428.63v-.276c.577-5.574.866-11.173.865-16.777v-4.777h51.925v11.688a207.782 207.782 0 0 1-1.804 27.352zm-29.671 58.67l-38.562-18.774a159.612 159.612 0 0 0 14.274-39.206l40.366 2.89c-3.102 29.625-16.078 55.09-16.078 55.09zm12.976-.488l-8.531-3.147s9.322-14.955 14.872-52.458l9.838 1.334a204.579 204.579 0 0 1-16.179 54.271zm-48.059 51.419l-31.438-31.19a161.213 161.213 0 0 0 25.898-34.622l39.058 19.041c-12.618 23.661-33.518 46.771-33.518 46.771zm2.816 12.111l-5.374-5.871c20.09-18.572 36.122-46.016 36.122-46.016l7.363 2.466a207.033 207.033 0 0 1-38.111 49.421zm-67.036 32.322l-18.544-40.494a160.412 160.412 0 0 0 38.101-23.1l31.116 30.867c-25.953 23.892-50.673 32.727-50.673 32.727z" fill="#66AFFF"/><path d="M358.667 741.502l-3.055-5.899c34.825-16.631 53.793-36.896 53.793-36.896l5.475 5.899a206.062 206.062 0 0 1-56.213 36.896zm-66.98 8.394l-6.599-43.918a159.658 159.658 0 0 0 42.62-10.344l1.399-.304 18.195 40.006a200.102 200.102 0 0 1-55.615 14.56z" fill="#66AFFF"/><path d="M286.928 758.767v-6.184c29.184-1.215 56.996-12.995 56.996-12.995l3.543 6.442a204.897 204.897 0 0 1-60.539 12.737zm-18.535.212a205.357 205.357 0 0 1-61.321-11.421l14.017-47.857a160.512 160.512 0 0 0 44.884 7.105l2.42 52.173zm-67.156-13.575a205.7 205.7 0 0 1-49.771-27.609l26.358-39.123a160.313 160.313 0 0 0 38.755 19.492l-15.342 47.24zm-63.06-38.488a203.436 203.436 0 0 1-8.715-8.218 206.934 206.934 0 0 1-30.702-39.151l37.107-22.906a160.806 160.806 0 0 0 19.134 23.072 160.36 160.36 0 0 0 9.313 8.605l-26.137 38.598zm-41.673-51.179a204.692 204.692 0 0 1-23.928-64.57l40.209-5.521a160.21 160.21 0 0 0 20.928 47.856l-37.209 22.235zM494.01 206.769l-17.284 5.825a209.618 209.618 0 0 0-8.191-19.667l56.14-24.591a264.777 264.777 0 0 1 13.068 33.518l-41.359 11.164-2.374-6.249zm55.689 64.081l-61.34-4.51a211.132 211.132 0 0 0-6.442-37.134l18.563-4.28-2.292-6.672 41.764-8.872a268.069 268.069 0 0 1 9.747 61.468zm.238 41.286l-40.908-1.988-.313-4.114-19.584-1.408v-20.1c0-4.399-.132-8.767-.396-13.105l61.118 4.546c.056 2.099.083 4.203.083 6.314v29.855zm0 69.926l-40.484-2.246.184-5.052-20.505-1.436v-52.394l20.275 1.427v-7.124l40.53 1.74v65.085zm0 69.42l-41.294-3.332.073-3.985-19.584-1.629v-52.201l20.044 1.436v-6.893l40.761 1.951v64.653zm0 68.509l-41.405-3.571-.165-3.718-19.235-1.85v-52.339l19.612 1.593v-7.621l41.193 3.498v64.008zm-.257 45.776l-60.926-3.515c.249-4.188.378-8.421.378-12.673v-25.143l19.897 1.785v-6.019l40.908 3.369v30.37c0 3.958-.086 7.9-.257 11.826zm-11.108 65.674l-37.126-9.544 1.565-7.804-22.153-5.522a212.793 212.793 0 0 0 7.639-42.491l60.971 3.681a267.15 267.15 0 0 1-10.896 61.68zm-42.409 83.694l-33.969-22.088 3.856-5.798-18.13-11.623a213.056 213.056 0 0 0 28.116-52.274l22.778 8.807 1.776-6.442 36.656 10.123a267.73 267.73 0 0 1-41.083 79.295zm-69.429 64.598l-25.382-30.932 3.304-1.786-13.225-18.121a214.091 214.091 0 0 0 46.936-41.157l18.59 13.142 2.568-4.463 33.371 23.008a269.667 269.667 0 0 1-66.162 60.309zm-85.295 35.938l-13.925-33.637 6.912-2.679-7.933-22.52a211.816 211.816 0 0 0 54.142-21.425l12.664 19.861 5.798-3.571 24.048 30.315a266.643 266.643 0 0 1-81.706 33.656zm-59.987 6.727a269.634 269.634 0 0 1-34.917-2.255l-1.233-36.334 4.16.129-1.077-22.833a215.887 215.887 0 0 0 61.607-.92l7.16 24.167 6.111-1.426 13.123 33.867a269.343 269.343 0 0 1-54.934 5.605zm-40.972-3.1a266.709 266.709 0 0 1-83.28-27.315l10.188-32.267 5.909 1.841 4.739-22.401a211.825 211.825 0 0 0 57.373 19.861l-1.141 23.008 7.105 1.178-.893 36.095zm-88.342-30.04a269.417 269.417 0 0 1-60.539-45.501 265.87 265.87 0 0 1-10.298-10.896l23.072-27.398 4.602 5.236 11.587-14.936a176.731 176.731 0 0 0 4.472 4.601 214.56 214.56 0 0 0 40.495 31.788l-7.032 20.413 4.528 2.963-10.887 33.73zm-73.515-59.444a268.314 268.314 0 0 1-47.517-78.705l29.34-15.885 3.976 7.105 15.277-8.78a213.264 213.264 0 0 0 32.212 52.559l-12.047 11.854 3.359 4.141-24.6 27.711zm-49.614-84.273a267.01 267.01 0 0 1-11.965-44.663l49.587-9.507a212.423 212.423 0 0 0 7.97 29.128l-17.707 6.829 1.841 4.74-29.726 13.473z" fill="#66AFFF"/><path d="M413.104 544.397V282.603c0-79.825-64.711-144.537-144.536-144.537s-144.536 64.712-144.536 144.537v261.794c0 79.825 64.711 144.536 144.536 144.536s144.536-64.711 144.536-144.536z" stroke="#fff" stroke-width="9.203" stroke-miterlimit="10"/><path d="M494.01 206.769l-17.284 5.825a209.618 209.618 0 0 0-8.191-19.667l56.14-24.591a264.777 264.777 0 0 1 13.068 33.518l-41.359 11.164-2.374-6.249zm55.689 64.081l-61.34-4.51a211.132 211.132 0 0 0-6.442-37.134l18.563-4.28-2.292-6.672 41.764-8.872a268.069 268.069 0 0 1 9.747 61.468zm.238 41.286l-40.908-1.988-.313-4.114-19.584-1.408v-20.1c0-4.399-.132-8.767-.396-13.105l61.118 4.546c.056 2.099.083 4.203.083 6.314v29.855zm0 69.926l-40.484-2.246.184-5.052-20.505-1.436v-52.394l20.275 1.427v-7.124l40.53 1.74v65.085zm0 69.42l-41.294-3.332.073-3.985-19.584-1.629v-52.201l20.044 1.436v-6.893l40.761 1.951v64.653zm0 68.509l-41.405-3.571-.165-3.718-19.235-1.85v-52.339l19.612 1.593v-7.621l41.193 3.498v64.008zm-.257 45.776l-60.926-3.515c.249-4.188.378-8.421.378-12.673v-25.143l19.897 1.785v-6.019l40.908 3.369v30.37c0 3.958-.086 7.9-.257 11.826zm-11.108 65.674l-37.126-9.544 1.565-7.804-22.153-5.522a212.793 212.793 0 0 0 7.639-42.491l60.971 3.681a267.15 267.15 0 0 1-10.896 61.68zm-509.563 14.1a267.01 267.01 0 0 1-11.965-44.663l49.587-9.507a212.423 212.423 0 0 0 7.97 29.128l-17.707 6.829 1.841 4.74-29.726 13.473zm467.154 69.594l-33.969-22.088 3.856-5.798-18.13-11.623a213.056 213.056 0 0 0 28.116-52.274l22.778 8.807 1.776-6.442 36.656 10.123a267.73 267.73 0 0 1-41.083 79.295zm-417.54 14.679a268.314 268.314 0 0 1-47.517-78.705l29.34-15.885 3.976 7.105 15.277-8.78a213.264 213.264 0 0 0 32.212 52.559l-12.047 11.854 3.359 4.141-24.6 27.711zm348.111 49.919l-25.382-30.932 3.304-1.786-13.225-18.121a214.091 214.091 0 0 0 46.936-41.157l18.59 13.142 2.568-4.463 33.371 23.008a269.667 269.667 0 0 1-66.162 60.309zm-274.596 9.525a269.417 269.417 0 0 1-60.539-45.501 265.87 265.87 0 0 1-10.298-10.896l23.072-27.398 4.602 5.236 11.587-14.936a176.731 176.731 0 0 0 4.472 4.601 214.56 214.56 0 0 0 40.495 31.788l-7.032 20.413 4.528 2.963-10.887 33.73zm189.301 26.413l-13.925-33.637 6.912-2.679-7.933-22.52a211.816 211.816 0 0 0 54.142-21.425l12.664 19.861 5.798-3.571 24.048 30.315a266.643 266.643 0 0 1-81.706 33.656zm-100.959 3.627a266.709 266.709 0 0 1-83.28-27.315l10.188-32.267 5.909 1.841 4.739-22.401a211.825 211.825 0 0 0 57.373 19.861l-1.141 23.008 7.105 1.178-.893 36.095zm40.972 3.1a269.634 269.634 0 0 1-34.917-2.255l-1.233-36.334 4.16.129-1.077-22.833a215.887 215.887 0 0 0 61.607-.92l7.16 24.167 6.111-1.426 13.123 33.867a269.343 269.343 0 0 1-54.934 5.605zm196.765-577.869l-51.262 7.998a159.377 159.377 0 0 0-16.492-47.388l36.38-16.271 3.12 5.725 10.197-4.915a204.617 204.617 0 0 1 18.057 54.851zm3.203 43.31c-.175.865-.295 1.335-.295 1.335h-51.63v-8.053c0-4.461-.181-8.878-.543-13.253h24.628v-10.915l26.036-3.432a208.055 208.055 0 0 1 1.84 27.379l-.036 6.939zm0 57.99h-51.925v-27.03h26.321v-7.795h-26.321v-17.661h51.925v52.486zm0 68.775h-51.925v-28.401h26.321v-9.194h-26.321v-24.425h51.925v62.02zm0 68.941h-51.925v-28.06h26.321v-9.36h-26.321v-27.021h51.925v64.441zm0 53.121h-51.925v-15.157l26.321.497v-9.121l-26.321-.175v-23.965h51.925v47.921zm-1.804 43.605l-15.645-2.135v-15.075H428.63v-.276c.577-5.574.866-11.173.865-16.777v-4.777h51.925v11.688a207.782 207.782 0 0 1-1.804 27.352zM96.504 655.737a204.692 204.692 0 0 1-23.928-64.57l40.209-5.521a160.21 160.21 0 0 0 20.928 47.856l-37.209 22.235zm41.673 51.179a203.436 203.436 0 0 1-8.715-8.218 206.934 206.934 0 0 1-30.702-39.151l37.107-22.906a160.806 160.806 0 0 0 19.134 23.072 160.36 160.36 0 0 0 9.313 8.605l-26.137 38.598zm63.06 38.488a205.7 205.7 0 0 1-49.771-27.609l26.358-39.123a160.313 160.313 0 0 0 38.755 19.492l-15.342 47.24zm67.156 13.575a205.357 205.357 0 0 1-61.321-11.421l14.017-47.857a160.512 160.512 0 0 0 44.884 7.105l2.42 52.173z" fill="#66AFFF"/><path d="M547.627 556.196V270.804c0-147.019-119.183-266.202-266.202-266.202h-5.347c-147.02 0-266.203 119.183-266.203 266.202v285.392c0 147.019 119.183 266.202 266.203 266.202h5.347c147.019 0 266.202-119.183 266.202-266.202z" stroke="#fff" stroke-width="9.203" stroke-miterlimit="10"/><path d="M96.855 253.318v322.978H0V253.318h96.855z" fill="#66AFFF"/><path d="M497.777 197.907c-.186.043-.344.026-.475-.05a.621.621 0 0 1-.248-.395c-.042-.186-.024-.337.055-.453.086-.118.222-.198.409-.24l1.202-.274-1.201-5.273.666-.152-1.361 1.315a.634.634 0 0 1-.364.185.605.605 0 0 1-.335-.082.699.699 0 0 1-.23-.264.577.577 0 0 1-.057-.348.648.648 0 0 1 .211-.365l1.279-1.228c.124-.119.251-.223.381-.313a.983.983 0 0 1 .375-.187.567.567 0 0 1 .405.043c.119.056.199.177.241.363l1.365 5.993 1.096-.25c.186-.042.339-.028.461.042.128.069.214.196.256.382.043.186.022.342-.063.466-.077.124-.209.206-.395.249l-3.673.836zm7.42-1.577c-.308.07-.637.096-.988.078a3.513 3.513 0 0 1-1.024-.23.513.513 0 0 1-.289-.227.683.683 0 0 1-.097-.329.667.667 0 0 1 .084-.324.466.466 0 0 1 .256-.216c.109-.048.241-.048.395 0 .276.088.528.136.756.144.228.009.449-.012.664-.061.415-.094.744-.271.986-.529.243-.259.392-.598.447-1.017.06-.428.025-.928-.105-1.501l-.183-.806.128-.029c.032.37-.015.708-.141 1.015a1.941 1.941 0 0 1-.57.774 2.256 2.256 0 0 1-.909.422c-.43.097-.84.082-1.231-.048a2.244 2.244 0 0 1-.99-.678 2.754 2.754 0 0 1-.576-1.19 2.754 2.754 0 0 1 .013-1.382c.128-.428.358-.793.688-1.094a2.596 2.596 0 0 1 1.224-.629c.63-.143 1.197-.118 1.7.076.504.194.935.548 1.293 1.061.356.507.625 1.157.806 1.952.146.644.202 1.234.165 1.769-.03.527-.146.994-.347 1.401a2.774 2.774 0 0 1-.853 1.019c-.36.27-.794.463-1.302.579zm-.496-4.01c.258-.059.47-.168.638-.326.172-.167.289-.367.349-.599.058-.24.057-.495-.005-.767a1.607 1.607 0 0 0-.328-.694 1.183 1.183 0 0 0-.572-.378 1.335 1.335 0 0 0-.715-.018 1.343 1.343 0 0 0-.638.326 1.284 1.284 0 0 0-.351.589c-.061.232-.059.487.005.767.062.272.171.503.327.693.162.182.353.311.575.389.219.071.457.077.715.018zm1.665 55.689c-.229.053-.409.041-.539-.035-.124-.085-.21-.227-.255-.428a.721.721 0 0 1 .016-.376c.038-.129.103-.272.196-.429l1.635-2.79c.251-.418.416-.784.496-1.095.078-.319.084-.622.019-.909-.081-.357-.258-.603-.53-.737-.264-.136-.611-.155-1.04-.057a2.622 2.622 0 0 0-.706.274c-.229.12-.45.29-.663.512a.555.555 0 0 1-.341.191.538.538 0 0 1-.321-.074.644.644 0 0 1-.295-.599.636.636 0 0 1 .187-.37c.26-.278.568-.514.923-.708a4.447 4.447 0 0 1 1.123-.425c.544-.124 1.021-.146 1.431-.066.41.08.747.255 1.012.526.266.271.449.632.552 1.083.069.301.085.606.05.915a3.471 3.471 0 0 1-.242.97 6.856 6.856 0 0 1-.549 1.108l-1.54 2.565-.083-.365 3.157-.719c.193-.044.351-.031.472.039.122.07.204.199.246.385.042.186.025.341-.052.464-.078.123-.213.206-.407.25l-3.952.9zm6.687-1.523c-.186.043-.345.026-.475-.05a.621.621 0 0 1-.248-.395c-.042-.186-.024-.337.055-.453.086-.118.222-.198.409-.24l1.202-.274-1.201-5.273.666-.152-1.361 1.316a.638.638 0 0 1-.364.184.613.613 0 0 1-.335-.081.699.699 0 0 1-.23-.264.58.58 0 0 1-.057-.349.643.643 0 0 1 .211-.364l1.279-1.229c.124-.119.251-.223.381-.313a.998.998 0 0 1 .375-.187.573.573 0 0 1 .405.043c.118.056.199.177.241.363l1.365 5.993 1.095-.249c.187-.043.34-.029.462.041.128.069.214.196.256.382.043.187.022.342-.063.467-.077.123-.209.206-.395.248l-3.673.836zm-2.525 46.168c-.234-.007-.406-.063-.513-.168-.1-.113-.147-.272-.141-.478a.722.722 0 0 1 .109-.361c.069-.115.168-.238.296-.366l2.277-2.297c.347-.343.598-.656.753-.938.154-.29.236-.581.244-.875.009-.367-.1-.649-.33-.846-.223-.197-.554-.302-.994-.314a2.692 2.692 0 0 0-.752.09 2.62 2.62 0 0 0-.769.332.55.55 0 0 1-.378.1.543.543 0 0 1-.293-.151.623.623 0 0 1-.157-.302.64.64 0 0 1 .02-.352.645.645 0 0 1 .273-.312 3.685 3.685 0 0 1 1.07-.456c.4-.099.798-.144 1.194-.133.558.015 1.025.112 1.402.291.378.18.661.433.85.762.19.328.278.723.266 1.186a2.718 2.718 0 0 1-.179.898 3.507 3.507 0 0 1-.475.88 6.964 6.964 0 0 1-.808.937l-2.128 2.102.01-.374 3.237.087c.198.006.347.057.447.156.101.098.148.242.143.433-.005.191-.061.336-.166.436-.106.1-.257.148-.456.142l-4.052-.109zm8.284.334a5.234 5.234 0 0 1-1.229-.188 3.537 3.537 0 0 1-1.099-.492.74.74 0 0 1-.289-.338.605.605 0 0 1-.034-.354.622.622 0 0 1 .173-.293.555.555 0 0 1 .323-.134.747.747 0 0 1 .427.11c.296.17.583.295.86.376a3.7 3.7 0 0 0 .856.123c.323.008.596-.028.819-.111a.998.998 0 0 0 .506-.383c.122-.173.186-.384.193-.633.01-.367-.107-.642-.352-.825-.237-.19-.591-.292-1.061-.304l-.704-.019c-.206-.006-.362-.062-.47-.167-.1-.106-.147-.25-.142-.434.005-.184.06-.325.166-.425.112-.1.272-.147.477-.142l.573.016c.279.007.518-.03.719-.113.201-.09.358-.218.473-.384.115-.166.175-.37.182-.612.009-.338-.098-.598-.321-.78-.215-.182-.536-.279-.961-.29a2.875 2.875 0 0 0-.774.078c-.236.052-.5.159-.791.32a.598.598 0 0 1-.388.089.493.493 0 0 1-.293-.151.585.585 0 0 1-.126-.643.635.635 0 0 1 .284-.312 3.65 3.65 0 0 1 1.058-.434c.385-.1.779-.144 1.183-.133.536.014.992.111 1.369.29.378.172.661.415.851.728.198.307.29.677.279 1.11a2.034 2.034 0 0 1-.199.843 1.837 1.837 0 0 1-.513.625 1.898 1.898 0 0 1-.781.354l.004-.132c.526.102.931.333 1.215.694.284.352.419.789.405 1.311a2.082 2.082 0 0 1-.373 1.18 2.203 2.203 0 0 1-.99.755c-.423.165-.925.24-1.505.224zm-7.232 59.515c-.235-.013-.404-.074-.509-.183-.096-.116-.139-.276-.127-.481a.73.73 0 0 1 .119-.358 1.96 1.96 0 0 1 .307-.358l2.341-2.23c.357-.334.616-.639.779-.917.163-.285.252-.574.269-.867.02-.367-.082-.652-.306-.856-.216-.203-.545-.317-.985-.341-.249-.014-.5.009-.754.068a2.595 2.595 0 0 0-.778.31.556.556 0 0 1-.38.089.545.545 0 0 1-.289-.159.627.627 0 0 1-.148-.307.638.638 0 0 1 .03-.351.641.641 0 0 1 .282-.304 3.648 3.648 0 0 1 1.083-.425 4.422 4.422 0 0 1 1.196-.099c.558.031 1.022.141 1.394.331.372.19.648.451.828.785.18.334.257.731.231 1.193a2.717 2.717 0 0 1-.204.894 3.492 3.492 0 0 1-.5.865c-.215.29-.493.594-.834.914l-2.188 2.04.021-.374 3.234.18c.198.011.345.067.443.168.097.101.14.247.13.438-.011.19-.07.334-.179.431-.108.097-.261.14-.459.129l-4.047-.225zm8.49.582a4.793 4.793 0 0 1-1.179-.22 3.859 3.859 0 0 1-1.084-.534.712.712 0 0 1-.269-.324.7.7 0 0 1-.013-.365.628.628 0 0 1 .182-.299.52.52 0 0 1 .317-.137.686.686 0 0 1 .401.122c.263.169.531.302.805.398.274.096.569.153.884.17.308.017.575-.023.801-.121.226-.097.404-.242.532-.433.128-.192.2-.42.214-.684.023-.41-.083-.747-.318-1.01-.235-.271-.569-.418-1.002-.442a1.977 1.977 0 0 0-.688.083 1.865 1.865 0 0 0-.671.36c-.07.055-.157.109-.263.162a.73.73 0 0 1-.334.059c-.183-.011-.32-.066-.41-.167a.537.537 0 0 1-.121-.404l.2-3.596c.011-.198.07-.345.179-.442.116-.104.273-.15.471-.139l3.618.201c.198.011.346.07.442.179.105.101.152.247.142.438a.566.566 0 0 1-.189.42c-.109.097-.262.14-.46.129l-2.859-.159-.137 2.463-.363-.02c.205-.246.469-.43.792-.552a2.524 2.524 0 0 1 1.045-.151c.492.027.911.157 1.258.39a2.1 2.1 0 0 1 .799.915c.185.378.264.813.236 1.304-.028.506-.166.947-.415 1.323a2.386 2.386 0 0 1-1.029.847c-.43.19-.934.268-1.514.236zm-8.61 65.656c-.235-.007-.406-.064-.513-.17-.099-.113-.146-.272-.14-.478a.727.727 0 0 1 .11-.36c.069-.116.169-.238.297-.366l2.283-2.291c.348-.342.6-.654.755-.936.155-.289.238-.581.246-.874.011-.367-.098-.65-.327-.847-.222-.198-.553-.303-.994-.316-.249-.008-.5.022-.752.088a2.597 2.597 0 0 0-.77.329.54.54 0 0 1-.377.099.53.53 0 0 1-.293-.151.641.641 0 0 1-.135-.655.642.642 0 0 1 .273-.311 3.626 3.626 0 0 1 1.072-.453 4.386 4.386 0 0 1 1.194-.13c.557.016 1.025.115 1.401.295.377.18.66.434.848.763.189.329.276.725.263 1.187a2.72 2.72 0 0 1-.181.898 3.535 3.535 0 0 1-.478.879 6.91 6.91 0 0 1-.81.934l-2.134 2.097.011-.374 3.237.096c.198.005.347.058.447.156.1.099.147.243.142.434-.006.191-.062.336-.167.436-.106.1-.258.146-.456.141l-4.052-.12zm7.028.296a.687.687 0 0 1-.414-.134.48.48 0 0 1-.189-.325c-.018-.14.02-.293.113-.459l3.51-6.155-.015.484-3.567-.106c-.198-.005-.351-.061-.458-.167-.099-.106-.146-.251-.141-.434.006-.191.061-.336.167-.436.113-.1.269-.146.467-.141l4.261.127a.736.736 0 0 1 .48.168c.122.106.18.255.174.446a1.284 1.284 0 0 1-.079.427c-.047.117-.11.243-.187.381l-3.304 5.885a.795.795 0 0 1-.33.343.942.942 0 0 1-.488.096zm-8.703 72.443c-.235-.016-.404-.078-.507-.188-.095-.117-.136-.278-.123-.483a.74.74 0 0 1 .123-.356c.074-.113.177-.231.31-.355l2.364-2.207c.36-.33.623-.633.788-.909.166-.283.258-.571.278-.865.024-.366-.075-.652-.297-.858-.215-.205-.542-.323-.982-.351-.249-.017-.5.004-.754.06-.254.05-.514.151-.782.302a.55.55 0 0 1-.381.086.536.536 0 0 1-.287-.163.618.618 0 0 1-.145-.307.63.63 0 0 1 .034-.351.647.647 0 0 1 .284-.302 3.702 3.702 0 0 1 1.087-.414 4.427 4.427 0 0 1 1.198-.087c.557.037 1.02.152 1.39.345.37.194.644.458.82.794.177.335.25.734.22 1.195-.02.308-.091.605-.213.891a3.533 3.533 0 0 1-.509.861 7.024 7.024 0 0 1-.843.905l-2.208 2.019.024-.374 3.232.212c.198.013.345.071.441.173.096.102.138.248.126.438-.013.191-.074.334-.183.43-.109.096-.263.137-.461.124l-4.044-.265zm7.814.623a3.629 3.629 0 0 1-.969-.207 3.529 3.529 0 0 1-.916-.513.517.517 0 0 1-.212-.301.671.671 0 0 1 .001-.342.677.677 0 0 1 .173-.287.474.474 0 0 1 .307-.134.562.562 0 0 1 .379.113 2.54 2.54 0 0 0 1.337.485c.425.028.79-.047 1.096-.226.306-.178.546-.461.718-.847.18-.393.29-.882.328-1.468l.054-.825.132.009a2.154 2.154 0 0 1-.425.932 1.924 1.924 0 0 1-.767.579c-.302.12-.633.168-.992.145a2.255 2.255 0 0 1-1.166-.397 2.25 2.25 0 0 1-.755-.932 2.759 2.759 0 0 1-.213-1.306c.034-.505.169-.945.407-1.32.245-.374.57-.658.972-.852a2.597 2.597 0 0 1 1.353-.254c.644.043 1.18.229 1.608.559.427.329.739.791.935 1.386.197.586.269 1.287.216 2.1-.044.659-.159 1.241-.347 1.743a3.6 3.6 0 0 1-.733 1.244 2.781 2.781 0 0 1-1.107.733 3.406 3.406 0 0 1-1.414.183zm.67-3.985c.264.017.498-.026.704-.13.213-.112.382-.27.506-.475.124-.213.195-.458.213-.737a1.607 1.607 0 0 0-.115-.758 1.187 1.187 0 0 0-.44-.525 1.34 1.34 0 0 0-.681-.222 1.33 1.33 0 0 0-.704.131 1.274 1.274 0 0 0-.505.463 1.602 1.602 0 0 0-.214.737c-.019.278.02.531.115.758.104.22.25.399.44.537.19.13.417.204.681.221zm-7.76 57.864a5.264 5.264 0 0 1-1.222-.226 3.544 3.544 0 0 1-1.084-.528.733.733 0 0 1-.277-.347.607.607 0 0 1-.024-.354.621.621 0 0 1 .183-.287.56.56 0 0 1 .327-.125.746.746 0 0 1 .423.125c.291.179.574.313.848.403.275.082.559.132.852.149.322.019.596-.009.821-.084a.997.997 0 0 0 .518-.367c.128-.169.199-.378.214-.627.021-.367-.087-.645-.326-.836-.231-.197-.581-.31-1.05-.338l-.704-.041c-.205-.012-.36-.073-.464-.182-.096-.108-.139-.254-.129-.438.011-.183.071-.323.18-.419.116-.097.276-.139.481-.126l.572.033c.279.017.52-.013.723-.09.203-.083.365-.206.485-.368s.187-.364.201-.606c.02-.338-.079-.601-.296-.79-.209-.189-.526-.296-.952-.321a2.904 2.904 0 0 0-.775.054 3.018 3.018 0 0 0-.801.295.604.604 0 0 1-.391.076.495.495 0 0 1-.288-.161.622.622 0 0 1-.148-.295.578.578 0 0 1 .043-.351.626.626 0 0 1 .293-.302 3.634 3.634 0 0 1 1.072-.401 4.24 4.24 0 0 1 1.186-.095c.535.031.989.142 1.36.333.371.184.647.436.827.755.188.313.269.685.243 1.118a2 2 0 0 1-.226.836 1.831 1.831 0 0 1-.532.609 1.89 1.89 0 0 1-.792.328l.008-.132c.523.119.92.364 1.193.733.273.361.394.803.363 1.323-.027.455-.163.844-.411 1.168a2.194 2.194 0 0 1-1.013.723c-.428.152-.932.21-1.511.176zm5.17.194c-.191-.011-.338-.071-.442-.18a.62.62 0 0 1-.128-.449c.011-.191.071-.331.179-.42.116-.089.269-.128.46-.116l1.231.072.318-5.399.682.04-1.674.884a.642.642 0 0 1-.402.075.607.607 0 0 1-.299-.172.706.706 0 0 1-.147-.317.585.585 0 0 1 .043-.351.648.648 0 0 1 .304-.291l1.571-.823c.152-.079.303-.144.453-.194.151-.057.288-.082.413-.075.154.009.279.06.377.154.098.087.141.226.13.416l-.361 6.136 1.121.066c.191.011.335.067.432.169.104.102.15.248.139.438-.011.191-.075.334-.191.43-.108.097-.258.14-.448.128l-3.761-.221zm-7.387 48.813a5.237 5.237 0 0 1-1.182-.385 3.543 3.543 0 0 1-1.005-.664.747.747 0 0 1-.23-.381.605.605 0 0 1 .023-.354.63.63 0 0 1 .219-.261.556.556 0 0 1 .341-.081.75.75 0 0 1 .403.179c.265.215.527.386.788.51.261.118.536.205.825.26a2.2 2.2 0 0 0 .825.024c.233-.045.42-.143.562-.295a1.13 1.13 0 0 0 .293-.594c.07-.361-.002-.651-.213-.872-.204-.226-.536-.383-.998-.472l-.692-.133c-.202-.039-.347-.119-.436-.241-.081-.12-.105-.271-.07-.451.035-.18.112-.311.233-.393.127-.08.292-.1.494-.062l.562.109c.274.052.517.054.728.005.213-.056.389-.157.53-.302.14-.145.233-.336.278-.574.064-.332.001-.606-.189-.822-.183-.215-.484-.362-.902-.443a2.94 2.94 0 0 0-.776-.048 3.007 3.007 0 0 0-.833.188.599.599 0 0 1-.397.024.497.497 0 0 1-.265-.197.626.626 0 0 1-.108-.312.581.581 0 0 1 .088-.342.632.632 0 0 1 .331-.262 3.622 3.622 0 0 1 1.115-.256 4.246 4.246 0 0 1 1.189.06c.526.101.961.271 1.304.509.344.231.585.516.721.857.145.334.177.714.095 1.14-.059.302-.17.569-.334.799a1.832 1.832 0 0 1-.607.534 1.885 1.885 0 0 1-.828.222l.025-.13c.503.186.865.48 1.087.882.223.394.285.848.187 1.36-.086.447-.273.815-.56 1.103a2.197 2.197 0 0 1-1.1.585c-.444.094-.951.086-1.521-.023zm6.486 1.248a5.279 5.279 0 0 1-1.183-.385 3.543 3.543 0 0 1-1.005-.664.745.745 0 0 1-.229-.381.609.609 0 0 1 .023-.355.632.632 0 0 1 .218-.26.557.557 0 0 1 .341-.081c.133.011.267.07.403.179.265.215.528.386.788.51.262.118.537.205.825.26a2.2 2.2 0 0 0 .825.024c.233-.045.421-.143.562-.295.149-.151.247-.349.294-.595.069-.36-.002-.65-.214-.871-.203-.226-.536-.383-.997-.472l-.692-.133c-.202-.039-.348-.119-.436-.241-.082-.12-.105-.271-.071-.451.035-.18.113-.311.233-.393.128-.08.292-.101.494-.062l.563.109c.274.052.516.054.728.005a1.11 1.11 0 0 0 .529-.302c.14-.145.233-.336.279-.574.064-.332 0-.606-.19-.822-.183-.215-.483-.362-.902-.443a2.937 2.937 0 0 0-.776-.048 3.032 3.032 0 0 0-.832.187.594.594 0 0 1-.397.025.494.494 0 0 1-.265-.197.626.626 0 0 1-.108-.312.574.574 0 0 1 .088-.342.628.628 0 0 1 .331-.262 3.61 3.61 0 0 1 1.114-.256 4.21 4.21 0 0 1 1.189.06c.526.101.961.271 1.304.509.345.231.585.516.721.857.145.334.177.714.095 1.139a2.01 2.01 0 0 1-.333.8 1.835 1.835 0 0 1-.608.534 1.911 1.911 0 0 1-.827.222l.025-.13c.502.186.864.48 1.086.882.223.394.286.848.187 1.36a2.08 2.08 0 0 1-.56 1.103 2.194 2.194 0 0 1-1.099.585c-.445.094-.952.086-1.521-.023zm-30.649 67.171a5.242 5.242 0 0 1-1.096-.587 3.53 3.53 0 0 1-.872-.831.738.738 0 0 1-.159-.415.6.6 0 0 1 .086-.345.616.616 0 0 1 .261-.218.553.553 0 0 1 .349-.019c.129.034.25.116.365.247.223.259.452.473.686.641.237.162.492.296.766.401.302.116.571.173.808.17a.997.997 0 0 0 .605-.192c.173-.123.305-.3.394-.533.132-.343.113-.641-.057-.895-.16-.259-.459-.472-.898-.641l-.658-.253c-.192-.074-.32-.179-.386-.314-.059-.133-.056-.285.01-.457.066-.171.165-.286.298-.345.14-.056.306-.048.498.026l.534.206c.261.1.499.145.716.134.219-.018.411-.086.574-.204a1.11 1.11 0 0 0 .376-.517c.121-.315.107-.596-.042-.842-.142-.243-.412-.442-.81-.595a2.919 2.919 0 0 0-.755-.184 2.99 2.99 0 0 0-.852.038.602.602 0 0 1-.396-.046.494.494 0 0 1-.226-.241.63.63 0 0 1-.051-.326.58.58 0 0 1 .147-.321.636.636 0 0 1 .372-.2 3.621 3.621 0 0 1 1.142-.055c.396.034.783.124 1.16.269.5.192.898.436 1.194.731.298.287.484.611.558.97.084.355.048.734-.107 1.139-.111.287-.267.53-.469.728-.2.191-.43.33-.692.418a1.901 1.901 0 0 1-.854.073l.047-.124c.462.272.766.626.914 1.06.15.428.132.885-.056 1.371-.163.425-.412.755-.746.988-.333.234-.728.361-1.185.382-.454.014-.952-.083-1.493-.292zm6.369 2.452a4.823 4.823 0 0 1-1.054-.572 3.862 3.862 0 0 1-.869-.841.72.72 0 0 1-.156-.391.695.695 0 0 1 .1-.351.62.62 0 0 1 .265-.228.517.517 0 0 1 .343-.034.692.692 0 0 1 .345.239c.198.242.413.45.644.626.231.176.494.32.789.433.288.111.554.155.8.131.245-.024.458-.107.639-.25a1.34 1.34 0 0 0 .413-.584c.148-.384.15-.737.007-1.06-.141-.329-.413-.572-.818-.727a1.96 1.96 0 0 0-.681-.133 1.878 1.878 0 0 0-.749.137 1.5 1.5 0 0 1-.299.074.73.73 0 0 1-.336-.047c-.172-.066-.285-.161-.34-.284a.544.544 0 0 1 .009-.422l1.294-3.361c.071-.185.173-.307.306-.366.142-.063.306-.059.491.012l3.382 1.301c.185.071.307.174.366.306.069.129.069.282 0 .461-.066.171-.169.285-.308.341-.133.059-.292.053-.477-.018l-2.673-1.029-.886 2.303-.339-.13c.27-.172.578-.266.923-.283a2.54 2.54 0 0 1 1.041.177c.459.177.818.429 1.078.757.269.324.428.696.479 1.117.06.416.001.854-.175 1.313-.182.473-.449.85-.802 1.132a2.38 2.38 0 0 1-1.239.49c-.467.049-.971-.031-1.513-.239zm-53.544 69a5.252 5.252 0 0 1-1.131.514 3.533 3.533 0 0 1-1.19.189.75.75 0 0 1-.427-.126.61.61 0 0 1-.222-.277.637.637 0 0 1-.015-.34.557.557 0 0 1 .197-.289.75.75 0 0 1 .418-.141c.341-.02.65-.072.926-.155.273-.09.534-.212.784-.366.275-.169.484-.349.625-.539a1 1 0 0 0 .215-.597 1.13 1.13 0 0 0-.184-.637c-.193-.313-.441-.479-.746-.498-.303-.03-.654.078-1.055.325l-.6.369c-.176.107-.337.146-.485.116-.141-.033-.26-.129-.356-.285-.096-.156-.127-.305-.093-.447.04-.145.147-.271.322-.379l.488-.3c.238-.146.418-.309.541-.487.119-.186.181-.379.186-.58a1.097 1.097 0 0 0-.182-.612c-.177-.288-.408-.448-.694-.479-.28-.034-.602.06-.965.283a2.932 2.932 0 0 0-.605.488 3.056 3.056 0 0 0-.487.7.596.596 0 0 1-.277.287.49.49 0 0 1-.328.033.586.586 0 0 1-.456-.469.628.628 0 0 1 .067-.416 3.62 3.62 0 0 1 .649-.942c.268-.294.574-.547.918-.758.456-.281.892-.449 1.305-.505.41-.063.78-.014 1.111.145.333.149.613.407.839.777.162.262.26.534.294.814.031.275.002.543-.087.804a1.9 1.9 0 0 1-.461.723l-.069-.113c.496-.201.962-.229 1.397-.083.431.141.783.433 1.056.877.238.388.349.785.332 1.192a2.202 2.202 0 0 1-.417 1.174c-.264.369-.643.706-1.138 1.01zm5.815-3.574a4.812 4.812 0 0 1-1.094.492 3.87 3.87 0 0 1-1.196.179.716.716 0 0 1-.406-.113.691.691 0 0 1-.218-.293.636.636 0 0 1-.021-.349.521.521 0 0 1 .182-.293.682.682 0 0 1 .399-.129c.312-.01.609-.055.889-.132a3.16 3.16 0 0 0 .823-.364 1.75 1.75 0 0 0 .589-.556c.13-.209.193-.429.19-.659a1.334 1.334 0 0 0-.214-.684c-.215-.35-.494-.566-.838-.648-.347-.088-.705-.019-1.074.208a1.97 1.97 0 0 0-.519.461 1.875 1.875 0 0 0-.346.678 1.448 1.448 0 0 1-.123.282.725.725 0 0 1-.241.239c-.157.096-.301.129-.432.097a.535.535 0 0 1-.329-.262l-1.886-3.069c-.104-.169-.139-.324-.106-.466.037-.151.139-.279.308-.382l3.087-1.898c.169-.104.324-.139.466-.105.144.024.266.117.366.279.096.157.124.308.084.453-.034.141-.135.264-.304.368l-2.44 1.499 1.292 2.102-.31.191c.028-.319.14-.621.336-.905.196-.284.454-.524.773-.721.419-.257.837-.389 1.256-.396a2.1 2.1 0 0 1 1.178.297c.367.205.68.517.937.936.266.432.403.873.413 1.324.006.444-.115.872-.362 1.283-.245.4-.615.752-1.109 1.056zm-73.066 47.854a5.233 5.233 0 0 1-1.197.333 3.53 3.53 0 0 1-1.205.002.73.73 0 0 1-.402-.19.6.6 0 0 1-.177-.308.63.63 0 0 1 .038-.338.548.548 0 0 1 .24-.255.743.743 0 0 1 .434-.075c.34.033.653.03.939-.01.283-.047.56-.126.831-.24.298-.124.532-.27.701-.436a.997.997 0 0 0 .304-.557 1.12 1.12 0 0 0-.083-.657c-.142-.339-.362-.542-.66-.608-.295-.076-.659-.023-1.092.158l-.651.272c-.189.079-.355.092-.496.04-.135-.055-.237-.167-.308-.337-.071-.169-.079-.321-.023-.456.062-.137.188-.245.377-.325l.529-.22c.257-.108.46-.241.609-.398.146-.165.238-.346.274-.545a1.105 1.105 0 0 0-.085-.633c-.13-.311-.334-.504-.612-.579-.272-.078-.604-.035-.997.13-.25.104-.475.234-.673.388a3.032 3.032 0 0 0-.59.617.601.601 0 0 1-.317.24.497.497 0 0 1-.33-.017.636.636 0 0 1-.263-.201.578.578 0 0 1-.115-.334.63.63 0 0 1 .131-.401c.212-.311.474-.588.787-.83.31-.249.651-.451 1.023-.607.495-.206.951-.305 1.368-.297.415.002.773.107 1.075.315.306.199.542.498.709.897.119.285.174.568.165.851a1.831 1.831 0 0 1-.211.78 1.902 1.902 0 0 1-.567.643l-.051-.122c.522-.122.986-.078 1.393.134.404.206.707.549.908 1.03.175.42.223.83.143 1.229-.08.399-.277.765-.593 1.095-.318.324-.745.598-1.28.822zm4.927-2.083a.691.691 0 0 1-.433.05.479.479 0 0 1-.306-.219c-.074-.12-.103-.275-.087-.465l.657-7.055.187.447-3.293 1.376c-.183.077-.345.089-.486.037-.135-.056-.238-.168-.308-.337-.074-.176-.083-.332-.028-.466.062-.138.185-.245.367-.321l3.933-1.644a.739.739 0 0 1 .507-.044c.155.047.269.158.343.334.062.149.097.29.104.422.005.125 0 .267-.014.424l-.58 6.724a.798.798 0 0 1-.158.449.952.952 0 0 1-.405.288zm-97.801 17.809a5.241 5.241 0 0 1-1.238-.115 3.578 3.578 0 0 1-1.127-.428.744.744 0 0 1-.307-.321.605.605 0 0 1-.055-.351.633.633 0 0 1 .156-.303.559.559 0 0 1 .315-.153.755.755 0 0 1 .432.086c.306.152.6.261.881.325.281.058.568.082.862.073.322-.01.593-.063.81-.158a.997.997 0 0 0 .483-.411c.112-.18.164-.395.157-.644-.012-.367-.145-.635-.4-.803-.248-.176-.607-.257-1.077-.243l-.704.022c-.206.007-.365-.04-.478-.139-.106-.1-.162-.241-.168-.425-.005-.183.041-.328.141-.434.107-.106.263-.162.469-.169l.572-.017a1.77 1.77 0 0 0 .712-.155c.195-.101.345-.238.45-.41.105-.173.153-.38.146-.622-.011-.338-.133-.591-.366-.76-.225-.169-.551-.247-.977-.234a2.882 2.882 0 0 0-.767.123c-.233.066-.49.188-.771.365a.596.596 0 0 1-.382.111.49.49 0 0 1-.302-.134.625.625 0 0 1-.174-.281.584.584 0 0 1 .011-.353.631.631 0 0 1 .265-.327 3.595 3.595 0 0 1 1.032-.495c.378-.122.769-.19 1.173-.202.535-.017.997.053 1.384.21.386.15.684.376.891.678.215.295.329.658.343 1.091.009.309-.041.593-.15.854-.11.253-.268.471-.476.653a1.89 1.89 0 0 1-.759.399l-.004-.132c.531.071.949.279 1.254.622.304.336.464.764.48 1.285.015.455-.087.855-.304 1.2s-.532.615-.944.812c-.413.189-.91.292-1.489.31zm5.345-.188a.68.68 0 0 1-.422-.108.477.477 0 0 1-.208-.313c-.027-.139.002-.294.085-.465l3.13-6.357.015.484-3.567.111c-.198.006-.354-.04-.467-.139-.106-.1-.162-.242-.167-.425-.006-.191.04-.339.14-.445.107-.106.259-.163.458-.169l4.26-.132a.737.737 0 0 1 .489.139c.128.099.195.244.201.435.005.161-.012.305-.052.431a3.554 3.554 0 0 1-.165.391l-2.941 6.075a.783.783 0 0 1-.308.362.947.947 0 0 1-.481.125zm-88.19-13.749a5.307 5.307 0 0 1-1.127-.525 3.556 3.556 0 0 1-.917-.782.737.737 0 0 1-.182-.405.614.614 0 0 1 .066-.349.625.625 0 0 1 .249-.233.556.556 0 0 1 .348-.038c.13.026.256.102.378.226.237.246.477.447.72.602.246.149.508.268.788.358.307.099.58.14.816.124.237-.017.435-.092.594-.226.165-.131.287-.316.363-.554.113-.349.077-.646-.107-.89-.174-.249-.485-.446-.932-.59l-.671-.216c-.196-.063-.33-.16-.404-.292-.066-.129-.071-.281-.015-.456.056-.175.149-.295.279-.362.136-.064.302-.064.498-.001l.545.175c.265.086.506.117.722.094.218-.03.405-.109.562-.236.156-.127.272-.306.346-.536.104-.322.074-.601-.089-.839-.155-.235-.436-.418-.841-.549a2.964 2.964 0 0 0-.765-.142 3.026 3.026 0 0 0-.849.086.6.6 0 0 1-.397-.024.495.495 0 0 1-.239-.228.624.624 0 0 1-.07-.323.582.582 0 0 1 .129-.329.63.63 0 0 1 .36-.219 3.641 3.641 0 0 1 1.138-.12c.397.012.788.08 1.173.204.51.164.921.385 1.232.663.314.271.519.584.613.938.103.349.089.73-.044 1.143a2.016 2.016 0 0 1-.428.753 1.818 1.818 0 0 1-.668.456 1.887 1.887 0 0 1-.848.121l.04-.126c.477.246.8.581.972 1.007.174.418.181.876.021 1.372a2.073 2.073 0 0 1-.69 1.028 2.19 2.19 0 0 1-1.162.447c-.452.04-.955-.03-1.507-.207zm5.857 1.885a3.569 3.569 0 0 1-.889-.436 3.532 3.532 0 0 1-.764-.721.514.514 0 0 1-.132-.343.68.68 0 0 1 .084-.332.68.68 0 0 1 .238-.236.471.471 0 0 1 .33-.055.558.558 0 0 1 .34.202c.193.216.385.386.576.509.192.124.393.219.603.287.405.13.778.146 1.118.048.341-.099.641-.315.903-.647.27-.337.496-.786.676-1.345l.253-.786.126.04a2.164 2.164 0 0 1-.64.801c-.265.2-.56.325-.885.375a2.257 2.257 0 0 1-.997-.101 2.253 2.253 0 0 1-1.034-.669 2.249 2.249 0 0 1-.506-1.088 2.754 2.754 0 0 1 .112-1.318c.155-.483.394-.876.716-1.181.329-.303.712-.5 1.15-.59.44-.098.898-.07 1.373.083.616.198 1.09.509 1.424.933.334.424.524.948.57 1.572.048.617-.053 1.314-.302 2.09-.203.629-.456 1.164-.761 1.606-.295.437-.633.78-1.013 1.028a2.786 2.786 0 0 1-1.253.441 3.389 3.389 0 0 1-1.416-.167zm1.62-3.702c.252.081.49.096.715.045a1.25 1.25 0 0 0 .606-.337c.172-.176.301-.397.387-.662.087-.273.111-.527.072-.764a1.19 1.19 0 0 0-.299-.617 1.34 1.34 0 0 0-.607-.38 1.334 1.334 0 0 0-.714-.045 1.28 1.28 0 0 0-.603.327 1.61 1.61 0 0 0-.387.662c-.085.266-.109.52-.072.764.047.238.145.447.296.627.152.173.354.299.606.38zm-81.833-41.531c-.17-.14-.266-.295-.288-.465-.016-.176.048-.352.192-.527l.547-.663-2.099-1.731c-.175-.145-.287-.299-.333-.461-.042-.158.003-.316.134-.475.075-.09.179-.171.313-.241a3.97 3.97 0 0 1 .614-.207l5.111-1.453a1.2 1.2 0 0 1 .487-.055.773.773 0 0 1 .409.18.66.66 0 0 1 .253.437c.026.165-.038.34-.192.527l-2.866 3.475.416.344c.164.135.253.275.267.42.024.144-.024.289-.146.437-.121.147-.257.225-.407.234-.14.009-.293-.055-.457-.19l-.416-.344-.547.663c-.145.176-.305.272-.481.289-.171.011-.341-.054-.511-.194zm1.194-2.556l2.187-2.651.246.204-4.43 1.285.238-.288 1.759 1.45zm1.773 4.889c-.147-.121-.231-.256-.25-.406a.616.616 0 0 1 .161-.438c.122-.147.252-.225.392-.233.146-.004.293.055.44.177l.952.785 3.441-4.172.527.434-1.873-.274a.635.635 0 0 1-.369-.176.614.614 0 0 1-.14-.315.705.705 0 0 1 .069-.343.582.582 0 0 1 .241-.258.647.647 0 0 1 .417-.056l1.755.262c.169.026.329.063.48.111a.984.984 0 0 1 .377.183.57.57 0 0 1 .213.347c.028.128-.019.265-.14.412l-3.911 4.742.867.715c.147.121.23.251.249.39.024.144-.025.29-.146.437-.122.147-.258.226-.408.235-.145.014-.291-.04-.438-.162l-2.906-2.397zm-55.757-70.647c-.121-.184-.166-.361-.137-.53.036-.172.15-.321.34-.446l.718-.471-1.493-2.275c-.124-.191-.185-.37-.182-.539.007-.163.097-.301.269-.414a1.02 1.02 0 0 1 .37-.138c.153-.021.37-.026.648-.016l5.312.124c.185.002.346.033.482.093s.248.157.337.292c.105.16.142.324.113.493-.024.165-.137.314-.34.447l-3.767 2.471.297.451c.116.178.16.338.13.481-.019.144-.108.269-.268.373-.16.105-.313.14-.46.104-.135-.034-.262-.139-.379-.317l-.296-.452-.718.472c-.19.124-.372.169-.545.133-.166-.04-.31-.152-.431-.336zm1.897-2.088l2.873-1.885.176.267-4.613-.083.313-.205 1.251 1.906zm.94 6.452a5.23 5.23 0 0 1-.548-1.116 3.544 3.544 0 0 1-.223-1.184c0-.175.037-.318.113-.429a.602.602 0 0 1 .27-.231.627.627 0 0 1 .34-.025c.116.03.214.093.295.189.085.102.135.24.153.413.03.341.09.648.182.921.098.27.227.527.388.773.178.27.364.473.558.609a.997.997 0 0 0 .604.197c.211.001.422-.066.63-.203.307-.202.466-.455.477-.76.02-.304-.099-.652-.356-1.045l-.387-.589c-.113-.172-.157-.332-.131-.481.03-.142.121-.264.275-.364.153-.101.301-.137.443-.107.147.036.276.139.39.311l.313.479c.153.234.321.409.504.526.188.114.383.17.585.17.201-.001.404-.068.606-.201.283-.185.435-.421.458-.708.026-.281-.078-.599-.311-.956a2.94 2.94 0 0 0-.506-.59 3 3 0 0 0-.714-.466.603.603 0 0 1-.295-.268.498.498 0 0 1-.043-.328.63.63 0 0 1 .149-.295.584.584 0 0 1 .306-.175.638.638 0 0 1 .418.055c.346.152.666.359.961.621.302.259.563.558.785.895.294.448.475.878.543 1.29.075.408.038.78-.112 1.115-.139.337-.39.624-.751.862a2.022 2.022 0 0 1-.806.318 1.848 1.848 0 0 1-.806-.064 1.896 1.896 0 0 1-.736-.44l.11-.072c.217.49.258.955.124 1.394-.127.435-.409.795-.845 1.081-.38.25-.774.372-1.182.367a2.2 2.2 0 0 1-1.185-.381c-.377-.253-.725-.623-1.043-1.108zM40.95 614.618c-.215.049-.397.03-.544-.056-.15-.094-.25-.252-.3-.474l-.191-.838-2.653.604c-.222.051-.411.045-.569-.017-.15-.064-.247-.196-.293-.396a1.008 1.008 0 0 1 0-.396c.034-.151.104-.355.21-.613l1.972-4.934a1.2 1.2 0 0 1 .255-.419.771.771 0 0 1 .392-.214.665.665 0 0 1 .5.067c.147.08.247.238.3.474l1.001 4.392.526-.119c.208-.048.373-.033.497.045.128.068.214.196.256.382.043.186.021.342-.063.466-.08.116-.223.198-.43.245l-.526.12.19.838c.05.221.03.407-.065.557-.095.142-.25.237-.465.286zm-1.294-2.506l-.764-3.351.312-.071-1.688 4.293-.084-.365 2.224-.506zm7.733 1.04c-.215.049-.396.03-.544-.057-.15-.094-.25-.252-.3-.474l-.19-.838-2.653.604c-.222.051-.412.045-.569-.017-.15-.064-.248-.196-.294-.396a1.004 1.004 0 0 1 0-.396c.034-.15.104-.355.211-.612l1.972-4.934a1.2 1.2 0 0 1 .255-.42.777.777 0 0 1 .392-.213.665.665 0 0 1 .5.066c.147.08.247.238.3.474l1 4.393.527-.12c.208-.047.373-.032.496.045.129.069.214.196.257.382.042.186.02.342-.064.467-.079.115-.222.197-.43.244l-.526.12.19.838c.051.222.03.408-.064.557-.096.142-.251.238-.466.287zm-1.294-2.507l-.763-3.351.311-.071-1.688 4.293-.083-.365 2.223-.506zm48.234 9.496c-.215.049-.397.03-.544-.057-.15-.094-.25-.252-.3-.474l-.191-.838-2.653.605c-.222.05-.411.044-.569-.018-.15-.063-.248-.196-.293-.396a.999.999 0 0 1 0-.395c.034-.151.104-.355.21-.613l1.972-4.934c.066-.173.151-.313.255-.42a.777.777 0 0 1 .392-.213.66.66 0 0 1 .5.067c.147.079.247.237.3.473l1.001 4.393.526-.12c.208-.047.373-.032.496.045.13.069.215.196.257.382.042.187.021.342-.063.467-.08.116-.223.197-.43.244l-.526.12.19.838c.05.222.03.408-.065.557-.096.142-.25.238-.465.287zm-1.294-2.507l-.764-3.351.312-.071-1.688 4.293-.084-.365 2.223-.506zm6.804 1.274c-.623.142-1.19.117-1.7-.075-.506-.202-.937-.555-1.293-1.062-.356-.506-.625-1.156-.806-1.951-.147-.645-.205-1.23-.174-1.757a3.745 3.745 0 0 1 .355-1.414c.201-.407.482-.746.842-1.016a3.479 3.479 0 0 1 1.314-.582c.315-.071.645-.094.99-.067.35.018.691.091 1.021.219a.519.519 0 0 1 .289.228c.062.107.092.22.089.341a.615.615 0 0 1-.084.325.495.495 0 0 1-.245.213.614.614 0 0 1-.398-.011 2.92 2.92 0 0 0-.756-.144 2.568 2.568 0 0 0-.664.061c-.415.095-.744.271-.986.53-.242.258-.395.598-.457 1.019-.055.419-.017.919.115 1.499l.184.805-.13.03a2.276 2.276 0 0 1 .142-1.016 1.84 1.84 0 0 1 .572-.762c.254-.209.556-.353.907-.433a2.223 2.223 0 0 1 1.231.047c.384.131.714.357.99.679.277.321.469.717.577 1.19.111.487.103.948-.024 1.384a2.374 2.374 0 0 1-.675 1.102c-.324.3-.732.506-1.226.618zm-.325-1.078a1.33 1.33 0 0 0 .637-.326 1.18 1.18 0 0 0 .352-.588 1.645 1.645 0 0 0-.005-.767 1.613 1.613 0 0 0-.328-.694 1.183 1.183 0 0 0-.572-.378 1.27 1.27 0 0 0-.718-.028c-.257.058-.47.171-.635.336a1.285 1.285 0 0 0-.351.589 1.61 1.61 0 0 0 .005.767c.062.272.171.503.327.693.162.182.353.308.572.378.22.071.458.077.716.018zm27.662 51.612c-.149-.163-.221-.33-.218-.502.008-.176.096-.341.264-.494l.636-.579-1.832-2.011c-.154-.168-.242-.336-.265-.504-.019-.162.048-.312.2-.45.087-.079.202-.144.344-.195.148-.045.36-.084.637-.118l5.266-.713c.183-.028.346-.023.49.015a.77.77 0 0 1 .379.236.67.67 0 0 1 .189.469c.002.166-.086.331-.265.494l-3.331 3.034.363.399c.144.157.212.308.205.454.004.145-.065.282-.206.411-.141.128-.287.187-.437.174-.14-.011-.281-.096-.425-.253l-.363-.399-.635.578c-.169.153-.341.226-.517.218-.171-.013-.331-.101-.479-.264zm1.545-2.361l2.54-2.314.216.236-4.568.645.276-.253 1.536 1.686zm2.092 6.387a4.843 4.843 0 0 1-.687-.983 3.858 3.858 0 0 1-.399-1.142.71.71 0 0 1 .035-.419.693.693 0 0 1 .247-.269.626.626 0 0 1 .339-.086.518.518 0 0 1 .322.124.682.682 0 0 1 .201.368c.069.305.167.588.295.849.129.26.299.507.512.741.207.228.426.386.656.475.23.089.457.11.683.063a1.34 1.34 0 0 0 .632-.337c.304-.277.464-.592.48-.944.022-.358-.113-.697-.404-1.017a1.99 1.99 0 0 0-.55-.424 1.875 1.875 0 0 0-.73-.213 1.446 1.446 0 0 1-.301-.069.717.717 0 0 1-.28-.192c-.123-.136-.182-.271-.176-.406a.539.539 0 0 1 .197-.373l2.663-2.425c.146-.134.292-.197.438-.19.155.007.3.084.433.231l2.44 2.679c.134.146.197.292.19.438.004.145-.065.282-.206.411a.559.559 0 0 1-.429.167c-.145-.007-.284-.083-.418-.23l-1.928-2.117-1.824 1.661-.245-.269c.318-.032.636.022.951.162.316.139.6.347.852.624.332.364.54.751.624 1.16.096.41.072.814-.072 1.213-.133.399-.381.764-.745 1.096-.375.341-.782.558-1.223.652a2.38 2.38 0 0 1-1.328-.117c-.439-.166-.854-.463-1.245-.892zm46.49 39.767c-.197-.099-.324-.229-.383-.39-.056-.168-.033-.353.07-.557l.385-.767-2.432-1.221c-.203-.102-.346-.227-.428-.375-.075-.144-.066-.309.026-.492a.985.985 0 0 1 .251-.305 3.97 3.97 0 0 1 .553-.339l4.658-2.555c.162-.092.316-.145.464-.162a.77.77 0 0 1 .438.085.66.66 0 0 1 .344.37c.062.154.039.34-.07.556l-2.02 4.027.482.242c.19.095.308.212.354.35.056.135.041.287-.045.458-.085.171-.201.277-.345.32-.135.039-.297.011-.488-.085l-.482-.242-.385.768c-.103.203-.237.333-.405.388-.164.049-.345.025-.542-.074zm.596-2.758l1.541-3.071.286.143-4.033 2.24.168-.335 2.038 1.023zm2.59 4.258c-.21-.105-.341-.229-.393-.37-.043-.145-.018-.309.074-.492a.735.735 0 0 1 .252-.281c.112-.075.253-.144.424-.206l3.036-1.114c.46-.163.82-.34 1.08-.53.263-.197.46-.426.592-.689.164-.328.185-.63.06-.906-.118-.273-.373-.508-.767-.706a2.63 2.63 0 0 0-.719-.237 2.593 2.593 0 0 0-.837-.026.556.556 0 0 1-.385-.07.535.535 0 0 1-.201-.261.62.62 0 0 1-.014-.34.635.635 0 0 1 .168-.31.642.642 0 0 1 .379-.167 3.686 3.686 0 0 1 1.163.041c.403.08.783.208 1.137.386.499.251.881.537 1.146.859.266.322.415.672.447 1.05.032.378-.055.773-.263 1.187a2.72 2.72 0 0 1-.543.738c-.217.22-.485.418-.804.595a6.93 6.93 0 0 1-1.128.505l-2.82 1.001.168-.335 2.895 1.453c.177.089.29.199.339.33.049.132.031.283-.055.453-.085.171-.197.279-.335.325-.138.046-.296.024-.473-.065l-3.623-1.818zm50.07 17.441c-.218-.027-.382-.107-.492-.239-.108-.139-.148-.322-.12-.548l.106-.852-2.7-.336c-.226-.028-.402-.098-.529-.21-.12-.111-.167-.268-.141-.472a.982.982 0 0 1 .135-.372c.083-.13.218-.299.407-.505l3.534-3.967c.121-.14.248-.243.382-.307a.779.779 0 0 1 .441-.068c.19.024.339.102.449.234.11.124.15.307.12.548l-.555 4.47.535.067c.212.026.362.096.451.211.098.108.135.257.111.447-.023.189-.096.328-.218.417-.114.082-.276.11-.488.083l-.535-.066-.106.852c-.028.226-.112.393-.251.502-.139.101-.317.138-.536.111zm-.362-2.798l.423-3.41.317.039-3.049 3.462.046-.372 2.263.281zm5.678 3.481c-.911-.113-1.564-.542-1.96-1.287-.395-.752-.513-1.766-.354-3.041.107-.86.302-1.568.586-2.125.292-.563.664-.968 1.116-1.215.46-.246.993-.332 1.597-.257.919.114 1.573.536 1.963 1.265.398.731.517 1.737.357 3.019-.106.853-.305 1.564-.598 2.135-.285.564-.654.977-1.108 1.238-.454.255-.987.344-1.599.268zm.143-1.148c.496.062.888-.122 1.179-.553.297-.429.507-1.132.628-2.108.121-.977.089-1.698-.097-2.165-.178-.474-.515-.741-1.01-.803-.489-.061-.881.116-1.176.531-.295.407-.503 1.099-.625 2.076-.121.976-.09 1.709.094 2.198.183.489.519.763 1.007.824zm75.236-3.797a5.218 5.218 0 0 1-1.24.081 3.566 3.566 0 0 1-1.18-.244.747.747 0 0 1-.354-.269.603.603 0 0 1-.11-.338.63.63 0 0 1 .106-.323.555.555 0 0 1 .287-.201.744.744 0 0 1 .44.017c.326.101.633.162.921.182.287.012.574-.009.863-.065a2.2 2.2 0 0 0 .775-.283.999.999 0 0 0 .412-.483c.083-.195.1-.415.053-.661-.069-.36-.243-.603-.521-.73-.273-.134-.64-.157-1.101-.069l-.693.133c-.202.039-.366.018-.494-.062-.12-.082-.198-.213-.232-.393-.035-.18-.011-.33.07-.451.089-.121.234-.202.436-.24l.563-.108c.274-.053.5-.141.678-.265.177-.131.303-.29.38-.477.076-.186.091-.399.046-.637-.064-.331-.224-.562-.481-.692-.25-.132-.584-.158-1.002-.077a2.92 2.92 0 0 0-.738.242 3 3 0 0 0-.704.483.6.6 0 0 1-.36.17.495.495 0 0 1-.319-.085.615.615 0 0 1-.216-.25.58.58 0 0 1-.045-.35.636.636 0 0 1 .21-.366c.272-.261.585-.478.941-.651.354-.18.729-.308 1.126-.384.526-.102.993-.105 1.4-.011.405.087.735.263.987.528.259.257.429.598.511 1.024.058.303.053.591-.013.866a1.843 1.843 0 0 1-.367.721 1.897 1.897 0 0 1-.687.513l-.024-.13c.535-.013.981.126 1.336.417.353.283.579.681.677 1.193.086.447.049.858-.111 1.233-.16.374-.428.691-.804.95-.378.252-.852.433-1.422.542zm6.638-1.273c-.902.173-1.655-.034-2.261-.621-.608-.594-1.033-1.521-1.275-2.783-.163-.851-.195-1.585-.097-2.202.104-.626.334-1.126.688-1.501.361-.376.841-.621 1.44-.736.909-.174 1.661.025 2.257.599.603.572 1.027 1.493 1.27 2.762.162.844.192 1.582.089 2.215-.097.624-.322 1.131-.673 1.52-.353.381-.832.63-1.438.747zm-.218-1.136c.49-.094.807-.391.951-.889.151-.5.133-1.233-.052-2.2-.186-.966-.439-1.643-.76-2.03-.315-.395-.718-.546-1.208-.452-.483.093-.802.382-.955.867-.155.479-.14 1.201.046 2.167.185.967.44 1.654.765 2.063.326.409.73.567 1.213.474zm44.88-15.166a5.235 5.235 0 0 1-1.167.43 3.541 3.541 0 0 1-1.2.101.738.738 0 0 1-.416-.157.614.614 0 0 1-.202-.292.635.635 0 0 1 .01-.341.56.56 0 0 1 .218-.274.754.754 0 0 1 .427-.109c.342.005.653-.024.935-.087a3.72 3.72 0 0 0 .808-.307c.287-.149.508-.313.663-.493a.993.993 0 0 0 .258-.58 1.118 1.118 0 0 0-.137-.648c-.169-.326-.405-.51-.707-.551-.3-.052-.659.03-1.076.246l-.626.325c-.182.094-.346.121-.491.08-.139-.044-.25-.147-.335-.31-.084-.163-.104-.314-.06-.452.05-.142.167-.261.349-.355l.509-.264c.248-.128.439-.277.575-.446.132-.176.208-.364.228-.565a1.101 1.101 0 0 0-.137-.624c-.155-.3-.374-.476-.657-.527-.277-.056-.605.015-.983.211a2.934 2.934 0 0 0-.639.442c-.181.16-.361.381-.537.663a.591.591 0 0 1-.297.265.493.493 0 0 1-.33.01.626.626 0 0 1-.278-.178.585.585 0 0 1-.143-.323.632.632 0 0 1 .098-.411 3.65 3.65 0 0 1 .716-.892c.289-.273.612-.503.971-.688.476-.247.922-.383 1.339-.409.413-.032.779.043 1.097.226.321.173.581.452.78.836.142.274.22.552.234.835.01.275-.039.54-.147.795a1.904 1.904 0 0 1-.512.687l-.061-.117c.51-.165.977-.159 1.4.019.419.171.749.489.988.952.21.404.291.808.244 1.213a2.182 2.182 0 0 1-.501 1.14c-.29.349-.693.657-1.208.924zm6.001-3.109c-.815.423-1.596.439-2.344.049-.751-.397-1.422-1.166-2.013-2.307-.399-.769-.639-1.464-.72-2.083-.078-.63 0-1.174.233-1.634.24-.463.631-.835 1.172-1.116.821-.425 1.599-.448 2.334-.067.741.377 1.409 1.139 2.003 2.287.395.763.633 1.462.715 2.098.084.626.013 1.176-.213 1.648-.23.467-.619.842-1.167 1.125zm-.532-1.026c.444-.23.663-.604.659-1.123.003-.522-.222-1.22-.675-2.094-.452-.874-.888-1.451-1.305-1.73-.415-.29-.844-.32-1.287-.091-.437.227-.66.594-.669 1.104-.013.502.207 1.19.659 2.064.453.874.893 1.461 1.321 1.76.428.299.86.336 1.297.11zm49.497-43.628c-.146.184-.294.286-.443.308-.151.012-.306-.047-.467-.175a.743.743 0 0 1-.222-.305 1.967 1.967 0 0 1-.113-.457l-.459-3.201c-.064-.484-.163-.873-.295-1.166a1.95 1.95 0 0 0-.55-.723c-.287-.229-.578-.311-.874-.247-.291.058-.575.26-.85.604a2.62 2.62 0 0 0-.381.654 2.593 2.593 0 0 0-.2.813.553.553 0 0 1-.147.362.546.546 0 0 1-.298.143.634.634 0 0 1-.335-.057.635.635 0 0 1-.269-.229.64.64 0 0 1-.084-.406c.03-.379.124-.755.281-1.128.162-.379.367-.723.614-1.033.349-.435.708-.75 1.078-.943a1.885 1.885 0 0 1 1.12-.218c.376.046.745.214 1.106.503.241.193.444.421.61.685.169.258.308.561.414.91.112.342.199.745.261 1.209l.393 2.965-.293-.234 2.022-2.529c.124-.155.255-.243.394-.263.139-.021.283.028.432.147.149.12.232.252.248.396.016.144-.038.294-.162.449l-2.531 3.166zm5.359-6.527c-.376.471-.765.822-1.168 1.055-.403.223-.807.323-1.212.3-.401-.028-.781-.187-1.143-.476a2.051 2.051 0 0 1-.619-.777 1.895 1.895 0 0 1-.15-.924c.027-.317.129-.621.306-.912l.18.145a1.974 1.974 0 0 1-1.233.466 1.96 1.96 0 0 1-1.242-.457c-.344-.275-.568-.595-.671-.96a2.02 2.02 0 0 1 .025-1.178c.12-.421.35-.844.69-1.268.343-.43.707-.75 1.092-.96.378-.215.759-.31 1.143-.284.379.02.74.168 1.084.443.253.202.444.439.573.712.135.267.197.547.188.841-.004.288-.08.571-.227.848l-.172-.137c.379-.356.807-.545 1.285-.567.477-.032.928.122 1.352.461.362.289.598.628.709 1.018.116.384.108.8-.025 1.249-.134.438-.389.892-.765 1.362zm-.86-.687c.325-.408.493-.776.503-1.107.005-.334-.148-.626-.458-.873-.309-.248-.624-.33-.944-.248-.32.083-.643.328-.968.735-.321.402-.489.77-.504 1.106-.01.331.14.62.449.867.31.248.628.333.953.255.325-.089.648-.334.969-.735zm-2.728-2.181c.184-.229.305-.452.365-.667.054-.22.046-.429-.023-.625a1.144 1.144 0 0 0-.378-.514c-.276-.22-.569-.294-.879-.223-.312.061-.604.26-.874.599-.271.338-.401.666-.392.984.004.313.143.58.418.8.281.224.578.306.89.245.312-.061.603-.26.873-.599zm12.515-45.718c-.233-.028-.399-.099-.496-.215-.088-.121-.12-.284-.096-.488a.737.737 0 0 1 .142-.349c.08-.109.19-.222.33-.338l2.48-2.074c.378-.31.657-.598.837-.864.181-.274.289-.557.325-.849.044-.364-.04-.655-.25-.873-.203-.217-.523-.352-.961-.405-.247-.03-.5-.023-.756.02a2.608 2.608 0 0 0-.797.259.553.553 0 0 1-.385.064.537.537 0 0 1-.278-.178.64.64 0 0 1-.075-.664.646.646 0 0 1 .3-.285 3.66 3.66 0 0 1 1.108-.354 4.403 4.403 0 0 1 1.201-.021c.554.067 1.011.207 1.369.42.359.214.618.493.776.837.158.345.209.747.153 1.206a2.72 2.72 0 0 1-.261.878c-.13.28-.315.558-.555.832a6.92 6.92 0 0 1-.892.857l-2.315 1.895.045-.372 3.215.389c.197.024.341.089.431.196.091.107.125.256.102.445-.023.19-.092.329-.206.419-.115.09-.27.123-.467.099l-4.024-.487zm8.369 1.123c-.597-.072-1.101-.218-1.511-.438-.402-.226-.699-.517-.893-.873-.186-.355-.252-.763-.196-1.222.044-.364.156-.676.335-.936.187-.266.423-.47.707-.613.283-.144.595-.217.936-.22l-.028.23a1.98 1.98 0 0 1-1.046-.804 1.964 1.964 0 0 1-.264-1.296c.053-.438.207-.796.463-1.076.256-.287.595-.487 1.015-.599.421-.119.902-.146 1.441-.08.547.066 1.01.207 1.391.423.382.209.663.483.844.823.181.333.246.718.193 1.155-.039.321-.14.608-.304.862a1.724 1.724 0 0 1-.616.602 1.87 1.87 0 0 1-.841.254l.026-.219c.502.135.888.399 1.158.795.278.388.385.852.32 1.392-.056.459-.22.839-.493 1.138-.265.301-.624.513-1.075.636-.443.117-.964.139-1.562.066zm.133-1.093c.517.062.919.011 1.205-.154.288-.172.455-.455.503-.849.047-.394-.048-.705-.287-.933-.239-.229-.617-.374-1.134-.437-.511-.062-.913-.01-1.206.154-.286.165-.453.444-.501.838-.047.394.048.708.285.944.246.23.624.375 1.135.437zm.419-3.466c.291.035.545.021.759-.042a1.07 1.07 0 0 0 .519-.348 1.13 1.13 0 0 0 .238-.592c.043-.35-.048-.638-.272-.865-.216-.233-.539-.376-.969-.428-.43-.052-.778.01-1.043.185-.265.167-.418.426-.46.776-.043.357.043.652.259.886.216.233.539.376.969.428zm8.143-48.16c-.235-.007-.406-.063-.514-.169-.099-.113-.146-.272-.14-.478a.716.716 0 0 1 .109-.36c.069-.116.168-.238.296-.367l2.279-2.294c.347-.343.598-.656.753-.938.155-.29.237-.581.245-.875.01-.367-.1-.649-.329-.846-.222-.198-.554-.302-.994-.315a2.66 2.66 0 0 0-.752.09 2.59 2.59 0 0 0-.769.331.556.556 0 0 1-.378.1.544.544 0 0 1-.293-.152.619.619 0 0 1-.157-.302.64.64 0 0 1 .021-.352.643.643 0 0 1 .273-.312 3.671 3.671 0 0 1 1.07-.455c.4-.099.798-.143 1.194-.132.558.016 1.025.113 1.402.293.377.179.66.433.85.762.189.328.277.723.264 1.186a2.693 2.693 0 0 1-.179.898 3.53 3.53 0 0 1-.476.88 6.964 6.964 0 0 1-.809.936l-2.129 2.1.01-.374 3.237.09c.198.006.347.057.447.156.101.098.148.243.143.433-.006.191-.061.337-.167.437-.105.099-.257.147-.455.141l-4.052-.112zm8.437.344c-.602-.016-1.117-.115-1.545-.296-.421-.188-.744-.451-.97-.787-.218-.337-.321-.737-.308-1.199.01-.367.092-.688.247-.963.162-.282.378-.507.647-.676a2.08 2.08 0 0 1 .912-.305l-.007.231a1.975 1.975 0 0 1-1.115-.703 1.967 1.967 0 0 1-.384-1.267c.013-.44.133-.812.362-1.114.229-.309.548-.539.956-.69.408-.157.884-.228 1.427-.213.551.015 1.025.113 1.424.293.4.172.705.42.916.741.212.315.312.692.3 1.133a2.02 2.02 0 0 1-.223.886 1.738 1.738 0 0 1-.559.657 1.876 1.876 0 0 1-.813.33l.006-.221c.512.088.92.316 1.226.685.313.361.462.813.447 1.356-.013.463-.141.856-.385 1.18-.237.324-.574.568-1.012.732-.431.157-.947.227-1.549.21zm.031-1.101c.521.015.916-.073 1.186-.264.27-.199.411-.496.422-.892.011-.397-.113-.697-.372-.903-.259-.206-.649-.316-1.17-.33-.514-.014-.909.074-1.186.264-.27.191-.41.485-.421.881-.011.397.112.701.371.914.266.206.656.316 1.17.33zm.097-3.49c.293.008.544-.029.752-.111.208-.09.37-.222.485-.395.115-.173.176-.377.182-.612.01-.352-.107-.631-.351-.836-.237-.212-.571-.324-1.004-.336-.434-.012-.774.081-1.022.28-.248.191-.376.463-.386.816-.01.359.103.645.34.857.236.213.571.325 1.004.337zm2.36-36.281c-.235 0-.408-.052-.518-.155-.102-.11-.153-.268-.153-.474a.741.741 0 0 1 .1-.363 1.94 1.94 0 0 1 .288-.374l2.219-2.352c.339-.352.582-.671.729-.957.148-.293.222-.587.223-.88 0-.367-.116-.647-.351-.838-.227-.192-.561-.288-1.002-.289a2.66 2.66 0 0 0-.749.108c-.25.066-.503.183-.761.351a.549.549 0 0 1-.374.109.544.544 0 0 1-.298-.143.633.633 0 0 1-.164-.298.643.643 0 0 1 .012-.353.648.648 0 0 1 .265-.319 3.683 3.683 0 0 1 1.058-.482 4.437 4.437 0 0 1 1.19-.162c.558.001 1.028.087 1.41.256.381.17.671.417.868.74.198.324.296.717.295 1.18a2.715 2.715 0 0 1-.157.903c-.096.293-.247.59-.453.891a6.96 6.96 0 0 1-.785.956l-2.075 2.154.001-.374 3.238.007c.198.001.349.049.451.144.103.096.154.239.153.43 0 .191-.052.338-.155.441-.103.102-.254.153-.452.153l-4.053-.01zm8.73.131c-.639-.002-1.186-.153-1.64-.456-.448-.309-.788-.75-1.022-1.324-.233-.573-.349-1.267-.347-2.082.001-.661.076-1.245.224-1.751.156-.514.377-.947.664-1.298a2.81 2.81 0 0 1 1.048-.802 3.472 3.472 0 0 1 1.411-.272c.323.001.65.053.98.156.337.097.653.244.946.443.117.074.194.17.231.287a.652.652 0 0 1 .01.353.61.61 0 0 1-.155.297.504.504 0 0 1-.287.153.616.616 0 0 1-.385-.1 2.867 2.867 0 0 0-.704-.31 2.547 2.547 0 0 0-.661-.089c-.426-.001-.786.097-1.08.294-.294.198-.519.495-.674.891-.148.396-.222.892-.224 1.486l-.002.827-.132-.001c.06-.374.182-.693.366-.957a1.84 1.84 0 0 1 .728-.615c.294-.146.621-.219.981-.218.448.001.844.108 1.189.322.344.214.615.508.813.883.197.375.295.805.294 1.289-.001.5-.112.947-.333 1.343a2.37 2.37 0 0 1-.906.923c-.382.22-.827.329-1.333.328zm-.075-1.124c.265.001.496-.057.695-.174.205-.117.364-.282.474-.495.111-.22.167-.47.167-.749a1.6 1.6 0 0 0-.163-.749 1.187 1.187 0 0 0-.473-.497 1.28 1.28 0 0 0-.693-.189c-.264 0-.496.062-.694.186a1.28 1.28 0 0 0-.475.495 1.605 1.605 0 0 0-.167.748 1.66 1.66 0 0 0 .163.75c.117.213.275.378.473.496.198.118.429.178.693.178zm-9.286-61.97c-.235.006-.409-.04-.521-.14-.106-.107-.162-.264-.168-.469a.735.735 0 0 1 .09-.366c.062-.12.154-.247.276-.383l2.148-2.416c.328-.362.562-.688.701-.978.139-.298.204-.593.196-.887-.01-.367-.135-.643-.375-.827-.233-.185-.569-.271-1.01-.259-.249.007-.498.05-.746.13a2.627 2.627 0 0 0-.75.374.555.555 0 0 1-.371.12.54.54 0 0 1-.301-.135.642.642 0 0 1-.172-.646.647.647 0 0 1 .255-.326 3.63 3.63 0 0 1 1.044-.513 4.435 4.435 0 0 1 1.185-.198c.558-.015 1.03.056 1.416.215.386.158.683.396.89.714.207.317.317.707.329 1.17.009.308-.034.61-.129.907-.087.296-.23.597-.427.904-.19.306-.442.633-.756.979l-2.011 2.215-.01-.375 3.237-.088c.198-.005.35.038.456.131.105.092.16.234.165.425.006.191-.042.339-.142.445-.1.105-.249.161-.447.166l-4.052.111zm9.688-.177c-.221.006-.395-.048-.523-.162-.128-.121-.195-.296-.201-.523l-.024-.859-2.719.074c-.228.007-.413-.036-.555-.128-.135-.092-.205-.24-.21-.446a.99.99 0 0 1 .077-.388c.062-.141.171-.327.326-.559l2.898-4.454c.098-.157.209-.277.332-.362a.767.767 0 0 1 .426-.132.66.66 0 0 1 .478.163c.128.106.195.281.202.523l.123 4.503.539-.014c.213-.006.372.041.478.141.113.092.171.234.177.425.005.191-.046.339-.153.445-.101.098-.257.15-.47.156l-.539.015.023.858c.006.228-.051.406-.173.534-.121.121-.292.184-.512.19zm-.78-2.711l-.094-3.435.32-.009-2.495 3.881-.01-.375 2.279-.062zm-9.002-63.864c-.235-.01-.405-.069-.51-.177-.098-.114-.142-.274-.133-.48a.727.727 0 0 1 .115-.358c.071-.115.172-.235.303-.362l2.316-2.256c.353-.337.609-.646.769-.925.16-.287.246-.577.259-.871.016-.367-.089-.651-.315-.852-.219-.201-.549-.311-.989-.33-.249-.011-.5.014-.753.076-.252.055-.51.162-.775.319a.551.551 0 0 1-.379.093.53.53 0 0 1-.29-.156.618.618 0 0 1-.152-.304.641.641 0 0 1 .026-.352.644.644 0 0 1 .279-.307 3.65 3.65 0 0 1 1.077-.438c.401-.092.8-.13 1.196-.112.558.025 1.023.13 1.397.316.374.185.653.444.837.776.184.331.265.728.245 1.19a2.746 2.746 0 0 1-.194.896 3.543 3.543 0 0 1-.491.871 6.933 6.933 0 0 1-.824.923l-2.164 2.064.016-.374 3.235.144c.198.009.347.063.445.163.099.1.144.245.135.436-.008.191-.066.335-.173.433-.108.098-.26.143-.458.134l-4.05-.18zm6.598.293c-.235-.01-.405-.069-.51-.177-.098-.114-.142-.274-.133-.48a.727.727 0 0 1 .115-.358c.071-.115.172-.235.303-.362l2.316-2.256c.353-.337.609-.646.769-.925.159-.287.246-.577.259-.871.016-.367-.089-.651-.315-.852-.219-.201-.549-.311-.989-.33-.249-.011-.5.014-.753.076-.252.055-.51.162-.775.319a.551.551 0 0 1-.379.093.536.536 0 0 1-.291-.156.625.625 0 0 1-.151-.304.641.641 0 0 1 .026-.352.644.644 0 0 1 .279-.307 3.65 3.65 0 0 1 1.077-.438c.401-.092.8-.13 1.196-.112.558.025 1.023.13 1.397.316.374.185.653.444.837.776.184.331.265.728.245 1.19a2.746 2.746 0 0 1-.194.896 3.543 3.543 0 0 1-.491.871 7.005 7.005 0 0 1-.824.923l-2.164 2.064.016-.374 3.235.144c.198.009.347.063.445.163.099.1.144.245.135.436-.008.191-.066.335-.173.433-.108.098-.26.143-.458.134l-4.05-.18zm-12.532-54.284c-.234.015-.41-.025-.526-.12-.11-.103-.172-.258-.185-.463a.738.738 0 0 1 .075-.369c.058-.121.145-.252.261-.392l2.056-2.497c.314-.373.535-.708.663-1.003.127-.303.181-.601.162-.894-.024-.366-.159-.637-.406-.812-.24-.176-.579-.25-1.019-.221a2.65 2.65 0 0 0-.74.159c-.245.082-.49.216-.736.401a.55.55 0 0 1-.366.135.54.54 0 0 1-.306-.124.617.617 0 0 1-.184-.286.638.638 0 0 1-.012-.352.634.634 0 0 1 .242-.336 3.67 3.67 0 0 1 1.024-.553 4.43 4.43 0 0 1 1.176-.242c.557-.037 1.032.017 1.424.161.392.143.697.37.916.679.219.31.344.695.374 1.157.02.308-.012.611-.095.911a3.514 3.514 0 0 1-.393.92 6.872 6.872 0 0 1-.718 1.007l-1.925 2.289-.025-.373 3.232-.211c.198-.013.351.024.46.113.109.089.169.228.182.419.012.19-.03.34-.125.449-.096.11-.243.171-.441.184l-4.045.264zm8.433-.441c-.916.06-1.638-.239-2.166-.896-.53-.664-.836-1.638-.92-2.92-.056-.865.002-1.597.177-2.197.181-.608.47-1.076.868-1.403.406-.329.912-.513 1.521-.552.923-.061 1.645.231 2.165.874.528.642.834 1.608.918 2.898.056.857-.006 1.593-.187 2.209-.174.607-.459 1.082-.856 1.424-.398.335-.904.523-1.52.563zm-.075-1.154c.498-.032.85-.287 1.054-.764.211-.478.285-1.207.221-2.189-.064-.982-.232-1.685-.502-2.109-.264-.431-.645-.631-1.143-.598-.491.032-.843.279-1.055.742-.213.455-.288 1.174-.224 2.156.065.982.233 1.696.505 2.142.272.445.653.652 1.144.62zm-9.44-48.851c-.191.006-.343-.042-.456-.141a.621.621 0 0 1-.166-.437c-.005-.19.042-.335.142-.433.108-.099.257-.15.448-.156l1.233-.033-.147-5.406.683-.019-1.592 1.024a.64.64 0 0 1-.394.11.618.618 0 0 1-.312-.146.697.697 0 0 1-.174-.304.584.584 0 0 1 .012-.353.645.645 0 0 1 .278-.316l1.495-.955c.144-.092.289-.169.434-.232a.995.995 0 0 1 .405-.11.569.569 0 0 1 .389.121c.105.078.16.213.165.403l.167 6.144 1.124-.03c.19-.005.339.038.444.131.113.092.172.234.177.425.005.191-.046.339-.153.445-.1.105-.246.161-.437.166l-3.765.102zm8.19-.112c-.602.016-1.121-.054-1.559-.211-.431-.165-.768-.409-1.012-.733-.236-.324-.361-.718-.373-1.18-.01-.367.054-.692.193-.975.147-.29.35-.527.609-.711.26-.183.557-.301.894-.355l.006.232a1.978 1.978 0 0 1-1.152-.641 1.958 1.958 0 0 1-.453-1.244c-.012-.44.088-.818.3-1.132.212-.322.517-.569.916-.741.4-.18.871-.277 1.414-.292.55-.015 1.03.056 1.438.214.408.151.727.381.956.69.228.303.348.674.36 1.114.009.323-.049.623-.173.898a1.737 1.737 0 0 1-.522.686 1.856 1.856 0 0 1-.794.374l-.006-.22c.516.059.937.265 1.262.616.333.343.506.787.521 1.33.013.462-.094.862-.32 1.199-.218.336-.542.598-.97.786-.421.181-.933.279-1.535.296zm-.03-1.102c.521-.014.911-.123 1.17-.329.259-.213.383-.517.372-.914-.011-.396-.151-.69-.421-.881-.269-.191-.665-.279-1.186-.265-.514.014-.904.124-1.17.33-.259.205-.383.506-.372.902.011.397.151.694.421.892.277.191.672.279 1.186.265zm-.095-3.49c.294-.008.542-.059.745-.152.203-.101.357-.241.463-.421.105-.179.154-.386.148-.621-.01-.352-.142-.624-.397-.815-.248-.199-.588-.293-1.021-.281-.433.012-.768.124-1.005.336-.237.205-.35.483-.341.836.01.359.139.639.387.837.248.199.588.293 1.021.281zm-19.769-48.776c-.186.042-.344.026-.474-.05a.62.62 0 0 1-.249-.395c-.042-.187-.024-.338.055-.453.086-.118.223-.198.409-.24l1.203-.274-1.201-5.273.666-.152-1.362 1.315a.634.634 0 0 1-.364.185.613.613 0 0 1-.335-.082.707.707 0 0 1-.23-.264.584.584 0 0 1-.056-.348.638.638 0 0 1 .21-.365l1.279-1.229c.124-.118.251-.222.381-.312a.997.997 0 0 1 .375-.187.57.57 0 0 1 .406.043c.118.056.198.177.24.363l1.365 5.993 1.096-.25c.186-.042.34-.028.461.042.129.068.214.196.257.382.042.186.021.342-.064.466-.077.123-.209.206-.395.248l-3.673.837zm6.631-1.42a.688.688 0 0 1-.435-.025.48.48 0 0 1-.264-.267c-.053-.132-.055-.289-.006-.474l1.854-6.838.107.472-3.479.793c-.194.044-.355.028-.486-.048-.123-.077-.205-.205-.245-.384-.043-.187-.025-.341.052-.464.085-.125.224-.209.417-.253l4.156-.947a.735.735 0 0 1 .507.043c.145.072.238.202.28.388.036.157.047.302.031.433a3.315 3.315 0 0 1-.086.415l-1.722 6.527a.79.79 0 0 1-.233.414.949.949 0 0 1-.448.215zM45.06 381.792c0-.808.16-1.502.484-2.082a3.35 3.35 0 0 1 1.388-1.322c.602-.308 1.31-.462 2.126-.462.61 0 1.156.088 1.64.264.493.176.911.43 1.256.76.353.331.62.735.804 1.212a4.41 4.41 0 0 1 .287 1.63c0 .404-.052.8-.154 1.19-.103.389-.25.73-.44 1.024a.704.704 0 0 1-.353.308.66.66 0 0 1-.397.033.612.612 0 0 1-.32-.187.547.547 0 0 1-.154-.341c-.007-.133.04-.279.144-.441.146-.228.253-.474.32-.738.065-.264.098-.532.098-.804 0-.521-.106-.962-.32-1.322a2.01 2.01 0 0 0-.924-.815c-.404-.183-.9-.275-1.487-.275-.58 0-1.076.092-1.487.275a2.002 2.002 0 0 0-.937.815c-.213.36-.319.801-.319 1.322 0 .279.033.554.1.826.072.272.183.529.33.771.095.162.135.305.12.43a.514.514 0 0 1-.132.33.589.589 0 0 1-.308.176.655.655 0 0 1-.705-.286 3.357 3.357 0 0 1-.495-1.057 4.67 4.67 0 0 1-.166-1.234zm.11 4.623c0-.243.062-.43.187-.562.132-.125.32-.187.561-.187h6.268c.242 0 .426.062.55.187.133.132.199.319.199.562v3.932c0 .183-.048.323-.144.418-.095.103-.23.155-.407.155-.184 0-.327-.052-.43-.155-.095-.095-.143-.235-.143-.418v-3.327h-2.137v3.085c0 .19-.047.334-.143.429-.095.096-.235.143-.418.143-.184 0-.323-.047-.419-.143-.095-.095-.143-.239-.143-.429v-3.085h-2.258v3.327c0 .183-.048.323-.143.418-.096.103-.235.155-.419.155-.183 0-.323-.052-.418-.155-.096-.095-.144-.235-.144-.418v-3.932zm-.089 6.484c0-.213.06-.378.176-.496.118-.11.287-.165.507-.165h6.554c.227 0 .4.055.518.165a.594.594 0 0 1 .187.452c0 .169-.033.293-.1.374a1.517 1.517 0 0 1-.308.309l-5.474 4.218v-.286h5.21c.213 0 .378.055.496.165.117.117.176.283.176.496 0 .213-.059.374-.176.484-.118.11-.283.166-.496.166h-6.609c-.205 0-.367-.052-.484-.155a.526.526 0 0 1-.177-.418c0-.169.033-.305.1-.408a1.62 1.62 0 0 1 .319-.319l5.474-4.208v.276h-5.21c-.22 0-.389-.055-.507-.166-.117-.11-.176-.271-.176-.484zm0 10.156c0-.228.063-.404.188-.529.132-.117.312-.176.54-.176h5.947v-2.148c0-.191.052-.342.154-.452a.623.623 0 0 1 .441-.154c.19 0 .334.052.43.154.102.11.154.261.154.452v5.705c0 .191-.052.338-.154.441-.096.11-.24.165-.43.165a.596.596 0 0 1-.44-.165c-.103-.103-.155-.25-.155-.441v-2.147h-5.948c-.227 0-.407-.059-.54-.177-.124-.117-.187-.293-.187-.528zm.088 5.012c0-.242.063-.429.188-.561.132-.125.32-.188.561-.188h6.268c.242 0 .426.063.55.188.133.132.199.319.199.561V412c0 .183-.048.323-.144.418-.095.103-.23.154-.407.154-.184 0-.327-.051-.43-.154-.095-.095-.143-.235-.143-.418v-3.327h-2.137v3.084c0 .191-.047.334-.143.43-.095.095-.235.143-.418.143-.184 0-.323-.048-.419-.143-.095-.096-.143-.239-.143-.43v-3.084h-2.258V412c0 .183-.048.323-.143.418-.096.103-.235.154-.419.154-.183 0-.323-.051-.418-.154-.096-.095-.144-.235-.144-.418v-3.933zm-.088 6.529c0-.228.063-.404.188-.529.132-.118.312-.176.54-.176h6.41c.235 0 .411.062.529.187.124.125.187.301.187.529v2.654c0 .852-.206 1.509-.617 1.972-.404.462-.973.694-1.707.694-.478 0-.889-.107-1.234-.32a1.99 1.99 0 0 1-.793-.903c-.184-.397-.275-.878-.275-1.443l.165.099v.364c0 .301-.074.561-.22.782-.147.227-.379.426-.694.594l-1.531.827a.826.826 0 0 1-.452.121.517.517 0 0 1-.363-.165c-.089-.103-.133-.254-.133-.452s.04-.36.121-.485a1.13 1.13 0 0 1 .397-.33l2.049-1.113c.25-.132.415-.29.495-.473.088-.176.133-.404.133-.683V415.3h-2.468c-.227 0-.407-.058-.54-.176-.124-.117-.187-.294-.187-.528zm4.24.704v1.719c0 .506.104.888.31 1.145.212.265.528.397.947.397.41 0 .72-.132.925-.397.213-.257.32-.639.32-1.145V415.3h-2.501zm-4.152 9.848c0-.228.063-.404.188-.529.132-.125.312-.187.54-.187h6.355c.235 0 .411.059.529.176.124.125.187.301.187.529 0 .227-.063.4-.188.518-.117.124-.293.187-.528.187H46.37v3.194c0 .198-.051.349-.154.452-.103.11-.25.165-.44.165-.192 0-.342-.055-.452-.165-.103-.103-.155-.254-.155-.452v-3.888zm-.088 6.174c0-.228.063-.404.188-.529.132-.117.312-.176.54-.176h6.487c.235 0 .415.059.54.176.124.125.187.301.187.529 0 .227-.063.4-.187.517-.125.125-.305.188-.54.188h-6.488c-.227 0-.407-.059-.54-.177-.124-.117-.187-.293-.187-.528zm0 3.064c0-.213.06-.378.176-.495.118-.11.287-.166.507-.166h6.554c.227 0 .4.056.518.166a.592.592 0 0 1 .187.451c0 .169-.033.294-.1.375a1.492 1.492 0 0 1-.308.308l-5.474 4.219v-.287h5.21c.213 0 .378.055.496.166.117.117.176.282.176.495 0 .213-.059.375-.176.485-.118.11-.283.165-.496.165h-6.609c-.205 0-.367-.051-.484-.154a.528.528 0 0 1-.177-.419c0-.169.033-.304.1-.407.066-.096.172-.202.319-.32l5.474-4.207v.275h-5.21c-.22 0-.389-.055-.507-.165-.117-.11-.176-.272-.176-.485zm.088 8.328c0-.242.063-.43.188-.562.132-.125.32-.187.561-.187h6.268c.242 0 .426.062.55.187.133.132.199.32.199.562v3.932c0 .184-.048.323-.144.419-.095.102-.23.154-.407.154-.184 0-.327-.052-.43-.154-.095-.096-.143-.235-.143-.419v-3.326h-2.137v3.084c0 .191-.047.334-.143.429-.095.096-.235.144-.418.144-.184 0-.323-.048-.419-.144-.095-.095-.143-.238-.143-.429v-3.084h-2.258v3.326c0 .184-.048.323-.143.419-.096.102-.235.154-.419.154-.183 0-.323-.052-.418-.154-.096-.096-.144-.235-.144-.419v-3.932z" fill="#fff"/><g clip-path="url(#clip1_6445_189690)"><path d="M214.414 291.851h108.264l-11.714-28.64h-82.021l-14.529 28.64zm138.262.001v63.295H290.34v87.711a30.701 30.701 0 0 0-41.708-.151v-87.56h-63.275v-63.295h167.319z" fill="#5A6064"/><path d="M375.206 450.611h-46.868v74.842h46.868v-74.842zm-165.55 0h-45.462v74.842h45.462v-74.842zm165.55-88.904h-46.868v86.531h46.868v-86.531zm-165.55 0h-45.462v86.531h45.462v-86.531zm2.418 0h28.156v82.388h-7.538v53.795l9.843 9.263h20.155v18.53h-50.616V361.707zm113.752 0h-28.593v81.523h7.97v54.66l-9.842 9.263h-20.156v18.53h50.621V361.707zM164.194 528.23h98.064v15.469h-17.345v17.807h-80.719V528.23zm210.58 0h-99.357v15.469h17.341v17.807h82.016V528.23z" fill="#66AFFF"/><path d="M295.11 359.212v86.314h7.996v50.595l-8.368 8.368h-21.371v39.52h-8.393v-39.252h-22.245l-7.918-7.918v-50.331h7.538v-86.92h-63.53v-66.872h5.471v64h62.703v85.649l.229 2.162a30.703 30.703 0 1 0 44.109.618v-88.684h62.885v-63.745h6.054v66.496h-65.16z" fill="#66AFFF"/><path d="M269.017 497.829c17.688 0 32.026-14.339 32.026-32.026 0-17.688-14.338-32.027-32.026-32.027-17.688 0-32.026 14.339-32.026 32.027 0 17.687 14.338 32.026 32.026 32.026z" fill="#5A6064" stroke="#fff" stroke-width="4.602" stroke-miterlimit="10"/><path d="M291.564 544.869h-45.709v16.636h45.709v-16.636z" fill="#66AFFF"/><path d="M241.311 325.901c-.648 0-1.296-.052-1.943-.155a10.046 10.046 0 0 1-1.834-.42 7.525 7.525 0 0 1-1.546-.751 1.422 1.422 0 0 1-.552-.64 1.437 1.437 0 0 1-.111-.729c.045-.25.14-.464.288-.641.162-.191.36-.309.596-.353.236-.044.493.022.773.199a7.557 7.557 0 0 0 2.054.839c.722.177 1.48.265 2.275.265 1.164 0 2.01-.191 2.54-.574.53-.398.795-.906.795-1.524 0-.516-.191-.921-.574-1.215-.368-.295-1.008-.538-1.921-.729l-2.43-.508c-1.399-.294-2.444-.788-3.137-1.48-.677-.707-1.016-1.634-1.016-2.783 0-.721.148-1.377.442-1.966a4.566 4.566 0 0 1 1.237-1.524 5.763 5.763 0 0 1 1.922-.972 8.249 8.249 0 0 1 2.474-.353c.883 0 1.722.11 2.518.331a7.29 7.29 0 0 1 2.142.972c.236.162.39.361.464.597a1.3 1.3 0 0 1 .066.706 1.102 1.102 0 0 1-.309.575 1.016 1.016 0 0 1-.619.287c-.235.029-.508-.044-.817-.221a6.32 6.32 0 0 0-1.656-.663 7.885 7.885 0 0 0-1.812-.199c-.677 0-1.259.096-1.744.288-.486.191-.862.463-1.127.817-.25.339-.375.743-.375 1.215 0 .53.176.957.53 1.281.353.309.957.552 1.811.729l2.407.508c1.458.309 2.541.795 3.247 1.457.722.663 1.083 1.547 1.083 2.651 0 .707-.148 1.347-.442 1.922a4.09 4.09 0 0 1-1.237 1.479c-.53.413-1.171.729-1.922.95-.751.221-1.597.332-2.54.332zm13.412-.045c-.456 0-.81-.125-1.06-.375-.236-.265-.353-.626-.353-1.082v-11.928h-4.308c-.382 0-.684-.103-.905-.309-.206-.221-.309-.515-.309-.883 0-.383.103-.67.309-.862.221-.206.523-.309.905-.309h11.442c.383 0 .677.103.883.309.221.192.332.479.332.862 0 .368-.111.662-.332.883-.206.206-.5.309-.883.309h-4.307v11.928c0 .456-.118.817-.354 1.082-.235.25-.589.375-1.06.375zm6.979 0c-.353 0-.64-.081-.861-.243a.993.993 0 0 1-.376-.64c-.044-.28.008-.589.155-.928l5.831-12.921c.191-.427.42-.729.685-.906.279-.191.596-.287.949-.287.339 0 .641.096.906.287.28.177.515.479.707.906l5.853 12.921c.162.339.221.648.177.928a1.01 1.01 0 0 1-.376.663c-.206.147-.478.22-.817.22-.412 0-.736-.095-.972-.287-.221-.206-.419-.515-.596-.927l-1.436-3.336 1.193.773h-9.321l1.193-.773-1.414 3.336c-.191.427-.39.736-.596.927-.207.192-.501.287-.884.287zm6.339-12.678l-3.092 7.355-.574-.707h7.377l-.552.707-3.115-7.355h-.044zm17.107 12.723c-1.723 0-3.181-.324-4.373-.972a6.502 6.502 0 0 1-2.695-2.761c-.618-1.193-.928-2.607-.928-4.241 0-1.237.177-2.349.53-3.335.369-.987.891-1.826 1.569-2.518a6.786 6.786 0 0 1 2.518-1.613c.986-.383 2.105-.574 3.357-.574.825 0 1.649.103 2.474.309a7.429 7.429 0 0 1 2.363.994c.25.162.412.361.486.597.088.235.103.478.044.728a1.406 1.406 0 0 1-.331.619 1.06 1.06 0 0 1-.619.331c-.235.044-.5-.015-.795-.177a6.74 6.74 0 0 0-1.7-.706 7.712 7.712 0 0 0-1.922-.221c-1.09 0-2.01.221-2.761.662-.751.427-1.318 1.053-1.701 1.878-.368.825-.552 1.833-.552 3.026 0 1.811.434 3.188 1.303 4.13.869.943 2.157 1.414 3.866 1.414.589 0 1.185-.059 1.789-.177a12.15 12.15 0 0 0 1.767-.486l-.552 1.259v-4.704h-2.43c-.368 0-.655-.096-.862-.288-.191-.191-.287-.449-.287-.773 0-.338.096-.596.287-.773.207-.176.494-.265.862-.265h3.644c.368 0 .648.103.84.31.206.191.309.471.309.839v5.367c0 .324-.066.597-.199.817-.118.221-.316.383-.596.486-.648.236-1.392.435-2.231.597-.839.147-1.664.221-2.474.221zm10.278-.221c-.486 0-.861-.125-1.126-.376-.251-.265-.376-.64-.376-1.126V311.61c0-.486.125-.854.376-1.105.265-.265.64-.397 1.126-.397h7.885c.369 0 .648.096.84.287.206.191.309.464.309.817 0 .368-.103.656-.309.862-.192.191-.471.287-.84.287h-6.67v4.285h6.184c.383 0 .67.096.862.287.191.191.287.471.287.839s-.096.648-.287.84c-.192.191-.479.287-.862.287h-6.184v4.528h6.67c.369 0 .648.095.84.287.206.191.309.471.309.839s-.103.648-.309.84c-.192.191-.471.287-.84.287h-7.885zm-121.09 84.703a.478.478 0 0 1-.353-.128.523.523 0 0 1-.115-.362l.031-3.975-1.436-.011a.421.421 0 0 1-.301-.106.413.413 0 0 1-.101-.295c.001-.128.036-.223.105-.286a.427.427 0 0 1 .303-.101l3.814.029c.127.001.225.036.293.106.074.064.11.16.109.288a.399.399 0 0 1-.113.293c-.069.068-.168.102-.295.101l-1.436-.011-.031 3.976a.52.52 0 0 1-.12.359c-.079.083-.197.124-.354.123zm2.326.018a.479.479 0 0 1-.287-.083.333.333 0 0 1-.123-.215.559.559 0 0 1 .054-.309l1.976-4.292a.686.686 0 0 1 .231-.3.549.549 0 0 1 .618.005c.093.06.171.161.234.304l1.918 4.322a.52.52 0 0 1 .056.309.335.335 0 0 1-.127.22.455.455 0 0 1-.273.072.496.496 0 0 1-.323-.099.905.905 0 0 1-.196-.31l-.47-1.116.395.261-3.107-.024.4-.254-.48 1.108a.955.955 0 0 1-.201.307c-.069.064-.168.095-.295.094zm2.145-4.21l-1.049 2.444-.19-.237 2.459.019-.186.234-1.019-2.46h-.015zm3.783 4.196c-.162-.001-.287-.043-.375-.128-.082-.089-.123-.214-.122-.376l.032-4.189c.002-.162.044-.285.128-.367.089-.088.215-.131.377-.13l1.767.014c.363.002.672.059.926.169.255.11.447.266.578.468.136.202.203.443.201.723a1.192 1.192 0 0 1-.279.793 1.332 1.332 0 0 1-.747.429l.001-.111c.363.057.644.197.844.419.199.223.298.51.295.864-.004.461-.163.818-.479 1.071-.312.248-.744.37-1.299.366l-1.848-.015zm.41-.711l1.326.011c.333.002.579-.06.737-.186.158-.131.238-.327.24-.587.002-.265-.075-.462-.231-.591-.156-.129-.401-.195-.734-.197l-1.326-.01-.012 1.56zm.018-2.275l1.2.01c.324.002.565-.057.723-.179.163-.126.245-.312.247-.557.002-.246-.078-.431-.239-.555-.156-.128-.396-.194-.72-.196l-1.2-.01-.011 1.487zm4.619 3.025a.48.48 0 0 1-.353-.128.506.506 0 0 1-.122-.361l.033-4.248c.001-.157.041-.275.12-.353.084-.083.202-.123.354-.122.153.001.268.043.345.128.083.079.124.197.123.354l-.03 3.931 2.135.017c.132.001.233.036.301.105.073.069.109.168.108.295a.412.412 0 0 1-.113.302c-.069.068-.17.101-.302.1l-2.599-.02zm4.156.032c-.162-.001-.287-.044-.375-.128-.082-.089-.123-.214-.122-.376l.032-4.189c.002-.162.044-.285.128-.368.089-.087.215-.13.377-.129l2.628.02c.123.001.216.034.279.098.068.064.102.155.101.273a.388.388 0 0 1-.105.286c-.064.064-.158.095-.281.094l-2.223-.017-.011 1.428 2.061.016c.128.001.224.034.287.098.063.064.094.158.093.28-.001.123-.033.216-.097.279-.065.064-.161.095-.288.094l-2.062-.016-.011 1.509 2.223.017c.123.001.216.034.279.098.068.065.102.158.101.281-.001.123-.036.216-.105.279-.065.063-.158.094-.281.093l-2.628-.02zm5.609.117a4.17 4.17 0 0 1-.648-.057 3.398 3.398 0 0 1-.61-.144 2.503 2.503 0 0 1-.513-.254.484.484 0 0 1-.183-.215.48.48 0 0 1-.034-.244.437.437 0 0 1 .097-.212.336.336 0 0 1 .2-.117c.078-.014.164.009.257.069.215.129.442.224.682.285.24.06.493.092.758.094.388.003.67-.059.848-.185a.61.61 0 0 0 .269-.506.482.482 0 0 0-.188-.406c-.122-.1-.335-.182-.639-.248l-.809-.176c-.465-.102-.812-.269-1.041-.501-.224-.238-.335-.548-.332-.93a1.446 1.446 0 0 1 .569-1.159 1.9 1.9 0 0 1 .643-.319 2.74 2.74 0 0 1 .825-.112c.295.002.574.041.839.117.264.076.501.185.711.329.079.055.13.122.153.2a.436.436 0 0 1 .021.236.37.37 0 0 1-.105.191.338.338 0 0 1-.207.094.45.45 0 0 1-.272-.076 2.113 2.113 0 0 0-.55-.225 2.61 2.61 0 0 0-.603-.071 1.598 1.598 0 0 0-.583.091.844.844 0 0 0-.377.27.662.662 0 0 0-.128.404.548.548 0 0 0 .173.428c.117.104.318.187.602.248l.801.175c.485.107.845.272 1.079.495.238.222.356.518.354.886a1.38 1.38 0 0 1-.153.639 1.35 1.35 0 0 1-.416.49c-.177.136-.392.24-.643.312a3 3 0 0 1-.847.104zm-16.286 79.879a.584.584 0 0 1-.331-.091.709.709 0 0 1-.204-.281l-1.888-4.329a.498.498 0 0 1-.042-.325.377.377 0 0 1 .157-.219.475.475 0 0 1 .28-.079c.142.001.248.034.316.098a.647.647 0 0 1 .182.274l1.714 4.055-.317-.002 1.769-4.036a.707.707 0 0 1 .193-.264.46.46 0 0 1 .31-.093.417.417 0 0 1 .265.083.353.353 0 0 1 .138.222.533.533 0 0 1-.054.323l-1.955 4.3a.694.694 0 0 1-.208.278.531.531 0 0 1-.325.086zm5.249.04a.582.582 0 0 1-.331-.091.69.69 0 0 1-.204-.281l-1.888-4.329a.494.494 0 0 1-.042-.324.373.373 0 0 1 .156-.22.485.485 0 0 1 .281-.079c.142.001.247.034.315.098.074.06.134.151.182.274l1.714 4.055-.316-.002 1.768-4.036a.725.725 0 0 1 .194-.264.458.458 0 0 1 .31-.093.418.418 0 0 1 .264.083.358.358 0 0 1 .138.222.537.537 0 0 1-.054.324l-1.954 4.299a.696.696 0 0 1-.209.278.524.524 0 0 1-.324.086zm3.658.028c-.152-.001-.27-.043-.353-.128a.525.525 0 0 1-.115-.361l.034-4.337c.001-.157.041-.277.12-.359a.48.48 0 0 1 .355-.123c.152.001.267.044.345.128.083.084.123.205.122.362l-.033 4.336a.525.525 0 0 1-.121.36c-.079.083-.197.124-.354.122zm2.078.016c-.152-.001-.27-.043-.353-.128a.52.52 0 0 1-.115-.361l.033-4.285c.001-.157.044-.275.128-.353a.48.48 0 0 1 .354-.122l1.775.014c.569.004 1.007.15 1.314.437.307.287.459.686.455 1.196-.004.511-.162.909-.473 1.197-.311.282-.752.421-1.321.416l-1.311-.01-.011 1.517a.525.525 0 0 1-.121.36c-.079.083-.197.124-.354.122zm.492-2.742l1.163.009c.334.002.587-.069.76-.215.173-.151.261-.371.263-.661.002-.29-.082-.509-.253-.657-.17-.149-.422-.224-.756-.227l-1.163-.009-.014 1.76zm147.67-77.413a.477.477 0 0 1-.352-.128.523.523 0 0 1-.115-.362l.03-3.975-1.435-.011a.421.421 0 0 1-.301-.106.409.409 0 0 1-.101-.295c.001-.128.036-.223.105-.286a.426.426 0 0 1 .303-.101l3.813.029c.128.001.226.036.294.106.073.064.109.16.108.288a.398.398 0 0 1-.112.293.402.402 0 0 1-.296.101l-1.435-.011-.031 3.976a.52.52 0 0 1-.12.359c-.08.083-.198.124-.355.123zm2.327.018a.479.479 0 0 1-.287-.083.333.333 0 0 1-.123-.215.548.548 0 0 1 .053-.309l1.977-4.292a.686.686 0 0 1 .231-.3.544.544 0 0 1 .317-.093.5.5 0 0 1 .301.098.66.66 0 0 1 .233.304l1.918 4.322a.53.53 0 0 1 .057.309.339.339 0 0 1-.127.22.455.455 0 0 1-.273.072.496.496 0 0 1-.323-.099.905.905 0 0 1-.197-.31l-.47-1.116.396.261-3.107-.024.4-.254-.48 1.108a.955.955 0 0 1-.201.307c-.069.064-.168.095-.295.094zm2.145-4.21l-1.05 2.444-.189-.237 2.459.019-.186.234-1.019-2.46h-.015zm3.783 4.196c-.162-.001-.287-.043-.375-.128-.083-.089-.123-.214-.122-.376l.032-4.189c.001-.162.044-.285.128-.367.089-.088.215-.131.377-.13l1.767.014c.363.002.672.059.926.169.254.11.447.266.578.468.136.202.203.443.201.723a1.198 1.198 0 0 1-.279.793 1.332 1.332 0 0 1-.747.429l.001-.111c.363.057.644.197.844.419.199.223.297.51.295.864-.004.461-.164.818-.48 1.071-.311.248-.744.37-1.298.366l-1.848-.015zm.41-.711l1.325.011c.334.002.58-.06.738-.186.158-.131.238-.327.24-.587.002-.265-.075-.462-.231-.591-.156-.129-.401-.195-.735-.197l-1.325-.01-.012 1.56zm.018-2.275l1.2.01c.324.002.565-.057.723-.179.163-.126.245-.312.247-.557.002-.246-.078-.431-.239-.555-.156-.128-.396-.194-.72-.196l-1.2-.01-.011 1.487zm4.618 3.025a.477.477 0 0 1-.352-.128.498.498 0 0 1-.122-.361l.032-4.248c.001-.157.042-.275.121-.353.084-.083.202-.123.354-.122.152.001.267.043.345.128.083.079.124.197.123.354l-.031 3.931 2.136.017c.132.001.232.036.301.105.073.069.109.168.108.295a.412.412 0 0 1-.113.302c-.069.068-.17.101-.303.1l-2.599-.02zm4.157.032c-.162-.001-.287-.044-.375-.128-.083-.089-.123-.214-.122-.376l.032-4.189c.001-.162.044-.285.128-.368.089-.087.215-.13.377-.129l2.628.02c.123.001.216.034.279.098.068.064.102.155.101.273a.388.388 0 0 1-.105.286c-.065.064-.158.095-.281.094l-2.223-.017-.011 1.428 2.061.016c.128.001.223.034.287.098.063.064.094.158.093.28-.001.123-.033.216-.098.279-.064.064-.16.095-.288.094l-2.061-.016-.012 1.509 2.224.017c.122.001.215.034.279.098.068.065.102.158.101.281-.001.123-.036.216-.105.279-.065.063-.158.094-.281.093l-2.628-.02zm5.609.117a4.17 4.17 0 0 1-.648-.057 3.378 3.378 0 0 1-.61-.144 2.503 2.503 0 0 1-.513-.254.484.484 0 0 1-.218-.459.447.447 0 0 1 .098-.212.337.337 0 0 1 .199-.117c.079-.014.165.009.257.069.215.129.443.224.683.285.24.06.493.092.758.094.387.003.67-.059.848-.185a.61.61 0 0 0 .269-.506.483.483 0 0 0-.189-.406c-.122-.1-.334-.182-.638-.248l-.809-.176c-.465-.102-.813-.269-1.041-.501-.224-.238-.335-.548-.332-.93.002-.241.053-.459.152-.655.1-.195.239-.363.417-.504a1.9 1.9 0 0 1 .643-.319c.25-.077.526-.114.825-.112.295.002.574.041.838.117.265.076.502.185.712.329a.382.382 0 0 1 .153.2.426.426 0 0 1 .02.236.368.368 0 0 1-.104.191.338.338 0 0 1-.207.094.45.45 0 0 1-.272-.076 2.127 2.127 0 0 0-.55-.225 2.61 2.61 0 0 0-.603-.071 1.598 1.598 0 0 0-.583.091.844.844 0 0 0-.377.27.663.663 0 0 0-.129.404.552.552 0 0 0 .174.428c.117.104.317.187.602.248l.801.175c.485.107.844.272 1.078.495.239.222.357.518.354.886a1.379 1.379 0 0 1-.152.639 1.36 1.36 0 0 1-.416.49c-.178.136-.392.24-.643.312a3 3 0 0 1-.847.104zm-16.286 79.879a.582.582 0 0 1-.331-.091.69.69 0 0 1-.204-.281l-1.888-4.329a.498.498 0 0 1-.042-.325.371.371 0 0 1 .156-.219.478.478 0 0 1 .281-.079c.142.001.247.034.316.098a.656.656 0 0 1 .182.274l1.713 4.055-.316-.002 1.768-4.036a.708.708 0 0 1 .194-.264.458.458 0 0 1 .31-.093.413.413 0 0 1 .264.083.35.35 0 0 1 .139.222.541.541 0 0 1-.055.323l-1.954 4.3a.696.696 0 0 1-.209.278.53.53 0 0 1-.324.086zm5.248.04a.58.58 0 0 1-.33-.091.69.69 0 0 1-.204-.281l-1.889-4.329a.487.487 0 0 1-.041-.324.373.373 0 0 1 .156-.22.482.482 0 0 1 .28-.079c.143.001.248.034.316.098.073.06.134.151.182.274l1.714 4.055-.317-.002 1.769-4.036a.724.724 0 0 1 .193-.264.461.461 0 0 1 .31-.093.421.421 0 0 1 .265.083.358.358 0 0 1 .138.222.537.537 0 0 1-.054.324l-1.955 4.299a.694.694 0 0 1-.208.278.525.525 0 0 1-.325.086zm3.659.028c-.153-.001-.27-.043-.353-.128a.52.52 0 0 1-.115-.361l.034-4.337c.001-.157.041-.277.12-.359a.477.477 0 0 1 .354-.123c.153.001.268.044.346.128.082.084.123.205.122.362l-.033 4.336a.53.53 0 0 1-.121.36c-.079.083-.197.124-.354.122zm2.078.016c-.153-.001-.27-.043-.353-.128a.52.52 0 0 1-.115-.361l.033-4.285c.001-.157.044-.275.128-.353a.48.48 0 0 1 .354-.122l1.775.014c.569.004 1.007.15 1.314.437.307.287.459.686.455 1.196-.004.511-.162.909-.473 1.197-.312.282-.752.421-1.321.416l-1.311-.01-.012 1.517a.525.525 0 0 1-.12.36c-.079.083-.197.124-.354.122zm.492-2.742l1.163.009c.334.002.587-.069.76-.215.173-.151.261-.371.263-.661.002-.29-.082-.509-.253-.657-.17-.149-.423-.224-.756-.227l-1.164-.009-.013 1.76zm-153.198 58.606a.58.58 0 0 1-.33-.091.69.69 0 0 1-.204-.281l-1.889-4.329a.49.49 0 0 1-.041-.325.371.371 0 0 1 .156-.219.475.475 0 0 1 .28-.079c.143.001.248.034.316.098a.647.647 0 0 1 .182.274l1.714 4.055-.317-.002 1.769-4.036a.707.707 0 0 1 .193-.264.461.461 0 0 1 .31-.093.415.415 0 0 1 .265.083.353.353 0 0 1 .138.222.533.533 0 0 1-.054.323l-1.955 4.3a.694.694 0 0 1-.208.278.531.531 0 0 1-.325.086zm3.659.028a.478.478 0 0 1-.353-.128.523.523 0 0 1-.115-.362l.034-4.336c.001-.157.041-.277.12-.36.084-.083.202-.123.354-.122.153.001.268.044.346.128.082.084.123.204.122.361l-.033 4.337a.53.53 0 0 1-.121.36c-.079.082-.197.123-.354.122zm2.077.016a.477.477 0 0 1-.352-.128.523.523 0 0 1-.115-.362l.033-4.284c.001-.158.044-.275.128-.353.084-.083.202-.123.354-.122l1.775.013c.569.005 1.007.15 1.314.437.307.288.459.686.455 1.197-.004.51-.162.909-.473 1.196-.312.283-.752.421-1.321.417l-1.311-.01-.012 1.517a.525.525 0 0 1-.12.36c-.079.082-.197.123-.355.122zm.493-2.743l1.163.009c.334.003.587-.069.76-.215.173-.15.261-.371.263-.66.002-.29-.082-.509-.253-.658-.17-.148-.423-.224-.756-.226l-1.164-.009-.013 1.759zm119.855 2.699a.582.582 0 0 1-.331-.091.69.69 0 0 1-.204-.281l-1.888-4.329a.498.498 0 0 1-.042-.325.371.371 0 0 1 .156-.219.478.478 0 0 1 .281-.079c.142.001.247.034.316.098a.656.656 0 0 1 .182.274l1.713 4.055-.316-.002 1.769-4.036a.696.696 0 0 1 .193-.264.458.458 0 0 1 .31-.093.413.413 0 0 1 .264.083.35.35 0 0 1 .139.222.541.541 0 0 1-.055.323l-1.954 4.3a.696.696 0 0 1-.209.278.53.53 0 0 1-.324.086zm3.658.028a.476.476 0 0 1-.352-.128.518.518 0 0 1-.115-.362l.033-4.336c.001-.157.041-.277.121-.36.084-.083.202-.123.354-.122.152.001.267.044.345.128.083.084.124.204.122.361l-.033 4.337a.52.52 0 0 1-.121.36c-.079.082-.197.123-.354.122zm2.078.016a.476.476 0 0 1-.352-.128.518.518 0 0 1-.115-.362l.032-4.284c.002-.158.044-.275.128-.353.084-.083.203-.123.355-.122l1.774.013c.569.005 1.008.15 1.315.437.307.288.458.686.454 1.197-.004.51-.161.909-.473 1.196-.311.283-.752.421-1.321.417l-1.31-.01-.012 1.517a.52.52 0 0 1-.121.36c-.079.082-.197.123-.354.122zm.492-2.743l1.164.009c.333.003.587-.069.76-.215.173-.15.26-.371.262-.66.003-.29-.082-.509-.252-.658-.171-.148-.423-.224-.757-.226l-1.163-.009-.014 1.759zm-114.103-107.37c-.808-.007-1.5-.174-2.078-.501a3.35 3.35 0 0 1-1.311-1.398c-.304-.604-.452-1.314-.446-2.129.005-.61.097-1.156.277-1.639.18-.491.436-.908.769-1.25.334-.35.739-.615 1.218-.795a4.432 4.432 0 0 1 1.633-.274c.403.003.799.058 1.188.164.388.105.729.255 1.021.448a.706.706 0 0 1 .305.355.661.661 0 0 1 .03.397.621.621 0 0 1-.189.318.546.546 0 0 1-.343.151c-.132.006-.279-.042-.439-.146a2.44 2.44 0 0 0-.736-.325 3.254 3.254 0 0 0-.803-.106c-.521-.004-.963.099-1.324.309a2.008 2.008 0 0 0-.822.919c-.187.403-.283.898-.287 1.485-.005.58.083 1.077.264 1.489.18.413.449.727.808.943.358.215.797.325 1.319.329.279.002.554-.028.827-.092a3 3 0 0 0 .773-.325c.162-.094.306-.133.431-.118a.514.514 0 0 1 .329.135.584.584 0 0 1 .174.31.664.664 0 0 1-.025.374.698.698 0 0 1-.267.328 3.338 3.338 0 0 1-1.061.488 4.679 4.679 0 0 1-1.235.156zm4.601.013c-.228-.002-.407-.066-.538-.191-.124-.134-.185-.321-.183-.564l.048-6.355c.002-.242.066-.425.192-.549.133-.131.321-.196.563-.194l3.844.029c.191.002.334.051.429.147.094.096.141.232.14.409-.002.183-.051.326-.147.428-.096.095-.24.141-.43.14l-3.184-.025-.016 2.192 2.951.023c.184.001.323.05.418.146.102.097.152.233.151.409-.001.184-.054.326-.158.428-.096.095-.236.142-.419.14l-2.952-.022-.021 2.665c-.003.5-.233.747-.688.744zm81.909-.013c-.807-.007-1.5-.174-2.078-.501a3.35 3.35 0 0 1-1.311-1.398c-.303-.604-.452-1.314-.446-2.129.005-.61.097-1.156.277-1.639.18-.491.437-.908.77-1.25a3.22 3.22 0 0 1 1.217-.795 4.44 4.44 0 0 1 1.633-.274c.404.003.8.058 1.188.164.388.105.729.255 1.021.448a.708.708 0 0 1 .306.355.63.63 0 0 1-.16.715.546.546 0 0 1-.343.151c-.132.006-.278-.042-.439-.146a2.44 2.44 0 0 0-.736-.325 3.248 3.248 0 0 0-.803-.106c-.521-.004-.963.099-1.324.309a2.014 2.014 0 0 0-.822.919c-.187.403-.282.898-.287 1.485-.004.58.084 1.077.264 1.489a2 2 0 0 0 .808.943c.358.215.798.325 1.319.329a3.49 3.49 0 0 0 .827-.092 3 3 0 0 0 .773-.325c.163-.094.306-.133.431-.118a.514.514 0 0 1 .329.135.584.584 0 0 1 .174.31.656.656 0 0 1-.025.374.698.698 0 0 1-.267.328 3.338 3.338 0 0 1-1.061.488 4.674 4.674 0 0 1-1.235.156zm4.601.013c-.228-.002-.407-.066-.538-.191-.124-.134-.185-.321-.183-.564l.049-6.355c.002-.242.065-.425.191-.549.133-.131.321-.196.563-.194l3.844.029c.191.002.334.051.429.147.095.096.141.232.14.409-.001.183-.05.326-.147.428-.096.095-.239.141-.43.14l-3.183-.025-.017 2.192 2.952.023c.183.001.322.05.417.146.102.097.153.233.151.409-.001.184-.054.326-.157.428-.097.095-.236.142-.42.14l-2.952-.022-.02 2.665c-.004.5-.234.747-.689.744z" fill="#fff"/></g></g><defs><clipPath id="clip0_6445_189690"><path fill="#fff" d="M0 0h552.229v827H0z"/></clipPath><clipPath id="clip1_6445_189690"><path fill="#fff" transform="translate(162.896 263.212)" d="M0 0h212.309v300.024H0z"/></clipPath></defs></svg>