<svg width="264" height="172" viewBox="0 0 264 172" fill="none" xmlns="http://www.w3.org/2000/svg"><path d="M178.227 2H85.773A83.907 83.907 0 0 0 1.87 85.905c0 46.338 37.563 83.904 83.904 83.904h92.454a83.904 83.904 0 0 0 83.904-83.904C262.131 39.566 224.559 2 178.227 2zm17.505 110.694a36.506 36.506 0 0 1-25.898 10.708H97.485a36.637 36.637 0 0 1-26.11-10.612A36.638 36.638 0 0 1 60.53 86.774a36.629 36.629 0 0 1 36.954-36.627h72.349a36.63 36.63 0 0 1 25.898 62.547z" fill="#E0E0E0"/><path d="M206.46 86.787a36.625 36.625 0 0 1-36.626 36.615H97.485a36.636 36.636 0 0 1-26.11-10.612A36.637 36.637 0 0 1 60.53 86.774a36.628 36.628 0 0 1 36.954-36.627h72.349a36.63 36.63 0 0 1 25.904 10.733 36.615 36.615 0 0 1 10.722 25.907z" fill="#606060"/><path d="M178.227 2H85.773C39.434 2 1.87 39.565 1.87 85.905c0 46.339 37.565 83.904 83.904 83.904h92.454c46.339 0 83.904-37.565 83.904-83.904C262.131 39.565 224.566 2 178.227 2z" stroke="#fff" stroke-width="3.183" stroke-miterlimit="10"/><path d="M206.46 86.787a36.625 36.625 0 0 1-36.626 36.615H97.485a36.636 36.636 0 0 1-26.11-10.612A36.637 36.637 0 0 1 60.53 86.774a36.628 36.628 0 0 1 36.954-36.627h72.349a36.63 36.63 0 0 1 25.904 10.733 36.615 36.615 0 0 1 10.722 25.907z" stroke="#fff" stroke-width=".289" stroke-miterlimit="10"/><path d="M122.046 27.965l-1.959 20.272H96.886a38.726 38.726 0 0 0-7.235.677l-7.698-20.512 40.093-.437zm29.2 0l-2.124 20.272h-25.921l2.442-20.272h25.603zm25.71 0l-4.468 20.327a38.556 38.556 0 0 0-2.063-.055h-18.018l2.761-20.272h21.788zm15.798 3.38l-10.522 18.73a38.493 38.493 0 0 0-6.787-1.514l10.882-19.39 6.427 2.174zm15.034 7.298l-16.614 15.628a38.65 38.65 0 0 0-5.959-3.108l15.165-16.887 7.408 4.367zm10.983 11.516l-19.818 10.678a39.011 39.011 0 0 0-5.249-4.786l18.075-13.68c2.857 2.72 6.992 7.788 6.992 7.788zm7.579 12.999l-21.571 6.054a38.73 38.73 0 0 0-3.705-5.846l20.837-9.035c2.723 3.528 4.439 8.827 4.439 8.827zm4.286 15.783H208.22a38.264 38.264 0 0 0-2.154-6.945l22.782-3.183c1.571 3.7 1.788 10.128 1.788 10.128zm.304 12.338l-21.976-2.147a38.935 38.935 0 0 0-.258-7.301l22.234.68c.437 2.818 0 8.768 0 8.768zm-1.033 7.503c-.492 5.068-3.557 10.187-3.557 10.187L207.094 98.95a38.424 38.424 0 0 0 1.574-6.803l21.239 6.635zm-4.564 13.484l-5.909 9.666-17.011-13.483a38.472 38.472 0 0 0 3.69-6.856l19.23 10.673zm-9.006 12.852l-8.601 7.255-11.865-16.496a38.698 38.698 0 0 0 4.85-5.105l15.616 14.346zm-10.49 9.666l-12.138 6.04-7.061-18.939a38.427 38.427 0 0 0 6.714-3.982l12.485 16.881zm-14.994 6.919l-13.176 1.977-.646-18.793a38.458 38.458 0 0 0 7.423-2.064l6.399 18.88zm-15.653 1.976h-10.598l2.252-18.231h3.571c1.371 0 2.742-.072 4.106-.218l.669 18.449zm-10.679-18.232l-2.226 18.232-28.641-.437 4.208-17.795h26.659zm-29.628 0l-4.454 18.232h-28.888l7.102-18.232h26.24zm-29.322 0l-7.096 18.232H79.033l8.326-19.409a38.74 38.74 0 0 0 9.527 1.183l8.685-.006zm16.475-107.813l.984 7.813H79.829L72.701 3.615c8.19-1.86 50.5-.992 50.5-.992l2.35 15.01h-3.505zm44.197-1.364h-3.598l.866 9.191h-31.663l-.839-7.455h-2.729L126.048 2.42h40.195v13.85zm21.586-13.15l-1.612 14.018h-3.971l-.558 8.682a60.054 60.054 0 0 0-6.448-.348h-4.283V16.64h-2.483V2.434s11.663-.805 19.355.685zm.003 23.684l.121.017a17.612 17.612 0 0 1 6.454 2.336l.231-.455 3.363-6.59 3.597.747 7.692-14.142s-6.575-3.453-19.1-4.964l-2.356 13.645 2.605.498-2.605 8.922M227.65 19l-10.792 12.776-2.604-1.366-5.178 5.672a58.958 58.958 0 0 0-7.614-4.508l4.605-6.856-3.103-1.676 8.312-13.471c11.521 4.778 16.374 9.428 16.374 9.428zm15.509 15.285l-13.252 9.996-2.257-2.582-6.963 5.033a58.57 58.57 0 0 0-5.898-6.115l5.788-6.332-2.078-1.641 11.405-11.909c9.654 6.816 13.255 13.55 13.255 13.55zm11.48 18.631l-16.342 6.755-1.528-2.796-7.525 3.51a58.994 58.994 0 0 0-4.303-7.886l7.799-4.7-1.606-2.178 13.37-9.695c5.776 5.866 10.135 16.99 10.135 16.99zm5.99 20.956l-18.628 3.34-.547-2.834-7.666 1.534a58.887 58.887 0 0 0-1.994-8.81l8.144-2.419-.99-2.922 16.785-6.46c2.526 5.722 4.896 18.57 4.896 18.57z" fill="#C9C5C5"/><path d="M260.629 95.188h-19.065l.544-3.91-7.869-.474c.128-1.577.191-3.184.191-4.784v-1.369c0-.949-.023-1.894-.069-2.836h8.074l-.327-2.873 18.521-1.737c1.742 6.65 0 17.983 0 17.983z" fill="#0062CC"/><path d="M259.758 97.912c-.761 12.638-5.119 19.991-5.119 19.991l-17.433-6.135.764-3.282-7.134-2.118a58.735 58.735 0 0 0 2.359-8.268l7.932 1.447.437-2.507 18.194.872zm-5.947 21.84c-4.653 12.621-10.152 17.251-10.152 17.251l-15.477-9.787 1.713-2.489-6.974-3.641a59.14 59.14 0 0 0 5.467-8.994l7.188 3.661.978-2.223 17.257 6.222zm-12.097 19.083c-7.813 10.899-13.786 13.387-13.786 13.387l-12.444-12.542 2.665-2.668-5.542-5.102a59.143 59.143 0 0 0 6.393-6.049l6.343 5.279 1.737-2.136 14.634 9.831zm-35.254-2.269l5.276 5.959 2.147-1.702 12.531 12.823s-8.8 7.377-17.077 9.429l-9.087-14.496 2.668-1.604-4.347-6.152 7.889-4.257zm.634 27.131s-9.145 4.449-19.552 4.894l-4.804-15.213 3.904-1.158-2.677-7.666-.026-.072 7.962-1.69v.02l3.973 7.628 2.686-.978 8.534 14.235zm-21.274 4.894s-4.384.669-7.391.669v-24.064h.773l1.117 8.335 1.375-.171 4.126 15.231z" fill="#C9C5C5"/><path d="M191.901 142.792v.02a58.336 58.336 0 0 1-7.947 1.736l-.026-.072 7.973-1.684zm-.819-115.181c1.202.332 2.386.7 3.553 1.106l-.231.454a16.944 16.944 0 0 0-3.322-1.56z" fill="#C9C5C5"/><path d="M178.227 2H85.773C39.434 2 1.87 39.565 1.87 85.905c0 46.339 37.565 83.904 83.904 83.904h92.454c46.339 0 83.904-37.565 83.904-83.904C262.131 39.565 224.566 2 178.227 2z" stroke="#fff" stroke-width="3.183" stroke-miterlimit="10"/><path d="M206.46 86.787a36.625 36.625 0 0 1-36.626 36.615H97.485a36.636 36.636 0 0 1-26.11-10.612A36.637 36.637 0 0 1 60.53 86.774a36.628 36.628 0 0 1 36.954-36.627h72.349a36.63 36.63 0 0 1 25.904 10.733 36.615 36.615 0 0 1 10.722 25.907z" stroke="#fff" stroke-width=".289" stroke-miterlimit="10"/><path d="M206.46 86.787a36.625 36.625 0 0 1-36.626 36.615H97.485a36.636 36.636 0 0 1-26.11-10.612A36.637 36.637 0 0 1 60.53 86.774a36.628 36.628 0 0 1 36.954-36.627h72.349a36.63 36.63 0 0 1 25.904 10.733 36.615 36.615 0 0 1 10.722 25.907z" stroke="#fff" stroke-width="3.183" stroke-miterlimit="10"/><path d="M65.672 172v-29.209l112.757-.538v29.524L65.672 172zM179.54 58.611v58.079h-45.513V89.281l1.551-.251.038-1.201-1.589.246V58.61h45.513zm-46.193 0V88.18l-5.603.816V58.611h5.603zm0 30.781v27.298h-5.603V90.303l5.603-.911zm-6.572-30.781v30.506l-6.891.96.021-6.19-4.168.04V58.612h11.038zm0 31.852v26.228h-11.038V91.898l2.475-.04 8.563-1.395zm-12.056-31.852h-11.038v25.134h11.038V58.611zm0 33.304v24.776h-11.041V92.104l11.041-.189z" fill="#C9C5C5"/><path d="M135.387 88.13v.68l-.671.08-1.184.166-5.556.94-1.022.162-8.54 1.268-2.677.081-1.018-.04-11.041.121-1.238-.04v25.142H88.685V58.742l14.096-.13v25.692h16.811v6.115l7.183-1.042.969-.139 5.603-.813.68-.099 1.36-.196z" fill="#C9C5C5"/><path d="M98.06 94.844c0 .204-.017.407-.05.611a3.177 3.177 0 0 1-.131.576 2.37 2.37 0 0 1-.237.487.448.448 0 0 1-.43.208.423.423 0 0 1-.202-.09.316.316 0 0 1-.11-.188c-.015-.074.006-.155.062-.243.12-.204.208-.419.264-.646.055-.227.083-.465.083-.715 0-.366-.06-.632-.18-.799a.575.575 0 0 0-.48-.25c-.162 0-.29.06-.382.18-.092.116-.169.318-.229.605l-.16.764c-.092.44-.247.769-.465.986-.222.213-.514.32-.875.32a1.363 1.363 0 0 1-1.098-.528 1.814 1.814 0 0 1-.305-.604 2.589 2.589 0 0 1-.111-.778c0-.278.034-.542.104-.792.07-.25.171-.475.305-.674a.355.355 0 0 1 .188-.146.408.408 0 0 1 .222-.02c.07.013.13.046.18.097a.32.32 0 0 1 .091.194.424.424 0 0 1-.07.257 1.979 1.979 0 0 0-.208.521 2.471 2.471 0 0 0-.062.57c0 .213.03.395.09.548.06.153.146.271.257.355a.625.625 0 0 0 .382.118.52.52 0 0 0 .403-.167c.097-.111.174-.301.23-.57l.159-.757c.097-.458.25-.798.458-1.02.209-.228.487-.341.834-.341a1.305 1.305 0 0 1 1.07.528c.129.166.229.368.298.604.07.236.104.502.104.799zm-.015-4.218a.45.45 0 0 1-.118.334.494.494 0 0 1-.34.111h-3.75v1.354a.4.4 0 0 1-.098.285.391.391 0 0 1-.278.097c-.12 0-.21-.032-.27-.097a.4.4 0 0 1-.098-.285v-3.597a.38.38 0 0 1 .097-.278c.06-.07.15-.104.271-.104.116 0 .209.034.278.104.065.065.097.157.097.278v1.354h3.75c.144 0 .258.037.341.111.079.074.118.185.118.333zm0-2.194a.447.447 0 0 1-.076.27.313.313 0 0 1-.201.119.525.525 0 0 1-.292-.049l-4.063-1.833a.65.65 0 0 1-.285-.216.517.517 0 0 1 0-.583.627.627 0 0 1 .285-.222l4.063-1.84a.496.496 0 0 1 .291-.056.317.317 0 0 1 .209.118c.046.064.07.15.07.257 0 .13-.03.231-.091.305a.858.858 0 0 1-.292.188l-1.048.451.243-.375v2.931l-.243-.375 1.048.444a.89.89 0 0 1 .292.188c.06.065.09.157.09.278zm-3.986-1.993l2.312.972-.222.18v-2.32l.222.174-2.312.98v.014zm4-5.38c0 .542-.102 1-.305 1.376-.204.37-.494.652-.869.847-.375.194-.82.292-1.333.292-.39 0-.739-.056-1.049-.167a2.23 2.23 0 0 1-.792-.493 2.135 2.135 0 0 1-.507-.792 2.9 2.9 0 0 1-.18-1.056c0-.26.032-.518.097-.778a2.33 2.33 0 0 1 .313-.743.348.348 0 0 1 .187-.153.387.387 0 0 1 .23-.013.441.441 0 0 1 .194.104c.055.05.09.115.104.194a.377.377 0 0 1-.056.25 2.112 2.112 0 0 0-.291 1.14c0 .342.07.631.208.867.134.237.331.415.59.535.26.116.577.174.952.174.57 0 1.002-.137 1.299-.41.296-.273.444-.678.444-1.215 0-.186-.018-.373-.055-.563a3.778 3.778 0 0 0-.153-.556l.396.174h-1.48v.764a.38.38 0 0 1-.09.27.328.328 0 0 1-.243.091c-.107 0-.188-.03-.243-.09a.403.403 0 0 1-.084-.271v-1.146c0-.116.033-.204.098-.264.06-.065.148-.097.264-.097h1.687c.102 0 .188.02.257.062.07.037.12.1.153.188.074.204.137.438.188.701.046.264.07.524.07.778zm-.07-3.232a.502.502 0 0 1-.117.355.496.496 0 0 1-.355.118h-3.951c-.153 0-.27-.04-.348-.118a.483.483 0 0 1-.125-.355v-2.48c0-.115.03-.203.09-.263.06-.065.146-.097.257-.097.116 0 .207.032.271.097.06.06.09.148.09.264v2.097h1.348v-1.944c0-.12.03-.211.09-.271.06-.06.148-.09.264-.09.116 0 .204.03.264.09.06.06.09.15.09.27v1.945h1.424v-2.097c0-.116.03-.204.09-.264.06-.065.149-.097.264-.097.116 0 .204.032.264.097.06.06.09.148.09.264v2.48zm-1.869-63a.233.233 0 0 1-.166-.057.228.228 0 0 1-.056-.162c0-.07.018-.123.056-.158a.245.245 0 0 1 .166-.053h.454v-1.99h.251l-.595.361a.235.235 0 0 1-.146.037.226.226 0 0 1-.114-.057.258.258 0 0 1-.06-.113.214.214 0 0 1 .008-.13.236.236 0 0 1 .105-.113l.56-.337a1.13 1.13 0 0 1 .161-.08.368.368 0 0 1 .15-.037.21.21 0 0 1 .142.048c.038.03.057.08.057.15v2.261h.413a.23.23 0 0 1 .162.053c.04.035.06.088.06.158s-.02.124-.06.162c-.038.038-.092.057-.162.057H96.12zm2.43 0a.233.233 0 0 1-.166-.057.227.227 0 0 1-.057-.162c0-.07.019-.123.057-.158a.245.245 0 0 1 .166-.053h.453v-1.99h.252l-.596.361a.235.235 0 0 1-.146.037.226.226 0 0 1-.113-.057.257.257 0 0 1-.061-.113.214.214 0 0 1 .008-.13.236.236 0 0 1 .105-.113l.56-.337a1.14 1.14 0 0 1 .162-.08.368.368 0 0 1 .15-.037.21.21 0 0 1 .141.048c.038.03.057.08.057.15v2.261h.413c.071 0 .125.018.162.053.041.035.061.088.061.158s-.02.124-.061.162c-.037.038-.091.057-.162.057H98.55zm3.012.04c-.337 0-.595-.127-.773-.38-.179-.257-.268-.622-.268-1.095 0-.318.039-.586.118-.802.081-.219.198-.383.352-.494a.965.965 0 0 1 .571-.166c.341 0 .599.124.774.373.179.248.268.61.268 1.085 0 .316-.041.585-.122.807a1.05 1.05 0 0 1-.348.502.938.938 0 0 1-.572.17zm0-.425a.428.428 0 0 0 .406-.255c.089-.17.133-.437.133-.799 0-.362-.044-.624-.133-.786a.43.43 0 0 0-.406-.247.433.433 0 0 0-.405.247c-.089.162-.133.424-.133.786 0 .362.044.628.133.799.089.17.224.255.405.255zm-1.68 24.983a.234.234 0 0 1-.166-.056.228.228 0 0 1-.056-.163c0-.07.019-.122.056-.158a.245.245 0 0 1 .166-.052h.454v-1.99h.251l-.595.361a.235.235 0 0 1-.146.037.226.226 0 0 1-.113-.057.259.259 0 0 1-.061-.114.213.213 0 0 1 .008-.13.235.235 0 0 1 .105-.113l.559-.336c.054-.032.108-.06.162-.081a.368.368 0 0 1 .15-.037.21.21 0 0 1 .142.05c.038.029.057.079.057.15v2.26h.413a.23.23 0 0 1 .162.052c.041.036.061.088.061.158s-.02.125-.061.163a.223.223 0 0 1-.162.056h-1.386zm2.337 0c-.087 0-.15-.019-.191-.056-.038-.04-.056-.099-.056-.175 0-.046.012-.09.036-.133a.699.699 0 0 1 .105-.138l.815-.867a1.57 1.57 0 0 0 .267-.353.72.72 0 0 0 .081-.324c0-.135-.043-.237-.13-.308-.083-.07-.206-.105-.368-.105a.976.976 0 0 0-.276.04.946.946 0 0 0-.279.13.204.204 0 0 1-.138.04.194.194 0 0 1-.109-.052.23.23 0 0 1-.061-.11.229.229 0 0 1 .004-.129.233.233 0 0 1 .097-.117c.116-.079.246-.138.389-.179.146-.04.292-.06.438-.06.205 0 .378.03.518.093a.688.688 0 0 1 .32.271c.073.119.11.263.11.434a.994.994 0 0 1-.057.332 1.31 1.31 0 0 1-.166.328 2.55 2.55 0 0 1-.288.352l-.761.795v-.138h1.191c.073 0 .128.017.166.052.038.036.056.088.056.158s-.018.125-.056.163c-.038.037-.093.056-.166.056h-1.491zm3.211.04c-.235 0-.436-.055-.604-.165a1.06 1.06 0 0 1-.376-.486 2.006 2.006 0 0 1-.13-.766c0-.243.027-.458.081-.644.057-.19.138-.349.243-.479a1.02 1.02 0 0 1 .385-.295 1.278 1.278 0 0 1 .879-.045c.124.035.24.09.348.162a.19.19 0 0 1 .086.106.248.248 0 0 1-.053.239.183.183 0 0 1-.105.056.227.227 0 0 1-.142-.036.94.94 0 0 0-.503-.146.695.695 0 0 0-.397.11.679.679 0 0 0-.247.328 1.59 1.59 0 0 0-.081.546v.304h-.048a.834.834 0 0 1 .133-.352c.07-.1.16-.176.268-.227a.794.794 0 0 1 .36-.081c.165 0 .311.04.438.117a.828.828 0 0 1 .3.325.997.997 0 0 1 .109.474 1 1 0 0 1-.122.494.873.873 0 0 1-.332.34.963.963 0 0 1-.49.122zm-.028-.412a.491.491 0 0 0 .255-.065.436.436 0 0 0 .174-.183.602.602 0 0 0 .061-.275.586.586 0 0 0-.061-.276.436.436 0 0 0-.174-.182.469.469 0 0 0-.255-.069.47.47 0 0 0-.256.07.47.47 0 0 0-.174.181.598.598 0 0 0-.061.276c0 .102.021.194.061.275a.47.47 0 0 0 .43.248zm39.047-24.226a.234.234 0 0 1-.166-.057.227.227 0 0 1-.056-.162c0-.07.018-.123.056-.158a.246.246 0 0 1 .166-.053h.454v-1.99h.251l-.595.361a.236.236 0 0 1-.146.037.224.224 0 0 1-.113-.057.257.257 0 0 1-.061-.113.214.214 0 0 1 .008-.13.237.237 0 0 1 .105-.113l.559-.337c.054-.032.108-.059.162-.08a.368.368 0 0 1 .15-.037.21.21 0 0 1 .142.048c.038.03.057.08.057.15v2.261h.413a.23.23 0 0 1 .162.053c.041.035.061.088.061.158s-.02.124-.061.162c-.038.038-.092.057-.162.057h-1.386zm2.43 0a.233.233 0 0 1-.166-.057.227.227 0 0 1-.057-.162c0-.07.019-.123.057-.158a.244.244 0 0 1 .166-.053h.454v-1.99h.251l-.596.361a.235.235 0 0 1-.146.037.224.224 0 0 1-.113-.057.257.257 0 0 1-.061-.113.214.214 0 0 1 .008-.13.234.234 0 0 1 .106-.113l.559-.337c.054-.032.108-.059.162-.08a.368.368 0 0 1 .15-.037.21.21 0 0 1 .141.048c.038.03.057.08.057.15v2.261h.413c.071 0 .125.018.162.053.041.035.061.088.061.158s-.02.124-.061.162c-.037.038-.091.057-.162.057h-1.385zm2.429 0a.234.234 0 0 1-.166-.057.227.227 0 0 1-.057-.162c0-.07.019-.123.057-.158a.246.246 0 0 1 .166-.053h.454v-1.99h.251l-.595.361a.236.236 0 0 1-.146.037.227.227 0 0 1-.114-.057.257.257 0 0 1-.061-.113.214.214 0 0 1 .009-.13.232.232 0 0 1 .105-.113l.559-.337c.054-.032.108-.059.162-.08a.368.368 0 0 1 .15-.037.21.21 0 0 1 .142.048c.038.03.056.08.056.15v2.261h.414a.23.23 0 0 1 .162.053c.04.035.061.088.061.158s-.021.124-.061.162c-.038.038-.092.057-.162.057h-1.386zm-15.277 24.888a.233.233 0 0 1-.166-.057.227.227 0 0 1-.057-.162c0-.07.019-.123.057-.158a.244.244 0 0 1 .166-.053h.454v-1.989h.251l-.596.36a.234.234 0 0 1-.145.037.224.224 0 0 1-.114-.057.257.257 0 0 1-.061-.113.214.214 0 0 1 .008-.13.234.234 0 0 1 .106-.113l.559-.336a1.02 1.02 0 0 1 .162-.081.367.367 0 0 1 .15-.037.21.21 0 0 1 .142.049c.037.03.056.08.056.15v2.26h.414a.23.23 0 0 1 .162.053c.04.035.06.088.06.158s-.02.124-.06.162c-.038.038-.092.057-.162.057h-1.386zm2.336 0c-.086 0-.15-.02-.19-.057-.038-.04-.057-.099-.057-.174 0-.046.012-.09.036-.134a.753.753 0 0 1 .106-.138l.814-.867c.124-.13.214-.247.268-.352a.719.719 0 0 0 .081-.324c0-.135-.044-.238-.13-.308-.084-.07-.207-.105-.369-.105a.97.97 0 0 0-.275.04.965.965 0 0 0-.28.13.202.202 0 0 1-.138.04.197.197 0 0 1-.109-.052.238.238 0 0 1-.057-.24.24.24 0 0 1 .098-.117 1.34 1.34 0 0 1 .388-.178c.146-.04.292-.061.438-.061.205 0 .378.031.519.093.14.062.247.153.32.272a.813.813 0 0 1 .109.433.995.995 0 0 1-.057.332c-.035.108-.09.218-.166.328a2.6 2.6 0 0 1-.287.353l-.762.794v-.138h1.191c.073 0 .128.018.166.053.038.035.057.088.057.158s-.019.124-.057.162c-.038.038-.093.057-.166.057h-1.491zm2.587.032a.25.25 0 0 1-.153-.044.175.175 0 0 1-.073-.118.272.272 0 0 1 .036-.17l1.224-2.301v.178h-1.313a.238.238 0 0 1-.17-.057.213.213 0 0 1-.057-.158c0-.07.019-.124.057-.162a.238.238 0 0 1 .17-.056h1.568a.27.27 0 0 1 .178.056.198.198 0 0 1 .069.162.48.48 0 0 1-.024.158c-.016.044-.038.09-.065.142l-1.151 2.2a.29.29 0 0 1-.117.13.35.35 0 0 1-.179.04zm21.123.257a.233.233 0 0 1-.166-.057.227.227 0 0 1-.057-.162c0-.07.019-.123.057-.158a.244.244 0 0 1 .166-.053h.454v-1.989h.251l-.596.36a.235.235 0 0 1-.146.037.224.224 0 0 1-.113-.056.257.257 0 0 1-.061-.114.214.214 0 0 1 .008-.13.235.235 0 0 1 .106-.113l.559-.336a1.02 1.02 0 0 1 .162-.081.368.368 0 0 1 .15-.037.21.21 0 0 1 .142.049c.037.03.056.08.056.15v2.26h.413c.071 0 .125.018.163.053.04.035.06.088.06.158s-.02.124-.06.162c-.038.038-.092.057-.163.057h-1.385zm2.336 0c-.086 0-.15-.019-.19-.057-.038-.04-.057-.098-.057-.174 0-.046.012-.09.036-.134a.753.753 0 0 1 .106-.138l.814-.866c.124-.13.213-.248.267-.353a.72.72 0 0 0 .081-.324c0-.135-.043-.238-.129-.308-.084-.07-.207-.105-.369-.105a.964.964 0 0 0-.275.04.965.965 0 0 0-.28.13.203.203 0 0 1-.138.04.197.197 0 0 1-.109-.052.238.238 0 0 1-.057-.239.238.238 0 0 1 .097-.118c.117-.078.246-.138.389-.178.146-.04.292-.06.438-.06.205 0 .378.03.519.092.14.062.247.153.32.272a.813.813 0 0 1 .109.433.994.994 0 0 1-.057.332c-.035.108-.09.218-.166.329-.073.11-.169.228-.287.352l-.762.794v-.138h1.191c.073 0 .128.018.166.053.038.035.057.088.057.158s-.019.124-.057.162c-.038.038-.093.057-.166.057h-1.491zm3.106.04a1.55 1.55 0 0 1-.571-.093.82.82 0 0 1-.365-.28.75.75 0 0 1-.126-.437.74.74 0 0 1 .082-.356.694.694 0 0 1 .23-.256.773.773 0 0 1 .333-.121v.085a.73.73 0 0 1-.418-.247.725.725 0 0 1-.154-.462.693.693 0 0 1 .466-.677c.149-.062.323-.093.523-.093.203 0 .378.031.527.093a.693.693 0 0 1 .466.677.748.748 0 0 1-.073.328.684.684 0 0 1-.495.377V38.5a.723.723 0 0 1 .458.239c.119.13.178.294.178.494a.74.74 0 0 1-.129.438.788.788 0 0 1-.365.28 1.536 1.536 0 0 1-.567.092zm0-.405c.192 0 .336-.036.433-.11.098-.075.146-.186.146-.331 0-.146-.048-.256-.146-.328-.097-.073-.241-.11-.433-.11-.189 0-.334.037-.434.11-.097.072-.145.182-.145.328 0 .145.048.256.145.332.1.073.245.11.434.11zm0-1.284c.108 0 .2-.016.275-.049a.399.399 0 0 0 .175-.15.42.42 0 0 0 .06-.227c0-.13-.045-.23-.137-.303a.56.56 0 0 0-.373-.114.56.56 0 0 0-.373.114.371.371 0 0 0-.133.303c0 .133.044.237.133.313a.56.56 0 0 0 .373.113zm8.449-23.528a.233.233 0 0 1-.166-.057.227.227 0 0 1-.057-.162c0-.07.019-.123.057-.158a.244.244 0 0 1 .166-.053h.454v-1.99h.251l-.596.361a.234.234 0 0 1-.145.037.224.224 0 0 1-.114-.057.257.257 0 0 1-.061-.113.214.214 0 0 1 .008-.13.234.234 0 0 1 .106-.113l.559-.337c.054-.032.108-.059.162-.08a.368.368 0 0 1 .15-.037.21.21 0 0 1 .142.048c.037.03.056.08.056.15v2.261h.414a.23.23 0 0 1 .162.053c.04.035.06.088.06.158s-.02.124-.06.162c-.038.038-.092.057-.162.057h-1.386zm2.429 0a.234.234 0 0 1-.166-.057.227.227 0 0 1-.057-.162c0-.07.019-.123.057-.158a.246.246 0 0 1 .166-.053h.454v-1.99h.251l-.595.361a.236.236 0 0 1-.146.037.232.232 0 0 1-.114-.057.255.255 0 0 1-.06-.113.214.214 0 0 1 .008-.13.237.237 0 0 1 .105-.113l.559-.337c.054-.032.108-.059.162-.08a.368.368 0 0 1 .15-.037.21.21 0 0 1 .142.048c.038.03.057.08.057.15v2.261h.413a.23.23 0 0 1 .162.053c.041.035.061.088.061.158s-.02.124-.061.162c-.038.038-.092.057-.162.057h-1.386zm2.336 0c-.086 0-.149-.02-.19-.057-.038-.04-.057-.099-.057-.174 0-.046.012-.09.037-.134a.702.702 0 0 1 .105-.138l.815-.867a1.59 1.59 0 0 0 .267-.352.72.72 0 0 0 .081-.324c0-.135-.043-.238-.13-.308-.083-.07-.206-.106-.368-.106a.976.976 0 0 0-.276.04.948.948 0 0 0-.279.13.205.205 0 0 1-.138.041.2.2 0 0 1-.11-.053.228.228 0 0 1-.06-.109.23.23 0 0 1 .004-.13.234.234 0 0 1 .097-.117c.116-.079.246-.138.389-.178.146-.04.292-.061.437-.061.206 0 .379.03.519.093.14.062.247.153.32.271a.813.813 0 0 1 .109.434.994.994 0 0 1-.056.332 1.314 1.314 0 0 1-.166.328 2.517 2.517 0 0 1-.288.353l-.762.794v-.138h1.191c.073 0 .129.018.167.053.037.035.056.088.056.158s-.019.124-.056.162c-.038.038-.094.057-.167.057h-1.491zm5.661 27.116a.234.234 0 0 1-.128.12.229.229 0 0 1-.17-.028c-.062-.033-.099-.074-.112-.124a.245.245 0 0 1 .032-.172l.214-.4-1.752-.94.118-.221.036.695a.237.237 0 0 1-.036.146.232.232 0 0 1-.104.073.26.26 0 0 1-.129 0 .212.212 0 0 1-.11-.069.233.233 0 0 1-.05-.146l-.032-.652a1.199 1.199 0 0 1 .005-.181.362.362 0 0 1 .039-.15.21.21 0 0 1 .11-.101c.044-.02.097-.013.159.02l1.992 1.07.195-.364c.033-.062.074-.102.123-.118.05-.02.106-.012.168.02.062.034.1.077.114.131.016.051.007.108-.027.17l-.655 1.22zm1.105-2.059c-.041.076-.088.123-.14.141a.249.249 0 0 1-.18-.032.27.27 0 0 1-.101-.096.742.742 0 0 1-.072-.158l-.378-1.127a1.563 1.563 0 0 0-.185-.403.714.714 0 0 0-.247-.224c-.119-.064-.23-.075-.332-.032-.102.041-.191.133-.268.275a.964.964 0 0 0-.094.262.96.96 0 0 0-.018.308c.005.058-.004.105-.03.14a.196.196 0 0 1-.098.072.23.23 0 0 1-.125.002.233.233 0 0 1-.112-.065.238.238 0 0 1-.058-.141 1.348 1.348 0 0 1 .027-.427c.033-.148.084-.286.153-.415.098-.18.207-.318.328-.412a.69.69 0 0 1 .39-.154.812.812 0 0 1 .434.108c.1.054.189.123.266.208.079.082.149.182.211.301.063.117.121.257.174.42l.34 1.047-.122-.065.564-1.05c.034-.064.076-.104.125-.121.048-.017.104-.009.166.025.061.033.1.075.116.126.015.051.005.11-.029.173l-.705 1.314zm1.399-2.521c-.055.102-.127.2-.217.293a1.296 1.296 0 0 1-.311.228.19.19 0 0 1-.133.025.25.25 0 0 1-.115-.052.243.243 0 0 1-.069-.102.169.169 0 0 1 .002-.123.206.206 0 0 1 .095-.11.94.94 0 0 0 .366-.374.696.696 0 0 0 .092-.4.662.662 0 0 0-.175-.37 1.542 1.542 0 0 0-.441-.334l-.268-.143.023-.043a.79.79 0 0 1 .247.284c.055.11.081.224.077.345a.838.838 0 0 1-.102.354.829.829 0 0 1-.311.33.825.825 0 0 1-.427.111 1.016 1.016 0 0 1-.47-.128c-.164-.088-.29-.2-.38-.337a.885.885 0 0 1-.137-.455.962.962 0 0 1 .121-.492c.113-.21.257-.36.432-.453.176-.093.378-.127.607-.102.226.023.472.106.736.248.214.115.391.242.531.381.138.136.24.28.304.435.065.154.09.315.077.483a1.244 1.244 0 0 1-.154.5zm-1.232-.831a.463.463 0 0 0-.018-.497.618.618 0 0 0-.214-.185.595.595 0 0 0-.272-.076.437.437 0 0 0-.243.067.496.496 0 0 0-.178.194.462.462 0 0 0 .015.495c.05.073.121.135.214.184a.502.502 0 0 0 .518.011.489.489 0 0 0 .178-.193zm9.794 11.298a.233.233 0 0 1-.154.084.228.228 0 0 1-.158-.067c-.052-.047-.078-.096-.079-.148a.25.25 0 0 1 .073-.158l.305-.336-1.473-1.337.169-.186-.134.683a.232.232 0 0 1-.071.133.226.226 0 0 1-.118.046.26.26 0 0 1-.125-.032.213.213 0 0 1-.09-.093.234.234 0 0 1-.013-.154l.126-.64a1.26 1.26 0 0 1 .049-.174.376.376 0 0 1 .074-.136.21.21 0 0 1 .131-.072c.048-.008.097.011.149.058l1.675 1.52.277-.306a.23.23 0 0 1 .148-.085c.053-.006.106.014.158.061a.211.211 0 0 1 .079.154c.003.054-.02.106-.067.158l-.931 1.026zm2.017-2.162a1.938 1.938 0 0 1-.347.297 1.328 1.328 0 0 1-.401.19.274.274 0 0 1-.164-.002.223.223 0 0 1-.107-.075.236.236 0 0 1-.04-.118c0-.044.013-.085.04-.123a.277.277 0 0 1 .133-.092 1.46 1.46 0 0 0 .311-.15c.087-.06.167-.13.24-.21a.798.798 0 0 0 .165-.254.37.37 0 0 0 .015-.233.415.415 0 0 0-.131-.206c-.1-.09-.205-.124-.314-.1-.11.021-.223.095-.339.223l-.175.192c-.051.056-.104.087-.159.091a.214.214 0 0 1-.155-.064.215.215 0 0 1-.079-.148c-.001-.056.024-.111.075-.167l.142-.156a.645.645 0 0 0 .141-.228.408.408 0 0 0 .006-.224.407.407 0 0 0-.127-.197c-.092-.084-.19-.116-.294-.098-.103.017-.207.083-.312.199a1.086 1.086 0 0 0-.164.234 1.121 1.121 0 0 0-.1.298.22.22 0 0 1-.068.13.184.184 0 0 1-.113.045.214.214 0 0 1-.209-.119.23.23 0 0 1-.019-.154 1.32 1.32 0 0 1 .133-.4 1.54 1.54 0 0 1 .246-.361c.132-.146.269-.25.409-.313a.685.685 0 0 1 .784.126.683.683 0 0 1 .239.55.707.707 0 0 1-.089.303l-.036-.033a.72.72 0 0 1 .485-.172.711.711 0 0 1 .463.2.767.767 0 0 1 .24.388.82.82 0 0 1-.027.457 1.43 1.43 0 0 1-.298.474zm1.67-1.841c-.227.25-.494.355-.802.317-.31-.04-.639-.22-.989-.537a2.372 2.372 0 0 1-.516-.627 1.034 1.034 0 0 1-.129-.593.967.967 0 0 1 .261-.534c.229-.252.494-.36.796-.323.304.035.632.212.984.532.234.212.406.423.515.632.11.205.156.403.138.595a.93.93 0 0 1-.258.538zm-.315-.286a.426.426 0 0 0 .084-.472c-.067-.18-.234-.392-.502-.635s-.492-.386-.672-.43a.428.428 0 0 0-.455.135.435.435 0 0 0-.089.466c.06.175.224.384.492.627s.495.389.681.437c.186.049.34.006.461-.128zm6.541 10.773a.232.232 0 0 1-.171.037.224.224 0 0 1-.132-.11c-.036-.06-.047-.116-.033-.165a.248.248 0 0 1 .116-.13l.389-.233-1.02-1.708.216-.129-.327.615a.232.232 0 0 1-.106.106.229.229 0 0 1-.127.01.255.255 0 0 1-.11-.066.223.223 0 0 1-.06-.116.237.237 0 0 1 .033-.151l.307-.576c.03-.055.062-.106.098-.153a.364.364 0 0 1 .11-.108.208.208 0 0 1 .146-.03c.048.005.09.039.126.099l1.16 1.94.354-.211c.061-.036.116-.05.166-.038.053.009.098.044.134.104.036.06.046.117.031.17-.013.052-.05.096-.11.132l-1.19.711zm2.558-1.481a1.92 1.92 0 0 1-.418.184 1.31 1.31 0 0 1-.439.063.273.273 0 0 1-.156-.048.215.215 0 0 1-.08-.103.2.2 0 0 1 .07-.23.275.275 0 0 1 .154-.05c.125-.006.239-.024.341-.053.101-.032.197-.075.29-.13a.817.817 0 0 0 .233-.196.37.37 0 0 0 .081-.22.413.413 0 0 0-.065-.234c-.069-.116-.16-.178-.272-.187-.111-.012-.241.026-.389.115l-.223.133c-.065.039-.124.052-.178.04a.215.215 0 0 1-.13-.106.212.212 0 0 1-.032-.165c.015-.053.055-.099.12-.138l.181-.108a.648.648 0 0 0 .201-.177.407.407 0 0 0 .071-.212.403.403 0 0 0-.064-.226.34.34 0 0 0-.253-.18c-.103-.013-.222.02-.356.1a1.07 1.07 0 0 0-.407.433.223.223 0 0 1-.103.104.183.183 0 0 1-.121.01.215.215 0 0 1-.166-.175.227.227 0 0 1 .027-.152 1.551 1.551 0 0 1 .584-.618c.169-.101.33-.161.482-.18a.685.685 0 0 1 .713.348.674.674 0 0 1-.104.86l-.025-.042a.72.72 0 0 1 .514-.024.71.71 0 0 1 .384.328c.086.143.125.29.117.44a.811.811 0 0 1-.158.43c-.099.134-.24.256-.424.366zm1.613-1.011a.234.234 0 0 1-.172.036.23.23 0 0 1-.132-.11c-.036-.06-.046-.115-.032-.164a.244.244 0 0 1 .116-.13l.389-.234-1.02-1.707.215-.13-.326.616a.236.236 0 0 1-.106.106.23.23 0 0 1-.127.01.255.255 0 0 1-.11-.067.209.209 0 0 1-.06-.115.243.243 0 0 1 .032-.152l.308-.575c.03-.056.062-.107.097-.153a.374.374 0 0 1 .11-.108.212.212 0 0 1 .147-.031c.048.006.09.04.126.1l1.159 1.94.355-.212a.233.233 0 0 1 .166-.038c.053.01.097.045.133.105.036.06.047.117.031.17-.013.052-.049.096-.11.132l-1.189.71zm2.28 13.404a.235.235 0 0 1-.176-.007.227.227 0 0 1-.1-.14c-.02-.067-.016-.123.01-.167a.245.245 0 0 1 .144-.098l.436-.128-.561-1.908.241-.071-.47.514a.236.236 0 0 1-.129.076.227.227 0 0 1-.125-.022.26.26 0 0 1-.091-.092.212.212 0 0 1-.028-.127.234.234 0 0 1 .069-.138l.441-.48c.043-.047.087-.088.133-.124a.362.362 0 0 1 .134-.077.208.208 0 0 1 .149.006c.045.018.077.06.097.128l.637 2.17.397-.117c.067-.02.124-.019.17.004.049.023.083.068.103.135.02.067.016.125-.013.173-.025.047-.072.08-.139.1l-1.329.39zm2.847-.794c-.14.04-.29.066-.451.073a1.308 1.308 0 0 1-.441-.047.27.27 0 0 1-.139-.086.218.218 0 0 1-.052-.12.23.23 0 0 1 .027-.122.208.208 0 0 1 .098-.084.276.276 0 0 1 .162-.01c.123.026.238.038.344.035.105-.006.21-.024.313-.054a.806.806 0 0 0 .274-.132.368.368 0 0 0 .134-.19.415.415 0 0 0-.004-.245c-.038-.13-.11-.212-.217-.248-.104-.04-.24-.036-.405.013l-.249.073c-.073.022-.134.02-.183-.005a.213.213 0 0 1-.099-.136.212.212 0 0 1 .01-.167c.028-.048.078-.082.151-.104l.202-.06a.65.65 0 0 0 .239-.12.407.407 0 0 0 .122-.188.41.41 0 0 0-.006-.235.34.34 0 0 0-.2-.237c-.096-.039-.219-.037-.37.008a1.078 1.078 0 0 0-.502.316.218.218 0 0 1-.126.075.182.182 0 0 1-.12-.02.213.213 0 0 1-.116-.21.224.224 0 0 1 .064-.141c.09-.106.197-.196.321-.272.123-.079.256-.139.399-.18a1.24 1.24 0 0 1 .512-.054.686.686 0 0 1 .603.515.679.679 0 0 1-.316.807l-.014-.047a.72.72 0 0 1 .504.105c.14.092.236.23.29.413a.753.753 0 0 1-.258.832 1.407 1.407 0 0 1-.501.249zm1.725-.55c-.083.025-.149.025-.199 0-.048-.028-.082-.079-.104-.151a.282.282 0 0 1-.002-.139.729.729 0 0 1 .062-.161l.537-1.062c.083-.16.135-.297.157-.414a.717.717 0 0 0-.014-.333c-.038-.13-.108-.216-.211-.26-.1-.043-.228-.042-.383.004a.968.968 0 0 0-.253.116.96.96 0 0 0-.232.203.202.202 0 0 1-.121.078c-.04.006-.08 0-.119-.02a.235.235 0 0 1-.122-.213.23.23 0 0 1 .06-.14c.089-.108.197-.202.323-.28.128-.08.263-.141.403-.182.197-.058.371-.077.523-.057.153.02.281.076.384.17a.81.81 0 0 1 .227.385c.032.109.045.22.039.335a1.296 1.296 0 0 1-.066.361 2.573 2.573 0 0 1-.177.42l-.507.976-.039-.132 1.143-.336c.07-.02.128-.019.174.004.047.023.08.068.099.136a.221.221 0 0 1-.008.171c-.026.047-.074.08-.144.101l-1.43.42zm-1.477 12.028a.234.234 0 0 1-.17-.044.227.227 0 0 1-.069-.157c-.005-.07.01-.124.045-.162a.246.246 0 0 1 .162-.065l.452-.034-.148-1.983.25-.019-.567.404a.234.234 0 0 1-.142.047.229.229 0 0 1-.118-.048.258.258 0 0 1-.069-.109.213.213 0 0 1-.001-.13.232.232 0 0 1 .096-.12l.533-.377a1.01 1.01 0 0 1 .155-.093.367.367 0 0 1 .147-.048.209.209 0 0 1 .145.038c.04.027.063.075.068.145l.168 2.255.412-.031c.07-.005.126.008.166.04.043.032.067.084.072.154.005.07-.011.125-.048.166-.035.04-.088.063-.158.068l-1.381.103zm2.95-.18a1.87 1.87 0 0 1-.456-.022 1.304 1.304 0 0 1-.421-.14.267.267 0 0 1-.118-.112.217.217 0 0 1-.026-.128.228.228 0 0 1 .052-.114.204.204 0 0 1 .114-.061.275.275 0 0 1 .16.024c.115.051.224.086.329.106.104.016.21.02.318.013a.809.809 0 0 0 .295-.071.372.372 0 0 0 .171-.16.415.415 0 0 0 .047-.239c-.01-.134-.063-.23-.16-.288-.094-.06-.227-.085-.399-.072l-.259.02a.247.247 0 0 1-.178-.044.215.215 0 0 1-.068-.153.213.213 0 0 1 .045-.162c.037-.041.094-.064.169-.07l.21-.016a.64.64 0 0 0 .259-.068.406.406 0 0 0 .159-.158.402.402 0 0 0 .044-.23c-.009-.124-.058-.216-.146-.274-.086-.059-.207-.082-.363-.07a1.067 1.067 0 0 0-.558.204.219.219 0 0 1-.139.047.184.184 0 0 1-.113-.045.239.239 0 0 1-.068-.1.213.213 0 0 1-.002-.13.234.234 0 0 1 .093-.125c.11-.084.234-.15.371-.198a1.55 1.55 0 0 1 .428-.093c.196-.015.367.004.512.055a.685.685 0 0 1 .481.63.674.674 0 0 1-.478.722l-.003-.048a.718.718 0 0 1 .47.209.711.711 0 0 1 .197.465.762.762 0 0 1-.092.445.816.816 0 0 1-.334.314 1.42 1.42 0 0 1-.543.138zm2.423-.18c-.145.01-.298.003-.457-.023a1.312 1.312 0 0 1-.421-.14.278.278 0 0 1-.118-.112.216.216 0 0 1-.025-.128.228.228 0 0 1 .052-.114.205.205 0 0 1 .113-.061.278.278 0 0 1 .161.024c.114.051.224.087.328.106.105.016.21.02.318.013a.815.815 0 0 0 .296-.071.372.372 0 0 0 .171-.16.415.415 0 0 0 .047-.239c-.01-.134-.064-.23-.16-.288-.094-.06-.227-.085-.4-.072l-.258.02a.253.253 0 0 1-.178-.044.211.211 0 0 1-.068-.153.217.217 0 0 1 .044-.162.25.25 0 0 1 .17-.07l.21-.016a.646.646 0 0 0 .259-.068.412.412 0 0 0 .159-.158.41.41 0 0 0 .044-.23c-.01-.124-.059-.216-.147-.274-.085-.059-.206-.082-.363-.07a1.075 1.075 0 0 0-.557.204.223.223 0 0 1-.139.047.184.184 0 0 1-.113-.045.222.222 0 0 1-.07-.23.237.237 0 0 1 .092-.125 1.559 1.559 0 0 1 .799-.291 1.25 1.25 0 0 1 .512.055.683.683 0 0 1 .482.63.676.676 0 0 1-.478.722l-.004-.048a.723.723 0 0 1 .471.209.711.711 0 0 1 .197.465.762.762 0 0 1-.093.445.804.804 0 0 1-.334.314 1.41 1.41 0 0 1-.542.138zm-3.997 11.254a.234.234 0 0 1-.159-.075.226.226 0 0 1-.038-.167c.008-.07.032-.12.074-.15a.245.245 0 0 1 .171-.035l.451.05.22-1.976.25.027-.632.293a.236.236 0 0 1-.149.02.23.23 0 0 1-.107-.07.258.258 0 0 1-.048-.119.213.213 0 0 1 .023-.127.237.237 0 0 1 .117-.102l.593-.272c.057-.026.114-.047.17-.062a.366.366 0 0 1 .153-.02.212.212 0 0 1 .136.064c.034.034.047.085.039.155l-.25 2.247.411.046a.231.231 0 0 1 .155.07c.036.04.051.094.043.164s-.034.121-.079.154c-.041.034-.097.046-.167.039l-1.377-.154zm2.933.368a1.92 1.92 0 0 1-.444-.107 1.299 1.299 0 0 1-.388-.214.266.266 0 0 1-.095-.133.216.216 0 0 1-.002-.13.225.225 0 0 1 .072-.103.208.208 0 0 1 .123-.04c.049 0 .1.019.153.055.103.071.205.126.304.164.099.035.202.06.31.071a.808.808 0 0 0 .303-.015.366.366 0 0 0 .197-.125.407.407 0 0 0 .091-.226c.015-.134-.02-.239-.104-.313-.081-.077-.207-.125-.379-.144l-.258-.03c-.075-.008-.131-.033-.167-.075a.217.217 0 0 1-.039-.163.215.215 0 0 1 .074-.15.248.248 0 0 1 .18-.038l.209.023a.645.645 0 0 0 .267-.019.405.405 0 0 0 .185-.126.401.401 0 0 0 .086-.219c.014-.123-.017-.222-.093-.295-.074-.074-.188-.12-.344-.137a1.073 1.073 0 0 0-.586.098.22.22 0 0 1-.145.02.186.186 0 0 1-.103-.064.23.23 0 0 1-.048-.111.212.212 0 0 1 .022-.128.23.23 0 0 1 .114-.106 1.557 1.557 0 0 1 .839-.139c.196.022.36.072.493.15a.684.684 0 0 1 .357.708.673.673 0 0 1-.603.622l.005-.05a.72.72 0 0 1 .424.293.715.715 0 0 1 .108.493.76.76 0 0 1-.173.42.81.81 0 0 1-.386.247 1.42 1.42 0 0 1-.559.036zm2.927.318a.266.266 0 0 1-.182-.086c-.041-.05-.056-.117-.047-.2l.035-.315-.995-.11a.351.351 0 0 1-.195-.075c-.044-.04-.062-.098-.054-.173a.376.376 0 0 1 .048-.138 1.5 1.5 0 0 1 .147-.187l1.282-1.476a.433.433 0 0 1 .139-.115.284.284 0 0 1 .162-.026.246.246 0 0 1 .166.083c.041.046.056.112.047.201l-.184 1.647.197.022c.078.009.134.034.167.076.037.039.051.094.043.163-.008.07-.034.122-.078.155-.042.03-.101.041-.179.033l-.198-.022-.035.314a.263.263 0 0 1-.09.186.264.264 0 0 1-.196.043zm-.146-1.027l.14-1.257.116.013-1.105 1.288.015-.137.834.093zm-7.762 12.597a.232.232 0 0 1-.123-.125.228.228 0 0 1 .022-.17c.031-.063.072-.102.122-.116a.245.245 0 0 1 .172.028l.405.203.893-1.777.225.112-.695.055a.233.233 0 0 1-.146-.033.222.222 0 0 1-.076-.101.267.267 0 0 1-.004-.129.215.215 0 0 1 .066-.112.234.234 0 0 1 .145-.054l.651-.05c.062-.004.123-.004.181 0a.367.367 0 0 1 .15.035.209.209 0 0 1 .105.107c.02.044.015.097-.017.16l-1.014 2.02.369.185c.063.032.103.072.121.12.02.05.015.106-.017.169a.21.21 0 0 1-.127.117c-.05.017-.107.01-.17-.022l-1.238-.622zm2.623 1.363a1.923 1.923 0 0 1-.38-.254 1.305 1.305 0 0 1-.289-.336.266.266 0 0 1-.043-.157.22.22 0 0 1 .043-.124.23.23 0 0 1 .104-.07.203.203 0 0 1 .128.006.273.273 0 0 1 .125.103c.073.103.148.19.228.26.081.067.17.126.266.174a.808.808 0 0 0 .29.091.367.367 0 0 0 .228-.048.421.421 0 0 0 .164-.181c.06-.12.064-.23.011-.33-.049-.1-.151-.19-.306-.267l-.231-.116a.249.249 0 0 1-.131-.13.215.215 0 0 1 .021-.166.214.214 0 0 1 .121-.115.245.245 0 0 1 .181.027l.189.094a.64.64 0 0 0 .257.075.407.407 0 0 0 .217-.054.408.408 0 0 0 .157-.175.341.341 0 0 0 .015-.31c-.044-.094-.135-.177-.275-.247a1.095 1.095 0 0 0-.27-.095 1.114 1.114 0 0 0-.314-.017.221.221 0 0 1-.143-.03.182.182 0 0 1-.074-.097.215.215 0 0 1 .059-.234.233.233 0 0 1 .143-.059 1.56 1.56 0 0 1 .835.161c.176.089.313.192.411.31a.688.688 0 0 1 .089.79.673.673 0 0 1-.782.374l.022-.045a.72.72 0 0 1 .296.421.709.709 0 0 1-.069.5.77.77 0 0 1-.309.335.812.812 0 0 1-.448.097 1.415 1.415 0 0 1-.536-.161zm2.243 1.127a1.765 1.765 0 0 1-.365-.247 1.422 1.422 0 0 1-.288-.339.269.269 0 0 1-.043-.149.261.261 0 0 1 .049-.125.236.236 0 0 1 .106-.074.194.194 0 0 1 .126 0 .25.25 0 0 1 .118.1 1.207 1.207 0 0 0 .487.44c.101.05.197.076.288.076.09 0 .171-.022.242-.068a.49.49 0 0 0 .173-.199.497.497 0 0 0 .041-.388.504.504 0 0 0-.273-.296.73.73 0 0 0-.524-.05.494.494 0 0 1-.112.016.261.261 0 0 1-.122-.029c-.06-.03-.098-.069-.114-.116a.2.2 0 0 1 .019-.154l.594-1.184c.033-.065.075-.106.126-.123a.23.23 0 0 1 .179.022l1.191.599c.065.032.106.074.123.125.021.05.015.106-.017.168a.205.205 0 0 1-.125.114c-.051.017-.108.01-.174-.024l-.941-.472-.407.81-.12-.06a.685.685 0 0 1 .348-.07.93.93 0 0 1 .375.103.9.9 0 0 1 .367.316c.087.128.132.27.135.426a.956.956 0 0 1-.111.474.957.957 0 0 1-.334.385.886.886 0 0 1-.471.136c-.173 0-.355-.047-.546-.143zm-9.509 8.501a.234.234 0 0 1-.118-.13.229.229 0 0 1 .029-.169c.034-.061.076-.098.126-.111a.246.246 0 0 1 .171.035l.397.219.964-1.74.219.122-.695.027a.238.238 0 0 1-.146-.039.224.224 0 0 1-.071-.105.252.252 0 0 1 .001-.128.22.22 0 0 1 .07-.11.236.236 0 0 1 .147-.048l.652-.024c.063-.002.124.001.181.008a.358.358 0 0 1 .149.041c.05.027.083.064.101.111.018.044.011.097-.023.159l-1.095 1.978.361.2c.062.034.101.075.117.124.018.051.01.106-.024.168-.034.061-.077.099-.131.112-.052.015-.108.005-.17-.029l-1.212-.671zm2.567 1.467a1.9 1.9 0 0 1-.37-.269 1.324 1.324 0 0 1-.275-.347.265.265 0 0 1-.037-.159.231.231 0 0 1 .048-.122.24.24 0 0 1 .107-.066.203.203 0 0 1 .128.011.277.277 0 0 1 .12.108c.069.106.141.195.218.269.078.071.164.132.259.185a.822.822 0 0 0 .285.102.37.37 0 0 0 .231-.039.414.414 0 0 0 .17-.174c.065-.118.074-.228.025-.329-.046-.102-.144-.195-.295-.279l-.227-.126c-.066-.036-.108-.081-.125-.134a.21.21 0 0 1 .027-.165.213.213 0 0 1 .126-.111c.054-.014.114-.002.18.035l.184.102c.09.049.175.078.254.085a.416.416 0 0 0 .22-.046.404.404 0 0 0 .163-.169.337.337 0 0 0 .027-.309c-.039-.096-.127-.182-.264-.257a1.078 1.078 0 0 0-.579-.135.22.22 0 0 1-.141-.037.184.184 0 0 1-.071-.099.217.217 0 0 1 .068-.231.231.231 0 0 1 .146-.054c.138-.01.278.003.419.038.142.032.278.084.408.156.173.096.306.205.398.327a.68.68 0 0 1 .058.791.679.679 0 0 1-.796.342l.024-.042a.723.723 0 0 1 .279.432.712.712 0 0 1-.09.497.757.757 0 0 1-.773.401 1.409 1.409 0 0 1-.529-.182zm2.267 1.255a1.074 1.074 0 0 1-.448-.437 1.066 1.066 0 0 1-.094-.608c.027-.226.112-.471.258-.733.117-.213.245-.387.382-.524a1.38 1.38 0 0 1 .445-.301c.155-.062.315-.086.48-.072a1.262 1.262 0 0 1 .79.386c.092.091.168.195.227.311a.188.188 0 0 1 .023.133.238.238 0 0 1-.059.116.23.23 0 0 1-.103.068.187.187 0 0 1-.119-.001.233.233 0 0 1-.107-.101.923.923 0 0 0-.369-.371.686.686 0 0 0-.4-.096.672.672 0 0 0-.375.167c-.118.101-.23.248-.336.439l-.147.266-.043-.023a.84.84 0 0 1 .288-.244.688.688 0 0 1 .344-.069c.121.005.239.04.355.104a.816.816 0 0 1 .326.314c.073.13.108.273.105.429a1.004 1.004 0 0 1-.134.468.99.99 0 0 1-.346.373.864.864 0 0 1-.455.137.956.956 0 0 1-.488-.131zm.175-.375a.5.5 0 0 0 .255.067.437.437 0 0 0 .241-.075.602.602 0 0 0 .186-.212.598.598 0 0 0 .081-.27.44.44 0 0 0-.064-.244.469.469 0 0 0-.19-.184.469.469 0 0 0-.257-.063.464.464 0 0 0-.241.075.594.594 0 0 0-.186.211.609.609 0 0 0-.081.271.474.474 0 0 0 .256.424zm-13.196 6.239a.234.234 0 0 1-.054-.167.229.229 0 0 1 .096-.142c.056-.042.109-.059.16-.05.053.012.1.046.142.102l.272.363 1.592-1.192.151.201-.646-.26a.239.239 0 0 1-.116-.095.226.226 0 0 1-.023-.125.263.263 0 0 1 .055-.117.216.216 0 0 1 .108-.071.24.24 0 0 1 .154.016l.605.246c.058.024.112.051.161.082a.364.364 0 0 1 .12.098.21.21 0 0 1 .046.142c-.002.049-.03.094-.086.136l-1.81 1.354.247.331c.042.056.061.11.055.162-.004.053-.034.101-.09.143-.056.042-.111.058-.166.048-.053-.007-.1-.039-.143-.095l-.83-1.11zm1.739 2.391a1.928 1.928 0 0 1-.226-.397 1.291 1.291 0 0 1-.109-.43.27.27 0 0 1 .031-.16.227.227 0 0 1 .094-.091.233.233 0 0 1 .124-.017.2.2 0 0 1 .113.063.274.274 0 0 1 .065.148c.019.124.049.236.088.334.042.097.096.188.161.275a.825.825 0 0 0 .218.211c.075.045.15.065.226.058a.41.41 0 0 0 .227-.089c.108-.08.161-.177.158-.289 0-.112-.051-.237-.155-.376l-.155-.207c-.045-.061-.065-.119-.059-.174a.215.215 0 0 1 .092-.14.215.215 0 0 1 .161-.049c.054.01.104.045.15.105l.126.169a.64.64 0 0 0 .197.182.394.394 0 0 0 .436-.039c.1-.074.151-.164.152-.27.004-.104-.042-.219-.136-.344a1.048 1.048 0 0 0-.472-.36.218.218 0 0 1-.114-.092.185.185 0 0 1-.023-.119.216.216 0 0 1 .156-.183.228.228 0 0 1 .155.011 1.56 1.56 0 0 1 .675.516c.119.158.195.312.229.462a.68.68 0 0 1-.272.745.681.681 0 0 1-.866-.015l.039-.029c.09.175.116.345.077.509a.712.712 0 0 1-.285.416.76.76 0 0 1-.426.162.81.81 0 0 1-.444-.113 1.412 1.412 0 0 1-.408-.383zm1.185 1.57a.248.248 0 0 1-.056-.15.173.173 0 0 1 .05-.128.269.269 0 0 1 .158-.073l2.576-.4-.143.107-.786-1.051a.238.238 0 0 1-.057-.17.211.211 0 0 1 .093-.14.22.22 0 0 1 .163-.052.24.24 0 0 1 .148.103l.939 1.255a.274.274 0 0 1 .062.177.2.2 0 0 1-.089.152.484.484 0 0 1-.141.075 1.207 1.207 0 0 1-.152.033l-2.451.397a.287.287 0 0 1-.174-.016.353.353 0 0 1-.14-.119zm-12.225 2.869a.231.231 0 0 1-.019-.174.223.223 0 0 1 .123-.12c.063-.03.119-.035.167-.016a.249.249 0 0 1 .118.128l.192.411 1.802-.844.106.228-.579-.387a.24.24 0 0 1-.095-.116.22.22 0 0 1 .004-.127.244.244 0 0 1 .077-.103.213.213 0 0 1 .12-.048.245.245 0 0 1 .148.047l.542.364c.052.035.099.073.142.112a.36.36 0 0 1 .096.121c.024.051.03.101.016.149-.011.047-.048.085-.111.115l-2.048.959.176.374c.029.064.036.12.021.169-.015.052-.054.092-.118.122a.211.211 0 0 1-.172.014c-.05-.018-.09-.059-.12-.123l-.588-1.255zm1.217 2.694a1.912 1.912 0 0 1-.141-.435 1.285 1.285 0 0 1-.019-.442.272.272 0 0 1 .063-.151.225.225 0 0 1 .111-.07.24.24 0 0 1 .125.009c.04.017.073.045.097.084a.272.272 0 0 1 .034.159 1.41 1.41 0 0 0 .019.344c.021.104.055.204.101.302a.8.8 0 0 0 .171.251.36.36 0 0 0 .209.103.41.41 0 0 0 .24-.041c.123-.057.194-.141.214-.252.023-.109-.002-.242-.075-.398l-.11-.235c-.032-.069-.04-.129-.023-.182a.216.216 0 0 1 .119-.119.217.217 0 0 1 .167-.015c.052.02.093.065.126.134l.089.19a.627.627 0 0 0 .156.218c.062.051.13.082.204.092a.4.4 0 0 0 .231-.041.338.338 0 0 0 .204-.234c.024-.101.003-.222-.064-.364a1.053 1.053 0 0 0-.389-.449.224.224 0 0 1-.093-.112.182.182 0 0 1 .002-.122.21.21 0 0 1 .19-.147.23.23 0 0 1 .149.042 1.556 1.556 0 0 1 .557.643c.083.178.127.344.13.498a.682.682 0 0 1-.418.674.678.678 0 0 1-.845-.19l.044-.02a.72.72 0 0 1-.028.514.71.71 0 0 1-.364.349.763.763 0 0 1-.449.072.805.805 0 0 1-.412-.201 1.417 1.417 0 0 1-.322-.458zm1.055 2.252a1.566 1.566 0 0 1-.158-.557.82.82 0 0 1 .098-.449.756.756 0 0 1 .343-.299.701.701 0 0 1 .687.023c.1.06.183.143.251.249l-.077.036a.724.724 0 0 1 .046-.483.725.725 0 0 1 .353-.335.693.693 0 0 1 .811.135c.119.108.221.253.306.434.086.183.132.355.139.516a.696.696 0 0 1-.415.709.728.728 0 0 1-.636-.002.672.672 0 0 1-.243-.212l.073-.035a.724.724 0 0 1-.022.516.7.7 0 0 1-.372.371.735.735 0 0 1-.859-.143 1.548 1.548 0 0 1-.325-.474zm.367-.172c.081.174.175.289.283.346.109.056.23.053.362-.009.132-.062.211-.152.236-.271.024-.119-.004-.265-.085-.439-.08-.171-.175-.287-.283-.346-.107-.057-.227-.055-.359.007-.132.062-.212.153-.239.273-.024.121.004.268.085.439zm1.163-.545a.694.694 0 0 0 .161.229.386.386 0 0 0 .209.094.416.416 0 0 0 .231-.041.366.366 0 0 0 .217-.254c.031-.112.012-.241-.055-.385a.562.562 0 0 0-.261-.29.37.37 0 0 0-.332.008.389.389 0 0 0-.226.253.562.562 0 0 0 .056.386zm-14.662-.312a.236.236 0 0 1 .034-.172.227.227 0 0 1 .153-.078c.07-.01.124.002.164.035.04.035.065.087.075.157l.061.45 1.971-.27.034.249-.438-.541a.24.24 0 0 1-.056-.14.233.233 0 0 1 .041-.12.263.263 0 0 1 .104-.076.221.221 0 0 1 .13-.009c.048.012.09.042.127.089l.409.508c.039.049.073.099.102.15.031.05.05.098.056.143a.207.207 0 0 1-.029.147c-.024.042-.071.067-.14.077l-2.24.306.056.41a.233.233 0 0 1-.031.168c-.029.044-.078.072-.148.081a.21.21 0 0 1-.169-.038c-.042-.032-.068-.083-.078-.153l-.188-1.373zm.361 2.934a1.879 1.879 0 0 1-.005-.457 1.3 1.3 0 0 1 .113-.428.265.265 0 0 1 .105-.125.228.228 0 0 1 .127-.034c.044.005.083.02.116.046a.198.198 0 0 1 .068.109.279.279 0 0 1-.014.161 1.49 1.49 0 0 0-.086.335c-.01.105-.007.211.007.318a.812.812 0 0 0 .089.291c.043.075.1.129.169.16.07.034.151.045.242.033.134-.019.226-.078.278-.177.055-.098.071-.232.047-.403l-.035-.257a.25.25 0 0 1 .033-.181.214.214 0 0 1 .149-.077c.067-.009.121.002.164.035.043.035.069.09.08.164l.028.209a.65.65 0 0 0 .084.255.41.41 0 0 0 .168.148.404.404 0 0 0 .233.03c.123-.017.211-.071.264-.163.053-.089.069-.211.048-.367a1.1 1.1 0 0 0-.075-.276 1.144 1.144 0 0 0-.163-.268.22.22 0 0 1-.056-.135c0-.044.012-.082.038-.116a.227.227 0 0 1 .096-.074.21.21 0 0 1 .129-.01c.048.01.091.038.131.085a1.561 1.561 0 0 1 .339.779c.027.196.019.367-.023.515a.685.685 0 0 1-.6.519.733.733 0 0 1-.318-.022.669.669 0 0 1-.432-.411l.048-.006a.719.719 0 0 1-.18.482.712.712 0 0 1-.451.226.765.765 0 0 1-.451-.066.806.806 0 0 1-.333-.314 1.418 1.418 0 0 1-.171-.533zm.307 2.243a1.316 1.316 0 0 1 .003-.365c.021-.128.06-.25.117-.367a.188.188 0 0 1 .093-.099.247.247 0 0 1 .123-.025.264.264 0 0 1 .117.041.178.178 0 0 1 .071.101.215.215 0 0 1-.013.145 1.081 1.081 0 0 0-.078.272.964.964 0 0 0 .001.246.696.696 0 0 0 .162.378.654.654 0 0 0 .359.196c.154.036.339.04.553.011l.301-.042.007.049a.804.804 0 0 1-.368-.085.712.712 0 0 1-.265-.234.833.833 0 0 1-.125-.347.828.828 0 0 1 .057-.449.833.833 0 0 1 .281-.341c.129-.091.281-.149.455-.173.184-.025.353-.008.505.05a.882.882 0 0 1 .379.287.96.96 0 0 1 .191.469c.032.236.004.442-.083.621a1.033 1.033 0 0 1-.431.439 2.009 2.009 0 0 1-.741.232 2.272 2.272 0 0 1-.653.004 1.344 1.344 0 0 1-.503-.173 1.026 1.026 0 0 1-.345-.345 1.242 1.242 0 0 1-.17-.496zm1.485-.052a.457.457 0 0 0 .307.391c.086.029.18.037.281.023a.595.595 0 0 0 .265-.097.435.435 0 0 0 .157-.198.49.49 0 0 0 .03-.261.47.47 0 0 0-.303-.392.58.58 0 0 0-.282-.023.611.611 0 0 0-.264.097.503.503 0 0 0-.161.198.494.494 0 0 0-.03.262zm-14.273-3.549a.237.237 0 0 1 .067-.162.223.223 0 0 1 .165-.048c.07.004.121.026.154.066a.245.245 0 0 1 .043.169l-.026.453 1.986.116-.015.251-.325-.616a.234.234 0 0 1-.028-.148.239.239 0 0 1 .063-.11.273.273 0 0 1 .117-.054.213.213 0 0 1 .129.016c.045.022.08.059.107.112l.303.578c.029.055.053.111.072.166.021.055.03.106.027.152a.213.213 0 0 1-.056.139c-.032.036-.083.052-.153.047l-2.257-.131-.024.412c-.005.071-.025.123-.062.159-.038.039-.092.056-.162.052-.07-.004-.123-.028-.158-.071-.036-.039-.051-.094-.047-.165l.08-1.383zm-.234 3.463a.266.266 0 0 1 .076-.186c.048-.044.114-.063.198-.058l.316.019.058-.999a.357.357 0 0 1 .064-.2c.038-.046.095-.067.17-.063.043.003.09.016.14.041.05.027.115.073.195.137l1.541 1.202a.444.444 0 0 1 .122.133.278.278 0 0 1 .035.16.246.246 0 0 1-.074.17c-.044.044-.11.063-.199.058l-1.654-.097-.011.198c-.005.079-.027.136-.067.171-.038.039-.091.056-.162.052-.07-.005-.122-.028-.158-.071-.033-.039-.047-.098-.042-.177l.011-.198-.315-.018a.264.264 0 0 1-.19-.08.264.264 0 0 1-.054-.194zm1.018-.2l1.262.073-.007.117-1.343-1.036.137.008-.049.838zm-1.141 2.168c.02-.337.162-.588.425-.751.267-.163.636-.23 1.108-.203.318.019.583.073.794.164.214.094.371.221.473.381a.968.968 0 0 1 .133.58c-.02.339-.159.59-.418.75-.258.164-.624.232-1.099.204a2.344 2.344 0 0 1-.798-.168 1.055 1.055 0 0 1-.481-.377.94.94 0 0 1-.137-.58zm.425.024a.426.426 0 0 0 .231.42c.165.099.428.159.789.18.362.021.626-.008.793-.088a.43.43 0 0 0 .27-.39.435.435 0 0 0-.223-.419c-.157-.098-.416-.158-.777-.179-.361-.021-.63.008-.805.087-.175.079-.268.209-.278.389zm-21.791-2.638a.238.238 0 0 1-.166-.056.229.229 0 0 1-.057-.162c0-.071.019-.123.057-.158a.242.242 0 0 1 .166-.053h.454v-1.989h.251l-.595.36a.238.238 0 0 1-.146.037.229.229 0 0 1-.114-.057.256.256 0 0 1-.06-.114.212.212 0 0 1 .008-.129.239.239 0 0 1 .105-.114l.559-.336c.054-.032.108-.059.162-.081a.372.372 0 0 1 .15-.036c.057 0 .104.016.142.048.038.03.057.08.057.15v2.261h.413c.07 0 .124.017.162.053.04.035.061.087.061.158 0 .07-.021.124-.061.162a.223.223 0 0 1-.162.056h-1.386zm3.471.033a.27.27 0 0 1-.191-.065.267.267 0 0 1-.068-.195v-.316h-1.001a.356.356 0 0 1-.203-.052c-.048-.035-.073-.091-.073-.166a.36.36 0 0 1 .033-.142c.024-.051.066-.119.125-.203l1.11-1.608c.038-.057.08-.1.126-.13a.283.283 0 0 1 .158-.044c.07 0 .128.021.174.064.046.041.069.106.069.195v1.657h.199c.078 0 .136.019.174.057.04.035.061.087.061.158 0 .07-.021.124-.061.162-.038.035-.096.052-.174.052h-.199v.316a.264.264 0 0 1-.069.195.267.267 0 0 1-.19.065zm-.259-1.005v-1.264h.117l-.956 1.402v-.138h.839zm1.647.972a.236.236 0 0 1-.166-.056.229.229 0 0 1-.057-.162c0-.071.019-.123.057-.158a.24.24 0 0 1 .166-.053h.454v-1.989h.251l-.596.36a.235.235 0 0 1-.145.037.22.22 0 0 1-.114-.057.258.258 0 0 1-.061-.114.212.212 0 0 1 .008-.129.236.236 0 0 1 .106-.114l.559-.336c.054-.032.108-.059.162-.081a.372.372 0 0 1 .15-.036c.057 0 .104.016.142.048.037.03.056.08.056.15v2.261h.414c.07 0 .124.017.162.053.04.035.06.087.06.158 0 .07-.02.124-.06.162a.223.223 0 0 1-.162.056h-1.386zm-37.052.859a.238.238 0 0 1-.166-.056.23.23 0 0 1-.056-.163c0-.07.018-.122.056-.158a.246.246 0 0 1 .166-.052h.454v-1.99h.251l-.595.361a.238.238 0 0 1-.146.037.238.238 0 0 1-.113-.057.258.258 0 0 1-.061-.114.212.212 0 0 1 .008-.129.239.239 0 0 1 .105-.114l.559-.336c.054-.032.108-.059.162-.081a.374.374 0 0 1 .15-.037c.057 0 .104.017.142.049.038.03.057.08.057.15v2.261h.413c.07 0 .124.017.162.052.041.036.061.088.061.158 0 .071-.02.125-.061.163a.223.223 0 0 1-.162.056h-1.386zm3.471.033a.267.267 0 0 1-.19-.065.264.264 0 0 1-.069-.195v-.316h-1.001a.356.356 0 0 1-.203-.052c-.048-.035-.073-.091-.073-.166a.36.36 0 0 1 .033-.142c.024-.052.066-.119.125-.203l1.111-1.608a.434.434 0 0 1 .125-.13.284.284 0 0 1 .158-.045c.07 0 .129.022.174.065.046.041.069.106.069.195v1.657h.199c.078 0 .136.019.174.057.041.035.061.087.061.158 0 .07-.02.124-.061.162-.038.035-.096.052-.174.052h-.199v.316a.264.264 0 0 1-.069.195.265.265 0 0 1-.19.065zm-.259-1.005V132.4h.117l-.956 1.402v-.138h.839zm1.554.972c-.087 0-.15-.019-.19-.056-.038-.041-.057-.099-.057-.175 0-.046.012-.09.036-.133a.71.71 0 0 1 .106-.138l.814-.867a1.57 1.57 0 0 0 .267-.353.719.719 0 0 0 .081-.324c0-.135-.043-.237-.129-.308-.084-.07-.207-.105-.369-.105a.988.988 0 0 0-.555.17.204.204 0 0 1-.138.041.2.2 0 0 1-.109-.053.24.24 0 0 1-.057-.239.241.241 0 0 1 .097-.118c.116-.078.246-.137.389-.178.146-.04.292-.061.438-.061.205 0 .378.031.518.094a.689.689 0 0 1 .321.271.822.822 0 0 1 .109.434.995.995 0 0 1-.057.332c-.035.108-.09.217-.166.328a2.514 2.514 0 0 1-.288.352l-.761.795v-.138h1.191c.073 0 .128.017.166.052.038.036.057.088.057.158 0 .071-.019.125-.057.163-.038.037-.093.056-.166.056h-1.491zm-29.943-.868a.233.233 0 0 1-.166-.057.226.226 0 0 1-.057-.162c0-.07.02-.123.057-.158a.245.245 0 0 1 .166-.052h.454v-1.99h.251l-.595.361a.23.23 0 0 1-.146.036.23.23 0 0 1-.114-.056.264.264 0 0 1-.06-.114.212.212 0 0 1 .008-.129.238.238 0 0 1 .105-.114l.56-.336a1.02 1.02 0 0 1 .161-.081.358.358 0 0 1 .15-.037c.057 0 .104.017.142.049.038.03.056.08.056.15v2.261h.414c.07 0 .124.017.162.052.04.035.06.088.06.158 0 .071-.02.125-.06.162-.038.038-.092.057-.162.057h-1.386zm3.47.032a.268.268 0 0 1-.19-.064.264.264 0 0 1-.069-.195v-.316h-1a.345.345 0 0 1-.203-.053c-.049-.035-.073-.09-.073-.166 0-.043.011-.09.033-.141.024-.052.066-.119.125-.203l1.11-1.608c.038-.057.08-.1.126-.13a.282.282 0 0 1 .158-.045c.07 0 .128.022.174.065.046.041.07.105.07.195v1.657h.198c.078 0 .136.019.174.056.04.036.06.088.06.158 0 .071-.02.125-.06.162-.038.036-.096.053-.174.053h-.199v.316a.264.264 0 0 1-.069.195.267.267 0 0 1-.19.064zm-.259-1.004v-1.264h.118l-.956 1.401v-.137h.838zm2.175 1.013c-.146 0-.297-.019-.454-.057a1.323 1.323 0 0 1-.41-.17.272.272 0 0 1-.109-.122.223.223 0 0 1-.016-.13.232.232 0 0 1 .06-.109.207.207 0 0 1 .118-.053.277.277 0 0 1 .158.037c.111.059.218.103.32.13.103.024.208.036.316.036a.798.798 0 0 0 .3-.049.369.369 0 0 0 .182-.145.416.416 0 0 0 .065-.235c0-.136-.046-.235-.137-.3-.09-.068-.22-.102-.393-.102h-.26c-.075 0-.133-.018-.174-.056a.214.214 0 0 1-.057-.158c0-.068.02-.12.057-.158.04-.038.099-.057.174-.057h.21a.635.635 0 0 0 .264-.049.41.41 0 0 0 .17-.145.41.41 0 0 0 .061-.227c0-.125-.042-.219-.125-.284-.081-.065-.2-.097-.357-.097-.1 0-.194.012-.283.036a1.131 1.131 0 0 0-.288.126.214.214 0 0 1-.142.036.183.183 0 0 1-.11-.052.232.232 0 0 1-.06-.106.212.212 0 0 1 .008-.129.235.235 0 0 1 .101-.118c.116-.075.245-.132.385-.17.14-.041.285-.061.434-.061.197 0 .366.031.506.093a.686.686 0 0 1 .434.665.674.674 0 0 1-.53.685v-.049a.717.717 0 0 1 .453.243.711.711 0 0 1 .162.478.766.766 0 0 1-.126.438.805.805 0 0 1-.356.287 1.412 1.412 0 0 1-.551.098zm58.281-44.607a.234.234 0 0 1-.166-.057.227.227 0 0 1-.057-.162c0-.07.019-.123.057-.158a.246.246 0 0 1 .166-.053h.454v-1.99h.251l-.595.362a.236.236 0 0 1-.146.036.227.227 0 0 1-.114-.057.268.268 0 0 1-.061-.113.214.214 0 0 1 .009-.13.232.232 0 0 1 .105-.113l.559-.337c.054-.032.108-.059.162-.08a.368.368 0 0 1 .15-.037.21.21 0 0 1 .142.049c.038.03.057.08.057.15v2.26h.413a.23.23 0 0 1 .162.053c.04.035.061.088.061.158s-.021.124-.061.162c-.038.038-.092.057-.162.057h-1.386zm3.471.032a.268.268 0 0 1-.191-.065.263.263 0 0 1-.069-.194v-.316h-1a.353.353 0 0 1-.203-.053c-.048-.035-.073-.09-.073-.166 0-.043.011-.09.033-.142.024-.051.066-.119.125-.202l1.11-1.609c.038-.057.08-.1.126-.13a.286.286 0 0 1 .158-.044c.07 0 .128.022.174.065.046.04.069.105.069.194v1.657h.199c.078 0 .136.02.174.057.04.035.061.088.061.158s-.021.124-.061.162c-.038.035-.096.053-.174.053h-.199v.316a.263.263 0 0 1-.069.194.266.266 0 0 1-.19.065zm-.26-1.005v-1.264h.118l-.956 1.402v-.138h.838zm2.689 1.005a.266.266 0 0 1-.19-.065.263.263 0 0 1-.069-.194v-.316h-1.001a.355.355 0 0 1-.203-.053c-.048-.035-.072-.09-.072-.166 0-.043.01-.09.032-.142.024-.051.066-.119.126-.202l1.11-1.609a.444.444 0 0 1 .125-.13.286.286 0 0 1 .158-.044c.071 0 .129.022.175.065.045.04.068.105.068.194v1.657h.199c.078 0 .136.02.174.057.041.035.061.088.061.158s-.02.124-.061.162c-.038.035-.096.053-.174.053h-.199v.316a.266.266 0 0 1-.068.194.268.268 0 0 1-.191.065zm-.259-1.005v-1.264h.117l-.956 1.402v-.138h.839zm-29.82-18.782c0-.05.014-.09.041-.12a.162.162 0 0 1 .116-.04c.05 0 .087.014.112.04a.176.176 0 0 1 .038.12v.324h1.421v.18l-.258-.426a.168.168 0 0 1-.026-.105.167.167 0 0 1 .041-.08.182.182 0 0 1 .081-.044.15.15 0 0 1 .092.006c.033.013.06.038.082.075l.24.4a.9.9 0 0 1 .058.115.269.269 0 0 1 .026.107c0 .04-.012.075-.035.102-.021.027-.057.04-.107.04h-1.615v.295c0 .05-.013.09-.038.116-.025.029-.062.043-.112.043-.051 0-.089-.014-.116-.043a.157.157 0 0 1-.041-.116v-.99zm-.023 2.479c0-.058.016-.104.046-.136a.19.19 0 0 1 .139-.05h.226v-.715c0-.06.013-.108.038-.144.025-.035.064-.052.118-.052.031 0 .065.008.102.023.036.017.084.047.144.09l1.149.793a.31.31 0 0 1 .093.09c.021.032.032.07.032.112 0 .05-.016.092-.047.125-.029.032-.075.049-.139.049h-1.183v.142c0 .055-.014.097-.041.124-.025.029-.062.043-.113.043-.05 0-.088-.014-.115-.043-.025-.027-.038-.069-.038-.124v-.142h-.226a.19.19 0 0 1-.139-.05.194.194 0 0 1-.046-.135zm.718-.186h.903v.084l-1.002-.683h.099v.6zm-.724 1.611c0-.102.014-.206.041-.312a1.01 1.01 0 0 1 .124-.293.185.185 0 0 1 .081-.075.163.163 0 0 1 .177.035c.023.023.036.05.04.08a.173.173 0 0 1-.026.108 1.02 1.02 0 0 0-.092.217.811.811 0 0 0-.032.234c0 .081.014.15.043.209.029.058.07.102.122.133a.36.36 0 0 0 .182.046.354.354 0 0 0 .261-.098.36.36 0 0 0 .101-.27.523.523 0 0 0-.136-.35.347.347 0 0 1-.046-.066.186.186 0 0 1-.021-.087c0-.048.013-.085.038-.11a.14.14 0 0 1 .104-.037h.946c.053 0 .092.013.119.04.029.029.043.07.043.122v.952c0 .052-.013.091-.04.118-.025.03-.063.044-.113.044a.147.147 0 0 1-.113-.044c-.027-.027-.04-.066-.04-.118v-.753h-.649v-.095a.49.49 0 0 1 .157.2.677.677 0 0 1 .055.272c0 .129-.028.24-.084.335a.55.55 0 0 1-.229.223.679.679 0 0 1-.338.081.625.625 0 0 1-.591-.347.857.857 0 0 1-.084-.394zm-10.121-.777a.167.167 0 0 1-.119-.04.163.163 0 0 1-.041-.116c0-.05.014-.088.041-.113a.175.175 0 0 1 .119-.038h.324v-1.42h.179l-.425.257a.169.169 0 0 1-.104.026.16.16 0 0 1-.081-.04.18.18 0 0 1-.044-.081.147.147 0 0 1 .006-.093.169.169 0 0 1 .075-.081l.4-.24a.804.804 0 0 1 .115-.058.267.267 0 0 1 .107-.026c.041 0 .075.011.102.035.027.02.04.056.04.107v1.614h.295c.051 0 .089.013.116.038.029.025.044.063.044.113a.15.15 0 0 1-.044.116c-.027.027-.065.04-.116.04h-.989zm2.479.023a.19.19 0 0 1-.136-.046.187.187 0 0 1-.05-.139v-.226h-.714a.253.253 0 0 1-.145-.037c-.035-.025-.052-.065-.052-.119a.27.27 0 0 1 .023-.101.96.96 0 0 1 .09-.145l.793-1.149a.325.325 0 0 1 .089-.092.205.205 0 0 1 .113-.032c.05 0 .092.015.125.046.032.03.049.075.049.139v1.184h.142c.056 0 .097.013.124.04.029.025.044.063.044.113a.15.15 0 0 1-.044.116c-.027.025-.068.037-.124.037h-.142v.226c0 .06-.017.106-.049.14a.191.191 0 0 1-.136.045zm-.186-.717v-.903h.084l-.683 1.001v-.098h.599zm1.223.717a.182.182 0 0 1-.11-.031.13.13 0 0 1-.052-.084.203.203 0 0 1 .026-.122l.874-1.644v.128h-.937a.173.173 0 0 1-.122-.04.152.152 0 0 1-.04-.114c0-.05.013-.088.04-.115a.173.173 0 0 1 .122-.041h1.12c.052 0 .094.013.127.04a.143.143 0 0 1 .049.116c0 .043-.006.08-.017.113a.954.954 0 0 1-.046.101l-.822 1.572a.21.21 0 0 1-.084.092.25.25 0 0 1-.128.03zm-3.805 30.943a.167.167 0 0 1-.119-.041.163.163 0 0 1-.041-.116c0-.05.014-.088.041-.113a.175.175 0 0 1 .119-.037h.324v-1.421h.179l-.425.257a.163.163 0 0 1-.104.026.155.155 0 0 1-.081-.04.179.179 0 0 1-.044-.081.149.149 0 0 1 .006-.093.17.17 0 0 1 .075-.081l.4-.24a.886.886 0 0 1 .115-.058.273.273 0 0 1 .107-.026c.041 0 .075.012.102.035.027.021.04.057.04.107v1.615h.295c.05 0 .089.012.116.037.029.025.043.063.043.113s-.014.089-.043.116a.158.158 0 0 1-.116.041h-.989zm2.479.023a.189.189 0 0 1-.136-.047c-.033-.032-.05-.079-.05-.139v-.225h-.714a.254.254 0 0 1-.145-.038c-.035-.025-.052-.064-.052-.119 0-.03.007-.064.023-.101.017-.036.047-.085.09-.145l.793-1.148a.319.319 0 0 1 .089-.093.207.207 0 0 1 .113-.032.18.18 0 0 1 .125.046c.032.029.049.076.049.139v1.184h.142c.056 0 .097.014.124.041.029.025.043.062.043.112 0 .051-.014.089-.043.116-.027.025-.068.038-.124.038h-.142v.225a.19.19 0 0 1-.049.139.192.192 0 0 1-.136.047zm-.186-.718v-.903h.084l-.683 1.001v-.098h.599zm1.594.723c-.158 0-.294-.022-.408-.066a.584.584 0 0 1-.261-.2.543.543 0 0 1-.089-.312c0-.097.019-.182.057-.255a.508.508 0 0 1 .165-.182.538.538 0 0 1 .238-.087v.061a.515.515 0 0 1-.298-.177.51.51 0 0 1-.11-.33.493.493 0 0 1 .332-.483.976.976 0 0 1 .374-.067c.145 0 .27.023.376.067a.493.493 0 0 1 .333.483.543.543 0 0 1-.052.235.453.453 0 0 1-.142.176.5.5 0 0 1-.211.093v-.058a.513.513 0 0 1 .454.524.523.523 0 0 1-.093.312.555.555 0 0 1-.26.2 1.109 1.109 0 0 1-.405.066zm0-.289c.137 0 .24-.026.309-.078.07-.054.105-.133.105-.237 0-.105-.035-.183-.105-.235-.069-.052-.172-.078-.309-.078a.524.524 0 0 0-.31.078c-.069.052-.104.13-.104.235 0 .104.035.183.104.237a.524.524 0 0 0 .31.078zm0-.917a.503.503 0 0 0 .197-.035.283.283 0 0 0 .124-.107.297.297 0 0 0 .043-.162.26.26 0 0 0-.098-.217.399.399 0 0 0-.266-.081.397.397 0 0 0-.266.081.264.264 0 0 0-.096.217c0 .094.032.169.096.223a.397.397 0 0 0 .266.081zm-16.042-29.788a.168.168 0 0 1-.119-.04.163.163 0 0 1-.04-.116c0-.05.013-.088.04-.113a.176.176 0 0 1 .119-.038h.324v-1.42h.179l-.425.257a.167.167 0 0 1-.104.026.16.16 0 0 1-.081-.04.19.19 0 0 1-.044-.081.163.163 0 0 1 .006-.093.174.174 0 0 1 .075-.081l.4-.24a.804.804 0 0 1 .115-.058.267.267 0 0 1 .108-.026.15.15 0 0 1 .101.035c.027.02.04.056.04.107v1.614h.296c.05 0 .088.013.115.038.029.025.044.063.044.113a.15.15 0 0 1-.044.116c-.027.027-.065.04-.115.04h-.99zm2.479.023a.191.191 0 0 1-.136-.046c-.033-.033-.049-.079-.049-.139v-.226h-.715a.253.253 0 0 1-.145-.037c-.035-.025-.052-.065-.052-.119a.27.27 0 0 1 .023-.101c.018-.037.047-.085.09-.145l.793-1.149a.314.314 0 0 1 .09-.092.199.199 0 0 1 .112-.032c.051 0 .092.015.125.046.033.03.049.075.049.139v1.184h.142c.056 0 .097.013.124.04.029.025.044.063.044.113a.15.15 0 0 1-.044.116c-.027.025-.068.037-.124.037h-.142v.226c0 .06-.016.106-.049.14a.191.191 0 0 1-.136.045zm-.185-.717v-.903h.084l-.683 1.001v-.098h.599zm1.434.723a.95.95 0 0 1-.258-.037.945.945 0 0 1-.249-.12.135.135 0 0 1-.06-.074.173.173 0 0 1-.006-.09.184.184 0 0 1 .04-.078.127.127 0 0 1 .079-.04.148.148 0 0 1 .101.022.676.676 0 0 0 .359.104.493.493 0 0 0 .283-.077.472.472 0 0 0 .174-.235c.04-.106.061-.236.061-.39v-.218h.034a.563.563 0 0 1-.095.252.508.508 0 0 1-.191.165.593.593 0 0 1-.258.055.59.59 0 0 1-.312-.084.587.587 0 0 1-.214-.231.725.725 0 0 1-.079-.339c0-.133.028-.25.084-.353a.623.623 0 0 1 .241-.24.68.68 0 0 1 .35-.09c.17 0 .313.04.431.119a.738.738 0 0 1 .269.347c.062.15.093.333.093.547 0 .174-.021.328-.061.463a.96.96 0 0 1-.171.339.73.73 0 0 1-.278.21.89.89 0 0 1-.367.073zm.107-1.056a.36.36 0 0 0 .182-.046.333.333 0 0 0 .125-.134.433.433 0 0 0 .043-.196.422.422 0 0 0-.043-.197.313.313 0 0 0-.125-.13.351.351 0 0 0-.182-.047.34.34 0 0 0-.307.177.422.422 0 0 0-.043.197c0 .073.014.139.043.196.031.056.073.1.125.134.052.03.112.046.182.046zm-4.125 31.993a.166.166 0 0 1-.118-.041.163.163 0 0 1-.041-.116c0-.05.014-.088.041-.113a.174.174 0 0 1 .118-.037h.324v-1.421h.18l-.426.257a.16.16 0 0 1-.104.026.155.155 0 0 1-.081-.04.177.177 0 0 1-.043-.081.149.149 0 0 1 .006-.093.17.17 0 0 1 .075-.081l.399-.24a.896.896 0 0 1 .116-.058.27.27 0 0 1 .107-.026.15.15 0 0 1 .101.035c.027.021.041.057.041.107v1.615h.295c.05 0 .089.012.116.037.029.025.043.063.043.113s-.014.089-.043.116a.158.158 0 0 1-.116.041h-.99zm2.17.028c-.103 0-.207-.013-.313-.04a1.04 1.04 0 0 1-.292-.124.19.19 0 0 1-.075-.081.178.178 0 0 1-.009-.096.167.167 0 0 1 .043-.081.137.137 0 0 1 .081-.041.18.18 0 0 1 .107.027c.072.04.144.071.217.092a.855.855 0 0 0 .235.032c.081 0 .15-.015.208-.043a.315.315 0 0 0 .133-.122.35.35 0 0 0 .047-.182.353.353 0 0 0-.099-.261.358.358 0 0 0-.269-.101.52.52 0 0 0-.35.136.388.388 0 0 1-.067.046.184.184 0 0 1-.086.02c-.049 0-.085-.012-.11-.037-.026-.025-.038-.06-.038-.104v-.947c0-.052.013-.091.04-.118a.166.166 0 0 1 .122-.044h.952c.052 0 .092.014.119.041.029.025.043.063.043.113a.147.147 0 0 1-.043.113c-.027.027-.067.04-.119.04h-.752v.648h-.096a.496.496 0 0 1 .2-.156.658.658 0 0 1 .272-.055.65.65 0 0 1 .336.084.55.55 0 0 1 .222.229.679.679 0 0 1 .081.338.683.683 0 0 1-.089.353.627.627 0 0 1-.258.238.857.857 0 0 1-.393.083zm1.717 0c-.241 0-.425-.09-.552-.272-.128-.183-.191-.443-.191-.781 0-.228.028-.419.084-.573a.733.733 0 0 1 .251-.353.69.69 0 0 1 .408-.119c.244 0 .428.089.553.267.128.177.191.436.191.775 0 .226-.029.418-.087.576a.753.753 0 0 1-.248.359.67.67 0 0 1-.409.121zm0-.303a.305.305 0 0 0 .29-.183c.064-.121.095-.311.095-.57 0-.258-.031-.445-.095-.561a.306.306 0 0 0-.29-.177.31.31 0 0 0-.289.177c-.064.116-.095.303-.095.561 0 .259.031.449.095.57.064.122.16.183.289.183zm18.708-3.721c0-.05.013-.09.04-.119a.164.164 0 0 1 .116-.04c.05 0 .088.013.113.04a.175.175 0 0 1 .037.119v.324h1.421v.179l-.257-.425a.169.169 0 0 1-.026-.104.164.164 0 0 1 .04-.081.181.181 0 0 1 .081-.044.154.154 0 0 1 .093.006c.033.014.06.039.081.075l.24.4a.777.777 0 0 1 .058.115.27.27 0 0 1 .026.107.147.147 0 0 1-.035.102c-.021.027-.057.04-.107.04h-1.615v.295c0 .051-.012.089-.037.116-.025.029-.063.044-.113.044a.151.151 0 0 1-.116-.044c-.027-.027-.04-.065-.04-.116v-.99zm-.023 2.479a.19.19 0 0 1 .046-.136c.033-.033.079-.049.139-.049h.225v-.715c0-.06.013-.108.038-.145.025-.035.065-.052.119-.052a.27.27 0 0 1 .101.023.956.956 0 0 1 .145.09l1.149.793c.04.027.071.057.092.089a.207.207 0 0 1 .032.113c0 .05-.015.092-.046.125-.029.033-.075.049-.139.049h-1.184v.142c0 .056-.013.097-.04.124-.025.029-.063.044-.113.044a.151.151 0 0 1-.116-.044c-.025-.027-.038-.068-.038-.124v-.142h-.225c-.06 0-.106-.016-.139-.049a.19.19 0 0 1-.046-.136zm.717-.185h.903v.083l-1.001-.683h.098v.6zm-.723 1.668c0-.168.039-.311.118-.431a.756.756 0 0 1 .348-.269c.15-.062.332-.093.547-.093.173 0 .327.02.46.058a.988.988 0 0 1 .341.174.741.741 0 0 1 .212.275.915.915 0 0 1 .031.628.879.879 0 0 1-.115.249.138.138 0 0 1-.076.06.16.16 0 0 1-.092.003.162.162 0 0 1-.078-.04.132.132 0 0 1-.041-.076.164.164 0 0 1 .026-.101.65.65 0 0 0 .104-.359.493.493 0 0 0-.078-.283.488.488 0 0 0-.234-.177 1.152 1.152 0 0 0-.391-.058h-.217v-.034a.6.6 0 0 1 .252.095.49.49 0 0 1 .162.191.576.576 0 0 1 .058.258.58.58 0 0 1-.316.526.712.712 0 0 1-.338.079.713.713 0 0 1-.353-.087.611.611 0 0 1-.243-.238.686.686 0 0 1-.087-.35zm.295-.02c0 .069.015.13.046.182a.32.32 0 0 0 .13.125.435.435 0 0 0 .197.043.42.42 0 0 0 .197-.043.313.313 0 0 0 .13-.125.333.333 0 0 0 .049-.182.34.34 0 0 0-.179-.307.42.42 0 0 0-.197-.043.435.435 0 0 0-.197.043.347.347 0 0 0-.13.125.347.347 0 0 0-.046.182zm64.718-88.659a.233.233 0 0 1-.166-.057.227.227 0 0 1-.057-.162c0-.07.019-.123.057-.158a.244.244 0 0 1 .166-.053h.454v-1.99h.251l-.596.361a.235.235 0 0 1-.146.037.224.224 0 0 1-.113-.057.257.257 0 0 1-.061-.113.214.214 0 0 1 .008-.13.234.234 0 0 1 .106-.113l.559-.337c.054-.032.108-.059.162-.08a.368.368 0 0 1 .15-.037.21.21 0 0 1 .141.048c.038.03.057.08.057.15v2.261h.413c.071 0 .125.018.162.053.041.035.061.088.061.158s-.02.124-.061.162c-.037.038-.091.057-.162.057h-1.385zm2.429 0a.234.234 0 0 1-.166-.057.227.227 0 0 1-.057-.162c0-.07.019-.123.057-.158a.246.246 0 0 1 .166-.053h.454v-1.99h.251l-.595.361a.236.236 0 0 1-.146.037.227.227 0 0 1-.114-.057.268.268 0 0 1-.061-.113.214.214 0 0 1 .009-.13.232.232 0 0 1 .105-.113l.559-.337c.054-.032.108-.059.162-.08a.368.368 0 0 1 .15-.037.21.21 0 0 1 .142.048c.038.03.057.08.057.15v2.261h.413a.23.23 0 0 1 .162.053c.04.035.061.088.061.158s-.021.124-.061.162c-.038.038-.092.057-.162.057h-1.386zm2.956.04c-.146 0-.297-.019-.454-.057a1.311 1.311 0 0 1-.409-.17.272.272 0 0 1-.109-.121.222.222 0 0 1-.016-.13.228.228 0 0 1 .06-.11.208.208 0 0 1 .118-.052.277.277 0 0 1 .158.037c.111.059.217.102.32.13.103.024.208.036.316.036a.811.811 0 0 0 .3-.049.365.365 0 0 0 .182-.146.416.416 0 0 0 .065-.235c0-.135-.046-.235-.138-.3-.089-.067-.22-.101-.393-.101h-.259c-.076 0-.134-.019-.174-.057a.213.213 0 0 1-.057-.158c0-.067.019-.12.057-.158.04-.038.098-.056.174-.056h.211c.102 0 .19-.017.263-.049a.407.407 0 0 0 .17-.146.402.402 0 0 0 .061-.227c0-.124-.042-.219-.126-.283-.081-.065-.2-.098-.356-.098a1.076 1.076 0 0 0-.572.162.217.217 0 0 1-.141.037.183.183 0 0 1-.11-.053.214.214 0 0 1-.052-.235.233.233 0 0 1 .101-.117 1.33 1.33 0 0 1 .385-.17c.14-.04.285-.061.433-.061.197 0 .366.03.507.093a.688.688 0 0 1 .433.664.675.675 0 0 1-.531.685v-.049a.72.72 0 0 1 .454.244.712.712 0 0 1 .162.478.77.77 0 0 1-.125.437.811.811 0 0 1-.357.288 1.412 1.412 0 0 1-.551.097zm12.354 5.238a.237.237 0 0 1-.116-.132.23.23 0 0 1 .032-.17c.035-.06.078-.096.128-.108.053-.01.11.003.171.038l.393.227.994-1.723.218.126-.696.014a.234.234 0 0 1-.145-.041.228.228 0 0 1-.07-.106.267.267 0 0 1 .004-.129.223.223 0 0 1 .072-.108.237.237 0 0 1 .148-.045l.652-.012c.063-.001.124.002.181.01a.38.38 0 0 1 .148.044.21.21 0 0 1 .099.113c.018.045.009.097-.026.158l-1.13 1.958.358.207c.06.035.098.077.114.126.017.051.008.107-.027.168-.035.06-.079.097-.133.11a.224.224 0 0 1-.169-.032l-1.2-.693zm2.104 1.215a.234.234 0 0 1-.116-.133.23.23 0 0 1 .032-.168c.035-.061.078-.097.128-.109.053-.01.11.003.17.038l.393.226.995-1.722.218.125-.696.015a.236.236 0 0 1-.145-.042.228.228 0 0 1-.07-.105.267.267 0 0 1 .004-.13.21.21 0 0 1 .072-.107.236.236 0 0 1 .148-.046l.652-.011c.063-.002.124.002.181.01.059.006.108.02.148.044a.214.214 0 0 1 .099.113c.018.044.009.097-.026.158l-1.13 1.958.357.206a.23.23 0 0 1 .114.127c.018.05.009.106-.026.167a.211.211 0 0 1-.134.11c-.051.014-.107.003-.168-.032l-1.2-.692zm2.989 1.763a.266.266 0 0 1-.132-.151.261.261 0 0 1 .037-.203l.158-.274-.866-.5a.353.353 0 0 1-.15-.147c-.024-.055-.017-.115.02-.18a.38.38 0 0 1 .099-.107c.047-.033.117-.07.21-.113l1.766-.838a.443.443 0 0 1 .174-.05.286.286 0 0 1 .159.041c.061.035.1.083.118.143.02.058.007.126-.037.203l-.829 1.435.172.1c.068.039.109.084.123.136.017.05.008.106-.027.167a.211.211 0 0 1-.134.11c-.05.011-.109-.002-.177-.041l-.172-.1-.158.274a.262.262 0 0 1-.157.134.266.266 0 0 1-.197-.04zm.278-1l.632-1.095.102.06-1.529.735.069-.12.726.42zm10.466 9.383a.232.232 0 0 1-.077-.157.226.226 0 0 1 .074-.155c.05-.05.1-.073.152-.072.054.004.105.03.155.08l.321.322 1.406-1.407.178.177-.676-.166a.234.234 0 0 1-.129-.077.226.226 0 0 1-.04-.12.258.258 0 0 1 .037-.124.213.213 0 0 1 .097-.086.237.237 0 0 1 .155-.005l.633.157c.061.016.119.035.172.058a.368.368 0 0 1 .132.08c.04.04.062.085.066.134.006.048-.016.097-.066.147l-1.599 1.598.293.292c.049.05.075.1.077.152.004.054-.019.105-.069.155s-.102.074-.157.072c-.054 0-.105-.025-.155-.075l-.98-.98zm1.718 1.718a.228.228 0 0 1-.077-.157.222.222 0 0 1 .074-.155c.05-.05.1-.074.152-.072.053.004.105.03.155.08l.32.321 1.407-1.406.178.177-.676-.166a.23.23 0 0 1-.129-.077.218.218 0 0 1-.04-.12.247.247 0 0 1 .037-.124.213.213 0 0 1 .097-.086.237.237 0 0 1 .155-.006l.633.158c.061.015.118.035.172.057a.377.377 0 0 1 .132.08c.04.04.062.086.066.135.005.048-.017.097-.066.146l-1.599 1.599.292.292c.05.05.076.1.078.152.004.053-.019.105-.069.155s-.102.073-.158.071a.215.215 0 0 1-.154-.074l-.98-.98zm2.119 2.176a1.81 1.81 0 0 1-.27-.35 1.44 1.44 0 0 1-.166-.412.266.266 0 0 1 .006-.154.257.257 0 0 1 .086-.104.23.23 0 0 1 .123-.037c.046 0 .086.014.121.04a.252.252 0 0 1 .08.132c.03.11.071.213.123.307.051.093.118.181.2.263.081.08.164.135.25.163.086.03.17.033.252.012a.492.492 0 0 0 .226-.135.493.493 0 0 0 .161-.355.504.504 0 0 0-.167-.367.713.713 0 0 0-.481-.212.56.56 0 0 1-.112-.02.27.27 0 0 1-.106-.066c-.047-.047-.071-.096-.071-.146 0-.05.022-.096.066-.14l.936-.937c.052-.051.105-.077.158-.077a.23.23 0 0 1 .163.077l.943.943c.051.051.077.104.077.157.004.054-.019.105-.069.155a.203.203 0 0 1-.154.069c-.054 0-.106-.026-.158-.078l-.745-.745-.641.642-.095-.094a.682.682 0 0 1 .352.043.923.923 0 0 1 .324.214.903.903 0 0 1 .249.416.773.773 0 0 1-.005.447.954.954 0 0 1-.255.415.962.962 0 0 1-.439.26.878.878 0 0 1-.49-.02 1.203 1.203 0 0 1-.472-.306zm8.189 10.108a.228.228 0 0 1-.034-.172.226.226 0 0 1 .112-.13c.06-.035.115-.045.165-.03.05.017.093.057.128.117l.227.394 1.723-.995.126.217-.61-.335a.232.232 0 0 1-.105-.108.227.227 0 0 1-.007-.127.254.254 0 0 1 .067-.11.213.213 0 0 1 .117-.057.237.237 0 0 1 .151.035l.57.316c.056.03.106.064.152.1a.366.366 0 0 1 .106.111c.029.05.038.098.029.147-.007.048-.041.09-.102.124l-1.957 1.13.206.358a.234.234 0 0 1 .036.167c-.01.053-.046.097-.107.132s-.118.044-.171.028a.22.22 0 0 1-.13-.112l-.692-1.2zm1.214 2.104a.237.237 0 0 1-.034-.172.229.229 0 0 1 .112-.13c.061-.035.116-.045.165-.03a.244.244 0 0 1 .129.117l.227.393 1.723-.994.125.217-.61-.335a.234.234 0 0 1-.104-.108.228.228 0 0 1-.008-.127.257.257 0 0 1 .068-.11.215.215 0 0 1 .116-.057c.05-.007.1.005.151.034l.571.316a1.1 1.1 0 0 1 .151.1.373.373 0 0 1 .107.112c.028.05.038.098.029.147-.007.048-.041.089-.102.124L241.9 48.2l.207.358c.035.061.047.117.035.167-.01.053-.045.097-.106.132s-.118.044-.171.028c-.052-.014-.095-.051-.13-.112l-.693-1.2zm1.524 2.72a1.075 1.075 0 0 1-.158-.605c.016-.2.094-.39.233-.57.139-.18.338-.345.598-.495.211-.121.41-.205.599-.252.192-.045.37-.054.535-.028.165.026.315.088.449.185a1.286 1.286 0 0 1 .478.74 1.2 1.2 0 0 1 .034.382.19.19 0 0 1-.049.127.235.235 0 0 1-.11.068.224.224 0 0 1-.123.005.182.182 0 0 1-.102-.062.23.23 0 0 1-.039-.141.968.968 0 0 0-.125-.508.694.694 0 0 0-.294-.29.675.675 0 0 0-.407-.05 1.59 1.59 0 0 0-.515.204l-.263.152-.024-.042c.13-.05.254-.07.372-.06.122.01.232.05.33.117a.793.793 0 0 1 .251.272.822.822 0 0 1 .117.438.832.832 0 0 1-.131.422.995.995 0 0 1-.356.331.99.99 0 0 1-.489.142.872.872 0 0 1-.46-.117.959.959 0 0 1-.351-.364zm.344-.23c.048.084.11.147.184.188a.436.436 0 0 0 .245.06.61.61 0 0 0 .269-.085.597.597 0 0 0 .208-.19.477.477 0 0 0 .003-.497.468.468 0 0 0-.188-.188.47.47 0 0 0-.245-.06.594.594 0 0 0-.269.086.607.607 0 0 0-.208.19.475.475 0 0 0-.071.242.488.488 0 0 0 .072.254zm4.729 13.631a.235.235 0 0 1 .012-.175.228.228 0 0 1 .142-.097c.068-.018.123-.013.167.014.045.03.076.08.094.147l.118.438 1.921-.515.065.243-.502-.482a.231.231 0 0 1-.073-.131.223.223 0 0 1 .025-.125.261.261 0 0 1 .094-.088.213.213 0 0 1 .127-.025c.049.006.095.03.137.072l.47.453c.045.044.085.089.12.136a.376.376 0 0 1 .074.135.211.211 0 0 1-.01.15c-.019.044-.063.075-.131.093l-2.183.585.107.4a.231.231 0 0 1-.009.17c-.024.048-.069.081-.137.1-.068.017-.125.012-.172-.018-.047-.026-.079-.074-.097-.141l-.359-1.339zm.629 2.347a.235.235 0 0 1 .012-.175.225.225 0 0 1 .142-.097c.067-.018.123-.014.167.014.044.03.076.079.094.147l.117.438 1.922-.515.065.243-.503-.482a.237.237 0 0 1-.073-.132.233.233 0 0 1 .026-.124.253.253 0 0 1 .094-.088.213.213 0 0 1 .127-.026c.049.007.095.03.137.073l.469.453c.046.043.086.089.121.135a.377.377 0 0 1 .074.136.211.211 0 0 1-.011.15c-.019.043-.062.075-.13.093l-2.184.585.107.399c.019.068.016.124-.008.17-.024.048-.07.082-.137.1a.215.215 0 0 1-.173-.017c-.046-.027-.078-.074-.096-.142l-.359-1.338zm.614 2.417a.256.256 0 0 1 .003-.16.18.18 0 0 1 .095-.1.276.276 0 0 1 .174-.01l2.539.587-.172.046-.34-1.268a.244.244 0 0 1 .011-.18.215.215 0 0 1 .138-.095c.068-.018.125-.014.171.013.047.03.08.08.099.15l.406 1.514a.268.268 0 0 1-.009.187c-.024.054-.071.09-.138.108a.481.481 0 0 1-.159.018 1.275 1.275 0 0 1-.154-.026l-2.423-.542a.287.287 0 0 1-.155-.08.35.35 0 0 1-.086-.162zm2.496 15.218a.24.24 0 0 1 .078-.157.23.23 0 0 1 .169-.035c.069.01.119.035.149.077a.249.249 0 0 1 .03.172l-.059.45 1.972.26-.033.25-.28-.638a.243.243 0 0 1-.017-.15.228.228 0 0 1 .072-.105.258.258 0 0 1 .12-.045.212.212 0 0 1 .127.025.233.233 0 0 1 .099.12l.26.598c.025.057.045.115.059.17a.375.375 0 0 1 .017.154.214.214 0 0 1-.067.135c-.034.033-.086.045-.156.036l-2.241-.296-.054.41c-.01.069-.034.12-.074.153-.04.036-.095.049-.165.04-.069-.01-.12-.037-.152-.082-.033-.042-.044-.098-.035-.168l.181-1.374zm-.318 2.409a.233.233 0 0 1 .078-.157.228.228 0 0 1 .168-.035c.07.009.119.034.149.077.03.044.04.102.031.171l-.06.45 1.972.26-.033.25-.279-.638a.236.236 0 0 1-.017-.15.226.226 0 0 1 .071-.104.256.256 0 0 1 .121-.046.213.213 0 0 1 .127.025.238.238 0 0 1 .099.12l.26.598c.025.058.044.115.059.171a.368.368 0 0 1 .016.154.204.204 0 0 1-.067.134c-.034.033-.086.046-.156.036l-2.241-.296-.054.41a.232.232 0 0 1-.073.154c-.041.035-.095.048-.165.04-.07-.01-.121-.037-.153-.082a.223.223 0 0 1-.035-.169l.182-1.373zm-.435 2.981a1.58 1.58 0 0 1 .167-.554.817.817 0 0 1 .325-.325.752.752 0 0 1 .45-.067.76.76 0 0 1 .343.127c.097.07.171.158.223.263a.78.78 0 0 1 .077.345l-.085-.011a.733.733 0 0 1 .3-.382.722.722 0 0 1 .478-.092.692.692 0 0 1 .61.551c.042.155.05.332.024.53a1.367 1.367 0 0 1-.162.51.692.692 0 0 1-.731.373.737.737 0 0 1-.316-.115.681.681 0 0 1-.309-.54l.08.011a.718.718 0 0 1-.81.535.735.735 0 0 1-.646-.584 1.542 1.542 0 0 1-.018-.575zm.401.053c-.025.19-.008.339.052.445.062.106.166.168.31.188.145.019.26-.015.345-.102.085-.087.14-.225.165-.415.025-.188.008-.336-.052-.444-.059-.107-.161-.169-.306-.188-.144-.02-.261.014-.348.1-.086.09-.141.229-.166.416zm1.274.169c-.014.107-.01.2.012.28a.397.397 0 0 0 .342.282.368.368 0 0 0 .32-.097.563.563 0 0 0 .161-.355.56.56 0 0 0-.063-.384.373.373 0 0 0-.284-.173.388.388 0 0 0-.327.092c-.087.078-.14.197-.161.355zm-3.288 20.715a.235.235 0 0 1-.098.146.23.23 0 0 1-.171.013c-.068-.019-.114-.051-.138-.096a.248.248 0 0 1-.008-.174l.118-.439-1.922-.514.065-.243.194.669a.231.231 0 0 1-.002.15.227.227 0 0 1-.084.095.26.26 0 0 1-.126.029.216.216 0 0 1-.123-.041.236.236 0 0 1-.082-.131l-.18-.627a1.08 1.08 0 0 1-.036-.178.358.358 0 0 1 .003-.154.216.216 0 0 1 .084-.125c.038-.028.091-.034.159-.016l2.184.586.107-.4a.232.232 0 0 1 .093-.143c.044-.03.1-.036.168-.017.068.018.115.051.141.1.027.047.031.104.013.172l-.359 1.338zm.629-2.347a.233.233 0 0 1-.098.146.23.23 0 0 1-.171.013c-.068-.018-.114-.05-.138-.096a.248.248 0 0 1-.008-.174l.118-.438-1.922-.515.065-.243.194.669a.231.231 0 0 1-.002.15.217.217 0 0 1-.085.095.257.257 0 0 1-.125.03.217.217 0 0 1-.123-.042.236.236 0 0 1-.082-.131l-.18-.627a1.086 1.086 0 0 1-.037-.178.374.374 0 0 1 .004-.154.206.206 0 0 1 .084-.124c.038-.029.091-.034.159-.016l2.184.585.107-.399c.018-.068.049-.116.093-.143.044-.03.1-.036.168-.018s.115.052.141.101a.222.222 0 0 1 .013.171l-.359 1.338zm.761-2.684a1.33 1.33 0 0 1-.144.335c-.069.11-.152.208-.251.293a.187.187 0 0 1-.123.055.243.243 0 0 1-.124-.025.244.244 0 0 1-.091-.083.175.175 0 0 1-.026-.12.205.205 0 0 1 .068-.129.996.996 0 0 0 .271-.447.702.702 0 0 0-.003-.412.66.66 0 0 0-.254-.32 1.53 1.53 0 0 0-.507-.223l-.293-.079.012-.047a.793.793 0 0 1 .306.22c.079.094.13.2.154.318a.831.831 0 0 1-.019.369.826.826 0 0 1-.227.392.827.827 0 0 1-.39.206 1.019 1.019 0 0 1-.486-.017 1.017 1.017 0 0 1-.448-.242.87.87 0 0 1-.237-.412.956.956 0 0 1 .005-.506c.062-.229.167-.409.317-.54.15-.13.339-.21.567-.238.226-.029.484-.005.773.073.235.063.436.146.604.25.166.1.298.218.396.353.098.136.16.287.185.453.027.163.015.338-.035.523zm-1.389-.528a.462.462 0 0 0-.132-.479.592.592 0 0 0-.25-.13.582.582 0 0 0-.282-.013.435.435 0 0 0-.221.121.486.486 0 0 0-.129.23.5.5 0 0 0-.004.263.477.477 0 0 0 .131.216.611.611 0 0 0 .251.13c.099.026.193.03.282.012a.492.492 0 0 0 .225-.12.504.504 0 0 0 .129-.23zm-8.444 23.09a.23.23 0 0 1-.132.115.225.225 0 0 1-.169-.032c-.061-.035-.097-.078-.109-.128a.248.248 0 0 1 .038-.17l.227-.393-1.723-.995.125-.217.015.696a.239.239 0 0 1-.041.144.222.222 0 0 1-.106.07.257.257 0 0 1-.129-.004.208.208 0 0 1-.108-.072.235.235 0 0 1-.046-.148l-.011-.652a1.067 1.067 0 0 1 .011-.181.353.353 0 0 1 .043-.148.206.206 0 0 1 .113-.098c.045-.018.097-.01.158.026l1.958 1.13.207-.358c.035-.061.077-.099.126-.114.051-.018.107-.009.167.026.061.035.098.08.11.134.014.052.004.108-.031.169l-.693 1.2zm1.168-2.023c-.043.074-.092.12-.145.136-.054.013-.113 0-.179-.038a.268.268 0 0 1-.097-.098.688.688 0 0 1-.067-.16l-.344-1.139a1.561 1.561 0 0 0-.171-.408.725.725 0 0 0-.24-.232c-.117-.068-.228-.082-.332-.042-.103.037-.194.126-.275.267a.948.948 0 0 0-.103.259.964.964 0 0 0-.028.306.204.204 0 0 1-.033.14.2.2 0 0 1-.101.068.222.222 0 0 1-.125-.002.235.235 0 0 1-.11-.068.237.237 0 0 1-.053-.143c-.01-.14.003-.282.04-.426.038-.146.093-.283.166-.409a1.29 1.29 0 0 1 .34-.403.697.697 0 0 1 .395-.141.81.81 0 0 1 .43.122c.098.057.185.128.26.215.076.084.143.187.201.308.059.119.113.26.161.425l.307 1.057-.119-.069.595-1.031c.037-.064.08-.103.129-.118s.104-.005.165.03c.061.035.098.078.112.13.014.052.003.109-.034.172l-.745 1.292zm1.261-2.185a.23.23 0 0 1-.132.115.23.23 0 0 1-.169-.031c-.061-.036-.097-.078-.108-.129a.246.246 0 0 1 .037-.17l.227-.393-1.723-.994.126-.218.014.696a.235.235 0 0 1-.041.145.238.238 0 0 1-.106.07.257.257 0 0 1-.129-.005.22.22 0 0 1-.108-.071.239.239 0 0 1-.045-.148l-.012-.653a1.182 1.182 0 0 1 .011-.181.374.374 0 0 1 .043-.148.21.21 0 0 1 .113-.098c.045-.018.098-.009.158.026l1.958 1.13.207-.358c.035-.061.077-.099.127-.114.05-.017.106-.009.167.027.061.035.097.079.11.133.014.052.003.108-.032.169l-.693 1.2zm-16.299 19.887a.228.228 0 0 1-.158.077.224.224 0 0 1-.155-.074c-.049-.05-.073-.1-.071-.152a.247.247 0 0 1 .08-.155l.321-.32-1.407-1.407.178-.178-.166.676a.231.231 0 0 1-.078.129.224.224 0 0 1-.12.04.256.256 0 0 1-.123-.037.214.214 0 0 1-.086-.097.24.24 0 0 1-.006-.155l.158-.633c.015-.061.034-.119.057-.172a.384.384 0 0 1 .08-.132.212.212 0 0 1 .135-.066c.048-.005.096.017.146.066l1.599 1.599.292-.292c.049-.05.1-.076.152-.078.053-.004.105.019.154.069.05.05.074.102.072.158 0 .053-.025.105-.075.154l-.979.98zm1.652-1.652c-.062.061-.12.093-.175.095-.056-.002-.11-.03-.163-.083a.265.265 0 0 1-.069-.121.689.689 0 0 1-.023-.172l-.037-1.189a1.551 1.551 0 0 0-.061-.438.72.72 0 0 0-.171-.286c-.096-.096-.199-.138-.31-.126-.109.009-.22.071-.335.186a.974.974 0 0 0-.166.223.955.955 0 0 0-.106.29.21.21 0 0 1-.069.126.197.197 0 0 1-.115.04.229.229 0 0 1-.12-.035.23.23 0 0 1-.089-.094.24.24 0 0 1-.014-.152c.027-.137.076-.271.149-.401.074-.132.163-.249.266-.352.146-.146.29-.246.433-.301a.69.69 0 0 1 .418-.035.811.811 0 0 1 .384.23c.08.08.145.171.195.275.052.101.09.217.115.349.026.13.042.281.045.453l.023 1.1-.097-.098.842-.842c.052-.051.103-.078.155-.08.051-.002.102.022.152.072a.22.22 0 0 1 .074.154c0 .054-.026.106-.077.158l-1.054 1.054zm1.717-1.718c-.061.061-.119.093-.174.095-.056-.002-.11-.03-.164-.083a.273.273 0 0 1-.068-.121.687.687 0 0 1-.023-.171l-.038-1.189a1.522 1.522 0 0 0-.06-.439.71.71 0 0 0-.172-.286c-.095-.096-.198-.138-.309-.126-.109.009-.221.071-.335.186a.946.946 0 0 0-.166.223.965.965 0 0 0-.106.29.21.21 0 0 1-.069.126.2.2 0 0 1-.115.04.24.24 0 0 1-.209-.129.233.233 0 0 1-.014-.152c.027-.137.076-.271.149-.401.074-.132.163-.249.266-.352a1.28 1.28 0 0 1 .433-.301.689.689 0 0 1 .418-.034.801.801 0 0 1 .384.229c.08.08.145.172.195.275.051.101.09.218.114.349.027.13.042.281.046.453l.023 1.1-.097-.097.842-.843c.052-.051.103-.078.155-.08.051-.002.102.022.152.072a.22.22 0 0 1 .074.155c0 .053-.026.106-.077.157l-1.055 1.054zm-18.567 14.887a.232.232 0 0 1-.172.034.223.223 0 0 1-.13-.112c-.036-.061-.045-.116-.03-.165a.24.24 0 0 1 .117-.129l.393-.227-.994-1.722.217-.126-.335.61a.246.246 0 0 1-.108.105.229.229 0 0 1-.127.007.255.255 0 0 1-.109-.068.21.21 0 0 1-.058-.116.236.236 0 0 1 .034-.151l.316-.571c.031-.055.064-.105.1-.151a.374.374 0 0 1 .112-.107c.049-.028.098-.037.147-.028.047.007.089.04.124.101l1.13 1.958.358-.207c.061-.035.117-.047.167-.035.053.01.096.046.132.106a.212.212 0 0 1 .028.171c-.014.052-.051.095-.112.13l-1.2.693zm2.023-1.168c-.075.043-.139.059-.193.046a.243.243 0 0 1-.136-.122.276.276 0 0 1-.036-.134c0-.05.007-.107.023-.172l.271-1.158c.043-.175.062-.321.056-.439a.72.72 0 0 0-.092-.322c-.068-.117-.156-.184-.266-.201-.108-.019-.232.012-.372.093a.949.949 0 0 0-.219.173.973.973 0 0 0-.177.252.206.206 0 0 1-.099.104.206.206 0 0 1-.121.009.23.23 0 0 1-.107-.065.237.237 0 0 1-.062-.114.234.234 0 0 1 .026-.15c.061-.126.144-.243.248-.349.106-.108.222-.199.348-.272.178-.102.343-.162.496-.178a.685.685 0 0 1 .413.075.81.81 0 0 1 .311.321.979.979 0 0 1 .117.316c.024.111.031.233.02.367a2.543 2.543 0 0 1-.072.449l-.263 1.069-.069-.12 1.032-.595c.063-.037.12-.049.17-.038.05.012.093.048.128.109.035.06.046.117.032.168-.014.052-.052.096-.116.133l-1.291.745zm2.661-1.489a1.95 1.95 0 0 1-.421.177 1.309 1.309 0 0 1-.44.058.278.278 0 0 1-.155-.051.216.216 0 0 1-.079-.104.231.231 0 0 1-.002-.125.206.206 0 0 1 .075-.105.28.28 0 0 1 .155-.047c.126-.004.24-.02.342-.048.101-.03.199-.072.292-.126a.833.833 0 0 0 .236-.192.371.371 0 0 0 .085-.218.415.415 0 0 0-.062-.236c-.067-.117-.157-.18-.269-.19-.111-.014-.241.022-.391.108l-.225.13a.246.246 0 0 1-.179.038.216.216 0 0 1-.128-.109.211.211 0 0 1-.03-.165c.016-.053.057-.098.123-.136l.182-.105a.662.662 0 0 0 .204-.174.405.405 0 0 0 .074-.212.407.407 0 0 0-.06-.226c-.063-.108-.146-.169-.251-.183-.103-.016-.222.016-.357.094-.087.05-.163.108-.228.173a1.099 1.099 0 0 0-.186.253.215.215 0 0 1-.105.102.18.18 0 0 1-.121.009.217.217 0 0 1-.163-.177.232.232 0 0 1 .029-.152c.063-.124.146-.237.248-.34.102-.105.217-.195.345-.269.171-.099.333-.156.486-.173a.678.678 0 0 1 .406.065.696.696 0 0 1 .301.294.672.672 0 0 1-.117.858l-.024-.042a.716.716 0 0 1 .514-.016.714.714 0 0 1 .38.333c.083.145.12.292.11.441a.82.82 0 0 1-.165.428 1.423 1.423 0 0 1-.429.36zm-24.762 9.307a.239.239 0 0 1-.175-.014.233.233 0 0 1-.095-.144c-.017-.068-.011-.123.017-.167a.244.244 0 0 1 .148-.091l.44-.111-.487-1.929.244-.062-.489.496a.24.24 0 0 1-.133.071.233.233 0 0 1-.124-.028.257.257 0 0 1-.087-.095.205.205 0 0 1-.023-.127.234.234 0 0 1 .074-.136l.46-.463a1.06 1.06 0 0 1 .137-.118.364.364 0 0 1 .137-.072.21.21 0 0 1 .149.012c.044.02.074.064.092.132l.553 2.192.401-.101a.225.225 0 0 1 .17.011c.047.024.08.07.097.138s.011.126-.019.172a.22.22 0 0 1-.143.095l-1.344.339zm2.265-.572c-.084.022-.15.019-.198-.008-.047-.03-.079-.082-.098-.155a.274.274 0 0 1 .003-.139.756.756 0 0 1 .068-.159l.578-1.04c.088-.156.146-.292.173-.407a.724.724 0 0 0-.001-.334c-.033-.131-.1-.22-.201-.267-.098-.048-.226-.052-.383-.012a.993.993 0 0 0-.497.301.201.201 0 0 1-.124.073.203.203 0 0 1-.119-.024.23.23 0 0 1-.085-.092.23.23 0 0 1-.028-.126.228.228 0 0 1 .066-.138c.093-.104.204-.194.333-.268a1.65 1.65 0 0 1 .409-.166c.199-.05.375-.062.526-.037a.698.698 0 0 1 .377.185c.1.098.17.229.212.394.028.11.036.222.026.336a1.253 1.253 0 0 1-.081.359 2.498 2.498 0 0 1-.192.412l-.544.956-.034-.133 1.155-.292c.071-.018.128-.014.174.011.045.024.076.071.093.139a.218.218 0 0 1-.015.171c-.027.046-.076.078-.147.096l-1.446.364zm3.464-.84a.27.27 0 0 1-.201-.016.263.263 0 0 1-.114-.172l-.078-.306-.97.244a.351.351 0 0 1-.209-.001c-.056-.022-.093-.07-.112-.143a.391.391 0 0 1-.003-.146c.011-.055.035-.131.072-.227l.683-1.831a.456.456 0 0 1 .09-.157.283.283 0 0 1 .143-.081.237.237 0 0 1 .184.02c.055.028.093.085.115.172l.405 1.606.193-.048c.076-.02.137-.015.182.012.048.024.081.07.098.138s.011.126-.019.172c-.028.044-.08.075-.156.094l-.193.049.078.306c.02.081.014.15-.02.205a.265.265 0 0 1-.168.11zm-.498-.911l-.309-1.226.114-.028-.584 1.593-.034-.134.813-.205zm-17.189-.005c0-.07.019-.126.057-.166a.226.226 0 0 1 .162-.057c.07 0 .123.019.158.057.035.04.052.096.052.166v.454h1.99v.251l-.361-.596a.227.227 0 0 1-.036-.145.227.227 0 0 1 .056-.114.264.264 0 0 1 .114-.061.22.22 0 0 1 .129.008.236.236 0 0 1 .114.106l.336.559c.033.054.06.108.081.162a.374.374 0 0 1 .037.15.213.213 0 0 1-.049.142c-.03.037-.08.056-.15.056h-2.261v.414c0 .07-.017.124-.052.162-.035.04-.088.06-.158.06-.071 0-.125-.02-.162-.06-.038-.038-.057-.092-.057-.162v-1.386zm0 2.336c0-.086.019-.15.057-.19.04-.038.098-.057.174-.057.046 0 .09.012.133.036a.71.71 0 0 1 .138.106l.867.814c.13.124.247.214.353.268a.719.719 0 0 0 .324.081c.135 0 .238-.044.308-.13.07-.084.105-.207.105-.369a.988.988 0 0 0-.17-.555.207.207 0 0 1-.041-.138.2.2 0 0 1 .053-.109.236.236 0 0 1 .239-.057.244.244 0 0 1 .118.098c.078.116.137.245.178.389.04.145.061.291.061.437 0 .205-.031.378-.093.519a.699.699 0 0 1-.272.32.812.812 0 0 1-.433.109.996.996 0 0 1-.333-.057 1.283 1.283 0 0 1-.328-.166 2.574 2.574 0 0 1-.352-.287l-.794-.762h.137v1.191c0 .073-.017.128-.052.166-.035.038-.088.057-.158.057-.071 0-.125-.019-.162-.057-.038-.038-.057-.093-.057-.166v-1.491zm-.041 3.13c0-.143.019-.289.057-.437.038-.149.096-.285.174-.409a.26.26 0 0 1 .114-.106.256.256 0 0 1 .133-.012.234.234 0 0 1 .114.061c.032.032.051.07.057.113a.253.253 0 0 1-.037.15 1.203 1.203 0 0 0-.174.632c0 .114.02.211.061.292.04.081.097.143.17.186a.484.484 0 0 0 .255.065.494.494 0 0 0 .365-.138.5.5 0 0 0 .142-.376.724.724 0 0 0-.191-.491.534.534 0 0 1-.065-.093.266.266 0 0 1-.028-.121c0-.068.017-.119.053-.154a.196.196 0 0 1 .145-.053h1.325c.073 0 .129.019.166.057.041.04.061.097.061.17v1.333c0 .073-.019.128-.057.166-.035.041-.087.061-.158.061a.205.205 0 0 1-.158-.061c-.037-.038-.056-.093-.056-.166v-1.053h-.908v-.134c.095.07.168.163.219.279a.94.94 0 0 1 .077.381.899.899 0 0 1-.118.47.77.77 0 0 1-.32.312.95.95 0 0 1-.474.114.958.958 0 0 1-.494-.126.88.88 0 0 1-.332-.361 1.192 1.192 0 0 1-.118-.551z" fill="#fff"/></svg>