<svg width="89" height="112" viewBox="0 0 89 112" fill="none" xmlns="http://www.w3.org/2000/svg"><g opacity=".4"><path d="M38.149 86.19C24.28 78.672 19.545 59.215 23.91 44.04c5.662-19.679 28.768-28.581 46.742-27.655 10.985.567 22.46 6.863 26.265 17.896 4.763 13.813 2.06 33.078-9.822 42.871-7.184 5.92-16.961 8.56-25.605 10.991-7.797 2.193-16.232 1.902-23.341-1.953z" fill="#FFBC00"/><path d="M84.018 26.133c2.956 1.841 5.172 3.856 6.93 6.78 1.885 3.136 3 7.053 3.389 10.709.346 3.259.562 6.536.638 9.828.076 3.383-.38 4.364-1.468 9.008-.367 1.57-1.32 4.148-2.56 5.292-1.458 1.347-3.704.06-3.067-1.746.004-.013.01-.026.013-.04 2.963-8.416 3.19-17.511.643-25.67-.723-2.314-1.675-4.575-3.134-6.51-2.192-2.91-5.444-4.96-8.952-6.335-3.845-1.508-8.018-2.26-12.148-2.999-.836-.15-1.62-.49-2.206-1.052-1.841-1.765-.124-3.488 1.897-3.588 2.378-.116 4.786.214 7.049.726 4.694 1.06 9.02 3.134 12.976 5.597zm-48.276 4.492c-.26.326-.52.754-.326 1.088.178.305.633.333 1.015.291 2.368-.259 4.416-1.783 6.567-2.866 2.922-1.471 6.223-2.194 8.932-4.017.554-.373 1.126-.874 1.162-1.495.094-1.638-2.773-1.658-3.963-1.537-1.467.15-2.99.897-4.326 1.51-3.528 1.616-6.688 4.048-9.061 7.026z" fill="#fff"/><path d="M128.527 97.192c-1.172 3.9-5.011 5-8.483 5.863-21.308 5.305-42.703 10.129-64.107 14.955-6.7 1.51-13.425 3.018-20.22 3.642-.999.087-2.038.154-2.959-.163-.913-.32-1.688-1.124-1.607-2.074.05-.637.468-1.214.658-1.842.412-1.343-.501-3.997-1.857-4.62-1.28-.595-3.388.369-4.916.081-1.555-.296-2.988-1.434-2.996-2.951-.019-2.114 2.592-4.254 1.578-6.081-.387-.695-1.217-1.069-1.672-1.72-.781-1.123-.227-2.745.721-3.866 1.968-2.342 5.194-3.259 8.2-4.044l2.775-.403c.497-.127.977-.33 1.378-.646.942-.744.72-1.475.594-2.232a3.074 3.074 0 0 1-.067-.621c.047-1.868 2.477-2.864 4.425-3.33l6.082-1.413 34.12-7.916 11.61-2.692c.637-.157 1.319-.086 1.808.269.458.33.525.728.432 1.145a2.329 2.329 0 0 0-.036.33c.016 1.027 1.055 1.776 2.187 1.556 7.733-1.526 2.078-.021 9.886-.193.567-.01 1.142.082 1.649.328 1.405.689.907 1.664.912 2.574-.003 1.576 1.501 2.726 3.088 3.118 1.593.383 3.314.203 4.969.296 5.159.293 9.833 3.396 11.589 7.915.581 1.49.734 3.143.259 4.735z" fill="#76B6FF"/><path d="M85.665 82.105c-.001.324-.403.519-.738.632-1.597.532-3.23.948-4.878 1.226-1.225.21-2.498.364-3.626.912-.255.123-.542.366-.45.61.052.143.233.22.395.248 1.44.266 3.166-.962 4.343-.207.102.067.2.151.234.26.104.367-.429.628-.83.713-8.475 1.86-16.992 3.686-25.25 6.46-.597.207-3.35.837-1.71-.093.788-.385 3.148-1.146 1.805-1.037-4.218.811-8.025 3.325-12.254 4.092-.42.081-.965.07-1.086-.3-.12-.4.419-.742.844-.912 2.19-.865 4.371-1.727 6.563-2.585.197-.076.422-.184.49-.368.123-.356-.366-.564-.763-.567-1.35.008-2.659.739-4.028.847-.499.04-1.127-.139-1.107-.601.01-.326.34-.564.644-.74 1.654-.981 3.418-1.716 5.264-2.252.782-.226 3.89-.96 2.748-2.22-.303-.337-.858-.314-1.341-.247-2.14.276-4.23.91-6.343 1.367a2.577 2.577 0 0 1-.06-.622c.018-.832.518-1.487 1.25-1.999l34-7.804c.4.31.45.667.36 1.053-.016.115-.033.222-.033.333-2.427 1.173-5.301 1.402-7.821 2.474-.312.138-.654.333-.684.64-.053.432.53.607.99.617 3.664.094 7.283-1.943 10.931-1.773.998-.04.931.222-.484.61-1.06.293-2.121.61-3.185.92-2.695 1.024 3.216-.021 4.873-.152.406-.03.942.086.937.465z" fill="#A1CDFF"/><path d="M40.649 102.177a73.318 73.318 0 0 0-5.17 3.523c-2.674 1.997-5.313 4.767-6.849 7.6-2.533 4.67 1.508 5.72 5.922 4.903 10.256-1.898 20.462-4.363 30.59-6.955 14.39-3.684 27.657-7.325 41.76-12.074 2.045-.688 5.12-2.024 7.021-3.042 7.117-3.81-6.896-6.84-9.554-7.35-9.976-1.912-21.449-.435-31.622 1.46-10.803 2.011-21.475 5.574-30.965 11.244-.38.227-.757.458-1.133.691z" fill="#FFAC00"/><path d="M39.444 62.504c8.993 6.4 19.805 16.764 26.16 27.732.498.86.093 2.014-.87 2.513-1.781.924-3.7 1.58-5.657 1.93-.151.028-.31.052-.45.007a.674.674 0 0 1-.446-.655c.142-3.442-.88-6.525-2.427-9.325-4.603-8.335-9.131-14-16.24-19.349-.735-.552-3.758-2.185-3.597-3.334.214-1.531 2.775-.053 3.527.481z" fill="#A66F00"/><path d="M39.526 64.942l1.62.23c.27.046.539.056.815.14.296.08.45.385.486.643.02 1.086.986 1.754 2.01 1.898.258.043.523.072.791.087.277-.011.652.101.852.335.235.235.27.565.332.791l.186.757.186.756c.067.244.11.54.204.656.154.263.708-.016 1.32-.143.717-.152 1.348.357 1.575.859.276.498.341 1.113.356 1.62.03.515.076 1.02.283 1.399.205.377.586.566 1.085.594.5.046 1.038-.058 1.67.015.57.085 1.281.298 1.533 1.01.114.346.017.715-.083.98-.106.278-.198.494-.267.742a4.96 4.96 0 0 0-.199 1.473c-.131.984 1.122.77 2.262.905.573.076 1.092.166 1.672.366.148.062.31.145.444.302.138.153.197.4.165.59-.067.38-.212.602-.348.868-.282.506-.615.949-.846 1.402-.208.43-.39.984-.314 1.336.065.154.08.186.33.198.232.004.5-.04.787-.07l1.677-.074c.533-.008 1.23-.084 1.736.415.471.549.206 1.31-.196 1.753-.404.476-.932.724-1.289 1.13l-.59.565c-.215.192-.379.365-.432.582-.125.432.168.924.636 1.033.463.063 1.08-.042 1.614-.055l3.318-.207-3.315.376c-.57.039-1.07.179-1.694.134-.606-.111-1.04-.706-.905-1.333.063-.322.3-.573.495-.757l.605-.612c.379-.44.902-.718 1.207-1.114.315-.362.421-.9.154-1.158-.264-.27-.82-.262-1.354-.22l-1.64.118c-.264.034-.549.084-.87.085-.15-.002-.362-.012-.547-.133a.79.79 0 0 1-.337-.47c-.175-1.32.704-2.29 1.19-3.184.117-.216.245-.485.262-.633.013-.119-.035-.174-.246-.268a7.727 7.727 0 0 0-1.503-.307c-.52-.074-1.04-.02-1.666-.12-.299-.054-.648-.171-.89-.451-.251-.28-.295-.65-.298-.928a5.629 5.629 0 0 1 .242-1.675c.158-.563.486-1.07.364-1.357-.08-.315-.538-.537-1.01-.597-.454-.067-1.04.026-1.631-.026-.597-.02-1.283-.344-1.557-.907-.28-.544-.302-1.114-.333-1.638-.01-.539-.068-.986-.277-1.41-.2-.416-.543-.694-.98-.62-.232.03-.494.127-.8.19-.276.078-.777.058-.992-.278-.194-.32-.18-.57-.25-.82l-.162-.764-.162-.763c-.06-.27-.08-.494-.223-.638-.24-.335-.884-.197-1.426-.36-.546-.119-1.081-.353-1.476-.734-.417-.36-.606-.945-.613-1.456-.027-.25-.126-.479-.367-.564-.235-.086-.519-.116-.78-.174l-1.596-.315z" fill="#8F5600"/><path d="M29.827 66.718c-1.75 1.852-3.224 3.946-4.058 6.2a5.551 5.551 0 0 0 1.278-.859 45.252 45.252 0 0 0-3.549 9.69l.884-.451c.154 1.94-.285 1.159.404 4.941.164.903.618 2.128 1.473 3.325.539-1.18.68-1.496 1.113-2.11.433-.616.878-1.153 1.385-1.724 1.64-1.844 2.021-4.087 1.84-6.28.286.418.612.81.974 1.173 1.514-3.132 2.046-6.553 1.509-9.714l.934.5a36.974 36.974 0 0 0 2.147-8.004c.059-.393.2-1.594-.419-1.665-.434-.05-1.597 1.117-1.949 1.398-1.401 1.114-2.75 2.293-3.966 3.58z" fill="#7DC200"/><path d="M35.432 62.73c-1.14 1.725-2.413 3.357-3.596 5.035-1.231 1.656-2.14 3.464-3.064 5.285-1.886 3.62-2.57 7.607-3.127 11.513.489-3.91 1.097-7.907 2.937-11.59.884-1.821 1.783-3.682 2.992-5.364 1.16-1.704 2.404-3.353 3.501-5.075l.357.197z" fill="#609400"/><path d="M32.748 60.567a30.194 30.194 0 0 0-9.695 1.21c.48.13 1 .15 1.506.053a36.725 36.725 0 0 0-9.854 4.915l1.042-.2c-1.91 1.899-3.353 4.216-4.165 6.684l.891-.436c-1.09 2.569-1.135 5.35-1.165 8.05a32.009 32.009 0 0 1 4.228-4.398c1.16-.997 2.48-2.049 2.771-3.475.068.466.185.923.348 1.36.407-.843 1.243-1.427 1.989-2.037a15.628 15.628 0 0 0 4.055-5.029l.401 1.1c1.107-1.656 2.87-2.81 4.579-3.912 1.486-.958 2.977-1.889 4.639-2.511.564-.211 1.363-.533.57-1.024-.552-.341-1.487-.324-2.14-.35z" fill="#8FD300"/><path d="M34.744 61.585a33.524 33.524 0 0 0-13.64 4.7c-2.06 1.284-3.963 2.852-5.427 4.749-1.464 1.885-2.492 4.094-2.76 6.375.233-2.282 1.23-4.513 2.677-6.43 1.446-1.928 3.345-3.534 5.404-4.857a33.887 33.887 0 0 1 13.724-4.928l.022.39z" fill="#609400"/><path d="M68.957 43.563a30.197 30.197 0 0 0-9.696 1.21c.48.131 1 .15 1.506.053a36.723 36.723 0 0 0-9.853 4.915l1.042-.2c-1.91 1.899-3.354 4.216-4.165 6.684l.89-.436c-1.089 2.569-1.134 5.35-1.164 8.05a32.003 32.003 0 0 1 4.227-4.398c1.16-.997 2.48-2.049 2.771-3.475.068.466.185.923.348 1.36.408-.843 1.244-1.427 1.99-2.037a15.64 15.64 0 0 0 4.055-5.029l.402 1.1c1.106-1.656 2.87-2.81 4.578-3.912 1.486-.958 2.977-1.889 4.639-2.511.564-.212 1.364-.534.57-1.024-.552-.341-1.488-.323-2.14-.35z" fill="#8FD300"/><path d="M70.953 44.581a33.524 33.524 0 0 0-13.64 4.7c-2.06 1.284-3.964 2.853-5.428 4.75-1.463 1.885-2.492 4.094-2.758 6.375.231-2.282 1.23-4.514 2.676-6.43 1.446-1.928 3.345-3.535 5.404-4.857A33.886 33.886 0 0 1 70.93 44.19l.022.391z" fill="#609400"/><path d="M70.415 41.456a24.402 24.402 0 0 0-5.136-7.555c.075.478.273.93.573 1.306a30.067 30.067 0 0 0-8.65-5.67l.618.773c-2.556-.583-5.31-.544-7.94.114l.774.517c-2.84.477-5.446 1.953-7.971 3.4 1.997.199 3.957.597 5.841 1.184 1.407.44 2.932.985 4.38.455a8.43 8.43 0 0 0-1.123 1.036c.953-.115 1.842.275 2.718.574 1.996.681 4.184.92 6.355.696l-.856.94c1.998.035 3.802.9 5.533 1.747 1.506.736 2.988 1.492 4.255 2.562.43.363 1.06.865 1.188-.075.09-.654-.314-1.435-.56-2.004z" fill="#7DC200"/><path d="M70.402 43.811a27.01 27.01 0 0 0-10.09-9.026c-2.063-1.046-4.33-1.804-6.722-2.006-2.38-.208-4.886.134-7.14 1.162 2.24-1.058 4.754-1.439 7.156-1.262 2.415.17 4.715.9 6.814 1.925a27.352 27.352 0 0 1 10.34 8.971l-.358.236z" fill="#609400"/><path d="M35.61 59.663c-.246.418-.766.644-1.255.675-.488.03-.958-.098-1.42-.22a52.395 52.395 0 0 0-8.323-1.478l1.405-.668c-1.547-.478-3.245-.453-4.909-.424l-5.751.105a9.582 9.582 0 0 1 1.793-.942c-3.43-1.114-7.796-2.689-10.961-4.315 5.857-2.276 6.78-2.483 10.89-3.444 1.222-.286 3.002-.397 4.94-.466a3.103 3.103 0 0 0-1.17-.874c3.349.08 6.517 1.627 8.439 4.119l.18-1.231c1.373 1.154 2.75 2.313 3.912 3.661 1.162 1.348 2.108 2.903 2.505 4.642.064.276-.122.603-.274.86z" fill="#7DC200"/><path d="M35.607 60.556c-3.29-2.184-6.546-4.441-10.2-6.06a21.278 21.278 0 0 0-5.81-1.637c-2.03-.269-4.12-.235-6.195.006 2.072-.274 4.169-.343 6.216-.105a21.49 21.49 0 0 1 5.886 1.552c3.713 1.57 7.027 3.782 10.357 5.908l-.254.336z" fill="#609400"/><path d="M36.229 45.644l.664 2.603c1.478-3.753 4.675-6.956 8.534-8.551a3.355 3.355 0 0 0-.41 1.548 33.289 33.289 0 0 1 9.777-3.161 32.284 32.284 0 0 1-5.702 6.978l1.648-.34a447.997 447.997 0 0 1-5.495 6.502l.749-.066c-2.256 3.742-5.333 7.068-8.952 9.677-1.508 1.087-1.634-.712-2.034-1.753a14.715 14.715 0 0 1-.942-4.436 16.165 16.165 0 0 1 2.163-9.001z" fill="#8FD300"/><path d="M36.206 60.194c.5-1.97 1.09-3.933 1.897-5.834a25.695 25.695 0 0 1 3.091-5.414c1.255-1.685 2.731-3.214 4.305-4.627.801-.696 1.643-1.34 2.491-1.977.856-.623 1.711-1.26 2.647-1.763-.927.517-1.77 1.166-2.616 1.801a43.424 43.424 0 0 0-2.452 2.01c-1.547 1.432-2.989 2.975-4.204 4.663a25.313 25.313 0 0 0-2.969 5.4c-.765 1.89-1.318 3.842-1.779 5.803l-.411-.062z" fill="#609400"/><path d="M89.772 71.278l-1.26.314c1.684.597 3.015 1.94 3.555 3.584a1.535 1.535 0 0 0-.707-.16c.563 1.31.886 2.73.952 4.177a12.051 12.051 0 0 1-2.97-2.38l.068.705a161.624 161.624 0 0 1-2.757-2.296l-.01.322a12.117 12.117 0 0 1-4.063-3.752c-.428-.638.425-.712.937-.896a8.178 8.178 0 0 1 2.138-.454c1.447-.107 2.9.171 4.117.836z" fill="#7DC200"/><path d="M82.93 71.36c.896.195 1.783.429 2.63.755.848.326 1.65.75 2.369 1.273.72.522 1.357 1.14 1.932 1.802.546.685 1.075 1.388 1.47 2.169-.41-.77-.955-1.465-1.511-2.134a11.576 11.576 0 0 0-1.958-1.753 10.158 10.158 0 0 0-2.37-1.214c-.843-.308-1.727-.523-2.621-.698l.058-.2z" fill="#609400"/><path d="M86.601 64.626l-.5 1.12c1.53-1.004 3.477-1.379 5.2-.998-.22.111-.416.273-.564.465 1.454.2 2.854.638 4.122 1.287-1.22.55-2.513.932-3.824 1.13.213.096.427.191.64.288-1.204.347-2.412.682-3.622 1.007l.267.163a14.763 14.763 0 0 1-5.65 1.306c-.802.02-.346-.67-.19-1.151.208-.651.52-1.28.913-1.86a8.043 8.043 0 0 1 3.208-2.757z" fill="#8FD300"/><path d="M82.621 69.899a19.622 19.622 0 0 1 2.225-1.603 12.23 12.23 0 0 1 2.503-1.165c.875-.292 1.78-.475 2.686-.594.907-.086 1.82-.15 2.715-.079-.897-.055-1.811.025-2.712.126-.9.134-1.797.332-2.66.636-.862.302-1.684.708-2.452 1.193a19.233 19.233 0 0 0-2.173 1.623l-.132-.137z" fill="#609400"/><path d="M75.337 68.098l1.002.644c-1.8.049-3.62.868-4.86 2.186.242-.035.49-.014.713.06a14.055 14.055 0 0 0-2.768 3.465 14.698 14.698 0 0 0 3.781-1.278l-.385.613c1.187-.41 2.37-.83 3.55-1.263l-.139.29a14.96 14.96 0 0 0 5.397-2.19c.68-.448-.06-.759-.44-1.07a6.724 6.724 0 0 0-1.734-1.022 7.568 7.568 0 0 0-4.117-.435z" fill="#8FD300"/><path d="M81.423 70.459a18.973 18.973 0 0 0-2.678-.123c-.899.03-1.801.154-2.682.389-.88.232-1.734.57-2.556.964-.805.421-1.61.867-2.327 1.415.708-.56 1.503-1.018 2.305-1.455a14.57 14.57 0 0 1 2.556-1.014 12.151 12.151 0 0 1 2.71-.44 19.155 19.155 0 0 1 2.71.078l-.038.186z" fill="#609400"/><path d="M82.18 62.979l-.388 1.201c-.546-1.652-1.889-2.999-3.585-3.596.102.211.149.45.134.688a13.436 13.436 0 0 0-4.33-1.113 11.803 11.803 0 0 0 2.353 2.975l-.736-.1c.748.93 1.506 1.853 2.275 2.767l-.338-.005a12.068 12.068 0 0 0 3.737 4.092c.647.444.765-.376.981-.86a7.33 7.33 0 0 0 .576-2.041c.184-1.389-.04-2.803-.679-4.008z" fill="#7DC200"/><path d="M81.686 70c-.146-.878-.333-1.749-.62-2.585a9.573 9.573 0 0 0-1.18-2.36c-.5-.73-1.11-1.386-1.773-1.989-.686-.573-1.4-1.136-2.201-1.57.812.42 1.536.968 2.24 1.532.676.591 1.305 1.239 1.826 1.965a9.704 9.704 0 0 1 1.243 2.364c.308.84.514 1.715.678 2.596l-.213.047z" fill="#609400"/><path d="M44.017 57.342c3.084-1.082 6.642-2.461 9.751-1.897a8.128 8.128 0 0 0-2.845 1.123c1.22.013 2.46.03 3.594.391 1.755.56 3.063 1.882 4.303 3.16.5.516 1.003 1.034 1.407 1.624a4.301 4.301 0 0 0-2.02-.467 18.79 18.79 0 0 1 5.115 7.288c-1.804-.999-2.798-1.583-4.42-1.904-1.622-.322-3.301-.508-4.811-1.117a4.363 4.363 0 0 1 1.583 1.677c-3.102-.813-6.004-2.184-8.517-4.024.479.38.88.846 1.18 1.37A73.893 73.893 0 0 0 38.6 62.59c-.572-.076-1.38-.08-1.543-.604-.47-1.517 5.643-4.181 6.96-4.644z" fill="#7DC200"/><path d="M37.564 61.328c3.739-1.797 8.027-2.219 11.881-1.378 3.868.844 7.283 2.92 9.8 5.7-2.57-2.734-6.016-4.736-9.858-5.506-3.829-.767-8.044-.273-11.652 1.535l-.171-.35z" fill="#609400"/><path d="M63.743 69.107c.228-8.12 2.556-16.405 7.259-23.515.356-.54.767-1.105 1.384-1.344.616-.24 1.457.06 1.456.673-2.527 4.588-3.37 6.503-4.544 10.765-1.227 4.455-1.242 10.744-.605 16.448.792 7.087 3.449 11.762 5.508 18.535.33 1.09-5.065 2.292-5.994 1.383-1.39-1.362-1.855-4.988-2.368-6.81-1.466-5.204-2.25-10.637-2.096-16.135z" fill="#A66F00"/><path d="M70.675 48.821c-.386.093-.799.198-1.093.47-.279.257-.39.739-.09.957.14.108.348.15.484.305.145.147.168.374.123.565-.096.393-.358.727-.623 1.023-.499.601-1.096 1.196-1.514 1.804-.2.326-.16.644.2.759.16.072.379.136.535.31a.882.882 0 0 1 .213.602c.005.438-.273.837-.558 1.128-.295.3-.594.553-.89.828-.556.542-1.265 1.078-1.691 1.62-.198.293-.165.535.123.672.278.132.732.22 1.074.432.35.201.683.46.886.842.213.374.197.908-.082 1.302-.585.8-1.545.946-2.2 1.256-.338.157-.659.357-.836.606-.173.244-.19.535-.035.777.326.531 1.068.678 1.848.856.759.15 1.753.728 1.61 1.78-.104.55-.635.858-.94 1.042l-1.027.643c-.67.428-1.45.835-1.594 1.376-.167.528.51.974 1.18 1.049.696.094 1.57-.082 2.422.258.212.09.417.218.573.423a.92.92 0 0 1 .156.764c-.142.522-.532.855-.918 1.09-.77.455-1.588.624-2.204 1-.596.357-1.071 1.046-.795 1.523.263.486 1.063.635 1.784.51.743-.08 1.623-.396 2.511-.048.43.148.814.651.682 1.164-.102.484-.473.867-.863 1.095-.795.436-1.541.6-2.112 1.086-.566.422-.883 1.18-.588 1.702.298.532 1.115.668 1.867.727.793.081 1.556.085 2.38.231.396.09.818.223 1.112.563.307.342.271.891.018 1.254-.502.757-1.369 1.064-2.108 1.338-.758.255-1.492.595-1.93 1.22-.492.608-.183 1.45.546 1.69.691.291 1.507.294 2.286.378l2.357.213-2.369-.137c-.782-.06-1.599-.03-2.348-.312-.367-.135-.719-.391-.858-.773-.15-.373-.055-.827.18-1.172.46-.713 1.287-1.114 2.032-1.39.74-.288 1.514-.607 1.89-1.214.186-.292.184-.624-.015-.847-.198-.226-.554-.35-.911-.42-.722-.116-1.556-.117-2.331-.18-.761-.062-1.745-.123-2.255-.911-.461-.809.01-1.808.693-2.345.673-.579 1.565-.797 2.174-1.15.302-.177.518-.438.575-.707.054-.257-.093-.47-.38-.588-.585-.247-1.38-.013-2.194.102-.803.124-1.88.063-2.39-.785-.237-.417-.156-.96.08-1.35.232-.4.569-.716.954-.96.774-.462 1.581-.63 2.202-1.016.298-.171.544-.439.597-.667.054-.209-.097-.396-.391-.523-.595-.26-1.397-.129-2.25-.226-.44-.063-.858-.21-1.209-.49-.356-.26-.6-.78-.454-1.27.137-.496.514-.831.853-1.086.356-.26.703-.454 1.044-.67l1.03-.637c.366-.216.615-.39.655-.63.05-.244-.086-.547-.307-.756-.212-.205-.546-.326-.903-.423-.691-.176-1.667-.316-2.156-1.1-.253-.377-.226-.953.076-1.347.296-.395.7-.625 1.092-.8.79-.323 1.597-.487 1.984-1.023.4-.534-.025-1.194-.64-1.527-.303-.197-.638-.248-1.05-.444-.194-.097-.4-.296-.432-.554-.04-.26.073-.499.197-.68.265-.373.6-.609.891-.878l.903-.795c.568-.537 1.343-1.023 1.37-1.692.019-.348-.176-.548-.563-.687-.18-.077-.396-.24-.432-.477-.04-.233.056-.446.161-.625.499-.674 1.073-1.193 1.606-1.798.271-.284.525-.593.624-.946.046-.172.034-.357-.083-.483-.105-.135-.303-.187-.458-.31-.335-.274-.18-.786.117-1.044.316-.272.731-.36 1.12-.442z" fill="#8F5600"/><path d="M86.566 50.527c-.564.135-1.127.27-1.69.403 2.007.984 3.688 2.513 4.812 4.378a7.865 7.865 0 0 0-2.14-.034c2.184 2.143 2.636 5.417 2.988 8.475-1.788-1.103-4.16-1.024-6.171-1.743-1.645-.587-3.032-1.728-3.876-3.188a7.75 7.75 0 0 1-.408 2.459c-2.221-1.93-3.271-4.792-4.25-7.546-.087.56-.176 1.12-.264 1.679-2.039-1.62-2.754-4.294-3.37-6.809-.44-1.798.506-2.128 2.161-2.167 1.52-.036 3.03.107 4.49.417 1.46.31 2.87.786 4.189 1.42a17.31 17.31 0 0 1 1.841 1.023c.238.152 1.494 1.28 1.688 1.233z" fill="#8FD300"/><path d="M72.13 46.74c6.686 3.148 12.41 7.927 16.534 13.785-4.243-5.776-10.048-10.419-16.74-13.414l.206-.37z" fill="#609400"/><path d="M77.928 40.149c2.048-.848 4.258-1.186 6.435-1.364l-1.37 1.362c3.192-1.072 6.734-.919 9.58.414a4.1 4.1 0 0 0-1.408.67c3.87 1.151 7.073 3.798 8.73 7.212l-3.38.016c-1.84.008-3.746.003-5.351-.71l1.44 2.246-3.884-1.36c-1.61-.563-3.247-1.14-4.551-2.148.345.447.63.936.844 1.455-2.441-1.06-5.157-1.64-7.935-1.694-.888-.017-1.805.015-2.615-.267-3.951-1.373 1.563-5.045 3.465-5.832z" fill="#7DC200"/><path d="M73.912 43.837c7.62-1.368 15.482-.374 22.089 2.765-6.675-3.02-14.526-3.859-22.036-2.379l-.053-.386z" fill="#609400"/><path d="M70.326 32.824l1.055 1.574c1.405-2.982 4.455-5.3 7.784-5.917l-.167 1.008C83 27.443 89.607 26.023 93.78 27.105c-2.48 2.46-7.54 5.135-10.934 6.014l2.964.258a58.688 58.688 0 0 1-7.885 2.904c.394.15 1.134.788 1.529.938-2.08 1.17-3.833 3.142-5.795 4.391-.64.406-1.594 1.63-2.42 1.163-.607-.345-.923-2.543-1.095-3.192-.576-2.172-.82-4.55.181-6.757z" fill="#8FD300"/><path d="M71.553 42.671c.037-1.886.522-3.847 1.629-5.517 1.083-1.676 2.623-3.052 4.314-4.143 1.698-1.096 3.566-1.892 5.457-2.551 1.895-.662 3.823-1.191 5.737-1.774-1.905.613-3.827 1.175-5.706 1.866-1.876.687-3.72 1.51-5.378 2.618-1.652 1.104-3.137 2.481-4.159 4.123-1.042 1.634-1.472 3.516-1.476 5.355l-.418.023z" fill="#609400"/><path d="M80.072 89.957c-.428.003-.782-.274-.844-.67-.473-3.011-.823-6.063-.586-9.145.256-3.322 1.233-6.71 3.291-9.534.433-.066.88.01 1.234.225-1.394 1.937-2.23 3.665-2.684 5.94-.818 4.11-.13 8.209 1.313 11.965.217.564-.238 1.21-.887 1.218-.277.005-.553-.002-.837 0z" fill="#8F5600"/><path d="M80.678 70.57a.778.778 0 0 0-.015.336c.025.162.093.328.24.405.181.094.417.023.616-.064.226-.1.46-.236.559-.455a.687.687 0 0 0 .035-.412c-.152-.793-1.242-.463-1.435.19z" fill="#9E2D00"/><path d="M81.533 70.954c-.128.286-.057.646.2.804a.73.73 0 0 0 .51.076 1.3 1.3 0 0 0 .494-.218c.17-.118.325-.266.418-.446.184-.352.057-.891-.403-.887-.461.005-1.023.233-1.219.671z" fill="#A83100"/><path d="M81.641 70.193a.75.75 0 0 0-.086.293c-.01.203.123.4.323.45.154.039.322-.007.478-.06.3-.1.627-.256.744-.541.13-.32-.109-.798-.471-.84-.393-.047-.831.386-.988.698z" fill="#912A00"/><path d="M32.883 86.832l1.246-.378c-1.226 1.4-1.818 3.273-1.581 5.002a1.66 1.66 0 0 1 .553-.507c.072 1.447.4 2.864.968 4.173a13.64 13.64 0 0 0 1.586-3.64l.245.659c.49-1.148.968-2.3 1.435-3.454l.148.278a13.632 13.632 0 0 0 1.955-5.413c.102-.784-.681-.406-1.211-.302-.717.14-1.42.383-2.08.71-1.32.655-2.48 1.654-3.264 2.872z" fill="#7DC200"/><path d="M39.053 83.523c-.711.62-1.397 1.269-2.008 1.977a11.608 11.608 0 0 0-1.56 2.299c-.422.82-.73 1.684-.968 2.56-.2.879-.38 1.772-.408 2.663.01-.892.172-1.786.357-2.672.22-.882.513-1.757.923-2.59.407-.836.93-1.625 1.535-2.35.605-.728 1.286-1.395 1.991-2.032l.138.145z" fill="#609400"/><path d="M32.446 79.314l.93.73c-1.787-.101-3.665.567-5.016 1.786.243-.015.486.026.7.12a14.318 14.318 0 0 0-3.065 3.245 14.57 14.57 0 0 0 3.862-.965l-.438.583c1.213-.312 2.424-.636 3.632-.97l-.164.28a14.89 14.89 0 0 0 5.548-1.746c.715-.393.01-.767-.337-1.111a6.612 6.612 0 0 0-1.62-1.17 7.377 7.377 0 0 0-4.032-.782z" fill="#8FD300"/><path d="M38.268 82.189a18.307 18.307 0 0 0-2.642-.344c-.895-.043-1.801.01-2.697.175-.896.163-1.774.437-2.627.77-.84.36-1.68.747-2.445 1.243.758-.51 1.59-.91 2.427-1.287.85-.348 1.729-.638 2.631-.819a11.95 11.95 0 0 1 2.728-.225c.907.027 1.8.145 2.68.3l-.055.187z" fill="#609400"/><path d="M44.025 77.105l-.6 1.08c1.607-.879 3.569-1.09 5.238-.565a1.694 1.694 0 0 0-.602.419c1.42.323 2.763.877 3.956 1.633a14.5 14.5 0 0 1-3.89.812l.608.343c-1.224.246-2.45.482-3.679.705l.25.186a14.58 14.58 0 0 1-5.713.835c-.796-.045-.28-.7-.082-1.168a7.51 7.51 0 0 1 1.08-1.788 8.13 8.13 0 0 1 3.434-2.492z" fill="#8FD300"/><path d="M39.591 82.029a19.842 19.842 0 0 1 2.353-1.41 12.31 12.31 0 0 1 2.585-.954 14.36 14.36 0 0 1 2.71-.373c.905-.012 1.812-.001 2.691.14-.881-.126-1.791-.12-2.691-.094a14.27 14.27 0 0 0-2.689.416 12.17 12.17 0 0 0-2.538.986c-.807.418-1.566.912-2.302 1.434l-.119-.145z" fill="#609400"/><path d="M35.559 75.976c.287.286.575.57.862.857-.236-1.737.363-3.62 1.598-5.024.002.238.064.473.18.675a14.96 14.96 0 0 1 3.331-3.224 12.999 12.999 0 0 1-.783 3.84l.605-.47a183.571 183.571 0 0 1-.804 3.615l.294-.18a13.42 13.42 0 0 1-1.517 5.541c-.378.726-.836.065-1.237-.25a6.583 6.583 0 0 1-1.39-1.499 6.612 6.612 0 0 1-1.14-3.881z" fill="#7DC200"/><path d="M38.898 82.029c-.24-.86-.441-1.737-.537-2.635a10.257 10.257 0 0 1 .061-2.72c.142-.908.412-1.8.75-2.669.373-.857.772-1.711 1.302-2.5-.515.795-.897 1.657-1.252 2.514-.32.87-.57 1.762-.693 2.662-.126.9-.121 1.802-.007 2.686.113.883.329 1.745.584 2.593l-.208.069z" fill="#609400"/><path d="M49.756 98.545c.378-.216.569-.643.45-1.024-.897-2.895-1.92-5.763-3.474-8.354-1.675-2.794-4.013-5.275-7.058-6.703-.41.165-.771.462-.989.832 2.073.989 3.563 2.08 4.956 3.85 2.514 3.198 3.697 7.162 4.065 11.213.055.608.737.94 1.312.616.246-.138.486-.285.738-.43z" fill="#8F5600"/><path d="M40.403 81.775c.077.08.126.183.159.288.048.156.06.337-.037.481-.119.177-.357.237-.57.264-.242.03-.507.031-.689-.11a.638.638 0 0 1-.21-.346c-.208-.777.894-1.053 1.347-.577z" fill="#9E2D00"/><path d="M39.836 82.513c.236.185.33.538.171.811a.8.8 0 0 1-.415.332c-.17.063-.354.077-.53.064a1.144 1.144 0 0 1-.561-.176c-.315-.215-.436-.755-.029-.99.407-.236 1-.326 1.364-.041z" fill="#A83100"/><path d="M39.374 81.9a.66.66 0 0 1 .204.213.48.48 0 0 1-.09.565c-.12.113-.286.16-.447.195-.309.066-.664.099-.89-.092-.252-.213-.25-.759.052-.984.326-.246.898-.092 1.171.103z" fill="#912A00"/><path d="M47.262 102.612c.068.102.205.145.336.138.131-.007.258-.059.378-.115.238-.109.52-.272.58-.538.049-.216-.08-.468-.322-.477-.382-.013-1.236.597-.972.992zm2.982-1.506c-.089.099-.175.24-.105.342.057.082.185.082.294.07.3-.032.637-.109.807-.356.039-.056.067-.123.052-.184-.012-.052-.051-.092-.091-.129-.354-.332-.66-.076-.957.257zm-1.194 1.669a.437.437 0 0 0-.136.218c-.016.083.014.175.09.213.063.032.144.02.218.003.154-.036.304-.092.445-.165.129-.067.258-.159.305-.292.197-.557-.755-.138-.923.023zm2.15-.358a.267.267 0 0 0-.038.131c0 .045.025.09.068.106a.198.198 0 0 0 .094.004c.142-.017.282-.044.42-.081a.514.514 0 0 0 .17-.069.262.262 0 0 0 .106-.277c-.118-.409-.69-.056-.82.186zm-6.511 3.178c-.044.069-.08.153-.05.224.035.084.143.112.24.114.276.009 1.11-.302.856-.686-.23-.348-.891.105-1.046.348zm2.083.23c-.059.057-.117.126-.113.203.005.069.064.123.133.144a.47.47 0 0 0 .217 0c.15-.026.298-.074.435-.142.127-.063.252-.15.31-.273.323-.681-.81-.096-.982.068zm-3.472 1.639c-.049.052-.097.124-.067.183.024.049.089.063.146.069.265.026 1.579-.308 1.163-.625-.372-.283-.976.093-1.241.373zm2.734-.075c-.08.048-.17.124-.149.208.026.098.173.096.283.073.2-.041.4-.083.597-.135.215-.057.917-.374.446-.533-.332-.112-.907.225-1.177.387zm-6.421-3.963c-.078.028-.161.062-.21.129-.078.11-.014.266.104.322.117.055.267.032.395-.019.16-.064.586-.319.426-.523-.133-.168-.555.033-.715.091zm-1.101 1.381c.136-.033.63-.122.67-.27.045-.16-.218-.269-.344-.256-.17.017-.34.16-.456.273-.185.181-.143.319.13.253zm1.391-.115c.035.086.16.093.26.077.171-.026.498-.088.614-.235.099-.126.025-.278-.122-.316-.2-.052-.852.231-.752.474zm-1.336.975c-.042.035-.084.075-.098.126-.023.084.043.166.125.195a.57.57 0 0 0 .266.001c.131-.023.262-.05.392-.083.112-.029.243-.079.273-.186.05-.176-.198-.279-.344-.288-.204-.014-.457.109-.614.235zm-2.106 0c-.065.036-.133.084-.15.152-.019.079.042.154.12.18a.506.506 0 0 0 .247.003 3.86 3.86 0 0 0 .425-.088c.087-.023.181-.053.236-.123.121-.154-.032-.318-.186-.339-.207-.029-.514.114-.692.215zm29.589-5.484c-.198.2-.346.535-.148.707.09.078.223.092.348.093.527.003 2.378-.588 1.72-1.317-.45-.496-1.548.14-1.92.517zm-2.502.06c-.104.05-.217.126-.225.232-.007.083.056.154.136.185.078.031.168.03.255.023a3.002 3.002 0 0 0 1.063-.279c.052-.024.108-.055.132-.105.028-.058.003-.124-.037-.17-.265-.305-1.008-.038-1.324.114zm-3.608-.062c-.088.067-.168.168-.147.268.018.083.104.137.193.148a.763.763 0 0 0 .272-.03c.224-.053 1.522-.221 1.125-.62-.303-.303-1.153.01-1.444.234zm1.15 2.153a.21.21 0 0 0-.052.091c-.015.098.121.138.225.136.287-.005 1.898-.453 1.473-.891-.15-.154-.563-.104-.758-.05-.386.107-.647.422-.888.714zm-2.962-.068c-.28.145-.531.359-.67.63.214.138.515.085.777.01a5.99 5.99 0 0 0 .924-.351c.085-.041.174-.089.22-.167a.203.203 0 0 0-.108-.291c-.385-.127-.762-.027-1.143.169zm20.029-7.118a.852.852 0 0 0-.289.207.422.422 0 0 0-.09.349c.008.036.024.074.055.094.034.022.079.02.12.02a2.575 2.575 0 0 0 1.104-.328c.23-.13.523-.488.183-.64-.275-.122-.84.175-1.083.298zm-1.517 2.239c-.06.048-.122.103-.143.174-.028.095.03.192.115.24a.55.55 0 0 0 .292.05c.46-.018.923-.251 1.212-.611.072-.09.135-.204.096-.304-.235-.58-1.284.221-1.571.45zm2.772-.64c-.012.027-.025.057-.015.084.017.04.077.043.126.037.382-.046.752-.188 1.107-.346.118-.052.246-.116.296-.23.17-.389-.406-.394-.64-.308a1.599 1.599 0 0 0-.874.763zm-1.026 1.528c-.258.179-.474.423-.579.706a.205.205 0 0 0-.017.11c.019.086.13.11.223.114.42.015.855-.103 1.219-.332.158-.1.307-.224.39-.385.142-.278-.002-.635-.351-.623-.266.01-.672.262-.885.41zm4.407-.519a.58.58 0 0 0-.14.2c-.028.075-.018.165.042.214.059.048.148.046.229.038a3.054 3.054 0 0 0 1.09-.32c.158-.081.33-.206.332-.373.006-.286-.427-.353-.66-.31-.333.06-.666.316-.893.55zm2.07.809c-.07.082-.137.193-.093.283.052.104.208.101.333.076.44-.09.862-.288 1.213-.57.071-.057.145-.124.164-.21.031-.132-.088-.253-.224-.282-.471-.1-1.106.37-1.393.703zm4.292-4.925c-.103.06-.219.154-.2.263.01.052.052.094.1.119.136.069.31.027.464-.018l.493-.14c.215-.062.556-.15.656-.374.08-.177.008-.307-.17-.343-.36-.073-1.045.32-1.343.493z" fill="#D17100"/><path d="M46.872 99.14a.35.35 0 0 1 0-.23c.063-.156.275-.213.445-.196.17.017.333.083.506.07.267-.022.492-.226.65-.442.159-.216.28-.458.479-.641.198-.184.514-.293.733-.164.137.08.216.24.372.282.184.05.375-.083.542-.192a1.26 1.26 0 0 1 .46-.205c.165-.029.346.004.453.118.193.204.073.547-.102.788-.46.636-1.197 1.015-1.895 1.357-.276.134-.582.341-.888.395-.317.055-.682-.05-.96-.164-.36-.148-.692-.401-.795-.777zm10.903-3.443c-.194-.106-.382-.24-.478-.432-.096-.194-.077-.459.097-.615.123-.112.3-.15.464-.145.164.005.32.047.48.072.19.03.44.008.522-.166.059-.125-.002-.258-.023-.388-.04-.24.056-.49.163-.722.064-.135.133-.272.243-.379.11-.106.268-.179.414-.15.195.036.3.231.333.419.032.187.017.386.083.562.024.064.063.128.131.148.066.02.14-.007.204-.04.246-.131.42-.36.638-.532.218-.172.544-.282.755-.13.171.122.191.36.193.57.003.429-.019.886-.273 1.258-.155.227-.383.4-.621.546-1.042.635-2.316.675-3.325.124zm7.339-1.95c-.428-.202-.784-.565-.867-1.023-.041-.233.022-.528.255-.635a.545.545 0 0 1 .287-.037c.375.043.718.324 1.087.203a1.489 1.489 0 0 1-.05-.808c.05-.248.152-.495.334-.686.181-.19.45-.318.706-.294a.42.42 0 0 1 .23.084c.125.103.138.285.143.448l.014.473c.001.031.002.066.018.092a.15.15 0 0 0 .095.064c.226.062.445-.144.637-.295.137-.108.29-.197.453-.263.164-.066.35-.109.51-.051.152.055.252.193.306.34.167.44-.01.971-.336 1.36-.326.387-.78.656-1.239.889-.387.198-.865.474-1.303.428-.438-.044-.89-.106-1.28-.29zm7.825-2.051c-.322-.203-.609-.565-.465-.93.146-.373.667-.503 1.048-.394.132.039.26.097.4.096.142-.001.303-.091.318-.226.007-.064-.02-.125-.043-.183-.1-.247-.15-.513-.146-.784a.512.512 0 0 1 .082-.31.62.62 0 0 1 .218-.158 5.37 5.37 0 0 1 .519-.233c.25-.097.552-.172.756-.027.213.153.203.47.115.727-.088.256-.237.506-.237.77.37-.053.646-.39 1.004-.504.361-.115.775.04.936.35.252.487-.146 1.125-.658 1.433-1.132.68-2.744 1.07-3.847.373zm9.877-2.848c.048.04.091.088.153.103.12.03.246-.077.295-.192.048-.115.05-.241.092-.358.114-.312.478-.472.803-.585.194-.067.412-.131.59-.054.18.077.263.279.255.47-.008.193-.09.38-.17.561.354-.13.748-.202 1.089-.089.341.114.6.463.5.81-.088.302-.4.504-.702.64-.857.382-2.218.603-3.088.267-.462-.178-1.051-.508-.934-1.086.092-.45.732-.799 1.117-.487z" fill="#66B000"/><path d="M85.82 85.657a51.593 51.593 0 0 1 2.728-.936c.461-.147.9-.296 1.404-.41.51-.123 1.082-.012 1.49.17.423.183.788.352 1.22.429.422.091.871.109 1.328.107.916-.022 1.856-.203 2.8-.346-.91.32-1.842.588-2.814.687-.485.054-.976.04-1.454-.035-.48-.07-.93-.272-1.319-.434-.4-.174-.77-.25-1.206-.167-.432.072-.908.225-1.372.323-.93.224-1.863.442-2.806.612zm-57.585 9.645a5.036 5.036 0 0 0-1.857 1.033c-.252.232-.497.487-.669.757-.179.269-.24.518-.193.813.032.292.15.606.198.955a4.226 4.226 0 0 1-.746 3.028c.24-.66.355-1.322.36-1.966a4.748 4.748 0 0 0-.093-.943c-.054-.304-.175-.604-.227-.969-.061-.36.055-.82.302-1.134.238-.319.513-.585.827-.814a3.847 3.847 0 0 1 2.098-.76zm3.342-.718c-.399.266-.705.59-1.008.921-.292.342-.625.678-.813 1.016-.2.326-.219.728-.295 1.17-.063.433-.265.962-.71 1.2.302-.371.308-.787.316-1.192-.003-.406-.02-.895.247-1.366.27-.45.627-.762.989-1.073.364-.309.807-.578 1.274-.676zm-4.906 14.619c-.718-.212-1.17-.968-1.087-1.744.055-.78.547-1.524 1.159-2.055 1.248-1.081 2.767-1.496 3.875-2.596-.398.656-1.044 1.179-1.691 1.61-.645.443-1.315.828-1.86 1.316-.552.472-.97 1.074-1.093 1.731-.121.641.092 1.349.697 1.738zm7.127-8.121c-.148-.062-.197-.245-.183-.399.008-.162.057-.315.1-.464.098-.3.236-.598.43-.874.392-.573 1.004-.953 1.548-1.288 1.104-.65 2.105-1.417 3.1-2.265-.699 1.07-1.726 1.972-2.858 2.65-.559.334-1.093.649-1.483 1.097a4.335 4.335 0 0 0-.513.747c-.141.259-.332.557-.141.796z" fill="#A1CDFF"/><path d="M21.528 40.167c.827-.408 1.976-.756 2.858-.993-.94-.17-1.883.12-2.79.41-.548.174-1.1.35-1.603.642-.578.337-1.075.82-1.566 1.298a3.642 3.642 0 0 0-2.13-.56 3.32 3.32 0 0 0-1.07.232c-.27.101-.9.503-1.076.751 2.37-.987 3.157-.234 3.865.533l-.275.795c1.016-1.469 2.267-2.356 3.787-3.108zm9.922-6.887c1.056-.524 2.525-.968 3.653-1.27-1.203-.219-2.407.153-3.567.522-.7.223-1.405.448-2.048.823-.739.431-1.375 1.048-2.003 1.658a4.657 4.657 0 0 0-2.723-.715 4.223 4.223 0 0 0-1.366.296c-.346.13-1.152.643-1.375.96 3.028-1.262 4.034-.3 4.94.683l-.352 1.015c1.299-1.878 2.898-3.012 4.84-3.973z" fill="#944625"/><path d="M71.481 45.361c-.225.204-.495.335-.773.44-.515.184-1.071.254-1.57.122-.128-.036-.257-.07-.363-.14l-.017-.01c-.342-.175-.617-.453-.728-.805-.206-.566.086-1.526.597-2.19.267-.344.582-.615.922-.709.66-.21 1.431.327 1.853.72.15.13.264.297.366.48.348.656.336 1.524-.287 2.092z" fill="#9E2D00"/><path d="M71.756 43.262a.745.745 0 0 0-.188-.102c-.446-.174-.973-.24-1.455-.121-.787.175-1.488.848-1.556 1.601-.014.329.07.63.158.945.012.053.041.115.04.173-.341-.175-.615-.452-.726-.803-.205-.564.087-1.52.595-2.182.267-.342.58-.613.92-.706.657-.21 1.427.326 1.847.718.15.128.263.294.365.477z" fill="#8F2700"/><path d="M73.164 47.46c-.679.489-1.725.488-2.323-.014a.934.934 0 0 1-.27-.304c-.17-.269-.24-.577-.283-.88-.092-.806.16-1.406.88-1.894.312-.213.661-.384 1.018-.407.16-.006.327.023.482.055.3.081.607.248.783.49a.323.323 0 0 1 .073.08c.548.758.525 2.239-.36 2.873z" fill="#A83100"/><path d="M73.436 44.497c-.308-.002-.636-.038-.802-.005-.436.083-.84.295-1.21.548-.24.18-.473.381-.588.639-.211.472.017.999.025 1.499.004.074-.015.167-.024.245a.932.932 0 0 1-.27-.303c-.168-.267-.238-.574-.28-.876-.092-.803.158-1.4.875-1.886.312-.212.66-.383 1.015-.406.16-.006.325.023.48.056.298.082.603.249.779.489z" fill="#942B00"/><path d="M74.638 42.786c.08.406.1.84.051 1.268-.036.312-.121.637-.347.877-.204.22-.51.342-.797.434a4.609 4.609 0 0 1-1.287.167 1.725 1.725 0 0 1-.648-.086c-.028-.005-.06-.022-.087-.026-.465-.161-.8-.572-.957-1.019-.23-.654-.086-1.423.352-2.022.676-.904 2.24-1.487 3.16-.747.147.11.245.247.333.399.12.23.183.503.227.755z" fill="#912A00"/><path d="M74.401 42.027c-.234.026-.489.022-.728.025a4.06 4.06 0 0 0-1.648.443c-.443.222-.868.578-.936 1.036-.037.186-.01.366.032.544.096.475.267.93.486 1.358-.028-.004-.059-.021-.086-.026-.464-.16-.799-.57-.955-1.016-.23-.652-.086-1.419.35-2.017.675-.901 2.236-1.483 3.154-.745.145.11.243.246.331.398z" fill="#822500"/><path d="M36.977 62.396c-.012.452-.269.91-.647 1.2a1.51 1.51 0 0 1-.676.28 1.7 1.7 0 0 1-1.473-.383c-.562-.51-.78-1.674-.268-2.388.049-.075.112-.154.196-.225.558-.51 1.893-.074 2.367.338.33.296.53.736.5 1.178z" fill="#9E2D00"/><path d="M36.975 62.406c-.012.454-.27.915-.65 1.206-.198.148-.44.246-.68.28.09-.117.162-.23.232-.358.175-.39.174-.826.065-1.232a1.747 1.747 0 0 0-.355-.68c-.286-.309-.72-.47-1.158-.504-.189-.025-.366-.008-.532-.009.05-.076.113-.155.197-.225.561-.513 1.903-.075 2.379.339.331.297.532.74.502 1.183z" fill="#8F2700"/><path d="M39.542 62.235c.03.327-.036.68-.257.95-.356.447-1.162.753-1.848.802-.249.013-.473.006-.665-.053-.65-.183-.997-.854-1.115-1.491-.061-.332-.081-.675.024-.997.053-.154.123-.3.214-.422.301-.432.805-.627 1.377-.59 1.175.068 2.15.635 2.27 1.801z" fill="#A83100"/><path d="M39.541 62.244c.03.328-.036.682-.258.953-.358.45-1.166.756-1.855.806.023-.034.047-.055.07-.089.215-.228.49-.388.655-.643.195-.32.183-.694.09-1.033a1.62 1.62 0 0 0-.44-.816c-.35-.352-.89-.497-1.42-.476a2.15 2.15 0 0 0-.503.084c.303-.434.808-.63 1.383-.592 1.178.067 2.158.636 2.278 1.806z" fill="#942B00"/><path d="M38.652 59.507c.239.587.058 1.347-.46 1.795a1.652 1.652 0 0 1-.493.303c-.336.149-.69.218-1.05.262-.26.03-.525.033-.764-.04-.259-.095-.438-.296-.604-.5-.297-.392-.508-.862-.488-1.354 0-.126.02-.229.056-.335.27-.882 1.37-1.185 2.269-1.141.671.024 1.296.422 1.534 1.01z" fill="#912A00"/><path d="M38.651 59.508c.239.588.058 1.348-.461 1.798a1.655 1.655 0 0 1-.493.303c-.033-.145-.016-.33.006-.49.091-.568.064-1.201-.347-1.575-.389-.338-.996-.337-1.549-.226-.337.079-.655.18-.963.321.271-.883 1.372-1.186 2.271-1.142.672.024 1.297.423 1.536 1.01z" fill="#822500"/></g></svg>