<svg width="107" height="82" viewBox="0 0 107 82" fill="none" xmlns="http://www.w3.org/2000/svg"><g opacity=".4"><path d="M5.182 45.438c-1.197-1.282-.279-3.51 1.211-4.435 2.086-1.296 4.85-1.017 6.875-2.546.804-.608 1.387-1.511 1.401-2.52.031-2.149-2.33-3.29-4.32-3.963l-5.342-1.808c-1.123-.38-2.28-.78-3.16-1.576l-.025-.024c-1.335-1.233-.76-3.465.96-4.05 3.77-1.28 8.466-.635 11.831-2.172 1.707-.78 1.77-3.198.084-4.021-1.205-.588-2.377-1.187-2.403-2.633-.025-1.331.992-2.46 2.292-2.746l11.923-2.636c1.526-.338 2.058-1.016 1.92-1.732-.135-.694-.784-.827-1.336-1.009a4.927 4.927 0 0 1-.974-.447c-2.32-1.384-1.771-4.843.833-5.56 1.261-.347 2.662-.443 3.958-.482C42.54.723 54.17.368 65.802.015c2.282-.07 4.952.04 6.285 1.894.195.272.357.604.287.93-.167.795-1.396 1.291-2.139 1.615-1.4.613-1.165 2.296-.013 3.302 1.153 1.007 2.797 1.145 4.319 1.295a59.967 59.967 0 0 1 15.581 3.685c.54.207 1.047.52 1.407.97 1.145 1.434.044 2.963-1.186 3.794-1.444.977-3.269 1.547-3.521 3.781-.175 1.538.533 3.026 1.684 4.06 2.134 1.919 5.044 2.25 7.69 3.134 2.336.78 4.742 2.314 5.209 4.731.535 2.763-1.694 5.294-4.046 6.838-2.353 1.544-5.105 2.716-6.672 5.053-.36.537-.653 1.15-.644 1.796.02 1.36 1.306 2.324 2.51 2.959a24.352 24.352 0 0 0 5.289 2.043c1.698.437 3.531.73 4.757 2.068.694.757 1.024 1.832.692 2.803-.397 1.165-1.459 1.457-2.456 1.677-10.477 2.313-21.532.884-31.951 1.466-5.293.295-10.603.276-15.869-.33-12.093-1.391-24.721-.368-36.827-2.928a6.442 6.442 0 0 1-2.61-1.182c-4.578-3.537 2.765-4.935 2.326-6.712-.73-2.935-8.802-1.264-10.722-3.32z" fill="#B4F1FE"/><path d="M22.488 46.47c-3.007-10.587-.21-24.419 7.422-31.995C43.51.975 72.278 4.36 80.413 22.418c3.397 7.54 3.71 16.864 1.72 24.85-2.08 8.35-7.594 15.555-15.504 17.598-7.055 1.82-16.557 3.01-23.602.93-8.167-2.41-17.996-10.371-20.54-19.327z" fill="#FFBC00"/><path d="M68.407 14.808c.246.169.469.325.666.462 3.234 2.238 6.06 5.11 7.987 8.556 2.425 4.34 3.3 9.355 3.159 14.283-.14 4.854-.722 10.142-3.844 14.078-.128.161-.272.328-.47.381-.57.154-.88-.65-.886-1.24-.027-2.875.767-5.684 1.223-8.523.847-5.268.497-10.806-1.586-15.718-1.424-3.357-3.692-6.39-6.605-8.597-1.443-1.094-3-1.918-4.695-2.54-1.652-.607-3.652-.962-5.014-2.144-1.038-.902-.797-1.97.312-2.524 2.56-1.282 7.266 1.81 9.753 3.526z" fill="#fff"/><path d="M95.017 56.234l.333.031c3.8.363 9.55 1.553 9.928 6.761.167 2.305-1.151 4.508-2.897 5.82-1.745 1.313-3.865 1.88-5.952 2.295-1.771.352-4.044 1.209-3.975 3.17.041 1.172.99 2.07 1.276 3.203 1.789 7.136-14.87 7.257-18.522 7.375-14.96.48-29.704-4.443-43.29-10.885-3.32-1.576-6.676-3.298-9.255-6.07-5.026-5.399-5.129-11.445 2.203-12.35 23.22-2.872 46.93-1.562 70.151.65z" fill="#76B6FF"/><path d="M40.26 11.161c-.476.238-.994.604-1 1.136-.006.496.446.872.892 1.088.955.463 2.047.556 3.108.54 2.785-.044 5.536-.786 8.321-.705.433.013.873.044 1.292-.064.42-.108.823-.388.947-.803.157-.528-.178-1.078-.57-1.464-1.594-1.57-3.89-1.287-5.938-1.227-2.413.071-4.87.41-7.052 1.5z" fill="#fff"/><path d="M95.836 58.137c.662.046 1.34.102 1.942.38l.018.008c.776.365.54 1.54-.312 1.63l-8.61.898c-.234.024-.488.058-.653.226-.288.296-.1.834.254 1.044.356.211.795.191 1.208.173 3.946-.176 11.701.374 11.701 1.484-.078.576-.817.748-1.397.784l-6.526.391c-.392.024-.928.247-.797.616a.516.516 0 0 0 .223.244c.736.467 2.303.226 2.293 1.045.027.365-.755.42-1.196.447l-7.979.47c-.398.023-.486.578-.111.716.286.106.61.18.896.282.525.188.547.96.02 1.145-.482.169-1.033.202-1.551.218-3.095.1-6.192.106-9.287.02-.902-.025-1.877-.084-2.572-.66-.291-.241-.523-.648-.356-.987.169-.342.623-.402 1.004-.417l2.727-.11c.21-.009.433-.021.605-.141.472-.33.147-1.12-.356-1.4-.572-.32-1.314-.355-1.985-.459-.79-.122-.803-1.263-.019-1.424 1.681-.348 3.578-.063 5.221-.662.284-.104.59-.268.669-.56.13-.484-.442-.864-.937-.95-.585-.1-1.188-.042-1.776-.126-.588-.083-2.326-.382-1.456-.893.988-.567 2.196-.507 3.334-.554.662-.028 1.366-.122 1.97-.38a.778.778 0 0 0-.143-1.485c-.695-.15-1.508-.154-2.224-.277-.35-.06-.39-.56-.047-.655 2.25-.625 5.042-.181 7.309-.25a89.917 89.917 0 0 1 8.896.169z" fill="#A1CDFF"/><path d="M94.387 35.036c1.172-.257 2.735-.31 3.925-.308-1.144-.586-2.426-.536-3.664-.475-.747.036-1.5.074-2.226.293-.834.25-1.61.732-2.376 1.21-.7-.808-1.595-1.349-2.537-1.568-.428-.1-.817-.142-1.426-.079-.374.04-1.293.36-1.589.637 3.303-.481 4.076.853 4.745 2.18l-.586.995c1.728-1.652 3.581-2.411 5.734-2.885zm8.41 4.634c.986-.216 2.3-.26 3.301-.259-.961-.493-2.041-.45-3.081-.399-.629.031-1.262.063-1.873.246-.702.211-1.354.617-2 1.018-.589-.679-1.34-1.134-2.132-1.32a3.313 3.313 0 0 0-1.2-.065c-.315.033-1.088.303-1.337.536 2.777-.405 3.428.718 3.991 1.834l-.493.838c1.454-1.392 3.013-2.03 4.824-2.429zM90.98 46.952c.638-.14 1.488-.17 2.137-.168-.623-.32-1.321-.292-1.995-.258-.407.02-.817.04-1.212.159-.455.136-.877.4-1.294.659a2.635 2.635 0 0 0-1.381-.854 2.138 2.138 0 0 0-.777-.043c-.204.022-.705.196-.866.348 1.799-.262 2.22.464 2.585 1.187l-.319.542c.94-.9 1.948-1.314 3.121-1.572z" fill="#944625"/><path d="M19.542 51.946c13.819 1.8 37.602 7.212 59.397 23.471 4.625 3.45 3.59 10.323-1.886 12.671-11.493 4.926-25.456 3.98-37.603 3.53-13.808-.512-63.337-10.494-44.048-31.38 5.961-6.455 15.168-9.46 24.14-8.292z" fill="#FFAC00"/><path d="M26.19 37.746c-1.125 11.253-1.726 13.76-2.344 21.478a6.24 6.24 0 0 1-.038.42c-.143 1.933-.314 4.059-1.83 5.212a4.846 4.846 0 0 1-1.991.905c-5.337 1.048-11.102 1.477-16.324.019-2.401-.677-4.069-2.059-4.288-4.546a828.69 828.69 0 0 0-2.469-23.699c2.487.943 5.136 1.41 7.795 1.591 7.186.488 14.371.678 21.489-1.38z" fill="#FF494F"/><path d="M-5.401 36.236c.012.205.028.424.155.585.117.15.305.22.483.282C-.63 38.552 3.46 39.647 7.84 40.008a50.58 50.58 0 0 0 13.998-.8c2.105-.419 4.047-.957 5.948-1.974a.834.834 0 0 0 .434-.627c.08-.666.094-1.235.097-1.911a.319.319 0 0 0-.423-.3c-1.787.608-3.475 1.028-5.376 1.252-1.793.21-3.602.244-5.408.279-6.543.124-13.158.248-19.613-1.006-.706-.137-1.762-.615-2.47-.515-.825.115-.463 1.195-.427 1.83z" fill="#F0353A"/><path d="M-2.505 34.92c6.455 1.253 13.07 1.13 19.614 1.006 1.805-.035 3.613-.069 5.407-.28 1.901-.222 3.59-.643 5.376-1.252.019-.006.037-.002.056-.005-.253-.525-.68-.836-.936-.946-3.82-1.645-8.385-1.328-12.42-1.391-4.33-.067-8.665.076-12.979.495-.727.07-3.032.101-4.695.647-.794.262-1.433.644-1.692 1.201.697-.002 1.627.4 2.27.525z" fill="#F0353A"/><path d="M-4.476 36.177a1.72 1.72 0 0 0-.022.365c.101 2.552 2.365 4.65 3.969 6.417 2.039 2.248 4.305 4.68 6.913 6.267 2.577 1.569 5.606 2.33 8.613 2.352a19.16 19.16 0 0 0 5.148-.67c1.454-.395 3.525-.93 4.69-1.916.331-.28 1.319-1.516.386-1.687-.283-.052-.561.09-.819.22-6.693 3.416-15.789 3.072-20.84-3.022C1.322 41.797.07 38.28-2.6 35.995c-.453-.389-1.147-.734-1.6-.347a.874.874 0 0 0-.275.529z" fill="#40B3F1"/><path d="M23.808 59.644c-.143 1.934-.314 4.06-1.83 5.213a4.846 4.846 0 0 1-1.991.905c-5.337 1.048-11.102 1.477-16.324.019-2.401-.677-4.069-2.058-4.288-4.546A828.756 828.756 0 0 0-2.379 43.75c.02.029.029.057.048.087.467.848.896 1.725 1.181 2.658.362 1.172.505 2.402.667 3.621.4 2.954.953 5.88 1.658 8.767.21.858.438 1.744.905 2.496.686 1.086 1.83 1.83 3.04 2.25 1.21.428 2.507.561 3.783.666 2.66.22 5.356.324 7.957-.257 2.601-.572 5.117-1.887 6.689-4.031.087-.114.173-.238.259-.362z" fill="#F0353A"/><path d="M7.82 30.106l.062-.226c.657-2.317 2.956-3.185 5.223-2.944 2.028.215 4.043 1.824 3.948 4.016-.017.38-.098.752-.18 1.123l-.719 3.283-7.336-.495c-.377-.026-1.56.096-1.845-.125-.35-.271-.108-.685-.003-1.12.284-1.168.531-2.352.85-3.512z" fill="#40B3F1"/><path d="M13.111 23.927c.75-2.988 1.7-6.026 2.448-9.014l1.805.552-.813 3.166c-.67 2.68-1.203 5.122-1.891 7.797-.188.729-.278 1.552-1.047 1.64-.433.05-.818-.095-1.01-.485-.395-.806.3-2.82.508-3.656z" fill="#40B3F1"/><path d="M18.497 16.42a4.02 4.02 0 0 1-1.012-.15 35.506 35.506 0 0 1-2.045-.603l-.263-.082c-.495-.15-1.056-.321-1.47-.76-.488-.514-.472-1.223-.404-1.783.082-.674.233-1.34.449-1.979l.903.305a8.954 8.954 0 0 0-.407 1.79c-.042.353-.064.786.152 1.014.24.254.654.38 1.054.502l.28.088c.658.214 1.32.412 1.99.587.998.259 1.467.11 1.865-.588.342-.601.505-1.326.664-2.027l.043-.189.928.212-.041.187c-.175.769-.354 1.564-.765 2.289-.526.922-1.23 1.187-1.921 1.187z" fill="#40B3F1"/><path d="M12.972 10.977c.225.268.854.293 1.117.361 2.213.573 4.331 1.46 6.606 1.799.244.036.658.168.866-.016.215-.189.363-.542.311-.829-.077-.424-.606-.44-.948-.538-1.14-.324-2.276-.652-3.415-.977-.72-.205-1.442-.405-2.166-.598-.362-.096-.725-.19-1.088-.281-.283-.071-.649-.163-.913.015-.243.163-.471.567-.45.864a.332.332 0 0 0 .08.2z" fill="#40B3F1"/><path d="M-2.505 34.92c6.455 1.253 13.07 1.13 19.614 1.006 1.805-.035 3.613-.069 5.407-.28 1.901-.222 3.59-.643 5.376-1.252h.009c.209-.73-.882-1.475-1.387-1.761-2.062-1.17-4.501-1.476-6.832-1.21-2.535.29-4.787 1.547-7.307 1.94-2.193.341-4.032-.011-5.952-1.037-1.832-.978-4.16-1.2-5.97-.178-.712.402-1.318.975-2.027 1.383a5.17 5.17 0 0 1-1.42.557c-.432.1-1.124-.017-1.506.184-.067.034-.105.082-.151.125.68.04 1.542.407 2.146.523z" fill="#FFAC00"/><path d="M64.962 66.27c-2.151 7.141-7.673 13.252-15.455 15.746a23.944 23.944 0 0 1-4.673.99c-8.209.893-16.776-2.416-21.482-9.38a26.511 26.511 0 0 1-3.359-7.084c-1.8-5.895-1.622-12.466 1.397-17.806.287-.513.604-1.015.947-1.506 2.321-3.31 5.435-5.903 8.94-7.684a26.03 26.03 0 0 1 11.651-2.842 22.966 22.966 0 0 1 11.25 2.861 22.694 22.694 0 0 1 8.394 8.054c3.62 5.922 4.198 12.65 2.39 18.652z" fill="#AEFFB7"/><path d="M64.962 66.27c-2.151 7.14-7.673 13.252-15.455 15.746a23.951 23.951 0 0 1-4.673.989c-3.087-2.54-5.684-6.122-7.76-9.179-5.004-7.363-8.141-15.923-8.537-24.845-.027-.645 4.317-.434 4.71-.389 1.641.185 3.294.472 4.94.85 5.193 1.189 10.33 3.252 14.9 5.714 4.847 2.611 9.127 6.367 11.875 11.114z" fill="#FF494F"/><path d="M54.18 39.565c-3.005-.548-6.084-.838-9.096-.487-2.472.286-4.9.955-7.167 1.981-2.435 1.1-4.31 2.616-6.284 4.375-.136.12-.284.25-.46.28-.136.022-.276-.012-.408-.046-.358-.09-1.253-.147-1.476-.506-.419-.667.646-2.88.914-3.517.211-.506.468-1.053.766-1.585.098-.174.2-.348.31-.513a26.03 26.03 0 0 1 11.65-2.842c4.011-.02 7.869.988 11.25 2.86z" fill="#40B3F1"/><path d="M26.877 47.883c-.072.868-.042 1.6-.113 2.468-.011.15-.023.302-.079.445-.076.197-.222.351-.37.502-1.283 1.34-2.306 2.646-3.163 4.292a30.84 30.84 0 0 0-2.072 4.982c-.63 1.981-.932 3.947-1.086 5.97-1.8-5.895-1.623-12.465 1.397-17.806a19.29 19.29 0 0 1 5.486-.853z" fill="#FFC835"/><path d="M32.048 44.71c.768.678.903 1.941.346 3.364-1.051 2.682-4.026 4.72-6.023 4.21-1.316-.337-1.937-1.765-1.314-3.53.567-1.606 1.977-3.434 3.574-4.17 1.382-.638 2.662-.542 3.417.126z" fill="#A83100"/><path d="M31.302 45.517c.593.524.698 1.5.267 2.599-.812 2.072-3.11 3.646-4.653 3.252-1.017-.26-1.497-1.364-1.015-2.726.438-1.241 1.528-2.653 2.761-3.222 1.068-.493 2.057-.42 2.64.097z" fill="#fff"/><path d="M8.812 74.497a.619.619 0 0 0 .197-.103c.25-.2.074-.503-.35-.603l-.043-.014c-.273.034-.523.124-.646.251-.123.128-.1.293.081.401.182.11.524.145.761.068zm2.784-.522c-.112.071-.204.154-.212.245-.008.09.087.188.255.218a.819.819 0 0 0 .646-.184c.078-.067.14-.146.108-.223-.032-.077-.195-.143-.341-.116l.133-.054c-.199-.056-.445.024-.589.114zm-1.325-.317c.377-.158.556-.427.445-.669l-.107-.006c-.33-.029-.689.065-.83.22-.143.153-.056.353.2.462a.333.333 0 0 0 .118.031.396.396 0 0 0 .174-.038zm-3.07-1.11c-.14.187.167.43.565.422a.593.593 0 0 0 .189-.03.347.347 0 0 0 .11-.071c.095-.082.193-.165.223-.258s-.023-.2-.177-.254l.086.004c-.36-.086-.854-.001-.996.187zm-2.015.856c.06-.156-.101-.325-.37-.408l-.097-.02c-.033-.058-.207-.03-.298.01-.248.107-.514.238-.513.403.001.159.296.3.612.3.315.001.606-.128.666-.285zm1.091-1.19c.095-.108.049-.28-.225-.275a.936.936 0 0 0-.562.237.122.122 0 0 0-.034.05c-.02.075.139.135.289.143.218.012.442-.054.532-.155zm4.384-.027a.434.434 0 0 0 .257-.283c.013-.045.018-.092-.018-.133-.18-.209-.805-.153-1.06-.026-.223.11-.232.31-.02.425.212.114.61.122.841.017zm-2.513-1.548a.562.562 0 0 0-.151.032c-.101.034-.186.084-.216.144-.061.118.128.248.367.264.238.015.479-.075.535-.194a.083.083 0 0 0 .008-.064c-.02-.055-.118-.094-.217-.12l.017.037a.649.649 0 0 0-.343-.1zm5.996 1.828a.97.97 0 0 0 .386.012c.15-.035.216-.127.22-.21.008-.142-.118-.281-.325-.375-.173-.079-.482-.185-.716-.119-.235.067-.3.263-.223.38.097.15.367.256.658.312zm1.541 1.688c.218-.045.287-.184.296-.303.016-.215-.214-.388-.687-.325a.694.694 0 0 0-.161.046c-.106.04-.213.08-.296.133-.082.052-.14.118-.127.185.013.067.096.129.202.17.107.043.236.067.366.087a1.2 1.2 0 0 0 .407.007zM70.86 81.46a.608.608 0 0 0 .197-.103c.25-.2.074-.503-.35-.603l-.043-.014c-.273.033-.523.124-.645.251-.123.128-.101.292.081.401.18.11.523.145.76.068zm2.784-.522c-.112.071-.204.154-.212.245-.008.09.087.188.255.219a.821.821 0 0 0 .645-.183c.079-.068.142-.147.11-.225-.033-.076-.196-.142-.342-.116l.134-.053c-.2-.057-.446.023-.59.113zm-1.324-.317c.376-.158.555-.427.445-.669l-.107-.006c-.33-.029-.689.065-.831.22-.142.153-.055.353.201.462a.35.35 0 0 0 .118.031.383.383 0 0 0 .174-.038zm-3.07-1.111c-.142.188.167.43.564.422a.59.59 0 0 0 .19-.03c.047-.018.079-.045.11-.07.095-.082.193-.166.223-.259s-.023-.2-.177-.253l.086.004c-.36-.085-.855-.001-.997.186zm-2.016.857c.06-.156-.101-.325-.37-.409l-.097-.019c-.033-.058-.207-.03-.298.01-.248.107-.513.237-.513.402.001.16.296.3.612.3.315.002.606-.127.666-.284zm1.091-1.189c.095-.108.048-.28-.225-.275a.936.936 0 0 0-.562.236.123.123 0 0 0-.034.05c-.02.075.139.135.289.143.217.011.442-.053.531-.154zm4.385-.028a.434.434 0 0 0 .257-.283c.012-.045.017-.093-.019-.133-.18-.209-.805-.153-1.06-.027-.223.11-.232.311-.02.426.212.113.61.122.841.017zm-2.513-1.548a.56.56 0 0 0-.152.032c-.101.035-.186.084-.216.144-.061.118.128.248.367.264.238.016.479-.076.535-.193a.083.083 0 0 0 .008-.064c-.02-.055-.118-.095-.217-.12l.018.036a.647.647 0 0 0-.344-.099zm5.995 1.828c.124.023.266.04.386.011.15-.035.216-.126.22-.21.008-.141-.118-.28-.325-.375-.174-.08-.482-.185-.716-.119-.235.067-.3.263-.223.38.097.15.368.256.658.312zm1.541 1.688c.219-.045.287-.183.296-.303.016-.214-.214-.387-.687-.325a.699.699 0 0 0-.161.046c-.106.04-.213.08-.296.133-.082.052-.138.119-.126.185.013.068.096.13.202.171.107.042.236.066.366.086.131.02.277.033.406.007z" fill="#D17100"/></g></svg>