<svg width="164" height="163" viewBox="0 0 164 163" fill="none" xmlns="http://www.w3.org/2000/svg"><g clip-path="url(#clip0_7049_6127)"><path d="M161.396.323H2.604c-1.073 0-1.942.87-1.942 1.943v158.791c0 1.073.87 1.943 1.942 1.943h158.792c1.073 0 1.943-.87 1.943-1.943V2.266c0-1.073-.87-1.943-1.943-1.943z" fill="#fff"/><path d="M18.959 13.95h-4.67v4.67h4.67v-4.67z" fill="#000"/><path d="M23.628 13.95h-4.67v4.67h4.67v-4.67zm4.67 0h-4.67v4.67h4.67v-4.67zm4.67 0h-4.67v4.67h4.67v-4.67z" fill="#000"/><path d="M37.638 13.95h-4.67v4.67h4.67v-4.67z" fill="#000"/><path d="M42.307 13.95h-4.67v4.67h4.67v-4.67z" fill="#000"/><path d="M46.977 13.95h-4.67v4.67h4.67v-4.67zm9.34 0h-4.67v4.67h4.67v-4.67zm14.009 0h-4.67v4.67h4.67v-4.67zm4.67 0h-4.67v4.67h4.67v-4.67z" fill="#000"/><path d="M79.665 13.95h-4.67v4.67h4.67v-4.67zm23.349 0h-4.67v4.67h4.67v-4.67zm18.679 0h-4.67v4.67h4.67v-4.67zm4.67 0h-4.67v4.67h4.67v-4.67zm4.669 0h-4.669v4.67h4.669v-4.67zm4.67 0h-4.67v4.67h4.67v-4.67zm4.67 0h-4.67v4.67h4.67v-4.67zm4.67 0h-4.67v4.67h4.67v-4.67zm4.669 0h-4.669v4.67h4.669v-4.67zM18.959 18.62h-4.67v4.67h4.67v-4.67zm28.018 0h-4.67v4.67h4.67v-4.67zm14.009 0h-4.67v4.67h4.67v-4.67zm4.67 0h-4.67v4.67h4.67v-4.67zm14.009 0h-4.67v4.67h4.67v-4.67z" fill="#000"/><path d="M84.335 18.62h-4.67v4.67h4.67v-4.67zm14.009 0h-4.67v4.67h4.67v-4.67zm14.009 0h-4.669v4.67h4.669v-4.67zm9.34 0h-4.67v4.67h4.67v-4.67zm28.018 0h-4.669v4.67h4.669v-4.67zM18.959 23.29h-4.67v4.67h4.67v-4.67zm9.339 0h-4.67v4.67h4.67v-4.67zm4.67 0h-4.67v4.67h4.67v-4.67z" fill="#000"/><path d="M37.638 23.29h-4.67v4.67h4.67v-4.67zm9.339 0h-4.67v4.67h4.67v-4.67zm9.34 0h-4.67v4.67h4.67v-4.67zm23.348 0h-4.67v4.67h4.67v-4.67zm9.34 0h-4.67v4.67h4.67v-4.67zm9.339 0h-4.67v4.67h4.67v-4.67zm4.67 0h-4.67v4.67h4.67v-4.67zm4.67 0h-4.67v4.67h4.67v-4.67zm4.669 0h-4.669v4.67h4.669v-4.67zm9.34 0h-4.67v4.67h4.67v-4.67zm9.339 0h-4.669v4.67h4.669v-4.67zm4.67 0h-4.67v4.67h4.67v-4.67zm4.67 0h-4.67v4.67h4.67v-4.67zm9.339 0h-4.669v4.67h4.669v-4.67zM18.959 27.96h-4.67v4.67h4.67v-4.67zm9.339 0h-4.67v4.67h4.67v-4.67zm4.67 0h-4.67v4.67h4.67v-4.67z" fill="#000"/><path d="M37.638 27.96h-4.67v4.67h4.67v-4.67zm9.339 0h-4.67v4.67h4.67v-4.67zm9.34 0h-4.67v4.67h4.67v-4.67z" fill="#000"/><path d="M60.986 27.96h-4.67v4.67h4.67v-4.67zm4.67 0h-4.67v4.67h4.67v-4.67zm4.67 0h-4.67v4.67h4.67v-4.67zm4.67 0h-4.67v4.67h4.67v-4.67zm9.339 0h-4.67v4.67h4.67v-4.67zm4.67 0h-4.67v4.67h4.67v-4.67z" fill="#000"/><path d="M93.674 27.96h-4.67v4.67h4.67v-4.67zm14.01 0h-4.67v4.67h4.67v-4.67zm14.009 0h-4.67v4.67h4.67v-4.67zm9.339 0h-4.669v4.67h4.669v-4.67zm4.67 0h-4.67v4.67h4.67v-4.67zm4.67 0h-4.67v4.67h4.67v-4.67zm9.339 0h-4.669v4.67h4.669v-4.67zM18.959 32.63h-4.67v4.67h4.67v-4.67zm9.339 0h-4.67v4.67h4.67v-4.67zm4.67 0h-4.67v4.67h4.67v-4.67z" fill="#000"/><path d="M37.638 32.63h-4.67v4.67h4.67v-4.67zm9.339 0h-4.67v4.67h4.67v-4.67zm14.009 0h-4.67v4.67h4.67v-4.67zm4.67 0h-4.67v4.67h4.67v-4.67zm23.349 0h-4.67v4.67h4.67v-4.67zm9.339 0h-4.67v4.67h4.67v-4.67zm23.349 0h-4.67v4.67h4.67v-4.67zm9.339 0h-4.669v4.67h4.669v-4.67zm4.67 0h-4.67v4.67h4.67v-4.67zm4.67 0h-4.67v4.67h4.67v-4.67zm9.339 0h-4.669v4.67h4.669v-4.67zM18.959 37.3h-4.67v4.669h4.67v-4.67z" fill="#000"/><path d="M46.977 37.3h-4.67v4.669h4.67v-4.67zm9.34 0h-4.67v4.669h4.67v-4.67zm14.009 0h-4.67v4.669h4.67v-4.67zm4.67 0h-4.67v4.669h4.67v-4.67zm14.009 0h-4.67v4.669h4.67v-4.67zm14.009 0h-4.67v4.669h4.67v-4.67zm18.679 0h-4.67v4.669h4.67v-4.67zm28.018 0h-4.669v4.669h4.669v-4.67zM18.959 41.969h-4.67v4.67h4.67v-4.67z" fill="#000"/><path d="M23.628 41.969h-4.67v4.67h4.67v-4.67zm4.67 0h-4.67v4.67h4.67v-4.67zm4.67 0h-4.67v4.67h4.67v-4.67z" fill="#000"/><path d="M37.638 41.969h-4.67v4.67h4.67v-4.67z" fill="#000"/><path d="M42.307 41.969h-4.67v4.67h4.67v-4.67z" fill="#000"/><path d="M46.977 41.969h-4.67v4.67h4.67v-4.67zm9.34 0h-4.67v4.67h4.67v-4.67zm9.339 0h-4.67v4.67h4.67v-4.67zm9.34 0h-4.67v4.67h4.67v-4.67zm9.339 0h-4.67v4.67h4.67v-4.67zm9.339 0h-4.67v4.67h4.67v-4.67zm9.34 0h-4.67v4.67h4.67v-4.67zm9.339 0h-4.669v4.67h4.669v-4.67zm9.34 0h-4.67v4.67h4.67v-4.67zm4.67 0h-4.67v4.67h4.67v-4.67zm4.669 0h-4.669v4.67h4.669v-4.67zm4.67 0h-4.67v4.67h4.67v-4.67zm4.67 0h-4.67v4.67h4.67v-4.67zm4.67 0h-4.67v4.67h4.67v-4.67zm4.669 0h-4.669v4.67h4.669v-4.67zm-93.394 4.67h-4.67v4.67h4.67v-4.67z" fill="#000"/><path d="M60.986 46.639h-4.67v4.67h4.67v-4.67zm4.67 0h-4.67v4.67h4.67v-4.67zm9.34 0h-4.67v4.67h4.67v-4.67z" fill="#000"/><path d="M79.665 46.639h-4.67v4.67h4.67v-4.67z" fill="#000"/><path d="M84.335 46.639h-4.67v4.67h4.67v-4.67zm4.67 0h-4.67v4.67h4.67v-4.67z" fill="#000"/><path d="M93.674 46.639h-4.67v4.67h4.67v-4.67z" fill="#000"/><path d="M98.344 46.639h-4.67v4.67h4.67v-4.67zm9.34 0h-4.67v4.67h4.67v-4.67zm4.669 0h-4.669v4.67h4.669v-4.67zm-93.394 4.669h-4.67v4.67h4.67v-4.67z" fill="#000"/><path d="M23.628 51.308h-4.67v4.67h4.67v-4.67zm9.34 0h-4.67v4.67h4.67v-4.67zm14.009 0h-4.67v4.67h4.67v-4.67zm4.67 0h-4.67v4.67h4.67v-4.67zm9.339 0h-4.67v4.67h4.67v-4.67zm18.679 0h-4.67v4.67h4.67v-4.67z" fill="#000"/><path d="M84.335 51.308h-4.67v4.67h4.67v-4.67zm9.339 0h-4.67v4.67h4.67v-4.67zm4.67 0h-4.67v4.67h4.67v-4.67zm9.34 0h-4.67v4.67h4.67v-4.67zm4.669 0h-4.669v4.67h4.669v-4.67zm4.67 0h-4.67v4.67h4.67v-4.67zm4.67 0h-4.67v4.67h4.67v-4.67zm4.67 0h-4.67v4.67h4.67v-4.67zm9.339 0h-4.67v4.67h4.67v-4.67zm4.67 0h-4.67v4.67h4.67v-4.67zm9.339 0h-4.669v4.67h4.669v-4.67zm-116.743 4.67h-4.67v4.67h4.67v-4.67zm18.679 0h-4.67v4.67h4.67v-4.67zm9.339 0h-4.67v4.67h4.67v-4.67zm4.67 0h-4.67v4.67h4.67v-4.67zm28.018 0h-4.67v4.67h4.67v-4.67zm9.34 0h-4.67v4.67h4.67v-4.67zm4.67 0h-4.67v4.67h4.67v-4.67zm18.679 0h-4.67v4.67h4.67v-4.67zm18.679 0h-4.67v4.67h4.67v-4.67zm4.669 0h-4.669v4.67h4.669v-4.67zm-130.752 4.67h-4.67v4.67h4.67v-4.67zm9.339 0h-4.67v4.67h4.67v-4.67zm14.009 0h-4.67v4.67h4.67v-4.67z" fill="#000"/><path d="M46.977 60.648h-4.67v4.67h4.67v-4.67zm9.34 0h-4.67v4.67h4.67v-4.67zm9.339 0h-4.67v4.67h4.67v-4.67zm9.34 0h-4.67v4.67h4.67v-4.67zm9.339 0h-4.67v4.67h4.67v-4.67zm4.67 0h-4.67v4.67h4.67v-4.67zm9.339 0h-4.67v4.67h4.67v-4.67zm9.34 0h-4.67v4.67h4.67v-4.67zm4.669 0h-4.669v4.67h4.669v-4.67zm9.34 0h-4.67v4.67h4.67v-4.67zm9.339 0h-4.669v4.67h4.669v-4.67zm4.67 0h-4.67v4.67h4.67v-4.67zm9.34 0h-4.67v4.67h4.67v-4.67zM23.628 65.317h-4.67v4.67h4.67v-4.67zm4.67 0h-4.67v4.67h4.67v-4.67zm9.34 0h-4.67v4.67h4.67v-4.67z" fill="#000"/><path d="M42.307 65.317h-4.67v4.67h4.67v-4.67zm18.679 0h-4.67v4.67h4.67v-4.67zm9.34 0h-4.67v4.67h4.67v-4.67zm4.67 0h-4.67v4.67h4.67v-4.67z" fill="#000"/><path d="M79.665 65.317h-4.67v4.67h4.67v-4.67z" fill="#000"/><path d="M84.335 65.317h-4.67v4.67h4.67v-4.67zm4.67 0h-4.67v4.67h4.67v-4.67zm14.009 0h-4.67v4.67h4.67v-4.67zm4.67 0h-4.67v4.67h4.67v-4.67zm4.669 0h-4.669v4.67h4.669v-4.67zm4.67 0h-4.67v4.67h4.67v-4.67zm4.67 0h-4.67v4.67h4.67v-4.67zm4.67 0h-4.67v4.67h4.67v-4.67zm4.669 0h-4.669v4.67h4.669v-4.67zm18.679 0h-4.669v4.67h4.669v-4.67zm-121.413 4.67h-4.67v4.67h4.67v-4.67zm18.679 0h-4.67v4.67h4.67v-4.67zm4.67 0h-4.67v4.67h4.67v-4.67zm18.679 0h-4.67v4.67h4.67v-4.67zm9.339 0h-4.67v4.67h4.67v-4.67z" fill="#000"/><path d="M84.335 69.987h-4.67v4.67h4.67v-4.67zm4.67 0h-4.67v4.67h4.67v-4.67z" fill="#000"/><path d="M93.674 69.987h-4.67v4.67h4.67v-4.67z" fill="#000"/><path d="M98.344 69.987h-4.67v4.67h4.67v-4.67zm9.34 0h-4.67v4.67h4.67v-4.67zm4.669 0h-4.669v4.67h4.669v-4.67zm4.67 0h-4.67v4.67h4.67v-4.67zm9.34 0h-4.67v4.67h4.67v-4.67zm4.669 0h-4.669v4.67h4.669v-4.67zm4.67 0h-4.67v4.67h4.67v-4.67zm4.67 0h-4.67v4.67h4.67v-4.67zm-121.413 4.67h-4.67v4.67h4.67v-4.67z" fill="#000"/><path d="M23.628 74.657h-4.67v4.67h4.67v-4.67zm18.679 0h-4.67v4.67h4.67v-4.67zm14.01 0h-4.67v4.67h4.67v-4.67z" fill="#000"/><path d="M60.986 74.657h-4.67v4.67h4.67v-4.67zm4.67 0h-4.67v4.67h4.67v-4.67zm18.679 0h-4.67v4.67h4.67v-4.67zm18.679 0h-4.67v4.67h4.67v-4.67zm4.67 0h-4.67v4.67h4.67v-4.67zm4.669 0h-4.669v4.67h4.669v-4.67zm14.01 0h-4.67v4.67h4.67v-4.67zm23.348 0h-4.669v4.67h4.669v-4.67zm-130.752 4.67h-4.67v4.67h4.67v-4.67zm14.009 0h-4.67v4.67h4.67v-4.67z" fill="#000"/><path d="M37.638 79.327h-4.67v4.67h4.67v-4.67zm9.339 0h-4.67v4.67h4.67v-4.67zm14.009 0h-4.67v4.67h4.67v-4.67zm14.01 0h-4.67v4.67h4.67v-4.67z" fill="#000"/><path d="M79.665 79.327h-4.67v4.67h4.67v-4.67zm9.34 0h-4.67v4.67h4.67v-4.67z" fill="#000"/><path d="M93.674 79.327h-4.67v4.67h4.67v-4.67z" fill="#000"/><path d="M98.344 79.327h-4.67v4.67h4.67v-4.67zm4.67 0h-4.67v4.67h4.67v-4.67zm4.67 0h-4.67v4.67h4.67v-4.67zm4.669 0h-4.669v4.67h4.669v-4.67zm9.34 0h-4.67v4.67h4.67v-4.67zm4.67 0h-4.67v4.67h4.67v-4.67zm23.348 0h-4.669v4.67h4.669v-4.67zM18.959 83.996h-4.67v4.67h4.67v-4.67zm14.009 0h-4.67v4.67h4.67v-4.67zm9.339 0h-4.67v4.67h4.67v-4.67zm9.34 0h-4.67v4.67h4.67v-4.67zm4.67 0h-4.67v4.67h4.67v-4.67z" fill="#000"/><path d="M60.986 83.996h-4.67v4.67h4.67v-4.67zm14.01 0h-4.67v4.67h4.67v-4.67zm9.339 0h-4.67v4.67h4.67v-4.67zm9.339 0h-4.67v4.67h4.67v-4.67zm9.34 0h-4.67v4.67h4.67v-4.67zm14.009 0h-4.67v4.67h4.67v-4.67zm4.67 0h-4.67v4.67h4.67v-4.67zm4.67 0h-4.67v4.67h4.67v-4.67zm18.679 0h-4.67v4.67h4.67v-4.67zm-121.414 4.67h-4.67v4.67h4.67v-4.67zm4.67 0h-4.67v4.67h4.67v-4.67zm9.34 0h-4.67v4.67h4.67v-4.67z" fill="#000"/><path d="M42.307 88.666h-4.67v4.67h4.67v-4.67z" fill="#000"/><path d="M46.977 88.666h-4.67v4.67h4.67v-4.67zm4.67 0h-4.67v4.67h4.67v-4.67zm14.009 0h-4.67v4.67h4.67v-4.67z" fill="#000"/><path d="M70.326 88.666h-4.67v4.67h4.67v-4.67zm9.339 0h-4.67v4.67h4.67v-4.67zm4.67 0h-4.67v4.67h4.67v-4.67zm4.67 0h-4.67v4.67h4.67v-4.67z" fill="#000"/><path d="M93.674 88.666h-4.67v4.67h4.67v-4.67z" fill="#000"/><path d="M98.344 88.666h-4.67v4.67h4.67v-4.67zm4.67 0h-4.67v4.67h4.67v-4.67zm9.339 0h-4.669v4.67h4.669v-4.67zm4.67 0h-4.67v4.67h4.67v-4.67zm14.009 0h-4.669v4.67h4.669v-4.67zm-107.404 4.67h-4.67v4.67h4.67v-4.67zm9.34 0h-4.67v4.67h4.67v-4.67zm9.339 0h-4.67v4.67h4.67v-4.67zm9.34 0h-4.67v4.67h4.67v-4.67zm9.339 0h-4.67v4.67h4.67v-4.67zm9.34 0h-4.67v4.67h4.67v-4.67zm9.339 0h-4.67v4.67h4.67v-4.67zm14.009 0h-4.67v4.67h4.67v-4.67z" fill="#000"/><path d="M98.344 93.336h-4.67v4.67h4.67v-4.67zm4.67 0h-4.67v4.67h4.67v-4.67zm18.679 0h-4.67v4.67h4.67v-4.67zm18.679 0h-4.67v4.67h4.67v-4.67zm4.67 0h-4.67v4.67h4.67v-4.67zm4.669 0h-4.669v4.67h4.669v-4.67zm-116.743 4.67h-4.67v4.669h4.67v-4.67zm9.339 0h-4.67v4.669h4.67v-4.67z" fill="#000"/><path d="M46.977 98.006h-4.67v4.669h4.67v-4.67zm4.67 0h-4.67v4.669h4.67v-4.67zm9.339 0h-4.67v4.669h4.67v-4.67zm4.67 0h-4.67v4.669h4.67v-4.67zm32.688 0h-4.67v4.669h4.67v-4.67zm14.009 0h-4.669v4.669h4.669v-4.67zm4.67 0h-4.67v4.669h4.67v-4.67zm9.34 0h-4.67v4.669h4.67v-4.67zm4.669 0h-4.669v4.669h4.669v-4.67zm4.67 0h-4.67v4.669h4.67v-4.67zm4.67 0h-4.67v4.669h4.67v-4.67zm4.67 0h-4.67v4.669h4.67v-4.67zm4.669 0h-4.669v4.669h4.669v-4.67zm-130.752 4.669h-4.67v4.67h4.67v-4.67zm14.009 0h-4.67v4.67h4.67v-4.67zm4.67 0h-4.67v4.67h4.67v-4.67z" fill="#000"/><path d="M42.307 102.675h-4.67v4.67h4.67v-4.67zm18.679 0h-4.67v4.67h4.67v-4.67zm18.679 0h-4.67v4.67h4.67v-4.67z" fill="#000"/><path d="M84.335 102.675h-4.67v4.67h4.67v-4.67zm4.67 0h-4.67v4.67h4.67v-4.67z" fill="#000"/><path d="M93.674 102.675h-4.67v4.67h4.67v-4.67zm28.019 0h-4.67v4.67h4.67v-4.67zm14.009 0h-4.67v4.67h4.67v-4.67zm14.009 0h-4.669v4.67h4.669v-4.67zm-130.752 4.67h-4.67v4.67h4.67v-4.67zm9.339 0h-4.67v4.67h4.67v-4.67zm18.679 0h-4.67v4.67h4.67v-4.67zm4.67 0h-4.67v4.67h4.67v-4.67zm9.339 0h-4.67v4.67h4.67v-4.67zm14.01 0h-4.67v4.67h4.67v-4.67zm9.339 0h-4.67v4.67h4.67v-4.67zm4.67 0h-4.67v4.67h4.67v-4.67z" fill="#000"/><path d="M93.674 107.345h-4.67v4.67h4.67v-4.67zm9.34 0h-4.67v4.67h4.67v-4.67zm9.339 0h-4.669v4.67h4.669v-4.67zm4.67 0h-4.67v4.67h4.67v-4.67zm4.67 0h-4.67v4.67h4.67v-4.67zm4.67 0h-4.67v4.67h4.67v-4.67zm4.669 0h-4.669v4.67h4.669v-4.67zm9.34 0h-4.67v4.67h4.67v-4.67zm4.67 0h-4.67v4.67h4.67v-4.67zm4.669 0h-4.669v4.67h4.669v-4.67zm-88.725 4.67h-4.67v4.67h4.67v-4.67zm4.67 0h-4.67v4.67h4.67v-4.67z" fill="#000"/><path d="M70.326 112.015h-4.67v4.67h4.67v-4.67zm14.009 0h-4.67v4.67h4.67v-4.67zm4.67 0h-4.67v4.67h4.67v-4.67zm23.348 0h-4.669v4.67h4.669v-4.67zm18.679 0h-4.669v4.67h4.669v-4.67zm4.67 0h-4.67v4.67h4.67v-4.67zm9.34 0h-4.67v4.67h4.67v-4.67zm4.669 0h-4.669v4.67h4.669v-4.67zm-130.752 4.67h-4.67v4.669h4.67v-4.669z" fill="#000"/><path d="M23.628 116.685h-4.67v4.669h4.67v-4.669zm4.67 0h-4.67v4.669h4.67v-4.669zm4.67 0h-4.67v4.669h4.67v-4.669z" fill="#000"/><path d="M37.638 116.685h-4.67v4.669h4.67v-4.669z" fill="#000"/><path d="M42.307 116.685h-4.67v4.669h4.67v-4.669z" fill="#000"/><path d="M46.977 116.685h-4.67v4.669h4.67v-4.669zm9.34 0h-4.67v4.669h4.67v-4.669z" fill="#000"/><path d="M60.986 116.685h-4.67v4.669h4.67v-4.669zm9.34 0h-4.67v4.669h4.67v-4.669zm9.339 0h-4.67v4.669h4.67v-4.669zm23.349 0h-4.67v4.669h4.67v-4.669zm4.67 0h-4.67v4.669h4.67v-4.669zm4.669 0h-4.669v4.669h4.669v-4.669zm9.34 0h-4.67v4.669h4.67v-4.669zm9.339 0h-4.669v4.669h4.669v-4.669zm18.679 0h-4.669v4.669h4.669v-4.669zm-130.752 4.669h-4.67v4.67h4.67v-4.67zm28.018 0h-4.67v4.67h4.67v-4.67zm14.009 0h-4.67v4.67h4.67v-4.67zm4.67 0h-4.67v4.67h4.67v-4.67z" fill="#000"/><path d="M70.326 121.354h-4.67v4.67h4.67v-4.67zm4.67 0h-4.67v4.67h4.67v-4.67zm18.678 0h-4.67v4.67h4.67v-4.67zm4.67 0h-4.67v4.67h4.67v-4.67zm4.67 0h-4.67v4.67h4.67v-4.67zm9.339 0h-4.669v4.67h4.669v-4.67zm18.679 0h-4.669v4.67h4.669v-4.67zm9.34 0h-4.67v4.67h4.67v-4.67zm9.339 0h-4.669v4.67h4.669v-4.67zm-130.752 4.67h-4.67v4.67h4.67v-4.67zm9.339 0h-4.67v4.67h4.67v-4.67zm4.67 0h-4.67v4.67h4.67v-4.67z" fill="#000"/><path d="M37.638 126.024h-4.67v4.67h4.67v-4.67zm9.339 0h-4.67v4.67h4.67v-4.67zm14.009 0h-4.67v4.67h4.67v-4.67zm23.349 0h-4.67v4.67h4.67v-4.67zm4.67 0h-4.67v4.67h4.67v-4.67z" fill="#000"/><path d="M93.674 126.024h-4.67v4.67h4.67v-4.67zm9.34 0h-4.67v4.67h4.67v-4.67zm9.339 0h-4.669v4.67h4.669v-4.67zm4.67 0h-4.67v4.67h4.67v-4.67zm4.67 0h-4.67v4.67h4.67v-4.67zm4.67 0h-4.67v4.67h4.67v-4.67zm4.669 0h-4.669v4.67h4.669v-4.67zm4.67 0h-4.67v4.67h4.67v-4.67zm9.34 0h-4.67v4.67h4.67v-4.67zm4.669 0h-4.669v4.67h4.669v-4.67zm-130.752 4.67h-4.67v4.669h4.67v-4.669zm9.339 0h-4.67v4.669h4.67v-4.669zm4.67 0h-4.67v4.669h4.67v-4.669z" fill="#000"/><path d="M37.638 130.694h-4.67v4.669h4.67v-4.669zm9.339 0h-4.67v4.669h4.67v-4.669zm9.34 0h-4.67v4.669h4.67v-4.669zm18.679 0h-4.67v4.669h4.67v-4.669zm18.678 0h-4.67v4.669h4.67v-4.669zm4.67 0h-4.67v4.669h4.67v-4.669zm14.009 0h-4.669v4.669h4.669v-4.669zm4.67 0h-4.67v4.669h4.67v-4.669zm4.67 0h-4.67v4.669h4.67v-4.669zm4.67 0h-4.67v4.669h4.67v-4.669zm9.339 0h-4.67v4.669h4.67v-4.669zm9.34 0h-4.67v4.669h4.67v-4.669zm-126.083 4.669h-4.67v4.67h4.67v-4.67zm9.339 0h-4.67v4.67h4.67v-4.67zm4.67 0h-4.67v4.67h4.67v-4.67z" fill="#000"/><path d="M37.638 135.363h-4.67v4.67h4.67v-4.67zm9.339 0h-4.67v4.67h4.67v-4.67zm18.679 0h-4.67v4.67h4.67v-4.67zm9.34 0h-4.67v4.67h4.67v-4.67z" fill="#000"/><path d="M79.665 135.363h-4.67v4.67h4.67v-4.67z" fill="#000"/><path d="M84.335 135.363h-4.67v4.67h4.67v-4.67zm14.009 0h-4.67v4.67h4.67v-4.67zm4.67 0h-4.67v4.67h4.67v-4.67zm4.67 0h-4.67v4.67h4.67v-4.67zm4.669 0h-4.669v4.67h4.669v-4.67zm4.67 0h-4.67v4.67h4.67v-4.67zm14.009 0h-4.669v4.67h4.669v-4.67zm9.34 0h-4.67v4.67h4.67v-4.67zm-121.413 4.67h-4.67v4.67h4.67v-4.67zm28.018 0h-4.67v4.67h4.67v-4.67zm9.34 0h-4.67v4.67h4.67v-4.67zm9.339 0h-4.67v4.67h4.67v-4.67zm14.009 0h-4.67v4.67h4.67v-4.67zm4.67 0h-4.67v4.67h4.67v-4.67zm4.67 0h-4.67v4.67h4.67v-4.67z" fill="#000"/><path d="M93.674 140.033h-4.67v4.67h4.67v-4.67z" fill="#000"/><path d="M98.344 140.033h-4.67v4.67h4.67v-4.67zm18.679 0h-4.67v4.67h4.67v-4.67zm4.67 0h-4.67v4.67h4.67v-4.67zm9.339 0h-4.669v4.67h4.669v-4.67zm4.67 0h-4.67v4.67h4.67v-4.67zm9.34 0h-4.67v4.67h4.67v-4.67zm4.669 0h-4.669v4.67h4.669v-4.67zm-130.752 4.67h-4.67v4.67h4.67v-4.67z" fill="#000"/><path d="M23.628 144.703h-4.67v4.67h4.67v-4.67zm4.67 0h-4.67v4.67h4.67v-4.67zm4.67 0h-4.67v4.67h4.67v-4.67z" fill="#000"/><path d="M37.638 144.703h-4.67v4.67h4.67v-4.67z" fill="#000"/><path d="M42.307 144.703h-4.67v4.67h4.67v-4.67z" fill="#000"/><path d="M46.977 144.703h-4.67v4.67h4.67v-4.67zm9.34 0h-4.67v4.67h4.67v-4.67z" fill="#000"/><path d="M60.986 144.703h-4.67v4.67h4.67v-4.67zm9.34 0h-4.67v4.67h4.67v-4.67zm9.339 0h-4.67v4.67h4.67v-4.67zm4.67 0h-4.67v4.67h4.67v-4.67zm32.688 0h-4.67v4.67h4.67v-4.67zm9.34 0h-4.67v4.67h4.67v-4.67zm4.669 0h-4.669v4.67h4.669v-4.67zm9.34 0h-4.67v4.67h4.67v-4.67z" fill="#000"/></g><rect x=".904" y=".566" width="162.191" height="162.191" rx="1.7" stroke="#E6EAED" stroke-width=".486"/><defs><clipPath id="clip0_7049_6127"><rect x=".662" y=".323" width="162.677" height="162.677" rx="1.943" fill="#fff"/></clipPath></defs></svg>