<svg width="18" height="18" viewBox="0 0 18 18" fill="none" xmlns="http://www.w3.org/2000/svg"><path d="M16.326 9.506c.204-.174.305-.261.343-.365a.417.417 0 0 0 0-.282c-.038-.104-.14-.19-.343-.365l-7.059-6.05c-.35-.3-.525-.45-.673-.455a.417.417 0 0 0-.334.154c-.093.115-.093.345-.093.806v3.58a8.055 8.055 0 0 0-6.667 7.93v.51a9.5 9.5 0 0 1 6.667-3.41v3.492c0 .46 0 .691.093.806a.42.42 0 0 0 .334.154c.148-.004.323-.154.673-.454l7.06-6.05z" stroke="#FF6900" stroke-width="2" stroke-linecap="round" stroke-linejoin="round"/></svg>