<svg width="512" height="195" viewBox="0 0 512 195" fill="none" xmlns="http://www.w3.org/2000/svg"><g filter="url(#filter0_dd_14752_152249)"><g clip-path="url(#clip0_14752_152249)"><path d="M6 10.796C6 4.962 10.73.232 16.563.232h478.874C501.271.232 506 4.962 506 10.796v162.408c0 5.834-4.729 10.564-10.563 10.564H16.563C10.73 183.768 6 179.038 6 173.204V10.796z" fill="#fff"/><mask id="path-3-inside-1_14752_152249" fill="#fff"><path d="M6 .232h500v42.254H6V.232z"/></mask><path d="M6 .232h500v42.254H6V.232z" fill="#fff"/><path d="M506 42.046H6v.88h500v-.88z" fill="#E6EAED" mask="url(#path-3-inside-1_14752_152249)"/><rect x="16.564" y="9.035" width="49.296" height="7.702" rx="3.851" fill="#E6E6E6"/><rect x="16.564" y="23.12" width="110.915" height="6.162" rx="3.081" fill="#E6E6E6"/><mask id="path-7-inside-2_14752_152249" fill="#fff"><path d="M6 42.486h84.837v21.127H6V42.486z"/></mask><path d="M6 42.486h84.837v21.127H6V42.486z" fill="#F2F2F2"/><path d="M90.837 63.172H6v.88h84.837v-.88z" fill="#E6EAED" mask="url(#path-7-inside-2_14752_152249)"/><rect x="16.564" y="48.208" width="25.528" height="6.162" rx="3.081" fill="#E6E6E6"/><mask id="path-10-inside-3_14752_152249" fill="#fff"><path d="M6 63.612h84.837v31.69H6v-31.69z"/></mask><path d="M6 63.612h84.837v31.69H6v-31.69z" fill="#fff"/><path d="M90.837 94.862H6v.88h84.837v-.88z" fill="#E6EAED" mask="url(#path-10-inside-3_14752_152249)"/><rect x="16.564" y="76.377" width="25.528" height="6.162" rx="3.081" fill="#E6E6E6"/><mask id="path-13-inside-4_14752_152249" fill="#fff"><path d="M6 95.303h84.837v31.69H6v-31.69z"/></mask><path d="M6 95.303h84.837v31.69H6v-31.69z" fill="#fff"/><path d="M90.837 126.553H6v.88h84.837v-.88z" fill="#E6EAED" mask="url(#path-13-inside-4_14752_152249)"/><rect x="16.564" y="108.067" width="28.169" height="6.162" rx="3.081" fill="#E6E6E6"/><mask id="path-16-inside-5_14752_152249" fill="#fff"><path d="M90.837 42.486h84.837v21.127H90.837V42.486z"/></mask><path d="M90.837 42.486h84.837v21.127H90.837V42.486z" fill="#F2F2F2"/><path d="M175.674 63.172H90.837v.88h84.837v-.88z" fill="#E6EAED" mask="url(#path-16-inside-5_14752_152249)"/><rect x="101.401" y="48.208" width="25.528" height="6.162" rx="3.081" fill="#E6E6E6"/><mask id="path-19-inside-6_14752_152249" fill="#fff"><path d="M90.837 63.612h84.837v31.69H90.837v-31.69z"/></mask><path d="M90.837 63.612h84.837v31.69H90.837v-31.69z" fill="#fff"/><path d="M175.674 94.862H90.837v.88h84.837v-.88z" fill="#E6EAED" mask="url(#path-19-inside-6_14752_152249)"/><rect x="101.401" y="76.377" width="25.528" height="6.162" rx="3.081" fill="#E6E6E6"/><mask id="path-22-inside-7_14752_152249" fill="#fff"><path d="M90.837 95.303h84.837v31.69H90.837v-31.69z"/></mask><path d="M90.837 95.303h84.837v31.69H90.837v-31.69z" fill="#fff"/><path d="M175.674 126.553H90.837v.88h84.837v-.88z" fill="#E6EAED" mask="url(#path-22-inside-7_14752_152249)"/><rect x="101.401" y="108.067" width="39.172" height="6.162" rx="3.081" fill="#E6E6E6"/><mask id="path-25-inside-8_14752_152249" fill="#fff"><path d="M175.674 42.486h160.652v21.127H175.674V42.486z"/></mask><path d="M175.674 42.486h160.652v21.127H175.674V42.486z" fill="#F2F2F2"/><path d="M336.326 63.172H175.674v.88h160.652v-.88z" fill="#E6EAED" mask="url(#path-25-inside-8_14752_152249)"/><rect x="186.238" y="48.208" width="25.528" height="6.162" rx="3.081" fill="#E6E6E6"/><mask id="path-28-inside-9_14752_152249" fill="#fff"><path d="M175.674 63.612h151.849v31.69H175.674v-31.69z"/></mask><path d="M175.674 63.612h151.849v31.69H175.674v-31.69z" fill="#fff"/><path d="M327.523 94.862H175.674v.88h151.849v-.88z" fill="#E6EAED" mask="url(#path-28-inside-9_14752_152249)"/><rect x="186.238" y="76.377" width="130.722" height="6.162" rx="3.081" fill="#E6E6E6"/><mask id="path-31-inside-10_14752_152249" fill="#fff"><path d="M175.674 95.303h160.652v31.69H175.674v-31.69z"/></mask><path d="M175.674 95.303h160.652v31.69H175.674v-31.69z" fill="#fff"/><path d="M336.326 126.553H175.674v.88h160.652v-.88z" fill="#E6EAED" mask="url(#path-31-inside-10_14752_152249)"/><rect x="186.238" y="108.067" width="139.525" height="6.162" rx="3.081" fill="#E6E6E6"/><mask id="path-34-inside-11_14752_152249" fill="#fff"><path d="M336.326 42.486h84.837v21.127h-84.837V42.486z"/></mask><path d="M336.326 42.486h84.837v21.127h-84.837V42.486z" fill="#F2F2F2"/><path d="M421.163 63.172h-84.837v.88h84.837v-.88z" fill="#E6EAED" mask="url(#path-34-inside-11_14752_152249)"/><rect x="346.889" y="48.208" width="25.528" height="6.162" rx="3.081" fill="#E6E6E6"/><mask id="path-37-inside-12_14752_152249" fill="#fff"><path d="M336.326 63.612h84.837v31.69h-84.837v-31.69z"/></mask><path d="M336.326 63.612h84.837v31.69h-84.837v-31.69z" fill="#fff"/><path d="M421.163 94.862h-84.837v.88h84.837v-.88z" fill="#E6EAED" mask="url(#path-37-inside-12_14752_152249)"/><rect x="346.889" y="76.377" width="25.528" height="6.162" rx="3.081" fill="#E6E6E6"/><mask id="path-40-inside-13_14752_152249" fill="#fff"><path d="M336.326 95.303h84.837v31.69h-84.837v-31.69z"/></mask><path d="M336.326 95.303h84.837v31.69h-84.837v-31.69z" fill="#fff"/><path d="M421.163 126.553h-84.837v.88h84.837v-.88z" fill="#E6EAED" mask="url(#path-40-inside-13_14752_152249)"/><rect x="346.889" y="108.067" width="25.528" height="6.162" rx="3.081" fill="#E6E6E6"/><mask id="path-43-inside-14_14752_152249" fill="#fff"><path d="M421.163 42.486H506v21.127h-84.837V42.486z"/></mask><path d="M421.163 42.486H506v21.127h-84.837V42.486z" fill="#F2F2F2"/><path d="M506 63.172h-84.837v.88H506v-.88z" fill="#E6EAED" mask="url(#path-43-inside-14_14752_152249)"/><rect x="431.726" y="48.208" width="25.528" height="6.162" rx="3.081" fill="#E6E6E6"/><mask id="path-46-inside-15_14752_152249" fill="#fff"><path d="M421.163 63.612H506v31.69h-84.837v-31.69z"/></mask><path d="M421.163 63.612H506v31.69h-84.837v-31.69z" fill="#fff"/><path d="M506 94.862h-84.837v.88H506v-.88z" fill="#E6EAED" mask="url(#path-46-inside-15_14752_152249)"/><rect x="431.616" y="74.616" width="25.528" height="6.162" rx="3.081" fill="#E6E6E6"/><mask id="path-49-inside-16_14752_152249" fill="#fff"><path d="M421.163 95.303H506v31.69h-84.837v-31.69z"/></mask><path d="M421.163 95.303H506v31.69h-84.837v-31.69z" fill="#fff"/><path d="M506 126.553h-84.837v.88H506v-.88z" fill="#E6EAED" mask="url(#path-49-inside-16_14752_152249)"/><rect x="431.616" y="106.306" width="25.528" height="6.162" rx="3.081" fill="#E6E6E6"/><path d="M188.613 148.12a3.52 3.52 0 0 1 3.521-3.521h34.084a3.521 3.521 0 0 1 3.522 3.521v14.521a3.521 3.521 0 0 1-3.522 3.521h-34.084a3.52 3.52 0 0 1-3.521-3.521V148.12z" fill="#fff"/><path d="M188.613 148.12a3.52 3.52 0 0 1 3.521-3.521h34.084a3.521 3.521 0 0 1 3.522 3.521v14.521a3.521 3.521 0 0 1-3.522 3.521h-34.084a3.52 3.52 0 0 1-3.521-3.521V148.12z" stroke="#01C7B1" stroke-width=".44" stroke-linecap="round"/><path d="M200.197 157.88a.507.507 0 0 1-.359-.119c-.08-.085-.119-.205-.119-.36v-4.007c0-.154.039-.272.119-.352a.488.488 0 0 1 .359-.126h1.367c.831 0 1.471.213 1.922.64.456.428.683 1.04.683 1.838 0 .4-.058.754-.176 1.064a1.992 1.992 0 0 1-.507.774 2.197 2.197 0 0 1-.817.486 3.447 3.447 0 0 1-1.105.162h-1.367zm.423-.746h.887c.291 0 .543-.035.754-.106.216-.075.394-.183.535-.324.146-.145.254-.326.324-.542a2.54 2.54 0 0 0 .106-.768c0-.582-.144-1.016-.43-1.302-.286-.287-.716-.43-1.289-.43h-.887v3.472zm4.942.746a.51.51 0 0 1-.36-.119.51.51 0 0 1-.119-.36v-4.007c0-.154.04-.272.119-.352a.49.49 0 0 1 .36-.126h2.514c.117 0 .206.03.267.091.066.061.099.148.099.261a.368.368 0 0 1-.099.274c-.061.061-.15.092-.267.092h-2.127V155h1.972c.122 0 .213.031.274.092.061.061.092.15.092.267 0 .118-.031.207-.092.268-.061.061-.152.091-.274.091h-1.972v1.444h2.127c.117 0 .206.031.267.092.066.061.099.15.099.267 0 .118-.033.207-.099.268-.061.061-.15.091-.267.091h-2.514zm4.145.057a.43.43 0 0 1-.317-.113c-.07-.075-.105-.183-.105-.324v-4.19c0-.146.035-.256.105-.331a.38.38 0 0 1 .289-.12c.108 0 .188.021.24.064a.948.948 0 0 1 .197.197l2.697 3.5h-.183v-3.331c0-.136.035-.242.105-.317a.431.431 0 0 1 .317-.113c.136 0 .24.038.31.113a.443.443 0 0 1 .106.317v4.225a.453.453 0 0 1-.099.31.338.338 0 0 1-.267.113.471.471 0 0 1-.261-.064 1.023 1.023 0 0 1-.204-.204l-2.69-3.5h.176v3.331c0 .141-.035.249-.106.324-.07.075-.174.113-.31.113zm6.479 0a.458.458 0 0 1-.338-.12.513.513 0 0 1-.112-.352v-2.141l.19.542-1.697-2.387a.413.413 0 0 1-.085-.268.376.376 0 0 1 .12-.246c.07-.071.169-.106.296-.106.094 0 .178.024.253.071.08.047.155.119.226.218l1.26 1.789h-.197l1.268-1.789a.784.784 0 0 1 .218-.218.457.457 0 0 1 .26-.071c.122 0 .216.033.282.099a.292.292 0 0 1 .106.232.486.486 0 0 1-.099.296l-1.683 2.38.183-.542v2.141c0 .314-.15.472-.451.472zm17.075-9.817a3.52 3.52 0 0 1 3.521-3.521h83.084a3.521 3.521 0 0 1 3.522 3.521v14.521a3.521 3.521 0 0 1-3.522 3.521h-83.084a3.52 3.52 0 0 1-3.521-3.521V148.12z" fill="#01C7B1"/><path d="M244.416 157.937a.452.452 0 0 1-.275-.078.312.312 0 0 1-.12-.204.535.535 0 0 1 .05-.296l1.859-4.119a.656.656 0 0 1 .218-.289.524.524 0 0 1 .592 0 .63.63 0 0 1 .225.289l1.866 4.119a.503.503 0 0 1 .057.296.319.319 0 0 1-.12.211.44.44 0 0 1-.261.071.481.481 0 0 1-.31-.092.885.885 0 0 1-.19-.296l-.457-1.063.38.246h-2.972l.38-.246-.45 1.063a.904.904 0 0 1-.191.296c-.065.061-.159.092-.281.092zm2.021-4.043l-.986 2.346-.183-.226h2.352l-.176.226-.993-2.346h-.014zm3.621 4.043c-.146 0-.259-.04-.338-.12a.498.498 0 0 1-.113-.345v-4.099c0-.15.04-.263.12-.338.079-.08.192-.119.338-.119h1.697c.544 0 .965.136 1.26.408.296.272.444.653.444 1.141s-.148.871-.444 1.148c-.295.272-.716.408-1.26.408h-1.254v1.451c0 .145-.037.26-.112.345-.075.08-.188.12-.338.12zm.45-2.627h1.113c.319 0 .561-.07.725-.211.165-.146.247-.357.247-.634s-.082-.486-.247-.627c-.164-.141-.406-.211-.725-.211h-1.113v1.683zm4.144 2.627c-.146 0-.259-.04-.338-.12a.498.498 0 0 1-.113-.345v-4.099c0-.15.04-.263.12-.338.079-.08.192-.119.338-.119h1.697c.544 0 .965.136 1.26.408.296.272.444.653.444 1.141s-.148.871-.444 1.148c-.295.272-.716.408-1.26.408h-1.254v1.451c0 .145-.037.26-.112.345-.076.08-.188.12-.338.12zm.45-2.627h1.113c.319 0 .561-.07.725-.211.165-.146.247-.357.247-.634s-.082-.486-.247-.627c-.164-.141-.406-.211-.725-.211h-1.113v1.683zm4.144 2.627c-.146 0-.259-.04-.338-.12a.498.498 0 0 1-.113-.345v-4.099c0-.15.04-.263.12-.338.079-.08.192-.119.338-.119h1.697c.544 0 .965.131 1.26.394.296.258.444.622.444 1.091 0 .306-.068.569-.204.789-.132.221-.324.39-.578.507-.253.118-.561.176-.922.176l.063-.105h.233c.192 0 .359.047.5.141.145.093.272.241.38.443l.528.979a.527.527 0 0 1 .077.289.321.321 0 0 1-.105.232c-.066.057-.162.085-.289.085a.559.559 0 0 1-.31-.078.723.723 0 0 1-.211-.253l-.711-1.31c-.085-.16-.186-.265-.303-.317a.982.982 0 0 0-.437-.085h-.669v1.578c0 .145-.037.26-.112.345-.076.08-.188.12-.338.12zm.45-2.712h1.099c.324 0 .568-.065.732-.197.169-.136.254-.338.254-.605 0-.263-.085-.46-.254-.592-.164-.136-.408-.204-.732-.204h-1.099v1.598zm6.118 2.726c-.479 0-.899-.106-1.261-.317a2.163 2.163 0 0 1-.831-.887c-.197-.385-.296-.836-.296-1.353 0-.389.057-.739.169-1.049.113-.314.273-.582.479-.803.211-.225.463-.396.754-.514.295-.122.624-.183.986-.183.483 0 .903.106 1.26.317.357.207.634.5.831.88.197.381.296.829.296 1.345 0 .39-.056.742-.169 1.057a2.324 2.324 0 0 1-.486.81 2.094 2.094 0 0 1-.754.521 2.601 2.601 0 0 1-.978.176zm0-.775c.305 0 .563-.07.774-.211.216-.141.381-.345.493-.613.118-.267.176-.587.176-.958 0-.563-.126-1-.38-1.309-.249-.31-.603-.465-1.063-.465-.301 0-.559.07-.775.211a1.311 1.311 0 0 0-.5.606c-.113.263-.169.582-.169.957 0 .559.127.996.38 1.31.254.315.608.472 1.064.472zm5.152.761a.553.553 0 0 1-.317-.085.667.667 0 0 1-.198-.267l-1.838-4.127a.479.479 0 0 1-.042-.31.36.36 0 0 1 .148-.211.458.458 0 0 1 .268-.078c.136 0 .237.031.303.092.07.056.129.143.176.26l1.669 3.867h-.303l1.662-3.874a.668.668 0 0 1 .183-.253.437.437 0 0 1 .296-.092c.103 0 .187.026.253.078a.336.336 0 0 1 .134.211.516.516 0 0 1-.049.31l-1.838 4.127a.667.667 0 0 1-.198.267.5.5 0 0 1-.309.085zm3.527-.057c-.155 0-.275-.04-.359-.119a.505.505 0 0 1-.12-.36v-4.007c0-.154.04-.272.12-.352.084-.084.204-.126.359-.126h2.514c.117 0 .207.03.268.091.065.061.098.148.098.261a.372.372 0 0 1-.098.274c-.061.061-.151.092-.268.092h-2.127V155h1.972c.122 0 .214.031.275.092.061.061.091.15.091.267 0 .118-.03.207-.091.268-.061.061-.153.091-.275.091h-1.972v1.444h2.127c.117 0 .207.031.268.092.065.061.098.15.098.267 0 .118-.033.207-.098.268-.061.061-.151.091-.268.091h-2.514zm6.086.057c-.146 0-.259-.04-.338-.12a.498.498 0 0 1-.113-.345v-4.099c0-.15.04-.263.12-.338.079-.08.192-.119.338-.119h1.697c.544 0 .965.131 1.26.394.296.258.444.622.444 1.091 0 .306-.068.569-.204.789-.132.221-.324.39-.578.507-.253.118-.561.176-.922.176l.063-.105h.233c.192 0 .359.047.5.141.145.093.272.241.38.443l.528.979a.537.537 0 0 1 .078.289.326.326 0 0 1-.106.232c-.066.057-.162.085-.289.085a.559.559 0 0 1-.31-.078.723.723 0 0 1-.211-.253l-.711-1.31c-.085-.16-.186-.265-.303-.317a.982.982 0 0 0-.437-.085h-.669v1.578c0 .145-.037.26-.112.345-.075.08-.188.12-.338.12zm.45-2.712h1.099c.324 0 .568-.065.732-.197.169-.136.254-.338.254-.605 0-.263-.085-.46-.254-.592-.164-.136-.408-.204-.732-.204h-1.099v1.598zm4.406 2.655a.51.51 0 0 1-.36-.119.51.51 0 0 1-.119-.36v-4.007c0-.154.04-.272.119-.352a.49.49 0 0 1 .36-.126h2.514c.117 0 .206.03.267.091.066.061.099.148.099.261a.368.368 0 0 1-.099.274c-.061.061-.15.092-.267.092h-2.127V155h1.972c.122 0 .213.031.274.092.061.061.092.15.092.267 0 .118-.031.207-.092.268-.061.061-.152.091-.274.091h-1.972v1.444h2.127c.117 0 .206.031.267.092.066.061.099.15.099.267 0 .118-.033.207-.099.268-.061.061-.15.091-.267.091h-2.514zm7.843.796c.065.103.091.197.077.282a.36.36 0 0 1-.113.211.397.397 0 0 1-.225.113.446.446 0 0 1-.268-.028.451.451 0 0 1-.225-.198l-.486-.781a.655.655 0 0 0-.267-.247.939.939 0 0 0-.402-.077l.697-.275c.221 0 .397.04.528.12.132.075.259.209.381.401l.303.479zm-1.902-.725c-.479 0-.899-.106-1.26-.317a2.163 2.163 0 0 1-.831-.887c-.198-.385-.296-.836-.296-1.353 0-.389.056-.739.169-1.049.113-.314.272-.582.479-.803a2.1 2.1 0 0 1 .753-.514c.296-.122.625-.183.986-.183.484 0 .904.106 1.261.317.357.207.634.5.831.88.197.381.295.829.295 1.345 0 .39-.056.742-.169 1.057a2.306 2.306 0 0 1-.485.81 2.094 2.094 0 0 1-.754.521 2.603 2.603 0 0 1-.979.176zm0-.775c.305 0 .564-.07.775-.211.216-.141.38-.345.493-.613.117-.267.176-.587.176-.958 0-.563-.127-1-.38-1.309-.249-.31-.604-.465-1.064-.465-.3 0-.559.07-.774.211a1.311 1.311 0 0 0-.5.606c-.113.263-.17.582-.17.957 0 .559.127.996.381 1.31.253.315.608.472 1.063.472zm5.367.775a2.83 2.83 0 0 1-.908-.134 1.74 1.74 0 0 1-.655-.394 1.69 1.69 0 0 1-.401-.662 2.828 2.828 0 0 1-.134-.916v-2.528c0-.155.037-.27.113-.345a.473.473 0 0 1 .338-.113c.145 0 .255.038.331.113.079.075.119.19.119.345v2.521c0 .446.101.782.303 1.007.207.221.505.331.894.331.39 0 .686-.11.888-.331.202-.225.303-.561.303-1.007v-2.521c0-.155.037-.27.112-.345a.476.476 0 0 1 .338-.113c.141 0 .249.038.324.113.08.075.12.19.12.345v2.528c0 .46-.08.848-.239 1.162a1.546 1.546 0 0 1-.698.711c-.31.155-.692.233-1.148.233zm3.615-.071c-.155 0-.275-.04-.359-.119a.505.505 0 0 1-.12-.36v-4.007c0-.154.04-.272.12-.352.084-.084.204-.126.359-.126h2.514c.118 0 .207.03.268.091.066.061.098.148.098.261 0 .117-.032.209-.098.274-.061.061-.15.092-.268.092h-2.127V155h1.972c.122 0 .214.031.275.092.061.061.091.15.091.267 0 .118-.03.207-.091.268-.061.061-.153.091-.275.091h-1.972v1.444h2.127c.118 0 .207.031.268.092.066.061.098.15.098.267 0 .118-.032.207-.098.268-.061.061-.15.091-.268.091h-2.514zm5.366.071c-.207 0-.413-.017-.62-.05a3.224 3.224 0 0 1-.585-.133 2.394 2.394 0 0 1-.492-.24.452.452 0 0 1-.212-.436.433.433 0 0 1 .092-.205.318.318 0 0 1 .19-.112c.075-.014.157.007.246.063.207.122.425.211.655.268.23.056.472.084.726.084.371 0 .641-.061.81-.183a.583.583 0 0 0 .253-.486.462.462 0 0 0-.183-.387c-.117-.094-.322-.171-.613-.233l-.774-.161c-.446-.094-.78-.252-1-.472-.216-.226-.324-.521-.324-.888 0-.23.047-.439.141-.626.093-.188.225-.35.394-.486.174-.136.378-.24.613-.31.239-.075.502-.113.788-.113.282 0 .55.035.803.106.254.07.481.174.683.31a.357.357 0 0 1 .148.19c.028.075.035.15.021.225a.35.35 0 0 1-.098.183.328.328 0 0 1-.198.092.428.428 0 0 1-.26-.071 2.024 2.024 0 0 0-.528-.211 2.522 2.522 0 0 0-.578-.063c-.216 0-.401.03-.556.091a.798.798 0 0 0-.359.261.632.632 0 0 0-.12.387c0 .169.056.305.169.409.113.098.305.176.578.232l.767.162c.465.099.81.253 1.035.465.23.211.345.493.345.845 0 .225-.047.429-.14.613-.09.183-.221.34-.395.471a1.808 1.808 0 0 1-.612.303c-.24.071-.51.106-.81.106zm4.276-.014a.456.456 0 0 1-.338-.12.503.503 0 0 1-.113-.345v-3.803h-1.373a.411.411 0 0 1-.289-.098.397.397 0 0 1-.098-.282c0-.122.032-.214.098-.275a.407.407 0 0 1 .289-.098h3.648c.122 0 .216.032.281.098.071.061.106.153.106.275a.38.38 0 0 1-.106.282c-.065.065-.159.098-.281.098h-1.373v3.803c0 .145-.038.26-.113.345-.075.08-.188.12-.338.12z" fill="#fff"/></g><path d="M6.22 10.796C6.22 5.083 10.85.452 16.563.452h478.874c5.712 0 10.343 4.631 10.343 10.344v162.408c0 5.713-4.631 10.344-10.343 10.344H16.563c-5.712 0-10.343-4.631-10.343-10.344V10.796z" stroke="#E6EAED" stroke-width=".44"/></g><defs><filter id="filter0_dd_14752_152249" x=".718" y=".232" width="510.563" height="194.099" filterUnits="userSpaceOnUse" color-interpolation-filters="sRGB"><feFlood flood-opacity="0" result="BackgroundImageFix"/><feColorMatrix in="SourceAlpha" type="matrix" values="0 0 0 0 0 0 0 0 0 0 0 0 0 0 0 0 0 0 127 0" result="hardAlpha"/><feMorphology radius="1.761" operator="erode" in="SourceAlpha" result="effect1_dropShadow_14752_152249"/><feOffset dy="5.282"/><feGaussianBlur stdDeviation="3.521"/><feColorMatrix type="matrix" values="0 0 0 0 0.0627451 0 0 0 0 0.0941176 0 0 0 0 0.156863 0 0 0 0.08 0"/><feBlend mode="normal" in2="BackgroundImageFix" result="effect1_dropShadow_14752_152249"/><feColorMatrix in="SourceAlpha" type="matrix" values="0 0 0 0 0 0 0 0 0 0 0 0 0 0 0 0 0 0 127 0" result="hardAlpha"/><feMorphology radius=".88" operator="erode" in="SourceAlpha" result="effect2_dropShadow_14752_152249"/><feOffset dy="1.761"/><feGaussianBlur stdDeviation="1.32"/><feColorMatrix type="matrix" values="0 0 0 0 0.0627451 0 0 0 0 0.0941176 0 0 0 0 0.156863 0 0 0 0.03 0"/><feBlend mode="normal" in2="effect1_dropShadow_14752_152249" result="effect2_dropShadow_14752_152249"/><feBlend mode="normal" in="SourceGraphic" in2="effect2_dropShadow_14752_152249" result="shape"/></filter><clipPath id="clip0_14752_152249"><path d="M6 10.796C6 4.962 10.73.232 16.563.232h478.874C501.271.232 506 4.962 506 10.796v162.408c0 5.834-4.729 10.564-10.563 10.564H16.563C10.73 183.768 6 179.038 6 173.204V10.796z" fill="#fff"/></clipPath></defs></svg>