<svg width="96" height="81" viewBox="0 0 96 81" fill="none" xmlns="http://www.w3.org/2000/svg"><path d="M77.501 14.555c0 10.177-.004 20.362-.011 30.555a23.476 23.476 0 0 1-1.127 6.87 32.029 32.029 0 0 1-5.154 10.008 47.636 47.636 0 0 1-3.344 3.92 57.286 57.286 0 0 1-9.733 8.1 76.979 76.979 0 0 1-6.988 4.136c-.648.348-1.32.623-1.99.947-.193.1-.385.228-.576.348h-.654c-.191-.12-.383-.252-.575-.348-.67-.324-1.342-.6-1.99-.947a76.979 76.979 0 0 1-6.988-4.136 57.286 57.286 0 0 1-9.733-8.1 47.617 47.617 0 0 1-3.344-3.92 32.029 32.029 0 0 1-5.154-10.009 23.476 23.476 0 0 1-1.127-6.869c-.012-10.189-.016-20.374-.012-30.555 0-.875.012-.875.84-1.223 5.07-2.11 10.145-4.22 15.224-6.329 3.416-1.426 6.82-2.84 10.236-4.279.875-.372 1.75-.767 2.625-1.163h.648c.875.4 1.75.791 2.625 1.163 3.416 1.438 6.82 2.853 10.236 4.279 5.071 2.11 10.146 4.22 15.224 6.329.83.348.842.348.842 1.223z" fill="#FFD499"/><mask id="mask0_10108_224464" style="mask-type:luminance" maskUnits="userSpaceOnUse" x="19" y="1" width="59" height="79"><path d="M77.501 14.555c0 10.177-.004 20.362-.011 30.555a23.476 23.476 0 0 1-1.127 6.87 32.029 32.029 0 0 1-5.154 10.008 47.636 47.636 0 0 1-3.344 3.92 57.286 57.286 0 0 1-9.733 8.1 76.979 76.979 0 0 1-6.988 4.136c-.648.348-1.32.623-1.99.947-.193.1-.385.228-.576.348h-.654c-.191-.12-.383-.252-.575-.348-.67-.324-1.342-.6-1.99-.947a76.979 76.979 0 0 1-6.988-4.136 57.286 57.286 0 0 1-9.733-8.1 47.617 47.617 0 0 1-3.344-3.92 32.029 32.029 0 0 1-5.154-10.009 23.476 23.476 0 0 1-1.127-6.869c-.012-10.189-.016-20.374-.012-30.555 0-.875.012-.875.84-1.223 5.07-2.11 10.145-4.22 15.224-6.329 3.416-1.426 6.82-2.84 10.236-4.279.875-.372 1.75-.767 2.625-1.163h.648c.875.4 1.75.791 2.625 1.163 3.416 1.438 6.82 2.853 10.236 4.279 5.071 2.11 10.146 4.22 15.224 6.329.83.348.842.348.842 1.223z" fill="#fff"/></mask><g mask="url(#mask0_10108_224464)"><path d="M78.214 44.097c12.74 0 23.066-10.327 23.066-23.066 0-12.739-10.327-23.066-23.066-23.066-12.739 0-23.066 10.327-23.066 23.066 0 12.74 10.327 23.066 23.066 23.066z" fill="#B76B00"/><path d="M48.047 1.561h-29v78h29v-78z" fill="#C70"/><path d="M61.032 51.166a1 1 0 0 1-.727.935H35.893a.894.894 0 0 1-.831-.832v-.1c.1-.52.1-1.04.207-1.558a3.946 3.946 0 0 1 2.8-3.012l3.74-1.246c.207-.1 1.245-.52 1.453-.623a.1.1 0 0 0 .1-.1 3.847 3.847 0 0 0 1.767-4.26c-.1-.207-.1-.311-.209-.518-.518-.831-1.038-1.558-1.661-2.493-.209-.208-.313-.52-.52-.727-1.038-.208-1.038-.208-1.143-1.454-.1-.415-.1-.831-.208-1.143-.208-.727 0-1.246.623-1.454v-1.983a4.258 4.258 0 0 1 1.455-3.22 5.5 5.5 0 0 1 2.196-1.142c.727-.1 1.454-.208 1.766-.208a7.9 7.9 0 0 1 3.738.623 9.51 9.51 0 0 1 1.35.83 4.013 4.013 0 0 1 1.143 2.8v2.187a1.053 1.053 0 0 1 .728 1.35.382.382 0 0 1-.1.312c-.1.415-.1.83-.208 1.246-.1.727-.313 1.35-1.04 1.246-.727 1.143-1.35 2.18-2.076 3.116a3.82 3.82 0 0 0 .934 4.467h.1c.159.127.333.232.52.312.1 0 1.453.727 1.661.83l.935.313 2.8.935a3.946 3.946 0 0 1 2.8 3.012l.318 1.559z" fill="#fff"/><mask id="mask1_10108_224464" style="mask-type:luminance" maskUnits="userSpaceOnUse" x="32" y="23" width="16" height="32"><path d="M47.844 23.002h-15v31h15v-31z" fill="#fff"/></mask><g mask="url(#mask1_10108_224464)"><path d="M60.845 51.163a1 1 0 0 1-.727.935H35.71a.894.894 0 0 1-.831-.831v-.1c.1-.52.1-1.04.208-1.558a3.946 3.946 0 0 1 2.8-3.012l3.739-1.246c.208-.1 1.246-.52 1.454-.623a.1.1 0 0 0 .1-.1 3.847 3.847 0 0 0 1.766-4.258c-.1-.208-.1-.312-.208-.52-.52-.83-1.04-1.557-1.662-2.492-.208-.208-.312-.52-.52-.727-1.038-.208-1.038-.208-1.142-1.454-.1-.415-.1-.831-.208-1.143-.208-.727 0-1.246.623-1.454v-1.982a4.258 4.258 0 0 1 1.454-3.22 5.501 5.501 0 0 1 2.18-1.143c.728-.1 1.455-.208 1.767-.208a7.9 7.9 0 0 1 3.739.623c.472.239.924.517 1.35.83a4.013 4.013 0 0 1 1.143 2.8v2.188a1.054 1.054 0 0 1 .727 1.35.384.384 0 0 1-.1.312c-.1.415-.1.83-.208 1.246-.1.727-.312 1.35-1.04 1.246-.726 1.143-1.35 2.18-2.076 3.116a3.82 3.82 0 0 0 .935 4.466h.1c.158.127.333.232.519.312.1 0 1.454.727 1.662.83l.935.313 2.8.935a3.947 3.947 0 0 1 2.8 3.012l.329 1.557z" fill="#fff"/></g></g><circle cx="77" cy="21.561" r="19" fill="#ED1B2E"/><path d="M77 23.841v-12.28" stroke="#fff" stroke-width="2" stroke-linecap="round"/><path d="M77 31.561v-.044" stroke="#fff" stroke-width="3" stroke-linecap="round"/></svg>