<svg width="59" height="58" viewBox="0 0 59 58" fill="none" xmlns="http://www.w3.org/2000/svg"><path d="M29.5 18.333V29m0 10.667h.027M2.833 19.727v18.546c0 .652 0 .978.074 1.285.065.272.173.532.32.77.164.27.395.5.856.962L17.21 54.417c.461.461.692.692.961.857.239.146.499.254.771.319.307.074.633.074 1.285.074h18.546c.652 0 .978 0 1.285-.074.272-.065.532-.173.77-.32.27-.164.5-.395.962-.856L54.917 41.29c.461-.462.692-.692.857-.961a2.67 2.67 0 0 0 .319-.771c.074-.307.074-.633.074-1.285V19.727c0-.652 0-.978-.074-1.285a2.666 2.666 0 0 0-.32-.77c-.164-.27-.395-.5-.856-.962L41.79 3.583c-.462-.461-.692-.692-.961-.857a2.667 2.667 0 0 0-.771-.32c-.307-.073-.633-.073-1.285-.073H20.227c-.652 0-.978 0-1.285.074a2.667 2.667 0 0 0-.77.32c-.27.164-.5.395-.962.856L4.083 16.71c-.461.461-.692.692-.857.961a2.667 2.667 0 0 0-.32.771c-.073.307-.073.633-.073 1.285z" stroke="#ED1B2E" stroke-width="4" stroke-linecap="round" stroke-linejoin="round"/></svg>