<svg width="22" height="22" viewBox="0 0 22 22" fill="none" xmlns="http://www.w3.org/2000/svg"><path d="M3 20.817C3.603 21 4.416 21 5.8 21h10.4c1.384 0 2.197 0 2.8-.183m-16 0a2.18 2.18 0 0 1-.362-.144 3 3 0 0 1-1.311-1.311C1 18.72 1 17.88 1 16.2V5.8c0-1.68 0-2.52.327-3.162a3 3 0 0 1 1.311-1.311C3.28 1 4.12 1 5.8 1h10.4c1.68 0 2.52 0 3.162.327a3 3 0 0 1 1.311 1.311C21 3.28 21 4.12 21 5.8v10.4c0 1.68 0 2.52-.327 3.162a3 3 0 0 1-1.311 1.311 2.18 2.18 0 0 1-.362.144m-16 0c0-.809.005-1.237.077-1.597a4 4 0 0 1 3.143-3.143C6.606 16 7.07 16 8 16h6c.93 0 1.394 0 1.78.077a4 4 0 0 1 3.143 3.143c.072.36.077.788.077 1.597M15 8.5a4 4 0 1 1-8 0 4 4 0 0 1 8 0z" stroke="#030F1A" stroke-width="2" stroke-linecap="round" stroke-linejoin="round"/></svg>