<svg width="79" height="78" viewBox="0 0 79 78" fill="none" xmlns="http://www.w3.org/2000/svg"><path d="M58.502 12.994c0 10.177-.005 20.362-.013 30.555a23.475 23.475 0 0 1-1.127 6.869 32.03 32.03 0 0 1-5.154 10.009 47.653 47.653 0 0 1-3.343 3.92 57.28 57.28 0 0 1-9.733 8.1 76.98 76.98 0 0 1-6.988 4.136c-.647.348-1.32.623-1.99.947-.192.1-.384.228-.576.348h-.654c-.191-.12-.383-.252-.575-.348-.67-.324-1.343-.6-1.99-.947a77.003 77.003 0 0 1-6.988-4.136 57.281 57.281 0 0 1-9.733-8.1 47.65 47.65 0 0 1-3.343-3.92A32.03 32.03 0 0 1 1.14 50.418a23.475 23.475 0 0 1-1.128-6.869C.001 33.36-.002 23.175.002 12.994c0-.875.011-.875.838-1.223 5.071-2.11 10.146-4.22 15.224-6.329 3.416-1.426 6.822-2.841 10.238-4.279A125.2 125.2 0 0 0 28.927 0h.646c.875.4 1.75.791 2.626 1.163 3.416 1.438 6.82 2.853 10.236 4.279 5.071 2.11 10.146 4.22 15.224 6.329.83.348.843.348.843 1.223z" fill="#0362CC"/><mask id="mask0_5712_62453" style="mask-type:luminance" maskUnits="userSpaceOnUse" x="0" y="0" width="59" height="78"><path d="M58.502 12.994c0 10.177-.005 20.362-.013 30.555a23.475 23.475 0 0 1-1.127 6.869 32.03 32.03 0 0 1-5.154 10.009 47.653 47.653 0 0 1-3.343 3.92 57.28 57.28 0 0 1-9.733 8.1 76.98 76.98 0 0 1-6.988 4.136c-.647.348-1.32.623-1.99.947-.192.1-.384.228-.576.348h-.654c-.191-.12-.383-.252-.575-.348-.67-.324-1.343-.6-1.99-.947a77.003 77.003 0 0 1-6.988-4.136 57.281 57.281 0 0 1-9.733-8.1 47.65 47.65 0 0 1-3.343-3.92A32.03 32.03 0 0 1 1.14 50.418a23.475 23.475 0 0 1-1.128-6.869C.001 33.36-.002 23.175.002 12.994c0-.875.011-.875.838-1.223 5.071-2.11 10.146-4.22 15.224-6.329 3.416-1.426 6.822-2.841 10.238-4.279A125.2 125.2 0 0 0 28.927 0h.646c.875.4 1.75.791 2.626 1.163 3.416 1.438 6.82 2.853 10.236 4.279 5.071 2.11 10.146 4.22 15.224 6.329.83.348.843.348.843 1.223z" fill="#fff"/></mask><g mask="url(#mask0_5712_62453)"><path d="M59.218 42.536c12.74 0 23.066-10.327 23.066-23.066 0-12.739-10.327-23.066-23.066-23.066-12.739 0-23.066 10.327-23.066 23.066 0 12.74 10.327 23.066 23.066 23.066z" fill="#004999"/><path d="M29.049 0h-29v78h29V0z" fill="#0055B2"/><path d="M42.033 49.605a1 1 0 0 1-.727.935h-24.41a.894.894 0 0 1-.832-.832v-.1c.1-.52.1-1.04.209-1.558a3.946 3.946 0 0 1 2.8-3.012l3.738-1.246c.209-.1 1.247-.52 1.454-.623a.1.1 0 0 0 .1-.1 3.848 3.848 0 0 0 1.767-4.26c-.1-.207-.1-.311-.209-.518-.518-.831-1.038-1.558-1.661-2.493-.209-.208-.313-.52-.52-.727-1.039-.208-1.039-.208-1.143-1.454-.1-.415-.1-.831-.207-1.143-.209-.727 0-1.246.623-1.454v-1.983a4.26 4.26 0 0 1 1.453-3.22 5.498 5.498 0 0 1 2.197-1.142c.727-.1 1.454-.208 1.765-.208a7.899 7.899 0 0 1 3.74.623c.472.239.923.517 1.35.83a4.013 4.013 0 0 1 1.142 2.8v2.187a1.054 1.054 0 0 1 .727 1.35.382.382 0 0 1-.1.312c-.1.415-.1.83-.208 1.246-.1.727-.312 1.35-1.039 1.246-.727 1.143-1.35 2.18-2.077 3.116a3.82 3.82 0 0 0 .936 4.467h.1c.158.127.332.232.519.312.1 0 1.453.727 1.661.83l.936.313 2.8.935a3.945 3.945 0 0 1 2.8 3.012l.316 1.559z" fill="#fff"/><mask id="mask1_5712_62453" style="mask-type:luminance" maskUnits="userSpaceOnUse" x="13" y="21" width="16" height="32"><path d="M28.846 21.44h-15v31h15v-31z" fill="#fff"/></mask><g mask="url(#mask1_5712_62453)"><path d="M41.845 49.602a1 1 0 0 1-.727.935H16.71a.894.894 0 0 1-.831-.831v-.1c.1-.52.1-1.04.208-1.558a3.946 3.946 0 0 1 2.8-3.012l3.739-1.246c.208-.1 1.246-.52 1.454-.623a.1.1 0 0 0 .1-.1 3.848 3.848 0 0 0 1.766-4.258c-.1-.208-.1-.312-.208-.52-.52-.83-1.04-1.557-1.662-2.492-.208-.208-.312-.52-.52-.727-1.038-.208-1.038-.208-1.142-1.454-.1-.415-.1-.831-.208-1.143-.208-.727 0-1.246.623-1.454v-1.982a4.258 4.258 0 0 1 1.454-3.22 5.501 5.501 0 0 1 2.18-1.143c.728-.1 1.455-.208 1.767-.208a7.9 7.9 0 0 1 3.739.623c.472.239.924.517 1.35.83a4.013 4.013 0 0 1 1.143 2.8v2.188a1.053 1.053 0 0 1 .727 1.35.384.384 0 0 1-.1.312c-.1.415-.1.83-.208 1.246-.1.727-.312 1.35-1.04 1.246-.726 1.143-1.35 2.18-2.076 3.116a3.82 3.82 0 0 0 .935 4.466h.1c.158.127.333.231.519.312.1 0 1.454.727 1.662.83l.935.313 2.8.935a3.946 3.946 0 0 1 2.8 3.012l.329 1.557z" fill="#F2F2F2"/></g></g><path d="M59.216 38.94c10.753 0 19.47-8.717 19.47-19.47C78.686 8.717 69.97 0 59.216 0c-10.753 0-19.47 8.717-19.47 19.47 0 10.753 8.717 19.47 19.47 19.47z" fill="#FF9500"/><path d="M50.717 19.94h17" stroke="#fff" stroke-width="2" stroke-linecap="round"/></svg>