<svg width="899" height="601" viewBox="0 0 899 601" fill="none" xmlns="http://www.w3.org/2000/svg"><g clip-path="url(#clip0_7756_224836)"><path d="M604.35 5.04h-310.1C134.5 5.04 5 134.5 5 294.25v5.79c0 159.77 129.5 289.27 289.25 289.27h310.1c159.75 0 289.25-129.5 289.25-289.27v-5.81C893.6 134.5 764.1 5.04 604.35 5.04zm98.23 414.23a156.551 156.551 0 0 1-111.05 46H307.07a157.048 157.048 0 0 1-157.05-157.05 157.05 157.05 0 0 1 157.05-157.05h284.46a157.002 157.002 0 0 1 111.05 268.1z" fill="#E0E0E0"/><path d="M748.58 308.22a157.054 157.054 0 0 1-157.05 157H307.07a157.05 157.05 0 1 1 0-314.1h284.46a157.038 157.038 0 0 1 111.068 46.017A157.043 157.043 0 0 1 748.58 308.22z" fill="#E0E0E0"/><path d="M274.39 136.12a173.176 173.176 0 0 0-51.49 17.92l-17.68-39.53 6.22-3.39-5.34-11.08a222.33 222.33 0 0 1 59.6-19.58l8.69 55.66zm39.82-58.86v56.1h-8.75c-4.847 0-9.647.197-14.4.59v-26.76H279.2l-3.73-28.29c9.862-1.32 19.8-1.988 29.75-2h7.54c.94.23 1.45.36 1.45.36zm61.56-.32v56.42H346.4v-28.6h-8.47v28.6h-19.19V76.94h57.03zm74.73 0v56.42h-30.86v-28.6h-9.99v28.6h-26.54V76.94h67.39zm74.91 0v56.42h-30.49v-28.6h-10.17v28.6h-29.36V76.94h70.02zm57.72 0v56.42h-16.47l.54-28.6h-9.91l-.19 28.6h-26.04V76.94h52.07zm47.38 1.96l-2.32 17h-16.38v38.4h-.3a177.318 177.318 0 0 0-18.23-.94h-5.19V76.94h12.7c9.939-.001 19.867.654 29.72 1.96zm63.75 32.24l-20.4 41.9a173.529 173.529 0 0 0-42.6-15.51l3.14-43.86c32.19 3.37 59.86 17.47 59.86 17.47zm-.53-14.1l-3.42 9.27s-16.25-10.13-57-16.16l1.45-10.69a222.335 222.335 0 0 1 58.97 17.58zm55.87 52.22l-33.89 34.16a175.13 175.13 0 0 0-37.62-28.14l20.69-42.44c25.71 13.71 50.82 36.42 50.82 36.42zm13.16-3.06l-6.38 5.84c-20.18-21.83-50-39.25-50-39.25l2.68-8a224.996 224.996 0 0 1 53.7 41.41zm35.12 72.84l-44 20.15a174.28 174.28 0 0 0-25.1-41.4l33.54-33.81c25.96 28.2 35.56 55.06 35.56 55.06z" fill="#C9C5C5"/><path d="M805.7 210.32l-6.41 3.32c-18.07-37.84-40.09-58.45-40.09-58.45l6.41-5.95a223.928 223.928 0 0 1 40.09 61.08zm9.12 72.78l-47.72 7.17a173.504 173.504 0 0 0-11.24-46.31l-.33-1.52L799 222.67a217.403 217.403 0 0 1 15.82 60.43z" fill="#C9C5C5"/><path d="M824.46 288.27h-6.72c-1.32-31.71-14.12-61.93-14.12-61.93l7-3.85a222.618 222.618 0 0 1 13.84 65.78zm.23 20.14a223.087 223.087 0 0 1-12.41 66.63l-52-15.23a174.395 174.395 0 0 0 7.72-48.77l56.69-2.63zm-14.75 72.97a223.548 223.548 0 0 1-30 54.08l-42.51-28.64a174.228 174.228 0 0 0 21.18-42.11l51.33 16.67zm-41.82 68.52a221.53 221.53 0 0 1-8.93 9.47 224.92 224.92 0 0 1-42.54 33.36l-24.89-40.32a174.707 174.707 0 0 0 25.07-20.79 174.206 174.206 0 0 0 9.35-10.12l41.94 28.4zm-55.61 45.28a222.394 222.394 0 0 1-70.16 26l-6-43.69a174.07 174.07 0 0 0 52-22.74l24.16 40.43zM224.67 63.26L231 82.04a227.887 227.887 0 0 0-21.37 8.9l-26.72-61a287.752 287.752 0 0 1 36.42-14.2l12.13 44.94-6.79 2.58zM294.3 2.75l-4.9 66.65a229.382 229.382 0 0 0-40.35 7l-4.65-20.17-7.25 2.49-9.64-45.38A291.284 291.284 0 0 1 294.3 2.75zm44.86-.26L337 46.94l-4.47.34L331 68.56h-21.84c-4.78 0-9.527.144-14.24.43l4.94-66.41c2.28-.06 4.567-.09 6.86-.09h32.44zm75.98 0l-2.44 43.99-5.49-.2-1.56 22.28h-56.93l1.55-22.03h-7.74l1.89-44.04h70.72zm75.43 0l-3.62 44.87-4.33-.08-1.77 21.28h-56.72l1.56-21.78h-7.49l2.12-44.29h70.25zm74.44 0l-3.88 44.99-4.04.18-2.01 20.9h-56.87l1.73-21.31h-8.28l3.8-44.76h69.55zm49.74.28l-3.82 66.2c-4.55-.27-9.15-.41-13.77-.41h-27.32l1.94-21.62h-6.54l3.66-44.45h33c4.3 0 8.584.094 12.85.28zm71.36 12.07l-10.37 40.34-8.48-1.7-6 24.07a231.287 231.287 0 0 0-46.17-8.3l4-66.25a290.312 290.312 0 0 1 67.02 11.84zm90.94 46.08l-24 36.91-6.3-4.19-12.63 19.7a231.452 231.452 0 0 0-56.8-30.55l9.57-24.75-7-1.93 11-39.83a290.92 290.92 0 0 1 86.16 44.64zm70.19 75.44l-33.61 27.58-1.94-3.59L792 174.72a232.66 232.66 0 0 0-44.72-51l14.28-20.2-4.85-2.79 25-36.26a292.99 292.99 0 0 1 65.53 71.89zm39.05 92.68l-36.55 15.13-2.91-7.51-24.47 8.62a230.175 230.175 0 0 0-23.28-58.83l21.58-13.76-3.88-6.3 32.94-26.13a289.728 289.728 0 0 1 36.57 88.78zm7.31 65.18a293.131 293.131 0 0 1-2.45 37.94l-39.48 1.34.14-4.52-24.81 1.17a234.574 234.574 0 0 0-1-66.94l26.26-7.78-1.55-6.64 36.8-14.26a292.725 292.725 0 0 1 6.09 59.69zm-3.37 44.52a289.768 289.768 0 0 1-29.68 90.49l-35.06-11.07 2-6.42-24.34-5.15a230.13 230.13 0 0 0 21.58-62.34l25 1.24 1.28-7.72 39.22.97zm-32.64 95.99a292.737 292.737 0 0 1-49.44 65.78c-3.84 3.84-7.787 7.57-11.84 11.19l-29.77-25.07 5.69-5L756 469.04c1.7-1.593 3.367-3.213 5-4.86a233.111 233.111 0 0 0 34.54-44l22.18 7.64 3.22-4.92 36.65 11.83zM793 514.61a291.53 291.53 0 0 1-85.52 51.63l-17.26-31.88 7.72-4.32-9.54-16.6a231.719 231.719 0 0 0 57.11-35l12.88 13.09 4.5-3.65L793 514.61zm-91.57 53.91a290.177 290.177 0 0 1-48.53 13l-10.33-53.88a230.771 230.771 0 0 0 31.65-8.66l7.42 19.24 5.15-2 14.64 32.3z" fill="#C9C5C5"/><path d="M591.53 151.17H307.07c-86.737 0-157.05 70.314-157.05 157.05 0 86.736 70.313 157.05 157.05 157.05h284.46c86.736 0 157.05-70.314 157.05-157.05 0-86.736-70.314-157.05-157.05-157.05z" stroke="#fff" stroke-width="10" stroke-miterlimit="10"/><path d="M224.67 63.26L231 82.04a227.887 227.887 0 0 0-21.37 8.9l-26.72-61a287.752 287.752 0 0 1 36.42-14.2l12.13 44.94-6.79 2.58zM294.3 2.75l-4.9 66.65a229.382 229.382 0 0 0-40.35 7l-4.65-20.17-7.25 2.49-9.64-45.38A291.284 291.284 0 0 1 294.3 2.75zm44.86-.26L337 46.94l-4.47.34L331 68.56h-21.84c-4.78 0-9.527.144-14.24.43l4.94-66.41c2.28-.06 4.567-.09 6.86-.09h32.44zm75.98 0l-2.44 43.99-5.49-.2-1.56 22.28h-56.93l1.55-22.03h-7.74l1.89-44.04h70.72zm75.43 0l-3.62 44.87-4.33-.08-1.77 21.28h-56.72l1.56-21.78h-7.49l2.12-44.29h70.25zm74.44 0l-3.88 44.99-4.04.18-2.01 20.9h-56.87l1.73-21.31h-8.28l3.8-44.76h69.55zm49.74.28l-3.82 66.2c-4.55-.27-9.15-.41-13.77-.41h-27.32l1.94-21.62h-6.54l3.66-44.45h33c4.3 0 8.584.094 12.85.28zm71.36 12.07l-10.37 40.34-8.48-1.7-6 24.07a231.287 231.287 0 0 0-46.17-8.3l4-66.25a290.312 290.312 0 0 1 67.02 11.84zm15.32 553.68a290.177 290.177 0 0 1-48.53 13l-10.33-53.88a230.771 230.771 0 0 0 31.65-8.66l7.42 19.24 5.15-2 14.64 32.3zm75.62-507.6l-24 36.91-6.3-4.19-12.63 19.7a231.452 231.452 0 0 0-56.8-30.55l9.57-24.75-7-1.93 11-39.83a290.92 290.92 0 0 1 86.16 44.64zM793 514.61a291.53 291.53 0 0 1-85.52 51.63l-17.26-31.88 7.72-4.32-9.54-16.6a231.719 231.719 0 0 0 57.11-35l12.88 13.09 4.5-3.65L793 514.61zm54.24-378.25l-33.61 27.58-1.94-3.59L792 174.72a232.66 232.66 0 0 0-44.72-51l14.28-20.2-4.85-2.79 25-36.26a292.99 292.99 0 0 1 65.53 71.89zm10.35 298.37a292.737 292.737 0 0 1-49.44 65.78c-3.84 3.84-7.787 7.57-11.84 11.19l-29.77-25.07 5.69-5L756 469.04c1.7-1.593 3.367-3.213 5-4.86a233.111 233.111 0 0 0 34.54-44l22.18 7.64 3.22-4.92 36.65 11.83zm28.7-205.69l-36.55 15.13-2.91-7.51-24.47 8.62a230.175 230.175 0 0 0-23.28-58.83l21.58-13.76-3.88-6.3 32.94-26.13a289.728 289.728 0 0 1 36.57 88.78zm3.94 109.7a289.768 289.768 0 0 1-29.68 90.49l-35.06-11.07 2-6.42-24.34-5.15a230.13 230.13 0 0 0 21.58-62.34l25 1.24 1.28-7.72 39.22.97zm3.37-44.52a293.131 293.131 0 0 1-2.45 37.94l-39.48 1.34.14-4.52-24.81 1.17a234.574 234.574 0 0 0-1-66.94l26.26-7.78-1.55-6.64 36.8-14.26a292.725 292.725 0 0 1 6.09 59.69zM265.7 80.42l8.69 55.7a173.176 173.176 0 0 0-51.49 17.92l-17.68-39.53 6.22-3.39-5.34-11.08a222.322 222.322 0 0 1 59.6-19.62zm47.06-3.48c.94.19 1.45.32 1.45.32v56.1h-8.75c-4.847 0-9.647.197-14.4.59v-26.76H279.2l-3.73-28.29c9.862-1.32 19.8-1.988 29.75-2l7.54.04zm63.01 0v56.42H346.4v-28.6h-8.47v28.6h-19.19V76.94h57.03zm74.73 0v56.42h-30.86v-28.6h-9.99v28.6h-26.54V76.94h67.39zm74.91 0v56.42h-30.49v-28.6h-10.17v28.6h-29.36V76.94h70.02zm57.72 0v56.42h-16.47l.54-28.6h-9.91l-.19 28.6h-26.04V76.94h52.07zm47.38 1.96l-2.32 17h-16.38v38.4h-.3a177.318 177.318 0 0 0-18.23-.94h-5.19V76.94h12.7c9.939-.001 19.867.654 29.72 1.96zm82 416.28a222.394 222.394 0 0 1-70.16 26l-6-43.69a174.07 174.07 0 0 0 52-22.74l24.16 40.43zm55.61-45.28a221.53 221.53 0 0 1-8.93 9.47 224.92 224.92 0 0 1-42.54 33.36l-24.89-40.32a174.707 174.707 0 0 0 25.07-20.79 174.206 174.206 0 0 0 9.35-10.12l41.94 28.4zm41.82-68.52a223.548 223.548 0 0 1-30 54.08l-42.51-28.64a174.228 174.228 0 0 0 21.18-42.11l51.33 16.67zm14.75-72.97a223.087 223.087 0 0 1-12.41 66.63l-52-15.23a174.395 174.395 0 0 0 7.72-48.77l56.69-2.63z" fill="#C9C5C5"/><path d="M604.35 5h-310.1C134.502 5 5 134.502 5 294.25v5.81c0 159.748 129.502 289.25 289.25 289.25h310.1c159.748 0 289.25-129.502 289.25-289.25v-5.81C893.6 134.502 764.098 5 604.35 5z" stroke="#fff" stroke-width="10" stroke-miterlimit="10"/><path d="M275.25 494.8h350.94v105.24H275.25V494.8z" fill="#C9C5C5"/><g clip-path="url(#clip1_7756_224836)"><path d="M317.12 367.224V249.585L286 262.314v89.122l31.12 15.788zm0-150.234h68.776v67.733h95.305a33.363 33.363 0 0 0-.165 45.32h-95.14v68.752H317.12V216.99zm172.505-24.48v50.925h81.321V192.51h-81.321zm0 179.882v49.399h81.321v-49.399h-81.321z" fill="#C9C5C5"/><path d="M533.311 402.446a.644.644 0 0 1-.098.36.749.749 0 0 1-.306.221l-4.704 2.052a.529.529 0 0 1-.352.045.406.406 0 0 1-.239-.169.525.525 0 0 1-.086-.305c.001-.155.037-.269.107-.343a.696.696 0 0 1 .297-.198l4.407-1.862-.003.344-4.385-1.922a.786.786 0 0 1-.287-.21.502.502 0 0 1-.101-.337.453.453 0 0 1 .09-.287c.059-.08.14-.13.241-.15a.583.583 0 0 1 .352.058l4.672 2.124c.133.06.233.135.302.227a.575.575 0 0 1 .093.352zm.044-5.703a.636.636 0 0 1-.099.36.752.752 0 0 1-.305.221l-4.704 2.052a.53.53 0 0 1-.353.045.407.407 0 0 1-.238-.169.525.525 0 0 1-.086-.305c.001-.155.037-.269.107-.343a.69.69 0 0 1 .297-.198l4.407-1.862-.003.344-4.385-1.922a.786.786 0 0 1-.287-.21.502.502 0 0 1-.101-.337.453.453 0 0 1 .09-.287c.059-.08.14-.13.241-.15a.583.583 0 0 1 .352.058l4.672 2.124a.76.76 0 0 1 .302.227.575.575 0 0 1 .093.352zm.031-3.975c-.002.166-.048.293-.139.383a.565.565 0 0 1-.393.125l-4.712-.036c-.171-.001-.301-.045-.391-.131-.09-.091-.134-.22-.133-.385.001-.165.047-.29.139-.375.091-.09.222-.134.393-.133l4.712.036a.575.575 0 0 1 .391.131c.09.086.134.215.133.385zm.017-2.257a.52.52 0 0 1-.139.383.574.574 0 0 1-.393.125l-4.656-.036c-.17-.002-.298-.048-.383-.139-.09-.092-.134-.22-.133-.385l.015-1.928c.005-.619.163-1.095.475-1.429.312-.333.745-.498 1.3-.494.555.005.988.176 1.3.514.307.339.458.817.453 1.436l-.011 1.424 1.648.013a.563.563 0 0 1 .391.131c.09.086.134.214.133.385zm-2.98-.535l.01-1.264c.003-.363-.075-.638-.234-.826-.164-.188-.403-.283-.718-.286-.314-.002-.552.089-.714.275-.161.185-.243.459-.246.822l-.01 1.264 1.912.015zm2.888-167.823a.638.638 0 0 1-.098.359.76.76 0 0 1-.306.222l-4.704 2.052a.541.541 0 0 1-.352.045.403.403 0 0 1-.239-.17.523.523 0 0 1-.086-.305c.001-.154.037-.269.107-.343a.704.704 0 0 1 .297-.197l4.407-1.863-.003.344-4.385-1.921a.777.777 0 0 1-.287-.211.498.498 0 0 1-.101-.336.454.454 0 0 1 .09-.288.39.39 0 0 1 .241-.15.585.585 0 0 1 .352.059l4.672 2.124a.75.75 0 0 1 .302.226.58.58 0 0 1 .093.353zm.044-5.703a.63.63 0 0 1-.099.359.762.762 0 0 1-.305.222l-4.704 2.052a.543.543 0 0 1-.353.045.404.404 0 0 1-.238-.17.523.523 0 0 1-.086-.305c.001-.154.037-.269.107-.343a.698.698 0 0 1 .297-.197l4.407-1.863-.003.344-4.385-1.921a.777.777 0 0 1-.287-.211.498.498 0 0 1-.101-.336.456.456 0 0 1 .09-.288.39.39 0 0 1 .241-.15.585.585 0 0 1 .352.059l4.672 2.124c.132.06.233.135.302.226a.58.58 0 0 1 .093.353zm.031-3.975c-.002.165-.048.293-.139.383a.574.574 0 0 1-.393.125l-4.712-.036c-.171-.002-.301-.045-.391-.131-.09-.092-.134-.22-.133-.385.001-.166.047-.291.139-.375.091-.09.222-.135.393-.133l4.712.036a.57.57 0 0 1 .391.131c.09.086.134.214.133.385zm.017-2.258a.52.52 0 0 1-.139.383.57.57 0 0 1-.393.125l-4.656-.036c-.17-.001-.298-.047-.383-.139-.09-.091-.134-.219-.133-.385l.015-1.928c.005-.618.163-1.094.475-1.428.312-.334.745-.498 1.3-.494.555.004.988.176 1.3.514.307.338.458.817.453 1.435l-.011 1.424 1.648.013a.568.568 0 0 1 .391.131c.09.086.134.214.133.385zm-2.98-.535l.01-1.264c.003-.362-.075-.638-.234-.826-.164-.187-.403-.283-.718-.285-.314-.003-.552.089-.714.274-.161.186-.243.46-.246.823l-.01 1.264 1.912.014z" fill="#fff"/><path d="M393.023 192.51v50.925h94.023V192.51h-94.023zm0 179.882v49.399h94.023v-49.399h-94.023zm0-2.626v-30.594h89.521v8.19h58.453l10.065-10.694v-21.901h20.134v54.999H393.023zm0-123.601v31.068h88.581v-8.66h59.393l10.065 10.695v21.9h20.134v-55.003H393.023z" fill="#C9C5C5"/><path d="M573.964 421.791V315.237h16.807v18.846h19.35v87.708h-36.157zm0-228.811v107.958h16.807v-18.842h19.35V192.98h-36.157z" fill="#0062CC"/><path d="M390.312 279.54H484.1v-8.688h54.975l9.092 9.092v23.222h42.942v9.12h-42.65v24.17l-8.604 8.604h-54.689v-8.19h-94.445v69.029H318.06v-5.944h69.541v-68.132h93.064l2.349-.249a33.362 33.362 0 1 0 .672-47.927h-96.362v-68.329H318.06v-6.579h72.252v70.801z" fill="#C9C5C5"/><path d="M540.931 307.892c0-19.219-15.58-34.799-34.799-34.799s-34.799 15.58-34.799 34.799 15.58 34.799 34.799 34.799 34.799-15.58 34.799-34.799z" fill="#C9C5C5" stroke="#fff" stroke-width="5" stroke-miterlimit="10"/><path d="M592.044 283.393v49.666h18.076v-49.666h-18.076z" fill="#C9C5C5"/></g><path d="M215.089 59.356c.047.203.028.375-.054.516a.673.673 0 0 1-.43.27c-.202.046-.366.026-.492-.06-.128-.093-.214-.242-.26-.444l-.298-1.307-5.73 1.305-.165-.723 1.43 1.479a.69.69 0 0 1 .2.396.663.663 0 0 1-.089.364.755.755 0 0 1-.286.25.633.633 0 0 1-.379.06.695.695 0 0 1-.396-.228l-1.335-1.39a3.362 3.362 0 0 1-.34-.413 1.076 1.076 0 0 1-.203-.408.614.614 0 0 1 .047-.44c.06-.13.192-.216.394-.262l6.512-1.483-.271-1.19c-.047-.203-.031-.37.045-.502.074-.14.213-.233.415-.279.202-.046.371-.023.507.069.134.084.223.227.269.43l.909 3.99zm-1.713-8.062c.076.335.104.693.085 1.073a3.84 3.84 0 0 1-.25 1.113.561.561 0 0 1-.248.314.736.736 0 0 1-.356.106.732.732 0 0 1-.352-.092.513.513 0 0 1-.236-.278c-.051-.119-.051-.262.001-.43.095-.3.147-.573.156-.82a2.702 2.702 0 0 0-.066-.722c-.102-.451-.294-.809-.575-1.072-.281-.263-.649-.425-1.105-.485-.465-.066-1.009-.028-1.631.114l-.875.2-.032-.14c.401-.035.769.017 1.103.153.334.137.614.343.84.619.219.277.372.607.459.988a2.45 2.45 0 0 1-.052 1.337 2.44 2.44 0 0 1-.737 1.077 2.99 2.99 0 0 1-1.293.626c-.537.122-1.037.117-1.501-.015a2.584 2.584 0 0 1-1.189-.748 2.81 2.81 0 0 1-.683-1.33c-.156-.684-.129-1.3.082-1.847.211-.547.595-1.015 1.153-1.404.55-.387 1.257-.68 2.121-.876.7-.16 1.341-.22 1.923-.18.572.033 1.079.16 1.522.377.442.219.811.528 1.107.927.293.391.503.863.629 1.415zm-4.358.539a1.447 1.447 0 0 0-.354-.693 1.37 1.37 0 0 0-.651-.38 1.794 1.794 0 0 0-.833.006c-.304.07-.555.188-.754.356a1.29 1.29 0 0 0-.411.621 1.455 1.455 0 0 0-.019.778c.064.28.182.51.354.693a1.4 1.4 0 0 0 .639.382c.253.065.53.063.834-.006.295-.067.547-.186.754-.356a1.48 1.48 0 0 0 .422-.624c.077-.238.083-.497.019-.777zm60.511-1.81c.056.25.043.444-.039.586-.092.136-.247.228-.465.278a.796.796 0 0 1-.409-.018 2.124 2.124 0 0 1-.465-.213l-3.032-1.776c-.455-.273-.852-.453-1.191-.54a2.123 2.123 0 0 0-.986-.02c-.389.088-.656.28-.802.575-.147.287-.168.664-.062 1.131.061.265.16.52.298.767.13.249.316.489.557.72.125.12.194.242.207.37a.587.587 0 0 1-.08.35.681.681 0 0 1-.275.247.698.698 0 0 1-.377.073.703.703 0 0 1-.402-.203 3.952 3.952 0 0 1-.768-1.003 4.761 4.761 0 0 1-.462-1.22c-.135-.592-.159-1.11-.072-1.555a2.04 2.04 0 0 1 .572-1.1c.294-.288.686-.488 1.177-.6a2.96 2.96 0 0 1 .994-.054c.334.03.685.118 1.054.263.367.137.768.336 1.204.597l2.787 1.673-.397.09-.782-3.43c-.047-.21-.033-.381.043-.513.077-.132.216-.221.418-.267.202-.046.37-.027.504.057s.225.231.272.441l.979 4.294zm-1.655-7.265c.046.202.028.374-.055.515a.674.674 0 0 1-.429.27c-.203.046-.367.026-.493-.06-.127-.093-.214-.241-.26-.443l-.298-1.307-5.73 1.305-.164-.724 1.429 1.479a.7.7 0 0 1 .201.396.672.672 0 0 1-.089.364.766.766 0 0 1-.287.25.634.634 0 0 1-.379.061.695.695 0 0 1-.396-.229l-1.335-1.39a3.362 3.362 0 0 1-.34-.413 1.091 1.091 0 0 1-.203-.408.62.62 0 0 1 .047-.44c.061-.129.192-.216.394-.262l6.512-1.483-.271-1.19c-.046-.203-.031-.37.045-.502.075-.14.213-.232.415-.278.203-.046.372-.023.507.068.134.084.224.228.27.43l.909 3.99zm50.165 2.754c-.007.256-.068.442-.183.558-.123.109-.296.16-.519.154a.796.796 0 0 1-.392-.119 2.117 2.117 0 0 1-.398-.322l-2.496-2.474c-.372-.377-.712-.65-1.019-.817a2.126 2.126 0 0 0-.951-.265c-.398-.011-.705.108-.919.358-.214.241-.328.602-.341 1.08-.007.271.025.544.098.817.064.273.184.552.36.836.092.146.128.282.109.41a.585.585 0 0 1-.164.319.683.683 0 0 1-.328.17.697.697 0 0 1-.383-.022.7.7 0 0 1-.339-.297 3.97 3.97 0 0 1-.495-1.162 4.837 4.837 0 0 1-.145-1.297c.017-.606.122-1.114.317-1.524.195-.41.47-.718.827-.924.357-.206.786-.302 1.289-.288.335.009.66.074.976.194.317.112.635.285.956.517.321.224.661.516 1.018.877l2.284 2.313-.407-.011.096-3.518c.005-.215.062-.377.168-.486.107-.109.264-.16.471-.155.208.006.366.066.474.18.109.115.16.28.155.496l-.119 4.402zm.363-9c-.012.43-.08.875-.204 1.335-.124.46-.303.858-.535 1.195a.806.806 0 0 1-.368.313.657.657 0 0 1-.384.038.677.677 0 0 1-.318-.189.604.604 0 0 1-.146-.35.816.816 0 0 1 .12-.465 4.36 4.36 0 0 0 .408-.934c.08-.301.125-.611.133-.93.01-.352-.03-.648-.119-.89a1.092 1.092 0 0 0-.416-.55 1.224 1.224 0 0 0-.689-.21c-.399-.01-.698.117-.896.383-.207.258-.317.642-.331 1.152l-.021.766c-.006.223-.066.393-.181.51-.115.109-.272.16-.471.155-.2-.006-.354-.066-.462-.18-.109-.123-.16-.296-.154-.52l.017-.621a1.908 1.908 0 0 0-.123-.782 1.199 1.199 0 0 0-.417-.514 1.2 1.2 0 0 0-.665-.198c-.367-.01-.649.106-.847.349-.198.234-.303.582-.316 1.045-.008.295.02.575.085.84.057.257.173.544.348.86a.646.646 0 0 1 .096.421.536.536 0 0 1-.164.319.679.679 0 0 1-.316.171.63.63 0 0 1-.382-.034.69.69 0 0 1-.339-.309 3.967 3.967 0 0 1-.472-1.15 4.607 4.607 0 0 1-.144-1.285c.015-.582.121-1.078.315-1.488.187-.41.451-.718.791-.924.333-.215.735-.316 1.206-.303.335.009.64.081.916.216a1.986 1.986 0 0 1 1.063 1.406l-.143-.004c.111-.572.362-1.012.754-1.32.383-.31.858-.456 1.425-.44.494.012.921.148 1.282.405.36.257.633.616.821 1.076.179.46.26 1.005.243 1.635zm64.668 7.86c-.014.255-.08.439-.199.552-.125.105-.3.151-.523.139a.795.795 0 0 1-.388-.13 2.117 2.117 0 0 1-.389-.333l-2.424-2.544c-.362-.388-.694-.67-.996-.846a2.12 2.12 0 0 0-.942-.293c-.399-.022-.709.089-.93.332-.221.236-.344.592-.371 1.07-.015.271.01.544.074.82.057.274.169.556.337.845.088.15.12.287.097.413a.593.593 0 0 1-.173.314.685.685 0 0 1-.333.162.696.696 0 0 1-.382-.034.694.694 0 0 1-.33-.306 3.974 3.974 0 0 1-.462-1.176 4.791 4.791 0 0 1-.108-1.3c.034-.606.154-1.11.36-1.515.206-.404.491-.704.853-.9.363-.195.795-.279 1.297-.25.334.018.658.092.97.22.313.122.627.303.941.545.315.233.645.535.992.906l2.218 2.377-.407-.023.196-3.513c.012-.215.072-.376.182-.482.11-.105.268-.152.476-.14.207.01.363.075.468.193.106.118.152.284.14.5l-.244 4.397zm.633-9.226c-.024.422-.104.85-.239 1.281a4.2 4.2 0 0 1-.581 1.178.776.776 0 0 1-.352.293.756.756 0 0 1-.397.013.686.686 0 0 1-.324-.197.566.566 0 0 1-.149-.344.748.748 0 0 1 .132-.436c.184-.286.328-.578.432-.875a3.45 3.45 0 0 0 .186-.961c.018-.335-.025-.625-.132-.87a1.293 1.293 0 0 0-.471-.578 1.45 1.45 0 0 0-.742-.233c-.446-.025-.812.09-1.098.346-.294.256-.454.619-.48 1.089a2.15 2.15 0 0 0 .09.748c.066.243.197.486.391.729.06.075.118.17.176.285a.8.8 0 0 1 .064.363c-.012.2-.072.348-.181.446-.109.098-.256.141-.439.131l-3.907-.217c-.216-.012-.376-.077-.481-.195-.113-.126-.163-.296-.151-.511l.218-3.932c.012-.215.077-.375.195-.48.11-.114.269-.165.476-.154.199.011.351.08.456.205.105.118.152.284.14.5l-.173 3.106 2.677.15-.022.394a2.034 2.034 0 0 1-.6-.86 2.75 2.75 0 0 1-.164-1.137c.03-.533.171-.99.423-1.367a2.29 2.29 0 0 1 .996-.867c.41-.201.883-.287 1.416-.257.55.03 1.029.181 1.438.451.4.27.707.643.92 1.118.206.467.292 1.016.257 1.645zm71.339 9.354c-.008.255-.069.441-.184.558-.123.108-.296.159-.52.152a.793.793 0 0 1-.391-.12 2.126 2.126 0 0 1-.398-.323l-2.489-2.48c-.372-.378-.711-.651-1.017-.82a2.124 2.124 0 0 0-.95-.268c-.399-.012-.706.107-.921.356-.214.241-.329.601-.343 1.08-.008.27.024.543.096.817.063.273.183.552.358.836a.601.601 0 0 1 .108.41.592.592 0 0 1-.165.319.684.684 0 0 1-.329.17.693.693 0 0 1-.382-.023.703.703 0 0 1-.339-.298 3.974 3.974 0 0 1-.492-1.164 4.795 4.795 0 0 1-.141-1.297c.018-.606.125-1.114.32-1.523.196-.41.473-.717.83-.922.357-.205.787-.3 1.289-.285.335.01.661.076.976.197.316.113.635.286.955.519.321.225.659.518 1.016.88l2.278 2.319-.407-.013.104-3.517c.006-.215.063-.377.17-.486.107-.108.264-.16.472-.153.207.006.365.067.473.181.109.116.16.28.153.496l-.13 4.402zm.322-7.636a.755.755 0 0 1-.145.45.524.524 0 0 1-.354.205c-.152.02-.318-.021-.499-.122l-6.688-3.814.526.015-.114 3.876c-.007.216-.067.382-.183.498-.115.108-.272.16-.471.154-.208-.007-.365-.067-.474-.182-.108-.123-.159-.292-.152-.508l.137-4.63a.798.798 0 0 1 .183-.52c.115-.133.277-.196.484-.19a1.4 1.4 0 0 1 .465.086c.126.051.264.12.413.203l6.395 3.59a.864.864 0 0 1 .373.359c.075.137.11.314.104.53zm78.714 9.459c-.016.255-.084.438-.204.55-.126.104-.301.148-.524.134a.797.797 0 0 1-.387-.134 2.136 2.136 0 0 1-.386-.337l-2.398-2.568c-.358-.392-.687-.677-.987-.857a2.123 2.123 0 0 0-.94-.301c-.398-.026-.709.081-.933.322-.223.234-.35.59-.381 1.067-.018.27.004.544.066.82.054.275.163.558.328.849.086.15.117.287.093.414a.587.587 0 0 1-.177.312.68.68 0 0 1-.334.158.692.692 0 0 1-.381-.037.696.696 0 0 1-.328-.31 3.994 3.994 0 0 1-.45-1.18 4.828 4.828 0 0 1-.095-1.302c.04-.605.165-1.109.375-1.51.211-.403.498-.7.862-.891.365-.192.798-.272 1.299-.24.335.023.658.1.969.232.311.125.623.31.935.554.312.236.64.541.983.916l2.194 2.398-.406-.026.23-3.511c.014-.215.077-.375.188-.48.11-.104.269-.15.476-.136.207.013.363.08.467.198.104.12.149.286.135.5l-.289 4.396zm.678-8.49a3.953 3.953 0 0 1-.225 1.052c-.136.359-.321.69-.557.995a.56.56 0 0 1-.327.23.742.742 0 0 1-.372 0 .734.734 0 0 1-.311-.189.514.514 0 0 1-.147-.333c-.015-.129.026-.266.123-.412a3.09 3.09 0 0 0 .385-.742c.079-.235.127-.471.143-.71.03-.462-.052-.86-.246-1.192-.194-.332-.501-.592-.92-.78-.427-.196-.959-.315-1.596-.357l-.896-.058.01-.144c.394.082.732.236 1.013.463.281.226.49.504.629.833.13.328.182.687.157 1.077-.031.478-.175.9-.431 1.267-.256.36-.593.633-1.014.821a2.99 2.99 0 0 1-1.418.231c-.549-.036-1.027-.183-1.434-.442a2.578 2.578 0 0 1-.926-1.056c-.22-.438-.311-.928-.276-1.47.046-.7.248-1.283.607-1.747.358-.464.86-.803 1.506-1.016.637-.214 1.398-.292 2.282-.234.716.047 1.348.172 1.894.376.539.195.99.46 1.351.796.362.336.628.737.797 1.204.17.459.236.97.199 1.536zm-4.33-.729a1.452 1.452 0 0 0-.142-.765 1.364 1.364 0 0 0-.516-.55 1.791 1.791 0 0 0-.8-.232 1.75 1.75 0 0 0-.824.126 1.293 1.293 0 0 0-.571.478 1.458 1.458 0 0 0-.24.74 1.45 1.45 0 0 0 .141.765c.114.223.282.406.504.549.223.134.49.212.8.232.303.02.578-.022.824-.126.24-.112.434-.271.583-.477a1.45 1.45 0 0 0 .241-.74zm62.874 8.431c-.025.43-.107.873-.246 1.329-.139.455-.33.848-.573 1.177a.808.808 0 0 1-.377.301.659.659 0 0 1-.386.026.686.686 0 0 1-.312-.199.597.597 0 0 1-.134-.355.811.811 0 0 1 .134-.46 4.3 4.3 0 0 0 .438-.921c.09-.299.144-.607.163-.926.02-.35-.01-.648-.092-.892a1.084 1.084 0 0 0-.398-.563 1.224 1.224 0 0 0-.682-.232c-.398-.024-.701.094-.908.354-.214.251-.337.632-.367 1.141l-.045.765c-.013.223-.079.39-.197.504-.118.105-.277.151-.476.14-.199-.012-.351-.077-.456-.195-.105-.126-.15-.3-.137-.524l.036-.62a1.903 1.903 0 0 0-.097-.786 1.214 1.214 0 0 0-.401-.527 1.197 1.197 0 0 0-.658-.219c-.367-.021-.653.086-.858.322-.206.227-.322.572-.349 1.034-.017.295.002.576.058.843.049.258.156.548.321.87.079.148.106.29.083.424a.541.541 0 0 1-.175.314.683.683 0 0 1-.321.16.632.632 0 0 1-.381-.046.69.69 0 0 1-.329-.319 3.943 3.943 0 0 1-.435-1.164 4.63 4.63 0 0 1-.104-1.29c.035-.58.155-1.073.363-1.477.2-.404.473-.703.82-.898.34-.204.745-.292 1.215-.265.334.02.637.102.908.246.264.143.484.336.662.578.177.242.296.529.357.86l-.144-.008c.13-.568.395-1 .796-1.296.393-.297.872-.428 1.438-.395.494.03.917.178 1.268.446.352.269.614.636.787 1.102.164.465.228 1.012.191 1.641zm.211-5.617c-.013.207-.078.367-.196.48a.674.674 0 0 1-.488.139c-.207-.012-.359-.077-.456-.195-.097-.125-.139-.292-.127-.499l.079-1.338-5.866-.345.043-.741.96 1.819a.692.692 0 0 1 .082.436.667.667 0 0 1-.186.325.763.763 0 0 1-.346.16.628.628 0 0 1-.38-.047.695.695 0 0 1-.317-.33l-.894-1.707a3.233 3.233 0 0 1-.211-.492 1.093 1.093 0 0 1-.082-.449.622.622 0 0 1 .168-.41c.095-.106.245-.153.452-.14l6.667.392.072-1.219c.012-.207.073-.363.183-.469.111-.113.27-.164.477-.151.207.012.363.08.467.207.105.118.151.28.139.488l-.24 4.086zm53.037 8.032a5.694 5.694 0 0 1-.418 1.285 3.834 3.834 0 0 1-.722 1.092.807.807 0 0 1-.413.25.656.656 0 0 1-.385-.026.681.681 0 0 1-.284-.237.605.605 0 0 1-.087-.37.809.809 0 0 1 .194-.439 4.38 4.38 0 0 0 .555-.856c.127-.284.221-.583.282-.896.066-.345.075-.644.026-.897a1.09 1.09 0 0 0-.321-.61 1.222 1.222 0 0 0-.646-.32c-.391-.075-.707.003-.946.233-.246.22-.417.582-.513 1.083l-.145.753c-.042.219-.13.377-.262.473-.131.089-.294.114-.49.077-.196-.038-.338-.122-.427-.253-.087-.139-.109-.318-.067-.537l.118-.611c.057-.298.059-.562.006-.791a1.217 1.217 0 0 0-.329-.575 1.196 1.196 0 0 0-.624-.303c-.36-.07-.658 0-.893.206-.233.199-.393.525-.481.98-.055.29-.073.57-.052.843.014.263.082.564.204.904a.645.645 0 0 1 .026.432.538.538 0 0 1-.214.288.678.678 0 0 1-.339.117.634.634 0 0 1-.372-.095.685.685 0 0 1-.284-.36 3.987 3.987 0 0 1-.279-1.211 4.6 4.6 0 0 1 .066-1.292c.11-.572.294-1.044.553-1.417.251-.374.561-.635.931-.784.363-.157.776-.191 1.238-.102.329.063.619.183.869.362a1.979 1.979 0 0 1 .821 1.56l-.141-.028c.203-.546.522-.94.959-1.18.428-.243.921-.31 1.477-.204.486.094.885.297 1.199.609.314.312.526.71.636 1.195.102.482.093 1.033-.026 1.652zm1.356-7.047a5.694 5.694 0 0 1-.418 1.285 3.855 3.855 0 0 1-.722 1.092.806.806 0 0 1-.413.25.66.66 0 0 1-.386-.026.684.684 0 0 1-.283-.237.605.605 0 0 1-.087-.37.809.809 0 0 1 .194-.439 4.38 4.38 0 0 0 .555-.856c.127-.284.221-.583.282-.896.066-.345.075-.644.026-.897a1.09 1.09 0 0 0-.321-.61 1.222 1.222 0 0 0-.646-.32c-.392-.075-.707.003-.946.233-.246.22-.417.582-.514 1.083l-.144.753c-.042.219-.13.377-.262.473-.131.089-.294.114-.49.077-.196-.038-.338-.122-.427-.253-.087-.139-.109-.318-.067-.537l.118-.611c.057-.298.059-.562.006-.791a1.216 1.216 0 0 0-.329-.575 1.196 1.196 0 0 0-.624-.303c-.36-.07-.658 0-.893.206-.233.199-.393.525-.481.98-.055.29-.073.57-.052.843.014.262.082.564.204.904a.645.645 0 0 1 .026.432.538.538 0 0 1-.214.288.678.678 0 0 1-.339.117.632.632 0 0 1-.372-.096.685.685 0 0 1-.284-.359 3.959 3.959 0 0 1-.279-1.211 4.6 4.6 0 0 1 .066-1.292c.11-.572.294-1.044.553-1.417.251-.374.561-.635.931-.784.363-.157.776-.192 1.238-.102.329.063.619.184.869.362a1.979 1.979 0 0 1 .821 1.56l-.141-.028c.203-.546.522-.94.959-1.18.428-.243.921-.31 1.477-.204.486.094.885.297 1.199.609.314.312.526.71.636 1.195.102.482.093 1.033-.026 1.652zm72.986 33.31c-.155.403-.367.8-.638 1.191-.27.392-.571.708-.903.948a.806.806 0 0 1-.451.172.657.657 0 0 1-.375-.092.675.675 0 0 1-.237-.284.607.607 0 0 1-.02-.38.808.808 0 0 1 .268-.397 4.36 4.36 0 0 0 .697-.745c.176-.257.321-.534.435-.832.127-.328.188-.62.185-.878a1.09 1.09 0 0 0-.209-.658 1.225 1.225 0 0 0-.579-.428c-.373-.143-.697-.122-.973.062-.281.174-.513.5-.696.976l-.275.715c-.08.208-.194.348-.341.42-.145.064-.31.06-.496-.011-.186-.072-.312-.18-.376-.324-.061-.152-.051-.332.029-.54l.223-.582c.109-.283.158-.542.146-.777a1.22 1.22 0 0 0-.222-.624 1.198 1.198 0 0 0-.561-.408c-.342-.132-.648-.117-.915.045-.265.155-.48.448-.646.88a3.189 3.189 0 0 0-.201.82 3.3 3.3 0 0 0 .041.927.643.643 0 0 1-.05.43.532.532 0 0 1-.261.245.68.68 0 0 1-.355.056.633.633 0 0 1-.349-.16.688.688 0 0 1-.216-.404 3.951 3.951 0 0 1-.061-1.242c.037-.43.135-.85.293-1.26.209-.543.473-.975.794-1.297.313-.324.664-.526 1.054-.607.386-.09.798-.052 1.238.117.312.12.576.29.791.51a1.986 1.986 0 0 1 .533 1.68l-.134-.052c.296-.501.68-.832 1.152-.993.464-.163.961-.143 1.49.06.461.178.819.448 1.073.811.253.363.392.792.415 1.288.015.493-.091 1.034-.317 1.622zm2.663-6.92a5.224 5.224 0 0 1-.62 1.146c-.262.37-.567.684-.915.943a.772.772 0 0 1-.424.17.756.756 0 0 1-.382-.108.68.68 0 0 1-.248-.288.562.562 0 0 1-.036-.373.739.739 0 0 1 .26-.375c.262-.215.489-.448.679-.7a3.45 3.45 0 0 0 .471-.857c.121-.313.168-.603.142-.869a1.291 1.291 0 0 0-.271-.694 1.451 1.451 0 0 0-.635-.45c-.417-.16-.801-.163-1.151-.007-.358.153-.622.449-.791.888-.092.239-.14.485-.144.74-.011.252.038.523.149.814.034.09.06.198.08.326a.79.79 0 0 1-.051.365c-.072.186-.175.309-.309.368-.134.06-.286.057-.458-.01l-3.652-1.405c-.201-.077-.334-.188-.398-.332-.069-.155-.064-.333.013-.534l1.414-3.675c.078-.2.188-.333.333-.398.14-.074.306-.074.5 0 .186.072.31.184.371.336.064.144.058.317-.02.518l-1.117 2.904 2.502.963-.142.368a2.023 2.023 0 0 1-.307-1.002 2.759 2.759 0 0 1 .192-1.132c.192-.499.466-.89.823-1.171a2.284 2.284 0 0 1 1.213-.52c.453-.066.928-.002 1.427.19.514.197.924.487 1.23.87.298.38.476.829.533 1.347.053.507-.034 1.055-.261 1.644zm140.179 232.15c.014.43-.028.879-.126 1.345a3.842 3.842 0 0 1-.465 1.224.807.807 0 0 1-.348.334.651.651 0 0 1-.382.059.68.68 0 0 1-.328-.169.609.609 0 0 1-.167-.342.814.814 0 0 1 .094-.47c.165-.332.283-.651.353-.957.062-.305.089-.617.079-.936-.011-.351-.068-.645-.171-.881a1.091 1.091 0 0 0-.448-.525 1.22 1.22 0 0 0-.699-.17c-.399.013-.69.157-.873.434-.191.27-.279.66-.263 1.17l.024.766c.007.223-.044.396-.152.519-.108.115-.262.176-.461.182-.199.006-.357-.045-.472-.153-.115-.116-.176-.286-.183-.509l-.02-.622a1.906 1.906 0 0 0-.167-.773 1.212 1.212 0 0 0-.447-.489 1.2 1.2 0 0 0-.675-.159c-.367.012-.642.144-.826.397-.184.245-.269.599-.254 1.062.009.295.053.573.133.834.072.253.205.532.398.837a.65.65 0 0 1 .12.416.54.54 0 0 1-.145.328.688.688 0 0 1-.306.189.628.628 0 0 1-.383-.012.686.686 0 0 1-.356-.289 3.934 3.934 0 0 1-.538-1.12 4.558 4.558 0 0 1-.219-1.275c-.018-.582.058-1.083.228-1.504.163-.42.408-.743.737-.968.32-.234.715-.358 1.185-.373.335-.01.644.044.928.163.275.119.511.292.71.517.199.225.343.5.433.825l-.144.004c.078-.577.303-1.031.676-1.362.365-.331.831-.505 1.397-.522.495-.016.929.095 1.304.33.374.236.668.578.882 1.027.205.448.318.988.337 1.618zm-.204-5.809a.746.746 0 0 1-.118.459.522.522 0 0 1-.34.226c-.151.029-.319-.002-.506-.092l-6.906-3.402.526-.016.12 3.876c.007.215-.044.384-.152.508-.108.115-.262.175-.461.182-.207.006-.369-.045-.484-.153-.115-.116-.176-.282-.183-.497l-.144-4.63a.801.801 0 0 1 .152-.531c.107-.139.264-.212.472-.219.175-.005.331.014.469.058.129.044.27.103.424.178l6.601 3.196a.86.86 0 0 1 .394.335c.084.133.129.307.136.522zm-14.942 95.842c-.133.41-.323.818-.571 1.224a3.836 3.836 0 0 1-.849.997.796.796 0 0 1-.441.197.657.657 0 0 1-.379-.071.679.679 0 0 1-.252-.27.601.601 0 0 1-.042-.378.817.817 0 0 1 .246-.412c.267-.257.485-.518.654-.782.161-.267.291-.552.388-.856.108-.334.153-.63.135-.887a1.088 1.088 0 0 0-.245-.645 1.23 1.23 0 0 0-.602-.395c-.38-.122-.702-.083-.968.116-.27.19-.484.528-.64 1.014l-.235.729c-.069.212-.174.359-.317.438-.141.072-.306.078-.496.017s-.321-.162-.393-.303c-.069-.148-.07-.328-.002-.541l.191-.592c.093-.289.127-.551.102-.785a1.21 1.21 0 0 0-.256-.61 1.2 1.2 0 0 0-.583-.377c-.35-.112-.653-.08-.911.097-.256.169-.455.474-.597.914a3.22 3.22 0 0 0-.154.831c-.017.262.014.57.093.922a.652.652 0 0 1-.026.432.539.539 0 0 1-.247.26.68.68 0 0 1-.351.075.619.619 0 0 1-.357-.14.683.683 0 0 1-.239-.391 3.93 3.93 0 0 1-.13-1.236c.013-.432.087-.857.221-1.274.179-.555.419-1.001.721-1.34.294-.341.634-.563 1.019-.665.38-.113.794-.097 1.242.048.319.102.592.257.818.464.219.205.385.447.496.726.111.279.155.586.131.922l-.137-.044c.267-.518.632-.87 1.094-1.056.455-.189.952-.197 1.491-.023.471.152.843.401 1.117.749.273.348.435.769.486 1.263.043.492-.032 1.038-.225 1.638zm2.048-6.364a3.91 3.91 0 0 1-.474.966c-.219.315-.48.592-.783.829a.55.55 0 0 1-.373.144.729.729 0 0 1-.36-.091.738.738 0 0 1-.257-.258.513.513 0 0 1-.06-.359c.016-.129.089-.252.219-.369.236-.21.42-.419.554-.627.134-.208.238-.426.311-.654.142-.441.16-.846.052-1.216-.107-.369-.341-.696-.702-.98-.367-.294-.854-.539-1.461-.735l-.855-.275.044-.136c.363.175.653.407.87.695.218.288.354.608.408.961.046.35.009.711-.11 1.083a2.446 2.446 0 0 1-.727 1.124 2.447 2.447 0 0 1-1.183.55 2.992 2.992 0 0 1-1.432-.122c-.524-.168-.951-.428-1.283-.778a2.58 2.58 0 0 1-.641-1.25 2.815 2.815 0 0 1 .09-1.492c.216-.668.553-1.184 1.014-1.547.461-.363 1.03-.569 1.708-.619.671-.052 1.428.057 2.271.329.683.22 1.265.495 1.746.826.475.32.847.687 1.116 1.101.269.414.429.867.48 1.361.052.487-.008 1-.182 1.539zm-4.022-1.76a1.46 1.46 0 0 0 .049-.777 1.364 1.364 0 0 0-.367-.658 1.79 1.79 0 0 0-.719-.421 1.754 1.754 0 0 0-.83-.078c-.257.043-.48.151-.67.325a1.44 1.44 0 0 0-.414.659 1.444 1.444 0 0 0-.048.776c.055.244.173.462.355.655.183.185.423.325.719.42.289.093.565.119.83.079.259-.051.487-.158.682-.321.187-.166.325-.386.413-.659zm-45.136 88.934c-.152.184-.321.288-.505.312-.191.018-.382-.051-.573-.209l-.72-.594-1.881 2.281c-.158.191-.324.311-.501.362-.171.045-.343-.003-.516-.146a1.096 1.096 0 0 1-.262-.34 4.32 4.32 0 0 1-.225-.667l-1.579-5.553a1.31 1.31 0 0 1-.059-.53.836.836 0 0 1 .195-.444.719.719 0 0 1 .475-.275c.179-.029.37.041.573.209l3.776 3.114.373-.452c.147-.179.3-.275.457-.291.156-.026.314.027.474.159.16.132.245.28.255.443.009.152-.06.318-.207.496l-.373.453.72.594c.191.157.295.331.313.522.013.186-.057.371-.21.556zm-2.777-1.298l-2.88-2.376.22-.268 1.398 4.814-.314-.259 1.576-1.911zm5.313-1.926c-.132.16-.28.25-.442.272a.675.675 0 0 1-.476-.176c-.16-.132-.244-.274-.253-.426-.004-.158.06-.318.192-.478l.853-1.034-4.533-3.739.472-.572-.298 2.035a.701.701 0 0 1-.191.401.673.673 0 0 1-.343.152.774.774 0 0 1-.372-.075.635.635 0 0 1-.281-.262.698.698 0 0 1-.06-.454l.285-1.906c.027-.184.067-.358.119-.521a1.11 1.11 0 0 1 .199-.411.623.623 0 0 1 .377-.231c.139-.031.289.02.449.152l5.152 4.25.776-.942c.132-.16.274-.25.425-.27.156-.027.314.026.474.158.16.132.245.28.255.443.015.157-.043.316-.175.476l-2.604 3.158zm-76.775 60.593c-.2.132-.392.181-.576.149-.187-.039-.349-.162-.485-.369l-.512-.781-2.472 1.622c-.206.136-.402.202-.585.198-.177-.008-.327-.105-.45-.292a1.093 1.093 0 0 1-.149-.403 4.311 4.311 0 0 1-.018-.703l.135-5.772a1.33 1.33 0 0 1 .1-.524.834.834 0 0 1 .318-.366.723.723 0 0 1 .536-.122c.179.026.34.149.485.369l2.685 4.092.49-.321c.194-.127.368-.175.523-.143.157.022.292.119.406.292.114.174.151.34.112.499-.036.148-.151.285-.345.412l-.49.322.512.781c.136.206.184.404.145.592-.043.181-.165.337-.365.468zm-2.269-2.061l-2.048-3.122.29-.191-.09 5.012-.223-.34 2.071-1.359zm7.011-1.022c-.36.237-.764.435-1.212.596-.449.16-.877.241-1.287.242a.809.809 0 0 1-.467-.122.661.661 0 0 1-.25-.294.679.679 0 0 1-.027-.369.605.605 0 0 1 .205-.321.816.816 0 0 1 .449-.166 4.31 4.31 0 0 0 1.001-.198c.292-.106.572-.247.839-.422.294-.193.514-.395.662-.606a1.09 1.09 0 0 0 .214-.656 1.219 1.219 0 0 0-.221-.685c-.219-.334-.494-.506-.826-.517-.33-.023-.708.106-1.135.386l-.64.42c-.187.123-.361.17-.522.143-.155-.032-.287-.132-.396-.299-.11-.166-.149-.327-.116-.482.038-.159.151-.3.338-.422l.52-.342c.254-.166.444-.348.572-.546a1.22 1.22 0 0 0 .184-.636 1.198 1.198 0 0 0-.218-.659c-.201-.307-.458-.473-.769-.497-.306-.029-.652.083-1.039.337-.246.162-.46.346-.641.55a3.298 3.298 0 0 0-.507.776.647.647 0 0 1-.291.32.533.533 0 0 1-.356.047.68.68 0 0 1-.32-.161.636.636 0 0 1-.191-.334.69.69 0 0 1 .06-.454c.165-.375.39-.723.675-1.044.281-.328.605-.612.972-.853.487-.319.955-.516 1.402-.59.443-.081.847-.04 1.211.122.366.151.678.423.937.816.183.281.299.573.345.876.042.297.019.589-.069.876a2.063 2.063 0 0 1-.478.8l-.078-.12c.532-.235 1.037-.28 1.514-.135.473.138.864.444 1.175.918.272.413.405.842.399 1.284-.005.443-.144.872-.414 1.288-.276.41-.677.788-1.204 1.133zm-64.101 31.163c.053.233.032.43-.062.591-.102.162-.274.271-.515.326l-.91.207.656 2.882c.055.241.049.447-.019.618-.069.163-.212.27-.43.319a1.07 1.07 0 0 1-.43 0 4.275 4.275 0 0 1-.666-.229l-5.361-2.142a1.32 1.32 0 0 1-.456-.277.847.847 0 0 1-.232-.426.723.723 0 0 1 .073-.544c.086-.159.258-.268.515-.326l4.773-1.087-.131-.572c-.051-.225-.035-.405.049-.539.075-.14.213-.232.416-.279.202-.046.371-.023.506.069.126.086.215.242.266.467l.131.572.91-.207c.241-.055.443-.031.605.071.155.104.259.272.312.506zm-2.724 1.406l-3.641.829-.077-.339 4.665 1.835-.397.09-.55-2.415zm1.13-8.403c.053.233.033.43-.062.591-.102.162-.274.271-.515.326l-.91.207.657 2.882c.054.241.048.447-.019.618-.069.163-.213.27-.431.319a1.087 1.087 0 0 1-.43 0 4.306 4.306 0 0 1-.665-.229l-5.361-2.142a1.301 1.301 0 0 1-.456-.277.84.84 0 0 1-.232-.426.722.722 0 0 1 .072-.544c.087-.159.258-.268.515-.326l4.773-1.087-.13-.572c-.052-.226-.035-.405.049-.539.074-.14.213-.233.415-.279.202-.046.371-.023.507.069.126.086.214.242.266.467l.13.572.91-.207c.241-.055.443-.031.605.071.155.104.259.272.312.506zm-2.724 1.406l-3.641.829-.077-.339 4.665 1.835-.397.09-.55-2.415zm10.318-52.409c.053.233.032.43-.062.591-.102.162-.274.271-.515.326l-.91.207.656 2.882c.055.241.049.447-.019.618-.069.163-.212.27-.43.319a1.07 1.07 0 0 1-.43 0 4.275 4.275 0 0 1-.666-.229l-5.361-2.142a1.32 1.32 0 0 1-.456-.277.847.847 0 0 1-.232-.426.723.723 0 0 1 .073-.544c.086-.159.258-.268.515-.326l4.773-1.087-.131-.572c-.051-.225-.035-.405.049-.539.075-.14.213-.232.416-.279.202-.046.371-.023.506.069.126.086.215.242.266.467l.131.572.91-.207c.241-.055.443-.031.605.071.155.104.259.272.312.506zm-2.724 1.406l-3.641.829-.077-.339 4.665 1.835-.397.09-.55-2.415zm1.385-7.393c.154.676.126 1.292-.083 1.847-.218.549-.603 1.017-1.153 1.404-.55.388-1.257.679-2.12.876-.701.16-1.337.223-1.909.189-.582-.039-1.094-.168-1.536-.386a3.048 3.048 0 0 1-1.105-.915 3.787 3.787 0 0 1-.632-1.427 3.577 3.577 0 0 1-.073-1.076c.02-.381.099-.751.238-1.11a.56.56 0 0 1 .248-.314.703.703 0 0 1 .371-.097.67.67 0 0 1 .352.092.538.538 0 0 1 .232.266.674.674 0 0 1-.012.433c-.095.3-.147.573-.156.821-.009.247.013.488.066.721.103.452.294.809.575 1.072.281.263.65.429 1.108.497.455.06.998.018 1.628-.126l.875-.199.032.14a2.469 2.469 0 0 1-1.103-.154 2.01 2.01 0 0 1-.829-.621 2.342 2.342 0 0 1-.469-.986 2.405 2.405 0 0 1 .051-1.337c.142-.417.388-.776.737-1.076.349-.301.78-.509 1.293-.626a2.949 2.949 0 0 1 1.504.026c.463.131.863.376 1.198.733.325.352.549.796.672 1.333zm-1.172.352a1.45 1.45 0 0 0-.354-.692 1.29 1.29 0 0 0-.64-.383 1.805 1.805 0 0 0-.833.006 1.752 1.752 0 0 0-.754.356 1.29 1.29 0 0 0-.411.621 1.39 1.39 0 0 0-.03.781c.063.28.185.51.365.69.173.181.386.309.64.382.252.065.53.063.833-.006a1.79 1.79 0 0 0 .754-.356c.197-.175.334-.383.411-.621.076-.238.083-.498.019-.778zm56.066-30.011c-.177.161-.359.24-.545.237-.192-.009-.371-.105-.537-.287l-.629-.691-2.185 1.991c-.183.166-.366.262-.548.288-.176.02-.339-.053-.489-.218a1.086 1.086 0 0 1-.212-.374 4.345 4.345 0 0 1-.128-.692l-.775-5.721a1.321 1.321 0 0 1 .016-.533.847.847 0 0 1 .257-.412.719.719 0 0 1 .509-.205c.181-.003.36.093.538.288l3.296 3.619.433-.395c.171-.156.336-.23.493-.223.159-.003.308.071.447.225.14.153.203.311.19.474-.013.152-.105.306-.276.462l-.433.395.628.69c.167.183.246.37.237.562-.015.186-.11.359-.287.52zm-2.565-1.679l-2.514-2.76.256-.234.7 4.963-.274-.3 1.832-1.669zm6.94-2.273a5.227 5.227 0 0 1-1.069.747 4.203 4.203 0 0 1-1.24.433.783.783 0 0 1-.456-.038.759.759 0 0 1-.292-.268.681.681 0 0 1-.093-.369.556.556 0 0 1 .135-.349.744.744 0 0 1 .4-.219c.331-.075.638-.182.921-.321.284-.139.552-.324.806-.555a1.92 1.92 0 0 0 .516-.713c.096-.25.119-.498.068-.743a1.438 1.438 0 0 0-.366-.686c-.3-.33-.643-.505-1.026-.523-.388-.023-.757.123-1.105.44a2.14 2.14 0 0 0-.46.597c-.123.22-.2.485-.232.794-.01.096-.035.205-.074.327a.794.794 0 0 1-.209.304c-.148.134-.295.198-.441.191-.147-.007-.282-.078-.405-.214l-2.636-2.893c-.145-.159-.214-.318-.206-.476.008-.169.091-.326.251-.471l2.911-2.651c.159-.145.318-.214.475-.207.159-.004.308.071.447.224.135.148.195.303.182.466-.007.158-.091.31-.25.455l-2.301 2.095 1.806 1.982-.292.266a2.017 2.017 0 0 1 .175-1.034c.151-.343.378-.652.679-.926.395-.36.815-.586 1.26-.678a2.29 2.29 0 0 1 1.318.079c.433.144.83.414 1.19.809.371.407.607.85.709 1.33.097.473.054.954-.127 1.442-.18.478-.503.929-.969 1.353zm43.22-50.529c-.108.214-.249.353-.424.417-.182.06-.383.035-.604-.076l-.835-.419-1.326 2.642c-.111.221-.247.376-.407.465-.157.082-.336.073-.535-.028a1.076 1.076 0 0 1-.332-.273 4.277 4.277 0 0 1-.368-.6l-2.776-5.062a1.331 1.331 0 0 1-.176-.504.844.844 0 0 1 .092-.476.722.722 0 0 1 .402-.374c.168-.067.369-.042.605.076l4.375 2.196.263-.524c.103-.207.23-.336.38-.385.147-.061.313-.044.498.049s.301.218.347.375c.043.146.012.323-.091.53l-.264.524.835.418c.221.111.362.258.422.44.053.179.026.375-.081.589zm-2.997-.647l-3.337-1.675.156-.31 2.434 4.382-.364-.183 1.111-2.214zm4.627-2.815c-.114.228-.249.371-.402.428-.157.046-.335.019-.535-.082a.795.795 0 0 1-.305-.273 2.131 2.131 0 0 1-.224-.461l-1.21-3.298c-.178-.5-.37-.891-.576-1.174a2.128 2.128 0 0 0-.749-.643c-.356-.179-.684-.201-.984-.066-.297.128-.552.406-.767.834a2.857 2.857 0 0 0-.258.781 2.812 2.812 0 0 0-.028.91c.021.171-.004.31-.076.417a.58.58 0 0 1-.284.219.699.699 0 0 1-.706-.167.694.694 0 0 1-.181-.412 3.993 3.993 0 0 1 .044-1.263c.087-.439.226-.851.42-1.236.272-.542.583-.957.933-1.245.35-.289.73-.451 1.141-.486.41-.035.84.06 1.289.286.3.15.567.347.802.59.239.236.454.527.646.873.196.339.379.748.55 1.227l1.087 3.063-.364-.183 1.579-3.144c.096-.193.216-.316.359-.369.143-.054.307-.034.492.059.186.093.303.215.353.365.05.15.026.321-.07.514l-1.976 3.936zm18.955-54.42c-.029.237-.116.415-.259.534-.152.118-.35.162-.596.131l-.926-.115-.365 2.934c-.03.245-.106.437-.228.574-.12.13-.292.181-.513.154a1.09 1.09 0 0 1-.404-.147 4.26 4.26 0 0 1-.548-.442l-4.311-3.84a1.314 1.314 0 0 1-.334-.416.83.83 0 0 1-.073-.479.718.718 0 0 1 .253-.487c.136-.12.334-.164.595-.131l4.858.603.072-.582c.029-.229.106-.393.23-.49.118-.106.28-.146.486-.12.205.025.356.104.452.237.09.124.12.3.091.53l-.072.582.926.115c.246.03.428.121.545.273.11.15.151.344.121.582zm-3.04.394l-3.705-.461.042-.344 3.761 3.313-.403-.05.305-2.458zm3.782-6.171c-.123.99-.589 1.7-1.398 2.13-.817.429-1.919.557-3.304.385-.935-.116-1.704-.328-2.309-.637-.612-.317-1.052-.721-1.321-1.213-.267-.5-.36-1.078-.279-1.735.125-.998.583-1.709 1.375-2.133.794-.432 1.887-.561 3.281-.388.926.115 1.699.332 2.319.65.613.309 1.061.711 1.346 1.204.276.493.373 1.072.29 1.737zm-1.247-.155c.067-.538-.133-.965-.6-1.281-.467-.323-1.231-.55-2.292-.682-1.061-.132-1.845-.097-2.352.105-.515.194-.806.559-.872 1.098-.066.53.126.956.576 1.278.443.32 1.195.546 2.256.678 1.061.132 1.857.098 2.388-.101.532-.199.83-.564.896-1.095zM660.443 129.252a5.744 5.744 0 0 1-.327 1.311 3.864 3.864 0 0 1-.644 1.139.807.807 0 0 1-.396.278.659.659 0 0 1-.386.002.687.687 0 0 1-.299-.217.607.607 0 0 1-.113-.364.82.82 0 0 1 .163-.45 4.35 4.35 0 0 0 .494-.893c.108-.292.181-.597.219-.914.042-.348.03-.647-.036-.896a1.098 1.098 0 0 0-.363-.587 1.232 1.232 0 0 0-.667-.273c-.396-.048-.705.051-.928.298-.229.237-.375.609-.436 1.116l-.092.761c-.027.221-.103.385-.228.49-.124.098-.286.135-.484.111-.198-.024-.345-.098-.443-.223-.096-.132-.131-.309-.104-.531l.074-.617c.037-.301.02-.565-.049-.79a1.22 1.22 0 0 0-.367-.551 1.197 1.197 0 0 0-.644-.258c-.365-.044-.657.045-.876.267-.219.215-.356.552-.412 1.011-.035.294-.033.575.006.845.033.261.122.557.267.888a.65.65 0 0 1 .056.429.532.532 0 0 1-.193.302.677.677 0 0 1-.33.141.634.634 0 0 1-.378-.07.676.676 0 0 1-.308-.338 3.944 3.944 0 0 1-.363-1.189 4.588 4.588 0 0 1-.024-1.293c.069-.579.22-1.063.452-1.453.224-.39.516-.673.874-.846.352-.183.761-.246 1.229-.189.332.04.63.14.892.3a2 2 0 0 1 .624.618c.162.253.264.547.304.881l-.143-.017c.164-.559.455-.974.874-1.245.41-.272.897-.374 1.459-.306.491.06.904.234 1.239.524.335.29.574.672.717 1.148.136.474.166 1.024.09 1.65zm.881-7.291c-.119.99-.583 1.702-1.391 2.135-.816.431-1.917.563-3.303.396-.934-.113-1.705-.323-2.311-.629-.613-.315-1.054-.718-1.324-1.209-.269-.499-.364-1.077-.285-1.734.121-.998.577-1.711 1.368-2.138.792-.434 1.885-.567 3.279-.399.927.112 1.7.326 2.321.643.614.307 1.064.707 1.35 1.2.278.491.377 1.07.296 1.735zm-1.247-.151c.065-.538-.137-.965-.605-1.278-.467-.322-1.232-.547-2.293-.675-1.062-.129-1.846-.091-2.353.113-.514.195-.803.562-.868 1.101-.064.53.129.955.581 1.275.444.319 1.196.543 2.258.671 1.061.128 1.857.092 2.388-.109.53-.201.828-.567.892-1.098zm-56.037-9.3c-.008.255-.069.441-.184.557-.122.109-.295.16-.519.154a.799.799 0 0 1-.391-.119 2.132 2.132 0 0 1-.399-.322l-2.493-2.476c-.373-.378-.712-.651-1.019-.819a2.128 2.128 0 0 0-.95-.266c-.399-.011-.706.108-.92.358-.214.241-.328.601-.341 1.08-.008.271.024.543.097.817.064.273.184.552.359.836.092.146.128.283.109.41a.584.584 0 0 1-.165.319.676.676 0 0 1-.328.17.691.691 0 0 1-.382-.022.705.705 0 0 1-.339-.297 3.98 3.98 0 0 1-.495-1.163 4.838 4.838 0 0 1-.143-1.297c.017-.606.123-1.114.318-1.524.195-.41.47-.717.827-.923.357-.205.787-.301 1.289-.287.335.009.661.074.977.194.316.113.634.285.955.518.321.224.66.517 1.017.878l2.283 2.315-.407-.012.098-3.517c.006-.215.062-.377.169-.486.107-.109.264-.161.471-.155.208.006.366.066.474.181.109.115.16.28.154.495l-.122 4.403zm.374-9.168c-.018.654-.125 1.213-.322 1.679-.204.457-.489.808-.855 1.054-.366.237-.8.349-1.303.335a2.23 2.23 0 0 1-1.046-.269 2.073 2.073 0 0 1-.735-.703 2.264 2.264 0 0 1-.331-.991l.251.007a2.145 2.145 0 0 1-.764 1.212c-.391.293-.85.432-1.377.417-.478-.013-.882-.144-1.21-.393-.336-.249-.586-.595-.749-1.038-.171-.444-.249-.961-.232-1.551.016-.599.122-1.114.318-1.548.188-.434.456-.766.806-.995.341-.23.752-.339 1.23-.325.351.01.672.09.963.242.291.144.529.346.714.607.184.252.304.547.358.884l-.239-.007c.095-.556.343-1 .743-1.332.393-.341.884-.503 1.475-.486.502.014.929.153 1.281.419.352.257.617.623.796 1.099.17.468.246 1.029.228 1.683zm-1.196-.034c.016-.566-.08-.995-.288-1.289-.215-.293-.538-.446-.969-.458-.43-.012-.757.123-.981.404-.223.281-.343.705-.358 1.271-.016.559.08.988.287 1.289.207.294.527.446.957.458.431.012.762-.122.993-.403.224-.29.343-.713.359-1.272zm-3.793-.105a2.05 2.05 0 0 0-.121-.817 1.163 1.163 0 0 0-.428-.527 1.237 1.237 0 0 0-.665-.198c-.383-.011-.686.116-.909.382-.23.257-.352.62-.365 1.091-.013.47.088.84.304 1.11.208.269.504.409.887.42.39.01.701-.113.932-.37.23-.257.352-.62.365-1.091zm-39.421-2.566c-.001.256-.057.443-.169.562-.12.112-.292.167-.515.167a.795.795 0 0 1-.395-.109 2.127 2.127 0 0 1-.406-.312l-2.556-2.411c-.382-.368-.728-.633-1.039-.793a2.126 2.126 0 0 0-.957-.241c-.399-.001-.702.126-.91.38-.208.247-.313.61-.314 1.089-.001.271.038.543.118.814.071.271.198.547.381.827.095.143.135.279.118.407a.587.587 0 0 1-.156.323.68.68 0 0 1-.323.178.693.693 0 0 1-.383-.012.706.706 0 0 1-.347-.289 3.992 3.992 0 0 1-.524-1.15 4.833 4.833 0 0 1-.176-1.293c.001-.606.094-1.117.279-1.531.184-.414.452-.729.804-.944.351-.214.778-.32 1.281-.32.335.001.662.058.981.17.319.105.642.269.968.493.327.216.673.5 1.04.852l2.34 2.256-.407-.001.008-3.519c.001-.215.053-.379.157-.49.104-.112.26-.167.467-.167.208 0 .367.057.479.169.111.112.166.276.166.491l-.01 4.404zm.141-9.486c-.001.695-.166 1.289-.494 1.783-.337.486-.816.856-1.439 1.11-.623.253-1.377.38-2.263.377-.718-.002-1.352-.083-1.902-.244-.559-.169-1.029-.409-1.411-.721a3.046 3.046 0 0 1-.871-1.14 3.788 3.788 0 0 1-.296-1.532c.001-.35.058-.706.17-1.065.105-.366.265-.709.481-1.028a.563.563 0 0 1 .312-.25.696.696 0 0 1 .383-.011c.12.024.227.08.323.168.088.08.143.184.167.311.016.128-.021.268-.109.42-.16.27-.272.525-.337.764-.064.24-.097.479-.097.718-.001.463.106.854.32 1.174.215.32.538.564.968.732.43.16.969.242 1.615.243l.898.002-.001.144a2.473 2.473 0 0 1-1.04-.397 2 2 0 0 1-.668-.792 2.345 2.345 0 0 1-.237-1.066 2.41 2.41 0 0 1 .35-1.291c.232-.375.552-.67.959-.884.408-.214.875-.32 1.401-.32a2.959 2.959 0 0 1 1.46.363c.422.232.756.56 1.003.984.238.415.357.898.355 1.448zm-1.22.082a1.46 1.46 0 0 0-.19-.755 1.285 1.285 0 0 0-.538-.516 1.8 1.8 0 0 0-.813-.181 1.744 1.744 0 0 0-.814.177c-.232.12-.412.29-.54.514a1.38 1.38 0 0 0-.205.753 1.414 1.414 0 0 0 .739 1.271c.231.12.502.18.813.181.303 0 .575-.059.814-.178a1.39 1.39 0 0 0 .54-.513c.128-.215.193-.466.194-.754zm-67.335 10.088c.007.256-.044.445-.152.567-.117.115-.287.176-.51.182a.807.807 0 0 1-.398-.097 2.082 2.082 0 0 1-.415-.3l-2.626-2.335c-.393-.356-.747-.61-1.063-.761a2.121 2.121 0 0 0-.963-.213c-.399.01-.699.147-.899.407-.201.253-.294.62-.281 1.098.007.271.054.541.142.81.079.269.214.541.405.815.1.141.143.275.131.404a.587.587 0 0 1-.147.327.675.675 0 0 1-.318.188.702.702 0 0 1-.383-.001.701.701 0 0 1-.355-.278A3.971 3.971 0 0 1 483.2 101a4.844 4.844 0 0 1-.215-1.287c-.016-.607.062-1.12.234-1.54.172-.419.43-.741.775-.966.345-.225.769-.345 1.272-.358.335-.01.663.037.985.14.322.095.65.25.983.464.333.207.687.48 1.064.821l2.406 2.186-.407.011-.096-3.518c-.006-.215.042-.38.142-.495.101-.114.255-.174.462-.18.208-.005.369.046.484.155.114.108.175.27.18.486l.121 4.402zm-.192-10.526c.006.24-.052.429-.176.568-.132.14-.322.212-.569.219l-.933.025.081 2.955c.006.248-.04.448-.139.603-.1.146-.262.222-.485.229a1.083 1.083 0 0 1-.421-.085 4.264 4.264 0 0 1-.609-.354l-4.839-3.148a1.327 1.327 0 0 1-.393-.36.845.845 0 0 1-.144-.464.72.72 0 0 1 .177-.52c.116-.138.306-.212.569-.219l4.893-.133-.016-.587c-.006-.23.045-.404.153-.519.101-.122.255-.186.462-.192.207-.005.369.05.484.167.106.108.163.278.169.51l.016.586.933-.025c.248-.007.441.055.58.187.131.132.2.318.207.557zm-2.946.847l-3.733.102-.009-.347 4.216 2.71-.406.011-.068-2.476zm-69.393 9.785c-.012.255-.076.439-.193.554-.124.106-.298.155-.521.145a.798.798 0 0 1-.39-.125 2.222 2.222 0 0 1-.393-.329l-2.452-2.517c-.366-.384-.701-.662-1.005-.836a2.12 2.12 0 0 0-.946-.281c-.398-.018-.707.096-.925.342-.219.238-.338.596-.359 1.074a2.83 2.83 0 0 0 .083.819c.06.274.175.554.346.842.089.147.123.285.101.411a.579.579 0 0 1-.169.316.68.68 0 0 1-.331.165.684.684 0 0 1-.382-.029.689.689 0 0 1-.334-.302 3.974 3.974 0 0 1-.475-1.171 4.795 4.795 0 0 1-.122-1.3c.027-.605.141-1.111.343-1.518.201-.406.482-.709.843-.909.36-.2.791-.288 1.293-.266.335.015.66.086.973.211.315.118.63.296.947.534.317.23.652.528 1.003.895l2.243 2.352-.406-.019.156-3.515c.009-.215.068-.376.177-.483.109-.107.267-.156.474-.147.207.01.364.072.471.189.106.117.155.282.145.498l-.195 4.4zm.318-7.17c-.011.255-.075.44-.192.555-.125.106-.299.154-.522.144a.8.8 0 0 1-.39-.125 2.122 2.122 0 0 1-.392-.329l-2.452-2.516c-.366-.384-.702-.663-1.005-.836a2.125 2.125 0 0 0-.946-.281c-.399-.018-.707.096-.926.342-.218.238-.338.596-.359 1.074-.012.271.016.544.083.818.06.275.175.555.346.842a.6.6 0 0 1 .102.412.583.583 0 0 1-.17.316.684.684 0 0 1-.331.165.696.696 0 0 1-.382-.029.7.7 0 0 1-.334-.302 3.979 3.979 0 0 1-.475-1.171 4.833 4.833 0 0 1-.122-1.3c.027-.605.141-1.111.343-1.518.202-.406.483-.71.843-.909.36-.2.792-.288 1.294-.266.335.015.659.085.973.211.314.118.63.296.946.533.318.23.652.528 1.003.895l2.244 2.352-.407-.018.156-3.515c.01-.215.069-.376.177-.483.109-.107.267-.156.474-.147.207.01.364.072.471.189.107.116.155.282.146.497l-.196 4.4zm-58.985 13.612c.017.255-.027.446-.13.572-.113.12-.28.187-.503.201a.787.787 0 0 1-.401-.082 2.11 2.11 0 0 1-.426-.284l-2.713-2.233c-.406-.341-.77-.581-1.091-.72a2.127 2.127 0 0 0-.971-.177c-.398.026-.692.174-.882.442-.191.26-.271.629-.24 1.107.018.271.075.539.173.804.089.266.234.533.436.799.105.137.153.27.146.399a.58.58 0 0 1-.135.332.676.676 0 0 1-.31.2.683.683 0 0 1-.383.013.698.698 0 0 1-.365-.264 3.955 3.955 0 0 1-.601-1.112 4.824 4.824 0 0 1-.263-1.278c-.04-.605.019-1.121.175-1.546.156-.426.402-.758.738-.996.336-.238.755-.373 1.257-.406.334-.022.664.012.99.103.325.083.659.225 1 .426.34.194.705.454 1.094.78l2.487 2.093-.406.026-.229-3.511c-.014-.215.027-.382.123-.5s.248-.184.455-.197c.207-.014.37.031.489.136.118.104.185.263.199.478l.287 4.395zm-.479-9.163c.065.995-.259 1.78-.973 2.354-.722.575-1.78.908-3.173.999-.94.062-1.736-.002-2.388-.191-.66-.197-1.169-.512-1.525-.944-.356-.441-.556-.991-.599-1.652-.066-1.003.251-1.788.949-2.353.698-.573 1.748-.906 3.149-.997.932-.061 1.732.006 2.4.203.66.188 1.176.498 1.548.93.365.432.568.982.612 1.651zm-1.254.082c-.035-.541-.312-.923-.83-1.145-.519-.23-1.312-.31-2.379-.24s-1.83.251-2.291.545c-.469.287-.686.7-.65 1.242.035.533.303.916.806 1.147.495.231 1.276.312 2.343.242 1.067-.069 1.842-.252 2.327-.548.484-.295.709-.71.674-1.243zm-53.079 10.259c.006.208-.045.373-.154.495-.116.115-.274.175-.474.181-.207.005-.364-.046-.471-.155-.107-.117-.163-.279-.169-.486l-.036-1.34-5.874.16-.021-.742 1.113 1.73a.686.686 0 0 1 .119.427.664.664 0 0 1-.158.34.768.768 0 0 1-.33.189.635.635 0 0 1-.383-.014.694.694 0 0 1-.344-.302l-1.038-1.624a3.33 3.33 0 0 1-.252-.472 1.092 1.092 0 0 1-.12-.44.62.62 0 0 1 .132-.422c.085-.114.231-.174.438-.18l6.676-.182-.033-1.22c-.006-.207.042-.368.142-.483.101-.122.255-.186.462-.192.207-.005.369.05.484.167.114.108.174.266.18.474l.111 4.091zm-.122-8.899c.018.654-.059 1.218-.229 1.694-.179.468-.445.834-.797 1.099-.352.257-.779.393-1.282.406a2.232 2.232 0 0 1-1.059-.21 2.065 2.065 0 0 1-.772-.662 2.275 2.275 0 0 1-.386-.971l.251-.007a2.135 2.135 0 0 1-.696 1.252c-.374.314-.825.478-1.351.492-.479.013-.889-.095-1.23-.326-.35-.23-.618-.561-.806-.995-.195-.434-.301-.946-.317-1.536-.016-.598.061-1.12.233-1.563.163-.444.413-.79.75-1.038.328-.249.732-.38 1.21-.392.351-.01.676.053.975.189.299.127.548.316.746.566.198.242.334.53.407.863l-.24.007c.065-.561.288-1.018.669-1.372.374-.361.855-.55 1.446-.566.502-.014.936.102 1.302.348.366.237.651.589.855 1.054.196.458.303 1.013.321 1.668zm-1.197.032c-.015-.566-.134-.99-.357-1.271-.232-.281-.563-.416-.993-.404-.431.012-.75.164-.958.457-.207.293-.303.722-.288 1.289.015.558.135.982.358 1.271.223.281.55.416.981.404.431-.011.754-.164.969-.457.208-.301.304-.731.288-1.289zm-3.792.103a2.064 2.064 0 0 0-.166-.81 1.174 1.174 0 0 0-.456-.502 1.24 1.24 0 0 0-.675-.16c-.383.01-.679.153-.887.43-.216.27-.317.64-.305 1.11.013.471.135.835.365 1.092.223.257.526.381.908.37.391-.011.695-.151.911-.42.216-.269.318-.639.305-1.11zm-53.002 21.472c.046.202.028.374-.054.516a.673.673 0 0 1-.43.269c-.202.046-.366.026-.492-.059-.128-.094-.215-.242-.261-.444l-.297-1.307-5.73 1.305-.165-.724 1.43 1.479a.69.69 0 0 1 .2.396.663.663 0 0 1-.089.364.763.763 0 0 1-.287.25.627.627 0 0 1-.378.061.69.69 0 0 1-.396-.229l-1.335-1.389a3.45 3.45 0 0 1-.34-.414 1.1 1.1 0 0 1-.204-.408.624.624 0 0 1 .047-.44c.061-.129.193-.216.395-.262l6.512-1.483-.272-1.19c-.046-.203-.03-.37.046-.502.074-.139.213-.232.415-.278.202-.046.371-.023.507.068.133.085.223.228.269.43l.909 3.991zm-1.542-7.205a.755.755 0 0 1-.028.473.527.527 0 0 1-.29.287c-.143.057-.314.059-.514.006l-7.431-2.014.513-.117.861 3.781c.048.21.031.386-.051.527-.085.134-.224.223-.418.267-.203.046-.371.027-.504-.057-.136-.092-.227-.243-.275-.453l-1.029-4.516a.8.8 0 0 1 .047-.551c.078-.157.219-.258.421-.304.171-.039.328-.05.471-.034.135.018.286.05.451.094l7.091 1.871a.86.86 0 0 1 .451.253c.108.115.186.277.234.487zm168.922 436.777c-.878 0-1.632-.175-2.262-.526a3.638 3.638 0 0 1-1.436-1.508c-.335-.655-.503-1.425-.503-2.31 0-.663.096-1.257.288-1.784.191-.534.466-.989.825-1.364a3.5 3.5 0 0 1 1.317-.874c.526-.207 1.117-.311 1.771-.311.439 0 .87.056 1.293.168.423.111.794.271 1.113.479a.765.765 0 0 1 .335.383.724.724 0 0 1 .036.43.667.667 0 0 1-.204.347.591.591 0 0 1-.371.168c-.143.008-.303-.044-.478-.156a2.688 2.688 0 0 0-.802-.347 3.637 3.637 0 0 0-.874-.107c-.566 0-1.045.115-1.436.347a2.183 2.183 0 0 0-.886 1.005c-.199.439-.299.977-.299 1.616 0 .63.1 1.169.299 1.615.2.447.495.786.886 1.018.391.231.87.347 1.436.347.303 0 .602-.036.898-.108.295-.08.574-.199.837-.359.176-.104.332-.148.467-.132a.558.558 0 0 1 .359.144c.096.088.16.2.192.335a.716.716 0 0 1-.024.407.763.763 0 0 1-.287.359 3.68 3.68 0 0 1-1.149.539 5.104 5.104 0 0 1-1.341.179zm5.023-.119c-.263 0-.467-.068-.61-.204-.136-.144-.204-.347-.204-.61v-6.81c0-.264.068-.463.204-.599.143-.143.347-.215.61-.215h4.273c.199 0 .351.052.454.156.112.103.168.251.168.442 0 .2-.056.355-.168.467-.103.104-.255.156-.454.156h-3.615v2.322h3.351c.208 0 .363.051.467.155.104.104.156.255.156.455 0 .199-.052.351-.156.455-.104.103-.259.155-.467.155h-3.351v2.454h3.615c.199 0 .351.052.454.155.112.104.168.256.168.455 0 .2-.056.351-.168.455-.103.104-.255.156-.454.156h-4.273zm7.045.095c-.231 0-.41-.064-.538-.191-.12-.128-.18-.311-.18-.551v-7.121c0-.247.06-.435.18-.562a.644.644 0 0 1 .491-.204c.183 0 .319.036.407.108.095.064.207.175.335.335l4.583 5.948h-.311v-5.661c0-.231.06-.411.18-.538.127-.128.307-.192.538-.192.232 0 .407.064.527.192.12.127.18.307.18.538v7.181c0 .224-.056.399-.168.527a.575.575 0 0 1-.455.191.818.818 0 0 1-.443-.107 1.793 1.793 0 0 1-.347-.348l-4.572-5.948h.3v5.661c0 .24-.06.423-.18.551-.12.127-.295.191-.527.191zm11.036 0c-.248 0-.439-.068-.575-.203-.127-.144-.191-.339-.191-.587v-6.462h-2.334c-.207 0-.371-.056-.491-.168a.677.677 0 0 1-.167-.479c0-.207.056-.363.167-.467.12-.111.284-.167.491-.167h6.2c.207 0 .367.056.478.167.12.104.18.26.18.467 0 .2-.06.359-.18.479-.111.112-.271.168-.478.168h-2.334v6.462c0 .248-.064.443-.192.587-.127.135-.319.203-.574.203zm5.446-.095c-.263 0-.466-.068-.61-.204-.136-.144-.203-.347-.203-.61v-6.81c0-.264.067-.463.203-.599.144-.143.347-.215.61-.215h4.273c.2 0 .351.052.455.156.112.103.167.251.167.442 0 .2-.055.355-.167.467-.104.104-.255.156-.455.156h-3.614v2.322h3.351c.207 0 .363.051.467.155.103.104.155.255.155.455 0 .199-.052.351-.155.455-.104.103-.26.155-.467.155h-3.351v2.454h3.614c.2 0 .351.052.455.155.112.104.167.256.167.455 0 .2-.055.351-.167.455-.104.104-.255.156-.455.156h-4.273zm7.094.095c-.248 0-.439-.068-.575-.203-.127-.144-.191-.339-.191-.587v-6.965c0-.255.068-.447.203-.575.136-.135.327-.203.575-.203h2.884c.926 0 1.64.223 2.142.67.503.439.754 1.057.754 1.855 0 .519-.115.966-.347 1.341-.223.375-.55.662-.981.861-.431.2-.954.3-1.568.3l.108-.18h.395c.327 0 .61.08.849.239.248.16.463.411.647.754l.897 1.664c.096.168.14.331.132.491a.557.557 0 0 1-.18.395c-.111.095-.275.143-.49.143a.962.962 0 0 1-.527-.131 1.25 1.25 0 0 1-.359-.431l-1.209-2.226c-.143-.272-.315-.451-.514-.539-.192-.096-.439-.144-.742-.144h-1.137v2.681c0 .248-.064.443-.192.587-.127.135-.319.203-.574.203zm.766-4.607h1.867c.55 0 .965-.112 1.244-.336.288-.231.431-.574.431-1.029 0-.447-.143-.782-.431-1.005-.279-.232-.694-.347-1.244-.347h-1.867v2.717zm10.7 4.512c-.248 0-.439-.068-.575-.204-.135-.144-.203-.339-.203-.586v-6.906c0-.255.064-.447.191-.575.136-.135.327-.203.575-.203.247 0 .435.068.562.203.136.128.204.32.204.575v6.391h3.47c.216 0 .379.056.491.168.12.111.18.271.18.478 0 .208-.06.371-.18.491-.112.112-.275.168-.491.168h-4.224zm6.708.095c-.247 0-.439-.068-.574-.203-.128-.144-.192-.339-.192-.587v-7.049c0-.255.064-.451.192-.586.135-.136.327-.204.574-.204.247 0 .435.068.563.204.135.135.203.331.203.586v7.049c0 .248-.064.443-.191.587-.128.135-.32.203-.575.203zm3.33 0c-.231 0-.411-.064-.539-.191-.119-.128-.179-.311-.179-.551v-7.121c0-.247.06-.435.179-.562a.645.645 0 0 1 .491-.204c.184 0 .319.036.407.108.096.064.208.175.335.335l4.584 5.948h-.311v-5.661c0-.231.06-.411.179-.538.128-.128.308-.192.539-.192.231 0 .407.064.527.192.119.127.179.307.179.538v7.181c0 .224-.056.399-.168.527a.573.573 0 0 1-.454.191.816.816 0 0 1-.443-.107 1.74 1.74 0 0 1-.347-.348l-4.572-5.948h.299v5.661c0 .24-.06.423-.179.551-.12.127-.296.191-.527.191zm9.049-.095c-.264 0-.467-.068-.611-.204-.135-.144-.203-.347-.203-.61v-6.81c0-.264.068-.463.203-.599.144-.143.347-.215.611-.215h4.272c.2 0 .351.052.455.156.112.103.168.251.168.442 0 .2-.056.355-.168.467-.104.104-.255.156-.455.156h-3.614v2.322h3.351c.207 0 .363.051.467.155.103.104.155.255.155.455 0 .199-.052.351-.155.455-.104.103-.26.155-.467.155h-3.351v2.454h3.614c.2 0 .351.052.455.155.112.104.168.256.168.455 0 .2-.056.351-.168.455-.104.104-.255.156-.455.156h-4.272zM353.865 338.037c0 .704-.056 1.408-.168 2.112a10.978 10.978 0 0 1-.456 1.992 8.192 8.192 0 0 1-.816 1.68 1.552 1.552 0 0 1-1.488.72 1.462 1.462 0 0 1-.696-.312 1.093 1.093 0 0 1-.384-.648c-.048-.256.024-.536.216-.84a8.2 8.2 0 0 0 .912-2.232c.192-.784.288-1.608.288-2.472 0-1.264-.208-2.184-.624-2.76-.432-.576-.984-.864-1.656-.864-.56 0-1 .208-1.32.624-.32.4-.584 1.096-.792 2.088l-.552 2.64c-.32 1.52-.856 2.656-1.608 3.408-.768.736-1.776 1.104-3.024 1.104-.784 0-1.496-.16-2.136-.48a4.954 4.954 0 0 1-1.656-1.344 6.263 6.263 0 0 1-1.056-2.088c-.256-.816-.384-1.712-.384-2.688 0-.96.12-1.872.36-2.736.24-.864.592-1.64 1.056-2.328.176-.256.392-.424.648-.504a1.41 1.41 0 0 1 .768-.072c.24.048.448.16.624.336.176.176.28.4.312.672.032.256-.048.552-.24.888a6.832 6.832 0 0 0-.72 1.8 8.527 8.527 0 0 0-.216 1.968c0 .736.104 1.368.312 1.896.208.528.504.936.888 1.224.368.272.808.408 1.32.408.576 0 1.04-.192 1.392-.576.336-.384.6-1.04.792-1.968l.552-2.616c.336-1.584.864-2.76 1.584-3.528.72-.784 1.68-1.176 2.88-1.176.768 0 1.464.16 2.088.48.624.304 1.16.752 1.608 1.344.448.576.792 1.272 1.032 2.088.24.816.36 1.736.36 2.76zm-.048-14.573c0 .496-.136.88-.408 1.152-.288.256-.68.384-1.176.384h-12.96v4.68c0 .416-.112.744-.336.984-.24.224-.56.336-.96.336-.416 0-.728-.112-.936-.336-.224-.24-.336-.568-.336-.984v-12.432c0-.416.112-.736.336-.96.208-.24.52-.36.936-.36.4 0 .72.12.96.36.224.224.336.544.336.96v4.68h12.96c.496 0 .888.128 1.176.384.272.256.408.64.408 1.152zm0-7.584c0 .384-.088.696-.264.936a1.08 1.08 0 0 1-.696.408c-.304.048-.64-.008-1.008-.168l-14.04-6.336c-.464-.208-.792-.456-.984-.744a1.785 1.785 0 0 1-.312-1.032c0-.368.104-.696.312-.984.192-.304.52-.56.984-.768l14.04-6.36c.368-.176.704-.24 1.008-.192.304.048.544.184.72.408.16.224.24.52.24.888 0 .448-.104.8-.312 1.056-.224.24-.56.456-1.008.648l-3.624 1.56.84-1.296v10.128l-.84-1.296 3.624 1.536c.464.208.8.424 1.008.648.208.224.312.544.312.96zm-13.776-6.888l7.992 3.36-.768.624v-8.016l.768.6-7.992 3.384v.048zm13.824-18.587c0 1.872-.352 3.456-1.056 4.752a7.062 7.062 0 0 1-3 2.928c-1.296.672-2.832 1.008-4.608 1.008-1.344 0-2.552-.192-3.624-.576-1.072-.4-1.984-.968-2.736-1.704-.768-.752-1.352-1.664-1.752-2.736-.416-1.072-.624-2.288-.624-3.648 0-.896.112-1.792.336-2.688a8.054 8.054 0 0 1 1.08-2.568c.176-.272.392-.448.648-.528.256-.096.52-.112.792-.048.256.064.48.184.672.36.192.176.312.4.36.672.048.256-.016.544-.192.864a7.308 7.308 0 0 0-.768 1.848c-.16.624-.24 1.32-.24 2.088 0 1.184.24 2.184.72 3 .464.816 1.144 1.432 2.04 1.848.896.4 1.992.6 3.288.6 1.968 0 3.464-.472 4.488-1.416 1.024-.944 1.536-2.344 1.536-4.2 0-.64-.064-1.288-.192-1.944a13.099 13.099 0 0 0-.528-1.92l1.368.6h-5.112v2.64c0 .4-.104.712-.312.936-.208.208-.488.312-.84.312-.368 0-.648-.104-.84-.312-.192-.224-.288-.536-.288-.936v-3.96c0-.4.112-.704.336-.912.208-.224.512-.336.912-.336h5.832c.352 0 .648.072.888.216.24.128.416.344.528.648.256.704.472 1.512.648 2.424.16.912.24 1.808.24 2.688zm-.24-11.168c0 .528-.136.936-.408 1.224-.288.272-.696.408-1.224.408h-13.656c-.528 0-.928-.136-1.2-.408-.288-.288-.432-.696-.432-1.224v-8.568c0-.4.104-.704.312-.912.208-.224.504-.336.888-.336.4 0 .712.112.936.336.208.208.312.512.312.912v7.248h4.656v-6.72c0-.416.104-.728.312-.936.208-.208.512-.312.912-.312s.704.104.912.312c.208.208.312.52.312.936v6.72h4.92v-7.248c0-.4.104-.704.312-.912.208-.224.512-.336.912-.336s.704.112.912.336c.208.208.312.512.312.912v8.568zm92.683 131.284c-.001.165-.047.293-.138.383a.574.574 0 0 1-.393.125l-4.32-.033-.012 1.56a.465.465 0 0 1-.115.327.449.449 0 0 1-.321.109c-.138-.001-.242-.039-.311-.114a.463.463 0 0 1-.109-.329l.032-4.144c.001-.139.039-.245.114-.319.07-.08.174-.119.313-.118.133.001.24.042.319.123.074.075.111.182.11.321l-.012 1.56 4.319.033a.566.566 0 0 1 .391.131c.09.086.135.214.133.385zm.02-2.528a.514.514 0 0 1-.09.311.363.363 0 0 1-.234.135.609.609 0 0 1-.335-.059l-4.664-2.148a.747.747 0 0 1-.326-.25.6.6 0 0 1 .005-.672.723.723 0 0 1 .33-.254l4.696-2.084a.578.578 0 0 1 .337-.061.367.367 0 0 1 .239.138.496.496 0 0 1 .078.296.544.544 0 0 1-.107.351.98.98 0 0 1-.338.214l-1.212.511.284-.43-.026 3.376-.277-.434 1.204.521c.154.07.266.143.334.218a.455.455 0 0 1 .102.321zm-4.574-2.331l2.655 1.14-.258.206.021-2.672.254.202-2.672 1.108v.016zm4.559-4.11c-.001.176-.047.311-.139.407-.096.09-.233.134-.409.133l-4.552-.035c-.176-.002-.309-.048-.399-.14-.095-.096-.142-.233-.14-.409l.014-1.92c.003-.394.065-.73.184-1.006.12-.277.289-.486.509-.628a1.35 1.35 0 0 1 .786-.218c.341.002.628.103.861.302.233.2.389.47.466.812l-.12-.001c.062-.394.213-.7.455-.916.242-.217.555-.324.939-.321.501.004.889.177 1.164.521.269.338.401.808.397 1.411l-.016 2.008zm-.772-.446l.011-1.44c.003-.363-.065-.63-.202-.802-.143-.172-.355-.258-.638-.261-.288-.002-.502.082-.642.251-.14.17-.211.436-.214.799l-.011 1.44 1.696.013zm-2.472-.019l.01-1.304c.003-.352-.062-.614-.194-.786-.137-.177-.339-.266-.606-.268-.267-.002-.467.084-.602.259-.14.17-.211.43-.214.782l-.01 1.304 1.616.013zm3.287-5.019c-.002.165-.048.293-.139.383a.55.55 0 0 1-.393.133l-4.616-.035c-.171-.002-.299-.045-.383-.131a.518.518 0 0 1-.133-.385c.001-.166.047-.291.139-.375.086-.09.214-.135.385-.133l4.271.032.018-2.32c.001-.144.04-.253.115-.327.075-.079.182-.118.321-.117a.447.447 0 0 1 .327.122c.074.076.11.185.109.329l-.021 2.824zm.034-4.516c-.001.176-.047.312-.139.407-.097.09-.233.134-.409.133l-4.552-.035c-.176-.002-.309-.048-.399-.139-.095-.097-.142-.233-.141-.409l.022-2.856c.001-.134.037-.235.107-.303.07-.075.169-.111.297-.11a.422.422 0 0 1 .311.114c.069.07.102.172.101.305l-.018 2.416 1.552.012.017-2.24c.001-.139.037-.242.106-.311.07-.069.172-.103.305-.102.134.001.235.037.303.106.069.07.103.175.102.313l-.017 2.24 1.64.013.018-2.416c.001-.133.037-.235.107-.303.07-.074.171-.111.304-.11.134.001.235.039.304.114.068.07.102.172.101.305l-.022 2.856zm.127-6.094a4.51 4.51 0 0 1-.061.703 3.691 3.691 0 0 1-.157.663 2.792 2.792 0 0 1-.277.558.516.516 0 0 1-.497.236.491.491 0 0 1-.232-.106.36.36 0 0 1-.126-.217c-.015-.085.009-.178.074-.279.141-.234.244-.481.31-.742s.1-.535.102-.823c.003-.421-.064-.729-.201-.922a.663.663 0 0 0-.55-.292.526.526 0 0 0-.441.205c-.108.132-.198.364-.269.694l-.191.878c-.111.506-.292.883-.545 1.132-.258.243-.595.363-1.011.36a1.57 1.57 0 0 1-1.259-.617 2.1 2.1 0 0 1-.347-.699 3.009 3.009 0 0 1-.121-.897 3.42 3.42 0 0 1 .127-.911c.082-.287.202-.545.358-.773a.414.414 0 0 1 .217-.167.482.482 0 0 1 .257-.022c.08.017.149.055.207.114a.368.368 0 0 1 .102.225.485.485 0 0 1-.082.295 2.274 2.274 0 0 0-.245.598 2.885 2.885 0 0 0-.077.656c-.002.245.031.456.099.632a.915.915 0 0 0 .293.411.72.72 0 0 0 .439.139.603.603 0 0 0 .466-.188c.113-.128.202-.346.269-.654l.19-.871c.116-.527.295-.918.537-1.172.242-.259.563-.388.963-.384a1.507 1.507 0 0 1 1.228.617c.147.193.26.426.338.699.078.272.116.579.113.921zm-.209-154.937c-.001.165-.047.293-.138.383a.574.574 0 0 1-.393.125l-4.32-.033-.012 1.56a.465.465 0 0 1-.115.327.449.449 0 0 1-.321.109c-.138-.001-.242-.039-.311-.114a.463.463 0 0 1-.109-.329l.032-4.144c.001-.139.039-.245.114-.319.07-.08.174-.119.313-.118.133.001.24.042.319.123.074.075.111.182.11.321l-.012 1.56 4.319.033a.566.566 0 0 1 .391.131c.09.086.135.214.133.385zm.02-2.528a.514.514 0 0 1-.09.311.363.363 0 0 1-.234.135.609.609 0 0 1-.335-.059l-4.664-2.148a.747.747 0 0 1-.326-.25.6.6 0 0 1 .005-.672.723.723 0 0 1 .33-.254l4.696-2.084a.578.578 0 0 1 .337-.061.367.367 0 0 1 .239.138.496.496 0 0 1 .078.296.544.544 0 0 1-.107.351.98.98 0 0 1-.338.214l-1.212.511.284-.43-.026 3.376-.277-.434 1.204.521c.154.07.266.143.334.218a.455.455 0 0 1 .102.321zm-4.574-2.331l2.655 1.14-.258.206.021-2.672.254.202-2.672 1.108v.016zm4.559-4.11c-.001.176-.047.311-.139.407-.096.09-.233.134-.409.133l-4.552-.035c-.176-.002-.309-.048-.399-.14-.095-.096-.142-.233-.14-.409l.014-1.92c.003-.394.065-.73.184-1.006.12-.277.289-.486.509-.628a1.35 1.35 0 0 1 .786-.218c.341.002.628.103.861.302.233.2.389.47.466.812l-.12-.001c.062-.394.213-.7.455-.916.242-.217.555-.324.939-.321.501.004.889.177 1.164.521.269.338.401.808.397 1.411l-.016 2.008zm-.772-.446l.011-1.44c.003-.363-.065-.63-.202-.802-.143-.172-.355-.258-.638-.261-.288-.002-.502.082-.642.251-.14.17-.211.436-.214.799l-.011 1.44 1.696.013zm-2.472-.019l.01-1.304c.003-.352-.062-.614-.194-.786-.137-.177-.339-.266-.606-.268-.267-.002-.467.084-.602.259-.14.17-.211.43-.214.782l-.01 1.304 1.616.013zm3.287-5.019c-.002.165-.048.293-.139.383a.55.55 0 0 1-.393.133l-4.616-.035c-.171-.002-.299-.045-.383-.131a.518.518 0 0 1-.133-.385c.001-.166.047-.291.139-.375.086-.09.214-.135.385-.133l4.271.032.018-2.32c.001-.144.04-.253.115-.327.075-.079.182-.118.321-.117a.447.447 0 0 1 .327.122c.074.076.11.185.109.329l-.021 2.824zm.034-4.516c-.001.176-.047.312-.139.407-.097.09-.233.134-.409.133l-4.552-.035c-.176-.002-.309-.048-.399-.139-.095-.097-.142-.233-.141-.409l.022-2.856c.001-.134.037-.235.107-.303.07-.075.169-.111.297-.11a.422.422 0 0 1 .311.114c.069.07.102.172.101.305l-.018 2.416 1.552.012.017-2.24c.001-.139.037-.242.106-.311.07-.069.172-.103.305-.102.134.001.235.037.303.106.069.07.103.175.102.313l-.017 2.24 1.64.013.018-2.416c.001-.133.037-.235.107-.303.07-.074.171-.111.304-.11.134.001.235.039.304.114.068.07.102.172.101.305l-.022 2.856zm.127-6.094a4.51 4.51 0 0 1-.061.703 3.691 3.691 0 0 1-.157.663 2.792 2.792 0 0 1-.277.558.516.516 0 0 1-.497.236.491.491 0 0 1-.232-.106.36.36 0 0 1-.126-.217c-.015-.085.009-.178.074-.279.141-.234.244-.481.31-.742s.1-.535.102-.823c.003-.421-.064-.729-.201-.922a.663.663 0 0 0-.55-.292.526.526 0 0 0-.441.205c-.108.132-.198.364-.269.694l-.191.878c-.111.506-.292.883-.545 1.132-.258.243-.595.363-1.011.36a1.57 1.57 0 0 1-1.259-.617 2.1 2.1 0 0 1-.347-.699 3.009 3.009 0 0 1-.121-.897 3.42 3.42 0 0 1 .127-.911c.082-.287.202-.545.358-.773a.414.414 0 0 1 .217-.167.482.482 0 0 1 .257-.022c.08.017.149.055.207.114a.368.368 0 0 1 .102.225.485.485 0 0 1-.082.295 2.274 2.274 0 0 0-.245.598 2.885 2.885 0 0 0-.077.656c-.002.245.031.456.099.632a.915.915 0 0 0 .293.411.72.72 0 0 0 .439.139.603.603 0 0 0 .466-.188c.113-.128.202-.346.269-.654l.19-.871c.116-.527.295-.918.537-1.172.242-.259.563-.388.963-.384a1.507 1.507 0 0 1 1.228.617c.147.193.26.426.338.699.078.272.116.579.113.921zm147.585 171.685a.638.638 0 0 1-.098.359.75.75 0 0 1-.306.222l-4.704 2.052a.529.529 0 0 1-.352.045.406.406 0 0 1-.239-.17.52.52 0 0 1-.086-.304c.001-.155.037-.269.107-.343a.702.702 0 0 1 .297-.198l4.407-1.862-.003.344-4.385-1.922a.773.773 0 0 1-.286-.21.497.497 0 0 1-.102-.337.453.453 0 0 1 .09-.287.39.39 0 0 1 .241-.151.585.585 0 0 1 .352.059l4.672 2.124a.76.76 0 0 1 .302.226.573.573 0 0 1 .093.353zm.031-3.975a.52.52 0 0 1-.139.383.57.57 0 0 1-.393.125l-4.712-.036c-.17-.001-.301-.045-.391-.131-.09-.092-.134-.22-.133-.385.001-.166.048-.291.139-.375.091-.09.222-.134.393-.133l4.712.036a.568.568 0 0 1 .391.131c.09.086.134.214.133.385zm.017-2.258c-.001.166-.047.293-.139.383a.561.561 0 0 1-.393.125l-4.655-.035c-.171-.002-.299-.048-.383-.139a.518.518 0 0 1-.133-.385l.014-1.928c.005-.619.163-1.095.475-1.429.312-.333.746-.498 1.3-.494.555.004.988.176 1.3.514.307.339.458.817.453 1.436l-.011 1.424 1.648.012a.57.57 0 0 1 .391.131c.09.086.135.215.133.385zm-2.98-.535l.01-1.263c.003-.363-.075-.638-.234-.826-.163-.188-.403-.283-.717-.286-.315-.002-.553.089-.715.275-.161.185-.243.459-.246.822l-.01 1.264 1.912.014zm2.932-130.232a.638.638 0 0 1-.098.359.75.75 0 0 1-.306.222l-4.704 2.052a.529.529 0 0 1-.352.045.406.406 0 0 1-.239-.17.52.52 0 0 1-.086-.304c.001-.155.037-.269.107-.343a.702.702 0 0 1 .297-.198l4.407-1.862-.003.344-4.385-1.922a.773.773 0 0 1-.286-.21.497.497 0 0 1-.102-.337.453.453 0 0 1 .09-.287.39.39 0 0 1 .241-.151.585.585 0 0 1 .352.059l4.672 2.124a.76.76 0 0 1 .302.226.573.573 0 0 1 .093.353zm.031-3.975a.52.52 0 0 1-.139.383.57.57 0 0 1-.393.125l-4.712-.036c-.17-.001-.301-.045-.391-.131-.09-.092-.134-.22-.133-.385.001-.166.048-.291.139-.375.091-.09.222-.134.393-.133l4.712.036a.568.568 0 0 1 .391.131c.09.086.134.214.133.385zm.017-2.258c-.001.166-.047.293-.139.383a.561.561 0 0 1-.393.125l-4.655-.035c-.171-.002-.299-.048-.383-.139a.518.518 0 0 1-.133-.385l.014-1.928c.005-.619.163-1.095.475-1.429.312-.333.746-.498 1.3-.494.555.004.988.176 1.3.514.307.339.458.817.453 1.436l-.011 1.424 1.648.012a.57.57 0 0 1 .391.131c.09.086.135.215.133.385zm-2.98-.535l.01-1.263c.003-.363-.075-.638-.234-.826-.163-.188-.403-.283-.717-.286-.315-.002-.553.089-.715.275-.161.185-.243.459-.246.822l-.01 1.264 1.912.014zm-117.013 123.98c-.007.878-.188 1.63-.544 2.258a3.637 3.637 0 0 1-1.519 1.424c-.657.331-1.428.492-2.314.485-.662-.005-1.256-.105-1.781-.301a3.781 3.781 0 0 1-1.358-.836 3.506 3.506 0 0 1-.864-1.323c-.203-.528-.302-1.119-.297-1.774.003-.438.062-.869.177-1.291.115-.422.278-.792.488-1.109a.76.76 0 0 1 .385-.332.727.727 0 0 1 .431-.033.675.675 0 0 1 .346.206c.095.097.15.221.165.372.006.144-.047.303-.16.478a2.663 2.663 0 0 0-.353.799 3.58 3.58 0 0 0-.114.873c-.005.566.107 1.046.336 1.439.228.393.561.69.998.893.437.203.975.307 1.613.312.631.005 1.17-.091 1.618-.287.449-.196.79-.489 1.025-.878.234-.389.353-.867.358-1.433a3.837 3.837 0 0 0-.101-.899 3.228 3.228 0 0 0-.353-.84c-.102-.177-.145-.332-.128-.468a.556.556 0 0 1 .147-.358.64.64 0 0 1 .336-.189.717.717 0 0 1 .407.027.766.766 0 0 1 .357.29c.229.321.405.706.529 1.153.117.44.173.887.17 1.342zm.014-4.999c-.002.247-.071.442-.208.585-.145.134-.349.201-.612.199l-6.905-.053c-.264-.002-.463-.072-.597-.208-.143-.145-.213-.349-.211-.612l.032-4.177c.002-.208.055-.363.159-.466.105-.103.253-.153.444-.152.2.002.355.055.466.159.103.105.154.261.152.468l-.027 3.459 2.382.018.025-3.207c.001-.2.054-.351.159-.454.104-.111.252-.165.444-.164.199.002.354.059.465.171.103.105.154.257.152.456l-.024 3.208 2.896.022c.543.004.812.253.808.748zm-.014-89.001c-.007.878-.188 1.63-.544 2.258a3.637 3.637 0 0 1-1.519 1.424c-.657.331-1.428.492-2.314.485-.662-.005-1.256-.105-1.781-.301a3.781 3.781 0 0 1-1.358-.836 3.506 3.506 0 0 1-.864-1.323c-.203-.528-.302-1.119-.297-1.774.003-.438.062-.869.177-1.291.115-.422.278-.792.488-1.109a.76.76 0 0 1 .385-.332.727.727 0 0 1 .431-.033.675.675 0 0 1 .346.206c.095.097.15.221.165.372.006.144-.047.303-.16.478a2.663 2.663 0 0 0-.353.799 3.58 3.58 0 0 0-.114.873c-.005.566.107 1.046.336 1.439.228.393.561.69.998.893.437.203.975.307 1.613.312.631.005 1.17-.091 1.618-.287.449-.196.79-.489 1.025-.878.234-.389.353-.867.358-1.433a3.837 3.837 0 0 0-.101-.899 3.228 3.228 0 0 0-.353-.84c-.102-.177-.145-.332-.128-.468a.556.556 0 0 1 .147-.358.64.64 0 0 1 .336-.189.717.717 0 0 1 .407.027.766.766 0 0 1 .357.29c.229.321.405.706.529 1.153.117.44.173.887.17 1.342zm.014-4.999c-.002.247-.071.442-.208.585-.145.134-.349.201-.612.199l-6.905-.053c-.264-.002-.463-.072-.597-.208-.143-.145-.213-.349-.211-.612l.032-4.177c.002-.208.055-.363.159-.466.105-.103.253-.153.444-.152.2.002.355.055.466.159.103.105.154.261.152.468l-.027 3.459 2.382.018.025-3.207c.001-.2.054-.351.159-.454.104-.111.252-.165.444-.164.199.002.354.059.465.171.103.105.154.257.152.456l-.024 3.208 2.896.022c.543.004.812.253.808.748zM798.523 125.43c.226.367.412.777.559 1.229.148.453.216.884.205 1.293a.803.803 0 0 1-.137.464.653.653 0 0 1-.301.241.674.674 0 0 1-.369.016.598.598 0 0 1-.314-.214.811.811 0 0 1-.153-.454 4.353 4.353 0 0 0-.169-1.006 4.016 4.016 0 0 0-.397-.852c-.184-.299-.379-.525-.586-.679a1.08 1.08 0 0 0-.649-.233 1.22 1.22 0 0 0-.692.2c-.34.209-.52.479-.541.81-.032.329.085.711.353 1.146l.401.653c.117.19.159.365.127.526-.037.154-.14.283-.31.387-.17.104-.332.138-.486.102-.158-.044-.295-.161-.412-.351l-.326-.53a1.915 1.915 0 0 0-.529-.588 1.21 1.21 0 0 0-.631-.202 1.2 1.2 0 0 0-.665.198c-.312.192-.486.443-.519.754-.038.305.064.654.307 1.048.154.252.331.471.53.657.188.184.442.361.761.53.15.076.254.177.311.3a.54.54 0 0 1 .037.357.684.684 0 0 1-.171.316.63.63 0 0 1-.339.18.683.683 0 0 1-.453-.073 3.947 3.947 0 0 1-1.023-.705 4.613 4.613 0 0 1-.824-.997c-.305-.497-.488-.969-.548-1.419-.068-.445-.016-.848.157-1.207.162-.361.443-.665.844-.912.286-.175.581-.282.886-.319a1.99 1.99 0 0 1 .873.095c.284.097.546.264.785.501l-.122.075c-.219-.54-.249-1.046-.09-1.518.152-.468.47-.851.952-1.147.422-.259.854-.38 1.296-.361.442.018.867.169 1.275.452.402.287.767.7 1.097 1.237zm-3.883-6.318c.222.36.4.756.534 1.189.135.432.2.865.195 1.299a.77.77 0 0 1-.123.441.752.752 0 0 1-.317.237.692.692 0 0 1-.38.023.565.565 0 0 1-.318-.198.74.74 0 0 1-.14-.434 4.168 4.168 0 0 0-.144-.965 3.492 3.492 0 0 0-.395-.895c-.176-.285-.377-.499-.605-.64a1.297 1.297 0 0 0-.716-.206c-.25.004-.498.081-.743.232-.38.234-.615.537-.704.91-.096.378-.021.767.226 1.168.133.218.3.405.5.563.194.162.439.288.737.376.092.028.195.073.307.135a.785.785 0 0 1 .26.262c.104.169.139.326.105.468-.034.143-.129.263-.285.359l-3.334 2.049c-.184.113-.353.151-.506.114-.165-.039-.304-.151-.416-.334l-2.062-3.355c-.113-.183-.151-.352-.114-.506.025-.156.127-.288.303-.397.17-.104.334-.135.492-.091.154.036.287.146.4.33l1.629 2.651 2.284-1.404.207.337a2.037 2.037 0 0 1-.983-.365 2.75 2.75 0 0 1-.783-.84c-.28-.455-.424-.91-.431-1.364a2.286 2.286 0 0 1 .323-1.281c.223-.399.562-.738 1.017-1.018.469-.289.949-.438 1.438-.449.483-.006.948.125 1.394.394.436.266.818.668 1.148 1.205zm52.001 79.398c.166.397.287.831.362 1.301.076.47.076.907.003 1.309a.814.814 0 0 1-.207.437.655.655 0 0 1-.335.192.678.678 0 0 1-.367-.041.607.607 0 0 1-.278-.26.812.812 0 0 1-.08-.473 4.36 4.36 0 0 0-.012-1.02 4.02 4.02 0 0 0-.26-.903c-.136-.323-.294-.577-.474-.761a1.087 1.087 0 0 0-.605-.331 1.222 1.222 0 0 0-.715.091c-.368.154-.588.393-.66.717-.082.32-.025.715.172 1.186l.295.707c.086.206.101.386.044.539-.06.147-.182.258-.366.335-.184.077-.349.085-.496.025-.149-.067-.266-.204-.353-.41l-.24-.574a1.888 1.888 0 0 0-.432-.662 1.215 1.215 0 0 0-.591-.298 1.195 1.195 0 0 0-.688.093c-.339.141-.549.363-.63.665-.084.295-.037.656.141 1.083.114.272.255.516.423.731.157.211.38.425.67.641a.65.65 0 0 1 .26.345.53.53 0 0 1-.019.358.638.638 0 0 1-.58.411.687.687 0 0 1-.436-.142 3.942 3.942 0 0 1-.902-.855 4.624 4.624 0 0 1-.659-1.112c-.225-.538-.332-1.033-.323-1.487.002-.45.116-.84.342-1.168.216-.332.541-.589.975-.77.309-.13.617-.189.924-.179.3.013.582.09.848.229.266.14.499.345.699.616l-.133.056c-.133-.567-.084-1.072.146-1.514.223-.439.596-.768 1.119-.986.456-.191.901-.243 1.335-.156.434.086.831.301 1.19.644.352.346.65.809.893 1.391zm-2.263-5.353a.745.745 0 0 1 .054.47.527.527 0 0 1-.237.333c-.131.08-.299.112-.506.094l-7.666-.714.486-.203 1.495 3.578c.083.199.097.375.04.529-.06.146-.182.257-.366.334-.192.08-.361.09-.507.03-.149-.067-.265-.2-.348-.399l-1.786-4.274a.805.805 0 0 1-.049-.55c.051-.168.172-.292.364-.372.162-.068.314-.106.458-.114.136-.005.29 0 .46.015l7.307.63a.863.863 0 0 1 .487.173c.126.094.231.241.314.44zm-53.396 68.872c.081.423.111.872.088 1.348a3.839 3.839 0 0 1-.266 1.282.807.807 0 0 1-.291.385.66.66 0 0 1-.367.119.685.685 0 0 1-.352-.115.608.608 0 0 1-.218-.312.81.81 0 0 1 .018-.479 4.33 4.33 0 0 0 .198-1 4.06 4.06 0 0 0-.07-.937c-.066-.345-.169-.626-.308-.843a1.09 1.09 0 0 0-.525-.448 1.226 1.226 0 0 0-.718-.057c-.391.075-.656.264-.793.566-.146.296-.171.695-.075 1.197l.145.752c.042.219.019.398-.068.537-.089.131-.231.215-.427.253-.196.037-.359.012-.49-.077-.132-.097-.219-.254-.261-.474l-.118-.611a1.917 1.917 0 0 0-.287-.737 1.205 1.205 0 0 0-.518-.412 1.197 1.197 0 0 0-.692-.05c-.361.069-.612.243-.753.522-.143.271-.171.634-.084 1.088.056.29.144.558.264.803.111.238.286.493.525.764a.652.652 0 0 1 .184.391.533.533 0 0 1-.092.347.636.636 0 0 1-.652.284.688.688 0 0 1-.397-.229 3.948 3.948 0 0 1-.708-1.022 4.6 4.6 0 0 1-.418-1.224c-.11-.572-.113-1.079-.011-1.521.094-.44.285-.798.574-1.073.279-.281.65-.465 1.112-.554.329-.063.643-.058.941.014a2 2 0 0 1 .783.398c.232.192.418.44.558.746l-.141.028c-.015-.583.136-1.067.452-1.452.308-.384.741-.63 1.297-.736.486-.094.932-.053 1.339.12.407.174.752.465 1.033.875.274.41.47.925.589 1.544zm-1.384-7.212c.188.979-.036 1.798-.674 2.457-.645.66-1.653 1.121-3.024 1.384-.925.178-1.723.213-2.393.106-.68-.113-1.223-.362-1.63-.747-.409-.393-.675-.915-.8-1.565-.19-.988.027-1.805.65-2.453.622-.655 1.622-1.115 3.002-1.38.916-.176 1.719-.208 2.406-.096.679.105 1.229.349 1.652.731.414.384.685.904.811 1.563zm-1.234.236c-.102-.532-.424-.877-.966-1.033-.543-.164-1.34-.145-2.39.057-1.05.201-1.785.476-2.206.825-.429.342-.593.78-.491 1.313.101.525.415.871.942 1.038.52.168 1.305.152 2.355-.05 1.05-.201 1.797-.479 2.241-.832.444-.353.616-.793.515-1.318zm-16.484-48.778c.198.383.354.805.468 1.267.114.463.15.898.109 1.305a.799.799 0 0 1-.17.452.66.66 0 0 1-.318.219.688.688 0 0 1-.369-.011.606.606 0 0 1-.298-.237.814.814 0 0 1-.119-.464 4.36 4.36 0 0 0-.095-1.016 4.037 4.037 0 0 0-.334-.878c-.161-.312-.339-.552-.534-.72a1.092 1.092 0 0 0-.631-.281 1.224 1.224 0 0 0-.704.15c-.354.183-.554.439-.599.768-.056.326.033.715.268 1.169l.352.68c.103.198.132.376.088.534-.048.151-.16.272-.337.363-.178.092-.341.114-.492.066-.154-.055-.283-.181-.385-.38l-.287-.552a1.903 1.903 0 0 0-.485-.625 1.209 1.209 0 0 0-.614-.248 1.197 1.197 0 0 0-.677.149c-.326.168-.517.407-.574.714-.06.301.017.657.23 1.068.135.262.296.493.481.694.174.197.414.392.72.584a.65.65 0 0 1 .288.322.54.54 0 0 1 .011.359.688.688 0 0 1-.194.302.632.632 0 0 1-.351.155.683.683 0 0 1-.446-.106 3.954 3.954 0 0 1-.969-.778 4.617 4.617 0 0 1-.749-1.055c-.268-.517-.415-1.002-.443-1.455-.035-.449.047-.846.245-1.192.188-.348.491-.631.909-.848.297-.154.599-.238.906-.253.3-.012.588.041.864.159.277.117.525.303.747.556l-.128.066c-.179-.554-.172-1.061.021-1.52.187-.456.531-.814 1.034-1.075.44-.227.879-.315 1.319-.265.439.051.852.233 1.239.545.379.316.713.753 1.003 1.313zm-3.377-6.521c.459.886.476 1.735.052 2.547-.431.816-1.266 1.545-2.506 2.188-.836.433-1.591.693-2.264.781-.684.085-1.276.001-1.775-.253-.504-.26-.907-.685-1.212-1.273-.462-.892-.487-1.738-.074-2.536.41-.805 1.238-1.531 2.485-2.176.829-.43 1.589-.689 2.28-.777.681-.092 1.278-.014 1.791.232.507.249.915.672 1.223 1.267zm-1.116.578c-.249-.482-.656-.721-1.22-.716-.567-.003-1.326.242-2.275.733-.95.492-1.576.965-1.88 1.419-.315.45-.348.917-.098 1.398.246.475.645.717 1.199.727.546.014 1.294-.225 2.243-.717.949-.491 1.587-.97 1.912-1.435.325-.465.365-.934.119-1.409zm-47.416-53.798c.199.159.311.32.334.482.013.163-.051.332-.19.507a.797.797 0 0 1-.331.241 2.097 2.097 0 0 1-.497.123l-3.478.499c-.526.07-.949.176-1.268.32a2.122 2.122 0 0 0-.784.598c-.249.312-.339.628-.269.95.063.316.282.624.656.923.212.169.449.308.711.415.256.113.551.185.884.216.172.015.303.069.392.161a.582.582 0 0 1 .156.323.705.705 0 0 1-.31.656.703.703 0 0 1-.442.092 3.978 3.978 0 0 1-1.226-.306 4.817 4.817 0 0 1-1.121-.667c-.474-.379-.816-.769-1.025-1.172a2.036 2.036 0 0 1-.238-1.216c.051-.409.233-.81.547-1.202.21-.262.457-.483.744-.662.28-.185.61-.335.989-.451.372-.121.81-.215 1.313-.283l3.223-.427-.254.318-2.749-2.197c-.168-.135-.263-.277-.286-.428-.022-.151.031-.307.161-.469.129-.162.273-.252.43-.27.157-.017.319.041.487.176l3.441 2.75zm-7.092-5.823c.511.409.893.832 1.146 1.269.242.439.351.878.326 1.318-.031.435-.204.848-.518 1.241a2.22 2.22 0 0 1-.844.673c-.325.139-.66.193-1.004.163a2.275 2.275 0 0 1-.991-.332l.157-.197c.329.407.498.853.507 1.34-.002.489-.168.939-.496 1.35-.299.374-.647.617-1.043.729-.401.119-.828.11-1.28-.027-.458-.131-.917-.381-1.378-.749-.468-.374-.815-.769-1.044-1.187-.233-.411-.336-.825-.308-1.243.022-.411.182-.803.481-1.177.22-.275.477-.482.774-.623.29-.146.595-.214.914-.204.313.005.62.087.921.246l-.149.187c-.386-.411-.592-.876-.615-1.396-.035-.518.131-1.008.5-1.469.314-.393.683-.649 1.106-.77.418-.126.87-.117 1.357.027.476.146.97.423 1.481.831zm-.747.935c-.443-.354-.844-.536-1.202-.547-.364-.005-.681.161-.95.497-.269.337-.358.679-.269 1.027.09.347.356.698.799 1.052.436.348.837.531 1.202.547.359.011.673-.152.942-.488.269-.337.361-.682.276-1.036-.096-.352-.362-.703-.798-1.052zm-2.369 2.964a2.05 2.05 0 0 0-.726-.396 1.163 1.163 0 0 0-.678.024 1.24 1.24 0 0 0-.559.411c-.239.3-.32.618-.243.956.066.339.283.655.651.949.368.294.724.436 1.069.426.341-.004.63-.156.869-.455.244-.305.333-.627.267-.966-.066-.339-.283-.656-.65-.949z" fill="#fff"/><path d="M660.104 131.055c-.03.254-.108.433-.234.539-.132.096-.309.131-.531.104a.79.79 0 0 1-.379-.154 2.133 2.133 0 0 1-.366-.358l-2.254-2.695c-.336-.411-.649-.714-.939-.91a2.13 2.13 0 0 0-.922-.352c-.396-.048-.712.042-.949.271-.236.221-.382.568-.44 1.044-.032.269-.025.543.021.822.039.278.133.567.282.866.077.154.101.293.07.418a.586.586 0 0 1-.194.302.698.698 0 0 1-.721.082.701.701 0 0 1-.31-.327 3.987 3.987 0 0 1-.385-1.204 4.798 4.798 0 0 1-.023-1.304c.073-.603.225-1.098.457-1.488.232-.39.535-.671.91-.843.374-.171.811-.227 1.31-.167.333.04.651.135.954.284.305.142.606.343.904.604.299.253.609.576.931.968l2.059 2.516-.404-.049.423-3.493c.025-.214.096-.37.213-.469.116-.098.277-.135.483-.11.206.025.358.099.456.224.097.124.133.293.107.507l-.529 4.372zm1.22-9.094c-.078.65-.237 1.197-.475 1.642-.246.437-.562.76-.95.971-.386.202-.828.273-1.327.213a2.23 2.23 0 0 1-1.017-.364 2.077 2.077 0 0 1-.667-.768 2.273 2.273 0 0 1-.238-1.017l.249.03a2.145 2.145 0 0 1-.873 1.136c-.416.255-.886.351-1.409.288-.475-.058-.865-.225-1.169-.503-.312-.279-.528-.647-.65-1.104-.129-.457-.159-.979-.088-1.565.072-.594.225-1.098.46-1.512.227-.415.525-.72.895-.916.361-.198.779-.268 1.255-.21.348.042.66.152.936.33.277.17.495.393.655.67.16.268.252.573.275.913l-.238-.029c.147-.545.434-.964.864-1.258.422-.302.926-.418 1.512-.347.499.06.912.239 1.238.535.326.289.557.678.69 1.169.127.481.151 1.047.072 1.696zm-1.188-.143c.068-.563.013-1-.167-1.311-.187-.312-.495-.493-.922-.545-.428-.052-.766.052-1.015.311-.248.26-.406.67-.474 1.233-.067.554-.011.991.167 1.31.179.311.483.492.911.544.427.052.769-.052 1.026-.31.249-.267.407-.678.474-1.232zm-3.766-.456a2.071 2.071 0 0 0-.045-.825 1.169 1.169 0 0 0-.378-.564 1.24 1.24 0 0 0-.644-.259c-.38-.046-.693.053-.94.296-.253.235-.408.586-.465 1.053-.056.468.011.845.201 1.134.182.287.463.454.844.5.388.046.708-.047.962-.282.253-.235.408-.586.465-1.053z" fill="#fff"/></g><defs><clipPath id="clip0_7756_224836"><path fill="#fff" transform="rotate(-90 300.02 300.02)" d="M0 0h600.04v898.6H0z"/></clipPath><clipPath id="clip1_7756_224836"><path fill="#fff" transform="rotate(-90 354.6 68.6)" d="M0 0h230.69v326H0z"/></clipPath></defs></svg>