<svg width="44" height="41" viewBox="0 0 44 41" fill="none" xmlns="http://www.w3.org/2000/svg"><path d="M34.5 28.494c3.033 1.523 5.634 3.968 7.532 7.026.376.606.564.908.629 1.328.132.852-.45 1.899-1.244 2.236-.39.166-.83.166-1.708.166m-9.375-19.724a9.375 9.375 0 0 0 5.208-8.401 9.375 9.375 0 0 0-5.208-8.4m-4.167 8.4a9.375 9.375 0 1 1-18.75 0 9.375 9.375 0 0 1 18.75 0zM2.332 34.955c3.322-4.987 8.563-8.205 14.46-8.205s11.138 3.218 14.46 8.205c.728 1.092 1.091 1.639 1.05 2.337-.033.543-.39 1.208-.823 1.536-.558.422-1.325.422-2.858.422H4.963c-1.534 0-2.3 0-2.859-.422-.434-.328-.79-.993-.822-1.537-.042-.697.321-1.244 1.05-2.336z" stroke="#FF6900" stroke-width="2" stroke-linecap="round" stroke-linejoin="round"/></svg>