<svg width="900" height="601" viewBox="0 0 900 601" fill="none" xmlns="http://www.w3.org/2000/svg"><g clip-path="url(#clip0_7756_224966)"><path d="M604.95 5.04h-310.1C135.1 5.04 5.6 134.5 5.6 294.25v5.79c0 159.77 129.5 289.27 289.25 289.27h310.1c159.75 0 289.25-129.5 289.25-289.27v-5.81C894.2 134.5 764.7 5.04 604.95 5.04zm98.23 414.23a156.545 156.545 0 0 1-111.05 46H307.67a157.05 157.05 0 1 1 0-314.1h284.46a157 157 0 0 1 111.05 268.1z" fill="#E0E0E0"/><path d="M749.179 308.22a157.05 157.05 0 0 1-157.05 157h-284.46a157.05 157.05 0 1 1 0-314.1h284.46a157.043 157.043 0 0 1 111.069 46.017 157.059 157.059 0 0 1 45.981 111.083z" fill="#E0E0E0"/><path d="M274.989 136.12a173.196 173.196 0 0 0-51.49 17.92l-17.68-39.53 6.22-3.39-5.34-11.08a222.342 222.342 0 0 1 59.6-19.58l8.69 55.66zm39.82-58.86v56.1h-8.75c-4.846 0-9.646.197-14.4.59v-26.76h-11.86l-3.73-28.29c9.862-1.32 19.8-1.988 29.75-2h7.54c.94.23 1.45.36 1.45.36zm61.561-.32v56.42H347v-28.6h-8.47v28.6h-19.19V76.94h57.03zm74.73 0v56.42h-30.86v-28.6h-9.99v28.6h-26.54V76.94h67.39zm74.909 0v56.42h-30.49v-28.6h-10.17v28.6h-29.36V76.94h70.02zm57.72 0v56.42h-16.47l.54-28.6h-9.91l-.19 28.6h-26.04V76.94h52.07zm47.38 1.96l-2.32 17h-16.38v38.4h-.3a177.303 177.303 0 0 0-18.23-.94h-5.19V76.94h12.7c9.939-.001 19.868.654 29.72 1.96zm63.75 32.24l-20.4 41.9a173.5 173.5 0 0 0-42.6-15.51l3.14-43.86c32.19 3.37 59.86 17.47 59.86 17.47zm-.53-14.1l-3.42 9.27s-16.25-10.13-57-16.16l1.45-10.69a222.324 222.324 0 0 1 58.97 17.58zm55.87 52.22l-33.89 34.16a175.13 175.13 0 0 0-37.62-28.14l20.69-42.44c25.71 13.71 50.82 36.42 50.82 36.42zm13.16-3.06l-6.38 5.84c-20.18-21.83-50-39.25-50-39.25l2.68-8a224.976 224.976 0 0 1 53.7 41.41zm35.121 72.84l-44 20.15a174.28 174.28 0 0 0-25.1-41.4l33.54-33.81c25.96 28.2 35.56 55.06 35.56 55.06z" fill="#C9C5C5"/><path d="M806.3 210.32l-6.41 3.32c-18.07-37.84-40.09-58.45-40.09-58.45l6.41-5.95a223.951 223.951 0 0 1 40.09 61.08zm9.12 72.78l-47.72 7.17a173.504 173.504 0 0 0-11.24-46.31l-.33-1.52 43.47-19.77a217.437 217.437 0 0 1 15.82 60.43z" fill="#C9C5C5"/><path d="M825.06 288.27h-6.72c-1.32-31.71-14.12-61.93-14.12-61.93l7-3.85a222.65 222.65 0 0 1 13.84 65.78zm.23 20.14a223.15 223.15 0 0 1-12.41 66.63l-52-15.23a174.432 174.432 0 0 0 7.72-48.77l56.69-2.63zm-14.751 72.97a223.514 223.514 0 0 1-30 54.08l-42.51-28.64a174.156 174.156 0 0 0 21.18-42.11l51.33 16.67zm-41.82 68.52a220.9 220.9 0 0 1-8.93 9.47 224.888 224.888 0 0 1-42.54 33.36l-24.89-40.32a174.707 174.707 0 0 0 25.07-20.79 173.855 173.855 0 0 0 9.35-10.12l41.94 28.4zm-55.61 45.28a222.385 222.385 0 0 1-70.16 26l-6-43.69a174.047 174.047 0 0 0 52-22.74l24.16 40.43zM225.27 63.26l6.33 18.78a227.776 227.776 0 0 0-21.37 8.9l-26.72-61a287.752 287.752 0 0 1 36.42-14.2l12.13 44.94-6.79 2.58zm69.629-60.51l-4.9 66.65a229.414 229.414 0 0 0-40.35 7l-4.65-20.17-7.25 2.49-9.64-45.38a291.292 291.292 0 0 1 66.79-10.59zm44.861-.26l-2.16 44.45-4.47.34-1.53 21.28h-21.84c-4.78 0-9.527.144-14.24.43l4.94-66.41c2.28-.06 4.566-.09 6.86-.09h32.44zm75.98 0l-2.44 43.99-5.49-.2-1.56 22.28h-56.93l1.55-22.03h-7.74l1.89-44.04h70.72zm75.43 0l-3.62 44.87-4.33-.08-1.77 21.28h-56.72l1.56-21.78h-7.49l2.12-44.29h70.25zm74.44 0l-3.88 44.99-4.04.18-2.01 20.9h-56.87l1.73-21.31h-8.28l3.8-44.76h69.55zm49.74.28l-3.82 66.2c-4.55-.27-9.15-.41-13.77-.41h-27.32l1.94-21.62h-6.54l3.66-44.45h33c4.3 0 8.583.094 12.85.28zm71.359 12.07l-10.37 40.34-8.48-1.7-6 24.07a231.262 231.262 0 0 0-46.17-8.3l4-66.25a290.303 290.303 0 0 1 67.02 11.84zm90.941 46.08l-24 36.91-6.3-4.19-12.63 19.7a231.47 231.47 0 0 0-56.8-30.55l9.57-24.75-7-1.93 11-39.83a290.943 290.943 0 0 1 86.16 44.64zm70.19 75.44l-33.61 27.58-1.94-3.59-19.69 14.37a232.66 232.66 0 0 0-44.72-51l14.28-20.2-4.85-2.79 25-36.26a293.01 293.01 0 0 1 65.53 71.89zm39.05 92.68l-36.55 15.13-2.91-7.51-24.47 8.62a230.175 230.175 0 0 0-23.28-58.83l21.58-13.76-3.88-6.3 32.94-26.13a289.752 289.752 0 0 1 36.57 88.78zm7.31 65.18a293.309 293.309 0 0 1-2.45 37.94l-39.48 1.34.14-4.52-24.81 1.17a234.574 234.574 0 0 0-1-66.94l26.26-7.78-1.55-6.64 36.8-14.26a292.725 292.725 0 0 1 6.09 59.69zm-3.37 44.52a289.768 289.768 0 0 1-29.68 90.49l-35.06-11.07 2-6.42-24.34-5.15a230.13 230.13 0 0 0 21.58-62.34l25 1.24 1.28-7.72 39.22.97zm-32.64 95.99a292.767 292.767 0 0 1-49.44 65.78c-3.84 3.84-7.787 7.57-11.84 11.19l-29.77-25.07 5.69-5-16.23-12.59c1.7-1.593 3.366-3.213 5-4.86a233.152 233.152 0 0 0 34.54-44l22.18 7.64 3.22-4.92 36.65 11.83zm-64.59 79.88a291.53 291.53 0 0 1-85.52 51.63l-17.26-31.88 7.72-4.32-9.54-16.6a231.719 231.719 0 0 0 57.11-35l12.88 13.09 4.5-3.65 30.11 26.73zm-91.57 53.91a290.177 290.177 0 0 1-48.53 13l-10.33-53.88a230.771 230.771 0 0 0 31.65-8.66l7.42 19.24 5.15-2 14.64 32.3z" fill="#C9C5C5"/><path d="M592.129 151.17h-284.46c-86.736 0-157.05 70.314-157.05 157.05 0 86.736 70.314 157.05 157.05 157.05h284.46c86.736 0 157.05-70.314 157.05-157.05 0-86.736-70.314-157.05-157.05-157.05z" stroke="#fff" stroke-width="10" stroke-miterlimit="10"/><path d="M225.27 63.26l6.33 18.78a227.776 227.776 0 0 0-21.37 8.9l-26.72-61a287.752 287.752 0 0 1 36.42-14.2l12.13 44.94-6.79 2.58zm69.629-60.51l-4.9 66.65a229.414 229.414 0 0 0-40.35 7l-4.65-20.17-7.25 2.49-9.64-45.38a291.292 291.292 0 0 1 66.79-10.59zm44.861-.26l-2.16 44.45-4.47.34-1.53 21.28h-21.84c-4.78 0-9.527.144-14.24.43l4.94-66.41c2.28-.06 4.566-.09 6.86-.09h32.44zm75.98 0l-2.44 43.99-5.49-.2-1.56 22.28h-56.93l1.55-22.03h-7.74l1.89-44.04h70.72zm75.43 0l-3.62 44.87-4.33-.08-1.77 21.28h-56.72l1.56-21.78h-7.49l2.12-44.29h70.25zm74.44 0l-3.88 44.99-4.04.18-2.01 20.9h-56.87l1.73-21.31h-8.28l3.8-44.76h69.55zm49.74.28l-3.82 66.2c-4.55-.27-9.15-.41-13.77-.41h-27.32l1.94-21.62h-6.54l3.66-44.45h33c4.3 0 8.583.094 12.85.28zm71.359 12.07l-10.37 40.34-8.48-1.7-6 24.07a231.262 231.262 0 0 0-46.17-8.3l4-66.25a290.303 290.303 0 0 1 67.02 11.84zm15.321 553.68a290.177 290.177 0 0 1-48.53 13l-10.33-53.88a230.771 230.771 0 0 0 31.65-8.66l7.42 19.24 5.15-2 14.64 32.3zm75.62-507.6l-24 36.91-6.3-4.19-12.63 19.7a231.47 231.47 0 0 0-56.8-30.55l9.57-24.75-7-1.93 11-39.83a290.943 290.943 0 0 1 86.16 44.64zm15.95 453.69a291.53 291.53 0 0 1-85.52 51.63l-17.26-31.88 7.72-4.32-9.54-16.6a231.719 231.719 0 0 0 57.11-35l12.88 13.09 4.5-3.65 30.11 26.73zm54.24-378.25l-33.61 27.58-1.94-3.59-19.69 14.37a232.66 232.66 0 0 0-44.72-51l14.28-20.2-4.85-2.79 25-36.26a293.01 293.01 0 0 1 65.53 71.89zm10.35 298.37a292.767 292.767 0 0 1-49.44 65.78c-3.84 3.84-7.787 7.57-11.84 11.19l-29.77-25.07 5.69-5-16.23-12.59c1.7-1.593 3.366-3.213 5-4.86a233.152 233.152 0 0 0 34.54-44l22.18 7.64 3.22-4.92 36.65 11.83zm28.7-205.69l-36.55 15.13-2.91-7.51-24.47 8.62a230.175 230.175 0 0 0-23.28-58.83l21.58-13.76-3.88-6.3 32.94-26.13a289.752 289.752 0 0 1 36.57 88.78zm3.94 109.7a289.768 289.768 0 0 1-29.68 90.49l-35.06-11.07 2-6.42-24.34-5.15a230.13 230.13 0 0 0 21.58-62.34l25 1.24 1.28-7.72 39.22.97zm3.37-44.52a293.309 293.309 0 0 1-2.45 37.94l-39.48 1.34.14-4.52-24.81 1.17a234.574 234.574 0 0 0-1-66.94l26.26-7.78-1.55-6.64 36.8-14.26a292.725 292.725 0 0 1 6.09 59.69zM266.299 80.42l8.69 55.7a173.196 173.196 0 0 0-51.49 17.92l-17.68-39.53 6.22-3.39-5.34-11.08a222.345 222.345 0 0 1 59.6-19.62zm47.06-3.48c.94.19 1.45.32 1.45.32v56.1h-8.75c-4.846 0-9.646.197-14.4.59v-26.76h-11.86l-3.73-28.29c9.862-1.32 19.8-1.988 29.75-2l7.54.04zm63.011 0v56.42H347v-28.6h-8.47v28.6h-19.19V76.94h57.03zm74.73 0v56.42h-30.86v-28.6h-9.99v28.6h-26.54V76.94h67.39zm74.909 0v56.42h-30.49v-28.6h-10.17v28.6h-29.36V76.94h70.02zm57.72 0v56.42h-16.47l.54-28.6h-9.91l-.19 28.6h-26.04V76.94h52.07zm47.38 1.96l-2.32 17h-16.38v38.4h-.3a177.303 177.303 0 0 0-18.23-.94h-5.19V76.94h12.7c9.939-.001 19.868.654 29.72 1.96zm82 416.28a222.385 222.385 0 0 1-70.16 26l-6-43.69a174.047 174.047 0 0 0 52-22.74l24.16 40.43zm55.61-45.28a220.9 220.9 0 0 1-8.93 9.47 224.888 224.888 0 0 1-42.54 33.36l-24.89-40.32a174.707 174.707 0 0 0 25.07-20.79 173.855 173.855 0 0 0 9.35-10.12l41.94 28.4zm41.82-68.52a223.514 223.514 0 0 1-30 54.08l-42.51-28.64a174.156 174.156 0 0 0 21.18-42.11l51.33 16.67zm14.751-72.97a223.15 223.15 0 0 1-12.41 66.63l-52-15.23a174.432 174.432 0 0 0 7.72-48.77l56.69-2.63z" fill="#C9C5C5"/><path d="M604.95 5h-310.1C135.101 5 5.6 134.502 5.6 294.25v5.81c0 159.748 129.501 289.25 289.25 289.25h310.1c159.748 0 289.25-129.502 289.25-289.25v-5.81C894.2 134.502 764.698 5 604.95 5z" stroke="#fff" stroke-width="10" stroke-miterlimit="10"/><path d="M275.85 494.8h350.94v105.24H275.85V494.8z" fill="#C9C5C5"/><g clip-path="url(#clip1_7756_224966)"><path d="M317.72 367.264V249.626l-31.12 12.728v89.122l31.12 15.788zm0-150.233h68.775v67.732H481.8a33.364 33.364 0 0 0-.164 45.32h-95.141v68.752H317.72V217.031z" fill="#C9C5C5"/><path d="M490.225 192.55v50.925h81.321V192.55h-81.321z" fill="#0062CC"/><path d="M533.911 222.193a.63.63 0 0 1-.099.359.76.76 0 0 1-.306.222l-4.703 2.052a.544.544 0 0 1-.353.045.406.406 0 0 1-.239-.17.522.522 0 0 1-.085-.305c.001-.154.037-.269.106-.343a.708.708 0 0 1 .298-.197l4.406-1.863-.002.344-4.386-1.921a.772.772 0 0 1-.286-.211.493.493 0 0 1-.101-.336.456.456 0 0 1 .09-.288.387.387 0 0 1 .241-.15.586.586 0 0 1 .352.059l4.671 2.124c.133.06.234.135.303.226a.58.58 0 0 1 .093.353zm.044-5.703a.63.63 0 0 1-.099.359.76.76 0 0 1-.306.222l-4.704 2.052a.54.54 0 0 1-.352.045.406.406 0 0 1-.239-.17.521.521 0 0 1-.085-.304c.001-.155.036-.27.106-.344a.708.708 0 0 1 .298-.197l4.406-1.863-.002.344-4.386-1.921a.772.772 0 0 1-.286-.211.493.493 0 0 1-.102-.336.45.45 0 0 1 .091-.288.387.387 0 0 1 .241-.15.582.582 0 0 1 .351.059l4.672 2.124c.133.06.234.135.302.226a.573.573 0 0 1 .094.353zm.03-3.975c-.001.165-.047.293-.139.383a.57.57 0 0 1-.393.125l-4.711-.036c-.171-.002-.301-.045-.391-.131a.522.522 0 0 1-.134-.385c.002-.166.048-.291.139-.375.092-.09.223-.135.393-.133l4.712.036a.566.566 0 0 1 .391.131c.09.086.135.214.133.385zm.018-2.258c-.002.166-.048.293-.139.383a.57.57 0 0 1-.393.125l-4.656-.036c-.171-.001-.298-.047-.383-.139-.09-.091-.134-.219-.133-.385l.015-1.928c.004-.618.163-1.094.475-1.428.312-.334.745-.498 1.3-.494.554.004.988.176 1.3.514.306.338.457.817.453 1.436l-.011 1.423 1.648.013a.57.57 0 0 1 .391.131c.09.086.134.215.133.385zm-2.98-.535l.009-1.264c.003-.362-.075-.638-.233-.826-.164-.187-.403-.283-.718-.285-.315-.002-.553.089-.714.274-.162.186-.244.46-.247.823l-.009 1.264 1.912.014z" fill="#fff"/><path d="M490.225 372.432v49.399h81.321v-49.399h-81.321z" fill="#0062CC"/><path d="M393.623 192.55v50.925h94.022V192.55h-94.022zm0 179.882v49.399h94.022v-49.398l-94.022-.001zm0-2.626v-30.594h89.521v8.19h58.452l10.065-10.694v-21.901h20.134v54.999H393.623zm0-123.601v31.068h88.581v-8.66h59.392l10.065 10.695v21.9h20.134v-55.003H393.623zm180.94 175.626V315.277h16.808v18.847h19.349v87.707h-36.157zm0-228.811v107.959h16.808v-18.843h19.349V193.02h-36.157z" fill="#C9C5C5"/><path d="M390.912 279.58h93.787v-8.688h54.976l9.092 9.092v23.222h42.942v9.12h-42.651v24.17l-8.603 8.604h-54.689v-8.19h-94.445v69.029h-72.662v-5.943h69.542v-68.133h93.063l2.35-.249a33.358 33.358 0 0 0 36.123 7.26 33.359 33.359 0 0 0 20.776-30.43 33.364 33.364 0 0 0-19.914-31.001 33.361 33.361 0 0 0-36.313 6.244h-96.362v-68.329h-69.265v-6.579h72.253v70.801z" fill="#C9C5C5"/><path d="M541.531 307.932c0-19.219-15.58-34.799-34.799-34.799s-34.799 15.58-34.799 34.799 15.58 34.799 34.799 34.799 34.799-15.58 34.799-34.799z" fill="#C9C5C5" stroke="#fff" stroke-width="5" stroke-miterlimit="10"/><path d="M592.644 283.433v49.666h18.076v-49.666h-18.076z" fill="#C9C5C5"/><path d="M533.911 402.486a.636.636 0 0 1-.099.36.749.749 0 0 1-.306.221l-4.703 2.052a.531.531 0 0 1-.353.045.41.41 0 0 1-.239-.169.525.525 0 0 1-.085-.305c.001-.155.037-.269.106-.343a.7.7 0 0 1 .298-.198l4.406-1.862-.002.344-4.386-1.922a.782.782 0 0 1-.286-.21.497.497 0 0 1-.101-.337.453.453 0 0 1 .09-.287.378.378 0 0 1 .241-.15.584.584 0 0 1 .352.058l4.671 2.124c.133.06.234.135.303.227a.575.575 0 0 1 .093.352zm.044-5.703a.636.636 0 0 1-.099.36.749.749 0 0 1-.306.221l-4.704 2.052a.528.528 0 0 1-.352.045.41.41 0 0 1-.239-.169.525.525 0 0 1-.085-.305c.001-.155.036-.269.106-.343a.7.7 0 0 1 .298-.198l4.406-1.862-.002.344-4.386-1.922a.782.782 0 0 1-.286-.21.497.497 0 0 1-.102-.337.448.448 0 0 1 .091-.287.378.378 0 0 1 .241-.15.58.58 0 0 1 .351.058l4.672 2.124c.133.06.234.135.302.227a.568.568 0 0 1 .094.352zm.03-3.975c-.001.166-.047.293-.139.383a.561.561 0 0 1-.393.125l-4.711-.036c-.171-.001-.301-.045-.391-.131-.09-.091-.135-.22-.134-.385.002-.165.048-.29.139-.375.092-.09.223-.134.393-.133l4.712.036a.57.57 0 0 1 .391.131c.09.086.135.215.133.385zm.018-2.257c-.002.165-.048.293-.139.383a.574.574 0 0 1-.393.125l-4.656-.036c-.171-.002-.298-.048-.383-.139-.09-.092-.134-.22-.133-.385l.015-1.928c.004-.619.163-1.095.475-1.429.312-.333.745-.498 1.3-.494.554.005.988.176 1.3.514.306.339.457.817.453 1.436l-.011 1.424 1.648.013a.57.57 0 0 1 .391.131c.09.086.134.214.133.385zm-2.98-.535l.009-1.264c.003-.363-.075-.638-.233-.826-.164-.188-.403-.283-.718-.286-.315-.002-.553.089-.714.275-.162.185-.244.459-.247.822l-.009 1.264 1.912.015z" fill="#fff"/></g><path d="M215.689 59.397c.046.202.028.374-.054.515a.673.673 0 0 1-.43.27c-.202.046-.366.026-.492-.06-.128-.093-.215-.242-.261-.444l-.298-1.307-5.729 1.305-.165-.723 1.429 1.479c.12.128.186.26.201.396a.672.672 0 0 1-.089.364.758.758 0 0 1-.287.25.63.63 0 0 1-.379.06.695.695 0 0 1-.395-.228l-1.336-1.39a3.27 3.27 0 0 1-.339-.413 1.08 1.08 0 0 1-.204-.408.625.625 0 0 1 .047-.44c.061-.129.192-.216.395-.262l6.511-1.483-.271-1.19c-.046-.203-.031-.37.046-.502.074-.14.212-.233.415-.279.202-.046.371-.023.506.07.134.083.224.226.27.429l.909 3.99zm-1.713-8.063c.076.335.104.693.084 1.073-.027.383-.11.754-.249 1.113a.561.561 0 0 1-.248.314.74.74 0 0 1-.356.106.74.74 0 0 1-.353-.092.512.512 0 0 1-.235-.278c-.052-.119-.051-.262 0-.43.096-.3.148-.573.157-.82a2.787 2.787 0 0 0-.066-.722c-.103-.451-.295-.809-.576-1.072-.281-.263-.649-.425-1.104-.485-.465-.066-1.009-.028-1.631.114l-.876.2-.032-.14c.402-.035.769.016 1.103.153.334.137.614.343.841.619.219.277.371.607.458.988.107.467.089.913-.051 1.337a2.44 2.44 0 0 1-.737 1.077c-.357.302-.788.51-1.294.625-.536.123-1.037.118-1.5-.014a2.579 2.579 0 0 1-1.189-.748c-.336-.357-.563-.8-.684-1.33-.156-.684-.128-1.3.083-1.847.21-.547.595-1.015 1.153-1.404.55-.387 1.257-.68 2.12-.876.7-.16 1.341-.22 1.923-.18.572.033 1.08.16 1.522.377.443.219.812.528 1.107.927.294.391.504.863.63 1.415zm-4.358.539a1.456 1.456 0 0 0-.354-.693 1.369 1.369 0 0 0-.651-.38 1.796 1.796 0 0 0-.834.006 1.76 1.76 0 0 0-.753.356 1.29 1.29 0 0 0-.411.621 1.446 1.446 0 0 0-.019.778c.063.28.181.511.354.693.172.181.385.309.639.382.252.065.53.063.833-.006a1.79 1.79 0 0 0 .754-.356c.197-.175.338-.383.423-.624.076-.238.083-.497.019-.777zm60.51-1.81c.057.25.044.444-.038.586-.092.136-.247.228-.465.278a.796.796 0 0 1-.409-.018 2.135 2.135 0 0 1-.466-.213l-3.031-1.776c-.455-.273-.852-.453-1.191-.54a2.125 2.125 0 0 0-.987-.02c-.389.089-.656.28-.801.575-.148.287-.168.664-.062 1.131.06.265.159.52.297.767.131.249.316.489.557.72.126.12.195.242.207.37a.58.58 0 0 1-.08.35.676.676 0 0 1-.275.247.696.696 0 0 1-.376.073.698.698 0 0 1-.402-.203 3.982 3.982 0 0 1-.769-1.003 4.838 4.838 0 0 1-.462-1.22c-.134-.592-.158-1.11-.072-1.555.087-.446.278-.812.572-1.1.295-.288.687-.488 1.177-.6.327-.074.658-.092.994-.054.334.03.686.118 1.054.263a7.48 7.48 0 0 1 1.204.597l2.787 1.673-.397.09-.781-3.43c-.048-.21-.034-.381.043-.513.076-.132.215-.221.418-.267.202-.046.37-.027.504.057.133.084.224.231.272.441l.978 4.294zm-1.655-7.265c.046.202.028.374-.054.516a.673.673 0 0 1-.43.27c-.202.045-.366.025-.492-.06-.128-.094-.215-.242-.261-.444l-.297-1.307-5.73 1.305-.165-.724 1.43 1.479a.69.69 0 0 1 .2.396.663.663 0 0 1-.089.364.758.758 0 0 1-.287.25.629.629 0 0 1-.378.061.695.695 0 0 1-.396-.229l-1.336-1.39a3.352 3.352 0 0 1-.339-.413 1.094 1.094 0 0 1-.204-.408.625.625 0 0 1 .047-.44c.061-.129.193-.216.395-.262l6.512-1.483-.272-1.19c-.046-.203-.031-.37.046-.502.074-.14.213-.232.415-.278.202-.046.371-.023.507.068.133.084.223.228.269.43l.909 3.99zm50.165 2.755c-.007.255-.068.44-.182.557-.123.109-.296.16-.519.154a.792.792 0 0 1-.392-.119 2.125 2.125 0 0 1-.399-.322l-2.495-2.474c-.373-.377-.713-.65-1.019-.817a2.127 2.127 0 0 0-.951-.265c-.399-.011-.705.108-.92.358-.214.242-.327.602-.34 1.08-.008.271.025.544.097.817.065.273.185.552.361.836.092.146.128.283.109.41a.587.587 0 0 1-.165.319.679.679 0 0 1-.328.17.695.695 0 0 1-.382-.022.7.7 0 0 1-.339-.297 3.997 3.997 0 0 1-.496-1.162 4.795 4.795 0 0 1-.144-1.297c.016-.606.122-1.114.316-1.524.195-.41.471-.718.828-.924.356-.206.786-.302 1.288-.288.335.009.661.074.977.194.316.112.635.285.956.517.321.224.66.516 1.018.877l2.284 2.313-.407-.011.095-3.518c.006-.215.062-.377.169-.486.107-.109.264-.16.471-.155.207.006.365.066.474.18.109.115.16.28.154.496l-.119 4.403zm.363-9.001a5.68 5.68 0 0 1-.203 1.335c-.125.46-.303.858-.536 1.195a.804.804 0 0 1-.367.313.655.655 0 0 1-.384.038.685.685 0 0 1-.319-.189.61.61 0 0 1-.146-.35.81.81 0 0 1 .121-.464c.184-.323.32-.634.408-.935.08-.301.124-.611.133-.93.009-.351-.03-.648-.12-.89a1.086 1.086 0 0 0-.416-.55 1.221 1.221 0 0 0-.689-.21c-.398-.01-.697.117-.896.383-.206.258-.317.642-.33 1.152l-.021.766c-.006.223-.067.393-.181.51-.115.109-.272.16-.472.155-.199-.006-.353-.066-.462-.18-.108-.123-.159-.296-.153-.52l.017-.621a1.908 1.908 0 0 0-.123-.782 1.213 1.213 0 0 0-.417-.514 1.2 1.2 0 0 0-.665-.198c-.367-.01-.65.107-.848.349-.198.234-.303.582-.315 1.045-.008.295.02.575.085.84.057.257.173.544.348.86a.646.646 0 0 1 .096.421.536.536 0 0 1-.164.319.682.682 0 0 1-.316.171.63.63 0 0 1-.382-.034.682.682 0 0 1-.339-.309 3.94 3.94 0 0 1-.472-1.15 4.607 4.607 0 0 1-.145-1.285c.016-.582.121-1.078.316-1.488.186-.41.45-.718.791-.924.333-.215.735-.316 1.205-.303.335.01.641.081.917.216a1.992 1.992 0 0 1 1.063 1.406l-.144-.004c.112-.572.363-1.012.754-1.32.384-.31.859-.456 1.425-.44.495.013.922.148 1.282.405s.634.616.821 1.076c.179.46.26 1.005.243 1.635zm64.668 7.86c-.014.255-.08.439-.198.552-.126.105-.3.151-.523.139a.797.797 0 0 1-.389-.13 2.145 2.145 0 0 1-.389-.333l-2.423-2.544c-.362-.388-.694-.67-.996-.846a2.125 2.125 0 0 0-.943-.293c-.398-.022-.708.089-.929.332-.221.236-.345.592-.371 1.07-.015.271.009.544.074.82.057.274.169.556.337.845.087.15.119.287.096.413a.58.58 0 0 1-.173.314.678.678 0 0 1-.332.162.695.695 0 0 1-.382-.033.7.7 0 0 1-.331-.307 3.973 3.973 0 0 1-.462-1.176 4.83 4.83 0 0 1-.107-1.3c.033-.606.153-1.11.36-1.515a2.04 2.04 0 0 1 .853-.9c.362-.195.794-.279 1.296-.25.335.018.658.092.971.22.313.122.626.303.941.545.314.233.645.535.992.906l2.217 2.377-.406-.023.195-3.513c.012-.215.073-.376.183-.482.11-.105.268-.152.475-.14.207.01.364.075.469.193.105.118.152.284.14.5l-.245 4.397zm.633-9.226a5.2 5.2 0 0 1-.239 1.281 4.174 4.174 0 0 1-.581 1.178.77.77 0 0 1-.352.293.752.752 0 0 1-.396.014.684.684 0 0 1-.325-.198.564.564 0 0 1-.148-.344.734.734 0 0 1 .132-.436c.184-.286.328-.577.432-.875a3.45 3.45 0 0 0 .185-.961 1.906 1.906 0 0 0-.131-.87 1.293 1.293 0 0 0-.471-.578 1.454 1.454 0 0 0-.743-.233c-.446-.025-.812.09-1.098.346-.294.256-.454.619-.48 1.089-.014.255.016.504.091.748.066.243.196.486.391.729.059.075.118.17.175.285.05.115.071.236.064.363-.011.2-.071.348-.18.446-.11.098-.256.142-.439.131l-3.908-.217c-.215-.012-.375-.077-.48-.195-.113-.126-.164-.296-.152-.511l.219-3.932c.012-.215.077-.375.194-.48.111-.114.269-.165.476-.154.199.011.351.08.456.205.106.118.152.284.14.5l-.172 3.106 2.676.15-.021.394a2.016 2.016 0 0 1-.6-.86 2.768 2.768 0 0 1-.165-1.137c.03-.533.171-.989.424-1.367.245-.385.577-.675.995-.867.411-.201.883-.287 1.417-.257.55.03 1.029.181 1.437.451.401.27.708.643.921 1.118.206.467.291 1.016.256 1.645zm71.339 9.354c-.007.256-.068.441-.184.558-.123.108-.296.159-.519.152a.798.798 0 0 1-.392-.12 2.128 2.128 0 0 1-.397-.323l-2.489-2.48c-.372-.378-.711-.651-1.017-.82a2.126 2.126 0 0 0-.95-.268c-.399-.012-.706.107-.921.356-.215.241-.329.601-.343 1.08-.008.27.024.543.095.817.064.273.184.552.359.836.091.147.127.283.107.41a.579.579 0 0 1-.165.319.68.68 0 0 1-.328.17.698.698 0 0 1-.383-.023.697.697 0 0 1-.338-.298 3.975 3.975 0 0 1-.492-1.164 4.837 4.837 0 0 1-.142-1.297c.018-.606.125-1.114.321-1.523.196-.41.472-.717.829-.922.358-.205.788-.3 1.29-.285.335.01.66.076.976.197.316.113.634.286.955.519.32.225.659.518 1.015.88l2.278 2.319-.406-.012.104-3.518c.006-.215.063-.377.17-.485.107-.109.264-.16.471-.154.208.006.365.067.474.182.108.114.159.28.153.495l-.131 4.402zm.322-7.636a.741.741 0 0 1-.145.45.522.522 0 0 1-.353.205c-.152.02-.319-.021-.499-.122l-6.688-3.814.526.015-.115 3.876c-.006.216-.067.381-.182.498-.115.108-.272.16-.472.154-.207-.007-.365-.067-.473-.182-.108-.123-.159-.292-.153-.508l.137-4.63a.808.808 0 0 1 .183-.52c.116-.133.278-.196.485-.19.175.005.33.034.464.086.127.051.264.12.413.204l6.396 3.59a.855.855 0 0 1 .372.358c.076.138.111.314.104.53zm78.715 9.459c-.017.255-.085.438-.204.55-.127.104-.302.148-.524.134a.791.791 0 0 1-.387-.134 2.106 2.106 0 0 1-.386-.337l-2.398-2.568c-.358-.392-.687-.677-.988-.857a2.124 2.124 0 0 0-.939-.301c-.398-.026-.709.081-.933.322-.223.234-.35.59-.382 1.067-.018.27.004.544.066.82.054.275.164.558.328.849.087.15.117.287.093.414a.585.585 0 0 1-.176.312.685.685 0 0 1-.334.158.697.697 0 0 1-.382-.037.698.698 0 0 1-.327-.31 3.968 3.968 0 0 1-.451-1.18 4.827 4.827 0 0 1-.094-1.302c.04-.605.165-1.109.375-1.51.21-.403.498-.7.862-.892.364-.191.797-.271 1.299-.238.334.022.657.1.968.231.312.125.624.31.936.554.312.236.64.541.983.916l2.193 2.399-.406-.027.231-3.511c.014-.215.076-.375.187-.48.111-.104.27-.15.477-.136.207.013.362.08.467.198.104.12.149.286.135.5l-.289 4.396zm.677-8.49a3.875 3.875 0 0 1-.225 1.052c-.135.359-.321.69-.557.995a.56.56 0 0 1-.327.23.737.737 0 0 1-.371 0 .732.732 0 0 1-.312-.189.513.513 0 0 1-.146-.333c-.015-.129.026-.266.123-.412.177-.26.305-.507.385-.742.079-.235.127-.471.142-.71.031-.462-.051-.86-.245-1.192-.194-.333-.501-.593-.921-.78-.427-.196-.959-.315-1.595-.357l-.896-.058.009-.144c.395.082.732.236 1.013.463.281.226.491.504.629.833.131.328.183.687.157 1.077-.031.478-.175.9-.431 1.267a2.44 2.44 0 0 1-1.013.821 2.992 2.992 0 0 1-1.418.231c-.55-.036-1.028-.183-1.435-.442a2.583 2.583 0 0 1-.926-1.056 2.81 2.81 0 0 1-.275-1.47c.046-.7.248-1.283.606-1.747.359-.464.861-.803 1.506-1.016.638-.214 1.399-.292 2.283-.234.716.047 1.348.172 1.894.376.539.195.989.46 1.351.796s.627.737.796 1.204c.17.459.237.97.199 1.536zm-4.33-.729a1.452 1.452 0 0 0-.141-.765 1.37 1.37 0 0 0-.516-.55 1.796 1.796 0 0 0-.8-.232 1.75 1.75 0 0 0-.824.126 1.287 1.287 0 0 0-.571.478 1.449 1.449 0 0 0-.241.74 1.46 1.46 0 0 0 .142.765c.113.223.281.406.504.549.223.134.49.212.8.232.303.02.577-.022.824-.126a1.48 1.48 0 0 0 .583-.477c.141-.207.222-.453.24-.74zm62.874 8.431c-.025.43-.107.873-.246 1.329a3.842 3.842 0 0 1-.572 1.177.805.805 0 0 1-.378.301.656.656 0 0 1-.385.026.685.685 0 0 1-.312-.199.604.604 0 0 1-.135-.355.82.82 0 0 1 .135-.46c.195-.316.34-.623.438-.921.089-.299.144-.607.162-.926.021-.35-.009-.648-.091-.892a1.09 1.09 0 0 0-.398-.563 1.224 1.224 0 0 0-.682-.232c-.398-.024-.701.094-.908.354-.215.251-.337.632-.367 1.141l-.045.765c-.013.223-.079.39-.198.504-.118.105-.276.151-.475.14-.2-.012-.352-.077-.457-.195-.104-.126-.15-.3-.137-.524l.037-.62a1.903 1.903 0 0 0-.098-.786 1.213 1.213 0 0 0-.4-.527 1.201 1.201 0 0 0-.659-.219c-.366-.021-.652.086-.858.322-.205.227-.321.572-.348 1.034-.018.295.002.576.058.843.049.258.155.548.32.87a.65.65 0 0 1 .083.424.534.534 0 0 1-.174.314.682.682 0 0 1-.321.16.63.63 0 0 1-.381-.046.686.686 0 0 1-.329-.319 3.943 3.943 0 0 1-.435-1.164 4.593 4.593 0 0 1-.104-1.29c.034-.58.155-1.073.363-1.477.199-.404.473-.703.82-.898.34-.204.744-.292 1.214-.265.335.02.638.102.909.246a1.987 1.987 0 0 1 1.018 1.438l-.143-.008c.129-.568.394-1 .796-1.296.393-.297.872-.428 1.437-.395.494.03.917.178 1.269.446.352.269.614.636.786 1.102.165.465.229 1.012.191 1.641zm.211-5.617c-.012.207-.077.367-.196.48a.673.673 0 0 1-.488.139c-.207-.012-.359-.077-.456-.195-.096-.125-.138-.292-.126-.499l.079-1.338-5.867-.345.044-.741.96 1.819a.692.692 0 0 1 .082.436.668.668 0 0 1-.187.325.763.763 0 0 1-.345.16.632.632 0 0 1-.381-.047.697.697 0 0 1-.316-.33l-.895-1.707a3.447 3.447 0 0 1-.211-.492 1.09 1.09 0 0 1-.081-.449.623.623 0 0 1 .168-.41c.094-.106.245-.153.452-.14l6.667.392.071-1.219c.013-.207.074-.363.184-.469.11-.113.269-.164.476-.151.207.012.363.08.468.207.105.118.151.28.139.488l-.241 4.086zm53.038 8.032a5.745 5.745 0 0 1-.418 1.285 3.856 3.856 0 0 1-.722 1.092.805.805 0 0 1-.414.25.656.656 0 0 1-.385-.026.677.677 0 0 1-.283-.237.605.605 0 0 1-.087-.37.808.808 0 0 1 .194-.439c.234-.288.419-.573.554-.856.128-.284.222-.583.282-.896.067-.345.076-.644.027-.897a1.086 1.086 0 0 0-.322-.61 1.224 1.224 0 0 0-.645-.32c-.392-.075-.707.003-.947.233-.245.22-.416.582-.513 1.083l-.145.753c-.042.219-.129.377-.261.473-.131.089-.294.114-.49.077-.196-.038-.338-.122-.427-.253-.087-.139-.11-.318-.067-.537l.117-.611c.058-.298.06-.562.006-.791a1.207 1.207 0 0 0-.328-.575 1.203 1.203 0 0 0-.624-.303c-.361-.07-.658 0-.893.206-.233.199-.394.525-.481.98-.056.29-.073.57-.053.843.015.263.083.564.204.904a.652.652 0 0 1 .027.432.538.538 0 0 1-.214.288.681.681 0 0 1-.339.117.63.63 0 0 1-.372-.095.685.685 0 0 1-.284-.36 3.93 3.93 0 0 1-.279-1.211c-.039-.43-.017-.86.066-1.292.11-.572.294-1.044.553-1.417.25-.374.561-.635.93-.783.364-.158.777-.192 1.239-.104.329.064.619.185.869.363.242.176.435.396.58.66.144.263.224.563.241.9l-.141-.028c.202-.546.522-.94.958-1.18.429-.243.921-.31 1.478-.204.485.094.885.297 1.199.609.313.312.525.71.635 1.195.102.482.094 1.033-.025 1.652zm1.356-7.047a5.745 5.745 0 0 1-.418 1.285 3.856 3.856 0 0 1-.722 1.092.805.805 0 0 1-.414.25.656.656 0 0 1-.385-.026.678.678 0 0 1-.283-.237.612.612 0 0 1-.088-.37.823.823 0 0 1 .194-.438c.235-.289.42-.574.555-.857.128-.284.222-.583.282-.896a2.4 2.4 0 0 0 .027-.897 1.086 1.086 0 0 0-.322-.61 1.224 1.224 0 0 0-.645-.32c-.392-.075-.707.003-.947.233-.245.22-.416.582-.513 1.083l-.145.753c-.042.219-.129.377-.261.473-.131.089-.295.114-.49.077-.196-.038-.339-.122-.427-.253-.087-.139-.11-.318-.067-.537l.117-.611c.057-.298.059-.562.006-.791a1.207 1.207 0 0 0-.328-.575 1.203 1.203 0 0 0-.624-.303c-.361-.07-.658 0-.893.206-.233.199-.394.525-.481.98-.056.29-.073.57-.053.843.015.263.083.564.204.904a.652.652 0 0 1 .027.432.538.538 0 0 1-.214.288.683.683 0 0 1-.34.117.63.63 0 0 1-.371-.095.685.685 0 0 1-.284-.36 3.93 3.93 0 0 1-.279-1.211c-.039-.43-.017-.86.066-1.292.11-.572.294-1.044.553-1.417.25-.374.561-.635.93-.783.364-.158.777-.192 1.239-.103.329.063.619.184.869.362.242.176.435.396.58.66.144.263.224.563.241.9l-.141-.028c.202-.546.522-.94.958-1.18.429-.243.921-.31 1.478-.204.485.094.885.297 1.199.609.313.312.525.71.635 1.195.102.482.094 1.033-.025 1.652zm72.986 33.31c-.155.403-.368.8-.638 1.191a3.877 3.877 0 0 1-.903.948.808.808 0 0 1-.452.172.655.655 0 0 1-.374-.092.674.674 0 0 1-.237-.284.6.6 0 0 1-.021-.38.816.816 0 0 1 .268-.397c.282-.242.514-.49.697-.745.176-.257.321-.534.436-.832.126-.328.188-.62.184-.878a1.083 1.083 0 0 0-.209-.658 1.214 1.214 0 0 0-.579-.428c-.372-.143-.696-.122-.972.062-.281.174-.513.5-.697.976l-.275.715c-.08.208-.194.349-.341.42-.144.064-.309.06-.496-.011-.186-.072-.311-.18-.375-.324-.061-.152-.052-.332.028-.54l.224-.582a1.9 1.9 0 0 0 .145-.777 1.21 1.21 0 0 0-.221-.624 1.208 1.208 0 0 0-.561-.408c-.343-.132-.648-.117-.915.045-.265.155-.481.448-.647.88a3.15 3.15 0 0 0-.2.82c-.032.262-.019.57.041.927a.65.65 0 0 1-.05.43.54.54 0 0 1-.261.245.682.682 0 0 1-.355.056.631.631 0 0 1-.349-.16.683.683 0 0 1-.216-.404 3.922 3.922 0 0 1-.061-1.242c.037-.43.135-.85.292-1.26.209-.543.474-.975.794-1.297.313-.324.665-.526 1.055-.607.385-.09.798-.052 1.237.117.313.12.577.29.791.51a1.982 1.982 0 0 1 .534 1.68l-.134-.052c.295-.502.679-.833 1.151-.993.465-.163.962-.143 1.49.06.462.178.82.448 1.073.811.254.363.392.792.415 1.288.015.493-.09 1.034-.316 1.622zm2.663-6.92a5.226 5.226 0 0 1-.621 1.146c-.262.37-.566.684-.914.943a.773.773 0 0 1-.425.17.752.752 0 0 1-.381-.108.681.681 0 0 1-.248-.288.562.562 0 0 1-.036-.373.736.736 0 0 1 .259-.375c.263-.215.489-.448.68-.7a3.45 3.45 0 0 0 .471-.857 1.91 1.91 0 0 0 .142-.869 1.299 1.299 0 0 0-.271-.694 1.456 1.456 0 0 0-.635-.45c-.417-.16-.801-.163-1.152-.007-.358.153-.621.45-.79.888-.092.239-.14.485-.144.74a2.03 2.03 0 0 0 .148.814c.034.09.061.198.08.326a.79.79 0 0 1-.051.365c-.071.186-.174.309-.308.368-.134.06-.287.057-.458-.01l-3.653-1.405c-.201-.077-.333-.188-.397-.332-.069-.155-.065-.333.013-.534l1.414-3.675c.077-.2.188-.333.332-.397.14-.075.307-.075.501 0 .186.071.309.183.371.335.064.144.057.317-.02.518l-1.118 2.904 2.502.963-.142.368a2.022 2.022 0 0 1-.306-1.002 2.743 2.743 0 0 1 .192-1.132c.192-.499.466-.89.822-1.171a2.287 2.287 0 0 1 1.214-.52c.452-.066.928-.002 1.427.19.514.197.923.488 1.229.87.299.38.476.829.534 1.347.052.507-.035 1.055-.261 1.644zm140.179 232.15c.013.43-.029.879-.126 1.345a3.842 3.842 0 0 1-.465 1.224.81.81 0 0 1-.349.334.649.649 0 0 1-.381.059.674.674 0 0 1-.329-.169.608.608 0 0 1-.166-.342.82.82 0 0 1 .093-.47c.166-.332.283-.651.354-.957.062-.305.088-.617.078-.936-.011-.351-.068-.645-.171-.881a1.09 1.09 0 0 0-.447-.525 1.224 1.224 0 0 0-.7-.17c-.399.013-.689.157-.872.434-.192.27-.279.66-.263 1.17l.023.766c.007.223-.043.396-.151.519-.108.115-.262.176-.461.182-.2.006-.357-.045-.472-.153-.116-.116-.177-.286-.184-.509l-.019-.622a1.89 1.89 0 0 0-.168-.773 1.21 1.21 0 0 0-.446-.489 1.2 1.2 0 0 0-.675-.159c-.367.012-.643.144-.826.397-.184.245-.269.599-.255 1.062.009.295.054.573.134.834.072.253.204.532.397.838.092.14.133.279.121.415a.541.541 0 0 1-.146.328.685.685 0 0 1-.305.189.63.63 0 0 1-.384-.012.69.69 0 0 1-.356-.289 3.96 3.96 0 0 1-.538-1.12 4.632 4.632 0 0 1-.219-1.275c-.018-.582.058-1.083.229-1.504.163-.42.408-.743.736-.968.32-.234.716-.358 1.186-.373.335-.01.644.044.927.163a2 2 0 0 1 .711.517c.198.225.342.5.432.825l-.143.004c.078-.577.303-1.031.676-1.362.365-.331.83-.505 1.397-.522.494-.016.929.095 1.303.33.375.236.669.578.882 1.027.206.448.318.988.338 1.618zm-.205-5.809a.746.746 0 0 1-.117.459.522.522 0 0 1-.34.226c-.151.029-.32-.002-.506-.092l-6.907-3.401.526-.017.121 3.876c.007.215-.044.385-.152.508-.108.115-.262.175-.461.182-.208.006-.369-.045-.484-.153-.115-.116-.176-.282-.183-.497l-.144-4.63a.8.8 0 0 1 .151-.531c.108-.139.265-.212.472-.218.176-.006.332.013.469.057.129.044.271.103.425.178l6.601 3.196a.858.858 0 0 1 .393.335c.084.133.13.307.136.522zm-14.942 95.842c-.132.41-.322.818-.57 1.224a3.836 3.836 0 0 1-.849.997.802.802 0 0 1-.441.197.655.655 0 0 1-.379-.071.689.689 0 0 1-.253-.27.601.601 0 0 1-.041-.378.807.807 0 0 1 .245-.412c.267-.257.486-.518.654-.782.162-.267.291-.552.389-.856.108-.334.153-.63.135-.887a1.095 1.095 0 0 0-.245-.645 1.23 1.23 0 0 0-.602-.395c-.38-.122-.703-.083-.968.116-.271.19-.484.528-.641 1.014l-.234.729c-.069.212-.175.359-.318.438-.14.072-.305.078-.495.017s-.321-.162-.393-.303c-.07-.148-.07-.328-.002-.541l.191-.592c.093-.289.127-.551.101-.785a1.202 1.202 0 0 0-.256-.61 1.196 1.196 0 0 0-.583-.377c-.349-.112-.653-.08-.911.097-.255.169-.454.474-.596.914-.09.281-.142.558-.154.831-.018.262.013.57.093.922a.658.658 0 0 1-.026.432.543.543 0 0 1-.247.26.683.683 0 0 1-.352.075.624.624 0 0 1-.357-.14.689.689 0 0 1-.239-.391 3.989 3.989 0 0 1-.13-1.236c.014-.432.088-.857.222-1.274.179-.555.419-1.001.721-1.34.294-.341.633-.563 1.018-.665.38-.113.794-.097 1.242.048.319.102.592.257.819.464.219.205.384.447.496.726.111.279.154.586.13.922l-.137-.044c.268-.518.632-.87 1.095-1.056.455-.189.952-.196 1.491-.023.471.152.843.402 1.116.749.274.348.436.769.487 1.263.042.492-.033 1.038-.226 1.638zm2.049-6.364a3.892 3.892 0 0 1-.474.966 3.83 3.83 0 0 1-.783.83.554.554 0 0 1-.373.143.736.736 0 0 1-.361-.091.734.734 0 0 1-.256-.258.513.513 0 0 1-.06-.359c.016-.129.089-.252.219-.369.235-.21.42-.419.554-.627.134-.208.238-.426.311-.654.142-.44.159-.846.052-1.215-.107-.37-.342-.697-.703-.981-.366-.294-.853-.539-1.461-.735l-.854-.275.044-.136c.363.175.653.407.87.695.217.288.353.608.407.961.047.35.01.711-.11 1.083a2.444 2.444 0 0 1-.726 1.124c-.335.286-.73.47-1.183.55a2.992 2.992 0 0 1-1.432-.122c-.524-.168-.952-.428-1.284-.778a2.589 2.589 0 0 1-.641-1.25 2.826 2.826 0 0 1 .091-1.492c.215-.668.553-1.184 1.014-1.547.46-.363 1.03-.569 1.708-.619.671-.052 1.427.057 2.27.329.684.22 1.266.495 1.746.826.475.32.847.687 1.117 1.101.269.414.429.867.479 1.361.053.487-.007 1-.181 1.539zm-4.022-1.76c.088-.274.104-.533.048-.777a1.354 1.354 0 0 0-.366-.658 1.786 1.786 0 0 0-.72-.421 1.75 1.75 0 0 0-.829-.078 1.287 1.287 0 0 0-.671.325 1.452 1.452 0 0 0-.413.659 1.455 1.455 0 0 0-.049.776c.056.244.174.463.355.655.184.185.424.325.72.42.288.093.565.119.829.079.26-.051.487-.158.682-.321a1.45 1.45 0 0 0 .414-.659zm-45.136 88.934c-.152.184-.321.289-.506.312-.191.018-.382-.051-.572-.209l-.721-.594-1.881 2.281c-.157.191-.324.312-.5.362-.172.045-.344-.003-.516-.146a1.082 1.082 0 0 1-.262-.34 4.304 4.304 0 0 1-.226-.667l-1.579-5.553a1.326 1.326 0 0 1-.059-.53.846.846 0 0 1 .196-.444.719.719 0 0 1 .475-.275c.178-.028.369.041.572.209l3.777 3.114.373-.452c.147-.179.299-.275.456-.29.157-.027.315.026.475.158.16.132.245.28.255.443.009.152-.06.318-.208.496l-.373.453.72.594c.191.157.296.331.314.522.012.186-.058.371-.21.556zm-2.777-1.298l-2.881-2.376.221-.268 1.397 4.814-.314-.259 1.577-1.911zm5.312-1.926c-.132.16-.279.25-.441.272a.673.673 0 0 1-.476-.176c-.16-.132-.245-.274-.254-.426-.004-.158.06-.318.192-.478l.853-1.034-4.533-3.739.472-.572-.297 2.035a.696.696 0 0 1-.192.401.666.666 0 0 1-.342.152.778.778 0 0 1-.373-.075.632.632 0 0 1-.28-.262.698.698 0 0 1-.06-.454l.284-1.906c.028-.184.068-.358.12-.521a1.08 1.08 0 0 1 .199-.411.617.617 0 0 1 .377-.231c.139-.031.288.02.448.152l5.152 4.25.777-.942c.132-.16.274-.25.425-.27.156-.027.314.026.474.158.16.132.245.28.255.443.015.157-.043.316-.175.476l-2.605 3.158zm-76.775 60.593c-.2.132-.391.181-.575.149-.188-.039-.349-.162-.485-.369l-.512-.78-2.472 1.621c-.207.136-.402.202-.586.198-.177-.008-.326-.105-.449-.292a1.087 1.087 0 0 1-.15-.403 4.311 4.311 0 0 1-.018-.703l.136-5.772c.001-.201.035-.376.1-.524a.84.84 0 0 1 .318-.366.72.72 0 0 1 .535-.122c.179.026.341.149.485.369l2.686 4.092.49-.321c.193-.127.368-.175.522-.142.157.021.293.118.406.291.114.174.152.34.113.499-.037.148-.152.286-.345.412l-.49.322.512.781c.135.206.184.404.145.592-.044.181-.165.337-.366.468zm-2.268-2.061l-2.049-3.122.291-.191-.09 5.012-.224-.34 2.072-1.359zm7.011-1.022c-.36.237-.765.435-1.213.596-.448.16-.877.241-1.286.242a.807.807 0 0 1-.467-.122.655.655 0 0 1-.25-.294.679.679 0 0 1-.028-.369.611.611 0 0 1 .205-.321.82.82 0 0 1 .45-.166 4.3 4.3 0 0 0 1-.198 4.03 4.03 0 0 0 .84-.422c.293-.193.514-.395.661-.606.148-.211.219-.43.214-.656a1.217 1.217 0 0 0-.22-.685c-.219-.334-.494-.506-.826-.517-.33-.023-.708.106-1.135.386l-.641.421c-.186.122-.36.169-.522.142-.154-.032-.286-.132-.396-.299-.109-.166-.148-.327-.116-.482.039-.159.152-.3.339-.422l.52-.342c.253-.166.444-.348.572-.546.123-.205.184-.417.183-.636 0-.219-.073-.439-.217-.659-.201-.307-.458-.473-.77-.497-.305-.029-.651.084-1.038.337a3.162 3.162 0 0 0-.641.55 3.236 3.236 0 0 0-.507.776.644.644 0 0 1-.292.32.53.53 0 0 1-.355.047.634.634 0 0 1-.511-.495.69.69 0 0 1 .06-.454c.164-.375.389-.723.675-1.044.281-.328.605-.612.972-.853.487-.319.954-.516 1.402-.59.443-.081.847-.04 1.211.122.366.151.678.423.936.817.184.28.299.572.346.875a1.984 1.984 0 0 1-.547 1.676l-.079-.12c.533-.235 1.038-.28 1.515-.135.472.138.864.444 1.175.918.271.414.404.842.399 1.284-.006.443-.144.872-.415 1.288-.275.41-.676.788-1.203 1.133zm-64.102 31.163c.053.233.033.43-.062.591-.102.162-.273.271-.514.326l-.911.207.657 2.882c.055.241.048.447-.019.618-.069.163-.213.27-.431.319a1.064 1.064 0 0 1-.429 0 4.275 4.275 0 0 1-.666-.229l-5.361-2.142a1.32 1.32 0 0 1-.456-.277.84.84 0 0 1-.232-.426.723.723 0 0 1 .072-.544c.087-.159.259-.267.515-.326l4.773-1.087-.13-.572c-.051-.225-.035-.405.049-.539.075-.14.213-.232.415-.279.203-.046.371-.023.507.069.126.086.215.242.266.467l.13.572.91-.207c.242-.055.443-.031.606.071.154.104.258.272.311.506zm-2.724 1.406l-3.64.829-.078-.339 4.665 1.835-.396.09-.551-2.415zm1.131-8.403c.053.233.032.43-.062.591-.102.162-.274.271-.515.326l-.91.207.656 2.882c.055.241.049.447-.019.618-.069.163-.212.27-.43.319a1.088 1.088 0 0 1-.43 0 4.275 4.275 0 0 1-.666-.229l-5.361-2.142a1.32 1.32 0 0 1-.456-.277.847.847 0 0 1-.232-.426.718.718 0 0 1 .073-.544c.086-.159.258-.268.515-.326l4.773-1.087-.131-.572c-.051-.225-.035-.405.049-.539.075-.14.213-.233.416-.279.202-.046.371-.023.506.069.126.086.215.242.266.467l.13.572.911-.207c.241-.055.443-.031.605.071.155.104.258.272.312.506zm-2.724 1.406l-3.641.829-.077-.339 4.665 1.835-.397.09-.55-2.415zm10.317-52.409c.053.233.033.43-.062.591-.102.162-.273.271-.514.326l-.911.207.657 2.882c.055.241.048.447-.019.618-.069.163-.213.27-.431.319a1.064 1.064 0 0 1-.429 0 4.275 4.275 0 0 1-.666-.229l-5.361-2.142a1.32 1.32 0 0 1-.456-.277.84.84 0 0 1-.232-.426.723.723 0 0 1 .072-.544c.087-.159.259-.267.515-.326l4.773-1.087-.13-.572c-.051-.225-.035-.405.049-.539.075-.14.213-.232.415-.279.203-.046.371-.023.507.069.126.086.215.242.266.467l.13.572.91-.207c.242-.055.443-.031.606.071.154.104.258.272.311.506zm-2.724 1.406l-3.64.829-.078-.339 4.665 1.835-.396.09-.551-2.415zm1.385-7.393c.154.676.127 1.292-.082 1.847-.219.549-.603 1.017-1.153 1.404-.55.388-1.257.68-2.121.876-.7.16-1.336.223-1.908.189-.582-.039-1.094-.168-1.537-.386a3.045 3.045 0 0 1-1.104-.915 3.771 3.771 0 0 1-.632-1.427 3.545 3.545 0 0 1-.073-1.076c.019-.381.099-.751.238-1.11a.56.56 0 0 1 .247-.314.708.708 0 0 1 .371-.097.668.668 0 0 1 .352.092.54.54 0 0 1 .233.266.674.674 0 0 1-.012.433 3.12 3.12 0 0 0-.157.821c-.009.247.013.488.066.721.103.452.295.809.576 1.072.281.264.65.429 1.107.497.456.06.999.018 1.629-.126l.875-.199.032.14a2.466 2.466 0 0 1-1.103-.154 2.01 2.01 0 0 1-.829-.621 2.355 2.355 0 0 1-.47-.986 2.404 2.404 0 0 1 .052-1.337c.142-.417.387-.776.736-1.076.349-.301.781-.509 1.294-.626a2.945 2.945 0 0 1 1.503.026c.464.131.863.376 1.199.733.325.352.549.796.671 1.333zm-1.171.352a1.443 1.443 0 0 0-.355-.692 1.29 1.29 0 0 0-.639-.383 1.805 1.805 0 0 0-.833.006 1.746 1.746 0 0 0-.754.356 1.29 1.29 0 0 0-.411.621 1.39 1.39 0 0 0-.031.781c.064.28.186.51.366.69.172.181.385.309.639.382.253.065.53.063.834-.006.295-.067.547-.186.753-.356a1.38 1.38 0 0 0 .411-.621c.077-.238.083-.498.02-.778zm56.065-30.011c-.177.161-.358.24-.544.237-.192-.009-.371-.104-.538-.287l-.628-.691-2.186 1.991c-.183.166-.365.262-.547.288-.176.02-.339-.053-.49-.218a1.085 1.085 0 0 1-.211-.374 4.303 4.303 0 0 1-.129-.692l-.774-5.721a1.303 1.303 0 0 1 .016-.533.845.845 0 0 1 .256-.412.723.723 0 0 1 .51-.205c.181-.003.36.093.537.288l3.296 3.619.434-.395c.171-.156.335-.23.493-.223.158-.003.307.071.447.225.14.153.203.311.19.475-.013.151-.105.305-.276.461l-.434.395.629.69c.166.183.245.37.236.562-.014.186-.11.359-.287.52zm-2.564-1.678l-2.515-2.761.257-.234.7 4.964-.274-.301 1.832-1.668zm6.939-2.274a5.193 5.193 0 0 1-1.068.747c-.4.212-.813.357-1.24.433a.774.774 0 0 1-.456-.038.762.762 0 0 1-.293-.268.689.689 0 0 1-.092-.369.558.558 0 0 1 .135-.349.74.74 0 0 1 .399-.219c.332-.075.639-.182.922-.321.283-.139.552-.324.805-.555.248-.226.42-.464.517-.713.096-.25.119-.497.068-.743a1.456 1.456 0 0 0-.366-.686c-.301-.33-.643-.505-1.026-.522-.389-.024-.757.122-1.105.439a2.14 2.14 0 0 0-.46.597 2.03 2.03 0 0 0-.232.794c-.01.096-.035.205-.075.327a.783.783 0 0 1-.209.304c-.147.134-.294.198-.441.191-.146-.007-.281-.078-.405-.214l-2.635-2.893c-.145-.159-.214-.318-.207-.476.008-.169.092-.326.251-.471l2.911-2.651c.16-.145.318-.214.476-.207.158-.004.307.071.447.224.134.148.195.303.182.466-.008.158-.091.31-.25.455l-2.301 2.095 1.805 1.982-.292.266a2.018 2.018 0 0 1 .176-1.034c.151-.343.377-.652.678-.926.395-.36.815-.586 1.26-.678a2.29 2.29 0 0 1 1.318.079c.434.144.831.414 1.191.809.371.407.607.851.709 1.33.096.473.054.954-.127 1.442-.18.478-.504.929-.97 1.353zm43.22-50.529c-.107.214-.248.353-.423.417-.182.06-.384.035-.605-.076l-.834-.419-1.326 2.642c-.111.221-.247.376-.408.465-.157.082-.335.073-.535-.028a1.084 1.084 0 0 1-.331-.273 4.265 4.265 0 0 1-.369-.6l-2.775-5.062a1.314 1.314 0 0 1-.176-.504.835.835 0 0 1 .092-.476.722.722 0 0 1 .402-.374c.167-.067.369-.042.604.076l4.375 2.196.263-.524c.104-.207.231-.335.381-.385.146-.061.312-.044.498.049.185.093.301.218.347.375.043.146.012.323-.092.53l-.263.524.834.419c.221.11.362.257.423.439.053.179.026.375-.082.589zm-2.996-.647l-3.337-1.675.155-.31 2.434 4.382-.363-.183 1.111-2.214zm4.627-2.815c-.115.228-.249.371-.402.428-.157.046-.336.019-.536-.081a.795.795 0 0 1-.304-.274 2.086 2.086 0 0 1-.224-.461l-1.21-3.298c-.178-.5-.37-.891-.577-1.173a2.118 2.118 0 0 0-.748-.644c-.356-.179-.685-.201-.985-.066-.296.128-.552.406-.766.834a2.857 2.857 0 0 0-.258.781 2.84 2.84 0 0 0-.029.91c.022.171-.004.311-.075.417a.585.585 0 0 1-.284.219.668.668 0 0 1-.369.016.694.694 0 0 1-.337-.183.695.695 0 0 1-.182-.412 3.964 3.964 0 0 1 .045-1.263c.086-.439.226-.851.419-1.236.272-.542.583-.957.934-1.245.35-.289.73-.451 1.14-.486.411-.035.841.06 1.29.286.299.15.567.347.802.59.238.236.454.527.646.873.196.34.379.748.55 1.227l1.087 3.063-.364-.183 1.578-3.144c.097-.193.217-.316.36-.369.142-.053.307-.034.492.059.185.094.303.215.353.365.049.15.026.321-.071.514l-1.975 3.936zm18.955-54.42c-.03.237-.116.415-.26.534-.151.118-.349.162-.595.131l-.926-.115-.365 2.934c-.03.245-.107.437-.228.574-.121.13-.292.181-.514.154a1.102 1.102 0 0 1-.404-.147 4.33 4.33 0 0 1-.548-.442l-4.31-3.84a1.318 1.318 0 0 1-.335-.416.847.847 0 0 1-.073-.479.719.719 0 0 1 .254-.487c.135-.12.334-.164.595-.131l4.858.603.072-.582c.029-.229.105-.393.23-.49.117-.106.279-.146.485-.12.206.025.357.104.453.237.089.124.12.3.091.53l-.072.582.926.115c.246.03.427.121.545.273.11.15.15.344.121.582zm-3.04.394l-3.706-.461.043-.344 3.761 3.313-.404-.05.306-2.458zm3.782-6.171c-.123.99-.589 1.7-1.399 2.13-.817.429-1.918.557-3.304.385-.934-.116-1.704-.328-2.309-.637-.611-.317-1.052-.721-1.32-1.213-.268-.5-.361-1.078-.279-1.735.124-.998.582-1.709 1.375-2.133.793-.432 1.887-.561 3.28-.388.927.115 1.7.332 2.319.65.613.309 1.062.711 1.346 1.205.277.492.373 1.071.291 1.736zm-1.247-.155c.067-.538-.134-.965-.601-1.281-.466-.323-1.23-.55-2.291-.682s-1.845-.097-2.353.105c-.514.194-.805.559-.872 1.098-.066.53.127.956.577 1.278.443.32 1.194.546 2.255.678s1.858.098 2.389-.101c.531-.199.83-.564.896-1.095zM661.043 129.292a5.696 5.696 0 0 1-.328 1.311 3.83 3.83 0 0 1-.644 1.139.805.805 0 0 1-.395.278.659.659 0 0 1-.386.002.68.68 0 0 1-.299-.217.6.6 0 0 1-.113-.364.813.813 0 0 1 .163-.45c.213-.304.378-.601.494-.893.107-.292.18-.597.219-.914.042-.348.03-.647-.037-.896a1.086 1.086 0 0 0-.363-.587 1.232 1.232 0 0 0-.666-.273c-.396-.048-.705.051-.928.298-.23.237-.375.609-.436 1.116l-.092.761c-.027.222-.103.385-.228.491-.125.097-.286.134-.484.11-.198-.024-.346-.098-.443-.223-.097-.132-.132-.309-.105-.531l.075-.617a1.92 1.92 0 0 0-.049-.79c-.077-.226-.2-.41-.368-.551a1.193 1.193 0 0 0-.644-.258c-.364-.044-.656.045-.876.267-.219.215-.356.552-.411 1.012a3.13 3.13 0 0 0 .006.844c.033.261.121.557.266.888a.65.65 0 0 1 .057.429.537.537 0 0 1-.193.302.676.676 0 0 1-.331.141.633.633 0 0 1-.377-.07.682.682 0 0 1-.309-.338 3.971 3.971 0 0 1-.362-1.189 4.588 4.588 0 0 1-.025-1.293c.07-.579.221-1.063.453-1.453.224-.39.515-.673.874-.846.352-.183.761-.246 1.228-.189.333.04.63.14.892.3.254.16.462.366.625.618.162.253.263.547.303.881l-.142-.017c.164-.559.455-.974.873-1.245.411-.272.897-.374 1.46-.306.491.06.904.234 1.239.524.334.29.573.672.717 1.148.135.474.165 1.024.09 1.65zm.881-7.291c-.12.99-.583 1.702-1.391 2.135-.816.431-1.917.564-3.303.396-.935-.113-1.705-.323-2.311-.629-.613-.315-1.054-.718-1.325-1.209-.269-.499-.364-1.077-.284-1.734.12-.998.576-1.711 1.367-2.138.792-.434 1.885-.567 3.279-.399.927.112 1.701.326 2.322.643.614.307 1.064.707 1.35 1.2.278.491.376 1.07.296 1.735zm-1.248-.151c.066-.538-.136-.964-.604-1.278-.468-.322-1.232-.547-2.294-.675-1.061-.129-1.845-.091-2.352.113-.514.195-.804.562-.869 1.101-.064.53.13.956.581 1.275.444.319 1.197.543 2.258.671 1.062.128 1.858.092 2.388-.109.531-.201.828-.567.892-1.098zm-56.037-9.3c-.007.255-.068.441-.183.557-.123.109-.296.16-.519.154a.803.803 0 0 1-.392-.119 2.162 2.162 0 0 1-.398-.322l-2.493-2.476c-.373-.378-.713-.651-1.019-.819a2.135 2.135 0 0 0-.951-.266c-.398-.011-.705.109-.92.358-.214.241-.328.601-.341 1.08-.007.271.025.543.097.817.064.273.184.552.36.836.092.146.128.283.108.41a.585.585 0 0 1-.164.319.68.68 0 0 1-.328.17.695.695 0 0 1-.383-.022.705.705 0 0 1-.339-.297 3.993 3.993 0 0 1-.494-1.163 4.799 4.799 0 0 1-.144-1.297c.017-.606.123-1.114.318-1.524.195-.41.471-.717.828-.923.357-.205.787-.301 1.289-.287.335.009.661.074.976.194.317.113.635.286.956.518.321.224.66.517 1.017.878l2.282 2.315-.406-.012.097-3.517c.006-.215.063-.377.17-.486.106-.109.263-.16.471-.155.207.006.365.066.474.181.108.115.16.28.154.495l-.123 4.403zm.375-9.168c-.018.654-.126 1.214-.322 1.679-.205.457-.49.809-.856 1.054-.365.237-.8.349-1.302.335a2.224 2.224 0 0 1-1.046-.269 2.057 2.057 0 0 1-.735-.703 2.278 2.278 0 0 1-.332-.991l.252.007a2.145 2.145 0 0 1-.764 1.212c-.392.293-.851.432-1.377.417-.478-.013-.882-.144-1.21-.393-.337-.249-.586-.595-.75-1.038-.171-.444-.248-.961-.232-1.551.017-.598.123-1.114.319-1.548.187-.434.456-.765.805-.995.342-.23.752-.339 1.231-.325.351.01.672.09.963.242.291.144.529.346.713.607.185.252.304.547.359.884l-.239-.007c.095-.556.343-1 .743-1.332.393-.341.884-.503 1.474-.486.503.014.93.153 1.282.419.352.257.617.623.795 1.099.171.468.247 1.029.229 1.683zm-1.197-.033c.016-.567-.08-.996-.287-1.29-.215-.293-.538-.446-.969-.458-.431-.011-.758.123-.981.404-.223.281-.343.705-.359 1.271-.015.559.081.988.288 1.289.207.294.526.446.957.458.43.012.761-.122.993-.403.223-.289.343-.713.358-1.271zm-3.792-.106a2.067 2.067 0 0 0-.121-.817 1.17 1.17 0 0 0-.428-.527 1.237 1.237 0 0 0-.665-.198c-.383-.011-.686.116-.909.382-.231.257-.352.62-.366 1.091-.013.471.089.841.305 1.11.208.269.503.409.886.42.391.011.702-.113.932-.37.231-.257.353-.62.366-1.091zm-39.422-2.566c0 .256-.057.443-.169.563-.12.111-.291.166-.515.166a.792.792 0 0 1-.394-.109 2.097 2.097 0 0 1-.406-.312l-2.556-2.412c-.382-.367-.729-.631-1.039-.792a2.127 2.127 0 0 0-.957-.241c-.399-.001-.703.126-.911.38-.208.247-.312.61-.314 1.089 0 .271.039.543.118.814.071.271.198.547.381.827.096.144.135.279.119.407a.584.584 0 0 1-.156.323.68.68 0 0 1-.324.178.694.694 0 0 1-.383-.012.707.707 0 0 1-.346-.288 3.983 3.983 0 0 1-.524-1.151 4.794 4.794 0 0 1-.177-1.293c.002-.606.095-1.116.279-1.53a2.05 2.05 0 0 1 .804-.945c.352-.214.779-.32 1.282-.32.335.001.662.058.981.17.318.105.641.269.968.493.326.216.673.5 1.039.852l2.341 2.256-.407-.001.008-3.519c0-.215.053-.379.157-.49.104-.112.259-.167.467-.167.207 0 .367.057.478.169.112.112.167.276.167.491l-.011 4.404zm.142-9.485c-.002.694-.166 1.288-.495 1.782-.336.486-.816.855-1.439 1.11-.622.253-1.377.38-2.262.377-.719-.002-1.353-.083-1.903-.244-.558-.168-1.028-.409-1.41-.721a3.034 3.034 0 0 1-.871-1.14 3.77 3.77 0 0 1-.296-1.532c.001-.35.057-.706.17-1.064a3.58 3.58 0 0 1 .481-1.029.559.559 0 0 1 .312-.25.695.695 0 0 1 .383-.011.67.67 0 0 1 .323.168.54.54 0 0 1 .166.311.67.67 0 0 1-.108.42 2.77 2.77 0 0 0-.435 1.483c-.001.462.106.853.321 1.173.215.32.537.564.968.732.43.16.968.242 1.615.243l.897.002v.144a2.464 2.464 0 0 1-1.04-.397 2.003 2.003 0 0 1-.669-.792 2.358 2.358 0 0 1-.237-1.066 2.41 2.41 0 0 1 .351-1.291c.232-.375.552-.67.959-.884.407-.214.874-.32 1.401-.32a2.952 2.952 0 0 1 1.459.363c.423.232.757.56 1.003.984.239.415.357.898.356 1.449zm-1.221.08a1.44 1.44 0 0 0-.19-.754 1.288 1.288 0 0 0-.537-.516 1.8 1.8 0 0 0-.813-.181 1.748 1.748 0 0 0-.815.177 1.29 1.29 0 0 0-.539.514 1.381 1.381 0 0 0-.206.753c0 .287.067.539.202.755.127.216.306.387.537.516.232.12.503.18.814.181.303 0 .574-.058.814-.178a1.39 1.39 0 0 0 .54-.513c.128-.215.192-.466.193-.754zm-67.335 10.089c.007.256-.043.445-.152.567-.116.115-.286.176-.51.182a.804.804 0 0 1-.397-.097 2.115 2.115 0 0 1-.416-.3l-2.626-2.335c-.392-.356-.747-.61-1.062-.761a2.125 2.125 0 0 0-.964-.213c-.398.01-.698.147-.898.408-.201.252-.295.618-.282 1.097.008.271.055.541.142.81.079.269.214.541.406.815.099.141.143.276.13.404a.58.58 0 0 1-.146.327.683.683 0 0 1-.319.188.693.693 0 0 1-.383-.001.706.706 0 0 1-.355-.278 3.995 3.995 0 0 1-.557-1.134 4.804 4.804 0 0 1-.215-1.287c-.017-.606.061-1.12.233-1.54.172-.419.431-.741.776-.966.345-.225.769-.344 1.271-.358.335-.01.664.038.986.14.322.095.649.25.982.465.333.206.688.48 1.064.82l2.407 2.186-.407.011-.096-3.518c-.006-.215.041-.38.142-.494.101-.115.255-.175.462-.18.207-.006.368.045.483.154.115.108.175.27.181.486l.12 4.402zm-.191-10.526c.006.24-.053.429-.177.568-.131.14-.321.212-.568.219l-.933.025.08 2.956c.007.247-.039.448-.139.602-.1.146-.261.222-.484.229a1.09 1.09 0 0 1-.422-.085 4.323 4.323 0 0 1-.608-.354l-4.839-3.148a1.302 1.302 0 0 1-.393-.36.838.838 0 0 1-.145-.464.724.724 0 0 1 .178-.52c.116-.138.305-.211.568-.219l4.894-.133-.016-.587c-.007-.23.044-.404.153-.518.1-.123.254-.187.462-.193.207-.005.368.05.483.167.107.109.163.279.17.51l.016.586.933-.025c.247-.007.44.055.58.187.131.132.2.318.207.557zm-2.947.847l-3.732.102-.01-.347 4.217 2.71-.407.012-.068-2.477zm-69.393 9.785c-.011.255-.075.44-.192.554-.124.106-.298.155-.521.145a.798.798 0 0 1-.39-.125 2.113 2.113 0 0 1-.393-.329l-2.452-2.517c-.366-.384-.701-.662-1.005-.836a2.127 2.127 0 0 0-.946-.281c-.399-.018-.707.096-.926.342-.218.238-.338.596-.359 1.074-.012.271.016.544.084.819.059.274.175.555.346.842.089.147.123.285.101.411a.58.58 0 0 1-.17.316.676.676 0 0 1-.33.165.687.687 0 0 1-.383-.029.697.697 0 0 1-.334-.302 4.001 4.001 0 0 1-.475-1.171 4.834 4.834 0 0 1-.122-1.3c.027-.605.142-1.111.343-1.518.202-.406.483-.709.843-.909.361-.2.792-.288 1.294-.266.335.015.659.086.973.211.314.118.63.296.947.534.317.23.651.528 1.002.895l2.244 2.352-.407-.018.156-3.516c.01-.215.069-.376.178-.483.108-.107.266-.156.473-.147.208.01.365.072.471.189.107.117.155.282.146.498l-.196 4.4zm.319-7.17c-.012.255-.076.44-.193.555-.124.106-.298.154-.521.144a.794.794 0 0 1-.39-.125 2.163 2.163 0 0 1-.393-.329l-2.452-2.516c-.366-.384-.701-.662-1.005-.836a2.123 2.123 0 0 0-.946-.281c-.398-.018-.707.096-.925.342-.219.238-.338.596-.359 1.074-.013.271.015.544.083.819.06.274.175.554.346.841.089.148.123.285.101.412a.582.582 0 0 1-.169.316.683.683 0 0 1-.331.165.696.696 0 0 1-.382-.029.696.696 0 0 1-.334-.302 3.978 3.978 0 0 1-.475-1.171 4.792 4.792 0 0 1-.122-1.3c.027-.605.141-1.111.343-1.518.201-.406.482-.71.843-.909.36-.2.791-.288 1.293-.266.335.015.659.085.973.211.315.118.63.296.947.533.317.23.651.529 1.003.895l2.243 2.352-.406-.018.156-3.515c.009-.215.068-.376.177-.483.109-.107.267-.156.474-.147.207.01.364.072.471.189.106.116.155.282.145.497l-.195 4.4zm-58.985 13.612c.016.255-.027.446-.131.572-.112.12-.279.187-.502.201a.8.8 0 0 1-.402-.081 2.153 2.153 0 0 1-.426-.284l-2.713-2.234c-.406-.341-.769-.581-1.09-.72a2.13 2.13 0 0 0-.971-.177c-.398.026-.692.174-.883.442-.191.26-.27.629-.239 1.107.017.271.075.539.172.804.09.266.235.533.436.799.105.137.154.27.146.399a.585.585 0 0 1-.134.332.68.68 0 0 1-.311.2.683.683 0 0 1-.383.013.696.696 0 0 1-.365-.264 3.978 3.978 0 0 1-.6-1.112 4.826 4.826 0 0 1-.264-1.278c-.039-.605.019-1.12.175-1.546.156-.426.402-.758.739-.996.336-.238.755-.373 1.257-.406.334-.022.664.012.99.103.325.083.658.225.999.426.341.194.705.454 1.095.78l2.487 2.093-.406.026-.229-3.511c-.015-.215.027-.382.123-.5s.248-.184.455-.197c.207-.014.37.031.488.136.119.104.185.263.199.478l.288 4.395zm-.479-9.163c.065.995-.26 1.78-.974 2.354-.722.575-1.779.908-3.173.999-.939.062-1.735-.002-2.387-.191-.661-.197-1.169-.512-1.525-.944-.357-.441-.557-.991-.6-1.652-.065-1.003.251-1.787.95-2.353.698-.573 1.748-.906 3.149-.997.932-.061 1.732.006 2.4.203.66.188 1.176.498 1.548.93.364.432.568.982.612 1.651zm-1.254.082c-.036-.541-.312-.923-.831-1.145-.518-.23-1.311-.31-2.378-.24-1.067.07-1.831.251-2.291.545-.469.287-.686.7-.651 1.242.035.533.304.916.807 1.147.495.231 1.276.312 2.342.242 1.067-.069 1.843-.252 2.327-.548.485-.295.71-.71.675-1.243zm-53.079 10.259c.006.208-.046.373-.154.495a.677.677 0 0 1-.474.181c-.207.005-.364-.046-.471-.155-.107-.117-.163-.279-.169-.486l-.037-1.34-5.874.16-.02-.742 1.113 1.73a.692.692 0 0 1 .119.427.664.664 0 0 1-.158.34.78.78 0 0 1-.33.189.639.639 0 0 1-.384-.014.697.697 0 0 1-.343-.302l-1.038-1.624a3.443 3.443 0 0 1-.253-.472 1.073 1.073 0 0 1-.119-.44.616.616 0 0 1 .132-.422c.085-.114.231-.174.438-.18l6.676-.182-.034-1.22c-.005-.207.042-.368.143-.483.1-.122.254-.186.462-.192.207-.005.368.05.483.167.115.108.175.266.181.474l.111 4.091zm-.123-8.899c.018.654-.058 1.218-.229 1.694-.179.468-.444.834-.796 1.099-.352.257-.779.393-1.282.406a2.227 2.227 0 0 1-1.059-.21 2.076 2.076 0 0 1-.773-.662 2.274 2.274 0 0 1-.385-.971l.251-.007c-.098.514-.33.931-.696 1.252-.375.314-.825.478-1.352.492-.478.013-.888-.095-1.23-.326-.349-.23-.618-.561-.805-.995-.196-.434-.301-.946-.317-1.536-.017-.598.061-1.12.232-1.563.164-.443.414-.79.75-1.038.329-.248.732-.38 1.211-.392.351-.01.676.053.975.189.299.127.547.316.746.566.198.242.333.53.406.863l-.239.006c.065-.56.288-1.017.669-1.37.373-.362.855-.55 1.445-.567.503-.013.937.102 1.303.348.365.237.65.589.855 1.054.196.458.303 1.014.32 1.668zm-1.196.032c-.015-.566-.135-.99-.358-1.271-.231-.281-.562-.416-.993-.404-.43.012-.749.164-.957.457-.207.293-.304.723-.288 1.289.015.558.134.982.358 1.271.223.281.55.416.981.405.43-.012.753-.165.969-.458.207-.301.303-.731.288-1.289zm-3.792.103a2.063 2.063 0 0 0-.166-.81 1.17 1.17 0 0 0-.457-.502 1.24 1.24 0 0 0-.675-.16c-.383.01-.678.153-.886.43-.216.27-.318.64-.305 1.11.013.471.135.835.365 1.092.223.257.525.381.908.37.391-.011.694-.15.911-.42.216-.269.317-.639.305-1.11zm-53.002 21.472c.046.202.028.374-.054.516a.673.673 0 0 1-.43.269c-.202.046-.366.026-.492-.059-.128-.094-.215-.242-.261-.444l-.298-1.307-5.729 1.305-.165-.724 1.429 1.479c.119.128.186.26.201.396a.672.672 0 0 1-.089.364.77.77 0 0 1-.287.25.63.63 0 0 1-.379.061.695.695 0 0 1-.396-.229l-1.335-1.389a3.45 3.45 0 0 1-.34-.414 1.096 1.096 0 0 1-.203-.408.624.624 0 0 1 .047-.44c.061-.129.192-.216.395-.262l6.511-1.483-.271-1.19c-.046-.202-.031-.37.045-.502.075-.139.213-.232.416-.278.202-.046.371-.023.506.068.134.085.224.228.27.43l.909 3.991zm-1.543-7.205a.749.749 0 0 1-.027.473.522.522 0 0 1-.291.287c-.142.057-.314.059-.514.006l-7.431-2.014.514-.117.861 3.781c.048.21.031.386-.052.527-.084.134-.223.223-.418.267-.202.046-.37.027-.504-.057-.135-.092-.227-.243-.275-.453l-1.028-4.516a.8.8 0 0 1 .046-.551c.079-.157.219-.258.422-.304.171-.039.328-.05.471-.034.135.018.285.05.451.094l7.091 1.871a.86.86 0 0 1 .451.253c.107.115.185.277.233.487zm168.923 436.777c-.878 0-1.632-.175-2.262-.526a3.632 3.632 0 0 1-1.436-1.508c-.336-.655-.503-1.425-.503-2.31 0-.662.096-1.257.287-1.783a3.8 3.8 0 0 1 .826-1.365 3.505 3.505 0 0 1 1.316-.874 4.81 4.81 0 0 1 1.772-.311c.439 0 .869.056 1.292.168.423.112.794.271 1.113.479a.756.756 0 0 1 .371.813.666.666 0 0 1-.203.347.596.596 0 0 1-.371.168c-.144.008-.303-.044-.479-.156a2.666 2.666 0 0 0-.802-.347 3.623 3.623 0 0 0-.873-.107c-.567 0-1.046.115-1.437.347a2.175 2.175 0 0 0-.885 1.005c-.2.439-.299.977-.299 1.616 0 .63.099 1.169.299 1.615.199.447.494.786.885 1.018.391.231.87.347 1.437.347.303 0 .602-.036.897-.108.295-.08.575-.199.838-.359.176-.104.331-.148.467-.132a.56.56 0 0 1 .359.144c.096.088.159.2.191.335a.716.716 0 0 1-.024.407.757.757 0 0 1-.287.359 3.637 3.637 0 0 1-1.149.539 5.096 5.096 0 0 1-1.34.179zm5.023-.119c-.264 0-.467-.068-.611-.204-.135-.144-.203-.347-.203-.61v-6.81c0-.263.068-.463.203-.599.144-.143.347-.215.611-.215h4.272c.2 0 .351.052.455.156.112.103.168.251.168.442 0 .2-.056.355-.168.467-.104.104-.255.156-.455.156h-3.614v2.322h3.351c.207 0 .363.051.467.155.103.104.155.255.155.455 0 .199-.052.351-.155.455-.104.103-.26.155-.467.155h-3.351v2.454h3.614c.2 0 .351.052.455.155.112.104.168.256.168.455 0 .2-.056.351-.168.455-.104.104-.255.156-.455.156h-4.272zm7.045.095c-.231 0-.411-.064-.538-.191-.12-.128-.18-.311-.18-.551v-7.121c0-.247.06-.435.18-.562a.641.641 0 0 1 .49-.204c.184 0 .319.036.407.108.096.064.208.175.335.335l4.584 5.948h-.311v-5.661c0-.231.06-.411.179-.538.128-.128.308-.192.539-.192.231 0 .407.064.527.192.119.127.179.307.179.538v7.181c0 .224-.056.399-.167.527a.577.577 0 0 1-.455.191.816.816 0 0 1-.443-.107 1.785 1.785 0 0 1-.347-.347l-4.572-5.949h.299v5.661c0 .24-.06.423-.179.551-.12.127-.296.191-.527.191zm11.035 0c-.247 0-.438-.068-.574-.203-.128-.144-.192-.339-.192-.587v-6.462h-2.333c-.208 0-.371-.056-.491-.168a.673.673 0 0 1-.168-.479c0-.207.056-.363.168-.466.12-.112.283-.168.491-.168h6.199c.208 0 .367.056.479.168.12.103.179.259.179.466 0 .2-.059.359-.179.479-.112.112-.271.168-.479.168h-2.334v6.462c0 .248-.064.443-.191.587-.128.135-.319.203-.575.203zm5.447-.095c-.263 0-.467-.068-.61-.204-.136-.144-.204-.347-.204-.61v-6.81c0-.263.068-.463.204-.599.143-.143.347-.215.61-.215h4.273c.199 0 .351.052.454.156.112.103.168.251.168.442 0 .2-.056.355-.168.467-.103.104-.255.156-.454.156h-3.615v2.322h3.351c.208 0 .363.051.467.155.104.104.156.255.156.455 0 .199-.052.351-.156.455-.104.103-.259.155-.467.155h-3.351v2.454h3.615c.199 0 .351.052.454.155.112.104.168.256.168.455 0 .2-.056.351-.168.455-.103.104-.255.156-.454.156h-4.273zm7.093.095c-.247 0-.438-.068-.574-.203-.128-.144-.192-.339-.192-.587v-6.965c0-.255.068-.447.204-.575.135-.135.327-.203.574-.203h2.885c.925 0 1.639.223 2.142.67.503.439.754 1.057.754 1.855 0 .519-.116.966-.347 1.341a2.164 2.164 0 0 1-.982.861c-.43.2-.953.3-1.567.3l.107-.18h.395c.327 0 .611.08.85.239.247.16.463.411.646.754l.898 1.664c.096.168.14.331.132.491a.557.557 0 0 1-.18.395c-.112.095-.275.143-.491.143a.958.958 0 0 1-.526-.131 1.228 1.228 0 0 1-.359-.431l-1.209-2.226c-.144-.272-.315-.451-.515-.539-.191-.096-.439-.143-.742-.143h-1.137v2.68c0 .248-.064.443-.191.587-.128.135-.319.203-.575.203zm.766-4.607h1.867c.551 0 .966-.112 1.245-.336.287-.231.431-.574.431-1.029 0-.447-.144-.782-.431-1.005-.279-.232-.694-.347-1.245-.347h-1.867v2.717zm10.7 4.512c-.247 0-.439-.068-.574-.204-.136-.144-.204-.339-.204-.586v-6.906c0-.255.064-.447.192-.574.135-.136.327-.204.574-.204.248 0 .435.068.563.204.135.127.203.319.203.574v6.391h3.471c.215 0 .379.056.491.168.119.111.179.271.179.478 0 .208-.06.371-.179.491-.112.112-.276.168-.491.168h-4.225zm6.709.095c-.248 0-.439-.068-.575-.203-.127-.144-.191-.339-.191-.587v-7.049c0-.255.064-.451.191-.586.136-.136.327-.204.575-.204.247 0 .435.068.562.204.136.135.204.331.204.586v7.049c0 .248-.064.443-.192.587-.127.135-.319.203-.574.203zm3.33 0c-.232 0-.411-.064-.539-.191-.12-.128-.179-.311-.179-.551v-7.121c0-.247.059-.435.179-.562a.644.644 0 0 1 .491-.204c.183 0 .319.036.407.108.095.064.207.175.335.335l4.584 5.948h-.312v-5.661c0-.231.06-.411.18-.538.128-.128.307-.192.539-.192.231 0 .406.064.526.192.12.127.18.307.18.538v7.181c0 .224-.056.399-.168.527a.575.575 0 0 1-.455.191.818.818 0 0 1-.443-.107 1.813 1.813 0 0 1-.347-.347l-4.571-5.949h.299v5.661c0 .24-.06.423-.18.551-.119.127-.295.191-.526.191zm9.048-.095c-.263 0-.467-.068-.61-.204-.136-.144-.204-.347-.204-.61v-6.81c0-.263.068-.463.204-.599.143-.143.347-.215.61-.215h4.273c.199 0 .351.052.455.156.111.103.167.251.167.442 0 .2-.056.355-.167.467-.104.104-.256.156-.455.156h-3.615v2.322h3.352c.207 0 .363.051.466.155.104.104.156.255.156.455 0 .199-.052.351-.156.455-.103.103-.259.155-.466.155h-3.352v2.454h3.615c.199 0 .351.052.455.155.111.104.167.256.167.455 0 .2-.056.351-.167.455-.104.104-.256.156-.455.156h-4.273zM354.465 338.077c0 .704-.056 1.408-.168 2.112a10.978 10.978 0 0 1-.456 1.992 8.192 8.192 0 0 1-.816 1.68 1.552 1.552 0 0 1-1.488.72 1.462 1.462 0 0 1-.696-.312 1.093 1.093 0 0 1-.384-.648c-.048-.256.024-.536.216-.84a8.2 8.2 0 0 0 .912-2.232c.192-.784.288-1.608.288-2.472 0-1.264-.208-2.184-.624-2.76-.432-.576-.984-.864-1.656-.864-.56 0-1 .208-1.32.624-.32.4-.584 1.096-.792 2.088l-.552 2.64c-.32 1.52-.856 2.656-1.608 3.408-.768.736-1.776 1.104-3.024 1.104-.784 0-1.496-.16-2.136-.48a4.954 4.954 0 0 1-1.656-1.344 6.263 6.263 0 0 1-1.056-2.088c-.256-.816-.384-1.712-.384-2.688 0-.96.12-1.872.36-2.736.24-.864.592-1.64 1.056-2.328.176-.256.392-.424.648-.504a1.41 1.41 0 0 1 .768-.072c.24.048.448.16.624.336.176.176.28.4.312.672.032.256-.048.552-.24.888a6.832 6.832 0 0 0-.72 1.8 8.527 8.527 0 0 0-.216 1.968c0 .736.104 1.368.312 1.896.208.528.504.936.888 1.224.368.272.808.408 1.32.408.576 0 1.04-.192 1.392-.576.336-.384.6-1.04.792-1.968l.552-2.616c.336-1.584.864-2.76 1.584-3.528.72-.784 1.68-1.176 2.88-1.176.768 0 1.464.16 2.088.48.624.304 1.16.752 1.608 1.344.448.576.792 1.272 1.032 2.088.24.816.36 1.736.36 2.76zm-.048-14.573c0 .496-.136.88-.408 1.152-.288.256-.68.384-1.176.384h-12.96v4.68c0 .416-.112.744-.336.984-.24.224-.56.336-.96.336-.416 0-.728-.112-.936-.336-.224-.24-.336-.568-.336-.984v-12.432c0-.416.112-.736.336-.96.208-.24.52-.36.936-.36.4 0 .72.12.96.36.224.224.336.544.336.96v4.68h12.96c.496 0 .888.128 1.176.384.272.256.408.64.408 1.152zm0-7.583c0 .384-.088.696-.264.936a1.08 1.08 0 0 1-.696.408c-.304.048-.64-.008-1.008-.168l-14.04-6.336c-.464-.208-.792-.456-.984-.744a1.785 1.785 0 0 1-.312-1.032c0-.368.104-.696.312-.984.192-.304.52-.56.984-.768l14.04-6.36c.368-.176.704-.24 1.008-.192.304.048.544.184.72.408.16.224.24.52.24.888 0 .448-.104.8-.312 1.056-.224.24-.56.456-1.008.648l-3.624 1.56.84-1.296v10.128l-.84-1.296 3.624 1.536c.464.208.8.424 1.008.648.208.224.312.544.312.96zm-13.776-6.888l7.992 3.36-.768.624v-8.016l.768.6-7.992 3.384v.048zm13.824-18.588c0 1.872-.352 3.456-1.056 4.752a7.062 7.062 0 0 1-3 2.928c-1.296.672-2.832 1.008-4.608 1.008-1.344 0-2.552-.192-3.624-.576-1.072-.4-1.984-.968-2.736-1.704-.768-.752-1.352-1.664-1.752-2.736-.416-1.072-.624-2.288-.624-3.648 0-.896.112-1.792.336-2.688a8.054 8.054 0 0 1 1.08-2.568c.176-.272.392-.448.648-.528.256-.096.52-.112.792-.048.256.064.48.184.672.36.192.176.312.4.36.672.048.256-.016.544-.192.864a7.308 7.308 0 0 0-.768 1.848c-.16.624-.24 1.32-.24 2.088 0 1.184.24 2.184.72 3 .464.816 1.144 1.432 2.04 1.848.896.4 1.992.6 3.288.6 1.968 0 3.464-.472 4.488-1.416 1.024-.944 1.536-2.344 1.536-4.2 0-.64-.064-1.288-.192-1.944a13.099 13.099 0 0 0-.528-1.92l1.368.6h-5.112v2.64c0 .4-.104.712-.312.936-.208.208-.488.312-.84.312-.368 0-.648-.104-.84-.312-.192-.224-.288-.536-.288-.936v-3.96c0-.4.112-.704.336-.912.208-.224.512-.336.912-.336h5.832c.352 0 .648.072.888.216.24.128.416.344.528.648.256.704.472 1.512.648 2.424.16.912.24 1.808.24 2.688zm-.24-11.168c0 .528-.136.936-.408 1.224-.288.272-.696.408-1.224.408h-13.656c-.528 0-.928-.136-1.2-.408-.288-.288-.432-.696-.432-1.224v-8.568c0-.4.104-.704.312-.912.208-.224.504-.336.888-.336.4 0 .712.112.936.336.208.208.312.512.312.912v7.248h4.656v-6.72c0-.416.104-.728.312-.936.208-.208.512-.312.912-.312s.704.104.912.312c.208.208.312.52.312.936v6.72h4.92v-7.248c0-.4.104-.704.312-.912.208-.224.512-.336.912-.336s.704.112.912.336c.208.208.312.512.312.912v8.568zm92.683 131.284a.52.52 0 0 1-.139.383.574.574 0 0 1-.393.125l-4.32-.033-.012 1.56a.464.464 0 0 1-.114.327.452.452 0 0 1-.321.109c-.139-.001-.242-.039-.311-.114a.463.463 0 0 1-.11-.329l.032-4.144c.001-.139.039-.245.115-.319.07-.08.174-.119.313-.118a.433.433 0 0 1 .319.123c.074.075.11.182.109.321l-.012 1.56 4.32.033a.568.568 0 0 1 .391.131c.09.086.134.214.133.385zm.02-2.528a.52.52 0 0 1-.091.312.363.363 0 0 1-.233.134.609.609 0 0 1-.335-.059l-4.664-2.148a.747.747 0 0 1-.326-.25.593.593 0 0 1 .005-.672.723.723 0 0 1 .33-.254l4.696-2.084a.576.576 0 0 1 .337-.061.37.37 0 0 1 .239.138.503.503 0 0 1 .077.296.543.543 0 0 1-.106.352c-.076.079-.188.15-.338.213l-1.212.511.283-.43-.026 3.376-.276-.434 1.204.521c.154.07.265.143.334.218a.455.455 0 0 1 .102.321zm-4.575-2.331l2.656 1.14-.258.206.021-2.671.254.201-2.673 1.108v.016zm4.56-4.11c-.001.176-.048.311-.139.407-.097.09-.233.134-.409.133l-4.552-.035c-.176-.002-.309-.048-.399-.139-.095-.097-.142-.234-.141-.41l.015-1.92c.003-.394.064-.73.184-1.006.119-.277.289-.486.509-.628.219-.148.481-.221.785-.218.342.002.629.103.862.302.233.2.388.47.466.812l-.12-.001c.061-.394.213-.7.455-.916.241-.217.554-.324.938-.321.502.004.89.177 1.164.521.27.338.402.808.397 1.411l-.015 2.008zm-.773-.446l.012-1.44c.002-.363-.065-.63-.202-.802-.143-.171-.356-.258-.638-.261-.288-.002-.502.082-.642.251-.14.17-.212.436-.214.799l-.012 1.44 1.696.013zm-2.471-.019l.01-1.304c.002-.352-.062-.614-.194-.786-.138-.177-.34-.266-.606-.268-.267-.002-.468.084-.602.259-.14.17-.212.43-.214.782l-.01 1.304 1.616.013zm3.286-5.019c-.001.165-.047.293-.139.383a.546.546 0 0 1-.393.133l-4.616-.035c-.17-.002-.298-.045-.383-.131-.09-.092-.134-.22-.133-.385.002-.166.048-.291.139-.375.086-.09.215-.135.385-.133l4.272.032.018-2.319c.001-.144.039-.254.114-.328a.42.42 0 0 1 .321-.117.444.444 0 0 1 .327.122c.075.076.111.185.11.329l-.022 2.824zm.035-4.516c-.001.176-.048.312-.139.407-.097.09-.233.134-.409.133l-4.552-.035c-.176-.001-.309-.048-.399-.139-.095-.097-.142-.233-.141-.409l.022-2.856c.001-.134.036-.235.106-.303.07-.075.169-.111.297-.11a.42.42 0 0 1 .311.114c.069.07.103.172.102.305l-.019 2.416 1.552.012.018-2.24c.001-.139.036-.242.106-.311s.171-.103.305-.102c.133.001.234.037.303.106.069.07.103.175.102.313l-.018 2.24 1.64.013.019-2.416c.001-.133.036-.235.106-.303.07-.074.172-.111.305-.11.133.001.234.039.303.114.069.07.103.172.102.305l-.022 2.856zm.127-6.094a4.511 4.511 0 0 1-.062.703 3.589 3.589 0 0 1-.157.663 2.738 2.738 0 0 1-.276.558.523.523 0 0 1-.498.236.492.492 0 0 1-.231-.106.36.36 0 0 1-.126-.217c-.016-.085.009-.178.074-.279.14-.234.243-.481.309-.742s.101-.535.103-.823c.003-.421-.064-.729-.201-.922a.664.664 0 0 0-.55-.292.526.526 0 0 0-.442.205c-.107.132-.197.364-.269.694l-.191.878c-.11.506-.292.883-.544 1.132-.258.243-.595.364-1.011.36a1.577 1.577 0 0 1-1.259-.617 2.082 2.082 0 0 1-.347-.699 2.977 2.977 0 0 1-.121-.897 3.38 3.38 0 0 1 .127-.911c.082-.287.201-.545.358-.773a.41.41 0 0 1 .217-.167.48.48 0 0 1 .256-.022c.08.017.149.055.207.114a.363.363 0 0 1 .103.225.487.487 0 0 1-.083.295 2.284 2.284 0 0 0-.244.598 2.83 2.83 0 0 0-.077.656c-.002.245.031.456.099.632a.907.907 0 0 0 .293.411.72.72 0 0 0 .439.139.596.596 0 0 0 .465-.188c.113-.128.203-.346.269-.654l.191-.871c.116-.527.295-.918.537-1.172.242-.259.563-.387.963-.384a1.51 1.51 0 0 1 1.227.617c.148.193.261.426.339.699.078.272.115.579.113.921zm-.209-154.937a.52.52 0 0 1-.139.383.574.574 0 0 1-.393.125l-4.32-.033-.012 1.56a.464.464 0 0 1-.114.327.452.452 0 0 1-.321.109c-.139-.001-.242-.039-.311-.114a.463.463 0 0 1-.11-.329l.032-4.144c.001-.139.039-.245.115-.319.07-.08.174-.119.313-.118a.433.433 0 0 1 .319.123c.074.075.11.182.109.321l-.012 1.56 4.32.033a.568.568 0 0 1 .391.131c.09.086.134.214.133.385zm.02-2.528a.52.52 0 0 1-.091.312.363.363 0 0 1-.233.134.609.609 0 0 1-.335-.059l-4.664-2.148a.747.747 0 0 1-.326-.25.593.593 0 0 1 .005-.672.723.723 0 0 1 .33-.254l4.696-2.084a.576.576 0 0 1 .337-.061.37.37 0 0 1 .239.138.503.503 0 0 1 .077.296.543.543 0 0 1-.106.352c-.076.079-.188.15-.338.213l-1.212.511.283-.43-.026 3.376-.276-.434 1.204.521c.154.07.265.143.334.218a.455.455 0 0 1 .102.321zm-4.575-2.331l2.656 1.14-.258.206.021-2.671.254.201-2.673 1.108v.016zm4.56-4.11c-.001.176-.048.311-.139.407-.097.09-.233.134-.409.133l-4.552-.035c-.176-.002-.309-.048-.399-.139-.095-.097-.142-.234-.141-.41l.015-1.92c.003-.394.064-.73.184-1.006.119-.277.289-.486.509-.628.219-.148.481-.221.785-.218.342.002.629.103.862.302.233.2.388.47.466.812l-.12-.001c.061-.394.213-.7.455-.916.241-.217.554-.324.938-.321.502.004.89.177 1.164.521.27.338.402.808.397 1.411l-.015 2.008zm-.773-.446l.012-1.44c.002-.363-.065-.63-.202-.802-.143-.171-.356-.258-.638-.261-.288-.002-.502.082-.642.251-.14.17-.212.436-.214.799l-.012 1.44 1.696.013zm-2.471-.019l.01-1.304c.002-.352-.062-.614-.194-.786-.138-.177-.34-.266-.606-.268-.267-.002-.468.084-.602.259-.14.17-.212.43-.214.782l-.01 1.304 1.616.013zm3.286-5.019c-.001.165-.047.293-.139.383a.546.546 0 0 1-.393.133l-4.616-.035c-.17-.002-.298-.045-.383-.131-.09-.092-.134-.22-.133-.385.002-.166.048-.291.139-.375.086-.09.215-.135.385-.133l4.272.032.018-2.319c.001-.144.039-.254.114-.328a.42.42 0 0 1 .321-.117.444.444 0 0 1 .327.122c.075.076.111.185.11.329l-.022 2.824zm.035-4.516c-.001.176-.048.312-.139.407-.097.09-.233.134-.409.133l-4.552-.035c-.176-.001-.309-.048-.399-.139-.095-.097-.142-.233-.141-.409l.022-2.856c.001-.134.036-.235.106-.303.07-.075.169-.111.297-.11a.42.42 0 0 1 .311.114c.069.07.103.172.102.305l-.019 2.416 1.552.012.018-2.24c.001-.139.036-.242.106-.311s.171-.103.305-.102c.133.001.234.037.303.106.069.07.103.175.102.313l-.018 2.24 1.64.013.019-2.416c.001-.133.036-.235.106-.303.07-.074.172-.111.305-.11.133.001.234.039.303.114.069.07.103.172.102.305l-.022 2.856zm.127-6.094a4.511 4.511 0 0 1-.062.703 3.589 3.589 0 0 1-.157.663 2.738 2.738 0 0 1-.276.558.523.523 0 0 1-.498.236.492.492 0 0 1-.231-.106.36.36 0 0 1-.126-.217c-.016-.085.009-.178.074-.279.14-.234.243-.481.309-.742s.101-.535.103-.823c.003-.421-.064-.729-.201-.922a.664.664 0 0 0-.55-.292.526.526 0 0 0-.442.205c-.107.132-.197.364-.269.694l-.191.878c-.11.506-.292.883-.544 1.132-.258.243-.595.364-1.011.36a1.577 1.577 0 0 1-1.259-.617 2.082 2.082 0 0 1-.347-.699 2.977 2.977 0 0 1-.121-.897 3.38 3.38 0 0 1 .127-.911c.082-.287.201-.545.358-.773a.41.41 0 0 1 .217-.167.48.48 0 0 1 .256-.022c.08.017.149.055.207.114a.363.363 0 0 1 .103.225.487.487 0 0 1-.083.295 2.284 2.284 0 0 0-.244.598 2.83 2.83 0 0 0-.077.656c-.002.245.031.456.099.632a.907.907 0 0 0 .293.411.72.72 0 0 0 .439.139.596.596 0 0 0 .465-.188c.113-.128.203-.346.269-.654l.191-.871c.116-.527.295-.918.537-1.172.242-.259.563-.387.963-.384a1.51 1.51 0 0 1 1.227.617c.148.193.261.426.339.699.078.272.115.579.113.921zm147.585 171.685a.63.63 0 0 1-.099.359.753.753 0 0 1-.305.222l-4.704 2.052a.531.531 0 0 1-.353.045.404.404 0 0 1-.238-.17.52.52 0 0 1-.086-.304c.001-.155.037-.269.107-.343a.69.69 0 0 1 .297-.198l4.407-1.862-.003.344-4.385-1.922a.786.786 0 0 1-.287-.21.497.497 0 0 1-.101-.337.453.453 0 0 1 .09-.287c.059-.08.14-.13.241-.151a.585.585 0 0 1 .352.059l4.671 2.124c.133.06.234.135.303.226a.58.58 0 0 1 .093.353zm.031-3.975c-.002.166-.048.293-.139.383a.57.57 0 0 1-.393.125l-4.712-.036c-.171-.001-.301-.045-.391-.131a.516.516 0 0 1-.133-.385c.001-.165.047-.29.139-.375.091-.09.222-.134.393-.133l4.712.036a.57.57 0 0 1 .391.131c.09.086.134.215.133.385zm.017-2.258c-.001.166-.048.293-.139.383a.565.565 0 0 1-.393.125l-4.656-.035c-.171-.002-.298-.048-.383-.139-.09-.092-.134-.22-.133-.385l.015-1.928c.005-.619.163-1.095.475-1.429.312-.333.745-.498 1.3-.494.554.004.988.176 1.3.514.307.339.458.817.453 1.436l-.011 1.424 1.648.012a.573.573 0 0 1 .391.131c.09.086.134.215.133.385zm-2.98-.534l.01-1.264c.002-.363-.075-.638-.234-.826-.164-.188-.403-.283-.718-.286-.314-.002-.553.089-.714.275-.161.185-.243.459-.246.822l-.01 1.264 1.912.015zm2.932-130.233a.63.63 0 0 1-.099.359.753.753 0 0 1-.305.222l-4.704 2.052a.531.531 0 0 1-.353.045.404.404 0 0 1-.238-.17.52.52 0 0 1-.086-.304c.001-.155.037-.269.107-.343a.69.69 0 0 1 .297-.198l4.407-1.862-.003.344-4.385-1.922a.786.786 0 0 1-.287-.21.497.497 0 0 1-.101-.337.453.453 0 0 1 .09-.287c.059-.08.14-.13.241-.151a.585.585 0 0 1 .352.059l4.671 2.124c.133.06.234.135.303.226a.58.58 0 0 1 .093.353zm.031-3.975c-.002.166-.048.293-.139.383a.57.57 0 0 1-.393.125l-4.712-.036c-.171-.001-.301-.045-.391-.131a.516.516 0 0 1-.133-.385c.001-.165.047-.29.139-.375.091-.09.222-.134.393-.133l4.712.036a.57.57 0 0 1 .391.131c.09.086.134.215.133.385zm.017-2.258c-.001.166-.048.293-.139.383a.565.565 0 0 1-.393.125l-4.656-.035c-.171-.002-.298-.048-.383-.139-.09-.092-.134-.22-.133-.385l.015-1.928c.005-.619.163-1.095.475-1.429.312-.333.745-.498 1.3-.494.554.004.988.176 1.3.514.307.339.458.817.453 1.436l-.011 1.424 1.648.012a.573.573 0 0 1 .391.131c.09.086.134.215.133.385zm-2.98-.534l.01-1.264c.002-.363-.075-.638-.234-.826-.164-.188-.403-.283-.718-.286-.314-.002-.553.089-.714.275-.161.185-.243.459-.246.822l-.01 1.264 1.912.015zM474.756 357.395c-.007.878-.188 1.63-.544 2.258a3.64 3.64 0 0 1-1.519 1.425c-.657.33-1.428.491-2.313.484-.663-.005-1.256-.105-1.781-.301a3.773 3.773 0 0 1-1.358-.836 3.494 3.494 0 0 1-.864-1.323 4.805 4.805 0 0 1-.298-1.774 5.07 5.07 0 0 1 .178-1.291c.115-.422.277-.792.487-1.109a.762.762 0 0 1 .386-.332.727.727 0 0 1 .431-.033c.135.033.25.102.345.206.095.097.15.221.165.372.007.144-.046.303-.159.478a2.65 2.65 0 0 0-.353.799 3.582 3.582 0 0 0-.115.873c-.004.566.108 1.046.336 1.439.229.393.561.69.999.893.437.203.975.307 1.613.312.63.005 1.17-.091 1.618-.287.448-.196.79-.489 1.024-.878.235-.389.354-.867.358-1.433a3.734 3.734 0 0 0-.101-.899 3.24 3.24 0 0 0-.352-.84c-.103-.177-.145-.332-.128-.468a.563.563 0 0 1 .146-.358.646.646 0 0 1 .337-.189.714.714 0 0 1 .406.027.757.757 0 0 1 .357.29c.229.321.406.706.53 1.153.116.44.173.887.169 1.342zm.015-4.999c-.002.247-.072.442-.208.585-.145.134-.349.201-.612.199l-6.906-.053c-.263-.002-.462-.072-.596-.208-.143-.145-.213-.349-.211-.612l.032-4.177c.001-.208.055-.363.159-.466.105-.103.253-.153.444-.152.2.002.355.055.466.159.103.105.153.261.152.468l-.027 3.459 2.382.018.024-3.207c.002-.2.055-.351.159-.454.105-.111.253-.165.444-.164.2.002.355.059.466.171.103.105.154.257.152.456l-.025 3.208 2.897.022c.542.004.811.253.808.748zm-.015-89.001c-.007.878-.188 1.63-.544 2.258a3.64 3.64 0 0 1-1.519 1.425c-.657.33-1.428.491-2.313.484-.663-.005-1.256-.105-1.781-.301a3.773 3.773 0 0 1-1.358-.836 3.494 3.494 0 0 1-.864-1.323 4.805 4.805 0 0 1-.298-1.774 5.07 5.07 0 0 1 .178-1.291c.115-.422.277-.792.487-1.109a.762.762 0 0 1 .386-.332.727.727 0 0 1 .431-.033c.135.033.25.102.345.206.095.097.15.221.165.372.007.144-.046.303-.159.478a2.65 2.65 0 0 0-.353.799 3.582 3.582 0 0 0-.115.873c-.004.566.108 1.046.336 1.439.229.393.561.69.999.893.437.203.975.307 1.613.312.63.005 1.17-.091 1.618-.287.448-.196.79-.489 1.024-.878.235-.389.354-.867.358-1.433a3.734 3.734 0 0 0-.101-.899 3.24 3.24 0 0 0-.352-.84c-.103-.177-.145-.332-.128-.468a.563.563 0 0 1 .146-.358.646.646 0 0 1 .337-.189.714.714 0 0 1 .406.027.757.757 0 0 1 .357.29c.229.321.406.706.53 1.153.116.44.173.887.169 1.342zm.015-4.999c-.002.247-.072.442-.208.585-.145.134-.349.201-.612.199l-6.906-.053c-.263-.002-.462-.072-.596-.208-.143-.145-.213-.349-.211-.612l.032-4.177c.001-.208.055-.363.159-.466.105-.103.253-.153.444-.152.2.002.355.055.466.159.103.105.153.261.152.468l-.027 3.459 2.382.018.024-3.207c.002-.2.055-.351.159-.454.105-.111.253-.165.444-.164.2.002.355.059.466.171.103.105.154.257.152.456l-.025 3.208 2.897.022c.542.004.811.253.808.748zM799.123 125.47c.225.367.412.777.559 1.229.147.453.215.884.205 1.293a.81.81 0 0 1-.137.464.658.658 0 0 1-.301.241.675.675 0 0 1-.369.016.605.605 0 0 1-.315-.214.81.81 0 0 1-.152-.454 4.353 4.353 0 0 0-.169-1.006 4.066 4.066 0 0 0-.397-.852c-.184-.299-.379-.525-.586-.679a1.083 1.083 0 0 0-.649-.233 1.22 1.22 0 0 0-.692.2c-.34.209-.52.479-.542.81-.032.329.086.711.353 1.146l.402.653c.116.19.159.365.126.526-.036.154-.14.283-.31.387-.17.104-.331.138-.485.102-.158-.044-.295-.161-.412-.351l-.326-.53a1.917 1.917 0 0 0-.53-.588 1.203 1.203 0 0 0-.63-.202 1.198 1.198 0 0 0-.665.198c-.313.192-.486.443-.52.754-.037.305.065.654.307 1.048.155.252.332.471.531.657.188.184.441.361.761.53a.65.65 0 0 1 .311.301.536.536 0 0 1 .036.356.667.667 0 0 1-.171.316.63.63 0 0 1-.339.18.681.681 0 0 1-.452-.073 3.93 3.93 0 0 1-1.023-.705 4.585 4.585 0 0 1-.824-.997c-.305-.497-.488-.969-.549-1.419-.068-.445-.015-.848.158-1.207.161-.361.443-.665.844-.912.285-.175.58-.282.885-.319.298-.033.589-.002.874.095.284.097.546.264.785.501l-.122.075c-.22-.539-.25-1.045-.091-1.518.153-.468.47-.851.953-1.147.421-.259.853-.38 1.295-.361.443.019.868.169 1.276.452.401.288.767.7 1.097 1.237zm-3.883-6.318c.221.36.399.756.534 1.189.135.432.199.865.194 1.299a.778.778 0 0 1-.122.441.747.747 0 0 1-.318.237.688.688 0 0 1-.379.023.57.57 0 0 1-.319-.198.748.748 0 0 1-.14-.434 4.115 4.115 0 0 0-.143-.965 3.462 3.462 0 0 0-.396-.895 1.908 1.908 0 0 0-.604-.64 1.297 1.297 0 0 0-.716-.206 1.446 1.446 0 0 0-.743.232c-.381.234-.616.537-.705.911-.096.377-.02.766.226 1.167.134.218.301.405.501.563.193.162.439.288.737.376.092.028.194.073.307.135a.773.773 0 0 1 .259.262c.105.17.14.326.106.469-.034.142-.129.262-.286.358l-3.334 2.049c-.183.113-.352.151-.506.114-.164-.039-.303-.151-.416-.334l-2.062-3.355c-.112-.183-.15-.352-.114-.505.026-.157.127-.289.304-.398.17-.104.334-.135.492-.091.153.036.286.146.399.33l1.63 2.651 2.284-1.404.206.337a2.03 2.03 0 0 1-.983-.365 2.759 2.759 0 0 1-.782-.84c-.28-.455-.424-.91-.432-1.364a2.29 2.29 0 0 1 .323-1.28c.223-.4.562-.739 1.018-1.019.469-.288.948-.438 1.438-.449.483-.006.948.125 1.394.394.435.266.818.668 1.148 1.205zm52.001 79.398c.166.397.286.831.362 1.301.075.47.076.907.002 1.309a.8.8 0 0 1-.207.437.653.653 0 0 1-.334.192.681.681 0 0 1-.368-.041.605.605 0 0 1-.277-.26.82.82 0 0 1-.081-.473 4.363 4.363 0 0 0-.011-1.02 4.076 4.076 0 0 0-.261-.903c-.135-.323-.293-.577-.474-.761a1.086 1.086 0 0 0-.605-.331 1.218 1.218 0 0 0-.714.091c-.368.154-.588.393-.66.717-.083.32-.026.715.171 1.186l.296.707c.086.206.1.386.043.54-.06.146-.182.257-.366.334-.184.077-.349.085-.495.025-.149-.067-.267-.204-.353-.41l-.24-.574a1.902 1.902 0 0 0-.432-.662 1.214 1.214 0 0 0-.592-.298 1.193 1.193 0 0 0-.687.093c-.339.141-.549.363-.63.665-.085.295-.038.656.141 1.083.114.272.254.516.422.731.158.211.381.425.67.641a.656.656 0 0 1 .261.345.536.536 0 0 1-.019.358.683.683 0 0 1-.218.286.633.633 0 0 1-.362.125.681.681 0 0 1-.436-.142 3.942 3.942 0 0 1-.902-.855 4.627 4.627 0 0 1-.66-1.112c-.224-.538-.332-1.033-.323-1.487.002-.45.117-.84.343-1.168.215-.332.54-.589.975-.77.309-.13.617-.189.924-.179.299.013.582.09.848.229.266.14.499.345.698.616l-.132.056c-.133-.567-.085-1.072.146-1.514.223-.439.595-.768 1.118-.986.457-.191.902-.243 1.336-.156.434.086.831.301 1.19.644.352.346.65.809.893 1.391zm-2.264-5.353a.745.745 0 0 1 .054.47.523.523 0 0 1-.237.333c-.13.08-.299.112-.505.094l-7.666-.714.486-.203 1.495 3.578c.083.199.096.375.039.529-.06.146-.182.257-.366.334-.191.08-.36.09-.506.03-.149-.067-.265-.2-.349-.399l-1.785-4.274a.793.793 0 0 1-.049-.55c.051-.168.172-.292.363-.372a1.39 1.39 0 0 1 .459-.114c.136-.005.289 0 .46.015l7.307.63a.863.863 0 0 1 .487.173c.126.094.23.241.313.44zm-53.395 68.872c.081.423.11.872.088 1.348a3.858 3.858 0 0 1-.266 1.282.809.809 0 0 1-.292.385.657.657 0 0 1-.367.119.685.685 0 0 1-.351-.115.608.608 0 0 1-.218-.312.81.81 0 0 1 .018-.479c.11-.354.176-.688.198-1a4.007 4.007 0 0 0-.071-.937c-.066-.345-.168-.626-.308-.843a1.092 1.092 0 0 0-.524-.448 1.227 1.227 0 0 0-.718-.057c-.392.075-.656.264-.793.566-.146.297-.171.695-.075 1.197l.144.752c.042.22.02.399-.067.537-.089.131-.231.215-.427.253-.196.037-.359.012-.49-.077-.132-.096-.22-.254-.262-.474l-.117-.611a1.902 1.902 0 0 0-.288-.737 1.21 1.21 0 0 0-.517-.412 1.2 1.2 0 0 0-.693-.05c-.36.069-.611.243-.752.522-.143.271-.171.634-.084 1.088.056.29.143.558.264.803.11.238.285.493.524.764a.654.654 0 0 1 .185.391.539.539 0 0 1-.092.347.68.68 0 0 1-.272.235.632.632 0 0 1-.38.049.69.69 0 0 1-.398-.229 3.948 3.948 0 0 1-.708-1.022 4.604 4.604 0 0 1-.417-1.223c-.11-.572-.114-1.08-.012-1.522.094-.44.286-.798.574-1.072.279-.282.65-.466 1.112-.555.33-.063.643-.058.942.014.29.075.551.207.783.398.231.192.417.44.557.747l-.141.027c-.014-.583.137-1.067.453-1.452.308-.384.74-.63 1.297-.736.485-.094.932-.053 1.339.12.407.174.751.466 1.033.875.274.41.47.925.589 1.544zm-1.384-7.212c.188.979-.037 1.798-.674 2.457-.645.66-1.654 1.121-3.025 1.384-.924.178-1.722.213-2.393.106-.679-.113-1.223-.362-1.63-.747-.408-.393-.675-.915-.8-1.565-.189-.988.028-1.805.651-2.453.622-.655 1.622-1.115 3.001-1.38.917-.176 1.719-.208 2.407-.096.678.105 1.229.349 1.651.731.415.384.686.905.812 1.563zm-1.234.237c-.102-.533-.424-.878-.966-1.034-.544-.164-1.34-.145-2.39.057-1.05.201-1.785.476-2.206.825-.43.342-.594.78-.491 1.313.1.525.414.871.942 1.038.52.168 1.305.152 2.355-.05 1.05-.201 1.797-.479 2.241-.832.444-.353.616-.792.515-1.317zm-16.484-48.779c.198.383.354.805.468 1.267.113.463.15.898.109 1.305a.806.806 0 0 1-.17.452.66.66 0 0 1-.318.219.692.692 0 0 1-.37-.011.603.603 0 0 1-.297-.237.814.814 0 0 1-.12-.464 4.363 4.363 0 0 0-.094-1.016 4.037 4.037 0 0 0-.334-.878c-.161-.312-.34-.552-.535-.72a1.082 1.082 0 0 0-.63-.28 1.212 1.212 0 0 0-.704.149c-.355.183-.554.439-.6.768-.056.326.034.715.268 1.169l.353.68c.102.198.132.376.088.534-.048.151-.161.272-.338.363-.177.092-.341.114-.491.066-.155-.055-.283-.181-.386-.38l-.286-.552a1.903 1.903 0 0 0-.485-.625 1.212 1.212 0 0 0-.614-.248 1.202 1.202 0 0 0-.678.149c-.326.168-.517.407-.573.714-.06.301.016.657.229 1.068.136.262.296.493.481.694.174.197.414.392.72.584.144.087.24.195.289.322a.54.54 0 0 1 .01.359.671.671 0 0 1-.194.302.62.62 0 0 1-.351.155.684.684 0 0 1-.446-.106 3.954 3.954 0 0 1-.969-.778 4.613 4.613 0 0 1-.748-1.055c-.268-.517-.416-1.002-.444-1.455-.035-.449.047-.846.246-1.192.187-.348.49-.631.908-.848.298-.154.6-.238.907-.253.299-.012.587.041.864.159.276.117.525.303.746.556l-.127.066c-.179-.554-.172-1.061.021-1.52.186-.456.531-.814 1.034-1.075.439-.227.879-.315 1.318-.265.44.051.853.233 1.239.545.379.316.714.753 1.004 1.313zm-3.377-6.521c.458.886.476 1.735.052 2.547-.431.816-1.266 1.546-2.506 2.188-.836.433-1.591.693-2.264.781-.684.085-1.276.001-1.776-.253-.503-.26-.907-.685-1.211-1.273-.463-.892-.487-1.738-.074-2.536.41-.805 1.238-1.531 2.485-2.176.829-.43 1.589-.689 2.28-.777.68-.092 1.277-.014 1.791.232.507.249.914.672 1.223 1.267zm-1.116.578c-.25-.482-.657-.721-1.22-.716-.568-.003-1.326.242-2.276.733-.949.492-1.576.965-1.88 1.419-.314.45-.347.917-.098 1.398.246.475.646.717 1.199.727.546.014 1.294-.225 2.244-.717.949-.491 1.586-.97 1.912-1.435.325-.465.364-.934.119-1.409zm-47.417-53.798c.2.159.311.32.335.482.012.163-.051.332-.191.507a.794.794 0 0 1-.33.241 2.11 2.11 0 0 1-.497.123l-3.479.499c-.526.07-.948.176-1.267.32-.324.15-.585.349-.785.598-.249.312-.338.628-.269.95.064.316.283.624.657.923.212.169.449.308.71.415.257.113.552.185.884.216.172.015.303.069.393.161a.588.588 0 0 1 .155.323.694.694 0 0 1-.31.656.698.698 0 0 1-.441.092 3.95 3.95 0 0 1-1.226-.306 4.845 4.845 0 0 1-1.122-.667c-.474-.379-.815-.769-1.025-1.172a2.042 2.042 0 0 1-.237-1.216c.051-.409.233-.81.547-1.202.209-.262.457-.483.744-.662.28-.185.609-.335.988-.451a7.589 7.589 0 0 1 1.314-.283l3.222-.427-.254.318-2.748-2.197c-.168-.135-.264-.277-.286-.428-.023-.151.031-.307.16-.469.13-.162.273-.252.43-.27.157-.017.32.041.488.176l3.44 2.75zm-7.092-5.823c.512.409.894.832 1.147 1.269.242.439.35.878.325 1.318-.031.435-.203.848-.517 1.241a2.223 2.223 0 0 1-.845.673 2.058 2.058 0 0 1-1.003.163 2.275 2.275 0 0 1-.991-.332l.157-.197c.329.407.498.853.507 1.34-.002.489-.168.939-.497 1.35-.299.374-.646.617-1.042.729-.402.119-.828.11-1.281-.027-.457-.131-.916-.38-1.378-.749-.467-.374-.815-.769-1.043-1.187-.233-.411-.336-.825-.309-1.243.022-.411.183-.803.482-1.177.219-.275.477-.482.774-.623.29-.146.595-.214.914-.204.312.005.619.087.921.246l-.149.187c-.387-.411-.592-.876-.616-1.396-.035-.518.132-1.008.501-1.469.313-.393.682-.649 1.106-.77.417-.126.87-.117 1.357.027.476.146.969.423 1.48.831zm-.747.935c-.442-.354-.843-.536-1.202-.547-.364-.005-.68.161-.949.497-.269.337-.359.679-.269 1.027.09.347.356.698.798 1.052.437.349.837.531 1.202.547.359.011.673-.152.942-.488.269-.337.361-.682.277-1.036-.096-.352-.363-.703-.799-1.052zm-2.369 2.964a2.04 2.04 0 0 0-.725-.396 1.166 1.166 0 0 0-.679.024 1.233 1.233 0 0 0-.558.412c-.24.299-.32.617-.243.955.066.339.283.655.651.949.367.294.724.436 1.069.426.34-.004.63-.156.869-.455.244-.305.333-.627.267-.966-.066-.339-.283-.655-.651-.949z" fill="#fff"/><path d="M660.704 131.095c-.031.254-.109.433-.234.539-.132.096-.309.131-.531.104a.786.786 0 0 1-.379-.154 2.172 2.172 0 0 1-.367-.358l-2.254-2.695c-.336-.411-.649-.714-.939-.91a2.126 2.126 0 0 0-.921-.352c-.396-.048-.713.042-.949.271-.236.221-.383.569-.44 1.044-.033.269-.026.543.021.822.039.278.133.567.281.866.078.154.101.293.07.418a.578.578 0 0 1-.193.302.698.698 0 0 1-.721.082.701.701 0 0 1-.31-.327 3.95 3.95 0 0 1-.385-1.204 4.798 4.798 0 0 1-.023-1.304c.073-.602.225-1.098.457-1.488.232-.39.535-.671.909-.843.375-.171.812-.227 1.311-.167.332.04.65.135.954.284.304.142.605.343.903.604.299.253.61.576.932.968l2.059 2.516-.404-.049.422-3.493c.026-.214.097-.37.213-.469.117-.098.278-.135.484-.11.206.025.358.099.455.224.098.124.133.293.108.507l-.529 4.372zm1.22-9.094c-.079.65-.237 1.197-.476 1.643-.245.436-.562.759-.949.97-.386.202-.829.273-1.328.213a2.23 2.23 0 0 1-1.017-.364 2.074 2.074 0 0 1-.666-.768 2.273 2.273 0 0 1-.239-1.017l.25.03c-.173.493-.463.872-.873 1.136-.417.255-.886.351-1.409.288-.475-.058-.865-.225-1.169-.503-.312-.279-.529-.647-.65-1.104-.13-.457-.159-.979-.088-1.565.072-.594.225-1.098.46-1.512.227-.414.525-.72.894-.916.362-.198.78-.268 1.255-.21.349.042.661.152.937.33.277.17.495.393.654.67.161.268.252.573.276.913l-.238-.029c.146-.545.434-.964.863-1.258.423-.302.927-.418 1.513-.347.499.06.912.239 1.237.535.327.289.557.678.691 1.169.127.481.151 1.047.072 1.696zm-1.188-.143c.068-.563.012-1-.167-1.311-.188-.312-.495-.493-.923-.545-.428-.052-.766.052-1.014.311-.248.26-.406.67-.474 1.233-.068.554-.012.991.167 1.31.179.311.483.492.91.544.428.052.77-.052 1.026-.31.25-.267.408-.678.475-1.232zm-3.767-.456a2.035 2.035 0 0 0-.045-.825 1.174 1.174 0 0 0-.377-.564 1.243 1.243 0 0 0-.644-.259c-.38-.046-.694.053-.94.296-.254.235-.409.586-.465 1.053-.057.468.01.845.2 1.134.183.287.464.454.844.5.388.046.709-.047.963-.282.253-.235.408-.585.464-1.053z" fill="#fff"/></g><defs><clipPath id="clip0_7756_224966"><path fill="#fff" transform="rotate(-90 300.32 299.72)" d="M0 0h600.04v898.6H0z"/></clipPath><clipPath id="clip1_7756_224966"><path fill="#fff" transform="rotate(-90 354.92 68.32)" d="M0 0h230.69v326H0z"/></clipPath></defs></svg>