<svg width="553" height="827" viewBox="0 0 553 827" fill="none" xmlns="http://www.w3.org/2000/svg"><g clip-path="url(#clip0_6445_189874)"><path d="M547.591 556.196V270.804c0-147.021-119.145-266.202-266.166-266.202h-5.329c-147.04 0-266.221 119.181-266.221 266.202v285.392c0 147.021 119.181 266.202 266.221 266.202h5.347c147.003 0 266.148-119.181 266.148-266.202zm-381.225 90.403a144.073 144.073 0 0 1-42.334-102.202V282.603a144.535 144.535 0 1 1 289.072 0v261.794a144.484 144.484 0 0 1-89.196 133.601 144.495 144.495 0 0 1-157.542-31.399z" fill="#E0E0E0"/><path d="M268.568 688.933a144.538 144.538 0 0 1-144.49-144.536V282.603a144.54 144.54 0 0 1 144.536-144.537A144.538 144.538 0 0 1 413.15 282.603v261.794a144.543 144.543 0 0 1-42.35 102.219 144.537 144.537 0 0 1-102.232 42.317z" fill="#E0E0E0"/><path d="M426.955 252.527a159.377 159.377 0 0 0-16.492-47.388l36.38-16.271 3.12 5.725 10.197-4.915a204.617 204.617 0 0 1 18.02 54.851l-51.225 7.998zm54.17 36.647h-51.63v-8.053c0-4.461-.181-8.878-.543-13.253h24.628v-10.915l26.036-3.432a208.055 208.055 0 0 1 1.84 27.379v6.939c-.211.865-.331 1.335-.331 1.335zm.295 56.655h-51.925v-27.03h26.321v-7.795h-26.321v-17.661h51.925v52.486zm0 68.775h-51.925v-28.401h26.321v-9.194h-26.321v-24.425h51.925v62.02zm0 68.941h-51.925v-28.06h26.321v-9.36h-26.321v-27.021h51.925v64.441zm0 53.121h-51.925v-15.157l26.321.497v-9.121l-26.321-.175v-23.965h51.925v47.921zm-1.804 43.605l-15.646-2.135v-15.075h-35.34v-.276c.577-5.574.866-11.173.865-16.777v-4.777h51.925v11.688a207.954 207.954 0 0 1-1.804 27.352zm-29.671 58.67l-38.562-18.774a159.612 159.612 0 0 0 14.274-39.206l40.366 2.89c-3.102 29.625-16.078 55.09-16.078 55.09zm12.976-.488l-8.531-3.147s9.323-14.955 14.872-52.458l9.839 1.334a204.618 204.618 0 0 1-16.18 54.271zm-48.059 51.419l-31.438-31.19a161.213 161.213 0 0 0 25.898-34.622l39.058 19.041c-12.617 23.661-33.518 46.771-33.518 46.771zm2.816 12.111l-5.374-5.871c20.09-18.572 36.122-46.016 36.122-46.016l7.363 2.466a207.033 207.033 0 0 1-38.111 49.421zm-67.036 32.322l-18.544-40.494a160.412 160.412 0 0 0 38.101-23.1l31.116 30.867c-25.953 23.892-50.673 32.727-50.673 32.727z" fill="#C9C5C5"/><path d="M358.667 741.502l-3.055-5.899c34.825-16.631 53.793-36.896 53.793-36.896l5.475 5.899a206.062 206.062 0 0 1-56.213 36.896zm-66.981 8.394l-6.598-43.918a159.677 159.677 0 0 0 42.62-10.344l1.399-.304 18.194 40.006a200.093 200.093 0 0 1-55.615 14.56z" fill="#C9C5C5"/><path d="M286.928 758.767v-6.184c29.184-1.215 56.996-12.995 56.996-12.995l3.543 6.442a204.897 204.897 0 0 1-60.539 12.737zm-18.535.212a205.345 205.345 0 0 1-61.321-11.421l14.016-47.857a160.524 160.524 0 0 0 44.885 7.105l2.42 52.173zm-67.156-13.575a205.7 205.7 0 0 1-49.771-27.609l26.358-39.123a160.313 160.313 0 0 0 38.755 19.492l-15.342 47.24zm-63.06-38.488a203.436 203.436 0 0 1-8.715-8.218 206.934 206.934 0 0 1-30.702-39.151l37.107-22.906a160.806 160.806 0 0 0 19.134 23.072 160.36 160.36 0 0 0 9.313 8.605l-26.137 38.598zm-41.672-51.179a204.692 204.692 0 0 1-23.928-64.57l40.208-5.521a160.187 160.187 0 0 0 20.929 47.856l-37.209 22.235zM494.01 206.769l-17.284 5.825a209.618 209.618 0 0 0-8.191-19.667l56.14-24.591a264.777 264.777 0 0 1 13.068 33.518l-41.359 11.164-2.374-6.249zm55.688 64.081l-61.339-4.51a211.132 211.132 0 0 0-6.442-37.134l18.563-4.28-2.292-6.672 41.764-8.872a268.068 268.068 0 0 1 9.746 61.468zm.24 41.286l-40.909-1.988-.312-4.114-19.585-1.408v-20.1c0-4.399-.132-8.767-.396-13.105l61.119 4.546c.055 2.099.083 4.203.083 6.314v29.855zm-.001 69.926l-40.484-2.246.184-5.052-20.505-1.436v-52.394l20.275 1.427v-7.124l40.53 1.74v65.085zm0 69.42l-41.294-3.332.073-3.985-19.584-1.629v-52.201l20.044 1.436v-6.893l40.761 1.951v64.653zm0 68.509l-41.405-3.571-.165-3.718-19.235-1.85v-52.339l19.612 1.593v-7.621l41.193 3.498v64.008zm-.257 45.776l-60.925-3.515c.248-4.188.377-8.421.377-12.673v-25.143l19.897 1.785v-6.019l40.909 3.369v30.37c0 3.958-.086 7.9-.258 11.826zm-11.109 65.674l-37.125-9.544 1.564-7.804-22.152-5.522a212.864 212.864 0 0 0 7.639-42.491l60.971 3.681a267.152 267.152 0 0 1-10.897 61.68zm-42.408 83.694l-33.969-22.088 3.856-5.798-18.13-11.623a213.056 213.056 0 0 0 28.116-52.274l22.778 8.807 1.776-6.442 36.656 10.123a267.73 267.73 0 0 1-41.083 79.295zm-69.429 64.598l-25.382-30.932 3.304-1.786-13.225-18.121a214.091 214.091 0 0 0 46.936-41.157l18.59 13.142 2.568-4.463 33.371 23.008a269.667 269.667 0 0 1-66.162 60.309zm-85.295 35.938l-13.925-33.637 6.912-2.679-7.933-22.52a211.801 211.801 0 0 0 54.142-21.425l12.664 19.861 5.798-3.571 24.048 30.315a266.633 266.633 0 0 1-81.706 33.656zm-59.987 6.727a269.634 269.634 0 0 1-34.917-2.255l-1.233-36.334 4.16.129-1.077-22.833a215.887 215.887 0 0 0 61.607-.92l7.16 24.167 6.111-1.426 13.123 33.867a269.343 269.343 0 0 1-54.934 5.605zm-40.972-3.1a266.7 266.7 0 0 1-83.28-27.315l10.188-32.267 5.908 1.841 4.74-22.401a211.813 211.813 0 0 0 57.373 19.861l-1.141 23.008 7.104 1.178-.892 36.095zm-88.342-30.04A269.403 269.403 0 0 1 91.6 743.757a265.87 265.87 0 0 1-10.3-10.896l23.073-27.398 4.601 5.236 11.587-14.936a176.767 176.767 0 0 0 4.473 4.601 214.521 214.521 0 0 0 40.494 31.788l-7.031 20.413 4.528 2.963-10.888 33.73zm-73.515-59.444a268.314 268.314 0 0 1-47.516-78.705l29.34-15.885 3.975 7.105 15.278-8.78a213.278 213.278 0 0 0 32.211 52.559l-12.047 11.854 3.359 4.141-24.6 27.711zm-49.614-84.273a267.01 267.01 0 0 1-11.965-44.663l49.587-9.507a212.423 212.423 0 0 0 7.97 29.128l-17.707 6.829 1.841 4.74-29.726 13.473z" fill="#C9C5C5"/><path d="M413.104 544.397V282.603c0-79.825-64.711-144.537-144.536-144.537s-144.536 64.712-144.536 144.537v261.794c0 79.825 64.711 144.536 144.536 144.536s144.536-64.711 144.536-144.536z" stroke="#fff" stroke-width="9.203" stroke-miterlimit="10"/><path d="M494.01 206.769l-17.284 5.825a209.618 209.618 0 0 0-8.191-19.667l56.14-24.591a264.777 264.777 0 0 1 13.068 33.518l-41.359 11.164-2.374-6.249zm55.688 64.081l-61.339-4.51a211.132 211.132 0 0 0-6.442-37.134l18.563-4.28-2.292-6.672 41.764-8.872a268.068 268.068 0 0 1 9.746 61.468zm.24 41.286l-40.909-1.988-.312-4.114-19.585-1.408v-20.1c0-4.399-.132-8.767-.396-13.105l61.119 4.546c.055 2.099.083 4.203.083 6.314v29.855zm-.001 69.926l-40.484-2.246.184-5.052-20.505-1.436v-52.394l20.275 1.427v-7.124l40.53 1.74v65.085zm0 69.42l-41.294-3.332.073-3.985-19.584-1.629v-52.201l20.044 1.436v-6.893l40.761 1.951v64.653zm0 68.509l-41.405-3.571-.165-3.718-19.235-1.85v-52.339l19.612 1.593v-7.621l41.193 3.498v64.008zm-.257 45.776l-60.925-3.515c.248-4.188.377-8.421.377-12.673v-25.143l19.897 1.785v-6.019l40.909 3.369v30.37c0 3.958-.086 7.9-.258 11.826zm-11.109 65.674l-37.125-9.544 1.564-7.804-22.152-5.522a212.864 212.864 0 0 0 7.639-42.491l60.971 3.681a267.152 267.152 0 0 1-10.897 61.68zm-509.562 14.1a267.01 267.01 0 0 1-11.965-44.663l49.587-9.507a212.423 212.423 0 0 0 7.97 29.128l-17.707 6.829 1.841 4.74-29.726 13.473zm467.154 69.594l-33.969-22.088 3.856-5.798-18.13-11.623a213.056 213.056 0 0 0 28.116-52.274l22.778 8.807 1.776-6.442 36.656 10.123a267.73 267.73 0 0 1-41.083 79.295zm-417.54 14.679a268.314 268.314 0 0 1-47.516-78.705l29.34-15.885 3.975 7.105 15.278-8.78a213.278 213.278 0 0 0 32.211 52.559l-12.047 11.854 3.359 4.141-24.6 27.711zm348.111 49.919l-25.382-30.932 3.304-1.786-13.225-18.121a214.091 214.091 0 0 0 46.936-41.157l18.59 13.142 2.568-4.463 33.371 23.008a269.667 269.667 0 0 1-66.162 60.309zm-274.596 9.525A269.403 269.403 0 0 1 91.6 743.757a265.87 265.87 0 0 1-10.3-10.896l23.073-27.398 4.601 5.236 11.587-14.936a176.767 176.767 0 0 0 4.473 4.601 214.521 214.521 0 0 0 40.494 31.788l-7.031 20.413 4.528 2.963-10.888 33.73zm189.301 26.413l-13.925-33.637 6.912-2.679-7.933-22.52a211.801 211.801 0 0 0 54.142-21.425l12.664 19.861 5.798-3.571 24.048 30.315a266.633 266.633 0 0 1-81.706 33.656zm-100.959 3.627a266.7 266.7 0 0 1-83.28-27.315l10.188-32.267 5.908 1.841 4.74-22.401a211.813 211.813 0 0 0 57.373 19.861l-1.141 23.008 7.104 1.178-.892 36.095zm40.972 3.1a269.634 269.634 0 0 1-34.917-2.255l-1.233-36.334 4.16.129-1.077-22.833a215.887 215.887 0 0 0 61.607-.92l7.16 24.167 6.111-1.426 13.123 33.867a269.343 269.343 0 0 1-54.934 5.605zm196.765-577.869l-51.262 7.998a159.377 159.377 0 0 0-16.492-47.388l36.38-16.271 3.12 5.725 10.197-4.915a204.617 204.617 0 0 1 18.057 54.851zm3.203 43.31c-.175.865-.295 1.335-.295 1.335h-51.63v-8.053c0-4.461-.181-8.878-.543-13.253h24.628v-10.915l26.036-3.432a208.055 208.055 0 0 1 1.84 27.379l-.036 6.939zm0 57.99h-51.925v-27.03h26.321v-7.795h-26.321v-17.661h51.925v52.486zm0 68.775h-51.925v-28.401h26.321v-9.194h-26.321v-24.425h51.925v62.02zm0 68.941h-51.925v-28.06h26.321v-9.36h-26.321v-27.021h51.925v64.441zm0 53.121h-51.925v-15.157l26.321.497v-9.121l-26.321-.175v-23.965h51.925v47.921zm-1.804 43.605l-15.646-2.135v-15.075h-35.34v-.276c.577-5.574.866-11.173.865-16.777v-4.777h51.925v11.688a207.954 207.954 0 0 1-1.804 27.352zM96.505 655.737a204.692 204.692 0 0 1-23.928-64.57l40.208-5.521a160.187 160.187 0 0 0 20.929 47.856l-37.209 22.235zm41.672 51.179a203.436 203.436 0 0 1-8.715-8.218 206.934 206.934 0 0 1-30.702-39.151l37.107-22.906a160.806 160.806 0 0 0 19.134 23.072 160.36 160.36 0 0 0 9.313 8.605l-26.137 38.598zm63.06 38.488a205.7 205.7 0 0 1-49.771-27.609l26.358-39.123a160.313 160.313 0 0 0 38.755 19.492l-15.342 47.24zm67.156 13.575a205.345 205.345 0 0 1-61.321-11.421l14.016-47.857a160.524 160.524 0 0 0 44.885 7.105l2.42 52.173z" fill="#C9C5C5"/><path d="M547.627 556.196V270.804c0-147.019-119.183-266.202-266.202-266.202h-5.347c-147.02 0-266.203 119.183-266.203 266.202v285.392c0 147.019 119.183 266.202 266.203 266.202h5.347c147.019 0 266.202-119.183 266.202-266.202z" stroke="#fff" stroke-width="9.203" stroke-miterlimit="10"/><path d="M96.855 253.318v322.978H0V253.318h96.855z" fill="#C9C5C5"/><g clip-path="url(#clip1_6445_189874)"><path d="M214.229 291.851h108.265l-11.715-28.64h-82.02l-14.53 28.64zm138.263.001v63.295h-62.336v87.711a30.706 30.706 0 0 0-41.708-.151v-87.56h-63.274v-63.295h167.318z" fill="#C9C5C5"/><path d="M375.022 450.611h-46.867v74.842h46.867v-74.842z" fill="#0062CC"/><path d="M347.744 490.453a.582.582 0 0 1-.331-.091.69.69 0 0 1-.204-.281l-1.888-4.329a.491.491 0 0 1-.042-.325.371.371 0 0 1 .156-.219.478.478 0 0 1 .281-.079c.142.001.247.034.315.098a.638.638 0 0 1 .182.274l1.714 4.055-.316-.002 1.768-4.036a.708.708 0 0 1 .194-.264.458.458 0 0 1 .31-.093.413.413 0 0 1 .264.083.353.353 0 0 1 .138.222.533.533 0 0 1-.054.323l-1.955 4.3a.685.685 0 0 1-.208.278.53.53 0 0 1-.324.086zm5.248.04a.584.584 0 0 1-.331-.091.709.709 0 0 1-.204-.281l-1.888-4.329a.494.494 0 0 1-.042-.324.38.38 0 0 1 .157-.22.482.482 0 0 1 .28-.079c.142.001.248.034.316.098.073.06.134.151.182.274l1.714 4.055-.317-.002 1.769-4.036a.724.724 0 0 1 .193-.264.46.46 0 0 1 .31-.093.423.423 0 0 1 .265.083.358.358 0 0 1 .138.222.536.536 0 0 1-.054.324l-1.955 4.299a.687.687 0 0 1-.208.278.525.525 0 0 1-.325.086zm3.658.028c-.152-.001-.269-.043-.352-.127a.525.525 0 0 1-.115-.362l.033-4.337c.001-.157.042-.277.121-.359a.477.477 0 0 1 .354-.123c.152.001.267.044.345.128.083.084.124.205.123.362l-.034 4.336a.525.525 0 0 1-.12.36c-.079.083-.198.124-.355.122zm2.078.016c-.152-.001-.269-.043-.352-.128a.52.52 0 0 1-.115-.361l.033-4.285c.001-.157.044-.275.128-.352a.477.477 0 0 1 .354-.123l1.774.014c.57.004 1.008.15 1.315.437.307.287.458.686.454 1.196-.003.511-.161.909-.473 1.197-.311.282-.751.421-1.321.416l-1.31-.01-.012 1.517a.525.525 0 0 1-.12.36c-.08.083-.198.124-.355.122zm.493-2.742l1.163.009c.334.002.587-.069.76-.215.173-.151.26-.371.263-.661.002-.289-.082-.509-.253-.657-.171-.149-.423-.224-.757-.227l-1.163-.009-.013 1.76z" fill="#fff"/><path d="M209.472 450.611H164.01v74.842h45.462v-74.842z" fill="#0062CC"/><path d="M375.022 361.707h-46.867v86.531h46.867v-86.531zm-165.55 0H164.01v86.531h45.462v-86.531zm2.418 0h28.156v82.388h-7.538v53.795l9.842 9.263h20.156v18.53H211.89V361.707zm113.752 0h-28.593v81.523h7.97v54.66l-9.842 9.263h-20.156v18.53h50.621V361.707zM164.01 528.23h98.064v15.469h-17.345v17.807H164.01V528.23zm210.58 0h-99.357v15.469h17.341v17.807h82.016V528.23z" fill="#C9C5C5"/><path d="M294.926 359.212v86.314h7.996v50.595l-8.368 8.368h-21.371v39.52h-8.393v-39.252h-22.245l-7.918-7.918v-50.331h7.538v-86.92h-63.53v-66.872h5.471v64h62.703v85.649l.229 2.162a30.703 30.703 0 1 0 44.109.618v-88.684h62.885v-63.745h6.054v66.496h-65.16z" fill="#C9C5C5"/><path d="M268.833 497.829c17.688 0 32.026-14.339 32.026-32.026 0-17.688-14.338-32.027-32.026-32.027-17.688 0-32.026 14.339-32.026 32.027 0 17.687 14.338 32.026 32.026 32.026z" fill="#C9C5C5" stroke="#fff" stroke-width="4.602" stroke-miterlimit="10"/><path d="M291.38 544.869h-45.708v16.636h45.708v-16.636z" fill="#C9C5C5"/><path d="M181.816 490.453a.584.584 0 0 1-.331-.091.69.69 0 0 1-.204-.281l-1.888-4.329a.498.498 0 0 1-.042-.325.377.377 0 0 1 .157-.219.475.475 0 0 1 .28-.079c.142.001.248.034.316.098a.647.647 0 0 1 .182.274l1.714 4.055-.317-.002 1.769-4.036a.707.707 0 0 1 .193-.264.46.46 0 0 1 .31-.093.417.417 0 0 1 .265.083.353.353 0 0 1 .138.222.533.533 0 0 1-.054.323l-1.955 4.3a.694.694 0 0 1-.208.278.533.533 0 0 1-.325.086zm5.249.04a.582.582 0 0 1-.331-.091.69.69 0 0 1-.204-.281l-1.888-4.329a.494.494 0 0 1-.042-.324.373.373 0 0 1 .156-.22.485.485 0 0 1 .281-.079c.142.001.247.034.315.098.074.06.134.151.182.274l1.714 4.055-.316-.002 1.768-4.036a.725.725 0 0 1 .194-.264.458.458 0 0 1 .31-.093.418.418 0 0 1 .264.083.358.358 0 0 1 .138.222.536.536 0 0 1-.054.324l-1.954 4.299a.689.689 0 0 1-.209.278.524.524 0 0 1-.324.086zm3.658.028c-.152-.001-.27-.043-.353-.127a.53.53 0 0 1-.115-.362l.034-4.337c.001-.157.041-.277.12-.359a.48.48 0 0 1 .355-.123c.152.001.267.044.345.128.083.084.123.205.122.362l-.033 4.336a.525.525 0 0 1-.121.36c-.079.083-.197.124-.354.122zm2.078.016c-.152-.001-.27-.043-.353-.128a.52.52 0 0 1-.115-.361l.033-4.285c.001-.157.044-.275.128-.352a.477.477 0 0 1 .354-.123l1.775.014c.569.004 1.007.15 1.314.437.307.287.459.686.455 1.196-.004.511-.162.909-.473 1.197-.311.282-.752.421-1.321.416l-1.311-.01-.011 1.517a.53.53 0 0 1-.121.36c-.079.083-.197.124-.354.122zm.492-2.742l1.163.009c.334.002.587-.069.76-.215.173-.151.261-.371.263-.661.002-.289-.082-.509-.253-.657-.17-.149-.422-.224-.756-.227l-1.163-.009-.014 1.76z" fill="#fff"/></g><path d="M497.556 197.907c-.186.043-.345.026-.475-.05a.617.617 0 0 1-.248-.395c-.042-.186-.024-.337.055-.453.086-.118.222-.198.408-.24l1.203-.274-1.201-5.273.666-.152-1.361 1.315a.636.636 0 0 1-.365.185.607.607 0 0 1-.335-.082.705.705 0 0 1-.229-.264.577.577 0 0 1-.057-.348.648.648 0 0 1 .211-.365l1.279-1.228c.124-.119.25-.223.381-.313a.983.983 0 0 1 .375-.187.568.568 0 0 1 .405.043c.118.056.199.177.241.363l1.365 5.993 1.095-.25c.186-.042.34-.028.462.042.128.069.214.196.256.382.043.186.022.342-.063.466-.077.124-.209.206-.395.249l-3.673.836zm7.419-1.577a3.6 3.6 0 0 1-.987.078 3.506 3.506 0 0 1-1.024-.23.513.513 0 0 1-.289-.227.683.683 0 0 1-.097-.329.667.667 0 0 1 .084-.324.466.466 0 0 1 .256-.216c.109-.048.241-.048.395 0 .276.088.528.136.756.144.228.009.449-.012.664-.061.415-.094.744-.271.986-.529.243-.259.391-.598.446-1.017.061-.428.026-.928-.104-1.501l-.184-.806.129-.029c.032.37-.016.708-.141 1.015a1.941 1.941 0 0 1-.57.774 2.256 2.256 0 0 1-.909.422c-.43.097-.84.082-1.231-.048a2.244 2.244 0 0 1-.99-.678 2.754 2.754 0 0 1-.576-1.19c-.113-.494-.109-.955.013-1.382a2.37 2.37 0 0 1 .688-1.094 2.596 2.596 0 0 1 1.224-.629c.63-.143 1.196-.118 1.7.076s.934.548 1.292 1.061c.357.507.625 1.157.806 1.952.147.644.202 1.234.166 1.769a3.613 3.613 0 0 1-.347 1.401 2.774 2.774 0 0 1-.853 1.019 3.4 3.4 0 0 1-1.303.579zm-.495-4.01c.258-.059.47-.168.638-.326.172-.167.289-.367.349-.599.058-.24.057-.495-.005-.767a1.607 1.607 0 0 0-.328-.694 1.188 1.188 0 0 0-.572-.378 1.335 1.335 0 0 0-.715-.018 1.343 1.343 0 0 0-.638.326 1.294 1.294 0 0 0-.352.589c-.06.232-.058.487.006.767.062.272.171.503.327.693.162.182.353.311.574.389.22.071.458.077.716.018zm1.665 55.689c-.229.053-.408.041-.539-.035-.124-.085-.21-.227-.255-.428a.721.721 0 0 1 .016-.376c.038-.129.103-.272.196-.429l1.635-2.79c.251-.418.416-.784.496-1.095.078-.319.084-.622.019-.909-.081-.357-.258-.603-.529-.737-.265-.136-.612-.155-1.041-.057a2.622 2.622 0 0 0-.706.274c-.229.12-.45.29-.663.512a.555.555 0 0 1-.341.191.538.538 0 0 1-.321-.074.644.644 0 0 1-.295-.599.636.636 0 0 1 .187-.37c.26-.278.568-.514.923-.708a4.447 4.447 0 0 1 1.123-.425c.544-.124 1.021-.146 1.431-.066.41.08.747.255 1.013.526.265.271.448.632.551 1.083.069.301.085.606.05.915a3.471 3.471 0 0 1-.242.97 6.856 6.856 0 0 1-.549 1.108l-1.54 2.565-.083-.365 3.157-.719c.194-.044.351-.031.472.039.122.07.204.199.246.385.042.186.025.341-.052.464-.078.123-.213.206-.407.25l-3.952.9zm6.687-1.523c-.186.043-.344.026-.475-.05a.621.621 0 0 1-.248-.395c-.042-.186-.024-.337.055-.453.086-.118.222-.198.409-.24l1.202-.274-1.201-5.273.666-.152-1.361 1.316a.638.638 0 0 1-.364.184.613.613 0 0 1-.335-.081.699.699 0 0 1-.23-.264.58.58 0 0 1-.057-.349.643.643 0 0 1 .211-.364l1.279-1.229c.124-.119.251-.223.381-.313a.998.998 0 0 1 .375-.187.572.572 0 0 1 .405.043c.119.056.199.177.241.363l1.365 5.993 1.096-.249c.186-.043.339-.029.461.041.129.069.214.196.256.382.043.187.022.342-.063.467-.077.123-.209.206-.395.248l-3.673.836zm-2.524 46.168c-.235-.007-.406-.063-.514-.168-.099-.113-.147-.272-.141-.478a.733.733 0 0 1 .109-.361c.069-.115.168-.238.296-.366l2.277-2.297c.347-.343.598-.656.753-.938.155-.29.236-.581.244-.875.01-.367-.1-.649-.33-.846-.222-.197-.554-.302-.994-.314-.25-.006-.5.024-.752.09a2.62 2.62 0 0 0-.769.332.548.548 0 0 1-.377.1.542.542 0 0 1-.294-.151.632.632 0 0 1-.157-.302.64.64 0 0 1 .021-.352.637.637 0 0 1 .272-.312 3.691 3.691 0 0 1 1.071-.456 4.427 4.427 0 0 1 1.193-.133c.558.015 1.026.112 1.403.291.377.18.66.433.85.762.189.328.278.723.265 1.186a2.693 2.693 0 0 1-.179.898 3.475 3.475 0 0 1-.475.88 6.892 6.892 0 0 1-.808.937l-2.128 2.102.01-.374 3.237.087c.198.006.348.057.448.156.1.098.147.242.142.433-.005.191-.06.336-.166.436-.105.1-.257.148-.455.142l-4.052-.109zm8.283.334a5.234 5.234 0 0 1-1.229-.188 3.537 3.537 0 0 1-1.099-.492.747.747 0 0 1-.289-.338.605.605 0 0 1-.034-.354.63.63 0 0 1 .173-.293.555.555 0 0 1 .323-.134.747.747 0 0 1 .427.11 4 4 0 0 0 .86.376c.278.074.563.115.857.123.323.008.595-.028.818-.111a.998.998 0 0 0 .506-.383c.122-.173.187-.384.194-.633.009-.367-.108-.642-.353-.825-.237-.19-.591-.292-1.06-.304l-.705-.019c-.206-.006-.362-.062-.469-.167-.1-.106-.148-.25-.143-.434.005-.184.06-.325.166-.425.113-.1.272-.147.477-.142l.573.016c.279.007.519-.03.719-.113.201-.09.359-.218.473-.384.115-.166.176-.37.182-.612.009-.338-.097-.598-.32-.78-.216-.182-.536-.279-.962-.29a2.867 2.867 0 0 0-1.564.398.6.6 0 0 1-.388.089.498.498 0 0 1-.294-.151.628.628 0 0 1-.157-.291.585.585 0 0 1 .031-.352.64.64 0 0 1 .284-.312 3.645 3.645 0 0 1 1.059-.434c.384-.1.779-.144 1.182-.133.536.014.993.111 1.37.29.377.172.661.415.851.728.197.307.29.677.278 1.11a2.018 2.018 0 0 1-.199.843 1.826 1.826 0 0 1-1.294.979l.004-.132c.526.102.931.333 1.215.694.285.352.42.789.406 1.311-.013.455-.137.848-.374 1.18a2.203 2.203 0 0 1-.99.755c-.423.165-.925.24-1.505.224zm-7.232 59.515c-.235-.013-.404-.074-.509-.183-.096-.116-.139-.276-.127-.481a.73.73 0 0 1 .119-.358 1.96 1.96 0 0 1 .307-.358l2.341-2.23c.357-.334.616-.639.779-.917a1.95 1.95 0 0 0 .269-.867c.02-.367-.082-.652-.306-.856-.216-.203-.545-.317-.985-.341-.249-.014-.5.009-.753.068a2.59 2.59 0 0 0-.779.31.556.556 0 0 1-.38.089.545.545 0 0 1-.289-.159.627.627 0 0 1-.148-.307.638.638 0 0 1 .03-.351.641.641 0 0 1 .282-.304 3.648 3.648 0 0 1 1.083-.425 4.422 4.422 0 0 1 1.196-.099c.558.031 1.022.141 1.394.331.372.19.648.451.828.785.18.334.257.731.231 1.193a2.717 2.717 0 0 1-.204.894 3.492 3.492 0 0 1-.5.865c-.215.29-.493.594-.834.914l-2.187 2.04.02-.374 3.234.18c.198.011.345.067.443.168.097.101.14.247.13.438-.011.19-.07.334-.179.431-.108.097-.261.14-.459.129l-4.047-.225zm8.49.582a4.793 4.793 0 0 1-1.179-.22 3.859 3.859 0 0 1-1.084-.534.712.712 0 0 1-.269-.324.7.7 0 0 1-.013-.365.628.628 0 0 1 .182-.299.52.52 0 0 1 .317-.137.686.686 0 0 1 .401.122c.263.169.531.302.805.398.275.096.569.153.884.17.308.017.575-.023.801-.121.227-.097.404-.242.532-.433.128-.192.2-.42.215-.684.022-.41-.084-.747-.319-1.01-.235-.271-.569-.418-1.002-.442a1.977 1.977 0 0 0-.688.083 1.865 1.865 0 0 0-.671.36 1.503 1.503 0 0 1-.263.162.73.73 0 0 1-.334.059c-.183-.011-.32-.066-.41-.167a.537.537 0 0 1-.121-.404l.2-3.596c.011-.198.071-.345.179-.442.116-.104.273-.15.471-.139l3.618.201c.198.011.346.07.443.179.104.101.151.247.141.438-.011.183-.073.323-.189.42-.109.097-.262.14-.46.129l-2.859-.159-.137 2.463-.363-.02c.205-.246.469-.43.792-.552a2.524 2.524 0 0 1 1.045-.151c.492.027.911.157 1.258.39.356.225.622.53.799.915.185.378.264.813.236 1.304-.028.506-.166.947-.415 1.323a2.386 2.386 0 0 1-1.029.847c-.43.19-.934.268-1.514.236zm-8.61 65.656c-.234-.007-.405-.064-.513-.17-.099-.113-.146-.272-.14-.478a.738.738 0 0 1 .11-.36c.07-.116.169-.238.298-.366l2.282-2.291c.348-.342.6-.654.755-.936.156-.289.238-.581.247-.874.01-.367-.099-.65-.328-.847-.222-.198-.553-.303-.993-.316a2.617 2.617 0 0 0-.752.088 2.575 2.575 0 0 0-.77.329.544.544 0 0 1-.378.099.533.533 0 0 1-.293-.151.625.625 0 0 1-.156-.303.64.64 0 0 1 .021-.352.644.644 0 0 1 .274-.311 3.632 3.632 0 0 1 1.071-.453c.4-.099.798-.142 1.194-.13.558.016 1.025.115 1.402.295.376.18.659.434.848.763.188.329.276.725.262 1.187a2.696 2.696 0 0 1-.181.898 3.502 3.502 0 0 1-.478.879 6.91 6.91 0 0 1-.81.934l-2.133 2.097.011-.374 3.237.096c.198.005.347.058.447.156.1.099.147.243.141.434-.006.191-.061.336-.167.436-.106.1-.258.146-.456.141l-4.052-.12zm7.029.296a.69.69 0 0 1-.415-.134.48.48 0 0 1-.189-.325c-.018-.14.02-.293.113-.459l3.51-6.155-.014.484-3.567-.106c-.199-.005-.351-.061-.458-.167-.1-.106-.147-.251-.142-.434.006-.191.062-.336.167-.436.114-.1.269-.146.467-.141l4.261.127a.736.736 0 0 1 .48.168c.122.106.18.255.174.446a1.284 1.284 0 0 1-.079.427c-.047.117-.11.243-.187.381l-3.304 5.885a.784.784 0 0 1-.33.343.94.94 0 0 1-.487.096zm-8.704 72.443c-.235-.016-.404-.078-.507-.188-.095-.117-.136-.278-.123-.483a.74.74 0 0 1 .123-.356c.074-.113.177-.231.31-.355l2.364-2.207c.36-.33.623-.633.788-.909.166-.283.258-.571.278-.865.024-.366-.075-.652-.297-.858-.215-.205-.542-.323-.982-.351-.249-.017-.5.004-.754.06-.254.05-.514.151-.782.302a.55.55 0 0 1-.381.086.54.54 0 0 1-.287-.163.618.618 0 0 1-.145-.307.63.63 0 0 1 .034-.351.645.645 0 0 1 .285-.302 3.696 3.696 0 0 1 1.086-.414 4.427 4.427 0 0 1 1.198-.087c.557.037 1.021.152 1.39.345.37.194.644.458.82.794.177.335.25.734.22 1.195-.02.308-.091.605-.213.891a3.533 3.533 0 0 1-.509.861 7.024 7.024 0 0 1-.843.905l-2.208 2.019.025-.374 3.231.212c.198.013.345.071.441.173.096.102.138.248.126.438-.013.191-.074.334-.183.43-.109.096-.263.137-.461.124l-4.044-.265zm7.814.623a3.629 3.629 0 0 1-.969-.207 3.529 3.529 0 0 1-.916-.513.517.517 0 0 1-.212-.301.671.671 0 0 1 .001-.342.677.677 0 0 1 .173-.287.474.474 0 0 1 .307-.134.56.56 0 0 1 .379.113 2.54 2.54 0 0 0 1.337.485c.425.028.79-.047 1.096-.226.306-.178.546-.461.718-.847.18-.393.29-.882.328-1.468l.054-.825.132.009a2.154 2.154 0 0 1-.425.932 1.924 1.924 0 0 1-.767.579c-.302.12-.632.168-.992.145a2.255 2.255 0 0 1-1.166-.397 2.25 2.25 0 0 1-.755-.932 2.759 2.759 0 0 1-.213-1.306c.034-.505.169-.945.407-1.32.246-.374.57-.658.972-.852a2.597 2.597 0 0 1 1.353-.254c.644.043 1.18.229 1.608.559.427.329.739.791.935 1.386.197.586.269 1.287.216 2.1-.044.659-.159 1.241-.347 1.743a3.6 3.6 0 0 1-.733 1.244 2.781 2.781 0 0 1-1.107.733 3.406 3.406 0 0 1-1.414.183zm.67-3.985c.264.017.498-.026.704-.13.213-.112.382-.27.506-.475.124-.213.195-.458.213-.737a1.607 1.607 0 0 0-.115-.758 1.187 1.187 0 0 0-.44-.525 1.34 1.34 0 0 0-.681-.222 1.33 1.33 0 0 0-.704.131 1.274 1.274 0 0 0-.505.463 1.602 1.602 0 0 0-.214.737c-.019.278.02.531.115.758.104.22.25.399.44.537.19.13.417.204.681.221zm-7.76 57.864a5.264 5.264 0 0 1-1.222-.226 3.544 3.544 0 0 1-1.084-.528.733.733 0 0 1-.277-.347.607.607 0 0 1-.024-.354.63.63 0 0 1 .183-.287.56.56 0 0 1 .327-.125.746.746 0 0 1 .423.125c.291.179.574.313.848.403.275.082.559.132.852.149.322.019.596-.009.821-.084.225-.075.398-.197.519-.367.127-.169.198-.378.213-.627.022-.367-.087-.645-.326-.836-.231-.197-.581-.31-1.05-.338l-.704-.041c-.205-.012-.36-.073-.464-.182-.096-.108-.139-.254-.129-.438.011-.183.071-.323.18-.419.116-.097.276-.139.482-.126l.571.033c.279.017.52-.013.723-.09.203-.083.365-.206.485-.368s.187-.364.201-.606c.02-.338-.079-.601-.296-.79-.209-.189-.526-.296-.952-.321a2.904 2.904 0 0 0-.775.054 3.018 3.018 0 0 0-.801.295.604.604 0 0 1-.391.076.495.495 0 0 1-.288-.161.622.622 0 0 1-.148-.295.578.578 0 0 1 .043-.351.626.626 0 0 1 .293-.302 3.634 3.634 0 0 1 1.072-.401 4.24 4.24 0 0 1 1.186-.095c.535.031.989.142 1.36.333.372.184.647.436.827.755.188.313.269.685.243 1.118a2 2 0 0 1-.226.836 1.831 1.831 0 0 1-.532.609 1.89 1.89 0 0 1-.792.328l.008-.132c.523.119.92.364 1.193.733.273.361.394.803.363 1.323a2.073 2.073 0 0 1-.41 1.168 2.202 2.202 0 0 1-1.014.723c-.428.152-.932.21-1.511.176zm5.17.194c-.19-.011-.338-.071-.442-.18a.625.625 0 0 1-.128-.449c.012-.191.071-.331.18-.42.115-.089.268-.128.459-.116l1.231.072.318-5.399.682.04-1.674.884a.642.642 0 0 1-.402.075.611.611 0 0 1-.299-.172.694.694 0 0 1-.146-.317.577.577 0 0 1 .042-.351.648.648 0 0 1 .304-.291l1.571-.823c.152-.079.303-.144.453-.194.151-.057.288-.082.413-.075.154.009.279.06.377.154.098.087.141.226.13.416l-.361 6.136 1.121.066c.191.011.335.067.432.169.104.102.151.248.139.438-.011.191-.074.334-.19.43-.109.097-.259.14-.449.128l-3.761-.221zm-7.387 48.813a5.237 5.237 0 0 1-1.182-.385 3.543 3.543 0 0 1-1.005-.664.747.747 0 0 1-.23-.381.605.605 0 0 1 .024-.354.628.628 0 0 1 .218-.261.557.557 0 0 1 .341-.081c.133.011.267.07.403.179.265.215.528.386.788.51.261.118.536.205.825.26a2.2 2.2 0 0 0 .825.024c.233-.045.42-.143.562-.295a1.13 1.13 0 0 0 .294-.594c.069-.361-.002-.651-.214-.872-.203-.226-.536-.383-.997-.472l-.692-.133c-.202-.039-.348-.119-.436-.241-.082-.12-.105-.271-.071-.451.035-.18.113-.311.233-.393.127-.08.292-.1.494-.062l.563.109c.274.052.516.054.728.005.212-.056.389-.157.529-.302s.233-.336.279-.574c.063-.332 0-.606-.19-.822-.183-.215-.484-.362-.902-.443a2.937 2.937 0 0 0-.776-.048 2.993 2.993 0 0 0-.832.188.602.602 0 0 1-.398.024.501.501 0 0 1-.265-.197.582.582 0 0 1-.019-.654.63.63 0 0 1 .33-.262 3.622 3.622 0 0 1 1.115-.256 4.246 4.246 0 0 1 1.189.06c.526.101.961.271 1.304.509.344.231.585.516.721.857.145.334.177.714.095 1.14a2.012 2.012 0 0 1-.333.799 1.835 1.835 0 0 1-.608.534 1.885 1.885 0 0 1-.828.222l.025-.13c.503.186.865.48 1.087.882.223.394.285.848.187 1.36-.086.447-.273.815-.56 1.103a2.193 2.193 0 0 1-1.1.585c-.444.094-.951.086-1.521-.023zm6.486 1.248a5.255 5.255 0 0 1-1.182-.385 3.543 3.543 0 0 1-1.005-.664.74.74 0 0 1-.23-.381.609.609 0 0 1 .023-.355.627.627 0 0 1 .219-.26.553.553 0 0 1 .34-.081c.133.011.267.07.404.179.265.215.527.386.787.51.262.118.537.205.825.26.318.061.593.069.826.024a.998.998 0 0 0 .561-.295c.149-.151.247-.349.294-.595.07-.36-.002-.65-.214-.871-.203-.226-.535-.383-.997-.472l-.692-.133c-.202-.039-.347-.119-.436-.241-.081-.12-.105-.271-.07-.451.034-.18.112-.311.232-.393.128-.08.293-.101.495-.062l.562.109c.274.052.517.054.728.005a1.11 1.11 0 0 0 .529-.302c.14-.145.233-.336.279-.574.064-.332.001-.606-.19-.822-.183-.215-.483-.362-.901-.443a2.94 2.94 0 0 0-.776-.048 3.03 3.03 0 0 0-.833.187.593.593 0 0 1-.397.025.494.494 0 0 1-.265-.197.626.626 0 0 1-.108-.312.581.581 0 0 1 .088-.342.628.628 0 0 1 .331-.262c.349-.142.72-.228 1.115-.256a4.2 4.2 0 0 1 1.188.06c.527.101.961.271 1.304.509.345.231.585.516.722.857.145.334.176.714.095 1.139-.059.303-.17.57-.334.8a1.832 1.832 0 0 1-.607.534 1.92 1.92 0 0 1-.828.222l.025-.13c.502.186.865.48 1.086.882.224.394.286.848.187 1.36-.086.447-.272.814-.56 1.103a2.194 2.194 0 0 1-1.099.585c-.445.094-.952.086-1.521-.023zm-30.649 67.171a5.242 5.242 0 0 1-1.096-.587 3.547 3.547 0 0 1-.872-.831.738.738 0 0 1-.159-.415.6.6 0 0 1 .086-.345.616.616 0 0 1 .261-.218.553.553 0 0 1 .349-.019.743.743 0 0 1 .365.247c.223.259.452.473.686.641.237.162.492.296.766.401.302.116.571.173.808.17a.997.997 0 0 0 .605-.192c.173-.123.305-.3.394-.533.132-.343.113-.641-.057-.895-.16-.259-.459-.472-.898-.641l-.658-.253c-.192-.074-.32-.179-.386-.314-.059-.133-.056-.285.01-.457.066-.171.165-.286.298-.345.14-.056.306-.048.498.026l.534.206c.261.1.499.145.716.134.219-.018.411-.086.574-.204a1.11 1.11 0 0 0 .376-.517c.121-.315.107-.596-.042-.842-.142-.243-.412-.442-.81-.595a2.919 2.919 0 0 0-.755-.184 2.99 2.99 0 0 0-.852.038.602.602 0 0 1-.396-.046.494.494 0 0 1-.226-.241.63.63 0 0 1-.051-.326.58.58 0 0 1 .147-.321.636.636 0 0 1 .372-.2 3.621 3.621 0 0 1 1.142-.055c.396.034.783.124 1.16.269.5.192.898.436 1.194.731.298.287.484.611.559.97.083.355.047.734-.108 1.139-.111.287-.267.53-.469.728-.2.191-.43.33-.692.418a1.901 1.901 0 0 1-.854.073l.047-.124c.462.272.766.626.914 1.06.15.428.132.885-.056 1.371-.163.425-.412.755-.745.988a2.195 2.195 0 0 1-1.186.382c-.454.014-.952-.083-1.493-.292zm6.369 2.452a4.823 4.823 0 0 1-1.054-.572 3.862 3.862 0 0 1-.869-.841.72.72 0 0 1-.156-.391.695.695 0 0 1 .1-.351.62.62 0 0 1 .265-.228.518.518 0 0 1 .343-.034.688.688 0 0 1 .345.239c.198.242.413.45.644.626.231.176.494.32.789.433.288.111.554.155.8.131.245-.024.458-.107.639-.25a1.34 1.34 0 0 0 .413-.584c.148-.384.15-.737.007-1.06-.141-.329-.413-.572-.818-.727a1.96 1.96 0 0 0-.681-.133 1.87 1.87 0 0 0-.748.137 1.529 1.529 0 0 1-.3.074.73.73 0 0 1-.336-.047c-.172-.066-.285-.161-.34-.284a.544.544 0 0 1 .009-.422l1.294-3.361c.071-.185.173-.307.306-.366.142-.063.306-.059.491.012l3.382 1.301c.185.071.307.174.366.306.069.129.069.282 0 .461-.066.171-.169.285-.308.341-.133.059-.292.053-.477-.018l-2.673-1.029-.886 2.303-.339-.13c.27-.172.578-.266.923-.283.344-.016.692.042 1.041.177.459.177.818.429 1.078.757.269.324.428.696.479 1.117.06.416.001.854-.175 1.313-.182.473-.449.85-.802 1.132a2.38 2.38 0 0 1-1.239.49c-.467.049-.971-.031-1.513-.239zM276.608 794.866a5.241 5.241 0 0 1-1.238-.115 3.572 3.572 0 0 1-1.126-.428.74.74 0 0 1-.308-.321.613.613 0 0 1-.055-.351.633.633 0 0 1 .156-.303.565.565 0 0 1 .315-.153.752.752 0 0 1 .432.086c.306.152.6.261.881.325.281.058.568.082.862.073.323-.01.593-.063.81-.158.218-.095.379-.232.484-.411.111-.18.164-.395.156-.644-.012-.367-.145-.635-.4-.803-.248-.176-.606-.257-1.076-.243l-.705.022c-.205.007-.365-.04-.478-.139-.106-.1-.162-.241-.167-.425-.006-.183.041-.328.14-.434.107-.106.263-.162.469-.169l.572-.017a1.77 1.77 0 0 0 .712-.155c.195-.101.345-.238.45-.41.105-.173.154-.38.146-.622-.01-.338-.132-.591-.365-.76-.226-.169-.552-.247-.977-.234a2.883 2.883 0 0 0-.768.123c-.233.066-.49.188-.771.365a.594.594 0 0 1-.382.111.49.49 0 0 1-.302-.134.625.625 0 0 1-.174-.281.584.584 0 0 1 .011-.353.628.628 0 0 1 .266-.327 3.601 3.601 0 0 1 1.031-.495c.378-.122.769-.19 1.173-.202.536-.017.997.053 1.384.21.387.15.684.376.892.678.214.295.329.658.342 1.091.01.309-.04.593-.15.854a1.819 1.819 0 0 1-.475.653 1.903 1.903 0 0 1-.759.399l-.005-.132c.532.071.95.279 1.254.622.304.336.465.764.481 1.285.014.455-.088.855-.305 1.2a2.196 2.196 0 0 1-.944.812c-.413.189-.909.292-1.489.31zm5.345-.188a.682.682 0 0 1-.422-.108.48.48 0 0 1-.208-.313.748.748 0 0 1 .085-.465l3.13-6.357.015.484-3.567.111c-.198.006-.353-.04-.467-.139-.106-.1-.161-.242-.167-.425-.006-.191.041-.339.14-.445.107-.106.26-.163.458-.169l4.26-.132a.739.739 0 0 1 .49.139c.128.099.195.244.201.435a1.29 1.29 0 0 1-.053.431 3.533 3.533 0 0 1-.164.391l-2.941 6.075a.79.79 0 0 1-.309.362.945.945 0 0 1-.481.125zm-88.19-13.749a5.307 5.307 0 0 1-1.127-.525 3.573 3.573 0 0 1-.917-.782.735.735 0 0 1-.181-.405.598.598 0 0 1 .066-.349.623.623 0 0 1 .248-.233.558.558 0 0 1 .348-.038c.13.026.256.102.378.226.238.246.478.447.721.602.245.149.508.268.787.358.308.099.58.14.817.124.236-.017.434-.092.593-.226.166-.131.287-.316.363-.554.113-.349.077-.646-.106-.89-.175-.249-.486-.446-.933-.59l-.671-.216c-.196-.063-.33-.16-.403-.292-.067-.129-.072-.281-.016-.456.057-.175.149-.295.279-.362.136-.064.302-.064.498-.001l.545.175c.266.086.506.117.722.094.218-.03.405-.109.562-.236.157-.127.272-.306.346-.536.104-.322.074-.601-.088-.839-.156-.235-.437-.418-.842-.549a2.957 2.957 0 0 0-.764-.142 3.02 3.02 0 0 0-.849.086.604.604 0 0 1-.398-.024.495.495 0 0 1-.239-.228.623.623 0 0 1-.069-.323.582.582 0 0 1 .129-.329.63.63 0 0 1 .36-.219 3.632 3.632 0 0 1 1.137-.12c.398.012.788.08 1.173.204.51.164.921.385 1.233.663.314.271.518.584.612.938.103.349.089.73-.044 1.143a2.002 2.002 0 0 1-.428.753 1.822 1.822 0 0 1-.667.456c-.257.103-.54.143-.849.121l.041-.126c.476.246.8.581.971 1.007.174.418.181.876.021 1.372a2.078 2.078 0 0 1-.689 1.028c-.32.252-.708.401-1.163.447-.452.04-.954-.03-1.507-.207zm5.857 1.885a3.586 3.586 0 0 1-.889-.436 3.527 3.527 0 0 1-.763-.721.51.51 0 0 1-.133-.343.68.68 0 0 1 .084-.332.68.68 0 0 1 .238-.236.471.471 0 0 1 .33-.055.558.558 0 0 1 .34.202c.193.216.385.386.577.509.191.124.392.219.602.287.405.13.778.146 1.118.048.341-.099.642-.315.903-.647.271-.337.496-.786.676-1.345l.253-.786.126.04a2.164 2.164 0 0 1-.64.801c-.265.2-.56.325-.884.375a2.254 2.254 0 0 1-.997-.101 2.25 2.25 0 0 1-1.035-.669 2.249 2.249 0 0 1-.506-1.088 2.767 2.767 0 0 1 .112-1.318c.155-.483.394-.876.716-1.181.329-.303.712-.5 1.15-.59.441-.098.898-.07 1.374.083.615.198 1.089.509 1.424.933.334.424.524.948.569 1.572.049.617-.052 1.314-.302 2.09-.203.629-.456 1.164-.76 1.606-.295.437-.633.78-1.014 1.028-.38.247-.798.395-1.253.441a3.392 3.392 0 0 1-1.416-.167zm1.62-3.702c.252.081.49.096.715.045a1.25 1.25 0 0 0 .606-.337c.172-.176.301-.397.387-.662.088-.273.112-.527.072-.764a1.182 1.182 0 0 0-.299-.617 1.343 1.343 0 0 0-.606-.38 1.338 1.338 0 0 0-.715-.045 1.28 1.28 0 0 0-.603.327c-.17.169-.299.389-.386.662-.086.266-.11.52-.073.764.047.238.145.447.296.627.153.173.355.299.606.38zm-81.833-41.531c-.17-.14-.266-.295-.287-.465-.017-.176.047-.352.191-.527l.547-.663-2.099-1.731c-.175-.145-.286-.299-.333-.461-.042-.158.003-.316.134-.475.075-.09.179-.171.313-.241a3.97 3.97 0 0 1 .614-.207l5.111-1.453a1.2 1.2 0 0 1 .487-.055.773.773 0 0 1 .409.18.66.66 0 0 1 .253.437c.026.165-.038.34-.192.527l-2.866 3.475.416.344c.164.135.253.275.267.42.025.144-.024.289-.146.437-.121.147-.257.225-.407.234-.14.009-.293-.055-.457-.19l-.416-.344-.547.663c-.145.176-.305.272-.481.289-.171.011-.341-.054-.511-.194zm1.194-2.556l2.187-2.651.246.204-4.43 1.285.238-.288 1.759 1.45zm1.773 4.889c-.147-.121-.231-.256-.25-.406a.62.62 0 0 1 .161-.438c.122-.147.252-.225.392-.233.146-.004.293.055.44.177l.952.785 3.441-4.172.527.434-1.873-.274a.635.635 0 0 1-.369-.176.614.614 0 0 1-.14-.315.705.705 0 0 1 .069-.343.582.582 0 0 1 .241-.258.647.647 0 0 1 .417-.056l1.755.262c.169.026.329.063.48.111a.984.984 0 0 1 .377.183.57.57 0 0 1 .213.347c.028.128-.018.265-.14.412l-3.911 4.742.867.715c.147.121.23.251.249.39.024.144-.025.29-.146.437-.122.147-.258.226-.408.235-.145.014-.291-.04-.438-.162l-2.906-2.397zm-55.757-70.647c-.12-.184-.166-.361-.137-.53.036-.172.15-.321.34-.446l.718-.471-1.492-2.275c-.125-.191-.186-.37-.183-.539.007-.163.097-.301.269-.414a1.02 1.02 0 0 1 .37-.138c.154-.021.37-.026.648-.016l5.312.124c.185.002.346.033.482.093s.248.157.337.292c.105.16.142.324.112.493-.023.165-.136.314-.339.447l-3.766 2.471.296.451c.117.178.16.338.13.481-.019.144-.108.269-.268.373-.16.105-.313.14-.459.104-.136-.034-.263-.139-.38-.317l-.296-.452-.718.472c-.19.124-.372.169-.545.133-.166-.04-.31-.152-.431-.336zm1.897-2.088l2.874-1.885.175.267-4.613-.083.313-.205 1.251 1.906zm.94 6.452a5.23 5.23 0 0 1-.548-1.116 3.546 3.546 0 0 1-.223-1.184c0-.175.037-.318.113-.429a.603.603 0 0 1 .27-.231.628.628 0 0 1 .34-.025c.116.03.214.093.295.189.085.102.136.24.153.413.03.341.09.648.182.921.098.27.227.527.389.773.177.27.363.473.557.609a.997.997 0 0 0 .604.197 1.13 1.13 0 0 0 .63-.203c.308-.202.466-.455.477-.76.02-.304-.099-.652-.356-1.045l-.387-.589c-.113-.172-.156-.332-.13-.481.029-.142.12-.264.274-.364.153-.101.301-.137.443-.107.147.036.276.139.39.311l.313.479c.153.234.321.409.504.526.188.114.383.17.585.17a1.11 1.11 0 0 0 .606-.201c.283-.185.435-.421.458-.708.026-.281-.077-.599-.311-.956a2.937 2.937 0 0 0-.506-.59 2.998 2.998 0 0 0-.714-.466.604.604 0 0 1-.295-.268.498.498 0 0 1-.043-.328.631.631 0 0 1 .149-.295.584.584 0 0 1 .306-.175.638.638 0 0 1 .419.055c.345.152.665.359.96.621.302.259.563.558.785.895.294.448.475.878.543 1.29.075.408.037.78-.112 1.115-.138.337-.39.624-.751.862a2.023 2.023 0 0 1-.806.318 1.849 1.849 0 0 1-.806-.064 1.896 1.896 0 0 1-.736-.44l.11-.072c.217.49.258.955.124 1.394-.127.435-.409.795-.845 1.081-.38.25-.774.372-1.181.367a2.2 2.2 0 0 1-1.186-.381c-.377-.253-.725-.623-1.043-1.108zm-28.725-59.013c-.215.049-.396.03-.544-.056-.15-.094-.25-.252-.3-.474l-.19-.838-2.654.604c-.221.051-.411.045-.568-.017-.15-.064-.248-.196-.294-.396a1.008 1.008 0 0 1 0-.396c.034-.151.104-.355.211-.613l1.972-4.934a1.2 1.2 0 0 1 .254-.419.771.771 0 0 1 .392-.214.665.665 0 0 1 .501.067c.146.08.246.238.3.474l1 4.392.527-.119c.207-.048.373-.033.496.045.129.068.214.196.256.382.043.186.022.342-.063.466-.079.116-.222.198-.43.245l-.526.12.19.838c.051.221.03.407-.065.557-.095.142-.25.237-.465.286zm-1.294-2.506l-.763-3.351.311-.071-1.688 4.293-.083-.365 2.223-.506zm7.733 1.04c-.214.049-.396.03-.544-.057-.149-.094-.249-.252-.3-.474l-.19-.838-2.653.604c-.222.051-.412.045-.569-.017-.15-.064-.248-.196-.293-.396a1.004 1.004 0 0 1 0-.396c.033-.15.104-.355.21-.612l1.972-4.934c.066-.173.151-.313.255-.42a.777.777 0 0 1 .392-.213.665.665 0 0 1 .5.066c.147.08.247.238.3.474l1.001 4.393.526-.12c.208-.047.373-.032.496.045.129.069.215.196.257.382.042.186.021.342-.063.467-.08.115-.223.197-.43.244l-.527.12.191.838c.05.222.029.408-.065.557-.096.142-.25.238-.466.287zm-1.294-2.507l-.763-3.351.312-.071-1.689 4.293-.083-.365 2.223-.506zm48.233 9.496c-.215.049-.396.03-.544-.057-.15-.094-.249-.252-.3-.474l-.19-.838-2.653.605c-.222.05-.412.044-.569-.018-.15-.063-.248-.196-.293-.396a.999.999 0 0 1 0-.395c.033-.151.103-.355.21-.613l1.972-4.934a1.2 1.2 0 0 1 .255-.42.777.777 0 0 1 .392-.213.66.66 0 0 1 .5.067c.147.079.247.237.3.473l1.001 4.393.526-.12c.208-.047.373-.032.496.045.129.069.214.196.257.382.042.187.021.342-.064.467-.079.116-.222.197-.43.244l-.526.12.191.838c.05.222.029.408-.065.557-.096.142-.25.238-.466.287zm-1.294-2.507l-.763-3.351.312-.071-1.689 4.293-.083-.365 2.223-.506zm6.804 1.274c-.623.142-1.19.117-1.7-.075-.505-.202-.936-.555-1.292-1.062-.357-.506-.625-1.156-.806-1.951-.147-.645-.205-1.23-.175-1.757a3.745 3.745 0 0 1 .356-1.414c.201-.407.482-.746.842-1.016a3.479 3.479 0 0 1 1.313-.582c.316-.071.645-.094.99-.067.351.018.692.091 1.022.219a.519.519 0 0 1 .289.228c.062.107.092.22.089.341a.615.615 0 0 1-.084.325.5.5 0 0 1-.245.213.615.615 0 0 1-.398-.011 2.921 2.921 0 0 0-.756-.144 2.568 2.568 0 0 0-.664.061c-.415.095-.744.271-.986.53-.243.258-.395.598-.457 1.019-.055.419-.017.919.115 1.499l.184.805-.13.03a2.276 2.276 0 0 1 .142-1.016 1.84 1.84 0 0 1 .572-.762c.254-.209.556-.353.907-.433a2.223 2.223 0 0 1 1.23.047c.385.131.715.357.991.679.277.321.469.717.576 1.19.111.487.103.948-.023 1.384a2.384 2.384 0 0 1-.676 1.102c-.323.3-.732.506-1.226.618zm-.324-1.078c.257-.059.47-.167.637-.326a1.18 1.18 0 0 0 .352-.588 1.658 1.658 0 0 0-.005-.767 1.615 1.615 0 0 0-.328-.694 1.188 1.188 0 0 0-.572-.378 1.27 1.27 0 0 0-.718-.028 1.27 1.27 0 0 0-.635.336 1.285 1.285 0 0 0-.352.589 1.61 1.61 0 0 0 .006.767c.062.272.17.503.327.693.162.182.353.308.572.378.22.071.458.077.716.018zm27.662 51.611c-.148-.163-.221-.33-.218-.502.008-.176.096-.341.264-.494l.636-.579-1.832-2.011c-.154-.168-.242-.336-.265-.504-.019-.162.048-.312.2-.45.087-.079.202-.144.344-.195.148-.045.36-.084.638-.118l5.265-.713c.183-.028.346-.023.49.015a.77.77 0 0 1 .379.236.67.67 0 0 1 .189.469c.002.166-.086.331-.265.494l-3.331 3.034.363.399c.144.157.212.308.205.454.004.145-.065.282-.206.411s-.287.187-.437.174c-.14-.011-.281-.096-.425-.253l-.363-.399-.635.578c-.169.153-.341.226-.517.218-.171-.013-.331-.101-.479-.264zm1.545-2.361l2.541-2.314.215.236-4.568.645.277-.253 1.535 1.686zm2.092 6.387a4.815 4.815 0 0 1-.687-.983 3.858 3.858 0 0 1-.399-1.142.71.71 0 0 1 .035-.419.693.693 0 0 1 .247-.269.626.626 0 0 1 .339-.086.518.518 0 0 1 .322.124.682.682 0 0 1 .201.368 3.8 3.8 0 0 0 .296.849c.128.26.298.507.511.741.207.228.426.386.656.475.23.089.457.11.683.063a1.34 1.34 0 0 0 .632-.337c.304-.277.464-.592.48-.944.022-.358-.113-.697-.404-1.017a1.976 1.976 0 0 0-.55-.424 1.875 1.875 0 0 0-.73-.213 1.446 1.446 0 0 1-.301-.069.725.725 0 0 1-.28-.192c-.123-.136-.182-.271-.176-.406a.539.539 0 0 1 .197-.373l2.663-2.425c.147-.134.292-.197.438-.19.155.007.3.084.433.231l2.44 2.679c.134.146.197.292.19.438.004.145-.065.282-.206.411a.559.559 0 0 1-.429.167c-.145-.007-.284-.083-.418-.23l-1.928-2.117-1.824 1.661-.245-.269c.319-.032.636.022.951.162.316.139.6.347.852.624.332.364.54.751.624 1.16.096.41.072.814-.072 1.213-.133.399-.381.764-.745 1.096a2.61 2.61 0 0 1-1.223.652 2.38 2.38 0 0 1-1.328-.117c-.439-.166-.854-.463-1.245-.892zm46.49 39.768c-.196-.099-.324-.229-.383-.39-.056-.168-.033-.353.07-.557l.385-.767-2.432-1.221c-.203-.102-.346-.227-.428-.375-.075-.144-.066-.309.026-.492a.99.99 0 0 1 .252-.305c.121-.095.305-.208.552-.339l4.659-2.555c.161-.092.315-.145.463-.162a.77.77 0 0 1 .438.085.66.66 0 0 1 .344.37c.063.154.039.34-.069.556l-2.021 4.027.482.242c.19.095.308.212.354.35.056.135.041.287-.045.458-.085.171-.2.277-.345.32-.135.039-.297.011-.488-.085l-.482-.242-.385.768c-.102.203-.237.333-.405.388-.164.049-.345.025-.542-.074zm.596-2.758l1.541-3.071.286.143-4.033 2.24.168-.335 2.038 1.023zm2.59 4.258c-.21-.105-.341-.229-.393-.37-.043-.145-.018-.309.074-.492a.735.735 0 0 1 .252-.281c.112-.075.253-.144.424-.206l3.036-1.114c.46-.163.82-.34 1.08-.53.263-.197.46-.426.592-.689.164-.328.185-.63.06-.906-.118-.273-.373-.508-.767-.706a2.63 2.63 0 0 0-.719-.237 2.593 2.593 0 0 0-.837-.026.552.552 0 0 1-.384-.07.53.53 0 0 1-.202-.261.62.62 0 0 1-.014-.34.635.635 0 0 1 .168-.31.645.645 0 0 1 .379-.167 3.686 3.686 0 0 1 1.163.041c.403.08.783.208 1.137.386.499.251.881.537 1.146.859.266.322.415.672.447 1.05.032.378-.055.773-.263 1.187a2.72 2.72 0 0 1-.543.738c-.217.22-.485.418-.804.595a6.93 6.93 0 0 1-1.128.505l-2.82 1.001.168-.335 2.895 1.453c.177.089.29.199.339.33.049.132.031.283-.055.453-.085.171-.197.279-.335.325-.138.046-.296.024-.473-.065l-3.623-1.818zm50.07 17.441c-.218-.027-.382-.107-.492-.239-.108-.139-.148-.322-.12-.548l.106-.852-2.7-.336c-.226-.028-.402-.098-.529-.21-.119-.111-.166-.268-.141-.472.015-.117.06-.241.135-.372.083-.13.218-.299.407-.505l3.534-3.967a1.2 1.2 0 0 1 .383-.307.776.776 0 0 1 .441-.068.666.666 0 0 1 .448.234c.11.124.151.307.121.548l-.556 4.47.536.067c.211.026.361.096.451.211.097.108.134.257.111.447-.024.189-.097.328-.219.417-.114.082-.276.11-.487.083l-.536-.066-.106.852c-.028.226-.112.393-.251.502-.138.101-.317.138-.536.111zm-.362-2.798l.424-3.41.317.039-3.05 3.462.046-.372 2.263.281zm5.679 3.481c-.911-.113-1.565-.542-1.96-1.287-.395-.752-.513-1.766-.355-3.041.107-.86.302-1.568.586-2.125.292-.563.664-.968 1.117-1.215.46-.246.992-.332 1.597-.257.918.114 1.572.536 1.962 1.265.398.731.517 1.737.358 3.019-.106.853-.306 1.564-.599 2.135-.284.564-.654.977-1.108 1.238-.454.255-.986.344-1.598.268zm.142-1.148c.496.062.889-.122 1.179-.553.297-.429.507-1.132.628-2.108.122-.977.089-1.698-.097-2.165-.178-.474-.514-.741-1.01-.803-.488-.061-.88.116-1.176.531-.295.407-.503 1.099-.624 2.076-.122.976-.091 1.709.093 2.198.183.489.519.763 1.007.824zm197.448-123.936a5.24 5.24 0 0 1-1.207-.301 3.553 3.553 0 0 1-1.049-.593.736.736 0 0 1-.255-.364.605.605 0 0 1-.002-.355.628.628 0 0 1 .2-.275.557.557 0 0 1 .334-.104.744.744 0 0 1 .415.15c.279.196.553.348.822.454.269.099.549.167.841.202.32.039.595.028.825-.034a.996.996 0 0 0 .539-.334c.138-.161.222-.365.252-.613.044-.364-.047-.649-.274-.854-.219-.211-.561-.345-1.028-.402l-.7-.084c-.204-.025-.354-.095-.451-.21-.09-.114-.124-.263-.102-.445.022-.182.091-.318.205-.408.122-.089.285-.121.489-.096l.568.069c.277.033.519.018.727-.046.208-.071.377-.183.507-.338.129-.154.209-.352.238-.592.04-.336-.042-.605-.247-.807-.197-.201-.507-.328-.93-.379a2.972 2.972 0 0 0-.778.006c-.24.03-.512.112-.817.245a.592.592 0 0 1-.395.052.494.494 0 0 1-.278-.177.634.634 0 0 1-.129-.305.58.58 0 0 1 .064-.347.638.638 0 0 1 .312-.284 3.665 3.665 0 0 1 1.094-.334 4.231 4.231 0 0 1 1.19-.022c.532.064.978.203 1.336.417.36.206.62.474.78.804.168.324.226.7.174 1.13a2.02 2.02 0 0 1-.277.821 1.827 1.827 0 0 1-1.379.854l.016-.131c.514.151.896.419 1.145.804.25.378.344.826.281 1.343a2.076 2.076 0 0 1-.481 1.14 2.201 2.201 0 0 1-1.057.66c-.436.125-.943.153-1.518.083zm6.709.811c-.911-.11-1.566-.537-1.964-1.28-.397-.751-.519-1.764-.365-3.04.104-.86.297-1.569.579-2.127.29-.564.661-.97 1.113-1.219.459-.247.991-.335 1.596-.261.918.111 1.574.53 1.967 1.258.4.729.522 1.735.367 3.018-.103.853-.3 1.565-.591 2.136-.283.565-.651.979-1.104 1.243-.453.255-.985.346-1.598.272zm.139-1.148c.496.06.888-.125 1.177-.556.296-.431.503-1.134.621-2.111.118-.977.084-1.699-.104-2.165-.18-.473-.517-.739-1.013-.799-.488-.059-.88.119-1.174.535-.294.408-.499 1.1-.617 2.077-.119.977-.085 1.71.1 2.198s.522.762 1.01.821zm8.556-51.571c-.235-.007-.406-.063-.513-.169-.1-.113-.147-.272-.141-.478a.716.716 0 0 1 .109-.36c.069-.116.168-.238.296-.367l2.279-2.294c.347-.343.599-.656.753-.938.155-.29.237-.581.245-.875.01-.367-.099-.649-.329-.846-.222-.198-.554-.302-.994-.315a2.66 2.66 0 0 0-.752.09 2.59 2.59 0 0 0-.769.331.556.556 0 0 1-.378.1.544.544 0 0 1-.293-.152.619.619 0 0 1-.157-.302.64.64 0 0 1 .021-.352.643.643 0 0 1 .273-.312 3.683 3.683 0 0 1 1.07-.455c.4-.099.798-.143 1.194-.132.558.016 1.025.113 1.402.293.377.179.661.433.85.762.189.328.277.723.264 1.186a2.693 2.693 0 0 1-.179.898 3.53 3.53 0 0 1-.476.88 6.964 6.964 0 0 1-.809.936l-2.129 2.1.01-.374 3.237.09c.198.006.347.057.447.156.101.098.148.243.143.433-.006.191-.061.337-.167.437-.105.099-.257.147-.455.141l-4.052-.112zm8.437.344c-.602-.016-1.117-.115-1.545-.296-.421-.188-.744-.451-.97-.787-.218-.337-.321-.737-.308-1.199.01-.367.092-.688.247-.963.162-.282.378-.507.647-.676a2.08 2.08 0 0 1 .912-.305l-.007.231a1.978 1.978 0 0 1-1.115-.703 1.96 1.96 0 0 1-.383-1.267c.012-.44.132-.812.361-1.114.229-.309.548-.539.956-.69.408-.157.884-.228 1.427-.213.551.015 1.025.113 1.424.293.4.172.705.42.916.741.212.315.312.692.3 1.133a2.02 2.02 0 0 1-.223.886 1.738 1.738 0 0 1-.559.657 1.876 1.876 0 0 1-.813.33l.006-.221c.512.088.92.316 1.226.685.313.361.462.813.447 1.356-.013.463-.141.856-.385 1.18-.237.324-.574.568-1.012.732-.431.157-.947.227-1.549.21zm.031-1.101c.521.015.917-.073 1.186-.264.27-.199.411-.496.422-.892.011-.397-.113-.697-.372-.903-.259-.206-.649-.316-1.17-.33-.513-.014-.909.074-1.186.264-.27.191-.41.485-.421.881-.011.397.113.701.371.914.266.206.656.316 1.17.33zm.097-3.49c.294.008.544-.029.752-.111.208-.09.37-.222.485-.395.115-.173.176-.377.182-.612.01-.352-.107-.631-.351-.836-.237-.212-.571-.324-1.004-.336-.433-.012-.774.081-1.022.28-.248.191-.376.463-.386.816-.01.359.103.645.34.857.236.213.571.325 1.004.337zm2.36-36.281c-.235 0-.407-.052-.517-.155-.103-.11-.154-.268-.153-.474a.72.72 0 0 1 .1-.363c.066-.118.162-.242.287-.374l2.219-2.352c.339-.352.582-.671.729-.957.148-.293.222-.587.223-.88.001-.367-.116-.647-.351-.838-.227-.192-.561-.288-1.001-.289-.25-.001-.5.036-.75.108a2.629 2.629 0 0 0-.76.351.552.552 0 0 1-.375.109.544.544 0 0 1-.297-.143.643.643 0 0 1-.153-.651.648.648 0 0 1 .265-.319 3.676 3.676 0 0 1 1.059-.482 4.426 4.426 0 0 1 1.19-.162c.558.001 1.027.087 1.409.256.381.17.671.417.868.74.198.324.296.717.295 1.18a2.74 2.74 0 0 1-.156.903c-.096.293-.248.59-.454.891-.199.3-.46.619-.784.956l-2.076 2.154.001-.374 3.238.007c.198.001.349.049.451.144.103.096.154.239.154.43-.001.191-.053.338-.156.441-.103.102-.253.153-.452.153l-4.053-.01zm8.73.131c-.639-.002-1.185-.153-1.64-.456-.447-.309-.788-.75-1.021-1.324-.234-.573-.35-1.267-.348-2.082.002-.661.076-1.245.224-1.751.156-.514.377-.947.664-1.298a2.813 2.813 0 0 1 1.049-.802 3.47 3.47 0 0 1 1.41-.272c.323.001.65.053.98.156.338.097.653.244.946.443.118.074.194.17.231.287.036.118.04.235.01.353a.61.61 0 0 1-.155.297.5.5 0 0 1-.287.153.617.617 0 0 1-.385-.1 2.541 2.541 0 0 0-1.365-.399c-.426-.001-.786.097-1.08.294-.294.198-.519.495-.674.891-.148.396-.222.892-.224 1.486l-.001.827-.133-.001c.06-.374.182-.693.366-.957.192-.271.434-.476.728-.615.295-.146.621-.219.981-.218.448.001.844.108 1.189.322.345.214.616.508.813.883.198.375.296.805.295 1.289a2.73 2.73 0 0 1-.334 1.343 2.375 2.375 0 0 1-.905.923c-.383.22-.827.329-1.334.328zm-.074-1.124c.264.001.495-.057.694-.174.206-.117.364-.282.475-.495.11-.22.166-.47.167-.749 0-.286-.054-.536-.164-.749a1.185 1.185 0 0 0-.472-.497 1.28 1.28 0 0 0-.694-.189c-.264 0-.496.062-.694.186a1.28 1.28 0 0 0-.475.495 1.605 1.605 0 0 0-.167.748c-.001.279.054.529.164.75.117.213.274.378.472.496.198.118.429.178.694.178zm-9.287-61.97c-.235.006-.409-.04-.521-.14-.106-.107-.162-.264-.168-.469a.735.735 0 0 1 .09-.366c.063-.12.155-.247.276-.383l2.148-2.416c.328-.362.562-.688.701-.978.139-.298.204-.593.196-.887-.01-.367-.135-.643-.375-.827-.233-.185-.569-.271-1.01-.259-.249.007-.498.05-.746.13a2.627 2.627 0 0 0-.75.374.555.555 0 0 1-.371.12.54.54 0 0 1-.301-.135.622.622 0 0 1-.173-.293.633.633 0 0 1 .001-.353.652.652 0 0 1 .255-.326 3.63 3.63 0 0 1 1.044-.513 4.435 4.435 0 0 1 1.185-.198c.558-.015 1.03.056 1.416.215.386.158.683.396.89.714.207.317.317.707.33 1.17.008.308-.035.61-.13.907-.087.296-.23.597-.427.904-.19.306-.442.633-.756.979l-2.011 2.215-.01-.375 3.237-.088c.198-.005.35.038.456.131.105.092.16.234.165.425.006.191-.042.339-.142.445-.1.105-.249.161-.447.166l-4.052.111zm9.688-.177c-.221.006-.395-.048-.523-.162-.128-.121-.195-.296-.201-.523l-.024-.859-2.719.074c-.228.007-.413-.036-.555-.128-.135-.092-.205-.24-.21-.446a.99.99 0 0 1 .077-.388c.062-.141.171-.327.327-.559l2.897-4.454a1.22 1.22 0 0 1 .332-.362.767.767 0 0 1 .426-.132.66.66 0 0 1 .478.163c.128.106.195.281.202.523l.123 4.503.539-.014c.213-.006.372.041.478.141.113.092.172.234.177.425.005.191-.046.339-.153.445-.101.098-.257.15-.47.156l-.539.015.023.858c.006.228-.051.406-.173.534-.121.121-.292.184-.512.19zm-.78-2.711l-.094-3.435.32-.009-2.495 3.881-.01-.375 2.279-.062zm-9.002-63.864c-.234-.01-.404-.069-.51-.177-.098-.114-.142-.274-.133-.48a.738.738 0 0 1 .115-.358c.072-.115.172-.235.303-.362l2.316-2.256c.353-.337.61-.646.769-.925.16-.287.246-.577.259-.871.017-.367-.088-.651-.315-.852-.219-.201-.548-.311-.988-.33a2.66 2.66 0 0 0-.754.076c-.252.055-.51.162-.774.319a.552.552 0 0 1-.379.093.529.529 0 0 1-.291-.156.641.641 0 0 1-.125-.656.637.637 0 0 1 .278-.307 3.657 3.657 0 0 1 1.078-.438c.401-.092.799-.13 1.195-.112.558.025 1.024.13 1.398.316.374.185.653.444.836.776.184.331.266.728.245 1.19a2.72 2.72 0 0 1-.194.896 3.511 3.511 0 0 1-.491.871 6.933 6.933 0 0 1-.824.923l-2.164 2.064.017-.374 3.235.144c.198.009.346.063.444.163.099.1.144.245.135.436-.008.191-.066.335-.173.433-.107.098-.26.143-.458.134l-4.05-.18zm6.598.293c-.234-.01-.404-.069-.51-.177-.098-.114-.142-.274-.133-.48a.738.738 0 0 1 .115-.358c.071-.115.172-.235.303-.362l2.316-2.256c.353-.337.61-.646.769-.925.16-.287.246-.577.259-.871.017-.367-.088-.651-.315-.852-.219-.201-.548-.311-.988-.33a2.66 2.66 0 0 0-.754.076c-.252.055-.51.162-.774.319a.552.552 0 0 1-.379.093.529.529 0 0 1-.291-.156.641.641 0 0 1-.125-.656.637.637 0 0 1 .278-.307 3.657 3.657 0 0 1 1.078-.438c.401-.092.799-.13 1.195-.112.558.025 1.024.13 1.398.316.374.185.652.444.836.776.184.331.266.728.245 1.19a2.72 2.72 0 0 1-.194.896 3.511 3.511 0 0 1-.491.871 6.933 6.933 0 0 1-.824.923l-2.164 2.064.017-.374 3.235.144c.198.009.346.063.444.163.099.1.144.245.135.436-.008.191-.066.335-.173.433-.107.098-.26.143-.458.134l-4.05-.18zm-12.532-54.284c-.234.015-.41-.025-.526-.12-.11-.103-.172-.258-.185-.463a.738.738 0 0 1 .075-.369c.058-.121.146-.252.261-.392l2.056-2.497c.314-.373.535-.708.663-1.003.127-.303.181-.601.162-.894-.024-.366-.159-.637-.406-.812-.24-.176-.579-.25-1.019-.221a2.65 2.65 0 0 0-.74.159c-.245.082-.49.216-.736.401a.55.55 0 0 1-.366.135.54.54 0 0 1-.306-.124.625.625 0 0 1-.184-.286.638.638 0 0 1-.012-.352.63.63 0 0 1 .243-.336 3.65 3.65 0 0 1 1.023-.553 4.43 4.43 0 0 1 1.176-.242c.557-.037 1.032.017 1.424.161.392.143.697.37.916.679.219.31.344.695.374 1.157.02.308-.012.611-.095.911a3.514 3.514 0 0 1-.393.92 6.872 6.872 0 0 1-.718 1.007l-1.925 2.289-.024-.373 3.231-.211c.198-.013.351.024.46.113.109.089.169.228.182.419.012.19-.029.34-.125.449-.096.11-.243.171-.441.184l-4.045.264zm8.433-.441c-.915.06-1.638-.239-2.166-.896-.53-.664-.836-1.638-.92-2.92-.056-.865.003-1.597.177-2.197.181-.608.47-1.076.868-1.403.406-.329.912-.513 1.521-.552.923-.061 1.645.231 2.165.874.528.642.834 1.608.918 2.898.056.857-.006 1.593-.187 2.209-.174.607-.459 1.082-.856 1.424-.398.335-.904.523-1.52.563zm-.075-1.154c.498-.032.85-.287 1.054-.764.212-.478.285-1.207.221-2.189-.064-.982-.231-1.685-.502-2.109-.264-.431-.645-.631-1.143-.598-.491.032-.843.279-1.055.742-.213.455-.288 1.174-.224 2.156.065.982.233 1.696.505 2.142.272.445.653.652 1.144.62zm-9.44-48.851c-.191.006-.343-.042-.456-.141a.625.625 0 0 1-.166-.437c-.005-.19.043-.335.143-.433.107-.099.256-.15.447-.156l1.233-.033-.147-5.406.683-.019-1.592 1.024a.639.639 0 0 1-.394.11.618.618 0 0 1-.312-.146.707.707 0 0 1-.174-.304.585.585 0 0 1 .013-.353.64.64 0 0 1 .278-.316l1.494-.955c.145-.092.289-.169.435-.232a.99.99 0 0 1 .404-.11.569.569 0 0 1 .389.121c.105.078.16.213.165.403l.168 6.144 1.123-.03c.191-.005.339.038.444.131.113.092.172.234.177.425.005.191-.046.339-.153.445-.1.105-.246.161-.436.166l-3.766.102zm8.191-.112c-.602.016-1.122-.054-1.56-.211-.43-.165-.768-.409-1.011-.733-.237-.324-.362-.718-.374-1.18-.01-.367.054-.692.194-.975.146-.29.349-.527.608-.711.26-.183.558-.301.894-.355l.007.232a1.977 1.977 0 0 1-1.153-.641 1.963 1.963 0 0 1-.452-1.244c-.012-.44.087-.818.299-1.132.212-.322.517-.569.917-.741.399-.18.87-.277 1.413-.292.551-.015 1.03.056 1.438.214.409.151.727.381.956.69.228.303.349.674.361 1.114.008.323-.049.623-.174.898a1.735 1.735 0 0 1-.521.686 1.866 1.866 0 0 1-.795.374l-.006-.22c.516.059.937.265 1.262.616.333.343.507.787.521 1.33.013.462-.094.862-.32 1.199-.218.336-.542.598-.97.786-.421.181-.933.279-1.534.296zm-.03-1.102c.521-.014.911-.123 1.17-.329.258-.213.382-.517.371-.914-.01-.396-.151-.69-.42-.881-.27-.191-.665-.279-1.187-.265-.513.014-.903.124-1.17.33-.258.205-.382.506-.372.902.011.397.151.694.421.892.277.191.673.279 1.187.265zm-.095-3.49c.293-.008.541-.059.745-.152a1.07 1.07 0 0 0 .462-.421c.105-.179.155-.386.148-.621-.009-.352-.142-.624-.397-.815-.247-.199-.588-.293-1.021-.281-.433.012-.768.124-1.004.336-.237.205-.351.483-.341.836.01.359.138.639.386.837.248.199.588.293 1.022.281zm-19.77-48.776c-.186.042-.344.026-.474-.05a.62.62 0 0 1-.249-.395c-.042-.187-.024-.338.055-.453.087-.118.223-.198.409-.24l1.203-.274-1.201-5.273.666-.152-1.361 1.315a.64.64 0 0 1-.365.185.613.613 0 0 1-.335-.082.707.707 0 0 1-.23-.264.584.584 0 0 1-.056-.348.638.638 0 0 1 .21-.365l1.279-1.229c.124-.118.251-.222.381-.312a.997.997 0 0 1 .375-.187.57.57 0 0 1 .406.043c.118.056.198.177.24.363l1.365 5.993 1.096-.25c.186-.042.34-.028.461.042.129.068.214.196.257.382.042.186.021.342-.064.466-.077.123-.209.206-.395.248l-3.673.837zm6.631-1.42a.688.688 0 0 1-.435-.025.48.48 0 0 1-.264-.267c-.053-.132-.055-.289-.006-.474l1.854-6.838.107.472-3.479.793c-.194.044-.355.028-.486-.048-.123-.077-.205-.205-.245-.384-.043-.187-.025-.341.052-.464.085-.125.224-.209.417-.253l4.156-.947a.735.735 0 0 1 .507.043c.145.072.238.202.28.388.036.157.047.302.031.433a3.145 3.145 0 0 1-.086.415l-1.722 6.527a.79.79 0 0 1-.233.414.949.949 0 0 1-.448.215zM44.838 381.792c0-.808.162-1.502.485-2.082a3.348 3.348 0 0 1 1.388-1.322c.602-.308 1.31-.462 2.126-.462.61 0 1.156.088 1.64.264.493.176.911.43 1.257.76.352.331.62.735.803 1.212a4.41 4.41 0 0 1 .287 1.63c0 .404-.051.8-.154 1.19-.103.389-.25.73-.44 1.024a.703.703 0 0 1-.353.308.661.661 0 0 1-.397.033.612.612 0 0 1-.32-.187.547.547 0 0 1-.153-.341c-.008-.133.04-.279.143-.441.147-.228.253-.474.32-.738.065-.264.098-.532.098-.804 0-.521-.106-.962-.32-1.322a2.01 2.01 0 0 0-.924-.815c-.404-.183-.9-.275-1.487-.275-.58 0-1.076.092-1.487.275a2.002 2.002 0 0 0-.937.815c-.212.36-.319.801-.319 1.322 0 .279.033.554.1.826.073.272.183.529.33.771.095.162.135.305.12.43a.514.514 0 0 1-.131.33.589.589 0 0 1-.309.176.655.655 0 0 1-.705-.286 3.357 3.357 0 0 1-.495-1.057 4.667 4.667 0 0 1-.166-1.234zm.11 4.623c0-.243.063-.43.188-.562.132-.125.32-.187.561-.187h6.268c.242 0 .426.062.55.187.133.132.199.319.199.562v3.932c0 .183-.048.323-.143.418-.096.103-.232.155-.408.155-.183 0-.327-.052-.43-.155-.095-.095-.143-.235-.143-.418v-3.327h-2.137v3.085c0 .19-.047.334-.143.429-.095.096-.235.143-.418.143-.184 0-.323-.047-.419-.143-.095-.095-.143-.239-.143-.429v-3.085h-2.258v3.327c0 .183-.048.323-.143.418-.096.103-.235.155-.419.155-.183 0-.323-.052-.418-.155-.096-.095-.143-.235-.143-.418v-3.932zm-.088 6.484c0-.213.06-.378.177-.496.117-.11.286-.165.506-.165h6.554c.228 0 .4.055.518.165a.593.593 0 0 1 .187.452c0 .169-.033.293-.1.374a1.522 1.522 0 0 1-.308.309l-5.474 4.218v-.286h5.21c.213 0 .378.055.496.165.117.117.176.283.176.496 0 .213-.059.374-.176.484-.118.11-.283.166-.496.166h-6.609c-.205 0-.367-.052-.484-.155a.526.526 0 0 1-.177-.418c0-.169.033-.305.1-.408a1.61 1.61 0 0 1 .319-.319l5.474-4.208v.276h-5.21c-.22 0-.389-.055-.506-.166-.118-.11-.177-.271-.177-.484zm0 10.156c0-.228.063-.404.188-.529.132-.117.312-.176.54-.176h5.947v-2.148c0-.191.052-.342.154-.452a.623.623 0 0 1 .441-.154c.19 0 .334.052.43.154.102.11.154.261.154.452v5.705c0 .191-.052.338-.154.441-.096.11-.24.165-.43.165a.596.596 0 0 1-.44-.165c-.103-.103-.155-.25-.155-.441v-2.147h-5.948c-.227 0-.407-.059-.54-.177-.124-.117-.187-.293-.187-.528zm.089 5.012c0-.242.062-.429.187-.561.132-.125.32-.188.561-.188h6.268c.242 0 .426.063.55.188.133.132.199.319.199.561V412c0 .183-.048.323-.143.418-.096.103-.232.154-.408.154-.183 0-.327-.051-.43-.154-.095-.095-.143-.235-.143-.418v-3.327h-2.137v3.084c0 .191-.047.334-.143.43-.095.095-.235.143-.418.143-.184 0-.323-.048-.419-.143-.095-.096-.143-.239-.143-.43v-3.084h-2.258V412c0 .183-.048.323-.143.418-.096.103-.235.154-.419.154-.183 0-.323-.051-.418-.154-.096-.095-.143-.235-.143-.418v-3.933zm-.089 6.529c0-.228.063-.404.188-.529.132-.118.312-.176.54-.176h6.41c.235 0 .411.062.529.187.124.125.187.301.187.529v2.654c0 .852-.206 1.509-.617 1.972-.404.462-.973.694-1.707.694-.478 0-.889-.107-1.234-.32a1.991 1.991 0 0 1-.793-.903c-.184-.397-.275-.878-.275-1.443l.165.099v.364c0 .301-.074.561-.22.782-.147.227-.379.426-.694.594l-1.531.827a.826.826 0 0 1-.452.121.517.517 0 0 1-.364-.165c-.088-.103-.132-.254-.132-.452s.04-.36.121-.485a1.13 1.13 0 0 1 .397-.33l2.049-1.113c.25-.132.415-.29.495-.473.089-.176.133-.404.133-.683V415.3h-2.468c-.227 0-.407-.058-.54-.176-.124-.117-.187-.294-.187-.528zm4.241.704v1.719c0 .506.103.888.308 1.145.213.265.53.397.948.397.41 0 .72-.132.925-.397.213-.257.32-.639.32-1.145V415.3H49.1zm-4.152 9.848c0-.228.062-.404.187-.529.132-.125.312-.187.54-.187h6.355c.235 0 .411.059.529.176.124.125.187.301.187.529 0 .227-.063.4-.187.518-.118.124-.294.187-.53.187h-5.88v3.194c0 .198-.052.349-.155.452-.103.11-.25.165-.44.165-.192 0-.342-.055-.452-.165-.103-.103-.154-.254-.154-.452v-3.888zm-.089 6.174c0-.228.063-.404.188-.529.132-.117.312-.176.54-.176h6.487c.235 0 .415.059.54.176.124.125.187.301.187.529 0 .227-.063.4-.187.517-.125.125-.305.188-.54.188h-6.488c-.227 0-.407-.059-.54-.177-.124-.117-.187-.293-.187-.528zm0 3.064c0-.213.06-.378.177-.495.117-.11.286-.166.506-.166h6.554c.228 0 .4.056.518.166a.591.591 0 0 1 .187.451c0 .169-.033.294-.1.375a1.497 1.497 0 0 1-.308.308l-5.474 4.219v-.287h5.21c.213 0 .378.055.496.166.117.117.176.282.176.495 0 .213-.059.375-.176.485-.118.11-.283.165-.496.165h-6.609c-.205 0-.367-.051-.484-.154a.528.528 0 0 1-.177-.419c0-.169.033-.304.1-.407.066-.096.172-.202.319-.32l5.474-4.207v.275h-5.21c-.22 0-.389-.055-.506-.165-.118-.11-.177-.272-.177-.485zm.089 8.328c0-.242.062-.43.187-.562.132-.125.32-.187.561-.187h6.268c.242 0 .426.062.55.187.133.132.199.32.199.562v3.932c0 .184-.048.323-.143.419-.096.102-.232.154-.408.154-.183 0-.327-.052-.43-.154-.095-.096-.143-.235-.143-.419v-3.326h-2.137v3.084c0 .191-.047.334-.143.429-.095.096-.235.144-.418.144-.184 0-.323-.048-.419-.144-.095-.095-.143-.238-.143-.429v-3.084h-2.258v3.326c0 .184-.048.323-.143.419-.096.102-.235.154-.419.154-.183 0-.323-.052-.418-.154-.096-.096-.143-.235-.143-.419v-3.932zM241.09 325.901c-.648 0-1.296-.052-1.943-.155a10.046 10.046 0 0 1-1.834-.42 7.525 7.525 0 0 1-1.546-.751 1.422 1.422 0 0 1-.662-1.369 1.34 1.34 0 0 1 .287-.641c.162-.191.36-.309.596-.353.236-.044.493.022.773.199a7.557 7.557 0 0 0 2.054.839c.722.177 1.48.265 2.275.265 1.164 0 2.01-.191 2.54-.574.53-.398.796-.906.796-1.524 0-.516-.192-.921-.575-1.215-.368-.295-1.008-.538-1.921-.729l-2.43-.508c-1.399-.294-2.444-.788-3.136-1.48-.678-.707-1.017-1.634-1.017-2.783 0-.721.148-1.377.442-1.966a4.566 4.566 0 0 1 1.237-1.524 5.773 5.773 0 0 1 1.922-.972 8.249 8.249 0 0 1 2.474-.353c.883 0 1.722.11 2.518.331a7.29 7.29 0 0 1 2.142.972c.236.162.39.361.464.597a1.3 1.3 0 0 1 .066.706 1.102 1.102 0 0 1-.309.575 1.016 1.016 0 0 1-.618.287c-.236.029-.508-.044-.818-.221a6.32 6.32 0 0 0-1.656-.663 7.883 7.883 0 0 0-1.811-.199c-.678 0-1.259.096-1.745.288-.486.191-.862.463-1.127.817-.25.339-.375.743-.375 1.215 0 .53.176.957.53 1.281.353.309.957.552 1.811.729l2.407.508c1.458.309 2.541.795 3.247 1.457.722.663 1.083 1.547 1.083 2.651 0 .707-.148 1.347-.442 1.922a4.09 4.09 0 0 1-1.237 1.479c-.53.413-1.171.729-1.922.95-.751.221-1.597.332-2.54.332zm13.412-.045c-.456 0-.81-.125-1.06-.375-.236-.265-.353-.626-.353-1.082v-11.928h-4.308c-.382 0-.684-.103-.905-.309-.206-.221-.309-.515-.309-.883 0-.383.103-.67.309-.862.221-.206.523-.309.905-.309h11.442c.383 0 .677.103.883.309.221.192.332.479.332.862 0 .368-.111.662-.332.883-.206.206-.5.309-.883.309h-4.307v11.928c0 .456-.118.817-.354 1.082-.235.25-.589.375-1.06.375zm6.979 0c-.353 0-.64-.081-.861-.243a.993.993 0 0 1-.376-.64c-.044-.28.008-.589.155-.928l5.831-12.921c.191-.427.42-.729.685-.906.28-.191.596-.287.95-.287.338 0 .64.096.905.287.28.177.516.479.707.906l5.853 12.921c.162.339.221.648.177.928-.044.28-.169.501-.376.663-.206.147-.478.22-.817.22-.412 0-.736-.095-.972-.287-.221-.206-.419-.515-.596-.927l-1.436-3.336 1.193.773h-9.321l1.193-.773-1.414 3.336c-.191.427-.39.736-.596.927-.206.192-.501.287-.884.287zm6.339-12.678l-3.092 7.355-.574-.707h7.377l-.552.707-3.114-7.355h-.045zm17.107 12.723c-1.723 0-3.181-.324-4.373-.972a6.502 6.502 0 0 1-2.695-2.761c-.618-1.193-.928-2.607-.928-4.241 0-1.237.177-2.349.53-3.335.369-.987.891-1.826 1.569-2.518a6.786 6.786 0 0 1 2.518-1.613c.986-.383 2.105-.574 3.357-.574.825 0 1.649.103 2.474.309a7.429 7.429 0 0 1 2.363.994c.251.162.413.361.486.597.088.235.103.478.044.728a1.406 1.406 0 0 1-.331.619 1.061 1.061 0 0 1-.618.331c-.236.044-.501-.015-.796-.177a6.74 6.74 0 0 0-1.7-.706 7.712 7.712 0 0 0-1.922-.221c-1.09 0-2.01.221-2.761.662-.751.427-1.318 1.053-1.701 1.878-.368.825-.552 1.833-.552 3.026 0 1.811.434 3.188 1.303 4.13.869.943 2.158 1.414 3.866 1.414.589 0 1.185-.059 1.789-.177a12.15 12.15 0 0 0 1.767-.486l-.552 1.259v-4.704h-2.43c-.368 0-.655-.096-.862-.288-.191-.191-.287-.449-.287-.773 0-.338.096-.596.287-.773.207-.176.494-.265.862-.265h3.644c.369 0 .648.103.84.31.206.191.309.471.309.839v5.367c0 .324-.066.597-.199.817-.118.221-.316.383-.596.486-.648.236-1.392.435-2.231.597-.839.147-1.664.221-2.474.221zm10.278-.221c-.486 0-.861-.125-1.126-.376-.251-.265-.376-.64-.376-1.126V311.61c0-.486.125-.854.376-1.105.265-.265.64-.397 1.126-.397h7.885c.369 0 .648.096.84.287.206.191.309.464.309.817 0 .368-.103.656-.309.862-.192.191-.471.287-.84.287h-6.67v4.285h6.184c.383 0 .67.096.862.287.191.191.287.471.287.839s-.096.648-.287.84c-.192.191-.479.287-.862.287h-6.184v4.528h6.67c.369 0 .648.095.84.287.206.191.309.471.309.839s-.103.648-.309.84c-.192.191-.471.287-.84.287h-7.885zm-120.821 84.703a.477.477 0 0 1-.352-.128.523.523 0 0 1-.115-.362l.03-3.975-1.435-.011a.421.421 0 0 1-.301-.106.413.413 0 0 1-.101-.295c.001-.128.036-.223.105-.286a.426.426 0 0 1 .303-.101l3.814.029c.127.001.225.036.293.106.073.064.109.16.108.288 0 .122-.038.22-.112.293-.069.068-.168.102-.296.101l-1.435-.011-.031 3.976a.52.52 0 0 1-.12.359c-.079.083-.198.124-.355.123zm2.327.018a.479.479 0 0 1-.287-.083.333.333 0 0 1-.123-.215.559.559 0 0 1 .054-.309l1.976-4.292a.686.686 0 0 1 .231-.3.546.546 0 0 1 .618.005c.093.06.171.161.234.304l1.917 4.322a.522.522 0 0 1 .057.309.335.335 0 0 1-.127.22.455.455 0 0 1-.273.072.496.496 0 0 1-.323-.099.89.89 0 0 1-.196-.31l-.47-1.116.395.261-3.107-.024.4-.254-.48 1.108a.955.955 0 0 1-.201.307c-.069.064-.168.095-.295.094zm2.145-4.21l-1.049 2.444-.19-.237 2.459.019-.186.234-1.019-2.46h-.015zm3.783 4.196c-.162-.001-.287-.043-.375-.128-.082-.089-.123-.214-.122-.376l.032-4.189c.001-.162.044-.285.128-.367.089-.088.215-.131.377-.13l1.767.014c.363.002.672.059.926.169.254.11.447.266.578.468.136.202.203.443.201.723a1.198 1.198 0 0 1-.279.793 1.332 1.332 0 0 1-.747.429l.001-.111c.363.057.644.197.844.419.199.223.298.51.295.864-.004.461-.163.818-.48 1.071-.311.248-.744.37-1.298.366l-1.848-.015zm.41-.711l1.325.011c.334.002.58-.06.738-.186.158-.131.238-.327.24-.587.002-.265-.075-.462-.231-.591-.156-.129-.401-.195-.735-.197l-1.325-.01-.012 1.56zm.018-2.275l1.2.01c.324.002.565-.057.723-.179.163-.126.245-.312.247-.557.002-.246-.078-.431-.239-.555-.156-.128-.396-.194-.72-.196l-1.2-.01-.011 1.487zm4.619 3.025a.478.478 0 0 1-.353-.128.502.502 0 0 1-.122-.361l.032-4.248c.002-.157.042-.275.121-.353.084-.083.202-.123.354-.122.152.001.267.043.345.128.083.079.124.197.123.354l-.03 3.931 2.135.017c.132.001.232.036.301.105.073.069.109.168.108.295a.412.412 0 0 1-.113.302c-.069.068-.17.101-.303.1l-2.598-.02zm4.156.032c-.162-.001-.287-.044-.375-.128-.083-.089-.123-.214-.122-.376l.032-4.189c.001-.162.044-.285.128-.368.089-.087.215-.13.377-.129l2.628.02c.123.001.216.034.279.098.068.064.102.155.101.273a.388.388 0 0 1-.105.286c-.065.064-.158.095-.281.094l-2.223-.017-.011 1.428 2.061.016c.128.001.223.034.287.098.063.064.094.158.093.28-.001.123-.033.216-.098.279-.064.064-.16.095-.288.094l-2.061-.016-.012 1.509 2.224.017c.123.001.216.034.279.098.068.065.102.158.101.281-.001.123-.036.216-.105.279-.065.063-.158.094-.281.093l-2.628-.02zm5.609.117a4.17 4.17 0 0 1-.648-.057 3.378 3.378 0 0 1-.61-.144 2.503 2.503 0 0 1-.513-.254.484.484 0 0 1-.218-.459.447.447 0 0 1 .098-.212.337.337 0 0 1 .199-.117c.079-.014.165.009.258.069.215.129.442.224.682.285.24.06.493.092.758.094.388.003.67-.059.848-.185a.61.61 0 0 0 .269-.506.484.484 0 0 0-.188-.406c-.122-.1-.335-.182-.639-.248l-.809-.176c-.465-.102-.812-.269-1.041-.501-.224-.238-.335-.548-.332-.93.002-.241.053-.459.152-.655.1-.195.239-.363.417-.504a1.9 1.9 0 0 1 .643-.319 2.74 2.74 0 0 1 .825-.112c.295.002.574.041.839.117.264.076.501.185.711.329a.382.382 0 0 1 .153.2.436.436 0 0 1 .021.236.377.377 0 0 1-.105.191.338.338 0 0 1-.207.094.45.45 0 0 1-.272-.076 2.113 2.113 0 0 0-.55-.225 2.61 2.61 0 0 0-.603-.071 1.598 1.598 0 0 0-.583.091.844.844 0 0 0-.377.27.663.663 0 0 0-.129.404.552.552 0 0 0 .174.428c.117.104.317.187.602.248l.801.175c.485.107.845.272 1.078.495.239.222.357.518.354.886a1.367 1.367 0 0 1-.152.639 1.36 1.36 0 0 1-.416.49c-.178.136-.392.24-.643.312a3 3 0 0 1-.847.104zm142.591-.192a.476.476 0 0 1-.352-.128.518.518 0 0 1-.115-.362l.03-3.975-1.435-.011a.425.425 0 0 1-.302-.106.413.413 0 0 1-.1-.295c.001-.128.036-.223.105-.286a.426.426 0 0 1 .303-.101l3.813.029c.128.001.226.036.294.106.073.064.109.16.108.288a.398.398 0 0 1-.112.293.402.402 0 0 1-.296.101l-1.435-.011-.031 3.976a.516.516 0 0 1-.121.359c-.079.083-.197.124-.354.123zm2.326.018a.478.478 0 0 1-.286-.083.334.334 0 0 1-.124-.215.559.559 0 0 1 .054-.309l1.977-4.292a.686.686 0 0 1 .231-.3.544.544 0 0 1 .317-.093.5.5 0 0 1 .301.098.66.66 0 0 1 .233.304l1.918 4.322a.53.53 0 0 1 .057.309.339.339 0 0 1-.127.22.455.455 0 0 1-.273.072.494.494 0 0 1-.323-.099.905.905 0 0 1-.197-.31l-.47-1.116.396.261-3.107-.024.399-.254-.479 1.108a.955.955 0 0 1-.201.307c-.07.064-.168.095-.296.094zm2.146-4.21l-1.05 2.444-.189-.237 2.459.019-.186.234-1.019-2.46h-.015zm3.783 4.196c-.162-.001-.287-.043-.375-.128-.083-.089-.124-.214-.122-.376l.032-4.189c.001-.162.044-.285.128-.367.089-.088.214-.131.376-.13l1.767.014c.364.002.672.059.927.169.254.11.447.266.578.468.136.202.203.443.2.723a1.192 1.192 0 0 1-.278.793 1.332 1.332 0 0 1-.747.429l.001-.111c.363.057.644.197.843.419.2.223.298.51.296.864-.004.461-.164.818-.48 1.071-.311.248-.744.37-1.299.366l-1.847-.015zm.41-.711l1.325.011c.334.002.58-.06.738-.186.158-.131.238-.327.24-.587.002-.265-.075-.462-.231-.591-.156-.129-.401-.195-.735-.197l-1.325-.01-.012 1.56zm.017-2.275l1.2.01c.324.002.565-.057.723-.179.163-.126.246-.312.248-.557.002-.246-.078-.431-.239-.555-.156-.128-.396-.194-.72-.196l-1.2-.01-.012 1.487zm4.619 3.025a.477.477 0 0 1-.352-.128.503.503 0 0 1-.123-.361l.033-4.248c.001-.157.041-.275.121-.353.084-.083.202-.123.354-.122.152.001.267.043.345.128.083.079.124.197.122.354l-.03 3.931 2.135.017c.133.001.233.036.301.105.073.069.11.168.109.295a.412.412 0 0 1-.113.302c-.069.068-.17.101-.303.1l-2.599-.02zm4.156.032c-.162-.001-.286-.044-.374-.128-.083-.089-.124-.214-.122-.376l.032-4.189c.001-.162.044-.285.128-.368.089-.087.214-.13.376-.129l2.629.02c.122.001.215.034.279.098.068.064.102.155.101.273a.384.384 0 0 1-.106.286c-.064.064-.157.095-.28.094l-2.223-.017-.011 1.428 2.061.016c.128.001.223.034.286.098.064.064.095.158.094.28-.001.123-.034.216-.098.279-.064.064-.16.095-.288.094l-2.061-.016-.012 1.509 2.224.017c.122.001.215.034.279.098.068.065.101.158.101.281-.001.123-.036.216-.106.279-.064.063-.157.094-.28.093l-2.629-.02zm5.609.117a4.158 4.158 0 0 1-.647-.057 3.378 3.378 0 0 1-.61-.144 2.538 2.538 0 0 1-.514-.254.48.48 0 0 1-.217-.459.446.446 0 0 1 .097-.212.339.339 0 0 1 .2-.117c.079-.014.164.009.257.069.215.129.443.224.683.285.24.06.492.092.757.094.388.003.671-.059.849-.185a.612.612 0 0 0 .269-.506.483.483 0 0 0-.189-.406c-.122-.1-.335-.182-.638-.248l-.809-.176c-.465-.102-.813-.269-1.042-.501-.224-.238-.334-.548-.331-.93a1.446 1.446 0 0 1 .568-1.159c.183-.141.397-.248.643-.319.251-.077.526-.114.826-.112.294.002.574.041.838.117.265.076.502.185.712.329a.382.382 0 0 1 .153.2.426.426 0 0 1 .02.236.368.368 0 0 1-.104.191.343.343 0 0 1-.207.094.45.45 0 0 1-.272-.076 2.127 2.127 0 0 0-.55-.225 2.625 2.625 0 0 0-.604-.071 1.592 1.592 0 0 0-.582.091.853.853 0 0 0-.378.27.662.662 0 0 0-.128.404.552.552 0 0 0 .174.428c.117.104.317.187.601.248l.802.175c.485.107.844.272 1.078.495.239.222.357.518.354.886a1.379 1.379 0 0 1-.152.639 1.37 1.37 0 0 1-.416.49c-.178.136-.392.24-.643.312a3.008 3.008 0 0 1-.848.104zM205.102 546.402a.58.58 0 0 1-.33-.091.69.69 0 0 1-.204-.281l-1.889-4.329a.49.49 0 0 1-.041-.325.371.371 0 0 1 .156-.219.475.475 0 0 1 .28-.079c.143.001.248.034.316.098a.647.647 0 0 1 .182.274l1.714 4.055-.317-.002 1.769-4.036a.698.698 0 0 1 .194-.264.457.457 0 0 1 .309-.093.415.415 0 0 1 .265.083.353.353 0 0 1 .138.222.533.533 0 0 1-.054.323l-1.955 4.3a.694.694 0 0 1-.208.278.531.531 0 0 1-.325.086zm3.659.028a.48.48 0 0 1-.353-.128.523.523 0 0 1-.115-.362l.034-4.336c.001-.157.041-.277.12-.36.084-.083.202-.123.354-.122.153.001.268.044.346.128.082.084.123.204.122.361l-.033 4.337a.53.53 0 0 1-.121.36c-.079.082-.197.123-.354.122zm2.078.016a.478.478 0 0 1-.353-.128.523.523 0 0 1-.115-.362l.033-4.284c.001-.158.044-.275.128-.353.084-.083.202-.123.354-.122l1.775.013c.569.005 1.007.15 1.314.437.307.288.459.686.455 1.197-.004.51-.162.909-.473 1.196-.312.283-.752.421-1.321.417l-1.311-.01-.012 1.517a.525.525 0 0 1-.12.36c-.079.082-.197.123-.354.122zm.492-2.743l1.163.009c.334.003.587-.069.76-.215.173-.15.261-.371.263-.66.002-.29-.082-.509-.253-.658-.17-.148-.423-.224-.756-.226l-1.164-.009-.013 1.759zm119.855 2.699a.578.578 0 0 1-.33-.091.69.69 0 0 1-.204-.281l-1.889-4.329a.498.498 0 0 1-.042-.325.377.377 0 0 1 .157-.219.475.475 0 0 1 .28-.079c.142.001.248.034.316.098a.647.647 0 0 1 .182.274l1.714 4.055-.317-.002 1.769-4.036a.707.707 0 0 1 .193-.264.46.46 0 0 1 .31-.093.417.417 0 0 1 .265.083.353.353 0 0 1 .138.222.533.533 0 0 1-.054.323l-1.955 4.3a.694.694 0 0 1-.208.278.531.531 0 0 1-.325.086zm3.658.028a.477.477 0 0 1-.352-.128.523.523 0 0 1-.115-.362l.033-4.336c.002-.157.042-.277.121-.36.084-.083.202-.123.354-.122.152.001.267.044.345.128.083.084.124.204.123.361l-.034 4.337a.525.525 0 0 1-.12.36c-.079.082-.198.123-.355.122zm2.078.016a.477.477 0 0 1-.352-.128.523.523 0 0 1-.115-.362l.033-4.284c.001-.158.044-.275.128-.353.084-.083.202-.123.354-.122l1.774.013c.57.005 1.008.15 1.315.437.307.288.458.686.455 1.197-.004.51-.162.909-.474 1.196-.311.283-.751.421-1.321.417l-1.31-.01-.012 1.517a.525.525 0 0 1-.12.36c-.08.082-.198.123-.355.122zm.493-2.743l1.163.009c.334.003.587-.069.76-.215.173-.15.26-.371.263-.66.002-.29-.082-.509-.253-.658-.171-.148-.423-.224-.757-.226l-1.163-.009-.013 1.759zm-114.104-107.37c-.808-.007-1.5-.174-2.078-.501a3.35 3.35 0 0 1-1.311-1.398c-.304-.604-.452-1.314-.446-2.129.005-.61.097-1.156.277-1.639.18-.491.436-.908.769-1.25a3.23 3.23 0 0 1 1.218-.795 4.432 4.432 0 0 1 1.633-.274c.403.003.8.058 1.188.164.388.105.729.255 1.021.448a.713.713 0 0 1 .306.355.63.63 0 0 1-.16.715.546.546 0 0 1-.343.151c-.132.006-.279-.042-.439-.146a2.44 2.44 0 0 0-.736-.325 3.254 3.254 0 0 0-.803-.106c-.521-.004-.963.099-1.324.309a2.008 2.008 0 0 0-.822.919c-.187.403-.283.898-.287 1.485-.005.58.083 1.077.264 1.489.18.413.449.727.808.943.358.215.798.325 1.319.329a3.49 3.49 0 0 0 .827-.092 3 3 0 0 0 .773-.325c.163-.094.306-.133.431-.118a.514.514 0 0 1 .329.135.584.584 0 0 1 .174.31.664.664 0 0 1-.025.374.698.698 0 0 1-.267.328 3.338 3.338 0 0 1-1.061.488 4.679 4.679 0 0 1-1.235.156zm4.601.013c-.228-.002-.407-.066-.538-.191-.124-.134-.185-.321-.183-.564l.049-6.355c.001-.242.065-.425.191-.549.133-.131.321-.196.563-.194l3.844.029c.191.002.334.051.429.147.094.096.141.232.14.409-.002.183-.05.326-.147.428-.096.095-.239.141-.43.14l-3.184-.025-.016 2.192 2.951.023c.184.001.323.05.418.146.102.097.152.233.151.409-.001.184-.054.326-.158.428-.096.095-.236.142-.419.14l-2.952-.022-.02 2.665c-.004.5-.234.747-.689.744zm81.909-.013c-.807-.007-1.5-.174-2.078-.501a3.35 3.35 0 0 1-1.311-1.398c-.303-.604-.452-1.314-.446-2.129.005-.61.097-1.156.277-1.639.18-.491.437-.908.77-1.25a3.22 3.22 0 0 1 1.217-.795 4.44 4.44 0 0 1 1.633-.274c.404.003.8.058 1.188.164.389.105.729.255 1.021.448a.708.708 0 0 1 .306.355.63.63 0 0 1-.16.715.546.546 0 0 1-.343.151c-.132.006-.278-.042-.439-.146a2.44 2.44 0 0 0-.736-.325 3.248 3.248 0 0 0-.803-.106c-.521-.004-.963.099-1.324.309a2.02 2.02 0 0 0-.822.919c-.187.403-.282.898-.287 1.485-.004.58.084 1.077.264 1.489a2 2 0 0 0 .808.943c.358.215.798.325 1.319.329a3.49 3.49 0 0 0 .827-.092c.272-.072.53-.18.774-.325.162-.094.305-.133.43-.118a.514.514 0 0 1 .329.135.584.584 0 0 1 .174.31.656.656 0 0 1-.025.374.698.698 0 0 1-.267.328 3.338 3.338 0 0 1-1.061.488 4.674 4.674 0 0 1-1.235.156zm4.601.013c-.228-.002-.407-.066-.538-.191-.124-.134-.185-.321-.183-.564l.049-6.355c.002-.242.065-.425.191-.549.133-.131.321-.196.564-.194l3.843.029c.191.002.334.051.429.147.095.096.141.232.14.409-.001.183-.05.326-.146.428-.097.095-.24.141-.431.14l-3.183-.025-.017 2.192 2.952.023c.183.001.322.05.417.146.102.097.153.233.151.409-.001.184-.054.326-.157.428-.096.095-.236.142-.42.14l-2.952-.022-.02 2.665c-.004.5-.234.747-.689.744zM436.734 734.86a5.26 5.26 0 0 1-1.132.514 3.526 3.526 0 0 1-1.19.189.747.747 0 0 1-.426-.126.61.61 0 0 1-.222-.277.618.618 0 0 1-.015-.34.551.551 0 0 1 .197-.289.747.747 0 0 1 .418-.141c.341-.02.65-.072.926-.155.272-.09.533-.212.784-.366.275-.169.483-.349.625-.539a1 1 0 0 0 .214-.597 1.123 1.123 0 0 0-.184-.637c-.192-.313-.441-.479-.746-.498-.302-.03-.654.078-1.054.325l-.601.369c-.175.107-.336.146-.484.116-.141-.033-.26-.129-.356-.285-.096-.156-.128-.305-.094-.447.04-.145.148-.271.323-.379l.488-.3c.238-.146.418-.309.541-.487.118-.186.181-.379.186-.58a1.105 1.105 0 0 0-.182-.612c-.177-.288-.409-.448-.695-.479-.28-.034-.601.06-.964.283a2.932 2.932 0 0 0-.605.488 3.025 3.025 0 0 0-.487.7.604.604 0 0 1-.277.287.491.491 0 0 1-.328.033.628.628 0 0 1-.291-.157.58.58 0 0 1-.166-.312.629.629 0 0 1 .068-.416c.161-.341.377-.655.649-.942.267-.294.573-.547.917-.758.457-.281.892-.449 1.306-.505.41-.063.78-.014 1.11.145.333.149.613.407.84.777.161.262.259.534.294.814.03.275.001.543-.088.804a1.889 1.889 0 0 1-.461.723l-.069-.113c.497-.201.962-.229 1.397-.083.431.141.783.433 1.056.877.238.388.349.785.332 1.192a2.2 2.2 0 0 1-.416 1.174c-.265.369-.644.706-1.138 1.01zm5.814-3.574a4.793 4.793 0 0 1-1.094.492 3.865 3.865 0 0 1-1.196.179.71.71 0 0 1-.405-.113.694.694 0 0 1-.219-.293.626.626 0 0 1-.02-.349.516.516 0 0 1 .182-.293.677.677 0 0 1 .399-.129c.312-.01.608-.055.888-.132.28-.077.555-.198.824-.364a1.76 1.76 0 0 0 .589-.556c.13-.209.193-.429.189-.659a1.332 1.332 0 0 0-.213-.684c-.215-.35-.495-.566-.838-.648-.347-.088-.706-.019-1.075.208a1.95 1.95 0 0 0-.518.461 1.86 1.86 0 0 0-.346.678 1.522 1.522 0 0 1-.124.282.716.716 0 0 1-.241.239c-.156.096-.3.129-.431.097-.132-.031-.241-.119-.33-.262l-1.886-3.069c-.104-.169-.139-.324-.105-.466.036-.151.139-.279.308-.382l3.087-1.898c.169-.104.324-.139.465-.105.144.024.266.117.366.279.096.157.124.308.084.453-.033.141-.135.264-.304.368l-2.44 1.499 1.292 2.102-.309.191c.028-.319.14-.621.336-.905.196-.284.453-.524.772-.721.419-.257.838-.389 1.256-.396a2.1 2.1 0 0 1 1.178.297c.368.205.68.517.938.936.265.432.403.873.413 1.324.006.444-.115.872-.363 1.283-.245.4-.614.752-1.109 1.056zm-73.065 47.854a5.227 5.227 0 0 1-1.198.333 3.53 3.53 0 0 1-1.205.002.736.736 0 0 1-.402-.19.604.604 0 0 1-.176-.308.621.621 0 0 1 .038-.338.55.55 0 0 1 .239-.255.745.745 0 0 1 .435-.075c.34.033.653.03.938-.01.283-.047.56-.126.831-.24a2.2 2.2 0 0 0 .702-.436c.169-.166.27-.352.304-.557a1.13 1.13 0 0 0-.084-.657c-.141-.339-.361-.542-.66-.608-.294-.076-.658-.023-1.092.158l-.65.272c-.19.079-.355.092-.496.04-.135-.055-.238-.167-.308-.337-.071-.169-.079-.321-.024-.456.062-.137.188-.245.378-.325l.528-.22a1.77 1.77 0 0 0 .61-.398c.146-.165.237-.346.274-.545a1.106 1.106 0 0 0-.086-.633c-.13-.311-.334-.504-.612-.579-.271-.078-.603-.035-.996.13a2.894 2.894 0 0 0-.673.388 3.005 3.005 0 0 0-.59.617.604.604 0 0 1-.318.24.494.494 0 0 1-.329-.017.63.63 0 0 1-.263-.201.579.579 0 0 1-.116-.334.635.635 0 0 1 .131-.401c.212-.311.475-.588.787-.83.31-.249.651-.451 1.024-.607.495-.206.951-.305 1.368-.297.415.002.773.107 1.075.315.305.199.542.498.709.897.119.285.174.568.164.851a1.817 1.817 0 0 1-.211.78 1.881 1.881 0 0 1-.567.643l-.051-.122c.522-.122.987-.078 1.393.134.405.206.707.549.908 1.03.176.42.224.83.144 1.229-.08.399-.278.765-.593 1.095-.318.324-.745.598-1.28.822zm4.926-2.083a.688.688 0 0 1-.432.05.483.483 0 0 1-.307-.219c-.074-.12-.103-.275-.086-.465l.656-7.055.187.447-3.293 1.376c-.182.077-.345.089-.486.037-.134-.056-.237-.168-.308-.337-.073-.176-.083-.332-.027-.466.062-.138.184-.245.367-.321l3.933-1.644a.739.739 0 0 1 .507-.044.538.538 0 0 1 .342.334c.063.149.097.29.105.422.005.125 0 .267-.014.424l-.58 6.724a.791.791 0 0 1-.159.449.952.952 0 0 1-.405.288zm-63.376-49.143a5.215 5.215 0 0 1-1.24.081 3.566 3.566 0 0 1-1.18-.244.747.747 0 0 1-.354-.269.603.603 0 0 1-.11-.338.63.63 0 0 1 .106-.323.56.56 0 0 1 .287-.201.747.747 0 0 1 .441.017c.326.101.633.162.921.182.286.012.574-.009.862-.065.317-.061.576-.155.776-.283.199-.128.337-.289.412-.483.082-.195.099-.415.052-.661-.069-.36-.243-.603-.521-.73-.273-.134-.64-.157-1.101-.069l-.692.133c-.202.039-.367.018-.495-.062-.12-.082-.197-.213-.232-.393-.035-.18-.011-.33.07-.451.089-.121.235-.202.437-.24l.562-.108c.274-.053.5-.141.678-.265.177-.131.303-.29.38-.477.076-.186.092-.399.046-.637-.064-.331-.224-.562-.481-.692-.249-.132-.583-.158-1.001-.077a2.94 2.94 0 0 0-.739.242 3.02 3.02 0 0 0-.704.483.596.596 0 0 1-.36.17.495.495 0 0 1-.319-.085.63.63 0 0 1-.216-.25.58.58 0 0 1-.045-.35.632.632 0 0 1 .211-.366c.271-.261.584-.478.94-.651.354-.18.73-.308 1.126-.384.527-.102.993-.105 1.4-.011.406.087.735.263.988.528.258.257.428.598.51 1.024.058.303.054.591-.013.866a1.843 1.843 0 0 1-.367.721 1.885 1.885 0 0 1-.686.513l-.025-.13c.536-.013.981.126 1.336.417.353.283.579.681.678 1.193.085.447.048.858-.112 1.233-.16.374-.428.691-.804.95-.378.252-.852.433-1.422.542zm6.638-1.273c-.901.173-1.655-.034-2.261-.621-.608-.594-1.032-1.521-1.274-2.783-.164-.851-.196-1.585-.098-2.202.105-.626.334-1.126.688-1.501.362-.376.842-.621 1.44-.736.909-.174 1.661.025 2.257.599.604.572 1.027 1.493 1.271 2.762.161.844.191 1.582.088 2.215-.097.624-.321 1.131-.673 1.52-.353.381-.832.63-1.438.747zm-.218-1.136c.491-.094.808-.391.951-.889.151-.5.134-1.233-.052-2.2-.185-.966-.438-1.643-.759-2.03-.316-.395-.718-.546-1.209-.452-.483.093-.801.382-.955.867-.155.479-.14 1.201.046 2.167.185.967.44 1.654.766 2.063.325.409.729.567 1.212.474zm44.88-15.166a5.235 5.235 0 0 1-1.167.43 3.541 3.541 0 0 1-1.2.101.738.738 0 0 1-.416-.157.605.605 0 0 1-.201-.292.635.635 0 0 1 .009-.341.566.566 0 0 1 .218-.274.754.754 0 0 1 .427-.109c.342.005.653-.024.935-.087.278-.07.548-.172.809-.307.286-.149.507-.313.663-.493a.991.991 0 0 0 .257-.58 1.118 1.118 0 0 0-.137-.648c-.169-.326-.405-.51-.707-.551-.3-.052-.658.03-1.076.246l-.626.325c-.182.094-.346.121-.491.08-.139-.044-.25-.147-.335-.31-.084-.163-.104-.314-.06-.452.05-.142.167-.261.349-.355l.509-.264c.248-.128.439-.277.575-.446.132-.176.208-.364.228-.565a1.101 1.101 0 0 0-.137-.624c-.155-.3-.374-.476-.657-.527-.277-.056-.605.015-.983.211a2.934 2.934 0 0 0-.639.442c-.181.16-.361.381-.537.663a.591.591 0 0 1-.297.265.493.493 0 0 1-.33.01.626.626 0 0 1-.278-.178.585.585 0 0 1-.143-.323.632.632 0 0 1 .098-.411 3.65 3.65 0 0 1 .716-.892c.289-.273.612-.503.971-.688.476-.247.922-.383 1.339-.409.413-.032.779.043 1.097.226.321.173.581.452.78.836.142.274.22.552.234.835.01.275-.039.54-.147.795a1.892 1.892 0 0 1-.512.687l-.061-.117c.51-.165.977-.159 1.4.019.419.171.749.489.989.952.209.404.29.808.243 1.213a2.182 2.182 0 0 1-.501 1.14c-.29.349-.693.657-1.208.924zm6.001-3.109c-.815.423-1.596.439-2.344.049-.751-.397-1.422-1.166-2.013-2.307-.399-.769-.638-1.464-.72-2.083-.077-.63 0-1.174.233-1.634.24-.463.631-.835 1.172-1.116.821-.425 1.599-.448 2.334-.067.741.377 1.409 1.139 2.003 2.287.395.763.633 1.462.715 2.098.084.626.013 1.176-.213 1.648-.23.467-.619.842-1.167 1.125zm-.532-1.026c.444-.23.663-.604.659-1.123.003-.522-.222-1.22-.675-2.094-.452-.874-.887-1.451-1.305-1.73-.415-.29-.844-.32-1.287-.091-.437.227-.66.594-.669 1.104-.013.502.207 1.19.66 2.064.452.874.892 1.461 1.32 1.76.428.299.861.336 1.297.11zm49.498-43.628c-.147.184-.295.286-.444.308-.15.012-.305-.047-.466-.175a.726.726 0 0 1-.222-.305 1.964 1.964 0 0 1-.114-.457l-.458-3.201c-.065-.484-.163-.873-.295-1.166a1.953 1.953 0 0 0-.551-.723c-.286-.229-.578-.311-.874-.247-.291.058-.574.26-.849.604a2.654 2.654 0 0 0-.382.654 2.593 2.593 0 0 0-.199.813.554.554 0 0 1-.148.362.54.54 0 0 1-.297.143.638.638 0 0 1-.336-.057.632.632 0 0 1-.268-.229.64.64 0 0 1-.085-.406c.031-.379.125-.755.282-1.128.162-.379.366-.723.614-1.033.348-.435.708-.75 1.078-.943.37-.192.744-.265 1.12-.218.376.046.745.214 1.106.503.241.193.444.421.609.685.17.258.308.561.415.91.111.342.198.745.26 1.209l.393 2.965-.292-.234 2.022-2.529c.124-.155.255-.243.394-.263.139-.021.282.028.432.147.149.12.231.252.247.396.017.144-.037.294-.161.449l-2.531 3.166zm5.359-6.527c-.376.471-.766.822-1.168 1.055-.404.223-.808.323-1.213.3-.4-.028-.781-.187-1.142-.476a2.054 2.054 0 0 1-.62-.777 1.919 1.919 0 0 1-.15-.924c.028-.317.13-.621.306-.912l.181.145a1.979 1.979 0 0 1-1.233.466 1.956 1.956 0 0 1-1.242-.457c-.345-.275-.568-.595-.672-.96-.109-.369-.1-.762.026-1.178.12-.421.35-.844.689-1.268.344-.43.708-.75 1.092-.96.378-.215.76-.31 1.144-.284.378.02.74.168 1.084.443.252.202.443.439.573.712.134.267.197.547.188.841a1.86 1.86 0 0 1-.227.848l-.172-.137c.378-.356.806-.545 1.285-.567.477-.032.927.122 1.352.461.361.289.598.628.709 1.018.116.384.107.8-.025 1.249-.134.438-.39.892-.765 1.362zm-.861-.687c.326-.408.494-.776.504-1.107.004-.334-.148-.626-.458-.873-.31-.248-.625-.33-.945-.248-.319.083-.642.328-.968.735-.321.402-.489.77-.503 1.106-.011.331.139.62.449.867.31.248.627.333.953.255.324-.089.647-.334.968-.735zm-2.727-2.181c.183-.229.305-.452.364-.667.054-.22.047-.429-.022-.625a1.14 1.14 0 0 0-.379-.514c-.275-.22-.568-.294-.879-.223-.312.061-.603.26-.874.599-.27.338-.401.666-.391.984.003.313.143.58.418.8.281.224.577.306.889.245.312-.061.603-.26.874-.599z" fill="#fff"/><path d="M431.585 607.463c-.234-.028-.399-.099-.496-.215-.089-.121-.121-.284-.096-.488a.727.727 0 0 1 .142-.349c.08-.109.19-.222.329-.338l2.481-2.074c.378-.31.657-.598.837-.864.181-.274.289-.557.324-.849.044-.364-.039-.655-.249-.873-.203-.217-.523-.352-.961-.405-.248-.03-.5-.023-.757.02a2.611 2.611 0 0 0-.796.259c-.142.071-.271.093-.385.064a.534.534 0 0 1-.278-.178.648.648 0 0 1-.076-.664.648.648 0 0 1 .301-.285 3.66 3.66 0 0 1 1.108-.354 4.402 4.402 0 0 1 1.201-.021c.554.067 1.01.207 1.369.42.359.214.617.493.776.837.158.345.209.747.153 1.206a2.72 2.72 0 0 1-.261.878c-.13.28-.315.558-.556.832-.233.275-.53.561-.891.857l-2.315 1.895.045-.372 3.215.389c.197.024.34.089.431.196.091.107.124.256.102.445-.023.19-.092.329-.206.419-.115.09-.27.123-.467.099l-4.024-.487zm8.369 1.123c-.597-.072-1.101-.218-1.511-.438-.402-.226-.699-.517-.893-.873-.186-.355-.252-.763-.196-1.222.044-.364.156-.676.335-.936a1.9 1.9 0 0 1 .706-.613c.284-.144.596-.217.937-.22l-.028.23a1.98 1.98 0 0 1-1.046-.804 1.964 1.964 0 0 1-.265-1.296c.053-.438.208-.796.463-1.076a2.023 2.023 0 0 1 1.016-.599c.421-.119.901-.146 1.441-.08.547.066 1.01.207 1.391.423.382.209.663.483.844.823.181.333.246.718.193 1.155-.039.321-.14.608-.304.862a1.719 1.719 0 0 1-.617.602 1.863 1.863 0 0 1-.84.254l.026-.219c.502.135.888.399 1.158.795.278.388.385.852.32 1.392-.056.459-.22.839-.493 1.138-.266.301-.624.513-1.075.636-.443.117-.964.139-1.562.066zm.133-1.093c.517.062.919.011 1.205-.154.287-.172.455-.455.502-.849.048-.394-.048-.705-.286-.933-.239-.229-.617-.374-1.135-.437-.51-.062-.912-.01-1.205.154-.287.165-.453.444-.501.838-.048.394.047.708.285.944.246.23.624.375 1.135.437zm.419-3.466c.291.035.544.021.759-.042a1.07 1.07 0 0 0 .519-.348 1.13 1.13 0 0 0 .238-.592c.043-.35-.048-.638-.272-.865-.216-.233-.539-.376-.969-.428-.43-.052-.778.01-1.043.185-.265.167-.418.426-.46.776-.044.357.043.652.259.886.216.233.539.376.969.428z" fill="#fff"/></g><defs><clipPath id="clip0_6445_189874"><path fill="#fff" d="M0 0h552.229v827H0z"/></clipPath><clipPath id="clip1_6445_189874"><path fill="#fff" transform="translate(162.713 263.212)" d="M0 0h212.309v300.024H0z"/></clipPath></defs></svg>