<svg width="27" height="27" viewBox="0 0 27 27" fill="none" xmlns="http://www.w3.org/2000/svg"><path d="M18.833 8.666V4.001c0-1.11 0-1.664-.233-2.005-.204-.297-.52-.5-.876-.56-.408-.07-.911.163-1.918.628L3.979 7.522c-.898.415-1.347.622-1.676.944-.29.284-.513.63-.649 1.014-.154.433-.154.927-.154 1.916V18m18-.667h.013M1.5 12.933v8.8c0 1.494 0 2.24.29 2.81.256.503.664.91 1.166 1.166.57.29 1.317.29 2.81.29h15.467c1.494 0 2.24 0 2.811-.29a2.66 2.66 0 0 0 1.165-1.165c.291-.57.291-1.317.291-2.81v-8.8c0-1.494 0-2.241-.29-2.811a2.667 2.667 0 0 0-1.166-1.166c-.57-.29-1.317-.29-2.81-.29H5.766c-1.494 0-2.24 0-2.811.29-.502.256-.91.664-1.165 1.165-.291.57-.291 1.318-.291 2.811zm18.667 4.4a.667.667 0 1 1-1.334 0 .667.667 0 0 1 1.334 0z" stroke="#FF6900" stroke-width="2" stroke-linecap="round" stroke-linejoin="round"/></svg>