<svg width="343" height="1928" viewBox="0 0 343 1928" fill="none" xmlns="http://www.w3.org/2000/svg"><mask id="path-1-inside-1_7717_223183" fill="#fff"><path fill-rule="evenodd" clip-rule="evenodd" d="M0 8a8 8 0 0 1 8-8h327a8 8 0 0 1 8 8v777.225c-12.393 2.116-22 17.17-22 35.427 0 18.257 9.607 33.311 22 35.426V1920a8 8 0 0 1-8 8H8a8 8 0 0 1-8-8V856.332c13.807 0 25-15.974 25-35.68s-11.193-35.681-25-35.681V8z"/></mask><path fill-rule="evenodd" clip-rule="evenodd" d="M0 8a8 8 0 0 1 8-8h327a8 8 0 0 1 8 8v777.225c-12.393 2.116-22 17.17-22 35.427 0 18.257 9.607 33.311 22 35.426V1920a8 8 0 0 1-8 8H8a8 8 0 0 1-8-8V856.332c13.807 0 25-15.974 25-35.68s-11.193-35.681-25-35.681V8z" fill="#fff"/><path d="M343 785.225l.168.986.832-.142v-.844h-1zm0 70.853h1v-.844l-.832-.142-.168.986zm-343 .254v-1h-1v1h1zm0-71.361h-1v1h1v-1zM8-1a9 9 0 0 0-9 9h2a7 7 0 0 1 7-7v-2zm327 0H8v2h327v-2zm9 9a9 9 0 0 0-9-9v2a7 7 0 0 1 7 7h2zm0 777.225V8h-2v777.225h2zm-22 35.427c0-8.96 2.359-17.1 6.2-23.236 3.846-6.142 9.128-10.208 14.968-11.205l-.336-1.971c-6.553 1.118-12.271 5.637-16.327 12.115-4.06 6.484-6.505 15-6.505 24.297h2zm21.168 34.44c-5.84-.996-11.122-5.063-14.968-11.205-3.841-6.135-6.2-14.276-6.2-23.235h-2c0 9.297 2.445 17.812 6.505 24.297 4.056 6.478 9.774 10.996 16.327 12.115l.336-1.972zM344 1920V856.078h-2V1920h2zm-9 9a9 9 0 0 0 9-9h-2c0 3.87-3.134 7-7 7v2zm-327 0h327v-2H8v2zm-9-9a9 9 0 0 0 9 9v-2c-3.866 0-7-3.13-7-7h-2zm0-1063.668V1920h2V856.332h-2zm25-35.68c0 9.672-2.749 18.387-7.141 24.656C12.464 851.58 6.489 855.332 0 855.332v2c7.319 0 13.843-4.235 18.497-10.876C23.152 839.811 26 830.685 26 820.652h-2zM0 785.971c6.488 0 12.464 3.752 16.859 10.025C21.25 802.265 24 810.979 24 820.652h2c0-10.033-2.848-19.16-7.503-25.804C13.843 788.206 7.319 783.971 0 783.971v2zM-1 8v776.971h2V8h-2z" fill="#E6EAED" mask="url(#path-1-inside-1_7717_223183)"/><path stroke="#9CABB8" stroke-linecap="round" stroke-dasharray="5 5" d="M16.5 86.823h305"/><path stroke="#E6EAED" stroke-linecap="round" stroke-dasharray="5 5" d="M16.5 393.5h305m-305 156h305"/></svg>