<svg width="367" height="828" viewBox="0 0 367 828" fill="none" xmlns="http://www.w3.org/2000/svg"><g clip-path="url(#clip0_6976_140752)" filter="url(#filter0_dd_6976_140752)"><mask id="path-1-inside-1_6976_140752" fill="#fff"><path fill-rule="evenodd" clip-rule="evenodd" d="M12 8a8 8 0 0 1 8-8h327a8 8 0 0 1 8 8v681.994c-12.393 1.858-22 15.087-22 31.129 0 16.043 9.607 29.272 22 31.13V1586a8 8 0 0 1-8 8H20a8 8 0 0 1-8-8V752.477c13.807 0 25-14.038 25-31.354 0-17.315-11.193-31.353-25-31.353V8z"/></mask><path fill-rule="evenodd" clip-rule="evenodd" d="M12 8a8 8 0 0 1 8-8h327a8 8 0 0 1 8 8v681.994c-12.393 1.858-22 15.087-22 31.129 0 16.043 9.607 29.272 22 31.13V1586a8 8 0 0 1-8 8H20a8 8 0 0 1-8-8V752.477c13.807 0 25-14.038 25-31.354 0-17.315-11.193-31.353-25-31.353V8z" fill="#fff"/><path d="M355 689.994l.148.989.852-.128v-.861h-1zm0 62.259h1v-.861l-.852-.128-.148.989zm-343 .224v-1h-1v1h1zm0-62.707h-1v1h1v-1zM20-1a9 9 0 0 0-9 9h2a7 7 0 0 1 7-7v-2zm327 0H20v2h327v-2zm9 9a9 9 0 0 0-9-9v2a7 7 0 0 1 7 7h2zm0 681.994V8h-2v681.994h2zm-22 31.129c0-15.717 9.396-28.378 21.148-30.14l-.296-1.978C341.818 690.959 332 704.756 332 721.123h2zm21.148 30.141C343.396 749.502 334 736.841 334 721.123h-2c0 16.368 9.818 30.164 22.852 32.119l.296-1.978zM356 1586V752.253h-2V1586h2zm-9 9a9 9 0 0 0 9-9h-2c0 3.87-3.134 7-7 7v2zm-327 0h327v-2H20v2zm-9-9a9 9 0 0 0 9 9v-2c-3.866 0-7-3.13-7-7h-2zm0-833.523V1586h2V752.477h-2zm25-31.354c0 16.987-10.945 30.354-24 30.354v2c14.559 0 26-14.708 26-32.354h-2zM12 690.77c13.055 0 24 13.367 24 30.353h2c0-17.645-11.441-32.353-26-32.353v2zM11 8v681.77h2V8h-2z" fill="#E6EAED" mask="url(#path-1-inside-1_6976_140752)"/><path stroke="#9CABB8" stroke-linecap="round" stroke-dasharray="5 5" d="M28.5 86.823h305"/><path stroke="#E6EAED" stroke-linecap="round" stroke-dasharray="5 5" d="M28.5 393.5h305m-305 156h305"/></g><defs><filter id="filter0_dd_6976_140752" x="0" y="0" width="367" height="828" filterUnits="userSpaceOnUse" color-interpolation-filters="sRGB"><feFlood flood-opacity="0" result="BackgroundImageFix"/><feColorMatrix in="SourceAlpha" type="matrix" values="0 0 0 0 0 0 0 0 0 0 0 0 0 0 0 0 0 0 127 0" result="hardAlpha"/><feMorphology radius="4" operator="erode" in="SourceAlpha" result="effect1_dropShadow_6976_140752"/><feOffset dy="12"/><feGaussianBlur stdDeviation="8"/><feColorMatrix type="matrix" values="0 0 0 0 0.0627451 0 0 0 0 0.0941176 0 0 0 0 0.156863 0 0 0 0.08 0"/><feBlend mode="normal" in2="BackgroundImageFix" result="effect1_dropShadow_6976_140752"/><feColorMatrix in="SourceAlpha" type="matrix" values="0 0 0 0 0 0 0 0 0 0 0 0 0 0 0 0 0 0 127 0" result="hardAlpha"/><feMorphology radius="2" operator="erode" in="SourceAlpha" result="effect2_dropShadow_6976_140752"/><feOffset dy="4"/><feGaussianBlur stdDeviation="3"/><feColorMatrix type="matrix" values="0 0 0 0 0.0627451 0 0 0 0 0.0941176 0 0 0 0 0.156863 0 0 0 0.03 0"/><feBlend mode="normal" in2="effect1_dropShadow_6976_140752" result="effect2_dropShadow_6976_140752"/><feBlend mode="normal" in="SourceGraphic" in2="effect2_dropShadow_6976_140752" result="shape"/></filter><clipPath id="clip0_6976_140752"><path fill="#fff" transform="translate(12)" d="M0 0h343v804H0z"/></clipPath></defs></svg>