<svg width="343" height="2008" viewBox="0 0 343 2008" fill="none" xmlns="http://www.w3.org/2000/svg"><mask id="path-1-inside-1_7717_223191" fill="#fff"><path fill-rule="evenodd" clip-rule="evenodd" d="M0 8a8 8 0 0 1 8-8h327a8 8 0 0 1 8 8v697.234c-12.393 1.9-22 15.42-22 31.817s9.607 29.918 22 31.818V2000a8 8 0 0 1-8 8H8a8 8 0 0 1-8-8V769.097c13.807 0 25-14.347 25-32.046 0-17.698-11.193-32.045-25-32.045V8z"/></mask><path fill-rule="evenodd" clip-rule="evenodd" d="M0 8a8 8 0 0 1 8-8h327a8 8 0 0 1 8 8v697.234c-12.393 1.9-22 15.42-22 31.817s9.607 29.918 22 31.818V2000a8 8 0 0 1-8 8H8a8 8 0 0 1-8-8V769.097c13.807 0 25-14.347 25-32.046 0-17.698-11.193-32.045-25-32.045V8z" fill="#fff"/><path d="M343 705.234l.152.988.848-.13v-.858h-1zm0 63.635h1v-.858l-.848-.131-.152.989zm-343 .228v-1h-1v1h1zm0-64.091h-1v1h1v-1zM8-1a9 9 0 0 0-9 9h2a7 7 0 0 1 7-7v-2zm327 0H8v2h327v-2zm9 9a9 9 0 0 0-9-9v2a7 7 0 0 1 7 7h2zm0 697.234V8h-2v697.234h2zm-22 31.817c0-16.089 9.411-29.029 21.152-30.829l-.304-1.976C329.804 706.245 320 720.347 320 737.051h2zm21.152 30.829C331.411 766.081 322 753.141 322 737.051h-2c0 16.705 9.804 30.807 22.848 32.806l.304-1.977zM344 2000V768.869h-2V2000h2zm-9 9a9 9 0 0 0 9-9h-2c0 3.87-3.134 7-7 7v2zm-327 0h327v-2H8v2zm-9-9a9 9 0 0 0 9 9v-2c-3.866 0-7-3.13-7-7h-2zm0-1230.903V2000h2V769.097h-2zm25-32.046c0 17.392-10.962 31.046-24 31.046v2c14.576 0 26-15.04 26-33.046h-2zM0 706.006c13.038 0 24 13.654 24 31.045h2c0-18.005-11.424-33.045-26-33.045v2zM-1 8v697.006h2V8h-2z" fill="#E6EAED" mask="url(#path-1-inside-1_7717_223191)"/><path stroke="#9CABB8" stroke-linecap="round" stroke-dasharray="5 5" d="M16.5 86.09h305"/><path stroke="#E6EAED" stroke-linecap="round" stroke-dasharray="5 5" d="M16.5 390.192h305m-305 154.691h305"/></svg>