<svg width="133" height="40" viewBox="0 0 133 40" fill="none" xmlns="http://www.w3.org/2000/svg"><rect x=".5" y=".5" width="132" height="39" rx="6.25" fill="#000"/><path d="M45.396 25.412h3.495l-1.251-3.35a24.419 24.419 0 0 1-.509-1.534c-.15.496-.315 1.001-.492 1.518l-1.243 3.366zm4.093 1.59h-4.683l-1.146 3.133h-2.058l4.585-11.697h1.946l4.69 11.697h-2.164l-1.17-3.132zm9.407 1.006c.406-.546.61-1.344.61-2.394 0-.974-.169-1.68-.505-2.119a1.61 1.61 0 0 0-1.344-.658 2.17 2.17 0 0 0-1.074.275 4.09 4.09 0 0 0-.937.734v4.666c.2.097.431.174.695.23.264.057.525.085.783.085.775 0 1.365-.273 1.772-.819zm-5.243-4.452c0-.646-.022-1.357-.065-2.132h1.873c.07.361.118.73.145 1.107.775-.845 1.663-1.268 2.664-1.268.581 0 1.12.147 1.615.44.495.293.895.756 1.199 1.388.304.633.456 1.436.456 2.41 0 1.017-.174 1.887-.521 2.608-.347.721-.833 1.267-1.457 1.639-.624.37-1.346.557-2.164.557-.592 0-1.176-.1-1.752-.299v3.6l-1.993.17v-10.22zm14.34 4.452c.406-.546.61-1.344.61-2.394 0-.974-.169-1.68-.505-2.119a1.61 1.61 0 0 0-1.344-.658 2.17 2.17 0 0 0-1.074.275c-.328.183-.64.428-.936.734v4.666c.199.097.43.174.694.23a3.7 3.7 0 0 0 .783.085c.775 0 1.366-.273 1.772-.819zm-5.243-4.452c0-.646-.022-1.357-.065-2.132h1.873c.07.361.118.73.145 1.107.775-.845 1.663-1.268 2.664-1.268.582 0 1.12.147 1.615.44.495.293.895.756 1.199 1.388.304.633.456 1.436.456 2.41 0 1.017-.174 1.887-.52 2.608-.348.721-.834 1.267-1.458 1.639-.624.37-1.345.557-2.164.557-.592 0-1.176-.1-1.751-.299v3.6l-1.994.17v-10.22zm11.55 6.026a4.837 4.837 0 0 1-1.986-2.046c-.463-.888-.694-1.938-.694-3.149 0-1.313.266-2.428.799-3.346a5.144 5.144 0 0 1 2.175-2.067c.918-.46 1.947-.69 3.089-.69.672 0 1.314.074 1.925.222a8.33 8.33 0 0 1 1.707.61l-.508 1.533c-1.06-.505-2.072-.758-3.035-.758-.813 0-1.525.173-2.136.52-.61.348-1.086.857-1.425 1.53-.339.673-.508 1.486-.508 2.438 0 .835.13 1.574.39 2.22a3.282 3.282 0 0 0 1.236 1.534c.563.377 1.272.565 2.128.565.387 0 .775-.032 1.162-.097a6.06 6.06 0 0 0 1.09-.282v-2.366h-2.705v-1.55h4.642v4.925a10.38 10.38 0 0 1-2.103.718 9.883 9.883 0 0 1-2.192.25c-1.173 0-2.19-.237-3.051-.714zm13.238-1.062a3.193 3.193 0 0 0 1.017-.742v-1.615a12.84 12.84 0 0 0-1.332-.088c-.824 0-1.393.133-1.708.4-.315.265-.472.625-.472 1.077 0 .43.114.75.343.957.229.207.54.31.932.31.398 0 .805-.1 1.22-.299zm1.194 1.615a7.575 7.575 0 0 1-.137-1.154 3.852 3.852 0 0 1-1.199.932c-.492.256-1.048.384-1.667.384-.5 0-.957-.099-1.368-.295a2.28 2.28 0 0 1-.981-.888c-.242-.396-.364-.879-.364-1.45 0-.844.304-1.518.913-2.022.608-.503 1.623-.754 3.043-.754.533 0 1.06.038 1.583.113v-.17c0-.77-.165-1.311-.493-1.627-.328-.314-.8-.472-1.412-.472-.426 0-.88.062-1.365.186-.484.124-.91.272-1.275.444l-.315-1.453c.355-.162.823-.31 1.404-.444a8.156 8.156 0 0 1 1.841-.202c.754 0 1.394.114 1.921.343.528.229.94.622 1.236 1.179.296.557.444 1.306.444 2.248v3.463c0 .361.02.908.064 1.64h-1.873zm3.338-2.091V17.751l1.986-.161v10.099c0 .372.063.634.19.787.126.153.327.23.601.23.124 0 .3-.03.525-.088l.234 1.428a3.393 3.393 0 0 1-.69.182 4.673 4.673 0 0 1-.771.069c-1.383 0-2.075-.751-2.075-2.253zm4.965 0V17.751l1.986-.161v10.099c0 .372.063.634.19.787.126.153.327.23.601.23.124 0 .299-.03.525-.088l.234 1.428a3.394 3.394 0 0 1-.69.182 4.673 4.673 0 0 1-.771.069c-1.383 0-2.075-.751-2.075-2.253zm9.759-3.277c-.04-.695-.213-1.215-.525-1.563-.312-.346-.731-.52-1.251-.52-.507 0-.928.175-1.264.525-.336.35-.557.869-.659 1.558h3.699zm1.944 1.267h-5.699c.091 1.825.96 2.737 2.608 2.737.408 0 .827-.05 1.256-.15a7.4 7.4 0 0 0 1.23-.4l.437 1.365c-.976.474-2.069.71-3.285.71-.928 0-1.707-.174-2.342-.524a3.358 3.358 0 0 1-1.434-1.51c-.32-.656-.48-1.447-.48-2.373 0-.963.17-1.792.509-2.487.339-.694.811-1.224 1.416-1.59.605-.366 1.304-.549 2.096-.549.824 0 1.509.192 2.061.577.552.385.96.898 1.227 1.538.267.64.4 1.348.4 2.123v.533zm1.509-2.422c0-.479-.024-1.208-.066-2.188h1.866a22.125 22.125 0 0 1 .152 1.687c.232-.381.459-.703.683-.964.224-.261.485-.473.784-.638a2.082 2.082 0 0 1 1.021-.246c.307 0 .568.032.79.097l-.251 1.728a2.19 2.19 0 0 0-.645-.09c-.467 0-.878.12-1.227.36-.349.24-.723.634-1.123 1.183v5.594h-1.984v-6.523zm6.35 10.088a4.805 4.805 0 0 1-.718-.174l.363-1.453c.133.037.304.074.509.109.203.035.398.052.582.052.882 0 1.544-.568 1.984-1.703l.13-.323-3.213-8.784h2.139l1.616 4.909c.261.84.432 1.483.506 1.93.152-.63.328-1.26.534-1.89l1.64-4.949h2.008l-3.203 8.824c-.301.834-.629 1.507-.979 2.018-.349.512-.762.891-1.237 1.139-.477.247-1.051.371-1.725.371-.334 0-.646-.025-.936-.077zM41.594 7.302h3.554l-.1.859h-2.413v1.662h2.275v.804h-2.275v1.842h2.542l-.087.867h-3.496V7.301zm6.004 2.954l-1.875-2.954h1.183l1.27 2.171 1.338-2.17h1.15l-1.858 2.916 2.013 3.117h-1.2L48.18 10.96l-1.462 2.374h-1.15l2.029-3.079zm6.6-.26c.222-.201.333-.486.333-.852 0-.372-.113-.64-.34-.804-.226-.164-.559-.246-.997-.246h-.567v2.142c.261.041.461.062.6.062.425 0 .749-.1.97-.302zm-2.613-2.694h1.625c.764 0 1.349.156 1.754.467.406.311.609.761.609 1.35 0 .4-.091.75-.273 1.048a1.797 1.797 0 0 1-.76.687c-.325.16-.7.24-1.121.24a4.35 4.35 0 0 1-.792-.083v2.325h-1.042V7.301zm5.017 0h1.042v5.142h2.495l-.087.891h-3.45V7.302zm7.821 4.998a1.78 1.78 0 0 0 .654-.808c.145-.343.217-.736.217-1.177 0-.434-.064-.82-.192-1.159a1.72 1.72 0 0 0-.612-.81c-.281-.201-.642-.302-1.084-.302-.422 0-.78.102-1.075.306a1.875 1.875 0 0 0-.662.821 2.85 2.85 0 0 0-.221 1.136c0 .435.07.826.208 1.17.139.345.351.617.638.817.286.2.64.3 1.062.3.42 0 .775-.098 1.067-.294zm-2.7.74a2.522 2.522 0 0 1-1.013-1.065c-.233-.457-.35-.988-.35-1.594 0-.636.124-1.192.373-1.668a2.627 2.627 0 0 1 1.075-1.105c.468-.26 1.02-.39 1.656-.39.609 0 1.132.127 1.571.378.439.252.774.605 1.004 1.06.231.456.346.984.346 1.584 0 .647-.125 1.21-.377 1.687-.251.478-.61.846-1.075 1.104-.465.259-1.012.388-1.64.388-.605 0-1.129-.126-1.57-.38zm7.458-2.884c.253 0 .477-.049.67-.148.195-.098.347-.237.455-.416.109-.18.163-.387.163-.623 0-.303-.096-.524-.288-.665-.191-.14-.47-.21-.837-.21h-.754v2.062h.591zm-1.633-2.854h1.887c.69 0 1.21.138 1.565.413.354.275.531.668.531 1.179 0 .32-.064.6-.192.844a1.865 1.865 0 0 1-.475.593 2.112 2.112 0 0 1-.583.342l1.854 2.662h-1.208l-1.57-2.391h-.767v2.391h-1.042V7.302zm5.412 0h3.555l-.1.859h-2.413v1.662h2.275v.804h-2.275v1.842h2.542l-.088.867H72.96V7.301zm7.421 0h1.042v6.034H80.38V7.301zm3.796.871h-1.871l.092-.87h4.696l-.096.87h-1.78v5.162h-1.041V8.174zM94.315 12.3a1.78 1.78 0 0 0 .654-.808 3.02 3.02 0 0 0 .216-1.177c0-.434-.064-.82-.191-1.159a1.722 1.722 0 0 0-.613-.81c-.28-.201-.642-.302-1.083-.302-.423 0-.78.102-1.075.306a1.872 1.872 0 0 0-.663.821 2.847 2.847 0 0 0-.22 1.136c0 .435.069.826.208 1.17.139.345.351.617.637.817.286.2.64.3 1.063.3.42 0 .775-.098 1.067-.294zm-2.7.74a2.52 2.52 0 0 1-1.013-1.065c-.233-.457-.35-.988-.35-1.594 0-.636.124-1.192.373-1.668A2.623 2.623 0 0 1 91.7 7.608c.468-.26 1.02-.39 1.656-.39.608 0 1.132.127 1.571.378a2.5 2.5 0 0 1 1.004 1.06c.23.456.346.984.346 1.584 0 .647-.126 1.21-.377 1.687-.252.478-.61.846-1.075 1.104-.465.259-1.012.388-1.64.388-.605 0-1.129-.126-1.57-.38zm5.825-5.738h1.195l2.984 4.675a20.21 20.21 0 0 1-.037-1.229V7.302h.965v6.034h-1.157l-3.03-4.75c.03.539.046 1.016.046 1.433v3.316h-.967V7.302z" fill="#fff"/><path fill-rule="evenodd" clip-rule="evenodd" d="M26.942 7.33H15.864c-5.219 0-7.128 1.91-7.128 7.128v11.079c0 5.218 1.91 7.127 7.128 7.127h11.075c5.218 0 7.13-1.909 7.13-7.127V14.458c0-5.218-1.908-7.127-7.127-7.127z" fill="#C91C2E"/><path d="M19.79 22.025h1.015l-.51-1.185-.506 1.185zm-.25.597l-.302.69h-.686l1.46-3.31h.592l1.453 3.31h-.704l-.298-.69H19.54zm11.04.688h.663v-3.308h-.663v3.308zm-2.639-1.422h1.222v-.603h-1.222v-.678h1.774v-.603h-2.437v3.308h2.501v-.604h-1.838v-.82zm-2.635.391l-.752-2.277h-.548l-.752 2.277-.732-2.276h-.715l1.154 3.31h.556l.754-2.174.752 2.175h.562l1.151-3.31h-.697l-.733 2.275zm-7.766-.382c0 .539-.268.827-.753.827-.489 0-.758-.296-.758-.85v-1.87h-.671v1.893c0 .932.517 1.466 1.42 1.466.91 0 1.433-.544 1.433-1.493V20h-.671v1.896zm-3.786-1.895h.672v3.312h-.672v-1.345h-1.518v1.345h-.671v-3.312h.671v1.336h1.518v-1.336zm7.648-4.217a4.222 4.222 0 0 1-4.216-4.217h.595a3.625 3.625 0 0 0 3.621 3.621 3.625 3.625 0 0 0 3.621-3.62h.596a4.222 4.222 0 0 1-4.217 4.216z" fill="#fff"/><rect x=".5" y=".5" width="132" height="39" rx="6.25" stroke="#A6A6A6"/></svg>