<svg width="121" height="40" viewBox="0 0 121 40" fill="none" xmlns="http://www.w3.org/2000/svg"><rect x="1" y=".5" width="119" height="39" rx="6.5" fill="#000"/><rect x="1" y=".5" width="119" height="39" rx="6.5" stroke="#A6A6A6"/><path d="M82.027 19.2v2.292H80.59v1.502h1.436V28.1c0 1.744.788 2.44 2.772 2.44.349 0 .68-.04.971-.09v-1.486c-.249.024-.406.041-.68.041-.889 0-1.279-.415-1.279-1.361v-4.649h1.96v-1.502h-1.96V19.2h-1.784zm8.797 11.464c2.64 0 4.258-1.768 4.258-4.698 0-2.914-1.626-4.69-4.258-4.69-2.64 0-4.266 1.776-4.266 4.69 0 2.93 1.618 4.698 4.266 4.698zm0-1.585c-1.552 0-2.424-1.137-2.424-3.113 0-1.959.872-3.105 2.424-3.105 1.544 0 2.424 1.146 2.424 3.105 0 1.967-.88 3.113-2.424 3.113zm5.643 1.411h1.785v-5.337c0-1.27.955-2.125 2.308-2.125.315 0 .846.058.996.107v-1.76c-.191-.05-.532-.074-.797-.074-1.179 0-2.183.647-2.44 1.536h-.133V21.45h-1.719v9.04zm9.52-7.695c1.32 0 2.183.921 2.225 2.34h-4.566c.1-1.41 1.021-2.34 2.341-2.34zm2.216 5.254c-.332.706-1.07 1.096-2.15 1.096-1.427 0-2.349-1.004-2.407-2.59v-.1h6.384v-.622c0-2.839-1.52-4.557-4.035-4.557-2.548 0-4.167 1.834-4.167 4.723s1.586 4.665 4.176 4.665c2.067 0 3.511-.996 3.918-2.615h-1.719zm-37.88-.897c.138 2.22 1.988 3.639 4.74 3.639 2.943 0 4.784-1.488 4.784-3.863 0-1.867-1.05-2.9-3.596-3.493l-1.368-.335c-1.617-.38-2.271-.887-2.271-1.773 0-1.118 1.015-1.85 2.538-1.85 1.445 0 2.443.715 2.624 1.859h1.875c-.112-2.09-1.953-3.562-4.474-3.562-2.71 0-4.516 1.471-4.516 3.682 0 1.824 1.023 2.908 3.269 3.433l1.6.387c1.643.387 2.366.955 2.366 1.902 0 1.1-1.136 1.9-2.684 1.9-1.66 0-2.813-.748-2.977-1.926h-1.91zm-18.487-5.851c-1.229 0-2.291.614-2.84 1.644h-.132V21.45h-1.718v12.045h1.785V29.12h.14c.474.955 1.495 1.52 2.781 1.52 2.283 0 3.736-1.802 3.736-4.674 0-2.872-1.453-4.665-3.752-4.665zm-.507 7.736c-1.494 0-2.432-1.178-2.432-3.063 0-1.892.938-3.071 2.44-3.071 1.511 0 2.416 1.154 2.416 3.063 0 1.918-.905 3.071-2.424 3.071zm10.504-7.736c-1.229 0-2.291.614-2.84 1.644h-.132V21.45h-1.718v12.045h1.784V29.12h.141c.474.955 1.495 1.52 2.781 1.52 2.283 0 3.736-1.802 3.736-4.674 0-2.872-1.453-4.665-3.752-4.665zm-.507 7.736c-1.494 0-2.432-1.178-2.432-3.063 0-1.892.938-3.071 2.44-3.071 1.511 0 2.416 1.154 2.416 3.063 0 1.918-.905 3.071-2.424 3.071zM43.944 30.49h2.047L41.51 18.075h-2.073L34.953 30.49h1.979l1.144-3.295h4.732l1.136 3.295zm-3.57-10.16h.146l1.798 5.247h-3.751l1.806-5.248zM36.15 8.71v5.99h2.163c1.784 0 2.818-1.1 2.818-3.013 0-1.885-1.042-2.976-2.818-2.976H36.15zm.93.847h1.129c1.241 0 1.976.789 1.976 2.142 0 1.374-.723 2.154-1.976 2.154H37.08V9.557zm7.216 5.23c1.32 0 2.13-.884 2.13-2.35 0-1.456-.814-2.344-2.13-2.344-1.32 0-2.133.888-2.133 2.345 0 1.465.809 2.349 2.133 2.349zm0-.793c-.776 0-1.212-.569-1.212-1.556 0-.98.436-1.553 1.212-1.553.772 0 1.212.573 1.212 1.553 0 .983-.44 1.556-1.212 1.556zm9.021-3.814h-.892l-.805 3.449h-.07l-.93-3.45h-.855l-.93 3.45h-.067l-.809-3.45h-.905L48.3 14.7h.918l.93-3.328h.07l.934 3.329h.925l1.241-4.52zm1.028 4.52h.892v-2.644c0-.706.42-1.146 1.08-1.146.66 0 .975.361.975 1.088V14.7h.892v-2.926c0-1.075-.556-1.681-1.565-1.681-.68 0-1.129.303-1.349.805h-.066v-.718h-.86v4.52zm5.245 0h.892V8.416h-.893V14.7zm4.248.087c1.32 0 2.129-.884 2.129-2.35 0-1.456-.814-2.344-2.13-2.344-1.32 0-2.133.888-2.133 2.345 0 1.465.81 2.349 2.134 2.349zm0-.793c-.776 0-1.212-.569-1.212-1.556 0-.98.436-1.553 1.212-1.553.772 0 1.212.573 1.212 1.553 0 .983-.44 1.556-1.212 1.556zm4.788.029c-.486 0-.839-.236-.839-.643 0-.399.282-.61.905-.652l1.104-.07v.377c0 .56-.498.988-1.17.988zm-.229.751c.594 0 1.088-.257 1.357-.71h.071v.636h.86v-3.088c0-.955-.64-1.52-1.773-1.52-1.025 0-1.756.499-1.847 1.275h.863c.1-.32.444-.502.942-.502.61 0 .926.27.926.747v.39l-1.224.07c-1.075.067-1.681.536-1.681 1.35 0 .825.635 1.352 1.506 1.352zm5.315 0c.623 0 1.15-.294 1.42-.788h.07v.714h.855V8.416h-.892v2.482h-.067c-.244-.498-.767-.793-1.386-.793-1.141 0-1.876.905-1.876 2.333 0 1.432.727 2.336 1.876 2.336zm.253-3.868c.748 0 1.216.594 1.216 1.536 0 .946-.464 1.531-1.216 1.531-.755 0-1.207-.577-1.207-1.535 0-.95.456-1.532 1.207-1.532zm7.879 3.881c1.32 0 2.129-.884 2.129-2.35 0-1.456-.814-2.344-2.13-2.344-1.32 0-2.133.888-2.133 2.345 0 1.465.81 2.349 2.134 2.349zm0-.793c-.776 0-1.212-.569-1.212-1.556 0-.98.436-1.553 1.212-1.553.772 0 1.212.573 1.212 1.553 0 .983-.44 1.556-1.212 1.556zm3.31.706h.892v-2.644c0-.706.42-1.146 1.08-1.146.66 0 .975.361.975 1.088V14.7h.892v-2.926c0-1.075-.556-1.681-1.564-1.681-.681 0-1.13.303-1.35.805h-.066v-.718h-.859v4.52zm7.949-5.645v1.146h-.718v.75h.718v2.553c0 .872.394 1.22 1.386 1.22.174 0 .34-.02.486-.045v-.743c-.125.012-.204.02-.34.02-.445 0-.64-.207-.64-.68v-2.324h.98V10.2h-.98V9.055h-.892zm3.069 5.645h.893v-2.64c0-.685.407-1.145 1.137-1.145.63 0 .967.365.967 1.087V14.7h.892v-2.918c0-1.075-.593-1.685-1.556-1.685-.68 0-1.158.303-1.378.81h-.07V8.415h-.885V14.7zm7.108-3.848c.66 0 1.092.461 1.113 1.17h-2.283c.05-.705.511-1.17 1.17-1.17zm1.109 2.627c-.166.353-.536.548-1.075.548-.714 0-1.175-.502-1.204-1.295v-.05h3.192v-.31c0-1.42-.76-2.28-2.017-2.28-1.275 0-2.084.918-2.084 2.362 0 1.445.793 2.333 2.088 2.333 1.033 0 1.755-.498 1.959-1.308h-.859zM25.27 20.301a4.989 4.989 0 0 1 2.357-4.152 5.128 5.128 0 0 0-3.992-2.158c-1.679-.176-3.307 1.005-4.163 1.005-.872 0-2.19-.987-3.608-.958a5.359 5.359 0 0 0-4.473 2.728c-1.934 3.348-.491 8.27 1.361 10.976.927 1.325 2.01 2.806 3.428 2.753 1.387-.057 1.905-.884 3.58-.884 1.658 0 2.144.884 3.59.85 1.489-.023 2.426-1.33 3.32-2.668a10.96 10.96 0 0 0 1.52-3.093 4.824 4.824 0 0 1-2.92-4.399zm-2.732-8.09a4.873 4.873 0 0 0 1.115-3.49 4.958 4.958 0 0 0-3.208 1.66 4.679 4.679 0 0 0-1.143 3.36 4.147 4.147 0 0 0 3.236-1.53z" fill="#fff"/></svg>