<svg width="200" height="200" viewBox="0 0 200 200" fill="none" xmlns="http://www.w3.org/2000/svg"><path d="M0 12C0 5.373 5.373 0 12 0h176c6.627 0 12 5.373 12 12v176c0 6.627-5.373 12-12 12H12c-6.627 0-12-5.373-12-12V12z" fill="#F2F2F2"/><path fill-rule="evenodd" clip-rule="evenodd" d="M59.468 130.478c10.441-11.075 24.72-17.975 40.532-17.975 15.811 0 30.09 6.9 40.531 17.975a4.166 4.166 0 0 1-3.031 7.025h-75a4.167 4.167 0 0 1-3.032-7.025zm17.615-49.225c0-12.657 10.26-22.917 22.917-22.917 12.656 0 22.916 10.26 22.916 22.917 0 12.656-10.26 22.916-22.916 22.916-12.657 0-22.917-10.26-22.917-22.916z" fill="#979797"/></svg>