<svg width="96" height="96" viewBox="0 0 96 96" fill="none" xmlns="http://www.w3.org/2000/svg"><path d="M80 80H16a3.998 3.998 0 0 1-3.453-6.016l32-56a4 4 0 0 1 6.91 0l32 56A4.001 4.001 0 0 1 80 80z" fill="#FFC107"/><path d="M44 68.284c0-.538.094-1.03.286-1.492.188-.456.458-.852.806-1.184a3.645 3.645 0 0 1 1.248-.786 4.637 4.637 0 0 1 1.648-.282c.612 0 1.164.098 1.656.282.5.188.922.45 1.264.786.35.332.62.728.806 1.184.192.462.286.954.286 1.492 0 .54-.094 1.032-.286 1.48-.188.45-.458.838-.806 1.176a3.68 3.68 0 0 1-1.264.784 4.7 4.7 0 0 1-1.656.276c-.614 0-1.16-.092-1.648-.278a3.765 3.765 0 0 1-1.248-.784 3.449 3.449 0 0 1-.806-1.176A3.71 3.71 0 0 1 44 68.284zM50.96 60h-5.946l-.842-24H51.8l-.84 24z" fill="#5D4037"/></svg>