<svg width="184" height="136" viewBox="0 0 184 136" fill="none" xmlns="http://www.w3.org/2000/svg"><circle cx="94" cy="64" r="64" fill="#EAECF0"/><circle cx="28" cy="12" r="6" fill="#F2F4F7"/><circle cx="25" cy="112" r="8" fill="#F2F4F7"/><circle cx="172" cy="96" r="8" fill="#F2F4F7"/><circle cx="157" cy="9" r="5" fill="#F2F4F7"/><g filter="url(#filter0_dd_4687_33223)"><path d="M52.937 95.314l39.878-18.595a4 4 0 0 0 1.934-5.316L71.2 20.899l-15.947-5.804L22.625 30.31a4 4 0 0 0-1.934 5.316L47.62 93.38a4 4 0 0 0 5.316 1.935z" fill="url(#paint0_linear_4687_33223)"/><path d="M55.252 15.095L71.2 20.9l-10.876 5.072-5.072-10.876z" fill="#D0D5DD"/></g><g filter="url(#filter1_dd_4687_33223)"><path d="M72 81.724h44a4 4 0 0 0 4-4V22l-12-12H72a4 4 0 0 0-4 4v63.724a4 4 0 0 0 4 4z" fill="url(#paint1_linear_4687_33223)"/><path d="M108 10l12 12h-12V10z" fill="#D0D5DD"/></g><g filter="url(#filter2_dd_4687_33223)"><path d="M94.625 76.695l39.878 18.595a4 4 0 0 0 5.316-1.935l23.55-50.503-5.805-15.947-32.627-15.215a4 4 0 0 0-5.315 1.935L92.691 71.38a4 4 0 0 0 1.934 5.316z" fill="url(#paint2_linear_4687_33223)"/><path d="M157.564 26.905l5.805 15.947-10.876-5.071 5.071-10.876z" fill="#D0D5DD"/></g><defs><filter id="filter0_dd_4687_33223" x="-1" y="10.024" width="117.44" height="126.98" filterUnits="userSpaceOnUse" color-interpolation-filters="sRGB"><feFlood flood-opacity="0" result="BackgroundImageFix"/><feColorMatrix in="SourceAlpha" type="matrix" values="0 0 0 0 0 0 0 0 0 0 0 0 0 0 0 0 0 0 127 0" result="hardAlpha"/><feMorphology radius="4" operator="erode" in="SourceAlpha" result="effect1_dropShadow_4687_33223"/><feOffset dy="8"/><feGaussianBlur stdDeviation="4"/><feColorMatrix type="matrix" values="0 0 0 0 0.0627451 0 0 0 0 0.0941176 0 0 0 0 0.156863 0 0 0 0.03 0"/><feBlend mode="normal" in2="BackgroundImageFix" result="effect1_dropShadow_4687_33223"/><feColorMatrix in="SourceAlpha" type="matrix" values="0 0 0 0 0 0 0 0 0 0 0 0 0 0 0 0 0 0 127 0" result="hardAlpha"/><feMorphology radius="4" operator="erode" in="SourceAlpha" result="effect2_dropShadow_4687_33223"/><feOffset dy="20"/><feGaussianBlur stdDeviation="12"/><feColorMatrix type="matrix" values="0 0 0 0 0.0627451 0 0 0 0 0.0941176 0 0 0 0 0.156863 0 0 0 0.08 0"/><feBlend mode="normal" in2="effect1_dropShadow_4687_33223" result="effect2_dropShadow_4687_33223"/><feBlend mode="normal" in="SourceGraphic" in2="effect2_dropShadow_4687_33223" result="shape"/></filter><filter id="filter1_dd_4687_33223" x="48" y="10" width="92" height="111.724" filterUnits="userSpaceOnUse" color-interpolation-filters="sRGB"><feFlood flood-opacity="0" result="BackgroundImageFix"/><feColorMatrix in="SourceAlpha" type="matrix" values="0 0 0 0 0 0 0 0 0 0 0 0 0 0 0 0 0 0 127 0" result="hardAlpha"/><feMorphology radius="4" operator="erode" in="SourceAlpha" result="effect1_dropShadow_4687_33223"/><feOffset dy="8"/><feGaussianBlur stdDeviation="4"/><feColorMatrix type="matrix" values="0 0 0 0 0.0627451 0 0 0 0 0.0941176 0 0 0 0 0.156863 0 0 0 0.03 0"/><feBlend mode="normal" in2="BackgroundImageFix" result="effect1_dropShadow_4687_33223"/><feColorMatrix in="SourceAlpha" type="matrix" values="0 0 0 0 0 0 0 0 0 0 0 0 0 0 0 0 0 0 127 0" result="hardAlpha"/><feMorphology radius="4" operator="erode" in="SourceAlpha" result="effect2_dropShadow_4687_33223"/><feOffset dy="20"/><feGaussianBlur stdDeviation="12"/><feColorMatrix type="matrix" values="0 0 0 0 0.0627451 0 0 0 0 0.0941176 0 0 0 0 0.156863 0 0 0 0.08 0"/><feBlend mode="normal" in2="effect1_dropShadow_4687_33223" result="effect2_dropShadow_4687_33223"/><feBlend mode="normal" in="SourceGraphic" in2="effect2_dropShadow_4687_33223" result="shape"/></filter><filter id="filter2_dd_4687_33223" x="71" y="10" width="117.44" height="126.98" filterUnits="userSpaceOnUse" color-interpolation-filters="sRGB"><feFlood flood-opacity="0" result="BackgroundImageFix"/><feColorMatrix in="SourceAlpha" type="matrix" values="0 0 0 0 0 0 0 0 0 0 0 0 0 0 0 0 0 0 127 0" result="hardAlpha"/><feMorphology radius="4" operator="erode" in="SourceAlpha" result="effect1_dropShadow_4687_33223"/><feOffset dy="8"/><feGaussianBlur stdDeviation="4"/><feColorMatrix type="matrix" values="0 0 0 0 0.0627451 0 0 0 0 0.0941176 0 0 0 0 0.156863 0 0 0 0.03 0"/><feBlend mode="normal" in2="BackgroundImageFix" result="effect1_dropShadow_4687_33223"/><feColorMatrix in="SourceAlpha" type="matrix" values="0 0 0 0 0 0 0 0 0 0 0 0 0 0 0 0 0 0 127 0" result="hardAlpha"/><feMorphology radius="4" operator="erode" in="SourceAlpha" result="effect2_dropShadow_4687_33223"/><feOffset dy="20"/><feGaussianBlur stdDeviation="12"/><feColorMatrix type="matrix" values="0 0 0 0 0.0627451 0 0 0 0 0.0941176 0 0 0 0 0.156863 0 0 0 0.08 0"/><feBlend mode="normal" in2="effect1_dropShadow_4687_33223" result="effect2_dropShadow_4687_33223"/><feBlend mode="normal" in="SourceGraphic" in2="effect2_dropShadow_4687_33223" result="shape"/></filter><linearGradient id="paint0_linear_4687_33223" x1="50.594" y1="95.469" x2="18.815" y2="38.137" gradientUnits="userSpaceOnUse"><stop stop-color="#E4E7EC"/><stop offset="1" stop-color="#F9FAFB"/></linearGradient><linearGradient id="paint1_linear_4687_33223" x1="69.811" y1="80.875" x2="65.239" y2="15.484" gradientUnits="userSpaceOnUse"><stop stop-color="#E4E7EC"/><stop offset="1" stop-color="#F9FAFB"/></linearGradient><linearGradient id="paint2_linear_4687_33223" x1="93" y1="75" x2="116.492" y2="13.803" gradientUnits="userSpaceOnUse"><stop stop-color="#E4E7EC"/><stop offset="1" stop-color="#F9FAFB"/></linearGradient></defs></svg>