<svg width="15" height="20" viewBox="0 0 15 20" fill="none" xmlns="http://www.w3.org/2000/svg"><path d="M9.167 1.928V5.37c0 .467 0 .7.091.878.08.157.208.284.364.364.179.091.412.091.879.091h3.442m-3.109 4.167H4.167m6.667 3.333H4.167m1.667-6.667H4.167m5-5.833H4.834c-1.4 0-2.1 0-2.635.273a2.5 2.5 0 0 0-1.093 1.092C.834 3.603.834 4.303.834 5.703v8.667c0 1.4 0 2.1.272 2.635A2.5 2.5 0 0 0 2.2 18.097c.535.273 1.235.273 2.635.273h5.333c1.4 0 2.1 0 2.635-.273a2.5 2.5 0 0 0 1.093-1.092c.272-.535.272-1.235.272-2.635V6.703l-5-5z" stroke="#030F1A" stroke-width="1.6" stroke-linecap="round" stroke-linejoin="round"/></svg>