<svg width="32" height="33" viewBox="0 0 32 33" fill="none" xmlns="http://www.w3.org/2000/svg"><g style="mix-blend-mode:luminosity" opacity=".2"><path d="M26 11.17v16.666c0 .737-.597 1.333-1.333 1.333H7.333A1.333 1.333 0 0 1 6 27.836V5.169c0-.736.597-1.333 1.333-1.333h11.334l2 5.333 5.333 2z" fill="#050605"/><path d="M18.666 3.836v6c0 .737.597 1.333 1.333 1.333h6l-7.333-7.333zm3.001 12.661H10.333a.333.333 0 0 1-.333-.333v-.667c0-.184.15-.333.333-.333h11.334c.184 0 .333.15.333.333v.667c0 .184-.15.333-.333.333zm-1.334 2.673h-10a.333.333 0 0 1-.333-.334v-.667c0-.184.15-.333.333-.333h10c.184 0 .334.15.334.333v.667c0 .184-.15.333-.334.333zm1.334 2.663H10.333A.333.333 0 0 1 10 21.5v-.667c0-.184.15-.333.333-.333h11.334c.184 0 .333.15.333.333v.667c0 .184-.15.333-.333.333zm-1.334 2.664h-10a.333.333 0 0 1-.333-.333v-.667c0-.184.15-.333.333-.333h10c.184 0 .334.15.334.333v.667c0 .184-.15.333-.334.333z" fill="#FFD522"/></g></svg>