<svg width="32" height="32" viewBox="0 0 32 32" fill="none" xmlns="http://www.w3.org/2000/svg"><path d="M26 10.67v16.666c0 .737-.597 1.333-1.333 1.333H7.333A1.333 1.333 0 0 1 6 27.336V4.669c0-.736.597-1.333 1.333-1.333h11.334l2 5.333 5.333 2z" fill="#050605"/><path d="M18.667 3.336v6c0 .737.597 1.333 1.333 1.333h6l-7.333-7.333zm3 12.661H10.333a.333.333 0 0 1-.333-.333v-.667c0-.184.15-.333.333-.333h11.334c.184 0 .333.15.333.333v.667c0 .184-.15.333-.333.333zm-1.334 2.673h-10a.333.333 0 0 1-.333-.334v-.667c0-.184.15-.333.333-.333h10c.184 0 .334.15.334.333v.667c0 .184-.15.333-.334.333zm1.334 2.663H10.333A.333.333 0 0 1 10 21v-.667c0-.184.15-.333.333-.333h11.334c.184 0 .333.15.333.333V21c0 .184-.15.333-.333.333zm-1.334 2.664h-10a.333.333 0 0 1-.333-.333v-.667c0-.184.15-.333.333-.333h10c.184 0 .334.15.334.333v.667c0 .184-.15.333-.334.333z" fill="#FFD522"/></svg>