<svg width="24" height="24" viewBox="0 0 24 24" fill="none" xmlns="http://www.w3.org/2000/svg"><path d="M20.763 5.134c-.03 3.914-.527 6.59-2.446 9.448-1.919 2.857-5.2 3.564-5.586 1.963-.386-1.601 3.788-1.183 4.383-2.59a1.5 1.5 0 0 0-1.9-2.03c-1.182.333-2.776 1.31-2.09-.2.686-1.511 4.607-1.135 4.061-3.537-.546-2.402-3.18.648-3.8.247-.552-.357-.1-1.024.6-1.885 1.37-1.476 2.791-1.352 2.974-2.65.183-1.298-.935-2.453-2.774-2.164-1.839.289-1.809 2.249-2.776 2.164-.967-.085-.386-2.308-1.765-2.768a1.953 1.953 0 0 0-2.7 1.426 1.924 1.924 0 0 0 .5 1.624C5.828 4.605 3.585 5.91 2.49 9.527a13.762 13.762 0 0 0 .74 9.339c.031-3.914.527-6.59 2.446-9.448 1.92-2.858 5.2-3.565 5.586-1.963.386 1.602-3.788 1.182-4.383 2.59a1.5 1.5 0 0 0 1.9 2.03c1.182-.333 2.776-1.312 2.09.2-.686 1.512-4.606 1.135-4.06 3.538.544 2.403 3.18-.648 3.8-.247.55.357.1 1.024-.6 1.884-1.372 1.477-2.793 1.353-2.976 2.65-.183 1.299.935 2.453 2.774 2.165 1.84-.288 1.81-2.25 2.776-2.164.966.085.386 2.308 1.765 2.768a1.953 1.953 0 0 0 2.7-1.426 1.924 1.924 0 0 0-.5-1.624c1.616-.423 3.86-1.73 4.955-5.346a13.762 13.762 0 0 0-.739-9.34z" fill="#fff"/></svg>