<svg width="32" height="33" viewBox="0 0 32 33" fill="none" xmlns="http://www.w3.org/2000/svg"><path fill="#FFD522" d="M7.588 8.633h17.699v17.699H7.588z"/><path d="M25.625 9H20v3.75h-7.5V9H6.875C5.84 9 5 9.84 5 10.875v13.75c0 1.035.84 1.875 1.875 1.875h18.75c1.035 0 1.875-.84 1.875-1.875v-13.75C27.5 9.84 26.66 9 25.625 9zm-9.375 6.25c1.379 0 2.5 1.121 2.5 2.5s-1.121 2.5-2.5 2.5a2.502 2.502 0 0 1-2.5-2.5c0-1.379 1.121-2.5 2.5-2.5zM19.895 24h-7.29c-.406 0-.734-.39-.609-.773a2.501 2.501 0 0 1 2.379-1.727h.32a4.032 4.032 0 0 0 3.11 0h.32c1.11 0 2.05.723 2.379 1.727.125.382-.203.773-.61.773zM18.75 7.75A1.25 1.25 0 0 0 17.5 6.5H15a1.25 1.25 0 0 0-1.25 1.25v3.75h5V7.75z" fill="#000"/></svg>