<svg width="24" height="24" viewBox="0 0 24 24" fill="none" xmlns="http://www.w3.org/2000/svg"><g clip-path="url(#clip0_7007_62278)"><path d="M19.491 12.004l.028-.01a5.728 5.728 0 1 0-7.522-7.465V4.52a5.719 5.719 0 1 0-7.49 7.474H4.5a5.728 5.728 0 1 0 7.5 7.474 5.717 5.717 0 1 0 7.491-7.466v.002zm-7.5 3.071a5.71 5.71 0 0 0-3.065-3.07l.028-.012a5.71 5.71 0 0 0 3.043-3.078 5.747 5.747 0 0 0 3.065 3.08h-.007a5.727 5.727 0 0 0-3.058 3.09l-.006-.01zm1.5-6.89a4.079 4.079 0 0 1 2.322 2.321 4.089 4.089 0 0 1-2.316-2.322h-.006zm-5.282 2.32a4.09 4.09 0 0 1 2.323-2.323 4.09 4.09 0 0 1-2.32 2.322H8.21zm.11 3a4.078 4.078 0 0 1 2.213 2.277 4.089 4.089 0 0 1-2.323-2.32c.04.014.076.027.111.042h-.002zm7.5-.045a4.09 4.09 0 0 1-2.322 2.322 4.09 4.09 0 0 1 2.32-2.322h.001zm1.473-10.833a4.076 4.076 0 0 1 .293 8.143 5.718 5.718 0 0 0-4.356-4.357 4.078 4.078 0 0 1 4.06-3.785h.003zM2.653 6.71a4.08 4.08 0 0 1 8.144-.308A5.68 5.68 0 0 0 6.41 10.77a4.077 4.077 0 0 1-3.757-4.06zm4.085 14.627a4.076 4.076 0 0 1-.329-8.14 5.735 5.735 0 0 0 4.388 4.394 4.078 4.078 0 0 1-4.059 3.746zm10.562 0a4.078 4.078 0 0 1-4.07-3.748 5.677 5.677 0 0 0 4.362-4.394 4.076 4.076 0 0 1-.295 8.142h.003z" fill="#fff"/></g><defs><clipPath id="clip0_7007_62278"><path fill="#fff" d="M0 0h24v24H0z"/></clipPath></defs></svg>