<svg width="64" height="64" viewBox="0 0 64 64" fill="none" xmlns="http://www.w3.org/2000/svg"><path d="M49.066 6.398A2.133 2.133 0 0 1 51.2 8.532v36.266h4.266a2.134 2.134 0 0 1 2.134 2.134c0 5.865-4.801 10.666-10.667 10.666H19.2a1.9 1.9 0 0 1-.213-.012c-5.768-.115-10.454-4.86-10.454-10.654v-38.4a2.134 2.134 0 0 1 2.133-2.134h38.4zm-2.133 4.267H12.8v36.267c0 3.56 2.84 6.4 6.4 6.4 3.559 0 6.4-2.84 6.4-6.4a2.134 2.134 0 0 1 2.133-2.134h19.2V10.665zm-6.4 6.4v4.267h-4.267v-4.267h4.267zm-8.533 0v4.267H19.2v-4.267H32zm8.533 8.533v4.267h-4.267v-4.267h4.267zm-8.533 0v4.267H19.2v-4.267H32zm8.533 8.534v4.266h-4.267v-4.266h4.267zm-8.533 0v4.266H19.2v-4.266H32z" fill="#D2D6D9"/></svg>