<svg width="16" height="16" viewBox="0 0 16 16" fill="none" xmlns="http://www.w3.org/2000/svg"><path fill-rule="evenodd" clip-rule="evenodd" d="M10.862 1.529a2.552 2.552 0 1 1 3.61 3.61l-7.545 7.544c-.156.155-.273.273-.406.376a2.67 2.67 0 0 1-.374.243c-.148.08-.304.14-.509.218l-.083.033-.062.023-3.587 1.38a.667.667 0 0 1-.862-.862l1.436-3.732c.079-.205.139-.36.218-.509a2.69 2.69 0 0 1 .243-.374c.103-.133.22-.25.377-.406l7.544-7.544zm-7.275 9.668l-.76 1.976 1.976-.76-1.216-1.216z" fill="#030F1A"/><path d="M8.667 13.334H14a.667.667 0 1 1 0 1.333H8.667a.667.667 0 0 1 0-1.333z" fill="#030F1A"/></svg>