<svg width="40" height="41" viewBox="0 0 40 41" fill="none" xmlns="http://www.w3.org/2000/svg"><path d="M0 20.5C0 9.454 8.954.5 20 .5s20 8.954 20 20-8.954 20-20 20-20-8.954-20-20z" fill="#F2F2F2"/><path d="M14.75 10.5c-1.51 0-2.75 1.24-2.75 2.75v14.5c0 1.51 1.24 2.75 2.75 2.75h10.5c1.51 0 2.75-1.24 2.75-2.75v-14.5c0-1.51-1.24-2.75-2.75-2.75h-10.5zm0 1.5h10.5c.7 0 1.25.55 1.25 1.25v14.5c0 .7-.55 1.25-1.25 1.25h-10.5c-.7 0-1.25-.55-1.25-1.25v-14.5c0-.7.55-1.25 1.25-1.25zm1.48 1.999c-.67 0-1.23.561-1.23 1.231v3.04c0 .67.56 1.23 1.23 1.23h7.54c.67 0 1.23-.56 1.231-1.23v-3.04c0-.67-.561-1.231-1.232-1.231h-7.538zm.27 1.5h7.001V18H16.5v-2.501zM16.25 21a1.25 1.25 0 1 0 0 2.5 1.25 1.25 0 0 0 0-2.5zM20 21a1.25 1.25 0 1 0 0 2.5 1.25 1.25 0 0 0 0-2.5zm3.75 0c-.69 0-1.25.56-1.25 1.25v3.5a1.25 1.25 0 1 0 2.5 0v-3.5c0-.69-.56-1.25-1.25-1.25zm-7.5 3.5a1.25 1.25 0 1 0 0 2.5 1.25 1.25 0 0 0 0-2.5zm3.75 0a1.25 1.25 0 1 0 0 2.5 1.25 1.25 0 0 0 0-2.5z" fill="#030F1A"/></svg>