<svg width="32" height="32" viewBox="0 0 32 32" fill="none" xmlns="http://www.w3.org/2000/svg"><rect width="32" height="32" rx="4" fill="#000"/><path d="M25.917 14.251c.644 0 1.166-.522 1.166-1.166v-7c0-.645-.522-1.167-1.166-1.167h-7c-.645 0-1.167.522-1.167 1.167v1.75H16v2.333h1.75v2.917c0 .644.522 1.166 1.167 1.166h3.5v2.334h2.333V14.25h1.167zm-5.834-2.333V7.251h4.667v4.667h-4.667zm4.667 10.5h-2.334v2.333h2.333v-2.333zm2.333-2.336H24.75v2.333h2.333v-2.333zm-1.166 7.001c.644 0 1.166-.522 1.166-1.166V24.75H24.75v2.333h1.167zm-3.5-7.001h-2.333v2.333h2.333v-2.333z" fill="#FFD522"/><path d="M22.417 24.75h-2.333v2.333h2.333V24.75zm-11.667-3.5H8.415v2.333h2.333V21.25zm0-12.832H8.415v2.333h2.333V8.418zm12.833 0H21.25v2.333h2.333V8.418zm3.5 8.164H24.75v2.333h2.333v-2.333z" fill="#FFD522"/><path d="M17.75 16.583V14.25h-3.5v2.333h-2.334v1.167H9.583v-1.167H7.249v1.167H6.083c-.645 0-1.167.522-1.167 1.167v7c0 .644.522 1.166 1.167 1.166h7c.644 0 1.166-.522 1.166-1.166v-2.334h2.334v1.167h2.333v-5.833h3.5v-2.334h-4.667zm-5.834 8.167H7.249v-4.667h4.667v4.667zm4.667-3.5h-2.334v-2.333h2.334v2.333z" fill="#FFD522"/><path d="M11.916 14.251h1.167c.644 0 1.166-.522 1.166-1.166V12.5H16v-2.333h-1.75V6.085c0-.645-.522-1.167-1.166-1.167h-7c-.645 0-1.167.522-1.167 1.167v7c0 .644.522 1.166 1.167 1.166h3.5v2.334h2.333V14.25zm-4.667-2.333V7.251h4.667v4.667H7.249z" fill="#FFD522"/></svg>