<svg width="24" height="24" viewBox="0 0 24 24" fill="none" xmlns="http://www.w3.org/2000/svg"><path d="M11.058 10.172c.45 0 .813-.348.813-.778 0-.43-.364-.778-.813-.778-.449 0-.813.348-.813.778 0 .43.364.778.813.778z" fill="#fff"/><path d="M19.671 9.69c-.082-.4 2.594-.763 2.818-1.947.224-1.184-3.414 1.456-3.82 1.247-.408-.209 2.461-1.8 2.268-3.4-.193-1.6-3.389 3.714-3.857 3.338-.468-.376 2.66-3.373 2.12-5.16-.54-1.789-2.594 3.933-4.147 5.542a6.77 6.77 0 0 1-6.365 1.513 6.774 6.774 0 0 1-4.55-2.8C3.382 6.831 3.79 4.951 6.16 4.904c2.37-.047 3.776 3.862 3.776 3.862l.424-1.447 1.01.93s.348-.4.318-1.944c-.03-1.543-.4-4.785-4.478-4.255-4.078.53-6.843 5.542-6.078 9.314.765 3.772 5.158 7.391 8.645 7.743.251.026.504.037.756.034v1.874H9.021a.5.5 0 0 0-.51.488.5.5 0 0 0 .51.488h6.728a.5.5 0 0 0 .51-.488.5.5 0 0 0-.51-.488h-1.512v-3.012h-.046a2.499 2.499 0 0 1 2.152-.205 17.249 17.249 0 0 1-.227-2.064c.054-.047 1.5.525 1.565.49.065-.037-.418-1.33-.219-1.5.2-.172 1.1.087 1.211.067.111-.02-.207-.935-.429-1.255-.222-.32 1.05-.277 1.057-.472.007-.195-.445-.646-.87-.78-.427-.134 1.437-.39 1.621-.535.184-.144-.495-.834-.348-.88.147-.046 2.4-.079 3.194-.8.794-.72-3.148.022-3.227-.379zm-17.79.573c-.24-.9 1.058-1.562 1.734-1.026a2.258 2.258 0 0 0-1.738 1.026h.003zm.5 1.567c-.516-1.229 1.19-2.394 2.248-1.758a3.167 3.167 0 0 0-2.258 1.758h.01zm.947 1.847c-1.017-1.382.745-3.308 2.255-2.816a3.932 3.932 0 0 0-2.26 2.816h.005zm1.457 1.73c-1.413-1.764.791-4.384 2.8-3.816a5.142 5.142 0 0 0-2.806 3.812l.006.003zm8.243 5.617h-1.285v-2.02a6.777 6.777 0 0 0 1.285-.442v2.462zm-1.148-3.306c-2.429.658-5.356-1.7-5.16-1.894.91-1.27 3.611 1.712 4.886 1.042 1.275-.67-4.656-1.635-4.506-2.617.15-.982 6.307 2.272 6.708 1.47.401-.804-6.242-1.766-5.8-2.606.442-.84 6.984 2 7.284 1.007.3-.993-6.594-1.362-6.673-2-.079-.638 7.245-.048 7.68.9.435.948-1.996 4.04-4.428 4.698h.01zm4.94-5.993c-.155.4-1.646-.159-1.654-.908-.008-.749 1.374-1.45 1.624-1.11.25.338-.537.638-.559 1.128-.028.526.74.493.584.89h.005zm1.608-.746c-.084.077-.69-.15-.865-.36-.174-.21.636-.92.722-.552.086.37.222.836.138.912h.005z" fill="#fff"/></svg>