<svg width="32" height="32" viewBox="0 0 32 32" fill="none" xmlns="http://www.w3.org/2000/svg"><path d="M24 9.48V5.337H8V9.48a6.645 6.645 0 0 0 5.034 6.447l.3.075-.3.074A6.646 6.646 0 0 0 8 22.525v4.144h16v-4.144a6.645 6.645 0 0 0-5.034-6.448l-.3-.074.3-.075A6.646 6.646 0 0 0 24 9.48z" fill="#050605"/><path d="M24 7.336H8a.667.667 0 0 1-.666-.667V5.336h17.333v1.333a.667.667 0 0 1-.666.667zm1.333-2H6.667A.667.667 0 0 1 6 4.669v-.666c0-.368.299-.667.667-.667h18.666c.368 0 .667.299.667.667v.666a.667.667 0 0 1-.667.667z" fill="#050605"/><path d="M22.837 25.336c-1.503-4.667-6.156-6-6.823-6-.666 0-5.347 1.333-6.836 6h13.66z" fill="#FFD522"/><path d="M8 24.664h16c.369 0 .667.299.667.667v1.333H7.334v-1.333c0-.368.299-.667.667-.667z" fill="#050605"/><path d="M6.667 26.664h18.666c.368 0 .667.299.667.667v.666a.667.667 0 0 1-.667.667H6.667A.667.667 0 0 1 6 27.997v-.666c0-.368.299-.667.667-.667z" fill="#050605"/></svg>