<svg width="20" height="20" viewBox="0 0 20 20" fill="none" xmlns="http://www.w3.org/2000/svg"><path d="M6.667 2.497c0-.46.373-.833.833-.833h5a.833.833 0 1 1 0 1.667h-5a.833.833 0 0 1-.833-.834z" fill="#F00"/><path fill-rule="evenodd" clip-rule="evenodd" d="M1.667 4.997c0-.46.373-.833.833-.833h15a.833.833 0 1 1 0 1.667h-.887l-.534 8.021c-.042.63-.077 1.15-.14 1.575-.064.441-.167.844-.381 1.22a3.334 3.334 0 0 1-1.443 1.35c-.39.189-.799.265-1.244.3-.427.034-.949.034-1.58.034H8.71c-.63 0-1.153 0-1.58-.034-.445-.035-.854-.111-1.243-.3a3.334 3.334 0 0 1-1.443-1.35c-.214-.376-.317-.779-.382-1.22-.062-.425-.097-.945-.139-1.575l-.535-8.021H2.5a.833.833 0 0 1-.833-.834zm6.667 2.917c.46 0 .833.373.833.833v4.167a.833.833 0 0 1-1.667 0V8.747c0-.46.373-.833.834-.833zm4.166.833a.833.833 0 1 0-1.666 0v4.167a.833.833 0 0 0 1.666 0V8.747z" fill="#F00"/></svg>