<svg width="43" height="20" viewBox="0 0 43 20" fill="none" xmlns="http://www.w3.org/2000/svg"><g clip-path="url(#clip0_5801_45797)"><path d="M39.474 3.72C38.3 1.426 35.953 0 33.344 0c-1.107 0-2.172.268-3.082.777L30.2.81l.502.995.066-.031c.855-.42 1.73-.634 2.596-.634.583 0 1.174.093 1.76.284 1.47.466 2.593 1.41 3.34 2.798l.03.062 1.015-.497-.035-.066z" fill="#EF3637"/><mask id="mask0_5801_45797" style="mask-type:luminance" maskUnits="userSpaceOnUse" x="30" y="1" width="8" height="5"><path d="M31.044 2.3l-.062.035.497 1.003.066-.031a4.139 4.139 0 0 1 1.827-.448c.404 0 .817.067 1.225.199 1.03.326 1.819.991 2.347 1.974l.035.062.996-.52-.032-.063c-.831-1.694-2.627-2.79-4.578-2.79-.825 0-1.625.198-2.32.579" fill="#fff"/></mask><g mask="url(#mask0_5801_45797)"><path d="M37.975 1.72h-6.993v3.374h6.993V1.721z" fill="url(#paint0_linear_5801_45797)"/></g><path d="M33.34 3.44c-.555 0-1.08.136-1.52.389l-.058.03.517 1 .062-.031c.571-.276 1.155-.323 1.734-.137.59.187 1.034.56 1.352 1.143l.031.058 1.003-.493-.03-.063c-.552-1.154-1.765-1.897-3.09-1.897" fill="#A9CF38"/><path d="M23.056 20a.644.644 0 0 1-.233-.039.465.465 0 0 1-.171-.112.463.463 0 0 1-.113-.175.789.789 0 0 1-.035-.24c0-.09.012-.171.035-.242a.432.432 0 0 1 .113-.178.435.435 0 0 1 .175-.113.64.64 0 0 1 .232-.039c.14 0 .253.031.335.102a.398.398 0 0 1 .147.291h-.284a.21.21 0 0 0-.062-.124.21.21 0 0 0-.136-.043.19.19 0 0 0-.167.085c-.046.055-.066.14-.066.261s.02.202.066.257a.197.197 0 0 0 .168.081c.058 0 .1-.012.135-.043a.192.192 0 0 0 .062-.12h.284a.45.45 0 0 1-.147.291.523.523 0 0 1-.338.102m.976-1.533h-.315v1.504h.315v-1.504zm.587.241h-.315v-.248h.315v.249zm0 1.264h-.315v-1.089h.315v1.089zm.759.026a.644.644 0 0 1-.234-.039.465.465 0 0 1-.17-.112.448.448 0 0 1-.11-.175.684.684 0 0 1-.038-.24.68.68 0 0 1 .038-.242.426.426 0 0 1 .11-.178.424.424 0 0 1 .178-.113.606.606 0 0 1 .23-.039c.14 0 .253.031.338.102a.409.409 0 0 1 .144.291h-.284a.21.21 0 0 0-.062-.124.21.21 0 0 0-.135-.043.195.195 0 0 0-.168.085c-.043.055-.066.14-.066.261s.023.202.066.257a.202.202 0 0 0 .168.081c.058 0 .1-.012.135-.043a.192.192 0 0 0 .062-.12h.284a.435.435 0 0 1-.147.291.523.523 0 0 1-.338.102m1.701-.027h-.35l-.271-.478-.105.116v.362h-.315V18.47h.315v.812l.346-.397h.346l-.366.412.4.677zm1.447-.097a.422.422 0 0 1-.163.093.626.626 0 0 1-.202.027.643.643 0 0 1-.151-.019.293.293 0 0 1-.121-.058.256.256 0 0 1-.081-.101.366.366 0 0 1-.027-.14c0-.128.054-.221.163-.284.105-.062.269-.093.486-.093h.093v-.054c0-.02-.004-.04-.004-.054-.008-.05-.023-.09-.054-.117-.031-.023-.078-.035-.144-.035a.326.326 0 0 0-.155.035.162.162 0 0 0-.05.117h-.289c.016-.222.187-.335.506-.335.043 0 .081.004.116.004.035.004.07.008.098.015a.247.247 0 0 1 .081.028c.027.008.05.019.078.035.02.016.043.035.058.054a.264.264 0 0 1 .066.155.51.51 0 0 1 .009.12v.704h-.311v-.097h-.002zm-.004-.396h-.101a.55.55 0 0 0-.24.039.146.146 0 0 0-.082.136c0 .054.015.09.05.112a.21.21 0 0 0 .128.036c.05 0 .098-.008.14-.032a.302.302 0 0 0 .106-.077v-.214zm.883-.458a.502.502 0 0 1 .16-.125.413.413 0 0 1 .178-.039c.253 0 .377.133.377.405v.71h-.315v-.687a.255.255 0 0 0-.035-.144c-.02-.035-.058-.05-.116-.05a.242.242 0 0 0-.125.035.67.67 0 0 0-.112.105v.742h-.315v-1.092h.303v.14zm1.68.818a.521.521 0 0 1-.147.117.47.47 0 0 1-.365.004.395.395 0 0 1-.141-.113.537.537 0 0 1-.081-.178.863.863 0 0 1-.027-.233c0-.086.007-.168.03-.237.02-.07.05-.133.09-.183a.413.413 0 0 1 .339-.16.43.43 0 0 1 .163.028c.046.015.09.043.129.081v-.497h.314v1.504h-.303v-.133h-.001zm-.012-.668a.401.401 0 0 0-.097-.066.278.278 0 0 0-.117-.02c-.07 0-.12.028-.159.086a.524.524 0 0 0-.054.264c0 .222.066.334.202.334a.203.203 0 0 0 .12-.039.522.522 0 0 0 .105-.105v-.455.001zm1.629.826a.922.922 0 0 1-.217-.023.448.448 0 0 1-.152-.062.37.37 0 0 1-.093-.113.558.558 0 0 1-.04-.151h.293a.16.16 0 0 0 .05.124c.035.031.085.046.16.046.062 0 .108-.012.14-.039.03-.019.05-.05.05-.097a.106.106 0 0 0-.016-.05.166.166 0 0 0-.047-.04l-.078-.026c-.031-.008-.07-.02-.116-.027a1.742 1.742 0 0 1-.152-.044.392.392 0 0 1-.128-.062.225.225 0 0 1-.09-.093.294.294 0 0 1-.035-.151.28.28 0 0 1 .032-.129.292.292 0 0 1 .089-.108.567.567 0 0 1 .143-.07.733.733 0 0 1 .195-.024c.155 0 .272.027.35.082a.28.28 0 0 1 .112.237h-.272c-.004-.047-.019-.078-.05-.102a.217.217 0 0 0-.136-.039.224.224 0 0 0-.12.031.093.093 0 0 0-.047.086c0 .019.004.035.008.046.008.016.02.027.035.04.02.007.043.018.074.026s.074.02.125.031c.07.015.132.035.182.05.05.017.093.04.129.067a.231.231 0 0 1 .081.093.348.348 0 0 1-.004.28.262.262 0 0 1-.09.112.446.446 0 0 1-.147.07.732.732 0 0 1-.218.027m1.197 0a.702.702 0 0 1-.244-.039.489.489 0 0 1-.18-.108.661.661 0 0 1-.112-.183.73.73 0 0 1-.035-.237c0-.089.012-.167.04-.236a.568.568 0 0 1 .108-.183.45.45 0 0 1 .175-.109.681.681 0 0 1 .466-.004.419.419 0 0 1 .172.109c.05.046.085.105.113.175a.738.738 0 0 1 .035.24v.075h-.785c.004.054.007.1.023.14a.212.212 0 0 0 .226.167.27.27 0 0 0 .143-.036.19.19 0 0 0 .078-.12h.295a.45.45 0 0 1-.058.15.419.419 0 0 1-.113.11.514.514 0 0 1-.155.066.72.72 0 0 1-.191.023m.226-.684c-.008-.094-.031-.164-.07-.206a.219.219 0 0 0-.168-.066.211.211 0 0 0-.163.07.322.322 0 0 0-.07.202h.47zm.825-.29a.474.474 0 0 1 .163-.125.39.39 0 0 1 .179-.039c.249 0 .373.133.373.405v.71h-.315v-.687a.254.254 0 0 0-.035-.144c-.02-.035-.058-.05-.116-.05a.242.242 0 0 0-.125.035c-.039.031-.078.062-.112.105v.742h-.32v-1.092h.308v.14zm1.678.818a.472.472 0 0 1-.147.117.478.478 0 0 1-.365.004.345.345 0 0 1-.136-.113.474.474 0 0 1-.085-.178 1.059 1.059 0 0 1-.028-.233c0-.086.012-.168.032-.237a.53.53 0 0 1 .093-.183.428.428 0 0 1 .334-.16.46.46 0 0 1 .167.028.345.345 0 0 1 .124.081v-.497h.315v1.504h-.303v-.133zm-.012-.668a.4.4 0 0 0-.097-.066.278.278 0 0 0-.116-.02.17.17 0 0 0-.156.086.482.482 0 0 0-.058.264c0 .222.066.334.202.334a.203.203 0 0 0 .12-.039.438.438 0 0 0 .105-.105v-.455.001z" fill="#3A3D3F"/><path d="M2.033 17.29l-.078-.066a3.114 3.114 0 0 1-.734-.878 4.59 4.59 0 0 1-.393-.96A4.14 4.14 0 0 1 .67 14.5c-.02-.264-.02-.486.004-.653.05-.447.257-.89.606-1.317a8.018 8.018 0 0 1 1.255-1.217c.494-.389 1.042-.77 1.621-1.128.58-.365 1.155-.71 1.707-1.034.555-.326 1.065-.63 1.515-.906.334-.198.614-.388.828-.563-.031-.008-.062-.008-.097-.016a7.027 7.027 0 0 0-1.178-.02c-.474.024-.952.07-1.426.14a22.72 22.72 0 0 0-1.346.227c-.408.08-.703.159-.886.232l-.132.059-.05-.137a5.901 5.901 0 0 1-.327-1.197 3.603 3.603 0 0 1-.023-.995c.07-.551.28-1.018.63-1.38a3.55 3.55 0 0 1 1.306-.835 6.836 6.836 0 0 1 1.733-.393c.634-.07 1.295-.101 1.979-.09a27.79 27.79 0 0 1 2.028.11c.672.062 1.302.128 1.878.201a.787.787 0 0 1 .264.082.568.568 0 0 1 .24.307c.055.136.082.322.09.567.004.222-.012.513-.058.886.124.156.066.264.16.447.097.175.353.436.42.642.07.217.093.435.066.645-.028.23-.133.435-.307.614-.172.17-.432.319-.8.458-1.37.498-2.485.976-3.312 1.419-.82.447-1.462.855-1.901 1.228-.432.361-.727.684-.871.956-.144.268-.23.486-.249.645-.004.015-.004.035-.004.058a8.354 8.354 0 0 1 2.266-.035c.498.062.976.179 1.419.342.45.168.843.393 1.174.672.33.288.586.634.753 1.034.172.4.222.875.156 1.412a4.816 4.816 0 0 1-.295 1.111l-.05.129-.129-.043a7.655 7.655 0 0 0-1.007-.261 23.211 23.211 0 0 0-1.442-.233 28.577 28.577 0 0 0-1.807-.155 16.682 16.682 0 0 0-1.874 0c-.606.039-1.189.112-1.73.23-.532.112-.987.28-1.348.493l-.085.05v.003zm5.403-9.938c.264 0 .502.011.708.035.078.012.151.027.217.043.07.012.129.027.187.047l.221.077-.17.156c-.25.236-.611.497-1.073.777-.455.272-.964.575-1.524.906a63.55 63.55 0 0 0-1.699 1.03c-.57.354-1.107.727-1.593 1.111-.478.378-.886.77-1.213 1.17-.315.389-.497.786-.547 1.178-.02.148-.02.354-.004.599a4.293 4.293 0 0 0 .525 1.73c.143.267.345.516.59.738a5.051 5.051 0 0 1 1.35-.479 11.37 11.37 0 0 1 1.768-.233 17.313 17.313 0 0 1 1.909 0c.649.035 1.263.09 1.826.16.533.066 1.023.143 1.466.233.365.077.673.151.913.23a4.79 4.79 0 0 0 .233-.926c.058-.485.012-.913-.136-1.267a2.434 2.434 0 0 0-.68-.925 3.547 3.547 0 0 0-1.088-.63 6.339 6.339 0 0 0-1.357-.326 7.656 7.656 0 0 0-1.166-.054c-.392.012-.789.05-1.173.113l-.144.023-.02-.144a1.265 1.265 0 0 1-.003-.272c.027-.198.116-.44.28-.746.163-.3.482-.65.937-1.034.454-.385 1.111-.809 1.95-1.26.84-.45 1.967-.932 3.348-1.438.326-.12.56-.253.699-.388a.767.767 0 0 0 .23-.455 1.21 1.21 0 0 0-.055-.52 3.387 3.387 0 0 0-.23-.537 3.06 3.06 0 0 0-.337-.51l-.043-.046.007-.062c.05-.381.075-.688.067-.902a1.58 1.58 0 0 0-.07-.47c-.044-.113-.09-.152-.11-.164a.457.457 0 0 0-.171-.05 52.441 52.441 0 0 0-1.87-.202 26.435 26.435 0 0 0-2.01-.108 15.743 15.743 0 0 0-1.94.085 6.694 6.694 0 0 0-1.667.381c-.481.183-.885.44-1.2.766-.307.319-.494.727-.556 1.22-.035.276-.027.583.023.921.047.303.132.642.264 1.007.194-.066.458-.132.8-.198.417-.085.875-.163 1.357-.23.486-.074.972-.12 1.454-.147.186-.008.357-.012.52-.012" fill="#ECECEC"/><mask id="mask1_5801_45797" style="mask-type:luminance" maskUnits="userSpaceOnUse" x="0" y="3" width="14" height="14"><path d="M6.44 3.645a6.735 6.735 0 0 0-1.667.381c-.478.183-.887.44-1.201.766-.307.318-.494.727-.556 1.216-.035.276-.023.587.023.921.047.307.136.645.268 1.01.19-.066.455-.132.8-.198.413-.085.872-.163 1.357-.233a15.322 15.322 0 0 1 1.97-.155c.265 0 .498.012.708.035.077.012.155.023.218.043.07.008.132.027.186.046l.226.074-.172.16c-.248.237-.614.501-1.076.777l-1.52.906c-.552.319-1.123.668-1.706 1.026-.568.357-1.104.73-1.59 1.116-.474.377-.887.77-1.213 1.17-.315.388-.497.785-.548 1.177a4.11 4.11 0 0 0-.004.599c.02.253.07.533.152.832.085.299.21.598.373.897.148.264.342.513.59.739.378-.206.833-.37 1.35-.479.555-.116 1.15-.198 1.768-.233a17.35 17.35 0 0 1 1.908 0c.65.036 1.267.09 1.827.16.528.066 1.022.144 1.465.233.366.077.673.151.913.226.117-.327.198-.638.233-.921.059-.486.012-.914-.136-1.268a2.471 2.471 0 0 0-.68-.928 3.58 3.58 0 0 0-1.089-.626 6.145 6.145 0 0 0-1.356-.323 7.767 7.767 0 0 0-1.166-.059 8.99 8.99 0 0 0-1.174.113l-.144.02-.016-.14a.9.9 0 0 1-.004-.272c.024-.199.114-.44.28-.747.164-.299.478-.649.937-1.038.455-.38 1.108-.804 1.947-1.256.84-.45 1.967-.932 3.35-1.441.324-.117.557-.25.7-.389a.75.75 0 0 0 .226-.454c.02-.164 0-.342-.054-.52a3.073 3.073 0 0 0-.568-1.042l-.04-.051.009-.059c.046-.38.07-.688.062-.901-.004-.21-.027-.37-.07-.47-.043-.113-.09-.152-.11-.164a.445.445 0 0 0-.17-.05 60.21 60.21 0 0 0-1.87-.206 29.096 29.096 0 0 0-2.005-.105h-.272c-.576 0-1.135.027-1.671.085" fill="#fff"/></mask><g mask="url(#mask1_5801_45797)"><path d="M13.219 3.559H.932v13.39H13.22V3.559z" fill="url(#paint1_linear_5801_45797)"/></g><path d="M13.14 7.388a.931.931 0 0 0-.047-.42 2.604 2.604 0 0 0-.482-.89l-.059-.07.012-.089c.04-.334.059-.599.055-.785a1.185 1.185 0 0 0-.055-.381c-.03-.082-.058-.101-.058-.101a.457.457 0 0 0-.12-.04 69.71 69.71 0 0 0-1.64-.174 24.637 24.637 0 0 0-1.761-.093 13.28 13.28 0 0 0-1.699.074 5.78 5.78 0 0 0-1.445.33 2.693 2.693 0 0 0-1.022.653c-.264.272-.417.606-.467 1.022a2.87 2.87 0 0 0 .02.79c.034.24.1.505.201.792a7.5 7.5 0 0 1 .63-.155c.373-.07.777-.14 1.2-.202.432-.062.868-.105 1.287-.129.163-.008.319-.011.463-.011a4.969 4.969 0 0 1 .831.065c.062.017.12.032.175.051l.334.108-.257.241c-.225.214-.548.448-.96.696-.404.245-.851.51-1.34.797-.48.28-.985.587-1.494.906-.505.315-.975.637-1.399.972-.416.33-.77.668-1.05 1.018-.267.326-.423.66-.466.991a2.833 2.833 0 0 0 0 .513c.016.217.059.454.129.715.074.257.178.513.319.77.116.21.272.404.462.586a4.29 4.29 0 0 1 1.155-.4 10.77 10.77 0 0 1 1.57-.21 15.265 15.265 0 0 1 1.687 0 21.455 21.455 0 0 1 2.907.35c.288.058.533.116.735.178a3.52 3.52 0 0 0 .17-.719c.055-.412.016-.773-.112-1.072a2.074 2.074 0 0 0-.571-.782 3.015 3.015 0 0 0-.933-.536 5.172 5.172 0 0 0-1.178-.284 6.722 6.722 0 0 0-1.01-.047 7.572 7.572 0 0 0-1.022.097l-.214.035-.027-.217a1.124 1.124 0 0 1-.004-.257c.023-.187.109-.412.256-.688.152-.276.428-.587.844-.937.404-.342.987-.72 1.734-1.12.738-.396 1.733-.823 2.958-1.27.272-.102.466-.21.579-.324a.577.577 0 0 0 .178-.35" fill="#EF3637"/><path d="M3.385 16.45l-.112-.098a2.856 2.856 0 0 1-.664-.8 3.882 3.882 0 0 1-.354-.86 4.028 4.028 0 0 1-.145-.796c-.019-.24-.015-.44.004-.59.05-.413.237-.817.556-1.205.3-.374.676-.739 1.116-1.085.435-.346.917-.68 1.434-.999.513-.323 1.022-.63 1.504-.914.486-.287.933-.548 1.337-.792.207-.129.393-.25.548-.362a6.131 6.131 0 0 0-.894-.008c-.412.02-.831.063-1.252.125-.416.058-.812.124-1.177.198-.354.07-.61.137-.762.202l-.198.082-.078-.202a5.419 5.419 0 0 1-.296-1.07 3.39 3.39 0 0 1-.019-.901c.063-.506.261-.93.58-1.263a3.262 3.262 0 0 1 1.182-.759c.454-.17.975-.291 1.546-.354.56-.058 1.147-.085 1.75-.074.59.008 1.197.04 1.796.098.59.05 1.15.112 1.652.174a.755.755 0 0 1 .268.086.59.59 0 0 1 .248.31c.05.133.078.304.086.53.004.194-.012.443-.047.757a3.306 3.306 0 0 1 .502.956c.066.206.085.409.062.607a.998.998 0 0 1-.299.59c-.155.16-.396.3-.73.42-1.205.44-2.181.859-2.904 1.248-.719.385-1.279.746-1.659 1.069-.373.315-.622.59-.746.816a1.747 1.747 0 0 0-.199.479 8.45 8.45 0 0 1 .828-.066c.361-.012.723.008 1.076.047.443.058.871.16 1.267.31a3.48 3.48 0 0 1 1.062.607c.303.26.532.575.688.94.155.37.202.801.14 1.287a4.178 4.178 0 0 1-.265 1.003l-.074.191-.19-.066a6.642 6.642 0 0 0-.879-.226c-.373-.077-.8-.147-1.263-.206a24.912 24.912 0 0 0-1.582-.136 14.427 14.427 0 0 0-1.64 0c-.529.031-1.034.101-1.508.199-.459.097-.852.24-1.163.423l-.132.078zm4.77-8.94a5.046 5.046 0 0 1 .831.065l.175.048.33.112-.253.24c-.225.21-.551.448-.964.697-.404.24-.847.51-1.337.793-.482.283-.983.59-1.496.905a16.05 16.05 0 0 0-1.396.976c-.416.326-.77.668-1.05 1.018-.268.327-.427.657-.466.992a2.682 2.682 0 0 0 0 .51c.016.217.059.458.129.714.07.257.178.517.319.774.116.21.272.404.462.583a4.43 4.43 0 0 1 1.15-.4 11.38 11.38 0 0 1 1.575-.206 14.277 14.277 0 0 1 1.683 0c.576.03 1.12.077 1.617.14.47.057.906.132 1.294.209.288.058.533.117.735.175a3.65 3.65 0 0 0 .17-.716c.051-.412.013-.773-.112-1.072a2.166 2.166 0 0 0-.57-.785 3.096 3.096 0 0 0-.934-.533 5.233 5.233 0 0 0-1.177-.284 6.735 6.735 0 0 0-1.01-.047 7.512 7.512 0 0 0-1.023.097l-.217.035-.024-.217a.827.827 0 0 1-.004-.26c.024-.184.106-.41.257-.685.148-.28.424-.587.844-.94.404-.343.987-.716 1.733-1.116.739-.397 1.734-.828 2.958-1.271.269-.102.467-.21.58-.323a.577.577 0 0 0 .179-.35c.015-.133 0-.276-.047-.424a2.44 2.44 0 0 0-.194-.45 2.565 2.565 0 0 0-.288-.44l-.058-.07.012-.09c.039-.333.058-.594.054-.78a1.182 1.182 0 0 0-.054-.382c-.035-.081-.059-.1-.059-.1a.459.459 0 0 0-.12-.04 53.435 53.435 0 0 0-1.64-.175 22.612 22.612 0 0 0-1.76-.093 13.368 13.368 0 0 0-1.7.074 5.78 5.78 0 0 0-1.445.33 2.735 2.735 0 0 0-1.026.653c-.26.268-.412.603-.467 1.023-.027.233-.019.501.024.789.035.24.1.506.197.79.168-.048.378-.098.634-.152.373-.074.778-.144 1.201-.202a14.64 14.64 0 0 1 1.286-.128c.164-.008.32-.012.463-.012" fill="#fff"/><path d="M16.367 9.475c0 1.365-1.524 2.43-2.803 2.43-.155 0-.443 0-.443.237 0 .326.408.51.692.51.813 0 1.434-.646 1.8-.646.233 0 .45.249.45.474 0 .603-.758.972-1.22 1.186-.634.284-1.244.455-1.955.455-1.38 0-2.577-.6-2.523-2.115.105-2.351 2.297-3.875 4.354-3.875.894 0 1.648.346 1.648 1.345m-3.265 1.186c0 .136.043.318.202.318.32 0 .871-.84.84-1.379-.015-.148-.081-.35-.26-.35-.466 0-.782 1.05-.782 1.41zM22.3 9.475c0 1.365-1.523 2.43-2.802 2.43-.16 0-.44 0-.44.237 0 .326.405.51.689.51.812 0 1.433-.646 1.795-.646.238 0 .451.249.451.474 0 .6-.754.972-1.216 1.186-.637.284-1.244.455-1.96.455-1.376 0-2.576-.6-2.518-2.115.105-2.351 2.293-3.875 4.353-3.875.89 0 1.648.346 1.648 1.345m-3.264 1.186c0 .136.043.318.202.318.319 0 .87-.84.835-1.379-.012-.148-.078-.35-.26-.35-.463 0-.778 1.05-.778 1.41" fill="#EF3637"/><path d="M41.106 8.409V7.134h.563c.113 0 .198.012.26.035a.271.271 0 0 1 .14.124c.036.054.055.12.055.187 0 .093-.031.17-.09.23-.057.066-.147.1-.271.12a.385.385 0 0 1 .101.062.81.81 0 0 1 .14.17l.222.347h-.21l-.167-.264a3.618 3.618 0 0 0-.125-.179.317.317 0 0 0-.163-.116c-.02-.004-.047-.004-.093-.004h-.195v.563h-.167zm.167-.712h.361a.586.586 0 0 0 .183-.023.208.208 0 0 0 .132-.194.2.2 0 0 0-.066-.147c-.043-.04-.112-.054-.206-.054h-.404v.42-.002z" fill="#19181C"/><path d="M41.6 9.172c-.77 0-1.399-.63-1.399-1.4 0-.77.63-1.399 1.4-1.399.769 0 1.399.626 1.399 1.4 0 .773-.63 1.399-1.4 1.399zm0-2.67a1.268 1.268 0 1 0 0 2.538c.7 0 1.271-.568 1.271-1.268 0-.699-.57-1.27-1.27-1.27z" fill="#19181C"/><path d="M33.506 14.119a4.071 4.071 0 0 1-.346-.634 3.059 3.059 0 0 1-.186-.556 2.206 2.206 0 0 1-.066-.516 3.437 3.437 0 0 1 .03-.517 9.82 9.82 0 0 1 .187-1.01c.09-.366.167-.817.237-1.353.016-.14-.02-.245-.105-.307a.736.736 0 0 0-.201-.093l.458-1.543a.64.64 0 0 0 .591-.68.643.643 0 1 0-1.03.552l-.482 1.632c-.085.004-.175.008-.26.019a3.447 3.447 0 0 0-.082-.342 1.692 1.692 0 0 0-.155-.346 1.004 1.004 0 0 0-.257-.276.824.824 0 0 0-.385-.148 1.71 1.71 0 0 0-1.131.241c-.355.21-.662.494-.93.86-.267.36-.49.773-.668 1.235-.023.062-.043.124-.066.183-.05.24-.12.478-.206.715a4.835 4.835 0 0 0-.082.458 4.29 4.29 0 0 0-.03.832c.018.26.07.494.15.7.082.201.203.369.35.501.152.128.339.21.56.24.125.016.265.016.413.005.151-.016.31-.066.477-.156.167-.093.346-.233.54-.423a5.35 5.35 0 0 0 .634-.797 6.23 6.23 0 0 0-.012.661c.004.199.027.377.066.525a.959.959 0 0 0 .19.37.547.547 0 0 0 .362.17c.167.019.33.023.502.004.163-.02.315-.047.458-.074.156-.035.315-.082.474-.133m-.062-7.51h.019a.34.34 0 0 1 .253.564.338.338 0 1 1-.271-.564m-1.9 4.063a3.241 3.241 0 0 1-.234.89 2.932 2.932 0 0 1-.373.637 1.68 1.68 0 0 1-.39.377c-.128.077-.229.112-.307.105-.066-.012-.105-.062-.12-.156a1.254 1.254 0 0 1 .004-.365 4.14 4.14 0 0 1 .155-.672 5.36 5.36 0 0 1 .296-.765c.12-.257.26-.494.416-.716.155-.225.323-.4.501-.52a3.9 3.9 0 0 1 .078.684c.004.182-.008.35-.027.501m-3.719-1.345a1.464 1.464 0 0 0-.381-.587 1.172 1.172 0 0 0-.637-.291 2.631 2.631 0 0 0-.4-.02c-.14.008-.288.044-.448.109-.16.07-.326.17-.508.311a3.49 3.49 0 0 0-.576.59c.07-.48.078-.835.027-1.049-.058-.217-.218-.346-.482-.385a2.354 2.354 0 0 0-.637.008c-.257.031-.576.082-.949.148.14.222.214.486.222.793.004.31-.02.649-.074 1.014-.046.315-.101.645-.172.991-.07.346-.132.703-.186 1.07-.078.536-.164.99-.253 1.364a31.15 31.15 0 0 1-.272 1.026c-.09.307-.171.602-.248.89-.078.291-.144.61-.195.96-.035.225 0 .392.11.497a.736.736 0 0 0 .427.19 1.9 1.9 0 0 0 .555 0 5.47 5.47 0 0 0 .568-.104c.21-.059.42-.12.63-.195a3.601 3.601 0 0 1-.113-.987 8.58 8.58 0 0 1 .102-1.116c.012-.093.027-.186.039-.288.016-.093.035-.19.058-.283.101.128.229.245.377.35.148.105.326.17.533.205a1.67 1.67 0 0 0 1.08-.205c.334-.195.634-.463.894-.805.26-.346.478-.738.657-1.178.012-.03.023-.07.038-.105.059-.252.14-.505.238-.765a4.558 4.558 0 0 0 .136-1.364 2.842 2.842 0 0 0-.16-.79m-1.823 1.298c-.039.257-.109.54-.21.852a4.508 4.508 0 0 1-.392.867 2.54 2.54 0 0 1-.548.668 1.01 1.01 0 0 1-.692.26l.066-.354c.09-.587.206-1.08.35-1.48.148-.4.3-.72.459-.964.16-.241.31-.416.462-.517.148-.105.276-.148.378-.132.078.012.124.093.147.24.02.156.016.342-.02.56" fill="#A9CF38"/><path d="M39.344 8.65a1.17 1.17 0 0 0-.501-.163 2.559 2.559 0 0 0-.52-.019c-.183.008-.347.02-.502.035-.183.023-.361.05-.533.078.035.077.054.21.062.4.008.187.004.408-.008.661-.015.253-.035.537-.062.848-.027.307-.058.621-.101.936-.163.303-.315.517-.463.65-.147.128-.272.182-.377.17-.16-.019-.276-.175-.346-.466-.07-.292-.07-.692-.007-1.201.039-.315.113-.672.21-1.065.101-.397.237-.824.412-1.283a4.386 4.386 0 0 0-.502-.14 9.305 9.305 0 0 0-.412-.074 2.218 2.218 0 0 0-.622-.004c-.16.027-.284.07-.373.12a.489.489 0 0 0-.214.202c-.027.082-.062.21-.109.37-.039.159-.085.345-.136.56-.046.209-.097.442-.148.695-.05.253-.089.513-.124.778-.05.388-.074.777-.074 1.17-.004.392.047.754.144 1.08.097.323.252.599.466.816.214.222.505.354.875.4.272.032.551-.077.84-.33.287-.256.555-.66.808-1.22l-.145 1.111c-.05.412-.128.759-.225 1.03-.097.272-.202.49-.323.646a.896.896 0 0 1-.388.31.828.828 0 0 1-.424.055 1.11 1.11 0 0 1-.458-.168 2.047 2.047 0 0 1-.7-.676.879.879 0 0 1-.136-.342c-.4.12-.696.253-.886.4-.186.144-.296.315-.319.51-.023.19 0 .361.066.517.074.151.175.284.315.396.136.108.303.202.502.276.198.077.408.124.637.155.361.043.746.035 1.15-.03a3.78 3.78 0 0 0 1.155-.37c.361-.179.68-.423.952-.727.272-.307.451-.68.54-1.112.116-.56.238-1.111.358-1.656.124-.54.237-1.057.346-1.535.105-.485.199-.933.284-1.34.081-.41.143-.766.182-1.066.02-.175-.035-.307-.166-.388" fill="#A9CF38"/></g><defs><linearGradient id="paint0_linear_5801_45797" x1="30.928" y1="3.349" x2="37.923" y2="3.349" gradientUnits="userSpaceOnUse"><stop stop-color="#4DA553"/><stop offset=".9" stop-color="#93C753"/><stop offset="1" stop-color="#9CCC53"/></linearGradient><linearGradient id="paint1_linear_5801_45797" x1=".709" y1="10.125" x2="12.99" y2="10.125" gradientUnits="userSpaceOnUse"><stop stop-color="#4DA553"/><stop offset=".9" stop-color="#93C753"/><stop offset="1" stop-color="#9CCC53"/></linearGradient><clipPath id="clip0_5801_45797"><path fill="#fff" transform="translate(.655)" d="M0 0h42.345v20H0z"/></clipPath></defs></svg>