<svg width="16" height="17" viewBox="0 0 16 17" fill="none" xmlns="http://www.w3.org/2000/svg">
<g clip-path="url(#clip0_276_919)">
<path d="M8 0.125C3.58176 0.125 0 3.70676 0 8.125C0 11.8767 2.58304 15.0248 6.06752 15.8895V10.5698H4.41792V8.125H6.06752V7.07156C6.06752 4.34868 7.29984 3.0866 9.97312 3.0866C10.48 3.0866 11.3546 3.18612 11.7123 3.28532V5.50132C11.5235 5.48148 11.1955 5.47156 10.7882 5.47156C9.47648 5.47156 8.9696 5.96852 8.9696 7.26036V8.125H11.5827L11.1338 10.5698H8.9696V16.0664C12.9309 15.588 16.0003 12.2152 16.0003 8.125C16 3.70676 12.4182 0.125 8 0.125Z" fill="#36A9E1"/>
</g>
<defs>
<clipPath id="clip0_276_919">
<rect width="16" height="16" fill="white" transform="translate(0 0.125)"/>
</clipPath>
</defs>
</svg>
