<svg width="16" height="17" viewBox="0 0 16 17" fill="none" xmlns="http://www.w3.org/2000/svg">
<g clip-path="url(#clip0_276_916)">
<path d="M14.8156 0.125H1.18125C0.528125 0.125 0 0.640625 0 1.27813V14.9688C0 15.6063 0.528125 16.125 1.18125 16.125H14.8156C15.4688 16.125 16 15.6063 16 14.9719V1.27813C16 0.640625 15.4688 0.125 14.8156 0.125ZM4.74687 13.7594H2.37188V6.12187H4.74687V13.7594ZM3.55938 5.08125C2.79688 5.08125 2.18125 4.46562 2.18125 3.70625C2.18125 2.94688 2.79688 2.33125 3.55938 2.33125C4.31875 2.33125 4.93437 2.94688 4.93437 3.70625C4.93437 4.4625 4.31875 5.08125 3.55938 5.08125ZM13.6344 13.7594H11.2625V10.0469C11.2625 9.1625 11.2469 8.02187 10.0281 8.02187C8.79375 8.02187 8.60625 8.9875 8.60625 9.98438V13.7594H6.2375V6.12187H8.5125V7.16563H8.54375C8.85938 6.56563 9.63438 5.93125 10.7875 5.93125C13.1906 5.93125 13.6344 7.5125 13.6344 9.56875V13.7594Z" fill="#36A9E1"/>
</g>
<defs>
<clipPath id="clip0_276_916">
<rect width="16" height="16" fill="white" transform="translate(0 0.125)"/>
</clipPath>
</defs>
</svg>
