<svg width="24" height="24" viewBox="0 0 24 24" fill="none" xmlns="http://www.w3.org/2000/svg"><g id="hourglass-02"><path id="Solid" fill-rule="evenodd" clip-rule="evenodd" d="M15.414 12l1.35-1.35A11.05 11.05 0 0 0 20 2.837 1.837 1.837 0 0 0 18.163 1H5.837A1.837 1.837 0 0 0 4 2.837a11.05 11.05 0 0 0 3.236 7.813L8.586 12l-1.35 1.35A11.05 11.05 0 0 0 4 21.163C4 22.177 4.823 23 5.837 23h12.326A1.837 1.837 0 0 0 20 21.163a11.05 11.05 0 0 0-3.236-7.813L15.414 12zM13 10.999c.176 0 .264 0 .353-.016.135-.025.274-.083.387-.16.075-.052.137-.114.26-.237l1.35-1.35a9.05 9.05 0 0 0 2.473-4.619c.092-.458.138-.687.05-.944a1.11 1.11 0 0 0-.44-.535C17.2 3 16.923 3 16.37 3H7.63c-.552 0-.829 0-1.063.138a1.11 1.11 0 0 0-.44.535c-.088.257-.042.486.05.944a9.05 9.05 0 0 0 2.473 4.62L10 10.585c.122.122.183.183.257.234.114.079.254.137.39.162.089.016.176.016.35.016l2.003.001z" fill="#F7961C"/></g></svg>