<svg width="32" height="32" viewBox="0 0 32 32" fill="none" xmlns="http://www.w3.org/2000/svg"><g id="Hutbel Brand Logos" fill="#fff"><path id="Vector" d="M10.22 20.631c-1.896-1.314-2.826-2.718-2.952-4.1H0V26.75c0 5.44 2.474 6.388 5.782 4.058l9.322-6.683-4.884-3.494z"/><path id="Vector_2" d="M31.995 16.531H8.65c.176 1.201 1.02 2.419 2.668 3.561l14.896 10.716c3.309 2.33 5.8 1.382 5.782-4.058V16.53z"/><path id="Vector_3" d="M26.231 1.21l-9.403 6.742 4.772 3.425c1.877 1.307 2.807 2.701 2.952 4.071H32V5.25c0-5.44-2.474-6.388-5.782-4.057"/><path id="Vector_4" d="M20.697 11.925L5.8 1.209C2.49-1.12 0-.173.018 5.267v10.198h23.36c-.18-1.193-1.029-2.402-2.663-3.54"/></g></svg>