<svg width="24" height="25" viewBox="0 0 24 25" fill="none" xmlns="http://www.w3.org/2000/svg">
<path d="M9 22.5H15C20 22.5 22 20.5 22 15.5V9.5C22 4.5 20 2.5 15 2.5H9C4 2.5 2 4.5 2 9.5V15.5C2 20.5 4 22.5 9 22.5Z" stroke="white" stroke-width="1.5" stroke-linecap="round" stroke-linejoin="round"/>
<path d="M12 16C12.4596 16 12.9148 15.9095 13.3394 15.7336C13.764 15.5577 14.1499 15.2999 14.4749 14.9749C14.7999 14.6499 15.0577 14.264 15.2336 13.8394C15.4095 13.4148 15.5 12.9596 15.5 12.5C15.5 12.0404 15.4095 11.5852 15.2336 11.1606C15.0577 10.736 14.7999 10.3501 14.4749 10.0251C14.1499 9.70012 13.764 9.44231 13.3394 9.26642C12.9148 9.09053 12.4596 9 12 9C11.0717 9 10.1815 9.36875 9.52513 10.0251C8.86875 10.6815 8.5 11.5717 8.5 12.5C8.5 13.4283 8.86875 14.3185 9.52513 14.9749C10.1815 15.6313 11.0717 16 12 16Z" stroke="white" stroke-width="1.5" stroke-linecap="round" stroke-linejoin="round"/>
<path d="M17.636 7.5H17.648" stroke="white" stroke-width="2" stroke-linecap="round" stroke-linejoin="round"/>
</svg>
