<svg width="25" height="25" viewBox="0 0 25 25" fill="none" xmlns="http://www.w3.org/2000/svg">
<path d="M24.5834 17.563C24.5834 21.9613 21.9613 24.5834 17.5629 24.5834H16.125C15.4604 24.5834 14.9167 24.0397 14.9167 23.3751V16.403C14.9167 16.0767 15.1825 15.7988 15.5088 15.7988L17.6354 15.7626C17.8046 15.7505 17.9496 15.6297 17.9859 15.4605L18.4088 13.1526C18.417 13.1003 18.4138 13.0468 18.3993 12.9959C18.3848 12.9449 18.3595 12.8977 18.3251 12.8575C18.2906 12.8173 18.2478 12.7851 18.1997 12.763C18.1516 12.7409 18.0992 12.7295 18.0463 12.7297L15.4725 12.7659C15.1342 12.7659 14.8684 12.5001 14.8563 12.1738L14.8079 9.21341C14.8079 9.02008 14.965 8.85091 15.1704 8.85091L18.0704 8.80258C18.2759 8.80258 18.4329 8.6455 18.4329 8.44008L18.3846 5.54008C18.3846 5.33466 18.2275 5.17758 18.0221 5.17758L14.7596 5.22591C14.2834 5.23315 13.8132 5.33429 13.3761 5.52355C12.939 5.71281 12.5436 5.98647 12.2124 6.32883C11.8813 6.6712 11.621 7.07554 11.4464 7.5187C11.2718 7.96185 11.1864 8.4351 11.195 8.91133L11.2554 12.2342C11.2675 12.5726 11.0017 12.8384 10.6634 12.8505L9.21335 12.8747C9.00794 12.8747 8.85085 13.0317 8.85085 13.2372L8.8871 15.533C8.8871 15.7384 9.04419 15.8955 9.2496 15.8955L10.6996 15.8713C11.0379 15.8713 11.3038 16.1372 11.3159 16.4634L11.4246 23.3509C11.4367 24.0276 10.8929 24.5834 10.2163 24.5834H7.4371C3.03877 24.5834 0.416687 21.9613 0.416687 17.5509V7.43716C0.416687 3.03883 3.03877 0.416748 7.4371 0.416748H17.5629C21.9613 0.416748 24.5834 3.03883 24.5834 7.43716V17.563Z" fill="white"/>
</svg>
