<svg width="30" height="30" viewBox="0 0 30 30" fill="none" xmlns="http://www.w3.org/2000/svg">
<path fill-rule="evenodd" clip-rule="evenodd" d="M15 0.333252C6.89983 0.333252 0.333344 6.89974 0.333344 14.9999C0.333344 23.1001 6.89983 29.6666 15 29.6666C23.1002 29.6666 29.6667 23.1001 29.6667 14.9999C29.6667 6.89974 23.1002 0.333252 15 0.333252ZM21.9428 11.9427C22.4635 11.422 22.4635 10.5778 21.9428 10.0571C21.4221 9.53641 20.5779 9.53641 20.0572 10.0571L13 17.1143L9.94282 14.0571C9.42212 13.5364 8.5779 13.5364 8.0572 14.0571C7.5365 14.5778 7.5365 15.422 8.0572 15.9427L12.0572 19.9427C12.5779 20.4634 13.4221 20.4634 13.9428 19.9427L21.9428 11.9427Z" fill="#082E4D"/>
</svg>
