<svg width="16" height="16" viewBox="0 0 16 16" fill="none" xmlns="http://www.w3.org/2000/svg">
<path fill-rule="evenodd" clip-rule="evenodd" d="M7.99935 0.664062C3.94926 0.664062 0.666016 3.94731 0.666016 7.9974C0.666016 12.0475 3.94926 15.3307 7.99935 15.3307C12.0494 15.3307 15.3327 12.0475 15.3327 7.9974C15.3327 3.94731 12.0494 0.664062 7.99935 0.664062ZM7.99935 4.66406C8.36754 4.66406 8.66602 4.96254 8.66602 5.33073V7.33073H10.666C11.0342 7.33073 11.3327 7.62921 11.3327 7.9974C11.3327 8.36558 11.0342 8.66406 10.666 8.66406H8.66602V10.6641C8.66602 11.0323 8.36754 11.3307 7.99935 11.3307C7.63116 11.3307 7.33268 11.0323 7.33268 10.6641V8.66406H5.33268C4.96449 8.66406 4.66602 8.36558 4.66602 7.9974C4.66602 7.62921 4.96449 7.33073 5.33268 7.33073H7.33268V5.33073C7.33268 4.96254 7.63116 4.66406 7.99935 4.66406Z" fill="#01C7B1"/>
</svg>
