<svg width="32" height="32" viewBox="0 0 32 32" fill="none" xmlns="http://www.w3.org/2000/svg">
<path fill-rule="evenodd" clip-rule="evenodd" d="M16.0007 1.33337C7.90047 1.33337 1.33398 7.89986 1.33398 16C1.33398 24.1002 7.90047 30.6667 16.0007 30.6667C24.1008 30.6667 30.6673 24.1002 30.6673 16C30.6673 7.89986 24.1008 1.33337 16.0007 1.33337ZM16.0007 9.33337C16.737 9.33337 17.334 9.93033 17.334 10.6667V14.6667H21.334C22.0704 14.6667 22.6673 15.2637 22.6673 16C22.6673 16.7364 22.0704 17.3334 21.334 17.3334H17.334V21.3334C17.334 22.0698 16.737 22.6667 16.0007 22.6667C15.2643 22.6667 14.6673 22.0698 14.6673 21.3334V17.3334H10.6673C9.93094 17.3334 9.33398 16.7364 9.33398 16C9.33398 15.2637 9.93094 14.6667 10.6673 14.6667H14.6673V10.6667C14.6673 9.93033 15.2643 9.33337 16.0007 9.33337Z" fill="#FF6900"/>
</svg>
