<svg width="16" height="17" viewBox="0 0 16 17" fill="none" xmlns="http://www.w3.org/2000/svg">
<path fill-rule="evenodd" clip-rule="evenodd" d="M8.00004 0.708496C3.69682 0.708496 0.208374 4.19694 0.208374 8.50016C0.208374 12.8034 3.69682 16.2918 8.00004 16.2918C12.3033 16.2918 15.7917 12.8034 15.7917 8.50016C15.7917 4.19694 12.3033 0.708496 8.00004 0.708496ZM8.70837 5.66683C8.70837 5.27563 8.39124 4.9585 8.00004 4.9585C7.60884 4.9585 7.29171 5.27563 7.29171 5.66683V8.50016C7.29171 8.89136 7.60884 9.2085 8.00004 9.2085C8.39124 9.2085 8.70837 8.89136 8.70837 8.50016V5.66683ZM8.00004 10.6252C7.60884 10.6252 7.29171 10.9423 7.29171 11.3335C7.29171 11.7247 7.60884 12.0418 8.00004 12.0418H8.00712C8.39833 12.0418 8.71546 11.7247 8.71546 11.3335C8.71546 10.9423 8.39833 10.6252 8.00712 10.6252H8.00004Z" fill="#ED1B2E"/>
</svg>
