<svg width="17" height="16" viewBox="0 0 17 16" fill="none" xmlns="http://www.w3.org/2000/svg">
<path d="M8.49998 14.8333H15.625M1.375 14.8333H2.70068C3.08795 14.8333 3.28158 14.8333 3.4638 14.7896C3.62536 14.7508 3.77981 14.6868 3.92147 14.6C4.08126 14.5021 4.21818 14.3652 4.49202 14.0913L14.4375 4.14584C15.0934 3.49 15.0934 2.42668 14.4375 1.77084C13.7817 1.115 12.7184 1.115 12.0625 1.77084L2.117 11.7163C1.84316 11.9902 1.70624 12.1271 1.60832 12.2869C1.52151 12.4286 1.45753 12.583 1.41875 12.7446C1.375 12.9268 1.375 13.1204 1.375 13.5077V14.8333Z" stroke="#FF6900" stroke-width="2" stroke-linecap="round" stroke-linejoin="round"/>
</svg>
