<svg width="343" height="1249" viewBox="0 0 343 1249" fill="none" xmlns="http://www.w3.org/2000/svg">
<mask id="path-1-inside-1_7843_270845" fill="white">
<path fill-rule="evenodd" clip-rule="evenodd" d="M0 7.99999C0 3.58171 3.58172 0 8 0H335C339.418 0 343 3.58172 343 8V550.178C330.607 551.66 321 562.208 321 575C321 587.792 330.607 598.34 343 599.822V1241C343 1245.42 339.418 1249 335 1249H7.99999C3.58172 1249 0 1245.42 0 1241V600C13.8071 600 25 588.807 25 575C25 561.193 13.8071 550 0 550V7.99999Z"/>
</mask>
<path fill-rule="evenodd" clip-rule="evenodd" d="M0 7.99999C0 3.58171 3.58172 0 8 0H335C339.418 0 343 3.58172 343 8V550.178C330.607 551.66 321 562.208 321 575C321 587.792 330.607 598.34 343 599.822V1241C343 1245.42 339.418 1249 335 1249H7.99999C3.58172 1249 0 1245.42 0 1241V600C13.8071 600 25 588.807 25 575C25 561.193 13.8071 550 0 550V7.99999Z" fill="white"/>
<path d="M343 550.178L343.119 551.171L344 551.066V550.178H343ZM343 599.822H344V598.934L343.119 598.829L343 599.822ZM0 600V599H-1V600H0ZM0 550H-1V551H0V550ZM8 -1C3.02944 -1 -1 3.02942 -1 7.99999H1C1 4.134 4.13401 1 8 1V-1ZM335 -1H8V1H335V-1ZM344 8C344 3.02944 339.971 -1 335 -1V1C338.866 1 342 4.13401 342 8H344ZM344 550.178V8H342V550.178H344ZM322 575C322 562.721 331.223 552.594 343.119 551.171L342.881 549.185C329.992 550.727 320 561.696 320 575H322ZM343.119 598.829C331.223 597.406 322 587.279 322 575H320C320 588.304 329.992 599.273 342.881 600.815L343.119 598.829ZM344 1241V599.822H342V1241H344ZM335 1250C339.971 1250 344 1245.97 344 1241H342C342 1244.87 338.866 1248 335 1248V1250ZM7.99999 1250H335V1248H7.99999V1250ZM-1 1241C-1 1245.97 3.02943 1250 7.99999 1250V1248C4.134 1248 1 1244.87 1 1241H-1ZM-1 600V1241H1V600H-1ZM24 575C24 588.255 13.2548 599 0 599V601C14.3594 601 26 589.359 26 575H24ZM0 551C13.2548 551 24 561.745 24 575H26C26 560.641 14.3594 549 0 549V551ZM-1 7.99999V550H1V7.99999H-1Z" fill="#E6EAED" mask="url(#path-1-inside-1_7843_270845)"/>
<line x1="18.5" y1="86.8223" x2="323.5" y2="86.8223" stroke="#E6EAED" stroke-linecap="round" stroke-dasharray="5 5"/>
<line x1="18.5" y1="393.5" x2="323.5" y2="393.5" stroke="#E6EAED" stroke-linecap="round" stroke-dasharray="5 5"/>
<line x1="18.5" y1="543.5" x2="323.5" y2="543.5" stroke="#E6EAED" stroke-linecap="round" stroke-dasharray="5 5"/>
</svg>
