<svg width="32" height="32" viewBox="0 0 32 32" fill="none" xmlns="http://www.w3.org/2000/svg">
<path d="M0 8C0 3.58172 3.58172 0 8 0H24C28.4183 0 32 3.58172 32 8V24C32 28.4183 28.4183 32 24 32H8C3.58172 32 0 28.4183 0 24V8Z" fill="#FFECEE"/>
<path d="M10.25 7C8.46403 7 7 8.46403 7 10.25V21.75C7 23.536 8.46403 25 10.25 25H21.75C23.536 25 25 23.536 25 21.75V10.25C25 8.46403 23.536 7 21.75 7H10.25ZM10.25 8.5H21.75C22.725 8.5 23.5 9.27497 23.5 10.25V11H8.5V10.25C8.5 9.27497 9.27497 8.5 10.25 8.5ZM8.5 12.5H23.5V21.75C23.5 22.725 22.725 23.5 21.75 23.5H10.25C9.27497 23.5 8.5 22.725 8.5 21.75V12.5ZM11.75 14.5C11.4185 14.5 11.1005 14.6317 10.8661 14.8661C10.6317 15.1005 10.5 15.4185 10.5 15.75C10.5 16.0815 10.6317 16.3995 10.8661 16.6339C11.1005 16.8683 11.4185 17 11.75 17C12.0815 17 12.3995 16.8683 12.6339 16.6339C12.8683 16.3995 13 16.0815 13 15.75C13 15.4185 12.8683 15.1005 12.6339 14.8661C12.3995 14.6317 12.0815 14.5 11.75 14.5ZM16 14.5C15.6685 14.5 15.3505 14.6317 15.1161 14.8661C14.8817 15.1005 14.75 15.4185 14.75 15.75C14.75 16.0815 14.8817 16.3995 15.1161 16.6339C15.3505 16.8683 15.6685 17 16 17C16.3315 17 16.6495 16.8683 16.8839 16.6339C17.1183 16.3995 17.25 16.0815 17.25 15.75C17.25 15.4185 17.1183 15.1005 16.8839 14.8661C16.6495 14.6317 16.3315 14.5 16 14.5ZM20.25 14.5C19.9185 14.5 19.6005 14.6317 19.3661 14.8661C19.1317 15.1005 19 15.4185 19 15.75C19 16.0815 19.1317 16.3995 19.3661 16.6339C19.6005 16.8683 19.9185 17 20.25 17C20.5815 17 20.8995 16.8683 21.1339 16.6339C21.3683 16.3995 21.5 16.0815 21.5 15.75C21.5 15.4185 21.3683 15.1005 21.1339 14.8661C20.8995 14.6317 20.5815 14.5 20.25 14.5ZM11.75 19C11.4185 19 11.1005 19.1317 10.8661 19.3661C10.6317 19.6005 10.5 19.9185 10.5 20.25C10.5 20.5815 10.6317 20.8995 10.8661 21.1339C11.1005 21.3683 11.4185 21.5 11.75 21.5C12.0815 21.5 12.3995 21.3683 12.6339 21.1339C12.8683 20.8995 13 20.5815 13 20.25C13 19.9185 12.8683 19.6005 12.6339 19.3661C12.3995 19.1317 12.0815 19 11.75 19ZM16 19C15.6685 19 15.3505 19.1317 15.1161 19.3661C14.8817 19.6005 14.75 19.9185 14.75 20.25C14.75 20.5815 14.8817 20.8995 15.1161 21.1339C15.3505 21.3683 15.6685 21.5 16 21.5C16.3315 21.5 16.6495 21.3683 16.8839 21.1339C17.1183 20.8995 17.25 20.5815 17.25 20.25C17.25 19.9185 17.1183 19.6005 16.8839 19.3661C16.6495 19.1317 16.3315 19 16 19Z" fill="#F70378"/>
</svg>
