<svg width="30" height="30" viewBox="0 0 30 30" fill="none" xmlns="http://www.w3.org/2000/svg">
<path fill-rule="evenodd" clip-rule="evenodd" d="M15.0002 0.333008C6.89999 0.333008 0.333496 6.8995 0.333496 14.9997C0.333496 23.0998 6.89999 29.6663 15.0002 29.6663C23.1003 29.6663 29.6668 23.0998 29.6668 14.9997C29.6668 6.8995 23.1003 0.333008 15.0002 0.333008ZM15.0002 8.33301C15.7365 8.33301 16.3335 8.92996 16.3335 9.66634V13.6663H20.3335C21.0699 13.6663 21.6668 14.2633 21.6668 14.9997C21.6668 15.7361 21.0699 16.333 20.3335 16.333H16.3335V20.333C16.3335 21.0694 15.7365 21.6663 15.0002 21.6663C14.2638 21.6663 13.6668 21.0694 13.6668 20.333V16.333H9.66683C8.93045 16.333 8.3335 15.7361 8.3335 14.9997C8.3335 14.2633 8.93045 13.6663 9.66683 13.6663H13.6668V9.66634C13.6668 8.92996 14.2638 8.33301 15.0002 8.33301Z" fill="#F70378"/>
</svg>
