<svg width="29" height="26" viewBox="0 0 29 26" fill="none" xmlns="http://www.w3.org/2000/svg">
<path d="M23.8337 25V17M19.8337 21H27.8337M14.5003 17H9.16699C6.68197 17 5.43946 17 4.45935 17.406C3.15253 17.9473 2.11427 18.9855 1.57297 20.2924C1.16699 21.2725 1.16699 22.515 1.16699 25M19.167 1.38768C21.1215 2.17886 22.5003 4.09508 22.5003 6.33333C22.5003 8.57159 21.1215 10.4878 19.167 11.279M16.5003 6.33333C16.5003 9.27885 14.1125 11.6667 11.167 11.6667C8.22147 11.6667 5.83366 9.27885 5.83366 6.33333C5.83366 3.38781 8.22147 1 11.167 1C14.1125 1 16.5003 3.38781 16.5003 6.33333Z" stroke="#E1005C" stroke-width="2" stroke-linecap="round" stroke-linejoin="round"/>
</svg>
