<svg width="18" height="21" viewBox="0 0 18 21" fill="none" xmlns="http://www.w3.org/2000/svg">
<path d="M6 9L8 11L12.5 6.5M17 19.5V6.3C17 4.61984 17 3.77976 16.673 3.13803C16.3854 2.57354 15.9265 2.1146 15.362 1.82698C14.7202 1.5 13.8802 1.5 12.2 1.5H5.8C4.11984 1.5 3.27976 1.5 2.63803 1.82698C2.07354 2.1146 1.6146 2.57354 1.32698 3.13803C1 3.77976 1 4.61984 1 6.3V19.5L3.75 17.5L6.25 19.5L9 17.5L11.75 19.5L14.25 17.5L17 19.5Z" stroke="#F70378" stroke-width="2" stroke-linecap="round" stroke-linejoin="round"/>
</svg>
