<svg width="29" height="30" viewBox="0 0 29 30" fill="none" xmlns="http://www.w3.org/2000/svg">
<path d="M9.83366 18.5554C9.83366 20.2736 11.2266 21.6665 12.9448 21.6665H15.8337C17.6746 21.6665 19.167 20.1741 19.167 18.3332C19.167 16.4922 17.6746 14.9998 15.8337 14.9998H13.167C11.326 14.9998 9.83366 13.5075 9.83366 11.6665C9.83366 9.82556 11.326 8.33317 13.167 8.33317H16.0559C17.7741 8.33317 19.167 9.72606 19.167 11.4443M14.5003 6.33317V8.33317M14.5003 21.6665V23.6665M27.8337 14.9998C27.8337 22.3636 21.8641 28.3332 14.5003 28.3332C7.13653 28.3332 1.16699 22.3636 1.16699 14.9998C1.16699 7.63604 7.13653 1.6665 14.5003 1.6665C21.8641 1.6665 27.8337 7.63604 27.8337 14.9998Z" stroke="#E1005C" stroke-width="2" stroke-linecap="round" stroke-linejoin="round"/>
</svg>
