<svg width="29" height="26" viewBox="0 0 29 26" fill="none" xmlns="http://www.w3.org/2000/svg">
<path d="M25.8337 7.66667V18.6C25.8337 20.8402 25.8337 21.9603 25.3977 22.816C25.0142 23.5686 24.4023 24.1805 23.6496 24.564C22.794 25 21.6739 25 19.4337 25H9.56699C7.32678 25 6.20668 25 5.35103 24.564C4.59838 24.1805 3.98646 23.5686 3.60297 22.816C3.16699 21.9603 3.16699 20.8402 3.16699 18.6V7.66667M3.30033 1H25.7003C26.4471 1 26.8204 1 27.1056 1.14532C27.3565 1.27316 27.5605 1.47713 27.6883 1.72801C27.8337 2.01323 27.8337 2.3866 27.8337 3.13333V5.53333C27.8337 6.28007 27.8337 6.65344 27.6883 6.93865C27.5605 7.18954 27.3565 7.39351 27.1056 7.52134C26.8204 7.66667 26.4471 7.66667 25.7003 7.66667H3.30033C2.55359 7.66667 2.18022 7.66667 1.895 7.52134C1.64412 7.39351 1.44015 7.18954 1.31232 6.93865C1.16699 6.65344 1.16699 6.28007 1.16699 5.53333V3.13333C1.16699 2.3866 1.16699 2.01323 1.31232 1.72801C1.44015 1.47713 1.64412 1.27316 1.895 1.14532C2.18022 1 2.55359 1 3.30033 1ZM11.3003 12.3333H17.7003C18.4471 12.3333 18.8204 12.3333 19.1056 12.4787C19.3565 12.6065 19.5605 12.8105 19.6883 13.0613C19.8337 13.3466 19.8337 13.7199 19.8337 14.4667V15.5333C19.8337 16.2801 19.8337 16.6534 19.6883 16.9387C19.5605 17.1895 19.3565 17.3935 19.1056 17.5213C18.8204 17.6667 18.4471 17.6667 17.7003 17.6667H11.3003C10.5536 17.6667 10.1802 17.6667 9.89501 17.5213C9.64412 17.3935 9.44015 17.1895 9.31232 16.9387C9.16699 16.6534 9.16699 16.2801 9.16699 15.5333V14.4667C9.16699 13.7199 9.16699 13.3466 9.31232 13.0613C9.44015 12.8105 9.64412 12.6065 9.89501 12.4787C10.1802 12.3333 10.5536 12.3333 11.3003 12.3333Z" stroke="#E1005C" stroke-width="2" stroke-linecap="round" stroke-linejoin="round"/>
</svg>
