<svg width="44" height="41" viewBox="0 0 44 41" fill="none" xmlns="http://www.w3.org/2000/svg">
<path d="M34.5 28.4935C37.5332 30.0172 40.1336 32.4624 42.0318 35.5201C42.4077 36.1256 42.5956 36.4283 42.6606 36.8476C42.7926 37.6995 42.21 38.7469 41.4166 39.0841C41.0261 39.25 40.5869 39.25 39.7084 39.25M30.3334 19.5255C33.4203 17.9914 35.5417 14.806 35.5417 11.125C35.5417 7.44404 33.4203 4.25856 30.3334 2.7245M26.1667 11.125C26.1667 16.3027 21.9694 20.5 16.7917 20.5C11.614 20.5 7.41669 16.3027 7.41669 11.125C7.41669 5.94733 11.614 1.75 16.7917 1.75C21.9694 1.75 26.1667 5.94733 26.1667 11.125ZM2.33176 34.9549C5.65323 29.9678 10.8946 26.75 16.7917 26.75C22.6888 26.75 27.9302 29.9678 31.2516 34.9549C31.9793 36.0474 32.3431 36.5937 32.3012 37.2915C32.2686 37.8348 31.9124 38.5 31.4783 38.8283C30.9207 39.25 30.1538 39.25 28.6201 39.25H4.96327C3.42955 39.25 2.66269 39.25 2.10511 38.8283C1.67096 38.5 1.31479 37.8348 1.28218 37.2915C1.24029 36.5937 1.60411 36.0474 2.33176 34.9549Z" stroke="#F70378" stroke-width="2" stroke-linecap="round" stroke-linejoin="round"/>
</svg>
