<svg width="46" height="41" viewBox="0 0 46 41" fill="none" xmlns="http://www.w3.org/2000/svg">
<path d="M25.0832 5.91667C25.0832 8.21785 19.9531 10.0833 13.6248 10.0833C7.29657 10.0833 2.1665 8.21785 2.1665 5.91667M25.0832 5.91667C25.0832 3.61548 19.9531 1.75 13.6248 1.75C7.29657 1.75 2.1665 3.61548 2.1665 5.91667M25.0832 5.91667V15.2024C22.5384 15.9666 20.9165 17.1228 20.9165 18.4167M2.1665 5.91667V30.9167C2.1665 33.2179 7.29657 35.0833 13.6248 35.0833C16.3949 35.0833 18.9354 34.7259 20.9165 34.1309V18.4167M2.1665 14.25C2.1665 16.5512 7.29657 18.4167 13.6248 18.4167C16.3949 18.4167 18.9354 18.0592 20.9165 17.4643M2.1665 22.5833C2.1665 24.8845 7.29657 26.75 13.6248 26.75C16.3949 26.75 18.9354 26.3926 20.9165 25.7976M43.8332 18.4167C43.8332 20.7179 38.7031 22.5833 32.3748 22.5833C26.0466 22.5833 20.9165 20.7179 20.9165 18.4167M43.8332 18.4167C43.8332 16.1155 38.7031 14.25 32.3748 14.25C26.0466 14.25 20.9165 16.1155 20.9165 18.4167M43.8332 18.4167V35.0833C43.8332 37.3845 38.7031 39.25 32.3748 39.25C26.0466 39.25 20.9165 37.3845 20.9165 35.0833V18.4167M43.8332 26.75C43.8332 29.0512 38.7031 30.9167 32.3748 30.9167C26.0466 30.9167 20.9165 29.0512 20.9165 26.75" stroke="#F70378" stroke-width="3" stroke-linecap="round" stroke-linejoin="round"/>
</svg>
