<svg width="24" height="24" viewBox="0 0 24 24" fill="none" xmlns="http://www.w3.org/2000/svg">
<g clip-path="url(#clip0_7163_76695)">
<path d="M12 5.44062C14.1375 5.44062 14.3906 5.45 15.2313 5.4875C16.0125 5.52187 16.4344 5.65313 16.7156 5.7625C17.0875 5.90625 17.3563 6.08125 17.6344 6.35938C17.9156 6.64062 18.0875 6.90625 18.2313 7.27813C18.3406 7.55938 18.4719 7.98438 18.5063 8.7625C18.5438 9.60625 18.5531 9.85938 18.5531 11.9938C18.5531 14.1313 18.5438 14.3844 18.5063 15.225C18.4719 16.0063 18.3406 16.4281 18.2313 16.7094C18.0875 17.0813 17.9125 17.35 17.6344 17.6281C17.3531 17.9094 17.0875 18.0813 16.7156 18.225C16.4344 18.3344 16.0094 18.4656 15.2313 18.5C14.3875 18.5375 14.1344 18.5469 12 18.5469C9.8625 18.5469 9.60938 18.5375 8.76875 18.5C7.9875 18.4656 7.56563 18.3344 7.28438 18.225C6.9125 18.0813 6.64375 17.9063 6.36563 17.6281C6.08438 17.3469 5.9125 17.0813 5.76875 16.7094C5.65938 16.4281 5.52813 16.0031 5.49375 15.225C5.45625 14.3813 5.44688 14.1281 5.44688 11.9938C5.44688 9.85625 5.45625 9.60313 5.49375 8.7625C5.52813 7.98125 5.65938 7.55938 5.76875 7.27813C5.9125 6.90625 6.0875 6.6375 6.36563 6.35938C6.64688 6.07812 6.9125 5.90625 7.28438 5.7625C7.56563 5.65313 7.99063 5.52187 8.76875 5.4875C9.60938 5.45 9.8625 5.44062 12 5.44062ZM12 4C9.82813 4 9.55625 4.00937 8.70313 4.04688C7.85313 4.08438 7.26875 4.22187 6.7625 4.41875C6.23438 4.625 5.7875 4.89688 5.34375 5.34375C4.89688 5.7875 4.625 6.23438 4.41875 6.75938C4.22187 7.26875 4.08438 7.85 4.04688 8.7C4.00938 9.55625 4 9.82812 4 12C4 14.1719 4.00938 14.4438 4.04688 15.2969C4.08438 16.1469 4.22187 16.7313 4.41875 17.2375C4.625 17.7656 4.89688 18.2125 5.34375 18.6562C5.7875 19.1 6.23438 19.375 6.75938 19.5781C7.26875 19.775 7.85 19.9125 8.7 19.95C9.55313 19.9875 9.825 19.9969 11.9969 19.9969C14.1688 19.9969 14.4406 19.9875 15.2938 19.95C16.1438 19.9125 16.7281 19.775 17.2344 19.5781C17.7594 19.375 18.2063 19.1 18.65 18.6562C19.0938 18.2125 19.3688 17.7656 19.5719 17.2406C19.7688 16.7313 19.9063 16.15 19.9438 15.3C19.9813 14.4469 19.9906 14.175 19.9906 12.0031C19.9906 9.83125 19.9813 9.55938 19.9438 8.70625C19.9063 7.85625 19.7688 7.27188 19.5719 6.76562C19.375 6.23438 19.1031 5.7875 18.6563 5.34375C18.2125 4.9 17.7656 4.625 17.2406 4.42188C16.7313 4.225 16.15 4.0875 15.3 4.05C14.4438 4.00938 14.1719 4 12 4Z" fill="#F70378"/>
<path d="M12 7.89062C9.73125 7.89062 7.89062 9.73125 7.89062 12C7.89062 14.2688 9.73125 16.1094 12 16.1094C14.2688 16.1094 16.1094 14.2688 16.1094 12C16.1094 9.73125 14.2688 7.89062 12 7.89062ZM12 14.6656C10.5281 14.6656 9.33437 13.4719 9.33437 12C9.33437 10.5281 10.5281 9.33437 12 9.33437C13.4719 9.33437 14.6656 10.5281 14.6656 12C14.6656 13.4719 13.4719 14.6656 12 14.6656Z" fill="#F70378"/>
<path d="M17.2312 7.72793C17.2312 8.25918 16.8 8.68731 16.2719 8.68731C15.7406 8.68731 15.3125 8.25606 15.3125 7.72793C15.3125 7.19668 15.7438 6.76855 16.2719 6.76855C16.8 6.76855 17.2312 7.19981 17.2312 7.72793Z" fill="#F70378"/>
</g>
<defs>
<clipPath id="clip0_7163_76695">
<rect width="16" height="16" fill="white" transform="translate(4 4)"/>
</clipPath>
</defs>
</svg>
