<svg width="44" height="45" viewBox="0 0 44 45" fill="none" xmlns="http://www.w3.org/2000/svg">
<path d="M7.41631 26.667H34.7824C36.8924 26.667 37.9475 26.667 38.7874 26.2736C39.5272 25.927 40.1489 25.3706 40.575 24.6736C41.0588 23.8823 41.1753 22.8337 41.4083 20.7365L42.627 9.76771C42.6982 9.12716 42.7338 8.80689 42.6308 8.55899C42.5403 8.34127 42.3787 8.16068 42.1723 8.04673C41.9373 7.91699 41.6151 7.91699 40.9706 7.91699H6.37464M1.16602 1.66699H3.76693C4.31823 1.66699 4.59388 1.66699 4.80953 1.77183C4.99939 1.86413 5.15672 2.01194 5.26068 2.19566C5.37877 2.40436 5.39596 2.67947 5.43035 3.2297L7.31835 33.4376C7.35274 33.9878 7.36993 34.263 7.48802 34.4717C7.59198 34.6554 7.74931 34.8032 7.93917 34.8955C8.15482 35.0003 8.43047 35.0003 8.98177 35.0003H36.5827M12.6243 42.292H12.6452M31.3743 42.292H31.3952M13.666 42.292C13.666 42.8673 13.1996 43.3337 12.6243 43.3337C12.0491 43.3337 11.5827 42.8673 11.5827 42.292C11.5827 41.7167 12.0491 41.2503 12.6243 41.2503C13.1996 41.2503 13.666 41.7167 13.666 42.292ZM32.416 42.292C32.416 42.8673 31.9496 43.3337 31.3743 43.3337C30.7991 43.3337 30.3327 42.8673 30.3327 42.292C30.3327 41.7167 30.7991 41.2503 31.3743 41.2503C31.9496 41.2503 32.416 41.7167 32.416 42.292Z" stroke="#FF6900" stroke-width="2" stroke-linecap="round" stroke-linejoin="round"/>
</svg>
