<svg width="22" height="22" viewBox="0 0 22 22" fill="none" xmlns="http://www.w3.org/2000/svg">
<path fill-rule="evenodd" clip-rule="evenodd" d="M7.52293 0.000191081L7.47189 9.90519e-05C7.28198 -0.000408184 7.04285 -0.00104679 6.80751 0.0554513C6.60344 0.104445 6.40835 0.185253 6.22941 0.294911C6.02305 0.421364 5.85441 0.590911 5.72048 0.725557L5.68445 0.761714L0.761713 5.68446L0.725559 5.72048C0.590913 5.85441 0.421365 6.02305 0.294911 6.22941C0.185253 6.40835 0.104445 6.60344 0.0554513 6.80751C-0.00104679 7.04285 -0.000408184 7.28198 9.90519e-05 7.47189L0.000191081 7.52293V14.4774L9.90519e-05 14.5285C-0.000408184 14.7184 -0.00104679 14.9575 0.0554513 15.1929C0.104445 15.3969 0.185253 15.592 0.294911 15.771C0.421366 15.9773 0.590916 16.146 0.725563 16.2799L0.761714 16.3159L5.68446 21.2387L5.72049 21.2748C5.85442 21.4095 6.02306 21.579 6.22941 21.7055C6.40835 21.8151 6.60344 21.8959 6.80751 21.9449C7.04285 22.0014 7.28199 22.0008 7.4719 22.0003L7.52293 22.0002H14.4774L14.5285 22.0003C14.7184 22.0008 14.9575 22.0014 15.1929 21.9449C15.3969 21.8959 15.592 21.8151 15.771 21.7055C15.9773 21.579 16.146 21.4095 16.2799 21.2748L16.3159 21.2387L21.2387 16.3159L21.2748 16.2799C21.4095 16.146 21.579 15.9773 21.7055 15.771C21.8151 15.592 21.8959 15.3969 21.9449 15.1929C22.0014 14.9575 22.0008 14.7184 22.0003 14.5285L22.0002 14.4774V7.52293L22.0003 7.4719C22.0008 7.28199 22.0014 7.04285 21.9449 6.80751C21.8959 6.60344 21.8151 6.40835 21.7055 6.22941C21.579 6.02306 21.4095 5.85442 21.2748 5.72049L21.2387 5.68445L16.3159 0.761713L16.2799 0.725559C16.146 0.590913 15.9773 0.421365 15.771 0.294911C15.592 0.185253 15.3969 0.104445 15.1929 0.0554513C14.9575 -0.00104679 14.7184 -0.000408184 14.5285 9.90519e-05L14.4774 0.000191081H7.52293ZM12.0002 7.00024C12.0002 6.44796 11.5525 6.00024 11.0002 6.00024C10.448 6.00024 10.0002 6.44796 10.0002 7.00024V11.0002C10.0002 11.5525 10.448 12.0002 11.0002 12.0002C11.5525 12.0002 12.0002 11.5525 12.0002 11.0002V7.00024ZM11.0002 14.0002C10.448 14.0002 10.0002 14.448 10.0002 15.0002C10.0002 15.5525 10.448 16.0002 11.0002 16.0002H11.0102C11.5625 16.0002 12.0102 15.5525 12.0102 15.0002C12.0102 14.448 11.5625 14.0002 11.0102 14.0002H11.0002Z" fill="#ED1B2E"/>
</svg>
