<svg width="13" height="13" viewBox="0 0 13 13" fill="none" xmlns="http://www.w3.org/2000/svg">
<path fill-rule="evenodd" clip-rule="evenodd" d="M5.74079 0.799658C5.96503 0.627054 6.2332 0.54095 6.5013 0.541016C6.76941 0.54095 7.03757 0.627054 7.26181 0.799658L7.89752 1.28778L8.69421 1.18295C9.25487 1.10906 9.79424 1.42148 10.0105 1.94284L10.3166 2.68421L11.0568 2.98983L11.0579 2.99027C11.5793 3.20658 11.8916 3.74624 11.8177 4.30687L11.713 5.10287L12.2014 5.73899C12.3304 5.90705 12.4112 6.09988 12.4435 6.29892C12.467 6.44406 12.4648 6.59249 12.4368 6.73704C12.4009 6.92284 12.3223 7.10216 12.2014 7.25971L11.713 7.89583L11.8177 8.69183C11.8916 9.25246 11.5793 9.79211 11.0579 10.0084L11.0568 10.0089L10.3166 10.3145L10.0105 11.0559C9.79424 11.5772 9.25487 11.8896 8.69421 11.8158L7.89752 11.7109L7.26181 12.199C7.03757 12.3716 6.76941 12.4577 6.5013 12.4577C6.2332 12.4577 5.96503 12.3716 5.74079 12.199L5.10508 11.7109L4.30839 11.8158C3.74773 11.8896 3.20837 11.5772 2.99208 11.0559L2.68603 10.3145L1.94577 10.0089L1.94472 10.0084C1.42335 9.79211 1.11103 9.25246 1.1849 8.69183L1.28963 7.89583L0.801247 7.25971C0.660766 7.07677 0.577519 6.86448 0.551685 6.64677C0.514214 6.33112 0.597583 6.0042 0.801247 5.73899L1.28963 5.10287L1.1849 4.30687C1.11103 3.74624 1.42335 3.20658 1.94472 2.99027L1.94577 2.98983L2.68603 2.68421L2.99208 1.94284C3.20837 1.42148 3.74773 1.10906 4.30839 1.18295L5.10508 1.28778L5.74079 0.799658ZM8.78015 5.5282C8.99168 5.31666 8.99168 4.9737 8.78015 4.76217C8.56862 4.55063 8.22565 4.55063 8.01412 4.76217L5.95963 6.81665L5.25932 6.11633C5.04778 5.9048 4.70482 5.9048 4.49329 6.11633C4.28175 6.32787 4.28175 6.67083 4.49329 6.88237L5.57662 7.9657C5.78815 8.17723 6.13112 8.17723 6.34265 7.9657L8.78015 5.5282Z" fill="white"/>
</svg>
