<svg width="62" height="63" viewBox="0 0 62 63" fill="none" xmlns="http://www.w3.org/2000/svg">
<g clip-path="url(#clip0_2336_1586)">
<path d="M60.3246 0H1.67539C0.750099 0 0 0.750097 0 1.67539V61.3246C0 62.2499 0.7501 63 1.67539 63H60.3246C61.2499 63 62 62.2499 62 61.3246V1.67539C62 0.750099 61.2499 0 60.3246 0Z" fill="white"/>
<path d="M6.97347 5.27747H5.19373V7.08591H6.97347V5.27747Z" fill="black"/>
<path d="M8.75321 5.27747H6.97347V7.08591H8.75321V5.27747Z" fill="black"/>
<path d="M10.533 5.27747H8.75321V7.08591H10.533V5.27747Z" fill="black"/>
<path d="M12.3127 5.27747H10.533V7.08591H12.3127V5.27747Z" fill="black"/>
<path d="M14.0924 5.27747H12.3127V7.08591H14.0924V5.27747Z" fill="black"/>
<path d="M15.8722 5.27747H14.0924V7.08591H15.8722V5.27747Z" fill="black"/>
<path d="M17.6519 5.27747H15.8722V7.08591H17.6519V5.27747Z" fill="black"/>
<path d="M21.2114 5.27747H19.4317V7.08591H21.2114V5.27747Z" fill="black"/>
<path d="M26.5506 5.27747H24.7709V7.08591H26.5506V5.27747Z" fill="black"/>
<path d="M28.3304 5.27747H26.5506V7.08591H28.3304V5.27747Z" fill="black"/>
<path d="M30.1101 5.27747H28.3304V7.08591H30.1101V5.27747Z" fill="black"/>
<path d="M39.0089 5.27747H37.2291V7.08591H39.0089V5.27747Z" fill="black"/>
<path d="M46.1278 5.27747H44.3481V7.08591H46.1278V5.27747Z" fill="black"/>
<path d="M47.9076 5.27747H46.1278V7.08591H47.9076V5.27747Z" fill="black"/>
<path d="M49.6873 5.27747H47.9076V7.08591H49.6873V5.27747Z" fill="black"/>
<path d="M51.4671 5.27747H49.6873V7.08591H51.4671V5.27747Z" fill="black"/>
<path d="M53.2468 5.27747H51.4671V7.08591H53.2468V5.27747Z" fill="black"/>
<path d="M55.0265 5.27747H53.2468V7.08591H55.0265V5.27747Z" fill="black"/>
<path d="M56.8063 5.27747H55.0265V7.08591H56.8063V5.27747Z" fill="black"/>
<path d="M6.97347 7.08591H5.19373V8.89436H6.97347V7.08591Z" fill="black"/>
<path d="M17.6519 7.08591H15.8722V8.89436H17.6519V7.08591Z" fill="black"/>
<path d="M22.9912 7.08591H21.2114V8.89436H22.9912V7.08591Z" fill="black"/>
<path d="M24.7709 7.08591H22.9912V8.89436H24.7709V7.08591Z" fill="black"/>
<path d="M30.1101 7.08591H28.3304V8.89436H30.1101V7.08591Z" fill="black"/>
<path d="M31.8899 7.08591H30.1101V8.89436H31.8899V7.08591Z" fill="black"/>
<path d="M37.2291 7.08591H35.4494V8.89436H37.2291V7.08591Z" fill="black"/>
<path d="M42.5683 7.08591H40.7886V8.89436H42.5683V7.08591Z" fill="black"/>
<path d="M46.1278 7.08591H44.3481V8.89436H46.1278V7.08591Z" fill="black"/>
<path d="M56.8063 7.08591H55.0265V8.89436H56.8063V7.08591Z" fill="black"/>
<path d="M6.97347 8.89436H5.19373V10.7028H6.97347V8.89436Z" fill="black"/>
<path d="M10.533 8.89436H8.75321V10.7028H10.533V8.89436Z" fill="black"/>
<path d="M12.3127 8.89436H10.533V10.7028H12.3127V8.89436Z" fill="black"/>
<path d="M14.0924 8.89436H12.3127V10.7028H14.0924V8.89436Z" fill="black"/>
<path d="M17.6519 8.89436H15.8722V10.7028H17.6519V8.89436Z" fill="black"/>
<path d="M21.2114 8.89436H19.4317V10.7028H21.2114V8.89436Z" fill="black"/>
<path d="M30.1101 8.89436H28.3304V10.7028H30.1101V8.89436Z" fill="black"/>
<path d="M33.6696 8.89436H31.8899V10.7028H33.6696V8.89436Z" fill="black"/>
<path d="M37.2291 8.89436H35.4494V10.7028H37.2291V8.89436Z" fill="black"/>
<path d="M39.0089 8.89436H37.2291V10.7028H39.0089V8.89436Z" fill="black"/>
<path d="M40.7886 8.89436H39.0089V10.7028H40.7886V8.89436Z" fill="black"/>
<path d="M42.5683 8.89436H40.7886V10.7028H42.5683V8.89436Z" fill="black"/>
<path d="M46.1278 8.89436H44.3481V10.7028H46.1278V8.89436Z" fill="black"/>
<path d="M49.6873 8.89436H47.9076V10.7028H49.6873V8.89436Z" fill="black"/>
<path d="M51.4671 8.89436H49.6873V10.7028H51.4671V8.89436Z" fill="black"/>
<path d="M53.2468 8.89436H51.4671V10.7028H53.2468V8.89436Z" fill="black"/>
<path d="M56.8063 8.89436H55.0265V10.7028H56.8063V8.89436Z" fill="black"/>
<path d="M6.97347 10.7028H5.19373V12.5113H6.97347V10.7028Z" fill="black"/>
<path d="M10.533 10.7028H8.75321V12.5113H10.533V10.7028Z" fill="black"/>
<path d="M12.3127 10.7028H10.533V12.5113H12.3127V10.7028Z" fill="black"/>
<path d="M14.0924 10.7028H12.3127V12.5113H14.0924V10.7028Z" fill="black"/>
<path d="M17.6519 10.7028H15.8722V12.5113H17.6519V10.7028Z" fill="black"/>
<path d="M21.2114 10.7028H19.4317V12.5113H21.2114V10.7028Z" fill="black"/>
<path d="M22.9912 10.7028H21.2114V12.5113H22.9912V10.7028Z" fill="black"/>
<path d="M24.7709 10.7028H22.9912V12.5113H24.7709V10.7028Z" fill="black"/>
<path d="M26.5506 10.7028H24.7709V12.5113H26.5506V10.7028Z" fill="black"/>
<path d="M28.3304 10.7028H26.5506V12.5113H28.3304V10.7028Z" fill="black"/>
<path d="M31.8899 10.7028H30.1101V12.5113H31.8899V10.7028Z" fill="black"/>
<path d="M33.6696 10.7028H31.8899V12.5113H33.6696V10.7028Z" fill="black"/>
<path d="M35.4494 10.7028H33.6696V12.5113H35.4494V10.7028Z" fill="black"/>
<path d="M40.7886 10.7028H39.0089V12.5113H40.7886V10.7028Z" fill="black"/>
<path d="M46.1278 10.7028H44.3481V12.5113H46.1278V10.7028Z" fill="black"/>
<path d="M49.6873 10.7028H47.9076V12.5113H49.6873V10.7028Z" fill="black"/>
<path d="M51.4671 10.7028H49.6873V12.5113H51.4671V10.7028Z" fill="black"/>
<path d="M53.2468 10.7028H51.4671V12.5113H53.2468V10.7028Z" fill="black"/>
<path d="M56.8063 10.7028H55.0265V12.5113H56.8063V10.7028Z" fill="black"/>
<path d="M6.97347 12.5113H5.19373V14.3197H6.97347V12.5113Z" fill="black"/>
<path d="M10.533 12.5113H8.75321V14.3197H10.533V12.5113Z" fill="black"/>
<path d="M12.3127 12.5113H10.533V14.3197H12.3127V12.5113Z" fill="black"/>
<path d="M14.0924 12.5113H12.3127V14.3197H14.0924V12.5113Z" fill="black"/>
<path d="M17.6519 12.5113H15.8722V14.3197H17.6519V12.5113Z" fill="black"/>
<path d="M22.9912 12.5113H21.2114V14.3197H22.9912V12.5113Z" fill="black"/>
<path d="M24.7709 12.5113H22.9912V14.3197H24.7709V12.5113Z" fill="black"/>
<path d="M33.6696 12.5113H31.8899V14.3197H33.6696V12.5113Z" fill="black"/>
<path d="M37.2291 12.5113H35.4494V14.3197H37.2291V12.5113Z" fill="black"/>
<path d="M46.1278 12.5113H44.3481V14.3197H46.1278V12.5113Z" fill="black"/>
<path d="M49.6873 12.5113H47.9076V14.3197H49.6873V12.5113Z" fill="black"/>
<path d="M51.4671 12.5113H49.6873V14.3197H51.4671V12.5113Z" fill="black"/>
<path d="M53.2468 12.5113H51.4671V14.3197H53.2468V12.5113Z" fill="black"/>
<path d="M56.8063 12.5113H55.0265V14.3197H56.8063V12.5113Z" fill="black"/>
<path d="M6.97347 14.3197H5.19373V16.1282H6.97347V14.3197Z" fill="black"/>
<path d="M17.6519 14.3197H15.8722V16.1282H17.6519V14.3197Z" fill="black"/>
<path d="M21.2114 14.3197H19.4317V16.1282H21.2114V14.3197Z" fill="black"/>
<path d="M26.5506 14.3197H24.7709V16.1282H26.5506V14.3197Z" fill="black"/>
<path d="M28.3304 14.3197H26.5506V16.1282H28.3304V14.3197Z" fill="black"/>
<path d="M33.6696 14.3197H31.8899V16.1282H33.6696V14.3197Z" fill="black"/>
<path d="M39.0089 14.3197H37.2291V16.1282H39.0089V14.3197Z" fill="black"/>
<path d="M46.1278 14.3197H44.3481V16.1282H46.1278V14.3197Z" fill="black"/>
<path d="M56.8063 14.3197H55.0265V16.1282H56.8063V14.3197Z" fill="black"/>
<path d="M6.97347 16.1282H5.19373V17.9366H6.97347V16.1282Z" fill="black"/>
<path d="M8.75321 16.1282H6.97347V17.9366H8.75321V16.1282Z" fill="black"/>
<path d="M10.533 16.1282H8.75321V17.9366H10.533V16.1282Z" fill="black"/>
<path d="M12.3127 16.1282H10.533V17.9366H12.3127V16.1282Z" fill="black"/>
<path d="M14.0924 16.1282H12.3127V17.9366H14.0924V16.1282Z" fill="black"/>
<path d="M15.8722 16.1282H14.0924V17.9366H15.8722V16.1282Z" fill="black"/>
<path d="M17.6519 16.1282H15.8722V17.9366H17.6519V16.1282Z" fill="black"/>
<path d="M21.2114 16.1282H19.4317V17.9366H21.2114V16.1282Z" fill="black"/>
<path d="M24.7709 16.1282H22.9912V17.9366H24.7709V16.1282Z" fill="black"/>
<path d="M28.3304 16.1282H26.5506V17.9366H28.3304V16.1282Z" fill="black"/>
<path d="M31.8899 16.1282H30.1101V17.9366H31.8899V16.1282Z" fill="black"/>
<path d="M35.4494 16.1282H33.6696V17.9366H35.4494V16.1282Z" fill="black"/>
<path d="M39.0089 16.1282H37.2291V17.9366H39.0089V16.1282Z" fill="black"/>
<path d="M42.5683 16.1282H40.7886V17.9366H42.5683V16.1282Z" fill="black"/>
<path d="M46.1278 16.1282H44.3481V17.9366H46.1278V16.1282Z" fill="black"/>
<path d="M47.9076 16.1282H46.1278V17.9366H47.9076V16.1282Z" fill="black"/>
<path d="M49.6873 16.1282H47.9076V17.9366H49.6873V16.1282Z" fill="black"/>
<path d="M51.4671 16.1282H49.6873V17.9366H51.4671V16.1282Z" fill="black"/>
<path d="M53.2468 16.1282H51.4671V17.9366H53.2468V16.1282Z" fill="black"/>
<path d="M55.0265 16.1282H53.2468V17.9366H55.0265V16.1282Z" fill="black"/>
<path d="M56.8063 16.1282H55.0265V17.9366H56.8063V16.1282Z" fill="black"/>
<path d="M21.2114 17.9366H19.4317V19.7451H21.2114V17.9366Z" fill="black"/>
<path d="M22.9912 17.9366H21.2114V19.7451H22.9912V17.9366Z" fill="black"/>
<path d="M24.7709 17.9366H22.9912V19.7451H24.7709V17.9366Z" fill="black"/>
<path d="M28.3304 17.9366H26.5506V19.7451H28.3304V17.9366Z" fill="black"/>
<path d="M30.1101 17.9366H28.3304V19.7451H30.1101V17.9366Z" fill="black"/>
<path d="M31.8899 17.9366H30.1101V19.7451H31.8899V17.9366Z" fill="black"/>
<path d="M33.6696 17.9366H31.8899V19.7451H33.6696V17.9366Z" fill="black"/>
<path d="M35.4494 17.9366H33.6696V19.7451H35.4494V17.9366Z" fill="black"/>
<path d="M37.2291 17.9366H35.4494V19.7451H37.2291V17.9366Z" fill="black"/>
<path d="M40.7886 17.9366H39.0089V19.7451H40.7886V17.9366Z" fill="black"/>
<path d="M42.5683 17.9366H40.7886V19.7451H42.5683V17.9366Z" fill="black"/>
<path d="M6.97347 19.7451H5.19373V21.5535H6.97347V19.7451Z" fill="black"/>
<path d="M8.75321 19.7451H6.97347V21.5535H8.75321V19.7451Z" fill="black"/>
<path d="M12.3127 19.7451H10.533V21.5535H12.3127V19.7451Z" fill="black"/>
<path d="M17.6519 19.7451H15.8722V21.5535H17.6519V19.7451Z" fill="black"/>
<path d="M19.4317 19.7451H17.6519V21.5535H19.4317V19.7451Z" fill="black"/>
<path d="M22.9912 19.7451H21.2114V21.5535H22.9912V19.7451Z" fill="black"/>
<path d="M30.1101 19.7451H28.3304V21.5535H30.1101V19.7451Z" fill="black"/>
<path d="M31.8899 19.7451H30.1101V21.5535H31.8899V19.7451Z" fill="black"/>
<path d="M35.4494 19.7451H33.6696V21.5535H35.4494V19.7451Z" fill="black"/>
<path d="M37.2291 19.7451H35.4494V21.5535H37.2291V19.7451Z" fill="black"/>
<path d="M40.7886 19.7451H39.0089V21.5535H40.7886V19.7451Z" fill="black"/>
<path d="M42.5683 19.7451H40.7886V21.5535H42.5683V19.7451Z" fill="black"/>
<path d="M44.3481 19.7451H42.5683V21.5535H44.3481V19.7451Z" fill="black"/>
<path d="M46.1278 19.7451H44.3481V21.5535H46.1278V19.7451Z" fill="black"/>
<path d="M47.9076 19.7451H46.1278V21.5535H47.9076V19.7451Z" fill="black"/>
<path d="M51.4671 19.7451H49.6873V21.5535H51.4671V19.7451Z" fill="black"/>
<path d="M53.2468 19.7451H51.4671V21.5535H53.2468V19.7451Z" fill="black"/>
<path d="M56.8063 19.7451H55.0265V21.5535H56.8063V19.7451Z" fill="black"/>
<path d="M12.3127 21.5535H10.533V23.362H12.3127V21.5535Z" fill="black"/>
<path d="M19.4317 21.5535H17.6519V23.362H19.4317V21.5535Z" fill="black"/>
<path d="M22.9912 21.5535H21.2114V23.362H22.9912V21.5535Z" fill="black"/>
<path d="M24.7709 21.5535H22.9912V23.362H24.7709V21.5535Z" fill="black"/>
<path d="M35.4494 21.5535H33.6696V23.362H35.4494V21.5535Z" fill="black"/>
<path d="M39.0089 21.5535H37.2291V23.362H39.0089V21.5535Z" fill="black"/>
<path d="M40.7886 21.5535H39.0089V23.362H40.7886V21.5535Z" fill="black"/>
<path d="M47.9076 21.5535H46.1278V23.362H47.9076V21.5535Z" fill="black"/>
<path d="M55.0265 21.5535H53.2468V23.362H55.0265V21.5535Z" fill="black"/>
<path d="M56.8063 21.5535H55.0265V23.362H56.8063V21.5535Z" fill="black"/>
<path d="M6.97347 23.362H5.19373V25.1704H6.97347V23.362Z" fill="black"/>
<path d="M10.533 23.362H8.75321V25.1704H10.533V23.362Z" fill="black"/>
<path d="M15.8722 23.362H14.0924V25.1704H15.8722V23.362Z" fill="black"/>
<path d="M17.6519 23.362H15.8722V25.1704H17.6519V23.362Z" fill="black"/>
<path d="M21.2114 23.362H19.4317V25.1704H21.2114V23.362Z" fill="black"/>
<path d="M24.7709 23.362H22.9912V25.1704H24.7709V23.362Z" fill="black"/>
<path d="M28.3304 23.362H26.5506V25.1704H28.3304V23.362Z" fill="black"/>
<path d="M31.8899 23.362H30.1101V25.1704H31.8899V23.362Z" fill="black"/>
<path d="M33.6696 23.362H31.8899V25.1704H33.6696V23.362Z" fill="black"/>
<path d="M37.2291 23.362H35.4494V25.1704H37.2291V23.362Z" fill="black"/>
<path d="M40.7886 23.362H39.0089V25.1704H40.7886V23.362Z" fill="black"/>
<path d="M42.5683 23.362H40.7886V25.1704H42.5683V23.362Z" fill="black"/>
<path d="M46.1278 23.362H44.3481V25.1704H46.1278V23.362Z" fill="black"/>
<path d="M49.6873 23.362H47.9076V25.1704H49.6873V23.362Z" fill="black"/>
<path d="M51.4671 23.362H49.6873V25.1704H51.4671V23.362Z" fill="black"/>
<path d="M55.0265 23.362H53.2468V25.1704H55.0265V23.362Z" fill="black"/>
<path d="M8.75321 25.1704H6.97347V26.9789H8.75321V25.1704Z" fill="black"/>
<path d="M10.533 25.1704H8.75321V26.9789H10.533V25.1704Z" fill="black"/>
<path d="M14.0924 25.1704H12.3127V26.9789H14.0924V25.1704Z" fill="black"/>
<path d="M15.8722 25.1704H14.0924V26.9789H15.8722V25.1704Z" fill="black"/>
<path d="M22.9912 25.1704H21.2114V26.9789H22.9912V25.1704Z" fill="black"/>
<path d="M26.5506 25.1704H24.7709V26.9789H26.5506V25.1704Z" fill="black"/>
<path d="M28.3304 25.1704H26.5506V26.9789H28.3304V25.1704Z" fill="black"/>
<path d="M30.1101 25.1704H28.3304V26.9789H30.1101V25.1704Z" fill="black"/>
<path d="M31.8899 25.1704H30.1101V26.9789H31.8899V25.1704Z" fill="black"/>
<path d="M33.6696 25.1704H31.8899V26.9789H33.6696V25.1704Z" fill="black"/>
<path d="M39.0089 25.1704H37.2291V26.9789H39.0089V25.1704Z" fill="black"/>
<path d="M40.7886 25.1704H39.0089V26.9789H40.7886V25.1704Z" fill="black"/>
<path d="M42.5683 25.1704H40.7886V26.9789H42.5683V25.1704Z" fill="black"/>
<path d="M44.3481 25.1704H42.5683V26.9789H44.3481V25.1704Z" fill="black"/>
<path d="M46.1278 25.1704H44.3481V26.9789H46.1278V25.1704Z" fill="black"/>
<path d="M47.9076 25.1704H46.1278V26.9789H47.9076V25.1704Z" fill="black"/>
<path d="M49.6873 25.1704H47.9076V26.9789H49.6873V25.1704Z" fill="black"/>
<path d="M56.8063 25.1704H55.0265V26.9789H56.8063V25.1704Z" fill="black"/>
<path d="M10.533 26.9789H8.75321V28.7873H10.533V26.9789Z" fill="black"/>
<path d="M17.6519 26.9789H15.8722V28.7873H17.6519V26.9789Z" fill="black"/>
<path d="M19.4317 26.9789H17.6519V28.7873H19.4317V26.9789Z" fill="black"/>
<path d="M26.5506 26.9789H24.7709V28.7873H26.5506V26.9789Z" fill="black"/>
<path d="M30.1101 26.9789H28.3304V28.7873H30.1101V26.9789Z" fill="black"/>
<path d="M31.8899 26.9789H30.1101V28.7873H31.8899V26.9789Z" fill="black"/>
<path d="M33.6696 26.9789H31.8899V28.7873H33.6696V26.9789Z" fill="black"/>
<path d="M35.4494 26.9789H33.6696V28.7873H35.4494V26.9789Z" fill="black"/>
<path d="M37.2291 26.9789H35.4494V28.7873H37.2291V26.9789Z" fill="black"/>
<path d="M40.7886 26.9789H39.0089V28.7873H40.7886V26.9789Z" fill="black"/>
<path d="M42.5683 26.9789H40.7886V28.7873H42.5683V26.9789Z" fill="black"/>
<path d="M44.3481 26.9789H42.5683V28.7873H44.3481V26.9789Z" fill="black"/>
<path d="M47.9076 26.9789H46.1278V28.7873H47.9076V26.9789Z" fill="black"/>
<path d="M49.6873 26.9789H47.9076V28.7873H49.6873V26.9789Z" fill="black"/>
<path d="M51.4671 26.9789H49.6873V28.7873H51.4671V26.9789Z" fill="black"/>
<path d="M53.2468 26.9789H51.4671V28.7873H53.2468V26.9789Z" fill="black"/>
<path d="M6.97347 28.7873H5.19373V30.5958H6.97347V28.7873Z" fill="black"/>
<path d="M8.75321 28.7873H6.97347V30.5958H8.75321V28.7873Z" fill="black"/>
<path d="M15.8722 28.7873H14.0924V30.5958H15.8722V28.7873Z" fill="black"/>
<path d="M21.2114 28.7873H19.4317V30.5958H21.2114V28.7873Z" fill="black"/>
<path d="M22.9912 28.7873H21.2114V30.5958H22.9912V28.7873Z" fill="black"/>
<path d="M24.7709 28.7873H22.9912V30.5958H24.7709V28.7873Z" fill="black"/>
<path d="M31.8899 28.7873H30.1101V30.5958H31.8899V28.7873Z" fill="black"/>
<path d="M39.0089 28.7873H37.2291V30.5958H39.0089V28.7873Z" fill="black"/>
<path d="M40.7886 28.7873H39.0089V30.5958H40.7886V28.7873Z" fill="black"/>
<path d="M42.5683 28.7873H40.7886V30.5958H42.5683V28.7873Z" fill="black"/>
<path d="M47.9076 28.7873H46.1278V30.5958H47.9076V28.7873Z" fill="black"/>
<path d="M56.8063 28.7873H55.0265V30.5958H56.8063V28.7873Z" fill="black"/>
<path d="M6.97347 30.5958H5.19373V32.4042H6.97347V30.5958Z" fill="black"/>
<path d="M12.3127 30.5958H10.533V32.4042H12.3127V30.5958Z" fill="black"/>
<path d="M14.0924 30.5958H12.3127V32.4042H14.0924V30.5958Z" fill="black"/>
<path d="M17.6519 30.5958H15.8722V32.4042H17.6519V30.5958Z" fill="black"/>
<path d="M22.9912 30.5958H21.2114V32.4042H22.9912V30.5958Z" fill="black"/>
<path d="M28.3304 30.5958H26.5506V32.4042H28.3304V30.5958Z" fill="black"/>
<path d="M30.1101 30.5958H28.3304V32.4042H30.1101V30.5958Z" fill="black"/>
<path d="M33.6696 30.5958H31.8899V32.4042H33.6696V30.5958Z" fill="black"/>
<path d="M35.4494 30.5958H33.6696V32.4042H35.4494V30.5958Z" fill="black"/>
<path d="M37.2291 30.5958H35.4494V32.4042H37.2291V30.5958Z" fill="black"/>
<path d="M39.0089 30.5958H37.2291V32.4042H39.0089V30.5958Z" fill="black"/>
<path d="M40.7886 30.5958H39.0089V32.4042H40.7886V30.5958Z" fill="black"/>
<path d="M42.5683 30.5958H40.7886V32.4042H42.5683V30.5958Z" fill="black"/>
<path d="M46.1278 30.5958H44.3481V32.4042H46.1278V30.5958Z" fill="black"/>
<path d="M47.9076 30.5958H46.1278V32.4042H47.9076V30.5958Z" fill="black"/>
<path d="M56.8063 30.5958H55.0265V32.4042H56.8063V30.5958Z" fill="black"/>
<path d="M6.97347 32.4042H5.19373V34.2127H6.97347V32.4042Z" fill="black"/>
<path d="M12.3127 32.4042H10.533V34.2127H12.3127V32.4042Z" fill="black"/>
<path d="M15.8722 32.4042H14.0924V34.2127H15.8722V32.4042Z" fill="black"/>
<path d="M19.4317 32.4042H17.6519V34.2127H19.4317V32.4042Z" fill="black"/>
<path d="M21.2114 32.4042H19.4317V34.2127H21.2114V32.4042Z" fill="black"/>
<path d="M22.9912 32.4042H21.2114V34.2127H22.9912V32.4042Z" fill="black"/>
<path d="M28.3304 32.4042H26.5506V34.2127H28.3304V32.4042Z" fill="black"/>
<path d="M31.8899 32.4042H30.1101V34.2127H31.8899V32.4042Z" fill="black"/>
<path d="M35.4494 32.4042H33.6696V34.2127H35.4494V32.4042Z" fill="black"/>
<path d="M39.0089 32.4042H37.2291V34.2127H39.0089V32.4042Z" fill="black"/>
<path d="M44.3481 32.4042H42.5683V34.2127H44.3481V32.4042Z" fill="black"/>
<path d="M46.1278 32.4042H44.3481V34.2127H46.1278V32.4042Z" fill="black"/>
<path d="M47.9076 32.4042H46.1278V34.2127H47.9076V32.4042Z" fill="black"/>
<path d="M55.0265 32.4042H53.2468V34.2127H55.0265V32.4042Z" fill="black"/>
<path d="M8.75321 34.2127H6.97347V36.0211H8.75321V34.2127Z" fill="black"/>
<path d="M10.533 34.2127H8.75321V36.0211H10.533V34.2127Z" fill="black"/>
<path d="M14.0924 34.2127H12.3127V36.0211H14.0924V34.2127Z" fill="black"/>
<path d="M15.8722 34.2127H14.0924V36.0211H15.8722V34.2127Z" fill="black"/>
<path d="M17.6519 34.2127H15.8722V36.0211H17.6519V34.2127Z" fill="black"/>
<path d="M19.4317 34.2127H17.6519V36.0211H19.4317V34.2127Z" fill="black"/>
<path d="M24.7709 34.2127H22.9912V36.0211H24.7709V34.2127Z" fill="black"/>
<path d="M26.5506 34.2127H24.7709V36.0211H26.5506V34.2127Z" fill="black"/>
<path d="M30.1101 34.2127H28.3304V36.0211H30.1101V34.2127Z" fill="black"/>
<path d="M31.8899 34.2127H30.1101V36.0211H31.8899V34.2127Z" fill="black"/>
<path d="M33.6696 34.2127H31.8899V36.0211H33.6696V34.2127Z" fill="black"/>
<path d="M35.4494 34.2127H33.6696V36.0211H35.4494V34.2127Z" fill="black"/>
<path d="M37.2291 34.2127H35.4494V36.0211H37.2291V34.2127Z" fill="black"/>
<path d="M39.0089 34.2127H37.2291V36.0211H39.0089V34.2127Z" fill="black"/>
<path d="M42.5683 34.2127H40.7886V36.0211H42.5683V34.2127Z" fill="black"/>
<path d="M44.3481 34.2127H42.5683V36.0211H44.3481V34.2127Z" fill="black"/>
<path d="M49.6873 34.2127H47.9076V36.0211H49.6873V34.2127Z" fill="black"/>
<path d="M8.75321 36.0211H6.97347V37.8296H8.75321V36.0211Z" fill="black"/>
<path d="M12.3127 36.0211H10.533V37.8296H12.3127V36.0211Z" fill="black"/>
<path d="M15.8722 36.0211H14.0924V37.8296H15.8722V36.0211Z" fill="black"/>
<path d="M19.4317 36.0211H17.6519V37.8296H19.4317V36.0211Z" fill="black"/>
<path d="M22.9912 36.0211H21.2114V37.8296H22.9912V36.0211Z" fill="black"/>
<path d="M26.5506 36.0211H24.7709V37.8296H26.5506V36.0211Z" fill="black"/>
<path d="M30.1101 36.0211H28.3304V37.8296H30.1101V36.0211Z" fill="black"/>
<path d="M35.4494 36.0211H33.6696V37.8296H35.4494V36.0211Z" fill="black"/>
<path d="M37.2291 36.0211H35.4494V37.8296H37.2291V36.0211Z" fill="black"/>
<path d="M39.0089 36.0211H37.2291V37.8296H39.0089V36.0211Z" fill="black"/>
<path d="M46.1278 36.0211H44.3481V37.8296H46.1278V36.0211Z" fill="black"/>
<path d="M53.2468 36.0211H51.4671V37.8296H53.2468V36.0211Z" fill="black"/>
<path d="M55.0265 36.0211H53.2468V37.8296H55.0265V36.0211Z" fill="black"/>
<path d="M56.8063 36.0211H55.0265V37.8296H56.8063V36.0211Z" fill="black"/>
<path d="M12.3127 37.8296H10.533V39.638H12.3127V37.8296Z" fill="black"/>
<path d="M15.8722 37.8296H14.0924V39.638H15.8722V37.8296Z" fill="black"/>
<path d="M17.6519 37.8296H15.8722V39.638H17.6519V37.8296Z" fill="black"/>
<path d="M19.4317 37.8296H17.6519V39.638H19.4317V37.8296Z" fill="black"/>
<path d="M22.9912 37.8296H21.2114V39.638H22.9912V37.8296Z" fill="black"/>
<path d="M24.7709 37.8296H22.9912V39.638H24.7709V37.8296Z" fill="black"/>
<path d="M37.2291 37.8296H35.4494V39.638H37.2291V37.8296Z" fill="black"/>
<path d="M42.5683 37.8296H40.7886V39.638H42.5683V37.8296Z" fill="black"/>
<path d="M44.3481 37.8296H42.5683V39.638H44.3481V37.8296Z" fill="black"/>
<path d="M47.9076 37.8296H46.1278V39.638H47.9076V37.8296Z" fill="black"/>
<path d="M49.6873 37.8296H47.9076V39.638H49.6873V37.8296Z" fill="black"/>
<path d="M51.4671 37.8296H49.6873V39.638H51.4671V37.8296Z" fill="black"/>
<path d="M53.2468 37.8296H51.4671V39.638H53.2468V37.8296Z" fill="black"/>
<path d="M55.0265 37.8296H53.2468V39.638H55.0265V37.8296Z" fill="black"/>
<path d="M56.8063 37.8296H55.0265V39.638H56.8063V37.8296Z" fill="black"/>
<path d="M6.97347 39.638H5.19373V41.4464H6.97347V39.638Z" fill="black"/>
<path d="M12.3127 39.638H10.533V41.4464H12.3127V39.638Z" fill="black"/>
<path d="M14.0924 39.638H12.3127V41.4464H14.0924V39.638Z" fill="black"/>
<path d="M15.8722 39.638H14.0924V41.4464H15.8722V39.638Z" fill="black"/>
<path d="M22.9912 39.638H21.2114V41.4464H22.9912V39.638Z" fill="black"/>
<path d="M30.1101 39.638H28.3304V41.4464H30.1101V39.638Z" fill="black"/>
<path d="M31.8899 39.638H30.1101V41.4464H31.8899V39.638Z" fill="black"/>
<path d="M33.6696 39.638H31.8899V41.4464H33.6696V39.638Z" fill="black"/>
<path d="M35.4494 39.638H33.6696V41.4464H35.4494V39.638Z" fill="black"/>
<path d="M46.1278 39.638H44.3481V41.4464H46.1278V39.638Z" fill="black"/>
<path d="M51.4671 39.638H49.6873V41.4464H51.4671V39.638Z" fill="black"/>
<path d="M56.8063 39.638H55.0265V41.4464H56.8063V39.638Z" fill="black"/>
<path d="M6.97347 41.4464H5.19373V43.2549H6.97347V41.4464Z" fill="black"/>
<path d="M10.533 41.4464H8.75321V43.2549H10.533V41.4464Z" fill="black"/>
<path d="M17.6519 41.4464H15.8722V43.2549H17.6519V41.4464Z" fill="black"/>
<path d="M19.4317 41.4464H17.6519V43.2549H19.4317V41.4464Z" fill="black"/>
<path d="M22.9912 41.4464H21.2114V43.2549H22.9912V41.4464Z" fill="black"/>
<path d="M28.3304 41.4464H26.5506V43.2549H28.3304V41.4464Z" fill="black"/>
<path d="M31.8899 41.4464H30.1101V43.2549H31.8899V41.4464Z" fill="black"/>
<path d="M33.6696 41.4464H31.8899V43.2549H33.6696V41.4464Z" fill="black"/>
<path d="M35.4494 41.4464H33.6696V43.2549H35.4494V41.4464Z" fill="black"/>
<path d="M39.0089 41.4464H37.2291V43.2549H39.0089V41.4464Z" fill="black"/>
<path d="M42.5683 41.4464H40.7886V43.2549H42.5683V41.4464Z" fill="black"/>
<path d="M44.3481 41.4464H42.5683V43.2549H44.3481V41.4464Z" fill="black"/>
<path d="M46.1278 41.4464H44.3481V43.2549H46.1278V41.4464Z" fill="black"/>
<path d="M47.9076 41.4464H46.1278V43.2549H47.9076V41.4464Z" fill="black"/>
<path d="M49.6873 41.4464H47.9076V43.2549H49.6873V41.4464Z" fill="black"/>
<path d="M53.2468 41.4464H51.4671V43.2549H53.2468V41.4464Z" fill="black"/>
<path d="M55.0265 41.4464H53.2468V43.2549H55.0265V41.4464Z" fill="black"/>
<path d="M56.8063 41.4464H55.0265V43.2549H56.8063V41.4464Z" fill="black"/>
<path d="M22.9912 43.2549H21.2114V45.0633H22.9912V43.2549Z" fill="black"/>
<path d="M24.7709 43.2549H22.9912V45.0633H24.7709V43.2549Z" fill="black"/>
<path d="M26.5506 43.2549H24.7709V45.0633H26.5506V43.2549Z" fill="black"/>
<path d="M31.8899 43.2549H30.1101V45.0633H31.8899V43.2549Z" fill="black"/>
<path d="M33.6696 43.2549H31.8899V45.0633H33.6696V43.2549Z" fill="black"/>
<path d="M42.5683 43.2549H40.7886V45.0633H42.5683V43.2549Z" fill="black"/>
<path d="M49.6873 43.2549H47.9076V45.0633H49.6873V43.2549Z" fill="black"/>
<path d="M51.4671 43.2549H49.6873V45.0633H51.4671V43.2549Z" fill="black"/>
<path d="M55.0265 43.2549H53.2468V45.0633H55.0265V43.2549Z" fill="black"/>
<path d="M56.8063 43.2549H55.0265V45.0633H56.8063V43.2549Z" fill="black"/>
<path d="M6.97347 45.0633H5.19373V46.8718H6.97347V45.0633Z" fill="black"/>
<path d="M8.75321 45.0633H6.97347V46.8718H8.75321V45.0633Z" fill="black"/>
<path d="M10.533 45.0633H8.75321V46.8718H10.533V45.0633Z" fill="black"/>
<path d="M12.3127 45.0633H10.533V46.8718H12.3127V45.0633Z" fill="black"/>
<path d="M14.0924 45.0633H12.3127V46.8718H14.0924V45.0633Z" fill="black"/>
<path d="M15.8722 45.0633H14.0924V46.8718H15.8722V45.0633Z" fill="black"/>
<path d="M17.6519 45.0633H15.8722V46.8718H17.6519V45.0633Z" fill="black"/>
<path d="M21.2114 45.0633H19.4317V46.8718H21.2114V45.0633Z" fill="black"/>
<path d="M22.9912 45.0633H21.2114V46.8718H22.9912V45.0633Z" fill="black"/>
<path d="M26.5506 45.0633H24.7709V46.8718H26.5506V45.0633Z" fill="black"/>
<path d="M30.1101 45.0633H28.3304V46.8718H30.1101V45.0633Z" fill="black"/>
<path d="M39.0089 45.0633H37.2291V46.8718H39.0089V45.0633Z" fill="black"/>
<path d="M40.7886 45.0633H39.0089V46.8718H40.7886V45.0633Z" fill="black"/>
<path d="M42.5683 45.0633H40.7886V46.8718H42.5683V45.0633Z" fill="black"/>
<path d="M46.1278 45.0633H44.3481V46.8718H46.1278V45.0633Z" fill="black"/>
<path d="M49.6873 45.0633H47.9076V46.8718H49.6873V45.0633Z" fill="black"/>
<path d="M56.8063 45.0633H55.0265V46.8718H56.8063V45.0633Z" fill="black"/>
<path d="M6.97347 46.8718H5.19373V48.6802H6.97347V46.8718Z" fill="black"/>
<path d="M17.6519 46.8718H15.8722V48.6802H17.6519V46.8718Z" fill="black"/>
<path d="M22.9912 46.8718H21.2114V48.6802H22.9912V46.8718Z" fill="black"/>
<path d="M24.7709 46.8718H22.9912V48.6802H24.7709V46.8718Z" fill="black"/>
<path d="M26.5506 46.8718H24.7709V48.6802H26.5506V46.8718Z" fill="black"/>
<path d="M28.3304 46.8718H26.5506V48.6802H28.3304V46.8718Z" fill="black"/>
<path d="M35.4494 46.8718H33.6696V48.6802H35.4494V46.8718Z" fill="black"/>
<path d="M37.2291 46.8718H35.4494V48.6802H37.2291V46.8718Z" fill="black"/>
<path d="M39.0089 46.8718H37.2291V48.6802H39.0089V46.8718Z" fill="black"/>
<path d="M42.5683 46.8718H40.7886V48.6802H42.5683V46.8718Z" fill="black"/>
<path d="M49.6873 46.8718H47.9076V48.6802H49.6873V46.8718Z" fill="black"/>
<path d="M53.2468 46.8718H51.4671V48.6802H53.2468V46.8718Z" fill="black"/>
<path d="M56.8063 46.8718H55.0265V48.6802H56.8063V46.8718Z" fill="black"/>
<path d="M6.97347 48.6802H5.19373V50.4887H6.97347V48.6802Z" fill="black"/>
<path d="M10.533 48.6802H8.75321V50.4887H10.533V48.6802Z" fill="black"/>
<path d="M12.3127 48.6802H10.533V50.4887H12.3127V48.6802Z" fill="black"/>
<path d="M14.0924 48.6802H12.3127V50.4887H14.0924V48.6802Z" fill="black"/>
<path d="M17.6519 48.6802H15.8722V50.4887H17.6519V48.6802Z" fill="black"/>
<path d="M22.9912 48.6802H21.2114V50.4887H22.9912V48.6802Z" fill="black"/>
<path d="M31.8899 48.6802H30.1101V50.4887H31.8899V48.6802Z" fill="black"/>
<path d="M33.6696 48.6802H31.8899V50.4887H33.6696V48.6802Z" fill="black"/>
<path d="M35.4494 48.6802H33.6696V50.4887H35.4494V48.6802Z" fill="black"/>
<path d="M39.0089 48.6802H37.2291V50.4887H39.0089V48.6802Z" fill="black"/>
<path d="M42.5683 48.6802H40.7886V50.4887H42.5683V48.6802Z" fill="black"/>
<path d="M44.3481 48.6802H42.5683V50.4887H44.3481V48.6802Z" fill="black"/>
<path d="M46.1278 48.6802H44.3481V50.4887H46.1278V48.6802Z" fill="black"/>
<path d="M47.9076 48.6802H46.1278V50.4887H47.9076V48.6802Z" fill="black"/>
<path d="M49.6873 48.6802H47.9076V50.4887H49.6873V48.6802Z" fill="black"/>
<path d="M51.4671 48.6802H49.6873V50.4887H51.4671V48.6802Z" fill="black"/>
<path d="M55.0265 48.6802H53.2468V50.4887H55.0265V48.6802Z" fill="black"/>
<path d="M56.8063 48.6802H55.0265V50.4887H56.8063V48.6802Z" fill="black"/>
<path d="M6.97347 50.4887H5.19373V52.2971H6.97347V50.4887Z" fill="black"/>
<path d="M10.533 50.4887H8.75321V52.2971H10.533V50.4887Z" fill="black"/>
<path d="M12.3127 50.4887H10.533V52.2971H12.3127V50.4887Z" fill="black"/>
<path d="M14.0924 50.4887H12.3127V52.2971H14.0924V50.4887Z" fill="black"/>
<path d="M17.6519 50.4887H15.8722V52.2971H17.6519V50.4887Z" fill="black"/>
<path d="M21.2114 50.4887H19.4317V52.2971H21.2114V50.4887Z" fill="black"/>
<path d="M28.3304 50.4887H26.5506V52.2971H28.3304V50.4887Z" fill="black"/>
<path d="M35.4494 50.4887H33.6696V52.2971H35.4494V50.4887Z" fill="black"/>
<path d="M37.2291 50.4887H35.4494V52.2971H37.2291V50.4887Z" fill="black"/>
<path d="M42.5683 50.4887H40.7886V52.2971H42.5683V50.4887Z" fill="black"/>
<path d="M44.3481 50.4887H42.5683V52.2971H44.3481V50.4887Z" fill="black"/>
<path d="M46.1278 50.4887H44.3481V52.2971H46.1278V50.4887Z" fill="black"/>
<path d="M47.9076 50.4887H46.1278V52.2971H47.9076V50.4887Z" fill="black"/>
<path d="M51.4671 50.4887H49.6873V52.2971H51.4671V50.4887Z" fill="black"/>
<path d="M55.0265 50.4887H53.2468V52.2971H55.0265V50.4887Z" fill="black"/>
<path d="M6.97347 52.2971H5.19373V54.1056H6.97347V52.2971Z" fill="black"/>
<path d="M10.533 52.2971H8.75321V54.1056H10.533V52.2971Z" fill="black"/>
<path d="M12.3127 52.2971H10.533V54.1056H12.3127V52.2971Z" fill="black"/>
<path d="M14.0924 52.2971H12.3127V54.1056H14.0924V52.2971Z" fill="black"/>
<path d="M17.6519 52.2971H15.8722V54.1056H17.6519V52.2971Z" fill="black"/>
<path d="M24.7709 52.2971H22.9912V54.1056H24.7709V52.2971Z" fill="black"/>
<path d="M28.3304 52.2971H26.5506V54.1056H28.3304V52.2971Z" fill="black"/>
<path d="M30.1101 52.2971H28.3304V54.1056H30.1101V52.2971Z" fill="black"/>
<path d="M31.8899 52.2971H30.1101V54.1056H31.8899V52.2971Z" fill="black"/>
<path d="M37.2291 52.2971H35.4494V54.1056H37.2291V52.2971Z" fill="black"/>
<path d="M39.0089 52.2971H37.2291V54.1056H39.0089V52.2971Z" fill="black"/>
<path d="M40.7886 52.2971H39.0089V54.1056H40.7886V52.2971Z" fill="black"/>
<path d="M42.5683 52.2971H40.7886V54.1056H42.5683V52.2971Z" fill="black"/>
<path d="M44.3481 52.2971H42.5683V54.1056H44.3481V52.2971Z" fill="black"/>
<path d="M49.6873 52.2971H47.9076V54.1056H49.6873V52.2971Z" fill="black"/>
<path d="M53.2468 52.2971H51.4671V54.1056H53.2468V52.2971Z" fill="black"/>
<path d="M6.97347 54.1056H5.19373V55.914H6.97347V54.1056Z" fill="black"/>
<path d="M17.6519 54.1056H15.8722V55.914H17.6519V54.1056Z" fill="black"/>
<path d="M21.2114 54.1056H19.4317V55.914H21.2114V54.1056Z" fill="black"/>
<path d="M24.7709 54.1056H22.9912V55.914H24.7709V54.1056Z" fill="black"/>
<path d="M30.1101 54.1056H28.3304V55.914H30.1101V54.1056Z" fill="black"/>
<path d="M31.8899 54.1056H30.1101V55.914H31.8899V54.1056Z" fill="black"/>
<path d="M33.6696 54.1056H31.8899V55.914H33.6696V54.1056Z" fill="black"/>
<path d="M35.4494 54.1056H33.6696V55.914H35.4494V54.1056Z" fill="black"/>
<path d="M37.2291 54.1056H35.4494V55.914H37.2291V54.1056Z" fill="black"/>
<path d="M44.3481 54.1056H42.5683V55.914H44.3481V54.1056Z" fill="black"/>
<path d="M46.1278 54.1056H44.3481V55.914H46.1278V54.1056Z" fill="black"/>
<path d="M49.6873 54.1056H47.9076V55.914H49.6873V54.1056Z" fill="black"/>
<path d="M51.4671 54.1056H49.6873V55.914H51.4671V54.1056Z" fill="black"/>
<path d="M55.0265 54.1056H53.2468V55.914H55.0265V54.1056Z" fill="black"/>
<path d="M56.8063 54.1056H55.0265V55.914H56.8063V54.1056Z" fill="black"/>
<path d="M6.97347 55.914H5.19373V57.7225H6.97347V55.914Z" fill="black"/>
<path d="M8.75321 55.914H6.97347V57.7225H8.75321V55.914Z" fill="black"/>
<path d="M10.533 55.914H8.75321V57.7225H10.533V55.914Z" fill="black"/>
<path d="M12.3127 55.914H10.533V57.7225H12.3127V55.914Z" fill="black"/>
<path d="M14.0924 55.914H12.3127V57.7225H14.0924V55.914Z" fill="black"/>
<path d="M15.8722 55.914H14.0924V57.7225H15.8722V55.914Z" fill="black"/>
<path d="M17.6519 55.914H15.8722V57.7225H17.6519V55.914Z" fill="black"/>
<path d="M21.2114 55.914H19.4317V57.7225H21.2114V55.914Z" fill="black"/>
<path d="M22.9912 55.914H21.2114V57.7225H22.9912V55.914Z" fill="black"/>
<path d="M26.5506 55.914H24.7709V57.7225H26.5506V55.914Z" fill="black"/>
<path d="M30.1101 55.914H28.3304V57.7225H30.1101V55.914Z" fill="black"/>
<path d="M31.8899 55.914H30.1101V57.7225H31.8899V55.914Z" fill="black"/>
<path d="M44.3481 55.914H42.5683V57.7225H44.3481V55.914Z" fill="black"/>
<path d="M47.9076 55.914H46.1278V57.7225H47.9076V55.914Z" fill="black"/>
<path d="M49.6873 55.914H47.9076V57.7225H49.6873V55.914Z" fill="black"/>
<path d="M53.2468 55.914H51.4671V57.7225H53.2468V55.914Z" fill="black"/>
<g filter="url(#filter0_b_2336_1586)">
<rect y="29" width="62" height="34" fill="white" fill-opacity="0.8"/>
</g>
</g>
<rect x="0.209424" y="0.209424" width="61.5812" height="62.5812" rx="1.46597" stroke="#F2F2F2" stroke-width="0.418848"/>
<defs>
<filter id="filter0_b_2336_1586" x="-5" y="24" width="72" height="44" filterUnits="userSpaceOnUse" color-interpolation-filters="sRGB">
<feFlood flood-opacity="0" result="BackgroundImageFix"/>
<feGaussianBlur in="BackgroundImageFix" stdDeviation="2.5"/>
<feComposite in2="SourceAlpha" operator="in" result="effect1_backgroundBlur_2336_1586"/>
<feBlend mode="normal" in="SourceGraphic" in2="effect1_backgroundBlur_2336_1586" result="shape"/>
</filter>
<clipPath id="clip0_2336_1586">
<rect width="62" height="63" rx="1.67539" fill="white"/>
</clipPath>
</defs>
</svg>
