<svg width="100" height="100" viewBox="0 0 100 100" fill="none" xmlns="http://www.w3.org/2000/svg">
<path d="M77 12C76.7348 12 76.4804 12.1054 76.2929 12.2929C76.1054 12.4804 76 12.7348 76 13C76 13.2652 76.1054 13.5196 76.2929 13.7071C76.4804 13.8946 76.7348 14 77 14C77.2652 14 77.5196 13.8946 77.7071 13.7071C77.8946 13.5196 78 13.2652 78 13C78 12.7348 77.8946 12.4804 77.7071 12.2929C77.5196 12.1054 77.2652 12 77 12Z" fill="#F1BC19"/>
<path d="M50 13C40.187 13 30.7759 16.8982 23.837 23.837C16.8982 30.7759 13 40.187 13 50C13 59.813 16.8982 69.2241 23.837 76.1629C30.7759 83.1018 40.187 87 50 87C59.813 87 69.2241 83.1018 76.1629 76.1629C83.1018 69.2241 87 59.813 87 50C87 40.187 83.1018 30.7759 76.1629 23.837C69.2241 16.8982 59.813 13 50 13Z" fill="#FEF1F2"/>
<path d="M83 11C81.9391 11 80.9217 11.4214 80.1716 12.1716C79.4214 12.9217 79 13.9391 79 15C79 16.0609 79.4214 17.0783 80.1716 17.8284C80.9217 18.5786 81.9391 19 83 19C84.0609 19 85.0783 18.5786 85.8284 17.8284C86.5786 17.0783 87 16.0609 87 15C87 13.9391 86.5786 12.9217 85.8284 12.1716C85.0783 11.4214 84.0609 11 83 11Z" fill="#F1BC19"/>
<path d="M87 22C86.4696 22 85.9609 22.2107 85.5858 22.5858C85.2107 22.9609 85 23.4696 85 24C85 24.5304 85.2107 25.0391 85.5858 25.4142C85.9609 25.7893 86.4696 26 87 26C87.5304 26 88.0391 25.7893 88.4142 25.4142C88.7893 25.0391 89 24.5304 89 24C89 23.4696 88.7893 22.9609 88.4142 22.5858C88.0391 22.2107 87.5304 22 87 22Z" fill="#88AE45"/>
<path d="M81 74C80.4696 74 79.9609 74.2107 79.5858 74.5858C79.2107 74.9609 79 75.4696 79 76C79 76.5304 79.2107 77.0391 79.5858 77.4142C79.9609 77.7893 80.4696 78 81 78C81.5304 78 82.0391 77.7893 82.4142 77.4142C82.7893 77.0391 83 76.5304 83 76C83 75.4696 82.7893 74.9609 82.4142 74.5858C82.0391 74.2107 81.5304 74 81 74ZM15 59C13.9391 59 12.9217 59.4214 12.1716 60.1716C11.4214 60.9217 11 61.9391 11 63C11 64.0609 11.4214 65.0783 12.1716 65.8284C12.9217 66.5786 13.9391 67 15 67C16.0609 67 17.0783 66.5786 17.8284 65.8284C18.5786 65.0783 19 64.0609 19 63C19 61.9391 18.5786 60.9217 17.8284 60.1716C17.0783 59.4214 16.0609 59 15 59Z" fill="#FBCD59"/>
<path d="M25 85C24.4696 85 23.9609 85.2107 23.5858 85.5858C23.2107 85.9609 23 86.4696 23 87C23 87.5304 23.2107 88.0391 23.5858 88.4142C23.9609 88.7893 24.4696 89 25 89C25.5304 89 26.0391 88.7893 26.4142 88.4142C26.7893 88.0391 27 87.5304 27 87C27 86.4696 26.7893 85.9609 26.4142 85.5858C26.0391 85.2107 25.5304 85 25 85Z" fill="#88AE45"/>
<path d="M18.5 49C17.837 49 17.2011 49.2634 16.7322 49.7322C16.2634 50.2011 16 50.837 16 51.5C16 52.163 16.2634 52.7989 16.7322 53.2678C17.2011 53.7366 17.837 54 18.5 54C19.163 54 19.7989 53.7366 20.2678 53.2678C20.7366 52.7989 21 52.163 21 51.5C21 50.837 20.7366 50.2011 20.2678 49.7322C19.7989 49.2634 19.163 49 18.5 49ZM79.5 32C79.1022 32 78.7206 32.158 78.4393 32.4393C78.158 32.7206 78 33.1022 78 33.5C78 33.8978 78.158 34.2794 78.4393 34.5607C78.7206 34.842 79.1022 35 79.5 35C79.8978 35 80.2794 34.842 80.5607 34.5607C80.842 34.2794 81 33.8978 81 33.5C81 33.1022 80.842 32.7206 80.5607 32.4393C80.2794 32.158 79.8978 32 79.5 32Z" fill="white"/>
<path d="M34.9992 72.2992C30.9742 72.2992 27.6992 69.0252 27.6992 64.9992V34.9992C27.6992 30.9742 30.9732 27.6992 34.9992 27.6992H64.9992C69.0242 27.6992 72.2992 30.9732 72.2992 34.9992V64.9992C72.2992 69.0242 69.0252 72.2992 64.9992 72.2992H34.9992Z" fill="#EA5167"/>
<path d="M65 28.4C68.639 28.4 71.6 31.361 71.6 35V65C71.6 68.639 68.639 71.6 65 71.6H35C31.361 71.6 28.4 68.639 28.4 65V35C28.4 31.361 31.361 28.4 35 28.4H65ZM65 27H35C30.6 27 27 30.6 27 35V65C27 69.4 30.6 73 35 73H65C69.4 73 73 69.4 73 65V35C73 30.6 69.4 27 65 27Z" fill="#472B29"/>
<path d="M68.5 47.875V49.625V64C68.5 66.475 66.475 68.5 64 68.5H36C33.525 68.5 31.5 66.475 31.5 64V36C31.5 33.525 33.525 31.5 36 31.5H61.375H64C66.475 31.5 68.5 33.525 68.5 36V39.375V41.375V42.375V43.5V46.375V47.875Z" fill="#EA5167"/>
<path d="M68.5 47.375C68.224 47.375 68 47.151 68 46.875V43C68 42.724 68.224 42.5 68.5 42.5C68.776 42.5 69 42.724 69 43V46.875C69 47.151 68.776 47.375 68.5 47.375Z" fill="#472B29"/>
<path d="M68.5 40.5C68.224 40.5 68 40.276 68 40V38C68 37.724 68.224 37.5 68.5 37.5C68.776 37.5 69 37.724 69 38V40C69 40.276 68.776 40.5 68.5 40.5Z" fill="#472B29"/>
<path d="M64 69H36C33.243 69 31 66.757 31 64V36C31 33.243 33.243 31 36 31H61.375C61.651 31 61.875 31.224 61.875 31.5C61.875 31.776 61.651 32 61.375 32H36C33.794 32 32 33.794 32 36V64C32 66.206 33.794 68 36 68H64C66.206 68 68 66.206 68 64V49.625C68 49.349 68.224 49.125 68.5 49.125C68.776 49.125 69 49.349 69 49.625V64C69 66.757 66.757 69 64 69Z" fill="#472B29"/>
<path d="M52.7019 60.131C52.7019 60.884 52.4399 61.523 51.9159 62.046C51.3909 62.571 50.7629 62.834 50.0339 62.834C49.2819 62.834 48.6359 62.571 48.1019 62.046C47.5659 61.523 47.2969 60.884 47.2969 60.131C47.2969 59.402 47.5659 58.768 48.1019 58.232C48.6369 57.696 49.2819 57.429 50.0339 57.429C50.7629 57.429 51.3909 57.696 51.9159 58.232C52.4409 58.768 52.7019 59.401 52.7019 60.131ZM48.9729 55C48.8589 52.514 48.7169 50.427 48.5459 48.739C48.3749 47.052 48.2039 45.632 48.0339 44.481C47.8629 43.328 47.7139 42.389 47.5889 41.658C47.4639 40.929 47.4009 40.267 47.4009 39.674C47.4009 38.579 47.6459 37.832 48.1359 37.433C48.6259 37.034 49.2829 36.834 50.1029 36.834C50.9019 36.834 51.5339 37.039 52.0019 37.449C52.4699 37.86 52.7039 38.578 52.7039 39.605C52.7039 40.198 52.6469 40.87 52.5329 41.622C52.4189 42.375 52.2769 43.327 52.1059 44.48C51.9349 45.631 51.7519 47.051 51.5589 48.738C51.3639 50.426 51.1869 52.513 51.0289 54.999L48.9729 55Z" fill="white"/>
<path d="M50.0339 63.0849C49.2159 63.0849 48.5069 62.7959 47.9269 62.2259C47.3439 61.6569 47.0469 60.9529 47.0469 60.1319C47.0469 59.3369 47.3419 58.6389 47.9249 58.0569C48.5059 57.4749 49.2159 57.1799 50.0339 57.1799C50.8299 57.1799 51.5239 57.4759 52.0949 58.0589C52.6639 58.6389 52.9519 59.3359 52.9519 60.1319C52.9519 60.9509 52.6629 61.6549 52.0929 62.2239C51.5219 62.7949 50.8289 63.0849 50.0339 63.0849ZM50.0339 57.6799C49.3439 57.6799 48.7689 57.9189 48.2789 58.4099C47.7859 58.9019 47.5469 59.4649 47.5469 60.1319C47.5469 60.8209 47.7859 61.3899 48.2759 61.8679C48.7669 62.3499 49.3419 62.5849 50.0339 62.5849C50.7009 62.5849 51.2589 62.3519 51.7389 61.8699C52.2189 61.3909 52.4519 60.8229 52.4519 60.1319C52.4519 59.4629 52.2179 58.8989 51.7369 58.4079C51.2569 57.9179 50.6999 57.6799 50.0339 57.6799ZM51.2629 55.2499H48.7339L48.7229 55.0129C48.6089 52.5359 48.4659 50.4349 48.2969 48.7659C48.1279 47.0949 47.9559 45.6659 47.7859 44.5189C47.6149 43.3689 47.4669 42.4309 47.3419 41.7019C47.2149 40.9609 47.1509 40.2779 47.1509 39.6759C47.1509 38.5079 47.4289 37.6889 47.9789 37.2409C48.5129 36.8059 49.2279 36.5859 50.1039 36.5859C50.9609 36.5859 51.6549 36.8139 52.1679 37.2639C52.6899 37.7219 52.9549 38.5109 52.9549 39.6079C52.9549 40.2099 52.8959 40.8999 52.7809 41.6619C52.6669 42.4149 52.5249 43.3669 52.3539 44.5199C52.1809 45.6829 51.9979 47.1129 51.8089 48.7689C51.6149 50.4449 51.4369 52.5469 51.2799 55.0169L51.2629 55.2499ZM50.1029 37.0849C49.3449 37.0849 48.7359 37.2679 48.2939 37.6279C47.8669 37.9759 47.6509 38.6639 47.6509 39.6749C47.6509 40.2489 47.7129 40.9039 47.8359 41.6169C47.9609 42.3479 48.1099 43.2899 48.2819 44.4449C48.4529 45.5999 48.6249 47.0359 48.7949 48.7149C48.9599 50.3399 49.0999 52.3689 49.2119 54.7509L50.7949 54.7499C50.9489 52.3719 51.1229 50.3409 51.3109 48.7109C51.5009 47.0489 51.6859 45.6139 51.8589 44.4439C52.0299 43.2909 52.1719 42.3389 52.2859 41.5859C52.3969 40.8489 52.4539 40.1829 52.4539 39.6069C52.4539 38.6609 52.2459 37.9989 51.8369 37.6379C51.4179 37.2709 50.8349 37.0849 50.1029 37.0849Z" fill="#472B29"/>
</svg>
