<svg width="178" height="179" viewBox="0 0 178 179" fill="none" xmlns="http://www.w3.org/2000/svg">
<path d="M49.984 13.9835C48.97 12.0208 49.7356 9.59891 51.7418 8.67409C64.0676 2.99224 77.5472 0.197143 91.1508 0.525993C104.754 0.854843 118.083 4.298 130.12 10.5688C132.079 11.5895 132.727 14.0455 131.619 15.9569L126.706 24.436C125.598 26.3473 123.155 26.988 121.184 25.9894C111.743 21.2045 101.336 18.5774 90.7207 18.3208C80.1051 18.0642 69.584 20.1854 59.9219 24.5084C57.9054 25.4106 55.4963 24.6527 54.4823 22.6901L49.984 13.9835Z" fill="#FB3B52"/>
<path d="M135.032 18.0436C136.229 16.1864 138.71 15.6434 140.512 16.922C156.29 28.1205 168.023 44.1834 173.87 62.7037C179.718 81.2239 179.336 101.112 172.848 119.34C172.108 121.422 169.764 122.402 167.719 121.568L158.643 117.871C156.597 117.038 155.626 114.706 156.343 112.617C161.278 98.241 161.494 82.6237 156.896 68.0629C152.299 53.5021 143.155 40.84 130.859 31.9044C129.072 30.6057 128.529 28.1392 129.725 26.2821L135.032 18.0436Z" fill="#5654D4"/>
<path d="M166.395 124.642C168.407 125.556 169.305 127.932 168.302 129.9C162.547 141.198 154.436 151.15 144.5 159.076C133.52 167.834 120.623 173.87 106.864 176.689C93.1045 179.508 78.8733 179.031 65.3339 175.296C51.7944 171.561 39.3311 164.675 28.9629 155.2C18.5947 145.726 10.616 133.932 5.67916 120.783C0.742348 107.634 -1.01242 93.5037 0.55832 79.5466C2.12906 65.5896 6.98072 52.2025 14.7166 40.4798C21.7172 29.8714 30.8999 20.8986 41.6345 14.1507C43.5048 12.9751 45.9517 13.6562 47.0422 15.5775L51.8797 24.1003C52.9702 26.0215 52.2896 28.4535 50.4327 29.6502C42.1347 34.9973 35.0265 42.0203 29.5733 50.2839C23.3846 59.662 19.5032 70.3717 18.2467 81.5373C16.9901 92.7029 18.3939 104.007 22.3433 114.527C26.2928 125.046 32.6757 134.481 40.9703 142.06C49.2648 149.64 59.2355 155.149 70.0671 158.137C80.8987 161.124 92.2836 161.506 103.291 159.251C114.298 156.996 124.616 152.167 133.4 145.161C141.14 138.987 147.495 131.276 152.075 122.531C153.099 120.574 155.46 119.677 157.472 120.591L166.395 124.642Z" fill="#3FC8E4"/>
</svg>
