<svg width="121" height="120" viewBox="0 0 121 120" fill="none" xmlns="http://www.w3.org/2000/svg">
<path d="M92.9 14.3999C92.5817 14.3999 92.2765 14.5263 92.0515 14.7514C91.8264 14.9764 91.7 15.2816 91.7 15.5999C91.7 15.9182 91.8264 16.2234 92.0515 16.4484C92.2765 16.6735 92.5817 16.7999 92.9 16.7999C93.2183 16.7999 93.5235 16.6735 93.7485 16.4484C93.9736 16.2234 94.1 15.9182 94.1 15.5999C94.1 15.2816 93.9736 14.9764 93.7485 14.7514C93.5235 14.5263 93.2183 14.3999 92.9 14.3999Z" fill="#F1BC19"/>
<path d="M60.5 15.6001C48.7244 15.6001 37.4311 20.2779 29.1045 28.6046C20.7779 36.9312 16.1 48.2245 16.1 60.0001C16.1 71.7757 20.7779 83.069 29.1045 91.3956C37.4311 99.7223 48.7244 104.4 60.5 104.4C72.2756 104.4 83.5689 99.7223 91.8955 91.3956C100.222 83.069 104.9 71.7757 104.9 60.0001C104.9 48.2245 100.222 36.9312 91.8955 28.6046C83.5689 20.2779 72.2756 15.6001 60.5 15.6001Z" fill="#FBDBC4"/>
<path d="M100.1 13.2C98.827 13.2 97.6061 13.7057 96.7059 14.6058C95.8057 15.506 95.3 16.7269 95.3 18C95.3 19.273 95.8057 20.4939 96.7059 21.3941C97.6061 22.2942 98.827 22.8 100.1 22.8C101.373 22.8 102.594 22.2942 103.494 21.3941C104.394 20.4939 104.9 19.273 104.9 18C104.9 16.7269 104.394 15.506 103.494 14.6058C102.594 13.7057 101.373 13.2 100.1 13.2Z" fill="#F1BC19"/>
<path d="M104.9 26.3999C104.263 26.3999 103.653 26.6528 103.203 27.1028C102.753 27.5529 102.5 28.1634 102.5 28.7999C102.5 29.4364 102.753 30.0469 103.203 30.497C103.653 30.947 104.263 31.1999 104.9 31.1999C105.537 31.1999 106.147 30.947 106.597 30.497C107.047 30.0469 107.3 29.4364 107.3 28.7999C107.3 28.1634 107.047 27.5529 106.597 27.1028C106.147 26.6528 105.537 26.3999 104.9 26.3999Z" fill="#8889B9"/>
<path d="M97.7 88.8C97.0635 88.8 96.453 89.0529 96.0029 89.503C95.5529 89.9531 95.3 90.5635 95.3 91.2C95.3 91.8366 95.5529 92.447 96.0029 92.8971C96.453 93.3472 97.0635 93.6 97.7 93.6C98.3365 93.6 98.947 93.3472 99.3971 92.8971C99.8471 92.447 100.1 91.8366 100.1 91.2C100.1 90.5635 99.8471 89.9531 99.3971 89.503C98.947 89.0529 98.3365 88.8 97.7 88.8ZM18.5 70.8C17.227 70.8 16.0061 71.3058 15.1059 72.2059C14.2057 73.1061 13.7 74.327 13.7 75.6C13.7 76.8731 14.2057 78.094 15.1059 78.9942C16.0061 79.8943 17.227 80.4 18.5 80.4C19.773 80.4 20.9939 79.8943 21.8941 78.9942C22.7943 78.094 23.3 76.8731 23.3 75.6C23.3 74.327 22.7943 73.1061 21.8941 72.2059C20.9939 71.3058 19.773 70.8 18.5 70.8Z" fill="#FBCD59"/>
<path d="M30.5 102C29.8635 102 29.253 102.253 28.803 102.703C28.3529 103.153 28.1 103.763 28.1 104.4C28.1 105.037 28.3529 105.647 28.803 106.097C29.253 106.547 29.8635 106.8 30.5 106.8C31.1365 106.8 31.747 106.547 32.1971 106.097C32.6471 105.647 32.9 105.037 32.9 104.4C32.9 103.763 32.6471 103.153 32.1971 102.703C31.747 102.253 31.1365 102 30.5 102Z" fill="#8889B9"/>
<path d="M22.7 58.7999C21.9043 58.7999 21.1413 59.116 20.5787 59.6786C20.0161 60.2412 19.7 61.0043 19.7 61.7999C19.7 62.5956 20.0161 63.3586 20.5787 63.9212C21.1413 64.4838 21.9043 64.7999 22.7 64.7999C23.4956 64.7999 24.2587 64.4838 24.8213 63.9212C25.3839 63.3586 25.7 62.5956 25.7 61.7999C25.7 61.0043 25.3839 60.2412 24.8213 59.6786C24.2587 59.116 23.4956 58.7999 22.7 58.7999ZM95.9 38.3999C95.4226 38.3999 94.9648 38.5895 94.6272 38.9271C94.2896 39.2647 94.1 39.7225 94.1 40.1999C94.1 40.6773 94.2896 41.1351 94.6272 41.4727C94.9648 41.8103 95.4226 41.9999 95.9 41.9999C96.3774 41.9999 96.8352 41.8103 97.1728 41.4727C97.5104 41.1351 97.7 40.6773 97.7 40.1999C97.7 39.7225 97.5104 39.2647 97.1728 38.9271C96.8352 38.5895 96.3774 38.3999 95.9 38.3999Z" fill="white"/>
<path d="M84.7436 42.6913V35.2549C84.7436 33.5197 83.3372 32.1001 81.6176 32.1001H39.2252C37.5068 32.1001 36.0992 33.5197 36.0992 35.2549V87.8197L44.384 79.5385L52.1048 87.8197L60.5168 79.5385L68.9288 87.8197L76.6496 79.5385L84.7412 87.8197V54.2437" fill="#FEFDEF"/>
<path d="M36.1004 88.6608C35.9924 88.6608 35.8832 88.6392 35.7788 88.596C35.4656 88.4664 35.2604 88.1604 35.2604 87.8208V35.2548C35.2604 33.0516 37.04 31.26 39.2264 31.26H81.6188C83.8052 31.26 85.5848 33.0516 85.5848 35.2548V42.6912C85.5848 43.1556 85.2092 43.5312 84.7448 43.5312C84.2804 43.5312 83.9048 43.1556 83.9048 42.6912V35.2548C83.9048 33.9792 82.88 32.94 81.62 32.94H39.2252C37.9652 32.94 36.9392 33.978 36.9392 35.2548V85.7928L43.7888 78.9444C43.9496 78.7836 44.1704 78.6744 44.3972 78.6984C44.6252 78.7032 44.8412 78.7992 44.9972 78.966L52.1288 86.616L59.9264 78.9408C60.2528 78.6192 60.7784 78.6192 61.1048 78.9408L68.9024 86.616L76.034 78.966C76.1912 78.798 76.4096 78.702 76.6388 78.6984C76.862 78.66 77.0888 78.7872 77.2496 78.9516L83.9 85.7592V54.2448C83.9 53.7804 84.2756 53.4048 84.74 53.4048C85.2044 53.4048 85.58 53.7804 85.58 54.2448V87.8196C85.58 88.1604 85.3736 88.4688 85.0568 88.5972C84.74 88.722 84.3788 88.6512 84.1388 88.4064L76.6616 80.754L69.5408 88.392C69.386 88.5576 69.1712 88.6536 68.9444 88.6596C68.702 88.6716 68.498 88.578 68.3372 88.4184L60.5144 80.7168L52.6904 88.4184C52.5284 88.5768 52.3232 88.6632 52.0832 88.6596C51.8564 88.6536 51.6416 88.5576 51.4868 88.392L44.36 80.7468L36.6908 88.4136C36.5324 88.5756 36.3188 88.6608 36.1004 88.6608Z" fill="#472B29"/>
<path d="M74.648 65.2225C74.6624 65.2225 74.6924 65.238 74.7368 65.2668L74.7152 65.2561C74.9312 65.4049 75.1244 65.5225 75.296 65.6077C75.4676 65.6941 76.1336 65.7924 76.1336 65.7924V62.3784L75.9332 62.2668C75.6872 62.1324 75.4532 61.992 75.23 61.8432C75.0068 61.6944 74.8064 61.53 74.6288 61.3524C74.45 61.1736 74.2988 60.9841 74.1764 60.7825C74.054 60.5821 73.97 60.3625 73.9244 60.1237C73.8944 60.0049 73.8788 59.8945 73.8752 59.7889C73.8716 59.6845 73.8692 59.5728 73.8692 59.454C73.8692 59.1036 73.9268 58.7989 74.042 58.5385C74.1572 58.2781 74.3156 58.056 74.516 57.8748C74.7164 57.6936 74.9552 57.5473 75.23 57.4381C75.506 57.3313 75.8072 57.258 76.1336 57.2208V56.9076C76.1336 56.7588 76.1672 56.6328 76.2344 56.5284C76.3016 56.424 76.424 56.3713 76.6016 56.3713H76.5548C76.9496 56.3713 77.1656 56.562 77.204 56.9412L77.192 57.2412C77.4044 57.2784 77.6228 57.3361 77.846 57.4141C78.0704 57.4921 78.3224 57.5904 78.6032 57.7092L78.5684 57.6877C78.698 57.7321 78.7976 57.7885 78.8708 57.8545C78.944 57.9229 78.986 58.0296 79.0016 58.1772V58.2456C79.0016 58.2984 78.9884 58.3645 78.962 58.4461C78.9356 58.5277 78.8948 58.6057 78.842 58.6801C78.788 58.7533 78.728 58.8192 78.6596 58.8756C78.5912 58.932 78.5156 58.9596 78.4316 58.9596C78.3632 58.9596 78.3008 58.9536 78.2444 58.9428C78.1868 58.932 78.1208 58.9009 78.044 58.8481V58.8036L77.6924 58.7377C77.4764 58.6261 77.2388 58.536 77.0876 58.47V61.5157L77.0228 61.5385C77.6252 61.8433 78.0908 62.1817 78.4172 62.5549C78.7448 62.9257 78.9608 63.3133 79.0652 63.7153C79.1096 63.8869 79.142 64.0428 79.16 64.1844C79.178 64.3248 79.1876 64.4712 79.1876 64.62C79.1876 64.962 79.1324 65.2705 79.0196 65.5465C78.908 65.8225 78.7556 66.0624 78.5624 66.2664C78.3692 66.4716 78.1364 66.6396 77.8652 66.7692C77.594 66.9 77.2976 66.9877 77.0876 67.0321V67.836C76.9772 67.9848 76.9484 68.1121 76.8884 68.2153C76.8296 68.3197 76.5212 67.854 76.5212 67.854H76.454C76.454 67.854 76.1192 68.3208 76.0076 68.22C75.896 68.1192 75.8396 67.9729 76.1312 67.7797V67.0321C75.4388 66.9877 75.092 66.8977 74.8028 66.7645C74.5124 66.6301 74.2148 66.4644 73.9088 66.2616C73.8272 66.1956 73.7708 66.1321 73.7408 66.0721C73.7108 66.0133 73.6772 65.9316 74.216 65.8272V65.7588C73.64 65.6904 73.6604 65.6149 73.7012 65.5297C73.742 65.4433 73.7924 65.3616 73.8524 65.2836C73.9112 65.2056 73.9748 65.1384 74.042 65.0832C74.1092 65.028 74.1716 64.9993 74.2316 64.9993C74.3132 64.9993 74.3852 65.0233 74.45 65.0725C74.5136 65.1205 74.5748 65.1709 74.6336 64.9825H74.6456C74.66 65.2297 74.672 65.2332 74.6792 65.2332L74.648 65.2225ZM75.5144 60.4788C75.6884 60.642 75.8948 60.7873 76.1336 60.9145V58.4713C75.8504 58.5313 75.6152 58.6452 75.4256 58.8168C75.236 58.9884 75.1412 59.2188 75.1412 59.508C75.1412 59.5524 75.1436 59.6016 75.1472 59.6532C75.1508 59.706 75.1604 59.7684 75.1748 59.8428C75.2252 60.1032 75.3392 60.3168 75.5144 60.4788ZM77.6252 63.42C77.4764 63.2388 77.2976 63.0805 77.09 62.9461V65.7252C77.3504 65.6208 77.5688 65.4612 77.7428 65.2452C77.918 65.0304 78.0056 64.776 78.0056 64.4868C78.0056 64.4052 77.9984 64.3308 77.984 64.2624C77.9684 64.1964 77.954 64.1244 77.9396 64.0512C77.8784 63.8124 77.7752 63.6024 77.6252 63.42ZM84.5996 51.2401C84.1352 51.2401 83.7596 50.8644 83.7596 50.4V45.9996C83.7596 45.5352 84.1352 45.1596 84.5996 45.1596C85.064 45.1596 85.4396 45.5352 85.4396 45.9996V50.4C85.4408 50.8644 85.064 51.2401 84.5996 51.2401ZM79.1 42H43.1C42.7688 42 42.5 41.7312 42.5 41.4C42.5 41.0688 42.7688 40.8 43.1 40.8H79.1C79.4312 40.8 79.7 41.0688 79.7 41.4C79.7 41.7312 79.4312 42 79.1 42Z" fill="#472B29"/>
<path d="M57.5 46.8001H43.1C42.7688 46.8001 42.5 46.5313 42.5 46.2001C42.5 45.8689 42.7688 45.6001 43.1 45.6001H57.5C57.8312 45.6001 58.1 45.8689 58.1 46.2001C58.1 46.5313 57.8312 46.8001 57.5 46.8001Z" fill="#472B29"/>
<path d="M67.1 57.5999H46.7C46.3688 57.5999 46.1 57.3311 46.1 56.9999C46.1 56.6687 46.3688 56.3999 46.7 56.3999H67.1C67.4312 56.3999 67.7 56.6687 67.7 56.9999C67.7 57.3311 67.4312 57.5999 67.1 57.5999Z" fill="#472B29"/>
<path d="M67.1 61.2H46.7C46.3688 61.2 46.1 60.9312 46.1 60.6C46.1 60.2688 46.3688 60 46.7 60H67.1C67.4312 60 67.7 60.2688 67.7 60.6C67.7 60.9312 67.4312 61.2 67.1 61.2Z" fill="#472B29"/>
<path d="M67.1 64.8001H46.7C46.3688 64.8001 46.1 64.5313 46.1 64.2001C46.1 63.8689 46.3688 63.6001 46.7 63.6001H67.1C67.4312 63.6001 67.7 63.8689 67.7 64.2001C67.7 64.5313 67.4312 64.8001 67.1 64.8001Z" fill="#472B29"/>
<path d="M67.1 68.4H46.7C46.3688 68.4 46.1 68.1312 46.1 67.8C46.1 67.4688 46.3688 67.2 46.7 67.2H67.1C67.4312 67.2 67.7 67.4688 67.7 67.8C67.7 68.1312 67.4312 68.4 67.1 68.4Z" fill="#472B29"/>
<path d="M43.1 56.3999C42.9409 56.3999 42.7883 56.4631 42.6757 56.5756C42.5632 56.6882 42.5 56.8408 42.5 56.9999C42.5 57.159 42.5632 57.3116 42.6757 57.4242C42.7883 57.5367 42.9409 57.5999 43.1 57.5999C43.2591 57.5999 43.4117 57.5367 43.5243 57.4242C43.6368 57.3116 43.7 57.159 43.7 56.9999C43.7 56.8408 43.6368 56.6882 43.5243 56.5756C43.4117 56.4631 43.2591 56.3999 43.1 56.3999Z" fill="#472B29"/>
<path d="M43.1 60C42.9409 60 42.7883 60.0632 42.6757 60.1757C42.5632 60.2883 42.5 60.4409 42.5 60.6C42.5 60.7591 42.5632 60.9117 42.6757 61.0243C42.7883 61.1368 42.9409 61.2 43.1 61.2C43.2591 61.2 43.4117 61.1368 43.5243 61.0243C43.6368 60.9117 43.7 60.7591 43.7 60.6C43.7 60.4409 43.6368 60.2883 43.5243 60.1757C43.4117 60.0632 43.2591 60 43.1 60Z" fill="#472B29"/>
<path d="M43.1 63.6001C42.9409 63.6001 42.7883 63.6633 42.6757 63.7758C42.5632 63.8884 42.5 64.041 42.5 64.2001C42.5 64.3592 42.5632 64.5118 42.6757 64.6244C42.7883 64.7369 42.9409 64.8001 43.1 64.8001C43.2591 64.8001 43.4117 64.7369 43.5243 64.6244C43.6368 64.5118 43.7 64.3592 43.7 64.2001C43.7 64.041 43.6368 63.8884 43.5243 63.7758C43.4117 63.6633 43.2591 63.6001 43.1 63.6001Z" fill="#472B29"/>
<path d="M43.1 67.2C42.9409 67.2 42.7883 67.2632 42.6757 67.3757C42.5632 67.4882 42.5 67.6408 42.5 67.8C42.5 67.9591 42.5632 68.1117 42.6757 68.2242C42.7883 68.3367 42.9409 68.4 43.1 68.4C43.2591 68.4 43.4117 68.3367 43.5243 68.2242C43.6368 68.1117 43.7 67.9591 43.7 67.8C43.7 67.6408 43.6368 67.4882 43.5243 67.3757C43.4117 67.2632 43.2591 67.2 43.1 67.2Z" fill="#472B29"/>
</svg>
