<svg width="656" height="610" viewBox="0 0 656 610" fill="none" xmlns="http://www.w3.org/2000/svg">
<g clip-path="url(#clip0_8401_111006)">
<g clip-path="url(#clip1_8401_111006)">
<path d="M642.545 22.8662V183.351C642.545 191.248 642.218 199.062 641.565 206.79C631.104 332.22 537.418 433.995 415.873 456.737C398.894 459.916 381.656 461.511 364.382 461.5H292.154C273.292 461.511 254.477 459.61 235.999 455.826C109.3 429.852 13.9984 317.732 13.9984 183.351V22.8662H642.545Z" fill="#E2E2E2"/>
<path d="M630.239 213.467C630.239 213.467 610.459 336.974 517.34 399.543L488.24 355.895C488.24 355.895 546.692 321.636 581.52 213.467H630.239Z" fill="#FFD2FF"/>
<path d="M19.964 177.278C19.964 177.278 25.8069 321.009 127.028 393.486L162.346 352.404C162.346 352.404 80.1468 301.099 73.8827 177.309L19.964 177.278Z" fill="#FFD2FF"/>
<path d="M73.8904 29.2139H19.964V147.996H73.8904V29.2139Z" fill="#FFD2FF"/>
<path d="M556.571 196.958L555.659 196.775L522.731 190.22C519.706 215.589 516.137 238.01 506.534 256.579C488.156 292.071 467.479 304.959 467.479 304.959L487.145 331.814C542.22 283.487 556.027 233.637 559.488 210.742C559.618 209.869 559.626 209.83 559.733 209.034L556.211 208.98L556.571 196.958Z" fill="#E6D6F5"/>
<path d="M98.2269 177.386C98.2269 177.386 94.1146 260.423 166.068 329.003L187.563 302.018C187.563 302.018 161.764 283.487 146.915 246.379C139.143 226.968 135.206 202.035 136.539 175.02L98.2269 177.386Z" fill="#E6D6F5"/>
<path d="M129.417 208.681L108.634 211.07C107.148 201.855 106.38 192.538 106.337 183.205L129.425 181.826" stroke="#D1B9ED" stroke-width="5.58812" stroke-miterlimit="10"/>
<path d="M115.281 238.439C112.948 231.432 111.121 224.267 109.813 216.998" stroke="#D1B9ED" stroke-width="5.58812" stroke-miterlimit="10"/>
<path d="M127.028 266.265C123.009 258.611 119.544 250.678 116.659 242.527" stroke="#D1B9ED" stroke-width="5.58812" stroke-miterlimit="10"/>
<path d="M141.187 289.063C136.758 282.989 132.714 276.644 129.08 270.064" stroke="#D1B9ED" stroke-width="5.58812" stroke-miterlimit="10"/>
<path d="M177.37 302.019L165.463 316.491C159.604 310.664 148.776 299.078 143.768 292.516" stroke="#D1B9ED" stroke-width="5.58812" stroke-miterlimit="10"/>
<path d="M83.2482 147.437V24.665" stroke="#C1C1C1" stroke-width="0.798303" stroke-miterlimit="10"/>
<path d="M168.418 343.567C144.083 322.822 124.134 297.428 109.741 268.874C95.3469 240.319 86.7983 209.179 84.5959 177.278" stroke="#C1C1C1" stroke-width="0.798303" stroke-miterlimit="10"/>
<path d="M570.914 21.6025V160.47C570.951 194.904 563.586 228.944 549.316 260.282C535.047 291.62 514.207 319.525 488.209 342.105" stroke="#C1C1C1" stroke-width="0.798303" stroke-miterlimit="10"/>
<path d="M497.039 285.019L510.501 296.007C504.712 303.429 498.429 310.451 491.694 317.027L479.058 301.804" stroke="#D1B9ED" stroke-width="5.58812" stroke-miterlimit="10"/>
<path d="M512.109 261.801L527.371 270.844C523.181 278.198 518.55 285.292 513.503 292.086" stroke="#D1B9ED" stroke-width="5.58812" stroke-miterlimit="10"/>
<path d="M542.71 236.861C539.423 245.788 535.486 254.461 530.932 262.812" stroke="#D1B9ED" stroke-width="5.58812" stroke-miterlimit="10"/>
<path d="M533.988 203.237L551.425 207.219C549.615 215.94 547.241 224.535 544.318 232.948" stroke="#D1B9ED" stroke-width="5.58812" stroke-miterlimit="10"/>
<path d="M30.7079 140.347V39.751H66.087" stroke="#F9B1F6" stroke-width="5.58812" stroke-miterlimit="10"/>
<path d="M71.6543 248.447L46.1307 257.406C38.0233 234.708 33.497 210.887 32.7142 186.797" stroke="#F9B1F6" stroke-width="5.58812" stroke-miterlimit="10"/>
<path d="M77.4818 323.306C64.7172 304.496 54.7789 283.916 47.9839 262.223" stroke="#F9B1F6" stroke-width="5.58812" stroke-miterlimit="10"/>
<path d="M146.364 354.778L125.121 378.103C106.972 363.967 94.0841 347.228 80.8361 328.475L107.899 309.875" stroke="#F9B1F6" stroke-width="5.58812" stroke-miterlimit="10"/>
<path d="M562.789 342.327C550.85 356.535 537.291 369.297 522.386 380.354L504.651 349.785" stroke="#F9B1F6" stroke-width="5.58812" stroke-miterlimit="10"/>
<path d="M597.693 286.727C589.318 305.39 578.564 322.892 565.699 338.797L538.422 316.683" stroke="#F9B1F6" stroke-width="5.58812" stroke-miterlimit="10"/>
<path d="M586.681 228.353L615.268 228.131C612.233 246.821 606.949 265.077 599.531 282.499L568.9 273.31" stroke="#F9B1F6" stroke-width="5.58812" stroke-miterlimit="10"/>
<path d="M621.157 34.8887V168.794" stroke="#D8D8D8" stroke-width="5.58812" stroke-miterlimit="10"/>
<path d="M137.389 142.882L97.5684 142.468V34.8887H176.597L176.482 98.1852H137.649L137.389 142.882Z" fill="#E6D6F5"/>
<path d="M396.308 22.8662C395.651 39.4797 388.745 55.2327 376.972 66.9731C370.829 73.1282 363.53 78.0095 355.496 81.3368C347.461 84.664 338.848 86.3717 330.152 86.3618H323.091C306 86.3642 289.57 79.7567 277.239 67.922C264.909 56.0873 257.633 39.9425 256.935 22.8662H396.308Z" fill="#5A6064"/>
<path d="M416.854 22.8662C415.758 44.5836 406.359 65.0496 390.6 80.0338C374.841 95.0181 353.927 103.375 332.181 103.377H319.684C297.937 103.375 277.023 95.0181 261.265 80.0338C245.506 65.0496 236.107 44.5836 235.011 22.8662H416.854Z" stroke="#605F5F" stroke-width="0.798303" stroke-miterlimit="10"/>
<path d="M470.581 362.865C470.582 370.049 469.168 377.164 466.419 383.802C463.67 390.44 459.64 396.471 454.56 401.552C449.48 406.632 443.449 410.663 436.811 413.412C430.173 416.162 423.058 417.577 415.873 417.577V456.737C398.894 459.916 381.656 461.511 364.382 461.5H292.154C273.292 461.511 254.477 459.61 235.999 455.826V417.577C225.397 417.577 215.023 414.498 206.139 408.713C197.255 402.927 190.242 394.686 185.955 384.99C181.668 375.294 180.29 364.561 181.989 354.096C183.688 343.632 188.391 333.886 195.526 326.045C202.661 318.203 211.92 312.603 222.179 309.926C232.437 307.248 243.252 307.609 253.309 310.963C263.367 314.318 272.233 320.522 278.83 328.821C285.427 337.12 289.47 347.157 290.469 357.711H361.403C362.713 343.699 369.372 330.731 379.997 321.502C390.622 312.273 404.395 307.494 418.453 308.158C432.511 308.821 445.773 314.877 455.481 325.065C465.189 335.254 470.597 348.792 470.581 362.865Z" fill="#5A6064"/>
<path d="M552.811 105.283H524.04V138.463H552.811V105.283Z" fill="#E6D6F5"/>
<path d="M552.811 148.671H524.04V181.851H552.811V148.671Z" fill="#E6D6F5"/>
<path d="M512.921 105.482V187.815C512.921 192.134 512.722 196.407 512.347 200.626C508.74 240.95 491.739 273.839 460.947 299.055C450.923 287.347 432.499 282.461 415.873 282.883C370.386 284.039 345.62 304.645 343.025 332.442H308.082C301.864 293.542 264.478 282.883 235.999 282.883C220.607 282.883 209.25 281.405 193.038 296.161C160.791 268.395 144.312 231.961 144.312 187.815V105.482H254.584C270.061 122.091 295.171 127.115 319.676 127.115H332.173C356.678 127.115 380.257 122.091 395.733 105.482H512.921Z" fill="#E6D6F5"/>
<path d="M316.345 136.802H256.146V159.184H316.345V136.802Z" fill="#DFCDF7"/>
<path d="M397.112 136.802H336.914V159.184H397.112V136.802Z" fill="#DFCDF7"/>
<path d="M367.522 193.221H318.88V215.603H367.522V193.221Z" fill="#DFCDF7"/>
<path d="M300.018 193.221H251.376V215.603H300.018V193.221Z" fill="#DFCDF7"/>
<path d="M233.755 193.221H185.113V215.603H233.755V193.221Z" fill="#DFCDF7"/>
<path d="M374.131 239.419H325.488V261.802H374.131V239.419Z" fill="#DFCDF7"/>
<path d="M312.715 239.419H264.072V261.802H312.715V239.419Z" fill="#DFCDF7"/>
<path d="M247.21 239.419H198.567V261.802H247.21V239.419Z" fill="#DFCDF7"/>
<path d="M170.448 136.802V182.287H192.832V136.802H170.448Z" fill="#DFCDF7"/>
<path d="M443.342 136.802H420.958V159.184H443.342V136.802Z" fill="#DFCDF7"/>
<path d="M483.316 136.465H460.932V158.848H483.316V136.465Z" fill="#DFCDF7"/>
<path d="M547.718 110.49H529.125V133.394H547.718V110.49Z" fill="#DFCDF7"/>
<path d="M483.316 165.739H460.932V188.122H483.316V165.739Z" fill="#DFCDF7"/>
<path d="M547.542 153.862H529.301V176.26H547.542V153.862Z" fill="#DFCDF7"/>
<path d="M443.342 193.221H420.958V215.603H443.342V193.221Z" fill="#DFCDF7"/>
<path d="M407.243 193.221H384.859V215.603H407.243V193.221Z" fill="#DFCDF7"/>
<path d="M412.221 239.419H389.837V261.802H412.221V239.419Z" fill="#DFCDF7"/>
<path d="M130.252 134.236L105.402 133.845V42.8516H167.676L167.561 95.2285" stroke="#D1B9ED" stroke-width="5.58812" stroke-miterlimit="10"/>
<path d="M642.545 22.8662V183.351C642.545 191.248 642.218 199.062 641.565 206.79H558.255V98.4835H422.957V22.8662H642.545Z" fill="#FCC3D2"/>
<path d="M584.131 191.537H629.121V149.054H584.131" stroke="#F1A1B1" stroke-width="5.58812" stroke-miterlimit="10"/>
<path d="M584.131 132.773H629.121V91.0859H584.131" stroke="#F1A1B1" stroke-width="5.58812" stroke-miterlimit="10"/>
<path d="M610.612 70.8166H629.121V36.8252H565.66V70.8166H589.017" stroke="#F1A1B1" stroke-width="5.58812" stroke-miterlimit="10"/>
<path d="M550.199 72.708V36.8252H497.23" stroke="#F1A1B1" stroke-width="5.58812" stroke-miterlimit="10"/>
<path d="M436.335 84.6613V60.7471H485.613V84.6613" stroke="#F1A1B1" stroke-width="5.58812" stroke-miterlimit="10"/>
<path d="M487.911 36.8252H438.632" stroke="#F1A1B1" stroke-width="5.58812" stroke-miterlimit="10"/>
<path d="M0 228.124C2.33564 254.198 15.3156 299.828 43.9559 347.435C51.9966 360.782 88.0573 418.32 161.381 454.639C220.989 484.166 275.023 481.976 325.488 481.976C383.297 481.976 426.924 482.788 479.809 460.382C549.104 431.016 588.55 381.962 603.398 361.325C631.732 321.922 650.027 276.203 656.697 228.132V589.196H0V228.124Z" fill="white"/>
<path d="M39.1008 435.656H0V563.597H39.1008V435.656Z" fill="#A0A0A0"/>
<path d="M657.011 435.656H617.91V563.597H657.011V435.656Z" fill="#A0A0A0"/>
<path d="M256.912 480.077V519.176H384.859V480.077H256.912Z" fill="#A0A0A0"/>
<path d="M280.886 504.562C280.54 504.562 280.273 504.472 280.084 504.294C279.906 504.106 279.817 503.839 279.817 503.493V494.554C279.817 494.208 279.906 493.946 280.084 493.768C280.273 493.58 280.54 493.486 280.886 493.486H286.494C286.756 493.486 286.955 493.554 287.091 493.69C287.238 493.826 287.311 494.02 287.311 494.271C287.311 494.533 287.238 494.737 287.091 494.884C286.955 495.02 286.756 495.088 286.494 495.088H281.75V498.136H286.149C286.421 498.136 286.625 498.204 286.761 498.34C286.898 498.476 286.966 498.675 286.966 498.937C286.966 499.199 286.898 499.398 286.761 499.534C286.625 499.67 286.421 499.738 286.149 499.738H281.75V502.959H286.494C286.756 502.959 286.955 503.027 287.091 503.163C287.238 503.299 287.311 503.498 287.311 503.76C287.311 504.022 287.238 504.221 287.091 504.357C286.955 504.493 286.756 504.562 286.494 504.562H280.886ZM290.134 504.687C289.83 504.687 289.595 504.603 289.427 504.436C289.27 504.268 289.191 504.027 289.191 503.713V494.365C289.191 494.041 289.27 493.795 289.427 493.627C289.595 493.449 289.809 493.36 290.071 493.36C290.312 493.36 290.49 493.407 290.605 493.501C290.731 493.585 290.878 493.732 291.045 493.941L297.062 501.749H296.654V494.318C296.654 494.014 296.733 493.779 296.89 493.611C297.057 493.444 297.293 493.36 297.597 493.36C297.9 493.36 298.131 493.444 298.288 493.611C298.445 493.779 298.524 494.014 298.524 494.318V503.745C298.524 504.038 298.45 504.268 298.304 504.436C298.157 504.603 297.958 504.687 297.707 504.687C297.466 504.687 297.272 504.64 297.125 504.546C296.989 504.452 296.837 504.3 296.67 504.09L290.668 496.282H291.061V503.713C291.061 504.027 290.982 504.268 290.825 504.436C290.668 504.603 290.438 504.687 290.134 504.687ZM304.62 504.687C304.295 504.687 304.044 504.598 303.866 504.42C303.698 504.232 303.615 503.975 303.615 503.65V495.167H300.551C300.279 495.167 300.064 495.093 299.907 494.947C299.76 494.79 299.687 494.58 299.687 494.318C299.687 494.046 299.76 493.842 299.907 493.706C300.064 493.559 300.279 493.486 300.551 493.486H308.689C308.961 493.486 309.171 493.559 309.317 493.706C309.475 493.842 309.553 494.046 309.553 494.318C309.553 494.58 309.475 494.79 309.317 494.947C309.171 495.093 308.961 495.167 308.689 495.167H305.625V503.65C305.625 503.975 305.542 504.232 305.374 504.42C305.207 504.598 304.955 504.687 304.62 504.687ZM311.707 504.687C311.382 504.687 311.131 504.598 310.953 504.42C310.785 504.232 310.701 503.975 310.701 503.65V494.507C310.701 494.172 310.79 493.92 310.969 493.753C311.147 493.575 311.398 493.486 311.723 493.486H315.509C316.724 493.486 317.661 493.779 318.321 494.365C318.981 494.941 319.311 495.753 319.311 496.8C319.311 497.481 319.159 498.068 318.855 498.56C318.562 499.052 318.133 499.429 317.567 499.691C317.001 499.953 316.315 500.084 315.509 500.084L315.65 499.848H316.169C316.598 499.848 316.97 499.953 317.284 500.163C317.609 500.372 317.892 500.702 318.133 501.152L319.311 503.336C319.437 503.556 319.494 503.771 319.484 503.98C319.473 504.19 319.395 504.363 319.248 504.499C319.101 504.624 318.887 504.687 318.604 504.687C318.321 504.687 318.091 504.63 317.913 504.514C317.735 504.389 317.577 504.2 317.441 503.949L315.855 501.027C315.666 500.671 315.441 500.435 315.179 500.32C314.928 500.194 314.603 500.131 314.205 500.131H312.712V503.65C312.712 503.975 312.629 504.232 312.461 504.42C312.293 504.598 312.042 504.687 311.707 504.687ZM312.712 498.639H315.163C315.886 498.639 316.431 498.492 316.797 498.199C317.174 497.895 317.363 497.445 317.363 496.848C317.363 496.261 317.174 495.821 316.797 495.528C316.431 495.224 315.886 495.072 315.163 495.072H312.712V498.639ZM321.382 504.687C321.131 504.687 320.927 504.63 320.77 504.514C320.623 504.399 320.534 504.247 320.503 504.059C320.471 503.86 320.508 503.64 320.613 503.399L324.76 494.208C324.896 493.905 325.059 493.69 325.247 493.564C325.446 493.428 325.671 493.36 325.923 493.36C326.164 493.36 326.378 493.428 326.567 493.564C326.766 493.69 326.933 493.905 327.07 494.208L331.233 503.399C331.348 503.64 331.39 503.86 331.359 504.059C331.327 504.258 331.238 504.415 331.091 504.53C330.945 504.635 330.751 504.687 330.51 504.687C330.217 504.687 329.987 504.619 329.819 504.483C329.662 504.336 329.52 504.116 329.395 503.823L328.374 501.451L329.222 502.001H322.592L323.44 501.451L322.435 503.823C322.299 504.127 322.157 504.347 322.011 504.483C321.864 504.619 321.655 504.687 321.382 504.687ZM325.891 495.669L323.692 500.901L323.283 500.398H328.531L328.138 500.901L325.923 495.669H325.891ZM333.906 504.687C333.602 504.687 333.366 504.603 333.199 504.436C333.042 504.268 332.963 504.027 332.963 503.713V494.365C332.963 494.041 333.042 493.795 333.199 493.627C333.366 493.449 333.581 493.36 333.843 493.36C334.084 493.36 334.262 493.407 334.377 493.501C334.503 493.585 334.65 493.732 334.817 493.941L340.834 501.749H340.426V494.318C340.426 494.014 340.504 493.779 340.661 493.611C340.829 493.444 341.065 493.36 341.368 493.36C341.672 493.36 341.903 493.444 342.06 493.611C342.217 493.779 342.295 494.014 342.295 494.318V503.745C342.295 504.038 342.222 504.268 342.075 504.436C341.929 504.603 341.73 504.687 341.478 504.687C341.238 504.687 341.044 504.64 340.897 504.546C340.761 504.452 340.609 504.3 340.441 504.09L334.44 496.282H334.833V503.713C334.833 504.027 334.754 504.268 334.597 504.436C334.44 504.603 334.21 504.687 333.906 504.687ZM349.869 504.719C348.716 504.719 347.727 504.488 346.899 504.027C346.082 503.556 345.454 502.896 345.014 502.048C344.574 501.189 344.354 500.178 344.354 499.016C344.354 498.146 344.48 497.366 344.731 496.675C344.983 495.973 345.344 495.376 345.815 494.884C346.287 494.381 346.863 493.999 347.543 493.737C348.235 493.465 349.01 493.328 349.869 493.328C350.445 493.328 351.01 493.402 351.565 493.548C352.12 493.695 352.607 493.905 353.026 494.177C353.246 494.313 353.393 494.481 353.466 494.68C353.54 494.868 353.555 495.057 353.513 495.245C353.472 495.423 353.383 495.575 353.246 495.701C353.121 495.826 352.958 495.9 352.759 495.921C352.571 495.931 352.361 495.863 352.131 495.716C351.806 495.507 351.455 495.355 351.078 495.261C350.701 495.167 350.319 495.119 349.931 495.119C349.188 495.119 348.559 495.271 348.046 495.575C347.533 495.879 347.145 496.319 346.884 496.895C346.622 497.471 346.491 498.178 346.491 499.016C346.491 499.843 346.622 500.55 346.884 501.137C347.145 501.723 347.533 502.168 348.046 502.472C348.559 502.776 349.188 502.928 349.931 502.928C350.329 502.928 350.722 502.88 351.11 502.786C351.497 502.681 351.864 502.524 352.209 502.315C352.44 502.179 352.644 502.121 352.822 502.142C353.011 502.153 353.168 502.215 353.293 502.331C353.419 502.446 353.503 502.592 353.545 502.771C353.587 502.938 353.576 503.116 353.513 503.305C353.451 503.483 353.325 503.64 353.136 503.776C352.717 504.08 352.215 504.315 351.628 504.483C351.052 504.64 350.466 504.719 349.869 504.719ZM356.462 504.562C356.117 504.562 355.849 504.472 355.661 504.294C355.483 504.106 355.394 503.839 355.394 503.493V494.554C355.394 494.208 355.483 493.946 355.661 493.768C355.849 493.58 356.117 493.486 356.462 493.486H362.071C362.333 493.486 362.532 493.554 362.668 493.69C362.814 493.826 362.888 494.02 362.888 494.271C362.888 494.533 362.814 494.737 362.668 494.884C362.532 495.02 362.333 495.088 362.071 495.088H357.326V498.136H361.725C361.998 498.136 362.202 498.204 362.338 498.34C362.474 498.476 362.542 498.675 362.542 498.937C362.542 499.199 362.474 499.398 362.338 499.534C362.202 499.67 361.998 499.738 361.725 499.738H357.326V502.959H362.071C362.333 502.959 362.532 503.027 362.668 503.163C362.814 503.299 362.888 503.498 362.888 503.76C362.888 504.022 362.814 504.221 362.668 504.357C362.532 504.493 362.333 504.562 362.071 504.562H356.462Z" fill="white"/>
<path d="M23.1267 552.194C23.1267 553.248 22.916 554.153 22.4945 554.91C22.0634 555.657 21.4599 556.232 20.6839 556.634C19.8984 557.037 18.974 557.238 17.9106 557.238C17.1155 557.238 16.4018 557.123 15.7696 556.893C15.1277 556.663 14.5817 556.332 14.1315 555.901C13.6716 555.47 13.322 554.943 13.0825 554.321C12.8334 553.688 12.7089 552.98 12.7089 552.194C12.7089 551.667 12.7759 551.15 12.9101 550.642C13.0442 550.134 13.2358 549.689 13.4848 549.306C13.6094 549.105 13.7626 548.971 13.9447 548.903C14.1171 548.836 14.2895 548.822 14.462 548.86C14.6248 548.899 14.7637 548.98 14.8787 549.105C14.9936 549.22 15.0607 549.368 15.0798 549.55C15.0894 549.723 15.0271 549.914 14.893 550.125C14.7014 550.422 14.5625 550.743 14.4763 551.088C14.3901 551.432 14.347 551.782 14.347 552.137C14.347 552.817 14.4859 553.391 14.7637 553.861C15.0415 554.33 15.4439 554.685 15.9707 554.924C16.4976 555.164 17.1442 555.283 17.9106 555.283C18.6674 555.283 19.314 555.164 19.8505 554.924C20.387 554.685 20.7941 554.33 21.0719 553.861C21.3497 553.391 21.4886 552.817 21.4886 552.137C21.4886 551.773 21.4455 551.413 21.3593 551.059C21.2635 550.704 21.1198 550.369 20.9282 550.053C20.8037 549.842 20.751 549.655 20.7701 549.493C20.7797 549.32 20.8372 549.176 20.9426 549.062C21.0479 548.947 21.1821 548.87 21.3449 548.832C21.4982 548.793 21.661 548.803 21.8335 548.86C21.9963 548.918 22.14 549.033 22.2646 549.205C22.5424 549.588 22.7579 550.048 22.9112 550.585C23.0549 551.112 23.1267 551.648 23.1267 552.194ZM23.098 546.221C23.098 546.518 23.0166 546.748 22.8537 546.911C22.6813 547.064 22.4466 547.14 22.1496 547.14H13.686C13.3795 547.14 13.1448 547.064 12.9819 546.911C12.819 546.748 12.7376 546.518 12.7376 546.221C12.7376 545.924 12.819 545.699 12.9819 545.545C13.1448 545.383 13.3795 545.301 13.686 545.301H17.0772V540.085H13.686C13.3795 540.085 13.1448 540.008 12.9819 539.855C12.819 539.692 12.7376 539.462 12.7376 539.165C12.7376 538.868 12.819 538.643 12.9819 538.49C13.1448 538.327 13.3795 538.246 13.686 538.246H22.1496C22.4466 538.246 22.6813 538.327 22.8537 538.49C23.0166 538.643 23.098 538.868 23.098 539.165C23.098 539.462 23.0166 539.692 22.8537 539.855C22.6813 540.008 22.4466 540.085 22.1496 540.085H18.6147V545.301H22.1496C22.4466 545.301 22.6813 545.378 22.8537 545.531C23.0166 545.684 23.098 545.914 23.098 546.221ZM22.983 535.05C22.983 535.366 22.9016 535.61 22.7388 535.782C22.5663 535.945 22.322 536.027 22.0059 536.027H13.8297C13.5136 536.027 13.2741 535.945 13.1112 535.782C12.9388 535.61 12.8526 535.366 12.8526 535.05V529.92C12.8526 529.68 12.9148 529.498 13.0394 529.374C13.1639 529.239 13.3411 529.172 13.571 529.172C13.8105 529.172 13.9973 529.239 14.1315 529.374C14.256 529.498 14.3183 529.68 14.3183 529.92V534.259H17.1059V530.236C17.1059 529.987 17.1682 529.8 17.2927 529.675C17.4173 529.551 17.5993 529.489 17.8388 529.489C18.0783 529.489 18.2603 529.551 18.3848 529.675C18.5093 529.8 18.5716 529.987 18.5716 530.236V534.259H21.5173V529.92C21.5173 529.68 21.5796 529.498 21.7042 529.374C21.8287 529.239 22.0107 529.172 22.2502 529.172C22.4897 529.172 22.6717 529.239 22.7962 529.374C22.9208 529.498 22.983 529.68 22.983 529.92V535.05ZM23.1267 522.754C23.1267 523.807 22.916 524.713 22.4945 525.469C22.0634 526.217 21.4599 526.791 20.6839 527.194C19.8984 527.596 18.974 527.797 17.9106 527.797C17.1155 527.797 16.4018 527.682 15.7696 527.452C15.1277 527.222 14.5817 526.892 14.1315 526.461C13.6716 526.03 13.322 525.503 13.0825 524.88C12.8334 524.248 12.7089 523.539 12.7089 522.754C12.7089 522.227 12.7759 521.709 12.9101 521.202C13.0442 520.694 13.2358 520.248 13.4848 519.865C13.6094 519.664 13.7626 519.53 13.9447 519.463C14.1171 519.396 14.2895 519.381 14.462 519.42C14.6248 519.458 14.7637 519.54 14.8787 519.664C14.9936 519.779 15.0607 519.928 15.0798 520.11C15.0894 520.282 15.0271 520.474 14.893 520.684C14.7014 520.981 14.5625 521.302 14.4763 521.647C14.3901 521.992 14.347 522.342 14.347 522.696C14.347 523.376 14.4859 523.951 14.7637 524.42C15.0415 524.89 15.4439 525.244 15.9707 525.484C16.4976 525.723 17.1442 525.843 17.9106 525.843C18.6674 525.843 19.314 525.723 19.8505 525.484C20.387 525.244 20.7941 524.89 21.0719 524.42C21.3497 523.951 21.4886 523.376 21.4886 522.696C21.4886 522.332 21.4455 521.973 21.3593 521.618C21.2635 521.264 21.1198 520.929 20.9282 520.612C20.8037 520.402 20.751 520.215 20.7701 520.052C20.7797 519.88 20.8372 519.736 20.9426 519.621C21.0479 519.506 21.1821 519.429 21.3449 519.391C21.4982 519.353 21.661 519.362 21.8335 519.42C21.9963 519.477 22.14 519.592 22.2646 519.765C22.5424 520.148 22.7579 520.608 22.9112 521.144C23.0549 521.671 23.1267 522.207 23.1267 522.754ZM23.098 516.78C23.098 517.077 23.0166 517.307 22.8537 517.47C22.6813 517.623 22.4466 517.7 22.1496 517.7H13.6716C13.3651 517.7 13.1352 517.623 12.9819 517.47C12.819 517.307 12.7376 517.077 12.7376 516.78C12.7376 516.483 12.819 516.258 12.9819 516.105C13.1352 515.942 13.3651 515.861 13.6716 515.861H17.3358V515.832L13.1974 511.708C13.0442 511.555 12.9292 511.401 12.8526 511.248C12.7759 511.095 12.7376 510.922 12.7376 510.731C12.7376 510.453 12.8095 510.257 12.9532 510.142C13.0969 510.017 13.2645 509.969 13.4561 509.998C13.6477 510.017 13.8249 510.108 13.9878 510.271L18.1405 514.467L17.3071 514.452L21.7616 510.07C21.9532 509.869 22.1544 509.763 22.3651 509.754C22.5759 509.744 22.7531 509.811 22.8968 509.955C23.0309 510.089 23.098 510.29 23.098 510.558C23.098 510.788 23.0501 510.975 22.9543 511.119C22.8585 511.253 22.7196 511.411 22.5376 511.593L18.2986 515.832V515.861H22.1496C22.4466 515.861 22.6813 515.937 22.8537 516.091C23.0166 516.244 23.098 516.474 23.098 516.78ZM23.098 503.323C23.098 503.62 23.0166 503.85 22.8537 504.013C22.6813 504.166 22.4466 504.243 22.1496 504.243H13.686C13.3795 504.243 13.1448 504.166 12.9819 504.013C12.819 503.85 12.7376 503.62 12.7376 503.323C12.7376 503.026 12.819 502.801 12.9819 502.648C13.1448 502.485 13.3795 502.403 13.686 502.403H22.1496C22.4466 502.403 22.6813 502.48 22.8537 502.633C23.0166 502.787 23.098 503.016 23.098 503.323ZM23.098 499.325C23.098 499.603 23.0214 499.818 22.8681 499.972C22.7148 500.115 22.4945 500.187 22.2071 500.187H13.6573C13.3603 500.187 13.1352 500.115 12.9819 499.972C12.819 499.818 12.7376 499.622 12.7376 499.383C12.7376 499.162 12.7807 498.999 12.8669 498.894C12.9436 498.779 13.0777 498.645 13.2693 498.492L20.4109 492.988V493.362H13.6142C13.3363 493.362 13.1208 493.29 12.9675 493.146C12.8143 492.993 12.7376 492.777 12.7376 492.5C12.7376 492.222 12.8143 492.011 12.9675 491.867C13.1208 491.724 13.3363 491.652 13.6142 491.652H22.2358C22.5041 491.652 22.7148 491.719 22.8681 491.853C23.0214 491.987 23.098 492.169 23.098 492.399C23.098 492.619 23.0549 492.797 22.9687 492.931C22.8824 493.055 22.7435 493.194 22.5519 493.347L15.4103 498.836V498.477H22.2071C22.4945 498.477 22.7148 498.549 22.8681 498.693C23.0214 498.836 23.098 499.047 23.098 499.325ZM23.098 485.437C23.098 485.666 23.0453 485.853 22.9399 485.997C22.8345 486.131 22.6956 486.212 22.5232 486.241C22.3412 486.27 22.14 486.236 21.9197 486.141L13.5136 482.347C13.2358 482.223 13.0394 482.074 12.9244 481.902C12.7999 481.72 12.7376 481.514 12.7376 481.284C12.7376 481.063 12.7999 480.867 12.9244 480.695C13.0394 480.513 13.2358 480.359 13.5136 480.235L21.9197 476.427C22.14 476.322 22.3412 476.283 22.5232 476.312C22.7052 476.341 22.8489 476.422 22.9543 476.556C23.0501 476.69 23.098 476.868 23.098 477.088C23.098 477.356 23.0357 477.567 22.9112 477.72C22.7771 477.864 22.5759 477.993 22.3077 478.108L20.1379 479.042L20.6408 478.266V484.33L20.1379 483.554L22.3077 484.474C22.5855 484.598 22.7866 484.728 22.9112 484.862C23.0357 484.996 23.098 485.187 23.098 485.437ZM14.8499 481.312L19.635 483.324L19.1751 483.698V478.898L19.635 479.258L14.8499 481.284V481.312ZM23.098 473.925C23.098 474.222 23.0166 474.451 22.8537 474.614C22.6813 474.768 22.4466 474.844 22.1496 474.844H13.7866C13.48 474.844 13.2501 474.763 13.0969 474.6C12.934 474.437 12.8526 474.207 12.8526 473.91V470.447C12.8526 469.336 13.1208 468.479 13.6573 467.875C14.1841 467.272 14.9266 466.97 15.8845 466.97C16.5072 466.97 17.0437 467.109 17.4939 467.386C17.9441 467.655 18.289 468.047 18.5285 468.565C18.768 469.082 18.8877 469.71 18.8877 470.447L18.6722 470.318V469.844C18.6722 469.451 18.768 469.111 18.9596 468.823C19.1512 468.526 19.4529 468.268 19.8649 468.047L21.8622 466.97C22.0634 466.855 22.2598 466.802 22.4514 466.812C22.643 466.821 22.801 466.893 22.9256 467.027C23.0405 467.161 23.098 467.358 23.098 467.616C23.098 467.875 23.0453 468.086 22.9399 468.249C22.825 468.411 22.6525 468.555 22.4226 468.68L19.7499 470.131C19.4242 470.303 19.2087 470.509 19.1033 470.749C18.9883 470.979 18.9308 471.276 18.9308 471.64V473.005H22.1496C22.4466 473.005 22.6813 473.082 22.8537 473.235C23.0166 473.388 23.098 473.618 23.098 473.925ZM17.5658 473.005V470.763C17.5658 470.102 17.4316 469.604 17.1634 469.269C16.8856 468.924 16.4737 468.752 15.9276 468.752C15.3912 468.752 14.9888 468.924 14.7206 469.269C14.4428 469.604 14.3039 470.102 14.3039 470.763V473.005H17.5658ZM22.983 464.016C22.983 464.332 22.9016 464.577 22.7388 464.749C22.5663 464.912 22.322 464.993 22.0059 464.993H13.8297C13.5136 464.993 13.2741 464.912 13.1112 464.749C12.9388 464.577 12.8526 464.332 12.8526 464.016L12.8526 458.886C12.8526 458.647 12.9148 458.465 13.0394 458.34C13.1639 458.206 13.3411 458.139 13.571 458.139C13.8105 458.139 13.9973 458.206 14.1315 458.34C14.256 458.465 14.3183 458.647 14.3183 458.886V463.226H17.1059V459.202C17.1059 458.953 17.1682 458.767 17.2927 458.642C17.4173 458.517 17.5993 458.455 17.8388 458.455C18.0783 458.455 18.2603 458.517 18.3848 458.642C18.5093 458.767 18.5716 458.953 18.5716 459.202V463.226H21.5173V458.886C21.5173 458.647 21.5796 458.465 21.7042 458.34C21.8287 458.206 22.0107 458.139 22.2502 458.139C22.4897 458.139 22.6717 458.206 22.7962 458.34C22.9208 458.465 22.983 458.647 22.983 458.886V464.016ZM23.098 456.501C23.098 456.731 23.0453 456.918 22.9399 457.062C22.8345 457.196 22.6956 457.277 22.5232 457.306C22.3412 457.335 22.14 457.301 21.9197 457.205L13.5136 453.412C13.2358 453.287 13.0394 453.139 12.9244 452.966C12.7999 452.784 12.7376 452.578 12.7376 452.348C12.7376 452.128 12.7999 451.932 12.9244 451.759C13.0394 451.577 13.2358 451.424 13.5136 451.299L21.9197 447.492C22.14 447.386 22.3412 447.348 22.5232 447.377C22.7052 447.405 22.8489 447.487 22.9543 447.621C23.0501 447.755 23.098 447.932 23.098 448.153C23.098 448.421 23.0357 448.632 22.9112 448.785C22.7771 448.928 22.5759 449.058 22.3077 449.173L20.1379 450.107L20.6408 449.331V455.395L20.1379 454.619L22.3077 455.538C22.5855 455.663 22.7866 455.792 22.9112 455.926C23.0357 456.061 23.098 456.252 23.098 456.501ZM14.8499 452.377L19.635 454.389L19.1751 454.762V449.963L19.635 450.322L14.8499 452.348V452.377Z" fill="white"/>
<path d="M645.188 546.187C645.188 546.512 645.099 546.768 644.921 546.957C644.732 547.135 644.465 547.224 644.12 547.224H635.055C634.709 547.224 634.447 547.135 634.269 546.957C634.081 546.768 633.986 546.501 633.986 546.156V540.673C633.986 540.4 634.054 540.196 634.191 540.06C634.327 539.924 634.521 539.856 634.772 539.856C635.034 539.856 635.238 539.924 635.385 540.06C635.521 540.196 635.589 540.4 635.589 540.673V545.213H638.715V541.002C638.715 540.741 638.783 540.542 638.92 540.405C639.056 540.259 639.249 540.186 639.501 540.186C639.763 540.186 639.967 540.259 640.114 540.405C640.25 540.542 640.318 540.741 640.318 541.002V545.213H644.12C644.832 545.213 645.188 545.538 645.188 546.187ZM645.219 533.637C645.219 534.705 644.984 535.643 644.513 536.449C644.041 537.245 643.381 537.863 642.533 538.303C641.674 538.743 640.669 538.963 639.517 538.963C638.647 538.963 637.867 538.837 637.176 538.586C636.474 538.334 635.877 537.978 635.385 537.517C634.882 537.046 634.5 536.486 634.238 535.836C633.965 535.177 633.829 534.443 633.829 533.637C633.829 532.558 634.065 531.621 634.536 530.825C634.997 530.029 635.652 529.411 636.5 528.971C637.348 528.531 638.349 528.311 639.501 528.311C640.37 528.311 641.156 528.437 641.857 528.688C642.559 528.939 643.161 529.301 643.664 529.772C644.167 530.233 644.554 530.793 644.827 531.453C645.089 532.103 645.219 532.83 645.219 533.637ZM643.491 533.637C643.491 532.956 643.334 532.38 643.02 531.909C642.706 531.427 642.25 531.06 641.653 530.809C641.056 530.547 640.344 530.416 639.517 530.416C638.26 530.416 637.286 530.699 636.594 531.265C635.903 531.82 635.557 532.61 635.557 533.637C635.557 534.307 635.715 534.883 636.029 535.365C636.333 535.847 636.783 536.219 637.38 536.481C637.966 536.732 638.679 536.858 639.517 536.858C640.763 536.858 641.737 536.575 642.439 536.009C643.14 535.444 643.491 534.653 643.491 533.637ZM645.219 521.302C645.219 522.37 644.984 523.307 644.513 524.114C644.041 524.91 643.381 525.528 642.533 525.968C641.674 526.408 640.669 526.628 639.517 526.628C638.647 526.628 637.867 526.502 637.176 526.25C636.474 525.999 635.877 525.643 635.385 525.182C634.882 524.711 634.5 524.15 634.238 523.501C633.965 522.841 633.829 522.108 633.829 521.302C633.829 520.223 634.065 519.285 634.536 518.489C634.997 517.693 635.652 517.075 636.5 516.636C637.348 516.196 638.349 515.976 639.501 515.976C640.37 515.976 641.156 516.101 641.857 516.353C642.559 516.604 643.161 516.966 643.664 517.437C644.167 517.898 644.554 518.458 644.827 519.118C645.089 519.767 645.219 520.495 645.219 521.302ZM643.491 521.302C643.491 520.621 643.334 520.045 643.02 519.573C642.706 519.092 642.25 518.725 641.653 518.474C641.056 518.212 640.344 518.081 639.517 518.081C638.26 518.081 637.286 518.364 636.594 518.929C635.903 519.484 635.557 520.275 635.557 521.302C635.557 521.972 635.715 522.548 636.029 523.03C636.333 523.512 636.783 523.883 637.38 524.145C637.966 524.397 638.679 524.522 639.517 524.522C640.763 524.522 641.737 524.24 642.439 523.674C643.14 523.108 643.491 522.318 643.491 521.302ZM645.062 512.863C645.062 513.208 644.973 513.475 644.795 513.664C644.607 513.842 644.34 513.931 643.994 513.931H635.055C634.709 513.931 634.447 513.842 634.269 513.664C634.081 513.475 633.986 513.208 633.986 512.863V509.815C633.986 507.961 634.463 506.531 635.416 505.526C636.369 504.51 637.736 504.002 639.517 504.002C640.407 504.002 641.198 504.133 641.889 504.395C642.57 504.646 643.146 505.023 643.617 505.526C644.088 506.018 644.45 506.625 644.701 507.348C644.942 508.06 645.062 508.883 645.062 509.815V512.863ZM643.397 511.92V509.94C643.397 509.291 643.319 508.731 643.161 508.259C642.994 507.778 642.753 507.38 642.439 507.065C642.114 506.741 641.711 506.5 641.229 506.343C640.737 506.186 640.166 506.107 639.517 506.107C638.218 506.107 637.249 506.426 636.61 507.065C635.971 507.704 635.652 508.663 635.652 509.94V511.92H643.397ZM645.188 497.589C645.188 497.84 645.13 498.044 645.015 498.201C644.9 498.348 644.748 498.437 644.56 498.469C644.361 498.5 644.141 498.463 643.9 498.359L634.709 494.211C634.405 494.075 634.191 493.912 634.065 493.724C633.929 493.525 633.861 493.3 633.861 493.048C633.861 492.807 633.929 492.593 634.065 492.404C634.191 492.205 634.405 492.038 634.709 491.901L643.9 487.738C644.141 487.623 644.361 487.581 644.56 487.612C644.759 487.644 644.916 487.733 645.031 487.88C645.136 488.026 645.188 488.22 645.188 488.461C645.188 488.754 645.12 488.985 644.984 489.152C644.837 489.309 644.617 489.451 644.324 489.576L641.952 490.597L642.502 489.749V496.379L641.952 495.531L644.324 496.536C644.628 496.672 644.848 496.814 644.984 496.96C645.12 497.107 645.188 497.316 645.188 497.589ZM636.17 493.08L641.402 495.279L640.899 495.688V490.44L641.402 490.833L636.17 493.048V493.08ZM645.188 485.002C645.188 485.327 645.099 485.578 644.921 485.756C644.732 485.924 644.476 486.008 644.151 486.008H635.008C634.672 486.008 634.421 485.919 634.253 485.741C634.075 485.563 633.986 485.311 633.986 484.987V481.2C633.986 479.985 634.28 479.048 634.866 478.388C635.442 477.728 636.254 477.398 637.301 477.398C637.982 477.398 638.569 477.55 639.061 477.854C639.553 478.147 639.93 478.577 640.192 479.142C640.454 479.708 640.585 480.394 640.585 481.2L640.349 481.059V480.541C640.349 480.111 640.454 479.739 640.663 479.425C640.873 479.1 641.203 478.818 641.653 478.577L643.837 477.398C644.057 477.273 644.272 477.215 644.481 477.226C644.691 477.236 644.863 477.315 645 477.461C645.125 477.608 645.188 477.823 645.188 478.105C645.188 478.388 645.13 478.619 645.015 478.797C644.89 478.975 644.701 479.132 644.45 479.268L641.527 480.855C641.171 481.043 640.936 481.268 640.821 481.53C640.695 481.782 640.632 482.106 640.632 482.504V483.997H644.151C644.476 483.997 644.732 484.081 644.921 484.248C645.099 484.416 645.188 484.667 645.188 485.002ZM639.139 483.997V481.546C639.139 480.823 638.993 480.279 638.7 479.912C638.396 479.535 637.945 479.347 637.348 479.347C636.762 479.347 636.322 479.535 636.029 479.912C635.725 480.279 635.573 480.823 635.573 481.546V483.997H639.139ZM645.062 474.169C645.062 474.515 644.973 474.782 644.795 474.97C644.607 475.148 644.34 475.237 643.994 475.237H635.055C634.709 475.237 634.447 475.148 634.269 474.97C634.081 474.782 633.986 474.515 633.986 474.169V468.56C633.986 468.299 634.054 468.1 634.191 467.963C634.327 467.817 634.521 467.743 634.772 467.743C635.034 467.743 635.238 467.817 635.385 467.963C635.521 468.1 635.589 468.299 635.589 468.56V473.305H638.637V468.906C638.637 468.634 638.705 468.43 638.841 468.293C638.977 468.157 639.176 468.089 639.438 468.089C639.7 468.089 639.899 468.157 640.035 468.293C640.171 468.43 640.239 468.634 640.239 468.906V473.305H643.46V468.56C643.46 468.299 643.528 468.1 643.664 467.963C643.8 467.817 643.999 467.743 644.261 467.743C644.523 467.743 644.722 467.817 644.858 467.963C644.994 468.1 645.062 468.299 645.062 468.56V474.169ZM645.188 465.953C645.188 466.204 645.13 466.408 645.015 466.565C644.9 466.712 644.748 466.801 644.56 466.833C644.361 466.864 644.141 466.827 643.9 466.723L634.709 462.575C634.405 462.439 634.191 462.276 634.065 462.088C633.929 461.889 633.861 461.664 633.861 461.412C633.861 461.171 633.929 460.957 634.065 460.768C634.191 460.569 634.405 460.402 634.709 460.265L643.9 456.102C644.141 455.987 644.361 455.945 644.56 455.977C644.759 456.008 644.916 456.097 645.031 456.244C645.136 456.39 645.188 456.584 645.188 456.825C645.188 457.118 645.12 457.349 644.984 457.516C644.837 457.673 644.617 457.815 644.324 457.94L641.952 458.962L642.502 458.113V464.743L641.952 463.895L644.324 464.9C644.628 465.036 644.848 465.178 644.984 465.324C645.12 465.471 645.188 465.68 645.188 465.953ZM636.17 461.444L641.402 463.643L640.899 464.052V458.804L641.402 459.197L636.17 461.412V461.444Z" fill="white"/>
</g>
<path d="M298.277 55.9404V36.3546H306.349C307.556 36.3546 308.634 36.4634 309.584 36.681C310.533 36.8788 311.344 37.1954 312.017 37.6306C312.709 38.0461 313.234 38.5802 313.59 39.2331C313.946 39.8859 314.124 40.6674 314.124 41.5775C314.124 42.3292 313.966 43.0019 313.649 43.5954C313.333 44.1691 312.828 44.634 312.136 44.9901C311.443 45.3463 310.543 45.5935 309.435 45.732V46.1772C311.315 46.2959 312.699 46.7608 313.59 47.5719C314.48 48.3633 314.925 49.4415 314.925 50.8066C314.925 51.9342 314.628 52.8838 314.035 53.6554C313.441 54.4072 312.561 54.9809 311.394 55.3766C310.246 55.7525 308.812 55.9404 307.091 55.9404H298.277ZM302.372 52.4981H307.061C307.556 52.4981 308.021 52.4684 308.456 52.409C308.891 52.3299 309.287 52.2112 309.643 52.0529C309.999 51.8749 310.266 51.6276 310.444 51.311C310.642 50.9945 310.741 50.5988 310.741 50.124C310.741 49.6888 310.662 49.3228 310.503 49.026C310.345 48.7095 310.128 48.4523 309.851 48.2545C309.574 48.0368 309.237 47.8588 308.842 47.7203C308.466 47.5818 308.04 47.4928 307.566 47.4532C307.111 47.3939 306.626 47.3642 306.111 47.3642H302.372V52.4981ZM302.372 44.6637H305.429C306.082 44.6637 306.675 44.6241 307.209 44.545C307.763 44.4659 308.238 44.3373 308.634 44.1592C309.049 43.9614 309.366 43.7042 309.584 43.3877C309.821 43.0513 309.94 42.6359 309.94 42.1413C309.94 41.6665 309.841 41.2807 309.643 40.9839C309.445 40.6674 309.168 40.4201 308.812 40.2421C308.456 40.064 308.04 39.9354 307.566 39.8563C307.111 39.7771 306.626 39.7376 306.111 39.7376H302.372V44.6637ZM316.439 55.9404L323.116 36.3546H329.318L336.025 55.9404H331.366L326.44 39.7376H326.024L321.068 55.9404H316.439ZM320.178 52.1123V49.1744H332.879V52.1123H320.178ZM338.646 55.9404V36.3546H346.599C347.549 36.3546 348.439 36.4337 349.27 36.592C350.101 36.7304 350.853 36.9481 351.526 37.2448C352.218 37.5416 352.811 37.9175 353.306 38.3725C353.82 38.8275 354.206 39.3716 354.463 40.0047C354.721 40.6179 354.849 41.3203 354.849 42.1116C354.849 42.804 354.74 43.4272 354.523 43.9812C354.325 44.5351 354.008 45.0297 353.573 45.465C353.138 45.8804 352.584 46.2266 351.911 46.5036C351.258 46.7608 350.497 46.9388 349.626 47.0378V47.4532C350.635 47.5719 351.446 47.8093 352.06 48.1654C352.673 48.5215 353.148 49.0062 353.484 49.6195C353.84 50.2328 354.147 50.9945 354.404 51.9046L355.561 55.9404H350.843L349.953 52.231C349.775 51.4396 349.517 50.8164 349.181 50.3614C348.845 49.9064 348.419 49.5899 347.905 49.4118C347.411 49.2338 346.807 49.1447 346.095 49.1447H342.92V55.9404L338.646 55.9404ZM342.92 45.9101H345.679C346.016 45.9101 346.392 45.9002 346.807 45.8804C347.223 45.8606 347.638 45.8013 348.053 45.7024C348.489 45.6034 348.875 45.4452 349.211 45.2275C349.567 45.0099 349.854 44.7033 350.071 44.3076C350.309 43.9119 350.428 43.4074 350.428 42.7942C350.428 42.1611 350.319 41.6467 350.101 41.251C349.883 40.8553 349.607 40.5487 349.27 40.3311C348.934 40.1135 348.578 39.9552 348.202 39.8563C347.826 39.7574 347.47 39.698 347.134 39.6782C346.797 39.6584 346.53 39.6485 346.332 39.6485H342.92V45.9101Z" fill="white"/>
<path d="M265.51 405.79V402.678H270.547C271.163 402.678 271.734 402.581 272.262 402.387C272.807 402.194 273.273 401.886 273.66 401.464C274.064 401.025 274.372 400.453 274.583 399.75C274.812 399.029 274.926 398.158 274.926 397.139C274.926 396.154 274.82 395.31 274.609 394.606C274.416 393.885 274.108 393.296 273.686 392.839C273.282 392.364 272.763 392.022 272.13 391.811C271.515 391.6 270.794 391.494 269.967 391.494H265.51V388.382H269.835C271.945 388.382 273.669 388.725 275.005 389.41C276.341 390.096 277.317 391.081 277.933 392.364C278.566 393.631 278.882 395.152 278.882 396.928C278.882 398.299 278.715 399.486 278.381 400.488C278.065 401.491 277.625 402.335 277.062 403.021C276.517 403.689 275.893 404.234 275.19 404.656C274.486 405.06 273.739 405.35 272.948 405.526C272.174 405.702 271.409 405.79 270.653 405.79H265.51ZM263.716 405.79V388.382H267.514V405.79H263.716ZM280.326 405.975L280.062 402.493C280.256 402.528 280.449 402.555 280.643 402.572C280.836 402.572 280.986 402.572 281.091 402.572C281.83 402.572 282.392 402.467 282.779 402.256C283.166 402.045 283.439 401.71 283.597 401.253C283.755 400.796 283.834 400.198 283.834 399.46V388.382H287.632V399.486C287.632 400.91 287.43 402.115 287.026 403.1C286.621 404.067 285.979 404.805 285.1 405.315C284.221 405.825 283.087 406.08 281.698 406.08C281.539 406.08 281.355 406.071 281.144 406.054C280.933 406.036 280.66 406.01 280.326 405.975ZM297.33 405.79V388.382H304.505C305.577 388.382 306.536 388.478 307.38 388.672C308.224 388.848 308.945 389.129 309.543 389.516C310.158 389.885 310.624 390.36 310.941 390.94C311.257 391.52 311.415 392.215 311.415 393.024C311.415 393.692 311.275 394.29 310.993 394.817C310.712 395.327 310.264 395.741 309.648 396.057C309.033 396.374 308.233 396.593 307.248 396.717V397.112C308.918 397.218 310.149 397.631 310.941 398.352C311.732 399.055 312.128 400.014 312.128 401.227C312.128 402.229 311.864 403.073 311.336 403.759C310.809 404.427 310.026 404.937 308.989 405.289C307.969 405.623 306.694 405.79 305.164 405.79H297.33ZM300.97 402.73H305.138C305.577 402.73 305.991 402.704 306.378 402.651C306.764 402.581 307.116 402.475 307.433 402.335C307.749 402.176 307.986 401.957 308.145 401.675C308.321 401.394 308.409 401.042 308.409 400.62C308.409 400.233 308.338 399.908 308.197 399.644C308.057 399.363 307.863 399.134 307.617 398.959C307.371 398.765 307.072 398.607 306.72 398.484C306.386 398.361 306.008 398.282 305.586 398.246C305.182 398.194 304.751 398.167 304.294 398.167H300.97V402.73ZM300.97 395.767H303.687C304.267 395.767 304.795 395.732 305.27 395.662C305.762 395.591 306.184 395.477 306.536 395.319C306.905 395.143 307.186 394.914 307.38 394.633C307.591 394.334 307.696 393.965 307.696 393.525C307.696 393.103 307.608 392.76 307.433 392.496C307.257 392.215 307.011 391.995 306.694 391.837C306.378 391.679 306.008 391.564 305.586 391.494C305.182 391.424 304.751 391.389 304.294 391.389H300.97V395.767ZM322.699 406.159C321.433 406.159 320.298 405.966 319.296 405.579C318.294 405.175 317.432 404.594 316.711 403.838C316.008 403.064 315.463 402.124 315.076 401.016C314.707 399.891 314.522 398.607 314.522 397.165C314.522 395.108 314.883 393.411 315.603 392.074C316.324 390.72 317.309 389.709 318.558 389.041C319.806 388.355 321.222 388.012 322.804 388.012C324.035 388.012 325.152 388.215 326.154 388.619C327.156 389.006 328.009 389.586 328.713 390.36C329.434 391.116 329.987 392.057 330.374 393.182C330.761 394.308 330.955 395.609 330.955 397.086C330.955 398.58 330.752 399.891 330.348 401.016C329.961 402.141 329.407 403.091 328.686 403.865C327.965 404.621 327.095 405.192 326.075 405.579C325.073 405.966 323.947 406.159 322.699 406.159ZM322.778 403.126C323.27 403.126 323.763 403.038 324.255 402.862C324.765 402.686 325.231 402.387 325.653 401.965C326.093 401.543 326.435 400.954 326.682 400.198C326.928 399.425 327.051 398.457 327.051 397.297C327.051 395.89 326.866 394.738 326.497 393.842C326.145 392.927 325.635 392.25 324.967 391.811C324.316 391.371 323.569 391.151 322.725 391.151C322.268 391.151 321.784 391.239 321.274 391.415C320.782 391.573 320.316 391.872 319.876 392.312C319.437 392.734 319.085 393.332 318.821 394.105C318.558 394.879 318.426 395.881 318.426 397.112C318.426 398.273 318.549 399.24 318.795 400.014C319.041 400.77 319.367 401.376 319.771 401.834C320.193 402.291 320.659 402.625 321.169 402.836C321.696 403.029 322.233 403.126 322.778 403.126ZM341.631 406.159C340.365 406.159 339.231 405.966 338.228 405.579C337.226 405.175 336.365 404.594 335.644 403.838C334.94 403.064 334.395 402.124 334.008 401.016C333.639 399.891 333.454 398.607 333.454 397.165C333.454 395.108 333.815 393.411 334.536 392.074C335.257 390.72 336.241 389.709 337.49 389.041C338.738 388.355 340.154 388.012 341.737 388.012C342.967 388.012 344.084 388.215 345.086 388.619C346.089 389.006 346.941 389.586 347.645 390.36C348.366 391.116 348.92 392.057 349.307 393.182C349.693 394.308 349.887 395.609 349.887 397.086C349.887 398.58 349.685 399.891 349.28 401.016C348.893 402.141 348.339 403.091 347.618 403.865C346.898 404.621 346.027 405.192 345.007 405.579C344.005 405.966 342.879 406.159 341.631 406.159ZM341.71 403.126C342.203 403.126 342.695 403.038 343.187 402.862C343.697 402.686 344.163 402.387 344.585 401.965C345.025 401.543 345.368 400.954 345.614 400.198C345.86 399.425 345.983 398.457 345.983 397.297C345.983 395.89 345.798 394.738 345.429 393.842C345.078 392.927 344.568 392.25 343.899 391.811C343.249 391.371 342.501 391.151 341.657 391.151C341.2 391.151 340.717 391.239 340.207 391.415C339.714 391.573 339.248 391.872 338.809 392.312C338.369 392.734 338.017 393.332 337.754 394.105C337.49 394.879 337.358 395.881 337.358 397.112C337.358 398.273 337.481 399.24 337.727 400.014C337.973 400.77 338.299 401.376 338.703 401.834C339.125 402.291 339.591 402.625 340.101 402.836C340.629 403.029 341.165 403.126 341.71 403.126ZM356.171 405.79V388.382H359.995V405.79H356.171ZM351.107 391.573V388.382H365.086V391.573H351.107ZM378.786 405.79V388.382H382.558V405.79H378.786ZM367.444 405.79V388.382H371.242V405.79H367.444ZM369.713 398.537V395.424H380.316V398.537H369.713Z" fill="white"/>
<path d="M225.248 205.594C222.944 205.594 220.964 205.134 219.309 204.212C217.675 203.269 216.419 201.95 215.539 200.253C214.659 198.535 214.219 196.514 214.219 194.189C214.219 192.45 214.47 190.889 214.973 189.507C215.476 188.103 216.199 186.909 217.141 185.925C218.084 184.919 219.236 184.155 220.598 183.631C221.98 183.086 223.53 182.814 225.248 182.814C226.4 182.814 227.531 182.961 228.641 183.254C229.752 183.547 230.726 183.966 231.564 184.511C232.003 184.783 232.297 185.118 232.443 185.516C232.59 185.893 232.621 186.27 232.538 186.648C232.454 187.004 232.276 187.307 232.003 187.559C231.752 187.81 231.427 187.957 231.029 187.999C230.652 188.02 230.233 187.883 229.773 187.59C229.123 187.171 228.421 186.867 227.667 186.679C226.913 186.49 226.149 186.396 225.374 186.396C223.886 186.396 222.629 186.7 221.603 187.307C220.577 187.915 219.802 188.795 219.278 189.947C218.754 191.099 218.492 192.513 218.492 194.189C218.492 195.843 218.754 197.257 219.278 198.43C219.802 199.604 220.577 200.494 221.603 201.101C222.629 201.709 223.886 202.012 225.374 202.012C226.17 202.012 226.955 201.918 227.73 201.73C228.505 201.52 229.238 201.206 229.93 200.787C230.391 200.515 230.799 200.4 231.155 200.441C231.532 200.462 231.846 200.588 232.098 200.818C232.349 201.049 232.517 201.342 232.6 201.698C232.684 202.033 232.663 202.39 232.538 202.767C232.412 203.123 232.161 203.437 231.784 203.709C230.946 204.317 229.94 204.788 228.767 205.123C227.615 205.437 226.442 205.594 225.248 205.594ZM241.824 205.594C240.232 205.594 238.849 205.27 237.676 204.62C236.503 203.971 235.592 203.049 234.942 201.855C234.293 200.64 233.968 199.216 233.968 197.582C233.968 196.346 234.146 195.246 234.502 194.283C234.879 193.298 235.414 192.46 236.105 191.769C236.796 191.057 237.624 190.523 238.587 190.167C239.551 189.79 240.63 189.601 241.824 189.601C243.416 189.601 244.798 189.926 245.971 190.575C247.144 191.225 248.055 192.146 248.705 193.34C249.354 194.534 249.679 195.948 249.679 197.582C249.679 198.818 249.49 199.928 249.113 200.913C248.757 201.897 248.233 202.746 247.542 203.458C246.851 204.149 246.024 204.683 245.06 205.06C244.096 205.416 243.018 205.594 241.824 205.594ZM241.824 202.609C242.599 202.609 243.279 202.421 243.866 202.044C244.452 201.667 244.903 201.112 245.217 200.379C245.552 199.624 245.72 198.692 245.72 197.582C245.72 195.906 245.364 194.66 244.651 193.843C243.939 193.005 242.997 192.586 241.824 192.586C241.049 192.586 240.368 192.775 239.781 193.152C239.195 193.508 238.734 194.063 238.399 194.817C238.084 195.55 237.927 196.472 237.927 197.582C237.927 199.237 238.283 200.494 238.996 201.353C239.708 202.191 240.651 202.609 241.824 202.609ZM260.022 205.594C258.409 205.594 257.005 205.27 255.811 204.62C254.617 203.95 253.696 203.007 253.046 201.793C252.397 200.578 252.072 199.153 252.072 197.519C252.072 196.283 252.25 195.184 252.606 194.22C252.983 193.235 253.518 192.408 254.209 191.738C254.9 191.046 255.738 190.523 256.723 190.167C257.707 189.79 258.807 189.601 260.022 189.601C260.713 189.601 261.457 189.695 262.253 189.884C263.07 190.072 263.834 190.387 264.546 190.827C264.882 191.036 265.102 191.287 265.206 191.581C265.311 191.874 265.332 192.178 265.269 192.492C265.206 192.785 265.07 193.047 264.861 193.277C264.672 193.487 264.431 193.623 264.138 193.686C263.845 193.728 263.52 193.654 263.164 193.466C262.703 193.194 262.232 192.995 261.75 192.869C261.268 192.722 260.807 192.649 260.367 192.649C259.676 192.649 259.069 192.764 258.545 192.995C258.021 193.204 257.571 193.518 257.194 193.937C256.838 194.335 256.566 194.838 256.377 195.445C256.188 196.053 256.094 196.755 256.094 197.551C256.094 199.101 256.461 200.326 257.194 201.227C257.948 202.107 259.006 202.547 260.367 202.547C260.807 202.547 261.258 202.484 261.719 202.358C262.2 202.232 262.682 202.033 263.164 201.761C263.52 201.573 263.834 201.51 264.107 201.573C264.4 201.635 264.641 201.782 264.829 202.012C265.018 202.222 265.133 202.484 265.175 202.798C265.217 203.091 265.175 203.385 265.049 203.678C264.944 203.971 264.735 204.212 264.421 204.4C263.73 204.819 262.996 205.123 262.221 205.312C261.446 205.5 260.713 205.594 260.022 205.594ZM269.69 205.532C269.061 205.532 268.579 205.364 268.244 205.029C267.909 204.673 267.741 204.17 267.741 203.521V184.857C267.741 184.207 267.909 183.715 268.244 183.38C268.579 183.045 269.061 182.877 269.69 182.877C270.318 182.877 270.8 183.045 271.135 183.38C271.491 183.715 271.669 184.207 271.669 184.857V196.451H271.732L276.916 190.984C277.335 190.565 277.702 190.24 278.016 190.01C278.33 189.779 278.76 189.664 279.304 189.664C279.849 189.664 280.257 189.811 280.53 190.104C280.823 190.376 280.97 190.711 280.97 191.109C280.97 191.507 280.781 191.905 280.404 192.303L274.937 198.085V196.451L280.938 202.924C281.315 203.322 281.483 203.73 281.441 204.149C281.42 204.547 281.252 204.882 280.938 205.155C280.624 205.406 280.226 205.532 279.744 205.532C279.158 205.532 278.686 205.416 278.33 205.186C277.995 204.956 277.618 204.61 277.199 204.149L271.732 198.43H271.669V203.521C271.669 204.861 271.009 205.532 269.69 205.532ZM291.165 205.594C289.804 205.594 288.662 205.364 287.74 204.903C286.84 204.442 286.169 203.772 285.73 202.892C285.29 201.992 285.07 200.881 285.07 199.562V192.869H283.436C282.933 192.869 282.546 192.743 282.273 192.492C282.001 192.22 281.865 191.853 281.865 191.392C281.865 190.91 282.001 190.544 282.273 190.292C282.546 190.041 282.933 189.915 283.436 189.915H285.07V187.056C285.07 186.407 285.237 185.914 285.572 185.579C285.929 185.244 286.421 185.076 287.049 185.076C287.678 185.076 288.159 185.244 288.495 185.579C288.83 185.914 288.997 186.407 288.997 187.056V189.915H292.328C292.831 189.915 293.218 190.041 293.491 190.292C293.763 190.544 293.899 190.91 293.899 191.392C293.899 191.853 293.763 192.22 293.491 192.492C293.218 192.743 292.831 192.869 292.328 192.869H288.997V199.342C288.997 200.347 289.217 201.101 289.657 201.604C290.097 202.107 290.809 202.358 291.794 202.358C292.15 202.358 292.464 202.327 292.736 202.264C293.009 202.201 293.25 202.159 293.459 202.138C293.711 202.117 293.92 202.201 294.088 202.39C294.255 202.557 294.339 202.913 294.339 203.458C294.339 203.877 294.266 204.254 294.119 204.589C293.993 204.903 293.752 205.123 293.396 205.249C293.124 205.333 292.768 205.406 292.328 205.469C291.888 205.553 291.501 205.594 291.165 205.594ZM301.245 205.594C300.135 205.594 299.14 205.385 298.26 204.966C297.401 204.526 296.72 203.94 296.218 203.206C295.736 202.473 295.495 201.646 295.495 200.724C295.495 199.593 295.788 198.703 296.375 198.053C296.961 197.383 297.914 196.901 299.234 196.608C300.554 196.315 302.324 196.168 304.544 196.168H306.115V198.43H304.576C303.277 198.43 302.24 198.493 301.465 198.619C300.69 198.745 300.135 198.965 299.8 199.279C299.485 199.572 299.328 199.991 299.328 200.536C299.328 201.227 299.569 201.793 300.051 202.232C300.533 202.672 301.203 202.892 302.062 202.892C302.753 202.892 303.361 202.735 303.884 202.421C304.429 202.086 304.858 201.635 305.173 201.07C305.487 200.504 305.644 199.855 305.644 199.122V195.508C305.644 194.461 305.414 193.707 304.953 193.246C304.492 192.785 303.717 192.555 302.627 192.555C302.02 192.555 301.36 192.628 300.648 192.775C299.957 192.921 299.224 193.173 298.448 193.529C298.05 193.717 297.694 193.77 297.38 193.686C297.087 193.602 296.856 193.434 296.689 193.183C296.521 192.911 296.438 192.618 296.438 192.303C296.438 191.989 296.521 191.685 296.689 191.392C296.856 191.078 297.139 190.847 297.537 190.701C298.501 190.303 299.423 190.02 300.302 189.852C301.203 189.685 302.02 189.601 302.753 189.601C304.261 189.601 305.497 189.832 306.461 190.292C307.445 190.753 308.179 191.455 308.66 192.398C309.142 193.319 309.383 194.513 309.383 195.98V203.521C309.383 204.17 309.226 204.673 308.912 205.029C308.598 205.364 308.147 205.532 307.561 205.532C306.974 205.532 306.513 205.364 306.178 205.029C305.864 204.673 305.707 204.17 305.707 203.521V202.012H305.958C305.812 202.746 305.518 203.385 305.078 203.929C304.659 204.453 304.125 204.861 303.476 205.155C302.826 205.448 302.083 205.594 301.245 205.594ZM315.318 205.5C314.689 205.5 314.208 205.312 313.872 204.935C313.537 204.558 313.37 204.034 313.37 203.364V191.832C313.37 191.141 313.537 190.617 313.872 190.261C314.208 189.884 314.689 189.695 315.318 189.695C315.946 189.695 316.428 189.884 316.763 190.261C317.119 190.617 317.297 191.141 317.297 191.832V203.364C317.297 204.034 317.13 204.558 316.795 204.935C316.459 205.312 315.967 205.5 315.318 205.5ZM315.318 186.773C314.585 186.773 314.009 186.595 313.59 186.239C313.192 185.862 312.993 185.349 312.993 184.699C312.993 184.029 313.192 183.516 313.59 183.16C314.009 182.804 314.585 182.626 315.318 182.626C316.072 182.626 316.648 182.804 317.046 183.16C317.444 183.516 317.643 184.029 317.643 184.699C317.643 185.349 317.444 185.862 317.046 186.239C316.648 186.595 316.072 186.773 315.318 186.773ZM326.626 205.594C324.887 205.594 323.578 205.102 322.698 204.118C321.818 203.112 321.378 201.646 321.378 199.719V184.857C321.378 184.207 321.546 183.715 321.881 183.38C322.216 183.045 322.698 182.877 323.326 182.877C323.955 182.877 324.437 183.045 324.772 183.38C325.128 183.715 325.306 184.207 325.306 184.857V199.53C325.306 200.494 325.505 201.206 325.903 201.667C326.322 202.128 326.908 202.358 327.663 202.358C327.83 202.358 327.987 202.358 328.134 202.358C328.281 202.337 328.427 202.316 328.574 202.295C328.867 202.253 329.066 202.337 329.171 202.547C329.276 202.735 329.328 203.133 329.328 203.741C329.328 204.264 329.223 204.673 329.014 204.966C328.804 205.259 328.459 205.437 327.977 205.5C327.767 205.521 327.547 205.542 327.317 205.563C327.087 205.584 326.856 205.594 326.626 205.594ZM347.672 205.532C347.023 205.532 346.52 205.354 346.164 204.997C345.829 204.62 345.661 204.107 345.661 203.458V186.49H339.534C338.989 186.49 338.56 186.344 338.246 186.051C337.953 185.736 337.806 185.317 337.806 184.794C337.806 184.249 337.953 183.841 338.246 183.568C338.56 183.275 338.989 183.128 339.534 183.128H355.81C356.355 183.128 356.774 183.275 357.067 183.568C357.381 183.841 357.538 184.249 357.538 184.794C357.538 185.317 357.381 185.736 357.067 186.051C356.774 186.344 356.355 186.49 355.81 186.49H349.683V203.458C349.683 204.107 349.516 204.62 349.18 204.997C348.845 205.354 348.343 205.532 347.672 205.532ZM362.062 205.594C360.952 205.594 359.957 205.385 359.077 204.966C358.218 204.526 357.537 203.94 357.035 203.206C356.553 202.473 356.312 201.646 356.312 200.724C356.312 199.593 356.605 198.703 357.192 198.053C357.778 197.383 358.731 196.901 360.051 196.608C361.371 196.315 363.141 196.168 365.361 196.168H366.932V198.43H365.393C364.094 198.43 363.057 198.493 362.282 198.619C361.507 198.745 360.952 198.965 360.617 199.279C360.303 199.572 360.145 199.991 360.145 200.536C360.145 201.227 360.386 201.793 360.868 202.232C361.35 202.672 362.02 202.892 362.879 202.892C363.57 202.892 364.178 202.735 364.702 202.421C365.246 202.086 365.676 201.635 365.99 201.07C366.304 200.504 366.461 199.855 366.461 199.122V195.508C366.461 194.461 366.231 193.707 365.77 193.246C365.309 192.785 364.534 192.555 363.445 192.555C362.837 192.555 362.177 192.628 361.465 192.775C360.774 192.921 360.041 193.173 359.266 193.529C358.868 193.717 358.512 193.77 358.197 193.686C357.904 193.602 357.674 193.434 357.506 193.183C357.338 192.911 357.255 192.618 357.255 192.303C357.255 191.989 357.338 191.685 357.506 191.392C357.674 191.078 357.956 190.847 358.354 190.701C359.318 190.303 360.24 190.02 361.12 189.852C362.02 189.685 362.837 189.601 363.57 189.601C365.079 189.601 366.314 189.832 367.278 190.292C368.263 190.753 368.996 191.455 369.478 192.398C369.959 193.319 370.2 194.513 370.2 195.98V203.521C370.2 204.17 370.043 204.673 369.729 205.029C369.415 205.364 368.964 205.532 368.378 205.532C367.791 205.532 367.33 205.364 366.995 205.029C366.681 204.673 366.524 204.17 366.524 203.521V202.012H366.775C366.629 202.746 366.335 203.385 365.896 203.929C365.477 204.453 364.942 204.861 364.293 205.155C363.644 205.448 362.9 205.594 362.062 205.594ZM383.048 205.594C381.749 205.594 380.607 205.27 379.623 204.62C378.659 203.971 378.02 203.102 377.706 202.012L378.052 201.227V203.521C378.052 204.17 377.884 204.673 377.549 205.029C377.214 205.364 376.742 205.532 376.135 205.532C375.506 205.532 375.025 205.364 374.69 205.029C374.354 204.673 374.187 204.17 374.187 203.521V184.857C374.187 184.207 374.354 183.715 374.69 183.38C375.025 183.045 375.506 182.877 376.135 182.877C376.763 182.877 377.245 183.045 377.58 183.38C377.936 183.715 378.114 184.207 378.114 184.857V193.026H377.737C378.073 192 378.722 191.172 379.685 190.544C380.649 189.915 381.77 189.601 383.048 189.601C384.409 189.601 385.593 189.926 386.598 190.575C387.604 191.225 388.389 192.146 388.955 193.34C389.52 194.513 389.803 195.927 389.803 197.582C389.803 199.216 389.52 200.64 388.955 201.855C388.389 203.049 387.593 203.971 386.567 204.62C385.561 205.27 384.388 205.594 383.048 205.594ZM381.948 202.609C382.723 202.609 383.404 202.421 383.99 202.044C384.577 201.667 385.027 201.112 385.341 200.379C385.676 199.624 385.844 198.692 385.844 197.582C385.844 195.906 385.488 194.66 384.776 193.843C384.064 193.005 383.121 192.586 381.948 192.586C381.173 192.586 380.492 192.775 379.905 193.152C379.319 193.508 378.858 194.063 378.523 194.817C378.209 195.55 378.052 196.472 378.052 197.582C378.052 199.237 378.408 200.494 379.12 201.353C379.832 202.191 380.775 202.609 381.948 202.609ZM398.275 205.594C396.536 205.594 395.227 205.102 394.347 204.118C393.467 203.112 393.027 201.646 393.027 199.719V184.857C393.027 184.207 393.195 183.715 393.53 183.38C393.865 183.045 394.347 182.877 394.975 182.877C395.604 182.877 396.086 183.045 396.421 183.38C396.777 183.715 396.955 184.207 396.955 184.857V199.53C396.955 200.494 397.154 201.206 397.552 201.667C397.971 202.128 398.557 202.358 399.311 202.358C399.479 202.358 399.636 202.358 399.783 202.358C399.929 202.337 400.076 202.316 400.223 202.295C400.516 202.253 400.715 202.337 400.82 202.547C400.924 202.735 400.977 203.133 400.977 203.741C400.977 204.264 400.872 204.673 400.663 204.966C400.453 205.259 400.107 205.437 399.626 205.5C399.416 205.521 399.196 205.542 398.966 205.563C398.735 205.584 398.505 205.594 398.275 205.594ZM410.48 205.594C408.742 205.594 407.244 205.27 405.987 204.62C404.73 203.971 403.756 203.049 403.065 201.855C402.395 200.661 402.059 199.247 402.059 197.614C402.059 196.021 402.384 194.628 403.033 193.434C403.704 192.24 404.615 191.308 405.767 190.638C406.94 189.947 408.27 189.601 409.758 189.601C410.847 189.601 411.821 189.779 412.68 190.135C413.56 190.491 414.303 191.005 414.911 191.675C415.539 192.345 416.01 193.162 416.325 194.126C416.66 195.068 416.827 196.137 416.827 197.331C416.827 197.708 416.691 198.001 416.419 198.211C416.167 198.399 415.801 198.493 415.319 198.493H405.233V196.231H414.062L413.56 196.702C413.56 195.739 413.413 194.932 413.12 194.283C412.847 193.633 412.439 193.141 411.894 192.806C411.37 192.45 410.711 192.272 409.915 192.272C409.035 192.272 408.281 192.481 407.652 192.9C407.045 193.298 406.574 193.874 406.238 194.628C405.924 195.362 405.767 196.241 405.767 197.268V197.488C405.767 199.206 406.165 200.494 406.961 201.353C407.778 202.191 408.972 202.609 410.543 202.609C411.088 202.609 411.695 202.547 412.365 202.421C413.057 202.274 413.706 202.033 414.314 201.698C414.754 201.447 415.141 201.342 415.476 201.384C415.811 201.405 416.073 201.52 416.262 201.73C416.471 201.939 416.597 202.201 416.639 202.515C416.681 202.808 416.618 203.112 416.45 203.426C416.304 203.741 416.042 204.013 415.665 204.243C414.932 204.704 414.083 205.05 413.12 205.28C412.177 205.49 411.297 205.594 410.48 205.594ZM425.562 205.594C424.661 205.594 423.708 205.5 422.703 205.312C421.697 205.123 420.797 204.798 420.001 204.338C419.665 204.128 419.425 203.887 419.278 203.615C419.152 203.322 419.1 203.039 419.121 202.767C419.163 202.473 419.267 202.222 419.435 202.012C419.624 201.803 419.854 201.667 420.126 201.604C420.42 201.541 420.734 201.594 421.069 201.761C421.907 202.159 422.692 202.442 423.425 202.609C424.159 202.756 424.881 202.829 425.594 202.829C426.599 202.829 427.343 202.662 427.824 202.327C428.327 201.971 428.579 201.51 428.579 200.944C428.579 200.462 428.411 200.096 428.076 199.844C427.762 199.572 427.28 199.373 426.63 199.247L423.488 198.65C422.19 198.399 421.195 197.928 420.503 197.236C419.833 196.524 419.498 195.613 419.498 194.503C419.498 193.497 419.77 192.628 420.315 191.895C420.88 191.162 421.655 190.596 422.64 190.198C423.625 189.8 424.756 189.601 426.033 189.601C426.955 189.601 427.814 189.706 428.61 189.915C429.427 190.104 430.212 190.408 430.967 190.827C431.281 190.994 431.49 191.214 431.595 191.486C431.721 191.759 431.752 192.041 431.689 192.335C431.626 192.607 431.501 192.858 431.312 193.089C431.124 193.298 430.883 193.434 430.59 193.497C430.317 193.539 430.003 193.476 429.647 193.309C428.998 192.974 428.369 192.733 427.762 192.586C427.175 192.439 426.61 192.366 426.065 192.366C425.038 192.366 424.274 192.544 423.771 192.9C423.289 193.256 423.048 193.728 423.048 194.314C423.048 194.754 423.195 195.121 423.488 195.414C423.782 195.707 424.232 195.906 424.839 196.011L427.982 196.608C429.343 196.859 430.37 197.32 431.061 197.991C431.773 198.661 432.129 199.562 432.129 200.693C432.129 202.222 431.532 203.426 430.338 204.306C429.144 205.165 427.552 205.594 425.562 205.594Z" fill="white"/>
<path d="M553.867 63.6914C553.553 63.6914 553.291 63.6216 553.082 63.4819C552.884 63.3306 552.721 63.1095 552.593 62.8186L548.037 52.5893C547.909 52.2983 547.874 52.0423 547.932 51.8212C547.99 51.6001 548.113 51.4255 548.299 51.2975C548.485 51.1695 548.706 51.1055 548.962 51.1055C549.3 51.1055 549.55 51.1811 549.713 51.3324C549.887 51.4721 550.033 51.6874 550.149 51.9783L554.286 61.5617H553.536L557.655 51.9608C557.783 51.6815 557.935 51.4721 558.109 51.3324C558.284 51.1811 558.528 51.1055 558.842 51.1055C559.098 51.1055 559.308 51.1695 559.471 51.2975C559.645 51.4255 559.756 51.6001 559.802 51.8212C559.849 52.0423 559.808 52.2983 559.68 52.5893L555.124 62.8186C554.996 63.1095 554.833 63.3306 554.635 63.4819C554.449 63.6216 554.193 63.6914 553.867 63.6914ZM562.541 63.6914C562.18 63.6914 561.901 63.5925 561.703 63.3947C561.517 63.1852 561.424 62.9001 561.424 62.5393V52.2576C561.424 51.8852 561.517 51.6001 561.703 51.4022C561.901 51.2044 562.18 51.1055 562.541 51.1055C562.902 51.1055 563.175 51.2044 563.362 51.4022C563.559 51.6001 563.658 51.8852 563.658 52.2576V62.5393C563.658 62.9001 563.565 63.1852 563.379 63.3947C563.193 63.5925 562.914 63.6914 562.541 63.6914ZM567.468 63.6914C567.107 63.6914 566.828 63.5925 566.63 63.3947C566.444 63.1852 566.351 62.9001 566.351 62.5393V52.3798C566.351 52.0074 566.45 51.7281 566.647 51.5419C566.845 51.344 567.124 51.2451 567.485 51.2451H571.692C573.042 51.2451 574.084 51.5826 574.817 52.2576C575.55 52.9326 575.917 53.8752 575.917 55.0855C575.917 56.2958 575.55 57.2442 574.817 57.9309C574.084 58.6058 573.042 58.9433 571.692 58.9433H568.585V62.5393C568.585 62.9001 568.492 63.1852 568.306 63.3947C568.12 63.5925 567.84 63.6914 567.468 63.6914ZM568.585 57.1802H571.343C572.134 57.1802 572.734 57.0057 573.141 56.6566C573.548 56.2958 573.752 55.7721 573.752 55.0855C573.752 54.3989 573.548 53.881 573.141 53.5319C572.734 53.1828 572.134 53.0082 571.343 53.0082H568.585V57.1802Z" fill="white"/>
<path d="M55.421 239.552C55.1868 239.047 54.9927 238.523 54.8388 237.981C54.6734 237.444 54.5615 236.917 54.5031 236.4C54.4562 235.878 54.465 235.385 54.5295 234.923C54.5714 234.652 54.6713 234.432 54.8292 234.261C54.9871 234.09 55.1632 233.973 55.3575 233.911C55.5686 233.855 55.7697 233.853 55.9607 233.904C56.1685 233.961 56.3322 234.073 56.4518 234.241C56.5714 234.408 56.6129 234.633 56.5763 234.915C56.5121 235.559 56.5416 236.194 56.6647 236.82C56.7879 237.446 56.9932 238.07 57.2807 238.689C57.7013 239.596 58.1566 240.187 58.6468 240.462C59.1484 240.731 59.6402 240.754 60.1224 240.531C60.5242 240.344 60.7706 240.049 60.8618 239.644C60.9583 239.25 60.9161 238.663 60.7352 237.882L60.2528 235.804C59.9766 234.607 59.9831 233.614 60.2724 232.824C60.5785 232.041 61.1792 231.441 62.0746 231.026C62.6371 230.765 63.2012 230.643 63.7668 230.66C64.3325 230.676 64.8776 230.814 65.4022 231.073C65.9321 231.343 66.4162 231.725 66.8546 232.22C67.3098 232.72 67.6998 233.32 68.0245 234.02C68.344 234.709 68.5614 235.403 68.6767 236.103C68.792 236.803 68.7976 237.477 68.6937 238.125C68.6526 238.367 68.5535 238.559 68.3965 238.702C68.2448 238.856 68.0691 238.958 67.8694 239.009C67.6813 239.054 67.4948 239.043 67.3099 238.976C67.1251 238.908 66.976 238.782 66.8625 238.597C66.7543 238.424 66.7132 238.185 66.7392 237.88C66.7833 237.344 66.7558 236.833 66.6568 236.349C66.5578 235.865 66.3912 235.371 66.1569 234.866C65.912 234.337 65.6271 233.919 65.3022 233.609C64.9772 233.299 64.6291 233.105 64.2578 233.026C63.9032 232.954 63.5423 233.003 63.175 233.173C62.7617 233.365 62.4927 233.657 62.3679 234.049C62.2546 234.437 62.2835 234.995 62.4546 235.725L62.929 237.785C63.215 239.034 63.2275 240.053 62.9665 240.844C62.7108 241.646 62.1525 242.246 61.2916 242.646C60.7406 242.901 60.188 243.018 59.6338 242.996C59.085 242.986 58.5513 242.843 58.0329 242.567C57.5198 242.303 57.0414 241.918 56.5977 241.412C56.154 240.907 55.7618 240.287 55.421 239.552ZM60.2036 249.864C59.799 248.991 59.6255 248.151 59.6832 247.343C59.7409 246.535 60.0144 245.802 60.5037 245.142C61.0044 244.478 61.7025 243.938 62.5979 243.522C63.2752 243.208 63.9231 243.026 64.5416 242.977C65.177 242.933 65.7719 243.013 66.3264 243.216C66.8924 243.414 67.3954 243.731 67.8355 244.169C68.287 244.601 68.6645 245.144 68.968 245.799C69.3726 246.671 69.5461 247.511 69.4884 248.319C69.4307 249.127 69.1572 249.861 68.6679 250.52C68.1787 251.179 67.4863 251.717 66.5909 252.132C65.9137 252.446 65.2573 252.625 64.622 252.668C63.992 252.724 63.3939 252.652 62.828 252.454C62.2734 252.251 61.7704 251.934 61.3189 251.501C60.8788 251.064 60.5071 250.518 60.2036 249.864ZM61.8394 249.105C62.0364 249.53 62.3127 249.855 62.6684 250.08C63.0241 250.306 63.4428 250.412 63.9244 250.398C64.4229 250.39 64.9763 250.244 65.5847 249.962C66.503 249.536 67.0955 249.024 67.3622 248.426C67.6404 247.823 67.6304 247.2 67.3322 246.557C67.1352 246.133 66.8589 245.807 66.5032 245.582C66.159 245.351 65.7376 245.239 65.2392 245.247C64.7576 245.262 64.2125 245.41 63.6041 245.692C62.6973 246.113 62.099 246.627 61.8094 247.236C61.5312 247.839 61.5412 248.462 61.8394 249.105ZM63.7862 257.498C63.6265 257.153 63.5932 256.841 63.6863 256.561C63.7963 256.287 64.0292 256.067 64.3851 255.902L70.2223 253.195L69.8549 252.403C69.7271 252.127 69.6975 251.883 69.766 251.67C69.8461 251.451 70.0123 251.283 70.2649 251.166C70.5289 251.044 70.7644 251.025 70.9714 251.111C71.1783 251.196 71.3457 251.376 71.4735 251.652L72.1283 253.064L71.2726 252.707L71.8581 252.436C73.0404 251.888 74.0628 251.776 74.925 252.101C75.7988 252.422 76.5482 253.12 77.1733 254.197L77.4965 254.759C77.6259 254.978 77.6709 255.18 77.6315 255.366C77.6036 255.546 77.5199 255.696 77.3805 255.817C77.2525 255.932 77.1002 256.009 76.9236 256.05C76.7469 256.09 76.5688 256.082 76.3893 256.025C76.2266 255.975 76.0995 255.867 76.0082 255.7L75.8792 255.467C75.5298 254.834 75.1424 254.435 74.717 254.269C74.2916 254.104 73.7861 254.157 73.2007 254.429L72.5636 254.724L72.7113 254.321L73.5179 256.06C73.6457 256.335 73.6753 256.58 73.6068 256.793C73.5382 257.006 73.372 257.174 73.1079 257.296C72.8554 257.413 72.6199 257.432 72.4015 257.352C72.1945 257.266 72.0271 257.086 71.8993 256.811L71.2205 255.347L65.3833 258.054C64.6486 258.395 64.1163 258.209 63.7862 257.498ZM67.1408 264.821C66.8587 264.213 66.7206 263.614 66.7265 263.026C66.7493 262.443 66.8977 261.921 67.1717 261.459C67.451 261.009 67.8432 260.666 68.3483 260.432C68.9682 260.145 69.5306 260.079 70.0355 260.235C70.5519 260.386 71.0582 260.786 71.5543 261.435C72.0505 262.084 72.5807 263.016 73.1451 264.233L73.5444 265.094L72.3046 265.669L71.9133 264.825C71.5832 264.114 71.2852 263.561 71.0193 263.169C70.7535 262.776 70.4919 262.528 70.2345 262.424C69.9939 262.326 69.7244 262.346 69.4259 262.485C69.0471 262.661 68.7984 262.936 68.6798 263.312C68.5612 263.688 68.611 264.111 68.8293 264.582C69.005 264.961 69.2455 265.254 69.5508 265.461C69.8729 265.674 70.2288 265.795 70.6186 265.823C71.0084 265.852 71.4042 265.773 71.806 265.587L73.7862 264.668C74.3601 264.402 74.7148 264.084 74.8502 263.714C74.9856 263.345 74.9149 262.861 74.6381 262.264C74.4837 261.932 74.2758 261.589 74.0144 261.236C73.7584 260.894 73.4343 260.556 73.0421 260.222C72.8377 260.052 72.7185 259.87 72.6845 259.676C72.6559 259.494 72.6892 259.325 72.7843 259.17C72.891 259.009 73.0304 258.888 73.2026 258.808C73.3747 258.729 73.5625 258.697 73.7658 258.715C73.9806 258.727 74.1787 258.823 74.3602 259.004C74.8232 259.431 75.2125 259.864 75.5279 260.303C75.8487 260.754 76.1022 261.181 76.2886 261.583C76.6719 262.409 76.8598 263.145 76.8521 263.79C76.8498 264.447 76.6516 265.027 76.2575 265.531C75.8749 266.029 75.2818 266.464 74.4782 266.837L70.3457 268.754C69.9898 268.919 69.6744 268.96 69.3994 268.879C69.1359 268.792 68.9296 268.587 68.7805 268.266C68.6314 267.945 68.6061 267.649 68.7046 267.381C68.8199 267.118 69.0555 266.904 69.4113 266.739L70.2378 266.356L70.3017 266.493C69.8627 266.599 69.438 266.601 69.0277 266.498C68.6343 266.402 68.2747 266.213 67.9489 265.932C67.6232 265.65 67.3538 265.28 67.1408 264.821ZM72.5768 276.451C72.449 276.176 72.4083 275.923 72.4547 275.692C72.5064 275.473 72.6276 275.298 72.8183 275.168C73.0204 275.032 73.2801 274.96 73.5974 274.953L85.7788 274.827C86.1809 274.821 86.4987 274.89 86.7323 275.033C86.9827 275.182 87.1718 275.394 87.2996 275.669C87.422 275.934 87.4565 276.203 87.4031 276.479C87.3666 276.761 87.2164 277.054 86.9527 277.358L78.996 286.593C78.7905 286.841 78.5708 286.999 78.3367 287.066C78.1026 287.132 77.8852 287.115 77.6844 287.013C77.495 286.905 77.3391 286.719 77.2167 286.455C77.0676 286.134 77.0251 285.847 77.0891 285.594C77.17 285.347 77.3392 285.08 77.5967 284.794L79.6777 282.468L79.5063 283.678L76.1361 276.411L77.17 277.062L74.0589 277.166C73.6568 277.171 73.3438 277.128 73.12 277.036C72.8963 276.945 72.7152 276.75 72.5768 276.451ZM84.7524 276.809L77.9005 277.058L78.2438 276.354L80.9112 282.106L80.1605 281.931L84.7684 276.843L84.7524 276.809ZM78.8789 290.039C78.7139 289.683 78.6779 289.365 78.7711 289.085C78.881 288.811 79.114 288.591 79.4698 288.426L85.9786 285.407C86.3344 285.242 86.6468 285.209 86.9156 285.308C87.1845 285.406 87.3961 285.622 87.5505 285.955C87.7049 286.288 87.7329 286.588 87.6344 286.857C87.5359 287.126 87.3087 287.343 86.9529 287.508L85.8681 288.011L85.7882 287.839C86.5515 287.68 87.2202 287.754 87.7944 288.059C88.3685 288.365 88.871 288.892 89.302 289.641C89.4367 289.871 89.4614 290.09 89.3761 290.297C89.3075 290.51 89.1294 290.697 88.8416 290.859C88.5652 291.015 88.298 291.055 88.0398 290.979C87.7983 290.91 87.5886 290.728 87.4104 290.434L87.2002 290.072C86.8066 289.403 86.3436 288.976 85.8112 288.791C85.2903 288.6 84.7027 288.656 84.0484 288.96L80.4841 290.613C80.1282 290.778 79.8101 290.814 79.5298 290.721C79.2609 290.622 79.044 290.395 78.8789 290.039ZM83.323 299.711C82.8811 298.759 82.6784 297.855 82.7148 297.002C82.7512 296.148 83.0087 295.38 83.4873 294.697C83.9713 294.027 84.6609 293.484 85.5563 293.068C86.4287 292.664 87.2746 292.488 88.094 292.54C88.9187 292.604 89.6611 292.866 90.3213 293.327C90.9982 293.794 91.5257 294.435 91.9037 295.251C92.1806 295.847 92.3306 296.426 92.3537 296.988C92.3822 297.56 92.29 298.098 92.077 298.601C91.8694 299.116 91.5415 299.582 91.0933 299.999C90.6619 300.423 90.1191 300.786 89.4648 301.089C89.2581 301.185 89.0628 301.185 88.8788 301.089C88.7116 300.999 88.5668 300.822 88.4443 300.558L85.8808 295.031L87.1206 294.456L89.3646 299.295L88.9786 299.139C89.5066 298.894 89.9113 298.609 90.1926 298.283C90.4793 297.969 90.6452 297.62 90.6905 297.236C90.7525 296.858 90.6824 296.452 90.4801 296.015C90.2565 295.533 89.95 295.173 89.5607 294.935C89.1882 294.704 88.7527 294.592 88.2543 294.6C87.7726 294.614 87.2506 294.751 86.6881 295.012L86.5676 295.068C85.6263 295.505 85.0214 296.05 84.7531 296.705C84.5016 297.365 84.5755 298.126 84.9748 298.987C85.1132 299.286 85.302 299.603 85.5413 299.938C85.7973 300.28 86.0944 300.574 86.4324 300.822C86.682 300.999 86.8379 301.185 86.9001 301.379C86.9738 301.568 86.9772 301.741 86.9104 301.897C86.8488 302.065 86.7373 302.201 86.5757 302.304C86.4257 302.401 86.2432 302.444 86.0285 302.432C85.819 302.432 85.6032 302.357 85.3811 302.209C84.9422 301.925 84.5372 301.547 84.166 301.078C83.8116 300.615 83.5306 300.159 83.323 299.711ZM87.0125 307.666C86.7303 307.058 86.5922 306.46 86.5982 305.871C86.621 305.288 86.7694 304.766 87.0434 304.305C87.3227 303.854 87.7149 303.512 88.22 303.278C88.8399 302.99 89.4023 302.925 89.9072 303.081C90.4236 303.232 90.9299 303.632 91.426 304.28C91.9221 304.929 92.4524 305.862 93.0167 307.079L93.416 307.94L92.1763 308.515L91.785 307.671C91.4549 306.959 91.1569 306.407 90.891 306.014C90.6252 305.621 90.3635 305.373 90.1062 305.269C89.8656 305.172 89.5961 305.192 89.2976 305.33C88.9188 305.506 88.6701 305.782 88.5515 306.158C88.4329 306.533 88.4827 306.957 88.701 307.427C88.8767 307.806 89.1172 308.099 89.4225 308.306C89.7446 308.52 90.1005 308.64 90.4903 308.669C90.8801 308.697 91.2759 308.618 91.6777 308.432L93.6578 307.514C94.2318 307.247 94.5865 306.929 94.7219 306.56C94.8573 306.19 94.7866 305.707 94.5098 305.11C94.3554 304.777 94.1475 304.434 93.8861 304.081C93.63 303.739 93.306 303.402 92.9138 303.067C92.7093 302.897 92.5901 302.715 92.5562 302.522C92.5276 302.34 92.5608 302.171 92.656 302.015C92.7626 301.854 92.902 301.734 93.0742 301.654C93.2464 301.574 93.4342 301.543 93.6375 301.56C93.8523 301.572 94.0504 301.668 94.2319 301.849C94.6949 302.276 95.0842 302.709 95.3996 303.149C95.7204 303.6 95.9739 304.026 96.1603 304.428C96.5436 305.255 96.7315 305.99 96.7238 306.636C96.7215 307.292 96.5233 307.872 96.1292 308.376C95.7465 308.874 95.1535 309.31 94.3499 309.682L90.2174 311.599C89.8615 311.764 89.5461 311.806 89.2711 311.724C89.0075 311.637 88.8012 311.433 88.6522 311.111C88.5031 310.79 88.4778 310.495 88.5763 310.226C88.6916 309.963 88.9271 309.75 89.283 309.584L90.1095 309.201L90.1734 309.339C89.7343 309.445 89.3097 309.447 88.8994 309.344C88.506 309.247 88.1464 309.059 87.8206 308.777C87.4948 308.496 87.2255 308.126 87.0125 307.666Z" fill="white"/>
<path d="M548.035 337.955C547.746 338.432 547.419 338.885 547.055 339.315C546.701 339.752 546.326 340.138 545.93 340.475C545.523 340.805 545.109 341.072 544.689 341.277C544.441 341.393 544.202 341.433 543.972 341.397C543.743 341.361 543.548 341.28 543.388 341.153C543.223 341.009 543.109 340.844 543.045 340.657C542.976 340.453 542.978 340.254 543.051 340.061C543.123 339.869 543.287 339.709 543.541 339.582C544.111 339.276 544.622 338.898 545.073 338.446C545.525 337.995 545.927 337.477 546.282 336.893C546.8 336.038 547.037 335.33 546.991 334.77C546.935 334.204 546.68 333.783 546.226 333.507C545.847 333.277 545.464 333.238 545.077 333.388C544.697 333.527 544.233 333.89 543.685 334.475L542.23 336.034C541.39 336.931 540.562 337.479 539.745 337.68C538.924 337.862 538.091 337.698 537.247 337.186C536.717 336.865 536.301 336.465 535.999 335.986C535.698 335.507 535.508 334.978 535.431 334.398C535.36 333.807 535.407 333.192 535.573 332.553C535.734 331.896 536.015 331.238 536.415 330.578C536.809 329.928 537.264 329.361 537.78 328.875C538.297 328.389 538.853 328.009 539.449 327.734C539.673 327.633 539.888 327.608 540.094 327.658C540.306 327.698 540.489 327.787 540.643 327.925C540.785 328.055 540.88 328.216 540.927 328.408C540.974 328.599 540.952 328.793 540.863 328.99C540.779 329.176 540.604 329.344 540.336 329.492C539.866 329.755 539.458 330.062 539.111 330.414C538.764 330.766 538.447 331.18 538.158 331.657C537.856 332.154 537.668 332.624 537.592 333.067C537.516 333.509 537.549 333.906 537.69 334.259C537.828 334.593 538.07 334.866 538.416 335.076C538.805 335.312 539.198 335.372 539.593 335.257C539.978 335.135 540.426 334.8 540.936 334.251L542.382 332.708C543.259 331.775 544.098 331.196 544.9 330.972C545.708 330.737 546.518 330.865 547.329 331.357C547.849 331.672 548.254 332.066 548.545 332.538C548.842 332.999 549.021 333.522 549.081 334.106C549.148 334.679 549.095 335.291 548.923 335.941C548.751 336.592 548.454 337.263 548.035 337.955ZM553.928 328.236C553.429 329.058 552.828 329.67 552.126 330.073C551.423 330.476 550.661 330.658 549.841 330.619C549.01 330.574 548.173 330.296 547.329 329.784C546.69 329.397 546.178 328.96 545.792 328.475C545.401 327.972 545.136 327.433 544.995 326.86C544.844 326.28 544.827 325.685 544.945 325.076C545.052 324.46 545.293 323.844 545.666 323.227C546.165 322.404 546.766 321.792 547.469 321.389C548.171 320.987 548.933 320.805 549.753 320.843C550.573 320.882 551.405 321.157 552.249 321.669C552.888 322.056 553.402 322.501 553.792 323.004C554.19 323.496 554.464 324.032 554.615 324.613C554.756 325.186 554.772 325.781 554.665 326.397C554.548 327.006 554.302 327.619 553.928 328.236ZM552.386 327.301C552.629 326.9 552.744 326.49 552.733 326.069C552.722 325.648 552.577 325.241 552.296 324.849C552.012 324.44 551.583 324.061 551.009 323.714C550.144 323.189 549.388 322.983 548.743 323.095C548.087 323.2 547.576 323.556 547.208 324.162C546.966 324.562 546.85 324.973 546.861 325.394C546.861 325.808 547.004 326.22 547.288 326.629C547.568 327.021 547.995 327.391 548.569 327.739C549.424 328.257 550.184 328.467 550.851 328.368C551.507 328.262 552.019 327.907 552.386 327.301ZM558.267 321.005C558.071 321.33 557.83 321.531 557.545 321.61C557.256 321.672 556.944 321.601 556.609 321.398L551.107 318.062L550.654 318.808C550.496 319.068 550.31 319.229 550.095 319.291C549.869 319.346 549.637 319.302 549.399 319.157C549.15 319.006 549.003 318.821 548.959 318.602C548.914 318.383 548.971 318.143 549.128 317.883L549.935 316.552L550.117 317.461L549.565 317.127C548.45 316.451 547.788 315.665 547.577 314.767C547.355 313.864 547.517 312.852 548.063 311.733L548.349 311.151C548.458 310.922 548.601 310.771 548.777 310.701C548.943 310.623 549.114 310.609 549.292 310.657C549.459 310.699 549.608 310.783 549.74 310.907C549.872 311.031 549.964 311.184 550.018 311.364C550.067 311.527 550.048 311.693 549.96 311.862L549.839 312.099C549.508 312.742 549.393 313.286 549.492 313.731C549.592 314.177 549.918 314.567 550.47 314.901L551.071 315.265L550.654 315.368L551.647 313.728C551.805 313.469 551.991 313.308 552.206 313.246C552.421 313.184 552.653 313.228 552.902 313.379C553.14 313.524 553.287 313.709 553.342 313.935C553.387 314.154 553.331 314.394 553.173 314.653L552.337 316.033L557.839 319.369C558.531 319.789 558.674 320.334 558.267 321.005ZM562.476 314.137C562.128 314.71 561.708 315.159 561.217 315.482C560.72 315.788 560.204 315.956 559.668 315.986C559.138 316.005 558.636 315.87 558.159 315.582C557.575 315.227 557.207 314.797 557.055 314.291C556.893 313.778 556.942 313.135 557.204 312.361C557.466 311.588 557.945 310.627 558.64 309.48L559.132 308.669L560.301 309.377L559.819 310.173C559.412 310.844 559.12 311.399 558.942 311.839C558.764 312.278 558.704 312.634 558.761 312.905C558.814 313.16 558.981 313.372 559.263 313.543C559.62 313.759 559.987 313.812 560.365 313.701C560.744 313.59 561.067 313.312 561.336 312.869C561.553 312.511 561.662 312.148 561.663 311.78C561.661 311.393 561.563 311.03 561.369 310.691C561.175 310.352 560.889 310.067 560.51 309.837L558.644 308.706C558.103 308.378 557.641 308.261 557.259 308.354C556.876 308.448 556.514 308.776 556.173 309.339C555.983 309.653 555.814 310.016 555.667 310.43C555.526 310.833 555.426 311.291 555.368 311.803C555.34 312.067 555.256 312.268 555.114 312.404C554.979 312.529 554.82 312.595 554.638 312.603C554.445 312.604 554.267 312.556 554.105 312.457C553.943 312.359 553.812 312.221 553.713 312.042C553.603 311.857 553.573 311.639 553.622 311.388C553.718 310.765 553.86 310.201 554.049 309.694C554.245 309.176 554.457 308.728 554.687 308.349C555.159 307.57 555.665 307.004 556.205 306.65C556.752 306.286 557.344 306.127 557.982 306.173C558.609 306.213 559.301 306.463 560.058 306.922L563.954 309.284C564.289 309.487 564.499 309.726 564.585 309.999C564.66 310.267 564.605 310.552 564.422 310.855C564.238 311.158 564.007 311.343 563.729 311.412C563.447 311.462 563.138 311.386 562.802 311.183L562.023 310.71L562.102 310.58C562.435 310.886 562.673 311.237 562.816 311.635C562.956 312.016 562.999 312.419 562.947 312.847C562.896 313.274 562.738 313.704 562.476 314.137ZM569.099 303.139C568.942 303.399 568.754 303.574 568.537 303.664C568.326 303.744 568.114 303.74 567.899 303.655C567.674 303.563 567.47 303.387 567.286 303.128L560.389 293.086C560.161 292.755 560.041 292.453 560.029 292.18C560.013 291.889 560.084 291.613 560.241 291.354C560.392 291.105 560.597 290.926 560.856 290.816C561.11 290.689 561.437 290.651 561.836 290.7L573.939 292.156C574.26 292.188 574.513 292.282 574.699 292.439C574.885 292.597 574.991 292.787 575.019 293.011C575.035 293.228 574.968 293.461 574.817 293.71C574.633 294.013 574.418 294.208 574.173 294.296C573.923 294.366 573.607 294.375 573.225 294.321L570.135 293.89L571.234 293.358L567.082 300.207L567.045 298.986L568.866 301.511C569.095 301.842 569.233 302.126 569.282 302.362C569.331 302.599 569.27 302.858 569.099 303.139ZM562.607 292.833L566.634 298.382L565.859 298.489L569.146 293.068L569.419 293.789L562.627 292.8L562.607 292.833ZM576.865 290.331C576.662 290.667 576.418 290.874 576.133 290.953C575.844 291.015 575.532 290.944 575.196 290.74L569.061 287.021C568.726 286.817 568.524 286.576 568.456 286.298C568.388 286.02 568.449 285.724 568.639 285.41C568.829 285.097 569.064 284.906 569.342 284.838C569.62 284.769 569.926 284.837 570.262 285.04L571.284 285.66L571.186 285.823C570.629 285.278 570.317 284.681 570.25 284.034C570.184 283.387 570.341 282.676 570.722 281.901C570.839 281.661 571.006 281.518 571.226 281.474C571.441 281.412 571.696 281.455 571.99 281.604C572.274 281.747 572.456 281.946 572.537 282.203C572.614 282.442 572.581 282.717 572.436 283.029L572.252 283.406C571.917 284.105 571.82 284.727 571.963 285.273C572.095 285.812 572.47 286.268 573.087 286.642L576.446 288.679C576.782 288.882 576.989 289.126 577.068 289.411C577.136 289.689 577.068 289.996 576.865 290.331ZM582.416 281.249C581.872 282.147 581.235 282.819 580.506 283.265C579.777 283.711 578.995 283.925 578.162 283.908C577.336 283.881 576.5 283.611 575.656 283.099C574.834 282.601 574.216 281.997 573.803 281.287C573.396 280.567 573.2 279.805 573.214 279C573.225 278.177 573.463 277.382 573.928 276.614C574.27 276.051 574.667 275.603 575.119 275.271C575.579 274.928 576.077 274.705 576.613 274.601C577.157 274.487 577.726 274.499 578.322 274.638C578.914 274.76 579.518 275.009 580.135 275.382C580.33 275.501 580.439 275.663 580.462 275.869C580.48 276.058 580.414 276.277 580.263 276.526L577.105 281.736L575.936 281.027L578.701 276.466L578.787 276.874C578.289 276.572 577.827 276.395 577.4 276.343C576.979 276.28 576.597 276.337 576.253 276.514C575.905 276.673 575.606 276.958 575.357 277.369C575.082 277.823 574.954 278.278 574.973 278.734C574.989 279.173 575.139 279.597 575.423 280.006C575.703 280.398 576.109 280.754 576.639 281.076L576.752 281.145C577.64 281.683 578.43 281.881 579.123 281.738C579.811 281.579 580.402 281.093 580.894 280.282C581.064 280 581.222 279.667 581.367 279.281C581.508 278.878 581.587 278.468 581.604 278.049C581.612 277.743 581.679 277.51 581.806 277.35C581.922 277.183 582.063 277.084 582.23 277.052C582.404 277.01 582.579 277.027 582.754 277.104C582.919 277.174 583.056 277.301 583.166 277.486C583.282 277.66 583.341 277.881 583.342 278.148C583.35 278.671 583.263 279.217 583.08 279.787C582.893 280.34 582.672 280.827 582.416 281.249ZM586.962 273.751C586.615 274.324 586.195 274.773 585.703 275.096C585.207 275.402 584.69 275.57 584.154 275.6C583.625 275.619 583.122 275.484 582.646 275.196C582.061 274.841 581.693 274.411 581.542 273.905C581.379 273.392 581.429 272.749 581.691 271.975C581.952 271.202 582.431 270.241 583.126 269.094L583.619 268.283L584.787 268.991L584.305 269.787C583.898 270.458 583.606 271.013 583.428 271.453C583.25 271.892 583.19 272.248 583.247 272.519C583.3 272.774 583.468 272.986 583.749 273.156C584.106 273.373 584.474 273.426 584.852 273.315C585.23 273.203 585.553 272.926 585.822 272.482C586.039 272.125 586.148 271.762 586.15 271.393C586.147 271.007 586.049 270.644 585.855 270.305C585.662 269.965 585.375 269.681 584.997 269.451L583.13 268.32C582.589 267.992 582.127 267.874 581.745 267.968C581.363 268.062 581.001 268.39 580.66 268.953C580.469 269.267 580.301 269.63 580.153 270.044C580.013 270.447 579.913 270.905 579.854 271.416C579.827 271.681 579.742 271.881 579.601 272.017C579.465 272.143 579.307 272.209 579.124 272.217C578.931 272.218 578.754 272.17 578.591 272.071C578.429 271.973 578.298 271.835 578.199 271.656C578.089 271.471 578.059 271.253 578.108 271.001C578.204 270.379 578.347 269.814 578.536 269.307C578.731 268.79 578.944 268.341 579.173 267.963C579.646 267.184 580.152 266.617 580.692 266.264C581.238 265.9 581.83 265.741 582.468 265.787C583.095 265.827 583.787 266.077 584.545 266.536L588.44 268.898C588.775 269.101 588.986 269.34 589.071 269.613C589.146 269.881 589.092 270.166 588.908 270.469C588.724 270.772 588.493 270.957 588.215 271.025C587.933 271.076 587.624 271 587.289 270.797L586.509 270.324L586.588 270.194C586.921 270.5 587.159 270.851 587.303 271.249C587.442 271.629 587.486 272.033 587.434 272.461C587.382 272.888 587.225 273.318 586.962 273.751Z" fill="white"/>
</g>
<defs>
<clipPath id="clip0_8401_111006">
<rect width="655.406" height="609.105" fill="white"/>
</clipPath>
<clipPath id="clip1_8401_111006">
<rect width="657.003" height="567.593" fill="white" transform="translate(0 21.6025)"/>
</clipPath>
</defs>
</svg>
