<svg width="33" height="33" viewBox="0 0 33 33" fill="none" xmlns="http://www.w3.org/2000/svg">
<g filter="url(#filter0_d_8618_9424)">
<rect x="4.33398" y="4.5" width="24" height="24" rx="12" fill="#F2F2F2"/>
<path d="M15.6407 20.64C15.1367 20.64 14.6141 20.5747 14.0727 20.444C13.5314 20.3133 13.0601 20.1173 12.6587 19.856C12.4721 19.7347 12.3461 19.5947 12.2807 19.436C12.2154 19.2773 12.1967 19.128 12.2247 18.988C12.2621 18.8387 12.3321 18.7127 12.4347 18.61C12.5467 18.5073 12.6821 18.4467 12.8407 18.428C13.0087 18.4093 13.1907 18.4513 13.3867 18.554C13.7694 18.7593 14.1381 18.9087 14.4927 19.002C14.8474 19.086 15.2114 19.128 15.5847 19.128C15.9954 19.128 16.3407 19.072 16.6207 18.96C16.9007 18.848 17.1107 18.68 17.2507 18.456C17.4001 18.232 17.4747 17.9613 17.4747 17.644C17.4747 17.1773 17.3161 16.832 16.9987 16.608C16.6907 16.3747 16.2381 16.258 15.6407 16.258H14.7447C14.4834 16.258 14.2827 16.1927 14.1427 16.062C14.0121 15.9313 13.9467 15.7493 13.9467 15.516C13.9467 15.2827 14.0121 15.1007 14.1427 14.97C14.2827 14.8393 14.4834 14.774 14.7447 14.774H15.4727C15.8274 14.774 16.1307 14.718 16.3827 14.606C16.6347 14.4847 16.8307 14.3167 16.9707 14.102C17.1107 13.8873 17.1807 13.626 17.1807 13.318C17.1807 12.8887 17.0361 12.562 16.7467 12.338C16.4667 12.114 16.0561 12.002 15.5147 12.002C15.1694 12.002 14.8427 12.044 14.5347 12.128C14.2361 12.2027 13.9047 12.3473 13.5407 12.562C13.3727 12.6647 13.2094 12.7067 13.0507 12.688C12.9014 12.6693 12.7754 12.6087 12.6727 12.506C12.5701 12.4033 12.5001 12.282 12.4627 12.142C12.4254 11.9927 12.4347 11.8433 12.4907 11.694C12.5467 11.5353 12.6634 11.4 12.8407 11.288C13.2421 11.0267 13.6854 10.8307 14.1707 10.7C14.6561 10.56 15.1554 10.49 15.6687 10.49C16.3501 10.49 16.9334 10.5973 17.4187 10.812C17.9041 11.0173 18.2727 11.316 18.5247 11.708C18.7861 12.0907 18.9167 12.5573 18.9167 13.108C18.9167 13.5 18.8421 13.8593 18.6927 14.186C18.5434 14.5033 18.3334 14.774 18.0627 14.998C17.7921 15.222 17.4654 15.3807 17.0827 15.474V15.306C17.7547 15.418 18.2774 15.698 18.6507 16.146C19.0241 16.5847 19.2107 17.1353 19.2107 17.798C19.2107 18.3767 19.0661 18.8807 18.7767 19.31C18.4874 19.7393 18.0767 20.0707 17.5447 20.304C17.0127 20.528 16.3781 20.64 15.6407 20.64Z" fill="#009E96"/>
</g>
<defs>
<filter id="filter0_d_8618_9424" x="0.333984" y="0.5" width="32" height="32" filterUnits="userSpaceOnUse" color-interpolation-filters="sRGB">
<feFlood flood-opacity="0" result="BackgroundImageFix"/>
<feColorMatrix in="SourceAlpha" type="matrix" values="0 0 0 0 0 0 0 0 0 0 0 0 0 0 0 0 0 0 127 0" result="hardAlpha"/>
<feMorphology radius="4" operator="dilate" in="SourceAlpha" result="effect1_dropShadow_8618_9424"/>
<feOffset/>
<feColorMatrix type="matrix" values="0 0 0 0 0.8 0 0 0 0 0.952941 0 0 0 0 0.937255 0 0 0 1 0"/>
<feBlend mode="normal" in2="BackgroundImageFix" result="effect1_dropShadow_8618_9424"/>
<feBlend mode="normal" in="SourceGraphic" in2="effect1_dropShadow_8618_9424" result="shape"/>
</filter>
</defs>
</svg>
