<svg width="343" height="153" viewBox="0 0 343 153" fill="none" xmlns="http://www.w3.org/2000/svg">
<mask id="path-1-inside-1_8530_14776" fill="white">
<path fill-rule="evenodd" clip-rule="evenodd" d="M12 0H239.016C239.274 3.90902 242.526 7 246.5 7C250.474 7 253.726 3.90902 253.984 0H331C337.627 0 343 5.37258 343 12V61.7991C337.657 64.5302 334 70.088 334 76.5C334 82.912 337.657 88.4698 343 91.2009V141C343 147.627 337.627 153 331 153H253.984C253.994 152.835 254 152.668 254 152.5C254 148.358 250.642 145 246.5 145C242.358 145 239 148.358 239 152.5C239 152.668 239.006 152.835 239.016 153H12C5.37258 153 0 147.627 0 141V92.0611C6.40856 89.796 11 83.6842 11 76.5C11 69.3158 6.40856 63.204 0 60.9389V12C0 5.37258 5.37258 0 12 0Z"/>
</mask>
<path fill-rule="evenodd" clip-rule="evenodd" d="M12 0H239.016C239.274 3.90902 242.526 7 246.5 7C250.474 7 253.726 3.90902 253.984 0H331C337.627 0 343 5.37258 343 12V61.7991C337.657 64.5302 334 70.088 334 76.5C334 82.912 337.657 88.4698 343 91.2009V141C343 147.627 337.627 153 331 153H253.984C253.994 152.835 254 152.668 254 152.5C254 148.358 250.642 145 246.5 145C242.358 145 239 148.358 239 152.5C239 152.668 239.006 152.835 239.016 153H12C5.37258 153 0 147.627 0 141V92.0611C6.40856 89.796 11 83.6842 11 76.5C11 69.3158 6.40856 63.204 0 60.9389V12C0 5.37258 5.37258 0 12 0Z" fill="white"/>
<path d="M239.016 0L240.014 -0.0656785L239.953 -1H239.016V0ZM253.984 0V-1H253.047L252.986 -0.0656785L253.984 0ZM343 61.7991L343.455 62.6895L344 62.411V61.7991H343ZM343 91.2009H344V90.589L343.455 90.3105L343 91.2009ZM253.984 153L252.986 152.934L252.916 154H253.984V153ZM239.016 153V154H240.084L240.014 152.934L239.016 153ZM0 92.0611L-0.333246 91.1183L-1 91.3539V92.0611H0ZM0 60.9389H-1V61.6461L-0.333246 61.8817L0 60.9389ZM239.016 -1H12V1H239.016V-1ZM246.5 6C243.056 6 240.237 3.32118 240.014 -0.0656785L238.019 0.0656785C238.31 4.49686 241.996 8 246.5 8V6ZM252.986 -0.0656785C252.763 3.32118 249.944 6 246.5 6V8C251.004 8 254.69 4.49686 254.981 0.0656785L252.986 -0.0656785ZM331 -1H253.984V1H331V-1ZM344 12C344 4.8203 338.18 -1 331 -1V1C337.075 1 342 5.92487 342 12H344ZM344 61.7991V12H342V61.7991H344ZM335 76.5C335 70.478 338.434 65.2563 343.455 62.6895L342.545 60.9087C336.881 63.804 333 69.6979 333 76.5H335ZM343.455 90.3105C338.434 87.7437 335 82.522 335 76.5H333C333 83.3021 336.881 89.196 342.545 92.0913L343.455 90.3105ZM344 141V91.2009H342V141H344ZM331 154C338.18 154 344 148.18 344 141H342C342 147.075 337.075 152 331 152V154ZM253.984 154H331V152H253.984V154ZM253 152.5C253 152.646 252.995 152.791 252.986 152.934L254.981 153.066C254.994 152.879 255 152.69 255 152.5H253ZM246.5 146C250.09 146 253 148.91 253 152.5H255C255 147.806 251.194 144 246.5 144V146ZM240 152.5C240 148.91 242.91 146 246.5 146V144C241.806 144 238 147.806 238 152.5H240ZM240.014 152.934C240.005 152.791 240 152.646 240 152.5H238C238 152.69 238.006 152.879 238.019 153.066L240.014 152.934ZM12 154H239.016V152H12V154ZM-1 141C-1 148.18 4.8203 154 12 154V152C5.92487 152 1 147.075 1 141H-1ZM-1 92.0611V141H1V92.0611H-1ZM10 76.5C10 83.2472 5.68826 88.99 -0.333246 91.1183L0.333246 93.004C7.12885 90.6021 12 84.1212 12 76.5H10ZM-0.333246 61.8817C5.68826 64.01 10 69.7528 10 76.5H12C12 68.8788 7.12885 62.3979 0.333246 59.996L-0.333246 61.8817ZM-1 12V60.9389H1V12H-1ZM12 -1C4.8203 -1 -1 4.8203 -1 12H1C1 5.92487 5.92487 1 12 1V-1Z" fill="#E6EAED" mask="url(#path-1-inside-1_8530_14776)"/>
<line x1="246.5" y1="7.5" x2="246.5" y2="144.5" stroke="#E6EAED" stroke-linecap="round" stroke-dasharray="3 3"/>
</svg>
