<svg width="32" height="33" viewBox="0 0 32 33" fill="none" xmlns="http://www.w3.org/2000/svg">
<g filter="url(#filter0_d_8618_2148)">
<rect x="4" y="4.5" width="24" height="24" rx="12" fill="#F2F2F2"/>
<path d="M13.1647 20.5C12.8661 20.5 12.6467 20.4347 12.5067 20.304C12.3761 20.164 12.3107 19.9633 12.3107 19.702C12.3107 19.5433 12.3527 19.3893 12.4367 19.24C12.5207 19.0907 12.6421 18.932 12.8007 18.764L15.6147 15.768C16.0441 15.32 16.3521 14.914 16.5387 14.55C16.7254 14.1767 16.8187 13.8033 16.8187 13.43C16.8187 12.9633 16.6694 12.6087 16.3707 12.366C16.0814 12.1233 15.6567 12.002 15.0967 12.002C14.7794 12.002 14.4621 12.0487 14.1447 12.142C13.8274 12.226 13.5054 12.3753 13.1787 12.59C13.0107 12.702 12.8521 12.7487 12.7027 12.73C12.5627 12.7113 12.4367 12.6507 12.3247 12.548C12.2221 12.4453 12.1521 12.3193 12.1147 12.17C12.0774 12.0207 12.0821 11.8713 12.1287 11.722C12.1847 11.5633 12.2967 11.428 12.4647 11.316C12.8661 11.0453 13.3141 10.84 13.8087 10.7C14.3127 10.56 14.8167 10.49 15.3207 10.49C16.0301 10.49 16.6274 10.5973 17.1127 10.812C17.5981 11.0267 17.9667 11.3393 18.2187 11.75C18.4707 12.1607 18.5967 12.66 18.5967 13.248C18.5967 13.64 18.5314 14.0227 18.4007 14.396C18.2794 14.7693 18.0881 15.1473 17.8267 15.53C17.5747 15.9127 17.2434 16.3187 16.8327 16.748L14.2007 19.492V19.016H18.3167C18.5687 19.016 18.7601 19.0767 18.8907 19.198C19.0214 19.3193 19.0867 19.5013 19.0867 19.744C19.0867 19.9867 19.0214 20.1733 18.8907 20.304C18.7601 20.4347 18.5687 20.5 18.3167 20.5H13.1647Z" fill="#009E96"/>
</g>
<defs>
<filter id="filter0_d_8618_2148" x="0" y="0.5" width="32" height="32" filterUnits="userSpaceOnUse" color-interpolation-filters="sRGB">
<feFlood flood-opacity="0" result="BackgroundImageFix"/>
<feColorMatrix in="SourceAlpha" type="matrix" values="0 0 0 0 0 0 0 0 0 0 0 0 0 0 0 0 0 0 127 0" result="hardAlpha"/>
<feMorphology radius="4" operator="dilate" in="SourceAlpha" result="effect1_dropShadow_8618_2148"/>
<feOffset/>
<feColorMatrix type="matrix" values="0 0 0 0 0.8 0 0 0 0 0.952941 0 0 0 0 0.937255 0 0 0 1 0"/>
<feBlend mode="normal" in2="BackgroundImageFix" result="effect1_dropShadow_8618_2148"/>
<feBlend mode="normal" in="SourceGraphic" in2="effect1_dropShadow_8618_2148" result="shape"/>
</filter>
</defs>
</svg>
