<svg width="32" height="32" viewBox="0 0 32 32" fill="none" xmlns="http://www.w3.org/2000/svg">
<path fill-rule="evenodd" clip-rule="evenodd" d="M15.9999 1.33301C7.89974 1.33301 1.33325 7.8995 1.33325 15.9997C1.33325 24.0998 7.89974 30.6663 15.9999 30.6663C24.1001 30.6663 30.6666 24.0998 30.6666 15.9997C30.6666 7.8995 24.1001 1.33301 15.9999 1.33301ZM15.9999 9.33301C16.7363 9.33301 17.3333 9.92996 17.3333 10.6663V14.6663H21.3333C22.0696 14.6663 22.6666 15.2633 22.6666 15.9997C22.6666 16.7361 22.0696 17.333 21.3333 17.333H17.3333V21.333C17.3333 22.0694 16.7363 22.6663 15.9999 22.6663C15.2635 22.6663 14.6666 22.0694 14.6666 21.333V17.333H10.6666C9.93021 17.333 9.33325 16.7361 9.33325 15.9997C9.33325 15.2633 9.93021 14.6663 10.6666 14.6663H14.6666V10.6663C14.6666 9.92996 15.2635 9.33301 15.9999 9.33301Z" fill="#009E96"/>
</svg>
