<svg width="330" height="231" viewBox="0 0 330 231" fill="none" xmlns="http://www.w3.org/2000/svg">
<path d="M330 0.663086V84.9251C330 89.0716 329.828 93.1738 329.485 97.2319C323.993 163.088 274.806 216.525 210.993 228.466C202.078 230.135 193.028 230.972 183.959 230.966H146.037C136.134 230.972 126.256 229.974 116.555 227.987C50.0353 214.35 0 155.481 0 84.9251V0.663086H330Z" fill="#E2E2E2"/>
<path d="M323.523 100.738C323.523 100.738 313.138 165.585 264.249 198.437L248.971 175.52C248.971 175.52 279.659 157.532 297.945 100.738H323.523Z" fill="#66AFFF"/>
<path d="M3.13184 81.7373C3.13184 81.7373 6.1995 157.202 59.3427 195.257L77.8893 173.687C77.8893 173.687 34.7331 146.717 31.4443 81.7373H3.13184Z" fill="#66AFFF"/>
<path d="M31.4443 3.99609H3.13184V66.3624H31.4443V3.99609Z" fill="#66AFFF"/>
<path d="M284.862 92.0703L284.383 91.9738L267.095 88.5322C265.487 101.852 263.633 113.624 258.592 123.374C248.942 142.009 238.087 148.776 238.087 148.776L248.468 162.884C277.327 137.502 284.576 111.329 286.393 99.3072C286.462 98.8489 286.466 98.8288 286.522 98.4106L284.673 98.3825L284.862 92.0703Z" fill="#66AFFF"/>
<path d="M44.2258 81.7931C44.2258 81.7931 42.0668 125.392 79.8436 161.399L91.1292 147.231C91.1292 147.231 77.5961 137.501 69.7843 118.018C65.7034 107.826 63.6369 94.7352 64.3365 80.5508L44.2258 81.7931Z" fill="#66AFFF"/>
<path d="M60.5973 98.225L49.6856 99.4793C48.9054 94.641 48.5021 89.7494 48.4795 84.8487L60.6013 84.125" stroke="#3395FF" stroke-width="2.81436" stroke-miterlimit="10"/>
<path d="M53.1753 113.849C51.9505 110.17 50.9911 106.408 50.3047 102.592" stroke="#3395FF" stroke-width="2.81436" stroke-miterlimit="10"/>
<path d="M59.3427 128.46C57.2325 124.441 55.4132 120.275 53.8989 115.996" stroke="#3395FF" stroke-width="2.81436" stroke-miterlimit="10"/>
<path d="M66.7768 140.428C64.4514 137.239 62.3284 133.908 60.4204 130.453" stroke="#3395FF" stroke-width="2.81436" stroke-miterlimit="10"/>
<path d="M85.7739 147.232L79.522 154.83C76.4463 151.771 70.7613 145.688 68.1318 142.242" stroke="#3395FF" stroke-width="2.81436" stroke-miterlimit="10"/>
<path d="M36.3574 66.0694V1.6084" stroke="#C1C1C1" stroke-width="0.402052" stroke-miterlimit="10"/>
<path d="M81.0735 169.047C68.297 158.155 57.8233 144.822 50.2664 129.829C42.7094 114.837 38.2212 98.4867 37.0649 81.7373" stroke="#C1C1C1" stroke-width="0.402052" stroke-miterlimit="10"/>
<path d="M292.392 0V72.9121C292.412 90.9914 288.545 108.864 281.053 125.318C273.561 141.772 262.62 156.423 248.971 168.279" stroke="#C1C1C1" stroke-width="0.402052" stroke-miterlimit="10"/>
<path d="M253.606 138.306L260.674 144.075C257.635 147.972 254.336 151.659 250.8 155.111L244.166 147.119" stroke="#3395FF" stroke-width="2.81436" stroke-miterlimit="10"/>
<path d="M261.519 126.115L269.531 130.863C267.332 134.725 264.9 138.449 262.25 142.016" stroke="#3395FF" stroke-width="2.81436" stroke-miterlimit="10"/>
<path d="M277.584 113.021C275.853 117.708 273.781 122.262 271.385 126.646" stroke="#3395FF" stroke-width="2.81436" stroke-miterlimit="10"/>
<path d="M272.993 95.3672L282.148 97.4579C281.202 102.037 279.959 106.549 278.429 110.967" stroke="#3395FF" stroke-width="2.81436" stroke-miterlimit="10"/>
<path d="M8.77246 62.3459V9.52832H27.3473" stroke="#3395FF" stroke-width="2.81436" stroke-miterlimit="10"/>
<path d="M30.2705 119.104L16.8862 123.808C12.6297 111.89 10.2533 99.3826 9.84229 86.7344" stroke="#3395FF" stroke-width="2.81436" stroke-miterlimit="10"/>
<path d="M33.3298 158.409C26.6281 148.532 21.4103 137.727 17.8428 126.337" stroke="#3395FF" stroke-width="2.81436" stroke-miterlimit="10"/>
<path d="M69.4944 174.933L58.3415 187.179C48.8128 179.757 42.0463 170.969 35.0908 161.122L49.2993 151.356" stroke="#3395FF" stroke-width="2.81436" stroke-miterlimit="10"/>
<path d="M288.126 168.396C281.858 175.855 274.739 182.556 266.914 188.361L257.586 172.311" stroke="#3395FF" stroke-width="2.81436" stroke-miterlimit="10"/>
<path d="M306.452 139.202C302.055 149.001 296.409 158.191 289.654 166.542L275.333 154.934" stroke="#3395FF" stroke-width="2.81436" stroke-miterlimit="10"/>
<path d="M300.671 108.554L315.679 108.438C314.086 118.251 311.312 127.836 307.417 136.983L291.335 132.159" stroke="#3395FF" stroke-width="2.81436" stroke-miterlimit="10"/>
<path d="M318.771 6.97559V77.2824" stroke="#D8D8D8" stroke-width="2.81436" stroke-miterlimit="10"/>
<path d="M64.7827 63.6769L43.876 63.4598V6.97559H85.3677L85.3074 40.2092H64.9194L64.7827 63.6769Z" fill="#66AFFF"/>
<path d="M200.72 0.663086C200.377 9.38541 196.752 17.6564 190.573 23.8213C187.347 27.053 183.515 29.6159 179.297 31.3628C175.079 33.1098 170.557 34.0064 165.991 34.0012H162.284C153.31 34.0035 144.683 30.5347 138.208 24.3209C131.734 18.107 127.913 9.62965 127.547 0.663086H200.72Z" fill="#5A6064"/>
<path d="M211.507 0.663086C210.932 12.0657 205.997 22.8113 197.724 30.6788C189.45 38.5462 178.47 42.9338 167.052 42.9348H160.491C149.074 42.9338 138.094 38.5462 129.82 30.6788C121.546 22.8113 116.612 12.0657 116.036 0.663086H211.507Z" stroke="#605F5F" stroke-width="0.402052" stroke-miterlimit="10"/>
<path d="M239.715 179.179C239.716 182.951 238.973 186.686 237.53 190.171C236.087 193.657 233.971 196.824 231.304 199.491C228.637 202.159 225.47 204.275 221.985 205.718C218.5 207.162 214.765 207.905 210.992 207.905V228.466C202.078 230.135 193.028 230.972 183.959 230.967H146.037C136.134 230.973 126.256 229.974 116.555 227.988V207.905C110.988 207.908 105.54 206.293 100.874 203.257C96.2082 200.221 92.5249 195.894 90.2722 190.803C88.0195 185.713 87.2944 180.077 88.185 174.582C89.0757 169.087 91.5439 163.969 95.2893 159.851C99.0347 155.733 103.896 152.791 109.282 151.384C114.668 149.978 120.347 150.166 125.628 151.927C130.909 153.688 135.565 156.945 139.029 161.303C142.493 165.66 144.616 170.931 145.14 176.473H182.382C183.07 169.116 186.566 162.307 192.145 157.461C197.723 152.616 204.954 150.106 212.335 150.455C219.716 150.803 226.678 153.983 231.775 159.332C236.872 164.682 239.712 171.79 239.703 179.179H239.715Z" fill="#5A6064"/>
<path d="M282.888 43.9365H267.783V61.3574H282.888V43.9365Z" fill="#66AFFF"/>
<path d="M282.888 66.7168H267.783V84.1377H282.888V66.7168Z" fill="#66AFFF"/>
<path d="M261.945 44.041V87.2696C261.945 89.5372 261.84 91.7806 261.643 93.9959C259.75 115.168 250.824 132.436 234.658 145.676C229.395 139.528 219.721 136.963 210.993 137.184C187.111 137.791 174.109 148.611 172.746 163.205H154.388C151.123 142.781 131.495 137.184 116.543 137.184C108.462 137.184 102.499 136.408 93.9878 144.156C77.0574 129.578 68.4053 110.448 68.4053 87.2696V44.041H126.301C134.426 52.7615 147.609 55.399 160.475 55.399H167.053C179.918 55.399 192.298 52.7615 200.423 44.041H261.945Z" fill="#66AFFF"/>
<path d="M158.738 60.4844H127.133V72.2363H158.738V60.4844Z" fill="#3395FF"/>
<path d="M201.142 60.4844H169.537V72.2363H201.142V60.4844Z" fill="#3395FF"/>
<path d="M185.607 95.7363H160.069V107.488H185.607V95.7363Z" fill="#3395FF"/>
<path d="M150.167 95.7363H124.628V107.488H150.167V95.7363Z" fill="#3395FF"/>
<path d="M115.377 95.7363H89.8384V107.488H115.377V95.7363Z" fill="#3395FF"/>
<path d="M189.077 119.992H163.539V131.744H189.077V119.992Z" fill="#3395FF"/>
<path d="M156.832 119.992H131.294V131.744H156.832V119.992Z" fill="#3395FF"/>
<path d="M122.441 119.992H96.9023V131.744H122.441V119.992Z" fill="#3395FF"/>
<path d="M82.1392 60.4843V84.3662H93.8911V60.4843H82.1392Z" fill="#3395FF"/>
<path d="M225.415 60.4844H213.663V72.2363H225.415V60.4844Z" fill="#3395FF"/>
<path d="M246.401 60.3076H234.649V72.0596H246.401V60.3076Z" fill="#3395FF"/>
<path d="M280.214 46.6699H270.452V58.6953H280.214V46.6699Z" fill="#3395FF"/>
<path d="M246.401 75.6787H234.649V87.4307H246.401V75.6787Z" fill="#3395FF"/>
<path d="M280.122 69.4424H270.545V81.2024H280.122V69.4424Z" fill="#3395FF"/>
<path d="M225.414 95.7363H213.662V107.488H225.414V95.7363Z" fill="#3395FF"/>
<path d="M206.461 95.7363H194.709V107.488H206.461V95.7363Z" fill="#3395FF"/>
<path d="M209.075 119.992H197.323V131.744H209.075V119.992Z" fill="#3395FF"/>
<path d="M61.0353 59.1381L47.9888 58.933V11.1572H80.6836L80.6233 38.6576" stroke="#3395FF" stroke-width="2.81436" stroke-miterlimit="10"/>
<path d="M330 0.663086V84.9251C330 89.0716 329.829 93.1738 329.486 97.2319H285.73V40.3657H214.696V0.663086H330Z" fill="#66AFFF"/>
<path d="M299.332 89.2238H322.952V66.918H299.332" stroke="#3395FF" stroke-width="2.81436" stroke-miterlimit="10"/>
<path d="M299.332 58.3701H322.952V36.4824H299.332" stroke="#3395FF" stroke-width="2.81436" stroke-miterlimit="10"/>
<path d="M313.235 25.8402H322.952V7.99316H289.634V25.8402H301.897" stroke="#3395FF" stroke-width="2.81436" stroke-miterlimit="10"/>
<path d="M281.517 26.8333V7.99316H253.707" stroke="#3395FF" stroke-width="2.81436" stroke-miterlimit="10"/>
<path d="M221.735 33.1088V20.5527H247.607V33.1088" stroke="#3395FF" stroke-width="2.81436" stroke-miterlimit="10"/>
<path d="M248.813 7.99316H222.941" stroke="#3395FF" stroke-width="2.81436" stroke-miterlimit="10"/>
<path d="M150.222 18.2334V8.3693H154.287C154.895 8.3693 155.438 8.4241 155.917 8.5337C156.395 8.63334 156.803 8.79276 157.142 9.01196C157.491 9.2212 157.755 9.49022 157.934 9.81902C158.114 10.1478 158.203 10.5414 158.203 10.9997C158.203 11.3783 158.124 11.7171 157.964 12.016C157.805 12.305 157.551 12.5391 157.202 12.7185C156.853 12.8978 156.4 13.0224 155.842 13.0921V13.3163C156.788 13.3761 157.486 13.6102 157.934 14.0187C158.383 14.4173 158.607 14.9603 158.607 15.6478C158.607 16.2157 158.457 16.694 158.158 17.0826C157.859 17.4612 157.416 17.7502 156.828 17.9494C156.25 18.1387 155.528 18.2334 154.661 18.2334H150.222ZM152.285 16.4997H154.646C154.895 16.4997 155.129 16.4848 155.349 16.4549C155.568 16.415 155.767 16.3552 155.946 16.2755C156.126 16.1859 156.26 16.0613 156.35 15.9019C156.45 15.7425 156.499 15.5432 156.499 15.3041C156.499 15.0849 156.46 14.9005 156.38 14.7511C156.3 14.5917 156.191 14.4621 156.051 14.3625C155.912 14.2529 155.742 14.1632 155.543 14.0935C155.354 14.0237 155.139 13.9789 154.9 13.959C154.671 13.9291 154.427 13.9141 154.168 13.9141H152.285V16.4997ZM152.285 12.5541H153.824C154.153 12.5541 154.452 12.5341 154.721 12.4943C155 12.4544 155.239 12.3897 155.438 12.3C155.648 12.2004 155.807 12.0708 155.917 11.9114C156.036 11.742 156.096 11.5328 156.096 11.2837C156.096 11.0446 156.046 10.8503 155.946 10.7008C155.847 10.5414 155.707 10.4168 155.528 10.3272C155.349 10.2375 155.139 10.1727 154.9 10.1329C154.671 10.093 154.427 10.0731 154.168 10.0731H152.285V12.5541ZM159.369 18.2334L162.732 8.3693H165.856L169.233 18.2334H166.887L164.406 10.0731H164.197L161.701 18.2334H159.369ZM161.252 16.3054V14.8258H167.649V16.3054H161.252ZM170.554 18.2334V8.3693H174.559C175.037 8.3693 175.486 8.40916 175.904 8.48887C176.323 8.55861 176.701 8.66821 177.04 8.81767C177.389 8.96712 177.688 9.15644 177.937 9.3856C178.196 9.61477 178.39 9.88877 178.52 10.2076C178.649 10.5165 178.714 10.8702 178.714 11.2687C178.714 11.6175 178.659 11.9313 178.549 12.2103C178.45 12.4893 178.29 12.7384 178.071 12.9576C177.852 13.1668 177.573 13.3412 177.234 13.4807C176.905 13.6102 176.522 13.6999 176.083 13.7497V13.959C176.592 14.0187 177 14.1383 177.309 14.3177C177.618 14.497 177.857 14.7411 178.026 15.05C178.206 15.3589 178.36 15.7425 178.49 16.2008L179.073 18.2334H176.696L176.248 16.3652C176.158 15.9666 176.029 15.6528 175.859 15.4236C175.69 15.1945 175.476 15.035 175.217 14.9454C174.967 14.8557 174.664 14.8109 174.305 14.8109H172.706V18.2334L170.554 18.2334ZM172.706 13.1818H174.096C174.265 13.1818 174.454 13.1768 174.664 13.1668C174.873 13.1569 175.082 13.127 175.291 13.0772C175.511 13.0273 175.705 12.9476 175.874 12.838C176.054 12.7284 176.198 12.574 176.308 12.3747C176.427 12.1754 176.487 11.9214 176.487 11.6125C176.487 11.2937 176.432 11.0346 176.323 10.8353C176.213 10.636 176.073 10.4816 175.904 10.372C175.735 10.2624 175.555 10.1827 175.366 10.1329C175.177 10.0831 174.997 10.0532 174.828 10.0432C174.659 10.0332 174.524 10.0283 174.424 10.0283H172.706V13.1818Z" fill="white"/>
<path d="M133.72 203.59V202.022H136.257C136.567 202.022 136.855 201.974 137.12 201.876C137.395 201.779 137.629 201.624 137.824 201.411C138.028 201.19 138.183 200.902 138.289 200.548C138.404 200.185 138.462 199.746 138.462 199.233C138.462 198.737 138.409 198.312 138.303 197.957C138.205 197.594 138.05 197.298 137.838 197.067C137.634 196.828 137.373 196.656 137.054 196.549C136.744 196.443 136.381 196.39 135.965 196.39H133.72V194.822H135.898C136.961 194.822 137.829 194.995 138.502 195.34C139.175 195.686 139.666 196.182 139.976 196.828C140.295 197.466 140.455 198.232 140.455 199.126C140.455 199.817 140.37 200.415 140.202 200.92C140.043 201.425 139.821 201.85 139.538 202.195C139.263 202.532 138.949 202.806 138.595 203.019C138.241 203.222 137.864 203.368 137.466 203.457C137.076 203.546 136.691 203.59 136.31 203.59H133.72ZM132.816 203.59V194.822H134.729V203.59H132.816ZM141.182 203.683L141.049 201.929C141.146 201.947 141.244 201.96 141.341 201.969C141.438 201.969 141.514 201.969 141.567 201.969C141.939 201.969 142.222 201.916 142.417 201.81C142.612 201.704 142.749 201.535 142.829 201.305C142.909 201.075 142.948 200.774 142.948 200.402V194.822H144.861V200.415C144.861 201.132 144.759 201.739 144.556 202.235C144.352 202.722 144.029 203.094 143.586 203.351C143.143 203.608 142.572 203.736 141.872 203.736C141.793 203.736 141.7 203.732 141.593 203.723C141.487 203.714 141.35 203.701 141.182 203.683ZM149.746 203.59V194.822H153.359C153.899 194.822 154.382 194.871 154.807 194.969C155.232 195.057 155.595 195.199 155.896 195.394C156.206 195.58 156.441 195.819 156.6 196.111C156.76 196.403 156.839 196.753 156.839 197.16C156.839 197.497 156.768 197.798 156.627 198.064C156.485 198.321 156.259 198.529 155.949 198.688C155.639 198.847 155.236 198.958 154.74 199.02V199.219C155.582 199.273 156.202 199.481 156.6 199.844C156.999 200.198 157.198 200.681 157.198 201.292C157.198 201.797 157.065 202.222 156.799 202.567C156.534 202.904 156.14 203.16 155.617 203.337C155.103 203.506 154.461 203.59 153.691 203.59H149.746ZM151.579 202.049H153.678C153.899 202.049 154.107 202.036 154.302 202.009C154.497 201.974 154.674 201.92 154.833 201.85C154.993 201.77 155.112 201.659 155.192 201.518C155.281 201.376 155.325 201.199 155.325 200.986C155.325 200.791 155.289 200.628 155.219 200.495C155.148 200.353 155.05 200.238 154.926 200.149C154.802 200.052 154.652 199.972 154.475 199.91C154.306 199.848 154.116 199.808 153.903 199.791C153.7 199.764 153.483 199.751 153.253 199.751H151.579V202.049ZM151.579 198.542H152.947C153.239 198.542 153.505 198.524 153.744 198.489C153.992 198.453 154.205 198.396 154.382 198.316C154.568 198.228 154.709 198.112 154.807 197.971C154.913 197.82 154.966 197.634 154.966 197.413C154.966 197.2 154.922 197.028 154.833 196.895C154.745 196.753 154.621 196.642 154.461 196.563C154.302 196.483 154.116 196.425 153.903 196.39C153.7 196.354 153.483 196.337 153.253 196.337H151.579V198.542ZM162.522 203.776C161.884 203.776 161.313 203.678 160.808 203.484C160.303 203.28 159.87 202.988 159.506 202.607C159.152 202.217 158.878 201.743 158.683 201.185C158.497 200.619 158.404 199.972 158.404 199.246C158.404 198.21 158.585 197.355 158.948 196.682C159.312 196 159.808 195.491 160.436 195.154C161.065 194.809 161.778 194.636 162.575 194.636C163.195 194.636 163.757 194.738 164.262 194.942C164.767 195.137 165.196 195.429 165.551 195.819C165.914 196.199 166.193 196.673 166.388 197.24C166.582 197.807 166.68 198.462 166.68 199.206C166.68 199.959 166.578 200.619 166.374 201.185C166.179 201.752 165.9 202.23 165.537 202.62C165.174 203.001 164.736 203.289 164.222 203.484C163.717 203.678 163.151 203.776 162.522 203.776ZM162.562 202.248C162.81 202.248 163.058 202.204 163.306 202.115C163.562 202.027 163.797 201.876 164.01 201.664C164.231 201.451 164.404 201.154 164.528 200.774C164.652 200.384 164.714 199.897 164.714 199.312C164.714 198.604 164.621 198.024 164.435 197.572C164.258 197.112 164.001 196.771 163.664 196.549C163.337 196.328 162.96 196.217 162.535 196.217C162.305 196.217 162.061 196.261 161.805 196.35C161.557 196.43 161.322 196.58 161.101 196.802C160.879 197.014 160.702 197.315 160.569 197.705C160.436 198.095 160.37 198.599 160.37 199.219C160.37 199.804 160.432 200.291 160.556 200.681C160.68 201.061 160.844 201.367 161.047 201.597C161.26 201.827 161.495 201.996 161.751 202.102C162.017 202.199 162.287 202.248 162.562 202.248ZM172.057 203.776C171.419 203.776 170.848 203.678 170.343 203.484C169.838 203.28 169.404 202.988 169.041 202.607C168.687 202.217 168.413 201.743 168.218 201.185C168.032 200.619 167.939 199.972 167.939 199.246C167.939 198.21 168.12 197.355 168.483 196.682C168.847 196 169.342 195.491 169.971 195.154C170.6 194.809 171.313 194.636 172.11 194.636C172.73 194.636 173.292 194.738 173.797 194.942C174.302 195.137 174.731 195.429 175.086 195.819C175.449 196.199 175.728 196.673 175.922 197.24C176.117 197.807 176.215 198.462 176.215 199.206C176.215 199.959 176.113 200.619 175.909 201.185C175.714 201.752 175.435 202.23 175.072 202.62C174.709 203.001 174.271 203.289 173.757 203.484C173.252 203.678 172.686 203.776 172.057 203.776ZM172.097 202.248C172.345 202.248 172.593 202.204 172.841 202.115C173.097 202.027 173.332 201.876 173.545 201.664C173.766 201.451 173.939 201.154 174.063 200.774C174.187 200.384 174.249 199.897 174.249 199.312C174.249 198.604 174.156 198.024 173.97 197.572C173.793 197.112 173.536 196.771 173.199 196.549C172.872 196.328 172.495 196.217 172.07 196.217C171.84 196.217 171.596 196.261 171.339 196.35C171.092 196.43 170.857 196.58 170.635 196.802C170.414 197.014 170.237 197.315 170.104 197.705C169.971 198.095 169.905 198.599 169.905 199.219C169.905 199.804 169.967 200.291 170.091 200.681C170.215 201.061 170.379 201.367 170.582 201.597C170.795 201.827 171.03 201.996 171.286 202.102C171.552 202.199 171.822 202.248 172.097 202.248ZM179.38 203.59V194.822H181.306V203.59H179.38ZM176.829 196.43V194.822H183.87V196.43H176.829ZM190.769 203.59V194.822H192.669V203.59H190.769ZM185.057 203.59V194.822H186.97V203.59H185.057ZM186.2 199.937V198.369H191.54V199.937H186.2Z" fill="white"/>
<path d="M116.872 89.1904V87.3231H119.895C120.264 87.3231 120.607 87.2651 120.923 87.149C121.25 87.033 121.53 86.8484 121.762 86.5952C122.004 86.3314 122.189 85.9886 122.316 85.5666C122.453 85.134 122.521 84.6118 122.521 83.9999C122.521 83.4091 122.458 82.9027 122.332 82.4807C122.215 82.0482 122.031 81.6948 121.778 81.4205C121.535 81.1356 121.224 80.9299 120.844 80.8033C120.475 80.6767 120.042 80.6134 119.546 80.6134H116.872V78.7461H119.467C120.733 78.7461 121.767 78.9518 122.569 79.3633C123.371 79.7747 123.956 80.3655 124.325 81.1356C124.705 81.8952 124.895 82.8078 124.895 83.8733C124.895 84.6962 124.795 85.4083 124.594 86.0097C124.405 86.611 124.141 87.1174 123.803 87.5288C123.476 87.9297 123.102 88.2568 122.68 88.51C122.258 88.7526 121.809 88.9267 121.335 89.0322C120.87 89.1377 120.411 89.1904 119.958 89.1904H116.872ZM115.796 89.1904V78.7461H118.075V89.1904H115.796ZM128.558 89.412C128.094 89.412 127.682 89.3223 127.324 89.143C126.965 88.9636 126.68 88.7051 126.469 88.3675C126.269 88.0194 126.168 87.5974 126.168 87.1016C126.168 86.5213 126.295 86.0624 126.548 85.7248C126.812 85.3872 127.144 85.1287 127.545 84.9494C127.957 84.77 128.389 84.6434 128.843 84.5696C129.296 84.4852 129.718 84.4166 130.109 84.3639C130.467 84.3111 130.757 84.2584 130.979 84.2056C131.201 84.1423 131.359 84.0579 131.454 83.9524C131.559 83.8364 131.612 83.6834 131.612 83.4935C131.612 83.2825 131.565 83.0979 131.47 82.9397C131.375 82.7814 131.232 82.6548 131.042 82.5599C130.852 82.4544 130.605 82.4016 130.299 82.4016C130.003 82.4016 129.724 82.4544 129.46 82.5599C129.196 82.6654 128.969 82.8289 128.779 83.0504C128.6 83.2614 128.479 83.5304 128.415 83.8575L126.39 83.2878C126.506 82.8342 126.68 82.4438 126.912 82.1168C127.155 81.7897 127.445 81.5207 127.782 81.3097C128.12 81.0882 128.5 80.9246 128.922 80.8191C129.344 80.7136 129.803 80.6609 130.299 80.6609C130.942 80.6609 131.491 80.74 131.944 80.8983C132.398 81.0565 132.762 81.2992 133.036 81.6262C133.321 81.9427 133.527 82.333 133.653 82.7972C133.791 83.2509 133.859 83.7731 133.859 84.3639V85.7881C133.859 86.1468 133.864 86.5213 133.875 86.9117C133.886 87.2915 133.901 87.6713 133.922 88.051C133.954 88.4308 133.986 88.8106 134.017 89.1904H132.008C131.976 88.9056 131.939 88.5944 131.897 88.2568C131.865 87.9086 131.844 87.5552 131.834 87.1965H131.565C131.417 87.5974 131.206 87.9719 130.932 88.3201C130.657 88.6577 130.32 88.9267 129.919 89.1271C129.518 89.317 129.064 89.412 128.558 89.412ZM129.523 87.7504C129.724 87.7504 129.924 87.7187 130.124 87.6554C130.335 87.5816 130.536 87.4761 130.726 87.3389C130.926 87.2018 131.106 87.0277 131.264 86.8167C131.433 86.6057 131.565 86.3683 131.659 86.1046L131.628 84.8544L131.992 84.9177C131.812 85.0549 131.596 85.1657 131.343 85.2501C131.1 85.3239 130.842 85.3819 130.568 85.4241C130.304 85.4663 130.04 85.5138 129.776 85.5666C129.513 85.6193 129.275 85.6879 129.064 85.7723C128.853 85.8567 128.684 85.9727 128.558 86.1204C128.431 86.2681 128.368 86.4686 128.368 86.7218C128.368 87.0383 128.473 87.2915 128.684 87.4814C128.906 87.6607 129.186 87.7504 129.523 87.7504ZM135.791 89.1904V84.1898V80.8824H137.658L137.642 83.4619H137.943C138.08 82.7761 138.28 82.2328 138.544 81.8319C138.818 81.4205 139.145 81.1251 139.525 80.9457C139.916 80.7558 140.353 80.6609 140.839 80.6609C141.387 80.6609 141.836 80.7611 142.184 80.9616C142.543 81.1515 142.827 81.4046 143.038 81.7211C143.249 82.0376 143.408 82.3858 143.513 82.7656C143.619 83.1348 143.687 83.5041 143.719 83.8733C143.75 84.2426 143.766 84.5749 143.766 84.8703V89.1904H141.488V85.1393C141.488 84.9388 141.477 84.6962 141.456 84.4114C141.435 84.1265 141.377 83.8469 141.282 83.5726C141.197 83.2878 141.05 83.0504 140.839 82.8605C140.638 82.6706 140.353 82.5757 139.984 82.5757C139.562 82.5757 139.209 82.7076 138.924 82.9713C138.65 83.2245 138.439 83.5726 138.291 84.0157C138.143 84.4588 138.069 84.9547 138.069 85.5033V89.1904H135.791ZM149.527 89.412C148.809 89.412 148.181 89.3065 147.643 89.0955C147.105 88.8845 146.657 88.5891 146.298 88.2093C145.95 87.8295 145.686 87.3811 145.507 86.8642C145.328 86.3367 145.238 85.7617 145.238 85.1393C145.238 84.4852 145.328 83.8891 145.507 83.3511C145.686 82.8025 145.955 82.3278 146.314 81.9269C146.673 81.526 147.116 81.2148 147.643 80.9932C148.171 80.7717 148.772 80.6609 149.447 80.6609C149.964 80.6609 150.429 80.7295 150.84 80.8666C151.251 80.9932 151.61 81.1778 151.916 81.4205C152.222 81.6526 152.47 81.9374 152.66 82.275C152.86 82.6021 152.992 82.9713 153.055 83.3827L150.967 84.0157C150.935 83.6781 150.845 83.3933 150.698 83.1612C150.56 82.9186 150.376 82.7392 150.144 82.6232C149.912 82.5071 149.643 82.4491 149.337 82.4491C149.083 82.4491 148.846 82.5018 148.624 82.6073C148.414 82.7023 148.224 82.8553 148.055 83.0662C147.897 83.2667 147.77 83.5304 147.675 83.8575C147.58 84.1845 147.533 84.5802 147.533 85.0443C147.533 85.6668 147.612 86.1732 147.77 86.5635C147.939 86.9539 148.176 87.244 148.482 87.4339C148.788 87.6132 149.147 87.7029 149.558 87.7029C149.97 87.7029 150.297 87.6185 150.539 87.4497C150.792 87.2809 150.977 87.0699 151.093 86.8167C151.22 86.553 151.294 86.2787 151.315 85.9938L153.324 86.4211C153.282 86.8325 153.177 87.2229 153.008 87.5921C152.839 87.9508 152.597 88.2673 152.28 88.5416C151.974 88.8159 151.589 89.0322 151.125 89.1904C150.671 89.3381 150.138 89.412 149.527 89.412ZM154.598 89.1904V80.8824H156.877V89.1904H154.598ZM155.737 79.6798C155.294 79.6798 154.951 79.5848 154.709 79.3949C154.477 79.205 154.361 78.936 154.361 78.5878C154.361 78.2186 154.477 77.939 154.709 77.7491C154.951 77.5592 155.294 77.4643 155.737 77.4643C156.191 77.4643 156.534 77.5592 156.766 77.7491C157.009 77.939 157.13 78.2186 157.13 78.5878C157.13 78.936 157.009 79.205 156.766 79.3949C156.534 79.5848 156.191 79.6798 155.737 79.6798ZM158.91 89.1904V84.1898V80.8824H160.777L160.761 83.4619H161.062C161.199 82.7761 161.399 82.2328 161.663 81.8319C161.937 81.4205 162.264 81.1251 162.644 80.9457C163.035 80.7558 163.472 80.6609 163.958 80.6609C164.506 80.6609 164.955 80.7611 165.303 80.9616C165.661 81.1515 165.946 81.4046 166.157 81.7211C166.368 82.0376 166.527 82.3858 166.632 82.7656C166.738 83.1348 166.806 83.5041 166.838 83.8733C166.869 84.2426 166.885 84.5749 166.885 84.8703V89.1904H164.607V85.1393C164.607 84.9388 164.596 84.6962 164.575 84.4114C164.554 84.1265 164.496 83.8469 164.401 83.5726C164.316 83.2878 164.169 83.0504 163.958 82.8605C163.757 82.6706 163.472 82.5757 163.103 82.5757C162.681 82.5757 162.328 82.7076 162.043 82.9713C161.769 83.2245 161.558 83.5726 161.41 84.0157C161.262 84.4588 161.188 84.9547 161.188 85.5033V89.1904H158.91ZM172.092 92.0547C171.174 92.0547 170.425 91.9809 169.845 91.8332C169.264 91.696 168.837 91.4903 168.563 91.216C168.299 90.9417 168.167 90.6041 168.167 90.2032C168.167 89.7179 168.357 89.3223 168.737 89.0164C169.117 88.7104 169.686 88.5258 170.446 88.4625V88.1618C169.866 88.1618 169.423 88.0985 169.117 87.9719C168.821 87.8453 168.673 87.6291 168.673 87.3231C168.673 87.0277 168.821 86.764 169.117 86.5319C169.412 86.2998 169.908 86.1204 170.604 85.9938V85.6932C169.961 85.6404 169.454 85.4241 169.085 85.0443C168.716 84.6645 168.531 84.174 168.531 83.5726C168.531 83.0451 168.679 82.5757 168.974 82.1642C169.27 81.7422 169.707 81.4099 170.288 81.1673C170.868 80.9141 171.58 80.7875 172.424 80.7875H176.633V82.544L173.991 82.1801V82.5124C174.676 82.6179 175.172 82.7972 175.478 83.0504C175.784 83.2931 175.937 83.6254 175.937 84.0474C175.937 84.4799 175.795 84.8597 175.51 85.1868C175.235 85.5138 174.835 85.7723 174.307 85.9622C173.79 86.1415 173.162 86.2312 172.424 86.2312C172.287 86.2312 172.134 86.2259 171.965 86.2154C171.807 86.1943 171.554 86.1626 171.205 86.1204C171.005 86.2787 170.847 86.4105 170.731 86.516C170.615 86.6215 170.557 86.7218 170.557 86.8167C170.557 86.8906 170.594 86.9539 170.667 87.0066C170.752 87.0488 170.857 87.0805 170.984 87.1016C171.11 87.1227 171.242 87.1332 171.38 87.1332H173.769C173.98 87.1332 174.254 87.149 174.592 87.1807C174.93 87.2123 175.267 87.2967 175.605 87.4339C175.942 87.5605 176.227 87.7768 176.459 88.0827C176.691 88.3781 176.807 88.8054 176.807 89.3645C176.807 89.9764 176.633 90.4775 176.285 90.8679C175.948 91.2687 175.431 91.5641 174.734 91.754C174.038 91.9545 173.157 92.0547 172.092 92.0547ZM172.329 90.219C172.973 90.219 173.474 90.1821 173.832 90.1083C174.202 90.045 174.46 89.9395 174.608 89.7918C174.755 89.6441 174.829 89.4595 174.829 89.2379C174.829 89.0269 174.782 88.8634 174.687 88.7473C174.592 88.6313 174.476 88.5522 174.339 88.51C174.202 88.4572 174.059 88.4256 173.911 88.415C173.764 88.4045 173.642 88.3992 173.547 88.3992H171.538C171.095 88.4414 170.778 88.5574 170.588 88.7473C170.398 88.9372 170.303 89.1588 170.303 89.412C170.303 89.623 170.377 89.7865 170.525 89.9025C170.673 90.0186 170.894 90.0977 171.19 90.1399C171.496 90.1927 171.875 90.219 172.329 90.219ZM172.313 85.0285C172.809 85.0285 173.184 84.9072 173.437 84.6645C173.69 84.4114 173.817 84.0896 173.817 83.6992C173.817 83.2772 173.685 82.9291 173.421 82.6548C173.168 82.3805 172.798 82.2434 172.313 82.2434C171.828 82.2434 171.448 82.3805 171.174 82.6548C170.91 82.9186 170.778 83.2614 170.778 83.6834C170.778 83.9472 170.836 84.1845 170.952 84.3955C171.079 84.596 171.253 84.7542 171.474 84.8703C171.707 84.9758 171.986 85.0285 172.313 85.0285ZM181.938 89.1904V78.7461H184.217V89.1904H181.938ZM183.015 85.2817V83.4144H189.06V85.2817H183.015ZM183.015 80.6925V78.7461H189.645V80.6925H183.015ZM191.1 89.1904V77.9074H193.347V89.1904H191.1ZM199.147 89.412C198.314 89.412 197.581 89.2485 196.948 88.9214C196.315 88.5838 195.819 88.0932 195.46 87.4497C195.102 86.7956 194.922 85.9833 194.922 85.0127C194.922 84.0421 195.102 83.235 195.46 82.5915C195.829 81.948 196.331 81.4679 196.964 81.1515C197.597 80.8244 198.319 80.6609 199.132 80.6609C199.965 80.6609 200.698 80.8244 201.331 81.1515C201.964 81.4785 202.46 81.9691 202.819 82.6232C203.188 83.2667 203.373 84.0738 203.373 85.0443C203.373 86.036 203.188 86.8536 202.819 87.4972C202.449 88.1407 201.943 88.6207 201.3 88.9372C200.656 89.2537 199.939 89.412 199.147 89.412ZM199.211 87.7187C199.464 87.7187 199.701 87.6765 199.923 87.5921C200.144 87.5077 200.34 87.3706 200.508 87.1807C200.688 86.9802 200.825 86.7165 200.92 86.3894C201.025 86.0519 201.078 85.6457 201.078 85.1709C201.078 84.6645 201.02 84.2373 200.904 83.8891C200.798 83.541 200.651 83.2614 200.461 83.0504C200.281 82.8289 200.07 82.6706 199.828 82.5757C199.585 82.4807 199.332 82.4333 199.068 82.4333C198.826 82.4333 198.588 82.4755 198.356 82.5599C198.135 82.6443 197.939 82.7867 197.771 82.9871C197.602 83.177 197.465 83.4355 197.359 83.7625C197.254 84.0896 197.201 84.4958 197.201 84.981C197.201 85.4874 197.254 85.9147 197.359 86.2629C197.465 86.611 197.612 86.8958 197.802 87.1174C197.992 87.3284 198.208 87.4814 198.451 87.5763C198.694 87.6713 198.947 87.7187 199.211 87.7187ZM208.744 89.412C207.911 89.412 207.178 89.2485 206.545 88.9214C205.912 88.5838 205.416 88.0932 205.057 87.4497C204.698 86.7956 204.519 85.9833 204.519 85.0127C204.519 84.0421 204.698 83.235 205.057 82.5915C205.426 81.948 205.927 81.4679 206.56 81.1515C207.193 80.8244 207.916 80.6609 208.728 80.6609C209.562 80.6609 210.295 80.8244 210.928 81.1515C211.561 81.4785 212.057 81.9691 212.416 82.6232C212.785 83.2667 212.969 84.0738 212.969 85.0443C212.969 86.036 212.785 86.8536 212.416 87.4972C212.046 88.1407 211.54 88.6207 210.896 88.9372C210.253 89.2537 209.535 89.412 208.744 89.412ZM208.808 87.7187C209.061 87.7187 209.298 87.6765 209.52 87.5921C209.741 87.5077 209.936 87.3706 210.105 87.1807C210.285 86.9802 210.422 86.7165 210.517 86.3894C210.622 86.0519 210.675 85.6457 210.675 85.1709C210.675 84.6645 210.617 84.2373 210.501 83.8891C210.395 83.541 210.248 83.2614 210.058 83.0504C209.878 82.8289 209.667 82.6706 209.425 82.5757C209.182 82.4807 208.929 82.4333 208.665 82.4333C208.422 82.4333 208.185 82.4755 207.953 82.5599C207.731 82.6443 207.536 82.7867 207.367 82.9871C207.199 83.177 207.062 83.4355 206.956 83.7625C206.851 84.0896 206.798 84.4958 206.798 84.981C206.798 85.4874 206.851 85.9147 206.956 86.2629C207.062 86.611 207.209 86.8958 207.399 87.1174C207.589 87.3284 207.805 87.4814 208.048 87.5763C208.291 87.6713 208.544 87.7187 208.808 87.7187ZM214.559 89.1904V85.1393V80.8824H216.458L216.442 83.7625H216.743C216.827 83.0451 216.97 82.4596 217.17 82.006C217.37 81.5523 217.65 81.22 218.009 81.009C218.378 80.798 218.832 80.6925 219.37 80.6925C219.475 80.6925 219.586 80.6978 219.702 80.7084C219.818 80.7189 219.95 80.74 220.098 80.7717L220.018 83.1928C219.839 83.119 219.655 83.0662 219.465 83.0346C219.285 83.003 219.116 82.9871 218.958 82.9871C218.557 82.9871 218.209 83.0821 217.914 83.272C217.618 83.4619 217.381 83.7362 217.202 84.0949C217.033 84.4536 216.912 84.8966 216.838 85.4241V89.1904H214.559Z" fill="white"/>
<path d="M60.0146 30.8408C59.8775 30.8408 59.7693 30.8039 59.6902 30.73C59.6163 30.6509 59.5794 30.5454 59.5794 30.4136C59.5794 30.2764 59.6163 30.1735 59.6902 30.105C59.7693 30.0364 59.8775 30.0021 60.0146 30.0021H60.9008V26.1171H61.3914L60.2282 26.8213C60.128 26.8794 60.0331 26.9031 59.9434 26.8925C59.859 26.8767 59.7851 26.8398 59.7218 26.7818C59.6638 26.7185 59.6243 26.6446 59.6032 26.5602C59.5821 26.4758 59.5873 26.3914 59.619 26.307C59.6559 26.2174 59.7245 26.1435 59.8247 26.0855L60.9166 25.4288C61.0221 25.3655 61.1276 25.3127 61.2331 25.2705C61.3386 25.223 61.4362 25.1993 61.5259 25.1993C61.6366 25.1993 61.729 25.2309 61.8028 25.2942C61.8767 25.3523 61.9136 25.4499 61.9136 25.587V30.0021H62.7206C62.8578 30.0021 62.9633 30.0364 63.0371 30.105C63.1163 30.1735 63.1558 30.2764 63.1558 30.4136C63.1558 30.5507 63.1163 30.6562 63.0371 30.73C62.9633 30.8039 62.8578 30.8408 62.7206 30.8408H60.0146ZM65.8983 30.9199C65.239 30.9199 64.7352 30.672 64.3871 30.1762C64.0389 29.6751 63.8648 28.9629 63.8648 28.0398C63.8648 27.4174 63.9413 26.8952 64.0943 26.4732C64.2525 26.0459 64.482 25.7241 64.7827 25.5079C65.0886 25.2916 65.4605 25.1835 65.8983 25.1835C66.563 25.1835 67.0667 25.4261 67.4096 25.9114C67.7577 26.3967 67.9318 27.1035 67.9318 28.0319C67.9318 28.6491 67.8527 29.1739 67.6944 29.6065C67.5415 30.0338 67.3146 30.3608 67.014 30.5876C66.7133 30.8092 66.3414 30.9199 65.8983 30.9199ZM65.8983 30.0891C66.257 30.0891 66.5208 29.923 66.6896 29.5907C66.8636 29.2583 66.9507 28.7388 66.9507 28.0319C66.9507 27.3251 66.8636 26.8134 66.6896 26.4969C66.5208 26.1752 66.257 26.0143 65.8983 26.0143C65.5449 26.0143 65.2812 26.1752 65.1071 26.4969C64.933 26.8134 64.846 27.3251 64.846 28.0319C64.846 28.7388 64.933 29.2583 65.1071 29.5907C65.2812 29.923 65.5449 30.0891 65.8983 30.0891ZM69.5033 30.8408C69.3661 30.8408 69.258 30.8039 69.1789 30.73C69.105 30.6509 69.0681 30.5454 69.0681 30.4136C69.0681 30.2764 69.105 30.1735 69.1789 30.105C69.258 30.0364 69.3661 30.0021 69.5033 30.0021H70.3895V26.1171H70.88L69.7169 26.8213C69.6167 26.8794 69.5217 26.9031 69.4321 26.8925C69.3477 26.8767 69.2738 26.8398 69.2105 26.7818C69.1525 26.7185 69.1129 26.6446 69.0918 26.5602C69.0707 26.4758 69.076 26.3914 69.1077 26.307C69.1446 26.2174 69.2132 26.1435 69.3134 26.0855L70.4053 25.4288C70.5108 25.3655 70.6163 25.3127 70.7218 25.2705C70.8273 25.223 70.9249 25.1993 71.0145 25.1993C71.1253 25.1993 71.2176 25.2309 71.2915 25.2942C71.3653 25.3523 71.4022 25.4499 71.4022 25.587V30.0021H72.2093C72.3465 30.0021 72.452 30.0364 72.5258 30.105C72.6049 30.1735 72.6445 30.2764 72.6445 30.4136C72.6445 30.5507 72.6049 30.6562 72.5258 30.73C72.452 30.8039 72.3465 30.8408 72.2093 30.8408H69.5033Z" fill="white"/>
<path d="M255.927 33.542V27.7396H257.193V33.542H255.927ZM256.525 31.3705V30.3331H259.883V31.3705H256.525ZM256.525 28.8209V27.7396H260.208V28.8209H256.525ZM261.017 33.542V27.2736H262.265V33.542H261.017ZM265.531 33.6651C265.15 33.6651 264.811 33.6123 264.512 33.5068C264.219 33.4013 263.969 33.2489 263.764 33.0497C263.559 32.8445 263.404 32.5984 263.298 32.3112C263.193 32.0181 263.14 31.687 263.14 31.3177C263.14 30.9544 263.19 30.6203 263.29 30.3155C263.395 30.0049 263.545 29.7382 263.738 29.5155C263.937 29.2869 264.18 29.1111 264.468 28.988C264.755 28.8649 265.08 28.8034 265.443 28.8034C265.801 28.8034 266.115 28.862 266.384 28.9792C266.66 29.0964 266.888 29.2693 267.07 29.4979C267.252 29.7265 267.383 30.0049 267.466 30.3331C267.553 30.6613 267.583 31.0393 267.553 31.4672L263.958 31.4936V30.799L266.806 30.7727L266.384 31.1331C266.425 30.8225 266.405 30.5675 266.323 30.3682C266.246 30.169 266.129 30.0224 265.971 29.9287C265.819 29.8349 265.646 29.788 265.452 29.788C265.23 29.788 265.033 29.8466 264.863 29.9638C264.699 30.0811 264.57 30.254 264.476 30.4825C264.389 30.7053 264.345 30.9749 264.345 31.2914C264.345 31.7895 264.453 32.1559 264.67 32.3903C264.887 32.6189 265.174 32.7332 265.531 32.7332C265.696 32.7332 265.833 32.7127 265.945 32.6716C266.062 32.6247 266.156 32.5661 266.226 32.4958C266.302 32.4255 266.361 32.3463 266.402 32.2584C266.443 32.1705 266.475 32.0797 266.498 31.9859L267.606 32.2145C267.565 32.4313 267.492 32.6277 267.386 32.8035C267.287 32.9793 267.152 33.1317 266.982 33.2607C266.818 33.3896 266.616 33.4892 266.375 33.5596C266.135 33.6299 265.854 33.6651 265.531 33.6651ZM267.866 33.542L269.396 31.2298L267.875 28.9264H269.325L270.169 30.6496H270.31L271.145 28.9264H272.596L271.075 31.2298L272.613 33.542H271.163L270.31 31.8101H270.169L269.334 33.542H267.866ZM273.294 33.542V28.9264H274.56V33.542H273.294ZM273.927 28.2583C273.681 28.2583 273.49 28.2055 273.355 28.1C273.227 27.9945 273.162 27.8451 273.162 27.6517C273.162 27.4465 273.227 27.2912 273.355 27.1857C273.49 27.0802 273.681 27.0275 273.927 27.0275C274.179 27.0275 274.369 27.0802 274.498 27.1857C274.633 27.2912 274.701 27.4465 274.701 27.6517C274.701 27.8451 274.633 27.9945 274.498 28.1C274.369 28.2055 274.179 28.2583 273.927 28.2583ZM275.689 33.542V30.7639V28.9264H276.727L276.718 30.3595H276.885C276.961 29.9785 277.072 29.6766 277.219 29.4539C277.371 29.2254 277.553 29.0612 277.764 28.9616C277.981 28.8561 278.224 28.8034 278.494 28.8034C278.799 28.8034 279.048 28.859 279.241 28.9704C279.44 29.0759 279.599 29.2166 279.716 29.3924C279.833 29.5682 279.921 29.7616 279.98 29.9726C280.038 30.1778 280.076 30.3829 280.094 30.588C280.111 30.7932 280.12 30.9778 280.12 31.1419V33.542H278.854V31.2914C278.854 31.18 278.848 31.0452 278.837 30.8869C278.825 30.7287 278.793 30.5734 278.74 30.421C278.693 30.2628 278.611 30.1309 278.494 30.0254C278.382 29.9199 278.224 29.8671 278.019 29.8671C277.785 29.8671 277.588 29.9404 277.43 30.0869C277.278 30.2276 277.16 30.421 277.078 30.6672C276.996 30.9133 276.955 31.1888 276.955 31.4936V33.542H275.689ZM283.013 35.1333C282.503 35.1333 282.087 35.0922 281.764 35.0102C281.442 34.934 281.204 34.8197 281.052 34.6673C280.906 34.5149 280.832 34.3274 280.832 34.1047C280.832 33.835 280.938 33.6153 281.149 33.4453C281.36 33.2753 281.676 33.1727 282.098 33.1376V32.9705C281.776 32.9705 281.53 32.9354 281.36 32.865C281.196 32.7947 281.114 32.6746 281.114 32.5046C281.114 32.3405 281.196 32.194 281.36 32.065C281.524 31.9361 281.799 31.8364 282.186 31.7661V31.5991C281.829 31.5698 281.547 31.4496 281.342 31.2386C281.137 31.0276 281.035 30.7551 281.035 30.421C281.035 30.1279 281.117 29.8671 281.281 29.6386C281.445 29.4041 281.688 29.2195 282.01 29.0847C282.333 28.944 282.728 28.8737 283.197 28.8737H285.536V29.8495L284.068 29.6473V29.832C284.449 29.8906 284.724 29.9902 284.894 30.1309C285.064 30.2657 285.149 30.4503 285.149 30.6847C285.149 30.925 285.07 31.136 284.912 31.3177C284.759 31.4994 284.536 31.643 284.243 31.7485C283.956 31.8482 283.608 31.898 283.197 31.898C283.121 31.898 283.036 31.895 282.942 31.8892C282.854 31.8775 282.714 31.8599 282.52 31.8364C282.409 31.9244 282.321 31.9976 282.257 32.0562C282.192 32.1148 282.16 32.1705 282.16 32.2233C282.16 32.2643 282.18 32.2995 282.221 32.3288C282.268 32.3522 282.327 32.3698 282.397 32.3815C282.468 32.3932 282.541 32.3991 282.617 32.3991H283.945C284.062 32.3991 284.214 32.4079 284.402 32.4255C284.589 32.4431 284.777 32.4899 284.964 32.5661C285.152 32.6365 285.31 32.7566 285.439 32.9266C285.568 33.0907 285.632 33.3281 285.632 33.6387C285.632 33.9786 285.536 34.257 285.342 34.4739C285.155 34.6966 284.868 34.8607 284.481 34.9662C284.094 35.0776 283.605 35.1333 283.013 35.1333ZM283.144 34.1134C283.502 34.1134 283.78 34.0929 283.98 34.0519C284.185 34.0167 284.328 33.9581 284.41 33.8761C284.493 33.794 284.534 33.6914 284.534 33.5684C284.534 33.4511 284.507 33.3603 284.454 33.2958C284.402 33.2314 284.337 33.1874 284.261 33.164C284.185 33.1347 284.106 33.1171 284.024 33.1112C283.942 33.1053 283.874 33.1024 283.821 33.1024H282.705C282.459 33.1259 282.283 33.1903 282.177 33.2958C282.072 33.4013 282.019 33.5244 282.019 33.6651C282.019 33.7823 282.06 33.8731 282.142 33.9376C282.224 34.0021 282.347 34.046 282.511 34.0695C282.681 34.0988 282.892 34.1134 283.144 34.1134ZM283.136 31.2298C283.411 31.2298 283.619 31.1624 283.76 31.0276C283.901 30.8869 283.971 30.7082 283.971 30.4913C283.971 30.2569 283.898 30.0635 283.751 29.9111C283.61 29.7587 283.405 29.6825 283.136 29.6825C282.866 29.6825 282.655 29.7587 282.503 29.9111C282.356 30.0576 282.283 30.2481 282.283 30.4825C282.283 30.6291 282.315 30.7609 282.38 30.8782C282.45 30.9895 282.547 31.0774 282.67 31.1419C282.799 31.2005 282.954 31.2298 283.136 31.2298ZM288.14 33.542V32.3551L291.068 28.9001V28.8034H288.228V27.7396H292.466V29.0231L289.617 32.3903V32.4782H292.571V33.542H288.14ZM295.442 33.6651C294.979 33.6651 294.572 33.5742 294.22 33.3925C293.869 33.205 293.593 32.9324 293.394 32.5749C293.194 32.2115 293.095 31.7602 293.095 31.221C293.095 30.6818 293.194 30.2334 293.394 29.8759C293.599 29.5184 293.877 29.2517 294.229 29.0759C294.581 28.8942 294.982 28.8034 295.433 28.8034C295.896 28.8034 296.304 28.8942 296.655 29.0759C297.007 29.2576 297.283 29.5301 297.482 29.8935C297.687 30.251 297.79 30.6994 297.79 31.2386C297.79 31.7895 297.687 32.2438 297.482 32.6013C297.277 32.9588 296.995 33.2255 296.638 33.4013C296.28 33.5772 295.882 33.6651 295.442 33.6651ZM295.477 32.7244C295.618 32.7244 295.75 32.7009 295.873 32.654C295.996 32.6072 296.104 32.531 296.198 32.4255C296.298 32.3141 296.374 32.1676 296.427 31.9859C296.485 31.7983 296.515 31.5727 296.515 31.3089C296.515 31.0276 296.483 30.7902 296.418 30.5968C296.359 30.4034 296.277 30.2481 296.172 30.1309C296.072 30.0078 295.955 29.9199 295.82 29.8671C295.685 29.8144 295.545 29.788 295.398 29.788C295.263 29.788 295.132 29.8115 295.003 29.8583C294.88 29.9052 294.771 29.9844 294.677 30.0957C294.584 30.2012 294.507 30.3448 294.449 30.5265C294.39 30.7082 294.361 30.9338 294.361 31.2034C294.361 31.4848 294.39 31.7221 294.449 31.9156C294.507 32.109 294.589 32.2672 294.695 32.3903C294.8 32.5075 294.921 32.5925 295.055 32.6453C295.19 32.698 295.331 32.7244 295.477 32.7244ZM298.673 33.542V30.7639V28.9264H299.71L299.701 30.3595H299.868C299.944 29.9785 300.056 29.6766 300.202 29.4539C300.355 29.2254 300.536 29.0612 300.747 28.9616C300.964 28.8561 301.207 28.8034 301.477 28.8034C301.782 28.8034 302.031 28.859 302.224 28.9704C302.424 29.0759 302.582 29.2166 302.699 29.3924C302.816 29.5682 302.904 29.7616 302.963 29.9726C303.021 30.1778 303.06 30.3829 303.077 30.588C303.095 30.7932 303.104 30.9778 303.104 31.1419V33.542H301.838V31.2914C301.838 31.18 301.832 31.0452 301.82 30.8869C301.808 30.7287 301.776 30.5734 301.723 30.421C301.676 30.2628 301.594 30.1309 301.477 30.0254C301.366 29.9199 301.207 29.8671 301.002 29.8671C300.768 29.8671 300.572 29.9404 300.413 30.0869C300.261 30.2276 300.144 30.421 300.062 30.6672C299.98 30.9133 299.939 31.1888 299.939 31.4936V33.542H298.673ZM306.312 33.6651C305.931 33.6651 305.592 33.6123 305.293 33.5068C305 33.4013 304.75 33.2489 304.545 33.0497C304.34 32.8445 304.185 32.5984 304.079 32.3112C303.974 32.0181 303.921 31.687 303.921 31.3177C303.921 30.9544 303.971 30.6203 304.071 30.3155C304.176 30.0049 304.326 29.7382 304.519 29.5155C304.718 29.2869 304.961 29.1111 305.249 28.988C305.536 28.8649 305.861 28.8034 306.225 28.8034C306.582 28.8034 306.896 28.862 307.165 28.9792C307.441 29.0964 307.669 29.2693 307.851 29.4979C308.033 29.7265 308.165 30.0049 308.247 30.3331C308.334 30.6613 308.364 31.0393 308.334 31.4672L304.739 31.4936V30.799L307.587 30.7727L307.165 31.1331C307.206 30.8225 307.186 30.5675 307.104 30.3682C307.027 30.169 306.91 30.0224 306.752 29.9287C306.6 29.8349 306.427 29.788 306.233 29.788C306.011 29.788 305.814 29.8466 305.644 29.9638C305.48 30.0811 305.351 30.254 305.257 30.4825C305.17 30.7053 305.126 30.9749 305.126 31.2914C305.126 31.7895 305.234 32.1559 305.451 32.3903C305.668 32.6189 305.955 32.7332 306.312 32.7332C306.477 32.7332 306.614 32.7127 306.726 32.6716C306.843 32.6247 306.937 32.5661 307.007 32.4958C307.083 32.4255 307.142 32.3463 307.183 32.2584C307.224 32.1705 307.256 32.0797 307.28 31.9859L308.387 32.2145C308.346 32.4313 308.273 32.6277 308.167 32.8035C308.068 32.9793 307.933 33.1317 307.763 33.2607C307.599 33.3896 307.397 33.4892 307.156 33.5596C306.916 33.6299 306.635 33.6651 306.312 33.6651Z" fill="white"/>
<path d="M14.8398 36.5693C14.7027 36.5693 14.5945 36.5324 14.5154 36.4586C14.4415 36.3794 14.4046 36.2739 14.4046 36.1421C14.4046 36.0049 14.4415 35.9021 14.5154 35.8335C14.5945 35.7649 14.7027 35.7306 14.8398 35.7306H15.726V31.8456H16.2166L15.0534 32.5498C14.9532 32.6079 14.8583 32.6316 14.7686 32.6211C14.6842 32.6052 14.6103 32.5683 14.547 32.5103C14.489 32.447 14.4495 32.3731 14.4284 32.2887C14.4073 32.2043 14.4125 32.1199 14.4442 32.0355C14.4811 31.9459 14.5497 31.872 14.6499 31.814L15.7418 31.1573C15.8473 31.094 15.9528 31.0412 16.0583 30.999C16.1638 30.9515 16.2614 30.9278 16.3511 30.9278C16.4618 30.9278 16.5541 30.9595 16.628 31.0228C16.7018 31.0808 16.7388 31.1784 16.7388 31.3155V35.7306H17.5458C17.683 35.7306 17.7885 35.7649 17.8623 35.8335C17.9415 35.9021 17.981 36.0049 17.981 36.1421C17.981 36.2792 17.9415 36.3847 17.8623 36.4586C17.7885 36.5324 17.683 36.5693 17.5458 36.5693H14.8398ZM20.7235 36.6485C20.0642 36.6485 19.5604 36.4005 19.2123 35.9047C18.8641 35.4036 18.69 34.6915 18.69 33.7684C18.69 33.1459 18.7665 32.6237 18.9195 32.2017C19.0777 31.7744 19.3072 31.4527 19.6079 31.2364C19.9138 31.0201 20.2857 30.912 20.7235 30.912C21.3882 30.912 21.8919 31.1546 22.2348 31.6399C22.5829 32.1252 22.757 32.8321 22.757 33.7604C22.757 34.3776 22.6779 34.9025 22.5196 35.335C22.3667 35.7623 22.1398 36.0893 21.8392 36.3161C21.5385 36.5377 21.1666 36.6485 20.7235 36.6485ZM20.7235 35.8177C21.0822 35.8177 21.346 35.6515 21.5148 35.3192C21.6888 34.9869 21.7759 34.4673 21.7759 33.7604C21.7759 33.0536 21.6888 32.5419 21.5148 32.2254C21.346 31.9037 21.0822 31.7428 20.7235 31.7428C20.3701 31.7428 20.1064 31.9037 19.9323 32.2254C19.7582 32.5419 19.6712 33.0536 19.6712 33.7604C19.6712 34.4673 19.7582 34.9869 19.9323 35.3192C20.1064 35.6515 20.3701 35.8177 20.7235 35.8177ZM25.3571 36.6485C25.0722 36.6485 24.7768 36.6115 24.4709 36.5377C24.1649 36.4638 23.8986 36.3531 23.6717 36.2054C23.5662 36.1368 23.495 36.0577 23.4581 35.968C23.4212 35.8783 23.4106 35.7939 23.4265 35.7148C23.4476 35.6304 23.4871 35.5592 23.5451 35.5012C23.6084 35.4431 23.6849 35.4089 23.7746 35.3983C23.8696 35.3878 23.9724 35.4115 24.0832 35.4695C24.2995 35.5856 24.5078 35.67 24.7083 35.7227C24.9087 35.7702 25.1144 35.7939 25.3254 35.7939C25.5575 35.7939 25.7527 35.7623 25.9109 35.699C26.0692 35.6357 26.1879 35.5407 26.267 35.4141C26.3514 35.2875 26.3936 35.1346 26.3936 34.9552C26.3936 34.6915 26.3039 34.4963 26.1246 34.3697C25.9505 34.2378 25.6947 34.1719 25.3571 34.1719H24.8507C24.703 34.1719 24.5896 34.135 24.5105 34.0611C24.4366 33.9873 24.3997 33.8844 24.3997 33.7525C24.3997 33.6207 24.4366 33.5178 24.5105 33.4439C24.5896 33.3701 24.703 33.3332 24.8507 33.3332H25.2621C25.4626 33.3332 25.634 33.3015 25.7764 33.2382C25.9189 33.1697 26.0296 33.0747 26.1088 32.9534C26.1879 32.8321 26.2274 32.6844 26.2274 32.5103C26.2274 32.2676 26.1457 32.083 25.9822 31.9564C25.8239 31.8298 25.5918 31.7665 25.2859 31.7665C25.0907 31.7665 24.9061 31.7903 24.732 31.8377C24.5632 31.8799 24.3759 31.9617 24.1702 32.083C24.0753 32.141 23.983 32.1648 23.8933 32.1542C23.8089 32.1437 23.7377 32.1094 23.6797 32.0514C23.6216 31.9933 23.5821 31.9248 23.561 31.8456C23.5399 31.7612 23.5451 31.6768 23.5768 31.5925C23.6084 31.5028 23.6744 31.4263 23.7746 31.363C24.0014 31.2153 24.252 31.1045 24.5263 31.0307C24.8006 30.9515 25.0828 30.912 25.3729 30.912C25.758 30.912 26.0877 30.9726 26.362 31.094C26.6362 31.21 26.8446 31.3788 26.987 31.6004C27.1347 31.8166 27.2086 32.0804 27.2086 32.3916C27.2086 32.6131 27.1664 32.8162 27.082 33.0009C26.9976 33.1802 26.8789 33.3332 26.7259 33.4598C26.5729 33.5864 26.3883 33.676 26.1721 33.7288V33.6338C26.5519 33.6971 26.8472 33.8554 27.0582 34.1086C27.2692 34.3565 27.3747 34.6677 27.3747 35.0422C27.3747 35.3693 27.293 35.6541 27.1295 35.8968C26.9659 36.1394 26.7338 36.3267 26.4332 36.4586C26.1325 36.5852 25.7738 36.6485 25.3571 36.6485Z" fill="white"/>
<path d="M14.1931 103.259C13.8981 102.623 13.7719 102.018 13.8145 101.443C13.8655 100.871 14.0689 100.355 14.4245 99.8955C14.786 99.4328 15.2876 99.0526 15.9293 98.755C16.4091 98.5324 16.872 98.4021 17.318 98.3638C17.7697 98.3229 18.1917 98.3696 18.5841 98.5037C18.9822 98.6351 19.3407 98.8553 19.6596 99.164C19.9869 99.4759 20.2604 99.8688 20.4803 100.343C20.6278 100.661 20.7321 100.992 20.7933 101.336C20.8545 101.68 20.8635 102.002 20.8205 102.303C20.8016 102.459 20.7466 102.583 20.6556 102.675C20.5703 102.763 20.4702 102.82 20.3554 102.845C20.2464 102.868 20.1398 102.858 20.0356 102.815C19.934 102.778 19.852 102.707 19.7895 102.602C19.7354 102.501 19.7194 102.368 19.7413 102.203C19.7738 101.97 19.7678 101.738 19.7233 101.505C19.6788 101.273 19.607 101.05 19.5078 100.836C19.3174 100.426 19.0727 100.118 18.7736 99.9121C18.4746 99.7066 18.1326 99.6053 17.7476 99.6082C17.3626 99.6112 16.9388 99.7199 16.4763 99.9344C16.0196 100.146 15.6628 100.399 15.4061 100.694C15.1494 100.989 15.0029 101.317 14.9666 101.678C14.9304 102.039 15.0074 102.425 15.1978 102.835C15.2997 103.055 15.4263 103.259 15.5775 103.449C15.7345 103.636 15.9151 103.798 16.1192 103.936C16.2534 104.028 16.3374 104.126 16.3715 104.23C16.4139 104.336 16.4195 104.439 16.3881 104.538C16.3566 104.637 16.2971 104.721 16.2096 104.789C16.1278 104.855 16.0269 104.895 15.9067 104.909C15.7923 104.92 15.6734 104.891 15.55 104.821C15.2751 104.668 15.0163 104.451 14.7737 104.17C14.5395 103.892 14.3459 103.588 14.1931 103.259ZM15.8261 106.734C15.7456 106.561 15.7302 106.406 15.7798 106.271C15.8352 106.133 15.9525 106.022 16.1317 105.939L21.2829 103.55C21.4621 103.467 21.6194 103.45 21.7548 103.5C21.8902 103.549 21.9981 103.661 22.0786 103.834C22.159 104.008 22.1744 104.162 22.1248 104.298C22.0779 104.439 21.9649 104.551 21.7856 104.634L19.5396 105.676L19.4833 105.554C19.8487 105.539 20.1711 105.629 20.4505 105.822C20.7384 106.019 20.9615 106.288 21.1197 106.629C21.2779 106.97 21.3443 107.28 21.319 107.559C21.2937 107.837 21.1765 108.092 20.9673 108.322C20.7638 108.55 20.4656 108.755 20.0724 108.938L17.9738 109.911C17.7946 109.994 17.6344 110.012 17.4932 109.965C17.3578 109.916 17.2499 109.804 17.1694 109.631C17.089 109.457 17.0722 109.3 17.1191 109.159C17.1745 109.021 17.2918 108.91 17.471 108.827L19.5176 107.878C19.8472 107.725 20.0576 107.55 20.1489 107.353C20.2429 107.162 20.2296 106.936 20.1089 106.676C19.9615 106.358 19.7423 106.151 19.4515 106.054C19.1691 105.96 18.8632 105.99 18.5336 106.142L16.6345 107.023C16.2645 107.195 15.995 107.099 15.8261 106.734ZM18.1875 111.803C18.107 111.63 18.0974 111.473 18.1586 111.332C18.2197 111.191 18.3428 111.078 18.5278 110.992L21.7104 109.516C21.9012 109.427 22.0672 109.407 22.2084 109.453C22.3554 109.498 22.4691 109.607 22.5495 109.78C22.6299 109.953 22.6396 110.11 22.5784 110.251C22.5257 110.395 22.404 110.511 22.2132 110.6L19.0306 112.076C18.8456 112.162 18.6796 112.182 18.5326 112.138C18.3857 112.094 18.2706 111.982 18.1875 111.803ZM23.356 109.406C23.2622 109.204 23.2376 109.022 23.2822 108.861C23.3353 108.702 23.4515 108.582 23.6307 108.499C23.8157 108.413 23.9828 108.402 24.1321 108.466C24.284 108.536 24.4069 108.673 24.5007 108.875C24.5972 109.083 24.6218 109.265 24.5745 109.42C24.5272 109.576 24.411 109.696 24.226 109.782C24.0468 109.865 23.8796 109.876 23.7246 109.814C23.5754 109.75 23.4525 109.614 23.356 109.406ZM19.6089 114.936C19.3864 114.456 19.3547 114.032 19.5138 113.663C19.6787 113.291 20.027 112.982 20.5589 112.736L24.6608 110.833C24.84 110.75 24.9973 110.733 25.1327 110.783C25.2681 110.833 25.376 110.944 25.4565 111.118C25.5369 111.291 25.5523 111.445 25.5027 111.581C25.4558 111.722 25.3428 111.834 25.1635 111.917L21.1137 113.796C20.8478 113.919 20.6767 114.065 20.6004 114.234C20.5269 114.408 20.5384 114.6 20.6349 114.808C20.6563 114.854 20.6764 114.898 20.6952 114.938C20.7198 114.976 20.7443 115.014 20.7689 115.051C20.818 115.127 20.8203 115.193 20.7759 115.248C20.7373 115.301 20.6341 115.367 20.4665 115.445C20.322 115.512 20.1958 115.535 20.0881 115.515C19.9803 115.494 19.8869 115.422 19.8079 115.297C19.7753 115.242 19.7414 115.184 19.7061 115.123C19.6708 115.062 19.6384 115 19.6089 114.936ZM20.8933 117.705C20.6708 117.225 20.6391 116.801 20.7982 116.432C20.963 116.061 21.3114 115.752 21.8433 115.505L25.9452 113.603C26.1244 113.519 26.2817 113.503 26.4171 113.552C26.5525 113.602 26.6604 113.713 26.7409 113.887C26.8213 114.06 26.8367 114.215 26.7871 114.35C26.7402 114.491 26.6272 114.603 26.4479 114.687L22.3981 116.565C22.1322 116.688 21.9611 116.834 21.8848 117.003C21.8113 117.178 21.8227 117.369 21.9193 117.577C21.9407 117.623 21.9608 117.667 21.9796 117.707C22.0042 117.745 22.0287 117.783 22.0533 117.821C22.1024 117.896 22.1047 117.962 22.0603 118.018C22.0217 118.071 21.9185 118.136 21.7509 118.214C21.6063 118.281 21.4802 118.304 21.3724 118.284C21.2647 118.264 21.1713 118.191 21.0923 118.066C21.0597 118.011 21.0258 117.953 20.9905 117.892C20.9552 117.831 20.9228 117.769 20.8933 117.705ZM21.7814 119.552C21.701 119.379 21.6913 119.221 21.7525 119.081C21.8137 118.94 21.9367 118.827 22.1218 118.741L25.3044 117.265C25.4952 117.176 25.6611 117.155 25.8023 117.202C25.9493 117.247 26.063 117.355 26.1434 117.529C26.2239 117.702 26.2335 117.859 26.1724 118C26.1197 118.144 25.9979 118.26 25.8071 118.349L22.6245 119.825C22.4395 119.911 22.2735 119.931 22.1266 119.887C21.9796 119.843 21.8645 119.731 21.7814 119.552ZM26.9499 117.155C26.8561 116.952 26.8315 116.771 26.8761 116.609C26.9293 116.451 27.0454 116.331 27.2247 116.248C27.4097 116.162 27.5768 116.151 27.726 116.215C27.8779 116.285 28.0008 116.422 28.0946 116.624C28.1912 116.832 28.2158 117.014 28.1684 117.169C28.1211 117.325 28.0049 117.445 27.8199 117.531C27.6407 117.614 27.4736 117.625 27.3186 117.563C27.1693 117.499 27.0465 117.363 26.9499 117.155ZM22.7979 121.766C22.7175 121.593 22.702 121.438 22.7516 121.303C22.807 121.165 22.9243 121.054 23.1035 120.971L26.3816 119.451C26.5608 119.368 26.7181 119.351 26.8535 119.401C26.9889 119.45 27.0955 119.559 27.1732 119.727C27.251 119.894 27.2651 120.046 27.2155 120.181C27.1659 120.317 27.0515 120.426 26.8723 120.509L26.2826 120.782L26.4551 120.586C26.8205 120.572 27.1429 120.661 27.4224 120.854C27.7103 121.051 27.9333 121.32 28.0915 121.661C28.2497 122.002 28.3162 122.312 28.2909 122.591C28.2656 122.869 28.1483 123.124 27.9391 123.354C27.7357 123.582 27.4374 123.787 27.0443 123.97L24.9457 124.943C24.7664 125.026 24.6062 125.044 24.465 124.997C24.3296 124.948 24.2217 124.836 24.1413 124.663C24.0608 124.489 24.0441 124.332 24.091 124.191C24.1464 124.053 24.2637 123.942 24.4429 123.859L26.4895 122.91C26.819 122.757 27.0295 122.582 27.1208 122.385C27.2148 122.194 27.2015 121.968 27.0808 121.708C26.9333 121.39 26.7142 121.183 26.4233 121.086C26.141 120.992 25.835 121.022 25.5055 121.174L23.6063 122.055C23.2363 122.227 22.9668 122.131 22.7979 121.766ZM24.24 129.011C24.0952 128.698 23.9834 128.382 23.9044 128.06C23.8282 127.744 23.7958 127.439 23.8072 127.146C23.8141 127.009 23.8486 126.902 23.9108 126.824C23.9756 126.752 24.0541 126.701 24.1462 126.673C24.2352 126.653 24.3235 126.654 24.4113 126.676C24.5017 126.705 24.5772 126.754 24.6379 126.824C24.6985 126.894 24.7259 126.983 24.7198 127.092C24.7106 127.405 24.741 127.682 24.8108 127.924C24.8776 128.174 24.9486 128.38 25.0236 128.542C25.2033 128.929 25.4328 129.174 25.712 129.276C25.9882 129.387 26.3113 129.357 26.6813 129.185L27.4618 128.823L27.498 128.901C27.1629 128.951 26.8414 128.879 26.5335 128.685C26.234 128.493 26.0038 128.224 25.8429 127.877C25.666 127.496 25.5985 127.123 25.6406 126.759C25.6884 126.393 25.8351 126.058 26.0807 125.754C26.3263 125.451 26.6601 125.201 27.0821 125.005C27.4001 124.858 27.7064 124.769 28.001 124.737C28.304 124.709 28.5856 124.733 28.8457 124.809C29.1084 124.891 29.3426 125.025 29.5481 125.211C29.7621 125.399 29.9348 125.635 30.0662 125.919C30.2325 126.277 30.2876 126.631 30.2318 126.98C30.1844 127.332 30.0349 127.616 29.7834 127.831L29.5263 127.844L30.142 127.559C30.3213 127.476 30.4786 127.459 30.614 127.509C30.7521 127.564 30.86 127.676 30.9377 127.843C31.0182 128.017 31.0336 128.171 30.984 128.306C30.9344 128.442 30.82 128.551 30.6408 128.634L27.3021 130.183C26.6141 130.502 26.0122 130.56 25.4964 130.356C24.9806 130.153 24.5618 129.704 24.24 129.011ZM26.8035 127.79C26.9081 128.016 27.05 128.185 27.2291 128.299C27.4083 128.412 27.6133 128.468 27.8443 128.467C28.0838 128.468 28.3365 128.407 28.6024 128.283C29.0014 128.098 29.268 127.855 29.4023 127.554C29.5424 127.25 29.5346 126.931 29.3791 126.596C29.2746 126.37 29.1327 126.201 28.9535 126.087C28.7744 125.973 28.568 125.915 28.3343 125.91C28.1033 125.912 27.8548 125.975 27.5889 126.098C27.19 126.283 26.9205 126.528 26.7804 126.831C26.6403 127.135 26.648 127.455 26.8035 127.79ZM28.497 134.054C28.4327 133.915 28.4122 133.788 28.4356 133.672C28.4616 133.561 28.5226 133.473 28.6187 133.408C28.7205 133.339 28.8513 133.303 29.011 133.299L35.146 133.236C35.3485 133.233 35.5086 133.268 35.6262 133.34C35.7523 133.415 35.8476 133.522 35.9119 133.661C35.9736 133.793 35.991 133.929 35.9641 134.068C35.9457 134.21 35.87 134.358 35.7372 134.511L31.73 139.162C31.6265 139.287 31.5158 139.366 31.3979 139.4C31.28 139.434 31.1705 139.425 31.0694 139.373C30.974 139.319 30.8955 139.226 30.8338 139.093C30.7588 138.931 30.7374 138.786 30.7696 138.659C30.8103 138.535 30.8955 138.4 31.0252 138.256L32.0733 137.085L31.9869 137.694L30.2896 134.034L30.8103 134.362L29.2435 134.414C29.0409 134.417 28.8833 134.395 28.7706 134.349C28.6579 134.303 28.5667 134.205 28.497 134.054ZM34.6291 134.234L31.1782 134.36L31.3512 134.006L32.6945 136.902L32.3165 136.814L34.6371 134.252L34.6291 134.234ZM31.671 140.898C31.5879 140.718 31.5698 140.558 31.6167 140.417C31.6721 140.279 31.7894 140.168 31.9686 140.085L35.2466 138.565C35.4258 138.482 35.5831 138.465 35.7186 138.515C35.854 138.564 35.9605 138.673 36.0383 138.84C36.1161 139.008 36.1301 139.16 36.0805 139.295C36.0309 139.43 35.9165 139.54 35.7373 139.623L35.191 139.876L35.1508 139.79C35.5352 139.71 35.872 139.747 36.1611 139.9C36.4503 140.054 36.7034 140.32 36.9204 140.697C36.9883 140.813 37.0007 140.923 36.9577 141.027C36.9232 141.135 36.8335 141.229 36.6885 141.31C36.5493 141.389 36.4147 141.409 36.2847 141.371C36.1631 141.336 36.0575 141.245 35.9677 141.097L35.8619 140.914C35.6636 140.577 35.4305 140.362 35.1623 140.269C34.9 140.173 34.604 140.201 34.2745 140.354L32.4794 141.187C32.3002 141.27 32.14 141.288 31.9988 141.241C31.8634 141.191 31.7541 141.077 31.671 140.898ZM33.9092 145.769C33.6866 145.289 33.5845 144.834 33.6029 144.404C33.6212 143.974 33.7509 143.587 33.9919 143.244C34.2357 142.906 34.583 142.632 35.034 142.423C35.4733 142.219 35.8994 142.131 36.312 142.157C36.7274 142.189 37.1013 142.321 37.4338 142.554C37.7747 142.789 38.0404 143.112 38.2307 143.522C38.3702 143.823 38.4457 144.114 38.4574 144.397C38.4717 144.685 38.4252 144.956 38.318 145.21C38.2134 145.469 38.0483 145.704 37.8226 145.914C37.6053 146.127 37.3319 146.31 37.0024 146.463C36.8983 146.511 36.8 146.511 36.7073 146.463C36.6231 146.417 36.5501 146.328 36.4885 146.195L35.1974 143.412L35.8218 143.122L36.952 145.559L36.7575 145.48C37.0235 145.357 37.2273 145.213 37.369 145.049C37.5133 144.891 37.5969 144.715 37.6197 144.522C37.6509 144.332 37.6156 144.127 37.5137 143.907C37.4011 143.665 37.2468 143.483 37.0507 143.363C36.8631 143.247 36.6438 143.19 36.3927 143.194C36.1502 143.202 35.8872 143.271 35.604 143.402L35.5433 143.43C35.0692 143.65 34.7646 143.925 34.6294 144.255C34.5028 144.587 34.54 144.971 34.7411 145.404C34.8108 145.554 34.9059 145.714 35.0264 145.883C35.1553 146.055 35.3049 146.203 35.4752 146.328C35.6009 146.417 35.6794 146.511 35.7107 146.609C35.7479 146.704 35.7496 146.791 35.7159 146.87C35.6849 146.954 35.6287 147.023 35.5474 147.074C35.4718 147.124 35.3799 147.145 35.2718 147.139C35.1663 147.139 35.0576 147.101 34.9457 147.027C34.7247 146.883 34.5207 146.694 34.3338 146.457C34.1553 146.224 34.0138 145.994 33.9092 145.769ZM35.7674 149.775C35.6252 149.469 35.5557 149.167 35.5587 148.871C35.5702 148.578 35.6449 148.315 35.7829 148.082C35.9236 147.855 36.1211 147.683 36.3755 147.565C36.6877 147.42 36.9709 147.387 37.2252 147.466C37.4853 147.542 37.7403 147.743 37.9901 148.07C38.24 148.397 38.507 148.866 38.7913 149.479L38.9924 149.913L38.368 150.202L38.1709 149.777C38.0047 149.419 37.8546 149.141 37.7207 148.943C37.5868 148.745 37.455 148.62 37.3254 148.568C37.2043 148.519 37.0685 148.529 36.9182 148.599C36.7274 148.687 36.6022 148.826 36.5424 149.015C36.4827 149.205 36.5078 149.418 36.6177 149.655C36.7062 149.846 36.8273 149.993 36.9811 150.097C37.1433 150.205 37.3226 150.266 37.5189 150.28C37.7152 150.294 37.9145 150.255 38.1169 150.161L39.1142 149.698C39.4032 149.564 39.5819 149.404 39.6501 149.218C39.7183 149.032 39.6826 148.788 39.5432 148.488C39.4654 148.32 39.3607 148.147 39.2291 147.969C39.1002 147.797 38.9369 147.627 38.7394 147.459C38.6365 147.373 38.5764 147.282 38.5593 147.184C38.5449 147.093 38.5617 147.008 38.6096 146.929C38.6633 146.848 38.7335 146.787 38.8202 146.747C38.907 146.707 39.0015 146.691 39.1039 146.7C39.2121 146.706 39.3119 146.754 39.4033 146.846C39.6365 147.061 39.8325 147.279 39.9914 147.5C40.1529 147.727 40.2806 147.942 40.3745 148.144C40.5675 148.561 40.6621 148.931 40.6583 149.256C40.6571 149.587 40.5573 149.879 40.3588 150.133C40.1661 150.384 39.8674 150.603 39.4627 150.791L37.3814 151.756C37.2022 151.839 37.0433 151.86 36.9048 151.819C36.7721 151.775 36.6682 151.672 36.5931 151.51C36.5181 151.348 36.5053 151.2 36.5549 151.064C36.613 150.932 36.7316 150.824 36.9108 150.741L37.3271 150.548L37.3593 150.618C37.1382 150.671 36.9243 150.672 36.7177 150.62C36.5195 150.571 36.3384 150.476 36.1743 150.335C36.0103 150.193 35.8746 150.007 35.7674 149.775ZM38.864 156.225C38.7943 156.075 38.7798 155.937 38.8205 155.813C38.8697 155.692 38.9666 155.598 39.1111 155.531C39.2614 155.461 39.3929 155.449 39.5056 155.495C39.621 155.547 39.7135 155.648 39.7833 155.798L40.2337 156.77L44.4917 154.795L44.7411 155.333L43.378 154.416C43.2635 154.335 43.1892 154.243 43.1552 154.14C43.1296 154.039 43.1325 153.94 43.164 153.841C43.2038 153.745 43.2647 153.664 43.3464 153.598C43.4282 153.532 43.5234 153.495 43.632 153.487C43.749 153.481 43.8648 153.519 43.9794 153.599L45.2542 154.462C45.3772 154.546 45.4886 154.635 45.5885 154.729C45.6942 154.82 45.7698 154.915 45.8154 155.013C45.8717 155.135 45.8839 155.252 45.8521 155.365C45.826 155.476 45.7379 155.566 45.5875 155.635L40.7486 157.88L41.1588 158.764C41.2285 158.915 41.2446 159.048 41.207 159.163C41.172 159.285 41.0794 159.381 40.9291 159.45C40.7788 159.52 40.643 159.53 40.5219 159.481C40.4034 159.438 40.3093 159.341 40.2396 159.191L38.864 156.225ZM41.7682 162.714C41.433 161.991 41.4486 161.313 41.8151 160.679C42.1874 160.043 42.8794 159.49 43.8911 159.021C44.5733 158.704 45.1845 158.523 45.7248 158.476C46.2735 158.432 46.7428 158.52 47.1327 158.74C47.5253 158.965 47.8328 159.318 48.0554 159.798C48.3932 160.526 48.3833 161.202 48.0258 161.824C47.6708 162.452 46.9846 163.002 45.9671 163.474C45.2907 163.788 44.6752 163.968 44.1207 164.015C43.5747 164.064 43.1009 163.982 42.6995 163.767C42.3038 163.551 41.9934 163.199 41.7682 162.714ZM42.6787 162.291C42.861 162.684 43.1772 162.889 43.6273 162.905C44.08 162.927 44.6937 162.758 45.4684 162.399C46.2431 162.04 46.7596 161.684 47.018 161.332C47.2849 160.984 47.3271 160.613 47.1448 160.22C46.9651 159.833 46.6547 159.625 46.2136 159.598C45.7782 159.568 45.1732 159.733 44.3985 160.092C43.6238 160.452 43.0986 160.811 42.8228 161.171C42.5471 161.53 42.4991 161.904 42.6787 162.291ZM44.6517 168.885C44.5712 168.712 44.5545 168.555 44.6014 168.413C44.6541 168.27 44.77 168.156 44.9493 168.073L45.6257 167.759L44.6322 165.617C44.5491 165.438 44.5196 165.276 44.5439 165.131C44.5708 164.992 44.6651 164.885 44.827 164.81C44.9195 164.767 45.0314 164.744 45.1627 164.739C45.2967 164.74 45.4828 164.763 45.721 164.807L50.2658 165.586C50.4248 165.611 50.5588 165.657 50.668 165.726C50.7772 165.795 50.8613 165.893 50.9203 166.02C50.99 166.17 51.0014 166.316 50.9545 166.457C50.9133 166.596 50.7974 166.709 50.6066 166.798L47.0597 168.443L47.2568 168.868C47.3346 169.035 47.3518 169.179 47.3084 169.297C47.2734 169.419 47.1808 169.514 47.0305 169.584C46.8802 169.654 46.7444 169.664 46.6233 169.615C46.5106 169.569 46.4153 169.462 46.3376 169.294L46.1405 168.869L45.4641 169.183C45.2849 169.266 45.1233 169.281 44.9795 169.229C44.8414 169.173 44.7321 169.059 44.6517 168.885ZM46.5449 167.333L49.2506 166.078L49.3672 166.329L45.4175 165.675L45.7123 165.538L46.5449 167.333Z" fill="white"/>
<path d="M274.386 178.366C274.023 178.965 273.591 179.408 273.09 179.693C272.587 179.969 272.045 180.088 271.465 180.049C270.879 180.007 270.284 179.803 269.679 179.436C269.227 179.162 268.861 178.85 268.58 178.501C268.294 178.149 268.098 177.773 267.99 177.372C267.877 176.969 267.86 176.548 267.939 176.111C268.015 175.666 268.189 175.22 268.46 174.773C268.642 174.473 268.858 174.202 269.109 173.959C269.361 173.717 269.624 173.529 269.897 173.397C270.038 173.326 270.171 173.302 270.298 173.327C270.419 173.348 270.522 173.4 270.607 173.481C270.686 173.559 270.737 173.653 270.76 173.764C270.785 173.869 270.772 173.976 270.72 174.086C270.666 174.188 270.565 174.275 270.416 174.349C270.205 174.452 270.015 174.587 269.847 174.753C269.679 174.919 269.534 175.103 269.411 175.305C269.177 175.692 269.058 176.067 269.054 176.43C269.05 176.793 269.157 177.133 269.374 177.451C269.591 177.769 269.917 178.06 270.353 178.324C270.784 178.585 271.193 178.74 271.581 178.789C271.968 178.838 272.322 178.777 272.642 178.605C272.962 178.434 273.239 178.155 273.474 177.768C273.6 177.561 273.699 177.342 273.772 177.111C273.84 176.876 273.874 176.636 273.874 176.39C273.876 176.227 273.91 176.102 273.977 176.016C274.042 175.922 274.124 175.86 274.224 175.831C274.324 175.802 274.426 175.804 274.532 175.839C274.633 175.87 274.722 175.931 274.8 176.023C274.873 176.112 274.915 176.227 274.927 176.368C274.952 176.682 274.916 177.018 274.819 177.376C274.719 177.725 274.574 178.055 274.386 178.366ZM276.361 175.073C276.261 175.236 276.142 175.335 276.002 175.369C275.856 175.4 275.699 175.365 275.53 175.262L270.675 172.318C270.506 172.216 270.404 172.095 270.37 171.955C270.335 171.814 270.368 171.663 270.467 171.499C270.566 171.336 270.686 171.237 270.826 171.202C270.969 171.163 271.125 171.194 271.294 171.296L273.411 172.58L273.342 172.695C273.126 172.4 273.02 172.082 273.025 171.742C273.028 171.394 273.126 171.058 273.321 170.737C273.516 170.415 273.737 170.187 273.982 170.053C274.227 169.919 274.504 169.874 274.812 169.919C275.115 169.961 275.451 170.094 275.822 170.319L277.8 171.518C277.969 171.621 278.073 171.744 278.113 171.887C278.147 172.027 278.115 172.179 278.016 172.342C277.917 172.506 277.796 172.607 277.652 172.647C277.507 172.678 277.349 172.643 277.18 172.54L275.251 171.37C274.941 171.182 274.678 171.105 274.464 171.139C274.253 171.168 274.073 171.304 273.924 171.55C273.743 171.849 273.693 172.147 273.774 172.442C273.854 172.729 274.049 172.967 274.359 173.155L276.15 174.24C276.498 174.452 276.569 174.729 276.361 175.073ZM279.251 170.286C279.152 170.449 279.027 170.545 278.876 170.573C278.725 170.601 278.563 170.561 278.388 170.456L275.388 168.637C275.209 168.528 275.099 168.402 275.059 168.258C275.014 168.112 275.041 167.957 275.14 167.793C275.239 167.63 275.364 167.534 275.515 167.506C275.664 167.47 275.828 167.506 276.008 167.615L279.008 169.434C279.182 169.54 279.292 169.666 279.337 169.813C279.383 169.959 279.354 170.117 279.251 170.286ZM274.38 167.332C274.264 167.523 274.127 167.645 273.968 167.697C273.807 167.742 273.642 167.712 273.473 167.61C273.299 167.504 273.197 167.371 273.167 167.212C273.14 167.047 273.185 166.869 273.301 166.678C273.42 166.482 273.557 166.36 273.712 166.313C273.868 166.265 274.033 166.294 274.207 166.4C274.376 166.503 274.478 166.635 274.513 166.798C274.543 166.958 274.499 167.136 274.38 167.332ZM281.06 167.359C280.785 167.811 280.451 168.074 280.056 168.148C279.656 168.218 279.205 168.101 278.703 167.797L274.837 165.453C274.668 165.351 274.566 165.229 274.532 165.089C274.498 164.949 274.53 164.798 274.629 164.634C274.728 164.471 274.848 164.372 274.988 164.337C275.131 164.298 275.288 164.329 275.456 164.431L279.274 166.746C279.525 166.898 279.741 166.958 279.924 166.928C280.11 166.891 280.262 166.775 280.381 166.579C280.408 166.535 280.432 166.494 280.456 166.456C280.473 166.415 280.491 166.373 280.509 166.332C280.544 166.249 280.597 166.21 280.668 166.216C280.734 166.219 280.846 166.268 281.004 166.364C281.14 166.446 281.23 166.538 281.273 166.639C281.316 166.739 281.308 166.857 281.248 166.993C281.221 167.051 281.191 167.111 281.16 167.174C281.13 167.238 281.096 167.299 281.06 167.359ZM282.642 164.749C282.368 165.201 282.033 165.464 281.639 165.538C281.238 165.608 280.787 165.491 280.286 165.187L276.42 162.843C276.251 162.74 276.149 162.619 276.115 162.479C276.08 162.339 276.113 162.187 276.212 162.024C276.311 161.86 276.431 161.761 276.571 161.727C276.714 161.687 276.87 161.719 277.039 161.821L280.856 164.136C281.107 164.288 281.324 164.348 281.507 164.317C281.692 164.281 281.845 164.165 281.964 163.969C281.99 163.925 282.015 163.884 282.038 163.846C282.056 163.804 282.074 163.763 282.091 163.722C282.127 163.639 282.18 163.6 282.251 163.606C282.316 163.608 282.428 163.658 282.586 163.753C282.722 163.836 282.812 163.928 282.855 164.028C282.899 164.129 282.891 164.247 282.831 164.382C282.803 164.44 282.774 164.501 282.743 164.564C282.712 164.627 282.679 164.689 282.642 164.749ZM283.68 162.982C283.581 163.145 283.456 163.241 283.305 163.269C283.154 163.296 282.991 163.257 282.817 163.152L279.817 161.333C279.637 161.224 279.527 161.098 279.488 160.954C279.442 160.808 279.469 160.652 279.568 160.489C279.668 160.325 279.793 160.23 279.943 160.202C280.092 160.166 280.257 160.202 280.436 160.311L283.436 162.13C283.611 162.236 283.721 162.362 283.766 162.508C283.811 162.655 283.782 162.813 283.68 162.982ZM278.808 160.028C278.693 160.219 278.555 160.341 278.397 160.393C278.236 160.437 278.071 160.408 277.902 160.306C277.728 160.2 277.625 160.067 277.596 159.908C277.569 159.743 277.614 159.565 277.729 159.374C277.848 159.178 277.985 159.056 278.141 159.009C278.296 158.961 278.461 158.99 278.635 159.096C278.804 159.198 278.906 159.331 278.942 159.494C278.972 159.654 278.927 159.832 278.808 160.028ZM284.951 160.903C284.852 161.067 284.733 161.166 284.593 161.2C284.447 161.231 284.29 161.195 284.121 161.093L281.031 159.22C280.862 159.117 280.761 158.996 280.726 158.856C280.692 158.716 280.723 158.567 280.818 158.409C280.914 158.251 281.032 158.154 281.172 158.12C281.312 158.086 281.467 158.12 281.636 158.222L282.192 158.559L281.933 158.525C281.717 158.23 281.611 157.913 281.616 157.573C281.619 157.224 281.717 156.889 281.912 156.568C282.107 156.246 282.327 156.018 282.573 155.884C282.818 155.75 283.095 155.705 283.403 155.75C283.706 155.792 284.042 155.925 284.413 156.15L286.391 157.349C286.56 157.452 286.664 157.574 286.704 157.718C286.738 157.858 286.706 158.01 286.607 158.173C286.508 158.337 286.386 158.438 286.243 158.478C286.098 158.509 285.94 158.473 285.771 158.371L283.842 157.201C283.532 157.013 283.269 156.936 283.055 156.97C282.844 156.998 282.664 157.135 282.515 157.38C282.333 157.68 282.283 157.978 282.365 158.273C282.445 158.56 282.64 158.797 282.95 158.986L284.74 160.071C285.089 160.283 285.16 160.56 284.951 160.903ZM290.161 155.667C289.983 155.961 289.782 156.231 289.559 156.476C289.339 156.715 289.104 156.912 288.854 157.066C288.737 157.136 288.629 157.167 288.529 157.159C288.433 157.146 288.348 157.109 288.272 157.048C288.206 156.986 288.158 156.912 288.128 156.826C288.101 156.735 288.099 156.645 288.124 156.556C288.148 156.466 288.207 156.394 288.3 156.339C288.566 156.171 288.779 155.992 288.941 155.799C289.111 155.604 289.242 155.43 289.335 155.278C289.556 154.913 289.631 154.586 289.561 154.297C289.499 154.006 289.293 153.755 288.944 153.543L288.209 153.097L288.253 153.023C288.482 153.274 288.601 153.581 288.611 153.945C288.62 154.3 288.525 154.641 288.326 154.968C288.108 155.328 287.837 155.592 287.511 155.759C287.18 155.924 286.82 155.989 286.432 155.955C286.043 155.92 285.649 155.782 285.251 155.541C284.952 155.359 284.707 155.155 284.517 154.928C284.324 154.692 284.187 154.445 284.105 154.186C284.027 153.923 284.007 153.654 284.047 153.379C284.084 153.097 284.184 152.822 284.346 152.555C284.55 152.217 284.813 151.974 285.134 151.825C285.453 151.668 285.772 151.634 286.09 151.723L286.245 151.929L285.665 151.577C285.496 151.475 285.394 151.353 285.36 151.213C285.329 151.068 285.361 150.916 285.457 150.758C285.556 150.594 285.676 150.496 285.816 150.461C285.956 150.427 286.11 150.461 286.279 150.563L289.427 152.471C290.075 152.865 290.459 153.332 290.577 153.874C290.696 154.415 290.557 155.013 290.161 155.667ZM287.718 154.219C287.847 154.007 287.909 153.795 287.903 153.583C287.898 153.37 287.83 153.169 287.699 152.978C287.567 152.779 287.376 152.603 287.125 152.451C286.749 152.223 286.398 152.137 286.074 152.194C285.743 152.247 285.482 152.431 285.291 152.747C285.162 152.96 285.1 153.172 285.106 153.384C285.111 153.596 285.178 153.801 285.304 153.997C285.435 154.188 285.625 154.359 285.876 154.511C286.252 154.739 286.605 154.826 286.935 154.773C287.266 154.72 287.527 154.535 287.718 154.219ZM291.974 149.321C291.895 149.452 291.8 149.54 291.691 149.585C291.585 149.625 291.477 149.623 291.369 149.58C291.256 149.534 291.153 149.445 291.061 149.315L287.587 144.258C287.472 144.091 287.412 143.939 287.406 143.801C287.398 143.655 287.433 143.516 287.513 143.385C287.589 143.26 287.692 143.17 287.822 143.114C287.95 143.05 288.115 143.031 288.316 143.056L294.411 143.789C294.573 143.805 294.701 143.853 294.794 143.932C294.888 144.011 294.941 144.107 294.955 144.22C294.963 144.329 294.929 144.446 294.853 144.572C294.761 144.724 294.653 144.823 294.529 144.867C294.403 144.902 294.244 144.906 294.052 144.879L292.496 144.662L293.049 144.394L290.958 147.844L290.939 147.229L291.856 148.501C291.972 148.667 292.041 148.81 292.066 148.929C292.091 149.049 292.06 149.179 291.974 149.321ZM288.704 144.13L290.733 146.925L290.342 146.979L291.997 144.248L292.135 144.611L288.714 144.114L288.704 144.13ZM295.885 142.87C295.783 143.039 295.66 143.143 295.516 143.183C295.371 143.214 295.214 143.179 295.045 143.076L291.955 141.203C291.786 141.1 291.684 140.979 291.65 140.839C291.616 140.699 291.646 140.55 291.742 140.392C291.838 140.234 291.956 140.138 292.096 140.103C292.236 140.069 292.391 140.103 292.559 140.205L293.074 140.518L293.025 140.599C292.744 140.325 292.587 140.025 292.554 139.699C292.52 139.373 292.599 139.015 292.791 138.624C292.85 138.503 292.934 138.432 293.045 138.409C293.153 138.378 293.282 138.4 293.43 138.475C293.573 138.547 293.665 138.647 293.705 138.776C293.744 138.897 293.727 139.035 293.654 139.192L293.562 139.382C293.393 139.734 293.344 140.048 293.416 140.323C293.483 140.594 293.671 140.824 293.982 141.012L295.674 142.038C295.843 142.14 295.947 142.263 295.987 142.407C296.022 142.547 295.987 142.701 295.885 142.87ZM298.681 138.296C298.406 138.748 298.086 139.087 297.719 139.311C297.351 139.536 296.958 139.644 296.538 139.635C296.122 139.621 295.701 139.486 295.276 139.228C294.862 138.977 294.551 138.673 294.343 138.315C294.138 137.953 294.039 137.569 294.046 137.163C294.052 136.749 294.171 136.348 294.406 135.961C294.578 135.678 294.778 135.453 295.006 135.285C295.237 135.113 295.488 135 295.758 134.948C296.032 134.89 296.319 134.896 296.619 134.967C296.917 135.028 297.221 135.153 297.532 135.341C297.63 135.401 297.685 135.483 297.696 135.586C297.706 135.682 297.673 135.792 297.597 135.917L296.006 138.541L295.417 138.184L296.81 135.887L296.853 136.092C296.602 135.94 296.369 135.851 296.154 135.825C295.942 135.794 295.75 135.822 295.577 135.911C295.402 135.991 295.251 136.135 295.126 136.342C294.987 136.571 294.922 136.8 294.932 137.029C294.94 137.25 295.016 137.464 295.159 137.67C295.3 137.867 295.504 138.047 295.771 138.209L295.828 138.244C296.275 138.514 296.673 138.614 297.022 138.543C297.369 138.462 297.666 138.218 297.914 137.809C298 137.667 298.079 137.499 298.152 137.305C298.223 137.102 298.263 136.895 298.272 136.684C298.276 136.53 298.31 136.413 298.373 136.332C298.432 136.248 298.503 136.198 298.587 136.182C298.675 136.161 298.763 136.17 298.851 136.208C298.934 136.244 299.003 136.308 299.058 136.401C299.117 136.489 299.146 136.6 299.147 136.734C299.151 136.998 299.107 137.273 299.015 137.56C298.921 137.838 298.81 138.084 298.681 138.296ZM300.97 134.52C300.795 134.808 300.584 135.034 300.336 135.197C300.086 135.351 299.826 135.436 299.556 135.451C299.289 135.461 299.036 135.393 298.796 135.247C298.502 135.069 298.317 134.852 298.24 134.597C298.158 134.339 298.183 134.015 298.315 133.625C298.447 133.236 298.688 132.752 299.038 132.175L299.286 131.766L299.875 132.123L299.632 132.523C299.427 132.861 299.28 133.141 299.19 133.362C299.101 133.584 299.071 133.763 299.099 133.899C299.126 134.027 299.21 134.134 299.352 134.22C299.532 134.329 299.717 134.356 299.907 134.3C300.098 134.244 300.261 134.104 300.396 133.881C300.505 133.701 300.56 133.518 300.561 133.332C300.56 133.138 300.51 132.955 300.413 132.784C300.315 132.613 300.171 132.47 299.98 132.354L299.04 131.784C298.768 131.619 298.535 131.56 298.343 131.607C298.15 131.655 297.968 131.82 297.796 132.103C297.7 132.261 297.615 132.444 297.541 132.653C297.47 132.856 297.42 133.086 297.39 133.344C297.377 133.477 297.334 133.578 297.263 133.647C297.195 133.71 297.115 133.743 297.023 133.747C296.926 133.748 296.836 133.723 296.754 133.674C296.673 133.624 296.607 133.555 296.557 133.465C296.502 133.372 296.486 133.262 296.511 133.135C296.559 132.822 296.631 132.537 296.726 132.282C296.825 132.021 296.932 131.795 297.048 131.605C297.285 131.212 297.54 130.927 297.812 130.749C298.087 130.566 298.386 130.486 298.707 130.509C299.023 130.529 299.371 130.655 299.753 130.886L301.715 132.075C301.883 132.178 301.989 132.298 302.033 132.436C302.07 132.571 302.043 132.714 301.95 132.867C301.858 133.019 301.741 133.113 301.601 133.147C301.459 133.173 301.304 133.134 301.135 133.032L300.742 132.794L300.782 132.729C300.95 132.882 301.069 133.059 301.142 133.26C301.212 133.451 301.234 133.655 301.208 133.87C301.182 134.085 301.103 134.302 300.97 134.52ZM304.598 128.353C304.512 128.495 304.406 128.583 304.28 128.619C304.152 128.645 304.02 128.617 303.884 128.535C303.742 128.449 303.659 128.346 303.634 128.227C303.613 128.102 303.645 127.969 303.731 127.827L304.286 126.912L300.273 124.479L300.58 123.972L300.579 125.614C300.576 125.754 300.541 125.867 300.474 125.953C300.405 126.031 300.32 126.084 300.221 126.113C300.119 126.133 300.018 126.128 299.918 126.097C299.817 126.066 299.733 126.007 299.666 125.922C299.596 125.827 299.563 125.71 299.566 125.57L299.571 124.031C299.572 123.882 299.584 123.74 299.606 123.605C299.623 123.466 299.66 123.35 299.716 123.258C299.785 123.143 299.876 123.068 299.988 123.031C300.094 122.991 300.218 123.014 300.359 123.1L304.921 125.866L305.426 125.032C305.512 124.89 305.613 124.803 305.731 124.769C305.851 124.731 305.982 124.754 306.124 124.84C306.265 124.926 306.35 125.033 306.376 125.161C306.406 125.283 306.378 125.416 306.293 125.557L304.598 128.353ZM308.365 122.324C307.952 123.005 307.38 123.37 306.65 123.419C305.914 123.465 305.069 123.199 304.116 122.621C303.473 122.231 302.981 121.825 302.641 121.402C302.299 120.971 302.11 120.533 302.075 120.087C302.043 119.635 302.164 119.183 302.438 118.731C302.855 118.044 303.421 117.676 304.137 117.625C304.856 117.57 305.696 117.833 306.655 118.414C307.292 118.801 307.785 119.211 308.133 119.646C308.478 120.071 308.674 120.511 308.72 120.963C308.761 121.413 308.642 121.866 308.365 122.324ZM307.506 121.804C307.731 121.433 307.725 121.056 307.487 120.674C307.253 120.286 306.77 119.871 306.04 119.428C305.31 118.985 304.727 118.754 304.291 118.736C303.853 118.709 303.521 118.881 303.297 119.251C303.075 119.616 303.076 119.99 303.3 120.371C303.518 120.749 303.992 121.159 304.722 121.602C305.452 122.045 306.043 122.28 306.496 122.309C306.948 122.337 307.285 122.169 307.506 121.804ZM311.88 116.489C311.781 116.652 311.66 116.754 311.516 116.794C311.368 116.83 311.209 116.797 311.04 116.695L310.402 116.308L309.178 118.327C309.076 118.496 308.958 118.611 308.824 118.672C308.694 118.727 308.552 118.708 308.4 118.616C308.312 118.563 308.23 118.483 308.153 118.377C308.079 118.265 307.994 118.098 307.898 117.876L306.011 113.668C305.943 113.523 305.907 113.385 305.903 113.256C305.899 113.127 305.934 113.003 306.006 112.883C306.092 112.741 306.207 112.651 306.35 112.611C306.488 112.568 306.647 112.601 306.827 112.71L310.17 114.737L310.413 114.336C310.509 114.178 310.618 114.084 310.74 114.054C310.861 114.015 310.992 114.039 311.134 114.125C311.275 114.211 311.36 114.318 311.386 114.446C311.411 114.565 311.375 114.704 311.279 114.862L311.037 115.262L311.674 115.649C311.843 115.751 311.946 115.877 311.982 116.026C312.013 116.171 311.979 116.326 311.88 116.489ZM309.536 115.783L306.985 114.237L307.129 114L308.788 117.644L308.51 117.475L309.536 115.783Z" fill="white"/>
<path d="M266.464 122.189C266.359 122.189 266.277 122.161 266.216 122.105C266.16 122.045 266.132 121.964 266.132 121.864C266.132 121.759 266.16 121.681 266.216 121.629C266.277 121.576 266.359 121.55 266.464 121.55H267.139V118.589H267.513L266.627 119.126C266.55 119.17 266.478 119.188 266.409 119.18C266.345 119.168 266.289 119.14 266.241 119.096C266.196 119.047 266.166 118.991 266.15 118.927C266.134 118.862 266.138 118.798 266.162 118.734C266.19 118.665 266.243 118.609 266.319 118.565L267.151 118.064C267.232 118.016 267.312 117.976 267.392 117.944C267.473 117.908 267.547 117.89 267.616 117.89C267.7 117.89 267.77 117.914 267.827 117.962C267.883 118.006 267.911 118.08 267.911 118.185V121.55H268.526C268.631 121.55 268.711 121.576 268.768 121.629C268.828 121.681 268.858 121.759 268.858 121.864C268.858 121.968 268.828 122.049 268.768 122.105C268.711 122.161 268.631 122.189 268.526 122.189H266.464ZM270.948 122.25C270.446 122.25 270.062 122.061 269.796 121.683C269.531 121.301 269.398 120.758 269.398 120.055C269.398 119.58 269.457 119.182 269.573 118.86C269.694 118.535 269.869 118.29 270.098 118.125C270.331 117.96 270.615 117.877 270.948 117.877C271.455 117.877 271.839 118.062 272.1 118.432C272.366 118.802 272.498 119.341 272.498 120.049C272.498 120.519 272.438 120.919 272.317 121.249C272.201 121.574 272.028 121.824 271.799 121.996C271.569 122.165 271.286 122.25 270.948 122.25ZM270.948 121.617C271.222 121.617 271.423 121.49 271.551 121.237C271.684 120.983 271.75 120.587 271.75 120.049C271.75 119.51 271.684 119.12 271.551 118.879C271.423 118.633 271.222 118.511 270.948 118.511C270.679 118.511 270.478 118.633 270.345 118.879C270.213 119.12 270.146 119.51 270.146 120.049C270.146 120.587 270.213 120.983 270.345 121.237C270.478 121.49 270.679 121.617 270.948 121.617ZM274.564 122.25C274.235 122.25 273.951 122.204 273.714 122.111C273.481 122.015 273.3 121.876 273.171 121.695C273.047 121.514 272.984 121.297 272.984 121.044C272.984 120.843 273.025 120.666 273.105 120.513C273.189 120.356 273.304 120.229 273.449 120.133C273.593 120.036 273.758 119.976 273.943 119.952V120.079C273.686 120.022 273.479 119.9 273.322 119.711C273.169 119.518 273.093 119.289 273.093 119.023C273.093 118.782 273.153 118.577 273.274 118.408C273.394 118.235 273.565 118.105 273.786 118.016C274.008 117.924 274.267 117.877 274.564 117.877C274.866 117.877 275.127 117.924 275.348 118.016C275.57 118.105 275.74 118.235 275.861 118.408C275.982 118.577 276.042 118.782 276.042 119.023C276.042 119.2 276.006 119.363 275.933 119.512C275.865 119.661 275.767 119.783 275.638 119.88C275.513 119.976 275.366 120.04 275.198 120.073V119.952C275.479 119.992 275.706 120.111 275.879 120.308C276.056 120.501 276.144 120.746 276.144 121.044C276.144 121.297 276.08 121.514 275.951 121.695C275.827 121.876 275.646 122.015 275.409 122.111C275.176 122.204 274.894 122.25 274.564 122.25ZM274.564 121.647C274.85 121.647 275.065 121.592 275.21 121.484C275.354 121.371 275.427 121.206 275.427 120.989C275.427 120.772 275.354 120.609 275.21 120.501C275.065 120.392 274.85 120.338 274.564 120.338C274.283 120.338 274.068 120.392 273.919 120.501C273.774 120.609 273.702 120.772 273.702 120.989C273.702 121.206 273.774 121.371 273.919 121.484C274.068 121.592 274.283 121.647 274.564 121.647ZM274.564 119.735C274.725 119.735 274.862 119.711 274.974 119.663C275.087 119.61 275.174 119.536 275.234 119.439C275.294 119.343 275.324 119.23 275.324 119.102C275.324 118.909 275.256 118.758 275.119 118.649C274.987 118.537 274.802 118.481 274.564 118.481C274.327 118.481 274.142 118.537 274.01 118.649C273.877 118.758 273.811 118.909 273.811 119.102C273.811 119.299 273.877 119.453 274.01 119.566C274.142 119.679 274.327 119.735 274.564 119.735Z" fill="white"/>
<path d="M270.472 77.252C270.368 77.252 270.285 77.2238 270.225 77.1675C270.169 77.1072 270.14 77.0268 270.14 76.9263C270.14 76.8218 270.169 76.7434 270.225 76.6911C270.285 76.6388 270.368 76.6127 270.472 76.6127H271.147V73.6516H271.521L270.635 74.1883C270.558 74.2325 270.486 74.2506 270.418 74.2426C270.353 74.2305 270.297 74.2024 270.249 74.1582C270.205 74.1099 270.175 74.0536 270.158 73.9893C270.142 73.925 270.146 73.8606 270.171 73.7963C270.199 73.728 270.251 73.6717 270.327 73.6275L271.16 73.1269C271.24 73.0787 271.32 73.0385 271.401 73.0063C271.481 72.9701 271.556 72.952 271.624 72.952C271.708 72.952 271.779 72.9761 271.835 73.0244C271.891 73.0686 271.919 73.143 271.919 73.2475V76.6127H272.535C272.639 76.6127 272.72 76.6388 272.776 76.6911C272.836 76.7434 272.866 76.8218 272.866 76.9263C272.866 77.0308 272.836 77.1112 272.776 77.1675C272.72 77.2238 272.639 77.252 272.535 77.252H270.472ZM274.957 77.3123C274.454 77.3123 274.07 77.1233 273.805 76.7454C273.539 76.3634 273.407 75.8206 273.407 75.1171C273.407 74.6426 273.465 74.2446 273.582 73.923C273.702 73.5973 273.877 73.3521 274.106 73.1872C274.339 73.0224 274.623 72.9399 274.957 72.9399C275.463 72.9399 275.847 73.1249 276.108 73.4948C276.374 73.8647 276.507 74.4034 276.507 75.111C276.507 75.5814 276.446 75.9815 276.326 76.3112C276.209 76.6368 276.036 76.8861 275.807 77.059C275.578 77.2278 275.294 77.3123 274.957 77.3123ZM274.957 76.679C275.23 76.679 275.431 76.5524 275.56 76.2991C275.692 76.0458 275.759 75.6498 275.759 75.111C275.759 74.5723 275.692 74.1823 275.56 73.9411C275.431 73.6958 275.23 73.5732 274.957 73.5732C274.687 73.5732 274.486 73.6958 274.354 73.9411C274.221 74.1823 274.154 74.5723 274.154 75.111C274.154 75.6498 274.221 76.0458 274.354 76.2991C274.486 76.5524 274.687 76.679 274.957 76.679ZM277.801 77.3002C277.708 77.3002 277.632 77.2781 277.572 77.2339C277.511 77.1896 277.475 77.1313 277.463 77.059C277.451 76.9826 277.469 76.8981 277.517 76.8057L279.339 73.3802V73.6455H277.385C277.276 73.6455 277.192 73.6174 277.131 73.5611C277.075 73.5048 277.047 73.4264 277.047 73.3259C277.047 73.2214 277.075 73.141 277.131 73.0847C277.192 73.0284 277.276 73.0003 277.385 73.0003H279.719C279.827 73.0003 279.916 73.0284 279.984 73.0847C280.052 73.141 280.086 73.2214 280.086 73.3259C280.086 73.4144 280.074 73.4928 280.05 73.5611C280.026 73.6254 279.994 73.6958 279.954 73.7722L278.241 77.0469C278.197 77.1354 278.138 77.1997 278.066 77.2399C277.998 77.2801 277.909 77.3002 277.801 77.3002Z" fill="white"/>
<path d="M271.079 54.873C270.975 54.873 270.893 54.8449 270.832 54.7886C270.776 54.7283 270.748 54.6479 270.748 54.5474C270.748 54.4429 270.776 54.3645 270.832 54.3122C270.893 54.2599 270.975 54.2338 271.079 54.2338H271.755V51.2727H272.129L271.242 51.8094C271.166 51.8536 271.094 51.8717 271.025 51.8637C270.961 51.8516 270.905 51.8235 270.856 51.7793C270.812 51.731 270.782 51.6747 270.766 51.6104C270.75 51.5461 270.754 51.4817 270.778 51.4174C270.806 51.3491 270.858 51.2928 270.935 51.2486L271.767 50.748C271.847 50.6998 271.928 50.6595 272.008 50.6274C272.089 50.5912 272.163 50.5731 272.231 50.5731C272.316 50.5731 272.386 50.5972 272.442 50.6455C272.499 50.6897 272.527 50.7641 272.527 50.8686V54.2338H273.142C273.247 54.2338 273.327 54.2599 273.383 54.3122C273.444 54.3645 273.474 54.4429 273.474 54.5474C273.474 54.6519 273.444 54.7323 273.383 54.7886C273.327 54.8449 273.247 54.873 273.142 54.873H271.079ZM275.564 54.9334C275.061 54.9334 274.677 54.7444 274.412 54.3665C274.147 53.9845 274.014 53.4417 274.014 52.7382C274.014 52.2637 274.072 51.8657 274.189 51.5441C274.31 51.2184 274.485 50.9731 274.714 50.8083C274.947 50.6435 275.23 50.561 275.564 50.561C276.071 50.561 276.455 50.746 276.716 51.1159C276.981 51.4858 277.114 52.0245 277.114 52.7321C277.114 53.2025 277.054 53.6026 276.933 53.9322C276.816 54.2579 276.644 54.5072 276.414 54.6801C276.185 54.8489 275.902 54.9334 275.564 54.9334ZM275.564 54.3001C275.837 54.3001 276.038 54.1735 276.167 53.9202C276.3 53.6669 276.366 53.2709 276.366 52.7321C276.366 52.1934 276.3 51.8034 276.167 51.5622C276.038 51.3169 275.837 51.1943 275.564 51.1943C275.295 51.1943 275.094 51.3169 274.961 51.5622C274.828 51.8034 274.762 52.1934 274.762 52.7321C274.762 53.2709 274.828 53.6669 274.961 53.9202C275.094 54.1735 275.295 54.3001 275.564 54.3001ZM279.337 54.9334C278.987 54.9334 278.688 54.8509 278.438 54.6861C278.193 54.5172 278.006 54.276 277.877 53.9624C277.749 53.6488 277.684 53.2689 277.684 52.8226C277.684 52.4607 277.725 52.1411 277.805 51.8637C277.89 51.5823 278.01 51.345 278.167 51.1521C278.324 50.9591 278.515 50.8123 278.74 50.7118C278.969 50.6113 279.226 50.561 279.512 50.561C279.689 50.561 279.868 50.5892 280.049 50.6455C280.233 50.6977 280.406 50.7782 280.567 50.8867C280.632 50.9269 280.674 50.9792 280.694 51.0435C280.714 51.1078 280.716 51.1722 280.7 51.2365C280.688 51.2968 280.66 51.3511 280.615 51.3993C280.575 51.4435 280.523 51.4717 280.459 51.4838C280.394 51.4918 280.324 51.4737 280.248 51.4295C280.111 51.3491 279.982 51.2928 279.862 51.2606C279.741 51.2284 279.62 51.2124 279.5 51.2124C279.267 51.2124 279.07 51.2666 278.909 51.3752C278.748 51.4838 278.625 51.6466 278.541 51.8637C278.46 52.0808 278.42 52.3522 278.42 52.6778V53.1302H278.348C278.38 52.9251 278.446 52.7502 278.547 52.6055C278.651 52.4567 278.784 52.3441 278.945 52.2678C279.106 52.1873 279.285 52.1471 279.482 52.1471C279.727 52.1471 279.944 52.2054 280.133 52.322C280.322 52.4386 280.471 52.5994 280.579 52.8045C280.688 53.0095 280.742 53.2447 280.742 53.5101C280.742 53.7835 280.682 54.0287 280.561 54.2458C280.445 54.4589 280.28 54.6278 280.067 54.7524C279.858 54.873 279.614 54.9334 279.337 54.9334ZM279.295 54.3182C279.439 54.3182 279.566 54.2861 279.675 54.2217C279.787 54.1574 279.874 54.0669 279.934 53.9503C279.994 53.8297 280.024 53.693 280.024 53.5402C280.024 53.3834 279.994 53.2467 279.934 53.1302C279.874 53.0136 279.787 52.9231 279.675 52.8588C279.566 52.7904 279.439 52.7562 279.295 52.7562C279.15 52.7562 279.023 52.7904 278.915 52.8588C278.806 52.9231 278.72 53.0136 278.655 53.1302C278.595 53.2467 278.565 53.3834 278.565 53.5402C278.565 53.693 278.595 53.8297 278.655 53.9503C278.72 54.0669 278.806 54.1574 278.915 54.2217C279.023 54.2861 279.15 54.3182 279.295 54.3182Z" fill="white"/>
<path d="M54.9203 121.011C54.8158 121.011 54.7333 120.983 54.673 120.926C54.6167 120.866 54.5886 120.786 54.5886 120.685C54.5886 120.581 54.6167 120.502 54.673 120.45C54.7333 120.398 54.8158 120.371 54.9203 120.371H55.5957V117.41H55.9696L55.0831 117.947C55.0067 117.991 54.9344 118.009 54.866 118.001C54.8017 117.989 54.7454 117.961 54.6972 117.917C54.6529 117.869 54.6228 117.812 54.6067 117.748C54.5906 117.684 54.5946 117.619 54.6188 117.555C54.6469 117.487 54.6992 117.43 54.7756 117.386L55.6078 116.886C55.6882 116.837 55.7686 116.797 55.849 116.765C55.9294 116.729 56.0038 116.711 56.0722 116.711C56.1566 116.711 56.227 116.735 56.2832 116.783C56.3395 116.827 56.3677 116.902 56.3677 117.006V120.371H56.9828C57.0874 120.371 57.1678 120.398 57.224 120.45C57.2844 120.502 57.3145 120.581 57.3145 120.685C57.3145 120.79 57.2844 120.87 57.224 120.926C57.1678 120.983 57.0874 121.011 56.9828 121.011H54.9203ZM59.4048 121.071C58.9023 121.071 58.5183 120.882 58.253 120.504C57.9876 120.122 57.8549 119.579 57.8549 118.876C57.8549 118.401 57.9132 118.003 58.0298 117.682C58.1504 117.356 58.3253 117.111 58.5545 116.946C58.7877 116.781 59.0711 116.699 59.4048 116.699C59.9114 116.699 60.2954 116.884 60.5567 117.254C60.8221 117.623 60.9547 118.162 60.9547 118.87C60.9547 119.34 60.8944 119.74 60.7738 120.07C60.6572 120.396 60.4843 120.645 60.2552 120.818C60.026 120.987 59.7426 121.071 59.4048 121.071ZM59.4048 120.438C59.6782 120.438 59.8793 120.311 60.0079 120.058C60.1406 119.805 60.2069 119.409 60.2069 118.87C60.2069 118.331 60.1406 117.941 60.0079 117.7C59.8793 117.455 59.6782 117.332 59.4048 117.332C59.1355 117.332 58.9344 117.455 58.8018 117.7C58.6691 117.941 58.6027 118.331 58.6027 118.87C58.6027 119.409 58.6691 119.805 58.8018 120.058C58.9344 120.311 59.1355 120.438 59.4048 120.438ZM63.0571 121.071C62.844 121.071 62.6269 121.043 62.4058 120.987C62.1847 120.93 61.9816 120.844 61.7967 120.727C61.7203 120.679 61.668 120.623 61.6399 120.558C61.6158 120.49 61.6097 120.424 61.6218 120.359C61.6379 120.291 61.668 120.235 61.7123 120.191C61.7605 120.142 61.8168 120.114 61.8811 120.106C61.9495 120.098 62.0239 120.116 62.1043 120.16C62.253 120.245 62.4038 120.309 62.5566 120.353C62.7094 120.398 62.8722 120.42 63.0451 120.42C63.2139 120.42 63.3587 120.39 63.4793 120.329C63.5999 120.269 63.6924 120.185 63.7567 120.076C63.821 119.967 63.8532 119.841 63.8532 119.696C63.8532 119.471 63.7848 119.29 63.6481 119.153C63.5114 119.013 63.3245 118.942 63.0873 118.942C62.9586 118.942 62.834 118.964 62.7134 119.009C62.5928 119.049 62.4742 119.121 62.3576 119.226C62.3214 119.258 62.2751 119.29 62.2189 119.322C62.1626 119.35 62.1023 119.364 62.0379 119.364C61.9374 119.364 61.861 119.338 61.8088 119.286C61.7565 119.234 61.7304 119.161 61.7304 119.069V117.097C61.7304 116.988 61.7585 116.906 61.8148 116.85C61.8751 116.789 61.9595 116.759 62.0681 116.759H64.0522C64.1608 116.759 64.2432 116.787 64.2995 116.843C64.3598 116.896 64.3899 116.974 64.3899 117.079C64.3899 117.179 64.3598 117.258 64.2995 117.314C64.2432 117.37 64.1608 117.398 64.0522 117.398H62.4842V118.749H62.2852C62.3897 118.608 62.5284 118.5 62.7013 118.424C62.8742 118.347 63.0632 118.309 63.2682 118.309C63.5376 118.309 63.7708 118.367 63.9678 118.484C64.1688 118.596 64.3236 118.755 64.4321 118.96C64.5447 119.161 64.601 119.397 64.601 119.666C64.601 119.943 64.5387 120.189 64.4141 120.402C64.2894 120.611 64.1105 120.776 63.8773 120.896C63.6481 121.013 63.3747 121.071 63.0571 121.071Z" fill="white"/>
</svg>
