<svg width="17" height="17" viewBox="0 0 17 17" fill="none" xmlns="http://www.w3.org/2000/svg">
<path d="M8.49998 15.3337H15.625M1.375 15.3337H2.70068C3.08795 15.3337 3.28158 15.3337 3.4638 15.2899C3.62536 15.2511 3.77981 15.1872 3.92147 15.1004C4.08126 15.0024 4.21818 14.8655 4.49202 14.5917L14.4375 4.64618C15.0934 3.99034 15.0934 2.92701 14.4375 2.27117C13.7817 1.61534 12.7184 1.61534 12.0625 2.27118L2.117 12.2167C1.84316 12.4905 1.70624 12.6274 1.60832 12.7872C1.52151 12.9289 1.45753 13.0833 1.41875 13.2449C1.375 13.4271 1.375 13.6207 1.375 14.008V15.3337Z" stroke="#009E96" stroke-width="2" stroke-linecap="round" stroke-linejoin="round"/>
</svg>
