<svg width="821" height="763" viewBox="0 0 821 763" fill="none" xmlns="http://www.w3.org/2000/svg">
<g clip-path="url(#clip0_8606_22205)">
<path d="M788.474 267.401C788.474 267.401 763.696 422.113 647.05 500.491L610.598 445.816C610.598 445.816 683.818 402.9 727.445 267.401H788.474Z" fill="#CCF3EF"/>
<path d="M24.008 222.069C24.008 222.069 31.3272 402.114 158.123 492.904L202.364 441.442C202.364 441.442 99.3965 377.174 91.5497 222.107L24.008 222.069Z" fill="#CCF3EF"/>
<path d="M91.5593 36.5947H24.008V185.388H91.5593V36.5947Z" fill="#CCF3EF"/>
<path d="M696.193 246.721L695.051 246.49L653.803 238.28C650.014 270.058 645.544 298.144 633.514 321.405C610.492 365.865 584.592 382.009 584.592 382.009L609.226 415.648C678.216 355.112 695.512 292.667 699.847 263.987C700.01 262.893 700.02 262.845 700.154 261.847L695.742 261.78L696.193 246.721Z" fill="#E6D6F5"/>
<path d="M122.045 222.203C122.045 222.203 116.893 326.221 207.026 412.128L233.952 378.325C233.952 378.325 201.635 355.112 183.035 308.628C173.298 284.312 168.368 253.08 170.037 219.239L122.045 222.203Z" fill="#E6D6F5"/>
<path d="M161.116 261.406L135.081 264.399C133.219 252.856 132.257 241.185 132.203 229.493L161.125 227.767" stroke="#D1B9ED" stroke-width="7" stroke-miterlimit="10"/>
<path d="M143.407 298.681C140.485 289.904 138.196 280.928 136.558 271.823" stroke="#D1B9ED" stroke-width="7" stroke-miterlimit="10"/>
<path d="M158.123 333.539C153.088 323.951 148.747 314.013 145.134 303.804" stroke="#D1B9ED" stroke-width="7" stroke-miterlimit="10"/>
<path d="M175.859 362.095C170.311 354.488 165.246 346.539 160.693 338.297" stroke="#D1B9ED" stroke-width="7" stroke-miterlimit="10"/>
<path d="M221.185 378.325L206.268 396.454C198.93 389.155 185.366 374.642 179.092 366.421" stroke="#D1B9ED" stroke-width="7" stroke-miterlimit="10"/>
<path d="M621.619 357.031L638.483 370.795C631.232 380.092 623.361 388.889 614.924 397.126L599.096 378.057" stroke="#D1B9ED" stroke-width="7" stroke-miterlimit="10"/>
<path d="M640.498 327.947L659.616 339.275C654.367 348.487 648.566 357.373 642.244 365.884" stroke="#D1B9ED" stroke-width="7" stroke-miterlimit="10"/>
<path d="M678.83 296.705C674.712 307.887 669.781 318.752 664.076 329.213" stroke="#D1B9ED" stroke-width="7" stroke-miterlimit="10"/>
<path d="M667.904 254.586L689.746 259.574C687.479 270.499 684.506 281.264 680.844 291.804" stroke="#D1B9ED" stroke-width="7" stroke-miterlimit="10"/>
<path d="M37.4665 175.806V49.7935H81.7844" stroke="#99E8DF" stroke-width="7" stroke-miterlimit="10"/>
<path d="M56.786 322.441C46.6302 294.008 40.9603 264.168 39.9797 233.992" stroke="#99E8DF" stroke-width="7" stroke-miterlimit="10"/>
<path d="M96.0583 404.991C80.0686 381.428 67.6193 355.649 59.1075 328.475" stroke="#99E8DF" stroke-width="7" stroke-miterlimit="10"/>
<path d="M182.344 444.415L155.734 473.633C132.999 455.926 116.855 434.957 100.26 411.466" stroke="#99E8DF" stroke-width="7" stroke-miterlimit="10"/>
<path d="M703.982 428.818C689.027 446.616 672.041 462.603 653.371 476.453L628 443.56" stroke="#99E8DF" stroke-width="7" stroke-miterlimit="10"/>
<path d="M747.705 359.17C737.214 382.549 723.743 404.473 707.627 424.396" stroke="#99E8DF" stroke-width="7" stroke-miterlimit="10"/>
<path d="M736 285.77H769.72C765.918 309.183 759.299 332.051 750.007 353.875" stroke="#99E8DF" stroke-width="7" stroke-miterlimit="10"/>
<path d="M777.097 43.7025V211.441" stroke="#D8D8D8" stroke-width="7" stroke-miterlimit="10"/>
<path d="M171.101 178.981L121.22 178.463V43.7025H220.216L220.072 122.991H171.428L171.101 178.981Z" fill="#E6D6F5"/>
<path d="M495.438 28.6428C494.616 49.4538 485.965 69.1869 471.217 83.8936C463.521 91.6039 454.379 97.7185 444.314 101.886C434.25 106.054 423.461 108.193 412.567 108.181H403.723C382.313 108.184 361.732 99.907 346.286 85.0822C330.84 70.2574 321.726 50.0336 320.852 28.6428H495.438Z" fill="#565656"/>
<path d="M588.477 454.544C588.478 463.544 586.707 472.456 583.263 480.771C579.82 489.086 574.772 496.642 568.408 503.006C562.045 509.37 554.49 514.419 546.175 517.863C537.859 521.308 528.947 523.08 519.947 523.08V572.135C498.678 576.117 477.085 578.114 455.446 578.101H364.969C341.341 578.115 317.773 575.733 294.626 570.993V523.08C281.345 523.081 268.35 519.223 257.221 511.976C246.092 504.729 237.309 494.405 231.938 482.259C226.568 470.114 224.842 456.669 226.97 443.561C229.098 430.452 234.989 418.245 243.927 408.422C252.864 398.599 264.463 391.584 277.314 388.23C290.164 384.876 303.712 385.328 316.31 389.53C328.908 393.732 340.015 401.503 348.278 411.899C356.542 422.295 361.607 434.868 362.858 448.089H451.715C453.355 430.537 461.697 414.292 475.006 402.731C488.316 391.171 505.569 385.184 523.178 386.015C540.788 386.846 557.401 394.432 569.562 407.195C581.723 419.958 588.497 436.916 588.477 454.544Z" fill="#565656"/>
<path d="M691.483 131.883H655.443V173.446H691.483V131.883Z" fill="#E6D6F5"/>
<path d="M691.483 186.232H655.443V227.795H691.483V186.232Z" fill="#E6D6F5"/>
<path d="M641.515 132.133V235.268C641.515 240.678 641.265 246.03 640.795 251.315C636.277 301.828 614.981 343.026 576.409 374.613C563.853 359.947 540.773 353.827 519.947 354.354C462.967 355.803 431.944 381.615 428.692 416.435H384.921C377.132 367.707 330.301 354.354 294.626 354.354C275.345 354.354 261.119 352.503 240.811 370.987C200.417 336.206 179.773 290.566 179.773 235.268V132.133H317.907C337.294 152.938 368.748 159.23 399.445 159.23H415.1C445.796 159.23 475.332 152.938 494.719 132.133H641.515Z" fill="#E6D6F5"/>
<path d="M395.272 171.365H319.864V199.402H395.272V171.365Z" fill="#DFCDF7"/>
<path d="M496.445 171.365H421.037V199.402H496.445V171.365Z" fill="#DFCDF7"/>
<path d="M459.379 242.04H398.447V270.078H459.379V242.04Z" fill="#DFCDF7"/>
<path d="M374.82 242.04H313.888V270.078H374.82V242.04Z" fill="#DFCDF7"/>
<path d="M291.815 242.04H230.883V270.078H291.815V242.04Z" fill="#DFCDF7"/>
<path d="M467.658 299.909H406.725V327.947H467.658V299.909Z" fill="#DFCDF7"/>
<path d="M390.725 299.909H329.792V327.947H390.725V299.909Z" fill="#DFCDF7"/>
<path d="M308.669 299.909H247.737V327.947H308.669V299.909Z" fill="#DFCDF7"/>
<path d="M212.513 171.365V228.342H240.552V171.365H212.513Z" fill="#DFCDF7"/>
<path d="M554.356 171.365H526.317V199.402H554.356V171.365Z" fill="#DFCDF7"/>
<path d="M604.43 170.943H576.39V198.98H604.43V170.943Z" fill="#DFCDF7"/>
<path d="M685.104 138.406H661.813V167.096H685.104V138.406Z" fill="#DFCDF7"/>
<path d="M604.43 207.613H576.39V235.651H604.43V207.613Z" fill="#DFCDF7"/>
<path d="M684.883 192.736H662.033V220.793H684.883V192.736Z" fill="#DFCDF7"/>
<path d="M554.356 242.04H526.317V270.078H554.356V242.04Z" fill="#DFCDF7"/>
<path d="M509.136 242.04H481.097V270.078H509.136V242.04Z" fill="#DFCDF7"/>
<path d="M515.371 299.909H487.332V327.947H515.371V299.909Z" fill="#DFCDF7"/>
<path d="M162.161 168.151L131.033 167.662V53.6783H209.04L208.896 119.289" stroke="#D1B9ED" stroke-width="7" stroke-miterlimit="10"/>
<path d="M804.069 28.6428V229.675C804.069 239.568 803.659 249.355 802.841 259.037H698.483V123.365H529V28.6428H804.069Z" fill="#FFD5DD"/>
<path d="M730.717 239.929H787.073V186.712" stroke="#9CABB8" stroke-width="7" stroke-miterlimit="10"/>
<path d="M787.073 166.319V114.099" stroke="#9CABB8" stroke-width="7" stroke-miterlimit="10"/>
<path d="M787.073 88.7089V46.1293H707.579" stroke="#9CABB8" stroke-width="7" stroke-miterlimit="10"/>
<path d="M688.211 46.1293H621.859" stroke="#9CABB8" stroke-width="7" stroke-miterlimit="10"/>
<path d="M546 106.06L546 62.0601" stroke="#9CABB8" stroke-width="7" stroke-miterlimit="10"/>
<path d="M610.185 46.1293H548.456" stroke="#9CABB8" stroke-width="7" stroke-miterlimit="10"/>
<path d="M292 601.06V650.06H521V601.06H292Z" fill="#565656"/>
<path d="M323.756 637.06V615.94H328.364V637.06H323.756ZM326.956 637.06V633.284H339.916V637.06H326.956ZM326.956 628.1V624.676H338.316V628.1H326.956ZM326.956 619.684V615.94H339.852V619.684H326.956ZM343.413 637.06V615.94H349.429L358.901 630.916H359.221L358.933 615.94H363.445V637.06H357.973L347.957 621.444H347.637L347.893 637.06H343.413ZM372.423 637.06V615.94H377.063V637.06H372.423ZM366.279 619.812V615.94H383.239V619.812H366.279ZM386.1 637.06V615.94H394.676C395.7 615.94 396.66 616.025 397.556 616.196C398.452 616.345 399.263 616.58 399.988 616.9C400.735 617.22 401.375 617.625 401.908 618.116C402.463 618.607 402.879 619.193 403.156 619.876C403.433 620.537 403.572 621.295 403.572 622.148C403.572 622.895 403.455 623.567 403.22 624.164C403.007 624.761 402.665 625.295 402.196 625.764C401.727 626.212 401.129 626.585 400.404 626.884C399.7 627.161 398.879 627.353 397.94 627.46V627.908C399.028 628.036 399.903 628.292 400.564 628.676C401.225 629.06 401.737 629.583 402.1 630.244C402.484 630.905 402.815 631.727 403.092 632.708L404.34 637.06H399.252L398.292 633.06C398.1 632.207 397.823 631.535 397.46 631.044C397.097 630.553 396.639 630.212 396.084 630.02C395.551 629.828 394.9 629.732 394.132 629.732H390.708V637.06H386.1ZM390.708 626.244H393.684C394.047 626.244 394.452 626.233 394.9 626.212C395.348 626.191 395.796 626.127 396.244 626.02C396.713 625.913 397.129 625.743 397.492 625.508C397.876 625.273 398.185 624.943 398.42 624.516C398.676 624.089 398.804 623.545 398.804 622.884C398.804 622.201 398.687 621.647 398.452 621.22C398.217 620.793 397.919 620.463 397.556 620.228C397.193 619.993 396.809 619.823 396.404 619.716C395.999 619.609 395.615 619.545 395.252 619.524C394.889 619.503 394.601 619.492 394.388 619.492H390.708V626.244ZM405.997 637.06L413.197 615.94H419.885L427.117 637.06H422.093L416.781 619.588H416.333L410.989 637.06H405.997ZM410.029 632.932V629.764H423.725V632.932H410.029ZM429.944 637.06V615.94H435.96L445.432 630.916H445.752L445.464 615.94H449.976V637.06H444.504L434.488 621.444H434.168L434.424 637.06H429.944ZM464.17 637.508C462.528 637.508 461.056 637.273 459.754 636.804C458.474 636.335 457.386 635.641 456.49 634.724C455.594 633.807 454.912 632.676 454.442 631.332C453.973 629.988 453.738 628.452 453.738 626.724C453.738 624.932 453.973 623.353 454.442 621.988C454.933 620.601 455.626 619.428 456.522 618.468C457.418 617.487 458.485 616.751 459.722 616.26C460.96 615.748 462.346 615.492 463.882 615.492C465.077 615.492 466.176 615.652 467.178 615.972C468.181 616.292 469.045 616.751 469.77 617.348C470.496 617.924 471.061 618.639 471.466 619.492C471.872 620.324 472.074 621.263 472.074 622.308L467.818 623.396C467.818 622.479 467.626 621.721 467.242 621.124C466.858 620.505 466.357 620.047 465.738 619.748C465.12 619.428 464.448 619.268 463.722 619.268C463.082 619.268 462.453 619.396 461.834 619.652C461.237 619.908 460.682 620.324 460.17 620.9C459.68 621.455 459.285 622.191 458.986 623.108C458.709 624.004 458.57 625.113 458.57 626.436C458.57 628.143 458.816 629.54 459.306 630.628C459.797 631.695 460.469 632.484 461.322 632.996C462.197 633.487 463.178 633.732 464.266 633.732C465.418 633.732 466.314 633.497 466.954 633.028C467.616 632.537 468.085 631.908 468.362 631.14C468.661 630.372 468.821 629.561 468.842 628.708L472.906 629.348C472.885 630.479 472.714 631.545 472.394 632.548C472.096 633.529 471.594 634.393 470.89 635.14C470.208 635.887 469.312 636.473 468.202 636.9C467.093 637.305 465.749 637.508 464.17 637.508ZM476.131 637.06V615.94H480.739V637.06H476.131ZM479.331 637.06V633.284H492.291V637.06H479.331ZM479.331 628.1V624.676H490.691V628.1H479.331ZM479.331 619.684V615.94H492.227V619.684H479.331Z" fill="white"/>
<path d="M380.272 73.0002V51.8802H388.976C390.277 51.8802 391.44 51.9976 392.464 52.2322C393.488 52.4456 394.363 52.7869 395.088 53.2562C395.835 53.7042 396.4 54.2802 396.784 54.9842C397.168 55.6882 397.36 56.5309 397.36 57.5122C397.36 58.3229 397.189 59.0482 396.848 59.6882C396.507 60.3069 395.963 60.8082 395.216 61.1922C394.469 61.5762 393.499 61.8429 392.304 61.9922V62.4722C394.331 62.6002 395.824 63.1016 396.784 63.9762C397.744 64.8296 398.224 65.9922 398.224 67.4642C398.224 68.6802 397.904 69.7042 397.264 70.5362C396.624 71.3469 395.675 71.9656 394.416 72.3922C393.179 72.7976 391.632 73.0002 389.776 73.0002H380.272ZM384.688 69.2882H389.744C390.277 69.2882 390.779 69.2562 391.248 69.1922C391.717 69.1069 392.144 68.9789 392.528 68.8082C392.912 68.6162 393.2 68.3496 393.392 68.0082C393.605 67.6669 393.712 67.2402 393.712 66.7282C393.712 66.2589 393.627 65.8642 393.456 65.5442C393.285 65.2029 393.051 64.9256 392.752 64.7122C392.453 64.4776 392.091 64.2856 391.664 64.1362C391.259 63.9869 390.8 63.8909 390.288 63.8482C389.797 63.7842 389.275 63.7522 388.72 63.7522H384.688V69.2882ZM384.688 60.8402H387.984C388.688 60.8402 389.328 60.7976 389.904 60.7122C390.501 60.6269 391.013 60.4882 391.44 60.2962C391.888 60.0829 392.229 59.8056 392.464 59.4642C392.72 59.1016 392.848 58.6536 392.848 58.1202C392.848 57.6082 392.741 57.1922 392.528 56.8722C392.315 56.5309 392.016 56.2642 391.632 56.0722C391.248 55.8802 390.8 55.7416 390.288 55.6562C389.797 55.5709 389.275 55.5282 388.72 55.5282H384.688V60.8402ZM399.857 73.0002L407.057 51.8802H413.745L420.977 73.0002H415.953L410.641 55.5282H410.193L404.849 73.0002H399.857ZM403.889 68.8722V65.7042H417.585V68.8722H403.889ZM423.803 73.0002V51.8802H432.379C433.403 51.8802 434.363 51.9656 435.259 52.1362C436.155 52.2856 436.966 52.5202 437.691 52.8402C438.438 53.1602 439.078 53.5656 439.611 54.0562C440.166 54.5469 440.582 55.1336 440.859 55.8162C441.137 56.4776 441.275 57.2349 441.275 58.0882C441.275 58.8349 441.158 59.5069 440.923 60.1042C440.71 60.7016 440.369 61.2349 439.899 61.7042C439.43 62.1522 438.833 62.5256 438.107 62.8242C437.403 63.1016 436.582 63.2936 435.643 63.4002V63.8482C436.731 63.9762 437.606 64.2322 438.267 64.6162C438.929 65.0002 439.441 65.5229 439.803 66.1842C440.187 66.8456 440.518 67.6669 440.795 68.6482L442.043 73.0002H436.955L435.995 69.0002C435.803 68.1469 435.526 67.4749 435.163 66.9842C434.801 66.4936 434.342 66.1522 433.787 65.9602C433.254 65.7682 432.603 65.6722 431.835 65.6722H428.411V73.0002H423.803ZM428.411 62.1842H431.387C431.75 62.1842 432.155 62.1736 432.603 62.1522C433.051 62.1309 433.499 62.0669 433.947 61.9602C434.417 61.8536 434.833 61.6829 435.195 61.4482C435.579 61.2136 435.889 60.8829 436.123 60.4562C436.379 60.0296 436.507 59.4856 436.507 58.8242C436.507 58.1416 436.39 57.5869 436.155 57.1602C435.921 56.7336 435.622 56.4029 435.259 56.1682C434.897 55.9336 434.513 55.7629 434.107 55.6562C433.702 55.5496 433.318 55.4856 432.955 55.4642C432.593 55.4429 432.305 55.4322 432.091 55.4322H428.411V62.1842Z" fill="white"/>
<path d="M340.448 523V519.224H346.56C347.307 519.224 348 519.107 348.64 518.872C349.301 518.638 349.867 518.264 350.336 517.752C350.827 517.219 351.2 516.526 351.456 515.672C351.733 514.798 351.872 513.742 351.872 512.504C351.872 511.31 351.744 510.286 351.488 509.432C351.253 508.558 350.88 507.843 350.368 507.288C349.877 506.712 349.248 506.296 348.48 506.04C347.733 505.784 346.859 505.656 345.856 505.656H340.448V501.88H345.696C348.256 501.88 350.347 502.296 351.968 503.128C353.589 503.96 354.773 505.155 355.52 506.712C356.288 508.248 356.672 510.094 356.672 512.248C356.672 513.912 356.469 515.352 356.064 516.568C355.68 517.784 355.147 518.808 354.464 519.64C353.803 520.451 353.045 521.112 352.192 521.624C351.339 522.115 350.432 522.467 349.472 522.68C348.533 522.894 347.605 523 346.688 523H340.448ZM338.272 523V501.88H342.88V523H338.272ZM358.424 523.224L358.104 519C358.338 519.043 358.573 519.075 358.808 519.096C359.042 519.096 359.224 519.096 359.352 519.096C360.248 519.096 360.93 518.968 361.4 518.712C361.869 518.456 362.2 518.051 362.391 517.496C362.584 516.942 362.68 516.216 362.68 515.32V501.88H367.288V515.352C367.288 517.08 367.042 518.542 366.552 519.736C366.061 520.91 365.282 521.806 364.216 522.424C363.149 523.043 361.773 523.352 360.088 523.352C359.896 523.352 359.672 523.342 359.416 523.32C359.16 523.299 358.829 523.267 358.424 523.224ZM379.053 523V501.88H387.757C389.059 501.88 390.221 501.998 391.245 502.232C392.269 502.446 393.144 502.787 393.869 503.256C394.616 503.704 395.181 504.28 395.565 504.984C395.949 505.688 396.141 506.531 396.141 507.512C396.141 508.323 395.971 509.048 395.629 509.688C395.288 510.307 394.744 510.808 393.997 511.192C393.251 511.576 392.28 511.843 391.085 511.992V512.472C393.112 512.6 394.605 513.102 395.565 513.976C396.525 514.83 397.005 515.992 397.005 517.464C397.005 518.68 396.685 519.704 396.045 520.536C395.405 521.347 394.456 521.966 393.197 522.392C391.96 522.798 390.413 523 388.557 523H379.053ZM383.469 519.288H388.525C389.059 519.288 389.56 519.256 390.029 519.192C390.499 519.107 390.925 518.979 391.309 518.808C391.693 518.616 391.981 518.35 392.173 518.008C392.387 517.667 392.493 517.24 392.493 516.728C392.493 516.259 392.408 515.864 392.237 515.544C392.067 515.203 391.832 514.926 391.533 514.712C391.235 514.478 390.872 514.286 390.445 514.136C390.04 513.987 389.581 513.891 389.069 513.848C388.579 513.784 388.056 513.752 387.501 513.752H383.469V519.288ZM383.469 510.84H386.765C387.469 510.84 388.109 510.798 388.685 510.712C389.283 510.627 389.795 510.488 390.221 510.296C390.669 510.083 391.011 509.806 391.245 509.464C391.501 509.102 391.629 508.654 391.629 508.12C391.629 507.608 391.523 507.192 391.309 506.872C391.096 506.531 390.797 506.264 390.413 506.072C390.029 505.88 389.581 505.742 389.069 505.656C388.579 505.571 388.056 505.528 387.501 505.528H383.469V510.84ZM409.83 523.448C408.294 523.448 406.918 523.214 405.702 522.744C404.486 522.254 403.441 521.55 402.566 520.632C401.713 519.694 401.052 518.552 400.582 517.208C400.134 515.843 399.91 514.286 399.91 512.536C399.91 510.04 400.348 507.982 401.222 506.36C402.097 504.718 403.292 503.491 404.806 502.68C406.321 501.848 408.038 501.432 409.958 501.432C411.452 501.432 412.806 501.678 414.022 502.168C415.238 502.638 416.273 503.342 417.126 504.28C418.001 505.198 418.673 506.339 419.142 507.704C419.612 509.07 419.846 510.648 419.846 512.44C419.846 514.254 419.601 515.843 419.11 517.208C418.641 518.574 417.969 519.726 417.094 520.664C416.22 521.582 415.164 522.275 413.926 522.744C412.71 523.214 411.345 523.448 409.83 523.448ZM409.926 519.768C410.524 519.768 411.121 519.662 411.718 519.448C412.337 519.235 412.902 518.872 413.414 518.36C413.948 517.848 414.364 517.134 414.662 516.216C414.961 515.278 415.11 514.104 415.11 512.696C415.11 510.99 414.886 509.592 414.438 508.504C414.012 507.395 413.393 506.574 412.582 506.04C411.793 505.507 410.886 505.24 409.862 505.24C409.308 505.24 408.721 505.347 408.102 505.56C407.505 505.752 406.94 506.115 406.406 506.648C405.873 507.16 405.446 507.886 405.126 508.824C404.806 509.763 404.646 510.979 404.646 512.472C404.646 513.88 404.796 515.054 405.094 515.992C405.393 516.91 405.788 517.646 406.278 518.2C406.79 518.755 407.356 519.16 407.974 519.416C408.614 519.651 409.265 519.768 409.926 519.768ZM432.799 523.448C431.263 523.448 429.887 523.214 428.671 522.744C427.455 522.254 426.41 521.55 425.535 520.632C424.682 519.694 424.02 518.552 423.551 517.208C423.103 515.843 422.879 514.286 422.879 512.536C422.879 510.04 423.316 507.982 424.191 506.36C425.066 504.718 426.26 503.491 427.775 502.68C429.29 501.848 431.007 501.432 432.927 501.432C434.42 501.432 435.775 501.678 436.991 502.168C438.207 502.638 439.242 503.342 440.095 504.28C440.97 505.198 441.642 506.339 442.111 507.704C442.58 509.07 442.815 510.648 442.815 512.44C442.815 514.254 442.57 515.843 442.079 517.208C441.61 518.574 440.938 519.726 440.063 520.664C439.188 521.582 438.132 522.275 436.895 522.744C435.679 523.214 434.314 523.448 432.799 523.448ZM432.895 519.768C433.492 519.768 434.09 519.662 434.687 519.448C435.306 519.235 435.871 518.872 436.383 518.36C436.916 517.848 437.332 517.134 437.631 516.216C437.93 515.278 438.079 514.104 438.079 512.696C438.079 510.99 437.855 509.592 437.407 508.504C436.98 507.395 436.362 506.574 435.551 506.04C434.762 505.507 433.855 505.24 432.831 505.24C432.276 505.24 431.69 505.347 431.071 505.56C430.474 505.752 429.908 506.115 429.375 506.648C428.842 507.16 428.415 507.886 428.095 508.824C427.775 509.763 427.615 510.979 427.615 512.472C427.615 513.88 427.764 515.054 428.063 515.992C428.362 516.91 428.756 517.646 429.247 518.2C429.759 518.755 430.324 519.16 430.943 519.416C431.583 519.651 432.234 519.768 432.895 519.768ZM450.439 523V501.88H455.079V523H450.439ZM444.295 505.752V501.88H461.255V505.752H444.295ZM477.876 523V501.88H482.452V523H477.876ZM464.116 523V501.88H468.724V523H464.116ZM466.868 514.2V510.424H479.732V514.2H466.868Z" fill="white"/>
<path d="M284.936 258.508C283.293 258.508 281.821 258.274 280.52 257.804C279.24 257.335 278.152 256.642 277.256 255.724C276.36 254.807 275.677 253.676 275.208 252.332C274.739 250.988 274.504 249.452 274.504 247.724C274.504 245.932 274.739 244.354 275.208 242.988C275.699 241.602 276.392 240.428 277.288 239.468C278.184 238.487 279.251 237.751 280.488 237.26C281.725 236.748 283.112 236.492 284.648 236.492C285.843 236.492 286.941 236.652 287.944 236.972C288.947 237.292 289.811 237.751 290.536 238.348C291.261 238.924 291.827 239.639 292.232 240.492C292.637 241.324 292.84 242.263 292.84 243.308L288.584 244.396C288.584 243.479 288.392 242.722 288.008 242.124C287.624 241.506 287.123 241.047 286.504 240.748C285.885 240.428 285.213 240.268 284.488 240.268C283.848 240.268 283.219 240.396 282.6 240.652C282.003 240.908 281.448 241.324 280.936 241.9C280.445 242.455 280.051 243.191 279.752 244.108C279.475 245.004 279.336 246.114 279.336 247.436C279.336 249.143 279.581 250.54 280.072 251.628C280.563 252.695 281.235 253.484 282.088 253.996C282.963 254.487 283.944 254.732 285.032 254.732C286.184 254.732 287.08 254.498 287.72 254.028C288.381 253.538 288.851 252.908 289.128 252.14C289.427 251.372 289.587 250.562 289.608 249.708L293.672 250.348C293.651 251.479 293.48 252.546 293.16 253.548C292.861 254.53 292.36 255.394 291.656 256.14C290.973 256.887 290.077 257.474 288.968 257.9C287.859 258.306 286.515 258.508 284.936 258.508ZM306.08 258.508C304.544 258.508 303.168 258.274 301.952 257.804C300.736 257.314 299.691 256.61 298.816 255.692C297.963 254.754 297.302 253.612 296.832 252.268C296.384 250.903 296.16 249.346 296.16 247.596C296.16 245.1 296.598 243.042 297.472 241.42C298.347 239.778 299.542 238.551 301.056 237.74C302.571 236.908 304.288 236.492 306.208 236.492C307.702 236.492 309.056 236.738 310.272 237.228C311.488 237.698 312.523 238.402 313.376 239.34C314.251 240.258 314.923 241.399 315.392 242.764C315.862 244.13 316.096 245.708 316.096 247.5C316.096 249.314 315.851 250.903 315.36 252.268C314.891 253.634 314.219 254.786 313.344 255.724C312.47 256.642 311.414 257.335 310.176 257.804C308.96 258.274 307.595 258.508 306.08 258.508ZM306.176 254.828C306.774 254.828 307.371 254.722 307.968 254.508C308.587 254.295 309.152 253.932 309.664 253.42C310.198 252.908 310.614 252.194 310.912 251.276C311.211 250.338 311.36 249.164 311.36 247.756C311.36 246.05 311.136 244.652 310.688 243.564C310.262 242.455 309.643 241.634 308.832 241.1C308.043 240.567 307.136 240.3 306.112 240.3C305.558 240.3 304.971 240.407 304.352 240.62C303.755 240.812 303.19 241.175 302.656 241.708C302.123 242.22 301.696 242.946 301.376 243.884C301.056 244.823 300.896 246.039 300.896 247.532C300.896 248.94 301.046 250.114 301.344 251.052C301.643 251.97 302.038 252.706 302.528 253.26C303.04 253.815 303.606 254.22 304.224 254.476C304.864 254.711 305.515 254.828 306.176 254.828ZM329.561 258.508C327.918 258.508 326.446 258.274 325.145 257.804C323.865 257.335 322.777 256.642 321.881 255.724C320.985 254.807 320.302 253.676 319.833 252.332C319.364 250.988 319.129 249.452 319.129 247.724C319.129 245.932 319.364 244.354 319.833 242.988C320.324 241.602 321.017 240.428 321.913 239.468C322.809 238.487 323.876 237.751 325.113 237.26C326.35 236.748 327.737 236.492 329.273 236.492C330.468 236.492 331.566 236.652 332.569 236.972C333.572 237.292 334.436 237.751 335.161 238.348C335.886 238.924 336.452 239.639 336.857 240.492C337.262 241.324 337.465 242.263 337.465 243.308L333.209 244.396C333.209 243.479 333.017 242.722 332.633 242.124C332.249 241.506 331.748 241.047 331.129 240.748C330.51 240.428 329.838 240.268 329.113 240.268C328.473 240.268 327.844 240.396 327.225 240.652C326.628 240.908 326.073 241.324 325.561 241.9C325.07 242.455 324.676 243.191 324.377 244.108C324.1 245.004 323.961 246.114 323.961 247.436C323.961 249.143 324.206 250.54 324.697 251.628C325.188 252.695 325.86 253.484 326.713 253.996C327.588 254.487 328.569 254.732 329.657 254.732C330.809 254.732 331.705 254.498 332.345 254.028C333.006 253.538 333.476 252.908 333.753 252.14C334.052 251.372 334.212 250.562 334.233 249.708L338.297 250.348C338.276 251.479 338.105 252.546 337.785 253.548C337.486 254.53 336.985 255.394 336.281 256.14C335.598 256.887 334.702 257.474 333.593 257.9C332.484 258.306 331.14 258.508 329.561 258.508ZM341.522 258.06V236.94H346.13V246.38C347.197 245.932 348.199 245.367 349.138 244.684C350.098 243.98 350.941 243.212 351.666 242.38C352.413 241.527 353.042 240.642 353.554 239.724C354.087 238.786 354.471 237.858 354.706 236.94H359.986C359.687 238.007 359.239 239.063 358.642 240.108C358.045 241.132 357.33 242.103 356.498 243.02C355.687 243.938 354.813 244.759 353.874 245.484C352.935 246.188 351.975 246.743 350.994 247.148V247.596C352.21 247.596 353.234 247.746 354.066 248.044C354.898 248.343 355.591 248.77 356.146 249.324C356.722 249.858 357.202 250.476 357.586 251.18C357.991 251.863 358.333 252.588 358.61 253.356L360.306 258.06H355.09L354.002 254.316C353.746 253.442 353.415 252.674 353.01 252.012C352.605 251.351 352.018 250.839 351.25 250.476C350.482 250.092 349.394 249.9 347.986 249.9H346.13V258.06H341.522ZM368.033 258.06V236.94H372.673V258.06H368.033ZM361.889 240.812V236.94H378.849V240.812H361.889ZM377.825 258.06L385.025 236.94H391.713L398.945 258.06H393.921L388.609 240.588H388.161L382.817 258.06H377.825ZM381.857 253.932V250.764H395.553V253.932H381.857ZM401.772 258.06V236.94H406.444V258.06H401.772ZM410.991 258.06V236.94H415.599V258.06H410.991ZM411.919 258.06V254.156H424.463V258.06H411.919ZM438.845 258.06V236.94H443.485V258.06H438.845ZM432.701 240.812V236.94H449.661V240.812H432.701ZM448.638 258.06L455.838 236.94H462.526L469.758 258.06H464.734L459.422 240.588H458.974L453.63 258.06H448.638ZM452.67 253.932V250.764H466.366V253.932H452.67ZM472.585 258.06V236.94H481.289C482.59 236.94 483.753 237.058 484.777 237.292C485.801 237.506 486.675 237.847 487.401 238.316C488.147 238.764 488.713 239.34 489.097 240.044C489.481 240.748 489.673 241.591 489.673 242.572C489.673 243.383 489.502 244.108 489.161 244.748C488.819 245.367 488.275 245.868 487.529 246.252C486.782 246.636 485.811 246.903 484.617 247.052V247.532C486.643 247.66 488.137 248.162 489.097 249.036C490.057 249.89 490.537 251.052 490.537 252.524C490.537 253.74 490.217 254.764 489.577 255.596C488.937 256.407 487.987 257.026 486.729 257.452C485.491 257.858 483.945 258.06 482.089 258.06H472.585ZM477.001 254.348H482.057C482.59 254.348 483.091 254.316 483.561 254.252C484.03 254.167 484.457 254.039 484.841 253.868C485.225 253.676 485.513 253.41 485.705 253.068C485.918 252.727 486.025 252.3 486.025 251.788C486.025 251.319 485.939 250.924 485.769 250.604C485.598 250.263 485.363 249.986 485.065 249.772C484.766 249.538 484.403 249.346 483.977 249.196C483.571 249.047 483.113 248.951 482.601 248.908C482.11 248.844 481.587 248.812 481.033 248.812H477.001V254.348ZM477.001 245.9H480.297C481.001 245.9 481.641 245.858 482.217 245.772C482.814 245.687 483.326 245.548 483.753 245.356C484.201 245.143 484.542 244.866 484.777 244.524C485.033 244.162 485.161 243.714 485.161 243.18C485.161 242.668 485.054 242.252 484.841 241.932C484.627 241.591 484.329 241.324 483.945 241.132C483.561 240.94 483.113 240.802 482.601 240.716C482.11 240.631 481.587 240.588 481.033 240.588H477.001V245.9ZM494.21 258.06V236.94H498.818V258.06H494.21ZM495.138 258.06V254.156H507.682V258.06H495.138ZM510.335 258.06V236.94H514.943V258.06H510.335ZM513.535 258.06V254.284H526.495V258.06H513.535ZM513.535 249.1V245.676H524.895V249.1H513.535ZM513.535 240.684V236.94H526.431V240.684H513.535ZM538.056 258.508C536.67 258.508 535.422 258.37 534.312 258.092C533.224 257.815 532.286 257.41 531.496 256.876C530.728 256.322 530.131 255.639 529.704 254.828C529.278 253.996 529.032 253.036 528.968 251.948L533.032 250.668C533.075 251.628 533.31 252.428 533.736 253.068C534.184 253.708 534.803 254.188 535.592 254.508C536.403 254.807 537.31 254.956 538.312 254.956C539.251 254.956 540.04 254.839 540.68 254.604C541.342 254.37 541.843 254.06 542.184 253.676C542.526 253.271 542.696 252.834 542.696 252.364C542.696 251.81 542.472 251.362 542.024 251.02C541.598 250.679 541.022 250.391 540.296 250.156C539.571 249.922 538.739 249.698 537.8 249.484C536.755 249.228 535.731 248.962 534.728 248.684C533.726 248.386 532.819 248.002 532.008 247.532C531.198 247.063 530.547 246.455 530.056 245.708C529.587 244.962 529.352 244.023 529.352 242.892C529.352 241.591 529.672 240.471 530.312 239.532C530.974 238.572 531.923 237.826 533.16 237.292C534.419 236.759 535.944 236.492 537.736 236.492C539.486 236.492 541 236.759 542.28 237.292C543.56 237.804 544.552 238.551 545.256 239.532C545.96 240.492 546.323 241.623 546.344 242.924L542.216 244.044C542.216 243.383 542.11 242.807 541.896 242.316C541.683 241.804 541.384 241.388 541 241.068C540.616 240.727 540.136 240.471 539.56 240.3C539.006 240.13 538.376 240.044 537.672 240.044C536.84 240.044 536.126 240.162 535.528 240.396C534.931 240.61 534.472 240.898 534.152 241.26C533.854 241.602 533.704 242.018 533.704 242.508C533.704 243.084 533.939 243.554 534.408 243.916C534.878 244.279 535.507 244.588 536.296 244.844C537.107 245.079 537.982 245.303 538.92 245.516C539.838 245.708 540.766 245.954 541.704 246.252C542.664 246.53 543.55 246.903 544.36 247.372C545.192 247.82 545.854 248.439 546.344 249.228C546.856 249.996 547.112 250.978 547.112 252.172C547.112 253.452 546.771 254.572 546.088 255.532C545.406 256.471 544.392 257.207 543.048 257.74C541.704 258.252 540.04 258.508 538.056 258.508Z" fill="#030F1A"/>
<path d="M678.488 100.06L671.544 78.9401H676.568L681.528 96.1561H681.944L686.904 78.9401H691.896L684.888 100.06H678.488ZM694.71 100.06V78.9401H699.382V100.06H694.71ZM707.16 94.0761V90.4601H711.512C711.875 90.4601 712.28 90.4494 712.728 90.4281C713.198 90.4067 713.646 90.3321 714.072 90.2041C714.52 90.0761 714.926 89.8734 715.288 89.5961C715.672 89.2974 715.971 88.9027 716.184 88.4121C716.398 87.9001 716.504 87.2387 716.504 86.4281C716.504 85.6601 716.387 85.0307 716.152 84.5401C715.939 84.0494 715.651 83.6654 715.288 83.3881C714.926 83.1107 714.542 82.9081 714.136 82.7801C713.731 82.6521 713.347 82.5774 712.984 82.5561C712.622 82.5347 712.323 82.5241 712.088 82.5241H707.16V78.9401H712.344C713.667 78.9401 714.862 79.1001 715.928 79.4201C717.016 79.7187 717.944 80.1774 718.712 80.7961C719.502 81.4147 720.11 82.2041 720.536 83.1641C720.963 84.1241 721.176 85.2441 721.176 86.5241C721.176 88.1667 720.803 89.5534 720.056 90.6841C719.31 91.7934 718.2 92.6361 716.728 93.2121C715.278 93.7881 713.454 94.0761 711.256 94.0761H707.16ZM703.928 100.06V78.9401H708.536V100.06H703.928Z" fill="#030F1A"/>
<path d="M73 427.06H24V695.06H73V427.06Z" fill="#565656"/>
<path d="M805 427.06H756V695.06H805V427.06Z" fill="#565656"/>
<path d="M61.448 669.218C61.448 670.86 61.2133 672.332 60.744 673.634C60.2747 674.914 59.5813 676.002 58.664 676.898C57.7467 677.794 56.616 678.476 55.272 678.946C53.928 679.415 52.392 679.65 50.664 679.65C48.872 679.65 47.2933 679.415 45.928 678.946C44.5413 678.455 43.368 677.762 42.408 676.866C41.4267 675.97 40.6907 674.903 40.2 673.666C39.688 672.428 39.432 671.042 39.432 669.506C39.432 668.311 39.592 667.212 39.912 666.21C40.232 665.207 40.6907 664.343 41.288 663.618C41.864 662.892 42.5787 662.327 43.432 661.922C44.264 661.516 45.2027 661.314 46.248 661.314L47.336 665.57C46.4187 665.57 45.6613 665.762 45.064 666.146C44.4453 666.53 43.9867 667.031 43.688 667.65C43.368 668.268 43.208 668.94 43.208 669.666C43.208 670.306 43.336 670.935 43.592 671.554C43.848 672.151 44.264 672.706 44.84 673.218C45.3947 673.708 46.1307 674.103 47.048 674.402C47.944 674.679 49.0533 674.818 50.376 674.818C52.0827 674.818 53.48 674.572 54.568 674.082C55.6347 673.591 56.424 672.919 56.936 672.066C57.4267 671.191 57.672 670.21 57.672 669.122C57.672 667.97 57.4373 667.074 56.968 666.434C56.4773 665.772 55.848 665.303 55.08 665.026C54.312 664.727 53.5013 664.567 52.648 664.546L53.288 660.482C54.4187 660.503 55.4853 660.674 56.488 660.994C57.4693 661.292 58.3333 661.794 59.08 662.498C59.8267 663.18 60.4133 664.076 60.84 665.186C61.2453 666.295 61.448 667.639 61.448 669.218ZM61 643.497H39.88V638.921H61V643.497ZM61 657.257H39.88V652.649H61V657.257ZM52.2 654.505H48.424V641.641H52.2V654.505ZM61 634.382H39.88V629.774H61V634.382ZM61 631.182H57.224V618.222H61V631.182ZM52.04 631.182H48.616V619.822H52.04V631.182ZM43.624 631.182H39.88V618.286H43.624V631.182ZM61.448 605.53C61.448 607.173 61.2133 608.645 60.744 609.946C60.2747 611.226 59.5813 612.314 58.664 613.21C57.7467 614.106 56.616 614.789 55.272 615.258C53.928 615.728 52.392 615.962 50.664 615.962C48.872 615.962 47.2933 615.728 45.928 615.258C44.5413 614.768 43.368 614.074 42.408 613.178C41.4267 612.282 40.6907 611.216 40.2 609.978C39.688 608.741 39.432 607.354 39.432 605.818C39.432 604.624 39.592 603.525 39.912 602.522C40.232 601.52 40.6907 600.656 41.288 599.93C41.864 599.205 42.5787 598.64 43.432 598.234C44.264 597.829 45.2027 597.626 46.248 597.626L47.336 601.882C46.4187 601.882 45.6613 602.074 45.064 602.458C44.4453 602.842 43.9867 603.344 43.688 603.962C43.368 604.581 43.208 605.253 43.208 605.978C43.208 606.618 43.336 607.248 43.592 607.866C43.848 608.464 44.264 609.018 44.84 609.53C45.3947 610.021 46.1307 610.416 47.048 610.714C47.944 610.992 49.0533 611.13 50.376 611.13C52.0827 611.13 53.48 610.885 54.568 610.394C55.6347 609.904 56.424 609.232 56.936 608.378C57.4267 607.504 57.672 606.522 57.672 605.434C57.672 604.282 57.4373 603.386 56.968 602.746C56.4773 602.085 55.848 601.616 55.08 601.338C54.312 601.04 53.5013 600.88 52.648 600.858L53.288 596.794C54.4187 596.816 55.4853 596.986 56.488 597.306C57.4693 597.605 58.3333 598.106 59.08 598.81C59.8267 599.493 60.4133 600.389 60.84 601.498C61.2453 602.608 61.448 603.952 61.448 605.53ZM61 593.569H39.88V588.961H49.32C48.872 587.895 48.3067 586.892 47.624 585.953C46.92 584.993 46.152 584.151 45.32 583.425C44.4667 582.679 43.5813 582.049 42.664 581.537C41.7253 581.004 40.7973 580.62 39.88 580.385V575.105C40.9467 575.404 42.0027 575.852 43.048 576.449C44.072 577.047 45.0427 577.761 45.96 578.593C46.8773 579.404 47.6987 580.279 48.424 581.217C49.128 582.156 49.6827 583.116 50.088 584.097H50.536C50.536 582.881 50.6853 581.857 50.984 581.025C51.2827 580.193 51.7093 579.5 52.264 578.945C52.7973 578.369 53.416 577.889 54.12 577.505C54.8027 577.1 55.528 576.759 56.296 576.481L61 574.785V580.001L57.256 581.089C56.3813 581.345 55.6133 581.676 54.952 582.081C54.2907 582.487 53.7787 583.073 53.416 583.841C53.032 584.609 52.84 585.697 52.84 587.105V588.961H61V593.569ZM61 564.507H39.88V559.835H61V564.507ZM61 555.288H39.88V549.272L54.856 539.8V539.48L39.88 539.768V535.256H61L61 540.728L45.384 550.744V551.064L61 550.808V555.288ZM61 525.172L39.88 517.972V511.284L61 504.052V509.076L43.528 514.388V514.836L61 520.18V525.172ZM56.872 521.14H53.704V507.444H56.872V521.14ZM61 501.226H39.88V492.65C39.88 491.626 39.9653 490.666 40.136 489.77C40.2853 488.874 40.52 488.063 40.84 487.338C41.16 486.591 41.5653 485.951 42.056 485.418C42.5467 484.863 43.1333 484.447 43.816 484.17C44.4773 483.892 45.2347 483.754 46.088 483.754C46.8347 483.754 47.5067 483.871 48.104 484.106C48.7013 484.319 49.2347 484.66 49.704 485.13C50.152 485.599 50.5253 486.196 50.824 486.922C51.1013 487.626 51.2933 488.447 51.4 489.386H51.848C51.976 488.298 52.232 487.423 52.616 486.762C53 486.1 53.5227 485.588 54.184 485.226C54.8453 484.842 55.6667 484.511 56.648 484.234L61 482.986V488.074L57 489.034C56.1467 489.226 55.4747 489.503 54.984 489.866C54.4933 490.228 54.152 490.687 53.96 491.242C53.768 491.775 53.672 492.426 53.672 493.194V496.618H61V501.226ZM50.184 496.618V493.642C50.184 493.279 50.1733 492.874 50.152 492.426C50.1307 491.978 50.0667 491.53 49.96 491.082C49.8533 490.612 49.6827 490.196 49.448 489.834C49.2133 489.45 48.8827 489.14 48.456 488.906C48.0293 488.65 47.4853 488.522 46.824 488.522C46.1413 488.522 45.5867 488.639 45.16 488.874C44.7333 489.108 44.4027 489.407 44.168 489.77C43.9333 490.132 43.7627 490.516 43.656 490.922C43.5493 491.327 43.4853 491.711 43.464 492.074C43.4427 492.436 43.432 492.724 43.432 492.938V496.618H50.184ZM61 479.694H39.88V475.086H61V479.694ZM61 476.494H57.224V463.534H61V476.494ZM52.04 476.494H48.616V465.134H52.04V476.494ZM43.624 476.494H39.88V463.598H43.624V476.494ZM61 461.641L39.88 454.441V447.753L61 440.521V445.545L43.528 450.857V451.305L61 456.649V461.641ZM56.872 457.609H53.704V443.913H56.872V457.609Z" fill="white"/>
<path d="M791 648.569H769.88V643.961H791V648.569ZM783.096 646.393H779.32V634.169H783.096V646.393ZM773.816 646.393H769.88V632.985H773.816V646.393ZM791.448 620.98C791.448 622.516 791.213 623.892 790.744 625.108C790.253 626.324 789.549 627.369 788.632 628.244C787.693 629.097 786.552 629.758 785.208 630.228C783.843 630.676 782.285 630.9 780.536 630.9C778.04 630.9 775.981 630.462 774.36 629.588C772.717 628.713 771.491 627.518 770.68 626.004C769.848 624.489 769.432 622.772 769.432 620.852C769.432 619.358 769.677 618.004 770.168 616.788C770.637 615.572 771.341 614.537 772.28 613.684C773.197 612.809 774.339 612.137 775.704 611.668C777.069 611.198 778.648 610.964 780.44 610.964C782.253 610.964 783.843 611.209 785.208 611.7C786.573 612.169 787.725 612.841 788.664 613.716C789.581 614.59 790.275 615.646 790.744 616.884C791.213 618.1 791.448 619.465 791.448 620.98ZM787.768 620.884C787.768 620.286 787.661 619.689 787.448 619.092C787.235 618.473 786.872 617.908 786.36 617.396C785.848 616.862 785.133 616.446 784.216 616.148C783.277 615.849 782.104 615.7 780.696 615.7C778.989 615.7 777.592 615.924 776.504 616.372C775.395 616.798 774.573 617.417 774.04 618.228C773.507 619.017 773.24 619.924 773.24 620.948C773.24 621.502 773.347 622.089 773.56 622.708C773.752 623.305 774.115 623.87 774.648 624.404C775.16 624.937 775.885 625.364 776.824 625.684C777.763 626.004 778.979 626.164 780.472 626.164C781.88 626.164 783.053 626.014 783.992 625.716C784.909 625.417 785.645 625.022 786.2 624.532C786.755 624.02 787.16 623.454 787.416 622.836C787.651 622.196 787.768 621.545 787.768 620.884ZM791.448 598.011C791.448 599.547 791.213 600.923 790.744 602.139C790.253 603.355 789.549 604.4 788.632 605.275C787.693 606.128 786.552 606.79 785.208 607.259C783.843 607.707 782.285 607.931 780.536 607.931C778.04 607.931 775.981 607.494 774.36 606.619C772.717 605.744 771.491 604.55 770.68 603.035C769.848 601.52 769.432 599.803 769.432 597.883C769.432 596.39 769.677 595.035 770.168 593.819C770.637 592.603 771.341 591.568 772.28 590.715C773.197 589.84 774.339 589.168 775.704 588.699C777.069 588.23 778.648 587.995 780.44 587.995C782.253 587.995 783.843 588.24 785.208 588.731C786.573 589.2 787.725 589.872 788.664 590.747C789.581 591.622 790.275 592.678 790.744 593.915C791.213 595.131 791.448 596.496 791.448 598.011ZM787.768 597.915C787.768 597.318 787.661 596.72 787.448 596.123C787.235 595.504 786.872 594.939 786.36 594.427C785.848 593.894 785.133 593.478 784.216 593.179C783.277 592.88 782.104 592.731 780.696 592.731C778.989 592.731 777.592 592.955 776.504 593.403C775.395 593.83 774.573 594.448 774.04 595.259C773.507 596.048 773.24 596.955 773.24 597.979C773.24 598.534 773.347 599.12 773.56 599.739C773.752 600.336 774.115 600.902 774.648 601.435C775.16 601.968 775.885 602.395 776.824 602.715C777.763 603.035 778.979 603.195 780.472 603.195C781.88 603.195 783.053 603.046 783.992 602.747C784.909 602.448 785.645 602.054 786.2 601.563C786.755 601.051 787.16 600.486 787.416 599.867C787.651 599.227 787.768 598.576 787.768 597.915ZM791 582.05H787.224V575.938C787.224 575.191 787.107 574.498 786.872 573.858C786.637 573.196 786.264 572.631 785.752 572.162C785.219 571.671 784.525 571.298 783.672 571.042C782.797 570.764 781.741 570.626 780.504 570.626C779.309 570.626 778.285 570.754 777.432 571.01C776.557 571.244 775.843 571.618 775.288 572.13C774.712 572.62 774.296 573.25 774.04 574.018C773.784 574.764 773.656 575.639 773.656 576.642V582.05H769.88V576.802C769.88 574.242 770.296 572.151 771.128 570.53C771.96 568.908 773.155 567.724 774.712 566.978C776.248 566.21 778.093 565.826 780.248 565.826C781.912 565.826 783.352 566.028 784.568 566.434C785.784 566.818 786.808 567.351 787.64 568.034C788.451 568.695 789.112 569.452 789.624 570.306C790.115 571.159 790.467 572.066 790.68 573.026C790.893 573.964 791 574.892 791 575.81V582.05ZM791 584.226H769.88V579.618H791V584.226ZM791 556.485L769.88 549.285V542.597L791 535.365V540.389L773.528 545.701V546.149L791 551.493V556.485ZM786.872 552.453H783.704V538.757H786.872V552.453ZM791 532.538H769.88V523.962C769.88 522.938 769.965 521.978 770.136 521.082C770.285 520.186 770.52 519.375 770.84 518.65C771.16 517.903 771.565 517.263 772.056 516.73C772.547 516.175 773.133 515.759 773.816 515.482C774.477 515.205 775.235 515.066 776.088 515.066C776.835 515.066 777.507 515.183 778.104 515.418C778.701 515.631 779.235 515.973 779.704 516.442C780.152 516.911 780.525 517.509 780.824 518.234C781.101 518.938 781.293 519.759 781.4 520.698H781.848C781.976 519.61 782.232 518.735 782.616 518.074C783 517.413 783.523 516.901 784.184 516.538C784.845 516.154 785.667 515.823 786.648 515.546L791 514.298V519.386L787 520.346C786.147 520.538 785.475 520.815 784.984 521.178C784.493 521.541 784.152 521.999 783.96 522.554C783.768 523.087 783.672 523.738 783.672 524.506V527.93H791V532.538ZM780.184 527.93V524.954C780.184 524.591 780.173 524.186 780.152 523.738C780.131 523.29 780.067 522.842 779.96 522.394C779.853 521.925 779.683 521.509 779.448 521.146C779.213 520.762 778.883 520.453 778.456 520.218C778.029 519.962 777.485 519.834 776.824 519.834C776.141 519.834 775.587 519.951 775.16 520.186C774.733 520.421 774.403 520.719 774.168 521.082C773.933 521.445 773.763 521.829 773.656 522.234C773.549 522.639 773.485 523.023 773.464 523.386C773.443 523.749 773.432 524.037 773.432 524.25V527.93H780.184ZM791 511.007H769.88V506.399H791V511.007ZM791 507.807H787.224V494.847H791V507.807ZM782.04 507.807H778.616V496.447H782.04V507.807ZM773.624 507.807H769.88V494.911H773.624V507.807ZM791 492.954L769.88 485.754V479.066L791 471.834V476.858L773.528 482.17V482.618L791 487.962V492.954ZM786.872 488.922H783.704V475.226H786.872V488.922Z" fill="white"/>
<path d="M57.9912 288.206C57.3727 286.965 56.9402 285.787 56.6936 284.67C56.4565 283.572 56.4006 282.552 56.5258 281.607C56.6797 280.672 57.0242 279.833 57.5595 279.09C58.1138 278.337 58.8636 277.689 59.8088 277.147L62.7672 280.213C61.927 280.679 61.3157 281.246 60.9332 281.914C60.5602 282.6 60.4065 283.368 60.4722 284.217C60.5665 285.076 60.8373 285.954 61.2845 286.851C61.7032 287.691 62.1603 288.345 62.6558 288.814C63.1608 289.301 63.6613 289.612 64.1572 289.746C64.6722 289.87 65.1398 289.828 65.5598 289.619C66.0563 289.371 66.3573 288.971 66.463 288.418C66.5782 287.884 66.579 287.24 66.4655 286.486C66.352 285.732 66.1814 284.887 65.9536 283.952C65.7165 282.902 65.4984 281.867 65.2994 280.846C65.1194 279.815 65.0587 278.833 65.1172 277.898C65.1756 276.963 65.4296 276.109 65.879 275.337C66.3379 274.584 67.0733 273.955 68.0853 273.451C69.25 272.87 70.3952 272.657 71.5207 272.811C72.6749 272.975 73.7667 273.492 74.7959 274.361C75.8347 275.25 76.7537 276.496 77.553 278.1C78.3333 279.666 78.7703 281.14 78.8639 282.524C78.9766 283.898 78.7508 285.118 78.1865 286.186C77.6413 287.245 76.7911 288.074 75.6359 288.673L72.7922 285.478C73.3841 285.183 73.8521 284.831 74.1961 284.421C74.5591 284.002 74.7982 283.549 74.9134 283.062C75.0476 282.566 75.0626 282.023 74.9584 281.431C74.8638 280.858 74.6594 280.257 74.3454 279.627C73.9743 278.882 73.5505 278.295 73.074 277.865C72.6167 277.426 72.1543 277.144 71.687 277.019C71.2483 276.904 70.8093 276.956 70.3702 277.175C69.8547 277.432 69.5393 277.851 69.424 278.433C69.3088 279.015 69.3126 279.716 69.4356 280.536C69.5872 281.367 69.7768 282.249 70.0046 283.185C70.2419 284.091 70.4363 285.031 70.5877 286.005C70.7676 286.988 70.8284 287.946 70.7699 288.881C70.7401 289.826 70.4814 290.694 69.9938 291.485C69.5348 292.286 68.7707 292.953 67.7014 293.485C66.5558 294.056 65.4012 294.251 64.2374 294.068C63.0928 293.875 61.9821 293.297 60.9053 292.332C59.8475 291.357 58.8762 289.982 57.9912 288.206ZM67.6756 307.638C66.9905 306.264 66.5867 304.927 66.4644 303.63C66.3612 302.323 66.525 301.073 66.9559 299.881C67.4154 298.699 68.1419 297.598 69.1354 296.578C70.1576 295.568 71.4515 294.673 73.0172 293.893C75.2511 292.779 77.2887 292.252 79.1299 292.312C80.9903 292.362 82.621 292.884 84.0222 293.878C85.4425 294.863 86.5808 296.214 87.4372 297.933C88.1033 299.269 88.488 300.591 88.5912 301.898C88.7136 303.196 88.545 304.436 88.0855 305.619C87.6546 306.811 86.9329 307.921 85.9202 308.95C84.9076 309.979 83.5993 310.893 81.9955 311.693C80.3725 312.502 78.8406 312.991 77.3998 313.161C75.9685 313.35 74.6377 313.262 73.4074 312.898C72.1962 312.524 71.1047 311.888 70.1327 310.99C69.1703 310.111 68.3512 308.994 67.6756 307.638ZM71.0121 306.083C71.2785 306.618 71.6404 307.105 72.0978 307.544C72.5647 308.003 73.1414 308.347 73.8281 308.577C74.5242 308.826 75.3494 308.879 76.3036 308.737C77.277 308.586 78.3937 308.196 79.6539 307.568C81.1814 306.807 82.3321 305.983 83.106 305.097C83.9086 304.22 84.3677 303.3 84.4835 302.337C84.6087 301.392 84.443 300.462 83.9862 299.545C83.7388 299.049 83.3817 298.572 82.9148 298.113C82.4765 297.664 81.8997 297.32 81.1845 297.08C80.4884 296.831 79.6489 296.773 78.666 296.905C77.6832 297.038 76.5235 297.437 75.1869 298.103C73.9267 298.731 72.9432 299.388 72.2363 300.074C71.5485 300.75 71.0658 301.432 70.7883 302.118C70.5202 302.824 70.4096 303.511 70.4564 304.179C70.5319 304.856 70.7171 305.491 71.0121 306.083ZM74.2256 319.777L93.1282 310.356L95.1835 314.48L76.281 323.901L74.2256 319.777ZM82.2703 318.199L85.6499 316.514L91.1024 327.455L87.7228 329.139L82.2703 318.199ZM90.576 314.059L94.0988 312.304L100.079 324.304L96.5566 326.06L90.576 314.059ZM81.1212 333.613L103.235 330.637L106.219 336.622L90.5418 352.516L88.3008 348.019L101.569 335.472L101.369 335.071L83.3479 338.081L81.1212 333.613ZM86.6143 335.381L89.4497 333.967L95.5588 346.225L92.7234 347.639L86.6143 335.381ZM94.2797 360.016L116.394 357.039L119.377 363.025L103.7 378.918L101.459 374.422L114.727 361.874L114.528 361.473L96.5063 364.484L94.2797 360.016ZM99.7727 361.783L102.608 360.37L108.717 372.628L105.882 374.041L99.7727 361.783ZM104.961 381.448L123.864 372.028L127.689 379.704C128.146 380.62 128.498 381.517 128.744 382.395C129.01 383.264 129.162 384.094 129.199 384.886C129.246 385.697 129.168 386.451 128.967 387.147C128.775 387.862 128.436 388.496 127.949 389.049C127.48 389.592 126.865 390.054 126.101 390.435C125.433 390.768 124.779 390.962 124.139 391.019C123.51 391.094 122.88 391.027 122.251 390.816C121.64 390.596 121.04 390.228 120.449 389.712C119.887 389.205 119.349 388.556 118.834 387.763L118.433 387.963C118.804 388.994 118.965 389.891 118.916 390.654C118.868 391.417 118.628 392.109 118.198 392.728C117.778 393.367 117.19 394.029 116.435 394.715L113.097 397.773L110.827 393.22L113.979 390.576C114.657 390.024 115.135 389.476 115.413 388.932C115.69 388.389 115.791 387.826 115.715 387.244C115.649 386.681 115.445 386.056 115.102 385.369L113.575 382.304L107.016 385.573L104.961 381.448ZM116.697 380.748L118.024 383.412C118.186 383.736 118.376 384.094 118.595 384.486C118.814 384.877 119.071 385.25 119.367 385.603C119.671 385.976 120.01 386.272 120.382 386.492C120.763 386.731 121.197 386.86 121.683 386.88C122.179 386.919 122.723 386.79 123.315 386.495C123.926 386.191 124.37 385.839 124.648 385.438C124.925 385.038 125.088 384.623 125.136 384.194C125.184 383.765 125.166 383.345 125.08 382.934C124.995 382.524 124.881 382.152 124.738 381.818C124.595 381.484 124.477 381.221 124.381 381.03L122.74 377.736L116.697 380.748ZM114.565 400.719L133.468 391.299L135.523 395.423L116.62 404.843L114.565 400.719ZM115.992 403.583L119.372 401.899L125.153 413.498L121.773 415.182L115.992 403.583ZM124.012 399.587L127.076 398.059L132.143 408.227L129.079 409.754L124.012 399.587ZM131.544 395.833L134.895 394.163L140.647 405.705L137.296 407.375L131.544 395.833ZM122.618 416.877L144.732 413.9L147.715 419.886L132.038 435.78L129.797 431.283L143.065 418.735L142.866 418.334L124.844 421.345L122.618 416.877ZM128.111 418.644L130.946 417.231L137.055 429.489L134.22 430.902L128.111 418.644Z" fill="#030F1A"/>
<path d="M669.428 448.87C668.709 450.055 667.944 451.051 667.131 451.855C666.33 452.642 665.497 453.234 664.632 453.633C663.759 454.002 662.866 454.159 661.951 454.103C661.019 454.037 660.07 453.749 659.107 453.24L660.119 449.101C660.962 449.562 661.768 449.776 662.537 449.743C663.316 449.692 664.047 449.412 664.73 448.903C665.406 448.364 666.004 447.666 666.524 446.809C667.01 446.006 667.319 445.271 667.45 444.602C667.592 443.915 667.588 443.325 667.436 442.834C667.267 442.332 666.981 441.96 666.58 441.716C666.106 441.429 665.607 441.388 665.082 441.594C664.569 441.782 664.024 442.125 663.448 442.624C662.871 443.123 662.248 443.718 661.579 444.41C660.818 445.171 660.059 445.908 659.302 446.622C658.527 447.325 657.729 447.901 656.907 448.351C656.085 448.801 655.228 449.042 654.335 449.074C653.453 449.088 652.529 448.802 651.562 448.216C650.449 447.541 649.658 446.687 649.187 445.653C648.709 444.59 648.562 443.391 648.748 442.057C648.944 440.704 649.507 439.261 650.436 437.729C651.343 436.233 652.357 435.076 653.476 434.258C654.578 433.429 655.73 432.968 656.935 432.875C658.12 432.77 659.275 433.046 660.399 433.703L659.217 437.813C658.651 437.47 658.103 437.263 657.573 437.191C657.025 437.108 656.514 437.148 656.041 437.31C655.551 437.462 655.083 437.739 654.638 438.143C654.205 438.529 653.805 439.023 653.44 439.625C653.009 440.337 652.739 441.009 652.63 441.641C652.503 442.262 652.511 442.804 652.655 443.266C652.792 443.698 653.071 444.041 653.49 444.296C653.983 444.594 654.506 444.637 655.059 444.424C655.613 444.21 656.203 443.833 656.832 443.29C657.452 442.719 658.098 442.087 658.767 441.395C659.406 440.71 660.097 440.044 660.839 439.396C661.574 438.719 662.352 438.155 663.174 437.705C663.989 437.226 664.86 436.981 665.79 436.971C666.712 436.932 667.684 437.221 668.705 437.841C669.8 438.504 670.581 439.377 671.048 440.458C671.496 441.529 671.6 442.777 671.36 444.203C671.101 445.617 670.457 447.173 669.428 448.87ZM680.685 430.304C679.888 431.617 678.974 432.672 677.942 433.469C676.892 434.254 675.748 434.783 674.511 435.055C673.265 435.298 671.947 435.272 670.554 434.977C669.154 434.652 667.706 434.036 666.211 433.129C664.076 431.835 662.543 430.394 661.61 428.805C660.659 427.206 660.229 425.548 660.321 423.833C660.395 422.106 660.93 420.422 661.925 418.78C662.699 417.503 663.611 416.472 664.661 415.687C665.693 414.89 666.832 414.37 668.077 414.127C669.314 413.855 670.639 413.872 672.05 414.179C673.461 414.485 674.932 415.103 676.464 416.032C678.015 416.972 679.247 418.006 680.16 419.133C681.084 420.243 681.721 421.414 682.07 422.649C682.401 423.873 682.446 425.135 682.206 426.436C681.977 427.72 681.47 429.009 680.685 430.304ZM677.588 428.314C677.897 427.803 678.116 427.237 678.243 426.616C678.381 425.976 678.364 425.305 678.192 424.601C678.031 423.88 677.635 423.154 677.006 422.423C676.358 421.681 675.432 420.945 674.228 420.215C672.769 419.33 671.458 418.797 670.295 418.616C669.125 418.406 668.102 418.509 667.226 418.925C666.36 419.324 665.662 419.961 665.131 420.837C664.844 421.311 664.631 421.868 664.493 422.507C664.347 423.118 664.364 423.789 664.544 424.522C664.705 425.243 665.104 425.984 665.741 426.744C666.377 427.505 667.334 428.272 668.611 429.046C669.815 429.776 670.896 430.257 671.854 430.488C672.793 430.708 673.627 430.752 674.355 430.62C675.095 430.47 675.735 430.197 676.275 429.801C676.807 429.375 677.245 428.879 677.588 428.314ZM687.449 418.284L669.389 407.334L671.778 403.394L689.838 414.343L687.449 418.284ZM681.818 412.325L678.589 410.367L684.927 399.915L688.156 401.872L681.818 412.325ZM673.883 407.514L670.517 405.473L677.468 394.008L680.834 396.049L673.883 407.514ZM695.464 405.064L681.137 387.958L684.604 382.239L706.414 387.004L703.809 391.3L686.114 386.784L685.882 387.167L698.052 400.795L695.464 405.064ZM694.024 399.476L691.315 397.834L698.416 386.122L701.125 387.765L694.024 399.476ZM710.758 379.839L696.431 362.732L699.899 357.013L721.708 361.779L719.103 366.075L701.409 361.559L701.177 361.942L713.346 375.57L710.758 379.839ZM709.319 374.251L706.61 372.608L713.711 360.897L716.419 362.539L709.319 374.251ZM723.173 359.362L705.114 348.412L709.56 341.078C710.091 340.203 710.662 339.426 711.272 338.748C711.864 338.06 712.485 337.488 713.135 337.034C713.796 336.561 714.474 336.224 715.17 336.022C715.877 335.803 716.595 335.751 717.322 335.868C718.031 335.973 718.751 336.248 719.481 336.69C720.119 337.077 720.633 337.526 721.022 338.036C721.422 338.528 721.701 339.097 721.859 339.741C721.999 340.375 722.009 341.079 721.888 341.854C721.76 342.6 721.498 343.402 721.103 344.26L721.486 344.492C722.16 343.628 722.832 343.013 723.503 342.647C724.174 342.28 724.887 342.113 725.64 342.146C726.405 342.161 727.279 342.304 728.262 342.575L732.63 343.764L729.992 348.115L726.074 346.862C725.245 346.584 724.526 346.473 723.919 346.529C723.311 346.584 722.782 346.799 722.33 347.174C721.889 347.531 721.47 348.037 721.072 348.694L719.296 351.622L725.563 355.421L723.173 359.362ZM716.314 349.814L717.857 347.269C718.045 346.959 718.246 346.607 718.46 346.212C718.674 345.818 718.851 345.402 718.992 344.964C719.144 344.507 719.214 344.063 719.202 343.631C719.2 343.181 719.078 342.745 718.834 342.323C718.602 341.883 718.203 341.492 717.638 341.149C717.054 340.795 716.519 340.607 716.033 340.587C715.546 340.566 715.108 340.65 714.72 340.839C714.331 341.027 713.986 341.267 713.685 341.558C713.383 341.85 713.13 342.145 712.923 342.444C712.717 342.743 712.559 342.984 712.448 343.166L710.54 346.313L716.314 349.814ZM734.336 340.95L716.277 330L718.666 326.06L736.726 337.01L734.336 340.95ZM735.996 338.214L732.767 336.256L739.486 325.174L742.715 327.132L735.996 338.214ZM728.334 333.568L725.406 331.793L731.296 322.079L734.223 323.854L728.334 333.568ZM721.137 329.205L717.936 327.264L724.622 316.237L727.823 318.178L721.137 329.205ZM743.696 325.513L729.369 308.406L732.837 302.687L754.646 307.453L752.041 311.749L734.347 307.233L734.115 307.616L746.284 321.244L743.696 325.513ZM742.257 319.925L739.548 318.282L746.649 306.571L749.358 308.213L742.257 319.925Z" fill="#030F1A"/>
</g>
<defs>
<clipPath id="clip0_8606_22205">
<rect width="821" height="763" fill="white"/>
</clipPath>
</defs>
</svg>
