<svg width="51" height="50" viewBox="0 0 51 50" fill="none" xmlns="http://www.w3.org/2000/svg">
<rect x="0.5" width="50" height="50" rx="6.25" fill="#FFF2CF"/>
<path d="M11.5 17V33C11.5 34.4727 12.694 35.6667 14.1667 35.6667C14.1667 35.6667 35.5 35.6667 36.1667 35.6667C36.8333 35.6667 36.8333 35.0027 36.8333 35.0027V17H11.5Z" fill="#F57C00"/>
<path d="M36.1667 14.3333H14.1667C12.694 14.3333 11.5 15.5266 11.5 16.9993C11.5 18.4719 12.694 19.6666 14.1667 19.6666C14.1667 19.6666 35.5 19.6666 36.1667 19.6666C36.8333 19.6666 36.8333 20.3333 36.8333 20.3333V14.9999C36.8333 14.6319 36.5353 14.3333 36.1667 14.3333Z" fill="#942A09"/>
<path d="M14.1667 17V19.6667C19.0354 19.6667 35.598 19.6667 36.1667 19.6667C36.8334 19.6667 36.8334 20.3347 36.8334 20.3347V34.3333H38.1667V19.6667V17.6667V17H14.1667Z" fill="#4CAF50"/>
<path d="M14.1667 18.3333V19.6666C17.8394 19.6666 28.2014 19.6666 33.2887 19.6666C33.0914 19.2519 32.9574 18.8033 32.888 18.3333H14.1667Z" fill="#C8E6C9"/>
<path d="M39.5 24.3333H33.5C32.0273 24.3333 30.8333 25.5273 30.8333 26.9999C30.8333 28.4726 32.0273 29.6666 33.5 29.6666H39.5V24.3333Z" fill="#BF360C"/>
<path d="M33.5 25.6667C33.1464 25.6667 32.8073 25.8072 32.5572 26.0573C32.3072 26.3073 32.1667 26.6465 32.1667 27.0001C32.1667 27.3537 32.3072 27.6928 32.5572 27.9429C32.8073 28.1929 33.1464 28.3334 33.5 28.3334C33.8536 28.3334 34.1928 28.1929 34.4428 27.9429C34.6929 27.6928 34.8334 27.3537 34.8334 27.0001C34.8334 26.6465 34.6929 26.3073 34.4428 26.0573C34.1928 25.8072 33.8536 25.6667 33.5 25.6667Z" fill="#FFECB3"/>
</svg>
