<svg width="22" height="23" viewBox="0 0 22 23" fill="none" xmlns="http://www.w3.org/2000/svg">
<path d="M18 7.16699V1.16699M15 4.16699H21M21 11.167V16.367C21 18.0471 21 18.8872 20.673 19.529C20.3854 20.0935 19.9265 20.5524 19.362 20.84C18.7202 21.167 17.8802 21.167 16.2 21.167H5.8C4.11984 21.167 3.27976 21.167 2.63803 20.84C2.07354 20.5524 1.6146 20.0935 1.32698 19.529C1 18.8872 1 18.0471 1 16.367V5.96699C1 4.28683 1 3.44676 1.32698 2.80502C1.6146 2.24053 2.07354 1.78159 2.63803 1.49397C3.27976 1.16699 4.11984 1.16699 5.8 1.16699H11M1.14574 19.0933C1.61488 17.4056 3.1628 16.167 5 16.167H12C12.9293 16.167 13.394 16.167 13.7804 16.2439C15.3671 16.5595 16.6075 17.7999 16.9231 19.3866C17 19.773 17 20.2377 17 21.167M13 8.66699C13 10.8761 11.2091 12.667 9 12.667C6.79086 12.667 5 10.8761 5 8.66699C5 6.45785 6.79086 4.66699 9 4.66699C11.2091 4.66699 13 6.45785 13 8.66699Z" stroke="#030F1A" stroke-width="2" stroke-linecap="round" stroke-linejoin="round"/>
</svg>
