<svg width="22" height="21" viewBox="0 0 22 21" fill="none" xmlns="http://www.w3.org/2000/svg">
<path d="M18 19.167V13.167M15 16.167H21M11 13.167H7C5.13623 13.167 4.20435 13.167 3.46927 13.4715C2.48915 13.8774 1.71046 14.6561 1.30448 15.6363C1 16.3713 1 17.3032 1 19.167M14.5 1.45775C15.9659 2.05114 17 3.4883 17 5.16699C17 6.84568 15.9659 8.28285 14.5 8.87623M12.5 5.16699C12.5 7.37613 10.7091 9.16699 8.5 9.16699C6.29086 9.16699 4.5 7.37613 4.5 5.16699C4.5 2.95785 6.29086 1.16699 8.5 1.16699C10.7091 1.16699 12.5 2.95785 12.5 5.16699Z" stroke="#030F1A" stroke-width="2" stroke-linecap="round" stroke-linejoin="round"/>
</svg>
