<svg width="61" height="60" viewBox="0 0 61 60" fill="none" xmlns="http://www.w3.org/2000/svg">
<g style="mix-blend-mode:luminosity">
<path d="M1.42578 30C1.42578 13.9453 14.4453 0.925781 30.5 0.925781C46.5547 0.925781 59.5742 13.9453 59.5742 30C59.5742 46.0547 46.5547 59.0742 30.5 59.0742C14.4453 59.0742 1.42578 46.0547 1.42578 30Z" fill="#EFC849"/>
<path d="M19.1445 12.4336C18.0664 12.4336 17.1875 13.3125 17.1875 14.3906V45.7617C17.1875 46.8398 18.0664 47.7188 19.1445 47.7188H41.6914C42.7695 47.7188 43.6484 46.8398 43.6484 45.7617V21.5039L34.1914 12.4219H19.1445V12.4336Z" fill="#F5F5F5"/>
<path d="M43.6602 21.5156H36.1719C35.0937 21.5156 34.2148 20.6367 34.2148 19.5586V12.4336L43.6602 21.5156Z" fill="#E1E1E1"/>
<path d="M40.8945 24.1991C40.8945 24.5389 40.625 24.8085 40.2852 24.8085H20.7031C20.3633 24.8085 20.0938 24.5389 20.0938 24.1991C20.0938 23.8592 20.3633 23.5897 20.7031 23.5897H40.2852C40.625 23.578 40.8945 23.8592 40.8945 24.1991ZM40.8945 27.41C40.8945 27.7499 40.625 28.0194 40.2852 28.0194H20.7031C20.3633 28.0194 20.0938 27.7499 20.0938 27.41C20.0938 27.0702 20.3633 26.8006 20.7031 26.8006H40.2852C40.625 26.8006 40.8945 27.0702 40.8945 27.41ZM40.8945 30.4686C40.8945 30.8085 40.625 31.078 40.2852 31.078H20.7031C20.3633 31.078 20.0938 30.8085 20.0938 30.4686C20.0938 30.1288 20.3633 29.8592 20.7031 29.8592H40.2852C40.625 29.8592 40.8945 30.1288 40.8945 30.4686ZM40.8945 33.6796C40.8945 34.0194 40.625 34.2889 40.2852 34.2889H20.7031C20.3633 34.2889 20.0938 34.0194 20.0938 33.6796C20.0938 33.3397 20.3633 33.0702 20.7031 33.0702H40.2852C40.625 33.0702 40.8945 33.3397 40.8945 33.6796ZM30.957 36.2811H20.7031C20.3633 36.2811 20.0938 36.5506 20.0938 36.8905C20.0938 37.2303 20.3633 37.4999 20.7031 37.4999H30.957C31.2969 37.4999 31.5664 37.2303 31.5664 36.8905C31.5664 36.5506 31.2969 36.2811 30.957 36.2811Z" fill="#C9C9C8"/>
<path d="M41.6914 37.8516C40.7727 37.8516 39.8629 38.0325 39.0141 38.3841C38.1653 38.7357 37.3941 39.251 36.7444 39.9007C36.0948 40.5503 35.5794 41.3216 35.2279 42.1704C34.8763 43.0192 34.6953 43.9289 34.6953 44.8477C34.6953 45.7664 34.8763 46.6761 35.2279 47.5249C35.5794 48.3738 36.0948 49.145 36.7444 49.7946C37.3941 50.4443 38.1653 50.9596 39.0141 51.3112C39.8629 51.6628 40.7727 51.8438 41.6914 51.8438C42.6101 51.8438 43.5199 51.6628 44.3687 51.3112C45.2175 50.9596 45.9887 50.4443 46.6384 49.7946C47.288 49.145 47.8034 48.3738 48.155 47.5249C48.5065 46.6761 48.6875 45.7664 48.6875 44.8477C48.6875 43.9289 48.5065 43.0192 48.155 42.1704C47.8034 41.3216 47.288 40.5503 46.6384 39.9007C45.9887 39.251 45.2175 38.7357 44.3687 38.3841C43.5199 38.0325 42.6101 37.8516 41.6914 37.8516Z" fill="#49A0AE"/>
<path d="M46.2266 44.1212C44.9492 42.8438 43.6719 41.5665 42.4062 40.3008C42.0195 39.9141 41.3867 39.9258 41 40.3126C39.7226 41.5899 38.4453 42.8673 37.1797 44.1329C36.2773 45.0352 37.6836 46.4415 38.5859 45.5274C39.8633 44.2501 41.1406 42.9727 42.4062 41.7071C41.9375 41.7071 41.4687 41.7071 41 41.7188C42.2773 42.9962 43.5547 44.2735 44.8203 45.5391C45.7344 46.4298 47.1289 45.0235 46.2266 44.1212ZM41.7031 41.2032V49.1016V41.2032Z" fill="white"/>
<path d="M40.707 41.2031C40.707 44.2148 40.707 46.0781 40.707 49.0898C40.707 50.3672 42.6992 50.3789 42.6992 49.1016C42.6992 46.0898 42.6992 44.2266 42.6992 41.2031C42.6875 39.9258 40.707 39.9141 40.707 41.2031Z" fill="white"/>
</g>
</svg>
