<svg width="22" height="18" viewBox="0 0 22 18" fill="none" xmlns="http://www.w3.org/2000/svg">
<path d="M9 5V4M9 9.5V8.5M9 14V13M4.2 1H17.8C18.9201 1 19.4802 1 19.908 1.21799C20.2843 1.40973 20.5903 1.71569 20.782 2.09202C21 2.51984 21 3.0799 21 4.2V5.5C19.067 5.5 17.5 7.067 17.5 9C17.5 10.933 19.067 12.5 21 12.5V13.8C21 14.9201 21 15.4802 20.782 15.908C20.5903 16.2843 20.2843 16.5903 19.908 16.782C19.4802 17 18.9201 17 17.8 17H4.2C3.0799 17 2.51984 17 2.09202 16.782C1.71569 16.5903 1.40973 16.2843 1.21799 15.908C1 15.4802 1 14.9201 1 13.8V12.5C2.933 12.5 4.5 10.933 4.5 9C4.5 7.067 2.933 5.5 1 5.5V4.2C1 3.0799 1 2.51984 1.21799 2.09202C1.40973 1.71569 1.71569 1.40973 2.09202 1.21799C2.51984 1 3.0799 1 4.2 1Z" stroke="#030F1A" stroke-width="2" stroke-linecap="round" stroke-linejoin="round"/>
</svg>
