<svg width="21" height="22" viewBox="0 0 21 22" fill="none" xmlns="http://www.w3.org/2000/svg">
<path d="M0 17V19H11.42C11.45 18.17 12.16 17.49 13.13 17H0ZM2 15H4V7H6V15H8V7H10V15H12V7H14V11.42C14.52 10.82 15.21 10.38 16 10.18V7H18V4.5L9 0.5L0 4.5V7H2V15ZM9 2.69L14.2 5H3.8L9 2.69ZM16 12.27C15.4 12.62 15 13.26 15 14C15 14.36 15.1 14.71 15.27 15C15.58 15.52 16.11 15.9 16.74 15.98C16.82 15.99 16.91 16 17 16C17.17 16 17.33 15.98 17.48 15.94C18.35 15.72 19 14.93 19 14C19 12.9 18.1 12 17 12C16.64 12 16.29 12.1 16 12.27ZM18 18.1C17.64 18.03 17.3 18 17.02 18C17.01 18 17.01 18 17 18C16.08 18 14.51 18.35 13.64 19C13.25 19.29 13 19.64 13 20.05V22H21V20.05C21 19.01 19.35 18.34 18 18.1Z" fill="black"/>
</svg>
