<svg width="22" height="23" viewBox="0 0 22 23" fill="none" xmlns="http://www.w3.org/2000/svg">
<path d="M7.5 13.8337C7.5 15.1223 8.54467 16.167 9.83333 16.167H12C13.3807 16.167 14.5 15.0477 14.5 13.667C14.5 12.2863 13.3807 11.167 12 11.167H10C8.61929 11.167 7.5 10.0477 7.5 8.66699C7.5 7.28628 8.61929 6.16699 10 6.16699H12.1667C13.4553 6.16699 14.5 7.21166 14.5 8.50033M11 4.66699V6.16699M11 16.167V17.667M21 11.167C21 16.6898 16.5228 21.167 11 21.167C5.47715 21.167 1 16.6898 1 11.167C1 5.64414 5.47715 1.16699 11 1.16699C16.5228 1.16699 21 5.64414 21 11.167Z" stroke="#030F1A" stroke-width="2" stroke-linecap="round" stroke-linejoin="round"/>
</svg>
