<svg width="29" height="29" viewBox="0 0 29 29" fill="none" xmlns="http://www.w3.org/2000/svg">
<path d="M26.5833 19.5628C26.5833 23.9611 23.9612 26.5832 19.5629 26.5832H18.125C17.4604 26.5832 16.9167 26.0394 16.9167 25.3748V18.4028C16.9167 18.0765 17.1825 17.7986 17.5087 17.7986L19.6354 17.7623C19.8046 17.7503 19.9496 17.6294 19.9858 17.4603L20.4087 15.1523C20.417 15.1 20.4137 15.0466 20.3993 14.9956C20.3848 14.9447 20.3595 14.8975 20.325 14.8573C20.2906 14.8171 20.2478 14.7848 20.1997 14.7627C20.1515 14.7407 20.0992 14.7293 20.0462 14.7294L17.4725 14.7657C17.1342 14.7657 16.8683 14.4998 16.8562 14.1736L16.8079 11.2132C16.8079 11.0198 16.965 10.8507 17.1704 10.8507L20.0704 10.8023C20.2758 10.8023 20.4329 10.6453 20.4329 10.4398L20.3846 7.53984C20.3846 7.33442 20.2275 7.17734 20.0221 7.17734L16.7596 7.22567C16.2833 7.2329 15.8132 7.33405 15.3761 7.52331C14.939 7.71257 14.5436 7.98622 14.2124 8.32859C13.8813 8.67095 13.6209 9.0753 13.4464 9.51845C13.2718 9.96161 13.1863 10.4349 13.195 10.9111L13.2554 14.234C13.2675 14.5723 13.0017 14.8382 12.6633 14.8503L11.2133 14.8744C11.0079 14.8744 10.8508 15.0315 10.8508 15.2369L10.8871 17.5328C10.8871 17.7382 11.0442 17.8953 11.2496 17.8953L12.6996 17.8711C13.0379 17.8711 13.3037 18.1369 13.3158 18.4632L13.4246 25.3507C13.4367 26.0273 12.8929 26.5832 12.2162 26.5832H9.43707C5.03874 26.5832 2.41666 23.9611 2.41666 19.5507V9.43692C2.41666 5.03859 5.03874 2.4165 9.43707 2.4165H19.5629C23.9612 2.4165 26.5833 5.03859 26.5833 9.43692V19.5628Z" fill="black"/>
</svg>
