<svg width="101" height="100" viewBox="0 0 101 100" fill="none" xmlns="http://www.w3.org/2000/svg">
<path d="M13.5 27C12.9696 27 12.4609 27.2107 12.0858 27.5858C11.7107 27.9609 11.5 28.4696 11.5 29C11.5 29.5304 11.7107 30.0391 12.0858 30.4142C12.4609 30.7893 12.9696 31 13.5 31C14.0304 31 14.5391 30.7893 14.9142 30.4142C15.2893 30.0391 15.5 29.5304 15.5 29C15.5 28.4696 15.2893 27.9609 14.9142 27.5858C14.5391 27.2107 14.0304 27 13.5 27Z" fill="#EE3E54"/>
<path d="M77.5 12C77.2348 12 76.9804 12.1054 76.7929 12.2929C76.6054 12.4804 76.5 12.7348 76.5 13C76.5 13.2652 76.6054 13.5196 76.7929 13.7071C76.9804 13.8946 77.2348 14 77.5 14C77.7652 14 78.0196 13.8946 78.2071 13.7071C78.3946 13.5196 78.5 13.2652 78.5 13C78.5 12.7348 78.3946 12.4804 78.2071 12.2929C78.0196 12.1054 77.7652 12 77.5 12Z" fill="#F1BC19"/>
<path d="M50.5 13C40.687 13 31.2759 16.8982 24.337 23.837C17.3982 30.7759 13.5 40.187 13.5 50C13.5 59.813 17.3982 69.2241 24.337 76.1629C31.2759 83.1018 40.687 87 50.5 87C60.313 87 69.7241 83.1018 76.6629 76.1629C83.6018 69.2241 87.5 59.813 87.5 50C87.5 40.187 83.6018 30.7759 76.6629 23.837C69.7241 16.8982 60.313 13 50.5 13Z" fill="#F9DBD2"/>
<path d="M83.5 11C82.4391 11 81.4217 11.4214 80.6716 12.1716C79.9214 12.9217 79.5 13.9391 79.5 15C79.5 16.0609 79.9214 17.0783 80.6716 17.8284C81.4217 18.5786 82.4391 19 83.5 19C84.5609 19 85.5783 18.5786 86.3284 17.8284C87.0786 17.0783 87.5 16.0609 87.5 15C87.5 13.9391 87.0786 12.9217 86.3284 12.1716C85.5783 11.4214 84.5609 11 83.5 11Z" fill="#F1BC19"/>
<path d="M87.5 22C86.9696 22 86.4609 22.2107 86.0858 22.5858C85.7107 22.9609 85.5 23.4696 85.5 24C85.5 24.5304 85.7107 25.0391 86.0858 25.4142C86.4609 25.7893 86.9696 26 87.5 26C88.0304 26 88.5391 25.7893 88.9142 25.4142C89.2893 25.0391 89.5 24.5304 89.5 24C89.5 23.4696 89.2893 22.9609 88.9142 22.5858C88.5391 22.2107 88.0304 22 87.5 22Z" fill="#EE3E54"/>
<path d="M81.5 74C80.9696 74 80.4609 74.2107 80.0858 74.5858C79.7107 74.9609 79.5 75.4696 79.5 76C79.5 76.5304 79.7107 77.0391 80.0858 77.4142C80.4609 77.7893 80.9696 78 81.5 78C82.0304 78 82.5391 77.7893 82.9142 77.4142C83.2893 77.0391 83.5 76.5304 83.5 76C83.5 75.4696 83.2893 74.9609 82.9142 74.5858C82.5391 74.2107 82.0304 74 81.5 74ZM15.5 59C14.4391 59 13.4217 59.4214 12.6716 60.1716C11.9214 60.9217 11.5 61.9391 11.5 63C11.5 64.0609 11.9214 65.0783 12.6716 65.8284C13.4217 66.5786 14.4391 67 15.5 67C16.5609 67 17.5783 66.5786 18.3284 65.8284C19.0786 65.0783 19.5 64.0609 19.5 63C19.5 61.9391 19.0786 60.9217 18.3284 60.1716C17.5783 59.4214 16.5609 59 15.5 59Z" fill="#FBCD59"/>
<path d="M25.5 85C24.9696 85 24.4609 85.2107 24.0858 85.5858C23.7107 85.9609 23.5 86.4696 23.5 87C23.5 87.5304 23.7107 88.0391 24.0858 88.4142C24.4609 88.7893 24.9696 89 25.5 89C26.0304 89 26.5391 88.7893 26.9142 88.4142C27.2893 88.0391 27.5 87.5304 27.5 87C27.5 86.4696 27.2893 85.9609 26.9142 85.5858C26.5391 85.2107 26.0304 85 25.5 85Z" fill="#EE3E54"/>
<path d="M19 51C18.337 51 17.7011 51.2634 17.2322 51.7322C16.7634 52.2011 16.5 52.837 16.5 53.5C16.5 54.163 16.7634 54.7989 17.2322 55.2678C17.7011 55.7366 18.337 56 19 56C19.663 56 20.2989 55.7366 20.7678 55.2678C21.2366 54.7989 21.5 54.163 21.5 53.5C21.5 52.837 21.2366 52.2011 20.7678 51.7322C20.2989 51.2634 19.663 51 19 51Z" fill="white"/>
<path d="M21.5 66C21.2348 66 20.9804 66.1054 20.7929 66.2929C20.6054 66.4804 20.5 66.7348 20.5 67C20.5 67.2652 20.6054 67.5196 20.7929 67.7071C20.9804 67.8946 21.2348 68 21.5 68C21.7652 68 22.0196 67.8946 22.2071 67.7071C22.3946 67.5196 22.5 67.2652 22.5 67C22.5 66.7348 22.3946 66.4804 22.2071 66.2929C22.0196 66.1054 21.7652 66 21.5 66Z" fill="#F1BC19"/>
<path d="M80.5 33C80.2348 33 79.9804 33.1054 79.7929 33.2929C79.6054 33.4804 79.5 33.7348 79.5 34C79.5 34.2652 79.6054 34.5196 79.7929 34.7071C79.9804 34.8946 80.2348 35 80.5 35C80.7652 35 81.0196 34.8946 81.2071 34.7071C81.3946 34.5196 81.5 34.2652 81.5 34C81.5 33.7348 81.3946 33.4804 81.2071 33.2929C81.0196 33.1054 80.7652 33 80.5 33Z" fill="white"/>
<path d="M50.5 26C47.3483 26 44.2274 26.6208 41.3156 27.8269C38.4038 29.033 35.758 30.8008 33.5294 33.0294C31.3008 35.258 29.533 37.9038 28.3269 40.8156C27.1208 43.7274 26.5 46.8483 26.5 50C26.5 53.1517 27.1208 56.2726 28.3269 59.1844C29.533 62.0962 31.3008 64.742 33.5294 66.9706C35.758 69.1992 38.4038 70.967 41.3156 72.1731C44.2274 73.3792 47.3483 74 50.5 74C53.6517 74 56.7726 73.3792 59.6844 72.1731C62.5962 70.967 65.242 69.1992 67.4706 66.9706C69.6992 64.742 71.467 62.0962 72.6731 59.1844C73.8792 56.2726 74.5 53.1517 74.5 50C74.5 46.8483 73.8792 43.7274 72.6731 40.8156C71.467 37.9038 69.6992 35.258 67.4706 33.0294C65.242 30.8008 62.5962 29.033 59.6844 27.8269C56.7726 26.6208 53.6517 26 50.5 26Z" fill="#FDFCEE"/>
<path d="M50.5 26.4C63.5 26.4 74.1 37 74.1 50C74.1 63 63.5 73.6 50.5 73.6C37.5 73.6 26.9 63 26.9 50C26.9 37 37.5 26.4 50.5 26.4ZM50.5 25C36.7 25 25.5 36.2 25.5 50C25.5 63.8 36.7 75 50.5 75C64.3 75 75.5 63.8 75.5 50C75.5 36.2 64.3 25 50.5 25Z" fill="#472B29"/>
<path d="M50.4999 30.3999C47.926 30.3999 45.3773 30.9069 42.9993 31.8919C40.6213 32.8769 38.4606 34.3206 36.6406 36.1406C34.8206 37.9606 33.3769 40.1213 32.3919 42.4993C31.4069 44.8773 30.8999 47.426 30.8999 49.9999C30.8999 52.5738 31.4069 55.1225 32.3919 57.5005C33.3769 59.8785 34.8206 62.0392 36.6406 63.8592C38.4606 65.6792 40.6213 67.1229 42.9993 68.1079C45.3773 69.0929 47.926 69.5999 50.4999 69.5999C53.0738 69.5999 55.6225 69.0929 58.0005 68.1079C60.3785 67.1229 62.5392 65.6792 64.3592 63.8592C66.1792 62.0392 67.6229 59.8785 68.6079 57.5005C69.5929 55.1225 70.0999 52.5738 70.0999 49.9999C70.0999 47.426 69.5929 44.8773 68.6079 42.4993C67.6229 40.1213 66.1792 37.9606 64.3592 36.1406C62.5392 34.3206 60.3785 32.8769 58.0005 31.8919C55.6225 30.9069 53.0738 30.3999 50.4999 30.3999Z" fill="#EE3E54"/>
<path d="M50.4999 33.3999C60.7999 33.3999 69.2999 41.3999 69.9999 51.4999C69.9999 50.9999 70.0999 50.4999 70.0999 49.9999C70.0999 39.1999 61.2999 30.3999 50.4999 30.3999C39.6999 30.3999 30.8999 39.1999 30.8999 49.9999C30.8999 50.4999 30.8999 50.9999 30.9999 51.4999C31.6999 41.3999 40.1999 33.3999 50.4999 33.3999Z" fill="#F06272"/>
<path d="M50.5 30.8C61.1 30.8 69.8 39.4 69.8 50C69.8 60.6 61.2 69.3 50.5 69.3C39.9 69.3 31.3 60.7 31.3 50C31.3 39.4 39.9 30.8 50.5 30.8ZM50.5 30C39.5 30 30.5 39 30.5 50C30.5 61 39.5 70 50.5 70C61.5 70 70.5 61 70.5 50C70.5 39 61.5 30 50.5 30Z" fill="#472B29"/>
<path d="M52.8001 50.0001L58.7001 44.1001C59.0001 43.8001 59.2001 43.4001 59.2001 43.0001C59.2001 42.6001 59.0001 42.2001 58.7001 41.9001C58.1001 41.3001 57.0001 41.3001 56.4001 41.9001L50.5001 47.7001L44.6001 41.8001C44.0001 41.2001 42.9001 41.2001 42.3001 41.8001C41.7001 42.4001 41.7001 43.5001 42.3001 44.1001L48.2001 50.0001L42.3001 55.9001C41.7001 56.5001 41.7001 57.6001 42.3001 58.2001C42.9001 58.8001 44.0001 58.8001 44.6001 58.2001L50.5001 52.3001L56.4001 58.2001C56.7001 58.5001 57.1001 58.7001 57.5001 58.7001C57.9001 58.7001 58.3001 58.5001 58.6001 58.2001C59.2001 57.6001 59.2001 56.5001 58.6001 55.9001L52.8001 50.0001Z" fill="#FDFCEE"/>
<path d="M43.5 59C43 59 42.5 58.8 42.1 58.4C41.3 57.6 41.3 56.4 42.1 55.6L47.7 50L42.1 44.4C41.7 44 41.5 43.5 41.5 43C41.5 42.5 41.7 42 42.1 41.6C42.9 40.8 44.2 40.8 44.9 41.6L50.5 47.2L56.1 41.6C56.9 40.8 58.1 40.8 58.9 41.6C59.3 42 59.5 42.5 59.5 43C59.5 43.5 59.3 44 58.9 44.4L53.3 50L58.9 55.6C59.7 56.4 59.7 57.6 58.9 58.4C58.1 59.2 56.8 59.2 56.1 58.4L50.5 52.8L44.9 58.4C44.5 58.8 44 59 43.5 59ZM43.5 41.7C43.2 41.7 42.9 41.8 42.6 42.1C42.4 42.3 42.2 42.6 42.2 43C42.2 43.4 42.3 43.6 42.6 43.9L48.7 50L42.6 56.1C42.1 56.6 42.1 57.4 42.6 57.9C43.1 58.4 43.9 58.4 44.4 57.9L50.5 51.8L56.6 57.9C57.1 58.4 57.9 58.4 58.4 57.9C58.9 57.4 58.9 56.6 58.4 56.1L52.3 50L58.4 43.9C58.6 43.7 58.8 43.3 58.8 43C58.8 42.7 58.7 42.4 58.4 42.1C57.9 41.6 57.1 41.6 56.6 42.1L50.5 48.2L44.4 42.1C44.1 41.9 43.8 41.7 43.5 41.7Z" fill="#472B29"/>
</svg>
