<svg width="20" height="20" viewBox="0 0 20 20" fill="none" xmlns="http://www.w3.org/2000/svg">
<path d="M19 19H2.6C2.03995 19 1.75992 19 1.54601 18.891C1.35785 18.7951 1.20487 18.6422 1.10899 18.454C1 18.2401 1 17.9601 1 17.4V1M18 13L14.0811 8.81734C13.9326 8.65883 13.8584 8.57957 13.7688 8.5386C13.6897 8.50245 13.6026 8.48753 13.516 8.49534C13.4179 8.50418 13.3215 8.55423 13.1287 8.65433L9.87132 10.3457C9.67854 10.4458 9.58215 10.4958 9.48404 10.5047C9.39744 10.5125 9.31031 10.4976 9.23124 10.4614C9.14165 10.4204 9.06739 10.3412 8.91887 10.1827L5 6" stroke="#030F1A" stroke-width="2" stroke-linecap="round" stroke-linejoin="round"/>
</svg>
