<svg width="85" height="84" viewBox="0 0 85 84" fill="none" xmlns="http://www.w3.org/2000/svg">
<path d="M11.4202 26.0397C12.3481 26.0397 13.1002 25.2875 13.1002 24.3597C13.1002 23.4318 12.3481 22.6797 11.4202 22.6797C10.4924 22.6797 9.74023 23.4318 9.74023 24.3597C9.74023 25.2875 10.4924 26.0397 11.4202 26.0397Z" fill="#78A0CF"/>
<path d="M65.1798 11.7601C65.6438 11.7601 66.0198 11.384 66.0198 10.9201C66.0198 10.4562 65.6438 10.0801 65.1798 10.0801C64.7159 10.0801 64.3398 10.4562 64.3398 10.9201C64.3398 11.384 64.7159 11.7601 65.1798 11.7601Z" fill="#F1BC19"/>
<path d="M42.4999 73.0799C59.6649 73.0799 73.5799 59.1649 73.5799 41.9999C73.5799 24.8349 59.6649 10.9199 42.4999 10.9199C25.3349 10.9199 11.4199 24.8349 11.4199 41.9999C11.4199 59.1649 25.3349 73.0799 42.4999 73.0799Z" fill="#CEE1F4"/>
<path d="M70.2199 15.9602C72.0755 15.9602 73.5799 14.4559 73.5799 12.6002C73.5799 10.7446 72.0755 9.24023 70.2199 9.24023C68.3642 9.24023 66.8599 10.7446 66.8599 12.6002C66.8599 14.4559 68.3642 15.9602 70.2199 15.9602Z" fill="#F1BC19"/>
<path d="M73.5799 21.8405C74.5077 21.8405 75.2599 21.0883 75.2599 20.1605C75.2599 19.2326 74.5077 18.4805 73.5799 18.4805C72.6521 18.4805 71.8999 19.2326 71.8999 20.1605C71.8999 21.0883 72.6521 21.8405 73.5799 21.8405Z" fill="#78A0CF"/>
<path d="M68.5399 65.5202C69.4677 65.5202 70.2199 64.768 70.2199 63.8402C70.2199 62.9123 69.4677 62.1602 68.5399 62.1602C67.612 62.1602 66.8599 62.9123 66.8599 63.8402C66.8599 64.768 67.612 65.5202 68.5399 65.5202Z" fill="#FBCD59"/>
<path d="M13.1002 56.2796C14.9559 56.2796 16.4602 54.7752 16.4602 52.9196C16.4602 51.0639 14.9559 49.5596 13.1002 49.5596C11.2446 49.5596 9.74023 51.0639 9.74023 52.9196C9.74023 54.7752 11.2446 56.2796 13.1002 56.2796Z" fill="#FBCD59"/>
<path d="M21.4998 74.7604C22.4277 74.7604 23.1798 74.0082 23.1798 73.0804C23.1798 72.1526 22.4277 71.4004 21.4998 71.4004C20.572 71.4004 19.8198 72.1526 19.8198 73.0804C19.8198 74.0082 20.572 74.7604 21.4998 74.7604Z" fill="#78A0CF"/>
<path d="M24.4398 25.2C25.5996 25.2 26.5398 24.2598 26.5398 23.1C26.5398 21.9402 25.5996 21 24.4398 21C23.28 21 22.3398 21.9402 22.3398 23.1C22.3398 24.2598 23.28 25.2 24.4398 25.2Z" fill="white"/>
<path d="M20.6598 60.4798C21.1237 60.4798 21.4998 60.1037 21.4998 59.6398C21.4998 59.1759 21.1237 58.7998 20.6598 58.7998C20.1959 58.7998 19.8198 59.1759 19.8198 59.6398C19.8198 60.1037 20.1959 60.4798 20.6598 60.4798Z" fill="#F1BC19"/>
<path d="M69.38 34.4398C69.844 34.4398 70.22 34.0637 70.22 33.5998C70.22 33.1358 69.844 32.7598 69.38 32.7598C68.9161 32.7598 68.54 33.1358 68.54 33.5998C68.54 34.0637 68.9161 34.4398 69.38 34.4398Z" fill="white"/>
<path d="M20.5183 56.5315C19.5304 56.5315 18.7266 55.7276 18.7266 54.7389V45.9038C20.6258 45.619 22.0866 43.9768 22.0866 41.9995C22.0866 40.0221 20.6258 38.3799 18.7266 38.0952V30.0992C18.7266 29.1105 19.5304 28.3066 20.5183 28.3066H64.4788C65.4667 28.3066 66.2706 29.1105 66.2706 30.0992V38.0952C64.3713 38.3799 62.9106 40.0221 62.9106 41.9995C62.9106 43.9768 64.3713 45.619 66.2706 45.9038V54.7398C66.2706 55.7284 65.4667 56.5323 64.4788 56.5323L20.5183 56.5315Z" fill="#F6CCA4"/>
<path d="M64.4794 28.8957C65.143 28.8957 65.6832 29.4358 65.6832 30.1003V37.6191C63.7503 38.1382 62.3232 39.9056 62.3232 42.0006C62.3232 44.0955 63.7503 45.8629 65.6832 46.382V54.7408C65.6832 55.4053 65.143 55.9454 64.4794 55.9454H20.5189C19.8553 55.9454 19.3152 55.4053 19.3152 54.7408V46.382C21.248 45.8629 22.6752 44.0955 22.6752 42.0006C22.6752 39.9056 21.248 38.1382 19.3152 37.6191V30.1003C19.3152 29.4358 19.8553 28.8957 20.5189 28.8957H64.4794ZM64.4794 27.7197H20.5189C19.2051 27.7197 18.1392 28.7857 18.1392 30.0994V38.6397C19.9947 38.6397 21.4992 40.1442 21.4992 41.9997C21.4992 43.8553 19.9947 45.3597 18.1392 45.3597V54.74C18.1392 56.0538 19.2051 57.1197 20.5189 57.1197H64.4786C65.7932 57.1197 66.8592 56.0538 66.8592 54.74V45.3597C65.0036 45.3597 63.4992 43.8553 63.4992 41.9997C63.4992 40.1442 65.0036 38.6397 66.8592 38.6397V30.0994C66.8592 28.7857 65.7932 27.7197 64.4794 27.7197Z" fill="#472B29"/>
<path d="M59.299 34.4398C59.7629 34.4398 60.139 34.0637 60.139 33.5998C60.139 33.1358 59.7629 32.7598 59.299 32.7598C58.8351 32.7598 58.459 33.1358 58.459 33.5998C58.459 34.0637 58.8351 34.4398 59.299 34.4398Z" fill="#472B29"/>
<path d="M59.299 31.0794C59.7629 31.0794 60.139 30.7033 60.139 30.2394C60.139 29.7755 59.7629 29.3994 59.299 29.3994C58.8351 29.3994 58.459 29.7755 58.459 30.2394C58.459 30.7033 58.8351 31.0794 59.299 31.0794Z" fill="#472B29"/>
<path d="M59.299 37.8001C59.7629 37.8001 60.139 37.424 60.139 36.9601C60.139 36.4962 59.7629 36.1201 59.299 36.1201C58.8351 36.1201 58.459 36.4962 58.459 36.9601C58.459 37.424 58.8351 37.8001 59.299 37.8001Z" fill="#472B29"/>
<path d="M59.299 41.1595C59.7629 41.1595 60.139 40.7834 60.139 40.3195C60.139 39.8556 59.7629 39.4795 59.299 39.4795C58.8351 39.4795 58.459 39.8556 58.459 40.3195C58.459 40.7834 58.8351 41.1595 59.299 41.1595Z" fill="#472B29"/>
<path d="M59.299 44.5198C59.7629 44.5198 60.139 44.1438 60.139 43.6798C60.139 43.2159 59.7629 42.8398 59.299 42.8398C58.8351 42.8398 58.459 43.2159 58.459 43.6798C58.459 44.1438 58.8351 44.5198 59.299 44.5198Z" fill="#472B29"/>
<path d="M59.299 47.8802C59.7629 47.8802 60.139 47.5041 60.139 47.0402C60.139 46.5763 59.7629 46.2002 59.299 46.2002C58.8351 46.2002 58.459 46.5763 58.459 47.0402C58.459 47.5041 58.8351 47.8802 59.299 47.8802Z" fill="#472B29"/>
<path d="M59.299 51.2396C59.7629 51.2396 60.139 50.8635 60.139 50.3996C60.139 49.9357 59.7629 49.5596 59.299 49.5596C58.8351 49.5596 58.459 49.9357 58.459 50.3996C58.459 50.8635 58.8351 51.2396 59.299 51.2396Z" fill="#472B29"/>
<path d="M59.299 54.5999C59.7629 54.5999 60.139 54.2238 60.139 53.7599C60.139 53.296 59.7629 52.9199 59.299 52.9199C58.8351 52.9199 58.459 53.296 58.459 53.7599C58.459 54.2238 58.8351 54.5999 59.299 54.5999Z" fill="#472B29"/>
<path d="M56.3759 31.71H44.878C44.762 31.71 44.668 31.616 44.668 31.5C44.668 31.3841 44.762 31.29 44.878 31.29H56.3759C56.4918 31.29 56.5859 31.3841 56.5859 31.5C56.5859 31.616 56.491 31.71 56.3759 31.71Z" fill="#472B29"/>
<path d="M41.59 31.71H32.98C32.8641 31.71 32.77 31.616 32.77 31.5C32.77 31.3841 32.8641 31.29 32.98 31.29H41.59C41.7059 31.29 41.8 31.3841 41.8 31.5C41.8 31.616 41.7059 31.71 41.59 31.71Z" fill="#472B29"/>
<path d="M30.319 31.71H21.919C21.8031 31.71 21.709 31.616 21.709 31.5C21.709 31.3841 21.8031 31.29 21.919 31.29H30.319C30.4349 31.29 30.529 31.3841 30.529 31.5C30.529 31.616 30.4349 31.71 30.319 31.71Z" fill="#472B29"/>
<path d="M21.919 36.9593C21.8031 36.9593 21.709 36.8652 21.709 36.7493V31.5127C21.709 31.3968 21.8031 31.3027 21.919 31.3027C22.0349 31.3027 22.129 31.3968 22.129 31.5127V36.7493C22.129 36.8652 22.0349 36.9593 21.919 36.9593Z" fill="#472B29"/>
<path d="M56.3589 36.75C56.243 36.75 56.1489 36.656 56.1489 36.54V31.5C56.1489 31.3841 56.243 31.29 56.3589 31.29C56.4748 31.29 56.5689 31.3841 56.5689 31.5V36.54C56.5689 36.656 56.4748 36.75 56.3589 36.75Z" fill="#472B29"/>
<path d="M56.3609 53.5352C56.245 53.5352 56.1509 53.4412 56.1509 53.3252V39.918C56.1509 39.8021 56.245 39.708 56.3609 39.708C56.4768 39.708 56.5709 39.8021 56.5709 39.918V53.3261C56.5709 53.442 56.4768 53.5352 56.3609 53.5352Z" fill="#472B29"/>
<path d="M21.919 53.5853C21.8031 53.5853 21.709 53.4912 21.709 53.3753V48.1387C21.709 48.0228 21.8031 47.9287 21.919 47.9287C22.0349 47.9287 22.129 48.0228 22.129 48.1387V53.3753C22.129 53.4912 22.0349 53.5853 21.919 53.5853Z" fill="#472B29"/>
<path d="M56.3602 53.5499H51.4605C51.3446 53.5499 51.2505 53.4558 51.2505 53.3399C51.2505 53.224 51.3446 53.1299 51.4605 53.1299H56.3602C56.4761 53.1299 56.5702 53.224 56.5702 53.3399C56.5702 53.4558 56.4761 53.5499 56.3602 53.5499Z" fill="#472B29"/>
<path d="M48.7303 53.5499H42.2203C42.1043 53.5499 42.0103 53.4558 42.0103 53.3399C42.0103 53.224 42.1043 53.1299 42.2203 53.1299H48.7303C48.8462 53.1299 48.9403 53.224 48.9403 53.3399C48.9403 53.4558 48.8462 53.5499 48.7303 53.5499Z" fill="#472B29"/>
<path d="M39.768 53.5489H21.918C21.8021 53.5489 21.708 53.4548 21.708 53.3389C21.708 53.223 21.8021 53.1289 21.918 53.1289H39.768C39.8839 53.1289 39.978 53.223 39.978 53.3389C39.978 53.4548 39.8839 53.5489 39.768 53.5489Z" fill="#472B29"/>
<path d="M51.3193 36.9601H36.3043C36.0724 36.9601 35.8843 36.772 35.8843 36.5401C35.8843 36.3083 36.0724 36.1201 36.3043 36.1201H51.3193C51.5511 36.1201 51.7393 36.3083 51.7393 36.5401C51.7393 36.772 51.5511 36.9601 51.3193 36.9601Z" fill="#472B29"/>
<path d="M33.5213 36.9601H27.7984C27.5666 36.9601 27.3784 36.772 27.3784 36.5401C27.3784 36.3083 27.5666 36.1201 27.7984 36.1201H33.5213C33.7532 36.1201 33.9413 36.3083 33.9413 36.5401C33.9413 36.772 33.7532 36.9601 33.5213 36.9601Z" fill="#472B29"/>
<path d="M51.3184 41.1593H46.1734C45.9416 41.1593 45.7534 40.9712 45.7534 40.7393C45.7534 40.5075 45.9416 40.3193 46.1734 40.3193H51.3184C51.5503 40.3193 51.7384 40.5075 51.7384 40.7393C51.7384 40.9712 51.5503 41.1593 51.3184 41.1593Z" fill="#472B29"/>
<path d="M43.4434 41.1593H27.7984C27.5666 41.1593 27.3784 40.9712 27.3784 40.7393C27.3784 40.5075 27.5666 40.3193 27.7984 40.3193H43.4434C43.6753 40.3193 43.8634 40.5075 43.8634 40.7393C43.8634 40.9712 43.6753 41.1593 43.4434 41.1593Z" fill="#472B29"/>
<path d="M43.4434 48.7189H27.7984C27.5666 48.7189 27.3784 48.5307 27.3784 48.2989C27.3784 48.0671 27.5666 47.8789 27.7984 47.8789H43.4434C43.6753 47.8789 43.8634 48.0671 43.8634 48.2989C43.8634 48.5307 43.6753 48.7189 43.4434 48.7189Z" fill="#472B29"/>
<path d="M51.32 45.3605H40.085C39.8532 45.3605 39.665 45.1723 39.665 44.9405C39.665 44.7087 39.8532 44.5205 40.085 44.5205H51.32C51.5519 44.5205 51.74 44.7087 51.74 44.9405C51.74 45.1723 51.5519 45.3605 51.32 45.3605Z" fill="#472B29"/>
<path d="M37.3013 45.3605H27.7984C27.5666 45.3605 27.3784 45.1723 27.3784 44.9405C27.3784 44.7087 27.5666 44.5205 27.7984 44.5205H37.3013C37.5332 44.5205 37.7213 44.7087 37.7213 44.9405C37.7213 45.1723 37.5332 45.3605 37.3013 45.3605Z" fill="#472B29"/>
</svg>
