<svg width="90" height="90" viewBox="0 0 90 90" fill="none" xmlns="http://www.w3.org/2000/svg">
<g clip-path="url(#clip0_7049_8316)">
<path d="M88.9252 0H1.07481C0.48121 0 0 0.481212 0 1.07481V88.9252C0 89.5188 0.481212 90 1.07481 90H88.9252C89.5188 90 90 89.5188 90 88.9252V1.07481C90 0.48121 89.5188 0 88.9252 0Z" fill="white"/>
<path d="M10.1226 7.53906H7.53906V10.1226H10.1226V7.53906Z" fill="black"/>
<path d="M12.7061 7.53906H10.1226V10.1226H12.7061V7.53906Z" fill="black"/>
<path d="M15.2896 7.53906H12.7061V10.1226H15.2896V7.53906Z" fill="black"/>
<path d="M17.8731 7.53906H15.2896V10.1226H17.8731V7.53906Z" fill="black"/>
<path d="M20.4566 7.53906H17.8731V10.1226H20.4566V7.53906Z" fill="black"/>
<path d="M23.0401 7.53906H20.4566V10.1226H23.0401V7.53906Z" fill="black"/>
<path d="M25.6236 7.53906H23.0401V10.1226H25.6236V7.53906Z" fill="black"/>
<path d="M30.7906 7.53906H28.2071V10.1226H30.7906V7.53906Z" fill="black"/>
<path d="M38.5411 7.53906H35.9576V10.1226H38.5411V7.53906Z" fill="black"/>
<path d="M41.1246 7.53906H38.5411V10.1226H41.1246V7.53906Z" fill="black"/>
<path d="M43.7081 7.53906H41.1246V10.1226H43.7081V7.53906Z" fill="black"/>
<path d="M56.6255 7.53906H54.0421V10.1226H56.6255V7.53906Z" fill="black"/>
<path d="M66.9595 7.53906H64.376V10.1226H66.9595V7.53906Z" fill="black"/>
<path d="M69.543 7.53906H66.9595V10.1226H69.543V7.53906Z" fill="black"/>
<path d="M72.1265 7.53906H69.543V10.1226H72.1265V7.53906Z" fill="black"/>
<path d="M74.71 7.53906H72.1265V10.1226H74.71V7.53906Z" fill="black"/>
<path d="M77.2935 7.53906H74.71V10.1226H77.2935V7.53906Z" fill="black"/>
<path d="M79.877 7.53906H77.2935V10.1226H79.877V7.53906Z" fill="black"/>
<path d="M82.4605 7.53906H79.877V10.1226H82.4605V7.53906Z" fill="black"/>
<path d="M10.1226 10.1226H7.53906V12.7061H10.1226V10.1226Z" fill="black"/>
<path d="M25.6236 10.1226H23.0401V12.7061H25.6236V10.1226Z" fill="black"/>
<path d="M33.3741 10.1226H30.7906V12.7061H33.3741V10.1226Z" fill="black"/>
<path d="M35.9576 10.1226H33.3741V12.7061H35.9576V10.1226Z" fill="black"/>
<path d="M43.7081 10.1226H41.1246V12.7061H43.7081V10.1226Z" fill="black"/>
<path d="M46.2915 10.1226H43.7081V12.7061H46.2915V10.1226Z" fill="black"/>
<path d="M54.0421 10.1226H51.4585V12.7061H54.0421V10.1226Z" fill="black"/>
<path d="M61.7925 10.1226H59.209V12.7061H61.7925V10.1226Z" fill="black"/>
<path d="M66.9595 10.1226H64.376V12.7061H66.9595V10.1226Z" fill="black"/>
<path d="M82.4605 10.1226H79.877V12.7061H82.4605V10.1226Z" fill="black"/>
<path d="M10.1226 12.7061H7.53906V15.2896H10.1226V12.7061Z" fill="black"/>
<path d="M15.2896 12.7061H12.7061V15.2896H15.2896V12.7061Z" fill="black"/>
<path d="M17.8731 12.7061H15.2896V15.2896H17.8731V12.7061Z" fill="black"/>
<path d="M20.4566 12.7061H17.8731V15.2896H20.4566V12.7061Z" fill="black"/>
<path d="M25.6236 12.7061H23.0401V15.2896H25.6236V12.7061Z" fill="black"/>
<path d="M30.7906 12.7061H28.2071V15.2896H30.7906V12.7061Z" fill="black"/>
<path d="M43.7081 12.7061H41.1246V15.2896H43.7081V12.7061Z" fill="black"/>
<path d="M48.8751 12.7061H46.2915V15.2896H48.8751V12.7061Z" fill="black"/>
<path d="M54.0421 12.7061H51.4585V15.2896H54.0421V12.7061Z" fill="black"/>
<path d="M56.6255 12.7061H54.0421V15.2896H56.6255V12.7061Z" fill="black"/>
<path d="M59.209 12.7061H56.6255V15.2896H59.209V12.7061Z" fill="black"/>
<path d="M61.7925 12.7061H59.209V15.2896H61.7925V12.7061Z" fill="black"/>
<path d="M66.9595 12.7061H64.376V15.2896H66.9595V12.7061Z" fill="black"/>
<path d="M72.1265 12.7061H69.543V15.2896H72.1265V12.7061Z" fill="black"/>
<path d="M74.71 12.7061H72.1265V15.2896H74.71V12.7061Z" fill="black"/>
<path d="M77.2935 12.7061H74.71V15.2896H77.2935V12.7061Z" fill="black"/>
<path d="M82.4605 12.7061H79.877V15.2896H82.4605V12.7061Z" fill="black"/>
<path d="M10.1226 15.2896H7.53906V17.8731H10.1226V15.2896Z" fill="black"/>
<path d="M15.2896 15.2896H12.7061V17.8731H15.2896V15.2896Z" fill="black"/>
<path d="M17.8731 15.2896H15.2896V17.8731H17.8731V15.2896Z" fill="black"/>
<path d="M20.4566 15.2896H17.8731V17.8731H20.4566V15.2896Z" fill="black"/>
<path d="M25.6236 15.2896H23.0401V17.8731H25.6236V15.2896Z" fill="black"/>
<path d="M30.7906 15.2896H28.2071V17.8731H30.7906V15.2896Z" fill="black"/>
<path d="M33.3741 15.2896H30.7906V17.8731H33.3741V15.2896Z" fill="black"/>
<path d="M35.9576 15.2896H33.3741V17.8731H35.9576V15.2896Z" fill="black"/>
<path d="M38.5411 15.2896H35.9576V17.8731H38.5411V15.2896Z" fill="black"/>
<path d="M41.1246 15.2896H38.5411V17.8731H41.1246V15.2896Z" fill="black"/>
<path d="M46.2915 15.2896H43.7081V17.8731H46.2915V15.2896Z" fill="black"/>
<path d="M48.8751 15.2896H46.2915V17.8731H48.8751V15.2896Z" fill="black"/>
<path d="M51.4585 15.2896H48.8751V17.8731H51.4585V15.2896Z" fill="black"/>
<path d="M59.209 15.2896H56.6255V17.8731H59.209V15.2896Z" fill="black"/>
<path d="M66.9595 15.2896H64.376V17.8731H66.9595V15.2896Z" fill="black"/>
<path d="M72.1265 15.2896H69.543V17.8731H72.1265V15.2896Z" fill="black"/>
<path d="M74.71 15.2896H72.1265V17.8731H74.71V15.2896Z" fill="black"/>
<path d="M77.2935 15.2896H74.71V17.8731H77.2935V15.2896Z" fill="black"/>
<path d="M82.4605 15.2896H79.877V17.8731H82.4605V15.2896Z" fill="black"/>
<path d="M10.1226 17.8731H7.53906V20.4566H10.1226V17.8731Z" fill="black"/>
<path d="M15.2896 17.8731H12.7061V20.4566H15.2896V17.8731Z" fill="black"/>
<path d="M17.8731 17.8731H15.2896V20.4566H17.8731V17.8731Z" fill="black"/>
<path d="M20.4566 17.8731H17.8731V20.4566H20.4566V17.8731Z" fill="black"/>
<path d="M25.6236 17.8731H23.0401V20.4566H25.6236V17.8731Z" fill="black"/>
<path d="M33.3741 17.8731H30.7906V20.4566H33.3741V17.8731Z" fill="black"/>
<path d="M35.9576 17.8731H33.3741V20.4566H35.9576V17.8731Z" fill="black"/>
<path d="M48.8751 17.8731H46.2915V20.4566H48.8751V17.8731Z" fill="black"/>
<path d="M54.0421 17.8731H51.4585V20.4566H54.0421V17.8731Z" fill="black"/>
<path d="M66.9595 17.8731H64.376V20.4566H66.9595V17.8731Z" fill="black"/>
<path d="M72.1265 17.8731H69.543V20.4566H72.1265V17.8731Z" fill="black"/>
<path d="M74.71 17.8731H72.1265V20.4566H74.71V17.8731Z" fill="black"/>
<path d="M77.2935 17.8731H74.71V20.4566H77.2935V17.8731Z" fill="black"/>
<path d="M82.4605 17.8731H79.877V20.4566H82.4605V17.8731Z" fill="black"/>
<path d="M10.1226 20.4566H7.53906V23.0401H10.1226V20.4566Z" fill="black"/>
<path d="M25.6236 20.4566H23.0401V23.0401H25.6236V20.4566Z" fill="black"/>
<path d="M30.7906 20.4566H28.2071V23.0401H30.7906V20.4566Z" fill="black"/>
<path d="M38.5411 20.4566H35.9576V23.0401H38.5411V20.4566Z" fill="black"/>
<path d="M41.1246 20.4566H38.5411V23.0401H41.1246V20.4566Z" fill="black"/>
<path d="M48.8751 20.4566H46.2915V23.0401H48.8751V20.4566Z" fill="black"/>
<path d="M56.6255 20.4566H54.0421V23.0401H56.6255V20.4566Z" fill="black"/>
<path d="M66.9595 20.4566H64.376V23.0401H66.9595V20.4566Z" fill="black"/>
<path d="M82.4605 20.4566H79.877V23.0401H82.4605V20.4566Z" fill="black"/>
<path d="M10.1226 23.0401H7.53906V25.6236H10.1226V23.0401Z" fill="black"/>
<path d="M12.7061 23.0401H10.1226V25.6236H12.7061V23.0401Z" fill="black"/>
<path d="M15.2896 23.0401H12.7061V25.6236H15.2896V23.0401Z" fill="black"/>
<path d="M17.8731 23.0401H15.2896V25.6236H17.8731V23.0401Z" fill="black"/>
<path d="M20.4566 23.0401H17.8731V25.6236H20.4566V23.0401Z" fill="black"/>
<path d="M23.0401 23.0401H20.4566V25.6236H23.0401V23.0401Z" fill="black"/>
<path d="M25.6236 23.0401H23.0401V25.6236H25.6236V23.0401Z" fill="black"/>
<path d="M30.7906 23.0401H28.2071V25.6236H30.7906V23.0401Z" fill="black"/>
<path d="M35.9576 23.0401H33.3741V25.6236H35.9576V23.0401Z" fill="black"/>
<path d="M41.1246 23.0401H38.5411V25.6236H41.1246V23.0401Z" fill="black"/>
<path d="M46.2915 23.0401H43.7081V25.6236H46.2915V23.0401Z" fill="black"/>
<path d="M51.4585 23.0401H48.8751V25.6236H51.4585V23.0401Z" fill="black"/>
<path d="M56.6255 23.0401H54.0421V25.6236H56.6255V23.0401Z" fill="black"/>
<path d="M61.7925 23.0401H59.209V25.6236H61.7925V23.0401Z" fill="black"/>
<path d="M66.9595 23.0401H64.376V25.6236H66.9595V23.0401Z" fill="black"/>
<path d="M69.543 23.0401H66.9595V25.6236H69.543V23.0401Z" fill="black"/>
<path d="M72.1265 23.0401H69.543V25.6236H72.1265V23.0401Z" fill="black"/>
<path d="M74.71 23.0401H72.1265V25.6236H74.71V23.0401Z" fill="black"/>
<path d="M77.2935 23.0401H74.71V25.6236H77.2935V23.0401Z" fill="black"/>
<path d="M79.877 23.0401H77.2935V25.6236H79.877V23.0401Z" fill="black"/>
<path d="M82.4605 23.0401H79.877V25.6236H82.4605V23.0401Z" fill="black"/>
<path d="M30.7906 25.6236H28.2071V28.2071H30.7906V25.6236Z" fill="black"/>
<path d="M33.3741 25.6236H30.7906V28.2071H33.3741V25.6236Z" fill="black"/>
<path d="M35.9576 25.6236H33.3741V28.2071H35.9576V25.6236Z" fill="black"/>
<path d="M41.1246 25.6236H38.5411V28.2071H41.1246V25.6236Z" fill="black"/>
<path d="M43.7081 25.6236H41.1246V28.2071H43.7081V25.6236Z" fill="black"/>
<path d="M46.2915 25.6236H43.7081V28.2071H46.2915V25.6236Z" fill="black"/>
<path d="M48.8751 25.6236H46.2915V28.2071H48.8751V25.6236Z" fill="black"/>
<path d="M51.4585 25.6236H48.8751V28.2071H51.4585V25.6236Z" fill="black"/>
<path d="M54.0421 25.6236H51.4585V28.2071H54.0421V25.6236Z" fill="black"/>
<path d="M59.209 25.6236H56.6255V28.2071H59.209V25.6236Z" fill="black"/>
<path d="M61.7925 25.6236H59.209V28.2071H61.7925V25.6236Z" fill="black"/>
<path d="M10.1226 28.2071H7.53906V30.7906H10.1226V28.2071Z" fill="black"/>
<path d="M12.7061 28.2071H10.1226V30.7906H12.7061V28.2071Z" fill="black"/>
<path d="M17.8731 28.2071H15.2896V30.7906H17.8731V28.2071Z" fill="black"/>
<path d="M25.6236 28.2071H23.0401V30.7906H25.6236V28.2071Z" fill="black"/>
<path d="M28.2071 28.2071H25.6236V30.7906H28.2071V28.2071Z" fill="black"/>
<path d="M33.3741 28.2071H30.7906V30.7906H33.3741V28.2071Z" fill="black"/>
<path d="M43.7081 28.2071H41.1246V30.7906H43.7081V28.2071Z" fill="black"/>
<path d="M46.2915 28.2071H43.7081V30.7906H46.2915V28.2071Z" fill="black"/>
<path d="M51.4585 28.2071H48.8751V30.7906H51.4585V28.2071Z" fill="black"/>
<path d="M54.0421 28.2071H51.4585V30.7906H54.0421V28.2071Z" fill="black"/>
<path d="M59.209 28.2071H56.6255V30.7906H59.209V28.2071Z" fill="black"/>
<path d="M61.7925 28.2071H59.209V30.7906H61.7925V28.2071Z" fill="black"/>
<path d="M64.376 28.2071H61.7925V30.7906H64.376V28.2071Z" fill="black"/>
<path d="M66.9595 28.2071H64.376V30.7906H66.9595V28.2071Z" fill="black"/>
<path d="M69.543 28.2071H66.9595V30.7906H69.543V28.2071Z" fill="black"/>
<path d="M74.71 28.2071H72.1265V30.7906H74.71V28.2071Z" fill="black"/>
<path d="M77.2935 28.2071H74.71V30.7906H77.2935V28.2071Z" fill="black"/>
<path d="M82.4605 28.2071H79.877V30.7906H82.4605V28.2071Z" fill="black"/>
<path d="M17.8731 30.7906H15.2896V33.3741H17.8731V30.7906Z" fill="black"/>
<path d="M28.2071 30.7906H25.6236V33.3741H28.2071V30.7906Z" fill="black"/>
<path d="M33.3741 30.7906H30.7906V33.3741H33.3741V30.7906Z" fill="black"/>
<path d="M35.9576 30.7906H33.3741V33.3741H35.9576V30.7906Z" fill="black"/>
<path d="M51.4585 30.7906H48.8751V33.3741H51.4585V30.7906Z" fill="black"/>
<path d="M56.6255 30.7906H54.0421V33.3741H56.6255V30.7906Z" fill="black"/>
<path d="M59.209 30.7906H56.6255V33.3741H59.209V30.7906Z" fill="black"/>
<path d="M69.543 30.7906H66.9595V33.3741H69.543V30.7906Z" fill="black"/>
<path d="M79.877 30.7906H77.2935V33.3741H79.877V30.7906Z" fill="black"/>
<path d="M82.4605 30.7906H79.877V33.3741H82.4605V30.7906Z" fill="black"/>
<path d="M10.1226 33.3741H7.53906V35.9576H10.1226V33.3741Z" fill="black"/>
<path d="M15.2896 33.3741H12.7061V35.9576H15.2896V33.3741Z" fill="black"/>
<path d="M23.0401 33.3741H20.4566V35.9576H23.0401V33.3741Z" fill="black"/>
<path d="M25.6236 33.3741H23.0401V35.9576H25.6236V33.3741Z" fill="black"/>
<path d="M30.7906 33.3741H28.2071V35.9576H30.7906V33.3741Z" fill="black"/>
<path d="M35.9576 33.3741H33.3741V35.9576H35.9576V33.3741Z" fill="black"/>
<path d="M41.1246 33.3741H38.5411V35.9576H41.1246V33.3741Z" fill="black"/>
<path d="M46.2915 33.3741H43.7081V35.9576H46.2915V33.3741Z" fill="black"/>
<path d="M48.8751 33.3741H46.2915V35.9576H48.8751V33.3741Z" fill="black"/>
<path d="M54.0421 33.3741H51.4585V35.9576H54.0421V33.3741Z" fill="black"/>
<path d="M59.209 33.3741H56.6255V35.9576H59.209V33.3741Z" fill="black"/>
<path d="M61.7925 33.3741H59.209V35.9576H61.7925V33.3741Z" fill="black"/>
<path d="M66.9595 33.3741H64.376V35.9576H66.9595V33.3741Z" fill="black"/>
<path d="M72.1265 33.3741H69.543V35.9576H72.1265V33.3741Z" fill="black"/>
<path d="M74.71 33.3741H72.1265V35.9576H74.71V33.3741Z" fill="black"/>
<path d="M79.877 33.3741H77.2935V35.9576H79.877V33.3741Z" fill="black"/>
<path d="M12.7061 35.9576H10.1226V38.5411H12.7061V35.9576Z" fill="black"/>
<path d="M15.2896 35.9576H12.7061V38.5411H15.2896V35.9576Z" fill="black"/>
<path d="M20.4566 35.9576H17.8731V38.5411H20.4566V35.9576Z" fill="black"/>
<path d="M23.0401 35.9576H20.4566V38.5411H23.0401V35.9576Z" fill="black"/>
<path d="M33.3741 35.9576H30.7906V38.5411H33.3741V35.9576Z" fill="black"/>
<path d="M38.5411 35.9576H35.9576V38.5411H38.5411V35.9576Z" fill="black"/>
<path d="M41.1246 35.9576H38.5411V38.5411H41.1246V35.9576Z" fill="black"/>
<path d="M43.7081 35.9576H41.1246V38.5411H43.7081V35.9576Z" fill="black"/>
<path d="M46.2915 35.9576H43.7081V38.5411H46.2915V35.9576Z" fill="black"/>
<path d="M48.8751 35.9576H46.2915V38.5411H48.8751V35.9576Z" fill="black"/>
<path d="M56.6255 35.9576H54.0421V38.5411H56.6255V35.9576Z" fill="black"/>
<path d="M59.209 35.9576H56.6255V38.5411H59.209V35.9576Z" fill="black"/>
<path d="M61.7925 35.9576H59.209V38.5411H61.7925V35.9576Z" fill="black"/>
<path d="M64.376 35.9576H61.7925V38.5411H64.376V35.9576Z" fill="black"/>
<path d="M66.9595 35.9576H64.376V38.5411H66.9595V35.9576Z" fill="black"/>
<path d="M69.543 35.9576H66.9595V38.5411H69.543V35.9576Z" fill="black"/>
<path d="M72.1265 35.9576H69.543V38.5411H72.1265V35.9576Z" fill="black"/>
<path d="M82.4605 35.9576H79.877V38.5411H82.4605V35.9576Z" fill="black"/>
<path d="M15.2896 38.5411H12.7061V41.1246H15.2896V38.5411Z" fill="black"/>
<path d="M25.6236 38.5411H23.0401V41.1246H25.6236V38.5411Z" fill="black"/>
<path d="M28.2071 38.5411H25.6236V41.1246H28.2071V38.5411Z" fill="black"/>
<path d="M38.5411 38.5411H35.9576V41.1246H38.5411V38.5411Z" fill="black"/>
<path d="M43.7081 38.5411H41.1246V41.1246H43.7081V38.5411Z" fill="black"/>
<path d="M46.2915 38.5411H43.7081V41.1246H46.2915V38.5411Z" fill="black"/>
<path d="M48.8751 38.5411H46.2915V41.1246H48.8751V38.5411Z" fill="black"/>
<path d="M51.4585 38.5411H48.8751V41.1246H51.4585V38.5411Z" fill="black"/>
<path d="M54.0421 38.5411H51.4585V41.1246H54.0421V38.5411Z" fill="black"/>
<path d="M59.209 38.5411H56.6255V41.1246H59.209V38.5411Z" fill="black"/>
<path d="M61.7925 38.5411H59.209V41.1246H61.7925V38.5411Z" fill="black"/>
<path d="M64.376 38.5411H61.7925V41.1246H64.376V38.5411Z" fill="black"/>
<path d="M69.543 38.5411H66.9595V41.1246H69.543V38.5411Z" fill="black"/>
<path d="M72.1265 38.5411H69.543V41.1246H72.1265V38.5411Z" fill="black"/>
<path d="M74.71 38.5411H72.1265V41.1246H74.71V38.5411Z" fill="black"/>
<path d="M77.2935 38.5411H74.71V41.1246H77.2935V38.5411Z" fill="black"/>
<path d="M10.1226 41.1246H7.53906V43.7081H10.1226V41.1246Z" fill="black"/>
<path d="M12.7061 41.1246H10.1226V43.7081H12.7061V41.1246Z" fill="black"/>
<path d="M23.0401 41.1246H20.4566V43.7081H23.0401V41.1246Z" fill="black"/>
<path d="M30.7906 41.1246H28.2071V43.7081H30.7906V41.1246Z" fill="black"/>
<path d="M33.3741 41.1246H30.7906V43.7081H33.3741V41.1246Z" fill="black"/>
<path d="M35.9576 41.1246H33.3741V43.7081H35.9576V41.1246Z" fill="black"/>
<path d="M46.2915 41.1246H43.7081V43.7081H46.2915V41.1246Z" fill="black"/>
<path d="M56.6255 41.1246H54.0421V43.7081H56.6255V41.1246Z" fill="black"/>
<path d="M59.209 41.1246H56.6255V43.7081H59.209V41.1246Z" fill="black"/>
<path d="M61.7925 41.1246H59.209V43.7081H61.7925V41.1246Z" fill="black"/>
<path d="M69.543 41.1246H66.9595V43.7081H69.543V41.1246Z" fill="black"/>
<path d="M82.4605 41.1246H79.877V43.7081H82.4605V41.1246Z" fill="black"/>
<path d="M10.1226 43.7081H7.53906V46.2915H10.1226V43.7081Z" fill="black"/>
<path d="M17.8731 43.7081H15.2896V46.2915H17.8731V43.7081Z" fill="black"/>
<path d="M20.4566 43.7081H17.8731V46.2915H20.4566V43.7081Z" fill="black"/>
<path d="M25.6236 43.7081H23.0401V46.2915H25.6236V43.7081Z" fill="black"/>
<path d="M33.3741 43.7081H30.7906V46.2915H33.3741V43.7081Z" fill="black"/>
<path d="M41.1246 43.7081H38.5411V46.2915H41.1246V43.7081Z" fill="black"/>
<path d="M43.7081 43.7081H41.1246V46.2915H43.7081V43.7081Z" fill="black"/>
<path d="M48.8751 43.7081H46.2915V46.2915H48.8751V43.7081Z" fill="black"/>
<path d="M51.4585 43.7081H48.8751V46.2915H51.4585V43.7081Z" fill="black"/>
<path d="M54.0421 43.7081H51.4585V46.2915H54.0421V43.7081Z" fill="black"/>
<path d="M56.6255 43.7081H54.0421V46.2915H56.6255V43.7081Z" fill="black"/>
<path d="M59.209 43.7081H56.6255V46.2915H59.209V43.7081Z" fill="black"/>
<path d="M61.7925 43.7081H59.209V46.2915H61.7925V43.7081Z" fill="black"/>
<path d="M66.9595 43.7081H64.376V46.2915H66.9595V43.7081Z" fill="black"/>
<path d="M69.543 43.7081H66.9595V46.2915H69.543V43.7081Z" fill="black"/>
<path d="M82.4605 43.7081H79.877V46.2915H82.4605V43.7081Z" fill="black"/>
<path d="M10.1226 46.2915H7.53906V48.8751H10.1226V46.2915Z" fill="black"/>
<path d="M17.8731 46.2915H15.2896V48.8751H17.8731V46.2915Z" fill="black"/>
<path d="M23.0401 46.2915H20.4566V48.8751H23.0401V46.2915Z" fill="black"/>
<path d="M28.2071 46.2915H25.6236V48.8751H28.2071V46.2915Z" fill="black"/>
<path d="M30.7906 46.2915H28.2071V48.8751H30.7906V46.2915Z" fill="black"/>
<path d="M33.3741 46.2915H30.7906V48.8751H33.3741V46.2915Z" fill="black"/>
<path d="M41.1246 46.2915H38.5411V48.8751H41.1246V46.2915Z" fill="black"/>
<path d="M46.2915 46.2915H43.7081V48.8751H46.2915V46.2915Z" fill="black"/>
<path d="M51.4585 46.2915H48.8751V48.8751H51.4585V46.2915Z" fill="black"/>
<path d="M56.6255 46.2915H54.0421V48.8751H56.6255V46.2915Z" fill="black"/>
<path d="M64.376 46.2915H61.7925V48.8751H64.376V46.2915Z" fill="black"/>
<path d="M66.9595 46.2915H64.376V48.8751H66.9595V46.2915Z" fill="black"/>
<path d="M69.543 46.2915H66.9595V48.8751H69.543V46.2915Z" fill="black"/>
<path d="M79.877 46.2915H77.2935V48.8751H79.877V46.2915Z" fill="black"/>
<path d="M12.7061 48.8751H10.1226V51.4585H12.7061V48.8751Z" fill="black"/>
<path d="M15.2896 48.8751H12.7061V51.4585H15.2896V48.8751Z" fill="black"/>
<path d="M20.4566 48.8751H17.8731V51.4585H20.4566V48.8751Z" fill="black"/>
<path d="M23.0401 48.8751H20.4566V51.4585H23.0401V48.8751Z" fill="black"/>
<path d="M25.6236 48.8751H23.0401V51.4585H25.6236V48.8751Z" fill="black"/>
<path d="M28.2071 48.8751H25.6236V51.4585H28.2071V48.8751Z" fill="black"/>
<path d="M35.9576 48.8751H33.3741V51.4585H35.9576V48.8751Z" fill="black"/>
<path d="M38.5411 48.8751H35.9576V51.4585H38.5411V48.8751Z" fill="black"/>
<path d="M43.7081 48.8751H41.1246V51.4585H43.7081V48.8751Z" fill="black"/>
<path d="M46.2915 48.8751H43.7081V51.4585H46.2915V48.8751Z" fill="black"/>
<path d="M48.8751 48.8751H46.2915V51.4585H48.8751V48.8751Z" fill="black"/>
<path d="M51.4585 48.8751H48.8751V51.4585H51.4585V48.8751Z" fill="black"/>
<path d="M54.0421 48.8751H51.4585V51.4585H54.0421V48.8751Z" fill="black"/>
<path d="M56.6255 48.8751H54.0421V51.4585H56.6255V48.8751Z" fill="black"/>
<path d="M61.7925 48.8751H59.209V51.4585H61.7925V48.8751Z" fill="black"/>
<path d="M64.376 48.8751H61.7925V51.4585H64.376V48.8751Z" fill="black"/>
<path d="M72.1265 48.8751H69.543V51.4585H72.1265V48.8751Z" fill="black"/>
<path d="M12.7061 51.4585H10.1226V54.0421H12.7061V51.4585Z" fill="black"/>
<path d="M17.8731 51.4585H15.2896V54.0421H17.8731V51.4585Z" fill="black"/>
<path d="M23.0401 51.4585H20.4566V54.0421H23.0401V51.4585Z" fill="black"/>
<path d="M28.2071 51.4585H25.6236V54.0421H28.2071V51.4585Z" fill="black"/>
<path d="M33.3741 51.4585H30.7906V54.0421H33.3741V51.4585Z" fill="black"/>
<path d="M38.5411 51.4585H35.9576V54.0421H38.5411V51.4585Z" fill="black"/>
<path d="M43.7081 51.4585H41.1246V54.0421H43.7081V51.4585Z" fill="black"/>
<path d="M51.4585 51.4585H48.8751V54.0421H51.4585V51.4585Z" fill="black"/>
<path d="M54.0421 51.4585H51.4585V54.0421H54.0421V51.4585Z" fill="black"/>
<path d="M56.6255 51.4585H54.0421V54.0421H56.6255V51.4585Z" fill="black"/>
<path d="M66.9595 51.4585H64.376V54.0421H66.9595V51.4585Z" fill="black"/>
<path d="M77.2935 51.4585H74.71V54.0421H77.2935V51.4585Z" fill="black"/>
<path d="M79.877 51.4585H77.2935V54.0421H79.877V51.4585Z" fill="black"/>
<path d="M82.4605 51.4585H79.877V54.0421H82.4605V51.4585Z" fill="black"/>
<path d="M17.8731 54.0421H15.2896V56.6255H17.8731V54.0421Z" fill="black"/>
<path d="M23.0401 54.0421H20.4566V56.6255H23.0401V54.0421Z" fill="black"/>
<path d="M25.6236 54.0421H23.0401V56.6255H25.6236V54.0421Z" fill="black"/>
<path d="M28.2071 54.0421H25.6236V56.6255H28.2071V54.0421Z" fill="black"/>
<path d="M33.3741 54.0421H30.7906V56.6255H33.3741V54.0421Z" fill="black"/>
<path d="M35.9576 54.0421H33.3741V56.6255H35.9576V54.0421Z" fill="black"/>
<path d="M54.0421 54.0421H51.4585V56.6255H54.0421V54.0421Z" fill="black"/>
<path d="M61.7925 54.0421H59.209V56.6255H61.7925V54.0421Z" fill="black"/>
<path d="M64.376 54.0421H61.7925V56.6255H64.376V54.0421Z" fill="black"/>
<path d="M69.543 54.0421H66.9595V56.6255H69.543V54.0421Z" fill="black"/>
<path d="M72.1265 54.0421H69.543V56.6255H72.1265V54.0421Z" fill="black"/>
<path d="M74.71 54.0421H72.1265V56.6255H74.71V54.0421Z" fill="black"/>
<path d="M77.2935 54.0421H74.71V56.6255H77.2935V54.0421Z" fill="black"/>
<path d="M79.877 54.0421H77.2935V56.6255H79.877V54.0421Z" fill="black"/>
<path d="M82.4605 54.0421H79.877V56.6255H82.4605V54.0421Z" fill="black"/>
<path d="M10.1226 56.6255H7.53906V59.209H10.1226V56.6255Z" fill="black"/>
<path d="M17.8731 56.6255H15.2896V59.209H17.8731V56.6255Z" fill="black"/>
<path d="M20.4566 56.6255H17.8731V59.209H20.4566V56.6255Z" fill="black"/>
<path d="M23.0401 56.6255H20.4566V59.209H23.0401V56.6255Z" fill="black"/>
<path d="M33.3741 56.6255H30.7906V59.209H33.3741V56.6255Z" fill="black"/>
<path d="M43.7081 56.6255H41.1246V59.209H43.7081V56.6255Z" fill="black"/>
<path d="M46.2915 56.6255H43.7081V59.209H46.2915V56.6255Z" fill="black"/>
<path d="M48.8751 56.6255H46.2915V59.209H48.8751V56.6255Z" fill="black"/>
<path d="M51.4585 56.6255H48.8751V59.209H51.4585V56.6255Z" fill="black"/>
<path d="M66.9595 56.6255H64.376V59.209H66.9595V56.6255Z" fill="black"/>
<path d="M74.71 56.6255H72.1265V59.209H74.71V56.6255Z" fill="black"/>
<path d="M82.4605 56.6255H79.877V59.209H82.4605V56.6255Z" fill="black"/>
<path d="M10.1226 59.209H7.53906V61.7925H10.1226V59.209Z" fill="black"/>
<path d="M15.2896 59.209H12.7061V61.7925H15.2896V59.209Z" fill="black"/>
<path d="M25.6236 59.209H23.0401V61.7925H25.6236V59.209Z" fill="black"/>
<path d="M28.2071 59.209H25.6236V61.7925H28.2071V59.209Z" fill="black"/>
<path d="M33.3741 59.209H30.7906V61.7925H33.3741V59.209Z" fill="black"/>
<path d="M41.1246 59.209H38.5411V61.7925H41.1246V59.209Z" fill="black"/>
<path d="M46.2915 59.209H43.7081V61.7925H46.2915V59.209Z" fill="black"/>
<path d="M48.8751 59.209H46.2915V61.7925H48.8751V59.209Z" fill="black"/>
<path d="M51.4585 59.209H48.8751V61.7925H51.4585V59.209Z" fill="black"/>
<path d="M56.6255 59.209H54.0421V61.7925H56.6255V59.209Z" fill="black"/>
<path d="M61.7925 59.209H59.209V61.7925H61.7925V59.209Z" fill="black"/>
<path d="M64.376 59.209H61.7925V61.7925H64.376V59.209Z" fill="black"/>
<path d="M66.9595 59.209H64.376V61.7925H66.9595V59.209Z" fill="black"/>
<path d="M69.543 59.209H66.9595V61.7925H69.543V59.209Z" fill="black"/>
<path d="M72.1265 59.209H69.543V61.7925H72.1265V59.209Z" fill="black"/>
<path d="M77.2935 59.209H74.71V61.7925H77.2935V59.209Z" fill="black"/>
<path d="M79.877 59.209H77.2935V61.7925H79.877V59.209Z" fill="black"/>
<path d="M82.4605 59.209H79.877V61.7925H82.4605V59.209Z" fill="black"/>
<path d="M33.3741 61.7925H30.7906V64.376H33.3741V61.7925Z" fill="black"/>
<path d="M35.9576 61.7925H33.3741V64.376H35.9576V61.7925Z" fill="black"/>
<path d="M38.5411 61.7925H35.9576V64.376H38.5411V61.7925Z" fill="black"/>
<path d="M46.2915 61.7925H43.7081V64.376H46.2915V61.7925Z" fill="black"/>
<path d="M48.8751 61.7925H46.2915V64.376H48.8751V61.7925Z" fill="black"/>
<path d="M61.7925 61.7925H59.209V64.376H61.7925V61.7925Z" fill="black"/>
<path d="M72.1265 61.7925H69.543V64.376H72.1265V61.7925Z" fill="black"/>
<path d="M74.71 61.7925H72.1265V64.376H74.71V61.7925Z" fill="black"/>
<path d="M79.877 61.7925H77.2935V64.376H79.877V61.7925Z" fill="black"/>
<path d="M82.4605 61.7925H79.877V64.376H82.4605V61.7925Z" fill="black"/>
<path d="M10.1226 64.376H7.53906V66.9595H10.1226V64.376Z" fill="black"/>
<path d="M12.7061 64.376H10.1226V66.9595H12.7061V64.376Z" fill="black"/>
<path d="M15.2896 64.376H12.7061V66.9595H15.2896V64.376Z" fill="black"/>
<path d="M17.8731 64.376H15.2896V66.9595H17.8731V64.376Z" fill="black"/>
<path d="M20.4566 64.376H17.8731V66.9595H20.4566V64.376Z" fill="black"/>
<path d="M23.0401 64.376H20.4566V66.9595H23.0401V64.376Z" fill="black"/>
<path d="M25.6236 64.376H23.0401V66.9595H25.6236V64.376Z" fill="black"/>
<path d="M30.7906 64.376H28.2071V66.9595H30.7906V64.376Z" fill="black"/>
<path d="M33.3741 64.376H30.7906V66.9595H33.3741V64.376Z" fill="black"/>
<path d="M38.5411 64.376H35.9576V66.9595H38.5411V64.376Z" fill="black"/>
<path d="M43.7081 64.376H41.1246V66.9595H43.7081V64.376Z" fill="black"/>
<path d="M56.6255 64.376H54.0421V66.9595H56.6255V64.376Z" fill="black"/>
<path d="M59.209 64.376H56.6255V66.9595H59.209V64.376Z" fill="black"/>
<path d="M61.7925 64.376H59.209V66.9595H61.7925V64.376Z" fill="black"/>
<path d="M66.9595 64.376H64.376V66.9595H66.9595V64.376Z" fill="black"/>
<path d="M72.1265 64.376H69.543V66.9595H72.1265V64.376Z" fill="black"/>
<path d="M82.4605 64.376H79.877V66.9595H82.4605V64.376Z" fill="black"/>
<path d="M10.1226 66.9595H7.53906V69.543H10.1226V66.9595Z" fill="black"/>
<path d="M25.6236 66.9595H23.0401V69.543H25.6236V66.9595Z" fill="black"/>
<path d="M33.3741 66.9595H30.7906V69.543H33.3741V66.9595Z" fill="black"/>
<path d="M35.9576 66.9595H33.3741V69.543H35.9576V66.9595Z" fill="black"/>
<path d="M38.5411 66.9595H35.9576V69.543H38.5411V66.9595Z" fill="black"/>
<path d="M41.1246 66.9595H38.5411V69.543H41.1246V66.9595Z" fill="black"/>
<path d="M51.4585 66.9595H48.8751V69.543H51.4585V66.9595Z" fill="black"/>
<path d="M54.0421 66.9595H51.4585V69.543H54.0421V66.9595Z" fill="black"/>
<path d="M56.6255 66.9595H54.0421V69.543H56.6255V66.9595Z" fill="black"/>
<path d="M61.7925 66.9595H59.209V69.543H61.7925V66.9595Z" fill="black"/>
<path d="M72.1265 66.9595H69.543V69.543H72.1265V66.9595Z" fill="black"/>
<path d="M77.2935 66.9595H74.71V69.543H77.2935V66.9595Z" fill="black"/>
<path d="M82.4605 66.9595H79.877V69.543H82.4605V66.9595Z" fill="black"/>
<path d="M10.1226 69.543H7.53906V72.1265H10.1226V69.543Z" fill="black"/>
<path d="M15.2896 69.543H12.7061V72.1265H15.2896V69.543Z" fill="black"/>
<path d="M17.8731 69.543H15.2896V72.1265H17.8731V69.543Z" fill="black"/>
<path d="M20.4566 69.543H17.8731V72.1265H20.4566V69.543Z" fill="black"/>
<path d="M25.6236 69.543H23.0401V72.1265H25.6236V69.543Z" fill="black"/>
<path d="M33.3741 69.543H30.7906V72.1265H33.3741V69.543Z" fill="black"/>
<path d="M46.2915 69.543H43.7081V72.1265H46.2915V69.543Z" fill="black"/>
<path d="M48.8751 69.543H46.2915V72.1265H48.8751V69.543Z" fill="black"/>
<path d="M51.4585 69.543H48.8751V72.1265H51.4585V69.543Z" fill="black"/>
<path d="M56.6255 69.543H54.0421V72.1265H56.6255V69.543Z" fill="black"/>
<path d="M61.7925 69.543H59.209V72.1265H61.7925V69.543Z" fill="black"/>
<path d="M64.376 69.543H61.7925V72.1265H64.376V69.543Z" fill="black"/>
<path d="M66.9595 69.543H64.376V72.1265H66.9595V69.543Z" fill="black"/>
<path d="M69.543 69.543H66.9595V72.1265H69.543V69.543Z" fill="black"/>
<path d="M72.1265 69.543H69.543V72.1265H72.1265V69.543Z" fill="black"/>
<path d="M74.71 69.543H72.1265V72.1265H74.71V69.543Z" fill="black"/>
<path d="M79.877 69.543H77.2935V72.1265H79.877V69.543Z" fill="black"/>
<path d="M82.4605 69.543H79.877V72.1265H82.4605V69.543Z" fill="black"/>
<path d="M10.1226 72.1265H7.53906V74.71H10.1226V72.1265Z" fill="black"/>
<path d="M15.2896 72.1265H12.7061V74.71H15.2896V72.1265Z" fill="black"/>
<path d="M17.8731 72.1265H15.2896V74.71H17.8731V72.1265Z" fill="black"/>
<path d="M20.4566 72.1265H17.8731V74.71H20.4566V72.1265Z" fill="black"/>
<path d="M25.6236 72.1265H23.0401V74.71H25.6236V72.1265Z" fill="black"/>
<path d="M30.7906 72.1265H28.2071V74.71H30.7906V72.1265Z" fill="black"/>
<path d="M41.1246 72.1265H38.5411V74.71H41.1246V72.1265Z" fill="black"/>
<path d="M51.4585 72.1265H48.8751V74.71H51.4585V72.1265Z" fill="black"/>
<path d="M54.0421 72.1265H51.4585V74.71H54.0421V72.1265Z" fill="black"/>
<path d="M61.7925 72.1265H59.209V74.71H61.7925V72.1265Z" fill="black"/>
<path d="M64.376 72.1265H61.7925V74.71H64.376V72.1265Z" fill="black"/>
<path d="M66.9595 72.1265H64.376V74.71H66.9595V72.1265Z" fill="black"/>
<path d="M69.543 72.1265H66.9595V74.71H69.543V72.1265Z" fill="black"/>
<path d="M74.71 72.1265H72.1265V74.71H74.71V72.1265Z" fill="black"/>
<path d="M79.877 72.1265H77.2935V74.71H79.877V72.1265Z" fill="black"/>
<path d="M10.1226 74.71H7.53906V77.2935H10.1226V74.71Z" fill="black"/>
<path d="M15.2896 74.71H12.7061V77.2935H15.2896V74.71Z" fill="black"/>
<path d="M17.8731 74.71H15.2896V77.2935H17.8731V74.71Z" fill="black"/>
<path d="M20.4566 74.71H17.8731V77.2935H20.4566V74.71Z" fill="black"/>
<path d="M25.6236 74.71H23.0401V77.2935H25.6236V74.71Z" fill="black"/>
<path d="M35.9576 74.71H33.3741V77.2935H35.9576V74.71Z" fill="black"/>
<path d="M41.1246 74.71H38.5411V77.2935H41.1246V74.71Z" fill="black"/>
<path d="M43.7081 74.71H41.1246V77.2935H43.7081V74.71Z" fill="black"/>
<path d="M46.2915 74.71H43.7081V77.2935H46.2915V74.71Z" fill="black"/>
<path d="M54.0421 74.71H51.4585V77.2935H54.0421V74.71Z" fill="black"/>
<path d="M56.6255 74.71H54.0421V77.2935H56.6255V74.71Z" fill="black"/>
<path d="M59.209 74.71H56.6255V77.2935H59.209V74.71Z" fill="black"/>
<path d="M61.7925 74.71H59.209V77.2935H61.7925V74.71Z" fill="black"/>
<path d="M64.376 74.71H61.7925V77.2935H64.376V74.71Z" fill="black"/>
<path d="M72.1265 74.71H69.543V77.2935H72.1265V74.71Z" fill="black"/>
<path d="M77.2935 74.71H74.71V77.2935H77.2935V74.71Z" fill="black"/>
<path d="M10.1226 77.2935H7.53906V79.877H10.1226V77.2935Z" fill="black"/>
<path d="M25.6236 77.2935H23.0401V79.877H25.6236V77.2935Z" fill="black"/>
<path d="M30.7906 77.2935H28.2071V79.877H30.7906V77.2935Z" fill="black"/>
<path d="M35.9576 77.2935H33.3741V79.877H35.9576V77.2935Z" fill="black"/>
<path d="M43.7081 77.2935H41.1246V79.877H43.7081V77.2935Z" fill="black"/>
<path d="M46.2915 77.2935H43.7081V79.877H46.2915V77.2935Z" fill="black"/>
<path d="M48.8751 77.2935H46.2915V79.877H48.8751V77.2935Z" fill="black"/>
<path d="M51.4585 77.2935H48.8751V79.877H51.4585V77.2935Z" fill="black"/>
<path d="M54.0421 77.2935H51.4585V79.877H54.0421V77.2935Z" fill="black"/>
<path d="M64.376 77.2935H61.7925V79.877H64.376V77.2935Z" fill="black"/>
<path d="M66.9595 77.2935H64.376V79.877H66.9595V77.2935Z" fill="black"/>
<path d="M72.1265 77.2935H69.543V79.877H72.1265V77.2935Z" fill="black"/>
<path d="M74.71 77.2935H72.1265V79.877H74.71V77.2935Z" fill="black"/>
<path d="M79.877 77.2935H77.2935V79.877H79.877V77.2935Z" fill="black"/>
<path d="M82.4605 77.2935H79.877V79.877H82.4605V77.2935Z" fill="black"/>
<path d="M10.1226 79.877H7.53906V82.4605H10.1226V79.877Z" fill="black"/>
<path d="M12.7061 79.877H10.1226V82.4605H12.7061V79.877Z" fill="black"/>
<path d="M15.2896 79.877H12.7061V82.4605H15.2896V79.877Z" fill="black"/>
<path d="M17.8731 79.877H15.2896V82.4605H17.8731V79.877Z" fill="black"/>
<path d="M20.4566 79.877H17.8731V82.4605H20.4566V79.877Z" fill="black"/>
<path d="M23.0401 79.877H20.4566V82.4605H23.0401V79.877Z" fill="black"/>
<path d="M25.6236 79.877H23.0401V82.4605H25.6236V79.877Z" fill="black"/>
<path d="M30.7906 79.877H28.2071V82.4605H30.7906V79.877Z" fill="black"/>
<path d="M33.3741 79.877H30.7906V82.4605H33.3741V79.877Z" fill="black"/>
<path d="M38.5411 79.877H35.9576V82.4605H38.5411V79.877Z" fill="black"/>
<path d="M43.7081 79.877H41.1246V82.4605H43.7081V79.877Z" fill="black"/>
<path d="M46.2915 79.877H43.7081V82.4605H46.2915V79.877Z" fill="black"/>
<path d="M64.376 79.877H61.7925V82.4605H64.376V79.877Z" fill="black"/>
<path d="M69.543 79.877H66.9595V82.4605H69.543V79.877Z" fill="black"/>
<path d="M72.1265 79.877H69.543V82.4605H72.1265V79.877Z" fill="black"/>
<path d="M77.2935 79.877H74.71V82.4605H77.2935V79.877Z" fill="black"/>
<g filter="url(#filter0_b_7049_8316)">
<rect x="0.743652" y="44.6279" width="89.2562" height="44.6281" fill="white" fill-opacity="0.8"/>
</g>
<path d="M13.1603 53.5068V52.2408L11.7563 49.5468H12.7883L13.5803 51.4548H13.6043L14.3963 49.5468H15.4163L14.0243 52.2348V53.5068H13.1603ZM16.7777 53.5908C16.4697 53.5908 16.1957 53.5288 15.9557 53.4048C15.7197 53.2808 15.5337 53.0968 15.3977 52.8528C15.2617 52.6048 15.1937 52.2968 15.1937 51.9288C15.1937 51.5528 15.2617 51.2428 15.3977 50.9988C15.5377 50.7548 15.7277 50.5728 15.9677 50.4528C16.2077 50.3328 16.4797 50.2728 16.7837 50.2728C17.0917 50.2728 17.3657 50.3348 17.6057 50.4588C17.8457 50.5828 18.0317 50.7668 18.1637 51.0108C18.2997 51.2548 18.3677 51.5628 18.3677 51.9348C18.3677 52.3108 18.2977 52.6228 18.1577 52.8708C18.0217 53.1148 17.8337 53.2968 17.5937 53.4168C17.3537 53.5328 17.0817 53.5908 16.7777 53.5908ZM16.8077 52.9488C16.9037 52.9488 16.9937 52.9308 17.0777 52.8948C17.1617 52.8588 17.2337 52.8028 17.2937 52.7268C17.3577 52.6508 17.4077 52.5508 17.4437 52.4268C17.4797 52.3028 17.4977 52.1548 17.4977 51.9828C17.4977 51.7988 17.4777 51.6428 17.4377 51.5148C17.4017 51.3828 17.3497 51.2748 17.2817 51.1908C17.2137 51.1068 17.1337 51.0448 17.0417 51.0048C16.9537 50.9648 16.8577 50.9448 16.7537 50.9448C16.6577 50.9448 16.5677 50.9628 16.4837 50.9988C16.4037 51.0348 16.3317 51.0928 16.2677 51.1728C16.2037 51.2488 16.1537 51.3488 16.1177 51.4728C16.0817 51.5928 16.0637 51.7408 16.0637 51.9168C16.0637 52.0968 16.0817 52.2528 16.1177 52.3848C16.1577 52.5168 16.2117 52.6248 16.2797 52.7088C16.3477 52.7888 16.4257 52.8488 16.5137 52.8888C16.6057 52.9288 16.7037 52.9488 16.8077 52.9488ZM19.9383 53.5908C19.7863 53.5908 19.6523 53.5688 19.5363 53.5248C19.4203 53.4848 19.3183 53.4228 19.2303 53.3388C19.1463 53.2548 19.0763 53.1528 19.0203 53.0328C18.9643 52.9088 18.9223 52.7668 18.8943 52.6068C18.8703 52.4428 18.8583 52.2628 18.8583 52.0668V50.3568H19.7223V51.9108C19.7223 51.9988 19.7243 52.0988 19.7283 52.2108C19.7363 52.3188 19.7563 52.4228 19.7883 52.5228C19.8203 52.6188 19.8723 52.6988 19.9443 52.7628C20.0163 52.8268 20.1163 52.8588 20.2443 52.8588C20.3523 52.8588 20.4483 52.8328 20.5323 52.7808C20.6163 52.7248 20.6863 52.6448 20.7423 52.5408C20.8023 52.4368 20.8483 52.3128 20.8803 52.1688C20.9123 52.0248 20.9303 51.8628 20.9343 51.6828V50.3568H21.7983V52.1568V53.5068H21.0783L21.0903 52.4268H21.0003C20.9523 52.6988 20.8823 52.9208 20.7903 53.0928C20.7023 53.2648 20.5883 53.3908 20.4483 53.4708C20.3083 53.5508 20.1383 53.5908 19.9383 53.5908ZM23.8046 53.5068V51.6648V49.2588H24.6686V50.1768C24.6686 50.2608 24.6646 50.3548 24.6566 50.4588C24.6486 50.5628 24.6366 50.6708 24.6206 50.7828C24.6086 50.8948 24.5946 51.0068 24.5786 51.1188C24.5626 51.2308 24.5466 51.3348 24.5306 51.4308H24.6386C24.6866 51.1788 24.7546 50.9668 24.8426 50.7948C24.9306 50.6228 25.0466 50.4928 25.1906 50.4048C25.3346 50.3168 25.5106 50.2728 25.7186 50.2728C25.9066 50.2728 26.0646 50.3068 26.1926 50.3748C26.3206 50.4388 26.4226 50.5268 26.4986 50.6388C26.5786 50.7468 26.6386 50.8708 26.6786 51.0108C26.7186 51.1468 26.7466 51.2888 26.7626 51.4368C26.7786 51.5808 26.7866 51.7188 26.7866 51.8508V53.5068H25.9166V51.9408C25.9166 51.8128 25.9086 51.6928 25.8926 51.5808C25.8806 51.4648 25.8546 51.3648 25.8146 51.2808C25.7746 51.1968 25.7186 51.1308 25.6466 51.0828C25.5786 51.0308 25.4906 51.0048 25.3826 51.0048C25.2306 51.0048 25.1026 51.0548 24.9986 51.1548C24.8946 51.2508 24.8146 51.3888 24.7586 51.5688C24.7026 51.7488 24.6706 51.9608 24.6626 52.2048V53.5068H23.8046ZM28.1937 53.5908C28.0217 53.5908 27.8657 53.5588 27.7257 53.4948C27.5897 53.4308 27.4797 53.3348 27.3957 53.2068C27.3157 53.0748 27.2757 52.9128 27.2757 52.7208C27.2757 52.5088 27.3197 52.3408 27.4077 52.2168C27.4997 52.0888 27.6177 51.9908 27.7617 51.9228C27.9097 51.8508 28.0657 51.7988 28.2297 51.7668C28.3977 51.7348 28.5577 51.7068 28.7097 51.6828C28.8697 51.6588 28.9937 51.6368 29.0817 51.6168C29.1737 51.5928 29.2377 51.5608 29.2737 51.5208C29.3137 51.4808 29.3337 51.4268 29.3337 51.3588C29.3337 51.2748 29.3137 51.2028 29.2737 51.1428C29.2337 51.0828 29.1757 51.0348 29.0997 50.9988C29.0277 50.9628 28.9357 50.9448 28.8237 50.9448C28.7157 50.9448 28.6137 50.9648 28.5177 51.0048C28.4217 51.0408 28.3397 51.1008 28.2717 51.1848C28.2037 51.2688 28.1597 51.3768 28.1397 51.5088L27.3717 51.3408C27.4037 51.1488 27.4637 50.9868 27.5517 50.8548C27.6397 50.7188 27.7477 50.6088 27.8757 50.5248C28.0077 50.4368 28.1557 50.3728 28.3197 50.3328C28.4837 50.2928 28.6557 50.2728 28.8357 50.2728C29.0717 50.2728 29.2737 50.3028 29.4417 50.3628C29.6137 50.4228 29.7537 50.5148 29.8617 50.6388C29.9697 50.7588 30.0497 50.9068 30.1017 51.0828C30.1537 51.2548 30.1797 51.4548 30.1797 51.6828V52.2288C30.1797 52.3688 30.1817 52.5108 30.1857 52.6548C30.1897 52.7988 30.1937 52.9428 30.1977 53.0868C30.2057 53.2268 30.2157 53.3668 30.2277 53.5068H29.4657C29.4577 53.3868 29.4477 53.2588 29.4357 53.1228C29.4277 52.9828 29.4237 52.8388 29.4237 52.6908H29.3397C29.2957 52.8588 29.2217 53.0108 29.1177 53.1468C29.0137 53.2828 28.8837 53.3908 28.7277 53.4708C28.5717 53.5508 28.3937 53.5908 28.1937 53.5908ZM28.5477 52.9608C28.6237 52.9608 28.7017 52.9468 28.7817 52.9188C28.8657 52.8868 28.9457 52.8428 29.0217 52.7868C29.0977 52.7308 29.1637 52.6588 29.2197 52.5708C29.2757 52.4788 29.3177 52.3728 29.3457 52.2528L29.3397 51.8748L29.4837 51.8868C29.4237 51.9388 29.3477 51.9808 29.2557 52.0128C29.1677 52.0408 29.0717 52.0648 28.9677 52.0848C28.8677 52.1008 28.7657 52.1188 28.6617 52.1388C28.5617 52.1588 28.4697 52.1848 28.3857 52.2168C28.3057 52.2488 28.2417 52.2928 28.1937 52.3488C28.1457 52.4048 28.1217 52.4808 28.1217 52.5768C28.1217 52.6968 28.1617 52.7908 28.2417 52.8588C28.3217 52.9268 28.4237 52.9608 28.5477 52.9608ZM31.4568 53.5068L30.4248 50.3568H31.3668L32.0148 52.8108H32.0868L32.7528 50.3568H33.6528L32.6148 53.5068H31.4568ZM35.3936 53.5908C35.1256 53.5908 34.8916 53.5528 34.6916 53.4768C34.4916 53.4008 34.3236 53.2928 34.1876 53.1528C34.0516 53.0128 33.9496 52.8448 33.8816 52.6488C33.8136 52.4488 33.7796 52.2288 33.7796 51.9888C33.7796 51.7488 33.8136 51.5248 33.8816 51.3168C33.9496 51.1048 34.0476 50.9208 34.1756 50.7648C34.3076 50.6088 34.4696 50.4888 34.6616 50.4048C34.8576 50.3168 35.0816 50.2728 35.3336 50.2728C35.5816 50.2728 35.7996 50.3148 35.9876 50.3988C36.1756 50.4788 36.3296 50.5988 36.4496 50.7588C36.5736 50.9148 36.6616 51.1048 36.7136 51.3288C36.7656 51.5488 36.7776 51.7988 36.7496 52.0788L34.3376 52.1028V51.6228L36.1976 51.6048L35.9576 51.8568C35.9816 51.6528 35.9696 51.4848 35.9216 51.3528C35.8736 51.2168 35.7996 51.1168 35.6996 51.0528C35.5996 50.9848 35.4796 50.9508 35.3396 50.9508C35.1876 50.9508 35.0556 50.9908 34.9436 51.0708C34.8356 51.1508 34.7536 51.2668 34.6976 51.4188C34.6416 51.5708 34.6136 51.7528 34.6136 51.9648C34.6136 52.3008 34.6816 52.5488 34.8176 52.7088C34.9576 52.8688 35.1516 52.9488 35.3996 52.9488C35.5116 52.9488 35.6056 52.9348 35.6816 52.9068C35.7576 52.8748 35.8196 52.8348 35.8676 52.7868C35.9156 52.7348 35.9516 52.6768 35.9756 52.6128C36.0036 52.5488 36.0216 52.4828 36.0296 52.4148L36.7976 52.5408C36.7816 52.6848 36.7416 52.8208 36.6776 52.9488C36.6176 53.0728 36.5316 53.1828 36.4196 53.2788C36.3076 53.3748 36.1676 53.4508 35.9996 53.5068C35.8316 53.5628 35.6296 53.5908 35.3936 53.5908ZM38.6464 54.4668V51.8148V50.3568H39.3784L39.3724 51.2688L39.4564 51.2748C39.4964 51.0548 39.5624 50.8708 39.6544 50.7228C39.7464 50.5708 39.8624 50.4588 40.0024 50.3868C40.1464 50.3108 40.3124 50.2728 40.5004 50.2728C40.7684 50.2728 40.9964 50.3388 41.1844 50.4708C41.3764 50.6028 41.5224 50.7928 41.6224 51.0408C41.7264 51.2888 41.7784 51.5888 41.7784 51.9408C41.7784 52.2768 41.7304 52.5688 41.6344 52.8168C41.5384 53.0648 41.3964 53.2568 41.2084 53.3928C41.0244 53.5248 40.8004 53.5908 40.5364 53.5908C40.3404 53.5908 40.1724 53.5528 40.0324 53.4768C39.8924 53.3968 39.7764 53.2828 39.6844 53.1348C39.5964 52.9868 39.5264 52.8088 39.4744 52.6008H39.3844C39.4044 52.7168 39.4244 52.8348 39.4444 52.9548C39.4644 53.0708 39.4804 53.1848 39.4924 53.2968C39.5044 53.4088 39.5104 53.5168 39.5104 53.6208V54.4668H38.6464ZM40.2304 52.8888C40.3704 52.8888 40.4884 52.8488 40.5844 52.7688C40.6844 52.6888 40.7584 52.5788 40.8064 52.4388C40.8584 52.2948 40.8844 52.1308 40.8844 51.9468C40.8844 51.7588 40.8584 51.5948 40.8064 51.4548C40.7544 51.3108 40.6784 51.1988 40.5784 51.1188C40.4784 51.0388 40.3584 50.9988 40.2184 50.9988C40.1024 50.9988 40.0004 51.0248 39.9124 51.0768C39.8244 51.1288 39.7484 51.1988 39.6844 51.2868C39.6244 51.3708 39.5784 51.4668 39.5464 51.5748C39.5184 51.6828 39.5044 51.7928 39.5044 51.9048V51.9948C39.5044 52.0828 39.5144 52.1708 39.5344 52.2588C39.5584 52.3428 39.5904 52.4228 39.6304 52.4988C39.6744 52.5748 39.7244 52.6428 39.7804 52.7028C39.8404 52.7588 39.9084 52.8048 39.9844 52.8408C40.0604 52.8728 40.1424 52.8888 40.2304 52.8888ZM43.3758 53.5908C43.2238 53.5908 43.0898 53.5688 42.9738 53.5248C42.8578 53.4848 42.7558 53.4228 42.6678 53.3388C42.5838 53.2548 42.5138 53.1528 42.4578 53.0328C42.4018 52.9088 42.3598 52.7668 42.3318 52.6068C42.3078 52.4428 42.2958 52.2628 42.2958 52.0668V50.3568H43.1598V51.9108C43.1598 51.9988 43.1618 52.0988 43.1658 52.2108C43.1738 52.3188 43.1938 52.4228 43.2258 52.5228C43.2578 52.6188 43.3098 52.6988 43.3818 52.7628C43.4538 52.8268 43.5538 52.8588 43.6818 52.8588C43.7898 52.8588 43.8858 52.8328 43.9698 52.7808C44.0538 52.7248 44.1238 52.6448 44.1798 52.5408C44.2398 52.4368 44.2858 52.3128 44.3178 52.1688C44.3498 52.0248 44.3678 51.8628 44.3718 51.6828V50.3568H45.2358V52.1568V53.5068H44.5158L44.5278 52.4268H44.4378C44.3898 52.6988 44.3198 52.9208 44.2278 53.0928C44.1398 53.2648 44.0258 53.3908 43.8858 53.4708C43.7458 53.5508 43.5758 53.5908 43.3758 53.5908ZM47.094 53.5788C46.906 53.5788 46.746 53.5528 46.614 53.5008C46.482 53.4488 46.374 53.3728 46.29 53.2728C46.21 53.1728 46.152 53.0528 46.116 52.9128C46.08 52.7688 46.062 52.6068 46.062 52.4268V51.0348H45.636L45.648 50.3988H45.87C46.026 50.3908 46.14 50.3548 46.212 50.2908C46.284 50.2228 46.328 50.1168 46.344 49.9728L46.398 49.6488H46.896V50.3568H47.676V51.0588H46.896V52.3788C46.896 52.5388 46.934 52.6488 47.01 52.7088C47.09 52.7688 47.188 52.7988 47.304 52.7988C47.372 52.7988 47.44 52.7908 47.508 52.7748C47.576 52.7548 47.638 52.7268 47.694 52.6908V53.4888C47.57 53.5248 47.458 53.5488 47.358 53.5608C47.258 53.5728 47.17 53.5788 47.094 53.5788ZM50.7268 53.5788C50.5388 53.5788 50.3788 53.5528 50.2468 53.5008C50.1148 53.4488 50.0068 53.3728 49.9228 53.2728C49.8428 53.1728 49.7848 53.0528 49.7488 52.9128C49.7128 52.7688 49.6948 52.6068 49.6948 52.4268V51.0348H49.2688L49.2808 50.3988H49.5028C49.6588 50.3908 49.7728 50.3548 49.8448 50.2908C49.9168 50.2228 49.9608 50.1168 49.9768 49.9728L50.0308 49.6488H50.5288V50.3568H51.3088V51.0588H50.5288V52.3788C50.5288 52.5388 50.5668 52.6488 50.6428 52.7088C50.7228 52.7688 50.8208 52.7988 50.9368 52.7988C51.0048 52.7988 51.0728 52.7908 51.1408 52.7748C51.2088 52.7548 51.2708 52.7268 51.3268 52.6908V53.4888C51.2028 53.5248 51.0908 53.5488 50.9908 53.5608C50.8908 53.5728 50.8028 53.5788 50.7268 53.5788ZM51.8476 53.5068V51.6648V49.2588H52.7116V50.1768C52.7116 50.2608 52.7076 50.3548 52.6996 50.4588C52.6916 50.5628 52.6796 50.6708 52.6636 50.7828C52.6516 50.8948 52.6376 51.0068 52.6216 51.1188C52.6056 51.2308 52.5896 51.3348 52.5736 51.4308H52.6816C52.7296 51.1788 52.7976 50.9668 52.8856 50.7948C52.9736 50.6228 53.0896 50.4928 53.2336 50.4048C53.3776 50.3168 53.5536 50.2728 53.7616 50.2728C53.9496 50.2728 54.1076 50.3068 54.2356 50.3748C54.3636 50.4388 54.4656 50.5268 54.5416 50.6388C54.6216 50.7468 54.6816 50.8708 54.7216 51.0108C54.7616 51.1468 54.7896 51.2888 54.8056 51.4368C54.8216 51.5808 54.8296 51.7188 54.8296 51.8508V53.5068H53.9596V51.9408C53.9596 51.8128 53.9516 51.6928 53.9356 51.5808C53.9236 51.4648 53.8976 51.3648 53.8576 51.2808C53.8176 51.1968 53.7616 51.1308 53.6896 51.0828C53.6216 51.0308 53.5336 51.0048 53.4256 51.0048C53.2736 51.0048 53.1456 51.0548 53.0416 51.1548C52.9376 51.2508 52.8576 51.3888 52.8016 51.5688C52.7456 51.7488 52.7136 51.9608 52.7056 52.2048V53.5068H51.8476ZM55.4687 53.5068V50.3568H56.3267V53.5068H55.4687ZM55.9007 49.9548C55.7327 49.9548 55.6027 49.9208 55.5107 49.8528C55.4227 49.7808 55.3787 49.6768 55.3787 49.5408C55.3787 49.4008 55.4227 49.2968 55.5107 49.2288C55.6027 49.1568 55.7327 49.1208 55.9007 49.1208C56.0727 49.1208 56.2027 49.1568 56.2907 49.2288C56.3787 49.3008 56.4227 49.4048 56.4227 49.5408C56.4227 49.6728 56.3787 49.7748 56.2907 49.8468C56.2027 49.9188 56.0727 49.9548 55.9007 49.9548ZM58.2937 53.5908C58.0857 53.5908 57.8937 53.5688 57.7177 53.5248C57.5457 53.4848 57.3957 53.4248 57.2677 53.3448C57.1437 53.2648 57.0437 53.1628 56.9677 53.0388C56.8957 52.9148 56.8537 52.7728 56.8417 52.6128L57.5377 52.4148C57.5497 52.5228 57.5877 52.6188 57.6517 52.7028C57.7197 52.7828 57.8097 52.8468 57.9217 52.8948C58.0377 52.9388 58.1777 52.9608 58.3417 52.9608C58.5137 52.9608 58.6497 52.9348 58.7497 52.8828C58.8497 52.8268 58.8997 52.7468 58.8997 52.6428C58.8997 52.5708 58.8737 52.5128 58.8217 52.4688C58.7697 52.4248 58.6917 52.3868 58.5877 52.3548C58.4877 52.3228 58.3597 52.2908 58.2037 52.2588C58.0357 52.2228 57.8737 52.1828 57.7177 52.1388C57.5657 52.0948 57.4257 52.0368 57.2977 51.9648C57.1737 51.8928 57.0737 51.8008 56.9977 51.6888C56.9257 51.5728 56.8897 51.4288 56.8897 51.2568C56.8897 51.0568 56.9417 50.8848 57.0457 50.7408C57.1537 50.5928 57.3077 50.4788 57.5077 50.3988C57.7117 50.3148 57.9517 50.2728 58.2277 50.2728C58.4837 50.2728 58.7117 50.3088 58.9117 50.3808C59.1117 50.4528 59.2737 50.5608 59.3977 50.7048C59.5217 50.8488 59.5917 51.0288 59.6077 51.2448L58.8937 51.4188C58.8897 51.3108 58.8577 51.2188 58.7977 51.1428C58.7377 51.0668 58.6577 51.0088 58.5577 50.9688C58.4617 50.9288 58.3477 50.9088 58.2157 50.9088C58.0517 50.9088 57.9237 50.9368 57.8317 50.9928C57.7397 51.0488 57.6937 51.1248 57.6937 51.2208C57.6937 51.2928 57.7217 51.3528 57.7777 51.4008C57.8377 51.4488 57.9217 51.4888 58.0297 51.5208C58.1417 51.5488 58.2757 51.5788 58.4317 51.6108C58.5837 51.6428 58.7337 51.6808 58.8817 51.7248C59.0337 51.7648 59.1717 51.8208 59.2957 51.8928C59.4197 51.9608 59.5177 52.0528 59.5897 52.1688C59.6657 52.2808 59.7037 52.4248 59.7037 52.6008C59.7037 52.8048 59.6477 52.9808 59.5357 53.1288C59.4277 53.2768 59.2677 53.3908 59.0557 53.4708C58.8477 53.5508 58.5937 53.5908 58.2937 53.5908ZM62.7151 53.5788C62.5271 53.5788 62.3671 53.5528 62.2351 53.5008C62.1031 53.4488 61.9951 53.3728 61.9111 53.2728C61.8311 53.1728 61.7731 53.0528 61.7371 52.9128C61.7011 52.7688 61.6831 52.6068 61.6831 52.4268V51.0348H61.2571L61.2691 50.3988H61.4911C61.6471 50.3908 61.7611 50.3548 61.8331 50.2908C61.9051 50.2228 61.9491 50.1168 61.9651 49.9728L62.0191 49.6488H62.5171V50.3568H63.2971V51.0588H62.5171V52.3788C62.5171 52.5388 62.5551 52.6488 62.6311 52.7088C62.7111 52.7688 62.8091 52.7988 62.9251 52.7988C62.9931 52.7988 63.0611 52.7908 63.1291 52.7748C63.1971 52.7548 63.2591 52.7268 63.3151 52.6908V53.4888C63.1911 53.5248 63.0791 53.5488 62.9791 53.5608C62.8791 53.5728 62.7911 53.5788 62.7151 53.5788ZM63.8359 53.5068V50.3568H64.6939V53.5068H63.8359ZM64.2679 49.9548C64.0999 49.9548 63.9699 49.9208 63.8779 49.8528C63.7899 49.7808 63.7459 49.6768 63.7459 49.5408C63.7459 49.4008 63.7899 49.2968 63.8779 49.2288C63.9699 49.1568 64.0999 49.1208 64.2679 49.1208C64.4399 49.1208 64.5699 49.1568 64.6579 49.2288C64.7459 49.3008 64.7899 49.4048 64.7899 49.5408C64.7899 49.6728 64.7459 49.7748 64.6579 49.8468C64.5699 49.9188 64.4399 49.9548 64.2679 49.9548ZM66.8409 53.5908C66.5689 53.5908 66.3309 53.5508 66.1269 53.4708C65.9269 53.3868 65.7589 53.2728 65.6229 53.1288C65.4909 52.9808 65.3909 52.8088 65.3229 52.6128C65.2589 52.4168 65.2269 52.2008 65.2269 51.9648C65.2269 51.7248 65.2609 51.5028 65.3289 51.2988C65.3969 51.0948 65.4969 50.9168 65.6289 50.7648C65.7609 50.6088 65.9249 50.4888 66.1209 50.4048C66.3209 50.3168 66.5529 50.2728 66.8169 50.2728C67.0249 50.2728 67.2089 50.3008 67.3689 50.3568C67.5329 50.4128 67.6709 50.4908 67.7829 50.5908C67.8949 50.6908 67.9829 50.8088 68.0469 50.9448C68.1109 51.0768 68.1489 51.2208 68.1609 51.3768L67.3809 51.5688C67.3729 51.4328 67.3429 51.3188 67.2909 51.2268C67.2429 51.1348 67.1749 51.0668 67.0869 51.0228C66.9989 50.9748 66.8969 50.9508 66.7809 50.9508C66.6849 50.9508 66.5949 50.9708 66.5109 51.0108C66.4269 51.0468 66.3549 51.1048 66.2949 51.1848C66.2349 51.2608 66.1869 51.3608 66.1509 51.4848C66.1189 51.6088 66.1029 51.7568 66.1029 51.9288C66.1029 52.1608 66.1329 52.3508 66.1929 52.4988C66.2529 52.6468 66.3389 52.7588 66.4509 52.8348C66.5629 52.9068 66.6969 52.9428 66.8529 52.9428C67.0089 52.9428 67.1329 52.9088 67.2249 52.8408C67.3169 52.7728 67.3829 52.6888 67.4229 52.5888C67.4669 52.4848 67.4889 52.3768 67.4889 52.2648L68.2629 52.3908C68.2589 52.5548 68.2269 52.7088 68.1669 52.8528C68.1069 52.9968 68.0189 53.1248 67.9029 53.2368C67.7869 53.3488 67.6409 53.4368 67.4649 53.5008C67.2889 53.5608 67.0809 53.5908 66.8409 53.5908ZM68.6991 53.5068V49.2588H69.5451V51.5928C69.6771 51.5128 69.7991 51.4248 69.9111 51.3288C70.0271 51.2288 70.1291 51.1248 70.2171 51.0168C70.3091 50.9088 70.3871 50.7988 70.4511 50.6868C70.5191 50.5748 70.5731 50.4648 70.6131 50.3568H71.6031C71.5511 50.5088 71.4791 50.6608 71.3871 50.8128C71.2951 50.9648 71.1831 51.1068 71.0511 51.2388C70.9191 51.3668 70.7671 51.4788 70.5951 51.5748C70.4271 51.6708 70.2391 51.7428 70.0311 51.7908V51.8688C70.2911 51.8288 70.5071 51.8328 70.6791 51.8808C70.8511 51.9288 70.9891 52.0068 71.0931 52.1148C71.2011 52.2228 71.2871 52.3488 71.3511 52.4928C71.4151 52.6368 71.4691 52.7868 71.5131 52.9428L71.6571 53.5068H70.7151L70.6371 53.1348C70.5971 52.9588 70.5471 52.8028 70.4871 52.6668C70.4311 52.5268 70.3491 52.4188 70.2411 52.3428C70.1371 52.2628 69.9891 52.2228 69.7971 52.2228H69.5451V53.5068H68.6991ZM73.4795 53.5908C73.2115 53.5908 72.9775 53.5528 72.7775 53.4768C72.5775 53.4008 72.4095 53.2928 72.2735 53.1528C72.1375 53.0128 72.0355 52.8448 71.9675 52.6488C71.8995 52.4488 71.8655 52.2288 71.8655 51.9888C71.8655 51.7488 71.8995 51.5248 71.9675 51.3168C72.0355 51.1048 72.1335 50.9208 72.2615 50.7648C72.3935 50.6088 72.5555 50.4888 72.7475 50.4048C72.9435 50.3168 73.1675 50.2728 73.4195 50.2728C73.6675 50.2728 73.8855 50.3148 74.0735 50.3988C74.2615 50.4788 74.4155 50.5988 74.5355 50.7588C74.6595 50.9148 74.7475 51.1048 74.7995 51.3288C74.8515 51.5488 74.8635 51.7988 74.8355 52.0788L72.4235 52.1028V51.6228L74.2835 51.6048L74.0435 51.8568C74.0675 51.6528 74.0555 51.4848 74.0075 51.3528C73.9595 51.2168 73.8855 51.1168 73.7855 51.0528C73.6855 50.9848 73.5655 50.9508 73.4255 50.9508C73.2735 50.9508 73.1415 50.9908 73.0295 51.0708C72.9215 51.1508 72.8395 51.2668 72.7835 51.4188C72.7275 51.5708 72.6995 51.7528 72.6995 51.9648C72.6995 52.3008 72.7675 52.5488 72.9035 52.7088C73.0435 52.8688 73.2375 52.9488 73.4855 52.9488C73.5975 52.9488 73.6915 52.9348 73.7675 52.9068C73.8435 52.8748 73.9055 52.8348 73.9535 52.7868C74.0015 52.7348 74.0375 52.6768 74.0615 52.6128C74.0895 52.5488 74.1075 52.4828 74.1155 52.4148L74.8835 52.5408C74.8675 52.6848 74.8275 52.8208 74.7635 52.9488C74.7035 53.0728 74.6175 53.1828 74.5055 53.2788C74.3935 53.3748 74.2535 53.4508 74.0855 53.5068C73.9175 53.5628 73.7155 53.5908 73.4795 53.5908ZM76.5784 53.5788C76.3904 53.5788 76.2304 53.5528 76.0984 53.5008C75.9664 53.4488 75.8584 53.3728 75.7744 53.2728C75.6944 53.1728 75.6364 53.0528 75.6004 52.9128C75.5644 52.7688 75.5464 52.6068 75.5464 52.4268V51.0348H75.1204L75.1324 50.3988H75.3544C75.5104 50.3908 75.6244 50.3548 75.6964 50.2908C75.7684 50.2228 75.8124 50.1168 75.8284 49.9728L75.8824 49.6488H76.3804V50.3568H77.1604V51.0588H76.3804V52.3788C76.3804 52.5388 76.4184 52.6488 76.4944 52.7088C76.5744 52.7688 76.6724 52.7988 76.7884 52.7988C76.8564 52.7988 76.9244 52.7908 76.9924 52.7748C77.0604 52.7548 77.1224 52.7268 77.1784 52.6908V53.4888C77.0544 53.5248 76.9424 53.5488 76.8424 53.5608C76.7424 53.5728 76.6544 53.5788 76.5784 53.5788ZM18.1219 60.5908C17.9699 60.5908 17.8359 60.5688 17.7199 60.5248C17.6039 60.4848 17.5019 60.4228 17.4139 60.3388C17.3299 60.2548 17.2599 60.1528 17.2039 60.0328C17.1479 59.9088 17.1059 59.7668 17.0779 59.6068C17.0539 59.4428 17.0419 59.2628 17.0419 59.0668V57.3568H17.9059V58.9108C17.9059 58.9988 17.9079 59.0988 17.9119 59.2108C17.9199 59.3188 17.9399 59.4228 17.9719 59.5228C18.0039 59.6188 18.0559 59.6988 18.1279 59.7628C18.1999 59.8268 18.2999 59.8588 18.4279 59.8588C18.5359 59.8588 18.6319 59.8328 18.7159 59.7808C18.7999 59.7248 18.8699 59.6448 18.9259 59.5408C18.9859 59.4368 19.0319 59.3128 19.0639 59.1688C19.0959 59.0248 19.1139 58.8628 19.1179 58.6828V57.3568H19.9819V59.1568V60.5068H19.2619L19.2739 59.4268H19.1839C19.1359 59.6988 19.0659 59.9208 18.9739 60.0928C18.8859 60.2648 18.7719 60.3908 18.6319 60.4708C18.4919 60.5508 18.3219 60.5908 18.1219 60.5908ZM20.6581 61.4668V58.8148V57.3568H21.3901L21.3841 58.2688L21.4681 58.2748C21.5081 58.0548 21.5741 57.8708 21.6661 57.7228C21.7581 57.5708 21.8741 57.4588 22.0141 57.3868C22.1581 57.3108 22.3241 57.2728 22.5121 57.2728C22.7801 57.2728 23.0081 57.3388 23.1961 57.4708C23.3881 57.6028 23.5341 57.7928 23.6341 58.0408C23.7381 58.2888 23.7901 58.5888 23.7901 58.9408C23.7901 59.2768 23.7421 59.5688 23.6461 59.8168C23.5501 60.0648 23.4081 60.2568 23.2201 60.3928C23.0361 60.5248 22.8121 60.5908 22.5481 60.5908C22.3521 60.5908 22.1841 60.5528 22.0441 60.4768C21.9041 60.3968 21.7881 60.2828 21.6961 60.1348C21.6081 59.9868 21.5381 59.8088 21.4861 59.6008H21.3961C21.4161 59.7168 21.4361 59.8348 21.4561 59.9548C21.4761 60.0708 21.4921 60.1848 21.5041 60.2968C21.5161 60.4088 21.5221 60.5168 21.5221 60.6208V61.4668H20.6581ZM22.2421 59.8888C22.3821 59.8888 22.5001 59.8488 22.5961 59.7688C22.6961 59.6888 22.7701 59.5788 22.8181 59.4388C22.8701 59.2948 22.8961 59.1308 22.8961 58.9468C22.8961 58.7588 22.8701 58.5948 22.8181 58.4548C22.7661 58.3108 22.6901 58.1988 22.5901 58.1188C22.4901 58.0388 22.3701 57.9988 22.2301 57.9988C22.1141 57.9988 22.0121 58.0248 21.9241 58.0768C21.8361 58.1288 21.7601 58.1988 21.6961 58.2868C21.6361 58.3708 21.5901 58.4668 21.5581 58.5748C21.5301 58.6828 21.5161 58.7928 21.5161 58.9048V58.9948C21.5161 59.0828 21.5261 59.1708 21.5461 59.2588C21.5701 59.3428 21.6021 59.4228 21.6421 59.4988C21.6861 59.5748 21.7361 59.6428 21.7921 59.7028C21.8521 59.7588 21.9201 59.8048 21.9961 59.8408C22.0721 59.8728 22.1541 59.8888 22.2421 59.8888ZM25.9259 60.5068V58.5028H25.4399V57.8668L26.3099 57.9148V57.8248C26.1419 57.7928 26.0079 57.7388 25.9079 57.6628C25.8079 57.5868 25.7359 57.4988 25.6919 57.3988C25.6519 57.2948 25.6319 57.1888 25.6319 57.0808C25.6319 56.9048 25.6759 56.7528 25.7639 56.6248C25.8519 56.4968 25.9779 56.3988 26.1419 56.3308C26.3059 56.2588 26.4939 56.2228 26.7059 56.2228C26.8899 56.2228 27.0539 56.2468 27.1979 56.2948C27.3459 56.3388 27.4699 56.4008 27.5699 56.4808L27.5039 57.2668C27.4039 57.1908 27.2959 57.1328 27.1799 57.0928C27.0679 57.0488 26.9579 57.0268 26.8499 57.0268C26.7299 57.0268 26.6299 57.0588 26.5499 57.1228C26.4739 57.1868 26.4359 57.2848 26.4359 57.4168C26.4359 57.5088 26.4559 57.5848 26.4959 57.6448C26.5359 57.7048 26.5879 57.7488 26.6519 57.7768C26.7199 57.8048 26.7959 57.8208 26.8799 57.8248H27.5459V58.5028H26.7719V60.5068H25.9259ZM29.4105 60.5908C29.1025 60.5908 28.8285 60.5288 28.5885 60.4048C28.3525 60.2808 28.1665 60.0968 28.0305 59.8528C27.8945 59.6048 27.8265 59.2968 27.8265 58.9288C27.8265 58.5528 27.8945 58.2428 28.0305 57.9988C28.1705 57.7548 28.3605 57.5728 28.6005 57.4528C28.8405 57.3328 29.1125 57.2728 29.4165 57.2728C29.7245 57.2728 29.9985 57.3348 30.2385 57.4588C30.4785 57.5828 30.6645 57.7668 30.7965 58.0108C30.9325 58.2548 31.0005 58.5628 31.0005 58.9348C31.0005 59.3108 30.9305 59.6228 30.7905 59.8708C30.6545 60.1148 30.4665 60.2968 30.2265 60.4168C29.9865 60.5328 29.7145 60.5908 29.4105 60.5908ZM29.4405 59.9488C29.5365 59.9488 29.6265 59.9308 29.7105 59.8948C29.7945 59.8588 29.8665 59.8028 29.9265 59.7268C29.9905 59.6508 30.0405 59.5508 30.0765 59.4268C30.1125 59.3028 30.1305 59.1548 30.1305 58.9828C30.1305 58.7988 30.1105 58.6428 30.0705 58.5148C30.0345 58.3828 29.9825 58.2748 29.9145 58.1908C29.8465 58.1068 29.7665 58.0448 29.6745 58.0048C29.5865 57.9648 29.4905 57.9448 29.3865 57.9448C29.2905 57.9448 29.2005 57.9628 29.1165 57.9988C29.0365 58.0348 28.9645 58.0928 28.9005 58.1728C28.8365 58.2488 28.7865 58.3488 28.7505 58.4728C28.7145 58.5928 28.6965 58.7408 28.6965 58.9168C28.6965 59.0968 28.7145 59.2528 28.7505 59.3848C28.7905 59.5168 28.8445 59.6248 28.9125 59.7088C28.9805 59.7888 29.0585 59.8488 29.1465 59.8888C29.2385 59.9288 29.3365 59.9488 29.4405 59.9488ZM31.5331 60.5068V58.9348V57.3568H32.2591L32.2531 58.5088H32.3491C32.3771 58.2168 32.4271 57.9808 32.4991 57.8008C32.5751 57.6208 32.6771 57.4908 32.8051 57.4108C32.9371 57.3268 33.0951 57.2848 33.2791 57.2848C33.3271 57.2848 33.3771 57.2888 33.4291 57.2968C33.4851 57.3048 33.5431 57.3208 33.6031 57.3448L33.5671 58.2688C33.4991 58.2368 33.4271 58.2128 33.3511 58.1968C33.2791 58.1808 33.2131 58.1728 33.1531 58.1728C33.0011 58.1728 32.8711 58.2108 32.7631 58.2868C32.6591 58.3628 32.5751 58.4728 32.5111 58.6168C32.4511 58.7608 32.4131 58.9368 32.3971 59.1448V60.5068H31.5331ZM36.6492 60.5908C36.4412 60.5908 36.2492 60.5688 36.0732 60.5248C35.9012 60.4848 35.7512 60.4248 35.6232 60.3448C35.4992 60.2648 35.3992 60.1628 35.3232 60.0388C35.2512 59.9148 35.2092 59.7728 35.1972 59.6128L35.8932 59.4148C35.9052 59.5228 35.9432 59.6188 36.0072 59.7028C36.0752 59.7828 36.1652 59.8468 36.2772 59.8948C36.3932 59.9388 36.5332 59.9608 36.6972 59.9608C36.8692 59.9608 37.0052 59.9348 37.1052 59.8828C37.2052 59.8268 37.2552 59.7468 37.2552 59.6428C37.2552 59.5708 37.2292 59.5128 37.1772 59.4688C37.1252 59.4248 37.0472 59.3868 36.9432 59.3548C36.8432 59.3228 36.7152 59.2908 36.5592 59.2588C36.3912 59.2228 36.2292 59.1828 36.0732 59.1388C35.9212 59.0948 35.7812 59.0368 35.6532 58.9648C35.5292 58.8928 35.4292 58.8008 35.3532 58.6888C35.2812 58.5728 35.2452 58.4288 35.2452 58.2568C35.2452 58.0568 35.2972 57.8848 35.4012 57.7408C35.5092 57.5928 35.6632 57.4788 35.8632 57.3988C36.0672 57.3148 36.3072 57.2728 36.5832 57.2728C36.8392 57.2728 37.0672 57.3088 37.2672 57.3808C37.4672 57.4528 37.6292 57.5608 37.7532 57.7048C37.8772 57.8488 37.9472 58.0288 37.9632 58.2448L37.2492 58.4188C37.2452 58.3108 37.2132 58.2188 37.1532 58.1428C37.0932 58.0668 37.0132 58.0088 36.9132 57.9688C36.8172 57.9288 36.7032 57.9088 36.5712 57.9088C36.4072 57.9088 36.2792 57.9368 36.1872 57.9928C36.0952 58.0488 36.0492 58.1248 36.0492 58.2208C36.0492 58.2928 36.0772 58.3528 36.1332 58.4008C36.1932 58.4488 36.2772 58.4888 36.3852 58.5208C36.4972 58.5488 36.6312 58.5788 36.7872 58.6108C36.9392 58.6428 37.0892 58.6808 37.2372 58.7248C37.3892 58.7648 37.5272 58.8208 37.6512 58.8928C37.7752 58.9608 37.8732 59.0528 37.9452 59.1688C38.0212 59.2808 38.0592 59.4248 38.0592 59.6008C38.0592 59.8048 38.0032 59.9808 37.8912 60.1288C37.7832 60.2768 37.6232 60.3908 37.4112 60.4708C37.2032 60.5508 36.9492 60.5908 36.6492 60.5908ZM39.3382 60.5908C39.1662 60.5908 39.0102 60.5588 38.8702 60.4948C38.7342 60.4308 38.6242 60.3348 38.5402 60.2068C38.4602 60.0748 38.4202 59.9128 38.4202 59.7208C38.4202 59.5088 38.4642 59.3408 38.5522 59.2168C38.6442 59.0888 38.7622 58.9908 38.9062 58.9228C39.0542 58.8508 39.2102 58.7988 39.3742 58.7668C39.5422 58.7348 39.7022 58.7068 39.8542 58.6828C40.0142 58.6588 40.1382 58.6368 40.2262 58.6168C40.3182 58.5928 40.3822 58.5608 40.4182 58.5208C40.4582 58.4808 40.4782 58.4268 40.4782 58.3588C40.4782 58.2748 40.4582 58.2028 40.4182 58.1428C40.3782 58.0828 40.3202 58.0348 40.2442 57.9988C40.1722 57.9628 40.0802 57.9448 39.9682 57.9448C39.8602 57.9448 39.7582 57.9648 39.6622 58.0048C39.5662 58.0408 39.4842 58.1008 39.4162 58.1848C39.3482 58.2688 39.3042 58.3768 39.2842 58.5088L38.5162 58.3408C38.5482 58.1488 38.6082 57.9868 38.6962 57.8548C38.7842 57.7188 38.8922 57.6088 39.0202 57.5248C39.1522 57.4368 39.3002 57.3728 39.4642 57.3328C39.6282 57.2928 39.8002 57.2728 39.9802 57.2728C40.2162 57.2728 40.4182 57.3028 40.5862 57.3628C40.7582 57.4228 40.8982 57.5148 41.0062 57.6388C41.1142 57.7588 41.1942 57.9068 41.2462 58.0828C41.2982 58.2548 41.3242 58.4548 41.3242 58.6828V59.2288C41.3242 59.3688 41.3262 59.5108 41.3302 59.6548C41.3342 59.7988 41.3382 59.9428 41.3422 60.0868C41.3502 60.2268 41.3602 60.3668 41.3722 60.5068H40.6102C40.6022 60.3868 40.5922 60.2588 40.5802 60.1228C40.5722 59.9828 40.5682 59.8388 40.5682 59.6908H40.4842C40.4402 59.8588 40.3662 60.0108 40.2622 60.1468C40.1582 60.2828 40.0282 60.3908 39.8722 60.4708C39.7162 60.5508 39.5382 60.5908 39.3382 60.5908ZM39.6922 59.9608C39.7682 59.9608 39.8462 59.9468 39.9262 59.9188C40.0102 59.8868 40.0902 59.8428 40.1662 59.7868C40.2422 59.7308 40.3082 59.6588 40.3642 59.5708C40.4202 59.4788 40.4622 59.3728 40.4902 59.2528L40.4842 58.8748L40.6282 58.8868C40.5682 58.9388 40.4922 58.9808 40.4002 59.0128C40.3122 59.0408 40.2162 59.0648 40.1122 59.0848C40.0122 59.1008 39.9102 59.1188 39.8062 59.1388C39.7062 59.1588 39.6142 59.1848 39.5302 59.2168C39.4502 59.2488 39.3862 59.2928 39.3382 59.3488C39.2902 59.4048 39.2662 59.4808 39.2662 59.5768C39.2662 59.6968 39.3062 59.7908 39.3862 59.8588C39.4662 59.9268 39.5682 59.9608 39.6922 59.9608ZM41.9745 60.5068V56.2588H42.8265V60.5068H41.9745ZM44.9737 60.5908C44.7057 60.5908 44.4717 60.5528 44.2717 60.4768C44.0717 60.4008 43.9037 60.2928 43.7677 60.1528C43.6317 60.0128 43.5297 59.8448 43.4617 59.6488C43.3937 59.4488 43.3597 59.2288 43.3597 58.9888C43.3597 58.7488 43.3937 58.5248 43.4617 58.3168C43.5297 58.1048 43.6277 57.9208 43.7557 57.7648C43.8877 57.6088 44.0497 57.4888 44.2417 57.4048C44.4377 57.3168 44.6617 57.2728 44.9137 57.2728C45.1617 57.2728 45.3797 57.3148 45.5677 57.3988C45.7557 57.4788 45.9097 57.5988 46.0297 57.7588C46.1537 57.9148 46.2417 58.1048 46.2937 58.3288C46.3457 58.5488 46.3577 58.7988 46.3297 59.0788L43.9177 59.1028V58.6228L45.7777 58.6048L45.5377 58.8568C45.5617 58.6528 45.5497 58.4848 45.5017 58.3528C45.4537 58.2168 45.3797 58.1168 45.2797 58.0528C45.1797 57.9848 45.0597 57.9508 44.9197 57.9508C44.7677 57.9508 44.6357 57.9908 44.5237 58.0708C44.4157 58.1508 44.3337 58.2668 44.2777 58.4188C44.2217 58.5708 44.1937 58.7528 44.1937 58.9648C44.1937 59.3008 44.2617 59.5488 44.3977 59.7088C44.5377 59.8688 44.7317 59.9488 44.9797 59.9488C45.0917 59.9488 45.1857 59.9348 45.2617 59.9068C45.3377 59.8748 45.3997 59.8348 45.4477 59.7868C45.4957 59.7348 45.5317 59.6768 45.5557 59.6128C45.5837 59.5488 45.6017 59.4828 45.6097 59.4148L46.3777 59.5408C46.3617 59.6848 46.3217 59.8208 46.2577 59.9488C46.1977 60.0728 46.1117 60.1828 45.9997 60.2788C45.8877 60.3748 45.7477 60.4508 45.5797 60.5068C45.4117 60.5628 45.2097 60.5908 44.9737 60.5908ZM47.2677 60.5848C47.0797 60.5848 46.9397 60.5448 46.8477 60.4648C46.7557 60.3848 46.7097 60.2608 46.7097 60.0928C46.7097 59.9208 46.7557 59.7948 46.8477 59.7148C46.9397 59.6348 47.0797 59.5948 47.2677 59.5948C47.4557 59.5948 47.5977 59.6348 47.6937 59.7148C47.7897 59.7948 47.8377 59.9208 47.8377 60.0928C47.8377 60.4208 47.6477 60.5848 47.2677 60.5848ZM49.3746 60.5068L50.7306 56.5468H51.9426L53.2926 60.5068H52.3566L51.3726 57.2368H51.3006L50.3106 60.5068H49.3746ZM50.1246 59.7388V59.1388H52.6626V59.7388H50.1246ZM53.705 60.5068V58.6648V57.3568H54.419L54.407 58.4368H54.503C54.547 58.1568 54.617 57.9328 54.713 57.7648C54.813 57.5928 54.937 57.4688 55.085 57.3928C55.233 57.3128 55.405 57.2728 55.601 57.2728C55.781 57.2728 55.935 57.3048 56.063 57.3688C56.191 57.4288 56.295 57.5128 56.375 57.6208C56.455 57.7288 56.517 57.8488 56.561 57.9808C56.609 58.1128 56.641 58.2508 56.657 58.3948C56.677 58.5388 56.687 58.6808 56.687 58.8208V60.5068H55.817V58.9168C55.817 58.8408 55.813 58.7528 55.805 58.6528C55.797 58.5488 55.777 58.4488 55.745 58.3528C55.713 58.2528 55.659 58.1708 55.583 58.1068C55.511 58.0388 55.409 58.0048 55.277 58.0048C55.125 58.0048 54.995 58.0548 54.887 58.1548C54.783 58.2508 54.703 58.3888 54.647 58.5688C54.595 58.7488 54.567 58.9628 54.563 59.2108V60.5068H53.705ZM58.7601 60.5908C58.4521 60.5908 58.1781 60.5288 57.9381 60.4048C57.7021 60.2808 57.5161 60.0968 57.3801 59.8528C57.2441 59.6048 57.1761 59.2968 57.1761 58.9288C57.1761 58.5528 57.2441 58.2428 57.3801 57.9988C57.5201 57.7548 57.7101 57.5728 57.9501 57.4528C58.1901 57.3328 58.4621 57.2728 58.7661 57.2728C59.0741 57.2728 59.3481 57.3348 59.5881 57.4588C59.8281 57.5828 60.0141 57.7668 60.1461 58.0108C60.2821 58.2548 60.3501 58.5628 60.3501 58.9348C60.3501 59.3108 60.2801 59.6228 60.1401 59.8708C60.0041 60.1148 59.8161 60.2968 59.5761 60.4168C59.3361 60.5328 59.0641 60.5908 58.7601 60.5908ZM58.7901 59.9488C58.8861 59.9488 58.9761 59.9308 59.0601 59.8948C59.1441 59.8588 59.2161 59.8028 59.2761 59.7268C59.3401 59.6508 59.3901 59.5508 59.4261 59.4268C59.4621 59.3028 59.4801 59.1548 59.4801 58.9828C59.4801 58.7988 59.4601 58.6428 59.4201 58.5148C59.3841 58.3828 59.3321 58.2748 59.2641 58.1908C59.1961 58.1068 59.1161 58.0448 59.0241 58.0048C58.9361 57.9648 58.8401 57.9448 58.7361 57.9448C58.6401 57.9448 58.5501 57.9628 58.4661 57.9988C58.3861 58.0348 58.3141 58.0928 58.2501 58.1728C58.1861 58.2488 58.1361 58.3488 58.1001 58.4728C58.0641 58.5928 58.0461 58.7408 58.0461 58.9168C58.0461 59.0968 58.0641 59.2528 58.1001 59.3848C58.1401 59.5168 58.1941 59.6248 58.2621 59.7088C58.3301 59.7888 58.4081 59.8488 58.4961 59.8888C58.5881 59.9288 58.6861 59.9488 58.7901 59.9488ZM62.0472 60.5788C61.8592 60.5788 61.6992 60.5528 61.5672 60.5008C61.4352 60.4488 61.3272 60.3728 61.2432 60.2728C61.1632 60.1728 61.1052 60.0528 61.0692 59.9128C61.0332 59.7688 61.0152 59.6068 61.0152 59.4268V58.0348H60.5892L60.6012 57.3988H60.8232C60.9792 57.3908 61.0932 57.3548 61.1652 57.2908C61.2372 57.2228 61.2812 57.1168 61.2972 56.9728L61.3512 56.6488H61.8492V57.3568H62.6292V58.0588H61.8492V59.3788C61.8492 59.5388 61.8872 59.6488 61.9632 59.7088C62.0432 59.7688 62.1412 59.7988 62.2572 59.7988C62.3252 59.7988 62.3932 59.7908 62.4612 59.7748C62.5292 59.7548 62.5912 59.7268 62.6472 59.6908V60.4888C62.5232 60.5248 62.4112 60.5488 62.3112 60.5608C62.2112 60.5728 62.1232 60.5788 62.0472 60.5788ZM63.1679 60.5068V58.6648V56.2588H64.0319V57.1768C64.0319 57.2608 64.0279 57.3548 64.0199 57.4588C64.0119 57.5628 63.9999 57.6708 63.9839 57.7828C63.9719 57.8948 63.9579 58.0068 63.9419 58.1188C63.9259 58.2308 63.9099 58.3348 63.8939 58.4308H64.0019C64.0499 58.1788 64.1179 57.9668 64.2059 57.7948C64.2939 57.6228 64.4099 57.4928 64.5539 57.4048C64.6979 57.3168 64.8739 57.2728 65.0819 57.2728C65.2699 57.2728 65.4279 57.3068 65.5559 57.3748C65.6839 57.4388 65.7859 57.5268 65.8619 57.6388C65.9419 57.7468 66.0019 57.8708 66.0419 58.0108C66.0819 58.1468 66.1099 58.2888 66.1259 58.4368C66.1419 58.5808 66.1499 58.7188 66.1499 58.8508V60.5068H65.2799V58.9408C65.2799 58.8128 65.2719 58.6928 65.2559 58.5808C65.2439 58.4648 65.2179 58.3648 65.1779 58.2808C65.1379 58.1968 65.0819 58.1308 65.0099 58.0828C64.9419 58.0308 64.8539 58.0048 64.7459 58.0048C64.5939 58.0048 64.4659 58.0548 64.3619 58.1548C64.2579 58.2508 64.1779 58.3888 64.1219 58.5688C64.0659 58.7488 64.0339 58.9608 64.0259 59.2048V60.5068H63.1679ZM68.253 60.5908C67.985 60.5908 67.751 60.5528 67.551 60.4768C67.351 60.4008 67.183 60.2928 67.047 60.1528C66.911 60.0128 66.809 59.8448 66.741 59.6488C66.673 59.4488 66.639 59.2288 66.639 58.9888C66.639 58.7488 66.673 58.5248 66.741 58.3168C66.809 58.1048 66.907 57.9208 67.035 57.7648C67.167 57.6088 67.329 57.4888 67.521 57.4048C67.717 57.3168 67.941 57.2728 68.193 57.2728C68.441 57.2728 68.659 57.3148 68.847 57.3988C69.035 57.4788 69.189 57.5988 69.309 57.7588C69.433 57.9148 69.521 58.1048 69.573 58.3288C69.625 58.5488 69.637 58.7988 69.609 59.0788L67.197 59.1028V58.6228L69.057 58.6048L68.817 58.8568C68.841 58.6528 68.829 58.4848 68.781 58.3528C68.733 58.2168 68.659 58.1168 68.559 58.0528C68.459 57.9848 68.339 57.9508 68.199 57.9508C68.047 57.9508 67.915 57.9908 67.803 58.0708C67.695 58.1508 67.613 58.2668 67.557 58.4188C67.501 58.5708 67.473 58.7528 67.473 58.9648C67.473 59.3008 67.541 59.5488 67.677 59.7088C67.817 59.8688 68.011 59.9488 68.259 59.9488C68.371 59.9488 68.465 59.9348 68.541 59.9068C68.617 59.8748 68.679 59.8348 68.727 59.7868C68.775 59.7348 68.811 59.6768 68.835 59.6128C68.863 59.5488 68.881 59.4828 68.889 59.4148L69.657 59.5408C69.641 59.6848 69.601 59.8208 69.537 59.9488C69.477 60.0728 69.391 60.1828 69.279 60.2788C69.167 60.3748 69.027 60.4508 68.859 60.5068C68.691 60.5628 68.489 60.5908 68.253 60.5908ZM70.1816 60.5068V58.9348V57.3568H70.9076L70.9016 58.5088H70.9976C71.0256 58.2168 71.0756 57.9808 71.1476 57.8008C71.2236 57.6208 71.3256 57.4908 71.4536 57.4108C71.5856 57.3268 71.7436 57.2848 71.9276 57.2848C71.9756 57.2848 72.0256 57.2888 72.0776 57.2968C72.1336 57.3048 72.1916 57.3208 72.2516 57.3448L72.2156 58.2688C72.1476 58.2368 72.0756 58.2128 71.9996 58.1968C71.9276 58.1808 71.8616 58.1728 71.8016 58.1728C71.6496 58.1728 71.5196 58.2108 71.4116 58.2868C71.3076 58.3628 71.2236 58.4728 71.1596 58.6168C71.0996 58.7608 71.0616 58.9368 71.0456 59.1448V60.5068H70.1816ZM16.7152 67.5908C16.5432 67.5908 16.3872 67.5588 16.2472 67.4948C16.1112 67.4308 16.0012 67.3348 15.9172 67.2068C15.8372 67.0748 15.7972 66.9128 15.7972 66.7208C15.7972 66.5088 15.8412 66.3408 15.9292 66.2168C16.0212 66.0888 16.1392 65.9908 16.2832 65.9228C16.4312 65.8508 16.5872 65.7988 16.7512 65.7668C16.9192 65.7348 17.0792 65.7068 17.2312 65.6828C17.3912 65.6588 17.5152 65.6368 17.6032 65.6168C17.6952 65.5928 17.7592 65.5608 17.7952 65.5208C17.8352 65.4808 17.8552 65.4268 17.8552 65.3588C17.8552 65.2748 17.8352 65.2028 17.7952 65.1428C17.7552 65.0828 17.6972 65.0348 17.6212 64.9988C17.5492 64.9628 17.4572 64.9448 17.3452 64.9448C17.2372 64.9448 17.1352 64.9648 17.0392 65.0048C16.9432 65.0408 16.8612 65.1008 16.7932 65.1848C16.7252 65.2688 16.6812 65.3768 16.6612 65.5088L15.8932 65.3408C15.9252 65.1488 15.9852 64.9868 16.0732 64.8548C16.1612 64.7188 16.2692 64.6088 16.3972 64.5248C16.5292 64.4368 16.6772 64.3728 16.8412 64.3328C17.0052 64.2928 17.1772 64.2728 17.3572 64.2728C17.5932 64.2728 17.7952 64.3028 17.9632 64.3628C18.1352 64.4228 18.2752 64.5148 18.3832 64.6388C18.4912 64.7588 18.5712 64.9068 18.6232 65.0828C18.6752 65.2548 18.7012 65.4548 18.7012 65.6828V66.2288C18.7012 66.3688 18.7032 66.5108 18.7072 66.6548C18.7112 66.7988 18.7152 66.9428 18.7192 67.0868C18.7272 67.2268 18.7372 67.3668 18.7492 67.5068H17.9872C17.9792 67.3868 17.9692 67.2588 17.9572 67.1228C17.9492 66.9828 17.9452 66.8388 17.9452 66.6908H17.8612C17.8172 66.8588 17.7432 67.0108 17.6392 67.1468C17.5352 67.2828 17.4052 67.3908 17.2492 67.4708C17.0932 67.5508 16.9152 67.5908 16.7152 67.5908ZM17.0692 66.9608C17.1452 66.9608 17.2232 66.9468 17.3032 66.9188C17.3872 66.8868 17.4672 66.8428 17.5432 66.7868C17.6192 66.7308 17.6852 66.6588 17.7412 66.5708C17.7972 66.4788 17.8392 66.3728 17.8672 66.2528L17.8612 65.8748L18.0052 65.8868C17.9452 65.9388 17.8692 65.9808 17.7772 66.0128C17.6892 66.0408 17.5932 66.0648 17.4892 66.0848C17.3892 66.1008 17.2872 66.1188 17.1832 66.1388C17.0832 66.1588 16.9912 66.1848 16.9072 66.2168C16.8272 66.2488 16.7632 66.2928 16.7152 66.3488C16.6672 66.4048 16.6432 66.4808 16.6432 66.5768C16.6432 66.6968 16.6832 66.7908 16.7632 66.8588C16.8432 66.9268 16.9452 66.9608 17.0692 66.9608ZM20.5276 67.5788C20.3396 67.5788 20.1796 67.5528 20.0476 67.5008C19.9156 67.4488 19.8076 67.3728 19.7236 67.2728C19.6436 67.1728 19.5856 67.0528 19.5496 66.9128C19.5136 66.7688 19.4956 66.6068 19.4956 66.4268V65.0348H19.0696L19.0816 64.3988H19.3036C19.4596 64.3908 19.5736 64.3548 19.6456 64.2908C19.7176 64.2228 19.7616 64.1168 19.7776 63.9728L19.8316 63.6488H20.3296V64.3568H21.1096V65.0588H20.3296V66.3788C20.3296 66.5388 20.3676 66.6488 20.4436 66.7088C20.5236 66.7688 20.6216 66.7988 20.7376 66.7988C20.8056 66.7988 20.8736 66.7908 20.9416 66.7748C21.0096 66.7548 21.0716 66.7268 21.1276 66.6908V67.4888C21.0036 67.5248 20.8916 67.5488 20.7916 67.5608C20.6916 67.5728 20.6036 67.5788 20.5276 67.5788ZM22.8772 67.5788C22.6892 67.5788 22.5292 67.5528 22.3972 67.5008C22.2652 67.4488 22.1572 67.3728 22.0732 67.2728C21.9932 67.1728 21.9352 67.0528 21.8992 66.9128C21.8632 66.7688 21.8452 66.6068 21.8452 66.4268V65.0348H21.4192L21.4312 64.3988H21.6532C21.8092 64.3908 21.9232 64.3548 21.9952 64.2908C22.0672 64.2228 22.1112 64.1168 22.1272 63.9728L22.1812 63.6488H22.6792V64.3568H23.4592V65.0588H22.6792V66.3788C22.6792 66.5388 22.7172 66.6488 22.7932 66.7088C22.8732 66.7688 22.9712 66.7988 23.0872 66.7988C23.1552 66.7988 23.2232 66.7908 23.2912 66.7748C23.3592 66.7548 23.4212 66.7268 23.4772 66.6908V67.4888C23.3532 67.5248 23.2412 67.5488 23.1412 67.5608C23.0412 67.5728 22.9532 67.5788 22.8772 67.5788ZM25.4092 67.5908C25.1412 67.5908 24.9072 67.5528 24.7072 67.4768C24.5072 67.4008 24.3392 67.2928 24.2032 67.1528C24.0672 67.0128 23.9652 66.8448 23.8972 66.6488C23.8292 66.4488 23.7952 66.2288 23.7952 65.9888C23.7952 65.7488 23.8292 65.5248 23.8972 65.3168C23.9652 65.1048 24.0632 64.9208 24.1912 64.7648C24.3232 64.6088 24.4852 64.4888 24.6772 64.4048C24.8732 64.3168 25.0972 64.2728 25.3492 64.2728C25.5972 64.2728 25.8152 64.3148 26.0032 64.3988C26.1912 64.4788 26.3452 64.5988 26.4652 64.7588C26.5892 64.9148 26.6772 65.1048 26.7292 65.3288C26.7812 65.5488 26.7932 65.7988 26.7652 66.0788L24.3532 66.1028V65.6228L26.2132 65.6048L25.9732 65.8568C25.9972 65.6528 25.9852 65.4848 25.9372 65.3528C25.8892 65.2168 25.8152 65.1168 25.7152 65.0528C25.6152 64.9848 25.4952 64.9508 25.3552 64.9508C25.2032 64.9508 25.0712 64.9908 24.9592 65.0708C24.8512 65.1508 24.7692 65.2668 24.7132 65.4188C24.6572 65.5708 24.6292 65.7528 24.6292 65.9648C24.6292 66.3008 24.6972 66.5488 24.8332 66.7088C24.9732 66.8688 25.1672 66.9488 25.4152 66.9488C25.5272 66.9488 25.6212 66.9348 25.6972 66.9068C25.7732 66.8748 25.8352 66.8348 25.8832 66.7868C25.9312 66.7348 25.9672 66.6768 25.9912 66.6128C26.0192 66.5488 26.0372 66.4828 26.0452 66.4148L26.8132 66.5408C26.7972 66.6848 26.7572 66.8208 26.6932 66.9488C26.6332 67.0728 26.5472 67.1828 26.4352 67.2788C26.3232 67.3748 26.1832 67.4508 26.0152 67.5068C25.8472 67.5628 25.6452 67.5908 25.4092 67.5908ZM27.3378 67.5068V65.6648V64.3568H28.0518L28.0398 65.4368H28.1358C28.1798 65.1568 28.2498 64.9328 28.3458 64.7648C28.4458 64.5928 28.5698 64.4688 28.7178 64.3928C28.8658 64.3128 29.0378 64.2728 29.2338 64.2728C29.4138 64.2728 29.5678 64.3048 29.6958 64.3688C29.8238 64.4288 29.9278 64.5128 30.0078 64.6208C30.0878 64.7288 30.1498 64.8488 30.1938 64.9808C30.2418 65.1128 30.2738 65.2508 30.2898 65.3948C30.3098 65.5388 30.3198 65.6808 30.3198 65.8208V67.5068H29.4498V65.9168C29.4498 65.8408 29.4458 65.7528 29.4378 65.6528C29.4298 65.5488 29.4098 65.4488 29.3778 65.3528C29.3458 65.2528 29.2918 65.1708 29.2158 65.1068C29.1438 65.0388 29.0418 65.0048 28.9098 65.0048C28.7578 65.0048 28.6278 65.0548 28.5198 65.1548C28.4158 65.2508 28.3358 65.3888 28.2798 65.5688C28.2278 65.7488 28.1998 65.9628 28.1958 66.2108V67.5068H27.3378ZM32.1046 67.5908C31.8526 67.5908 31.6306 67.5268 31.4386 67.3988C31.2506 67.2668 31.1026 67.0768 30.9946 66.8288C30.8866 66.5768 30.8326 66.2728 30.8326 65.9168C30.8326 65.5848 30.8806 65.2968 30.9766 65.0528C31.0726 64.8048 31.2126 64.6148 31.3966 64.4828C31.5806 64.3468 31.8046 64.2788 32.0686 64.2788C32.2686 64.2788 32.4386 64.3188 32.5786 64.3988C32.7186 64.4748 32.8346 64.5908 32.9266 64.7468C33.0186 64.8988 33.0866 65.0888 33.1306 65.3168H33.2386C33.2146 65.1808 33.1926 65.0488 33.1726 64.9208C33.1526 64.7928 33.1366 64.6728 33.1246 64.5608C33.1126 64.4448 33.1066 64.3388 33.1066 64.2428V63.2588H33.9706V66.0908V67.5068H33.2386L33.2446 66.5648H33.1486C33.1046 66.7928 33.0366 66.9828 32.9446 67.1348C32.8526 67.2868 32.7366 67.4008 32.5966 67.4768C32.4566 67.5528 32.2926 67.5908 32.1046 67.5908ZM32.3926 66.8888C32.5126 66.8888 32.6166 66.8628 32.7046 66.8108C32.7926 66.7548 32.8666 66.6828 32.9266 66.5948C32.9866 66.5068 33.0306 66.4108 33.0586 66.3068C33.0906 66.1988 33.1066 66.0888 33.1066 65.9768V65.8928C33.1066 65.8048 33.0946 65.7188 33.0706 65.6348C33.0506 65.5468 33.0206 65.4648 32.9806 65.3888C32.9406 65.3088 32.8906 65.2388 32.8306 65.1788C32.7746 65.1188 32.7086 65.0728 32.6326 65.0408C32.5566 65.0048 32.4746 64.9868 32.3866 64.9868C32.2466 64.9868 32.1266 65.0288 32.0266 65.1128C31.9306 65.1928 31.8566 65.3048 31.8046 65.4488C31.7526 65.5928 31.7266 65.7568 31.7266 65.9408C31.7266 66.1248 31.7526 66.2888 31.8046 66.4328C31.8606 66.5768 31.9386 66.6888 32.0386 66.7688C32.1386 66.8488 32.2566 66.8888 32.3926 66.8888ZM36.1202 67.5908C35.8522 67.5908 35.6182 67.5528 35.4182 67.4768C35.2182 67.4008 35.0502 67.2928 34.9142 67.1528C34.7782 67.0128 34.6762 66.8448 34.6082 66.6488C34.5402 66.4488 34.5062 66.2288 34.5062 65.9888C34.5062 65.7488 34.5402 65.5248 34.6082 65.3168C34.6762 65.1048 34.7742 64.9208 34.9022 64.7648C35.0342 64.6088 35.1962 64.4888 35.3882 64.4048C35.5842 64.3168 35.8082 64.2728 36.0602 64.2728C36.3082 64.2728 36.5262 64.3148 36.7142 64.3988C36.9022 64.4788 37.0562 64.5988 37.1762 64.7588C37.3002 64.9148 37.3882 65.1048 37.4402 65.3288C37.4922 65.5488 37.5042 65.7988 37.4762 66.0788L35.0642 66.1028V65.6228L36.9242 65.6048L36.6842 65.8568C36.7082 65.6528 36.6962 65.4848 36.6482 65.3528C36.6002 65.2168 36.5262 65.1168 36.4262 65.0528C36.3262 64.9848 36.2062 64.9508 36.0662 64.9508C35.9142 64.9508 35.7822 64.9908 35.6702 65.0708C35.5622 65.1508 35.4802 65.2668 35.4242 65.4188C35.3682 65.5708 35.3402 65.7528 35.3402 65.9648C35.3402 66.3008 35.4082 66.5488 35.5442 66.7088C35.6842 66.8688 35.8782 66.9488 36.1262 66.9488C36.2382 66.9488 36.3322 66.9348 36.4082 66.9068C36.4842 66.8748 36.5462 66.8348 36.5942 66.7868C36.6422 66.7348 36.6782 66.6768 36.7022 66.6128C36.7302 66.5488 36.7482 66.4828 36.7562 66.4148L37.5242 66.5408C37.5082 66.6848 37.4682 66.8208 37.4042 66.9488C37.3442 67.0728 37.2582 67.1828 37.1462 67.2788C37.0342 67.3748 36.8942 67.4508 36.7262 67.5068C36.5582 67.5628 36.3562 67.5908 36.1202 67.5908ZM39.5186 67.5908C39.2506 67.5908 39.0166 67.5528 38.8166 67.4768C38.6166 67.4008 38.4486 67.2928 38.3126 67.1528C38.1766 67.0128 38.0746 66.8448 38.0066 66.6488C37.9386 66.4488 37.9046 66.2288 37.9046 65.9888C37.9046 65.7488 37.9386 65.5248 38.0066 65.3168C38.0746 65.1048 38.1726 64.9208 38.3006 64.7648C38.4326 64.6088 38.5946 64.4888 38.7866 64.4048C38.9826 64.3168 39.2066 64.2728 39.4586 64.2728C39.7066 64.2728 39.9246 64.3148 40.1126 64.3988C40.3006 64.4788 40.4546 64.5988 40.5746 64.7588C40.6986 64.9148 40.7866 65.1048 40.8386 65.3288C40.8906 65.5488 40.9026 65.7988 40.8746 66.0788L38.4626 66.1028V65.6228L40.3226 65.6048L40.0826 65.8568C40.1066 65.6528 40.0946 65.4848 40.0466 65.3528C39.9986 65.2168 39.9246 65.1168 39.8246 65.0528C39.7246 64.9848 39.6046 64.9508 39.4646 64.9508C39.3126 64.9508 39.1806 64.9908 39.0686 65.0708C38.9606 65.1508 38.8786 65.2668 38.8226 65.4188C38.7666 65.5708 38.7386 65.7528 38.7386 65.9648C38.7386 66.3008 38.8066 66.5488 38.9426 66.7088C39.0826 66.8688 39.2766 66.9488 39.5246 66.9488C39.6366 66.9488 39.7306 66.9348 39.8066 66.9068C39.8826 66.8748 39.9446 66.8348 39.9926 66.7868C40.0406 66.7348 40.0766 66.6768 40.1006 66.6128C40.1286 66.5488 40.1466 66.4828 40.1546 66.4148L40.9226 66.5408C40.9066 66.6848 40.8666 66.8208 40.8026 66.9488C40.7426 67.0728 40.6566 67.1828 40.5446 67.2788C40.4326 67.3748 40.2926 67.4508 40.1246 67.5068C39.9566 67.5628 39.7546 67.5908 39.5186 67.5908ZM42.7714 67.5068V65.6168V64.3568H43.4794L43.4674 65.4368H43.5634C43.6074 65.1648 43.6734 64.9448 43.7614 64.7768C43.8494 64.6048 43.9594 64.4788 44.0914 64.3988C44.2274 64.3148 44.3854 64.2728 44.5654 64.2728C44.7054 64.2728 44.8274 64.2968 44.9314 64.3448C45.0354 64.3928 45.1234 64.4648 45.1954 64.5608C45.2674 64.6528 45.3234 64.7728 45.3634 64.9208C45.4034 65.0648 45.4274 65.2368 45.4354 65.4368H45.5194C45.5674 65.1608 45.6394 64.9388 45.7354 64.7708C45.8354 64.5988 45.9554 64.4728 46.0954 64.3928C46.2394 64.3128 46.4014 64.2728 46.5814 64.2728C46.7614 64.2728 46.9114 64.3068 47.0314 64.3748C47.1554 64.4428 47.2534 64.5348 47.3254 64.6508C47.4014 64.7668 47.4594 64.8948 47.4994 65.0348C47.5394 65.1708 47.5654 65.3108 47.5774 65.4548C47.5934 65.5948 47.6014 65.7268 47.6014 65.8508V67.5068H46.7374V65.9408C46.7374 65.8688 46.7334 65.7828 46.7254 65.6828C46.7214 65.5788 46.7034 65.4768 46.6714 65.3768C46.6434 65.2728 46.5954 65.1888 46.5274 65.1248C46.4634 65.0568 46.3734 65.0228 46.2574 65.0228C46.1294 65.0228 46.0174 65.0708 45.9214 65.1668C45.8254 65.2588 45.7494 65.3908 45.6934 65.5628C45.6374 65.7348 45.6074 65.9408 45.6034 66.1808V67.5068H44.7634V65.9648C44.7634 65.8928 44.7594 65.8048 44.7514 65.7008C44.7434 65.5928 44.7254 65.4888 44.6974 65.3888C44.6694 65.2848 44.6214 65.1988 44.5534 65.1308C44.4894 65.0588 44.3974 65.0228 44.2774 65.0228C44.1494 65.0228 44.0374 65.0688 43.9414 65.1608C43.8454 65.2528 43.7694 65.3848 43.7134 65.5568C43.6614 65.7288 43.6354 65.9388 43.6354 66.1868V67.5068H42.7714ZM49.0121 67.5908C48.8401 67.5908 48.6841 67.5588 48.5441 67.4948C48.4081 67.4308 48.2981 67.3348 48.2141 67.2068C48.1341 67.0748 48.0941 66.9128 48.0941 66.7208C48.0941 66.5088 48.1381 66.3408 48.2261 66.2168C48.3181 66.0888 48.4361 65.9908 48.5801 65.9228C48.7281 65.8508 48.8841 65.7988 49.0481 65.7668C49.2161 65.7348 49.3761 65.7068 49.5281 65.6828C49.6881 65.6588 49.8121 65.6368 49.9001 65.6168C49.9921 65.5928 50.0561 65.5608 50.0921 65.5208C50.1321 65.4808 50.1521 65.4268 50.1521 65.3588C50.1521 65.2748 50.1321 65.2028 50.0921 65.1428C50.0521 65.0828 49.9941 65.0348 49.9181 64.9988C49.8461 64.9628 49.7541 64.9448 49.6421 64.9448C49.5341 64.9448 49.4321 64.9648 49.3361 65.0048C49.2401 65.0408 49.1581 65.1008 49.0901 65.1848C49.0221 65.2688 48.9781 65.3768 48.9581 65.5088L48.1901 65.3408C48.2221 65.1488 48.2821 64.9868 48.3701 64.8548C48.4581 64.7188 48.5661 64.6088 48.6941 64.5248C48.8261 64.4368 48.9741 64.3728 49.1381 64.3328C49.3021 64.2928 49.4741 64.2728 49.6541 64.2728C49.8901 64.2728 50.0921 64.3028 50.2601 64.3628C50.4321 64.4228 50.5721 64.5148 50.6801 64.6388C50.7881 64.7588 50.8681 64.9068 50.9201 65.0828C50.9721 65.2548 50.9981 65.4548 50.9981 65.6828V66.2288C50.9981 66.3688 51.0001 66.5108 51.0041 66.6548C51.0081 66.7988 51.0121 66.9428 51.0161 67.0868C51.0241 67.2268 51.0341 67.3668 51.0461 67.5068H50.2841C50.2761 67.3868 50.2661 67.2588 50.2541 67.1228C50.2461 66.9828 50.2421 66.8388 50.2421 66.6908H50.1581C50.1141 66.8588 50.0401 67.0108 49.9361 67.1468C49.8321 67.2828 49.7021 67.3908 49.5461 67.4708C49.3901 67.5508 49.2121 67.5908 49.0121 67.5908ZM49.3661 66.9608C49.4421 66.9608 49.5201 66.9468 49.6001 66.9188C49.6841 66.8868 49.7641 66.8428 49.8401 66.7868C49.9161 66.7308 49.9821 66.6588 50.0381 66.5708C50.0941 66.4788 50.1361 66.3728 50.1641 66.2528L50.1581 65.8748L50.3021 65.8868C50.2421 65.9388 50.1661 65.9808 50.0741 66.0128C49.9861 66.0408 49.8901 66.0648 49.7861 66.0848C49.6861 66.1008 49.5841 66.1188 49.4801 66.1388C49.3801 66.1588 49.2881 66.1848 49.2041 66.2168C49.1241 66.2488 49.0601 66.2928 49.0121 66.3488C48.9641 66.4048 48.9401 66.4808 48.9401 66.5768C48.9401 66.6968 48.9801 66.7908 49.0601 66.8588C49.1401 66.9268 49.2421 66.9608 49.3661 66.9608ZM52.8065 68.5388C52.6545 68.5388 52.4985 68.5248 52.3385 68.4968C52.1825 68.4688 52.0325 68.4268 51.8885 68.3708C51.7445 68.3148 51.6205 68.2408 51.5165 68.1488L51.7565 67.3748C51.8845 67.5068 52.0405 67.6048 52.2245 67.6688C52.4125 67.7328 52.5925 67.7648 52.7645 67.7648C52.9525 67.7648 53.1065 67.7328 53.2265 67.6688C53.3505 67.6088 53.4485 67.5248 53.5205 67.4168C53.5925 67.3088 53.6445 67.1828 53.6765 67.0388C53.7125 66.8948 53.7325 66.7388 53.7365 66.5708L53.7605 66.0488H53.6525C53.6245 66.3208 53.5645 66.5428 53.4725 66.7148C53.3845 66.8868 53.2705 67.0148 53.1305 67.0988C52.9905 67.1788 52.8285 67.2188 52.6445 67.2188C52.4405 67.2188 52.2725 67.1788 52.1405 67.0988C52.0125 67.0148 51.9105 66.9088 51.8345 66.7808C51.7625 66.6528 51.7105 66.5188 51.6785 66.3788C51.6465 66.2348 51.6265 66.0988 51.6185 65.9708C51.6105 65.8428 51.6065 65.7388 51.6065 65.6588V64.3568H52.4705V65.4128C52.4705 65.4888 52.4705 65.5748 52.4705 65.6708C52.4745 65.7668 52.4845 65.8628 52.5005 65.9588C52.5165 66.0548 52.5425 66.1428 52.5785 66.2228C52.6145 66.3028 52.6645 66.3668 52.7285 66.4148C52.7925 66.4628 52.8765 66.4868 52.9805 66.4868C53.0965 66.4868 53.1925 66.4528 53.2685 66.3848C53.3485 66.3128 53.4105 66.2208 53.4545 66.1088C53.4985 65.9968 53.5305 65.8748 53.5505 65.7428C53.5705 65.6108 53.5805 65.4848 53.5805 65.3648V64.3568H54.4445V66.6068C54.4445 66.7308 54.4365 66.8648 54.4205 67.0088C54.4045 67.1528 54.3765 67.2968 54.3365 67.4408C54.2965 67.5848 54.2365 67.7228 54.1565 67.8548C54.0805 67.9868 53.9825 68.1048 53.8625 68.2088C53.7425 68.3128 53.5945 68.3928 53.4185 68.4488C53.2465 68.5088 53.0425 68.5388 52.8065 68.5388ZM58.3133 67.5908C58.1173 67.5908 57.9473 67.5508 57.8033 67.4708C57.6593 67.3908 57.5413 67.2748 57.4493 67.1228C57.3573 66.9708 57.2933 66.7848 57.2573 66.5648H57.1673V67.5068H56.4413V66.0848V63.2588H57.3053V64.2428C57.3053 64.3428 57.2993 64.4508 57.2873 64.5668C57.2753 64.6828 57.2593 64.8028 57.2393 64.9268C57.2193 65.0508 57.1953 65.1808 57.1673 65.3168H57.2753C57.3233 65.0928 57.3913 64.9048 57.4793 64.7528C57.5713 64.5968 57.6873 64.4788 57.8273 64.3988C57.9713 64.3188 58.1393 64.2788 58.3313 64.2788C58.5873 64.2788 58.8073 64.3448 58.9913 64.4768C59.1753 64.6048 59.3193 64.7928 59.4233 65.0408C59.5273 65.2848 59.5793 65.5808 59.5793 65.9288C59.5793 66.2808 59.5253 66.5808 59.4173 66.8288C59.3133 67.0768 59.1673 67.2668 58.9793 67.3988C58.7913 67.5268 58.5693 67.5908 58.3133 67.5908ZM58.0133 66.8888C58.1533 66.8888 58.2733 66.8488 58.3733 66.7688C58.4733 66.6888 58.5493 66.5788 58.6013 66.4388C58.6573 66.2948 58.6853 66.1288 58.6853 65.9408C58.6853 65.7528 58.6593 65.5888 58.6073 65.4488C58.5553 65.3048 58.4793 65.1928 58.3793 65.1128C58.2833 65.0288 58.1653 64.9868 58.0253 64.9868C57.9373 64.9868 57.8553 65.0048 57.7793 65.0408C57.7033 65.0728 57.6353 65.1188 57.5753 65.1788C57.5193 65.2388 57.4693 65.3068 57.4253 65.3828C57.3853 65.4588 57.3533 65.5408 57.3293 65.6288C57.3093 65.7168 57.2993 65.8048 57.2993 65.8928V65.9828C57.2993 66.0908 57.3133 66.1988 57.3413 66.3068C57.3733 66.4148 57.4193 66.5128 57.4793 66.6008C57.5433 66.6848 57.6193 66.7548 57.7073 66.8108C57.7953 66.8628 57.8973 66.8888 58.0133 66.8888ZM61.1707 67.5908C61.0187 67.5908 60.8847 67.5688 60.7687 67.5248C60.6527 67.4848 60.5507 67.4228 60.4627 67.3388C60.3787 67.2548 60.3087 67.1528 60.2527 67.0328C60.1967 66.9088 60.1547 66.7668 60.1267 66.6068C60.1027 66.4428 60.0907 66.2628 60.0907 66.0668V64.3568H60.9547V65.9108C60.9547 65.9988 60.9567 66.0988 60.9607 66.2108C60.9687 66.3188 60.9887 66.4228 61.0207 66.5228C61.0527 66.6188 61.1047 66.6988 61.1767 66.7628C61.2487 66.8268 61.3487 66.8588 61.4767 66.8588C61.5847 66.8588 61.6807 66.8328 61.7647 66.7808C61.8487 66.7248 61.9187 66.6448 61.9747 66.5408C62.0347 66.4368 62.0807 66.3128 62.1127 66.1688C62.1447 66.0248 62.1627 65.8628 62.1667 65.6828V64.3568H63.0307V66.1568V67.5068H62.3107L62.3227 66.4268H62.2327C62.1847 66.6988 62.1147 66.9208 62.0227 67.0928C61.9347 67.2648 61.8207 67.3908 61.6807 67.4708C61.5407 67.5508 61.3707 67.5908 61.1707 67.5908ZM64.8592 68.5388C64.7072 68.5388 64.5512 68.5248 64.3912 68.4968C64.2352 68.4688 64.0852 68.4268 63.9412 68.3708C63.7972 68.3148 63.6732 68.2408 63.5692 68.1488L63.8092 67.3748C63.9372 67.5068 64.0932 67.6048 64.2772 67.6688C64.4652 67.7328 64.6452 67.7648 64.8172 67.7648C65.0052 67.7648 65.1592 67.7328 65.2792 67.6688C65.4032 67.6088 65.5012 67.5248 65.5732 67.4168C65.6452 67.3088 65.6972 67.1828 65.7292 67.0388C65.7652 66.8948 65.7852 66.7388 65.7892 66.5708L65.8132 66.0488H65.7052C65.6772 66.3208 65.6172 66.5428 65.5252 66.7148C65.4372 66.8868 65.3232 67.0148 65.1832 67.0988C65.0432 67.1788 64.8812 67.2188 64.6972 67.2188C64.4932 67.2188 64.3252 67.1788 64.1932 67.0988C64.0652 67.0148 63.9632 66.9088 63.8872 66.7808C63.8152 66.6528 63.7632 66.5188 63.7312 66.3788C63.6992 66.2348 63.6792 66.0988 63.6712 65.9708C63.6632 65.8428 63.6592 65.7388 63.6592 65.6588V64.3568H64.5232V65.4128C64.5232 65.4888 64.5232 65.5748 64.5232 65.6708C64.5272 65.7668 64.5372 65.8628 64.5532 65.9588C64.5692 66.0548 64.5952 66.1428 64.6312 66.2228C64.6672 66.3028 64.7172 66.3668 64.7812 66.4148C64.8452 66.4628 64.9292 66.4868 65.0332 66.4868C65.1492 66.4868 65.2452 66.4528 65.3212 66.3848C65.4012 66.3128 65.4632 66.2208 65.5072 66.1088C65.5512 65.9968 65.5832 65.8748 65.6032 65.7428C65.6232 65.6108 65.6332 65.4848 65.6332 65.3648V64.3568H66.4972V66.6068C66.4972 66.7308 66.4892 66.8648 66.4732 67.0088C66.4572 67.1528 66.4292 67.2968 66.3892 67.4408C66.3492 67.5848 66.2892 67.7228 66.2092 67.8548C66.1332 67.9868 66.0352 68.1048 65.9152 68.2088C65.7952 68.3128 65.6472 68.3928 65.4712 68.4488C65.2992 68.5088 65.0952 68.5388 64.8592 68.5388ZM68.4941 67.5068V64.3568H69.3521V67.5068H68.4941ZM68.9261 63.9548C68.7581 63.9548 68.6281 63.9208 68.5361 63.8528C68.4481 63.7808 68.4041 63.6768 68.4041 63.5408C68.4041 63.4008 68.4481 63.2968 68.5361 63.2288C68.6281 63.1568 68.7581 63.1208 68.9261 63.1208C69.0981 63.1208 69.2281 63.1568 69.3161 63.2288C69.4041 63.3008 69.4481 63.4048 69.4481 63.5408C69.4481 63.6728 69.4041 63.7748 69.3161 63.8468C69.2281 63.9188 69.0981 63.9548 68.9261 63.9548ZM71.2171 67.5788C71.0291 67.5788 70.8691 67.5528 70.7371 67.5008C70.6051 67.4488 70.4971 67.3728 70.4131 67.2728C70.3331 67.1728 70.2751 67.0528 70.2391 66.9128C70.2031 66.7688 70.1851 66.6068 70.1851 66.4268V65.0348H69.7591L69.7711 64.3988H69.9931C70.1491 64.3908 70.2631 64.3548 70.3351 64.2908C70.4071 64.2228 70.4511 64.1168 70.4671 63.9728L70.5211 63.6488H71.0191V64.3568H71.7991V65.0588H71.0191V66.3788C71.0191 66.5388 71.0571 66.6488 71.1331 66.7088C71.2131 66.7688 71.3111 66.7988 71.4271 66.7988C71.4951 66.7988 71.5631 66.7908 71.6311 66.7748C71.6991 66.7548 71.7611 66.7268 71.8171 66.6908V67.4888C71.6931 67.5248 71.5811 67.5488 71.4811 67.5608C71.3811 67.5728 71.2931 67.5788 71.2171 67.5788ZM72.7794 67.5848C72.5914 67.5848 72.4514 67.5448 72.3594 67.4648C72.2674 67.3848 72.2214 67.2608 72.2214 67.0928C72.2214 66.9208 72.2674 66.7948 72.3594 66.7148C72.4514 66.6348 72.5914 66.5948 72.7794 66.5948C72.9674 66.5948 73.1094 66.6348 73.2054 66.7148C73.3014 66.7948 73.3494 66.9208 73.3494 67.0928C73.3494 67.4208 73.1594 67.5848 72.7794 67.5848Z" fill="black"/>
<path d="M10.1455 72.297C10.1455 71.0748 11.1363 70.084 12.3585 70.084H74.6363C75.8585 70.084 76.8493 71.0748 76.8493 72.297V81.1489C76.8493 82.371 75.8585 83.3618 74.6363 83.3618H12.3585C11.1363 83.3618 10.1455 82.371 10.1455 81.1489V72.297Z" fill="#ED1B2E"/>
<path d="M21.0778 77.8001C20.7974 77.8001 20.5448 77.7614 20.3198 77.6839C20.0985 77.6028 19.9086 77.4848 19.75 77.3299C19.5951 77.1713 19.477 76.9758 19.3959 76.7434C19.3148 76.5111 19.2742 76.2418 19.2742 75.9357C19.2742 75.6259 19.3148 75.3511 19.3959 75.1113C19.4807 74.8716 19.6006 74.6688 19.7555 74.5028C19.9141 74.3331 20.1004 74.2059 20.3143 74.121C20.5282 74.0362 20.7661 73.9938 21.028 73.9938C21.2308 73.9938 21.4171 74.0215 21.5867 74.0768C21.7601 74.1284 21.9095 74.204 22.0349 74.3036C22.164 74.4032 22.2635 74.5249 22.3336 74.6688C22.4074 74.8089 22.4461 74.9693 22.4498 75.1501L21.7085 75.3492C21.7121 75.1906 21.6789 75.0597 21.6089 74.9564C21.5425 74.8532 21.454 74.7757 21.3433 74.7241C21.2364 74.6724 21.122 74.6466 21.0003 74.6466C20.8933 74.6466 20.7864 74.6688 20.6794 74.713C20.5725 74.7536 20.4747 74.8237 20.3862 74.9232C20.3014 75.0191 20.2331 75.1464 20.1815 75.305C20.1299 75.4599 20.104 75.6535 20.104 75.8859C20.104 76.1883 20.1465 76.4318 20.2313 76.6162C20.3198 76.8006 20.4397 76.9371 20.5909 77.0256C20.7421 77.1104 20.9118 77.1528 21.0999 77.1528C21.3027 77.1528 21.4595 77.1122 21.5701 77.0311C21.6845 76.9463 21.7656 76.8375 21.8136 76.7047C21.8652 76.5719 21.8929 76.4336 21.8966 76.2898L22.5936 76.4059C22.59 76.6014 22.5604 76.784 22.5051 76.9536C22.4498 77.1233 22.3631 77.2727 22.2451 77.4018C22.1271 77.5272 21.9722 77.6249 21.7804 77.695C21.5886 77.7651 21.3544 77.8001 21.0778 77.8001ZM22.8088 77.7227L24.0592 74.0712H25.2265L26.4768 77.7227H25.6138L24.6899 74.7019H24.6069L23.6774 77.7227H22.8088ZM23.5115 77.0034V76.4613H25.8904V77.0034H23.5115ZM26.987 77.7227V74.0712H28.0216L29.6813 76.6549H29.7422L29.6924 74.0712H30.4669V77.7227H29.532L27.7726 75.0173H27.7118L27.7616 77.7227H26.987ZM32.9584 77.8001C32.6781 77.8001 32.4255 77.7614 32.2005 77.6839C31.9792 77.6028 31.7893 77.4848 31.6307 77.3299C31.4758 77.1713 31.3577 76.9758 31.2766 76.7434C31.1954 76.5111 31.1549 76.2418 31.1549 75.9357C31.1549 75.6259 31.1954 75.3511 31.2766 75.1113C31.3614 74.8716 31.4813 74.6688 31.6362 74.5028C31.7948 74.3331 31.981 74.2059 32.195 74.121C32.4089 74.0362 32.6468 73.9938 32.9087 73.9938C33.1115 73.9938 33.2978 74.0215 33.4674 74.0768C33.6408 74.1284 33.7902 74.204 33.9156 74.3036C34.0446 74.4032 34.1442 74.5249 34.2143 74.6688C34.2881 74.8089 34.3268 74.9693 34.3305 75.1501L33.5891 75.3492C33.5928 75.1906 33.5596 75.0597 33.4896 74.9564C33.4232 74.8532 33.3346 74.7757 33.224 74.7241C33.117 74.6724 33.0027 74.6466 32.881 74.6466C32.774 74.6466 32.6671 74.6688 32.5601 74.713C32.4531 74.7536 32.3554 74.8237 32.2669 74.9232C32.1821 75.0191 32.1138 75.1464 32.0622 75.305C32.0106 75.4599 31.9847 75.6535 31.9847 75.8859C31.9847 76.1883 32.0271 76.4318 32.112 76.6162C32.2005 76.8006 32.3204 76.9371 32.4716 77.0256C32.6228 77.1104 32.7925 77.1528 32.9806 77.1528C33.1834 77.1528 33.3402 77.1122 33.4508 77.0311C33.5652 76.9463 33.6463 76.8375 33.6943 76.7047C33.7459 76.5719 33.7736 76.4336 33.7772 76.2898L34.4743 76.4059C34.4706 76.6014 34.4411 76.784 34.3858 76.9536C34.3305 77.1233 34.2438 77.2727 34.1258 77.4018C34.0078 77.5272 33.8529 77.6249 33.6611 77.695C33.4693 77.7651 33.2351 77.8001 32.9584 77.8001ZM35.0534 77.7227V74.0712H35.8556V77.7227H35.0534ZM35.6066 77.7227V77.0754H37.8749V77.7227H35.6066ZM35.6066 76.168V75.5816H37.5983V76.168H35.6066ZM35.6066 74.713V74.0712H37.8583V74.713H35.6066ZM38.5003 77.7227V74.0712H39.297V77.7227H38.5003ZM38.6608 77.7227V77.0532H40.8406V77.7227H38.6608ZM43.3701 77.7227V74.0712H44.1723V77.7227H43.3701ZM42.2912 74.7351V74.0712H45.2566V74.7351H42.2912ZM48.1626 77.7227V74.0712H48.9593V77.7227H48.1626ZM45.7671 77.7227V74.0712H46.5637V77.7227H45.7671ZM46.2318 76.1957V75.5484H48.478V76.1957H46.2318ZM49.7759 77.7227V74.0712H50.5781V77.7227H49.7759ZM50.3292 77.7227V77.0754H52.5975V77.7227H50.3292ZM50.3292 76.168V75.5816H52.3208V76.168H50.3292ZM50.3292 74.713V74.0712H52.5809V74.713H50.3292ZM55.9086 77.8001C55.6725 77.8001 55.4586 77.7761 55.2668 77.7282C55.0787 77.6839 54.9164 77.6157 54.78 77.5235C54.6435 77.4276 54.5365 77.3096 54.4591 77.1694C54.3853 77.0293 54.3429 76.8651 54.3318 76.677L55.0289 76.4557C55.0363 76.618 55.0787 76.7545 55.1562 76.8651C55.2336 76.9758 55.3406 77.0588 55.4771 77.1141C55.6172 77.1657 55.7758 77.1915 55.9528 77.1915C56.1188 77.1915 56.259 77.1713 56.3733 77.1307C56.4913 77.0864 56.578 77.0311 56.6333 76.9647C56.6923 76.8946 56.7219 76.819 56.7219 76.7379C56.7219 76.642 56.685 76.5645 56.6112 76.5055C56.5374 76.4465 56.4379 76.3967 56.3125 76.3561C56.187 76.3156 56.0414 76.2768 55.8754 76.24C55.6947 76.1994 55.5158 76.1533 55.3387 76.1017C55.1654 76.05 55.0068 75.9836 54.863 75.9025C54.7228 75.8213 54.6103 75.7162 54.5255 75.5871C54.4406 75.458 54.3982 75.2958 54.3982 75.1003C54.3982 74.8753 54.4554 74.6817 54.5697 74.5194C54.6841 74.3534 54.8482 74.2243 55.0621 74.1321C55.2797 74.0399 55.5434 73.9938 55.8533 73.9938C56.1631 73.9938 56.4268 74.0399 56.6444 74.1321C56.8657 74.2206 57.0372 74.3479 57.1589 74.5138C57.2806 74.6761 57.347 74.8679 57.3581 75.0892L56.6444 75.2939C56.6444 75.1796 56.6241 75.08 56.5835 74.9952C56.5467 74.9066 56.495 74.8347 56.4286 74.7794C56.3622 74.7241 56.2793 74.6817 56.1797 74.6522C56.0838 74.6226 55.9731 74.6079 55.8477 74.6079C55.7039 74.6079 55.5785 74.6263 55.4715 74.6632C55.3682 74.7001 55.289 74.7499 55.2336 74.8126C55.1783 74.8753 55.1506 74.9472 55.1506 75.0284C55.1506 75.1316 55.1912 75.2165 55.2724 75.2829C55.3572 75.3456 55.4697 75.3972 55.6098 75.4378C55.75 75.4783 55.9012 75.5171 56.0635 75.5539C56.2221 75.5871 56.3844 75.6296 56.5503 75.6812C56.7163 75.7291 56.8694 75.7937 57.0095 75.8748C57.1534 75.9523 57.2677 76.0592 57.3525 76.1957C57.4411 76.3285 57.4853 76.4963 57.4853 76.6992C57.4853 76.9205 57.4263 77.1141 57.3083 77.2801C57.1903 77.446 57.0132 77.5751 56.7772 77.6673C56.5448 77.7559 56.2553 77.8001 55.9086 77.8001ZM57.7864 77.7227L59.0367 74.0712H60.204L61.4544 77.7227H60.5913L59.6674 74.7019H59.5844L58.655 77.7227H57.7864ZM58.489 77.0034V76.4613H60.8679V77.0034H58.489ZM61.9646 77.7227V74.0712H62.7612V77.7227H61.9646ZM62.125 77.7227V77.0532H64.3048V77.7227H62.125ZM64.7848 77.7227V74.0712H65.587V77.7227H64.7848ZM65.3381 77.7227V77.0754H67.6064V77.7227H65.3381ZM65.3381 76.168V75.5816H67.3297V76.168H65.3381ZM65.3381 74.713V74.0712H67.5898V74.713H65.3381Z" fill="white"/>
</g>
<rect x="0.134352" y="0.134352" width="89.7313" height="89.7313" rx="0.940461" stroke="#E6EAED" stroke-width="0.268703"/>
<defs>
<filter id="filter0_b_7049_8316" x="-4.83486" y="39.0494" width="100.413" height="55.785" filterUnits="userSpaceOnUse" color-interpolation-filters="sRGB">
<feFlood flood-opacity="0" result="BackgroundImageFix"/>
<feGaussianBlur in="BackgroundImageFix" stdDeviation="2.78926"/>
<feComposite in2="SourceAlpha" operator="in" result="effect1_backgroundBlur_7049_8316"/>
<feBlend mode="normal" in="SourceGraphic" in2="effect1_backgroundBlur_7049_8316" result="shape"/>
</filter>
<clipPath id="clip0_7049_8316">
<rect width="90" height="90" rx="1.07481" fill="white"/>
</clipPath>
</defs>
</svg>
