<svg width="50" height="50" viewBox="0 0 50 50" fill="none" xmlns="http://www.w3.org/2000/svg">
<circle cx="25" cy="25" r="25" fill="#F2F2F2"/>
<path d="M29 31L32 34M32 34L35 31M32 34V28M35 23H15M35 25V21.2C35 20.0799 35 19.5198 34.782 19.092C34.5903 18.7157 34.2843 18.4097 33.908 18.218C33.4802 18 32.9201 18 31.8 18H18.2C17.0799 18 16.5198 18 16.092 18.218C15.7157 18.4097 15.4097 18.7157 15.218 19.092C15 19.5198 15 20.0799 15 21.2V28.8C15 29.9201 15 30.4802 15.218 30.908C15.4097 31.2843 15.7157 31.5903 16.092 31.782C16.5198 32 17.0799 32 18.2 32H25" stroke="#01C7B1" stroke-width="2" stroke-linecap="round" stroke-linejoin="round"/>
</svg>
