<svg width="1440" height="672" viewBox="0 0 1440 672" fill="none" xmlns="http://www.w3.org/2000/svg">
<g clip-path="url(#clip0_425_276)">
<rect width="1440" height="672" fill="#018B7C"/>
<mask id="mask0_425_276" style="mask-type:alpha" maskUnits="userSpaceOnUse" x="-311" y="346" width="602" height="602">
<circle cx="-10" cy="647" r="301" fill="#C4C4C4"/>
</mask>
<g mask="url(#mask0_425_276)">
<path d="M-391.56 569.341C-391.56 569.341 -210.398 539.011 -163.758 424.92C-119.277 315.795 64.6926 289.242 64.6926 289.242" stroke="#F7C193" stroke-opacity="0.4" stroke-width="15" stroke-miterlimit="10"/>
<path d="M-391.56 608.199C-391.56 608.199 -182.111 574.306 -128.238 443.485C-76.9553 318.709 135.624 289.242 135.624 289.242" stroke="#F7C193" stroke-opacity="0.4" stroke-width="15" stroke-miterlimit="10"/>
<path d="M-391.56 647.057C-391.56 647.057 -153.825 609.602 -92.718 462.158C-34.6341 321.624 206.448 289.242 206.448 289.242" stroke="#F7C193" stroke-opacity="0.4" stroke-width="15" stroke-miterlimit="10"/>
<path d="M-391.56 686.022C-391.56 686.022 -125.647 645.005 -57.306 480.831C7.79539 324.43 277.379 289.242 277.379 289.242" stroke="#F7C193" stroke-opacity="0.4" stroke-width="15" stroke-miterlimit="10"/>
<path d="M-391.56 724.88C-391.56 724.88 -97.3603 680.193 -21.7861 499.505C50.1173 327.344 348.311 289.242 348.311 289.242" stroke="#F7C193" stroke-opacity="0.4" stroke-width="15" stroke-miterlimit="10"/>
<path d="M-391.56 763.737C-391.56 763.737 -69.0737 715.489 13.6255 518.071C92.4385 330.258 419.243 289.242 419.243 289.242" stroke="#F7C193" stroke-opacity="0.4" stroke-width="15" stroke-miterlimit="10"/>
<path d="M-391.56 802.703C-391.56 802.703 -40.896 750.893 49.1454 536.851C134.76 333.064 490.067 289.242 490.067 289.242" stroke="#F7C193" stroke-opacity="0.4" stroke-width="15" stroke-miterlimit="10"/>
<path d="M-391.56 841.558C-391.56 841.558 -12.6091 786.189 84.5578 555.525C177.082 335.979 560.999 289.242 560.999 289.242" stroke="#F7C193" stroke-opacity="0.4" stroke-width="15" stroke-miterlimit="10"/>
<path d="M-391.56 880.524C-391.56 880.524 15.6769 821.484 120.078 574.198C219.403 338.893 631.93 289.242 631.93 289.242" stroke="#F7C193" stroke-opacity="0.4" stroke-width="15" stroke-miterlimit="10"/>
<path d="M-391.56 919.385C-391.56 919.385 43.8554 856.78 155.489 592.872C261.725 341.7 702.86 289.242 702.86 289.242" stroke="#F7C193" stroke-opacity="0.4" stroke-width="15" stroke-miterlimit="10"/>
<path d="M-391.56 958.238C-391.56 958.238 72.1414 892.076 191.009 611.436C304.047 344.614 773.791 289.242 773.791 289.242" stroke="#F7C193" stroke-opacity="0.4" stroke-width="15" stroke-miterlimit="10"/>
<path d="M-391.56 997.204C-391.56 997.204 100.428 927.372 226.529 630.218C346.368 347.529 844.617 289.242 844.617 289.242" stroke="#F7C193" stroke-opacity="0.4" stroke-width="15" stroke-miterlimit="10"/>
<path d="M-391.56 1036.06C-391.56 1036.06 128.606 962.668 261.941 648.783C388.69 350.335 915.549 289.242 915.549 289.242" stroke="#F7C193" stroke-opacity="0.4" stroke-width="15" stroke-miterlimit="10"/>
<path d="M-391.56 1074.93C-391.56 1074.93 156.893 997.964 297.461 667.456C431.011 353.249 986.481 289.242 986.481 289.242" stroke="#F7C193" stroke-opacity="0.4" stroke-width="15" stroke-miterlimit="10"/>
<path d="M-391.56 1113.89C-391.56 1113.89 185.179 1033.36 332.872 686.13C473.332 356.163 1057.41 289.242 1057.41 289.242" stroke="#F7C193" stroke-opacity="0.4" stroke-width="15" stroke-miterlimit="10"/>
<path d="M-391.56 1152.74C-391.56 1152.74 213.358 1068.56 368.392 704.803C515.654 358.969 1128.24 289.242 1128.24 289.242" stroke="#F7C193" stroke-opacity="0.4" stroke-width="15" stroke-miterlimit="10"/>
</g>
<mask id="mask1_425_276" style="mask-type:alpha" maskUnits="userSpaceOnUse" x="-165" y="-221" width="316" height="316">
<circle cx="-7.00014" cy="-63" r="157" transform="rotate(33.0094 -7.00014 -63)" fill="#C4C4C4"/>
</mask>
<g mask="url(#mask1_425_276)">
<path d="M-173.91 -171.396C-173.91 -171.396 -59.2825 -120.226 9.34219 -167.354C74.6814 -212.319 189.332 -157.979 189.332 -157.979" stroke="#F7C193" stroke-opacity="0.4" stroke-width="15" stroke-miterlimit="10"/>
<path d="M-184.982 -154.353C-184.982 -154.353 -57.0173 -96.7337 19.5254 -149.124C92.4427 -199.036 220.357 -137.824 220.357 -137.824" stroke="#F7C193" stroke-opacity="0.4" stroke-width="15" stroke-miterlimit="10"/>
<path d="M-196.024 -137.357C-196.024 -137.357 -54.6435 -73.3051 29.7556 -130.863C110.126 -185.735 251.383 -117.668 251.383 -117.668" stroke="#F7C193" stroke-opacity="0.4" stroke-width="15" stroke-miterlimit="10"/>
<path d="M-207.065 -120.36C-207.065 -120.36 -52.3003 -49.829 39.9691 -112.68C127.809 -172.435 282.408 -97.5126 282.408 -97.5126" stroke="#F7C193" stroke-opacity="0.4" stroke-width="15" stroke-miterlimit="10"/>
<path d="M-218.138 -103.317C-218.138 -103.317 -50.0356 -26.3364 50.169 -94.3727C145.524 -159.181 313.387 -77.3878 313.387 -77.3878" stroke="#F7C193" stroke-opacity="0.4" stroke-width="15" stroke-miterlimit="10"/>
<path d="M-229.178 -86.3217C-229.178 -86.3217 -47.6923 -2.86028 60.3521 -76.1423C163.207 -145.881 344.412 -57.2324 344.412 -57.2324" stroke="#F7C193" stroke-opacity="0.4" stroke-width="15" stroke-miterlimit="10"/>
<path d="M-240.251 -69.2779C-240.251 -69.2779 -45.3492 20.6153 70.5825 -57.8817C180.89 -132.58 375.437 -37.0771 375.437 -37.0771" stroke="#F7C193" stroke-opacity="0.4" stroke-width="15" stroke-miterlimit="10"/>
<path d="M-251.293 -52.2802C-251.293 -52.2802 -43.0536 44.061 80.7653 -39.6515C198.604 -119.327 406.462 -16.9222 406.462 -16.9222" stroke="#F7C193" stroke-opacity="0.4" stroke-width="15" stroke-miterlimit="10"/>
<path d="M-262.333 -35.286C-262.333 -35.286 -40.7107 67.5369 91.0265 -21.4383C216.287 -106.026 437.487 3.23313 437.487 3.23313" stroke="#F7C193" stroke-opacity="0.4" stroke-width="15" stroke-miterlimit="10"/>
<path d="M-273.406 -18.2422C-273.406 -18.2422 -38.3674 91.0131 101.226 -3.13021C233.97 -92.7258 468.467 23.3587 468.467 23.3587" stroke="#F7C193" stroke-opacity="0.4" stroke-width="15" stroke-miterlimit="10"/>
<path d="M-284.448 -1.24444C-284.448 -1.24444 -36.0718 114.458 111.44 15.0526C251.685 -79.4725 499.492 43.5141 499.492 43.5141" stroke="#F7C193" stroke-opacity="0.4" stroke-width="15" stroke-miterlimit="10"/>
<path d="M-295.49 15.7534C-295.49 15.7534 -33.7286 137.934 121.67 33.3133C269.368 -66.1721 530.518 63.6694 530.518 63.6694" stroke="#F7C193" stroke-opacity="0.4" stroke-width="15" stroke-miterlimit="10"/>
<path d="M-306.563 32.7971C-306.563 32.7971 -31.4155 161.456 131.853 51.5435C287.051 -52.8717 561.543 83.8248 561.543 83.8248" stroke="#F7C193" stroke-opacity="0.4" stroke-width="15" stroke-miterlimit="10"/>
<path d="M-317.603 49.7914C-317.603 49.7914 -29.0898 184.856 142.083 69.8041C304.765 -39.6184 592.522 103.95 592.522 103.95" stroke="#F7C193" stroke-opacity="0.4" stroke-width="15" stroke-miterlimit="10"/>
</g>
<mask id="mask2_425_276" style="mask-type:alpha" maskUnits="userSpaceOnUse" x="1046" y="-221" width="551" height="535">
<path d="M1170.51 -221L1333.4 -87.1929L1511.03 -200.73L1434.08 -4.49559L1596.97 129.311L1386.52 116.784L1309.57 313.019L1256.45 109.041L1046 96.5144L1223.63 -17.0231L1170.51 -221Z" fill="#FF866C"/>
</mask>
<g mask="url(#mask2_425_276)">
<path d="M1575.75 215.734C1575.75 215.734 1522.57 228.104 1508.77 265.214C1495.39 300.977 1441.2 312.758 1441.2 312.758" stroke="#76F7BF" stroke-opacity="0.35" stroke-width="15" stroke-miterlimit="10"/>
<path d="M1575.75 185.356C1575.75 185.356 1500.61 200.587 1481.09 250.656C1462.49 298.705 1385.91 312.758 1385.91 312.758" stroke="#76F7BF" stroke-opacity="0.35" stroke-width="15" stroke-miterlimit="10"/>
<path d="M1575.75 155.062C1575.75 155.062 1478.56 173.07 1453.48 236.098C1429.5 296.518 1330.71 312.759 1330.71 312.759" stroke="#76F7BF" stroke-opacity="0.35" stroke-width="15" stroke-miterlimit="10"/>
<path d="M1575.75 124.684C1575.75 124.684 1456.51 145.469 1425.8 221.54C1396.43 294.246 1275.42 312.758 1275.42 312.758" stroke="#76F7BF" stroke-opacity="0.35" stroke-width="15" stroke-miterlimit="10"/>
<path d="M1575.75 94.3901C1575.75 94.3901 1434.55 118.036 1398.2 206.982C1363.53 291.973 1220.22 312.758 1220.22 312.758" stroke="#76F7BF" stroke-opacity="0.35" stroke-width="15" stroke-miterlimit="10"/>
<path d="M1575.75 64.0961C1575.75 64.0961 1412.5 90.519 1370.51 192.508C1330.46 289.785 1164.85 312.758 1164.85 312.758" stroke="#76F7BF" stroke-opacity="0.35" stroke-width="15" stroke-miterlimit="10"/>
<path d="M1575.75 33.7181C1575.75 33.7181 1390.46 62.9181 1342.83 177.867C1297.47 287.514 1109.56 312.758 1109.56 312.758" stroke="#76F7BF" stroke-opacity="0.35" stroke-width="15" stroke-miterlimit="10"/>
<path d="M1575.75 3.42432C1575.75 3.42432 1368.49 35.4012 1315.23 163.393C1264.48 285.242 1054.28 312.758 1054.28 312.758" stroke="#76F7BF" stroke-opacity="0.35" stroke-width="15" stroke-miterlimit="10"/>
<path d="M1575.75 -26.8695C1575.75 -26.8695 1346.45 7.96847 1287.54 148.835C1231.5 283.054 999.076 312.759 999.076 312.759" stroke="#76F7BF" stroke-opacity="0.35" stroke-width="15" stroke-miterlimit="10"/>
<path d="M1575.75 -57.2476C1575.75 -57.2476 1324.4 -19.6326 1259.94 134.277C1198.51 280.782 943.79 312.758 943.79 312.758" stroke="#76F7BF" stroke-opacity="0.35" stroke-width="15" stroke-miterlimit="10"/>
<path d="M1575.75 -87.5415C1575.75 -87.5415 1302.44 -47.1497 1232.25 119.719C1165.52 278.594 888.503 312.758 888.503 312.758" stroke="#76F7BF" stroke-opacity="0.35" stroke-width="15" stroke-miterlimit="10"/>
<path d="M1575.75 -117.835C1575.75 -117.835 1280.39 -74.6665 1204.65 105.161C1132.54 276.322 833.217 312.758 833.217 312.758" stroke="#76F7BF" stroke-opacity="0.35" stroke-width="15" stroke-miterlimit="10"/>
<path d="M1575.75 -148.213C1575.75 -148.213 1258.34 -102.183 1176.97 90.6034C1099.55 274.05 778.015 312.759 778.015 312.759" stroke="#76F7BF" stroke-opacity="0.35" stroke-width="15" stroke-miterlimit="10"/>
<path d="M1575.75 -178.507C1575.75 -178.507 1236.38 -129.7 1149.37 76.0455C1066.56 271.862 722.729 312.758 722.729 312.758" stroke="#76F7BF" stroke-opacity="0.35" stroke-width="15" stroke-miterlimit="10"/>
<path d="M1575.75 -208.801C1575.75 -208.801 1214.33 -157.217 1121.68 61.5717C1033.58 269.59 667.442 312.758 667.442 312.758" stroke="#76F7BF" stroke-opacity="0.35" stroke-width="15" stroke-miterlimit="10"/>
<path d="M1575.75 -239.179C1575.75 -239.179 1192.28 -184.734 1094 46.9297C1000.59 267.318 612.156 312.758 612.156 312.758" stroke="#76F7BF" stroke-opacity="0.35" stroke-width="15" stroke-miterlimit="10"/>
<path d="M1575.75 -269.473C1575.75 -269.473 1170.32 -212.251 1066.4 32.4559C967.604 265.13 556.87 312.758 556.87 312.758" stroke="#76F7BF" stroke-opacity="0.35" stroke-width="15" stroke-miterlimit="10"/>
<path d="M1575.75 -299.767C1575.75 -299.767 1148.27 -239.768 1038.71 17.8981C934.617 262.858 501.667 312.758 501.667 312.758" stroke="#76F7BF" stroke-opacity="0.35" stroke-width="15" stroke-miterlimit="10"/>
<path d="M1575.75 -330.145C1575.75 -330.145 1126.23 -267.369 1011.11 3.34013C901.547 260.586 446.381 312.758 446.381 312.758" stroke="#76F7BF" stroke-opacity="0.35" stroke-width="15" stroke-miterlimit="10"/>
<path d="M1575.75 -360.439C1575.75 -360.439 1104.26 -294.802 983.424 -11.2178C868.56 258.398 391.095 312.758 391.095 312.758" stroke="#76F7BF" stroke-opacity="0.35" stroke-width="15" stroke-miterlimit="10"/>
</g>
</g>
<defs>
<clipPath id="clip0_425_276">
<rect width="1440" height="672" fill="white"/>
</clipPath>
</defs>
</svg>
