<svg xmlns="http://www.w3.org/2000/svg" width="63.647" height="40.803" viewBox="0 0 63.647 40.803"><g id="Group_7" data-name="Group 7" transform="translate(-134.765 -178.279)"><g id="Group_7-2" data-name="Group 7" transform="translate(157.1 178.279)"><path id="Path_21" data-name="Path 21" d="M219.851 223.59c-.011 3.44 1.466 4.039 3.428 2.566l8.842-6.775a3.274 3.274 0 0 0 1.6-2.582h-13.87z" transform="translate(-219.851 -206.687)" fill="#009e96"/><path id="Path_22" data-name="Path 22" d="M253.179 223.59c.011 3.44-1.466 4.039-3.428 2.566l-8.842-6.775a3.274 3.274 0 0 1-1.6-2.582h13.859z" transform="translate(-234.201 -206.687)" fill="#ef4923"/><path id="Path_23" data-name="Path 23" d="M253.179 181.6c.011-3.44-1.466-4.039-3.428-2.566l-8.842 6.775a3.274 3.274 0 0 0-1.6 2.582h13.859z" transform="translate(-234.201 -178.279)" fill="#f7961c"/><path id="Path_24" data-name="Path 24" d="M219.851 181.6c-.011-3.44 1.466-4.039 3.428-2.566l8.842 6.775a3.274 3.274 0 0 1 1.6 2.582h-13.87z" transform="translate(-219.851 -178.279)" fill="#082e4d"/></g><g id="Group_8" data-name="Group 8" transform="translate(134.765 202.879)" fill="#082e4d"><path id="Path_25" data-name="Path 25" d="M134.765 273.271c0-1.024.25-1.274 1.272-1.274h.432c1.022 0 1.272.25 1.272 1.274v4.3a4.668 4.668 0 0 1 3.475-1.3c1.817 0 3.861.842 3.861 3.914v6.463c0 1.024-.25 1.274-1.272 1.274h-.431c-1.022 0-1.272-.251-1.272-1.274v-5.939c0-1.274-.727-1.638-1.908-1.638-1.317 0-2.453.524-2.453 2.753v4.824c0 1.024-.25 1.274-1.272 1.274h-.432c-1.022 0-1.272-.251-1.272-1.274z" transform="translate(-134.765 -271.997)"/><path id="Path_26" data-name="Path 26" d="M185.505 296.39c0 1.16.341 1.8 2.2 1.8s2.158-.637 2.158-1.8v-5.78c0-1.024.25-1.274 1.272-1.274h.432c1.022 0 1.272.25 1.272 1.274v5.78c0 3.049-1.544 4.6-5.133 4.6-3.429 0-5.179-1.616-5.179-4.6v-5.78c0-1.024.25-1.274 1.272-1.274h.432c1.022 0 1.272.25 1.272 1.274z" transform="translate(-169.992 -284.784)"/><path id="Path_27" data-name="Path 27" d="M238.152 281.327c0-1.456-.386-2.252-2.43-2.252s-2.476.8-2.476 2.252v1.82c0 1.457.432 2.253 2.476 2.253 2.089 0 2.43-.8 2.43-2.253zm-7.858-8.055c0-1.024.25-1.274 1.272-1.274h.409c1.022 0 1.272.25 1.272 1.274v4.3a3.565 3.565 0 0 1 3.112-1.3c3.157 0 4.77 1.867 4.77 5.12v1.82c0 3.573-2.021 4.984-5.428 4.984-3 0-5.406-1.411-5.406-4.984z" transform="translate(-205.218 -271.997)"/><path id="Path_28" data-name="Path 28" d="M285.95 289.652a8.448 8.448 0 0 1-1.59.136c-.84 0-1.4-.367-1.429-1.436a.837.837 0 0 0 .02-.177v-4.417h2.567c1.022 0 1.272-.25 1.272-1.274v-.25c0-1.024-.25-1.274-1.272-1.274h-2.567v-1.707c0-1.024-.25-1.274-1.272-1.274h-.409c-1.022 0-1.272.25-1.272 1.274v1.566l-.022.142v7.282q0 .311.022.6a2.219 2.219 0 0 0 .076.621c.414 2.362 2.1 3.13 4.285 3.13a7.277 7.277 0 0 0 1.59-.137c1-.2 1.249-.591 1.249-1.616v-.25c0-1.025-.25-1.115-1.249-.933" transform="translate(-241.86 -276.407)"/><path id="Path_29" data-name="Path 29" d="M315.055 292.937h4.474v-.337c0-1.137-.75-1.729-2.249-1.729s-2.226.592-2.226 1.729zm7.245 1.163c-.136 1.046-.432 1.251-1.476 1.251h-5.769v.341c0 1.183.863 1.73 2.975 1.73a13.924 13.924 0 0 0 2.748-.318c1-.2 1.2.068 1.2 1.092v.25c0 1.025-.2 1.229-1.2 1.48a12.238 12.238 0 0 1-2.771.3c-4.02 0-5.928-1.456-5.928-4.984v-1.82c0-2.935 1.34-5.12 5.292-5.12 3.316 0 4.974 1.684 4.974 4.915a7.533 7.533 0 0 1-.045.888" transform="translate(-265.536 -284.017)"/><path id="Path_30" data-name="Path 30" d="M358.806 273.271c0-1.024.25-1.274 1.272-1.274h.409c1.022 0 1.272.25 1.272 1.274v10.559c0 1.183.318 1.525 1 1.525h.113c.59 0 .772.136.772 1.046v.433c0 .91-.182 1.161-.772 1.274a2.771 2.771 0 0 1-.681.046c-1.931 0-3.384-1.07-3.384-3.664z" transform="translate(-299.996 -271.997)"/></g></g></svg>