<svg width="130" height="65" viewBox="0 0 130 65" fill="none" xmlns="http://www.w3.org/2000/svg">
<path d="M42.2786 25.7205H42.943L41.6438 21.4097C41.9096 21.0553 42.072 20.6272 42.072 20.1548C42.072 19.3576 41.6143 18.6637 40.95 18.3242V11.3412C41.0681 11.1788 41.1419 10.9869 41.1714 10.7802C41.1714 10.3963 40.95 10.0568 40.6104 9.87963L25.4634 3.08858C25.2272 2.97047 24.9467 2.97047 24.7105 3.08858L9.56349 9.89439C9.20917 10.042 8.97296 10.3963 9.00249 10.7949C9.00249 11.1788 9.26822 11.5183 9.6373 11.6217L14.8192 13.408V16.1392C14.8192 16.4345 14.952 16.715 15.1882 16.8921C15.3506 17.0102 15.5278 17.0693 15.7197 17.0693C15.8378 17.0693 15.9412 17.0545 16.0593 17.0102C18.9676 15.9325 22.0236 15.3863 25.0648 15.3863C28.106 15.3863 31.1767 15.9325 34.0703 17.0102L34.4099 17.0841C34.6018 17.0841 34.779 17.0102 34.9266 16.8921C34.9856 16.8478 35.0447 16.8036 35.089 16.7593C35.2366 16.5969 35.3252 16.3902 35.3252 16.1687V13.3637L39.0603 12.1384V18.3242C38.3959 18.6637 37.9383 19.3576 37.9383 20.1548C37.9383 20.6272 38.1007 21.0553 38.3664 21.4097L37.0672 25.7205H37.7316L38.5879 22.8564L39.075 23.0041L38.2631 25.7205H39.7246V23.0631H40.2413V25.7205H41.7029L40.8909 23.0041L41.3781 22.8564L42.2786 25.7205Z" fill="#0A2F4D"/>
<path d="M13.3872 41.7533C13.3724 45.9608 15.1735 46.6842 17.5799 44.8831L28.3865 36.601C29.7448 35.5823 30.35 34.5046 30.3353 33.4417H13.3872V41.7533Z" fill="#009E96"/>
<path d="M36.5653 41.7533C36.5801 45.9608 34.779 46.6842 32.3726 44.8831L21.5659 36.601C20.2077 35.5823 19.6024 34.5046 19.6172 33.4417C20.3111 33.4417 36.5505 33.4417 36.5505 33.4417L36.5653 41.7533Z" fill="#EF4923"/>
<path d="M36.5653 25.1595C36.5801 20.952 34.779 20.2286 32.3726 22.0297L21.5659 30.3118C20.2077 31.3305 19.6024 32.4082 19.6172 33.4711C20.3111 33.4711 36.5505 33.4711 36.5505 33.4711L36.5653 25.1595Z" fill="#F7961C"/>
<path d="M13.3871 25.1595C13.3724 20.952 15.1735 20.2286 17.5799 22.0297L28.3865 30.3118C29.7447 31.3305 30.35 32.4082 30.3352 33.4711H13.3871V25.1595Z" fill="#082E4D"/>
<path d="M46 24.5354C46 23.2953 46.2953 23 47.5354 23H48.0521C49.2922 23 49.5874 23.2953 49.5874 24.5354V29.732C50.4585 28.7724 51.9791 28.1671 53.7802 28.1671C55.9799 28.1671 58.4453 29.1858 58.4453 32.8913V40.701C58.4453 41.9411 58.1501 42.2364 56.91 42.2364H56.3933C55.1532 42.2364 54.8579 41.9411 54.8579 40.701V33.5261C54.8579 31.9908 53.9869 31.5479 52.5548 31.5479C50.9604 31.5479 49.5874 32.1827 49.5874 34.8696V40.701C49.5874 41.9411 49.2922 42.2364 48.0521 42.2364H47.5354C46.2953 42.2364 46 41.9411 46 40.701V24.5354Z" fill="#082E4D"/>
<path d="M64.7345 37.4827C64.7345 38.8852 65.1478 39.6529 67.3918 39.6529C69.6358 39.6529 69.9902 38.8852 69.9902 37.4827V30.4997C69.9902 29.2596 70.2854 28.9644 71.5255 28.9644H72.0422C73.2823 28.9644 73.5776 29.2596 73.5776 30.4997V37.4827C73.5776 41.1587 71.7174 43.0336 67.3771 43.0336C63.2434 43.0336 61.1175 41.0849 61.1175 37.4827V30.4997C61.1175 29.2596 61.4128 28.9644 62.6529 28.9644H63.1696C64.4097 28.9644 64.7049 29.2596 64.7049 30.4997V37.4827H64.7345Z" fill="#082E4D"/>
<path d="M85.7572 34.7367C85.7572 32.9799 85.2848 32.0203 82.8193 32.0203C80.3539 32.0203 79.8372 32.9799 79.8372 34.7367V36.9364C79.8372 38.6932 80.3539 39.6528 82.8193 39.6528C85.3438 39.6528 85.7572 38.6932 85.7572 36.9364V34.7367ZM76.2792 25.0078C76.2792 23.7677 76.5745 23.4724 77.8146 23.4724H78.3018C79.5419 23.4724 79.8372 23.7677 79.8372 25.0078V30.2044C80.5458 29.2448 81.6973 28.6395 83.587 28.6395C87.3959 28.6395 89.3446 30.8983 89.3446 34.8253V37.025C89.3446 41.3358 86.9087 43.0484 82.7898 43.0484C79.1728 43.0484 76.2645 41.3506 76.2645 37.025V25.0078H76.2792Z" fill="#082E4D"/>
<path d="M99.236 39.4609C98.9555 39.5199 98.2764 39.6233 97.3168 39.6233C96.2981 39.6233 95.619 39.1804 95.5895 37.896C95.6042 37.8222 95.619 37.7484 95.619 37.6893V32.345H98.7193C99.9594 32.345 100.255 32.0498 100.255 30.8097V30.5144C100.255 29.2743 99.9594 28.979 98.7193 28.979H95.619V26.9122C95.619 25.6721 95.3237 25.3768 94.0836 25.3768H93.5964C92.3563 25.3768 92.0611 25.6721 92.0611 26.9122V28.8019L92.0316 28.979V32.345V37.7631C92.0316 38.0141 92.0463 38.2503 92.0611 38.4865C92.0611 38.7818 92.0906 39.0328 92.1497 39.2394C92.6516 42.0887 94.6889 43.0188 97.3168 43.0188C98.2764 43.0188 98.8817 42.9302 99.236 42.8564C100.447 42.6054 100.742 42.1478 100.742 40.9077V40.6124C100.742 39.3575 100.447 39.2394 99.236 39.4609Z" fill="#082E4D"/>
<path d="M105.791 34.2347H111.194V33.8214C111.194 32.4484 110.294 31.7398 108.478 31.7398C106.662 31.7398 105.791 32.4484 105.791 33.8214V34.2347ZM114.531 35.6372C114.368 36.9069 114.014 37.1431 112.744 37.1431H105.776V37.5564C105.776 38.9885 106.824 39.6381 109.363 39.6381C110.796 39.6381 112.154 39.3576 112.685 39.2542C113.896 39.0032 114.132 39.3428 114.132 40.5681V40.8634C114.132 42.1035 113.881 42.3545 112.685 42.6497C112.168 42.7826 110.869 43.0041 109.334 43.0041C104.477 43.0041 102.174 41.2472 102.174 36.9807V34.781C102.174 31.2378 103.798 28.5952 108.566 28.5952C112.567 28.5952 114.575 30.6325 114.575 34.53C114.59 34.7957 114.59 35.1501 114.531 35.6372Z" fill="#082E4D"/>
<path d="M117.011 25.0078C117.011 23.7677 117.306 23.4724 118.546 23.4724H119.033C120.273 23.4724 120.569 23.7677 120.569 25.0078V37.7631C120.569 39.1952 120.953 39.6085 121.779 39.6085H121.912C122.621 39.6085 122.842 39.7709 122.842 40.8782V41.3949C122.842 42.4874 122.621 42.7974 121.912 42.9303C121.779 42.9598 121.661 42.9893 121.085 42.9893C118.753 42.9893 116.996 41.7049 116.996 38.5604V25.0078H117.011Z" fill="#082E4D"/>
<path d="M78.3443 57.4112C78.3443 58.9023 77.4732 59.5371 75.5245 59.5371C73.9744 59.5371 73 58.917 73 57.5145C73 56.112 73.9153 55.551 75.7459 55.551H77.3404V54.7391C77.3404 53.8237 76.7203 53.5137 75.5836 53.5137C74.993 53.5137 74.4911 53.5728 74.1072 53.6614C73.7824 53.7352 73.6791 53.6466 73.6791 53.3218V53.2185C73.6791 52.9084 73.7529 52.8346 74.0777 52.7608C74.5206 52.6722 75.0078 52.6279 75.5245 52.6279C77.4142 52.6279 78.359 53.3218 78.359 54.7391V57.4112H78.3443ZM77.3404 56.3482H75.7607C74.5649 56.3482 74.0039 56.673 74.0039 57.5145C74.0039 58.2822 74.5058 58.6661 75.5097 58.6661C76.7498 58.6661 77.3256 58.3856 77.3256 57.3669V56.3482H77.3404Z" fill="#9BAAB7"/>
<path d="M79.6582 55.4182C79.6582 53.6613 80.6178 52.6279 82.6551 52.6279C83.098 52.6279 83.4966 52.687 83.8362 52.8051C84.161 52.9084 84.2348 53.0118 84.2348 53.3218V53.4547C84.2348 53.7942 84.161 53.8828 83.8362 53.7795C83.4966 53.6613 83.1128 53.5875 82.6846 53.5875C81.1788 53.5875 80.6621 54.1781 80.6621 55.4329V56.7321C80.6621 58.0903 81.2674 58.5775 82.7585 58.5775C83.2161 58.5775 83.6147 58.5184 83.969 58.4003C84.2791 58.297 84.3676 58.4003 84.3676 58.7399V58.8727C84.3676 59.1532 84.2791 59.2566 83.9395 59.3599C83.5557 59.478 83.1423 59.5371 82.6846 59.5371C80.6178 59.5371 79.6434 58.6513 79.6434 56.7468V55.4182H79.6582Z" fill="#9BAAB7"/>
<path d="M90.4796 57.4112C90.4796 58.9023 89.6085 59.5371 87.6598 59.5371C86.1097 59.5371 85.1353 58.917 85.1353 57.5145C85.1353 56.112 86.0506 55.551 87.8813 55.551H89.4609V54.7391C89.4609 53.8237 88.8409 53.5137 87.7041 53.5137C87.1136 53.5137 86.6116 53.5728 86.2278 53.6614C85.903 53.7352 85.7997 53.6466 85.7997 53.3218V53.2185C85.7997 52.9084 85.8735 52.8346 86.1983 52.7608C86.6412 52.6722 87.1283 52.6279 87.6451 52.6279C89.5347 52.6279 90.4796 53.3218 90.4796 54.7391V57.4112ZM89.4609 56.3482H87.8813C86.6854 56.3482 86.1244 56.673 86.1244 57.5145C86.1244 58.2822 86.6264 58.6661 87.6303 58.6661C88.8704 58.6661 89.4462 58.3856 89.4462 57.3669V56.3482H89.4609Z" fill="#9BAAB7"/>
<path d="M97.684 56.732C97.684 58.6069 96.6949 59.5518 94.7314 59.5518C92.6941 59.5518 91.7787 58.6069 91.7787 56.732V55.4771C91.7787 53.5727 92.7088 52.6426 94.569 52.6426C95.6024 52.6426 96.311 52.9674 96.6653 53.6317V50.4281C96.6653 50.0591 96.7392 50 97.0935 50H97.2411C97.5807 50 97.6692 50.0738 97.6692 50.4281V56.732H97.684ZM92.7974 56.7172C92.7974 58.0164 93.2403 58.5922 94.7314 58.5922C96.1929 58.5922 96.6653 58.0164 96.6653 56.7172V55.4624C96.6653 54.1632 96.1929 53.5874 94.7314 53.5874C93.2698 53.5874 92.7974 54.1632 92.7974 55.4624V56.7172Z" fill="#9BAAB7"/>
<path d="M104.623 56.053C104.578 56.3925 104.505 56.4664 104.136 56.4664H100.076V56.865C100.076 58.0903 100.681 58.5775 102.172 58.5775C102.763 58.5775 103.368 58.5037 104.003 58.3265C104.327 58.2379 104.431 58.3413 104.431 58.6808V58.7989C104.431 59.0794 104.372 59.1828 104.017 59.2861C103.442 59.4633 102.822 59.5371 102.172 59.5371C100.061 59.5371 99.057 58.7103 99.057 56.7173V55.4625C99.057 53.558 100.002 52.6279 101.892 52.6279C103.663 52.6279 104.652 53.5432 104.652 55.3148C104.667 55.6396 104.652 55.8758 104.623 56.053ZM100.076 55.6248H103.707V55.182C103.707 54.0895 103.102 53.5432 101.892 53.5432C100.681 53.5432 100.076 54.0895 100.076 55.182V55.6248Z" fill="#9BAAB7"/>
<path d="M107.132 58.9761C107.132 59.3452 107.059 59.4042 106.704 59.4042H106.557C106.217 59.4042 106.129 59.3304 106.129 58.9761V55.1524C106.129 53.4694 106.985 52.6279 108.697 52.6279C109.76 52.6279 110.454 53.0118 110.764 53.7499C111.104 53.0118 111.783 52.6279 112.831 52.6279C114.617 52.6279 115.385 53.5137 115.385 55.1524V58.9761C115.385 59.3452 115.296 59.4042 114.957 59.4042H114.809C114.44 59.4042 114.381 59.3304 114.381 58.9761V55.1524C114.381 54.0895 114.012 53.5875 112.831 53.5875C111.635 53.5875 111.251 54.0747 111.251 55.1524V58.9761C111.251 59.3452 111.178 59.4042 110.823 59.4042H110.69C110.321 59.4042 110.262 59.3304 110.262 58.9761V55.1524C110.262 54.0895 109.878 53.5875 108.697 53.5875C107.516 53.5875 107.132 54.0895 107.132 55.1524V58.9761Z" fill="#9BAAB7"/>
<path d="M118.825 57.8688C118.987 58.4593 119.179 58.607 119.652 58.607C120.035 58.607 120.257 58.4446 120.405 57.8688L121.527 53.2184C121.6 52.8788 121.733 52.7755 122.088 52.7755H122.206C122.575 52.7755 122.649 52.8493 122.56 53.2184L121.01 59.4042C120.552 61.22 119.652 62.1649 118.308 62.2535C117.998 62.2977 117.895 62.1944 117.821 61.8696L117.791 61.7515C117.718 61.4415 117.806 61.3824 118.146 61.3529C119.135 61.2496 119.607 60.6295 120.006 59.3156C119.829 59.4042 119.622 59.4632 119.327 59.4632C118.426 59.4632 118.101 58.976 117.821 57.8836L116.537 53.2036C116.448 52.8346 116.507 52.7607 116.876 52.7607H116.979C117.349 52.7607 117.467 52.8346 117.555 53.2036L118.825 57.8688Z" fill="#9BAAB7"/>
<path d="M13.5053 41.6205C13.5053 45.8132 15.2917 46.5514 17.6833 44.7503L28.4752 36.4829C29.8334 35.4643 30.4387 34.3866 30.4387 33.3384H13.5053V41.6205Z" fill="#009D9D"/>
<path d="M36.654 41.6205C36.654 45.8132 34.8676 46.5514 32.476 44.7503L21.6841 36.4829C20.3259 35.4643 19.7206 34.3866 19.7206 33.3384H36.6245L36.654 41.6205Z" fill="#EE4923"/>
<path d="M36.654 25.0562C36.654 20.8635 34.8676 20.1253 32.476 21.9264L21.6841 30.1938C20.3259 31.2124 19.7206 32.2901 19.7206 33.3531H36.6245L36.654 25.0562Z" fill="#F69621"/>
<path d="M13.5052 25.0562C13.5052 20.8635 15.2915 20.1253 17.6832 21.9264L28.475 30.1938C29.8332 31.2124 30.4385 32.2901 30.4385 33.3531H13.5052V25.0562Z" fill="#092F4D"/>
</svg>
