<svg width="78" height="39" viewBox="0 0 78 39" fill="none" xmlns="http://www.w3.org/2000/svg">
<g opacity="0.2">
<path d="M10.9921 17.3729C10.1608 16.7521 9.75195 16.0924 9.69215 15.4443H6.5V20.2543C6.5 22.8153 7.58615 23.2703 9.04085 22.1653L13.13 19.018L10.9921 17.3729Z" fill="#414042"/>
<path d="M20.5588 15.4424H10.3025C10.3798 16.0079 10.751 16.5734 11.4725 17.1181L18.0258 22.1718C19.4792 23.269 20.5744 22.8218 20.5666 20.2621L20.5588 15.4424Z" fill="#414042"/>
<path d="M18.0258 8.22201L13.895 11.4116L15.99 13.0255C16.8161 13.6398 17.225 14.2963 17.29 14.9404H20.5621V10.1402C20.5621 7.57981 19.4766 7.13326 18.0212 8.23046" fill="#414042"/>
<path d="M15.5954 13.2745L9.04083 8.22201C7.58743 7.12481 6.49218 7.57201 6.49998 10.1317V14.9313H16.7609C16.6796 14.3658 16.3098 13.8003 15.5909 13.2667" fill="#414042"/>
<path d="M24.8131 9.78854C24.8131 9.03714 24.9958 8.85449 25.7452 8.85449H26.065C26.8145 8.85449 26.9971 9.03714 26.9971 9.78854V12.9417C27.5288 12.3567 28.446 11.992 29.5464 11.992C30.8789 11.992 32.3772 12.6095 32.3772 14.8624V19.6035C32.3772 20.3543 32.1945 20.5369 31.4451 20.5369H31.1292C30.3797 20.5369 30.1971 20.3543 30.1971 19.6035V15.2485C30.1971 14.3145 29.6634 14.0564 28.8054 14.0564C27.8389 14.0564 27.0153 14.4399 27.0153 16.0753V19.6159C27.0153 20.3666 26.8327 20.5499 26.0832 20.5499H25.7654C25.0159 20.5499 24.8346 20.3666 24.8346 19.6159L24.8131 9.78854Z" fill="#414042"/>
<path d="M36.1926 17.654C36.1926 18.5055 36.4429 18.9735 37.8098 18.9735C39.1768 18.9735 39.401 18.5055 39.401 17.654V13.4153C39.401 12.6639 39.5837 12.48 40.3344 12.48H40.649C41.3985 12.48 41.5811 12.6639 41.5811 13.4153V17.654C41.5811 19.8906 40.4482 21.034 37.8183 21.034C35.3021 21.034 34.0203 19.8399 34.0203 17.654V13.4153C34.0203 12.6639 34.2036 12.48 34.9524 12.48H35.267C36.0197 12.48 36.2011 12.6639 36.2011 13.4153L36.1926 17.654Z" fill="#414042"/>
<path d="M48.9723 15.9848C48.9723 14.9162 48.6889 14.3312 47.1822 14.3312C45.6755 14.3312 45.3622 14.9162 45.3622 15.9848V17.3173C45.3622 18.3859 45.68 18.9703 47.1822 18.9703C48.7155 18.9703 48.9723 18.3853 48.9723 17.3173V15.9848ZM43.2048 10.075C43.2048 9.32425 43.3875 9.1416 44.1369 9.1416H44.4385C45.188 9.1416 45.3687 9.32425 45.3687 10.075V13.2288C45.8035 12.6438 46.5036 12.2785 47.6534 12.2785C49.9687 12.2785 51.1511 13.6474 51.1511 16.0355V17.3661C51.1511 19.9862 49.6671 21.0204 47.1737 21.0204C44.9735 21.0204 43.2087 19.9843 43.2087 17.3661L43.2048 10.075Z" fill="#414042"/>
<path d="M57.1532 18.8553C56.7684 18.9242 56.3781 18.958 55.9871 18.956C55.3696 18.956 54.9614 18.6856 54.938 17.9004C54.9483 17.8579 54.9533 17.8142 54.953 17.7704V14.5328H56.838C57.5868 14.5328 57.7681 14.3495 57.7681 13.5987V13.4141C57.7681 12.6634 57.5868 12.4807 56.838 12.4807H54.953V11.2275C54.953 10.4761 54.7703 10.2935 54.0209 10.2935H53.7128C52.964 10.2935 52.7807 10.4761 52.7807 11.2275V12.3735L52.7664 12.4788V17.8198C52.7664 17.9726 52.7709 18.1175 52.7807 18.2579C52.7781 18.4114 52.7969 18.5646 52.8366 18.7129C53.1401 20.4452 54.3803 21.0087 55.9806 21.0087C56.3731 21.0173 56.7654 20.9836 57.1506 20.908C57.8838 20.7585 58.0684 20.4731 58.0684 19.7139V19.5313C58.0684 18.7805 57.8838 18.7142 57.1506 18.8481" fill="#414042"/>
<path d="M61.1364 15.6833H64.4202V15.4331C64.4202 14.5998 63.8697 14.1649 62.7718 14.1649C61.674 14.1649 61.1377 14.5985 61.1377 15.4331L61.1364 15.6833ZM66.4521 16.5348C66.352 17.3025 66.1362 17.452 65.3686 17.452H61.1364V17.7022C61.1364 18.5687 61.7689 18.9704 63.325 18.9704C64.0027 18.9609 64.6778 18.8831 65.34 18.7383C66.0745 18.5882 66.2227 18.7877 66.2227 19.5339V19.7166C66.2227 20.4693 66.0745 20.6175 65.34 20.8021C64.6739 20.952 63.9927 21.0249 63.31 21.0192C60.3603 21.0192 58.9602 19.9506 58.9602 17.3649V16.0278C58.9602 13.875 59.9437 12.2715 62.842 12.2715C65.2743 12.2715 66.4898 13.5065 66.4898 15.8777C66.4918 16.0948 66.4807 16.3119 66.4567 16.5277" fill="#414042"/>
<path d="M67.951 10.075C67.951 9.32425 68.1336 9.1416 68.8831 9.1416H69.1847C69.9341 9.1416 70.1148 9.32425 70.1148 10.075V17.8211C70.1148 18.6875 70.3488 18.9391 70.8513 18.9391H70.9351C71.3667 18.9391 71.5 19.0379 71.5 19.7067V20.0246C71.5 20.6915 71.37 20.8761 70.9351 20.9586C70.7704 20.9911 70.6023 21.0026 70.4346 20.9931C69.0183 20.9931 67.9529 20.2072 67.9529 18.3034L67.951 10.075Z" fill="#414042"/>
<path d="M33.9014 27.1523V26.6733C33.9014 25.6248 34.4546 25.2433 35.388 25.2433C35.5652 25.2418 35.7422 25.2557 35.9171 25.2849C36.2057 25.3427 36.2713 25.4084 36.2713 25.6814V25.7802C36.2713 25.9206 36.2466 26.0116 36.1972 26.0525C36.1062 26.1273 35.7845 26.0447 35.4458 26.0447C34.9746 26.0447 34.7438 26.2345 34.7438 26.6063V27.151H35.8423C36.1316 27.151 36.1888 27.2089 36.1888 27.4981V27.5969C36.1888 27.8862 36.1316 27.944 35.8423 27.944H34.7438V30.8749C34.7438 31.1719 34.6697 31.2467 34.372 31.2467H34.2732C33.9755 31.2467 33.9014 31.1719 33.9014 30.8749V27.1504V27.1523Z" fill="#414042"/>
<path d="M36.6678 29.5556V28.8458C36.6678 27.6894 37.2872 27.0615 38.5671 27.0615C39.8801 27.0615 40.4521 27.6563 40.4521 28.8458V29.5556C40.4521 30.7035 39.8326 31.3392 38.5671 31.3392C37.245 31.3392 36.6678 30.7451 36.6678 29.5556ZM39.5999 28.8458C39.5999 28.1516 39.3685 27.8545 38.5671 27.8545C37.7656 27.8545 37.5186 28.1516 37.5186 28.8458V29.5556C37.5186 30.2413 37.75 30.5384 38.5671 30.5384C39.3685 30.5384 39.5999 30.2498 39.5999 29.5556V28.8458Z" fill="#414042"/>
<path d="M42.1096 30.8748C42.1096 31.1718 42.0355 31.2466 41.7378 31.2466H41.6305C41.3335 31.2466 41.2587 31.1718 41.2587 30.8748V28.5231C41.2587 27.5485 41.7787 27.0612 42.8187 27.0612C42.8737 27.0591 42.9287 27.0619 42.9832 27.0697C43.2562 27.1028 43.3303 27.1685 43.3303 27.4597V27.5754C43.3303 27.8477 43.2731 27.9056 42.9832 27.8646C42.9287 27.8569 42.8737 27.8541 42.8187 27.8562C42.2649 27.8562 42.1083 28.0791 42.1083 28.5829L42.1096 30.8748Z" fill="#414042"/>
<path d="M46.7915 29.7289C46.7915 30.2905 47.0067 30.5382 47.7412 30.5382C48.4757 30.5382 48.685 30.2899 48.685 29.7289V27.5241C48.685 27.2264 48.7591 27.1523 49.0562 27.1523H49.164C49.4611 27.1523 49.5359 27.2264 49.5359 27.5241V29.7289C49.5359 30.7943 48.9989 31.339 47.7431 31.339C46.5458 31.339 45.9433 30.8027 45.9433 29.7289V27.5241C45.9433 27.2264 46.0174 27.1523 46.3151 27.1523H46.4223C46.7194 27.1523 46.7935 27.2264 46.7935 27.5241L46.7915 29.7289Z" fill="#414042"/>
<path d="M50.2606 27.1523V26.3762C50.2606 26.1285 50.3627 26.0791 50.5453 26.0791H50.8053C51.0452 26.0791 51.1037 26.137 51.1037 26.3762V27.1523H52.26C52.5324 27.1523 52.6071 27.2101 52.6071 27.4994V27.5982C52.6071 27.8874 52.5324 27.9453 52.26 27.9453H51.1037V29.8199C51.1037 30.2991 51.3184 30.5385 51.7478 30.5381C51.9727 30.5406 52.1971 30.5157 52.416 30.464C52.689 30.4062 52.7547 30.464 52.7547 30.7526V30.8521C52.7547 31.1244 52.6897 31.207 52.416 31.2648C52.1958 31.307 51.9721 31.3288 51.7478 31.3298C50.7566 31.3298 50.2606 30.8261 50.2606 29.8101V27.1523Z" fill="#414042"/>
<path d="M59.15 27.1523V26.3762C59.15 26.1285 59.252 26.0791 59.4347 26.0791H59.6947C59.9345 26.0791 59.9924 26.137 59.9924 26.3762V27.1523H61.1455C61.4178 27.1523 61.4919 27.2101 61.4919 27.4994V27.5982C61.4919 27.8874 61.4178 27.9453 61.1455 27.9453H59.9891V29.8199C59.9891 30.2991 60.2038 30.5385 60.6333 30.5381C60.8584 30.5407 61.083 30.5158 61.3021 30.464C61.5751 30.4062 61.6408 30.464 61.6408 30.7526V30.8521C61.6408 31.1244 61.5758 31.207 61.3021 31.2648C61.0817 31.307 60.8578 31.3288 60.6333 31.3298C59.642 31.3298 59.1467 30.8261 59.1467 29.8101V27.1523H59.15Z" fill="#414042"/>
<path d="M53.5138 25.5254C53.5616 25.4751 53.6189 25.4348 53.6825 25.407C53.7461 25.3791 53.8146 25.3643 53.884 25.3633C53.9534 25.3624 54.0223 25.3753 54.0866 25.4014C54.1509 25.4275 54.2094 25.4662 54.2585 25.5153C54.3076 25.5643 54.3464 25.6227 54.3726 25.6869C54.3988 25.7512 54.4119 25.8201 54.4111 25.8895C54.4103 25.9589 54.3955 26.0274 54.3678 26.091C54.3401 26.1547 54.2999 26.2121 54.2496 26.2599C54.1509 26.3553 54.019 26.4085 53.8817 26.4085C53.7445 26.4085 53.6126 26.3553 53.5138 26.2599C53.465 26.2121 53.4261 26.1549 53.3996 26.0919C53.3731 26.0288 53.3595 25.9611 53.3595 25.8927C53.3595 25.8243 53.3731 25.7566 53.3996 25.6935C53.4261 25.6305 53.465 25.5733 53.5138 25.5254ZM53.4566 27.5242C53.4566 27.2265 53.5307 27.1524 53.8278 27.1524H53.9357C54.2327 27.1524 54.3068 27.2265 54.3068 27.5242V30.8749C54.3068 31.172 54.2327 31.2467 53.9357 31.2467H53.8278C53.5307 31.2467 53.4566 31.172 53.4566 30.8749V27.5242Z" fill="#414042"/>
<path d="M55.2981 25.8396C55.2981 25.5425 55.3722 25.4678 55.6692 25.4678H55.7771C56.0742 25.4678 56.1483 25.5425 56.1483 25.8396V29.9274C56.1483 30.3649 56.2724 30.5124 56.5383 30.5124C56.8041 30.5124 56.8529 30.554 56.8529 30.8426V30.9252C56.8529 31.1982 56.7879 31.2502 56.5142 31.3054C56.4761 31.3122 56.4373 31.3148 56.3985 31.3132C55.7375 31.3132 55.3 30.9232 55.3 30.0912L55.2981 25.8396Z" fill="#414042"/>
<path d="M57.5354 25.5256C57.5829 25.4742 57.6403 25.4328 57.7042 25.4041C57.768 25.3754 57.837 25.3599 57.907 25.3585C57.977 25.3571 58.0465 25.3698 58.1115 25.396C58.1764 25.4221 58.2354 25.4611 58.2849 25.5105C58.3345 25.56 58.3735 25.619 58.3997 25.6839C58.4259 25.7488 58.4387 25.8184 58.4373 25.8884C58.436 25.9584 58.4205 26.0274 58.3919 26.0912C58.3632 26.1551 58.322 26.2125 58.2706 26.2601C58.172 26.3555 58.0402 26.4089 57.903 26.4089C57.7658 26.4089 57.634 26.3555 57.5354 26.2601C57.4866 26.2122 57.4478 26.1551 57.4213 26.092C57.3948 26.0289 57.3811 25.9612 57.3811 25.8928C57.3811 25.8244 57.3948 25.7567 57.4213 25.6937C57.4478 25.6306 57.4866 25.5735 57.5354 25.5256ZM57.4782 27.5243C57.4782 27.2266 57.5523 27.1525 57.8494 27.1525H57.9566C58.2543 27.1525 58.3284 27.2266 58.3284 27.5243V30.8751C58.3284 31.1721 58.2543 31.2469 57.9566 31.2469H57.85C57.553 31.2469 57.4789 31.1721 57.4789 30.8751L57.4782 27.5243Z" fill="#414042"/>
<path d="M62.4 25.5255C62.4986 25.4343 62.6288 25.3847 62.7631 25.3873C62.8975 25.3899 63.0256 25.4444 63.1207 25.5393C63.2157 25.6343 63.2703 25.7624 63.273 25.8968C63.2757 26.0311 63.2263 26.1613 63.1351 26.26C63.0366 26.3555 62.9048 26.4088 62.7676 26.4088C62.6304 26.4088 62.4986 26.3555 62.4 26.26C62.3511 26.2122 62.3123 26.155 62.2858 26.092C62.2593 26.0289 62.2457 25.9612 62.2457 25.8928C62.2457 25.8244 62.2593 25.7567 62.2858 25.6936C62.3123 25.6305 62.3511 25.5734 62.4 25.5255ZM62.3428 27.5243C62.3428 27.2266 62.4169 27.1525 62.7139 27.1525H62.8212C63.1182 27.1525 63.193 27.2266 63.193 27.5243V30.875C63.193 31.1721 63.1182 31.2468 62.8212 31.2468H62.7139C62.4169 31.2468 62.3428 31.1721 62.3428 30.875V27.5243Z" fill="#414042"/>
<path d="M67.6604 29.1344C67.6279 29.4405 67.5447 29.5146 67.2392 29.5146H64.9434V29.696C64.9434 30.2992 65.2905 30.541 66.1251 30.541C66.4867 30.5401 66.8469 30.4965 67.1983 30.411C67.4622 30.346 67.5369 30.411 67.5369 30.6996V30.8075C67.5369 31.0798 67.4869 31.1377 67.1983 31.2118C66.8481 31.3032 66.4871 31.347 66.1251 31.3418C64.7367 31.3418 64.0926 30.8218 64.0926 29.5751V28.8536C64.0926 27.6563 64.7042 27.0615 65.9262 27.0615C67.0741 27.0615 67.6767 27.6465 67.6767 28.771C67.6767 28.8952 67.6689 29.0109 67.6604 29.1344ZM64.9434 28.8211H66.8765V28.6144C66.8765 28.069 66.5515 27.7967 65.9015 27.7967C65.2658 27.7967 64.9434 28.069 64.9434 28.6144V28.8211Z" fill="#414042"/>
<path d="M68.3702 30.6873C68.3702 30.398 68.4352 30.3324 68.7011 30.3981C69.0944 30.5031 69.4998 30.556 69.9068 30.5553C70.4678 30.5553 70.6745 30.4643 70.6745 30.1998C70.6745 29.9931 70.5672 29.8943 70.146 29.7045L69.2542 29.308C68.6926 29.0688 68.4359 28.788 68.4359 28.1848C68.4359 27.4171 68.9156 27.0616 70.0141 27.0616C70.3374 27.0595 70.6595 27.1013 70.9715 27.1857C71.2608 27.2767 71.3186 27.3261 71.3186 27.5985V27.6979C71.3186 27.9865 71.2439 28.0529 70.98 27.9787C70.6602 27.8893 70.3293 27.8456 69.9972 27.8487C69.4603 27.8487 69.2705 27.9482 69.2705 28.1874C69.2705 28.3856 69.3699 28.4767 69.6605 28.6086L70.6186 29.0214C71.2218 29.2781 71.5019 29.5667 71.5019 30.1861C71.5019 30.9785 70.9988 31.3418 69.834 31.3418C69.4526 31.3435 69.0726 31.2966 68.703 31.2021C68.43 31.1273 68.3722 31.0721 68.3722 30.7971L68.3702 30.6873Z" fill="#414042"/>
</g>
</svg>
