<svg width="60" height="60" viewBox="0 0 60 60" fill="none" xmlns="http://www.w3.org/2000/svg">
<path d="M7.79998 16.2C7.48172 16.2 7.17649 16.3264 6.95145 16.5515C6.7264 16.7765 6.59998 17.0818 6.59998 17.4C6.59998 17.7183 6.7264 18.0235 6.95145 18.2485C7.17649 18.4736 7.48172 18.6 7.79998 18.6C8.11824 18.6 8.42346 18.4736 8.6485 18.2485C8.87355 18.0235 8.99998 17.7183 8.99998 17.4C8.99998 17.0818 8.87355 16.7765 8.6485 16.5515C8.42346 16.3264 8.11824 16.2 7.79998 16.2Z" fill="#88AE45"/>
<path d="M46.2 7.20001C46.0408 7.20001 45.8882 7.26323 45.7757 7.37575C45.6632 7.48827 45.6 7.64088 45.6 7.80001C45.6 7.95914 45.6632 8.11175 45.7757 8.22428C45.8882 8.3368 46.0408 8.40001 46.2 8.40001C46.3591 8.40001 46.5117 8.3368 46.6242 8.22428C46.7368 8.11175 46.8 7.95914 46.8 7.80001C46.8 7.64088 46.7368 7.48827 46.6242 7.37575C46.5117 7.26323 46.3591 7.20001 46.2 7.20001Z" fill="#F1BC19"/>
<path d="M30 7.79999C24.1122 7.79999 18.4656 10.1389 14.3023 14.3022C10.139 18.4655 7.80005 24.1122 7.80005 30C7.80005 35.8878 10.139 41.5344 14.3023 45.6978C18.4656 49.8611 24.1122 52.2 30 52.2C35.8879 52.2 41.5345 49.8611 45.6978 45.6978C49.8611 41.5344 52.2 35.8878 52.2 30C52.2 24.1122 49.8611 18.4655 45.6978 14.3022C41.5345 10.1389 35.8879 7.79999 30 7.79999Z" fill="#FEFBE7"/>
<path d="M49.8 6.60001C49.1635 6.60001 48.5531 6.85286 48.103 7.30295C47.6529 7.75304 47.4 8.36349 47.4 9.00001C47.4 9.63653 47.6529 10.247 48.103 10.6971C48.5531 11.1471 49.1635 11.4 49.8 11.4C50.4365 11.4 51.047 11.1471 51.4971 10.6971C51.9472 10.247 52.2 9.63653 52.2 9.00001C52.2 8.36349 51.9472 7.75304 51.4971 7.30295C51.047 6.85286 50.4365 6.60001 49.8 6.60001Z" fill="#F1BC19"/>
<path d="M52.2 13.2C51.8817 13.2 51.5765 13.3264 51.3515 13.5515C51.1264 13.7765 51 14.0818 51 14.4C51 14.7183 51.1264 15.0235 51.3515 15.2485C51.5765 15.4736 51.8817 15.6 52.2 15.6C52.5183 15.6 52.8235 15.4736 53.0485 15.2485C53.2736 15.0235 53.4 14.7183 53.4 14.4C53.4 14.0818 53.2736 13.7765 53.0485 13.5515C52.8235 13.3264 52.5183 13.2 52.2 13.2Z" fill="#88AE45"/>
<path d="M48.6 44.4C48.2817 44.4 47.9765 44.5264 47.7514 44.7515C47.5264 44.9765 47.4 45.2817 47.4 45.6C47.4 45.9183 47.5264 46.2235 47.7514 46.4485C47.9765 46.6736 48.2817 46.8 48.6 46.8C48.9182 46.8 49.2235 46.6736 49.4485 46.4485C49.6735 46.2235 49.8 45.9183 49.8 45.6C49.8 45.2817 49.6735 44.9765 49.4485 44.7515C49.2235 44.5264 48.9182 44.4 48.6 44.4ZM8.99998 35.4C8.36346 35.4 7.75301 35.6529 7.30292 36.1029C6.85283 36.553 6.59998 37.1635 6.59998 37.8C6.59998 38.4365 6.85283 39.047 7.30292 39.4971C7.75301 39.9471 8.36346 40.2 8.99998 40.2C9.6365 40.2 10.2469 39.9471 10.697 39.4971C11.1471 39.047 11.4 38.4365 11.4 37.8C11.4 37.1635 11.1471 36.553 10.697 36.1029C10.2469 35.6529 9.6365 35.4 8.99998 35.4Z" fill="#FBCD59"/>
<path d="M15 51C14.6818 51 14.3766 51.1264 14.1515 51.3515C13.9265 51.5765 13.8 51.8817 13.8 52.2C13.8 52.5183 13.9265 52.8235 14.1515 53.0485C14.3766 53.2736 14.6818 53.4 15 53.4C15.3183 53.4 15.6235 53.2736 15.8486 53.0485C16.0736 52.8235 16.2 52.5183 16.2 52.2C16.2 51.8817 16.0736 51.5765 15.8486 51.3515C15.6235 51.1264 15.3183 51 15 51Z" fill="#88AE45"/>
<path d="M11.1 30.6C10.7022 30.6 10.3206 30.758 10.0393 31.0393C9.75801 31.3206 9.59998 31.7022 9.59998 32.1C9.59998 32.4978 9.75801 32.8794 10.0393 33.1607C10.3206 33.442 10.7022 33.6 11.1 33.6C11.4978 33.6 11.8793 33.442 12.1606 33.1607C12.4419 32.8794 12.6 32.4978 12.6 32.1C12.6 31.7022 12.4419 31.3206 12.1606 31.0393C11.8793 30.758 11.4978 30.6 11.1 30.6Z" fill="white"/>
<path d="M12.6 39.6C12.4409 39.6 12.2883 39.6632 12.1757 39.7757C12.0632 39.8883 12 40.0409 12 40.2C12 40.3591 12.0632 40.5117 12.1757 40.6243C12.2883 40.7368 12.4409 40.8 12.6 40.8C12.7591 40.8 12.9117 40.7368 13.0243 40.6243C13.1368 40.5117 13.2 40.3591 13.2 40.2C13.2 40.0409 13.1368 39.8883 13.0243 39.7757C12.9117 39.6632 12.7591 39.6 12.6 39.6Z" fill="#F1BC19"/>
<path d="M48 19.8C47.8409 19.8 47.6883 19.8632 47.5758 19.9757C47.4632 20.0882 47.4 20.2409 47.4 20.4C47.4 20.5591 47.4632 20.7117 47.5758 20.8243C47.6883 20.9368 47.8409 21 48 21C48.1592 21 48.3118 20.9368 48.4243 20.8243C48.5368 20.7117 48.6 20.5591 48.6 20.4C48.6 20.2409 48.5368 20.0882 48.4243 19.9757C48.3118 19.8632 48.1592 19.8 48 19.8Z" fill="white"/>
<path d="M30 15.6252C26.1876 15.6252 22.5313 17.1397 19.8355 19.8355C17.1397 22.5313 15.6252 26.1875 15.6252 30C15.6252 33.8124 17.1397 37.4687 19.8355 40.1645C22.5313 42.8603 26.1876 44.3748 30 44.3748C33.8125 44.3748 37.4688 42.8603 40.1646 40.1645C42.8604 37.4687 44.3748 33.8124 44.3748 30C44.3748 26.1875 42.8604 22.5313 40.1646 19.8355C37.4688 17.1397 33.8125 15.6252 30 15.6252Z" fill="#FDFCEE"/>
<path d="M30 15.84C37.8078 15.84 44.16 22.1922 44.16 30C44.16 37.8078 37.8078 44.16 30 44.16C22.1922 44.16 15.84 37.8078 15.84 30C15.84 22.1922 22.1922 15.84 30 15.84ZM30 15C21.7158 15 15 21.7158 15 30C15 38.2842 21.7158 45 30 45C38.2842 45 45 38.2842 45 30C45 21.7158 38.2842 15 30 15Z" fill="#472B29"/>
<path d="M29.9995 18.225C28.4531 18.225 26.9218 18.5296 25.4932 19.1214C24.0645 19.7131 22.7663 20.5805 21.6729 21.674C20.5794 22.7675 19.712 24.0656 19.1202 25.4943C18.5285 26.923 18.2239 28.4542 18.2239 30.0006C18.2239 31.547 18.5285 33.0782 19.1202 34.5069C19.712 35.9356 20.5794 37.2337 21.6729 38.3272C22.7663 39.4207 24.0645 40.2881 25.4932 40.8798C26.9218 41.4716 28.4531 41.7762 29.9995 41.7762C31.5459 41.7762 33.0771 41.4716 34.5058 40.8798C35.9345 40.2881 37.2326 39.4207 38.3261 38.3272C39.4195 37.2337 40.2869 35.9356 40.8787 34.5069C41.4705 33.0782 41.7751 31.547 41.7751 30.0006C41.7751 28.4542 41.4705 26.923 40.8787 25.4943C40.2869 24.0656 39.4195 22.7675 38.3261 21.674C37.2326 20.5805 35.9345 19.7131 34.5058 19.1214C33.0771 18.5296 31.5459 18.225 29.9995 18.225Z" fill="#93BC39"/>
<path d="M29.9995 20.025C36.1993 20.025 41.2681 24.819 41.7295 30.9006C41.7523 30.6024 41.7751 30.3042 41.7751 30.0006C41.7751 23.4972 36.5029 18.225 29.9995 18.225C23.4961 18.225 18.2239 23.4972 18.2239 30.0006C18.2239 30.3042 18.2467 30.6024 18.2695 30.9006C18.7309 24.819 23.8003 20.025 29.9995 20.025Z" fill="#C0D078"/>
<path d="M29.9994 18.45C36.3684 18.45 41.55 23.631 41.55 29.9994C41.55 36.3684 36.3684 41.55 29.9994 41.55C23.631 41.55 18.45 36.3684 18.45 29.9994C18.45 23.631 23.631 18.45 29.9994 18.45ZM29.9994 18C23.3832 18 18 23.3832 18 29.9994C18 36.6162 23.3832 42 29.9994 42C36.6162 42 42 36.6162 42 29.9994C42 23.3826 36.6162 18 29.9994 18Z" fill="#472B29"/>
<path d="M24.6 29.1C24.3594 29.1 24.1338 29.1936 23.964 29.3634C23.7936 29.5332 23.7 29.7594 23.7 30C23.7 30.2406 23.7936 30.4662 23.9634 30.6366L28.1634 34.8366C28.3338 35.0064 28.56 35.1 28.8 35.1C29.0634 35.0946 29.298 34.9884 29.463 34.8084L36.063 27.6084C36.2256 27.4314 36.3096 27.201 36.2988 26.961C36.288 26.721 36.1854 26.499 36.0078 26.337C35.655 26.013 35.058 26.04 34.7364 26.3922L28.7712 32.8992L25.236 29.364C25.0662 29.1936 24.8406 29.1 24.6 29.1Z" fill="#FDFCEE"/>
<path d="M35.4 26.25C35.5878 26.25 35.7678 26.3202 35.907 26.4474C36.0546 26.583 36.1404 26.7672 36.1494 26.9676C36.1578 27.168 36.0882 27.3594 35.9532 27.507L29.3532 34.707C29.2152 34.857 29.0202 34.9458 28.8006 34.95C28.6002 34.95 28.4118 34.872 28.2702 34.7304L24.0702 30.5304C23.928 30.3888 23.85 30.2004 23.85 30C23.85 29.7996 23.928 29.6112 24.0702 29.4696C24.2112 29.328 24.3996 29.25 24.6 29.25C24.8004 29.25 24.9888 29.328 25.1304 29.4696L28.7766 33.1158L34.8474 26.493C34.9908 26.3364 35.187 26.25 35.4 26.25ZM35.4 25.8C35.0754 25.8 34.752 25.9308 34.5156 26.1894L28.7622 32.4654L25.4484 29.1516C25.2144 28.917 24.9072 28.8 24.6 28.8C24.2928 28.8 23.9856 28.917 23.7516 29.1516C23.283 29.6202 23.283 30.3798 23.7516 30.8484L27.9516 35.0484C28.1766 35.274 28.482 35.4 28.8 35.4C28.809 35.4 28.8174 35.4 28.8258 35.4C29.1528 35.3928 29.463 35.2524 29.6844 35.0112L36.2844 27.8112C36.7326 27.3228 36.699 26.5632 36.2106 26.1156C35.9802 25.9044 35.6898 25.8 35.4 25.8Z" fill="#472B29"/>
</svg>
