<svg width="66" height="66" viewBox="0 0 66 66" fill="none" xmlns="http://www.w3.org/2000/svg">
<rect x="5" y="5" width="56" height="56" rx="28" fill="#CCF3EF"/>
<path d="M29 40.3333H21.6667M25.6667 33H19.6667M29 25.6667H22.3334M39.6667 21L30.8714 33.3133C30.4822 33.8583 30.2875 34.1308 30.2959 34.358C30.3033 34.5558 30.3981 34.7402 30.5548 34.8611C30.7348 35 31.0697 35 31.7394 35H38.3334L37 45L45.7953 32.6867C46.1846 32.1417 46.3792 31.8692 46.3708 31.642C46.3634 31.4442 46.2686 31.2598 46.1119 31.1389C45.9319 31 45.597 31 44.9273 31H38.3334L39.6667 21Z" stroke="#009E96" stroke-width="2" stroke-linecap="round" stroke-linejoin="round"/>
<rect x="5" y="5" width="56" height="56" rx="28" stroke="#EDFAF7" stroke-width="10"/>
</svg>
