<svg width="81" height="100" viewBox="0 0 81 100" fill="none" xmlns="http://www.w3.org/2000/svg">
<path d="M37.1875 0.3125H60.375C71.3516 0.3125 80.25 9.21091 80.25 20.1875V38.4062C80.25 39.3209 79.5084 40.0625 78.5938 40.0625H18.9688C18.0541 40.0625 17.3125 39.3209 17.3125 38.4062V20.1875C17.3125 9.21091 26.2109 0.3125 37.1875 0.3125Z" fill="#A5C3DC"/>
<path d="M32.2187 11.9067L28.9062 15.2192C27.9915 16.1339 27.9915 17.617 28.9062 18.5317L53.75 43.3755H67L35.5312 11.9067C34.6165 10.992 33.1334 10.992 32.2187 11.9067Z" fill="#FAA019"/>
<path d="M32.2187 11.9067C31.304 12.8214 31.304 14.3045 32.2187 15.2192L60.375 43.3755H67L35.5312 11.9067C34.6165 10.992 33.1334 10.992 32.2187 11.9067Z" fill="#FFD205"/>
<path d="M48.7812 11.9067L52.0938 15.2192C53.0084 16.1339 53.0084 17.617 52.0938 18.5317L27.25 43.3755H14L45.4688 11.9067C46.3834 10.992 47.8666 10.992 48.7812 11.9067Z" fill="#FAA019"/>
<path d="M48.7813 11.9067C49.6959 12.8214 49.6959 14.3045 48.7813 15.2192L20.625 43.3755H14L45.4688 11.9067C46.3834 10.992 47.8666 10.992 48.7813 11.9067Z" fill="#FFD205"/>
<path d="M15.6562 21.8442L12.3437 25.1567C11.429 26.0714 11.429 27.5545 12.3437 28.4692L37.1875 53.313H50.4375L18.9687 21.8442C18.054 20.9295 16.5709 20.9295 15.6562 21.8442Z" fill="#FAA019"/>
<path d="M15.6562 21.8442C14.7415 22.7589 14.7415 24.242 15.6562 25.1567L43.8125 53.313H50.4375L18.9687 21.8442C18.054 20.9295 16.5709 20.9295 15.6562 21.8442Z" fill="#FFD205"/>
<path d="M5.71871 25.1567L2.40621 28.4692C1.49155 29.3839 1.49155 30.867 2.40621 31.7817L27.25 56.6255H40.5L9.03121 25.1567C8.11655 24.242 6.63338 24.242 5.71871 25.1567Z" fill="#FAA019"/>
<path d="M5.71871 25.1567C4.80405 26.0714 4.80405 27.5545 5.71871 28.4692L33.875 56.6255H40.5L9.03121 25.1567C8.11655 24.242 6.63338 24.242 5.71871 25.1567Z" fill="#FFD205"/>
<path d="M18.9687 11.9067L15.6562 15.2192C14.7415 16.1339 14.7415 17.617 15.6562 18.5317L43.8125 46.688H57.0625L22.2812 11.9067C21.3665 10.992 19.8834 10.992 18.9687 11.9067Z" fill="#FAA019"/>
<path d="M18.9687 11.9067C18.054 12.8214 18.054 14.3045 18.9687 15.2192L50.4375 46.688H57.0625L22.2812 11.9067C21.3665 10.992 19.8834 10.992 18.9687 11.9067Z" fill="#FFD205"/>
<path d="M75.2812 25.1567L78.5938 28.4692C79.5084 29.3839 79.5084 30.867 78.5938 31.7817L53.75 56.6255H40.5L71.9688 25.1567C72.8834 24.242 74.3666 24.242 75.2812 25.1567Z" fill="#FAA019"/>
<path d="M75.2813 25.1567C76.1959 26.0714 76.1959 27.5545 75.2813 28.4692L47.125 56.6255H40.5L71.9688 25.1567C72.8834 24.242 74.3666 24.242 75.2813 25.1567Z" fill="#FFD205"/>
<path d="M58.7188 15.2192L62.0312 18.5317C62.9459 19.4464 62.9459 20.9295 62.0312 21.8442L37.1875 46.688H23.9375L55.4062 15.2192C56.3209 14.3045 57.8041 14.3045 58.7188 15.2192Z" fill="#FAA019"/>
<path d="M58.7188 15.2192C59.6334 16.1339 59.6334 17.617 58.7188 18.5317L30.5625 46.688H23.9375L55.4063 15.2192C56.3209 14.3045 57.8041 14.3045 58.7188 15.2192Z" fill="#FFD205"/>
<path d="M75.2812 11.9067L78.5938 15.2192C79.5084 16.1339 79.5084 17.617 78.5938 18.5317L47.125 50.0005H33.875L71.9688 11.9067C72.8834 10.992 74.3666 10.992 75.2812 11.9067Z" fill="#FAA019"/>
<path d="M75.2812 11.9067C76.1959 12.8214 76.1959 14.3045 75.2812 15.2192L40.5 50.0005H33.875L71.9688 11.9067C72.8834 10.992 74.3666 10.992 75.2812 11.9067Z" fill="#FFD205"/>
<path d="M77.1907 36.75H48.7812C47.8666 36.75 47.125 37.4916 47.125 38.4062C47.125 42.9798 43.4173 46.6875 38.8438 46.6875H22.2812C17.7077 46.6875 14 42.9798 14 38.4062C14 37.4916 13.2584 36.75 12.3438 36.75H3.8093C2.11972 36.75 0.75 38.1197 0.75 39.8093C0.75 39.9778 0.76387 40.1459 0.791613 40.3122L9.76476 94.1515C10.2972 97.346 13.0611 99.6873 16.2997 99.6873H64.7003C67.9389 99.6873 70.7028 97.346 71.2352 94.1515L80.2084 40.3122C80.2361 40.1459 80.25 39.9778 80.25 39.8093C80.25 38.1197 78.8803 36.75 77.1907 36.75Z" fill="#F04B37"/>
<path d="M77.1906 36.75H57.3156C59.0052 36.75 60.3749 38.1197 60.3749 39.8093C60.3749 39.9778 60.361 40.1459 60.3333 40.3122L51.3601 94.1515C50.8277 97.3462 48.0638 99.6875 44.8252 99.6875H64.7002C67.9388 99.6875 70.7027 97.3462 71.2351 94.1517L80.2083 40.3124C80.236 40.1461 80.2499 39.978 80.2499 39.8095C80.2499 38.1197 78.8802 36.75 77.1906 36.75Z" fill="#E1322D"/>
<path d="M30.5625 86.4375C37.8803 86.4375 43.8125 80.5053 43.8125 73.1875C43.8125 65.8697 37.8803 59.9375 30.5625 59.9375C23.2447 59.9375 17.3125 65.8697 17.3125 73.1875C17.3125 80.5053 23.2447 86.4375 30.5625 86.4375Z" fill="#FAA019"/>
</svg>
