<svg xmlns="http://www.w3.org/2000/svg" width="26" height="26" viewBox="0 0 26 26">
  <path id="linkedin" d="M0,2.172A2.172,2.172,0,0,1,2.172,0H23.825A2.171,2.171,0,0,1,26,2.172V23.825A2.172,2.172,0,0,1,23.827,26H2.172A2.172,2.172,0,0,1,0,23.827ZM10.291,9.913h3.521v1.768A4.034,4.034,0,0,1,17.574,9.75c3.745,0,4.633,2.024,4.633,5.739v6.881h-3.79V16.335c0-2.115-.508-3.309-1.8-3.309-1.79,0-2.535,1.287-2.535,3.309v6.034H10.291Zm-6.5,12.294H7.583V9.75H3.791V22.206ZM8.125,5.687A2.438,2.438,0,1,1,7.392,4a2.438,2.438,0,0,1,.733,1.689Z" fill-rule="evenodd"/>
</svg>
