<svg width="28" height="28" viewBox="0 0 28 28" fill="none" xmlns="http://www.w3.org/2000/svg">
<circle cx="14" cy="14" r="14" fill="#082E4D"/>
<path d="M14.216 19.16C13.288 19.16 12.4933 18.9413 11.832 18.504C11.1813 18.056 10.6853 17.416 10.344 16.584C10.0027 15.752 9.832 14.744 9.832 13.56C9.832 12.6 9.93867 11.752 10.152 11.016C10.376 10.2693 10.696 9.64 11.112 9.128C11.528 8.616 12.0347 8.22667 12.632 7.96C13.24 7.69333 13.9227 7.56 14.68 7.56C15.1493 7.56 15.624 7.63467 16.104 7.784C16.5947 7.92267 17.0533 8.136 17.48 8.424C17.6507 8.53067 17.7627 8.66933 17.816 8.84C17.8693 9.01067 17.8747 9.18133 17.832 9.352C17.8 9.512 17.7253 9.656 17.608 9.784C17.5013 9.90133 17.3627 9.976 17.192 10.008C17.0213 10.0293 16.8347 9.98133 16.632 9.864C16.2693 9.65067 15.928 9.50133 15.608 9.416C15.288 9.33067 14.968 9.288 14.648 9.288C14.0293 9.288 13.5067 9.432 13.08 9.72C12.6533 10.008 12.328 10.44 12.104 11.016C11.8907 11.592 11.784 12.312 11.784 13.176V14.376H11.592C11.6773 13.832 11.8533 13.368 12.12 12.984C12.3973 12.5893 12.7493 12.2907 13.176 12.088C13.6027 11.8747 14.0773 11.768 14.6 11.768C15.2507 11.768 15.8267 11.9227 16.328 12.232C16.8293 12.5413 17.224 12.968 17.512 13.512C17.8 14.056 17.944 14.68 17.944 15.384C17.944 16.1093 17.784 16.76 17.464 17.336C17.1547 17.9013 16.7173 18.3493 16.152 18.68C15.5973 19 14.952 19.16 14.216 19.16ZM14.104 17.528C14.488 17.528 14.824 17.4427 15.112 17.272C15.4107 17.1013 15.64 16.8613 15.8 16.552C15.96 16.232 16.04 15.8693 16.04 15.464C16.04 15.048 15.96 14.6853 15.8 14.376C15.64 14.0667 15.4107 13.8267 15.112 13.656C14.824 13.4747 14.488 13.384 14.104 13.384C13.72 13.384 13.384 13.4747 13.096 13.656C12.808 13.8267 12.5787 14.0667 12.408 14.376C12.248 14.6853 12.168 15.048 12.168 15.464C12.168 15.8693 12.248 16.232 12.408 16.552C12.5787 16.8613 12.808 17.1013 13.096 17.272C13.384 17.4427 13.72 17.528 14.104 17.528Z" fill="white"/>
</svg>
