<svg width="28" height="28" viewBox="0 0 28 28" fill="none" xmlns="http://www.w3.org/2000/svg">
<circle cx="14" cy="14" r="14" fill="#082E4D"/>
<path d="M15.608 19.128C15.288 19.128 15.0373 19.0427 14.856 18.872C14.6747 18.6907 14.584 18.4347 14.584 18.104V16.856H10.632C10.3013 16.856 10.0347 16.7867 9.832 16.648C9.64 16.5093 9.544 16.2907 9.544 15.992C9.544 15.8213 9.58667 15.6347 9.672 15.432C9.768 15.2293 9.93333 14.9627 10.168 14.632L14.552 8.28C14.7013 8.056 14.8667 7.88533 15.048 7.768C15.2293 7.65067 15.4373 7.592 15.672 7.592C15.9493 7.592 16.1787 7.67733 16.36 7.848C16.5413 8.008 16.632 8.264 16.632 8.616V15.16H17.416C17.7253 15.16 17.9547 15.2347 18.104 15.384C18.264 15.5227 18.344 15.7307 18.344 16.008C18.344 16.2853 18.264 16.4987 18.104 16.648C17.9547 16.7867 17.7253 16.856 17.416 16.856H16.632V18.104C16.632 18.4347 16.5413 18.6907 16.36 18.872C16.1787 19.0427 15.928 19.128 15.608 19.128ZM14.584 15.16V10.168H15.048L11.272 15.704V15.16H14.584Z" fill="white"/>
</svg>
