<svg width="28" height="28" viewBox="0 0 28 28" fill="none" xmlns="http://www.w3.org/2000/svg">
<circle cx="14" cy="14" r="14" fill="#082E4D"/>
<path d="M11.752 19.128C11.5067 19.128 11.304 19.0693 11.144 18.952C10.984 18.8347 10.888 18.68 10.856 18.488C10.824 18.2853 10.872 18.0613 11 17.816L15.832 8.728V9.432H10.648C10.36 9.432 10.136 9.35733 9.976 9.208C9.82667 9.05867 9.752 8.85067 9.752 8.584C9.752 8.30667 9.82667 8.09333 9.976 7.944C10.136 7.79467 10.36 7.72 10.648 7.72H16.84C17.128 7.72 17.3627 7.79467 17.544 7.944C17.7253 8.09333 17.816 8.30667 17.816 8.584C17.816 8.81867 17.784 9.02667 17.72 9.208C17.656 9.37867 17.5707 9.56533 17.464 9.768L12.92 18.456C12.8027 18.6907 12.648 18.8613 12.456 18.968C12.2747 19.0747 12.04 19.128 11.752 19.128Z" fill="white"/>
</svg>
