<svg width="28" height="28" viewBox="0 0 28 28" fill="none" xmlns="http://www.w3.org/2000/svg">
<circle cx="14" cy="14" r="14" fill="#082E4D"/>
<path d="M13.896 19.16C13.3307 19.16 12.7547 19.0853 12.168 18.936C11.5813 18.7867 11.0427 18.5573 10.552 18.248C10.3493 18.12 10.2107 17.9707 10.136 17.8C10.072 17.6187 10.056 17.4427 10.088 17.272C10.1307 17.0907 10.2107 16.9413 10.328 16.824C10.456 16.696 10.6053 16.6213 10.776 16.6C10.9573 16.5787 11.1547 16.6267 11.368 16.744C11.7627 16.968 12.1627 17.1387 12.568 17.256C12.9733 17.3733 13.4053 17.432 13.864 17.432C14.312 17.432 14.696 17.352 15.016 17.192C15.336 17.032 15.5813 16.808 15.752 16.52C15.9227 16.232 16.008 15.896 16.008 15.512C16.008 14.9147 15.8267 14.4347 15.464 14.072C15.1013 13.6987 14.6053 13.512 13.976 13.512C13.6347 13.512 13.304 13.5707 12.984 13.688C12.664 13.7947 12.3493 13.9867 12.04 14.264C11.944 14.3493 11.8213 14.4347 11.672 14.52C11.5227 14.5947 11.3627 14.632 11.192 14.632C10.9253 14.632 10.7227 14.5627 10.584 14.424C10.4453 14.2853 10.376 14.0933 10.376 13.848V8.616C10.376 8.328 10.4507 8.10933 10.6 7.96C10.76 7.8 10.984 7.72 11.272 7.72H16.536C16.824 7.72 17.0427 7.79467 17.192 7.944C17.352 8.08267 17.432 8.29067 17.432 8.568C17.432 8.83467 17.352 9.04267 17.192 9.192C17.0427 9.34133 16.824 9.416 16.536 9.416H12.376V13H11.848C12.1253 12.6267 12.4933 12.3387 12.952 12.136C13.4107 11.9333 13.912 11.832 14.456 11.832C15.1707 11.832 15.7893 11.9867 16.312 12.296C16.8453 12.5947 17.256 13.016 17.544 13.56C17.8427 14.0933 17.992 14.7173 17.992 15.432C17.992 16.168 17.8267 16.8187 17.496 17.384C17.1653 17.9387 16.6907 18.376 16.072 18.696C15.464 19.0053 14.7387 19.16 13.896 19.16Z" fill="white"/>
</svg>
