<svg width="28" height="28" viewBox="0 0 28 28" fill="none" xmlns="http://www.w3.org/2000/svg">
<circle cx="14" cy="14" r="14" fill="#082E4D"/>
<path d="M13.8 19.16C12.9253 19.16 12.1733 19.0373 11.544 18.792C10.9253 18.536 10.4453 18.168 10.104 17.688C9.77333 17.208 9.608 16.632 9.608 15.96C9.608 15.4267 9.71467 14.9573 9.928 14.552C10.152 14.136 10.456 13.8 10.84 13.544C11.224 13.288 11.6613 13.128 12.152 13.064V13.4C11.4693 13.2507 10.92 12.9253 10.504 12.424C10.0987 11.912 9.896 11.304 9.896 10.6C9.896 9.96 10.056 9.416 10.376 8.968C10.696 8.50933 11.1493 8.16267 11.736 7.928C12.3227 7.68267 13.0107 7.56 13.8 7.56C14.6 7.56 15.2933 7.68267 15.88 7.928C16.4667 8.16267 16.92 8.50933 17.24 8.968C17.56 9.416 17.72 9.96 17.72 10.6C17.72 11.0693 17.624 11.5013 17.432 11.896C17.2507 12.2907 16.9893 12.616 16.648 12.872C16.3173 13.128 15.928 13.2987 15.48 13.384V13.064C16.2267 13.1707 16.8293 13.4853 17.288 14.008C17.7573 14.52 17.992 15.1707 17.992 15.96C17.992 16.632 17.8213 17.208 17.48 17.688C17.1493 18.168 16.6693 18.536 16.04 18.792C15.4213 19.0373 14.6747 19.16 13.8 19.16ZM13.8 17.56C14.5573 17.56 15.128 17.416 15.512 17.128C15.896 16.8293 16.088 16.392 16.088 15.816C16.088 15.24 15.896 14.808 15.512 14.52C15.128 14.232 14.5573 14.088 13.8 14.088C13.0533 14.088 12.4827 14.232 12.088 14.52C11.704 14.808 11.512 15.24 11.512 15.816C11.512 16.392 11.704 16.8293 12.088 17.128C12.4827 17.416 13.0533 17.56 13.8 17.56ZM13.8 12.488C14.2267 12.488 14.5893 12.424 14.888 12.296C15.1867 12.1573 15.416 11.96 15.576 11.704C15.736 11.448 15.816 11.1493 15.816 10.808C15.816 10.296 15.6347 9.896 15.272 9.608C14.92 9.30933 14.4293 9.16 13.8 9.16C13.1707 9.16 12.68 9.30933 12.328 9.608C11.976 9.896 11.8 10.296 11.8 10.808C11.8 11.3307 11.976 11.7413 12.328 12.04C12.68 12.3387 13.1707 12.488 13.8 12.488Z" fill="white"/>
</svg>
