<svg width="28" height="28" viewBox="0 0 28 28" fill="none" xmlns="http://www.w3.org/2000/svg">
<circle cx="14" cy="14" r="14" fill="#082E4D"/>
<path d="M13.576 19.16C13 19.16 12.4027 19.0853 11.784 18.936C11.1653 18.7867 10.6267 18.5627 10.168 18.264C9.95467 18.1253 9.81067 17.9653 9.736 17.784C9.66133 17.6027 9.64 17.432 9.672 17.272C9.71467 17.1013 9.79467 16.9573 9.912 16.84C10.04 16.7227 10.1947 16.6533 10.376 16.632C10.568 16.6107 10.776 16.6587 11 16.776C11.4373 17.0107 11.8587 17.1813 12.264 17.288C12.6693 17.384 13.0853 17.432 13.512 17.432C13.9813 17.432 14.376 17.368 14.696 17.24C15.016 17.112 15.256 16.92 15.416 16.664C15.5867 16.408 15.672 16.0987 15.672 15.736C15.672 15.2027 15.4907 14.808 15.128 14.552C14.776 14.2853 14.2587 14.152 13.576 14.152H12.552C12.2533 14.152 12.024 14.0773 11.864 13.928C11.7147 13.7787 11.64 13.5707 11.64 13.304C11.64 13.0373 11.7147 12.8293 11.864 12.68C12.024 12.5307 12.2533 12.456 12.552 12.456H13.384C13.7893 12.456 14.136 12.392 14.424 12.264C14.712 12.1253 14.936 11.9333 15.096 11.688C15.256 11.4427 15.336 11.144 15.336 10.792C15.336 10.3013 15.1707 9.928 14.84 9.672C14.52 9.416 14.0507 9.288 13.432 9.288C13.0373 9.288 12.664 9.336 12.312 9.432C11.9707 9.51733 11.592 9.68267 11.176 9.928C10.984 10.0453 10.7973 10.0933 10.616 10.072C10.4453 10.0507 10.3013 9.98133 10.184 9.864C10.0667 9.74667 9.98667 9.608 9.944 9.448C9.90133 9.27733 9.912 9.10667 9.976 8.936C10.04 8.75467 10.1733 8.6 10.376 8.472C10.8347 8.17333 11.3413 7.94933 11.896 7.8C12.4507 7.64 13.0213 7.56 13.608 7.56C14.3867 7.56 15.0533 7.68267 15.608 7.928C16.1627 8.16267 16.584 8.504 16.872 8.952C17.1707 9.38933 17.32 9.92267 17.32 10.552C17.32 11 17.2347 11.4107 17.064 11.784C16.8933 12.1467 16.6533 12.456 16.344 12.712C16.0347 12.968 15.6613 13.1493 15.224 13.256V13.064C15.992 13.192 16.5893 13.512 17.016 14.024C17.4427 14.5253 17.656 15.1547 17.656 15.912C17.656 16.5733 17.4907 17.1493 17.16 17.64C16.8293 18.1307 16.36 18.5093 15.752 18.776C15.144 19.032 14.4187 19.16 13.576 19.16Z" fill="white"/>
</svg>
