<svg width="42" height="42" viewBox="0 0 42 42" fill="none" xmlns="http://www.w3.org/2000/svg">
<path d="M34.4163 13.333V1.83301M28.6663 7.58301H40.1663M40.1663 20.9997V30.9663C40.1663 34.1866 40.1663 35.7968 39.5396 37.0268C38.9884 38.1087 38.1087 38.9884 37.0268 39.5396C35.7968 40.1663 34.1866 40.1663 30.9663 40.1663H11.033C7.81271 40.1663 6.20256 40.1663 4.97256 39.5396C3.89063 38.9884 3.01099 38.1087 2.45972 37.0268C1.83301 35.7968 1.83301 34.1866 1.83301 30.9663V11.033C1.83301 7.81271 1.83301 6.20256 2.45972 4.97256C3.01099 3.89063 3.89063 3.01099 4.97256 2.45972C6.20256 1.83301 7.81271 1.83301 11.033 1.83301H20.9997M2.11234 36.1918C3.01153 32.957 5.97837 30.583 9.49967 30.583H22.9163C24.6975 30.583 25.5881 30.583 26.3287 30.7303C29.37 31.3353 31.7474 33.7127 32.3524 36.754C32.4997 37.4946 32.4997 38.3852 32.4997 40.1663M24.833 16.208C24.833 20.4422 21.4005 23.8747 17.1663 23.8747C12.9322 23.8747 9.49967 20.4422 9.49967 16.208C9.49967 11.9738 12.9322 8.54134 17.1663 8.54134C21.4005 8.54134 24.833 11.9738 24.833 16.208Z" stroke="#007AFF" stroke-width="2" stroke-linecap="round" stroke-linejoin="round"/>
</svg>
