<svg width="42" height="42" viewBox="0 0 42 42" fill="none" xmlns="http://www.w3.org/2000/svg">
<path d="M14.2913 26.1108C14.2913 28.5807 16.2936 30.583 18.7636 30.583H22.9163C25.5627 30.583 27.708 28.4377 27.708 25.7913C27.708 23.145 25.5627 20.9997 22.9163 20.9997H19.083C16.4366 20.9997 14.2913 18.8544 14.2913 16.208C14.2913 13.5616 16.4366 11.4163 19.083 11.4163H23.2358C25.7057 11.4163 27.708 13.4186 27.708 15.8886M20.9997 8.54134V11.4163M20.9997 30.583V33.458M40.1663 20.9997C40.1663 31.5851 31.5851 40.1663 20.9997 40.1663C10.4142 40.1663 1.83301 31.5851 1.83301 20.9997C1.83301 10.4142 10.4142 1.83301 20.9997 1.83301C31.5851 1.83301 40.1663 10.4142 40.1663 20.9997Z" stroke="#CCA300" stroke-width="2" stroke-linecap="round" stroke-linejoin="round"/>
</svg>
