<svg width="40" height="40" viewBox="0 0 40 40" fill="none" xmlns="http://www.w3.org/2000/svg">
<path d="M19.9997 39.1663C9.41393 39.1663 0.833008 30.5854 0.833008 19.9997C0.833008 9.41393 9.41393 0.833008 19.9997 0.833008C30.5854 0.833008 39.1663 9.41393 39.1663 19.9997C39.1663 30.5854 30.5854 39.1663 19.9997 39.1663ZM19.9997 35.333C24.0663 35.333 27.9664 33.7175 30.842 30.842C33.7175 27.9664 35.333 24.0663 35.333 19.9997C35.333 15.933 33.7175 12.0329 30.842 9.15737C27.9664 6.28181 24.0663 4.66634 19.9997 4.66634C15.933 4.66634 12.0329 6.28181 9.15737 9.15737C6.28181 12.0329 4.66634 15.933 4.66634 19.9997C4.66634 24.0663 6.28181 27.9664 9.15737 30.842C12.0329 33.7175 15.933 35.333 19.9997 35.333ZM19.9997 10.4163C20.508 10.4163 20.9955 10.6183 21.355 10.9777C21.7144 11.3372 21.9163 11.8247 21.9163 12.333V21.9163C21.9163 22.4247 21.7144 22.9122 21.355 23.2716C20.9955 23.6311 20.508 23.833 19.9997 23.833C19.4913 23.833 19.0038 23.6311 18.6444 23.2716C18.2849 22.9122 18.083 22.4247 18.083 21.9163V12.333C18.083 11.8247 18.2849 11.3372 18.6444 10.9777C19.0038 10.6183 19.4913 10.4163 19.9997 10.4163ZM19.9997 29.583C19.4913 29.583 19.0038 29.3811 18.6444 29.0216C18.2849 28.6622 18.083 28.1747 18.083 27.6663C18.083 27.158 18.2849 26.6705 18.6444 26.3111C19.0038 25.9516 19.4913 25.7497 19.9997 25.7497C20.508 25.7497 20.9955 25.9516 21.355 26.3111C21.7144 26.6705 21.9163 27.158 21.9163 27.6663C21.9163 28.1747 21.7144 28.6622 21.355 29.0216C20.9955 29.3811 20.508 29.583 19.9997 29.583Z" fill="#DB3738"/>
</svg>
