<svg width="60" height="60" viewBox="0 0 60 60" fill="none" xmlns="http://www.w3.org/2000/svg">
<circle cx="30" cy="30" r="30" fill="#FFE9CC"/>
<path d="M16.6667 23.3333L27.5532 30.9538C28.4348 31.5709 28.8756 31.8795 29.355 31.999C29.7785 32.1046 30.2215 32.1046 30.645 31.999C31.1245 31.8795 31.5652 31.5709 32.4468 30.9538L43.3334 23.3333M23.0667 40.6666H36.9334C39.1736 40.6666 40.2937 40.6666 41.1493 40.2306C41.902 39.8471 42.5139 39.2352 42.8974 38.4825C43.3334 37.6269 43.3334 36.5068 43.3334 34.2666V25.7333C43.3334 23.493 43.3334 22.3729 42.8974 21.5173C42.5139 20.7646 41.902 20.1527 41.1493 19.7692C40.2937 19.3333 39.1736 19.3333 36.9334 19.3333H23.0667C20.8265 19.3333 19.7064 19.3333 18.8507 19.7692C18.0981 20.1527 17.4862 20.7646 17.1027 21.5173C16.6667 22.3729 16.6667 23.493 16.6667 25.7333V34.2666C16.6667 36.5068 16.6667 37.6269 17.1027 38.4825C17.4862 39.2352 18.0981 39.8471 18.8507 40.2306C19.7064 40.6666 20.8265 40.6666 23.0667 40.6666Z" stroke="#F7961C" stroke-width="2" stroke-linecap="round" stroke-linejoin="round"/>
</svg>
