<svg width="121" height="120" viewBox="0 0 121 120" fill="none" xmlns="http://www.w3.org/2000/svg">
<path d="M16.1 37.1999C17.4255 37.1999 18.5 36.1254 18.5 34.7999C18.5 33.4744 17.4255 32.3999 16.1 32.3999C14.7745 32.3999 13.7 33.4744 13.7 34.7999C13.7 36.1254 14.7745 37.1999 16.1 37.1999Z" fill="#78A0CF"/>
<path d="M92.9 16.7999C93.5628 16.7999 94.1 16.2626 94.1 15.5999C94.1 14.9372 93.5628 14.3999 92.9 14.3999C92.2373 14.3999 91.7 14.9372 91.7 15.5999C91.7 16.2626 92.2373 16.7999 92.9 16.7999Z" fill="#F1BC19"/>
<path d="M60.5 104.4C85.0214 104.4 104.9 84.5215 104.9 60.0001C104.9 35.4787 85.0214 15.6001 60.5 15.6001C35.9785 15.6001 16.1 35.4787 16.1 60.0001C16.1 84.5215 35.9785 104.4 60.5 104.4Z" fill="#CEE1F4"/>
<path d="M100.1 22.8002C102.751 22.8002 104.9 20.6512 104.9 18.0002C104.9 15.3492 102.751 13.2002 100.1 13.2002C97.449 13.2002 95.3 15.3492 95.3 18.0002C95.3 20.6512 97.449 22.8002 100.1 22.8002Z" fill="#F1BC19"/>
<path d="M104.9 31.1999C106.225 31.1999 107.3 30.1254 107.3 28.7999C107.3 27.4744 106.225 26.3999 104.9 26.3999C103.575 26.3999 102.5 27.4744 102.5 28.7999C102.5 30.1254 103.575 31.1999 104.9 31.1999Z" fill="#78A0CF"/>
<path d="M97.7 93.5998C99.0255 93.5998 100.1 92.5253 100.1 91.1998C100.1 89.8743 99.0255 88.7998 97.7 88.7998C96.3745 88.7998 95.3 89.8743 95.3 91.1998C95.3 92.5253 96.3745 93.5998 97.7 93.5998Z" fill="#FBCD59"/>
<path d="M18.5 80.3998C21.151 80.3998 23.3 78.2508 23.3 75.5998C23.3 72.9488 21.151 70.7998 18.5 70.7998C15.849 70.7998 13.7 72.9488 13.7 75.5998C13.7 78.2508 15.849 80.3998 18.5 80.3998Z" fill="#FBCD59"/>
<path d="M30.5 106.8C31.8255 106.8 32.9 105.725 32.9 104.4C32.9 103.075 31.8255 102 30.5 102C29.1745 102 28.1 103.075 28.1 104.4C28.1 105.725 29.1745 106.8 30.5 106.8Z" fill="#78A0CF"/>
<path d="M34.7 36C36.3569 36 37.7 34.6569 37.7 33C37.7 31.3431 36.3569 30 34.7 30C33.0432 30 31.7 31.3431 31.7 33C31.7 34.6569 33.0432 36 34.7 36Z" fill="white"/>
<path d="M29.3 86.4C29.9627 86.4 30.5 85.8627 30.5 85.2C30.5 84.5373 29.9627 84 29.3 84C28.6372 84 28.1 84.5373 28.1 85.2C28.1 85.8627 28.6372 86.4 29.3 86.4Z" fill="#F1BC19"/>
<path d="M98.9 49.1998C99.5628 49.1998 100.1 48.6625 100.1 47.9998C100.1 47.3371 99.5628 46.7998 98.9 46.7998C98.2373 46.7998 97.7 47.3371 97.7 47.9998C97.7 48.6625 98.2373 49.1998 98.9 49.1998Z" fill="white"/>
<path d="M29.0996 80.7602C27.6884 80.7602 26.54 79.6118 26.54 78.1994V65.5778C29.2532 65.171 31.34 62.825 31.34 60.0002C31.34 57.1754 29.2532 54.8294 26.54 54.4226V42.9998C26.54 41.5874 27.6884 40.439 29.0996 40.439H91.9004C93.3116 40.439 94.46 41.5874 94.46 42.9998V54.4226C91.7468 54.8294 89.66 57.1754 89.66 60.0002C89.66 62.825 91.7468 65.171 94.46 65.5778V78.2006C94.46 79.613 93.3116 80.7614 91.9004 80.7614L29.0996 80.7602Z" fill="#F6CCA4"/>
<path d="M91.9004 41.2801C92.8484 41.2801 93.62 42.0517 93.62 43.0009V53.7421C90.8588 54.4837 88.82 57.0085 88.82 60.0013C88.82 62.9941 90.8588 65.5189 93.62 66.2605V78.2017C93.62 79.1509 92.8484 79.9225 91.9004 79.9225H29.0996C28.1516 79.9225 27.38 79.1509 27.38 78.2017V66.2605C30.1412 65.5189 32.18 62.9941 32.18 60.0013C32.18 57.0085 30.1412 54.4837 27.38 53.7421V43.0009C27.38 42.0517 28.1516 41.2801 29.0996 41.2801H91.9004ZM91.9004 39.6001H29.0996C27.2228 39.6001 25.7 41.1229 25.7 42.9997V55.2001C28.3508 55.2001 30.5 57.3493 30.5 60.0001C30.5 62.6509 28.3508 64.8001 25.7 64.8001V78.2005C25.7 80.0773 27.2228 81.6001 29.0996 81.6001H91.8992C93.7772 81.6001 95.3 80.0773 95.3 78.2005V64.8001C92.6492 64.8001 90.5 62.6509 90.5 60.0001C90.5 57.3493 92.6492 55.2001 95.3 55.2001V42.9997C95.3 41.1229 93.7772 39.6001 91.9004 39.6001Z" fill="#472B29"/>
<path d="M84.5 49.2003C85.1627 49.2003 85.7 48.663 85.7 48.0003C85.7 47.3376 85.1627 46.8003 84.5 46.8003C83.8372 46.8003 83.3 47.3376 83.3 48.0003C83.3 48.663 83.8372 49.2003 84.5 49.2003Z" fill="#472B29"/>
<path d="M84.5 44.4C85.1627 44.4 85.7 43.8627 85.7 43.2C85.7 42.5373 85.1627 42 84.5 42C83.8372 42 83.3 42.5373 83.3 43.2C83.3 43.8627 83.8372 44.4 84.5 44.4Z" fill="#472B29"/>
<path d="M84.5 54.0001C85.1627 54.0001 85.7 53.4628 85.7 52.8001C85.7 52.1374 85.1627 51.6001 84.5 51.6001C83.8372 51.6001 83.3 52.1374 83.3 52.8001C83.3 53.4628 83.8372 54.0001 84.5 54.0001Z" fill="#472B29"/>
<path d="M84.5 58.7999C85.1627 58.7999 85.7 58.2626 85.7 57.5999C85.7 56.9372 85.1627 56.3999 84.5 56.3999C83.8372 56.3999 83.3 56.9372 83.3 57.5999C83.3 58.2626 83.8372 58.7999 84.5 58.7999Z" fill="#472B29"/>
<path d="M84.5 63.6002C85.1627 63.6002 85.7 63.0629 85.7 62.4002C85.7 61.7375 85.1627 61.2002 84.5 61.2002C83.8372 61.2002 83.3 61.7375 83.3 62.4002C83.3 63.0629 83.8372 63.6002 84.5 63.6002Z" fill="#472B29"/>
<path d="M84.5 68.4C85.1627 68.4 85.7 67.8627 85.7 67.2C85.7 66.5373 85.1627 66 84.5 66C83.8372 66 83.3 66.5373 83.3 67.2C83.3 67.8627 83.8372 68.4 84.5 68.4Z" fill="#472B29"/>
<path d="M84.5 73.2003C85.1627 73.2003 85.7 72.663 85.7 72.0003C85.7 71.3376 85.1627 70.8003 84.5 70.8003C83.8372 70.8003 83.3 71.3376 83.3 72.0003C83.3 72.663 83.8372 73.2003 84.5 73.2003Z" fill="#472B29"/>
<path d="M84.5 78.0001C85.1627 78.0001 85.7 77.4628 85.7 76.8001C85.7 76.1374 85.1627 75.6001 84.5 75.6001C83.8372 75.6001 83.3 76.1374 83.3 76.8001C83.3 77.4628 83.8372 78.0001 84.5 78.0001Z" fill="#472B29"/>
<path d="M80.3252 45.3002H63.8996C63.734 45.3002 63.5996 45.1658 63.5996 45.0002C63.5996 44.8346 63.734 44.7002 63.8996 44.7002H80.3252C80.4908 44.7002 80.6252 44.8346 80.6252 45.0002C80.6252 45.1658 80.4896 45.3002 80.3252 45.3002Z" fill="#472B29"/>
<path d="M59.2004 45.3002H46.9004C46.7348 45.3002 46.6004 45.1658 46.6004 45.0002C46.6004 44.8346 46.7348 44.7002 46.9004 44.7002H59.2004C59.366 44.7002 59.5004 44.8346 59.5004 45.0002C59.5004 45.1658 59.366 45.3002 59.2004 45.3002Z" fill="#472B29"/>
<path d="M43.1 45.3002H31.1C30.9344 45.3002 30.8 45.1658 30.8 45.0002C30.8 44.8346 30.9344 44.7002 31.1 44.7002H43.1C43.2656 44.7002 43.4 44.8346 43.4 45.0002C43.4 45.1658 43.2656 45.3002 43.1 45.3002Z" fill="#472B29"/>
<path d="M31.1 52.8C30.9344 52.8 30.8 52.6656 30.8 52.5V45.0192C30.8 44.8536 30.9344 44.7192 31.1 44.7192C31.2656 44.7192 31.4 44.8536 31.4 45.0192V52.5C31.4 52.6656 31.2656 52.8 31.1 52.8Z" fill="#472B29"/>
<path d="M80.3 52.5002C80.1344 52.5002 80 52.3658 80 52.2002V45.0002C80 44.8346 80.1344 44.7002 80.3 44.7002C80.4656 44.7002 80.6 44.8346 80.6 45.0002V52.2002C80.6 52.3658 80.4656 52.5002 80.3 52.5002Z" fill="#472B29"/>
<path d="M80.3024 76.4783C80.1368 76.4783 80.0024 76.3439 80.0024 76.1783V57.0251C80.0024 56.8595 80.1368 56.7251 80.3024 56.7251C80.468 56.7251 80.6024 56.8595 80.6024 57.0251V76.1795C80.6024 76.3451 80.468 76.4783 80.3024 76.4783Z" fill="#472B29"/>
<path d="M31.1 76.5505C30.9344 76.5505 30.8 76.4161 30.8 76.2505V68.7697C30.8 68.6041 30.9344 68.4697 31.1 68.4697C31.2656 68.4697 31.4 68.6041 31.4 68.7697V76.2505C31.4 76.4161 31.2656 76.5505 31.1 76.5505Z" fill="#472B29"/>
<path d="M80.3 76.4999H73.3004C73.1348 76.4999 73.0004 76.3655 73.0004 76.1999C73.0004 76.0343 73.1348 75.8999 73.3004 75.8999H80.3C80.4656 75.8999 80.6 76.0343 80.6 76.1999C80.6 76.3655 80.4656 76.4999 80.3 76.4999Z" fill="#472B29"/>
<path d="M69.4004 76.4999H60.1004C59.9348 76.4999 59.8004 76.3655 59.8004 76.1999C59.8004 76.0343 59.9348 75.8999 60.1004 75.8999H69.4004C69.566 75.8999 69.7004 76.0343 69.7004 76.1999C69.7004 76.3655 69.566 76.4999 69.4004 76.4999Z" fill="#472B29"/>
<path d="M56.6 76.4999H31.1C30.9344 76.4999 30.8 76.3655 30.8 76.1999C30.8 76.0343 30.9344 75.8999 31.1 75.8999H56.6C56.7656 75.8999 56.9 76.0343 56.9 76.1999C56.9 76.3655 56.7656 76.4999 56.6 76.4999Z" fill="#472B29"/>
<path d="M73.1 52.8001H51.65C51.3188 52.8001 51.05 52.5313 51.05 52.2001C51.05 51.8689 51.3188 51.6001 51.65 51.6001H73.1C73.4312 51.6001 73.7 51.8689 73.7 52.2001C73.7 52.5313 73.4312 52.8001 73.1 52.8001Z" fill="#472B29"/>
<path d="M47.6756 52.8001H39.5C39.1688 52.8001 38.9 52.5313 38.9 52.2001C38.9 51.8689 39.1688 51.6001 39.5 51.6001H47.6756C48.0068 51.6001 48.2756 51.8689 48.2756 52.2001C48.2756 52.5313 48.0068 52.8001 47.6756 52.8001Z" fill="#472B29"/>
<path d="M73.1 58.8001H65.75C65.4188 58.8001 65.15 58.5313 65.15 58.2001C65.15 57.8689 65.4188 57.6001 65.75 57.6001H73.1C73.4312 57.6001 73.7 57.8689 73.7 58.2001C73.7 58.5313 73.4312 58.8001 73.1 58.8001Z" fill="#472B29"/>
<path d="M61.85 58.8001H39.5C39.1688 58.8001 38.9 58.5313 38.9 58.2001C38.9 57.8689 39.1688 57.6001 39.5 57.6001H61.85C62.1812 57.6001 62.45 57.8689 62.45 58.2001C62.45 58.5313 62.1812 58.8001 61.85 58.8001Z" fill="#472B29"/>
<path d="M61.85 69.5999H39.5C39.1688 69.5999 38.9 69.3311 38.9 68.9999C38.9 68.6687 39.1688 68.3999 39.5 68.3999H61.85C62.1812 68.3999 62.45 68.6687 62.45 68.9999C62.45 69.3311 62.1812 69.5999 61.85 69.5999Z" fill="#472B29"/>
<path d="M73.1 64.8001H57.05C56.7188 64.8001 56.45 64.5313 56.45 64.2001C56.45 63.8689 56.7188 63.6001 57.05 63.6001H73.1C73.4312 63.6001 73.7 63.8689 73.7 64.2001C73.7 64.5313 73.4312 64.8001 73.1 64.8001Z" fill="#472B29"/>
<path d="M53.0756 64.8001H39.5C39.1688 64.8001 38.9 64.5313 38.9 64.2001C38.9 63.8689 39.1688 63.6001 39.5 63.6001H53.0756C53.4068 63.6001 53.6756 63.8689 53.6756 64.2001C53.6756 64.5313 53.4068 64.8001 53.0756 64.8001Z" fill="#472B29"/>
</svg>
