<svg width="36" height="36" viewBox="0 0 36 36" fill="none" xmlns="http://www.w3.org/2000/svg">
<path d="M20.5498 11.9194C19.5958 12.5996 18.4283 12.9997 17.1673 12.9997C13.9457 12.9997 11.334 10.388 11.334 7.16634C11.334 3.94468 13.9457 1.33301 17.1673 1.33301C19.2556 1.33301 21.0876 2.43037 22.1182 4.07991M8.00065 31.4783H12.3511C12.9184 31.4783 13.4821 31.5458 14.032 31.6808L18.6288 32.7978C19.6262 33.0408 20.6653 33.0644 21.6731 32.8687L26.7556 31.8799C28.0982 31.6183 29.3333 30.9754 30.3012 30.0338L33.8971 26.5359C34.924 25.5386 34.924 23.9204 33.8971 22.9215C32.9726 22.0221 31.5085 21.9208 30.4625 22.6835L26.2716 25.7411C25.6715 26.1798 24.9412 26.4161 24.1901 26.4161H20.1432L22.7191 26.4159C24.171 26.4159 25.3471 25.2719 25.3471 23.8595V23.3483C25.3471 22.1755 24.5266 21.1529 23.3574 20.8695L19.3816 19.9026C18.7346 19.7456 18.072 19.6663 17.4059 19.6663C15.7979 19.6663 12.8871 20.9977 12.8871 20.9977L8.00065 23.0411M31.334 8.83301C31.334 12.0547 28.7223 14.6663 25.5007 14.6663C22.279 14.6663 19.6673 12.0547 19.6673 8.83301C19.6673 5.61135 22.279 2.99967 25.5007 2.99967C28.7223 2.99967 31.334 5.61135 31.334 8.83301ZM1.33398 22.333L1.33398 31.9997C1.33398 32.9331 1.33398 33.3998 1.51564 33.7563C1.67543 34.0699 1.9304 34.3249 2.244 34.4847C2.60052 34.6663 3.06723 34.6663 4.00065 34.6663H5.33398C6.2674 34.6663 6.73412 34.6663 7.09064 34.4847C7.40424 34.3249 7.65921 34.0699 7.819 33.7563C8.00065 33.3998 8.00065 32.9331 8.00065 31.9997V22.333C8.00065 21.3996 8.00065 20.9329 7.819 20.5764C7.65921 20.2628 7.40424 20.0078 7.09064 19.848C6.73412 19.6663 6.26741 19.6663 5.33399 19.6663L4.00065 19.6663C3.06723 19.6663 2.60052 19.6663 2.244 19.848C1.9304 20.0078 1.67543 20.2628 1.51564 20.5764C1.33398 20.9329 1.33398 21.3996 1.33398 22.333Z" stroke="#FF6900" stroke-width="2" stroke-linecap="round" stroke-linejoin="round"/>
</svg>
