<svg width="66" height="66" viewBox="0 0 66 66" fill="none" xmlns="http://www.w3.org/2000/svg">
<rect x="5" y="5" width="56" height="56" rx="28" fill="#CCF3EF"/>
<path d="M43 31H23M32 40L39.8 40C40.9201 40 41.4802 40 41.908 39.782C42.2843 39.5903 42.5903 39.2843 42.782 38.908C43 38.4802 43 37.9201 43 36.8V29.2C43 28.0799 43 27.5198 42.782 27.092C42.5903 26.7157 42.2843 26.4097 41.908 26.218C41.4802 26 40.9201 26 39.8 26H38M32 40L34 42M32 40L34 38M28 40H26.2C25.0799 40 24.5198 40 24.092 39.782C23.7157 39.5903 23.4097 39.2843 23.218 38.908C23 38.4802 23 37.9201 23 36.8V29.2C23 28.0799 23 27.5198 23.218 27.092C23.4097 26.7157 23.7157 26.4097 24.092 26.218C24.5198 26 25.0799 26 26.2 26H34M34 26L32 28M34 26L32 24" stroke="#009E96" stroke-width="2" stroke-linecap="round" stroke-linejoin="round"/>
<rect x="5" y="5" width="56" height="56" rx="28" stroke="#EDFAF7" stroke-width="10"/>
</svg>
