<svg width="22" height="23" viewBox="0 0 22 23" fill="none" xmlns="http://www.w3.org/2000/svg">
<path d="M17 6.83984V5.03984C17 3.91974 17 3.35969 16.782 2.93186C16.5903 2.55554 16.2843 2.24958 15.908 2.05783C15.4802 1.83984 14.9201 1.83984 13.8 1.83984H8.2C7.0799 1.83984 6.51984 1.83984 6.09202 2.05783C5.71569 2.24958 5.40973 2.55554 5.21799 2.93186C5 3.35969 5 3.91974 5 5.03984V6.83984M5 17.8398C4.07003 17.8398 3.60504 17.8398 3.22354 17.7376C2.18827 17.4602 1.37962 16.6516 1.10222 15.6163C1 15.2348 1 14.7698 1 13.8398V11.6398C1 9.95969 1 9.11961 1.32698 8.47787C1.6146 7.91339 2.07354 7.45444 2.63803 7.16682C3.27976 6.83984 4.11984 6.83984 5.8 6.83984H16.2C17.8802 6.83984 18.7202 6.83984 19.362 7.16682C19.9265 7.45444 20.3854 7.91339 20.673 8.47787C21 9.11961 21 9.95969 21 11.6398V13.8398C21 14.7698 21 15.2348 20.8978 15.6163C20.6204 16.6516 19.8117 17.4602 18.7765 17.7376C18.395 17.8398 17.93 17.8398 17 17.8398M14 10.3398H17M8.2 21.8398H13.8C14.9201 21.8398 15.4802 21.8398 15.908 21.6219C16.2843 21.4301 16.5903 21.1241 16.782 20.7478C17 20.32 17 19.7599 17 18.6398V17.0398C17 15.9197 17 15.3597 16.782 14.9319C16.5903 14.5555 16.2843 14.2496 15.908 14.0578C15.4802 13.8398 14.9201 13.8398 13.8 13.8398H8.2C7.0799 13.8398 6.51984 13.8398 6.09202 14.0578C5.71569 14.2496 5.40973 14.5555 5.21799 14.9319C5 15.3597 5 15.9197 5 17.0398V18.6398C5 19.7599 5 20.32 5.21799 20.7478C5.40973 21.1241 5.71569 21.4301 6.09202 21.6219C6.51984 21.8398 7.07989 21.8398 8.2 21.8398Z" stroke="white" stroke-width="2" stroke-linecap="round" stroke-linejoin="round"/>
</svg>
