<svg width="101" height="100" viewBox="0 0 101 100" fill="none" xmlns="http://www.w3.org/2000/svg">
<path d="M77.5 12C77.2348 12 76.9804 12.1054 76.7929 12.2929C76.6054 12.4804 76.5 12.7348 76.5 13C76.5 13.2652 76.6054 13.5196 76.7929 13.7071C76.9804 13.8946 77.2348 14 77.5 14C77.7652 14 78.0196 13.8946 78.2071 13.7071C78.3946 13.5196 78.5 13.2652 78.5 13C78.5 12.7348 78.3946 12.4804 78.2071 12.2929C78.0196 12.1054 77.7652 12 77.5 12Z" fill="#F1BC19"/>
<path d="M50.5 13C40.687 13 31.2759 16.8982 24.337 23.837C17.3982 30.7759 13.5 40.187 13.5 50C13.5 59.813 17.3982 69.2241 24.337 76.1629C31.2759 83.1018 40.687 87 50.5 87C60.313 87 69.7241 83.1018 76.6629 76.1629C83.6018 69.2241 87.5 59.813 87.5 50C87.5 40.187 83.6018 30.7759 76.6629 23.837C69.7241 16.8982 60.313 13 50.5 13Z" fill="#FEFBE7"/>
<path d="M83.5 11C82.4391 11 81.4217 11.4214 80.6716 12.1716C79.9214 12.9217 79.5 13.9391 79.5 15C79.5 16.0609 79.9214 17.0783 80.6716 17.8284C81.4217 18.5786 82.4391 19 83.5 19C84.5609 19 85.5783 18.5786 86.3284 17.8284C87.0786 17.0783 87.5 16.0609 87.5 15C87.5 13.9391 87.0786 12.9217 86.3284 12.1716C85.5783 11.4214 84.5609 11 83.5 11Z" fill="#F1BC19"/>
<path d="M87.5 22C86.9696 22 86.4609 22.2107 86.0858 22.5858C85.7107 22.9609 85.5 23.4696 85.5 24C85.5 24.5304 85.7107 25.0391 86.0858 25.4142C86.4609 25.7893 86.9696 26 87.5 26C88.0304 26 88.5391 25.7893 88.9142 25.4142C89.2893 25.0391 89.5 24.5304 89.5 24C89.5 23.4696 89.2893 22.9609 88.9142 22.5858C88.5391 22.2107 88.0304 22 87.5 22Z" fill="#8889B9"/>
<path d="M81.5 74C80.9696 74 80.4609 74.2107 80.0858 74.5858C79.7107 74.9609 79.5 75.4696 79.5 76C79.5 76.5304 79.7107 77.0391 80.0858 77.4142C80.4609 77.7893 80.9696 78 81.5 78C82.0304 78 82.5391 77.7893 82.9142 77.4142C83.2893 77.0391 83.5 76.5304 83.5 76C83.5 75.4696 83.2893 74.9609 82.9142 74.5858C82.5391 74.2107 82.0304 74 81.5 74ZM15.5 59C14.4391 59 13.4217 59.4214 12.6716 60.1716C11.9214 60.9217 11.5 61.9391 11.5 63C11.5 64.0609 11.9214 65.0783 12.6716 65.8284C13.4217 66.5786 14.4391 67 15.5 67C16.5609 67 17.5783 66.5786 18.3284 65.8284C19.0786 65.0783 19.5 64.0609 19.5 63C19.5 61.9391 19.0786 60.9217 18.3284 60.1716C17.5783 59.4214 16.5609 59 15.5 59Z" fill="#FBCD59"/>
<path d="M25.5 85C24.9696 85 24.4609 85.2107 24.0858 85.5858C23.7107 85.9609 23.5 86.4696 23.5 87C23.5 87.5304 23.7107 88.0391 24.0858 88.4142C24.4609 88.7893 24.9696 89 25.5 89C26.0304 89 26.5391 88.7893 26.9142 88.4142C27.2893 88.0391 27.5 87.5304 27.5 87C27.5 86.4696 27.2893 85.9609 26.9142 85.5858C26.5391 85.2107 26.0304 85 25.5 85Z" fill="#8889B9"/>
<path d="M19 49C18.337 49 17.7011 49.2634 17.2322 49.7322C16.7634 50.2011 16.5 50.837 16.5 51.5C16.5 52.163 16.7634 52.7989 17.2322 53.2678C17.7011 53.7366 18.337 54 19 54C19.663 54 20.2989 53.7366 20.7678 53.2678C21.2366 52.7989 21.5 52.163 21.5 51.5C21.5 50.837 21.2366 50.2011 20.7678 49.7322C20.2989 49.2634 19.663 49 19 49ZM80 32C79.6022 32 79.2206 32.158 78.9393 32.4393C78.658 32.7206 78.5 33.1022 78.5 33.5C78.5 33.8978 78.658 34.2794 78.9393 34.5607C79.2206 34.842 79.6022 35 80 35C80.3978 35 80.7794 34.842 81.0607 34.5607C81.342 34.2794 81.5 33.8978 81.5 33.5C81.5 33.1022 81.342 32.7206 81.0607 32.4393C80.7794 32.158 80.3978 32 80 32Z" fill="white"/>
<path d="M70.703 35.576V29.379C70.703 27.933 69.531 26.75 68.098 26.75H32.771C31.339 26.75 30.166 27.933 30.166 29.379V73.183L37.07 66.282L43.504 73.183L50.514 66.282L57.524 73.183L63.958 66.282L70.701 73.183V45.203" fill="#FEFDEF"/>
<path d="M30.167 73.8838C30.077 73.8838 29.986 73.8658 29.899 73.8298C29.638 73.7218 29.467 73.4668 29.467 73.1838V29.3788C29.467 27.5428 30.95 26.0498 32.772 26.0498H68.099C69.921 26.0498 71.404 27.5428 71.404 29.3788V35.5758C71.404 35.9628 71.091 36.2758 70.704 36.2758C70.317 36.2758 70.004 35.9628 70.004 35.5758V29.3788C70.004 28.3158 69.15 27.4498 68.1 27.4498H32.771C31.721 27.4498 30.866 28.3148 30.866 29.3788V71.4938L36.574 65.7868C36.708 65.6528 36.892 65.5618 37.081 65.5818C37.271 65.5858 37.451 65.6658 37.581 65.8048L43.524 72.1798L50.022 65.7838C50.294 65.5158 50.732 65.5158 51.004 65.7838L57.502 72.1798L63.445 65.8048C63.576 65.6648 63.758 65.5848 63.949 65.5818C64.135 65.5498 64.324 65.6558 64.458 65.7928L70 71.4658V45.2038C70 44.8168 70.313 44.5038 70.7 44.5038C71.087 44.5038 71.4 44.8168 71.4 45.2038V73.1828C71.4 73.4668 71.228 73.7238 70.964 73.8308C70.7 73.9348 70.399 73.8758 70.199 73.6718L63.968 67.2948L58.034 73.6598C57.905 73.7978 57.726 73.8778 57.537 73.8828C57.335 73.8928 57.165 73.8148 57.031 73.6818L50.512 67.2638L43.992 73.6818C43.857 73.8138 43.686 73.8858 43.486 73.8828C43.297 73.8778 43.118 73.7978 42.989 73.6598L37.05 67.2888L30.659 73.6778C30.527 73.8128 30.349 73.8838 30.167 73.8838Z" fill="#472B29"/>
<path d="M62.29 54.352C62.302 54.352 62.327 54.365 62.364 54.389L62.346 54.38C62.526 54.504 62.687 54.602 62.83 54.673C62.973 54.745 63.528 54.827 63.528 54.827V51.982L63.361 51.889C63.156 51.777 62.961 51.66 62.775 51.536C62.589 51.412 62.422 51.275 62.274 51.127C62.125 50.978 61.999 50.82 61.897 50.652C61.795 50.485 61.725 50.302 61.687 50.103C61.662 50.004 61.649 49.912 61.646 49.824C61.643 49.737 61.641 49.644 61.641 49.545C61.641 49.253 61.689 48.999 61.785 48.782C61.881 48.565 62.013 48.38 62.18 48.229C62.347 48.078 62.546 47.956 62.775 47.865C63.005 47.776 63.256 47.715 63.528 47.684V47.423C63.528 47.299 63.556 47.194 63.612 47.107C63.668 47.02 63.77 46.976 63.918 46.976H63.879C64.208 46.976 64.388 47.135 64.42 47.451L64.41 47.701C64.587 47.732 64.769 47.78 64.955 47.845C65.142 47.91 65.352 47.992 65.586 48.091L65.557 48.073C65.665 48.11 65.748 48.157 65.809 48.212C65.87 48.269 65.905 48.358 65.918 48.481V48.538C65.918 48.582 65.907 48.637 65.885 48.705C65.863 48.773 65.829 48.838 65.785 48.9C65.74 48.961 65.69 49.016 65.633 49.063C65.576 49.11 65.513 49.133 65.443 49.133C65.386 49.133 65.334 49.128 65.287 49.119C65.239 49.11 65.184 49.084 65.12 49.04V49.003L64.827 48.948C64.647 48.855 64.449 48.78 64.323 48.725V51.263L64.269 51.282C64.771 51.536 65.159 51.818 65.431 52.129C65.704 52.438 65.884 52.761 65.971 53.096C66.008 53.239 66.035 53.369 66.05 53.487C66.065 53.604 66.073 53.726 66.073 53.85C66.073 54.135 66.027 54.392 65.933 54.622C65.84 54.852 65.713 55.052 65.552 55.222C65.391 55.393 65.197 55.533 64.971 55.641C64.745 55.75 64.498 55.823 64.323 55.86V56.53C64.231 56.654 64.207 56.76 64.157 56.846C64.108 56.933 63.851 56.545 63.851 56.545H63.795C63.795 56.545 63.516 56.934 63.423 56.85C63.33 56.766 63.283 56.644 63.526 56.483V55.86C62.949 55.823 62.66 55.748 62.419 55.637C62.177 55.525 61.929 55.387 61.674 55.218C61.606 55.163 61.559 55.11 61.534 55.06C61.509 55.011 61.481 54.943 61.93 54.856V54.799C61.45 54.742 61.467 54.679 61.501 54.608C61.535 54.536 61.577 54.468 61.627 54.403C61.676 54.338 61.729 54.282 61.785 54.236C61.841 54.19 61.893 54.166 61.943 54.166C62.011 54.166 62.071 54.186 62.125 54.227C62.178 54.267 62.229 54.309 62.278 54.152H62.288C62.3 54.358 62.31 54.361 62.316 54.361L62.29 54.352ZM63.012 50.399C63.157 50.535 63.329 50.656 63.528 50.762V48.726C63.292 48.776 63.096 48.871 62.938 49.014C62.78 49.157 62.701 49.349 62.701 49.59C62.701 49.627 62.703 49.668 62.706 49.711C62.709 49.755 62.717 49.807 62.729 49.869C62.771 50.086 62.866 50.264 63.012 50.399ZM64.771 52.85C64.647 52.699 64.498 52.567 64.325 52.455V54.771C64.542 54.684 64.724 54.551 64.869 54.371C65.015 54.192 65.088 53.98 65.088 53.739C65.088 53.671 65.082 53.609 65.07 53.552C65.057 53.497 65.045 53.437 65.033 53.376C64.982 53.177 64.896 53.002 64.771 52.85ZM70.583 42.7C70.196 42.7 69.883 42.387 69.883 42V38.333C69.883 37.946 70.196 37.633 70.583 37.633C70.97 37.633 71.283 37.946 71.283 38.333V42C71.284 42.387 70.97 42.7 70.583 42.7ZM66 35H36C35.724 35 35.5 34.776 35.5 34.5C35.5 34.224 35.724 34 36 34H66C66.276 34 66.5 34.224 66.5 34.5C66.5 34.776 66.276 35 66 35Z" fill="#472B29"/>
<path d="M48 39H36C35.724 39 35.5 38.776 35.5 38.5C35.5 38.224 35.724 38 36 38H48C48.276 38 48.5 38.224 48.5 38.5C48.5 38.776 48.276 39 48 39Z" fill="#472B29"/>
<path d="M56 48H39C38.724 48 38.5 47.776 38.5 47.5C38.5 47.224 38.724 47 39 47H56C56.276 47 56.5 47.224 56.5 47.5C56.5 47.776 56.276 48 56 48Z" fill="#472B29"/>
<path d="M56 51H39C38.724 51 38.5 50.776 38.5 50.5C38.5 50.224 38.724 50 39 50H56C56.276 50 56.5 50.224 56.5 50.5C56.5 50.776 56.276 51 56 51Z" fill="#472B29"/>
<path d="M56 54H39C38.724 54 38.5 53.776 38.5 53.5C38.5 53.224 38.724 53 39 53H56C56.276 53 56.5 53.224 56.5 53.5C56.5 53.776 56.276 54 56 54Z" fill="#472B29"/>
<path d="M56 57H39C38.724 57 38.5 56.776 38.5 56.5C38.5 56.224 38.724 56 39 56H56C56.276 56 56.5 56.224 56.5 56.5C56.5 56.776 56.276 57 56 57Z" fill="#472B29"/>
<path d="M36 47C35.8674 47 35.7402 47.0527 35.6464 47.1464C35.5527 47.2402 35.5 47.3674 35.5 47.5C35.5 47.6326 35.5527 47.7598 35.6464 47.8536C35.7402 47.9473 35.8674 48 36 48C36.1326 48 36.2598 47.9473 36.3536 47.8536C36.4473 47.7598 36.5 47.6326 36.5 47.5C36.5 47.3674 36.4473 47.2402 36.3536 47.1464C36.2598 47.0527 36.1326 47 36 47Z" fill="#472B29"/>
<path d="M36 50C35.8674 50 35.7402 50.0527 35.6464 50.1464C35.5527 50.2402 35.5 50.3674 35.5 50.5C35.5 50.6326 35.5527 50.7598 35.6464 50.8536C35.7402 50.9473 35.8674 51 36 51C36.1326 51 36.2598 50.9473 36.3536 50.8536C36.4473 50.7598 36.5 50.6326 36.5 50.5C36.5 50.3674 36.4473 50.2402 36.3536 50.1464C36.2598 50.0527 36.1326 50 36 50Z" fill="#472B29"/>
<path d="M36 53C35.8674 53 35.7402 53.0527 35.6464 53.1464C35.5527 53.2402 35.5 53.3674 35.5 53.5C35.5 53.6326 35.5527 53.7598 35.6464 53.8536C35.7402 53.9473 35.8674 54 36 54C36.1326 54 36.2598 53.9473 36.3536 53.8536C36.4473 53.7598 36.5 53.6326 36.5 53.5C36.5 53.3674 36.4473 53.2402 36.3536 53.1464C36.2598 53.0527 36.1326 53 36 53Z" fill="#472B29"/>
<path d="M36 56C35.8674 56 35.7402 56.0527 35.6464 56.1464C35.5527 56.2402 35.5 56.3674 35.5 56.5C35.5 56.6326 35.5527 56.7598 35.6464 56.8536C35.7402 56.9473 35.8674 57 36 57C36.1326 57 36.2598 56.9473 36.3536 56.8536C36.4473 56.7598 36.5 56.6326 36.5 56.5C36.5 56.3674 36.4473 56.2402 36.3536 56.1464C36.2598 56.0527 36.1326 56 36 56Z" fill="#472B29"/>
</svg>
