<svg width="242" height="242" viewBox="0 0 242 242" fill="none" xmlns="http://www.w3.org/2000/svg">
<g clip-path="url(#clip0_3023_32039)">
<path d="M239.11 0H2.89005C1.29392 0 0 1.29391 0 2.89004V239.11C0 240.706 1.29391 242 2.89004 242H239.11C240.706 242 242 240.706 242 239.11V2.89005C242 1.29392 240.706 0 239.11 0Z" fill="white"/>
<path d="M27.219 20.2722H20.2723V27.219H27.219V20.2722Z" fill="black"/>
<path d="M34.1658 20.2722H27.219V27.219H34.1658V20.2722Z" fill="black"/>
<path d="M41.1125 20.2722H34.1658V27.219H41.1125V20.2722Z" fill="black"/>
<path d="M48.0592 20.2722H41.1125V27.219H48.0592V20.2722Z" fill="black"/>
<path d="M55.006 20.2722H48.0592V27.219H55.006V20.2722Z" fill="black"/>
<path d="M61.9527 20.2722H55.006V27.219H61.9527V20.2722Z" fill="black"/>
<path d="M68.8995 20.2722H61.9527V27.219H68.8995V20.2722Z" fill="black"/>
<path d="M82.793 20.2722H75.8462V27.219H82.793V20.2722Z" fill="black"/>
<path d="M103.633 20.2722H96.6864V27.219H103.633V20.2722Z" fill="black"/>
<path d="M110.58 20.2722H103.633V27.219H110.58V20.2722Z" fill="black"/>
<path d="M117.527 20.2722H110.58V27.219H117.527V20.2722Z" fill="black"/>
<path d="M152.26 20.2722H145.314V27.219H152.26V20.2722Z" fill="black"/>
<path d="M180.047 20.2722H173.101V27.219H180.047V20.2722Z" fill="black"/>
<path d="M186.994 20.2722H180.047V27.219H186.994V20.2722Z" fill="black"/>
<path d="M193.941 20.2722H186.994V27.219H193.941V20.2722Z" fill="black"/>
<path d="M200.888 20.2722H193.941V27.219H200.888V20.2722Z" fill="black"/>
<path d="M207.834 20.2722H200.888V27.219H207.834V20.2722Z" fill="black"/>
<path d="M214.781 20.2722H207.834V27.219H214.781V20.2722Z" fill="black"/>
<path d="M221.728 20.2722H214.781V27.219H221.728V20.2722Z" fill="black"/>
<path d="M27.219 27.219H20.2723V34.1657H27.219V27.219Z" fill="black"/>
<path d="M68.8995 27.219H61.9527V34.1657H68.8995V27.219Z" fill="black"/>
<path d="M89.7397 27.219H82.793V34.1657H89.7397V27.219Z" fill="black"/>
<path d="M96.6864 27.219H89.7397V34.1657H96.6864V27.219Z" fill="black"/>
<path d="M117.527 27.219H110.58V34.1657H117.527V27.219Z" fill="black"/>
<path d="M124.473 27.219H117.527V34.1657H124.473V27.219Z" fill="black"/>
<path d="M145.314 27.219H138.367V34.1657H145.314V27.219Z" fill="black"/>
<path d="M166.154 27.219H159.207V34.1657H166.154V27.219Z" fill="black"/>
<path d="M180.047 27.219H173.101V34.1657H180.047V27.219Z" fill="black"/>
<path d="M221.728 27.219H214.781V34.1657H221.728V27.219Z" fill="black"/>
<path d="M27.219 34.1657H20.2723V41.1124H27.219V34.1657Z" fill="black"/>
<path d="M41.1125 34.1657H34.1658V41.1124H41.1125V34.1657Z" fill="black"/>
<path d="M48.0592 34.1657H41.1125V41.1124H48.0592V34.1657Z" fill="black"/>
<path d="M55.006 34.1657H48.0592V41.1124H55.006V34.1657Z" fill="black"/>
<path d="M68.8995 34.1657H61.9527V41.1124H68.8995V34.1657Z" fill="black"/>
<path d="M82.793 34.1657H75.8462V41.1124H82.793V34.1657Z" fill="black"/>
<path d="M117.527 34.1657H110.58V41.1124H117.527V34.1657Z" fill="black"/>
<path d="M131.42 34.1657H124.473V41.1124H131.42V34.1657Z" fill="black"/>
<path d="M145.314 34.1657H138.367V41.1124H145.314V34.1657Z" fill="black"/>
<path d="M152.26 34.1657H145.314V41.1124H152.26V34.1657Z" fill="black"/>
<path d="M159.207 34.1657H152.26V41.1124H159.207V34.1657Z" fill="black"/>
<path d="M166.154 34.1657H159.207V41.1124H166.154V34.1657Z" fill="black"/>
<path d="M180.047 34.1657H173.101V41.1124H180.047V34.1657Z" fill="black"/>
<path d="M193.941 34.1657H186.994V41.1124H193.941V34.1657Z" fill="black"/>
<path d="M200.888 34.1657H193.941V41.1124H200.888V34.1657Z" fill="black"/>
<path d="M207.834 34.1657H200.888V41.1124H207.834V34.1657Z" fill="black"/>
<path d="M221.728 34.1657H214.781V41.1124H221.728V34.1657Z" fill="black"/>
<path d="M27.219 41.1124H20.2723V48.0592H27.219V41.1124Z" fill="black"/>
<path d="M41.1125 41.1124H34.1658V48.0592H41.1125V41.1124Z" fill="black"/>
<path d="M48.0592 41.1124H41.1125V48.0592H48.0592V41.1124Z" fill="black"/>
<path d="M55.006 41.1124H48.0592V48.0592H55.006V41.1124Z" fill="black"/>
<path d="M68.8995 41.1124H61.9527V48.0592H68.8995V41.1124Z" fill="black"/>
<path d="M82.793 41.1124H75.8462V48.0592H82.793V41.1124Z" fill="black"/>
<path d="M89.7397 41.1124H82.793V48.0592H89.7397V41.1124Z" fill="black"/>
<path d="M96.6864 41.1124H89.7397V48.0592H96.6864V41.1124Z" fill="black"/>
<path d="M103.633 41.1124H96.6864V48.0592H103.633V41.1124Z" fill="black"/>
<path d="M110.58 41.1124H103.633V48.0592H110.58V41.1124Z" fill="black"/>
<path d="M124.473 41.1124H117.527V48.0592H124.473V41.1124Z" fill="black"/>
<path d="M131.42 41.1124H124.473V48.0592H131.42V41.1124Z" fill="black"/>
<path d="M138.367 41.1124H131.42V48.0592H138.367V41.1124Z" fill="black"/>
<path d="M159.207 41.1124H152.26V48.0592H159.207V41.1124Z" fill="black"/>
<path d="M180.047 41.1124H173.101V48.0592H180.047V41.1124Z" fill="black"/>
<path d="M193.941 41.1124H186.994V48.0592H193.941V41.1124Z" fill="black"/>
<path d="M200.888 41.1124H193.941V48.0592H200.888V41.1124Z" fill="black"/>
<path d="M207.834 41.1124H200.888V48.0592H207.834V41.1124Z" fill="black"/>
<path d="M221.728 41.1124H214.781V48.0592H221.728V41.1124Z" fill="black"/>
<path d="M27.219 48.0592H20.2723V55.0059H27.219V48.0592Z" fill="black"/>
<path d="M41.1125 48.0592H34.1658V55.0059H41.1125V48.0592Z" fill="black"/>
<path d="M48.0592 48.0592H41.1125V55.0059H48.0592V48.0592Z" fill="black"/>
<path d="M55.006 48.0592H48.0592V55.0059H55.006V48.0592Z" fill="black"/>
<path d="M68.8995 48.0592H61.9527V55.0059H68.8995V48.0592Z" fill="black"/>
<path d="M89.7397 48.0592H82.793V55.0059H89.7397V48.0592Z" fill="black"/>
<path d="M96.6864 48.0592H89.7397V55.0059H96.6864V48.0592Z" fill="black"/>
<path d="M131.42 48.0592H124.473V55.0059H131.42V48.0592Z" fill="black"/>
<path d="M145.314 48.0592H138.367V55.0059H145.314V48.0592Z" fill="black"/>
<path d="M180.047 48.0592H173.101V55.0059H180.047V48.0592Z" fill="black"/>
<path d="M193.941 48.0592H186.994V55.0059H193.941V48.0592Z" fill="black"/>
<path d="M200.888 48.0592H193.941V55.0059H200.888V48.0592Z" fill="black"/>
<path d="M207.834 48.0592H200.888V55.0059H207.834V48.0592Z" fill="black"/>
<path d="M221.728 48.0592H214.781V55.0059H221.728V48.0592Z" fill="black"/>
<path d="M27.219 55.0059H20.2723V61.9527H27.219V55.0059Z" fill="black"/>
<path d="M68.8995 55.0059H61.9527V61.9527H68.8995V55.0059Z" fill="black"/>
<path d="M82.793 55.0059H75.8462V61.9527H82.793V55.0059Z" fill="black"/>
<path d="M103.633 55.0059H96.6864V61.9527H103.633V55.0059Z" fill="black"/>
<path d="M110.58 55.0059H103.633V61.9527H110.58V55.0059Z" fill="black"/>
<path d="M131.42 55.0059H124.473V61.9527H131.42V55.0059Z" fill="black"/>
<path d="M152.26 55.0059H145.314V61.9527H152.26V55.0059Z" fill="black"/>
<path d="M180.047 55.0059H173.101V61.9527H180.047V55.0059Z" fill="black"/>
<path d="M221.728 55.0059H214.781V61.9527H221.728V55.0059Z" fill="black"/>
<path d="M27.219 61.9527H20.2723V68.8994H27.219V61.9527Z" fill="black"/>
<path d="M34.1658 61.9527H27.219V68.8994H34.1658V61.9527Z" fill="black"/>
<path d="M41.1125 61.9527H34.1658V68.8994H41.1125V61.9527Z" fill="black"/>
<path d="M48.0592 61.9527H41.1125V68.8994H48.0592V61.9527Z" fill="black"/>
<path d="M55.006 61.9527H48.0592V68.8994H55.006V61.9527Z" fill="black"/>
<path d="M61.9527 61.9527H55.006V68.8994H61.9527V61.9527Z" fill="black"/>
<path d="M68.8995 61.9527H61.9527V68.8994H68.8995V61.9527Z" fill="black"/>
<path d="M82.793 61.9527H75.8462V68.8994H82.793V61.9527Z" fill="black"/>
<path d="M96.6864 61.9527H89.7397V68.8994H96.6864V61.9527Z" fill="black"/>
<path d="M110.58 61.9527H103.633V68.8994H110.58V61.9527Z" fill="black"/>
<path d="M124.473 61.9527H117.527V68.8994H124.473V61.9527Z" fill="black"/>
<path d="M138.367 61.9527H131.42V68.8994H138.367V61.9527Z" fill="black"/>
<path d="M152.26 61.9527H145.314V68.8994H152.26V61.9527Z" fill="black"/>
<path d="M166.154 61.9527H159.207V68.8994H166.154V61.9527Z" fill="black"/>
<path d="M180.047 61.9527H173.101V68.8994H180.047V61.9527Z" fill="black"/>
<path d="M186.994 61.9527H180.047V68.8994H186.994V61.9527Z" fill="black"/>
<path d="M193.941 61.9527H186.994V68.8994H193.941V61.9527Z" fill="black"/>
<path d="M200.888 61.9527H193.941V68.8994H200.888V61.9527Z" fill="black"/>
<path d="M207.834 61.9527H200.888V68.8994H207.834V61.9527Z" fill="black"/>
<path d="M214.781 61.9527H207.834V68.8994H214.781V61.9527Z" fill="black"/>
<path d="M221.728 61.9527H214.781V68.8994H221.728V61.9527Z" fill="black"/>
<path d="M82.793 68.8994H75.8462V75.8462H82.793V68.8994Z" fill="black"/>
<path d="M89.7397 68.8994H82.793V75.8462H89.7397V68.8994Z" fill="black"/>
<path d="M96.6864 68.8994H89.7397V75.8462H96.6864V68.8994Z" fill="black"/>
<path d="M110.58 68.8994H103.633V75.8462H110.58V68.8994Z" fill="black"/>
<path d="M117.527 68.8994H110.58V75.8462H117.527V68.8994Z" fill="black"/>
<path d="M124.473 68.8994H117.527V75.8462H124.473V68.8994Z" fill="black"/>
<path d="M131.42 68.8994H124.473V75.8462H131.42V68.8994Z" fill="black"/>
<path d="M138.367 68.8994H131.42V75.8462H138.367V68.8994Z" fill="black"/>
<path d="M145.314 68.8994H138.367V75.8462H145.314V68.8994Z" fill="black"/>
<path d="M159.207 68.8994H152.26V75.8462H159.207V68.8994Z" fill="black"/>
<path d="M166.154 68.8994H159.207V75.8462H166.154V68.8994Z" fill="black"/>
<path d="M27.219 75.8462H20.2723V82.7929H27.219V75.8462Z" fill="black"/>
<path d="M34.1658 75.8462H27.219V82.7929H34.1658V75.8462Z" fill="black"/>
<path d="M48.0592 75.8462H41.1125V82.7929H48.0592V75.8462Z" fill="black"/>
<path d="M68.8995 75.8462H61.9527V82.7929H68.8995V75.8462Z" fill="black"/>
<path d="M75.8462 75.8462H68.8995V82.7929H75.8462V75.8462Z" fill="black"/>
<path d="M89.7397 75.8462H82.793V82.7929H89.7397V75.8462Z" fill="black"/>
<path d="M117.527 75.8462H110.58V82.7929H117.527V75.8462Z" fill="black"/>
<path d="M124.473 75.8462H117.527V82.7929H124.473V75.8462Z" fill="black"/>
<path d="M138.367 75.8462H131.42V82.7929H138.367V75.8462Z" fill="black"/>
<path d="M145.314 75.8462H138.367V82.7929H145.314V75.8462Z" fill="black"/>
<path d="M159.207 75.8462H152.26V82.7929H159.207V75.8462Z" fill="black"/>
<path d="M166.154 75.8462H159.207V82.7929H166.154V75.8462Z" fill="black"/>
<path d="M173.101 75.8462H166.154V82.7929H173.101V75.8462Z" fill="black"/>
<path d="M180.047 75.8462H173.101V82.7929H180.047V75.8462Z" fill="black"/>
<path d="M186.994 75.8462H180.047V82.7929H186.994V75.8462Z" fill="black"/>
<path d="M200.888 75.8462H193.941V82.7929H200.888V75.8462Z" fill="black"/>
<path d="M207.834 75.8462H200.888V82.7929H207.834V75.8462Z" fill="black"/>
<path d="M221.728 75.8462H214.781V82.7929H221.728V75.8462Z" fill="black"/>
<path d="M48.0592 82.7929H41.1125V89.7396H48.0592V82.7929Z" fill="black"/>
<path d="M75.8462 82.7929H68.8995V89.7396H75.8462V82.7929Z" fill="black"/>
<path d="M89.7397 82.7929H82.793V89.7396H89.7397V82.7929Z" fill="black"/>
<path d="M96.6864 82.7929H89.7397V89.7396H96.6864V82.7929Z" fill="black"/>
<path d="M138.367 82.7929H131.42V89.7396H138.367V82.7929Z" fill="black"/>
<path d="M152.26 82.7929H145.314V89.7396H152.26V82.7929Z" fill="black"/>
<path d="M159.207 82.7929H152.26V89.7396H159.207V82.7929Z" fill="black"/>
<path d="M186.994 82.7929H180.047V89.7396H186.994V82.7929Z" fill="black"/>
<path d="M214.781 82.7929H207.834V89.7396H214.781V82.7929Z" fill="black"/>
<path d="M221.728 82.7929H214.781V89.7396H221.728V82.7929Z" fill="black"/>
<path d="M27.219 89.7396H20.2723V96.6864H27.219V89.7396Z" fill="black"/>
<path d="M41.1125 89.7396H34.1658V96.6864H41.1125V89.7396Z" fill="black"/>
<path d="M61.9527 89.7396H55.006V96.6864H61.9527V89.7396Z" fill="black"/>
<path d="M68.8995 89.7396H61.9527V96.6864H68.8995V89.7396Z" fill="black"/>
<path d="M82.793 89.7396H75.8462V96.6864H82.793V89.7396Z" fill="black"/>
<path d="M96.6864 89.7396H89.7397V96.6864H96.6864V89.7396Z" fill="black"/>
<path d="M110.58 89.7396H103.633V96.6864H110.58V89.7396Z" fill="black"/>
<path d="M124.473 89.7396H117.527V96.6864H124.473V89.7396Z" fill="black"/>
<path d="M131.42 89.7396H124.473V96.6864H131.42V89.7396Z" fill="black"/>
<path d="M145.314 89.7396H138.367V96.6864H145.314V89.7396Z" fill="black"/>
<path d="M159.207 89.7396H152.26V96.6864H159.207V89.7396Z" fill="black"/>
<path d="M166.154 89.7396H159.207V96.6864H166.154V89.7396Z" fill="black"/>
<path d="M180.047 89.7396H173.101V96.6864H180.047V89.7396Z" fill="black"/>
<path d="M193.941 89.7396H186.994V96.6864H193.941V89.7396Z" fill="black"/>
<path d="M200.888 89.7396H193.941V96.6864H200.888V89.7396Z" fill="black"/>
<path d="M214.781 89.7396H207.834V96.6864H214.781V89.7396Z" fill="black"/>
<path d="M34.1658 96.6864H27.219V103.633H34.1658V96.6864Z" fill="black"/>
<path d="M41.1125 96.6864H34.1658V103.633H41.1125V96.6864Z" fill="black"/>
<path d="M55.006 96.6864H48.0592V103.633H55.006V96.6864Z" fill="black"/>
<path d="M61.9527 96.6864H55.006V103.633H61.9527V96.6864Z" fill="black"/>
<path d="M89.7397 96.6864H82.793V103.633H89.7397V96.6864Z" fill="black"/>
<path d="M103.633 96.6864H96.6864V103.633H103.633V96.6864Z" fill="black"/>
<path d="M110.58 96.6864H103.633V103.633H110.58V96.6864Z" fill="black"/>
<path d="M117.527 96.6864H110.58V103.633H117.527V96.6864Z" fill="black"/>
<path d="M124.473 96.6864H117.527V103.633H124.473V96.6864Z" fill="black"/>
<path d="M131.42 96.6864H124.473V103.633H131.42V96.6864Z" fill="black"/>
<path d="M152.26 96.6864H145.314V103.633H152.26V96.6864Z" fill="black"/>
<path d="M159.207 96.6864H152.26V103.633H159.207V96.6864Z" fill="black"/>
<path d="M166.154 96.6864H159.207V103.633H166.154V96.6864Z" fill="black"/>
<path d="M173.101 96.6864H166.154V103.633H173.101V96.6864Z" fill="black"/>
<path d="M180.047 96.6864H173.101V103.633H180.047V96.6864Z" fill="black"/>
<path d="M186.994 96.6864H180.047V103.633H186.994V96.6864Z" fill="black"/>
<path d="M193.941 96.6864H186.994V103.633H193.941V96.6864Z" fill="black"/>
<path d="M221.728 96.6864H214.781V103.633H221.728V96.6864Z" fill="black"/>
<path d="M41.1125 103.633H34.1658V110.58H41.1125V103.633Z" fill="black"/>
<path d="M68.8995 103.633H61.9527V110.58H68.8995V103.633Z" fill="black"/>
<path d="M75.8462 103.633H68.8995V110.58H75.8462V103.633Z" fill="black"/>
<path d="M103.633 103.633H96.6864V110.58H103.633V103.633Z" fill="black"/>
<path d="M117.527 103.633H110.58V110.58H117.527V103.633Z" fill="black"/>
<path d="M124.473 103.633H117.527V110.58H124.473V103.633Z" fill="black"/>
<path d="M131.42 103.633H124.473V110.58H131.42V103.633Z" fill="black"/>
<path d="M138.367 103.633H131.42V110.58H138.367V103.633Z" fill="black"/>
<path d="M145.314 103.633H138.367V110.58H145.314V103.633Z" fill="black"/>
<path d="M159.207 103.633H152.26V110.58H159.207V103.633Z" fill="black"/>
<path d="M166.154 103.633H159.207V110.58H166.154V103.633Z" fill="black"/>
<path d="M173.101 103.633H166.154V110.58H173.101V103.633Z" fill="black"/>
<path d="M186.994 103.633H180.047V110.58H186.994V103.633Z" fill="black"/>
<path d="M193.941 103.633H186.994V110.58H193.941V103.633Z" fill="black"/>
<path d="M200.888 103.633H193.941V110.58H200.888V103.633Z" fill="black"/>
<path d="M207.834 103.633H200.888V110.58H207.834V103.633Z" fill="black"/>
<path d="M27.219 110.58H20.2723V117.527H27.219V110.58Z" fill="black"/>
<path d="M34.1658 110.58H27.219V117.527H34.1658V110.58Z" fill="black"/>
<path d="M61.9527 110.58H55.006V117.527H61.9527V110.58Z" fill="black"/>
<path d="M82.793 110.58H75.8462V117.527H82.793V110.58Z" fill="black"/>
<path d="M89.7397 110.58H82.793V117.527H89.7397V110.58Z" fill="black"/>
<path d="M96.6864 110.58H89.7397V117.527H96.6864V110.58Z" fill="black"/>
<path d="M124.473 110.58H117.527V117.527H124.473V110.58Z" fill="black"/>
<path d="M152.26 110.58H145.314V117.527H152.26V110.58Z" fill="black"/>
<path d="M159.207 110.58H152.26V117.527H159.207V110.58Z" fill="black"/>
<path d="M166.154 110.58H159.207V117.527H166.154V110.58Z" fill="black"/>
<path d="M186.994 110.58H180.047V117.527H186.994V110.58Z" fill="black"/>
<path d="M221.728 110.58H214.781V117.527H221.728V110.58Z" fill="black"/>
<path d="M27.219 117.527H20.2723V124.473H27.219V117.527Z" fill="black"/>
<path d="M48.0592 117.527H41.1125V124.473H48.0592V117.527Z" fill="black"/>
<path d="M55.006 117.527H48.0592V124.473H55.006V117.527Z" fill="black"/>
<path d="M68.8995 117.527H61.9527V124.473H68.8995V117.527Z" fill="black"/>
<path d="M89.7397 117.527H82.793V124.473H89.7397V117.527Z" fill="black"/>
<path d="M110.58 117.527H103.633V124.473H110.58V117.527Z" fill="black"/>
<path d="M117.527 117.527H110.58V124.473H117.527V117.527Z" fill="black"/>
<path d="M131.42 117.527H124.473V124.473H131.42V117.527Z" fill="black"/>
<path d="M138.367 117.527H131.42V124.473H138.367V117.527Z" fill="black"/>
<path d="M145.314 117.527H138.367V124.473H145.314V117.527Z" fill="black"/>
<path d="M152.26 117.527H145.314V124.473H152.26V117.527Z" fill="black"/>
<path d="M159.207 117.527H152.26V124.473H159.207V117.527Z" fill="black"/>
<path d="M166.154 117.527H159.207V124.473H166.154V117.527Z" fill="black"/>
<path d="M180.047 117.527H173.101V124.473H180.047V117.527Z" fill="black"/>
<path d="M186.994 117.527H180.047V124.473H186.994V117.527Z" fill="black"/>
<path d="M221.728 117.527H214.781V124.473H221.728V117.527Z" fill="black"/>
<path d="M27.219 124.473H20.2723V131.42H27.219V124.473Z" fill="black"/>
<path d="M48.0592 124.473H41.1125V131.42H48.0592V124.473Z" fill="black"/>
<path d="M61.9527 124.473H55.006V131.42H61.9527V124.473Z" fill="black"/>
<path d="M75.8462 124.473H68.8995V131.42H75.8462V124.473Z" fill="black"/>
<path d="M82.793 124.473H75.8462V131.42H82.793V124.473Z" fill="black"/>
<path d="M89.7397 124.473H82.793V131.42H89.7397V124.473Z" fill="black"/>
<path d="M110.58 124.473H103.633V131.42H110.58V124.473Z" fill="black"/>
<path d="M124.473 124.473H117.527V131.42H124.473V124.473Z" fill="black"/>
<path d="M138.367 124.473H131.42V131.42H138.367V124.473Z" fill="black"/>
<path d="M152.26 124.473H145.314V131.42H152.26V124.473Z" fill="black"/>
<path d="M173.101 124.473H166.154V131.42H173.101V124.473Z" fill="black"/>
<path d="M180.047 124.473H173.101V131.42H180.047V124.473Z" fill="black"/>
<path d="M186.994 124.473H180.047V131.42H186.994V124.473Z" fill="black"/>
<path d="M214.781 124.473H207.834V131.42H214.781V124.473Z" fill="black"/>
<path d="M34.1658 131.42H27.219V138.367H34.1658V131.42Z" fill="black"/>
<path d="M41.1125 131.42H34.1658V138.367H41.1125V131.42Z" fill="black"/>
<path d="M55.006 131.42H48.0592V138.367H55.006V131.42Z" fill="black"/>
<path d="M61.9527 131.42H55.006V138.367H61.9527V131.42Z" fill="black"/>
<path d="M68.8995 131.42H61.9527V138.367H68.8995V131.42Z" fill="black"/>
<path d="M75.8462 131.42H68.8995V138.367H75.8462V131.42Z" fill="black"/>
<path d="M96.6864 131.42H89.7397V138.367H96.6864V131.42Z" fill="black"/>
<path d="M103.633 131.42H96.6864V138.367H103.633V131.42Z" fill="black"/>
<path d="M117.527 131.42H110.58V138.367H117.527V131.42Z" fill="black"/>
<path d="M124.473 131.42H117.527V138.367H124.473V131.42Z" fill="black"/>
<path d="M131.42 131.42H124.473V138.367H131.42V131.42Z" fill="black"/>
<path d="M138.367 131.42H131.42V138.367H138.367V131.42Z" fill="black"/>
<path d="M145.314 131.42H138.367V138.367H145.314V131.42Z" fill="black"/>
<path d="M152.26 131.42H145.314V138.367H152.26V131.42Z" fill="black"/>
<path d="M166.154 131.42H159.207V138.367H166.154V131.42Z" fill="black"/>
<path d="M173.101 131.42H166.154V138.367H173.101V131.42Z" fill="black"/>
<path d="M193.941 131.42H186.994V138.367H193.941V131.42Z" fill="black"/>
<path d="M34.1658 138.367H27.219V145.314H34.1658V138.367Z" fill="black"/>
<path d="M48.0592 138.367H41.1125V145.314H48.0592V138.367Z" fill="black"/>
<path d="M61.9527 138.367H55.006V145.314H61.9527V138.367Z" fill="black"/>
<path d="M75.8462 138.367H68.8995V145.314H75.8462V138.367Z" fill="black"/>
<path d="M89.7397 138.367H82.793V145.314H89.7397V138.367Z" fill="black"/>
<path d="M103.633 138.367H96.6864V145.314H103.633V138.367Z" fill="black"/>
<path d="M117.527 138.367H110.58V145.314H117.527V138.367Z" fill="black"/>
<path d="M138.367 138.367H131.42V145.314H138.367V138.367Z" fill="black"/>
<path d="M145.314 138.367H138.367V145.314H145.314V138.367Z" fill="black"/>
<path d="M152.26 138.367H145.314V145.314H152.26V138.367Z" fill="black"/>
<path d="M180.047 138.367H173.101V145.314H180.047V138.367Z" fill="black"/>
<path d="M207.834 138.367H200.888V145.314H207.834V138.367Z" fill="black"/>
<path d="M214.781 138.367H207.834V145.314H214.781V138.367Z" fill="black"/>
<path d="M221.728 138.367H214.781V145.314H221.728V138.367Z" fill="black"/>
<path d="M48.0592 145.314H41.1125V152.26H48.0592V145.314Z" fill="black"/>
<path d="M61.9527 145.314H55.006V152.26H61.9527V145.314Z" fill="black"/>
<path d="M68.8995 145.314H61.9527V152.26H68.8995V145.314Z" fill="black"/>
<path d="M75.8462 145.314H68.8995V152.26H75.8462V145.314Z" fill="black"/>
<path d="M89.7397 145.314H82.793V152.26H89.7397V145.314Z" fill="black"/>
<path d="M96.6864 145.314H89.7397V152.26H96.6864V145.314Z" fill="black"/>
<path d="M145.314 145.314H138.367V152.26H145.314V145.314Z" fill="black"/>
<path d="M166.154 145.314H159.207V152.26H166.154V145.314Z" fill="black"/>
<path d="M173.101 145.314H166.154V152.26H173.101V145.314Z" fill="black"/>
<path d="M186.994 145.314H180.047V152.26H186.994V145.314Z" fill="black"/>
<path d="M193.941 145.314H186.994V152.26H193.941V145.314Z" fill="black"/>
<path d="M200.888 145.314H193.941V152.26H200.888V145.314Z" fill="black"/>
<path d="M207.834 145.314H200.888V152.26H207.834V145.314Z" fill="black"/>
<path d="M214.781 145.314H207.834V152.26H214.781V145.314Z" fill="black"/>
<path d="M221.728 145.314H214.781V152.26H221.728V145.314Z" fill="black"/>
<path d="M27.219 152.26H20.2723V159.207H27.219V152.26Z" fill="black"/>
<path d="M48.0592 152.26H41.1125V159.207H48.0592V152.26Z" fill="black"/>
<path d="M55.006 152.26H48.0592V159.207H55.006V152.26Z" fill="black"/>
<path d="M61.9527 152.26H55.006V159.207H61.9527V152.26Z" fill="black"/>
<path d="M89.7397 152.26H82.793V159.207H89.7397V152.26Z" fill="black"/>
<path d="M117.527 152.26H110.58V159.207H117.527V152.26Z" fill="black"/>
<path d="M124.473 152.26H117.527V159.207H124.473V152.26Z" fill="black"/>
<path d="M131.42 152.26H124.473V159.207H131.42V152.26Z" fill="black"/>
<path d="M138.367 152.26H131.42V159.207H138.367V152.26Z" fill="black"/>
<path d="M180.047 152.26H173.101V159.207H180.047V152.26Z" fill="black"/>
<path d="M200.888 152.26H193.941V159.207H200.888V152.26Z" fill="black"/>
<path d="M221.728 152.26H214.781V159.207H221.728V152.26Z" fill="black"/>
<path d="M27.219 159.207H20.2723V166.154H27.219V159.207Z" fill="black"/>
<path d="M41.1125 159.207H34.1658V166.154H41.1125V159.207Z" fill="black"/>
<path d="M68.8995 159.207H61.9527V166.154H68.8995V159.207Z" fill="black"/>
<path d="M75.8462 159.207H68.8995V166.154H75.8462V159.207Z" fill="black"/>
<path d="M89.7397 159.207H82.793V166.154H89.7397V159.207Z" fill="black"/>
<path d="M110.58 159.207H103.633V166.154H110.58V159.207Z" fill="black"/>
<path d="M124.473 159.207H117.527V166.154H124.473V159.207Z" fill="black"/>
<path d="M131.42 159.207H124.473V166.154H131.42V159.207Z" fill="black"/>
<path d="M138.367 159.207H131.42V166.154H138.367V159.207Z" fill="black"/>
<path d="M152.26 159.207H145.314V166.154H152.26V159.207Z" fill="black"/>
<path d="M166.154 159.207H159.207V166.154H166.154V159.207Z" fill="black"/>
<path d="M173.101 159.207H166.154V166.154H173.101V159.207Z" fill="black"/>
<path d="M180.047 159.207H173.101V166.154H180.047V159.207Z" fill="black"/>
<path d="M186.994 159.207H180.047V166.154H186.994V159.207Z" fill="black"/>
<path d="M193.941 159.207H186.994V166.154H193.941V159.207Z" fill="black"/>
<path d="M207.834 159.207H200.888V166.154H207.834V159.207Z" fill="black"/>
<path d="M214.781 159.207H207.834V166.154H214.781V159.207Z" fill="black"/>
<path d="M221.728 159.207H214.781V166.154H221.728V159.207Z" fill="black"/>
<path d="M89.7397 166.154H82.793V173.101H89.7397V166.154Z" fill="black"/>
<path d="M96.6864 166.154H89.7397V173.101H96.6864V166.154Z" fill="black"/>
<path d="M103.633 166.154H96.6864V173.101H103.633V166.154Z" fill="black"/>
<path d="M124.473 166.154H117.527V173.101H124.473V166.154Z" fill="black"/>
<path d="M131.42 166.154H124.473V173.101H131.42V166.154Z" fill="black"/>
<path d="M166.154 166.154H159.207V173.101H166.154V166.154Z" fill="black"/>
<path d="M193.941 166.154H186.994V173.101H193.941V166.154Z" fill="black"/>
<path d="M200.888 166.154H193.941V173.101H200.888V166.154Z" fill="black"/>
<path d="M214.781 166.154H207.834V173.101H214.781V166.154Z" fill="black"/>
<path d="M221.728 166.154H214.781V173.101H221.728V166.154Z" fill="black"/>
<path d="M27.219 173.101H20.2723V180.047H27.219V173.101Z" fill="black"/>
<path d="M34.1658 173.101H27.219V180.047H34.1658V173.101Z" fill="black"/>
<path d="M41.1125 173.101H34.1658V180.047H41.1125V173.101Z" fill="black"/>
<path d="M48.0592 173.101H41.1125V180.047H48.0592V173.101Z" fill="black"/>
<path d="M55.006 173.101H48.0592V180.047H55.006V173.101Z" fill="black"/>
<path d="M61.9527 173.101H55.006V180.047H61.9527V173.101Z" fill="black"/>
<path d="M68.8995 173.101H61.9527V180.047H68.8995V173.101Z" fill="black"/>
<path d="M82.793 173.101H75.8462V180.047H82.793V173.101Z" fill="black"/>
<path d="M89.7397 173.101H82.793V180.047H89.7397V173.101Z" fill="black"/>
<path d="M103.633 173.101H96.6864V180.047H103.633V173.101Z" fill="black"/>
<path d="M117.527 173.101H110.58V180.047H117.527V173.101Z" fill="black"/>
<path d="M152.26 173.101H145.314V180.047H152.26V173.101Z" fill="black"/>
<path d="M159.207 173.101H152.26V180.047H159.207V173.101Z" fill="black"/>
<path d="M166.154 173.101H159.207V180.047H166.154V173.101Z" fill="black"/>
<path d="M180.047 173.101H173.101V180.047H180.047V173.101Z" fill="black"/>
<path d="M193.941 173.101H186.994V180.047H193.941V173.101Z" fill="black"/>
<path d="M221.728 173.101H214.781V180.047H221.728V173.101Z" fill="black"/>
<path d="M27.219 180.047H20.2723V186.994H27.219V180.047Z" fill="black"/>
<path d="M68.8995 180.047H61.9527V186.994H68.8995V180.047Z" fill="black"/>
<path d="M89.7397 180.047H82.793V186.994H89.7397V180.047Z" fill="black"/>
<path d="M96.6864 180.047H89.7397V186.994H96.6864V180.047Z" fill="black"/>
<path d="M103.633 180.047H96.6864V186.994H103.633V180.047Z" fill="black"/>
<path d="M110.58 180.047H103.633V186.994H110.58V180.047Z" fill="black"/>
<path d="M138.367 180.047H131.42V186.994H138.367V180.047Z" fill="black"/>
<path d="M145.314 180.047H138.367V186.994H145.314V180.047Z" fill="black"/>
<path d="M152.26 180.047H145.314V186.994H152.26V180.047Z" fill="black"/>
<path d="M166.154 180.047H159.207V186.994H166.154V180.047Z" fill="black"/>
<path d="M193.941 180.047H186.994V186.994H193.941V180.047Z" fill="black"/>
<path d="M207.834 180.047H200.888V186.994H207.834V180.047Z" fill="black"/>
<path d="M221.728 180.047H214.781V186.994H221.728V180.047Z" fill="black"/>
<path d="M27.219 186.994H20.2723V193.941H27.219V186.994Z" fill="black"/>
<path d="M41.1125 186.994H34.1658V193.941H41.1125V186.994Z" fill="black"/>
<path d="M48.0592 186.994H41.1125V193.941H48.0592V186.994Z" fill="black"/>
<path d="M55.006 186.994H48.0592V193.941H55.006V186.994Z" fill="black"/>
<path d="M68.8995 186.994H61.9527V193.941H68.8995V186.994Z" fill="black"/>
<path d="M89.7397 186.994H82.793V193.941H89.7397V186.994Z" fill="black"/>
<path d="M124.473 186.994H117.527V193.941H124.473V186.994Z" fill="black"/>
<path d="M131.42 186.994H124.473V193.941H131.42V186.994Z" fill="black"/>
<path d="M138.367 186.994H131.42V193.941H138.367V186.994Z" fill="black"/>
<path d="M152.26 186.994H145.314V193.941H152.26V186.994Z" fill="black"/>
<path d="M166.154 186.994H159.207V193.941H166.154V186.994Z" fill="black"/>
<path d="M173.101 186.994H166.154V193.941H173.101V186.994Z" fill="black"/>
<path d="M180.047 186.994H173.101V193.941H180.047V186.994Z" fill="black"/>
<path d="M186.994 186.994H180.047V193.941H186.994V186.994Z" fill="black"/>
<path d="M193.941 186.994H186.994V193.941H193.941V186.994Z" fill="black"/>
<path d="M200.888 186.994H193.941V193.941H200.888V186.994Z" fill="black"/>
<path d="M214.781 186.994H207.834V193.941H214.781V186.994Z" fill="black"/>
<path d="M221.728 186.994H214.781V193.941H221.728V186.994Z" fill="black"/>
<path d="M27.219 193.941H20.2723V200.888H27.219V193.941Z" fill="black"/>
<path d="M41.1125 193.941H34.1658V200.888H41.1125V193.941Z" fill="black"/>
<path d="M48.0592 193.941H41.1125V200.888H48.0592V193.941Z" fill="black"/>
<path d="M55.006 193.941H48.0592V200.888H55.006V193.941Z" fill="black"/>
<path d="M68.8995 193.941H61.9527V200.888H68.8995V193.941Z" fill="black"/>
<path d="M82.793 193.941H75.8462V200.888H82.793V193.941Z" fill="black"/>
<path d="M110.58 193.941H103.633V200.888H110.58V193.941Z" fill="black"/>
<path d="M138.367 193.941H131.42V200.888H138.367V193.941Z" fill="black"/>
<path d="M145.314 193.941H138.367V200.888H145.314V193.941Z" fill="black"/>
<path d="M166.154 193.941H159.207V200.888H166.154V193.941Z" fill="black"/>
<path d="M173.101 193.941H166.154V200.888H173.101V193.941Z" fill="black"/>
<path d="M180.047 193.941H173.101V200.888H180.047V193.941Z" fill="black"/>
<path d="M186.994 193.941H180.047V200.888H186.994V193.941Z" fill="black"/>
<path d="M200.888 193.941H193.941V200.888H200.888V193.941Z" fill="black"/>
<path d="M214.781 193.941H207.834V200.888H214.781V193.941Z" fill="black"/>
<path d="M27.219 200.888H20.2723V207.834H27.219V200.888Z" fill="black"/>
<path d="M41.1125 200.888H34.1658V207.834H41.1125V200.888Z" fill="black"/>
<path d="M48.0592 200.888H41.1125V207.834H48.0592V200.888Z" fill="black"/>
<path d="M55.006 200.888H48.0592V207.834H55.006V200.888Z" fill="black"/>
<path d="M68.8995 200.888H61.9527V207.834H68.8995V200.888Z" fill="black"/>
<path d="M96.6864 200.888H89.7397V207.834H96.6864V200.888Z" fill="black"/>
<path d="M110.58 200.888H103.633V207.834H110.58V200.888Z" fill="black"/>
<path d="M117.527 200.888H110.58V207.834H117.527V200.888Z" fill="black"/>
<path d="M124.473 200.888H117.527V207.834H124.473V200.888Z" fill="black"/>
<path d="M145.314 200.888H138.367V207.834H145.314V200.888Z" fill="black"/>
<path d="M152.26 200.888H145.314V207.834H152.26V200.888Z" fill="black"/>
<path d="M159.207 200.888H152.26V207.834H159.207V200.888Z" fill="black"/>
<path d="M166.154 200.888H159.207V207.834H166.154V200.888Z" fill="black"/>
<path d="M173.101 200.888H166.154V207.834H173.101V200.888Z" fill="black"/>
<path d="M193.941 200.888H186.994V207.834H193.941V200.888Z" fill="black"/>
<path d="M207.834 200.888H200.888V207.834H207.834V200.888Z" fill="black"/>
<path d="M27.219 207.834H20.2723V214.781H27.219V207.834Z" fill="black"/>
<path d="M68.8995 207.834H61.9527V214.781H68.8995V207.834Z" fill="black"/>
<path d="M82.793 207.834H75.8462V214.781H82.793V207.834Z" fill="black"/>
<path d="M96.6864 207.834H89.7397V214.781H96.6864V207.834Z" fill="black"/>
<path d="M117.527 207.834H110.58V214.781H117.527V207.834Z" fill="black"/>
<path d="M124.473 207.834H117.527V214.781H124.473V207.834Z" fill="black"/>
<path d="M131.42 207.834H124.473V214.781H131.42V207.834Z" fill="black"/>
<path d="M138.367 207.834H131.42V214.781H138.367V207.834Z" fill="black"/>
<path d="M145.314 207.834H138.367V214.781H145.314V207.834Z" fill="black"/>
<path d="M173.101 207.834H166.154V214.781H173.101V207.834Z" fill="black"/>
<path d="M180.047 207.834H173.101V214.781H180.047V207.834Z" fill="black"/>
<path d="M193.941 207.834H186.994V214.781H193.941V207.834Z" fill="black"/>
<path d="M200.888 207.834H193.941V214.781H200.888V207.834Z" fill="black"/>
<path d="M214.781 207.834H207.834V214.781H214.781V207.834Z" fill="black"/>
<path d="M221.728 207.834H214.781V214.781H221.728V207.834Z" fill="black"/>
<path d="M27.219 214.781H20.2723V221.728H27.219V214.781Z" fill="black"/>
<path d="M34.1658 214.781H27.219V221.728H34.1658V214.781Z" fill="black"/>
<path d="M41.1125 214.781H34.1658V221.728H41.1125V214.781Z" fill="black"/>
<path d="M48.0592 214.781H41.1125V221.728H48.0592V214.781Z" fill="black"/>
<path d="M55.006 214.781H48.0592V221.728H55.006V214.781Z" fill="black"/>
<path d="M61.9527 214.781H55.006V221.728H61.9527V214.781Z" fill="black"/>
<path d="M68.8995 214.781H61.9527V221.728H68.8995V214.781Z" fill="black"/>
<path d="M82.793 214.781H75.8462V221.728H82.793V214.781Z" fill="black"/>
<path d="M89.7397 214.781H82.793V221.728H89.7397V214.781Z" fill="black"/>
<path d="M103.633 214.781H96.6864V221.728H103.633V214.781Z" fill="black"/>
<path d="M117.527 214.781H110.58V221.728H117.527V214.781Z" fill="black"/>
<path d="M124.473 214.781H117.527V221.728H124.473V214.781Z" fill="black"/>
<path d="M173.101 214.781H166.154V221.728H173.101V214.781Z" fill="black"/>
<path d="M186.994 214.781H180.047V221.728H186.994V214.781Z" fill="black"/>
<path d="M193.941 214.781H186.994V221.728H193.941V214.781Z" fill="black"/>
<path d="M207.834 214.781H200.888V221.728H207.834V214.781Z" fill="black"/>
<g filter="url(#filter0_b_3023_32039)">
<rect x="2" y="120" width="240" height="120" fill="white" fill-opacity="0.8"/>
</g>
<path d="M35.3855 179L38.5355 169.76H41.4615L44.6255 179H42.4275L40.1035 171.356H39.9075L37.5695 179H35.3855ZM37.1495 177.194V175.808H43.1415V177.194H37.1495ZM48.0843 179.168C47.683 179.168 47.333 179.117 47.0343 179.014C46.7357 178.911 46.4837 178.753 46.2783 178.538C46.0823 178.314 45.933 178.029 45.8303 177.684C45.7277 177.339 45.6763 176.928 45.6763 176.452V173.232H44.6263L44.6683 171.678H45.3403C45.6483 171.669 45.877 171.617 46.0263 171.524C46.1757 171.421 46.2643 171.244 46.2923 170.992L46.4603 170.012H47.6083V171.65H49.4563V173.288H47.6083V176.354C47.6083 176.737 47.7017 176.993 47.8883 177.124C48.075 177.255 48.3037 177.32 48.5743 177.32C48.7423 177.32 48.9103 177.301 49.0783 177.264C49.2463 177.217 49.391 177.157 49.5123 177.082V178.958C49.223 179.042 48.957 179.098 48.7143 179.126C48.4717 179.154 48.2617 179.168 48.0843 179.168ZM53.7445 179.168C53.3432 179.168 52.9932 179.117 52.6945 179.014C52.3958 178.911 52.1438 178.753 51.9385 178.538C51.7425 178.314 51.5932 178.029 51.4905 177.684C51.3878 177.339 51.3365 176.928 51.3365 176.452V173.232H50.2865L50.3285 171.678H51.0005C51.3085 171.669 51.5372 171.617 51.6865 171.524C51.8358 171.421 51.9245 171.244 51.9525 170.992L52.1205 170.012H53.2685V171.65H55.1165V173.288H53.2685V176.354C53.2685 176.737 53.3618 176.993 53.5485 177.124C53.7352 177.255 53.9638 177.32 54.2345 177.32C54.4025 177.32 54.5705 177.301 54.7385 177.264C54.9065 177.217 55.0512 177.157 55.1725 177.082V178.958C54.8832 179.042 54.6172 179.098 54.3745 179.126C54.1318 179.154 53.9218 179.168 53.7445 179.168ZM58.2463 179.196C57.8356 179.196 57.4716 179.117 57.1543 178.958C56.8369 178.799 56.5849 178.571 56.3983 178.272C56.2209 177.964 56.1323 177.591 56.1323 177.152C56.1323 176.639 56.2443 176.233 56.4683 175.934C56.7016 175.635 56.9956 175.407 57.3503 175.248C57.7143 175.089 58.0969 174.977 58.4983 174.912C58.8996 174.837 59.2729 174.777 59.6183 174.73C59.9356 174.683 60.1923 174.637 60.3883 174.59C60.5843 174.534 60.7243 174.459 60.8083 174.366C60.9016 174.263 60.9483 174.128 60.9483 173.96C60.9483 173.773 60.9063 173.61 60.8223 173.47C60.7383 173.33 60.6123 173.218 60.4443 173.134C60.2763 173.041 60.0569 172.994 59.7863 172.994C59.5249 172.994 59.2776 173.041 59.0443 173.134C58.8109 173.227 58.6103 173.372 58.4423 173.568C58.2836 173.755 58.1763 173.993 58.1203 174.282L56.3283 173.778C56.4309 173.377 56.5849 173.031 56.7903 172.742C57.0049 172.453 57.2616 172.215 57.5603 172.028C57.8589 171.832 58.1949 171.687 58.5683 171.594C58.9416 171.501 59.3476 171.454 59.7863 171.454C60.3556 171.454 60.8409 171.524 61.2423 171.664C61.6436 171.804 61.9656 172.019 62.2083 172.308C62.4603 172.588 62.6423 172.933 62.7543 173.344C62.8756 173.745 62.9363 174.207 62.9363 174.73V175.99C62.9363 176.307 62.9409 176.639 62.9503 176.984C62.9596 177.32 62.9736 177.656 62.9923 177.992C63.0203 178.328 63.0483 178.664 63.0763 179H61.2983C61.2703 178.748 61.2376 178.473 61.2003 178.174C61.1723 177.866 61.1536 177.553 61.1443 177.236H60.9063C60.7756 177.591 60.5889 177.922 60.3463 178.23C60.1036 178.529 59.8049 178.767 59.4503 178.944C59.0956 179.112 58.6943 179.196 58.2463 179.196ZM59.1003 177.726C59.2776 177.726 59.4549 177.698 59.6323 177.642C59.8189 177.577 59.9963 177.483 60.1643 177.362C60.3416 177.241 60.5003 177.087 60.6403 176.9C60.7896 176.713 60.9063 176.503 60.9903 176.27L60.9623 175.164L61.2843 175.22C61.1256 175.341 60.9343 175.439 60.7103 175.514C60.4956 175.579 60.2669 175.631 60.0243 175.668C59.7909 175.705 59.5576 175.747 59.3243 175.794C59.0909 175.841 58.8809 175.901 58.6943 175.976C58.5076 176.051 58.3583 176.153 58.2463 176.284C58.1343 176.415 58.0783 176.592 58.0783 176.816C58.0783 177.096 58.1716 177.32 58.3583 177.488C58.5543 177.647 58.8016 177.726 59.1003 177.726ZM68.047 179.196C67.4124 179.196 66.857 179.103 66.381 178.916C65.905 178.729 65.5084 178.468 65.191 178.132C64.883 177.796 64.6497 177.399 64.491 176.942C64.3324 176.475 64.253 175.967 64.253 175.416C64.253 174.837 64.3324 174.31 64.491 173.834C64.6497 173.349 64.8877 172.929 65.205 172.574C65.5224 172.219 65.9144 171.944 66.381 171.748C66.8477 171.552 67.3797 171.454 67.977 171.454C68.4344 171.454 68.845 171.515 69.209 171.636C69.573 171.748 69.8904 171.911 70.161 172.126C70.4317 172.331 70.651 172.583 70.819 172.882C70.9964 173.171 71.113 173.498 71.169 173.862L69.321 174.422C69.293 174.123 69.2137 173.871 69.083 173.666C68.9617 173.451 68.7984 173.293 68.593 173.19C68.3877 173.087 68.1497 173.036 67.879 173.036C67.655 173.036 67.445 173.083 67.249 173.176C67.0624 173.26 66.8944 173.395 66.745 173.582C66.605 173.759 66.493 173.993 66.409 174.282C66.325 174.571 66.283 174.921 66.283 175.332C66.283 175.883 66.353 176.331 66.493 176.676C66.6424 177.021 66.8524 177.278 67.123 177.446C67.3937 177.605 67.711 177.684 68.075 177.684C68.439 177.684 68.7284 177.609 68.943 177.46C69.167 177.311 69.3304 177.124 69.433 176.9C69.545 176.667 69.6104 176.424 69.629 176.172L71.407 176.55C71.3697 176.914 71.2764 177.259 71.127 177.586C70.9777 177.903 70.763 178.183 70.483 178.426C70.2124 178.669 69.8717 178.86 69.461 179C69.0597 179.131 68.5884 179.196 68.047 179.196ZM72.5337 179V174.45V169.018H74.5497V171.272C74.5497 171.459 74.5404 171.659 74.5217 171.874C74.5124 172.089 74.4937 172.308 74.4657 172.532C74.4377 172.756 74.405 172.98 74.3677 173.204C74.3397 173.428 74.3024 173.647 74.2557 173.862H74.5497C74.6804 173.358 74.8437 172.929 75.0397 172.574C75.245 172.21 75.5064 171.935 75.8237 171.748C76.1504 171.552 76.5564 171.454 77.0417 171.454C77.5364 171.454 77.9424 171.547 78.2597 171.734C78.577 171.911 78.8244 172.145 79.0017 172.434C79.179 172.723 79.3097 173.041 79.3937 173.386C79.4777 173.722 79.529 174.053 79.5477 174.38C79.5757 174.707 79.5897 174.991 79.5897 175.234V179H77.5737V175.458C77.5737 175.113 77.5504 174.8 77.5037 174.52C77.457 174.231 77.3824 173.983 77.2797 173.778C77.177 173.573 77.037 173.414 76.8597 173.302C76.6917 173.19 76.4817 173.134 76.2297 173.134C75.8564 173.134 75.5484 173.246 75.3057 173.47C75.063 173.694 74.8764 174.002 74.7457 174.394C74.6244 174.777 74.559 175.215 74.5497 175.71V179H72.5337ZM86.2052 179.196C85.7946 179.196 85.4306 179.117 85.1132 178.958C84.7959 178.799 84.5439 178.571 84.3572 178.272C84.1799 177.964 84.0912 177.591 84.0912 177.152C84.0912 176.639 84.2032 176.233 84.4272 175.934C84.6606 175.635 84.9546 175.407 85.3092 175.248C85.6732 175.089 86.0559 174.977 86.4572 174.912C86.8586 174.837 87.2319 174.777 87.5772 174.73C87.8946 174.683 88.1512 174.637 88.3472 174.59C88.5432 174.534 88.6832 174.459 88.7672 174.366C88.8606 174.263 88.9072 174.128 88.9072 173.96C88.9072 173.773 88.8652 173.61 88.7812 173.47C88.6972 173.33 88.5712 173.218 88.4032 173.134C88.2352 173.041 88.0159 172.994 87.7452 172.994C87.4839 172.994 87.2366 173.041 87.0032 173.134C86.7699 173.227 86.5692 173.372 86.4012 173.568C86.2426 173.755 86.1352 173.993 86.0792 174.282L84.2872 173.778C84.3899 173.377 84.5439 173.031 84.7492 172.742C84.9639 172.453 85.2206 172.215 85.5192 172.028C85.8179 171.832 86.1539 171.687 86.5272 171.594C86.9006 171.501 87.3066 171.454 87.7452 171.454C88.3146 171.454 88.7999 171.524 89.2012 171.664C89.6026 171.804 89.9246 172.019 90.1672 172.308C90.4192 172.588 90.6012 172.933 90.7132 173.344C90.8346 173.745 90.8952 174.207 90.8952 174.73V175.99C90.8952 176.307 90.8999 176.639 90.9092 176.984C90.9186 177.32 90.9326 177.656 90.9512 177.992C90.9792 178.328 91.0072 178.664 91.0352 179H89.2572C89.2292 178.748 89.1966 178.473 89.1592 178.174C89.1312 177.866 89.1126 177.553 89.1032 177.236H88.8652C88.7346 177.591 88.5479 177.922 88.3052 178.23C88.0626 178.529 87.7639 178.767 87.4092 178.944C87.0546 179.112 86.6532 179.196 86.2052 179.196ZM87.0592 177.726C87.2366 177.726 87.4139 177.698 87.5912 177.642C87.7779 177.577 87.9552 177.483 88.1232 177.362C88.3006 177.241 88.4592 177.087 88.5992 176.9C88.7486 176.713 88.8652 176.503 88.9492 176.27L88.9212 175.164L89.2432 175.22C89.0846 175.341 88.8932 175.439 88.6692 175.514C88.4546 175.579 88.2259 175.631 87.9832 175.668C87.7499 175.705 87.5166 175.747 87.2832 175.794C87.0499 175.841 86.8399 175.901 86.6532 175.976C86.4666 176.051 86.3172 176.153 86.2052 176.284C86.0932 176.415 86.0372 176.592 86.0372 176.816C86.0372 177.096 86.1306 177.32 86.3172 177.488C86.5132 177.647 86.7606 177.726 87.0592 177.726ZM92.604 179V174.576V171.65H94.256L94.242 173.932H94.508C94.6293 173.325 94.8067 172.845 95.04 172.49C95.2827 172.126 95.572 171.865 95.908 171.706C96.2533 171.538 96.6407 171.454 97.07 171.454C97.5553 171.454 97.952 171.543 98.26 171.72C98.5773 171.888 98.8293 172.112 99.016 172.392C99.2027 172.672 99.3427 172.98 99.436 173.316C99.5293 173.643 99.59 173.969 99.618 174.296C99.646 174.623 99.66 174.917 99.66 175.178V179H97.644V175.416C97.644 175.239 97.6347 175.024 97.616 174.772C97.5973 174.52 97.546 174.273 97.462 174.03C97.3873 173.778 97.2567 173.568 97.07 173.4C96.8927 173.232 96.6407 173.148 96.314 173.148C95.9407 173.148 95.628 173.265 95.376 173.498C95.1333 173.722 94.9467 174.03 94.816 174.422C94.6853 174.814 94.62 175.253 94.62 175.738V179H92.604ZM106.276 179.196C105.865 179.196 105.501 179.117 105.184 178.958C104.866 178.799 104.614 178.571 104.428 178.272C104.25 177.964 104.162 177.591 104.162 177.152C104.162 176.639 104.274 176.233 104.498 175.934C104.731 175.635 105.025 175.407 105.38 175.248C105.744 175.089 106.126 174.977 106.528 174.912C106.929 174.837 107.302 174.777 107.648 174.73C107.965 174.683 108.222 174.637 108.418 174.59C108.614 174.534 108.754 174.459 108.838 174.366C108.931 174.263 108.978 174.128 108.978 173.96C108.978 173.773 108.936 173.61 108.852 173.47C108.768 173.33 108.642 173.218 108.474 173.134C108.306 173.041 108.086 172.994 107.816 172.994C107.554 172.994 107.307 173.041 107.074 173.134C106.84 173.227 106.64 173.372 106.472 173.568C106.313 173.755 106.206 173.993 106.15 174.282L104.358 173.778C104.46 173.377 104.614 173.031 104.82 172.742C105.034 172.453 105.291 172.215 105.59 172.028C105.888 171.832 106.224 171.687 106.598 171.594C106.971 171.501 107.377 171.454 107.816 171.454C108.385 171.454 108.87 171.524 109.272 171.664C109.673 171.804 109.995 172.019 110.238 172.308C110.49 172.588 110.672 172.933 110.784 173.344C110.905 173.745 110.966 174.207 110.966 174.73V175.99C110.966 176.307 110.97 176.639 110.98 176.984C110.989 177.32 111.003 177.656 111.022 177.992C111.05 178.328 111.078 178.664 111.106 179H109.328C109.3 178.748 109.267 178.473 109.23 178.174C109.202 177.866 109.183 177.553 109.174 177.236H108.936C108.805 177.591 108.618 177.922 108.376 178.23C108.133 178.529 107.834 178.767 107.48 178.944C107.125 179.112 106.724 179.196 106.276 179.196ZM107.13 177.726C107.307 177.726 107.484 177.698 107.662 177.642C107.848 177.577 108.026 177.483 108.194 177.362C108.371 177.241 108.53 177.087 108.67 176.9C108.819 176.713 108.936 176.503 109.02 176.27L108.992 175.164L109.314 175.22C109.155 175.341 108.964 175.439 108.74 175.514C108.525 175.579 108.296 175.631 108.054 175.668C107.82 175.705 107.587 175.747 107.354 175.794C107.12 175.841 106.91 175.901 106.724 175.976C106.537 176.051 106.388 176.153 106.276 176.284C106.164 176.415 106.108 176.592 106.108 176.816C106.108 177.096 106.201 177.32 106.388 177.488C106.584 177.647 106.831 177.726 107.13 177.726ZM115.418 179.168C115.017 179.168 114.667 179.117 114.368 179.014C114.07 178.911 113.818 178.753 113.612 178.538C113.416 178.314 113.267 178.029 113.164 177.684C113.062 177.339 113.01 176.928 113.01 176.452V173.232H111.96L112.002 171.678H112.674C112.982 171.669 113.211 171.617 113.36 171.524C113.51 171.421 113.598 171.244 113.626 170.992L113.794 170.012H114.942V171.65H116.79V173.288H114.942V176.354C114.942 176.737 115.036 176.993 115.222 177.124C115.409 177.255 115.638 177.32 115.908 177.32C116.076 177.32 116.244 177.301 116.412 177.264C116.58 177.217 116.725 177.157 116.846 177.082V178.958C116.557 179.042 116.291 179.098 116.048 179.126C115.806 179.154 115.596 179.168 115.418 179.168ZM121.078 179.168C120.677 179.168 120.327 179.117 120.028 179.014C119.73 178.911 119.478 178.753 119.272 178.538C119.076 178.314 118.927 178.029 118.824 177.684C118.722 177.339 118.67 176.928 118.67 176.452V173.232H117.62L117.662 171.678H118.334C118.642 171.669 118.871 171.617 119.02 171.524C119.17 171.421 119.258 171.244 119.286 170.992L119.454 170.012H120.602V171.65H122.45V173.288H120.602V176.354C120.602 176.737 120.696 176.993 120.882 177.124C121.069 177.255 121.298 177.32 121.568 177.32C121.736 177.32 121.904 177.301 122.072 177.264C122.24 177.217 122.385 177.157 122.506 177.082V178.958C122.217 179.042 121.951 179.098 121.708 179.126C121.466 179.154 121.256 179.168 121.078 179.168ZM127.192 179.196C126.585 179.196 126.044 179.112 125.568 178.944C125.101 178.776 124.705 178.533 124.378 178.216C124.051 177.889 123.804 177.497 123.636 177.04C123.468 176.573 123.384 176.046 123.384 175.458C123.384 174.879 123.463 174.347 123.622 173.862C123.79 173.367 124.028 172.943 124.336 172.588C124.653 172.224 125.041 171.944 125.498 171.748C125.955 171.552 126.473 171.454 127.052 171.454C127.621 171.454 128.121 171.547 128.55 171.734C128.989 171.921 129.353 172.196 129.642 172.56C129.931 172.924 130.141 173.367 130.272 173.89C130.412 174.413 130.459 175.015 130.412 175.696L124.686 175.738V174.632L129.222 174.59L128.55 175.164C128.615 174.669 128.583 174.263 128.452 173.946C128.331 173.629 128.144 173.395 127.892 173.246C127.649 173.097 127.374 173.022 127.066 173.022C126.711 173.022 126.399 173.115 126.128 173.302C125.867 173.489 125.661 173.764 125.512 174.128C125.372 174.483 125.302 174.912 125.302 175.416C125.302 176.209 125.475 176.793 125.82 177.166C126.165 177.53 126.623 177.712 127.192 177.712C127.453 177.712 127.673 177.679 127.85 177.614C128.037 177.539 128.186 177.446 128.298 177.334C128.419 177.222 128.513 177.096 128.578 176.956C128.643 176.816 128.695 176.671 128.732 176.522L130.496 176.886C130.431 177.231 130.314 177.544 130.146 177.824C129.987 178.104 129.773 178.347 129.502 178.552C129.241 178.757 128.919 178.916 128.536 179.028C128.153 179.14 127.705 179.196 127.192 179.196ZM131.856 179V174.576V171.65H133.508L133.494 173.932H133.76C133.881 173.325 134.059 172.845 134.292 172.49C134.535 172.126 134.824 171.865 135.16 171.706C135.505 171.538 135.893 171.454 136.322 171.454C136.807 171.454 137.204 171.543 137.512 171.72C137.829 171.888 138.081 172.112 138.268 172.392C138.455 172.672 138.595 172.98 138.688 173.316C138.781 173.643 138.842 173.969 138.87 174.296C138.898 174.623 138.912 174.917 138.912 175.178V179H136.896V175.416C136.896 175.239 136.887 175.024 136.868 174.772C136.849 174.52 136.798 174.273 136.714 174.03C136.639 173.778 136.509 173.568 136.322 173.4C136.145 173.232 135.893 173.148 135.566 173.148C135.193 173.148 134.88 173.265 134.628 173.498C134.385 173.722 134.199 174.03 134.068 174.422C133.937 174.814 133.872 175.253 133.872 175.738V179H131.856ZM143.28 179.196C142.673 179.196 142.141 179.042 141.684 178.734C141.226 178.417 140.872 177.969 140.62 177.39C140.368 176.802 140.242 176.107 140.242 175.304C140.242 174.557 140.354 173.895 140.578 173.316C140.802 172.737 141.133 172.285 141.572 171.958C142.01 171.631 142.552 171.468 143.196 171.468C143.672 171.468 144.068 171.561 144.386 171.748C144.712 171.925 144.978 172.187 145.184 172.532C145.398 172.877 145.566 173.293 145.688 173.778H145.996C145.94 173.479 145.884 173.185 145.828 172.896C145.781 172.607 145.739 172.331 145.702 172.07C145.674 171.809 145.66 171.58 145.66 171.384V169.018H147.69V175.472V179H145.996V176.858H145.73C145.627 177.381 145.468 177.815 145.254 178.16C145.039 178.505 144.768 178.767 144.442 178.944C144.115 179.112 143.728 179.196 143.28 179.196ZM143.966 177.544C144.255 177.544 144.507 177.479 144.722 177.348C144.936 177.217 145.114 177.049 145.254 176.844C145.394 176.629 145.496 176.401 145.562 176.158C145.627 175.915 145.66 175.682 145.66 175.458V175.206C145.66 175.019 145.636 174.828 145.59 174.632C145.543 174.436 145.473 174.249 145.38 174.072C145.286 173.885 145.17 173.722 145.03 173.582C144.89 173.433 144.726 173.316 144.54 173.232C144.353 173.148 144.152 173.106 143.938 173.106C143.602 173.106 143.317 173.199 143.084 173.386C142.85 173.573 142.668 173.834 142.538 174.17C142.416 174.497 142.356 174.884 142.356 175.332C142.356 175.771 142.421 176.158 142.552 176.494C142.682 176.83 142.869 177.091 143.112 177.278C143.354 177.455 143.639 177.544 143.966 177.544ZM152.895 179.196C152.288 179.196 151.747 179.112 151.271 178.944C150.804 178.776 150.408 178.533 150.081 178.216C149.754 177.889 149.507 177.497 149.339 177.04C149.171 176.573 149.087 176.046 149.087 175.458C149.087 174.879 149.166 174.347 149.325 173.862C149.493 173.367 149.731 172.943 150.039 172.588C150.356 172.224 150.744 171.944 151.201 171.748C151.658 171.552 152.176 171.454 152.755 171.454C153.324 171.454 153.824 171.547 154.253 171.734C154.692 171.921 155.056 172.196 155.345 172.56C155.634 172.924 155.844 173.367 155.975 173.89C156.115 174.413 156.162 175.015 156.115 175.696L150.389 175.738V174.632L154.925 174.59L154.253 175.164C154.318 174.669 154.286 174.263 154.155 173.946C154.034 173.629 153.847 173.395 153.595 173.246C153.352 173.097 153.077 173.022 152.769 173.022C152.414 173.022 152.102 173.115 151.831 173.302C151.57 173.489 151.364 173.764 151.215 174.128C151.075 174.483 151.005 174.912 151.005 175.416C151.005 176.209 151.178 176.793 151.523 177.166C151.868 177.53 152.326 177.712 152.895 177.712C153.156 177.712 153.376 177.679 153.553 177.614C153.74 177.539 153.889 177.446 154.001 177.334C154.122 177.222 154.216 177.096 154.281 176.956C154.346 176.816 154.398 176.671 154.435 176.522L156.199 176.886C156.134 177.231 156.017 177.544 155.849 177.824C155.69 178.104 155.476 178.347 155.205 178.552C154.944 178.757 154.622 178.916 154.239 179.028C153.856 179.14 153.408 179.196 152.895 179.196ZM161.016 179.196C160.409 179.196 159.868 179.112 159.392 178.944C158.925 178.776 158.529 178.533 158.202 178.216C157.875 177.889 157.628 177.497 157.46 177.04C157.292 176.573 157.208 176.046 157.208 175.458C157.208 174.879 157.287 174.347 157.446 173.862C157.614 173.367 157.852 172.943 158.16 172.588C158.477 172.224 158.865 171.944 159.322 171.748C159.779 171.552 160.297 171.454 160.876 171.454C161.445 171.454 161.945 171.547 162.374 171.734C162.813 171.921 163.177 172.196 163.466 172.56C163.755 172.924 163.965 173.367 164.096 173.89C164.236 174.413 164.283 175.015 164.236 175.696L158.51 175.738V174.632L163.046 174.59L162.374 175.164C162.439 174.669 162.407 174.263 162.276 173.946C162.155 173.629 161.968 173.395 161.716 173.246C161.473 173.097 161.198 173.022 160.89 173.022C160.535 173.022 160.223 173.115 159.952 173.302C159.691 173.489 159.485 173.764 159.336 174.128C159.196 174.483 159.126 174.912 159.126 175.416C159.126 176.209 159.299 176.793 159.644 177.166C159.989 177.53 160.447 177.712 161.016 177.712C161.277 177.712 161.497 177.679 161.674 177.614C161.861 177.539 162.01 177.446 162.122 177.334C162.243 177.222 162.337 177.096 162.402 176.956C162.467 176.816 162.519 176.671 162.556 176.522L164.32 176.886C164.255 177.231 164.138 177.544 163.97 177.824C163.811 178.104 163.597 178.347 163.326 178.552C163.065 178.757 162.743 178.916 162.36 179.028C161.977 179.14 161.529 179.196 161.016 179.196ZM171.61 179.168C171.208 179.168 170.858 179.117 170.56 179.014C170.261 178.911 170.009 178.753 169.804 178.538C169.608 178.314 169.458 178.029 169.356 177.684C169.253 177.339 169.202 176.928 169.202 176.452V173.232H168.152L168.194 171.678H168.866C169.174 171.669 169.402 171.617 169.552 171.524C169.701 171.421 169.79 171.244 169.818 170.992L169.986 170.012H171.134V171.65H172.982V173.288H171.134V176.354C171.134 176.737 171.227 176.993 171.414 177.124C171.6 177.255 171.829 177.32 172.1 177.32C172.268 177.32 172.436 177.301 172.604 177.264C172.772 177.217 172.916 177.157 173.038 177.082V178.958C172.748 179.042 172.482 179.098 172.24 179.126C171.997 179.154 171.787 179.168 171.61 179.168ZM177.653 179.196C176.916 179.196 176.267 179.051 175.707 178.762C175.147 178.463 174.708 178.029 174.391 177.46C174.074 176.881 173.915 176.163 173.915 175.304C173.915 174.445 174.074 173.731 174.391 173.162C174.718 172.593 175.161 172.168 175.721 171.888C176.281 171.599 176.92 171.454 177.639 171.454C178.376 171.454 179.025 171.599 179.585 171.888C180.145 172.177 180.584 172.611 180.901 173.19C181.228 173.759 181.391 174.473 181.391 175.332C181.391 176.209 181.228 176.933 180.901 177.502C180.574 178.071 180.126 178.496 179.557 178.776C178.988 179.056 178.353 179.196 177.653 179.196ZM177.709 177.698C177.933 177.698 178.143 177.661 178.339 177.586C178.535 177.511 178.708 177.39 178.857 177.222C179.016 177.045 179.137 176.811 179.221 176.522C179.314 176.223 179.361 175.864 179.361 175.444C179.361 174.996 179.31 174.618 179.207 174.31C179.114 174.002 178.983 173.755 178.815 173.568C178.656 173.372 178.47 173.232 178.255 173.148C178.04 173.064 177.816 173.022 177.583 173.022C177.368 173.022 177.158 173.059 176.953 173.134C176.757 173.209 176.584 173.335 176.435 173.512C176.286 173.68 176.164 173.909 176.071 174.198C175.978 174.487 175.931 174.847 175.931 175.276C175.931 175.724 175.978 176.102 176.071 176.41C176.164 176.718 176.295 176.97 176.463 177.166C176.631 177.353 176.822 177.488 177.037 177.572C177.252 177.656 177.476 177.698 177.709 177.698ZM188.895 181.534C188.083 181.534 187.42 181.469 186.907 181.338C186.394 181.217 186.016 181.035 185.773 180.792C185.54 180.549 185.423 180.251 185.423 179.896C185.423 179.467 185.591 179.117 185.927 178.846C186.263 178.575 186.767 178.412 187.439 178.356V178.09C186.926 178.09 186.534 178.034 186.263 177.922C186.002 177.81 185.871 177.619 185.871 177.348C185.871 177.087 186.002 176.853 186.263 176.648C186.524 176.443 186.963 176.284 187.579 176.172V175.906C187.01 175.859 186.562 175.668 186.235 175.332C185.908 174.996 185.745 174.562 185.745 174.03C185.745 173.563 185.876 173.148 186.137 172.784C186.398 172.411 186.786 172.117 187.299 171.902C187.812 171.678 188.442 171.566 189.189 171.566H192.913V173.12L190.575 172.798V173.092C191.182 173.185 191.62 173.344 191.891 173.568C192.162 173.783 192.297 174.077 192.297 174.45C192.297 174.833 192.171 175.169 191.919 175.458C191.676 175.747 191.322 175.976 190.855 176.144C190.398 176.303 189.842 176.382 189.189 176.382C189.068 176.382 188.932 176.377 188.783 176.368C188.643 176.349 188.419 176.321 188.111 176.284C187.934 176.424 187.794 176.541 187.691 176.634C187.588 176.727 187.537 176.816 187.537 176.9C187.537 176.965 187.57 177.021 187.635 177.068C187.71 177.105 187.803 177.133 187.915 177.152C188.027 177.171 188.144 177.18 188.265 177.18H190.379C190.566 177.18 190.808 177.194 191.107 177.222C191.406 177.25 191.704 177.325 192.003 177.446C192.302 177.558 192.554 177.749 192.759 178.02C192.964 178.281 193.067 178.659 193.067 179.154C193.067 179.695 192.913 180.139 192.605 180.484C192.306 180.839 191.849 181.1 191.233 181.268C190.617 181.445 189.838 181.534 188.895 181.534ZM189.105 179.91C189.674 179.91 190.118 179.877 190.435 179.812C190.762 179.756 190.99 179.663 191.121 179.532C191.252 179.401 191.317 179.238 191.317 179.042C191.317 178.855 191.275 178.711 191.191 178.608C191.107 178.505 191.004 178.435 190.883 178.398C190.762 178.351 190.636 178.323 190.505 178.314C190.374 178.305 190.267 178.3 190.183 178.3H188.405C188.013 178.337 187.733 178.44 187.565 178.608C187.397 178.776 187.313 178.972 187.313 179.196C187.313 179.383 187.378 179.527 187.509 179.63C187.64 179.733 187.836 179.803 188.097 179.84C188.368 179.887 188.704 179.91 189.105 179.91ZM189.091 175.318C189.53 175.318 189.861 175.211 190.085 174.996C190.309 174.772 190.421 174.487 190.421 174.142C190.421 173.769 190.304 173.461 190.071 173.218C189.847 172.975 189.52 172.854 189.091 172.854C188.662 172.854 188.326 172.975 188.083 173.218C187.85 173.451 187.733 173.755 187.733 174.128C187.733 174.361 187.784 174.571 187.887 174.758C187.999 174.935 188.153 175.075 188.349 175.178C188.554 175.271 188.802 175.318 189.091 175.318ZM197.575 179.196C196.968 179.196 196.427 179.112 195.951 178.944C195.484 178.776 195.087 178.533 194.761 178.216C194.434 177.889 194.187 177.497 194.019 177.04C193.851 176.573 193.767 176.046 193.767 175.458C193.767 174.879 193.846 174.347 194.005 173.862C194.173 173.367 194.411 172.943 194.719 172.588C195.036 172.224 195.423 171.944 195.881 171.748C196.338 171.552 196.856 171.454 197.435 171.454C198.004 171.454 198.503 171.547 198.933 171.734C199.371 171.921 199.735 172.196 200.025 172.56C200.314 172.924 200.524 173.367 200.655 173.89C200.795 174.413 200.841 175.015 200.795 175.696L195.069 175.738V174.632L199.605 174.59L198.933 175.164C198.998 174.669 198.965 174.263 198.835 173.946C198.713 173.629 198.527 173.395 198.275 173.246C198.032 173.097 197.757 173.022 197.449 173.022C197.094 173.022 196.781 173.115 196.511 173.302C196.249 173.489 196.044 173.764 195.895 174.128C195.755 174.483 195.685 174.912 195.685 175.416C195.685 176.209 195.857 176.793 196.203 177.166C196.548 177.53 197.005 177.712 197.575 177.712C197.836 177.712 198.055 177.679 198.233 177.614C198.419 177.539 198.569 177.446 198.681 177.334C198.802 177.222 198.895 177.096 198.961 176.956C199.026 176.816 199.077 176.671 199.115 176.522L200.879 176.886C200.813 177.231 200.697 177.544 200.529 177.824C200.37 178.104 200.155 178.347 199.885 178.552C199.623 178.757 199.301 178.916 198.919 179.028C198.536 179.14 198.088 179.196 197.575 179.196ZM204.983 179.168C204.581 179.168 204.231 179.117 203.933 179.014C203.634 178.911 203.382 178.753 203.177 178.538C202.981 178.314 202.831 178.029 202.729 177.684C202.626 177.339 202.575 176.928 202.575 176.452V173.232H201.525L201.567 171.678H202.239C202.547 171.669 202.775 171.617 202.925 171.524C203.074 171.421 203.163 171.244 203.191 170.992L203.359 170.012H204.507V171.65H206.355V173.288H204.507V176.354C204.507 176.737 204.6 176.993 204.787 177.124C204.973 177.255 205.202 177.32 205.473 177.32C205.641 177.32 205.809 177.301 205.977 177.264C206.145 177.217 206.289 177.157 206.411 177.082V178.958C206.121 179.042 205.855 179.098 205.613 179.126C205.37 179.154 205.16 179.168 204.983 179.168ZM46.632 196.196C46.2213 196.196 45.8573 196.117 45.54 195.958C45.2227 195.799 44.9707 195.571 44.784 195.272C44.6067 194.964 44.518 194.591 44.518 194.152C44.518 193.639 44.63 193.233 44.854 192.934C45.0873 192.635 45.3813 192.407 45.736 192.248C46.1 192.089 46.4827 191.977 46.884 191.912C47.2853 191.837 47.6587 191.777 48.004 191.73C48.3213 191.683 48.578 191.637 48.774 191.59C48.97 191.534 49.11 191.459 49.194 191.366C49.2873 191.263 49.334 191.128 49.334 190.96C49.334 190.773 49.292 190.61 49.208 190.47C49.124 190.33 48.998 190.218 48.83 190.134C48.662 190.041 48.4427 189.994 48.172 189.994C47.9107 189.994 47.6633 190.041 47.43 190.134C47.1967 190.227 46.996 190.372 46.828 190.568C46.6693 190.755 46.562 190.993 46.506 191.282L44.714 190.778C44.8167 190.377 44.9707 190.031 45.176 189.742C45.3907 189.453 45.6473 189.215 45.946 189.028C46.2447 188.832 46.5807 188.687 46.954 188.594C47.3273 188.501 47.7333 188.454 48.172 188.454C48.7413 188.454 49.2267 188.524 49.628 188.664C50.0293 188.804 50.3513 189.019 50.594 189.308C50.846 189.588 51.028 189.933 51.14 190.344C51.2613 190.745 51.322 191.207 51.322 191.73V192.99C51.322 193.307 51.3267 193.639 51.336 193.984C51.3453 194.32 51.3593 194.656 51.378 194.992C51.406 195.328 51.434 195.664 51.462 196H49.684C49.656 195.748 49.6233 195.473 49.586 195.174C49.558 194.866 49.5393 194.553 49.53 194.236H49.292C49.1613 194.591 48.9747 194.922 48.732 195.23C48.4893 195.529 48.1907 195.767 47.836 195.944C47.4813 196.112 47.08 196.196 46.632 196.196ZM47.486 194.726C47.6633 194.726 47.8407 194.698 48.018 194.642C48.2047 194.577 48.382 194.483 48.55 194.362C48.7273 194.241 48.886 194.087 49.026 193.9C49.1753 193.713 49.292 193.503 49.376 193.27L49.348 192.164L49.67 192.22C49.5113 192.341 49.32 192.439 49.096 192.514C48.8813 192.579 48.6527 192.631 48.41 192.668C48.1767 192.705 47.9433 192.747 47.71 192.794C47.4767 192.841 47.2667 192.901 47.08 192.976C46.8933 193.051 46.744 193.153 46.632 193.284C46.52 193.415 46.464 193.592 46.464 193.816C46.464 194.096 46.5573 194.32 46.744 194.488C46.94 194.647 47.1873 194.726 47.486 194.726ZM56.4328 196.196C55.7981 196.196 55.2428 196.103 54.7668 195.916C54.2908 195.729 53.8941 195.468 53.5768 195.132C53.2688 194.796 53.0354 194.399 52.8768 193.942C52.7181 193.475 52.6388 192.967 52.6388 192.416C52.6388 191.837 52.7181 191.31 52.8768 190.834C53.0354 190.349 53.2734 189.929 53.5908 189.574C53.9081 189.219 54.3001 188.944 54.7668 188.748C55.2334 188.552 55.7654 188.454 56.3628 188.454C56.8201 188.454 57.2308 188.515 57.5948 188.636C57.9588 188.748 58.2761 188.911 58.5468 189.126C58.8174 189.331 59.0368 189.583 59.2048 189.882C59.3821 190.171 59.4988 190.498 59.5548 190.862L57.7068 191.422C57.6788 191.123 57.5994 190.871 57.4688 190.666C57.3474 190.451 57.1841 190.293 56.9788 190.19C56.7734 190.087 56.5354 190.036 56.2648 190.036C56.0408 190.036 55.8308 190.083 55.6348 190.176C55.4481 190.26 55.2801 190.395 55.1308 190.582C54.9908 190.759 54.8788 190.993 54.7948 191.282C54.7108 191.571 54.6688 191.921 54.6688 192.332C54.6688 192.883 54.7388 193.331 54.8788 193.676C55.0281 194.021 55.2381 194.278 55.5088 194.446C55.7794 194.605 56.0968 194.684 56.4608 194.684C56.8248 194.684 57.1141 194.609 57.3288 194.46C57.5528 194.311 57.7161 194.124 57.8188 193.9C57.9308 193.667 57.9961 193.424 58.0148 193.172L59.7928 193.55C59.7554 193.914 59.6621 194.259 59.5128 194.586C59.3634 194.903 59.1488 195.183 58.8688 195.426C58.5981 195.669 58.2574 195.86 57.8468 196C57.4454 196.131 56.9741 196.196 56.4328 196.196ZM64.3214 196.196C63.6868 196.196 63.1314 196.103 62.6554 195.916C62.1794 195.729 61.7828 195.468 61.4654 195.132C61.1574 194.796 60.9241 194.399 60.7654 193.942C60.6068 193.475 60.5274 192.967 60.5274 192.416C60.5274 191.837 60.6068 191.31 60.7654 190.834C60.9241 190.349 61.1621 189.929 61.4794 189.574C61.7968 189.219 62.1888 188.944 62.6554 188.748C63.1221 188.552 63.6541 188.454 64.2514 188.454C64.7088 188.454 65.1194 188.515 65.4834 188.636C65.8474 188.748 66.1648 188.911 66.4354 189.126C66.7061 189.331 66.9254 189.583 67.0934 189.882C67.2708 190.171 67.3874 190.498 67.4434 190.862L65.5954 191.422C65.5674 191.123 65.4881 190.871 65.3574 190.666C65.2361 190.451 65.0728 190.293 64.8674 190.19C64.6621 190.087 64.4241 190.036 64.1534 190.036C63.9294 190.036 63.7194 190.083 63.5234 190.176C63.3368 190.26 63.1688 190.395 63.0194 190.582C62.8794 190.759 62.7674 190.993 62.6834 191.282C62.5994 191.571 62.5574 191.921 62.5574 192.332C62.5574 192.883 62.6274 193.331 62.7674 193.676C62.9168 194.021 63.1268 194.278 63.3974 194.446C63.6681 194.605 63.9854 194.684 64.3494 194.684C64.7134 194.684 65.0028 194.609 65.2174 194.46C65.4414 194.311 65.6048 194.124 65.7074 193.9C65.8194 193.667 65.8848 193.424 65.9034 193.172L67.6814 193.55C67.6441 193.914 67.5508 194.259 67.4014 194.586C67.2521 194.903 67.0374 195.183 66.7574 195.426C66.4868 195.669 66.1461 195.86 65.7354 196C65.3341 196.131 64.8628 196.196 64.3214 196.196ZM72.2241 196.196C71.6174 196.196 71.0761 196.112 70.6001 195.944C70.1334 195.776 69.7368 195.533 69.4101 195.216C69.0834 194.889 68.8361 194.497 68.6681 194.04C68.5001 193.573 68.4161 193.046 68.4161 192.458C68.4161 191.879 68.4954 191.347 68.6541 190.862C68.8221 190.367 69.0601 189.943 69.3681 189.588C69.6854 189.224 70.0728 188.944 70.5301 188.748C70.9874 188.552 71.5054 188.454 72.0841 188.454C72.6534 188.454 73.1528 188.547 73.5821 188.734C74.0208 188.921 74.3848 189.196 74.6741 189.56C74.9634 189.924 75.1734 190.367 75.3041 190.89C75.4441 191.413 75.4908 192.015 75.4441 192.696L69.7181 192.738V191.632L74.2541 191.59L73.5821 192.164C73.6474 191.669 73.6148 191.263 73.4841 190.946C73.3628 190.629 73.1761 190.395 72.9241 190.246C72.6814 190.097 72.4061 190.022 72.0981 190.022C71.7434 190.022 71.4308 190.115 71.1601 190.302C70.8988 190.489 70.6934 190.764 70.5441 191.128C70.4041 191.483 70.3341 191.912 70.3341 192.416C70.3341 193.209 70.5068 193.793 70.8521 194.166C71.1974 194.53 71.6548 194.712 72.2241 194.712C72.4854 194.712 72.7048 194.679 72.8821 194.614C73.0688 194.539 73.2181 194.446 73.3301 194.334C73.4514 194.222 73.5448 194.096 73.6101 193.956C73.6754 193.816 73.7268 193.671 73.7641 193.522L75.5281 193.886C75.4628 194.231 75.3461 194.544 75.1781 194.824C75.0194 195.104 74.8048 195.347 74.5341 195.552C74.2728 195.757 73.9508 195.916 73.5681 196.028C73.1854 196.14 72.7374 196.196 72.2241 196.196ZM79.9105 196.196C79.4159 196.196 78.9679 196.149 78.5665 196.056C78.1652 195.963 77.8199 195.827 77.5305 195.65C77.2412 195.463 77.0079 195.244 76.8305 194.992C76.6532 194.731 76.5412 194.441 76.4945 194.124L78.0485 193.536C78.0859 193.741 78.1839 193.937 78.3425 194.124C78.5105 194.301 78.7345 194.446 79.0145 194.558C79.2945 194.661 79.6352 194.712 80.0365 194.712C80.4565 194.712 80.7832 194.651 81.0165 194.53C81.2499 194.399 81.3665 194.217 81.3665 193.984C81.3665 193.807 81.3012 193.667 81.1705 193.564C81.0399 193.461 80.8485 193.373 80.5965 193.298C80.3539 193.223 80.0552 193.153 79.7005 193.088C79.3459 193.004 78.9865 192.915 78.6225 192.822C78.2679 192.719 77.9365 192.584 77.6285 192.416C77.3299 192.248 77.0872 192.029 76.9005 191.758C76.7139 191.487 76.6205 191.142 76.6205 190.722C76.6205 190.265 76.7419 189.868 76.9845 189.532C77.2272 189.196 77.5819 188.935 78.0485 188.748C78.5245 188.552 79.0939 188.454 79.7565 188.454C80.3632 188.454 80.8952 188.538 81.3525 188.706C81.8099 188.865 82.1832 189.103 82.4725 189.42C82.7619 189.728 82.9532 190.101 83.0465 190.54L81.4085 191.058C81.3712 190.825 81.2825 190.624 81.1425 190.456C81.0025 190.279 80.8112 190.148 80.5685 190.064C80.3352 189.98 80.0599 189.938 79.7425 189.938C79.3505 189.938 79.0425 190.003 78.8185 190.134C78.6039 190.265 78.4965 190.437 78.4965 190.652C78.4965 190.829 78.5665 190.974 78.7065 191.086C78.8559 191.198 79.0565 191.291 79.3085 191.366C79.5699 191.431 79.8779 191.501 80.2325 191.576C80.6059 191.651 80.9652 191.739 81.3105 191.842C81.6652 191.935 81.9872 192.061 82.2765 192.22C82.5659 192.379 82.7945 192.589 82.9625 192.85C83.1399 193.111 83.2285 193.452 83.2285 193.872C83.2285 194.357 83.0979 194.773 82.8365 195.118C82.5752 195.463 82.1972 195.729 81.7025 195.916C81.2079 196.103 80.6105 196.196 79.9105 196.196ZM87.5941 196.196C87.0995 196.196 86.6515 196.149 86.2501 196.056C85.8488 195.963 85.5035 195.827 85.2141 195.65C84.9248 195.463 84.6915 195.244 84.5141 194.992C84.3368 194.731 84.2248 194.441 84.1781 194.124L85.7321 193.536C85.7695 193.741 85.8675 193.937 86.0261 194.124C86.1941 194.301 86.4181 194.446 86.6981 194.558C86.9781 194.661 87.3188 194.712 87.7201 194.712C88.1401 194.712 88.4668 194.651 88.7001 194.53C88.9335 194.399 89.0501 194.217 89.0501 193.984C89.0501 193.807 88.9848 193.667 88.8541 193.564C88.7235 193.461 88.5321 193.373 88.2801 193.298C88.0375 193.223 87.7388 193.153 87.3841 193.088C87.0295 193.004 86.6701 192.915 86.3061 192.822C85.9515 192.719 85.6201 192.584 85.3121 192.416C85.0135 192.248 84.7708 192.029 84.5841 191.758C84.3975 191.487 84.3041 191.142 84.3041 190.722C84.3041 190.265 84.4255 189.868 84.6681 189.532C84.9108 189.196 85.2655 188.935 85.7321 188.748C86.2081 188.552 86.7775 188.454 87.4401 188.454C88.0468 188.454 88.5788 188.538 89.0361 188.706C89.4935 188.865 89.8668 189.103 90.1561 189.42C90.4455 189.728 90.6368 190.101 90.7301 190.54L89.0921 191.058C89.0548 190.825 88.9661 190.624 88.8261 190.456C88.6861 190.279 88.4948 190.148 88.2521 190.064C88.0188 189.98 87.7435 189.938 87.4261 189.938C87.0341 189.938 86.7261 190.003 86.5021 190.134C86.2875 190.265 86.1801 190.437 86.1801 190.652C86.1801 190.829 86.2501 190.974 86.3901 191.086C86.5395 191.198 86.7401 191.291 86.9921 191.366C87.2535 191.431 87.5615 191.501 87.9161 191.576C88.2895 191.651 88.6488 191.739 88.9941 191.842C89.3488 191.935 89.6708 192.061 89.9601 192.22C90.2495 192.379 90.4781 192.589 90.6461 192.85C90.8235 193.111 90.9121 193.452 90.9121 193.872C90.9121 194.357 90.7815 194.773 90.5201 195.118C90.2588 195.463 89.8808 195.729 89.3861 195.916C88.8915 196.103 88.2941 196.196 87.5941 196.196ZM98.1439 196.168C97.7426 196.168 97.3926 196.117 97.0939 196.014C96.7952 195.911 96.5432 195.753 96.3379 195.538C96.1419 195.314 95.9926 195.029 95.8899 194.684C95.7872 194.339 95.7359 193.928 95.7359 193.452V190.232H94.6859L94.7279 188.678H95.3999C95.7079 188.669 95.9366 188.617 96.0859 188.524C96.2352 188.421 96.3239 188.244 96.3519 187.992L96.5199 187.012H97.6679V188.65H99.5159V190.288H97.6679V193.354C97.6679 193.737 97.7612 193.993 97.9479 194.124C98.1346 194.255 98.3632 194.32 98.6339 194.32C98.8019 194.32 98.9699 194.301 99.1379 194.264C99.3059 194.217 99.4506 194.157 99.5719 194.082V195.958C99.2826 196.042 99.0166 196.098 98.7739 196.126C98.5312 196.154 98.3212 196.168 98.1439 196.168ZM104.187 196.196C103.45 196.196 102.801 196.051 102.241 195.762C101.681 195.463 101.243 195.029 100.925 194.46C100.608 193.881 100.449 193.163 100.449 192.304C100.449 191.445 100.608 190.731 100.925 190.162C101.252 189.593 101.695 189.168 102.255 188.888C102.815 188.599 103.455 188.454 104.173 188.454C104.911 188.454 105.559 188.599 106.119 188.888C106.679 189.177 107.118 189.611 107.435 190.19C107.762 190.759 107.925 191.473 107.925 192.332C107.925 193.209 107.762 193.933 107.435 194.502C107.109 195.071 106.661 195.496 106.091 195.776C105.522 196.056 104.887 196.196 104.187 196.196ZM104.243 194.698C104.467 194.698 104.677 194.661 104.873 194.586C105.069 194.511 105.242 194.39 105.391 194.222C105.55 194.045 105.671 193.811 105.755 193.522C105.849 193.223 105.895 192.864 105.895 192.444C105.895 191.996 105.844 191.618 105.741 191.31C105.648 191.002 105.517 190.755 105.349 190.568C105.191 190.372 105.004 190.232 104.789 190.148C104.575 190.064 104.351 190.022 104.117 190.022C103.903 190.022 103.693 190.059 103.487 190.134C103.291 190.209 103.119 190.335 102.969 190.512C102.82 190.68 102.699 190.909 102.605 191.198C102.512 191.487 102.465 191.847 102.465 192.276C102.465 192.724 102.512 193.102 102.605 193.41C102.699 193.718 102.829 193.97 102.997 194.166C103.165 194.353 103.357 194.488 103.571 194.572C103.786 194.656 104.01 194.698 104.243 194.698ZM115.261 196.168C114.86 196.168 114.51 196.117 114.211 196.014C113.912 195.911 113.66 195.753 113.455 195.538C113.259 195.314 113.11 195.029 113.007 194.684C112.904 194.339 112.853 193.928 112.853 193.452V190.232H111.803L111.845 188.678H112.517C112.825 188.669 113.054 188.617 113.203 188.524C113.352 188.421 113.441 188.244 113.469 187.992L113.637 187.012H114.785V188.65H116.633V190.288H114.785V193.354C114.785 193.737 114.878 193.993 115.065 194.124C115.252 194.255 115.48 194.32 115.751 194.32C115.919 194.32 116.087 194.301 116.255 194.264C116.423 194.217 116.568 194.157 116.689 194.082V195.958C116.4 196.042 116.134 196.098 115.891 196.126C115.648 196.154 115.438 196.168 115.261 196.168ZM118.027 196V191.45V186.018H120.043V188.272C120.043 188.459 120.034 188.659 120.015 188.874C120.006 189.089 119.987 189.308 119.959 189.532C119.931 189.756 119.898 189.98 119.861 190.204C119.833 190.428 119.796 190.647 119.749 190.862H120.043C120.174 190.358 120.337 189.929 120.533 189.574C120.738 189.21 121 188.935 121.317 188.748C121.644 188.552 122.05 188.454 122.535 188.454C123.03 188.454 123.436 188.547 123.753 188.734C124.07 188.911 124.318 189.145 124.495 189.434C124.672 189.723 124.803 190.041 124.887 190.386C124.971 190.722 125.022 191.053 125.041 191.38C125.069 191.707 125.083 191.991 125.083 192.234V196H123.067V192.458C123.067 192.113 123.044 191.8 122.997 191.52C122.95 191.231 122.876 190.983 122.773 190.778C122.67 190.573 122.53 190.414 122.353 190.302C122.185 190.19 121.975 190.134 121.723 190.134C121.35 190.134 121.042 190.246 120.799 190.47C120.556 190.694 120.37 191.002 120.239 191.394C120.118 191.777 120.052 192.215 120.043 192.71V196H118.027ZM126.777 196V188.65H128.793V196H126.777ZM127.785 187.586C127.393 187.586 127.09 187.502 126.875 187.334C126.67 187.166 126.567 186.928 126.567 186.62C126.567 186.293 126.67 186.046 126.875 185.878C127.09 185.71 127.393 185.626 127.785 185.626C128.186 185.626 128.49 185.71 128.695 185.878C128.91 186.046 129.017 186.293 129.017 186.62C129.017 186.928 128.91 187.166 128.695 187.334C128.49 187.502 128.186 187.586 127.785 187.586ZM133.545 196.196C133.051 196.196 132.603 196.149 132.201 196.056C131.8 195.963 131.455 195.827 131.165 195.65C130.876 195.463 130.643 195.244 130.465 194.992C130.288 194.731 130.176 194.441 130.129 194.124L131.683 193.536C131.721 193.741 131.819 193.937 131.977 194.124C132.145 194.301 132.369 194.446 132.649 194.558C132.929 194.661 133.27 194.712 133.671 194.712C134.091 194.712 134.418 194.651 134.651 194.53C134.885 194.399 135.001 194.217 135.001 193.984C135.001 193.807 134.936 193.667 134.805 193.564C134.675 193.461 134.483 193.373 134.231 193.298C133.989 193.223 133.69 193.153 133.335 193.088C132.981 193.004 132.621 192.915 132.257 192.822C131.903 192.719 131.571 192.584 131.263 192.416C130.965 192.248 130.722 192.029 130.535 191.758C130.349 191.487 130.255 191.142 130.255 190.722C130.255 190.265 130.377 189.868 130.619 189.532C130.862 189.196 131.217 188.935 131.683 188.748C132.159 188.552 132.729 188.454 133.391 188.454C133.998 188.454 134.53 188.538 134.987 188.706C135.445 188.865 135.818 189.103 136.107 189.42C136.397 189.728 136.588 190.101 136.681 190.54L135.043 191.058C135.006 190.825 134.917 190.624 134.777 190.456C134.637 190.279 134.446 190.148 134.203 190.064C133.97 189.98 133.695 189.938 133.377 189.938C132.985 189.938 132.677 190.003 132.453 190.134C132.239 190.265 132.131 190.437 132.131 190.652C132.131 190.829 132.201 190.974 132.341 191.086C132.491 191.198 132.691 191.291 132.943 191.366C133.205 191.431 133.513 191.501 133.867 191.576C134.241 191.651 134.6 191.739 134.945 191.842C135.3 191.935 135.622 192.061 135.911 192.22C136.201 192.379 136.429 192.589 136.597 192.85C136.775 193.111 136.863 193.452 136.863 193.872C136.863 194.357 136.733 194.773 136.471 195.118C136.21 195.463 135.832 195.729 135.337 195.916C134.843 196.103 134.245 196.196 133.545 196.196ZM149.807 198.128C149.135 198.259 148.566 198.338 148.099 198.366C147.632 198.403 147.212 198.403 146.839 198.366C146.475 198.338 146.12 198.287 145.775 198.212C145.43 198.147 145.052 198.077 144.641 198.002C144.24 197.937 143.764 197.885 143.213 197.848C142.662 197.811 141.99 197.811 141.197 197.848V196.182C141.477 196.201 141.799 196.205 142.163 196.196C142.527 196.196 142.91 196.177 143.311 196.14C143.722 196.112 144.128 196.07 144.529 196.014C144.93 195.958 145.304 195.883 145.649 195.79C145.994 195.697 146.284 195.585 146.517 195.454V195.286C145.789 195.501 145.136 195.599 144.557 195.58C143.978 195.561 143.47 195.449 143.031 195.244C142.602 195.029 142.247 194.735 141.967 194.362C141.687 193.979 141.472 193.536 141.323 193.032C141.183 192.519 141.113 191.963 141.113 191.366C141.113 190.675 141.206 190.036 141.393 189.448C141.58 188.86 141.855 188.356 142.219 187.936C142.592 187.507 143.05 187.171 143.591 186.928C144.142 186.685 144.781 186.564 145.509 186.564C146.424 186.564 147.203 186.755 147.847 187.138C148.491 187.521 148.986 188.071 149.331 188.79C149.676 189.499 149.849 190.349 149.849 191.338C149.849 192.206 149.728 192.939 149.485 193.536C149.252 194.124 148.916 194.609 148.477 194.992C148.048 195.375 147.534 195.678 146.937 195.902C146.34 196.126 145.677 196.294 144.949 196.406V196.588C145.453 196.644 145.906 196.691 146.307 196.728C146.718 196.765 147.11 196.784 147.483 196.784C147.856 196.784 148.23 196.761 148.603 196.714C148.976 196.667 149.378 196.593 149.807 196.49V198.128ZM145.523 194.6C145.822 194.6 146.106 194.553 146.377 194.46C146.657 194.367 146.904 194.208 147.119 193.984C147.334 193.751 147.502 193.429 147.623 193.018C147.754 192.607 147.819 192.085 147.819 191.45C147.819 190.993 147.777 190.587 147.693 190.232C147.618 189.868 147.506 189.56 147.357 189.308C147.217 189.047 147.049 188.837 146.853 188.678C146.666 188.519 146.452 188.403 146.209 188.328C145.976 188.253 145.728 188.216 145.467 188.216C145.047 188.216 144.66 188.314 144.305 188.51C143.96 188.706 143.684 189.037 143.479 189.504C143.274 189.971 143.171 190.61 143.171 191.422C143.171 192.038 143.232 192.551 143.353 192.962C143.484 193.373 143.656 193.699 143.871 193.942C144.095 194.185 144.347 194.357 144.627 194.46C144.916 194.553 145.215 194.6 145.523 194.6ZM151.498 196V186.76H155.25C155.698 186.76 156.118 186.797 156.51 186.872C156.902 186.937 157.257 187.04 157.574 187.18C157.901 187.32 158.181 187.497 158.414 187.712C158.657 187.927 158.839 188.183 158.96 188.482C159.081 188.771 159.142 189.103 159.142 189.476C159.142 189.803 159.091 190.097 158.988 190.358C158.895 190.619 158.745 190.853 158.54 191.058C158.335 191.254 158.073 191.417 157.756 191.548C157.448 191.669 157.089 191.753 156.678 191.8V191.996C157.154 192.052 157.537 192.164 157.826 192.332C158.115 192.5 158.339 192.729 158.498 193.018C158.666 193.307 158.811 193.667 158.932 194.096L159.478 196H157.252L156.832 194.25C156.748 193.877 156.627 193.583 156.468 193.368C156.309 193.153 156.109 193.004 155.866 192.92C155.633 192.836 155.348 192.794 155.012 192.794H153.514V196H151.498ZM153.514 191.268H154.816C154.975 191.268 155.152 191.263 155.348 191.254C155.544 191.245 155.74 191.217 155.936 191.17C156.141 191.123 156.323 191.049 156.482 190.946C156.65 190.843 156.785 190.699 156.888 190.512C157 190.325 157.056 190.087 157.056 189.798C157.056 189.499 157.005 189.257 156.902 189.07C156.799 188.883 156.669 188.739 156.51 188.636C156.351 188.533 156.183 188.459 156.006 188.412C155.829 188.365 155.661 188.337 155.502 188.328C155.343 188.319 155.217 188.314 155.124 188.314H153.514V191.268ZM168.331 196.196C167.613 196.196 166.969 196.093 166.399 195.888C165.839 195.683 165.363 195.379 164.971 194.978C164.579 194.577 164.281 194.082 164.075 193.494C163.87 192.906 163.767 192.234 163.767 191.478C163.767 190.694 163.87 190.003 164.075 189.406C164.29 188.799 164.593 188.286 164.985 187.866C165.377 187.437 165.844 187.115 166.385 186.9C166.927 186.676 167.533 186.564 168.205 186.564C168.728 186.564 169.209 186.634 169.647 186.774C170.086 186.914 170.464 187.115 170.781 187.376C171.099 187.628 171.346 187.941 171.523 188.314C171.701 188.678 171.789 189.089 171.789 189.546L169.927 190.022C169.927 189.621 169.843 189.289 169.675 189.028C169.507 188.757 169.288 188.557 169.017 188.426C168.747 188.286 168.453 188.216 168.135 188.216C167.855 188.216 167.58 188.272 167.309 188.384C167.048 188.496 166.805 188.678 166.581 188.93C166.367 189.173 166.194 189.495 166.063 189.896C165.942 190.288 165.881 190.773 165.881 191.352C165.881 192.099 165.989 192.71 166.203 193.186C166.418 193.653 166.712 193.998 167.085 194.222C167.468 194.437 167.897 194.544 168.373 194.544C168.877 194.544 169.269 194.441 169.549 194.236C169.839 194.021 170.044 193.746 170.165 193.41C170.296 193.074 170.366 192.719 170.375 192.346L172.153 192.626C172.144 193.121 172.069 193.587 171.929 194.026C171.799 194.455 171.579 194.833 171.271 195.16C170.973 195.487 170.581 195.743 170.095 195.93C169.61 196.107 169.022 196.196 168.331 196.196ZM176.812 196.196C176.075 196.196 175.426 196.051 174.866 195.762C174.306 195.463 173.868 195.029 173.55 194.46C173.233 193.881 173.074 193.163 173.074 192.304C173.074 191.445 173.233 190.731 173.55 190.162C173.877 189.593 174.32 189.168 174.88 188.888C175.44 188.599 176.08 188.454 176.798 188.454C177.536 188.454 178.184 188.599 178.744 188.888C179.304 189.177 179.743 189.611 180.06 190.19C180.387 190.759 180.55 191.473 180.55 192.332C180.55 193.209 180.387 193.933 180.06 194.502C179.734 195.071 179.286 195.496 178.716 195.776C178.147 196.056 177.512 196.196 176.812 196.196ZM176.868 194.698C177.092 194.698 177.302 194.661 177.498 194.586C177.694 194.511 177.867 194.39 178.016 194.222C178.175 194.045 178.296 193.811 178.38 193.522C178.474 193.223 178.52 192.864 178.52 192.444C178.52 191.996 178.469 191.618 178.366 191.31C178.273 191.002 178.142 190.755 177.974 190.568C177.816 190.372 177.629 190.232 177.414 190.148C177.2 190.064 176.976 190.022 176.742 190.022C176.528 190.022 176.318 190.059 176.112 190.134C175.916 190.209 175.744 190.335 175.594 190.512C175.445 190.68 175.324 190.909 175.23 191.198C175.137 191.487 175.09 191.847 175.09 192.276C175.09 192.724 175.137 193.102 175.23 193.41C175.324 193.718 175.454 193.97 175.622 194.166C175.79 194.353 175.982 194.488 176.196 194.572C176.411 194.656 176.635 194.698 176.868 194.698ZM184.617 196.196C184.01 196.196 183.478 196.042 183.021 195.734C182.563 195.417 182.209 194.969 181.957 194.39C181.705 193.802 181.579 193.107 181.579 192.304C181.579 191.557 181.691 190.895 181.915 190.316C182.139 189.737 182.47 189.285 182.909 188.958C183.347 188.631 183.889 188.468 184.533 188.468C185.009 188.468 185.405 188.561 185.723 188.748C186.049 188.925 186.315 189.187 186.521 189.532C186.735 189.877 186.903 190.293 187.025 190.778H187.333C187.277 190.479 187.221 190.185 187.165 189.896C187.118 189.607 187.076 189.331 187.039 189.07C187.011 188.809 186.997 188.58 186.997 188.384V186.018H189.027V192.472V196H187.333V193.858H187.067C186.964 194.381 186.805 194.815 186.591 195.16C186.376 195.505 186.105 195.767 185.779 195.944C185.452 196.112 185.065 196.196 184.617 196.196ZM185.303 194.544C185.592 194.544 185.844 194.479 186.059 194.348C186.273 194.217 186.451 194.049 186.591 193.844C186.731 193.629 186.833 193.401 186.899 193.158C186.964 192.915 186.997 192.682 186.997 192.458V192.206C186.997 192.019 186.973 191.828 186.927 191.632C186.88 191.436 186.81 191.249 186.717 191.072C186.623 190.885 186.507 190.722 186.367 190.582C186.227 190.433 186.063 190.316 185.877 190.232C185.69 190.148 185.489 190.106 185.275 190.106C184.939 190.106 184.654 190.199 184.421 190.386C184.187 190.573 184.005 190.834 183.875 191.17C183.753 191.497 183.693 191.884 183.693 192.332C183.693 192.771 183.758 193.158 183.889 193.494C184.019 193.83 184.206 194.091 184.449 194.278C184.691 194.455 184.976 194.544 185.303 194.544ZM194.232 196.196C193.625 196.196 193.084 196.112 192.608 195.944C192.141 195.776 191.745 195.533 191.418 195.216C191.091 194.889 190.844 194.497 190.676 194.04C190.508 193.573 190.424 193.046 190.424 192.458C190.424 191.879 190.503 191.347 190.662 190.862C190.83 190.367 191.068 189.943 191.376 189.588C191.693 189.224 192.081 188.944 192.538 188.748C192.995 188.552 193.513 188.454 194.092 188.454C194.661 188.454 195.161 188.547 195.59 188.734C196.029 188.921 196.393 189.196 196.682 189.56C196.971 189.924 197.181 190.367 197.312 190.89C197.452 191.413 197.499 192.015 197.452 192.696L191.726 192.738V191.632L196.262 191.59L195.59 192.164C195.655 191.669 195.623 191.263 195.492 190.946C195.371 190.629 195.184 190.395 194.932 190.246C194.689 190.097 194.414 190.022 194.106 190.022C193.751 190.022 193.439 190.115 193.168 190.302C192.907 190.489 192.701 190.764 192.552 191.128C192.412 191.483 192.342 191.912 192.342 192.416C192.342 193.209 192.515 193.793 192.86 194.166C193.205 194.53 193.663 194.712 194.232 194.712C194.493 194.712 194.713 194.679 194.89 194.614C195.077 194.539 195.226 194.446 195.338 194.334C195.459 194.222 195.553 194.096 195.618 193.956C195.683 193.816 195.735 193.671 195.772 193.522L197.536 193.886C197.471 194.231 197.354 194.544 197.186 194.824C197.027 195.104 196.813 195.347 196.542 195.552C196.281 195.757 195.959 195.916 195.576 196.028C195.193 196.14 194.745 196.196 194.232 196.196Z" fill="black"/>
</g>
<rect x="0.361257" y="0.361257" width="241.277" height="241.277" rx="2.5288" stroke="#F2F2F2" stroke-width="0.722513"/>
<defs>
<filter id="filter0_b_3023_32039" x="-13" y="105" width="270" height="150" filterUnits="userSpaceOnUse" color-interpolation-filters="sRGB">
<feFlood flood-opacity="0" result="BackgroundImageFix"/>
<feGaussianBlur in="BackgroundImageFix" stdDeviation="7.5"/>
<feComposite in2="SourceAlpha" operator="in" result="effect1_backgroundBlur_3023_32039"/>
<feBlend mode="normal" in="SourceGraphic" in2="effect1_backgroundBlur_3023_32039" result="shape"/>
</filter>
<clipPath id="clip0_3023_32039">
<rect width="242" height="242" rx="2.89005" fill="white"/>
</clipPath>
</defs>
</svg>
