<svg width="62" height="63" viewBox="0 0 62 63" fill="none" xmlns="http://www.w3.org/2000/svg">
<g clip-path="url(#clip0_1503_2677)">
<path d="M60.3246 0H1.67539C0.750099 0 0 0.750097 0 1.67539V61.3246C0 62.2499 0.7501 63 1.67539 63H60.3246C61.2499 63 62 62.2499 62 61.3246V1.67539C62 0.750099 61.2499 0 60.3246 0Z" fill="white"/>
<path d="M6.97335 5.27748H5.1936V7.08593H6.97335V5.27748Z" fill="black"/>
<path d="M8.75309 5.27748H6.97335V7.08593H8.75309V5.27748Z" fill="black"/>
<path d="M10.5328 5.27748H8.75309V7.08593H10.5328V5.27748Z" fill="black"/>
<path d="M12.3126 5.27748H10.5328V7.08593H12.3126V5.27748Z" fill="black"/>
<path d="M14.0923 5.27748H12.3126V7.08593H14.0923V5.27748Z" fill="black"/>
<path d="M15.8721 5.27748H14.0923V7.08593H15.8721V5.27748Z" fill="black"/>
<path d="M17.6518 5.27748H15.8721V7.08593H17.6518V5.27748Z" fill="black"/>
<path d="M21.2113 5.27748H19.4316V7.08593H21.2113V5.27748Z" fill="black"/>
<path d="M26.5505 5.27748H24.7708V7.08593H26.5505V5.27748Z" fill="black"/>
<path d="M28.3303 5.27748H26.5505V7.08593H28.3303V5.27748Z" fill="black"/>
<path d="M30.11 5.27748H28.3303V7.08593H30.11V5.27748Z" fill="black"/>
<path d="M39.0087 5.27748H37.229V7.08593H39.0087V5.27748Z" fill="black"/>
<path d="M46.1277 5.27748H44.348V7.08593H46.1277V5.27748Z" fill="black"/>
<path d="M47.9075 5.27748H46.1277V7.08593H47.9075V5.27748Z" fill="black"/>
<path d="M49.6872 5.27748H47.9075V7.08593H49.6872V5.27748Z" fill="black"/>
<path d="M51.4669 5.27748H49.6872V7.08593H51.4669V5.27748Z" fill="black"/>
<path d="M53.2467 5.27748H51.4669V7.08593H53.2467V5.27748Z" fill="black"/>
<path d="M55.0264 5.27748H53.2467V7.08593H55.0264V5.27748Z" fill="black"/>
<path d="M56.8062 5.27748H55.0264V7.08593H56.8062V5.27748Z" fill="black"/>
<path d="M6.97335 7.08593H5.1936V8.89438H6.97335V7.08593Z" fill="black"/>
<path d="M17.6518 7.08593H15.8721V8.89438H17.6518V7.08593Z" fill="black"/>
<path d="M22.991 7.08593H21.2113V8.89438H22.991V7.08593Z" fill="black"/>
<path d="M24.7708 7.08593H22.991V8.89438H24.7708V7.08593Z" fill="black"/>
<path d="M30.11 7.08593H28.3303V8.89438H30.11V7.08593Z" fill="black"/>
<path d="M31.8898 7.08593H30.11V8.89438H31.8898V7.08593Z" fill="black"/>
<path d="M37.229 7.08593H35.4492V8.89438H37.229V7.08593Z" fill="black"/>
<path d="M42.5682 7.08593H40.7885V8.89438H42.5682V7.08593Z" fill="black"/>
<path d="M46.1277 7.08593H44.348V8.89438H46.1277V7.08593Z" fill="black"/>
<path d="M56.8062 7.08593H55.0264V8.89438H56.8062V7.08593Z" fill="black"/>
<path d="M6.97335 8.89438H5.1936V10.7028H6.97335V8.89438Z" fill="black"/>
<path d="M10.5328 8.89438H8.75309V10.7028H10.5328V8.89438Z" fill="black"/>
<path d="M12.3126 8.89438H10.5328V10.7028H12.3126V8.89438Z" fill="black"/>
<path d="M14.0923 8.89438H12.3126V10.7028H14.0923V8.89438Z" fill="black"/>
<path d="M17.6518 8.89438H15.8721V10.7028H17.6518V8.89438Z" fill="black"/>
<path d="M21.2113 8.89438H19.4316V10.7028H21.2113V8.89438Z" fill="black"/>
<path d="M30.11 8.89438H28.3303V10.7028H30.11V8.89438Z" fill="black"/>
<path d="M33.6695 8.89438H31.8898V10.7028H33.6695V8.89438Z" fill="black"/>
<path d="M37.229 8.89438H35.4492V10.7028H37.229V8.89438Z" fill="black"/>
<path d="M39.0087 8.89438H37.229V10.7028H39.0087V8.89438Z" fill="black"/>
<path d="M40.7885 8.89438H39.0087V10.7028H40.7885V8.89438Z" fill="black"/>
<path d="M42.5682 8.89438H40.7885V10.7028H42.5682V8.89438Z" fill="black"/>
<path d="M46.1277 8.89438H44.348V10.7028H46.1277V8.89438Z" fill="black"/>
<path d="M49.6872 8.89438H47.9075V10.7028H49.6872V8.89438Z" fill="black"/>
<path d="M51.4669 8.89438H49.6872V10.7028H51.4669V8.89438Z" fill="black"/>
<path d="M53.2467 8.89438H51.4669V10.7028H53.2467V8.89438Z" fill="black"/>
<path d="M56.8062 8.89438H55.0264V10.7028H56.8062V8.89438Z" fill="black"/>
<path d="M6.97335 10.7028H5.1936V12.5113H6.97335V10.7028Z" fill="black"/>
<path d="M10.5328 10.7028H8.75309V12.5113H10.5328V10.7028Z" fill="black"/>
<path d="M12.3126 10.7028H10.5328V12.5113H12.3126V10.7028Z" fill="black"/>
<path d="M14.0923 10.7028H12.3126V12.5113H14.0923V10.7028Z" fill="black"/>
<path d="M17.6518 10.7028H15.8721V12.5113H17.6518V10.7028Z" fill="black"/>
<path d="M21.2113 10.7028H19.4316V12.5113H21.2113V10.7028Z" fill="black"/>
<path d="M22.991 10.7028H21.2113V12.5113H22.991V10.7028Z" fill="black"/>
<path d="M24.7708 10.7028H22.991V12.5113H24.7708V10.7028Z" fill="black"/>
<path d="M26.5505 10.7028H24.7708V12.5113H26.5505V10.7028Z" fill="black"/>
<path d="M28.3303 10.7028H26.5505V12.5113H28.3303V10.7028Z" fill="black"/>
<path d="M31.8898 10.7028H30.11V12.5113H31.8898V10.7028Z" fill="black"/>
<path d="M33.6695 10.7028H31.8898V12.5113H33.6695V10.7028Z" fill="black"/>
<path d="M35.4492 10.7028H33.6695V12.5113H35.4492V10.7028Z" fill="black"/>
<path d="M40.7885 10.7028H39.0087V12.5113H40.7885V10.7028Z" fill="black"/>
<path d="M46.1277 10.7028H44.348V12.5113H46.1277V10.7028Z" fill="black"/>
<path d="M49.6872 10.7028H47.9075V12.5113H49.6872V10.7028Z" fill="black"/>
<path d="M51.4669 10.7028H49.6872V12.5113H51.4669V10.7028Z" fill="black"/>
<path d="M53.2467 10.7028H51.4669V12.5113H53.2467V10.7028Z" fill="black"/>
<path d="M56.8062 10.7028H55.0264V12.5113H56.8062V10.7028Z" fill="black"/>
<path d="M6.97335 12.5113H5.1936V14.3197H6.97335V12.5113Z" fill="black"/>
<path d="M10.5328 12.5113H8.75309V14.3197H10.5328V12.5113Z" fill="black"/>
<path d="M12.3126 12.5113H10.5328V14.3197H12.3126V12.5113Z" fill="black"/>
<path d="M14.0923 12.5113H12.3126V14.3197H14.0923V12.5113Z" fill="black"/>
<path d="M17.6518 12.5113H15.8721V14.3197H17.6518V12.5113Z" fill="black"/>
<path d="M22.991 12.5113H21.2113V14.3197H22.991V12.5113Z" fill="black"/>
<path d="M24.7708 12.5113H22.991V14.3197H24.7708V12.5113Z" fill="black"/>
<path d="M33.6695 12.5113H31.8898V14.3197H33.6695V12.5113Z" fill="black"/>
<path d="M37.229 12.5113H35.4492V14.3197H37.229V12.5113Z" fill="black"/>
<path d="M46.1277 12.5113H44.348V14.3197H46.1277V12.5113Z" fill="black"/>
<path d="M49.6872 12.5113H47.9075V14.3197H49.6872V12.5113Z" fill="black"/>
<path d="M51.4669 12.5113H49.6872V14.3197H51.4669V12.5113Z" fill="black"/>
<path d="M53.2467 12.5113H51.4669V14.3197H53.2467V12.5113Z" fill="black"/>
<path d="M56.8062 12.5113H55.0264V14.3197H56.8062V12.5113Z" fill="black"/>
<path d="M6.97335 14.3197H5.1936V16.1282H6.97335V14.3197Z" fill="black"/>
<path d="M17.6518 14.3197H15.8721V16.1282H17.6518V14.3197Z" fill="black"/>
<path d="M21.2113 14.3197H19.4316V16.1282H21.2113V14.3197Z" fill="black"/>
<path d="M26.5505 14.3197H24.7708V16.1282H26.5505V14.3197Z" fill="black"/>
<path d="M28.3303 14.3197H26.5505V16.1282H28.3303V14.3197Z" fill="black"/>
<path d="M33.6695 14.3197H31.8898V16.1282H33.6695V14.3197Z" fill="black"/>
<path d="M39.0087 14.3197H37.229V16.1282H39.0087V14.3197Z" fill="black"/>
<path d="M46.1277 14.3197H44.348V16.1282H46.1277V14.3197Z" fill="black"/>
<path d="M56.8062 14.3197H55.0264V16.1282H56.8062V14.3197Z" fill="black"/>
<path d="M6.97335 16.1282H5.1936V17.9366H6.97335V16.1282Z" fill="black"/>
<path d="M8.75309 16.1282H6.97335V17.9366H8.75309V16.1282Z" fill="black"/>
<path d="M10.5328 16.1282H8.75309V17.9366H10.5328V16.1282Z" fill="black"/>
<path d="M12.3126 16.1282H10.5328V17.9366H12.3126V16.1282Z" fill="black"/>
<path d="M14.0923 16.1282H12.3126V17.9366H14.0923V16.1282Z" fill="black"/>
<path d="M15.8721 16.1282H14.0923V17.9366H15.8721V16.1282Z" fill="black"/>
<path d="M17.6518 16.1282H15.8721V17.9366H17.6518V16.1282Z" fill="black"/>
<path d="M21.2113 16.1282H19.4316V17.9366H21.2113V16.1282Z" fill="black"/>
<path d="M24.7708 16.1282H22.991V17.9366H24.7708V16.1282Z" fill="black"/>
<path d="M28.3303 16.1282H26.5505V17.9366H28.3303V16.1282Z" fill="black"/>
<path d="M31.8898 16.1282H30.11V17.9366H31.8898V16.1282Z" fill="black"/>
<path d="M35.4492 16.1282H33.6695V17.9366H35.4492V16.1282Z" fill="black"/>
<path d="M39.0087 16.1282H37.229V17.9366H39.0087V16.1282Z" fill="black"/>
<path d="M42.5682 16.1282H40.7885V17.9366H42.5682V16.1282Z" fill="black"/>
<path d="M46.1277 16.1282H44.348V17.9366H46.1277V16.1282Z" fill="black"/>
<path d="M47.9075 16.1282H46.1277V17.9366H47.9075V16.1282Z" fill="black"/>
<path d="M49.6872 16.1282H47.9075V17.9366H49.6872V16.1282Z" fill="black"/>
<path d="M51.4669 16.1282H49.6872V17.9366H51.4669V16.1282Z" fill="black"/>
<path d="M53.2467 16.1282H51.4669V17.9366H53.2467V16.1282Z" fill="black"/>
<path d="M55.0264 16.1282H53.2467V17.9366H55.0264V16.1282Z" fill="black"/>
<path d="M56.8062 16.1282H55.0264V17.9366H56.8062V16.1282Z" fill="black"/>
<path d="M21.2113 17.9366H19.4316V19.7451H21.2113V17.9366Z" fill="black"/>
<path d="M22.991 17.9366H21.2113V19.7451H22.991V17.9366Z" fill="black"/>
<path d="M24.7708 17.9366H22.991V19.7451H24.7708V17.9366Z" fill="black"/>
<path d="M28.3303 17.9366H26.5505V19.7451H28.3303V17.9366Z" fill="black"/>
<path d="M30.11 17.9366H28.3303V19.7451H30.11V17.9366Z" fill="black"/>
<path d="M31.8898 17.9366H30.11V19.7451H31.8898V17.9366Z" fill="black"/>
<path d="M33.6695 17.9366H31.8898V19.7451H33.6695V17.9366Z" fill="black"/>
<path d="M35.4492 17.9366H33.6695V19.7451H35.4492V17.9366Z" fill="black"/>
<path d="M37.229 17.9366H35.4492V19.7451H37.229V17.9366Z" fill="black"/>
<path d="M40.7885 17.9366H39.0087V19.7451H40.7885V17.9366Z" fill="black"/>
<path d="M42.5682 17.9366H40.7885V19.7451H42.5682V17.9366Z" fill="black"/>
<path d="M6.97335 19.7451H5.1936V21.5535H6.97335V19.7451Z" fill="black"/>
<path d="M8.75309 19.7451H6.97335V21.5535H8.75309V19.7451Z" fill="black"/>
<path d="M12.3126 19.7451H10.5328V21.5535H12.3126V19.7451Z" fill="black"/>
<path d="M17.6518 19.7451H15.8721V21.5535H17.6518V19.7451Z" fill="black"/>
<path d="M19.4316 19.7451H17.6518V21.5535H19.4316V19.7451Z" fill="black"/>
<path d="M22.991 19.7451H21.2113V21.5535H22.991V19.7451Z" fill="black"/>
<path d="M30.11 19.7451H28.3303V21.5535H30.11V19.7451Z" fill="black"/>
<path d="M31.8898 19.7451H30.11V21.5535H31.8898V19.7451Z" fill="black"/>
<path d="M35.4492 19.7451H33.6695V21.5535H35.4492V19.7451Z" fill="black"/>
<path d="M37.229 19.7451H35.4492V21.5535H37.229V19.7451Z" fill="black"/>
<path d="M40.7885 19.7451H39.0087V21.5535H40.7885V19.7451Z" fill="black"/>
<path d="M42.5682 19.7451H40.7885V21.5535H42.5682V19.7451Z" fill="black"/>
<path d="M44.348 19.7451H42.5682V21.5535H44.348V19.7451Z" fill="black"/>
<path d="M46.1277 19.7451H44.348V21.5535H46.1277V19.7451Z" fill="black"/>
<path d="M47.9075 19.7451H46.1277V21.5535H47.9075V19.7451Z" fill="black"/>
<path d="M51.4669 19.7451H49.6872V21.5535H51.4669V19.7451Z" fill="black"/>
<path d="M53.2467 19.7451H51.4669V21.5535H53.2467V19.7451Z" fill="black"/>
<path d="M56.8062 19.7451H55.0264V21.5535H56.8062V19.7451Z" fill="black"/>
<path d="M12.3126 21.5535H10.5328V23.362H12.3126V21.5535Z" fill="black"/>
<path d="M19.4316 21.5535H17.6518V23.362H19.4316V21.5535Z" fill="black"/>
<path d="M22.991 21.5535H21.2113V23.362H22.991V21.5535Z" fill="black"/>
<path d="M24.7708 21.5535H22.991V23.362H24.7708V21.5535Z" fill="black"/>
<path d="M35.4492 21.5535H33.6695V23.362H35.4492V21.5535Z" fill="black"/>
<path d="M39.0087 21.5535H37.229V23.362H39.0087V21.5535Z" fill="black"/>
<path d="M40.7885 21.5535H39.0087V23.362H40.7885V21.5535Z" fill="black"/>
<path d="M47.9075 21.5535H46.1277V23.362H47.9075V21.5535Z" fill="black"/>
<path d="M55.0264 21.5535H53.2467V23.362H55.0264V21.5535Z" fill="black"/>
<path d="M56.8062 21.5535H55.0264V23.362H56.8062V21.5535Z" fill="black"/>
<path d="M6.97335 23.362H5.1936V25.1704H6.97335V23.362Z" fill="black"/>
<path d="M10.5328 23.362H8.75309V25.1704H10.5328V23.362Z" fill="black"/>
<path d="M15.8721 23.362H14.0923V25.1704H15.8721V23.362Z" fill="black"/>
<path d="M17.6518 23.362H15.8721V25.1704H17.6518V23.362Z" fill="black"/>
<path d="M21.2113 23.362H19.4316V25.1704H21.2113V23.362Z" fill="black"/>
<path d="M24.7708 23.362H22.991V25.1704H24.7708V23.362Z" fill="black"/>
<path d="M28.3303 23.362H26.5505V25.1704H28.3303V23.362Z" fill="black"/>
<path d="M31.8898 23.362H30.11V25.1704H31.8898V23.362Z" fill="black"/>
<path d="M33.6695 23.362H31.8898V25.1704H33.6695V23.362Z" fill="black"/>
<path d="M37.229 23.362H35.4492V25.1704H37.229V23.362Z" fill="black"/>
<path d="M40.7885 23.362H39.0087V25.1704H40.7885V23.362Z" fill="black"/>
<path d="M42.5682 23.362H40.7885V25.1704H42.5682V23.362Z" fill="black"/>
<path d="M46.1277 23.362H44.348V25.1704H46.1277V23.362Z" fill="black"/>
<path d="M49.6872 23.362H47.9075V25.1704H49.6872V23.362Z" fill="black"/>
<path d="M51.4669 23.362H49.6872V25.1704H51.4669V23.362Z" fill="black"/>
<path d="M55.0264 23.362H53.2467V25.1704H55.0264V23.362Z" fill="black"/>
<path d="M8.75309 25.1704H6.97335V26.9789H8.75309V25.1704Z" fill="black"/>
<path d="M10.5328 25.1704H8.75309V26.9789H10.5328V25.1704Z" fill="black"/>
<path d="M14.0923 25.1704H12.3126V26.9789H14.0923V25.1704Z" fill="black"/>
<path d="M15.8721 25.1704H14.0923V26.9789H15.8721V25.1704Z" fill="black"/>
<path d="M22.991 25.1704H21.2113V26.9789H22.991V25.1704Z" fill="black"/>
<path d="M26.5505 25.1704H24.7708V26.9789H26.5505V25.1704Z" fill="black"/>
<path d="M28.3303 25.1704H26.5505V26.9789H28.3303V25.1704Z" fill="black"/>
<path d="M30.11 25.1704H28.3303V26.9789H30.11V25.1704Z" fill="black"/>
<path d="M31.8898 25.1704H30.11V26.9789H31.8898V25.1704Z" fill="black"/>
<path d="M33.6695 25.1704H31.8898V26.9789H33.6695V25.1704Z" fill="black"/>
<path d="M39.0087 25.1704H37.229V26.9789H39.0087V25.1704Z" fill="black"/>
<path d="M40.7885 25.1704H39.0087V26.9789H40.7885V25.1704Z" fill="black"/>
<path d="M42.5682 25.1704H40.7885V26.9789H42.5682V25.1704Z" fill="black"/>
<path d="M44.348 25.1704H42.5682V26.9789H44.348V25.1704Z" fill="black"/>
<path d="M46.1277 25.1704H44.348V26.9789H46.1277V25.1704Z" fill="black"/>
<path d="M47.9075 25.1704H46.1277V26.9789H47.9075V25.1704Z" fill="black"/>
<path d="M49.6872 25.1704H47.9075V26.9789H49.6872V25.1704Z" fill="black"/>
<path d="M56.8062 25.1704H55.0264V26.9789H56.8062V25.1704Z" fill="black"/>
<path d="M10.5328 26.9789H8.75309V28.7873H10.5328V26.9789Z" fill="black"/>
<path d="M17.6518 26.9789H15.8721V28.7873H17.6518V26.9789Z" fill="black"/>
<path d="M19.4316 26.9789H17.6518V28.7873H19.4316V26.9789Z" fill="black"/>
<path d="M26.5505 26.9789H24.7708V28.7873H26.5505V26.9789Z" fill="black"/>
<path d="M30.11 26.9789H28.3303V28.7873H30.11V26.9789Z" fill="black"/>
<path d="M31.8898 26.9789H30.11V28.7873H31.8898V26.9789Z" fill="black"/>
<path d="M33.6695 26.9789H31.8898V28.7873H33.6695V26.9789Z" fill="black"/>
<path d="M35.4492 26.9789H33.6695V28.7873H35.4492V26.9789Z" fill="black"/>
<path d="M37.229 26.9789H35.4492V28.7873H37.229V26.9789Z" fill="black"/>
<path d="M40.7885 26.9789H39.0087V28.7873H40.7885V26.9789Z" fill="black"/>
<path d="M42.5682 26.9789H40.7885V28.7873H42.5682V26.9789Z" fill="black"/>
<path d="M44.348 26.9789H42.5682V28.7873H44.348V26.9789Z" fill="black"/>
<path d="M47.9075 26.9789H46.1277V28.7873H47.9075V26.9789Z" fill="black"/>
<path d="M49.6872 26.9789H47.9075V28.7873H49.6872V26.9789Z" fill="black"/>
<path d="M51.4669 26.9789H49.6872V28.7873H51.4669V26.9789Z" fill="black"/>
<path d="M53.2467 26.9789H51.4669V28.7873H53.2467V26.9789Z" fill="black"/>
<path d="M6.97335 28.7873H5.1936V30.5958H6.97335V28.7873Z" fill="black"/>
<path d="M8.75309 28.7873H6.97335V30.5958H8.75309V28.7873Z" fill="black"/>
<path d="M15.8721 28.7873H14.0923V30.5958H15.8721V28.7873Z" fill="black"/>
<path d="M21.2113 28.7873H19.4316V30.5958H21.2113V28.7873Z" fill="black"/>
<path d="M22.991 28.7873H21.2113V30.5958H22.991V28.7873Z" fill="black"/>
<path d="M24.7708 28.7873H22.991V30.5958H24.7708V28.7873Z" fill="black"/>
<path d="M31.8898 28.7873H30.11V30.5958H31.8898V28.7873Z" fill="black"/>
<path d="M39.0087 28.7873H37.229V30.5958H39.0087V28.7873Z" fill="black"/>
<path d="M40.7885 28.7873H39.0087V30.5958H40.7885V28.7873Z" fill="black"/>
<path d="M42.5682 28.7873H40.7885V30.5958H42.5682V28.7873Z" fill="black"/>
<path d="M47.9075 28.7873H46.1277V30.5958H47.9075V28.7873Z" fill="black"/>
<path d="M56.8062 28.7873H55.0264V30.5958H56.8062V28.7873Z" fill="black"/>
<path d="M6.97335 30.5958H5.1936V32.4042H6.97335V30.5958Z" fill="black"/>
<path d="M12.3126 30.5958H10.5328V32.4042H12.3126V30.5958Z" fill="black"/>
<path d="M14.0923 30.5958H12.3126V32.4042H14.0923V30.5958Z" fill="black"/>
<path d="M17.6518 30.5958H15.8721V32.4042H17.6518V30.5958Z" fill="black"/>
<path d="M22.991 30.5958H21.2113V32.4042H22.991V30.5958Z" fill="black"/>
<path d="M28.3303 30.5958H26.5505V32.4042H28.3303V30.5958Z" fill="black"/>
<path d="M30.11 30.5958H28.3303V32.4042H30.11V30.5958Z" fill="black"/>
<path d="M33.6695 30.5958H31.8898V32.4042H33.6695V30.5958Z" fill="black"/>
<path d="M35.4492 30.5958H33.6695V32.4042H35.4492V30.5958Z" fill="black"/>
<path d="M37.229 30.5958H35.4492V32.4042H37.229V30.5958Z" fill="black"/>
<path d="M39.0087 30.5958H37.229V32.4042H39.0087V30.5958Z" fill="black"/>
<path d="M40.7885 30.5958H39.0087V32.4042H40.7885V30.5958Z" fill="black"/>
<path d="M42.5682 30.5958H40.7885V32.4042H42.5682V30.5958Z" fill="black"/>
<path d="M46.1277 30.5958H44.348V32.4042H46.1277V30.5958Z" fill="black"/>
<path d="M47.9075 30.5958H46.1277V32.4042H47.9075V30.5958Z" fill="black"/>
<path d="M56.8062 30.5958H55.0264V32.4042H56.8062V30.5958Z" fill="black"/>
<path d="M6.97335 32.4042H5.1936V34.2127H6.97335V32.4042Z" fill="black"/>
<path d="M12.3126 32.4042H10.5328V34.2127H12.3126V32.4042Z" fill="black"/>
<path d="M15.8721 32.4042H14.0923V34.2127H15.8721V32.4042Z" fill="black"/>
<path d="M19.4316 32.4042H17.6518V34.2127H19.4316V32.4042Z" fill="black"/>
<path d="M21.2113 32.4042H19.4316V34.2127H21.2113V32.4042Z" fill="black"/>
<path d="M22.991 32.4042H21.2113V34.2127H22.991V32.4042Z" fill="black"/>
<path d="M28.3303 32.4042H26.5505V34.2127H28.3303V32.4042Z" fill="black"/>
<path d="M31.8898 32.4042H30.11V34.2127H31.8898V32.4042Z" fill="black"/>
<path d="M35.4492 32.4042H33.6695V34.2127H35.4492V32.4042Z" fill="black"/>
<path d="M39.0087 32.4042H37.229V34.2127H39.0087V32.4042Z" fill="black"/>
<path d="M44.348 32.4042H42.5682V34.2127H44.348V32.4042Z" fill="black"/>
<path d="M46.1277 32.4042H44.348V34.2127H46.1277V32.4042Z" fill="black"/>
<path d="M47.9075 32.4042H46.1277V34.2127H47.9075V32.4042Z" fill="black"/>
<path d="M55.0264 32.4042H53.2467V34.2127H55.0264V32.4042Z" fill="black"/>
<path d="M8.75309 34.2127H6.97335V36.0211H8.75309V34.2127Z" fill="black"/>
<path d="M10.5328 34.2127H8.75309V36.0211H10.5328V34.2127Z" fill="black"/>
<path d="M14.0923 34.2127H12.3126V36.0211H14.0923V34.2127Z" fill="black"/>
<path d="M15.8721 34.2127H14.0923V36.0211H15.8721V34.2127Z" fill="black"/>
<path d="M17.6518 34.2127H15.8721V36.0211H17.6518V34.2127Z" fill="black"/>
<path d="M19.4316 34.2127H17.6518V36.0211H19.4316V34.2127Z" fill="black"/>
<path d="M24.7708 34.2127H22.991V36.0211H24.7708V34.2127Z" fill="black"/>
<path d="M26.5505 34.2127H24.7708V36.0211H26.5505V34.2127Z" fill="black"/>
<path d="M30.11 34.2127H28.3303V36.0211H30.11V34.2127Z" fill="black"/>
<path d="M31.8898 34.2127H30.11V36.0211H31.8898V34.2127Z" fill="black"/>
<path d="M33.6695 34.2127H31.8898V36.0211H33.6695V34.2127Z" fill="black"/>
<path d="M35.4492 34.2127H33.6695V36.0211H35.4492V34.2127Z" fill="black"/>
<path d="M37.229 34.2127H35.4492V36.0211H37.229V34.2127Z" fill="black"/>
<path d="M39.0087 34.2127H37.229V36.0211H39.0087V34.2127Z" fill="black"/>
<path d="M42.5682 34.2127H40.7885V36.0211H42.5682V34.2127Z" fill="black"/>
<path d="M44.348 34.2127H42.5682V36.0211H44.348V34.2127Z" fill="black"/>
<path d="M49.6872 34.2127H47.9075V36.0211H49.6872V34.2127Z" fill="black"/>
<path d="M8.75309 36.0211H6.97335V37.8296H8.75309V36.0211Z" fill="black"/>
<path d="M12.3126 36.0211H10.5328V37.8296H12.3126V36.0211Z" fill="black"/>
<path d="M15.8721 36.0211H14.0923V37.8296H15.8721V36.0211Z" fill="black"/>
<path d="M19.4316 36.0211H17.6518V37.8296H19.4316V36.0211Z" fill="black"/>
<path d="M22.991 36.0211H21.2113V37.8296H22.991V36.0211Z" fill="black"/>
<path d="M26.5505 36.0211H24.7708V37.8296H26.5505V36.0211Z" fill="black"/>
<path d="M30.11 36.0211H28.3303V37.8296H30.11V36.0211Z" fill="black"/>
<path d="M35.4492 36.0211H33.6695V37.8296H35.4492V36.0211Z" fill="black"/>
<path d="M37.229 36.0211H35.4492V37.8296H37.229V36.0211Z" fill="black"/>
<path d="M39.0087 36.0211H37.229V37.8296H39.0087V36.0211Z" fill="black"/>
<path d="M46.1277 36.0211H44.348V37.8296H46.1277V36.0211Z" fill="black"/>
<path d="M53.2467 36.0211H51.4669V37.8296H53.2467V36.0211Z" fill="black"/>
<path d="M55.0264 36.0211H53.2467V37.8296H55.0264V36.0211Z" fill="black"/>
<path d="M56.8062 36.0211H55.0264V37.8296H56.8062V36.0211Z" fill="black"/>
<path d="M12.3126 37.8296H10.5328V39.638H12.3126V37.8296Z" fill="black"/>
<path d="M15.8721 37.8296H14.0923V39.638H15.8721V37.8296Z" fill="black"/>
<path d="M17.6518 37.8296H15.8721V39.638H17.6518V37.8296Z" fill="black"/>
<path d="M19.4316 37.8296H17.6518V39.638H19.4316V37.8296Z" fill="black"/>
<path d="M22.991 37.8296H21.2113V39.638H22.991V37.8296Z" fill="black"/>
<path d="M24.7708 37.8296H22.991V39.638H24.7708V37.8296Z" fill="black"/>
<path d="M37.229 37.8296H35.4492V39.638H37.229V37.8296Z" fill="black"/>
<path d="M42.5682 37.8296H40.7885V39.638H42.5682V37.8296Z" fill="black"/>
<path d="M44.348 37.8296H42.5682V39.638H44.348V37.8296Z" fill="black"/>
<path d="M47.9075 37.8296H46.1277V39.638H47.9075V37.8296Z" fill="black"/>
<path d="M49.6872 37.8296H47.9075V39.638H49.6872V37.8296Z" fill="black"/>
<path d="M51.4669 37.8296H49.6872V39.638H51.4669V37.8296Z" fill="black"/>
<path d="M53.2467 37.8296H51.4669V39.638H53.2467V37.8296Z" fill="black"/>
<path d="M55.0264 37.8296H53.2467V39.638H55.0264V37.8296Z" fill="black"/>
<path d="M56.8062 37.8296H55.0264V39.638H56.8062V37.8296Z" fill="black"/>
<path d="M6.97335 39.638H5.1936V41.4465H6.97335V39.638Z" fill="black"/>
<path d="M12.3126 39.638H10.5328V41.4465H12.3126V39.638Z" fill="black"/>
<path d="M14.0923 39.638H12.3126V41.4465H14.0923V39.638Z" fill="black"/>
<path d="M15.8721 39.638H14.0923V41.4465H15.8721V39.638Z" fill="black"/>
<path d="M22.991 39.638H21.2113V41.4465H22.991V39.638Z" fill="black"/>
<path d="M30.11 39.638H28.3303V41.4465H30.11V39.638Z" fill="black"/>
<path d="M31.8898 39.638H30.11V41.4465H31.8898V39.638Z" fill="black"/>
<path d="M33.6695 39.638H31.8898V41.4465H33.6695V39.638Z" fill="black"/>
<path d="M35.4492 39.638H33.6695V41.4465H35.4492V39.638Z" fill="black"/>
<path d="M46.1277 39.638H44.348V41.4465H46.1277V39.638Z" fill="black"/>
<path d="M51.4669 39.638H49.6872V41.4465H51.4669V39.638Z" fill="black"/>
<path d="M56.8062 39.638H55.0264V41.4465H56.8062V39.638Z" fill="black"/>
<path d="M6.97335 41.4465H5.1936V43.2549H6.97335V41.4465Z" fill="black"/>
<path d="M10.5328 41.4465H8.75309V43.2549H10.5328V41.4465Z" fill="black"/>
<path d="M17.6518 41.4465H15.8721V43.2549H17.6518V41.4465Z" fill="black"/>
<path d="M19.4316 41.4465H17.6518V43.2549H19.4316V41.4465Z" fill="black"/>
<path d="M22.991 41.4465H21.2113V43.2549H22.991V41.4465Z" fill="black"/>
<path d="M28.3303 41.4465H26.5505V43.2549H28.3303V41.4465Z" fill="black"/>
<path d="M31.8898 41.4465H30.11V43.2549H31.8898V41.4465Z" fill="black"/>
<path d="M33.6695 41.4465H31.8898V43.2549H33.6695V41.4465Z" fill="black"/>
<path d="M35.4492 41.4465H33.6695V43.2549H35.4492V41.4465Z" fill="black"/>
<path d="M39.0087 41.4465H37.229V43.2549H39.0087V41.4465Z" fill="black"/>
<path d="M42.5682 41.4465H40.7885V43.2549H42.5682V41.4465Z" fill="black"/>
<path d="M44.348 41.4465H42.5682V43.2549H44.348V41.4465Z" fill="black"/>
<path d="M46.1277 41.4465H44.348V43.2549H46.1277V41.4465Z" fill="black"/>
<path d="M47.9075 41.4465H46.1277V43.2549H47.9075V41.4465Z" fill="black"/>
<path d="M49.6872 41.4465H47.9075V43.2549H49.6872V41.4465Z" fill="black"/>
<path d="M53.2467 41.4465H51.4669V43.2549H53.2467V41.4465Z" fill="black"/>
<path d="M55.0264 41.4465H53.2467V43.2549H55.0264V41.4465Z" fill="black"/>
<path d="M56.8062 41.4465H55.0264V43.2549H56.8062V41.4465Z" fill="black"/>
<path d="M22.991 43.2549H21.2113V45.0634H22.991V43.2549Z" fill="black"/>
<path d="M24.7708 43.2549H22.991V45.0634H24.7708V43.2549Z" fill="black"/>
<path d="M26.5505 43.2549H24.7708V45.0634H26.5505V43.2549Z" fill="black"/>
<path d="M31.8898 43.2549H30.11V45.0634H31.8898V43.2549Z" fill="black"/>
<path d="M33.6695 43.2549H31.8898V45.0634H33.6695V43.2549Z" fill="black"/>
<path d="M42.5682 43.2549H40.7885V45.0634H42.5682V43.2549Z" fill="black"/>
<path d="M49.6872 43.2549H47.9075V45.0634H49.6872V43.2549Z" fill="black"/>
<path d="M51.4669 43.2549H49.6872V45.0634H51.4669V43.2549Z" fill="black"/>
<path d="M55.0264 43.2549H53.2467V45.0634H55.0264V43.2549Z" fill="black"/>
<path d="M56.8062 43.2549H55.0264V45.0634H56.8062V43.2549Z" fill="black"/>
<path d="M6.97335 45.0634H5.1936V46.8718H6.97335V45.0634Z" fill="black"/>
<path d="M8.75309 45.0634H6.97335V46.8718H8.75309V45.0634Z" fill="black"/>
<path d="M10.5328 45.0634H8.75309V46.8718H10.5328V45.0634Z" fill="black"/>
<path d="M12.3126 45.0634H10.5328V46.8718H12.3126V45.0634Z" fill="black"/>
<path d="M14.0923 45.0634H12.3126V46.8718H14.0923V45.0634Z" fill="black"/>
<path d="M15.8721 45.0634H14.0923V46.8718H15.8721V45.0634Z" fill="black"/>
<path d="M17.6518 45.0634H15.8721V46.8718H17.6518V45.0634Z" fill="black"/>
<path d="M21.2113 45.0634H19.4316V46.8718H21.2113V45.0634Z" fill="black"/>
<path d="M22.991 45.0634H21.2113V46.8718H22.991V45.0634Z" fill="black"/>
<path d="M26.5505 45.0634H24.7708V46.8718H26.5505V45.0634Z" fill="black"/>
<path d="M30.11 45.0634H28.3303V46.8718H30.11V45.0634Z" fill="black"/>
<path d="M39.0087 45.0634H37.229V46.8718H39.0087V45.0634Z" fill="black"/>
<path d="M40.7885 45.0634H39.0087V46.8718H40.7885V45.0634Z" fill="black"/>
<path d="M42.5682 45.0634H40.7885V46.8718H42.5682V45.0634Z" fill="black"/>
<path d="M46.1277 45.0634H44.348V46.8718H46.1277V45.0634Z" fill="black"/>
<path d="M49.6872 45.0634H47.9075V46.8718H49.6872V45.0634Z" fill="black"/>
<path d="M56.8062 45.0634H55.0264V46.8718H56.8062V45.0634Z" fill="black"/>
<path d="M6.97335 46.8718H5.1936V48.6803H6.97335V46.8718Z" fill="black"/>
<path d="M17.6518 46.8718H15.8721V48.6803H17.6518V46.8718Z" fill="black"/>
<path d="M22.991 46.8718H21.2113V48.6803H22.991V46.8718Z" fill="black"/>
<path d="M24.7708 46.8718H22.991V48.6803H24.7708V46.8718Z" fill="black"/>
<path d="M26.5505 46.8718H24.7708V48.6803H26.5505V46.8718Z" fill="black"/>
<path d="M28.3303 46.8718H26.5505V48.6803H28.3303V46.8718Z" fill="black"/>
<path d="M35.4492 46.8718H33.6695V48.6803H35.4492V46.8718Z" fill="black"/>
<path d="M37.229 46.8718H35.4492V48.6803H37.229V46.8718Z" fill="black"/>
<path d="M39.0087 46.8718H37.229V48.6803H39.0087V46.8718Z" fill="black"/>
<path d="M42.5682 46.8718H40.7885V48.6803H42.5682V46.8718Z" fill="black"/>
<path d="M49.6872 46.8718H47.9075V48.6803H49.6872V46.8718Z" fill="black"/>
<path d="M53.2467 46.8718H51.4669V48.6803H53.2467V46.8718Z" fill="black"/>
<path d="M56.8062 46.8718H55.0264V48.6803H56.8062V46.8718Z" fill="black"/>
<path d="M6.97335 48.6803H5.1936V50.4887H6.97335V48.6803Z" fill="black"/>
<path d="M10.5328 48.6803H8.75309V50.4887H10.5328V48.6803Z" fill="black"/>
<path d="M12.3126 48.6803H10.5328V50.4887H12.3126V48.6803Z" fill="black"/>
<path d="M14.0923 48.6803H12.3126V50.4887H14.0923V48.6803Z" fill="black"/>
<path d="M17.6518 48.6803H15.8721V50.4887H17.6518V48.6803Z" fill="black"/>
<path d="M22.991 48.6803H21.2113V50.4887H22.991V48.6803Z" fill="black"/>
<path d="M31.8898 48.6803H30.11V50.4887H31.8898V48.6803Z" fill="black"/>
<path d="M33.6695 48.6803H31.8898V50.4887H33.6695V48.6803Z" fill="black"/>
<path d="M35.4492 48.6803H33.6695V50.4887H35.4492V48.6803Z" fill="black"/>
<path d="M39.0087 48.6803H37.229V50.4887H39.0087V48.6803Z" fill="black"/>
<path d="M42.5682 48.6803H40.7885V50.4887H42.5682V48.6803Z" fill="black"/>
<path d="M44.348 48.6803H42.5682V50.4887H44.348V48.6803Z" fill="black"/>
<path d="M46.1277 48.6803H44.348V50.4887H46.1277V48.6803Z" fill="black"/>
<path d="M47.9075 48.6803H46.1277V50.4887H47.9075V48.6803Z" fill="black"/>
<path d="M49.6872 48.6803H47.9075V50.4887H49.6872V48.6803Z" fill="black"/>
<path d="M51.4669 48.6803H49.6872V50.4887H51.4669V48.6803Z" fill="black"/>
<path d="M55.0264 48.6803H53.2467V50.4887H55.0264V48.6803Z" fill="black"/>
<path d="M56.8062 48.6803H55.0264V50.4887H56.8062V48.6803Z" fill="black"/>
<path d="M6.97335 50.4887H5.1936V52.2972H6.97335V50.4887Z" fill="black"/>
<path d="M10.5328 50.4887H8.75309V52.2972H10.5328V50.4887Z" fill="black"/>
<path d="M12.3126 50.4887H10.5328V52.2972H12.3126V50.4887Z" fill="black"/>
<path d="M14.0923 50.4887H12.3126V52.2972H14.0923V50.4887Z" fill="black"/>
<path d="M17.6518 50.4887H15.8721V52.2972H17.6518V50.4887Z" fill="black"/>
<path d="M21.2113 50.4887H19.4316V52.2972H21.2113V50.4887Z" fill="black"/>
<path d="M28.3303 50.4887H26.5505V52.2972H28.3303V50.4887Z" fill="black"/>
<path d="M35.4492 50.4887H33.6695V52.2972H35.4492V50.4887Z" fill="black"/>
<path d="M37.229 50.4887H35.4492V52.2972H37.229V50.4887Z" fill="black"/>
<path d="M42.5682 50.4887H40.7885V52.2972H42.5682V50.4887Z" fill="black"/>
<path d="M44.348 50.4887H42.5682V52.2972H44.348V50.4887Z" fill="black"/>
<path d="M46.1277 50.4887H44.348V52.2972H46.1277V50.4887Z" fill="black"/>
<path d="M47.9075 50.4887H46.1277V52.2972H47.9075V50.4887Z" fill="black"/>
<path d="M51.4669 50.4887H49.6872V52.2972H51.4669V50.4887Z" fill="black"/>
<path d="M55.0264 50.4887H53.2467V52.2972H55.0264V50.4887Z" fill="black"/>
<path d="M6.97335 52.2972H5.1936V54.1056H6.97335V52.2972Z" fill="black"/>
<path d="M10.5328 52.2972H8.75309V54.1056H10.5328V52.2972Z" fill="black"/>
<path d="M12.3126 52.2972H10.5328V54.1056H12.3126V52.2972Z" fill="black"/>
<path d="M14.0923 52.2972H12.3126V54.1056H14.0923V52.2972Z" fill="black"/>
<path d="M17.6518 52.2972H15.8721V54.1056H17.6518V52.2972Z" fill="black"/>
<path d="M24.7708 52.2972H22.991V54.1056H24.7708V52.2972Z" fill="black"/>
<path d="M28.3303 52.2972H26.5505V54.1056H28.3303V52.2972Z" fill="black"/>
<path d="M30.11 52.2972H28.3303V54.1056H30.11V52.2972Z" fill="black"/>
<path d="M31.8898 52.2972H30.11V54.1056H31.8898V52.2972Z" fill="black"/>
<path d="M37.229 52.2972H35.4492V54.1056H37.229V52.2972Z" fill="black"/>
<path d="M39.0087 52.2972H37.229V54.1056H39.0087V52.2972Z" fill="black"/>
<path d="M40.7885 52.2972H39.0087V54.1056H40.7885V52.2972Z" fill="black"/>
<path d="M42.5682 52.2972H40.7885V54.1056H42.5682V52.2972Z" fill="black"/>
<path d="M44.348 52.2972H42.5682V54.1056H44.348V52.2972Z" fill="black"/>
<path d="M49.6872 52.2972H47.9075V54.1056H49.6872V52.2972Z" fill="black"/>
<path d="M53.2467 52.2972H51.4669V54.1056H53.2467V52.2972Z" fill="black"/>
<path d="M6.97335 54.1056H5.1936V55.9141H6.97335V54.1056Z" fill="black"/>
<path d="M17.6518 54.1056H15.8721V55.9141H17.6518V54.1056Z" fill="black"/>
<path d="M21.2113 54.1056H19.4316V55.9141H21.2113V54.1056Z" fill="black"/>
<path d="M24.7708 54.1056H22.991V55.9141H24.7708V54.1056Z" fill="black"/>
<path d="M30.11 54.1056H28.3303V55.9141H30.11V54.1056Z" fill="black"/>
<path d="M31.8898 54.1056H30.11V55.9141H31.8898V54.1056Z" fill="black"/>
<path d="M33.6695 54.1056H31.8898V55.9141H33.6695V54.1056Z" fill="black"/>
<path d="M35.4492 54.1056H33.6695V55.9141H35.4492V54.1056Z" fill="black"/>
<path d="M37.229 54.1056H35.4492V55.9141H37.229V54.1056Z" fill="black"/>
<path d="M44.348 54.1056H42.5682V55.9141H44.348V54.1056Z" fill="black"/>
<path d="M46.1277 54.1056H44.348V55.9141H46.1277V54.1056Z" fill="black"/>
<path d="M49.6872 54.1056H47.9075V55.9141H49.6872V54.1056Z" fill="black"/>
<path d="M51.4669 54.1056H49.6872V55.9141H51.4669V54.1056Z" fill="black"/>
<path d="M55.0264 54.1056H53.2467V55.9141H55.0264V54.1056Z" fill="black"/>
<path d="M56.8062 54.1056H55.0264V55.9141H56.8062V54.1056Z" fill="black"/>
<path d="M6.97335 55.9141H5.1936V57.7225H6.97335V55.9141Z" fill="black"/>
<path d="M8.75309 55.9141H6.97335V57.7225H8.75309V55.9141Z" fill="black"/>
<path d="M10.5328 55.9141H8.75309V57.7225H10.5328V55.9141Z" fill="black"/>
<path d="M12.3126 55.9141H10.5328V57.7225H12.3126V55.9141Z" fill="black"/>
<path d="M14.0923 55.9141H12.3126V57.7225H14.0923V55.9141Z" fill="black"/>
<path d="M15.8721 55.9141H14.0923V57.7225H15.8721V55.9141Z" fill="black"/>
<path d="M17.6518 55.9141H15.8721V57.7225H17.6518V55.9141Z" fill="black"/>
<path d="M21.2113 55.9141H19.4316V57.7225H21.2113V55.9141Z" fill="black"/>
<path d="M22.991 55.9141H21.2113V57.7225H22.991V55.9141Z" fill="black"/>
<path d="M26.5505 55.9141H24.7708V57.7225H26.5505V55.9141Z" fill="black"/>
<path d="M30.11 55.9141H28.3303V57.7225H30.11V55.9141Z" fill="black"/>
<path d="M31.8898 55.9141H30.11V57.7225H31.8898V55.9141Z" fill="black"/>
<path d="M44.348 55.9141H42.5682V57.7225H44.348V55.9141Z" fill="black"/>
<path d="M47.9075 55.9141H46.1277V57.7225H47.9075V55.9141Z" fill="black"/>
<path d="M49.6872 55.9141H47.9075V57.7225H49.6872V55.9141Z" fill="black"/>
<path d="M53.2467 55.9141H51.4669V57.7225H53.2467V55.9141Z" fill="black"/>
</g>
<rect x="0.209424" y="0.209424" width="61.5812" height="62.5812" rx="1.46597" stroke="#F2F2F2" stroke-width="0.418848"/>
<defs>
<clipPath id="clip0_1503_2677">
<rect width="62" height="63" rx="1.67539" fill="white"/>
</clipPath>
</defs>
</svg>
