<svg width="29" height="26" viewBox="0 0 29 26" fill="none" xmlns="http://www.w3.org/2000/svg">
<path d="M23.8327 25V17M19.8327 21H27.8327M14.4993 17H9.16602C6.68099 17 5.43848 17 4.45837 17.406C3.15155 17.9473 2.11329 18.9855 1.57199 20.2924C1.16602 21.2725 1.16602 22.515 1.16602 25M19.166 1.38768C21.1206 2.17886 22.4993 4.09508 22.4993 6.33333C22.4993 8.57159 21.1206 10.4878 19.166 11.279M16.4993 6.33333C16.4993 9.27885 14.1115 11.6667 11.166 11.6667C8.2205 11.6667 5.83268 9.27885 5.83268 6.33333C5.83268 3.38781 8.2205 1 11.166 1C14.1115 1 16.4993 3.38781 16.4993 6.33333Z" stroke="#FF6900" stroke-width="2" stroke-linecap="round" stroke-linejoin="round"/>
</svg>
