<svg width="29" height="30" viewBox="0 0 29 30" fill="none" xmlns="http://www.w3.org/2000/svg">
<path d="M9.83268 18.5554C9.83268 20.2736 11.2256 21.6665 12.9438 21.6665H15.8327C17.6736 21.6665 19.166 20.1741 19.166 18.3332C19.166 16.4922 17.6736 14.9998 15.8327 14.9998H13.166C11.3251 14.9998 9.83268 13.5075 9.83268 11.6665C9.83268 9.82556 11.3251 8.33317 13.166 8.33317H16.0549C17.7731 8.33317 19.166 9.72606 19.166 11.4443M14.4993 6.33317V8.33317M14.4993 21.6665V23.6665M27.8327 14.9998C27.8327 22.3636 21.8631 28.3332 14.4993 28.3332C7.13555 28.3332 1.16602 22.3636 1.16602 14.9998C1.16602 7.63604 7.13555 1.6665 14.4993 1.6665C21.8631 1.6665 27.8327 7.63604 27.8327 14.9998Z" stroke="#FF6900" stroke-width="2" stroke-linecap="round" stroke-linejoin="round"/>
</svg>
