<svg width="68" height="69" viewBox="0 0 68 69" fill="none" xmlns="http://www.w3.org/2000/svg">
<path d="M18.4167 18.9167H18.445M49.5833 18.9167H49.6117M18.4167 50.0833H18.445M36.8333 37.3333H36.8617M49.5833 50.0833H49.6117M48.1667 60H59.5V48.6667M39.6667 47.25V60M59.5 40.1667H46.75M44.2 28.8333H54.9667C56.5535 28.8333 57.3469 28.8333 57.953 28.5245C58.4861 28.2529 58.9195 27.8194 59.1912 27.2863C59.5 26.6802 59.5 25.8868 59.5 24.3V13.5333C59.5 11.9465 59.5 11.1531 59.1912 10.547C58.9195 10.0139 58.4861 9.58046 57.953 9.30881C57.3469 9 56.5535 9 54.9667 9H44.2C42.6132 9 41.8198 9 41.2137 9.30881C40.6806 9.58046 40.2471 10.0139 39.9755 10.547C39.6667 11.1531 39.6667 11.9465 39.6667 13.5333V24.3C39.6667 25.8868 39.6667 26.6802 39.9755 27.2863C40.2471 27.8194 40.6806 28.2529 41.2137 28.5245C41.8198 28.8333 42.6132 28.8333 44.2 28.8333ZM13.0333 28.8333H23.8C25.3868 28.8333 26.1802 28.8333 26.7863 28.5245C27.3194 28.2529 27.7529 27.8194 28.0245 27.2863C28.3333 26.6802 28.3333 25.8868 28.3333 24.3V13.5333C28.3333 11.9465 28.3333 11.1531 28.0245 10.547C27.7529 10.0139 27.3194 9.58046 26.7863 9.30881C26.1802 9 25.3868 9 23.8 9H13.0333C11.4465 9 10.6531 9 10.047 9.30881C9.5139 9.58046 9.08046 10.0139 8.80881 10.547C8.5 11.1531 8.5 11.9465 8.5 13.5333V24.3C8.5 25.8868 8.5 26.6802 8.80881 27.2863C9.08046 27.8194 9.5139 28.2529 10.047 28.5245C10.6531 28.8333 11.4465 28.8333 13.0333 28.8333ZM13.0333 60H23.8C25.3868 60 26.1802 60 26.7863 59.6912C27.3194 59.4195 27.7529 58.9861 28.0245 58.453C28.3333 57.8469 28.3333 57.0535 28.3333 55.4667V44.7C28.3333 43.1132 28.3333 42.3198 28.0245 41.7137C27.7529 41.1806 27.3194 40.7471 26.7863 40.4755C26.1802 40.1667 25.3868 40.1667 23.8 40.1667H13.0333C11.4465 40.1667 10.6531 40.1667 10.047 40.4755C9.5139 40.7471 9.08046 41.1806 8.80881 41.7137C8.5 42.3198 8.5 43.1132 8.5 44.7V55.4667C8.5 57.0535 8.5 57.8469 8.80881 58.453C9.08046 58.9861 9.5139 59.4195 10.047 59.6912C10.6531 60 11.4465 60 13.0333 60Z" stroke="#030F1A" stroke-width="2" stroke-linecap="round" stroke-linejoin="round"/>
</svg>
