<svg width="10" height="10" viewBox="0 0 10 10" fill="none" xmlns="http://www.w3.org/2000/svg">
<path d="M9.11189 1.634L5.36089 0.071999C5.24661 0.0246024 5.12411 0.000205994 5.00039 0.000205994C4.87667 0.000205994 4.75417 0.0246024 4.63989 0.071999L0.88689 1.634C0.715862 1.70494 0.569685 1.82496 0.466814 1.97891C0.363942 2.13286 0.308989 2.31384 0.30889 2.499C0.239951 4.02253 0.611742 5.53363 1.37971 6.85124C2.14769 8.16886 3.27927 9.23711 4.63889 9.928C4.75317 9.9754 4.87567 9.99979 4.99939 9.99979C5.12311 9.99979 5.24561 9.9754 5.35989 9.928C6.72234 9.24057 7.85624 8.17282 8.62423 6.85409C9.39221 5.53536 9.76134 4.02224 9.68689 2.498C9.68671 2.31338 9.63206 2.13292 9.52977 1.97923C9.42749 1.82554 9.28212 1.70544 9.11189 1.634ZM5.00189 8.717V1.275L8.43589 2.707C8.46559 3.92661 8.16138 5.13114 7.55614 6.19039C6.95091 7.24964 6.06767 8.12332 5.00189 8.717Z" fill="white"/>
</svg>
