<svg width="50" height="50" viewBox="0 0 50 50" fill="none" xmlns="http://www.w3.org/2000/svg">
<circle cx="25" cy="25" r="25" fill="#F2F2F2"/>
<path d="M32 22C32 25.866 28.866 29 25 29M32 22C32 18.134 28.866 15 25 15M32 22H18M25 29C21.134 29 18 25.866 18 22M25 29C26.7509 27.0832 27.7468 24.5956 27.8009 22C27.7468 19.4044 26.7509 16.9168 25 15M25 29C23.2491 27.0832 22.255 24.5956 22.2009 22C22.255 19.4044 23.2491 16.9168 25 15M25 29V31M18 22C18 18.134 21.134 15 25 15M27 33C27 34.1046 26.1046 35 25 35C23.8954 35 23 34.1046 23 33M27 33C27 31.8954 26.1046 31 25 31M27 33H34M23 33C23 31.8954 23.8954 31 25 31M23 33H16" stroke="#01C7B1" stroke-width="2" stroke-linecap="round" stroke-linejoin="round"/>
</svg>
