<svg width="107" height="82" viewBox="0 0 107 82" fill="none" xmlns="http://www.w3.org/2000/svg">
<g opacity="0.4">
<path d="M5.18186 45.4379C3.98468 44.1562 4.90328 41.9284 6.39324 41.0027C8.47903 39.7069 11.2435 39.9855 13.2677 38.4568C14.0719 37.8492 14.6551 36.9456 14.6693 35.9378C14.7001 33.7881 12.3381 32.6469 10.3494 31.9738C8.56899 31.3708 6.78782 30.7687 5.00745 30.1658C3.88445 29.7854 2.72674 29.3861 1.8476 28.5898C1.83892 28.5819 1.83024 28.574 1.82156 28.5661C0.487066 27.3334 1.06158 25.1008 2.78198 24.5169C6.55186 23.2368 11.2482 23.8808 14.6133 22.3435C16.3203 21.5638 16.3834 19.1457 14.6969 18.3226C13.4919 17.7347 12.3199 17.1357 12.2939 15.6899C12.2694 14.3586 13.2859 13.2309 14.5864 12.9436L26.5093 10.3078C28.0355 9.97001 28.5667 9.29211 28.4285 8.57633C28.2936 7.88186 27.6449 7.74927 27.0933 7.56697C26.7523 7.45412 26.4256 7.30339 26.1186 7.12031C23.7993 5.73609 24.3477 2.27715 26.952 1.56058C28.2131 1.21334 29.6139 1.11706 30.9097 1.0776C42.5406 0.723266 54.1706 0.368926 65.8015 0.0145874C68.0845 -0.0548599 70.7543 0.0548361 72.0872 1.90939C72.2821 2.18087 72.4439 2.51311 72.3745 2.83983C72.2072 3.63374 70.9784 4.13013 70.235 4.45448C68.8342 5.06688 69.0702 6.75018 70.2224 7.75638C71.3746 8.76258 73.0192 8.90068 74.5408 9.05062C79.8685 9.57542 85.1244 10.8184 90.1222 12.7361C90.6612 12.9428 91.1686 13.2561 91.5293 13.7068C92.6744 15.1399 91.5727 16.6685 90.3432 17.5003C88.899 18.4773 87.0744 19.0471 86.8219 21.2812C86.6475 22.8186 87.3554 24.3069 88.506 25.3415C90.6399 27.26 93.5504 27.5915 96.1965 28.4746C98.5316 29.2543 100.938 30.7892 101.405 33.2065C101.94 35.9686 99.7115 38.5002 97.3589 40.0438C95.0064 41.5875 92.2538 42.7602 90.6865 45.0969C90.3266 45.6336 90.0338 46.2468 90.0425 46.8931C90.0622 48.2528 91.3486 49.2172 92.5521 49.8517C94.2275 50.7356 96.0071 51.4229 97.8419 51.8949C99.5402 52.3321 101.373 52.6248 102.599 53.9633C103.293 54.7201 103.623 55.795 103.291 56.7664C102.894 57.9305 101.832 58.2232 100.835 58.4434C90.3582 60.7557 79.3026 59.3273 68.884 59.9089C63.591 60.2041 58.2814 60.1851 53.0153 59.579C40.922 58.1877 28.2936 59.2113 16.1885 56.6512C15.2446 56.4516 14.3426 56.0593 13.5787 55.469C8.99988 51.932 16.3431 50.5336 15.9036 48.7571C15.1744 45.8222 7.10192 47.4929 5.18186 45.4379Z" fill="#B4F1FE"/>
<path d="M22.4875 46.4693C19.4807 35.8825 22.2783 22.0514 29.9104 14.4746C43.5087 0.974985 72.278 4.36054 80.4128 22.4176C83.8102 29.9582 84.1227 39.2823 82.1324 47.2687C80.0522 55.6182 74.539 62.8233 66.6291 64.8657C59.5739 66.6863 50.0722 67.8764 43.0273 65.7961C34.8601 63.3852 25.031 55.4248 22.4875 46.4693Z" fill="#FFBC00"/>
<path d="M68.4072 14.8079C68.6526 14.9767 68.876 15.133 69.0733 15.2695C72.3073 17.5076 75.1326 20.3802 77.0597 23.8265C79.4848 28.1654 80.36 33.1806 80.2188 38.109C80.0799 42.9632 79.4967 48.2507 76.3747 52.1871C76.2469 52.3481 76.1032 52.5146 75.9044 52.5682C75.3346 52.7221 75.0244 51.918 75.0189 51.3277C74.9921 48.4535 75.786 45.644 76.2421 42.8054C77.0889 37.5368 76.7393 31.9992 74.6559 27.0866C73.2322 23.7295 70.9641 20.6975 68.0513 18.4902C66.6079 17.3964 65.0501 16.5717 63.3557 15.9498C61.704 15.3429 59.7042 14.9878 58.3421 13.8056C57.3035 12.9044 57.545 11.8366 58.6538 11.2818C61.2131 10.0002 65.9197 13.0914 68.4072 14.8079Z" fill="white"/>
<path d="M95.0175 56.2338C95.128 56.244 95.2393 56.255 95.3498 56.2653C99.1496 56.6283 104.9 57.8176 105.278 63.0262C105.445 65.3306 104.127 67.5339 102.381 68.8463C100.636 70.1587 98.5159 70.7261 96.4294 71.1412C94.6577 71.4932 92.3848 72.3495 92.4543 74.3106C92.4953 75.4833 93.4447 76.3814 93.7296 77.5138C95.5186 84.6495 78.86 84.7711 75.2085 84.8887C60.2473 85.3685 45.504 80.4456 31.9184 74.0036C28.5975 72.4284 25.2419 70.7056 22.6629 67.9348C17.6367 62.5353 17.5341 56.4894 24.8655 55.5835C48.0869 52.7125 71.7953 54.0225 95.0175 56.2338Z" fill="#76B6FF"/>
<path d="M40.2599 11.1611C39.784 11.3986 39.2655 11.7648 39.2592 12.2975C39.2537 12.7931 39.7059 13.1687 40.1518 13.385C41.1067 13.8482 42.1989 13.9413 43.2595 13.9248C46.0453 13.8814 48.7964 13.1395 51.5814 13.22C52.0138 13.2326 52.4542 13.2642 52.8732 13.1561C53.2923 13.048 53.6956 12.7678 53.8195 12.3527C53.9765 11.8248 53.6419 11.2755 53.2497 10.8888C51.6563 9.31993 49.3606 9.60244 47.3119 9.66163C44.8986 9.73345 42.4427 10.072 40.2599 11.1611Z" fill="white"/>
<path d="M95.836 58.1369C96.4982 58.1827 97.1753 58.2395 97.7782 58.5165C97.7845 58.5197 97.79 58.5221 97.7964 58.5252C98.5721 58.8898 98.3361 60.0649 97.4838 60.1541L88.874 61.0529C88.6404 61.0774 88.3862 61.1113 88.2213 61.2794C87.9325 61.5746 88.1203 62.1128 88.4754 62.3235C88.8306 62.5342 89.2701 62.5145 89.6829 62.4963C93.6295 62.3196 101.384 62.8704 101.384 63.98C101.306 64.5561 100.567 64.7281 99.9871 64.7636C97.8121 64.8938 95.6372 65.0248 93.4614 65.1551C93.0692 65.1787 92.5326 65.4021 92.6644 65.7714C92.7022 65.8772 92.7922 65.9545 92.8869 66.0153C93.6232 66.4824 95.1905 66.241 95.1803 67.0601C95.2071 67.4247 94.425 67.4808 93.9839 67.5068L86.0053 67.9764C85.6068 68 85.5192 68.5548 85.894 68.6929C86.1797 68.7987 86.5033 68.8729 86.7905 68.9754C87.3153 69.1633 87.3366 69.9351 86.8103 70.1197C86.3281 70.2886 85.7772 70.3218 85.2588 70.3383C82.1644 70.4378 79.0669 70.4441 75.9725 70.3581C75.0697 70.3328 74.0951 70.2736 73.3998 69.6975C73.1086 69.4569 72.8774 69.0496 73.0439 68.7111C73.2128 68.3686 73.6666 68.3086 74.0478 68.2936C74.9569 68.2573 75.866 68.2202 76.7751 68.1839C76.9851 68.1752 77.2076 68.1626 77.3796 68.0426C77.8524 67.7128 77.5272 66.9228 77.0237 66.6427C76.4516 66.3238 75.7105 66.2883 75.039 66.1841C74.2482 66.0618 74.2364 64.9215 75.02 64.7597C76.701 64.4124 78.5981 64.6973 80.2412 64.0976C80.5253 63.9942 80.8307 63.83 80.9096 63.538C81.0406 63.0535 80.4677 62.6739 79.9729 62.5887C79.3881 62.4876 78.7852 62.5461 78.1972 62.4624C77.6093 62.3788 75.8715 62.0804 76.7412 61.569C77.7292 61.0024 78.9367 61.0624 80.0747 61.015C80.7368 60.9874 81.4407 60.8927 82.0444 60.6355C82.7618 60.3293 82.664 59.3128 81.9016 59.1495C81.2071 59.0003 80.3935 58.9964 79.6777 58.8732C79.3273 58.8133 79.2887 58.3129 79.6312 58.2182C81.8803 57.5932 84.6732 58.0367 86.9397 57.9673C89.9062 57.8773 92.8766 57.9333 95.836 58.1369Z" fill="#A1CDFF"/>
<path d="M94.3871 35.036C95.559 34.7787 97.1216 34.7266 98.3117 34.7282C97.1681 34.1419 95.8857 34.1924 94.6483 34.2531C93.901 34.2894 93.1481 34.3273 92.422 34.5459C91.5879 34.7969 90.8129 35.2783 90.0458 35.7557C89.3451 34.9476 88.4509 34.407 87.5095 34.1876C87.0809 34.0882 86.6919 34.0464 86.0834 34.1095C85.7093 34.1482 84.79 34.4694 84.494 34.7464C87.7967 34.265 88.5701 35.5987 89.2393 36.9253C89.0436 37.2575 88.8487 37.589 88.653 37.9212C90.3812 36.2687 92.2342 35.5095 94.3871 35.036Z" fill="#944625"/>
<path d="M102.797 39.6704C103.783 39.4541 105.097 39.4099 106.098 39.4115C105.137 38.9183 104.057 38.9609 103.017 39.0122C102.388 39.043 101.755 39.0745 101.144 39.2584C100.442 39.4691 99.7904 39.8748 99.1448 40.2764C98.5553 39.597 97.8032 39.1416 97.0117 38.9569C96.651 38.8733 96.3243 38.8378 95.8121 38.8914C95.4973 38.9238 94.7239 39.1937 94.4745 39.4273C97.2524 39.0224 97.9027 40.1446 98.4661 41.2605C98.302 41.5399 98.1371 41.8193 97.9729 42.0986C99.4274 40.7073 100.986 40.0689 102.797 39.6704Z" fill="#944625"/>
<path d="M90.9792 46.9517C91.6176 46.8112 92.4684 46.7828 93.1171 46.7844C92.4944 46.4648 91.796 46.4924 91.122 46.5255C90.7148 46.5453 90.3052 46.5658 89.9098 46.6849C89.4553 46.8215 89.0331 47.0843 88.6156 47.3439C88.2336 46.9035 87.7467 46.6092 87.2346 46.49C87.001 46.4356 86.7895 46.4127 86.458 46.4474C86.2544 46.4687 85.7533 46.6431 85.5923 46.7946C87.3908 46.5326 87.8122 47.2587 88.1768 47.9816C88.0703 48.1623 87.9638 48.343 87.858 48.5237C88.7971 47.6233 89.8065 47.2098 90.9792 46.9517Z" fill="#944625"/>
<path d="M19.5416 51.9462C33.3608 53.7455 57.1441 59.1577 78.9388 75.417C83.5641 78.8673 82.5287 85.7402 77.0526 88.088C65.5599 93.014 51.597 92.0686 39.4501 91.618C25.6419 91.1058 -23.8866 81.1236 -4.59844 60.2373C1.36298 53.7826 10.5695 50.7774 19.5416 51.9462Z" fill="#FFAC00"/>
<path d="M26.1896 37.7459C25.065 48.9995 24.4644 51.5059 23.8457 59.224C23.8363 59.3669 23.8268 59.5002 23.8079 59.6431C23.665 61.5773 23.4938 63.7026 21.9785 64.8556C21.3977 65.3038 20.7017 65.6179 19.9867 65.7607C14.6503 66.8088 8.88537 67.2381 3.6634 65.7797C1.26195 65.1033 -0.405576 63.7215 -0.624966 61.234C-1.14898 55.402 -1.7306 49.5708 -2.37851 43.7483C-2.60737 41.6712 -2.84571 39.6028 -3.09351 37.5352C-0.606819 38.4782 2.04244 38.9454 4.70116 39.1261C11.8866 39.6138 19.072 39.804 26.1896 37.7459Z" fill="#FF494F"/>
<path d="M-5.40102 36.2362C-5.38918 36.4406 -5.37261 36.66 -5.24556 36.821C-5.12876 36.9701 -4.94094 37.0404 -4.76258 37.1027C-0.629679 38.5516 3.45982 39.647 7.83895 40.0077C12.5116 40.3928 17.238 40.1221 21.8373 39.2074C23.942 38.7892 25.8842 38.251 27.7845 37.2337C28.0197 37.1082 28.1862 36.8715 28.2186 36.6071C28.2999 35.9411 28.3133 35.3721 28.3164 34.6957C28.318 34.4764 28.0994 34.324 27.8926 34.3951C26.1059 35.0035 24.4179 35.4241 22.5168 35.6475C20.7238 35.8574 18.915 35.8921 17.1094 35.9269C10.5663 36.0515 3.95068 36.1747 -2.50397 34.9214C-3.21028 34.7841 -4.26619 34.3059 -4.97487 34.4061C-5.79876 34.5213 -5.43732 35.6009 -5.40102 36.2362Z" fill="#F0353A"/>
<path d="M-2.50475 34.9203C3.9499 36.1735 10.5655 36.0504 17.1086 35.9257C18.9142 35.891 20.7222 35.8571 22.516 35.6463C24.4171 35.4238 26.1052 35.0032 27.8919 34.3939C27.9108 34.3876 27.9289 34.3916 27.9479 34.3892C27.6946 33.8644 27.2676 33.5527 27.0119 33.443C23.1923 31.7983 18.627 32.1148 14.5911 32.0517C10.2617 31.9846 5.92678 32.1282 1.61316 32.5473C0.886331 32.6175 -1.41885 32.6483 -3.08164 33.1944C-3.87555 33.4556 -4.51478 33.8383 -4.77441 34.3955C-4.07678 34.3931 -3.14714 34.7956 -2.50475 34.9203Z" fill="#F0353A"/>
<path d="M-4.47596 36.1768C-4.49727 36.2968 -4.50279 36.4215 -4.49806 36.5422C-4.39704 39.0944 -2.1329 41.1912 -0.529303 42.959C1.50992 45.2073 3.77643 47.6388 6.38386 49.2258C8.9613 50.7947 11.9902 51.5563 14.9969 51.5776C16.7331 51.5902 18.4708 51.3621 20.1455 50.9076C21.5991 50.513 23.6699 49.9779 24.8347 48.9922C25.1662 48.7113 26.1535 47.4762 25.2214 47.305C24.9381 47.2529 24.6595 47.3941 24.4023 47.5252C17.7093 50.9407 8.61328 50.5966 3.56257 44.5026C1.32052 41.7965 0.0688906 38.28 -2.60088 35.9945C-3.05387 35.6063 -3.74834 35.2606 -4.20133 35.6481C-4.3568 35.7807 -4.43966 35.9716 -4.47596 36.1768Z" fill="#40B3F1"/>
<path d="M23.8078 59.6443C23.665 61.5785 23.4937 63.7038 21.9785 64.8568C21.3977 65.305 20.7016 65.6191 19.9866 65.7619C14.6502 66.81 8.88533 67.2393 3.66337 65.7809C1.26192 65.1045 -0.405606 63.7227 -0.624996 61.2352C-1.14901 55.4033 -1.73063 49.572 -2.37854 43.7495C-2.3596 43.7779 -2.35013 43.8063 -2.33119 43.8355C-1.864 44.6839 -1.43548 45.5607 -1.1498 46.4943C-0.787566 47.6662 -0.644731 48.8957 -0.48295 50.115C-0.0828393 53.0689 0.469587 55.9943 1.17511 58.8819C1.38503 59.7397 1.6131 60.626 2.08029 61.3781C2.76608 62.464 3.9096 63.2074 5.12019 63.6272C6.33078 64.0557 7.6266 64.1891 8.90349 64.2941C11.5622 64.5135 14.2588 64.6176 16.8599 64.0368C19.4611 63.4654 21.9769 62.1499 23.549 60.0057C23.6358 59.8921 23.7218 59.7682 23.8078 59.6443Z" fill="#F0353A"/>
<path d="M7.81923 30.1056C7.83975 30.0306 7.86106 29.9549 7.88236 29.8799C8.53896 27.5629 10.8378 26.6948 13.1051 26.9355C15.1333 27.1509 17.148 28.7601 17.0526 30.9524C17.036 31.3312 16.9547 31.7037 16.8734 32.0746C16.6335 33.1692 16.3944 34.2638 16.1545 35.3583C13.7088 35.1926 11.264 35.0277 8.81832 34.8627C8.4411 34.8375 7.25892 34.959 6.97324 34.738C6.62284 34.4666 6.86511 34.053 6.97007 33.6182C7.25418 32.4502 7.50119 31.2657 7.81923 30.1056Z" fill="#40B3F1"/>
<path d="M13.1114 23.9273C13.8603 20.9387 14.8105 17.9012 15.5594 14.9126C16.1608 15.0973 16.7629 15.2811 17.3643 15.465C17.0928 16.5201 16.8221 17.5761 16.5506 18.6312C15.8806 21.3104 15.3479 23.7529 14.6598 26.4282C14.4719 27.1566 14.382 27.9805 13.6133 28.0689C13.1801 28.1186 12.7949 27.9734 12.6032 27.5828C12.2078 26.777 12.9023 24.7623 13.1114 23.9273Z" fill="#40B3F1"/>
<path d="M18.497 16.4199C18.1482 16.4199 17.8026 16.3528 17.4845 16.2692C16.7972 16.0908 16.1153 15.8864 15.4398 15.667L15.177 15.5849C14.6822 15.4342 14.1211 15.2638 13.7075 14.8258C13.219 14.3112 13.2348 13.6018 13.3027 13.0422C13.3848 12.3683 13.5363 11.7022 13.7517 11.063L14.6546 11.3684C14.4588 11.9461 14.3223 12.5482 14.2481 13.1582C14.2055 13.511 14.1842 13.9443 14.3996 14.1723C14.6396 14.4264 15.0539 14.5527 15.454 14.6743L15.7341 14.7618C16.3923 14.9757 17.0544 15.1738 17.7237 15.349C18.722 15.6078 19.1907 15.4595 19.5893 14.7611C19.931 14.1597 20.0943 13.4352 20.253 12.7337L20.2956 12.5451L21.2244 12.7573L21.1826 12.9436C21.0082 13.713 20.829 14.5085 20.4179 15.233C19.8915 16.1555 19.1884 16.4199 18.497 16.4199Z" fill="#40B3F1"/>
<path d="M12.972 10.9768C13.1969 11.2451 13.8258 11.2695 14.0894 11.3382C16.3023 11.9111 18.4204 12.7982 20.6948 13.1367C20.9395 13.173 21.353 13.3048 21.5613 13.1209C21.776 12.9323 21.9236 12.5788 21.8723 12.2923C21.7949 11.8685 21.2662 11.852 20.9237 11.7541C19.7849 11.4298 18.6477 11.1015 17.5089 10.7771C16.7884 10.5719 16.0671 10.3715 15.3434 10.1789C14.9812 10.0826 14.6182 9.98951 14.2552 9.89796C13.9718 9.82694 13.6065 9.7346 13.3421 9.91296C13.099 10.0763 12.8709 10.4804 12.8923 10.7771C12.8962 10.856 12.9262 10.9215 12.972 10.9768Z" fill="#40B3F1"/>
<path d="M-2.50457 34.9203C3.95008 36.1735 10.5657 36.0504 17.1088 35.9257C18.9144 35.891 20.7224 35.8571 22.5162 35.6464C24.4173 35.4238 26.1053 35.0032 27.892 34.3939C27.8952 34.3932 27.8976 34.394 27.9007 34.3932C28.1098 33.6632 27.0192 32.919 26.5141 32.6325C24.452 31.463 22.0127 31.1568 19.6815 31.4235C17.1466 31.7131 14.8951 32.9703 12.3753 33.3625C10.1822 33.7042 8.34262 33.3515 6.42336 32.3263C4.59089 31.3477 2.26283 31.1268 0.453254 32.148C-0.25937 32.5504 -0.864666 33.1226 -1.57413 33.5314C-2.01607 33.7863 -2.49668 33.9733 -2.99307 34.0878C-3.42633 34.188 -4.11764 34.0712 -4.4996 34.2716C-4.56668 34.3064 -4.60456 34.3537 -4.65112 34.3971C-3.97007 34.4374 -3.10908 34.8035 -2.50457 34.9203Z" fill="#FFAC00"/>
<path d="M64.9619 66.2708C62.8106 73.4112 57.2887 79.5218 49.5067 82.0163C47.982 82.5033 46.4155 82.8316 44.834 83.0052C36.625 83.8993 28.0577 80.5895 23.3519 73.6267C21.9101 71.4943 20.7665 69.0786 19.9932 66.5422C18.1931 60.6471 18.3706 54.0764 21.39 48.7361C21.6765 48.2231 21.9937 47.7212 22.337 47.2304C24.658 43.9206 27.772 41.3273 31.2776 39.5462C34.8857 37.7042 38.9168 36.7233 42.9281 36.7044C46.9403 36.6854 50.797 37.6932 54.1786 39.5651C57.5641 41.437 60.4699 44.1771 62.5722 47.6186C66.1922 53.5406 66.7699 60.2699 64.9619 66.2708Z" fill="#AEFFB7"/>
<path d="M64.962 66.2705C62.8107 73.4109 57.2888 79.5215 49.5068 82.0161C47.9821 82.503 46.4156 82.8313 44.8341 83.0049C41.7468 80.4646 39.1505 76.8833 37.0741 73.826C32.07 66.4631 28.933 57.9029 28.5369 48.9813C28.51 48.3357 32.8544 48.5472 33.2467 48.5922C34.8881 48.7769 36.5415 49.0641 38.1869 49.4414C43.3804 50.6307 48.5164 52.6943 53.0873 55.1558C57.9344 57.7672 62.2141 61.5228 64.962 66.2705Z" fill="#FF494F"/>
<path d="M54.1793 39.5648C51.1749 39.0171 48.0956 38.7267 45.0841 39.0779C42.6116 39.3644 40.1849 40.0328 37.9168 41.0595C35.4822 42.1581 33.6071 43.6749 31.6326 45.4339C31.4969 45.5547 31.3493 45.6833 31.1725 45.7133C31.0368 45.7362 30.8971 45.7022 30.7653 45.6683C30.407 45.5776 29.5121 45.5207 29.2895 45.1624C28.8705 44.4948 29.9351 42.2827 30.2026 41.6451C30.4141 41.1392 30.6706 40.5923 30.9689 40.0596C31.0668 39.886 31.1693 39.7124 31.2783 39.5467C34.8864 37.7048 38.9175 36.7238 42.9288 36.7049C46.9402 36.6851 50.7977 37.6929 54.1793 39.5648Z" fill="#40B3F1"/>
<path d="M26.8769 47.8826C26.8051 48.7507 26.8351 49.483 26.7641 50.3511C26.753 50.5018 26.7412 50.6533 26.6852 50.7962C26.6094 50.9927 26.4626 51.1474 26.315 51.2981C25.0318 52.6381 24.0091 53.9442 23.152 55.5896C22.3179 57.1861 21.6234 58.8544 21.0805 60.5717C20.4499 62.5533 20.1484 64.5191 19.9938 66.5426C18.1937 60.6474 18.3712 54.0768 21.3906 48.7365C23.1631 48.1888 25.02 47.9015 26.8769 47.8826Z" fill="#FFC835"/>
<path d="M32.048 44.7096C32.8158 45.3883 32.9508 46.651 32.3936 48.0739C31.3425 50.7563 28.3681 52.7939 26.3707 52.2833C25.0551 51.9471 24.434 50.5187 25.0567 48.7549C25.6241 47.1481 27.0344 45.3204 28.6309 44.5841C30.0127 43.9457 31.2927 44.042 32.048 44.7096Z" fill="#A83100"/>
<path d="M31.302 45.5169C31.8946 46.0409 31.9996 47.0171 31.5687 48.1157C30.7567 50.188 28.4586 51.7616 26.9158 51.3678C25.8993 51.1082 25.4195 50.0042 25.9009 48.6421C26.3389 47.4007 27.4287 45.9888 28.6622 45.4199C29.73 44.9266 30.7188 45.0008 31.302 45.5169Z" fill="white"/>
<path d="M8.81216 74.4971C8.89266 74.4711 8.95816 74.4348 9.00946 74.3938C9.25963 74.1933 9.08285 73.891 8.65828 73.7908L8.61646 73.7766C8.3434 73.8105 8.09323 73.9013 7.97012 74.0284C7.84701 74.1562 7.8691 74.3212 8.0514 74.4293C8.23291 74.5382 8.57541 74.5737 8.81216 74.4971Z" fill="#D17100"/>
<path d="M11.5964 73.975C11.4844 74.0461 11.392 74.1289 11.3841 74.2197C11.3762 74.3104 11.4709 74.4075 11.639 74.4383C11.8916 74.4856 12.1496 74.372 12.2846 74.2544C12.3627 74.1866 12.4258 74.1076 12.3935 74.0311C12.3611 73.9545 12.1978 73.8882 12.0518 73.9151L12.1851 73.8614C11.9863 73.8054 11.74 73.8851 11.5964 73.975Z" fill="#D17100"/>
<path d="M10.2713 73.6584C10.6478 73.4997 10.8269 73.2306 10.7156 72.9891L10.6091 72.9828C10.2784 72.9544 9.92015 73.0483 9.7781 73.2022C9.63604 73.3561 9.72285 73.5558 9.97933 73.6655C10.0133 73.6805 10.0527 73.6939 10.0969 73.6962C10.1616 73.6994 10.2216 73.6797 10.2713 73.6584Z" fill="#D17100"/>
<path d="M7.20138 72.5476C7.06012 72.7354 7.36789 72.9777 7.76564 72.9698C7.83272 72.9682 7.90137 72.9603 7.95504 72.9398C8.00318 72.9217 8.03475 72.8948 8.06473 72.8688C8.16022 72.7875 8.25809 72.7038 8.28807 72.6107C8.31806 72.5176 8.26519 72.4111 8.1113 72.3574L8.19731 72.3614C7.83745 72.2753 7.34264 72.3598 7.20138 72.5476Z" fill="#D17100"/>
<path d="M5.18588 73.4044C5.24586 73.2481 5.08486 73.0792 4.81576 72.9956L4.71869 72.9766C4.68633 72.9182 4.51192 72.9466 4.42117 72.9861C4.17258 73.0934 3.90742 73.2236 3.9082 73.3886C3.90899 73.548 4.20415 73.6885 4.51982 73.6892C4.8347 73.69 5.1259 73.5606 5.18588 73.4044Z" fill="#D17100"/>
<path d="M6.27663 72.2142C6.37212 72.1061 6.32557 71.9348 6.05172 71.9395C5.82523 71.9435 5.58137 72.0824 5.48983 72.1755C5.47404 72.1913 5.46063 72.2079 5.45589 72.2252C5.43616 72.301 5.59479 72.3609 5.74474 72.3688C5.96255 72.3807 6.18746 72.3152 6.27663 72.2142Z" fill="#D17100"/>
<path d="M10.6611 72.1873C10.8174 72.1163 10.8892 72.0089 10.9184 71.904C10.931 71.859 10.9358 71.8116 10.9003 71.7706C10.7195 71.5622 10.0953 71.6183 9.83962 71.7445C9.61707 71.8542 9.6076 72.0555 9.81989 72.1699C10.0322 72.2836 10.4299 72.2922 10.6611 72.1873Z" fill="#D17100"/>
<path d="M8.14838 70.6389C8.09314 70.6421 8.04263 70.6547 7.99686 70.6705C7.89585 70.7052 7.8114 70.7549 7.78062 70.8149C7.71986 70.9325 7.90926 71.0627 8.14759 71.0785C8.38592 71.0943 8.62662 71.0035 8.68265 70.8851C8.69291 70.8646 8.69764 70.8425 8.69054 70.8212C8.67081 70.766 8.57296 70.7265 8.47352 70.7013L8.49088 70.7376C8.39776 70.6871 8.28412 70.6326 8.14838 70.6389Z" fill="#D17100"/>
<path d="M14.1437 72.4669C14.2676 72.4905 14.4096 72.5071 14.5303 72.4787C14.6803 72.444 14.7458 72.3524 14.7505 72.2688C14.7584 72.1275 14.6322 71.9878 14.4246 71.8939C14.2518 71.815 13.9432 71.7092 13.7088 71.7755C13.4744 71.8418 13.4081 72.0383 13.4855 72.1551C13.5833 72.3043 13.8532 72.4108 14.1437 72.4669Z" fill="#D17100"/>
<path d="M15.6851 74.155C15.9029 74.11 15.9724 73.9711 15.9811 73.8519C15.9969 73.6373 15.7672 73.4645 15.2937 73.5268C15.2337 73.5347 15.1824 73.5536 15.1327 73.5726C15.027 73.6128 14.9196 73.6531 14.8368 73.7059C14.7547 73.758 14.6979 73.8243 14.7105 73.8906C14.7231 73.9585 14.806 74.02 14.9125 74.0619C15.0191 74.1037 15.1485 74.1281 15.2779 74.1479C15.4105 74.1676 15.5565 74.1818 15.6851 74.155Z" fill="#D17100"/>
<path d="M70.8601 81.46C70.9406 81.434 71.0069 81.3977 71.0574 81.3566C71.3068 81.1562 71.1308 80.8539 70.7062 80.7537L70.6644 80.7395C70.3913 80.7734 70.1411 80.8642 70.0188 80.9912C69.8957 81.1191 69.9178 81.2833 70.1001 81.3922C70.2808 81.5011 70.6233 81.5366 70.8601 81.46Z" fill="#D17100"/>
<path d="M73.6443 80.9384C73.5322 81.0094 73.4399 81.0923 73.432 81.183C73.4241 81.2738 73.5188 81.3709 73.6869 81.4016C73.9394 81.449 74.1975 81.3353 74.3324 81.2185C74.4105 81.1507 74.4737 81.0718 74.4413 80.9944C74.409 80.9179 74.2464 80.8516 74.1004 80.8784L74.2338 80.8247C74.0341 80.7679 73.7879 80.8476 73.6443 80.9384Z" fill="#D17100"/>
<path d="M72.3195 80.6212C72.6959 80.4626 72.8751 80.1935 72.7646 79.952L72.6581 79.9457C72.3274 79.9173 71.9691 80.0112 71.827 80.1651C71.685 80.319 71.7718 80.5187 72.0283 80.6284C72.0622 80.6426 72.1017 80.6568 72.1459 80.6591C72.2098 80.6631 72.2698 80.6426 72.3195 80.6212Z" fill="#D17100"/>
<path d="M69.2494 79.51C69.1082 79.6979 69.4167 79.9401 69.8137 79.9322C69.8808 79.9307 69.9494 79.9228 70.0031 79.9023C70.0512 79.8841 70.0828 79.8573 70.1136 79.8312C70.2091 79.7499 70.3069 79.6663 70.3369 79.5732C70.3669 79.48 70.314 79.3735 70.1601 79.3198L70.2461 79.3238C69.8855 79.2386 69.3907 79.323 69.2494 79.51Z" fill="#D17100"/>
<path d="M67.234 80.367C67.294 80.2108 67.133 80.0419 66.8638 79.9582L66.7668 79.9393C66.7344 79.8809 66.56 79.9093 66.4693 79.9487C66.2207 80.0561 65.9555 80.1863 65.9563 80.3512C65.9571 80.5106 66.2522 80.6511 66.5679 80.6519C66.8828 80.6527 67.174 80.5241 67.234 80.367Z" fill="#D17100"/>
<path d="M68.3245 79.1776C68.42 79.0695 68.3734 78.8982 68.0996 78.9029C67.8731 78.9069 67.6292 79.0458 67.5377 79.1389C67.5219 79.1547 67.5085 79.1712 67.5037 79.1886C67.484 79.2644 67.6426 79.3244 67.7926 79.3322C68.0104 79.3433 68.2353 79.2786 68.3245 79.1776Z" fill="#D17100"/>
<path d="M72.7092 79.1502C72.8655 79.0791 72.9373 78.9718 72.9665 78.8668C72.9791 78.8219 72.9839 78.7745 72.9484 78.7335C72.7676 78.5251 72.1434 78.5812 71.8877 78.7074C71.6652 78.8171 71.6557 79.0184 71.868 79.1328C72.0803 79.2464 72.478 79.2551 72.7092 79.1502Z" fill="#D17100"/>
<path d="M70.1965 77.6024C70.1412 77.6056 70.0907 77.6182 70.045 77.634C69.9439 77.6687 69.8595 77.7184 69.8287 77.7784C69.768 77.896 69.9574 78.0262 70.1957 78.042C70.434 78.0578 70.6747 77.9662 70.7308 77.8486C70.741 77.8281 70.7457 77.806 70.7386 77.7847C70.7189 77.7295 70.621 77.69 70.5224 77.6648L70.5398 77.7011C70.4459 77.6506 70.3322 77.5953 70.1965 77.6024Z" fill="#D17100"/>
<path d="M76.1917 79.4293C76.3156 79.453 76.4577 79.4696 76.5784 79.4411C76.7284 79.4064 76.7939 79.3149 76.7986 79.2312C76.8065 79.09 76.6802 78.9503 76.4727 78.8556C76.2991 78.7767 75.9913 78.6709 75.7569 78.7372C75.5225 78.8035 75.4562 79 75.5336 79.1168C75.6314 79.2667 75.9021 79.3733 76.1917 79.4293Z" fill="#D17100"/>
<path d="M77.7331 81.1184C77.9517 81.0734 78.0203 80.9345 78.029 80.8153C78.0448 80.6007 77.8151 80.4278 77.3416 80.4902C77.2816 80.4981 77.2303 80.517 77.1806 80.5359C77.0749 80.5762 76.9675 80.6164 76.8855 80.6693C76.8034 80.7214 76.7466 80.7877 76.7592 80.854C76.7718 80.9219 76.8547 80.9834 76.9612 81.0252C77.0678 81.0671 77.1972 81.0915 77.3266 81.1113C77.4584 81.1302 77.6044 81.1444 77.7331 81.1184Z" fill="#D17100"/>
</g>
</svg>
