<svg width="46" height="37" viewBox="0 0 46 37" fill="none" xmlns="http://www.w3.org/2000/svg">
<path d="M18.8327 10.1673V8.08398M18.8327 19.5423V17.459M18.8327 28.9173V26.834M8.83268 1.83398H37.166C39.4996 1.83398 40.6663 1.83398 41.5576 2.28812C42.3417 2.6876 42.9791 3.32502 43.3785 4.10902C43.8327 5.00032 43.8327 6.1671 43.8327 8.50065V11.209C39.8056 11.209 36.541 14.4736 36.541 18.5007C36.541 22.5277 39.8056 25.7923 43.8327 25.7923V28.5007C43.8327 30.8342 43.8327 32.001 43.3785 32.8923C42.9791 33.6763 42.3417 34.3137 41.5576 34.7132C40.6663 35.1673 39.4996 35.1673 37.166 35.1673H8.83268C6.49913 35.1673 5.33235 35.1673 4.44106 34.7132C3.65705 34.3137 3.01963 33.6763 2.62016 32.8923C2.16602 32.001 2.16602 30.8342 2.16602 28.5007V25.7923C6.19309 25.7923 9.45768 22.5277 9.45768 18.5007C9.45768 14.4736 6.19309 11.209 2.16602 11.209V8.50065C2.16602 6.1671 2.16602 5.00032 2.62016 4.10902C3.01963 3.32502 3.65705 2.6876 4.44106 2.28812C5.33235 1.83398 6.49913 1.83398 8.83268 1.83398Z" stroke="#FF6900" stroke-width="3" stroke-linecap="round" stroke-linejoin="round"/>
</svg>
