<svg width="44" height="37" viewBox="0 0 44 37" fill="none" xmlns="http://www.w3.org/2000/svg">
<path d="M17.8327 10.1673V8.08398M17.8327 19.5423V17.459M17.8327 28.9173V26.834M7.83268 1.83398H36.166C38.4996 1.83398 39.6663 1.83398 40.5576 2.28812C41.3417 2.6876 41.9791 3.32502 42.3785 4.10902C42.8327 5.00032 42.8327 6.1671 42.8327 8.50065V11.209C38.8056 11.209 35.541 14.4736 35.541 18.5007C35.541 22.5277 38.8056 25.7923 42.8327 25.7923V28.5007C42.8327 30.8342 42.8327 32.001 42.3785 32.8923C41.9791 33.6763 41.3417 34.3137 40.5576 34.7132C39.6663 35.1673 38.4996 35.1673 36.166 35.1673H7.83268C5.49913 35.1673 4.33235 35.1673 3.44106 34.7132C2.65705 34.3137 2.01963 33.6763 1.62016 32.8923C1.16602 32.001 1.16602 30.8342 1.16602 28.5007V25.7923C5.19309 25.7923 8.45768 22.5277 8.45768 18.5007C8.45768 14.4736 5.19309 11.209 1.16602 11.209V8.50065C1.16602 6.1671 1.16602 5.00032 1.62016 4.10902C2.01963 3.32502 2.65705 2.6876 3.44106 2.28812C4.33235 1.83398 5.49913 1.83398 7.83268 1.83398Z" stroke="#FF6900" stroke-width="2" stroke-linecap="round" stroke-linejoin="round"/>
</svg>
