<svg width="164" height="163" viewBox="0 0 164 163" fill="none" xmlns="http://www.w3.org/2000/svg">
<g clip-path="url(#clip0_7049_6127)">
<path d="M161.396 0.322998H2.60437C1.53142 0.322998 0.661621 1.1928 0.661621 2.26575V161.057C0.661621 162.13 1.53142 163 2.60437 163H161.396C162.469 163 163.339 162.13 163.339 161.057V2.26575C163.339 1.1928 162.469 0.322998 161.396 0.322998Z" fill="white"/>
<path d="M18.9588 13.9504H14.2891V18.6202H18.9588V13.9504Z" fill="black"/>
<path d="M23.6285 13.9504H18.9588V18.6202H23.6285V13.9504Z" fill="black"/>
<path d="M28.2983 13.9504H23.6285V18.6202H28.2983V13.9504Z" fill="black"/>
<path d="M32.968 13.9504H28.2983V18.6202H32.968V13.9504Z" fill="black"/>
<path d="M37.6377 13.9504H32.968V18.6202H37.6377V13.9504Z" fill="black"/>
<path d="M42.3075 13.9504H37.6377V18.6202H42.3075V13.9504Z" fill="black"/>
<path d="M46.9772 13.9504H42.3075V18.6202H46.9772V13.9504Z" fill="black"/>
<path d="M56.3167 13.9504H51.6469V18.6202H56.3167V13.9504Z" fill="black"/>
<path d="M70.3259 13.9504H65.6561V18.6202H70.3259V13.9504Z" fill="black"/>
<path d="M74.9956 13.9504H70.3259V18.6202H74.9956V13.9504Z" fill="black"/>
<path d="M79.6653 13.9504H74.9956V18.6202H79.6653V13.9504Z" fill="black"/>
<path d="M103.014 13.9504H98.3442V18.6202H103.014V13.9504Z" fill="black"/>
<path d="M121.693 13.9504H117.023V18.6202H121.693V13.9504Z" fill="black"/>
<path d="M126.363 13.9504H121.693V18.6202H126.363V13.9504Z" fill="black"/>
<path d="M131.032 13.9504H126.363V18.6202H131.032V13.9504Z" fill="black"/>
<path d="M135.702 13.9504H131.032V18.6202H135.702V13.9504Z" fill="black"/>
<path d="M140.372 13.9504H135.702V18.6202H140.372V13.9504Z" fill="black"/>
<path d="M145.042 13.9504H140.372V18.6202H145.042V13.9504Z" fill="black"/>
<path d="M149.711 13.9504H145.042V18.6202H149.711V13.9504Z" fill="black"/>
<path d="M18.9588 18.6202H14.2891V23.2899H18.9588V18.6202Z" fill="black"/>
<path d="M46.9772 18.6202H42.3075V23.2899H46.9772V18.6202Z" fill="black"/>
<path d="M60.9864 18.6202H56.3167V23.2899H60.9864V18.6202Z" fill="black"/>
<path d="M65.6561 18.6202H60.9864V23.2899H65.6561V18.6202Z" fill="black"/>
<path d="M79.6653 18.6202H74.9956V23.2899H79.6653V18.6202Z" fill="black"/>
<path d="M84.335 18.6202H79.6653V23.2899H84.335V18.6202Z" fill="black"/>
<path d="M98.3442 18.6202H93.6745V23.2899H98.3442V18.6202Z" fill="black"/>
<path d="M112.353 18.6202H107.684V23.2899H112.353V18.6202Z" fill="black"/>
<path d="M121.693 18.6202H117.023V23.2899H121.693V18.6202Z" fill="black"/>
<path d="M149.711 18.6202H145.042V23.2899H149.711V18.6202Z" fill="black"/>
<path d="M18.9588 23.2899H14.2891V27.9596H18.9588V23.2899Z" fill="black"/>
<path d="M28.2983 23.2899H23.6285V27.9596H28.2983V23.2899Z" fill="black"/>
<path d="M32.968 23.2899H28.2983V27.9596H32.968V23.2899Z" fill="black"/>
<path d="M37.6377 23.2899H32.968V27.9596H37.6377V23.2899Z" fill="black"/>
<path d="M46.9772 23.2899H42.3075V27.9596H46.9772V23.2899Z" fill="black"/>
<path d="M56.3167 23.2899H51.6469V27.9596H56.3167V23.2899Z" fill="black"/>
<path d="M79.6653 23.2899H74.9956V27.9596H79.6653V23.2899Z" fill="black"/>
<path d="M89.0048 23.2899H84.335V27.9596H89.0048V23.2899Z" fill="black"/>
<path d="M98.3442 23.2899H93.6745V27.9596H98.3442V23.2899Z" fill="black"/>
<path d="M103.014 23.2899H98.3442V27.9596H103.014V23.2899Z" fill="black"/>
<path d="M107.684 23.2899H103.014V27.9596H107.684V23.2899Z" fill="black"/>
<path d="M112.353 23.2899H107.684V27.9596H112.353V23.2899Z" fill="black"/>
<path d="M121.693 23.2899H117.023V27.9596H121.693V23.2899Z" fill="black"/>
<path d="M131.032 23.2899H126.363V27.9596H131.032V23.2899Z" fill="black"/>
<path d="M135.702 23.2899H131.032V27.9596H135.702V23.2899Z" fill="black"/>
<path d="M140.372 23.2899H135.702V27.9596H140.372V23.2899Z" fill="black"/>
<path d="M149.711 23.2899H145.042V27.9596H149.711V23.2899Z" fill="black"/>
<path d="M18.9588 27.9596H14.2891V32.6294H18.9588V27.9596Z" fill="black"/>
<path d="M28.2983 27.9596H23.6285V32.6294H28.2983V27.9596Z" fill="black"/>
<path d="M32.968 27.9596H28.2983V32.6294H32.968V27.9596Z" fill="black"/>
<path d="M37.6377 27.9596H32.968V32.6294H37.6377V27.9596Z" fill="black"/>
<path d="M46.9772 27.9596H42.3075V32.6294H46.9772V27.9596Z" fill="black"/>
<path d="M56.3167 27.9596H51.6469V32.6294H56.3167V27.9596Z" fill="black"/>
<path d="M60.9864 27.9596H56.3167V32.6294H60.9864V27.9596Z" fill="black"/>
<path d="M65.6561 27.9596H60.9864V32.6294H65.6561V27.9596Z" fill="black"/>
<path d="M70.3259 27.9596H65.6561V32.6294H70.3259V27.9596Z" fill="black"/>
<path d="M74.9956 27.9596H70.3259V32.6294H74.9956V27.9596Z" fill="black"/>
<path d="M84.335 27.9596H79.6653V32.6294H84.335V27.9596Z" fill="black"/>
<path d="M89.0048 27.9596H84.335V32.6294H89.0048V27.9596Z" fill="black"/>
<path d="M93.6745 27.9596H89.0048V32.6294H93.6745V27.9596Z" fill="black"/>
<path d="M107.684 27.9596H103.014V32.6294H107.684V27.9596Z" fill="black"/>
<path d="M121.693 27.9596H117.023V32.6294H121.693V27.9596Z" fill="black"/>
<path d="M131.032 27.9596H126.363V32.6294H131.032V27.9596Z" fill="black"/>
<path d="M135.702 27.9596H131.032V32.6294H135.702V27.9596Z" fill="black"/>
<path d="M140.372 27.9596H135.702V32.6294H140.372V27.9596Z" fill="black"/>
<path d="M149.711 27.9596H145.042V32.6294H149.711V27.9596Z" fill="black"/>
<path d="M18.9588 32.6294H14.2891V37.2991H18.9588V32.6294Z" fill="black"/>
<path d="M28.2983 32.6294H23.6285V37.2991H28.2983V32.6294Z" fill="black"/>
<path d="M32.968 32.6294H28.2983V37.2991H32.968V32.6294Z" fill="black"/>
<path d="M37.6377 32.6294H32.968V37.2991H37.6377V32.6294Z" fill="black"/>
<path d="M46.9772 32.6294H42.3075V37.2991H46.9772V32.6294Z" fill="black"/>
<path d="M60.9864 32.6294H56.3167V37.2991H60.9864V32.6294Z" fill="black"/>
<path d="M65.6561 32.6294H60.9864V37.2991H65.6561V32.6294Z" fill="black"/>
<path d="M89.0048 32.6294H84.335V37.2991H89.0048V32.6294Z" fill="black"/>
<path d="M98.3442 32.6294H93.6745V37.2991H98.3442V32.6294Z" fill="black"/>
<path d="M121.693 32.6294H117.023V37.2991H121.693V32.6294Z" fill="black"/>
<path d="M131.032 32.6294H126.363V37.2991H131.032V32.6294Z" fill="black"/>
<path d="M135.702 32.6294H131.032V37.2991H135.702V32.6294Z" fill="black"/>
<path d="M140.372 32.6294H135.702V37.2991H140.372V32.6294Z" fill="black"/>
<path d="M149.711 32.6294H145.042V37.2991H149.711V32.6294Z" fill="black"/>
<path d="M18.9588 37.2991H14.2891V41.9688H18.9588V37.2991Z" fill="black"/>
<path d="M46.9772 37.2991H42.3075V41.9688H46.9772V37.2991Z" fill="black"/>
<path d="M56.3167 37.2991H51.6469V41.9688H56.3167V37.2991Z" fill="black"/>
<path d="M70.3259 37.2991H65.6561V41.9688H70.3259V37.2991Z" fill="black"/>
<path d="M74.9956 37.2991H70.3259V41.9688H74.9956V37.2991Z" fill="black"/>
<path d="M89.0048 37.2991H84.335V41.9688H89.0048V37.2991Z" fill="black"/>
<path d="M103.014 37.2991H98.3442V41.9688H103.014V37.2991Z" fill="black"/>
<path d="M121.693 37.2991H117.023V41.9688H121.693V37.2991Z" fill="black"/>
<path d="M149.711 37.2991H145.042V41.9688H149.711V37.2991Z" fill="black"/>
<path d="M18.9588 41.9688H14.2891V46.6386H18.9588V41.9688Z" fill="black"/>
<path d="M23.6285 41.9688H18.9588V46.6386H23.6285V41.9688Z" fill="black"/>
<path d="M28.2983 41.9688H23.6285V46.6386H28.2983V41.9688Z" fill="black"/>
<path d="M32.968 41.9688H28.2983V46.6386H32.968V41.9688Z" fill="black"/>
<path d="M37.6377 41.9688H32.968V46.6386H37.6377V41.9688Z" fill="black"/>
<path d="M42.3075 41.9688H37.6377V46.6386H42.3075V41.9688Z" fill="black"/>
<path d="M46.9772 41.9688H42.3075V46.6386H46.9772V41.9688Z" fill="black"/>
<path d="M56.3167 41.9688H51.6469V46.6386H56.3167V41.9688Z" fill="black"/>
<path d="M65.6561 41.9688H60.9864V46.6386H65.6561V41.9688Z" fill="black"/>
<path d="M74.9956 41.9688H70.3259V46.6386H74.9956V41.9688Z" fill="black"/>
<path d="M84.335 41.9688H79.6653V46.6386H84.335V41.9688Z" fill="black"/>
<path d="M93.6745 41.9688H89.0048V46.6386H93.6745V41.9688Z" fill="black"/>
<path d="M103.014 41.9688H98.3442V46.6386H103.014V41.9688Z" fill="black"/>
<path d="M112.353 41.9688H107.684V46.6386H112.353V41.9688Z" fill="black"/>
<path d="M121.693 41.9688H117.023V46.6386H121.693V41.9688Z" fill="black"/>
<path d="M126.363 41.9688H121.693V46.6386H126.363V41.9688Z" fill="black"/>
<path d="M131.032 41.9688H126.363V46.6386H131.032V41.9688Z" fill="black"/>
<path d="M135.702 41.9688H131.032V46.6386H135.702V41.9688Z" fill="black"/>
<path d="M140.372 41.9688H135.702V46.6386H140.372V41.9688Z" fill="black"/>
<path d="M145.042 41.9688H140.372V46.6386H145.042V41.9688Z" fill="black"/>
<path d="M149.711 41.9688H145.042V46.6386H149.711V41.9688Z" fill="black"/>
<path d="M56.3167 46.6386H51.6469V51.3083H56.3167V46.6386Z" fill="black"/>
<path d="M60.9864 46.6386H56.3167V51.3083H60.9864V46.6386Z" fill="black"/>
<path d="M65.6561 46.6386H60.9864V51.3083H65.6561V46.6386Z" fill="black"/>
<path d="M74.9956 46.6386H70.3259V51.3083H74.9956V46.6386Z" fill="black"/>
<path d="M79.6653 46.6386H74.9956V51.3083H79.6653V46.6386Z" fill="black"/>
<path d="M84.335 46.6386H79.6653V51.3083H84.335V46.6386Z" fill="black"/>
<path d="M89.0048 46.6386H84.335V51.3083H89.0048V46.6386Z" fill="black"/>
<path d="M93.6745 46.6386H89.0048V51.3083H93.6745V46.6386Z" fill="black"/>
<path d="M98.3442 46.6386H93.6745V51.3083H98.3442V46.6386Z" fill="black"/>
<path d="M107.684 46.6386H103.014V51.3083H107.684V46.6386Z" fill="black"/>
<path d="M112.353 46.6386H107.684V51.3083H112.353V46.6386Z" fill="black"/>
<path d="M18.9588 51.3083H14.2891V55.978H18.9588V51.3083Z" fill="black"/>
<path d="M23.6285 51.3083H18.9588V55.978H23.6285V51.3083Z" fill="black"/>
<path d="M32.968 51.3083H28.2983V55.978H32.968V51.3083Z" fill="black"/>
<path d="M46.9772 51.3083H42.3075V55.978H46.9772V51.3083Z" fill="black"/>
<path d="M51.6469 51.3083H46.9772V55.978H51.6469V51.3083Z" fill="black"/>
<path d="M60.9864 51.3083H56.3167V55.978H60.9864V51.3083Z" fill="black"/>
<path d="M79.6653 51.3083H74.9956V55.978H79.6653V51.3083Z" fill="black"/>
<path d="M84.335 51.3083H79.6653V55.978H84.335V51.3083Z" fill="black"/>
<path d="M93.6745 51.3083H89.0048V55.978H93.6745V51.3083Z" fill="black"/>
<path d="M98.3442 51.3083H93.6745V55.978H98.3442V51.3083Z" fill="black"/>
<path d="M107.684 51.3083H103.014V55.978H107.684V51.3083Z" fill="black"/>
<path d="M112.353 51.3083H107.684V55.978H112.353V51.3083Z" fill="black"/>
<path d="M117.023 51.3083H112.353V55.978H117.023V51.3083Z" fill="black"/>
<path d="M121.693 51.3083H117.023V55.978H121.693V51.3083Z" fill="black"/>
<path d="M126.363 51.3083H121.693V55.978H126.363V51.3083Z" fill="black"/>
<path d="M135.702 51.3083H131.032V55.978H135.702V51.3083Z" fill="black"/>
<path d="M140.372 51.3083H135.702V55.978H140.372V51.3083Z" fill="black"/>
<path d="M149.711 51.3083H145.042V55.978H149.711V51.3083Z" fill="black"/>
<path d="M32.968 55.978H28.2983V60.6478H32.968V55.978Z" fill="black"/>
<path d="M51.6469 55.978H46.9772V60.6478H51.6469V55.978Z" fill="black"/>
<path d="M60.9864 55.978H56.3167V60.6478H60.9864V55.978Z" fill="black"/>
<path d="M65.6561 55.978H60.9864V60.6478H65.6561V55.978Z" fill="black"/>
<path d="M93.6745 55.978H89.0048V60.6478H93.6745V55.978Z" fill="black"/>
<path d="M103.014 55.978H98.3442V60.6478H103.014V55.978Z" fill="black"/>
<path d="M107.684 55.978H103.014V60.6478H107.684V55.978Z" fill="black"/>
<path d="M126.363 55.978H121.693V60.6478H126.363V55.978Z" fill="black"/>
<path d="M145.042 55.978H140.372V60.6478H145.042V55.978Z" fill="black"/>
<path d="M149.711 55.978H145.042V60.6478H149.711V55.978Z" fill="black"/>
<path d="M18.9588 60.6478H14.2891V65.3175H18.9588V60.6478Z" fill="black"/>
<path d="M28.2983 60.6478H23.6285V65.3175H28.2983V60.6478Z" fill="black"/>
<path d="M42.3075 60.6478H37.6377V65.3175H42.3075V60.6478Z" fill="black"/>
<path d="M46.9772 60.6478H42.3075V65.3175H46.9772V60.6478Z" fill="black"/>
<path d="M56.3167 60.6478H51.6469V65.3175H56.3167V60.6478Z" fill="black"/>
<path d="M65.6561 60.6478H60.9864V65.3175H65.6561V60.6478Z" fill="black"/>
<path d="M74.9956 60.6478H70.3259V65.3175H74.9956V60.6478Z" fill="black"/>
<path d="M84.335 60.6478H79.6653V65.3175H84.335V60.6478Z" fill="black"/>
<path d="M89.0048 60.6478H84.335V65.3175H89.0048V60.6478Z" fill="black"/>
<path d="M98.3442 60.6478H93.6745V65.3175H98.3442V60.6478Z" fill="black"/>
<path d="M107.684 60.6478H103.014V65.3175H107.684V60.6478Z" fill="black"/>
<path d="M112.353 60.6478H107.684V65.3175H112.353V60.6478Z" fill="black"/>
<path d="M121.693 60.6478H117.023V65.3175H121.693V60.6478Z" fill="black"/>
<path d="M131.032 60.6478H126.363V65.3175H131.032V60.6478Z" fill="black"/>
<path d="M135.702 60.6478H131.032V65.3175H135.702V60.6478Z" fill="black"/>
<path d="M145.042 60.6478H140.372V65.3175H145.042V60.6478Z" fill="black"/>
<path d="M23.6285 65.3175H18.9588V69.9872H23.6285V65.3175Z" fill="black"/>
<path d="M28.2983 65.3175H23.6285V69.9872H28.2983V65.3175Z" fill="black"/>
<path d="M37.6377 65.3175H32.968V69.9872H37.6377V65.3175Z" fill="black"/>
<path d="M42.3075 65.3175H37.6377V69.9872H42.3075V65.3175Z" fill="black"/>
<path d="M60.9864 65.3175H56.3167V69.9872H60.9864V65.3175Z" fill="black"/>
<path d="M70.3259 65.3175H65.6561V69.9872H70.3259V65.3175Z" fill="black"/>
<path d="M74.9956 65.3175H70.3259V69.9872H74.9956V65.3175Z" fill="black"/>
<path d="M79.6653 65.3175H74.9956V69.9872H79.6653V65.3175Z" fill="black"/>
<path d="M84.335 65.3175H79.6653V69.9872H84.335V65.3175Z" fill="black"/>
<path d="M89.0048 65.3175H84.335V69.9872H89.0048V65.3175Z" fill="black"/>
<path d="M103.014 65.3175H98.3442V69.9872H103.014V65.3175Z" fill="black"/>
<path d="M107.684 65.3175H103.014V69.9872H107.684V65.3175Z" fill="black"/>
<path d="M112.353 65.3175H107.684V69.9872H112.353V65.3175Z" fill="black"/>
<path d="M117.023 65.3175H112.353V69.9872H117.023V65.3175Z" fill="black"/>
<path d="M121.693 65.3175H117.023V69.9872H121.693V65.3175Z" fill="black"/>
<path d="M126.363 65.3175H121.693V69.9872H126.363V65.3175Z" fill="black"/>
<path d="M131.032 65.3175H126.363V69.9872H131.032V65.3175Z" fill="black"/>
<path d="M149.711 65.3175H145.042V69.9872H149.711V65.3175Z" fill="black"/>
<path d="M28.2983 69.9872H23.6285V74.657H28.2983V69.9872Z" fill="black"/>
<path d="M46.9772 69.9872H42.3075V74.657H46.9772V69.9872Z" fill="black"/>
<path d="M51.6469 69.9872H46.9772V74.657H51.6469V69.9872Z" fill="black"/>
<path d="M70.3259 69.9872H65.6561V74.657H70.3259V69.9872Z" fill="black"/>
<path d="M79.6653 69.9872H74.9956V74.657H79.6653V69.9872Z" fill="black"/>
<path d="M84.335 69.9872H79.6653V74.657H84.335V69.9872Z" fill="black"/>
<path d="M89.0048 69.9872H84.335V74.657H89.0048V69.9872Z" fill="black"/>
<path d="M93.6745 69.9872H89.0048V74.657H93.6745V69.9872Z" fill="black"/>
<path d="M98.3442 69.9872H93.6745V74.657H98.3442V69.9872Z" fill="black"/>
<path d="M107.684 69.9872H103.014V74.657H107.684V69.9872Z" fill="black"/>
<path d="M112.353 69.9872H107.684V74.657H112.353V69.9872Z" fill="black"/>
<path d="M117.023 69.9872H112.353V74.657H117.023V69.9872Z" fill="black"/>
<path d="M126.363 69.9872H121.693V74.657H126.363V69.9872Z" fill="black"/>
<path d="M131.032 69.9872H126.363V74.657H131.032V69.9872Z" fill="black"/>
<path d="M135.702 69.9872H131.032V74.657H135.702V69.9872Z" fill="black"/>
<path d="M140.372 69.9872H135.702V74.657H140.372V69.9872Z" fill="black"/>
<path d="M18.9588 74.657H14.2891V79.3267H18.9588V74.657Z" fill="black"/>
<path d="M23.6285 74.657H18.9588V79.3267H23.6285V74.657Z" fill="black"/>
<path d="M42.3075 74.657H37.6377V79.3267H42.3075V74.657Z" fill="black"/>
<path d="M56.3167 74.657H51.6469V79.3267H56.3167V74.657Z" fill="black"/>
<path d="M60.9864 74.657H56.3167V79.3267H60.9864V74.657Z" fill="black"/>
<path d="M65.6561 74.657H60.9864V79.3267H65.6561V74.657Z" fill="black"/>
<path d="M84.335 74.657H79.6653V79.3267H84.335V74.657Z" fill="black"/>
<path d="M103.014 74.657H98.3442V79.3267H103.014V74.657Z" fill="black"/>
<path d="M107.684 74.657H103.014V79.3267H107.684V74.657Z" fill="black"/>
<path d="M112.353 74.657H107.684V79.3267H112.353V74.657Z" fill="black"/>
<path d="M126.363 74.657H121.693V79.3267H126.363V74.657Z" fill="black"/>
<path d="M149.711 74.657H145.042V79.3267H149.711V74.657Z" fill="black"/>
<path d="M18.9588 79.3267H14.2891V83.9964H18.9588V79.3267Z" fill="black"/>
<path d="M32.968 79.3267H28.2983V83.9964H32.968V79.3267Z" fill="black"/>
<path d="M37.6377 79.3267H32.968V83.9964H37.6377V79.3267Z" fill="black"/>
<path d="M46.9772 79.3267H42.3075V83.9964H46.9772V79.3267Z" fill="black"/>
<path d="M60.9864 79.3267H56.3167V83.9964H60.9864V79.3267Z" fill="black"/>
<path d="M74.9956 79.3267H70.3259V83.9964H74.9956V79.3267Z" fill="black"/>
<path d="M79.6653 79.3267H74.9956V83.9964H79.6653V79.3267Z" fill="black"/>
<path d="M89.0048 79.3267H84.335V83.9964H89.0048V79.3267Z" fill="black"/>
<path d="M93.6745 79.3267H89.0048V83.9964H93.6745V79.3267Z" fill="black"/>
<path d="M98.3442 79.3267H93.6745V83.9964H98.3442V79.3267Z" fill="black"/>
<path d="M103.014 79.3267H98.3442V83.9964H103.014V79.3267Z" fill="black"/>
<path d="M107.684 79.3267H103.014V83.9964H107.684V79.3267Z" fill="black"/>
<path d="M112.353 79.3267H107.684V83.9964H112.353V79.3267Z" fill="black"/>
<path d="M121.693 79.3267H117.023V83.9964H121.693V79.3267Z" fill="black"/>
<path d="M126.363 79.3267H121.693V83.9964H126.363V79.3267Z" fill="black"/>
<path d="M149.711 79.3267H145.042V83.9964H149.711V79.3267Z" fill="black"/>
<path d="M18.9588 83.9964H14.2891V88.6662H18.9588V83.9964Z" fill="black"/>
<path d="M32.968 83.9964H28.2983V88.6662H32.968V83.9964Z" fill="black"/>
<path d="M42.3075 83.9964H37.6377V88.6662H42.3075V83.9964Z" fill="black"/>
<path d="M51.6469 83.9964H46.9772V88.6662H51.6469V83.9964Z" fill="black"/>
<path d="M56.3167 83.9964H51.6469V88.6662H56.3167V83.9964Z" fill="black"/>
<path d="M60.9864 83.9964H56.3167V88.6662H60.9864V83.9964Z" fill="black"/>
<path d="M74.9956 83.9964H70.3259V88.6662H74.9956V83.9964Z" fill="black"/>
<path d="M84.335 83.9964H79.6653V88.6662H84.335V83.9964Z" fill="black"/>
<path d="M93.6745 83.9964H89.0048V88.6662H93.6745V83.9964Z" fill="black"/>
<path d="M103.014 83.9964H98.3442V88.6662H103.014V83.9964Z" fill="black"/>
<path d="M117.023 83.9964H112.353V88.6662H117.023V83.9964Z" fill="black"/>
<path d="M121.693 83.9964H117.023V88.6662H121.693V83.9964Z" fill="black"/>
<path d="M126.363 83.9964H121.693V88.6662H126.363V83.9964Z" fill="black"/>
<path d="M145.042 83.9964H140.372V88.6662H145.042V83.9964Z" fill="black"/>
<path d="M23.6285 88.6662H18.9588V93.3359H23.6285V88.6662Z" fill="black"/>
<path d="M28.2983 88.6662H23.6285V93.3359H28.2983V88.6662Z" fill="black"/>
<path d="M37.6377 88.6662H32.968V93.3359H37.6377V88.6662Z" fill="black"/>
<path d="M42.3075 88.6662H37.6377V93.3359H42.3075V88.6662Z" fill="black"/>
<path d="M46.9772 88.6662H42.3075V93.3359H46.9772V88.6662Z" fill="black"/>
<path d="M51.6469 88.6662H46.9772V93.3359H51.6469V88.6662Z" fill="black"/>
<path d="M65.6561 88.6662H60.9864V93.3359H65.6561V88.6662Z" fill="black"/>
<path d="M70.3259 88.6662H65.6561V93.3359H70.3259V88.6662Z" fill="black"/>
<path d="M79.6653 88.6662H74.9956V93.3359H79.6653V88.6662Z" fill="black"/>
<path d="M84.335 88.6662H79.6653V93.3359H84.335V88.6662Z" fill="black"/>
<path d="M89.0048 88.6662H84.335V93.3359H89.0048V88.6662Z" fill="black"/>
<path d="M93.6745 88.6662H89.0048V93.3359H93.6745V88.6662Z" fill="black"/>
<path d="M98.3442 88.6662H93.6745V93.3359H98.3442V88.6662Z" fill="black"/>
<path d="M103.014 88.6662H98.3442V93.3359H103.014V88.6662Z" fill="black"/>
<path d="M112.353 88.6662H107.684V93.3359H112.353V88.6662Z" fill="black"/>
<path d="M117.023 88.6662H112.353V93.3359H117.023V88.6662Z" fill="black"/>
<path d="M131.032 88.6662H126.363V93.3359H131.032V88.6662Z" fill="black"/>
<path d="M23.6285 93.3359H18.9588V98.0056H23.6285V93.3359Z" fill="black"/>
<path d="M32.968 93.3359H28.2983V98.0056H32.968V93.3359Z" fill="black"/>
<path d="M42.3075 93.3359H37.6377V98.0056H42.3075V93.3359Z" fill="black"/>
<path d="M51.6469 93.3359H46.9772V98.0056H51.6469V93.3359Z" fill="black"/>
<path d="M60.9864 93.3359H56.3167V98.0056H60.9864V93.3359Z" fill="black"/>
<path d="M70.3259 93.3359H65.6561V98.0056H70.3259V93.3359Z" fill="black"/>
<path d="M79.6653 93.3359H74.9956V98.0056H79.6653V93.3359Z" fill="black"/>
<path d="M93.6745 93.3359H89.0048V98.0056H93.6745V93.3359Z" fill="black"/>
<path d="M98.3442 93.3359H93.6745V98.0056H98.3442V93.3359Z" fill="black"/>
<path d="M103.014 93.3359H98.3442V98.0056H103.014V93.3359Z" fill="black"/>
<path d="M121.693 93.3359H117.023V98.0056H121.693V93.3359Z" fill="black"/>
<path d="M140.372 93.3359H135.702V98.0056H140.372V93.3359Z" fill="black"/>
<path d="M145.042 93.3359H140.372V98.0056H145.042V93.3359Z" fill="black"/>
<path d="M149.711 93.3359H145.042V98.0056H149.711V93.3359Z" fill="black"/>
<path d="M32.968 98.0056H28.2983V102.675H32.968V98.0056Z" fill="black"/>
<path d="M42.3075 98.0056H37.6377V102.675H42.3075V98.0056Z" fill="black"/>
<path d="M46.9772 98.0056H42.3075V102.675H46.9772V98.0056Z" fill="black"/>
<path d="M51.6469 98.0056H46.9772V102.675H51.6469V98.0056Z" fill="black"/>
<path d="M60.9864 98.0056H56.3167V102.675H60.9864V98.0056Z" fill="black"/>
<path d="M65.6561 98.0056H60.9864V102.675H65.6561V98.0056Z" fill="black"/>
<path d="M98.3442 98.0056H93.6745V102.675H98.3442V98.0056Z" fill="black"/>
<path d="M112.353 98.0056H107.684V102.675H112.353V98.0056Z" fill="black"/>
<path d="M117.023 98.0056H112.353V102.675H117.023V98.0056Z" fill="black"/>
<path d="M126.363 98.0056H121.693V102.675H126.363V98.0056Z" fill="black"/>
<path d="M131.032 98.0056H126.363V102.675H131.032V98.0056Z" fill="black"/>
<path d="M135.702 98.0056H131.032V102.675H135.702V98.0056Z" fill="black"/>
<path d="M140.372 98.0056H135.702V102.675H140.372V98.0056Z" fill="black"/>
<path d="M145.042 98.0056H140.372V102.675H145.042V98.0056Z" fill="black"/>
<path d="M149.711 98.0056H145.042V102.675H149.711V98.0056Z" fill="black"/>
<path d="M18.9588 102.675H14.2891V107.345H18.9588V102.675Z" fill="black"/>
<path d="M32.968 102.675H28.2983V107.345H32.968V102.675Z" fill="black"/>
<path d="M37.6377 102.675H32.968V107.345H37.6377V102.675Z" fill="black"/>
<path d="M42.3075 102.675H37.6377V107.345H42.3075V102.675Z" fill="black"/>
<path d="M60.9864 102.675H56.3167V107.345H60.9864V102.675Z" fill="black"/>
<path d="M79.6653 102.675H74.9956V107.345H79.6653V102.675Z" fill="black"/>
<path d="M84.335 102.675H79.6653V107.345H84.335V102.675Z" fill="black"/>
<path d="M89.0048 102.675H84.335V107.345H89.0048V102.675Z" fill="black"/>
<path d="M93.6745 102.675H89.0048V107.345H93.6745V102.675Z" fill="black"/>
<path d="M121.693 102.675H117.023V107.345H121.693V102.675Z" fill="black"/>
<path d="M135.702 102.675H131.032V107.345H135.702V102.675Z" fill="black"/>
<path d="M149.711 102.675H145.042V107.345H149.711V102.675Z" fill="black"/>
<path d="M18.9588 107.345H14.2891V112.015H18.9588V107.345Z" fill="black"/>
<path d="M28.2983 107.345H23.6285V112.015H28.2983V107.345Z" fill="black"/>
<path d="M46.9772 107.345H42.3075V112.015H46.9772V107.345Z" fill="black"/>
<path d="M51.6469 107.345H46.9772V112.015H51.6469V107.345Z" fill="black"/>
<path d="M60.9864 107.345H56.3167V112.015H60.9864V107.345Z" fill="black"/>
<path d="M74.9956 107.345H70.3259V112.015H74.9956V107.345Z" fill="black"/>
<path d="M84.335 107.345H79.6653V112.015H84.335V107.345Z" fill="black"/>
<path d="M89.0048 107.345H84.335V112.015H89.0048V107.345Z" fill="black"/>
<path d="M93.6745 107.345H89.0048V112.015H93.6745V107.345Z" fill="black"/>
<path d="M103.014 107.345H98.3442V112.015H103.014V107.345Z" fill="black"/>
<path d="M112.353 107.345H107.684V112.015H112.353V107.345Z" fill="black"/>
<path d="M117.023 107.345H112.353V112.015H117.023V107.345Z" fill="black"/>
<path d="M121.693 107.345H117.023V112.015H121.693V107.345Z" fill="black"/>
<path d="M126.363 107.345H121.693V112.015H126.363V107.345Z" fill="black"/>
<path d="M131.032 107.345H126.363V112.015H131.032V107.345Z" fill="black"/>
<path d="M140.372 107.345H135.702V112.015H140.372V107.345Z" fill="black"/>
<path d="M145.042 107.345H140.372V112.015H145.042V107.345Z" fill="black"/>
<path d="M149.711 107.345H145.042V112.015H149.711V107.345Z" fill="black"/>
<path d="M60.9864 112.015H56.3167V116.685H60.9864V112.015Z" fill="black"/>
<path d="M65.6561 112.015H60.9864V116.685H65.6561V112.015Z" fill="black"/>
<path d="M70.3259 112.015H65.6561V116.685H70.3259V112.015Z" fill="black"/>
<path d="M84.335 112.015H79.6653V116.685H84.335V112.015Z" fill="black"/>
<path d="M89.0048 112.015H84.335V116.685H89.0048V112.015Z" fill="black"/>
<path d="M112.353 112.015H107.684V116.685H112.353V112.015Z" fill="black"/>
<path d="M131.032 112.015H126.363V116.685H131.032V112.015Z" fill="black"/>
<path d="M135.702 112.015H131.032V116.685H135.702V112.015Z" fill="black"/>
<path d="M145.042 112.015H140.372V116.685H145.042V112.015Z" fill="black"/>
<path d="M149.711 112.015H145.042V116.685H149.711V112.015Z" fill="black"/>
<path d="M18.9588 116.685H14.2891V121.354H18.9588V116.685Z" fill="black"/>
<path d="M23.6285 116.685H18.9588V121.354H23.6285V116.685Z" fill="black"/>
<path d="M28.2983 116.685H23.6285V121.354H28.2983V116.685Z" fill="black"/>
<path d="M32.968 116.685H28.2983V121.354H32.968V116.685Z" fill="black"/>
<path d="M37.6377 116.685H32.968V121.354H37.6377V116.685Z" fill="black"/>
<path d="M42.3075 116.685H37.6377V121.354H42.3075V116.685Z" fill="black"/>
<path d="M46.9772 116.685H42.3075V121.354H46.9772V116.685Z" fill="black"/>
<path d="M56.3167 116.685H51.6469V121.354H56.3167V116.685Z" fill="black"/>
<path d="M60.9864 116.685H56.3167V121.354H60.9864V116.685Z" fill="black"/>
<path d="M70.3259 116.685H65.6561V121.354H70.3259V116.685Z" fill="black"/>
<path d="M79.6653 116.685H74.9956V121.354H79.6653V116.685Z" fill="black"/>
<path d="M103.014 116.685H98.3442V121.354H103.014V116.685Z" fill="black"/>
<path d="M107.684 116.685H103.014V121.354H107.684V116.685Z" fill="black"/>
<path d="M112.353 116.685H107.684V121.354H112.353V116.685Z" fill="black"/>
<path d="M121.693 116.685H117.023V121.354H121.693V116.685Z" fill="black"/>
<path d="M131.032 116.685H126.363V121.354H131.032V116.685Z" fill="black"/>
<path d="M149.711 116.685H145.042V121.354H149.711V116.685Z" fill="black"/>
<path d="M18.9588 121.354H14.2891V126.024H18.9588V121.354Z" fill="black"/>
<path d="M46.9772 121.354H42.3075V126.024H46.9772V121.354Z" fill="black"/>
<path d="M60.9864 121.354H56.3167V126.024H60.9864V121.354Z" fill="black"/>
<path d="M65.6561 121.354H60.9864V126.024H65.6561V121.354Z" fill="black"/>
<path d="M70.3259 121.354H65.6561V126.024H70.3259V121.354Z" fill="black"/>
<path d="M74.9956 121.354H70.3259V126.024H74.9956V121.354Z" fill="black"/>
<path d="M93.6745 121.354H89.0048V126.024H93.6745V121.354Z" fill="black"/>
<path d="M98.3442 121.354H93.6745V126.024H98.3442V121.354Z" fill="black"/>
<path d="M103.014 121.354H98.3442V126.024H103.014V121.354Z" fill="black"/>
<path d="M112.353 121.354H107.684V126.024H112.353V121.354Z" fill="black"/>
<path d="M131.032 121.354H126.363V126.024H131.032V121.354Z" fill="black"/>
<path d="M140.372 121.354H135.702V126.024H140.372V121.354Z" fill="black"/>
<path d="M149.711 121.354H145.042V126.024H149.711V121.354Z" fill="black"/>
<path d="M18.9588 126.024H14.2891V130.694H18.9588V126.024Z" fill="black"/>
<path d="M28.2983 126.024H23.6285V130.694H28.2983V126.024Z" fill="black"/>
<path d="M32.968 126.024H28.2983V130.694H32.968V126.024Z" fill="black"/>
<path d="M37.6377 126.024H32.968V130.694H37.6377V126.024Z" fill="black"/>
<path d="M46.9772 126.024H42.3075V130.694H46.9772V126.024Z" fill="black"/>
<path d="M60.9864 126.024H56.3167V130.694H60.9864V126.024Z" fill="black"/>
<path d="M84.335 126.024H79.6653V130.694H84.335V126.024Z" fill="black"/>
<path d="M89.0048 126.024H84.335V130.694H89.0048V126.024Z" fill="black"/>
<path d="M93.6745 126.024H89.0048V130.694H93.6745V126.024Z" fill="black"/>
<path d="M103.014 126.024H98.3442V130.694H103.014V126.024Z" fill="black"/>
<path d="M112.353 126.024H107.684V130.694H112.353V126.024Z" fill="black"/>
<path d="M117.023 126.024H112.353V130.694H117.023V126.024Z" fill="black"/>
<path d="M121.693 126.024H117.023V130.694H121.693V126.024Z" fill="black"/>
<path d="M126.363 126.024H121.693V130.694H126.363V126.024Z" fill="black"/>
<path d="M131.032 126.024H126.363V130.694H131.032V126.024Z" fill="black"/>
<path d="M135.702 126.024H131.032V130.694H135.702V126.024Z" fill="black"/>
<path d="M145.042 126.024H140.372V130.694H145.042V126.024Z" fill="black"/>
<path d="M149.711 126.024H145.042V130.694H149.711V126.024Z" fill="black"/>
<path d="M18.9588 130.694H14.2891V135.363H18.9588V130.694Z" fill="black"/>
<path d="M28.2983 130.694H23.6285V135.363H28.2983V130.694Z" fill="black"/>
<path d="M32.968 130.694H28.2983V135.363H32.968V130.694Z" fill="black"/>
<path d="M37.6377 130.694H32.968V135.363H37.6377V130.694Z" fill="black"/>
<path d="M46.9772 130.694H42.3075V135.363H46.9772V130.694Z" fill="black"/>
<path d="M56.3167 130.694H51.6469V135.363H56.3167V130.694Z" fill="black"/>
<path d="M74.9956 130.694H70.3259V135.363H74.9956V130.694Z" fill="black"/>
<path d="M93.6745 130.694H89.0048V135.363H93.6745V130.694Z" fill="black"/>
<path d="M98.3442 130.694H93.6745V135.363H98.3442V130.694Z" fill="black"/>
<path d="M112.353 130.694H107.684V135.363H112.353V130.694Z" fill="black"/>
<path d="M117.023 130.694H112.353V135.363H117.023V130.694Z" fill="black"/>
<path d="M121.693 130.694H117.023V135.363H121.693V130.694Z" fill="black"/>
<path d="M126.363 130.694H121.693V135.363H126.363V130.694Z" fill="black"/>
<path d="M135.702 130.694H131.032V135.363H135.702V130.694Z" fill="black"/>
<path d="M145.042 130.694H140.372V135.363H145.042V130.694Z" fill="black"/>
<path d="M18.9588 135.363H14.2891V140.033H18.9588V135.363Z" fill="black"/>
<path d="M28.2983 135.363H23.6285V140.033H28.2983V135.363Z" fill="black"/>
<path d="M32.968 135.363H28.2983V140.033H32.968V135.363Z" fill="black"/>
<path d="M37.6377 135.363H32.968V140.033H37.6377V135.363Z" fill="black"/>
<path d="M46.9772 135.363H42.3075V140.033H46.9772V135.363Z" fill="black"/>
<path d="M65.6561 135.363H60.9864V140.033H65.6561V135.363Z" fill="black"/>
<path d="M74.9956 135.363H70.3259V140.033H74.9956V135.363Z" fill="black"/>
<path d="M79.6653 135.363H74.9956V140.033H79.6653V135.363Z" fill="black"/>
<path d="M84.335 135.363H79.6653V140.033H84.335V135.363Z" fill="black"/>
<path d="M98.3442 135.363H93.6745V140.033H98.3442V135.363Z" fill="black"/>
<path d="M103.014 135.363H98.3442V140.033H103.014V135.363Z" fill="black"/>
<path d="M107.684 135.363H103.014V140.033H107.684V135.363Z" fill="black"/>
<path d="M112.353 135.363H107.684V140.033H112.353V135.363Z" fill="black"/>
<path d="M117.023 135.363H112.353V140.033H117.023V135.363Z" fill="black"/>
<path d="M131.032 135.363H126.363V140.033H131.032V135.363Z" fill="black"/>
<path d="M140.372 135.363H135.702V140.033H140.372V135.363Z" fill="black"/>
<path d="M18.9588 140.033H14.2891V144.703H18.9588V140.033Z" fill="black"/>
<path d="M46.9772 140.033H42.3075V144.703H46.9772V140.033Z" fill="black"/>
<path d="M56.3167 140.033H51.6469V144.703H56.3167V140.033Z" fill="black"/>
<path d="M65.6561 140.033H60.9864V144.703H65.6561V140.033Z" fill="black"/>
<path d="M79.6653 140.033H74.9956V144.703H79.6653V140.033Z" fill="black"/>
<path d="M84.335 140.033H79.6653V144.703H84.335V140.033Z" fill="black"/>
<path d="M89.0048 140.033H84.335V144.703H89.0048V140.033Z" fill="black"/>
<path d="M93.6745 140.033H89.0048V144.703H93.6745V140.033Z" fill="black"/>
<path d="M98.3442 140.033H93.6745V144.703H98.3442V140.033Z" fill="black"/>
<path d="M117.023 140.033H112.353V144.703H117.023V140.033Z" fill="black"/>
<path d="M121.693 140.033H117.023V144.703H121.693V140.033Z" fill="black"/>
<path d="M131.032 140.033H126.363V144.703H131.032V140.033Z" fill="black"/>
<path d="M135.702 140.033H131.032V144.703H135.702V140.033Z" fill="black"/>
<path d="M145.042 140.033H140.372V144.703H145.042V140.033Z" fill="black"/>
<path d="M149.711 140.033H145.042V144.703H149.711V140.033Z" fill="black"/>
<path d="M18.9588 144.703H14.2891V149.373H18.9588V144.703Z" fill="black"/>
<path d="M23.6285 144.703H18.9588V149.373H23.6285V144.703Z" fill="black"/>
<path d="M28.2983 144.703H23.6285V149.373H28.2983V144.703Z" fill="black"/>
<path d="M32.968 144.703H28.2983V149.373H32.968V144.703Z" fill="black"/>
<path d="M37.6377 144.703H32.968V149.373H37.6377V144.703Z" fill="black"/>
<path d="M42.3075 144.703H37.6377V149.373H42.3075V144.703Z" fill="black"/>
<path d="M46.9772 144.703H42.3075V149.373H46.9772V144.703Z" fill="black"/>
<path d="M56.3167 144.703H51.6469V149.373H56.3167V144.703Z" fill="black"/>
<path d="M60.9864 144.703H56.3167V149.373H60.9864V144.703Z" fill="black"/>
<path d="M70.3259 144.703H65.6561V149.373H70.3259V144.703Z" fill="black"/>
<path d="M79.6653 144.703H74.9956V149.373H79.6653V144.703Z" fill="black"/>
<path d="M84.335 144.703H79.6653V149.373H84.335V144.703Z" fill="black"/>
<path d="M117.023 144.703H112.353V149.373H117.023V144.703Z" fill="black"/>
<path d="M126.363 144.703H121.693V149.373H126.363V144.703Z" fill="black"/>
<path d="M131.032 144.703H126.363V149.373H131.032V144.703Z" fill="black"/>
<path d="M140.372 144.703H135.702V149.373H140.372V144.703Z" fill="black"/>
</g>
<rect x="0.904465" y="0.565842" width="162.191" height="162.191" rx="1.6999" stroke="#E6EAED" stroke-width="0.485687"/>
<defs>
<clipPath id="clip0_7049_6127">
<rect x="0.661621" y="0.322998" width="162.677" height="162.677" rx="1.94275" fill="white"/>
</clipPath>
</defs>
</svg>
