<svg width="512" height="195" viewBox="0 0 512 195" fill="none" xmlns="http://www.w3.org/2000/svg">
<g filter="url(#filter0_dd_14752_152249)">
<g clip-path="url(#clip0_14752_152249)">
<path d="M6 10.7958C6 4.96181 10.7294 0.232422 16.5634 0.232422H495.437C501.271 0.232422 506 4.96181 506 10.7958V173.204C506 179.038 501.271 183.768 495.437 183.768H16.5634C10.7294 183.768 6 179.038 6 173.204V10.7958Z" fill="white"/>
<mask id="path-3-inside-1_14752_152249" fill="white">
<path d="M6 0.232422H506V42.4859H6V0.232422Z"/>
</mask>
<path d="M6 0.232422H506V42.4859H6V0.232422Z" fill="white"/>
<path d="M506 42.0458H6V42.9261H506V42.0458Z" fill="#E6EAED" mask="url(#path-3-inside-1_14752_152249)"/>
<rect x="16.5635" y="9.03516" width="49.2958" height="7.70246" rx="3.85123" fill="#E6E6E6"/>
<rect x="16.5635" y="23.1196" width="110.915" height="6.16197" rx="3.08099" fill="#E6E6E6"/>
<mask id="path-7-inside-2_14752_152249" fill="white">
<path d="M6 42.4858H90.8372V63.6126H6V42.4858Z"/>
</mask>
<path d="M6 42.4858H90.8372V63.6126H6V42.4858Z" fill="#F2F2F2"/>
<path d="M90.8372 63.1725H6V64.0527H90.8372V63.1725Z" fill="#E6EAED" mask="url(#path-7-inside-2_14752_152249)"/>
<rect x="16.5635" y="48.2078" width="25.5282" height="6.16197" rx="3.08099" fill="#E6E6E6"/>
<mask id="path-10-inside-3_14752_152249" fill="white">
<path d="M6 63.6125H90.8372V95.3027H6V63.6125Z"/>
</mask>
<path d="M6 63.6125H90.8372V95.3027H6V63.6125Z" fill="white"/>
<path d="M90.8372 94.8625H6V95.7428H90.8372V94.8625Z" fill="#E6EAED" mask="url(#path-10-inside-3_14752_152249)"/>
<rect x="16.5635" y="76.3767" width="25.5282" height="6.16197" rx="3.08099" fill="#E6E6E6"/>
<mask id="path-13-inside-4_14752_152249" fill="white">
<path d="M6 95.3027H90.8372V126.993H6V95.3027Z"/>
</mask>
<path d="M6 95.3027H90.8372V126.993H6V95.3027Z" fill="white"/>
<path d="M90.8372 126.553H6V127.433H90.8372V126.553Z" fill="#E6EAED" mask="url(#path-13-inside-4_14752_152249)"/>
<rect x="16.5635" y="108.067" width="28.169" height="6.16197" rx="3.08099" fill="#E6E6E6"/>
<mask id="path-16-inside-5_14752_152249" fill="white">
<path d="M90.8372 42.4858H175.674V63.6126H90.8372V42.4858Z"/>
</mask>
<path d="M90.8372 42.4858H175.674V63.6126H90.8372V42.4858Z" fill="#F2F2F2"/>
<path d="M175.674 63.1725H90.8372V64.0527H175.674V63.1725Z" fill="#E6EAED" mask="url(#path-16-inside-5_14752_152249)"/>
<rect x="101.401" y="48.2075" width="25.5282" height="6.16197" rx="3.08099" fill="#E6E6E6"/>
<mask id="path-19-inside-6_14752_152249" fill="white">
<path d="M90.8372 63.6125H175.674V95.3027H90.8372V63.6125Z"/>
</mask>
<path d="M90.8372 63.6125H175.674V95.3027H90.8372V63.6125Z" fill="white"/>
<path d="M175.674 94.8625H90.8372V95.7428H175.674V94.8625Z" fill="#E6EAED" mask="url(#path-19-inside-6_14752_152249)"/>
<rect x="101.401" y="76.3767" width="25.5282" height="6.16197" rx="3.08099" fill="#E6E6E6"/>
<mask id="path-22-inside-7_14752_152249" fill="white">
<path d="M90.8372 95.3027H175.674V126.993H90.8372V95.3027Z"/>
</mask>
<path d="M90.8372 95.3027H175.674V126.993H90.8372V95.3027Z" fill="white"/>
<path d="M175.674 126.553H90.8372V127.433H175.674V126.553Z" fill="#E6EAED" mask="url(#path-22-inside-7_14752_152249)"/>
<rect x="101.401" y="108.067" width="39.1725" height="6.16197" rx="3.08099" fill="#E6E6E6"/>
<mask id="path-25-inside-8_14752_152249" fill="white">
<path d="M175.674 42.4858H336.326V63.6126H175.674V42.4858Z"/>
</mask>
<path d="M175.674 42.4858H336.326V63.6126H175.674V42.4858Z" fill="#F2F2F2"/>
<path d="M336.326 63.1725H175.674V64.0527H336.326V63.1725Z" fill="#E6EAED" mask="url(#path-25-inside-8_14752_152249)"/>
<rect x="186.238" y="48.2075" width="25.5282" height="6.16197" rx="3.08099" fill="#E6E6E6"/>
<mask id="path-28-inside-9_14752_152249" fill="white">
<path d="M175.674 63.6125H327.523V95.3027H175.674V63.6125Z"/>
</mask>
<path d="M175.674 63.6125H327.523V95.3027H175.674V63.6125Z" fill="white"/>
<path d="M327.523 94.8625H175.674V95.7428H327.523V94.8625Z" fill="#E6EAED" mask="url(#path-28-inside-9_14752_152249)"/>
<rect x="186.238" y="76.3767" width="130.722" height="6.16197" rx="3.08099" fill="#E6E6E6"/>
<mask id="path-31-inside-10_14752_152249" fill="white">
<path d="M175.674 95.3027H336.326V126.993H175.674V95.3027Z"/>
</mask>
<path d="M175.674 95.3027H336.326V126.993H175.674V95.3027Z" fill="white"/>
<path d="M336.326 126.553H175.674V127.433H336.326V126.553Z" fill="#E6EAED" mask="url(#path-31-inside-10_14752_152249)"/>
<rect x="186.238" y="108.067" width="139.525" height="6.16197" rx="3.08099" fill="#E6E6E6"/>
<mask id="path-34-inside-11_14752_152249" fill="white">
<path d="M336.326 42.4858H421.163V63.6126H336.326V42.4858Z"/>
</mask>
<path d="M336.326 42.4858H421.163V63.6126H336.326V42.4858Z" fill="#F2F2F2"/>
<path d="M421.163 63.1725H336.326V64.0527H421.163V63.1725Z" fill="#E6EAED" mask="url(#path-34-inside-11_14752_152249)"/>
<rect x="346.889" y="48.2075" width="25.5282" height="6.16197" rx="3.08099" fill="#E6E6E6"/>
<mask id="path-37-inside-12_14752_152249" fill="white">
<path d="M336.326 63.6125H421.163V95.3027H336.326V63.6125Z"/>
</mask>
<path d="M336.326 63.6125H421.163V95.3027H336.326V63.6125Z" fill="white"/>
<path d="M421.163 94.8625H336.326V95.7428H421.163V94.8625Z" fill="#E6EAED" mask="url(#path-37-inside-12_14752_152249)"/>
<rect x="346.889" y="76.3767" width="25.5282" height="6.16197" rx="3.08099" fill="#E6E6E6"/>
<mask id="path-40-inside-13_14752_152249" fill="white">
<path d="M336.326 95.3027H421.163V126.993H336.326V95.3027Z"/>
</mask>
<path d="M336.326 95.3027H421.163V126.993H336.326V95.3027Z" fill="white"/>
<path d="M421.163 126.553H336.326V127.433H421.163V126.553Z" fill="#E6EAED" mask="url(#path-40-inside-13_14752_152249)"/>
<rect x="346.889" y="108.067" width="25.5282" height="6.16197" rx="3.08099" fill="#E6E6E6"/>
<mask id="path-43-inside-14_14752_152249" fill="white">
<path d="M421.163 42.4858H506V63.6126H421.163V42.4858Z"/>
</mask>
<path d="M421.163 42.4858H506V63.6126H421.163V42.4858Z" fill="#F2F2F2"/>
<path d="M506 63.1725H421.163V64.0527H506V63.1725Z" fill="#E6EAED" mask="url(#path-43-inside-14_14752_152249)"/>
<rect x="431.726" y="48.2075" width="25.5282" height="6.16197" rx="3.08099" fill="#E6E6E6"/>
<mask id="path-46-inside-15_14752_152249" fill="white">
<path d="M421.163 63.6125H506V95.3027H421.163V63.6125Z"/>
</mask>
<path d="M421.163 63.6125H506V95.3027H421.163V63.6125Z" fill="white"/>
<path d="M506 94.8625H421.163V95.7428H506V94.8625Z" fill="#E6EAED" mask="url(#path-46-inside-15_14752_152249)"/>
<rect x="431.616" y="74.616" width="25.5282" height="6.16197" rx="3.08099" fill="#E6E6E6"/>
<mask id="path-49-inside-16_14752_152249" fill="white">
<path d="M421.163 95.3027H506V126.993H421.163V95.3027Z"/>
</mask>
<path d="M421.163 95.3027H506V126.993H421.163V95.3027Z" fill="white"/>
<path d="M506 126.553H421.163V127.433H506V126.553Z" fill="#E6EAED" mask="url(#path-49-inside-16_14752_152249)"/>
<rect x="431.616" y="106.306" width="25.5282" height="6.16197" rx="3.08099" fill="#E6E6E6"/>
<path d="M188.613 148.12C188.613 146.175 190.189 144.599 192.134 144.599H226.218C228.163 144.599 229.74 146.175 229.74 148.12V162.641C229.74 164.586 228.163 166.162 226.218 166.162H192.134C190.189 166.162 188.613 164.586 188.613 162.641V148.12Z" fill="white"/>
<path d="M188.613 148.12C188.613 146.175 190.189 144.599 192.134 144.599H226.218C228.163 144.599 229.74 146.175 229.74 148.12V162.641C229.74 164.586 228.163 166.162 226.218 166.162H192.134C190.189 166.162 188.613 164.586 188.613 162.641V148.12Z" stroke="#01C7B1" stroke-width="0.440141" stroke-linecap="round"/>
<path d="M200.197 157.88C200.042 157.88 199.923 157.84 199.838 157.761C199.758 157.676 199.719 157.556 199.719 157.401V153.394C199.719 153.24 199.758 153.122 199.838 153.042C199.923 152.958 200.042 152.916 200.197 152.916H201.564C202.395 152.916 203.035 153.129 203.486 153.556C203.942 153.984 204.169 154.596 204.169 155.394C204.169 155.794 204.111 156.148 203.993 156.458C203.88 156.763 203.711 157.021 203.486 157.232C203.265 157.444 202.993 157.606 202.669 157.718C202.35 157.826 201.981 157.88 201.564 157.88H200.197ZM200.62 157.134H201.507C201.798 157.134 202.05 157.099 202.261 157.028C202.477 156.953 202.655 156.845 202.796 156.704C202.942 156.559 203.05 156.378 203.12 156.162C203.19 155.941 203.226 155.686 203.226 155.394C203.226 154.812 203.082 154.378 202.796 154.092C202.51 153.805 202.08 153.662 201.507 153.662H200.62V157.134ZM205.562 157.88C205.407 157.88 205.287 157.84 205.202 157.761C205.123 157.676 205.083 157.556 205.083 157.401V153.394C205.083 153.24 205.123 153.122 205.202 153.042C205.287 152.958 205.407 152.916 205.562 152.916H208.076C208.193 152.916 208.282 152.946 208.343 153.007C208.409 153.068 208.442 153.155 208.442 153.268C208.442 153.385 208.409 153.477 208.343 153.542C208.282 153.603 208.193 153.634 208.076 153.634H205.949V155H207.921C208.043 155 208.134 155.031 208.195 155.092C208.256 155.153 208.287 155.242 208.287 155.359C208.287 155.477 208.256 155.566 208.195 155.627C208.134 155.688 208.043 155.718 207.921 155.718H205.949V157.162H208.076C208.193 157.162 208.282 157.193 208.343 157.254C208.409 157.315 208.442 157.404 208.442 157.521C208.442 157.639 208.409 157.728 208.343 157.789C208.282 157.85 208.193 157.88 208.076 157.88H205.562ZM209.707 157.937C209.571 157.937 209.465 157.899 209.39 157.824C209.32 157.749 209.285 157.641 209.285 157.5V153.31C209.285 153.164 209.32 153.054 209.39 152.979C209.465 152.899 209.562 152.859 209.679 152.859C209.787 152.859 209.867 152.88 209.919 152.923C209.975 152.96 210.041 153.026 210.116 153.12L212.813 156.62H212.63V153.289C212.63 153.153 212.665 153.047 212.735 152.972C212.811 152.897 212.916 152.859 213.052 152.859C213.188 152.859 213.292 152.897 213.362 152.972C213.433 153.047 213.468 153.153 213.468 153.289V157.514C213.468 157.646 213.435 157.749 213.369 157.824C213.303 157.899 213.214 157.937 213.102 157.937C212.994 157.937 212.907 157.916 212.841 157.873C212.78 157.831 212.712 157.763 212.637 157.669L209.947 154.169H210.123V157.5C210.123 157.641 210.088 157.749 210.017 157.824C209.947 157.899 209.843 157.937 209.707 157.937ZM216.186 157.937C216.041 157.937 215.928 157.897 215.848 157.817C215.773 157.732 215.736 157.615 215.736 157.465V155.324L215.926 155.866L214.229 153.479C214.168 153.394 214.139 153.305 214.144 153.211C214.154 153.113 214.193 153.031 214.264 152.965C214.334 152.894 214.433 152.859 214.56 152.859C214.654 152.859 214.738 152.883 214.813 152.93C214.893 152.977 214.968 153.049 215.039 153.148L216.299 154.937H216.102L217.37 153.148C217.445 153.045 217.517 152.972 217.588 152.93C217.658 152.883 217.745 152.859 217.848 152.859C217.97 152.859 218.064 152.892 218.13 152.958C218.201 153.019 218.236 153.096 218.236 153.19C218.24 153.284 218.208 153.383 218.137 153.486L216.454 155.866L216.637 155.324V157.465C216.637 157.779 216.487 157.937 216.186 157.937Z" fill="#01C7B1"/>
<path d="M233.261 148.12C233.261 146.175 234.837 144.599 236.782 144.599H319.866C321.811 144.599 323.388 146.175 323.388 148.12V162.641C323.388 164.586 321.811 166.162 319.866 166.162H236.782C234.837 166.162 233.261 164.586 233.261 162.641V148.12Z" fill="#01C7B1"/>
<path d="M244.416 157.937C244.303 157.937 244.212 157.911 244.141 157.859C244.075 157.808 244.035 157.74 244.021 157.655C244.007 157.566 244.024 157.467 244.071 157.359L245.93 153.24C245.991 153.103 246.064 153.007 246.148 152.951C246.237 152.89 246.338 152.859 246.451 152.859C246.559 152.859 246.655 152.89 246.74 152.951C246.829 153.007 246.904 153.103 246.965 153.24L248.831 157.359C248.883 157.467 248.902 157.566 248.888 157.655C248.874 157.744 248.834 157.815 248.768 157.866C248.702 157.913 248.615 157.937 248.507 157.937C248.376 157.937 248.273 157.906 248.197 157.845C248.127 157.779 248.064 157.681 248.007 157.549L247.55 156.486L247.93 156.732H244.958L245.338 156.486L244.888 157.549C244.827 157.686 244.763 157.784 244.697 157.845C244.632 157.906 244.538 157.937 244.416 157.937ZM246.437 153.894L245.451 156.24L245.268 156.014H247.62L247.444 156.24L246.451 153.894H246.437ZM250.058 157.937C249.912 157.937 249.799 157.897 249.72 157.817C249.644 157.732 249.607 157.617 249.607 157.472V153.373C249.607 153.223 249.647 153.11 249.727 153.035C249.806 152.955 249.919 152.916 250.065 152.916H251.762C252.306 152.916 252.727 153.052 253.022 153.324C253.318 153.596 253.466 153.977 253.466 154.465C253.466 154.953 253.318 155.336 253.022 155.613C252.727 155.885 252.306 156.021 251.762 156.021H250.508V157.472C250.508 157.617 250.471 157.732 250.396 157.817C250.321 157.897 250.208 157.937 250.058 157.937ZM250.508 155.31H251.621C251.94 155.31 252.182 155.24 252.346 155.099C252.511 154.953 252.593 154.742 252.593 154.465C252.593 154.188 252.511 153.979 252.346 153.838C252.182 153.697 251.94 153.627 251.621 153.627H250.508V155.31ZM254.652 157.937C254.506 157.937 254.393 157.897 254.314 157.817C254.238 157.732 254.201 157.617 254.201 157.472V153.373C254.201 153.223 254.241 153.11 254.321 153.035C254.4 152.955 254.513 152.916 254.659 152.916H256.356C256.9 152.916 257.321 153.052 257.616 153.324C257.912 153.596 258.06 153.977 258.06 154.465C258.06 154.953 257.912 155.336 257.616 155.613C257.321 155.885 256.9 156.021 256.356 156.021H255.102V157.472C255.102 157.617 255.065 157.732 254.99 157.817C254.914 157.897 254.802 157.937 254.652 157.937ZM255.102 155.31H256.215C256.534 155.31 256.776 155.24 256.94 155.099C257.105 154.953 257.187 154.742 257.187 154.465C257.187 154.188 257.105 153.979 256.94 153.838C256.776 153.697 256.534 153.627 256.215 153.627H255.102V155.31ZM259.246 157.937C259.1 157.937 258.987 157.897 258.908 157.817C258.832 157.732 258.795 157.617 258.795 157.472V153.373C258.795 153.223 258.835 153.11 258.915 153.035C258.994 152.955 259.107 152.916 259.253 152.916H260.95C261.494 152.916 261.915 153.047 262.21 153.31C262.506 153.568 262.654 153.932 262.654 154.401C262.654 154.707 262.586 154.97 262.45 155.19C262.318 155.411 262.126 155.58 261.872 155.697C261.619 155.815 261.311 155.873 260.95 155.873L261.013 155.768H261.246C261.438 155.768 261.605 155.815 261.746 155.909C261.891 156.002 262.018 156.15 262.126 156.352L262.654 157.331C262.71 157.43 262.736 157.526 262.731 157.62C262.727 157.714 262.692 157.791 262.626 157.852C262.56 157.909 262.464 157.937 262.337 157.937C262.21 157.937 262.107 157.911 262.027 157.859C261.947 157.803 261.877 157.718 261.816 157.606L261.105 156.296C261.02 156.136 260.919 156.031 260.802 155.979C260.689 155.923 260.544 155.894 260.365 155.894H259.696V157.472C259.696 157.617 259.659 157.732 259.584 157.817C259.508 157.897 259.396 157.937 259.246 157.937ZM259.696 155.225H260.795C261.119 155.225 261.363 155.16 261.527 155.028C261.696 154.892 261.781 154.69 261.781 154.423C261.781 154.16 261.696 153.963 261.527 153.831C261.363 153.695 261.119 153.627 260.795 153.627H259.696V155.225ZM265.814 157.951C265.335 157.951 264.915 157.845 264.553 157.634C264.196 157.423 263.919 157.127 263.722 156.747C263.525 156.362 263.426 155.911 263.426 155.394C263.426 155.005 263.483 154.655 263.595 154.345C263.708 154.031 263.868 153.763 264.074 153.542C264.285 153.317 264.537 153.146 264.828 153.028C265.123 152.906 265.452 152.845 265.814 152.845C266.297 152.845 266.717 152.951 267.074 153.162C267.431 153.369 267.708 153.662 267.905 154.042C268.102 154.423 268.201 154.871 268.201 155.387C268.201 155.777 268.145 156.129 268.032 156.444C267.919 156.758 267.757 157.028 267.546 157.254C267.339 157.479 267.088 157.653 266.792 157.775C266.501 157.892 266.175 157.951 265.814 157.951ZM265.814 157.176C266.119 157.176 266.377 157.106 266.588 156.965C266.804 156.824 266.969 156.62 267.081 156.352C267.199 156.085 267.257 155.765 267.257 155.394C267.257 154.831 267.131 154.394 266.877 154.085C266.628 153.775 266.274 153.62 265.814 153.62C265.513 153.62 265.255 153.69 265.039 153.831C264.823 153.967 264.656 154.169 264.539 154.437C264.426 154.7 264.37 155.019 264.37 155.394C264.37 155.953 264.497 156.39 264.75 156.704C265.004 157.019 265.358 157.176 265.814 157.176ZM270.966 157.937C270.839 157.937 270.733 157.909 270.649 157.852C270.569 157.791 270.503 157.702 270.451 157.585L268.613 153.458C268.562 153.34 268.548 153.237 268.571 153.148C268.595 153.059 268.644 152.988 268.719 152.937C268.794 152.885 268.883 152.859 268.987 152.859C269.123 152.859 269.224 152.89 269.29 152.951C269.36 153.007 269.419 153.094 269.466 153.211L271.135 157.078H270.832L272.494 153.204C272.545 153.092 272.606 153.007 272.677 152.951C272.747 152.89 272.846 152.859 272.973 152.859C273.076 152.859 273.16 152.885 273.226 152.937C273.297 152.988 273.341 153.059 273.36 153.148C273.379 153.237 273.362 153.34 273.311 153.458L271.473 157.585C271.421 157.702 271.355 157.791 271.275 157.852C271.2 157.909 271.097 157.937 270.966 157.937ZM274.493 157.88C274.338 157.88 274.218 157.84 274.134 157.761C274.054 157.676 274.014 157.556 274.014 157.401V153.394C274.014 153.24 274.054 153.122 274.134 153.042C274.218 152.958 274.338 152.916 274.493 152.916H277.007C277.124 152.916 277.214 152.946 277.275 153.007C277.34 153.068 277.373 153.155 277.373 153.268C277.373 153.385 277.34 153.477 277.275 153.542C277.214 153.603 277.124 153.634 277.007 153.634H274.88V155H276.852C276.974 155 277.066 155.031 277.127 155.092C277.188 155.153 277.218 155.242 277.218 155.359C277.218 155.477 277.188 155.566 277.127 155.627C277.066 155.688 276.974 155.718 276.852 155.718H274.88V157.162H277.007C277.124 157.162 277.214 157.193 277.275 157.254C277.34 157.315 277.373 157.404 277.373 157.521C277.373 157.639 277.34 157.728 277.275 157.789C277.214 157.85 277.124 157.88 277.007 157.88H274.493ZM280.579 157.937C280.433 157.937 280.32 157.897 280.241 157.817C280.165 157.732 280.128 157.617 280.128 157.472V153.373C280.128 153.223 280.168 153.11 280.248 153.035C280.327 152.955 280.44 152.916 280.586 152.916H282.283C282.827 152.916 283.248 153.047 283.543 153.31C283.839 153.568 283.987 153.932 283.987 154.401C283.987 154.707 283.919 154.97 283.783 155.19C283.651 155.411 283.459 155.58 283.205 155.697C282.952 155.815 282.644 155.873 282.283 155.873L282.346 155.768H282.579C282.771 155.768 282.938 155.815 283.079 155.909C283.224 156.002 283.351 156.15 283.459 156.352L283.987 157.331C284.043 157.43 284.069 157.526 284.065 157.62C284.06 157.714 284.025 157.791 283.959 157.852C283.893 157.909 283.797 157.937 283.67 157.937C283.543 157.937 283.44 157.911 283.36 157.859C283.28 157.803 283.21 157.718 283.149 157.606L282.438 156.296C282.353 156.136 282.252 156.031 282.135 155.979C282.022 155.923 281.877 155.894 281.698 155.894H281.029V157.472C281.029 157.617 280.992 157.732 280.917 157.817C280.842 157.897 280.729 157.937 280.579 157.937ZM281.029 155.225H282.128C282.452 155.225 282.696 155.16 282.86 155.028C283.029 154.892 283.114 154.69 283.114 154.423C283.114 154.16 283.029 153.963 282.86 153.831C282.696 153.695 282.452 153.627 282.128 153.627H281.029V155.225ZM285.435 157.88C285.28 157.88 285.16 157.84 285.075 157.761C284.996 157.676 284.956 157.556 284.956 157.401V153.394C284.956 153.24 284.996 153.122 285.075 153.042C285.16 152.958 285.28 152.916 285.435 152.916H287.949C288.066 152.916 288.155 152.946 288.216 153.007C288.282 153.068 288.315 153.155 288.315 153.268C288.315 153.385 288.282 153.477 288.216 153.542C288.155 153.603 288.066 153.634 287.949 153.634H285.822V155H287.794C287.916 155 288.007 155.031 288.068 155.092C288.129 155.153 288.16 155.242 288.16 155.359C288.16 155.477 288.129 155.566 288.068 155.627C288.007 155.688 287.916 155.718 287.794 155.718H285.822V157.162H287.949C288.066 157.162 288.155 157.193 288.216 157.254C288.282 157.315 288.315 157.404 288.315 157.521C288.315 157.639 288.282 157.728 288.216 157.789C288.155 157.85 288.066 157.88 287.949 157.88H285.435ZM293.278 158.676C293.343 158.779 293.369 158.873 293.355 158.958C293.341 159.042 293.303 159.113 293.242 159.169C293.181 159.23 293.106 159.268 293.017 159.282C292.928 159.301 292.839 159.291 292.749 159.254C292.66 159.221 292.585 159.155 292.524 159.056L292.038 158.275C291.972 158.167 291.883 158.085 291.771 158.028C291.663 157.977 291.529 157.951 291.369 157.951L292.066 157.676C292.287 157.676 292.463 157.716 292.594 157.796C292.726 157.871 292.853 158.005 292.975 158.197L293.278 158.676ZM291.376 157.951C290.897 157.951 290.477 157.845 290.116 157.634C289.759 157.423 289.482 157.127 289.285 156.747C289.087 156.362 288.989 155.911 288.989 155.394C288.989 155.005 289.045 154.655 289.158 154.345C289.271 154.031 289.43 153.763 289.637 153.542C289.848 153.317 290.099 153.146 290.39 153.028C290.686 152.906 291.015 152.845 291.376 152.845C291.86 152.845 292.28 152.951 292.637 153.162C292.994 153.369 293.271 153.662 293.468 154.042C293.665 154.423 293.763 154.871 293.763 155.387C293.763 155.777 293.707 156.129 293.594 156.444C293.482 156.758 293.32 157.028 293.109 157.254C292.902 157.479 292.651 157.653 292.355 157.775C292.064 157.892 291.738 157.951 291.376 157.951ZM291.376 157.176C291.681 157.176 291.94 157.106 292.151 156.965C292.367 156.824 292.531 156.62 292.644 156.352C292.761 156.085 292.82 155.765 292.82 155.394C292.82 154.831 292.693 154.394 292.44 154.085C292.191 153.775 291.836 153.62 291.376 153.62C291.076 153.62 290.817 153.69 290.602 153.831C290.386 153.967 290.219 154.169 290.102 154.437C289.989 154.7 289.932 155.019 289.932 155.394C289.932 155.953 290.059 156.39 290.313 156.704C290.566 157.019 290.921 157.176 291.376 157.176ZM296.743 157.951C296.401 157.951 296.098 157.906 295.835 157.817C295.577 157.728 295.358 157.596 295.18 157.423C295.002 157.244 294.868 157.024 294.779 156.761C294.689 156.498 294.645 156.193 294.645 155.845V153.317C294.645 153.162 294.682 153.047 294.758 152.972C294.837 152.897 294.95 152.859 295.096 152.859C295.241 152.859 295.351 152.897 295.427 152.972C295.506 153.047 295.546 153.162 295.546 153.317V155.838C295.546 156.284 295.647 156.62 295.849 156.845C296.056 157.066 296.354 157.176 296.743 157.176C297.133 157.176 297.429 157.066 297.631 156.845C297.833 156.62 297.934 156.284 297.934 155.838V153.317C297.934 153.162 297.971 153.047 298.046 152.972C298.126 152.897 298.239 152.859 298.384 152.859C298.525 152.859 298.633 152.897 298.708 152.972C298.788 153.047 298.828 153.162 298.828 153.317V155.845C298.828 156.305 298.748 156.693 298.589 157.007C298.434 157.322 298.201 157.559 297.891 157.718C297.581 157.873 297.199 157.951 296.743 157.951ZM300.358 157.88C300.203 157.88 300.083 157.84 299.999 157.761C299.919 157.676 299.879 157.556 299.879 157.401V153.394C299.879 153.24 299.919 153.122 299.999 153.042C300.083 152.958 300.203 152.916 300.358 152.916H302.872C302.99 152.916 303.079 152.946 303.14 153.007C303.206 153.068 303.238 153.155 303.238 153.268C303.238 153.385 303.206 153.477 303.14 153.542C303.079 153.603 302.99 153.634 302.872 153.634H300.745V155H302.717C302.839 155 302.931 155.031 302.992 155.092C303.053 155.153 303.083 155.242 303.083 155.359C303.083 155.477 303.053 155.566 302.992 155.627C302.931 155.688 302.839 155.718 302.717 155.718H300.745V157.162H302.872C302.99 157.162 303.079 157.193 303.14 157.254C303.206 157.315 303.238 157.404 303.238 157.521C303.238 157.639 303.206 157.728 303.14 157.789C303.079 157.85 302.99 157.88 302.872 157.88H300.358ZM305.724 157.951C305.517 157.951 305.311 157.934 305.104 157.901C304.897 157.873 304.703 157.829 304.519 157.768C304.336 157.702 304.172 157.622 304.027 157.528C303.942 157.472 303.883 157.404 303.85 157.324C303.818 157.244 303.806 157.167 303.815 157.092C303.829 157.012 303.86 156.944 303.907 156.887C303.958 156.826 304.022 156.789 304.097 156.775C304.172 156.761 304.254 156.782 304.343 156.838C304.55 156.96 304.768 157.049 304.998 157.106C305.228 157.162 305.47 157.19 305.724 157.19C306.095 157.19 306.365 157.129 306.534 157.007C306.703 156.88 306.787 156.718 306.787 156.521C306.787 156.357 306.726 156.228 306.604 156.134C306.487 156.04 306.282 155.963 305.991 155.901L305.217 155.74C304.771 155.646 304.437 155.488 304.217 155.268C304.001 155.042 303.893 154.747 303.893 154.38C303.893 154.15 303.94 153.941 304.034 153.754C304.127 153.566 304.259 153.404 304.428 153.268C304.602 153.132 304.806 153.028 305.041 152.958C305.28 152.883 305.543 152.845 305.829 152.845C306.111 152.845 306.379 152.88 306.632 152.951C306.886 153.021 307.113 153.125 307.315 153.261C307.39 153.312 307.44 153.376 307.463 153.451C307.491 153.526 307.498 153.601 307.484 153.676C307.47 153.747 307.437 153.808 307.386 153.859C307.334 153.911 307.268 153.941 307.188 153.951C307.113 153.96 307.027 153.937 306.928 153.88C306.754 153.782 306.578 153.711 306.4 153.669C306.221 153.627 306.029 153.606 305.822 153.606C305.606 153.606 305.421 153.636 305.266 153.697C305.111 153.758 304.991 153.845 304.907 153.958C304.827 154.066 304.787 154.195 304.787 154.345C304.787 154.514 304.843 154.65 304.956 154.754C305.069 154.852 305.261 154.93 305.534 154.986L306.301 155.148C306.766 155.247 307.111 155.401 307.336 155.613C307.566 155.824 307.681 156.106 307.681 156.458C307.681 156.683 307.634 156.887 307.541 157.071C307.451 157.254 307.32 157.411 307.146 157.542C306.977 157.674 306.773 157.775 306.534 157.845C306.294 157.916 306.024 157.951 305.724 157.951ZM310 157.937C309.854 157.937 309.742 157.897 309.662 157.817C309.587 157.732 309.549 157.617 309.549 157.472V153.669H308.176C308.054 153.669 307.958 153.636 307.887 153.571C307.821 153.5 307.789 153.406 307.789 153.289C307.789 153.167 307.821 153.075 307.887 153.014C307.958 152.948 308.054 152.916 308.176 152.916H311.824C311.946 152.916 312.04 152.948 312.105 153.014C312.176 153.075 312.211 153.167 312.211 153.289C312.211 153.406 312.176 153.5 312.105 153.571C312.04 153.636 311.946 153.669 311.824 153.669H310.451V157.472C310.451 157.617 310.413 157.732 310.338 157.817C310.263 157.897 310.15 157.937 310 157.937Z" fill="white"/>
</g>
<path d="M6.22007 10.7958C6.22007 5.08335 10.8509 0.452492 16.5634 0.452492H495.437C501.149 0.452492 505.78 5.08335 505.78 10.7958V173.204C505.78 178.917 501.149 183.548 495.437 183.548H16.5634C10.8509 183.548 6.22007 178.917 6.22007 173.204V10.7958Z" stroke="#E6EAED" stroke-width="0.440141"/>
</g>
<defs>
<filter id="filter0_dd_14752_152249" x="0.71831" y="0.232422" width="510.563" height="194.099" filterUnits="userSpaceOnUse" color-interpolation-filters="sRGB">
<feFlood flood-opacity="0" result="BackgroundImageFix"/>
<feColorMatrix in="SourceAlpha" type="matrix" values="0 0 0 0 0 0 0 0 0 0 0 0 0 0 0 0 0 0 127 0" result="hardAlpha"/>
<feMorphology radius="1.76056" operator="erode" in="SourceAlpha" result="effect1_dropShadow_14752_152249"/>
<feOffset dy="5.28169"/>
<feGaussianBlur stdDeviation="3.52113"/>
<feColorMatrix type="matrix" values="0 0 0 0 0.0627451 0 0 0 0 0.0941176 0 0 0 0 0.156863 0 0 0 0.08 0"/>
<feBlend mode="normal" in2="BackgroundImageFix" result="effect1_dropShadow_14752_152249"/>
<feColorMatrix in="SourceAlpha" type="matrix" values="0 0 0 0 0 0 0 0 0 0 0 0 0 0 0 0 0 0 127 0" result="hardAlpha"/>
<feMorphology radius="0.880282" operator="erode" in="SourceAlpha" result="effect2_dropShadow_14752_152249"/>
<feOffset dy="1.76056"/>
<feGaussianBlur stdDeviation="1.32042"/>
<feColorMatrix type="matrix" values="0 0 0 0 0.0627451 0 0 0 0 0.0941176 0 0 0 0 0.156863 0 0 0 0.03 0"/>
<feBlend mode="normal" in2="effect1_dropShadow_14752_152249" result="effect2_dropShadow_14752_152249"/>
<feBlend mode="normal" in="SourceGraphic" in2="effect2_dropShadow_14752_152249" result="shape"/>
</filter>
<clipPath id="clip0_14752_152249">
<path d="M6 10.7958C6 4.96181 10.7294 0.232422 16.5634 0.232422H495.437C501.271 0.232422 506 4.96181 506 10.7958V173.204C506 179.038 501.271 183.768 495.437 183.768H16.5634C10.7294 183.768 6 179.038 6 173.204V10.7958Z" fill="white"/>
</clipPath>
</defs>
</svg>
