<svg xmlns="http://www.w3.org/2000/svg" width="27.117" height="27" viewBox="0 0 27.117 27">
  <path id="twitter" d="M24.212,0H2.905A2.9,2.9,0,0,0,0,2.893V24.107A2.9,2.9,0,0,0,2.905,27H24.212a2.9,2.9,0,0,0,2.905-2.893V2.893A2.9,2.9,0,0,0,24.212,0Zm-2.96,9.571c.012.169.012.343.012.512A11.192,11.192,0,0,1,9.969,21.329a11.278,11.278,0,0,1-6.1-1.772,8.393,8.393,0,0,0,.956.048,7.981,7.981,0,0,0,4.927-1.688,3.973,3.973,0,0,1-3.71-2.742A4.3,4.3,0,0,0,7.838,15.1a3.957,3.957,0,0,1-3.178-3.881v-.048a3.981,3.981,0,0,0,1.792.5A3.94,3.94,0,0,1,4.685,8.383a3.891,3.891,0,0,1,.539-1.995,11.288,11.288,0,0,0,8.184,4.134,3.978,3.978,0,0,1,6.773-3.61A7.8,7.8,0,0,0,22.7,5.96a3.946,3.946,0,0,1-1.743,2.176,7.927,7.927,0,0,0,2.288-.615A8.338,8.338,0,0,1,21.252,9.571Z"/>
</svg>
