<svg width="24" height="25" viewBox="0 0 24 25" fill="none" xmlns="http://www.w3.org/2000/svg">
<g clip-path="url(#clip0_214_4721)">
<path d="M21.535 7.575C21.535 7.79 21.535 8.005 21.535 8.22C21.535 14.72 16.585 22.22 7.535 22.22C4.86229 22.2187 2.24646 21.448 0 20C0.395285 20.0411 0.792607 20.0595 1.19 20.055C3.40326 20.0615 5.55408 19.3217 7.295 17.955C6.26849 17.937 5.27327 17.5986 4.4485 16.9872C3.62374 16.3758 3.01066 15.5219 2.695 14.545C3.00272 14.5929 3.31357 14.618 3.625 14.62C4.06183 14.6188 4.49682 14.5634 4.92 14.455C3.81152 14.2239 2.81651 13.618 2.10252 12.7392C1.38852 11.8603 0.999165 10.7623 1 9.63V9.57C1.67449 9.94721 2.42793 10.1613 3.2 10.195C2.15505 9.4992 1.41526 8.43061 1.13181 7.20761C0.848369 5.98461 1.04267 4.69954 1.675 3.615C2.91007 5.13711 4.45163 6.38228 6.19948 7.26955C7.94732 8.15683 9.86232 8.66635 11.82 8.765C11.7381 8.39387 11.6962 8.01505 11.695 7.635C11.6995 6.65155 11.9983 5.69195 12.5529 4.87982C13.1076 4.06768 13.8927 3.4402 14.8071 3.0782C15.7215 2.7162 16.7234 2.63626 17.6836 2.84866C18.6439 3.06107 19.5186 3.5561 20.195 4.27C21.2963 4.06059 22.3523 3.65951 23.315 3.085C22.9462 4.2212 22.1767 5.18444 21.15 5.795C22.1328 5.6866 23.0937 5.43038 24 5.035C23.3249 6.01252 22.4919 6.87091 21.535 7.575Z" fill="black"/>
</g>
<defs>
<clipPath id="clip0_214_4721">
<rect width="24" height="24" fill="white" transform="translate(0 0.5)"/>
</clipPath>
</defs>
</svg>
