<svg width="96" height="81" viewBox="0 0 96 81" fill="none" xmlns="http://www.w3.org/2000/svg">
<path d="M77.5015 14.5551C77.5015 24.7324 77.4975 34.9174 77.4895 45.11C77.4573 47.443 77.0774 49.7581 76.3625 51.9791C75.2489 55.5935 73.504 58.9822 71.2085 61.988C70.1653 63.3541 69.0491 64.6626 67.8645 65.908C64.9295 68.9594 61.6652 71.676 58.1315 74.0081C55.8765 75.5087 53.544 76.8893 51.1435 78.144C50.4965 78.492 49.8245 78.7671 49.1535 79.0911C48.9615 79.1911 48.7695 79.319 48.5785 79.439H47.9245C47.7325 79.319 47.5405 79.1871 47.3495 79.0911C46.6785 78.7671 46.0065 78.491 45.3595 78.144C42.959 76.8893 40.6265 75.5087 38.3715 74.0081C34.8378 71.676 31.5735 68.9594 28.6385 65.908C27.4539 64.6626 26.3376 63.3541 25.2945 61.988C22.999 58.9822 21.2541 55.5935 20.1405 51.9791C19.4256 49.7581 19.0457 47.443 19.0135 45.11C19.0015 34.9214 18.9975 24.7364 19.0015 14.5551C19.0015 13.6801 19.0135 13.68 19.8405 13.332C24.9112 11.222 29.9858 9.11238 35.0645 7.00305C38.4805 5.57705 41.8855 4.16206 45.3015 2.72406C46.1765 2.35206 47.0515 1.95704 47.9265 1.56104H48.5735C49.4485 1.96104 50.3235 2.35206 51.1985 2.72406C54.6145 4.16206 58.0195 5.57705 61.4355 7.00305C66.5062 9.11305 71.5808 11.2227 76.6595 13.332C77.4895 13.68 77.5015 13.6801 77.5015 14.5551Z" fill="#FFD499"/>
<mask id="mask0_10108_224464" style="mask-type:luminance" maskUnits="userSpaceOnUse" x="19" y="1" width="59" height="79">
<path d="M77.5015 14.5551C77.5015 24.7324 77.4975 34.9174 77.4895 45.11C77.4573 47.443 77.0774 49.7581 76.3625 51.9791C75.2489 55.5935 73.504 58.9822 71.2085 61.988C70.1653 63.3541 69.0491 64.6626 67.8645 65.908C64.9295 68.9594 61.6652 71.676 58.1315 74.0081C55.8765 75.5087 53.544 76.8893 51.1435 78.144C50.4965 78.492 49.8245 78.7671 49.1535 79.0911C48.9615 79.1911 48.7695 79.319 48.5785 79.439H47.9245C47.7325 79.319 47.5405 79.1871 47.3495 79.0911C46.6785 78.7671 46.0065 78.491 45.3595 78.144C42.959 76.8893 40.6265 75.5087 38.3715 74.0081C34.8378 71.676 31.5735 68.9594 28.6385 65.908C27.4539 64.6626 26.3376 63.3541 25.2945 61.988C22.999 58.9822 21.2541 55.5935 20.1405 51.9791C19.4256 49.7581 19.0457 47.443 19.0135 45.11C19.0015 34.9214 18.9975 24.7364 19.0015 14.5551C19.0015 13.6801 19.0135 13.68 19.8405 13.332C24.9112 11.222 29.9858 9.11238 35.0645 7.00305C38.4805 5.57705 41.8855 4.16206 45.3015 2.72406C46.1765 2.35206 47.0515 1.95704 47.9265 1.56104H48.5735C49.4485 1.96104 50.3235 2.35206 51.1985 2.72406C54.6145 4.16206 58.0195 5.57705 61.4355 7.00305C66.5062 9.11305 71.5808 11.2227 76.6595 13.332C77.4895 13.68 77.5015 13.6801 77.5015 14.5551Z" fill="white"/>
</mask>
<g mask="url(#mask0_10108_224464)">
<path d="M78.2144 44.0973C90.9534 44.0973 101.28 33.7703 101.28 21.0313C101.28 8.29233 90.9534 -2.03467 78.2144 -2.03467C65.4754 -2.03467 55.1484 8.29233 55.1484 21.0313C55.1484 33.7703 65.4754 44.0973 78.2144 44.0973Z" fill="#B76B00"/>
<path d="M48.0469 1.56104H19.0469V79.561H48.0469V1.56104Z" fill="#CC7700"/>
<path d="M61.0315 51.1659C61.0257 51.3789 60.9521 51.5844 60.8213 51.7526C60.6905 51.9208 60.5095 52.0428 60.3045 52.1009H35.8935C35.6778 52.0862 35.4747 51.9937 35.322 51.8408C35.1692 51.6878 35.077 51.4846 35.0625 51.2689V51.1689C35.1625 50.6499 35.1625 50.1299 35.2705 49.6109C35.4152 48.9 35.7531 48.2427 36.2471 47.7113C36.7411 47.1799 37.372 46.795 38.0705 46.5989L41.8095 45.3529C42.0175 45.2529 43.0555 44.8339 43.2635 44.7299C43.29 44.7299 43.3155 44.7194 43.3342 44.7006C43.353 44.6819 43.3635 44.6564 43.3635 44.6299C44.0784 44.206 44.6369 43.562 44.9552 42.7943C45.2736 42.0265 45.3347 41.1763 45.1295 40.3709C45.0295 40.1629 45.0295 40.0589 44.9215 39.8519C44.4025 39.0209 43.8825 38.2939 43.2595 37.3589C43.0515 37.1509 42.9475 36.8399 42.7405 36.6319C41.7015 36.4239 41.7015 36.4239 41.5975 35.1779C41.4975 34.7629 41.4975 34.3469 41.3895 34.0349C41.1815 33.3079 41.3895 32.7889 42.0125 32.5809V30.5979C42.0103 29.9884 42.139 29.3855 42.3899 28.83C42.6407 28.2745 43.0078 27.7793 43.4665 27.3779C44.1022 26.8353 44.8532 26.4448 45.6625 26.2359C46.3895 26.1359 47.1165 26.0279 47.4285 26.0279C48.7069 25.9291 49.9902 26.1429 51.1675 26.6509C51.6399 26.8897 52.0915 27.1677 52.5175 27.4819C53.2491 28.2305 53.6592 29.2352 53.6605 30.2819V32.4679C53.7992 32.5051 53.9288 32.5703 54.0413 32.6594C54.1539 32.7485 54.2471 32.8597 54.3152 32.9861C54.3832 33.1125 54.4248 33.2515 54.4372 33.3945C54.4496 33.5376 54.4327 33.6816 54.3875 33.8179C54.395 33.8741 54.3899 33.9312 54.3726 33.9852C54.3554 34.0391 54.3263 34.0886 54.2875 34.1299C54.1875 34.5449 54.1875 34.9609 54.0795 35.3759C53.9795 36.1029 53.7675 36.7259 53.0405 36.6219C52.3135 37.7649 51.6905 38.8029 50.9635 39.7379C50.6179 40.4839 50.5221 41.3216 50.6906 42.1264C50.859 42.9312 51.2827 43.6601 51.8985 44.2049H51.9985C52.1568 44.3316 52.3313 44.4365 52.5175 44.5169C52.6175 44.5169 53.9715 45.2439 54.1795 45.3479L55.1145 45.6599L57.9145 46.5949C58.613 46.791 59.2439 47.1759 59.7379 47.7073C60.2319 48.2387 60.5698 48.896 60.7145 49.6069L61.0315 51.1659Z" fill="white"/>
<mask id="mask1_10108_224464" style="mask-type:luminance" maskUnits="userSpaceOnUse" x="32" y="23" width="16" height="32">
<path d="M47.8438 23.0015H32.8438V54.0015H47.8438V23.0015Z" fill="white"/>
</mask>
<g mask="url(#mask1_10108_224464)">
<path d="M60.8449 51.1629C60.8391 51.3759 60.7655 51.5814 60.6347 51.7496C60.5039 51.9178 60.3229 52.0398 60.1179 52.0979H35.7099C35.4944 52.0832 35.2914 51.9909 35.1387 51.8382C34.9859 51.6854 34.8936 51.4825 34.8789 51.2669V51.1669C34.9789 50.6479 34.9789 50.1279 35.0869 49.6089C35.2316 48.898 35.5695 48.2407 36.0635 47.7093C36.5575 47.178 37.1884 46.7931 37.8869 46.5969L41.6259 45.3509C41.8339 45.2509 42.8719 44.8319 43.0799 44.7279C43.1064 44.7279 43.1319 44.7174 43.1506 44.6986C43.1694 44.6799 43.1799 44.6545 43.1799 44.6279C43.8946 44.2041 44.4529 43.5603 44.7713 42.7927C45.0896 42.0252 45.1509 41.1752 44.9459 40.3699C44.8459 40.1619 44.8459 40.0579 44.7379 39.8509C44.2189 39.0199 43.6989 38.2929 43.0759 37.3579C42.8679 37.1499 42.7639 36.8389 42.5569 36.6309C41.5179 36.4229 41.5179 36.4229 41.4139 35.1769C41.3139 34.7619 41.3139 34.3459 41.2059 34.0339C40.9979 33.3069 41.2059 32.7879 41.8289 32.5799V30.5979C41.8267 29.9884 41.9554 29.3855 42.2063 28.83C42.4571 28.2745 42.8243 27.7794 43.2829 27.3779C43.9142 26.837 44.6599 26.4462 45.4639 26.2349C46.1909 26.1349 46.9179 26.0269 47.2299 26.0269C48.5083 25.9281 49.7916 26.1419 50.9689 26.6499C51.4413 26.8888 51.8929 27.1667 52.3189 27.4809C53.0505 28.2295 53.4606 29.2343 53.4619 30.2809V32.4679C53.6006 32.5052 53.7302 32.5703 53.8427 32.6594C53.9553 32.7485 54.0485 32.8597 54.1166 32.9861C54.1846 33.1125 54.2262 33.2515 54.2386 33.3946C54.2511 33.5376 54.2341 33.6817 54.1889 33.8179C54.1964 33.8741 54.1913 33.9312 54.1741 33.9852C54.1568 34.0392 54.1277 34.0886 54.0889 34.1299C53.9889 34.5449 53.9889 34.9609 53.8809 35.3759C53.7809 36.1029 53.5689 36.7259 52.8419 36.6219C52.1149 37.7649 51.4919 38.8029 50.7649 39.7379C50.4195 40.4838 50.3239 41.3213 50.4924 42.1259C50.6608 42.9304 51.0843 43.6592 51.6999 44.2039H51.7999C51.9582 44.3306 52.1327 44.4356 52.3189 44.5159C52.4189 44.5159 53.7729 45.2429 53.9809 45.3469L54.9159 45.6589L57.7159 46.5939C58.4144 46.7901 59.0453 47.175 59.5393 47.7063C60.0333 48.2377 60.3712 48.895 60.5159 49.6059L60.8449 51.1629Z" fill="white"/>
</g>
</g>
<circle cx="77" cy="21.561" r="19" fill="#ED1B2E"/>
<path d="M77 23.8413V11.561" stroke="white" stroke-width="2" stroke-linecap="round"/>
<path d="M77 31.5611V31.5166" stroke="white" stroke-width="3" stroke-linecap="round"/>
</svg>
