<svg width="59" height="58" viewBox="0 0 59 58" fill="none" xmlns="http://www.w3.org/2000/svg">
<path d="M29.4999 18.3333V28.9999M29.4999 39.6666H29.5266M2.83325 19.7272V38.2726C2.83325 38.9248 2.83325 39.251 2.90693 39.5579C2.97226 39.83 3.08 40.0901 3.22621 40.3287C3.39112 40.5978 3.62173 40.8284 4.08293 41.2896L17.2102 54.4169C17.6714 54.8781 17.902 55.1087 18.1712 55.2736C18.4098 55.4198 18.6699 55.5276 18.942 55.5929C19.2489 55.6666 19.575 55.6666 20.2272 55.6666H38.7726C39.4248 55.6666 39.751 55.6666 40.0579 55.5929C40.33 55.5276 40.5901 55.4198 40.8287 55.2736C41.0978 55.1087 41.3284 54.8781 41.7896 54.4169L54.9169 41.2896C55.3781 40.8284 55.6087 40.5978 55.7736 40.3287C55.9198 40.0901 56.0276 39.83 56.0929 39.5579C56.1666 39.251 56.1666 38.9248 56.1666 38.2726V19.7272C56.1666 19.075 56.1666 18.7489 56.0929 18.442C56.0276 18.1699 55.9198 17.9098 55.7736 17.6712C55.6087 17.402 55.3781 17.1714 54.9169 16.7102L41.7896 3.58293C41.3284 3.12173 41.0978 2.89112 40.8287 2.72621C40.5901 2.58 40.33 2.47226 40.0579 2.40693C39.751 2.33325 39.4248 2.33325 38.7726 2.33325H20.2272C19.575 2.33325 19.2489 2.33325 18.942 2.40693C18.6699 2.47226 18.4098 2.58 18.1712 2.72621C17.902 2.89112 17.6714 3.12173 17.2102 3.58293L4.08293 16.7102C3.62173 17.1714 3.39112 17.402 3.22621 17.6712C3.08 17.9098 2.97226 18.1699 2.90693 18.442C2.83325 18.7489 2.83325 19.075 2.83325 19.7272Z" stroke="#ED1B2E" stroke-width="4" stroke-linecap="round" stroke-linejoin="round"/>
</svg>
