<svg width="23" height="22" viewBox="0 0 23 22" fill="none" xmlns="http://www.w3.org/2000/svg">
<path fill-rule="evenodd" clip-rule="evenodd" d="M11.5 0C5.42487 0 0.5 4.92487 0.5 11C0.5 17.0751 5.42487 22 11.5 22C17.5751 22 22.5 17.0751 22.5 11C22.5 4.92487 17.5751 0 11.5 0ZM11.5 6C12.0523 6 12.5 6.44772 12.5 7V10H15.5C16.0523 10 16.5 10.4477 16.5 11C16.5 11.5523 16.0523 12 15.5 12H12.5V15C12.5 15.5523 12.0523 16 11.5 16C10.9477 16 10.5 15.5523 10.5 15V12H7.5C6.94772 12 6.5 11.5523 6.5 11C6.5 10.4477 6.94772 10 7.5 10H10.5V7C10.5 6.44772 10.9477 6 11.5 6Z" fill="white"/>
</svg>
