<svg width="79" height="78" viewBox="0 0 79 78" fill="none" xmlns="http://www.w3.org/2000/svg">
<path d="M58.5015 12.994C58.5015 23.1714 58.4975 33.3563 58.4895 43.549C58.4573 45.882 58.0774 48.1971 57.3625 50.418C56.2489 54.0325 54.504 57.4211 52.2085 60.427C51.1653 61.793 50.0491 63.1016 48.8645 64.347C45.9295 67.3984 42.6652 70.115 39.1315 72.447C36.8765 73.9477 34.544 75.3282 32.1435 76.583C31.4965 76.931 30.8245 77.206 30.1535 77.53C29.9615 77.63 29.7695 77.758 29.5785 77.878H28.9245C28.7325 77.758 28.5405 77.626 28.3495 77.53C27.6785 77.206 27.0065 76.93 26.3595 76.583C23.959 75.3282 21.6265 73.9476 19.3715 72.447C15.8378 70.115 12.5735 67.3984 9.63849 64.347C8.45394 63.1016 7.33764 61.793 6.2945 60.427C3.99904 57.4211 2.2541 54.0325 1.14051 50.418C0.42559 48.1971 0.0457347 45.882 0.0134944 43.549C0.00149444 33.3603 -0.00249897 23.1754 0.00150103 12.994C0.00150103 12.119 0.0134903 12.119 0.84049 11.771C5.91116 9.661 10.9858 7.55135 16.0645 5.44202C19.4805 4.01602 22.8855 2.60102 26.3015 1.16302C27.1765 0.791025 28.0515 0.396 28.9265 0H29.5735C30.4485 0.4 31.3235 0.791025 32.1985 1.16302C35.6145 2.60102 39.0195 4.01602 42.4355 5.44202C47.5062 7.55202 52.5808 9.66166 57.6595 11.771C58.4895 12.119 58.5015 12.119 58.5015 12.994Z" fill="#0362CC"/>
<mask id="mask0_5712_62453" style="mask-type:luminance" maskUnits="userSpaceOnUse" x="0" y="0" width="59" height="78">
<path d="M58.5015 12.994C58.5015 23.1714 58.4975 33.3563 58.4895 43.549C58.4573 45.882 58.0774 48.1971 57.3625 50.418C56.2489 54.0325 54.504 57.4211 52.2085 60.427C51.1653 61.793 50.0491 63.1016 48.8645 64.347C45.9295 67.3984 42.6652 70.115 39.1315 72.447C36.8765 73.9477 34.544 75.3282 32.1435 76.583C31.4965 76.931 30.8245 77.206 30.1535 77.53C29.9615 77.63 29.7695 77.758 29.5785 77.878H28.9245C28.7325 77.758 28.5405 77.626 28.3495 77.53C27.6785 77.206 27.0065 76.93 26.3595 76.583C23.959 75.3282 21.6265 73.9476 19.3715 72.447C15.8378 70.115 12.5735 67.3984 9.63849 64.347C8.45394 63.1016 7.33764 61.793 6.2945 60.427C3.99904 57.4211 2.2541 54.0325 1.14051 50.418C0.42559 48.1971 0.0457347 45.882 0.0134944 43.549C0.00149444 33.3603 -0.00249897 23.1754 0.00150103 12.994C0.00150103 12.119 0.0134903 12.119 0.84049 11.771C5.91116 9.661 10.9858 7.55135 16.0645 5.44202C19.4805 4.01602 22.8855 2.60102 26.3015 1.16302C27.1765 0.791025 28.0515 0.396 28.9265 0H29.5735C30.4485 0.4 31.3235 0.791025 32.1985 1.16302C35.6145 2.60102 39.0195 4.01602 42.4355 5.44202C47.5062 7.55202 52.5808 9.66166 57.6595 11.771C58.4895 12.119 58.5015 12.119 58.5015 12.994Z" fill="white"/>
</mask>
<g mask="url(#mask0_5712_62453)">
<path d="M59.2183 42.5363C71.9573 42.5363 82.2843 32.2093 82.2843 19.4703C82.2843 6.7313 71.9573 -3.5957 59.2183 -3.5957C46.4793 -3.5957 36.1523 6.7313 36.1523 19.4703C36.1523 32.2093 46.4793 42.5363 59.2183 42.5363Z" fill="#004999"/>
<path d="M29.0488 0H0.0488281V78H29.0488V0Z" fill="#0055B2"/>
<path d="M42.0335 49.6049C42.0277 49.8178 41.954 50.0234 41.8233 50.1916C41.6925 50.3598 41.5114 50.4818 41.3065 50.5399H16.8955C16.6797 50.5251 16.4767 50.4327 16.3239 50.2797C16.1711 50.1268 16.0789 49.9236 16.0645 49.7079V49.6079C16.1645 49.0889 16.1645 48.5689 16.2725 48.0499C16.4172 47.3389 16.7551 46.6817 17.2491 46.1503C17.743 45.6189 18.3739 45.234 19.0725 45.0379L22.8115 43.7919C23.0195 43.6919 24.0575 43.2729 24.2655 43.1689C24.292 43.1689 24.3174 43.1583 24.3362 43.1396C24.3549 43.1208 24.3655 43.0954 24.3655 43.0689C25.0804 42.645 25.6388 42.001 25.9572 41.2332C26.2755 40.4655 26.3367 39.6153 26.1315 38.8099C26.0315 38.6019 26.0315 38.4979 25.9235 38.2909C25.4045 37.4599 24.8845 36.7329 24.2615 35.7979C24.0535 35.5899 23.9495 35.2789 23.7425 35.0709C22.7035 34.8629 22.7035 34.8629 22.5995 33.6169C22.4995 33.2019 22.4995 32.7859 22.3915 32.4739C22.1835 31.7469 22.3915 31.2279 23.0145 31.0199V29.0369C23.0123 28.4274 23.141 27.8245 23.3918 27.269C23.6427 26.7135 24.0098 26.2183 24.4685 25.8169C25.1042 25.2743 25.8552 24.8837 26.6645 24.6749C27.3915 24.5749 28.1185 24.4669 28.4305 24.4669C29.7089 24.368 30.9921 24.5818 32.1695 25.0899C32.6419 25.3287 33.0934 25.6067 33.5195 25.9209C34.251 26.6694 34.6612 27.6742 34.6625 28.7209V30.9069C34.8011 30.9441 34.9307 31.0093 35.0433 31.0984C35.1559 31.1875 35.249 31.2987 35.3171 31.4251C35.3852 31.5515 35.4267 31.6905 35.4392 31.8335C35.4516 31.9765 35.4347 32.1206 35.3895 32.2569C35.397 32.313 35.3919 32.3702 35.3746 32.4241C35.3573 32.4781 35.3282 32.5275 35.2895 32.5689C35.1895 32.9839 35.1895 33.3999 35.0815 33.8149C34.9815 34.5419 34.7695 35.1649 34.0425 35.0609C33.3155 36.2039 32.6925 37.2419 31.9655 38.1769C31.6198 38.9229 31.5241 39.7606 31.6925 40.5653C31.861 41.3701 32.2846 42.0991 32.9005 42.6439H33.0005C33.1588 42.7706 33.3333 42.8755 33.5195 42.9559C33.6195 42.9559 34.9735 43.6829 35.1815 43.7869L36.1165 44.0989L38.9165 45.0339C39.615 45.23 40.2459 45.6149 40.7398 46.1463C41.2338 46.6777 41.5717 47.3349 41.7165 48.0459L42.0335 49.6049Z" fill="white"/>
<mask id="mask1_5712_62453" style="mask-type:luminance" maskUnits="userSpaceOnUse" x="13" y="21" width="16" height="32">
<path d="M28.8457 21.4404H13.8457V52.4404H28.8457V21.4404Z" fill="white"/>
</mask>
<g mask="url(#mask1_5712_62453)">
<path d="M41.8449 49.6019C41.8391 49.8149 41.7655 50.0204 41.6347 50.1886C41.5039 50.3568 41.3229 50.4788 41.1179 50.5369H16.7099C16.4944 50.5222 16.2914 50.4299 16.1387 50.2771C15.9859 50.1244 15.8936 49.9214 15.8789 49.7059V49.6059C15.9789 49.0869 15.9789 48.5669 16.0869 48.0479C16.2316 47.337 16.5695 46.6797 17.0635 46.1483C17.5575 45.6169 18.1884 45.232 18.8869 45.0359L22.6259 43.7899C22.8339 43.6899 23.8719 43.2709 24.0799 43.1669C24.1064 43.1669 24.1319 43.1564 24.1506 43.1376C24.1694 43.1189 24.1799 43.0934 24.1799 43.0669C24.8946 42.6431 25.4529 41.9992 25.7713 41.2317C26.0896 40.4641 26.1509 39.6142 25.9459 38.8089C25.8459 38.6009 25.8459 38.4969 25.7379 38.2899C25.2189 37.4589 24.6989 36.7319 24.0759 35.7969C23.8679 35.5889 23.7639 35.2779 23.5569 35.0699C22.5179 34.8619 22.5179 34.8619 22.4139 33.6159C22.3139 33.2009 22.3139 32.7849 22.2059 32.4729C21.9979 31.7459 22.2059 31.2269 22.8289 31.0189V29.0369C22.8267 28.4274 22.9554 27.8245 23.2063 27.269C23.4571 26.7135 23.8243 26.2183 24.2829 25.8169C24.9142 25.276 25.6599 24.8852 26.4639 24.6739C27.1909 24.5739 27.9179 24.4659 28.2299 24.4659C29.5083 24.367 30.7916 24.5809 31.9689 25.0889C32.4413 25.3277 32.8929 25.6057 33.3189 25.9199C34.0505 26.6685 34.4606 27.6732 34.4619 28.7199V30.9069C34.6006 30.9441 34.7302 31.0093 34.8427 31.0984C34.9553 31.1875 35.0485 31.2987 35.1166 31.4251C35.1846 31.5515 35.2262 31.6905 35.2386 31.8335C35.2511 31.9766 35.2341 32.1206 35.1889 32.2569C35.1964 32.3131 35.1913 32.3702 35.1741 32.4242C35.1568 32.4781 35.1277 32.5276 35.0889 32.5689C34.9889 32.9839 34.9889 33.3999 34.8809 33.8149C34.7809 34.5419 34.5689 35.1649 33.8419 35.0609C33.1149 36.2039 32.4919 37.2419 31.7649 38.1769C31.4195 38.9228 31.3239 39.7603 31.4924 40.5648C31.6608 41.3694 32.0843 42.0982 32.6999 42.6429H32.7999C32.9582 42.7696 33.1327 42.8745 33.3189 42.9549C33.4189 42.9549 34.7729 43.6819 34.9809 43.7859L35.9159 44.0979L38.7159 45.0329C39.4144 45.229 40.0453 45.6139 40.5393 46.1453C41.0333 46.6767 41.3712 47.334 41.5159 48.0449L41.8449 49.6019Z" fill="#F2F2F2"/>
</g>
</g>
<path d="M59.2161 38.94C69.9691 38.94 78.6861 30.223 78.6861 19.47C78.6861 8.71702 69.9691 0 59.2161 0C48.4631 0 39.7461 8.71702 39.7461 19.47C39.7461 30.223 48.4631 38.94 59.2161 38.94Z" fill="#FF9500"/>
<path d="M50.7168 19.9404H67.7168" stroke="white" stroke-width="2" stroke-linecap="round"/>
</svg>
