<svg width="27" height="27" viewBox="0 0 27 27" fill="none" xmlns="http://www.w3.org/2000/svg">
<path d="M18.8333 8.66644V4.00064C18.8333 2.89166 18.8333 2.33717 18.5997 1.9964C18.3956 1.69868 18.0795 1.49643 17.7237 1.43588C17.3164 1.36657 16.8129 1.59893 15.806 2.06366L3.97869 7.52243C3.08067 7.93689 2.63167 8.14413 2.30281 8.46553C2.01208 8.74966 1.79016 9.0965 1.65401 9.47954C1.5 9.91282 1.5 10.4073 1.5 11.3964V17.9998M19.5 17.3331H19.5133M1.5 12.9331L1.5 21.7331C1.5 23.2266 1.5 23.9733 1.79065 24.5437C2.04631 25.0455 2.45426 25.4535 2.95603 25.7091C3.52646 25.9998 4.27319 25.9998 5.76667 25.9998H21.2333C22.7268 25.9998 23.4735 25.9998 24.044 25.7091C24.5457 25.4535 24.9537 25.0455 25.2094 24.5437C25.5 23.9733 25.5 23.2266 25.5 21.7331V12.9331C25.5 11.4396 25.5 10.6929 25.2094 10.1225C24.9537 9.6207 24.5457 9.21275 24.044 8.95709C23.4735 8.66644 22.7268 8.66644 21.2333 8.66644L5.76667 8.66644C4.27319 8.66644 3.52646 8.66644 2.95603 8.95709C2.45426 9.21275 2.04631 9.6207 1.79065 10.1225C1.5 10.6929 1.5 11.4396 1.5 12.9331ZM20.1667 17.3331C20.1667 17.7013 19.8682 17.9998 19.5 17.9998C19.1318 17.9998 18.8333 17.7013 18.8333 17.3331C18.8333 16.9649 19.1318 16.6664 19.5 16.6664C19.8682 16.6664 20.1667 16.9649 20.1667 17.3331Z" stroke="#FF6900" stroke-width="2" stroke-linecap="round" stroke-linejoin="round"/>
</svg>
