<svg width="343" height="2008" viewBox="0 0 343 2008" fill="none" xmlns="http://www.w3.org/2000/svg">
<mask id="path-1-inside-1_7717_223191" fill="white">
<path fill-rule="evenodd" clip-rule="evenodd" d="M0 8.00006C0 3.58178 3.58172 0 8 0H335C339.418 0 343 3.58172 343 8V705.234C330.607 707.134 321 720.654 321 737.051C321 753.448 330.607 766.969 343 768.869V2000C343 2004.42 339.418 2008 335 2008H7.99999C3.58172 2008 0 2004.42 0 2000V769.097C13.8071 769.097 25 754.75 25 737.051C25 719.353 13.8071 705.006 0 705.006V8.00006Z"/>
</mask>
<path fill-rule="evenodd" clip-rule="evenodd" d="M0 8.00006C0 3.58178 3.58172 0 8 0H335C339.418 0 343 3.58172 343 8V705.234C330.607 707.134 321 720.654 321 737.051C321 753.448 330.607 766.969 343 768.869V2000C343 2004.42 339.418 2008 335 2008H7.99999C3.58172 2008 0 2004.42 0 2000V769.097C13.8071 769.097 25 754.75 25 737.051C25 719.353 13.8071 705.006 0 705.006V8.00006Z" fill="white"/>
<path d="M343 705.234L343.152 706.222L344 706.092V705.234H343ZM343 768.869H344V768.011L343.152 767.88L343 768.869ZM0 769.097V768.097H-1V769.097H0ZM0 705.006H-1V706.006H0V705.006ZM8 -1C3.02943 -1 -1 3.02951 -1 8.00006H1C1 4.13406 4.13402 1 8 1V-1ZM335 -1H8V1H335V-1ZM344 8C344 3.02944 339.971 -1 335 -1V1C338.866 1 342 4.13401 342 8H344ZM344 705.234V8H342V705.234H344ZM322 737.051C322 720.962 331.411 708.022 343.152 706.222L342.848 704.246C329.804 706.245 320 720.347 320 737.051H322ZM343.152 767.88C331.411 766.081 322 753.141 322 737.051H320C320 753.756 329.804 767.858 342.848 769.857L343.152 767.88ZM344 2000V768.869H342V2000H344ZM335 2009C339.971 2009 344 2004.97 344 2000H342C342 2003.87 338.866 2007 335 2007V2009ZM7.99999 2009H335V2007H7.99999V2009ZM-1 2000C-1 2004.97 3.02943 2009 7.99999 2009V2007C4.134 2007 1 2003.87 1 2000H-1ZM-1 769.097V2000H1V769.097H-1ZM24 737.051C24 754.443 13.0379 768.097 0 768.097V770.097C14.5763 770.097 26 755.057 26 737.051H24ZM0 706.006C13.0379 706.006 24 719.66 24 737.051H26C26 719.046 14.5763 704.006 0 704.006V706.006ZM-1 8.00006V705.006H1V8.00006H-1Z" fill="#E6EAED" mask="url(#path-1-inside-1_7717_223191)"/>
<line x1="16.5" y1="86.0902" x2="321.5" y2="86.0902" stroke="#9CABB8" stroke-linecap="round" stroke-dasharray="5 5"/>
<line x1="16.5" y1="390.192" x2="321.5" y2="390.192" stroke="#E6EAED" stroke-linecap="round" stroke-dasharray="5 5"/>
<line x1="16.5" y1="544.883" x2="321.5" y2="544.883" stroke="#E6EAED" stroke-linecap="round" stroke-dasharray="5 5"/>
</svg>
