<svg width="24" height="25" viewBox="0 0 24 25" fill="none" xmlns="http://www.w3.org/2000/svg"><path d="M4.95 4.8A3.25 3.25 0 0 1 8.2 1.55h7.989l6.46 6.46V20.8a3.25 3.25 0 0 1-3.25 3.25H8.2a3.25 3.25 0 0 1-3.25-3.25v-16z" fill="#fff" stroke="#D2D6D9" stroke-width="1.5" stroke-linecap="round"/><path d="M16.2 1.1V4a4 4 0 0 0 4 4h2.9" stroke="#D2D6D9" stroke-width="1.5"/><rect x=".4" y="11.6" width="16" height="9.6" rx="2" fill="#ED1B2E"/><path d="M3.817 18.6v-3.636H5.25c.276 0 .511.052.705.158.194.104.342.249.444.435.103.184.154.397.154.639 0 .241-.052.454-.156.64a1.077 1.077 0 0 1-.453.43 1.52 1.52 0 0 1-.713.155h-.915v-.616h.79c.148 0 .27-.026.366-.076a.505.505 0 0 0 .217-.215.673.673 0 0 0 .073-.318.656.656 0 0 0-.073-.316.487.487 0 0 0-.217-.211.791.791 0 0 0-.37-.077h-.518V18.6h-.768zm4.526 0h-1.29v-3.636h1.3c.366 0 .681.072.945.218.264.144.467.352.61.623.142.271.214.596.214.973 0 .38-.072.705-.215.977a1.476 1.476 0 0 1-.612.627c-.266.145-.583.218-.952.218zm-.52-.659h.488c.227 0 .418-.04.573-.12a.777.777 0 0 0 .352-.379c.08-.171.119-.393.119-.664 0-.268-.04-.488-.119-.658a.77.77 0 0 0-.35-.377 1.235 1.235 0 0 0-.573-.12h-.49v2.318zm2.868.66v-3.637H13.1v.634h-1.64v.866h1.48v.634h-1.48V18.6h-.769z" fill="#fff"/></svg>