<svg width="25" height="25" viewBox="0 0 25 25" fill="none" xmlns="http://www.w3.org/2000/svg"><path d="M5.95 4.6A3.25 3.25 0 0 1 9.2 1.35h7.989l6.46 6.46V20.6a3.25 3.25 0 0 1-3.25 3.25H9.2a3.25 3.25 0 0 1-3.25-3.25v-16z" fill="#fff" stroke="#D2D6D9" stroke-width="1.5" stroke-linecap="round"/><path d="M17.2.9v2.9a4 4 0 0 0 4 4h2.9" stroke="#D2D6D9" stroke-width="1.5"/><rect x=".4" y="11.4" width="18" height="9.6" rx="2" fill="#005BBD"/><path d="M4.116 14.764h.948l1.001 2.443h.043l1.001-2.443h.949V18.4h-.746v-2.367h-.03l-.941 2.35h-.508l-.941-2.359h-.03V18.4h-.746v-3.636zM8.69 18.4v-3.636h1.435c.276 0 .51.053.705.158.194.104.342.249.444.435a1.3 1.3 0 0 1 .154.639c0 .242-.052.455-.156.64a1.077 1.077 0 0 1-.453.43 1.521 1.521 0 0 1-.714.155h-.914v-.616h.79c.148 0 .27-.025.366-.076a.507.507 0 0 0 .216-.215.674.674 0 0 0 .073-.318.656.656 0 0 0-.073-.316.486.486 0 0 0-.216-.211.792.792 0 0 0-.37-.077H9.46V18.4h-.77zm3.161-.64v-.605l1.518-2.391h.522v.838h-.309l-.957 1.514v.029h2.158v.616h-2.932zm1.745.64v-.824l.015-.268v-2.544h.72V18.4h-.735z" fill="#fff"/></svg>