<svg width="32" height="32" viewBox="0 0 32 32" fill="none" xmlns="http://www.w3.org/2000/svg"><g id="google" fill="#fff"><path id="vector" d="M30.001 16.31c0-1.15-.095-1.99-.301-2.861H16.287v5.195h7.873c-.159 1.291-1.016 3.236-2.92 4.542l-.027.174 4.24 3.22.294.029c2.699-2.443 4.254-6.036 4.254-10.298z"/><path id="vector_2" d="M16.286 30c3.857 0 7.095-1.245 9.46-3.391l-4.507-3.423c-1.207.825-2.826 1.4-4.953 1.4A8.584 8.584 0 0 1 8.16 18.77l-.167.014-4.41 3.344-.058.157C5.874 26.857 10.7 30 16.286 30z"/><path id="vector_3" d="M8.16 18.769A8.463 8.463 0 0 1 7.684 16c0-.964.175-1.898.46-2.769l-.008-.185-4.465-3.399-.146.069A13.786 13.786 0 0 0 2.001 16c0 2.256.556 4.387 1.524 6.285l4.635-3.516z"/><path id="vector_4" d="M16.286 7.413c2.683 0 4.492 1.136 5.524 2.085l4.032-3.858C23.366 3.384 20.144 2 16.286 2 10.7 2 5.874 5.142 3.524 9.715l4.62 3.516c1.158-3.375 4.365-5.818 8.142-5.818z"/></g></svg>