<svg width="32" height="32" viewBox="0 0 32 32" fill="none" xmlns="http://www.w3.org/2000/svg"><g id="message-text-square-02"><path id="Icon" d="M9.333 11.333H16M9.333 16H20M9.333 24v3.114c0 .71 0 1.066.146 1.248a.664.664 0 0 0 .522.25c.233 0 .51-.221 1.065-.665l3.181-2.545c.65-.52.975-.78 1.336-.964a4 4 0 0 1 1.016-.356c.398-.082.814-.082 1.646-.082H21.6c2.24 0 3.36 0 4.216-.436a4 4 0 0 0 1.748-1.748C28 20.96 28 19.84 28 17.6v-7.2c0-2.24 0-3.36-.436-4.216a4 4 0 0 0-1.748-1.748C24.96 4 23.84 4 21.6 4H10.4c-2.24 0-3.36 0-4.216.436a4 4 0 0 0-1.748 1.748C4 7.04 4 8.16 4 10.4v8.267c0 1.24 0 1.86.136 2.368a4 4 0 0 0 2.829 2.829C7.473 24 8.093 24 9.333 24z" stroke="#030F1A" stroke-width="2" stroke-linecap="round" stroke-linejoin="round"/></g></svg>