<svg width="32" height="32" viewBox="0 0 32 32" fill="none" xmlns="http://www.w3.org/2000/svg"><g id="phone-01"><path id="Icon" d="M16 23.333h.013m-5.08 6h10.134c1.493 0 2.24 0 2.81-.29a2.67 2.67 0 0 0 1.166-1.166c.29-.57.29-1.317.29-2.81V6.933c0-1.493 0-2.24-.29-2.81a2.666 2.666 0 0 0-1.166-1.166c-.57-.29-1.317-.29-2.81-.29H10.933c-1.493 0-2.24 0-2.81.29a2.67 2.67 0 0 0-1.166 1.166c-.29.57-.29 1.317-.29 2.81v18.134c0 1.493 0 2.24.29 2.81.256.502.664.91 1.166 1.166.57.29 1.317.29 2.81.29zm5.733-6a.667.667 0 1 1-1.333 0 .667.667 0 0 1 1.333 0z" stroke="#030F1A" stroke-width="2" stroke-linecap="round" stroke-linejoin="round"/></g></svg>