<svg width="96" height="97" viewBox="0 0 96 97" fill="none" xmlns="http://www.w3.org/2000/svg"><rect y=".5" width="96" height="96" rx="48" fill="#F2F4F7"/><path d="M72 27.167H24a2.666 2.666 0 0 0-2.666 2.666V64.5a2.666 2.666 0 0 0 2.667 2.667h10.666V77.83c0 1.188 1.436 1.782 2.276.942L48.55 67.167H72a2.666 2.666 0 0 0 2.667-2.667V29.833a2.666 2.666 0 0 0-2.666-2.666z" fill="#000"/><path opacity=".3" d="M48 52.5a4 4 0 1 0 0-8 4 4 0 0 0 0 8z" fill="#FFD147"/><path d="M48 51.167a2.667 2.667 0 1 0 0-5.334 2.667 2.667 0 0 0 0 5.334z" fill="#FFD147"/><path opacity=".3" d="M37.334 52.5a4 4 0 1 0 0-8 4 4 0 0 0 0 8z" fill="#FFD147"/><path d="M37.333 51.167a2.667 2.667 0 1 0 0-5.334 2.667 2.667 0 0 0 0 5.334z" fill="#FFD147"/><path opacity=".3" d="M58.666 52.5a4 4 0 1 0 0-8 4 4 0 0 0 0 8z" fill="#FFD147"/><path d="M58.667 51.167a2.667 2.667 0 1 0 0-5.334 2.667 2.667 0 0 0 0 5.334z" fill="#FFD147"/></svg>