<svg width="20" height="21" viewBox="0 0 20 21" fill="none" xmlns="http://www.w3.org/2000/svg"><path d="M1 5.8c0-1.68 0-2.52.327-3.162a3 3 0 0 1 1.311-1.311C3.28 1 4.12 1 5.8 1h8.4c1.68 0 2.52 0 3.162.327a3 3 0 0 1 1.311 1.311C19 3.28 19 4.12 19 5.8v5.4c0 1.68 0 2.52-.327 3.162a3 3 0 0 1-1.311 1.311C16.72 16 15.88 16 14.2 16H7.684c-.624 0-.936 0-1.235.061a2.997 2.997 0 0 0-.762.267c-.27.14-.514.334-1.002.724L2.3 18.96c-.416.333-.624.5-.8.5a.5.5 0 0 1-.39-.188C1 19.135 1 18.868 1 18.336V5.8z" stroke="#fff" stroke-width="2" stroke-linecap="round" stroke-linejoin="round"/></svg>