<svg width="48" height="49" viewBox="0 0 48 49" fill="none" xmlns="http://www.w3.org/2000/svg"><path d="M43.611 20.683H42V20.6H24v8h11.303c-1.649 4.657-6.08 8-11.303 8-6.627 0-12-5.373-12-12s5.373-12 12-12c3.059 0 5.842 1.154 7.961 3.039l5.657-5.657C34.046 6.652 29.268 4.6 24 4.6c-11.045 0-20 8.955-20 20s8.955 20 20 20 20-8.955 20-20c0-1.341-.138-2.65-.389-3.917z" fill="#FFC107"/><path d="M6.306 15.29l6.571 4.82C14.655 15.708 18.961 12.6 24 12.6c3.059 0 5.842 1.154 7.961 3.039l5.657-5.657C34.046 6.652 29.268 4.6 24 4.6c-7.682 0-14.344 4.337-17.694 10.69z" fill="#FF3D00"/><path d="M24 44.6c5.166 0 9.86-1.978 13.409-5.193l-6.19-5.238A11.91 11.91 0 0 1 24 36.6c-5.202 0-9.619-3.317-11.283-7.946l-6.522 5.025C9.505 40.155 16.227 44.6 24 44.6z" fill="#4CAF50"/><path d="M43.611 20.683H42V20.6H24v8h11.303a12.04 12.04 0 0 1-4.087 5.57l.003-.001 6.19 5.238C36.971 39.805 44 34.6 44 24.6c0-1.341-.138-2.65-.389-3.917z" fill="#1976D2"/></svg>