<svg width="22" height="20" viewBox="0 0 22 20" fill="none" xmlns="http://www.w3.org/2000/svg"><path d="M17.5 14c1.933 0 3.5-2.91 3.5-6.5S19.433 1 17.5 1m0 13c-1.933 0-3.5-2.91-3.5-6.5S15.567 1 17.5 1m0 13L4.444 11.626c-.928-.168-1.392-.253-1.767-.437a3 3 0 0 1-1.563-1.873C1 8.914 1 8.443 1 7.5c0-.943 0-1.414.114-1.816a3 3 0 0 1 1.563-1.873c.375-.184.839-.268 1.767-.437L17.5 1M4 12l.394 5.514c.037.524.056.785.17.984a1 1 0 0 0 .432.402c.206.1.469.1.994.1h1.782c.6 0 .9 0 1.123-.12a1 1 0 0 0 .44-.474c.102-.231.079-.53.032-1.129L9 12.5" stroke="#fff" stroke-width="2" stroke-linecap="round" stroke-linejoin="round"/></svg>