<svg width="161" height="161" viewBox="0 0 161 161" fill="none" xmlns="http://www.w3.org/2000/svg">
<path d="M45.7818 12.9793C44.7678 11.0167 45.5331 8.59375 47.544 7.67908C58.5234 2.68501 70.5073 0.231036 82.6001 0.523364C94.6929 0.815693 106.544 3.84585 117.269 9.3646C119.234 10.3754 119.881 12.8324 118.773 14.7438L114.762 21.6655C113.655 23.5769 111.212 24.2163 109.235 23.2301C100.844 19.0443 91.6203 16.7461 82.2134 16.5187C72.8066 16.2913 63.4822 18.1412 54.8988 21.9166C52.8766 22.8061 50.4679 22.0494 49.4539 20.0868L45.7818 12.9793Z" fill="#FF625A"/>
<path d="M121.825 16.6095C123.021 14.7524 125.504 14.2088 127.299 15.4964C141.316 25.5515 151.739 39.8951 156.955 56.4134C162.17 72.9317 161.873 90.6601 156.171 106.941C155.441 109.026 153.096 110.006 151.05 109.173L143.642 106.155C141.596 105.321 140.626 102.99 141.33 100.896C145.639 88.0801 145.789 74.1899 141.697 61.2307C137.605 48.2715 129.507 36.9855 118.619 28.9674C116.841 27.6574 116.296 25.192 117.493 23.3348L121.825 16.6095Z" fill="#5856D6"/>
<path d="M149.867 111.921C151.879 112.835 152.778 115.211 151.765 117.175C146.603 127.181 139.38 136 130.554 143.04C120.685 150.913 109.092 156.338 96.7241 158.872C84.3562 161.406 71.5641 160.977 59.3938 157.62C47.2235 154.263 36.0205 148.073 26.7008 139.557C17.381 131.04 10.2092 120.439 5.77161 108.62C1.33403 96.8005 -0.243295 84.0988 1.16861 71.5532C2.58051 59.0075 6.94155 46.9742 13.8952 36.4369C20.1133 27.0141 28.2468 19.0269 37.749 12.9865C39.6134 11.8014 42.0611 12.4833 43.1515 14.4045L47.1005 21.362C48.191 23.2832 47.5095 25.7142 45.6602 26.9226C38.3468 31.701 32.0767 37.9345 27.2495 45.2495C21.6866 53.6793 18.1978 63.306 17.0682 73.3425C15.9387 83.379 17.2006 93.5404 20.7506 102.996C24.3007 112.451 30.0382 120.932 37.494 127.745C44.9498 134.558 53.9122 139.51 63.6484 142.196C73.3847 144.882 83.6183 145.225 93.5126 143.198C103.407 141.17 112.681 136.83 120.577 130.532C127.428 125.067 133.073 118.262 137.174 110.548C138.211 108.598 140.571 107.701 142.583 108.614L149.867 111.921Z" fill="#48A0C8"/>
<path d="M49.9867 94C49.1334 94 48.5067 93.8133 48.1067 93.44C47.7334 93.04 47.5467 92.4667 47.5467 91.72C47.5467 91.2667 47.6667 90.8267 47.9067 90.4C48.1467 89.9733 48.4934 89.52 48.9467 89.04L56.9867 80.48C58.2134 79.2 59.0934 78.04 59.6267 77C60.1601 75.9333 60.4267 74.8667 60.4267 73.8C60.4267 72.4667 60.0001 71.4533 59.1467 70.76C58.3201 70.0667 57.1067 69.72 55.5067 69.72C54.6001 69.72 53.6934 69.8533 52.7867 70.12C51.8801 70.36 50.9601 70.7867 50.0267 71.4C49.5467 71.72 49.0934 71.8533 48.6667 71.8C48.2667 71.7467 47.9067 71.5733 47.5867 71.28C47.2934 70.9867 47.0934 70.6267 46.9867 70.2C46.8801 69.7733 46.8934 69.3467 47.0267 68.92C47.1867 68.4667 47.5067 68.08 47.9867 67.76C49.1334 66.9867 50.4134 66.4 51.8267 66C53.2667 65.6 54.7067 65.4 56.1467 65.4C58.1734 65.4 59.8801 65.7067 61.2667 66.32C62.6534 66.9333 63.7067 67.8267 64.4267 69C65.1467 70.1733 65.5067 71.6 65.5067 73.28C65.5067 74.4 65.3201 75.4933 64.9467 76.56C64.6001 77.6267 64.0534 78.7067 63.3067 79.8C62.5867 80.8933 61.6401 82.0533 60.4667 83.28L52.9467 91.12V89.76H64.7067C65.4267 89.76 65.9734 89.9333 66.3468 90.28C66.7201 90.6267 66.9068 91.1467 66.9068 91.84C66.9068 92.5333 66.7201 93.0667 66.3468 93.44C65.9734 93.8133 65.4267 94 64.7067 94H49.9867ZM80.6511 94.4C77.3178 94.4 74.7711 93.1467 73.0111 90.64C71.2511 88.1067 70.3711 84.5067 70.3711 79.84C70.3711 76.6933 70.7578 74.0533 71.5311 71.92C72.3311 69.76 73.4911 68.1333 75.0111 67.04C76.5578 65.9467 78.4378 65.4 80.6511 65.4C84.0111 65.4 86.5578 66.6267 88.2911 69.08C90.0511 71.5333 90.9311 75.1067 90.9311 79.8C90.9311 82.92 90.5311 85.5733 89.7311 87.76C88.9578 89.92 87.8111 91.5733 86.2911 92.72C84.7711 93.84 82.8911 94.4 80.6511 94.4ZM80.6511 90.2C82.4645 90.2 83.7978 89.36 84.6511 87.68C85.5311 86 85.9711 83.3733 85.9711 79.8C85.9711 76.2267 85.5311 73.64 84.6511 72.04C83.7978 70.4133 82.4645 69.6 80.6511 69.6C78.8645 69.6 77.5311 70.4133 76.6511 72.04C75.7711 73.64 75.3311 76.2267 75.3311 79.8C75.3311 83.3733 75.7711 86 76.6511 87.68C77.5311 89.36 78.8645 90.2 80.6511 90.2ZM104.635 94.4C101.302 94.4 98.7555 93.1467 96.9955 90.64C95.2355 88.1067 94.3555 84.5067 94.3555 79.84C94.3555 76.6933 94.7422 74.0533 95.5155 71.92C96.3155 69.76 97.4755 68.1333 98.9955 67.04C100.542 65.9467 102.422 65.4 104.635 65.4C107.995 65.4 110.542 66.6267 112.275 69.08C114.035 71.5333 114.915 75.1067 114.915 79.8C114.915 82.92 114.515 85.5733 113.715 87.76C112.942 89.92 111.795 91.5733 110.275 92.72C108.755 93.84 106.875 94.4 104.635 94.4ZM104.635 90.2C106.449 90.2 107.782 89.36 108.635 87.68C109.515 86 109.955 83.3733 109.955 79.8C109.955 76.2267 109.515 73.64 108.635 72.04C107.782 70.4133 106.449 69.6 104.635 69.6C102.849 69.6 101.515 70.4133 100.635 72.04C99.7555 73.64 99.3155 76.2267 99.3155 79.8C99.3155 83.3733 99.7555 86 100.635 87.68C101.515 89.36 102.849 90.2 104.635 90.2Z" fill="black"/>
</svg>
