<svg width="69" height="81" viewBox="0 0 69 81" fill="none" xmlns="http://www.w3.org/2000/svg">
<path d="M43.6196 0.188354H0.599609V73.2104H57.0606V14.4194L43.6196 0.188354ZM44.2626 4.15735L53.3116 13.7384H44.2626V4.15735ZM54.7996 70.9524H2.85761V2.44635H41.9996V15.9974H54.7996V70.9524Z" fill="#F7961C"/>
<path d="M49.9085 28.9453H7.75146V31.2033H49.9085V28.9453Z" fill="#F7961C"/>
<path d="M25.8185 21.4174H7.75146V23.6754H25.8185V21.4174Z" fill="#F7961C"/>
<path d="M49.9085 36.4734H7.75146V38.7314H49.9085V36.4734Z" fill="#F7961C"/>
<path d="M49.9085 44.0013H7.75146V46.2593H49.9085V44.0013Z" fill="#F7961C"/>
<path d="M49.9085 51.5304H7.75146V53.7884H49.9085V51.5304Z" fill="#F7961C"/>
<path d="M49.9085 59.0583H7.75146V61.3163H49.9085V59.0583Z" fill="#F7961C"/>
<path d="M52.4004 80.3174C61.2369 80.3174 68.4004 73.1539 68.4004 64.3174C68.4004 55.4808 61.2369 48.3174 52.4004 48.3174C43.5638 48.3174 36.4004 55.4808 36.4004 64.3174C36.4004 73.1539 43.5638 80.3174 52.4004 80.3174Z" fill="white"/>
<path d="M46.3416 65.5704L45.5696 64.7984C45.4918 64.7211 45.4301 64.6292 45.388 64.5279C45.3459 64.4267 45.3242 64.3181 45.3242 64.2084C45.3242 64.0987 45.3459 63.9902 45.388 63.8889C45.4301 63.7877 45.4918 63.6957 45.5696 63.6184L52.3266 56.8534C52.4039 56.7756 52.4958 56.7139 52.5971 56.6718C52.6984 56.6297 52.8069 56.608 52.9166 56.608C53.0263 56.608 53.1348 56.6297 53.2361 56.6718C53.3373 56.7139 53.4293 56.7756 53.5066 56.8534L60.2676 63.6144C60.3454 63.6917 60.4071 63.7837 60.4492 63.8849C60.4913 63.9862 60.513 64.0947 60.513 64.2044C60.513 64.3141 60.4913 64.4227 60.4492 64.5239C60.4071 64.6252 60.3454 64.7171 60.2676 64.7944L59.4956 65.5664C59.4168 65.6449 59.3232 65.7069 59.2202 65.7488C59.1172 65.7906 59.0068 65.8115 58.8957 65.8102C58.7845 65.8089 58.6747 65.7854 58.5727 65.7412C58.4706 65.6969 58.3785 65.6327 58.3016 65.5524L54.3136 61.3614V71.3614C54.3139 71.4711 54.2924 71.5798 54.2506 71.6813C54.2087 71.7827 54.1472 71.8748 54.0696 71.9524C53.992 72.03 53.8999 72.0915 53.7985 72.1334C53.697 72.1753 53.5883 72.1967 53.4786 72.1964H52.3646C52.2546 72.1971 52.1456 72.1759 52.0438 72.1343C51.9421 72.0926 51.8495 72.0311 51.7716 71.9535C51.6937 71.8759 51.632 71.7836 51.5899 71.682C51.5478 71.5803 51.5263 71.4714 51.5266 71.3614V61.3614L47.5356 65.5564C47.4591 65.6375 47.3671 65.7023 47.2651 65.747C47.163 65.7918 47.053 65.8155 46.9416 65.8168C46.8301 65.8181 46.7196 65.797 46.6165 65.7546C46.5134 65.7123 46.4199 65.6497 46.3416 65.5704Z" fill="#F7961C"/>
</svg>
