<svg width="33" height="32" viewBox="0 0 33 32" fill="none" xmlns="http://www.w3.org/2000/svg">
<path d="M0.5 8C0.5 3.58172 4.08172 0 8.5 0H24.5C28.9183 0 32.5 3.58172 32.5 8V24C32.5 28.4183 28.9183 32 24.5 32H8.5C4.08172 32 0.5 28.4183 0.5 24V8Z" fill="white"/>
<path d="M26.3055 14.0415H25.5V14H16.5V18H22.1515C21.327 20.3285 19.1115 22 16.5 22C13.1865 22 10.5 19.3135 10.5 16C10.5 12.6865 13.1865 10 16.5 10C18.0295 10 19.421 10.577 20.4805 11.5195L23.309 8.691C21.523 7.0265 19.134 6 16.5 6C10.9775 6 6.5 10.4775 6.5 16C6.5 21.5225 10.9775 26 16.5 26C22.0225 26 26.5 21.5225 26.5 16C26.5 15.3295 26.431 14.675 26.3055 14.0415Z" fill="#FFC107"/>
<path d="M7.65302 11.3455L10.9385 13.755C11.8275 11.554 13.9805 10 16.5 10C18.0295 10 19.421 10.577 20.4805 11.5195L23.309 8.691C21.523 7.0265 19.134 6 16.5 6C12.659 6 9.32802 8.1685 7.65302 11.3455Z" fill="#FF3D00"/>
<path d="M16.5 26.0003C19.083 26.0003 21.43 25.0118 23.2045 23.4043L20.1095 20.7853C19.1055 21.5458 17.8575 22.0003 16.5 22.0003C13.899 22.0003 11.6905 20.3418 10.8585 18.0273L7.59747 20.5398C9.25247 23.7783 12.6135 26.0003 16.5 26.0003Z" fill="#4CAF50"/>
<path d="M26.3055 14.0415H25.5V14H16.5V18H22.1515C21.7555 19.1185 21.036 20.083 20.108 20.7855L20.1095 20.7845L23.2045 23.4035C22.9855 23.6025 26.5 21 26.5 16C26.5 15.3295 26.431 14.675 26.3055 14.0415Z" fill="#1976D2"/>
</svg>
