<svg id="Icon-Set-Filled" xmlns="http://www.w3.org/2000/svg" width="27.584" height="31.524" viewBox="0 0 27.584 31.524">
  <path id="receipt" d="M436.688,784.881H422.9a.985.985,0,1,1,0-1.97h13.792a.985.985,0,1,1,0,1.97Zm0,5.889H422.9a.985.985,0,0,1,0-1.97h13.792a.985.985,0,1,1,0,1.97Zm0,5.932H422.9a.985.985,0,1,1,0-1.97h13.792a.985.985,0,1,1,0,1.97Zm2.955-19.7h-19.7A3.941,3.941,0,0,0,416,780.94v27.584h1.839l4.072-2.955,3.941,2.955,3.941-2.955,3.941,2.955,3.941-2.955,4.073,2.955h1.838V780.94A3.941,3.941,0,0,0,439.643,777Z" transform="translate(-416 -777)" fill="#fff" fill-rule="evenodd"/>
</svg>
