<svg width="16" height="20" viewBox="0 0 16 20" fill="none" xmlns="http://www.w3.org/2000/svg">
<path d="M0.5 0.25V19.75H15.5V0.25H0.5ZM2 1.75H14V18.25H2V1.75ZM3.5 3.25V7.75H12.5V3.25H3.5ZM5 4.75H11V6.25H5V4.75ZM4.25 9.25V10.75H5.75V9.25H4.25ZM7.25 9.25V10.75H8.75V9.25H7.25ZM10.25 9.25V10.75H11.75V9.25H10.25ZM4.25 12.25V13.75H5.75V12.25H4.25ZM7.25 12.25V13.75H8.75V12.25H7.25ZM10.25 12.25V13.75H11.75V12.25H10.25ZM4.25 15.25V16.75H5.75V15.25H4.25ZM7.25 15.25V16.75H8.75V15.25H7.25ZM10.25 15.25V16.75H11.75V15.25H10.25Z" fill="white"/>
</svg>
