<svg width="125" height="126" viewBox="0 0 125 126" fill="none" xmlns="http://www.w3.org/2000/svg">
<path d="M62.5 56.75C70.788 56.75 78.7366 60.0424 84.5971 65.9029C90.4576 71.7634 93.75 79.712 93.75 88V125.5H31.25V88C31.25 79.712 34.5424 71.7634 40.4029 65.9029C46.2634 60.0424 54.212 56.75 62.5 56.75ZM20.55 75.5375C19.5554 78.8924 18.9678 82.3548 18.8 85.85L18.75 88V125.5H5.70731e-07V97.375C-0.00123004 91.9848 1.98768 86.784 5.58522 82.7701C9.18276 78.7561 14.1356 76.2118 19.4937 75.625L20.55 75.5375ZM104.45 75.5375C110.012 75.8765 115.235 78.3247 119.054 82.3827C122.872 86.4407 124.999 91.8027 125 97.375V125.5H106.25V88C106.25 83.6687 105.625 79.4875 104.45 75.5375ZM21.875 38C26.019 38 29.9933 39.6462 32.9235 42.5765C35.8538 45.5067 37.5 49.481 37.5 53.625C37.5 57.769 35.8538 61.7433 32.9235 64.6735C29.9933 67.6038 26.019 69.25 21.875 69.25C17.731 69.25 13.7567 67.6038 10.8265 64.6735C7.8962 61.7433 6.25 57.769 6.25 53.625C6.25 49.481 7.8962 45.5067 10.8265 42.5765C13.7567 39.6462 17.731 38 21.875 38ZM103.125 38C107.269 38 111.243 39.6462 114.174 42.5765C117.104 45.5067 118.75 49.481 118.75 53.625C118.75 57.769 117.104 61.7433 114.174 64.6735C111.243 67.6038 107.269 69.25 103.125 69.25C98.981 69.25 95.0067 67.6038 92.0765 64.6735C89.1462 61.7433 87.5 57.769 87.5 53.625C87.5 49.481 89.1462 45.5067 92.0765 42.5765C95.0067 39.6462 98.981 38 103.125 38ZM62.5 0.5C69.1304 0.5 75.4893 3.13392 80.1777 7.82233C84.8661 12.5107 87.5 18.8696 87.5 25.5C87.5 32.1304 84.8661 38.4893 80.1777 43.1777C75.4893 47.8661 69.1304 50.5 62.5 50.5C55.8696 50.5 49.5107 47.8661 44.8223 43.1777C40.1339 38.4893 37.5 32.1304 37.5 25.5C37.5 18.8696 40.1339 12.5107 44.8223 7.82233C49.5107 3.13392 55.8696 0.5 62.5 0.5Z" fill="#99CAFF"/>
</svg>
