<svg xmlns="http://www.w3.org/2000/svg" width="89.954" height="90.953" viewBox="0 0 89.954 90.953">
  <g id="Group_41141" data-name="Group 41141" transform="translate(-601.369 -1769.812)">
    <path id="Path_32910" data-name="Path 32910" d="M653.032,1840.093h36.683a.65.65,0,0,1,.608.686h0c0,3.032-2.178,5.489-4.865,5.489H652.887" fill="#004999" stroke="#edf5fd" stroke-width="2"/>
    <path id="Rectangle_22683" data-name="Rectangle 22683" d="M5.038,0H62.846a5.038,5.038,0,0,1,5.038,5.038V50.508a0,0,0,0,1,0,0H0a0,0,0,0,1,0,0V5.038A5.038,5.038,0,0,1,5.038,0Z" transform="translate(612.404 1789.659)" fill="#004999" stroke="#edf5fd" stroke-width="2"/>
    <path id="Path_32911" data-name="Path 32911" d="M629.532,1853.772h-19.15A3.563,3.563,0,0,1,607.07,1850v-40.474a3.563,3.563,0,0,1,3.312-3.769h27.407a3.562,3.562,0,0,1,3.311,3.769v8.433" fill="#004999" stroke="#edf5fd" stroke-width="2"/>
    <g id="Rectangle_22684" data-name="Rectangle 22684" transform="translate(629.532 1817.962)" fill="#004999" stroke="#edf5fd" stroke-width="2">
      <rect width="23.427" height="40.804" rx="2.809" stroke="none"/>
      <rect x="-1" y="-1" width="25.427" height="42.804" rx="3.809" fill="none"/>
    </g>
    <path id="Path_32912" data-name="Path 32912" d="M602.369,1841.4" fill="none" stroke="#2bcadd" stroke-linecap="round" stroke-linejoin="round" stroke-width="2"/>
    <path id="Path_32913" data-name="Path 32913" d="M607.07,1840.093h-4.093a.65.65,0,0,0-.608.686h0a5.287,5.287,0,0,0,4.367,5.461" fill="#004999" stroke="#edf5fd" stroke-width="2"/>
    <path id="Path_32914" data-name="Path 32914" d="M669.688,1770.812a20.635,20.635,0,1,0,20.635,20.635A20.634,20.634,0,0,0,669.688,1770.812Z" fill="#004999" stroke="#edf5fd" stroke-width="2"/>
    <g id="Ellipse_2471" data-name="Ellipse 2471" transform="translate(640.146 1854.054)" fill="#edf5fd" stroke="#004999" stroke-width="2">
      <circle cx="1.099" cy="1.099" r="1.099" stroke="none"/>
      <circle cx="1.099" cy="1.099" r="2.099" fill="none"/>
    </g>
    <g id="Ellipse_2472" data-name="Ellipse 2472" transform="translate(622.986 1848.06)" fill="#edf5fd" stroke="#004999" stroke-width="2">
      <circle cx="1.099" cy="1.099" r="1.099" stroke="none"/>
      <circle cx="1.099" cy="1.099" r="2.099" fill="none"/>
    </g>
    <path id="Path_32915" data-name="Path 32915" d="M677.338,1786.6l-9.333,9.332a1.227,1.227,0,0,1-1.735,0l-4.233-4.232" fill="#004999" stroke="#edf5fd" stroke-linecap="round" stroke-width="2"/>
  </g>
</svg>
