<svg width="10" height="10" viewBox="0 0 10 10" fill="none" xmlns="http://www.w3.org/2000/svg">
<path d="M3.19014 3.42668C3.53814 4.15149 4.01253 4.83081 4.61332 5.4316C5.21411 6.03238 5.89343 6.50678 6.61824 6.85478C6.68059 6.88471 6.71176 6.89968 6.7512 6.91118C6.89138 6.95204 7.06351 6.92269 7.18222 6.83768C7.21563 6.81376 7.24421 6.78518 7.30136 6.72803C7.47617 6.55322 7.56357 6.46582 7.65146 6.40868C7.9829 6.19318 8.41019 6.19318 8.74164 6.40868C8.82953 6.46582 8.91693 6.55322 9.09173 6.72803L9.18917 6.82546C9.45489 7.09118 9.58775 7.22404 9.65992 7.36673C9.80346 7.65051 9.80346 7.98565 9.65992 8.26943C9.58775 8.41212 9.45489 8.54498 9.18917 8.8107L9.11035 8.88952C8.84554 9.15433 8.71313 9.28673 8.53312 9.38786C8.33336 9.50007 8.02312 9.58075 7.79401 9.58007C7.58753 9.57945 7.44642 9.5394 7.1642 9.4593C5.6475 9.02881 4.21632 8.21658 3.02233 7.02259C1.82834 5.8286 1.0161 4.39742 0.585618 2.88072C0.505514 2.59849 0.465462 2.45738 0.464848 2.25091C0.464166 2.0218 0.544847 1.71155 0.657057 1.5118C0.758181 1.33178 0.890587 1.19938 1.1554 0.934566L1.23422 0.855749C1.49994 0.590028 1.6328 0.457167 1.77549 0.384995C2.05927 0.24146 2.3944 0.24146 2.67818 0.384995C2.82087 0.457167 2.95373 0.590028 3.21945 0.855749L3.31689 0.953184C3.49169 1.12799 3.57909 1.21539 3.63624 1.30328C3.85173 1.63472 3.85173 2.06201 3.63624 2.39346C3.57909 2.48135 3.49169 2.56875 3.31689 2.74355C3.25973 2.80071 3.23115 2.82929 3.20723 2.86269C3.12223 2.98141 3.09288 3.15354 3.13374 3.29371C3.14524 3.33316 3.1602 3.36433 3.19014 3.42668Z" fill="#2E2E2E"/>
</svg>
