<svg width="51" height="52" viewBox="0 0 51 52" fill="none" xmlns="http://www.w3.org/2000/svg">
<path d="M47.954 11.7578H34.246C33.9628 11.7578 33.6824 11.8137 33.4208 11.9221C33.1591 12.0305 32.9214 12.1893 32.7212 12.3896C32.521 12.59 32.3622 12.8278 32.2539 13.0895C32.1456 13.3512 32.0898 13.6316 32.09 13.9148L32.1071 51.9259L50.14 51.8728L50.1111 13.9128C50.1106 13.3411 49.883 12.793 49.4785 12.3889C49.0741 11.9848 48.5257 11.7578 47.954 11.7578Z" fill="#991B33"/>
<path d="M30.7001 26.4961L20.1 30.545L20.0811 25.6201L9.28101 30.55L0 30.5791V51.9561L30.636 52.0001" fill="#991B33"/>
<path d="M9.01404 29.2353C9.01404 29.2353 8.33299 14.4962 8.26599 12.3892C8.26599 12.3312 8.26599 12.2712 8.26599 12.2132C8.2718 12.0728 8.24799 11.9328 8.19604 11.8022C8.1441 11.6716 8.06515 11.5535 7.96448 11.4555C7.8638 11.3575 7.74359 11.2818 7.61169 11.2333C7.4798 11.1849 7.33917 11.1647 7.19897 11.1743C6.43597 11.1493 2.68502 11.1513 1.92102 11.1743C1.78098 11.1629 1.64013 11.182 1.50818 11.2303C1.37623 11.2785 1.25629 11.3548 1.15662 11.4538C1.05694 11.5528 0.979917 11.6721 0.930786 11.8038C0.881656 11.9354 0.861647 12.0761 0.87207 12.2162C0.81107 13.2673 0.00305176 29.2342 0.00305176 29.2342" fill="#991B33"/>
<path d="M3.91894 8.9521C4.46807 9.10452 5.0505 9.08798 5.59008 8.90461C6.12967 8.72124 6.60141 8.37959 6.94397 7.92414C7.16997 7.63514 7.34406 7.30614 7.58606 6.92414C8.0435 7.17299 8.56872 7.26849 9.08447 7.19648C9.60022 7.12448 10.0792 6.88874 10.451 6.52412C10.7758 6.83802 11.2083 7.01604 11.6599 7.0218C12.1116 7.02756 12.5483 6.86064 12.881 6.55512C14.355 8.30912 15.771 8.40916 17.869 6.99616C18.5518 6.91026 19.2434 6.92164 19.923 7.0301C20.4103 7.21853 20.9371 7.28166 21.4551 7.21369C21.9731 7.14573 22.4659 6.94894 22.8881 6.64118C23.2778 6.73489 23.684 6.73556 24.074 6.64314C24.464 6.55072 24.8268 6.36782 25.1331 6.1092C25.7961 5.4992 26.425 4.84912 27.033 4.18012C27.2139 3.95354 27.3283 3.68103 27.363 3.39314C27.4135 3.06268 27.3934 2.72528 27.3041 2.40315C27.2148 2.08101 27.0582 1.78143 26.8448 1.52412C26.6315 1.2668 26.3661 1.05759 26.066 0.910227C25.766 0.762866 25.4381 0.680695 25.104 0.669138C24.6499 0.715671 24.1914 0.695836 23.743 0.610178C22.9949 0.357975 22.1826 0.371027 21.443 0.647165C21.0947 0.366646 20.6817 0.177801 20.2417 0.0979708C19.8017 0.0181408 19.3486 0.0498392 18.9239 0.190134C18.1082 0.508416 17.2531 0.714665 16.382 0.803171C15.6566 0.469075 14.9026 0.201267 14.129 0.00312213C13.7788 -0.0148138 13.4289 0.0446915 13.1042 0.177439C12.7796 0.310186 12.4883 0.512974 12.251 0.771189H9.67602C9.23331 0.453108 8.70609 0.273735 8.16125 0.25593C7.61641 0.238125 7.07849 0.382593 6.61596 0.671091C6.08548 0.936518 5.64199 1.34815 5.33776 1.85737C5.03354 2.36659 4.88136 2.9522 4.89904 3.54511C4.36486 3.56854 3.85925 3.79286 3.48339 4.17317C3.10754 4.55347 2.88908 5.06172 2.87194 5.59614C2.85494 5.78514 2.65298 5.94918 2.57898 6.14118C2.47233 6.41297 2.42263 6.70378 2.43298 6.99555C2.44333 7.28733 2.51352 7.5738 2.63916 7.83735C2.76479 8.1009 2.94317 8.3359 3.16333 8.52766C3.38348 8.71942 3.64065 8.86382 3.91894 8.9521Z" fill="#991B33"/>
</svg>
