<svg width="50" height="50" viewBox="0 0 50 50" fill="none" xmlns="http://www.w3.org/2000/svg">
<path d="M42.3101 45.3779V47.9979C42.2862 48.551 42.044 49.072 41.6367 49.4469C41.2294 49.8218 40.6901 50.0199 40.137 49.9979H9.93805C9.38501 50.0196 8.8459 49.8213 8.43866 49.4465C8.03142 49.0717 7.78918 48.5509 7.76501 47.9979V45.3779H42.3101Z" fill="#0F786A"/>
<path d="M42.88 0H7.12C3.18773 0 0 3.18773 0 7.12V35.88C0 39.8123 3.18773 43 7.12 43H42.88C46.8123 43 50 39.8123 50 35.88V7.12C50 3.18773 46.8123 0 42.88 0Z" fill="#0F786A"/>
<path d="M26.6251 19.25V26.488H31.3251L23.8541 35.812V28.952H19.1001L26.6251 19.25Z" stroke="white" stroke-width="2.213" stroke-linecap="round" stroke-linejoin="round"/>
<path d="M37.812 6.21289H12.264C10.0549 6.21289 8.26404 8.00375 8.26404 10.2129V10.5999C8.26404 12.809 10.0549 14.5999 12.264 14.5999H37.812C40.0212 14.5999 41.812 12.809 41.812 10.5999V10.2129C41.812 8.00375 40.0212 6.21289 37.812 6.21289Z" stroke="white" stroke-width="2.213" stroke-linecap="round" stroke-linejoin="round"/>
<path d="M12.865 9.58594V11.3339" stroke="white" stroke-width="2.213" stroke-linecap="round" stroke-linejoin="round"/>
<path d="M17.7319 9.58594V11.3339" stroke="white" stroke-width="2.213" stroke-linecap="round" stroke-linejoin="round"/>
<path d="M22.599 9.58594V11.3339" stroke="white" stroke-width="2.213" stroke-linecap="round" stroke-linejoin="round"/>
<path d="M27.4659 9.58594V11.3339" stroke="white" stroke-width="2.213" stroke-linecap="round" stroke-linejoin="round"/>
<path d="M31.959 9.58594V11.3339" stroke="white" stroke-width="2.213" stroke-linecap="round" stroke-linejoin="round"/>
<path d="M37.2 9.58594V11.3339" stroke="white" stroke-width="2.213" stroke-linecap="round" stroke-linejoin="round"/>
</svg>
