<svg width="524" height="246" viewBox="0 0 524 246" fill="none" xmlns="http://www.w3.org/2000/svg">
<path d="M0 12C0 5.37259 5.37258 0 12 0H512C518.627 0 524 5.37258 524 12V234C524 240.627 518.627 246 512 246H12C5.37258 246 0 240.627 0 234V12Z" fill="#E6EAED"/>
<g clip-path="url(#clip0_1_20310)">
<path d="M290 146.333V148.667C290 152.533 286.866 155.667 283 155.667H227C223.134 155.667 220 152.533 220 148.667V111.333C220 107.467 223.134 104.333 227 104.333H229.333V134.667C229.333 141.1 234.567 146.333 241 146.333H290ZM304 134.667V97.3333C304 93.4672 300.866 90.3333 297 90.3333H241C237.134 90.3333 234 93.4672 234 97.3333V134.667C234 138.533 237.134 141.667 241 141.667H297C300.866 141.667 304 138.533 304 134.667ZM257.333 104.333C257.333 108.199 254.199 111.333 250.333 111.333C246.467 111.333 243.333 108.199 243.333 104.333C243.333 100.467 246.467 97.3333 250.333 97.3333C254.199 97.3333 257.333 100.467 257.333 104.333ZM243.333 125.333L251.429 117.237C252.113 116.554 253.221 116.554 253.904 117.237L259.667 123L279.429 103.237C280.113 102.554 281.221 102.554 281.904 103.237L294.667 116V132.333H243.333V125.333Z" fill="#9CABB8"/>
</g>
<defs>
<clipPath id="clip0_1_20310">
<rect width="84" height="84" fill="white" transform="translate(220 81)"/>
</clipPath>
</defs>
</svg>
