<svg xmlns="http://www.w3.org/2000/svg" width="48.147" height="42" viewBox="0 0 48.147 42">
  <path id="hand-money-icon" d="M9.839,36.71V21.515h6.837a25.192,25.192,0,0,1,8.695,3.918H30.68c2.406.145,3.664,2.582,1.328,4.181-1.861,1.367-4.31,1.289-6.841,1.066a1.142,1.142,0,1,0,0,2.253c.631.051,1.317-.1,1.912-.1,3.135,0,5.732-.6,7.315-3.088l.784-1.857,7.915-3.918c3.953-1.3,6.767,2.833,3.852,5.709a103.386,103.386,0,0,1-17.6,10.364,11.9,11.9,0,0,1-13.071,0ZM19.83,0,45.346,7.7,41.51,21.1l-1.795-.274,2.743-9.8L42.5,10.9a1.751,1.751,0,0,0-1.222-2.147l-.862-.235V8.491L36.353,7.417l-17.1-5.4ZM15.61,2.7l25.531,7.7L37.29,23.8,11.774,16.1ZM24.5,11.23a3.17,3.17,0,1,1,.133,4.475A3.17,3.17,0,0,1,24.5,11.23ZM19.332,5.971l16.884,5.235a2.061,2.061,0,0,0,1.4,2.543l-1.5,5.3a2.057,2.057,0,0,0-2.543,1.414L16.688,15.226a2.061,2.061,0,0,0-1.407-2.543l1.512-5.3A2.057,2.057,0,0,0,19.34,5.971ZM0,20.069H7.782V38.238H0Z" fill="#fff" fill-rule="evenodd"/>
</svg>
