<svg width="32" height="32" viewBox="0 0 32 32" fill="none" xmlns="http://www.w3.org/2000/svg">
<g clip-path="url(#clip0_3803_4206)">
<path d="M10 22C11.0609 22 12.0783 21.5786 12.8284 20.8284C13.5786 20.0783 14 19.0609 14 18C14 16.9391 13.5786 15.9217 12.8284 15.1716C12.0783 14.4214 11.0609 14 10 14C8.93913 14 7.92172 14.4214 7.17157 15.1716C6.42143 15.9217 6 16.9391 6 18C6 19.0609 6.42143 20.0783 7.17157 20.8284C7.92172 21.5786 8.93913 22 10 22ZM10 16C10.5304 16 11.0391 16.2107 11.4142 16.5858C11.7893 16.9609 12 17.4696 12 18C12 18.5304 11.7893 19.0391 11.4142 19.4142C11.0391 19.7893 10.5304 20 10 20C9.46957 20 8.96086 19.7893 8.58578 19.4142C8.21071 19.0391 8 18.5304 8 18C8 17.4696 8.21071 16.9609 8.58578 16.5858C8.96086 16.2107 9.46957 16 10 16ZM15 24H5C3.67392 24 2.40215 24.5268 1.46447 25.4645C0.526784 26.4021 0 27.6739 0 29C0 29.7956 0.316072 30.5587 0.878681 31.1213C1.44129 31.6839 2.20435 32 3 32H17C17.7956 32 18.5587 31.6839 19.1213 31.1213C19.6839 30.5587 20 29.7956 20 29C20 27.6739 19.4732 26.4021 18.5355 25.4645C17.5979 24.5268 16.3261 24 15 24ZM17 30H3C2.73478 30 2.48043 29.8946 2.29289 29.7071C2.10536 29.5196 2 29.2652 2 29C2 28.2044 2.31607 27.4413 2.87868 26.8787C3.44129 26.3161 4.20435 26 5 26H15C15.7956 26 16.5587 26.3161 17.1213 26.8787C17.6839 27.4413 18 28.2044 18 29C18 29.2652 17.8946 29.5196 17.7071 29.7071C17.5196 29.8946 17.2652 30 17 30ZM32 5V15C32 16.3261 31.4732 17.5979 30.5355 18.5355C29.5979 19.4732 28.3261 20 27 20H21.414L17.708 23.708C17.615 23.8008 17.5045 23.8744 17.3831 23.9245C17.2616 23.9746 17.1314 24.0002 17 24C16.8689 24.0003 16.739 23.9745 16.618 23.924C16.4351 23.8484 16.2788 23.7203 16.1688 23.5558C16.0588 23.3913 16 23.1979 16 23V19C16 18.7348 16.1054 18.4804 16.2929 18.2929C16.4804 18.1054 16.7348 18 17 18C17.2652 18 17.5196 18.1054 17.7071 18.2929C17.8946 18.4804 18 18.7348 18 19V20.586L20.292 18.292C20.385 18.1992 20.4955 18.1256 20.6169 18.0755C20.7384 18.0254 20.8686 17.9998 21 18H27C27.7956 18 28.5587 17.6839 29.1213 17.1213C29.6839 16.5587 30 15.7956 30 15V5C30 4.20435 29.6839 3.44129 29.1213 2.87868C28.5587 2.31607 27.7956 2 27 2H13C12.2044 2 11.4413 2.31607 10.8787 2.87868C10.3161 3.44129 10 4.20435 10 5V11C10 11.2652 9.89464 11.5196 9.70711 11.7071C9.51957 11.8946 9.26522 12 9 12C8.73478 12 8.48043 11.8946 8.29289 11.7071C8.10536 11.5196 8 11.2652 8 11V5C8 3.67392 8.52678 2.40215 9.46447 1.46447C10.4021 0.526784 11.6739 0 13 0L27 0C28.3261 0 29.5979 0.526784 30.5355 1.46447C31.4732 2.40215 32 3.67392 32 5ZM16.292 12.292L20.586 8H17C16.7348 8 16.4804 7.89464 16.2929 7.70711C16.1054 7.51957 16 7.26522 16 7C16 6.73478 16.1054 6.48043 16.2929 6.29289C16.4804 6.10536 16.7348 6 17 6H23C23.1311 6.00005 23.2609 6.02587 23.382 6.076C23.6267 6.17861 23.8214 6.37326 23.924 6.618C23.9741 6.73912 23.9999 6.86892 24 7V13C24 13.2652 23.8946 13.5196 23.7071 13.7071C23.5196 13.8946 23.2652 14 23 14C22.7348 14 22.4804 13.8946 22.2929 13.7071C22.1054 13.5196 22 13.2652 22 13V9.414L17.708 13.708C17.615 13.8008 17.5045 13.8744 17.3831 13.9245C17.2616 13.9746 17.1314 14.0002 17 14C16.8686 14.0002 16.7384 13.9746 16.6169 13.9245C16.4955 13.8744 16.385 13.8008 16.292 13.708C16.1989 13.6151 16.125 13.5048 16.0746 13.3833C16.0242 13.2618 15.9982 13.1315 15.9982 13C15.9982 12.8685 16.0242 12.7382 16.0746 12.6167C16.125 12.4952 16.1989 12.3849 16.292 12.292Z" fill="#2E388F"/>
</g>
<defs>
<clipPath id="clip0_3803_4206">
<rect width="32" height="32" fill="white"/>
</clipPath>
</defs>
</svg>
