<svg width="24" height="24" viewBox="0 0 24 24" fill="none" xmlns="http://www.w3.org/2000/svg">
<path d="M7.5 16.5C8.29565 16.5 9.05871 16.1839 9.62132 15.6213C10.1839 15.0587 10.5 14.2956 10.5 13.5C10.5 12.7044 10.1839 11.9413 9.62132 11.3787C9.05871 10.8161 8.29565 10.5 7.5 10.5C6.70435 10.5 5.94129 10.8161 5.37868 11.3787C4.81607 11.9413 4.5 12.7044 4.5 13.5C4.5 14.2956 4.81607 15.0587 5.37868 15.6213C5.94129 16.1839 6.70435 16.5 7.5 16.5ZM7.5 12C7.89782 12 8.27936 12.158 8.56066 12.4393C8.84197 12.7206 9 13.1022 9 13.5C9 13.8978 8.84197 14.2794 8.56066 14.5607C8.27936 14.842 7.89782 15 7.5 15C7.10218 15 6.72064 14.842 6.43934 14.5607C6.15803 14.2794 6 13.8978 6 13.5C6 13.1022 6.15803 12.7206 6.43934 12.4393C6.72064 12.158 7.10218 12 7.5 12ZM11.25 18H3.75C2.75544 18 1.80161 18.3951 1.09835 19.0984C0.395088 19.8016 0 20.7554 0 21.75C0 22.3467 0.237054 22.919 0.659011 23.341C1.08097 23.7629 1.65326 24 2.25 24H12.75C13.3467 24 13.919 23.7629 14.341 23.341C14.7629 22.919 15 22.3467 15 21.75C15 20.7554 14.6049 19.8016 13.9017 19.0984C13.1984 18.3951 12.2446 18 11.25 18ZM12.75 22.5H2.25C2.05109 22.5 1.86032 22.421 1.71967 22.2803C1.57902 22.1397 1.5 21.9489 1.5 21.75C1.5 21.1533 1.73705 20.581 2.15901 20.159C2.58097 19.7371 3.15326 19.5 3.75 19.5H11.25C11.8467 19.5 12.419 19.7371 12.841 20.159C13.2629 20.581 13.5 21.1533 13.5 21.75C13.5 21.9489 13.421 22.1397 13.2803 22.2803C13.1397 22.421 12.9489 22.5 12.75 22.5ZM24 3.75V11.25C24 12.2446 23.6049 13.1984 22.9016 13.9017C22.1984 14.6049 21.2446 15 20.25 15H16.0605L13.281 17.781C13.2112 17.8506 13.1284 17.9058 13.0373 17.9433C12.9462 17.9809 12.8486 18.0002 12.75 18C12.6517 18.0002 12.5543 17.9809 12.4635 17.943C12.3263 17.8863 12.2091 17.7902 12.1266 17.6668C12.0441 17.5435 12 17.3984 12 17.25V14.25C12 14.0511 12.079 13.8603 12.2197 13.7197C12.3603 13.579 12.5511 13.5 12.75 13.5C12.9489 13.5 13.1397 13.579 13.2803 13.7197C13.421 13.8603 13.5 14.0511 13.5 14.25V15.4395L15.219 13.719C15.2888 13.6494 15.3716 13.5942 15.4627 13.5567C15.5538 13.5191 15.6514 13.4998 15.75 13.5H20.25C20.8467 13.5 21.419 13.2629 21.841 12.841C22.2629 12.419 22.5 11.8467 22.5 11.25V3.75C22.5 3.15326 22.2629 2.58097 21.841 2.15901C21.419 1.73705 20.8467 1.5 20.25 1.5H9.75C9.15326 1.5 8.58097 1.73705 8.15901 2.15901C7.73705 2.58097 7.5 3.15326 7.5 3.75V8.25C7.5 8.44891 7.42098 8.63968 7.28033 8.78033C7.13968 8.92098 6.94891 9 6.75 9C6.55109 9 6.36032 8.92098 6.21967 8.78033C6.07902 8.63968 6 8.44891 6 8.25V3.75C6 2.75544 6.39509 1.80161 7.09835 1.09835C7.80161 0.395088 8.75544 0 9.75 0L20.25 0C21.2446 0 22.1984 0.395088 22.9016 1.09835C23.6049 1.80161 24 2.75544 24 3.75ZM12.219 9.219L15.4395 6H12.75C12.5511 6 12.3603 5.92098 12.2197 5.78033C12.079 5.63968 12 5.44891 12 5.25C12 5.05109 12.079 4.86032 12.2197 4.71967C12.3603 4.57902 12.5511 4.5 12.75 4.5H17.25C17.3483 4.50004 17.4457 4.51941 17.5365 4.557C17.7201 4.63396 17.866 4.77994 17.943 4.9635C17.9806 5.05434 18 5.15169 18 5.25V9.75C18 9.94891 17.921 10.1397 17.7803 10.2803C17.6397 10.421 17.4489 10.5 17.25 10.5C17.0511 10.5 16.8603 10.421 16.7197 10.2803C16.579 10.1397 16.5 9.94891 16.5 9.75V7.0605L13.281 10.281C13.2112 10.3506 13.1284 10.4058 13.0373 10.4433C12.9462 10.4809 12.8486 10.5002 12.75 10.5C12.6514 10.5002 12.5538 10.4809 12.4627 10.4433C12.3716 10.4058 12.2888 10.3506 12.219 10.281C12.1492 10.2113 12.0937 10.1286 12.0559 10.0375C12.0181 9.94633 11.9987 9.84865 11.9987 9.75C11.9987 9.65135 12.0181 9.55367 12.0559 9.46255C12.0937 9.37143 12.1492 9.28867 12.219 9.219Z" fill="white"/>
</svg>
