<svg width="51" height="52" viewBox="0 0 51 52" fill="none" xmlns="http://www.w3.org/2000/svg">
<path d="M29.165 41.1603L19.312 51.0133C18.9993 51.3264 18.628 51.5747 18.2193 51.7441C17.8105 51.9135 17.3724 52.0007 16.93 52.0007C16.4876 52.0007 16.0495 51.9135 15.6407 51.7441C15.232 51.5747 14.8607 51.3264 14.548 51.0133L4.695 41.1603H29.165ZM45.84 10.8353L35.987 0.987344C35.6743 0.674338 35.303 0.42603 34.8943 0.256615C34.4855 0.0871999 34.0474 0 33.605 0C33.1626 0 32.7245 0.0871999 32.3157 0.256615C31.907 0.42603 31.5357 0.674338 31.223 0.987344L21.369 10.8353H45.84ZM25.267 17.5783C20.299 17.5783 18.529 21.9293 18.529 26.0003C18.529 30.0713 20.299 34.4223 25.267 34.4223C30.235 34.4223 32.005 30.0713 32.005 26.0003C32.005 21.9293 30.235 17.5783 25.267 17.5783ZM50.535 36.1073C50.5351 36.5498 50.4481 36.988 50.2788 37.3968C50.1096 37.8056 49.8614 38.177 49.5485 38.4899C49.2357 38.8027 48.8642 39.0509 48.4554 39.2202C48.0466 39.3894 47.6085 39.4765 47.166 39.4763C47.166 39.4763 3.1 39.4513 2.97 39.4353C2.21473 39.3456 1.51257 39.0013 0.979227 38.459C0.445888 37.9168 0.113203 37.209 0.0360002 36.4523C0.0240002 36.3353 1.48514e-07 15.8933 1.48514e-07 15.8933C-0.000131243 15.4509 0.0869208 15.0127 0.256182 14.6039C0.425444 14.1951 0.673598 13.8237 0.986464 13.5108C1.29933 13.1979 1.67078 12.9498 2.07958 12.7805C2.48839 12.6113 2.92654 12.5242 3.369 12.5243C3.369 12.5243 47.432 12.5493 47.569 12.5643C48.3239 12.6547 49.0255 12.9995 49.5582 13.5419C50.091 14.0843 50.4231 14.792 50.5 15.5483C50.511 15.6643 50.535 36.1073 50.535 36.1073ZM6.735 34.4233C6.735 34.0903 6.63624 33.7647 6.45119 33.4878C6.26615 33.2108 6.00315 32.995 5.69544 32.8675C5.38773 32.7401 5.04913 32.7067 4.72247 32.7717C4.3958 32.8367 4.09574 32.9971 3.86023 33.2326C3.62472 33.4681 3.46434 33.7682 3.39936 34.0948C3.33438 34.4215 3.36773 34.7601 3.49519 35.0678C3.62264 35.3755 3.83849 35.6385 4.11542 35.8235C4.39235 36.0086 4.71794 36.1073 5.051 36.1073C5.27245 36.1076 5.49177 36.0642 5.69644 35.9797C5.9011 35.8951 6.08709 35.771 6.24377 35.6145C6.40045 35.458 6.52474 35.2722 6.60955 35.0676C6.69435 34.8631 6.738 34.6438 6.738 34.4223L6.735 34.4233ZM6.735 17.5783C6.735 17.2453 6.63624 16.9197 6.45119 16.6428C6.26615 16.3658 6.00315 16.15 5.69544 16.0225C5.38773 15.8951 5.04913 15.8617 4.72247 15.9267C4.3958 15.9917 4.09574 16.1521 3.86023 16.3876C3.62472 16.6231 3.46434 16.9231 3.39936 17.2498C3.33438 17.5765 3.36773 17.9151 3.49519 18.2228C3.62264 18.5305 3.83849 18.7935 4.11542 18.9785C4.39235 19.1636 4.71794 19.2623 5.051 19.2623C5.27236 19.2626 5.49161 19.2192 5.6962 19.1348C5.9008 19.0503 6.08675 18.9263 6.24341 18.7699C6.40008 18.6135 6.5244 18.4278 6.60926 18.2233C6.69412 18.0189 6.73787 17.7997 6.738 17.5783H6.735ZM33.69 26.0003C33.69 20.4183 30.85 15.8933 25.268 15.8933C19.686 15.8933 16.846 20.4183 16.846 26.0003C16.846 31.5823 19.686 36.1073 25.268 36.1073C30.85 36.1073 33.69 31.5823 33.69 26.0003ZM47.166 34.4223C47.166 34.0893 47.0672 33.7637 46.8822 33.4868C46.6972 33.2098 46.4342 32.994 46.1264 32.8665C45.8187 32.7391 45.4801 32.7057 45.1535 32.7707C44.8268 32.8357 44.5267 32.9961 44.2912 33.2316C44.0557 33.4671 43.8953 33.7671 43.8304 34.0938C43.7654 34.4205 43.7987 34.7591 43.9262 35.0668C44.0536 35.3745 44.2695 35.6375 44.5464 35.8225C44.8234 36.0076 45.1489 36.1063 45.482 36.1063C45.9285 36.1061 46.3567 35.9286 46.6725 35.6128C46.9882 35.2971 47.1657 34.8689 47.166 34.4223ZM47.166 17.5773C47.166 17.2443 47.0672 16.9187 46.8822 16.6418C46.6972 16.3648 46.4342 16.149 46.1264 16.0215C45.8187 15.8941 45.4801 15.8607 45.1535 15.9257C44.8268 15.9907 44.5267 16.1511 44.2912 16.3866C44.0557 16.6221 43.8953 16.9221 43.8304 17.2488C43.7654 17.5755 43.7987 17.9141 43.9262 18.2218C44.0536 18.5295 44.2695 18.7925 44.5464 18.9775C44.8234 19.1626 45.1489 19.2613 45.482 19.2613C45.9284 19.2611 46.3564 19.0837 46.6721 18.7682C46.9878 18.4526 47.1655 18.0237 47.166 17.5773Z" fill="#3E3C96"/>
</svg>
