<svg width="137" height="38" viewBox="0 0 137 38" fill="none" xmlns="http://www.w3.org/2000/svg"><path d="M9.138 21.99c-1.631 0-3.144-.354-4.54-1.062-1.375-.727-2.486-1.818-3.33-3.272C.421 16.202 0 14.385 0 12.203c0-1.611.246-3.036.737-4.274.51-1.258 1.199-2.319 2.063-3.183A8.87 8.87 0 0 1 5.777 2.8a9.212 9.212 0 0 1 3.479-.678c1.277 0 2.417.256 3.419.767 1.022.491 1.867 1.08 2.535 1.768L12.557 7.9a6.984 6.984 0 0 0-1.474-1.003c-.491-.275-1.061-.412-1.71-.412-.746 0-1.444.226-2.092.678-.63.432-1.14 1.06-1.533 1.886-.373.826-.56 1.818-.56 2.977 0 1.789.373 3.174 1.12 4.157.766.962 1.769 1.444 3.007 1.444.746 0 1.405-.167 1.975-.501a6.467 6.467 0 0 0 1.503-1.15l2.653 3.184a7.806 7.806 0 0 1-2.83 2.122 8.601 8.601 0 0 1-3.478.707zm7.957-.354V6.897h5.07v14.739h-5.07zM19.628 5.07c-.825 0-1.493-.226-2.004-.678-.51-.472-.766-1.09-.766-1.857 0-.766.255-1.376.766-1.828C18.136.236 18.805 0 19.629 0c.826 0 1.494.236 2.005.707.51.452.766 1.062.766 1.828s-.255 1.385-.766 1.857c-.511.452-1.18.678-2.005.678zm11.441 16.92c-1.906 0-3.292-.55-4.156-1.651-.845-1.12-1.268-2.575-1.268-4.363v-5.129H23.7V7.074l2.24-.177.59-3.831h4.185v3.831h3.36v3.95h-3.36v5.04c0 .806.177 1.366.53 1.68.354.315.767.473 1.239.473.235 0 .462-.02.678-.06.236-.058.442-.117.619-.176l.766 3.655c-.373.118-.845.236-1.415.354-.57.117-1.257.176-2.063.176zm5.141-.354V6.897h5.07v14.739h-5.07zM38.743 5.07c-.825 0-1.493-.226-2.004-.678-.511-.472-.767-1.09-.767-1.857 0-.766.256-1.376.767-1.828C37.25.236 37.919 0 38.744 0s1.494.236 2.005.707c.51.452.766 1.062.766 1.828s-.255 1.385-.766 1.857c-.511.452-1.18.678-2.005.678zm4.837 16.566v-2.712l5.601-8.077H44.23v-3.95h11.26V9.61l-5.6 8.077h5.777v3.95H43.581zm20.454.354c-1.435 0-2.732-.305-3.891-.914a6.822 6.822 0 0 1-2.712-2.624c-.668-1.16-1.002-2.554-1.002-4.185 0-1.592.334-2.958 1.002-4.098.688-1.16 1.572-2.053 2.653-2.682 1.08-.629 2.22-.943 3.419-.943 1.454 0 2.653.324 3.596.972a5.545 5.545 0 0 1 2.122 2.565c.472 1.08.708 2.28.708 3.596 0 .432-.03.855-.089 1.268a8.12 8.12 0 0 1-.118.854h-8.4c.236.885.658 1.504 1.267 1.857.61.334 1.327.502 2.152.502.943 0 1.945-.295 3.007-.885l1.65 3.007c-.786.55-1.67.973-2.653 1.267-.982.295-1.886.442-2.711.442zm-2.771-9.492h4.362c0-.57-.147-1.061-.442-1.474-.275-.432-.796-.648-1.562-.648-.55 0-1.042.167-1.474.5-.432.335-.727.875-.884 1.622zm10.857 9.138V6.897h4.128l.353 1.77h.118a9.428 9.428 0 0 1 2.005-1.475c.766-.432 1.65-.648 2.652-.648 1.632 0 2.8.55 3.508 1.65.727 1.081 1.09 2.535 1.09 4.363v9.079h-5.07v-8.43c0-.944-.117-1.573-.353-1.887-.236-.315-.609-.472-1.12-.472-.471 0-.865.099-1.179.295a7.896 7.896 0 0 0-1.061.825v9.669h-5.07zm21.932-9.315l-.324 1.327h3.537l-.324-1.327a88.23 88.23 0 0 1-.707-3.006 124.226 124.226 0 0 0-.708-3.066h-.118c-.196.963-.412 1.985-.648 3.066a88.458 88.458 0 0 1-.708 3.006zm-7.369 9.315l5.836-19.16h6.132l5.836 19.16h-5.365l-.943-4.068h-5.365l-.943 4.068h-5.188zm18.629 5.187V6.898h4.127l.353 1.356h.118a6.962 6.962 0 0 1 1.857-1.238 5.256 5.256 0 0 1 2.152-.471c1.159 0 2.162.314 3.007.943.864.61 1.532 1.474 2.004 2.594.472 1.12.707 2.437.707 3.95 0 1.69-.294 3.134-.884 4.333-.589 1.179-1.356 2.083-2.299 2.712-.924.609-1.906.913-2.948.913-1.218 0-2.319-.49-3.301-1.473l.177 2.24v4.067h-5.07zm6.956-8.96c.59 0 1.101-.275 1.533-.826.432-.55.649-1.532.649-2.947 0-1.219-.177-2.093-.531-2.624-.334-.53-.845-.795-1.533-.795-.373 0-.717.078-1.031.235-.315.157-.639.433-.973.826v5.423c.295.256.599.442.914.56.334.099.658.148.972.148zm9.553 8.96V6.898h4.127l.353 1.356h.118a6.962 6.962 0 0 1 1.857-1.238 5.256 5.256 0 0 1 2.152-.471c1.159 0 2.162.314 3.007.943.864.61 1.532 1.474 2.004 2.594.472 1.12.707 2.437.707 3.95 0 1.69-.294 3.134-.884 4.333-.589 1.179-1.356 2.083-2.299 2.712-.924.609-1.906.913-2.948.913-1.218 0-2.318-.49-3.301-1.473l.177 2.24v4.067h-5.07zm6.956-8.96c.59 0 1.101-.275 1.533-.826.432-.55.649-1.532.649-2.947 0-1.219-.177-2.093-.531-2.624-.334-.53-.845-.795-1.533-.795-.373 0-.717.078-1.031.235-.315.157-.639.433-.973.826v5.423c.295.256.599.442.914.56.334.099.658.148.972.148zM0 37.893v-5.977h3.444v.638H.756v2.023h2.278v.638H.756v2.678H0zm5.845.11c-.359 0-.696-.091-1.012-.274a2.069 2.069 0 0 1-.756-.792c-.188-.346-.282-.763-.282-1.248 0-.499.094-.92.282-1.267a2.07 2.07 0 0 1 .756-.793 1.99 1.99 0 0 1 1.012-.273 1.959 1.959 0 0 1 1.758 1.066c.194.346.292.768.292 1.267 0 .485-.098.901-.292 1.248a1.96 1.96 0 0 1-1.758 1.066zm0-.62c.382 0 .689-.155.92-.465.237-.315.355-.725.355-1.23 0-.51-.118-.923-.355-1.239a1.085 1.085 0 0 0-.92-.473c-.377 0-.684.157-.92.473-.238.316-.356.73-.356 1.24 0 .504.118.914.355 1.23.237.31.544.464.92.464zm3.034.51v-4.428h.62l.063.802h.027a2.02 2.02 0 0 1 .556-.665 1.178 1.178 0 0 1 1.175-.155l-.145.656a1.184 1.184 0 0 0-.428-.073c-.189 0-.386.076-.593.228-.2.152-.376.416-.528.793v2.842h-.747zm5.638.11c-.37 0-.68-.11-.93-.328-.242-.225-.364-.535-.364-.93 0-.485.216-.856.647-1.111.438-.261 1.127-.444 2.069-.547 0-.188-.028-.367-.082-.537a.77.77 0 0 0-.274-.41c-.127-.11-.313-.164-.556-.164-.255 0-.494.048-.72.145a3.503 3.503 0 0 0-.6.328l-.292-.519a4.59 4.59 0 0 1 .756-.383c.304-.127.632-.191.984-.191.54 0 .932.167 1.175.501.243.328.365.769.365 1.321v2.715h-.62l-.063-.528h-.028c-.206.17-.434.319-.683.446a1.66 1.66 0 0 1-.784.192zm.219-.602c.213 0 .413-.051.601-.155.189-.103.389-.248.602-.437v-1.23c-.735.091-1.252.228-1.55.41-.29.182-.437.416-.437.702 0 .249.076.431.228.546.152.11.337.164.556.164zm3.962.602c-.279 0-.482-.085-.61-.255-.121-.176-.182-.425-.182-.747v-5.595h.747v5.65c0 .115.021.2.064.254a.19.19 0 0 0 .146.073h.063c.025-.006.058-.012.1-.018l.1.565a.643.643 0 0 1-.172.054 1.462 1.462 0 0 1-.256.019zm2.141 0c-.28 0-.483-.085-.61-.255-.122-.176-.183-.425-.183-.747v-5.595h.747v5.65c0 .115.021.2.064.254a.19.19 0 0 0 .146.073h.063c.025-.006.058-.012.1-.018l.1.565a.643.643 0 0 1-.172.054 1.463 1.463 0 0 1-.255.019zm4.738 0c-.389 0-.74-.091-1.057-.274a1.924 1.924 0 0 1-.747-.792c-.182-.346-.273-.763-.273-1.248 0-.499.097-.92.291-1.267.2-.346.462-.61.784-.793.328-.182.68-.273 1.057-.273.291 0 .54.052.747.155.212.103.395.225.547.364l-.383.492a1.83 1.83 0 0 0-.41-.282 1.009 1.009 0 0 0-.474-.11c-.267 0-.507.073-.72.22-.206.139-.37.34-.492.6a2.148 2.148 0 0 0-.173.893c0 .505.125.915.374 1.23.255.31.586.465.993.465.206 0 .398-.042.574-.127.176-.092.331-.198.465-.32l.328.502a2.46 2.46 0 0 1-.665.419 2.042 2.042 0 0 1-.766.146zm2.223-.11v-4.428h.748v4.428H27.8zm.383-5.339a.534.534 0 0 1-.364-.127.493.493 0 0 1-.137-.365.48.48 0 0 1 .137-.355.512.512 0 0 1 .364-.137.48.48 0 0 1 .502.492.476.476 0 0 1-.146.365.5.5 0 0 1-.356.127zm3.072 5.449c-.474 0-.805-.137-.993-.41-.183-.274-.274-.629-.274-1.066v-2.451h-.656v-.565l.693-.046.09-1.239h.63v1.24h1.193v.61h-1.193v2.46c0 .273.048.486.145.638.104.145.283.218.538.218a.993.993 0 0 0 .255-.036l.246-.082.146.565a3.185 3.185 0 0 1-.401.11c-.14.035-.28.054-.42.054zm1.502-.11v-4.428h.747v4.428h-.747zm.383-5.339a.534.534 0 0 1-.365-.127.493.493 0 0 1-.136-.365.48.48 0 0 1 .136-.355.512.512 0 0 1 .365-.137.48.48 0 0 1 .501.492.476.476 0 0 1-.146.365.5.5 0 0 1-.355.127zm1.212 5.339v-.4l2.333-3.417h-2.077v-.61h3.025v.4L35.3 37.283h2.405v.61h-3.352zm5.859.11c-.394 0-.753-.091-1.075-.274a2.029 2.029 0 0 1-.765-.801c-.188-.347-.282-.76-.282-1.24 0-.485.094-.902.282-1.248.194-.346.443-.613.747-.801.304-.189.623-.283.957-.283.565 0 .999.188 1.303.565.31.377.464.88.464 1.512 0 .08-.003.158-.009.237a.893.893 0 0 1-.018.192h-2.988c.03.467.176.84.437 1.12.267.28.613.42 1.038.42.213 0 .407-.031.584-.092a2.75 2.75 0 0 0 .519-.255l.264.492a3.378 3.378 0 0 1-.647.32 2.247 2.247 0 0 1-.81.136zm-1.394-2.679h2.37c0-.45-.098-.79-.292-1.02-.189-.237-.456-.356-.802-.356-.31 0-.59.122-.838.365-.243.237-.39.574-.438 1.011zm3.937 2.569v-4.428h.62l.064.638h.027c.212-.212.437-.389.674-.528.237-.146.507-.219.811-.219.468 0 .808.149 1.02.447.22.291.328.72.328 1.284v2.806h-.747v-2.706c0-.413-.066-.713-.2-.902-.134-.188-.346-.282-.638-.282-.225 0-.428.058-.61.173a3.958 3.958 0 0 0-.602.51v3.207h-.747zm5.958.11a2.39 2.39 0 0 1-.902-.173 3.177 3.177 0 0 1-.747-.438l.373-.5c.195.151.395.279.602.382.206.097.44.146.701.146.292 0 .51-.067.656-.2a.66.66 0 0 0 .219-.493.52.52 0 0 0-.155-.383 1.11 1.11 0 0 0-.383-.255 5.55 5.55 0 0 0-.473-.2 7.663 7.663 0 0 1-.61-.264 1.51 1.51 0 0 1-.493-.392.979.979 0 0 1-.191-.62c0-.358.133-.656.4-.892.274-.243.65-.365 1.13-.365.274 0 .529.049.766.146.237.097.44.215.61.355l-.364.474a2.382 2.382 0 0 0-.474-.283 1.309 1.309 0 0 0-.538-.109c-.279 0-.486.064-.62.191a.612.612 0 0 0-.19.447c0 .14.045.255.136.346.091.085.21.161.356.228l.464.191c.213.08.422.17.629.274.206.097.377.23.51.4.14.165.21.386.21.666 0 .236-.064.455-.192.656-.121.2-.303.361-.546.483-.237.121-.532.182-.884.182zm5.14 0c-.37 0-.68-.11-.93-.328-.242-.225-.364-.535-.364-.93 0-.485.216-.856.647-1.111.437-.261 1.127-.444 2.068-.547 0-.188-.027-.367-.082-.537a.77.77 0 0 0-.273-.41c-.128-.11-.313-.164-.556-.164-.255 0-.495.048-.72.145a3.504 3.504 0 0 0-.601.328l-.291-.519c.206-.134.458-.261.756-.383a2.52 2.52 0 0 1 .984-.191c.54 0 .932.167 1.175.501.243.328.364.769.364 1.321v2.715h-.62l-.063-.528h-.027c-.207.17-.434.319-.684.446a1.66 1.66 0 0 1-.783.192zm.219-.602c.212 0 .413-.051.6-.155.19-.103.39-.248.602-.437v-1.23c-.735.091-1.251.228-1.549.41-.291.182-.437.416-.437.702 0 .249.076.431.228.546.152.11.337.164.556.164zm3.169.492v-4.428h.62l.064.638h.027c.213-.212.438-.389.674-.528.237-.146.508-.219.811-.219.468 0 .808.149 1.02.447.22.291.329.72.329 1.284v2.806h-.747v-2.706c0-.413-.067-.713-.2-.902-.135-.188-.347-.282-.639-.282a1.12 1.12 0 0 0-.61.173 3.958 3.958 0 0 0-.601.51v3.207h-.748zm6.313.11c-.552 0-.996-.2-1.33-.602-.334-.407-.501-.978-.501-1.713 0-.48.088-.892.264-1.239a2.07 2.07 0 0 1 .71-.81c.299-.189.614-.283.949-.283.255 0 .476.046.665.137.188.09.38.215.574.373l-.037-.756v-1.704h.756v6.487h-.62l-.063-.519h-.027c-.17.17-.37.319-.602.447-.23.121-.476.182-.738.182zm.164-.629c.39 0 .766-.203 1.13-.61v-2.315a1.776 1.776 0 0 0-.546-.355 1.328 1.328 0 0 0-.529-.11c-.237 0-.452.074-.647.22-.188.14-.34.337-.455.592a2.085 2.085 0 0 0-.174.883c0 .529.107.945.32 1.249.212.297.513.446.901.446zm4.837.519v-4.428h.62l.064.802h.027a2.02 2.02 0 0 1 .556-.665 1.178 1.178 0 0 1 1.175-.155l-.146.656a1.185 1.185 0 0 0-.428-.073c-.188 0-.386.076-.592.228-.2.152-.377.416-.528.793v2.842h-.748zm4.683.11c-.395 0-.753-.091-1.075-.274a2.029 2.029 0 0 1-.766-.801c-.188-.347-.282-.76-.282-1.24 0-.485.094-.902.282-1.248.195-.346.444-.613.748-.801.303-.189.622-.283.956-.283.565 0 1 .188 1.303.565.31.377.465.88.465 1.512 0 .08-.003.158-.01.237a.893.893 0 0 1-.018.192h-2.988c.03.467.176.84.437 1.12.267.28.614.42 1.039.42.212 0 .407-.031.583-.092.182-.067.355-.152.52-.255l.264.492a3.375 3.375 0 0 1-.647.32 2.247 2.247 0 0 1-.811.136zm-1.394-2.679h2.369c0-.45-.097-.79-.292-1.02-.188-.237-.455-.356-.802-.356-.31 0-.589.122-.838.365-.243.237-.389.574-.437 1.011zm5.094 2.679a2.39 2.39 0 0 1-.902-.173 3.18 3.18 0 0 1-.747-.438l.373-.5c.195.151.395.279.602.382.206.097.44.146.701.146.292 0 .51-.067.656-.2a.66.66 0 0 0 .219-.493.52.52 0 0 0-.155-.383 1.11 1.11 0 0 0-.383-.255 5.566 5.566 0 0 0-.474-.2 7.677 7.677 0 0 1-.61-.264 1.508 1.508 0 0 1-.492-.392.979.979 0 0 1-.191-.62c0-.358.133-.656.4-.892.274-.243.65-.365 1.13-.365.274 0 .529.049.766.146.237.097.44.215.61.355l-.364.474a2.382 2.382 0 0 0-.474-.283 1.309 1.309 0 0 0-.538-.109c-.279 0-.485.064-.62.191a.612.612 0 0 0-.19.447c0 .14.045.255.136.346.091.085.21.161.356.228l.464.191c.213.08.422.17.629.274.206.097.377.23.51.4.14.165.21.386.21.666 0 .236-.064.455-.192.656-.121.2-.303.361-.546.483-.237.121-.532.182-.884.182zm2.478-.11v-4.428h.747v4.428h-.747zm.382-5.339a.534.534 0 0 1-.364-.127.493.493 0 0 1-.137-.365.48.48 0 0 1 .137-.355.512.512 0 0 1 .364-.137.48.48 0 0 1 .501.492.476.476 0 0 1-.145.365.5.5 0 0 1-.356.127zm3.19 5.449c-.553 0-.996-.2-1.33-.602-.334-.407-.501-.978-.501-1.713 0-.48.088-.892.264-1.239a2.07 2.07 0 0 1 .71-.81 1.74 1.74 0 0 1 .948-.283c.255 0 .477.046.665.137.189.09.38.215.574.373l-.036-.756v-1.704h.756v6.487h-.62l-.063-.519h-.028c-.17.17-.37.319-.6.447a1.575 1.575 0 0 1-.739.182zm.164-.629c.389 0 .765-.203 1.13-.61v-2.315a1.777 1.777 0 0 0-.547-.355 1.328 1.328 0 0 0-.528-.11c-.237 0-.453.074-.647.22-.188.14-.34.337-.456.592a2.085 2.085 0 0 0-.173.883c0 .529.106.945.32 1.249.212.297.512.446.901.446zm4.99.629c-.395 0-.753-.091-1.075-.274a2.028 2.028 0 0 1-.765-.801c-.189-.347-.283-.76-.283-1.24 0-.485.094-.902.283-1.248.194-.346.443-.613.747-.801.303-.189.622-.283.956-.283.565 0 1 .188 1.303.565.31.377.465.88.465 1.512 0 .08-.003.158-.009.237a.893.893 0 0 1-.018.192h-2.989c.03.467.176.84.438 1.12.267.28.613.42 1.038.42.213 0 .407-.031.583-.092.183-.067.356-.152.52-.255l.264.492a3.375 3.375 0 0 1-.647.32 2.247 2.247 0 0 1-.81.136zm-1.394-2.679h2.37c0-.45-.098-.79-.293-1.02-.188-.237-.455-.356-.801-.356-.31 0-.59.122-.838.365-.243.237-.39.574-.438 1.011zm3.937 2.569v-4.428h.62l.063.638h.028c.212-.212.437-.389.674-.528.237-.146.507-.219.81-.219.469 0 .809.149 1.021.447.219.291.328.72.328 1.284v2.806h-.747v-2.706c0-.413-.067-.713-.2-.902-.134-.188-.346-.282-.638-.282-.225 0-.428.058-.61.173a3.958 3.958 0 0 0-.602.51v3.207h-.747zm6.195.11c-.474 0-.805-.137-.994-.41-.182-.274-.273-.629-.273-1.066v-2.451h-.656v-.565l.693-.046.09-1.239h.63v1.24h1.193v.61h-1.194v2.46c0 .273.049.486.146.638.103.145.283.218.538.218a.993.993 0 0 0 .255-.036l.246-.082.146.565a3.185 3.185 0 0 1-.401.11c-.14.035-.28.054-.42.054zm2.571 0c-.317 0-.617-.058-.903-.173a3.18 3.18 0 0 1-.747-.438l.374-.5a3.6 3.6 0 0 0 .6.382c.207.097.441.146.702.146.292 0 .51-.067.656-.2a.66.66 0 0 0 .219-.493.521.521 0 0 0-.155-.383 1.107 1.107 0 0 0-.382-.255 5.566 5.566 0 0 0-.474-.2 7.695 7.695 0 0 1-.61-.264 1.51 1.51 0 0 1-.493-.392.98.98 0 0 1-.191-.62c0-.358.134-.656.4-.892.274-.243.65-.365 1.13-.365.274 0 .529.049.766.146.237.097.44.215.61.355l-.364.474a2.387 2.387 0 0 0-.474-.283 1.307 1.307 0 0 0-.537-.109c-.28 0-.486.064-.62.191a.611.611 0 0 0-.191.447c0 .14.045.255.136.346.091.085.21.161.356.228l.464.191c.213.08.423.17.629.274.207.097.377.23.51.4.14.165.21.386.21.666 0 .236-.064.455-.191.656-.122.2-.304.361-.547.483-.237.121-.532.182-.884.182zm5.841 0c-.359 0-.696-.091-1.012-.274a2.071 2.071 0 0 1-.756-.792c-.188-.346-.282-.763-.282-1.248 0-.499.094-.92.282-1.267a2.08 2.08 0 0 1 .756-.793 1.992 1.992 0 0 1 1.012-.273 1.96 1.96 0 0 1 1.758 1.066c.195.346.292.768.292 1.267 0 .485-.097.901-.292 1.248a1.96 1.96 0 0 1-1.758 1.066zm0-.62c.382 0 .689-.155.92-.465.237-.315.355-.725.355-1.23 0-.51-.118-.923-.355-1.239a1.086 1.086 0 0 0-.92-.473c-.377 0-.684.157-.921.473-.236.316-.355.73-.355 1.24 0 .504.119.914.355 1.23.237.31.544.464.921.464zm3.161.51v-3.817h-.601v-.565l.601-.046v-.701c0-.45.104-.805.31-1.066.213-.268.541-.401.984-.401.14 0 .273.015.401.045.127.025.24.058.337.1l-.164.575a1.222 1.222 0 0 0-.501-.11c-.413 0-.62.286-.62.857v.701h.939v.61h-.939v3.818h-.747zm6.416.11c-.522 0-.987-.122-1.394-.365a2.547 2.547 0 0 1-.956-1.066c-.231-.461-.347-1.017-.347-1.667 0-.644.119-1.197.356-1.658.237-.462.562-.817.975-1.066a2.67 2.67 0 0 1 1.412-.374c.413 0 .759.08 1.039.237a2.6 2.6 0 0 1 .683.501l-.419.492a2.164 2.164 0 0 0-.529-.4c-.2-.11-.452-.165-.756-.165-.401 0-.75.1-1.048.3a1.922 1.922 0 0 0-.692.83c-.158.358-.237.787-.237 1.285 0 .753.17 1.351.51 1.795.346.437.838.656 1.476.656a2 2 0 0 0 .611-.092c.194-.066.349-.154.464-.264v-1.558h-1.266v-.628h1.959v2.514c-.189.2-.444.368-.766.501a2.846 2.846 0 0 1-1.075.192zm3.018-.11v-6.487h.747v1.768l-.027.91c.212-.2.434-.37.665-.51.237-.145.507-.218.811-.218.467 0 .807.149 1.02.447.219.291.328.72.328 1.284v2.806h-.747v-2.706c0-.413-.067-.713-.2-.902-.134-.188-.347-.282-.638-.282a1.12 1.12 0 0 0-.611.173 3.977 3.977 0 0 0-.601.51v3.207h-.747zm5.794.11c-.37 0-.68-.11-.929-.328-.243-.225-.365-.535-.365-.93 0-.485.216-.856.647-1.111.438-.261 1.127-.444 2.068-.547 0-.188-.027-.367-.082-.537a.765.765 0 0 0-.273-.41c-.127-.11-.313-.164-.556-.164a1.79 1.79 0 0 0-.719.145 3.496 3.496 0 0 0-.602.328l-.291-.519c.206-.134.458-.261.756-.383.304-.127.632-.191.984-.191.54 0 .932.167 1.175.501.243.328.365.769.365 1.321v2.715h-.62l-.064-.528h-.027a3.8 3.8 0 0 1-.683.446 1.663 1.663 0 0 1-.784.192zm.219-.602c.212 0 .413-.051.601-.155a3.36 3.36 0 0 0 .601-.437v-1.23c-.735.091-1.251.228-1.548.41-.292.182-.438.416-.438.702 0 .249.076.431.228.546.152.11.337.164.556.164zm3.17.492v-4.428h.619l.064.638h.027c.213-.212.438-.389.675-.528a1.51 1.51 0 0 1 .81-.219c.468 0 .808.149 1.021.447.219.291.328.72.328 1.284v2.806h-.747v-2.706c0-.413-.067-.713-.201-.902-.133-.188-.346-.282-.637-.282-.225 0-.429.058-.611.173a3.929 3.929 0 0 0-.601.51v3.207h-.747zm5.821.11c-.371 0-.681-.11-.93-.328-.243-.225-.364-.535-.364-.93 0-.485.215-.856.647-1.111.437-.261 1.126-.444 2.068-.547 0-.188-.027-.367-.082-.537a.776.776 0 0 0-.273-.41c-.128-.11-.313-.164-.556-.164-.255 0-.495.048-.72.145a3.485 3.485 0 0 0-.601.328l-.292-.519c.207-.134.459-.261.756-.383.304-.127.632-.191.984-.191.541 0 .933.167 1.176.501.243.328.364.769.364 1.321v2.715h-.619l-.064-.528h-.028c-.206.17-.434.319-.683.446a1.66 1.66 0 0 1-.783.192zm.218-.602c.213 0 .413-.051.602-.155.188-.103.388-.248.601-.437v-1.23c-.735.091-1.251.228-1.549.41-.292.182-.437.416-.437.702 0 .249.076.431.227.546.152.11.338.164.556.164z" fill="#fff"/></svg>