<svg width="16" height="16" viewBox="0 0 16 16" fill="none" xmlns="http://www.w3.org/2000/svg"><g id="copy-01" clip-path="url(#clip0_3065_29906)"><path id="Icon" d="M3.334 10.003c-.621 0-.932 0-1.177-.102a1.333 1.333 0 0 1-.722-.721c-.101-.246-.101-.556-.101-1.177V3.469c0-.746 0-1.12.145-1.405a1.34 1.34 0 0 1 .583-.583c.285-.145.659-.145 1.405-.145h4.534c.62 0 .932 0 1.177.101.326.136.586.395.721.722.102.245.102.556.102 1.177M8.134 14.669h4.4c.747 0 1.12 0 1.405-.145.251-.128.455-.332.583-.583.145-.285.145-.658.145-1.405v-4.4c0-.747 0-1.12-.145-1.405a1.333 1.333 0 0 0-.583-.583c-.285-.145-.658-.145-1.405-.145h-4.4c-.747 0-1.12 0-1.405.145a1.335 1.335 0 0 0-.583.583c-.145.285-.145.658-.145 1.405v4.4c0 .747 0 1.12.145 1.405.128.251.332.455.583.583.285.145.658.145 1.405.145z" stroke="#FFD522" stroke-width="1.3" stroke-linecap="round" stroke-linejoin="round"/></g><defs><clipPath id="clip0_3065_29906"><path fill="#fff" d="M0 0h16v16H0z"/></clipPath></defs></svg>