<svg width="20" height="20" viewBox="0 0 20 20" fill="none" xmlns="http://www.w3.org/2000/svg">
<path fill-rule="evenodd" clip-rule="evenodd" d="M10.0007 0.833496C4.93804 0.833496 0.833984 4.93755 0.833984 10.0002C0.833984 15.0628 4.93804 19.1668 10.0007 19.1668C15.0633 19.1668 19.1673 15.0628 19.1673 10.0002C19.1673 4.93755 15.0633 0.833496 10.0007 0.833496ZM14.3399 8.08942C14.6653 7.76398 14.6653 7.23634 14.3399 6.91091C14.0145 6.58547 13.4868 6.58547 13.1614 6.91091L8.75065 11.3217L6.83991 9.41091C6.51447 9.08547 5.98683 9.08547 5.6614 9.41091C5.33596 9.73634 5.33596 10.264 5.6614 10.5894L8.1614 13.0894C8.48683 13.4149 9.01447 13.4149 9.33991 13.0894L14.3399 8.08942Z" fill="white"/>
</svg>
