<svg width="80" height="80" viewBox="0 0 80 80" fill="none" xmlns="http://www.w3.org/2000/svg">
<path d="M26.666 9.99984C26.666 8.15889 28.1584 6.6665 29.9993 6.6665H49.9993C51.8403 6.6665 53.3327 8.15889 53.3327 9.99984C53.3327 11.8408 51.8403 13.3332 49.9993 13.3332H29.9993C28.1584 13.3332 26.666 11.8408 26.666 9.99984Z" fill="#ED1B2E"/>
<path fill-rule="evenodd" clip-rule="evenodd" d="M6.66602 19.9998C6.66602 18.1589 8.1584 16.6665 9.99935 16.6665H69.9993C71.8403 16.6665 73.3327 18.1589 73.3327 19.9998C73.3327 21.8408 71.8403 23.3332 69.9993 23.3332H66.4513L64.3123 55.4181C64.1445 57.9362 64.0056 60.0201 63.7565 61.7162C63.4972 63.4822 63.086 65.096 62.2291 66.6C60.8953 68.9412 58.8835 70.8234 56.4587 71.9986C54.901 72.7534 53.2635 73.0565 51.4841 73.1977C49.7752 73.3334 47.6867 73.3333 45.163 73.3333H34.8359C32.3122 73.3333 30.2237 73.3334 28.5148 73.1977C26.7354 73.0565 25.0979 72.7534 23.5402 71.9986C21.1154 70.8234 19.1036 68.9412 17.7698 66.6C16.9129 65.096 16.5016 63.4822 16.2424 61.7162C15.9933 60.0201 15.8544 57.9362 15.6866 55.4181L13.5476 23.3332H9.99935C8.1584 23.3332 6.66602 21.8408 6.66602 19.9998ZM33.3327 31.6665C35.1736 31.6665 36.666 33.1589 36.666 34.9998V51.6665C36.666 53.5075 35.1736 54.9998 33.3327 54.9998C31.4917 54.9998 29.9993 53.5075 29.9993 51.6665V34.9998C29.9993 33.1589 31.4917 31.6665 33.3327 31.6665ZM49.9993 34.9998C49.9993 33.1589 48.507 31.6665 46.666 31.6665C44.8251 31.6665 43.3327 33.1589 43.3327 34.9998V51.6665C43.3327 53.5075 44.8251 54.9998 46.666 54.9998C48.507 54.9998 49.9993 53.5075 49.9993 51.6665V34.9998Z" fill="#ED1B2E"/>
</svg>
