<svg width="96" height="97" viewBox="0 0 96 97" fill="none" xmlns="http://www.w3.org/2000/svg">
<rect y="0.5" width="96" height="96" rx="48" fill="#F2F4F7"/>
<path d="M72.0007 27.1667H24.0007C22.5273 27.1667 21.334 28.3601 21.334 29.8334V64.5001C21.334 65.9734 22.5273 67.1667 24.0007 67.1667H34.6673V77.8307C34.6673 79.0187 36.1033 79.6134 36.9433 78.7734L48.55 67.1667H72.0007C73.474 67.1667 74.6673 65.9734 74.6673 64.5001V29.8334C74.6673 28.3601 73.474 27.1667 72.0007 27.1667Z" fill="black"/>
<path opacity="0.3" d="M48 52.5C50.2091 52.5 52 50.7091 52 48.5C52 46.2909 50.2091 44.5 48 44.5C45.7909 44.5 44 46.2909 44 48.5C44 50.7091 45.7909 52.5 48 52.5Z" fill="#FFD147"/>
<path d="M48.0007 51.1666C49.4734 51.1666 50.6673 49.9727 50.6673 48.4999C50.6673 47.0272 49.4734 45.8333 48.0007 45.8333C46.5279 45.8333 45.334 47.0272 45.334 48.4999C45.334 49.9727 46.5279 51.1666 48.0007 51.1666Z" fill="#FFD147"/>
<path opacity="0.3" d="M37.334 52.5C39.5431 52.5 41.334 50.7091 41.334 48.5C41.334 46.2909 39.5431 44.5 37.334 44.5C35.1248 44.5 33.334 46.2909 33.334 48.5C33.334 50.7091 35.1248 52.5 37.334 52.5Z" fill="#FFD147"/>
<path d="M37.3327 51.1666C38.8054 51.1666 39.9993 49.9727 39.9993 48.4999C39.9993 47.0272 38.8054 45.8333 37.3327 45.8333C35.8599 45.8333 34.666 47.0272 34.666 48.4999C34.666 49.9727 35.8599 51.1666 37.3327 51.1666Z" fill="#FFD147"/>
<path opacity="0.3" d="M58.666 52.5C60.8752 52.5 62.666 50.7091 62.666 48.5C62.666 46.2909 60.8752 44.5 58.666 44.5C56.4569 44.5 54.666 46.2909 54.666 48.5C54.666 50.7091 56.4569 52.5 58.666 52.5Z" fill="#FFD147"/>
<path d="M58.6667 51.1666C60.1394 51.1666 61.3333 49.9727 61.3333 48.4999C61.3333 47.0272 60.1394 45.8333 58.6667 45.8333C57.1939 45.8333 56 47.0272 56 48.4999C56 49.9727 57.1939 51.1666 58.6667 51.1666Z" fill="#FFD147"/>
</svg>
