<svg width="48" height="49" viewBox="0 0 48 49" fill="none" xmlns="http://www.w3.org/2000/svg">
<path d="M43.611 20.6826H42V20.5996H24V28.5996H35.303C33.654 33.2566 29.223 36.5996 24 36.5996C17.373 36.5996 12 31.2266 12 24.5996C12 17.9726 17.373 12.5996 24 12.5996C27.059 12.5996 29.842 13.7536 31.961 15.6386L37.618 9.98161C34.046 6.65261 29.268 4.59961 24 4.59961C12.955 4.59961 4 13.5546 4 24.5996C4 35.6446 12.955 44.5996 24 44.5996C35.045 44.5996 44 35.6446 44 24.5996C44 23.2586 43.862 21.9496 43.611 20.6826Z" fill="#FFC107"/>
<path d="M6.306 15.2906L12.877 20.1096C14.655 15.7076 18.961 12.5996 24 12.5996C27.059 12.5996 29.842 13.7536 31.961 15.6386L37.618 9.98161C34.046 6.65261 29.268 4.59961 24 4.59961C16.318 4.59961 9.656 8.93661 6.306 15.2906Z" fill="#FF3D00"/>
<path d="M24 44.5993C29.166 44.5993 33.86 42.6223 37.409 39.4073L31.219 34.1693C29.211 35.6903 26.715 36.5993 24 36.5993C18.798 36.5993 14.381 33.2823 12.717 28.6533L6.19501 33.6783C9.50501 40.1553 16.227 44.5993 24 44.5993Z" fill="#4CAF50"/>
<path d="M43.611 20.6826H42V20.5996H24V28.5996H35.303C34.511 30.8366 33.072 32.7656 31.216 34.1706L31.219 34.1686L37.409 39.4066C36.971 39.8046 44 34.5996 44 24.5996C44 23.2586 43.862 21.9496 43.611 20.6826Z" fill="#1976D2"/>
</svg>
