<svg width="40" height="41" viewBox="0 0 40 41" fill="none" xmlns="http://www.w3.org/2000/svg">
<path d="M7.75 4.5C7.75 2.70508 9.20508 1.25 11 1.25H27C27.1212 1.25 27.2375 1.29816 27.3232 1.38388L38.1161 12.1768C38.2018 12.2625 38.25 12.3788 38.25 12.5V36.5C38.25 38.2949 36.7949 39.75 35 39.75H11C9.20507 39.75 7.75 38.2949 7.75 36.5V4.5Z" fill="white" stroke="#D2D6D9" stroke-width="1.5"/>
<path d="M27 1V8.5C27 10.7091 28.7909 12.5 31 12.5H38.5" stroke="#D2D6D9" stroke-width="1.5"/>
<rect x="1" y="18.5" width="26" height="16" rx="2" fill="#FFD147"/>
<path d="M7.65146 23.2273H9.17134V28.2983C9.17134 28.767 9.06599 29.1742 8.85529 29.5199C8.64696 29.8655 8.35695 30.1319 7.98526 30.3189C7.61358 30.5059 7.18152 30.5994 6.6891 30.5994C6.25112 30.5994 5.8534 30.5225 5.49592 30.3686C5.1408 30.2124 4.85908 29.9756 4.65075 29.6584C4.44241 29.3388 4.33943 28.9375 4.3418 28.4545H5.87234C5.87707 28.6463 5.91613 28.8108 5.98952 28.9482C6.06528 29.0831 6.16826 29.1873 6.29847 29.2607C6.43105 29.3317 6.5873 29.3672 6.76722 29.3672C6.95662 29.3672 7.11642 29.3269 7.24663 29.2464C7.3792 29.1636 7.47982 29.0429 7.54847 28.8842C7.61713 28.7256 7.65146 28.5303 7.65146 28.2983V23.2273ZM10.4426 30.5V23.2273H13.312C13.8636 23.2273 14.3335 23.3326 14.7218 23.5433C15.11 23.7517 15.406 24.0417 15.6096 24.4134C15.8155 24.7827 15.9185 25.2088 15.9185 25.6918C15.9185 26.1747 15.8143 26.6009 15.606 26.9702C15.3977 27.3395 15.0958 27.6271 14.7005 27.8331C14.3075 28.0391 13.8316 28.142 13.2729 28.142H11.4441V26.9098H13.0243C13.3203 26.9098 13.5641 26.8589 13.7559 26.7571C13.95 26.6529 14.0944 26.5097 14.1891 26.3274C14.2862 26.1428 14.3347 25.9309 14.3347 25.6918C14.3347 25.4503 14.2862 25.2396 14.1891 25.0597C14.0944 24.8774 13.95 24.7365 13.7559 24.6371C13.5617 24.5353 13.3155 24.4844 13.0172 24.4844H11.9803V30.5H10.4426ZM21.7397 25.5781C21.69 25.4053 21.6201 25.2526 21.5302 25.12C21.4402 24.9851 21.3301 24.8714 21.1999 24.7791C21.0721 24.6844 20.9253 24.6122 20.7596 24.5625C20.5962 24.5128 20.4151 24.4879 20.2163 24.4879C19.8446 24.4879 19.5179 24.5803 19.2362 24.7649C18.9568 24.9496 18.739 25.2183 18.5827 25.571C18.4265 25.9214 18.3484 26.3499 18.3484 26.8565C18.3484 27.3632 18.4253 27.794 18.5792 28.1491C18.7331 28.5043 18.9509 28.7753 19.2326 28.9624C19.5143 29.147 19.8469 29.2393 20.2305 29.2393C20.5785 29.2393 20.8756 29.1778 21.1218 29.0547C21.3704 28.9292 21.5598 28.7528 21.69 28.5256C21.8226 28.2983 21.8888 28.0296 21.8888 27.7195L22.2013 27.7656H20.3263V26.608H23.3697V27.5241C23.3697 28.1634 23.2347 28.7126 22.9648 29.1719C22.695 29.6288 22.3233 29.9815 21.8498 30.2301C21.3763 30.4763 20.8342 30.5994 20.2234 30.5994C19.5415 30.5994 18.9426 30.4491 18.4265 30.1484C17.9104 29.8454 17.5079 29.4157 17.2191 28.8594C16.9326 28.3007 16.7894 27.6378 16.7894 26.8707C16.7894 26.2812 16.8746 25.7557 17.0451 25.294C17.2179 24.83 17.4594 24.437 17.7695 24.1151C18.0797 23.7931 18.4407 23.5481 18.8526 23.38C19.2646 23.2119 19.7108 23.1278 20.1914 23.1278C20.6033 23.1278 20.9869 23.1882 21.342 23.3089C21.6971 23.4273 22.012 23.5954 22.2866 23.8132C22.5636 24.031 22.7897 24.2902 22.9648 24.5909C23.14 24.8892 23.2525 25.2183 23.3022 25.5781H21.7397Z" fill="#030F1A"/>
</svg>
