<svg width="16" height="5" viewBox="0 0 16 5" fill="none" xmlns="http://www.w3.org/2000/svg">
<path d="M7.99967 3.03288C8.45991 3.03288 8.83301 2.65978 8.83301 2.19954C8.83301 1.73931 8.45991 1.36621 7.99967 1.36621C7.53944 1.36621 7.16634 1.73931 7.16634 2.19954C7.16634 2.65978 7.53944 3.03288 7.99967 3.03288Z" stroke="#9CABB8" stroke-width="2" stroke-linecap="round" stroke-linejoin="round"/>
<path d="M13.833 3.03288C14.2932 3.03288 14.6663 2.65978 14.6663 2.19954C14.6663 1.73931 14.2932 1.36621 13.833 1.36621C13.3728 1.36621 12.9997 1.73931 12.9997 2.19954C12.9997 2.65978 13.3728 3.03288 13.833 3.03288Z" stroke="#9CABB8" stroke-width="2" stroke-linecap="round" stroke-linejoin="round"/>
<path d="M2.16634 3.03288C2.62658 3.03288 2.99967 2.65978 2.99967 2.19954C2.99967 1.73931 2.62658 1.36621 2.16634 1.36621C1.7061 1.36621 1.33301 1.73931 1.33301 2.19954C1.33301 2.65978 1.7061 3.03288 2.16634 3.03288Z" stroke="#9CABB8" stroke-width="2" stroke-linecap="round" stroke-linejoin="round"/>
</svg>
