<svg width="20" height="20" viewBox="0 0 20 20" fill="none" xmlns="http://www.w3.org/2000/svg">
<path d="M4.16666 4.1576C4.16666 3.3483 4.16666 2.94365 4.3354 2.72059C4.4824 2.52626 4.70709 2.40601 4.95032 2.39149C5.22952 2.37482 5.56621 2.59928 6.23959 3.0482L15.0026 8.89018C15.559 9.26111 15.8372 9.44658 15.9341 9.68035C16.0189 9.88473 16.0189 10.1144 15.9341 10.3188C15.8372 10.5526 15.559 10.738 15.0026 11.109L6.23959 16.951C5.56621 17.3999 5.22952 17.6243 4.95032 17.6077C4.70709 17.5931 4.4824 17.4729 4.3354 17.2786C4.16666 17.0555 4.16666 16.6509 4.16666 15.8416V4.1576Z" stroke="white" stroke-width="1.66667" stroke-linecap="round" stroke-linejoin="round"/>
</svg>
