<svg width="40" height="40" viewBox="0 0 40 40" fill="none" xmlns="http://www.w3.org/2000/svg"><rect width="40" height="40" rx="20" fill="#030F1A"/><path d="M28.343 29H11.575a.564.564 0 0 1-.575-.58v-.083c.082-.332.082-.663.164-.995.165-.994.987-1.823 1.973-2.072.654-.198 1.36-.449 2.037-.668.339-.11.635-.226.956-.382.385-.186.829-.367 1.128-.672.595-.604.885-1.505.764-2.383a1.78 1.78 0 0 0-.125-.42c-.043-.101-.105-.163-.165-.254-.257-.391-.495-.763-.751-1.154-.405-.616-1.194-.81-1.372-1.524-.048-.193-.087-.519-.113-.716-.014-.1-.03-.201-.041-.299-.018-.153-.058-.335-.074-.488-.062-.618.488-1.157.517-1.777.002-.044.005-.087.01-.13.01-.106.022-.211.027-.318.068-1.42 1.036-2.587 2.462-2.907.411-.083.822-.166 1.233-.166a5.38 5.38 0 0 1 1.665.146c1.287.322 2.491 1.303 2.6 2.625.006.071.01.142.01.213v.211c0 .759.608 1.55.513 2.302-.011.088-.036.182-.055.268-.04.178-.055.379-.092.558-.02.096-.05.222-.072.319-.144.655-.832 1.091-1.203 1.65-.29.438-.57.84-.818 1.241-.493 1.078-.247 2.321.658 3.067.186.188.468.299.703.42.297.152.675.358.776.409.822.332 1.726.58 2.548.829.986.248 1.726 1.078 1.973 2.072l.034.142c.148.611.102 1.516-.527 1.516z" fill="#fff"/></svg>