<svg width="16" height="16" viewBox="0 0 16 16" fill="none" xmlns="http://www.w3.org/2000/svg"><path fill-rule="evenodd" clip-rule="evenodd" d="M1.333 6.667C1.333 6.299 1.632 6 2 6h8.667a.667.667 0 1 1 0 1.333H2a.667.667 0 0 1-.667-.666zm0-2.667c0-.368.299-.667.667-.667h11.333a.667.667 0 0 1 0 1.334H2A.667.667 0 0 1 1.333 4zm0 5.334c0-.369.299-.667.667-.667h11.333a.667.667 0 0 1 0 1.333H2a.667.667 0 0 1-.667-.666zm0 2.666c0-.368.299-.666.667-.666h8.667a.667.667 0 0 1 0 1.333H2A.667.667 0 0 1 1.333 12z" fill="#030F1A"/></svg>