<svg width="102" height="101" viewBox="0 0 102 101" fill="none" xmlns="http://www.w3.org/2000/svg"><rect x="1" y=".5" width="100" height="100" rx="50" fill="#F2F2F2"/><path fill-rule="evenodd" clip-rule="evenodd" d="M30.532 65.89c5.272-5.593 12.483-9.078 20.468-9.078 7.985 0 15.196 3.486 20.469 9.078a2.104 2.104 0 0 1-1.531 3.547H32.063a2.104 2.104 0 0 1-1.531-3.547zm8.895-24.859c0-6.391 5.182-11.573 11.573-11.573 6.392 0 11.573 5.182 11.573 11.573 0 6.392-5.181 11.573-11.573 11.573-6.391 0-11.573-5.181-11.573-11.573z" fill="#01C7B1"/><rect x="1" y=".5" width="100" height="100" rx="50" stroke="#01C7B1"/></svg>