<svg width="39" height="39" viewBox="0 0 39 39" fill="none" xmlns="http://www.w3.org/2000/svg"><rect width="39" height="39" rx="19.5" fill="#fff"/><path d="M23.838 11h-5.564c-.473 0-.962.385-1.089.86l-.643 2.399-.513 1.915-.668 2.495c-.128.473.155.859.628.859h5.565c.473 0 .962-.386 1.09-.86l.95-3.546v-.002l.874-3.262c.126-.473-.156-.858-.63-.858zm-2.352 7.001a.268.268 0 0 1-.242.19h-4.228a.14.14 0 0 1-.14-.19l.49-1.827.743-2.774.234-.873a.268.268 0 0 1 .242-.19h4.227a.141.141 0 0 1 .14.19l-.603 2.252-.512.36c-.098.07-.128.182-.067.251l.318.36-.011.042-.591 2.209z" fill="#2D5883"/><path d="M21.832 13.832l-.957-1.085c-.061-.069-.133-.04-.162.066l-.128.476h-1.399a.268.268 0 0 0-.242.191l-.255.954a.14.14 0 0 0 .071.178.14.14 0 0 0 .068.013h1.4l-.129.476c-.028.106.029.135.127.066l1.539-1.085c.098-.069.128-.18.067-.25zM21 15.902h-1.399l.128-.476c.028-.105-.029-.135-.127-.066l-1.539 1.085c-.098.07-.127.181-.066.25l.957 1.086c.061.07.133.04.162-.066l.128-.476h1.398a.268.268 0 0 0 .242-.19l.256-.955a.142.142 0 0 0-.14-.192z" fill="#2D5883"/><path d="M7.687 24.54v.016c.597.104 1.107.502 1.107 1.354 0 1.21-.773 1.68-1.951 1.68H4v-5.694h2.763c1.186 0 1.807.462 1.807 1.434 0 .7-.413 1.051-.883 1.21zm-1.266-.342c.398 0 .716-.096.716-.565 0-.47-.318-.565-.716-.565h-.987v1.13h.987zm-.987 2.221H6.46c.597 0 .9-.143.9-.676s-.303-.669-.9-.669H5.434v1.345zm5.717-2.159c-.462 0-.684.176-.725.566H9.231c.04-.78.597-1.442 1.927-1.442 1.146 0 1.784.446 1.784 1.728v1.871c0 .215.08.303.239.303v.303a2.024 2.024 0 0 1-.74.127c-.574 0-.734-.27-.734-.557h-.015a1.74 1.74 0 0 1-1.282.557c-.86 0-1.338-.485-1.338-1.17 0-.813.597-1.187 1.553-1.378.525-.104 1.043-.183 1.043-.526 0-.238-.166-.381-.517-.381zm.518 1.84v-.493a4.1 4.1 0 0 1-.654.183c-.501.112-.668.319-.668.574 0 .335.199.477.51.477.55 0 .812-.35.812-.74zm5.947-1.267v2.755h-1.274v-2.349c0-.613-.215-.82-.637-.82-.485 0-.765.247-.765.812v2.357h-1.274v-4.076h1.274v.589h.016c.215-.375.613-.717 1.337-.717.79 0 1.323.518 1.323 1.45zm1.864-2.936v2.995l1.194-1.378h1.521l-1.441 1.528 1.608 2.548h-1.513l-.964-1.625-.406.422v1.203h-1.274v-5.694h1.274v.001zm3.264-.001h2.763c1.186 0 1.927.622 1.927 1.816 0 1.193-.74 1.814-1.927 1.814h-1.33v2.063h-1.433v-5.692zm1.434 2.46h1.026c.494 0 .796-.166.796-.644 0-.477-.302-.645-.796-.645h-1.026v1.29zm5.366-.096c-.462 0-.685.176-.725.566h-1.195c.04-.78.597-1.442 1.927-1.442 1.146 0 1.784.446 1.784 1.728v1.871c0 .215.08.303.238.303v.303a2.024 2.024 0 0 1-.74.127c-.574 0-.733-.27-.733-.557h-.016a1.742 1.742 0 0 1-1.282.557c-.86 0-1.337-.485-1.337-1.17 0-.813.597-1.187 1.553-1.378.525-.104 1.043-.183 1.043-.526 0-.238-.167-.381-.517-.381zm.517 1.84v-.493a4.1 4.1 0 0 1-.653.183c-.502.112-.669.319-.669.574 0 .335.2.477.51.477.55 0 .812-.35.812-.74zm4.379 1.57c-.35 1.042-.732 1.329-1.592 1.329a3.418 3.418 0 0 1-.709-.08v-.955h.017c.35.08.636.04.772-.167.12-.183.095-.438-.032-.796l-1.33-3.487h1.275l.924 2.675h.015l.773-2.675h1.274l-1.387 4.155z" fill="#3C3C3B"/></svg>