<svg width="41" height="40" viewBox="0 0 41 40" fill="none" xmlns="http://www.w3.org/2000/svg"><g clip-path="url(#clip0_329_7805)"><path d="M40.445 21.5H33.3c-6.24 0-11.3 5.06-11.3 11.3v7.145c9.85-.73 17.714-8.595 18.445-18.445zM19 39.945V32.8c0-6.24-5.059-11.3-11.3-11.3H.556C1.286 31.35 9.15 39.214 19 39.945zM40.445 18.5C39.715 8.65 31.85.786 22 .055V7.2c0 6.24 5.06 11.3 11.3 11.3h7.145zM19 .055C9.15.785 1.286 8.65.556 18.5H7.7c6.241 0 11.3-5.06 11.3-11.3V.055z" fill="#775732"/><path d="M14.083 20a14.362 14.362 0 0 0 6.417-6.418A14.362 14.362 0 0 0 26.918 20a14.361 14.361 0 0 0-6.418 6.417A14.361 14.361 0 0 0 14.083 20z" fill="#CA9352"/></g><defs><clipPath id="clip0_329_7805"><path fill="#fff" transform="translate(.5)" d="M0 0h40v40H0z"/></clipPath></defs></svg>