<svg width="28" height="27" viewBox="0 0 28 27" fill="none" xmlns="http://www.w3.org/2000/svg"><path fill-rule="evenodd" clip-rule="evenodd" d="M9.697.25c-.138 0-.257 0-.372.007A3.75 3.75 0 0 0 6.073 2.6c-.043.107-.081.22-.125.35l-.12.364a1.001 1.001 0 0 1-.95.685A4.627 4.627 0 0 0 .25 8.627v10.675c0 1.006 0 1.836.055 2.513.058.702.18 1.348.49 1.955a5 5 0 0 0 2.185 2.185c.607.31 1.253.432 1.955.49.677.055 1.507.055 2.513.055h13.104c1.006 0 1.836 0 2.513-.055.702-.058 1.348-.18 1.955-.49a5 5 0 0 0 2.185-2.185c.31-.607.432-1.253.49-1.955.055-.677.055-1.507.055-2.513V8.627A4.627 4.627 0 0 0 23.123 4c-.431 0-.814-.276-.95-.685l-.121-.363a6.237 6.237 0 0 0-.125-.35A3.75 3.75 0 0 0 18.675.256a6.23 6.23 0 0 0-.372-.007H9.697zM19.625 14a5.625 5.625 0 1 1-11.25 0 5.625 5.625 0 0 1 11.25 0z" fill="#9CABB8"/></svg>