<svg width="30" height="30" viewBox="0 0 30 30" fill="none" xmlns="http://www.w3.org/2000/svg"><path d="M0 15C0 6.716 6.716 0 15 0c8.284 0 15 6.716 15 15 0 8.284-6.716 15-15 15-8.284 0-15-6.716-15-15z" fill="#007AFF"/><g clip-path="url(#clip0_2492_62346)" stroke="#fff" stroke-width="2" stroke-linecap="round" stroke-linejoin="round"><path d="M7.917 11.956c0-1.057.857-1.914 1.914-1.914.549 0 1.037-.352 1.21-.873l.063-.19c.03-.09.045-.134.061-.174a1.417 1.417 0 0 1 1.23-.886c.042-.002.09-.002.184-.002h4.843c.095 0 .142 0 .185.002a1.417 1.417 0 0 1 1.228.886c.016.04.031.085.061.174l.063.19c.174.521.662.873 1.21.873 1.058 0 1.915.857 1.915 1.914v6.02c0 1.19 0 1.784-.232 2.239a2.12 2.12 0 0 1-.929.928c-.454.232-1.05.232-2.24.232h-7.366c-1.19 0-1.785 0-2.24-.232a2.125 2.125 0 0 1-.928-.928c-.232-.455-.232-1.05-.232-2.24v-6.02z"/><path d="M15 18.188a3.188 3.188 0 1 0 0-6.375 3.188 3.188 0 0 0 0 6.375z"/></g><defs><clipPath id="clip0_2492_62346"><path fill="#fff" transform="translate(6.5 6.5)" d="M0 0h17v17H0z"/></clipPath></defs></svg>