<svg width="33" height="32" viewBox="0 0 33 32" fill="none" xmlns="http://www.w3.org/2000/svg"><path d="M.5 16c0-8.837 7.163-16 16-16s16 7.163 16 16-7.163 16-16 16-16-7.163-16-16z" fill="#5AF0A2"/><path fill-rule="evenodd" clip-rule="evenodd" d="M12.788 9.626h3.004a.708.708 0 1 1 0 1.416h-2.975c-.607 0-1.02 0-1.338.027-.31.025-.47.071-.58.128a1.417 1.417 0 0 0-.62.619c-.056.11-.102.27-.127.58-.026.319-.027.731-.027 1.338v5.95c0 .607 0 1.02.027 1.338.025.31.071.47.128.58.135.267.352.483.619.62.11.056.27.102.58.127.319.026.731.027 1.338.027h5.95c.607 0 1.019 0 1.338-.027.31-.025.47-.071.58-.128a1.42 1.42 0 0 0 .62-.619c.055-.11.102-.27.127-.58.026-.319.027-.731.027-1.338v-2.975a.708.708 0 1 1 1.416 0v3.004c0 .57 0 1.041-.031 1.424-.033.398-.103.764-.278 1.108a2.833 2.833 0 0 1-1.238 1.238c-.344.176-.71.245-1.108.278-.383.031-.854.031-1.424.031h-6.008c-.57 0-1.041 0-1.425-.031-.398-.032-.764-.102-1.107-.277a2.833 2.833 0 0 1-1.239-1.239c-.175-.344-.245-.71-.277-1.108-.032-.383-.032-.854-.031-1.424v-6.008c0-.57 0-1.041.03-1.424.033-.399.103-.764.278-1.108a2.834 2.834 0 0 1 1.239-1.239c.343-.175.71-.245 1.107-.277.384-.031.854-.031 1.425-.031z" fill="#030F1A"/><path fill-rule="evenodd" clip-rule="evenodd" d="M20.604 8.77a2.21 2.21 0 1 1 3.126 3.127l-6.773 6.774-.042.042c-.204.204-.383.384-.6.516-.19.117-.397.203-.614.255-.247.059-.5.059-.79.058h-1.244a.708.708 0 0 1-.708-.708v-1.246c0-.287-.001-.541.058-.788.052-.217.138-.424.255-.614.132-.217.312-.396.516-.6l.042-.042 6.774-6.773z" fill="#030F1A"/></svg>