<svg width="332" height="100" viewBox="0 0 332 100" fill="none" xmlns="http://www.w3.org/2000/svg"><path fill="#00CC8E" d="M2 2h96v96H2z"/><path d="M40 50c0-5.523 4.477-10 10-10s10 4.477 10 10-4.477 10-10 10-10-4.477-10-10z" fill="#fff"/><path d="M54.666 46.5l-6.416 6.417L45.333 50" stroke="#01C7B1" stroke-width="2" stroke-linecap="round" stroke-linejoin="round"/><path d="M40 50c0-5.523 4.477-10 10-10s10 4.477 10 10-4.477 10-10 10-10-4.477-10-10z" stroke="#fff" stroke-width="2"/><path stroke="#D2D6D9" stroke-width="4" d="M2 2h96v96H2z"/><path fill="#00B27C" d="M124 0h28v28h-28z"/><path fill="#00CC8E" d="M160 0h28v28h-28z"/><path d="M167.5 14a6.5 6.5 0 1 1 13 0 6.5 6.5 0 0 1-13 0z" fill="#fff"/><g clip-path="url(#clip0_1209_24160)"><path d="M177.033 11.725l-4.17 4.17L170.967 14" stroke="#01C7B1" stroke-width="2" stroke-linecap="round" stroke-linejoin="round"/></g><path d="M167.5 14a6.5 6.5 0 1 1 13 0 6.5 6.5 0 0 1-13 0z" stroke="#fff" stroke-width="2"/><path fill="#33FFC0" d="M196 0h28v28h-28z"/><path fill="#ED1B2E" d="M232 0h28v28h-28z"/><path fill="#FF625A" d="M268 0h28v28h-28z"/><path fill="#FECC2F" d="M304 0h28v28h-28z"/><path fill="#FFD633" d="M124 36h28v28h-28z"/><path fill="#0062CC" d="M160 36h28v28h-28z"/><path fill="#007AFF" d="M196 36h28v28h-28z"/><path fill="#3395FF" d="M232 36h28v28h-28z"/><path fill="#4645AB" d="M268 36h28v28h-28z"/><path fill="#5856D6" d="M304 36h28v28h-28z"/><path fill="#7978DE" d="M124 72h28v28h-28z"/><path fill="#C70" d="M160 72h28v28h-28z"/><path fill="#F7961C" d="M196 72h28v28h-28z"/><path fill="#FA3" d="M232 72h28v28h-28z"/><path fill="#000" d="M268 72h28v28h-28z"/><defs><clipPath id="clip0_1209_24160"><path fill="#fff" transform="translate(169.45 9.45)" d="M0 0h9.1v9.1H0z"/></clipPath></defs></svg>