<svg width="83" height="23" viewBox="0 0 83 23" fill="none" xmlns="http://www.w3.org/2000/svg"><rect y=".5" width="83" height="22" rx="11" fill="#01C7B1"/><rect x="8" y="5.5" width="12" height="12" rx="6" fill="#fff"/><path fill-rule="evenodd" clip-rule="evenodd" d="M16.77 9.366a.318.318 0 0 1 0 .45l-3.5 3.5a.318.318 0 0 1-.45 0l-1.59-1.591a.318.318 0 0 1 .45-.45l1.365 1.366 3.275-3.275a.318.318 0 0 1 .45 0z" fill="#01C7B1"/><path d="M28.01 14.59c-.713 0-1.337-.15-1.87-.45a3.07 3.07 0 0 1-1.22-1.27c-.28-.547-.42-1.18-.42-1.9s.14-1.353.42-1.9a3.006 3.006 0 0 1 1.22-1.26c.533-.3 1.157-.45 1.87-.45.467 0 .913.073 1.34.22.427.14.777.337 1.05.59l-.5 1.11a3.344 3.344 0 0 0-.92-.51c-.3-.107-.613-.16-.94-.16-.627 0-1.11.2-1.45.6-.333.4-.5.987-.5 1.76s.167 1.363.5 1.77c.34.4.823.6 1.45.6.327 0 .64-.053.94-.16.307-.107.613-.277.92-.51l.5 1.11c-.273.253-.623.453-1.05.6a4.27 4.27 0 0 1-1.34.21zm5.61-.01c-.52 0-.977-.103-1.37-.31a2.25 2.25 0 0 1-.91-.89c-.214-.387-.32-.84-.32-1.36 0-.52.106-.97.32-1.35a2.17 2.17 0 0 1 .91-.89c.393-.207.85-.31 1.37-.31.52 0 .976.103 1.37.31.393.207.696.503.91.89.213.38.32.83.32 1.35 0 .52-.107.973-.32 1.36a2.25 2.25 0 0 1-.91.89c-.394.207-.85.31-1.37.31zm0-1.15c.733 0 1.1-.47 1.1-1.41 0-.473-.097-.827-.29-1.06-.187-.233-.457-.35-.81-.35-.734 0-1.1.47-1.1 1.41s.366 1.41 1.1 1.41zm9.569-3.96c.56 0 .976.17 1.25.51.273.34.41.86.41 1.56v2.96h-1.51v-2.91c0-.333-.054-.573-.16-.72-.1-.147-.274-.22-.52-.22-.287 0-.51.1-.67.3-.16.2-.24.48-.24.84v2.71h-1.51v-2.91c0-.333-.054-.573-.16-.72-.1-.147-.274-.22-.52-.22-.287 0-.51.1-.67.3-.16.2-.24.48-.24.84v2.71h-1.51V9.59h1.47v.66c.153-.253.356-.447.61-.58.26-.133.556-.2.89-.2.726 0 1.213.303 1.46.91.16-.28.383-.5.67-.66a1.85 1.85 0 0 1 .95-.25zm5.837 0c.42 0 .794.11 1.12.33.334.213.59.517.77.91.187.387.28.833.28 1.34 0 .507-.093.953-.28 1.34a2.05 2.05 0 0 1-.76.88c-.326.207-.703.31-1.13.31-.333 0-.636-.067-.91-.2a1.532 1.532 0 0 1-.62-.58v2.5h-1.51V9.59h1.49v.69c.147-.253.357-.45.63-.59.274-.147.58-.22.92-.22zm-.44 3.96c.354 0 .627-.117.82-.35.194-.24.29-.583.29-1.03 0-.453-.096-.803-.29-1.05-.193-.253-.466-.38-.82-.38-.353 0-.626.123-.82.37-.193.24-.29.587-.29 1.04 0 .447.097.793.29 1.04.194.24.467.36.82.36zm3.533-5.98h1.51v7.05h-1.51V7.45zm7.086 4.88h-3.2c.047.393.173.68.38.86.213.173.513.26.9.26a2.418 2.418 0 0 0 1.44-.48l.4 1.01a2.72 2.72 0 0 1-.88.44 3.41 3.41 0 0 1-1.03.16c-.827 0-1.48-.227-1.96-.68-.473-.46-.71-1.083-.71-1.87 0-.5.103-.943.31-1.33.207-.387.493-.687.86-.9.367-.22.783-.33 1.25-.33.687 0 1.23.223 1.63.67.407.447.61 1.053.61 1.82v.37zm-2.2-1.82c-.287 0-.517.093-.69.28-.167.18-.27.443-.31.79h1.93c-.02-.353-.11-.62-.27-.8-.153-.18-.373-.27-.66-.27zm5.734 2.96c.154 0 .314-.01.48-.03l-.08 1.1c-.193.027-.386.04-.58.04-.746 0-1.293-.163-1.64-.49-.34-.327-.51-.823-.51-1.49v-1.88h-.93V9.59h.93V8.15h1.51v1.44h1.23v1.13h-1.23v1.87c0 .587.274.88.82.88zm5.568-1.14h-3.2c.046.393.173.68.38.86.213.173.513.26.9.26a2.417 2.417 0 0 0 1.44-.48l.4 1.01a2.73 2.73 0 0 1-.88.44c-.34.107-.684.16-1.03.16-.827 0-1.48-.227-1.96-.68-.474-.46-.71-1.083-.71-1.87 0-.5.103-.943.31-1.33.206-.387.493-.687.86-.9a2.38 2.38 0 0 1 1.25-.33c.686 0 1.23.223 1.63.67.406.447.61 1.053.61 1.82v.37zm-2.2-1.82c-.287 0-.517.093-.69.28-.167.18-.27.443-.31.79h1.93c-.02-.353-.11-.62-.27-.8-.154-.18-.374-.27-.66-.27zm8.082-3.06v7.05h-1.5v-.73a1.564 1.564 0 0 1-.63.6c-.267.14-.57.21-.91.21-.42 0-.797-.107-1.13-.32a2.246 2.246 0 0 1-.77-.91 3.21 3.21 0 0 1-.27-1.35c0-.507.09-.95.27-1.33.186-.387.443-.683.77-.89.326-.207.703-.31 1.13-.31.333 0 .633.07.9.21.273.14.483.337.63.59V7.45h1.51zm-2.6 5.98c.353 0 .623-.12.81-.36.193-.247.29-.597.29-1.05 0-.453-.097-.8-.29-1.04-.187-.24-.457-.36-.81-.36-.354 0-.627.12-.82.36-.194.233-.29.573-.29 1.02 0 .453.096.807.29 1.06.193.247.466.37.82.37z" fill="#fff"/></svg>