<svg width="19" height="20" viewBox="0 0 19 20" fill="none" xmlns="http://www.w3.org/2000/svg"><path d="M12.833 6.667V4.333c0-.933 0-1.4-.181-1.756a1.667 1.667 0 0 0-.729-.729c-.356-.181-.823-.181-1.756-.181H3.833c-.933 0-1.4 0-1.756.181-.314.16-.569.415-.729.729-.181.356-.181.823-.181 1.756v6.334c0 .933 0 1.4.181 1.756.16.314.415.569.729.729.356.181.823.181 1.756.181h2.334m2.666 5h6.334c.933 0 1.4 0 1.756-.181.314-.16.569-.415.729-.729.181-.356.181-.823.181-1.756V9.333c0-.933 0-1.4-.181-1.756a1.667 1.667 0 0 0-.729-.729c-.356-.181-.823-.181-1.756-.181H8.833c-.933 0-1.4 0-1.756.181-.314.16-.569.415-.729.729-.181.356-.181.823-.181 1.756v6.334c0 .933 0 1.4.181 1.756.16.314.415.569.729.729.356.181.823.181 1.756.181z" stroke="#fff" stroke-width="2" stroke-linecap="round" stroke-linejoin="round"/></svg>