<svg width="22" height="21" viewBox="0 0 22 21" fill="none" xmlns="http://www.w3.org/2000/svg"><path d="M16.25 13.781h1.313v3.281H16.25v-3.28zM13.625 10.5h1.313v6.563h-1.313V10.5zm-5.906 6.563a3.285 3.285 0 0 1-3.282-3.282H5.75a1.969 1.969 0 1 0 1.969-1.969V10.5a3.28 3.28 0 1 1 0 6.563z" fill="#000"/><path d="M18.875 1.313H3.125a1.314 1.314 0 0 0-1.313 1.312v15.75a1.314 1.314 0 0 0 1.313 1.313h15.75a1.315 1.315 0 0 0 1.313-1.313V2.625a1.313 1.313 0 0 0-1.313-1.313zm0 5.906H9.687V2.625h9.188v4.594zm-10.5-4.594v4.594h-5.25V2.625h5.25zm-5.25 15.75V8.531h15.75l.001 9.844H3.125z" fill="#000"/></svg>