<svg width="20" height="18" viewBox="0 0 20 18" fill="none" xmlns="http://www.w3.org/2000/svg"><path d="M10.833 3.167c0 .92-2.052 1.666-4.583 1.666s-4.583-.746-4.583-1.666m9.166 0c0-.92-2.052-1.667-4.583-1.667s-4.583.746-4.583 1.667m9.166 0V6.88c-1.018.306-1.666.768-1.666 1.286m-7.5-5v10c0 .92 2.052 1.666 4.583 1.666 1.108 0 2.124-.143 2.917-.38V8.166M1.667 6.5c0 .92 2.052 1.667 4.583 1.667 1.108 0 2.124-.143 2.917-.381m-7.5 2.047c0 .92 2.052 1.667 4.583 1.667 1.108 0 2.124-.143 2.917-.381m9.166-2.952c0 .92-2.052 1.666-4.583 1.666s-4.583-.746-4.583-1.666m9.166 0c0-.92-2.052-1.667-4.583-1.667s-4.583.746-4.583 1.667m9.166 0v6.666c0 .92-2.052 1.667-4.583 1.667s-4.583-.746-4.583-1.667V8.167m9.166 3.333c0 .92-2.052 1.667-4.583 1.667S9.167 12.42 9.167 11.5" stroke="#030F1A" stroke-width="2" stroke-linecap="round" stroke-linejoin="round"/></svg>