<svg width="22" height="22" viewBox="0 0 22 22" fill="none" xmlns="http://www.w3.org/2000/svg"><path d="M20.166 20h-8m-10.5.5l5.55-2.134c.355-.137.532-.205.698-.294.148-.08.288-.17.42-.273.15-.116.284-.25.553-.52L20.167 6a2.828 2.828 0 1 0-4-4L4.886 13.28c-.27.269-.404.403-.52.552a2.997 2.997 0 0 0-.272.42c-.09.166-.158.344-.294.699L1.666 20.5zm0 0l2.059-5.351c.147-.383.22-.574.347-.662a.5.5 0 0 1 .379-.08c.15.028.296.173.586.463l2.26 2.26c.29.29.434.435.463.586a.5.5 0 0 1-.08.379c-.088.126-.28.2-.662.347L1.667 20.5z" stroke="#9CABB8" stroke-width="2" stroke-linecap="round" stroke-linejoin="round"/></svg>