<svg width="20" height="20" viewBox="0 0 20 20" fill="none" xmlns="http://www.w3.org/2000/svg"><path d="M9.417 3.333h-3.5c-1.4 0-2.1 0-2.635.273a2.5 2.5 0 0 0-1.093 1.092c-.272.535-.272 1.235-.272 2.635v7c0 1.4 0 2.1.272 2.635a2.5 2.5 0 0 0 1.093 1.093c.534.272 1.234.272 2.635.272h7c1.4 0 2.1 0 2.635-.272a2.5 2.5 0 0 0 1.092-1.093c.273-.534.273-1.234.273-2.635v-3.5m-10 2.5h1.395c.408 0 .612 0 .803-.046.17-.04.333-.108.482-.2.168-.102.312-.246.6-.535l7.97-7.969a1.768 1.768 0 1 0-2.5-2.5l-7.97 7.97c-.288.288-.432.432-.535.6-.091.15-.159.312-.2.482-.045.191-.045.395-.045.803v1.395z" stroke="#030F1A" stroke-width="2" stroke-linecap="round" stroke-linejoin="round"/></svg>