<svg width="42" height="41" viewBox="0 0 42 41" fill="none" xmlns="http://www.w3.org/2000/svg"><ellipse cx="21" cy="20.5" rx="21" ry="20" fill="#CCF3EF"/><path d="M20.333 33.834c-2.044 0-3.777-.712-5.2-2.134C13.711 30.278 13 28.545 13 26.5v-14c0-1.466.522-2.722 1.567-3.766 1.044-1.045 2.3-1.567 3.766-1.567 1.467 0 2.723.522 3.767 1.567 1.044 1.044 1.567 2.3 1.567 3.766v10.667h-2V12.5c0-.933-.323-1.722-.967-2.366-.644-.645-1.433-.967-2.367-.967-.933 0-1.722.322-2.366.967-.645.644-.967 1.433-.967 2.366v14c0 1.467.522 2.723 1.567 3.767 1.044 1.044 2.3 1.567 3.766 1.567.645 0 1.25-.106 1.818-.318a5.042 5.042 0 0 0 1.516-.882v2.4a8.917 8.917 0 0 1-1.6.584 6.81 6.81 0 0 1-1.734.216zm6-1.334v-4h-4v-2.666h4v-4H29v4h4V28.5h-4v4h-2.667zm-6-6v2c-.933 0-1.722-.322-2.366-.966-.645-.645-.967-1.434-.967-2.367V12.5h2v12.667c0 .378.128.695.384.95.256.257.572.384.95.383zm5.334-7.333V12.5h2v6.667h-2z" fill="#00B27C"/></svg>