<svg width="28" height="28" viewBox="0 0 28 28" fill="none" xmlns="http://www.w3.org/2000/svg"><path d="M19.6 10.182c8.4 0 8.4 5.09 8.4 5.09v2.546h-8.4v-2.545s0-2.151-1.61-4.073a6.983 6.983 0 0 0-.84-.84 17.342 17.342 0 0 1 2.45-.178zM8.4 12.727c4.9 0 5.516 1.986 5.6 2.546H2.8c.084-.56.7-2.546 5.6-2.546zm0-2.545c-8.4 0-8.4 5.09-8.4 5.09v2.546h16.8v-2.545s0-5.091-8.4-5.091zm1.4 10.182v2.545h8.4v-2.545l4.2 3.818L18.2 28v-2.546H9.8V28l-4.2-3.818 4.2-3.818zM8.4 2.545c.77 0 1.4.573 1.4 1.273s-.63 1.273-1.4 1.273c-.77 0-1.4-.573-1.4-1.273s.63-1.273 1.4-1.273zM8.4 0C6.076 0 4.2 1.705 4.2 3.818s1.876 3.818 4.2 3.818c2.324 0 4.2-1.705 4.2-3.818S10.724 0 8.4 0zm11.2 0c-2.324 0-4.2 1.705-4.2 3.818s1.876 3.818 4.2 3.818c2.324 0 4.2-1.705 4.2-3.818S21.924 0 19.6 0z" fill="#030F1A"/></svg>