<svg width="23" height="21" viewBox="0 0 23 21" fill="none" xmlns="http://www.w3.org/2000/svg"><path d="M8.5 20v-7.4c0-.56 0-.84.109-1.054a1 1 0 0 1 .437-.437C9.26 11 9.54 11 10.1 11h2.8c.56 0 .84 0 1.054.109a1 1 0 0 1 .437.437c.109.214.109.494.109 1.054V20M1.5 8.5l9.04-6.78c.344-.258.516-.387.705-.437a1 1 0 0 1 .51 0c.189.05.36.179.705.437L21.5 8.5M3.5 7v9.8c0 1.12 0 1.68.218 2.108a2 2 0 0 0 .874.874C5.02 20 5.58 20 6.7 20h9.6c1.12 0 1.68 0 2.108-.218a2 2 0 0 0 .874-.874c.218-.428.218-.988.218-2.108V7l-6.08-4.56c-.688-.516-1.033-.775-1.41-.874a2 2 0 0 0-1.02 0c-.377.1-.722.358-1.41.874L3.5 7z" stroke="#030F1A" stroke-width="2" stroke-linecap="round" stroke-linejoin="round"/></svg>