<svg width="30" height="28" viewBox="0 0 30 28" fill="none" xmlns="http://www.w3.org/2000/svg"><path opacity=".2" d="M30 7.438v16.875a2.813 2.813 0 0 1-2.812 2.812H2.813A2.813 2.813 0 0 1 0 24.313V7.438a2.813 2.813 0 0 1 2.813-2.813h5.156l.721-1.928A2.809 2.809 0 0 1 11.32.875h7.354A2.81 2.81 0 0 1 21.3 2.697l.731 1.928h5.156A2.813 2.813 0 0 1 30 7.438zm-7.969 8.437A7.031 7.031 0 1 0 15 22.906a7.037 7.037 0 0 0 7.031-7.031zm-1.875 0A5.156 5.156 0 1 1 15 10.719a5.164 5.164 0 0 1 5.156 5.156z" fill="#030F1A"/></svg>