<svg width="21" height="20" viewBox="0 0 21 20" fill="none" xmlns="http://www.w3.org/2000/svg"><path d="M8.8 4.2a2.4 2.4 0 1 0 0 4.8 2.4 2.4 0 0 0 0-4.8zM7.6 6.6a1.2 1.2 0 1 1 2.4 0 1.2 1.2 0 0 1-2.4 0zM.4 2.4A1.8 1.8 0 0 1 2.2.6h13.2a1.8 1.8 0 0 1 1.8 1.8v4.2H16V5.4h-1.2A2.4 2.4 0 0 1 12.4 3V1.8H5.2V3a2.4 2.4 0 0 1-2.4 2.4H1.6v2.4h1.2a2.4 2.4 0 0 1 2.4 2.4v1.2h6v1.2h-9a1.8 1.8 0 0 1-1.8-1.8V2.4zm1.8-.6a.6.6 0 0 0-.6.6v1.8h1.2A1.2 1.2 0 0 0 4 3V1.8H2.2zm13.2 0h-1.8V3a1.2 1.2 0 0 0 1.2 1.2H16V2.4a.6.6 0 0 0-.6-.6zM2.2 11.4H4v-1.2A1.2 1.2 0 0 0 2.8 9H1.6v1.8a.6.6 0 0 0 .6.6zm16.2-4.8V3.102A1.8 1.8 0 0 1 19.6 4.8v1.8h-1.2zm-7.2 7.2V15H4.6a1.8 1.8 0 0 1-1.698-1.2H11.2zm3-6a1.8 1.8 0 0 0-1.8 1.8V18a1.8 1.8 0 0 0 1.8 1.8H19a1.8 1.8 0 0 0 1.8-1.8V9.6A1.8 1.8 0 0 0 19 7.8h-4.8zm0 4.8h1.2a.6.6 0 1 1 0 1.2h-1.2a.6.6 0 1 1 0-1.2zm3.6 0H19a.6.6 0 1 1 0 1.2h-1.2a.6.6 0 1 1 0-1.2zM14.2 15h1.2a.6.6 0 1 1 0 1.2h-1.2a.6.6 0 1 1 0-1.2zm3.6 0H19a.6.6 0 1 1 0 1.2h-1.2a.6.6 0 1 1 0-1.2zm-3.6 2.4h1.2a.6.6 0 1 1 0 1.2h-1.2a.6.6 0 1 1 0-1.2zm3.6 0H19a.6.6 0 1 1 0 1.2h-1.2a.6.6 0 1 1 0-1.2zm-4.2-7.8a.6.6 0 0 1 .6-.6H19a.6.6 0 0 1 .6.6v1.2a.6.6 0 0 1-.6.6h-4.8a.6.6 0 0 1-.6-.6V9.6z" fill="#000"/></svg>