<svg width="22" height="22" viewBox="0 0 22 22" fill="none" xmlns="http://www.w3.org/2000/svg"><path d="M21.667 16.719v4.948h-5.334V19h-2.666v-2.667H11v-2.156A7.125 7.125 0 0 1 7.667 15a7.267 7.267 0 0 1-5.177-2.146 7.582 7.582 0 0 1-1.156-1.49 6.934 6.934 0 0 1-.74-1.75 7.744 7.744 0 0 1-.26-1.947A7.267 7.267 0 0 1 2.48 2.489a7.582 7.582 0 0 1 1.489-1.156 6.933 6.933 0 0 1 1.75-.739 7.744 7.744 0 0 1 1.948-.26 7.267 7.267 0 0 1 5.177 2.145c.446.447.834.947 1.156 1.49.326.546.575 1.135.74 1.75A7.76 7.76 0 0 1 15 7.667c0 .352-.028.704-.083 1.052a7.26 7.26 0 0 1-.24 1.02l6.99 6.98zm-1.334.562l-7.187-7.187c.15-.388.275-.784.375-1.188a5.23 5.23 0 0 0 .146-1.24 5.857 5.857 0 0 0-.467-2.333 5.934 5.934 0 0 0-1.292-1.906A6.18 6.18 0 0 0 10 2.146a5.934 5.934 0 0 0-2.333-.48 5.857 5.857 0 0 0-2.333.467 5.933 5.933 0 0 0-1.906 1.292 6.18 6.18 0 0 0-1.282 1.908 5.933 5.933 0 0 0-.48 2.334A5.857 5.857 0 0 0 2.135 10a5.934 5.934 0 0 0 1.292 1.906c.55.543 1.197.977 1.908 1.281a5.894 5.894 0 0 0 4.312.134 5.845 5.845 0 0 0 1.76-.988h.928V15H15v2.667h2.667v2.666h2.666v-3.052zM5.668 4.333a1.305 1.305 0 0 1 .937.386c.122.124.221.268.292.427.075.163.111.341.104.52.002.18-.033.357-.104.521a1.334 1.334 0 0 1-.281.417 1.46 1.46 0 0 1-.427.292c-.163.075-.342.11-.521.104a1.292 1.292 0 0 1-.52-.104 1.333 1.333 0 0 1-.417-.281 1.46 1.46 0 0 1-.292-.428 1.137 1.137 0 0 1-.104-.52 1.292 1.292 0 0 1 .104-.521c.066-.155.162-.297.28-.417a1.46 1.46 0 0 1 .428-.292c.163-.075.342-.11.52-.104z" fill="#404040"/></svg>