<svg width="20" height="18" viewBox="0 0 20 18" fill="none" xmlns="http://www.w3.org/2000/svg"><path fill-rule="evenodd" clip-rule="evenodd" d="M.833 6.9C.833 3.976 3.048.667 6.574.667A5.15 5.15 0 0 1 10 1.926 5.152 5.152 0 0 1 13.426.667c3.526 0 5.74 3.31 5.74 6.233 0 1.538-.595 2.958-1.422 4.191-.827 1.234-1.917 2.326-2.985 3.226a25.425 25.425 0 0 1-2.956 2.134c-.407.252-.753.45-1.006.587a8.23 8.23 0 0 1-.437.218 1.266 1.266 0 0 1-.155.053c-.021.005-.102.025-.205.025s-.183-.02-.204-.025a.961.961 0 0 1-.156-.053 8.188 8.188 0 0 1-.437-.218 20.19 20.19 0 0 1-1.006-.587 25.423 25.423 0 0 1-2.956-2.134c-1.068-.9-2.157-1.992-2.985-3.226C1.429 9.858.833 8.438.833 6.901z" fill="#ED1B2E"/></svg>