<svg width="32" height="32" viewBox="0 0 32 32" fill="none" xmlns="http://www.w3.org/2000/svg"><path d="M10.22 20.631c-1.896-1.315-2.826-2.718-2.952-4.1H0V26.75c0 5.44 2.474 6.388 5.782 4.058l9.322-6.684-4.884-3.493zm21.775-4.101H8.65c.176 1.202 1.02 2.42 2.668 3.562l14.896 10.716c3.309 2.33 5.8 1.382 5.782-4.058V16.53zM26.23 1.21l-9.402 6.742 4.771 3.425c1.878 1.307 2.808 2.701 2.953 4.071H32V5.25c0-5.44-2.474-6.388-5.783-4.057" fill="#000"/><path d="M20.697 11.925L5.801 1.21C2.49-1.12 0-.173.018 5.267v10.198h23.36c-.18-1.193-1.029-2.402-2.663-3.54" fill="#000"/></svg>