<svg width="16" height="17" viewBox="0 0 16 17" fill="none" xmlns="http://www.w3.org/2000/svg"><path d="M1.422 5.954c-.2-.143-.3-.214-.387-.223a.337.337 0 0 0-.325.167c-.044.077-.043.198-.043.441v4.322c0 .537 0 .98.029 1.34.03.375.096.72.261 1.043.256.502.664.91 1.166 1.165.323.165.668.23 1.042.261.361.03.804.03 1.34.03h6.99c.536 0 .979 0 1.34-.03.374-.03.719-.096 1.042-.26.502-.256.91-.664 1.165-1.166.165-.324.231-.668.262-1.043.03-.36.03-.803.03-1.34V6.339c0-.119 0-.179-.012-.22a.336.336 0 0 0-.436-.229c-.04.015-.09.05-.19.118L9.537 9.58c-.367.254-.688.478-1.053.566a2 2 0 0 1-.97-.007c-.365-.094-.683-.322-1.045-.581L1.422 5.954z" fill="#9CABB8"/><path d="M14.755 4.346c.123-.085.185-.128.222-.197a.376.376 0 0 0 .04-.197c-.009-.078-.042-.13-.108-.232a2.687 2.687 0 0 0-1.032-.93c-.323-.164-.668-.23-1.043-.26-.36-.03-.803-.03-1.34-.03H4.506c-.537 0-.98 0-1.34.03-.375.03-.72.096-1.043.26a2.67 2.67 0 0 0-.94.799c-.077.105-.116.157-.129.237a.373.373 0 0 0 .033.205c.037.072.101.118.23.21l5.85 4.178c.484.346.587.406.678.43a.667.667 0 0 0 .324.002c.091-.022.195-.08.685-.42l5.901-4.085z" fill="#9CABB8"/></svg>