<svg width="20" height="18" viewBox="0 0 20 18" fill="none" xmlns="http://www.w3.org/2000/svg"><path d="M15 12.197c1.213.61 2.253 1.588 3.013 2.811.15.242.225.363.251.531.053.34-.18.76-.497.895-.157.066-.332.066-.684.066m-3.75-7.89a3.75 3.75 0 0 0 0-6.72m-1.666 3.36a3.75 3.75 0 1 1-7.5 0 3.75 3.75 0 0 1 7.5 0zm-9.534 9.532C3.46 12.787 5.558 11.5 7.917 11.5c2.358 0 4.455 1.287 5.784 3.282.29.437.436.655.42.935a.924.924 0 0 1-.33.614c-.223.169-.53.169-1.143.169H3.185c-.613 0-.92 0-1.143-.169a.924.924 0 0 1-.33-.614c-.016-.28.13-.498.42-.935z" stroke="#030F1A" stroke-width="2" stroke-linecap="round" stroke-linejoin="round"/></svg>