<svg width="21" height="21" viewBox="0 0 21 21" fill="none" xmlns="http://www.w3.org/2000/svg"><path d="M5.5 6.5h5m-5 3.5h8m-5.316 6H14.7c1.68 0 2.52 0 3.162-.327a3 3 0 0 0 1.311-1.311c.327-.642.327-1.482.327-3.162V5.8c0-1.68 0-2.52-.327-3.162a3 3 0 0 0-1.311-1.311C17.22 1 16.38 1 14.7 1H6.3c-1.68 0-2.52 0-3.162.327a3 3 0 0 0-1.311 1.311C1.5 3.28 1.5 4.12 1.5 5.8v12.535c0 .533 0 .8.11.937a.5.5 0 0 0 .39.188c.176 0 .384-.167.8-.5l2.385-1.908c.488-.39.731-.585 1.002-.724.241-.122.497-.212.762-.267C7.248 16 7.56 16 8.184 16z" stroke="#030F1A" stroke-width="2" stroke-linecap="round" stroke-linejoin="round"/></svg>