<svg width="24" height="22" viewBox="0 0 24 22" fill="none" xmlns="http://www.w3.org/2000/svg"><path d="M4.863 21.039A1.125 1.125 0 0 1 3 20.21v-2.523a2.25 2.25 0 0 1-2.25-2.25V7.561A2.25 2.25 0 0 1 3 5.313h12.375a2.25 2.25 0 0 1 2.25 2.25v7.875a2.25 2.25 0 0 1-2.25 2.25H9.753l-4.89 3.352zm.95-3.48a.602.602 0 0 0 .292-.077l2.65-1.843c.188-.131.412-.201.642-.201h4.853a1.125 1.125 0 0 0 1.125-1.126V8.689a1.125 1.125 0 0 0-1.125-1.126H4.125A1.125 1.125 0 0 0 3 8.688v5.626c0 .607.483 1.104 1.125 1.124.461.019.795.094.95.255.143.15.151.405.175.889.003.07.003.199 0 .416a.563.563 0 0 0 .563.562zM18.75 12.08a8.02 8.02 0 0 0 0 .417v-.416c.023-.484.032-.739.175-.89.155-.16.489-.236.95-.254.642-.02 1.125-.517 1.125-1.124V4.186a1.125 1.125 0 0 0-1.125-1.125H9.75a1.125 1.125 0 0 0-1.125 1.126h-2.25V3.063a2.25 2.25 0 0 1 2.25-2.25H21a2.25 2.25 0 0 1 2.25 2.25v7.874a2.25 2.25 0 0 1-2.25 2.25v2.524a1.125 1.125 0 0 1-1.863.828l-.387-.266V12.08z" fill="#000"/></svg>