<svg width="389" height="495" viewBox="0 0 389 495" fill="none" xmlns="http://www.w3.org/2000/svg"><g clip-path="url(#clip0_1668_99698)"><path d="M382.931 123.911h-.731V46.499C382.2 20.804 361.324 0 335.622 0H53.378C27.676 0 6.8 20.804 6.8 46.498v77.413h-.73A6.049 6.049 0 0 0 0 129.969v53.543a6.05 6.05 0 0 0 6.069 6.059H6.8v12.774h-.73A6.05 6.05 0 0 0 0 208.404v53.542a6.05 6.05 0 0 0 6.069 6.059H6.8v469.036c0 25.658 20.84 46.498 46.578 46.498h282.244c25.702 0 46.578-20.804 46.578-46.498V222.455h.731c3.364 0 6.069-2.7 6.069-6.058v-86.428a6.049 6.049 0 0 0-6.069-6.058z" fill="#333343"/><path d="M329.283 765.912H59.681c-20.647 0-37.389-16.62-37.389-37.116V54.954c0-20.496 16.742-37.116 37.389-37.116h269.638c20.647 0 37.389 16.62 37.389 37.116V728.76c0 20.532-16.742 37.152-37.425 37.152z" fill="#fff"/><path d="M70.682 35.952c.12 0 .213.03.28.09.067.06.1.143.1.25 0 .113-.033.2-.1.26-.06.06-.153.09-.28.09h-3.31c-.126 0-.223-.03-.29-.09-.06-.06-.09-.147-.09-.26 0-.107.033-.19.1-.25s.16-.09.28-.09h1.24v-5.36l-1.09.71a.3.3 0 0 1-.16.05c-.093 0-.176-.044-.25-.13a.45.45 0 0 1-.1-.28c0-.14.053-.24.16-.3l1.52-.99a.637.637 0 0 1 .35-.11.38.38 0 0 1 .28.11.42.42 0 0 1 .11.31v5.99h1.25zm6.156 0c.12 0 .214.03.28.09.067.06.1.143.1.25 0 .233-.126.35-.38.35h-3.92a.4.4 0 0 1-.28-.1.356.356 0 0 1-.11-.26c0-.127.047-.237.14-.33l2.41-2.65c.334-.374.574-.707.72-1 .154-.3.23-.6.23-.9 0-.387-.113-.684-.34-.89-.22-.207-.533-.31-.94-.31-.32 0-.626.06-.92.18-.293.113-.586.29-.88.53a.46.46 0 0 1-.28.12.237.237 0 0 1-.19-.1.43.43 0 0 1-.08-.26c0-.14.054-.254.16-.34a2.986 2.986 0 0 1 1-.6c.394-.147.797-.22 1.21-.22.634 0 1.137.166 1.51.5.38.333.57.783.57 1.35 0 .406-.093.796-.28 1.17-.18.373-.48.79-.9 1.25l-2 2.17h3.17zm2.066-3.16a.562.562 0 0 1-.4-.15.555.555 0 0 1-.16-.41c0-.167.054-.3.16-.4a.543.543 0 0 1 .4-.16c.154 0 .28.053.38.16.107.1.16.233.16.4a.555.555 0 0 1-.16.41c-.1.1-.226.15-.38.15zm0 3.9a.562.562 0 0 1-.4-.15.555.555 0 0 1-.16-.41c0-.167.054-.304.16-.41a.543.543 0 0 1 .4-.16c.154 0 .28.053.38.16.107.106.16.243.16.41a.555.555 0 0 1-.16.41c-.1.1-.226.15-.38.15zm6.466-2.26c.12 0 .213.033.28.1.066.06.1.14.1.24 0 .226-.127.34-.38.34h-.75v1.16a.392.392 0 0 1-.41.42.392.392 0 0 1-.29-.11.419.419 0 0 1-.11-.31v-1.16h-2.96a.378.378 0 0 1-.28-.1.34.34 0 0 1-.1-.25c0-.094.036-.197.11-.31l3.27-4.73a.436.436 0 0 1 .36-.18c.113 0 .21.036.29.11a.4.4 0 0 1 .12.31v4.47h.75zm-1.56 0v-3.47l-2.41 3.47h2.41zm5.496-2.21c.446 0 .836.093 1.17.28.34.186.6.45.78.79.186.333.28.72.28 1.16 0 .44-.1.833-.3 1.18-.2.34-.48.606-.84.8-.354.186-.764.28-1.23.28-.414 0-.817-.074-1.21-.22a2.987 2.987 0 0 1-1-.6.456.456 0 0 1-.16-.34c0-.1.026-.184.08-.25a.237.237 0 0 1 .19-.1c.093 0 .186.036.28.11.293.24.586.42.88.54.293.113.6.17.92.17.493 0 .88-.14 1.16-.42.28-.28.42-.66.42-1.14 0-.467-.14-.844-.42-1.13-.28-.287-.657-.43-1.13-.43-.607 0-1.1.233-1.48.7a.448.448 0 0 1-.34.15.373.373 0 0 1-.24-.08.324.324 0 0 1-.09-.24v-3.45a.4.4 0 0 1 .1-.28.406.406 0 0 1 .3-.11h3.52c.12 0 .213.03.28.09.073.06.11.143.11.25 0 .106-.037.19-.11.25a.404.404 0 0 1-.28.09h-3.11v2.51a1.89 1.89 0 0 1 .65-.41c.253-.1.526-.15.82-.15zm4.006 4.47a.406.406 0 0 1-.3-.11.44.44 0 0 1-.11-.31v-6.28c0-.12.036-.217.11-.29a.441.441 0 0 1 .31-.11h2.37c.74 0 1.313.18 1.72.54.413.36.62.87.62 1.53s-.207 1.173-.62 1.54c-.414.366-.987.55-1.72.55h-1.97v2.52a.44.44 0 0 1-.11.31.405.405 0 0 1-.3.11zm2.3-3.62c1.073 0 1.61-.47 1.61-1.41 0-.927-.537-1.39-1.61-1.39h-1.89v2.8h1.89zm9.995-3.53c.127 0 .223.04.29.12.073.073.11.173.11.3v6.33c0 .12-.033.216-.1.29a.36.36 0 0 1-.28.11c-.12 0-.21-.037-.27-.11a.444.444 0 0 1-.09-.29v-5.11l-2.17 4.16c-.093.193-.23.29-.41.29-.173 0-.31-.097-.41-.29l-2.18-4.11v5.06c0 .12-.033.216-.1.29-.06.073-.15.11-.27.11a.36.36 0 0 1-.28-.11.414.414 0 0 1-.1-.29v-6.33c0-.127.037-.227.11-.3a.387.387 0 0 1 .3-.12c.167 0 .3.096.4.29l2.54 4.87 2.51-4.87a.556.556 0 0 1 .17-.22.39.39 0 0 1 .23-.07zm175.737 6.41c.12 0 .213.03.28.09.067.06.1.143.1.25 0 .113-.033.2-.1.26-.06.06-.153.09-.28.09h-3.31c-.127 0-.223-.03-.29-.09-.06-.06-.09-.147-.09-.26 0-.107.033-.19.1-.25s.16-.09.28-.09h1.24v-5.36l-1.09.71a.3.3 0 0 1-.16.05c-.093 0-.177-.044-.25-.13a.448.448 0 0 1-.1-.28c0-.14.053-.24.16-.3l1.52-.99a.636.636 0 0 1 .35-.11.38.38 0 0 1 .28.11.42.42 0 0 1 .11.31v5.99h1.25zm6.156 0c.12 0 .213.03.28.09.067.06.1.143.1.25 0 .233-.127.35-.38.35h-3.92a.4.4 0 0 1-.28-.1.357.357 0 0 1-.11-.26c0-.127.047-.237.14-.33l2.41-2.65c.333-.374.573-.707.72-1 .153-.3.23-.6.23-.9 0-.387-.113-.684-.34-.89-.22-.207-.533-.31-.94-.31-.32 0-.627.06-.92.18-.293.113-.587.29-.88.53a.46.46 0 0 1-.28.12.237.237 0 0 1-.19-.1.432.432 0 0 1-.08-.26c0-.14.053-.254.16-.34a2.986 2.986 0 0 1 1-.6 3.43 3.43 0 0 1 1.21-.22c.633 0 1.137.166 1.51.5.38.333.57.783.57 1.35 0 .406-.093.796-.28 1.17-.18.373-.48.79-.9 1.25l-2 2.17h3.17zm2.066-3.16a.563.563 0 0 1-.4-.15.558.558 0 0 1-.16-.41c0-.167.054-.3.16-.4a.543.543 0 0 1 .4-.16c.154 0 .28.053.38.16.107.1.16.233.16.4a.554.554 0 0 1-.16.41c-.1.1-.226.15-.38.15zm0 3.9a.563.563 0 0 1-.4-.15.558.558 0 0 1-.16-.41c0-.167.054-.304.16-.41a.543.543 0 0 1 .4-.16c.154 0 .28.053.38.16.107.106.16.243.16.41a.554.554 0 0 1-.16.41c-.1.1-.226.15-.38.15zm6.465-2.26c.12 0 .214.033.28.1.067.06.1.14.1.24 0 .226-.126.34-.38.34h-.75v1.16a.392.392 0 0 1-.41.42.393.393 0 0 1-.29-.11.42.42 0 0 1-.11-.31v-1.16h-2.96a.379.379 0 0 1-.28-.1.342.342 0 0 1-.1-.25c0-.094.037-.197.11-.31l3.27-4.73a.438.438 0 0 1 .36-.18.41.41 0 0 1 .29.11.4.4 0 0 1 .12.31v4.47h.75zm-1.56 0v-3.47l-2.41 3.47h2.41zm5.497-2.21c.446 0 .836.093 1.17.28.34.186.6.45.78.79.186.333.28.72.28 1.16 0 .44-.1.833-.3 1.18-.2.34-.48.606-.84.8-.354.186-.764.28-1.23.28-.414 0-.817-.074-1.21-.22a2.976 2.976 0 0 1-1-.6.455.455 0 0 1-.16-.34c0-.1.026-.184.08-.25a.236.236 0 0 1 .19-.1c.093 0 .186.036.28.11.293.24.586.42.88.54.293.113.6.17.92.17.493 0 .88-.14 1.16-.42.28-.28.42-.66.42-1.14 0-.467-.14-.844-.42-1.13-.28-.287-.657-.43-1.13-.43-.607 0-1.1.233-1.48.7a.45.45 0 0 1-.34.15.37.37 0 0 1-.24-.08.324.324 0 0 1-.09-.24v-3.45c0-.114.033-.207.1-.28a.404.404 0 0 1 .3-.11h3.52c.12 0 .213.03.28.09.073.06.11.143.11.25 0 .106-.037.19-.11.25a.404.404 0 0 1-.28.09h-3.11v2.51a1.88 1.88 0 0 1 .65-.41c.253-.1.526-.15.82-.15zm4.006 4.47a.404.404 0 0 1-.3-.11.438.438 0 0 1-.11-.31v-6.28a.39.39 0 0 1 .11-.29.44.44 0 0 1 .31-.11h2.37c.74 0 1.313.18 1.72.54.413.36.62.87.62 1.53s-.207 1.173-.62 1.54c-.414.366-.987.55-1.72.55h-1.97v2.52c0 .126-.037.23-.11.31a.408.408 0 0 1-.3.11zm2.3-3.62c1.073 0 1.61-.47 1.61-1.41 0-.927-.537-1.39-1.61-1.39h-1.89v2.8h1.89zm9.995-3.53c.127 0 .223.04.29.12.073.073.11.173.11.3v6.33c0 .12-.033.216-.1.29a.36.36 0 0 1-.28.11c-.12 0-.21-.037-.27-.11a.444.444 0 0 1-.09-.29v-5.11l-2.17 4.16c-.093.193-.23.29-.41.29-.173 0-.31-.097-.41-.29l-2.18-4.11v5.06c0 .12-.033.216-.1.29-.06.073-.15.11-.27.11a.36.36 0 0 1-.28-.11.413.413 0 0 1-.1-.29v-6.33c0-.127.037-.227.11-.3a.386.386 0 0 1 .3-.12c.167 0 .3.096.4.29l2.54 4.87 2.51-4.87a.556.556 0 0 1 .17-.22.39.39 0 0 1 .23-.07z" fill="#000"/><path d="M137.097 11.148h114.806V33.25a8 8 0 0 1-8 8h-98.806a8 8 0 0 1-8-8V11.148z" fill="#333343"/><path d="M173.88 28.986h40.126" stroke="#9CABB8" stroke-width="4" stroke-linecap="round"/><path d="M148.244 28.986h1.114" stroke="#9CABB8" stroke-width="8" stroke-linecap="round"/><path d="M241.871 28.986h1.115m-8.917 0h1.114" stroke="#9CABB8" stroke-width="4" stroke-linecap="round"/><path d="M178.909 73.067c.261 0 .467.084.616.252.159.159.238.373.238.644v8.218c0 .27-.079.49-.238.658a.81.81 0 0 1-.616.252c-.299 0-.527-.107-.686-.322l-5.11-6.65v6.062c0 .27-.075.49-.224.658-.149.168-.355.252-.616.252s-.467-.084-.616-.252c-.149-.168-.224-.388-.224-.658v-8.218c0-.27.079-.485.238-.644a.827.827 0 0 1 .63-.252c.289 0 .513.107.672.322l5.096 6.622v-6.048c0-.27.075-.485.224-.644a.81.81 0 0 1 .616-.252zm5.951 10.052c-.7 0-1.316-.145-1.848-.434a3.01 3.01 0 0 1-1.218-1.246c-.289-.541-.434-1.171-.434-1.89 0-.719.145-1.344.434-1.876a3.011 3.011 0 0 1 1.218-1.246c.532-.29 1.148-.434 1.848-.434.7 0 1.311.145 1.834.434.532.29.938.704 1.218 1.246.289.532.434 1.157.434 1.876 0 .718-.145 1.348-.434 1.89-.28.541-.686.957-1.218 1.246-.523.29-1.134.434-1.834.434zm-.014-1.358c.569 0 1.003-.187 1.302-.56.299-.373.448-.924.448-1.652 0-.719-.149-1.265-.448-1.638-.299-.383-.728-.574-1.288-.574s-.994.191-1.302.574c-.299.373-.448.92-.448 1.638 0 .728.149 1.278.448 1.652.299.373.728.56 1.288.56zm8.46.028c.466.028.7.238.7.63a.584.584 0 0 1-.28.518c-.178.112-.434.159-.77.14l-.378-.028c-1.568-.112-2.352-.952-2.352-2.52v-3.052h-.7c-.252 0-.448-.056-.588-.168-.131-.112-.196-.275-.196-.49 0-.215.065-.378.196-.49.14-.112.336-.168.588-.168h.7v-1.288c0-.252.079-.453.238-.602.158-.15.373-.224.644-.224.261 0 .471.075.63.224.158.15.238.35.238.602v1.288h1.19c.252 0 .443.056.574.168.14.112.21.275.21.49 0 .215-.07.378-.21.49-.131.112-.322.168-.574.168h-1.19v3.178c0 .69.317 1.06.952 1.106l.378.028zm2.48 1.302a.95.95 0 0 1-.63-.21c-.159-.15-.238-.36-.238-.63v-5.404c0-.27.079-.476.238-.616a.95.95 0 0 1 .63-.21.95.95 0 0 1 .63.21c.168.14.252.345.252.616v5.404c0 .27-.084.48-.252.63a.95.95 0 0 1-.63.21zm0-8.316c-.318 0-.57-.084-.756-.252a.903.903 0 0 1-.28-.686c0-.28.093-.504.28-.672.186-.168.438-.252.756-.252.308 0 .555.084.742.252a.84.84 0 0 1 .294.672c0 .28-.094.508-.28.686-.187.168-.439.252-.756.252zm5.724 8.344c-.681 0-1.283-.145-1.806-.434-.513-.29-.91-.7-1.19-1.232-.28-.532-.42-1.153-.42-1.862 0-.71.145-1.335.434-1.876.299-.55.714-.975 1.246-1.274.532-.299 1.144-.448 1.834-.448.364 0 .728.051 1.092.154.374.102.7.242.98.42.299.196.448.443.448.742a.79.79 0 0 1-.154.504.45.45 0 0 1-.378.182.838.838 0 0 1-.322-.07 2.8 2.8 0 0 1-.336-.168 3.31 3.31 0 0 0-.588-.28 1.722 1.722 0 0 0-.644-.112c-.578 0-1.026.191-1.344.574-.308.373-.462.915-.462 1.624 0 .7.154 1.241.462 1.624.318.373.766.56 1.344.56.234 0 .439-.033.616-.098a5.89 5.89 0 0 0 .616-.294c.14-.084.262-.145.364-.182a.743.743 0 0 1 .308-.07c.15 0 .276.065.378.196.103.13.154.294.154.49a.782.782 0 0 1-.112.42.903.903 0 0 1-.336.308 3.825 3.825 0 0 1-1.008.448 4.51 4.51 0 0 1-1.176.154zm9.216-1.988a.45.45 0 0 1 .378.182c.103.121.154.284.154.49 0 .29-.172.532-.518.728a4.63 4.63 0 0 1-2.226.588c-1.101 0-1.974-.317-2.618-.952-.644-.635-.966-1.503-.966-2.604 0-.7.14-1.32.42-1.862.28-.541.672-.961 1.176-1.26a3.39 3.39 0 0 1 1.736-.448c.616 0 1.153.135 1.61.406.458.27.812.653 1.064 1.148.252.495.378 1.078.378 1.75 0 .401-.177.602-.532.602h-4.13c.056.644.238 1.12.546 1.428.308.299.756.448 1.344.448a2.5 2.5 0 0 0 .784-.112c.234-.075.495-.177.784-.308.28-.15.486-.224.616-.224zm-2.422-3.906c-.476 0-.858.15-1.148.448-.28.299-.448.728-.504 1.288h3.164c-.018-.57-.158-.999-.42-1.288-.261-.299-.625-.448-1.092-.448zm6.92 5.894c-1.017 0-1.839-.2-2.464-.602-.299-.177-.448-.43-.448-.756 0-.187.051-.336.154-.448a.478.478 0 0 1 .378-.182c.159 0 .378.075.658.224.299.14.569.247.812.322.252.074.569.112.952.112.392 0 .695-.066.91-.196.224-.13.336-.313.336-.546a.512.512 0 0 0-.14-.378c-.084-.093-.243-.177-.476-.252a8.237 8.237 0 0 0-1.036-.28c-.831-.168-1.428-.406-1.792-.714-.355-.308-.532-.733-.532-1.274 0-.41.121-.78.364-1.106.243-.336.574-.593.994-.77.429-.187.915-.28 1.456-.28.392 0 .77.051 1.134.154.364.093.691.233.98.42.299.187.448.434.448.742a.745.745 0 0 1-.154.476.478.478 0 0 1-.378.182.894.894 0 0 1-.308-.056 8.799 8.799 0 0 1-.364-.196 5.08 5.08 0 0 0-.7-.308 2.06 2.06 0 0 0-.728-.112c-.345 0-.621.07-.826.21a.668.668 0 0 0-.294.574c0 .233.103.41.308.532.205.121.602.242 1.19.364.625.13 1.115.28 1.47.448.355.168.607.378.756.63.159.252.238.574.238.966 0 .634-.266 1.143-.798 1.526-.523.382-1.223.574-2.1.574z" fill="#000"/><path d="M45.7 70.236l-7.803 7.804 7.802 7.804" stroke="#2E2E2E"/></g><defs><clipPath id="clip0_1668_99698"><path fill="#fff" d="M0 0h389v495H0z"/></clipPath></defs></svg>