<svg width="68" height="22" viewBox="0 0 68 22" fill="none" xmlns="http://www.w3.org/2000/svg"><rect width="68" height="22" rx="11" fill="#01C7B1"/><rect x="8" y="5" width="12" height="12" rx="6" fill="#fff"/><path fill-rule="evenodd" clip-rule="evenodd" d="M16.77 8.866a.318.318 0 0 1 0 .45l-3.5 3.5a.318.318 0 0 1-.45 0l-1.59-1.591a.318.318 0 0 1 .45-.45l1.366 1.366 3.275-3.275a.318.318 0 0 1 .45 0z" fill="#01C7B1"/><path d="M33.19 14.06a.657.657 0 0 1-.47-.17.67.67 0 0 1-.17-.48V7.56c0-.193.053-.343.16-.45.113-.107.267-.16.46-.16h2.46c.753 0 1.34.19 1.76.57.42.373.63.9.63 1.58s-.21 1.21-.63 1.59c-.42.38-1.007.57-1.76.57h-1.79v2.15c0 .2-.06.36-.18.48-.113.113-.27.17-.47.17zm2.28-3.79c.887 0 1.33-.387 1.33-1.16 0-.773-.443-1.16-1.33-1.16h-1.63v2.32h1.63zm5.565-1.28c.68 0 1.183.17 1.51.51.333.333.5.843.5 1.53v2.44c0 .18-.054.323-.16.43-.107.1-.254.15-.44.15a.603.603 0 0 1-.43-.16.568.568 0 0 1-.16-.42v-.22c-.114.26-.294.463-.54.61-.24.147-.52.22-.84.22-.327 0-.624-.067-.89-.2a1.584 1.584 0 0 1-.63-.55 1.39 1.39 0 0 1-.23-.78c0-.36.09-.643.27-.85.186-.207.486-.357.9-.45.413-.093.983-.14 1.71-.14h.25v-.23c0-.327-.07-.563-.21-.71-.14-.153-.367-.23-.68-.23-.194 0-.39.03-.59.09-.2.053-.437.133-.71.24-.174.087-.3.13-.38.13a.391.391 0 0 1-.3-.13.509.509 0 0 1-.11-.34c0-.113.026-.21.08-.29a.832.832 0 0 1 .29-.24c.233-.127.51-.227.83-.3.326-.073.646-.11.96-.11zm-.31 4.19c.333 0 .603-.11.81-.33.213-.227.32-.517.32-.87v-.21h-.18a6.9 6.9 0 0 0-1.04.06c-.247.04-.424.11-.53.21a.535.535 0 0 0-.16.41.7.7 0 0 0 .22.53c.153.133.34.2.56.2zm4.21.88a.68.68 0 0 1-.45-.15c-.113-.107-.17-.257-.17-.45V9.6c0-.193.057-.34.17-.44.12-.1.27-.15.45-.15s.33.05.45.15c.12.1.18.247.18.44v3.86c0 .193-.06.343-.18.45a.68.68 0 0 1-.45.15zm0-5.94c-.227 0-.407-.06-.54-.18a.646.646 0 0 1-.2-.49c0-.2.067-.36.2-.48s.313-.18.54-.18c.22 0 .397.06.53.18a.6.6 0 0 1 .21.48c0 .2-.067.363-.2.49-.133.12-.313.18-.54.18zm6-1.22c.186 0 .34.053.46.16.12.107.18.247.18.42v5.98c0 .18-.058.323-.17.43a.63.63 0 0 1-.45.16.63.63 0 0 1-.45-.16.563.563 0 0 1-.17-.43v-.25c-.148.273-.36.487-.64.64-.274.153-.588.23-.94.23a2.05 2.05 0 0 1-1.13-.32 2.174 2.174 0 0 1-.77-.9 3.21 3.21 0 0 1-.27-1.35c0-.507.09-.95.27-1.33.186-.38.442-.673.77-.88a2.06 2.06 0 0 1 1.13-.31c.352 0 .666.073.94.22.272.147.482.353.63.62V7.46c0-.167.052-.3.16-.4a.63.63 0 0 1 .45-.16zm-1.85 6.21c.4 0 .706-.137.92-.41.22-.273.33-.663.33-1.17 0-.507-.11-.893-.33-1.16-.214-.273-.518-.41-.91-.41-.4 0-.71.133-.93.4-.22.267-.33.65-.33 1.15 0 .507.11.9.33 1.18.22.28.526.42.92.42z" fill="#fff"/></svg>