<svg width="325" height="238" viewBox="0 0 325 238" fill="none" xmlns="http://www.w3.org/2000/svg"><g clip-path="url(#clip0_8_2646)" filter="url(#filter0_dd_8_2646)"><path d="M12 12c0-6.627 5.373-12 12-12h277c6.627 0 12 5.373 12 12v190c0 6.627-5.373 12-12 12H24c-6.627 0-12-5.373-12-12V12z" fill="#fff"/><path fill="#CCFFEF" d="M12 0h55v215H12z"/><path d="M20 19.5a5.5 5.5 0 1 1 11 0v1a5.5 5.5 0 1 1-11 0v-1z" fill="#fff"/><path fill="#F8F9FB" d="M38 21h11v-2H38z"/><rect x="18" y="41" width="43" height="10" rx="2" fill="#66FFD0"/><path fill="#E6EAED" d="M24 47h31v-2H24zm0 14h31v-2H24zm0 12h31v-2H24zm67-26h39v-2H91zm0 6h59v-2H91zm0 49h103v-2H91zm0 7h155v-2H91zm0 7h155v-2H91zm0 7h155v-2H91zm0 7h155v-2H91zm0 7h67v-2H91z"/><path fill="#F8F9FB" d="M67 0h246v20H67z"/><path d="M288 9.5a5.5 5.5 0 1 1 11 0v1a5.5 5.5 0 1 1-11 0v-1z" fill="#F8F9FB"/><path d="M215 187a4 4 0 0 1 4-4h76a4 4 0 0 1 4 4v8a4 4 0 0 1-4 4h-76a4 4 0 0 1-4-4v-8z" fill="#00CC8E"/></g><defs><filter id="filter0_dd_8_2646" x="0" y="0" width="325" height="238" filterUnits="userSpaceOnUse" color-interpolation-filters="sRGB"><feFlood flood-opacity="0" result="BackgroundImageFix"/><feColorMatrix in="SourceAlpha" type="matrix" values="0 0 0 0 0 0 0 0 0 0 0 0 0 0 0 0 0 0 127 0" result="hardAlpha"/><feMorphology radius="4" operator="erode" in="SourceAlpha" result="effect1_dropShadow_8_2646"/><feOffset dy="12"/><feGaussianBlur stdDeviation="8"/><feColorMatrix type="matrix" values="0 0 0 0 0.0627451 0 0 0 0 0.0941176 0 0 0 0 0.156863 0 0 0 0.08 0"/><feBlend mode="normal" in2="BackgroundImageFix" result="effect1_dropShadow_8_2646"/><feColorMatrix in="SourceAlpha" type="matrix" values="0 0 0 0 0 0 0 0 0 0 0 0 0 0 0 0 0 0 127 0" result="hardAlpha"/><feMorphology radius="2" operator="erode" in="SourceAlpha" result="effect2_dropShadow_8_2646"/><feOffset dy="4"/><feGaussianBlur stdDeviation="3"/><feColorMatrix type="matrix" values="0 0 0 0 0.0627451 0 0 0 0 0.0941176 0 0 0 0 0.156863 0 0 0 0.03 0"/><feBlend mode="normal" in2="effect1_dropShadow_8_2646" result="effect2_dropShadow_8_2646"/><feBlend mode="normal" in="SourceGraphic" in2="effect2_dropShadow_8_2646" result="shape"/></filter><clipPath id="clip0_8_2646"><path d="M12 12c0-6.627 5.373-12 12-12h277c6.627 0 12 5.373 12 12v190c0 6.627-5.373 12-12 12H24c-6.627 0-12-5.373-12-12V12z" fill="#fff"/></clipPath></defs></svg>