<svg width="40" height="40" viewBox="0 0 40 40" fill="none" xmlns="http://www.w3.org/2000/svg"><rect x=".5" y=".5" width="39" height="39" rx="19.5" fill="#0062CC"/><rect x=".5" y=".5" width="39" height="39" rx="19.5" stroke="#fff"/><path d="M19.992 10.895a6.014 6.014 0 0 0-6.01 6.009v2.894c0 .61-.26 1.542-.57 2.063l-1.152 1.913c-.711 1.182-.22 2.494 1.082 2.934a20.952 20.952 0 0 0 13.29 0 2.005 2.005 0 0 0 1.081-2.934l-1.152-1.913c-.3-.52-.56-1.452-.56-2.063v-2.894c0-3.305-2.704-6.01-6.01-6.01z" fill="#fff"/><path d="M21.846 11.186a6.763 6.763 0 0 0-3.706 0 1.988 1.988 0 0 1 1.853-1.262c.842 0 1.563.52 1.853 1.262zm1.151 15.884a3.013 3.013 0 0 1-3.004 3.005c-.821 0-1.583-.34-2.123-.881a3.015 3.015 0 0 1-.882-2.124" fill="#fff"/></svg>