<svg width="403" height="543" viewBox="0 0 403 543" fill="none" xmlns="http://www.w3.org/2000/svg"><g clip-path="url(#clip0_2740_22119)"><path d="M396.713 103.018h-.758v-64.36C395.955 17.296 374.328 0 347.701 0H55.299C28.672 0 7.045 17.296 7.045 38.658v64.36h-.758c-3.484 0-6.287 2.245-6.287 5.037v44.514c0 2.792 2.803 5.038 6.287 5.038h.758v10.62h-.758c-3.484 0-6.287 2.245-6.287 5.037v44.515c0 2.791 2.803 5.037 6.287 5.037h.758v389.95c0 21.332 21.59 38.658 48.254 38.658H347.7c26.627 0 48.254-17.296 48.254-38.658v-427.82h.758c3.484 0 6.287-2.245 6.287-5.037v-71.854c0-2.792-2.803-5.037-6.287-5.037z" fill="#333343"/><path d="M345.665 636.848H62.297c-21.7 0-39.297-13.675-39.297-30.541V51.844c0-16.866 17.596-30.541 39.297-30.541h283.406c21.701 0 39.297 13.675 39.297 30.54v554.435c0 16.895-17.596 30.57-39.335 30.57z" fill="#fff"/><path d="M69.679 55.326a.404.404 0 0 1-.28-.09.365.365 0 0 1-.1-.27c0-.113.033-.197.1-.25.067-.06.16-.09.28-.09h1.3v-5.67h.43l-1.45.96a.447.447 0 0 1-.25.06.326.326 0 0 1-.19-.08.48.48 0 0 1-.1-.18.375.375 0 0 1 .18-.42l1.38-.91c.087-.053.17-.097.25-.13.08-.033.16-.05.24-.05.093 0 .17.03.23.09.067.053.1.14.1.26v6.07h1.2c.12 0 .213.03.28.09.067.053.1.137.1.25 0 .12-.033.21-.1.27a.404.404 0 0 1-.28.09h-3.32zm5.736 0c-.147 0-.257-.033-.33-.1a.414.414 0 0 1-.1-.29.47.47 0 0 1 .05-.21c.04-.073.093-.146.16-.22l2.24-2.4c.34-.367.583-.703.73-1.01.153-.313.23-.63.23-.95 0-.4-.123-.703-.37-.91-.24-.213-.593-.32-1.06-.32-.3 0-.583.047-.85.14a2.685 2.685 0 0 0-.77.43c-.087.067-.167.097-.24.09a.316.316 0 0 1-.18-.08.359.359 0 0 1-.11-.18.41.41 0 0 1 0-.22.445.445 0 0 1 .16-.2 3.03 3.03 0 0 1 .94-.51c.367-.133.74-.2 1.12-.2.473 0 .873.074 1.2.22.327.147.573.364.74.65.167.28.25.623.25 1.03 0 .28-.047.557-.14.83-.087.267-.223.54-.41.82-.18.28-.417.57-.71.87l-2.13 2.25v-.23h3.37c.127 0 .22.03.28.09.067.053.1.137.1.25 0 .12-.033.21-.1.27-.06.06-.153.09-.28.09h-3.79zm5.856.04a.54.54 0 0 1-.4-.15.562.562 0 0 1-.15-.4.528.528 0 0 1 .55-.55.49.49 0 0 1 .39.16c.1.1.15.23.15.39s-.05.293-.15.4a.507.507 0 0 1-.39.15zm0-3.84a.522.522 0 0 1-.4-.16.55.55 0 0 1-.15-.39c0-.166.05-.3.15-.4.1-.1.233-.15.4-.15s.297.05.39.15c.1.1.15.233.15.4a.55.55 0 0 1-.15.39.491.491 0 0 1-.39.16zm5.305 3.87a.405.405 0 0 1-.3-.11.42.42 0 0 1-.11-.31v-1.16h-2.87a.52.52 0 0 1-.32-.09.36.36 0 0 1-.11-.28c0-.073.017-.146.05-.22.034-.08.094-.18.18-.3l3.05-4.44a.674.674 0 0 1 .2-.21.474.474 0 0 1 .26-.07c.107 0 .197.033.27.1.08.067.12.174.12.32v4.49h.73c.127 0 .224.03.29.09.067.06.1.147.1.26 0 .114-.033.2-.1.26-.066.06-.163.09-.29.09h-.73v1.16a.42.42 0 0 1-.11.31.42.42 0 0 1-.31.11zm-.41-2.28v-3.88h.24l-2.8 4.1v-.22h2.56zm5.377 2.3c-.38 0-.76-.056-1.14-.17a3.104 3.104 0 0 1-1.02-.53.392.392 0 0 1-.16-.19.355.355 0 0 1-.01-.22.357.357 0 0 1 .11-.18.299.299 0 0 1 .19-.09c.08-.007.163.02.25.08.273.194.556.337.85.43.293.093.6.14.92.14.326 0 .606-.06.84-.18.24-.127.42-.3.54-.52.126-.226.19-.49.19-.79 0-.46-.134-.837-.4-1.13-.267-.293-.634-.44-1.1-.44-.287 0-.55.053-.79.16-.24.107-.46.277-.66.51a.71.71 0 0 1-.17.14.426.426 0 0 1-.21.05.388.388 0 0 1-.27-.09.374.374 0 0 1-.09-.26v-3.48c0-.127.033-.22.1-.28a.38.38 0 0 1 .28-.1h3.4c.126 0 .22.03.28.09.066.06.1.147.1.26 0 .114-.034.2-.1.26-.06.06-.154.09-.28.09h-2.97v2.81h-.22c.173-.28.413-.493.72-.64a2.27 2.27 0 0 1 1.03-.23c.446 0 .83.094 1.15.28.326.187.576.45.75.79.18.334.27.724.27 1.17 0 .44-.097.83-.29 1.17a2.06 2.06 0 0 1-.82.8c-.354.194-.777.29-1.27.29zm4.126-.02a.42.42 0 0 1-.31-.11.484.484 0 0 1-.1-.32v-6.27c0-.14.036-.243.11-.31a.419.419 0 0 1 .31-.11h2.37c.753 0 1.333.187 1.74.56.406.367.61.887.61 1.56 0 .667-.204 1.187-.61 1.56-.407.373-.987.56-1.74.56h-1.97v2.45c0 .133-.034.24-.1.32-.067.073-.17.11-.31.11zm.41-3.57h1.87c.54 0 .946-.12 1.22-.36.28-.247.42-.603.42-1.07 0-.473-.14-.83-.42-1.07-.274-.246-.68-.37-1.22-.37h-1.87v2.87zm5.908 3.57a.378.378 0 0 1-.28-.1.428.428 0 0 1-.1-.3v-6.39c0-.133.033-.233.1-.3a.38.38 0 0 1 .28-.1.4.4 0 0 1 .25.07c.066.04.126.11.18.21l2.74 5.16h-.3l2.73-5.16c.053-.1.11-.17.17-.21a.415.415 0 0 1 .26-.07c.113 0 .203.033.27.1.066.067.1.167.1.3v6.39a.433.433 0 0 1-.1.3c-.06.067-.154.1-.28.1a.378.378 0 0 1-.28-.1.428.428 0 0 1-.1-.3v-5.62h.24l-2.5 4.69a.582.582 0 0 1-.15.19.363.363 0 0 1-.21.05.357.357 0 0 1-.22-.06.49.49 0 0 1-.14-.18l-2.53-4.7h.24v5.63a.433.433 0 0 1-.1.3c-.06.067-.15.1-.27.1zm185.938-.07a.404.404 0 0 1-.28-.09.364.364 0 0 1-.1-.27c0-.113.033-.197.1-.25.067-.06.16-.09.28-.09h1.3v-5.67h.43l-1.45.96a.448.448 0 0 1-.25.06.326.326 0 0 1-.19-.08.477.477 0 0 1-.1-.18.375.375 0 0 1 .18-.42l1.38-.91c.087-.053.17-.097.25-.13.08-.033.16-.05.24-.05.093 0 .17.03.23.09.067.053.1.14.1.26v6.07h1.2c.12 0 .213.03.28.09.067.053.1.137.1.25 0 .12-.033.21-.1.27a.404.404 0 0 1-.28.09h-3.32zm5.736 0c-.147 0-.257-.033-.33-.1a.413.413 0 0 1-.1-.29.47.47 0 0 1 .05-.21c.04-.073.093-.146.16-.22l2.24-2.4c.34-.367.583-.703.73-1.01.153-.313.23-.63.23-.95 0-.4-.123-.703-.37-.91-.24-.213-.593-.32-1.06-.32-.3 0-.583.047-.85.14a2.685 2.685 0 0 0-.77.43c-.087.067-.167.097-.24.09a.315.315 0 0 1-.18-.08.36.36 0 0 1-.11-.18.41.41 0 0 1 0-.22.447.447 0 0 1 .16-.2 3.03 3.03 0 0 1 .94-.51c.367-.133.74-.2 1.12-.2.473 0 .873.074 1.2.22.327.147.573.364.74.65.167.28.25.623.25 1.03 0 .28-.047.557-.14.83-.087.267-.223.54-.41.82-.18.28-.417.57-.71.87l-2.13 2.25v-.23h3.37c.127 0 .22.03.28.09.067.053.1.137.1.25 0 .12-.033.21-.1.27-.06.06-.153.09-.28.09h-3.79zm5.856.04c-.166 0-.3-.05-.4-.15a.562.562 0 0 1-.15-.4.528.528 0 0 1 .55-.55.49.49 0 0 1 .39.16c.1.1.15.23.15.39s-.05.293-.15.4a.506.506 0 0 1-.39.15zm0-3.84a.523.523 0 0 1-.4-.16.55.55 0 0 1-.15-.39c0-.166.05-.3.15-.4.1-.1.234-.15.4-.15.167 0 .297.05.39.15.1.1.15.233.15.4a.55.55 0 0 1-.15.39.49.49 0 0 1-.39.16zm5.306 3.87a.404.404 0 0 1-.3-.11c-.074-.073-.11-.177-.11-.31v-1.16h-2.87a.52.52 0 0 1-.32-.09.357.357 0 0 1-.11-.28c0-.073.016-.146.05-.22.033-.08.093-.18.18-.3l3.05-4.44a.666.666 0 0 1 .2-.21.473.473 0 0 1 .26-.07c.106 0 .196.033.27.1.08.067.12.174.12.32v4.49h.73c.126 0 .223.03.29.09.066.06.1.147.1.26 0 .114-.034.2-.1.26-.067.06-.164.09-.29.09h-.73v1.16a.42.42 0 0 1-.11.31.42.42 0 0 1-.31.11zm-.41-2.28v-3.88h.24l-2.8 4.1v-.22h2.56zm5.376 2.3c-.38 0-.76-.056-1.14-.17a3.092 3.092 0 0 1-1.02-.53.389.389 0 0 1-.16-.19.353.353 0 0 1-.01-.22.353.353 0 0 1 .11-.18.297.297 0 0 1 .19-.09c.08-.007.163.02.25.08.273.194.556.337.85.43.293.093.6.14.92.14.326 0 .606-.06.84-.18.24-.127.42-.3.54-.52a1.6 1.6 0 0 0 .19-.79c0-.46-.134-.837-.4-1.13-.267-.293-.634-.44-1.1-.44-.287 0-.55.053-.79.16-.24.107-.46.277-.66.51a.727.727 0 0 1-.17.14.426.426 0 0 1-.21.05.386.386 0 0 1-.27-.09.374.374 0 0 1-.09-.26v-3.48c0-.127.033-.22.1-.28a.38.38 0 0 1 .28-.1h3.4c.126 0 .22.03.28.09.066.06.1.147.1.26 0 .114-.034.2-.1.26-.06.06-.154.09-.28.09h-2.97v2.81h-.22c.173-.28.413-.493.72-.64.306-.153.65-.23 1.03-.23.446 0 .83.094 1.15.28.326.187.576.45.75.79.18.334.27.724.27 1.17 0 .44-.097.83-.29 1.17-.194.34-.467.607-.82.8-.354.194-.777.29-1.27.29zm4.126-.02a.419.419 0 0 1-.31-.11.482.482 0 0 1-.1-.32v-6.27c0-.14.036-.243.11-.31a.419.419 0 0 1 .31-.11h2.37c.753 0 1.333.187 1.74.56.406.367.61.887.61 1.56 0 .667-.204 1.187-.61 1.56-.407.373-.987.56-1.74.56h-1.97v2.45c0 .133-.034.24-.1.32-.067.073-.17.11-.31.11zm.41-3.57h1.87c.54 0 .946-.12 1.22-.36.28-.247.42-.603.42-1.07 0-.473-.14-.83-.42-1.07-.274-.246-.68-.37-1.22-.37h-1.87v2.87zm5.908 3.57a.38.38 0 0 1-.28-.1.428.428 0 0 1-.1-.3v-6.39c0-.133.033-.233.1-.3.067-.066.16-.1.28-.1.107 0 .19.023.25.07.067.04.127.11.18.21l2.74 5.16h-.3l2.73-5.16c.053-.1.11-.17.17-.21a.417.417 0 0 1 .26-.07c.113 0 .203.033.27.1s.1.167.1.3v6.39a.428.428 0 0 1-.1.3c-.06.067-.153.1-.28.1a.38.38 0 0 1-.28-.1.428.428 0 0 1-.1-.3v-5.62h.24l-2.5 4.69a.582.582 0 0 1-.15.19.363.363 0 0 1-.21.05.36.36 0 0 1-.22-.06.501.501 0 0 1-.14-.18l-2.53-4.7h.24v5.63a.428.428 0 0 1-.1.3c-.06.067-.15.1-.27.1z" fill="#000"/><path d="M142.031 12.5h118.937v25.75a8 8 0 0 1-8 8H150.031a8 8 0 0 1-8-8V12.5z" fill="#333343"/><path d="M180.137 32.5h41.57" stroke="#9CABB8" stroke-width="4" stroke-linecap="round"/><path d="M153.578 32.5h1.155" stroke="#9CABB8" stroke-width="8" stroke-linecap="round"/><path d="M250.574 32.5h1.155m-9.237 0h1.155" stroke="#9CABB8" stroke-width="4" stroke-linecap="round"/><path d="M179.29 91.116a.885.885 0 0 1 .168.49.65.65 0 0 1-.266.532.91.91 0 0 1-.602.21c-.149 0-.294-.033-.434-.098a.996.996 0 0 1-.336-.322l-1.862-2.828c-.187-.299-.387-.509-.602-.63-.205-.121-.476-.182-.812-.182h-1.372v3.136c0 .28-.079.504-.238.672-.159.159-.373.238-.644.238s-.49-.08-.658-.238c-.159-.168-.238-.392-.238-.672v-8.19c0-.27.075-.48.224-.63.159-.15.373-.224.644-.224h3.5c1.12 0 1.969.252 2.548.756.588.495.882 1.213.882 2.156 0 .765-.219 1.395-.658 1.89-.429.485-1.041.798-1.834.938.271.065.509.182.714.35.205.168.406.401.602.7l1.274 1.946zm-3.78-4.214c.681 0 1.181-.126 1.498-.378.317-.261.476-.658.476-1.19 0-.541-.159-.933-.476-1.176-.317-.252-.817-.378-1.498-.378h-2.352v3.122h2.352zm10.882 3.472a.45.45 0 0 1 .378.182c.103.121.154.285.154.49 0 .29-.172.532-.518.728a4.63 4.63 0 0 1-2.226.588c-1.101 0-1.974-.317-2.618-.952-.644-.635-.966-1.503-.966-2.604 0-.7.14-1.32.42-1.862.28-.541.672-.961 1.176-1.26a3.39 3.39 0 0 1 1.736-.448c.616 0 1.153.135 1.61.406.458.27.812.653 1.064 1.148.252.495.378 1.078.378 1.75 0 .401-.177.602-.532.602h-4.13c.056.644.238 1.12.546 1.428.308.299.756.448 1.344.448.299 0 .56-.037.784-.112.234-.075.495-.177.784-.308.28-.15.486-.224.616-.224zm-2.422-3.906c-.476 0-.858.15-1.148.448-.28.299-.448.728-.504 1.288h3.164c-.018-.57-.158-.999-.42-1.288-.261-.299-.625-.448-1.092-.448zm12.576-1.232c.746 0 1.316.224 1.708.672.401.439.602 1.153.602 2.142v3.444c0 .27-.084.48-.252.63-.159.14-.369.21-.63.21a.95.95 0 0 1-.63-.21c-.159-.15-.238-.36-.238-.63V88.05c0-.513-.094-.877-.28-1.092-.178-.224-.453-.336-.826-.336-.458 0-.822.159-1.092.476-.271.308-.406.733-.406 1.274v3.122c0 .27-.084.48-.252.63-.159.14-.364.21-.616.21a.95.95 0 0 1-.63-.21c-.168-.15-.252-.36-.252-.63V88.05c0-.513-.094-.877-.28-1.092-.178-.224-.453-.336-.826-.336-.458 0-.822.159-1.092.476-.262.308-.392.733-.392 1.274v3.122c0 .27-.084.48-.252.63a.95.95 0 0 1-.63.21.95.95 0 0 1-.63-.21c-.159-.15-.238-.36-.238-.63v-5.418c0-.261.084-.462.252-.602a.95.95 0 0 1 .63-.21c.242 0 .438.07.588.21.158.13.238.322.238.574v.336c.214-.373.499-.658.854-.854a2.586 2.586 0 0 1 1.246-.294c1.026 0 1.712.43 2.058 1.288.205-.392.508-.705.91-.938.401-.233.854-.35 1.358-.35zm4.956 7.098a.95.95 0 0 1-.63-.21c-.158-.15-.238-.36-.238-.63V86.09c0-.27.08-.476.238-.616a.95.95 0 0 1 .63-.21.95.95 0 0 1 .63.21c.168.14.252.345.252.616v5.404c0 .27-.084.48-.252.63a.95.95 0 0 1-.63.21zm0-8.316c-.317 0-.569-.084-.756-.252a.906.906 0 0 1-.28-.686c0-.28.094-.504.28-.672.187-.168.439-.252.756-.252.308 0 .556.084.742.252a.84.84 0 0 1 .294.672c0 .28-.093.509-.28.686-.186.168-.438.252-.756.252zm6.663 1.218c.821 0 1.433.233 1.834.7.401.467.602 1.171.602 2.114v3.444c0 .261-.079.467-.238.616-.149.15-.359.224-.63.224s-.485-.075-.644-.224c-.159-.15-.238-.355-.238-.616v-3.346c0-.532-.103-.92-.308-1.162-.196-.243-.509-.364-.938-.364-.504 0-.91.159-1.218.476-.299.317-.448.742-.448 1.274v3.122c0 .261-.079.467-.238.616-.159.15-.373.224-.644.224s-.485-.075-.644-.224c-.149-.15-.224-.355-.224-.616v-5.418c0-.243.079-.439.238-.588.159-.15.373-.224.644-.224.243 0 .439.075.588.224a.71.71 0 0 1 .238.56v.378a2.36 2.36 0 0 1 .938-.882 2.822 2.822 0 0 1 1.33-.308zm9.926-2.926c.261 0 .476.075.644.224a.75.75 0 0 1 .252.588v8.372c0 .252-.08.453-.238.602-.159.15-.369.224-.63.224-.262 0-.472-.075-.63-.224-.159-.15-.238-.35-.238-.602v-.35a2.185 2.185 0 0 1-.896.896 2.646 2.646 0 0 1-1.316.322 2.87 2.87 0 0 1-1.582-.448c-.458-.299-.817-.719-1.078-1.26-.252-.55-.378-1.18-.378-1.89s.126-1.33.378-1.862c.261-.532.62-.943 1.078-1.232.457-.29.984-.434 1.582-.434.494 0 .933.103 1.316.308.382.205.676.495.882.868v-3.318a.73.73 0 0 1 .224-.56c.158-.15.368-.224.63-.224zm-2.59 8.694c.56 0 .989-.191 1.288-.574.308-.383.462-.929.462-1.638 0-.71-.154-1.25-.462-1.624-.299-.383-.724-.574-1.274-.574-.56 0-.994.187-1.302.56-.308.373-.462.91-.462 1.61 0 .71.154 1.26.462 1.652.308.392.737.588 1.288.588zm10.704-.63c.158 0 .284.06.378.182.102.121.154.285.154.49 0 .29-.173.532-.518.728a4.636 4.636 0 0 1-2.226.588c-1.102 0-1.974-.317-2.618-.952-.644-.635-.966-1.503-.966-2.604 0-.7.14-1.32.42-1.862.28-.541.672-.961 1.176-1.26a3.387 3.387 0 0 1 1.736-.448c.616 0 1.152.135 1.61.406.457.27.812.653 1.064 1.148.252.495.378 1.078.378 1.75 0 .401-.178.602-.532.602h-4.13c.056.644.238 1.12.546 1.428.308.299.756.448 1.344.448.298 0 .56-.037.784-.112.233-.075.494-.177.784-.308.28-.15.485-.224.616-.224zm-2.422-3.906c-.476 0-.859.15-1.148.448-.28.299-.448.728-.504 1.288h3.164c-.019-.57-.159-.999-.42-1.288-.262-.299-.626-.448-1.092-.448zm8.263-1.204c.243-.019.434.033.574.154.14.121.21.303.21.546 0 .252-.06.439-.182.56-.121.121-.34.2-.658.238l-.42.042c-.55.056-.956.243-1.218.56-.252.317-.378.714-.378 1.19v2.94c0 .27-.084.48-.252.63a.95.95 0 0 1-.63.21.95.95 0 0 1-.63-.21c-.158-.15-.238-.36-.238-.63v-5.418c0-.261.08-.462.238-.602a.931.931 0 0 1 .616-.21c.243 0 .439.07.588.21.15.13.224.322.224.574v.56c.178-.41.439-.728.784-.952a2.47 2.47 0 0 1 1.176-.378l.196-.014z" fill="#000"/><path d="M47.345 78.75l-8.083 8.75 8.083 8.75" stroke="#2E2E2E"/><rect x="27.5" y="132.5" width="354.344" height="162.697" rx="9.5" fill="#fff"/><rect x="27.5" y="132.5" width="354.344" height="162.697" rx="9.5" stroke="#D2D6D9"/><rect x="35.5" y="140.5" width="39" height="39" rx="19.5" fill="#5AF0A2"/><rect x="35.5" y="140.5" width="39" height="39" rx="19.5" stroke="#fff"/><path d="M54.992 150.895a6.014 6.014 0 0 0-6.01 6.009v2.894c0 .611-.26 1.542-.57 2.063l-1.152 1.913c-.711 1.182-.22 2.494 1.082 2.934a20.955 20.955 0 0 0 13.29 0 2.005 2.005 0 0 0 1.081-2.934l-1.151-1.913c-.3-.521-.561-1.452-.561-2.063v-2.894c0-3.305-2.704-6.009-6.01-6.009z" fill="#fff"/><path d="M56.846 151.186a6.756 6.756 0 0 0-3.706 0 1.989 1.989 0 0 1 1.853-1.262c.842 0 1.563.521 1.853 1.262zm1.151 15.884a3.013 3.013 0 0 1-3.004 3.005 3.012 3.012 0 0 1-3.005-3.005" fill="#fff"/><path d="M79.98 146.13h3.836c1.073 0 1.997.196 2.772.588a4.107 4.107 0 0 1 1.778 1.694c.41.737.616 1.619.616 2.646s-.205 1.913-.616 2.66a4.024 4.024 0 0 1-1.764 1.694c-.775.392-1.703.588-2.786.588H79.98v-9.87zm3.682 8.106c2.1 0 3.15-1.059 3.15-3.178 0-2.109-1.05-3.164-3.15-3.164h-1.498v6.342h1.498zm13.45-5.11V156h-2.058v-.98c-.215.355-.5.625-.854.812a2.43 2.43 0 0 1-1.176.28c-.868 0-1.517-.238-1.946-.714-.42-.485-.63-1.213-.63-2.184v-4.088h2.114v4.13c0 .411.084.714.252.91.177.196.443.294.798.294.41 0 .742-.14.994-.42.261-.28.392-.649.392-1.106v-3.808h2.114zm7.81 3.836h-4.48c.065.551.243.952.532 1.204.299.243.719.364 1.26.364.355 0 .705-.056 1.05-.168.355-.121.677-.289.966-.504l.56 1.414a3.815 3.815 0 0 1-1.232.616 4.804 4.804 0 0 1-1.442.224c-1.157 0-2.072-.317-2.744-.952-.663-.644-.994-1.517-.994-2.618 0-.7.145-1.321.434-1.862.29-.541.69-.961 1.204-1.26.513-.308 1.097-.462 1.75-.462.961 0 1.722.313 2.282.938.569.625.854 1.475.854 2.548v.518zm-3.08-2.548c-.401 0-.723.131-.966.392-.233.252-.378.621-.434 1.106h2.702c-.028-.495-.154-.868-.378-1.12-.215-.252-.523-.378-.924-.378zm7.003 5.698c-.635 0-1.218-.07-1.75-.21a4.42 4.42 0 0 1-1.358-.63l.56-1.456c.373.252.784.448 1.232.588.448.14.9.21 1.358.21.326 0 .578-.051.756-.154.186-.112.28-.261.28-.448a.455.455 0 0 0-.196-.392c-.122-.093-.355-.177-.7-.252l-1.12-.252c-.663-.149-1.153-.378-1.47-.686-.308-.317-.462-.747-.462-1.288 0-.429.121-.807.364-1.134.252-.327.602-.583 1.05-.77.457-.187.975-.28 1.554-.28.494 0 .975.075 1.442.224a4.43 4.43 0 0 1 1.26.63l-.56 1.4c-.728-.504-1.447-.756-2.156-.756-.327 0-.584.056-.77.168a.527.527 0 0 0-.28.476c0 .149.056.266.168.35.112.084.308.163.588.238l1.162.266c.7.159 1.208.401 1.526.728.326.317.49.751.49 1.302 0 .663-.266 1.185-.798 1.568-.523.373-1.246.56-2.17.56zm16.822-.112h-2.38l-1.708-3.15c-.14-.243-.308-.415-.504-.518-.196-.112-.443-.168-.742-.168h-1.078V156h-2.156v-9.87h4.536c1.157 0 2.03.257 2.618.77.597.504.896 1.237.896 2.198 0 .747-.21 1.372-.63 1.876-.411.504-.994.835-1.75.994.513.131.947.499 1.302 1.106l1.596 2.926zm-4.354-5.488c.625 0 1.078-.107 1.358-.322.28-.224.42-.569.42-1.036 0-.476-.14-.821-.42-1.036-.28-.215-.733-.322-1.358-.322h-2.086v2.716h2.086zm11.623 2.45h-4.48c.065.551.242.952.532 1.204.298.243.718.364 1.26.364a3.39 3.39 0 0 0 1.05-.168c.354-.121.676-.289.966-.504l.56 1.414a3.815 3.815 0 0 1-1.232.616 4.804 4.804 0 0 1-1.442.224c-1.158 0-2.072-.317-2.744-.952-.663-.644-.994-1.517-.994-2.618 0-.7.144-1.321.434-1.862a3.13 3.13 0 0 1 1.204-1.26c.513-.308 1.096-.462 1.75-.462.961 0 1.722.313 2.282.938.569.625.854 1.475.854 2.548v.518zm-3.08-2.548c-.402 0-.724.131-.966.392-.234.252-.378.621-.434 1.106h2.702c-.028-.495-.154-.868-.378-1.12-.215-.252-.523-.378-.924-.378zm12.826-1.456c.784 0 1.368.238 1.75.714.383.476.574 1.204.574 2.184V156h-2.114v-4.074c0-.467-.074-.803-.224-1.008-.14-.205-.382-.308-.728-.308-.401 0-.714.14-.938.42-.224.28-.336.672-.336 1.176V156h-2.114v-4.074c0-.467-.074-.803-.224-1.008-.14-.205-.382-.308-.728-.308-.401 0-.714.14-.938.42-.224.28-.336.672-.336 1.176V156h-2.114v-6.874h2.058v.924c.215-.355.5-.625.854-.812a2.69 2.69 0 0 1 1.246-.28c1.018 0 1.699.425 2.044 1.274.224-.392.537-.7.938-.924.402-.233.845-.35 1.33-.35zm3.917.168h2.114V156h-2.114v-6.874zm2.198-3.304v1.974h-2.268v-1.974h2.268zm5.847 3.136c.821 0 1.432.243 1.834.728.401.476.602 1.199.602 2.17V156h-2.114v-4.046c0-.467-.089-.807-.266-1.022-.168-.215-.434-.322-.798-.322-.439 0-.794.14-1.064.42-.262.28-.392.653-.392 1.12V156h-2.114v-6.874h2.058v.98c.242-.373.555-.658.938-.854a2.9 2.9 0 0 1 1.316-.294zm10.972-2.828V156h-2.1v-1.022c-.206.355-.5.635-.882.84a2.701 2.701 0 0 1-1.274.294 2.867 2.867 0 0 1-1.582-.448 3.14 3.14 0 0 1-1.078-1.274c-.252-.551-.378-1.181-.378-1.89 0-.709.126-1.33.378-1.862.261-.541.62-.957 1.078-1.246.457-.289.984-.434 1.582-.434.466 0 .886.098 1.26.294.382.196.676.471.882.826v-3.948h2.114zm-3.64 8.372c.494 0 .872-.168 1.134-.504.27-.345.406-.835.406-1.47s-.136-1.12-.406-1.456c-.262-.336-.64-.504-1.134-.504-.495 0-.878.168-1.148.504-.271.327-.406.803-.406 1.428 0 .635.135 1.129.406 1.484.27.345.653.518 1.148.518zm11.456-1.54h-4.48c.065.551.242.952.532 1.204.298.243.718.364 1.26.364a3.39 3.39 0 0 0 1.05-.168c.354-.121.676-.289.966-.504l.56 1.414a3.815 3.815 0 0 1-1.232.616 4.804 4.804 0 0 1-1.442.224c-1.158 0-2.072-.317-2.744-.952-.663-.644-.994-1.517-.994-2.618 0-.7.144-1.321.434-1.862a3.13 3.13 0 0 1 1.204-1.26c.513-.308 1.096-.462 1.75-.462.961 0 1.722.313 2.282.938.569.625.854 1.475.854 2.548v.518zm-3.08-2.548c-.402 0-.724.131-.966.392-.234.252-.378.621-.434 1.106h2.702c-.028-.495-.154-.868-.378-1.12-.215-.252-.523-.378-.924-.378zm9.27.28l-1.19.126c-.588.056-1.003.224-1.246.504-.242.271-.364.635-.364 1.092V156h-2.114v-6.874h2.03v1.162c.346-.793 1.06-1.227 2.142-1.302l.616-.042.126 1.75z" fill="#000"/><path d="M80.728 174v-.84h1.932v-6.432l-1.524.96-.42-.732 2.22-1.416h.708v7.62h1.812v.84h-4.728zm9.308.108c-.969 0-1.704-.372-2.209-1.116-.504-.744-.755-1.82-.755-3.228 0-1.416.251-2.492.755-3.228.505-.736 1.24-1.104 2.209-1.104.975 0 1.712.368 2.207 1.104.505.728.757 1.8.757 3.216 0 1.416-.257 2.496-.769 3.24-.503.744-1.235 1.116-2.195 1.116zm0-.852c.671 0 1.168-.284 1.487-.852.329-.568.493-1.452.493-2.652 0-1.2-.16-2.076-.48-2.628-.32-.56-.82-.84-1.5-.84-.672 0-1.172.28-1.5.84-.32.56-.48 1.436-.48 2.628 0 1.2.16 2.084.48 2.652.328.568.828.852 1.5.852zm4.35-3.864v-1.224h1.225v1.224h-1.224zm0 4.608v-1.224h1.225V174h-1.224zm5.575.108c-.968 0-1.704-.372-2.208-1.116-.504-.744-.756-1.82-.756-3.228 0-1.416.252-2.492.756-3.228.504-.736 1.24-1.104 2.208-1.104.976 0 1.712.368 2.208 1.104.504.728.756 1.8.756 3.216 0 1.416-.256 2.496-.768 3.24-.504.744-1.236 1.116-2.196 1.116zm0-.852c.672 0 1.168-.284 1.488-.852.328-.568.492-1.452.492-2.652 0-1.2-.16-2.076-.48-2.628-.32-.56-.82-.84-1.5-.84-.672 0-1.172.28-1.5.84-.32.56-.48 1.436-.48 2.628 0 1.2.16 2.084.48 2.652.328.568.828.852 1.5.852zm7.196.852c-.968 0-1.704-.372-2.208-1.116-.504-.744-.756-1.82-.756-3.228 0-1.416.252-2.492.756-3.228.504-.736 1.24-1.104 2.208-1.104.976 0 1.712.368 2.208 1.104.504.728.756 1.8.756 3.216 0 1.416-.256 2.496-.768 3.24-.504.744-1.236 1.116-2.196 1.116zm0-.852c.672 0 1.168-.284 1.488-.852.328-.568.492-1.452.492-2.652 0-1.2-.16-2.076-.48-2.628-.32-.56-.82-.84-1.5-.84-.672 0-1.172.28-1.5.84-.32.56-.48 1.436-.48 2.628 0 1.2.16 2.084.48 2.652.328.568.828.852 1.5.852zm3.823.744l3.732-8.46h.84l3.732 8.46h-1.02l-.936-2.16h-4.404L112 174h-1.02zm4.14-7.308l-1.836 4.32h3.696l-1.836-4.32h-.024zm5.442 7.308v-8.46h.828l3.252 6.108 3.228-6.108h.828V174h-.912v-6.612l-2.82 5.304h-.648l-2.856-5.292v6.6h-.9z" fill="#9CABB8"/><rect x="308" y="140" width="55" height="18" rx="9" fill="#FFD7D5"/><path d="M313.87 152v-7.05h.82V152h-.82zm2.469 0v-4.86h.79v.82c.146-.293.35-.517.61-.67a1.7 1.7 0 0 1 .91-.24c.76 0 1.246.33 1.46.99a1.65 1.65 0 0 1 .65-.72c.286-.18.616-.27.99-.27 1.08 0 1.62.64 1.62 1.92V152h-.81v-2.99c0-.447-.08-.773-.24-.98-.154-.213-.41-.32-.77-.32-.394 0-.707.14-.94.42-.234.28-.35.653-.35 1.12V152h-.81v-2.99c0-.447-.08-.773-.24-.98-.154-.213-.41-.32-.77-.32-.4 0-.717.14-.95.42-.227.28-.34.653-.34 1.12V152h-.81zm8.544 1.8v-6.66h.79v.87c.147-.3.363-.533.65-.7.293-.173.633-.26 1.02-.26.433 0 .81.103 1.13.31.327.2.577.49.75.87.18.373.27.82.27 1.34 0 .513-.09.96-.27 1.34a1.996 1.996 0 0 1-.75.87c-.32.207-.697.31-1.13.31-.373 0-.707-.083-1-.25a1.552 1.552 0 0 1-.65-.69v2.65h-.81zm2.29-2.36c.453 0 .817-.16 1.09-.48.273-.327.41-.79.41-1.39 0-.607-.137-1.07-.41-1.39-.273-.32-.637-.48-1.09-.48-.453 0-.817.16-1.09.48-.273.32-.41.783-.41 1.39 0 .6.137 1.063.41 1.39.273.32.637.48 1.09.48zm5.56.65c-.473 0-.883-.103-1.23-.31a2.128 2.128 0 0 1-.81-.87c-.187-.38-.28-.827-.28-1.34 0-.513.093-.957.28-1.33.193-.38.463-.673.81-.88.347-.207.757-.31 1.23-.31.467 0 .873.103 1.22.31.353.207.623.5.81.88.193.373.29.817.29 1.33 0 .513-.097.96-.29 1.34a2.052 2.052 0 0 1-.81.87c-.347.207-.753.31-1.22.31zm0-.65c.453 0 .817-.16 1.09-.48.273-.327.41-.79.41-1.39 0-.607-.137-1.07-.41-1.39-.273-.32-.637-.48-1.09-.48-.46 0-.827.16-1.1.48-.267.32-.4.783-.4 1.39 0 .6.133 1.063.4 1.39.273.32.64.48 1.1.48zm3.537.56v-4.86h.79v.87c.26-.587.793-.91 1.6-.97l.29-.03.06.7-.51.06c-.46.04-.81.187-1.05.44-.24.247-.36.587-.36 1.02V152h-.82zm5.797.09c-.573 0-1.003-.15-1.29-.45-.286-.307-.43-.747-.43-1.32v-2.55h-.95v-.63h.95v-1.49h.81v1.49h1.54v.63h-1.54v2.47c0 .38.08.67.24.87.16.193.42.29.78.29.107 0 .214-.013.32-.04a5.39 5.39 0 0 0 .29-.08l.14.62c-.086.047-.213.09-.38.13-.166.04-.326.06-.48.06zm3.077 0c-.334 0-.634-.063-.9-.19a1.622 1.622 0 0 1-.62-.54 1.322 1.322 0 0 1-.23-.76c0-.353.09-.633.27-.84.186-.207.49-.353.91-.44.426-.093 1.006-.14 1.74-.14h.32v-.31c0-.413-.087-.71-.26-.89-.167-.187-.437-.28-.81-.28a2.78 2.78 0 0 0-.85.13c-.274.08-.554.213-.84.4l-.28-.59c.253-.18.56-.323.92-.43a3.74 3.74 0 0 1 1.05-.16c.626 0 1.09.153 1.39.46.306.307.46.783.46 1.43V152h-.76v-.84a1.506 1.506 0 0 1-.59.68c-.26.167-.567.25-.92.25zm.13-.61c.4 0 .726-.137.98-.41.253-.28.38-.633.38-1.06v-.3h-.31c-.54 0-.967.027-1.28.08-.307.047-.524.133-.65.26-.12.12-.18.287-.18.5 0 .273.093.497.28.67.193.173.453.26.78.26zm3.642.52v-4.86h.79v.83a1.58 1.58 0 0 1 .68-.69c.294-.153.624-.23.99-.23 1.154 0 1.73.64 1.73 1.92V152h-.81v-2.98c0-.453-.09-.783-.27-.99-.173-.213-.453-.32-.84-.32-.446 0-.803.14-1.07.42-.26.273-.39.64-.39 1.1V152h-.81zm7.634.09c-.573 0-1.003-.15-1.29-.45-.287-.307-.43-.747-.43-1.32v-2.55h-.95v-.63h.95v-1.49h.81v1.49h1.54v.63h-1.54v2.47c0 .38.08.67.24.87.16.193.42.29.78.29.107 0 .213-.013.32-.04a5.66 5.66 0 0 0 .29-.08l.14.62c-.087.047-.213.09-.38.13a2.06 2.06 0 0 1-.48.06z" fill="#ED1B2E"/><path d="M43.052 196.54V205h-.972v-3.876h-5.064V205h-.972v-8.46h.972v3.744h5.064v-3.744h.972zm6.838 5.688h-4.272c.032.68.216 1.196.552 1.548.336.344.812.516 1.428.516.68 0 1.304-.232 1.872-.696l.324.708c-.256.24-.584.432-.984.576-.4.136-.808.204-1.224.204-.912 0-1.632-.268-2.16-.804-.52-.536-.78-1.276-.78-2.22 0-.6.116-1.128.348-1.584.232-.464.556-.824.972-1.08a2.731 2.731 0 0 1 1.44-.384c.776 0 1.384.256 1.824.768.44.504.66 1.2.66 2.088v.36zm-2.472-2.46c-.512 0-.924.16-1.236.48-.304.32-.484.772-.54 1.356h3.396c-.016-.592-.164-1.044-.444-1.356-.28-.32-.672-.48-1.176-.48zm3.904-3.228h.972V205h-.972v-8.46zm2.789 0h.972V205h-.972v-8.46zm5.213 8.544c-.552 0-1.04-.124-1.464-.372-.416-.248-.74-.6-.972-1.056-.224-.464-.336-1-.336-1.608 0-.608.112-1.14.336-1.596.232-.464.556-.82.972-1.068.424-.248.912-.372 1.464-.372.552 0 1.04.124 1.464.372.424.248.748.604.972 1.068.232.456.348.988.348 1.596 0 .608-.116 1.144-.348 1.608a2.438 2.438 0 0 1-.972 1.056c-.424.248-.912.372-1.464.372zm0-.804c.576 0 1.016-.188 1.32-.564.312-.384.468-.94.468-1.668 0-.712-.156-1.26-.468-1.644-.312-.392-.752-.588-1.32-.588-.568 0-1.008.196-1.32.588-.312.384-.468.932-.468 1.644 0 .72.152 1.272.456 1.656.312.384.756.576 1.332.576zm7.734-7.74h2.364v.768h-1.404v9.084h1.404v.768h-2.364v-10.62zm11.501 0V205h-.9l.012-6.552-2.748 5.208h-.696l-2.76-5.16.012 6.504h-.912v-8.46h.816l3.204 6.132 3.168-6.132h.804zm6.85 5.688h-4.272c.032.68.216 1.196.552 1.548.336.344.812.516 1.428.516.68 0 1.304-.232 1.872-.696l.324.708c-.256.24-.584.432-.984.576-.4.136-.808.204-1.224.204-.912 0-1.632-.268-2.16-.804-.52-.536-.78-1.276-.78-2.22 0-.6.116-1.128.348-1.584.232-.464.556-.824.972-1.08a2.731 2.731 0 0 1 1.44-.384c.776 0 1.384.256 1.824.768.44.504.66 1.2.66 2.088v.36zm-2.472-2.46c-.512 0-.924.16-1.236.48-.304.32-.484.772-.54 1.356h3.396c-.016-.592-.164-1.044-.444-1.356-.28-.32-.672-.48-1.176-.48zm10.408-.756c1.296 0 1.944.772 1.944 2.316V205h-.972v-3.624c0-.536-.096-.928-.288-1.176-.184-.248-.484-.372-.9-.372-.488 0-.872.164-1.152.492-.28.328-.42.776-.42 1.344V205h-.972v-3.624c0-.544-.096-.936-.288-1.176-.192-.248-.496-.372-.912-.372-.488 0-.872.164-1.152.492-.28.328-.42.776-.42 1.344V205h-.972v-5.844h.96v.924c.176-.344.42-.608.732-.792a2.086 2.086 0 0 1 1.08-.276c.904 0 1.5.384 1.788 1.152.168-.36.424-.64.768-.84a2.228 2.228 0 0 1 1.176-.312zm6.655 0c.512 0 .964.124 1.356.372.392.248.696.6.912 1.056.216.456.324.984.324 1.584 0 .608-.108 1.144-.324 1.608-.216.456-.52.812-.912 1.068a2.424 2.424 0 0 1-1.356.384c-.456 0-.856-.1-1.2-.3a1.939 1.939 0 0 1-.768-.852V205h-.972v-8.46h.972v3.624c.176-.368.432-.652.768-.852.344-.2.744-.3 1.2-.3zm-.192 5.268c.568 0 1.008-.196 1.32-.588.312-.4.468-.956.468-1.668 0-.696-.156-1.236-.468-1.62-.312-.384-.752-.576-1.32-.576-.568 0-1.008.192-1.32.576-.304.384-.456.932-.456 1.644 0 .712.152 1.264.456 1.656.312.384.752.576 1.32.576zm9.133-2.052h-4.272c.032.68.216 1.196.552 1.548.336.344.812.516 1.428.516.68 0 1.304-.232 1.872-.696l.324.708c-.256.24-.584.432-.984.576-.4.136-.808.204-1.224.204-.912 0-1.632-.268-2.16-.804-.52-.536-.78-1.276-.78-2.22 0-.6.116-1.128.348-1.584.232-.464.556-.824.972-1.08a2.731 2.731 0 0 1 1.44-.384c.776 0 1.384.256 1.824.768.44.504.66 1.2.66 2.088v.36zm-2.472-2.46c-.512 0-.924.16-1.236.48-.304.32-.484.772-.54 1.356h3.396c-.016-.592-.164-1.044-.444-1.356-.28-.32-.672-.48-1.176-.48zm7.216.084l-.636.06c-.6.056-1.036.244-1.308.564-.264.32-.396.716-.396 1.188V205h-.972v-5.844h.948v1.02c.328-.68.972-1.06 1.932-1.14l.348-.024.084.84zm10.936-3.312V205h-.756l-5.1-6.804V205h-.924v-8.46h.756l5.1 6.804v-6.804h.924zm4.323 2.472c.744 0 1.296.192 1.656.576.368.376.552.952.552 1.728V205h-.948v-.996a1.751 1.751 0 0 1-.696.804 2.086 2.086 0 0 1-1.08.276c-.376 0-.724-.076-1.044-.228a1.864 1.864 0 0 1-.744-.636 1.572 1.572 0 0 1-.276-.9c0-.44.112-.78.336-1.02.224-.248.592-.424 1.104-.528.512-.112 1.224-.168 2.136-.168h.264v-.396c0-.488-.1-.84-.3-1.056-.2-.224-.524-.336-.972-.336-.672 0-1.34.208-2.004.624l-.324-.708a3.734 3.734 0 0 1 1.092-.516 4.15 4.15 0 0 1 1.248-.204zm-.384 5.304c.48 0 .872-.16 1.176-.48.312-.328.468-.748.468-1.26v-.348h-.216c-.704 0-1.24.032-1.608.096-.368.056-.632.156-.792.3-.152.136-.228.34-.228.612 0 .312.112.572.336.78.232.2.52.3.864.3zm10.875-5.304c1.296 0 1.944.772 1.944 2.316V205h-.972v-3.624c0-.536-.096-.928-.288-1.176-.184-.248-.484-.372-.9-.372-.488 0-.872.164-1.152.492-.28.328-.42.776-.42 1.344V205h-.972v-3.624c0-.544-.096-.936-.288-1.176-.192-.248-.496-.372-.912-.372-.488 0-.872.164-1.152.492-.28.328-.42.776-.42 1.344V205h-.972v-5.844h.96v.924c.176-.344.42-.608.732-.792a2.086 2.086 0 0 1 1.08-.276c.904 0 1.5.384 1.788 1.152.168-.36.424-.64.768-.84a2.228 2.228 0 0 1 1.176-.312zm8.611 3.216h-4.272c.032.68.216 1.196.552 1.548.336.344.812.516 1.428.516.68 0 1.304-.232 1.872-.696l.324.708c-.256.24-.584.432-.984.576-.4.136-.808.204-1.224.204-.912 0-1.632-.268-2.16-.804-.52-.536-.78-1.276-.78-2.22 0-.6.116-1.128.348-1.584.232-.464.556-.824.972-1.08a2.731 2.731 0 0 1 1.44-.384c.776 0 1.384.256 1.824.768.44.504.66 1.2.66 2.088v.36zm-2.472-2.46c-.512 0-.924.16-1.236.48-.304.32-.484.772-.54 1.356h3.396c-.016-.592-.164-1.044-.444-1.356-.28-.32-.672-.48-1.176-.48zm3.018 7.392v-.768h1.404v-9.084h-1.404v-.768h2.364v10.62h-2.364zm5.658-3.384v.864c0 .336-.056.64-.168.912-.104.28-.288.552-.552.816l-.456-.348c.312-.344.488-.684.528-1.02h-.576v-1.224h1.224zm1.064.48l.72-.048c.4-.032.708-.172.924-.42.224-.256.336-.604.336-1.044v-6.204h.984v6.216c0 .696-.18 1.24-.54 1.632-.36.392-.884.608-1.572.648l-.78.048-.072-.828zm9.83-5.1V205h-.948v-.996c-.184.352-.444.62-.78.804-.328.184-.7.276-1.116.276-.696 0-1.22-.192-1.572-.576-.352-.392-.528-.968-.528-1.728v-3.624h.972v3.6c0 .52.104.904.312 1.152.208.24.536.36.984.36.512 0 .924-.164 1.236-.492.312-.336.468-.776.468-1.32v-3.3h.972zm4.747-.144c1.4 0 2.1.772 2.1 2.316V205h-.972v-3.612c0-.544-.108-.94-.324-1.188-.208-.248-.544-.372-1.008-.372-.536 0-.964.164-1.284.492-.32.328-.48.772-.48 1.332V205h-.972v-5.844h.96v.96c.192-.36.46-.632.804-.816a2.372 2.372 0 0 1 1.176-.288zm8.776 3.216h-4.272c.032.68.216 1.196.552 1.548.336.344.812.516 1.428.516.68 0 1.304-.232 1.872-.696l.324.708c-.256.24-.584.432-.984.576-.4.136-.808.204-1.224.204-.912 0-1.632-.268-2.16-.804-.52-.536-.78-1.276-.78-2.22 0-.6.116-1.128.348-1.584.232-.464.556-.824.972-1.08a2.731 2.731 0 0 1 1.44-.384c.776 0 1.384.256 1.824.768.44.504.66 1.2.66 2.088v.36zm-2.472-2.46c-.512 0-.924.16-1.236.48-.304.32-.484.772-.54 1.356h3.396c-.016-.592-.164-1.044-.444-1.356-.28-.32-.672-.48-1.176-.48zm15.134-3.228V205h-.9l.012-6.552-2.748 5.208h-.696l-2.76-5.16.012 6.504h-.912v-8.46h.816l3.204 6.132 3.168-6.132h.804zm4.378 8.544c-.552 0-1.04-.124-1.464-.372-.416-.248-.74-.6-.972-1.056-.224-.464-.336-1-.336-1.608 0-.608.112-1.14.336-1.596.232-.464.556-.82.972-1.068.424-.248.912-.372 1.464-.372.552 0 1.04.124 1.464.372.424.248.748.604.972 1.068.232.456.348.988.348 1.596 0 .608-.116 1.144-.348 1.608a2.438 2.438 0 0 1-.972 1.056c-.424.248-.912.372-1.464.372zm0-.804c.576 0 1.016-.188 1.32-.564.312-.384.468-.94.468-1.668 0-.712-.156-1.26-.468-1.644-.312-.392-.752-.588-1.32-.588-.568 0-1.008.196-1.32.588-.312.384-.468.932-.468 1.644 0 .72.152 1.272.456 1.656.312.384.756.576 1.332.576zm7.172-5.268c1.4 0 2.1.772 2.1 2.316V205h-.972v-3.612c0-.544-.108-.94-.324-1.188-.208-.248-.544-.372-1.008-.372-.536 0-.964.164-1.284.492-.32.328-.48.772-.48 1.332V205h-.972v-5.844h.96v.96c.192-.36.46-.632.804-.816a2.372 2.372 0 0 1 1.176-.288zm6.448 5.292c.176 0 .352-.012.528-.036l-.048.768a3.507 3.507 0 0 1-.6.048c-.704 0-1.236-.184-1.596-.552-.352-.368-.528-.88-.528-1.536v-3.072h-1.14v-.768h1.14v-1.776h.972v1.776h1.656v.768h-1.656v3c0 .92.424 1.38 1.272 1.38zm4.451-5.292c1.4 0 2.1.772 2.1 2.316V205h-.972v-3.612c0-.544-.108-.94-.324-1.188-.208-.248-.544-.372-1.008-.372-.536 0-.964.164-1.284.492-.32.328-.48.772-.48 1.332V205h-.972v-8.46h.972v3.552c.192-.352.456-.62.792-.804a2.454 2.454 0 0 1 1.176-.276zm3.88-2.472h.972V205h-.972v-8.46zm7.949 2.628l-3.456 7.992h-.996l.984-2.232-2.472-5.76h1.032l1.956 4.776 1.98-4.776h.972zm4.242-2.628h2.844c1.352 0 2.396.368 3.132 1.104.744.728 1.116 1.768 1.116 3.12s-.372 2.396-1.116 3.132c-.736.736-1.78 1.104-3.132 1.104h-2.844v-8.46zm2.784 7.62c2.192 0 3.288-1.132 3.288-3.396 0-2.256-1.096-3.384-3.288-3.384h-1.8v6.78h1.8zm10.863-5.004V205h-.948v-.996c-.184.352-.444.62-.78.804-.328.184-.7.276-1.116.276-.696 0-1.22-.192-1.572-.576-.352-.392-.528-.968-.528-1.728v-3.624h.972v3.6c0 .52.104.904.312 1.152.208.24.536.36.984.36.512 0 .924-.164 1.236-.492.312-.336.468-.776.468-1.32v-3.3h.972zm6.702 3.072h-4.272c.032.68.216 1.196.552 1.548.336.344.812.516 1.428.516.68 0 1.304-.232 1.872-.696l.324.708c-.256.24-.584.432-.984.576-.4.136-.808.204-1.224.204-.912 0-1.632-.268-2.16-.804-.52-.536-.78-1.276-.78-2.22 0-.6.116-1.128.348-1.584.232-.464.556-.824.972-1.08a2.731 2.731 0 0 1 1.44-.384c.776 0 1.384.256 1.824.768.44.504.66 1.2.66 2.088v.36zm-2.472-2.46c-.512 0-.924.16-1.236.48-.304.32-.484.772-.54 1.356h3.396c-.016-.592-.164-1.044-.444-1.356-.28-.32-.672-.48-1.176-.48zm5.884 5.316c-.984 0-1.764-.252-2.34-.756l.324-.72c.312.248.628.428.948.54.328.104.696.156 1.104.156.432 0 .76-.072.984-.216a.73.73 0 0 0 .348-.648.704.704 0 0 0-.228-.552c-.152-.136-.404-.244-.756-.324l-.984-.228c-.496-.112-.876-.304-1.14-.576a1.391 1.391 0 0 1-.396-1.008c0-.52.204-.94.612-1.26.408-.32.952-.48 1.632-.48.408 0 .796.068 1.164.204.368.128.676.316.924.564l-.324.708c-.536-.456-1.124-.684-1.764-.684-.408 0-.728.08-.96.24a.737.737 0 0 0-.336.648c0 .232.068.42.204.564.144.136.372.24.684.312l.996.24c.544.128.948.324 1.212.588.264.256.396.592.396 1.008 0 .512-.208.92-.624 1.224-.408.304-.968.456-1.68.456zm6.88-5.928h.972V205h-.972v-5.844zm1.08-2.532v1.092h-1.176v-1.092h1.176zm3.689 8.46c-.984 0-1.764-.252-2.34-.756l.324-.72c.312.248.628.428.948.54.328.104.696.156 1.104.156.432 0 .76-.072.984-.216a.73.73 0 0 0 .348-.648.704.704 0 0 0-.228-.552c-.152-.136-.404-.244-.756-.324l-.984-.228c-.496-.112-.876-.304-1.14-.576a1.391 1.391 0 0 1-.396-1.008c0-.52.204-.94.612-1.26.408-.32.952-.48 1.632-.48.408 0 .796.068 1.164.204.368.128.676.316.924.564l-.324.708c-.536-.456-1.124-.684-1.764-.684-.408 0-.728.08-.96.24a.737.737 0 0 0-.336.648c0 .232.068.42.204.564.144.136.372.24.684.312l.996.24c.544.128.948.324 1.212.588.264.256.396.592.396 1.008 0 .512-.208.92-.624 1.224-.408.304-.968.456-1.68.456zm12.447-.912V205h-5.448v-.744l2.964-3.264c.4-.448.688-.848.864-1.2.184-.36.276-.72.276-1.08 0-.464-.136-.82-.408-1.068-.272-.248-.656-.372-1.152-.372-.816 0-1.616.324-2.4.972l-.372-.756c.336-.32.756-.572 1.26-.756a4.348 4.348 0 0 1 1.536-.288c.776 0 1.388.2 1.836.6.456.4.684.94.684 1.62a3.1 3.1 0 0 1-.336 1.404c-.216.448-.576.948-1.08 1.5l-2.4 2.604h4.176zm4.328.924c-.968 0-1.704-.368-2.208-1.104-.504-.736-.756-1.808-.756-3.216 0-1.416.252-2.492.756-3.228.504-.736 1.24-1.104 2.208-1.104.968 0 1.704.368 2.208 1.104.504.728.756 1.8.756 3.216 0 1.416-.252 2.492-.756 3.228-.504.736-1.24 1.104-2.208 1.104zm0-.828c.672 0 1.168-.284 1.488-.852.32-.568.48-1.452.48-2.652 0-1.208-.16-2.088-.48-2.64-.312-.56-.808-.84-1.488-.84-.672 0-1.168.28-1.488.84-.32.56-.48 1.44-.48 2.64 0 1.2.16 2.084.48 2.652.32.568.816.852 1.488.852zm3.355 1.248l3.06-9.552.804.264-3.06 9.552-.804-.264zm7.238-.42c-.968 0-1.704-.368-2.208-1.104-.504-.736-.756-1.808-.756-3.216 0-1.416.252-2.492.756-3.228.504-.736 1.24-1.104 2.208-1.104.968 0 1.704.368 2.208 1.104.504.728.756 1.8.756 3.216 0 1.416-.252 2.492-.756 3.228-.504.736-1.24 1.104-2.208 1.104zm0-.828c.672 0 1.168-.284 1.488-.852.32-.568.48-1.452.48-2.652 0-1.208-.16-2.088-.48-2.64-.312-.56-.808-.84-1.488-.84-.672 0-1.168.28-1.488.84-.32.56-.48 1.44-.48 2.64 0 1.2.16 2.084.48 2.652.32.568.816.852 1.488.852zm7.556-4.584c.512 0 .968.112 1.368.336.4.224.712.54.936.948.224.408.336.876.336 1.404 0 .52-.116.988-.348 1.404a2.47 2.47 0 0 1-.972.972 2.833 2.833 0 0 1-1.404.348c-1.024 0-1.816-.356-2.376-1.068-.552-.712-.828-1.728-.828-3.048 0-.952.128-1.768.384-2.448.264-.68.64-1.196 1.128-1.548.488-.36 1.072-.54 1.752-.54.488 0 .964.092 1.428.276.464.176.872.432 1.224.768l-.372.756c-.4-.336-.784-.58-1.152-.732-.36-.16-.728-.24-1.104-.24-.728 0-1.296.324-1.704.972-.4.64-.6 1.548-.6 2.724v.18c.184-.448.48-.804.888-1.068.408-.264.88-.396 1.416-.396zm-.132 4.584c.544 0 .98-.172 1.308-.516.328-.344.492-.8.492-1.368 0-.56-.168-1.012-.504-1.356-.328-.344-.764-.516-1.308-.516-.552 0-1.004.176-1.356.528-.344.344-.516.792-.516 1.344 0 .56.172 1.016.516 1.368.352.344.808.516 1.368.516zm3.115 1.248l3.06-9.552.804.264-3.06 9.552-.804-.264zm10.107-1.344V205h-5.448v-.744l2.964-3.264c.4-.448.688-.848.864-1.2.184-.36.276-.72.276-1.08 0-.464-.136-.82-.408-1.068-.272-.248-.656-.372-1.152-.372-.816 0-1.616.324-2.4.972l-.372-.756c.336-.32.756-.572 1.26-.756a4.348 4.348 0 0 1 1.536-.288c.776 0 1.388.2 1.836.6.456.4.684.94.684 1.62a3.1 3.1 0 0 1-.336 1.404c-.216.448-.576.948-1.08 1.5l-2.4 2.604h4.176zm5.491-3.516c.496.144.876.392 1.14.744.264.344.396.78.396 1.308 0 .736-.252 1.316-.756 1.74-.496.424-1.172.636-2.028.636a4.548 4.548 0 0 1-1.572-.276 3.608 3.608 0 0 1-1.272-.768l.372-.756c.768.648 1.584.972 2.448.972.6 0 1.056-.132 1.368-.396.312-.272.468-.668.468-1.188 0-1.032-.648-1.548-1.944-1.548h-.972v-.828h.78c.624 0 1.104-.136 1.44-.408.336-.28.504-.68.504-1.2 0-.456-.136-.804-.408-1.044-.272-.248-.66-.372-1.164-.372-.816 0-1.616.324-2.4.972l-.372-.756a3.627 3.627 0 0 1 1.26-.768 4.415 4.415 0 0 1 1.548-.276c.768 0 1.376.196 1.824.588.456.384.684.904.684 1.56 0 .488-.12.916-.36 1.284-.232.36-.56.62-.984.78zm4.411 3.12V205h-1.224v-1.224h1.224zm-283.519 17.32c-.8 0-1.496-.172-2.088-.516a3.505 3.505 0 0 1-1.368-1.5c-.312-.656-.468-1.428-.468-2.316 0-.888.156-1.656.468-2.304a3.43 3.43 0 0 1 1.368-1.488c.592-.352 1.288-.528 2.088-.528.584 0 1.12.092 1.608.276.488.176.912.44 1.272.792l-.372.756c-.408-.344-.808-.592-1.2-.744a3.557 3.557 0 0 0-1.296-.228c-.928 0-1.648.304-2.16.912-.504.6-.756 1.452-.756 2.556 0 1.112.252 1.972.756 2.58.512.6 1.232.9 2.16.9.472 0 .904-.076 1.296-.228.392-.152.792-.4 1.2-.744l.372.756c-.36.352-.784.62-1.272.804a4.709 4.709 0 0 1-1.608.264zm6.672-.012c-.552 0-1.04-.124-1.464-.372-.416-.248-.74-.6-.972-1.056-.224-.464-.336-1-.336-1.608 0-.608.112-1.14.336-1.596.232-.464.556-.82.972-1.068.424-.248.912-.372 1.464-.372.552 0 1.04.124 1.464.372.424.248.748.604.972 1.068.232.456.348.988.348 1.596 0 .608-.116 1.144-.348 1.608a2.438 2.438 0 0 1-.972 1.056c-.424.248-.912.372-1.464.372zm0-.804c.576 0 1.016-.188 1.32-.564.312-.384.468-.94.468-1.668 0-.712-.156-1.26-.468-1.644-.312-.392-.752-.588-1.32-.588-.568 0-1.008.196-1.32.588-.312.384-.468.932-.468 1.644 0 .72.152 1.272.456 1.656.312.384.756.576 1.332.576zm10.736-5.268c1.296 0 1.944.772 1.944 2.316V221h-.972v-3.624c0-.536-.096-.928-.288-1.176-.184-.248-.484-.372-.9-.372-.488 0-.872.164-1.152.492-.28.328-.42.776-.42 1.344V221h-.972v-3.624c0-.544-.096-.936-.288-1.176-.192-.248-.496-.372-.912-.372-.488 0-.872.164-1.152.492-.28.328-.42.776-.42 1.344V221h-.972v-5.844h.96v.924c.176-.344.42-.608.732-.792a2.086 2.086 0 0 1 1.08-.276c.904 0 1.5.384 1.788 1.152.168-.36.424-.64.768-.84a2.228 2.228 0 0 1 1.176-.312zm6.655 0c.512 0 .964.128 1.356.384.392.256.696.616.912 1.08.216.456.324.988.324 1.596 0 .608-.108 1.14-.324 1.596-.216.448-.52.796-.912 1.044-.384.248-.836.372-1.356.372-.456 0-.856-.1-1.2-.3a1.939 1.939 0 0 1-.768-.852v3.228h-.972v-8.004h.972v1.008c.176-.368.432-.652.768-.852.344-.2.744-.3 1.2-.3zm-.192 5.268c.568 0 1.008-.192 1.32-.576.312-.384.468-.928.468-1.632 0-.704-.156-1.252-.468-1.644-.312-.4-.752-.6-1.32-.6-.568 0-1.008.192-1.32.576-.304.384-.456.932-.456 1.644 0 .712.152 1.264.456 1.656.312.384.752.576 1.32.576zm4.236-7.74h.972V221h-.972v-8.46zm7.685 5.688h-4.272c.032.68.216 1.196.552 1.548.336.344.812.516 1.428.516.68 0 1.304-.232 1.872-.696l.324.708c-.256.24-.584.432-.984.576-.4.136-.808.204-1.224.204-.912 0-1.632-.268-2.16-.804-.52-.536-.78-1.276-.78-2.22 0-.6.116-1.128.348-1.584.232-.464.556-.824.972-1.08a2.731 2.731 0 0 1 1.44-.384c.776 0 1.384.256 1.824.768.44.504.66 1.2.66 2.088v.36zm-2.472-2.46c-.512 0-.924.16-1.236.48-.304.32-.484.772-.54 1.356h3.396c-.016-.592-.164-1.044-.444-1.356-.28-.32-.672-.48-1.176-.48zm6.437 4.536c.176 0 .352-.012.528-.036l-.048.768a3.507 3.507 0 0 1-.6.048c-.704 0-1.236-.184-1.596-.552-.352-.368-.528-.88-.528-1.536v-3.072h-1.14v-.768h1.14v-1.776h.972v1.776h1.656v.768h-1.656v3c0 .92.424 1.38 1.272 1.38zm6.406-2.076h-4.272c.032.68.216 1.196.552 1.548.336.344.812.516 1.428.516.68 0 1.304-.232 1.872-.696l.324.708c-.256.24-.584.432-.984.576-.4.136-.808.204-1.224.204-.912 0-1.632-.268-2.16-.804-.52-.536-.78-1.276-.78-2.22 0-.6.116-1.128.348-1.584.232-.464.556-.824.972-1.08a2.731 2.731 0 0 1 1.44-.384c.776 0 1.384.256 1.824.768.44.504.66 1.2.66 2.088v.36zm-2.472-2.46c-.512 0-.924.16-1.236.48-.304.32-.484.772-.54 1.356h3.396c-.016-.592-.164-1.044-.444-1.356-.28-.32-.672-.48-1.176-.48zm9.938-.756c.512 0 .964.128 1.356.384.392.256.696.616.912 1.08.216.456.324.988.324 1.596 0 .608-.108 1.14-.324 1.596-.216.448-.52.796-.912 1.044-.384.248-.836.372-1.356.372-.456 0-.856-.1-1.2-.3a1.939 1.939 0 0 1-.768-.852v3.228h-.972v-8.004h.972v1.008c.176-.368.432-.652.768-.852.344-.2.744-.3 1.2-.3zm-.192 5.268c.568 0 1.008-.192 1.32-.576.312-.384.468-.928.468-1.632 0-.704-.156-1.252-.468-1.644-.312-.4-.752-.6-1.32-.6-.568 0-1.008.192-1.32.576-.304.384-.456.932-.456 1.644 0 .712.152 1.264.456 1.656.312.384.752.576 1.32.576zm6.613-5.268c.744 0 1.296.192 1.656.576.368.376.552.952.552 1.728V221h-.948v-.996a1.751 1.751 0 0 1-.696.804 2.088 2.088 0 0 1-1.08.276c-.376 0-.724-.076-1.044-.228a1.864 1.864 0 0 1-.744-.636 1.572 1.572 0 0 1-.276-.9c0-.44.112-.78.336-1.02.224-.248.592-.424 1.104-.528.512-.112 1.224-.168 2.136-.168h.264v-.396c0-.488-.1-.84-.3-1.056-.2-.224-.524-.336-.972-.336-.672 0-1.34.208-2.004.624l-.324-.708a3.734 3.734 0 0 1 1.092-.516 4.15 4.15 0 0 1 1.248-.204zm-.384 5.304c.48 0 .872-.16 1.176-.48.312-.328.468-.748.468-1.26v-.348h-.216c-.704 0-1.24.032-1.608.096-.368.056-.632.156-.792.3-.152.136-.228.34-.228.612 0 .312.112.572.336.78.232.2.52.3.864.3zm9.531-5.148l-3.456 7.992h-.996l.984-2.232-2.472-5.76h1.032l1.956 4.776 1.98-4.776h.972zm7.508-.156c1.296 0 1.944.772 1.944 2.316V221h-.972v-3.624c0-.536-.096-.928-.288-1.176-.184-.248-.484-.372-.9-.372-.488 0-.872.164-1.152.492-.28.328-.42.776-.42 1.344V221h-.972v-3.624c0-.544-.096-.936-.288-1.176-.192-.248-.496-.372-.912-.372-.488 0-.872.164-1.152.492-.28.328-.42.776-.42 1.344V221h-.972v-5.844h.96v.924c.176-.344.42-.608.732-.792a2.086 2.086 0 0 1 1.08-.276c.904 0 1.5.384 1.788 1.152.168-.36.424-.64.768-.84a2.228 2.228 0 0 1 1.176-.312zm8.611 3.216H120.7c.032.68.216 1.196.552 1.548.336.344.812.516 1.428.516.68 0 1.304-.232 1.872-.696l.324.708c-.256.24-.584.432-.984.576-.4.136-.808.204-1.224.204-.912 0-1.632-.268-2.16-.804-.52-.536-.78-1.276-.78-2.22 0-.6.116-1.128.348-1.584.232-.464.556-.824.972-1.08a2.731 2.731 0 0 1 1.44-.384c.776 0 1.384.256 1.824.768.44.504.66 1.2.66 2.088v.36zm-2.472-2.46c-.512 0-.924.16-1.236.48-.304.32-.484.772-.54 1.356h3.396c-.016-.592-.164-1.044-.444-1.356-.28-.32-.672-.48-1.176-.48zm6.844-.756c1.4 0 2.1.772 2.1 2.316V221h-.972v-3.612c0-.544-.108-.94-.324-1.188-.208-.248-.544-.372-1.008-.372-.536 0-.964.164-1.284.492-.32.328-.48.772-.48 1.332V221h-.972v-5.844h.96v.96c.192-.36.46-.632.804-.816a2.372 2.372 0 0 1 1.176-.288zm6.448 5.292c.176 0 .352-.012.528-.036l-.048.768a3.507 3.507 0 0 1-.6.048c-.704 0-1.236-.184-1.596-.552-.352-.368-.528-.88-.528-1.536v-3.072h-1.14v-.768h1.14v-1.776h.972v1.776h1.656v.768h-1.656v3c0 .92.424 1.38 1.272 1.38zm7.028.78c-.552 0-1.04-.124-1.464-.372-.416-.248-.74-.6-.972-1.056-.224-.464-.336-1-.336-1.608 0-.608.112-1.14.336-1.596.232-.464.556-.82.972-1.068.424-.248.912-.372 1.464-.372.552 0 1.04.124 1.464.372.424.248.748.604.972 1.068.232.456.348.988.348 1.596 0 .608-.116 1.144-.348 1.608a2.438 2.438 0 0 1-.972 1.056c-.424.248-.912.372-1.464.372zm0-.804c.576 0 1.016-.188 1.32-.564.312-.384.468-.94.468-1.668 0-.712-.156-1.26-.468-1.644-.312-.392-.752-.588-1.32-.588-.568 0-1.008.196-1.32.588-.312.384-.468.932-.468 1.644 0 .72.152 1.272.456 1.656.312.384.756.576 1.332.576zm5.517-5.124h1.656v.768h-1.656V221h-.972v-5.076h-1.14v-.768h1.14v-.192c0-.776.192-1.364.576-1.764.392-.4.992-.624 1.8-.672l.48-.024.072.756-.552.036c-.488.032-.844.172-1.068.42-.224.24-.336.612-.336 1.116v.324zm8.303 5.148c.176 0 .352-.012.528-.036l-.048.768a3.507 3.507 0 0 1-.6.048c-.704 0-1.236-.184-1.596-.552-.352-.368-.528-.88-.528-1.536v-3.072h-1.14v-.768h1.14v-1.776h.972v1.776h1.656v.768h-1.656v3c0 .92.424 1.38 1.272 1.38zm4.45-5.292c1.4 0 2.1.772 2.1 2.316V221h-.972v-3.612c0-.544-.108-.94-.324-1.188-.208-.248-.544-.372-1.008-.372-.536 0-.964.164-1.284.492-.32.328-.48.772-.48 1.332V221h-.972v-8.46h.972v3.552c.192-.352.456-.62.792-.804a2.454 2.454 0 0 1 1.176-.276zm3.88.144h.972V221h-.972v-5.844zm1.08-2.532v1.092h-1.176v-1.092h1.176zm3.689 8.46c-.984 0-1.764-.252-2.34-.756l.324-.72c.312.248.628.428.948.54.328.104.696.156 1.104.156.432 0 .76-.072.984-.216a.73.73 0 0 0 .348-.648.704.704 0 0 0-.228-.552c-.152-.136-.404-.244-.756-.324l-.984-.228c-.496-.112-.876-.304-1.14-.576a1.391 1.391 0 0 1-.396-1.008c0-.52.204-.94.612-1.26.408-.32.952-.48 1.632-.48.408 0 .796.068 1.164.204.368.128.676.316.924.564l-.324.708c-.536-.456-1.124-.684-1.764-.684-.408 0-.728.08-.96.24a.737.737 0 0 0-.336.648c0 .232.068.42.204.564.144.136.372.24.684.312l.996.24c.544.128.948.324 1.212.588.264.256.396.592.396 1.008 0 .512-.208.92-.624 1.224-.408.304-.968.456-1.68.456zm13.384-6.072c1.296 0 1.944.772 1.944 2.316V221h-.972v-3.624c0-.536-.096-.928-.288-1.176-.184-.248-.484-.372-.9-.372-.488 0-.872.164-1.152.492-.28.328-.42.776-.42 1.344V221h-.972v-3.624c0-.544-.096-.936-.288-1.176-.192-.248-.496-.372-.912-.372-.488 0-.872.164-1.152.492-.28.328-.42.776-.42 1.344V221h-.972v-5.844h.96v.924c.176-.344.42-.608.732-.792a2.086 2.086 0 0 1 1.08-.276c.904 0 1.5.384 1.788 1.152.168-.36.424-.64.768-.84a2.228 2.228 0 0 1 1.176-.312zm6.139 6.072c-.552 0-1.04-.124-1.464-.372-.416-.248-.74-.6-.972-1.056-.224-.464-.336-1-.336-1.608 0-.608.112-1.14.336-1.596.232-.464.556-.82.972-1.068.424-.248.912-.372 1.464-.372.552 0 1.04.124 1.464.372.424.248.748.604.972 1.068.232.456.348.988.348 1.596 0 .608-.116 1.144-.348 1.608a2.438 2.438 0 0 1-.972 1.056c-.424.248-.912.372-1.464.372zm0-.804c.576 0 1.016-.188 1.32-.564.312-.384.468-.94.468-1.668 0-.712-.156-1.26-.468-1.644-.312-.392-.752-.588-1.32-.588-.568 0-1.008.196-1.32.588-.312.384-.468.932-.468 1.644 0 .72.152 1.272.456 1.656.312.384.756.576 1.332.576zm7.172-5.268c1.4 0 2.1.772 2.1 2.316V221h-.972v-3.612c0-.544-.108-.94-.324-1.188-.208-.248-.544-.372-1.008-.372-.536 0-.964.164-1.284.492-.32.328-.48.772-.48 1.332V221h-.972v-5.844h.96v.96c.192-.36.46-.632.804-.816a2.372 2.372 0 0 1 1.176-.288zm6.448 5.292c.176 0 .352-.012.528-.036l-.048.768a3.507 3.507 0 0 1-.6.048c-.704 0-1.236-.184-1.596-.552-.352-.368-.528-.88-.528-1.536v-3.072h-1.14v-.768h1.14v-1.776h.972v1.776h1.656v.768h-1.656v3c0 .92.424 1.38 1.272 1.38zm4.45-5.292c1.4 0 2.1.772 2.1 2.316V221h-.972v-3.612c0-.544-.108-.94-.324-1.188-.208-.248-.544-.372-1.008-.372-.536 0-.964.164-1.284.492-.32.328-.48.772-.48 1.332V221h-.972v-8.46h.972v3.552c.192-.352.456-.62.792-.804a2.454 2.454 0 0 1 1.176-.276zm3.881-2.472h.972V221h-.972v-8.46zm7.949 2.628l-3.456 7.992h-.996l.984-2.232-2.472-5.76h1.032l1.956 4.776 1.98-4.776h.972zm9.281-2.628V221h-.972v-1.068a1.918 1.918 0 0 1-.78.852c-.336.2-.732.3-1.188.3-.512 0-.964-.128-1.356-.384a2.541 2.541 0 0 1-.912-1.068c-.216-.464-.324-1-.324-1.608 0-.6.108-1.128.324-1.584a2.46 2.46 0 0 1 .912-1.056 2.482 2.482 0 0 1 1.356-.372c.456 0 .852.1 1.188.3.344.2.604.484.78.852v-3.624h.972zm-2.748 7.74c.568 0 1.004-.192 1.308-.576.312-.392.468-.944.468-1.656s-.156-1.26-.468-1.644c-.304-.384-.74-.576-1.308-.576-.568 0-1.012.192-1.332.576-.312.384-.468.924-.468 1.62 0 .712.156 1.268.468 1.668.32.392.764.588 1.332.588zm9.469-5.124V221h-.948v-.996c-.184.352-.444.62-.78.804-.328.184-.7.276-1.116.276-.696 0-1.22-.192-1.572-.576-.352-.392-.528-.968-.528-1.728v-3.624h.972v3.6c0 .52.104.904.312 1.152.208.24.536.36.984.36.512 0 .924-.164 1.236-.492.312-.336.468-.776.468-1.32v-3.3h.972zm6.702 3.072h-4.272c.032.68.216 1.196.552 1.548.336.344.812.516 1.428.516.68 0 1.304-.232 1.872-.696l.324.708c-.256.24-.584.432-.984.576-.4.136-.808.204-1.224.204-.912 0-1.632-.268-2.16-.804-.52-.536-.78-1.276-.78-2.22 0-.6.116-1.128.348-1.584.232-.464.556-.824.972-1.08a2.731 2.731 0 0 1 1.44-.384c.776 0 1.384.256 1.824.768.44.504.66 1.2.66 2.088v.36zm-2.472-2.46c-.512 0-.924.16-1.236.48-.304.32-.484.772-.54 1.356h3.396c-.016-.592-.164-1.044-.444-1.356-.28-.32-.672-.48-1.176-.48zm5.884 5.316c-.984 0-1.764-.252-2.34-.756l.324-.72c.312.248.628.428.948.54.328.104.696.156 1.104.156.432 0 .76-.072.984-.216a.73.73 0 0 0 .348-.648.704.704 0 0 0-.228-.552c-.152-.136-.404-.244-.756-.324l-.984-.228c-.496-.112-.876-.304-1.14-.576a1.391 1.391 0 0 1-.396-1.008c0-.52.204-.94.612-1.26.408-.32.952-.48 1.632-.48.408 0 .796.068 1.164.204.368.128.676.316.924.564l-.324.708c-.536-.456-1.124-.684-1.764-.684-.408 0-.728.08-.96.24a.737.737 0 0 0-.336.648c0 .232.068.42.204.564.144.136.372.24.684.312l.996.24c.544.128.948.324 1.212.588.264.256.396.592.396 1.008 0 .512-.208.92-.624 1.224-.408.304-.968.456-1.68.456zm9.256-6.072c.744 0 1.296.192 1.656.576.368.376.552.952.552 1.728V221h-.948v-.996a1.751 1.751 0 0 1-.696.804 2.086 2.086 0 0 1-1.08.276c-.376 0-.724-.076-1.044-.228a1.864 1.864 0 0 1-.744-.636 1.572 1.572 0 0 1-.276-.9c0-.44.112-.78.336-1.02.224-.248.592-.424 1.104-.528.512-.112 1.224-.168 2.136-.168h.264v-.396c0-.488-.1-.84-.3-1.056-.2-.224-.524-.336-.972-.336-.672 0-1.34.208-2.004.624l-.324-.708a3.734 3.734 0 0 1 1.092-.516 4.15 4.15 0 0 1 1.248-.204zm-.384 5.304c.48 0 .872-.16 1.176-.48.312-.328.468-.748.468-1.26v-.348h-.216c-.704 0-1.24.032-1.608.096-.368.056-.632.156-.792.3-.152.136-.228.34-.228.612 0 .312.112.572.336.78.232.2.52.3.864.3zm6.351.768c-.984 0-1.764-.252-2.34-.756l.324-.72c.312.248.628.428.948.54.328.104.696.156 1.104.156.432 0 .76-.072.984-.216a.73.73 0 0 0 .348-.648.704.704 0 0 0-.228-.552c-.152-.136-.404-.244-.756-.324l-.984-.228c-.496-.112-.876-.304-1.14-.576a1.391 1.391 0 0 1-.396-1.008c0-.52.204-.94.612-1.26.408-.32.952-.48 1.632-.48.408 0 .796.068 1.164.204.368.128.676.316.924.564l-.324.708c-.536-.456-1.124-.684-1.764-.684-.408 0-.728.08-.96.24a.737.737 0 0 0-.336.648c0 .232.068.42.204.564.144.136.372.24.684.312l.996.24c.544.128.948.324 1.212.588.264.256.396.592.396 1.008 0 .512-.208.92-.624 1.224-.408.304-.968.456-1.68.456zm12.039-5.916l-3.456 7.992h-.996l.984-2.232-2.472-5.76h1.032l1.956 4.776 1.98-4.776h.972zm3.358 5.916c-.552 0-1.04-.124-1.464-.372-.416-.248-.74-.6-.972-1.056-.224-.464-.336-1-.336-1.608 0-.608.112-1.14.336-1.596.232-.464.556-.82.972-1.068.424-.248.912-.372 1.464-.372.552 0 1.04.124 1.464.372.424.248.748.604.972 1.068.232.456.348.988.348 1.596 0 .608-.116 1.144-.348 1.608a2.438 2.438 0 0 1-.972 1.056c-.424.248-.912.372-1.464.372zm0-.804c.576 0 1.016-.188 1.32-.564.312-.384.468-.94.468-1.668 0-.712-.156-1.26-.468-1.644-.312-.392-.752-.588-1.32-.588-.568 0-1.008.196-1.32.588-.312.384-.468.932-.468 1.644 0 .72.152 1.272.456 1.656.312.384.756.576 1.332.576zm9.152-5.124V221h-.948v-.996c-.184.352-.444.62-.78.804-.328.184-.7.276-1.116.276-.696 0-1.22-.192-1.572-.576-.352-.392-.528-.968-.528-1.728v-3.624h.972v3.6c0 .52.104.904.312 1.152.208.24.536.36.984.36.512 0 .924-.164 1.236-.492.312-.336.468-.776.468-1.32v-3.3h.972zm7.841-.144c.512 0 .964.128 1.356.384.392.256.696.616.912 1.08.216.456.324.988.324 1.596 0 .608-.108 1.14-.324 1.596-.216.448-.52.796-.912 1.044-.384.248-.836.372-1.356.372-.456 0-.856-.1-1.2-.3a1.939 1.939 0 0 1-.768-.852v3.228h-.972v-8.004h.972v1.008c.176-.368.432-.652.768-.852.344-.2.744-.3 1.2-.3zm-.192 5.268c.568 0 1.008-.192 1.32-.576.312-.384.468-.928.468-1.632 0-.704-.156-1.252-.468-1.644-.312-.4-.752-.6-1.32-.6-.568 0-1.008.192-1.32.576-.304.384-.456.932-.456 1.644 0 .712.152 1.264.456 1.656.312.384.752.576 1.32.576zm4.236-7.74h.972V221h-.972v-8.46zm7.685 5.688h-4.272c.032.68.216 1.196.552 1.548.336.344.812.516 1.428.516.68 0 1.304-.232 1.872-.696l.324.708c-.256.24-.584.432-.984.576-.4.136-.808.204-1.224.204-.912 0-1.632-.268-2.16-.804-.52-.536-.78-1.276-.78-2.22 0-.6.116-1.128.348-1.584.232-.464.556-.824.972-1.08a2.731 2.731 0 0 1 1.44-.384c.776 0 1.384.256 1.824.768.44.504.66 1.2.66 2.088v.36zm-2.472-2.46c-.512 0-.924.16-1.236.48-.304.32-.484.772-.54 1.356h3.396c-.016-.592-.164-1.044-.444-1.356-.28-.32-.672-.48-1.176-.48zm9.088-3.228V221h-.972v-1.068a1.918 1.918 0 0 1-.78.852c-.336.2-.732.3-1.188.3-.512 0-.964-.128-1.356-.384a2.541 2.541 0 0 1-.912-1.068c-.216-.464-.324-1-.324-1.608 0-.6.108-1.128.324-1.584a2.46 2.46 0 0 1 .912-1.056 2.482 2.482 0 0 1 1.356-.372c.456 0 .852.1 1.188.3.344.2.604.484.78.852v-3.624h.972zm-2.748 7.74c.568 0 1.004-.192 1.308-.576.312-.392.468-.944.468-1.656s-.156-1.26-.468-1.644c-.304-.384-.74-.576-1.308-.576-.568 0-1.012.192-1.332.576-.312.384-.468.924-.468 1.62 0 .712.156 1.268.468 1.668.32.392.764.588 1.332.588zm9.781-5.124v5.448c0 .872-.224 1.528-.672 1.968-.448.448-1.112.672-1.992.672-1.024 0-1.884-.264-2.58-.792l.324-.72c.392.256.76.44 1.104.552.344.112.728.168 1.152.168.56 0 .984-.152 1.272-.456.288-.296.432-.732.432-1.308v-1.032a1.822 1.822 0 0 1-.78.864c-.344.2-.752.3-1.224.3-.512 0-.968-.12-1.368-.36-.392-.24-.7-.58-.924-1.02-.216-.44-.324-.948-.324-1.524 0-.576.108-1.084.324-1.524.224-.44.532-.78.924-1.02.4-.24.856-.36 1.368-.36.464 0 .868.1 1.212.3.344.2.604.484.78.852v-1.008h.972zm-2.772 4.86c.56 0 1-.184 1.32-.552.32-.376.48-.892.48-1.548 0-.648-.16-1.156-.48-1.524-.312-.376-.752-.564-1.32-.564-.568 0-1.016.188-1.344.564-.32.368-.48.876-.48 1.524 0 .656.16 1.172.48 1.548.328.368.776.552 1.344.552zm9.467-1.788h-4.272c.032.68.216 1.196.552 1.548.336.344.812.516 1.428.516.68 0 1.304-.232 1.872-.696l.324.708c-.256.24-.584.432-.984.576-.4.136-.808.204-1.224.204-.912 0-1.632-.268-2.16-.804-.52-.536-.78-1.276-.78-2.22 0-.6.116-1.128.348-1.584.232-.464.556-.824.972-1.08a2.731 2.731 0 0 1 1.44-.384c.776 0 1.384.256 1.824.768.44.504.66 1.2.66 2.088v.36zm-2.472-2.46c-.512 0-.924.16-1.236.48-.304.32-.484.772-.54 1.356h3.396c-.016-.592-.164-1.044-.444-1.356-.28-.32-.672-.48-1.176-.48zm9.088-3.228V221h-.972v-1.068a1.918 1.918 0 0 1-.78.852c-.336.2-.732.3-1.188.3-.512 0-.964-.128-1.356-.384a2.541 2.541 0 0 1-.912-1.068c-.216-.464-.324-1-.324-1.608 0-.6.108-1.128.324-1.584a2.46 2.46 0 0 1 .912-1.056 2.482 2.482 0 0 1 1.356-.372c.456 0 .852.1 1.188.3.344.2.604.484.78.852v-3.624h.972zm-2.748 7.74c.568 0 1.004-.192 1.308-.576.312-.392.468-.944.468-1.656s-.156-1.26-.468-1.644c-.304-.384-.74-.576-1.308-.576-.568 0-1.012.192-1.332.576-.312.384-.468.924-.468 1.62 0 .712.156 1.268.468 1.668.32.392.764.588 1.332.588zM44.804 231.156L42.632 237h-.936l-1.644-4.524L38.396 237h-.924l-2.172-5.844h1.008l1.656 4.692 1.692-4.692h.84l1.668 4.692 1.668-4.692h.972zm4.138-.144c1.4 0 2.1.772 2.1 2.316V237h-.972v-3.612c0-.544-.108-.94-.324-1.188-.208-.248-.544-.372-1.008-.372-.536 0-.964.164-1.284.492-.32.328-.48.772-.48 1.332V237h-.972v-8.46h.972v3.552c.192-.352.456-.62.792-.804a2.454 2.454 0 0 1 1.176-.276zm8.776 3.216h-4.272c.032.68.216 1.196.552 1.548.336.344.812.516 1.428.516.68 0 1.304-.232 1.872-.696l.324.708c-.256.24-.584.432-.984.576-.4.136-.808.204-1.224.204-.912 0-1.632-.268-2.16-.804-.52-.536-.78-1.276-.78-2.22 0-.6.116-1.128.348-1.584.232-.464.556-.824.972-1.08a2.731 2.731 0 0 1 1.44-.384c.776 0 1.384.256 1.824.768.44.504.66 1.2.66 2.088v.36zm-2.472-2.46c-.512 0-.924.16-1.236.48-.304.32-.484.772-.54 1.356h3.396c-.016-.592-.164-1.044-.444-1.356-.28-.32-.672-.48-1.176-.48zm6.844-.756c1.4 0 2.1.772 2.1 2.316V237h-.972v-3.612c0-.544-.108-.94-.324-1.188-.208-.248-.544-.372-1.008-.372-.536 0-.964.164-1.284.492-.32.328-.48.772-.48 1.332V237h-.972v-5.844h.96v.96c.192-.36.46-.632.804-.816a2.372 2.372 0 0 1 1.176-.288zm12.134.156l-3.456 7.992h-.996l.984-2.232-2.472-5.76h1.032l1.956 4.776 1.98-4.776h.972zm3.358 5.916c-.552 0-1.04-.124-1.464-.372-.416-.248-.74-.6-.972-1.056-.224-.464-.336-1-.336-1.608 0-.608.112-1.14.336-1.596.232-.464.556-.82.972-1.068.424-.248.912-.372 1.464-.372.552 0 1.04.124 1.464.372.424.248.748.604.972 1.068.232.456.348.988.348 1.596 0 .608-.116 1.144-.348 1.608a2.438 2.438 0 0 1-.972 1.056c-.424.248-.912.372-1.464.372zm0-.804c.576 0 1.016-.188 1.32-.564.312-.384.468-.94.468-1.668 0-.712-.156-1.26-.468-1.644-.312-.392-.752-.588-1.32-.588-.568 0-1.008.196-1.32.588-.312.384-.468.932-.468 1.644 0 .72.152 1.272.456 1.656.312.384.756.576 1.332.576zm9.152-5.124V237h-.948v-.996c-.184.352-.444.62-.78.804-.328.184-.7.276-1.116.276-.696 0-1.22-.192-1.572-.576-.352-.392-.528-.968-.528-1.728v-3.624h.972v3.6c0 .52.104.904.312 1.152.208.24.536.36.984.36.512 0 .924-.164 1.236-.492.312-.336.468-.776.468-1.32v-3.3h.972zm7.84-.144c.512 0 .964.124 1.356.372.392.248.696.6.912 1.056.216.456.324.984.324 1.584 0 .608-.108 1.144-.324 1.608-.216.456-.52.812-.912 1.068a2.424 2.424 0 0 1-1.356.384c-.456 0-.856-.1-1.2-.3a1.939 1.939 0 0 1-.768-.852V237h-.972v-8.46h.972v3.624c.176-.368.432-.652.768-.852.344-.2.744-.3 1.2-.3zm-.192 5.268c.568 0 1.008-.196 1.32-.588.312-.4.468-.956.468-1.668 0-.696-.156-1.236-.468-1.62-.312-.384-.752-.576-1.32-.576-.568 0-1.008.192-1.32.576-.304.384-.456.932-.456 1.644 0 .712.152 1.264.456 1.656.312.384.752.576 1.32.576zm9.133-2.052h-4.272c.032.68.216 1.196.552 1.548.336.344.812.516 1.428.516.68 0 1.304-.232 1.872-.696l.324.708c-.256.24-.584.432-.984.576-.4.136-.808.204-1.224.204-.912 0-1.632-.268-2.16-.804-.52-.536-.78-1.276-.78-2.22 0-.6.116-1.128.348-1.584.232-.464.556-.824.972-1.08a2.732 2.732 0 0 1 1.44-.384c.776 0 1.384.256 1.824.768.44.504.66 1.2.66 2.088v.36zm-2.472-2.46c-.512 0-.924.16-1.236.48-.304.32-.484.772-.54 1.356h3.396c-.016-.592-.164-1.044-.444-1.356-.28-.32-.672-.48-1.176-.48zm6.376 5.316c-.576 0-1.076-.124-1.5-.372a2.53 2.53 0 0 1-.984-1.044c-.224-.456-.336-.988-.336-1.596 0-.608.116-1.14.348-1.596.24-.464.572-.824.996-1.08.432-.256.936-.384 1.512-.384.392 0 .776.072 1.152.216.376.136.68.32.912.552l-.324.72c-.552-.448-1.112-.672-1.68-.672-.6 0-1.068.196-1.404.588-.336.392-.504.944-.504 1.656 0 .704.168 1.248.504 1.632.336.384.804.576 1.404.576.568 0 1.128-.224 1.68-.672l.324.72c-.248.232-.56.416-.936.552a3.397 3.397 0 0 1-1.164.204zm5.646-6.072c.744 0 1.296.192 1.656.576.368.376.552.952.552 1.728V237h-.948v-.996a1.751 1.751 0 0 1-.696.804 2.086 2.086 0 0 1-1.08.276c-.376 0-.724-.076-1.044-.228a1.864 1.864 0 0 1-.744-.636 1.572 1.572 0 0 1-.276-.9c0-.44.112-.78.336-1.02.224-.248.592-.424 1.104-.528.512-.112 1.224-.168 2.136-.168h.264v-.396c0-.488-.1-.84-.3-1.056-.2-.224-.524-.336-.972-.336-.672 0-1.34.208-2.004.624l-.324-.708a3.734 3.734 0 0 1 1.092-.516 4.15 4.15 0 0 1 1.248-.204zm-.384 5.304c.48 0 .872-.16 1.176-.48.312-.328.468-.748.468-1.26v-.348h-.216c-.704 0-1.24.032-1.608.096-.368.056-.632.156-.792.3-.152.136-.228.34-.228.612 0 .312.112.572.336.78.232.2.52.3.864.3zm10.875-5.304c1.296 0 1.944.772 1.944 2.316V237h-.972v-3.624c0-.536-.096-.928-.288-1.176-.184-.248-.484-.372-.9-.372-.488 0-.872.164-1.152.492-.28.328-.42.776-.42 1.344V237h-.972v-3.624c0-.544-.096-.936-.288-1.176-.192-.248-.496-.372-.912-.372-.488 0-.872.164-1.152.492-.28.328-.42.776-.42 1.344V237h-.972v-5.844h.96v.924c.176-.344.42-.608.732-.792a2.086 2.086 0 0 1 1.08-.276c.904 0 1.5.384 1.788 1.152.168-.36.424-.64.768-.84a2.228 2.228 0 0 1 1.176-.312zm8.611 3.216h-4.272c.032.68.216 1.196.552 1.548.336.344.812.516 1.428.516.68 0 1.304-.232 1.872-.696l.324.708c-.256.24-.584.432-.984.576-.4.136-.808.204-1.224.204-.912 0-1.632-.268-2.16-.804-.52-.536-.78-1.276-.78-2.22 0-.6.116-1.128.348-1.584.232-.464.556-.824.972-1.08a2.731 2.731 0 0 1 1.44-.384c.776 0 1.384.256 1.824.768.44.504.66 1.2.66 2.088v.36zm-2.472-2.46c-.512 0-.924.16-1.236.48-.304.32-.484.772-.54 1.356h3.396c-.016-.592-.164-1.044-.444-1.356-.28-.32-.672-.48-1.176-.48zm9.374-.756c.744 0 1.296.192 1.656.576.368.376.552.952.552 1.728V237h-.948v-.996a1.751 1.751 0 0 1-.696.804 2.086 2.086 0 0 1-1.08.276c-.376 0-.724-.076-1.044-.228a1.864 1.864 0 0 1-.744-.636 1.572 1.572 0 0 1-.276-.9c0-.44.112-.78.336-1.02.224-.248.592-.424 1.104-.528.512-.112 1.224-.168 2.136-.168h.264v-.396c0-.488-.1-.84-.3-1.056-.2-.224-.524-.336-.972-.336-.672 0-1.34.208-2.004.624l-.324-.708a3.734 3.734 0 0 1 1.092-.516 4.15 4.15 0 0 1 1.248-.204zm-.384 5.304c.48 0 .872-.16 1.176-.48.312-.328.468-.748.468-1.26v-.348h-.216c-.704 0-1.24.032-1.608.096-.368.056-.632.156-.792.3-.152.136-.228.34-.228.612 0 .312.112.572.336.78.232.2.52.3.864.3zm13.969-5.304c1.296 0 1.944.772 1.944 2.316V237h-.972v-3.624c0-.536-.096-.928-.288-1.176-.184-.248-.484-.372-.9-.372-.488 0-.872.164-1.152.492-.28.328-.42.776-.42 1.344V237h-.972v-3.624c0-.544-.096-.936-.288-1.176-.192-.248-.496-.372-.912-.372-.488 0-.872.164-1.152.492-.28.328-.42.776-.42 1.344V237h-.972v-5.844h.96v.924c.176-.344.42-.608.732-.792a2.086 2.086 0 0 1 1.08-.276c.904 0 1.5.384 1.788 1.152.168-.36.424-.64.768-.84a2.228 2.228 0 0 1 1.176-.312zm8.611 3.216h-4.272c.032.68.216 1.196.552 1.548.336.344.812.516 1.428.516.68 0 1.304-.232 1.872-.696l.324.708c-.256.24-.584.432-.984.576-.4.136-.808.204-1.224.204-.912 0-1.632-.268-2.16-.804-.52-.536-.78-1.276-.78-2.22 0-.6.116-1.128.348-1.584.232-.464.556-.824.972-1.08a2.731 2.731 0 0 1 1.44-.384c.776 0 1.384.256 1.824.768.44.504.66 1.2.66 2.088v.36zm-2.472-2.46c-.512 0-.924.16-1.236.48-.304.32-.484.772-.54 1.356h3.396c-.016-.592-.164-1.044-.444-1.356-.28-.32-.672-.48-1.176-.48zm10.408-.756c1.296 0 1.944.772 1.944 2.316V237h-.972v-3.624c0-.536-.096-.928-.288-1.176-.184-.248-.484-.372-.9-.372-.488 0-.872.164-1.152.492-.28.328-.42.776-.42 1.344V237h-.972v-3.624c0-.544-.096-.936-.288-1.176-.192-.248-.496-.372-.912-.372-.488 0-.872.164-1.152.492-.28.328-.42.776-.42 1.344V237h-.972v-5.844h.96v.924c.176-.344.42-.608.732-.792a2.086 2.086 0 0 1 1.08-.276c.904 0 1.5.384 1.788 1.152.168-.36.424-.64.768-.84a2.228 2.228 0 0 1 1.176-.312zm6.655 0c.512 0 .964.124 1.356.372.392.248.696.6.912 1.056.216.456.324.984.324 1.584 0 .608-.108 1.144-.324 1.608-.216.456-.52.812-.912 1.068a2.424 2.424 0 0 1-1.356.384c-.456 0-.856-.1-1.2-.3a1.939 1.939 0 0 1-.768-.852V237h-.972v-8.46h.972v3.624c.176-.368.432-.652.768-.852.344-.2.744-.3 1.2-.3zm-.192 5.268c.568 0 1.008-.196 1.32-.588.312-.4.468-.956.468-1.668 0-.696-.156-1.236-.468-1.62-.312-.384-.752-.576-1.32-.576-.568 0-1.008.192-1.32.576-.304.384-.456.932-.456 1.644 0 .712.152 1.264.456 1.656.312.384.752.576 1.32.576zm9.132-2.052h-4.272c.032.68.216 1.196.552 1.548.336.344.812.516 1.428.516.68 0 1.304-.232 1.872-.696l.324.708c-.256.24-.584.432-.984.576-.4.136-.808.204-1.224.204-.912 0-1.632-.268-2.16-.804-.52-.536-.78-1.276-.78-2.22 0-.6.116-1.128.348-1.584.232-.464.556-.824.972-1.08a2.731 2.731 0 0 1 1.44-.384c.776 0 1.384.256 1.824.768.44.504.66 1.2.66 2.088v.36zm-2.472-2.46c-.512 0-.924.16-1.236.48-.304.32-.484.772-.54 1.356h3.396c-.016-.592-.164-1.044-.444-1.356-.28-.32-.672-.48-1.176-.48zm7.216.084l-.636.06c-.6.056-1.036.244-1.308.564-.264.32-.396.716-.396 1.188V237h-.972v-5.844h.948v1.02c.328-.68.972-1.06 1.932-1.14l.348-.024.084.84zm1.741 3.924V237h-1.224v-1.224h1.224zm6.94-6.396h-2.94v-.84h6.888v.84h-2.952V237h-.996v-7.62zm7.928 1.632c1.4 0 2.1.772 2.1 2.316V237h-.972v-3.612c0-.544-.108-.94-.324-1.188-.208-.248-.544-.372-1.008-.372-.536 0-.964.164-1.284.492-.32.328-.48.772-.48 1.332V237h-.972v-8.46h.972v3.552c.192-.352.456-.62.792-.804a2.454 2.454 0 0 1 1.176-.276zm6.256 0c.744 0 1.296.192 1.656.576.368.376.552.952.552 1.728V237h-.948v-.996a1.751 1.751 0 0 1-.696.804 2.086 2.086 0 0 1-1.08.276c-.376 0-.724-.076-1.044-.228a1.864 1.864 0 0 1-.744-.636 1.572 1.572 0 0 1-.276-.9c0-.44.112-.78.336-1.02.224-.248.592-.424 1.104-.528.512-.112 1.224-.168 2.136-.168h.264v-.396c0-.488-.1-.84-.3-1.056-.2-.224-.524-.336-.972-.336-.672 0-1.34.208-2.004.624l-.324-.708a3.734 3.734 0 0 1 1.092-.516 4.15 4.15 0 0 1 1.248-.204zm-.384 5.304c.48 0 .872-.16 1.176-.48.312-.328.468-.748.468-1.26v-.348h-.216c-.704 0-1.24.032-1.608.096-.368.056-.632.156-.792.3-.152.136-.228.34-.228.612 0 .312.112.572.336.78.232.2.52.3.864.3zm7.311-5.304c1.4 0 2.1.772 2.1 2.316V237h-.972v-3.612c0-.544-.108-.94-.324-1.188-.208-.248-.544-.372-1.008-.372-.536 0-.964.164-1.284.492-.32.328-.48.772-.48 1.332V237h-.972v-5.844h.96v.96c.192-.36.46-.632.804-.816a2.372 2.372 0 0 1 1.176-.288zm7.829 5.988l-2.976-2.796V237h-.972v-8.46h.972v5.268l2.724-2.64h1.236l-2.904 2.796 3.18 3.036h-1.26zm10.305-5.832l-3.456 7.992h-.996l.984-2.232-2.472-5.76h1.032l1.956 4.776 1.98-4.776h.972zm3.358 5.916c-.552 0-1.04-.124-1.464-.372-.416-.248-.74-.6-.972-1.056-.224-.464-.336-1-.336-1.608 0-.608.112-1.14.336-1.596.232-.464.556-.82.972-1.068.424-.248.912-.372 1.464-.372.552 0 1.04.124 1.464.372.424.248.748.604.972 1.068.232.456.348.988.348 1.596 0 .608-.116 1.144-.348 1.608a2.438 2.438 0 0 1-.972 1.056c-.424.248-.912.372-1.464.372zm0-.804c.576 0 1.016-.188 1.32-.564.312-.384.468-.94.468-1.668 0-.712-.156-1.26-.468-1.644-.312-.392-.752-.588-1.32-.588-.568 0-1.008.196-1.32.588-.312.384-.468.932-.468 1.644 0 .72.152 1.272.456 1.656.312.384.756.576 1.332.576zm9.152-5.124V237h-.948v-.996c-.184.352-.444.62-.78.804-.328.184-.7.276-1.116.276-.696 0-1.22-.192-1.572-.576-.352-.392-.528-.968-.528-1.728v-3.624h.972v3.6c0 .52.104.904.312 1.152.208.24.536.36.984.36.512 0 .924-.164 1.236-.492.312-.336.468-.776.468-1.32v-3.3h.972zm2.887 4.62V237h-1.224v-1.224h1.224z" fill="#2E2E2E"/><path d="M45.78 255.13V265h-1.918v-5.852l-2.268 4.228h-1.4l-2.268-4.172V265h-1.918v-9.87h1.722l3.178 6.034 3.178-6.034h1.694zm4.87 2.828c1.026 0 1.782.243 2.267.728.495.485.742 1.237.742 2.254V265h-2.002v-1.022a1.71 1.71 0 0 1-.7.84c-.327.196-.71.294-1.148.294-.466 0-.891-.093-1.274-.28a2.284 2.284 0 0 1-.896-.784 2.036 2.036 0 0 1-.322-1.12c0-.504.126-.901.378-1.19.261-.289.677-.499 1.246-.63.57-.131 1.349-.196 2.338-.196h.364v-.252c0-.411-.089-.7-.266-.868-.177-.168-.485-.252-.924-.252-.336 0-.71.061-1.12.182-.41.121-.802.289-1.176.504l-.56-1.414c.392-.243.873-.443 1.442-.602a5.8 5.8 0 0 1 1.61-.252zm-.379 5.698c.41 0 .742-.135.994-.406.252-.28.378-.639.378-1.078v-.238h-.238c-.756 0-1.288.061-1.596.182-.298.121-.448.341-.448.658 0 .252.084.462.252.63a.92.92 0 0 0 .658.252zM59.986 265l-2.632-3.066V265H55.24v-9.87h2.114v5.936l2.534-2.926h2.52l-2.884 3.276L62.576 265h-2.59zm9.18-3.038h-4.48c.065.551.243.952.532 1.204.299.243.719.364 1.26.364.355 0 .705-.056 1.05-.168.355-.121.677-.289.966-.504l.56 1.414a3.812 3.812 0 0 1-1.232.616 4.803 4.803 0 0 1-1.442.224c-1.157 0-2.072-.317-2.744-.952-.663-.644-.994-1.517-.994-2.618 0-.7.145-1.321.434-1.862.29-.541.69-.961 1.204-1.26.513-.308 1.097-.462 1.75-.462.961 0 1.722.313 2.282.938.57.625.854 1.475.854 2.548v.518zm-3.08-2.548c-.401 0-.723.131-.966.392-.233.252-.378.621-.434 1.106h2.702c-.028-.495-.154-.868-.378-1.12-.215-.252-.523-.378-.924-.378zm8.435-4.284h4.536c1.073 0 1.909.271 2.506.812.597.541.896 1.297.896 2.268 0 .971-.299 1.727-.896 2.268-.597.541-1.433.812-2.506.812h-2.352V265h-2.184v-9.87zm4.256 4.508c1.092 0 1.638-.471 1.638-1.414 0-.485-.135-.845-.406-1.078-.27-.233-.681-.35-1.232-.35h-2.072v2.842h2.072zm7.775-1.68c1.026 0 1.782.243 2.267.728.495.485.742 1.237.742 2.254V265H87.56v-1.022a1.71 1.71 0 0 1-.7.84c-.326.196-.709.294-1.147.294-.467 0-.892-.093-1.275-.28a2.284 2.284 0 0 1-.895-.784 2.036 2.036 0 0 1-.323-1.12c0-.504.127-.901.379-1.19.26-.289.676-.499 1.246-.63.569-.131 1.348-.196 2.338-.196h.364v-.252c0-.411-.09-.7-.267-.868-.177-.168-.485-.252-.923-.252a4 4 0 0 0-1.12.182 5.43 5.43 0 0 0-1.177.504l-.56-1.414c.392-.243.873-.443 1.443-.602a5.8 5.8 0 0 1 1.61-.252zm-.379 5.698c.411 0 .742-.135.995-.406.251-.28.377-.639.377-1.078v-.238h-.237c-.757 0-1.289.061-1.597.182-.298.121-.448.341-.448.658 0 .252.084.462.252.63a.92.92 0 0 0 .659.252zm11.801-5.516l-4.144 9.38h-2.142l1.316-2.898-2.828-6.482h2.198l1.736 4.368 1.792-4.368h2.072zm9.117-.182c.784 0 1.367.238 1.75.714.382.476.574 1.204.574 2.184V265h-2.114v-4.074c0-.467-.075-.803-.224-1.008-.14-.205-.383-.308-.728-.308-.402 0-.714.14-.938.42-.224.28-.336.672-.336 1.176V265h-2.114v-4.074c0-.467-.075-.803-.224-1.008-.14-.205-.383-.308-.728-.308-.402 0-.714.14-.938.42-.224.28-.336.672-.336 1.176V265h-2.114v-6.874h2.058v.924c.214-.355.499-.625.854-.812.364-.187.779-.28 1.246-.28 1.017 0 1.698.425 2.044 1.274.224-.392.536-.7.938-.924.401-.233.844-.35 1.33-.35zm10.104 4.004h-4.48c.066.551.243.952.532 1.204.299.243.719.364 1.26.364.355 0 .705-.056 1.05-.168.355-.121.677-.289.966-.504l.56 1.414a3.805 3.805 0 0 1-1.232.616 4.8 4.8 0 0 1-1.442.224c-1.157 0-2.072-.317-2.744-.952-.662-.644-.994-1.517-.994-2.618 0-.7.145-1.321.434-1.862.29-.541.691-.961 1.204-1.26.514-.308 1.097-.462 1.75-.462.962 0 1.722.313 2.282.938.57.625.854 1.475.854 2.548v.518zm-3.08-2.548c-.401 0-.723.131-.966.392-.233.252-.378.621-.434 1.106h2.702c-.028-.495-.154-.868-.378-1.12-.214-.252-.522-.378-.924-.378zm8.669-1.456c.821 0 1.433.243 1.834.728.401.476.602 1.199.602 2.17V265h-2.114v-4.046c0-.467-.089-.807-.266-1.022-.168-.215-.434-.322-.798-.322-.439 0-.793.14-1.064.42-.261.28-.392.653-.392 1.12V265h-2.114v-6.874h2.058v.98c.243-.373.555-.658.938-.854a2.903 2.903 0 0 1 1.316-.294zm7.822 5.6c.215 0 .439-.014.672-.042l-.112 1.54c-.27.037-.541.056-.812.056-1.045 0-1.81-.229-2.296-.686-.476-.457-.714-1.153-.714-2.086v-2.632h-1.302v-1.582h1.302v-2.016h2.114v2.016h1.722v1.582h-1.722v2.618c0 .821.383 1.232 1.148 1.232z" fill="#01C7B1"/></g><defs><clipPath id="clip0_2740_22119"><path fill="#fff" d="M0 0h403v555H0z"/></clipPath></defs></svg>