<svg width="24" height="24" viewBox="0 0 24 24" fill="none" xmlns="http://www.w3.org/2000/svg"><path fill-rule="evenodd" clip-rule="evenodd" d="M12 .083C5.42.083.085 5.42.085 12c0 6.581 5.335 11.917 11.917 11.917 6.581 0 11.916-5.336 11.916-11.917 0-6.581-5.335-11.917-11.916-11.917zm4.017 7.901a1.083 1.083 0 0 1 0 1.532L13.533 12l2.484 2.484a1.083 1.083 0 0 1-1.532 1.532L12 13.532l-2.484 2.484a1.083 1.083 0 0 1-1.532-1.532L10.469 12 7.985 9.516a1.083 1.083 0 1 1 1.532-1.532L12 10.468l2.484-2.484a1.083 1.083 0 0 1 1.532 0z" fill="#ED1B2E"/></svg>