<svg width="20" height="18" viewBox="0 0 20 18" fill="none" xmlns="http://www.w3.org/2000/svg"><path d="M19.707 9.604c.188-.38.188-.828 0-1.209-.166-.335-.457-.511-.607-.596a7.731 7.731 0 0 0-.578-.278L3.264.655a7.863 7.863 0 0 0-.602-.253c-.164-.056-.494-.16-.86-.058a1.364 1.364 0 0 0-.903.815c-.139.353-.07.692-.03.86.044.185.117.405.19.626l1.477 4.45c.119.357.178.537.289.669a.91.91 0 0 0 .365.263c.16.064.349.064.726.064h6.586a.91.91 0 1 1 0 1.818H3.934c-.377 0-.565 0-.725.063a.908.908 0 0 0-.365.262c-.11.132-.17.31-.29.668l-1.488 4.446a7.89 7.89 0 0 0-.192.626c-.04.17-.111.508.027.862.156.4.49.703.904.818.366.102.696-.002.86-.059.18-.062.391-.157.604-.253l15.253-6.864c.207-.093.415-.187.578-.278.15-.085.441-.26.607-.596z" fill="#000"/></svg>