<svg width="50" height="50" viewBox="0 0 50 50" fill="none" xmlns="http://www.w3.org/2000/svg"><circle cx="25" cy="25" r="25" fill="#fff"/><path d="M15 31.717c-.01 3.402 1.545 3.994 3.613 2.537l9.318-6.7c1.177-.82 1.698-1.7 1.686-2.554H15v6.717z" fill="#009E96"/><path d="M35 31.717c.01 3.402-1.545 3.994-3.612 2.537l-9.319-6.7c-1.177-.82-1.698-1.7-1.686-2.554h14.605L35 31.717z" fill="#EF4923"/><path d="M35 18.283c.01-3.402-1.545-3.994-3.612-2.537l-9.319 6.7c-1.177.82-1.698 1.7-1.686 2.554h14.605L35 18.283z" fill="#F7961C"/><path d="M15 18.283c-.01-3.402 1.545-3.994 3.613-2.537l9.318 6.7c1.177.82 1.698 1.7 1.686 2.554H15v-6.717z" fill="#082E4D"/></svg>