<svg width="32" height="32" viewBox="0 0 32 32" fill="none" xmlns="http://www.w3.org/2000/svg"><g filter="url(#filter0_d_3773_6528)"><rect x="4" y="4" width="24" height="24" rx="12" fill="#F2F2F2"/><path d="M13.487 20c-.243 0-.434-.065-.574-.196-.13-.14-.196-.327-.196-.56 0-.243.065-.425.196-.546.14-.121.331-.182.574-.182h1.568v-6.874h.868l-2.058 1.246a.812.812 0 0 1-.504.126.782.782 0 0 1-.392-.196.892.892 0 0 1-.21-.392.739.739 0 0 1 .028-.448.815.815 0 0 1 .364-.392l1.932-1.162a3.9 3.9 0 0 1 .56-.28c.186-.084.36-.126.518-.126.196 0 .36.056.49.168.13.103.196.275.196.518v7.812h1.428c.242 0 .43.06.56.182.14.121.21.303.21.546 0 .243-.07.43-.21.56-.13.13-.318.196-.56.196h-4.788z" fill="#32BB78"/></g><defs><filter id="filter0_d_3773_6528" x="0" y="0" width="32" height="32" filterUnits="userSpaceOnUse" color-interpolation-filters="sRGB"><feFlood flood-opacity="0" result="BackgroundImageFix"/><feColorMatrix in="SourceAlpha" type="matrix" values="0 0 0 0 0 0 0 0 0 0 0 0 0 0 0 0 0 0 127 0" result="hardAlpha"/><feMorphology radius="4" operator="dilate" in="SourceAlpha" result="effect1_dropShadow_3773_6528"/><feOffset/><feColorMatrix type="matrix" values="0 0 0 0 0.929412 0 0 0 0 0.980392 0 0 0 0 0.968627 0 0 0 1 0"/><feBlend mode="normal" in2="BackgroundImageFix" result="effect1_dropShadow_3773_6528"/><feBlend mode="normal" in="SourceGraphic" in2="effect1_dropShadow_3773_6528" result="shape"/></filter></defs></svg>