<svg width="68" height="22" viewBox="0 0 68 22" fill="none" xmlns="http://www.w3.org/2000/svg"><rect width="68" height="22" rx="11" fill="#F7961C"/><rect x="8" y="5" width="12" height="12" rx="6" fill="#fff"/><path d="M11.773 11h4.455" stroke="#F7961C" stroke-width=".636" stroke-linecap="round" stroke-linejoin="round"/><path d="M29.103 14.09c-.967 0-1.7-.25-2.2-.75-.5-.5-.75-1.23-.75-2.19V7.54c0-.193.056-.347.17-.46a.603.603 0 0 1 .46-.18c.193 0 .346.06.46.18.113.113.17.267.17.46v3.68c0 .607.143 1.067.43 1.38.286.307.706.46 1.26.46.546 0 .963-.157 1.25-.47.286-.313.43-.77.43-1.37V7.54c0-.193.056-.347.17-.46a.603.603 0 0 1 .46-.18c.193 0 .346.06.46.18.113.113.17.267.17.46v3.61c0 .953-.25 1.683-.75 2.19-.5.5-1.23.75-2.19.75zm7.154-5.1c.586 0 1.023.167 1.31.5.286.333.43.837.43 1.51v2.46a.575.575 0 0 1-.17.44c-.107.107-.257.16-.45.16-.194 0-.347-.053-.46-.16a.575.575 0 0 1-.17-.44v-2.39c0-.38-.074-.657-.22-.83-.14-.173-.364-.26-.67-.26-.36 0-.65.113-.87.34-.214.227-.32.53-.32.91v2.23a.575.575 0 0 1-.17.44c-.114.107-.267.16-.46.16-.194 0-.347-.053-.46-.16-.107-.107-.16-.253-.16-.44V9.59a.55.55 0 0 1 .17-.42c.113-.107.266-.16.46-.16.173 0 .313.053.42.16.113.1.17.233.17.4v.27c.166-.273.39-.483.67-.63.28-.147.596-.22.95-.22zm5.82 0c.42 0 .793.107 1.12.32.332.213.59.517.77.91.186.387.28.833.28 1.34 0 .507-.094.95-.28 1.33a2.05 2.05 0 0 1-.76.88 2.07 2.07 0 0 1-1.13.31 1.93 1.93 0 0 1-.93-.22 1.544 1.544 0 0 1-.63-.61v2.04c0 .173-.058.31-.17.41a.655.655 0 0 1-.45.15.666.666 0 0 1-.46-.16.55.55 0 0 1-.17-.42V9.6a.58.58 0 0 1 .16-.43.63.63 0 0 1 .45-.16.63.63 0 0 1 .45.16c.113.107.17.25.17.43v.25c.146-.273.356-.483.63-.63.28-.153.596-.23.95-.23zm-.33 4.12c.392 0 .7-.133.92-.4.22-.273.33-.657.33-1.15 0-.507-.11-.9-.33-1.18-.22-.28-.528-.42-.92-.42-.4 0-.71.137-.93.41-.214.273-.32.663-.32 1.17 0 .5.106.887.32 1.16.22.273.53.41.93.41zm5.645-4.12c.68 0 1.183.17 1.51.51.333.333.5.843.5 1.53v2.44a.58.58 0 0 1-.16.43c-.107.1-.253.15-.44.15a.602.602 0 0 1-.43-.16.568.568 0 0 1-.16-.42v-.22c-.113.26-.293.463-.54.61-.24.147-.52.22-.84.22-.327 0-.623-.067-.89-.2a1.583 1.583 0 0 1-.63-.55 1.389 1.389 0 0 1-.23-.78c0-.36.09-.643.27-.85.187-.207.487-.357.9-.45.413-.093.983-.14 1.71-.14h.25v-.23c0-.327-.07-.563-.21-.71-.14-.153-.367-.23-.68-.23-.193 0-.39.03-.59.09-.2.053-.437.133-.71.24-.173.087-.3.13-.38.13a.391.391 0 0 1-.3-.13.508.508 0 0 1-.11-.34.51.51 0 0 1 .08-.29.83.83 0 0 1 .29-.24c.233-.127.51-.227.83-.3a4.4 4.4 0 0 1 .96-.11zm-.31 4.19c.333 0 .603-.11.81-.33.213-.227.32-.517.32-.87v-.21h-.18c-.447 0-.793.02-1.04.06-.247.04-.423.11-.53.21a.535.535 0 0 0-.16.41.7.7 0 0 0 .22.53c.153.133.34.2.56.2zm4.21.88a.68.68 0 0 1-.45-.15c-.113-.107-.17-.257-.17-.45V9.6c0-.193.057-.34.17-.44.12-.1.27-.15.45-.15s.33.05.45.15c.12.1.18.247.18.44v3.86c0 .193-.06.343-.18.45a.68.68 0 0 1-.45.15zm0-5.94c-.226 0-.406-.06-.54-.18a.645.645 0 0 1-.2-.49c0-.2.067-.36.2-.48.134-.12.314-.18.54-.18.22 0 .397.06.53.18a.6.6 0 0 1 .21.48c0 .2-.066.363-.2.49-.133.12-.313.18-.54.18zm6-1.22c.186 0 .34.053.46.16.12.107.18.247.18.42v5.98c0 .18-.057.323-.17.43a.63.63 0 0 1-.45.16.63.63 0 0 1-.45-.16.563.563 0 0 1-.17-.43v-.25a1.56 1.56 0 0 1-.64.64c-.274.153-.587.23-.94.23-.42 0-.797-.107-1.13-.32a2.175 2.175 0 0 1-.77-.9 3.21 3.21 0 0 1-.27-1.35c0-.507.09-.95.27-1.33.186-.38.443-.673.77-.88.326-.207.703-.31 1.13-.31.353 0 .666.073.94.22.273.147.483.353.63.62V7.46c0-.167.053-.3.16-.4a.63.63 0 0 1 .45-.16zm-1.85 6.21c.4 0 .706-.137.92-.41.22-.273.33-.663.33-1.17 0-.507-.11-.893-.33-1.16-.214-.273-.517-.41-.91-.41-.4 0-.71.133-.93.4-.22.267-.33.65-.33 1.15 0 .507.11.9.33 1.18.22.28.526.42.92.42z" fill="#fff"/></svg>