<svg width="70" height="62" viewBox="0 0 70 62" fill="none" xmlns="http://www.w3.org/2000/svg"><rect x=".5" y="1" width="69" height="60" rx="5.5" fill="#CCF3EF"/><rect x=".5" y="1" width="69" height="60" rx="5.5" stroke="#E6E6E6"/><path d="M34.48 13.374h-9.205c-3.29 0-4.935 0-6.192.64a5.875 5.875 0 0 0-2.568 2.568c-.64 1.257-.64 2.902-.64 6.192v16.45c0 3.29 0 4.936.64 6.193a5.875 5.875 0 0 0 2.568 2.567c1.257.64 2.902.64 6.192.64h18.017c1.82 0 2.731 0 3.479-.2a5.875 5.875 0 0 0 4.154-4.154c.2-.747.2-1.658.2-3.479m-3.917-17.625v-11.75m-5.875 5.875h11.75m-22.52 6.854a3.917 3.917 0 1 1-7.834 0 3.917 3.917 0 0 1 7.834 0zm8.793 6.694L22.79 45.9c-.932.846-1.398 1.27-1.439 1.637a.98.98 0 0 0 .327.845c.277.243.907.243 2.166.243h18.382c2.819 0 4.228 0 5.335-.473a5.875 5.875 0 0 0 3.09-3.091c.474-1.107.474-2.516.474-5.334 0-.949 0-1.423-.104-1.864a3.916 3.916 0 0 0-.732-1.523c-.28-.357-.65-.654-1.39-1.246l-5.478-4.382c-.742-.593-1.112-.89-1.52-.994a1.958 1.958 0 0 0-1.092.034c-.4.13-.751.45-1.453 1.088z" stroke="#32BB78" stroke-width="2" stroke-linecap="round" stroke-linejoin="round"/></svg>