<svg width="22" height="20" viewBox="0 0 22 20" fill="none" xmlns="http://www.w3.org/2000/svg"><path d="M3.272 18.728L9.87 12.13c.396-.396.594-.594.822-.668a1 1 0 0 1 .618 0c.228.074.426.272.822.668l6.553 6.553M13 13l2.869-2.869c.396-.396.594-.594.822-.668a1 1 0 0 1 .618 0c.228.074.426.272.822.668L21 13M9 7a2 2 0 1 1-4 0 2 2 0 0 1 4 0zM5.8 19h10.4c1.68 0 2.52 0 3.162-.327a3 3 0 0 0 1.311-1.311C21 16.72 21 15.88 21 14.2V5.8c0-1.68 0-2.52-.327-3.162a3 3 0 0 0-1.311-1.311C18.72 1 17.88 1 16.2 1H5.8c-1.68 0-2.52 0-3.162.327a3 3 0 0 0-1.311 1.311C1 3.28 1 4.12 1 5.8v8.4c0 1.68 0 2.52.327 3.162a3 3 0 0 0 1.311 1.311C3.28 19 4.12 19 5.8 19z" stroke="#030F1A" stroke-width="2" stroke-linecap="round" stroke-linejoin="round"/></svg>