<svg width="20" height="24" viewBox="0 0 20 24" fill="none" xmlns="http://www.w3.org/2000/svg"><path d="M12.167 1.458v4.475c0 .606 0 .91.118 1.142.104.203.27.37.473.473.232.118.535.118 1.142.118h4.475m-4.042 5.417H5.667m8.666 4.333H5.667m2.166-8.667H5.667m6.5-7.583H6.533c-1.82 0-2.73 0-3.425.354a3.25 3.25 0 0 0-1.42 1.42c-.355.696-.355 1.606-.355 3.426v11.267c0 1.82 0 2.73.355 3.425a3.25 3.25 0 0 0 1.42 1.42c.695.355 1.605.355 3.425.355h6.934c1.82 0 2.73 0 3.425-.354a3.25 3.25 0 0 0 1.42-1.42c.355-.696.355-1.606.355-3.426V7.666l-6.5-6.5z" stroke="#030F1A" stroke-width="2" stroke-linecap="round" stroke-linejoin="round"/></svg>