<svg width="22" height="16" viewBox="0 0 22 16" fill="none" xmlns="http://www.w3.org/2000/svg"><path d="M21 4.931c0-.605 0-.908-.12-1.049a.5.5 0 0 0-.42-.173c-.183.014-.397.228-.826.657L16 8l3.634 3.634c.429.429.643.643.827.657a.5.5 0 0 0 .42-.173c.119-.14.119-.444.119-1.05V4.932zM1 5.8c0-1.68 0-2.52.327-3.162a3 3 0 0 1 1.311-1.311C3.28 1 4.12 1 5.8 1h5.4c1.68 0 2.52 0 3.162.327a3 3 0 0 1 1.311 1.311C16 3.28 16 4.12 16 5.8v4.4c0 1.68 0 2.52-.327 3.162a3 3 0 0 1-1.311 1.311C13.72 15 12.88 15 11.2 15H5.8c-1.68 0-2.52 0-3.162-.327a3 3 0 0 1-1.311-1.311C1 12.72 1 11.88 1 10.2V5.8z" stroke="#030F1A" stroke-width="2" stroke-linecap="round" stroke-linejoin="round"/></svg>