<svg width="70" height="62" viewBox="0 0 70 62" fill="none" xmlns="http://www.w3.org/2000/svg"><rect x=".5" y="1" width="69" height="60" rx="5.5" fill="#CCF3EF"/><rect x=".5" y="1" width="69" height="60" rx="5.5" stroke="#E6E6E6"/><path d="M53.084 24.99c0-1.186 0-1.78-.235-2.054a.98.98 0 0 0-.821-.34c-.36.028-.78.447-1.619 1.286L43.292 31l7.117 7.118c.84.839 1.258 1.258 1.619 1.286a.98.98 0 0 0 .821-.34c.235-.275.235-.868.235-2.054V24.99zm-39.167 1.701c0-3.29 0-4.935.64-6.192a5.875 5.875 0 0 1 2.568-2.568c1.256-.64 2.902-.64 6.192-.64h10.575c3.29 0 4.935 0 6.192.64a5.875 5.875 0 0 1 2.568 2.568c.64 1.257.64 2.902.64 6.192v8.617c0 3.29 0 4.935-.64 6.192a5.875 5.875 0 0 1-2.568 2.567c-1.257.64-2.902.64-6.192.64H23.317c-3.29 0-4.936 0-6.192-.64a5.875 5.875 0 0 1-2.568-2.567c-.64-1.257-.64-2.902-.64-6.192V26.69z" stroke="#32BB78" stroke-width="2" stroke-linecap="round" stroke-linejoin="round"/></svg>