<svg width="20" height="14" viewBox="0 0 20 14" fill="none" xmlns="http://www.w3.org/2000/svg"><path d="M8.334 7a1.667 1.667 0 1 1 3.333 0 1.667 1.667 0 0 1-3.333 0z" fill="#9CABB8"/><path fill-rule="evenodd" clip-rule="evenodd" d="M10 .333c-2.385 0-4.329 1.054-5.77 2.256-1.438 1.2-2.424 2.59-2.918 3.371l-.02.032a1.949 1.949 0 0 0-.29.635 1.799 1.799 0 0 0 0 .745c.065.28.192.481.29.635l.02.032c.494.782 1.48 2.17 2.919 3.371 1.44 1.202 3.384 2.256 5.77 2.256 2.384 0 4.328-1.054 5.769-2.256 1.438-1.2 2.424-2.589 2.918-3.371l.02-.032c.098-.154.226-.354.29-.635a1.797 1.797 0 0 0 0-.745c-.064-.28-.192-.48-.29-.635l-.02-.032c-.494-.782-1.48-2.17-2.918-3.37C14.33 1.386 12.385.332 10 .332zm0 3.333a3.333 3.333 0 1 0 0 6.667 3.333 3.333 0 0 0 0-6.667z" fill="#9CABB8"/></svg>