<svg width="79" height="78" viewBox="0 0 79 78" fill="none" xmlns="http://www.w3.org/2000/svg"><path d="M58.658 12.994c0 10.177-.004 20.362-.012 30.555a23.475 23.475 0 0 1-1.127 6.869 32.027 32.027 0 0 1-5.154 10.009 47.652 47.652 0 0 1-3.344 3.92 57.289 57.289 0 0 1-9.733 8.1 76.982 76.982 0 0 1-6.988 4.136c-.647.348-1.32.623-1.99.947-.192.1-.384.228-.575.348h-.654c-.192-.12-.384-.252-.575-.348-.671-.324-1.343-.6-1.99-.947a77.005 77.005 0 0 1-6.988-4.136 57.287 57.287 0 0 1-9.733-8.1 47.65 47.65 0 0 1-3.344-3.92 32.03 32.03 0 0 1-5.154-10.009A23.475 23.475 0 0 1 .17 43.549C.158 33.36.154 23.175.158 12.994c0-.875.012-.875.839-1.223 5.07-2.11 10.145-4.22 15.224-6.329 3.416-1.426 6.82-2.841 10.237-4.279A125.2 125.2 0 0 0 29.083 0h.647c.875.4 1.75.791 2.625 1.163 3.416 1.438 6.82 2.853 10.237 4.279 5.07 2.11 10.145 4.22 15.224 6.329.83.348.842.348.842 1.223z" fill="#FFBF66"/><mask id="mask0_6805_15685" style="mask-type:luminance" maskUnits="userSpaceOnUse" x="0" y="0" width="59" height="78"><path d="M58.658 12.994c0 10.177-.004 20.362-.012 30.555a23.475 23.475 0 0 1-1.127 6.869 32.027 32.027 0 0 1-5.154 10.009 47.652 47.652 0 0 1-3.344 3.92 57.289 57.289 0 0 1-9.733 8.1 76.982 76.982 0 0 1-6.988 4.136c-.647.348-1.32.623-1.99.947-.192.1-.384.228-.575.348h-.654c-.192-.12-.384-.252-.575-.348-.671-.324-1.343-.6-1.99-.947a77.005 77.005 0 0 1-6.988-4.136 57.287 57.287 0 0 1-9.733-8.1 47.65 47.65 0 0 1-3.344-3.92 32.03 32.03 0 0 1-5.154-10.009A23.475 23.475 0 0 1 .17 43.549C.158 33.36.154 23.175.158 12.994c0-.875.012-.875.839-1.223 5.07-2.11 10.145-4.22 15.224-6.329 3.416-1.426 6.82-2.841 10.237-4.279A125.2 125.2 0 0 0 29.083 0h.647c.875.4 1.75.791 2.625 1.163 3.416 1.438 6.82 2.853 10.237 4.279 5.07 2.11 10.145 4.22 15.224 6.329.83.348.842.348.842 1.223z" fill="#fff"/></mask><g mask="url(#mask0_6805_15685)"><path d="M59.373 42.536c12.739 0 23.066-10.327 23.066-23.066 0-12.739-10.327-23.066-23.066-23.066-12.74 0-23.066 10.327-23.066 23.066 0 12.74 10.327 23.066 23.066 23.066zM29.203 0h-29v78h29V0z" fill="#C70"/><path d="M42.188 49.605a1 1 0 0 1-.727.935H17.05a.894.894 0 0 1-.831-.832v-.1c.1-.519.1-1.039.208-1.558a3.946 3.946 0 0 1 2.8-3.012l3.739-1.246c.208-.1 1.246-.519 1.454-.623a.1.1 0 0 0 .1-.1 3.847 3.847 0 0 0 1.766-4.259c-.1-.208-.1-.312-.208-.519-.52-.83-1.04-1.558-1.662-2.493-.208-.208-.312-.519-.52-.727-1.038-.208-1.038-.208-1.142-1.454-.1-.415-.1-.83-.208-1.143-.208-.727 0-1.246.623-1.454v-1.983a4.26 4.26 0 0 1 1.454-3.22 5.5 5.5 0 0 1 2.196-1.142c.727-.1 1.454-.208 1.766-.208a7.9 7.9 0 0 1 3.739.623c.472.239.924.517 1.35.831a4.013 4.013 0 0 1 1.143 2.8v2.186a1.054 1.054 0 0 1 .727 1.35.382.382 0 0 1-.1.312c-.1.415-.1.831-.208 1.246-.1.727-.312 1.35-1.04 1.246-.726 1.143-1.35 2.181-2.076 3.116a3.82 3.82 0 0 0 .935 4.467h.1c.158.127.333.232.519.312.1 0 1.454.727 1.662.831l.935.312 2.8.935a3.945 3.945 0 0 1 2.8 3.012l.317 1.56z" fill="#fff"/><mask id="mask1_6805_15685" style="mask-type:luminance" maskUnits="userSpaceOnUse" x="14" y="21" width="16" height="32"><path d="M29.002 21.44h-15v31h15v-31z" fill="#fff"/></mask><g mask="url(#mask1_6805_15685)"><path d="M42.001 49.602a1 1 0 0 1-.727.935H16.866a.894.894 0 0 1-.83-.831v-.1c.1-.52.1-1.04.207-1.558a3.946 3.946 0 0 1 2.8-3.012l3.74-1.246c.207-.1 1.245-.52 1.453-.623a.1.1 0 0 0 .1-.1 3.847 3.847 0 0 0 1.766-4.258c-.1-.208-.1-.312-.208-.52-.519-.83-1.039-1.557-1.662-2.492-.208-.208-.312-.52-.519-.727-1.039-.208-1.039-.208-1.143-1.454-.1-.415-.1-.831-.208-1.143-.208-.727 0-1.246.623-1.454v-1.982a4.26 4.26 0 0 1 1.454-3.22 5.5 5.5 0 0 1 2.181-1.143c.727-.1 1.454-.208 1.766-.208a7.9 7.9 0 0 1 3.74.623c.472.239.923.517 1.35.83a4.013 4.013 0 0 1 1.142 2.8v2.188a1.054 1.054 0 0 1 .727 1.35.382.382 0 0 1-.1.312c-.1.415-.1.83-.208 1.246-.1.727-.312 1.35-1.039 1.246-.727 1.143-1.35 2.18-2.077 3.116a3.82 3.82 0 0 0 .935 4.466h.1c.158.127.333.231.52.312.1 0 1.453.727 1.661.83l.935.313 2.8.935a3.945 3.945 0 0 1 2.8 3.012l.33 1.557z" fill="#F2F2F2"/></g></g><path d="M59.372 38.94c10.753 0 19.47-8.717 19.47-19.47C78.842 8.717 70.125 0 59.372 0c-10.753 0-19.47 8.717-19.47 19.47 0 10.753 8.717 19.47 19.47 19.47z" fill="#F34"/><path d="M59.502 19.94v-8" stroke="#fff" stroke-width="2" stroke-linecap="round"/><path d="M59.502 24.969v-.03" stroke="#fff" stroke-width="3" stroke-linecap="round"/></svg>