<svg width="16" height="17" viewBox="0 0 16 17" fill="none" xmlns="http://www.w3.org/2000/svg"><g clip-path="url(#clip0_276_916)"><path d="M14.816.125H1.18C.528.125 0 .641 0 1.278v13.69a1.17 1.17 0 0 0 1.181 1.157h13.635c.653 0 1.184-.519 1.184-1.153V1.278c0-.637-.531-1.153-1.184-1.153zM4.746 13.759H2.373V6.122h2.375v7.637zM3.56 5.081a1.376 1.376 0 1 1-.004-2.751 1.376 1.376 0 0 1 .004 2.751zm10.075 8.678h-2.372v-3.712c0-.885-.015-2.025-1.234-2.025-1.234 0-1.422.966-1.422 1.962v3.775h-2.37V6.122h2.275v1.044h.032c.315-.6 1.09-1.235 2.243-1.235 2.404 0 2.847 1.582 2.847 3.638v4.19z" fill="#36A9E1"/></g><defs><clipPath id="clip0_276_916"><path fill="#fff" transform="translate(0 .125)" d="M0 0h16v16H0z"/></clipPath></defs></svg>