<svg xmlns="http://www.w3.org/2000/svg" width="1920" height="1506.436" viewBox="0 0 1920 1506.436">
  <g id="bg_2" data-name="bg 2" transform="translate(0 -1080)">
    <path id="Path_31311" data-name="Path 31311" d="M751.053,371.315c.482-158.6-67.592-186.2-158.028-118.283L185.41,565.381c-51.494,38.188-74.313,79.181-73.782,119.024l638.893-.012Z" transform="translate(1235.594 2698.055) rotate(-90)" fill="#f7961c"/>
    <path id="Subtraction_49" data-name="Subtraction 49" d="M-1371.376,1311.826c-76.189,0-156.123-.695-237.583-2.067-65.174-1.1-131.452-2.628-196.994-4.549-111.644-3.272-183.335-6.585-184.046-6.618V0H-70V1081.968a51.107,51.107,0,0,1-4.117,5.789,143.586,143.586,0,0,1-14.945,15.8,270.865,270.865,0,0,1-29.664,23.456A452.5,452.5,0,0,1-167,1155.774c-45.579,23.712-102.081,45.253-167.937,64.026-19.037,5.426-39.121,10.69-59.694,15.646-21.654,5.216-44.449,10.233-67.751,14.914-24.435,4.908-50.1,9.58-76.294,13.887-27.373,4.5-56.08,8.73-85.323,12.567-49.87,6.543-106.594,12.256-168.6,16.979-57.178,4.356-120.207,7.975-187.335,10.757C-1096.447,1309.377-1228.148,1311.825-1371.376,1311.826ZM-1989.5.5V80.045c4.337,5.017,9.04,9.969,13.978,14.718,4.974,4.783,10.336,9.505,15.938,14.035a310.712,310.712,0,0,0,38.1,26.118,446.278,446.278,0,0,0,46.967,23.684c17.145,7.483,36.161,14.7,56.519,21.447,20.393,6.761,42.853,13.291,66.755,19.41,23.861,6.108,50,12.02,77.675,17.571,27.532,5.522,57.57,10.882,89.28,15.932,31.426,5,65.6,9.88,101.568,14.491,26.625,3.413,55.308,6.63,85.252,9.561,28.824,2.821,59.594,5.455,91.455,7.826,59.931,4.461,125.993,8.167,196.349,11.015,122.118,4.944,260.155,7.452,410.277,7.453h.123c296.564,0,556.24-9.737,628.764-12.721V.5Z" transform="translate(1990 1080)" fill="#d6f6dd"/>
  </g>
</svg>
