<svg xmlns="http://www.w3.org/2000/svg" width="21.464" height="21.42" viewBox="0 0 21.464 21.42">
  <path id="call-outline" d="M67.37,63.685a17.644,17.644,0,0,0-3.51-2.344c-1.168-.588-1.264-.637-2.183.046-.613.455-1.02.862-1.737.709A9.3,9.3,0,0,1,56.3,59.721a9.61,9.61,0,0,1-2.429-3.677c-.153-.714.26-1.117.711-1.731.636-.865.588-1.01.044-2.178a15.978,15.978,0,0,0-2.351-3.5c-.826-.816-.826-.672-1.358-.45a7.7,7.7,0,0,0-1.242.662,3.721,3.721,0,0,0-1.495,1.574c-.3.638-.433,2.134,1.109,4.935a24.445,24.445,0,0,0,4.863,6.466,26.606,26.606,0,0,0,6.478,4.845c3.114,1.744,4.308,1.4,4.948,1.106a3.709,3.709,0,0,0,1.578-1.49,7.65,7.65,0,0,0,.663-1.24C68.043,64.51,68.187,64.51,67.37,63.685Z" transform="translate(-47.227 -47.315)" fill="none" stroke="#01c7b1" stroke-width="1.5"/>
</svg>
