<svg width="38" height="36" viewBox="0 0 38 36" fill="none" xmlns="http://www.w3.org/2000/svg">
<rect width="37.5" height="35.5" rx="17.75" fill="#2E2E2E" fill-opacity="0.5"/>
<path fill-rule="evenodd" clip-rule="evenodd" d="M14.348 10.237C14.615 8.927 15.781 8 17.116 8H20.384C21.719 8 22.884 8.927 23.152 10.237C23.1815 10.3813 23.2588 10.5114 23.3712 10.6064C23.4837 10.7015 23.6248 10.7559 23.772 10.761H23.805C25.208 10.823 26.286 10.995 27.186 11.586C27.753 11.958 28.241 12.436 28.621 12.995C29.094 13.689 29.302 14.487 29.402 15.451C29.5 16.394 29.5 17.575 29.5 19.071V19.156C29.5 20.652 29.5 21.834 29.402 22.776C29.302 23.74 29.094 24.538 28.621 25.233C28.2398 25.7923 27.7522 26.2711 27.186 26.642C26.483 27.103 25.676 27.307 24.698 27.404C23.74 27.5 22.539 27.5 21.013 27.5H16.487C14.961 27.5 13.76 27.5 12.802 27.404C11.824 27.307 11.017 27.104 10.314 26.642C9.74771 26.2708 9.26009 25.7917 8.879 25.232C8.406 24.538 8.198 23.74 8.098 22.776C8 21.834 8 20.652 8 19.156V19.071C8 17.575 8 16.394 8.098 15.451C8.198 14.487 8.406 13.689 8.879 12.995C9.26009 12.4353 9.74771 11.9562 10.314 11.585C11.214 10.995 12.292 10.823 13.695 10.762L13.712 10.761H13.728C13.8752 10.7559 14.0163 10.7015 14.1288 10.6064C14.2412 10.5114 14.3185 10.3813 14.348 10.237ZM17.116 9.5C16.476 9.5 15.939 9.943 15.818 10.536C15.623 11.496 14.771 12.252 13.746 12.261C12.398 12.321 11.676 12.486 11.136 12.84C10.7349 13.1032 10.3893 13.4426 10.119 13.839C9.843 14.244 9.677 14.763 9.589 15.606C9.501 16.462 9.5 17.566 9.5 19.114C9.5 20.662 9.5 21.765 9.59 22.621C9.677 23.464 9.843 23.983 10.12 24.389C10.388 24.783 10.733 25.123 11.137 25.387C11.554 25.661 12.088 25.826 12.951 25.912C13.825 25.999 14.951 26 16.528 26H20.972C22.548 26 23.674 26 24.549 25.912C25.412 25.826 25.946 25.662 26.363 25.388C26.767 25.123 27.113 24.783 27.381 24.388C27.657 23.983 27.823 23.464 27.911 22.621C27.999 21.765 28 20.661 28 19.114C28 17.566 28 16.462 27.91 15.606C27.823 14.763 27.657 14.244 27.38 13.839C27.11 13.4421 26.7644 13.1023 26.363 12.839C25.825 12.486 25.103 12.321 23.753 12.261C22.729 12.251 21.877 11.497 21.682 10.536C21.618 10.2403 21.4539 9.97569 21.2174 9.78694C20.9809 9.59819 20.6866 9.49684 20.384 9.5H17.116ZM18.75 16.5C18.1533 16.5 17.581 16.7371 17.159 17.159C16.7371 17.581 16.5 18.1533 16.5 18.75C16.5 19.3467 16.7371 19.919 17.159 20.341C17.581 20.7629 18.1533 21 18.75 21C19.3467 21 19.919 20.7629 20.341 20.341C20.7629 19.919 21 19.3467 21 18.75C21 18.1533 20.7629 17.581 20.341 17.159C19.919 16.7371 19.3467 16.5 18.75 16.5ZM15 18.75C15 17.7554 15.3951 16.8016 16.0983 16.0983C16.8016 15.3951 17.7554 15 18.75 15C19.7446 15 20.6984 15.3951 21.4017 16.0983C22.1049 16.8016 22.5 17.7554 22.5 18.75C22.5 19.7446 22.1049 20.6984 21.4017 21.4017C20.6984 22.1049 19.7446 22.5 18.75 22.5C17.7554 22.5 16.8016 22.1049 16.0983 21.4017C15.3951 20.6984 15 19.7446 15 18.75ZM24 15.75C24 15.5511 24.079 15.3603 24.2197 15.2197C24.3603 15.079 24.5511 15 24.75 15H25.75C25.9489 15 26.1397 15.079 26.2803 15.2197C26.421 15.3603 26.5 15.5511 26.5 15.75C26.5 15.9489 26.421 16.1397 26.2803 16.2803C26.1397 16.421 25.9489 16.5 25.75 16.5H24.75C24.5511 16.5 24.3603 16.421 24.2197 16.2803C24.079 16.1397 24 15.9489 24 15.75Z" fill="white"/>
</svg>
