<svg xmlns="http://www.w3.org/2000/svg" width="18.185" height="18" viewBox="0 0 18.185 18">
  <g id="Group_9247" transform="translate(-2.702 -3.1)">
    <path id="Path_6560" d="M13.477,4.1h4.858c.067,0,.067.068.135.068A1.92,1.92,0,0,1,19.82,5.592c0,.136.067.2.067.339v4.475a2.016,2.016,0,0,1-.675,1.288c-2.564,2.508-5.128,5.085-7.759,7.661l-.2.2a1.839,1.839,0,0,1-.877.475c-.135,0-.27.068-.4.068H9.631a2.275,2.275,0,0,1-1.282-.61L6.932,18.066l-2.5-2.508A2.032,2.032,0,0,1,4.5,12.71h0L8.349,8.846,12.4,4.778a2.423,2.423,0,0,1,.675-.475C13.275,4.168,13.342,4.1,13.477,4.1Zm3.441,3.932a1.028,1.028,0,0,0,1.012-.949.979.979,0,1,0-1.957-.068.905.905,0,0,0,.945,1.017Z" transform="translate(0)" fill="none" stroke="#fff" stroke-linecap="round" stroke-linejoin="round" stroke-width="2"/>
    <path id="Path_6561" d="M11.2,16.285h0a1.3,1.3,0,0,1-.133-1.709h0a1.216,1.216,0,0,1,1.666.137h0a1.291,1.291,0,0,1,.133,1.71h0a1.206,1.206,0,0,1-1.666-.137Z" transform="translate(-3.263 -2.248)" fill="none" stroke="#fff" stroke-linecap="round" stroke-linejoin="round" stroke-width="1.5"/>
    <path id="Path_6562" d="M16.881,15.966h0a1.128,1.128,0,0,1-.2-1.573,1.055,1.055,0,0,1,1.532-.205l.2.205h0a1.291,1.291,0,0,1,.133,1.709h0a1.216,1.216,0,0,1-1.666-.137Z" transform="translate(-3.044 -3.181)" fill="none" stroke="#fff" stroke-linecap="round" stroke-linejoin="round" stroke-width="1.5"/>
    <line id="Line_100" x2="0.8" y2="6.291" transform="translate(11.255 8.955)" fill="none" stroke="#fff" stroke-linecap="round" stroke-linejoin="round" stroke-width="2"/>
  </g>
</svg>
