<svg xmlns="http://www.w3.org/2000/svg" width="30.061" height="30.061" viewBox="0 0 30.061 30.061">
  <g id="Icon_ionic-ios-add-circle-outline" data-name="Icon ionic-ios-add-circle-outline" transform="translate(-3.375 -3.375)">
    <path id="Path_32878" data-name="Path 32878" d="M24.747,17.051H19.364V11.668a1.156,1.156,0,0,0-2.312,0v5.383H11.668a1.107,1.107,0,0,0-1.156,1.156,1.119,1.119,0,0,0,1.156,1.156h5.383v5.383A1.12,1.12,0,0,0,18.208,25.9a1.15,1.15,0,0,0,1.156-1.156V19.364h5.383a1.156,1.156,0,0,0,0-2.312Z" transform="translate(0.198 0.198)"/>
    <path id="Path_32879" data-name="Path 32879" d="M18.405,5.4a13,13,0,1,1-9.2,3.808,12.921,12.921,0,0,1,9.2-3.808m0-2.023a15.03,15.03,0,1,0,15.03,15.03,15.028,15.028,0,0,0-15.03-15.03Z"/>
  </g>
</svg>
