<svg xmlns="http://www.w3.org/2000/svg" width="16.091" height="12.422" viewBox="0 0 16.091 12.422">
  <g id="Group_39949" data-name="Group 39949" transform="translate(-960 -1049.773)">
    <path id="Icon_awesome-caret-down" data-name="Icon awesome-caret-down" d="M1.63,13.5H12.38a.834.834,0,0,1,.589,1.425L7.6,20.3a.837.837,0,0,1-1.182,0L1.041,14.925A.834.834,0,0,1,1.63,13.5Z" transform="translate(980.546 1048.979) rotate(90)" fill="#01c7b1"/>
    <path id="Icon_awesome-caret-down-2" data-name="Icon awesome-caret-down" d="M1.63,13.5H12.38a.834.834,0,0,1,.589,1.425L7.6,20.3a.837.837,0,0,1-1.182,0L1.041,14.925A.834.834,0,0,1,1.63,13.5Z" transform="translate(989.591 1048.979) rotate(90)" fill="#01c7b1"/>
  </g>
</svg>
