<svg xmlns="http://www.w3.org/2000/svg" width="16.093" height="12.422" viewBox="0 0 16.093 12.422">
  <g id="Group_39950" data-name="Group 39950" transform="translate(-1241.954 -1049.772)">
    <path id="Icon_awesome-caret-down" data-name="Icon awesome-caret-down" d="M1.63,13.5H12.38a.834.834,0,0,1,.589,1.425L7.6,20.3a.837.837,0,0,1-1.182,0L1.041,14.925A.834.834,0,0,1,1.63,13.5Z" transform="translate(1228.454 1062.988) rotate(-90)" fill="#01c7b1"/>
    <path id="Icon_awesome-caret-down-2" data-name="Icon awesome-caret-down" d="M1.63,13.5H12.38a.834.834,0,0,1,.589,1.425L7.6,20.3a.837.837,0,0,1-1.182,0L1.041,14.925A.834.834,0,0,1,1.63,13.5Z" transform="translate(1237.5 1062.988) rotate(-90)" fill="#01c7b1"/>
  </g>
</svg>
