<svg xmlns="http://www.w3.org/2000/svg" width="17.999" height="11.454" viewBox="0 0 17.999 11.454">
  <path id="ic_people_outline_24px" d="M13.681,11.545A9.807,9.807,0,0,0,10,12.363a9.651,9.651,0,0,0-3.682-.818C4.543,11.545,1,12.429,1,14.2v2.25H19V14.2C19,12.429,15.457,11.545,13.681,11.545Zm-3.273,3.682H2.227V14.2c0-.442,2.094-1.432,4.091-1.432s4.091.99,4.091,1.432Zm7.363,0H11.636V14.2a1.489,1.489,0,0,0-.425-1,7.893,7.893,0,0,1,2.471-.434c2,0,4.091.99,4.091,1.432Zm-11.454-4.5A2.864,2.864,0,1,0,3.454,7.864,2.867,2.867,0,0,0,6.318,10.727Zm0-4.5A1.636,1.636,0,1,1,4.682,7.864,1.641,1.641,0,0,1,6.318,6.227Zm7.363,4.5a2.864,2.864,0,1,0-2.864-2.864A2.867,2.867,0,0,0,13.681,10.727Zm0-4.5a1.636,1.636,0,1,1-1.636,1.636A1.641,1.641,0,0,1,13.681,6.227Z" transform="translate(-1 -5)"/>
</svg>
