<svg xmlns="http://www.w3.org/2000/svg" width="182.935" height="184.496" viewBox="0 0 182.935 184.496">
  <g id="data-analysis-svgrepo-com" transform="translate(47.466) rotate(19)">
    <path id="path35563" d="M120.714,0a2.513,2.513,0,0,0-2.225,1.273l-4.047,6.9a12.445,12.445,0,0,0-3.839-.606,12.548,12.548,0,0,0-8.554,21.746L85.731,57.155a17.452,17.452,0,0,0-7.8-1.834,17.641,17.641,0,0,0-17.37,14.818L42.734,67.323A12.564,12.564,0,1,0,20.611,76L.562,101.518a2.514,2.514,0,1,0,3.9,3.167l.049-.062L24.559,79.112a12.442,12.442,0,0,0,5.624,1.341,12.614,12.614,0,0,0,11.764-8.165L60.5,75.216A17.588,17.588,0,1,0,89.875,60.023L106.331,31.95a12.45,12.45,0,0,0,4.271.753,12.548,12.548,0,0,0,8.213-22.05l4.01-6.838A2.513,2.513,0,0,0,120.714,0ZM110.6,12.6a7.558,7.558,0,0,1,3.307.761,2.522,2.522,0,0,0,.729.4,7.549,7.549,0,0,1-7.6,13.032,2.515,2.515,0,0,0-.778-.481A7.547,7.547,0,0,1,110.6,12.6Zm0,1.257a6.3,6.3,0,0,0-6.283,6.283,1.257,1.257,0,1,0,2.513.035v-.036a3.751,3.751,0,0,1,3.77-3.77,1.257,1.257,0,0,0,.035-2.513Zm-7.1,42.337a2.513,2.513,0,0,0-1.65,4.355A31,31,0,1,1,50.044,89a2.513,2.513,0,1,0-4.946.9c.005.027.011.054.016.081a36.006,36.006,0,0,0,53.317,24.187l27.04,30.775a2.514,2.514,0,0,0,3.547.228q.06-.054.118-.11l13.4-13.4a2.514,2.514,0,0,0,0-3.555c-.027-.027-.054-.053-.082-.079l-30.418-27.762c.333-.609.656-1.225.956-1.858a36.041,36.041,0,0,0-7.675-41.491A2.507,2.507,0,0,0,103.5,56.191ZM30.184,60.347A7.539,7.539,0,1,1,25.893,74.1l0,0a2.506,2.506,0,0,0-.707-.556,7.547,7.547,0,0,1,5-13.193Zm47.75,0a12.543,12.543,0,0,1,6.84,2.012,2.51,2.51,0,0,0,.823.58,12.57,12.57,0,1,1-20.215,10.52,2.511,2.511,0,0,0-.006-.847A12.524,12.524,0,0,1,77.933,60.347ZM30.184,61.6A6.3,6.3,0,0,0,23.9,67.886a1.257,1.257,0,0,0,2.513.035v-.036a3.751,3.751,0,0,1,3.77-3.77,1.257,1.257,0,0,0,.035-2.513Zm79.1,42.948,21.993,20.072-9.341,8.68-19.3-21.969A35.955,35.955,0,0,0,109.286,104.552Zm23.855,21.772,3.985,3.636-9.648,9.648-3.88-4.416Z" transform="translate(0 0)" fill="#9f9f9f"/>
  </g>
</svg>
