<svg xmlns="http://www.w3.org/2000/svg" width="139.883" height="141.076" viewBox="0 0 139.883 141.076">
  <g id="data-analysis-svgrepo-com" transform="translate(33.928 -0.815) rotate(19)" opacity="0.1">
    <path id="path35563" d="M94.808,0a1.922,1.922,0,0,0-1.7.974L90.013,6.253a9.516,9.516,0,0,0-2.935-.463,9.6,9.6,0,0,0-6.541,16.628L68.058,43.7A13.345,13.345,0,0,0,62.1,42.3a13.489,13.489,0,0,0-13.282,11.33L35.18,51.479a9.607,9.607,0,1,0-16.916,6.634L2.933,77.627a1.922,1.922,0,1,0,2.985,2.422L5.955,80,21.283,60.494a9.514,9.514,0,0,0,4.3,1.025,9.645,9.645,0,0,0,9-6.243l14.184,2.239A13.449,13.449,0,1,0,71.227,45.9L83.811,24.431a9.52,9.52,0,0,0,3.266.576,9.595,9.595,0,0,0,6.28-16.861l3.066-5.229A1.922,1.922,0,0,0,94.808,0ZM87.078,9.633a5.779,5.779,0,0,1,2.529.582,1.929,1.929,0,0,0,.558.309,5.772,5.772,0,0,1-5.811,9.965,1.923,1.923,0,0,0-.595-.368A5.771,5.771,0,0,1,87.078,9.633Zm0,.961a4.819,4.819,0,0,0-4.8,4.8.961.961,0,1,0,1.922.027V15.4a2.868,2.868,0,0,1,2.883-2.883.961.961,0,1,0,.027-1.922ZM81.646,42.967a1.922,1.922,0,0,0-1.262,3.33A23.7,23.7,0,1,1,40.77,68.055a1.922,1.922,0,1,0-3.782.685c0,.021.008.042.012.062A27.532,27.532,0,0,0,77.769,87.3L98.446,110.83a1.922,1.922,0,0,0,2.712.174q.046-.041.09-.084l10.25-10.249a1.922,1.922,0,0,0,0-2.718c-.021-.02-.042-.041-.063-.06L88.174,76.664c.255-.465.5-.937.731-1.421a27.559,27.559,0,0,0-5.869-31.727A1.917,1.917,0,0,0,81.646,42.967ZM25.584,46.145A5.765,5.765,0,1,1,22.3,56.66l0,0a1.916,1.916,0,0,0-.54-.425,5.771,5.771,0,0,1,3.823-10.088Zm36.512,0a9.591,9.591,0,0,1,5.23,1.538,1.919,1.919,0,0,0,.629.444A9.612,9.612,0,1,1,52.5,56.171a1.92,1.92,0,0,0,0-.648A9.577,9.577,0,0,1,62.1,46.145Zm-36.512.961a4.819,4.819,0,0,0-4.8,4.8.961.961,0,1,0,1.922.027V51.91a2.868,2.868,0,0,1,2.883-2.883.961.961,0,0,0,.027-1.922ZM62.1,49.028a6.741,6.741,0,0,0-6.726,6.726.961.961,0,1,0,1.922.027v-.027a4.79,4.79,0,0,1,4.8-4.8.961.961,0,0,0,.027-1.922ZM83.32,62.466a.961.961,0,0,0-.946.974A18.343,18.343,0,0,1,64.017,81.8a.961.961,0,0,0-.027,1.922h.027A20.293,20.293,0,0,0,84.3,63.44a.961.961,0,0,0-.947-.974Zm2.75,17.48,16.817,15.348-7.143,6.638-14.761-16.8A27.494,27.494,0,0,0,86.07,79.946Zm18.241,16.648,3.047,2.78-7.377,7.377-2.967-3.376Z" transform="translate(0 0)" fill="#082e4d"/>
  </g>
</svg>
