<svg xmlns="http://www.w3.org/2000/svg" width="20" height="17.779" viewBox="0 0 20 17.779">
  <g id="Icon_awesome-file-export" data-name="Icon awesome-file-export" fill="none">
    <path d="M13.334,4.233a.831.831,0,0,0-.243-.587l-3.4-3.4A.833.833,0,0,0,9.1,0H8.89V4.445h4.445ZM19.828,10.7,16.5,7.348a.557.557,0,0,0-.951.392V10H13.331v2.222h2.222v2.264a.557.557,0,0,0,.951.392l3.323-3.351A.591.591,0,0,0,19.828,10.7Zm-13.161.972V10.556A.557.557,0,0,1,7.223,10h6.112V5.556H8.612a.836.836,0,0,1-.833-.833V0H.833A.831.831,0,0,0,0,.833V16.946a.831.831,0,0,0,.833.833H12.5a.831.831,0,0,0,.833-.833V12.223H7.223A.557.557,0,0,1,6.667,11.668Z" stroke="none"/>
    <path d="M 1.999998092651367 2.000000953674316 L 1.999998092651367 15.77932071685791 L 11.33448791503906 15.77932071685791 L 11.33448791503906 14.22328090667725 L 7.222847938537598 14.22328090667725 C 5.813688278198242 14.22328090667725 4.667248725891113 13.07684135437012 4.667248725891113 11.66768074035645 L 4.667248725891113 10.55647087097168 C 4.667248725891113 9.147311210632324 5.813688278198242 8.000870704650879 7.222847938537598 8.000870704650879 L 11.33448791503906 8.000870704650879 L 11.33448791503906 7.55604076385498 L 8.611858367919922 7.55604076385498 C 7.049518585205078 7.55604076385498 5.778458595275879 6.284980773925781 5.778458595275879 4.722630500793457 L 5.778458595275879 2.000000953674316 L 1.999998092651367 2.000000953674316 M 0.8334083557128906 0 L 7.778458595275879 0 L 7.778458595275879 4.722630500793457 C 7.778458595275879 5.181000709533691 8.153488159179688 5.55604076385498 8.611858367919922 5.55604076385498 L 13.33448791503906 5.55604076385498 L 13.33448791503906 10.00087070465088 L 7.222847938537598 10.00087070465088 C 6.917268753051758 10.00087070465088 6.667248725891113 10.25089073181152 6.667248725891113 10.55647087097168 L 6.667248725891113 11.66768074035645 C 6.667248725891113 11.9732608795166 6.917268753051758 12.22328090667725 7.222847938537598 12.22328090667725 L 13.33448791503906 12.22328090667725 L 13.33448791503906 16.9459114074707 C 13.33448791503906 17.40776062011719 12.96292877197266 17.77932167053223 12.50108814239502 17.77932167053223 L 0.8334083557128906 17.77932167053223 C 0.3715591430664062 17.77932167053223 -1.9073486328125e-06 17.40776062011719 -1.9073486328125e-06 16.9459114074707 L -1.9073486328125e-06 0.8334102630615234 C -1.9073486328125e-06 0.3715610504150391 0.3715591430664062 0 0.8334083557128906 0 Z M 8.889657974243164 0 L 9.101478576660156 0 C 9.323728561401367 0 9.535548210144043 0.08681106567382812 9.691808700561523 0.2430801391601562 L 13.09140777587891 3.646150588989258 C 13.24767875671387 3.802411079406738 13.33448791503906 4.014241218566895 13.33448791503906 4.233000755310059 L 13.33448791503906 4.444830894470215 L 8.889657974243164 4.444830894470215 L 8.889657974243164 0 Z M 16.11400604248047 7.183239936828613 C 16.25123596191406 7.183257102966309 16.39123725891113 7.234189987182617 16.50490760803223 7.347861289978027 L 19.8281078338623 10.6953706741333 C 20.05729866027832 10.924560546875 20.05729866027832 11.29959106445312 19.8281078338623 11.52878093719482 L 16.50490760803223 14.8797607421875 C 16.15417861938477 15.23049068450928 15.55342769622803 14.98394012451172 15.55342864990234 14.48737049102783 L 15.55342864990234 12.22328090667725 L 13.33101844787598 12.22328090667725 L 13.33101844787598 10.00087070465088 L 15.55342864990234 10.00087070465088 L 15.55342864990234 7.740250587463379 C 15.55342864990234 7.404617309570312 15.82780838012695 7.183204650878906 16.11400604248047 7.183239936828613 Z" stroke="none" fill="#01c7b1"/>
  </g>
</svg>
