<svg xmlns="http://www.w3.org/2000/svg" width="489" height="277" viewBox="0 0 489 277">
  <g id="Group_40820" data-name="Group 40820" transform="translate(-920 -1417)">
    <g id="Rectangle_22006" data-name="Rectangle 22006" transform="translate(920 1417)" stroke="#707070" stroke-width="1">
      <rect width="489" height="277" stroke="none"/>
      <rect x="0.5" y="0.5" width="488" height="276" fill="none"/>
    </g>
    <g id="Hubtel_Secondary_Monochrome" data-name="Hubtel Secondary Monochrome" transform="translate(992.095 1515.022)">
      <path id="Path_32268" data-name="Path 32268" d="M178.17,229c0-4,1-5,5-5h1.7c4,0,5,1,5,5v17c2.86-3.15,7.77-5.12,13.66-5.12,7.14,0,15.18,3.32,15.18,15.46v25.52c0,4-1,5-5,5H212c-4,0-5-1-5-5V258.43c0-5-2.86-6.47-7.5-6.47-5.18,0-9.65,2.07-9.65,10.87v19.05c0,4-1,5-5,5h-1.7c-4,0-5-1-5-5Z" transform="translate(-83.57 -216.022)" fill="#fff"/>
      <path id="Path_32269" data-name="Path 32269" d="M239.17,269.84c0,4.58,1.34,7.1,8.66,7.1s8.48-2.52,8.48-7.1V247c0-4,1-5,5-5H263c4,0,5,1,5,5v22.83c0,12-6.07,18.15-20.18,18.15-13.49,0-20.36-6.38-20.36-18.15V247c0-4,1-5,5-5h1.7c4,0,5,1,5,5Z" transform="translate(-83.57 -216.022)" fill="#fff"/>
      <path id="Path_32270" data-name="Path 32270" d="M276.77,229c0-4,1-5,5-5h1.61c4,0,5,1,5,5v17c2.32-3.15,6.07-5.12,12.23-5.12,12.41,0,18.75,7.37,18.75,20.22v7.19c0,14.11-7.95,19.68-21.34,19.68-11.79,0-21.25-5.57-21.25-19.68Zm30.9,31.81c0-5.75-1.52-8.89-9.56-8.89s-9.74,3.14-9.74,8.89V268c0,5.75,1.7,8.9,9.74,8.9,8.22,0,9.56-3.15,9.56-8.9Z" transform="translate(-83.57 -216.022)" fill="#fff"/>
      <path id="Path_32271" data-name="Path 32271" d="M351.53,276.31a33.132,33.132,0,0,1-6.25.54c-3.3,0-5.51-1.45-5.62-5.67a3.28,3.28,0,0,0,.08-.7V253h10.09c4,0,5-1,5-5v-1c0-4-1-5-5-5H339.74v-6.74c0-4-1-5-5-5h-1.61c-4,0-5,1-5,5v6.18L328,242v28.76q0,1.23.08,2.35a8.77,8.77,0,0,0,.3,2.45c1.63,9.33,8.27,12.36,16.85,12.36a28.469,28.469,0,0,0,6.25-.54c3.93-.81,4.91-2.34,4.91-6.38v-1c0-4-1-4.4-4.91-3.68" transform="translate(-83.57 -216.022)" fill="#fff"/>
      <path id="Path_32272" data-name="Path 32272" d="M401.37,263.82c-.54,4.13-1.7,4.94-5.81,4.94H372.88v1.35c0,4.67,3.39,6.83,11.7,6.83a54.479,54.479,0,0,0,10.8-1.26c3.93-.81,4.73.27,4.73,4.31v1c0,4-.8,4.85-4.73,5.84A47.8,47.8,0,0,1,384.49,288c-15.81,0-23.31-5.75-23.31-19.68v-7.19c0-11.59,5.27-20.22,20.81-20.22,13,0,19.56,6.65,19.56,19.41a29.824,29.824,0,0,1-.18,3.51m-28.49-4.58h17.59V257.9c0-4.49-2.95-6.83-8.84-6.83s-8.75,2.34-8.75,6.83Z" transform="translate(-83.57 -216.022)" fill="#fff"/>
      <path id="Path_32273" data-name="Path 32273" d="M409.41,229c0-4,1-5,5-5H416c4,0,5,1,5,5v41.7c0,4.67,1.25,6,3.93,6h.45c2.32,0,3,.54,3,4.13v1.71c0,3.6-.71,4.58-3,5a11,11,0,0,1-2.68.18c-7.59,0-13.3-4.22-13.3-14.47Z" transform="translate(-83.57 -216.022)" fill="#fff"/>
      <path id="Path_32274" data-name="Path 32274" d="M107.4,267.54c-4.41-3.29-6.58-6.79-6.89-10.23H83.57v25.52c0,13.58,5.76,16,13.48,10.13l21.69-16.69Z" transform="translate(-83.57 -216.022)" fill="#fff"/>
      <path id="Path_32275" data-name="Path 32275" d="M158.15,257.3H103.74c.41,3,2.38,6,6.21,8.89L144.71,293c7.71,5.82,13.52,3.45,13.48-10.13Z" transform="translate(-83.57 -216.022)" fill="#fff"/>
      <path id="Path_32276" data-name="Path 32276" d="M144.71,219,122.8,235.92l11.12,8.56c4.38,3.26,6.55,6.74,6.88,10.16h17.36V229.18c0-13.58-5.76-15.95-13.48-10.13" transform="translate(-83.57 -216.022)" fill="#fff"/>
      <path id="Path_32277" data-name="Path 32277" d="M131.82,245.8,97.05,219c-7.71-5.82-13.52-3.45-13.48,10.13v25.46H138c-.43-3-2.39-6-6.2-8.83" transform="translate(-83.57 -216.022)" fill="#fff"/>
    </g>
  </g>
</svg>
