<svg xmlns="http://www.w3.org/2000/svg" width="350" height="350" viewBox="0 0 350 350">
  <g id="Group_40821" data-name="Group 40821" transform="translate(-785 -1711)">
    <rect id="Rectangle_22009" data-name="Rectangle 22009" width="350" height="350" transform="translate(785 1711)"/>
    <g id="Hubtel_Icon_Monochrome" data-name="Hubtel Icon Monochrome" transform="translate(894 1815)">
      <path id="Path_32322" data-name="Path 32322" d="M262.69,236.725c-7.819-5.809-11.655-12.008-12.176-18.115H220.54v45.148c0,24.035,10.2,28.224,23.849,17.929l38.445-29.528Z" transform="translate(-220.54 -145.573)" fill="#fff"/>
      <path id="Path_32323" data-name="Path 32323" d="M335.99,218.61H239.7c.726,5.306,4.208,10.687,11,15.732l61.438,47.345c13.647,10.3,23.924,6.107,23.849-17.929Z" transform="translate(-204.028 -145.573)" fill="#fff"/>
      <path id="Path_32324" data-name="Path 32324" d="M296.6,184.723l-38.78,29.788L277.5,229.648c7.745,5.771,11.58,11.934,12.176,17.985h30.719V202.578c0-24.035-10.2-28.224-23.849-17.929" transform="translate(-188.414 -179.38)" fill="#fff"/>
      <path id="Path_32325" data-name="Path 32325" d="M305.867,232.033l-61.438-47.345c-13.647-10.3-23.924-6.107-23.849,17.929v45.055h96.346c-.745-5.269-4.245-10.612-10.984-15.639" transform="translate(-220.506 -179.346)" fill="#fff"/>
    </g>
  </g>
</svg>
