<svg xmlns="http://www.w3.org/2000/svg" width="992" height="357" viewBox="0 0 992 357">
  <g id="Group_40818" data-name="Group 40818" transform="translate(-568 -683)">
    <rect id="Rectangle_22007" data-name="Rectangle 22007" width="992" height="357" transform="translate(568 683)" fill="#f8f9fb"/>
    <g id="hubtel_Primary" data-name="hubtel Primary" transform="translate(942.65 788.213)">
      <path id="Path_32288" data-name="Path 32288" d="M219.9,242.7c0,13.1,5.6,15.4,13.1,9.8l33.7-25.8c4.3-3.2,6.1-6.5,6.1-9.8H220v25.8Z" transform="translate(-134.6 -178.241)" fill="#009e96"/>
      <path id="Path_32289" data-name="Path 32289" d="M292.1,242.7c0,13.1-5.6,15.4-13.1,9.8l-33.7-25.8c-4.3-3.2-6.1-6.5-6.1-9.8H292Z" transform="translate(-134.6 -178.241)" fill="#ef4923"/>
      <path id="Path_32290" data-name="Path 32290" d="M292.1,190.9c0-13.1-5.6-15.4-13.1-9.8L245.4,207c-4.3,3.2-6.1,6.5-6.1,9.8h52.8Z" transform="translate(-134.6 -178.241)" fill="#f7961c"/>
      <path id="Path_32291" data-name="Path 32291" d="M219.9,190.9c0-13.1,5.6-15.4,13.1-9.8l33.7,25.8c4.3,3.2,6.1,6.5,6.1,9.8H220V190.9Z" transform="translate(-134.6 -178.241)" fill="#082e4d"/>
      <path id="Path_32292" data-name="Path 32292" d="M134.8,276.9c0-3.9,1-4.9,4.9-4.9h1.6c3.9,0,4.9,1,4.9,4.9v16.4c2.8-3,7.5-4.9,13.2-4.9,6.9,0,14.7,3.2,14.7,14.9v24.6c0,3.9-1,4.9-4.9,4.9h-1.6c-3.9,0-4.9-1-4.9-4.9V305.3c0-4.9-2.8-6.2-7.3-6.2-5,0-9.4,2-9.4,10.5V328c0,3.9-1,4.9-4.9,4.9h-1.6c-3.9,0-4.9-1-4.9-4.9Z" transform="translate(-134.6 -178.241)" fill="#082e4d"/>
      <path id="Path_32293" data-name="Path 32293" d="M193.9,316.2c0,4.4,1.3,6.9,8.4,6.9s8.2-2.4,8.2-6.9v-22c0-3.9,1-4.9,4.9-4.9h1.7c3.9,0,4.8,1,4.8,4.9v22c0,11.6-5.9,17.5-19.6,17.5-13.1,0-19.7-6.2-19.7-17.5v-22c0-3.9,1-4.9,4.9-4.9h1.6c3.9,0,4.8,1,4.8,4.9Z" transform="translate(-134.6 -178.241)" fill="#082e4d"/>
      <path id="Path_32294" data-name="Path 32294" d="M260.2,307.5c0-5.5-1.5-8.6-9.3-8.6s-9.4,3-9.4,8.6v6.9c0,5.5,1.6,8.6,9.4,8.6,8,0,9.3-3,9.3-8.6Zm-29.9-30.6c0-3.9,1-4.9,4.9-4.9h1.6c3.9,0,4.8,1,4.8,4.9v16.4c2.2-3,5.9-4.9,11.9-4.9,12,0,18.2,7.1,18.2,19.5v6.9c0,13.6-7.7,19-20.7,19-11.4,0-20.6-5.4-20.6-19Z" transform="translate(-134.6 -178.241)" fill="#082e4d"/>
      <path id="Path_32295" data-name="Path 32295" d="M302.7,322.5a30.767,30.767,0,0,1-6.1.5c-3.2,0-5.3-1.4-5.4-5.5a1.483,1.483,0,0,0,.1-.7V300h9.8c3.9,0,4.9-1,4.9-4.9v-1c0-3.9-1-4.9-4.9-4.9h-9.8v-6.5c0-3.9-1-4.9-4.9-4.9h-1.6c-3.9,0-4.9,1-4.9,4.9v6l-.1.5v27.7a17.7,17.7,0,0,0,.1,2.3,9.863,9.863,0,0,0,.3,2.4c1.6,9,8,11.9,16.3,11.9a31.4,31.4,0,0,0,6.1-.5c3.8-.8,4.8-2.2,4.8-6.2v-1c.1-3.8-.9-4.1-4.7-3.3" transform="translate(-134.6 -178.241)" fill="#082e4d"/>
      <path id="Path_32296" data-name="Path 32296" d="M323.4,306h17v-1.3c0-4.3-2.9-6.6-8.6-6.6s-8.5,2.3-8.5,6.6Zm27.6,4.4c-.5,4-1.6,4.8-5.6,4.8h-22v1.3c0,4.5,3.3,6.6,11.3,6.6a62.564,62.564,0,0,0,10.5-1.2c3.8-.8,4.6.3,4.6,4.2v1c0,3.9-.8,4.7-4.6,5.6a41.977,41.977,0,0,1-10.6,1.1c-15.3,0-22.6-5.5-22.6-19v-7c0-11.2,5.1-19.5,20.2-19.5,12.6,0,19,6.4,19,18.7,0,1.2-.1,2.3-.2,3.4" transform="translate(-134.6 -178.241)" fill="#082e4d"/>
      <path id="Path_32297" data-name="Path 32297" d="M358.8,276.9c0-3.9,1-4.9,4.9-4.9h1.6c3.9,0,4.9,1,4.9,4.9v40.2c0,4.5,1.2,5.8,3.8,5.8h.4c2.2,0,2.9.5,2.9,4v1.6c0,3.5-.7,4.4-2.9,4.9a11.4,11.4,0,0,1-2.6.2c-7.4,0-12.9-4.1-12.9-14Z" transform="translate(-134.6 -178.241)" fill="#082e4d"/>
    </g>
  </g>
</svg>
