<svg id="Hubtel_Secondary" data-name="Hubtel Secondary" xmlns="http://www.w3.org/2000/svg" width="326.89" height="75.453" viewBox="0 0 326.89 75.453">
  <path id="Path_32278" data-name="Path 32278" d="M92.56,281.34c0,12.84,5.47,15.07,12.79,9.57l33-25.28c4.17-3.09,6-6.41,6-9.63H92.56Z" transform="translate(-92.56 -218.273)" fill="#009e96"/>
  <path id="Path_32279" data-name="Path 32279" d="M163.38,281.34c0,12.84-5.47,15.07-12.79,9.57l-33-25.28c-4.17-3.09-6-6.41-6-9.63H163.3Z" transform="translate(-92.56 -218.273)" fill="#ef4923"/>
  <path id="Path_32280" data-name="Path 32280" d="M163.38,230.66c0-12.84-5.47-15.07-12.79-9.57l-33,25.28c-4.17,3.09-6,6.41-6,9.63H163.3Z" transform="translate(-92.56 -218.273)" fill="#f7961c"/>
  <path id="Path_32281" data-name="Path 32281" d="M92.56,230.66c0-12.84,5.47-15.07,12.79-9.57l33,25.28c4.17,3.09,6,6.41,6,9.63H92.56Z" transform="translate(-92.56 -218.273)" fill="#082e4d"/>
  <path id="Path_32282" data-name="Path 32282" d="M184.66,228.89c0-3.78.92-4.7,4.69-4.7h1.59c3.77,0,4.69.92,4.69,4.7v15.86c2.68-2.94,7.29-4.78,12.82-4.78,6.7,0,14.24,3.11,14.24,14.44v23.84c0,3.78-.92,4.7-4.69,4.7h-1.59c-3.77,0-4.69-.92-4.69-4.7V256.34c0-4.7-2.68-6-7-6-4.86,0-9,1.93-9,10.16v17.8c0,3.78-.92,4.7-4.69,4.7h-1.59c-3.77,0-4.69-.92-4.69-4.7Z" transform="translate(-92.56 -218.273)" fill="#082e4d"/>
  <path id="Path_32283" data-name="Path 32283" d="M241.89,268.45c0,4.28,1.26,6.63,8.13,6.63s8-2.35,8-6.63V247.13c0-3.78.92-4.7,4.69-4.7h1.59c3.77,0,4.69.92,4.69,4.7v21.32c0,11.25-5.7,17-18.93,17-12.65,0-19.1-6-19.1-17V247.13c0-3.78.92-4.7,4.69-4.7h1.59c3.77,0,4.69.92,4.69,4.7Z" transform="translate(-92.56 -218.273)" fill="#082e4d"/>
  <path id="Path_32284" data-name="Path 32284" d="M306.15,260.05c0-5.37-1.42-8.31-9-8.31s-9.13,2.94-9.13,8.31v6.71c0,5.37,1.59,8.31,9.13,8.31,7.71,0,9-2.94,9-8.31Zm-29-29.71c0-3.78.92-4.7,4.69-4.7h1.51c3.77,0,4.69.92,4.69,4.7V246.2c2.18-2.94,5.7-4.78,11.48-4.78,11.65,0,17.59,6.88,17.59,18.89V267c0,13.18-7.46,18.38-20,18.38-11.06,0-19.94-5.21-19.94-18.38Z" transform="translate(-92.56 -218.273)" fill="#082e4d"/>
  <path id="Path_32285" data-name="Path 32285" d="M347.3,274.49a31.181,31.181,0,0,1-5.87.5c-3.1,0-5.16-1.35-5.27-5.3a3.1,3.1,0,0,0,.07-.65V252.75h9.47c3.77,0,4.69-.92,4.69-4.7v-.92c0-3.78-.92-4.7-4.69-4.7h-9.47v-6.3c0-3.78-.92-4.7-4.69-4.7H330c-3.77,0-4.69.92-4.69,4.7v5.77l-.08.52v26.86q0,1.15.08,2.2a8.189,8.189,0,0,0,.28,2.29c1.53,8.71,7.76,11.54,15.81,11.54a26.8,26.8,0,0,0,5.87-.5c3.69-.75,4.61-2.18,4.61-6v-.92c0-3.78-.92-4.11-4.61-3.44" transform="translate(-92.56 -218.273)" fill="#082e4d"/>
  <path id="Path_32286" data-name="Path 32286" d="M367.33,258.54h16.51v-1.26c0-4.19-2.77-6.38-8.29-6.38s-8.21,2.18-8.21,6.38Zm26.73,4.28c-.5,3.86-1.59,4.61-5.45,4.61H367.33v1.26c0,4.36,3.18,6.38,11,6.38a51.349,51.349,0,0,0,10.14-1.17c3.69-.75,4.44.25,4.44,4v.92c0,3.78-.75,4.53-4.44,5.46a45.11,45.11,0,0,1-10.22,1.09c-14.83,0-21.87-5.37-21.87-18.38v-6.72c0-10.83,4.94-18.89,19.52-18.89,12.23,0,18.35,6.21,18.35,18.13a27.8,27.8,0,0,1-.17,3.27" transform="translate(-92.56 -218.273)" fill="#082e4d"/>
  <path id="Path_32287" data-name="Path 32287" d="M401.6,230.34c0-3.78.92-4.7,4.69-4.7h1.51c3.77,0,4.69.92,4.69,4.7v38.95c0,4.36,1.17,5.62,3.69,5.62h.42c2.18,0,2.85.5,2.85,3.86v1.6c0,3.36-.67,4.28-2.85,4.7a10.26,10.26,0,0,1-2.51.17c-7.12,0-12.48-3.95-12.48-13.52Z" transform="translate(-92.56 -218.273)" fill="#082e4d"/>
</svg>
