<svg xmlns="http://www.w3.org/2000/svg" xmlns:xlink="http://www.w3.org/1999/xlink" width="493.5" height="57" viewBox="0 0 493.5 57">
  <defs>
    <clipPath id="clip-path">
      <rect id="Rectangle_17420" data-name="Rectangle 17420" width="56" height="56" transform="translate(-0.451)" fill="#fff" stroke="#707070" stroke-width="1"/>
    </clipPath>
    <clipPath id="clip-path-2">
      <path id="Path_9654" data-name="Path 9654" d="M6.109,8.421H49.166a5.489,5.489,0,0,1,5.489,5.489V50.767a2.19,2.19,0,0,1-2.19,2.19H2.81A2.19,2.19,0,0,1,.621,50.768V13.911A5.489,5.489,0,0,1,6.11,8.422Z" transform="translate(-0.621 -8.421)" fill="none"/>
    </clipPath>
    <clipPath id="clip-path-3">
      <path id="Path_9656" data-name="Path 9656" d="M34.85,3.775V11.13H31.855V5.447A2.449,2.449,0,0,0,29.4,2.986h-11.4a2.449,2.449,0,0,0-2.451,2.466v5.683H12.562V3.775A3.766,3.766,0,0,1,16.323,0H31.089A3.766,3.766,0,0,1,34.85,3.775Z" transform="translate(-12.562)" fill="none"/>
    </clipPath>
    <clipPath id="clip-path-4">
      <rect id="Rectangle_17430" data-name="Rectangle 17430" width="57" height="57" transform="translate(0.014)" fill="#fff" stroke="#707070" stroke-width="1"/>
    </clipPath>
    <clipPath id="clip-path-5">
      <rect id="Rectangle_17442" data-name="Rectangle 17442" width="56" height="56" transform="translate(0.152)" fill="#fff" stroke="#707070" stroke-width="1"/>
    </clipPath>
  </defs>
  <g id="Group_40817" data-name="Group 40817" transform="translate(-437.25 -683)">
    <g id="gift" transform="translate(437.25 683)">
      <path id="Path_9636" data-name="Path 9636" d="M13,6.508c3.714-5.7,9.549-.133,11.8,2.653a17.314,17.314,0,0,1,3.183,5.968H19.1S9.415,14.334,13,6.508Z" transform="translate(-0.528 -1.601)" fill="none" stroke="#ff2d55" stroke-linecap="round" stroke-linejoin="round" stroke-width="2"/>
      <path id="Path_9637" data-name="Path 9637" d="M39.187,6.508c-3.714-5.7-9.549-.133-11.8,2.653A17.314,17.314,0,0,0,24.2,15.129h9.019C33.086,15.129,42.636,14.334,39.187,6.508Z" transform="translate(3.387 -1.601)" fill="none" stroke="#ff2d55" stroke-linecap="round" stroke-linejoin="round" stroke-width="2"/>
      <path id="Path_9638" data-name="Path 9638" d="M52.161,22V47.863a3.284,3.284,0,0,1-3.316,3.316H10.516A3.284,3.284,0,0,1,7.2,47.863V22" transform="translate(-2.16 4.261)" fill="#fc0"/>
      <g id="Group_9362" data-name="Group 9362" transform="translate(5.04 26.261)">
        <rect id="Rectangle_17411" data-name="Rectangle 17411" width="44.829" height="2.653" fill="#ff9500"/>
      </g>
      <path id="Path_9639" data-name="Path 9639" d="M15.518,14.02H39.656l3.581-2.52H12.6Z" transform="translate(-0.398 0.835)" fill="#dd1b4a"/>
      <g id="Group_9363" data-name="Group 9363" transform="translate(0.928 13.528)">
        <path id="Path_9640" data-name="Path 9640" d="M7.416,12.4h46.42a3.284,3.284,0,0,1,3.316,3.316v6.1a3.284,3.284,0,0,1-3.316,3.316H7.416A3.284,3.284,0,0,1,4.1,21.817v-6.1A3.463,3.463,0,0,1,7.416,12.4Z" transform="translate(-4.1 -12.4)" fill="#fc0"/>
      </g>
      <rect id="Rectangle_17412" data-name="Rectangle 17412" width="10.08" height="29.178" transform="translate(22.282 26.261)" fill="#ff2d55"/>
      <rect id="Rectangle_17413" data-name="Rectangle 17413" width="13.926" height="12.732" transform="translate(20.425 13.528)" fill="#ff2d55"/>
      <rect id="Rectangle_17414" data-name="Rectangle 17414" width="10.212" height="2.653" transform="translate(22.282 26.261)" fill="#dd1b4a"/>
      <g id="Group_9364" data-name="Group 9364" transform="translate(52.123 9.417)">
        <path id="Path_9641" data-name="Path 9641" d="M44.557,9.3l-.265,1.061.663.8-1.061-.265-.8.663.265-1.061L42.7,9.7l1.061.265Z" transform="translate(-42.7 -9.3)" fill="#01c7b1"/>
      </g>
      <g id="Group_9365" data-name="Group 9365" transform="translate(45.359 0)">
        <path id="Path_9642" data-name="Path 9642" d="M40.65,2.2l-.4,1.724L41.446,5.25l-1.857-.4L38.263,6.046l.531-1.857L37.6,2.863l1.724.531Z" transform="translate(-37.6 -2.2)" fill="#fc0"/>
      </g>
      <path id="Path_9643" data-name="Path 9643" d="M9.192,7.8l-.265.928.531.663-.8-.265L8,9.789l.133-.928L7.6,8.2l.928.265Z" transform="translate(-2.03 -0.373)" fill="#ff2d55"/>
      <path id="Path_9644" data-name="Path 9644" d="M6.45,2.6,5.92,4.324,7.114,5.65,5.389,5.12,4.063,6.314l.531-1.724L3.4,3.263l1.724.531Z" transform="translate(-3.4 -2.069)" fill="#007aff"/>
    </g>
    <g id="Mask_Group_26" data-name="Mask Group 26" transform="translate(532.109 683)" clip-path="url(#clip-path)">
      <g id="Briefcase" transform="translate(0.012 0)">
        <path id="Path_9653" data-name="Path 9653" d="M6.109,8.421H49.166a5.489,5.489,0,0,1,5.489,5.489V50.767a2.19,2.19,0,0,1-2.19,2.19H2.81A2.19,2.19,0,0,1,.621,50.768V13.911A5.489,5.489,0,0,1,6.11,8.422Z" transform="translate(0.203 2.748)" fill="#9b6137"/>
        <g id="Group_9366" data-name="Group 9366" transform="translate(0.824 11.168)" clip-path="url(#clip-path-2)">
          <rect id="Rectangle_17421" data-name="Rectangle 17421" width="55.68" height="16.716" rx="1.547" transform="translate(-0.823 1.662)" fill="#7c4b29"/>
        </g>
        <rect id="Rectangle_17422" data-name="Rectangle 17422" width="55.68" height="16.716" rx="1.544" transform="translate(0 11.13)" fill="#eab790"/>
        <path id="Path_9655" data-name="Path 9655" d="M34.85,3.775V11.13H31.855V5.447A2.449,2.449,0,0,0,29.4,2.986h-11.4a2.449,2.449,0,0,0-2.451,2.466v5.683H12.562V3.775A3.766,3.766,0,0,1,16.323,0H31.089A3.766,3.766,0,0,1,34.85,3.775Z" transform="translate(4.099)" fill="#9b6137"/>
        <rect id="Rectangle_17423" data-name="Rectangle 17423" width="13.727" height="5.756" rx="0.802" transform="translate(20.939 24.967)" fill="#f6f6f6"/>
        <g id="Group_9367" data-name="Group 9367" transform="translate(16.661)" clip-path="url(#clip-path-3)">
          <rect id="Rectangle_17424" data-name="Rectangle 17424" width="55.68" height="16.716" rx="1.544" transform="translate(-16.661 9.713)" fill="#7c4b29"/>
        </g>
      </g>
    </g>
    <g id="Mask_Group_28" data-name="Mask Group 28" transform="translate(618.645 683)" clip-path="url(#clip-path-4)">
      <g id="Group_2798" data-name="Group 2798" transform="translate(0.951 1.864)">
        <path id="Subtraction_11" data-name="Subtraction 11" d="M22.666,53.136H5a5.006,5.006,0,0,1-5-5V5A5.006,5.006,0,0,1,5,0H22.666a5.006,5.006,0,0,1,5,5V48.136A5.006,5.006,0,0,1,22.666,53.136ZM3.264,5.119a.063.063,0,0,0-.063.063v39.8a.064.064,0,0,0,.063.063H24.756a.063.063,0,0,0,.063-.063V5.182a.062.062,0,0,0-.063-.063Z" transform="translate(10.159 0)" fill="#007aff"/>
        <path id="Intersection_2" data-name="Intersection 2" d="M0,13.579V0H2.847V13.579Z" transform="translate(34.977 23.257)" fill="#0062cc"/>
        <path id="Intersection_3" data-name="Intersection 3" d="M0,8.148V0H2.847V8.148Z" transform="translate(34.977 5.604)" fill="#0062cc"/>
        <path id="Intersection_4" data-name="Intersection 4" d="M0,13.578V0H2.847V13.578Z" transform="translate(10.535 11.037)" fill="#0062cc"/>
        <path id="Path_6742" data-name="Path 6742" d="M146.043,262.307l1.13-3.553v-11.3h29.182v11.3H150.283Z" transform="translate(-120.276 -223.174)" fill="#fc0"/>
        <path id="Path_6743" data-name="Path 6743" d="M169,258.7l-.856-2.691v-8.557h-22.1v8.557h19.744Z" transform="translate(-146.043 -234.394)" fill="#00ffb1"/>
        <line id="Line_122" data-name="Line 122" x2="21.441" transform="translate(30.802 27.429)" fill="none" stroke="#fff" stroke-linecap="round" stroke-width="0.063"/>
        <line id="Line_125" data-name="Line 125" x2="16.237" transform="translate(2.401 15.092)" fill="none" stroke="#fff" stroke-linecap="round" stroke-width="0.063"/>
        <line id="Line_123" data-name="Line 123" x2="21.441" transform="translate(30.802 30.225)" fill="none" stroke="#fff" stroke-linecap="round" stroke-width="0.063"/>
        <line id="Line_126" data-name="Line 126" x2="16.237" transform="translate(2.401 17.21)" fill="none" stroke="#fff" stroke-linecap="round" stroke-width="0.063"/>
        <line id="Line_124" data-name="Line 124" x2="21.441" transform="translate(30.802 33.022)" fill="none" stroke="#fff" stroke-linecap="round" stroke-width="0.063"/>
        <g id="Group_2795" data-name="Group 2795" transform="translate(27.264 6.705)">
          <path id="Path_6702" data-name="Path 6702" d="M146.043,255.175l.587-1.847v-5.874H161.8v5.874H148.246Z" transform="translate(-146.043 -247.455)" fill="#ff2d55"/>
          <line id="Line_119" data-name="Line 119" x2="11.144" transform="translate(2.617 1.636)" fill="none" stroke="#fff" stroke-linecap="round" stroke-width="0.063"/>
          <line id="Line_120" data-name="Line 120" x2="11.144" transform="translate(2.617 3.09)" fill="none" stroke="#fff" stroke-linecap="round" stroke-width="0.063"/>
          <line id="Line_121" data-name="Line 121" x2="11.144" transform="translate(2.617 4.543)" fill="none" stroke="#fff" stroke-linecap="round" stroke-width="0.063"/>
        </g>
        <line id="Line_127" data-name="Line 127" x2="16.237" transform="translate(2.401 19.327)" fill="none" stroke="#fff" stroke-linecap="round" stroke-width="0.063"/>
        <ellipse id="Ellipse_240" data-name="Ellipse 240" cx="2.1" cy="2.1" rx="2.1" ry="2.1" transform="translate(22.07 46.693)" fill="#fff"/>
      </g>
    </g>
    <g id="Mask_Group_30" data-name="Mask Group 30" transform="translate(706.506 683)" clip-path="url(#clip-path-5)">
      <g id="Group_9205" data-name="Group 9205" transform="translate(0 0.057)">
        <g id="Group_9189" data-name="Group 9189" transform="translate(0 0)">
          <rect id="Rectangle_1752" data-name="Rectangle 1752" width="41.896" height="51.029" rx="3.443" transform="translate(0 4.561)" fill="#fa3"/>
          <path id="Rectangle_1755" data-name="Rectangle 1755" d="M0,0H14.693V2.184a.794.794,0,0,1-.794.794H.794A.794.794,0,0,1,0,2.184Z" transform="translate(13.7 4.561)" fill="#c70"/>
          <path id="Union_14" data-name="Union 14" d="M.794,7.345A.794.794,0,0,1,0,6.551V3.336a.794.794,0,0,1,.794-.794H4.511a2.538,2.538,0,0,1,5.075,0H13.3a.794.794,0,0,1,.794.794V6.551a.794.794,0,0,1-.794.794Z" transform="translate(14.098 -0.004)" fill="#007aff"/>
          <rect id="Rectangle_1754" data-name="Rectangle 1754" width="34.35" height="42.094" rx="0.599" transform="translate(3.773 8.93)" fill="#fff"/>
          <ellipse id="Ellipse_244" data-name="Ellipse 244" cx="0.596" cy="0.596" rx="0.596" ry="0.596" transform="translate(20.451 1.98)" fill="#e4e4e4"/>
        </g>
        <path id="Intersection_3-2" data-name="Intersection 3" d="M1038.629,559.669l6.034-9.515v10.787l-1.291,1.953-6.612,4.514Z" transform="translate(-1006.54 -526.26)" fill="#cdd5db"/>
        <path id="Intersection_2-2" data-name="Intersection 2" d="M1045.563,554.092l3.772-5.949v11.032l-3.772,5.7Z" transform="translate(-1007.44 -530.198)" fill="#c70"/>
        <path id="Path_9288" data-name="Path 9288" d="M-881.212-466.712l-16.3,25.177L-899.8-434.4l6.537-4.162,16.9-23.968Z" transform="translate(929.911 475.746)" fill="#4645ab"/>
        <path id="Intersection_5" data-name="Intersection 5" d="M1019.846,557.181l.02.371.717-.067.248.883.966,0,.054.862.959-.007v.829l1.1.027-.008.042-6.279,4Z" transform="translate(-987.507 -522.776)" fill="#ffe9cc"/>
        <path id="Intersection_4-2" data-name="Intersection 4" d="M1018.559,560.239l.147.536h.4v.492h.488l-.153.362.334.132-2.146,1.366Z" transform="translate(-987.521 -521.779)" fill="#2e2e2e"/>
        <path id="Rectangle_1860" data-name="Rectangle 1860" d="M1.191,0h4.17a.993.993,0,0,1,.993.993V3.971H0V1.191A1.191,1.191,0,0,1,1.191,0Z" transform="translate(49.979 7.054) rotate(33)" fill="#ffe9cc"/>
        <path id="Rectangle_1856" data-name="Rectangle 1856" d="M1.191,0h4.17a.993.993,0,0,1,.993.993V3.971H0V1.191A1.191,1.191,0,0,1,1.191,0Z" transform="translate(50.376 6.458) rotate(33)" fill="#353481"/>
        <path id="Path_9279" data-name="Path 9279" d="M-915.368-440.285c1.873-3.244,2.4-3.807,3.258-3.185s1.739,3.7,3.728,2.156,1.837.373,3.617.553,1.513-1.549,3.244-.9a10.671,10.671,0,0,0,4.825.9" transform="translate(922.846 482.661)" fill="none" stroke="#707070" stroke-width="0.15"/>
        <path id="Path_9280" data-name="Path 9280" d="M-915.368-440.285c2.122-3.244,2.714-3.807,3.691-3.185s1.971,3.7,4.224,2.156,2.082.373,4.1.553,1.714-1.549,3.675-.9a13.507,13.507,0,0,0,5.467.9" transform="translate(922.846 474.52)" fill="none" stroke="#707070" stroke-width="0.15"/>
        <path id="Path_9281" data-name="Path 9281" d="M-915.368-440.285c2.122-3.244,2.714-3.807,3.691-3.185s1.971,3.7,4.224,2.156,2.082.373,4.1.553,1.714-1.549,3.675-.9a13.507,13.507,0,0,0,5.467.9" transform="translate(922.846 467.174)" fill="none" stroke="#707070" stroke-width="0.15"/>
        <path id="Path_9282" data-name="Path 9282" d="M-915.368-440.285c2.122-3.244,2.714-3.807,3.691-3.185s1.971,3.7,4.224,2.156,2.082.373,4.1.553,1.714-1.549,3.675-.9a13.507,13.507,0,0,0,5.467.9" transform="translate(922.846 459.827)" fill="none" stroke="#707070" stroke-width="0.15"/>
      </g>
    </g>
    <g id="thumbs_up" data-name="thumbs up" transform="translate(789.658 686.979)">
      <path id="Path_9683" data-name="Path 9683" d="M44.564,12.88,44.3,13.928l.663.8L43.9,14.458l-.783.663.265-1.061-.663-.783,1.048.265Z" transform="translate(9.178 -3.503)" fill="#01c7b1"/>
      <path id="Path_9684" data-name="Path 9684" d="M40.677,5.81l-.4,1.711,1.194,1.326-1.857-.4L38.3,9.643l.531-1.857L37.64,6.473,39.351,7Z" transform="translate(7.52 -5.81)" fill="#fc0"/>
      <path id="Path_9685" data-name="Path 9685" d="M9.362,11.38l-.265.928.517.663-.783-.265-.663.663.133-.928-.531-.663.928.265Z" transform="translate(-2.226 -3.993)" fill="#ff2d55"/>
      <path id="Path_9686" data-name="Path 9686" d="M6.627,6.21,6.1,7.921,7.29,9.247,5.566,8.717,4.253,9.9l.531-1.711L3.59,6.873,5.3,7.39Z" transform="translate(-3.59 -5.679)" fill="#007aff"/>
      <path id="Path_9687" data-name="Path 9687" d="M48.832,36c-.981,1.326-1.326.61-1.936,1.817-.69,1.5-1.87,7.334-2.745,9.1-3.143,6.5-15.372,7.242-22.865,5q-1.989-.6-3.74-.995a.756.756,0,0,0,0-.172V30a2.215,2.215,0,0,0-.305-1.127,2.149,2.149,0,0,0-.65-.729c4.085-2.294,5.677-5.305,8.223-8.13,4.7-5.173,4.364-9.8,5.305-11.048,3.608-5.013,7.387,4.483,5.584,9.39s-4.814,6.937,1.406,7.48c3.886.345,11.141-1.22,12.281,4.39C49.747,31.874,49.827,34.673,48.832,36Z" transform="translate(0.652 -5.242)" fill="#b17c49"/>
      <path id="Path_9688" data-name="Path 9688" d="M18.58,25.048v20.73a2.308,2.308,0,0,1-2.361,2.308H9.508A2.294,2.294,0,0,1,7.2,45.778V25.048A2.294,2.294,0,0,1,9.508,22.74h6.711a2.334,2.334,0,0,1,2.308,2.308Z" transform="translate(-2.412 -0.286)" fill="#dc2308"/>
      <path id="Path_9689" data-name="Path 9689" d="M17.894,24.937v20.73a.756.756,0,0,1,0,.172q-1.048-.265-2.029-.438L15.56,23.809a11.419,11.419,0,0,0,1.393-.729,2.149,2.149,0,0,1,.65.729,2.215,2.215,0,0,1,.292,1.127Z" transform="translate(0.316 -0.175)" fill="#7f5533"/>
    </g>
    <g id="Group_9383" data-name="Group 9383" transform="translate(875.658 683)">
      <path id="Path_2" data-name="Path 2" d="M411.962,268.645a2.752,2.752,0,0,1-2.761,2.746l-49.515.2a2.759,2.759,0,0,1-2.793-2.722l-.022-6.066a.449.449,0,0,1,.447-.45l7.387-.03,15.443-.063h1.109a2.889,2.889,0,0,0,.2,1.062,3.131,3.131,0,0,0,2.95,2.022,3.161,3.161,0,0,0,2.714-1.526l.944-1.589h.653l22.774-.092a.448.448,0,0,1,.451.447Z" transform="translate(-356.87 -240.666)" fill="#fa3"/>
      <path id="Path_3" data-name="Path 3" d="M410.16,273.9l-.363,1.567-49.326.2-.376-1.564Z" transform="translate(-357.558 -243.176)" fill="#c70"/>
      <path id="Path_4" data-name="Path 4" d="M409.9,275.894l-4.638,20.229a3.19,3.19,0,0,1-3.129,2.522l-33.608.135a3.19,3.19,0,0,1-3.149-2.5l-4.8-20.191Z" transform="translate(-357.66 -243.601)" fill="#fa3"/>
      <path id="Path_5" data-name="Path 5" d="M395.379,262.25l-.472.787-.944,1.589a3.189,3.189,0,0,1-4.311,1.1,3.089,3.089,0,0,1-1.534-2.384,3.131,3.131,0,0,0,2.95,2.022,3.161,3.161,0,0,0,2.714-1.526l.944-1.589Z" transform="translate(-363.535 -240.691)" fill="#c70"/>
      <path id="Path_6" data-name="Path 6" d="M404.721,239.517l-10.049,16.892-.946,1.584a3.153,3.153,0,0,1-2.709,1.529,3.13,3.13,0,0,1-3.151-3.087,3.012,3.012,0,0,1,.434-1.575l10.987-18.477a3.169,3.169,0,0,1,4.306-1.111A3.08,3.08,0,0,1,404.721,239.517Z" transform="translate(-363.481 -234.846)" fill="#fa3"/>
      <path id="Path_7" data-name="Path 7" d="M416.979,260.151c-.392.513-.806,1.042-1.245,1.578l-15.687.064s.4-.679.938-1.577Z" transform="translate(-366.079 -240.243)" fill="#995a00"/>
      <path id="Path_8" data-name="Path 8" d="M417.232,257.032l-15.994.063c.873-1.455,2.1-3.509,2.6-4.24a.526.526,0,0,1,.055-.087.719.719,0,0,0,.039-.063.207.207,0,0,0,.039-.047.531.531,0,0,1,.4-.2.5.5,0,0,1,.409.189,19.2,19.2,0,0,0,4.579,4.012.178.178,0,0,0,.22-.024.168.168,0,0,0,.024-.212,34.434,34.434,0,0,1-3.446-5.79.49.49,0,0,1,.118-.519,16.883,16.883,0,0,1,1.778-1.6c.071-.047.15-.1.228-.149.22-.15.44-.291.661-.417.1-.063.212-.118.315-.173l.024-.024c.008-.016.024-.016.031-.024a.317.317,0,0,1,.071-.039.423.423,0,0,1,.448.134,18.58,18.58,0,0,0,4,3.233.159.159,0,0,0,.212-.039.178.178,0,0,0-.008-.228,21.775,21.775,0,0,1-2.407-3.58.6.6,0,0,1-.031-.5.515.515,0,0,1,.134-.2.567.567,0,0,1,.228-.157c.267-.1.535-.189.795-.26.031-.008.063-.024.087-.031s.024-.008.031-.016c.071-.024.118-.039.149-.047h.008c2.761-.81,4.87-.488,6.341.677C422.369,249.046,420.693,252.547,417.232,257.032Z" transform="translate(-366.333 -237.125)" fill="#c70"/>
      <path id="Path_9" data-name="Path 9" d="M375.634,247.2" transform="translate(-360.872 -237.481)" fill="none" stroke="#009e96" stroke-linecap="round" stroke-linejoin="round" stroke-width="1"/>
      <path id="Path_10" data-name="Path 10" d="M382.179,261.866l-15.443.062a7.553,7.553,0,0,1-.337-1.572l15.656-.063A7,7,0,0,1,382.179,261.866Z" transform="translate(-358.902 -240.274)" fill="#cc2f26"/>
      <path id="Path_11" data-name="Path 11" d="M382.044,258.41l-15.656.063c-.581-5.457,5.442-8.416,10.556-6.344A8.036,8.036,0,0,1,382.044,258.41Z" transform="translate(-358.892 -238.391)" fill="#f34" stroke="rgba(0,0,0,0)" stroke-width="1"/>
      <path id="Path_12" data-name="Path 12" d="M383.741,249.163s-3.216-.782-3.984,2.311" transform="translate(-361.752 -237.881)" fill="none" stroke="#00cc8e" stroke-linecap="round" stroke-linejoin="round" stroke-width="1"/>
      <path id="Path_13" data-name="Path 13" d="M375.631,246.453c.008,1.984.5,3.364,2.879,4.238a4.11,4.11,0,0,0-2.879-4.238Z" transform="translate(-360.872 -237.322)" fill="#00cc8e"/>
      <path id="Path_14" data-name="Path 14" d="M399.9,286.36l-.559,4.712-3.9.024-.016-4.72Z" transform="translate(-365.094 -245.834)" fill="#fff"/>
      <path id="Path_15" data-name="Path 15" d="M406.983,291.12l4.126.017,1.036-4.712-4.57-.018Z" transform="translate(-367.559 -245.843)" fill="#fff"/>
      <path id="Path_16" data-name="Path 16" d="M399.2,294.36l-.511,4.3-3.54.016-.016-4.3Z" transform="translate(-365.03 -247.54)" fill="#fff"/>
      <path id="Path_17" data-name="Path 17" d="M410.138,294.416l-.944,4.3-3.517-.016.535-4.3Z" transform="translate(-367.28 -247.549)" fill="#fff"/>
      <path id="Path_18" data-name="Path 18" d="M400.629,277.85,400.023,283l-4.272.016-.024-5.137Z" transform="translate(-365.158 -244.018)" fill="#fff"/>
      <path id="Path_19" data-name="Path 19" d="M408.329,283.042l4.5.018,1.129-5.135-4.979-.02Z" transform="translate(-367.846 -244.03)" fill="#fff"/>
      <path id="Path_20" data-name="Path 20" d="M382.566,286.36l.559,4.712,3.9.024.016-4.72Z" transform="translate(-362.351 -245.834)" fill="#fff"/>
      <path id="Path_21" data-name="Path 21" d="M375.3,291.12l-4.125.017-1.036-4.712,4.57-.018Z" transform="translate(-359.7 -245.843)" fill="#fff"/>
      <path id="Path_22" data-name="Path 22" d="M383.386,294.36l.511,4.3,3.54.016.016-4.3Z" transform="translate(-362.526 -247.54)" fill="#fff"/>
      <path id="Path_23" data-name="Path 23" d="M372.336,294.416l.944,4.3,3.517-.016-.535-4.3Z" transform="translate(-360.169 -247.549)" fill="#fff"/>
      <path id="Path_24" data-name="Path 24" d="M381.726,277.85l.606,5.145,4.272.016.024-5.137Z" transform="translate(-362.172 -244.018)" fill="#fff"/>
      <path id="Path_25" data-name="Path 25" d="M373.83,283.042l-4.5.018-1.129-5.135,4.979-.02Z" transform="translate(-359.288 -244.03)" fill="#fff"/>
      <path id="Path_26" data-name="Path 26" d="M401.179,286.36l-.559,4.712h-.212l.558-4.712Z" transform="translate(-366.156 -245.834)" fill="#c70"/>
      <path id="Path_27" data-name="Path 27" d="M400.372,294.36l-.511,4.3h-.212l.511-4.3Z" transform="translate(-365.994 -247.54)" fill="#c70"/>
      <path id="Path_28" data-name="Path 28" d="M413.194,286.406l-1.028,4.73H411.9l1.019-4.73Z" transform="translate(-368.608 -245.843)" fill="#c70"/>
      <path id="Path_29" data-name="Path 29" d="M402.006,277.85,401.4,283h-.212l.606-5.145Z" transform="translate(-366.323 -244.018)" fill="#c70"/>
      <path id="Path_30" data-name="Path 30" d="M415.1,277.906l-1.12,5.155h-.287l1.111-5.155Z" transform="translate(-368.989 -244.03)" fill="#c70"/>
      <path id="Path_31" data-name="Path 31" d="M411.344,294.42l-.952,4.3h-.244l.944-4.3Z" transform="translate(-368.234 -247.553)" fill="#c70"/>
      <path id="Path_32" data-name="Path 32" d="M382.3,286.36l.558,4.712h.212l-.559-4.712Z" transform="translate(-362.293 -245.834)" fill="#c70"/>
      <path id="Path_33" data-name="Path 33" d="M383.116,294.36l.511,4.3h.212l-.511-4.3Z" transform="translate(-362.468 -247.54)" fill="#c70"/>
      <path id="Path_34" data-name="Path 34" d="M370.139,286.406l1.028,4.73h.263l-1.019-4.73Z" transform="translate(-359.7 -245.843)" fill="#c70"/>
      <path id="Path_35" data-name="Path 35" d="M381.456,277.85l.606,5.145h.212l-.606-5.145Z" transform="translate(-362.114 -244.018)" fill="#c70"/>
      <path id="Path_36" data-name="Path 36" d="M368.206,277.906l1.12,5.155h.287l-1.111-5.155Z" transform="translate(-359.288 -244.03)" fill="#995a00"/>
      <path id="Path_37" data-name="Path 37" d="M372.016,294.42l.952,4.3h.244l-.944-4.3Z" transform="translate(-360.1 -247.553)" fill="#c70"/>
      <ellipse id="Ellipse_1" data-name="Ellipse 1" cx="0.406" cy="0.406" rx="0.406" ry="0.406" transform="translate(12.63 14.077)" fill="#99231d"/>
      <ellipse id="Ellipse_2" data-name="Ellipse 2" cx="0.406" cy="0.406" rx="0.406" ry="0.406" transform="translate(11.818 14.889)" fill="#99231d"/>
      <ellipse id="Ellipse_3" data-name="Ellipse 3" cx="0.239" cy="0.239" rx="0.239" ry="0.239" transform="translate(13.176 15.129)" fill="#99231d"/>
      <path id="Path_38" data-name="Path 38" d="M410.3,257.437a.178.178,0,0,1-.22.024,19.2,19.2,0,0,1-4.579-4.012.5.5,0,0,0-.409-.189.53.53,0,0,0-.4.2c-.024.031-.047.063-.079.11a13.317,13.317,0,0,1,4.162-4.264,16.9,16.9,0,0,0-1.778,1.6.49.49,0,0,0-.118.519,34.425,34.425,0,0,0,3.446,5.79A.168.168,0,0,1,410.3,257.437Z" transform="translate(-367.052 -237.931)" fill="#995a00"/>
      <path id="Path_39" data-name="Path 39" d="M416.253,251.266a.159.159,0,0,1-.212.039,18.577,18.577,0,0,1-4-3.233.423.423,0,0,0-.448-.134,21.315,21.315,0,0,1,2.352-1.188.515.515,0,0,0-.134.2.594.594,0,0,0,.031.5,21.773,21.773,0,0,0,2.407,3.58A.178.178,0,0,1,416.253,251.266Z" transform="translate(-368.541 -237.385)" fill="#995a00"/>
    </g>
  </g>
</svg>
