<svg width="128" height="128" viewBox="0 0 128 128" fill="none" xmlns="http://www.w3.org/2000/svg">
<rect width="128" height="128" rx="64" fill="#9CABB8"/>
<g clip-path="url(#clip0_2172_10345)">
<path d="M104 32C112.837 32 120 24.8366 120 16C120 7.16344 112.837 0 104 0C95.1634 0 88 7.16344 88 16C88 24.8366 95.1634 32 104 32Z" fill="#007AFF"/>
<path d="M103.331 10.9878H98.9134C98.7476 10.9878 98.5834 11.0204 98.4303 11.0839C98.2771 11.1473 98.1379 11.2403 98.0207 11.3576C97.9034 11.4748 97.8104 11.614 97.747 11.7672C97.6835 11.9204 97.6509 12.0845 97.6509 12.2503V21.0852C97.6509 21.4201 97.7839 21.7412 98.0207 21.978C98.2574 22.2148 98.5786 22.3478 98.9134 22.3478H107.748C108.083 22.3478 108.404 22.2148 108.641 21.978C108.878 21.7412 109.011 21.4201 109.011 21.0852V16.6678" stroke="white" stroke-width="1.45455" stroke-linecap="round" stroke-linejoin="round"/>
<path d="M108.064 10.0422C108.318 9.80807 108.653 9.68124 108.998 9.68827C109.344 9.69529 109.673 9.83564 109.917 10.0799C110.161 10.3242 110.302 10.6535 110.309 10.999C110.316 11.3444 110.189 11.6791 109.955 11.9331L103.962 17.9302L101.437 18.5615L102.068 16.0364L108.064 10.0422Z" stroke="white" stroke-width="1.45455" stroke-linecap="round" stroke-linejoin="round"/>
</g>
<path d="M65.5 65.6021C69.2606 65.6021 72.8671 64.1082 75.5262 61.4491C78.1853 58.79 79.6792 55.1834 79.6792 51.4229C79.6792 47.6623 78.1853 44.0558 75.5262 41.3966C72.8671 38.7375 69.2606 37.2437 65.5 37.2437C61.7394 37.2437 58.1329 38.7375 55.4738 41.3966C52.8147 44.0558 51.3208 47.6623 51.3208 51.4229C51.3208 55.1834 52.8147 58.79 55.4738 61.4491C58.1329 64.1082 61.7394 65.6021 65.5 65.6021ZM65.5 71.8318C46.6478 71.8318 34.5625 82.2352 34.5625 87.3005V96.759H96.4375V87.3005C96.4375 81.1749 84.9963 71.8318 65.5 71.8318Z" fill="#E6EAED"/>
<defs>
<clipPath id="clip0_2172_10345">
<rect width="32" height="32" fill="white" transform="translate(88)"/>
</clipPath>
</defs>
</svg>
