<svg xmlns="http://www.w3.org/2000/svg" width="16" height="16" viewBox="0 0 16 16">
  <path id="comment-alt-message" d="M14,6H6A.8.8,0,0,0,6,7.6h8A.8.8,0,0,0,14,6Zm0,3.2H6a.8.8,0,0,0,0,1.6h8a.8.8,0,0,0,0-1.6ZM15.6,2H4.4A2.4,2.4,0,0,0,2,4.4v8a2.4,2.4,0,0,0,2.4,2.4h9.272l2.96,2.968A.8.8,0,0,0,17.2,18a.672.672,0,0,0,.3-.064A.8.8,0,0,0,18,17.2V4.4A2.4,2.4,0,0,0,15.6,2Zm.8,13.272-1.832-1.84A.8.8,0,0,0,14,13.2H4.4a.8.8,0,0,1-.8-.8v-8a.8.8,0,0,1,.8-.8H15.6a.8.8,0,0,1,.8.8Z" transform="translate(-2 -2)" fill="#fff"/>
</svg>
