<svg xmlns="http://www.w3.org/2000/svg" width="17.6" height="16" viewBox="0 0 17.6 16">
  <path id="money-withdraw" d="M9.8,10a2.4,2.4,0,1,0,2.4,2.4A2.4,2.4,0,0,0,9.8,10Zm0,3.2a.8.8,0,1,1,.8-.8A.8.8,0,0,1,9.8,13.2ZM9.232,8.168a.8.8,0,0,0,.264.168.752.752,0,0,0,.608,0,.8.8,0,0,0,.264-.168l1.832-1.8A.826.826,0,0,0,11.032,5.2l-.432.472V2.8A.8.8,0,1,0,9,2.8V5.672L8.568,5.2A.826.826,0,1,0,7.4,6.368ZM15.4,12.4a.8.8,0,1,0-.8.8A.8.8,0,0,0,15.4,12.4Zm.8-5.6H13.8a.8.8,0,1,0,0,1.6h2.4a.8.8,0,0,1,.8.8v6.4a.8.8,0,0,1-.8.8H3.4a.8.8,0,0,1-.8-.8V9.2a.8.8,0,0,1,.8-.8H5.8a.8.8,0,1,0,0-1.6H3.4A2.4,2.4,0,0,0,1,9.2v6.4A2.4,2.4,0,0,0,3.4,18H16.2a2.4,2.4,0,0,0,2.4-2.4V9.2A2.4,2.4,0,0,0,16.2,6.8Zm-12,5.6a.8.8,0,1,0,.8-.8A.8.8,0,0,0,4.2,12.4Z" transform="translate(-1 -2)" fill="#01c7b1"/>
</svg>
