<svg xmlns="http://www.w3.org/2000/svg" width="20" height="12.727" viewBox="0 0 20 12.727">
  <path id="money-bill" d="M5.545,10.455a.909.909,0,1,0,.909.909A.909.909,0,0,0,5.545,10.455Zm10.909,0a.909.909,0,1,0,.909.909A.909.909,0,0,0,16.455,10.455ZM18.273,5H3.727A2.727,2.727,0,0,0,1,7.727V15a2.727,2.727,0,0,0,2.727,2.727H18.273A2.727,2.727,0,0,0,21,15V7.727A2.727,2.727,0,0,0,18.273,5Zm.909,10a.909.909,0,0,1-.909.909H3.727A.909.909,0,0,1,2.818,15V7.727a.909.909,0,0,1,.909-.909H18.273a.909.909,0,0,1,.909.909ZM11,8.636a2.727,2.727,0,1,0,2.727,2.727A2.727,2.727,0,0,0,11,8.636Zm0,3.636a.909.909,0,1,1,.909-.909A.909.909,0,0,1,11,12.273Z" transform="translate(-1 -5)" fill="#fff"/>
</svg>
