<svg xmlns="http://www.w3.org/2000/svg" width="18" height="11.455" viewBox="0 0 18 11.455">
  <path id="money-bill" d="M5.091,9.909a.818.818,0,1,0,.818.818A.818.818,0,0,0,5.091,9.909Zm9.818,0a.818.818,0,1,0,.818.818A.818.818,0,0,0,14.909,9.909ZM16.545,5H3.455A2.455,2.455,0,0,0,1,7.455V14a2.455,2.455,0,0,0,2.455,2.455H16.545A2.455,2.455,0,0,0,19,14V7.455A2.455,2.455,0,0,0,16.545,5Zm.818,9a.818.818,0,0,1-.818.818H3.455A.818.818,0,0,1,2.636,14V7.455a.818.818,0,0,1,.818-.818H16.545a.818.818,0,0,1,.818.818ZM10,8.273a2.455,2.455,0,1,0,2.455,2.455A2.455,2.455,0,0,0,10,8.273Zm0,3.273a.818.818,0,1,1,.818-.818A.818.818,0,0,1,10,11.545Z" transform="translate(-1 -5)" fill="#01c7b1"/>
</svg>
