<svg width="114" height="115" viewBox="0 0 114 115" fill="none" xmlns="http://www.w3.org/2000/svg">
<path d="M56.7306 13.0232C53.1656 13.0232 50.2756 10.1079 50.2756 6.51161C50.2756 2.91535 53.1656 0 56.7306 0C60.2955 0 63.1855 2.91535 63.1855 6.51161C63.1855 10.1079 60.2955 13.0232 56.7306 13.0232Z" fill="#CF7B00"/>
<path d="M63.1855 6.51161C63.1855 10.108 60.2955 13.0232 56.7306 13.0232V0C60.2953 0 63.1855 2.91541 63.1855 6.51161Z" fill="#CF933C"/>
<path d="M57.0006 115C48.8817 115 42.3 108.361 42.3 100.17C42.3 91.9803 48.8817 85.3409 57.0006 85.3409C65.1195 85.3409 71.7012 91.9803 71.7012 100.17C71.7012 108.361 65.1195 115 57.0006 115Z" fill="#940009"/>
<path d="M71.7012 100.17C71.7012 108.36 65.1195 114.999 57.0006 114.999V85.3401C65.1195 85.3401 71.7012 91.9793 71.7012 100.17Z" fill="#FF0029"/>
<path d="M10.0432 90.2653C24.0626 74.2952 31.703 53.7449 31.5839 32.4134C31.5837 32.364 31.5835 32.3146 31.5835 32.2652C31.5835 18.0419 43.0135 6.5116 57.1131 6.5116C71.2127 6.5116 82.6427 18.0419 82.6427 32.2652C82.6427 32.3379 82.6425 32.4109 82.6418 32.4835C82.4668 53.7307 90.0469 74.3084 103.956 90.2646L103.957 90.2653H10.0432Z" fill="#FF9800"/>
<path d="M57.0002 6.51317C57.0378 6.51317 57.0755 6.5116 57.1131 6.5116C71.2127 6.5116 82.6427 18.0421 82.6427 32.2652C82.6427 32.3379 82.6425 32.4109 82.6418 32.4835C82.4668 53.7307 90.0469 74.3084 103.956 90.2646L103.957 90.2653H57.0002V6.51317Z" fill="#F7DC4D"/>
<path d="M13.0077 100.17H100.991C104.675 100.17 107.662 97.1569 107.662 93.4406C107.662 89.7242 104.675 86.7113 100.991 86.7113H13.0077C9.32367 86.7113 6.33697 89.7242 6.33697 93.4406C6.33697 97.1569 9.32367 100.17 13.0077 100.17Z" fill="#E5BF2B"/>
<path d="M22.1288 72.433C25.0055 66.7816 27.2497 60.8281 28.8308 54.6799H85.3295C86.8907 60.8243 89.1139 66.7791 91.9668 72.433H22.1288Z" fill="#005A95"/>
<path d="M57.0009 54.6799H85.2824C86.8436 60.8243 89.0668 66.7793 91.9199 72.433H57.0012V54.6799H57.0009Z" fill="#31AAEF"/>
<path d="M56.9996 86.7113H100.991C104.675 86.7113 107.662 89.7242 107.662 93.4406C107.662 97.1569 104.675 100.17 100.991 100.17H56.9994V86.7115H56.9996V86.7113Z" fill="#F9ED9D"/>
</svg>
