<svg id="pdf-svgrepo-com" xmlns="http://www.w3.org/2000/svg" width="85.386" height="109" viewBox="0 0 85.386 109">
  <path id="Path_32876" data-name="Path 32876" d="M100.064,0H32.842V109h85.386V18.164Z" transform="translate(-32.842)" fill="#e8e8e8"/>
  <path id="Path_32877" data-name="Path 32877" d="M134.415,86.265c-1.31-2.334-5.835-3.068-7.911-3.4a31.476,31.476,0,0,0-4.962-.337c-1.3-.009-2.58.055-3.844.127-.466.031-.927.072-1.388.111q-.709-.733-1.371-1.511a50.221,50.221,0,0,1-6.931-11.024,43.523,43.523,0,0,0,1.121-5.927c.433-3.749.582-8.021-.823-11.595-.485-1.233-1.778-2.735-3.27-1.987-1.715.86-2.2,3.3-2.338,5.023a16.763,16.763,0,0,0,.2,4.168,29.764,29.764,0,0,0,1.042,4q.586,1.8,1.29,3.575c-.3.93-.614,1.843-.946,2.733-.774,2.029-1.61,3.956-2.415,5.81l-1.246,2.7a91.45,91.45,0,0,1-4.248,8.276,46.41,46.41,0,0,0-9.655,4.539A21.112,21.112,0,0,0,82.9,94.647a6.731,6.731,0,0,0-2.136,3.963,2.5,2.5,0,0,0,1,2.206,4.164,4.164,0,0,0,3.379.44c3.685-.773,6.515-3.941,8.925-6.61a72.76,72.76,0,0,0,5.525-7l.013-.019a83.635,83.635,0,0,1,10.994-2.59c1.789-.3,3.625-.539,5.5-.71a25.9,25.9,0,0,0,4.292,3.295,19.72,19.72,0,0,0,3.841,1.84,27.525,27.525,0,0,0,4.144,1.038,12.2,12.2,0,0,0,2.19.12c1.665-.063,4.055-.7,4.211-2.722A2.819,2.819,0,0,0,134.415,86.265ZM94.556,89.971c-.78,1.208-1.532,2.294-2.24,3.25-1.735,2.361-3.717,5.166-6.587,6.215a5.094,5.094,0,0,1-2.019.36c-.674-.04-1.338-.337-1.308-1.1a3.234,3.234,0,0,1,.512-1.413,8.729,8.729,0,0,1,1.177-1.519,19.542,19.542,0,0,1,3.515-2.847,41.645,41.645,0,0,1,7.432-3.7C94.876,89.473,94.715,89.727,94.556,89.971Zm9.787-30.293a13.722,13.722,0,0,1-.116-3.776,8.937,8.937,0,0,1,.373-1.78c.154-.478.486-1.645,1.016-1.8.874-.247,1.142,1.628,1.241,2.159a23.77,23.77,0,0,1-.609,9.336c-.107.471-.227.934-.35,1.4-.209-.576-.409-1.153-.592-1.733A28.391,28.391,0,0,1,104.343,59.679Zm6,23.829A85.028,85.028,0,0,0,101,85.559c.353-.1,1.968-3.159,2.329-3.795a46.239,46.239,0,0,0,4.083-9.418,45.988,45.988,0,0,0,6.526,9.784q.363.4.738.8C113.205,83.087,111.757,83.28,110.34,83.507Zm22.2,4.2c-.12.649-1.506,1.02-2.153,1.122a12.333,12.333,0,0,1-5.762-.554,18.467,18.467,0,0,1-3.616-1.685,21.456,21.456,0,0,1-3.213-2.4c1.233-.074,2.481-.123,3.735-.1a31.6,31.6,0,0,1,3.766.239,13.312,13.312,0,0,1,6.806,2.583C132.465,87.218,132.58,87.482,132.538,87.711Z" transform="translate(-63.529 -32.361)" fill="#fb3449"/>
  <path id="Path_32878" data-name="Path 32878" d="M102.875,9.082H32.842V0h67.222Z" transform="translate(-32.842)" fill="#fb3449"/>
  <g id="Group_40132" data-name="Group 40132" transform="translate(21.276 81.211)">
    <path id="Path_32879" data-name="Path 32879" d="M104.54,231.378a5.775,5.775,0,0,1-1.7,4.466,6.878,6.878,0,0,1-4.843,1.575h-1.31v5.722h-4.66V225.892h5.97a7.3,7.3,0,0,1,4.908,1.428A5.092,5.092,0,0,1,104.54,231.378Zm-7.858,2.242h.85a2.32,2.32,0,0,0,1.67-.59,2.141,2.141,0,0,0,.619-1.628q0-1.746-1.935-1.746h-1.2Z" transform="translate(-92.022 -225.892)" fill="#a4a9ad"/>
    <path id="Path_32880" data-name="Path 32880" d="M149.13,234.151a8.911,8.911,0,0,1-2.377,6.654,9.131,9.131,0,0,1-6.684,2.336h-5.581V225.892h5.97a9.006,9.006,0,0,1,6.412,2.124A8.016,8.016,0,0,1,149.13,234.151Zm-4.837.165a5.484,5.484,0,0,0-.938-3.516,3.469,3.469,0,0,0-2.85-1.144h-1.356v9.663h1.038a3.758,3.758,0,0,0,3.115-1.233A5.956,5.956,0,0,0,144.293,234.316Z" transform="translate(-119.221 -225.892)" fill="#a4a9ad"/>
    <path id="Path_32881" data-name="Path 32881" d="M188.4,243.141h-4.59V225.892h10.194v3.74h-5.6v3.292h5.168v3.74H188.4v6.477Z" transform="translate(-150.813 -225.892)" fill="#a4a9ad"/>
  </g>
  <path id="Path_32882" data-name="Path 32882" d="M219.821,18.164h18.164L219.821,0Z" transform="translate(-152.599)" fill="#d1d3d3"/>
</svg>
