<svg xmlns="http://www.w3.org/2000/svg" width="20" height="12.727" viewBox="0 0 20 12.727">
  <path id="ic_people_outline_24px" d="M15.091,12.273A10.9,10.9,0,0,0,11,13.182a10.724,10.724,0,0,0-4.091-.909C4.936,12.273,1,13.255,1,15.227v2.5H21v-2.5C21,13.255,17.064,12.273,15.091,12.273Zm-3.636,4.091H2.364V15.227c0-.491,2.327-1.591,4.545-1.591s4.545,1.1,4.545,1.591Zm8.182,0H12.818V15.227a1.654,1.654,0,0,0-.473-1.109,8.77,8.77,0,0,1,2.745-.482c2.218,0,4.545,1.1,4.545,1.591Zm-12.727-5A3.182,3.182,0,1,0,3.727,8.182,3.185,3.185,0,0,0,6.909,11.364Zm0-5A1.818,1.818,0,1,1,5.091,8.182,1.824,1.824,0,0,1,6.909,6.364Zm8.182,5a3.182,3.182,0,1,0-3.182-3.182A3.185,3.185,0,0,0,15.091,11.364Zm0-5a1.818,1.818,0,1,1-1.818,1.818A1.824,1.824,0,0,1,15.091,6.364Z" transform="translate(-1 -5)" fill="#01c7b1"/>
</svg>
