<svg width="80" height="79" viewBox="0 0 80 79" fill="none" xmlns="http://www.w3.org/2000/svg">
<g clip-path="url(#clip0_2434_10230)">
<path d="M78.842 14.0508V15.5298L79.581 17.0088L78.102 16.2698L76.623 17.7488L77.362 15.5308L75.883 14.7918H77.362L78.842 14.0508Z" fill="#01C7B1"/>
<path d="M70.708 0L69.969 2.958L72.19 4.437H69.229L67.01 5.916L67.749 2.958L66.271 1.474L68.489 2.213L70.708 0Z" fill="#FFCC00"/>
<path d="M10.617 11.0918V12.5708L11.356 13.3098H9.87802L9.13902 14.0488V12.5708L8.40002 11.8318H9.87802L10.617 11.0918Z" fill="#FF2D55"/>
<path d="M4.70201 0.740234L3.96201 3.69723L5.44302 5.17623L3.22301 4.43723L1.00501 6.65523L1.74301 3.69723L0.265015 2.21923L2.48301 2.95823L4.70201 0.740234Z" fill="#007AFF"/>
<path d="M40.636 64.3343C56.4126 64.3343 69.202 51.4222 69.202 35.4943C69.202 19.5664 56.4126 6.6543 40.636 6.6543C24.8594 6.6543 12.07 19.5664 12.07 35.4943C12.07 51.4222 24.8594 64.3343 40.636 64.3343Z" fill="#007AFF"/>
<path d="M29.201 38.0822L35.1171 43.2582L50.6459 26.9902" stroke="white" stroke-width="6" stroke-linecap="round" stroke-linejoin="round"/>
<path opacity="0.1" d="M73.709 77.1061C60.926 80.1941 31.609 77.6631 14.953 75.6271C-1.70299 73.5911 -11.204 71.0381 23.766 71.1901C58.736 71.3421 61.513 72.4391 69.302 71.9301C77.091 71.4211 86.491 74.0191 73.709 77.1061Z" fill="#007AFF"/>
</g>
<defs>
<clipPath id="clip0_2434_10230">
<rect width="80" height="78.549" fill="white"/>
</clipPath>
</defs>
</svg>
