<svg xmlns="http://www.w3.org/2000/svg" width="329" height="34" viewBox="0 0 329 34">
  <g id="Group_38844" data-name="Group 38844" transform="translate(0 0.233)">
    <rect id="Rectangle_21997" data-name="Rectangle 21997" width="329" height="34" rx="10" transform="translate(0 -0.233)" fill="none"/>
    <g id="Group_38726" data-name="Group 38726" transform="translate(215.328 9.63)">
      <path id="Path_21" data-name="Path 21" d="M705.949,85.114a.827.827,0,1,0,.816.828.812.812,0,0,0-.79-.833h-.025Z" transform="translate(-692.07 -84.816)" fill="#e1051d"/>
      <path id="Path_22" data-name="Path 22" d="M705.408,93.8h1.3V88.626l-1.3.211Z" transform="translate(-692.191 -86.258)" fill="#e1051d"/>
      <path id="Path_23" data-name="Path 23" d="M699.035,88.471a3.85,3.85,0,0,0-1.754.46l-.146.076.349.779.2-.093a2.847,2.847,0,0,1,1.228-.287c.471.019.665.235.665.686v.266H698.8c-1.239,0-2.014.656-2.032,1.675a1.851,1.851,0,0,0,1.931,1.8,3.039,3.039,0,0,0,2.192-.811V90.254A1.684,1.684,0,0,0,699.035,88.471Zm.537,4.293a1.282,1.282,0,0,1-.676.168c-.522,0-.755-.4-.755-.869a.821.821,0,0,1,.9-.826h.523Z" transform="translate(-688.651 -86.194)" fill="#e1051d"/>
      <path id="Path_24" data-name="Path 24" d="M722.146,92.952a.978.978,0,0,1-.755-.287,1.937,1.937,0,0,1-.309-1.325h2.8v-.126c-.024-1.835-.65-2.671-2.02-2.671-1.529,0-2.124,1.407-2.14,2.729a2.8,2.8,0,0,0,.881,2.156,2.161,2.161,0,0,0,1.4.453,3.135,3.135,0,0,0,.923-.136,3.708,3.708,0,0,0,.978-.476l-.368-.755A2.52,2.52,0,0,1,722.146,92.952Zm-.281-3.444c.578,0,.663.63.663,1.017H721.12c.022-.5.231-1.017.745-1.017Z" transform="translate(-698.06 -86.223)" fill="#e1051d"/>
      <path id="Path_25" data-name="Path 25" d="M709.375,89.5v4.25H710.7v-4a1.486,1.486,0,0,1,.89-.331,1.7,1.7,0,0,1,.532.054l.366-.823a2.249,2.249,0,0,0-.881-.158A3.022,3.022,0,0,0,709.375,89.5Z" transform="translate(-693.818 -86.202)" fill="#e1051d"/>
      <path id="Path_26" data-name="Path 26" d="M730.087,91.992c-.541-.041-.653-.278-.653-.673V86.195l-1.3.221v4.817a1.462,1.462,0,0,0,1.657,1.636,3.266,3.266,0,0,0,.5-.052V92S730.163,92,730.087,91.992Z" transform="translate(-701.506 -85.261)" fill="#e1051d"/>
      <path id="Path_27" data-name="Path 27" d="M716.578,86.205l-1.333.215V91.26c0,1.085.63,1.6,1.7,1.6a2.807,2.807,0,0,0,.5-.049V92h-.189c-.561-.02-.67-.329-.67-.684V88.591h.859v-.955h-.859Z" transform="translate(-696.224 -85.265)" fill="#e1051d"/>
      <path id="Path_28" data-name="Path 28" d="M685.579,92.816a5.091,5.091,0,0,0,1.039-.547l.084-.052a7.927,7.927,0,0,0,.979-.738,4.431,4.431,0,0,0,1.42-2.03,2.5,2.5,0,0,0,.069-1.484,1.905,1.905,0,0,0-.744-1.007,2.154,2.154,0,0,0-1.353-.4,4.755,4.755,0,0,0-2.555.9l-.029.018h0a.95.95,0,0,0-.082.051c-.029.02-.044.03-.07.045a5.469,5.469,0,0,0-.53.41,2.372,2.372,0,0,0-.8,1.523.71.71,0,0,0,.277.543.921.921,0,0,0,.579.184,2.749,2.749,0,0,0,1.328-.47l.067-.044.183-.126.06-.04a7.209,7.209,0,0,1,1.591-.881,1.238,1.238,0,0,1,.4-.077.781.781,0,0,1,.173.019.54.54,0,0,1,.378.3,1.368,1.368,0,0,1-.081,1.1A4.8,4.8,0,0,1,686.7,91.6a5.118,5.118,0,0,1-.832.605l-.022.012a3.149,3.149,0,0,1-.386.188l-.019.007-.108.041c-.582.155-.228-.358-.228-.358a4.416,4.416,0,0,1,.4-.4c.08-.074.16-.149.242-.232l.019-.018A.606.606,0,0,0,685.99,91a.515.515,0,0,0-.533-.438h-.018a1.072,1.072,0,0,0-.629.262,2.032,2.032,0,0,0-.418.472,1.358,1.358,0,0,0-.164,1.373.7.7,0,0,0,.63.3A2.146,2.146,0,0,0,685.579,92.816Z" transform="translate(-683.01 -85.41)" fill="#e1051d"/>
      <path id="Path_29" data-name="Path 29" d="M733.488,86.486a.862.862,0,0,1,.58-.341h.284v1.124h1.722v.5a.657.657,0,0,1-.733.589h-.988v1.947c0,.646.286.895.784.895a1.793,1.793,0,0,0,.892-.173h.045v.442c0,.5-.366.828-1.085.828a1.656,1.656,0,0,1-1.861-1.841V87.471a1.234,1.234,0,0,1,.36-.985m4.092.434a.737.737,0,0,0,.729-.73.728.728,0,0,0-.729-.718.718.718,0,0,0-.718.718h0a.727.727,0,0,0,.718.73m.874,5.364c.526,0,.736-.211.736-.745v-.262h-.229c-.543,0-.755-.159-.755-.652V88.3a.806.806,0,0,0-.881-.922h-.349v3.362a1.361,1.361,0,0,0,1.482,1.547m9.757-2.438c0-1-.378-1.586-1.183-1.586-.706,0-1.066.589-1.066,1.41,0,.987.36,1.574,1.18,1.574.717,0,1.07-.588,1.07-1.4m-3.532,0a2.434,2.434,0,0,1,2.462-2.691,2.358,2.358,0,0,1,2.348,2.517,2.423,2.423,0,0,1-2.462,2.677,2.347,2.347,0,0,1-2.349-2.5m.243-3.222h.025a2.713,2.713,0,0,1,2.265-1.046,2.666,2.666,0,0,1,2.14,1.052h.024v-.52a1.147,1.147,0,0,0-.19-.572,2.65,2.65,0,0,0-2.078-.933,2.585,2.585,0,0,0-2.021.967,1.159,1.159,0,0,0-.165.52Zm2.666,6.618h-.038a3.973,3.973,0,0,1-3.414,1.742,3.922,3.922,0,0,1-3.232-1.753h-.038v.63a2.009,2.009,0,0,0,.288.951,3.847,3.847,0,0,0,3.133,1.55,3.806,3.806,0,0,0,3.051-1.6,2.051,2.051,0,0,0,.252-.866Zm-4.087-3.409h-.656l.024.114a3.491,3.491,0,0,1,.072.7v.4c0,.2-.04.378-.541.378a1.443,1.443,0,0,1-1.581-1.65,1.494,1.494,0,0,1,1.59-1.5,2.47,2.47,0,0,1,1.447.4l.024.019h.168v-.433c0-.515-.476-1.071-1.511-1.071a2.741,2.741,0,0,0-2.99,2.721,2.587,2.587,0,0,0,2.734,2.6c1.25,0,1.854-.433,1.854-1.33v-.8a.625.625,0,0,0-.63-.548" transform="translate(-703.555 -84.612)" fill="#003265"/>
      <path id="Path_30" data-name="Path 30" d="M716.536,102.6l-.629-1.9c-.019-.059-.037-.119-.053-.182s-.031-.12-.047-.171-.031-.126-.05-.176h-.01a1.818,1.818,0,0,1-.016.183c-.006.063-.014.108-.017.171s-.009.126-.016.188l-.237,1.888h-.7l.5-3.674h.755l.739,2.265c.022.071.044.142.067.215s.041.142.06.2.039.146.061.215h.011l.06-.215q.032-.112.06-.2c.023-.073.047-.145.072-.215l.762-2.265h.755l.5,3.674h-.794l-.237-1.9-.023-.19c-.008-.064-.015-.126-.021-.173s-.014-.116-.016-.171h-.011c-.015.055-.03.112-.044.171s-.031.107-.05.169-.037.126-.056.184l-.623,1.909Z" transform="translate(-696.025 -90.476)" fill="#003265"/>
      <path id="Path_31" data-name="Path 31" d="M725.98,101.873a1.652,1.652,0,0,1-.08.5,1.372,1.372,0,0,1-.245.458,1.254,1.254,0,0,1-.422.331,1.371,1.371,0,0,1-.609.126,1.4,1.4,0,0,1-.607-.126,1.2,1.2,0,0,1-.419-.32,1.265,1.265,0,0,1-.243-.45,1.7,1.7,0,0,1-.077-.511,1.754,1.754,0,0,1,.077-.512,1.324,1.324,0,0,1,.24-.456,1.208,1.208,0,0,1,.415-.326,1.388,1.388,0,0,1,.607-.126,1.423,1.423,0,0,1,.611.126,1.287,1.287,0,0,1,.424.317,1.273,1.273,0,0,1,.251.447A1.638,1.638,0,0,1,725.98,101.873Zm-.778.028a1.79,1.79,0,0,0-.032-.349.832.832,0,0,0-.109-.276.552.552,0,0,0-.188-.181.514.514,0,0,0-.267-.067.47.47,0,0,0-.43.238.77.77,0,0,0-.094.267,2.042,2.042,0,0,0-.028.345,1.672,1.672,0,0,0,.034.347.849.849,0,0,0,.1.276.489.489,0,0,0,.179.18.533.533,0,0,0,.266.063.458.458,0,0,0,.441-.231,1.284,1.284,0,0,0,.127-.612Z" transform="translate(-699.517 -91.111)" fill="#003265"/>
      <path id="Path_32" data-name="Path 32" d="M730.761,103.245v-1.732a.5.5,0,0,0-.081-.307.334.334,0,0,0-.278-.1.476.476,0,0,0-.2.042.715.715,0,0,0-.162.1.942.942,0,0,0-.119.113l-.073.083v1.8h-.732V100.56h.716v.337a1.722,1.722,0,0,1,.132-.126,1.093,1.093,0,0,1,.182-.126,1.152,1.152,0,0,1,.241-.1,1,1,0,0,1,.3-.041.918.918,0,0,1,.371.065.678.678,0,0,1,.251.182.707.707,0,0,1,.14.276,1.28,1.28,0,0,1,.044.348v1.881Z" transform="translate(-701.909 -91.126)" fill="#003265"/>
      <path id="Path_33" data-name="Path 33" d="M735.151,102.066a.861.861,0,0,0,.192.5.619.619,0,0,0,.5.189,1.136,1.136,0,0,0,.439-.069c.109-.045.2-.086.262-.118l.237.477c-.044.027-.1.054-.153.084a1.689,1.689,0,0,1-.208.083,1.972,1.972,0,0,1-.278.067,2.147,2.147,0,0,1-.364.028,1.638,1.638,0,0,1-.6-.1,1.174,1.174,0,0,1-.44-.29,1.245,1.245,0,0,1-.27-.449,1.7,1.7,0,0,1-.093-.582,1.548,1.548,0,0,1,.1-.576,1.337,1.337,0,0,1,.28-.44,1.233,1.233,0,0,1,.42-.281,1.354,1.354,0,0,1,.523-.1,1.061,1.061,0,0,1,.93.414,1.711,1.711,0,0,1,.229,1.163Zm1-.5a.855.855,0,0,0-.028-.215.542.542,0,0,0-.081-.173.357.357,0,0,0-.136-.122.461.461,0,0,0-.214-.044.473.473,0,0,0-.365.143.752.752,0,0,0-.171.408Z" transform="translate(-704.068 -91.122)" fill="#003265"/>
      <path id="Path_34" data-name="Path 34" d="M739.409,100.6h.783l.6,1.771h.028l.546-1.771h.755l-1.108,2.974a2.958,2.958,0,0,1-.194.424,1.181,1.181,0,0,1-.252.315,1.009,1.009,0,0,1-.34.2,1.4,1.4,0,0,1-.47.069,1.542,1.542,0,0,1-.271-.019q-.1-.019-.143-.03l.1-.579a.5.5,0,0,0,.083.019,1.35,1.35,0,0,0,.176.008.566.566,0,0,0,.409-.126.92.92,0,0,0,.2-.342l.1-.276Z" transform="translate(-706.101 -91.166)" fill="#003265"/>
    </g>
    <g id="Group_38730" data-name="Group 38730" transform="translate(162.171 1.841)">
      <path id="Path_35" data-name="Path 35" d="M631.577,99.253a1.037,1.037,0,0,0,.539-.733l3.732-20.6a1.668,1.668,0,0,0-.457-1.48l-1.463-1.472a1.67,1.67,0,0,0-1.184-.493H628.13a8.878,8.878,0,0,0-3.616-3.492L622.9,72.863l-2.755-1.1-2.433,4.089-18.1.29a.821.821,0,0,0-.571.244l-5.88,5.942a.822.822,0,0,0-.238.578v15.95a.821.821,0,0,0,.821.821h32.54l2.379.757a1.035,1.035,0,0,0,.795-.07Z" transform="translate(-592.925 -70.979)" fill="#fff"/>
      <g id="Group_38729" data-name="Group 38729" transform="translate(0.693 0.877)">
        <g id="Group_38727" data-name="Group 38727">
          <path id="Path_36" data-name="Path 36" d="M594.7,86.022l5.241-5.243a.752.752,0,0,1,.533-.221h17.377c.116.135.02.232-.032.32-.363.611-.735,1.217-1.1,1.826-.209.346-.411.7-.624,1.041a.651.651,0,0,0,.06.834,5.161,5.161,0,0,0,.7.176,16,16,0,0,1,2.109.463c.9.237,1.783.523,2.665.815a4.532,4.532,0,0,1,1.106.445c-.034.172-.065.331-.1.49-.109.585-.226,1.168-.326,1.754s-.169,1.152-.27,1.725c-.091.517-.217,1.029-.312,1.546-.1.559-.181,1.121-.276,1.682-.065.382-.142.762-.21,1.143-.073.41-.141.819-.212,1.229q-.1.552-.2,1.1c-.075.423-.155.844-.226,1.267a7.544,7.544,0,0,1-.195,1.146,1.526,1.526,0,0,0,.072.978,2.148,2.148,0,0,0,1.547,1.444c.544.166,1.09.324,1.635.486l.609.182c.005.05.011.066.006.073a.051.051,0,0,1-.035.023q-14.952.005-29.9.007a.46.46,0,0,1-.124-.015.233.233,0,0,1-.07-.046c-.011-.008-.02-.019-.049-.047V87.463a2.04,2.04,0,0,1,.6-1.441" transform="translate(-594.1 -75.783)" fill="#ffc100"/>
          <path id="Path_37" data-name="Path 37" d="M647.771,101.719a.624.624,0,0,0,.287-.5c.2-1.006,3.239-16.972,3.465-18.158q.3-1.554.588-3.109c.033-.177.046-.358.08-.633.005.07.008.04,0,.014-.166-.5-.172-.569-.81-.564-1.2.008-2.392,0-3.556,0-.247-.3-.3-.416-.484-.654.185-.013.294-.028.4-.028q1.922,0,3.843,0a1.568,1.568,0,0,1,1.132.466c.322.315.637.638.957.954a1.7,1.7,0,0,1,.466,1.547c-.12.8-.268,1.587-.411,2.379-.13.723-2.622,15.17-2.7,15.593-.106.587-.221,1.173-.32,1.761a1.335,1.335,0,0,1-.661.967,11.431,11.431,0,0,1-1.721.758,1.432,1.432,0,0,1-.982-.032c-.838-.256-1.67-.528-2.509-.782-1.091-.33-2.187-.644-3.278-.976a9.407,9.407,0,0,1-1.218-.431,1.523,1.523,0,0,1-.882-1.377,3.258,3.258,0,0,1,.109-.782c.152-.818,1.453-7.917,1.547-8.435.129-.711.235-1.426.364-2.136.111-.613.235-1.3.359-1.93.087,0,.169.076.271.076a3.164,3.164,0,0,1,.1,1.558c-.082.577-.2,1.148-.306,1.721-.09.492-1.581,8.685-1.686,9.258a3.777,3.777,0,0,0-.083.577.909.909,0,0,0,.7.974c.356.117.717.222,1.076.33.532.16,1.067.313,1.6.477,1.2.369,2.39.744,3.586,1.113a1.09,1.09,0,0,0,.676,0" transform="translate(-612.695 -74.77)" fill="#181617"/>
          <path id="Path_38" data-name="Path 38" d="M644.439,95.861a15.616,15.616,0,0,0,.267-4.474,24.585,24.585,0,0,1,3.165,1.863,9.749,9.749,0,0,1,1.351,1.191,5.788,5.788,0,0,1,1.478,2.923c-.334-.15-2.682-.626-3.784-.9-.671-.167-2.389-.547-2.477-.6" transform="translate(-614.735 -80.222)" fill="#d4121e"/>
          <path id="Path_39" data-name="Path 39" d="M653.8,80.239c.957,0,1.858-.006,2.758,0a.663.663,0,0,1,.679.846c-.218,1.1-.441,2.2-.656,3.307q-.342,1.757-.671,3.517c-.152.819-.29,1.641-.438,2.461A14.738,14.738,0,0,1,655.1,92c0-.27.025-.674.027-.9,0-.854-.134-4.39-.191-5.144-.053-.707-.341-4.259-1.135-5.718" transform="translate(-618.573 -75.652)" fill="#181617"/>
          <path id="Path_40" data-name="Path 40" d="M634.452,79.122a3.957,3.957,0,0,0,1.984,3.435c-.063-.018-.122-.035-.181-.049a.012.012,0,0,1,0,.007c-.136-.038-.261-.07-.394-.108l-.017,0c-.582-.153-1.128-.3-1.668-.431-.658-.163-1.319-.313-2.012-.477a.623.623,0,0,1,.035-.205c.25-.453.508-.9.765-1.347.366-.627.738-1.253,1.1-1.879.39-.661.773-1.326,1.162-1.987.369-.623.745-1.246,1.138-1.9a9.138,9.138,0,0,1,3.345,1.2,3.909,3.909,0,0,0-1.3-.219A3.968,3.968,0,0,0,634.452,79.122Z" transform="translate(-609.706 -73.165)" fill="#005887"/>
          <path id="Path_41" data-name="Path 41" d="M640.226,76.378a3.648,3.648,0,1,0,3.648,3.648A3.65,3.65,0,0,0,640.226,76.378Zm0,6.989a3.341,3.341,0,1,1,3.341-3.341A3.34,3.34,0,0,1,640.226,83.367Z" transform="translate(-611.512 -74.07)" fill="#005887"/>
          <path id="Path_42" data-name="Path 42" d="M649.9,90.857a7.545,7.545,0,0,0-.974-1.573c-1.653-1.973-4.671-3.5-6.937-4.344a4.04,4.04,0,0,0,.459.028,3.964,3.964,0,0,0,3.265-6.213,12.831,12.831,0,0,1,1.253,1.406,13.447,13.447,0,0,1,1.124,1.911,15.983,15.983,0,0,1,1.107,3.227,26.925,26.925,0,0,1,.679,4.734C649.878,90.3,649.888,90.575,649.9,90.857Z" transform="translate(-613.729 -75.044)" fill="#005887"/>
          <path id="Path_43" data-name="Path 43" d="M644.314,73.984l1.4-1.518a9.291,9.291,0,0,1,1.735,1.432,10.772,10.772,0,0,1,1.329,1.821,12.74,12.74,0,0,1,1.269,3.426,14.155,14.155,0,0,1,.348,2.59,12.285,12.285,0,0,0-2.115-4.346,10.048,10.048,0,0,0-1.933-2.086,9.594,9.594,0,0,0-1.855-1.206c-.048-.024-.091-.06-.174-.113" transform="translate(-614.684 -72.466)" fill="#005887"/>
          <path id="Path_44" data-name="Path 44" d="M650.835,111.935l.215.423c-.178.407-.032.943-.467,1.295a1.1,1.1,0,0,1-.4-.06,3.372,3.372,0,0,0-1.118-.4c-.483-.055-.821-.1-1.047-.46a3.951,3.951,0,0,1,.181-1.256l.339-.212,2.3.668" transform="translate(-616.197 -88.372)" fill="#181617"/>
          <path id="Path_45" data-name="Path 45" d="M648.742,108.622c.155-.356.068-.808.328-1.167a1.091,1.091,0,0,1,.623.011c.493.139.994.254,1.49.381a.837.837,0,0,1,.595.41,4.1,4.1,0,0,1-.181,1.24.6.6,0,0,1-.684.135c-.526-.172-1.068-.3-1.6-.444a.671.671,0,0,1-.568-.565" transform="translate(-616.499 -86.793)" fill="#181617"/>
          <path id="Path_46" data-name="Path 46" d="M650.095,103.381l2.292.558.225.241a2.714,2.714,0,0,1-.159,1.145c-.094.335-.262.4-.609.306-.63-.169-1.263-.329-1.944-.506l-.336-.3.224-1.193.307-.248" transform="translate(-616.836 -85.139)" fill="#181617"/>
          <path id="Path_47" data-name="Path 47" d="M642.7,105.7a.55.55,0,0,1,.53-.084c.6.179,1.2.321,1.807.477l.263.279a4.113,4.113,0,0,1-.175,1.156c-.011.081-.117.15-.175.218a1.064,1.064,0,0,1-.547-.04c-.476-.148-.961-.267-1.445-.393a.778.778,0,0,1-.523-.387,2.843,2.843,0,0,1,.264-1.226" transform="translate(-613.913 -86.043)" fill="#181617"/>
          <path id="Path_48" data-name="Path 48" d="M641.793,109.667l.286-.271c.723.11,1.4.4,2.121.549l.258.27a3.177,3.177,0,0,1-.2,1.331l-.357.129a22.4,22.4,0,0,1-2.163-.7c-.047-.132-.087-.248-.123-.348.06-.313.117-.611.184-.961" transform="translate(-613.575 -87.605)" fill="#181617"/>
          <path id="Path_49" data-name="Path 49" d="M643.44,103.354c-.323-.548-.025-1.035.107-1.519l.315-.113c.548.134,1.1.27,1.649.4a.875.875,0,0,1,.655.423,3.64,3.64,0,0,1-.22,1.118.414.414,0,0,1-.525.231c-.656-.172-1.307-.357-1.98-.542" transform="translate(-614.266 -84.459)" fill="#181617"/>
          <path id="Path_50" data-name="Path 50" d="M605.327,101.285c-.022-.481-.05-1.062-.045-1.565h-.016c-.122.454-.277.957-.443,1.427l-.542,1.615h-.525l-.5-1.593c-.143-.476-.276-.984-.376-1.449h-.011c-.017.487-.038,1.079-.066,1.587l-.083,1.5h-.636l.25-3.727h.9l.486,1.5c.133.437.249.879.343,1.294h.017c.1-.4.227-.863.37-1.3l.515-1.493h.885l.216,3.727H605.4Z" transform="translate(-597.374 -83.375)" fill="#181617"/>
          <path id="Path_51" data-name="Path 51" d="M612.437,102.11a1.334,1.334,0,0,1-1.383,1.433,1.3,1.3,0,0,1-1.349-1.388,1.33,1.33,0,0,1,1.393-1.427,1.293,1.293,0,0,1,1.339,1.383m-2.03.028c0,.52.254.913.669.913.387,0,.658-.382.658-.924,0-.42-.188-.9-.653-.9-.481,0-.674.464-.674.912" transform="translate(-600.497 -84.051)" fill="#181617"/>
          <path id="Path_52" data-name="Path 52" d="M615.243,102.667c.011-.182.022-.481.022-.758V98.741h.68v1.6h.011a.972.972,0,0,1,.862-.431c.659,0,1.128.547,1.123,1.365a1.29,1.29,0,0,1-1.222,1.449.927.927,0,0,1-.852-.464h-.011l-.033.4Zm.7-1.112a.743.743,0,0,0,.017.16.627.627,0,0,0,.6.476c.425,0,.686-.343.686-.885,0-.475-.227-.863-.68-.863a.637.637,0,0,0-.6.5.847.847,0,0,0-.022.177Z" transform="translate(-602.767 -83.237)" fill="#181617"/>
          <path id="Path_53" data-name="Path 53" d="M621.46,99.3a.382.382,0,1,1-.382-.371.361.361,0,0,1,.382.371m-.725.752h.686v2.693h-.686Z" transform="translate(-605.002 -83.314)" fill="#181617"/>
          <rect id="Rectangle_21996" data-name="Rectangle 21996" width="0.686" height="3.927" transform="translate(17.148 15.504)" fill="#181617"/>
          <path id="Path_54" data-name="Path 54" d="M625.931,102.326a.731.731,0,0,0,.83.7,2.027,2.027,0,0,0,.746-.122l.1.47a2.53,2.53,0,0,1-.941.166,1.274,1.274,0,0,1-1.388-1.361,1.334,1.334,0,0,1,1.316-1.449,1.171,1.171,0,0,1,1.161,1.311,1.647,1.647,0,0,1-.022.288Zm1.183-.476a.578.578,0,0,0-.558-.658.665.665,0,0,0-.625.658Z" transform="translate(-606.881 -84.051)" fill="#181617"/>
          <path id="Path_55" data-name="Path 55" d="M605.327,109.662c-.022-.481-.05-1.062-.045-1.565h-.016c-.122.453-.277.957-.443,1.427l-.542,1.615h-.525l-.5-1.593c-.143-.476-.276-.984-.376-1.449h-.011c-.017.486-.038,1.078-.066,1.587l-.083,1.5h-.636l.25-3.727h.9l.486,1.5c.133.437.249.879.343,1.294h.017c.1-.4.227-.862.37-1.3l.515-1.493h.885l.216,3.727H605.4Z" transform="translate(-597.374 -86.809)" fill="#181617"/>
          <path id="Path_56" data-name="Path 56" d="M612.437,110.488a1.334,1.334,0,0,1-1.383,1.432,1.3,1.3,0,0,1-1.349-1.388A1.329,1.329,0,0,1,611.1,109.1a1.293,1.293,0,0,1,1.339,1.383m-2.03.028c0,.52.254.912.669.912.387,0,.658-.381.658-.923,0-.42-.188-.9-.653-.9-.481,0-.674.464-.674.913" transform="translate(-600.497 -87.485)" fill="#181617"/>
          <path id="Path_57" data-name="Path 57" d="M615.265,109.968c0-.309-.005-.569-.022-.8h.6l.034.4h.017a.971.971,0,0,1,.857-.465c.47,0,.957.3.957,1.156v1.6h-.68v-1.521c0-.387-.143-.68-.514-.68a.571.571,0,0,0-.531.4.7.7,0,0,0-.028.221v1.581h-.686Z" transform="translate(-602.767 -87.485)" fill="#181617"/>
          <path id="Path_58" data-name="Path 58" d="M621,110.7a.732.732,0,0,0,.83.7,2.018,2.018,0,0,0,.747-.122l.1.47a2.541,2.541,0,0,1-.941.166,1.274,1.274,0,0,1-1.388-1.361,1.334,1.334,0,0,1,1.316-1.449,1.171,1.171,0,0,1,1.161,1.311,1.652,1.652,0,0,1-.022.287Zm1.184-.475a.579.579,0,0,0-.559-.658.665.665,0,0,0-.625.658Z" transform="translate(-604.86 -87.485)" fill="#181617"/>
          <path id="Path_59" data-name="Path 59" d="M625.65,109.208l.486,1.443c.055.166.111.371.149.526h.017c.044-.155.094-.354.143-.531l.421-1.438h.729l-.674,1.836a4.034,4.034,0,0,1-.94,1.731,1.373,1.373,0,0,1-.713.349l-.155-.575a1.165,1.165,0,0,0,.4-.188,1.179,1.179,0,0,0,.371-.425.277.277,0,0,0,.044-.122.286.286,0,0,0-.038-.133l-.984-2.472Z" transform="translate(-606.727 -87.528)" fill="#181617"/>
          <path id="Path_60" data-name="Path 60" d="M607.291,90.229c-.034-.733-.076-1.618-.068-2.385H607.2c-.185.691-.421,1.458-.674,2.174l-.826,2.461h-.8l-.759-2.428c-.219-.725-.421-1.5-.573-2.208h-.017c-.025.742-.059,1.643-.1,2.419l-.127,2.284h-.969l.379-5.681H604.1l.742,2.284c.2.667.379,1.341.523,1.973h.025c.152-.615.345-1.315.565-1.981l.784-2.275h1.348l.329,5.681H607.4Z" transform="translate(-597.483 -78.369)" fill="#181617"/>
          <path id="Path_61" data-name="Path 61" d="M614.953,87.734h-1.618v-.868h4.29v.868H615.99v4.812h-1.037Z" transform="translate(-601.985 -78.369)" fill="#181617"/>
          <path id="Path_62" data-name="Path 62" d="M621.733,92.547V86.866h1.18L624.38,89.3a15.6,15.6,0,0,1,.969,1.9h.017c-.067-.759-.093-1.492-.093-2.36v-1.98h.961v5.681h-1.07l-1.483-2.495a19.911,19.911,0,0,1-1.02-1.964l-.025.008c.042.733.051,1.483.051,2.419v2.031Z" transform="translate(-605.427 -78.369)" fill="#181617"/>
        </g>
        <g id="Group_38728" data-name="Group 38728" transform="translate(26.783 3.297)">
          <path id="Path_63" data-name="Path 63" d="M641.564,83.968a2.142,2.142,0,0,1-.332.549,1.053,1.053,0,0,1-.7.417.919.919,0,0,1-.7-.247.978.978,0,0,1-.044-1.465,1.3,1.3,0,0,1,.413-.338l.2.291a1.053,1.053,0,0,0-.35.281.617.617,0,0,0,.915.828.562.562,0,0,0,.116-.178l-.3-.258-.191.222-.253-.218.46-.535Z" transform="translate(-639.489 -80.033)" fill="#005887"/>
          <path id="Path_64" data-name="Path 64" d="M641.335,81.147l.551.474.46-.534-.552-.475.279-.323,1.435,1.235-.279.323-.6-.516-.46.534.6.517-.28.326-1.435-1.235Z" transform="translate(-640.131 -78.97)" fill="#005887"/>
          <path id="Path_65" data-name="Path 65" d="M645.714,79.236a1.218,1.218,0,0,1-.255.422.9.9,0,0,1-1.365.134.966.966,0,0,1-.087-1.44,1.112,1.112,0,0,1,.368-.3l.2.288a.932.932,0,0,0-.288.227.623.623,0,0,0,.945.81,1.066,1.066,0,0,0,.186-.311Z" transform="translate(-641.226 -78.053)" fill="#005887"/>
        </g>
      </g>
    </g>
    <g id="Group_38739" data-name="Group 38739" transform="translate(20.935 3.399)">
      <g id="Group_38736" data-name="Group 38736" transform="translate(1.704 22.188)">
        <path id="Path_74" data-name="Path 74" d="M630.41,267.209a1.025,1.025,0,0,0-.345-.226,1.155,1.155,0,0,0-.437-.081,1.616,1.616,0,0,0-.261.022,1.127,1.127,0,0,0-.265.076,1,1,0,0,0-.247.152.912.912,0,0,0-.2.243,1,1,0,0,0-.378-.362,1.113,1.113,0,0,0-.545-.131,1.282,1.282,0,0,0-.213.019.979.979,0,0,0-.219.065.863.863,0,0,0-.388.326v-.338h-.58v2.761h.585V268.2a.824.824,0,0,1,.056-.313.668.668,0,0,1,.149-.229.606.606,0,0,1,.219-.14.743.743,0,0,1,.267-.048.576.576,0,0,1,.459.188.791.791,0,0,1,.163.536v1.536h.586V268.2a.813.813,0,0,1,.056-.313.674.674,0,0,1,.149-.229.616.616,0,0,1,.219-.14.749.749,0,0,1,.268-.048.577.577,0,0,1,.459.188.792.792,0,0,1,.163.536v1.536h.586V268a1.2,1.2,0,0,0-.08-.444A1.022,1.022,0,0,0,630.41,267.209Z" transform="translate(-626.33 -265.852)" fill="#161514"/>
        <path id="Path_75" data-name="Path 75" d="M636.918,267.309a1.042,1.042,0,0,0-.867-.407,1.343,1.343,0,0,0-.979.41,1.389,1.389,0,0,0-.294.46,1.648,1.648,0,0,0,0,1.167,1.389,1.389,0,0,0,.294.46,1.346,1.346,0,0,0,.979.409,1.111,1.111,0,0,0,.51-.109,1.063,1.063,0,0,0,.357-.294v.332h.6v-2.761h-.6Zm-.023,1.4a.831.831,0,0,1-.17.279.784.784,0,0,1-.262.186.894.894,0,0,1-.69,0,.773.773,0,0,1-.261-.19.848.848,0,0,1-.164-.281,1.046,1.046,0,0,1,0-.686.851.851,0,0,1,.164-.281.78.78,0,0,1,.261-.19.829.829,0,0,1,.35-.071.838.838,0,0,1,.341.068.8.8,0,0,1,.262.186.84.84,0,0,1,.17.28,1.048,1.048,0,0,1,0,.7Z" transform="translate(-629.749 -265.852)" fill="#161514"/>
        <path id="Path_76" data-name="Path 76" d="M642.672,268.352a1.483,1.483,0,0,0-.706-.263l-.285-.044c-.064-.009-.123-.021-.179-.033a.6.6,0,0,1-.144-.05.285.285,0,0,1-.1-.081.2.2,0,0,1-.036-.121.275.275,0,0,1,.137-.238.691.691,0,0,1,.385-.091,1.4,1.4,0,0,1,.255.023,2.091,2.091,0,0,1,.238.058,1.728,1.728,0,0,1,.2.076,1.708,1.708,0,0,1,.156.079l.259-.47a1.77,1.77,0,0,0-.5-.214,2.375,2.375,0,0,0-.614-.077,1.678,1.678,0,0,0-.475.062,1.078,1.078,0,0,0-.359.176.765.765,0,0,0-.228.278.834.834,0,0,0-.079.369.682.682,0,0,0,.237.54,1.33,1.33,0,0,0,.7.27l.288.037a.912.912,0,0,1,.363.111.228.228,0,0,1,.115.195.276.276,0,0,1-.159.247.969.969,0,0,1-.47.09,1.808,1.808,0,0,1-.3-.023,1.514,1.514,0,0,1-.245-.062,1.173,1.173,0,0,1-.2-.089,1.447,1.447,0,0,1-.163-.108l-.28.453a1.477,1.477,0,0,0,.314.181,2.184,2.184,0,0,0,.323.108,2,2,0,0,0,.3.052c.094.009.177.013.248.013a1.953,1.953,0,0,0,.532-.066,1.2,1.2,0,0,0,.4-.186.824.824,0,0,0,.245-.286.786.786,0,0,0,.085-.364A.661.661,0,0,0,642.672,268.352Z" transform="translate(-632.133 -265.854)" fill="#161514"/>
        <path id="Path_77" data-name="Path 77" d="M652.141,267.3a1.17,1.17,0,0,0-.412-.3,1.306,1.306,0,0,0-.529-.106,1.429,1.429,0,0,0-.558.106,1.25,1.25,0,0,0-.434.3,1.347,1.347,0,0,0-.282.46,1.662,1.662,0,0,0-.1.591,1.643,1.643,0,0,0,.1.6,1.324,1.324,0,0,0,.291.458,1.291,1.291,0,0,0,.447.294,1.513,1.513,0,0,0,.571.1,2.05,2.05,0,0,0,.6-.086,1.5,1.5,0,0,0,.538-.3l-.3-.43a1.346,1.346,0,0,1-.382.215,1.209,1.209,0,0,1-.416.076.974.974,0,0,1-.283-.04.731.731,0,0,1-.433-.343.892.892,0,0,1-.106-.32h2.04q.006-.052.009-.11c0-.038,0-.077,0-.115a1.72,1.72,0,0,0-.1-.589A1.38,1.38,0,0,0,652.141,267.3Zm-1.685.814a1.052,1.052,0,0,1,.081-.275.725.725,0,0,1,.149-.216.608.608,0,0,1,.216-.14.777.777,0,0,1,.287-.049.643.643,0,0,1,.47.178.867.867,0,0,1,.231.5Z" transform="translate(-635.961 -265.852)" fill="#161514"/>
        <path id="Path_78" data-name="Path 78" d="M665.749,267.309a1.042,1.042,0,0,0-.867-.407,1.343,1.343,0,0,0-.98.41,1.4,1.4,0,0,0-.294.46,1.657,1.657,0,0,0,0,1.167,1.4,1.4,0,0,0,.294.46,1.346,1.346,0,0,0,.98.409,1.113,1.113,0,0,0,.51-.109,1.064,1.064,0,0,0,.357-.294v.332h.6v-2.761h-.6Zm-.023,1.4a.829.829,0,0,1-.17.279.783.783,0,0,1-.262.186.894.894,0,0,1-.69,0,.771.771,0,0,1-.261-.19.837.837,0,0,1-.164-.281,1.047,1.047,0,0,1,0-.686.839.839,0,0,1,.164-.281.779.779,0,0,1,.261-.19.894.894,0,0,1,.69,0,.8.8,0,0,1,.262.186.838.838,0,0,1,.17.28,1.048,1.048,0,0,1,0,.7Z" transform="translate(-641.567 -265.852)" fill="#161514"/>
        <path id="Path_79" data-name="Path 79" d="M647.263,268.654a.811.811,0,0,1-.287.055.5.5,0,0,1-.172-.029.352.352,0,0,1-.138-.091.437.437,0,0,1-.094-.16.711.711,0,0,1-.035-.236v-1.2h.968v-.548h-.968v-.836h-.6v.836h-.551v.548h.551V268.2a1.105,1.105,0,0,0,.261.811.986.986,0,0,0,.73.261,1.288,1.288,0,0,0,.471-.081,2,2,0,0,0,.258-.121l-.206-.5A1.623,1.623,0,0,1,647.263,268.654Z" transform="translate(-634.14 -265.322)" fill="#161514"/>
        <path id="Path_80" data-name="Path 80" d="M656.848,266.9a1.1,1.1,0,0,0-.458.093.97.97,0,0,0-.343.342v-.362H655.5v2.761h.552v-1.519a.942.942,0,0,1,.049-.314.687.687,0,0,1,.136-.234.567.567,0,0,1,.207-.144.706.706,0,0,1,.266-.049,1.191,1.191,0,0,1,.236.026.954.954,0,0,1,.121.032l.178-.576a1.06,1.06,0,0,0-.147-.037A1.525,1.525,0,0,0,656.848,266.9Z" transform="translate(-638.288 -265.852)" fill="#161514"/>
        <path id="Path_81" data-name="Path 81" d="M671.037,266.9a1.094,1.094,0,0,0-.458.093.973.973,0,0,0-.343.342v-.362h-.547v2.761h.553v-1.519a.927.927,0,0,1,.049-.314.68.68,0,0,1,.135-.234.571.571,0,0,1,.208-.144.7.7,0,0,1,.265-.049,1.2,1.2,0,0,1,.237.026.979.979,0,0,1,.121.032l.178-.576a1.019,1.019,0,0,0-.148-.037A1.518,1.518,0,0,0,671.037,266.9Z" transform="translate(-644.104 -265.852)" fill="#161514"/>
        <path id="Path_82" data-name="Path 82" d="M675.18,265.123v1.456a1.044,1.044,0,0,0-.867-.407,1.346,1.346,0,0,0-.98.41,1.408,1.408,0,0,0-.294.46,1.656,1.656,0,0,0,0,1.167,1.408,1.408,0,0,0,.294.46,1.349,1.349,0,0,0,.98.409,1.11,1.11,0,0,0,.51-.109,1.066,1.066,0,0,0,.358-.294v.332h.6v-3.883Zm-.023,2.854a.841.841,0,0,1-.17.279.781.781,0,0,1-.263.186.893.893,0,0,1-.69,0,.767.767,0,0,1-.261-.19.838.838,0,0,1-.165-.281,1.055,1.055,0,0,1,0-.686.842.842,0,0,1,.165-.281.774.774,0,0,1,.261-.19.893.893,0,0,1,.69,0,.8.8,0,0,1,.263.186.85.85,0,0,1,.17.28,1.049,1.049,0,0,1,0,.7Z" transform="translate(-645.433 -265.123)" fill="#161514"/>
        <path id="Path_83" data-name="Path 83" d="M659.624,267.716a.808.808,0,0,1,.274-.182.9.9,0,0,1,.343-.065h0a1.081,1.081,0,0,1,.378.065.917.917,0,0,1,.292.174l.29-.482a1.474,1.474,0,0,0-.367-.214,1.637,1.637,0,0,0-1.185,0,1.434,1.434,0,0,0-.469.306,1.4,1.4,0,0,0-.31.46,1.529,1.529,0,0,0,0,1.152,1.394,1.394,0,0,0,.31.46,1.425,1.425,0,0,0,.469.306,1.637,1.637,0,0,0,1.185,0,1.473,1.473,0,0,0,.367-.214l-.29-.482a.916.916,0,0,1-.292.174,1.081,1.081,0,0,1-.378.065h0a.9.9,0,0,1-.343-.065.808.808,0,0,1-.274-.182.844.844,0,0,1-.182-.279,1.007,1.007,0,0,1,0-.717A.853.853,0,0,1,659.624,267.716Z" transform="translate(-639.623 -265.852)" fill="#161514"/>
      </g>
      <g id="Group_38737" data-name="Group 38737" transform="translate(33.03 25.666)">
        <path id="Path_84" data-name="Path 84" d="M679.71,271.018a.286.286,0,0,1,.113.022.291.291,0,0,1,.092.061.286.286,0,0,1,.062.089.274.274,0,0,1,.022.11.27.27,0,0,1-.022.109.286.286,0,0,1-.154.151.287.287,0,0,1-.113.022.3.3,0,0,1-.207-.083.281.281,0,0,1-.061-.09.27.27,0,0,1-.022-.109.276.276,0,0,1,.084-.2.292.292,0,0,1,.207-.083Zm0,.485a.2.2,0,0,0,.079-.016.2.2,0,0,0,.064-.044.209.209,0,0,0,.043-.224.2.2,0,0,0-.043-.064.214.214,0,0,0-.064-.044.2.2,0,0,0-.079-.016.2.2,0,0,0-.08.016.21.21,0,0,0-.065.044.194.194,0,0,0-.044.064.215.215,0,0,0,0,.159.2.2,0,0,0,.189.124Zm.017-.329a.116.116,0,0,1,.078.023.077.077,0,0,1,.027.061.069.069,0,0,1-.019.05.1.1,0,0,1-.055.026l.077.09h-.084l-.07-.087h-.008v.087h-.07v-.25Zm-.054.061v.046h.053a.048.048,0,0,0,.025-.005.017.017,0,0,0,.009-.017.019.019,0,0,0-.009-.018.044.044,0,0,0-.025-.006Z" transform="translate(-679.419 -271.018)" fill="#161514"/>
      </g>
      <g id="Group_38738" data-name="Group 38738" transform="translate(0 0)">
        <path id="Path_85" data-name="Path 85" d="M636.351,237.926a10.384,10.384,0,0,1,3.951-8.158,10.4,10.4,0,1,0,0,16.317A10.385,10.385,0,0,1,636.351,237.926Z" transform="translate(-623.443 -227.521)" fill="#d5001c"/>
        <ellipse id="Ellipse_1" data-name="Ellipse 1" cx="3.951" cy="8.158" rx="3.951" ry="8.158" transform="translate(12.908 2.247)" fill="#df4918"/>
        <path id="Path_86" data-name="Path 86" d="M679.3,254.422v-.305h-.123v-.083h.337v.083h-.123v.305Zm.653,0v-.27l-.087.232h-.1l-.087-.232v.269h-.091v-.388h.13l.1.248.1-.248h.13v.388Z" transform="translate(-646.291 -238.389)" fill="#f1890f"/>
        <path id="Path_87" data-name="Path 87" d="M658.468,227.521a10.358,10.358,0,0,0-6.454,2.246,10.4,10.4,0,0,1,0,16.317,10.4,10.4,0,1,0,6.454-18.563Z" transform="translate(-635.155 -227.521)" fill="#f1890f"/>
      </g>
    </g>
    <g id="Group_38740" data-name="Group 38740" transform="translate(75.509 6.857)">
      <path id="Path_88" data-name="Path 88" d="M752.743,252.582l3.121-18.316h4.992l-3.123,18.316Z" transform="translate(-731.02 -233.948)" fill="#00488d"/>
      <path id="Path_89" data-name="Path 89" d="M781.479,234.5a12.91,12.91,0,0,0-4.474-.769c-4.933,0-8.408,2.484-8.437,6.044-.028,2.632,2.481,4.1,4.374,4.976,1.943.9,2.6,1.47,2.587,2.272-.012,1.227-1.552,1.789-2.987,1.789a10.466,10.466,0,0,1-4.7-.961l-.643-.292-.7,4.1a15.811,15.811,0,0,0,5.561.977c5.248,0,8.655-2.456,8.694-6.258.019-2.084-1.311-3.669-4.191-4.976-1.745-.847-2.814-1.413-2.8-2.271,0-.761.9-1.575,2.859-1.575a9.205,9.205,0,0,1,3.736.7l.448.211.677-3.97" transform="translate(-736.659 -233.727)" fill="#00488d"/>
      <path id="Path_90" data-name="Path 90" d="M803.934,234.3h-3.858a2.484,2.484,0,0,0-2.614,1.519L790.048,252.6h5.242s.857-2.257,1.052-2.752l6.393.008c.149.641.607,2.744.607,2.744h4.633l-4.041-18.3M797.778,246.1c.413-1.056,1.989-5.12,1.989-5.12-.029.048.41-1.06.662-1.748l.338,1.58s.956,4.372,1.155,5.289Z" transform="translate(-746.312 -233.96)" fill="#00488d"/>
      <path id="Path_91" data-name="Path 91" d="M737.086,234.289l-4.888,12.49-.521-2.538a14.294,14.294,0,0,0-6.914-7.683l4.469,16.019,5.282-.006,7.86-18.28h-5.288" transform="translate(-719.551 -233.957)" fill="#00488d"/>
      <path id="Path_92" data-name="Path 92" d="M724.043,234.27h-8.05l-.064.381c6.263,1.516,10.407,5.18,12.127,9.582l-1.75-8.417a2.09,2.09,0,0,0-2.263-1.546" transform="translate(-715.929 -233.95)" fill="#f6900b"/>
    </g>
    <g id="Group_38745" data-name="Group 38745" transform="translate(283.046 1.841)">
      <g id="Group_38744" data-name="Group 38744">
        <g id="Group_38742" data-name="Group 38742" transform="translate(4.802)">
          <path id="Path_93" data-name="Path 93" d="M397.48,132.985a8.38,8.38,0,0,1-2.009.845c-.231.067-.456.118-.671.158a7.064,7.064,0,0,1-2.062.081l-.014,0a1.919,1.919,0,0,1-.195-.027l-.01.02a.905.905,0,0,0-.1.007h-.007c-.017,0-.033-.031-.047-.034s-.023.019-.033.015-.01.019-.01.019H392.3c-.007-.144-.01-.039-.01-.039l2.515-1.809.671-.485.5-.363A6.323,6.323,0,0,0,397.48,132.985Z" transform="translate(-392.285 -125.316)" fill="#4e5822"/>
          <path id="Path_94" data-name="Path 94" d="M406.719,125.85a11.66,11.66,0,0,1-3.239,2.516c-.215.111-.439.218-.671.319a8.785,8.785,0,0,1-2.515.688,18.576,18.576,0,0,1-4.753-.143c-.235-.033-.456-.045-.671-.085-1.342-.234-2.294-.547-2.482-.547h.013l.033,0a.223.223,0,0,0,.047,0h.007c.03,0,.064,0,.1,0l.007-.005c.057.01.121.016.195.022h.017a7.072,7.072,0,0,0,2.062-.082c.215-.04.439-.091.671-.159a8.4,8.4,0,0,0,2.009-.846c.094-.054.188-.108.282-.168,3.242-2.573,3.745-4.3,3.745-4.3l1.231.667.671.365Z" transform="translate(-392.355 -119.704)" fill="#64a431"/>
          <g id="Group_38741" data-name="Group 38741" transform="translate(2.514)">
            <path id="Path_95" data-name="Path 95" d="M407.091,112.731h-5.524a1.543,1.543,0,0,0-1.543,1.54v5.151l.671-.474v-4.678a.872.872,0,0,1,.872-.869l5.524,0a.872.872,0,0,1,.872.869v2.27l.67.366V114.27A1.544,1.544,0,0,0,407.091,112.731Z" transform="translate(-400.024 -112.731)" fill="#dd1120"/>
            <path id="Path_96" data-name="Path 96" d="M407.969,140.63v3.579l-7.268,0v-3.092c-.235-.034-.457-.07-.671-.11l0,5.862a1.545,1.545,0,0,0,1.544,1.543H407.1a1.547,1.547,0,0,0,1.542-1.544l0-6.556C408.425,140.419,408.2,140.527,407.969,140.63Zm-5.244,5.77h-.9v-.9h.9Zm2.22.08h-1.4v-1.4h1.4Zm1.909-.081h-.9v-.9h.9Z" transform="translate(-400.028 -131.354)" fill="#dd1120"/>
          </g>
        </g>
        <g id="Group_38743" data-name="Group 38743" transform="translate(0 19.622)">
          <path id="Path_97" data-name="Path 97" d="M360.081,176.54l-.549,1.714-.574-1.714h-1.071l1.206,2.877h.837l1.163-2.878Z" transform="translate(-357.887 -175.437)" fill="#dd1120"/>
          <path id="Path_98" data-name="Path 98" d="M370.741,177.159a1.258,1.258,0,0,0-.468-.585,1.393,1.393,0,0,0-.831-.234,1.687,1.687,0,0,0-.676.141,1.19,1.19,0,0,0-.541.5,1.655,1.655,0,0,0-.21.849,1.826,1.826,0,0,0,.1.605,1.363,1.363,0,0,0,.281.479,1.3,1.3,0,0,0,.448.317,1.518,1.518,0,0,0,.6.113,1.542,1.542,0,0,0,.606-.114,1.294,1.294,0,0,0,.45-.317,1.362,1.362,0,0,0,.281-.479,1.826,1.826,0,0,0-.039-1.272Zm-.942,1.225a.4.4,0,0,1-.705,0,1.161,1.161,0,0,1-.114-.558,1.052,1.052,0,0,1,.117-.533.4.4,0,0,1,.7,0,1.043,1.043,0,0,1,.117.533A1.188,1.188,0,0,1,369.8,178.385Z" transform="translate(-364.726 -175.302)" fill="#dd1120"/>
          <path id="Path_99" data-name="Path 99" d="M379.75,173.365v1.053a.865.865,0,0,0-.238-.067,1.8,1.8,0,0,0-.272-.02,1.308,1.308,0,0,0-.59.147,1.136,1.136,0,0,0-.486.514,1.78,1.78,0,0,0-.193.837,2.025,2.025,0,0,0,.085.6,1.494,1.494,0,0,0,.24.476,1.116,1.116,0,0,0,.375.316,1.057,1.057,0,0,0,.494.113.87.87,0,0,0,.427-.087.888.888,0,0,0,.24-.194l.047.222h.848v-3.908Zm0,3.065a.39.39,0,0,1-.138.111.439.439,0,0,1-.2.047.394.394,0,0,1-.35-.208,1.043,1.043,0,0,1-.13-.558,1.663,1.663,0,0,1,.03-.284.606.606,0,0,1,.16-.31.436.436,0,0,1,.336-.144.736.736,0,0,1,.293.07Z" transform="translate(-371.448 -173.294)" fill="#dd1120"/>
          <path id="Path_100" data-name="Path 100" d="M390.026,176.61a1.247,1.247,0,0,0-.848-.275,2.122,2.122,0,0,0-.317.03,2.437,2.437,0,0,0-.424.114,1.764,1.764,0,0,0-.36.167l.281.62a1.639,1.639,0,0,1,.328-.149,1.183,1.183,0,0,1,.356-.056c.238,0,.374.108.374.322v.1c-.288.019-.526.039-.631.059a1.212,1.212,0,0,0-.316.073,1.2,1.2,0,0,0-.314.173.876.876,0,0,0-.235.278.812.812,0,0,0-.093.395.909.909,0,0,0,.068.363.839.839,0,0,0,.183.272.782.782,0,0,0,.278.173,1.012,1.012,0,0,0,.348.058,1.128,1.128,0,0,0,.439-.079,1.007,1.007,0,0,0,.3-.191l.076.222h.818v-1.819A1.065,1.065,0,0,0,390.026,176.61Zm-.609,1.908c-.144.035-.112.064-.172.088a.582.582,0,0,1-.2.034.33.33,0,0,1-.229-.072.244.244,0,0,1-.081-.184.356.356,0,0,1,.069-.225.438.438,0,0,1,.256-.126,2.883,2.883,0,0,1,.356-.041Z" transform="translate(-378.104 -175.299)" fill="#dd1120"/>
          <path id="Path_101" data-name="Path 101" d="M398.292,173.871a1.1,1.1,0,0,1,.231.023.835.835,0,0,1,.194.064l.1-.667a2.366,2.366,0,0,0-.324-.1,2.045,2.045,0,0,0-.47-.05,1.1,1.1,0,0,0-.776.266,1.029,1.029,0,0,0-.3.764v.042h-.313v.719H397v2.172l.978.007v-2.154l.573,0-.013-.719h-.586v-.059C397.952,173.976,398.074,173.871,398.292,173.871Z" transform="translate(-384.048 -173.145)" fill="#dd1120"/>
          <path id="Path_102" data-name="Path 102" d="M405.807,177.151a1.255,1.255,0,0,0-.468-.585,1.391,1.391,0,0,0-.831-.234,1.678,1.678,0,0,0-.676.141,1.185,1.185,0,0,0-.541.5,1.665,1.665,0,0,0-.21.849,1.85,1.85,0,0,0,.1.605,1.37,1.37,0,0,0,.282.479,1.292,1.292,0,0,0,.447.317,1.518,1.518,0,0,0,.6.113,1.535,1.535,0,0,0,.605-.114,1.294,1.294,0,0,0,.451-.317,1.368,1.368,0,0,0,.28-.479,1.818,1.818,0,0,0,.1-.605A1.859,1.859,0,0,0,405.807,177.151Zm-.942,1.225a.4.4,0,0,1-.7,0,1.16,1.16,0,0,1-.114-.558,1.045,1.045,0,0,1,.117-.533.377.377,0,0,1,.345-.2.383.383,0,0,1,.351.2,1.05,1.05,0,0,1,.117.533A1.176,1.176,0,0,1,404.865,178.376Z" transform="translate(-388.403 -175.297)" fill="#dd1120"/>
          <path id="Path_103" data-name="Path 103" d="M415.867,176.6a1.018,1.018,0,0,0-.74-.274,1.113,1.113,0,0,0-.468.094,1.276,1.276,0,0,0-.339.216l-.041-.246h-.86v2.878h.977v-1.995a1.161,1.161,0,0,1,.184-.128.451.451,0,0,1,.231-.059.312.312,0,0,1,.267.122.589.589,0,0,1,.09.352v1.707h.983v-1.819A1.137,1.137,0,0,0,415.867,176.6Z" transform="translate(-395.382 -175.295)" fill="#dd1120"/>
          <path id="Path_104" data-name="Path 104" d="M425.31,178.482a.846.846,0,0,1-.41.09.653.653,0,0,1-.453-.14.551.551,0,0,1-.167-.4h1.761a1.964,1.964,0,0,0-.363-1.281,1.2,1.2,0,0,0-.966-.421,1.639,1.639,0,0,0-.619.129,1.077,1.077,0,0,0-.547.494,1.7,1.7,0,0,0-.219.881,1.828,1.828,0,0,0,.109.661,1.282,1.282,0,0,0,.3.468,1.227,1.227,0,0,0,.453.278,1.744,1.744,0,0,0,.571.09,2.855,2.855,0,0,0,.386-.032,1.611,1.611,0,0,0,.435-.129,1.127,1.127,0,0,0,.336-.22l-.287-.69A1.977,1.977,0,0,1,425.31,178.482Zm-.89-1.366a.38.38,0,0,1,.3-.135.353.353,0,0,1,.284.141.623.623,0,0,1,.126.363h-.843A.616.616,0,0,1,424.42,177.116Z" transform="translate(-402.073 -175.293)" fill="#dd1120"/>
          <path id="Path_105" data-name="Path 105" d="M437.55,178.464a.772.772,0,0,1-.371.082.533.533,0,0,1-.433-.182.876.876,0,0,1-.152-.567.9.9,0,0,1,.128-.533.412.412,0,0,1,.351-.175.369.369,0,0,1,.27.111,1.123,1.123,0,0,1,.2.3l.673-.433a3.215,3.215,0,0,0-.173-.275,1.138,1.138,0,0,0-.372-.324,1.207,1.207,0,0,0-.626-.149,1.814,1.814,0,0,0-.649.135,1.127,1.127,0,0,0-.555.5,1.675,1.675,0,0,0-.217.883,1.488,1.488,0,0,0,.384,1.106,1.423,1.423,0,0,0,1.05.38,1.75,1.75,0,0,0,.667-.114,1.629,1.629,0,0,0,.415-.232l-.31-.725A1.354,1.354,0,0,1,437.55,178.464Z" transform="translate(-429.122 -169.445)" fill="#dd1120"/>
          <path id="Path_106" data-name="Path 106" d="M446.524,176.6a1.248,1.248,0,0,0-.848-.274,2.064,2.064,0,0,0-.316.03,2.451,2.451,0,0,0-.424.114,1.748,1.748,0,0,0-.359.167l.28.62a1.608,1.608,0,0,1,.328-.149.94.94,0,0,1,.317-.056c.238,0,.336.107.336.322v.1c-.288.019-.488.039-.593.059a1.1,1.1,0,0,0-.3.072,1.151,1.151,0,0,0-.3.173.853.853,0,0,0-.231.278.807.807,0,0,0-.09.395.908.908,0,0,0,.068.362.829.829,0,0,0,.185.272.765.765,0,0,0,.277.173,1.019,1.019,0,0,0,.348.058,1.132,1.132,0,0,0,.439-.079,1,1,0,0,0,.3-.191l.076.222h.819v-1.819A1.066,1.066,0,0,0,446.524,176.6Zm-.685,1.908c0,.035-.074.064-.134.088a.483.483,0,0,1-.179.034.307.307,0,0,1-.22-.072.239.239,0,0,1-.077-.185.355.355,0,0,1,.072-.225.334.334,0,0,1,.219-.126c.027,0,.175-.018.319-.041Z" transform="translate(-434.994 -169.443)" fill="#dd1120"/>
          <path id="Path_107" data-name="Path 107" d="M455.833,178.044a.68.68,0,0,0-.292-.33,2.325,2.325,0,0,0-.668-.272,2.507,2.507,0,0,1-.274-.076.54.54,0,0,1-.176-.091.158.158,0,0,1-.058-.125.133.133,0,0,1,.108-.141.914.914,0,0,1,.242-.029,1.186,1.186,0,0,1,.4.088,2.05,2.05,0,0,1,.41.2l.292-.62a2.391,2.391,0,0,0-.459-.231,1.947,1.947,0,0,0-.688-.1,2.007,2.007,0,0,0-.424.047,1.259,1.259,0,0,0-.4.158.948.948,0,0,0-.3.29.692.692,0,0,0-.1.424.918.918,0,0,0,.062.354.648.648,0,0,0,.193.258,1.312,1.312,0,0,0,.334.19,3.645,3.645,0,0,0,.483.152c.3.074.445.162.445.263a.14.14,0,0,1-.1.146.7.7,0,0,1-.234.035,1.538,1.538,0,0,1-.514-.093,1.444,1.444,0,0,1-.24-.108,1.719,1.719,0,0,1-.187-.126l-.3.667a1.15,1.15,0,0,0,.173.108,1.682,1.682,0,0,0,.274.114,2.635,2.635,0,0,0,.363.087,2.505,2.505,0,0,0,.43.035,2.281,2.281,0,0,0,.562-.07,1.027,1.027,0,0,0,.48-.275.807.807,0,0,0,.222-.6A1.057,1.057,0,0,0,455.833,178.044Z" transform="translate(-441.114 -169.442)" fill="#dd1120"/>
          <path id="Path_108" data-name="Path 108" d="M465.019,174.6a.968.968,0,0,0-.77-.292,1.179,1.179,0,0,0-.421.068,1.312,1.312,0,0,0-.3.155v-1.187h-.978v3.907h.978v-2a1.055,1.055,0,0,1,.187-.122.5.5,0,0,1,.239-.059.305.305,0,0,1,.246.114.568.568,0,0,1,.093.361v1.707h.978v-1.825A1.221,1.221,0,0,0,465.019,174.6Z" transform="translate(-447.302 -167.434)" fill="#dd1120"/>
        </g>
      </g>
    </g>
  </g>
</svg>
