<svg xmlns="http://www.w3.org/2000/svg" width="46.305" height="59.84" viewBox="0 0 46.305 59.84">
  <path id="upload-file-svgrepo-com" d="M76.368,48.062c-.009-.152-.02-.3-.034-.454,0-.018,0-.035,0-.053-.017-.164-.038-.327-.062-.49-.007-.044-.013-.088-.02-.131q-.033-.2-.073-.407c-.006-.029-.011-.059-.017-.089-.032-.156-.069-.311-.107-.465-.011-.044-.023-.088-.035-.133q-.049-.183-.1-.363c-.012-.04-.023-.079-.036-.119q-.069-.219-.147-.435c-.017-.046-.034-.092-.052-.138q-.061-.162-.127-.321c-.02-.047-.039-.1-.059-.142q-.087-.2-.181-.4c-.023-.049-.048-.1-.072-.147q-.069-.14-.142-.277c-.029-.054-.057-.109-.087-.163q-.1-.184-.209-.364c-.032-.053-.065-.1-.1-.157q-.074-.117-.15-.233c-.039-.059-.079-.118-.119-.177-.058-.084-.117-.167-.178-.25s-.121-.164-.184-.245c-.049-.063-.1-.127-.148-.189s-.1-.124-.152-.185-.1-.114-.148-.171q-.133-.151-.271-.3c-.045-.048-.091-.1-.137-.144q-.092-.094-.187-.187c-.043-.042-.086-.082-.129-.123q-.172-.163-.351-.318l-.118-.1c-.072-.061-.145-.12-.218-.179l-.121-.095q-.214-.167-.436-.323l-.08-.057c-.081-.056-.163-.11-.245-.164l-.12-.077c-.182-.116-.368-.227-.557-.332h0a11.136,11.136,0,1,0-9.288,20.175c.113.042.228.081.343.119l.145.049c.1.033.207.063.312.094.063.018.126.037.189.054.1.026.2.05.293.074.073.018.147.035.221.051q.138.03.278.057c.083.016.167.031.251.045s.173.029.26.041.19.025.286.036c.079.009.157.019.237.027.113.011.226.018.34.026.064,0,.128.01.193.013.18.009.36.014.542.014s.362-.005.541-.014c.06,0,.119-.008.179-.012.119-.008.237-.016.355-.027.071-.007.142-.016.212-.024.105-.012.21-.025.314-.04l.223-.035q.149-.025.3-.053l.226-.046c.1-.021.192-.043.288-.066.074-.018.148-.036.222-.055.1-.026.193-.054.288-.082.07-.021.141-.04.21-.062.11-.035.219-.073.328-.111.053-.018.107-.035.159-.055q.5-.185.982-.416h0l.019-.009c.138-.067.274-.137.409-.21l.126-.069q.163-.09.322-.185l.1-.061q.2-.123.4-.254l.092-.064q.155-.106.306-.218l.115-.085q.172-.13.34-.267l.036-.029c.121-.1.24-.2.357-.309l.1-.093q.135-.124.265-.253l.089-.088c.11-.111.219-.225.325-.341l.064-.072q.13-.144.254-.293l.09-.109q.129-.159.253-.322l.044-.057q.141-.19.274-.386l.073-.11q.1-.153.2-.31l.069-.111q.123-.2.237-.413l.034-.065q.1-.182.188-.367l.061-.127q.086-.181.165-.365c.012-.027.024-.054.036-.082q.093-.222.177-.448c.014-.039.028-.078.042-.117q.064-.179.122-.36c.014-.043.028-.086.041-.13.048-.155.093-.312.134-.471,0-.014.007-.028.01-.041.037-.146.071-.293.1-.441.01-.046.019-.093.028-.139q.039-.2.07-.395c.006-.035.012-.07.017-.1q.037-.245.063-.494c0-.039.007-.079.011-.119q.019-.2.03-.4c0-.048.006-.1.008-.144.008-.17.013-.34.013-.512s-.005-.341-.013-.51C76.372,48.15,76.37,48.106,76.368,48.062Zm-7.742,7.5H60.977a1.687,1.687,0,1,1,0-3.374h7.649a1.687,1.687,0,1,1,0,3.374Zm1.514-9.151a1.734,1.734,0,0,1-2.424-.005l-.965-.932v3.34a1.687,1.687,0,0,1-3.374,0V45.461l-.915.951a1.665,1.665,0,0,1-2.367,0,1.688,1.688,0,0,1,.011-2.386l3.827-3.815a1.718,1.718,0,0,1,.281-.227h0a1.519,1.519,0,0,1,.385-.13,1.642,1.642,0,0,1,.537-.031h.005a1.629,1.629,0,0,1,.513.025,1.6,1.6,0,0,1,.433.184s0-.014,0-.014a1.656,1.656,0,0,1,.252.2l3.8,3.812A1.686,1.686,0,0,1,70.141,46.414Zm-.7-35.391H58.878V.839ZM50.742,48.7a14.494,14.494,0,0,1,14.472-14.51,13.873,13.873,0,0,1,5.361,1.046V14.4H57.266A1.753,1.753,0,0,1,55.5,12.71V0H31.845a1.753,1.753,0,0,0-1.762,1.687v55.67A1.72,1.72,0,0,0,31.8,59.044l23.344.076A14.449,14.449,0,0,1,50.742,48.7ZM38.931,20.921H61.2a1.687,1.687,0,1,1,0,3.374H38.931a1.687,1.687,0,1,1,0-3.374Zm-1.687,8.661A1.687,1.687,0,0,1,38.931,27.9H61.2a1.687,1.687,0,1,1,0,3.374H38.931A1.687,1.687,0,0,1,37.244,29.582Z" transform="translate(-30.083)" opacity="0.2"/>
</svg>
