<svg xmlns="http://www.w3.org/2000/svg" width="50" height="50" viewBox="0 0 50 50">
  <g id="Group_39986" data-name="Group 39986" transform="translate(-1601 -368)">
    <g id="Ellipse_2132" data-name="Ellipse 2132" transform="translate(1601 368)" fill="#fff" stroke="rgba(219,219,219,0.5)" stroke-width="1">
      <circle cx="25" cy="25" r="25" stroke="none"/>
      <circle cx="25" cy="25" r="24.5" fill="none"/>
    </g>
    <path id="Icon_awesome-user-circle" data-name="Icon awesome-user-circle" d="M25,.563a25,25,0,1,0,25,25A25,25,0,0,0,25,.563Zm0,9.677a8.871,8.871,0,1,1-8.871,8.871A8.871,8.871,0,0,1,25,10.24Zm0,34.677a19.317,19.317,0,0,1-14.768-6.875,11.239,11.239,0,0,1,9.929-6.028,2.467,2.467,0,0,1,.716.111,13.347,13.347,0,0,0,4.123.7,13.3,13.3,0,0,0,4.123-.7,2.467,2.467,0,0,1,.716-.111,11.239,11.239,0,0,1,9.929,6.028A19.317,19.317,0,0,1,25,44.917Z" transform="translate(1601 367.438)" opacity="0.05"/>
  </g>
</svg>
