<svg xmlns="http://www.w3.org/2000/svg" width="18" height="16.2" viewBox="0 0 18 16.2">
  <path id="wallet" d="M17.3,6.6h-.9V5.7A2.7,2.7,0,0,0,13.7,3h-9A2.7,2.7,0,0,0,2,5.7H2V16.5a2.7,2.7,0,0,0,2.7,2.7H17.3A2.7,2.7,0,0,0,20,16.5V9.3A2.7,2.7,0,0,0,17.3,6.6ZM4.7,4.8h9a.9.9,0,0,1,.9.9v.9H4.7a.9.9,0,1,1,0-1.8Zm13.5,9h-.9a.9.9,0,1,1,0-1.8h.9Zm0-3.6h-.9a2.7,2.7,0,1,0,0,5.4h.9v.9a.9.9,0,0,1-.9.9H4.7a.9.9,0,0,1-.9-.9V8.247a2.7,2.7,0,0,0,.9.153H17.3a.9.9,0,0,1,.9.9Z" transform="translate(-2 -3)"/>
</svg>
