<svg id="Group_39936" data-name="Group 39936" xmlns="http://www.w3.org/2000/svg" width="29.316" height="15.856" viewBox="0 0 29.316 15.856">
  <path id="Path_33038" data-name="Path 33038" d="M261.886,129.15a.072.072,0,0,1-.072-.072V125.4a.072.072,0,1,1,.144,0v3.674a.072.072,0,0,1-.072.072" transform="translate(-244.744 -123.376)" fill="#96989c"/>
  <path id="Path_33039" data-name="Path 33039" d="M223.031,133.383H193.715V117.527h29.316Zm-29.173-.144h29.029V117.67H193.858Z" transform="translate(-193.715 -117.527)" fill="#96989c"/>
  <path id="Path_33040" data-name="Path 33040" d="M294.448,129.629a1.21,1.21,0,0,1-.4.861,1.179,1.179,0,0,1-1.268.213,1.122,1.122,0,0,1-.707-.948,1.537,1.537,0,0,1,.064-.735,1.147,1.147,0,0,1,1.261-.808c.642.07,1.05.558,1.05,1.418m-.63-.135a2.959,2.959,0,0,0-.13-.459.466.466,0,0,0-.494-.261.441.441,0,0,0-.408.3,1.1,1.1,0,0,0,.02.868.487.487,0,0,0,.534.277.452.452,0,0,0,.4-.336c.034-.114.047-.233.076-.385" transform="translate(-267.404 -125.527)" fill="#093065" fill-rule="evenodd"/>
  <path id="Path_33041" data-name="Path 33041" d="M284.2,129.044a1.136,1.136,0,0,1-.143-.054,1.236,1.236,0,0,0-.864-.136.743.743,0,0,0-.547.921.7.7,0,0,0,.807.584c.16-.006.206-.062.2-.22-.006-.185-.021-.369-.033-.577a3.261,3.261,0,0,1,.412.032.276.276,0,0,1,.226.3c0,.112,0,.224,0,.336a.578.578,0,0,1-.511.642,1.521,1.521,0,0,1-1.185-.17,1.2,1.2,0,0,1-.571-1.259,1.238,1.238,0,0,1,.868-1.067,1.584,1.584,0,0,1,.844-.08.577.577,0,0,1,.5.749" transform="translate(-259.853 -125.577)" fill="#093065" fill-rule="evenodd"/>
  <path id="Path_33042" data-name="Path 33042" d="M270.837,128.6a.468.468,0,0,1-.508.623.821.821,0,0,1-.939-.678.682.682,0,0,1-.013-.136c0-.556,0-1.112,0-1.668a.609.609,0,0,1,.344-.538.937.937,0,0,1,.276-.056v.566h.846a2.271,2.271,0,0,1,0,.3.33.33,0,0,1-.344.265c-.157,0-.315,0-.473.007,0,0-.006.006-.023.021,0,.131,0,.275,0,.419,0,.191,0,.382,0,.573a.314.314,0,0,0,.358.348c.155,0,.309-.031.475-.049" transform="translate(-250.41 -123.983)" fill="#093065" fill-rule="evenodd"/>
  <path id="Path_33043" data-name="Path 33043" d="M284.608,140.1a1.926,1.926,0,0,0,1.633.864,1.983,1.983,0,0,0,1.659-.878,1.151,1.151,0,0,1-.189.9,1.775,1.775,0,0,1-1.09.643,1.882,1.882,0,0,1-1.785-.583.9.9,0,0,1-.255-.667c0-.087,0-.173,0-.26l.029-.018" transform="translate(-261.803 -134.433)" fill="#093065" fill-rule="evenodd"/>
  <path id="Path_33044" data-name="Path 33044" d="M278.044,130.572a2.646,2.646,0,0,1-.03.311.241.241,0,0,1-.206.192.684.684,0,0,1-.882-.689c-.007-.547,0-1.095,0-1.642,0-.024,0-.049.005-.094a1.982,1.982,0,0,1,.331.021.384.384,0,0,1,.291.424c.005.373,0,.746,0,1.12,0,.275.075.35.353.357h.137" transform="translate(-256.066 -125.862)" fill="#093065" fill-rule="evenodd"/>
  <path id="Path_33045" data-name="Path 33045" d="M294.747,124.251a1.345,1.345,0,0,0-1.1-.536,1.36,1.36,0,0,0-1.1.53.739.739,0,0,1,.162-.669,1.392,1.392,0,0,1,1.829-.035.744.744,0,0,1,.206.71" transform="translate(-267.765 -121.789)" fill="#093065" fill-rule="evenodd"/>
  <path id="Path_33046" data-name="Path 33046" d="M277.434,125.258a.38.38,0,0,1-.375.372.37.37,0,0,1-.362-.369.366.366,0,0,1,.371-.37.375.375,0,0,1,.366.367" transform="translate(-255.896 -123.045)" fill="#093065" fill-rule="evenodd"/>
  <path id="Path_33047" data-name="Path 33047" d="M224.49,123.9a.409.409,0,0,0-.411.405.4.4,0,0,0,.81,0,.4.4,0,0,0-.4-.408" transform="translate(-216.468 -122.304)" fill="#e1051d"/>
  <path id="Path_33048" data-name="Path 33048" d="M224.42,130.483h.637v-2.536l-.637.1Z" transform="translate(-216.724 -125.335)" fill="#e1051d"/>
  <path id="Path_33049" data-name="Path 33049" d="M215.574,127.767a1.888,1.888,0,0,0-.859.226l-.072.037.171.382.1-.046a1.393,1.393,0,0,1,.6-.141c.231.009.326.115.326.336v.13h-.378c-.606,0-.984.322-.994.82a.907.907,0,0,0,.946.883,1.487,1.487,0,0,0,1.073-.4v-1.354a.825.825,0,0,0-.91-.876m.263,2.1a.627.627,0,0,1-.331.082.369.369,0,0,1-.367-.425.4.4,0,0,1,.442-.4h.255Z" transform="translate(-209.264 -125.2)" fill="#e1051d"/>
  <path id="Path_33050" data-name="Path 33050" d="M242.118,130.005a.48.48,0,0,1-.37-.14.95.95,0,0,1-.151-.649h1.373v-.063c-.012-.9-.318-1.308-.989-1.308-.748,0-1.04.689-1.046,1.336a1.368,1.368,0,0,0,.432,1.056,1.06,1.06,0,0,0,.686.222,1.534,1.534,0,0,0,.452-.067,1.818,1.818,0,0,0,.479-.233l-.18-.369a1.232,1.232,0,0,1-.686.216m-.138-1.686c.283,0,.325.307.325.5h-.69c.011-.246.113-.5.365-.5" transform="translate(-229.098 -125.259)" fill="#e1051d"/>
  <path id="Path_33051" data-name="Path 33051" d="M228.992,128.286v2.084h.649v-1.961a.724.724,0,0,1,.435-.162.817.817,0,0,1,.261.027l.18-.4a1.1,1.1,0,0,0-.429-.077,1.479,1.479,0,0,0-1.1.493" transform="translate(-220.149 -125.22)" fill="#e1051d"/>
  <path id="Path_33052" data-name="Path 33052" d="M251.573,127.983c-.265-.02-.32-.137-.32-.33v-2.509l-.639.109v2.359a.714.714,0,0,0,.812.8,1.576,1.576,0,0,0,.244-.026v-.4s-.06,0-.1,0" transform="translate(-236.351 -123.234)" fill="#e1051d"/>
  <path id="Path_33053" data-name="Path 33053" d="M236.414,125.158l-.653.1v2.37c0,.531.31.782.83.782a1.4,1.4,0,0,0,.243-.024V128l-.092,0c-.274-.01-.328-.161-.328-.335v-1.334h.42v-.468h-.42Z" transform="translate(-225.222 -123.245)" fill="#e1051d"/>
  <path id="Path_33054" data-name="Path 33054" d="M199.853,128.623a2.528,2.528,0,0,0,.508-.268l.041-.026a3.787,3.787,0,0,0,.479-.361,2.191,2.191,0,0,0,.7-.994,1.251,1.251,0,0,0,.034-.726.937.937,0,0,0-.365-.495,1.054,1.054,0,0,0-.663-.2,2.329,2.329,0,0,0-1.251.441l-.014.009,0,0-.04.025a.345.345,0,0,1-.035.023,2.587,2.587,0,0,0-.259.2,1.142,1.142,0,0,0-.39.746.348.348,0,0,0,.136.266.448.448,0,0,0,.283.09,1.361,1.361,0,0,0,.65-.23l.033-.022.089-.06.03-.02a3.483,3.483,0,0,1,.779-.43.607.607,0,0,1,.2-.037.378.378,0,0,1,.085.009.265.265,0,0,1,.188.146.671.671,0,0,1-.04.539,2.349,2.349,0,0,1-.623.773,2.472,2.472,0,0,1-.408.291l-.011.006a1.49,1.49,0,0,1-.189.092l-.009,0-.053.02c-.285.076-.112-.175-.112-.175a2.159,2.159,0,0,1,.195-.2c.039-.036.078-.074.119-.114l.009-.009a.294.294,0,0,0,.114-.215.253.253,0,0,0-.261-.215h-.009a.525.525,0,0,0-.306.129.993.993,0,0,0-.2.231.665.665,0,0,0-.08.673.339.339,0,0,0,.309.148,1.054,1.054,0,0,0,.35-.072" transform="translate(-197.37 -123.545)" fill="#e1051d"/>
  <rect id="Rectangle_22469" data-name="Rectangle 22469" width="14.515" height="7.312" transform="translate(0.143 8.439)" fill="#093065"/>
  <rect id="Rectangle_22470" data-name="Rectangle 22470" width="14.515" height="7.312" transform="translate(14.658 8.439)" fill="#e1051d"/>
  <path id="Path_33055" data-name="Path 33055" d="M221.371,158.4a1.24,1.24,0,0,0-1.069.678h-.013c-.032-.422-.237-.678-.679-.678a1.224,1.224,0,0,0-1.056.71h-.013a5.754,5.754,0,0,0,.122-.627h-.915l-.57,3.136h.941l.038-.23c.314-1.779.691-2.157.96-2.157.154,0,.218.089.218.256a1.076,1.076,0,0,1-.019.186c0,.006-.006.013-.006.019l-.358,1.926h.947l.038-.23c.314-1.773.685-2.157.967-2.157.147,0,.211.083.211.25a1.55,1.55,0,0,1-.026.211l-.352,1.926h.934l.352-1.939a2.461,2.461,0,0,0,.045-.454c0-.576-.269-.826-.7-.826" transform="translate(-211.297 -148.154)" fill="#fff"/>
  <path id="Path_33056" data-name="Path 33056" d="M239.172,158.4a1.877,1.877,0,0,0-1.824,1.99,1.231,1.231,0,0,0,1.3,1.305,1.814,1.814,0,0,0,1.8-1.977,1.223,1.223,0,0,0-1.28-1.318m-.435,2.573c-.288,0-.416-.243-.416-.608,0-.525.288-1.242.768-1.242.281,0,.41.218.41.589,0,.525-.25,1.261-.762,1.261" transform="translate(-226.411 -148.154)" fill="#fff"/>
  <path id="Path_33057" data-name="Path 33057" d="M252.349,158.4a1.266,1.266,0,0,0-1.088.717h-.013a5.807,5.807,0,0,0,.122-.634h-.915l-.57,3.136h1.187a2.042,2.042,0,0,1-.624-1.206l.944-.866a2.348,2.348,0,0,0,.041.529,2.38,2.38,0,0,0,.635,1.2,2.415,2.415,0,0,0,.414.341h.16l.365-1.99a2.444,2.444,0,0,0,.039-.41c0-.537-.25-.819-.7-.819m-.707,1.51c.08-.073.171-.151.28-.237a3.072,3.072,0,0,0,.1,1.3,2.272,2.272,0,0,1-.38-1.062" transform="translate(-235.805 -148.154)" fill="#fff"/>
  <path id="Path_33058" data-name="Path 33058" d="M265.376,160.626a1.3,1.3,0,0,1-.794.314c-.314,0-.416-.179-.448-.467,1.043-.1,1.869-.467,1.869-1.229,0-.525-.365-.845-1-.845a1.883,1.883,0,0,0-1.843,2,1.174,1.174,0,0,0,1.261,1.3,1.99,1.99,0,0,0,1.293-.441Zm-.531-1.5c.173,0,.256.083.256.237,0,.281-.352.473-.928.525.09-.39.314-.762.672-.762" transform="translate(-245.754 -148.154)" fill="#fff"/>
  <path id="Path_33059" data-name="Path 33059" d="M274.746,158.731l-.736,1.632c-.083.2-.154.429-.166.467h-.013c-.007-.038-.013-.269-.039-.467l-.224-1.632h-1l.614,3.091c-.262.506-.435.7-.858.7a.727.727,0,0,1-.346-.07l-.313.755a1.323,1.323,0,0,0,.627.115c.844,0,1.273-.442,1.792-1.44l1.664-3.149Z" transform="translate(-252.123 -148.403)" fill="#fff"/>
</svg>
