<svg width="16" height="16" viewBox="0 0 16 16" fill="none" xmlns="http://www.w3.org/2000/svg">
<g clip-path="url(#clip0_10538_2316)">
<path d="M8.00065 4.66732H8.66732C9.58779 4.66732 10.334 5.41351 10.334 6.33398M8.00065 4.66732C6.71199 4.66732 5.66732 5.71199 5.66732 7.00065V8.33398C5.66732 9.62265 6.71199 10.6673 8.00065 10.6673H8.66732C9.58779 10.6673 10.334 9.92113 10.334 9.00065M8.00065 4.66732V3.66732M8.00065 11.334V12.334M14.6673 8.00065C14.6673 11.6826 11.6826 14.6673 8.00065 14.6673C4.31875 14.6673 1.33398 11.6826 1.33398 8.00065C1.33398 4.31875 4.31875 1.33398 8.00065 1.33398C11.6826 1.33398 14.6673 4.31875 14.6673 8.00065Z" stroke="white" stroke-width="1.4" stroke-linecap="round" stroke-linejoin="round"/>
</g>
<defs>
<clipPath id="clip0_10538_2316">
<rect width="16" height="16" fill="white"/>
</clipPath>
</defs>
</svg>
