<svg width="16" height="15" viewBox="0 0 16 15" fill="none" xmlns="http://www.w3.org/2000/svg">
<path d="M8.00065 4.16659H8.66732C9.58779 4.16659 10.334 4.91278 10.334 5.83325M8.00065 4.16659C6.71199 4.16659 5.66732 5.21125 5.66732 6.49992V7.83325C5.66732 9.12192 6.71199 10.1666 8.00065 10.1666H8.66732C9.58779 10.1666 10.334 9.42039 10.334 8.49992M8.00065 4.16659V3.16659M8.00065 10.8333V11.8333M14.6673 7.49992C14.6673 11.1818 11.6826 14.1666 8.00065 14.1666C4.31875 14.1666 1.33398 11.1818 1.33398 7.49992C1.33398 3.81802 4.31875 0.833252 8.00065 0.833252C11.6826 0.833252 14.6673 3.81802 14.6673 7.49992Z" stroke="#01C7B1" stroke-width="1.4" stroke-linecap="round" stroke-linejoin="round"/>
</svg>
