<svg id="Group_39940" data-name="Group 39940" xmlns="http://www.w3.org/2000/svg" width="24.014" height="16.494" viewBox="0 0 24.014 16.494">
  <path id="Path_33060" data-name="Path 33060" d="M63.683,132.063a.579.579,0,0,0,.3-.41l2.087-11.52a.934.934,0,0,0-.256-.827L65,118.483a.933.933,0,0,0-.662-.275h-2.58a4.961,4.961,0,0,0-2.021-1.952l-.9,1.053-1.54-.616-1.36,2.286-10.12.162a.459.459,0,0,0-.319.136L42.206,122.6a.46.46,0,0,0-.133.323v8.917a.46.46,0,0,0,.459.459H60.725l1.33.423a.58.58,0,0,0,.444-.039Z" transform="translate(-42.073 -116.255)" fill="#fff"/>
  <g id="Group_39939" data-name="Group 39939" transform="translate(0.388 0.49)">
    <g id="Group_39937" data-name="Group 39937">
      <path id="Path_33061" data-name="Path 33061" d="M43.953,131.916l2.93-2.932a.422.422,0,0,1,.3-.124H56.9c.065.075.011.13-.018.179-.2.342-.411.681-.616,1.021-.117.194-.23.389-.349.582a.364.364,0,0,0,.034.466,2.9,2.9,0,0,0,.392.1,8.886,8.886,0,0,1,1.179.259c.5.132,1,.292,1.49.455a2.527,2.527,0,0,1,.618.249c-.019.1-.037.185-.053.274-.061.327-.126.653-.182.981s-.095.644-.151.965c-.051.289-.121.575-.174.864-.057.313-.1.627-.154.94-.037.214-.08.426-.118.639-.041.229-.079.458-.118.687q-.054.309-.109.618c-.042.236-.086.472-.127.708a4.206,4.206,0,0,1-.109.641.855.855,0,0,0,.04.547,1.2,1.2,0,0,0,.865.807c.3.093.609.181.914.271l.34.1c0,.028.007.036,0,.041a.028.028,0,0,1-.019.013l-16.72,0a.258.258,0,0,1-.069-.009.13.13,0,0,1-.039-.026c-.006,0-.011-.011-.028-.026v-8.49a1.14,1.14,0,0,1,.334-.806" transform="translate(-43.619 -126.191)" fill="#ffc000"/>
      <path id="Path_33062" data-name="Path 33062" d="M107.967,138.822a.349.349,0,0,0,.16-.281c.115-.563,1.811-9.489,1.937-10.152q.165-.869.329-1.738c.019-.1.026-.2.045-.354,0,.039.005.023,0,.008-.093-.28-.1-.318-.453-.316-.669,0-1.337,0-1.988,0-.138-.166-.168-.233-.271-.365.1-.007.165-.016.225-.016H110.1a.876.876,0,0,1,.633.26c.18.176.356.356.535.533a.95.95,0,0,1,.261.865c-.067.445-.15.887-.23,1.33-.073.4-1.466,8.481-1.508,8.718-.059.328-.124.655-.178.985a.746.746,0,0,1-.37.541,6.388,6.388,0,0,1-.962.424.8.8,0,0,1-.549-.018c-.468-.143-.934-.3-1.4-.437-.61-.185-1.223-.36-1.833-.546a5.316,5.316,0,0,1-.681-.241.851.851,0,0,1-.493-.77,1.831,1.831,0,0,1,.061-.437c.085-.457.812-4.426.865-4.716.072-.4.132-.8.2-1.194.062-.343.132-.727.2-1.079.048,0,.095.043.152.043a1.767,1.767,0,0,1,.056.871c-.046.322-.113.642-.171.962-.05.275-.884,4.856-.943,5.176a2.112,2.112,0,0,0-.046.323.508.508,0,0,0,.389.544c.2.065.4.125.6.185.3.089.6.175.893.266.669.206,1.337.416,2.005.622a.61.61,0,0,0,.378,0" transform="translate(-88.356 -123.755)" fill="#191717"/>
      <path id="Path_33063" data-name="Path 33063" d="M109.873,145.616a8.737,8.737,0,0,0,.149-2.5,13.692,13.692,0,0,1,1.769,1.042,5.453,5.453,0,0,1,.756.666,3.239,3.239,0,0,1,.826,1.634c-.187-.084-1.5-.35-2.115-.5-.375-.094-1.336-.306-1.385-.337" transform="translate(-93.265 -136.872)" fill="#d4101e"/>
      <path id="Path_33064" data-name="Path 33064" d="M122.194,128.441c.535,0,1.039,0,1.542,0a.371.371,0,0,1,.38.473c-.122.616-.247,1.232-.366,1.849q-.191.982-.375,1.966c-.085.458-.162.918-.245,1.376a8.213,8.213,0,0,1-.208.908c0-.151.014-.376.015-.5,0-.477-.075-2.455-.107-2.876a10.834,10.834,0,0,0-.635-3.2" transform="translate(-102.498 -125.876)" fill="#191717"/>
      <path id="Path_33065" data-name="Path 33065" d="M95,123.224a2.212,2.212,0,0,0,1.109,1.921c-.035-.01-.068-.02-.1-.027a.007.007,0,0,1,0,0c-.076-.021-.146-.039-.22-.06l-.01,0c-.325-.086-.63-.167-.932-.241-.368-.091-.737-.175-1.125-.267a.358.358,0,0,1,.02-.115c.14-.253.284-.5.428-.753.2-.35.413-.7.617-1.051.218-.37.432-.741.65-1.111.206-.348.416-.7.636-1.065a5.111,5.111,0,0,1,1.87.672,2.182,2.182,0,0,0-.726-.123A2.219,2.219,0,0,0,95,123.224Z" transform="translate(-81.164 -119.894)" fill="#005788"/>
      <path id="Path_33066" data-name="Path 33066" d="M101.563,123.361A2.039,2.039,0,1,0,103.6,125.4,2.041,2.041,0,0,0,101.563,123.361Zm0,3.908a1.868,1.868,0,1,1,1.868-1.868A1.868,1.868,0,0,1,101.563,127.269Z" transform="translate(-85.509 -122.07)" fill="#005788"/>
      <path id="Path_33067" data-name="Path 33067" d="M111.064,133.255a4.215,4.215,0,0,0-.545-.88,9.882,9.882,0,0,0-3.879-2.428,2.216,2.216,0,0,0,2.082-3.458,7.139,7.139,0,0,1,.7.786,7.529,7.529,0,0,1,.628,1.068,8.926,8.926,0,0,1,.619,1.8,15.06,15.06,0,0,1,.38,2.647C111.054,132.946,111.06,133.1,111.064,133.255Z" transform="translate(-90.844 -124.414)" fill="#005788"/>
      <path id="Path_33068" data-name="Path 33068" d="M109.708,119.06l.78-.849a5.2,5.2,0,0,1,.97.8,6.03,6.03,0,0,1,.743,1.018,7.13,7.13,0,0,1,.709,1.916,7.887,7.887,0,0,1,.195,1.448,6.865,6.865,0,0,0-1.182-2.43,5.624,5.624,0,0,0-1.081-1.166,5.362,5.362,0,0,0-1.037-.675c-.027-.014-.051-.033-.1-.063" transform="translate(-93.142 -118.211)" fill="#005788"/>
      <path id="Path_33069" data-name="Path 33069" d="M116.147,169.653l.12.236c-.1.228-.018.528-.261.724a.608.608,0,0,1-.225-.034,1.884,1.884,0,0,0-.625-.222c-.27-.031-.459-.058-.586-.257a2.218,2.218,0,0,1,.1-.7l.189-.118,1.285.373" transform="translate(-96.781 -156.479)" fill="#191717"/>
      <path id="Path_33070" data-name="Path 33070" d="M115.536,164.885c.087-.2.038-.451.183-.652a.607.607,0,0,1,.348.006c.276.078.555.142.833.213a.468.468,0,0,1,.333.229,2.289,2.289,0,0,1-.1.693.335.335,0,0,1-.382.075c-.294-.1-.6-.167-.9-.249a.375.375,0,0,1-.318-.316" transform="translate(-97.509 -152.68)" fill="#191717"/>
      <path id="Path_33071" data-name="Path 33071" d="M116.914,158.9l1.282.312.126.135a1.518,1.518,0,0,1-.089.64c-.052.187-.146.223-.341.171-.352-.094-.706-.184-1.087-.283l-.188-.17.125-.667.172-.139" transform="translate(-98.319 -148.701)" fill="#191717"/>
      <path id="Path_33072" data-name="Path 33072" d="M107.382,161.868a.308.308,0,0,1,.3-.047c.334.1.673.179,1.01.267l.147.156a2.3,2.3,0,0,1-.1.646c-.006.045-.065.083-.1.122a.6.6,0,0,1-.306-.022c-.266-.083-.538-.149-.808-.22a.436.436,0,0,1-.292-.216,1.581,1.581,0,0,1,.148-.686" transform="translate(-91.287 -150.876)" fill="#191717"/>
      <path id="Path_33073" data-name="Path 33073" d="M106.251,166.968l.16-.151c.4.061.783.226,1.185.307l.144.151a1.781,1.781,0,0,1-.114.744l-.2.072a12.518,12.518,0,0,1-1.209-.39l-.069-.195.1-.538" transform="translate(-90.474 -154.633)" fill="#191717"/>
      <path id="Path_33074" data-name="Path 33074" d="M108.448,157.629c-.18-.306-.014-.579.06-.849l.176-.063c.306.075.614.151.922.225a.489.489,0,0,1,.366.237,2.028,2.028,0,0,1-.123.625.232.232,0,0,1-.294.129c-.366-.1-.731-.2-1.107-.3" transform="translate(-92.137 -147.065)" fill="#191717"/>
      <path id="Path_33075" data-name="Path 33075" d="M55.943,154.47c-.013-.269-.028-.594-.025-.875h-.009c-.068.253-.155.535-.247.8l-.3.9h-.294l-.278-.89c-.08-.266-.154-.55-.21-.81H54.57c-.01.272-.022.6-.037.887l-.046.838h-.356l.139-2.084h.5l.272.838c.074.244.139.492.192.723h.009c.055-.226.127-.482.207-.727l.288-.835h.495l.121,2.084h-.371Z" transform="translate(-51.496 -144.456)" fill="#191717"/>
      <path id="Path_33076" data-name="Path 33076" d="M65.685,156.181a.746.746,0,0,1-.773.8.728.728,0,0,1-.755-.776.743.743,0,0,1,.779-.8.722.722,0,0,1,.748.773m-1.135.016c0,.291.142.51.374.51.217,0,.368-.213.368-.516,0-.235-.105-.5-.365-.5s-.377.26-.377.51" transform="translate(-59.01 -146.084)" fill="#191717"/>
      <path id="Path_33077" data-name="Path 33077" d="M71.446,154.988c.006-.1.013-.269.013-.423v-1.772h.38v.9h.006a.544.544,0,0,1,.482-.241c.368,0,.631.306.628.764a.721.721,0,0,1-.683.81.518.518,0,0,1-.476-.26h-.006l-.018.226Zm.393-.621a.416.416,0,0,0,.009.09.351.351,0,0,0,.337.266c.238,0,.384-.192.384-.495,0-.266-.127-.482-.38-.482a.356.356,0,0,0-.337.278.466.466,0,0,0-.012.1Z" transform="translate(-64.471 -144.124)" fill="#191717"/>
      <path id="Path_33078" data-name="Path 33078" d="M79.05,153.247a.214.214,0,1,1-.213-.207.2.2,0,0,1,.213.207m-.405.421h.384v1.506h-.384Z" transform="translate(-69.849 -144.31)" fill="#191717"/>
      <rect id="Rectangle_22471" data-name="Rectangle 22471" width="0.383" height="2.195" transform="translate(9.588 8.668)" fill="#191717"/>
      <path id="Path_33079" data-name="Path 33079" d="M85.019,156.3a.409.409,0,0,0,.464.39,1.133,1.133,0,0,0,.418-.068l.055.263a1.416,1.416,0,0,1-.526.093.712.712,0,0,1-.776-.761.746.746,0,0,1,.736-.81.654.654,0,0,1,.649.733.952.952,0,0,1-.012.161Zm.662-.266a.324.324,0,0,0-.312-.368.372.372,0,0,0-.349.368Z" transform="translate(-74.368 -146.084)" fill="#191717"/>
      <path id="Path_33080" data-name="Path 33080" d="M55.943,165.5c-.013-.269-.028-.594-.025-.875h-.009c-.068.253-.155.535-.247.8l-.3.9h-.294l-.278-.891c-.08-.266-.154-.55-.21-.81H54.57c-.01.272-.022.6-.037.887l-.046.838h-.356l.139-2.084h.5l.272.838c.074.244.139.492.192.723h.009c.055-.226.127-.482.207-.727l.288-.835h.495l.121,2.084h-.371Z" transform="translate(-51.496 -152.719)" fill="#191717"/>
      <path id="Path_33081" data-name="Path 33081" d="M65.685,167.207a.746.746,0,0,1-.773.8.728.728,0,0,1-.755-.776.743.743,0,0,1,.779-.8.722.722,0,0,1,.748.773m-1.135.016c0,.291.142.51.374.51.217,0,.368-.213.368-.516,0-.235-.105-.5-.365-.5s-.377.26-.377.51" transform="translate(-59.01 -154.346)" fill="#191717"/>
      <path id="Path_33082" data-name="Path 33082" d="M71.459,166.916c0-.173,0-.319-.013-.448h.334l.019.226h.01a.542.542,0,0,1,.479-.26c.263,0,.535.17.535.646v.894h-.38v-.85c0-.217-.08-.38-.288-.38a.319.319,0,0,0-.3.223.388.388,0,0,0-.016.124v.884h-.383Z" transform="translate(-64.471 -154.346)" fill="#191717"/>
      <path id="Path_33083" data-name="Path 33083" d="M78.532,167.327a.409.409,0,0,0,.464.39,1.131,1.131,0,0,0,.418-.068l.055.263a1.416,1.416,0,0,1-.526.093.712.712,0,0,1-.776-.761.746.746,0,0,1,.736-.81.655.655,0,0,1,.649.733.92.92,0,0,1-.013.161Zm.662-.266a.324.324,0,0,0-.312-.368.372.372,0,0,0-.349.368Z" transform="translate(-69.507 -154.346)" fill="#191717"/>
      <path id="Path_33084" data-name="Path 33084" d="M84.578,166.569l.272.807c.031.093.062.207.083.294h.009c.025-.087.053-.2.08-.3l.235-.8h.408l-.377,1.027a2.257,2.257,0,0,1-.525.968.767.767,0,0,1-.4.2l-.086-.322a.653.653,0,0,0,.223-.105.667.667,0,0,0,.207-.238.156.156,0,0,0,.025-.068.161.161,0,0,0-.022-.074l-.55-1.382Z" transform="translate(-73.999 -154.447)" fill="#191717"/>
      <path id="Path_33085" data-name="Path 33085" d="M57.241,139.044c-.019-.41-.042-.9-.038-1.334h-.014c-.1.387-.235.815-.377,1.216l-.462,1.376H55.9l-.424-1.357c-.122-.406-.235-.839-.32-1.235h-.01c-.014.415-.033.919-.056,1.352l-.071,1.277H54.48l.212-3.176h.763l.415,1.277c.113.372.212.749.292,1.1h.014c.085-.344.193-.735.316-1.107l.438-1.272h.754l.184,3.176H57.3Z" transform="translate(-51.758 -132.413)" fill="#191717"/>
      <path id="Path_33086" data-name="Path 33086" d="M69.841,137.65h-.9v-.485h2.4v.485H70.42v2.691h-.58Z" transform="translate(-62.59 -132.414)" fill="#191717"/>
      <path id="Path_33087" data-name="Path 33087" d="M79.989,140.341v-3.176h.66l.82,1.362a8.73,8.73,0,0,1,.542,1.065h.01c-.038-.424-.052-.834-.052-1.319v-1.107h.537v3.176h-.6l-.829-1.395a11.046,11.046,0,0,1-.57-1.1l-.014,0c.024.41.028.829.028,1.352v1.136Z" transform="translate(-70.872 -132.414)" fill="#191717"/>
    </g>
    <g id="Group_39938" data-name="Group 39938" transform="translate(14.974 1.843)">
      <path id="Path_33088" data-name="Path 33088" d="M104.518,132.529a1.186,1.186,0,0,1-.185.307.59.59,0,0,1-.389.233.513.513,0,0,1-.389-.138.546.546,0,0,1-.025-.819.732.732,0,0,1,.231-.189l.113.163a.584.584,0,0,0-.2.157.345.345,0,0,0,.511.463.327.327,0,0,0,.065-.1l-.168-.145-.107.124-.142-.122.257-.3Z" transform="translate(-103.357 -130.329)" fill="#005788"/>
      <path id="Path_33089" data-name="Path 33089" d="M105.575,128.987l.308.265.257-.3-.308-.265.156-.181.8.691-.156.181-.336-.289-.257.3.336.289-.157.182-.8-.691Z" transform="translate(-104.901 -127.77)" fill="#005788"/>
      <path id="Path_33090" data-name="Path 33090" d="M110.045,126.226a.68.68,0,0,1-.143.236.5.5,0,0,1-.763.075.54.54,0,0,1-.049-.8.625.625,0,0,1,.206-.167l.112.161a.521.521,0,0,0-.161.127.348.348,0,0,0,.528.453.586.586,0,0,0,.1-.174Z" transform="translate(-107.536 -125.565)" fill="#005788"/>
    </g>
  </g>
</svg>
