<svg width="16" height="16" viewBox="0 0 16 16" fill="none" xmlns="http://www.w3.org/2000/svg">
<path d="M6.06065 5.99992C6.21739 5.55436 6.52675 5.17866 6.93395 4.93934C7.34116 4.70002 7.81991 4.61254 8.28544 4.69239C8.75096 4.77224 9.1732 5.01427 9.47737 5.3756C9.78154 5.73694 9.94802 6.19427 9.94732 6.66659C9.94732 7.99992 7.94732 8.66659 7.94732 8.66659M8.00065 11.3333H8.00732M14.6673 7.99992C14.6673 11.6818 11.6826 14.6666 8.00065 14.6666C4.31875 14.6666 1.33398 11.6818 1.33398 7.99992C1.33398 4.31802 4.31875 1.33325 8.00065 1.33325C11.6826 1.33325 14.6673 4.31802 14.6673 7.99992Z" stroke="#9CABB8" stroke-width="1.33333" stroke-linecap="round" stroke-linejoin="round"/>
</svg>
