<svg width="24" height="25" viewBox="0 0 24 25" fill="none" xmlns="http://www.w3.org/2000/svg">
<path d="M18 23C17.1667 23 16.4583 22.7083 15.875 22.125C15.2917 21.5417 15 20.8333 15 20C15 19.8833 15.0083 19.7623 15.025 19.637C15.0417 19.5117 15.0667 19.3993 15.1 19.3L8.05 15.2C7.76667 15.45 7.45 15.646 7.1 15.788C6.75 15.93 6.38333 16.0007 6 16C5.16667 16 4.45833 15.7083 3.875 15.125C3.29167 14.5417 3 13.8333 3 13C3 12.1667 3.29167 11.4583 3.875 10.875C4.45833 10.2917 5.16667 10 6 10C6.38333 10 6.75 10.071 7.1 10.213C7.45 10.355 7.76667 10.5507 8.05 10.8L15.1 6.7C15.0667 6.6 15.0417 6.48767 15.025 6.363C15.0083 6.23833 15 6.11733 15 6C15 5.16667 15.2917 4.45833 15.875 3.875C16.4583 3.29167 17.1667 3 18 3C18.8333 3 19.5417 3.29167 20.125 3.875C20.7083 4.45833 21 5.16667 21 6C21 6.83333 20.7083 7.54167 20.125 8.125C19.5417 8.70833 18.8333 9 18 9C17.6167 9 17.25 8.92933 16.9 8.788C16.55 8.64667 16.2333 8.45067 15.95 8.2L8.9 12.3C8.93333 12.4 8.95833 12.5127 8.975 12.638C8.99167 12.7633 9 12.884 9 13C9 13.1167 8.99167 13.2377 8.975 13.363C8.95833 13.4883 8.93333 13.6007 8.9 13.7L15.95 17.8C16.2333 17.55 16.55 17.3543 16.9 17.213C17.25 17.0717 17.6167 17.0007 18 17C18.8333 17 19.5417 17.2917 20.125 17.875C20.7083 18.4583 21 19.1667 21 20C21 20.8333 20.7083 21.5417 20.125 22.125C19.5417 22.7083 18.8333 23 18 23Z" fill="#007AFF"/>
</svg>
