<svg xmlns="http://www.w3.org/2000/svg" width="23.035" height="23.035" viewBox="0 0 23.035 23.035">
  <path id="Icon_awesome-smile" data-name="Icon awesome-smile" d="M11.518.563A11.518,11.518,0,1,0,23.035,12.08,11.516,11.516,0,0,0,11.518.563Zm3.715,7.8a1.486,1.486,0,1,1-1.486,1.486A1.485,1.485,0,0,1,15.233,8.365Zm-7.431,0A1.486,1.486,0,1,1,6.316,9.851,1.485,1.485,0,0,1,7.8,8.365Zm9.047,7.9a6.938,6.938,0,0,1-10.663,0,.744.744,0,0,1,1.142-.952,5.457,5.457,0,0,0,8.378,0A.744.744,0,0,1,16.849,16.269Z" transform="translate(0 -0.563)" fill="#00cc8e"/>
</svg>
