<svg xmlns="http://www.w3.org/2000/svg" width="28.337" height="18.261" viewBox="0 0 28.337 18.261">
  <g id="Group_39945" data-name="Group 39945" transform="translate(0)">
    <g id="Group_39944" data-name="Group 39944" transform="translate(0 0)">
      <g id="Group_39942" data-name="Group 39942" transform="translate(8.622)">
        <path id="Path_33091" data-name="Path 33091" d="M396.294,132.617a6.468,6.468,0,0,1-1.55.652c-.178.052-.352.091-.518.122a5.451,5.451,0,0,1-1.592.063l-.011,0a1.482,1.482,0,0,1-.15-.021l-.008.016a.7.7,0,0,0-.077.006h-.005c-.013,0-.026-.024-.036-.026s-.018.015-.026.012-.008.015-.008.015h-.021c-.005-.111-.008-.03-.008-.03l1.941-1.4.518-.374.388-.281A4.88,4.88,0,0,0,396.294,132.617Z" transform="translate(-392.285 -126.698)" fill="#4e5822"/>
        <path id="Path_33092" data-name="Path 33092" d="M403.449,125.213a9,9,0,0,1-2.5,1.942c-.166.085-.339.168-.518.246a6.779,6.779,0,0,1-1.941.531,14.337,14.337,0,0,1-3.668-.11c-.181-.026-.352-.035-.518-.065-1.035-.181-1.771-.422-1.916-.422h.036a.17.17,0,0,0,.036,0h.005c.023,0,.049,0,.077,0l.005,0c.044.008.093.012.15.017h.013a5.457,5.457,0,0,0,1.592-.063c.166-.031.339-.07.518-.122a6.479,6.479,0,0,0,1.55-.653c.072-.042.145-.083.218-.13,2.5-1.986,2.89-3.322,2.89-3.322l.95.515.518.282Z" transform="translate(-392.363 -120.469)" fill="#64a431"/>
        <g id="Group_39941" data-name="Group 39941" transform="translate(1.94)">
          <path id="Path_33093" data-name="Path 33093" d="M405.478,112.731h-4.263a1.19,1.19,0,0,0-1.191,1.189V117.9l.518-.365V113.92a.673.673,0,0,1,.673-.671h4.263a.673.673,0,0,1,.673.671v1.752l.517.282v-2.034A1.192,1.192,0,0,0,405.478,112.731Z" transform="translate(-400.024 -112.731)" fill="#dd1120"/>
          <path id="Path_33094" data-name="Path 33094" d="M406.157,140.558v2.762h-5.609v-2.387c-.181-.026-.352-.054-.518-.085v4.525a1.193,1.193,0,0,0,1.191,1.191h4.263a1.194,1.194,0,0,0,1.19-1.191v-5.06C406.509,140.395,406.335,140.478,406.157,140.558Zm-4.047,4.453h-.7v-.7h.7Zm1.713.062h-1.079v-1.079h1.079Zm1.473-.063H404.6v-.7h.694Z" transform="translate(-400.029 -133.398)" fill="#dd1120"/>
        </g>
      </g>
      <g id="Group_39943" data-name="Group 39943" transform="translate(0 15.144)">
        <path id="Path_33095" data-name="Path 33095" d="M359.581,176.54l-.424,1.323-.443-1.323h-.826l.931,2.221h.646l.9-2.221Z" transform="translate(-357.887 -175.689)" fill="#dd1120"/>
        <path id="Path_33096" data-name="Path 33096" d="M370.119,176.972a.971.971,0,0,0-.361-.452,1.075,1.075,0,0,0-.641-.18,1.3,1.3,0,0,0-.521.109.918.918,0,0,0-.417.384,1.277,1.277,0,0,0-.162.655,1.409,1.409,0,0,0,.074.467,1.053,1.053,0,0,0,.217.37,1.007,1.007,0,0,0,.346.244,1.172,1.172,0,0,0,.465.087,1.19,1.19,0,0,0,.468-.088,1,1,0,0,0,.347-.244,1.051,1.051,0,0,0,.217-.37,1.41,1.41,0,0,0-.03-.982Zm-.727.946a.311.311,0,0,1-.544,0,.9.9,0,0,1-.088-.431.812.812,0,0,1,.09-.411.312.312,0,0,1,.537,0,.8.8,0,0,1,.09.411A.917.917,0,0,1,369.392,177.918Z" transform="translate(-365.476 -175.539)" fill="#dd1120"/>
        <path id="Path_33097" data-name="Path 33097" d="M379.344,173.365v.813a.666.666,0,0,0-.183-.052,1.388,1.388,0,0,0-.21-.016,1.01,1.01,0,0,0-.456.113.877.877,0,0,0-.375.4,1.373,1.373,0,0,0-.149.646,1.564,1.564,0,0,0,.066.46,1.155,1.155,0,0,0,.185.368.861.861,0,0,0,.29.244.816.816,0,0,0,.381.087.672.672,0,0,0,.33-.067.685.685,0,0,0,.185-.149l.036.171h.655v-3.016Zm0,2.366a.3.3,0,0,1-.106.086.339.339,0,0,1-.156.036.3.3,0,0,1-.27-.161.805.805,0,0,1-.1-.431,1.285,1.285,0,0,1,.023-.219.468.468,0,0,1,.124-.239.337.337,0,0,1,.26-.111.569.569,0,0,1,.226.054Z" transform="translate(-372.937 -173.31)" fill="#dd1120"/>
        <path id="Path_33098" data-name="Path 33098" d="M389.525,176.547a.962.962,0,0,0-.654-.212,1.635,1.635,0,0,0-.244.023,1.881,1.881,0,0,0-.327.088,1.36,1.36,0,0,0-.277.129l.217.478a1.262,1.262,0,0,1,.253-.115.912.912,0,0,1,.275-.043c.184,0,.289.083.289.248v.077c-.222.015-.406.03-.487.045a.936.936,0,0,0-.244.056.924.924,0,0,0-.243.134.677.677,0,0,0-.181.214.627.627,0,0,0-.071.3.7.7,0,0,0,.052.28.647.647,0,0,0,.142.21.6.6,0,0,0,.214.133.781.781,0,0,0,.269.045.87.87,0,0,0,.339-.061.777.777,0,0,0,.235-.147l.059.171h.632v-1.4A.822.822,0,0,0,389.525,176.547Zm-.47,1.472c-.111.027-.086.049-.133.068a.449.449,0,0,1-.153.027.254.254,0,0,1-.177-.056.188.188,0,0,1-.063-.142.275.275,0,0,1,.053-.174.338.338,0,0,1,.2-.1,2.249,2.249,0,0,1,.275-.032Z" transform="translate(-380.323 -175.535)" fill="#dd1120"/>
        <path id="Path_33099" data-name="Path 33099" d="M397.913,173.7a.848.848,0,0,1,.178.018.644.644,0,0,1,.149.05l.077-.515a1.826,1.826,0,0,0-.25-.075,1.578,1.578,0,0,0-.363-.038.848.848,0,0,0-.6.206.794.794,0,0,0-.233.589v.033h-.242v.555h.284V176.2l.755.005v-1.663h.442l-.01-.555h-.452v-.045C397.651,173.786,397.745,173.7,397.913,173.7Z" transform="translate(-386.92 -173.145)" fill="#dd1120"/>
        <path id="Path_33100" data-name="Path 33100" d="M405.185,176.964a.969.969,0,0,0-.361-.452,1.074,1.074,0,0,0-.641-.18,1.3,1.3,0,0,0-.521.109.915.915,0,0,0-.418.384,1.285,1.285,0,0,0-.162.655,1.429,1.429,0,0,0,.074.467,1.058,1.058,0,0,0,.217.37,1,1,0,0,0,.345.244,1.172,1.172,0,0,0,.465.087,1.185,1.185,0,0,0,.467-.088,1,1,0,0,0,.348-.244,1.057,1.057,0,0,0,.216-.37,1.4,1.4,0,0,0,.074-.467A1.436,1.436,0,0,0,405.185,176.964Zm-.727.946a.311.311,0,0,1-.543,0,.9.9,0,0,1-.088-.431.807.807,0,0,1,.09-.411.291.291,0,0,1,.266-.153.3.3,0,0,1,.271.153.81.81,0,0,1,.09.411A.907.907,0,0,1,404.458,177.91Z" transform="translate(-391.752 -175.533)" fill="#dd1120"/>
        <path id="Path_33101" data-name="Path 33101" d="M415.308,176.541a.786.786,0,0,0-.571-.212.859.859,0,0,0-.361.072.985.985,0,0,0-.262.167l-.032-.19h-.664V178.6h.754V177.06a.9.9,0,0,1,.142-.1.348.348,0,0,1,.178-.045.241.241,0,0,1,.206.094.455.455,0,0,1,.07.271V178.6h.759v-1.4A.877.877,0,0,0,415.308,176.541Z" transform="translate(-399.498 -175.531)" fill="#dd1120"/>
        <path id="Path_33102" data-name="Path 33102" d="M424.858,177.99a.653.653,0,0,1-.316.07.5.5,0,0,1-.35-.108.425.425,0,0,1-.129-.312h1.359a1.516,1.516,0,0,0-.28-.989.927.927,0,0,0-.745-.325,1.265,1.265,0,0,0-.478.1.832.832,0,0,0-.422.381,1.314,1.314,0,0,0-.169.68,1.411,1.411,0,0,0,.084.51.99.99,0,0,0,.232.361.947.947,0,0,0,.35.215,1.346,1.346,0,0,0,.441.069,2.208,2.208,0,0,0,.3-.025,1.243,1.243,0,0,0,.336-.1.869.869,0,0,0,.26-.17l-.221-.533A1.525,1.525,0,0,1,424.858,177.99Zm-.687-1.054a.293.293,0,0,1,.231-.1.272.272,0,0,1,.219.109.481.481,0,0,1,.1.28h-.65A.476.476,0,0,1,424.17,176.936Z" transform="translate(-406.923 -175.529)" fill="#dd1120"/>
        <path id="Path_33103" data-name="Path 33103" d="M437.111,177.976a.6.6,0,0,1-.287.063.411.411,0,0,1-.334-.14.677.677,0,0,1-.117-.438.7.7,0,0,1,.1-.411.318.318,0,0,1,.271-.135.285.285,0,0,1,.208.086.868.868,0,0,1,.158.235l.519-.334a2.5,2.5,0,0,0-.134-.212.879.879,0,0,0-.287-.25.931.931,0,0,0-.483-.115,1.4,1.4,0,0,0-.5.1.869.869,0,0,0-.429.384,1.292,1.292,0,0,0-.167.682,1.148,1.148,0,0,0,.3.853,1.1,1.1,0,0,0,.81.294,1.351,1.351,0,0,0,.515-.088,1.258,1.258,0,0,0,.321-.179l-.239-.56A1.048,1.048,0,0,1,437.111,177.976Z" transform="translate(-416.141 -175.526)" fill="#dd1120"/>
        <path id="Path_33104" data-name="Path 33104" d="M446.022,176.533a.963.963,0,0,0-.654-.212,1.592,1.592,0,0,0-.244.023,1.891,1.891,0,0,0-.327.088,1.348,1.348,0,0,0-.277.129l.216.479a1.241,1.241,0,0,1,.253-.115.726.726,0,0,1,.245-.043c.184,0,.26.083.26.248v.077c-.222.015-.377.03-.457.045a.851.851,0,0,0-.229.056.889.889,0,0,0-.235.134.659.659,0,0,0-.178.215.623.623,0,0,0-.069.3.7.7,0,0,0,.053.28.639.639,0,0,0,.143.21.59.59,0,0,0,.214.134.786.786,0,0,0,.269.045.874.874,0,0,0,.339-.061.776.776,0,0,0,.235-.147l.059.171h.632v-1.4A.823.823,0,0,0,446.022,176.533Zm-.529,1.472c0,.027-.057.049-.1.068a.372.372,0,0,1-.138.027.237.237,0,0,1-.17-.056.185.185,0,0,1-.059-.143.274.274,0,0,1,.055-.173.257.257,0,0,1,.169-.1c.021,0,.135-.014.246-.032Z" transform="translate(-422.657 -175.525)" fill="#dd1120"/>
        <path id="Path_33105" data-name="Path 33105" d="M455.275,177.651a.525.525,0,0,0-.226-.255,1.793,1.793,0,0,0-.515-.21,1.93,1.93,0,0,1-.212-.059.416.416,0,0,1-.136-.07.122.122,0,0,1-.045-.1.1.1,0,0,1,.084-.109.705.705,0,0,1,.187-.023.915.915,0,0,1,.312.068,1.582,1.582,0,0,1,.316.158l.226-.479a1.844,1.844,0,0,0-.354-.178,1.5,1.5,0,0,0-.531-.079,1.548,1.548,0,0,0-.327.036.972.972,0,0,0-.309.122.732.732,0,0,0-.231.224.534.534,0,0,0-.081.327.709.709,0,0,0,.048.273.5.5,0,0,0,.149.2,1.012,1.012,0,0,0,.257.146,2.814,2.814,0,0,0,.373.118c.228.057.343.125.343.2a.108.108,0,0,1-.077.113.538.538,0,0,1-.181.027,1.187,1.187,0,0,1-.4-.072,1.113,1.113,0,0,1-.185-.084,1.324,1.324,0,0,1-.144-.1l-.23.515a.884.884,0,0,0,.133.084,1.3,1.3,0,0,0,.212.088,2.032,2.032,0,0,0,.28.067,1.933,1.933,0,0,0,.332.027,1.759,1.759,0,0,0,.434-.054.793.793,0,0,0,.37-.213.623.623,0,0,0,.171-.46A.816.816,0,0,0,455.275,177.651Z" transform="translate(-429.449 -175.523)" fill="#dd1120"/>
        <path id="Path_33106" data-name="Path 33106" d="M464.456,174.315a.747.747,0,0,0-.594-.226.909.909,0,0,0-.325.052,1.01,1.01,0,0,0-.23.119v-.916h-.755v3.016h.755v-1.544a.813.813,0,0,1,.144-.094.384.384,0,0,1,.185-.045.235.235,0,0,1,.19.088.438.438,0,0,1,.072.278v1.318h.755v-1.408A.943.943,0,0,0,464.456,174.315Z" transform="translate(-436.316 -173.295)" fill="#dd1120"/>
      </g>
    </g>
  </g>
</svg>
