<svg width="24" height="24" viewBox="0 0 24 24" fill="none" xmlns="http://www.w3.org/2000/svg">
<path d="M9.783 3.49996C10.4758 3.1711 11.2331 3.00049 12 3.00049C12.7669 3.00049 13.5242 3.1711 14.217 3.49996L20.908 6.63696C22.364 7.31896 22.364 9.68096 20.908 10.363L14.218 13.5C13.5251 13.829 12.7676 13.9997 12.0005 13.9997C11.2334 13.9997 10.4759 13.829 9.783 13.5L3.092 10.363C1.636 9.68096 1.636 7.31896 3.092 6.63696L6 5.27296M2 8.49996V14M12 21C10.204 21 7.854 19.879 6.385 19.066C5.504 18.577 5 17.633 5 16.626V11.5M19 11.5V16.625C19 17.633 18.497 18.577 17.615 19.065C17.0058 19.4042 16.3819 19.7161 15.745 20" stroke="#007AFF" stroke-width="1.56" stroke-linecap="round"/>
</svg>
