<svg width="302" height="286" viewBox="0 0 302 286" fill="none" xmlns="http://www.w3.org/2000/svg">
<g clip-path="url(#clip0_19681_10692)">
<rect width="302" height="286" rx="20" fill="#94E8A2"/>
<path opacity="0.8" d="M-47.2927 480.246C-43.1313 472.888 -33.8318 467.611 -33.1852 459.352C-32.7369 453.161 -37.587 447.587 -43.2722 444.069C-48.9574 440.55 -55.5665 438.4 -61.3218 434.979C-75.9901 426.229 -83.4143 408.655 -78.8485 393.353C-77.267 388.085 -74.4821 383.172 -72.7033 377.949C-69.3177 367.956 -69.9181 356.885 -74.4354 347.222C-74.8744 346.317 -75.2815 345.389 -75.7206 344.484L-94.5102 323.344C-122.364 292.007 -116.696 246.288 -81.8528 221.238C-81.8209 221.215 -81.7891 221.192 -81.7572 221.169C-81.7254 221.146 -81.6935 221.123 -81.6617 221.1C-46.8181 196.05 4.01581 201.147 31.8693 232.484L50.659 253.624C51.5439 254.208 52.4288 254.793 53.3456 255.355C62.806 261.417 74.6747 264.434 86.2903 263.641C92.3465 263.231 98.2885 261.87 104.351 261.643C121.952 261.007 139.409 271.368 145.637 286.187C148.08 291.989 148.957 298.261 151.52 304.023C154.084 309.786 159.087 315.297 165.875 316.238C174.943 317.513 182.715 310.517 191.644 308.464C203.738 305.684 219.564 317.969 221.145 329.086L158.159 374.51L157.967 374.648L31.9382 465.256L31.7153 465.416L-31.4235 510.669C-43.1327 506.833 -52.9453 490.273 -47.2927 480.246Z" fill="#0E479D"/>
<path opacity="0.8" d="M-165.613 348.616C-158.104 346.046 -148.625 347.542 -142.806 342.529C-138.468 338.752 -137.968 332.573 -139.354 327.285C-140.74 321.997 -143.62 317.108 -145.115 311.847C-148.904 298.416 -142.229 283.096 -129.265 275.589C-124.795 273.009 -119.777 271.296 -115.209 268.851C-106.481 264.162 -99.6323 256.666 -96.2435 248.012C-95.9364 247.193 -95.5938 246.376 -95.2867 245.557L-93.6488 221.914C-91.2207 186.866 -57.6562 160.22 -18.6867 162.404C-18.6511 162.406 -18.6155 162.408 -18.5799 162.41C-18.5443 162.412 -18.5086 162.414 -18.473 162.416C20.4964 164.6 50.1237 194.787 47.6957 229.835L46.0577 253.478C46.2494 254.325 46.441 255.171 46.6683 256.02C48.8386 264.954 54.5619 273.186 62.6112 278.815C66.8061 281.752 71.5486 284.012 75.6278 287.07C87.4558 295.966 92.0009 311.916 86.3511 324.817C84.1415 329.871 80.6093 334.401 78.5043 339.493C76.3993 344.585 76.04 350.804 79.8256 355.004C84.8716 360.626 94.4846 360.2 101.616 363.59C111.275 368.184 113.505 384.518 107.262 392.562L36.7252 388.706L36.5114 388.694L-104.441 380.796L-104.691 380.782L-175.214 376.733C-180.298 368.054 -175.833 352.127 -165.613 348.616Z" fill="#ED1B2E"/>
<rect x="49.5" y="115" width="203" height="56" rx="10" fill="white"/>
<path d="M69.324 148V138.768H65.596V136.72H75.532V138.768H71.804V148H69.324ZM74.1837 148L79.3678 136.72H81.3678L86.5518 148H84.0558L82.9998 145.552H77.7358L76.6957 148H74.1837ZM80.3438 139.36L78.5677 143.616H82.1838L80.3758 139.36H80.3438ZM87.5266 148V136.72H92.6786C93.9373 136.72 94.908 137.04 95.5906 137.68C96.2733 138.309 96.6146 139.189 96.6146 140.32C96.6146 141.451 96.2733 142.336 95.5906 142.976C94.908 143.616 93.9373 143.936 92.6786 143.936H90.0066V148H87.5266ZM90.0066 142.016H92.2626C93.5746 142.016 94.2306 141.451 94.2306 140.32C94.2306 139.211 93.5746 138.656 92.2626 138.656H90.0066V142.016ZM105.293 148V138.768H101.565V136.72H111.501V138.768H107.773V148H105.293ZM117.274 148.176C116.165 148.176 115.189 147.936 114.346 147.456C113.514 146.965 112.864 146.288 112.394 145.424C111.936 144.549 111.706 143.525 111.706 142.352C111.706 141.179 111.936 140.16 112.394 139.296C112.864 138.421 113.514 137.744 114.346 137.264C115.178 136.784 116.154 136.544 117.274 136.544C118.394 136.544 119.37 136.784 120.202 137.264C121.045 137.744 121.696 138.421 122.154 139.296C122.624 140.16 122.858 141.173 122.858 142.336C122.858 143.509 122.624 144.533 122.154 145.408C121.696 146.283 121.045 146.965 120.202 147.456C119.37 147.936 118.394 148.176 117.274 148.176ZM117.274 146.064C118.213 146.064 118.944 145.739 119.466 145.088C120 144.427 120.266 143.515 120.266 142.352C120.266 141.179 120.005 140.272 119.482 139.632C118.96 138.981 118.224 138.656 117.274 138.656C116.346 138.656 115.616 138.981 115.082 139.632C114.56 140.272 114.298 141.179 114.298 142.352C114.298 143.515 114.56 144.427 115.082 145.088C115.616 145.739 116.346 146.064 117.274 146.064ZM127.934 148L133.118 136.72H135.118L140.302 148H137.806L136.75 145.552H131.486L130.446 148H127.934ZM134.094 139.36L132.318 143.616H135.934L134.126 139.36H134.094ZM141.277 148V136.72H145.693C147.613 136.72 149.101 137.211 150.157 138.192C151.213 139.163 151.741 140.549 151.741 142.352C151.741 144.155 151.213 145.547 150.157 146.528C149.101 147.509 147.613 148 145.693 148H141.277ZM143.757 145.968H145.549C147.949 145.968 149.149 144.763 149.149 142.352C149.149 139.952 147.949 138.752 145.549 138.752H143.757V145.968ZM153.667 148V136.72H158.083C160.003 136.72 161.491 137.211 162.547 138.192C163.603 139.163 164.131 140.549 164.131 142.352C164.131 144.155 163.603 145.547 162.547 146.528C161.491 147.509 160.003 148 158.083 148H153.667ZM156.147 145.968H157.939C160.339 145.968 161.539 144.763 161.539 142.352C161.539 139.952 160.339 138.752 157.939 138.752H156.147V145.968ZM169.215 148L174.399 136.72H176.399L181.583 148H179.087L178.031 145.552H172.767L171.727 148H169.215ZM175.375 139.36L173.599 143.616H177.215L175.407 139.36H175.375ZM192.483 148.176C191.267 148.176 190.227 147.936 189.363 147.456C188.499 146.976 187.832 146.304 187.363 145.44C186.904 144.565 186.675 143.536 186.675 142.352C186.675 141.179 186.904 140.16 187.363 139.296C187.832 138.421 188.499 137.744 189.363 137.264C190.227 136.784 191.267 136.544 192.483 136.544C193.23 136.544 193.944 136.661 194.627 136.896C195.31 137.131 195.87 137.451 196.307 137.856L195.539 139.824C195.059 139.451 194.574 139.179 194.083 139.008C193.603 138.827 193.096 138.736 192.563 138.736C191.486 138.736 190.67 139.051 190.115 139.68C189.571 140.299 189.299 141.189 189.299 142.352C189.299 143.515 189.571 144.411 190.115 145.04C190.67 145.669 191.486 145.984 192.563 145.984C193.096 145.984 193.603 145.899 194.083 145.728C194.574 145.547 195.059 145.269 195.539 144.896L196.307 146.864C195.87 147.259 195.31 147.579 194.627 147.824C193.944 148.059 193.23 148.176 192.483 148.176ZM197.933 148V136.72H200.413V141.248H205.661V136.72H208.141V148H205.661V143.312H200.413V148H197.933ZM210.417 148V136.72H212.897V148H210.417ZM215.152 148V136.72H217.632V145.904H222.848V148H215.152ZM224.324 148V136.72H228.74C230.66 136.72 232.148 137.211 233.204 138.192C234.26 139.163 234.788 140.549 234.788 142.352C234.788 144.155 234.26 145.547 233.204 146.528C232.148 147.509 230.66 148 228.74 148H224.324ZM226.804 145.968H228.596C230.996 145.968 232.196 144.763 232.196 142.352C232.196 139.952 230.996 138.752 228.596 138.752H226.804V145.968Z" fill="#2E2E2E"/>
</g>
<defs>
<clipPath id="clip0_19681_10692">
<rect width="302" height="286" rx="20" fill="white"/>
</clipPath>
</defs>
</svg>
