<svg width="20" height="20" viewBox="0 0 20 20" fill="none" xmlns="http://www.w3.org/2000/svg">
<path fill-rule="evenodd" clip-rule="evenodd" d="M10 2C5.58172 2 2 5.58172 2 10C2 14.4183 5.58172 18 10 18C14.4183 18 18 14.4183 18 10C18 5.58172 14.4183 2 10 2ZM9 14C9 14.5523 9.44772 15 10 15C10.5523 15 11 14.5523 11 14C11 13.4477 10.5523 13 10 13C9.44771 13 9 13.4477 9 14ZM9 10.5C9 11.0523 9.44772 11.5 10 11.5C10.5523 11.5 11 11.0523 11 10.5L11 6.5C11 5.94772 10.5523 5.5 10 5.5C9.44771 5.5 9 5.94772 9 6.5V10.5Z" fill="white"/>
</svg>
