<svg width="15" height="16" viewBox="0 0 15 16" fill="none" xmlns="http://www.w3.org/2000/svg">
<path fill-rule="evenodd" clip-rule="evenodd" d="M7.75204 1.24047C7.58591 1.2063 7.41455 1.2063 7.24842 1.24047C7.05637 1.27997 6.88472 1.37611 6.74826 1.45254L6.71106 1.47332L2.08606 4.04277L2.0466 4.06456C1.90214 4.14413 1.72051 4.24417 1.58102 4.39553C1.46043 4.5264 1.36916 4.6815 1.31334 4.85047C1.24876 5.04591 1.24952 5.25327 1.25012 5.41819L1.25023 5.46327V10.5365L1.25012 10.5815C1.24952 10.7465 1.24876 10.9538 1.31334 11.1493C1.36916 11.3182 1.46043 11.4733 1.58102 11.6042C1.7205 11.7556 1.90212 11.8556 2.04658 11.9352L2.08606 11.957L6.71106 14.5264L6.74825 14.5472C6.88472 14.6236 7.05637 14.7198 7.24842 14.7593C7.41455 14.7934 7.58591 14.7934 7.75204 14.7593C7.94409 14.7198 8.11574 14.6236 8.25221 14.5472L8.2894 14.5264L12.9144 11.957L12.9539 11.9352C13.0983 11.8556 13.28 11.7556 13.4194 11.6042C13.54 11.4733 13.6313 11.3182 13.6871 11.1493C13.7517 10.9538 13.7509 10.7465 13.7503 10.5815L13.7502 10.5365V5.46327L13.7503 5.41819C13.7509 5.25327 13.7517 5.04591 13.6871 4.85047C13.6313 4.6815 13.54 4.5264 13.4194 4.39553C13.28 4.24417 13.0983 4.14413 12.9539 4.06456L12.9144 4.04277L8.2894 1.47332L8.2522 1.45254C8.11574 1.37611 7.94409 1.27997 7.75204 1.24047ZM8.12523 5.49982C8.12523 5.15464 7.84541 4.87482 7.50023 4.87482C7.15505 4.87482 6.87523 5.15464 6.87523 5.49982V7.99982C6.87523 8.34499 7.15505 8.62482 7.50023 8.62482C7.84541 8.62482 8.12523 8.34499 8.12523 7.99982V5.49982ZM7.50023 9.87482C7.15505 9.87482 6.87523 10.1546 6.87523 10.4998C6.87523 10.845 7.15505 11.1248 7.50023 11.1248H7.50648C7.85166 11.1248 8.13148 10.845 8.13148 10.4998C8.13148 10.1546 7.85166 9.87482 7.50648 9.87482H7.50023Z" fill="#9CABB8"/>
</svg>
