<svg width="16" height="16" viewBox="0 0 16 16" fill="none" xmlns="http://www.w3.org/2000/svg">
<path fill-rule="evenodd" clip-rule="evenodd" d="M1.33203 6.66732C1.33203 6.29913 1.63051 6.00065 1.9987 6.00065H10.6654C11.0336 6.00065 11.332 6.29913 11.332 6.66732C11.332 7.03551 11.0336 7.33398 10.6654 7.33398H1.9987C1.63051 7.33398 1.33203 7.03551 1.33203 6.66732Z" fill="#030F1A"/>
<path fill-rule="evenodd" clip-rule="evenodd" d="M1.33203 4.00065C1.33203 3.63246 1.63051 3.33398 1.9987 3.33398H13.332C13.7002 3.33398 13.9987 3.63246 13.9987 4.00065C13.9987 4.36884 13.7002 4.66732 13.332 4.66732H1.9987C1.63051 4.66732 1.33203 4.36884 1.33203 4.00065Z" fill="#030F1A"/>
<path fill-rule="evenodd" clip-rule="evenodd" d="M1.33203 9.33398C1.33203 8.96579 1.63051 8.66732 1.9987 8.66732H13.332C13.7002 8.66732 13.9987 8.96579 13.9987 9.33398C13.9987 9.70217 13.7002 10.0007 13.332 10.0007H1.9987C1.63051 10.0007 1.33203 9.70217 1.33203 9.33398Z" fill="#030F1A"/>
<path fill-rule="evenodd" clip-rule="evenodd" d="M1.33203 12.0007C1.33203 11.6325 1.63051 11.334 1.9987 11.334H10.6654C11.0336 11.334 11.332 11.6325 11.332 12.0007C11.332 12.3688 11.0336 12.6673 10.6654 12.6673H1.9987C1.63051 12.6673 1.33203 12.3688 1.33203 12.0007Z" fill="#030F1A"/>
</svg>
