<svg width="16" height="16" viewBox="0 0 16 16" fill="none" xmlns="http://www.w3.org/2000/svg">
<path fill-rule="evenodd" clip-rule="evenodd" d="M4.66667 6.66732C4.66667 6.29913 4.96514 6.00065 5.33333 6.00065H14C14.3682 6.00065 14.6667 6.29913 14.6667 6.66732C14.6667 7.03551 14.3682 7.33398 14 7.33398H5.33333C4.96514 7.33398 4.66667 7.03551 4.66667 6.66732Z" fill="#030F1A"/>
<path fill-rule="evenodd" clip-rule="evenodd" d="M2 4.00065C2 3.63246 2.29848 3.33398 2.66667 3.33398H14C14.3682 3.33398 14.6667 3.63246 14.6667 4.00065C14.6667 4.36884 14.3682 4.66732 14 4.66732H2.66667C2.29848 4.66732 2 4.36884 2 4.00065Z" fill="#030F1A"/>
<path fill-rule="evenodd" clip-rule="evenodd" d="M2 9.33398C2 8.96579 2.29848 8.66732 2.66667 8.66732H14C14.3682 8.66732 14.6667 8.96579 14.6667 9.33398C14.6667 9.70217 14.3682 10.0007 14 10.0007H2.66667C2.29848 10.0007 2 9.70217 2 9.33398Z" fill="#030F1A"/>
<path fill-rule="evenodd" clip-rule="evenodd" d="M4.66667 12.0007C4.66667 11.6325 4.96514 11.334 5.33333 11.334H14C14.3682 11.334 14.6667 11.6325 14.6667 12.0007C14.6667 12.3688 14.3682 12.6673 14 12.6673H5.33333C4.96514 12.6673 4.66667 12.3688 4.66667 12.0007Z" fill="#030F1A"/>
</svg>
