<svg width="66" height="22" viewBox="0 0 66 22" fill="none" xmlns="http://www.w3.org/2000/svg">
<rect x="0.4375" y="0.4375" width="65.125" height="21.125" rx="5.6875" fill="black"/>
<rect x="0.4375" y="0.4375" width="65.125" height="21.125" rx="5.6875" stroke="#A6A6A6" stroke-width="0.875"/>
<path d="M44.8397 10.5604V11.8205H44.0498V12.6468H44.8397V15.4546C44.8397 16.4133 45.2734 16.7968 46.3645 16.7968C46.5563 16.7968 46.7389 16.774 46.8987 16.7466V15.9294C46.7617 15.9431 46.675 15.9522 46.5243 15.9522C46.0358 15.9522 45.8212 15.7239 45.8212 15.2035V12.6468H46.8987V11.8205H45.8212V10.5604H44.8397Z" fill="white"/>
<path d="M49.6783 16.8653C51.1301 16.8653 52.0204 15.8929 52.0204 14.2813C52.0204 12.6788 51.1255 11.7018 49.6783 11.7018C48.2265 11.7018 47.3317 12.6788 47.3317 14.2813C47.3317 15.8929 48.2219 16.8653 49.6783 16.8653ZM49.6783 15.9933C48.8246 15.9933 48.3452 15.3678 48.3452 14.2813C48.3452 13.2038 48.8246 12.5738 49.6783 12.5738C50.5275 12.5738 51.0114 13.2038 51.0114 14.2813C51.0114 15.3633 50.5275 15.9933 49.6783 15.9933Z" fill="white"/>
<path d="M52.7821 16.7694H53.7636V13.8339C53.7636 13.1354 54.2886 12.6651 55.0328 12.6651C55.2063 12.6651 55.4985 12.6971 55.5807 12.7245V11.7566C55.4757 11.7292 55.2885 11.7155 55.1424 11.7155C54.4941 11.7155 53.9417 12.0716 53.8001 12.5601H53.7271V11.7977H52.7821V16.7694Z" fill="white"/>
<path d="M58.0179 12.5373C58.7438 12.5373 59.2186 13.044 59.2414 13.8247H56.7304C56.7852 13.0486 57.292 12.5373 58.0179 12.5373ZM59.2368 15.4272C59.0542 15.8153 58.6479 16.0298 58.0544 16.0298C57.2691 16.0298 56.7624 15.4774 56.7304 14.6054V14.5506H60.2412V14.2082C60.2412 12.6468 59.4058 11.7018 58.0224 11.7018C56.6208 11.7018 55.7306 12.7108 55.7306 14.2995C55.7306 15.8883 56.6026 16.8653 58.027 16.8653C59.1638 16.8653 59.9582 16.3175 60.1819 15.4272H59.2368Z" fill="white"/>
<path d="M38.4027 14.9334C38.4784 16.1543 39.4958 16.9351 41.01 16.9351C42.6283 16.9351 43.6409 16.1164 43.6409 14.8104C43.6409 13.7836 43.0636 13.2158 41.663 12.8892L40.9106 12.7047C40.021 12.4965 39.6614 12.2173 39.6614 11.7299C39.6614 11.1148 40.2198 10.7126 41.0573 10.7126C41.8523 10.7126 42.4012 11.1053 42.5005 11.7347H43.5321C43.4706 10.5848 42.458 9.77563 41.0715 9.77563C39.5809 9.77563 38.5872 10.5848 38.5872 11.8009C38.5872 12.8041 39.1503 13.4003 40.3854 13.6889L41.2655 13.9019C42.1693 14.1148 42.5668 14.4271 42.5668 14.9476C42.5668 15.5533 41.9422 15.9934 41.0904 15.9934C40.1772 15.9934 39.5431 15.5817 39.4532 14.9334H38.4027Z" fill="white"/>
<path d="M28.2347 11.7155C27.559 11.7155 26.9746 12.0533 26.6733 12.6195H26.6002V11.7977H25.6552V18.4221H26.6368V16.0161H26.7144C26.9746 16.5412 27.5361 16.8516 28.2438 16.8516C29.4993 16.8516 30.2982 15.8609 30.2982 14.2813C30.2982 12.7016 29.4993 11.7155 28.2347 11.7155ZM27.9562 15.9705C27.1344 15.9705 26.6185 15.3222 26.6185 14.2858C26.6185 13.2449 27.1344 12.5966 27.9607 12.5966C28.7916 12.5966 29.2893 13.2312 29.2893 14.2813C29.2893 15.3359 28.7916 15.9705 27.9562 15.9705Z" fill="white"/>
<path d="M33.7329 11.7155C33.0572 11.7155 32.4728 12.0533 32.1715 12.6195H32.0985V11.7977H31.1534V18.4221H32.135V16.0161H32.2126C32.4728 16.5412 33.0344 16.8516 33.742 16.8516C34.9975 16.8516 35.7965 15.8609 35.7965 14.2813C35.7965 12.7016 34.9975 11.7155 33.7329 11.7155ZM33.4544 15.9705C32.6326 15.9705 32.1167 15.3222 32.1167 14.2858C32.1167 13.2449 32.6326 12.5966 33.459 12.5966C34.2899 12.5966 34.7875 13.2312 34.7875 14.2813C34.7875 15.3359 34.2899 15.9705 33.4544 15.9705Z" fill="white"/>
<path d="M23.8941 16.7694H25.0203L22.555 9.94125H21.4146L18.9492 16.7694H20.0376L20.6669 14.9571H23.2695L23.8941 16.7694ZM21.9303 11.181H22.0108L22.9998 14.0675H20.9366L21.9303 11.181Z" fill="white"/>
<path d="M19.6094 4.79098V8.08494H20.7987C21.7802 8.08494 22.3486 7.48002 22.3486 6.42769C22.3486 5.39133 21.7757 4.79098 20.7987 4.79098H19.6094ZM20.1207 5.25665H20.7416C21.4241 5.25665 21.8282 5.69037 21.8282 6.43453C21.8282 7.19011 21.431 7.61926 20.7416 7.61926H20.1207V5.25665Z" fill="white"/>
<path d="M24.0894 8.13287C24.8153 8.13287 25.2605 7.64666 25.2605 6.84086C25.2605 6.03962 24.8131 5.55112 24.0894 5.55112C23.3635 5.55112 22.9161 6.03962 22.9161 6.84086C22.9161 7.64666 23.3612 8.13287 24.0894 8.13287ZM24.0894 7.69687C23.6626 7.69687 23.4229 7.38414 23.4229 6.84086C23.4229 6.30214 23.6626 5.98712 24.0894 5.98712C24.514 5.98712 24.756 6.30214 24.756 6.84086C24.756 7.38186 24.514 7.69687 24.0894 7.69687Z" fill="white"/>
<path d="M29.0511 5.59906H28.5604L28.1175 7.496H28.0787L27.5674 5.59906H27.0971L26.5858 7.496H26.5493L26.1042 5.59906H25.6065L26.2913 8.08494H26.7958L27.3071 6.2542H27.346L27.8596 8.08494H28.3686L29.0511 5.59906Z" fill="white"/>
<path d="M29.6163 8.08494H30.1071V6.63085C30.1071 6.24279 30.3377 6.00082 30.7006 6.00082C31.0636 6.00082 31.2371 6.19941 31.2371 6.59889V8.08494H31.7279V6.47562C31.7279 5.8844 31.422 5.55112 30.8673 5.55112C30.4929 5.55112 30.2464 5.71776 30.1254 5.99397H30.0889V5.59906H29.6163V8.08494Z" fill="white"/>
<path d="M32.5008 8.08494H32.9916V4.62891H32.5008V8.08494Z" fill="white"/>
<path d="M34.8374 8.13287C35.5633 8.13287 36.0084 7.64666 36.0084 6.84086C36.0084 6.03962 35.561 5.55112 34.8374 5.55112C34.1115 5.55112 33.6641 6.03962 33.6641 6.84086C33.6641 7.64666 34.1092 8.13287 34.8374 8.13287ZM34.8374 7.69687C34.4105 7.69687 34.1708 7.38414 34.1708 6.84086C34.1708 6.30214 34.4105 5.98712 34.8374 5.98712C35.262 5.98712 35.5039 6.30214 35.5039 6.84086C35.5039 7.38186 35.262 7.69687 34.8374 7.69687Z" fill="white"/>
<path d="M37.4707 7.71285C37.2036 7.71285 37.0096 7.58274 37.0096 7.35903C37.0096 7.13989 37.1648 7.02347 37.5072 7.00065L38.1144 6.96184V7.16957C38.1144 7.47773 37.8405 7.71285 37.4707 7.71285ZM37.3452 8.12603C37.6716 8.12603 37.9432 7.9845 38.0916 7.73568H38.1304V8.08494H38.6029V6.3866C38.6029 5.86157 38.2514 5.55112 37.6282 5.55112C37.0644 5.55112 36.6626 5.82505 36.6124 6.25192H37.0872C37.142 6.07615 37.3315 5.97571 37.6054 5.97571C37.9409 5.97571 38.1144 6.12408 38.1144 6.3866V6.60117L37.441 6.63998C36.8498 6.6765 36.5165 6.93445 36.5165 7.38186C36.5165 7.83612 36.8658 8.12603 37.3452 8.12603Z" fill="white"/>
<path d="M40.2684 8.12603C40.6108 8.12603 40.9007 7.96395 41.0491 7.69231H41.0879V8.08494H41.5581V4.62891H41.0674V5.99397H41.0308C40.8961 5.72004 40.6085 5.55797 40.2684 5.55797C39.6407 5.55797 39.2366 6.0556 39.2366 6.84086C39.2366 7.62839 39.6361 8.12603 40.2684 8.12603ZM40.4076 5.99854C40.8185 5.99854 41.0765 6.32496 41.0765 6.84314C41.0765 7.3636 40.8208 7.68546 40.4076 7.68546C39.9922 7.68546 39.7434 7.36816 39.7434 6.84086C39.7434 6.31812 39.9945 5.99854 40.4076 5.99854Z" fill="white"/>
<path d="M44.7407 8.13287C45.4666 8.13287 45.9117 7.64666 45.9117 6.84086C45.9117 6.03962 45.4643 5.55112 44.7407 5.55112C44.0148 5.55112 43.5674 6.03962 43.5674 6.84086C43.5674 7.64666 44.0125 8.13287 44.7407 8.13287ZM44.7407 7.69687C44.3138 7.69687 44.0741 7.38414 44.0741 6.84086C44.0741 6.30214 44.3138 5.98712 44.7407 5.98712C45.1653 5.98712 45.4073 6.30214 45.4073 6.84086C45.4073 7.38186 45.1653 7.69687 44.7407 7.69687Z" fill="white"/>
<path d="M46.5614 8.08494H47.0522V6.63085C47.0522 6.24279 47.2827 6.00082 47.6457 6.00082C48.0086 6.00082 48.1821 6.19941 48.1821 6.59889V8.08494H48.6729V6.47562C48.6729 5.8844 48.367 5.55112 47.8123 5.55112C47.438 5.55112 47.1914 5.71776 47.0704 5.99397H47.0339V5.59906H46.5614V8.08494Z" fill="white"/>
<path d="M50.9332 4.98044V5.61047H50.5383V6.02364H50.9332V7.42751C50.9332 7.90688 51.1501 8.09863 51.6957 8.09863C51.7915 8.09863 51.8829 8.08722 51.9628 8.07352V7.66492C51.8943 7.67176 51.8509 7.67633 51.7756 7.67633C51.5313 7.67633 51.424 7.56219 51.424 7.30196V6.02364H51.9628V5.61047H51.424V4.98044H50.9332Z" fill="white"/>
<path d="M52.6215 8.08494H53.1123V6.63313C53.1123 6.25648 53.336 6.0031 53.7378 6.0031C54.0848 6.0031 54.2697 6.20398 54.2697 6.60117V8.08494H54.7604V6.48019C54.7604 5.88896 54.434 5.55341 53.9044 5.55341C53.5301 5.55341 53.2676 5.72004 53.1466 5.99854H53.1078V4.62891H52.6215V8.08494Z" fill="white"/>
<path d="M56.5309 5.96886C56.8939 5.96886 57.1313 6.22224 57.1427 6.61259H55.8872C55.9146 6.22452 56.168 5.96886 56.5309 5.96886ZM57.1404 7.41382C57.0491 7.60785 56.8459 7.71514 56.5492 7.71514C56.1566 7.71514 55.9032 7.43893 55.8872 7.00293V6.97554H57.6426V6.80433C57.6426 6.02364 57.2249 5.55112 56.5332 5.55112C55.8324 5.55112 55.3873 6.0556 55.3873 6.84999C55.3873 7.64437 55.8233 8.13287 56.5355 8.13287C57.1039 8.13287 57.5011 7.85895 57.6129 7.41382H57.1404Z" fill="white"/>
<path d="M13.6229 11.1656C13.6348 10.241 14.1313 9.36621 14.919 8.88195C14.4221 8.17228 13.5898 7.72232 12.7239 7.69523C11.8003 7.59828 10.9049 8.24788 10.4343 8.24788C9.95452 8.24788 9.2299 7.70485 8.4496 7.72091C7.43251 7.75377 6.48433 8.33203 5.98949 9.22123C4.92579 11.0629 5.71922 13.7694 6.73815 15.2581C7.24795 15.987 7.84375 16.8013 8.62335 16.7724C9.38623 16.7408 9.67115 16.2859 10.592 16.2859C11.5043 16.2859 11.7717 16.7724 12.5671 16.754C13.3857 16.7407 13.9014 16.0219 14.3933 15.286C14.7596 14.7666 15.0415 14.1926 15.2285 13.5851C14.2665 13.1782 13.624 12.2101 13.6229 11.1656Z" fill="white"/>
<path d="M12.1205 6.71623C12.5668 6.18041 12.7867 5.49171 12.7335 4.79639C12.0516 4.86801 11.4217 5.19392 10.9693 5.70917C10.5269 6.2126 10.2967 6.88919 10.3403 7.55794C11.0224 7.56496 11.693 7.24789 12.1205 6.71623Z" fill="white"/>
</svg>
