<svg width="133" height="44" viewBox="0 0 133 44" fill="none" xmlns="http://www.w3.org/2000/svg">
<rect x="1" y="0.5" width="131" height="43" rx="6.5" fill="black"/>
<path d="M90.1784 21.1214V23.6415H88.5987V25.2942H90.1784V30.9097C90.1784 32.8271 91.0458 33.5941 93.2281 33.5941C93.6116 33.5941 93.9768 33.5485 94.2964 33.4937V31.8593C94.0224 31.8867 93.849 31.9049 93.5476 31.9049C92.5706 31.9049 92.1415 31.4484 92.1415 30.4075V25.2942H94.2964V23.6415H92.1415V21.1214H90.1784Z" fill="white"/>
<path d="M99.8556 33.7311C102.759 33.7311 104.54 31.7862 104.54 28.563C104.54 25.3581 102.75 23.4041 99.8556 23.4041C96.952 23.4041 95.1623 25.3581 95.1623 28.563C95.1623 31.7862 96.9429 33.7311 99.8556 33.7311ZM99.8556 31.9871C98.1481 31.9871 97.1894 30.7362 97.1894 28.563C97.1894 26.4082 98.1481 25.1481 99.8556 25.1481C101.554 25.1481 102.522 26.4082 102.522 28.563C102.522 30.727 101.554 31.9871 99.8556 31.9871Z" fill="white"/>
<path d="M106.063 33.5394H108.026V27.6682C108.026 26.2712 109.076 25.3307 110.565 25.3307C110.912 25.3307 111.496 25.3946 111.66 25.4494V23.5137C111.45 23.4589 111.076 23.4315 110.784 23.4315C109.487 23.4315 108.382 24.1437 108.099 25.1207H107.953V23.5958H106.063V33.5394Z" fill="white"/>
<path d="M116.535 25.075C117.987 25.075 118.936 26.0886 118.982 27.6499H113.96C114.069 26.0977 115.083 25.075 116.535 25.075ZM118.973 30.8549C118.607 31.631 117.795 32.0602 116.608 32.0602C115.037 32.0602 114.024 30.9553 113.96 29.2113V29.1018H120.981V28.4169C120.981 25.2942 119.311 23.4041 116.544 23.4041C113.741 23.4041 111.96 25.422 111.96 28.5996C111.96 31.7771 113.704 33.7311 116.553 33.7311C118.827 33.7311 120.415 32.6354 120.863 30.8549H118.973Z" fill="white"/>
<path d="M77.3044 29.8674C77.4558 32.3091 79.4906 33.8706 82.519 33.8706C85.7556 33.8706 87.7809 32.2333 87.7809 29.6213C87.7809 27.5677 86.6263 26.432 83.825 25.779L82.3203 25.4099C80.541 24.9935 79.8218 24.4351 79.8218 23.4603C79.8218 22.23 80.9385 21.4256 82.6136 21.4256C84.2036 21.4256 85.3014 22.2111 85.5001 23.4698H87.5632C87.4402 21.1701 85.4149 19.5518 82.642 19.5518C79.6609 19.5518 77.6735 21.1701 77.6735 23.6023C77.6735 25.6086 78.7997 26.8011 81.2698 27.3784L83.03 27.8042C84.8376 28.2301 85.6326 28.8547 85.6326 29.8958C85.6326 31.1071 84.3834 31.9873 82.6799 31.9873C80.8534 31.9873 79.5852 31.1639 79.4054 29.8674H77.3044Z" fill="white"/>
<path d="M56.9683 23.4315C55.617 23.4315 54.4482 24.1072 53.8456 25.2394H53.6995V23.5958H51.8094V36.8447H53.7725V32.0328H53.9278C54.4482 33.0828 55.5713 33.7037 56.9866 33.7037C59.4976 33.7037 61.0955 31.7223 61.0955 28.563C61.0955 25.4038 59.4976 23.4315 56.9683 23.4315ZM56.4114 31.9415C54.7678 31.9415 53.736 30.6449 53.736 28.5722C53.736 26.4903 54.7678 25.1937 56.4205 25.1937C58.0823 25.1937 59.0776 26.4629 59.0776 28.563C59.0776 30.6723 58.0823 31.9415 56.4114 31.9415Z" fill="white"/>
<path d="M67.9648 23.4315C66.6134 23.4315 65.4447 24.1072 64.8421 25.2394H64.696V23.5958H62.8059V36.8447H64.769V32.0328H64.9242C65.4447 33.0828 66.5678 33.7037 67.9831 33.7037C70.4941 33.7037 72.092 31.7223 72.092 28.563C72.092 25.4038 70.4941 23.4315 67.9648 23.4315ZM67.4078 31.9415C65.7643 31.9415 64.7325 30.6449 64.7325 28.5722C64.7325 26.4903 65.7643 25.1937 67.417 25.1937C69.0788 25.1937 70.074 26.4629 70.074 28.563C70.074 30.6723 69.0788 31.9415 67.4078 31.9415Z" fill="white"/>
<path d="M48.2872 33.5394H50.5396L45.6089 19.883H43.3281L38.3975 33.5394H40.5742L41.8328 29.9147H47.038L48.2872 33.5394ZM44.3597 22.3625H44.5206L46.4985 28.1355H42.3723L44.3597 22.3625Z" fill="white"/>
<path d="M39.7158 9.58196V16.1699H42.0944C44.0575 16.1699 45.1943 14.96 45.1943 12.8554C45.1943 10.7827 44.0484 9.58196 42.0944 9.58196H39.7158ZM40.7385 10.5133H41.9803C43.3453 10.5133 44.1534 11.3807 44.1534 12.8691C44.1534 14.3802 43.359 15.2385 41.9803 15.2385H40.7385V10.5133Z" fill="white"/>
<path d="M48.6759 16.2657C50.1277 16.2657 51.018 15.2933 51.018 13.6817C51.018 12.0792 50.1232 11.1022 48.6759 11.1022C47.2241 11.1022 46.3293 12.0792 46.3293 13.6817C46.3293 15.2933 47.2196 16.2657 48.6759 16.2657ZM48.6759 15.3937C47.8222 15.3937 47.3428 14.7683 47.3428 13.6817C47.3428 12.6043 47.8222 11.9742 48.6759 11.9742C49.5251 11.9742 50.009 12.6043 50.009 13.6817C50.009 14.7637 49.5251 15.3937 48.6759 15.3937Z" fill="white"/>
<path d="M58.5994 11.1981H57.6178L56.7321 14.992H56.6545L55.6318 11.1981H54.6913L53.6687 14.992H53.5956L52.7054 11.1981H51.7101L53.0797 16.1699H54.0887L55.1114 12.5084H55.189L56.2162 16.1699H57.2343L58.5994 11.1981Z" fill="white"/>
<path d="M59.7298 16.1699H60.7113V13.2617C60.7113 12.4856 61.1724 12.0016 61.8983 12.0016C62.6242 12.0016 62.9712 12.3988 62.9712 13.1978V16.1699H63.9528V12.9512C63.9528 11.7688 63.341 11.1022 62.2316 11.1022C61.4829 11.1022 60.9898 11.4355 60.7478 11.9879H60.6748V11.1981H59.7298V16.1699Z" fill="white"/>
<path d="M65.4986 16.1699H66.4802V9.25781H65.4986V16.1699Z" fill="white"/>
<path d="M70.1718 16.2657C71.6236 16.2657 72.5139 15.2933 72.5139 13.6817C72.5139 12.0792 71.619 11.1022 70.1718 11.1022C68.72 11.1022 67.8252 12.0792 67.8252 13.6817C67.8252 15.2933 68.7154 16.2657 70.1718 16.2657ZM70.1718 15.3937C69.3181 15.3937 68.8387 14.7683 68.8387 13.6817C68.8387 12.6043 69.3181 11.9742 70.1718 11.9742C71.021 11.9742 71.5049 12.6043 71.5049 13.6817C71.5049 14.7637 71.021 15.3937 70.1718 15.3937Z" fill="white"/>
<path d="M75.4385 15.4257C74.9043 15.4257 74.5163 15.1655 74.5163 14.7181C74.5163 14.2798 74.8267 14.0469 75.5115 14.0013L76.7259 13.9237V14.3391C76.7259 14.9555 76.1781 15.4257 75.4385 15.4257ZM75.1874 16.2521C75.8402 16.2521 76.3835 15.969 76.6803 15.4714H76.7579V16.1699H77.7029V12.7732C77.7029 11.7231 76.9999 11.1022 75.7535 11.1022C74.6258 11.1022 73.8223 11.6501 73.7219 12.5038H74.6715C74.7811 12.1523 75.16 11.9514 75.7078 11.9514C76.379 11.9514 76.7259 12.2482 76.7259 12.7732V13.2023L75.3791 13.28C74.1967 13.353 73.5301 13.8689 73.5301 14.7637C73.5301 15.6722 74.2286 16.2521 75.1874 16.2521Z" fill="white"/>
<path d="M81.0339 16.2521C81.7187 16.2521 82.2985 15.9279 82.5953 15.3846H82.6729V16.1699H83.6133V9.25781H82.6318V11.9879H82.5587C82.2894 11.4401 81.7141 11.1159 81.0339 11.1159C79.7784 11.1159 78.9703 12.1112 78.9703 13.6817C78.9703 15.2568 79.7692 16.2521 81.0339 16.2521ZM81.3124 11.9971C82.1341 11.9971 82.65 12.6499 82.65 13.6863C82.65 14.7272 82.1387 15.3709 81.3124 15.3709C80.4815 15.3709 79.9838 14.7363 79.9838 13.6817C79.9838 12.6362 80.486 11.9971 81.3124 11.9971Z" fill="white"/>
<path d="M89.9785 16.2657C91.4303 16.2657 92.3205 15.2933 92.3205 13.6817C92.3205 12.0792 91.4257 11.1022 89.9785 11.1022C88.5267 11.1022 87.6318 12.0792 87.6318 13.6817C87.6318 15.2933 88.5221 16.2657 89.9785 16.2657ZM89.9785 15.3937C89.1247 15.3937 88.6454 14.7683 88.6454 13.6817C88.6454 12.6043 89.1247 11.9742 89.9785 11.9742C90.8276 11.9742 91.3116 12.6043 91.3116 13.6817C91.3116 14.7637 90.8276 15.3937 89.9785 15.3937Z" fill="white"/>
<path d="M93.6199 16.1699H94.6014V13.2617C94.6014 12.4856 95.0625 12.0016 95.7884 12.0016C96.5143 12.0016 96.8613 12.3988 96.8613 13.1978V16.1699H97.8429V12.9512C97.8429 11.7688 97.2311 11.1022 96.1217 11.1022C95.373 11.1022 94.8799 11.4355 94.6379 11.9879H94.5649V11.1981H93.6199V16.1699Z" fill="white"/>
<path d="M102.364 9.96089V11.2209H101.574V12.0473H102.364V14.855C102.364 15.8138 102.797 16.1973 103.888 16.1973C104.08 16.1973 104.263 16.1744 104.423 16.147V15.3298C104.286 15.3435 104.199 15.3527 104.048 15.3527C103.56 15.3527 103.345 15.1244 103.345 14.6039V12.0473H104.423V11.2209H103.345V9.96089H102.364Z" fill="white"/>
<path d="M105.74 16.1699H106.722V13.2663C106.722 12.513 107.169 12.0062 107.973 12.0062C108.667 12.0062 109.036 12.408 109.036 13.2023V16.1699H110.018V12.9604C110.018 11.7779 109.365 11.1068 108.306 11.1068C107.557 11.1068 107.032 11.4401 106.79 11.9971H106.713V9.25781H105.74V16.1699Z" fill="white"/>
<path d="M113.559 11.9377C114.285 11.9377 114.76 12.4445 114.782 13.2252H112.271C112.326 12.449 112.833 11.9377 113.559 11.9377ZM114.778 14.8276C114.595 15.2157 114.189 15.4303 113.595 15.4303C112.81 15.4303 112.303 14.8779 112.271 14.0059V13.9511H115.782V13.6087C115.782 12.0473 114.947 11.1022 113.563 11.1022C112.162 11.1022 111.272 12.1112 111.272 13.7C111.272 15.2887 112.144 16.2657 113.568 16.2657C114.705 16.2657 115.499 15.7179 115.723 14.8276H114.778Z" fill="white"/>
<path d="M27.7458 22.3312C27.7696 20.4821 28.7627 18.7324 30.338 17.7639C29.3442 16.3446 27.6796 15.4446 25.9477 15.3905C24.1006 15.1966 22.3098 16.4958 21.3685 16.4958C20.409 16.4958 18.9598 15.4097 17.3992 15.4418C15.365 15.5075 13.4687 16.6641 12.479 18.4425C10.3516 22.1257 11.9384 27.5389 13.9763 30.5162C14.9959 31.974 16.1875 33.6025 17.7467 33.5448C19.2725 33.4815 19.8423 32.5719 21.684 32.5719C23.5087 32.5719 24.0433 33.5448 25.6341 33.5081C27.2714 33.4815 28.3029 32.0437 29.2867 30.572C30.0193 29.5332 30.583 28.3851 30.957 27.1703C29.0329 26.3565 27.748 24.4202 27.7458 22.3312Z" fill="white"/>
<path d="M24.741 13.4325C25.6336 12.3608 26.0734 10.9834 25.9669 9.59277C24.6031 9.73602 23.3433 10.3878 22.4386 11.4183C21.5539 12.4252 21.0935 13.7784 21.1805 15.1159C22.5448 15.1299 23.886 14.4958 24.741 13.4325Z" fill="white"/>
<rect x="1" y="0.5" width="131" height="43" rx="6.5" stroke="#A6A6A6"/>
</svg>
