<svg width="28" height="28" viewBox="0 0 28 28" fill="none" xmlns="http://www.w3.org/2000/svg">
<path d="M20.9999 8.75008C21.7735 8.75008 22.5153 8.44279 23.0623 7.89581C23.6093 7.34883 23.9166 6.60696 23.9166 5.83341C23.9166 5.05987 23.6093 4.318 23.0623 3.77102C22.5153 3.22404 21.7735 2.91675 20.9999 2.91675C20.2264 2.91675 19.4845 3.22404 18.9375 3.77102C18.3905 4.318 18.0833 5.05987 18.0833 5.83341C18.0833 6.60696 18.3905 7.34883 18.9375 7.89581C19.4845 8.44279 20.2264 8.75008 20.9999 8.75008Z" stroke="#007AFF" stroke-width="1.56"/>
<path d="M6.99978 9.78253L11.6682 8.16553L18.0831 11.2274L11.6682 16.009L18.0831 20.2324L14.0044 25.6655M20.6031 12.6251L22.1676 13.4762L25.6664 10.1885M9.82837 18.4013L8.09587 20.6833L2.33545 23.9149" stroke="#007AFF" stroke-width="1.56" stroke-linecap="round" stroke-linejoin="round"/>
</svg>
