<svg width="95" height="94" viewBox="0 0 95 94" fill="none" xmlns="http://www.w3.org/2000/svg">
<rect x="0.5" y="0.5" width="94" height="93" rx="46.5" fill="#9CABB8"/>
<path fill-rule="evenodd" clip-rule="evenodd" d="M28.2482 61.3226C33.2077 56.1177 39.9902 52.8744 47.5007 52.8744C55.0112 52.8744 61.7937 56.1177 66.7532 61.3226C67.2951 61.8913 67.4434 62.7243 67.1304 63.442C66.8174 64.1596 66.1031 64.6244 65.3132 64.6244H29.6882C28.8983 64.6244 28.184 64.1596 27.871 63.442C27.558 62.7243 27.7063 61.8913 28.2482 61.3226Z" fill="#E6EAED"/>
<path fill-rule="evenodd" clip-rule="evenodd" d="M36.6153 38.1869C36.6153 32.2383 41.4888 27.416 47.5007 27.416C53.5125 27.416 58.3861 32.2383 58.3861 38.1869C58.3861 44.1354 53.5125 48.9577 47.5007 48.9577C41.4888 48.9577 36.6153 44.1354 36.6153 38.1869Z" fill="#E6EAED"/>
<rect x="0.5" y="0.5" width="94" height="93" rx="46.5" stroke="#9CABB8"/>
</svg>
