<svg width="52" height="52" viewBox="0 0 52 52" fill="none" xmlns="http://www.w3.org/2000/svg">
<rect x="1.25" y="1.25" width="49.5" height="49.5" rx="24.75" fill="#F2F2F2"/>
<path fill-rule="evenodd" clip-rule="evenodd" d="M14.6499 34.5337C17.5734 31.4329 21.5715 29.5007 25.9987 29.5007C30.426 29.5007 34.4241 31.4329 37.3476 34.5337C37.667 34.8724 37.7544 35.3687 37.5699 35.7963C37.3854 36.2238 36.9644 36.5007 36.4987 36.5007H15.4987C15.0331 36.5007 14.612 36.2238 14.4275 35.7963C14.2431 35.3687 14.3304 34.8724 14.6499 34.5337Z" fill="#9CABB8"/>
<path fill-rule="evenodd" clip-rule="evenodd" d="M19.5821 20.7507C19.5821 17.2068 22.4549 14.334 25.9987 14.334C29.5426 14.334 32.4154 17.2068 32.4154 20.7507C32.4154 24.2945 29.5426 27.1673 25.9987 27.1673C22.4549 27.1673 19.5821 24.2945 19.5821 20.7507Z" fill="#9CABB8"/>
<rect x="1.25" y="1.25" width="49.5" height="49.5" rx="24.75" stroke="white" stroke-width="1.5" stroke-linecap="round"/>
</svg>
