<svg width="40" height="41" viewBox="0 0 40 41" fill="none" xmlns="http://www.w3.org/2000/svg">
<rect x="0.5" y="1" width="39" height="39" rx="19.5" fill="#F2F2F2"/>
<path fill-rule="evenodd" clip-rule="evenodd" d="M10.2724 27.814C12.7783 25.1562 16.2053 23.5 20 23.5C23.7948 23.5 27.2218 25.1562 29.7276 27.814C30.0014 28.1044 30.0763 28.5298 29.9182 28.8962C29.76 29.2627 29.3991 29.5 29 29.5H11C10.6009 29.5 10.24 29.2627 10.0819 28.8962C9.92373 28.5298 9.99863 28.1044 10.2724 27.814Z" fill="#030F1A"/>
<path fill-rule="evenodd" clip-rule="evenodd" d="M14.5 16C14.5 12.9624 16.9625 10.5 20 10.5C23.0376 10.5 25.5 12.9624 25.5 16C25.5 19.0376 23.0376 21.5 20 21.5C16.9625 21.5 14.5 19.0376 14.5 16Z" fill="#030F1A"/>
<rect x="0.5" y="1" width="39" height="39" rx="19.5" stroke="#030F1A"/>
</svg>
