<svg width="70" height="70" viewBox="0 0 70 70" fill="none" xmlns="http://www.w3.org/2000/svg">
<rect width="70" height="70" rx="35" fill="#F2F2F2"/>
<path d="M49 50.75C49 48.3077 49 47.0866 48.6986 46.093C48.0199 43.8558 46.2692 42.1051 44.032 41.4264C43.0383 41.125 41.8172 41.125 39.375 41.125H30.625C28.1828 41.125 26.9616 41.125 25.968 41.4264C23.7308 42.1051 21.9801 43.8558 21.3014 46.093C21 47.0866 21 48.3077 21 50.75M42.875 27.125C42.875 31.4742 39.3492 35 35 35C30.6508 35 27.125 31.4742 27.125 27.125C27.125 22.7758 30.6508 19.25 35 19.25C39.3492 19.25 42.875 22.7758 42.875 27.125Z" stroke="#030F1A" stroke-width="2" stroke-linecap="round" stroke-linejoin="round"/>
</svg>
