<svg width="50" height="50" viewBox="0 0 50 50" fill="none" xmlns="http://www.w3.org/2000/svg">
<path d="M50 24.9851C49.8513 33.6109 48.7507 40.6008 44.6163 44.5866C40.6306 48.721 33.6109 49.8513 25.0149 49.9703C16.3891 49.8215 9.39917 48.721 5.41344 44.5866C1.24926 40.6008 0.148721 33.6109 0 24.9851C0.148721 16.3593 1.24926 9.36942 5.3837 5.3837C9.36942 1.24926 16.3891 0.148721 24.9851 0C33.6109 0.148721 40.6008 1.24926 44.5866 5.3837C48.721 9.36942 49.8513 16.3891 50 24.9851Z" fill="#FECC2F"/>
<path d="M17.728 26.7401C19.3214 26.7401 20.6131 25.4484 20.6131 23.8549C20.6131 22.2615 19.3214 20.9697 17.728 20.9697C16.1345 20.9697 14.8428 22.2615 14.8428 23.8549C14.8428 25.4484 16.1345 26.7401 17.728 26.7401Z" fill="#DB3738"/>
<path d="M24.36 36.2879C24.36 37.5669 23.319 38.608 22.04 38.608C22.0102 38.608 21.9805 38.608 21.9507 38.608C20.7015 38.5485 19.7199 37.5372 19.7199 36.2582C19.7199 34.1761 19.1548 32.7781 18.1137 32.3319C17.965 32.2724 17.8163 32.2427 17.6676 32.2427C17.5189 32.2427 17.3701 32.2724 17.2214 32.3319C16.2101 32.8078 15.645 34.2058 15.645 36.2582C15.645 37.5372 14.6634 38.5485 13.4142 38.608C13.3844 38.608 13.3547 38.608 13.3249 38.608C12.7003 38.608 12.1352 38.37 11.689 37.9238C11.2428 37.4777 11.0049 36.9125 11.0049 36.2879C11.0049 27.6324 17.6378 27.5431 17.6973 27.5431C17.7271 27.5134 24.36 27.6324 24.36 36.2879Z" fill="#DB3738"/>
<path d="M39.0242 36.288C39.0242 37.567 37.9831 38.608 36.7041 38.608C35.4251 38.608 34.3841 37.567 34.3841 36.288C34.3841 28.1083 29.9819 27.5729 29.3573 27.5432C28.7327 27.5729 24.3305 28.1083 24.3305 36.288C24.3305 37.567 23.2895 38.608 22.0105 38.608C20.7315 38.608 19.6904 37.567 19.6904 36.288C19.6904 36.169 19.6904 36.05 19.7202 35.9608C19.7797 30.9935 21.1776 27.3052 23.9141 25.0447C26.1152 23.2303 28.465 22.9626 29.1491 22.9031H29.1788C29.2086 22.9031 29.2086 22.9031 29.2383 22.9031H29.2681C29.2978 22.9031 29.3275 22.9031 29.3573 22.9031C29.387 22.9031 29.387 22.9031 29.4168 22.9031H29.4763H29.506H29.5655H29.5952C30.2794 22.9328 32.6292 23.2303 34.8302 25.0447C37.5667 27.3052 38.9944 30.9638 39.0242 35.9608C39.0242 36.05 39.0242 36.169 39.0242 36.288Z" fill="white"/>
<path d="M29.3579 21.9512C32.1013 21.9512 34.3252 19.7272 34.3252 16.9839C34.3252 14.2405 32.1013 12.0166 29.3579 12.0166C26.6146 12.0166 24.3906 14.2405 24.3906 16.9839C24.3906 19.7272 26.6146 21.9512 29.3579 21.9512Z" fill="#007AFF"/>
<path d="M31.6773 25.1933C31.6773 26.4723 30.6363 27.5134 29.387 27.5134C29.2086 27.5134 24.3305 27.7216 24.3305 36.2582C24.3305 37.5372 23.2895 38.5782 22.0105 38.5782C20.7315 38.5782 19.6904 37.5372 19.6904 36.2582C19.6904 36.1392 19.6904 36.0202 19.7202 35.931C19.7797 30.9637 21.1776 27.2754 23.9141 25.0149C26.1152 23.2005 28.465 22.9328 29.1491 22.8733C29.1788 22.8733 29.2978 22.8733 29.2978 22.8733H29.3573C29.387 22.8733 29.4465 22.8733 29.506 22.8733C30.7255 22.9923 31.6773 24.0036 31.6773 25.1933Z" fill="#007AFF"/>
</svg>
