<svg width="24" height="25" viewBox="0 0 24 25" fill="none" xmlns="http://www.w3.org/2000/svg">
<path d="M16.755 2.03247H7.245C6.086 2.03247 5.507 2.03247 5.039 2.19547C4.59778 2.35193 4.19856 2.60797 3.87234 2.94373C3.54612 3.27949 3.30168 3.68593 3.158 4.13147C3 4.61347 3 5.20947 3 6.40247V20.4065C3 21.2645 3.985 21.7205 4.608 21.1505C4.78279 20.989 5.01202 20.8993 5.25 20.8993C5.48798 20.8993 5.71721 20.989 5.892 21.1505L6.375 21.5925C6.68121 21.8756 7.08293 22.0329 7.5 22.0329C7.91707 22.0329 8.31879 21.8756 8.625 21.5925C8.93121 21.3093 9.33293 21.152 9.75 21.152C10.1671 21.152 10.5688 21.3093 10.875 21.5925C11.1812 21.8756 11.5829 22.0329 12 22.0329C12.4171 22.0329 12.8188 21.8756 13.125 21.5925C13.4312 21.3093 13.8329 21.152 14.25 21.152C14.6671 21.152 15.0688 21.3093 15.375 21.5925C15.6812 21.8756 16.0829 22.0329 16.5 22.0329C16.9171 22.0329 17.3188 21.8756 17.625 21.5925L18.108 21.1505C18.2828 20.989 18.512 20.8993 18.75 20.8993C18.988 20.8993 19.2172 20.989 19.392 21.1505C20.015 21.7205 21 21.2645 21 20.4065V6.40247C21 5.20947 21 4.61247 20.842 4.13247C20.6985 3.6867 20.4542 3.28004 20.1279 2.94409C19.8017 2.60814 19.4024 2.35196 18.961 2.19547C18.493 2.03247 17.914 2.03247 16.755 2.03247Z" stroke="#0062CC" stroke-width="1.5"/>
<path d="M9.5 10.4325L10.929 12.0325L14.5 8.03247" stroke="#0062CC" stroke-width="1.5" stroke-linecap="round" stroke-linejoin="round"/>
<path d="M7.5 15.5325H16.5" stroke="#0062CC" stroke-width="1.5" stroke-linecap="round"/>
</svg>
