<svg width="25" height="24" viewBox="0 0 25 24" fill="none" xmlns="http://www.w3.org/2000/svg">
<path fill-rule="evenodd" clip-rule="evenodd" d="M12.9029 1.18505C12.6371 1.13038 12.3629 1.13038 12.0971 1.18505C11.7898 1.24824 11.5152 1.40207 11.2968 1.52436L11.2373 1.55761L3.83733 5.66872L3.77419 5.70359C3.54306 5.8309 3.25244 5.99097 3.02927 6.23315C2.83632 6.44253 2.6903 6.69069 2.60097 6.96105C2.49765 7.27375 2.49886 7.60553 2.49982 7.8694L2.5 7.94153V16.0586L2.49982 16.1308C2.49886 16.3946 2.49765 16.7264 2.60097 17.0391C2.6903 17.3095 2.83632 17.5576 3.02927 17.767C3.25243 18.0092 3.54303 18.1692 3.77416 18.2966L3.83733 18.3314L11.2373 22.4426L11.2968 22.4758C11.5152 22.5981 11.7898 22.7519 12.0971 22.8151C12.3629 22.8698 12.6371 22.8698 12.9029 22.8151C13.2102 22.7519 13.4848 22.5981 13.7032 22.4758L13.7627 22.4426L21.1627 18.3314L21.2258 18.2966C21.4569 18.1693 21.7476 18.0092 21.9707 17.767C22.1637 17.5576 22.3097 17.3095 22.399 17.0391C22.5023 16.7264 22.5011 16.3946 22.5002 16.1308L22.5 16.0586V7.94153L22.5002 7.8694C22.5011 7.60553 22.5023 7.27375 22.399 6.96105C22.3097 6.69069 22.1637 6.44253 21.9707 6.23315C21.7476 5.99097 21.4569 5.8309 21.2258 5.70359L21.1627 5.66872L13.7627 1.55761L13.7032 1.52436C13.4848 1.40207 13.2102 1.24824 12.9029 1.18505ZM13.5 8C13.5 7.44772 13.0523 7 12.5 7C11.9477 7 11.5 7.44772 11.5 8V12C11.5 12.5523 11.9477 13 12.5 13C13.0523 13 13.5 12.5523 13.5 12V8ZM12.5 15C11.9477 15 11.5 15.4477 11.5 16C11.5 16.5523 11.9477 17 12.5 17H12.51C13.0623 17 13.51 16.5523 13.51 16C13.51 15.4477 13.0623 15 12.51 15H12.5Z" fill="#0062CC"/>
</svg>
