<svg width="16" height="16" viewBox="0 0 16 16" fill="none" xmlns="http://www.w3.org/2000/svg">
<path fill-rule="evenodd" clip-rule="evenodd" d="M3.9987 2C3.63051 2 3.33203 2.29848 3.33203 2.66667V13.3333C3.33203 13.7015 3.63051 14 3.9987 14H9.9987C11.8396 14 13.332 12.5076 13.332 10.6667C13.332 9.4153 12.6425 8.32499 11.6226 7.75497C12.2648 7.14738 12.6654 6.28714 12.6654 5.33333C12.6654 3.49238 11.173 2 9.33203 2H3.9987ZM9.33203 7.33333C10.4366 7.33333 11.332 6.4379 11.332 5.33333C11.332 4.22876 10.4366 3.33333 9.33203 3.33333H4.66536V7.33333H9.33203ZM4.66536 8.66667V12.6667H9.9987C11.1033 12.6667 11.9987 11.7712 11.9987 10.6667C11.9987 9.5621 11.1033 8.66667 9.9987 8.66667H4.66536Z" fill="#030F1A"/>
</svg>
