<svg width="44" height="44" viewBox="0 0 44 44" fill="none" xmlns="http://www.w3.org/2000/svg">
<rect x="2.5" y="2.5" width="39" height="39" rx="19.5" fill="#007AFF"/>
<rect x="2.5" y="2.5" width="39" height="39" rx="19.5" stroke="white" stroke-width="5"/>
<path d="M12 18.3772C12 18.0269 12 17.8517 12.0146 17.7042C12.1556 16.2813 13.2813 15.1556 14.7042 15.0146C14.8517 15 15.0364 15 15.4056 15C15.5479 15 15.619 15 15.6794 14.9963C16.4506 14.9496 17.126 14.4629 17.4141 13.746C17.4367 13.6899 17.4578 13.6266 17.5 13.5C17.5422 13.3734 17.5633 13.3101 17.5859 13.254C17.874 12.5371 18.5494 12.0504 19.3206 12.0037C19.381 12 19.4477 12 19.5811 12H24.4189C24.5523 12 24.619 12 24.6794 12.0037C25.4506 12.0504 26.126 12.5371 26.4141 13.254C26.4367 13.3101 26.4578 13.3734 26.5 13.5C26.5422 13.6266 26.5633 13.6899 26.5859 13.746C26.874 14.4629 27.5494 14.9496 28.3206 14.9963C28.381 15 28.4521 15 28.5944 15C28.9636 15 29.1483 15 29.2958 15.0146C30.7187 15.1556 31.8444 16.2813 31.9854 17.7042C32 17.8517 32 18.0269 32 18.3772V26.2C32 27.8802 32 28.7202 31.673 29.362C31.3854 29.9265 30.9265 30.3854 30.362 30.673C29.7202 31 28.8802 31 27.2 31H16.8C15.1198 31 14.2798 31 13.638 30.673C13.0735 30.3854 12.6146 29.9265 12.327 29.362C12 28.7202 12 27.8802 12 26.2V18.3772Z" stroke="white" stroke-width="2" stroke-linecap="round" stroke-linejoin="round"/>
<path d="M22 26.5C24.2091 26.5 26 24.7091 26 22.5C26 20.2909 24.2091 18.5 22 18.5C19.7909 18.5 18 20.2909 18 22.5C18 24.7091 19.7909 26.5 22 26.5Z" stroke="white" stroke-width="2" stroke-linecap="round" stroke-linejoin="round"/>
</svg>
