<svg width="31" height="31" viewBox="0 0 31 31" fill="none" xmlns="http://www.w3.org/2000/svg">
<mask id="mask0_4120_911" style="mask-type:alpha" maskUnits="userSpaceOnUse" x="0" y="0" width="31" height="31">
<rect width="31" height="31" fill="#D9D9D9"/>
</mask>
<g mask="url(#mask0_4120_911)">
<path d="M3.22949 27.1744V5.56395C3.22949 4.91149 3.45553 4.35921 3.90762 3.90713C4.3597 3.45505 4.91197 3.229 5.56444 3.229H25.4361C26.0886 3.229 26.6409 3.45505 27.093 3.90713C27.5451 4.35921 27.7711 4.91149 27.7711 5.56395V20.269C27.7711 20.9215 27.5451 21.4737 27.093 21.9258C26.6409 22.3779 26.0886 22.6039 25.4361 22.6039H7.79999L3.22949 27.1744ZM5.16696 22.4947L6.99519 20.6665H25.4361C25.5521 20.6665 25.6473 20.6292 25.7218 20.5547C25.7964 20.4801 25.8336 20.3849 25.8336 20.269V5.56395C25.8336 5.44802 25.7964 5.35279 25.7218 5.27827C25.6473 5.20374 25.5521 5.16647 25.4361 5.16647H5.56444C5.44851 5.16647 5.35328 5.20374 5.27875 5.27827C5.20422 5.35279 5.16696 5.44802 5.16696 5.56395V22.4947ZM5.16696 5.56395V5.16647V22.4947V5.56395Z" fill="#9CABB8"/>
</g>
</svg>
