<svg width="50" height="51" viewBox="0 0 50 51" fill="none" xmlns="http://www.w3.org/2000/svg">
<path fill-rule="evenodd" clip-rule="evenodd" d="M24.9997 2.5835C12.3431 2.5835 2.08301 12.8436 2.08301 25.5002C2.08301 38.1567 12.3431 48.4168 24.9997 48.4168C37.6562 48.4168 47.9163 38.1567 47.9163 25.5002C47.9163 12.8436 37.6562 2.5835 24.9997 2.5835ZM35.8478 20.7233C36.6614 19.9097 36.6614 18.5906 35.8478 17.777C35.0342 16.9634 33.7151 16.9634 32.9015 17.777L21.8747 28.8039L17.0978 24.027C16.2842 23.2134 14.9651 23.2134 14.1515 24.027C13.3379 24.8406 13.3379 26.1597 14.1515 26.9733L20.4015 33.2233C21.2151 34.0369 22.5342 34.0369 23.3478 33.2233L35.8478 20.7233Z" fill="#01C7B1"/>
</svg>
