<svg width="48" height="46" viewBox="0 0 48 46" fill="none" xmlns="http://www.w3.org/2000/svg">
<path d="M47.5 23C47.5 35.4066 36.999 45.5 24 45.5C11.001 45.5 0.5 35.4066 0.5 23C0.5 10.5934 11.001 0.5 24 0.5C36.999 0.5 47.5 10.5934 47.5 23Z" stroke="#CCA300"/>
<path d="M20.2123 32.8972L20.2144 32.8981C20.7278 33.1213 21.314 33.31 21.9773 33.4602C22.617 33.605 23.2802 33.6782 23.9687 33.6782C24.0223 33.6782 24.0759 33.678 24.1293 33.6775V32.8619C24.0918 32.8622 24.0537 32.8623 24.0151 32.8623C23.6079 32.8623 23.1499 32.8337 22.6454 32.7799L22.6453 32.7799C22.1016 32.7219 21.5213 32.6061 20.9075 32.4386L19.7653 32.1268L20.2638 31.0528C20.6424 30.2373 21.2106 29.5669 21.9538 29.0542L22.5216 29.8774L21.9538 29.0542C22.7311 28.5181 23.6209 28.2587 24.5874 28.2587C24.5997 28.2587 24.612 28.2587 24.6243 28.2588C24.2975 27.7571 24.1293 27.1816 24.1293 26.5537C24.1293 25.6913 24.4455 24.927 25.053 24.3149L20.2123 32.8972ZM20.2123 32.8972C19.4678 32.5756 18.9019 32.2014 18.4859 31.791L18.4859 31.791C18.121 31.4311 18 31.1029 18 30.7806V24.5151C18 24.234 18.0973 23.95 18.3787 23.6375C18.7118 23.2675 19.1597 22.9187 19.7437 22.6013C20.3461 22.2835 21.0199 22.0333 21.7701 21.855L21.7702 21.855C22.5213 21.6764 23.2792 21.5874 24.0454 21.5874C24.8116 21.5874 25.5695 21.6764 26.3207 21.855L26.3207 21.855C27.073 22.0338 27.7485 22.2849 28.3523 22.6037L28.3523 22.6037C28.9546 22.9218 29.4006 23.268 29.7187 23.6289L29.7188 23.6289C29.9928 23.9398 30.0908 24.2262 30.0908 24.5143V25.0513M20.2123 32.8972L30.0908 25.0513M30.0908 25.0513C29.946 24.7863 29.76 24.5395 29.5344 24.3135L30.0908 25.0513ZM21.1708 31.4739C21.5233 31.5701 21.858 31.6464 22.1752 31.7028C22.1408 31.7652 22.1084 31.8292 22.0779 31.8949L21.1708 31.4739ZM21.1708 31.4739C21.3219 31.1485 21.5098 30.8529 21.7344 30.5871C21.6365 30.5631 21.5364 30.5371 21.4342 30.5092L21.1708 31.4739ZM27.2924 23.3811C28.1576 23.3811 28.9229 23.7013 29.5343 24.3135L27.2924 23.3811ZM27.2924 23.3811C26.4274 23.3811 25.6623 23.7009 25.053 24.3148L27.2924 23.3811ZM27.9758 29.6643C27.9709 29.6593 27.9659 29.6544 27.9609 29.6495C28.5523 29.5264 29.0827 29.2361 29.5312 28.7897C29.7583 28.5638 29.9454 28.3166 30.0908 28.051V30.7823C30.0908 30.9381 30.0578 31.0923 29.9823 31.254L29.9823 31.2541C29.9018 31.4264 29.7794 31.6038 29.5996 31.7843C29.5049 31.8794 29.4003 31.9741 29.2851 32.0682C29.1032 31.1612 28.6637 30.3523 27.9758 29.6643L27.9758 29.6643ZM25.645 17.8536L25.645 17.8536C25.2031 18.2913 24.6896 18.5035 24.0454 18.5035C23.3775 18.5035 22.8642 18.2876 22.4374 17.8587C22.008 17.4272 21.7937 16.9133 21.7937 16.2517C21.7937 15.6057 22.0054 15.0915 22.44 14.65L22.4401 14.65C22.8666 14.2168 23.3783 14 24.0438 14C24.6855 14 25.1984 14.213 25.6413 14.6557L25.6413 14.6557C26.0849 15.0991 26.2972 15.6103 26.2972 16.2473C26.2972 16.9082 26.081 17.4217 25.645 17.8536Z" stroke="#CCA300" stroke-width="2"/>
</svg>
