<svg width="344" height="209" viewBox="0 0 344 209" fill="none" xmlns="http://www.w3.org/2000/svg">
<g clip-path="url(#clip0_5736_30219)">
<rect x="0.5" width="343" height="209" rx="20" fill="#FFEA99"/>
<path opacity="0.3" d="M-20.4389 350.949C-18.2438 345.572 -13.3383 341.716 -12.9972 335.681C-12.7607 331.156 -15.3191 327.083 -18.3181 324.512C-21.317 321.941 -24.8034 320.37 -27.8393 317.87C-35.5769 311.475 -39.4932 298.633 -37.0847 287.451C-36.2505 283.601 -34.7814 280.01 -33.8431 276.194C-32.0572 268.891 -32.3739 260.801 -34.7568 253.739C-34.9883 253.078 -35.2031 252.4 -35.4347 251.739L-45.3463 236.29C-60.0391 213.39 -57.0495 179.98 -38.6694 161.674C-38.6526 161.657 -38.6359 161.641 -38.6191 161.624C-38.6023 161.607 -38.5855 161.59 -38.5686 161.574C-20.1886 143.267 6.62647 146.992 21.3193 169.893L31.2309 185.341C31.6977 185.768 32.1645 186.195 32.6481 186.605C37.6384 191.036 43.8992 193.24 50.0265 192.661C53.2212 192.361 56.3556 191.367 59.5535 191.201C68.8384 190.736 78.0469 198.308 81.3323 209.137C82.6209 213.377 83.0831 217.96 84.4356 222.171C85.7881 226.382 88.4272 230.409 92.0078 231.097C96.791 232.029 100.891 226.916 105.601 225.416C111.98 223.385 120.329 232.362 121.163 240.486L87.9372 273.681L87.8364 273.781L21.3556 339.995L21.238 340.112L-12.0678 373.181C-18.2445 370.378 -23.4207 358.276 -20.4389 350.949Z" fill="#0E479D"/>
<path opacity="0.3" d="M-64.1161 232.716C-60.6353 231.162 -56.233 232.092 -53.5408 229.045C-51.5335 226.749 -51.3119 222.98 -51.9638 219.751C-52.6158 216.523 -53.9604 213.535 -54.6629 210.322C-56.4441 202.122 -53.3711 192.788 -47.3664 188.233C-45.2961 186.667 -42.9701 185.631 -40.8541 184.148C-36.8108 181.304 -33.6446 176.744 -32.086 171.47C-31.9449 170.971 -31.7872 170.473 -31.646 169.974L-30.9249 155.554C-29.8559 134.177 -14.3217 117.984 3.7686 119.388C3.78513 119.389 3.80166 119.39 3.8182 119.392C3.83474 119.393 3.85127 119.394 3.86781 119.396C21.9581 120.8 35.7588 139.271 34.6898 160.647L33.9687 175.068C34.059 175.585 34.1493 176.102 34.2562 176.62C35.2783 182.074 37.9482 187.107 41.6934 190.556C43.6452 192.355 45.8501 193.743 47.7484 195.616C53.2528 201.065 55.3886 210.804 52.7877 218.664C51.7705 221.743 50.1386 224.5 49.1701 227.602C48.2015 230.705 48.045 234.498 49.8089 237.068C52.1602 240.506 56.6211 240.264 59.9367 242.346C64.4271 245.166 65.489 255.135 62.6047 260.031L29.8606 257.548L29.7614 257.54L-35.6714 252.461L-35.7871 252.452L-68.5254 249.851C-70.8996 244.547 -68.8537 234.839 -64.1161 232.716Z" fill="#ED1B2E"/>
<path d="M172.911 92.6651C172.639 92.6309 172.363 92.6309 172.091 92.6651C169.193 92.5675 166.447 91.3475 164.433 89.2628C162.418 87.178 161.293 84.3917 161.294 81.4926C161.294 75.3084 166.283 70.2859 172.501 70.2859C175.437 70.2808 178.258 71.4298 180.355 73.4853C182.452 75.5407 183.658 78.3379 183.712 81.2739C183.765 84.2098 182.663 87.0493 180.643 89.1801C178.622 91.311 175.846 92.5626 172.911 92.6651ZM195.529 115.215C189.25 120.986 181.029 124.182 172.501 124.167C163.618 124.167 155.554 120.784 149.473 115.215C149.814 112.003 151.864 108.86 155.52 106.4C164.882 100.182 180.188 100.182 189.482 106.4C193.138 108.86 195.188 112.003 195.529 115.215Z" stroke="#B28F00" stroke-width="4" stroke-linecap="round" stroke-linejoin="round"/>
<path d="M172.499 124.167C191.369 124.167 206.665 108.87 206.665 89.9999C206.665 71.1297 191.369 55.8333 172.499 55.8333C153.628 55.8333 138.332 71.1297 138.332 89.9999C138.332 108.87 153.628 124.167 172.499 124.167Z" stroke="#B28F00" stroke-width="4" stroke-linecap="round" stroke-linejoin="round"/>
<path d="M104.863 155V145.768H101.135V143.72H111.071V145.768H107.343V155H104.863ZM113.467 155.176C112.88 155.176 112.363 155.064 111.915 154.84C111.467 154.616 111.109 154.312 110.843 153.928C110.587 153.544 110.459 153.112 110.459 152.632C110.459 152.067 110.608 151.613 110.907 151.272C111.205 150.931 111.691 150.691 112.363 150.552C113.035 150.403 113.925 150.328 115.035 150.328H115.611V150.056C115.611 149.587 115.504 149.256 115.291 149.064C115.077 148.861 114.715 148.76 114.203 148.76C113.776 148.76 113.323 148.829 112.843 148.968C112.373 149.096 111.904 149.293 111.435 149.56L110.779 147.944C111.056 147.763 111.392 147.597 111.787 147.448C112.192 147.299 112.613 147.187 113.051 147.112C113.488 147.027 113.904 146.984 114.299 146.984C115.515 146.984 116.421 147.261 117.019 147.816C117.616 148.36 117.915 149.208 117.915 150.36V155H115.659V153.816C115.499 154.232 115.227 154.563 114.843 154.808C114.469 155.053 114.011 155.176 113.467 155.176ZM114.011 153.56C114.459 153.56 114.837 153.405 115.147 153.096C115.456 152.787 115.611 152.387 115.611 151.896V151.576H115.051C114.229 151.576 113.648 151.651 113.307 151.8C112.965 151.939 112.795 152.184 112.795 152.536C112.795 152.835 112.896 153.08 113.099 153.272C113.312 153.464 113.616 153.56 114.011 153.56ZM119.717 157.88V147.144H122.085V148.312C122.298 147.907 122.624 147.587 123.061 147.352C123.509 147.107 124.01 146.984 124.565 146.984C125.248 146.984 125.845 147.149 126.357 147.48C126.88 147.811 127.285 148.28 127.573 148.888C127.861 149.496 128.005 150.221 128.005 151.064C128.005 151.907 127.861 152.637 127.573 153.256C127.285 153.864 126.88 154.339 126.357 154.68C125.845 155.011 125.248 155.176 124.565 155.176C124.042 155.176 123.562 155.064 123.125 154.84C122.698 154.616 122.368 154.317 122.133 153.944V157.88H119.717ZM123.845 153.368C124.357 153.368 124.773 153.181 125.093 152.808C125.413 152.435 125.573 151.853 125.573 151.064C125.573 150.285 125.413 149.715 125.093 149.352C124.773 148.979 124.357 148.792 123.845 148.792C123.322 148.792 122.901 148.979 122.581 149.352C122.261 149.715 122.101 150.285 122.101 151.064C122.101 151.853 122.261 152.435 122.581 152.808C122.901 153.181 123.322 153.368 123.845 153.368ZM137.792 155.176C135.584 155.176 134.48 154.104 134.48 151.96V148.952H132.992V147.144H134.48V144.84H136.896V147.144H139.216V148.952H136.896V151.864C136.896 152.312 136.997 152.648 137.2 152.872C137.413 153.096 137.749 153.208 138.208 153.208C138.346 153.208 138.49 153.192 138.64 153.16C138.8 153.128 138.97 153.085 139.152 153.032L139.504 154.792C139.28 154.909 139.013 155 138.704 155.064C138.394 155.139 138.09 155.176 137.792 155.176ZM144.102 155.176C143.26 155.176 142.524 155.011 141.894 154.68C141.276 154.339 140.796 153.864 140.454 153.256C140.113 152.637 139.942 151.907 139.942 151.064C139.942 150.232 140.113 149.512 140.454 148.904C140.796 148.285 141.276 147.811 141.894 147.48C142.524 147.149 143.26 146.984 144.102 146.984C144.945 146.984 145.676 147.149 146.294 147.48C146.924 147.811 147.409 148.285 147.75 148.904C148.102 149.512 148.278 150.232 148.278 151.064C148.278 151.907 148.102 152.637 147.75 153.256C147.409 153.864 146.924 154.339 146.294 154.68C145.676 155.011 144.945 155.176 144.102 155.176ZM144.102 153.368C144.614 153.368 145.03 153.181 145.35 152.808C145.681 152.435 145.846 151.853 145.846 151.064C145.846 150.285 145.681 149.715 145.35 149.352C145.03 148.979 144.614 148.792 144.102 148.792C143.59 148.792 143.174 148.979 142.854 149.352C142.534 149.715 142.374 150.285 142.374 151.064C142.374 151.853 142.534 152.435 142.854 152.808C143.174 153.181 143.59 153.368 144.102 153.368ZM156.857 155.176C156.271 155.176 155.753 155.064 155.305 154.84C154.857 154.616 154.5 154.312 154.233 153.928C153.977 153.544 153.849 153.112 153.849 152.632C153.849 152.067 153.999 151.613 154.297 151.272C154.596 150.931 155.081 150.691 155.753 150.552C156.425 150.403 157.316 150.328 158.425 150.328H159.001V150.056C159.001 149.587 158.895 149.256 158.681 149.064C158.468 148.861 158.105 148.76 157.593 148.76C157.167 148.76 156.713 148.829 156.233 148.968C155.764 149.096 155.295 149.293 154.825 149.56L154.169 147.944C154.447 147.763 154.783 147.597 155.177 147.448C155.583 147.299 156.004 147.187 156.441 147.112C156.879 147.027 157.295 146.984 157.689 146.984C158.905 146.984 159.812 147.261 160.409 147.816C161.007 148.36 161.305 149.208 161.305 150.36V155H159.049V153.816C158.889 154.232 158.617 154.563 158.233 154.808C157.86 155.053 157.401 155.176 156.857 155.176ZM157.401 153.56C157.849 153.56 158.228 153.405 158.537 153.096C158.847 152.787 159.001 152.387 159.001 151.896V151.576H158.441C157.62 151.576 157.039 151.651 156.697 151.8C156.356 151.939 156.185 152.184 156.185 152.536C156.185 152.835 156.287 153.08 156.489 153.272C156.703 153.464 157.007 153.56 157.401 153.56ZM166.164 155.176C165.481 155.176 164.878 155.011 164.356 154.68C163.844 154.339 163.444 153.864 163.156 153.256C162.868 152.637 162.724 151.907 162.724 151.064C162.724 150.221 162.868 149.496 163.156 148.888C163.444 148.28 163.844 147.811 164.356 147.48C164.878 147.149 165.481 146.984 166.164 146.984C166.686 146.984 167.166 147.096 167.604 147.32C168.041 147.544 168.372 147.843 168.596 148.216V143.72H171.012V155H168.644V153.816C168.43 154.232 168.1 154.563 167.652 154.808C167.214 155.053 166.718 155.176 166.164 155.176ZM166.884 153.368C167.396 153.368 167.812 153.181 168.132 152.808C168.462 152.435 168.628 151.853 168.628 151.064C168.628 150.285 168.462 149.715 168.132 149.352C167.812 148.979 167.396 148.792 166.884 148.792C166.372 148.792 165.956 148.979 165.636 149.352C165.316 149.715 165.156 150.285 165.156 151.064C165.156 151.853 165.316 152.435 165.636 152.808C165.956 153.181 166.372 153.368 166.884 153.368ZM175.929 155.176C175.247 155.176 174.644 155.011 174.121 154.68C173.609 154.339 173.209 153.864 172.921 153.256C172.633 152.637 172.489 151.907 172.489 151.064C172.489 150.221 172.633 149.496 172.921 148.888C173.209 148.28 173.609 147.811 174.121 147.48C174.644 147.149 175.247 146.984 175.929 146.984C176.452 146.984 176.932 147.096 177.369 147.32C177.807 147.544 178.137 147.843 178.361 148.216V143.72H180.777V155H178.409V153.816C178.196 154.232 177.865 154.563 177.417 154.808C176.98 155.053 176.484 155.176 175.929 155.176ZM176.649 153.368C177.161 153.368 177.577 153.181 177.897 152.808C178.228 152.435 178.393 151.853 178.393 151.064C178.393 150.285 178.228 149.715 177.897 149.352C177.577 148.979 177.161 148.792 176.649 148.792C176.137 148.792 175.721 148.979 175.401 149.352C175.081 149.715 174.921 150.285 174.921 151.064C174.921 151.853 175.081 152.435 175.401 152.808C175.721 153.181 176.137 153.368 176.649 153.368ZM189.748 155.176C189.161 155.176 188.644 155.064 188.196 154.84C187.748 154.616 187.391 154.312 187.124 153.928C186.868 153.544 186.74 153.112 186.74 152.632C186.74 152.067 186.889 151.613 187.188 151.272C187.487 150.931 187.972 150.691 188.644 150.552C189.316 150.403 190.207 150.328 191.316 150.328H191.892V150.056C191.892 149.587 191.785 149.256 191.572 149.064C191.359 148.861 190.996 148.76 190.484 148.76C190.057 148.76 189.604 148.829 189.124 148.968C188.655 149.096 188.185 149.293 187.716 149.56L187.06 147.944C187.337 147.763 187.673 147.597 188.068 147.448C188.473 147.299 188.895 147.187 189.332 147.112C189.769 147.027 190.185 146.984 190.58 146.984C191.796 146.984 192.703 147.261 193.3 147.816C193.897 148.36 194.196 149.208 194.196 150.36V155H191.94V153.816C191.78 154.232 191.508 154.563 191.124 154.808C190.751 155.053 190.292 155.176 189.748 155.176ZM190.292 153.56C190.74 153.56 191.119 153.405 191.428 153.096C191.737 152.787 191.892 152.387 191.892 151.896V151.576H191.332C190.511 151.576 189.929 151.651 189.588 151.8C189.247 151.939 189.076 152.184 189.076 152.536C189.076 152.835 189.177 153.08 189.38 153.272C189.593 153.464 189.897 153.56 190.292 153.56ZM200.451 157.88V147.144H202.819V148.312C203.033 147.907 203.358 147.587 203.795 147.352C204.243 147.107 204.745 146.984 205.299 146.984C205.982 146.984 206.579 147.149 207.091 147.48C207.614 147.811 208.019 148.28 208.307 148.888C208.595 149.496 208.739 150.221 208.739 151.064C208.739 151.907 208.595 152.637 208.307 153.256C208.019 153.864 207.614 154.339 207.091 154.68C206.579 155.011 205.982 155.176 205.299 155.176C204.777 155.176 204.297 155.064 203.859 154.84C203.433 154.616 203.102 154.317 202.867 153.944V157.88H200.451ZM204.579 153.368C205.091 153.368 205.507 153.181 205.827 152.808C206.147 152.435 206.307 151.853 206.307 151.064C206.307 150.285 206.147 149.715 205.827 149.352C205.507 148.979 205.091 148.792 204.579 148.792C204.057 148.792 203.635 148.979 203.315 149.352C202.995 149.715 202.835 150.285 202.835 151.064C202.835 151.853 202.995 152.435 203.315 152.808C203.635 153.181 204.057 153.368 204.579 153.368ZM210.217 155V143.72H212.633V148.216C212.91 147.811 213.268 147.507 213.705 147.304C214.142 147.091 214.628 146.984 215.161 146.984C217.006 146.984 217.929 148.083 217.929 150.28V155H215.513V150.392C215.513 149.848 215.412 149.459 215.209 149.224C215.006 148.979 214.708 148.856 214.313 148.856C213.801 148.856 213.39 149.016 213.081 149.336C212.782 149.656 212.633 150.083 212.633 150.616V155H210.217ZM223.509 155.176C222.666 155.176 221.93 155.011 221.301 154.68C220.682 154.339 220.202 153.864 219.861 153.256C219.519 152.637 219.349 151.907 219.349 151.064C219.349 150.232 219.519 149.512 219.861 148.904C220.202 148.285 220.682 147.811 221.301 147.48C221.93 147.149 222.666 146.984 223.509 146.984C224.351 146.984 225.082 147.149 225.701 147.48C226.33 147.811 226.815 148.285 227.157 148.904C227.509 149.512 227.685 150.232 227.685 151.064C227.685 151.907 227.509 152.637 227.157 153.256C226.815 153.864 226.33 154.339 225.701 154.68C225.082 155.011 224.351 155.176 223.509 155.176ZM223.509 153.368C224.021 153.368 224.437 153.181 224.757 152.808C225.087 152.435 225.253 151.853 225.253 151.064C225.253 150.285 225.087 149.715 224.757 149.352C224.437 148.979 224.021 148.792 223.509 148.792C222.997 148.792 222.581 148.979 222.261 149.352C221.941 149.715 221.781 150.285 221.781 151.064C221.781 151.853 221.941 152.435 222.261 152.808C222.581 153.181 222.997 153.368 223.509 153.368ZM232.932 155.176C230.724 155.176 229.62 154.104 229.62 151.96V148.952H228.132V147.144H229.62V144.84H232.036V147.144H234.356V148.952H232.036V151.864C232.036 152.312 232.138 152.648 232.34 152.872C232.554 153.096 232.89 153.208 233.348 153.208C233.487 153.208 233.631 153.192 233.78 153.16C233.94 153.128 234.111 153.085 234.292 153.032L234.644 154.792C234.42 154.909 234.154 155 233.844 155.064C233.535 155.139 233.231 155.176 232.932 155.176ZM239.243 155.176C238.4 155.176 237.664 155.011 237.035 154.68C236.416 154.339 235.936 153.864 235.595 153.256C235.254 152.637 235.083 151.907 235.083 151.064C235.083 150.232 235.254 149.512 235.595 148.904C235.936 148.285 236.416 147.811 237.035 147.48C237.664 147.149 238.4 146.984 239.243 146.984C240.086 146.984 240.816 147.149 241.435 147.48C242.064 147.811 242.55 148.285 242.891 148.904C243.243 149.512 243.419 150.232 243.419 151.064C243.419 151.907 243.243 152.637 242.891 153.256C242.55 153.864 242.064 154.339 241.435 154.68C240.816 155.011 240.086 155.176 239.243 155.176ZM239.243 153.368C239.755 153.368 240.171 153.181 240.491 152.808C240.822 152.435 240.987 151.853 240.987 151.064C240.987 150.285 240.822 149.715 240.491 149.352C240.171 148.979 239.755 148.792 239.243 148.792C238.731 148.792 238.315 148.979 237.995 149.352C237.675 149.715 237.515 150.285 237.515 151.064C237.515 151.853 237.675 152.435 237.995 152.808C238.315 153.181 238.731 153.368 239.243 153.368Z" fill="#B28F00"/>
</g>
<defs>
<clipPath id="clip0_5736_30219">
<rect x="0.5" width="343" height="209" rx="20" fill="white"/>
</clipPath>
</defs>
</svg>
