<svg width="28" height="27" viewBox="0 0 28 27" fill="none" xmlns="http://www.w3.org/2000/svg">
<path d="M24.4151 15.2504H19.6684C19.5809 15.2504 19.4944 15.2334 19.4139 15.2005C19.3333 15.1675 19.2605 15.1193 19.1996 15.0585C19.1386 14.9978 19.0909 14.9258 19.0593 14.8469C19.0276 14.7679 19.0126 14.6836 19.0151 14.599L19.0826 12.3529C19.0874 12.218 19.0415 12.086 18.9534 11.9814C18.8653 11.8768 18.741 11.8067 18.6036 11.7842L10.1321 10.3186C10.1722 10.43 10.2414 10.5294 10.333 10.6071C10.4246 10.6847 10.5355 10.738 10.6547 10.7616C11.3868 10.9418 14.2928 12.0635 14.622 12.1909C14.7432 12.2379 14.8471 12.319 14.9203 12.4238C14.9935 12.5285 15.0327 12.6521 15.0326 12.7786V14.6176C15.0326 14.7854 14.9638 14.9463 14.8413 15.065C14.7188 15.1837 14.5527 15.2504 14.3794 15.2504H3.45791C3.28467 15.2504 3.11852 15.1837 2.99601 15.065C2.87351 14.9463 2.80469 14.7854 2.80469 14.6176V2.72363C2.80469 2.5558 2.87351 2.39484 2.99601 2.27617C3.11852 2.15749 3.28467 2.09082 3.45791 2.09082H24.4151C24.5884 2.09082 24.7545 2.15749 24.877 2.27617C24.9995 2.39484 25.0684 2.5558 25.0684 2.72363V14.6176C25.0684 14.7854 24.9995 14.9463 24.877 15.065C24.7545 15.1837 24.5884 15.2504 24.4151 15.2504ZM20.3425 13.9847H23.7619V3.35645H4.11114V13.9847H13.7279V13.2081C12.6767 12.8056 10.8128 12.1061 10.3346 11.9884C9.90387 11.8818 9.51882 11.6462 9.23435 11.3151C8.94989 10.9841 8.78051 10.5746 8.75035 10.1448C8.72887 9.98619 8.74665 9.82487 8.80223 9.6742C8.85781 9.52353 8.94959 9.38783 9.06999 9.2783C9.19184 9.16696 9.3388 9.08467 9.49921 9.03795C9.65962 8.99123 9.82906 8.98137 9.99409 9.00915L18.8375 10.5384C19.2815 10.6173 19.682 10.8471 19.9667 11.1866C20.2514 11.5261 20.4016 11.9528 20.3904 12.3901L20.3425 13.9847Z" fill="white"/>
<path d="M17.1496 10.1895C16.6195 10.1896 16.1012 10.0374 15.6604 9.75211C15.2197 9.46685 14.8761 9.06136 14.6732 8.58692C14.4703 8.11248 14.4172 7.59041 14.5207 7.08674C14.6241 6.58307 14.8794 6.12043 15.2543 5.75734C15.6291 5.39424 16.1067 5.147 16.6267 5.04689C17.1466 4.94677 17.6855 4.99828 18.1752 5.1949C18.6649 5.39152 19.0834 5.72441 19.3778 6.15148C19.6722 6.57854 19.8293 7.0806 19.8291 7.59413C19.8281 8.28223 19.5454 8.94186 19.0431 9.42838C18.5408 9.9149 17.8599 10.1886 17.1496 10.1895ZM17.1496 6.26312C16.8779 6.26303 16.6123 6.34099 16.3864 6.48713C16.1605 6.63327 15.9844 6.84102 15.8803 7.08413C15.7763 7.32723 15.749 7.59476 15.8019 7.85288C15.8548 8.11101 15.9856 8.34814 16.1776 8.53429C16.3696 8.72043 16.6143 8.84723 16.8807 8.89866C17.1472 8.95008 17.4233 8.92381 17.6744 8.82318C17.9254 8.72255 18.1399 8.55207 18.2909 8.3333C18.4419 8.11453 18.5226 7.8573 18.5226 7.59413C18.5224 7.24134 18.3777 6.90305 18.1203 6.65351C17.8629 6.40397 17.5137 6.26357 17.1496 6.26312ZM6.63873 21.8113C6.10874 21.8109 5.59077 21.6583 5.15032 21.3727C4.70987 21.0871 4.36671 20.6815 4.16423 20.207C3.96175 19.7325 3.90904 19.2105 4.01276 18.707C4.11649 18.2035 4.37199 17.7411 4.74696 17.3783C5.12193 17.0154 5.59954 16.7684 6.1194 16.6685C6.63927 16.5686 7.17803 16.6203 7.66759 16.817C8.15715 17.0136 8.57551 17.3465 8.86979 17.7736C9.16407 18.2006 9.32105 18.7025 9.32087 19.2159C9.31984 19.9045 9.03682 20.5645 8.53396 21.0511C8.0311 21.5377 7.34948 21.8111 6.63873 21.8113ZM6.63873 17.8849C6.36718 17.8853 6.10186 17.9637 5.87628 18.1102C5.65071 18.2566 5.475 18.4645 5.37136 18.7077C5.26772 18.9508 5.24081 19.2183 5.29402 19.4762C5.34722 19.7342 5.47817 19.9711 5.6703 20.157C5.86243 20.3429 6.10713 20.4694 6.37348 20.5207C6.63983 20.5719 6.91587 20.5455 7.16673 20.4447C7.41759 20.344 7.632 20.1736 7.78288 19.9549C7.93376 19.7361 8.01434 19.479 8.01442 19.2159C8.01338 18.8632 7.86796 18.5253 7.61006 18.2763C7.35215 18.0274 7.00283 17.8877 6.63873 17.8879V17.8849Z" fill="white"/>
<path d="M9.4769 24.9084C9.30366 24.9084 9.13751 24.8418 9.015 24.7231C8.8925 24.6044 8.82368 24.4435 8.82368 24.2756V24.1356C8.82368 23.7439 8.66309 23.3684 8.37725 23.0915C8.09141 22.8146 7.70372 22.659 7.29948 22.659H5.97518C5.57094 22.659 5.18325 22.8146 4.89741 23.0915C4.61157 23.3684 4.45098 23.7439 4.45098 24.1356V24.2756C4.45098 24.4435 4.38216 24.6044 4.25966 24.7231C4.13715 24.8418 3.971 24.9084 3.79776 24.9084C3.62451 24.9084 3.45836 24.8418 3.33586 24.7231C3.21335 24.6044 3.14453 24.4435 3.14453 24.2756V24.1356C3.14545 23.4086 3.44398 22.7116 3.97463 22.1975C4.50528 21.6835 5.22473 21.3943 5.97518 21.3934H7.29948C8.04993 21.3943 8.76938 21.6835 9.30003 22.1975C9.83068 22.7116 10.1292 23.4086 10.1301 24.1356V24.2756C10.1301 24.4435 10.0613 24.6044 9.9388 24.7231C9.8163 24.8418 9.65015 24.9084 9.4769 24.9084ZM13.9354 21.8106C13.4053 21.8107 12.8871 21.6585 12.4464 21.3733C12.0056 21.088 11.662 20.6826 11.4591 20.2082C11.2562 19.7338 11.2031 19.2118 11.3064 18.7081C11.4098 18.2045 11.665 17.7419 12.0398 17.3787C12.4146 17.0156 12.8921 16.7683 13.412 16.6681C13.9318 16.5679 14.4707 16.6193 14.9604 16.8158C15.4502 17.0122 15.8687 17.345 16.1632 17.772C16.4577 18.1989 16.6149 18.7009 16.6149 19.2144C16.6141 19.9026 16.3316 20.5625 15.8292 21.0492C15.3269 21.5359 14.6458 21.8097 13.9354 21.8106ZM13.9354 17.8872C13.6637 17.8871 13.3981 17.9651 13.1721 18.1112C12.9462 18.2574 12.7701 18.4652 12.6661 18.7084C12.5621 18.9515 12.5348 19.2191 12.5878 19.4772C12.6408 19.7354 12.7716 19.9725 12.9637 20.1586C13.1558 20.3447 13.4006 20.4715 13.6671 20.5228C13.9336 20.5741 14.2098 20.5477 14.4608 20.447C14.7118 20.3462 14.9263 20.1756 15.0772 19.9567C15.2281 19.7379 15.3086 19.4805 15.3085 19.2173C15.308 18.8647 15.1632 18.5266 14.9058 18.2773C14.6484 18.0279 14.2994 17.8876 13.9354 17.8872Z" fill="white"/>
<path d="M16.7742 24.9084C16.601 24.9084 16.4348 24.8418 16.3123 24.7231C16.1898 24.6044 16.121 24.4435 16.121 24.2756V24.1356C16.121 23.7439 15.9604 23.3684 15.6746 23.0915C15.3887 22.8146 15.001 22.659 14.5968 22.659H13.2721C12.8678 22.659 12.4801 22.8146 12.1943 23.0915C11.9084 23.3684 11.7479 23.7439 11.7479 24.1356V24.2756C11.7479 24.4435 11.679 24.6044 11.5565 24.7231C11.434 24.8418 11.2679 24.9084 11.0946 24.9084C10.9214 24.9084 10.7552 24.8418 10.6327 24.7231C10.5102 24.6044 10.4414 24.4435 10.4414 24.2756V24.1356C10.4423 23.4086 10.7409 22.7116 11.2715 22.1975C11.8022 21.6835 12.5216 21.3943 13.2721 21.3934H14.5968C15.3472 21.3943 16.0667 21.6835 16.5973 22.1975C17.128 22.7116 17.4265 23.4086 17.4274 24.1356V24.2756C17.4274 24.4435 17.3586 24.6044 17.2361 24.7231C17.1136 24.8418 16.9475 24.9084 16.7742 24.9084ZM21.2327 21.8106C20.7026 21.8107 20.1844 21.6585 19.7437 21.3733C19.3029 21.088 18.9593 20.6826 18.7564 20.2082C18.5535 19.7338 18.5004 19.2118 18.6037 18.7081C18.7071 18.2045 18.9623 17.7419 19.3371 17.3787C19.7119 17.0156 20.1894 16.7683 20.7093 16.6681C21.2291 16.5679 21.768 16.6193 22.2577 16.8158C22.7475 17.0122 23.166 17.345 23.4605 17.772C23.755 18.1989 23.9122 18.7009 23.9122 19.2144C23.9114 19.9026 23.6289 20.5625 23.1265 21.0492C22.6242 21.5359 21.9431 21.8097 21.2327 21.8106ZM21.2327 17.8842C20.961 17.8841 20.6954 17.9621 20.4694 18.1083C20.2435 18.2545 20.0674 18.4623 19.9634 18.7054C19.8594 18.9486 19.8321 19.2161 19.8851 19.4743C19.9381 19.7324 20.0689 19.9696 20.261 20.1557C20.4532 20.3418 20.6979 20.4685 20.9644 20.5199C21.2309 20.5712 21.5071 20.5448 21.7581 20.444C22.0091 20.3433 22.2236 20.1727 22.3745 19.9538C22.5254 19.7349 22.6059 19.4776 22.6058 19.2144C22.6044 18.8623 22.4592 18.525 22.2019 18.2763C21.9446 18.0276 21.5962 17.8877 21.2327 17.8872V17.8842Z" fill="white"/>
<path d="M24.0746 24.9086C23.9013 24.9086 23.7352 24.8419 23.6127 24.7233C23.4902 24.6046 23.4213 24.4436 23.4213 24.2758V24.1357C23.4213 23.7441 23.2607 23.3686 22.9749 23.0917C22.6891 22.8147 22.3014 22.6592 21.8971 22.6592H20.5728C20.1686 22.6592 19.7809 22.8147 19.4951 23.0917C19.2092 23.3686 19.0486 23.7441 19.0486 24.1357V24.2758C19.0486 24.4436 18.9798 24.6046 18.8573 24.7233C18.7348 24.8419 18.5687 24.9086 18.3954 24.9086C18.2222 24.9086 18.056 24.8419 17.9335 24.7233C17.811 24.6046 17.7422 24.4436 17.7422 24.2758V24.1357C17.7431 23.4087 18.0416 22.7118 18.5723 22.1977C19.1029 21.6836 19.8224 21.3944 20.5728 21.3936H21.8971C22.6476 21.3944 23.367 21.6836 23.8977 22.1977C24.4283 22.7118 24.7269 23.4087 24.7278 24.1357V24.2758C24.7278 24.4436 24.659 24.6046 24.5365 24.7233C24.414 24.8419 24.2478 24.9086 24.0746 24.9086Z" fill="white"/>
</svg>
