<svg width="120" height="120" viewBox="0 0 120 120" fill="none" xmlns="http://www.w3.org/2000/svg">
<rect width="120" height="120" rx="60" fill="#F2F2F2"/>
<g clip-path="url(#clip0_5434_20289)">
<g clip-path="url(#clip1_5434_20289)">
<path d="M55.7867 83.6677C55.7623 83.7661 55.75 83.8671 55.75 83.9685V83.9692V83.97V83.9707V83.9715V83.9722V83.9729V83.9737V83.9744V83.9751V83.9759V83.9766V83.9773V83.978V83.9787V83.9795V83.9802V83.9809V83.9816V83.9823V83.983V83.9837V83.9844V83.9851V83.9858V83.9864V83.9871V83.9878V83.9885V83.9891V83.9898V83.9905V83.9912V83.9918V83.9925V83.9931V83.9938V83.9944V83.9951V83.9957V83.9964V83.997V83.9977V83.9983V83.9989V83.9996V84.0002V84.0008V84.0014V84.002V84.0027V84.0033V84.0039V84.0045V84.0051V84.0057V84.0063V84.0069V84.0075V84.0081V84.0087V84.0093V84.0099V84.0104V84.011V84.0116V84.0122V84.0127V84.0133V84.0139V84.0144V84.015V84.0156V84.0161V84.0167V84.0172V84.0178V84.0183V84.0189V84.0194V84.0199V84.0205V84.021V84.0215V84.0221V84.0226V84.0231V84.0237V84.0242V84.0247V84.0252V84.0257V84.0262V84.0267V84.0272V84.0277V84.0282V84.0287V84.0292V84.0297V84.0302V84.0307V84.0312V84.0317V84.0322V84.0326V84.0331V84.0336V84.0341V84.0345V84.035V84.0355V84.0359V84.0364V84.0368V84.0373V84.0377V84.0382V84.0386V84.0391V84.0395V84.04V84.0404V84.0408V84.0413V84.0417V84.0421V84.0426V84.043V84.0434V84.0438V84.0443V84.0447V84.0451V84.0455V84.0459V84.0463V84.0467V84.0471V84.0475V84.0479V84.0483V84.0487V84.0491V84.0495V84.0499V84.0503V84.0507V84.0511V84.0514V84.0518V84.0522V84.0526V84.0529V84.0533V84.0537V84.0541V84.0544V84.0548V84.0551V84.0555V84.0559V84.0562V84.0566V84.0569V84.0573V84.0576V84.0579V84.0583V84.0586V84.059V84.0593V84.0596V84.06V84.0603V84.0606V84.061V84.0613V84.0616V84.0619V84.0622V84.0626V84.0629V84.0632V84.0635V84.0638V84.0641V84.0644V84.0647V84.065V84.0653V84.0656V84.0659V84.0662V84.0665V84.0668V84.0671V84.0674V84.0677V84.0679V84.0682V84.0685V84.0688V84.0691V84.0693V84.0696V84.0699V84.0701V84.0704V84.0707V84.0709V84.0712V84.0715V84.0717V84.072V84.0722V84.0725V84.0727V84.073V84.0732V84.0735V84.0737V84.074V84.0742V84.0745V84.0747V84.0749V84.0752V84.0754V84.0756V84.0759V84.0761V84.0763V84.0765V84.0768V84.077V84.0772V84.0774V84.0776V84.0779V84.0781V84.0783V84.0785V84.0787V84.0789V84.0791V84.0793V84.0795V84.0797V84.0799V84.0801V84.0803V84.0805V84.0807V84.0809V84.0811V84.0813V84.0815V84.0817V84.0818V84.082V84.0822V84.0824V84.0826V84.0827V84.0829V84.0831V84.0833V84.0834V84.0836V84.0838V84.084V84.0841V84.0843V84.0844V84.0846V84.0848V84.0849V84.0851V84.0852V84.0854V84.0856V84.0857V84.0859V84.086V84.0862V84.0863V84.0865V84.0866V84.0867V84.0869V84.087V84.0872V84.0873V84.0874V84.0876V84.0877V84.0879V84.088V84.0881V84.0882V84.0884V84.0885V84.0886V84.0888V84.0889V84.089V84.0891V84.0892V84.0894V84.0895V84.0896V84.0897V84.0898V84.0899V84.0901V84.0902V84.0903V84.0904V84.0905V84.0906V84.0907V84.0908V84.0909V84.091V84.0911V84.0912V84.0913V84.0914V84.0915V84.0916V84.0917V84.0918V84.0919V84.092V84.0921V84.0922V84.0923V84.0923V84.0924V84.0925V84.0926V84.0927V84.0928V84.0928V84.0929V84.093V84.0931V84.0932V84.0932V84.0933V84.0934V84.0935V84.0935V84.0936V84.0937V84.0938V84.0938V84.0939V84.094V84.094V84.0941V84.0942V84.0942V84.0943V84.0943V84.0944V84.0945V84.0945V84.0946V84.0946V84.0947V84.0948V84.0948V84.0949V84.0949V84.095V84.095V84.0951V84.0951V84.0952V84.0952V84.0953V84.0953V84.0954V84.0954V84.0955V84.0955V84.0956V84.0956V84.0957V84.0957V84.0957V84.0958V84.0958V84.0959V84.0959V84.0959V84.096V84.096V84.096V84.0961V84.0961V84.0962V84.0962V84.0962V84.0963V84.0963V84.0963V84.0963V84.0964V84.0964V84.0964V84.0965V84.0965V84.0965V84.0965V84.0966V84.0966V84.0966V84.0967V84.0967V84.0967V84.0967V84.0967V84.0968V84.0968V84.0968V84.0968V84.0968V84.0969V84.0969V84.0969V84.0969V84.0969V84.097V84.097V84.097V84.097V84.097V84.097V84.0971V84.0971V84.0971V84.0971V84.0972V84.0972V84.0972V84.0972V84.0972V84.0973V84.0973V84.0973V84.0973V84.0973V84.0973V84.0974V84.0974V84.0974C55.75 85.2935 56.6832 86.25 57.895 86.25H83.9772C85.22 86.25 85.9889 85.3032 86.2133 84.3982C86.2377 84.2998 86.25 84.1988 86.25 84.0974C86.25 83.2993 86.0911 82.6587 85.9653 82.1515L85.9576 82.1204C85.4805 80.1958 84.0357 78.5165 82.0116 77.9932C81.7695 77.9201 81.5275 77.8481 81.2862 77.7764C80.2355 77.4641 79.1982 77.1557 78.2317 76.7697C78.1685 76.7367 78.0731 76.6857 77.9547 76.6225C77.7896 76.5342 77.5797 76.422 77.35 76.3015C77.1476 76.1953 76.9375 76.0871 76.7652 76.0036C76.6948 75.9695 76.6203 75.9344 76.5495 75.9036C76.5483 75.9027 76.547 75.9018 76.5458 75.9009C76.4808 75.8532 76.4144 75.8085 76.3706 75.7791L76.3641 75.7748C76.3137 75.7409 76.2877 75.7232 76.2684 75.7091C76.2484 75.6902 76.2277 75.6721 76.2065 75.6546C75.285 74.8941 74.9874 73.615 75.495 72.435C75.7407 72.0423 76.0058 71.6479 76.2963 71.2158C76.3516 71.1335 76.4078 71.0499 76.465 70.9646C76.7505 70.5389 77.0533 70.0827 77.3611 69.5864C77.79 69.4035 78.1115 69.083 78.3273 68.7347C78.6006 68.2937 78.7295 67.7817 78.8031 67.3663C78.8814 67.0952 78.9201 66.82 78.9452 66.6412C78.9469 66.6296 78.9484 66.6183 78.95 66.6075C78.9859 66.3538 79.005 66.2464 79.027 66.1797C79.0474 66.1182 79.0629 66.0552 79.0735 65.9913C79.1405 65.5854 79.2217 64.9518 79.0383 64.3351C78.9095 63.9021 78.6681 63.5295 78.3231 63.2457V63.2434V63.2388V63.2343V63.2298V63.2252V63.2207V63.2162V63.2116V63.2071V63.2026V63.198V63.1935V63.189V63.1844V63.1799V63.1754V63.1708V63.1663V63.1618V63.1572V63.1527V63.1482V63.1436V63.1391V63.1346V63.13V63.1255V63.121V63.1164V63.1119V63.1074V63.1028V63.0983V63.0938V63.0892V63.0847V63.0802V63.0756V63.0711V63.0666V63.062V63.0575V63.053V63.0484V63.0439V63.0394V63.0348V63.0303V63.0258V63.0212V63.0167V63.0122V63.0076V63.0031V62.9986V62.994V62.9895V62.985V62.9804V62.9759V62.9714V62.9668V62.9623V62.9578V62.9532V62.9487V62.9442V62.9396V62.9351V62.9306V62.926V62.9215V62.917V62.9124V62.9079V62.9034V62.8988V62.8943V62.8898V62.8852V62.8807V62.8762V62.8716V62.8671V62.8626V62.858V62.8535V62.849V62.8444V62.8399V62.8354V62.8308V62.8263V62.8218V62.8172V62.8127V62.8082V62.8036V62.7991V62.7946V62.79V62.7855V62.781V62.7765V62.7719V62.7674V62.7629V62.7583V62.7538V62.7493V62.7447V62.7402V62.7357V62.7311V62.7266V62.7221V62.7175V62.713V62.7085V62.7039V62.6994V62.6949V62.6903V62.6858V62.6813V62.6767V62.6722V62.6677V62.6631V62.6586V62.6541V62.6495V62.645V62.6405V62.6359V62.6314V62.6269V62.6223V62.6178V62.6133V62.6087V62.6042V62.5997V62.5951V62.5906V62.5861V62.5815V62.577V62.5725V62.5679V62.5634V62.5589V62.5543V62.5498V62.5453V62.5407V62.5362V62.5317V62.5271V62.5226V62.5181V62.5135V62.509V62.5045V62.4999V62.4954V62.4909V62.4863V62.4818V62.4773V62.4727V62.4682V62.4637V62.4591V62.4546V62.4501V62.4455V62.441V62.4365V62.4319V62.4274V62.4229V62.4183V62.4138V62.4093V62.4047V62.4002V62.3957V62.3911V62.3866V62.3821V62.3775V62.373V62.3685V62.3639V62.3594V62.3549V62.3503V62.3458V62.3413V62.3367V62.3322V62.3277V62.3231V62.3186V62.3141V62.3095V62.305V62.3005V62.2959V62.2914V62.2869V62.2823V62.2778V62.2733V62.2687V62.2642V62.2597V62.2551V62.2506V62.2461V62.2415V62.237V62.2325V62.2279V62.2234V62.2189V62.2143V62.2098V62.2053V62.2007V62.1962V62.1917V62.1871V62.1826V62.1781V62.1735V62.169V62.1645V62.1599V62.1554V62.1509V62.1463V62.1418V62.1373V62.1327V62.1282V62.1237V62.1191V62.1146V62.1101V62.1055V62.101V62.0965V62.0919V62.0874V62.0829V62.0783V62.0738V62.0693V62.0647V62.0602V62.0557V62.0511V62.0466V62.0421V62.0375V62.033V62.0285V62.0239V62.0194V62.0149V62.0103V62.0058V62.0013V61.9967V61.9922V61.9877V61.9831V61.9786V61.9741V61.9695V61.965V61.9605V61.9559V61.9514V61.9469V61.9423V61.9378V61.9333V61.9287V61.9242V61.9197V61.9151V61.9106V61.9061V61.9016V61.897V61.8925V61.888V61.8834V61.8789V61.8744V61.8698V61.8653V61.8608V61.8562V61.8517V61.8472V61.8426V61.8381V61.8336V61.829V61.8245V61.82V61.8154V61.8109V61.8064V61.8018V61.7973V61.7928V61.7882V61.7837V61.7792V61.7746V61.7701V61.7656V61.761V61.7565V61.752V61.7474V61.7429V61.7384V61.7338V61.7293V61.7248V61.7202V61.7157V61.7112V61.7066V61.7021V61.6976V61.693V61.6885V61.684V61.6794V61.6749V61.6704V61.6658V61.6613C78.3231 60.1575 77.6717 58.6845 76.6821 57.6865C76.6405 57.6445 76.5958 57.6054 76.5486 57.5697C74.7654 56.221 72.5605 55.6321 70.3816 55.7695C69.6315 55.775 68.9041 55.9218 68.3076 56.0422C68.2915 56.0455 68.2756 56.0487 68.2597 56.0519L68.2335 56.0575C65.4001 56.6925 63.4736 59.0765 63.4223 61.9311C63.3523 62.3577 63.3589 62.756 63.3747 63.0903C63.3799 63.1998 63.3856 63.2989 63.3912 63.392C63.1501 63.5831 62.9376 63.8267 62.7842 64.1362C62.494 64.7215 62.5187 65.3332 62.6606 65.8616C62.6737 66.0799 62.7039 66.2926 62.7258 66.4463C62.7274 66.4574 62.7289 66.4681 62.7304 66.4786C62.7659 66.7294 62.782 66.8606 62.782 66.948C62.782 67.0296 62.79 67.111 62.8058 67.1911L62.8133 67.229C62.8707 67.5184 62.9269 67.8018 62.9921 68.0347C63.0609 68.2802 63.1747 68.6078 63.42 68.9047C63.6851 69.2255 64.0035 69.3924 64.2695 69.4939C64.3563 69.527 64.449 69.5571 64.543 69.5849C65.0112 70.2707 65.4066 70.8806 65.8104 71.5037C66.0542 71.8798 66.3012 72.2607 66.5691 72.666C66.5804 72.6831 66.5921 72.7 66.6042 72.7165C66.6115 72.7355 66.6202 72.758 66.6297 72.7821C66.6413 72.8113 66.6542 72.843 66.6688 72.877C66.8849 74.1339 66.3409 75.3979 65.4014 76.0044C65.1346 76.1079 64.7957 76.2667 64.5296 76.3945C64.2497 76.5289 63.9818 76.6627 63.8211 76.7435C63.1956 76.935 62.5467 77.1531 61.9175 77.3647L61.9076 77.368C61.242 77.5918 60.5981 77.8081 59.988 77.9933C58.045 78.4957 56.3909 80.1202 56.0307 82.1687C55.9564 82.483 55.919 82.7853 55.8903 83.0173L55.8873 83.041C55.854 83.3102 55.8297 83.4942 55.7867 83.6677ZM66.5765 72.644C66.576 72.6427 66.5757 72.6421 66.5757 72.6421L66.5765 72.644Z" stroke="#9CABB8" stroke-width="2.5" stroke-linecap="round" stroke-linejoin="round"/>
<path d="M72.5523 55.5005V37.9316C72.5523 35.7225 70.7615 33.9316 68.5523 33.9316H37.9316C35.7225 33.9316 33.9316 35.7225 33.9316 37.9316V80.1385C33.9316 82.3477 35.7225 84.1385 37.9316 84.1385H56.5005" stroke="#9CABB8" stroke-width="2.5"/>
</g>
</g>
<defs>
<clipPath id="clip0_5434_20289">
<rect width="56" height="56" fill="white" transform="translate(32 32)"/>
</clipPath>
<clipPath id="clip1_5434_20289">
<rect width="56" height="56" fill="white" transform="translate(32 32)"/>
</clipPath>
</defs>
</svg>
