<svg width="16" height="16" viewBox="0 0 16 16" fill="none" xmlns="http://www.w3.org/2000/svg">
<g clip-path="url(#clip0_7854_27320)">
<path d="M6.75192 14.1927C6.73023 14.2858 6.71932 14.374 6.71169 14.4357L6.71068 14.4439C6.70137 14.519 6.6957 14.5601 6.68656 14.5969C6.67681 14.6363 6.67188 14.6767 6.67188 14.7172V14.7174V14.7176V14.7178V14.718V14.7183V14.7185V14.7187V14.7189V14.7191V14.7193V14.7195V14.7197V14.7198V14.72V14.7202V14.7204V14.7206V14.7208V14.721V14.7212V14.7214V14.7216V14.7218V14.722V14.7222V14.7223V14.7225V14.7227V14.7229V14.7231V14.7233V14.7234V14.7236V14.7238V14.724V14.7242V14.7243V14.7245V14.7247V14.7249V14.725V14.7252V14.7254V14.7256V14.7257V14.7259V14.7261V14.7263V14.7264V14.7266V14.7268V14.7269V14.7271V14.7273V14.7274V14.7276V14.7278V14.7279V14.7281V14.7282V14.7284V14.7286V14.7287V14.7289V14.729V14.7292V14.7294V14.7295V14.7297V14.7298V14.73V14.7301V14.7303V14.7304V14.7306V14.7307V14.7309V14.731V14.7312V14.7313V14.7315V14.7316V14.7318V14.7319V14.7321V14.7322V14.7323V14.7325V14.7326V14.7328V14.7329V14.733V14.7332V14.7333V14.7335V14.7336V14.7337V14.7339V14.734V14.7341V14.7343V14.7344V14.7345V14.7347V14.7348V14.7349V14.7351V14.7352V14.7353V14.7354V14.7356V14.7357V14.7358V14.7359V14.7361V14.7362V14.7363V14.7364V14.7366V14.7367V14.7368V14.7369V14.737V14.7372V14.7373V14.7374V14.7375V14.7376V14.7378V14.7379V14.738V14.7381V14.7382V14.7383V14.7384V14.7386V14.7387V14.7388V14.7389V14.739V14.7391V14.7392V14.7393V14.7394V14.7395V14.7396V14.7397V14.7398V14.74V14.7401V14.7402V14.7403V14.7404V14.7405V14.7406V14.7407V14.7408V14.7409V14.741V14.7411V14.7412V14.7413V14.7414V14.7414V14.7415V14.7416V14.7417V14.7418V14.7419V14.742V14.7421V14.7422V14.7423V14.7424V14.7425V14.7426V14.7426V14.7427V14.7428V14.7429V14.743V14.7431V14.7432V14.7433V14.7433V14.7434V14.7435V14.7436V14.7437V14.7438V14.7438V14.7439V14.744V14.7441V14.7442V14.7442V14.7443V14.7444V14.7445V14.7445V14.7446V14.7447V14.7448V14.7448V14.7449V14.745V14.7451V14.7451V14.7452V14.7453V14.7454V14.7454V14.7455V14.7456V14.7456V14.7457V14.7458V14.7458V14.7459V14.746V14.7461V14.7461V14.7462V14.7462V14.7463V14.7464V14.7464V14.7465V14.7466V14.7466V14.7467V14.7468V14.7468V14.7469V14.7469V14.747V14.7471V14.7471V14.7472V14.7472V14.7473V14.7474V14.7474V14.7475V14.7475V14.7476V14.7476V14.7477V14.7477V14.7478V14.7479V14.7479V14.748V14.748V14.7481V14.7481V14.7482V14.7482V14.7483V14.7483V14.7484V14.7484V14.7485V14.7485V14.7486V14.7486V14.7487V14.7487V14.7488V14.7488V14.7489V14.7489V14.7489V14.749V14.749V14.7491V14.7491V14.7492V14.7492V14.7492V14.7493V14.7493V14.7494V14.7494V14.7495V14.7495V14.7495V14.7496V14.7496V14.7497V14.7497V14.7497V14.7498V14.7498V14.7498V14.7499V14.7499V14.75V14.75V14.75V14.7501V14.7501V14.7501V14.7502V14.7502V14.7502V14.7503V14.7503V14.7503V14.7504V14.7504V14.7504V14.7505V14.7505V14.7505V14.7506V14.7506V14.7506V14.7506V14.7507V14.7507V14.7507V14.7508V14.7508V14.7508V14.7508V14.7509V14.7509V14.7509V14.7509V14.751V14.751V14.751V14.751V14.7511V14.7511V14.7511V14.7511V14.7512V14.7512V14.7512V14.7512V14.7513V14.7513V14.7513V14.7513V14.7514V14.7514V14.7514V14.7514V14.7514V14.7515V14.7515V14.7515V14.7515V14.7515V14.7516V14.7516V14.7516V14.7516V14.7516V14.7516V14.7517V14.7517V14.7517V14.7517V14.7517V14.7517V14.7518V14.7518V14.7518V14.7518V14.7518V14.7518V14.7519V14.7519V14.7519V14.7519V14.7519V14.7519V14.7519V14.752V14.752V14.752V14.752V14.752V14.752V14.752V14.752V14.7521V14.7521V14.7521V14.7521V14.7521V14.7521V14.7521V14.7521V14.7521V14.7522V14.7522V14.7522V14.7522V14.7522V14.7522V14.7522V14.7522V14.7522V14.7522V14.7522V14.7523V14.7523V14.7523V14.7523V14.7523V14.7523V14.7523V14.7523V14.7523V14.7523V14.7523V14.7523V14.7523V14.7523V14.7524V14.7524V14.7524V14.7524V14.7524V14.7524V14.7524V14.7524V14.7524V14.7524V14.7524V14.7524V14.7524V14.7524V14.7524V14.7524V14.7524V14.7524V14.7524V14.7524V14.7525V14.7525V14.7525V14.7525V14.7525V14.7525V14.7525V14.7525V14.7525V14.7525V14.7525V14.7525V14.7525V14.7525V14.7525V14.7525V14.7525C6.67188 15.1659 6.99677 15.4997 7.41693 15.4997H14.5585C14.9911 15.4997 15.2502 15.1698 15.3239 14.8728C15.3336 14.8335 15.3385 14.7931 15.3385 14.7525C15.3385 14.5145 15.2911 14.3233 15.2566 14.1844L15.2538 14.1733C15.1114 13.5987 14.6787 13.0898 14.0629 12.9292C13.9959 12.909 13.9295 12.8892 13.8636 12.8697C13.5792 12.7851 13.3062 12.7039 13.0511 12.6026C13.0352 12.5942 13.0133 12.5825 12.9864 12.5681C12.942 12.5443 12.884 12.5133 12.8171 12.4782C12.7614 12.449 12.7021 12.4184 12.6526 12.3944C12.6374 12.3871 12.6207 12.3791 12.6037 12.3715C12.5879 12.3603 12.5733 12.3504 12.564 12.3442L12.562 12.3428C12.5548 12.338 12.55 12.3348 12.5468 12.3326C12.5417 12.328 12.5365 12.3235 12.5312 12.3191C12.3394 12.1609 12.2695 11.8922 12.3764 11.6323C12.4402 11.5308 12.509 11.4284 12.5859 11.314C12.6012 11.2913 12.6167 11.2682 12.6326 11.2445C12.7035 11.1388 12.779 11.0251 12.8563 10.902C12.9836 10.8357 13.0801 10.7349 13.1456 10.6292C13.234 10.4865 13.274 10.3269 13.2957 10.2067C13.3189 10.1235 13.3302 10.0424 13.3367 9.99616C13.3372 9.99246 13.3377 9.98899 13.3382 9.98576C13.3428 9.95295 13.3458 9.93234 13.3491 9.91436C13.3517 9.90046 13.3532 9.89493 13.3532 9.89493C13.3532 9.89493 13.3531 9.89531 13.3529 9.89601C13.361 9.8714 13.3672 9.8462 13.3714 9.82063C13.3902 9.70708 13.4186 9.50245 13.3574 9.29644C13.3204 9.17228 13.2562 9.06287 13.1681 8.9738V8.97299V8.97175V8.97051V8.96927V8.96803V8.96679V8.96554V8.9643V8.96306V8.96182V8.96058V8.95934V8.9581V8.95686V8.95562V8.95437V8.95313V8.95189V8.95065V8.94941V8.94817V8.94693V8.94569V8.94444V8.9432V8.94196V8.94072V8.93948V8.93824V8.937V8.93576V8.93451V8.93327V8.93203V8.93079V8.92955V8.92831V8.92707V8.92583V8.92458V8.92334V8.9221V8.92086V8.91962V8.91838V8.91714V8.9159V8.91465V8.91341V8.91217V8.91093V8.90969V8.90845V8.90721V8.90597V8.90472V8.90348V8.90224V8.901V8.89976V8.89852V8.89728V8.89604V8.8948V8.89355V8.89231V8.89107V8.88983V8.88859V8.88735V8.88611V8.88487V8.88362V8.88238V8.88114V8.8799V8.87866V8.87742V8.87618V8.87494V8.87369V8.87245V8.87121V8.86997V8.86873V8.86749V8.86625V8.86501V8.86376V8.86252V8.86128V8.86004V8.8588V8.85756V8.85632V8.85508V8.85383V8.85259V8.85135V8.85011V8.84887V8.84763V8.84639V8.84515V8.84391V8.84266V8.84142V8.84018V8.83894V8.8377V8.83646V8.83522V8.83398V8.83273V8.83149V8.83025V8.82901V8.82777V8.82653V8.82529V8.82405V8.8228V8.82156V8.82032V8.81908V8.81784V8.8166V8.81536V8.81412V8.81287V8.81163V8.81039V8.80915V8.80791V8.80667V8.80543V8.80419V8.80294V8.8017V8.80046V8.79922V8.79798V8.79674V8.7955V8.79426V8.79301V8.79177V8.79053V8.78929V8.78805V8.78681V8.78557V8.78433V8.78309V8.78184V8.7806V8.77936V8.77812V8.77688V8.77564V8.7744V8.77316V8.77191V8.77067V8.76943V8.76819V8.76695V8.76571V8.76447V8.76323V8.76198V8.76074V8.7595V8.75826V8.75702V8.75578V8.75454V8.7533V8.75205V8.75081V8.74957V8.74833V8.74709V8.74585V8.74461V8.74337V8.74212V8.74088V8.73964V8.7384V8.73716V8.73592V8.73468V8.73344V8.7322V8.73095V8.72971V8.72847V8.72723V8.72599V8.72475V8.72351V8.72227V8.72102V8.71978V8.71854V8.7173V8.71606V8.71482V8.71358V8.71234V8.71109V8.70985V8.70861V8.70737V8.70613V8.70489V8.70365V8.70241V8.70116V8.69992V8.69868V8.69744V8.6962V8.69496V8.69372V8.69248V8.69123V8.68999V8.68875V8.68751V8.68627V8.68503V8.68379V8.68255V8.6813V8.68006V8.67882V8.67758V8.67634V8.6751V8.67386V8.67262V8.67138V8.67013V8.66889V8.66765V8.66641V8.66517V8.66393V8.66269V8.66145V8.6602V8.65896V8.65772V8.65648V8.65524V8.654V8.65276V8.65152V8.65027V8.64903V8.64779V8.64655V8.64531V8.64407V8.64283V8.64159V8.64034V8.6391V8.63786V8.63662V8.63538V8.63414V8.6329V8.63166V8.63041V8.62917V8.62793V8.62669V8.62545V8.62421V8.62297V8.62173V8.62049V8.61924V8.618V8.61676V8.61552V8.61428V8.61304V8.6118V8.61056V8.60931C13.1681 8.15425 12.972 7.71147 12.673 7.40992C12.6564 7.3931 12.6385 7.37749 12.6196 7.3632C12.1 6.97014 11.46 6.79965 10.8303 6.83839C10.6109 6.84055 10.4006 6.88304 10.2407 6.91535C10.235 6.91651 10.2293 6.91765 10.2237 6.91879L10.2237 6.91867L10.2132 6.92102C9.37004 7.10999 8.79308 7.81982 8.77288 8.6691C8.75295 8.79817 8.75541 8.91596 8.75976 9.00802C8.75988 9.01064 8.76001 9.01322 8.76013 9.01578C8.70395 9.07103 8.65375 9.13737 8.61432 9.21691C8.5158 9.41563 8.52348 9.61816 8.56541 9.78468C8.56981 9.84594 8.57791 9.90267 8.58328 9.94027C8.58379 9.94384 8.58428 9.94724 8.58473 9.95045C8.58932 9.98285 8.59255 10.0059 8.59483 10.0267C8.5959 10.0364 8.59655 10.0437 8.59692 10.0492C8.59728 10.0545 8.59729 10.0569 8.59729 10.0569V10.0569C8.59729 10.0895 8.60049 10.1221 8.60684 10.1541C8.60769 10.1584 8.60855 10.1627 8.6094 10.167C8.62462 10.2439 8.64111 10.3271 8.66069 10.397C8.68166 10.4718 8.72009 10.5866 8.80812 10.6931C8.90408 10.8092 9.01833 10.8678 9.1061 10.9013C9.11637 10.9052 9.12686 10.909 9.13747 10.9127C9.25114 11.0803 9.34923 11.2317 9.45016 11.3874C9.51718 11.4908 9.58547 11.5961 9.6604 11.7095C9.66072 11.71 9.66104 11.7105 9.66137 11.711C9.66156 11.7115 9.66176 11.712 9.66196 11.7125C9.66341 11.7161 9.66494 11.7199 9.66654 11.7239C9.70758 12 9.58705 12.2667 9.39872 12.3961C9.32103 12.4272 9.23124 12.4695 9.16527 12.5012C9.09403 12.5354 9.0257 12.5694 8.98061 12.5921C8.81123 12.6442 8.63654 12.7029 8.46927 12.7591L8.46537 12.7604C8.28375 12.8215 8.11074 12.8796 7.94725 12.9293C7.36365 13.0816 6.86354 13.5688 6.75192 14.1927ZM9.72246 11.7858C9.72244 11.7858 9.72242 11.7858 9.7224 11.7858L9.72246 11.7858ZM9.64774 11.6755L9.64775 11.6755L9.64774 11.6755ZM12.5404 12.3281C12.5396 12.3275 12.5399 12.3277 12.541 12.3285L12.5404 12.3281Z" stroke="white" stroke-linecap="round" stroke-linejoin="round"/>
<path d="M11.5853 7.24601V2.55176C11.5853 1.44719 10.6898 0.551758 9.58526 0.551758H2.55078C1.44621 0.551758 0.550781 1.44719 0.550781 2.55176V12.8966C0.550781 14.0012 1.44621 14.8966 2.55078 14.8966L6.61975 14.8966" stroke="white"/>
</g>
<defs>
<clipPath id="clip0_7854_27320">
<rect width="16" height="16" fill="white"/>
</clipPath>
</defs>
</svg>
