<svg width="58" height="58" viewBox="0 0 58 58" fill="none" xmlns="http://www.w3.org/2000/svg">
<path d="M44.0302 9.15723C42.4442 9.15723 40.8855 9.43363 39.3856 9.98645C38.916 10.1583 38.5147 10.4776 38.2419 10.8967C37.969 11.3158 37.8393 11.812 37.8722 12.311C37.8903 12.5602 38.3072 18.4372 40.523 24.3596C42.7388 30.291 45.9152 34.4461 46.0511 34.6229C46.3503 35.0127 46.7661 35.2968 47.2381 35.4337C47.71 35.5706 48.2133 35.5533 48.6747 35.3841C55.6755 32.8194 59.2869 25.0393 56.7267 18.0385C54.7828 12.7279 49.6806 9.15723 44.0302 9.15723Z" fill="#FCC21B"/>
<path d="M26.7654 1.48145C24.9393 1.48145 23.154 1.84848 21.4638 2.56895C18.1424 3.9827 15.5732 6.61083 14.2229 9.96395C12.8771 13.3171 12.9179 16.9874 14.3362 20.3088C14.6987 21.1697 15.546 21.7135 16.4613 21.7135C16.5383 21.7135 16.6108 21.709 16.6833 21.7044C16.9054 21.6818 22.1073 21.1561 27.9526 18.7093C33.7843 16.2715 38.3563 12.5513 38.5466 12.3927C38.9337 12.0754 39.2071 11.6408 39.3256 11.1544C39.4442 10.6681 39.4013 10.1565 39.2037 9.69661C38.1656 7.2576 36.4327 5.17805 34.2208 3.71719C32.009 2.25633 29.4161 1.47878 26.7654 1.48145Z" fill="#FCC21B"/>
<path d="M35.1308 22.6517C35.0855 22.4297 34.9315 22.2484 34.7321 22.1623L33.0329 21.4237C32.7927 21.3195 32.5163 21.3603 32.3169 21.5189C32.113 21.6865 32.0224 21.9493 32.0768 22.2031C32.0768 22.2122 32.2897 23.3223 31.669 24.2512C31.2204 24.9173 30.4319 25.3523 29.3218 25.5472C26.3674 26.0683 26.0366 27.985 25.801 29.3806C25.5744 30.7037 25.4158 31.2973 24.0746 31.4242C22.5838 31.5647 21.4872 32.122 20.8121 33.0826C19.7291 34.6142 20.2049 36.5762 20.223 36.6578C20.2729 36.8662 20.4224 37.0384 20.6218 37.1245L22.321 37.8631C22.4116 37.9039 22.5068 37.922 22.5974 37.922C22.7024 37.9222 22.8061 37.8985 22.9007 37.8528C22.9952 37.8071 23.0782 37.7404 23.1432 37.6579C23.2082 37.5755 23.2536 37.4793 23.2761 37.3767C23.2985 37.274 23.2973 37.1677 23.2726 37.0656C23.2726 37.052 22.9372 35.6247 23.6532 34.6187C24.0882 34.0115 24.8449 33.649 25.9097 33.5493C28.3702 33.3137 28.6602 31.6054 28.8732 30.3593C29.0997 29.0453 29.2719 28.0076 31.2657 27.6587C32.761 27.3959 33.8576 26.7615 34.5236 25.7692C35.4752 24.3373 35.149 22.7197 35.1308 22.6517Z" fill="#ED6C30"/>
<path d="M40.5235 42.3851C39.4813 41.5287 39.6807 40.9532 40.229 39.7253C40.8135 38.4339 41.611 36.6576 39.4451 34.5778C38.6385 33.8029 38.2262 33.0009 38.2216 32.2034C38.2126 31.0751 39.0191 30.2685 39.0237 30.2595C39.2095 30.0782 39.2774 29.8109 39.2049 29.5617C39.1279 29.3124 38.924 29.1267 38.6657 29.0814L36.8441 28.746C36.6266 28.7053 36.4001 28.7732 36.237 28.9273C36.1916 28.9771 35.009 30.1371 35.0135 31.8545C35.0135 33.0462 35.5754 34.1835 36.6629 35.2393C38.122 36.6395 37.6915 37.6001 37.1432 38.819C36.6266 39.9745 35.9152 41.5514 37.8229 43.1192C38.6521 43.7989 39.0826 44.5193 39.1007 45.267C39.137 46.504 38.063 47.5009 38.054 47.5054C37.8546 47.6821 37.7821 47.9585 37.8501 48.2078C37.9226 48.466 38.131 48.6564 38.3938 48.7017L40.2154 49.037C40.2562 49.046 40.297 49.0506 40.3377 49.0506C40.5054 49.0506 40.673 48.9871 40.8045 48.8739C40.8679 48.815 42.3587 47.4556 42.3134 45.5796C42.2771 44.4106 41.679 43.3367 40.5235 42.3851ZM30.6182 42.1132C31.6241 40.3687 31.0713 38.819 31.0487 38.751C30.9807 38.5698 30.8402 38.4203 30.6545 38.3523L29.0323 37.6998C28.783 37.6001 28.493 37.6545 28.2982 37.8448C28.1034 38.0306 28.0309 38.3206 28.1215 38.5789C28.1351 38.6196 28.4659 39.612 27.7952 40.7675C27.4871 41.2931 27.0974 41.4879 26.599 41.7326C26.0326 42.009 25.3257 42.3534 24.8998 43.2687C24.501 44.1206 24.6052 44.9453 24.6913 45.6748C24.7729 46.3409 24.8409 46.9118 24.569 47.4782C24.2835 48.0854 23.7941 48.389 23.2277 48.7425C22.6659 49.0914 22.0315 49.4856 21.5738 50.2151C21.1841 50.8359 21.1388 51.5428 21.0935 52.2315C21.0165 53.3507 20.9259 54.0621 19.9516 54.5606C19.7115 54.6829 19.562 54.9367 19.571 55.2085C19.5846 55.4804 19.7523 55.7206 20.006 55.8203L21.6282 56.4728C21.7098 56.509 21.8004 56.5226 21.8865 56.5226C21.9952 56.5226 22.0995 56.4954 22.1991 56.4456C23.921 55.571 24.0252 54.0712 24.0932 52.9746C24.1294 52.4354 24.1612 51.9279 24.3696 51.6062C24.6551 51.144 25.0901 50.8812 25.584 50.5685C26.241 50.1562 26.9796 49.6985 27.4418 48.7243C27.8859 47.7909 27.7816 46.9209 27.682 46.1551C27.6049 45.5343 27.5415 44.9951 27.7726 44.5057C27.981 44.0526 28.2755 43.894 28.8238 43.6267C29.3993 43.3457 30.1062 43.0059 30.6182 42.1132ZM10.8076 34.3421C11.5779 34.315 12.4524 34.2787 13.336 33.6625C14.1834 33.0689 14.5187 32.2668 14.8223 31.5509C15.0669 30.9709 15.2754 30.4724 15.7194 30.1598C16.1726 29.8426 16.594 29.8879 17.0652 29.9196C17.251 29.9332 17.4413 29.9423 17.6271 29.9423C18.0395 29.9423 18.6648 29.897 19.3671 29.4892C21.1071 28.4787 21.3926 26.852 21.4062 26.784C21.4379 26.5937 21.3835 26.3943 21.2657 26.2403L20.1782 24.8673C20.0105 24.6543 19.7251 24.5592 19.4623 24.6271C19.1995 24.6951 19.0001 24.9126 18.9548 25.1845C18.9502 25.1935 18.7509 26.2403 17.5863 26.9154C17.2646 27.1057 16.961 27.1828 16.5441 27.1828C16.3855 27.1828 16.227 27.1737 16.0684 27.1646C15.8871 27.151 15.7104 27.142 15.5291 27.142C15.076 27.142 14.4779 27.2009 13.8345 27.6585C13.0641 28.2023 12.747 28.9681 12.4615 29.6478C12.2032 30.264 11.9766 30.7942 11.4601 31.1567C10.9118 31.5373 10.3363 31.56 9.67023 31.5871C9.0132 31.6143 8.26554 31.6415 7.50429 32.0493C6.86086 32.3982 6.46664 32.9873 6.09054 33.5582C5.49242 34.4645 5.07554 35.0173 4.07867 35.0173L3.94273 35.0128C3.67992 34.9992 3.41711 35.1442 3.29023 35.3889C3.16789 35.629 3.19508 35.9235 3.36726 36.1365L4.45476 37.5095C4.58164 37.6635 4.76742 37.7587 4.96226 37.7678C5.03023 37.7723 5.0982 37.7768 5.16617 37.7768C6.95601 37.7768 7.75351 36.576 8.33351 35.697C8.62804 35.2484 8.91351 34.8224 9.24883 34.6412C9.71554 34.3829 10.223 34.3648 10.8076 34.3421Z" fill="#D7598B"/>
<path d="M17.3183 39.9652V37.831C17.3183 37.4458 17.0056 37.1377 16.625 37.1377H14.4862C14.1056 37.1377 13.793 37.4458 13.793 37.831V39.9652C13.793 40.3504 14.1011 40.6585 14.4862 40.6585H16.625C17.0102 40.6585 17.3183 40.3458 17.3183 39.9652Z" fill="#ED6C30"/>
<path d="M8.83195 23.2996L7.32305 24.8085C7.05117 25.0804 7.05117 25.5199 7.32305 25.7873L8.83195 27.3007C8.96789 27.4321 9.14461 27.5046 9.32133 27.5046C9.50258 27.5046 9.6793 27.4366 9.8107 27.3007L11.3241 25.7873C11.596 25.5154 11.596 25.0804 11.3241 24.8085L9.8107 23.2996C9.53883 23.0277 9.0993 23.0277 8.83195 23.2996Z" fill="#40C0E7"/>
<path d="M4.61773 27.6088C4.74914 27.4773 4.82164 27.3052 4.82164 27.1194C4.82164 26.9381 4.74914 26.7614 4.61773 26.63L3.1043 25.1166C2.84602 24.8583 2.38383 24.8583 2.12555 25.1166L0.616641 26.63C0.485234 26.7614 0.408203 26.9381 0.408203 27.1194C0.408203 27.3052 0.485234 27.4773 0.616641 27.6088L2.12555 29.1177C2.18968 29.1822 2.26593 29.2333 2.34992 29.2683C2.4339 29.3032 2.52396 29.3212 2.61492 29.3212C2.70588 29.3212 2.79594 29.3032 2.87993 29.2683C2.96391 29.2333 3.04016 29.1822 3.1043 29.1177L4.61773 27.6088Z" fill="#ED6C30"/>
<path d="M12.3836 42.1411C12.1253 41.8782 11.6631 41.8782 11.4003 42.1411L9.89141 43.65C9.61953 43.9218 9.61953 44.3614 9.89141 44.6332L11.4003 46.1422C11.4644 46.2067 11.5407 46.2578 11.6247 46.2928C11.7087 46.3277 11.7987 46.3457 11.8897 46.3457C11.9806 46.3457 12.0707 46.3277 12.1547 46.2928C12.2387 46.2578 12.3149 46.2067 12.3791 46.1422L13.888 44.6332C14.1598 44.3614 14.1598 43.9218 13.888 43.65L12.3836 42.1411ZM31.0705 50.7097C30.7986 50.4378 30.3591 50.4378 30.0872 50.7097L28.6689 52.1279C28.397 52.3998 28.397 52.8393 28.6689 53.1112L30.0872 54.5295C30.1513 54.594 30.2276 54.6452 30.3116 54.6801C30.3955 54.715 30.4856 54.733 30.5766 54.733C30.6675 54.733 30.7576 54.715 30.8416 54.6801C30.9256 54.6452 31.0018 54.594 31.0659 54.5295L32.4842 53.1112C32.7561 52.8393 32.7561 52.3998 32.4842 52.1279L31.0705 50.7097ZM50.2784 41.194C50.3426 41.2585 50.4188 41.3097 50.5028 41.3446C50.5868 41.3796 50.6769 41.3976 50.7678 41.3976C50.8588 41.3976 50.9488 41.3796 51.0328 41.3446C51.1168 41.3097 51.1931 41.2585 51.2572 41.194L52.68 39.7757C52.9473 39.5039 52.9473 39.0689 52.68 38.797L51.2572 37.3787C50.9853 37.1068 50.5458 37.1068 50.2784 37.3787L48.8602 38.797C48.5883 39.0689 48.5883 39.5039 48.8602 39.7757L50.2784 41.194ZM45.865 51.0087C45.5977 50.7368 45.1536 50.7368 44.8817 51.0087L43.4634 52.427C43.1961 52.6989 43.1961 53.1384 43.4634 53.4103L44.8817 54.8286C45.0177 54.96 45.1989 55.0325 45.3756 55.0325C45.5523 55.0325 45.7291 54.9645 45.865 54.8286L47.2833 53.4103C47.5552 53.1384 47.5552 52.6989 47.2833 52.427L45.865 51.0087ZM20.132 47.4245V45.2903C20.132 44.9096 19.8194 44.597 19.4388 44.597H17.3C16.9148 44.597 16.6067 44.9096 16.6067 45.2903V47.4245C16.6067 47.8097 16.9148 48.1178 17.3 48.1178H19.4388C19.8194 48.1178 20.132 47.8051 20.132 47.4245Z" fill="#40C0E7"/>
<path d="M33.0319 44.6602H31.0245C30.6439 44.6602 30.3313 44.9683 30.3313 45.3534V47.3608C30.3313 47.7414 30.6439 48.0541 31.0245 48.0541H33.0319C33.4125 48.0541 33.7252 47.7414 33.7252 47.3608V45.3534C33.7252 44.9683 33.417 44.6602 33.0319 44.6602ZM11.957 49.8575H9.81828C9.43766 49.8575 9.125 50.1702 9.125 50.5508V52.685C9.125 53.0656 9.43766 53.3783 9.81828 53.3783H11.957C12.3422 53.3783 12.6503 53.0656 12.6503 52.685V50.5508C12.6503 50.1656 12.3422 49.8575 11.957 49.8575Z" fill="#ED6C30"/>
<path d="M5.78141 43.6492C5.51406 43.3773 5.07453 43.3773 4.80266 43.6492L3.29375 45.1627C3.15781 45.2941 3.08984 45.4662 3.08984 45.652C3.08984 45.8378 3.16234 46.0145 3.29375 46.1414L4.80266 47.6503C4.86679 47.7148 4.94304 47.766 5.02703 47.8009C5.11101 47.8359 5.20107 47.8538 5.29203 47.8538C5.38299 47.8538 5.47305 47.8359 5.55704 47.8009C5.64102 47.766 5.71727 47.7148 5.78141 47.6503L7.29031 46.1414C7.56219 45.8695 7.56219 45.43 7.29031 45.1627L5.78141 43.6492Z" fill="#40C0E7"/>
<path d="M2.52438 19.1986C3.39438 19.4568 4.35048 19.262 5.10266 19.049C5.70079 18.8814 6.26266 18.7454 6.74751 18.8904C7.22782 19.0264 7.43173 19.2982 7.7761 19.7967C8.13407 20.3132 8.57813 20.9567 9.53876 21.3328C10.0644 21.5367 10.6081 21.6454 11.1474 21.6454C11.3105 21.6454 11.46 21.6364 11.605 21.6228C11.9449 21.5865 12.2122 21.3011 12.2258 20.9612L12.2892 19.2756C12.2983 19.0898 12.2122 18.904 12.0808 18.7681C11.9494 18.6321 11.75 18.5551 11.5642 18.5551C11.1745 18.5551 10.8075 18.4871 10.445 18.3421C9.8786 18.1201 9.62938 17.7621 9.31672 17.3045C8.95423 16.7834 8.50563 16.14 7.54047 15.8545C6.73844 15.6189 5.87751 15.8001 5.13438 16.0086C4.49094 16.1898 3.88376 16.3303 3.32641 16.1626C2.97751 16.0584 2.68298 15.8726 2.36126 15.5509C2.20719 15.4059 1.98969 15.3289 1.78126 15.3606C1.56829 15.3878 1.38251 15.5146 1.27376 15.7004L0.503444 17.0145C0.353913 17.2728 0.3811 17.5945 0.580475 17.8211C1.0336 18.3376 1.60001 18.9176 2.52438 19.1986ZM57.2619 50.7859C57.1214 50.6998 57.0036 50.6907 56.8722 50.6726C55.4449 50.5231 54.2078 50.0428 53.2925 49.3087C55.2953 48.3209 56.0838 46.4087 55.9795 45.2442C55.9795 45.1989 55.975 45.14 55.9659 45.0811C55.8164 43.4 54.7833 42.317 53.3333 42.317C52.9753 42.317 52.5947 42.3804 52.1733 42.5073C51.6431 42.6659 50.1116 43.1326 49.305 46.2501C48.2945 45.5342 47.4789 44.4014 46.9669 42.9695C46.9216 42.8381 46.8853 42.7293 46.7675 42.6161C46.5092 42.3578 46.0516 42.3578 45.7888 42.6161L44.2889 44.1204C44.0306 44.3787 44.017 44.7865 44.2527 45.0584C44.1847 44.9768 44.1575 44.9179 44.162 44.9361C45.1499 47.7273 47.1074 49.5353 49.5542 49.9431C50.5556 52.1453 52.7397 53.5681 55.6669 53.8762C55.7122 53.8853 55.753 53.8853 55.7983 53.8853C56.0294 53.8853 56.2605 53.7675 56.3919 53.5545L57.4975 51.7465C57.6878 51.4112 57.5836 50.9853 57.2619 50.7859ZM52.8077 46.3861C52.4769 46.5673 52.1461 46.7168 51.8606 46.8256C51.8425 46.5175 51.8425 46.1459 51.8878 45.7653C51.9241 45.2986 52.5041 44.782 52.998 44.782C53.1203 44.782 53.2291 44.8137 53.3242 44.8771C53.5145 44.9995 53.6233 45.2079 53.6142 45.4254C53.6006 45.7653 53.3152 46.1051 52.8077 46.3861Z" fill="#ED6C30"/>
</svg>
