<svg width="22" height="22" viewBox="0 0 22 22" fill="none" xmlns="http://www.w3.org/2000/svg">
<path d="M7 0C3.1305 0 0 3.1305 0 7V15C0 18.8695 3.1305 22 7 22H15C18.8695 22 22 18.8695 22 15V7C22 3.1305 18.8695 0 15 0H7ZM7 1H14.5V21H7C3.6675 21 1 18.3325 1 15V7C1 3.6675 3.6675 1 7 1ZM15.5 1.025C18.595 1.2775 21 3.8365 21 7V7.5H15.5V1.025ZM15.5 8.5H21V13.5H15.5V8.5ZM15.5 14.5H21V15C21.0058 16.506 20.4423 17.9585 19.4223 19.0664C18.4023 20.1744 17.0013 20.856 15.5 20.9745V14.5Z" fill="black"/>
<path d="M8 6.5C6.349 6.5 5 7.849 5 9.5C5.0002 9.89317 5.07793 10.2824 5.22877 10.6455C5.3796 11.0086 5.60056 11.3384 5.879 11.616C4.753 12.325 4 13.576 4 15C4 15.1326 4.05268 15.2598 4.14645 15.3536C4.24021 15.4473 4.36739 15.5 4.5 15.5C4.63261 15.5 4.75979 15.4473 4.85355 15.3536C4.94732 15.2598 5 15.1326 5 15C4.99941 14.415 5.17063 13.8428 5.4924 13.3542C5.81417 12.8657 6.27233 12.4824 6.81 12.252C7.18545 12.4161 7.59076 12.5008 8.0005 12.5008C8.41024 12.5008 8.81555 12.4161 9.191 12.252C10.255 12.712 11 13.762 11 15C11 15.1326 11.0527 15.2598 11.1464 15.3536C11.2402 15.4473 11.3674 15.5 11.5 15.5C11.6326 15.5 11.7598 15.4473 11.8536 15.3536C11.9473 15.2598 12 15.1326 12 15C12 13.576 11.247 12.325 10.121 11.616C10.3994 11.3384 10.6204 11.0086 10.7712 10.6455C10.9221 10.2824 10.9998 9.89317 11 9.5C11 7.849 9.651 6.5 8 6.5ZM8 7.5C9.1105 7.5 10 8.3895 10 9.5C10 10.6105 9.1105 11.5 8 11.5C6.8895 11.5 6 10.6105 6 9.5C6 8.3895 6.8895 7.5 8 7.5Z" fill="black"/>
</svg>
