<svg width="16" height="17" viewBox="0 0 16 17" fill="none" xmlns="http://www.w3.org/2000/svg">
<path fill-rule="evenodd" clip-rule="evenodd" d="M8 0.0324707C3.58172 0.0324707 0 3.61419 0 8.03247C0 12.4507 3.58172 16.0325 8 16.0325C12.4183 16.0325 16 12.4507 16 8.03247C16 3.61419 12.4183 0.0324707 8 0.0324707ZM7 12.0325C7 12.5848 7.44772 13.0325 8 13.0325C8.55228 13.0325 9 12.5848 9 12.0325C9 11.4802 8.55228 11.0325 8 11.0325C7.44771 11.0325 7 11.4802 7 12.0325ZM7 8.53247C7 9.08476 7.44772 9.53247 8 9.53247C8.55228 9.53247 9 9.08476 9 8.53247L9 4.53247C9 3.98019 8.55228 3.53247 8 3.53247C7.44771 3.53247 7 3.98019 7 4.53247V8.53247Z" fill="#ED1B2E"/>
</svg>
