<svg width="48" height="48" viewBox="0 0 48 48" fill="none" xmlns="http://www.w3.org/2000/svg">
<path d="M24.0013 47.3327C11.1143 47.3327 0.667969 36.8863 0.667969 23.9993C0.667969 11.1123 11.1143 0.666016 24.0013 0.666016C36.8883 0.666016 47.3346 11.1123 47.3346 23.9993C47.3346 36.8863 36.8883 47.3327 24.0013 47.3327ZM24.0013 42.666C28.952 42.666 33.7 40.6994 37.2006 37.1987C40.7013 33.698 42.668 28.9501 42.668 23.9993C42.668 19.0486 40.7013 14.3007 37.2006 10.8C33.7 7.29934 28.952 5.33268 24.0013 5.33268C19.0506 5.33268 14.3027 7.29934 10.802 10.8C7.3013 14.3007 5.33464 19.0486 5.33464 23.9993C5.33464 28.9501 7.3013 33.698 10.802 37.1987C14.3027 40.6994 19.0506 42.666 24.0013 42.666ZM24.0013 12.3327C24.6201 12.3327 25.2136 12.5785 25.6512 13.0161C26.0888 13.4537 26.3346 14.0472 26.3346 14.666V26.3327C26.3346 26.9515 26.0888 27.545 25.6512 27.9826C25.2136 28.4202 24.6201 28.666 24.0013 28.666C23.3825 28.666 22.789 28.4202 22.3514 27.9826C21.9138 27.545 21.668 26.9515 21.668 26.3327V14.666C21.668 14.0472 21.9138 13.4537 22.3514 13.0161C22.789 12.5785 23.3825 12.3327 24.0013 12.3327ZM24.0013 35.666C23.3825 35.666 22.789 35.4202 22.3514 34.9826C21.9138 34.545 21.668 33.9515 21.668 33.3327C21.668 32.7138 21.9138 32.1203 22.3514 31.6828C22.789 31.2452 23.3825 30.9993 24.0013 30.9993C24.6201 30.9993 25.2136 31.2452 25.6512 31.6828C26.0888 32.1203 26.3346 32.7138 26.3346 33.3327C26.3346 33.9515 26.0888 34.545 25.6512 34.9826C25.2136 35.4202 24.6201 35.666 24.0013 35.666Z" fill="#DB3738"/>
</svg>
