<svg width="24" height="25" viewBox="0 0 24 25" fill="none" xmlns="http://www.w3.org/2000/svg">
<path d="M10 5.83252H14C14 5.30209 13.7893 4.79338 13.4142 4.41831C13.0391 4.04323 12.5304 3.83252 12 3.83252C11.4696 3.83252 10.9609 4.04323 10.5858 4.41831C10.2107 4.79338 10 5.30209 10 5.83252ZM8.5 5.83252C8.5 5.37289 8.59053 4.91777 8.76642 4.49313C8.94231 4.06849 9.20012 3.68265 9.52513 3.35765C9.85013 3.03264 10.236 2.77483 10.6606 2.59894C11.0852 2.42305 11.5404 2.33252 12 2.33252C12.4596 2.33252 12.9148 2.42305 13.3394 2.59894C13.764 2.77483 14.1499 3.03264 14.4749 3.35765C14.7999 3.68265 15.0577 4.06849 15.2336 4.49313C15.4095 4.91777 15.5 5.37289 15.5 5.83252H21.25C21.4489 5.83252 21.6397 5.91154 21.7803 6.05219C21.921 6.19284 22 6.38361 22 6.58252C22 6.78143 21.921 6.9722 21.7803 7.11285C21.6397 7.2535 21.4489 7.33252 21.25 7.33252H19.93L18.76 19.4435C18.6702 20.3715 18.238 21.2328 17.5477 21.8593C16.8573 22.4859 15.9583 22.8329 15.026 22.8325H8.974C8.04186 22.8326 7.1431 22.4856 6.45295 21.859C5.7628 21.2325 5.33073 20.3713 5.241 19.4435L4.07 7.33252H2.75C2.55109 7.33252 2.36032 7.2535 2.21967 7.11285C2.07902 6.9722 2 6.78143 2 6.58252C2 6.38361 2.07902 6.19284 2.21967 6.05219C2.36032 5.91154 2.55109 5.83252 2.75 5.83252H8.5ZM10.5 10.5825C10.5 10.3836 10.421 10.1928 10.2803 10.0522C10.1397 9.91154 9.94891 9.83252 9.75 9.83252C9.55109 9.83252 9.36032 9.91154 9.21967 10.0522C9.07902 10.1928 9 10.3836 9 10.5825V18.0825C9 18.2814 9.07902 18.4722 9.21967 18.6129C9.36032 18.7535 9.55109 18.8325 9.75 18.8325C9.94891 18.8325 10.1397 18.7535 10.2803 18.6129C10.421 18.4722 10.5 18.2814 10.5 18.0825V10.5825ZM14.25 9.83252C14.4489 9.83252 14.6397 9.91154 14.7803 10.0522C14.921 10.1928 15 10.3836 15 10.5825V18.0825C15 18.2814 14.921 18.4722 14.7803 18.6129C14.6397 18.7535 14.4489 18.8325 14.25 18.8325C14.0511 18.8325 13.8603 18.7535 13.7197 18.6129C13.579 18.4722 13.5 18.2814 13.5 18.0825V10.5825C13.5 10.3836 13.579 10.1928 13.7197 10.0522C13.8603 9.91154 14.0511 9.83252 14.25 9.83252ZM6.734 19.2995C6.78794 19.8562 7.04724 20.3728 7.46137 20.7486C7.87549 21.1245 8.41475 21.3326 8.974 21.3325H15.026C15.5853 21.3326 16.1245 21.1245 16.5386 20.7486C16.9528 20.3728 17.2121 19.8562 17.266 19.2995L18.424 7.33252H5.576L6.734 19.2995Z" fill="#ED1B2E"/>
</svg>
