<svg width="14" height="11" viewBox="0 0 14 11" fill="none" xmlns="http://www.w3.org/2000/svg">
<path d="M12.2519 0.854494L1.89195 0.854494C1.10195 0.854494 0.621948 1.72449 1.05195 2.39449L6.23195 10.5345C6.32214 10.677 6.44691 10.7944 6.59465 10.8757C6.74239 10.9571 6.9083 10.9997 7.07695 10.9997C7.2456 10.9997 7.41151 10.9571 7.55925 10.8757C7.70699 10.7944 7.83176 10.677 7.92195 10.5345L13.0919 2.39449C13.1895 2.24366 13.2445 2.0693 13.2513 1.88979C13.258 1.71029 13.2161 1.53229 13.1301 1.3746C13.0441 1.2169 12.9171 1.08534 12.7625 0.993802C12.608 0.902262 12.4316 0.854134 12.2519 0.854494Z" fill="black"/>
</svg>
