<svg width="25" height="25" viewBox="0 0 25 25" fill="none" xmlns="http://www.w3.org/2000/svg">
<path d="M12.1992 13.5C12.7515 13.5 13.1992 13.0523 13.1992 12.5C13.1992 11.9477 12.7515 11.5 12.1992 11.5C11.6469 11.5 11.1992 11.9477 11.1992 12.5C11.1992 13.0523 11.6469 13.5 12.1992 13.5Z" stroke="black" stroke-width="2" stroke-linecap="round" stroke-linejoin="round"/>
<path d="M12.1992 6.5C12.7515 6.5 13.1992 6.05228 13.1992 5.5C13.1992 4.94772 12.7515 4.5 12.1992 4.5C11.6469 4.5 11.1992 4.94772 11.1992 5.5C11.1992 6.05228 11.6469 6.5 12.1992 6.5Z" stroke="black" stroke-width="2" stroke-linecap="round" stroke-linejoin="round"/>
<path d="M12.1992 20.5C12.7515 20.5 13.1992 20.0523 13.1992 19.5C13.1992 18.9477 12.7515 18.5 12.1992 18.5C11.6469 18.5 11.1992 18.9477 11.1992 19.5C11.1992 20.0523 11.6469 20.5 12.1992 20.5Z" stroke="black" stroke-width="2" stroke-linecap="round" stroke-linejoin="round"/>
</svg>
