<svg width="125" height="100" viewBox="0 0 125 100" fill="none" xmlns="http://www.w3.org/2000/svg">
<path d="M50.2238 99.4475C77.6854 99.4475 99.9475 77.1854 99.9475 49.7238C99.9475 22.2621 77.6854 0 50.2238 0C22.7621 0 0.5 22.2621 0.5 49.7238C0.5 77.1854 22.7621 99.4475 50.2238 99.4475Z" fill="#F2F2F2"/>
<g filter="url(#filter0_d_19598_56613)">
<path d="M27.6826 22.5415H117.185C118.065 22.5415 118.908 22.8908 119.529 23.5124C120.151 24.1341 120.5 24.9773 120.5 25.8564V42.431C120.5 43.3102 120.151 44.1533 119.529 44.775C118.908 45.3967 118.065 45.7459 117.185 45.7459H27.6826C26.8034 45.7459 25.9603 45.3967 25.3386 44.775C24.7169 44.1533 24.3677 43.3102 24.3677 42.431V25.8564C24.3677 24.9773 24.7169 24.1341 25.3386 23.5124C25.9603 22.8908 26.8034 22.5415 27.6826 22.5415V22.5415Z" fill="white"/>
</g>
<path d="M70.1132 27.8452H52.8757C51.7772 27.8452 50.8867 28.7357 50.8867 29.8342C50.8867 30.9326 51.7772 31.8231 52.8757 31.8231H70.1132C71.2117 31.8231 72.1022 30.9326 72.1022 29.8342C72.1022 28.7357 71.2117 27.8452 70.1132 27.8452Z" fill="#E6EAED"/>
<path d="M82.0469 36.4641H52.8757C51.7772 36.4641 50.8867 37.3546 50.8867 38.4531C50.8867 39.5515 51.7772 40.442 52.8757 40.442H82.0469C83.1454 40.442 84.0359 39.5515 84.0359 38.4531C84.0359 37.3546 83.1454 36.4641 82.0469 36.4641Z" fill="#F2F2F2"/>
<path d="M45.583 34.1438C45.583 28.8345 41.279 24.5305 35.9697 24.5305C30.6604 24.5305 26.3564 28.8345 26.3564 34.1438C26.3564 39.453 30.6604 43.757 35.9697 43.757C41.279 43.757 45.583 39.453 45.583 34.1438Z" fill="#D2D6D9"/>
<path d="M35.373 37.2557C36.196 37.2555 36.9953 36.9802 37.6437 36.4733L39.6824 38.512L40.3381 37.8563L38.2988 35.817C38.8111 35.1545 39.084 34.3381 39.073 33.5007C39.0619 32.6633 38.7676 31.8543 38.2379 31.2056C37.7082 30.5569 36.9745 30.1068 36.1562 29.9285C35.3379 29.7502 34.4834 29.8543 33.7318 30.2238C32.9803 30.5934 32.3761 31.2066 32.0177 31.9635C31.6593 32.7204 31.5678 33.5764 31.7581 34.3919C31.9485 35.2075 32.4094 35.9345 33.0659 36.4546C33.7223 36.9746 34.5355 37.257 35.373 37.2557ZM35.373 30.7624C35.9237 30.7624 36.4621 30.9257 36.92 31.2317C37.3779 31.5376 37.7348 31.9725 37.9456 32.4813C38.1563 32.9901 38.2115 33.55 38.104 34.0902C37.9966 34.6303 37.7314 35.1265 37.342 35.5159C36.9525 35.9053 36.4564 36.1705 35.9162 36.278C35.3761 36.3854 34.8162 36.3303 34.3074 36.1195C33.7986 35.9087 33.3637 35.5518 33.0578 35.0939C32.7518 34.636 32.5885 34.0977 32.5885 33.5469C32.5885 32.8084 32.8818 32.1002 33.404 31.578C33.9262 31.0558 34.6345 30.7624 35.373 30.7624Z" fill="white"/>
<g filter="url(#filter1_d_19598_56613)">
<path d="M107.241 52.3757H17.7378C15.907 52.3757 14.4229 53.8599 14.4229 55.6906V72.2652C14.4229 74.096 15.907 75.5802 17.7378 75.5802H107.241C109.071 75.5802 110.555 74.096 110.555 72.2652V55.6906C110.555 53.8599 109.071 52.3757 107.241 52.3757Z" fill="white"/>
</g>
<path d="M60.1689 57.6797H42.9313C41.8329 57.6797 40.9424 58.5702 40.9424 59.6686C40.9424 60.7671 41.8329 61.6576 42.9313 61.6576H60.1689C61.2674 61.6576 62.1579 60.7671 62.1579 59.6686C62.1579 58.5702 61.2674 57.6797 60.1689 57.6797Z" fill="#E6EAED"/>
<path d="M72.1026 66.2983H42.9313C41.8329 66.2983 40.9424 67.1888 40.9424 68.2873C40.9424 69.3858 41.8329 70.2762 42.9313 70.2762H72.1026C73.2011 70.2762 74.0916 69.3858 74.0916 68.2873C74.0916 67.1888 73.2011 66.2983 72.1026 66.2983Z" fill="#F2F2F2"/>
<path d="M35.6381 63.978C35.6381 58.6687 31.3341 54.3647 26.0249 54.3647C20.7156 54.3647 16.4116 58.6687 16.4116 63.978C16.4116 69.2873 20.7156 73.5913 26.0249 73.5913C31.3341 73.5913 35.6381 69.2873 35.6381 63.978Z" fill="#D2D6D9"/>
<path d="M25.4287 67.0899C26.2517 67.0898 27.051 66.8144 27.6994 66.3076L29.7381 68.3462L30.3938 67.6906L28.3544 65.6512C28.8668 64.9888 29.1397 64.1723 29.1286 63.3349C29.1176 62.4975 28.8232 61.6885 28.2936 61.0398C27.7639 60.3912 27.0301 59.941 26.2118 59.7627C25.3936 59.5844 24.539 59.6885 23.7875 60.0581C23.036 60.4276 22.4318 61.0408 22.0734 61.7977C21.7149 62.5546 21.6234 63.4106 21.8138 64.2261C22.0041 65.0417 22.4651 65.7687 23.1215 66.2888C23.778 66.8088 24.5912 67.0912 25.4287 67.0899ZM25.4287 60.5966C25.9794 60.5966 26.5178 60.7599 26.9757 61.0659C27.4336 61.3719 27.7905 61.8068 28.0012 62.3156C28.212 62.8244 28.2671 63.3842 28.1597 63.9244C28.0523 64.4645 27.7871 64.9607 27.3976 65.3501C27.0082 65.7395 26.5121 66.0047 25.9719 66.1122C25.4318 66.2196 24.8719 66.1645 24.3631 65.9537C23.8543 65.743 23.4194 65.3861 23.1134 64.9282C22.8074 64.4702 22.6441 63.9319 22.6441 63.3812C22.6441 62.6427 22.9375 61.9344 23.4597 61.4122C23.9819 60.89 24.6902 60.5966 25.4287 60.5966Z" fill="white"/>
<defs>
<filter id="filter0_d_19598_56613" x="20.3898" y="20.5526" width="104.089" height="31.1601" filterUnits="userSpaceOnUse" color-interpolation-filters="sRGB">
<feFlood flood-opacity="0" result="BackgroundImageFix"/>
<feColorMatrix in="SourceAlpha" type="matrix" values="0 0 0 0 0 0 0 0 0 0 0 0 0 0 0 0 0 0 127 0" result="hardAlpha"/>
<feOffset dy="1.98895"/>
<feGaussianBlur stdDeviation="1.98895"/>
<feColorMatrix type="matrix" values="0 0 0 0 0 0 0 0 0 0 0 0 0 0 0 0 0 0 0.161 0"/>
<feBlend mode="normal" in2="BackgroundImageFix" result="effect1_dropShadow_19598_56613"/>
<feBlend mode="normal" in="SourceGraphic" in2="effect1_dropShadow_19598_56613" result="shape"/>
</filter>
<filter id="filter1_d_19598_56613" x="10.445" y="50.3868" width="104.089" height="31.1601" filterUnits="userSpaceOnUse" color-interpolation-filters="sRGB">
<feFlood flood-opacity="0" result="BackgroundImageFix"/>
<feColorMatrix in="SourceAlpha" type="matrix" values="0 0 0 0 0 0 0 0 0 0 0 0 0 0 0 0 0 0 127 0" result="hardAlpha"/>
<feOffset dy="1.98895"/>
<feGaussianBlur stdDeviation="1.98895"/>
<feColorMatrix type="matrix" values="0 0 0 0 0 0 0 0 0 0 0 0 0 0 0 0 0 0 0.161 0"/>
<feBlend mode="normal" in2="BackgroundImageFix" result="effect1_dropShadow_19598_56613"/>
<feBlend mode="normal" in="SourceGraphic" in2="effect1_dropShadow_19598_56613" result="shape"/>
</filter>
</defs>
</svg>
