<svg width="60" height="23" viewBox="0 0 60 23" fill="none" xmlns="http://www.w3.org/2000/svg">
<rect y="0.0324707" width="60" height="22" rx="11" fill="#ED1B2E"/>
<rect x="8" y="5.03247" width="12" height="12" rx="6" fill="white"/>
<path d="M16.1341 9.34835C16.2584 9.22409 16.2584 9.02263 16.1341 8.89837C16.0099 8.77411 15.8084 8.77411 15.6841 8.89837L14 10.5825L12.3159 8.89837C12.1917 8.77411 11.9902 8.77411 11.866 8.89837C11.7417 9.02263 11.7417 9.22409 11.866 9.34835L13.5501 11.0324L11.866 12.7166C11.7417 12.8408 11.7417 13.0423 11.866 13.1665C11.9902 13.2908 12.1917 13.2908 12.3159 13.1665L14 11.4824L15.6841 13.1665C15.8084 13.2908 16.0099 13.2908 16.1341 13.1665C16.2584 13.0423 16.2584 12.8408 16.1341 12.7166L14.45 11.0324L16.1341 9.34835Z" fill="#ED1B2E"/>
<path d="M24.7 6.98247H29.46V8.21247H26.24V9.83247H29.26V11.0625H26.24V14.0325H24.7V6.98247ZM32.3362 9.00247C33.0695 9.00247 33.6095 9.1758 33.9562 9.52247C34.3095 9.86914 34.4862 10.4058 34.4862 11.1325V14.0325H33.0562V13.3025C32.9562 13.5558 32.7895 13.7558 32.5562 13.9025C32.3228 14.0425 32.0495 14.1125 31.7362 14.1125C31.4028 14.1125 31.0995 14.0458 30.8262 13.9125C30.5595 13.7791 30.3462 13.5925 30.1862 13.3525C30.0328 13.1125 29.9562 12.8458 29.9562 12.5525C29.9562 12.1925 30.0462 11.9091 30.2262 11.7025C30.4128 11.4958 30.7095 11.3458 31.1162 11.2525C31.5228 11.1591 32.0795 11.1125 32.7862 11.1125H33.0462V10.9325C33.0462 10.6391 32.9828 10.4325 32.8562 10.3125C32.7295 10.1925 32.5095 10.1325 32.1962 10.1325C31.9562 10.1325 31.6895 10.1758 31.3962 10.2625C31.1028 10.3491 30.8228 10.4691 30.5562 10.6225L30.1562 9.61247C30.4362 9.43914 30.7795 9.2958 31.1862 9.18247C31.5995 9.06247 31.9828 9.00247 32.3362 9.00247ZM32.0662 13.0725C32.3595 13.0725 32.5962 12.9758 32.7762 12.7825C32.9562 12.5825 33.0462 12.3258 33.0462 12.0125V11.8425H32.8762C32.3362 11.8425 31.9562 11.8858 31.7362 11.9725C31.5228 12.0591 31.4162 12.2158 31.4162 12.4425C31.4162 12.6225 31.4762 12.7725 31.5962 12.8925C31.7228 13.0125 31.8795 13.0725 32.0662 13.0725ZM35.6152 9.12247H37.1252V14.0325H35.6152V9.12247ZM37.1852 6.76247V8.17247H35.5652V6.76247H37.1852ZM38.2812 6.98247H39.7912V14.0325H38.2812V6.98247ZM45.3672 11.8625H42.1672C42.2139 12.2558 42.3405 12.5425 42.5472 12.7225C42.7605 12.8958 43.0605 12.9825 43.4472 12.9825C43.7005 12.9825 43.9505 12.9425 44.1972 12.8625C44.4505 12.7758 44.6805 12.6558 44.8872 12.5025L45.2872 13.5125C45.0472 13.6991 44.7539 13.8458 44.4072 13.9525C44.0672 14.0591 43.7239 14.1125 43.3772 14.1125C42.5505 14.1125 41.8972 13.8858 41.4172 13.4325C40.9439 12.9725 40.7072 12.3491 40.7072 11.5625C40.7072 11.0625 40.8105 10.6191 41.0172 10.2325C41.2239 9.8458 41.5105 9.5458 41.8772 9.33247C42.2439 9.11247 42.6605 9.00247 43.1272 9.00247C43.8139 9.00247 44.3572 9.2258 44.7572 9.67247C45.1639 10.1191 45.3672 10.7258 45.3672 11.4925V11.8625ZM43.1672 10.0425C42.8805 10.0425 42.6505 10.1358 42.4772 10.3225C42.3105 10.5025 42.2072 10.7658 42.1672 11.1125H44.0972C44.0772 10.7591 43.9872 10.4925 43.8272 10.3125C43.6739 10.1325 43.4539 10.0425 43.1672 10.0425ZM51.2492 6.98247V14.0325H49.7492V13.3025C49.6026 13.5558 49.3926 13.7558 49.1192 13.9025C48.8526 14.0425 48.5492 14.1125 48.2092 14.1125C47.7892 14.1125 47.4126 14.0058 47.0792 13.7925C46.7526 13.5725 46.4959 13.2691 46.3092 12.8825C46.1292 12.4891 46.0392 12.0391 46.0392 11.5325C46.0392 11.0258 46.1292 10.5825 46.3092 10.2025C46.4959 9.8158 46.7526 9.51914 47.0792 9.31247C47.4059 9.1058 47.7826 9.00247 48.2092 9.00247C48.5426 9.00247 48.8426 9.07247 49.1092 9.21247C49.3826 9.35247 49.5926 9.54914 49.7392 9.80247V6.98247H51.2492ZM48.6492 12.9625C49.0026 12.9625 49.2726 12.8425 49.4592 12.6025C49.6526 12.3558 49.7492 12.0058 49.7492 11.5525C49.7492 11.0991 49.6526 10.7525 49.4592 10.5125C49.2726 10.2725 49.0026 10.1525 48.6492 10.1525C48.2959 10.1525 48.0226 10.2725 47.8292 10.5125C47.6359 10.7458 47.5392 11.0858 47.5392 11.5325C47.5392 11.9858 47.6359 12.3391 47.8292 12.5925C48.0226 12.8391 48.2959 12.9625 48.6492 12.9625Z" fill="white"/>
</svg>
