<svg width="24" height="24" viewBox="0 0 24 24" fill="none" xmlns="http://www.w3.org/2000/svg">
<path d="M17.8164 4.81785C19.4204 4.81785 20.7102 6.24435 20.7102 7.99795C20.7102 9.7152 19.47 11.1144 17.9239 11.178C17.8525 11.169 17.7804 11.169 17.709 11.178M19.4121 19.3554C20.0074 19.2191 20.5697 18.9557 21.0327 18.565C22.3224 17.5019 22.3224 15.7483 21.0327 14.6852C20.5779 14.3036 20.024 14.0492 19.437 13.9038M6.18356 4.81785C4.57958 4.81785 3.28979 6.24435 3.28979 7.99795C3.28979 9.7152 4.52998 11.1144 6.07607 11.178C6.14749 11.169 6.21962 11.169 6.29104 11.178M4.58785 19.3554C3.99256 19.2191 3.43035 18.9556 2.96734 18.5649C1.67755 17.5019 1.67755 15.7483 2.96734 14.6852C3.42208 14.3036 3.97603 14.0492 4.56305 13.9038M11.8222 11.0599C11.7395 11.0508 11.6403 11.0508 11.5494 11.0599C10.6004 11.0245 9.7012 10.5846 9.04224 9.83328C8.38328 9.08198 8.01629 8.07832 8.01898 7.03483C8.01898 4.80877 9.65603 3.00066 11.6899 3.00066C12.6624 2.98138 13.6021 3.38744 14.3021 4.12951C15.0022 4.87158 15.4053 5.88888 15.4229 6.9576C15.4404 8.02633 15.0709 9.05894 14.3957 9.82828C13.7204 10.5976 12.7947 11.0406 11.8222 11.0599ZM7.68827 14.4127C5.68743 15.8846 5.68743 18.2833 7.68827 19.7461C9.96194 21.418 13.6908 21.418 15.9644 19.7461C17.9653 18.2742 17.9653 15.8755 15.9644 14.4127C13.699 12.7499 9.97021 12.7499 7.68827 14.4127Z" stroke="black" stroke-width="1.5" stroke-linecap="round" stroke-linejoin="round"/>
</svg>
