<svg width="48" height="46" viewBox="0 0 48 46" fill="none" xmlns="http://www.w3.org/2000/svg">
<path d="M47.5 23C47.5 35.4066 36.999 45.5 24 45.5C11.001 45.5 0.5 35.4066 0.5 23C0.5 10.5934 11.001 0.5 24 0.5C36.999 0.5 47.5 10.5934 47.5 23Z" stroke="#CC2F26"/>
<mask id="mask0_7410_31261" style="mask-type:alpha" maskUnits="userSpaceOnUse" x="10" y="9" width="29" height="29">
<rect x="10" y="9" width="28.1818" height="28.1818" fill="#D9D9D9"/>
</mask>
<g mask="url(#mask0_7410_31261)">
</g>
<path d="M26.3046 33.1592H24.1625C23.7839 33.1588 23.4209 33.0031 23.1532 32.7261C22.8854 32.4492 22.7349 32.0736 22.7345 31.682V27.9888H24.1625V31.682H26.3046V27.9888H27.7326V25.0342C27.7324 24.8384 27.6571 24.6506 27.5233 24.5121C27.3894 24.3737 27.2079 24.2958 27.0186 24.2956H20.7924L19.3643 19.8638H14.8803C14.691 19.864 14.5095 19.9418 14.3757 20.0803C14.2418 20.2188 14.1665 20.4066 14.1663 20.6024V25.0342H15.5943V31.682H18.4504V26.5115H19.8784V31.682C19.8781 32.0736 19.7275 32.4492 19.4598 32.7261C19.192 33.0031 18.829 33.1588 18.4504 33.1592H15.5943C15.2157 33.1588 14.8527 33.0031 14.585 32.7261C14.3173 32.4492 14.1667 32.0736 14.1663 31.682V26.5115C13.7877 26.5111 13.4247 26.3553 13.157 26.0784C12.8892 25.8014 12.7387 25.4259 12.7383 25.0342V20.6024C12.7388 20.0149 12.9647 19.4516 13.3663 19.0362C13.7679 18.6207 14.3124 18.3871 14.8803 18.3865H19.3643C19.664 18.3863 19.9561 18.4837 20.1993 18.665C20.4424 18.8462 20.6242 19.1021 20.7188 19.3962L21.8206 22.8183H27.0186C27.5865 22.8189 28.131 23.0526 28.5326 23.468C28.9342 23.8834 29.1601 24.4467 29.1606 25.0342V27.9888C29.1603 28.3804 29.0097 28.756 28.742 29.0329C28.4742 29.3099 28.1112 29.4657 27.7326 29.466V31.682C27.7322 32.0736 27.5816 32.4492 27.3139 32.7261C27.0462 33.0031 26.6832 33.1588 26.3046 33.1592ZM32.0167 33.1592H30.5887V25.0342H32.7307V20.6024C32.7305 20.4066 32.6552 20.2188 32.5214 20.0803C32.3875 19.9418 32.206 19.864 32.0167 19.8638H29.1606V18.3865H32.0167C32.5846 18.3871 33.1291 18.6207 33.5307 19.0362C33.9323 19.4516 34.1582 20.0149 34.1587 20.6024V25.0342C34.1584 25.4259 34.0078 25.8014 33.7401 26.0784C33.4723 26.3553 33.1093 26.5111 32.7307 26.5115H32.0167V33.1592ZM17.0224 17.6479C16.4575 17.6479 15.9053 17.4746 15.4356 17.1499C14.966 16.8253 14.5999 16.3638 14.3837 15.824C14.1675 15.2841 14.111 14.69 14.2212 14.1169C14.3314 13.5438 14.6034 13.0173 15.0028 12.6041C15.4023 12.1909 15.9112 11.9095 16.4652 11.7955C17.0192 11.6815 17.5935 11.74 18.1153 11.9637C18.6372 12.1873 19.0833 12.566 19.3971 13.0519C19.7109 13.5377 19.8784 14.109 19.8784 14.6933C19.8775 15.4766 19.5763 16.2275 19.0409 16.7814C18.5055 17.3353 17.7796 17.6469 17.0224 17.6479ZM17.0224 13.216C16.7399 13.216 16.4638 13.3027 16.229 13.465C15.9942 13.6273 15.8111 13.8581 15.703 14.128C15.595 14.3979 15.5667 14.695 15.6218 14.9815C15.6769 15.2681 15.8129 15.5313 16.0126 15.7379C16.2123 15.9445 16.4668 16.0852 16.7438 16.1422C17.0208 16.1992 17.3079 16.1699 17.5689 16.0581C17.8298 15.9463 18.0528 15.757 18.2097 15.514C18.3666 15.2711 18.4504 14.9855 18.4504 14.6933C18.45 14.3016 18.2994 13.9261 18.0317 13.6492C17.764 13.3722 17.401 13.2164 17.0224 13.216ZM29.8746 17.6479C29.3098 17.6479 28.7576 17.4746 28.2879 17.1499C27.8182 16.8253 27.4522 16.3638 27.236 15.824C27.0198 15.2841 26.9633 14.69 27.0735 14.1169C27.1837 13.5438 27.4557 13.0173 27.8551 12.6041C28.2545 12.1909 28.7634 11.9095 29.3175 11.7955C29.8715 11.6815 30.4457 11.74 30.9676 11.9637C31.4895 12.1873 31.9355 12.566 32.2494 13.0519C32.5632 13.5377 32.7307 14.109 32.7307 14.6933C32.7298 15.4766 32.4286 16.2275 31.8931 16.7814C31.3577 17.3353 30.6318 17.6469 29.8746 17.6479ZM29.8746 13.216C29.5922 13.216 29.3161 13.3027 29.0813 13.465C28.8464 13.6273 28.6634 13.8581 28.5553 14.128C28.4472 14.3979 28.419 14.695 28.4741 14.9815C28.5292 15.2681 28.6652 15.5313 28.8649 15.7379C29.0646 15.9445 29.319 16.0852 29.5961 16.1422C29.8731 16.1992 30.1602 16.1699 30.4211 16.0581C30.6821 15.9463 30.9051 15.757 31.062 15.514C31.2189 15.2711 31.3027 14.9855 31.3027 14.6933C31.3023 14.3016 31.1517 13.9261 30.884 13.6492C30.6163 13.3722 30.2533 13.2164 29.8746 13.216Z" fill="#CC2F26"/>
<path d="M25.5852 22.1705C25.0739 22.1705 24.5741 22.0188 24.149 21.7348C23.7238 21.4507 23.3925 21.0469 23.1968 20.5746C23.0011 20.1022 22.9499 19.5824 23.0497 19.0809C23.1494 18.5794 23.3956 18.1187 23.7572 17.7572C24.1187 17.3956 24.5794 17.1494 25.0809 17.0497C25.5824 16.9499 26.1022 17.0011 26.5746 17.1968C27.0469 17.3925 27.4507 17.7238 27.7348 18.149C28.0188 18.5741 28.1705 19.0739 28.1705 19.5852C28.1697 20.2706 27.8971 20.9277 27.4124 21.4124C26.9277 21.8971 26.2706 22.1697 25.5852 22.1705ZM25.5852 18.4773C25.3661 18.4773 25.1519 18.5423 24.9697 18.664C24.7875 18.7857 24.6455 18.9588 24.5616 19.1612C24.4778 19.3637 24.4558 19.5865 24.4986 19.8014C24.5413 20.0163 24.6468 20.2137 24.8018 20.3687C24.9567 20.5236 25.1542 20.6291 25.3691 20.6719C25.584 20.7146 25.8068 20.6927 26.0092 20.6088C26.2117 20.525 26.3847 20.383 26.5065 20.2008C26.6282 20.0186 26.6932 19.8044 26.6932 19.5852C26.6928 19.2915 26.5759 19.0099 26.3682 18.8022C26.1605 18.5945 25.879 18.4777 25.5852 18.4773Z" fill="#CC2F26"/>
</svg>
