<svg width="48" height="48" viewBox="0 0 48 48" fill="none" xmlns="http://www.w3.org/2000/svg">
<rect width="48" height="48" rx="24" fill="#F2F2F2"/>
<path d="M30.9797 15.3814C32.9045 15.3814 34.4523 17.0932 34.4523 19.1975C34.4523 21.2582 32.964 22.9373 31.1087 23.0136C31.023 23.0027 30.9365 23.0027 30.8508 23.0136M32.8946 32.8265C33.6089 32.6629 34.2836 32.3467 34.8392 31.8779C36.3869 30.6022 36.3869 28.4979 34.8392 27.2222C34.2935 26.7643 33.6288 26.459 32.9243 26.2846M17.0203 15.3814C15.0955 15.3814 13.5478 17.0932 13.5478 19.1975C13.5478 21.2582 15.036 22.9373 16.8913 23.0136C16.977 23.0027 17.0635 23.0027 17.1492 23.0136M15.1054 32.8265C14.3911 32.6629 13.7164 32.3467 13.1608 31.8779C11.6131 30.6022 11.6131 28.4979 13.1608 27.2222C13.7065 26.7643 14.3712 26.459 15.0757 26.2846M23.7867 22.8719C23.6874 22.861 23.5684 22.861 23.4593 22.8719C22.3205 22.8294 21.2414 22.3015 20.4507 21.3999C19.6599 20.4983 19.2195 19.2939 19.2228 18.0418C19.2228 15.3705 21.1872 13.2007 23.6279 13.2007C24.7949 13.1776 25.9225 13.6649 26.7626 14.5554C27.6026 15.4459 28.0864 16.6666 28.1075 17.9491C28.1285 19.2315 27.6851 20.4707 26.8748 21.3939C26.0645 22.3171 24.9537 22.8487 23.7867 22.8719ZM18.8259 26.8951C16.4249 28.6615 16.4249 31.5399 18.8259 33.2953C21.5543 35.3015 26.0289 35.3015 28.7573 33.2953C31.1583 31.529 31.1583 28.6506 28.7573 26.8951C26.0388 24.8999 21.5642 24.8999 18.8259 26.8951Z" stroke="#030F1A" stroke-width="1.8" stroke-linecap="round" stroke-linejoin="round"/>
</svg>
