<svg width="30" height="24" viewBox="0 0 30 24" fill="none" xmlns="http://www.w3.org/2000/svg">
<path d="M12.75 5.1C12.1591 5.1 11.5739 5.21898 11.0279 5.45015C10.482 5.68133 9.98588 6.02016 9.56802 6.44731C9.15016 6.87446 8.81869 7.38156 8.59254 7.93966C8.3664 8.49775 8.25 9.09592 8.25 9.7C8.25 10.3041 8.3664 10.9022 8.59254 11.4603C8.81869 12.0184 9.15016 12.5255 9.56802 12.9527C9.98588 13.3798 10.482 13.7187 11.0279 13.9498C11.5739 14.181 12.1591 14.3 12.75 14.3C13.9435 14.3 15.0881 13.8154 15.932 12.9527C16.7759 12.09 17.25 10.92 17.25 9.7C17.25 8.48 16.7759 7.30998 15.932 6.44731C15.0881 5.58464 13.9435 5.1 12.75 5.1ZM10.5 9.7C10.5 9.09 10.7371 8.50499 11.159 8.07365C11.581 7.64232 12.1533 7.4 12.75 7.4C13.3467 7.4 13.919 7.64232 14.341 8.07365C14.7629 8.50499 15 9.09 15 9.7C15 10.31 14.7629 10.895 14.341 11.3263C13.919 11.7577 13.3467 12 12.75 12C12.1533 12 11.581 11.7577 11.159 11.3263C10.7371 10.895 10.5 10.31 10.5 9.7ZM0 3.95C0 3.035 0.355579 2.15748 0.988515 1.51048C1.62145 0.863481 2.47989 0.5 3.375 0.5H22.125C22.5682 0.5 23.0071 0.589237 23.4166 0.762615C23.826 0.935994 24.1981 1.19012 24.5115 1.51048C24.8249 1.83084 25.0735 2.21117 25.2431 2.62974C25.4127 3.04832 25.5 3.49694 25.5 3.95V15.45C25.5 15.9031 25.4127 16.3517 25.2431 16.7703C25.0735 17.1888 24.8249 17.5692 24.5115 17.8895C24.1981 18.2099 23.826 18.464 23.4166 18.6374C23.0071 18.8108 22.5682 18.9 22.125 18.9H3.375C2.47989 18.9 1.62145 18.5365 0.988515 17.8895C0.355579 17.2425 0 16.365 0 15.45V3.95ZM3.375 2.8C3.07663 2.8 2.79048 2.92116 2.5795 3.13683C2.36853 3.35249 2.25 3.645 2.25 3.95V5.1H3.375C3.67337 5.1 3.95952 4.97884 4.1705 4.76317C4.38147 4.54751 4.5 4.255 4.5 3.95V2.8H3.375ZM2.25 12H3.375C4.27011 12 5.12855 12.3635 5.76149 13.0105C6.39442 13.6575 6.75 14.535 6.75 15.45V16.6H18.75V15.45C18.75 14.535 19.1056 13.6575 19.7385 13.0105C20.3715 12.3635 21.2299 12 22.125 12H23.25V7.4H22.125C21.2299 7.4 20.3715 7.03652 19.7385 6.38952C19.1056 5.74252 18.75 4.865 18.75 3.95V2.8H6.75V3.95C6.75 4.40306 6.6627 4.85168 6.49309 5.27026C6.32348 5.68883 6.07488 6.06916 5.76149 6.38952C5.44809 6.70988 5.07603 6.96401 4.66656 7.13738C4.25708 7.31076 3.81821 7.4 3.375 7.4H2.25V12ZM23.25 5.1V3.95C23.25 3.645 23.1315 3.35249 22.9205 3.13683C22.7095 2.92116 22.4234 2.8 22.125 2.8H21V3.95C21 4.5848 21.504 5.1 22.125 5.1H23.25ZM23.25 14.3H22.125C21.8266 14.3 21.5405 14.4212 21.3295 14.6368C21.1185 14.8525 21 15.145 21 15.45V16.6H22.125C22.4234 16.6 22.7095 16.4788 22.9205 16.2632C23.1315 16.0475 23.25 15.755 23.25 15.45V14.3ZM2.25 15.45C2.25 16.0848 2.754 16.6 3.375 16.6H4.5V15.45C4.5 15.145 4.38147 14.8525 4.1705 14.6368C3.95952 14.4212 3.67337 14.3 3.375 14.3H2.25V15.45ZM3.6015 21.2C3.99646 21.8996 4.56472 22.4805 5.2491 22.8843C5.93348 23.288 6.70982 23.5004 7.5 23.5H22.875C23.8107 23.5 24.7372 23.3116 25.6016 22.9456C26.4661 22.5796 27.2515 22.0431 27.9131 21.3668C28.5748 20.6904 29.0996 19.8875 29.4576 19.0039C29.8157 18.1202 30 17.1731 30 16.2167V8.16667C30.0002 7.35896 29.7924 6.56542 29.3975 5.86586C29.0025 5.16631 28.4343 4.58539 27.75 4.18153V16.2167C27.75 17.5383 27.2364 18.8059 26.3221 19.7404C25.4079 20.675 24.1679 21.2 22.875 21.2H3.6015Z" fill="#00B27C"/>
</svg>
