<svg width="48" height="46" viewBox="0 0 48 46" fill="none" xmlns="http://www.w3.org/2000/svg">
<path d="M47.5 23C47.5 35.4066 36.999 45.5 24 45.5C11.001 45.5 0.5 35.4066 0.5 23C0.5 10.5934 11.001 0.5 24 0.5C36.999 0.5 47.5 10.5934 47.5 23Z" stroke="#00B27C"/>
<path d="M22.2487 19.3335C21.7891 19.3335 21.3339 19.424 20.9093 19.5999C20.4847 19.7758 20.0988 20.0336 19.7738 20.3586C19.4488 20.6836 19.191 21.0695 19.0151 21.4941C18.8392 21.9187 18.7487 22.3739 18.7487 22.8335C18.7487 23.2931 18.8392 23.7482 19.0151 24.1729C19.191 24.5975 19.4488 24.9834 19.7738 25.3084C20.0988 25.6334 20.4847 25.8912 20.9093 26.0671C21.3339 26.243 21.7891 26.3335 22.2487 26.3335C23.177 26.3335 24.0672 25.9647 24.7236 25.3084C25.38 24.652 25.7487 23.7618 25.7487 22.8335C25.7487 21.9052 25.38 21.015 24.7236 20.3586C24.0672 19.7022 23.177 19.3335 22.2487 19.3335ZM20.4987 22.8335C20.4987 22.3694 20.6831 21.9242 21.0113 21.5961C21.3394 21.2679 21.7846 21.0835 22.2487 21.0835C22.7128 21.0835 23.1579 21.2679 23.4861 21.5961C23.8143 21.9242 23.9987 22.3694 23.9987 22.8335C23.9987 23.2976 23.8143 23.7427 23.4861 24.0709C23.1579 24.3991 22.7128 24.5835 22.2487 24.5835C21.7846 24.5835 21.3394 24.3991 21.0113 24.0709C20.6831 23.7427 20.4987 23.2976 20.4987 22.8335ZM12.332 18.4585C12.332 17.7623 12.6086 17.0946 13.1009 16.6023C13.5932 16.1101 14.2608 15.8335 14.957 15.8335H29.5404C29.8851 15.8335 30.2264 15.9014 30.5449 16.0333C30.8634 16.1652 31.1528 16.3586 31.3965 16.6023C31.6403 16.8461 31.8336 17.1355 31.9656 17.454C32.0975 17.7724 32.1654 18.1138 32.1654 18.4585V27.2085C32.1654 27.5532 32.0975 27.8946 31.9656 28.213C31.8336 28.5315 31.6403 28.8209 31.3965 29.0647C31.1528 29.3084 30.8634 29.5018 30.5449 29.6337C30.2264 29.7656 29.8851 29.8335 29.5404 29.8335H14.957C14.2608 29.8335 13.5932 29.5569 13.1009 29.0647C12.6086 28.5724 12.332 27.9047 12.332 27.2085V18.4585ZM14.957 17.5835C14.725 17.5835 14.5024 17.6757 14.3383 17.8398C14.1742 18.0039 14.082 18.2264 14.082 18.4585V19.3335H14.957C15.1891 19.3335 15.4117 19.2413 15.5758 19.0772C15.7398 18.9131 15.832 18.6906 15.832 18.4585V17.5835H14.957ZM14.082 24.5835H14.957C15.6532 24.5835 16.3209 24.8601 16.8132 25.3523C17.3055 25.8446 17.582 26.5123 17.582 27.2085V28.0835H26.9154V27.2085C26.9154 26.5123 27.1919 25.8446 27.6842 25.3523C28.1765 24.8601 28.8442 24.5835 29.5404 24.5835H30.4154V21.0835H29.5404C28.8442 21.0835 28.1765 20.8069 27.6842 20.3147C27.1919 19.8224 26.9154 19.1547 26.9154 18.4585V17.5835H17.582V18.4585C17.582 18.8032 17.5141 19.1446 17.3822 19.463C17.2503 19.7815 17.0569 20.0709 16.8132 20.3147C16.5694 20.5584 16.2801 20.7518 15.9616 20.8837C15.6431 21.0156 15.3018 21.0835 14.957 21.0835H14.082V24.5835ZM30.4154 19.3335V18.4585C30.4154 18.2264 30.3232 18.0039 30.1591 17.8398C29.995 17.6757 29.7724 17.5835 29.5404 17.5835H28.6654V18.4585C28.6654 18.9415 29.0574 19.3335 29.5404 19.3335H30.4154ZM30.4154 26.3335H29.5404C29.3083 26.3335 29.0857 26.4257 28.9216 26.5898C28.7576 26.7539 28.6654 26.9764 28.6654 27.2085V28.0835H29.5404C29.7724 28.0835 29.995 27.9913 30.1591 27.8272C30.3232 27.6631 30.4154 27.4406 30.4154 27.2085V26.3335ZM14.082 27.2085C14.082 27.6915 14.474 28.0835 14.957 28.0835H15.832V27.2085C15.832 26.9764 15.7398 26.7539 15.5758 26.5898C15.4117 26.4257 15.1891 26.3335 14.957 26.3335H14.082V27.2085ZM15.1332 31.5835C15.4404 32.1158 15.8824 32.5578 16.4147 32.865C16.947 33.1722 17.5508 33.3338 18.1654 33.3335H30.1237C30.8514 33.3335 31.5721 33.1902 32.2444 32.9117C32.9167 32.6332 33.5277 32.225 34.0422 31.7104C34.5568 31.1958 34.965 30.5849 35.2435 29.9125C35.522 29.2402 35.6654 28.5196 35.6654 27.7918V21.6668C35.6656 21.0523 35.5039 20.4485 35.1967 19.9162C34.8895 19.3839 34.4476 18.9419 33.9154 18.6347V27.7918C33.9154 28.7974 33.5159 29.7619 32.8048 30.4729C32.0937 31.184 31.1293 31.5835 30.1237 31.5835H15.1332Z" fill="#00B27C"/>
</svg>
