<svg width="26" height="26" viewBox="0 0 26 26" fill="none" xmlns="http://www.w3.org/2000/svg">
<path d="M15.1673 2.4585V6.93325C15.1673 7.53997 15.1673 7.84333 15.2854 8.07507C15.3893 8.27891 15.555 8.44464 15.7588 8.5485C15.9906 8.66658 16.2939 8.66658 16.9007 8.66658H21.3754M17.334 14.0832H8.66732M17.334 18.4165H8.66732M10.834 9.74984H8.66732M15.1673 2.1665H9.53398C7.71381 2.1665 6.80373 2.1665 6.10852 2.52073C5.49699 2.83232 4.9998 3.32951 4.68821 3.94103C4.33398 4.63625 4.33398 5.54633 4.33398 7.3665V18.6332C4.33398 20.4533 4.33398 21.3634 4.68821 22.0586C4.9998 22.6702 5.49699 23.1674 6.10852 23.4789C6.80373 23.8332 7.71381 23.8332 9.53398 23.8332H16.4673C18.2875 23.8332 19.1976 23.8332 19.8928 23.4789C20.5043 23.1674 21.0015 22.6702 21.3131 22.0586C21.6673 21.3634 21.6673 20.4533 21.6673 18.6332V8.6665L15.1673 2.1665Z" stroke="#063D80" stroke-width="2" stroke-linecap="round" stroke-linejoin="round"/>
</svg>
