   <svg
                  width="14"
                  height="15"
                  viewBox="0 0 22 23"
                  fill="none"
                  xmlns="http://www.w3.org/2000/svg"
                >
                  <path
                    d="M5.99861 7.4879C7.65506 7.4879 8.99787 6.14746 8.99787 4.49395C8.99787 2.84044 7.65506 1.5 5.99861 1.5C4.34217 1.5 2.99936 2.84044 2.99936 4.49395C2.99936 6.14746 4.34217 7.4879 5.99861 7.4879Z"
                    stroke="#007AFF"
                    stroke-width="2"
                    stroke-miterlimit="10"
                    stroke-linecap="round"
                  />
                  <path
                    d="M8.99292 4.49365H20.9899"
                    stroke="#007AFF"
                    stroke-width="2"
                    stroke-miterlimit="10"
                    stroke-linecap="round"
                  />
                  <path
                    d="M1.00488 4.49365H2.99939"
                    stroke="#007AFF"
                    stroke-width="2"
                    stroke-miterlimit="10"
                    stroke-linecap="round"
                  />
                  <path
                    d="M15.9963 14.4693C17.6528 14.4693 18.9956 13.1289 18.9956 11.4754C18.9956 9.82188 17.6528 8.48145 15.9963 8.48145C14.3399 8.48145 12.9971 9.82188 12.9971 11.4754C12.9971 13.1289 14.3399 14.4693 15.9963 14.4693Z"
                    stroke="#007AFF"
                    stroke-width="2"
                    stroke-miterlimit="10"
                    stroke-linecap="round"
                  />
                  <path
                    d="M10.9975 21.5001C12.654 21.5001 13.9968 20.1597 13.9968 18.5062C13.9968 16.8526 12.654 15.5122 10.9975 15.5122C9.3411 15.5122 7.99829 16.8526 7.99829 18.5062C7.99829 20.1597 9.3411 21.5001 10.9975 21.5001Z"
                    stroke="#007AFF"
                    stroke-width="2"
                    stroke-miterlimit="10"
                    stroke-linecap="round"
                  />
                  <path
                    d="M12.9969 11.4751H1.00488"
                    stroke="#007AFF"
                    stroke-width="2"
                    stroke-miterlimit="10"
                    stroke-linecap="round"
                  />
                  <path
                    d="M20.9897 11.4751H18.9902"
                    stroke="#007AFF"
                    stroke-width="2"
                    stroke-miterlimit="10"
                    stroke-linecap="round"
                  />
                  <path
                    d="M1 18.5059H7.99826"
                    stroke="#007AFF"
                    stroke-width="2"
                    stroke-miterlimit="10"
                    stroke-linecap="round"
                  />
                  <path
                    d="M13.9917 18.5059H21"
                    stroke="#007AFF"
                    stroke-width="2"
                    stroke-miterlimit="10"
                    stroke-linecap="round"
                  />
                </svg>