<svg width="149" height="44" viewBox="0 0 149 44" fill="none" xmlns="http://www.w3.org/2000/svg">
<rect x="1" y="0.5" width="147.5" height="43" rx="4.5" fill="black"/>
<path d="M75.4499 23.9264C72.8627 23.9264 70.754 25.8943 70.754 28.6047C70.754 31.2986 72.8627 33.283 75.4499 33.283C78.0382 33.283 80.1469 31.2986 80.1469 28.6047C80.1458 25.8943 78.0371 23.9264 75.4499 23.9264ZM75.4499 31.4416C74.032 31.4416 72.8099 30.2723 72.8099 28.6058C72.8099 26.9217 74.0331 25.77 75.4499 25.77C76.8678 25.77 78.0899 26.9217 78.0899 28.6058C78.0899 30.2712 76.8678 31.4416 75.4499 31.4416ZM65.2045 23.9264C62.6173 23.9264 60.5086 25.8943 60.5086 28.6047C60.5086 31.2986 62.6173 33.283 65.2045 33.283C67.7928 33.283 69.9015 31.2986 69.9015 28.6047C69.9015 25.8943 67.7928 23.9264 65.2045 23.9264ZM65.2045 31.4416C63.7866 31.4416 62.5645 30.2723 62.5645 28.6058C62.5645 26.9217 63.7877 25.77 65.2045 25.77C66.6224 25.77 67.8445 26.9217 67.8445 28.6058C67.8456 30.2712 66.6224 31.4416 65.2045 31.4416ZM53.0187 25.363V27.3474H57.7685C57.6266 28.4639 57.2548 29.279 56.6872 29.8455C55.9964 30.5363 54.9151 31.2986 53.0187 31.2986C50.0949 31.2986 47.8091 28.9413 47.8091 26.0175C47.8091 23.0937 50.0949 20.7364 53.0187 20.7364C54.5961 20.7364 55.7478 21.3568 56.5981 22.1543L57.9984 20.754C56.8104 19.6199 55.2341 18.752 53.0187 18.752C49.0136 18.752 45.6465 22.0124 45.6465 26.0175C45.6465 30.0226 49.0136 33.283 53.0187 33.283C55.1802 33.283 56.8115 32.5735 58.0864 31.2447C59.3976 29.9335 59.8057 28.0899 59.8057 26.6016C59.8057 26.1418 59.7705 25.7161 59.699 25.3619H53.0187V25.363ZM102.857 26.9041C102.468 25.8591 101.28 23.9264 98.8524 23.9264C96.4423 23.9264 94.4392 25.8228 94.4392 28.6047C94.4392 31.2271 96.4247 33.283 99.0823 33.283C101.226 33.283 102.467 31.9718 102.982 31.2095L101.387 30.1458C100.855 30.9257 100.128 31.4394 99.0823 31.4394C98.0373 31.4394 97.2926 30.9609 96.8141 30.0215L103.07 27.4343L102.857 26.9041ZM96.4775 28.4639C96.4247 26.6555 97.8778 25.7348 98.9239 25.7348C99.739 25.7348 100.43 26.1429 100.661 26.727L96.4775 28.4639ZM91.3922 33.0003H93.447V19.2492H91.3922V33.0003ZM88.024 24.9725H87.9536C87.4927 24.4225 86.6061 23.9264 85.4907 23.9264C83.151 23.9264 81.0071 25.9823 81.0071 28.6234C81.0071 31.2458 83.151 33.2841 85.4907 33.2841C86.6072 33.2841 87.4927 32.788 87.9536 32.2215H88.024V32.8947C88.024 34.6844 87.067 35.6414 85.5259 35.6414C84.2675 35.6414 83.4876 34.7383 83.1686 33.976L81.3789 34.7207C81.8926 35.9604 83.2566 37.485 85.5259 37.485C87.936 37.485 89.9743 36.0671 89.9743 32.6109V24.2113H88.0251V24.9725H88.024ZM85.6678 31.4416C84.2499 31.4416 83.063 30.2536 83.063 28.6234C83.063 26.9745 84.2499 25.77 85.6678 25.77C87.067 25.77 88.1659 26.9745 88.1659 28.6234C88.1659 30.2536 87.067 31.4416 85.6678 31.4416ZM112.487 19.2492H107.569V33.0003H109.62V27.7907H112.486C114.761 27.7907 116.998 26.144 116.998 23.5205C116.998 20.897 114.762 19.2492 112.487 19.2492ZM112.54 25.8767H109.62V21.1632H112.54C114.074 21.1632 114.945 22.4337 114.945 23.5205C114.945 24.5853 114.074 25.8767 112.54 25.8767ZM125.225 23.9022C123.739 23.9022 122.2 24.5567 121.563 26.0076L123.385 26.7677C123.774 26.0076 124.5 25.759 125.26 25.759C126.322 25.759 127.401 26.3959 127.418 27.5278V27.6697C127.046 27.4574 126.25 27.1395 125.278 27.1395C123.314 27.1395 121.314 28.2186 121.314 30.2349C121.314 32.0752 122.925 33.2599 124.729 33.2599C126.108 33.2599 126.869 32.6406 127.347 31.9146H127.417V32.9761H129.399V27.7038C129.4 25.264 127.577 23.9022 125.225 23.9022ZM124.976 31.4383C124.305 31.4383 123.367 31.1017 123.367 30.2701C123.367 29.2086 124.535 28.8016 125.544 28.8016C126.445 28.8016 126.87 28.9963 127.418 29.2614C127.259 30.5363 126.162 31.4383 124.976 31.4383ZM136.618 24.2025L134.265 30.1645H134.194L131.752 24.2025H129.541L133.203 32.535L131.115 37.1704H133.256L138.9 24.2025H136.618ZM118.131 33.0003H120.182V19.2492H118.131V33.0003Z" fill="white"/>
<path d="M52.6599 11.2675C52.6599 12.1893 52.3871 12.923 51.8404 13.4708C51.22 14.122 50.4104 14.4476 49.416 14.4476C48.4634 14.4476 47.6527 14.1176 46.9872 13.4576C46.3206 12.7965 45.9873 11.9781 45.9873 11.0013C45.9873 10.0234 46.3206 9.20501 46.9872 8.54501C47.6527 7.88391 48.4634 7.55391 49.416 7.55391C49.889 7.55391 50.3411 7.64631 50.7701 7.83001C51.2002 8.01481 51.5445 8.26011 51.8019 8.56701L51.2222 9.14781C50.7855 8.62531 50.1838 8.36461 49.4149 8.36461C48.7197 8.36461 48.1191 8.60881 47.612 9.09721C47.1049 9.58561 46.8519 10.2203 46.8519 11.0002C46.8519 11.7801 47.1049 12.4148 47.612 12.9032C48.1191 13.3916 48.7197 13.6358 49.4149 13.6358C50.1519 13.6358 50.7668 13.3905 51.2585 12.8988C51.5775 12.5787 51.7623 12.1332 51.8118 11.5623H49.4149V10.7692H52.6126C52.6456 10.9419 52.6599 11.108 52.6599 11.2675Z" fill="white"/>
<path d="M57.731 8.51097H54.7258V10.6032H57.4362V11.3963H54.7258V13.4885H57.731V14.3003H53.8777V7.70027H57.731V8.51097Z" fill="white"/>
<path d="M61.307 14.3003H60.4589V8.51097H58.6153V7.70027H63.1506V8.51097H61.307V14.3003Z" fill="white"/>
<path d="M66.4318 14.3003V7.70027H67.2799V14.3003H66.4318Z" fill="white"/>
<path d="M71.041 14.3003H70.1929V8.51097H68.3493V7.70027H72.8846V8.51097H71.041V14.3003Z" fill="white"/>
<path d="M81.4699 13.4478C80.8209 14.1144 80.0146 14.4477 79.0499 14.4477C78.0852 14.4477 77.2789 14.1144 76.631 13.4478C75.982 12.7812 75.6586 11.965 75.6586 11.0003C75.6586 10.0356 75.982 9.21936 76.631 8.55276C77.2789 7.88616 78.0852 7.55176 79.0499 7.55176C80.0091 7.55176 80.8143 7.88726 81.4655 8.55716C82.1167 9.22706 82.4423 10.0411 82.4423 11.0003C82.4423 11.965 82.1178 12.7812 81.4699 13.4478ZM77.2569 12.8945C77.7453 13.3895 78.3426 13.6359 79.0499 13.6359C79.7572 13.6359 80.3556 13.3884 80.8429 12.8945C81.3313 12.3995 81.5766 11.7681 81.5766 11.0003C81.5766 10.2325 81.3313 9.60106 80.8429 9.10606C80.3556 8.61106 79.7572 8.36466 79.0499 8.36466C78.3426 8.36466 77.7453 8.61216 77.2569 9.10606C76.7696 9.60106 76.5243 10.2325 76.5243 11.0003C76.5243 11.7681 76.7696 12.3995 77.2569 12.8945Z" fill="white"/>
<path d="M83.6325 14.3003V7.70027H84.6643L87.8719 12.834H87.9082L87.8719 11.5624V7.70027H88.72V14.3003H87.8345L84.4784 8.91687H84.4421L84.4784 10.1885V14.3003H83.6325Z" fill="white"/>
<path d="M52.6599 11.2675C52.6599 12.1893 52.3871 12.923 51.8404 13.4708C51.22 14.122 50.4104 14.4476 49.416 14.4476C48.4634 14.4476 47.6527 14.1176 46.9872 13.4576C46.3206 12.7965 45.9873 11.9781 45.9873 11.0013C45.9873 10.0234 46.3206 9.20501 46.9872 8.54501C47.6527 7.88391 48.4634 7.55391 49.416 7.55391C49.889 7.55391 50.3411 7.64631 50.7701 7.83001C51.2002 8.01481 51.5445 8.26011 51.8019 8.56701L51.2222 9.14781C50.7855 8.62531 50.1838 8.36461 49.4149 8.36461C48.7197 8.36461 48.1191 8.60881 47.612 9.09721C47.1049 9.58561 46.8519 10.2203 46.8519 11.0002C46.8519 11.7801 47.1049 12.4148 47.612 12.9032C48.1191 13.3916 48.7197 13.6358 49.4149 13.6358C50.1519 13.6358 50.7668 13.3905 51.2585 12.8988C51.5775 12.5787 51.7623 12.1332 51.8118 11.5623H49.4149V10.7692H52.6126C52.6456 10.9419 52.6599 11.108 52.6599 11.2675Z" stroke="white" stroke-width="0.2" stroke-miterlimit="10"/>
<path d="M57.731 8.51097H54.7258V10.6032H57.4362V11.3963H54.7258V13.4885H57.731V14.3003H53.8777V7.70027H57.731V8.51097Z" stroke="white" stroke-width="0.2" stroke-miterlimit="10"/>
<path d="M61.307 14.3003H60.4589V8.51097H58.6153V7.70027H63.1506V8.51097H61.307V14.3003Z" stroke="white" stroke-width="0.2" stroke-miterlimit="10"/>
<path d="M66.4318 14.3003V7.70027H67.2799V14.3003H66.4318Z" stroke="white" stroke-width="0.2" stroke-miterlimit="10"/>
<path d="M71.041 14.3003H70.1929V8.51097H68.3493V7.70027H72.8846V8.51097H71.041V14.3003Z" stroke="white" stroke-width="0.2" stroke-miterlimit="10"/>
<path d="M81.4699 13.4478C80.8209 14.1144 80.0146 14.4477 79.0499 14.4477C78.0852 14.4477 77.2789 14.1144 76.631 13.4478C75.982 12.7812 75.6586 11.965 75.6586 11.0003C75.6586 10.0356 75.982 9.21936 76.631 8.55276C77.2789 7.88616 78.0852 7.55176 79.0499 7.55176C80.0091 7.55176 80.8143 7.88726 81.4655 8.55716C82.1167 9.22706 82.4423 10.0411 82.4423 11.0003C82.4423 11.965 82.1178 12.7812 81.4699 13.4478ZM77.2569 12.8945C77.7453 13.3895 78.3426 13.6359 79.0499 13.6359C79.7572 13.6359 80.3556 13.3884 80.8429 12.8945C81.3313 12.3995 81.5766 11.7681 81.5766 11.0003C81.5766 10.2325 81.3313 9.60106 80.8429 9.10606C80.3556 8.61106 79.7572 8.36466 79.0499 8.36466C78.3426 8.36466 77.7453 8.61216 77.2569 9.10606C76.7696 9.60106 76.5243 10.2325 76.5243 11.0003C76.5243 11.7681 76.7696 12.3995 77.2569 12.8945Z" stroke="white" stroke-width="0.2" stroke-miterlimit="10"/>
<path d="M83.6325 14.3003V7.70027H84.6643L87.8719 12.834H87.9082L87.8719 11.5624V7.70027H88.72V14.3003H87.8345L84.4784 8.91687H84.4421L84.4784 10.1885V14.3003H83.6325Z" stroke="white" stroke-width="0.2" stroke-miterlimit="10"/>
<g filter="url(#filter0_ii_22805_47353)">
<path d="M11.98 8.29221C11.6599 8.63101 11.4707 9.15681 11.4707 9.83771V34.1653C11.4707 34.8473 11.6599 35.372 11.98 35.7108L12.0614 35.79L25.6893 22.1621V22.0015V21.8409L12.0614 8.21191L11.98 8.29221Z" fill="url(#paint0_linear_22805_47353)"/>
<path d="M30.2314 26.7062L25.6895 22.1621V22.0015V21.8409L30.2325 17.2979L30.3348 17.3562L35.7171 20.4142C37.2538 21.2876 37.2538 22.7165 35.7171 23.591L30.3348 26.649L30.2314 26.7062Z" fill="url(#paint1_linear_22805_47353)"/>
<g filter="url(#filter1_i_22805_47353)">
<path d="M30.3351 26.6484L25.6887 22.002L11.9805 35.7113C12.4865 36.2481 13.3236 36.3141 14.2663 35.7795L30.3351 26.6484Z" fill="url(#paint2_linear_22805_47353)"/>
</g>
<path d="M30.3351 17.3552L14.2663 8.22515C13.3236 7.68945 12.4865 7.75655 11.9805 8.29335L25.6898 22.0027L30.3351 17.3552Z" fill="url(#paint3_linear_22805_47353)"/>
</g>
<rect x="1" y="0.5" width="147.5" height="43" rx="4.5" stroke="#A6A6A6"/>
<defs>
<filter id="filter0_ii_22805_47353" x="11.4707" y="7.85547" width="25.3984" height="28.293" filterUnits="userSpaceOnUse" color-interpolation-filters="sRGB">
<feFlood flood-opacity="0" result="BackgroundImageFix"/>
<feBlend mode="normal" in="SourceGraphic" in2="BackgroundImageFix" result="shape"/>
<feColorMatrix in="SourceAlpha" type="matrix" values="0 0 0 0 0 0 0 0 0 0 0 0 0 0 0 0 0 0 127 0" result="hardAlpha"/>
<feOffset dy="-0.15"/>
<feComposite in2="hardAlpha" operator="arithmetic" k2="-1" k3="1"/>
<feColorMatrix type="matrix" values="0 0 0 0 0 0 0 0 0 0 0 0 0 0 0 0 0 0 0.12 0"/>
<feBlend mode="normal" in2="shape" result="effect1_innerShadow_22805_47353"/>
<feColorMatrix in="SourceAlpha" type="matrix" values="0 0 0 0 0 0 0 0 0 0 0 0 0 0 0 0 0 0 127 0" result="hardAlpha"/>
<feOffset dy="0.15"/>
<feComposite in2="hardAlpha" operator="arithmetic" k2="-1" k3="1"/>
<feColorMatrix type="matrix" values="0 0 0 0 1 0 0 0 0 1 0 0 0 0 1 0 0 0 0.25 0"/>
<feBlend mode="normal" in2="effect1_innerShadow_22805_47353" result="effect2_innerShadow_22805_47353"/>
</filter>
<filter id="filter1_i_22805_47353" x="11.9805" y="22.002" width="18.3545" height="14.1465" filterUnits="userSpaceOnUse" color-interpolation-filters="sRGB">
<feFlood flood-opacity="0" result="BackgroundImageFix"/>
<feBlend mode="normal" in="SourceGraphic" in2="BackgroundImageFix" result="shape"/>
<feColorMatrix in="SourceAlpha" type="matrix" values="0 0 0 0 0 0 0 0 0 0 0 0 0 0 0 0 0 0 127 0" result="hardAlpha"/>
<feOffset dy="-0.15"/>
<feComposite in2="hardAlpha" operator="arithmetic" k2="-1" k3="1"/>
<feColorMatrix type="matrix" values="0 0 0 0 0 0 0 0 0 0 0 0 0 0 0 0 0 0 0.08 0"/>
<feBlend mode="normal" in2="shape" result="effect1_innerShadow_22805_47353"/>
</filter>
<linearGradient id="paint0_linear_22805_47353" x1="24.4813" y1="9.58031" x2="6.02109" y2="28.0405" gradientUnits="userSpaceOnUse">
<stop stop-color="#00A0FF"/>
<stop offset="0.0066" stop-color="#00A1FF"/>
<stop offset="0.2601" stop-color="#00BEFF"/>
<stop offset="0.5122" stop-color="#00D2FF"/>
<stop offset="0.7604" stop-color="#00DFFF"/>
<stop offset="1" stop-color="#00E3FF"/>
</linearGradient>
<linearGradient id="paint1_linear_22805_47353" x1="37.7174" y1="22.0015" x2="11.1019" y2="22.0015" gradientUnits="userSpaceOnUse">
<stop stop-color="#FFE000"/>
<stop offset="0.4087" stop-color="#FFBD00"/>
<stop offset="0.7754" stop-color="#FFA500"/>
<stop offset="1" stop-color="#FF9C00"/>
</linearGradient>
<linearGradient id="paint2_linear_22805_47353" x1="27.8118" y1="24.5252" x2="2.77744" y2="49.5596" gradientUnits="userSpaceOnUse">
<stop stop-color="#FF3A44"/>
<stop offset="1" stop-color="#C31162"/>
</linearGradient>
<linearGradient id="paint3_linear_22805_47353" x1="8.52801" y1="0.194931" x2="19.7065" y2="11.3735" gradientUnits="userSpaceOnUse">
<stop stop-color="#32A071"/>
<stop offset="0.0685" stop-color="#2DA771"/>
<stop offset="0.4762" stop-color="#15CF74"/>
<stop offset="0.8009" stop-color="#06E775"/>
<stop offset="1" stop-color="#00F076"/>
</linearGradient>
</defs>
</svg>
