<svg width="74" height="22" viewBox="0 0 74 22" fill="none" xmlns="http://www.w3.org/2000/svg">
<rect x="0.4375" y="0.4375" width="73.125" height="21.125" rx="3.9375" fill="black"/>
<rect x="0.4375" y="0.4375" width="73.125" height="21.125" rx="3.9375" stroke="#A6A6A6" stroke-width="0.875"/>
<path d="M37.3476 11.9632C36.0584 11.9632 35.0076 12.9471 35.0076 14.3023C35.0076 15.6493 36.0584 16.6415 37.3476 16.6415C38.6374 16.6415 39.6882 15.6493 39.6882 14.3023C39.6877 12.9471 38.6369 11.9632 37.3476 11.9632ZM37.3476 15.7208C36.6411 15.7208 36.0321 15.1361 36.0321 14.3029C36.0321 13.4608 36.6416 12.885 37.3476 12.885C38.0542 12.885 38.6632 13.4608 38.6632 14.3029C38.6632 15.1356 38.0542 15.7208 37.3476 15.7208ZM32.2422 11.9632C30.9529 11.9632 29.9021 12.9471 29.9021 14.3023C29.9021 15.6493 30.9529 16.6415 32.2422 16.6415C33.532 16.6415 34.5828 15.6493 34.5828 14.3023C34.5828 12.9471 33.532 11.9632 32.2422 11.9632ZM32.2422 15.7208C31.5356 15.7208 30.9266 15.1361 30.9266 14.3029C30.9266 13.4608 31.5362 12.885 32.2422 12.885C32.9487 12.885 33.5577 13.4608 33.5577 14.3029C33.5583 15.1356 32.9487 15.7208 32.2422 15.7208ZM26.1698 12.6815V13.6737H28.5367C28.466 14.2319 28.2807 14.6395 27.9979 14.9227C27.6536 15.2681 27.1148 15.6493 26.1698 15.6493C24.7128 15.6493 23.5738 14.4706 23.5738 13.0087C23.5738 11.5468 24.7128 10.3682 26.1698 10.3682C26.9558 10.3682 27.5297 10.6784 27.9535 11.0771L28.6512 10.377C28.0592 9.80993 27.2738 9.37598 26.1698 9.37598C24.174 9.37598 22.4961 11.0062 22.4961 13.0087C22.4961 15.0113 24.174 16.6415 26.1698 16.6415C27.2469 16.6415 28.0598 16.2867 28.6951 15.6223C29.3485 14.9667 29.5519 14.0449 29.5519 13.3008C29.5519 13.0709 29.5343 12.858 29.4987 12.6809H26.1698V12.6815ZM51.0053 13.452C50.8112 12.9295 50.2192 11.9632 49.0095 11.9632C47.8085 11.9632 46.8103 12.9114 46.8103 14.3023C46.8103 15.6135 47.7997 16.6415 49.124 16.6415C50.1924 16.6415 50.8107 15.9859 51.0672 15.6047L50.2724 15.0729C50.0076 15.4628 49.6453 15.7197 49.124 15.7197C48.6033 15.7197 48.2322 15.4804 47.9938 15.0107L51.1111 13.7171L51.0053 13.452ZM47.826 14.2319C47.7997 13.3277 48.5238 12.8674 49.0451 12.8674C49.4513 12.8674 49.7955 13.0714 49.9106 13.3635L47.826 14.2319ZM45.2919 16.5001H46.3159V9.62458H45.2919V16.5001ZM43.6135 12.4862H43.5784C43.3487 12.2112 42.9069 11.9632 42.3511 11.9632C41.1852 11.9632 40.1169 12.9911 40.1169 14.3117C40.1169 15.6229 41.1852 16.642 42.3511 16.642C42.9075 16.642 43.3487 16.394 43.5784 16.1107H43.6135V16.4473C43.6135 17.3422 43.1366 17.8207 42.3687 17.8207C41.7416 17.8207 41.3529 17.3691 41.194 16.988L40.3021 17.3603C40.5581 17.9802 41.2378 18.7425 42.3687 18.7425C43.5696 18.7425 44.5854 18.0335 44.5854 16.3054V12.1056H43.614V12.4862H43.6135ZM42.4394 15.7208C41.7328 15.7208 41.1414 15.1268 41.1414 14.3117C41.1414 13.4872 41.7328 12.885 42.4394 12.885C43.1366 12.885 43.6842 13.4872 43.6842 14.3117C43.6842 15.1268 43.1366 15.7208 42.4394 15.7208ZM55.8038 9.62458H53.353V16.5001H54.3753V13.8953H55.8032C56.9368 13.8953 58.0517 13.072 58.0517 11.7602C58.0517 10.4485 56.9373 9.62458 55.8038 9.62458ZM55.8301 12.9383H54.3753V10.5816H55.8301C56.5947 10.5816 57.0289 11.2168 57.0289 11.7602C57.0289 12.2926 56.5947 12.9383 55.8301 12.9383ZM62.1513 11.9511C61.4108 11.9511 60.6439 12.2783 60.3265 13.0038L61.2343 13.3838C61.4283 13.0038 61.7901 12.8795 62.1689 12.8795C62.6978 12.8795 63.2356 13.1979 63.2443 13.7639V13.8348C63.0591 13.7287 62.6622 13.5697 62.1776 13.5697C61.1992 13.5697 60.2027 14.1093 60.2027 15.1174C60.2027 16.0376 61.0051 16.6299 61.9041 16.6299C62.5915 16.6299 62.9708 16.3203 63.2087 15.9573H63.2438V16.488H64.2315V13.8519C64.2321 12.632 63.3233 11.9511 62.1513 11.9511ZM62.0274 15.7191C61.6931 15.7191 61.2255 15.5508 61.2255 15.135C61.2255 14.6043 61.8076 14.4008 62.3103 14.4008C62.7592 14.4008 62.9714 14.4981 63.2443 14.6307C63.1648 15.2681 62.6183 15.7191 62.0274 15.7191ZM67.8285 12.1012L66.656 15.0822H66.6209L65.404 12.1012H64.3023L66.127 16.2675L65.0867 18.5852H66.1534L68.9659 12.1012H67.8285ZM58.6163 16.5001H59.6386V9.62458H58.6163V16.5001Z" fill="white"/>
<path d="M25.993 5.63375C25.993 6.09465 25.8571 6.4615 25.5847 6.7354C25.2755 7.061 24.8721 7.2238 24.3765 7.2238C23.9019 7.2238 23.4979 7.0588 23.1662 6.7288C22.8341 6.39825 22.668 5.98905 22.668 5.50065C22.668 5.0117 22.8341 4.6025 23.1662 4.2725C23.4979 3.94195 23.9019 3.77695 24.3765 3.77695C24.6123 3.77695 24.8375 3.82315 25.0513 3.915C25.2656 4.0074 25.4372 4.13005 25.5655 4.2835L25.2766 4.5739C25.059 4.31265 24.7592 4.1823 24.376 4.1823C24.0296 4.1823 23.7303 4.3044 23.4776 4.5486C23.2249 4.7928 23.0988 5.11015 23.0988 5.5001C23.0988 5.89005 23.2249 6.2074 23.4776 6.4516C23.7303 6.6958 24.0296 6.8179 24.376 6.8179C24.7433 6.8179 25.0497 6.69525 25.2947 6.4494C25.4537 6.28935 25.5457 6.0666 25.5704 5.78115H24.376V5.3846H25.9695C25.9859 5.47095 25.993 5.554 25.993 5.63375Z" fill="white"/>
<path d="M28.52 4.25548H27.0225V5.30158H28.3731V5.69813H27.0225V6.74423H28.52V7.15013H26.5999V3.85013H28.52V4.25548Z" fill="white"/>
<path d="M30.302 7.15013H29.8794V4.25548H28.9607V3.85013H31.2207V4.25548H30.302V7.15013Z" fill="white"/>
<path d="M32.8558 7.15013V3.85013H33.2784V7.15013H32.8558Z" fill="white"/>
<path d="M35.1526 7.15013H34.73V4.25548H33.8113V3.85013H36.0713V4.25548H35.1526V7.15013Z" fill="white"/>
<path d="M40.3495 6.72388C40.0261 7.05718 39.6243 7.22383 39.1436 7.22383C38.6629 7.22383 38.2611 7.05718 37.9382 6.72388C37.6148 6.39058 37.4536 5.98248 37.4536 5.50013C37.4536 5.01778 37.6148 4.60968 37.9382 4.27638C38.2611 3.94308 38.6629 3.77588 39.1436 3.77588C39.6216 3.77588 40.0228 3.94363 40.3473 4.27858C40.6718 4.61353 40.8341 5.02053 40.8341 5.50013C40.8341 5.98248 40.6724 6.39058 40.3495 6.72388ZM38.2501 6.44723C38.4935 6.69473 38.7911 6.81793 39.1436 6.81793C39.496 6.81793 39.7942 6.69418 40.0371 6.44723C40.2804 6.19973 40.4027 5.88403 40.4027 5.50013C40.4027 5.11623 40.2804 4.80053 40.0371 4.55303C39.7942 4.30553 39.496 4.18233 39.1436 4.18233C38.7911 4.18233 38.4935 4.30608 38.2501 4.55303C38.0073 4.80053 37.885 5.11623 37.885 5.50013C37.885 5.88403 38.0073 6.19973 38.2501 6.44723Z" fill="white"/>
<path d="M41.4272 7.15013V3.85013H41.9413L43.5397 6.41698H43.5578L43.5397 5.78118V3.85013H43.9624V7.15013H43.5211L41.8487 4.45843H41.8306L41.8487 5.09423V7.15013H41.4272Z" fill="white"/>
<path d="M25.993 5.63375C25.993 6.09465 25.8571 6.4615 25.5847 6.7354C25.2755 7.061 24.8721 7.2238 24.3765 7.2238C23.9019 7.2238 23.4979 7.0588 23.1662 6.7288C22.8341 6.39825 22.668 5.98905 22.668 5.50065C22.668 5.0117 22.8341 4.6025 23.1662 4.2725C23.4979 3.94195 23.9019 3.77695 24.3765 3.77695C24.6123 3.77695 24.8375 3.82315 25.0513 3.915C25.2656 4.0074 25.4372 4.13005 25.5655 4.2835L25.2766 4.5739C25.059 4.31265 24.7592 4.1823 24.376 4.1823C24.0296 4.1823 23.7303 4.3044 23.4776 4.5486C23.2249 4.7928 23.0988 5.11015 23.0988 5.5001C23.0988 5.89005 23.2249 6.2074 23.4776 6.4516C23.7303 6.6958 24.0296 6.8179 24.376 6.8179C24.7433 6.8179 25.0497 6.69525 25.2947 6.4494C25.4537 6.28935 25.5457 6.0666 25.5704 5.78115H24.376V5.3846H25.9695C25.9859 5.47095 25.993 5.554 25.993 5.63375Z" stroke="white" stroke-width="0.175" stroke-miterlimit="10"/>
<path d="M28.52 4.25548H27.0225V5.30158H28.3731V5.69813H27.0225V6.74423H28.52V7.15013H26.5999V3.85013H28.52V4.25548Z" stroke="white" stroke-width="0.175" stroke-miterlimit="10"/>
<path d="M30.302 7.15013H29.8794V4.25548H28.9607V3.85013H31.2207V4.25548H30.302V7.15013Z" stroke="white" stroke-width="0.175" stroke-miterlimit="10"/>
<path d="M32.8558 7.15013V3.85013H33.2784V7.15013H32.8558Z" stroke="white" stroke-width="0.175" stroke-miterlimit="10"/>
<path d="M35.1526 7.15013H34.73V4.25548H33.8113V3.85013H36.0713V4.25548H35.1526V7.15013Z" stroke="white" stroke-width="0.175" stroke-miterlimit="10"/>
<path d="M40.3495 6.72388C40.0261 7.05718 39.6243 7.22383 39.1436 7.22383C38.6629 7.22383 38.2611 7.05718 37.9382 6.72388C37.6148 6.39058 37.4536 5.98248 37.4536 5.50013C37.4536 5.01778 37.6148 4.60968 37.9382 4.27638C38.2611 3.94308 38.6629 3.77588 39.1436 3.77588C39.6216 3.77588 40.0228 3.94363 40.3473 4.27858C40.6718 4.61353 40.8341 5.02053 40.8341 5.50013C40.8341 5.98248 40.6724 6.39058 40.3495 6.72388ZM38.2501 6.44723C38.4935 6.69473 38.7911 6.81793 39.1436 6.81793C39.496 6.81793 39.7942 6.69418 40.0371 6.44723C40.2804 6.19973 40.4027 5.88403 40.4027 5.50013C40.4027 5.11623 40.2804 4.80053 40.0371 4.55303C39.7942 4.30553 39.496 4.18233 39.1436 4.18233C38.7911 4.18233 38.4935 4.30608 38.2501 4.55303C38.0073 4.80053 37.885 5.11623 37.885 5.50013C37.885 5.88403 38.0073 6.19973 38.2501 6.44723Z" stroke="white" stroke-width="0.175" stroke-miterlimit="10"/>
<path d="M41.4272 7.15013V3.85013H41.9413L43.5397 6.41698H43.5578L43.5397 5.78118V3.85013H43.9624V7.15013H43.5211L41.8487 4.45843H41.8306L41.8487 5.09423V7.15013H41.4272Z" stroke="white" stroke-width="0.175" stroke-miterlimit="10"/>
<g filter="url(#filter0_ii_2641_4053)">
<path d="M5.71864 4.14586C5.55913 4.31526 5.46484 4.57816 5.46484 4.91861V17.0824C5.46484 17.4234 5.55913 17.6858 5.71864 17.8552L5.7592 17.8948L12.5502 11.0808V11.0005V10.9202L5.7592 4.10571L5.71864 4.14586Z" fill="url(#paint0_linear_2641_4053)"/>
<path d="M14.8141 13.3528L12.5508 11.0808V11.0005V10.9202L14.8146 8.64868L14.8656 8.67783L17.5477 10.2068C18.3135 10.6435 18.3135 11.358 17.5477 11.7952L14.8656 13.3242L14.8141 13.3528Z" fill="url(#paint1_linear_2641_4053)"/>
<g filter="url(#filter1_i_2641_4053)">
<path d="M14.8651 13.3237L12.5498 11.0005L5.71875 17.8551C5.9709 18.1235 6.38804 18.1565 6.8578 17.8892L14.8651 13.3237Z" fill="url(#paint2_linear_2641_4053)"/>
</g>
<path d="M14.8651 8.67733L6.8578 4.11233C6.38804 3.84448 5.9709 3.87803 5.71875 4.14643L12.5503 11.0011L14.8651 8.67733Z" fill="url(#paint3_linear_2641_4053)"/>
</g>
<defs>
<filter id="filter0_ii_2641_4053" x="5.46484" y="3.92749" width="12.6562" height="14.1465" filterUnits="userSpaceOnUse" color-interpolation-filters="sRGB">
<feFlood flood-opacity="0" result="BackgroundImageFix"/>
<feBlend mode="normal" in="SourceGraphic" in2="BackgroundImageFix" result="shape"/>
<feColorMatrix in="SourceAlpha" type="matrix" values="0 0 0 0 0 0 0 0 0 0 0 0 0 0 0 0 0 0 127 0" result="hardAlpha"/>
<feOffset dy="-0.13125"/>
<feComposite in2="hardAlpha" operator="arithmetic" k2="-1" k3="1"/>
<feColorMatrix type="matrix" values="0 0 0 0 0 0 0 0 0 0 0 0 0 0 0 0 0 0 0.12 0"/>
<feBlend mode="normal" in2="shape" result="effect1_innerShadow_2641_4053"/>
<feColorMatrix in="SourceAlpha" type="matrix" values="0 0 0 0 0 0 0 0 0 0 0 0 0 0 0 0 0 0 127 0" result="hardAlpha"/>
<feOffset dy="0.13125"/>
<feComposite in2="hardAlpha" operator="arithmetic" k2="-1" k3="1"/>
<feColorMatrix type="matrix" values="0 0 0 0 1 0 0 0 0 1 0 0 0 0 1 0 0 0 0.25 0"/>
<feBlend mode="normal" in2="effect1_innerShadow_2641_4053" result="effect2_innerShadow_2641_4053"/>
</filter>
<filter id="filter1_i_2641_4053" x="5.71875" y="11.0005" width="9.14453" height="7.07349" filterUnits="userSpaceOnUse" color-interpolation-filters="sRGB">
<feFlood flood-opacity="0" result="BackgroundImageFix"/>
<feBlend mode="normal" in="SourceGraphic" in2="BackgroundImageFix" result="shape"/>
<feColorMatrix in="SourceAlpha" type="matrix" values="0 0 0 0 0 0 0 0 0 0 0 0 0 0 0 0 0 0 127 0" result="hardAlpha"/>
<feOffset dy="-0.13125"/>
<feComposite in2="hardAlpha" operator="arithmetic" k2="-1" k3="1"/>
<feColorMatrix type="matrix" values="0 0 0 0 0 0 0 0 0 0 0 0 0 0 0 0 0 0 0.08 0"/>
<feBlend mode="normal" in2="shape" result="effect1_innerShadow_2641_4053"/>
</filter>
<linearGradient id="paint0_linear_2641_4053" x1="11.9482" y1="4.78991" x2="2.71818" y2="13.9889" gradientUnits="userSpaceOnUse">
<stop stop-color="#00A0FF"/>
<stop offset="0.0066" stop-color="#00A1FF"/>
<stop offset="0.2601" stop-color="#00BEFF"/>
<stop offset="0.5122" stop-color="#00D2FF"/>
<stop offset="0.7604" stop-color="#00DFFF"/>
<stop offset="1" stop-color="#00E3FF"/>
</linearGradient>
<linearGradient id="paint1_linear_2641_4053" x1="18.5445" y1="11.0005" x2="5.28157" y2="11.0005" gradientUnits="userSpaceOnUse">
<stop stop-color="#FFE000"/>
<stop offset="0.4087" stop-color="#FFBD00"/>
<stop offset="0.7754" stop-color="#FFA500"/>
<stop offset="1" stop-color="#FF9C00"/>
</linearGradient>
<linearGradient id="paint2_linear_2641_4053" x1="13.6078" y1="12.2621" x2="1.09065" y2="24.7371" gradientUnits="userSpaceOnUse">
<stop stop-color="#FF3A44"/>
<stop offset="1" stop-color="#C31162"/>
</linearGradient>
<linearGradient id="paint3_linear_2641_4053" x1="3.99833" y1="0.0972224" x2="9.58757" y2="5.66764" gradientUnits="userSpaceOnUse">
<stop stop-color="#32A071"/>
<stop offset="0.0685" stop-color="#2DA771"/>
<stop offset="0.4762" stop-color="#15CF74"/>
<stop offset="0.8009" stop-color="#06E775"/>
<stop offset="1" stop-color="#00F076"/>
</linearGradient>
</defs>
</svg>
