<svg width="17" height="16" viewBox="0 0 17 16" fill="none" xmlns="http://www.w3.org/2000/svg">
<g clip-path="url(#clip0_6218_31787)">
<path d="M14.2261 3.07357C13.8856 2.73291 13.4813 2.46267 13.0363 2.2783C12.5914 2.09392 12.1144 1.99902 11.6328 1.99902C11.1511 1.99902 10.6742 2.09392 10.2292 2.2783C9.78422 2.46267 9.37993 2.73291 9.03943 3.07357L8.33276 3.78024L7.62609 3.07357C6.9383 2.38578 6.00545 1.99938 5.03276 1.99938C4.06007 1.99938 3.12722 2.38578 2.43943 3.07357C1.75163 3.76137 1.36523 4.69422 1.36523 5.66691C1.36523 6.63959 1.75163 7.57244 2.43943 8.26024L3.14609 8.96691L8.33276 14.1536L13.5194 8.96691L14.2261 8.26024C14.5668 7.91974 14.837 7.51545 15.0214 7.07048C15.2057 6.6255 15.3006 6.14856 15.3006 5.66691C15.3006 5.18525 15.2057 4.70831 15.0214 4.26334C14.837 3.81836 14.5668 3.41408 14.2261 3.07357Z" stroke="#030F1A" stroke-width="2" stroke-linecap="round" stroke-linejoin="round"/>
</g>
<defs>
<clipPath id="clip0_6218_31787">
<rect width="16" height="16" fill="white" transform="translate(0.332031)"/>
</clipPath>
</defs>
</svg>
