<svg width="96" height="15" viewBox="0 0 96 15" fill="none" xmlns="http://www.w3.org/2000/svg">
<g clip-path="url(#clip0_14675_28553)">
<path d="M48.8486 2.4375C48.8486 1.6875 49.0372 1.5 49.7917 1.5H50.1689C50.9233 1.5 51.1119 1.6875 51.1119 2.4375V5.625C51.6777 5.0625 52.6207 4.6875 53.7524 4.6875C55.0726 4.6875 56.5814 5.25 56.5814 7.5V12.1875C56.5814 12.9375 56.3928 13.125 55.6384 13.125H55.2612C54.5068 13.125 54.3182 12.9375 54.3182 12.1875V7.875C54.3182 6.9375 53.7524 6.75 52.9979 6.75C52.0549 6.75 51.1119 7.125 51.1119 8.8125V12.375C51.1119 13.125 50.9233 13.3125 50.1689 13.3125H49.7917C49.0372 13.3125 48.8486 13.125 48.8486 12.375V2.4375Z" fill="#092F4D"/>
<path d="M60.354 10.125C60.354 11.0625 60.5426 11.4375 62.0514 11.4375C63.5602 11.4375 63.5602 10.875 63.5602 10.125V5.8125C63.5602 5.0625 63.7488 4.875 64.5033 4.875H64.8805C65.6349 4.875 65.8235 5.0625 65.8235 5.8125V10.125C65.8235 12.375 64.6919 13.5 62.0514 13.5C59.5995 13.5 58.2793 12.375 58.2793 10.125V5.8125C58.2793 5.0625 58.4679 4.875 59.2223 4.875H59.5995C60.354 4.875 60.5426 5.0625 60.5426 5.8125L60.354 10.125Z" fill="#092F4D"/>
<path d="M67.5205 2.4375C67.5205 1.6875 67.7091 1.5 68.4635 1.5H68.8407C69.5952 1.5 69.7838 1.6875 69.7838 2.4375V5.625C70.161 5.0625 70.9154 4.6875 72.047 4.6875C74.3103 4.6875 75.6305 6 75.6305 8.4375V9.75C75.6305 12.375 74.1217 13.5 71.6698 13.5C69.4066 13.5 67.7091 12.375 67.7091 9.75V2.4375H67.5205ZM73.1787 8.4375C73.1787 7.3125 72.8015 6.75 71.2926 6.75C69.7838 6.75 69.4066 7.3125 69.4066 8.4375V9.75C69.4066 10.875 69.7838 11.4375 71.2926 11.4375C72.8015 11.4375 73.1787 10.875 73.1787 9.75V8.4375Z" fill="#092F4D"/>
<path d="M81.4777 11.25C81.1005 11.25 80.7233 11.4375 80.3461 11.4375C79.7802 11.4375 79.403 11.25 79.2144 10.3125C79.2144 10.3125 79.2144 10.3125 79.2144 10.125V6.9375H81.1005C81.8549 6.9375 82.0435 6.75 82.0435 6V5.8125C82.0435 5.0625 81.8549 4.875 81.1005 4.875H79.2144V3.5625C79.2144 2.8125 79.0258 2.625 78.2714 2.625H77.8942C77.1398 2.625 76.9512 2.8125 76.9512 3.5625V4.6875V4.875V10.3125C76.9512 10.5 76.9512 10.6875 76.9512 10.6875C76.9512 10.875 76.9512 11.0625 76.9512 11.0625C77.3284 12.75 78.46 13.3125 80.1575 13.3125C80.5347 13.3125 80.9119 13.3125 81.2891 13.125C82.0435 12.9375 82.2321 12.75 82.2321 12C82.4207 11.25 82.2321 11.0625 81.4777 11.25Z" fill="#092F4D"/>
<path d="M90.9075 9C90.7189 9.75 90.5303 9.9375 89.7759 9.9375H85.4379V10.125C85.4379 11.0625 86.0038 11.4375 87.7012 11.4375C88.4556 11.4375 89.0214 11.4375 89.7759 11.25C90.5303 11.0625 90.7189 11.25 90.7189 12V12.1875C90.7189 12.9375 90.5303 13.125 89.7759 13.3125C89.0214 13.5 88.4556 13.5 87.7012 13.5C84.6835 13.5 83.3633 12.375 83.3633 9.75V8.4375C83.3633 6.1875 84.3063 4.6875 87.324 4.6875C89.7759 4.6875 91.0961 6 91.0961 8.25C90.9075 8.4375 90.9075 8.8125 90.9075 9ZM85.6265 8.0625H89.0214V7.875C89.0214 7.125 88.4556 6.5625 87.324 6.5625C86.1924 6.5625 85.6265 6.9375 85.6265 7.875V8.0625Z" fill="#092F4D"/>
<path d="M92.416 2.4375C92.416 1.6875 92.6046 1.5 93.359 1.5H93.7363C94.4907 1.5 94.6793 1.6875 94.6793 2.4375V10.3125C94.6793 11.25 94.8679 11.4375 95.4337 11.4375C95.8109 11.4375 95.9995 11.625 95.9995 12.1875V12.5625C95.9995 13.3125 95.8109 13.5 95.4337 13.5C95.2451 13.5 95.0565 13.5 94.8679 13.5C93.359 13.5 92.416 12.75 92.416 10.875V2.4375Z" fill="#092F4D"/>
<path d="M35.6466 9.5625C34.8922 9 34.3264 8.25 34.3264 7.6875H31.1201V12.375C31.1201 15 32.2517 15.375 33.572 14.25L37.7213 11.25L35.6466 9.5625Z" fill="#092F4D"/>
<path d="M45.0773 7.6875H34.8926C34.8926 8.25 35.2698 8.8125 36.0242 9.375L42.6254 14.4375C44.1342 15.5625 45.0773 15 45.0773 12.5625V7.6875Z" fill="#092F4D"/>
<path d="M42.6249 0.562578L38.4756 3.75008L40.5502 5.43758C41.3047 6.00008 41.8705 6.75008 41.8705 7.31258H45.0768V2.43758C45.0768 7.74413e-05 43.9451 -0.562422 42.6249 0.562578Z" fill="#092F4D"/>
<path d="M40.1732 5.62508L33.572 0.562578C32.0631 -0.562422 31.1201 7.74413e-05 31.1201 2.43758V7.12508H41.3048C41.3048 6.75008 40.9276 6.18758 40.1732 5.62508Z" fill="#092F4D"/>
<path d="M0 5.4375V4.6875C0 2.8125 0.943026 2.25 2.64047 2.25C3.01768 2.25 3.39489 2.25 3.5835 2.25C4.14931 2.4375 4.14931 2.4375 4.14931 3V3.1875C4.14931 3.375 4.14931 3.5625 3.96071 3.75C3.7721 3.75 3.20629 3.5625 2.64047 3.5625C1.88605 3.5625 1.50884 3.9375 1.50884 4.5V5.4375H3.39489C3.96071 5.4375 3.96071 5.625 3.96071 6V6.1875C3.96071 6.75 3.7721 6.75 3.39489 6.75H1.50884V11.8125C1.50884 12.375 1.32024 12.375 0.943026 12.375H0.565815C0.188605 12.5625 0 12.5625 0 12V6.9375V5.4375Z" fill="#092F4D"/>
<path d="M6.41301 12C6.41301 12.5625 6.2244 12.5625 5.84719 12.5625H5.65859C5.09277 12.5625 5.09277 12.375 5.09277 12V7.875C5.09277 6.1875 6.0358 5.25 7.73324 5.25C7.92185 5.25 7.92185 5.25 8.11046 5.25C8.67627 5.25 8.67627 5.4375 8.67627 6V6.1875C8.67627 6.75 8.48767 6.75 8.11046 6.75C8.11046 6.75 7.92185 6.75 7.73324 6.75C6.79022 6.75 6.41301 7.125 6.41301 8.0625V12Z" fill="#092F4D"/>
<path d="M9.24121 9.75V8.4375C9.24121 6.375 10.3728 5.4375 12.6361 5.4375C14.8994 5.4375 15.8424 6.375 15.8424 8.4375V9.75C15.8424 11.8125 14.7108 12.75 12.6361 12.75C10.1842 12.75 9.24121 11.8125 9.24121 9.75ZM14.3335 8.4375C14.3335 7.3125 13.9563 6.75 12.4475 6.75C11.1273 6.75 10.5614 7.3125 10.5614 8.4375V9.75C10.5614 10.875 10.9387 11.4375 12.4475 11.4375C13.7677 11.4375 14.3335 10.875 14.3335 9.75V8.4375Z" fill="#092F4D"/>
<path d="M18.6719 12C18.6719 12.5625 18.4833 12.5625 18.1061 12.5625H17.7289C17.1631 12.5625 17.1631 12.375 17.1631 12V8.25C17.1631 6.375 18.1061 5.4375 20.1808 5.4375C21.3124 5.4375 21.8782 5.8125 22.2554 6.5625C22.6326 5.625 23.3871 5.4375 24.3301 5.4375C26.4047 5.4375 27.1592 6.375 27.1592 8.25V12C27.1592 12.5625 26.9706 12.5625 26.5933 12.5625H26.4047C25.8389 12.5625 25.8389 12.375 25.8389 12V8.25C25.8389 7.3125 25.4617 6.9375 24.3301 6.9375C23.1984 6.9375 22.8212 7.3125 22.8212 8.25V12C22.8212 12.5625 22.6326 12.5625 22.2554 12.5625H22.0668C21.501 12.5625 21.501 12.375 21.501 12V8.25C21.501 7.3125 21.1238 6.9375 19.9922 6.9375C18.8605 6.9375 18.4833 7.3125 18.4833 8.25V12H18.6719Z" fill="#092F4D"/>
</g>
<defs>
<clipPath id="clip0_14675_28553">
<rect width="96" height="15" fill="white"/>
</clipPath>
</defs>
</svg>
