<svg width="20" height="20" viewBox="0 0 20 20" fill="none" xmlns="http://www.w3.org/2000/svg">
<g clip-path="url(#clip0_11627_37702)">
<path d="M2.66667 16.6666V17.3333H4V16.6666H2.66667ZM9.33333 16.6666V17.3333H10.6667V16.6666H9.33333ZM4 16.6666V16H2.66667V16.6666H4ZM9.33333 16V16.6666H10.6667V16H9.33333ZM6.66667 13.3333C7.37391 13.3333 8.05219 13.6142 8.55229 14.1143C9.05238 14.6144 9.33333 15.2927 9.33333 16H10.6667C10.6667 14.9391 10.2452 13.9217 9.49509 13.1715C8.74495 12.4214 7.72753 12 6.66667 12V13.3333ZM4 16C4 15.2927 4.28095 14.6144 4.78105 14.1143C5.28115 13.6142 5.95942 13.3333 6.66667 13.3333V12C5.6058 12 4.58839 12.4214 3.83824 13.1715C3.08809 13.9217 2.66667 14.9391 2.66667 16H4ZM6.66667 5.33329C5.95942 5.33329 5.28115 5.61424 4.78105 6.11434C4.28095 6.61444 4 7.29272 4 7.99996H5.33333C5.33333 7.64634 5.47381 7.3072 5.72386 7.05715C5.97391 6.8071 6.31305 6.66663 6.66667 6.66663V5.33329ZM9.33333 7.99996C9.33333 7.29272 9.05238 6.61444 8.55229 6.11434C8.05219 5.61424 7.37391 5.33329 6.66667 5.33329V6.66663C7.02029 6.66663 7.35943 6.8071 7.60948 7.05715C7.85952 7.3072 8 7.64634 8 7.99996H9.33333ZM6.66667 10.6666C7.37391 10.6666 8.05219 10.3857 8.55229 9.88558C9.05238 9.38548 9.33333 8.7072 9.33333 7.99996H8C8 8.35358 7.85952 8.69272 7.60948 8.94277C7.35943 9.19282 7.02029 9.33329 6.66667 9.33329V10.6666ZM6.66667 9.33329C6.31305 9.33329 5.97391 9.19282 5.72386 8.94277C5.47381 8.69272 5.33333 8.35358 5.33333 7.99996H4C4 8.7072 4.28095 9.38548 4.78105 9.88558C5.28115 10.3857 5.95942 10.6666 6.66667 10.6666V9.33329ZM2 3.99996H18V2.66663H2V3.99996ZM18.6667 4.66663V15.3333H20V4.66663H18.6667ZM18 16H2V17.3333H18V16ZM1.33333 15.3333V4.66663H0V15.3333H1.33333ZM2 16C1.82319 16 1.65362 15.9297 1.5286 15.8047C1.40357 15.6797 1.33333 15.5101 1.33333 15.3333H0C0 15.8637 0.210714 16.3724 0.585786 16.7475C0.960859 17.1226 1.46957 17.3333 2 17.3333V16ZM18.6667 15.3333C18.6667 15.5101 18.5964 15.6797 18.4714 15.8047C18.3464 15.9297 18.1768 16 18 16V17.3333C18.5304 17.3333 19.0391 17.1226 19.4142 16.7475C19.7893 16.3724 20 15.8637 20 15.3333H18.6667ZM18 3.99996C18.1768 3.99996 18.3464 4.0702 18.4714 4.19522C18.5964 4.32025 18.6667 4.48981 18.6667 4.66663H20C20 4.13619 19.7893 3.62749 19.4142 3.25241C19.0391 2.87734 18.5304 2.66663 18 2.66663V3.99996ZM2 2.66663C1.46957 2.66663 0.960859 2.87734 0.585786 3.25241C0.210714 3.62749 0 4.13619 0 4.66663H1.33333C1.33333 4.48981 1.40357 4.32025 1.5286 4.19522C1.65362 4.0702 1.82319 3.99996 2 3.99996V2.66663ZM12 7.99996H16V6.66663H12V7.99996ZM12 12H16V10.6666H12V12Z" fill="black"/>
</g>
<defs>
<clipPath id="clip0_11627_37702">
<rect width="20" height="20" fill="white"/>
</clipPath>
</defs>
</svg>
