<svg width="389" height="495" viewBox="0 0 389 495" fill="none" xmlns="http://www.w3.org/2000/svg">
<g clip-path="url(#clip0_28371_52178)">
<path d="M382.931 123.911H382.2V46.4985C382.2 20.8039 361.324 0 335.622 0H53.3778C27.676 0 6.80019 20.8039 6.80019 46.4985V123.911H6.06898C2.70545 123.911 0 126.612 0 129.969V183.512C0 186.87 2.70545 189.571 6.06898 189.571H6.80019V202.345H6.06898C2.70545 202.345 0 205.046 0 208.404V261.946C0 265.304 2.70545 268.005 6.06898 268.005H6.80019V737.041C6.80019 762.699 27.6395 783.539 53.3778 783.539H335.622C361.324 783.539 382.2 762.735 382.2 737.041V222.455H382.931C386.295 222.455 389 219.755 389 216.397V129.969C389 126.612 386.295 123.911 382.931 123.911Z" fill="#333343"/>
<path d="M329.284 765.912H59.6815C39.0346 765.912 22.293 749.292 22.293 728.796V54.9544C22.293 34.4578 39.0346 17.8379 59.6815 17.8379H329.32C349.967 17.8379 366.708 34.4578 366.708 54.9544V728.76C366.708 749.292 349.967 765.912 329.284 765.912Z" fill="white"/>
<path d="M55.6817 42.31C55.8017 42.31 55.8951 42.34 55.9617 42.4C56.0284 42.46 56.0617 42.5433 56.0617 42.65C56.0617 42.7633 56.0284 42.85 55.9617 42.91C55.9017 42.97 55.8084 43 55.6817 43H52.3717C52.2451 43 52.1484 42.97 52.0817 42.91C52.0217 42.85 51.9917 42.7633 51.9917 42.65C51.9917 42.5433 52.0251 42.46 52.0917 42.4C52.1584 42.34 52.2517 42.31 52.3717 42.31H53.6117V36.95L52.5217 37.66C52.4684 37.6933 52.4151 37.71 52.3617 37.71C52.2684 37.71 52.1851 37.6667 52.1117 37.58C52.0451 37.4933 52.0117 37.4 52.0117 37.3C52.0117 37.16 52.0651 37.06 52.1717 37L53.6917 36.01C53.8051 35.9367 53.9217 35.9 54.0417 35.9C54.1551 35.9 54.2484 35.9367 54.3217 36.01C54.3951 36.0833 54.4317 36.1867 54.4317 36.32V42.31H55.6817ZM61.8378 42.31C61.9578 42.31 62.0511 42.34 62.1178 42.4C62.1845 42.46 62.2178 42.5433 62.2178 42.65C62.2178 42.8833 62.0911 43 61.8378 43H57.9178C57.8045 43 57.7111 42.9667 57.6378 42.9C57.5645 42.8267 57.5278 42.74 57.5278 42.64C57.5278 42.5133 57.5745 42.4033 57.6678 42.31L60.0778 39.66C60.4111 39.2867 60.6511 38.9533 60.7978 38.66C60.9511 38.36 61.0278 38.06 61.0278 37.76C61.0278 37.3733 60.9145 37.0767 60.6878 36.87C60.4678 36.6633 60.1545 36.56 59.7478 36.56C59.4278 36.56 59.1211 36.62 58.8278 36.74C58.5345 36.8533 58.2411 37.03 57.9478 37.27C57.8478 37.35 57.7545 37.39 57.6678 37.39C57.5945 37.39 57.5311 37.3567 57.4778 37.29C57.4245 37.2167 57.3978 37.13 57.3978 37.03C57.3978 36.89 57.4511 36.7767 57.5578 36.69C57.8311 36.4367 58.1645 36.2367 58.5578 36.09C58.9511 35.9433 59.3545 35.87 59.7678 35.87C60.4011 35.87 60.9045 36.0367 61.2778 36.37C61.6578 36.7033 61.8478 37.1533 61.8478 37.72C61.8478 38.1267 61.7545 38.5167 61.5678 38.89C61.3878 39.2633 61.0878 39.68 60.6678 40.14L58.6678 42.31H61.8378ZM63.9039 39.15C63.7439 39.15 63.6106 39.1 63.5039 39C63.3972 38.8933 63.3439 38.7567 63.3439 38.59C63.3439 38.4233 63.3972 38.29 63.5039 38.19C63.6106 38.0833 63.7439 38.03 63.9039 38.03C64.0572 38.03 64.1839 38.0833 64.2839 38.19C64.3906 38.29 64.4439 38.4233 64.4439 38.59C64.4439 38.7567 64.3906 38.8933 64.2839 39C64.1839 39.1 64.0572 39.15 63.9039 39.15ZM63.9039 43.05C63.7439 43.05 63.6106 43 63.5039 42.9C63.3972 42.7933 63.3439 42.6567 63.3439 42.49C63.3439 42.3233 63.3972 42.1867 63.5039 42.08C63.6106 41.9733 63.7439 41.92 63.9039 41.92C64.0572 41.92 64.1839 41.9733 64.2839 42.08C64.3906 42.1867 64.4439 42.3233 64.4439 42.49C64.4439 42.6567 64.3906 42.7933 64.2839 42.9C64.1839 43 64.0572 43.05 63.9039 43.05ZM70.3691 40.79C70.4891 40.79 70.5824 40.8233 70.6491 40.89C70.7157 40.95 70.7491 41.03 70.7491 41.13C70.7491 41.3567 70.6224 41.47 70.3691 41.47H69.6191V42.63C69.6191 42.7633 69.5791 42.8667 69.4991 42.94C69.4257 43.0133 69.3291 43.05 69.2091 43.05C69.0891 43.05 68.9924 43.0133 68.9191 42.94C68.8457 42.8667 68.8091 42.7633 68.8091 42.63V41.47H65.8491C65.7291 41.47 65.6357 41.4367 65.5691 41.37C65.5024 41.3033 65.4691 41.22 65.4691 41.12C65.4691 41.0267 65.5057 40.9233 65.5791 40.81L68.8491 36.08C68.9424 35.96 69.0624 35.9 69.2091 35.9C69.3224 35.9 69.4191 35.9367 69.4991 36.01C69.5791 36.0833 69.6191 36.1867 69.6191 36.32V40.79H70.3691ZM68.8091 40.79V37.32L66.3991 40.79H68.8091ZM74.3052 38.58C74.7518 38.58 75.1418 38.6733 75.4752 38.86C75.8152 39.0467 76.0752 39.31 76.2552 39.65C76.4418 39.9833 76.5352 40.37 76.5352 40.81C76.5352 41.25 76.4352 41.6433 76.2352 41.99C76.0352 42.33 75.7552 42.5967 75.3952 42.79C75.0418 42.9767 74.6318 43.07 74.1652 43.07C73.7518 43.07 73.3485 42.9967 72.9552 42.85C72.5618 42.7033 72.2285 42.5033 71.9552 42.25C71.8485 42.15 71.7952 42.0367 71.7952 41.91C71.7952 41.81 71.8218 41.7267 71.8752 41.66C71.9285 41.5933 71.9918 41.56 72.0652 41.56C72.1585 41.56 72.2518 41.5967 72.3452 41.67C72.6385 41.91 72.9318 42.09 73.2252 42.21C73.5185 42.3233 73.8252 42.38 74.1452 42.38C74.6385 42.38 75.0252 42.24 75.3052 41.96C75.5852 41.68 75.7252 41.3 75.7252 40.82C75.7252 40.3533 75.5852 39.9767 75.3052 39.69C75.0252 39.4033 74.6485 39.26 74.1752 39.26C73.5685 39.26 73.0752 39.4933 72.6952 39.96C72.6018 40.06 72.4885 40.11 72.3552 40.11C72.2618 40.11 72.1818 40.0833 72.1152 40.03C72.0552 39.97 72.0252 39.89 72.0252 39.79V36.34C72.0252 36.2267 72.0585 36.1333 72.1252 36.06C72.1985 35.9867 72.2985 35.95 72.4252 35.95H75.9452C76.0652 35.95 76.1585 35.98 76.2252 36.04C76.2985 36.1 76.3352 36.1833 76.3352 36.29C76.3352 36.3967 76.2985 36.48 76.2252 36.54C76.1585 36.6 76.0652 36.63 75.9452 36.63H72.8352V39.14C73.0218 38.96 73.2385 38.8233 73.4852 38.73C73.7385 38.63 74.0118 38.58 74.3052 38.58ZM78.3113 43.05C78.1846 43.05 78.0846 43.0133 78.0113 42.94C77.9379 42.86 77.9013 42.7567 77.9013 42.63V36.35C77.9013 36.23 77.9379 36.1333 78.0113 36.06C78.0913 35.9867 78.1946 35.95 78.3213 35.95H80.6913C81.4313 35.95 82.0046 36.13 82.4113 36.49C82.8246 36.85 83.0313 37.36 83.0313 38.02C83.0313 38.68 82.8246 39.1933 82.4113 39.56C81.9979 39.9267 81.4246 40.11 80.6913 40.11H78.7213V42.63C78.7213 42.7567 78.6846 42.86 78.6113 42.94C78.5379 43.0133 78.4379 43.05 78.3113 43.05ZM80.6113 39.43C81.6846 39.43 82.2213 38.96 82.2213 38.02C82.2213 37.0933 81.6846 36.63 80.6113 36.63H78.7213V39.43H80.6113ZM90.6066 35.9C90.7332 35.9 90.8299 35.94 90.8966 36.02C90.9699 36.0933 91.0066 36.1933 91.0066 36.32V42.65C91.0066 42.77 90.9732 42.8667 90.9066 42.94C90.8399 43.0133 90.7466 43.05 90.6266 43.05C90.5066 43.05 90.4166 43.0133 90.3566 42.94C90.2966 42.8667 90.2666 42.77 90.2666 42.65V37.54L88.0966 41.7C88.0032 41.8933 87.8666 41.99 87.6866 41.99C87.5132 41.99 87.3766 41.8933 87.2766 41.7L85.0966 37.59V42.65C85.0966 42.77 85.0632 42.8667 84.9966 42.94C84.9366 43.0133 84.8466 43.05 84.7266 43.05C84.6066 43.05 84.5132 43.0133 84.4466 42.94C84.3799 42.8667 84.3466 42.77 84.3466 42.65V36.32C84.3466 36.1933 84.3832 36.0933 84.4566 36.02C84.5299 35.94 84.6299 35.9 84.7566 35.9C84.9232 35.9 85.0566 35.9967 85.1566 36.19L87.6966 41.06L90.2066 36.19C90.2599 36.0833 90.3166 36.01 90.3766 35.97C90.4432 35.9233 90.5199 35.9 90.6066 35.9Z" fill="black"/>
<g clip-path="url(#clip1_28371_52178)">
<rect x="315.5" y="34.8301" width="21" height="10.33" rx="2.17" stroke="black" stroke-opacity="0.4"/>
<rect x="317" y="36.3301" width="18" height="7.33" rx="1.33" fill="#030F1A"/>
<path fill-rule="evenodd" clip-rule="evenodd" d="M338 41.9962C338.781 41.6694 339.33 40.8978 339.33 39.9981C339.33 39.0984 338.781 38.3268 338 38V41.9962Z" fill="black" fill-opacity="0.4"/>
</g>
<path d="M302.328 36.6074C304.544 36.6075 306.675 37.4589 308.281 38.9857C308.402 39.1036 308.595 39.1021 308.714 38.9824L309.87 37.8157C309.931 37.755 309.964 37.6728 309.964 37.5872C309.963 37.5016 309.929 37.4198 309.868 37.3597C305.653 33.3202 299.003 33.3202 294.788 37.3597C294.727 37.4197 294.692 37.5015 294.691 37.5871C294.691 37.6727 294.724 37.755 294.785 37.8157L295.941 38.9824C296.06 39.1023 296.253 39.1038 296.374 38.9857C297.981 37.4588 300.112 36.6074 302.328 36.6074ZM302.328 40.4031C303.545 40.403 304.72 40.8555 305.622 41.6727C305.744 41.7887 305.936 41.7862 306.055 41.6671L307.21 40.5004C307.271 40.4392 307.305 40.3562 307.304 40.2699C307.303 40.1837 307.267 40.1014 307.205 40.0414C304.457 37.485 300.201 37.485 297.453 40.0414C297.391 40.1014 297.356 40.1837 297.355 40.27C297.354 40.3563 297.388 40.4393 297.449 40.5004L298.603 41.6671C298.722 41.7862 298.914 41.7887 299.036 41.6727C299.938 40.8561 301.111 40.4036 302.328 40.4031ZM304.547 43.1874C304.609 43.1268 304.643 43.0434 304.641 42.9569C304.639 42.8704 304.602 42.7884 304.538 42.7304C303.262 41.6515 301.394 41.6515 300.118 42.7304C300.054 42.7884 300.017 42.8703 300.015 42.9568C300.013 43.0433 300.047 43.1268 300.109 43.1874L302.106 45.2031C302.165 45.2623 302.245 45.2956 302.328 45.2956C302.411 45.2956 302.491 45.2623 302.55 45.2031L304.547 43.1874Z" fill="#030F1A"/>
<path d="M273.672 41.3366H274.672C275.224 41.3366 275.672 41.7843 275.672 42.3366V44.3366C275.672 44.8889 275.224 45.3366 274.672 45.3366H273.672C273.12 45.3366 272.672 44.8889 272.672 44.3366V42.3366C272.672 41.7843 273.12 41.3366 273.672 41.3366ZM278.339 39.3366H279.339C279.891 39.3366 280.339 39.7843 280.339 40.3366V44.3366C280.339 44.8889 279.891 45.3366 279.339 45.3366H278.339C277.786 45.3366 277.339 44.8889 277.339 44.3366V40.3366C277.339 39.7843 277.786 39.3366 278.339 39.3366ZM283.005 37.0033H284.005C284.557 37.0033 285.005 37.451 285.005 38.0033V44.3366C285.005 44.8889 284.557 45.3366 284.005 45.3366H283.005C282.453 45.3366 282.005 44.8889 282.005 44.3366V38.0033C282.005 37.451 282.453 37.0033 283.005 37.0033ZM287.672 34.6699H288.672C289.224 34.6699 289.672 35.1176 289.672 35.6699V44.3366C289.672 44.8889 289.224 45.3366 288.672 45.3366H287.672C287.12 45.3366 286.672 44.8889 286.672 44.3366V35.6699C286.672 35.1176 287.12 34.6699 287.672 34.6699Z" fill="#030F1A"/>
<path d="M137.098 11.1484H251.903V33.2498C251.903 37.6681 248.321 41.2498 243.903 41.2498H145.098C140.679 41.2498 137.098 37.6681 137.098 33.2498V11.1484Z" fill="#333343"/>
<path d="M173.879 28.9863H214.005" stroke="#9CABB8" stroke-width="4" stroke-linecap="round"/>
<path d="M148.242 28.9863H149.357" stroke="#9CABB8" stroke-width="8" stroke-linecap="round"/>
<path d="M241.871 28.9863H242.986" stroke="#9CABB8" stroke-width="4" stroke-linecap="round"/>
<path d="M234.07 28.9863H235.185" stroke="#9CABB8" stroke-width="4" stroke-linecap="round"/>
<path d="M166.197 81.8719C166.309 82.0399 166.365 82.2032 166.365 82.3619C166.365 82.5765 166.277 82.7539 166.099 82.8939C165.931 83.0339 165.731 83.1039 165.497 83.1039C165.348 83.1039 165.203 83.0712 165.063 83.0059C164.933 82.9312 164.821 82.8239 164.727 82.6839L162.865 79.8559C162.679 79.5572 162.478 79.3472 162.263 79.2259C162.058 79.1045 161.787 79.0439 161.451 79.0439H160.079V82.1799C160.079 82.4599 160 82.6839 159.841 82.8519C159.683 83.0105 159.468 83.0899 159.197 83.0899C158.927 83.0899 158.707 83.0105 158.539 82.8519C158.381 82.6839 158.301 82.4599 158.301 82.1799V73.9899C158.301 73.7192 158.376 73.5092 158.525 73.3599C158.684 73.2105 158.899 73.1359 159.169 73.1359H162.669C163.789 73.1359 164.639 73.3879 165.217 73.8919C165.805 74.3865 166.099 75.1052 166.099 76.0479C166.099 76.8132 165.88 77.4432 165.441 77.9379C165.012 78.4232 164.401 78.7359 163.607 78.8759C163.878 78.9412 164.116 79.0579 164.321 79.2259C164.527 79.3939 164.727 79.6272 164.923 79.9259L166.197 81.8719ZM162.417 77.6579C163.099 77.6579 163.598 77.5319 163.915 77.2799C164.233 77.0185 164.391 76.6219 164.391 76.0899C164.391 75.5485 164.233 75.1565 163.915 74.9139C163.598 74.6619 163.099 74.5359 162.417 74.5359H160.065V77.6579H162.417ZM173.3 81.1299C173.458 81.1299 173.584 81.1905 173.678 81.3119C173.78 81.4332 173.832 81.5965 173.832 81.8019C173.832 82.0912 173.659 82.3339 173.314 82.5299C172.996 82.7072 172.637 82.8519 172.236 82.9639C171.834 83.0665 171.452 83.1179 171.088 83.1179C169.986 83.1179 169.114 82.8005 168.47 82.1659C167.826 81.5312 167.504 80.6632 167.504 79.5619C167.504 78.8619 167.644 78.2412 167.924 77.6999C168.204 77.1585 168.596 76.7385 169.1 76.4399C169.613 76.1412 170.192 75.9919 170.836 75.9919C171.452 75.9919 171.988 76.1272 172.446 76.3979C172.903 76.6685 173.258 77.0512 173.51 77.5459C173.762 78.0405 173.888 78.6239 173.888 79.2959C173.888 79.6972 173.71 79.8979 173.356 79.8979H169.226C169.282 80.5419 169.464 81.0179 169.772 81.3259C170.08 81.6245 170.528 81.7739 171.116 81.7739C171.414 81.7739 171.676 81.7365 171.9 81.6619C172.133 81.5872 172.394 81.4845 172.684 81.3539C172.964 81.2045 173.169 81.1299 173.3 81.1299ZM170.878 77.2239C170.402 77.2239 170.019 77.3732 169.73 77.6719C169.45 77.9705 169.282 78.3999 169.226 78.9599H172.39C172.371 78.3905 172.231 77.9612 171.97 77.6719C171.708 77.3732 171.344 77.2239 170.878 77.2239ZM178.779 81.7879C179.246 81.8159 179.479 82.0259 179.479 82.4179C179.479 82.6419 179.386 82.8145 179.199 82.9359C179.022 83.0479 178.765 83.0945 178.429 83.0759L178.051 83.0479C176.483 82.9359 175.699 82.0959 175.699 80.5279V77.4759H174.999C174.747 77.4759 174.551 77.4199 174.411 77.3079C174.281 77.1959 174.215 77.0325 174.215 76.8179C174.215 76.6032 174.281 76.4399 174.411 76.3279C174.551 76.2159 174.747 76.1599 174.999 76.1599H175.699V74.8719C175.699 74.6199 175.779 74.4192 175.937 74.2699C176.096 74.1205 176.311 74.0459 176.581 74.0459C176.843 74.0459 177.053 74.1205 177.211 74.2699C177.37 74.4192 177.449 74.6199 177.449 74.8719V76.1599H178.639C178.891 76.1599 179.083 76.2159 179.213 76.3279C179.353 76.4399 179.423 76.6032 179.423 76.8179C179.423 77.0325 179.353 77.1959 179.213 77.3079C179.083 77.4199 178.891 77.4759 178.639 77.4759H177.449V80.6539C177.449 81.3445 177.767 81.7132 178.401 81.7599L178.779 81.7879ZM184.395 75.9919C186.001 75.9919 186.803 76.9299 186.803 78.8059V82.2499C186.803 82.5112 186.724 82.7165 186.565 82.8659C186.416 83.0152 186.206 83.0899 185.935 83.0899C185.665 83.0899 185.45 83.0152 185.291 82.8659C185.133 82.7165 185.053 82.5112 185.053 82.2499V78.8059C185.053 78.3112 184.951 77.9519 184.745 77.7279C184.549 77.4945 184.237 77.3779 183.807 77.3779C183.303 77.3779 182.897 77.5365 182.589 77.8539C182.291 78.1712 182.141 78.5959 182.141 79.1279V82.2499C182.141 82.5112 182.062 82.7165 181.903 82.8659C181.745 83.0152 181.53 83.0899 181.259 83.0899C180.989 83.0899 180.774 83.0152 180.615 82.8659C180.466 82.7165 180.391 82.5112 180.391 82.2499V73.8779C180.391 73.6352 180.471 73.4392 180.629 73.2899C180.797 73.1405 181.012 73.0659 181.273 73.0659C181.535 73.0659 181.745 73.1359 181.903 73.2759C182.062 73.4159 182.141 73.6072 182.141 73.8499V77.1119C182.375 76.7479 182.683 76.4725 183.065 76.2859C183.457 76.0899 183.901 75.9919 184.395 75.9919ZM189.449 83.0899C189.197 83.0899 188.987 83.0199 188.819 82.8799C188.66 82.7305 188.581 82.5205 188.581 82.2499V76.8459C188.581 76.5752 188.66 76.3699 188.819 76.2299C188.987 76.0899 189.197 76.0199 189.449 76.0199C189.701 76.0199 189.911 76.0899 190.079 76.2299C190.247 76.3699 190.331 76.5752 190.331 76.8459V82.2499C190.331 82.5205 190.247 82.7305 190.079 82.8799C189.911 83.0199 189.701 83.0899 189.449 83.0899ZM189.449 74.7739C189.132 74.7739 188.88 74.6899 188.693 74.5219C188.506 74.3445 188.413 74.1159 188.413 73.8359C188.413 73.5559 188.506 73.3319 188.693 73.1639C188.88 72.9959 189.132 72.9119 189.449 72.9119C189.757 72.9119 190.004 72.9959 190.191 73.1639C190.387 73.3319 190.485 73.5559 190.485 73.8359C190.485 74.1159 190.392 74.3445 190.205 74.5219C190.018 74.6899 189.766 74.7739 189.449 74.7739ZM196.112 75.9919C196.933 75.9919 197.544 76.2252 197.946 76.6919C198.347 77.1585 198.548 77.8632 198.548 78.8059V82.2499C198.548 82.5112 198.468 82.7165 198.31 82.8659C198.16 83.0152 197.95 83.0899 197.68 83.0899C197.409 83.0899 197.194 83.0152 197.036 82.8659C196.877 82.7165 196.798 82.5112 196.798 82.2499V78.9039C196.798 78.3719 196.695 77.9845 196.49 77.7419C196.294 77.4992 195.981 77.3779 195.552 77.3779C195.048 77.3779 194.642 77.5365 194.334 77.8539C194.035 78.1712 193.886 78.5959 193.886 79.1279V82.2499C193.886 82.5112 193.806 82.7165 193.648 82.8659C193.489 83.0152 193.274 83.0899 193.004 83.0899C192.733 83.0899 192.518 83.0152 192.36 82.8659C192.21 82.7165 192.136 82.5112 192.136 82.2499V76.8319C192.136 76.5892 192.215 76.3932 192.374 76.2439C192.532 76.0945 192.747 76.0199 193.018 76.0199C193.26 76.0199 193.456 76.0945 193.606 76.2439C193.764 76.3839 193.844 76.5705 193.844 76.8039V77.1819C194.077 76.7992 194.39 76.5052 194.782 76.2999C195.174 76.0945 195.617 75.9919 196.112 75.9919ZM206.415 81.6479C206.602 81.8252 206.695 82.0259 206.695 82.2499C206.695 82.4645 206.616 82.6559 206.457 82.8239C206.308 82.9919 206.13 83.0759 205.925 83.0759C205.72 83.0759 205.528 82.9919 205.351 82.8239L202.075 79.8559V82.2499C202.075 82.5205 201.991 82.7259 201.823 82.8659C201.655 83.0059 201.445 83.0759 201.193 83.0759C200.941 83.0759 200.731 83.0059 200.563 82.8659C200.404 82.7259 200.325 82.5205 200.325 82.2499V73.8919C200.325 73.6212 200.404 73.4159 200.563 73.2759C200.731 73.1359 200.941 73.0659 201.193 73.0659C201.445 73.0659 201.655 73.1359 201.823 73.2759C201.991 73.4159 202.075 73.6212 202.075 73.8919V79.1559L205.071 76.2859C205.239 76.1179 205.43 76.0339 205.645 76.0339C205.86 76.0339 206.046 76.1132 206.205 76.2719C206.364 76.4305 206.443 76.6172 206.443 76.8319C206.443 77.0465 206.354 77.2425 206.177 77.4199L203.979 79.4639L206.415 81.6479ZM212.682 83.0899C212.411 83.0899 212.192 83.0059 212.024 82.8379C211.865 82.6699 211.786 82.4505 211.786 82.1799V73.9619C211.786 73.6912 211.865 73.4765 212.024 73.3179C212.192 73.1499 212.411 73.0659 212.682 73.0659C212.962 73.0659 213.181 73.1499 213.34 73.3179C213.508 73.4765 213.592 73.6912 213.592 73.9619V82.1799C213.592 82.4505 213.508 82.6699 213.34 82.8379C213.181 83.0059 212.962 83.0899 212.682 83.0899ZM219.545 75.9919C220.366 75.9919 220.978 76.2252 221.379 76.6919C221.78 77.1585 221.981 77.8632 221.981 78.8059V82.2499C221.981 82.5112 221.902 82.7165 221.743 82.8659C221.594 83.0152 221.384 83.0899 221.113 83.0899C220.842 83.0899 220.628 83.0152 220.469 82.8659C220.31 82.7165 220.231 82.5112 220.231 82.2499V78.9039C220.231 78.3719 220.128 77.9845 219.923 77.7419C219.727 77.4992 219.414 77.3779 218.985 77.3779C218.481 77.3779 218.075 77.5365 217.767 77.8539C217.468 78.1712 217.319 78.5959 217.319 79.1279V82.2499C217.319 82.5112 217.24 82.7165 217.081 82.8659C216.922 83.0152 216.708 83.0899 216.437 83.0899C216.166 83.0899 215.952 83.0152 215.793 82.8659C215.644 82.7165 215.569 82.5112 215.569 82.2499V76.8319C215.569 76.5892 215.648 76.3932 215.807 76.2439C215.966 76.0945 216.18 76.0199 216.451 76.0199C216.694 76.0199 216.89 76.0945 217.039 76.2439C217.198 76.3839 217.277 76.5705 217.277 76.8039V77.1819C217.51 76.7992 217.823 76.5052 218.215 76.2999C218.607 76.0945 219.05 75.9919 219.545 75.9919ZM227.315 81.7879C227.781 81.8159 228.015 82.0259 228.015 82.4179C228.015 82.6419 227.921 82.8145 227.735 82.9359C227.557 83.0479 227.301 83.0945 226.965 83.0759L226.587 83.0479C225.019 82.9359 224.235 82.0959 224.235 80.5279V77.4759H223.535C223.283 77.4759 223.087 77.4199 222.947 77.3079C222.816 77.1959 222.751 77.0325 222.751 76.8179C222.751 76.6032 222.816 76.4399 222.947 76.3279C223.087 76.2159 223.283 76.1599 223.535 76.1599H224.235V74.8719C224.235 74.6199 224.314 74.4192 224.473 74.2699C224.631 74.1205 224.846 74.0459 225.117 74.0459C225.378 74.0459 225.588 74.1205 225.747 74.2699C225.905 74.4192 225.985 74.6199 225.985 74.8719V76.1599H227.175C227.427 76.1599 227.618 76.2159 227.749 76.3279C227.889 76.4399 227.959 76.6032 227.959 76.8179C227.959 77.0325 227.889 77.1959 227.749 77.3079C227.618 77.4199 227.427 77.4759 227.175 77.4759H225.985V80.6539C225.985 81.3445 226.302 81.7132 226.937 81.7599L227.315 81.7879ZM230.026 83.0899C229.727 83.0899 229.48 82.9919 229.284 82.7959C229.088 82.5905 228.99 82.3385 228.99 82.0399C228.99 81.7412 229.088 81.4939 229.284 81.2979C229.48 81.0925 229.727 80.9899 230.026 80.9899C230.325 80.9899 230.572 81.0925 230.768 81.2979C230.964 81.4939 231.062 81.7412 231.062 82.0399C231.062 82.3385 230.964 82.5905 230.768 82.7959C230.572 82.9919 230.325 83.0899 230.026 83.0899Z" fill="black"/>
<path d="M45.7007 70.2363L37.8984 78.0404L45.7007 85.8444" stroke="#2E2E2E"/>
<rect x="22.5" y="103.5" width="344" height="391" fill="white"/>
<rect x="22.5" y="103.5" width="344" height="391" stroke="#D2D6D9"/>
<rect x="30" y="120" width="329" height="146" rx="10" fill="#F2F2F2"/>
</g>
<defs>
<clipPath id="clip0_28371_52178">
<rect width="389" height="495" fill="white"/>
</clipPath>
<clipPath id="clip1_28371_52178">
<rect width="25" height="12" fill="white" transform="translate(315 34)"/>
</clipPath>
</defs>
</svg>
