<svg width="16" height="16" viewBox="0 0 16 16" fill="none" xmlns="http://www.w3.org/2000/svg">
<path d="M10.0222 2.00033H12.668C13.0362 2.00033 13.3346 2.2988 13.3346 2.66699C13.3346 3.03518 13.0362 3.33366 12.668 3.33366H10.4633L6.96327 12.667H9.33463C9.70283 12.667 10.0013 12.9655 10.0013 13.3337C10.0013 13.7018 9.70283 14.0003 9.33463 14.0003H6.00808C6.00351 14.0004 5.99894 14.0004 5.99435 14.0003H3.33464C2.96645 14.0003 2.66797 13.7018 2.66797 13.3337C2.66797 12.9655 2.96645 12.667 3.33464 12.667H5.53927L9.03927 3.33366H6.66797C6.29978 3.33366 6.0013 3.03518 6.0013 2.66699C6.0013 2.2988 6.29978 2.00033 6.66797 2.00033H9.98066C9.99446 1.99989 10.0083 1.99989 10.0222 2.00033Z" fill="#030F1A"/>
</svg>
