<svg width="26" height="27" viewBox="0 0 26 27" fill="none" xmlns="http://www.w3.org/2000/svg">
<path d="M22.7152 20.4853C22.7047 20.8593 22.6191 21.2272 22.4636 21.5675C22.3081 21.9077 22.0858 22.2132 21.8099 22.4658C21.5341 22.7184 21.2102 22.913 20.8577 23.0381C20.5051 23.1631 20.1311 23.216 19.7577 23.1937C17.4253 23.2067 15.0928 23.1937 12.7604 23.1937C12.6168 23.1937 12.479 23.1366 12.3774 23.035C12.2758 22.9334 12.2188 22.7957 12.2188 22.652C12.2188 22.5083 12.2758 22.3706 12.3774 22.269C12.479 22.1674 12.6168 22.1103 12.7604 22.1103C15.1437 22.1103 17.5271 22.145 19.9104 22.1103C21.1097 22.093 21.6318 21.1917 21.6318 20.1192V6.61758C21.6402 6.27662 21.5443 5.94123 21.3569 5.65626C21.1695 5.37129 20.8995 5.15033 20.5832 5.02292C20.2091 4.92085 19.82 4.886 19.4337 4.92H12.7604C12.6168 4.92 12.479 4.86293 12.3774 4.76135C12.2758 4.65977 12.2188 4.52199 12.2188 4.37833C12.2188 4.23468 12.2758 4.0969 12.3774 3.99532C12.479 3.89374 12.6168 3.83667 12.7604 3.83667C15.1697 3.83667 17.5975 3.74458 20.0047 3.83667C20.3733 3.84599 20.7364 3.92853 21.0728 4.07949C21.4092 4.23045 21.7123 4.44681 21.9643 4.71598C22.2164 4.98515 22.4123 5.30175 22.5409 5.64737C22.6694 5.99299 22.7279 6.36072 22.713 6.72917L22.7152 20.4853Z" fill="black"/>
<path d="M3.43994 13.1349C3.34841 13.2237 3.29483 13.3444 3.29044 13.4718C3.29044 13.4881 3.29044 13.5022 3.28394 13.5184C3.27744 13.5347 3.28394 13.5477 3.29044 13.5628C3.29478 13.6906 3.34835 13.8117 3.43994 13.9008L7.41469 17.8756C7.51685 17.9743 7.65368 18.0288 7.7957 18.0276C7.93772 18.0264 8.07358 17.9694 8.17401 17.869C8.27444 17.7686 8.33141 17.6327 8.33264 17.4907C8.33388 17.3487 8.27928 17.2118 8.18061 17.1097L5.13103 14.059H16.7682C16.9119 14.059 17.0496 14.0019 17.1512 13.9003C17.2528 13.7988 17.3099 13.661 17.3099 13.5173C17.3099 13.3737 17.2528 13.2359 17.1512 13.1343C17.0496 13.0327 16.9119 12.9757 16.7682 12.9757H5.13103L8.18061 9.925C8.27928 9.82284 8.33388 9.68601 8.33264 9.54399C8.33141 9.40197 8.27444 9.26611 8.17401 9.16568C8.07358 9.06525 7.93772 9.00829 7.7957 9.00705C7.65368 9.00582 7.51685 9.06041 7.41469 9.15908L3.43994 13.1349Z" fill="black"/>
</svg>
