<svg width="17" height="16" viewBox="0 0 17 16" fill="none" xmlns="http://www.w3.org/2000/svg">
<path d="M14.332 7.66669C14.3343 8.5466 14.1287 9.41461 13.732 10.2C13.2617 11.1412 12.5385 11.9328 11.6437 12.4862C10.7488 13.0396 9.71753 13.3329 8.66537 13.3334C7.78545 13.3356 6.91744 13.1301 6.13203 12.7334L2.33203 14L3.5987 10.2C3.20199 9.41461 2.9964 8.5466 2.9987 7.66669C2.99911 6.61452 3.29244 5.58325 3.84584 4.68839C4.39925 3.79352 5.19087 3.0704 6.13203 2.60002C6.91744 2.20331 7.78545 1.99772 8.66537 2.00002H8.9987C10.3883 2.07668 11.7007 2.66319 12.6848 3.64726C13.6689 4.63132 14.2554 5.94379 14.332 7.33335V7.66669Z" stroke="#030F1A" stroke-width="2" stroke-linecap="round" stroke-linejoin="round"/>
</svg>
