<svg width="48" height="46" viewBox="0 0 48 46" fill="none" xmlns="http://www.w3.org/2000/svg">
<path d="M47.5 23C47.5 35.4066 36.999 45.5 24 45.5C11.001 45.5 0.5 35.4066 0.5 23C0.5 10.5934 11.001 0.5 24 0.5C36.999 0.5 47.5 10.5934 47.5 23Z" stroke="#5856D6"/>
<path d="M25.9126 14.0304C25.6021 13.9403 25.2816 13.8702 24.9511 13.8301C23.9897 13.71 23.0683 13.7801 22.207 14.0304C22.4975 13.2893 23.2185 12.7686 24.0598 12.7686C24.9011 12.7686 25.6222 13.2893 25.9126 14.0304Z" fill="#5856D6"/>
<path d="M13 33.7685V14.1227C13 13.5295 13.2055 13.0275 13.6165 12.6165C14.0275 12.2055 14.5295 12 15.1227 12H33.1879C33.781 12 34.2831 12.2055 34.6941 12.6165C35.1051 13.0275 35.3106 13.5295 35.3106 14.1227V27.4909C35.3106 28.084 35.1051 28.5861 34.6941 28.9971C34.2831 29.4081 33.781 29.6136 33.1879 29.6136H17.155L13 33.7685ZM14.7613 29.5143L16.4234 27.8522H33.1879C33.2933 27.8522 33.3798 27.8184 33.4476 27.7506C33.5153 27.6829 33.5492 27.5963 33.5492 27.4909V14.1227C33.5492 14.0173 33.5153 13.9307 33.4476 13.863C33.3798 13.7952 33.2933 13.7613 33.1879 13.7613H15.1227C15.0173 13.7613 14.9307 13.7952 14.863 13.863C14.7952 13.9307 14.7613 14.0173 14.7613 14.1227V29.5143ZM14.7613 14.1227V13.7613V29.5143V14.1227Z" fill="#5856D6"/>
</svg>
