<svg width="29" height="28" viewBox="0 0 29 28" fill="none" xmlns="http://www.w3.org/2000/svg">
<path d="M0 28V2.73031C0 1.96737 0.267106 1.32158 0.801318 0.79295C1.33553 0.264317 1.98813 0 2.75913 0H26.2409C27.0119 0 27.6645 0.264317 28.1987 0.79295C28.7329 1.32158 29 1.96737 29 2.73031V19.9253C29 20.6883 28.7329 21.3341 28.1987 21.8627C27.6645 22.3913 27.0119 22.6556 26.2409 22.6556H5.40081L0 28ZM2.28944 22.5279L4.44979 20.3901H26.2409C26.3779 20.3901 26.4904 20.3465 26.5785 20.2594C26.6665 20.1722 26.7106 20.0609 26.7106 19.9253V2.73031C26.7106 2.59476 26.6665 2.48341 26.5785 2.39626C26.4904 2.30911 26.3779 2.26553 26.2409 2.26553H2.75913C2.62214 2.26553 2.50961 2.30911 2.42154 2.39626C2.33348 2.48341 2.28944 2.59476 2.28944 2.73031V22.5279ZM2.28944 2.73031V2.26553V22.5279V2.73031Z" fill="#5856D6"/>
</svg>
