<svg width="64" height="54" viewBox="0 0 64 54" fill="none" xmlns="http://www.w3.org/2000/svg">
<mask id="mask0_3860_4735" style="mask-type:alpha" maskUnits="userSpaceOnUse" x="14" y="0" width="31" height="31">
<rect x="14" width="31" height="31" fill="#D9D9D9"/>
</mask>
<g mask="url(#mask0_3860_4735)">
<path d="M17.2295 27.1744V5.56395C17.2295 4.91149 17.4556 4.35921 17.9077 3.90713C18.3597 3.45505 18.912 3.229 19.5645 3.229H39.4362C40.0887 3.229 40.6409 3.45505 41.093 3.90713C41.5451 4.35921 41.7711 4.91149 41.7711 5.56395V20.269C41.7711 20.9215 41.5451 21.4737 41.093 21.9258C40.6409 22.3779 40.0887 22.6039 39.4362 22.6039H21.8L17.2295 27.1744ZM19.167 22.4947L20.9952 20.6665H39.4362C39.5521 20.6665 39.6473 20.6292 39.7219 20.5547C39.7964 20.4801 39.8337 20.3849 39.8337 20.269V5.56395C39.8337 5.44802 39.7964 5.35279 39.7219 5.27827C39.6473 5.20374 39.5521 5.16647 39.4362 5.16647H19.5645C19.4485 5.16647 19.3533 5.20374 19.2788 5.27827C19.2043 5.35279 19.167 5.44802 19.167 5.56395V22.4947ZM19.167 5.56395V5.16647V22.4947V5.56395Z" fill="#9CABB8"/>
</g>
<path d="M10.4877 50V42.95H11.1777L13.8877 48.04L16.5777 42.95H17.2677V50H16.5077V44.49L14.1577 48.91H13.6177L11.2377 44.5V50H10.4877ZM21.1023 50.09C20.3357 50.09 19.729 49.8667 19.2823 49.42C18.8357 48.9667 18.6123 48.3533 18.6123 47.58C18.6123 47.08 18.7123 46.64 18.9123 46.26C19.1123 45.8733 19.3857 45.5767 19.7323 45.37C20.0857 45.1567 20.4923 45.05 20.9523 45.05C21.6123 45.05 22.129 45.2633 22.5023 45.69C22.8757 46.11 23.0623 46.69 23.0623 47.43V47.74H19.4023C19.429 48.2933 19.589 48.7167 19.8823 49.01C20.1757 49.2967 20.5823 49.44 21.1023 49.44C21.3957 49.44 21.6757 49.3967 21.9423 49.31C22.209 49.2167 22.4623 49.0667 22.7023 48.86L22.9823 49.43C22.7623 49.6367 22.4823 49.8 22.1423 49.92C21.8023 50.0333 21.4557 50.09 21.1023 50.09ZM20.9723 45.65C20.5123 45.65 20.149 45.7933 19.8823 46.08C19.6157 46.3667 19.459 46.7433 19.4123 47.21H22.3623C22.3423 46.7167 22.2123 46.3333 21.9723 46.06C21.739 45.7867 21.4057 45.65 20.9723 45.65ZM25.8746 50.09C25.4946 50.09 25.1346 50.0367 24.7946 49.93C24.4546 49.8233 24.1746 49.6733 23.9546 49.48L24.2146 48.91C24.4546 49.1033 24.7179 49.2467 25.0046 49.34C25.2979 49.4267 25.5946 49.47 25.8946 49.47C26.2746 49.47 26.5613 49.4 26.7546 49.26C26.9479 49.12 27.0446 48.93 27.0446 48.69C27.0446 48.5033 26.9813 48.3567 26.8546 48.25C26.7279 48.1367 26.5279 48.05 26.2546 47.99L25.3446 47.79C24.5179 47.61 24.1046 47.1833 24.1046 46.51C24.1046 46.07 24.2779 45.7167 24.6246 45.45C24.9779 45.1833 25.4379 45.05 26.0046 45.05C26.3379 45.05 26.6546 45.1033 26.9546 45.21C27.2613 45.31 27.5146 45.46 27.7146 45.66L27.4446 46.23C27.2513 46.05 27.0246 45.9133 26.7646 45.82C26.5113 45.72 26.2579 45.67 26.0046 45.67C25.6313 45.67 25.3479 45.7433 25.1546 45.89C24.9613 46.0367 24.8646 46.23 24.8646 46.47C24.8646 46.8433 25.1113 47.0833 25.6046 47.19L26.5146 47.38C26.9413 47.4733 27.2646 47.6233 27.4846 47.83C27.7046 48.03 27.8146 48.3033 27.8146 48.65C27.8146 49.0967 27.6379 49.45 27.2846 49.71C26.9313 49.9633 26.4613 50.09 25.8746 50.09ZM30.6891 50.09C30.3091 50.09 29.9491 50.0367 29.6091 49.93C29.2691 49.8233 28.9891 49.6733 28.7691 49.48L29.0291 48.91C29.2691 49.1033 29.5324 49.2467 29.8191 49.34C30.1124 49.4267 30.4091 49.47 30.7091 49.47C31.0891 49.47 31.3757 49.4 31.5691 49.26C31.7624 49.12 31.8591 48.93 31.8591 48.69C31.8591 48.5033 31.7957 48.3567 31.6691 48.25C31.5424 48.1367 31.3424 48.05 31.0691 47.99L30.1591 47.79C29.3324 47.61 28.9191 47.1833 28.9191 46.51C28.9191 46.07 29.0924 45.7167 29.4391 45.45C29.7924 45.1833 30.2524 45.05 30.8191 45.05C31.1524 45.05 31.4691 45.1033 31.7691 45.21C32.0757 45.31 32.3291 45.46 32.5291 45.66L32.2591 46.23C32.0657 46.05 31.8391 45.9133 31.5791 45.82C31.3257 45.72 31.0724 45.67 30.8191 45.67C30.4457 45.67 30.1624 45.7433 29.9691 45.89C29.7757 46.0367 29.6791 46.23 29.6791 46.47C29.6791 46.8433 29.9257 47.0833 30.4191 47.19L31.3291 47.38C31.7557 47.4733 32.0791 47.6233 32.2991 47.83C32.5191 48.03 32.6291 48.3033 32.6291 48.65C32.6291 49.0967 32.4524 49.45 32.0991 49.71C31.7457 49.9633 31.2757 50.09 30.6891 50.09ZM35.3935 50.09C35.0602 50.09 34.7602 50.0267 34.4935 49.9C34.2335 49.7667 34.0268 49.5867 33.8735 49.36C33.7202 49.1333 33.6435 48.88 33.6435 48.6C33.6435 48.2467 33.7335 47.9667 33.9135 47.76C34.1002 47.5533 34.4035 47.4067 34.8235 47.32C35.2502 47.2267 35.8302 47.18 36.5635 47.18H36.8835V46.87C36.8835 46.4567 36.7968 46.16 36.6235 45.98C36.4568 45.7933 36.1868 45.7 35.8135 45.7C35.5202 45.7 35.2368 45.7433 34.9635 45.83C34.6902 45.91 34.4102 46.0433 34.1235 46.23L33.8435 45.64C34.0968 45.46 34.4035 45.3167 34.7635 45.21C35.1302 45.1033 35.4802 45.05 35.8135 45.05C36.4402 45.05 36.9035 45.2033 37.2035 45.51C37.5102 45.8167 37.6635 46.2933 37.6635 46.94V50H36.9035V49.16C36.7768 49.4467 36.5802 49.6733 36.3135 49.84C36.0535 50.0067 35.7468 50.09 35.3935 50.09ZM35.5235 49.48C35.9235 49.48 36.2502 49.3433 36.5035 49.07C36.7568 48.79 36.8835 48.4367 36.8835 48.01V47.71H36.5735C36.0335 47.71 35.6068 47.7367 35.2935 47.79C34.9868 47.8367 34.7702 47.9233 34.6435 48.05C34.5235 48.17 34.4635 48.3367 34.4635 48.55C34.4635 48.8233 34.5568 49.0467 34.7435 49.22C34.9368 49.3933 35.1968 49.48 35.5235 49.48ZM41.3163 51.89C40.8963 51.89 40.4996 51.8333 40.1263 51.72C39.7596 51.6133 39.4329 51.45 39.1463 51.23L39.4163 50.64C39.7163 50.8533 40.0129 51.0067 40.3063 51.1C40.6063 51.1933 40.9296 51.24 41.2763 51.24C42.2363 51.24 42.7163 50.7467 42.7163 49.76V48.9C42.5763 49.2067 42.3563 49.45 42.0563 49.63C41.7629 49.8033 41.4263 49.89 41.0462 49.89C40.5996 49.89 40.2129 49.7867 39.8863 49.58C39.5596 49.3733 39.3063 49.09 39.1263 48.73C38.9529 48.3633 38.8663 47.94 38.8663 47.46C38.8663 46.98 38.9529 46.56 39.1263 46.2C39.3063 45.8333 39.5596 45.55 39.8863 45.35C40.2129 45.15 40.5996 45.05 41.0462 45.05C41.4263 45.05 41.7629 45.1367 42.0563 45.31C42.3563 45.4833 42.5763 45.72 42.7163 46.02V45.14H43.5063V49.65C43.5063 50.3967 43.3196 50.9567 42.9463 51.33C42.5796 51.7033 42.0363 51.89 41.3163 51.89ZM41.1963 49.23C41.6629 49.23 42.0329 49.07 42.3063 48.75C42.5796 48.43 42.7163 48 42.7163 47.46C42.7163 46.92 42.5796 46.4933 42.3063 46.18C42.0329 45.86 41.6629 45.7 41.1963 45.7C40.7363 45.7 40.3696 45.86 40.0963 46.18C39.8229 46.4933 39.6863 46.92 39.6863 47.46C39.6863 48 39.8229 48.43 40.0963 48.75C40.3696 49.07 40.7363 49.23 41.1963 49.23ZM47.2156 50.09C46.449 50.09 45.8423 49.8667 45.3956 49.42C44.949 48.9667 44.7256 48.3533 44.7256 47.58C44.7256 47.08 44.8256 46.64 45.0256 46.26C45.2256 45.8733 45.499 45.5767 45.8456 45.37C46.199 45.1567 46.6056 45.05 47.0656 45.05C47.7256 45.05 48.2423 45.2633 48.6156 45.69C48.989 46.11 49.1756 46.69 49.1756 47.43V47.74H45.5156C45.5423 48.2933 45.7023 48.7167 45.9956 49.01C46.289 49.2967 46.6956 49.44 47.2156 49.44C47.509 49.44 47.789 49.3967 48.0556 49.31C48.3223 49.2167 48.5756 49.0667 48.8156 48.86L49.0956 49.43C48.8756 49.6367 48.5956 49.8 48.2556 49.92C47.9156 50.0333 47.569 50.09 47.2156 50.09ZM47.0856 45.65C46.6256 45.65 46.2623 45.7933 45.9956 46.08C45.729 46.3667 45.5723 46.7433 45.5256 47.21H48.4756C48.4556 46.7167 48.3256 46.3333 48.0856 46.06C47.8523 45.7867 47.519 45.65 47.0856 45.65ZM51.9879 50.09C51.6079 50.09 51.2479 50.0367 50.9079 49.93C50.5679 49.8233 50.2879 49.6733 50.0679 49.48L50.3279 48.91C50.5679 49.1033 50.8312 49.2467 51.1179 49.34C51.4112 49.4267 51.7079 49.47 52.0079 49.47C52.3879 49.47 52.6746 49.4 52.8679 49.26C53.0612 49.12 53.1579 48.93 53.1579 48.69C53.1579 48.5033 53.0946 48.3567 52.9679 48.25C52.8412 48.1367 52.6412 48.05 52.3679 47.99L51.4579 47.79C50.6312 47.61 50.2179 47.1833 50.2179 46.51C50.2179 46.07 50.3912 45.7167 50.7379 45.45C51.0912 45.1833 51.5512 45.05 52.1179 45.05C52.4512 45.05 52.7679 45.1033 53.0679 45.21C53.3746 45.31 53.6279 45.46 53.8279 45.66L53.5579 46.23C53.3646 46.05 53.1379 45.9133 52.8779 45.82C52.6246 45.72 52.3712 45.67 52.1179 45.67C51.7446 45.67 51.4612 45.7433 51.2679 45.89C51.0746 46.0367 50.9779 46.23 50.9779 46.47C50.9779 46.8433 51.2246 47.0833 51.7179 47.19L52.6279 47.38C53.0546 47.4733 53.3779 47.6233 53.5979 47.83C53.8179 48.03 53.9279 48.3033 53.9279 48.65C53.9279 49.0967 53.7512 49.45 53.3979 49.71C53.0446 49.9633 52.5746 50.09 51.9879 50.09Z" fill="#030F1A"/>
</svg>
