<svg width="201" height="140" viewBox="0 0 201 140" fill="none" xmlns="http://www.w3.org/2000/svg">
<path d="M162.5 0H42.5C36.9772 0 32.5 4.47715 32.5 10V130C32.5 135.523 36.9772 140 42.5 140H162.5C168.023 140 172.5 135.523 172.5 130V10C172.5 4.47715 168.023 0 162.5 0Z" fill="#FFF4CC"/>
<g filter="url(#filter0_d_7540_31222)">
<path d="M146.5 10H11.5C8.73858 10 6.5 12.2386 6.5 15V40C6.5 42.7614 8.73858 45 11.5 45H146.5C149.261 45 151.5 42.7614 151.5 40V15C151.5 12.2386 149.261 10 146.5 10Z" fill="white"/>
</g>
<path d="M75.5 18H49.5C47.8431 18 46.5 19.3431 46.5 21C46.5 22.6569 47.8431 24 49.5 24H75.5C77.1569 24 78.5 22.6569 78.5 21C78.5 19.3431 77.1569 18 75.5 18Z" fill="#FFEA99"/>
<path d="M93.5 31H49.5C47.8431 31 46.5 32.3431 46.5 34C46.5 35.6569 47.8431 37 49.5 37H93.5C95.1569 37 96.5 35.6569 96.5 34C96.5 32.3431 95.1569 31 93.5 31Z" fill="#FFF4CC"/>
<path d="M33.5 13H14.5C11.7386 13 9.5 15.2386 9.5 18V37C9.5 39.7614 11.7386 42 14.5 42H33.5C36.2614 42 38.5 39.7614 38.5 37V18C38.5 15.2386 36.2614 13 33.5 13Z" fill="#FECC2F"/>
<path d="M21.7222 30.78H23.7222L23.7442 30.01C23.7442 28.998 24.3822 28.734 25.2842 28.448C26.189 28.1906 26.9854 27.6456 27.553 26.8955C28.1206 26.1453 28.4285 25.2307 28.4302 24.29C28.45 23.7157 28.3504 23.1435 28.1376 22.6096C27.9248 22.0758 27.6036 21.5919 27.1941 21.1886C26.7846 20.7854 26.2959 20.4715 25.7589 20.2669C25.2219 20.0623 24.6482 19.9714 24.0742 20C23.4676 19.9868 22.8647 20.0969 22.3019 20.3237C21.7392 20.5505 21.2284 20.8893 20.8005 21.3194C20.3726 21.7495 20.0365 22.2621 19.8126 22.8261C19.5888 23.39 19.4818 23.9935 19.4982 24.6H21.5662C21.5584 24.2651 21.6174 23.9321 21.74 23.6203C21.8625 23.3085 22.046 23.0244 22.2798 22.7845C22.5136 22.5445 22.7929 22.3537 23.1013 22.2231C23.4098 22.0925 23.7412 22.0248 24.0762 22.024C24.3783 22.0065 24.6806 22.0542 24.9626 22.1639C25.2446 22.2737 25.4997 22.4428 25.7105 22.6599C25.9213 22.8769 26.0829 23.1368 26.1843 23.4219C26.2857 23.707 26.3246 24.0106 26.2982 24.312C26.2849 24.7999 26.1152 25.2706 25.8142 25.6548C25.5132 26.039 25.0968 26.3164 24.6262 26.446L23.9002 26.734C23.1894 26.9053 22.5689 27.3372 22.1614 27.9443C21.754 28.5514 21.5894 29.2893 21.7002 30.012L21.7222 30.78ZM22.7122 35.534C22.9081 35.541 23.1033 35.5086 23.2864 35.4388C23.4695 35.369 23.6368 35.2632 23.7783 35.1276C23.9198 34.9921 24.0327 34.8295 24.1104 34.6496C24.188 34.4696 24.2287 34.276 24.2302 34.08C24.2285 33.8842 24.1875 33.6908 24.1098 33.5111C24.032 33.3313 23.9191 33.169 23.7776 33.0337C23.6361 32.8984 23.4689 32.7927 23.286 32.723C23.103 32.6534 22.9079 32.6211 22.7122 32.628C22.5165 32.6211 22.3215 32.6534 22.1385 32.723C21.9555 32.7927 21.7883 32.8984 21.6468 33.0337C21.5053 33.169 21.3924 33.3313 21.3147 33.5111C21.2369 33.6908 21.196 33.8842 21.1942 34.08C21.1957 34.276 21.2365 34.4696 21.3141 34.6496C21.3917 34.8295 21.5046 34.9921 21.6461 35.1276C21.7876 35.2632 21.9549 35.369 22.138 35.4388C22.3211 35.5086 22.5164 35.541 22.7122 35.534Z" fill="white"/>
<g filter="url(#filter1_d_7540_31222)">
<path d="M54.5 53H189.5C190.826 53 192.098 53.5268 193.036 54.4645C193.973 55.4021 194.5 56.6739 194.5 58V83C194.5 84.3261 193.973 85.5979 193.036 86.5355C192.098 87.4732 190.826 88 189.5 88H54.5C53.1739 88 51.9021 87.4732 50.9645 86.5355C50.0268 85.5979 49.5 84.3261 49.5 83V58C49.5 56.6739 50.0268 55.4021 50.9645 54.4645C51.9021 53.5268 53.1739 53 54.5 53V53Z" fill="white"/>
</g>
<path d="M118.5 61H92.5C90.8431 61 89.5 62.3431 89.5 64C89.5 65.6569 90.8431 67 92.5 67H118.5C120.157 67 121.5 65.6569 121.5 64C121.5 62.3431 120.157 61 118.5 61Z" fill="#FFEA99"/>
<path d="M136.5 74H92.5C90.8431 74 89.5 75.3431 89.5 77C89.5 78.6569 90.8431 80 92.5 80H136.5C138.157 80 139.5 78.6569 139.5 77C139.5 75.3431 138.157 74 136.5 74Z" fill="#FFF4CC"/>
<path d="M76.5 56H57.5C54.7386 56 52.5 58.2386 52.5 61V80C52.5 82.7614 54.7386 85 57.5 85H76.5C79.2614 85 81.5 82.7614 81.5 80V61C81.5 58.2386 79.2614 56 76.5 56Z" fill="#FECC2F"/>
<path d="M64.7222 73.78H66.7222L66.7442 73.01C66.7442 71.998 67.3822 71.734 68.2842 71.448C69.189 71.1906 69.9854 70.6456 70.553 69.8955C71.1206 69.1453 71.4285 68.2307 71.4302 67.29C71.45 66.7157 71.3504 66.1435 71.1376 65.6096C70.9248 65.0758 70.6036 64.5919 70.1941 64.1886C69.7846 63.7854 69.2959 63.4715 68.7589 63.2669C68.2219 63.0623 67.6482 62.9714 67.0742 63C66.4676 62.9868 65.8647 63.0969 65.3019 63.3237C64.7392 63.5505 64.2284 63.8893 63.8005 64.3194C63.3726 64.7495 63.0365 65.2621 62.8126 65.8261C62.5888 66.39 62.4818 66.9935 62.4982 67.6H64.5662C64.5584 67.2651 64.6174 66.9321 64.74 66.6203C64.8625 66.3085 65.046 66.0244 65.2798 65.7845C65.5136 65.5445 65.7929 65.3537 66.1013 65.2231C66.4098 65.0925 66.7412 65.0248 67.0762 65.024C67.3783 65.0065 67.6806 65.0542 67.9626 65.1639C68.2446 65.2737 68.4997 65.4428 68.7105 65.6599C68.9213 65.8769 69.0829 66.1368 69.1843 66.4219C69.2857 66.707 69.3246 67.0106 69.2982 67.312C69.2849 67.7999 69.1152 68.2706 68.8142 68.6548C68.5132 69.039 68.0968 69.3164 67.6262 69.446L66.9002 69.734C66.1894 69.9053 65.5689 70.3372 65.1614 70.9443C64.754 71.5514 64.5894 72.2893 64.7002 73.012L64.7222 73.78ZM65.7122 78.534C65.9081 78.541 66.1033 78.5086 66.2864 78.4388C66.4695 78.369 66.6368 78.2632 66.7783 78.1276C66.9198 77.9921 67.0327 77.8295 67.1104 77.6496C67.188 77.4696 67.2287 77.276 67.2302 77.08C67.2285 76.8842 67.1875 76.6908 67.1098 76.5111C67.032 76.3313 66.9191 76.169 66.7776 76.0337C66.6361 75.8984 66.4689 75.7927 66.286 75.723C66.103 75.6534 65.9079 75.6211 65.7122 75.628C65.5165 75.6211 65.3215 75.6534 65.1385 75.723C64.9555 75.7927 64.7883 75.8984 64.6468 76.0337C64.5053 76.169 64.3924 76.3313 64.3147 76.5111C64.2369 76.6908 64.196 76.8842 64.1942 77.08C64.1957 77.276 64.2365 77.4696 64.3141 77.6496C64.3917 77.8295 64.5046 77.9921 64.6461 78.1276C64.7876 78.2632 64.9549 78.369 65.138 78.4388C65.3211 78.5086 65.5164 78.541 65.7122 78.534Z" fill="white"/>
<g filter="url(#filter2_d_7540_31222)">
<path d="M11.5 96H146.5C147.826 96 149.098 96.5268 150.036 97.4645C150.973 98.4021 151.5 99.6739 151.5 101V126C151.5 127.326 150.973 128.598 150.036 129.536C149.098 130.473 147.826 131 146.5 131H11.5C10.1739 131 8.90215 130.473 7.96447 129.536C7.02678 128.598 6.5 127.326 6.5 126V101C6.5 99.6739 7.02678 98.4021 7.96447 97.4645C8.90215 96.5268 10.1739 96 11.5 96V96Z" fill="white"/>
</g>
<path d="M75.5 104H49.5C47.8431 104 46.5 105.343 46.5 107C46.5 108.657 47.8431 110 49.5 110H75.5C77.1569 110 78.5 108.657 78.5 107C78.5 105.343 77.1569 104 75.5 104Z" fill="#FFEA99"/>
<path d="M93.5 117H49.5C47.8431 117 46.5 118.343 46.5 120C46.5 121.657 47.8431 123 49.5 123H93.5C95.1569 123 96.5 121.657 96.5 120C96.5 118.343 95.1569 117 93.5 117Z" fill="#FFF4CC"/>
<path d="M33.5 99H14.5C11.7386 99 9.5 101.239 9.5 104V123C9.5 125.761 11.7386 128 14.5 128H33.5C36.2614 128 38.5 125.761 38.5 123V104C38.5 101.239 36.2614 99 33.5 99Z" fill="#FECC2F"/>
<path d="M21.7222 116.78H23.7222L23.7442 116.01C23.7442 114.998 24.3822 114.734 25.2842 114.448C26.189 114.191 26.9854 113.646 27.553 112.895C28.1206 112.145 28.4285 111.231 28.4302 110.29C28.45 109.716 28.3504 109.143 28.1376 108.61C27.9248 108.076 27.6036 107.592 27.1941 107.189C26.7846 106.785 26.2959 106.472 25.7589 106.267C25.2219 106.062 24.6482 105.971 24.0742 106C23.4676 105.987 22.8647 106.097 22.3019 106.324C21.7392 106.551 21.2284 106.889 20.8005 107.319C20.3726 107.75 20.0365 108.262 19.8126 108.826C19.5888 109.39 19.4818 109.993 19.4982 110.6H21.5662C21.5584 110.265 21.6174 109.932 21.74 109.62C21.8625 109.309 22.046 109.024 22.2798 108.784C22.5136 108.545 22.7929 108.354 23.1013 108.223C23.4098 108.093 23.7412 108.025 24.0762 108.024C24.3783 108.006 24.6806 108.054 24.9626 108.164C25.2446 108.274 25.4997 108.443 25.7105 108.66C25.9213 108.877 26.0829 109.137 26.1843 109.422C26.2857 109.707 26.3246 110.011 26.2982 110.312C26.2849 110.8 26.1152 111.271 25.8142 111.655C25.5132 112.039 25.0968 112.316 24.6262 112.446L23.9002 112.734C23.1894 112.905 22.5689 113.337 22.1614 113.944C21.754 114.551 21.5894 115.289 21.7002 116.012L21.7222 116.78ZM22.7122 121.534C22.9081 121.541 23.1033 121.509 23.2864 121.439C23.4695 121.369 23.6368 121.263 23.7783 121.128C23.9198 120.992 24.0327 120.83 24.1104 120.65C24.188 120.47 24.2287 120.276 24.2302 120.08C24.2285 119.884 24.1875 119.691 24.1098 119.511C24.032 119.331 23.9191 119.169 23.7776 119.034C23.6361 118.898 23.4689 118.793 23.286 118.723C23.103 118.653 22.9079 118.621 22.7122 118.628C22.5165 118.621 22.3215 118.653 22.1385 118.723C21.9555 118.793 21.7883 118.898 21.6468 119.034C21.5053 119.169 21.3924 119.331 21.3147 119.511C21.2369 119.691 21.196 119.884 21.1942 120.08C21.1957 120.276 21.2365 120.47 21.3141 120.65C21.3917 120.83 21.5046 120.992 21.6461 121.128C21.7876 121.263 21.9549 121.369 22.138 121.439C22.3211 121.509 22.5164 121.541 22.7122 121.534Z" fill="white"/>
<defs>
<filter id="filter0_d_7540_31222" x="0.5" y="7" width="157" height="47" filterUnits="userSpaceOnUse" color-interpolation-filters="sRGB">
<feFlood flood-opacity="0" result="BackgroundImageFix"/>
<feColorMatrix in="SourceAlpha" type="matrix" values="0 0 0 0 0 0 0 0 0 0 0 0 0 0 0 0 0 0 127 0" result="hardAlpha"/>
<feOffset dy="3"/>
<feGaussianBlur stdDeviation="3"/>
<feColorMatrix type="matrix" values="0 0 0 0 0 0 0 0 0 0 0 0 0 0 0 0 0 0 0.161 0"/>
<feBlend mode="normal" in2="BackgroundImageFix" result="effect1_dropShadow_7540_31222"/>
<feBlend mode="normal" in="SourceGraphic" in2="effect1_dropShadow_7540_31222" result="shape"/>
</filter>
<filter id="filter1_d_7540_31222" x="43.5" y="50" width="157" height="47" filterUnits="userSpaceOnUse" color-interpolation-filters="sRGB">
<feFlood flood-opacity="0" result="BackgroundImageFix"/>
<feColorMatrix in="SourceAlpha" type="matrix" values="0 0 0 0 0 0 0 0 0 0 0 0 0 0 0 0 0 0 127 0" result="hardAlpha"/>
<feOffset dy="3"/>
<feGaussianBlur stdDeviation="3"/>
<feColorMatrix type="matrix" values="0 0 0 0 0 0 0 0 0 0 0 0 0 0 0 0 0 0 0.161 0"/>
<feBlend mode="normal" in2="BackgroundImageFix" result="effect1_dropShadow_7540_31222"/>
<feBlend mode="normal" in="SourceGraphic" in2="effect1_dropShadow_7540_31222" result="shape"/>
</filter>
<filter id="filter2_d_7540_31222" x="0.5" y="93" width="157" height="47" filterUnits="userSpaceOnUse" color-interpolation-filters="sRGB">
<feFlood flood-opacity="0" result="BackgroundImageFix"/>
<feColorMatrix in="SourceAlpha" type="matrix" values="0 0 0 0 0 0 0 0 0 0 0 0 0 0 0 0 0 0 127 0" result="hardAlpha"/>
<feOffset dy="3"/>
<feGaussianBlur stdDeviation="3"/>
<feColorMatrix type="matrix" values="0 0 0 0 0 0 0 0 0 0 0 0 0 0 0 0 0 0 0.161 0"/>
<feBlend mode="normal" in2="BackgroundImageFix" result="effect1_dropShadow_7540_31222"/>
<feBlend mode="normal" in="SourceGraphic" in2="effect1_dropShadow_7540_31222" result="shape"/>
</filter>
</defs>
</svg>
