<svg width="48" height="48" viewBox="0 0 48 48" fill="none" xmlns="http://www.w3.org/2000/svg">
<rect width="48" height="48" rx="24" fill="#F2F2F2"/>
<path d="M25.7996 21.6001H29.9996M17.9996 28.2001H29.9996M18.5996 14.4001H29.3996C30.1436 14.4001 30.8036 14.4241 31.3916 14.5081C34.5476 14.8561 35.3996 16.3441 35.3996 20.4001V27.6001C35.3996 31.6561 34.5476 33.1441 31.3916 33.4921C30.8036 33.5761 30.1436 33.6001 29.3996 33.6001H18.5996C17.8556 33.6001 17.1956 33.5761 16.6076 33.4921C13.4516 33.1441 12.5996 31.6561 12.5996 27.6001V20.4001C12.5996 16.3441 13.4516 14.8561 16.6076 14.5081C17.1956 14.4241 17.8556 14.4001 18.5996 14.4001Z" stroke="#9CABB8" stroke-width="1.8" stroke-linecap="round" stroke-linejoin="round"/>
<path d="M21.7133 21.6001H21.7241M18.1133 21.6001H18.1241" stroke="#9CABB8" stroke-width="2.4" stroke-linecap="round" stroke-linejoin="round"/>
</svg>
