<svg width="48" height="48" viewBox="0 0 48 48" fill="none" xmlns="http://www.w3.org/2000/svg">
<rect width="48" height="48" rx="24" fill="#F2F2F2"/>
<path d="M25.8 21.6H30M18 28.2H30M18.6 14.4H29.4C30.144 14.4 30.804 14.424 31.392 14.508C34.548 14.856 35.4 16.344 35.4 20.4V27.6C35.4 31.656 34.548 33.144 31.392 33.492C30.804 33.576 30.144 33.6 29.4 33.6H18.6C17.856 33.6 17.196 33.576 16.608 33.492C13.452 33.144 12.6 31.656 12.6 27.6V20.4C12.6 16.344 13.452 14.856 16.608 14.508C17.196 14.424 17.856 14.4 18.6 14.4Z" stroke="#030F1A" stroke-width="1.8" stroke-linecap="round" stroke-linejoin="round"/>
<path d="M21.714 21.6H21.7248M18.114 21.6H18.1248" stroke="#030F1A" stroke-width="2.4" stroke-linecap="round" stroke-linejoin="round"/>
</svg>
