<svg width="24" height="24" viewBox="0 0 24 24" fill="none" xmlns="http://www.w3.org/2000/svg">
<path d="M12.0206 2.91016C8.71058 2.91016 6.02058 5.60016 6.02058 8.91016V11.8002C6.02058 12.4102 5.76058 13.3402 5.45058 13.8602L4.30058 15.7702C3.59058 16.9502 4.08058 18.2602 5.38058 18.7002C9.69058 20.1402 14.3406 20.1402 18.6506 18.7002C19.8606 18.3002 20.3906 16.8702 19.7306 15.7702L18.5806 13.8602C18.2806 13.3402 18.0206 12.4102 18.0206 11.8002V8.91016C18.0206 5.61016 15.3206 2.91016 12.0206 2.91016Z" stroke="#007AFF" stroke-width="1.5" stroke-miterlimit="10" stroke-linecap="round"/>
<path d="M13.8699 3.20043C12.6606 2.85602 11.3792 2.85602 10.1699 3.20043C10.4599 2.46043 11.1799 1.94043 12.0199 1.94043C12.8599 1.94043 13.5799 2.46043 13.8699 3.20043Z" stroke="#007AFF" stroke-width="1.5" stroke-miterlimit="10" stroke-linecap="round" stroke-linejoin="round"/>
<path d="M15.0195 19.0596C15.0195 20.7096 13.6695 22.0596 12.0195 22.0596C11.1995 22.0596 10.4395 21.7196 9.89953 21.1796C9.33769 20.6169 9.02132 19.8547 9.01953 19.0596" stroke="#007AFF" stroke-width="1.5" stroke-miterlimit="10"/>
</svg>
