<svg width="32" height="33" viewBox="0 0 32 33" fill="none" xmlns="http://www.w3.org/2000/svg">
<path fill-rule="evenodd" clip-rule="evenodd" d="M22.3992 8.49961H15.9992V11.6996H22.3992V8.49961ZM22.3992 13.2996H15.9992V14.8996H22.3992V13.2996ZM14.3992 8.49961H9.59922V14.8996H14.3992V8.49961ZM14.3992 18.0996H22.3992V16.4996H14.3992V18.0996ZM19.1992 21.2996H22.3992V19.6996H19.1992V21.2996ZM22.3992 22.8996H9.59922V24.4996H22.3992V22.8996ZM17.5992 19.6996H9.59922V21.2996H17.5992V19.6996ZM12.7992 16.4996H9.59922V18.0996H12.7992V16.4996ZM27.1992 2.09961H4.79922C4.37487 2.09961 3.96791 2.26818 3.66785 2.56824C3.36779 2.8683 3.19922 3.27526 3.19922 3.69961V29.2996C3.19922 29.724 3.36779 30.1309 3.66785 30.431C3.96791 30.731 4.37487 30.8996 4.79922 30.8996H27.1992C27.6236 30.8996 28.0305 30.731 28.3306 30.431C28.6306 30.1309 28.7992 29.724 28.7992 29.2996V3.69961C28.7992 3.27526 28.6306 2.8683 28.3306 2.56824C28.0305 2.26818 27.6236 2.09961 27.1992 2.09961ZM25.5992 27.6996H6.39922V5.29961H25.5992V27.6996Z" fill="#030F1A"/>
</svg>
