<svg width="119" height="119" viewBox="0 0 119 119" fill="none" xmlns="http://www.w3.org/2000/svg">
<g clip-path="url(#clip0_7756_31882)">
<path d="M59.4995 113.314C61.5818 113.266 63.58 112.483 65.1408 111.104C66.7015 109.725 67.7242 107.838 68.0278 105.777H50.6406C50.9529 107.894 52.0234 109.825 53.653 111.211C55.2826 112.598 57.3602 113.345 59.4995 113.314Z" fill="#E6EAED"/>
<path d="M107.464 91.9934C104.276 89.1518 101.485 85.8941 99.1668 82.3082C96.6354 77.3582 95.1183 71.9526 94.7043 66.4084V50.079C94.6908 48.0955 94.5139 46.1165 94.1754 44.162C91.5736 43.642 89.0731 42.7043 86.7709 41.3854C87.6485 44.2111 88.0943 47.1532 88.0931 50.112V66.4415C88.4983 73.2047 90.3587 79.8008 93.5473 85.779C95.8295 89.3953 98.5374 92.7246 101.613 95.6957H16.9576C20.0331 92.7246 22.741 89.3953 25.0231 85.779C28.2117 79.8008 30.0722 73.2047 30.4773 66.4415V50.079C30.4599 46.2534 31.1973 42.462 32.6472 38.9218C34.0971 35.3816 36.2311 32.1622 38.927 29.4479C41.6229 26.7336 44.8277 24.5777 48.3579 23.1037C51.8882 21.6297 55.6745 20.8665 59.5001 20.8579C65.0989 20.8624 70.5721 22.5181 75.2345 25.6179C74.7205 23.7304 74.432 21.7886 74.3751 19.8332V17.7507C70.9236 16.0528 67.2157 14.9359 63.4006 14.4451V10.2801C63.4006 9.10973 62.9357 7.98728 62.1081 7.1597C61.2805 6.33212 60.1581 5.86719 58.9877 5.86719C57.8173 5.86719 56.6949 6.33212 55.8673 7.1597C55.0397 7.98728 54.5748 9.10973 54.5748 10.2801V14.6104C46.0323 15.8154 38.2142 20.0703 32.5638 26.5895C26.9135 33.1087 23.8124 41.452 23.8331 50.079V66.4084C23.4191 71.9526 21.902 77.3582 19.3706 82.3082C17.0927 85.8859 14.3468 89.1432 11.2059 91.9934C10.8533 92.3032 10.5707 92.6845 10.3769 93.112C10.1832 93.5394 10.0826 94.0033 10.082 94.4726V98.9682C10.082 99.8448 10.4303 100.686 11.0502 101.306C11.6701 101.925 12.5109 102.274 13.3876 102.274H105.282C106.159 102.274 107 101.925 107.619 101.306C108.239 100.686 108.588 99.8448 108.588 98.9682V94.4726C108.587 94.0033 108.486 93.5394 108.293 93.112C108.099 92.6845 107.816 92.3032 107.464 91.9934Z" fill="#E6EAED"/>
<path d="M99.1684 36.3612C108.296 36.3612 115.696 28.9615 115.696 19.8334C115.696 10.7054 108.296 3.30566 99.1684 3.30566C90.0404 3.30566 82.6406 10.7054 82.6406 19.8334C82.6406 28.9615 90.0404 36.3612 99.1684 36.3612Z" fill="#E6EAED"/>
</g>
<defs>
<clipPath id="clip0_7756_31882">
<rect width="119" height="119" fill="white"/>
</clipPath>
</defs>
</svg>
