<svg width="24" height="24" viewBox="0 0 29 29" fill="none" xmlns="http://www.w3.org/2000/svg">
<path d="M16.2 12H20.4M8.4 18.6H20.4M9 4.80005H19.8C20.544 4.80005 21.204 4.82405 21.792 4.90805C24.948 5.25605 25.8 6.74405 25.8 10.8V18C25.8 22.056 24.948 23.544 21.792 23.892C21.204 23.976 20.544 24 19.8 24H9C8.256 24 7.596 23.976 7.008 23.892C3.852 23.544 3 22.056 3 18V10.8C3 6.74405 3.852 5.25605 7.008 4.90805C7.596 4.82405 8.256 4.80005 9 4.80005Z" stroke="#2E2E2E" stroke-width="1.5" stroke-linecap="round" stroke-linejoin="round"/>
<path d="M12.1156 12H12.1264M8.51562 12H8.52643" stroke="#2E2E2E" stroke-width="2.4" stroke-linecap="round" stroke-linejoin="round"/>
</svg>
