<svg width="375" height="812" viewBox="0 0 375 812" fill="none" xmlns="http://www.w3.org/2000/svg">
<g clip-path="url(#clip0_6889_30435)">
<rect width="375" height="812" fill="#FFF4CC"/>
<path opacity="0.8" d="M383.903 -436.31C379.71 -420.428 365.656 -406.655 367.989 -390.349C369.801 -378.138 380.624 -369.126 392.045 -364.427C403.465 -359.728 415.928 -358.039 427.431 -353.556C456.761 -342.07 477.119 -310.69 475.55 -279.205C474.993 -268.361 472.182 -257.755 471.261 -246.926C469.53 -226.212 475.224 -204.905 487.179 -187.814C488.327 -186.219 489.428 -184.568 490.576 -182.973L532.311 -148.944C594.179 -98.4995 603.441 -7.43802 552.997 54.43C552.951 54.4866 552.905 54.5431 552.859 54.5997C552.813 54.6563 552.766 54.7128 552.72 54.7694C502.276 116.637 411.214 125.9 349.346 75.455L307.611 41.4257C305.818 40.6227 304.024 39.8197 302.185 39.0732C283.093 30.8501 261.066 29.4602 241.079 35.3828C230.657 38.4655 220.834 43.3543 210.324 46.0828C179.8 53.9588 144.918 40.3923 127.807 13.9196C121.1 3.55514 116.937 -8.31278 110.035 -18.5537C103.133 -28.7946 92.0694 -37.6268 79.8004 -36.8976C63.404 -35.9559 52.743 -19.4166 37.985 -12.0551C17.9947 -2.08694 -14.842 -20.0105 -22.2706 -41.0371L68.8579 -153.149L69.1345 -153.488L251.592 -377.265L251.915 -377.661L343.383 -489.496C365.475 -486.453 389.586 -457.944 383.903 -436.31Z" fill="#007AFF"/>
<path opacity="0.8" d="M561.556 -102.292C553.063 -96.7818 540.944 -96.3193 535.253 -87.9116C531.021 -81.5887 532.226 -72.9926 535.491 -66.1169C538.756 -59.2413 543.744 -53.3075 547.136 -46.4964C555.761 -29.1042 552.05 -6.35036 538.291 7.36681C533.545 12.0846 527.868 15.7601 522.961 20.3202C513.59 29.0552 507.361 41.1368 505.736 53.8889C505.599 55.0921 505.418 56.3019 505.281 57.5051L510.228 90.3239C517.561 138.974 484.063 184.365 435.413 191.699C435.368 191.705 435.324 191.712 435.279 191.719C435.235 191.726 435.19 191.732 435.146 191.739C386.496 199.073 341.105 165.574 333.771 116.924L328.824 84.1049C328.338 82.9956 327.853 81.8863 327.323 80.7837C322.017 69.1219 312.541 59.3621 300.967 53.7845C294.934 50.8735 288.426 49.0348 282.5 45.9259C265.308 36.8744 255.011 16.2322 258.17 -2.9365C259.403 -10.4448 262.42 -17.5852 263.513 -25.1178C264.606 -32.6504 263.217 -41.2641 257.316 -46.0142C249.444 -52.3773 237.727 -49.2466 227.942 -52.0014C214.691 -55.7343 207.132 -77.517 212.453 -90.1896L300.483 -103.596L300.75 -103.636L476.718 -130.162L477.029 -130.209L565.1 -143.349C573.92 -132.808 573.112 -109.81 561.556 -102.292Z" fill="#FECC2F"/>
<path opacity="0.8" d="M-145.408 1147.03C-135.041 1126.65 -111.874 1112.03 -110.263 1089.16C-109.146 1072.01 -121.229 1056.57 -135.392 1046.82C-149.555 1037.07 -166.02 1031.12 -180.358 1021.64C-216.901 997.404 -235.397 948.725 -224.022 906.34C-220.082 891.746 -213.144 878.137 -208.713 863.67C-200.278 835.99 -201.774 805.323 -213.028 778.556C-214.121 776.049 -215.136 773.478 -216.229 770.971L-263.039 712.414C-332.43 625.61 -318.311 498.969 -231.506 429.579C-231.427 429.516 -231.348 429.452 -231.268 429.389C-231.189 429.325 -231.11 429.262 -231.03 429.199C-144.226 359.808 -17.5854 373.927 51.8049 460.732L98.6148 519.289C100.819 520.908 103.024 522.527 105.308 524.082C128.876 540.876 158.444 549.231 187.382 547.037C202.469 545.901 217.272 542.13 232.375 541.501C276.225 539.741 319.715 568.44 335.231 609.487C341.317 625.56 343.5 642.932 349.887 658.894C356.274 674.856 368.738 690.123 385.649 692.731C408.238 696.261 427.6 676.882 449.844 671.195C479.974 663.496 519.4 697.524 523.339 728.318L366.424 854.144L365.948 854.525L51.9766 1105.51L51.4212 1105.95L-105.874 1231.3C-135.045 1220.68 -159.49 1174.81 -145.408 1147.03Z" fill="#0E479D"/>
<path opacity="0.8" d="M-486.47 797.098C-467.311 789.806 -443.123 794.051 -428.277 779.83C-417.208 769.114 -415.933 751.584 -419.469 736.583C-423.005 721.581 -430.353 707.711 -434.167 692.784C-443.837 654.681 -426.804 611.217 -393.725 589.92C-382.32 582.602 -369.518 577.742 -357.863 570.804C-335.592 557.502 -318.118 536.237 -309.471 511.684C-308.688 509.361 -307.813 507.043 -307.03 504.72L-302.851 437.644C-296.655 338.213 -211.015 262.618 -111.583 268.813C-111.492 268.819 -111.401 268.825 -111.311 268.83C-111.22 268.836 -111.129 268.842 -111.038 268.847C-11.6063 275.042 63.9884 360.683 57.7932 460.115L53.614 527.19C54.1029 529.593 54.5919 531.996 55.1717 534.404C60.7094 559.749 75.3126 583.104 95.8504 599.074C106.554 607.405 118.655 613.816 129.063 622.493C159.242 647.731 170.839 692.979 156.423 729.581C150.785 743.92 141.773 756.771 136.402 771.217C131.031 785.663 130.114 803.307 139.773 815.223C152.648 831.171 177.176 829.962 195.373 839.581C220.017 852.613 225.706 898.953 209.777 921.774L29.8016 910.834L29.2563 910.8L-330.388 888.392L-331.024 888.353L-510.965 876.867C-523.939 852.245 -512.547 807.061 -486.47 797.098Z" fill="#ED1B2E"/>
</g>
<defs>
<clipPath id="clip0_6889_30435">
<rect width="375" height="812" fill="white"/>
</clipPath>
</defs>
</svg>
