<svg width="375" height="812" viewBox="0 0 375 812" fill="none" xmlns="http://www.w3.org/2000/svg">
<g clip-path="url(#clip0_16317_39556)">
<rect width="375" height="812" fill="#FFF4CC"/>
<path opacity="0.8" d="M383.903 -436.31C379.71 -420.428 365.656 -406.655 367.989 -390.349C369.801 -378.138 380.624 -369.126 392.045 -364.427C403.465 -359.728 415.928 -358.04 427.431 -353.556C456.761 -342.07 477.119 -310.69 475.55 -279.205C474.993 -268.361 472.182 -257.755 471.261 -246.926C469.53 -226.212 475.224 -204.905 487.179 -187.814C488.327 -186.219 489.428 -184.568 490.576 -182.973L532.311 -148.944C594.179 -98.4995 603.441 -7.43805 552.997 54.43C552.951 54.4866 552.905 54.5431 552.859 54.5997C552.813 54.6562 552.766 54.7128 552.72 54.7693C502.276 116.637 411.214 125.899 349.346 75.455L307.611 41.4257C305.818 40.6227 304.024 39.8196 302.185 39.0732C283.093 30.8501 261.066 29.4602 241.079 35.3828C230.657 38.4654 220.834 43.3542 210.324 46.0828C179.8 53.9588 144.918 40.3923 127.807 13.9196C121.1 3.5551 116.937 -8.31281 110.035 -18.5537C103.133 -28.7946 92.0694 -37.6269 79.8004 -36.8976C63.404 -35.9559 52.743 -19.4166 37.985 -12.0552C17.9947 -2.08697 -14.842 -20.0106 -22.2706 -41.0371L68.8579 -153.149L69.1345 -153.488L251.592 -377.265L251.915 -377.661L343.383 -489.496C365.475 -486.453 389.586 -457.944 383.903 -436.31Z" fill="#007AFF"/>
<path opacity="0.8" d="M561.556 -102.292C553.063 -96.7818 540.944 -96.3193 535.253 -87.9116C531.021 -81.5887 532.226 -72.9926 535.491 -66.1169C538.756 -59.2413 543.744 -53.3075 547.136 -46.4964C555.761 -29.1042 552.05 -6.35036 538.291 7.36681C533.545 12.0846 527.868 15.7601 522.961 20.3202C513.59 29.0552 507.361 41.1368 505.736 53.8889C505.599 55.0921 505.418 56.3019 505.281 57.5051L510.228 90.3239C517.561 138.974 484.063 184.365 435.413 191.699C435.368 191.705 435.324 191.712 435.279 191.719C435.235 191.726 435.19 191.732 435.146 191.739C386.496 199.073 341.105 165.574 333.771 116.924L328.824 84.1049C328.338 82.9956 327.853 81.8863 327.323 80.7837C322.017 69.1219 312.541 59.3621 300.967 53.7845C294.934 50.8735 288.426 49.0348 282.5 45.9259C265.308 36.8744 255.011 16.2322 258.17 -2.9365C259.403 -10.4448 262.42 -17.5852 263.513 -25.1178C264.606 -32.6504 263.217 -41.2641 257.316 -46.0142C249.444 -52.3773 237.727 -49.2466 227.942 -52.0014C214.691 -55.7343 207.132 -77.517 212.453 -90.1896L300.483 -103.596L300.75 -103.636L476.718 -130.162L477.029 -130.209L565.1 -143.349C573.92 -132.808 573.112 -109.81 561.556 -102.292Z" fill="#FECC2F"/>
<path d="M0 324C0 314.059 8.05888 306 18 306H357C366.941 306 375 314.059 375 324V812H0V324Z" fill="white"/>
</g>
<defs>
<clipPath id="clip0_16317_39556">
<rect width="375" height="812" fill="white"/>
</clipPath>
</defs>
</svg>
