<svg width="35" height="35" viewBox="0 0 35 35" fill="none" xmlns="http://www.w3.org/2000/svg">
<path d="M30.6263 16.0417H26.2513V5.83333C26.2513 5.44656 26.0977 5.07563 25.8242 4.80214C25.5507 4.52865 25.1797 4.375 24.793 4.375H4.3763C3.98953 4.375 3.6186 4.52865 3.3451 4.80214C3.07161 5.07563 2.91797 5.44656 2.91797 5.83333V26.25C2.91797 28.6621 4.88089 30.625 7.29297 30.625H27.7096C30.1217 30.625 32.0846 28.6621 32.0846 26.25V17.5C32.0846 17.1132 31.931 16.7423 31.6575 16.4688C31.384 16.1953 31.0131 16.0417 30.6263 16.0417ZM7.29297 27.7083C6.90619 27.7083 6.53526 27.5547 6.26177 27.2812C5.98828 27.0077 5.83464 26.6368 5.83464 26.25V7.29167H23.3346V26.25C23.3346 26.7619 23.4236 27.2533 23.584 27.7083H7.29297ZM29.168 26.25C29.168 26.6368 29.0143 27.0077 28.7408 27.2812C28.4673 27.5547 28.0964 27.7083 27.7096 27.7083C27.3229 27.7083 26.9519 27.5547 26.6784 27.2812C26.4049 27.0077 26.2513 26.6368 26.2513 26.25V18.9583H29.168V26.25Z" fill="#030F1A"/>
<path d="M8.75 10.208H20.4167V13.1247H8.75V10.208ZM8.75 16.0413H20.4167V18.958H8.75V16.0413ZM16.0417 21.8747H20.4167V24.7913H16.0417V21.8747Z" fill="#030F1A"/>
</svg>
