<svg width="48" height="48" viewBox="0 0 48 48" fill="none" xmlns="http://www.w3.org/2000/svg">
<path d="M40 45H8V3H30L40 13V45Z" fill="#FF5722"/>
<path d="M38.5 14H29V4.5L38.5 14Z" fill="#FBE9E7"/>
<path d="M15.8108 29.4999V32.9999H13.8008V23.0469H17.1918C18.1758 23.0469 18.9618 23.3529 19.5468 23.9629C20.1318 24.5729 20.4248 25.3659 20.4248 26.3419C20.4248 27.3179 20.1348 28.0869 19.5568 28.6529C18.9788 29.2189 18.1758 29.4999 17.1498 29.4999H15.8108ZM15.8108 27.8249H17.1918C17.5748 27.8249 17.8708 27.6999 18.0808 27.4489C18.2908 27.1979 18.3948 26.8339 18.3948 26.3549C18.3948 25.8579 18.2878 25.4629 18.0738 25.1679C17.8598 24.8749 17.5728 24.7259 17.2128 24.7209H15.8108V27.8249ZM21.7648 32.9999V23.0469H24.3968C25.5588 23.0469 26.4858 23.4159 27.1748 24.1539C27.8658 24.8919 28.2178 25.9039 28.2318 27.1889V28.8019C28.2318 30.1099 27.8858 31.1369 27.1968 31.8809C26.5048 32.6279 25.5538 32.9999 24.3418 32.9999H21.7648ZM23.7738 24.7219V31.3319H24.3758C25.0458 31.3319 25.5178 31.1549 25.7908 30.8019C26.0638 30.4489 26.2078 29.8399 26.2218 28.9739V27.2449C26.2218 26.3149 26.0918 25.6669 25.8318 25.3009C25.5718 24.9339 25.1298 24.7409 24.5058 24.7229L23.7738 24.7219ZM34.8078 28.9389H31.6838V32.9999H29.6738V23.0469H35.1838V24.7219H31.6838V27.2719H34.8078V28.9389Z" fill="#FFEBEE"/>
</svg>
