<svg width="102" height="91" viewBox="0 0 102 91" fill="none" xmlns="http://www.w3.org/2000/svg">
<g clip-path="url(#clip0_22718_43397)">
<path d="M50.371 72.1991C70.1702 72.1991 86.2206 56.1487 86.2206 36.3496C86.2206 16.5504 70.1702 0.5 50.371 0.5C30.5719 0.5 14.5215 16.5504 14.5215 36.3496C14.5215 56.1487 30.5719 72.1991 50.371 72.1991Z" fill="#FFCC00"/>
<path d="M42.6768 35.7305H58.9034H42.6768Z" fill="white"/>
<path d="M42.6768 35.7305H58.9034" stroke="white" stroke-width="5.08742" stroke-linecap="round" stroke-linejoin="round"/>
<path opacity="0.1" d="M93.402 88.69C77.3225 92.5743 40.4453 89.3907 19.4941 86.8296C-1.45718 84.2686 -13.4083 81.0572 30.5797 81.2484C74.5678 81.4396 78.0609 82.8195 87.8585 82.1792C97.6561 81.5389 109.48 84.8069 93.402 88.69Z" fill="#007AFF"/>
</g>
<defs>
<clipPath id="clip0_22718_43397">
<rect width="100.63" height="90" fill="white" transform="translate(0.68457 0.5)"/>
</clipPath>
</defs>
</svg>
