<svg width="71" height="23" viewBox="0 0 71 23" fill="none" xmlns="http://www.w3.org/2000/svg">
<rect y="0.0324707" width="71" height="22" rx="11" fill="#F7961C"/>
<rect x="8" y="5.03247" width="12" height="12" rx="6" fill="white"/>
<path d="M11.7727 11.0325H16.2273" stroke="#F7961C" stroke-width="0.636364" stroke-linecap="round" stroke-linejoin="round"/>
<path d="M24.7 6.98247H27.94C28.7067 6.98247 29.3033 7.1758 29.73 7.56247C30.1567 7.94914 30.37 8.48914 30.37 9.18247C30.37 9.8758 30.1567 10.4158 29.73 10.8025C29.3033 11.1891 28.7067 11.3825 27.94 11.3825H26.26V14.0325H24.7V6.98247ZM27.74 10.2025C28.52 10.2025 28.91 9.8658 28.91 9.19247C28.91 8.8458 28.8133 8.58914 28.62 8.42247C28.4267 8.2558 28.1333 8.17247 27.74 8.17247H26.26V10.2025H27.74ZM35.4844 11.8625H32.2844C32.331 12.2558 32.4577 12.5425 32.6644 12.7225C32.8777 12.8958 33.1777 12.9825 33.5644 12.9825C33.8177 12.9825 34.0677 12.9425 34.3144 12.8625C34.5677 12.7758 34.7977 12.6558 35.0044 12.5025L35.4044 13.5125C35.1644 13.6991 34.871 13.8458 34.5244 13.9525C34.1844 14.0591 33.841 14.1125 33.4944 14.1125C32.6677 14.1125 32.0144 13.8858 31.5344 13.4325C31.061 12.9725 30.8244 12.3491 30.8244 11.5625C30.8244 11.0625 30.9277 10.6191 31.1344 10.2325C31.341 9.8458 31.6277 9.5458 31.9944 9.33247C32.361 9.11247 32.7777 9.00247 33.2444 9.00247C33.931 9.00247 34.4744 9.2258 34.8744 9.67247C35.281 10.1191 35.4844 10.7258 35.4844 11.4925V11.8625ZM33.2844 10.0425C32.9977 10.0425 32.7677 10.1358 32.5944 10.3225C32.4277 10.5025 32.3244 10.7658 32.2844 11.1125H34.2144C34.1944 10.7591 34.1044 10.4925 33.9444 10.3125C33.791 10.1325 33.571 10.0425 33.2844 10.0425ZM39.4764 9.00247C40.0631 9.00247 40.4997 9.1758 40.7864 9.52247C41.0731 9.86247 41.2164 10.3791 41.2164 11.0725V14.0325H39.7064V11.1425C39.7064 10.8091 39.6431 10.5658 39.5164 10.4125C39.3964 10.2591 39.2064 10.1825 38.9464 10.1825C38.6331 10.1825 38.3797 10.2825 38.1864 10.4825C37.9997 10.6825 37.9064 10.9491 37.9064 11.2825V14.0325H36.3964V9.12247H37.8664V9.82247C38.0397 9.5558 38.2631 9.35247 38.5364 9.21247C38.8164 9.07247 39.1297 9.00247 39.4764 9.00247ZM47.3137 6.98247V14.0325H45.8137V13.3025C45.667 13.5558 45.457 13.7558 45.1837 13.9025C44.917 14.0425 44.6137 14.1125 44.2737 14.1125C43.8537 14.1125 43.477 14.0058 43.1437 13.7925C42.817 13.5725 42.5603 13.2691 42.3737 12.8825C42.1937 12.4891 42.1037 12.0391 42.1037 11.5325C42.1037 11.0258 42.1937 10.5825 42.3737 10.2025C42.5603 9.8158 42.817 9.51914 43.1437 9.31247C43.4703 9.1058 43.847 9.00247 44.2737 9.00247C44.607 9.00247 44.907 9.07247 45.1737 9.21247C45.447 9.35247 45.657 9.54914 45.8037 9.80247V6.98247H47.3137ZM44.7137 12.9625C45.067 12.9625 45.337 12.8425 45.5237 12.6025C45.717 12.3558 45.8137 12.0058 45.8137 11.5525C45.8137 11.0991 45.717 10.7525 45.5237 10.5125C45.337 10.2725 45.067 10.1525 44.7137 10.1525C44.3603 10.1525 44.087 10.2725 43.8937 10.5125C43.7003 10.7458 43.6037 11.0858 43.6037 11.5325C43.6037 11.9858 43.7003 12.3391 43.8937 12.5925C44.087 12.8391 44.3603 12.9625 44.7137 12.9625ZM48.4765 9.12247H49.9865V14.0325H48.4765V9.12247ZM50.0465 6.76247V8.17247H48.4265V6.76247H50.0465ZM54.2225 9.00247C54.8092 9.00247 55.2458 9.1758 55.5325 9.52247C55.8192 9.86247 55.9625 10.3791 55.9625 11.0725V14.0325H54.4525V11.1425C54.4525 10.8091 54.3892 10.5658 54.2625 10.4125C54.1425 10.2591 53.9525 10.1825 53.6925 10.1825C53.3792 10.1825 53.1258 10.2825 52.9325 10.4825C52.7458 10.6825 52.6525 10.9491 52.6525 11.2825V14.0325H51.1425V9.12247H52.6125V9.82247C52.7858 9.5558 53.0092 9.35247 53.2825 9.21247C53.5625 9.07247 53.8758 9.00247 54.2225 9.00247ZM62.0998 9.12247V13.5025C62.0998 14.2958 61.8731 14.8958 61.4198 15.3025C60.9664 15.7091 60.2964 15.9125 59.4098 15.9125C58.9698 15.9125 58.5464 15.8591 58.1398 15.7525C57.7398 15.6458 57.3864 15.4958 57.0798 15.3025L57.4798 14.2625C58.1131 14.6091 58.7431 14.7825 59.3698 14.7825C60.1964 14.7825 60.6098 14.3925 60.6098 13.6125V13.0725C60.4698 13.3258 60.2598 13.5258 59.9798 13.6725C59.6998 13.8191 59.3864 13.8925 59.0398 13.8925C58.6131 13.8925 58.2331 13.7925 57.8998 13.5925C57.5731 13.3925 57.3164 13.1091 57.1298 12.7425C56.9431 12.3691 56.8498 11.9391 56.8498 11.4525C56.8498 10.9658 56.9431 10.5391 57.1298 10.1725C57.3164 9.79914 57.5731 9.51247 57.8998 9.31247C58.2331 9.1058 58.6131 9.00247 59.0398 9.00247C59.3798 9.00247 59.6864 9.0758 59.9598 9.22247C60.2398 9.36247 60.4531 9.55914 60.5998 9.81247V9.12247H62.0998ZM59.4798 12.7425C59.8331 12.7425 60.1064 12.6291 60.2998 12.4025C60.4998 12.1758 60.5998 11.8591 60.5998 11.4525C60.5998 11.0458 60.4998 10.7291 60.2998 10.5025C60.1064 10.2691 59.8331 10.1525 59.4798 10.1525C59.1264 10.1525 58.8498 10.2691 58.6498 10.5025C58.4498 10.7291 58.3498 11.0458 58.3498 11.4525C58.3498 11.8525 58.4498 12.1691 58.6498 12.4025C58.8498 12.6291 59.1264 12.7425 59.4798 12.7425Z" fill="white"/>
</svg>
