<svg width="95" height="94" viewBox="0 0 95 94" fill="none" xmlns="http://www.w3.org/2000/svg">
<rect x="0.5" y="0.5" width="94" height="93" rx="46.5" fill="#F2F2F2"/>
<path fill-rule="evenodd" clip-rule="evenodd" d="M28.2482 61.3236C33.2077 56.1187 39.9902 52.8753 47.5007 52.8753C55.0112 52.8753 61.7937 56.1187 66.7532 61.3236C67.2951 61.8923 67.4434 62.7253 67.1304 63.4429C66.8174 64.1606 66.1031 64.6253 65.3132 64.6253H29.6882C28.8983 64.6253 28.184 64.1606 27.871 63.4429C27.558 62.7253 27.7063 61.8923 28.2482 61.3236Z" fill="#007AFF"/>
<path fill-rule="evenodd" clip-rule="evenodd" d="M36.6153 38.1878C36.6153 32.2393 41.4888 27.417 47.5007 27.417C53.5125 27.417 58.3861 32.2393 58.3861 38.1878C58.3861 44.1364 53.5125 48.9587 47.5007 48.9587C41.4888 48.9587 36.6153 44.1364 36.6153 38.1878Z" fill="#007AFF"/>
<rect x="0.5" y="0.5" width="94" height="93" rx="46.5" stroke="#007AFF"/>
</svg>
