<svg width="68" height="66" viewBox="0 0 68 66" fill="none" xmlns="http://www.w3.org/2000/svg">
<path d="M34 31.4781C38.0948 31.4781 42.022 29.8514 44.9174 26.9559C47.8129 24.0604 49.4396 20.1333 49.4396 16.0385C49.4396 11.9436 47.8129 8.01651 44.9174 5.12103C42.022 2.22554 38.0948 0.598877 34 0.598877C29.9052 0.598877 25.978 2.22554 23.0826 5.12103C20.1871 8.01651 18.5604 11.9436 18.5604 16.0385C18.5604 20.1333 20.1871 24.0604 23.0826 26.9559C25.978 29.8514 29.9052 31.4781 34 31.4781ZM34 38.2615C13.4721 38.2615 0.3125 49.5897 0.3125 55.1052V65.4044H67.6875V55.1052C67.6875 48.4351 55.2293 38.2615 34 38.2615Z" fill="#9CABB8"/>
</svg>
