<svg width="389" height="495" viewBox="0 0 389 495" fill="none" xmlns="http://www.w3.org/2000/svg">
<g clip-path="url(#clip0_28378_52206)">
<path d="M382.931 123.911H382.2V46.4985C382.2 20.8039 361.324 0 335.622 0H53.3778C27.676 0 6.80019 20.8039 6.80019 46.4985V123.911H6.06898C2.70545 123.911 0 126.612 0 129.969V183.512C0 186.87 2.70545 189.571 6.06898 189.571H6.80019V202.345H6.06898C2.70545 202.345 0 205.046 0 208.404V261.946C0 265.304 2.70545 268.005 6.06898 268.005H6.80019V737.041C6.80019 762.699 27.6395 783.539 53.3778 783.539H335.622C361.324 783.539 382.2 762.735 382.2 737.041V222.455H382.931C386.295 222.455 389 219.755 389 216.397V129.969C389 126.612 386.295 123.911 382.931 123.911Z" fill="#333343"/>
<path d="M329.284 765.912H59.6815C39.0346 765.912 22.293 749.292 22.293 728.796V54.9544C22.293 34.4578 39.0346 17.8379 59.6815 17.8379H329.32C349.967 17.8379 366.708 34.4578 366.708 54.9544V728.76C366.708 749.292 349.967 765.912 329.284 765.912Z" fill="white"/>
<path d="M55.6817 42.31C55.8017 42.31 55.8951 42.34 55.9617 42.4C56.0284 42.46 56.0617 42.5433 56.0617 42.65C56.0617 42.7633 56.0284 42.85 55.9617 42.91C55.9017 42.97 55.8084 43 55.6817 43H52.3717C52.2451 43 52.1484 42.97 52.0817 42.91C52.0217 42.85 51.9917 42.7633 51.9917 42.65C51.9917 42.5433 52.0251 42.46 52.0917 42.4C52.1584 42.34 52.2517 42.31 52.3717 42.31H53.6117V36.95L52.5217 37.66C52.4684 37.6933 52.4151 37.71 52.3617 37.71C52.2684 37.71 52.1851 37.6667 52.1117 37.58C52.0451 37.4933 52.0117 37.4 52.0117 37.3C52.0117 37.16 52.0651 37.06 52.1717 37L53.6917 36.01C53.8051 35.9367 53.9217 35.9 54.0417 35.9C54.1551 35.9 54.2484 35.9367 54.3217 36.01C54.3951 36.0833 54.4317 36.1867 54.4317 36.32V42.31H55.6817ZM61.8378 42.31C61.9578 42.31 62.0511 42.34 62.1178 42.4C62.1845 42.46 62.2178 42.5433 62.2178 42.65C62.2178 42.8833 62.0911 43 61.8378 43H57.9178C57.8045 43 57.7111 42.9667 57.6378 42.9C57.5645 42.8267 57.5278 42.74 57.5278 42.64C57.5278 42.5133 57.5745 42.4033 57.6678 42.31L60.0778 39.66C60.4111 39.2867 60.6511 38.9533 60.7978 38.66C60.9511 38.36 61.0278 38.06 61.0278 37.76C61.0278 37.3733 60.9145 37.0767 60.6878 36.87C60.4678 36.6633 60.1545 36.56 59.7478 36.56C59.4278 36.56 59.1211 36.62 58.8278 36.74C58.5345 36.8533 58.2411 37.03 57.9478 37.27C57.8478 37.35 57.7545 37.39 57.6678 37.39C57.5945 37.39 57.5311 37.3567 57.4778 37.29C57.4245 37.2167 57.3978 37.13 57.3978 37.03C57.3978 36.89 57.4511 36.7767 57.5578 36.69C57.8311 36.4367 58.1645 36.2367 58.5578 36.09C58.9511 35.9433 59.3545 35.87 59.7678 35.87C60.4011 35.87 60.9045 36.0367 61.2778 36.37C61.6578 36.7033 61.8478 37.1533 61.8478 37.72C61.8478 38.1267 61.7545 38.5167 61.5678 38.89C61.3878 39.2633 61.0878 39.68 60.6678 40.14L58.6678 42.31H61.8378ZM63.9039 39.15C63.7439 39.15 63.6106 39.1 63.5039 39C63.3972 38.8933 63.3439 38.7567 63.3439 38.59C63.3439 38.4233 63.3972 38.29 63.5039 38.19C63.6106 38.0833 63.7439 38.03 63.9039 38.03C64.0572 38.03 64.1839 38.0833 64.2839 38.19C64.3906 38.29 64.4439 38.4233 64.4439 38.59C64.4439 38.7567 64.3906 38.8933 64.2839 39C64.1839 39.1 64.0572 39.15 63.9039 39.15ZM63.9039 43.05C63.7439 43.05 63.6106 43 63.5039 42.9C63.3972 42.7933 63.3439 42.6567 63.3439 42.49C63.3439 42.3233 63.3972 42.1867 63.5039 42.08C63.6106 41.9733 63.7439 41.92 63.9039 41.92C64.0572 41.92 64.1839 41.9733 64.2839 42.08C64.3906 42.1867 64.4439 42.3233 64.4439 42.49C64.4439 42.6567 64.3906 42.7933 64.2839 42.9C64.1839 43 64.0572 43.05 63.9039 43.05ZM70.3691 40.79C70.4891 40.79 70.5824 40.8233 70.6491 40.89C70.7157 40.95 70.7491 41.03 70.7491 41.13C70.7491 41.3567 70.6224 41.47 70.3691 41.47H69.6191V42.63C69.6191 42.7633 69.5791 42.8667 69.4991 42.94C69.4257 43.0133 69.3291 43.05 69.2091 43.05C69.0891 43.05 68.9924 43.0133 68.9191 42.94C68.8457 42.8667 68.8091 42.7633 68.8091 42.63V41.47H65.8491C65.7291 41.47 65.6357 41.4367 65.5691 41.37C65.5024 41.3033 65.4691 41.22 65.4691 41.12C65.4691 41.0267 65.5057 40.9233 65.5791 40.81L68.8491 36.08C68.9424 35.96 69.0624 35.9 69.2091 35.9C69.3224 35.9 69.4191 35.9367 69.4991 36.01C69.5791 36.0833 69.6191 36.1867 69.6191 36.32V40.79H70.3691ZM68.8091 40.79V37.32L66.3991 40.79H68.8091ZM74.3052 38.58C74.7518 38.58 75.1418 38.6733 75.4752 38.86C75.8152 39.0467 76.0752 39.31 76.2552 39.65C76.4418 39.9833 76.5352 40.37 76.5352 40.81C76.5352 41.25 76.4352 41.6433 76.2352 41.99C76.0352 42.33 75.7552 42.5967 75.3952 42.79C75.0418 42.9767 74.6318 43.07 74.1652 43.07C73.7518 43.07 73.3485 42.9967 72.9552 42.85C72.5618 42.7033 72.2285 42.5033 71.9552 42.25C71.8485 42.15 71.7952 42.0367 71.7952 41.91C71.7952 41.81 71.8218 41.7267 71.8752 41.66C71.9285 41.5933 71.9918 41.56 72.0652 41.56C72.1585 41.56 72.2518 41.5967 72.3452 41.67C72.6385 41.91 72.9318 42.09 73.2252 42.21C73.5185 42.3233 73.8252 42.38 74.1452 42.38C74.6385 42.38 75.0252 42.24 75.3052 41.96C75.5852 41.68 75.7252 41.3 75.7252 40.82C75.7252 40.3533 75.5852 39.9767 75.3052 39.69C75.0252 39.4033 74.6485 39.26 74.1752 39.26C73.5685 39.26 73.0752 39.4933 72.6952 39.96C72.6018 40.06 72.4885 40.11 72.3552 40.11C72.2618 40.11 72.1818 40.0833 72.1152 40.03C72.0552 39.97 72.0252 39.89 72.0252 39.79V36.34C72.0252 36.2267 72.0585 36.1333 72.1252 36.06C72.1985 35.9867 72.2985 35.95 72.4252 35.95H75.9452C76.0652 35.95 76.1585 35.98 76.2252 36.04C76.2985 36.1 76.3352 36.1833 76.3352 36.29C76.3352 36.3967 76.2985 36.48 76.2252 36.54C76.1585 36.6 76.0652 36.63 75.9452 36.63H72.8352V39.14C73.0218 38.96 73.2385 38.8233 73.4852 38.73C73.7385 38.63 74.0118 38.58 74.3052 38.58ZM78.3113 43.05C78.1846 43.05 78.0846 43.0133 78.0113 42.94C77.9379 42.86 77.9013 42.7567 77.9013 42.63V36.35C77.9013 36.23 77.9379 36.1333 78.0113 36.06C78.0913 35.9867 78.1946 35.95 78.3213 35.95H80.6913C81.4313 35.95 82.0046 36.13 82.4113 36.49C82.8246 36.85 83.0313 37.36 83.0313 38.02C83.0313 38.68 82.8246 39.1933 82.4113 39.56C81.9979 39.9267 81.4246 40.11 80.6913 40.11H78.7213V42.63C78.7213 42.7567 78.6846 42.86 78.6113 42.94C78.5379 43.0133 78.4379 43.05 78.3113 43.05ZM80.6113 39.43C81.6846 39.43 82.2213 38.96 82.2213 38.02C82.2213 37.0933 81.6846 36.63 80.6113 36.63H78.7213V39.43H80.6113ZM90.6066 35.9C90.7332 35.9 90.8299 35.94 90.8966 36.02C90.9699 36.0933 91.0066 36.1933 91.0066 36.32V42.65C91.0066 42.77 90.9732 42.8667 90.9066 42.94C90.8399 43.0133 90.7466 43.05 90.6266 43.05C90.5066 43.05 90.4166 43.0133 90.3566 42.94C90.2966 42.8667 90.2666 42.77 90.2666 42.65V37.54L88.0966 41.7C88.0032 41.8933 87.8666 41.99 87.6866 41.99C87.5132 41.99 87.3766 41.8933 87.2766 41.7L85.0966 37.59V42.65C85.0966 42.77 85.0632 42.8667 84.9966 42.94C84.9366 43.0133 84.8466 43.05 84.7266 43.05C84.6066 43.05 84.5132 43.0133 84.4466 42.94C84.3799 42.8667 84.3466 42.77 84.3466 42.65V36.32C84.3466 36.1933 84.3832 36.0933 84.4566 36.02C84.5299 35.94 84.6299 35.9 84.7566 35.9C84.9232 35.9 85.0566 35.9967 85.1566 36.19L87.6966 41.06L90.2066 36.19C90.2599 36.0833 90.3166 36.01 90.3766 35.97C90.4432 35.9233 90.5199 35.9 90.6066 35.9Z" fill="black"/>
<g clip-path="url(#clip1_28378_52206)">
<rect x="315.5" y="34.8301" width="21" height="10.33" rx="2.17" stroke="black" stroke-opacity="0.4"/>
<rect x="317" y="36.3301" width="18" height="7.33" rx="1.33" fill="#030F1A"/>
<path fill-rule="evenodd" clip-rule="evenodd" d="M338 41.9962C338.781 41.6694 339.33 40.8978 339.33 39.9981C339.33 39.0984 338.781 38.3268 338 38V41.9962Z" fill="black" fill-opacity="0.4"/>
</g>
<path d="M302.328 36.6074C304.544 36.6075 306.675 37.4589 308.281 38.9857C308.402 39.1036 308.595 39.1021 308.714 38.9824L309.87 37.8157C309.931 37.755 309.964 37.6728 309.964 37.5872C309.963 37.5016 309.929 37.4198 309.868 37.3597C305.653 33.3202 299.003 33.3202 294.788 37.3597C294.727 37.4197 294.692 37.5015 294.691 37.5871C294.691 37.6727 294.724 37.755 294.785 37.8157L295.941 38.9824C296.06 39.1023 296.253 39.1038 296.374 38.9857C297.981 37.4588 300.112 36.6074 302.328 36.6074ZM302.328 40.4031C303.545 40.403 304.72 40.8555 305.622 41.6727C305.744 41.7887 305.936 41.7862 306.055 41.6671L307.21 40.5004C307.271 40.4392 307.305 40.3562 307.304 40.2699C307.303 40.1837 307.267 40.1014 307.205 40.0414C304.457 37.485 300.201 37.485 297.453 40.0414C297.391 40.1014 297.356 40.1837 297.355 40.27C297.354 40.3563 297.388 40.4393 297.449 40.5004L298.603 41.6671C298.722 41.7862 298.914 41.7887 299.036 41.6727C299.938 40.8561 301.111 40.4036 302.328 40.4031ZM304.547 43.1874C304.609 43.1268 304.643 43.0434 304.641 42.9569C304.639 42.8704 304.602 42.7884 304.538 42.7304C303.262 41.6515 301.394 41.6515 300.118 42.7304C300.054 42.7884 300.017 42.8703 300.015 42.9568C300.013 43.0433 300.047 43.1268 300.109 43.1874L302.106 45.2031C302.165 45.2623 302.245 45.2956 302.328 45.2956C302.411 45.2956 302.491 45.2623 302.55 45.2031L304.547 43.1874Z" fill="#030F1A"/>
<path d="M273.672 41.3366H274.672C275.224 41.3366 275.672 41.7843 275.672 42.3366V44.3366C275.672 44.8889 275.224 45.3366 274.672 45.3366H273.672C273.12 45.3366 272.672 44.8889 272.672 44.3366V42.3366C272.672 41.7843 273.12 41.3366 273.672 41.3366ZM278.339 39.3366H279.339C279.891 39.3366 280.339 39.7843 280.339 40.3366V44.3366C280.339 44.8889 279.891 45.3366 279.339 45.3366H278.339C277.786 45.3366 277.339 44.8889 277.339 44.3366V40.3366C277.339 39.7843 277.786 39.3366 278.339 39.3366ZM283.005 37.0033H284.005C284.557 37.0033 285.005 37.451 285.005 38.0033V44.3366C285.005 44.8889 284.557 45.3366 284.005 45.3366H283.005C282.453 45.3366 282.005 44.8889 282.005 44.3366V38.0033C282.005 37.451 282.453 37.0033 283.005 37.0033ZM287.672 34.6699H288.672C289.224 34.6699 289.672 35.1176 289.672 35.6699V44.3366C289.672 44.8889 289.224 45.3366 288.672 45.3366H287.672C287.12 45.3366 286.672 44.8889 286.672 44.3366V35.6699C286.672 35.1176 287.12 34.6699 287.672 34.6699Z" fill="#030F1A"/>
<path d="M137.098 11.1484H251.903V33.2498C251.903 37.6681 248.321 41.2498 243.903 41.2498H145.098C140.679 41.2498 137.098 37.6681 137.098 33.2498V11.1484Z" fill="#333343"/>
<path d="M173.879 28.9863H214.005" stroke="#9CABB8" stroke-width="4" stroke-linecap="round"/>
<path d="M148.242 28.9863H149.357" stroke="#9CABB8" stroke-width="8" stroke-linecap="round"/>
<path d="M241.871 28.9863H242.986" stroke="#9CABB8" stroke-width="4" stroke-linecap="round"/>
<path d="M234.07 28.9863H235.185" stroke="#9CABB8" stroke-width="4" stroke-linecap="round"/>
<path d="M45.7007 70.2363L37.8984 78.0404L45.7007 85.8444" stroke="#2E2E2E"/>
<rect x="22.5" y="103.5" width="344" height="391" fill="white"/>
<rect x="22.5" y="103.5" width="344" height="391" stroke="#D2D6D9"/>
</g>
<defs>
<clipPath id="clip0_28378_52206">
<rect width="389" height="495" fill="white"/>
</clipPath>
<clipPath id="clip1_28378_52206">
<rect width="25" height="12" fill="white" transform="translate(315 34)"/>
</clipPath>
</defs>
</svg>
