<svg width="57" height="58" viewBox="0 0 57 58" fill="none" xmlns="http://www.w3.org/2000/svg">
<g clip-path="url(#clip0_24051_50045)">
<path d="M39.1875 4.0625C40.1323 4.0625 41.0385 4.43783 41.7066 5.10593C42.3747 5.77403 42.75 6.68017 42.75 7.625V50.375C42.75 51.3198 42.3747 52.226 41.7066 52.8941C41.0385 53.5622 40.1323 53.9375 39.1875 53.9375H17.8125C16.8677 53.9375 15.9615 53.5622 15.2934 52.8941C14.6253 52.226 14.25 51.3198 14.25 50.375V7.625C14.25 6.68017 14.6253 5.77403 15.2934 5.10593C15.9615 4.43783 16.8677 4.0625 17.8125 4.0625H39.1875ZM17.8125 0.5C15.9228 0.5 14.1106 1.25067 12.7744 2.58686C11.4382 3.92306 10.6875 5.73533 10.6875 7.625V50.375C10.6875 52.2647 11.4382 54.0769 12.7744 55.4131C14.1106 56.7493 15.9228 57.5 17.8125 57.5H39.1875C41.0772 57.5 42.8894 56.7493 44.2256 55.4131C45.5618 54.0769 46.3125 52.2647 46.3125 50.375V7.625C46.3125 5.73533 45.5618 3.92306 44.2256 2.58686C42.8894 1.25067 41.0772 0.5 39.1875 0.5L17.8125 0.5Z" fill="#9CABB8"/>
<path d="M28.5 50.375C29.4448 50.375 30.351 49.9997 31.0191 49.3316C31.6872 48.6635 32.0625 47.7573 32.0625 46.8125C32.0625 45.8677 31.6872 44.9615 31.0191 44.2934C30.351 43.6253 29.4448 43.25 28.5 43.25C27.5552 43.25 26.649 43.6253 25.9809 44.2934C25.3128 44.9615 24.9375 45.8677 24.9375 46.8125C24.9375 47.7573 25.3128 48.6635 25.9809 49.3316C26.649 49.9997 27.5552 50.375 28.5 50.375Z" fill="#9CABB8"/>
<path d="M36.5 6.75H21.5C20.6825 6.78 20.03 7.4325 20 8.25V18.75C20.03 19.5675 20.6825 20.22 21.5 20.25H36.5C37.3175 20.22 37.97 19.5675 38 18.75V8.25C37.9862 7.85657 37.8237 7.48301 37.5454 7.20464C37.267 6.92627 36.8934 6.7638 36.5 6.75ZM36.5 18.75H21.5V8.25H36.5V18.75ZM30.5 17.25V16.3125C30.5 15.0675 27.995 14.4375 26.75 14.4375C25.505 14.4375 23 15.0675 23 16.3125V17.25H30.5ZM26.75 9.75C26.2527 9.75 25.7758 9.94754 25.4242 10.2992C25.0725 10.6508 24.875 11.1277 24.875 11.625C24.875 11.8712 24.9235 12.115 25.0177 12.3425C25.112 12.57 25.2501 12.7767 25.4242 12.9508C25.7758 13.3025 26.2527 13.5 26.75 13.5C26.9962 13.5 27.24 13.4515 27.4675 13.3573C27.695 13.263 27.9017 13.1249 28.0758 12.9508C28.2499 12.7767 28.388 12.57 28.4823 12.3425C28.5765 12.115 28.625 11.8712 28.625 11.625C28.625 11.3788 28.5765 11.135 28.4823 10.9075C28.388 10.68 28.2499 10.4733 28.0758 10.2992C27.9017 10.1251 27.695 9.98695 27.4675 9.89273C27.24 9.7985 26.9962 9.75 26.75 9.75ZM30.5 9.75V10.5H35V9.75H30.5ZM30.5 11.25V12H35V11.25H30.5ZM30.5 12.75V13.5H33.5V12.75H30.5Z" fill="#9CABB8"/>
<path d="M29.2083 26.0416H34.875M29.2083 28.8749H32.75M29.2083 33.1249H34.875M29.2083 35.9583H32.75M22.125 26.0416C22.125 25.8537 22.1996 25.6736 22.3325 25.5407C22.4653 25.4079 22.6455 25.3333 22.8333 25.3333H25.6667C25.8545 25.3333 26.0347 25.4079 26.1675 25.5407C26.3004 25.6736 26.375 25.8537 26.375 26.0416V28.8749C26.375 29.0628 26.3004 29.2429 26.1675 29.3758C26.0347 29.5086 25.8545 29.5833 25.6667 29.5833H22.8333C22.6455 29.5833 22.4653 29.5086 22.3325 29.3758C22.1996 29.2429 22.125 29.0628 22.125 28.8749V26.0416ZM22.125 33.1249C22.125 32.9371 22.1996 32.7569 22.3325 32.6241C22.4653 32.4912 22.6455 32.4166 22.8333 32.4166H25.6667C25.8545 32.4166 26.0347 32.4912 26.1675 32.6241C26.3004 32.7569 26.375 32.9371 26.375 33.1249V35.9583C26.375 36.1461 26.3004 36.3263 26.1675 36.4591C26.0347 36.592 25.8545 36.6666 25.6667 36.6666H22.8333C22.6455 36.6666 22.4653 36.592 22.3325 36.4591C22.1996 36.3263 22.125 36.1461 22.125 35.9583V33.1249Z" stroke="#9CABB8" stroke-width="2" stroke-linecap="round" stroke-linejoin="round"/>
</g>
<defs>
<clipPath id="clip0_24051_50045">
<rect width="57" height="57" fill="white" transform="translate(0 0.5)"/>
</clipPath>
</defs>
</svg>
