<svg width="48" height="46" viewBox="0 0 48 46" fill="none" xmlns="http://www.w3.org/2000/svg">
<path d="M31.5 23H25.101L21.351 18.5H15.75C15.1534 18.5006 14.5815 18.7378 14.1597 19.1597C13.7378 19.5815 13.5006 20.1534 13.5 20.75V25.25C13.5004 25.6477 13.6586 26.029 13.9398 26.3102C14.221 26.5914 14.6023 26.7496 15 26.75V32C15.0004 32.3977 15.1586 32.779 15.4398 33.0602C15.721 33.3414 16.1023 33.4996 16.5 33.5H19.5C19.8977 33.4996 20.279 33.3414 20.5602 33.0602C20.8414 32.779 20.9996 32.3977 21 32V26.75H19.5V32H16.5V25.25H15V20.75C15 20.5511 15.079 20.3603 15.2197 20.2197C15.3603 20.079 15.5511 20 15.75 20H20.649L24.399 24.5H31.5C31.6989 24.5 31.8897 24.579 32.0303 24.7197C32.171 24.8603 32.25 25.0511 32.25 25.25V27.5H30.75V32H28.5V27.5H27V32C27.0004 32.3977 27.1586 32.779 27.4398 33.0602C27.721 33.3414 28.1023 33.4996 28.5 33.5H30.75C31.1477 33.4996 31.529 33.3414 31.8102 33.0602C32.0914 32.779 32.2496 32.3977 32.25 32V29C32.6477 28.9996 33.029 28.8414 33.3102 28.5602C33.5914 28.279 33.7496 27.8977 33.75 27.5V25.25C33.7494 24.6534 33.5122 24.0815 33.0903 23.6597C32.6685 23.2378 32.0966 23.0006 31.5 23Z" fill="#A155B9"/>
<path d="M29.625 22.25C29.1058 22.25 28.5983 22.096 28.1666 21.8076C27.735 21.5192 27.3985 21.1092 27.1998 20.6295C27.0011 20.1499 26.9492 19.6221 27.0504 19.1129C27.1517 18.6037 27.4017 18.136 27.7688 17.7688C28.136 17.4017 28.6037 17.1517 29.1129 17.0504C29.6221 16.9492 30.1499 17.0011 30.6295 17.1998C31.1092 17.3985 31.5192 17.735 31.8076 18.1666C32.096 18.5983 32.25 19.1058 32.25 19.625C32.2492 20.321 31.9724 20.9882 31.4803 21.4803C30.9882 21.9724 30.321 22.2492 29.625 22.25ZM29.625 18.5C29.4025 18.5 29.185 18.566 29 18.6896C28.815 18.8132 28.6708 18.9889 28.5856 19.1945C28.5005 19.4001 28.4782 19.6263 28.5216 19.8445C28.565 20.0627 28.6722 20.2632 28.8295 20.4205C28.9868 20.5778 29.1873 20.685 29.4055 20.7284C29.6238 20.7718 29.85 20.7495 30.0555 20.6644C30.2611 20.5792 30.4368 20.435 30.5604 20.25C30.684 20.065 30.75 19.8475 30.75 19.625C30.7496 19.3268 30.631 19.0408 30.4201 18.8299C30.2092 18.6191 29.9232 18.5004 29.625 18.5ZM18 17.75C17.4067 17.75 16.8266 17.5741 16.3333 17.2444C15.8399 16.9148 15.4554 16.4462 15.2284 15.8981C15.0013 15.3499 14.9419 14.7467 15.0576 14.1647C15.1734 13.5828 15.4591 13.0482 15.8787 12.6287C16.2982 12.2091 16.8328 11.9234 17.4147 11.8076C17.9967 11.6919 18.5999 11.7513 19.1481 11.9784C19.6962 12.2054 20.1648 12.5899 20.4944 13.0833C20.8241 13.5766 21 14.1567 21 14.75C20.9992 15.5454 20.6829 16.308 20.1204 16.8704C19.558 17.4329 18.7954 17.7492 18 17.75ZM18 13.25C17.7033 13.25 17.4133 13.338 17.1666 13.5028C16.92 13.6676 16.7277 13.9019 16.6142 14.176C16.5007 14.4501 16.4709 14.7517 16.5288 15.0426C16.5867 15.3336 16.7296 15.6009 16.9393 15.8107C17.1491 16.0204 17.4164 16.1633 17.7074 16.2212C17.9983 16.2791 18.2999 16.2494 18.574 16.1358C18.8481 16.0223 19.0824 15.83 19.2472 15.5834C19.412 15.3367 19.5 15.0467 19.5 14.75C19.4996 14.3523 19.3414 13.971 19.0602 13.6898C18.779 13.4086 18.3977 13.2504 18 13.25Z" fill="#A155B9"/>
<path d="M47.5 23C47.5 35.4066 36.999 45.5 24 45.5C11.001 45.5 0.5 35.4066 0.5 23C0.5 10.5934 11.001 0.5 24 0.5C36.999 0.5 47.5 10.5934 47.5 23Z" stroke="#A155B9"/>
</svg>
