<svg width="24" height="24" viewBox="0 0 24 24" fill="none" xmlns="http://www.w3.org/2000/svg">
<path d="M19.5 12H13.101L9.351 7.5H3.75C3.15345 7.5006 2.5815 7.73784 2.15967 8.15967C1.73784 8.5815 1.5006 9.15345 1.5 9.75V14.25C1.5004 14.6477 1.65856 15.029 1.93978 15.3102C2.221 15.5914 2.6023 15.7496 3 15.75V21C3.0004 21.3977 3.15856 21.779 3.43978 22.0602C3.721 22.3414 4.1023 22.4996 4.5 22.5H7.5C7.8977 22.4996 8.279 22.3414 8.56022 22.0602C8.84144 21.779 8.9996 21.3977 9 21V15.75H7.5V21H4.5V14.25H3V9.75C3 9.55109 3.07902 9.36032 3.21967 9.21967C3.36032 9.07902 3.55109 9 3.75 9H8.649L12.399 13.5H19.5C19.6989 13.5 19.8897 13.579 20.0303 13.7197C20.171 13.8603 20.25 14.0511 20.25 14.25V16.5H18.75V21H16.5V16.5H15V21C15.0004 21.3977 15.1586 21.779 15.4398 22.0602C15.721 22.3414 16.1023 22.4996 16.5 22.5H18.75C19.1477 22.4996 19.529 22.3414 19.8102 22.0602C20.0914 21.779 20.2496 21.3977 20.25 21V18C20.6477 17.9996 21.029 17.8414 21.3102 17.5602C21.5914 17.279 21.7496 16.8977 21.75 16.5V14.25C21.7494 13.6534 21.5122 13.0815 21.0903 12.6597C20.6685 12.2378 20.0966 12.0006 19.5 12Z" fill="black"/>
<path d="M17.625 11.25C17.1058 11.25 16.5983 11.096 16.1666 10.8076C15.735 10.5192 15.3985 10.1092 15.1998 9.62955C15.0011 9.14989 14.9492 8.62209 15.0504 8.11289C15.1517 7.60369 15.4017 7.13596 15.7688 6.76885C16.136 6.40173 16.6037 6.15173 17.1129 6.05044C17.6221 5.94915 18.1499 6.00114 18.6295 6.19982C19.1092 6.3985 19.5192 6.73495 19.8076 7.16663C20.096 7.59831 20.25 8.10583 20.25 8.625C20.2492 9.32095 19.9724 9.98817 19.4803 10.4803C18.9882 10.9724 18.321 11.2492 17.625 11.25ZM17.625 7.5C17.4025 7.5 17.185 7.56598 17 7.6896C16.815 7.81321 16.6708 7.98892 16.5856 8.19448C16.5005 8.40005 16.4782 8.62625 16.5216 8.84448C16.565 9.06271 16.6722 9.26316 16.8295 9.4205C16.9868 9.57783 17.1873 9.68498 17.4055 9.72839C17.6238 9.77179 17.85 9.74952 18.0555 9.66437C18.2611 9.57922 18.4368 9.43502 18.5604 9.25002C18.684 9.06501 18.75 8.84751 18.75 8.625C18.7496 8.32676 18.631 8.04084 18.4201 7.82995C18.2092 7.61905 17.9232 7.5004 17.625 7.5ZM6 6.75C5.40666 6.75 4.82664 6.57405 4.33329 6.24441C3.83994 5.91477 3.45543 5.44623 3.22836 4.89805C3.0013 4.34987 2.94189 3.74667 3.05765 3.16473C3.1734 2.58279 3.45912 2.04824 3.87868 1.62868C4.29824 1.20912 4.83279 0.923401 5.41473 0.807646C5.99667 0.69189 6.59987 0.7513 7.14805 0.978363C7.69623 1.20543 8.16477 1.58994 8.49441 2.08329C8.82405 2.57664 9 3.15666 9 3.75C8.99921 4.54541 8.68288 5.30801 8.12044 5.87045C7.55801 6.43288 6.79541 6.74921 6 6.75ZM6 2.25C5.70333 2.25 5.41332 2.33797 5.16665 2.5028C4.91997 2.66762 4.72771 2.90189 4.61418 3.17598C4.50065 3.45007 4.47095 3.75167 4.52882 4.04264C4.5867 4.33361 4.72956 4.60088 4.93934 4.81066C5.14912 5.02044 5.41639 5.1633 5.70737 5.22118C5.99834 5.27906 6.29994 5.24935 6.57403 5.13582C6.84812 5.02229 7.08238 4.83003 7.24721 4.58336C7.41203 4.33668 7.5 4.04667 7.5 3.75C7.4996 3.3523 7.34144 2.971 7.06022 2.68978C6.779 2.40856 6.3977 2.2504 6 2.25Z" fill="black"/>
</svg>
