<svg width="32" height="32" viewBox="0 0 32 32" fill="none" xmlns="http://www.w3.org/2000/svg">
<path d="M27.0001 31.004H5.00011C4.73489 31.004 4.48054 30.8986 4.293 30.7111C4.10547 30.5235 4.00011 30.2692 4.00011 30.004V26.504C3.99072 24.2982 4.59327 22.133 5.74078 20.2491C6.88829 18.3652 8.53579 16.8365 10.5001 15.833C10.2534 15.333 10.0909 14.7958 10.0191 14.243L9.92911 12.873C9.56741 12.6842 9.25398 12.4148 9.01305 12.0856C8.77212 11.7563 8.61016 11.3761 8.53969 10.9742C8.46921 10.5724 8.49212 10.1597 8.60664 9.7681C8.72116 9.37652 8.92422 9.01653 9.20011 8.71597V8.65397C9.19491 8.53803 9.15675 8.42598 9.09011 8.33097C8.7983 7.90406 8.609 7.41553 8.53695 6.90346C8.46491 6.39139 8.51206 5.8696 8.67475 5.37874C8.83743 4.88789 9.11125 4.44122 9.47487 4.07354C9.83849 3.70586 10.2821 3.42709 10.7711 3.25897C11.1305 3.13637 11.4362 2.89285 11.6361 2.56997C12.0667 1.89788 12.7201 1.39874 13.4818 1.15996C14.2435 0.921185 15.0649 0.958004 15.8021 1.26397C15.9431 1.31983 16.1004 1.31804 16.2401 1.25897C16.9861 0.949863 17.8177 0.916354 18.5862 1.16444C19.3546 1.41252 20.0097 1.92601 20.4341 2.61297C20.6251 2.91797 20.9191 3.14597 21.2631 3.25397C22.0382 3.51085 22.691 4.04506 23.0961 4.75397C23.4141 5.30952 23.568 5.94384 23.54 6.58334C23.5121 7.22284 23.3034 7.8413 22.9381 8.36697C22.881 8.45666 22.8505 8.56067 22.8501 8.66697V8.72997C23.1197 9.02699 23.3186 9.38117 23.4319 9.76597C23.5453 10.1508 23.5701 10.5562 23.5044 10.952C23.4388 11.3477 23.2846 11.7235 23.0531 12.0511C22.8217 12.3788 22.5191 12.6498 22.1681 12.844L22.0901 14.174C22.016 14.7652 21.8433 15.3399 21.5791 15.874C23.5214 16.8865 25.1477 18.4137 26.2802 20.2886C27.4127 22.1634 28.0077 24.3136 28.0001 26.504V30.004C28.0001 30.2692 27.8948 30.5235 27.7072 30.7111C27.5197 30.8986 27.2653 31.004 27.0001 31.004ZM13.2891 29.004H14.0821L15.2891 21.12L14.8691 20.217L14.2111 20.74C14.0839 20.8443 13.9295 20.91 13.7662 20.9295C13.6028 20.949 13.4373 20.9214 13.2891 20.85V29.004ZM18.7091 29.004V20.849C18.5611 20.9208 18.3957 20.9488 18.2323 20.9297C18.069 20.9105 17.9145 20.8451 17.7871 20.741L17.1111 20.203L16.6891 21.12L17.8881 29.004H18.7091ZM12.8651 15.816L13.5191 16.156C13.6981 16.248 13.8851 16.326 14.0791 16.386L14.0891 16.389C14.4091 16.487 14.7491 16.54 15.0991 16.54H16.9991C17.3101 16.54 17.6121 16.498 17.9001 16.42L17.9171 16.415C18.1161 16.36 18.3081 16.288 18.4921 16.199L19.1511 15.88L19.2021 15.844C19.2405 15.7678 19.2886 15.6969 19.3451 15.633C19.7551 15.169 20.0151 14.594 20.0961 13.981L20.2121 12.081C20.226 11.8614 20.3119 11.6526 20.4566 11.4868C20.6012 11.321 20.7965 11.2075 21.0121 11.164C21.1379 11.1382 21.2534 11.0763 21.3445 10.9859C21.4356 10.8955 21.4984 10.7805 21.5251 10.6549C21.5519 10.5294 21.5414 10.3987 21.4951 10.279C21.4487 10.1593 21.3684 10.0558 21.2641 9.98097C21.0693 9.8405 20.9316 9.63462 20.8761 9.40097H20.8661L20.8681 9.36297C20.8555 9.2994 20.8492 9.23477 20.8491 9.16997V8.66997C20.8491 8.41597 20.8871 8.16497 20.9601 7.92497C20.9221 7.45897 20.5211 7.06397 19.9901 7.03997H18.5171C17.3311 7.03997 16.2301 6.37797 15.7251 5.31497L15.7191 5.30397L15.7151 5.29297C15.6976 5.25857 15.6708 5.22976 15.6377 5.20979C15.6047 5.18982 15.5667 5.17949 15.5281 5.17997H14.1811C12.4811 5.17997 11.1491 6.48697 11.1491 8.05997V8.16797C11.1811 8.32797 11.1991 8.48997 11.2001 8.65397V9.15997C11.1999 9.31964 11.1615 9.47695 11.0881 9.61874C11.0147 9.76053 10.9084 9.88268 10.7781 9.97497C10.6713 10.0503 10.5893 10.1557 10.5424 10.2777C10.4956 10.3997 10.486 10.5329 10.5149 10.6603C10.5438 10.7878 10.61 10.9038 10.7049 10.9936C10.7998 11.0835 10.9193 11.1431 11.0481 11.165C11.2702 11.2026 11.4731 11.3141 11.624 11.4814C11.7748 11.6488 11.8647 11.8621 11.8791 12.087L12.0051 14.048C12.0931 14.627 12.3441 15.168 12.7281 15.61C12.7821 15.673 12.8281 15.742 12.8651 15.816ZM17.2621 17.534C17.1821 17.538 17.1031 17.54 17.0231 17.54H15.0381C14.9297 17.54 14.8213 17.5363 14.7131 17.529C14.8998 17.7936 15.1639 17.9938 15.4691 18.102C15.7892 18.2142 16.137 18.2196 16.4604 18.1171C16.7837 18.0147 17.0651 17.81 17.2621 17.534ZM19.7091 16.71V29.99L22.4591 22.13C22.5791 21.77 22.4891 21.38 22.2191 21.12L20.8591 19.79C20.8212 19.7532 20.7953 19.7058 20.7847 19.6541C20.7742 19.6023 20.7796 19.5486 20.8001 19.4999C20.8207 19.4513 20.8554 19.41 20.8999 19.3814C20.9443 19.3529 20.9963 19.3384 21.0491 19.34H22.0991C22.3091 19.34 22.4491 19.12 22.3591 18.93L21.1291 16.31L21.1251 16.302C20.9081 16.214 20.6881 16.132 20.4651 16.058C20.2376 16.3022 19.9841 16.5208 19.7091 16.71ZM13.7891 17.942V19.799L14.8741 18.936L14.8441 18.922C14.406 18.7029 14.0399 18.3628 13.7891 17.942ZM18.2091 19.799V17.907C17.9547 18.3488 17.5746 18.7049 17.1171 18.93L18.2091 19.799ZM10.9121 16.283L10.9091 16.29L9.63911 18.98C9.54911 19.17 9.69911 19.39 9.90911 19.39H10.9591C11.1991 19.39 11.3091 19.68 11.1491 19.84L9.78911 21.17C9.52911 21.43 9.42911 21.82 9.55911 22.17L12.2891 29.99H12.2991V16.673C12.038 16.488 11.797 16.2762 11.5801 16.041C11.3541 16.114 11.1311 16.195 10.9121 16.283Z" fill="#030F1A"/>
</svg>
