<svg width="53" height="48" viewBox="0 0 53 48" fill="none" xmlns="http://www.w3.org/2000/svg">
<rect x="0.5" y="0.5" width="52" height="47" rx="8.5" stroke="#007AFF"/>
<path d="M37.0001 39.004H15.0001C14.7349 39.004 14.4805 38.8986 14.293 38.7111C14.1055 38.5235 14.0001 38.2692 14.0001 38.004V34.504C13.9907 32.2982 14.5933 30.133 15.7408 28.2491C16.8883 26.3652 18.5358 24.8365 20.5001 23.833C20.2534 23.333 20.0909 22.7958 20.0191 22.243L19.9291 20.873C19.5674 20.6842 19.254 20.4148 19.013 20.0856C18.7721 19.7563 18.6102 19.3761 18.5397 18.9742C18.4692 18.5724 18.4921 18.1597 18.6066 17.7681C18.7212 17.3765 18.9242 17.0165 19.2001 16.716V16.654C19.1949 16.538 19.1568 16.426 19.0901 16.331C18.7983 15.9041 18.609 15.4155 18.537 14.9035C18.4649 14.3914 18.5121 13.8696 18.6747 13.3787C18.8374 12.8879 19.1113 12.4412 19.4749 12.0735C19.8385 11.7059 20.2821 11.4271 20.7711 11.259C21.1305 11.1364 21.4362 10.8929 21.6361 10.57C22.0667 9.89788 22.7201 9.39874 23.4818 9.15996C24.2435 8.92118 25.0649 8.958 25.8021 9.26397C25.9431 9.31983 26.1004 9.31804 26.2401 9.25897C26.9861 8.94986 27.8177 8.91635 28.5862 9.16444C29.3546 9.41252 30.0097 9.92601 30.4341 10.613C30.6251 10.918 30.9191 11.146 31.2631 11.254C32.0382 11.5108 32.691 12.0451 33.0961 12.754C33.4141 13.3095 33.568 13.9438 33.54 14.5833C33.5121 15.2228 33.3034 15.8413 32.9381 16.367C32.881 16.4567 32.8505 16.5607 32.8501 16.667V16.73C33.1197 17.027 33.3186 17.3812 33.4319 17.766C33.5453 18.1508 33.5701 18.5562 33.5044 18.952C33.4388 19.3477 33.2846 19.7235 33.0531 20.0511C32.8217 20.3788 32.5191 20.6498 32.1681 20.844L32.0901 22.174C32.016 22.7652 31.8433 23.3399 31.5791 23.874C33.5214 24.8865 35.1477 26.4137 36.2802 28.2886C37.4127 30.1634 38.0077 32.3136 38.0001 34.504V38.004C38.0001 38.2692 37.8948 38.5235 37.7072 38.7111C37.5197 38.8986 37.2653 39.004 37.0001 39.004ZM23.2891 37.004H24.0821L25.2891 29.12L24.8691 28.217L24.2111 28.74C24.0839 28.8443 23.9295 28.91 23.7662 28.9295C23.6028 28.949 23.4373 28.9214 23.2891 28.85V37.004ZM28.7091 37.004V28.849C28.5611 28.9208 28.3957 28.9488 28.2323 28.9297C28.069 28.9105 27.9145 28.8451 27.7871 28.741L27.1111 28.203L26.6891 29.12L27.8881 37.004H28.7091ZM22.8651 23.816L23.5191 24.156C23.6981 24.248 23.8851 24.326 24.0791 24.386L24.0891 24.389C24.4091 24.487 24.7491 24.54 25.0991 24.54H26.9991C27.3101 24.54 27.6121 24.498 27.9001 24.42L27.9171 24.415C28.1161 24.36 28.3081 24.288 28.4921 24.199L29.1511 23.88L29.2021 23.844C29.2405 23.7678 29.2886 23.6969 29.3451 23.633C29.7551 23.169 30.0151 22.594 30.0961 21.981L30.2121 20.081C30.226 19.8614 30.3119 19.6526 30.4566 19.4868C30.6012 19.321 30.7965 19.2075 31.0121 19.164C31.1379 19.1382 31.2534 19.0763 31.3445 18.9859C31.4356 18.8955 31.4984 18.7805 31.5251 18.6549C31.5519 18.5294 31.5414 18.3987 31.4951 18.279C31.4487 18.1593 31.3684 18.0558 31.2641 17.981C31.0693 17.8405 30.9316 17.6346 30.8761 17.401H30.8661L30.8681 17.363C30.8555 17.2994 30.8492 17.2348 30.8491 17.17V16.67C30.8491 16.416 30.8871 16.165 30.9601 15.925C30.9221 15.459 30.5211 15.064 29.9901 15.04H28.5171C27.3311 15.04 26.2301 14.378 25.7251 13.315L25.7191 13.304L25.7151 13.293C25.6976 13.2586 25.6708 13.2298 25.6377 13.2098C25.6047 13.1898 25.5667 13.1795 25.5281 13.18H24.1811C22.4811 13.18 21.1491 14.487 21.1491 16.06V16.168C21.1811 16.328 21.1991 16.49 21.2001 16.654V17.16C21.1999 17.3196 21.1615 17.4769 21.0881 17.6187C21.0147 17.7605 20.9084 17.8827 20.7781 17.975C20.6713 18.0503 20.5893 18.1557 20.5424 18.2777C20.4956 18.3997 20.486 18.5329 20.5149 18.6603C20.5438 18.7878 20.61 18.9038 20.7049 18.9936C20.7998 19.0835 20.9193 19.1431 21.0481 19.165C21.2702 19.2026 21.4731 19.3141 21.624 19.4814C21.7748 19.6488 21.8647 19.8621 21.8791 20.087L22.0051 22.048C22.0931 22.627 22.3441 23.168 22.7281 23.61C22.7821 23.673 22.8281 23.742 22.8651 23.816ZM27.2621 25.534C27.1821 25.538 27.1031 25.54 27.0231 25.54H25.0381C24.9297 25.54 24.8213 25.5363 24.7131 25.529C24.8998 25.7936 25.1639 25.9938 25.4691 26.102C25.7892 26.2142 26.137 26.2196 26.4604 26.1171C26.7837 26.0147 27.0651 25.81 27.2621 25.534ZM29.7091 24.71V37.99L32.4591 30.13C32.5791 29.77 32.4891 29.38 32.2191 29.12L30.8591 27.79C30.8212 27.7532 30.7953 27.7058 30.7847 27.6541C30.7742 27.6023 30.7796 27.5486 30.8001 27.4999C30.8207 27.4513 30.8554 27.41 30.8999 27.3814C30.9443 27.3529 30.9963 27.3384 31.0491 27.34H32.0991C32.3091 27.34 32.4491 27.12 32.3591 26.93L31.1291 24.31L31.1251 24.302C30.9081 24.214 30.6881 24.132 30.4651 24.058C30.2376 24.3022 29.9841 24.5208 29.7091 24.71ZM23.7891 25.942V27.799L24.8741 26.936L24.8441 26.922C24.406 26.7029 24.0399 26.3628 23.7891 25.942ZM28.2091 27.799V25.907C27.9547 26.3488 27.5746 26.7049 27.1171 26.93L28.2091 27.799ZM20.9121 24.283L20.9091 24.29L19.6391 26.98C19.5491 27.17 19.6991 27.39 19.9091 27.39H20.9591C21.1991 27.39 21.3091 27.68 21.1491 27.84L19.7891 29.17C19.5291 29.43 19.4291 29.82 19.5591 30.17L22.2891 37.99H22.2991V24.673C22.038 24.488 21.797 24.2762 21.5801 24.041C21.3541 24.114 21.1311 24.195 20.9121 24.283Z" fill="#030F1A"/>
</svg>
