<svg width="28" height="29" viewBox="0 0 28 29" fill="none" xmlns="http://www.w3.org/2000/svg">
<path d="M7.58333 8.08333H7.595M20.4167 8.08333H20.4283M7.58333 20.9167H7.595M15.1667 15.6667H15.1783M20.4167 20.9167H20.4283M19.8333 25H24.5V20.3333M16.3333 19.75V25M24.5 16.8333H19.25M18.2 12.1667H22.6333C23.2867 12.1667 23.6134 12.1667 23.863 12.0395C24.0825 11.9277 24.261 11.7492 24.3728 11.5297C24.5 11.2801 24.5 10.9534 24.5 10.3V5.86667C24.5 5.21327 24.5 4.88657 24.3728 4.63701C24.261 4.41749 24.0825 4.23901 23.863 4.12716C23.6134 4 23.2867 4 22.6333 4H18.2C17.5466 4 17.2199 4 16.9703 4.12716C16.7508 4.23901 16.5723 4.41749 16.4605 4.63701C16.3333 4.88657 16.3333 5.21327 16.3333 5.86667V10.3C16.3333 10.9534 16.3333 11.2801 16.4605 11.5297C16.5723 11.7492 16.7508 11.9277 16.9703 12.0395C17.2199 12.1667 17.5466 12.1667 18.2 12.1667ZM5.36667 12.1667H9.8C10.4534 12.1667 10.7801 12.1667 11.0297 12.0395C11.2492 11.9277 11.4277 11.7492 11.5395 11.5297C11.6667 11.2801 11.6667 10.9534 11.6667 10.3V5.86667C11.6667 5.21327 11.6667 4.88657 11.5395 4.63701C11.4277 4.41749 11.2492 4.23901 11.0297 4.12716C10.7801 4 10.4534 4 9.8 4H5.36667C4.71327 4 4.38657 4 4.13701 4.12716C3.91749 4.23901 3.73901 4.41749 3.62716 4.63701C3.5 4.88657 3.5 5.21327 3.5 5.86667V10.3C3.5 10.9534 3.5 11.2801 3.62716 11.5297C3.73901 11.7492 3.91749 11.9277 4.13701 12.0395C4.38657 12.1667 4.71327 12.1667 5.36667 12.1667ZM5.36667 25H9.8C10.4534 25 10.7801 25 11.0297 24.8728C11.2492 24.761 11.4277 24.5825 11.5395 24.363C11.6667 24.1134 11.6667 23.7867 11.6667 23.1333V18.7C11.6667 18.0466 11.6667 17.7199 11.5395 17.4703C11.4277 17.2508 11.2492 17.0723 11.0297 16.9605C10.7801 16.8333 10.4534 16.8333 9.8 16.8333H5.36667C4.71327 16.8333 4.38657 16.8333 4.13701 16.9605C3.91749 17.0723 3.73901 17.2508 3.62716 17.4703C3.5 17.7199 3.5 18.0466 3.5 18.7V23.1333C3.5 23.7867 3.5 24.1134 3.62716 24.363C3.73901 24.5825 3.91749 24.761 4.13701 24.8728C4.38657 25 4.71327 25 5.36667 25Z" stroke="black" stroke-width="2" stroke-linecap="round" stroke-linejoin="round"/>
</svg>
