<svg width="358" height="358" viewBox="0 0 358 358" fill="none" xmlns="http://www.w3.org/2000/svg">
<g clip-path="url(#clip0_27081_33732)">
<path d="M347.112 0H10.8884C4.87488 0 0 4.87489 0 10.8884V347.112C0 353.125 4.87489 358 10.8884 358H347.112C353.125 358 358 353.125 358 347.112V10.8884C358 4.87488 353.125 0 347.112 0Z" fill="white"/>
<path d="M40.2629 29.9883H29.9863V40.2649H40.2629V29.9883Z" fill="black"/>
<path d="M50.5395 29.9883H40.2629V40.2649H50.5395V29.9883Z" fill="black"/>
<path d="M60.8161 29.9883H50.5395V40.2649H60.8161V29.9883Z" fill="black"/>
<path d="M71.0927 29.9883H60.8161V40.2649H71.0927V29.9883Z" fill="black"/>
<path d="M81.3693 29.9883H71.0927V40.2649H81.3693V29.9883Z" fill="black"/>
<path d="M91.6458 29.9883H81.3693V40.2649H91.6458V29.9883Z" fill="black"/>
<path d="M101.922 29.9883H91.6458V40.2649H101.922V29.9883Z" fill="black"/>
<path d="M122.476 29.9883H112.199V40.2649H122.476V29.9883Z" fill="black"/>
<path d="M153.305 29.9883H143.029V40.2649H153.305V29.9883Z" fill="black"/>
<path d="M163.582 29.9883H153.305V40.2649H163.582V29.9883Z" fill="black"/>
<path d="M173.859 29.9883H163.582V40.2649H173.859V29.9883Z" fill="black"/>
<path d="M225.241 29.9883H214.965V40.2649H225.241V29.9883Z" fill="black"/>
<path d="M266.348 29.9883H256.071V40.2649H266.348V29.9883Z" fill="black"/>
<path d="M276.624 29.9883H266.348V40.2649H276.624V29.9883Z" fill="black"/>
<path d="M286.901 29.9883H276.624V40.2649H286.901V29.9883Z" fill="black"/>
<path d="M297.178 29.9883H286.901V40.2649H297.178V29.9883Z" fill="black"/>
<path d="M307.454 29.9883H297.178V40.2649H307.454V29.9883Z" fill="black"/>
<path d="M317.731 29.9883H307.454V40.2649H317.731V29.9883Z" fill="black"/>
<path d="M328.007 29.9883H317.731V40.2649H328.007V29.9883Z" fill="black"/>
<path d="M40.2629 40.2649H29.9863V50.5415H40.2629V40.2649Z" fill="black"/>
<path d="M101.922 40.2649H91.6458V50.5415H101.922V40.2649Z" fill="black"/>
<path d="M132.752 40.2649H122.476V50.5415H132.752V40.2649Z" fill="black"/>
<path d="M143.029 40.2649H132.752V50.5415H143.029V40.2649Z" fill="black"/>
<path d="M173.859 40.2649H163.582V50.5415H173.859V40.2649Z" fill="black"/>
<path d="M184.135 40.2649H173.859V50.5415H184.135V40.2649Z" fill="black"/>
<path d="M214.965 40.2649H204.688V50.5415H214.965V40.2649Z" fill="black"/>
<path d="M245.795 40.2649H235.518V50.5415H245.795V40.2649Z" fill="black"/>
<path d="M266.348 40.2649H256.071V50.5415H266.348V40.2649Z" fill="black"/>
<path d="M328.007 40.2649H317.731V50.5415H328.007V40.2649Z" fill="black"/>
<path d="M40.2629 50.5415H29.9863V60.818H40.2629V50.5415Z" fill="black"/>
<path d="M60.8161 50.5415H50.5395V60.818H60.8161V50.5415Z" fill="black"/>
<path d="M71.0927 50.5415H60.8161V60.818H71.0927V50.5415Z" fill="black"/>
<path d="M81.3693 50.5415H71.0927V60.818H81.3693V50.5415Z" fill="black"/>
<path d="M101.922 50.5415H91.6458V60.818H101.922V50.5415Z" fill="black"/>
<path d="M122.476 50.5415H112.199V60.818H122.476V50.5415Z" fill="black"/>
<path d="M173.859 50.5415H163.582V60.818H173.859V50.5415Z" fill="black"/>
<path d="M194.412 50.5415H184.135V60.818H194.412V50.5415Z" fill="black"/>
<path d="M214.965 50.5415H204.688V60.818H214.965V50.5415Z" fill="black"/>
<path d="M225.241 50.5415H214.965V60.818H225.241V50.5415Z" fill="black"/>
<path d="M235.518 50.5415H225.241V60.818H235.518V50.5415Z" fill="black"/>
<path d="M245.795 50.5415H235.518V60.818H245.795V50.5415Z" fill="black"/>
<path d="M266.348 50.5415H256.071V60.818H266.348V50.5415Z" fill="black"/>
<path d="M286.901 50.5415H276.624V60.818H286.901V50.5415Z" fill="black"/>
<path d="M297.178 50.5415H286.901V60.818H297.178V50.5415Z" fill="black"/>
<path d="M307.454 50.5415H297.178V60.818H307.454V50.5415Z" fill="black"/>
<path d="M328.007 50.5415H317.731V60.818H328.007V50.5415Z" fill="black"/>
<path d="M40.2629 60.818H29.9863V71.0946H40.2629V60.818Z" fill="black"/>
<path d="M60.8161 60.818H50.5395V71.0946H60.8161V60.818Z" fill="black"/>
<path d="M71.0927 60.818H60.8161V71.0946H71.0927V60.818Z" fill="black"/>
<path d="M81.3693 60.818H71.0927V71.0946H81.3693V60.818Z" fill="black"/>
<path d="M101.922 60.818H91.6458V71.0946H101.922V60.818Z" fill="black"/>
<path d="M122.476 60.818H112.199V71.0946H122.476V60.818Z" fill="black"/>
<path d="M132.752 60.818H122.476V71.0946H132.752V60.818Z" fill="black"/>
<path d="M143.029 60.818H132.752V71.0946H143.029V60.818Z" fill="black"/>
<path d="M153.305 60.818H143.029V71.0946H153.305V60.818Z" fill="black"/>
<path d="M163.582 60.818H153.305V71.0946H163.582V60.818Z" fill="black"/>
<path d="M184.135 60.818H173.859V71.0946H184.135V60.818Z" fill="black"/>
<path d="M194.412 60.818H184.135V71.0946H194.412V60.818Z" fill="black"/>
<path d="M204.688 60.818H194.412V71.0946H204.688V60.818Z" fill="black"/>
<path d="M235.518 60.818H225.241V71.0946H235.518V60.818Z" fill="black"/>
<path d="M266.348 60.818H256.071V71.0946H266.348V60.818Z" fill="black"/>
<path d="M286.901 60.818H276.624V71.0946H286.901V60.818Z" fill="black"/>
<path d="M297.178 60.818H286.901V71.0946H297.178V60.818Z" fill="black"/>
<path d="M307.454 60.818H297.178V71.0946H307.454V60.818Z" fill="black"/>
<path d="M328.007 60.818H317.731V71.0946H328.007V60.818Z" fill="black"/>
<path d="M40.2629 71.0946H29.9863V81.3712H40.2629V71.0946Z" fill="black"/>
<path d="M60.8161 71.0946H50.5395V81.3712H60.8161V71.0946Z" fill="black"/>
<path d="M71.0927 71.0946H60.8161V81.3712H71.0927V71.0946Z" fill="black"/>
<path d="M81.3693 71.0946H71.0927V81.3712H81.3693V71.0946Z" fill="black"/>
<path d="M101.922 71.0946H91.6458V81.3712H101.922V71.0946Z" fill="black"/>
<path d="M132.752 71.0946H122.476V81.3712H132.752V71.0946Z" fill="black"/>
<path d="M143.029 71.0946H132.752V81.3712H143.029V71.0946Z" fill="black"/>
<path d="M194.412 71.0946H184.135V81.3712H194.412V71.0946Z" fill="black"/>
<path d="M214.965 71.0946H204.688V81.3712H214.965V71.0946Z" fill="black"/>
<path d="M266.348 71.0946H256.071V81.3712H266.348V71.0946Z" fill="black"/>
<path d="M286.901 71.0946H276.624V81.3712H286.901V71.0946Z" fill="black"/>
<path d="M297.178 71.0946H286.901V81.3712H297.178V71.0946Z" fill="black"/>
<path d="M307.454 71.0946H297.178V81.3712H307.454V71.0946Z" fill="black"/>
<path d="M328.007 71.0946H317.731V81.3712H328.007V71.0946Z" fill="black"/>
<path d="M40.2629 81.3712H29.9863V91.6478H40.2629V81.3712Z" fill="black"/>
<path d="M101.922 81.3712H91.6458V91.6478H101.922V81.3712Z" fill="black"/>
<path d="M122.476 81.3712H112.199V91.6478H122.476V81.3712Z" fill="black"/>
<path d="M153.305 81.3712H143.029V91.6478H153.305V81.3712Z" fill="black"/>
<path d="M163.582 81.3712H153.305V91.6478H163.582V81.3712Z" fill="black"/>
<path d="M194.412 81.3712H184.135V91.6478H194.412V81.3712Z" fill="black"/>
<path d="M225.241 81.3712H214.965V91.6478H225.241V81.3712Z" fill="black"/>
<path d="M266.348 81.3712H256.071V91.6478H266.348V81.3712Z" fill="black"/>
<path d="M328.007 81.3712H317.731V91.6478H328.007V81.3712Z" fill="black"/>
<path d="M40.2629 91.6478H29.9863V101.924H40.2629V91.6478Z" fill="black"/>
<path d="M50.5395 91.6478H40.2629V101.924H50.5395V91.6478Z" fill="black"/>
<path d="M60.8161 91.6478H50.5395V101.924H60.8161V91.6478Z" fill="black"/>
<path d="M71.0927 91.6478H60.8161V101.924H71.0927V91.6478Z" fill="black"/>
<path d="M81.3693 91.6478H71.0927V101.924H81.3693V91.6478Z" fill="black"/>
<path d="M91.6458 91.6478H81.3693V101.924H91.6458V91.6478Z" fill="black"/>
<path d="M101.922 91.6478H91.6458V101.924H101.922V91.6478Z" fill="black"/>
<path d="M122.476 91.6478H112.199V101.924H122.476V91.6478Z" fill="black"/>
<path d="M143.029 91.6478H132.752V101.924H143.029V91.6478Z" fill="black"/>
<path d="M163.582 91.6478H153.305V101.924H163.582V91.6478Z" fill="black"/>
<path d="M184.135 91.6478H173.859V101.924H184.135V91.6478Z" fill="black"/>
<path d="M204.688 91.6478H194.412V101.924H204.688V91.6478Z" fill="black"/>
<path d="M225.241 91.6478H214.965V101.924H225.241V91.6478Z" fill="black"/>
<path d="M245.795 91.6478H235.518V101.924H245.795V91.6478Z" fill="black"/>
<path d="M266.348 91.6478H256.071V101.924H266.348V91.6478Z" fill="black"/>
<path d="M276.624 91.6478H266.348V101.924H276.624V91.6478Z" fill="black"/>
<path d="M286.901 91.6478H276.624V101.924H286.901V91.6478Z" fill="black"/>
<path d="M297.178 91.6478H286.901V101.924H297.178V91.6478Z" fill="black"/>
<path d="M307.454 91.6478H297.178V101.924H307.454V91.6478Z" fill="black"/>
<path d="M317.731 91.6478H307.454V101.924H317.731V91.6478Z" fill="black"/>
<path d="M328.007 91.6478H317.731V101.924H328.007V91.6478Z" fill="black"/>
<path d="M122.476 101.924H112.199V112.201H122.476V101.924Z" fill="black"/>
<path d="M132.752 101.924H122.476V112.201H132.752V101.924Z" fill="black"/>
<path d="M143.029 101.924H132.752V112.201H143.029V101.924Z" fill="black"/>
<path d="M163.582 101.924H153.305V112.201H163.582V101.924Z" fill="black"/>
<path d="M173.859 101.924H163.582V112.201H173.859V101.924Z" fill="black"/>
<path d="M184.135 101.924H173.859V112.201H184.135V101.924Z" fill="black"/>
<path d="M194.412 101.924H184.135V112.201H194.412V101.924Z" fill="black"/>
<path d="M204.688 101.924H194.412V112.201H204.688V101.924Z" fill="black"/>
<path d="M214.965 101.924H204.688V112.201H214.965V101.924Z" fill="black"/>
<path d="M235.518 101.924H225.241V112.201H235.518V101.924Z" fill="black"/>
<path d="M245.795 101.924H235.518V112.201H245.795V101.924Z" fill="black"/>
<path d="M40.2629 112.201H29.9863V122.478H40.2629V112.201Z" fill="black"/>
<path d="M50.5395 112.201H40.2629V122.478H50.5395V112.201Z" fill="black"/>
<path d="M71.0927 112.201H60.8161V122.478H71.0927V112.201Z" fill="black"/>
<path d="M101.922 112.201H91.6458V122.478H101.922V112.201Z" fill="black"/>
<path d="M112.199 112.201H101.922V122.478H112.199V112.201Z" fill="black"/>
<path d="M132.752 112.201H122.476V122.478H132.752V112.201Z" fill="black"/>
<path d="M173.859 112.201H163.582V122.478H173.859V112.201Z" fill="black"/>
<path d="M184.135 112.201H173.859V122.478H184.135V112.201Z" fill="black"/>
<path d="M204.688 112.201H194.412V122.478H204.688V112.201Z" fill="black"/>
<path d="M214.965 112.201H204.688V122.478H214.965V112.201Z" fill="black"/>
<path d="M235.518 112.201H225.241V122.478H235.518V112.201Z" fill="black"/>
<path d="M245.795 112.201H235.518V122.478H245.795V112.201Z" fill="black"/>
<path d="M256.071 112.201H245.795V122.478H256.071V112.201Z" fill="black"/>
<path d="M266.348 112.201H256.071V122.478H266.348V112.201Z" fill="black"/>
<path d="M276.624 112.201H266.348V122.478H276.624V112.201Z" fill="black"/>
<path d="M297.178 112.201H286.901V122.478H297.178V112.201Z" fill="black"/>
<path d="M307.454 112.201H297.178V122.478H307.454V112.201Z" fill="black"/>
<path d="M328.007 112.201H317.731V122.478H328.007V112.201Z" fill="black"/>
<path d="M71.0927 122.478H60.8161V132.754H71.0927V122.478Z" fill="black"/>
<path d="M112.199 122.478H101.922V132.754H112.199V122.478Z" fill="black"/>
<path d="M132.752 122.478H122.476V132.754H132.752V122.478Z" fill="black"/>
<path d="M143.029 122.478H132.752V132.754H143.029V122.478Z" fill="black"/>
<path d="M204.688 122.478H194.412V132.754H204.688V122.478Z" fill="black"/>
<path d="M225.241 122.478H214.965V132.754H225.241V122.478Z" fill="black"/>
<path d="M235.518 122.478H225.241V132.754H235.518V122.478Z" fill="black"/>
<path d="M276.624 122.478H266.348V132.754H276.624V122.478Z" fill="black"/>
<path d="M317.731 122.478H307.454V132.754H317.731V122.478Z" fill="black"/>
<path d="M328.007 122.478H317.731V132.754H328.007V122.478Z" fill="black"/>
<path d="M40.2629 132.754H29.9863V143.031H40.2629V132.754Z" fill="black"/>
<path d="M60.8161 132.754H50.5395V143.031H60.8161V132.754Z" fill="black"/>
<path d="M91.6458 132.754H81.3693V143.031H91.6458V132.754Z" fill="black"/>
<path d="M101.922 132.754H91.6458V143.031H101.922V132.754Z" fill="black"/>
<path d="M122.476 132.754H112.199V143.031H122.476V132.754Z" fill="black"/>
<path d="M143.029 132.754H132.752V143.031H143.029V132.754Z" fill="black"/>
<path d="M163.582 132.754H153.305V143.031H163.582V132.754Z" fill="black"/>
<path d="M184.135 132.754H173.859V143.031H184.135V132.754Z" fill="black"/>
<path d="M194.412 132.754H184.135V143.031H194.412V132.754Z" fill="black"/>
<path d="M214.965 132.754H204.688V143.031H214.965V132.754Z" fill="black"/>
<path d="M235.518 132.754H225.241V143.031H235.518V132.754Z" fill="black"/>
<path d="M245.795 132.754H235.518V143.031H245.795V132.754Z" fill="black"/>
<path d="M266.348 132.754H256.071V143.031H266.348V132.754Z" fill="black"/>
<path d="M286.901 132.754H276.624V143.031H286.901V132.754Z" fill="black"/>
<path d="M297.178 132.754H286.901V143.031H297.178V132.754Z" fill="black"/>
<path d="M317.731 132.754H307.454V143.031H317.731V132.754Z" fill="black"/>
<path d="M50.5395 143.031H40.2629V153.307H50.5395V143.031Z" fill="black"/>
<path d="M60.8161 143.031H50.5395V153.307H60.8161V143.031Z" fill="black"/>
<path d="M81.3693 143.031H71.0927V153.307H81.3693V143.031Z" fill="black"/>
<path d="M91.6458 143.031H81.3693V153.307H91.6458V143.031Z" fill="black"/>
<path d="M132.752 143.031H122.476V153.307H132.752V143.031Z" fill="black"/>
<path d="M153.305 143.031H143.029V153.307H153.305V143.031Z" fill="black"/>
<path d="M163.582 143.031H153.305V153.307H163.582V143.031Z" fill="black"/>
<path d="M173.859 143.031H163.582V153.307H173.859V143.031Z" fill="black"/>
<path d="M184.135 143.031H173.859V153.307H184.135V143.031Z" fill="black"/>
<path d="M194.412 143.031H184.135V153.307H194.412V143.031Z" fill="black"/>
<path d="M225.241 143.031H214.965V153.307H225.241V143.031Z" fill="black"/>
<path d="M235.518 143.031H225.241V153.307H235.518V143.031Z" fill="black"/>
<path d="M245.795 143.031H235.518V153.307H245.795V143.031Z" fill="black"/>
<path d="M256.071 143.031H245.795V153.307H256.071V143.031Z" fill="black"/>
<path d="M266.348 143.031H256.071V153.307H266.348V143.031Z" fill="black"/>
<path d="M276.624 143.031H266.348V153.307H276.624V143.031Z" fill="black"/>
<path d="M286.901 143.031H276.624V153.307H286.901V143.031Z" fill="black"/>
<path d="M328.007 143.031H317.731V153.307H328.007V143.031Z" fill="black"/>
<path d="M60.8161 153.307H50.5395V163.584H60.8161V153.307Z" fill="black"/>
<path d="M101.922 153.307H91.6458V163.584H101.922V153.307Z" fill="black"/>
<path d="M112.199 153.307H101.922V163.584H112.199V153.307Z" fill="black"/>
<path d="M153.305 153.307H143.029V163.584H153.305V153.307Z" fill="black"/>
<path d="M173.859 153.307H163.582V163.584H173.859V153.307Z" fill="black"/>
<path d="M184.135 153.307H173.859V163.584H184.135V153.307Z" fill="black"/>
<path d="M194.412 153.307H184.135V163.584H194.412V153.307Z" fill="black"/>
<path d="M204.688 153.307H194.412V163.584H204.688V153.307Z" fill="black"/>
<path d="M214.965 153.307H204.688V163.584H214.965V153.307Z" fill="black"/>
<path d="M235.518 153.307H225.241V163.584H235.518V153.307Z" fill="black"/>
<path d="M245.795 153.307H235.518V163.584H245.795V153.307Z" fill="black"/>
<path d="M256.071 153.307H245.795V163.584H256.071V153.307Z" fill="black"/>
<path d="M276.624 153.307H266.348V163.584H276.624V153.307Z" fill="black"/>
<path d="M286.901 153.307H276.624V163.584H286.901V153.307Z" fill="black"/>
<path d="M297.178 153.307H286.901V163.584H297.178V153.307Z" fill="black"/>
<path d="M307.454 153.307H297.178V163.584H307.454V153.307Z" fill="black"/>
<path d="M40.2629 163.584H29.9863V173.86H40.2629V163.584Z" fill="black"/>
<path d="M50.5395 163.584H40.2629V173.86H50.5395V163.584Z" fill="black"/>
<path d="M91.6458 163.584H81.3693V173.86H91.6458V163.584Z" fill="black"/>
<path d="M122.476 163.584H112.199V173.86H122.476V163.584Z" fill="black"/>
<path d="M132.752 163.584H122.476V173.86H132.752V163.584Z" fill="black"/>
<path d="M143.029 163.584H132.752V173.86H143.029V163.584Z" fill="black"/>
<path d="M184.135 163.584H173.859V173.86H184.135V163.584Z" fill="black"/>
<path d="M225.241 163.584H214.965V173.86H225.241V163.584Z" fill="black"/>
<path d="M235.518 163.584H225.241V173.86H235.518V163.584Z" fill="black"/>
<path d="M245.795 163.584H235.518V173.86H245.795V163.584Z" fill="black"/>
<path d="M276.624 163.584H266.348V173.86H276.624V163.584Z" fill="black"/>
<path d="M328.007 163.584H317.731V173.86H328.007V163.584Z" fill="black"/>
<path d="M40.2629 173.86H29.9863V184.137H40.2629V173.86Z" fill="black"/>
<path d="M71.0927 173.86H60.8161V184.137H71.0927V173.86Z" fill="black"/>
<path d="M81.3693 173.86H71.0927V184.137H81.3693V173.86Z" fill="black"/>
<path d="M101.922 173.86H91.6458V184.137H101.922V173.86Z" fill="black"/>
<path d="M132.752 173.86H122.476V184.137H132.752V173.86Z" fill="black"/>
<path d="M163.582 173.86H153.305V184.137H163.582V173.86Z" fill="black"/>
<path d="M173.859 173.86H163.582V184.137H173.859V173.86Z" fill="black"/>
<path d="M194.412 173.86H184.135V184.137H194.412V173.86Z" fill="black"/>
<path d="M204.688 173.86H194.412V184.137H204.688V173.86Z" fill="black"/>
<path d="M214.965 173.86H204.688V184.137H214.965V173.86Z" fill="black"/>
<path d="M225.241 173.86H214.965V184.137H225.241V173.86Z" fill="black"/>
<path d="M235.518 173.86H225.241V184.137H235.518V173.86Z" fill="black"/>
<path d="M245.795 173.86H235.518V184.137H245.795V173.86Z" fill="black"/>
<path d="M266.348 173.86H256.071V184.137H266.348V173.86Z" fill="black"/>
<path d="M276.624 173.86H266.348V184.137H276.624V173.86Z" fill="black"/>
<path d="M328.007 173.86H317.731V184.137H328.007V173.86Z" fill="black"/>
<path d="M40.2629 184.137H29.9863V194.414H40.2629V184.137Z" fill="black"/>
<path d="M71.0927 184.137H60.8161V194.414H71.0927V184.137Z" fill="black"/>
<path d="M91.6458 184.137H81.3693V194.414H91.6458V184.137Z" fill="black"/>
<path d="M112.199 184.137H101.922V194.414H112.199V184.137Z" fill="black"/>
<path d="M122.476 184.137H112.199V194.414H122.476V184.137Z" fill="black"/>
<path d="M132.752 184.137H122.476V194.414H132.752V184.137Z" fill="black"/>
<path d="M163.582 184.137H153.305V194.414H163.582V184.137Z" fill="black"/>
<path d="M184.135 184.137H173.859V194.414H184.135V184.137Z" fill="black"/>
<path d="M204.688 184.137H194.412V194.414H204.688V184.137Z" fill="black"/>
<path d="M225.241 184.137H214.965V194.414H225.241V184.137Z" fill="black"/>
<path d="M256.071 184.137H245.795V194.414H256.071V184.137Z" fill="black"/>
<path d="M266.348 184.137H256.071V194.414H266.348V184.137Z" fill="black"/>
<path d="M276.624 184.137H266.348V194.414H276.624V184.137Z" fill="black"/>
<path d="M317.731 184.137H307.454V194.414H317.731V184.137Z" fill="black"/>
<path d="M50.5395 194.414H40.2629V204.69H50.5395V194.414Z" fill="black"/>
<path d="M60.8161 194.414H50.5395V204.69H60.8161V194.414Z" fill="black"/>
<path d="M81.3693 194.414H71.0927V204.69H81.3693V194.414Z" fill="black"/>
<path d="M91.6458 194.414H81.3693V204.69H91.6458V194.414Z" fill="black"/>
<path d="M101.922 194.414H91.6458V204.69H101.922V194.414Z" fill="black"/>
<path d="M112.199 194.414H101.922V204.69H112.199V194.414Z" fill="black"/>
<path d="M143.029 194.414H132.752V204.69H143.029V194.414Z" fill="black"/>
<path d="M153.305 194.414H143.029V204.69H153.305V194.414Z" fill="black"/>
<path d="M173.859 194.414H163.582V204.69H173.859V194.414Z" fill="black"/>
<path d="M184.135 194.414H173.859V204.69H184.135V194.414Z" fill="black"/>
<path d="M194.412 194.414H184.135V204.69H194.412V194.414Z" fill="black"/>
<path d="M204.688 194.414H194.412V204.69H204.688V194.414Z" fill="black"/>
<path d="M214.965 194.414H204.688V204.69H214.965V194.414Z" fill="black"/>
<path d="M225.241 194.414H214.965V204.69H225.241V194.414Z" fill="black"/>
<path d="M245.795 194.414H235.518V204.69H245.795V194.414Z" fill="black"/>
<path d="M256.071 194.414H245.795V204.69H256.071V194.414Z" fill="black"/>
<path d="M286.901 194.414H276.624V204.69H286.901V194.414Z" fill="black"/>
<path d="M50.5395 204.69H40.2629V214.967H50.5395V204.69Z" fill="black"/>
<path d="M71.0927 204.69H60.8161V214.967H71.0927V204.69Z" fill="black"/>
<path d="M91.6458 204.69H81.3693V214.967H91.6458V204.69Z" fill="black"/>
<path d="M112.199 204.69H101.922V214.967H112.199V204.69Z" fill="black"/>
<path d="M132.752 204.69H122.476V214.967H132.752V204.69Z" fill="black"/>
<path d="M153.305 204.69H143.029V214.967H153.305V204.69Z" fill="black"/>
<path d="M173.859 204.69H163.582V214.967H173.859V204.69Z" fill="black"/>
<path d="M204.688 204.69H194.412V214.967H204.688V204.69Z" fill="black"/>
<path d="M214.965 204.69H204.688V214.967H214.965V204.69Z" fill="black"/>
<path d="M225.241 204.69H214.965V214.967H225.241V204.69Z" fill="black"/>
<path d="M266.348 204.69H256.071V214.967H266.348V204.69Z" fill="black"/>
<path d="M307.454 204.69H297.178V214.967H307.454V204.69Z" fill="black"/>
<path d="M317.731 204.69H307.454V214.967H317.731V204.69Z" fill="black"/>
<path d="M328.007 204.69H317.731V214.967H328.007V204.69Z" fill="black"/>
<path d="M71.0927 214.967H60.8161V225.243H71.0927V214.967Z" fill="black"/>
<path d="M91.6458 214.967H81.3693V225.243H91.6458V214.967Z" fill="black"/>
<path d="M101.922 214.967H91.6458V225.243H101.922V214.967Z" fill="black"/>
<path d="M112.199 214.967H101.922V225.243H112.199V214.967Z" fill="black"/>
<path d="M132.752 214.967H122.476V225.243H132.752V214.967Z" fill="black"/>
<path d="M143.029 214.967H132.752V225.243H143.029V214.967Z" fill="black"/>
<path d="M214.965 214.967H204.688V225.243H214.965V214.967Z" fill="black"/>
<path d="M245.795 214.967H235.518V225.243H245.795V214.967Z" fill="black"/>
<path d="M256.071 214.967H245.795V225.243H256.071V214.967Z" fill="black"/>
<path d="M276.624 214.967H266.348V225.243H276.624V214.967Z" fill="black"/>
<path d="M286.901 214.967H276.624V225.243H286.901V214.967Z" fill="black"/>
<path d="M297.178 214.967H286.901V225.243H297.178V214.967Z" fill="black"/>
<path d="M307.454 214.967H297.178V225.243H307.454V214.967Z" fill="black"/>
<path d="M317.731 214.967H307.454V225.243H317.731V214.967Z" fill="black"/>
<path d="M328.007 214.967H317.731V225.243H328.007V214.967Z" fill="black"/>
<path d="M40.2629 225.243H29.9863V235.52H40.2629V225.243Z" fill="black"/>
<path d="M71.0927 225.243H60.8161V235.52H71.0927V225.243Z" fill="black"/>
<path d="M81.3693 225.243H71.0927V235.52H81.3693V225.243Z" fill="black"/>
<path d="M91.6458 225.243H81.3693V235.52H91.6458V225.243Z" fill="black"/>
<path d="M132.752 225.243H122.476V235.52H132.752V225.243Z" fill="black"/>
<path d="M173.859 225.243H163.582V235.52H173.859V225.243Z" fill="black"/>
<path d="M184.135 225.243H173.859V235.52H184.135V225.243Z" fill="black"/>
<path d="M194.412 225.243H184.135V235.52H194.412V225.243Z" fill="black"/>
<path d="M204.688 225.243H194.412V235.52H204.688V225.243Z" fill="black"/>
<path d="M266.348 225.243H256.071V235.52H266.348V225.243Z" fill="black"/>
<path d="M297.178 225.243H286.901V235.52H297.178V225.243Z" fill="black"/>
<path d="M328.007 225.243H317.731V235.52H328.007V225.243Z" fill="black"/>
<path d="M40.2629 235.52H29.9863V245.797H40.2629V235.52Z" fill="black"/>
<path d="M60.8161 235.52H50.5395V245.797H60.8161V235.52Z" fill="black"/>
<path d="M101.922 235.52H91.6458V245.797H101.922V235.52Z" fill="black"/>
<path d="M112.199 235.52H101.922V245.797H112.199V235.52Z" fill="black"/>
<path d="M132.752 235.52H122.476V245.797H132.752V235.52Z" fill="black"/>
<path d="M163.582 235.52H153.305V245.797H163.582V235.52Z" fill="black"/>
<path d="M184.135 235.52H173.859V245.797H184.135V235.52Z" fill="black"/>
<path d="M194.412 235.52H184.135V245.797H194.412V235.52Z" fill="black"/>
<path d="M204.688 235.52H194.412V245.797H204.688V235.52Z" fill="black"/>
<path d="M225.241 235.52H214.965V245.797H225.241V235.52Z" fill="black"/>
<path d="M245.795 235.52H235.518V245.797H245.795V235.52Z" fill="black"/>
<path d="M256.071 235.52H245.795V245.797H256.071V235.52Z" fill="black"/>
<path d="M266.348 235.52H256.071V245.797H266.348V235.52Z" fill="black"/>
<path d="M276.624 235.52H266.348V245.797H276.624V235.52Z" fill="black"/>
<path d="M286.901 235.52H276.624V245.797H286.901V235.52Z" fill="black"/>
<path d="M307.454 235.52H297.178V245.797H307.454V235.52Z" fill="black"/>
<path d="M317.731 235.52H307.454V245.797H317.731V235.52Z" fill="black"/>
<path d="M328.007 235.52H317.731V245.797H328.007V235.52Z" fill="black"/>
<path d="M132.752 245.797H122.476V256.073H132.752V245.797Z" fill="black"/>
<path d="M143.029 245.797H132.752V256.073H143.029V245.797Z" fill="black"/>
<path d="M153.305 245.797H143.029V256.073H153.305V245.797Z" fill="black"/>
<path d="M184.135 245.797H173.859V256.073H184.135V245.797Z" fill="black"/>
<path d="M194.412 245.797H184.135V256.073H194.412V245.797Z" fill="black"/>
<path d="M245.795 245.797H235.518V256.073H245.795V245.797Z" fill="black"/>
<path d="M286.901 245.797H276.624V256.073H286.901V245.797Z" fill="black"/>
<path d="M297.178 245.797H286.901V256.073H297.178V245.797Z" fill="black"/>
<path d="M317.731 245.797H307.454V256.073H317.731V245.797Z" fill="black"/>
<path d="M328.007 245.797H317.731V256.073H328.007V245.797Z" fill="black"/>
<path d="M40.2629 256.073H29.9863V266.35H40.2629V256.073Z" fill="black"/>
<path d="M50.5395 256.073H40.2629V266.35H50.5395V256.073Z" fill="black"/>
<path d="M60.8161 256.073H50.5395V266.35H60.8161V256.073Z" fill="black"/>
<path d="M71.0927 256.073H60.8161V266.35H71.0927V256.073Z" fill="black"/>
<path d="M81.3693 256.073H71.0927V266.35H81.3693V256.073Z" fill="black"/>
<path d="M91.6458 256.073H81.3693V266.35H91.6458V256.073Z" fill="black"/>
<path d="M101.922 256.073H91.6458V266.35H101.922V256.073Z" fill="black"/>
<path d="M122.476 256.073H112.199V266.35H122.476V256.073Z" fill="black"/>
<path d="M132.752 256.073H122.476V266.35H132.752V256.073Z" fill="black"/>
<path d="M153.305 256.073H143.029V266.35H153.305V256.073Z" fill="black"/>
<path d="M173.859 256.073H163.582V266.35H173.859V256.073Z" fill="black"/>
<path d="M225.241 256.073H214.965V266.35H225.241V256.073Z" fill="black"/>
<path d="M235.518 256.073H225.241V266.35H235.518V256.073Z" fill="black"/>
<path d="M245.795 256.073H235.518V266.35H245.795V256.073Z" fill="black"/>
<path d="M266.348 256.073H256.071V266.35H266.348V256.073Z" fill="black"/>
<path d="M286.901 256.073H276.624V266.35H286.901V256.073Z" fill="black"/>
<path d="M328.007 256.073H317.731V266.35H328.007V256.073Z" fill="black"/>
<path d="M40.2629 266.35H29.9863V276.626H40.2629V266.35Z" fill="black"/>
<path d="M101.922 266.35H91.6458V276.626H101.922V266.35Z" fill="black"/>
<path d="M132.752 266.35H122.476V276.626H132.752V266.35Z" fill="black"/>
<path d="M143.029 266.35H132.752V276.626H143.029V266.35Z" fill="black"/>
<path d="M153.305 266.35H143.029V276.626H153.305V266.35Z" fill="black"/>
<path d="M163.582 266.35H153.305V276.626H163.582V266.35Z" fill="black"/>
<path d="M204.688 266.35H194.412V276.626H204.688V266.35Z" fill="black"/>
<path d="M214.965 266.35H204.688V276.626H214.965V266.35Z" fill="black"/>
<path d="M225.241 266.35H214.965V276.626H225.241V266.35Z" fill="black"/>
<path d="M245.795 266.35H235.518V276.626H245.795V266.35Z" fill="black"/>
<path d="M286.901 266.35H276.624V276.626H286.901V266.35Z" fill="black"/>
<path d="M307.454 266.35H297.178V276.626H307.454V266.35Z" fill="black"/>
<path d="M328.007 266.35H317.731V276.626H328.007V266.35Z" fill="black"/>
<path d="M40.2629 276.626H29.9863V286.903H40.2629V276.626Z" fill="black"/>
<path d="M60.8161 276.626H50.5395V286.903H60.8161V276.626Z" fill="black"/>
<path d="M71.0927 276.626H60.8161V286.903H71.0927V276.626Z" fill="black"/>
<path d="M81.3693 276.626H71.0927V286.903H81.3693V276.626Z" fill="black"/>
<path d="M101.922 276.626H91.6458V286.903H101.922V276.626Z" fill="black"/>
<path d="M132.752 276.626H122.476V286.903H132.752V276.626Z" fill="black"/>
<path d="M184.135 276.626H173.859V286.903H184.135V276.626Z" fill="black"/>
<path d="M194.412 276.626H184.135V286.903H194.412V276.626Z" fill="black"/>
<path d="M204.688 276.626H194.412V286.903H204.688V276.626Z" fill="black"/>
<path d="M225.241 276.626H214.965V286.903H225.241V276.626Z" fill="black"/>
<path d="M245.795 276.626H235.518V286.903H245.795V276.626Z" fill="black"/>
<path d="M256.071 276.626H245.795V286.903H256.071V276.626Z" fill="black"/>
<path d="M266.348 276.626H256.071V286.903H266.348V276.626Z" fill="black"/>
<path d="M276.624 276.626H266.348V286.903H276.624V276.626Z" fill="black"/>
<path d="M286.901 276.626H276.624V286.903H286.901V276.626Z" fill="black"/>
<path d="M297.178 276.626H286.901V286.903H297.178V276.626Z" fill="black"/>
<path d="M317.731 276.626H307.454V286.903H317.731V276.626Z" fill="black"/>
<path d="M328.007 276.626H317.731V286.903H328.007V276.626Z" fill="black"/>
<path d="M40.2629 286.903H29.9863V297.18H40.2629V286.903Z" fill="black"/>
<path d="M60.8161 286.903H50.5395V297.18H60.8161V286.903Z" fill="black"/>
<path d="M71.0927 286.903H60.8161V297.18H71.0927V286.903Z" fill="black"/>
<path d="M81.3693 286.903H71.0927V297.18H81.3693V286.903Z" fill="black"/>
<path d="M101.922 286.903H91.6458V297.18H101.922V286.903Z" fill="black"/>
<path d="M122.476 286.903H112.199V297.18H122.476V286.903Z" fill="black"/>
<path d="M163.582 286.903H153.305V297.18H163.582V286.903Z" fill="black"/>
<path d="M204.688 286.903H194.412V297.18H204.688V286.903Z" fill="black"/>
<path d="M214.965 286.903H204.688V297.18H214.965V286.903Z" fill="black"/>
<path d="M245.795 286.903H235.518V297.18H245.795V286.903Z" fill="black"/>
<path d="M256.071 286.903H245.795V297.18H256.071V286.903Z" fill="black"/>
<path d="M266.348 286.903H256.071V297.18H266.348V286.903Z" fill="black"/>
<path d="M276.624 286.903H266.348V297.18H276.624V286.903Z" fill="black"/>
<path d="M297.178 286.903H286.901V297.18H297.178V286.903Z" fill="black"/>
<path d="M317.731 286.903H307.454V297.18H317.731V286.903Z" fill="black"/>
<path d="M40.2629 297.18H29.9863V307.456H40.2629V297.18Z" fill="black"/>
<path d="M60.8161 297.18H50.5395V307.456H60.8161V297.18Z" fill="black"/>
<path d="M71.0927 297.18H60.8161V307.456H71.0927V297.18Z" fill="black"/>
<path d="M81.3693 297.18H71.0927V307.456H81.3693V297.18Z" fill="black"/>
<path d="M101.922 297.18H91.6458V307.456H101.922V297.18Z" fill="black"/>
<path d="M143.029 297.18H132.752V307.456H143.029V297.18Z" fill="black"/>
<path d="M163.582 297.18H153.305V307.456H163.582V297.18Z" fill="black"/>
<path d="M173.859 297.18H163.582V307.456H173.859V297.18Z" fill="black"/>
<path d="M184.135 297.18H173.859V307.456H184.135V297.18Z" fill="black"/>
<path d="M214.965 297.18H204.688V307.456H214.965V297.18Z" fill="black"/>
<path d="M225.241 297.18H214.965V307.456H225.241V297.18Z" fill="black"/>
<path d="M235.518 297.18H225.241V307.456H235.518V297.18Z" fill="black"/>
<path d="M245.795 297.18H235.518V307.456H245.795V297.18Z" fill="black"/>
<path d="M256.071 297.18H245.795V307.456H256.071V297.18Z" fill="black"/>
<path d="M286.901 297.18H276.624V307.456H286.901V297.18Z" fill="black"/>
<path d="M307.454 297.18H297.178V307.456H307.454V297.18Z" fill="black"/>
<path d="M40.2629 307.456H29.9863V317.733H40.2629V307.456Z" fill="black"/>
<path d="M101.922 307.456H91.6458V317.733H101.922V307.456Z" fill="black"/>
<path d="M122.476 307.456H112.199V317.733H122.476V307.456Z" fill="black"/>
<path d="M143.029 307.456H132.752V317.733H143.029V307.456Z" fill="black"/>
<path d="M173.859 307.456H163.582V317.733H173.859V307.456Z" fill="black"/>
<path d="M184.135 307.456H173.859V317.733H184.135V307.456Z" fill="black"/>
<path d="M194.412 307.456H184.135V317.733H194.412V307.456Z" fill="black"/>
<path d="M204.688 307.456H194.412V317.733H204.688V307.456Z" fill="black"/>
<path d="M214.965 307.456H204.688V317.733H214.965V307.456Z" fill="black"/>
<path d="M256.071 307.456H245.795V317.733H256.071V307.456Z" fill="black"/>
<path d="M266.348 307.456H256.071V317.733H266.348V307.456Z" fill="black"/>
<path d="M286.901 307.456H276.624V317.733H286.901V307.456Z" fill="black"/>
<path d="M297.178 307.456H286.901V317.733H297.178V307.456Z" fill="black"/>
<path d="M317.731 307.456H307.454V317.733H317.731V307.456Z" fill="black"/>
<path d="M328.007 307.456H317.731V317.733H328.007V307.456Z" fill="black"/>
<path d="M40.2629 317.733H29.9863V328.009H40.2629V317.733Z" fill="black"/>
<path d="M50.5395 317.733H40.2629V328.009H50.5395V317.733Z" fill="black"/>
<path d="M60.8161 317.733H50.5395V328.009H60.8161V317.733Z" fill="black"/>
<path d="M71.0927 317.733H60.8161V328.009H71.0927V317.733Z" fill="black"/>
<path d="M81.3693 317.733H71.0927V328.009H81.3693V317.733Z" fill="black"/>
<path d="M91.6458 317.733H81.3693V328.009H91.6458V317.733Z" fill="black"/>
<path d="M101.922 317.733H91.6458V328.009H101.922V317.733Z" fill="black"/>
<path d="M122.476 317.733H112.199V328.009H122.476V317.733Z" fill="black"/>
<path d="M132.752 317.733H122.476V328.009H132.752V317.733Z" fill="black"/>
<path d="M153.305 317.733H143.029V328.009H153.305V317.733Z" fill="black"/>
<path d="M173.859 317.733H163.582V328.009H173.859V317.733Z" fill="black"/>
<path d="M184.135 317.733H173.859V328.009H184.135V317.733Z" fill="black"/>
<path d="M256.071 317.733H245.795V328.009H256.071V317.733Z" fill="black"/>
<path d="M276.624 317.733H266.348V328.009H276.624V317.733Z" fill="black"/>
<path d="M286.901 317.733H276.624V328.009H286.901V317.733Z" fill="black"/>
<path d="M307.454 317.733H297.178V328.009H307.454V317.733Z" fill="black"/>
</g>
<rect x="1.36104" y="1.36104" width="355.278" height="355.278" rx="9.52731" stroke="#F2F2F2" stroke-width="2.72209"/>
<defs>
<clipPath id="clip0_27081_33732">
<rect width="358" height="358" rx="10.8884" fill="white"/>
</clipPath>
</defs>
</svg>
