<svg width="86" height="43" viewBox="0 0 86 43" fill="none" xmlns="http://www.w3.org/2000/svg">
<path d="M64.2128 29.6547C64.2128 29.4211 64.2708 29.3623 64.5052 29.3623H64.6041C64.8377 29.3623 64.8965 29.4211 64.8965 29.6547V30.648C65.0634 30.4638 65.3508 30.3492 65.6948 30.3492C66.1119 30.3492 66.5821 30.5427 66.5821 31.2522V32.7435C66.5821 32.9772 66.5233 33.0359 66.2897 33.0359H66.1893C65.9557 33.0359 65.8977 32.9772 65.8977 32.7435V31.3747C65.8977 31.0823 65.7307 30.9963 65.4591 30.9963C65.1566 30.9963 64.895 31.1174 64.895 31.6313V32.745C64.895 32.9786 64.837 33.0374 64.6034 33.0374H64.4994C64.2658 33.0374 64.207 32.9786 64.207 32.745L64.2128 29.6547Z" fill="white"/>
<path d="M67.7762 32.0419C67.7762 32.3099 67.8543 32.4568 68.2822 32.4568C68.71 32.4568 68.7781 32.3099 68.7781 32.0419V30.7074C68.7781 30.4731 68.8362 30.415 69.0698 30.415H69.1687C69.4023 30.415 69.4611 30.4731 69.4611 30.7074V32.0412C69.4611 32.7428 69.1028 33.1018 68.2815 33.1018C67.4931 33.1018 67.0918 32.7292 67.0918 32.0412V30.7074C67.0918 30.4731 67.1506 30.415 67.3842 30.415H67.4831C67.7174 30.415 67.7755 30.4731 67.7755 30.7074L67.7762 32.0419Z" fill="white"/>
<path d="M69.9727 29.6547C69.9727 29.4211 70.0314 29.3623 70.2651 29.3623H70.3589C70.5926 29.3623 70.6513 29.4211 70.6513 29.6547V30.648C70.7868 30.4638 71.0061 30.3492 71.368 30.3492C72.0933 30.3492 72.4638 30.7792 72.4638 31.5302V31.9509C72.4638 32.7751 71.9994 33.0976 71.2168 33.0976C70.5274 33.0976 69.9748 32.7722 69.9748 31.9509L69.9727 29.6547ZM71.7787 31.5137C71.7787 31.1776 71.6898 30.9942 71.2197 30.9942C70.7495 30.9942 70.6506 31.1776 70.6506 31.5137V31.9337C70.6506 32.2698 70.7502 32.454 71.2197 32.454C71.7005 32.454 71.7787 32.2698 71.7787 31.9337V31.5137Z" fill="white"/>
<path d="M74.3417 32.4196C74.2213 32.4412 74.0992 32.4518 73.9769 32.4511C73.7841 32.4511 73.6544 32.3658 73.648 32.1193C73.6514 32.106 73.6531 32.0922 73.653 32.0785V31.0572H74.2464C74.48 31.0572 74.538 30.9984 74.538 30.7648V30.7068C74.538 30.4724 74.48 30.4144 74.2464 30.4144H73.6566V30.0202C73.6566 29.7866 73.5978 29.7285 73.3642 29.7285H73.2703C73.0366 29.7285 72.9779 29.7866 72.9779 30.0202V30.3785L72.9707 30.4115V32.0921C72.9707 32.1399 72.9721 32.1857 72.975 32.2297C72.9742 32.2781 72.9802 32.3263 72.9929 32.373C73.0882 32.9177 73.476 33.0947 73.9776 33.0947C74.1 33.0982 74.2224 33.0876 74.3424 33.0632C74.5724 33.0159 74.6291 32.927 74.6291 32.6905V32.6324C74.6291 32.3981 74.5703 32.3752 74.3424 32.4174" fill="white"/>
<path d="M77.257 31.6896C77.2254 31.9311 77.1581 31.9762 76.918 31.9762H75.5922V32.0551C75.5922 32.3281 75.7907 32.4543 76.2759 32.4543C76.4882 32.4516 76.6997 32.4276 76.9072 32.3826C77.1373 32.3353 77.1839 32.3984 77.1839 32.6349V32.6929C77.1839 32.9265 77.1373 32.9796 76.9072 33.0348C76.6984 33.0814 76.4849 33.1043 76.2708 33.1028C75.3471 33.1028 74.9092 32.7667 74.9092 31.9562V31.5333C74.9092 30.8561 75.2173 30.3516 76.1275 30.3516C76.8872 30.3516 77.2706 30.74 77.2706 31.486C77.2713 31.5545 77.2677 31.623 77.2599 31.691M75.595 31.4237H76.6235V31.3441C76.6235 31.0818 76.4507 30.9457 76.1067 30.9457C75.7627 30.9457 75.595 31.0818 75.595 31.3441V31.4237Z" fill="white"/>
<path d="M77.7244 29.6547C77.7244 29.4211 77.7831 29.3623 78.0167 29.3623H78.1092C78.3435 29.3623 78.4016 29.4211 78.4016 29.6547V32.0914C78.4016 32.3644 78.4733 32.4418 78.6316 32.4418H78.6575C78.7936 32.4418 78.833 32.4741 78.833 32.6833V32.7837C78.833 32.9937 78.7915 33.051 78.6575 33.0754C78.606 33.0854 78.5535 33.089 78.5012 33.0861C78.0576 33.0861 77.7236 32.8396 77.7236 32.2404L77.7244 29.6547Z" fill="white"/>
<path d="M60.0751 31.908C59.8171 31.7152 59.6902 31.511 59.6723 31.3096H58.6826V32.801C58.6826 33.595 59.0187 33.7362 59.4709 33.3929L60.7387 32.4175L60.0751 31.908Z" fill="white"/>
<path d="M63.0405 31.3096H59.8613C59.885 31.4844 60.0004 31.66 60.224 31.8284L62.255 33.3972C62.7058 33.7369 63.0433 33.5986 63.0433 32.8053L63.0405 31.3096Z" fill="white"/>
<path d="M62.2556 29.07L60.9756 30.059L61.6256 30.5607C61.8815 30.7513 62.0083 30.9548 62.0277 31.1548H63.0417V29.6656C63.0417 28.8715 62.7049 28.7339 62.2534 29.0729" fill="white"/>
<path d="M61.5017 30.6369L59.47 29.0703C59.0192 28.7306 58.6816 28.8689 58.6816 29.6623V31.1508H61.8622C61.8371 30.9752 61.7189 30.7996 61.5003 30.6348" fill="white"/>
<path d="M49.0371 30.6158V30.3564C49.0371 29.7881 49.3374 29.5831 49.8419 29.5831C49.9379 29.5821 50.0339 29.5895 50.1286 29.6053C50.2848 29.6368 50.3199 29.672 50.3199 29.8203V29.8741C50.3236 29.9001 50.322 29.9265 50.3152 29.9519C50.3085 29.9773 50.2967 30.001 50.2805 30.0217C50.2311 30.0618 50.0562 30.0174 49.8735 30.0174C49.6183 30.0174 49.4936 30.1199 49.4936 30.3213V30.6165H50.0885C50.2447 30.6165 50.2755 30.6473 50.2755 30.8043V30.8573C50.2755 31.0143 50.2447 31.0451 50.0885 31.0451H49.4936V32.6325C49.4936 32.793 49.4528 32.8339 49.2922 32.8339H49.2385C49.0772 32.8339 49.0371 32.793 49.0371 32.6325V30.6158Z" fill="white"/>
<path d="M51.0412 32.6322C51.0412 32.7928 51.001 32.8336 50.8398 32.8336H50.7817C50.6205 32.8336 50.5811 32.7928 50.5811 32.6322V31.358C50.5811 30.8325 50.8625 30.5697 51.4253 30.5697C51.4552 30.5686 51.4852 30.57 51.5149 30.574C51.6625 30.5919 51.7026 30.6277 51.7026 30.784V30.847C51.7026 30.9947 51.6718 31.0255 51.5149 31.0033C51.4852 30.9993 51.4552 30.9979 51.4253 30.999C51.1257 30.999 51.0412 31.1194 51.0412 31.3924V32.6322Z" fill="white"/>
<path d="M51.877 31.9171V31.5337C51.877 30.9081 52.2124 30.5684 52.9054 30.5684C53.6163 30.5684 53.9245 30.8901 53.9245 31.5337V31.9186C53.9245 32.5399 53.5898 32.8839 52.9054 32.8839C52.1901 32.8825 51.877 32.5607 51.877 31.9171ZM53.4629 31.5337C53.4629 31.1589 53.3375 30.9976 52.9039 30.9976C52.4704 30.9976 52.3363 31.1589 52.3363 31.5337V31.9186C52.3363 32.2898 52.4618 32.4503 52.9039 32.4503C53.3461 32.4503 53.4629 32.2941 53.4629 31.9186V31.5337Z" fill="white"/>
<path d="M54.8251 32.6318C54.8251 32.7924 54.7849 32.8332 54.6237 32.8332H54.5656C54.4044 32.8332 54.3643 32.7924 54.3643 32.6318V31.4336C54.3643 30.8567 54.6681 30.5664 55.2723 30.5664C55.5984 30.5664 55.822 30.6739 55.9431 30.8932C56.0635 30.6739 56.2864 30.5664 56.6132 30.5664C57.2395 30.5664 57.5162 30.8617 57.5162 31.4336V32.6318C57.5162 32.7924 57.476 32.8332 57.3148 32.8332H57.2567C57.0962 32.8332 57.0561 32.7924 57.0561 32.6318V31.4336C57.0561 31.1297 56.9572 30.9957 56.6132 30.9957C56.2692 30.9957 56.1617 31.1297 56.1617 31.4336V32.6318C56.1617 32.7924 56.1215 32.8332 55.9603 32.8332H55.9158C55.7553 32.8332 55.7145 32.7924 55.7145 32.6318V31.4336C55.7145 31.1297 55.6163 30.9957 55.2723 30.9957C54.9283 30.9957 54.8251 31.1297 54.8251 31.4336V32.6318Z" fill="white"/>
<path d="M35.6088 21.5532L37.4463 24.3166C37.7975 24.8362 37.7409 24.9903 37.0815 24.9903H36.5498C35.9191 24.9903 35.6661 24.847 35.287 24.303L33.5742 21.6936H32.2978V24.1769C32.2978 24.8075 32.1437 24.9903 31.4844 24.9903H31.2321C30.5728 24.9903 30.418 24.8075 30.418 24.1769V17.5585C30.418 16.3795 30.9232 15.875 32.1021 15.875H34.3998C36.4623 15.875 37.5001 16.8432 37.5001 18.7926C37.5022 20.3047 36.8708 21.2306 35.6088 21.5532ZM32.7192 17.6251C32.4383 17.6251 32.2978 17.7656 32.2978 18.0465V19.9399H34.3998C35.2132 19.9399 35.6181 19.5615 35.6181 18.7897C35.6181 18.0014 35.2813 17.6251 34.3998 17.6251H32.7192Z" fill="white"/>
<path d="M44.4165 22.9C44.4165 24.415 43.4912 25.1589 41.3728 25.1589C39.2543 25.1589 38.3291 24.415 38.3291 22.9423C38.3291 21.4831 39.2823 20.7543 41.1764 20.7543H42.5933V20.2211C42.5933 19.5474 42.1023 19.3654 41.1348 19.3654C40.7273 19.3665 40.3203 19.3945 39.9165 19.4492C39.2995 19.5474 39.1282 19.4077 39.1282 18.7899V18.734C39.1282 18.1306 39.2823 17.9765 39.8857 17.8783C40.2628 17.8316 40.6424 17.8077 41.0223 17.8066C43.2247 17.8066 44.4165 18.4803 44.4165 20.2197V22.9ZM42.5933 22.1289H41.1485C40.4891 22.1289 40.1523 22.3811 40.1523 22.9C40.2089 23.5737 40.654 23.6439 41.3448 23.6296C42.0615 23.6439 42.523 23.5579 42.5933 22.8018V22.1289Z" fill="white"/>
<path d="M45.9293 15.0999C46.0819 14.9473 46.2764 14.8433 46.4882 14.8012C46.6999 14.7591 46.9193 14.7808 47.1188 14.8634C47.3182 14.946 47.4887 15.0859 47.6086 15.2654C47.7285 15.4449 47.7925 15.6559 47.7925 15.8718C47.7925 16.0876 47.7285 16.2986 47.6086 16.4781C47.4887 16.6576 47.3182 16.7975 47.1188 16.8801C46.9193 16.9628 46.6999 16.9844 46.4882 16.9423C46.2764 16.9002 46.0819 16.7962 45.9293 16.6436C45.8259 16.5434 45.7437 16.4234 45.6876 16.2908C45.6315 16.1583 45.6025 16.0157 45.6025 15.8718C45.6025 15.7278 45.6315 15.5853 45.6876 15.4527C45.7437 15.3201 45.8259 15.2001 45.9293 15.0999ZM45.786 18.7614C45.786 18.13 45.94 17.973 46.5743 17.973H46.8266C47.4579 17.973 47.6149 18.1271 47.6149 18.7614V24.2044C47.6149 24.8358 47.4601 24.9928 46.8266 24.9928H46.5743C45.9429 24.9928 45.786 24.8387 45.786 24.2044V18.7614Z" fill="white"/>
<path d="M48.9168 23.896C48.9168 23.2367 49.0852 23.0683 49.6887 23.2367C50.2211 23.3908 50.8525 23.461 51.5957 23.461C52.4235 23.461 52.6757 23.3772 52.6757 23.0539C52.6757 22.816 52.5324 22.7035 51.7921 22.4089L50.4877 21.8621C49.4916 21.4551 49.0293 20.9505 49.0293 19.8698C49.0293 18.4673 49.8571 17.8079 51.891 17.8079C52.3915 17.8027 52.8907 17.8593 53.3773 17.9764C53.9951 18.1304 54.1492 18.2845 54.1492 18.9023V19.0456C54.1492 19.6763 53.9808 19.834 53.3609 19.6763C52.8676 19.561 52.3624 19.5044 51.8559 19.5079C51.0568 19.5079 50.8181 19.6204 50.8181 19.887C50.8181 20.0977 50.9443 20.1816 51.3915 20.3636L52.8499 20.9369C53.9578 21.3719 54.4631 21.9187 54.4631 23.041C54.4631 24.5002 53.5794 25.1595 51.4474 25.1595C50.7594 25.1595 50.171 25.1029 49.6801 24.9768C49.0623 24.8227 48.9082 24.6686 48.9082 24.0508L48.9168 23.896Z" fill="white"/>
<path d="M61.8622 21.3846C61.7905 22.0159 61.6099 22.1564 60.9506 22.1564H57.3881V22.3664C57.3881 23.096 57.9349 23.4328 59.2249 23.4328C59.7959 23.4243 60.3647 23.3585 60.9227 23.2364C61.5261 23.1103 61.6658 23.2508 61.6658 23.9094V24.0642C61.6658 24.6812 61.5397 24.8217 60.9227 24.9758C60.4597 25.1019 59.8985 25.1585 59.2113 25.1585C56.7029 25.1585 55.5498 24.2326 55.5498 22.0862V20.9639C55.5498 18.8597 56.6442 17.8105 58.8185 17.8105C60.8668 17.8105 61.8909 18.8206 61.8909 20.8406C61.8909 21.0341 61.8765 21.2133 61.8622 21.3846ZM57.3881 20.6679H60.1508V20.4572C60.1508 19.7405 59.6886 19.3915 58.7626 19.3915C57.8503 19.3915 57.3881 19.742 57.3881 20.4572V20.6679Z" fill="white"/>
<path d="M63.2643 16.6855C63.2643 16.0541 63.4184 15.8721 64.0777 15.8721H64.33C64.9893 15.8721 65.1434 16.0541 65.1434 16.6855V21.7917C65.1434 22.8718 65.7469 23.405 66.9537 23.405C68.1455 23.405 68.7454 22.8718 68.7454 21.7917V16.6855C68.7454 16.0541 68.9274 15.8721 69.5588 15.8721H69.8118C70.4425 15.8721 70.6252 16.0541 70.6252 16.6855V21.7917C70.6252 24.1066 69.2084 25.1601 66.9501 25.1601C64.6633 25.1601 63.2607 24.108 63.2607 21.7917L63.2643 16.6855Z" fill="white"/>
<path d="M72.1415 20.88C72.1415 18.7895 73.4738 17.8076 75.4804 17.8076C77.71 17.8076 78.833 18.8317 78.833 20.88V22.0016C78.833 24.0211 77.8089 25.1549 75.8868 25.1549C75.0031 25.1549 74.3574 24.8883 73.9647 24.3551V27.0068C73.9647 27.6381 73.8106 27.7951 73.1763 27.7951H72.9241C72.2927 27.7951 72.1357 27.6403 72.1357 27.0068L72.1415 20.88ZM76.9947 20.9223C76.9947 19.9261 76.7145 19.5334 75.494 19.5334C74.3015 19.5334 73.9647 19.954 73.9647 20.9223V22.0438C73.9647 23.0121 74.3015 23.4327 75.494 23.4327C76.6866 23.4327 76.9947 23.0121 76.9947 22.0438V20.9223Z" fill="white"/>
<path d="M11.8389 19.5894C12.2318 19.5893 12.6158 19.4726 12.9424 19.2543C13.269 19.0359 13.5235 18.7256 13.6737 18.3626C13.824 17.9995 13.8632 17.6001 13.7865 17.2148C13.7098 16.8295 13.5205 16.4756 13.2426 16.1978C12.9648 15.9201 12.6108 15.7309 12.2255 15.6543C11.8401 15.5777 11.4407 15.6171 11.0778 15.7675C10.7148 15.9179 10.4046 16.1725 10.1863 16.4992C9.96806 16.8259 9.85156 17.2099 9.85156 17.6028C9.85175 18.1298 10.0612 18.6351 10.4339 19.0076C10.8066 19.3801 11.3119 19.5894 11.8389 19.5894Z" fill="white"/>
<path d="M13.6836 20.6654C13.2192 21.6479 12.9125 22.781 12.752 24.0588C12.5991 23.7906 12.3674 23.5759 12.0883 23.4439C11.9925 23.3986 11.8876 23.376 11.7816 23.3779C11.6754 23.3753 11.57 23.3979 11.4742 23.4439C10.7682 23.77 10.3769 24.7339 10.3769 26.1629C10.3806 26.5802 10.2226 26.9828 9.93599 27.2862C9.64942 27.5896 9.25655 27.7703 8.83969 27.7905H8.77304C8.34828 27.7882 7.94152 27.6187 7.64089 27.3186C7.34027 27.0185 7.17 26.612 7.16699 26.1873C7.16699 20.2131 11.7422 20.1465 11.7909 20.1465C12.4517 20.1821 13.0971 20.3591 13.6836 20.6654Z" fill="white"/>
<path d="M26.5537 26.1878C26.5448 26.6072 26.372 27.0064 26.0722 27.2999C25.7725 27.5934 25.3696 27.7578 24.9501 27.7578C24.5306 27.7578 24.1278 27.5934 23.8281 27.2999C23.5283 27.0064 23.3555 26.6072 23.3466 26.1878C23.3466 22.4138 21.9964 20.9969 20.9658 20.4609C21.2295 20.3124 21.4597 20.1112 21.642 19.8698C21.8244 19.6283 21.955 19.3519 22.0257 19.0577C22.0964 18.7635 22.1057 18.4579 22.0529 18.16C22.0001 17.862 21.8865 17.5782 21.719 17.3262C22.4065 17.5825 23.0464 17.9516 23.6125 18.4184C25.5052 19.9786 26.4756 22.5163 26.5164 25.9434C26.5463 26.0212 26.559 26.1046 26.5537 26.1878Z" fill="white"/>
<path d="M19.8668 16.3087C20.5471 16.3087 21.2122 16.107 21.7779 15.729C22.3436 15.351 22.7845 14.8137 23.0449 14.1851C23.3053 13.5566 23.3734 12.8649 23.2407 12.1976C23.1079 11.5303 22.7803 10.9174 22.2992 10.4363C21.8181 9.95517 21.2052 9.62754 20.5379 9.49481C19.8706 9.36208 19.1789 9.4302 18.5503 9.69057C17.9217 9.95093 17.3845 10.3918 17.0065 10.9576C16.6285 11.5233 16.4268 12.1883 16.4268 12.8687C16.4268 13.7811 16.7892 14.656 17.4343 15.3012C18.0794 15.9463 18.9544 16.3087 19.8668 16.3087Z" fill="white"/>
<path d="M21.483 18.5414C21.4821 18.9638 21.3148 19.3689 21.0175 19.6689C20.7201 19.969 20.3166 20.1398 19.8941 20.1445C19.7637 20.151 16.414 20.295 16.414 26.1925C16.4185 26.4058 16.3804 26.6179 16.3019 26.8163C16.2234 27.0147 16.106 27.1955 15.9567 27.348C15.8075 27.5004 15.6292 27.6216 15.4325 27.7043C15.2358 27.787 15.0246 27.8296 14.8112 27.8296C14.5978 27.8296 14.3866 27.787 14.1899 27.7043C13.9932 27.6216 13.8149 27.5004 13.6656 27.348C13.5164 27.1955 13.399 27.0147 13.3205 26.8163C13.242 26.6179 13.2039 26.4058 13.2084 26.1925C13.2085 26.1144 13.2155 26.0365 13.2291 25.9596C13.27 22.5282 14.2425 19.9869 16.1338 18.4245C17.1579 17.5756 18.418 17.0616 19.7436 16.9518C19.7573 16.9518 19.8397 16.9453 19.8397 16.9453H19.8805C19.9148 16.945 19.9491 16.9472 19.983 16.9518C20.3888 16.975 20.7702 17.1527 21.0491 17.4483C21.3281 17.7438 21.4833 18.135 21.483 18.5414Z" fill="white"/>
</svg>
