<svg width="176" height="176" viewBox="0 0 176 176" fill="none" xmlns="http://www.w3.org/2000/svg">
<path d="M171 88C170.539 116.589 166.817 139.842 153.115 153.083C139.875 166.817 116.622 170.539 88.0329 170.967C59.444 170.506 36.1909 166.784 22.9504 153.083C9.18294 139.842 5.46111 116.589 5 88C5.46111 59.4111 9.18294 36.1579 22.8845 22.8845C36.1579 9.18294 59.4111 5.46111 88 5C116.589 5.46111 139.842 9.18294 153.083 22.8845C166.817 36.1579 170.539 59.4111 171 88Z" fill="white"/>
<path d="M63.825 93.7311C69.1002 93.7311 73.3766 89.4547 73.3766 84.1795C73.3766 78.9043 69.1002 74.6279 63.825 74.6279C58.5498 74.6279 54.2734 78.9043 54.2734 84.1795C54.2734 89.4547 58.5498 93.7311 63.825 93.7311Z" fill="#F69621"/>
<path d="M102.855 83.949C102.789 83.949 102.69 83.949 102.624 83.949C102.69 83.949 102.756 83.949 102.855 83.949Z" stroke="#221F20" stroke-width="0.6735" stroke-miterlimit="10"/>
<path d="M85.8595 125.449C85.8595 129.698 82.4012 133.156 78.1524 133.156C78.0536 133.156 77.9218 133.156 77.823 133.156C73.673 132.991 70.4452 129.566 70.4123 125.35C70.4123 118.466 68.502 113.822 65.0437 112.274C64.5825 112.044 64.0556 111.945 63.5615 111.945C63.0345 111.945 62.5405 112.044 62.0794 112.274C58.6869 113.822 56.8095 118.466 56.8095 125.35C56.8095 129.566 53.5488 132.991 49.4317 133.156C49.3329 133.156 49.2341 133.156 49.1024 133.156C47.0274 133.156 45.1171 132.366 43.6349 130.883C42.1857 129.434 41.3623 127.491 41.3623 125.449C41.3623 96.7283 63.3639 96.3989 63.5944 96.3989C63.8579 96.3989 85.8595 96.7283 85.8595 125.449Z" fill="#092F4D"/>
<path d="M102.491 83.949C102.459 83.949 102.459 83.949 102.459 83.949" stroke="#221F20" stroke-width="0.6735" stroke-miterlimit="10"/>
<path d="M102.491 93.4675C102.459 93.4675 102.459 93.4675 102.459 93.4675" stroke="#221F20" stroke-width="0.6735" stroke-miterlimit="10"/>
<path d="M134.572 125.449C134.572 129.698 131.114 133.156 126.865 133.156C122.616 133.156 119.158 129.698 119.158 125.449C119.158 98.2434 104.534 96.4977 102.459 96.366C100.384 96.4648 85.76 98.2434 85.76 125.449C85.76 129.698 82.3017 133.156 78.0528 133.156C73.804 133.156 70.3457 129.698 70.3457 125.449C70.3457 125.087 70.3786 124.691 70.4445 124.329C70.6421 107.828 75.3191 95.6414 84.4096 88.0989C91.6886 82.0715 99.5274 81.1493 101.767 81.0176H101.833C101.899 81.0176 101.932 81.0176 101.998 81.0176C102.031 81.0176 102.129 81.0176 102.129 81.0176C102.261 81.0176 102.36 81.0176 102.393 81.0176C102.459 81.0176 102.525 81.0176 102.591 81.0176H102.755H102.821H102.986H103.085C105.324 81.1493 113.163 82.0715 120.442 88.0989C129.533 95.6085 134.21 107.795 134.407 124.296C134.572 124.691 134.572 125.087 134.572 125.449Z" fill="#EE4923"/>
<path d="M102.427 77.9542C111.558 77.9542 118.961 70.5517 118.961 61.4201C118.961 52.2886 111.558 44.886 102.427 44.886C93.2952 44.886 85.8926 52.2886 85.8926 61.4201C85.8926 70.5517 93.2952 77.9542 102.427 77.9542Z" fill="#009D9D"/>
<path d="M110.199 88.6918C110.199 92.9077 106.774 96.366 102.558 96.3989C101.932 96.4319 85.8264 97.1235 85.8264 125.482C85.8264 129.731 82.3681 133.189 78.1193 133.189C73.8704 133.189 70.4121 129.731 70.4121 125.482C70.4121 125.12 70.445 124.724 70.5109 124.362C70.7085 107.861 75.3855 95.6414 84.476 88.1319C91.755 82.1045 99.5939 81.1823 101.834 81.0505C101.899 81.0505 102.295 81.0176 102.295 81.0176C102.295 81.0176 102.459 81.0176 102.492 81.0176C102.591 81.0176 102.756 81.0176 102.986 81.0505C107.07 81.2811 110.199 84.6735 110.199 88.6918Z" fill="#F69621"/>
</svg>
