<svg width="32" height="28" viewBox="0 0 32 28" fill="none" xmlns="http://www.w3.org/2000/svg">
<path d="M6.9781 15.1737C8.61686 15.1737 9.94533 13.8453 9.94533 12.2065C9.94533 10.5677 8.61686 9.23926 6.9781 9.23926C5.33934 9.23926 4.01086 10.5677 4.01086 12.2065C4.01086 13.8453 5.33934 15.1737 6.9781 15.1737Z" fill="#007AFF"/>
<path d="M19.1029 12.1349C19.0824 12.1349 19.0517 12.1349 19.0312 12.1349C19.0517 12.1349 19.0722 12.1349 19.1029 12.1349Z" stroke="#221F20" stroke-width="0.6735" stroke-miterlimit="10"/>
<path d="M13.8232 25.0271C13.8232 26.347 12.7489 27.4213 11.429 27.4213C11.3983 27.4213 11.3573 27.4213 11.3267 27.4213C10.0374 27.3701 9.03472 26.306 9.02449 24.9964C9.02449 22.8579 8.43104 21.4152 7.3567 20.9343C7.21345 20.8627 7.04974 20.832 6.89626 20.832C6.73255 20.832 6.57908 20.8627 6.43583 20.9343C5.38195 21.4152 4.79874 22.8579 4.79874 24.9964C4.79874 26.306 3.78578 27.3701 2.5068 27.4213C2.47611 27.4213 2.44541 27.4213 2.40448 27.4213C1.75988 27.4213 1.16643 27.1757 0.705997 26.7153C0.255796 26.2651 0 25.6614 0 25.0271C0 16.1049 6.83487 16.0026 6.90649 16.0026C6.98835 16.0026 13.8232 16.1049 13.8232 25.0271Z" fill="#DB3738"/>
<path d="M30.6648 24.6996C30.6648 24.6075 30.6648 24.5154 30.6648 24.4233" stroke="#221F20" stroke-width="0.8049" stroke-miterlimit="10"/>
<path d="M18.9905 12.1349C18.9801 12.1349 18.9801 12.1349 18.9801 12.1349" stroke="#221F20" stroke-width="0.6735" stroke-miterlimit="10"/>
<path d="M18.9905 15.0919C18.9801 15.0919 18.9801 15.0919 18.9801 15.0919" stroke="#221F20" stroke-width="0.6735" stroke-miterlimit="10"/>
<path d="M28.9561 25.027C28.9561 26.3469 27.8818 27.4213 26.5619 27.4213C25.242 27.4213 24.1676 26.3469 24.1676 25.027C24.1676 16.5755 19.6247 16.0332 18.9801 15.9923C18.3355 16.023 13.7925 16.5755 13.7925 25.027C13.7925 26.3469 12.7182 27.4213 11.3983 27.4213C10.0784 27.4213 9.00403 26.3469 9.00403 25.027C9.00403 24.9145 9.01426 24.7917 9.03472 24.6791C9.09612 19.553 10.549 15.7672 13.373 13.4241C15.6343 11.5517 18.0694 11.2652 18.7652 11.2242H18.7857C18.8061 11.2242 18.8164 11.2242 18.8368 11.2242C18.8471 11.2242 18.8778 11.2242 18.8778 11.2242C18.9187 11.2242 18.9494 11.2242 18.9596 11.2242C18.9801 11.2242 19.0005 11.2242 19.021 11.2242H19.0722H19.0926H19.1438H19.1745C19.8702 11.2652 22.3054 11.5517 24.5667 13.4241C27.3907 15.7569 28.8436 19.5427 28.905 24.6689C28.9561 24.7917 28.9561 24.9145 28.9561 25.027Z" fill="#5C58E8"/>
<path d="M18.9699 10.2728C21.8066 10.2728 24.1063 7.97313 24.1063 5.13639C24.1063 2.29964 21.8066 0 18.9699 0C16.1331 0 13.8335 2.29964 13.8335 5.13639C13.8335 7.97313 16.1331 10.2728 18.9699 10.2728Z" fill="#6ECE9F"/>
<path d="M21.3846 13.6083C21.3846 14.9179 20.3205 15.9923 19.0108 16.0025C18.8164 16.0127 13.813 16.2276 13.813 25.0372C13.813 26.3571 12.7387 27.4315 11.4188 27.4315C10.0989 27.4315 9.02454 26.3571 9.02454 25.0372C9.02454 24.9247 9.03477 24.8019 9.05523 24.6894C9.11662 19.5632 10.5695 15.7672 13.3935 13.4343C15.6548 11.5619 18.0899 11.2754 18.7857 11.2345C18.8062 11.2345 18.929 11.2242 18.929 11.2242C18.929 11.2242 18.9801 11.2242 18.9904 11.2242C19.021 11.2242 19.0722 11.2242 19.1438 11.2345C20.4126 11.3061 21.3846 12.36 21.3846 13.6083Z" fill="#FECC2F"/>
</svg>
