<svg width="324" height="162" viewBox="0 0 324 162" fill="none" xmlns="http://www.w3.org/2000/svg">
<path d="M102.885 105.942L108.596 114.533C109.676 116.153 109.511 116.629 107.462 116.629H105.807C103.844 116.629 103.058 116.191 101.881 114.49L96.5591 106.39H92.5928V114.109C92.5928 116.07 92.1122 116.639 90.0629 116.639H89.2772C87.2279 116.639 86.75 116.07 86.75 114.109V93.5139C86.75 89.8527 88.3187 88.2812 91.9826 88.2812H99.1322C105.545 88.2812 108.771 91.2918 108.771 97.3533C108.771 102.059 106.808 104.94 102.885 105.942ZM93.9023 93.7326C93.0275 93.7326 92.5928 94.17 92.5928 95.0421V100.928H99.1322C101.662 100.928 102.928 99.7509 102.928 97.3533C102.928 94.9098 101.881 93.7326 99.1322 93.7326H93.9023Z" fill="#09304D"/>
<path d="M130.261 110.13C130.261 114.838 127.386 117.15 120.811 117.15C114.237 117.15 111.348 114.838 111.348 110.259C111.348 105.726 114.318 103.458 120.198 103.458H124.605V101.789C124.605 99.6969 123.079 99.1299 120.069 99.1299C118.8 99.1354 117.532 99.2256 116.275 99.3999C114.355 99.705 113.832 99.2676 113.832 97.3506V97.1751C113.832 95.3013 114.312 94.8207 116.189 94.5156C117.36 94.3713 118.54 94.2983 119.72 94.2969C126.568 94.2969 130.272 96.3921 130.272 101.797L130.261 110.13ZM124.591 107.732H120.101C118.052 107.732 117.007 108.515 117.007 110.13C117.18 112.222 118.576 112.441 120.711 112.398C122.936 112.441 124.375 112.179 124.594 109.825L124.591 107.732Z" fill="#09304D"/>
<path d="M134.969 85.8848C135.444 85.4108 136.048 85.0882 136.706 84.9575C137.363 84.8269 138.045 84.8942 138.665 85.151C139.284 85.4077 139.814 85.8424 140.186 86.4C140.559 86.9576 140.757 87.6132 140.757 88.2838C140.757 88.9544 140.559 89.6099 140.186 90.1675C139.814 90.7252 139.284 91.1598 138.665 91.4166C138.045 91.6733 137.363 91.7406 136.706 91.61C136.048 91.4794 135.444 91.1567 134.969 90.6827C134.648 90.3713 134.392 89.9985 134.218 89.5864C134.043 89.1743 133.953 88.7313 133.953 88.2838C133.953 87.8362 134.043 87.3932 134.218 86.9811C134.392 86.569 134.648 86.1962 134.969 85.8848ZM134.535 97.268C134.535 95.3051 135.012 94.8245 136.965 94.8245H137.75C139.71 94.8245 140.18 95.3051 140.18 97.268V114.186C140.18 116.149 139.7 116.616 137.75 116.616H136.965C135.002 116.616 134.535 116.136 134.535 114.186V97.268Z" fill="#09304D"/>
<path d="M144.25 113.227C144.25 111.177 144.774 110.654 146.65 111.177C148.308 111.655 150.268 111.874 152.59 111.874C155.163 111.874 155.949 111.604 155.949 110.61C155.949 109.868 155.514 109.53 153.203 108.604L149.153 106.903C146.056 105.64 144.617 104.068 144.617 100.71C144.617 96.3491 147.19 94.2998 153.527 94.2998C155.083 94.2842 156.634 94.4601 158.147 94.8236C160.067 95.3042 160.547 95.7821 160.547 97.7018V98.1392C160.547 100.099 160.023 100.569 158.117 100.099C156.587 99.7413 155.02 99.5655 153.449 99.5756C150.965 99.5756 150.222 99.9266 150.222 100.753C150.222 101.409 150.614 101.671 152.013 102.235L156.546 104.025C159.991 105.375 161.56 107.076 161.56 110.567C161.56 115.101 158.814 117.15 152.185 117.15C150.337 117.189 148.492 116.999 146.691 116.583C144.771 116.105 144.29 115.624 144.29 113.705L144.25 113.227Z" fill="#09304D"/>
<path d="M184.498 105.422C184.282 107.385 183.715 107.82 181.666 107.82H170.596V108.473C170.596 110.741 172.297 111.789 176.309 111.789C178.084 111.762 179.851 111.558 181.585 111.178C183.475 110.784 183.896 111.222 183.896 113.271V113.752C183.896 115.669 183.505 116.106 181.585 116.584C180.146 116.978 178.402 117.151 176.266 117.151C168.46 117.151 164.883 114.275 164.883 107.601V104.113C164.883 97.5705 168.285 94.3008 175.043 94.3008C181.411 94.3008 184.596 97.4409 184.596 103.721C184.587 104.331 184.544 104.898 184.498 105.422ZM170.588 103.197H179.179V102.544C179.179 100.319 177.74 99.2283 174.859 99.2283C172.024 99.2283 170.585 100.308 170.585 102.544L170.588 103.197Z" fill="#09304D"/>
<path d="M188.855 90.8111C188.855 88.8482 189.333 88.2812 191.383 88.2812H192.168C194.218 88.2812 194.698 88.8482 194.698 90.8111V106.684C194.698 110.043 196.572 111.701 200.325 111.701C204.029 111.701 205.906 110.043 205.906 106.684V90.8111C205.906 88.8482 206.47 88.2812 208.436 88.2812H209.219C211.182 88.2812 211.749 88.8482 211.749 90.8111V106.684C211.749 113.88 207.345 117.15 200.325 117.15C193.216 117.15 188.855 113.88 188.855 106.684V90.8111Z" fill="#09304D"/>
<path d="M216.449 103.851C216.449 97.3545 220.591 94.3008 226.828 94.3008C233.762 94.3008 237.25 97.4841 237.25 103.851V107.339C237.25 113.619 234.067 117.151 228.094 117.151C225.346 117.151 223.34 116.322 222.117 114.667V122.907C222.117 124.87 221.639 125.351 219.687 125.351H218.901C216.941 125.351 216.471 124.87 216.471 122.907L216.449 103.851ZM231.537 103.983C231.537 100.886 230.667 99.663 226.871 99.663C223.164 99.663 222.117 100.97 222.117 103.983V107.461C222.117 110.468 223.164 111.781 226.871 111.781C230.578 111.781 231.537 110.471 231.537 107.461V103.983Z" fill="#09304D"/>
<path d="M146.392 51.1603C147.614 51.1598 148.807 50.7972 149.822 50.1184C150.837 49.4395 151.628 48.475 152.095 47.3466C152.562 46.2182 152.684 44.9768 152.446 43.7791C152.207 42.5815 151.619 41.4815 150.755 40.6182C149.891 39.7549 148.791 39.167 147.593 38.929C146.396 38.691 145.154 38.8134 144.026 39.2808C142.898 39.7483 141.934 40.5397 141.255 41.5551C140.577 42.5705 140.215 43.7643 140.215 44.9854C140.215 45.7966 140.375 46.5998 140.685 47.3491C140.996 48.0985 141.451 48.7793 142.024 49.3527C142.598 49.9261 143.279 50.3809 144.029 50.6911C144.778 51.0012 145.581 51.1607 146.392 51.1603Z" fill="#F79722"/>
<path d="M160.65 71.666C160.648 72.9872 160.122 74.2537 159.188 75.188C158.254 76.1222 156.987 76.648 155.666 76.6502H155.455C154.159 76.5902 152.936 76.0313 152.042 75.0902C151.148 74.1492 150.653 72.899 150.66 71.6012C150.66 67.1516 149.426 64.1519 147.191 63.1502C146.892 63.0057 146.564 62.9327 146.232 62.9369C145.899 62.9306 145.57 63.0037 145.271 63.1502C143.081 64.1519 141.866 67.1516 141.866 71.6012C141.878 72.8959 141.388 74.1449 140.499 75.0863C139.61 76.0276 138.391 76.5881 137.098 76.6502H136.882C135.56 76.6445 134.294 76.1182 133.357 75.1852C132.421 74.2523 131.89 72.9878 131.879 71.666C131.879 53.0981 146.103 52.8848 146.254 52.8848C146.405 52.8848 160.647 53.0981 160.647 71.666" fill="#09304D"/>
<path d="M192.13 71.6658C192.146 72.3299 192.028 72.9904 191.785 73.6085C191.541 74.2266 191.177 74.7897 190.713 75.2649C190.248 75.7401 189.694 76.1176 189.082 76.3754C188.469 76.6332 187.812 76.766 187.148 76.766C186.483 76.766 185.826 76.6332 185.213 76.3754C184.601 76.1176 184.047 75.7401 183.582 75.2649C183.118 74.7897 182.754 74.2266 182.51 73.6085C182.267 72.9904 182.149 72.3299 182.165 71.6658C182.165 54.078 172.715 52.9494 171.365 52.863C170.015 52.9278 160.565 54.078 160.565 71.6658C160.58 72.3299 160.463 72.9904 160.219 73.6085C159.976 74.2266 159.611 74.7897 159.147 75.2649C158.683 75.7401 158.128 76.1176 157.516 76.3754C156.904 76.6332 156.246 76.766 155.582 76.766C154.918 76.766 154.26 76.6332 153.648 76.3754C153.035 76.1176 152.481 75.7401 152.017 75.2649C151.552 74.7897 151.188 74.2266 150.944 73.6085C150.701 72.9904 150.584 72.3299 150.599 71.6658C150.6 71.4233 150.62 71.1812 150.661 70.9422C150.791 60.2745 153.812 52.3959 159.69 47.5197C162.873 44.8769 166.791 43.2747 170.914 42.9297H171.764C175.886 43.2747 179.803 44.8769 182.985 47.5197C188.863 52.3797 191.895 60.2529 192.014 70.9206C192.101 71.1589 192.138 71.4126 192.122 71.6658" fill="#EE4A23"/>
<path d="M171.346 40.9621C173.46 40.9611 175.527 40.333 177.285 39.1574C179.042 37.9818 180.412 36.3114 181.22 34.3574C182.029 32.4035 182.24 30.2537 181.826 28.1799C181.413 26.1062 180.394 24.2015 178.898 22.7069C177.402 21.2122 175.497 20.1947 173.423 19.7828C171.349 19.371 169.199 19.5835 167.246 20.3933C165.292 21.2031 163.623 22.574 162.449 24.3325C161.274 26.091 160.648 28.1583 160.648 30.2728C160.648 33.1078 161.775 35.8267 163.779 37.8313C165.784 39.8359 168.503 40.9621 171.338 40.9621" fill="#059E9E"/>
<path d="M176.371 47.9032C176.369 49.216 175.849 50.475 174.924 51.4074C174 52.3397 172.746 52.8705 171.433 52.8847C171.028 52.9063 160.614 53.3545 160.614 71.6875C160.584 72.9889 160.046 74.2269 159.114 75.1366C158.183 76.0464 156.933 76.5557 155.631 76.5557C154.329 76.5557 153.079 76.0464 152.148 75.1366C151.217 74.2269 150.679 72.9889 150.648 71.6875C150.649 71.4448 150.67 71.2027 150.713 70.9639C150.84 60.2962 153.864 52.396 159.742 47.5414C162.924 44.8974 166.841 43.2951 170.963 42.9514C171.006 42.9514 171.263 42.9298 171.263 42.9298H171.39C171.496 42.9288 171.603 42.936 171.708 42.9514C172.97 43.0238 174.155 43.576 175.022 44.4947C175.889 45.4135 176.372 46.6291 176.371 47.8924" fill="#F79722"/>
<path d="M162.855 130.251C162.855 129.525 163.039 129.344 163.765 129.344H164.073C164.799 129.344 164.983 129.525 164.983 130.251V133.34C165.501 132.767 166.392 132.408 167.464 132.408C168.76 132.408 170.221 133.013 170.221 135.219V139.86C170.221 140.587 170.04 140.767 169.314 140.767H169.003C168.274 140.767 168.093 140.587 168.093 139.86V135.597C168.093 134.69 167.575 134.422 166.743 134.422C165.801 134.422 164.988 134.798 164.988 136.396V139.86C164.988 140.587 164.808 140.77 164.081 140.77H163.771C163.044 140.77 162.864 140.587 162.864 139.86L162.855 130.251Z" fill="#9CABB7"/>
<path d="M173.94 137.67C173.94 138.502 174.183 138.961 175.511 138.961C176.84 138.961 177.053 138.502 177.053 137.67V133.52C177.053 132.794 177.234 132.613 177.96 132.613H178.268C178.994 132.613 179.178 132.794 179.178 133.52V137.668C179.178 139.849 178.074 140.967 175.511 140.967C173.06 140.967 171.812 139.806 171.812 137.668V133.52C171.812 132.794 171.993 132.613 172.72 132.613H173.03C173.756 132.613 173.937 132.794 173.937 133.52L173.94 137.67Z" fill="#9CABB7"/>
<path d="M180.77 130.251C180.77 129.525 180.95 129.344 181.677 129.344H181.979C182.708 129.344 182.889 129.525 182.889 130.251V133.34C183.31 132.767 183.991 132.408 185.111 132.408C187.366 132.408 188.516 133.758 188.516 136.083V137.39C188.516 139.952 187.071 140.965 184.639 140.965C182.498 140.965 180.78 139.952 180.78 137.39L180.77 130.251ZM186.383 136.029C186.383 134.987 186.113 134.409 184.647 134.409C183.181 134.409 182.876 134.981 182.876 136.029V137.336C182.876 138.381 183.186 138.956 184.647 138.956C186.107 138.956 186.383 138.383 186.383 137.336V136.029Z" fill="#9CABB7"/>
<path d="M194.352 138.845C193.978 138.915 193.597 138.948 193.216 138.945C192.616 138.945 192.217 138.675 192.195 137.914C192.206 137.872 192.211 137.829 192.211 137.787V134.611H194.045C194.771 134.611 194.952 134.431 194.952 133.704V133.521C194.952 132.794 194.771 132.613 194.045 132.613H192.211V131.388C192.211 130.661 192.028 130.48 191.301 130.48H191.01C190.284 130.48 190.1 130.661 190.1 131.388V132.511L190.078 132.613V137.838C190.078 137.986 190.078 138.13 190.078 138.265C190.076 138.415 190.094 138.565 190.132 138.71C190.429 140.406 191.636 140.956 193.194 140.956C193.576 140.965 193.957 140.932 194.331 140.857C195.044 140.711 195.222 140.433 195.222 139.698V139.517C195.222 138.791 195.041 138.707 194.331 138.848" fill="#9CABB7"/>
<path d="M203.406 136.577C203.309 137.328 203.098 137.473 202.351 137.473H198.23V137.719C198.23 138.567 198.849 138.961 200.358 138.961C201.017 138.95 201.674 138.873 202.318 138.732C203.034 138.586 203.179 138.78 203.179 139.515V139.696C203.179 140.422 203.034 140.578 202.318 140.757C201.67 140.903 201.007 140.975 200.342 140.97C197.469 140.97 196.105 139.925 196.105 137.395V136.08C196.105 133.974 197.064 132.408 199.885 132.408C202.248 132.408 203.441 133.615 203.441 135.934C203.442 136.147 203.43 136.36 203.406 136.572M198.23 135.74H201.422V135.494C201.422 134.684 200.882 134.252 199.815 134.252C198.749 134.252 198.225 134.679 198.225 135.494L198.23 135.74Z" fill="#9CABB7"/>
<path d="M204.865 130.251C204.865 129.525 205.049 129.344 205.775 129.344H206.064C206.79 129.344 206.971 129.525 206.971 130.251V137.827C206.971 138.675 207.198 138.907 207.687 138.907H207.768C208.189 138.907 208.308 139.004 208.308 139.658V139.968C208.308 140.622 208.178 140.8 207.768 140.875C207.607 140.905 207.444 140.916 207.282 140.908C205.902 140.908 204.852 140.141 204.852 138.281L204.865 130.251Z" fill="#9CABB7"/>
<path d="M150.003 137.252C149.193 136.655 148.807 136.018 148.75 135.395H145.672V140.03C145.672 142.498 146.719 142.938 148.121 141.872L152.063 138.84L150.003 137.252Z" fill="#9CABB7"/>
<path d="M159.221 135.391H149.336C149.412 135.931 149.768 136.471 150.465 137.011L156.78 141.871C158.181 142.929 159.237 142.5 159.229 140.032L159.221 135.391Z" fill="#9CABB7"/>
<path d="M156.781 128.433L152.801 131.508L154.82 133.064C155.63 133.655 156.011 134.287 156.07 134.908H159.224V130.283C159.224 127.817 158.176 127.385 156.775 128.444" fill="#9CABB7"/>
<path d="M154.439 133.305L148.121 128.445C146.72 127.389 145.664 127.818 145.672 130.286V134.911H155.559C155.484 134.371 155.127 133.831 154.433 133.307" fill="#9CABB7"/>
<path d="M115.688 133.237V132.427C115.688 130.661 116.619 130.024 118.19 130.024C118.488 130.021 118.785 130.044 119.079 130.091C119.567 130.188 119.675 130.299 119.675 130.758V130.925C119.687 131.006 119.682 131.089 119.661 131.168C119.639 131.247 119.602 131.32 119.551 131.384C119.397 131.509 118.857 131.371 118.288 131.371C117.494 131.371 117.108 131.69 117.108 132.316V133.231H118.955C119.441 133.231 119.538 133.328 119.538 133.817V133.982C119.538 134.471 119.441 134.568 118.955 134.568H117.108V139.501C117.108 140 116.981 140.124 116.481 140.124H116.314C115.812 140.124 115.688 140 115.688 139.501V133.237Z" fill="#9CABB7"/>
<path d="M121.915 139.506C121.915 140.005 121.791 140.129 121.289 140.129H121.111C120.609 140.129 120.484 140.005 120.484 139.506V135.539C120.484 133.9 121.359 133.08 123.109 133.08C123.199 133.072 123.289 133.072 123.379 133.08C123.838 133.136 123.962 133.247 123.962 133.733V133.927C123.962 134.386 123.865 134.484 123.379 134.413C123.289 134.406 123.199 134.406 123.109 134.413C122.177 134.413 121.915 134.789 121.915 135.637V139.506Z" fill="#9CABB7"/>
<path d="M124.516 137.28V136.079C124.516 134.132 125.558 133.076 127.712 133.076C129.921 133.076 130.882 134.075 130.882 136.079V137.272C130.882 139.205 129.84 140.274 127.712 140.274C125.49 140.282 124.516 139.283 124.516 137.28ZM129.449 136.079C129.449 134.909 129.06 134.41 127.712 134.41C126.365 134.41 125.947 134.909 125.947 136.079V137.272C125.947 138.425 126.335 138.927 127.712 138.927C129.089 138.927 129.449 138.441 129.449 137.272V136.079Z" fill="#9CABB7"/>
<path d="M133.676 139.506C133.676 140.006 133.549 140.13 133.049 140.13H132.869C132.369 140.13 132.242 140.006 132.242 139.506V135.78C132.242 133.987 133.187 133.08 135.066 133.08C136.079 133.08 136.775 133.412 137.151 134.095C137.526 133.412 138.231 133.08 139.235 133.08C141.179 133.08 142.043 133.995 142.043 135.78V139.506C142.043 140.006 141.916 140.13 141.417 140.13H141.236C140.736 140.13 140.609 140.006 140.609 139.506V135.78C140.609 134.838 140.304 134.43 139.235 134.43C138.166 134.43 137.831 134.849 137.831 135.78V139.506C137.831 140.006 137.704 140.13 137.205 140.13H137.067C136.568 140.13 136.441 140.006 136.441 139.506V135.78C136.441 134.838 136.136 134.43 135.066 134.43C133.997 134.43 133.676 134.849 133.676 135.78V139.506Z" fill="#9CABB7"/>
</svg>
