<svg width="123" height="42" viewBox="0 0 123 42" fill="none" xmlns="http://www.w3.org/2000/svg">
<g clip-path="url(#clip0_13472_35043)">
<path d="M97.43 34.54C97.43 34.14 97.53 34.04 97.93 34.04H98.1C98.5 34.04 98.6 34.14 98.6 34.54V36.24C98.89 35.93 99.38 35.73 99.96 35.73C100.67 35.73 101.48 36.06 101.48 37.27V39.82C101.48 40.22 101.38 40.32 100.98 40.32H100.81C100.41 40.32 100.31 40.22 100.31 39.82V37.48C100.31 36.98 100.02 36.83 99.56 36.83C99.04 36.83 98.6 37.04 98.6 37.91V39.81C98.6 40.21 98.5 40.31 98.1 40.31H97.93C97.53 40.31 97.43 40.21 97.43 39.81V34.53V34.54Z" fill="#9BAAB7"/>
<path d="M103.52 38.62C103.52 39.08 103.65 39.33 104.38 39.33C105.11 39.33 105.23 39.08 105.23 38.62V36.34C105.23 35.94 105.33 35.84 105.73 35.84H105.9C106.3 35.84 106.4 35.94 106.4 36.34V38.62C106.4 39.82 105.79 40.43 104.39 40.43C102.99 40.43 102.36 39.79 102.36 38.62V36.34C102.36 35.94 102.46 35.84 102.86 35.84H103.03C103.43 35.84 103.53 35.94 103.53 36.34V38.62H103.52Z" fill="#9BAAB7"/>
<path d="M107.27 34.54C107.27 34.14 107.37 34.04 107.77 34.04H107.93C108.33 34.04 108.43 34.14 108.43 34.54V36.24C108.66 35.93 109.04 35.73 109.65 35.73C110.89 35.73 111.52 36.47 111.52 37.75V38.47C111.52 39.88 110.73 40.43 109.39 40.43C108.21 40.43 107.27 39.87 107.27 38.47V34.55V34.54ZM110.35 37.72C110.35 37.15 110.2 36.83 109.4 36.83C108.6 36.83 108.43 37.14 108.43 37.72V38.44C108.43 39.01 108.6 39.33 109.4 39.33C110.2 39.33 110.35 39.02 110.35 38.44V37.72Z" fill="#9BAAB7"/>
<path d="M114.73 39.26C114.52 39.3 114.31 39.32 114.11 39.31C113.78 39.31 113.56 39.16 113.55 38.74C113.55 38.72 113.55 38.69 113.55 38.67V36.93H114.56C114.96 36.93 115.06 36.83 115.06 36.43V36.33C115.06 35.93 114.96 35.83 114.56 35.83H113.55V35.16C113.55 34.76 113.45 34.66 113.05 34.66H112.89C112.49 34.66 112.39 34.76 112.39 35.16V35.83L112.38 38.7C112.38 38.78 112.38 38.86 112.38 38.94C112.38 39.02 112.38 39.1 112.41 39.18C112.57 40.11 113.24 40.41 114.09 40.41C114.3 40.41 114.51 40.4 114.71 40.36C115.1 40.28 115.2 40.13 115.2 39.72V39.62C115.2 39.22 115.1 39.18 114.71 39.25" fill="#9BAAB7"/>
<path d="M119.71 38.02C119.66 38.43 119.54 38.51 119.13 38.51H116.87V38.64C116.87 39.11 117.21 39.32 118.04 39.32C118.4 39.32 118.76 39.27 119.12 39.19C119.51 39.11 119.59 39.22 119.59 39.62V39.72C119.59 40.12 119.51 40.2 119.12 40.3C118.76 40.38 118.4 40.42 118.03 40.42C116.45 40.42 115.7 39.85 115.7 38.46V37.74C115.7 36.58 116.23 35.72 117.78 35.72C119.08 35.72 119.73 36.38 119.73 37.66C119.73 37.78 119.73 37.89 119.71 38.01M116.87 37.55H118.63V37.42C118.63 36.97 118.33 36.74 117.75 36.74C117.17 36.74 116.88 36.97 116.88 37.42V37.55H116.87Z" fill="#9BAAB7"/>
<path d="M120.51 34.54C120.51 34.14 120.61 34.04 121.01 34.04H121.17C121.57 34.04 121.67 34.14 121.67 34.54V38.7C121.67 39.17 121.79 39.3 122.06 39.3H122.11C122.34 39.3 122.41 39.35 122.41 39.71V39.88C122.41 40.24 122.34 40.34 122.11 40.38C122.02 40.4 121.93 40.4 121.84 40.4C121.08 40.4 120.51 39.98 120.51 38.96V34.54Z" fill="#9BAAB7"/>
<path d="M90.37 38.39C89.93 38.06 89.71 37.71 89.68 37.37H87.99V39.92C87.99 41.28 88.57 41.52 89.34 40.93L91.5 39.27L90.37 38.4V38.39Z" fill="#9BAAB7"/>
<path d="M95.43 37.37H90C90.04 37.67 90.24 37.97 90.62 38.26L94.09 40.94C94.86 41.52 95.44 41.29 95.44 39.93V37.38L95.43 37.37Z" fill="#9BAAB7"/>
<path d="M94.09 33.54L91.9 35.23L93.01 36.08C93.45 36.41 93.66 36.75 93.7 37.09H95.43V34.55C95.43 33.19 94.86 32.96 94.08 33.54" fill="#9BAAB7"/>
<path d="M92.8 36.22L89.33 33.54C88.56 32.96 87.98 33.19 87.99 34.55V37.09H93.42C93.38 36.79 93.18 36.49 92.8 36.21" fill="#9BAAB7"/>
<path d="M71.51 36.18V35.74C71.51 34.77 72.02 34.42 72.88 34.42C73.08 34.42 73.24 34.43 73.37 34.46C73.64 34.51 73.7 34.58 73.7 34.83V34.92C73.7 35.05 73.68 35.13 73.63 35.17C73.55 35.24 73.25 35.17 72.94 35.17C72.5 35.17 72.29 35.34 72.29 35.69V36.19H73.31C73.58 36.19 73.63 36.24 73.63 36.51V36.6C73.63 36.87 73.58 36.92 73.31 36.92H72.29V39.63C72.29 39.9 72.22 39.97 71.95 39.97H71.86C71.58 39.97 71.52 39.9 71.52 39.63V36.19L71.51 36.18Z" fill="#9BAAB7"/>
<path d="M74.94 39.63C74.94 39.9 74.87 39.97 74.6 39.97H74.5C74.22 39.97 74.16 39.9 74.16 39.63V37.45C74.16 36.55 74.64 36.1 75.6 36.1C75.66 36.1 75.72 36.1 75.75 36.1C76 36.13 76.07 36.19 76.07 36.46V36.57C76.07 36.82 76.02 36.87 75.75 36.84C75.71 36.84 75.66 36.84 75.6 36.84C75.09 36.84 74.94 37.05 74.94 37.51V39.63Z" fill="#9BAAB7"/>
<path d="M76.37 38.41V37.75C76.37 36.68 76.94 36.1 78.13 36.1C79.32 36.1 79.87 36.65 79.87 37.75V38.41C79.87 39.47 79.3 40.06 78.13 40.06C76.96 40.06 76.37 39.51 76.37 38.41ZM79.08 37.75C79.08 37.11 78.87 36.83 78.13 36.83C77.39 36.83 77.16 37.11 77.16 37.75V38.41C77.16 39.04 77.37 39.32 78.13 39.32C78.89 39.32 79.08 39.05 79.08 38.41V37.75Z" fill="#9BAAB7"/>
<path d="M81.4 39.63C81.4 39.9 81.33 39.97 81.06 39.97H80.96C80.68 39.97 80.62 39.9 80.62 39.63V37.58C80.62 36.59 81.14 36.1 82.17 36.1C82.73 36.1 83.11 36.28 83.31 36.66C83.52 36.28 83.9 36.1 84.46 36.1C85.53 36.1 86 36.6 86 37.58V39.63C86 39.9 85.93 39.97 85.66 39.97H85.56C85.29 39.97 85.22 39.9 85.22 39.63V37.58C85.22 37.06 85.05 36.83 84.46 36.83C83.87 36.83 83.69 37.06 83.69 37.58V39.63C83.69 39.9 83.62 39.97 83.35 39.97H83.27C83 39.97 82.93 39.9 82.93 39.63V37.58C82.93 37.06 82.76 36.83 82.17 36.83C81.58 36.83 81.4 37.06 81.4 37.58V39.63Z" fill="#9BAAB7"/>
<path d="M48.58 20.71L51.72 25.43C52.32 26.32 52.22 26.58 51.1 26.58H50.19C49.11 26.58 48.68 26.34 48.03 25.41L45.11 20.95H42.93V25.19C42.93 26.27 42.67 26.58 41.54 26.58H41.11C39.98 26.58 39.72 26.27 39.72 25.19V13.88C39.72 11.87 40.58 11 42.6 11H46.53C50.05 11 51.82 12.65 51.82 15.98C51.82 18.57 50.74 20.15 48.59 20.7M43.65 13.99C43.17 13.99 42.93 14.23 42.93 14.71V17.95H46.52C47.91 17.95 48.6 17.3 48.6 15.99C48.6 14.68 48.03 14 46.52 14H43.65V13.99Z" fill="#9BAAB7"/>
<path d="M63.62 23C63.62 25.59 62.04 26.86 58.42 26.86C54.8 26.86 53.22 25.59 53.22 23.07C53.22 20.55 54.85 19.33 58.08 19.33H60.5V18.42C60.5 17.27 59.66 16.96 58.01 16.96C57.34 16.96 56.64 17.01 55.92 17.1C54.87 17.27 54.58 17.03 54.58 15.97V15.87C54.58 14.84 54.84 14.58 55.87 14.41C56.47 14.34 57.12 14.29 57.81 14.29C61.57 14.29 63.61 15.44 63.61 18.41V22.99L63.62 23ZM60.51 21.68H58.04C56.91 21.68 56.34 22.11 56.34 23C56.44 24.15 57.2 24.27 58.38 24.25C59.6 24.27 60.39 24.13 60.51 22.84V21.69V21.68Z" fill="#9BAAB7"/>
<path d="M66.21 9.68C66.95 8.94 68.1 8.94 68.85 9.68C69.59 10.42 69.59 11.57 68.85 12.32C68.11 13.06 66.96 13.06 66.21 12.32C65.47 11.58 65.47 10.43 66.21 9.68ZM65.97 15.93C65.97 14.85 66.23 14.59 67.31 14.59H67.74C68.82 14.59 69.08 14.85 69.08 15.93V25.23C69.08 26.31 68.82 26.57 67.74 26.57H67.31C66.23 26.57 65.97 26.31 65.97 25.23V15.93Z" fill="#9BAAB7"/>
<path d="M71.31 24.71C71.31 23.58 71.6 23.3 72.63 23.58C73.54 23.84 74.62 23.96 75.89 23.96C77.3 23.96 77.74 23.82 77.74 23.27C77.74 22.86 77.5 22.67 76.23 22.17L74 21.24C72.3 20.55 71.51 19.68 71.51 17.84C71.51 15.44 72.92 14.32 76.4 14.32C77.33 14.32 78.17 14.42 78.94 14.61C79.99 14.87 80.26 15.14 80.26 16.19V16.43C80.26 17.51 79.97 17.77 78.92 17.51C78.13 17.32 77.27 17.22 76.36 17.22C74.99 17.22 74.59 17.41 74.59 17.87C74.59 18.23 74.81 18.37 75.57 18.69L78.06 19.67C79.95 20.41 80.82 21.35 80.82 23.26C80.82 25.75 79.31 26.88 75.67 26.88C74.5 26.88 73.49 26.78 72.65 26.57C71.6 26.31 71.33 26.04 71.33 24.99V24.73L71.31 24.71Z" fill="#9BAAB7"/>
<path d="M93.42 20.42C93.3 21.5 92.99 21.74 91.86 21.74H85.77V22.1C85.77 23.35 86.7 23.92 88.91 23.92C89.8 23.92 90.76 23.8 91.81 23.58C92.84 23.36 93.08 23.6 93.08 24.73V24.99C93.08 26.05 92.87 26.28 91.81 26.55C91.02 26.77 90.06 26.86 88.89 26.86C84.6 26.86 82.64 25.28 82.64 21.61V19.69C82.64 16.1 84.51 14.3 88.22 14.3C91.72 14.3 93.47 16.02 93.47 19.47C93.47 19.81 93.45 20.12 93.42 20.41M85.78 19.19H90.5V18.83C90.5 17.61 89.71 17.01 88.13 17.01C86.55 17.01 85.78 17.61 85.78 18.83V19.19Z" fill="#9BAAB7"/>
<path d="M95.81 12.39C95.81 11.31 96.07 11 97.2 11H97.63C98.76 11 99.02 11.31 99.02 12.39V21.11C99.02 22.96 100.05 23.87 102.11 23.87C104.17 23.87 105.18 22.96 105.18 21.11V12.39C105.18 11.31 105.49 11 106.57 11H107C108.08 11 108.39 11.31 108.39 12.39V21.11C108.39 25.06 105.97 26.86 102.11 26.86C98.25 26.86 95.81 25.06 95.81 21.11V12.39Z" fill="#9BAAB7"/>
<path d="M110.98 19.55C110.98 15.98 113.25 14.3 116.68 14.3C120.49 14.3 122.41 16.05 122.41 19.55V21.47C122.41 24.92 120.66 26.86 117.38 26.86C115.87 26.86 114.77 26.4 114.1 25.49V30.02C114.1 31.1 113.84 31.36 112.76 31.36H112.33C111.25 31.36 110.99 31.1 110.99 30.02V19.55H110.98ZM119.27 19.62C119.27 17.92 118.79 17.25 116.71 17.25C114.63 17.25 114.1 17.97 114.1 19.62V21.54C114.1 23.19 114.68 23.91 116.71 23.91C118.74 23.91 119.27 23.19 119.27 21.54V19.62Z" fill="#9BAAB7"/>
<path d="M7.98003 17.35C9.85003 17.35 11.37 15.83 11.37 13.96C11.37 12.09 9.85003 10.57 7.98003 10.57C6.11003 10.57 4.59003 12.09 4.59003 13.96C4.59003 15.83 6.11003 17.35 7.98003 17.35Z" fill="#9BAAB7"/>
<path d="M11.13 19.19C10.34 20.87 9.81 22.8 9.54 24.99C9.24 24.5 8.86 24.15 8.41 23.94C8.25 23.86 8.06 23.83 7.89 23.83C7.7 23.83 7.53 23.86 7.36 23.94C6.15 24.5 5.49 26.14 5.49 28.58C5.49 30.08 4.33 31.3 2.86 31.36H2.75C2.01 31.36 1.34 31.07 0.8 30.55C0.29 30.04 0 29.34 0 28.62C0 18.42 7.82 18.3 7.9 18.3C7.94 18.3 9.45 18.32 11.13 19.19Z" fill="#9BAAB7"/>
<path d="M33.11 28.62C33.11 30.12 31.87 31.36 30.37 31.36C28.87 31.36 27.63 30.12 27.63 28.62C27.63 22.17 25.32 19.76 23.56 18.84C24.7 18.19 25.48 16.97 25.48 15.57C25.48 14.8 25.24 14.09 24.85 13.49C25.85 13.86 26.98 14.45 28.08 15.35C31.31 18.02 32.97 22.35 33.04 28.21C33.1 28.35 33.1 28.49 33.1 28.62" fill="#9BAAB7"/>
<path d="M21.69 11.75C24.93 11.75 27.56 9.12 27.56 5.88C27.56 2.64 24.94 0 21.69 0C18.44 0 15.82 2.63 15.82 5.87C15.82 9.11 18.45 11.74 21.69 11.74" fill="#9BAAB7"/>
<path d="M24.45 15.56C24.45 17.06 23.23 18.29 21.74 18.3C21.52 18.31 15.8 18.56 15.8 28.63C15.8 30.14 14.57 31.37 13.06 31.37C11.55 31.37 10.32 30.14 10.32 28.63C10.32 28.5 10.33 28.36 10.36 28.23C10.43 22.37 12.09 18.03 15.32 15.36C17.9 13.22 20.69 12.89 21.48 12.85C21.5 12.85 21.64 12.84 21.64 12.84H21.71C21.71 12.84 21.8 12.84 21.89 12.85C23.34 12.93 24.45 14.14 24.45 15.56Z" fill="#9BAAB7"/>
</g>
<defs>
<clipPath id="clip0_13472_35043">
<rect width="122.41" height="41.23" fill="white"/>
</clipPath>
</defs>
</svg>
