<svg width="204" height="98" viewBox="0 0 204 98" fill="none" xmlns="http://www.w3.org/2000/svg">
<path d="M84.4679 49.1206L88.8267 55.4187C89.6597 56.6029 89.5254 56.9541 87.9614 56.9541H86.7C85.204 56.9541 84.6039 56.6274 83.7046 55.3877L79.6416 49.4407H76.6139V55.1002C76.6139 56.5376 76.2484 56.9541 74.6844 56.9541H74.086C72.522 56.9541 72.1548 56.5376 72.1548 55.1002V40.0164C72.1548 37.3296 73.3533 36.1797 76.1498 36.1797H81.6C86.4926 36.1797 88.9542 38.3863 88.9542 42.829C88.9593 46.2753 87.4616 48.3856 84.4679 49.1206ZM77.6135 40.1683C76.9471 40.1683 76.6139 40.4884 76.6139 41.1287V45.444H81.6C83.5295 45.444 84.49 44.5816 84.49 42.8225C84.49 41.0258 83.691 40.1683 81.6 40.1683H77.6135Z" fill="#09304D"/>
<path d="M105.359 52.1901C105.359 55.643 103.165 57.3384 98.1393 57.3384C93.1141 57.3384 90.9194 55.643 90.9194 52.2865C90.9194 48.961 93.1804 47.2999 97.6735 47.2999H101.034V46.0847C101.034 44.5494 99.8699 44.1345 97.5749 44.1345C96.6083 44.1371 95.6428 44.201 94.6849 44.3256C93.2212 44.5494 92.8149 44.2309 92.8149 42.823V42.6956C92.8149 41.3203 93.1804 40.9691 94.6118 40.7454C95.5063 40.6389 96.4067 40.5844 97.308 40.582C102.532 40.582 105.359 42.1174 105.359 46.0815V52.1901ZM101.034 50.4327H97.6072C96.0432 50.4327 95.2442 51.0076 95.2442 52.1901C95.3785 53.7255 96.4342 53.8855 98.073 53.8529C99.773 53.8855 100.868 53.6895 101.034 51.9664V50.4327Z" fill="#09304D"/>
<path d="M108.95 34.414C109.312 34.0662 109.773 33.8293 110.275 33.7333C110.778 33.6374 111.298 33.6866 111.771 33.8749C112.244 34.0632 112.649 34.3821 112.933 34.7911C113.218 35.2002 113.369 35.6811 113.369 36.1731C113.369 36.6651 113.218 37.146 112.933 37.5551C112.649 37.9642 112.244 38.283 111.771 38.4713C111.298 38.6596 110.778 38.7089 110.275 38.6129C109.773 38.517 109.312 38.2801 108.95 37.9322C108.704 37.7038 108.509 37.4304 108.376 37.1282C108.243 36.8261 108.175 36.5013 108.175 36.1731C108.175 35.845 108.243 35.5202 108.376 35.218C108.509 34.9158 108.704 34.6424 108.95 34.414ZM108.61 42.7587C108.61 41.3197 108.975 40.962 110.48 40.962H111.078C112.576 40.962 112.948 41.3132 112.948 42.7587V55.1639C112.948 56.6028 112.581 56.9605 111.078 56.9605H110.48C108.982 56.9605 108.61 56.6094 108.61 55.1639V42.7587Z" fill="#09304D"/>
<path d="M116.035 54.4599C116.035 52.9572 116.435 52.5734 117.866 52.9572C119.129 53.3084 120.627 53.4685 122.39 53.4685C124.353 53.4685 124.952 53.2774 124.952 52.5407C124.952 51.9985 124.612 51.742 122.856 51.0707L119.762 49.8245C117.399 48.8968 116.302 47.7469 116.302 45.2838C116.302 42.0874 118.266 40.5847 123.09 40.5847C124.277 40.5728 125.462 40.7018 126.616 40.9686C128.081 41.3197 128.447 41.6709 128.447 43.0788V43.4055C128.447 44.8428 128.047 45.2022 126.577 44.8428C125.407 44.58 124.208 44.4512 123.007 44.459C121.111 44.459 120.545 44.7154 120.545 45.323C120.545 45.8032 120.844 45.9943 121.905 46.4092L125.365 47.7159C127.993 48.7073 129.191 49.9535 129.191 52.5113C129.191 55.8368 127.095 57.3395 122.038 57.3395C120.406 57.3395 119.01 57.2104 117.846 56.923C116.38 56.5718 116.015 56.2206 116.015 54.8127L116.035 54.4599Z" fill="#09304D"/>
<path d="M146.744 48.7372C146.574 50.1762 146.146 50.4963 144.582 50.4963H136.131V50.9749C136.131 52.6376 137.428 53.4053 140.488 53.4053C141.843 53.386 143.192 53.236 144.515 52.9578C145.947 52.6703 146.278 52.9904 146.278 54.4915V54.8443C146.278 56.2506 145.979 56.5707 144.515 56.9219C143.417 57.2093 142.086 57.3384 140.456 57.3384C134.506 57.3384 131.77 55.2281 131.77 50.3363V47.7785C131.77 42.983 134.366 40.5918 139.524 40.5918C144.383 40.5918 146.812 42.8937 146.812 47.4975C146.812 47.9385 146.778 48.3469 146.744 48.7372ZM136.131 47.1039H142.684V46.6237C142.684 44.9904 141.588 44.1949 139.391 44.1949C137.227 44.1949 136.131 44.9936 136.131 46.6237V47.1039Z" fill="#09304D"/>
<path d="M150.069 38.0277C150.069 36.5887 150.435 36.1738 151.999 36.1738H152.597C154.161 36.1738 154.527 36.5887 154.527 38.0277V49.6652C154.527 52.1266 155.958 53.3418 158.821 53.3418C161.648 53.3418 163.071 52.1266 163.071 49.6652V38.0277C163.071 36.5887 163.503 36.1738 165 36.1738H165.6C167.096 36.1738 167.53 36.5887 167.53 38.0277V49.6652C167.53 54.9408 164.169 57.3418 158.812 57.3418C153.388 57.3418 150.061 54.9441 150.061 49.6652L150.069 38.0277Z" fill="#09304D"/>
<path d="M171.127 47.588C171.127 42.8236 174.287 40.5859 179.047 40.5859C184.336 40.5859 187 42.92 187 47.588V50.1442C187 54.7469 184.571 57.3309 180.011 57.3309C177.915 57.3309 176.384 56.7233 175.452 55.5081V61.5514C175.452 62.9904 175.086 63.3481 173.582 63.3481H172.984C171.486 63.3481 171.114 62.9953 171.114 61.5514L171.127 47.588ZM182.64 47.6844C182.64 45.4141 181.975 44.519 179.08 44.519C176.251 44.519 175.452 45.4778 175.452 47.6844V50.2406C175.452 52.4472 176.251 53.406 179.08 53.406C181.909 53.406 182.64 52.4472 182.64 50.2406V47.6844Z" fill="#09304D"/>
<path d="M28.0823 44.645C29.0142 44.6447 29.9251 44.3789 30.6999 43.8812C31.4746 43.3835 32.0783 42.6763 32.4347 41.849C32.7912 41.0216 32.8842 40.1113 32.7022 39.2332C32.5202 38.355 32.0712 37.5484 31.4121 36.9154C30.753 36.2823 29.9134 35.8513 28.9993 35.6767C28.0852 35.5022 27.1378 35.5919 26.2768 35.9346C25.4158 36.2774 24.68 36.8577 24.1622 37.6022C23.6445 38.3467 23.3682 39.222 23.3682 40.1174C23.3686 41.3184 23.8655 42.47 24.7495 43.319C25.6335 44.1681 26.8323 44.645 28.0823 44.645Z" fill="#F79722"/>
<path d="M38.9521 59.6811C38.9503 60.6495 38.549 61.5776 37.8362 62.2622C37.1233 62.9468 36.1571 63.3319 35.1492 63.3332H34.9877C33.9989 63.2898 33.0659 62.8804 32.3842 62.1907C31.7026 61.5011 31.3251 60.5848 31.331 59.6337C31.331 56.3671 30.3892 54.1702 28.6824 53.4369C28.455 53.3293 28.2049 53.2735 27.9514 53.2735C27.6972 53.2719 27.4462 53.3278 27.2187 53.4369C25.5459 54.1702 24.6194 56.3769 24.6194 59.6337C24.6289 60.5828 24.2551 61.4984 23.5767 62.1882C22.8984 62.8781 21.9681 63.2885 20.9814 63.3332H20.8114C19.804 63.3281 18.8392 62.942 18.1258 62.2585C17.4125 61.575 17.008 60.649 17 59.6811C17 46.0673 27.8528 45.9121 27.9667 45.9121C28.0806 45.9121 38.9521 46.0754 38.9521 59.6811Z" fill="#09304D"/>
<path d="M62.9 59.1276C62.8031 51.3056 60.4945 45.5301 56.0116 41.9776C53.5826 40.0424 50.5935 38.8707 47.4487 38.6211H46.7976C43.6529 38.8712 40.664 40.0428 38.2347 41.9776C33.7518 45.5513 31.4449 51.3284 31.3463 59.1488C31.3153 59.3248 31.2994 59.5029 31.2987 59.6813C31.3197 60.6367 31.7295 61.5462 32.4403 62.2148C33.151 62.8834 34.1061 63.2578 35.1008 63.2578C36.0954 63.2578 37.0505 62.8834 37.7612 62.2148C38.472 61.5462 38.8818 60.6367 38.9028 59.6813C38.9028 46.7861 46.1176 45.9433 47.141 45.896C48.161 45.958 55.3792 46.7861 55.3792 59.6813C55.381 60.6494 55.7821 61.5773 56.4945 62.2618C57.207 62.9464 58.1728 63.3317 59.1804 63.3334C59.6714 63.3383 60.1584 63.2485 60.6125 63.0692C61.0667 62.89 61.4788 62.6249 61.8244 62.2898C62.17 61.9547 62.4421 61.5564 62.6245 61.1184C62.8069 60.6804 62.896 60.2117 62.8864 59.7401C62.9112 59.5368 62.9158 59.3317 62.9 59.1276Z" fill="#EE4A23"/>
<path d="M47.1257 37.1683C48.7396 37.1683 50.3172 36.7085 51.6592 35.847C53.0011 34.9855 54.0469 33.7611 54.6646 32.3285C55.2822 30.896 55.4438 29.3196 55.1289 27.7988C54.8141 26.278 54.0369 24.881 52.8957 23.7846C51.7545 22.6881 50.3005 21.9414 48.7176 21.6389C47.1348 21.3364 45.494 21.4917 44.003 22.0851C42.512 22.6785 41.2375 23.6833 40.3409 24.9726C39.4443 26.2619 38.9657 27.7777 38.9657 29.3283C38.9657 31.4076 39.8254 33.4017 41.3557 34.872C42.886 36.3423 44.9615 37.1683 47.1257 37.1683Z" fill="#059E9E"/>
<path d="M50.9593 42.2566C50.9566 43.2193 50.5598 44.1422 49.8545 44.826C49.1492 45.5097 48.1922 45.8993 47.1904 45.9104C46.881 45.9251 38.9352 46.2534 38.9352 59.6941C38.9459 60.1803 38.8554 60.6637 38.6692 61.1159C38.4829 61.5681 38.2045 61.98 37.8504 62.3275C37.4963 62.675 37.0736 62.9511 36.607 63.1396C36.1403 63.328 35.6393 63.4251 35.1331 63.4251C34.6269 63.4251 34.1259 63.328 33.6592 63.1396C33.1926 62.9511 32.7699 62.675 32.4158 62.3275C32.0617 61.98 31.7833 61.5681 31.597 61.1159C31.4108 60.6637 31.3203 60.1803 31.3311 59.6941C31.3314 59.5161 31.3479 59.3385 31.3803 59.1633C31.4772 51.3429 33.7841 45.5511 38.2705 41.9904C40.6991 40.0556 43.6875 38.884 46.8317 38.6339C46.864 38.6339 47.0595 38.6192 47.0595 38.6192H47.1564C47.2382 38.6185 47.32 38.6234 47.4011 38.6339C48.3635 38.6873 49.2681 39.0922 49.9296 39.7658C50.5912 40.4394 50.9596 41.3305 50.9593 42.2566Z" fill="#F79722"/>
<path d="M152.32 67.5863C152.32 67.0539 152.458 66.9199 153.014 66.9199H153.248C153.802 66.9199 153.942 67.0539 153.942 67.5863V69.8501C154.338 69.4304 155.02 69.169 155.836 69.169C156.825 69.169 157.94 69.61 157.94 71.227V74.626C157.94 75.1585 157.801 75.2924 157.247 75.2924H157.009C156.454 75.2924 156.317 75.1585 156.317 74.626V71.5063C156.317 70.8399 155.921 70.6439 155.276 70.6439C154.559 70.6439 153.938 70.92 153.938 72.0911V74.6293C153.938 75.1617 153.801 75.2957 153.247 75.2957H153C152.446 75.2957 152.306 75.1617 152.306 74.6293L152.32 67.5863Z" fill="#9CABB7"/>
<path d="M160.771 73.026C160.771 73.6369 160.956 73.9717 161.971 73.9717C162.986 73.9717 163.147 73.6369 163.147 73.026V69.9848C163.147 69.4507 163.285 69.3184 163.839 69.3184H164.074C164.628 69.3184 164.767 69.4507 164.767 69.9848V73.0244C164.767 74.6234 163.917 75.4417 161.969 75.4417C160.099 75.4417 159.147 74.5924 159.147 73.0244V69.9848C159.147 69.4507 159.287 69.3184 159.841 69.3184H160.075C160.631 69.3184 160.769 69.4507 160.769 69.9848L160.771 73.026Z" fill="#9CABB7"/>
<path d="M165.983 67.5863C165.983 67.0539 166.122 66.9199 166.677 66.9199H166.899C167.453 66.9199 167.593 67.0539 167.593 67.5863V69.8501C167.914 69.4304 168.434 69.169 169.293 69.169C171.013 69.169 171.892 70.149 171.892 71.8608V72.8195C171.892 74.6979 170.791 75.4329 168.934 75.4329C167.299 75.4329 165.988 74.6913 165.988 72.8195L165.983 67.5863ZM170.267 71.8232C170.267 71.0572 170.056 70.639 168.941 70.639C167.826 70.639 167.591 71.0572 167.591 71.8232V72.7803C167.591 73.5464 167.827 73.9661 168.941 73.9661C170.082 73.9661 170.267 73.5464 170.267 72.7803V71.8232Z" fill="#9CABB7"/>
<path d="M176.346 73.8871C176.061 73.9363 175.771 73.9604 175.481 73.9589C175.023 73.9589 174.716 73.7646 174.7 73.2027C174.709 73.1723 174.713 73.141 174.712 73.1096V70.7821H176.12C176.674 70.7821 176.812 70.6482 176.812 70.1157V69.9834C176.812 69.4493 176.674 69.317 176.12 69.317H174.721V68.4187C174.721 67.8862 174.581 67.7539 174.027 67.7539H173.805C173.25 67.7539 173.111 67.8862 173.111 68.4187V69.2353L173.094 69.3105V73.1406C173.094 73.2495 173.097 73.3541 173.104 73.4542C173.102 73.5645 173.117 73.6745 173.147 73.7809C173.373 75.0222 174.292 75.4257 175.482 75.4257C175.773 75.4337 176.063 75.4096 176.348 75.3538C176.893 75.246 177.028 75.0435 177.028 74.5045V74.3722C177.028 73.8381 176.888 73.7858 176.348 73.8822" fill="#9CABB7"/>
<path d="M183.26 72.2233C183.185 72.7737 183.025 72.8766 182.456 72.8766H179.311V73.0563C179.311 73.6786 179.782 73.966 180.933 73.966C181.436 73.96 181.938 73.9053 182.43 73.8027C182.976 73.6949 183.087 73.8386 183.087 74.3776V74.5099C183.087 75.0424 182.976 75.1633 182.43 75.289C181.935 75.3954 181.428 75.4474 180.921 75.4442C178.729 75.4442 177.691 74.6782 177.691 72.8309V71.8672C177.691 70.3237 178.422 69.1738 180.581 69.1738C182.383 69.1738 183.292 70.0591 183.292 71.7594C183.294 71.9155 183.285 72.0715 183.267 72.2265M179.318 71.6173H181.757V71.436C181.757 70.8382 181.347 70.5279 180.531 70.5279C179.715 70.5279 179.318 70.8382 179.318 71.436V71.6173Z" fill="#9CABB7"/>
<path d="M184.37 67.5863C184.37 67.0539 184.51 66.9199 185.064 66.9199H185.283C185.839 66.9199 185.977 67.0539 185.977 67.5863V73.1397C185.977 73.762 186.147 73.9384 186.522 73.9384H186.584C186.907 73.9384 187 74.0119 187 74.4888V74.7175C187 75.196 186.901 75.3267 186.584 75.3822C186.462 75.4051 186.337 75.4133 186.213 75.4067C185.161 75.4067 184.368 74.8449 184.368 73.4794L184.37 67.5863Z" fill="#9CABB7"/>
<path d="M142.504 72.7193C141.892 72.2799 141.591 71.8144 141.549 71.3555H139.201V74.7544C139.201 76.5642 139.998 76.8859 141.071 76.1036L144.078 73.8806L142.504 72.7193Z" fill="#9CABB7"/>
<path d="M149.539 71.3555H141.998C142.054 71.754 142.327 72.1542 142.858 72.538L147.676 76.1134C148.745 76.8876 149.546 76.5723 149.546 74.7642L149.539 71.3555Z" fill="#9CABB7"/>
<path d="M147.676 66.254L144.639 68.508L146.181 69.6514C146.788 70.0858 147.089 70.5497 147.135 71.0054H149.541V67.6113C149.541 65.8016 148.742 65.488 147.671 66.2606" fill="#9CABB7"/>
<path d="M145.889 69.824L141.069 66.2535C140 65.4793 139.199 65.7946 139.199 67.6027V70.9951H146.744C146.685 70.5949 146.404 70.1948 145.886 69.8191" fill="#9CABB7"/>
<path d="M116.321 69.7757V69.1844C116.321 67.8892 117.033 67.4221 118.23 67.4221C118.458 67.4198 118.685 67.4367 118.91 67.4727C119.28 67.5446 119.364 67.6246 119.364 67.9627V68.0852C119.373 68.1445 119.369 68.2048 119.353 68.2626C119.337 68.3204 119.309 68.3745 119.27 68.4217C119.153 68.5131 118.738 68.4119 118.305 68.4119C117.699 68.4119 117.404 68.6454 117.404 69.1044V69.7773H118.815C119.185 69.7773 119.258 69.8476 119.258 70.2053V70.3261C119.258 70.6838 119.185 70.7541 118.815 70.7541H117.404V74.3719C117.404 74.7378 117.307 74.8309 116.926 74.8309H116.799C116.416 74.8309 116.321 74.7378 116.321 74.3719V69.7757Z" fill="#9CABB7"/>
<path d="M121.074 74.3714C121.074 74.7373 120.979 74.8304 120.596 74.8304H120.459C120.076 74.8304 119.983 74.7373 119.983 74.3714V71.4674C119.983 70.2696 120.65 69.6707 121.985 69.6707C122.056 69.6683 122.127 69.6715 122.198 69.6805C122.548 69.7213 122.643 69.803 122.643 70.1591V70.3028C122.643 70.6393 122.57 70.7095 122.198 70.6589C122.127 70.6499 122.056 70.6466 121.985 70.6491C121.275 70.6491 121.074 70.9235 121.074 71.5458V74.3714Z" fill="#9CABB7"/>
<path d="M123.058 72.7419V71.8681C123.058 70.4422 123.853 69.668 125.497 69.668C127.184 69.668 127.915 70.4013 127.915 71.8681V72.7452C127.915 74.1613 127.121 74.9453 125.497 74.9453C123.801 74.942 123.058 74.2086 123.058 72.7419ZM126.82 71.8681C126.82 71.0138 126.522 70.6463 125.494 70.6463C124.465 70.6463 124.148 71.0138 124.148 71.8681V72.7452C124.148 73.5912 124.445 73.9571 125.494 73.9571C126.543 73.9571 126.82 73.601 126.82 72.7452V71.8681Z" fill="#9CABB7"/>
<path d="M130.05 74.3713C130.05 74.7372 129.955 74.8303 129.572 74.8303H129.435C129.052 74.8303 128.957 74.7372 128.957 74.3713V71.6404C128.957 70.3256 129.678 69.6641 131.111 69.6641C131.884 69.6641 132.415 69.9091 132.702 70.4089C132.988 69.9091 133.516 69.6641 134.292 69.6641C135.777 69.6641 136.434 70.337 136.434 71.6404V74.3713C136.434 74.7372 136.338 74.8303 135.956 74.8303H135.818C135.437 74.8303 135.342 74.7372 135.342 74.3713V71.6404C135.342 70.9479 135.108 70.6424 134.292 70.6424C133.476 70.6424 133.221 70.9479 133.221 71.6404V74.3713C133.221 74.7372 133.125 74.8303 132.743 74.8303H132.637C132.257 74.8303 132.16 74.7372 132.16 74.3713V71.6404C132.16 70.9479 131.927 70.6424 131.111 70.6424C130.295 70.6424 130.05 70.9479 130.05 71.6404V74.3713Z" fill="#9CABB7"/>
</svg>
