<svg width="124" height="42" viewBox="0 0 124 42" fill="none" xmlns="http://www.w3.org/2000/svg">
<path d="M98.2012 34.6328C98.2012 34.2328 98.3012 34.1328 98.7012 34.1328H98.9012C99.3012 34.1328 99.4012 34.2328 99.4012 34.6328V36.3328C99.7012 36.0328 100.201 35.8328 100.801 35.8328C101.501 35.8328 102.301 36.1328 102.301 37.3328V39.8328C102.301 40.2328 102.201 40.3328 101.801 40.3328H101.601C101.201 40.3328 101.101 40.2328 101.101 39.8328V37.5328C101.101 37.0328 100.801 36.9328 100.401 36.9328C99.9012 36.9328 99.4012 37.1328 99.4012 38.0328V39.9328C99.4012 40.3328 99.3012 40.4328 98.9012 40.4328H98.7012C98.3012 40.4328 98.2012 40.3328 98.2012 39.9328V34.6328Z" fill="white" fill-opacity="0.2"/>
<path d="M104.301 38.7336C104.301 39.2336 104.401 39.4336 105.201 39.4336C105.901 39.4336 106.001 39.1336 106.001 38.7336V36.4336C106.001 36.0336 106.101 35.9336 106.501 35.9336H106.701C107.101 35.9336 107.201 36.0336 107.201 36.4336V38.7336C107.201 39.9336 106.601 40.5336 105.201 40.5336C103.901 40.5336 103.201 39.9336 103.201 38.7336V36.4336C103.201 36.0336 103.301 35.9336 103.701 35.9336H103.901C104.301 35.9336 104.401 36.0336 104.401 36.4336L104.301 38.7336Z" fill="white" fill-opacity="0.2"/>
<path d="M108.102 34.6328C108.102 34.2328 108.202 34.1328 108.602 34.1328H108.802C109.202 34.1328 109.302 34.2328 109.302 34.6328V36.3328C109.502 36.0328 109.902 35.8328 110.502 35.8328C111.702 35.8328 112.402 36.5328 112.402 37.8328V38.5328C112.402 39.9328 111.602 40.5328 110.302 40.5328C109.102 40.5328 108.202 39.9328 108.202 38.5328V34.6328H108.102ZM111.202 37.8328C111.202 37.2328 111.002 36.9328 110.202 36.9328C109.402 36.9328 109.202 37.2328 109.202 37.8328V38.5328C109.202 39.1328 109.402 39.4328 110.202 39.4328C111.002 39.4328 111.202 39.1328 111.202 38.5328V37.8328Z" fill="white" fill-opacity="0.2"/>
<path d="M115.502 39.432C115.302 39.432 115.102 39.532 114.902 39.532C114.602 39.532 114.402 39.432 114.302 38.932C114.302 38.932 114.302 38.932 114.302 38.832V37.132H115.302C115.702 37.132 115.802 37.032 115.802 36.632V36.532C115.802 36.132 115.702 36.032 115.302 36.032H114.302V35.332C114.302 34.932 114.202 34.832 113.802 34.832H113.602C113.202 34.832 113.102 34.932 113.102 35.332V35.932V36.032V38.932C113.102 39.032 113.102 39.132 113.102 39.132C113.102 39.232 113.102 39.332 113.102 39.332C113.302 40.232 113.902 40.532 114.802 40.532C115.002 40.532 115.202 40.532 115.402 40.432C115.802 40.332 115.902 40.232 115.902 39.832V39.732C116.002 39.332 115.902 39.332 115.502 39.432Z" fill="white" fill-opacity="0.2"/>
<path d="M120.502 38.132C120.402 38.532 120.302 38.632 119.902 38.632H117.602V38.732C117.602 39.232 117.902 39.432 118.802 39.432C119.202 39.432 119.502 39.432 119.902 39.332C120.302 39.232 120.402 39.332 120.402 39.732V39.832C120.402 40.232 120.302 40.332 119.902 40.432C119.502 40.532 119.202 40.532 118.802 40.532C117.202 40.532 116.502 39.932 116.502 38.532V37.832C116.502 36.632 117.002 35.832 118.602 35.832C119.902 35.832 120.602 36.532 120.602 37.732C120.502 37.932 120.502 38.032 120.502 38.132ZM117.702 37.732H119.502V37.632C119.502 37.232 119.202 36.932 118.602 36.932C118.002 36.932 117.702 37.132 117.702 37.632V37.732Z" fill="white" fill-opacity="0.2"/>
<path d="M121.301 34.6328C121.301 34.2328 121.401 34.1328 121.801 34.1328H122.001C122.401 34.1328 122.501 34.2328 122.501 34.6328V38.8328C122.501 39.3328 122.601 39.4328 122.901 39.4328C123.101 39.4328 123.201 39.5328 123.201 39.8328V40.0328C123.201 40.4328 123.101 40.5328 122.901 40.5328C122.801 40.5328 122.701 40.5328 122.601 40.5328C121.801 40.5328 121.301 40.1328 121.301 39.1328V34.6328Z" fill="white" fill-opacity="0.2"/>
<path d="M91.2008 38.5332C90.8008 38.2332 90.5008 37.8332 90.5008 37.5332H88.8008V40.0332C88.8008 41.4332 89.4008 41.6332 90.1008 41.0332L92.3008 39.3332L91.2008 38.5332Z" fill="white" fill-opacity="0.2"/>
<path d="M96.2008 37.5332H90.8008C90.8008 37.8332 91.0008 38.1332 91.4008 38.4332L94.9008 41.1332C95.7008 41.7332 96.2008 41.4332 96.2008 40.1332V37.5332Z" fill="white" fill-opacity="0.2"/>
<path d="M94.9012 33.6314L92.7012 35.3314L93.8012 36.2314C94.2012 36.5314 94.5012 36.9314 94.5012 37.2314H96.2012V34.7314C96.2012 33.3314 95.7012 33.1314 94.9012 33.6314Z" fill="white" fill-opacity="0.2"/>
<path d="M93.6008 36.3323L90.1008 33.6323C89.3008 33.0323 88.8008 33.3323 88.8008 34.6323V37.1323H94.2008C94.2008 36.9323 94.0008 36.6323 93.6008 36.3323Z" fill="white" fill-opacity="0.2"/>
<path d="M72.3008 36.3328V35.9328C72.3008 34.9328 72.8008 34.6328 73.7008 34.6328C73.9008 34.6328 74.1008 34.6328 74.2008 34.6328C74.5008 34.7328 74.5008 34.7328 74.5008 35.0328V35.1328C74.5008 35.2328 74.5008 35.3328 74.4008 35.4328C74.3008 35.5328 74.0008 35.4328 73.7008 35.4328C73.3008 35.4328 73.1008 35.6328 73.1008 35.9328V36.4328H74.1008C74.4008 36.4328 74.4008 36.5328 74.4008 36.7328V36.8328C74.4008 37.1328 74.3008 37.1328 74.1008 37.1328H73.1008V39.8328C73.1008 40.1328 73.0008 40.1328 72.8008 40.1328H72.7008C72.4008 40.1328 72.4008 40.0328 72.4008 39.8328V37.1328V36.3328H72.3008Z" fill="white" fill-opacity="0.2"/>
<path d="M75.7 39.7328C75.7 40.0328 75.6 40.0328 75.4 40.0328H75.3C75 40.0328 75 39.9328 75 39.7328V37.5328C75 36.6328 75.5 36.1328 76.4 36.1328C76.5 36.1328 76.5 36.1328 76.6 36.1328C76.9 36.1328 76.9 36.2328 76.9 36.5328V36.6328C76.9 36.9328 76.8 36.9328 76.6 36.9328C76.6 36.9328 76.5 36.9328 76.4 36.9328C75.9 36.9328 75.7 37.1328 75.7 37.6328V39.7328Z" fill="white" fill-opacity="0.2"/>
<path d="M77.2012 38.5324V37.8324C77.2012 36.7324 77.8012 36.2324 79.0012 36.2324C80.2012 36.2324 80.7012 36.7324 80.7012 37.8324V38.5324C80.7012 39.6324 80.1012 40.1324 79.0012 40.1324C77.7012 40.2324 77.2012 39.6324 77.2012 38.5324ZM79.9012 37.8324C79.9012 37.2324 79.7012 36.9324 78.9012 36.9324C78.2012 36.9324 77.9012 37.2324 77.9012 37.8324V38.5324C77.9012 39.1324 78.1012 39.4324 78.9012 39.4324C79.6012 39.4324 79.9012 39.1324 79.9012 38.5324V37.8324Z" fill="white" fill-opacity="0.2"/>
<path d="M82.2 39.7324C82.2 40.0324 82.1 40.0324 81.9 40.0324H81.8C81.5 40.0324 81.5 39.9324 81.5 39.7324V37.7324C81.5 36.7324 82 36.2324 83.1 36.2324C83.7 36.2324 84 36.4324 84.2 36.8324C84.4 36.4324 84.8 36.2324 85.3 36.2324C86.4 36.2324 86.8 36.7324 86.8 37.7324V39.7324C86.8 40.0324 86.7 40.0324 86.5 40.0324H86.4C86.1 40.0324 86.1 39.9324 86.1 39.7324V37.7324C86.1 37.2324 85.9 37.0324 85.3 37.0324C84.7 37.0324 84.5 37.2324 84.5 37.7324V39.7324C84.5 40.0324 84.4 40.0324 84.2 40.0324H84.1C83.8 40.0324 83.8 39.9324 83.8 39.7324V37.7324C83.8 37.2324 83.6 37.0324 83 37.0324C82.4 37.0324 82.2 37.2324 82.2 37.7324V39.7324Z" fill="white" fill-opacity="0.2"/>
<path d="M49.4 20.8328L52.5 25.5328C53.1 26.4328 53 26.7328 51.9 26.7328H51C49.9 26.7328 49.5 26.5328 48.8 25.5328L45.9 21.0328H43.7V25.2328C43.7 26.3328 43.4 26.6328 42.3 26.6328H41.9C40.8 26.6328 40.5 26.3328 40.5 25.2328V14.0328C40.5 12.0328 41.4 11.1328 43.4 11.1328H47.3C50.8 11.1328 52.6 12.8328 52.6 16.1328C52.6 18.7328 51.5 20.3328 49.4 20.8328ZM44.4 14.1328C43.9 14.1328 43.7 14.3328 43.7 14.8328V18.0328H47.3C48.7 18.0328 49.4 17.4328 49.4 16.0328C49.4 14.7328 48.8 14.0328 47.3 14.0328H44.4V14.1328Z" fill="white" fill-opacity="0.2"/>
<path d="M64.4 23.1336C64.4 25.7336 62.8 27.0336 59.2 27.0336C55.6 27.0336 54 25.7336 54 23.2336C54 20.7336 55.6 19.5336 58.9 19.5336H61.3V18.6336C61.3 17.4336 60.5 17.1336 58.8 17.1336C58.1 17.1336 57.4 17.1336 56.7 17.2336C55.6 17.4336 55.4 17.1336 55.4 16.1336V16.0336C55.4 15.0336 55.7 14.7336 56.7 14.5336C57.3 14.4336 57.9 14.4336 58.6 14.4336C62.4 14.4336 64.4 15.6336 64.4 18.5336V23.1336ZM61.3 21.8336H58.8C57.7 21.8336 57.1 22.2336 57.1 23.1336C57.2 24.3336 58 24.4336 59.1 24.3336C60.3 24.3336 61.1 24.2336 61.2 22.9336V21.8336H61.3Z" fill="white" fill-opacity="0.2"/>
<path d="M66.9996 9.83359C67.6996 9.13359 68.8996 9.13359 69.5996 9.83359C70.2996 10.5336 70.2996 11.7336 69.5996 12.4336C68.8996 13.1336 67.6996 13.1336 66.9996 12.4336C66.2996 11.7336 66.2996 10.5336 66.9996 9.83359ZM66.7996 16.0336C66.7996 14.9336 67.0996 14.7336 68.0996 14.7336H68.4996C69.5996 14.7336 69.7996 15.0336 69.7996 16.0336V25.3336C69.7996 26.4336 69.4996 26.6336 68.4996 26.6336H68.0996C66.9996 26.6336 66.7996 26.3336 66.7996 25.3336V16.0336Z" fill="white" fill-opacity="0.2"/>
<path d="M72.0996 24.8336C72.0996 23.7336 72.3996 23.4336 73.3996 23.7336C74.2996 24.0336 75.3996 24.1336 76.6996 24.1336C78.0996 24.1336 78.4996 24.0336 78.4996 23.4336C78.4996 23.0336 78.2996 22.8336 76.9996 22.3336L74.7996 21.3336C73.0996 20.6336 72.2996 19.7336 72.2996 17.9336C72.2996 15.5336 73.6996 14.4336 77.1996 14.4336C78.0996 14.4336 78.9996 14.5336 79.6996 14.7336C80.7996 15.0336 80.9996 15.2336 80.9996 16.3336V16.5336C80.9996 17.6336 80.6996 17.8336 79.6996 17.6336C78.8996 17.4336 77.9996 17.3336 77.0996 17.3336C75.6996 17.3336 75.2996 17.5336 75.2996 17.9336C75.2996 18.3336 75.4996 18.4336 76.2996 18.7336L78.7996 19.7336C80.6996 20.4336 81.5996 21.4336 81.5996 23.3336C81.5996 25.8336 80.0996 26.9336 76.3996 26.9336C75.1996 26.9336 74.1996 26.8336 73.3996 26.6336C72.2996 26.3336 72.0996 26.1336 72.0996 25.0336V24.8336Z" fill="white" fill-opacity="0.2"/>
<path d="M94.2008 20.5332C94.1008 21.6332 93.8008 21.8332 92.6008 21.8332H86.5008V22.2332C86.5008 23.4332 87.4008 24.0332 89.6008 24.0332C90.5008 24.0332 91.4008 23.9332 92.5008 23.7332C93.5008 23.5332 93.8008 23.7332 93.8008 24.8332V25.1332C93.8008 26.2332 93.6008 26.4332 92.5008 26.7332C91.7008 26.9332 90.8008 27.0332 89.6008 27.0332C85.3008 27.0332 83.3008 25.4332 83.3008 21.8332V19.9332C83.3008 16.3332 85.2008 14.5332 88.9008 14.5332C92.4008 14.5332 94.1008 16.2332 94.1008 19.7332C94.3008 19.9332 94.2008 20.2332 94.2008 20.5332ZM86.6008 19.3332H91.3008V18.9332C91.3008 17.7332 90.5008 17.1332 88.9008 17.1332C87.3008 17.1332 86.6008 17.7332 86.6008 18.9332V19.3332Z" fill="white" fill-opacity="0.2"/>
<path d="M96.5996 12.5328C96.5996 11.4328 96.8996 11.1328 97.9996 11.1328H98.3996C99.4996 11.1328 99.7996 11.4328 99.7996 12.5328V21.2328C99.7996 23.0328 100.8 24.0328 102.9 24.0328C104.9 24.0328 106 23.1328 106 21.2328V12.5328C106 11.4328 106.3 11.1328 107.4 11.1328H107.8C108.9 11.1328 109.2 11.4328 109.2 12.5328V21.2328C109.2 25.2328 106.8 27.0328 102.9 27.0328C98.9996 27.0328 96.5996 25.2328 96.5996 21.2328V12.5328Z" fill="white" fill-opacity="0.2"/>
<path d="M111.801 19.7332C111.801 16.1332 114.101 14.5332 117.501 14.5332C121.301 14.5332 123.201 16.2332 123.201 19.7332V21.6332C123.201 25.1332 121.501 27.0332 118.201 27.0332C116.701 27.0332 115.601 26.5332 114.901 25.6332V30.1332C114.901 31.2332 114.601 31.4332 113.601 31.4332H113.201C112.101 31.4332 111.901 31.1332 111.901 30.1332V19.7332H111.801ZM120.101 19.7332C120.101 18.0332 119.601 17.3332 117.501 17.3332C115.501 17.3332 114.901 18.0332 114.901 19.7332V21.6332C114.901 23.3332 115.501 24.0332 117.501 24.0332C119.501 24.0332 120.101 23.3332 120.101 21.6332V19.7332Z" fill="white" fill-opacity="0.2"/>
<path d="M8.80039 17.5324C10.7004 17.5324 12.2004 16.0324 12.2004 14.1324C12.2004 12.2324 10.7004 10.7324 8.80039 10.7324C6.90039 10.7324 5.40039 12.2324 5.40039 14.1324C5.40039 15.9324 6.90039 17.5324 8.80039 17.5324Z" fill="white" fill-opacity="0.2"/>
<path d="M11.9008 19.3336C11.1008 21.0336 10.6008 22.9336 10.3008 25.1336C10.0008 24.6336 9.60078 24.3336 9.20078 24.0336C9.00078 23.9336 8.90078 23.9336 8.70078 23.9336C8.50078 23.9336 8.30078 23.9336 8.20078 24.0336C7.00078 24.6336 6.30078 26.2336 6.30078 28.6336C6.30078 30.1336 5.10078 31.3336 3.70078 31.4336H3.50078C2.80078 31.4336 2.10078 31.1336 1.60078 30.6336C1.10078 30.1336 0.800781 29.4336 0.800781 28.7336C0.800781 18.5336 8.60078 18.4336 8.70078 18.4336C8.70078 18.4336 10.3008 18.4336 11.9008 19.3336Z" fill="white" fill-opacity="0.2"/>
<path d="M33.9004 28.7332C33.9004 30.2332 32.7004 31.4332 31.2004 31.4332C29.7004 31.4332 28.5004 30.2332 28.5004 28.7332C28.5004 22.3332 26.2004 19.8332 24.4004 18.9332C25.5004 18.3332 26.3004 17.0332 26.3004 15.6332C26.3004 14.8332 26.1004 14.1332 25.7004 13.5332C26.7004 13.9332 27.8004 14.5332 28.9004 15.4332C32.1004 18.1332 33.8004 22.4332 33.9004 28.3332C33.9004 28.5332 33.9004 28.6332 33.9004 28.7332Z" fill="white" fill-opacity="0.2"/>
<path d="M22.5016 11.8332C25.7016 11.8332 28.4016 9.2332 28.4016 5.9332C28.4016 2.7332 25.8016 0.0332031 22.5016 0.0332031C19.3016 0.0332031 16.6016 2.6332 16.6016 5.9332C16.6016 9.2332 19.2016 11.8332 22.5016 11.8332Z" fill="white" fill-opacity="0.2"/>
<path d="M25.3008 15.7336C25.3008 17.2336 24.1008 18.4336 22.6008 18.4336C22.4008 18.4336 16.7008 18.7336 16.7008 28.7336C16.7008 30.2336 15.5008 31.4336 14.0008 31.4336C12.5008 31.4336 11.3008 30.2336 11.3008 28.7336C11.3008 28.6336 11.3008 28.4336 11.3008 28.3336C11.4008 22.4336 13.0008 18.1336 16.3008 15.4336C18.9008 13.3336 21.7008 12.9336 22.5008 12.9336H22.7008H22.8008C22.8008 12.9336 22.9008 12.9336 23.0008 12.9336C24.1008 13.0336 25.3008 14.2336 25.3008 15.7336Z" fill="white" fill-opacity="0.2"/>
</svg>
