<svg xmlns="http://www.w3.org/2000/svg" width="104" height="36" viewBox="0 0 104 36" fill="none">
  <g clip-path="url(#clip0_14675_27449)">
    <path d="M41.2945 18.0848L43.9285 22.0775C44.4383 22.8421 44.3533 23.0969 43.4187 23.0969H42.654C41.7193 23.0969 41.3795 22.927 40.7847 22.0775L38.3207 18.2547H36.4514V21.8226C36.4514 22.7571 36.1965 23.012 35.2618 23.012H34.922C33.9873 23.012 33.7324 22.7571 33.7324 21.8226V12.3081C33.7324 10.609 34.4971 9.84448 36.1965 9.84448H39.5102C42.4841 9.84448 44.0135 11.2887 44.0135 14.0921C44.0135 16.3008 43.0788 17.66 41.2945 18.0848ZM37.0461 12.393C36.6213 12.393 36.4514 12.5629 36.4514 12.9877V15.7061H39.5102C40.6997 15.7061 41.2945 15.1964 41.2945 14.0071C41.2945 12.9027 40.7847 12.3081 39.5102 12.3081H37.0461V12.393Z" fill="#092F4D"/>
    <path d="M54.0397 20.0387C54.0397 22.2475 52.6802 23.3518 49.6214 23.3518C46.5626 23.3518 45.2031 22.2475 45.2031 20.1237C45.2031 17.9999 46.5626 16.9805 49.3665 16.9805H51.4057V16.2159C51.4057 15.1965 50.726 14.9416 49.2816 14.9416C48.6868 14.9416 48.092 14.9416 47.4972 15.0266C46.5626 15.1965 46.3927 14.9416 46.3927 14.0921V14.0072C46.3927 13.1577 46.6476 12.9028 47.4972 12.7329C48.007 12.6479 48.5168 12.6479 49.1116 12.6479C52.3404 12.6479 54.0397 13.6674 54.0397 16.131V20.0387ZM51.4057 18.9344H49.2816C48.3469 18.9344 47.8371 19.2742 47.8371 20.0387C47.9221 21.0581 48.6018 21.1431 49.5365 21.0581C50.5561 21.0581 51.2358 20.9732 51.3208 19.8688V18.9344H51.4057Z" fill="#092F4D"/>
    <path d="M56.2488 8.74018C56.8436 8.14552 57.8632 8.14552 58.458 8.74018C59.0527 9.33484 59.0527 10.3543 58.458 10.9489C57.8632 11.5436 56.8436 11.5436 56.2488 10.9489C55.654 10.3543 55.654 9.33484 56.2488 8.74018ZM56.0789 14.0072C56.0789 13.0727 56.3338 12.9028 57.1835 12.9028H57.5233C58.458 12.9028 58.6279 13.1577 58.6279 14.0072V21.9077C58.6279 22.8421 58.373 23.012 57.5233 23.012H57.1835C56.2488 23.012 56.0789 22.7572 56.0789 21.9077V14.0072Z" fill="#092F4D"/>
    <path d="M60.582 21.4829C60.582 20.5484 60.8369 20.2936 61.6866 20.5484C62.4513 20.8033 63.386 20.8882 64.4905 20.8882C65.6801 20.8882 66.0199 20.8033 66.0199 20.2936C66.0199 19.9538 65.85 19.7839 64.7454 19.3591L62.8761 18.5096C61.4317 17.9149 60.752 17.1504 60.752 15.6212C60.752 13.5824 61.9415 12.6479 64.9154 12.6479C65.6801 12.6479 66.4448 12.7329 67.0395 12.9028C67.9742 13.1577 68.1441 13.3276 68.1441 14.262V14.4319C68.1441 15.3664 67.8892 15.5363 67.0395 15.3664C66.3598 15.1965 65.5951 15.1115 64.8304 15.1115C63.6409 15.1115 63.301 15.2814 63.301 15.6212C63.301 15.9611 63.4709 16.046 64.1507 16.3009L66.2748 17.1504C67.8892 17.745 68.6539 18.5946 68.6539 20.2086C68.6539 22.3324 67.3794 23.2669 64.2356 23.2669C63.216 23.2669 62.3663 23.1819 61.6866 23.012C60.752 22.7572 60.582 22.5873 60.582 21.6528V21.4829Z" fill="#092F4D"/>
    <path d="M79.3591 17.83C79.2741 18.7645 79.0192 18.9344 77.9996 18.9344H72.8166V19.2742C72.8166 20.2936 73.5813 20.8033 75.4506 20.8033C76.2153 20.8033 76.98 20.7183 77.9146 20.5484C78.7643 20.3785 79.0192 20.5484 79.0192 21.4829V21.7378C79.0192 22.6722 78.8493 22.8421 77.9146 23.097C77.2349 23.2669 76.4702 23.3518 75.4506 23.3518C71.797 23.3518 70.0977 21.9926 70.0977 18.9344V17.3203C70.0977 14.262 71.712 12.7329 74.8558 12.7329C77.8297 12.7329 79.2741 14.1771 79.2741 17.1504C79.4441 17.3203 79.3591 17.5751 79.3591 17.83ZM72.9016 16.8106H76.895V16.4708C76.895 15.4514 76.2153 14.9416 74.8558 14.9416C73.4963 14.9416 72.9016 15.4514 72.9016 16.4708V16.8106Z" fill="#092F4D"/>
    <path d="M81.3984 11.0338C81.3984 10.0993 81.6533 9.84448 82.588 9.84448H82.9278C83.8625 9.84448 84.1174 10.0993 84.1174 11.0338V18.4246C84.1174 19.9537 84.9671 20.8032 86.7514 20.8032C88.4507 20.8032 89.3854 20.0387 89.3854 18.4246V11.0338C89.3854 10.0993 89.6403 9.84448 90.5749 9.84448H90.9148C91.8494 9.84448 92.1043 10.0993 92.1043 11.0338V18.4246C92.1043 21.8226 90.0651 23.3518 86.7514 23.3518C83.4376 23.3518 81.3984 21.8226 81.3984 18.4246V11.0338Z" fill="#092F4D"/>
    <path d="M94.3145 17.1504C94.3145 14.0921 96.2687 12.7329 99.1576 12.7329C102.386 12.7329 104.001 14.1771 104.001 17.1504V18.7645C104.001 21.7378 102.556 23.3518 99.7524 23.3518C98.4779 23.3518 97.5432 22.9271 96.9484 22.1625V25.9853C96.9484 26.9198 96.6935 27.0897 95.8439 27.0897H95.504C94.5694 27.0897 94.3994 26.8349 94.3994 25.9853V17.1504H94.3145ZM101.367 17.1504C101.367 15.7062 100.942 15.1116 99.1576 15.1116C97.4582 15.1116 96.9484 15.7062 96.9484 17.1504V18.7645C96.9484 20.2086 97.4582 20.8033 99.1576 20.8033C100.857 20.8033 101.367 20.2086 101.367 18.7645V17.1504Z" fill="#092F4D"/>
    <path d="M6.79709 15.2816C8.41147 15.2816 9.68598 14.0073 9.68598 12.3932C9.68598 10.7792 8.41147 9.50488 6.79709 9.50488C5.18271 9.50488 3.9082 10.7792 3.9082 12.3932C3.9082 13.9224 5.18271 15.2816 6.79709 15.2816Z" fill="#F69621"/>
    <path d="M13.4248 24.7961C13.4248 26.0704 12.4052 27.0898 11.1307 27.0898H11.0458C9.77124 27.0049 8.8366 25.9855 8.8366 24.7112C8.8366 22.6724 8.24183 21.2282 7.22222 20.8034C7.05229 20.7185 6.88235 20.7185 6.79739 20.7185C6.62745 20.7185 6.45752 20.7185 6.37255 20.8034C5.35294 21.3131 4.75817 22.6724 4.75817 24.7112C4.75817 25.9855 3.73856 27.0049 2.54902 27.0898H2.29412C1.69935 27.0898 1.10458 26.835 0.679739 26.4102C0.254902 25.9855 0 25.3908 0 24.7961C0 16.1311 6.62745 16.0461 6.71242 16.0461C6.79739 16.0461 13.4248 16.1311 13.4248 24.7961Z" fill="#092F4D"/>
    <path d="M28.1235 24.4563C28.0386 19.4442 26.6791 15.7913 23.8752 13.4976C21.666 11.7136 19.2869 11.3738 18.6072 11.3738H18.5222H18.4373H18.3523H18.2673H18.1824C17.5026 11.3738 15.1235 11.7136 12.9144 13.4976C10.1954 15.7913 8.75098 19.4442 8.66602 24.4563C8.66602 24.5413 8.66602 24.7112 8.66602 24.7961C8.66602 26.0704 9.68562 27.0898 10.9601 27.0898C12.2346 27.0898 13.2543 26.0704 13.2543 24.7961C13.2543 16.5558 17.6726 16.0461 18.2673 16.0461C18.8621 16.0461 23.2804 16.6408 23.2804 24.7961C23.2804 26.0704 24.3 27.0898 25.5745 27.0898C26.849 27.0898 27.8686 26.0704 27.8686 24.7961C28.0386 24.8811 28.1235 24.7112 28.1235 24.4563Z" fill="#EE4923"/>
    <path d="M18.4389 10.4393C21.1578 10.4393 23.4519 8.23057 23.4519 5.42718C23.4519 2.70873 21.2428 0.415039 18.4389 0.415039C15.7199 0.415039 13.4258 2.62378 13.4258 5.42718C13.4258 8.23057 15.6349 10.4393 18.4389 10.4393Z" fill="#009D9D"/>
    <path d="M20.8173 13.7524C20.8173 15.0267 19.7977 16.0461 18.5232 16.0461C18.3532 16.0461 13.5101 16.301 13.5101 24.7961C13.5101 26.0704 12.4905 27.0898 11.216 27.0898C9.94148 27.0898 8.92188 26.0704 8.92188 24.7961C8.92188 24.7112 8.92188 24.5413 8.92188 24.4563C9.00684 19.4442 10.3663 15.7913 13.1702 13.4976C15.3794 11.7136 17.7585 11.3738 18.4382 11.3738H18.6081H18.6931C18.6931 11.3738 18.7781 11.3738 18.8631 11.3738C19.7977 11.4587 20.8173 12.4781 20.8173 13.7524Z" fill="#F69621"/>
  </g>
  <defs>
    <clipPath id="clip0_14675_27449">
      <rect width="104" height="35" fill="white" transform="translate(0 0.5)"/>
    </clipPath>
  </defs>
</svg>