<svg width="40" height="40" viewBox="0 0 40 40" fill="none" xmlns="http://www.w3.org/2000/svg">
<rect x="0.5" y="0.5" width="39" height="39" rx="19.5" fill="#007AFF"/>
<path d="M19.9914 10.8962C16.6764 10.8962 13.9824 13.5903 13.9824 16.9053V19.7996C13.9824 20.4105 13.722 21.3419 13.4115 21.8627L12.2598 23.7756C11.5487 24.9573 12.0395 26.2693 13.3414 26.71C17.6579 28.1521 22.3149 28.1521 26.6314 26.71C27.8432 26.3094 28.374 24.8772 27.713 23.7756L26.5613 21.8627C26.2608 21.3419 26.0005 20.4105 26.0005 19.7996V16.9053C26.0005 13.6003 23.2964 10.8962 19.9914 10.8962Z" fill="white"/>
<path d="M21.8442 11.1867C21.5338 11.0966 21.2133 11.0265 20.8828 10.9864C19.9213 10.8662 19 10.9363 18.1387 11.1867C18.4291 10.4456 19.1502 9.9248 19.9915 9.9248C20.8327 9.9248 21.5538 10.4456 21.8442 11.1867Z" fill="white"/>
<path d="M22.9959 27.0706C22.9959 28.723 21.6439 30.0751 19.9914 30.0751C19.1702 30.0751 18.4091 29.7346 17.8683 29.1937C17.3274 28.6529 16.9869 27.8918 16.9869 27.0706" fill="white"/>
<rect x="0.5" y="0.5" width="39" height="39" rx="19.5" stroke="white"/>
</svg>
