<svg width="48" height="46" viewBox="0 0 48 46" fill="none" xmlns="http://www.w3.org/2000/svg">
<path d="M24 18V21M24 24V24.01M16 31V18C16 17.2044 16.3161 16.4413 16.8787 15.8787C17.4413 15.3161 18.2044 15 19 15H29C29.7956 15 30.5587 15.3161 31.1213 15.8787C31.6839 16.4413 32 17.2044 32 18V24C32 24.7956 31.6839 25.5587 31.1213 26.1213C30.5587 26.6839 29.7956 27 29 27H20L16 31Z" stroke="#DB3738" stroke-width="2" stroke-linecap="round" stroke-linejoin="round"/>
<path d="M47.5 23C47.5 35.4066 36.999 45.5 24 45.5C11.001 45.5 0.5 35.4066 0.5 23C0.5 10.5934 11.001 0.5 24 0.5C36.999 0.5 47.5 10.5934 47.5 23Z" stroke="#ED1B2E"/>
</svg>
