<svg width="141" height="19" viewBox="0 0 141 19" fill="none" xmlns="http://www.w3.org/2000/svg">
<path d="M121.897 8.70833V5.9375M121.897 11.4792H121.905M121.897 15.8333C125.613 15.8333 128.626 12.8206 128.626 9.10417C128.626 5.38775 125.613 2.375 121.897 2.375C118.18 2.375 115.168 5.38775 115.168 9.10417C115.168 9.85625 115.291 10.5795 115.519 11.2548C115.604 11.5089 115.647 11.636 115.655 11.7336C115.662 11.83 115.657 11.8976 115.633 11.9913C115.609 12.0862 115.555 12.1849 115.449 12.3823L114.154 14.7791C113.969 15.121 113.877 15.2919 113.897 15.4239C113.915 15.5388 113.983 15.6399 114.082 15.7005C114.196 15.7701 114.39 15.7501 114.776 15.7101L118.83 15.2911C118.953 15.2784 119.014 15.272 119.07 15.2742C119.125 15.2763 119.164 15.2814 119.218 15.2938C119.272 15.3064 119.341 15.3328 119.478 15.3857C120.229 15.6748 121.044 15.8333 121.897 15.8333Z" stroke="#ED1B2E" stroke-width="2" stroke-linecap="round" stroke-linejoin="round"/>
<path d="M1.792 14.098C1.60533 14.098 1.46067 14.0467 1.358 13.944C1.26467 13.832 1.218 13.6827 1.218 13.496V4.718C1.218 4.522 1.26933 4.37733 1.372 4.284C1.47467 4.18133 1.61933 4.13 1.806 4.13H5.124C6.17867 4.13 6.99067 4.37733 7.56 4.872C8.12933 5.36667 8.414 6.07133 8.414 6.986C8.414 7.56467 8.28333 8.06867 8.022 8.498C7.77 8.918 7.39667 9.24 6.902 9.464C6.40733 9.67867 5.81467 9.786 5.124 9.786L5.264 9.604H5.544C5.908 9.604 6.22533 9.69733 6.496 9.884C6.76667 10.0707 7.014 10.3693 7.238 10.78L8.582 13.286C8.65667 13.4167 8.68933 13.5473 8.68 13.678C8.68 13.7993 8.638 13.902 8.554 13.986C8.47 14.0607 8.34867 14.098 8.19 14.098C8.03133 14.098 7.90067 14.0607 7.798 13.986C7.69533 13.9113 7.60667 13.804 7.532 13.664L6.006 10.836C5.79133 10.4347 5.544 10.1687 5.264 10.038C4.984 9.898 4.61533 9.828 4.158 9.828H2.366V13.496C2.366 13.6827 2.31933 13.832 2.226 13.944C2.13267 14.0467 1.988 14.098 1.792 14.098ZM2.366 8.918H4.956C5.72133 8.918 6.3 8.75933 6.692 8.442C7.084 8.11533 7.28 7.63 7.28 6.986C7.28 6.36067 7.084 5.88933 6.692 5.572C6.3 5.24533 5.72133 5.082 4.956 5.082H2.366V8.918ZM13.3448 14.126C12.6262 14.126 12.0055 13.986 11.4828 13.706C10.9695 13.4167 10.5682 13.0107 10.2788 12.488C9.99884 11.9653 9.85884 11.34 9.85884 10.612C9.85884 9.90267 9.99884 9.28667 10.2788 8.764C10.5588 8.232 10.9415 7.81667 11.4268 7.518C11.9215 7.21933 12.4908 7.07 13.1348 7.07C13.5922 7.07 14.0028 7.14933 14.3668 7.308C14.7308 7.45733 15.0388 7.67667 15.2908 7.966C15.5522 8.25533 15.7482 8.60533 15.8788 9.016C16.0188 9.42667 16.0888 9.88867 16.0888 10.402C16.0888 10.5513 16.0468 10.6633 15.9628 10.738C15.8788 10.8033 15.7575 10.836 15.5988 10.836H10.7268V10.094H15.3328L15.1088 10.276C15.1088 9.772 15.0342 9.34733 14.8848 9.002C14.7355 8.64733 14.5162 8.37667 14.2268 8.19C13.9468 8.00333 13.5922 7.91 13.1628 7.91C12.6868 7.91 12.2808 8.022 11.9448 8.246C11.6182 8.46067 11.3708 8.764 11.2028 9.156C11.0348 9.53867 10.9508 9.98667 10.9508 10.5V10.584C10.9508 11.4427 11.1562 12.096 11.5668 12.544C11.9868 12.992 12.5795 13.216 13.3448 13.216C13.6622 13.216 13.9748 13.174 14.2828 13.09C14.6002 13.006 14.9082 12.866 15.2068 12.67C15.3375 12.586 15.4542 12.5487 15.5568 12.558C15.6688 12.558 15.7575 12.5907 15.8228 12.656C15.8882 12.712 15.9302 12.7867 15.9488 12.88C15.9768 12.964 15.9675 13.0573 15.9208 13.16C15.8835 13.2627 15.8042 13.3513 15.6828 13.426C15.3748 13.65 15.0108 13.8227 14.5908 13.944C14.1708 14.0653 13.7555 14.126 13.3448 14.126ZM20.026 14.126C19.606 14.126 19.1813 14.0747 18.752 13.972C18.332 13.8693 17.94 13.692 17.576 13.44C17.4827 13.3747 17.4173 13.3 17.38 13.216C17.3427 13.1227 17.3287 13.034 17.338 12.95C17.3567 12.8567 17.394 12.7773 17.45 12.712C17.5153 12.6467 17.59 12.6093 17.674 12.6C17.7673 12.5813 17.87 12.6 17.982 12.656C18.346 12.88 18.696 13.0387 19.032 13.132C19.3773 13.216 19.718 13.258 20.054 13.258C20.586 13.258 20.9873 13.16 21.258 12.964C21.5287 12.768 21.664 12.502 21.664 12.166C21.664 11.9047 21.5753 11.6993 21.398 11.55C21.2207 11.3913 20.9407 11.27 20.558 11.186L19.284 10.906C18.696 10.7847 18.2573 10.5747 17.968 10.276C17.688 9.97733 17.548 9.59 17.548 9.114C17.548 8.694 17.6553 8.33467 17.87 8.036C18.094 7.728 18.4067 7.49 18.808 7.322C19.2093 7.154 19.676 7.07 20.208 7.07C20.6187 7.07 21.006 7.126 21.37 7.238C21.7433 7.34067 22.0793 7.50867 22.378 7.742C22.4713 7.80733 22.532 7.88667 22.56 7.98C22.5973 8.064 22.602 8.15267 22.574 8.246C22.5553 8.33 22.5133 8.40467 22.448 8.47C22.3827 8.526 22.3033 8.55867 22.21 8.568C22.1167 8.57733 22.0187 8.54933 21.916 8.484C21.636 8.29733 21.3513 8.162 21.062 8.078C20.7727 7.98467 20.488 7.938 20.208 7.938C19.6853 7.938 19.2887 8.04067 19.018 8.246C18.7473 8.45133 18.612 8.722 18.612 9.058C18.612 9.31933 18.696 9.534 18.864 9.702C19.032 9.87 19.2933 9.99133 19.648 10.066L20.922 10.332C21.5287 10.4627 21.9813 10.6727 22.28 10.962C22.588 11.242 22.742 11.6247 22.742 12.11C22.742 12.726 22.4947 13.216 22 13.58C21.5053 13.944 20.8473 14.126 20.026 14.126ZM27.5363 14.126C26.8176 14.126 26.1969 13.986 25.6743 13.706C25.1609 13.4167 24.7596 13.0107 24.4703 12.488C24.1903 11.9653 24.0503 11.34 24.0503 10.612C24.0503 9.90267 24.1903 9.28667 24.4703 8.764C24.7503 8.232 25.1329 7.81667 25.6183 7.518C26.1129 7.21933 26.6823 7.07 27.3263 7.07C27.7836 7.07 28.1943 7.14933 28.5583 7.308C28.9223 7.45733 29.2303 7.67667 29.4823 7.966C29.7436 8.25533 29.9396 8.60533 30.0703 9.016C30.2103 9.42667 30.2803 9.88867 30.2803 10.402C30.2803 10.5513 30.2383 10.6633 30.1543 10.738C30.0703 10.8033 29.9489 10.836 29.7903 10.836H24.9183V10.094H29.5243L29.3003 10.276C29.3003 9.772 29.2256 9.34733 29.0763 9.002C28.9269 8.64733 28.7076 8.37667 28.4183 8.19C28.1383 8.00333 27.7836 7.91 27.3543 7.91C26.8783 7.91 26.4723 8.022 26.1363 8.246C25.8096 8.46067 25.5623 8.764 25.3943 9.156C25.2263 9.53867 25.1423 9.98667 25.1423 10.5V10.584C25.1423 11.4427 25.3476 12.096 25.7583 12.544C26.1783 12.992 26.7709 13.216 27.5363 13.216C27.8536 13.216 28.1663 13.174 28.4743 13.09C28.7916 13.006 29.0996 12.866 29.3983 12.67C29.5289 12.586 29.6456 12.5487 29.7483 12.558C29.8603 12.558 29.9489 12.5907 30.0143 12.656C30.0796 12.712 30.1216 12.7867 30.1403 12.88C30.1683 12.964 30.1589 13.0573 30.1123 13.16C30.0749 13.2627 29.9956 13.3513 29.8743 13.426C29.5663 13.65 29.2023 13.8227 28.7823 13.944C28.3623 14.0653 27.9469 14.126 27.5363 14.126ZM32.4814 14.098C32.2948 14.098 32.1548 14.0467 32.0614 13.944C31.9681 13.8413 31.9214 13.6967 31.9214 13.51V7.672C31.9214 7.48533 31.9681 7.34533 32.0614 7.252C32.1548 7.14933 32.2901 7.098 32.4674 7.098C32.6448 7.098 32.7801 7.14933 32.8734 7.252C32.9761 7.34533 33.0274 7.48533 33.0274 7.672V8.876L32.8734 8.708C33.0694 8.16667 33.3868 7.76067 33.8254 7.49C34.2734 7.21 34.7868 7.07 35.3654 7.07C35.9068 7.07 36.3548 7.168 36.7094 7.364C37.0734 7.56 37.3441 7.85867 37.5214 8.26C37.6988 8.652 37.7874 9.15133 37.7874 9.758V13.51C37.7874 13.6967 37.7361 13.8413 37.6334 13.944C37.5401 14.0467 37.4048 14.098 37.2274 14.098C37.0408 14.098 36.8961 14.0467 36.7934 13.944C36.7001 13.8413 36.6534 13.6967 36.6534 13.51V9.828C36.6534 9.19333 36.5274 8.73133 36.2754 8.442C36.0328 8.14333 35.6408 7.994 35.0994 7.994C34.4741 7.994 33.9748 8.19 33.6014 8.582C33.2374 8.96467 33.0554 9.478 33.0554 10.122V13.51C33.0554 13.902 32.8641 14.098 32.4814 14.098ZM42.4685 14.126C41.8618 14.126 41.3298 13.9813 40.8725 13.692C40.4245 13.4027 40.0745 12.9967 39.8225 12.474C39.5798 11.942 39.4585 11.3167 39.4585 10.598C39.4585 9.87 39.5798 9.24467 39.8225 8.722C40.0745 8.19 40.4245 7.784 40.8725 7.504C41.3298 7.21467 41.8618 7.07 42.4685 7.07C43.0845 7.07 43.6118 7.224 44.0505 7.532C44.4891 7.84 44.7831 8.25533 44.9325 8.778H44.7785V4.606C44.7785 4.41933 44.8251 4.27933 44.9185 4.186C45.0211 4.08333 45.1658 4.032 45.3525 4.032C45.5298 4.032 45.6651 4.08333 45.7585 4.186C45.8611 4.27933 45.9125 4.41933 45.9125 4.606V13.51C45.9125 13.6967 45.8658 13.8413 45.7725 13.944C45.6791 14.0467 45.5391 14.098 45.3525 14.098C45.1751 14.098 45.0351 14.0467 44.9325 13.944C44.8391 13.8413 44.7925 13.6967 44.7925 13.51V12.18L44.9465 12.376C44.7971 12.908 44.4985 13.3327 44.0505 13.65C43.6118 13.9673 43.0845 14.126 42.4685 14.126ZM42.7065 13.216C43.1265 13.216 43.4951 13.1133 43.8125 12.908C44.1298 12.7027 44.3725 12.404 44.5405 12.012C44.7178 11.62 44.8065 11.1487 44.8065 10.598C44.8065 9.74867 44.6151 9.1 44.2325 8.652C43.8591 8.204 43.3505 7.98 42.7065 7.98C42.2771 7.98 41.9038 8.08267 41.5865 8.288C41.2785 8.484 41.0358 8.778 40.8585 9.17C40.6905 9.55267 40.6065 10.0287 40.6065 10.598C40.6065 11.438 40.7978 12.0867 41.1805 12.544C41.5631 12.992 42.0718 13.216 42.7065 13.216ZM52.2379 14.098C52.0513 14.098 51.9113 14.0467 51.8179 13.944C51.7246 13.8413 51.6779 13.6967 51.6779 13.51V7.672C51.6779 7.48533 51.7246 7.34533 51.8179 7.252C51.9113 7.14933 52.0466 7.098 52.2239 7.098C52.4013 7.098 52.5366 7.14933 52.6299 7.252C52.7326 7.34533 52.7839 7.48533 52.7839 7.672V8.904L52.6299 8.708C52.8073 8.18533 53.0919 7.784 53.4839 7.504C53.8853 7.21467 54.3613 7.07 54.9119 7.07C55.4906 7.07 55.9573 7.21 56.3119 7.49C56.6759 7.76067 56.9186 8.18533 57.0399 8.764H56.8299C56.9979 8.24133 57.2966 7.83067 57.7259 7.532C58.1646 7.224 58.6733 7.07 59.2519 7.07C59.7653 7.07 60.1853 7.168 60.5119 7.364C60.8479 7.56 61.0999 7.85867 61.2679 8.26C61.4359 8.652 61.5199 9.15133 61.5199 9.758V13.51C61.5199 13.6967 61.4686 13.8413 61.3659 13.944C61.2726 14.0467 61.1326 14.098 60.9459 14.098C60.7686 14.098 60.6286 14.0467 60.5259 13.944C60.4326 13.8413 60.3859 13.6967 60.3859 13.51V9.814C60.3859 9.18867 60.2786 8.73133 60.0639 8.442C59.8493 8.14333 59.4853 7.994 58.9719 7.994C58.4119 7.994 57.9686 8.19 57.6419 8.582C57.3246 8.96467 57.1659 9.48733 57.1659 10.15V13.51C57.1659 13.6967 57.1146 13.8413 57.0119 13.944C56.9186 14.0467 56.7786 14.098 56.5919 14.098C56.4146 14.098 56.2746 14.0467 56.1719 13.944C56.0786 13.8413 56.0319 13.6967 56.0319 13.51V9.814C56.0319 9.18867 55.9199 8.73133 55.6959 8.442C55.4813 8.14333 55.1219 7.994 54.6179 7.994C54.0579 7.994 53.6146 8.19 53.2879 8.582C52.9706 8.96467 52.8119 9.48733 52.8119 10.15V13.51C52.8119 13.902 52.6206 14.098 52.2379 14.098ZM66.7062 14.126C65.9875 14.126 65.3668 13.986 64.8442 13.706C64.3308 13.4167 63.9295 13.0107 63.6402 12.488C63.3602 11.9653 63.2202 11.34 63.2202 10.612C63.2202 9.90267 63.3602 9.28667 63.6402 8.764C63.9202 8.232 64.3028 7.81667 64.7882 7.518C65.2828 7.21933 65.8522 7.07 66.4962 7.07C66.9535 7.07 67.3642 7.14933 67.7282 7.308C68.0922 7.45733 68.4002 7.67667 68.6522 7.966C68.9135 8.25533 69.1095 8.60533 69.2402 9.016C69.3802 9.42667 69.4502 9.88867 69.4502 10.402C69.4502 10.5513 69.4082 10.6633 69.3242 10.738C69.2402 10.8033 69.1188 10.836 68.9602 10.836H64.0882V10.094H68.6942L68.4702 10.276C68.4702 9.772 68.3955 9.34733 68.2462 9.002C68.0968 8.64733 67.8775 8.37667 67.5882 8.19C67.3082 8.00333 66.9535 7.91 66.5242 7.91C66.0482 7.91 65.6422 8.022 65.3062 8.246C64.9795 8.46067 64.7322 8.764 64.5642 9.156C64.3962 9.53867 64.3122 9.98667 64.3122 10.5V10.584C64.3122 11.4427 64.5175 12.096 64.9282 12.544C65.3482 12.992 65.9408 13.216 66.7062 13.216C67.0235 13.216 67.3362 13.174 67.6442 13.09C67.9615 13.006 68.2695 12.866 68.5682 12.67C68.6988 12.586 68.8155 12.5487 68.9182 12.558C69.0302 12.558 69.1188 12.5907 69.1842 12.656C69.2495 12.712 69.2915 12.7867 69.3102 12.88C69.3382 12.964 69.3288 13.0573 69.2822 13.16C69.2448 13.2627 69.1655 13.3513 69.0442 13.426C68.7362 13.65 68.3722 13.8227 67.9522 13.944C67.5322 14.0653 67.1168 14.126 66.7062 14.126ZM73.3873 14.126C72.9673 14.126 72.5427 14.0747 72.1133 13.972C71.6933 13.8693 71.3013 13.692 70.9373 13.44C70.844 13.3747 70.7787 13.3 70.7413 13.216C70.704 13.1227 70.69 13.034 70.6993 12.95C70.718 12.8567 70.7553 12.7773 70.8113 12.712C70.8767 12.6467 70.9513 12.6093 71.0353 12.6C71.1287 12.5813 71.2313 12.6 71.3433 12.656C71.7073 12.88 72.0573 13.0387 72.3933 13.132C72.7387 13.216 73.0793 13.258 73.4153 13.258C73.9473 13.258 74.3487 13.16 74.6193 12.964C74.89 12.768 75.0253 12.502 75.0253 12.166C75.0253 11.9047 74.9367 11.6993 74.7593 11.55C74.582 11.3913 74.302 11.27 73.9193 11.186L72.6453 10.906C72.0573 10.7847 71.6187 10.5747 71.3293 10.276C71.0493 9.97733 70.9093 9.59 70.9093 9.114C70.9093 8.694 71.0167 8.33467 71.2313 8.036C71.4553 7.728 71.768 7.49 72.1693 7.322C72.5707 7.154 73.0373 7.07 73.5693 7.07C73.98 7.07 74.3673 7.126 74.7313 7.238C75.1047 7.34067 75.4407 7.50867 75.7393 7.742C75.8327 7.80733 75.8933 7.88667 75.9213 7.98C75.9587 8.064 75.9633 8.15267 75.9353 8.246C75.9167 8.33 75.8747 8.40467 75.8093 8.47C75.744 8.526 75.6647 8.55867 75.5713 8.568C75.478 8.57733 75.38 8.54933 75.2773 8.484C74.9973 8.29733 74.7127 8.162 74.4233 8.078C74.134 7.98467 73.8493 7.938 73.5693 7.938C73.0467 7.938 72.65 8.04067 72.3793 8.246C72.1087 8.45133 71.9733 8.722 71.9733 9.058C71.9733 9.31933 72.0573 9.534 72.2253 9.702C72.3933 9.87 72.6547 9.99133 73.0093 10.066L74.2833 10.332C74.89 10.4627 75.3427 10.6727 75.6413 10.962C75.9493 11.242 76.1033 11.6247 76.1033 12.11C76.1033 12.726 75.856 13.216 75.3613 13.58C74.8667 13.944 74.2087 14.126 73.3873 14.126ZM80.1276 14.126C79.7076 14.126 79.2829 14.0747 78.8536 13.972C78.4336 13.8693 78.0416 13.692 77.6776 13.44C77.5842 13.3747 77.5189 13.3 77.4816 13.216C77.4442 13.1227 77.4302 13.034 77.4396 12.95C77.4582 12.8567 77.4956 12.7773 77.5516 12.712C77.6169 12.6467 77.6916 12.6093 77.7756 12.6C77.8689 12.5813 77.9716 12.6 78.0836 12.656C78.4476 12.88 78.7976 13.0387 79.1336 13.132C79.4789 13.216 79.8196 13.258 80.1556 13.258C80.6876 13.258 81.0889 13.16 81.3596 12.964C81.6302 12.768 81.7656 12.502 81.7656 12.166C81.7656 11.9047 81.6769 11.6993 81.4996 11.55C81.3222 11.3913 81.0422 11.27 80.6596 11.186L79.3856 10.906C78.7976 10.7847 78.3589 10.5747 78.0696 10.276C77.7896 9.97733 77.6496 9.59 77.6496 9.114C77.6496 8.694 77.7569 8.33467 77.9716 8.036C78.1956 7.728 78.5082 7.49 78.9096 7.322C79.3109 7.154 79.7776 7.07 80.3096 7.07C80.7202 7.07 81.1076 7.126 81.4716 7.238C81.8449 7.34067 82.1809 7.50867 82.4796 7.742C82.5729 7.80733 82.6336 7.88667 82.6616 7.98C82.6989 8.064 82.7036 8.15267 82.6756 8.246C82.6569 8.33 82.6149 8.40467 82.5496 8.47C82.4842 8.526 82.4049 8.55867 82.3116 8.568C82.2182 8.57733 82.1202 8.54933 82.0176 8.484C81.7376 8.29733 81.4529 8.162 81.1636 8.078C80.8742 7.98467 80.5896 7.938 80.3096 7.938C79.7869 7.938 79.3902 8.04067 79.1196 8.246C78.8489 8.45133 78.7136 8.722 78.7136 9.058C78.7136 9.31933 78.7976 9.534 78.9656 9.702C79.1336 9.87 79.3949 9.99133 79.7496 10.066L81.0236 10.332C81.6302 10.4627 82.0829 10.6727 82.3816 10.962C82.6896 11.242 82.8436 11.6247 82.8436 12.11C82.8436 12.726 82.5962 13.216 82.1016 13.58C81.6069 13.944 80.9489 14.126 80.1276 14.126ZM86.7138 14.126C86.2471 14.126 85.8271 14.0373 85.4538 13.86C85.0898 13.6733 84.8005 13.4213 84.5858 13.104C84.3711 12.7867 84.2638 12.432 84.2638 12.04C84.2638 11.536 84.3898 11.1393 84.6418 10.85C84.9031 10.5607 85.3278 10.3553 85.9158 10.234C86.5131 10.1127 87.3251 10.052 88.3518 10.052H88.9818V10.794H88.3658C87.6098 10.794 87.0125 10.8313 86.5738 10.906C86.1445 10.9713 85.8411 11.088 85.6638 11.256C85.4958 11.424 85.4118 11.662 85.4118 11.97C85.4118 12.3527 85.5425 12.6653 85.8038 12.908C86.0745 13.1507 86.4385 13.272 86.8958 13.272C87.2691 13.272 87.5958 13.1833 87.8758 13.006C88.1651 12.8287 88.3891 12.586 88.5478 12.278C88.7158 11.97 88.7998 11.6153 88.7998 11.214V9.618C88.7998 9.03933 88.6831 8.624 88.4498 8.372C88.2165 8.11067 87.8338 7.98 87.3018 7.98C86.9751 7.98 86.6485 8.022 86.3218 8.106C85.9951 8.19 85.6498 8.32533 85.2858 8.512C85.1551 8.57733 85.0431 8.60067 84.9498 8.582C84.8565 8.554 84.7818 8.50267 84.7258 8.428C84.6698 8.35333 84.6371 8.26933 84.6278 8.176C84.6185 8.07333 84.6371 7.97533 84.6838 7.882C84.7398 7.78867 84.8238 7.714 84.9358 7.658C85.3465 7.45267 85.7525 7.30333 86.1538 7.21C86.5551 7.11667 86.9378 7.07 87.3018 7.07C87.8898 7.07 88.3751 7.168 88.7578 7.364C89.1405 7.55067 89.4251 7.84 89.6118 8.232C89.7985 8.61467 89.8918 9.10933 89.8918 9.716V13.51C89.8918 13.6967 89.8451 13.8413 89.7518 13.944C89.6678 14.0467 89.5418 14.098 89.3738 14.098C89.1965 14.098 89.0611 14.0467 88.9678 13.944C88.8745 13.8413 88.8278 13.6967 88.8278 13.51V12.418H88.9538C88.8791 12.7727 88.7345 13.076 88.5198 13.328C88.3145 13.58 88.0578 13.776 87.7498 13.916C87.4418 14.056 87.0965 14.126 86.7138 14.126ZM95.0056 16.646C94.511 16.646 94.0256 16.5853 93.5496 16.464C93.083 16.352 92.6583 16.17 92.2756 15.918C92.1636 15.8527 92.089 15.7733 92.0516 15.68C92.0236 15.5867 92.019 15.4933 92.0376 15.4C92.0563 15.316 92.0983 15.2367 92.1636 15.162C92.229 15.0967 92.3036 15.0547 92.3876 15.036C92.481 15.0173 92.5743 15.0313 92.6676 15.078C93.0783 15.33 93.4703 15.5027 93.8436 15.596C94.217 15.6893 94.5856 15.736 94.9496 15.736C95.6123 15.736 96.1116 15.5587 96.4476 15.204C96.793 14.8493 96.9656 14.336 96.9656 13.664V12.082H97.1056C96.9656 12.6233 96.667 13.0527 96.2096 13.37C95.7616 13.6873 95.2343 13.846 94.6276 13.846C94.0023 13.846 93.461 13.706 93.0036 13.426C92.5463 13.1367 92.1916 12.7353 91.9396 12.222C91.697 11.7087 91.5756 11.116 91.5756 10.444C91.5756 9.94 91.6456 9.48267 91.7856 9.072C91.9256 8.652 92.1263 8.29733 92.3876 8.008C92.6583 7.70933 92.9803 7.48067 93.3536 7.322C93.7363 7.154 94.161 7.07 94.6276 7.07C95.2436 7.07 95.7756 7.22867 96.2236 7.546C96.6716 7.854 96.961 8.274 97.0916 8.806L96.9516 8.974V7.672C96.9516 7.48533 96.9983 7.34533 97.0916 7.252C97.1943 7.14933 97.3343 7.098 97.5116 7.098C97.6983 7.098 97.8383 7.14933 97.9316 7.252C98.025 7.34533 98.0716 7.48533 98.0716 7.672V13.51C98.0716 14.546 97.8103 15.3253 97.2876 15.848C96.7743 16.38 96.0136 16.646 95.0056 16.646ZM94.8376 12.922C95.2763 12.922 95.6543 12.824 95.9716 12.628C96.289 12.4227 96.5316 12.1333 96.6996 11.76C96.877 11.3867 96.9656 10.948 96.9656 10.444C96.9656 9.688 96.7743 9.09067 96.3916 8.652C96.009 8.204 95.491 7.98 94.8376 7.98C94.4083 7.98 94.035 8.08267 93.7176 8.288C93.4003 8.484 93.153 8.76867 92.9756 9.142C92.8076 9.506 92.7236 9.94 92.7236 10.444C92.7236 11.2 92.915 11.802 93.2976 12.25C93.6803 12.698 94.1936 12.922 94.8376 12.922ZM103.265 14.126C102.546 14.126 101.925 13.986 101.403 13.706C100.889 13.4167 100.488 13.0107 100.199 12.488C99.9188 11.9653 99.7788 11.34 99.7788 10.612C99.7788 9.90267 99.9188 9.28667 100.199 8.764C100.479 8.232 100.861 7.81667 101.347 7.518C101.841 7.21933 102.411 7.07 103.055 7.07C103.512 7.07 103.923 7.14933 104.287 7.308C104.651 7.45733 104.959 7.67667 105.211 7.966C105.472 8.25533 105.668 8.60533 105.799 9.016C105.939 9.42667 106.009 9.88867 106.009 10.402C106.009 10.5513 105.967 10.6633 105.883 10.738C105.799 10.8033 105.677 10.836 105.519 10.836H100.647V10.094H105.253L105.029 10.276C105.029 9.772 104.954 9.34733 104.805 9.002C104.655 8.64733 104.436 8.37667 104.147 8.19C103.867 8.00333 103.512 7.91 103.083 7.91C102.607 7.91 102.201 8.022 101.865 8.246C101.538 8.46067 101.291 8.764 101.123 9.156C100.955 9.53867 100.871 9.98667 100.871 10.5V10.584C100.871 11.4427 101.076 12.096 101.487 12.544C101.907 12.992 102.499 13.216 103.265 13.216C103.582 13.216 103.895 13.174 104.203 13.09C104.52 13.006 104.828 12.866 105.127 12.67C105.257 12.586 105.374 12.5487 105.477 12.558C105.589 12.558 105.677 12.5907 105.743 12.656C105.808 12.712 105.85 12.7867 105.869 12.88C105.897 12.964 105.887 13.0573 105.841 13.16C105.803 13.2627 105.724 13.3513 105.603 13.426C105.295 13.65 104.931 13.8227 104.511 13.944C104.091 14.0653 103.675 14.126 103.265 14.126Z" fill="#CC2F26"/>
</svg>
