<svg width="38" height="40" viewBox="0 0 38 40" fill="none" xmlns="http://www.w3.org/2000/svg">
<rect width="38" height="40" rx="6" fill="#FECC2F"/>
<path d="M29.7072 20.6041C29.8955 20.2231 29.8955 19.7762 29.7072 19.3953C29.5413 19.0599 29.2503 18.884 29.0996 18.7992C28.9373 18.7079 28.7292 18.6143 28.5218 18.521L13.2638 11.6549C13.0516 11.5594 12.84 11.4642 12.6616 11.4023C12.4977 11.3456 12.1678 11.2419 11.8026 11.3435C11.3899 11.4583 11.0551 11.7605 10.8987 12.1593C10.7602 12.5123 10.8297 12.851 10.8694 13.0198C10.9126 13.2037 10.9858 13.4239 11.0591 13.6448L12.5359 18.0942C12.6548 18.4524 12.7143 18.6315 12.8249 18.764C12.9225 18.881 13.0479 18.9715 13.1897 19.0273C13.3502 19.0905 13.539 19.0905 13.9164 19.0905H20.5016C21.0037 19.0905 21.4107 19.4975 21.4107 19.9996C21.4107 20.5017 21.0037 20.9087 20.5016 20.9087H13.9336C13.5571 20.9087 13.3688 20.9087 13.2086 20.9717C13.0671 21.0272 12.9418 21.1174 12.8442 21.234C12.7336 21.3659 12.6738 21.5445 12.5543 21.9015L11.0656 26.3484C10.9915 26.5697 10.9176 26.7903 10.8738 26.9743C10.8336 27.1431 10.763 27.4824 10.9011 27.8363C11.057 28.2359 11.3918 28.5388 11.8049 28.6541C12.1707 28.7562 12.5014 28.6522 12.6653 28.5954C12.8441 28.5334 13.0562 28.4379 13.2691 28.3421L28.5218 21.4784C28.7292 21.3851 28.9372 21.2915 29.0996 21.2002C29.2503 21.1153 29.5413 20.9395 29.7072 20.6041Z" fill="#030F1A"/>
</svg>
