<svg width="32" height="24" viewBox="0 0 32 24" fill="none" xmlns="http://www.w3.org/2000/svg">
<path d="M30.1255 12.6649C30.3327 12.2459 30.3327 11.7543 30.1255 11.3353C29.9431 10.9663 29.623 10.7729 29.4572 10.6795C29.2786 10.5791 29.0498 10.4761 28.8216 10.3735L12.0378 2.82085C11.8044 2.71576 11.5717 2.61099 11.3754 2.54299C11.1951 2.48056 10.8323 2.36649 10.4305 2.47828C9.9765 2.60461 9.60824 2.93697 9.43618 3.3757C9.28391 3.76393 9.36029 4.13656 9.40398 4.32223C9.45157 4.52448 9.53201 4.76673 9.6127 5.0097L11.2372 9.90402C11.368 10.2981 11.4334 10.4951 11.555 10.6408C11.6624 10.7695 11.8004 10.8691 11.9563 10.9305C12.1329 11 12.3405 11 12.7557 11H19.9994C20.5517 11 20.9994 11.4477 20.9994 12C20.9994 12.5523 20.5517 13 19.9994 13H12.7746C12.3605 13 12.1534 13 11.9771 13.0692C11.8215 13.1304 11.6836 13.2296 11.5762 13.3578C11.4546 13.503 11.3889 13.6993 11.2574 14.0921L9.61984 18.9836C9.53828 19.2272 9.45703 19.4697 9.40883 19.6722C9.36464 19.8578 9.28698 20.2311 9.43883 20.6203C9.61031 21.0599 9.9786 21.3931 10.433 21.52C10.8355 21.6323 11.1992 21.5178 11.3795 21.4553C11.5762 21.3872 11.8094 21.2822 12.0436 21.1767L28.8216 13.6267C29.0498 13.524 29.2786 13.4211 29.4572 13.3206C29.623 13.2273 29.9431 13.0338 30.1255 12.6649Z" fill="#030F1A"/>
<path d="M1 24V0H-1V24H1Z" fill="#D2D6D9" mask="url(#path-1-inside-1_8753_33299)"/>
</svg>
