<svg width="33" height="32" viewBox="0 0 33 32" fill="none" xmlns="http://www.w3.org/2000/svg">
<path d="M31.5104 5.5938L16.8854 0.718801C16.6352 0.6354 16.3648 0.6354 16.1146 0.718801L1.48957 5.5938C1.24689 5.6747 1.03583 5.82991 0.886264 6.03743C0.736702 6.24496 0.656231 6.49429 0.65625 6.75009V18.9376C0.65625 19.2608 0.784654 19.5708 1.01321 19.7994C1.24177 20.0279 1.55177 20.1563 1.875 20.1563C2.19823 20.1563 2.50823 20.0279 2.73679 19.7994C2.96535 19.5708 3.09375 19.2608 3.09375 18.9376V8.44111L8.21098 10.1458C6.8514 12.3423 6.41906 14.9886 7.00889 17.5036C7.59872 20.0186 9.1625 22.1967 11.3569 23.5597C8.61469 24.6352 6.24422 26.5807 4.51055 29.2406C4.42038 29.3746 4.35776 29.5252 4.3263 29.6836C4.29485 29.842 4.2952 30.0051 4.32734 30.1634C4.35948 30.3217 4.42275 30.472 4.51349 30.6057C4.60424 30.7393 4.72063 30.8535 4.85591 30.9418C4.9912 31.03 5.14267 31.0905 5.30153 31.1196C5.46039 31.1488 5.62346 31.1461 5.78127 31.1117C5.93908 31.0773 6.08848 31.0119 6.22079 30.9193C6.35309 30.8266 6.46566 30.7086 6.55195 30.5721C8.84777 27.0499 12.4736 25.0313 16.5 25.0313C20.5264 25.0313 24.1522 27.0499 26.448 30.5721C26.6268 30.8378 26.9029 31.0224 27.2167 31.0861C27.5306 31.1498 27.8568 31.0875 28.125 30.9125C28.3932 30.7376 28.5818 30.4641 28.65 30.1513C28.7182 29.8384 28.6605 29.5113 28.4895 29.2406C26.7558 26.5807 24.3762 24.6352 21.6431 23.5597C23.8354 22.1968 25.3977 20.02 25.9874 17.5069C26.5772 14.9938 26.1462 12.3493 24.789 10.1534L31.5104 7.914C31.7532 7.83314 31.9643 7.67796 32.1139 7.47043C32.2635 7.2629 32.344 7.01355 32.344 6.75771C32.344 6.50187 32.2635 6.25252 32.1139 6.04499C31.9643 5.83746 31.7532 5.68227 31.5104 5.60142V5.5938ZM23.8125 15.2813C23.8128 16.4374 23.5391 17.5771 23.0136 18.6069C22.4882 19.6366 21.7261 20.5272 20.7899 21.2054C19.8537 21.8836 18.77 22.3301 17.6277 22.5084C16.4855 22.6867 15.3173 22.5917 14.2189 22.231C13.1205 21.8704 12.1233 21.2545 11.309 20.4338C10.4948 19.6131 9.88671 18.6111 9.53471 17.5099C9.18271 16.4087 9.09681 15.2398 9.28406 14.099C9.47131 12.9582 9.92637 11.878 10.6119 10.9472L16.1146 12.7753C16.3648 12.8587 16.6352 12.8587 16.8854 12.7753L22.3881 10.9472C23.314 12.2025 23.8132 13.7215 23.8125 15.2813ZM16.5 10.3408L5.7293 6.75009L16.5 3.15935L27.2707 6.75009L16.5 10.3408Z" fill="black"/>
</svg>
