<svg width="82" height="23" viewBox="0 0 82 23" fill="none" xmlns="http://www.w3.org/2000/svg">
<rect y="0.0324707" width="82" height="22" rx="11" fill="#01C7B1"/>
<rect x="8" y="5.03247" width="12" height="12" rx="6" fill="white"/>
<path fill-rule="evenodd" clip-rule="evenodd" d="M16.7704 8.89837C16.8947 9.02263 16.8947 9.22409 16.7704 9.34835L13.2704 12.8483C13.1462 12.9726 12.9447 12.9726 12.8205 12.8483L11.2295 11.2574C11.1053 11.1332 11.1053 10.9317 11.2295 10.8075C11.3538 10.6832 11.5553 10.6832 11.6795 10.8075L13.0454 12.1734L16.3205 8.89837C16.4447 8.77411 16.6462 8.77411 16.7704 8.89837Z" fill="#01C7B1"/>
<path d="M27.23 14.1425C26.6767 14.1425 26.1533 14.0725 25.66 13.9325C25.1733 13.7925 24.7667 13.6025 24.44 13.3625L24.89 12.1425C25.2033 12.3625 25.56 12.5358 25.96 12.6625C26.3667 12.7891 26.79 12.8525 27.23 12.8525C27.71 12.8525 28.0533 12.7791 28.26 12.6325C28.4733 12.4791 28.58 12.2891 28.58 12.0625C28.58 11.8691 28.5067 11.7158 28.36 11.6025C28.2133 11.4891 27.9567 11.3925 27.59 11.3125L26.46 11.0725C25.2 10.8058 24.57 10.1525 24.57 9.11247C24.57 8.6658 24.69 8.2758 24.93 7.94247C25.17 7.60247 25.5033 7.33914 25.93 7.15247C26.3633 6.9658 26.8633 6.87247 27.43 6.87247C27.9167 6.87247 28.3733 6.94247 28.8 7.08247C29.2267 7.22247 29.58 7.41914 29.86 7.67247L29.41 8.81247C28.8633 8.37914 28.2 8.16247 27.42 8.16247C27 8.16247 26.6733 8.2458 26.44 8.41247C26.2133 8.57247 26.1 8.78247 26.1 9.04247C26.1 9.2358 26.17 9.39247 26.31 9.51247C26.45 9.63247 26.6933 9.72914 27.04 9.80247L28.17 10.0425C29.4633 10.3225 30.11 10.9558 30.11 11.9425C30.11 12.3825 29.99 12.7691 29.75 13.1025C29.5167 13.4291 29.1833 13.6858 28.75 13.8725C28.3233 14.0525 27.8167 14.1425 27.23 14.1425ZM32.7963 14.1425C32.1696 14.1425 31.7063 13.9691 31.4063 13.6225C31.1129 13.2758 30.9663 12.7558 30.9663 12.0625V9.12247H32.4763V12.1025C32.4763 12.6825 32.7263 12.9725 33.2263 12.9725C33.5129 12.9725 33.7463 12.8725 33.9263 12.6725C34.1129 12.4658 34.2063 12.1958 34.2063 11.8625V9.12247H35.7163V14.0325H34.2463V13.3625C33.9196 13.8825 33.4363 14.1425 32.7963 14.1425ZM39.2747 14.1425C38.7414 14.1425 38.2747 14.0391 37.8747 13.8325C37.4814 13.6191 37.178 13.3191 36.9647 12.9325C36.7514 12.5458 36.6447 12.0891 36.6447 11.5625C36.6447 11.0358 36.7514 10.5825 36.9647 10.2025C37.178 9.82247 37.4814 9.53247 37.8747 9.33247C38.2747 9.1258 38.7414 9.02247 39.2747 9.02247C39.588 9.02247 39.9047 9.06914 40.2247 9.16247C40.5447 9.2558 40.8047 9.38914 41.0047 9.56247L40.5847 10.6025C40.418 10.4691 40.2314 10.3658 40.0247 10.2925C39.818 10.2125 39.618 10.1725 39.4247 10.1725C39.0314 10.1725 38.7247 10.2958 38.5047 10.5425C38.2914 10.7825 38.1847 11.1258 38.1847 11.5725C38.1847 12.0125 38.2914 12.3591 38.5047 12.6125C38.7247 12.8591 39.0314 12.9825 39.4247 12.9825C39.6114 12.9825 39.808 12.9458 40.0147 12.8725C40.228 12.7991 40.418 12.6925 40.5847 12.5525L41.0047 13.5925C40.8047 13.7658 40.5447 13.9025 40.2247 14.0025C39.9047 14.0958 39.588 14.1425 39.2747 14.1425ZM43.9524 14.1425C43.4191 14.1425 42.9524 14.0391 42.5524 13.8325C42.1591 13.6191 41.8558 13.3191 41.6424 12.9325C41.4291 12.5458 41.3224 12.0891 41.3224 11.5625C41.3224 11.0358 41.4291 10.5825 41.6424 10.2025C41.8558 9.82247 42.1591 9.53247 42.5524 9.33247C42.9524 9.1258 43.4191 9.02247 43.9524 9.02247C44.2658 9.02247 44.5824 9.06914 44.9024 9.16247C45.2224 9.2558 45.4824 9.38914 45.6824 9.56247L45.2624 10.6025C45.0958 10.4691 44.9091 10.3658 44.7024 10.2925C44.4958 10.2125 44.2958 10.1725 44.1024 10.1725C43.7091 10.1725 43.4024 10.2958 43.1824 10.5425C42.9691 10.7825 42.8624 11.1258 42.8624 11.5725C42.8624 12.0125 42.9691 12.3591 43.1824 12.6125C43.4024 12.8591 43.7091 12.9825 44.1024 12.9825C44.2891 12.9825 44.4858 12.9458 44.6924 12.8725C44.9058 12.7991 45.0958 12.6925 45.2624 12.5525L45.6824 13.5925C45.4824 13.7658 45.2224 13.9025 44.9024 14.0025C44.5824 14.0958 44.2658 14.1425 43.9524 14.1425ZM48.7902 14.1425C48.2102 14.1425 47.7102 14.0391 47.2902 13.8325C46.8768 13.6191 46.5568 13.3225 46.3302 12.9425C46.1102 12.5558 46.0002 12.1025 46.0002 11.5825C46.0002 11.0758 46.1068 10.6325 46.3202 10.2525C46.5402 9.8658 46.8368 9.5658 47.2102 9.35247C47.5902 9.13247 48.0268 9.02247 48.5202 9.02247C49.2335 9.02247 49.8002 9.24914 50.2202 9.70247C50.6402 10.1491 50.8502 10.7558 50.8502 11.5225V11.9025H47.4402C47.4935 12.2891 47.6335 12.5725 47.8602 12.7525C48.0935 12.9258 48.4135 13.0125 48.8202 13.0125C49.0868 13.0125 49.3568 12.9725 49.6302 12.8925C49.9035 12.8125 50.1502 12.6891 50.3702 12.5225L50.7702 13.5325C50.5235 13.7191 50.2202 13.8691 49.8602 13.9825C49.5068 14.0891 49.1502 14.1425 48.7902 14.1425ZM48.5802 10.0225C48.2602 10.0225 48.0002 10.1191 47.8002 10.3125C47.6068 10.5058 47.4868 10.7758 47.4402 11.1225H49.6002C49.5602 10.3891 49.2202 10.0225 48.5802 10.0225ZM53.6084 14.1425C53.1751 14.1425 52.7718 14.0925 52.3984 13.9925C52.0251 13.8925 51.7151 13.7558 51.4684 13.5825L51.8284 12.6025C52.0751 12.7558 52.3551 12.8791 52.6684 12.9725C52.9884 13.0591 53.3051 13.1025 53.6184 13.1025C53.8984 13.1025 54.1051 13.0591 54.2384 12.9725C54.3718 12.8791 54.4384 12.7591 54.4384 12.6125C54.4384 12.3791 54.2684 12.2325 53.9284 12.1725L52.8784 11.9825C52.4584 11.9091 52.1384 11.7591 51.9184 11.5325C51.6984 11.3058 51.5884 11.0091 51.5884 10.6425C51.5884 10.3091 51.6818 10.0225 51.8684 9.78247C52.0551 9.54247 52.3118 9.3558 52.6384 9.22247C52.9651 9.08914 53.3418 9.02247 53.7684 9.02247C54.1218 9.02247 54.4651 9.06914 54.7984 9.16247C55.1318 9.24914 55.4184 9.38914 55.6584 9.58247L55.2784 10.5525C55.0784 10.4058 54.8384 10.2858 54.5584 10.1925C54.2851 10.0991 54.0284 10.0525 53.7884 10.0525C53.4884 10.0525 53.2718 10.1025 53.1384 10.2025C53.0051 10.2958 52.9384 10.4158 52.9384 10.5625C52.9384 10.7958 53.0951 10.9425 53.4084 11.0025L54.4584 11.1925C54.8918 11.2658 55.2218 11.4125 55.4484 11.6325C55.6751 11.8458 55.7884 12.1391 55.7884 12.5125C55.7884 13.0258 55.5884 13.4258 55.1884 13.7125C54.7884 13.9991 54.2618 14.1425 53.6084 14.1425ZM58.5303 14.1425C58.097 14.1425 57.6936 14.0925 57.3203 13.9925C56.947 13.8925 56.637 13.7558 56.3903 13.5825L56.7503 12.6025C56.997 12.7558 57.277 12.8791 57.5903 12.9725C57.9103 13.0591 58.227 13.1025 58.5403 13.1025C58.8203 13.1025 59.027 13.0591 59.1603 12.9725C59.2936 12.8791 59.3603 12.7591 59.3603 12.6125C59.3603 12.3791 59.1903 12.2325 58.8503 12.1725L57.8003 11.9825C57.3803 11.9091 57.0603 11.7591 56.8403 11.5325C56.6203 11.3058 56.5103 11.0091 56.5103 10.6425C56.5103 10.3091 56.6036 10.0225 56.7903 9.78247C56.977 9.54247 57.2336 9.3558 57.5603 9.22247C57.887 9.08914 58.2636 9.02247 58.6903 9.02247C59.0436 9.02247 59.387 9.06914 59.7203 9.16247C60.0536 9.24914 60.3403 9.38914 60.5803 9.58247L60.2003 10.5525C60.0003 10.4058 59.7603 10.2858 59.4803 10.1925C59.207 10.0991 58.9503 10.0525 58.7103 10.0525C58.4103 10.0525 58.1936 10.1025 58.0603 10.2025C57.927 10.2958 57.8603 10.4158 57.8603 10.5625C57.8603 10.7958 58.017 10.9425 58.3303 11.0025L59.3803 11.1925C59.8136 11.2658 60.1436 11.4125 60.3703 11.6325C60.597 11.8458 60.7103 12.1391 60.7103 12.5125C60.7103 13.0258 60.5103 13.4258 60.1103 13.7125C59.7103 13.9991 59.1836 14.1425 58.5303 14.1425ZM61.9522 14.0325V10.2525H61.0222V9.12247H61.9522C61.9655 8.42914 62.1655 7.90914 62.5522 7.56247C62.9455 7.20914 63.5422 7.00914 64.3422 6.96247L64.8922 6.92247L64.9822 8.02247L64.5122 8.05247C64.1255 8.07247 63.8522 8.1558 63.6922 8.30247C63.5389 8.44247 63.4622 8.65914 63.4622 8.95247V9.12247H64.7422V10.2525H63.4622V14.0325H61.9522ZM67.2005 14.1425C66.5739 14.1425 66.1105 13.9691 65.8105 13.6225C65.5172 13.2758 65.3705 12.7558 65.3705 12.0625V9.12247H66.8805V12.1025C66.8805 12.6825 67.1305 12.9725 67.6305 12.9725C67.9172 12.9725 68.1505 12.8725 68.3305 12.6725C68.5172 12.4658 68.6105 12.1958 68.6105 11.8625V9.12247H70.1205V14.0325H68.6505V13.3625C68.3239 13.8825 67.8405 14.1425 67.2005 14.1425ZM73.119 14.1425C72.4857 14.1425 72.0223 13.9791 71.729 13.6525C71.4357 13.3191 71.289 12.8258 71.289 12.1725V6.98247H72.799V12.1125C72.799 12.6458 73.0357 12.9125 73.509 12.9125C73.5823 12.9125 73.6523 12.9091 73.719 12.9025C73.7923 12.8958 73.8623 12.8825 73.929 12.8625L73.909 14.0325C73.6557 14.1058 73.3923 14.1425 73.119 14.1425Z" fill="white"/>
</svg>
