<svg width="56" height="56" viewBox="0 0 56 56" fill="none" xmlns="http://www.w3.org/2000/svg">
<path d="M28.0013 53.6668C15.035 50.7852 4.66797 38.5515 4.66797 25.6668V11.6668L28.0013 2.3335L51.3346 11.6668V25.6668C51.3346 38.5562 40.9676 50.7852 28.0013 53.6668ZM9.33464 14.0002V25.6668C9.46798 31.0618 11.3655 36.2645 14.7367 40.4785C18.108 44.6925 22.7672 47.6858 28.0013 49.0002C33.2354 47.6858 37.8946 44.6925 41.2659 40.4785C44.6371 36.2645 46.5346 31.0618 46.668 25.6668V14.0002L28.0013 7.00016L9.33464 14.0002Z" fill="black"/>
<path d="M28.0013 25.6667C31.223 25.6667 33.8346 23.055 33.8346 19.8333C33.8346 16.6117 31.223 14 28.0013 14C24.7796 14 22.168 16.6117 22.168 19.8333C22.168 23.055 24.7796 25.6667 28.0013 25.6667Z" fill="black"/>
<path d="M16.332 35C17.4821 37.0958 19.1684 38.8484 21.2184 40.0783C23.2683 41.3083 25.6082 41.9715 27.9987 42C30.3892 41.9715 32.7291 41.3083 34.779 40.0783C36.829 38.8484 38.5153 37.0958 39.6654 35C39.607 30.576 31.8674 28 27.9987 28C24.109 28 16.3904 30.576 16.332 35Z" fill="black"/>
</svg>
