<svg width="16" height="16" viewBox="0 0 16 16" fill="none" xmlns="http://www.w3.org/2000/svg">
<g clip-path="url(#clip0_1469_7799)">
<path d="M9.8995 6.37531C10.7153 6.37531 11.3766 5.7229 11.3766 4.91812C11.3766 4.11334 10.7153 3.46094 9.8995 3.46094C9.0837 3.46094 8.42236 4.11334 8.42236 4.91812C8.42236 5.7229 9.0837 6.37531 9.8995 6.37531Z" stroke="white" stroke-miterlimit="10" stroke-linecap="round"/>
<path d="M11.695 12.9558H12.9947C13.1095 12.9558 13.2087 12.8631 13.2087 12.7447V9.16093C13.2087 8.1826 12.4049 7.38965 11.4132 7.38965H8.66245C8.06742 7.38965 7.50371 7.62136 7.08092 8.03328L6.03701 9.06309C5.92218 9.17637 5.73427 9.17637 5.61944 9.06309L4.02747 7.49263C3.93874 7.4051 3.78737 7.4051 3.69864 7.49263L2.90005 8.28044C2.81131 8.36797 2.81131 8.51729 2.90005 8.60483L5.06617 10.7417C5.54637 11.2154 6.31886 11.2154 6.79384 10.7417V10.7417C7.15617 10.3843 7.7699 10.6409 7.7699 11.1499V14C7.7699 14.5522 8.21762 15 8.7699 15H10.7002C11.2525 15 11.7002 14.5522 11.7002 14V9.73247" stroke="white" stroke-miterlimit="10" stroke-linecap="round"/>
<path d="M3.8291 7.38964V4.26416" stroke="white" stroke-miterlimit="10" stroke-linecap="round"/>
<path d="M7.75934 11.1951H1.96562C1.43322 11.1951 1 10.7729 1 10.2477V1.95258C1 1.42737 1.43322 1 1.96562 1H14.0385C14.5709 1 15.0041 1.42737 15.0041 1.95258V10.2477C15.0041 10.7729 14.5709 11.2003 14.0385 11.2003H13.2086" stroke="white" stroke-miterlimit="10" stroke-linecap="round"/>
</g>
<defs>
<clipPath id="clip0_1469_7799">
<rect width="16" height="16" fill="white"/>
</clipPath>
</defs>
</svg>
