<svg width="18" height="18" viewBox="0 0 18 18" fill="none" xmlns="http://www.w3.org/2000/svg">
<rect width="18" height="18" fill="#282828"/>
<g id="home">
<path d="M-912 -989C-912 -990.105 -911.105 -991 -910 -991H4422C4423.1 -991 4424 -990.105 4424 -989V1701C4424 1702.1 4423.1 1703 4422 1703H-910C-911.105 1703 -912 1702.1 -912 1701V-989Z" fill="#404040"/>
<g id="Home">
<rect width="375" height="812" transform="translate(-23 -746)" fill="white"/>
<g id="Home Page Content" clip-path="url(#clip0_5736_24743)">
<g id="Teacher Section">
<g id="Frame 43203">
<g id="iconamoon:profile-light">
<g id="Group">
<path id="Vector" d="M1 15.0325C1 13.9716 1.42143 12.9542 2.17157 12.204C2.92172 11.4539 3.93913 11.0325 5 11.0325H13C14.0609 11.0325 15.0783 11.4539 15.8284 12.204C16.5786 12.9542 17 13.9716 17 15.0325C17 15.5629 16.7893 16.0716 16.4142 16.4467C16.0391 16.8218 15.5304 17.0325 15 17.0325H3C2.46957 17.0325 1.96086 16.8218 1.58579 16.4467C1.21071 16.0716 1 15.5629 1 15.0325Z" stroke="#0062CC" stroke-width="1.5" stroke-linejoin="round"/>
<path id="Vector_2" d="M9 7.03247C10.6569 7.03247 12 5.68932 12 4.03247C12 2.37562 10.6569 1.03247 9 1.03247C7.34315 1.03247 6 2.37562 6 4.03247C6 5.68932 7.34315 7.03247 9 7.03247Z" stroke="#0062CC" stroke-width="1.5"/>
</g>
</g>
</g>
</g>
</g>
</g>
<path d="M-910 -990H4422V-992H-910V-990ZM4423 -989V1701H4425V-989H4423ZM4422 1702H-910V1704H4422V1702ZM-911 1701V-989H-913V1701H-911ZM-910 1702C-910.552 1702 -911 1701.55 -911 1701H-913C-913 1702.66 -911.657 1704 -910 1704V1702ZM4423 1701C4423 1701.55 4422.55 1702 4422 1702V1704C4423.66 1704 4425 1702.66 4425 1701H4423ZM4422 -990C4422.55 -990 4423 -989.552 4423 -989H4425C4425 -990.657 4423.66 -992 4422 -992V-990ZM-910 -992C-911.657 -992 -913 -990.657 -913 -989H-911C-911 -989.552 -910.552 -990 -910 -990V-992Z" fill="white" fill-opacity="0.1"/>
</g>
<defs>
<clipPath id="clip0_5736_24743">
<rect width="375" height="701" fill="white" transform="translate(-23 -634)"/>
</clipPath>
</defs>
</svg>
