<svg width="53" height="48" viewBox="0 0 53 48" fill="none" xmlns="http://www.w3.org/2000/svg">
<rect x="0.5" y="0.5" width="52" height="47" rx="8.5" stroke="#007AFF"/>
<g clip-path="url(#clip0_10354_16063)">
<path d="M20.7501 28.5C20.638 28.5 20.526 28.5164 20.4191 28.5511C19.8116 28.7484 19.1727 28.875 18.5001 28.875C17.8274 28.875 17.1885 28.7484 16.5805 28.5511C16.4737 28.5164 16.3621 28.5 16.2501 28.5C13.341 28.5 10.9846 30.8662 11.0001 33.7791C11.0066 35.01 12.0187 36 13.2501 36H23.7501C24.9815 36 25.9935 35.01 26.0001 33.7791C26.0155 30.8662 23.6591 28.5 20.7501 28.5ZM18.5001 27C20.9854 27 23.0001 24.9853 23.0001 22.5C23.0001 20.0147 20.9854 18 18.5001 18C16.0148 18 14.0001 20.0147 14.0001 22.5C14.0001 24.9853 16.0148 27 18.5001 27ZM38.7501 12H20.7501C19.5093 12 18.5001 13.043 18.5001 14.3245V16.5C19.5979 16.5 20.6141 16.8178 21.5001 17.3344V15H38.0001V28.5H35.0001V25.5H29.0001V28.5H25.4263C26.3216 29.2823 26.9788 30.3155 27.2868 31.5H38.7501C39.9909 31.5 41.0001 30.457 41.0001 29.1755V14.3245C41.0001 13.043 39.9909 12 38.7501 12Z" fill="#030F1A"/>
</g>
<defs>
<clipPath id="clip0_10354_16063">
<rect width="30" height="24" fill="white" transform="translate(11 12)"/>
</clipPath>
</defs>
</svg>
