<svg width="35" height="35" viewBox="0 0 35 35" fill="none" xmlns="http://www.w3.org/2000/svg">
<path d="M21.6531 13.9465C23.4377 13.9465 24.8844 12.5193 24.8844 10.7589C24.8844 8.99842 23.4377 7.57129 21.6531 7.57129C19.8686 7.57129 18.4219 8.99842 18.4219 10.7589C18.4219 12.5193 19.8686 13.9465 21.6531 13.9465Z" stroke="#030F1A" stroke-width="2" stroke-miterlimit="10" stroke-linecap="round"/>
<path d="M25.5838 28.341H28.4268C28.678 28.341 28.895 28.1382 28.895 27.8792V20.0397C28.895 17.8996 27.1366 16.165 24.9672 16.165H18.9501C17.6484 16.165 16.4153 16.6719 15.4905 17.573L13.2069 19.8257C12.9557 20.0735 12.5447 20.0735 12.2935 19.8257L8.81104 16.3903C8.61694 16.1988 8.28582 16.1988 8.09172 16.3903L6.3448 18.1136C6.15069 18.3051 6.15069 18.6318 6.3448 18.8232L11.0832 23.4976C12.1336 24.5339 13.8235 24.5339 14.8625 23.4976L15.2953 23.0706C15.9272 22.4473 16.9976 22.8949 16.9976 23.7825V31.8126C16.9976 32.3649 17.4453 32.8126 17.9976 32.8126H24.5952C25.1475 32.8126 25.5952 32.3649 25.5952 31.8126V21.29" stroke="#030F1A" stroke-width="2" stroke-miterlimit="10" stroke-linecap="round"/>
<path d="M8.375 16.1651V9.32812" stroke="#030F1A" stroke-width="2" stroke-miterlimit="10" stroke-linecap="round"/>
<path d="M16.9736 24.4894H4.29979C3.13518 24.4894 2.1875 23.5658 2.1875 22.4169V4.27126C2.1875 3.12238 3.13518 2.1875 4.29979 2.1875H30.7092C31.8738 2.1875 32.8215 3.12238 32.8215 4.27126V22.4169C32.8215 23.5658 31.8738 24.5006 30.7092 24.5006H28.8938" stroke="#030F1A" stroke-width="2" stroke-miterlimit="10" stroke-linecap="round"/>
</svg>
