<svg width="42" height="40" viewBox="0 0 42 40" fill="none" xmlns="http://www.w3.org/2000/svg">
<ellipse cx="21" cy="20" rx="21" ry="20" fill="#DEF4FE"/>
<path d="M20.3333 33.3332C18.2889 33.3332 16.5556 32.6221 15.1333 31.1998C13.7111 29.7776 13 28.0443 13 25.9998V11.9998C13 10.5332 13.5222 9.27761 14.5667 8.23317C15.6111 7.18873 16.8667 6.6665 18.3333 6.6665C19.8 6.6665 21.0556 7.18873 22.1 8.23317C23.1444 9.27761 23.6667 10.5332 23.6667 11.9998V22.6665H21.6667V11.9998C21.6667 11.0665 21.3444 10.2776 20.7 9.63317C20.0556 8.98873 19.2667 8.6665 18.3333 8.6665C17.4 8.6665 16.6111 8.98873 15.9667 9.63317C15.3222 10.2776 15 11.0665 15 11.9998V25.9998C15 27.4665 15.5222 28.7221 16.5667 29.7665C17.6111 30.8109 18.8667 31.3332 20.3333 31.3332C20.9778 31.3332 21.5836 31.2274 22.1507 31.0158C22.7178 30.8043 23.2231 30.5101 23.6667 30.1332V32.5332C23.1556 32.7776 22.6222 32.9723 22.0667 33.1172C21.5111 33.2621 20.9333 33.3341 20.3333 33.3332ZM26.3333 31.9998V27.9998H22.3333V25.3332H26.3333V21.3332H29V25.3332H33V27.9998H29V31.9998H26.3333ZM20.3333 25.9998V27.9998C19.4 27.9998 18.6111 27.6776 17.9667 27.0332C17.3222 26.3887 17 25.5998 17 24.6665V11.9998H19V24.6665C19 25.0443 19.128 25.3612 19.384 25.6172C19.64 25.8732 19.9564 26.0007 20.3333 25.9998ZM25.6667 18.6665V11.9998H27.6667V18.6665H25.6667Z" fill="#063D80"/>
</svg>
