<svg width="35" height="40" viewBox="0 0 35 40" fill="none" xmlns="http://www.w3.org/2000/svg">
<g clip-path="url(#clip0_1087_5787)">
<path d="M22.1571 0H0V36.5349H29.0794V7.12L22.1571 0ZM22.4879 1.986L27.1485 6.77971H22.4882L22.4879 1.986ZM27.9162 35.4049H1.16324V1.13H21.3235V7.90971H27.915L27.9162 35.4049Z" fill="#007AFF"/>
<path d="M25.3961 14.3877H3.68347V15.5177H25.3961V14.3877Z" fill="#007AFF"/>
<path d="M12.9888 10.6211H3.68347V11.7511H12.9888V10.6211Z" fill="#007AFF"/>
<path d="M25.3961 18.1543H3.68347V19.2843H25.3961V18.1543Z" fill="#007AFF"/>
<path d="M25.3961 21.9209H3.68347V23.0509H25.3961V21.9209Z" fill="#007AFF"/>
<path d="M25.3961 25.6875H3.68347V26.8175H25.3961V25.6875Z" fill="#007AFF"/>
<path d="M25.3961 29.4541H3.68347V30.5841H25.3961V29.4541Z" fill="#007AFF"/>
<path d="M26.9117 40.0004C31.3787 40.0004 35 36.4827 35 32.1433C35 27.8039 31.3787 24.2861 26.9117 24.2861C22.4447 24.2861 18.8235 27.8039 18.8235 32.1433C18.8235 36.4827 22.4447 40.0004 26.9117 40.0004Z" fill="white"/>
<path d="M23.5588 32.7115L23.1609 32.3249C23.1208 32.2863 23.089 32.2403 23.0673 32.1896C23.0456 32.139 23.0344 32.0847 23.0344 32.0298C23.0344 31.9749 23.0456 31.9206 23.0673 31.87C23.089 31.8193 23.1208 31.7733 23.1609 31.7347L26.6429 28.3504C26.6827 28.3114 26.7301 28.2806 26.7822 28.2595C26.8344 28.2384 26.8903 28.2275 26.9468 28.2275C27.0032 28.2275 27.0592 28.2384 27.1113 28.2595C27.1634 28.2806 27.2108 28.3114 27.2506 28.3504L30.7329 31.7332C30.773 31.7719 30.8048 31.8179 30.8265 31.8685C30.8482 31.9192 30.8594 31.9735 30.8594 32.0284C30.8594 32.0832 30.8482 32.1376 30.8265 32.1882C30.8048 32.2389 30.773 32.2849 30.7329 32.3235L30.335 32.7101C30.2944 32.7493 30.2462 32.7803 30.1932 32.8013C30.1402 32.8222 30.0834 32.8326 30.0262 32.832C29.9689 32.8314 29.9124 32.8197 29.8599 32.7975C29.8073 32.7754 29.7599 32.7434 29.7203 32.7032L27.6647 30.6067V35.6104C27.6648 35.6653 27.6538 35.7196 27.6322 35.7704C27.6106 35.8211 27.579 35.8672 27.539 35.906C27.4991 35.9448 27.4516 35.9756 27.3994 35.9965C27.3472 36.0175 27.2912 36.0282 27.2347 36.0281H26.6612C26.6047 36.0282 26.5487 36.0175 26.4965 35.9965C26.4443 35.9756 26.3968 35.9448 26.3568 35.906C26.3169 35.8672 26.2852 35.8211 26.2637 35.7704C26.2421 35.7196 26.231 35.6653 26.2312 35.6104V30.6067L24.1723 32.7047C24.1329 32.7451 24.0856 32.7775 24.033 32.7999C23.9805 32.8222 23.9238 32.834 23.8665 32.8347C23.8091 32.8353 23.7522 32.8247 23.6992 32.8036C23.6461 32.7824 23.598 32.7511 23.5576 32.7115H23.5588Z" fill="#007AFF"/>
</g>
<defs>
<clipPath id="clip0_1087_5787">
<rect width="35" height="40" fill="white"/>
</clipPath>
</defs>
</svg>
