<svg width="25" height="25" viewBox="0 0 25 25" fill="none" xmlns="http://www.w3.org/2000/svg">
<path d="M20.3217 21.5C20.3217 20.1044 20.3217 19.4067 20.1494 18.8389C19.7616 17.5605 18.7612 16.56 17.4828 16.1722C16.915 16 16.2172 16 14.8217 16H9.82169C8.42612 16 7.72834 16 7.16054 16.1722C5.88214 16.56 4.88173 17.5605 4.49393 18.8389C4.32169 19.4067 4.32169 20.1044 4.32169 21.5M16.8217 8C16.8217 10.4853 14.807 12.5 12.3217 12.5C9.8364 12.5 7.82169 10.4853 7.82169 8C7.82169 5.51472 9.8364 3.5 12.3217 3.5C14.807 3.5 16.8217 5.51472 16.8217 8Z" stroke="#030F1A" stroke-width="2" stroke-linecap="round" stroke-linejoin="round"/>
</svg>
