<svg width="80" height="80" viewBox="0 0 80 80" fill="none" xmlns="http://www.w3.org/2000/svg"><g id="trash-03"><g id="Solid" fill="#ED1B2E"><path d="M26.666 10.001a3.333 3.333 0 0 1 3.333-3.333h20a3.333 3.333 0 1 1 0 6.667H30A3.333 3.333 0 0 1 26.666 10z"/><path fill-rule="evenodd" clip-rule="evenodd" d="M6.666 20.001a3.333 3.333 0 0 1 3.333-3.333h60a3.333 3.333 0 1 1 0 6.667h-3.548L64.312 55.42c-.168 2.518-.306 4.602-.555 6.298-.26 1.766-.671 3.38-1.528 4.883A13.333 13.333 0 0 1 56.46 72c-1.558.755-3.196 1.058-4.975 1.2-1.709.135-3.797.135-6.321.135H34.836c-2.524 0-4.612 0-6.321-.136-1.78-.141-3.417-.444-4.975-1.199a13.333 13.333 0 0 1-5.77-5.399c-.857-1.504-1.268-3.117-1.528-4.883-.249-1.697-.388-3.78-.555-6.299l-2.14-32.084H10A3.333 3.333 0 0 1 6.666 20zm26.667 11.667a3.333 3.333 0 0 1 3.333 3.333v16.667a3.333 3.333 0 0 1-6.667 0V35.001a3.333 3.333 0 0 1 3.334-3.333zm16.666 3.333a3.333 3.333 0 1 0-6.666 0v16.667a3.333 3.333 0 0 0 6.666 0V35.001z"/></g></g></svg>