<svg width="32" height="32" viewBox="0 0 32 32" fill="none" xmlns="http://www.w3.org/2000/svg"><path d="M18.04 11.136a4.667 4.667 0 1 1 1.255-6.272M8 26.785h3.48c.454 0 .905.053 1.345.161l3.678.894a5.7 5.7 0 0 0 2.435.056l4.066-.79a5.607 5.607 0 0 0 2.836-1.477l2.877-2.799a2.004 2.004 0 0 0 0-2.891c-.74-.72-1.91-.8-2.747-.19l-3.353 2.445c-.48.351-1.065.54-1.665.54h-3.238 2.06c1.162 0 2.103-.915 2.103-2.045v-.409c0-.938-.656-1.756-1.591-1.983l-3.181-.773a6.705 6.705 0 0 0-1.58-.19c-1.287 0-3.616 1.066-3.616 1.066L8 20.033M26.667 8.668a4.667 4.667 0 1 1-9.334 0 4.667 4.667 0 0 1 9.334 0zm-24 10.8V27.2c0 .747 0 1.12.145 1.406.128.25.332.454.583.582.285.146.658.146 1.405.146h1.067c.746 0 1.12 0 1.405-.146.25-.127.455-.331.583-.582C8 28.32 8 27.947 8 27.2v-7.733c0-.747 0-1.12-.145-1.405a1.333 1.333 0 0 0-.583-.583c-.285-.145-.659-.145-1.405-.145H4.8c-.747 0-1.12 0-1.405.145a1.335 1.335 0 0 0-.583.583c-.145.285-.145.658-.145 1.405z" stroke="#F7961C" stroke-width="2.6" stroke-linecap="round" stroke-linejoin="round"/></svg>