<svg xmlns="http://www.w3.org/2000/svg" width="96" height="97" viewBox="0 0 96 97" fill="none"><path d="M20 36.5v32m18-32v32m20-32v32m18-32v32m-64 6.4v3.2c0 2.24 0 3.36.436 4.216a4 4 0 0 0 1.748 1.748c.856.436 1.976.436 4.216.436h59.2c2.24 0 3.36 0 4.216-.436a4 4 0 0 0 1.748-1.748C84 81.46 84 80.34 84 78.1v-3.2c0-2.24 0-3.36-.436-4.216a4 4 0 0 0-1.748-1.748C80.96 68.5 79.84 68.5 77.6 68.5H18.4c-2.24 0-3.36 0-4.216.436a4 4 0 0 0-1.748 1.748C12 71.54 12 72.66 12 74.9zm34.612-62.092l-29.6 6.578c-1.789.398-2.683.596-3.35 1.077a4 4 0 0 0-1.337 1.667C12 22.886 12 23.802 12 25.634V30.1c0 2.24 0 3.36.436 4.216a4 4 0 0 0 1.748 1.748c.856.436 1.976.436 4.216.436h59.2c2.24 0 3.36 0 4.216-.436a4 4 0 0 0 1.748-1.748C84 33.46 84 32.34 84 30.1v-4.466c0-1.832 0-2.748-.325-3.504a4 4 0 0 0-1.337-1.667c-.667-.48-1.561-.68-3.35-1.077l-29.6-6.577c-.518-.116-.777-.173-1.039-.196a3.997 3.997 0 0 0-.698 0c-.262.023-.521.08-1.04.196z" stroke="#030F1A" stroke-width="4" stroke-linecap="round" stroke-linejoin="round"/></svg>