<svg width="88" height="88" viewBox="0 0 88 88" fill="none" xmlns="http://www.w3.org/2000/svg"><g id="file-06"><path id="Solid" fill-rule="evenodd" clip-rule="evenodd" d="M47.667 7.39c0-.096 0-.144-.005-.232-.086-1.81-1.678-3.402-3.489-3.487A2.867 2.867 0 0 0 44 3.667H32.115c-2.951 0-5.387 0-7.372.162-2.06.168-3.955.53-5.735 1.436a14.666 14.666 0 0 0-6.41 6.41c-.906 1.78-1.268 3.674-1.436 5.735C11 19.394 11 21.83 11 24.782v38.436c0 2.952 0 5.388.162 7.372.168 2.061.53 3.956 1.437 5.735a14.666 14.666 0 0 0 6.41 6.41c1.779.907 3.673 1.268 5.734 1.436 1.985.162 4.42.162 7.372.162h23.77c2.951 0 5.387 0 7.372-.162 2.06-.168 3.955-.53 5.735-1.436a14.666 14.666 0 0 0 6.41-6.41c.906-1.78 1.268-3.674 1.436-5.735.162-1.984.162-4.42.162-7.372V36.666c0-.056 0-.085-.004-.172-.086-1.811-1.677-3.403-3.488-3.49-.087-.004-.135-.004-.231-.004H57.082c-.925 0-1.827 0-2.59-.062-.838-.069-1.827-.23-2.822-.737a7.332 7.332 0 0 1-3.205-3.205c-.507-.995-.669-1.984-.737-2.822-.063-.764-.062-1.665-.062-2.59V7.39zm21.662 18.277c1.077 0 1.615 0 2.056-.27.623-.382.995-1.282.824-1.992-.12-.503-.472-.854-1.174-1.555L58.817 9.63c-.702-.702-1.052-1.053-1.555-1.174-.71-.17-1.61.202-1.992.825-.27.44-.27.979-.27 2.056v11.395c0 1.027 0 1.54.2 1.933.176.345.456.625.801.8.392.2.906.2 1.932.2H69.33zM29.333 33a3.667 3.667 0 0 0 0 7.333h7.334a3.667 3.667 0 0 0 0-7.333h-7.334zm-3.666 18.333a3.667 3.667 0 0 1 3.666-3.666h29.334a3.667 3.667 0 0 1 0 7.333H29.333a3.667 3.667 0 0 1-3.666-3.667zm0 14.667a3.667 3.667 0 0 1 3.666-3.667h29.334a3.667 3.667 0 0 1 0 7.334H29.333A3.667 3.667 0 0 1 25.667 66z" fill="#DFAC14"/></g></svg>