<svg width="24" height="30" viewBox="0 0 24 30" fill="none" xmlns="http://www.w3.org/2000/svg"><path d="M14.667 2.025v5.508c0 .747 0 1.12.145 1.405.128.251.332.455.583.583.285.145.658.145 1.405.145h5.507m-4.974 6.667H6.667m10.666 5.333H6.667m2.666-10.667H6.667m8-9.333H7.733c-2.24 0-3.36 0-4.216.436A4 4 0 0 0 1.77 3.85c-.436.856-.436 1.976-.436 4.216v13.867c0 2.24 0 3.36.436 4.216a4 4 0 0 0 1.748 1.748c.856.436 1.976.436 4.216.436h8.534c2.24 0 3.36 0 4.216-.436a4 4 0 0 0 1.748-1.748c.436-.856.436-1.976.436-4.216V9.666l-8-8z" stroke="#030F1A" stroke-width="2" stroke-linecap="round" stroke-linejoin="round"/></svg>