<svg width="64" height="64" viewBox="0 0 64 64" fill="none" xmlns="http://www.w3.org/2000/svg"><g clip-path="url(#clip0_3226_31484)"><path d="M64 0H0v64h64V0z" fill="#fff"/><path d="M9.655 8H8v1.655h1.655V8zm1.655 0H9.655v1.655h1.655V8zm1.656 0H11.31v1.655h1.655V8zm1.654 0h-1.654v1.655h1.655V8z" fill="#000"/><path d="M16.276 8H14.62v1.655h1.655V8zm1.655 0h-1.655v1.655h1.655V8z" fill="#000"/><path d="M19.586 8h-1.655v1.655h1.655V8zm3.311 0H21.24v1.655h1.656V8zm6.62 0h-1.655v1.655h1.655V8zm1.655 0h-1.655v1.655h1.655V8zm1.656 0h-1.656v1.655h1.656V8z" fill="#000"/><path d="M34.483 8h-1.655v1.655h1.655V8zm1.655 0h-1.655v1.655h1.655V8zm3.31 0h-1.655v1.655h1.655V8zm3.311 0h-1.656v1.655h1.656V8zm3.31 0h-1.655v1.655h1.655V8zm1.655 0H46.07v1.655h1.655V8z" fill="#000"/><path d="M49.38 8h-1.656v1.655h1.655V8z" fill="#000"/><path d="M51.035 8h-1.656v1.655h1.656V8zm1.655 0h-1.655v1.655h1.655V8zm1.655 0H52.69v1.655h1.655V8zM56 8h-1.655v1.655H56V8zM9.655 9.655H8v1.655h1.655V9.655zm9.931 0h-1.655v1.655h1.655V9.655zm4.966 0h-1.655v1.655h1.655V9.655zm1.655 0h-1.655v1.655h1.655V9.655zm3.31 0h-1.655v1.655h1.655V9.655zm3.311 0h-1.656v1.655h1.656V9.655z" fill="#000"/><path d="M34.483 9.655h-1.655v1.655h1.655V9.655zm3.31 0h-1.655v1.655h1.655V9.655zm8.276 0h-1.655v1.655h1.655V9.655zm9.931 0h-1.655v1.655H56V9.655zM9.655 11.31H8v1.655h1.655V11.31zm3.311 0H11.31v1.655h1.655V11.31zm1.654 0h-1.654v1.655h1.655V11.31z" fill="#000"/><path d="M16.276 11.31H14.62v1.655h1.655V11.31zm3.31 0h-1.655v1.655h1.655V11.31zm8.276 0h-1.655v1.655h1.655V11.31zm3.31 0h-1.655v1.655h1.655V11.31zm6.621 0h-1.655v1.655h1.655V11.31zm1.655 0h-1.655v1.655h1.655V11.31zm1.655 0h-1.655v1.655h1.655V11.31zm1.656 0h-1.656v1.655h1.656V11.31zm3.31 0h-1.655v1.655h1.655V11.31zm3.311 0h-1.656v1.655h1.655V11.31z" fill="#000"/><path d="M51.035 11.31h-1.656v1.655h1.656V11.31zm1.655 0h-1.655v1.655h1.655V11.31zm3.31 0h-1.655v1.655H56V11.31zM9.655 12.966H8v1.655h1.655v-1.655zm3.311 0H11.31v1.655h1.655v-1.655zm1.654 0h-1.654v1.655h1.655v-1.655z" fill="#000"/><path d="M16.276 12.966H14.62v1.655h1.655v-1.655zm3.31 0h-1.655v1.655h1.655v-1.655zm3.311 0H21.24v1.655h1.656v-1.655zm4.965 0h-1.655v1.655h1.655v-1.655zm3.31 0h-1.655v1.655h1.655v-1.655zm1.656 0h-1.656v1.655h1.656v-1.655zm6.62 0h-1.655v1.655h1.655v-1.655zm6.621 0h-1.655v1.655h1.655v-1.655zm3.311 0h-1.656v1.655h1.655v-1.655z" fill="#000"/><path d="M51.035 12.966h-1.656v1.655h1.656v-1.655zm1.655 0h-1.655v1.655h1.655v-1.655zm3.31 0h-1.655v1.655H56v-1.655zM9.655 14.62H8v1.656h1.655V14.62zm3.311 0H11.31v1.656h1.655V14.62zm1.654 0h-1.654v1.656h1.655V14.62z" fill="#000"/><path d="M16.276 14.62H14.62v1.656h1.655V14.62zm3.31 0h-1.655v1.656h1.655V14.62zm4.966 0h-1.655v1.656h1.655V14.62zm1.655 0h-1.655v1.656h1.655V14.62zm4.965 0h-1.655v1.656h1.655V14.62zm1.656 0h-1.656v1.656h1.656V14.62zm3.31 0h-1.655v1.656h1.655V14.62zm6.621 0h-1.656v1.656h1.656V14.62zm3.31 0h-1.655v1.656h1.655V14.62zm3.311 0h-1.656v1.656h1.655V14.62z" fill="#000"/><path d="M51.035 14.62h-1.656v1.656h1.656V14.62zm1.655 0h-1.655v1.656h1.655V14.62zm3.31 0h-1.655v1.656H56V14.62zM9.655 16.276H8v1.655h1.655v-1.655zm9.931 0h-1.655v1.655h1.655v-1.655zm3.311 0H21.24v1.655h1.656v-1.655zm6.62 0h-1.655v1.655h1.655v-1.655zm4.966 0h-1.655v1.655h1.655v-1.655zm1.655 0h-1.655v1.655h1.655v-1.655zm1.655 0h-1.655v1.655h1.655v-1.655zm1.655 0h-1.655v1.655h1.655v-1.655zm6.621 0h-1.655v1.655h1.655v-1.655zm9.931 0h-1.655v1.655H56v-1.655zM9.655 17.931H8v1.655h1.655v-1.655zm1.655 0H9.655v1.655h1.655v-1.655zm1.656 0H11.31v1.655h1.655v-1.655zm1.654 0h-1.654v1.655h1.655v-1.655z" fill="#000"/><path d="M16.276 17.931H14.62v1.655h1.655v-1.655zm1.655 0h-1.655v1.655h1.655v-1.655z" fill="#000"/><path d="M19.586 17.931h-1.655v1.655h1.655v-1.655zm3.311 0H21.24v1.655h1.656v-1.655zm3.31 0h-1.655v1.655h1.655v-1.655zm3.31 0h-1.655v1.655h1.655v-1.655zm3.311 0h-1.656v1.655h1.656v-1.655zm3.31 0h-1.655v1.655h1.655v-1.655zm3.31 0h-1.655v1.655h1.655v-1.655zm3.311 0h-1.656v1.655h1.656v-1.655zm3.31 0h-1.655v1.655h1.655v-1.655zm1.655 0H46.07v1.655h1.655v-1.655z" fill="#000"/><path d="M49.38 17.931h-1.656v1.655h1.655v-1.655z" fill="#000"/><path d="M51.035 17.931h-1.656v1.655h1.656v-1.655zm1.655 0h-1.655v1.655h1.655v-1.655zm1.655 0H52.69v1.655h1.655v-1.655zm1.655 0h-1.655v1.655H56v-1.655zm-29.793 1.655h-1.655v1.655h1.655v-1.655zm4.965 0h-1.655v1.655h1.655v-1.655zm4.966 0h-1.655v1.655h1.655v-1.655zm3.31 0h-1.655v1.655h1.655v-1.655zm1.655 0h-1.655v1.655h1.655v-1.655zm1.656 0h-1.656v1.655h1.656v-1.655zm-24.828 1.655h-1.655v1.656h1.655V21.24z" fill="#000"/><path d="M19.586 21.241h-1.655v1.656h1.655V21.24zm3.311 0H21.24v1.656h1.656V21.24zm6.62 0h-1.655v1.656h1.655V21.24zm6.621 0h-1.655v1.656h1.655V21.24zm8.276 0h-1.655v1.656h1.655V21.24zm3.31 0H46.07v1.656h1.655V21.24zm3.311 0h-1.656v1.656h1.656V21.24zm4.965 0h-1.655v1.656H56V21.24zM9.655 22.897H8v1.655h1.655v-1.655zm3.311 0H11.31v1.655h1.655v-1.655zm1.654 0h-1.654v1.655h1.655v-1.655z" fill="#000"/><path d="M16.276 22.897H14.62v1.655h1.655v-1.655zm4.965 0h-1.655v1.655h1.655v-1.655zm6.621 0h-1.655v1.655h1.655v-1.655zm1.655 0h-1.655v1.655h1.655v-1.655zm1.655 0h-1.655v1.655h1.655v-1.655zm4.966 0h-1.655v1.655h1.655v-1.655zm3.31 0h-1.655v1.655h1.655v-1.655zm1.655 0h-1.655v1.655h1.655v-1.655zm1.656 0h-1.656v1.655h1.656v-1.655zm1.655 0h-1.655v1.655h1.655v-1.655zm1.655 0h-1.655v1.655h1.655v-1.655zm3.311 0h-1.656v1.655h1.655v-1.655z" fill="#000"/><path d="M51.035 22.897h-1.656v1.655h1.656v-1.655zm3.31 0H52.69v1.655h1.655v-1.655zM11.31 24.552H9.655v1.655h1.655v-1.655zm1.656 0H11.31v1.655h1.655v-1.655zm4.965 0h-1.655v1.655h1.655v-1.655z" fill="#000"/><path d="M19.586 24.552h-1.655v1.655h1.655v-1.655zm1.655 0h-1.655v1.655h1.655v-1.655z" fill="#000"/><path d="M22.897 24.552H21.24v1.655h1.656v-1.655zm1.655 0h-1.655v1.655h1.655v-1.655zm3.31 0h-1.655v1.655h1.655v-1.655zm1.655 0h-1.655v1.655h1.655v-1.655zm3.311 0h-1.656v1.655h1.656v-1.655z" fill="#000"/><path d="M34.483 24.552h-1.655v1.655h1.655v-1.655zm3.31 0h-1.655v1.655h1.655v-1.655zm1.655 0h-1.655v1.655h1.655v-1.655zm1.655 0h-1.655v1.655h1.655v-1.655zm3.311 0h-1.655v1.655h1.655v-1.655zm4.966 0h-1.656v1.655h1.655v-1.655z" fill="#000"/><path d="M51.035 24.552h-1.656v1.655h1.656v-1.655zm1.655 0h-1.655v1.655h1.655v-1.655zM9.655 26.207H8v1.655h1.655v-1.655zm3.311 0H11.31v1.655h1.655v-1.655zm3.31 0H14.62v1.655h1.655v-1.655zm1.655 0h-1.655v1.655h1.655v-1.655zm6.621 0h-1.655v1.655h1.655v-1.655zm3.31 0h-1.655v1.655h1.655v-1.655zm4.966 0h-1.656v1.655h1.656v-1.655zm6.62 0h-1.655v1.655h1.655v-1.655zm1.655 0h-1.655v1.655h1.655v-1.655zm1.656 0h-1.656v1.655h1.656v-1.655zm3.31 0h-1.655v1.655h1.655v-1.655zm4.966 0h-1.656v1.655h1.656v-1.655zm1.655 0h-1.655v1.655h1.655v-1.655z" fill="#000"/><path d="M9.655 27.862H8v1.655h1.655v-1.655zm1.655 0H9.655v1.655h1.655v-1.655zm3.31 0h-1.654v1.655h1.655v-1.655zm4.966 0h-1.655v1.655h1.655v-1.655zm11.586 0h-1.655v1.655h1.655v-1.655zm1.656 0h-1.656v1.655h1.656v-1.655zm1.655 0h-1.655v1.655h1.655v-1.655zm1.655 0h-1.655v1.655h1.655v-1.655zm1.655 0h-1.655v1.655h1.655v-1.655zm3.31 0h-1.655v1.655h1.655v-1.655zm3.311 0h-1.655v1.655h1.655v-1.655zm3.31 0H46.07v1.655h1.655v-1.655z" fill="#000"/><path d="M49.38 27.862h-1.656v1.655h1.655v-1.655z" fill="#000"/><path d="M51.035 27.862h-1.656v1.655h1.656v-1.655zm3.31 0H52.69v1.655h1.655v-1.655zm1.655 0h-1.655v1.655H56v-1.655zm-41.38 1.655h-1.654v1.655h1.655v-1.655zm6.621 0h-1.655v1.655h1.655v-1.655zm3.311 0h-1.655v1.655h1.655v-1.655zm1.655 0h-1.655v1.655h1.655v-1.655z" fill="#000"/><path d="M27.862 29.517h-1.655v1.655h1.655v-1.655zm3.31 0h-1.655v1.655h1.655v-1.655zm1.656 0h-1.656v1.655h1.656v-1.655zm3.31 0h-1.655v1.655h1.655v-1.655zm1.655 0h-1.655v1.655h1.655v-1.655zm18.207 0h-1.655v1.655H56v-1.655zM9.655 31.172H8v1.656h1.655v-1.656zm3.311 0H11.31v1.656h1.655v-1.656zm6.62 0h-1.655v1.656h1.655v-1.656zm3.311 0H21.24v1.656h1.656v-1.656zm3.31 0h-1.655v1.656h1.655v-1.656zm3.31 0h-1.655v1.656h1.655v-1.656zm1.655 0h-1.655v1.656h1.655v-1.656zm1.656 0h-1.656v1.656h1.656v-1.656zm4.965 0h-1.655v1.656h1.655v-1.656zm1.655 0h-1.655v1.656h1.655v-1.656zm1.655 0h-1.655v1.656h1.655v-1.656zm3.311 0h-1.655v1.656h1.655v-1.656zm3.31 0H46.07v1.656h1.655v-1.656zm4.966 0h-1.655v1.656h1.655v-1.656zm1.655 0H52.69v1.656h1.655v-1.656zm-41.379 1.656H11.31v1.655h1.655v-1.655zm4.965 0h-1.655v1.655h1.655v-1.655zm3.31 0h-1.655v1.655h1.655v-1.655zm3.311 0h-1.655v1.655h1.655v-1.655zm1.655 0h-1.655v1.655h1.655v-1.655zm3.31 0h-1.655v1.655h1.655v-1.655zm1.655 0h-1.655v1.655h1.655v-1.655zm3.311 0h-1.655v1.655h1.655v-1.655zm3.31 0h-1.655v1.655h1.655v-1.655zm1.655 0h-1.655v1.655h1.655v-1.655zm3.311 0h-1.656v1.655h1.656v-1.655zm1.655 0h-1.655v1.655h1.655v-1.655zm6.621 0h-1.656v1.655h1.656v-1.655zm3.31 0H52.69v1.655h1.655v-1.655zM11.31 34.483H9.655v1.655h1.655v-1.655zm3.31 0h-1.654v1.655h1.655v-1.655z" fill="#000"/><path d="M17.931 34.483h-1.655v1.655h1.655v-1.655z" fill="#000"/><path d="M19.586 34.483h-1.655v1.655h1.655v-1.655zm1.655 0h-1.655v1.655h1.655v-1.655z" fill="#000"/><path d="M22.897 34.483H21.24v1.655h1.656v-1.655zm1.655 0h-1.655v1.655h1.655v-1.655zm3.31 0h-1.655v1.655h1.655v-1.655zm3.31 0h-1.655v1.655h1.655v-1.655zm6.621 0h-1.655v1.655h1.655v-1.655zm1.655 0h-1.655v1.655h1.655v-1.655zm3.311 0h-1.656v1.655h1.656v-1.655zm13.241 0h-1.655v1.655H56v-1.655zm-43.034 1.655H11.31v1.655h1.655v-1.655zm8.275 0h-1.655v1.655h1.655v-1.655zm3.311 0h-1.655v1.655h1.655v-1.655zm4.965 0h-1.655v1.655h1.655v-1.655zm3.311 0h-1.656v1.655h1.656v-1.655z" fill="#000"/><path d="M34.483 36.138h-1.655v1.655h1.655v-1.655zm1.655 0h-1.655v1.655h1.655v-1.655zm1.655 0h-1.655v1.655h1.655v-1.655zm3.31 0h-1.655v1.655h1.655v-1.655zm3.311 0h-1.655v1.655h1.655v-1.655zm1.655 0h-1.655v1.655h1.655v-1.655zm3.311 0h-1.656v1.655h1.655v-1.655z" fill="#000"/><path d="M51.035 36.138h-1.656v1.655h1.656v-1.655zm1.655 0h-1.655v1.655h1.655v-1.655zm1.655 0H52.69v1.655h1.655v-1.655zm-44.69 1.655H8v1.655h1.655v-1.655zm1.655 0H9.655v1.655h1.655v-1.655zm4.966 0H14.62v1.655h1.655v-1.655zm3.31 0h-1.655v1.655h1.655v-1.655zm4.966 0h-1.655v1.655h1.655v-1.655zm8.276 0h-1.656v1.655h1.656v-1.655zm6.62 0h-1.655v1.655h1.655v-1.655zm1.655 0h-1.655v1.655h1.655v-1.655zm3.311 0h-1.655v1.655h1.655v-1.655zm1.655 0h-1.655v1.655h1.655v-1.655zm1.655 0H46.07v1.655h1.655v-1.655z" fill="#000"/><path d="M49.38 37.793h-1.656v1.655h1.655v-1.655zm3.31 0h-1.655v1.655h1.655v-1.655zM9.655 39.448H8v1.655h1.655v-1.655zm3.311 0H11.31v1.655h1.655v-1.655zm4.965 0h-1.655v1.655h1.655v-1.655zm4.966 0H21.24v1.655h1.656v-1.655zm3.31 0h-1.655v1.655h1.655v-1.655zm4.965 0h-1.655v1.655h1.655v-1.655zm3.311 0h-1.655v1.655h1.655v-1.655zm1.655 0h-1.655v1.655h1.655v-1.655zm1.655 0h-1.655v1.655h1.655v-1.655zm6.621 0h-1.655v1.655h1.655v-1.655zm3.31 0H46.07v1.655h1.655v-1.655zm4.966 0h-1.655v1.655h1.655v-1.655zm1.655 0H52.69v1.655h1.655v-1.655zm-41.379 1.655H11.31v1.656h1.655v-1.656zm6.62 0h-1.655v1.656h1.655v-1.656zm4.966 0h-1.655v1.656h1.655v-1.656zm3.31 0h-1.655v1.656h1.655v-1.656zm3.31 0h-1.655v1.656h1.655v-1.656zm1.656 0h-1.656v1.656h1.656v-1.656z" fill="#000"/><path d="M34.483 41.103h-1.655v1.656h1.655v-1.656zm4.965 0h-1.655v1.656h1.655v-1.656zm3.311 0h-1.656v1.656h1.656v-1.656zm1.655 0h-1.655v1.656h1.655v-1.656zm1.655 0h-1.655v1.656h1.655v-1.656zm1.655 0H46.07v1.656h1.655v-1.656z" fill="#000"/><path d="M49.38 41.103h-1.656v1.656h1.655v-1.656zm3.31 0h-1.655v1.656h1.655v-1.656zm1.655 0H52.69v1.656h1.655v-1.656zm1.655 0h-1.655v1.656H56v-1.656zm-33.103 1.656H21.24v1.655h1.656v-1.655zm1.655 0h-1.655v1.655h1.655v-1.655zm3.31 0h-1.655v1.655h1.655v-1.655zm1.655 0h-1.655v1.655h1.655v-1.655zm1.655 0h-1.655v1.655h1.655v-1.655zm3.311 0h-1.655v1.655h1.655v-1.655zm1.655 0h-1.655v1.655h1.655v-1.655zm1.655 0h-1.655v1.655h1.655v-1.655zm4.966 0h-1.656v1.655h1.656v-1.655zm6.621 0h-1.656v1.655h1.655v-1.655zM9.655 44.414H8v1.655h1.655v-1.655zm1.655 0H9.655v1.655h1.655v-1.655zm1.656 0H11.31v1.655h1.655v-1.655zm1.654 0h-1.654v1.655h1.655v-1.655z" fill="#000"/><path d="M16.276 44.414H14.62v1.655h1.655v-1.655zm1.655 0h-1.655v1.655h1.655v-1.655z" fill="#000"/><path d="M19.586 44.414h-1.655v1.655h1.655v-1.655zm4.966 0h-1.655v1.655h1.655v-1.655zm4.965 0h-1.655v1.655h1.655v-1.655zm3.311 0h-1.656v1.655h1.656v-1.655z" fill="#000"/><path d="M34.483 44.414h-1.655v1.655h1.655v-1.655zm3.31 0h-1.655v1.655h1.655v-1.655zm3.31 0h-1.655v1.655h1.655v-1.655zm1.656 0h-1.656v1.655h1.656v-1.655zm3.31 0h-1.655v1.655h1.655v-1.655zm3.311 0h-1.656v1.655h1.655v-1.655z" fill="#000"/><path d="M51.035 44.414h-1.656v1.655h1.656v-1.655zm3.31 0H52.69v1.655h1.655v-1.655zm-44.69 1.655H8v1.655h1.655V46.07zm9.931 0h-1.655v1.655h1.655V46.07zm3.311 0H21.24v1.655h1.656V46.07zm1.655 0h-1.655v1.655h1.655V46.07zm4.965 0h-1.655v1.655h1.655V46.07zm8.276 0h-1.655v1.655h1.655V46.07zm3.31 0h-1.655v1.655h1.655V46.07zm1.656 0h-1.656v1.655h1.656V46.07zm6.621 0h-1.656v1.655h1.655V46.07z" fill="#000"/><path d="M51.035 46.069h-1.656v1.655h1.656V46.07zm3.31 0H52.69v1.655h1.655V46.07zm-44.69 1.655H8v1.655h1.655v-1.655zm3.311 0H11.31v1.655h1.655v-1.655zm1.654 0h-1.654v1.655h1.655v-1.655z" fill="#000"/><path d="M16.276 47.724H14.62v1.655h1.655v-1.655zm3.31 0h-1.655v1.655h1.655v-1.655zm6.621 0h-1.655v1.655h1.655v-1.655zm3.31 0h-1.655v1.655h1.655v-1.655zm4.966 0h-1.655v1.655h1.655v-1.655zm1.655 0h-1.655v1.655h1.655v-1.655zm6.621 0h-1.656v1.655h1.656v-1.655zm1.655 0h-1.655v1.655h1.655v-1.655zm1.655 0h-1.655v1.655h1.655v-1.655zm1.655 0H46.07v1.655h1.655v-1.655z" fill="#000"/><path d="M49.38 47.724h-1.656v1.655h1.655v-1.655zm3.31 0h-1.655v1.655h1.655v-1.655zm3.31 0h-1.655v1.655H56v-1.655zM9.655 49.38H8v1.654h1.655V49.38zm3.311 0H11.31v1.654h1.655V49.38zm1.654 0h-1.654v1.654h1.655V49.38z" fill="#000"/><path d="M16.276 49.38H14.62v1.654h1.655V49.38zm3.31 0h-1.655v1.654h1.655V49.38zm4.966 0h-1.655v1.654h1.655V49.38zm1.655 0h-1.655v1.654h1.655V49.38zm3.31 0h-1.655v1.654h1.655V49.38zm3.311 0h-1.656v1.654h1.656V49.38zm3.31 0h-1.655v1.654h1.655V49.38zm3.31 0h-1.655v1.654h1.655V49.38zm1.655 0h-1.655v1.654h1.655V49.38zm1.656 0h-1.656v1.654h1.656V49.38zm6.621 0h-1.656v1.654h1.655V49.38zm4.965 0H52.69v1.654h1.655V49.38zm1.655 0h-1.655v1.654H56V49.38zM9.655 51.035H8v1.655h1.655v-1.655zm3.311 0H11.31v1.655h1.655v-1.655zm1.654 0h-1.654v1.655h1.655v-1.655z" fill="#000"/><path d="M16.276 51.035H14.62v1.655h1.655v-1.655zm3.31 0h-1.655v1.655h1.655v-1.655zm6.621 0h-1.655v1.655h1.655v-1.655z" fill="#000"/><path d="M27.862 51.035h-1.655v1.655h1.655v-1.655zm3.31 0h-1.655v1.655h1.655v-1.655zm11.587 0h-1.656v1.655h1.656v-1.655zm3.31 0h-1.655v1.655h1.655v-1.655zm1.655 0H46.07v1.655h1.655v-1.655zm4.966 0h-1.655v1.655h1.655v-1.655zM9.655 52.69H8v1.655h1.655V52.69zm9.931 0h-1.655v1.655h1.655V52.69zm4.966 0h-1.655v1.655h1.655V52.69zm8.276 0h-1.656v1.655h1.656V52.69zm4.965 0h-1.655v1.655h1.655V52.69zm1.655 0h-1.655v1.655h1.655V52.69zm1.655 0h-1.655v1.655h1.655V52.69zm4.966 0h-1.655v1.655h1.655V52.69zm3.311 0h-1.656v1.655h1.655V52.69zm4.965 0H52.69v1.655h1.655V52.69zm1.655 0h-1.655v1.655H56V52.69zM9.655 54.345H8V56h1.655v-1.655zm1.655 0H9.655V56h1.655v-1.655zm1.656 0H11.31V56h1.655v-1.655zm1.654 0h-1.654V56h1.655v-1.655z" fill="#000"/><path d="M16.276 54.345H14.62V56h1.655v-1.655zm1.655 0h-1.655V56h1.655v-1.655z" fill="#000"/><path d="M19.586 54.345h-1.655V56h1.655v-1.655zm4.966 0h-1.655V56h1.655v-1.655zm8.276 0h-1.656V56h1.656v-1.655zm4.965 0h-1.655V56h1.655v-1.655zm1.655 0h-1.655V56h1.655v-1.655zm1.655 0h-1.655V56h1.655v-1.655zm1.656 0h-1.656V56h1.656v-1.655zm4.965 0H46.07V56h1.655v-1.655zm3.311 0h-1.656V56h1.656v-1.655zm1.655 0h-1.655V56h1.655v-1.655z" fill="#000"/></g><defs><clipPath id="clip0_3226_31484"><path fill="#fff" d="M0 0h64v64H0z"/></clipPath></defs></svg>