<svg width="164" height="160" viewBox="0 0 164 160" fill="none" xmlns="http://www.w3.org/2000/svg"><path d="M5.655 0H0v5.517h5.655V0zm5.655 0H5.655v5.517h5.655V0zm5.655 0H11.31v5.517h5.655V0zm5.655 0h-5.655v5.517h5.656V0z" fill="#000"/><path d="M28.276 0H22.62v5.517h5.655V0z" fill="#000"/><path d="M33.931 0h-5.655v5.517h5.655V0zm5.655 0h-5.655v5.517h5.655V0zm11.311 0H45.24v5.517h5.656V0zm22.62 0h-5.655v5.517h5.655V0zm5.655 0h-5.655v5.517h5.655V0zm5.656 0h-5.656v5.517h5.656V0zm5.655 0h-5.655v5.517h5.655V0zm5.655 0h-5.655v5.517h5.655V0zm11.31 0h-5.655v5.517h5.655V0zm11.311 0h-5.656v5.517h5.656V0zm11.31 0h-5.655v5.517h5.655V0zm5.655 0h-5.655v5.517h5.655V0zm5.655 0h-5.655v5.517h5.655V0zm5.655 0h-5.655v5.517h5.655V0zm5.656 0h-5.656v5.517h5.656V0zm5.655 0h-5.655v5.517h5.655V0zM164 0h-5.655v5.517H164V0zM5.655 5.517H0v5.517h5.655V5.517zm33.931 0h-5.655v5.517h5.655V5.517zm16.966 0h-5.655v5.517h5.655V5.517zm5.655 0h-5.655v5.517h5.655V5.517zm11.31 0h-5.655v5.517h5.655V5.517zm11.311 0h-5.656v5.517h5.656V5.517zm5.655 0h-5.655v5.517h5.655V5.517zm11.31 0h-5.655v5.517h5.655V5.517zm28.276 0h-5.655v5.517h5.655V5.517zm33.931 0h-5.655v5.517H164V5.517z" fill="#000"/><path d="M5.655 11.034H0v5.518h5.655v-5.518zm11.31 0H11.31v5.518h5.655v-5.518zm5.655 0h-5.655v5.518h5.656v-5.518z" fill="#000"/><path d="M28.276 11.034H22.62v5.518h5.655v-5.518zm11.31 0h-5.655v5.518h5.655v-5.518zm28.276 0h-5.655v5.518h5.655v-5.518zm11.31 0h-5.655v5.518h5.655v-5.518zm22.621 0h-5.655v5.518h5.655v-5.518zm5.655 0h-5.655v5.518h5.655v-5.518zm5.655 0h-5.655v5.518h5.655v-5.518zm5.656 0h-5.656v5.518h5.656v-5.518zm11.31 0h-5.655v5.518h5.655v-5.518zm11.31 0h-5.655v5.518h5.655v-5.518zm5.655 0h-5.655v5.518h5.655v-5.518zm5.656 0h-5.656v5.518h5.656v-5.518zm11.31 0h-5.655v5.518H164v-5.518zM5.655 16.552H0v5.517h5.655v-5.517zm11.31 0H11.31v5.517h5.655v-5.517zm5.655 0h-5.655v5.517h5.656v-5.517z" fill="#000"/><path d="M28.276 16.552H22.62v5.517h5.655v-5.517zm11.31 0h-5.655v5.517h5.655v-5.517zm11.311 0H45.24v5.517h5.656v-5.517zm16.965 0h-5.655v5.517h5.655v-5.517zm11.31 0h-5.655v5.517h5.655v-5.517zm5.656 0h-5.656v5.517h5.656v-5.517zm22.62 0h-5.655v5.517h5.655v-5.517zm22.621 0h-5.655v5.517h5.655v-5.517zm11.31 0h-5.655v5.517h5.655v-5.517zm5.655 0h-5.655v5.517h5.655v-5.517zm5.656 0h-5.656v5.517h5.656v-5.517zm11.31 0h-5.655v5.517H164v-5.517zM5.655 22.069H0v5.517h5.655V22.07zm11.31 0H11.31v5.517h5.655V22.07zm5.655 0h-5.655v5.517h5.656V22.07z" fill="#000"/><path d="M28.276 22.069H22.62v5.517h5.655V22.07zm11.31 0h-5.655v5.517h5.655V22.07zm16.966 0h-5.655v5.517h5.655V22.07zm5.655 0h-5.655v5.517h5.655V22.07zm16.965 0h-5.655v5.517h5.655V22.07zm5.656 0h-5.656v5.517h5.656V22.07zm11.31 0h-5.655v5.517h5.655V22.07zm22.621 0h-5.656v5.517h5.656V22.07zm11.31 0h-5.655v5.517h5.655V22.07zm11.31 0h-5.655v5.517h5.655V22.07zm5.655 0h-5.655v5.517h5.655V22.07zm5.656 0h-5.656v5.517h5.656V22.07zm11.31 0h-5.655v5.517H164V22.07zM5.655 27.586H0v5.517h5.655v-5.517zm33.931 0h-5.655v5.517h5.655v-5.517zm11.311 0H45.24v5.517h5.656v-5.517zm22.62 0h-5.655v5.517h5.655v-5.517zm16.966 0h-5.655v5.517h5.655v-5.517zm5.655 0h-5.655v5.517h5.655v-5.517zm5.655 0h-5.655v5.517h5.655v-5.517z" fill="#000"/><path d="M107.448 27.586h-5.655v5.517h5.655v-5.517zm22.621 0h-5.655v5.517h5.655v-5.517zm33.931 0h-5.655v5.517H164v-5.517zM5.655 33.103H0v5.518h5.655v-5.518zm5.655 0H5.655v5.518h5.655v-5.518zm5.655 0H11.31v5.518h5.655v-5.518zm5.655 0h-5.655v5.518h5.656v-5.518z" fill="#000"/><path d="M28.276 33.103H22.62v5.518h5.655v-5.518z" fill="#000"/><path d="M33.931 33.103h-5.655v5.518h5.655v-5.518zm5.655 0h-5.655v5.518h5.655v-5.518zm11.311 0H45.24v5.518h5.656v-5.518zm11.31 0h-5.655v5.518h5.655v-5.518zm11.31 0h-5.655v5.518h5.655v-5.518zm11.311 0h-5.656v5.518h5.656v-5.518zm11.31 0h-5.655v5.518h5.655v-5.518zm11.31 0h-5.655v5.518h5.655v-5.518zm11.311 0h-5.656v5.518h5.656v-5.518zm11.31 0h-5.655v5.518h5.655v-5.518zm5.655 0h-5.655v5.518h5.655v-5.518zm5.655 0h-5.655v5.518h5.655v-5.518zm5.655 0h-5.655v5.518h5.655v-5.518zm5.656 0h-5.656v5.518h5.656v-5.518zm5.655 0h-5.655v5.518h5.655v-5.518zm5.655 0h-5.655v5.518H164v-5.518z" fill="#000"/><path d="M62.207 38.62h-5.655v5.518h5.655V38.62zm16.965 0h-5.655v5.518h5.655V38.62zm16.966 0h-5.655v5.518h5.655V38.62zm11.31 0h-5.655v5.518h5.655V38.62zm5.655 0h-5.655v5.518h5.655V38.62zm5.656 0h-5.656v5.518h5.656V38.62zm-84.828 5.518h-5.655v5.517h5.655v-5.517zm5.655 0h-5.655v5.517h5.655v-5.517zm11.311 0H45.24v5.517h5.656v-5.517zm22.62 0h-5.655v5.517h5.655v-5.517zm22.621 0h-5.655v5.517h5.655v-5.517zm28.276 0h-5.655v5.517h5.655v-5.517zm11.31 0h-5.655v5.517h5.655v-5.517zm11.31 0h-5.655v5.517h5.655v-5.517zm16.966 0h-5.655v5.517H164v-5.517zM5.655 49.655H0v5.517h5.655v-5.517zm11.31 0H11.31v5.517h5.655v-5.517zm5.655 0h-5.655v5.517h5.656v-5.517z" fill="#000"/><path d="M28.276 49.655H22.62v5.517h5.655v-5.517zm16.965 0h-5.655v5.517h5.655v-5.517zm22.621 0h-5.655v5.517h5.655v-5.517zm5.655 0h-5.655v5.517h5.655v-5.517zm5.655 0h-5.655v5.517h5.655v-5.517zm16.966 0h-5.655v5.517h5.655v-5.517zm11.31 0h-5.655v5.517h5.655v-5.517zm5.655 0h-5.655v5.517h5.655v-5.517zm5.656 0h-5.656v5.517h5.656v-5.517zm5.655 0h-5.655v5.517h5.655v-5.517z" fill="#000"/><path d="M130.069 49.655h-5.655v5.517h5.655v-5.517zm11.31 0h-5.655v5.517h5.655v-5.517zm5.655 0h-5.655v5.517h5.655v-5.517zm11.311 0h-5.655v5.517h5.655v-5.517zM11.31 55.172H5.655v5.518h5.655v-5.518zm5.655 0H11.31v5.518h5.655v-5.518zm16.966 0h-5.655v5.518h5.655v-5.518zm5.655 0h-5.655v5.518h5.655v-5.518zm5.655 0h-5.655v5.518h5.655v-5.518z" fill="#000"/><path d="M50.897 55.172H45.24v5.518h5.656v-5.518zm5.655 0h-5.655v5.518h5.655v-5.518zm11.31 0h-5.655v5.518h5.655v-5.518zm5.655 0h-5.655v5.518h5.655v-5.518zm11.311 0h-5.656v5.518h5.656v-5.518zm5.655 0h-5.655v5.518h5.655v-5.518zm11.31 0h-5.655v5.518h5.655v-5.518z" fill="#000"/><path d="M107.448 55.172h-5.655v5.518h5.655v-5.518zm5.655 0h-5.655v5.518h5.655v-5.518zm11.311 0h-5.655v5.518h5.655v-5.518zm16.965 0h-5.655v5.518h5.655v-5.518zm5.655 0h-5.655v5.518h5.655v-5.518zm5.656 0h-5.656v5.518h5.656v-5.518zM5.655 60.69H0v5.517h5.655V60.69zm11.31 0H11.31v5.517h5.655V60.69zm11.311 0H22.62v5.517h5.655V60.69z" fill="#000"/><path d="M33.931 60.69h-5.655v5.517h5.655V60.69zm22.621 0h-5.655v5.517h5.655V60.69zm11.31 0h-5.655v5.517h5.655V60.69zm16.966 0h-5.656v5.517h5.656V60.69zm22.62 0h-5.655v5.517h5.655V60.69zm5.655 0h-5.655v5.517h5.655V60.69zm5.656 0h-5.656v5.517h5.656V60.69zm11.31 0h-5.655v5.517h5.655V60.69zm16.965 0h-5.655v5.517h5.655V60.69zm5.656 0h-5.656v5.517h5.656V60.69zM5.655 66.207H0v5.517h5.655v-5.517zm5.655 0H5.655v5.517h5.655v-5.517zm11.31 0h-5.655v5.517h5.656v-5.517zm16.966 0h-5.655v5.517h5.655v-5.517zm39.586 0h-5.655v5.517h5.655v-5.517zm5.656 0h-5.656v5.517h5.656v-5.517zm5.655 0h-5.655v5.517h5.655v-5.517zm5.655 0h-5.655v5.517h5.655v-5.517zm5.655 0h-5.655v5.517h5.655v-5.517zm11.31 0h-5.655v5.517h5.655v-5.517zm11.311 0h-5.655v5.517h5.655v-5.517zm11.31 0h-5.655v5.517h5.655v-5.517zm5.655 0h-5.655v5.517h5.655v-5.517zm5.655 0h-5.655v5.517h5.655v-5.517zm11.311 0h-5.655v5.517h5.655v-5.517zm5.655 0h-5.655v5.517H164v-5.517zM22.62 71.724h-5.655v5.517h5.656v-5.517zm22.621 0h-5.655v5.517h5.655v-5.517zm11.311 0h-5.655v5.517h5.655v-5.517zm5.655 0h-5.655v5.517h5.655v-5.517z" fill="#000"/><path d="M67.862 71.724h-5.655v5.517h5.655v-5.517zm11.31 0h-5.655v5.517h5.655v-5.517zm5.656 0h-5.656v5.517h5.656v-5.517zm11.31 0h-5.655v5.517h5.655v-5.517zm5.655 0h-5.655v5.517h5.655v-5.517zm62.207 0h-5.655v5.517H164v-5.517zM5.655 77.241H0v5.518h5.655V77.24zm11.31 0H11.31v5.518h5.655V77.24zm22.621 0h-5.655v5.518h5.655V77.24zm11.311 0H45.24v5.518h5.656V77.24z" fill="#000"/><path d="M62.207 77.241h-5.655v5.518h5.655V77.24zm11.31 0h-5.655v5.518h5.655V77.24zm5.655 0h-5.655v5.518h5.655V77.24zm5.656 0h-5.656v5.518h5.656V77.24zm16.965 0h-5.655v5.518h5.655V77.24z" fill="#000"/><path d="M107.448 77.241h-5.655v5.518h5.655V77.24zm5.655 0h-5.655v5.518h5.655V77.24zm11.311 0h-5.655v5.518h5.655V77.24zm11.31 0h-5.655v5.518h5.655V77.24zm16.966 0h-5.656v5.518h5.656V77.24zm5.655 0h-5.655v5.518h5.655V77.24zm-141.38 5.518H11.31v5.517h5.655v-5.517zm16.966 0h-5.655v5.517h5.655v-5.517zm11.31 0h-5.655v5.517h5.655v-5.517zm11.311 0h-5.655v5.517h5.655v-5.517zm5.655 0h-5.655v5.517h5.655v-5.517zm11.31 0h-5.655v5.517h5.655v-5.517zm5.655 0h-5.655v5.517h5.655v-5.517zm11.311 0h-5.655v5.517h5.655v-5.517zm11.31 0h-5.655v5.517h5.655v-5.517z" fill="#000"/><path d="M107.448 82.759h-5.655v5.517h5.655v-5.517zm11.311 0h-5.656v5.517h5.656v-5.517zm5.655 0h-5.655v5.517h5.655v-5.517zm22.62 0h-5.655v5.517h5.655v-5.517zm11.311 0h-5.655v5.517h5.655v-5.517zM11.31 88.276H5.655v5.517h5.655v-5.517zm11.31 0h-5.655v5.517h5.656v-5.517zm11.311 0h-5.655v5.517h5.655v-5.517zm5.655 0h-5.655v5.517h5.655v-5.517zm5.655 0h-5.655v5.517h5.655v-5.517z" fill="#000"/><path d="M50.897 88.276H45.24v5.517h5.656v-5.517zm5.655 0h-5.655v5.517h5.655v-5.517zm11.31 0h-5.655v5.517h5.655v-5.517zm11.31 0h-5.655v5.517h5.655v-5.517zm22.621 0h-5.655v5.517h5.655v-5.517zm5.655 0h-5.655v5.517h5.655v-5.517zm11.311 0h-5.656v5.517h5.656v-5.517zm45.241 0h-5.655v5.517H164v-5.517zM16.965 93.793H11.31v5.517h5.655v-5.517zm28.276 0h-5.655v5.517h5.655v-5.517zm11.311 0h-5.655v5.517h5.655v-5.517zm16.965 0h-5.655v5.517h5.655v-5.517zm11.311 0h-5.656v5.517h5.656v-5.517zm5.655 0h-5.655v5.517h5.655v-5.517zm5.655 0h-5.655v5.517h5.655v-5.517zm5.655 0h-5.655v5.517h5.655v-5.517zm11.31 0h-5.655v5.517h5.655v-5.517zm11.311 0h-5.655v5.517h5.655v-5.517z" fill="#000"/><path d="M130.069 93.793h-5.655v5.517h5.655v-5.517zm11.31 0h-5.655v5.517h5.655v-5.517zm5.655 0h-5.655v5.517h5.655v-5.517zm5.656 0h-5.656v5.517h5.656v-5.517zm5.655 0h-5.655v5.517h5.655v-5.517zM5.655 99.31H0v5.518h5.655V99.31zm5.655 0H5.655v5.518h5.655V99.31zm16.966 0H22.62v5.518h5.655V99.31zm11.31 0h-5.655v5.518h5.655V99.31zm16.966 0h-5.655v5.518h5.655V99.31zm28.276 0h-5.656v5.518h5.656V99.31zm22.62 0h-5.655v5.518h5.655V99.31zm5.655 0h-5.655v5.518h5.655V99.31zm11.311 0h-5.655v5.518h5.655V99.31z" fill="#000"/><path d="M130.069 99.31h-5.655v5.518h5.655V99.31zm5.655 0h-5.655v5.518h5.655V99.31zm5.655 0h-5.655v5.518h5.655V99.31zm11.311 0h-5.656v5.518h5.656V99.31zM5.655 104.828H0v5.517h5.655v-5.517zm11.31 0H11.31v5.517h5.655v-5.517zm16.966 0h-5.655v5.517h5.655v-5.517zm16.966 0H45.24v5.517h5.656v-5.517zm11.31 0h-5.655v5.517h5.655v-5.517zm16.965 0h-5.655v5.517h5.655v-5.517zm11.311 0h-5.655v5.517h5.655v-5.517zm5.655 0h-5.655v5.517h5.655v-5.517zm5.655 0h-5.655v5.517h5.655v-5.517zm22.621 0h-5.655v5.517h5.655v-5.517zm11.31 0h-5.655v5.517h5.655v-5.517zm16.966 0h-5.656v5.517h5.656v-5.517zm5.655 0h-5.655v5.517h5.655v-5.517zm-141.38 5.517H11.31v5.517h5.655v-5.517zm22.621 0h-5.655v5.517h5.655v-5.517zm16.966 0h-5.655v5.517h5.655v-5.517zm11.31 0h-5.655v5.517h5.655v-5.517zm11.31 0h-5.655v5.517h5.655v-5.517zm5.656 0h-5.656v5.517h5.656v-5.517zm5.655 0h-5.655v5.517h5.655v-5.517zm16.965 0h-5.655v5.517h5.655v-5.517zm11.311 0h-5.656v5.517h5.656v-5.517zm5.655 0h-5.655v5.517h5.655v-5.517z" fill="#000"/><path d="M130.069 110.345h-5.655v5.517h5.655v-5.517zm5.655 0h-5.655v5.517h5.655v-5.517zm5.655 0h-5.655v5.517h5.655v-5.517zm11.311 0h-5.656v5.517h5.656v-5.517zm5.655 0h-5.655v5.517h5.655v-5.517zm5.655 0h-5.655v5.517H164v-5.517zm-113.103 5.517H45.24v5.517h5.656v-5.517zm5.655 0h-5.655v5.517h5.655v-5.517zm11.31 0h-5.655v5.517h5.655v-5.517zm5.655 0h-5.655v5.517h5.655v-5.517zm5.655 0h-5.655v5.517h5.655v-5.517zm11.311 0h-5.655v5.517h5.655v-5.517zm5.655 0h-5.655v5.517h5.655v-5.517zm5.655 0h-5.655v5.517h5.655v-5.517zm16.966 0h-5.656v5.517h5.656v-5.517zm22.62 0h-5.655v5.517h5.655v-5.517zM5.655 121.379H0v5.518h5.655v-5.518zm5.655 0H5.655v5.518h5.655v-5.518zm5.655 0H11.31v5.518h5.655v-5.518zm5.655 0h-5.655v5.518h5.656v-5.518z" fill="#000"/><path d="M28.276 121.379H22.62v5.518h5.655v-5.518z" fill="#000"/><path d="M33.931 121.379h-5.655v5.518h5.655v-5.518zm5.655 0h-5.655v5.518h5.655v-5.518zm16.966 0h-5.655v5.518h5.655v-5.518zm16.965 0h-5.655v5.518h5.655v-5.518zm11.311 0h-5.656v5.518h5.656v-5.518zm5.655 0h-5.655v5.518h5.655v-5.518zm11.31 0h-5.655v5.518h5.655v-5.518zm11.31 0h-5.655v5.518h5.655v-5.518zm5.656 0h-5.656v5.518h5.656v-5.518zm11.31 0h-5.655v5.518h5.655v-5.518zm11.31 0h-5.655v5.518h5.655v-5.518zm5.655 0h-5.655v5.518h5.655v-5.518zm11.311 0h-5.655v5.518h5.655v-5.518zm-152.69 5.518H0v5.517h5.655v-5.517zm33.931 0h-5.655v5.517h5.655v-5.517zm11.311 0H45.24v5.517h5.656v-5.517zm5.655 0h-5.655v5.517h5.655v-5.517zm16.965 0h-5.655v5.517h5.655v-5.517zm28.276 0h-5.655v5.517h5.655v-5.517zm11.31 0h-5.655v5.517h5.655v-5.517zm5.656 0h-5.656v5.517h5.656v-5.517zm22.62 0h-5.655v5.517h5.655v-5.517zm5.655 0h-5.655v5.517h5.655v-5.517zm11.311 0h-5.655v5.517h5.655v-5.517z" fill="#000"/><path d="M5.655 132.414H0v5.517h5.655v-5.517zm11.31 0H11.31v5.517h5.655v-5.517zm5.655 0h-5.655v5.517h5.656v-5.517z" fill="#000"/><path d="M28.276 132.414H22.62v5.517h5.655v-5.517zm11.31 0h-5.655v5.517h5.655v-5.517zm22.621 0h-5.655v5.517h5.655v-5.517zm11.31 0h-5.655v5.517h5.655v-5.517zm16.966 0h-5.655v5.517h5.655v-5.517zm5.655 0h-5.655v5.517h5.655v-5.517zm22.621 0h-5.656v5.517h5.656v-5.517zm5.655 0h-5.655v5.517h5.655v-5.517z" fill="#000"/><path d="M130.069 132.414h-5.655v5.517h5.655v-5.517zm5.655 0h-5.655v5.517h5.655v-5.517zm5.655 0h-5.655v5.517h5.655v-5.517zm11.311 0h-5.656v5.517h5.656v-5.517zm11.31 0h-5.655v5.517H164v-5.517zM5.655 137.931H0v5.517h5.655v-5.517zm11.31 0H11.31v5.517h5.655v-5.517zm5.655 0h-5.655v5.517h5.656v-5.517z" fill="#000"/><path d="M28.276 137.931H22.62v5.517h5.655v-5.517zm11.31 0h-5.655v5.517h5.655v-5.517zm16.966 0h-5.655v5.517h5.655v-5.517zm5.655 0h-5.655v5.517h5.655v-5.517zm11.31 0h-5.655v5.517h5.655v-5.517zm11.311 0h-5.656v5.517h5.656v-5.517zm11.31 0h-5.655v5.517h5.655v-5.517zm11.31 0h-5.655v5.517h5.655v-5.517zm5.655 0h-5.655v5.517h5.655v-5.517zm5.656 0h-5.656v5.517h5.656v-5.517zm22.62 0h-5.655v5.517h5.655v-5.517zm16.966 0h-5.655v5.517h5.655v-5.517zm5.655 0h-5.655v5.517H164v-5.517zM5.655 143.448H0v5.518h5.655v-5.518zm11.31 0H11.31v5.518h5.655v-5.518zm5.655 0h-5.655v5.518h5.656v-5.518z" fill="#000"/><path d="M28.276 143.448H22.62v5.518h5.655v-5.518zm11.31 0h-5.655v5.518h5.655v-5.518zm22.621 0h-5.655v5.518h5.655v-5.518zm5.655 0h-5.655v5.518h5.655v-5.518zm11.31 0h-5.655v5.518h5.655v-5.518zm39.587 0h-5.656v5.518h5.656v-5.518zm11.31 0h-5.655v5.518h5.655v-5.518zm5.655 0h-5.655v5.518h5.655v-5.518zm16.966 0h-5.656v5.518h5.656v-5.518zM5.655 148.966H0v5.517h5.655v-5.517zm33.931 0h-5.655v5.517h5.655v-5.517zm16.966 0h-5.655v5.517h5.655v-5.517zm28.276 0h-5.656v5.517h5.656v-5.517zm16.965 0h-5.655v5.517h5.655v-5.517z" fill="#000"/><path d="M107.448 148.966h-5.655v5.517h5.655v-5.517zm5.655 0h-5.655v5.517h5.655v-5.517zm16.966 0h-5.655v5.517h5.655v-5.517zm11.31 0h-5.655v5.517h5.655v-5.517zm16.966 0h-5.655v5.517h5.655v-5.517zm5.655 0h-5.655v5.517H164v-5.517zM5.655 154.483H0V160h5.655v-5.517zm5.655 0H5.655V160h5.655v-5.517zm5.655 0H11.31V160h5.655v-5.517zm5.655 0h-5.655V160h5.656v-5.517z" fill="#000"/><path d="M28.276 154.483H22.62V160h5.655v-5.517z" fill="#000"/><path d="M33.931 154.483h-5.655V160h5.655v-5.517zm5.655 0h-5.655V160h5.655v-5.517zm16.966 0h-5.655V160h5.655v-5.517zm28.276 0h-5.656V160h5.656v-5.517zm16.965 0h-5.655V160h5.655v-5.517z" fill="#000"/><path d="M107.448 154.483h-5.655V160h5.655v-5.517zm5.655 0h-5.655V160h5.655v-5.517zm5.656 0h-5.656V160h5.656v-5.517zm16.965 0h-5.655V160h5.655v-5.517zm11.31 0h-5.655V160h5.655v-5.517zm5.656 0h-5.656V160h5.656v-5.517z" fill="#000"/></svg>