<svg width="64" height="64" viewBox="0 0 64 64" fill="none" xmlns="http://www.w3.org/2000/svg"><path d="M36 9.335h-8V6.668a4 4 0 1 1 8 0v2.667z" fill="url(#paint0_linear_3436_157941)"/><path d="M52 28c0-11.045-8.955-20-20-20s-20 8.955-20 20v17.333h40V28z" fill="#F5BE00"/><path d="M52 45.332H12l-5.166 2.067a2.385 2.385 0 0 0 .885 4.6h48.563a2.385 2.385 0 0 0 .885-4.6l-5.166-2.067z" fill="url(#paint1_linear_3436_157941)"/><path d="M37.333 52a5.334 5.334 0 0 1-10.667 0h10.667z" fill="url(#paint2_linear_3436_157941)"/><defs><linearGradient id="paint0_linear_3436_157941" x1="32" y1="2.659" x2="32" y2="9.341" gradientUnits="userSpaceOnUse"><stop stop-color="#FEDE00"/><stop offset="1" stop-color="#FFD000"/></linearGradient><linearGradient id="paint1_linear_3436_157941" x1="32.001" y1="45.323" x2="32.001" y2="52.005" gradientUnits="userSpaceOnUse"><stop stop-color="#FEDE00"/><stop offset="1" stop-color="#FFD000"/></linearGradient><linearGradient id="paint2_linear_3436_157941" x1="31.999" y1="57.225" x2="31.999" y2="51.812" gradientUnits="userSpaceOnUse"><stop offset=".486" stop-color="#FBC300"/><stop offset="1" stop-color="#DBAA00"/></linearGradient></defs></svg>