<svg width="16" height="16" viewBox="0 0 16 16" fill="none" xmlns="http://www.w3.org/2000/svg">
<g id="check-verified-02">
<path id="Solid" fill-rule="evenodd" clip-rule="evenodd" d="M1.35368 7.9974C1.35348 7.90818 1.33596 7.81906 1.30112 7.73508L0.820156 6.57056C0.718546 6.32532 0.666058 6.06206 0.666016 5.79659C0.665973 5.53098 0.718266 5.26796 0.819908 5.02257C0.92155 4.77718 1.07055 4.55421 1.25839 4.36643C1.44618 4.17869 1.66912 4.02978 1.91446 3.92822L3.07708 3.44662C3.24546 3.377 3.37975 3.24331 3.44985 3.07512L3.93155 1.91215C4.13674 1.41676 4.53031 1.02317 5.0257 0.817965C5.52109 0.612762 6.0777 0.612761 6.57309 0.817965L7.73517 1.29933C7.9038 1.36895 8.09336 1.36886 8.26187 1.29894L8.26319 1.29839L9.42629 0.818674C9.92151 0.613749 10.4782 0.613682 10.9734 0.81879C11.4687 1.02395 11.8622 1.41744 12.0674 1.9127L12.5376 3.04774C12.5417 3.0567 12.5457 3.06579 12.5496 3.075C12.6192 3.24356 12.753 3.37756 12.9213 3.44759L14.0846 3.92946C14.58 4.13467 14.9736 4.52826 15.1788 5.02365C15.384 5.51904 15.384 6.07566 15.1788 6.57105L14.6972 7.73371C14.6622 7.81816 14.6448 7.90812 14.6447 7.9976C14.6448 8.08707 14.6622 8.17663 14.6972 8.26108L15.1788 9.42374C15.384 9.91913 15.384 10.4757 15.1788 10.9711C14.9736 11.4665 14.58 11.8601 14.0846 12.0653L12.9213 12.5472C12.753 12.6172 12.6192 12.7512 12.5496 12.9198C12.5457 12.929 12.5417 12.9381 12.5376 12.947L12.0674 14.0821C11.8622 14.5774 11.4687 14.9708 10.9734 15.176C10.4782 15.3811 9.92151 15.381 9.42629 15.1761L8.26319 14.6964L8.26187 14.6959C8.09336 14.6259 7.9038 14.6258 7.73517 14.6955L6.57309 15.1768C6.0777 15.382 5.52109 15.382 5.0257 15.1768C4.53031 14.9716 4.13674 14.578 3.93155 14.0826L3.44985 12.9197C3.37975 12.7515 3.24546 12.6178 3.07708 12.5482L1.91446 12.0666C1.66912 11.965 1.44618 11.8161 1.25839 11.6284C1.07055 11.4406 0.92155 11.2176 0.819908 10.9722C0.718266 10.7268 0.665973 10.4638 0.666016 10.1982C0.666058 9.93274 0.718546 9.66947 0.820156 9.42423L1.30112 8.25971C1.33596 8.17573 1.35348 8.08661 1.35368 7.9974ZM10.8041 6.80213C11.0644 6.54178 11.0644 6.11967 10.8041 5.85932C10.5437 5.59898 10.1216 5.59898 9.86128 5.85932L7.33268 8.38792L6.47075 7.52599C6.2104 7.26564 5.78829 7.26564 5.52794 7.52599C5.2676 7.78634 5.2676 8.20845 5.52794 8.4688L6.86128 9.80213C7.12163 10.0625 7.54374 10.0625 7.80409 9.80213L10.8041 6.80213Z" fill="#FECC2F"/>
</g>
</svg>
