<svg width="137" height="38" viewBox="0 0 137 38" fill="none" xmlns="http://www.w3.org/2000/svg">
<path d="M9.13769 21.9894C7.50666 21.9894 5.99354 21.6357 4.59832 20.9282C3.22275 20.2012 2.11248 19.1105 1.26749 17.6564C0.422495 16.2022 0 14.3845 0 12.2032C0 10.5919 0.245637 9.16716 0.73691 7.92915C1.24783 6.67149 1.93562 5.61034 2.80026 4.7457C3.68455 3.88106 4.67692 3.23258 5.77738 2.80026C6.89748 2.34829 8.05688 2.1223 9.25559 2.1223C10.5329 2.1223 11.6727 2.37776 12.6749 2.88869C13.6967 3.37996 14.5417 3.96949 15.2098 4.65727L12.5569 7.89968C12.0853 7.48701 11.5941 7.15294 11.0831 6.89748C10.5919 6.62237 10.022 6.48481 9.3735 6.48481C8.62676 6.48481 7.92915 6.7108 7.28067 7.16277C6.65184 7.59509 6.14092 8.22392 5.7479 9.04926C5.37453 9.8746 5.18785 10.867 5.18785 12.0264C5.18785 13.8146 5.56122 15.2 6.30795 16.1825C7.07434 17.1454 8.07654 17.6269 9.31454 17.6269C10.0613 17.6269 10.7196 17.4599 11.2895 17.1258C11.879 16.7917 12.3801 16.4085 12.7928 15.9762L15.4456 19.1597C14.6399 20.1029 13.6967 20.8103 12.6159 21.282C11.5351 21.7536 10.3757 21.9894 9.13769 21.9894Z" fill="#030F1A"/>
<path d="M17.0945 21.6357V6.89748H22.1644V21.6357H17.0945ZM19.6294 5.06994C18.8041 5.06994 18.136 4.84396 17.625 4.39198C17.1141 3.92036 16.8587 3.30136 16.8587 2.53497C16.8587 1.76858 17.1141 1.15941 17.625 0.707433C18.136 0.235811 18.8041 0 19.6294 0C20.4548 0 21.1229 0.235811 21.6338 0.707433C22.1448 1.15941 22.4002 1.76858 22.4002 2.53497C22.4002 3.30136 22.1448 3.92036 21.6338 4.39198C21.1229 4.84396 20.4548 5.06994 19.6294 5.06994Z" fill="#030F1A"/>
<path d="M31.0688 21.9894C29.1627 21.9894 27.7773 21.4392 26.9127 20.3387C26.0677 19.2186 25.6452 17.7644 25.6452 15.9762V10.8473H23.6997V7.07434L25.9399 6.89748L26.5295 3.06555H30.7151V6.89748H34.0754V10.8473H30.7151V15.8878C30.7151 16.6935 30.892 17.2535 31.2457 17.5679C31.5994 17.8824 32.0121 18.0396 32.4837 18.0396C32.7195 18.0396 32.9455 18.0199 33.1617 17.9806C33.3975 17.9217 33.6038 17.8627 33.7807 17.8037L34.547 21.4588C34.1737 21.5767 33.7021 21.6946 33.1322 21.8125C32.5623 21.9304 31.8745 21.9894 31.0688 21.9894Z" fill="#030F1A"/>
<path d="M36.2092 21.6357V6.89748H41.2792V21.6357H36.2092ZM38.7442 5.06994C37.9189 5.06994 37.2507 4.84396 36.7398 4.39198C36.2289 3.92036 35.9734 3.30136 35.9734 2.53497C35.9734 1.76858 36.2289 1.15941 36.7398 0.707433C37.2507 0.235811 37.9189 0 38.7442 0C39.5695 0 40.2377 0.235811 40.7486 0.707433C41.2595 1.15941 41.515 1.76858 41.515 2.53497C41.515 3.30136 41.2595 3.92036 40.7486 4.39198C40.2377 4.84396 39.5695 5.06994 38.7442 5.06994Z" fill="#030F1A"/>
<path d="M43.5809 21.6357V18.9239L49.1814 10.8473H44.2293V6.89748H55.4893V9.60931L49.8888 17.6858H55.6662V21.6357H43.5809Z" fill="#030F1A"/>
<path d="M64.0336 21.9894C62.5991 21.9894 61.3021 21.6848 60.1427 21.0756C59.0029 20.4665 58.099 19.592 57.4309 18.4522C56.7627 17.2928 56.4287 15.8976 56.4287 14.2666C56.4287 12.6749 56.7627 11.3091 57.4309 10.1694C58.1186 9.00995 59.0029 8.11584 60.0837 7.48701C61.1645 6.85818 62.3043 6.54376 63.503 6.54376C64.9572 6.54376 66.1559 6.868 67.0991 7.51648C68.062 8.14531 68.7695 9.00013 69.2214 10.0809C69.693 11.1617 69.9289 12.3604 69.9289 13.6771C69.9289 14.1094 69.8994 14.5319 69.8404 14.9445C69.8011 15.3376 69.7618 15.6225 69.7225 15.7994H61.3217C61.5576 16.6836 61.9801 17.3027 62.5892 17.6564C63.1984 17.9904 63.9157 18.1575 64.741 18.1575C65.6843 18.1575 66.6865 17.8627 67.7476 17.2732L69.3983 20.2798C68.6123 20.83 67.728 21.2525 66.7454 21.5473C65.7629 21.842 64.8589 21.9894 64.0336 21.9894ZM61.2628 12.498H65.6253C65.6253 11.9281 65.4779 11.4368 65.1832 11.0242C64.908 10.5919 64.3873 10.3757 63.6209 10.3757C63.0707 10.3757 62.5794 10.5427 62.1471 10.8768C61.7148 11.2109 61.42 11.7513 61.2628 12.498Z" fill="#030F1A"/>
<path d="M72.1209 21.6357V6.89748H76.2476L76.6013 8.66606H76.7193C77.3088 8.09619 77.9769 7.60491 78.7236 7.19224C79.49 6.75992 80.3743 6.54376 81.3765 6.54376C83.0076 6.54376 84.1768 7.09399 84.8842 8.19444C85.6113 9.27524 85.9748 10.7294 85.9748 12.5569V21.6357H80.9049V13.2054C80.9049 12.2622 80.787 11.6334 80.5512 11.3189C80.3154 11.0045 79.942 10.8473 79.4311 10.8473C78.9595 10.8473 78.5664 10.9456 78.252 11.1421C77.9376 11.3386 77.5839 11.6137 77.1909 11.9674V21.6357H72.1209Z" fill="#030F1A"/>
<path d="M94.0523 12.3211L93.7281 13.6476H97.2652L96.941 12.3211C96.7052 11.3975 96.4694 10.3953 96.2336 9.31454C95.9978 8.23374 95.7619 7.21189 95.5261 6.249H95.4082C95.2117 7.21189 94.9956 8.23374 94.7598 9.31454C94.5239 10.3953 94.2881 11.3975 94.0523 12.3211ZM86.6832 21.6357L92.5195 2.47602H98.6506L104.487 21.6357H99.1223L98.179 17.5679H92.8143L91.871 21.6357H86.6832Z" fill="#030F1A"/>
<path d="M105.312 26.8235V6.89748H109.439L109.792 8.25339H109.91C110.46 7.74247 111.079 7.3298 111.767 7.01539C112.475 6.70097 113.192 6.54376 113.919 6.54376C115.078 6.54376 116.081 6.85818 116.926 7.48701C117.79 8.09619 118.458 8.96083 118.93 10.0809C119.402 11.201 119.637 12.5176 119.637 14.0308C119.637 15.7208 119.343 17.1651 118.753 18.3638C118.164 19.5429 117.397 20.4468 116.454 21.0756C115.53 21.6848 114.548 21.9894 113.506 21.9894C112.288 21.9894 111.187 21.4981 110.205 20.5156L110.382 22.7558V26.8235H105.312ZM112.268 17.8627C112.858 17.8627 113.369 17.5876 113.801 17.0374C114.233 16.4871 114.45 15.5046 114.45 14.0897C114.45 12.8714 114.273 11.9969 113.919 11.4663C113.585 10.9357 113.074 10.6705 112.386 10.6705C112.013 10.6705 111.669 10.7491 111.355 10.9063C111.04 11.0635 110.716 11.3386 110.382 11.7316V17.1553C110.677 17.4107 110.981 17.5974 111.296 17.7153C111.63 17.8136 111.954 17.8627 112.268 17.8627Z" fill="#030F1A"/>
<path d="M121.821 26.8235V6.89748H125.948L126.301 8.25339H126.419C126.969 7.74247 127.588 7.3298 128.276 7.01539C128.984 6.70097 129.701 6.54376 130.428 6.54376C131.587 6.54376 132.59 6.85818 133.435 7.48701C134.299 8.09619 134.967 8.96083 135.439 10.0809C135.911 11.201 136.146 12.5176 136.146 14.0308C136.146 15.7208 135.852 17.1651 135.262 18.3638C134.673 19.5429 133.906 20.4468 132.963 21.0756C132.039 21.6848 131.057 21.9894 130.015 21.9894C128.797 21.9894 127.697 21.4981 126.714 20.5156L126.891 22.7558V26.8235H121.821ZM128.777 17.8627C129.367 17.8627 129.878 17.5876 130.31 17.0374C130.742 16.4871 130.959 15.5046 130.959 14.0897C130.959 12.8714 130.782 11.9969 130.428 11.4663C130.094 10.9357 129.583 10.6705 128.895 10.6705C128.522 10.6705 128.178 10.7491 127.864 10.9063C127.549 11.0635 127.225 11.3386 126.891 11.7316V17.1553C127.186 17.4107 127.49 17.5974 127.805 17.7153C128.139 17.8136 128.463 17.8627 128.777 17.8627Z" fill="#030F1A"/>
<path d="M0 37.8907V31.9137H3.44405V32.5515H0.756234V34.5742H3.03405V35.212H0.756234V37.8907H0Z" fill="#030F1A"/>
<path d="M5.84458 38C5.48621 38 5.14909 37.9089 4.83323 37.7267C4.52345 37.5444 4.27137 37.2802 4.077 36.934C3.8887 36.5878 3.79455 36.1717 3.79455 35.6858C3.79455 35.1877 3.8887 34.7655 4.077 34.4193C4.27137 34.0731 4.52345 33.8088 4.83323 33.6266C5.14909 33.4444 5.48621 33.3533 5.84458 33.3533C6.20903 33.3533 6.54615 33.4444 6.85593 33.6266C7.16572 33.8088 7.41476 34.0731 7.60306 34.4193C7.79743 34.7655 7.89462 35.1877 7.89462 35.6858C7.89462 36.1717 7.79743 36.5878 7.60306 36.934C7.41476 37.2802 7.16572 37.5444 6.85593 37.7267C6.54615 37.9089 6.20903 38 5.84458 38ZM5.84458 37.3804C6.22726 37.3804 6.534 37.2256 6.76482 36.9158C7.00171 36.5999 7.12016 36.1899 7.12016 35.6858C7.12016 35.1755 7.00171 34.7625 6.76482 34.4466C6.534 34.1308 6.22726 33.9728 5.84458 33.9728C5.46799 33.9728 5.16124 34.1308 4.92435 34.4466C4.68745 34.7625 4.56901 35.1755 4.56901 35.6858C4.56901 36.1899 4.68745 36.5999 4.92435 36.9158C5.16124 37.2256 5.46799 37.3804 5.84458 37.3804Z" fill="#030F1A"/>
<path d="M8.87856 37.8907V33.4626H9.49813L9.5619 34.2644H9.58924C9.74109 33.985 9.92636 33.7633 10.145 33.5993C10.3637 33.4353 10.5976 33.3533 10.8466 33.3533C11.0227 33.3533 11.1807 33.3836 11.3204 33.4444L11.1746 34.1004C11.1017 34.0761 11.0349 34.0579 10.9741 34.0457C10.9134 34.0336 10.8375 34.0275 10.7464 34.0275C10.5581 34.0275 10.3607 34.1034 10.1541 34.2553C9.95369 34.4071 9.77754 34.6714 9.62568 35.048V37.8907H8.87856Z" fill="#030F1A"/>
<path d="M14.5173 38C14.1468 38 13.837 37.8907 13.5879 37.672C13.345 37.4473 13.2235 37.1375 13.2235 36.7427C13.2235 36.2567 13.4391 35.8862 13.8704 35.6311C14.3077 35.3699 14.9971 35.1877 15.9386 35.0844C15.9386 34.8961 15.9113 34.7169 15.8566 34.5468C15.808 34.3768 15.7169 34.2401 15.5833 34.1368C15.4557 34.0275 15.2705 33.9728 15.0275 33.9728C14.7724 33.9728 14.5325 34.0214 14.3077 34.1186C14.083 34.2158 13.8825 34.3251 13.7064 34.4466L13.4148 33.9273C13.6213 33.7936 13.8734 33.6661 14.1711 33.5446C14.4748 33.4171 14.8028 33.3533 15.1551 33.3533C15.6957 33.3533 16.0875 33.5203 16.3304 33.8544C16.5734 34.1824 16.6949 34.6228 16.6949 35.1755V37.8907H16.0753L16.0115 37.3622H15.9842C15.7777 37.5323 15.5499 37.6811 15.3009 37.8087C15.0579 37.9362 14.7967 38 14.5173 38ZM14.736 37.3987C14.9486 37.3987 15.149 37.347 15.3373 37.2438C15.5256 37.1405 15.726 36.9947 15.9386 36.8064V35.5764C15.2037 35.6675 14.6874 35.8042 14.3897 35.9864C14.0982 36.1686 13.9524 36.4025 13.9524 36.688C13.9524 36.937 14.0283 37.1193 14.1802 37.2347C14.332 37.344 14.5173 37.3987 14.736 37.3987Z" fill="#030F1A"/>
<path d="M18.6985 38C18.4191 38 18.2156 37.915 18.088 37.7449C17.9666 37.5687 17.9058 37.3197 17.9058 36.9978V31.4035H18.6529V37.0524C18.6529 37.1678 18.6742 37.2529 18.7167 37.3076C18.7592 37.3561 18.8078 37.3804 18.8625 37.3804C18.8868 37.3804 18.9081 37.3804 18.9263 37.3804C18.9506 37.3744 18.984 37.3683 19.0265 37.3622L19.1267 37.9271C19.0781 37.9514 19.0204 37.9696 18.9536 37.9818C18.8868 37.9939 18.8018 38 18.6985 38Z" fill="#030F1A"/>
<path d="M20.8386 38C20.5592 38 20.3557 37.915 20.2281 37.7449C20.1066 37.5687 20.0459 37.3197 20.0459 36.9978V31.4035H20.793V37.0524C20.793 37.1678 20.8143 37.2529 20.8568 37.3076C20.8993 37.3561 20.9479 37.3804 21.0026 37.3804C21.0269 37.3804 21.0481 37.3804 21.0664 37.3804C21.0907 37.3744 21.1241 37.3683 21.1666 37.3622L21.2668 37.9271C21.2182 37.9514 21.1605 37.9696 21.0937 37.9818C21.0269 37.9939 20.9418 38 20.8386 38Z" fill="#030F1A"/>
<path d="M25.5771 38C25.1884 38 24.8361 37.9089 24.5202 37.7267C24.2044 37.5444 23.9553 37.2802 23.7731 36.934C23.5909 36.5878 23.4998 36.1717 23.4998 35.6858C23.4998 35.1877 23.597 34.7655 23.7913 34.4193C23.9918 34.0731 24.253 33.8088 24.5749 33.6266C24.9029 33.4444 25.2552 33.3533 25.6318 33.3533C25.9234 33.3533 26.1724 33.4049 26.3789 33.5082C26.5915 33.6114 26.7737 33.7329 26.9256 33.8726L26.5429 34.3646C26.4154 34.2492 26.2787 34.1551 26.1329 34.0822C25.9932 34.0093 25.8353 33.9728 25.6591 33.9728C25.3919 33.9728 25.1519 34.0457 24.9394 34.1915C24.7328 34.3312 24.5688 34.5317 24.4473 34.7928C24.3319 35.048 24.2742 35.3456 24.2742 35.6858C24.2742 36.1899 24.3987 36.5999 24.6478 36.9158C24.9029 37.2256 25.2339 37.3804 25.6409 37.3804C25.8474 37.3804 26.0388 37.3379 26.2149 37.2529C26.3911 37.1618 26.546 37.0555 26.6796 36.934L27.0076 37.4351C26.8072 37.6113 26.5854 37.751 26.3425 37.8542C26.0995 37.9514 25.8444 38 25.5771 38Z" fill="#030F1A"/>
<path d="M27.8008 37.8907V33.4626H28.5479V37.8907H27.8008ZM28.1835 32.5515C28.0377 32.5515 27.9162 32.509 27.819 32.4239C27.7279 32.3328 27.6823 32.2113 27.6823 32.0595C27.6823 31.9137 27.7279 31.7952 27.819 31.7041C27.9162 31.613 28.0377 31.5675 28.1835 31.5675C28.3292 31.5675 28.4477 31.613 28.5388 31.7041C28.636 31.7952 28.6846 31.9137 28.6846 32.0595C28.6846 32.2113 28.636 32.3328 28.5388 32.4239C28.4477 32.509 28.3292 32.5515 28.1835 32.5515Z" fill="#030F1A"/>
<path d="M31.2548 38C30.781 38 30.45 37.8633 30.2617 37.59C30.0794 37.3167 29.9883 36.9613 29.9883 36.524V34.0731H29.3323V33.5082L30.0248 33.4626L30.1159 32.2235H30.7446V33.4626H31.9381V34.0731H30.7446V36.5331C30.7446 36.8064 30.7932 37.019 30.8904 37.1709C30.9936 37.3167 31.1728 37.3896 31.4279 37.3896C31.5069 37.3896 31.5919 37.3774 31.683 37.3531C31.7741 37.3227 31.8561 37.2954 31.929 37.2711L32.0748 37.836C31.9533 37.8785 31.8197 37.915 31.6739 37.9453C31.5342 37.9818 31.3945 38 31.2548 38Z" fill="#030F1A"/>
<path d="M32.7572 37.8907V33.4626H33.5043V37.8907H32.7572ZM33.1398 32.5515C32.9941 32.5515 32.8726 32.509 32.7754 32.4239C32.6843 32.3328 32.6387 32.2113 32.6387 32.0595C32.6387 31.9137 32.6843 31.7952 32.7754 31.7041C32.8726 31.613 32.9941 31.5675 33.1398 31.5675C33.2856 31.5675 33.4041 31.613 33.4952 31.7041C33.5924 31.7952 33.641 31.9137 33.641 32.0595C33.641 32.2113 33.5924 32.3328 33.4952 32.4239C33.4041 32.509 33.2856 32.5515 33.1398 32.5515Z" fill="#030F1A"/>
<path d="M34.3525 37.8907V37.4898L36.685 34.0731H34.6076V33.4626H37.6325V33.8635L35.3001 37.2802H37.7054V37.8907H34.3525Z" fill="#030F1A"/>
<path d="M40.2114 38C39.8166 38 39.4582 37.9089 39.1362 37.7267C38.8143 37.5384 38.5592 37.2711 38.3709 36.9249C38.1826 36.5787 38.0885 36.1656 38.0885 35.6858C38.0885 35.1998 38.1826 34.7837 38.3709 34.4375C38.5653 34.0913 38.8143 33.824 39.118 33.6357C39.4217 33.4474 39.7406 33.3533 40.0747 33.3533C40.6396 33.3533 41.0739 33.5416 41.3776 33.9182C41.6874 34.2948 41.8423 34.7989 41.8423 35.4306C41.8423 35.5096 41.8393 35.5886 41.8332 35.6675C41.8332 35.7404 41.8271 35.8042 41.815 35.8589H38.8265C38.8568 36.3266 39.0026 36.7001 39.2638 36.9796C39.5311 37.259 39.8773 37.3987 40.3025 37.3987C40.5151 37.3987 40.7095 37.3683 40.8856 37.3076C41.0678 37.2407 41.2409 37.1557 41.4049 37.0524L41.6692 37.5444C41.4809 37.6659 41.2652 37.7722 41.0223 37.8633C40.7854 37.9545 40.5151 38 40.2114 38ZM38.8174 35.3213H41.1863C41.1863 34.8718 41.0891 34.5317 40.8947 34.3008C40.7064 34.0639 40.4392 33.9455 40.0929 33.9455C39.7831 33.9455 39.5037 34.067 39.2547 34.31C39.0117 34.5468 38.8659 34.884 38.8174 35.3213Z" fill="#030F1A"/>
<path d="M42.7543 37.8907V33.4626H43.3738L43.4376 34.1004H43.4649C43.6775 33.8878 43.9023 33.7116 44.1392 33.5719C44.3761 33.4262 44.6464 33.3533 44.9501 33.3533C45.4178 33.3533 45.7579 33.5021 45.9705 33.7997C46.1892 34.0913 46.2985 34.5195 46.2985 35.0844V37.8907H45.5514V35.1846C45.5514 34.7716 45.4846 34.4709 45.351 34.2826C45.2173 34.0943 45.0047 34.0002 44.7132 34.0002C44.4884 34.0002 44.285 34.0579 44.1027 34.1733C43.9266 34.2887 43.7261 34.4588 43.5014 34.6835V37.8907H42.7543Z" fill="#030F1A"/>
<path d="M48.7119 38C48.396 38 48.0954 37.9423 47.8099 37.8269C47.5244 37.7054 47.2753 37.5596 47.0628 37.3896L47.4363 36.8884C47.6307 37.0403 47.8311 37.1678 48.0377 37.2711C48.2442 37.3683 48.478 37.4169 48.7392 37.4169C49.0308 37.4169 49.2495 37.3501 49.3952 37.2164C49.541 37.0767 49.6139 36.9127 49.6139 36.7244C49.6139 36.5726 49.5623 36.445 49.459 36.3418C49.3618 36.2385 49.2343 36.1535 49.0763 36.0866C48.9245 36.0138 48.7666 35.9469 48.6026 35.8862C48.396 35.8072 48.1925 35.7192 47.9921 35.622C47.7917 35.5187 47.6276 35.3881 47.5001 35.2302C47.3725 35.0662 47.3088 34.8597 47.3088 34.6106C47.3088 34.2522 47.4424 33.9546 47.7097 33.7177C47.983 33.4748 48.3596 33.3533 48.8394 33.3533C49.1128 33.3533 49.3679 33.4019 49.6048 33.4991C49.8417 33.5962 50.0452 33.7147 50.2152 33.8544L49.8508 34.3282C49.6989 34.2128 49.541 34.1186 49.377 34.0457C49.213 33.9728 49.0338 33.9364 48.8394 33.9364C48.56 33.9364 48.3535 34.0002 48.2199 34.1277C48.0923 34.2553 48.0285 34.4041 48.0285 34.5742C48.0285 34.7139 48.0741 34.8293 48.1652 34.9204C48.2563 35.0054 48.3748 35.0814 48.5206 35.1482C48.6663 35.2089 48.8212 35.2727 48.9852 35.3395C49.1978 35.4185 49.4074 35.5096 49.6139 35.6129C49.8204 35.71 49.9905 35.8437 50.1241 36.0138C50.2638 36.1778 50.3337 36.3995 50.3337 36.6789C50.3337 36.9158 50.2699 37.1344 50.1424 37.3349C50.0209 37.5353 49.8386 37.6963 49.5957 37.8178C49.3588 37.9393 49.0642 38 48.7119 38Z" fill="#030F1A"/>
<path d="M53.8519 38C53.4814 38 53.1716 37.8907 52.9226 37.672C52.6796 37.4473 52.5581 37.1375 52.5581 36.7427C52.5581 36.2567 52.7738 35.8862 53.205 35.6311C53.6424 35.3699 54.3318 35.1877 55.2733 35.0844C55.2733 34.8961 55.2459 34.7169 55.1913 34.5468C55.1427 34.3768 55.0516 34.2401 54.9179 34.1368C54.7904 34.0275 54.6051 33.9728 54.3621 33.9728C54.107 33.9728 53.8671 34.0214 53.6424 34.1186C53.4176 34.2158 53.2172 34.3251 53.041 34.4466L52.7495 33.9273C52.956 33.7936 53.2081 33.6661 53.5057 33.5446C53.8094 33.4171 54.1374 33.3533 54.4897 33.3533C55.0303 33.3533 55.4221 33.5203 55.6651 33.8544C55.908 34.1824 56.0295 34.6228 56.0295 35.1755V37.8907H55.4099L55.3462 37.3622H55.3188C55.1123 37.5323 54.8845 37.6811 54.6355 37.8087C54.3925 37.9362 54.1313 38 53.8519 38ZM54.0706 37.3987C54.2832 37.3987 54.4836 37.347 54.6719 37.2438C54.8602 37.1405 55.0607 36.9947 55.2733 36.8064V35.5764C54.5383 35.6675 54.022 35.8042 53.7244 35.9864C53.4328 36.1686 53.287 36.4025 53.287 36.688C53.287 36.937 53.3629 37.1193 53.5148 37.2347C53.6667 37.344 53.8519 37.3987 54.0706 37.3987Z" fill="#030F1A"/>
<path d="M57.2405 37.8907V33.4626H57.86L57.9238 34.1004H57.9511C58.1637 33.8878 58.3885 33.7116 58.6254 33.5719C58.8623 33.4262 59.1326 33.3533 59.4363 33.3533C59.904 33.3533 60.2441 33.5021 60.4567 33.7997C60.6754 34.0913 60.7847 34.5195 60.7847 35.0844V37.8907H60.0376V35.1846C60.0376 34.7716 59.9708 34.4709 59.8372 34.2826C59.7035 34.0943 59.4909 34.0002 59.1994 34.0002C58.9746 34.0002 58.7711 34.0579 58.5889 34.1733C58.4128 34.2887 58.2123 34.4588 57.9876 34.6835V37.8907H57.2405Z" fill="#030F1A"/>
<path d="M63.5534 38C63.0007 38 62.5572 37.7996 62.2232 37.3987C61.8891 36.9917 61.722 36.4207 61.722 35.6858C61.722 35.2059 61.8101 34.7928 61.9863 34.4466C62.1685 34.0943 62.4054 33.824 62.6969 33.6357C62.9946 33.4474 63.3104 33.3533 63.6445 33.3533C63.8996 33.3533 64.1213 33.3988 64.3096 33.4899C64.4979 33.5811 64.6893 33.7056 64.8837 33.8635L64.8472 33.1073V31.4035H65.6034V37.8907H64.9839L64.9201 37.3713H64.8928C64.7227 37.5414 64.5222 37.6902 64.2914 37.8178C64.0606 37.9393 63.8146 38 63.5534 38ZM63.7174 37.3713C64.1062 37.3713 64.4828 37.1679 64.8472 36.7609V34.4466C64.6589 34.2765 64.4767 34.1581 64.3005 34.0913C64.1305 34.0184 63.9543 33.9819 63.7721 33.9819C63.5352 33.9819 63.3196 34.0548 63.1252 34.2006C62.9369 34.3403 62.785 34.5377 62.6696 34.7928C62.5542 35.0419 62.4965 35.3365 62.4965 35.6766C62.4965 36.2051 62.6028 36.6212 62.8154 36.9249C63.028 37.2225 63.3287 37.3713 63.7174 37.3713Z" fill="#030F1A"/>
<path d="M68.5544 37.8907V33.4626H69.174L69.2378 34.2644H69.2651C69.417 33.985 69.6022 33.7633 69.8209 33.5993C70.0396 33.4353 70.2734 33.3533 70.5225 33.3533C70.6986 33.3533 70.8565 33.3836 70.9962 33.4444L70.8505 34.1004C70.7776 34.0761 70.7108 34.0579 70.65 34.0457C70.5893 34.0336 70.5133 34.0275 70.4222 34.0275C70.2339 34.0275 70.0365 34.1034 69.83 34.2553C69.6295 34.4071 69.4534 34.6714 69.3015 35.048V37.8907H68.5544Z" fill="#030F1A"/>
<path d="M73.2368 38C72.842 38 72.4836 37.9089 72.1617 37.7267C71.8398 37.5384 71.5846 37.2711 71.3963 36.9249C71.208 36.5787 71.1139 36.1656 71.1139 35.6858C71.1139 35.1998 71.208 34.7837 71.3963 34.4375C71.5907 34.0913 71.8398 33.824 72.1435 33.6357C72.4472 33.4474 72.7661 33.3533 73.1002 33.3533C73.665 33.3533 74.0993 33.5416 74.4031 33.9182C74.7128 34.2948 74.8677 34.7989 74.8677 35.4306C74.8677 35.5096 74.8647 35.5886 74.8586 35.6675C74.8586 35.7404 74.8525 35.8042 74.8404 35.8589H71.8519C71.8823 36.3266 72.0281 36.7001 72.2892 36.9796C72.5565 37.259 72.9027 37.3987 73.3279 37.3987C73.5405 37.3987 73.7349 37.3683 73.911 37.3076C74.0933 37.2407 74.2664 37.1557 74.4304 37.0524L74.6946 37.5444C74.5063 37.6659 74.2907 37.7722 74.0477 37.8633C73.8108 37.9545 73.5405 38 73.2368 38ZM71.8428 35.3213H74.2117C74.2117 34.8718 74.1145 34.5317 73.9202 34.3008C73.7319 34.0639 73.4646 33.9455 73.1184 33.9455C72.8086 33.9455 72.5292 34.067 72.2801 34.31C72.0372 34.5468 71.8914 34.884 71.8428 35.3213Z" fill="#030F1A"/>
<path d="M76.9368 38C76.621 38 76.3203 37.9423 76.0348 37.8269C75.7493 37.7054 75.5003 37.5596 75.2877 37.3896L75.6613 36.8884C75.8556 37.0403 76.0561 37.1678 76.2626 37.2711C76.4691 37.3683 76.703 37.4169 76.9642 37.4169C77.2557 37.4169 77.4744 37.3501 77.6202 37.2164C77.766 37.0767 77.8389 36.9127 77.8389 36.7244C77.8389 36.5726 77.7872 36.445 77.684 36.3418C77.5868 36.2385 77.4592 36.1535 77.3013 36.0866C77.1494 36.0138 76.9915 35.9469 76.8275 35.8862C76.621 35.8072 76.4175 35.7192 76.2171 35.622C76.0166 35.5187 75.8526 35.3881 75.7251 35.2302C75.5975 35.0662 75.5337 34.8597 75.5337 34.6106C75.5337 34.2522 75.6673 33.9546 75.9346 33.7177C76.2079 33.4748 76.5845 33.3533 77.0644 33.3533C77.3377 33.3533 77.5929 33.4019 77.8298 33.4991C78.0666 33.5962 78.2701 33.7147 78.4402 33.8544L78.0758 34.3282C77.9239 34.2128 77.766 34.1186 77.602 34.0457C77.438 33.9728 77.2588 33.9364 77.0644 33.9364C76.785 33.9364 76.5785 34.0002 76.4448 34.1277C76.3173 34.2553 76.2535 34.4041 76.2535 34.5742C76.2535 34.7139 76.2991 34.8293 76.3902 34.9204C76.4813 35.0054 76.5997 35.0814 76.7455 35.1482C76.8913 35.2089 77.0462 35.2727 77.2102 35.3395C77.4228 35.4185 77.6323 35.5096 77.8389 35.6129C78.0454 35.71 78.2155 35.8437 78.3491 36.0138C78.4888 36.1778 78.5586 36.3995 78.5586 36.6789C78.5586 36.9158 78.4949 37.1344 78.3673 37.3349C78.2458 37.5353 78.0636 37.6963 77.8206 37.8178C77.5837 37.9393 77.2891 38 76.9368 38Z" fill="#030F1A"/>
<path d="M79.4146 37.8907V33.4626H80.1617V37.8907H79.4146ZM79.7973 32.5515C79.6515 32.5515 79.53 32.509 79.4328 32.4239C79.3417 32.3328 79.2962 32.2113 79.2962 32.0595C79.2962 31.9137 79.3417 31.7952 79.4328 31.7041C79.53 31.613 79.6515 31.5675 79.7973 31.5675C79.9431 31.5675 80.0615 31.613 80.1526 31.7041C80.2498 31.7952 80.2984 31.9137 80.2984 32.0595C80.2984 32.2113 80.2498 32.3328 80.1526 32.4239C80.0615 32.509 79.9431 32.5515 79.7973 32.5515Z" fill="#030F1A"/>
<path d="M82.9871 38C82.4343 38 81.9909 37.7996 81.6568 37.3987C81.3227 36.9917 81.1557 36.4207 81.1557 35.6858C81.1557 35.2059 81.2438 34.7928 81.4199 34.4466C81.6022 34.0943 81.8391 33.824 82.1306 33.6357C82.4282 33.4474 82.7441 33.3533 83.0782 33.3533C83.3333 33.3533 83.555 33.3988 83.7433 33.4899C83.9316 33.5811 84.1229 33.7056 84.3173 33.8635L84.2809 33.1073V31.4035H85.0371V37.8907H84.4175L84.3538 37.3713H84.3264C84.1563 37.5414 83.9559 37.6902 83.7251 37.8178C83.4943 37.9393 83.2483 38 82.9871 38ZM83.1511 37.3713C83.5398 37.3713 83.9164 37.1679 84.2809 36.7609V34.4466C84.0926 34.2765 83.9103 34.1581 83.7342 34.0913C83.5641 34.0184 83.388 33.9819 83.2057 33.9819C82.9688 33.9819 82.7532 34.0548 82.5588 34.2006C82.3705 34.3403 82.2187 34.5377 82.1033 34.7928C81.9879 35.0419 81.9302 35.3365 81.9302 35.6766C81.9302 36.2051 82.0365 36.6212 82.2491 36.9249C82.4617 37.2225 82.7623 37.3713 83.1511 37.3713Z" fill="#030F1A"/>
<path d="M88.1412 38C87.7464 38 87.388 37.9089 87.0661 37.7267C86.7441 37.5384 86.489 37.2711 86.3007 36.9249C86.1124 36.5787 86.0183 36.1656 86.0183 35.6858C86.0183 35.1998 86.1124 34.7837 86.3007 34.4375C86.4951 34.0913 86.7441 33.824 87.0478 33.6357C87.3515 33.4474 87.6704 33.3533 88.0045 33.3533C88.5694 33.3533 89.0037 33.5416 89.3074 33.9182C89.6172 34.2948 89.7721 34.7989 89.7721 35.4306C89.7721 35.5096 89.7691 35.5886 89.763 35.6675C89.763 35.7404 89.7569 35.8042 89.7448 35.8589H86.7563C86.7867 36.3266 86.9324 36.7001 87.1936 36.9796C87.4609 37.259 87.8071 37.3987 88.2323 37.3987C88.4449 37.3987 88.6393 37.3683 88.8154 37.3076C88.9977 37.2407 89.1708 37.1557 89.3348 37.0524L89.599 37.5444C89.4107 37.6659 89.1951 37.7722 88.9521 37.8633C88.7152 37.9545 88.4449 38 88.1412 38ZM86.7472 35.3213H89.1161C89.1161 34.8718 89.0189 34.5317 88.8245 34.3008C88.6362 34.0639 88.369 33.9455 88.0228 33.9455C87.713 33.9455 87.4336 34.067 87.1845 34.31C86.9415 34.5468 86.7958 34.884 86.7472 35.3213Z" fill="#030F1A"/>
<path d="M90.6841 37.8907V33.4626H91.3036L91.3674 34.1004H91.3948C91.6074 33.8878 91.8321 33.7116 92.069 33.5719C92.3059 33.4262 92.5762 33.3533 92.8799 33.3533C93.3476 33.3533 93.6878 33.5021 93.9004 33.7997C94.119 34.0913 94.2284 34.5195 94.2284 35.0844V37.8907H93.4812V35.1846C93.4812 34.7716 93.4144 34.4709 93.2808 34.2826C93.1472 34.0943 92.9346 34.0002 92.643 34.0002C92.4183 34.0002 92.2148 34.0579 92.0326 34.1733C91.8564 34.2887 91.656 34.4588 91.4312 34.6835V37.8907H90.6841Z" fill="#030F1A"/>
<path d="M96.8786 38C96.4048 38 96.0738 37.8633 95.8855 37.59C95.7033 37.3167 95.6121 36.9613 95.6121 36.524V34.0731H94.9561V33.5082L95.6486 33.4626L95.7397 32.2235H96.3684V33.4626H97.5619V34.0731H96.3684V36.5331C96.3684 36.8064 96.417 37.019 96.5141 37.1709C96.6174 37.3167 96.7966 37.3896 97.0517 37.3896C97.1307 37.3896 97.2157 37.3774 97.3068 37.3531C97.3979 37.3227 97.4799 37.2954 97.5528 37.2711L97.6986 37.836C97.5771 37.8785 97.4435 37.915 97.2977 37.9453C97.158 37.9818 97.0183 38 96.8786 38Z" fill="#030F1A"/>
<path d="M99.4491 38C99.1332 38 98.8326 37.9423 98.5471 37.8269C98.2616 37.7054 98.0126 37.5596 97.8 37.3896L98.1735 36.8884C98.3679 37.0403 98.5684 37.1678 98.7749 37.2711C98.9814 37.3683 99.2153 37.4169 99.4764 37.4169C99.768 37.4169 99.9867 37.3501 100.132 37.2164C100.278 37.0767 100.351 36.9127 100.351 36.7244C100.351 36.5726 100.299 36.445 100.196 36.3418C100.099 36.2385 99.9715 36.1535 99.8136 36.0866C99.6617 36.0138 99.5038 35.9469 99.3398 35.8862C99.1333 35.8072 98.9298 35.7192 98.7293 35.622C98.5289 35.5187 98.3649 35.3881 98.2373 35.2302C98.1098 35.0662 98.046 34.8597 98.046 34.6106C98.046 34.2522 98.1796 33.9546 98.4469 33.7177C98.7202 33.4748 99.0968 33.3533 99.5767 33.3533C99.85 33.3533 100.105 33.4019 100.342 33.4991C100.579 33.5962 100.782 33.7147 100.952 33.8544L100.588 34.3282C100.436 34.2128 100.278 34.1186 100.114 34.0457C99.9502 33.9728 99.771 33.9364 99.5767 33.9364C99.2973 33.9364 99.0907 34.0002 98.9571 34.1277C98.8295 34.2553 98.7658 34.4041 98.7658 34.5742C98.7658 34.7139 98.8113 34.8293 98.9024 34.9204C98.9935 35.0054 99.112 35.0814 99.2578 35.1482C99.4035 35.2089 99.5584 35.2727 99.7224 35.3395C99.935 35.4185 100.145 35.5096 100.351 35.6129C100.558 35.71 100.728 35.8437 100.861 36.0138C101.001 36.1778 101.071 36.3995 101.071 36.6789C101.071 36.9158 101.007 37.1344 100.88 37.3349C100.758 37.5353 100.576 37.6963 100.333 37.8178C100.096 37.9393 99.8014 38 99.4491 38Z" fill="#030F1A"/>
<path d="M105.291 38C104.932 38 104.595 37.9089 104.279 37.7267C103.97 37.5444 103.717 37.2802 103.523 36.934C103.335 36.5878 103.241 36.1717 103.241 35.6858C103.241 35.1877 103.335 34.7655 103.523 34.4193C103.717 34.0731 103.97 33.8088 104.279 33.6266C104.595 33.4444 104.932 33.3533 105.291 33.3533C105.655 33.3533 105.992 33.4444 106.302 33.6266C106.612 33.8088 106.861 34.0731 107.049 34.4193C107.244 34.7655 107.341 35.1877 107.341 35.6858C107.341 36.1717 107.244 36.5878 107.049 36.934C106.861 37.2802 106.612 37.5444 106.302 37.7267C105.992 37.9089 105.655 38 105.291 38ZM105.291 37.3804C105.673 37.3804 105.98 37.2256 106.211 36.9158C106.448 36.5999 106.566 36.1899 106.566 35.6858C106.566 35.1755 106.448 34.7625 106.211 34.4466C105.98 34.1308 105.673 33.9728 105.291 33.9728C104.914 33.9728 104.607 34.1308 104.37 34.4466C104.134 34.7625 104.015 35.1755 104.015 35.6858C104.015 36.1899 104.134 36.5999 104.37 36.9158C104.607 37.2256 104.914 37.3804 105.291 37.3804Z" fill="#030F1A"/>
<path d="M108.452 37.8907V34.0731H107.851V33.5082L108.452 33.4626V32.761C108.452 32.3116 108.556 31.9562 108.762 31.695C108.975 31.4278 109.303 31.2941 109.746 31.2941C109.886 31.2941 110.019 31.3093 110.147 31.3397C110.274 31.364 110.387 31.3974 110.484 31.4399L110.32 32.0139C110.156 31.941 109.989 31.9046 109.819 31.9046C109.406 31.9046 109.199 32.1901 109.199 32.761V33.4626H110.138V34.0731H109.199V37.8907H108.452Z" fill="#030F1A"/>
<path d="M114.868 38C114.346 38 113.881 37.8785 113.474 37.6356C113.067 37.3865 112.748 37.0312 112.518 36.5695C112.287 36.1079 112.171 35.5521 112.171 34.9022C112.171 34.2583 112.29 33.7056 112.527 33.2439C112.764 32.7823 113.089 32.427 113.502 32.1779C113.915 31.9289 114.385 31.8044 114.914 31.8044C115.327 31.8044 115.673 31.8833 115.953 32.0413C116.238 32.1931 116.466 32.3601 116.636 32.5424L116.217 33.0344C116.065 32.8764 115.889 32.7428 115.688 32.6335C115.488 32.5241 115.236 32.4695 114.932 32.4695C114.531 32.4695 114.182 32.5697 113.884 32.7702C113.587 32.9645 113.356 33.2409 113.192 33.5993C113.034 33.9577 112.955 34.3859 112.955 34.884C112.955 35.6372 113.125 36.2355 113.465 36.6789C113.811 37.1162 114.303 37.3349 114.941 37.3349C115.154 37.3349 115.357 37.3045 115.552 37.2438C115.746 37.177 115.901 37.0889 116.016 36.9796V35.4215H114.75V34.7928H116.709V37.3076C116.52 37.508 116.265 37.675 115.943 37.8087C115.628 37.9362 115.269 38 114.868 38Z" fill="#030F1A"/>
<path d="M117.886 37.8907V31.4035H118.633V33.171L118.606 34.0822C118.818 33.8817 119.04 33.7116 119.271 33.5719C119.508 33.4262 119.778 33.3533 120.082 33.3533C120.549 33.3533 120.889 33.5021 121.102 33.7997C121.321 34.0913 121.43 34.5195 121.43 35.0844V37.8907H120.683V35.1846C120.683 34.7716 120.616 34.4709 120.483 34.2826C120.349 34.0943 120.136 34.0002 119.845 34.0002C119.62 34.0002 119.417 34.0579 119.234 34.1733C119.058 34.2887 118.858 34.4588 118.633 34.6835V37.8907H117.886Z" fill="#030F1A"/>
<path d="M123.68 38C123.31 38 123 37.8907 122.751 37.672C122.508 37.4473 122.386 37.1375 122.386 36.7427C122.386 36.2567 122.602 35.8862 123.033 35.6311C123.471 35.3699 124.16 35.1877 125.101 35.0844C125.101 34.8961 125.074 34.7169 125.019 34.5468C124.971 34.3768 124.88 34.2401 124.746 34.1368C124.619 34.0275 124.433 33.9728 124.19 33.9728C123.935 33.9728 123.695 34.0214 123.471 34.1186C123.246 34.2158 123.045 34.3251 122.869 34.4466L122.578 33.9273C122.784 33.7936 123.036 33.6661 123.334 33.5446C123.638 33.4171 123.966 33.3533 124.318 33.3533C124.858 33.3533 125.25 33.5203 125.493 33.8544C125.736 34.1824 125.858 34.6228 125.858 35.1755V37.8907H125.238L125.174 37.3622H125.147C124.94 37.5323 124.713 37.6811 124.464 37.8087C124.221 37.9362 123.959 38 123.68 38ZM123.899 37.3987C124.111 37.3987 124.312 37.347 124.5 37.2438C124.688 37.1405 124.889 36.9947 125.101 36.8064V35.5764C124.366 35.6675 123.85 35.8042 123.553 35.9864C123.261 36.1686 123.115 36.4025 123.115 36.688C123.115 36.937 123.191 37.1193 123.343 37.2347C123.495 37.344 123.68 37.3987 123.899 37.3987Z" fill="#030F1A"/>
<path d="M127.069 37.8907V33.4626H127.688L127.752 34.1004H127.779C127.992 33.8878 128.217 33.7116 128.454 33.5719C128.69 33.4262 128.961 33.3533 129.264 33.3533C129.732 33.3533 130.072 33.5021 130.285 33.7997C130.504 34.0913 130.613 34.5195 130.613 35.0844V37.8907H129.866V35.1846C129.866 34.7716 129.799 34.4709 129.665 34.2826C129.532 34.0943 129.319 34.0002 129.028 34.0002C128.803 34.0002 128.599 34.0579 128.417 34.1733C128.241 34.2887 128.04 34.4588 127.816 34.6835V37.8907H127.069Z" fill="#030F1A"/>
<path d="M132.89 38C132.519 38 132.209 37.8907 131.96 37.672C131.717 37.4473 131.596 37.1375 131.596 36.7427C131.596 36.2567 131.811 35.8862 132.243 35.6311C132.68 35.3699 133.369 35.1877 134.311 35.0844C134.311 34.8961 134.284 34.7169 134.229 34.5468C134.18 34.3768 134.089 34.2401 133.956 34.1368C133.828 34.0275 133.643 33.9728 133.4 33.9728C133.145 33.9728 132.905 34.0214 132.68 34.1186C132.455 34.2158 132.255 34.3251 132.079 34.4466L131.787 33.9273C131.994 33.7936 132.246 33.6661 132.543 33.5446C132.847 33.4171 133.175 33.3533 133.527 33.3533C134.068 33.3533 134.46 33.5203 134.703 33.8544C134.946 34.1824 135.067 34.6228 135.067 35.1755V37.8907H134.448L134.384 37.3622H134.356C134.15 37.5323 133.922 37.6811 133.673 37.8087C133.43 37.9362 133.169 38 132.89 38ZM133.108 37.3987C133.321 37.3987 133.521 37.347 133.71 37.2438C133.898 37.1405 134.098 36.9947 134.311 36.8064V35.5764C133.576 35.6675 133.06 35.8042 132.762 35.9864C132.47 36.1686 132.325 36.4025 132.325 36.688C132.325 36.937 132.401 37.1193 132.552 37.2347C132.704 37.344 132.89 37.3987 133.108 37.3987Z" fill="#030F1A"/>
</svg>
