<svg width="137" height="38" viewBox="0 0 137 38" fill="none" xmlns="http://www.w3.org/2000/svg">
<path d="M9.13769 21.9894C7.50666 21.9894 5.99354 21.6357 4.59832 20.9282C3.22275 20.2012 2.11248 19.1105 1.26749 17.6564C0.422495 16.2022 0 14.3845 0 12.2032C0 10.5919 0.245637 9.16716 0.73691 7.92915C1.24783 6.67149 1.93562 5.61034 2.80026 4.7457C3.68455 3.88106 4.67692 3.23258 5.77738 2.80026C6.89748 2.34829 8.05688 2.1223 9.25559 2.1223C10.5329 2.1223 11.6727 2.37776 12.6749 2.88869C13.6967 3.37996 14.5417 3.96949 15.2098 4.65727L12.5569 7.89968C12.0853 7.48701 11.5941 7.15294 11.0831 6.89748C10.5919 6.62237 10.022 6.48481 9.3735 6.48481C8.62676 6.48481 7.92915 6.7108 7.28067 7.16277C6.65184 7.59509 6.14092 8.22392 5.7479 9.04926C5.37453 9.8746 5.18785 10.867 5.18785 12.0264C5.18785 13.8146 5.56122 15.2 6.30795 16.1825C7.07434 17.1454 8.07654 17.6269 9.31454 17.6269C10.0613 17.6269 10.7196 17.4599 11.2895 17.1258C11.879 16.7917 12.3801 16.4085 12.7928 15.9762L15.4456 19.1597C14.6399 20.1029 13.6967 20.8103 12.6159 21.282C11.5351 21.7536 10.3757 21.9894 9.13769 21.9894Z" fill="white"/>
<path d="M17.0945 21.6357V6.89748H22.1644V21.6357H17.0945ZM19.6294 5.06994C18.8041 5.06994 18.136 4.84396 17.625 4.39198C17.1141 3.92036 16.8587 3.30136 16.8587 2.53497C16.8587 1.76858 17.1141 1.15941 17.625 0.707433C18.136 0.235811 18.8041 0 19.6294 0C20.4548 0 21.1229 0.235811 21.6338 0.707433C22.1448 1.15941 22.4002 1.76858 22.4002 2.53497C22.4002 3.30136 22.1448 3.92036 21.6338 4.39198C21.1229 4.84396 20.4548 5.06994 19.6294 5.06994Z" fill="white"/>
<path d="M31.0688 21.9894C29.1627 21.9894 27.7773 21.4392 26.9127 20.3387C26.0677 19.2186 25.6452 17.7644 25.6452 15.9762V10.8473H23.6997V7.07434L25.9399 6.89748L26.5295 3.06555H30.7151V6.89748H34.0754V10.8473H30.7151V15.8878C30.7151 16.6935 30.892 17.2535 31.2457 17.5679C31.5994 17.8824 32.0121 18.0396 32.4837 18.0396C32.7195 18.0396 32.9455 18.0199 33.1617 17.9806C33.3975 17.9217 33.6038 17.8627 33.7807 17.8037L34.547 21.4588C34.1737 21.5767 33.7021 21.6946 33.1322 21.8125C32.5623 21.9304 31.8745 21.9894 31.0688 21.9894Z" fill="white"/>
<path d="M36.2092 21.6357V6.89748H41.2792V21.6357H36.2092ZM38.7442 5.06994C37.9189 5.06994 37.2507 4.84396 36.7398 4.39198C36.2289 3.92036 35.9734 3.30136 35.9734 2.53497C35.9734 1.76858 36.2289 1.15941 36.7398 0.707433C37.2507 0.235811 37.9189 0 38.7442 0C39.5695 0 40.2377 0.235811 40.7486 0.707433C41.2595 1.15941 41.515 1.76858 41.515 2.53497C41.515 3.30136 41.2595 3.92036 40.7486 4.39198C40.2377 4.84396 39.5695 5.06994 38.7442 5.06994Z" fill="white"/>
<path d="M43.5809 21.6357V18.9239L49.1814 10.8473H44.2293V6.89748H55.4893V9.60931L49.8888 17.6858H55.6662V21.6357H43.5809Z" fill="white"/>
<path d="M64.0336 21.9894C62.5991 21.9894 61.3021 21.6848 60.1427 21.0756C59.0029 20.4665 58.099 19.592 57.4309 18.4522C56.7627 17.2928 56.4287 15.8976 56.4287 14.2666C56.4287 12.6749 56.7627 11.3091 57.4309 10.1694C58.1186 9.00995 59.0029 8.11584 60.0837 7.48701C61.1645 6.85818 62.3043 6.54376 63.503 6.54376C64.9572 6.54376 66.1559 6.868 67.0991 7.51648C68.062 8.14531 68.7695 9.00013 69.2214 10.0809C69.693 11.1617 69.9289 12.3604 69.9289 13.6771C69.9289 14.1094 69.8994 14.5319 69.8404 14.9445C69.8011 15.3376 69.7618 15.6225 69.7225 15.7994H61.3217C61.5576 16.6836 61.9801 17.3027 62.5892 17.6564C63.1984 17.9904 63.9157 18.1575 64.741 18.1575C65.6843 18.1575 66.6865 17.8627 67.7476 17.2732L69.3983 20.2798C68.6123 20.83 67.728 21.2525 66.7454 21.5473C65.7629 21.842 64.8589 21.9894 64.0336 21.9894ZM61.2628 12.498H65.6253C65.6253 11.9281 65.4779 11.4368 65.1832 11.0242C64.908 10.5919 64.3873 10.3757 63.6209 10.3757C63.0707 10.3757 62.5794 10.5427 62.1471 10.8768C61.7148 11.2109 61.42 11.7513 61.2628 12.498Z" fill="white"/>
<path d="M72.1209 21.6357V6.89748H76.2476L76.6013 8.66606H76.7193C77.3088 8.09619 77.9769 7.60491 78.7236 7.19224C79.49 6.75992 80.3743 6.54376 81.3765 6.54376C83.0076 6.54376 84.1768 7.09399 84.8842 8.19444C85.6113 9.27524 85.9748 10.7294 85.9748 12.5569V21.6357H80.9049V13.2054C80.9049 12.2622 80.787 11.6334 80.5512 11.3189C80.3154 11.0045 79.942 10.8473 79.4311 10.8473C78.9595 10.8473 78.5664 10.9456 78.252 11.1421C77.9376 11.3386 77.5839 11.6137 77.1909 11.9674V21.6357H72.1209Z" fill="white"/>
<path d="M94.0523 12.3211L93.7281 13.6476H97.2652L96.941 12.3211C96.7052 11.3975 96.4694 10.3953 96.2336 9.31454C95.9978 8.23374 95.7619 7.21189 95.5261 6.249H95.4082C95.2117 7.21189 94.9956 8.23374 94.7598 9.31454C94.5239 10.3953 94.2881 11.3975 94.0523 12.3211ZM86.6832 21.6357L92.5195 2.47602H98.6506L104.487 21.6357H99.1223L98.179 17.5679H92.8143L91.871 21.6357H86.6832Z" fill="white"/>
<path d="M105.312 26.8235V6.89748H109.439L109.792 8.25339H109.91C110.46 7.74247 111.079 7.3298 111.767 7.01539C112.475 6.70097 113.192 6.54376 113.919 6.54376C115.078 6.54376 116.081 6.85818 116.926 7.48701C117.79 8.09619 118.458 8.96083 118.93 10.0809C119.402 11.201 119.637 12.5176 119.637 14.0308C119.637 15.7208 119.343 17.1651 118.753 18.3638C118.164 19.5429 117.397 20.4468 116.454 21.0756C115.53 21.6848 114.548 21.9894 113.506 21.9894C112.288 21.9894 111.187 21.4981 110.205 20.5156L110.382 22.7558V26.8235H105.312ZM112.268 17.8627C112.858 17.8627 113.369 17.5876 113.801 17.0374C114.233 16.4871 114.45 15.5046 114.45 14.0897C114.45 12.8714 114.273 11.9969 113.919 11.4663C113.585 10.9357 113.074 10.6705 112.386 10.6705C112.013 10.6705 111.669 10.7491 111.355 10.9063C111.04 11.0635 110.716 11.3386 110.382 11.7316V17.1553C110.677 17.4107 110.981 17.5974 111.296 17.7153C111.63 17.8136 111.954 17.8627 112.268 17.8627Z" fill="white"/>
<path d="M121.821 26.8235V6.89748H125.948L126.301 8.25339H126.419C126.969 7.74247 127.588 7.3298 128.276 7.01539C128.984 6.70097 129.701 6.54376 130.428 6.54376C131.587 6.54376 132.59 6.85818 133.435 7.48701C134.299 8.09619 134.967 8.96083 135.439 10.0809C135.911 11.201 136.146 12.5176 136.146 14.0308C136.146 15.7208 135.852 17.1651 135.262 18.3638C134.673 19.5429 133.906 20.4468 132.963 21.0756C132.039 21.6848 131.057 21.9894 130.015 21.9894C128.797 21.9894 127.697 21.4981 126.714 20.5156L126.891 22.7558V26.8235H121.821ZM128.777 17.8627C129.367 17.8627 129.878 17.5876 130.31 17.0374C130.742 16.4871 130.959 15.5046 130.959 14.0897C130.959 12.8714 130.782 11.9969 130.428 11.4663C130.094 10.9357 129.583 10.6705 128.895 10.6705C128.522 10.6705 128.178 10.7491 127.864 10.9063C127.549 11.0635 127.225 11.3386 126.891 11.7316V17.1553C127.186 17.4107 127.49 17.5974 127.805 17.7153C128.139 17.8136 128.463 17.8627 128.777 17.8627Z" fill="white"/>
<path d="M0 37.8934V31.9164H3.44405V32.5542H0.756234V34.5769H3.03405V35.2147H0.756234V37.8934H0Z" fill="white"/>
<path d="M5.84458 38.0028C5.48621 38.0028 5.14909 37.9116 4.83323 37.7294C4.52345 37.5472 4.27137 37.283 4.077 36.9367C3.8887 36.5905 3.79455 36.1744 3.79455 35.6885C3.79455 35.1904 3.8887 34.7683 4.077 34.422C4.27137 34.0758 4.52345 33.8116 4.83323 33.6294C5.14909 33.4471 5.48621 33.356 5.84458 33.356C6.20903 33.356 6.54615 33.4471 6.85593 33.6294C7.16572 33.8116 7.41476 34.0758 7.60306 34.422C7.79743 34.7683 7.89462 35.1904 7.89462 35.6885C7.89462 36.1744 7.79743 36.5905 7.60306 36.9367C7.41476 37.283 7.16572 37.5472 6.85593 37.7294C6.54615 37.9116 6.20903 38.0028 5.84458 38.0028ZM5.84458 37.3832C6.22726 37.3832 6.534 37.2283 6.76482 36.9185C7.00171 36.6027 7.12016 36.1927 7.12016 35.6885C7.12016 35.1783 7.00171 34.7652 6.76482 34.4494C6.534 34.1335 6.22726 33.9756 5.84458 33.9756C5.46799 33.9756 5.16124 34.1335 4.92435 34.4494C4.68745 34.7652 4.56901 35.1783 4.56901 35.6885C4.56901 36.1927 4.68745 36.6027 4.92435 36.9185C5.16124 37.2283 5.46799 37.3832 5.84458 37.3832Z" fill="white"/>
<path d="M8.87856 37.8934V33.4654H9.49813L9.5619 34.2671H9.58924C9.74109 33.9877 9.92636 33.766 10.145 33.602C10.3637 33.438 10.5976 33.356 10.8466 33.356C11.0227 33.356 11.1807 33.3864 11.3204 33.4471L11.1746 34.1031C11.1017 34.0788 11.0349 34.0606 10.9741 34.0485C10.9134 34.0363 10.8375 34.0303 10.7464 34.0303C10.5581 34.0303 10.3607 34.1062 10.1541 34.258C9.95369 34.4099 9.77754 34.6741 9.62568 35.0507V37.8934H8.87856Z" fill="white"/>
<path d="M14.5173 38.0028C14.1468 38.0028 13.837 37.8934 13.5879 37.6748C13.345 37.45 13.2235 37.1402 13.2235 36.7454C13.2235 36.2595 13.4391 35.8889 13.8704 35.6338C14.3077 35.3726 14.9971 35.1904 15.9386 35.0872C15.9386 34.8989 15.9113 34.7197 15.8566 34.5496C15.808 34.3795 15.7169 34.2428 15.5833 34.1396C15.4557 34.0303 15.2705 33.9756 15.0275 33.9756C14.7724 33.9756 14.5325 34.0242 14.3077 34.1214C14.083 34.2185 13.8825 34.3279 13.7064 34.4494L13.4148 33.93C13.6213 33.7964 13.8734 33.6688 14.1711 33.5474C14.4748 33.4198 14.8028 33.356 15.1551 33.356C15.6957 33.356 16.0875 33.5231 16.3304 33.8571C16.5734 34.1851 16.6949 34.6255 16.6949 35.1783V37.8934H16.0753L16.0115 37.365H15.9842C15.7777 37.535 15.5499 37.6839 15.3009 37.8114C15.0579 37.939 14.7967 38.0028 14.5173 38.0028ZM14.736 37.4014C14.9486 37.4014 15.149 37.3498 15.3373 37.2465C15.5256 37.1433 15.726 36.9975 15.9386 36.8092V35.5792C15.2037 35.6703 14.6874 35.8069 14.3897 35.9892C14.0982 36.1714 13.9524 36.4053 13.9524 36.6907C13.9524 36.9398 14.0283 37.122 14.1802 37.2374C14.332 37.3467 14.5173 37.4014 14.736 37.4014Z" fill="white"/>
<path d="M18.6985 38.0028C18.4191 38.0028 18.2156 37.9177 18.088 37.7476C17.9666 37.5715 17.9058 37.3225 17.9058 37.0005V31.4062H18.6529V37.0552C18.6529 37.1706 18.6742 37.2556 18.7167 37.3103C18.7592 37.3589 18.8078 37.3832 18.8625 37.3832C18.8868 37.3832 18.9081 37.3832 18.9263 37.3832C18.9506 37.3771 18.984 37.371 19.0265 37.365L19.1267 37.9299C19.0781 37.9542 19.0204 37.9724 18.9536 37.9845C18.8868 37.9967 18.8018 38.0028 18.6985 38.0028Z" fill="white"/>
<path d="M20.8386 38.0028C20.5592 38.0028 20.3557 37.9177 20.2281 37.7476C20.1066 37.5715 20.0459 37.3225 20.0459 37.0005V31.4062H20.793V37.0552C20.793 37.1706 20.8143 37.2556 20.8568 37.3103C20.8993 37.3589 20.9479 37.3832 21.0026 37.3832C21.0269 37.3832 21.0481 37.3832 21.0664 37.3832C21.0907 37.3771 21.1241 37.371 21.1666 37.365L21.2668 37.9299C21.2182 37.9542 21.1605 37.9724 21.0937 37.9845C21.0269 37.9967 20.9418 38.0028 20.8386 38.0028Z" fill="white"/>
<path d="M25.5771 38.0028C25.1884 38.0028 24.8361 37.9116 24.5202 37.7294C24.2044 37.5472 23.9553 37.283 23.7731 36.9367C23.5909 36.5905 23.4998 36.1744 23.4998 35.6885C23.4998 35.1904 23.597 34.7683 23.7913 34.422C23.9918 34.0758 24.253 33.8116 24.5749 33.6294C24.9029 33.4471 25.2552 33.356 25.6318 33.356C25.9234 33.356 26.1724 33.4076 26.3789 33.5109C26.5915 33.6142 26.7737 33.7357 26.9256 33.8754L26.5429 34.3674C26.4154 34.252 26.2787 34.1578 26.1329 34.0849C25.9932 34.012 25.8353 33.9756 25.6591 33.9756C25.3919 33.9756 25.1519 34.0485 24.9394 34.1943C24.7328 34.334 24.5688 34.5344 24.4473 34.7956C24.3319 35.0507 24.2742 35.3483 24.2742 35.6885C24.2742 36.1927 24.3987 36.6027 24.6478 36.9185C24.9029 37.2283 25.2339 37.3832 25.6409 37.3832C25.8474 37.3832 26.0388 37.3407 26.2149 37.2556C26.3911 37.1645 26.546 37.0582 26.6796 36.9367L27.0076 37.4379C26.8072 37.614 26.5854 37.7537 26.3425 37.857C26.0995 37.9542 25.8444 38.0028 25.5771 38.0028Z" fill="white"/>
<path d="M27.8008 37.8934V33.4654H28.5479V37.8934H27.8008ZM28.1835 32.5542C28.0377 32.5542 27.9162 32.5117 27.819 32.4267C27.7279 32.3356 27.6823 32.2141 27.6823 32.0622C27.6823 31.9164 27.7279 31.798 27.819 31.7069C27.9162 31.6158 28.0377 31.5702 28.1835 31.5702C28.3292 31.5702 28.4477 31.6158 28.5388 31.7069C28.636 31.798 28.6846 31.9164 28.6846 32.0622C28.6846 32.2141 28.636 32.3356 28.5388 32.4267C28.4477 32.5117 28.3292 32.5542 28.1835 32.5542Z" fill="white"/>
<path d="M31.2548 38.0028C30.781 38.0028 30.45 37.8661 30.2617 37.5928C30.0794 37.3194 29.9883 36.9641 29.9883 36.5267V34.0758H29.3323V33.5109L30.0248 33.4654L30.1159 32.2262H30.7446V33.4654H31.9381V34.0758H30.7446V36.5358C30.7446 36.8092 30.7932 37.0218 30.8904 37.1736C30.9936 37.3194 31.1728 37.3923 31.4279 37.3923C31.5069 37.3923 31.5919 37.3802 31.683 37.3559C31.7741 37.3255 31.8561 37.2982 31.929 37.2739L32.0748 37.8388C31.9533 37.8813 31.8197 37.9177 31.6739 37.9481C31.5342 37.9845 31.3945 38.0028 31.2548 38.0028Z" fill="white"/>
<path d="M32.7572 37.8934V33.4654H33.5043V37.8934H32.7572ZM33.1398 32.5542C32.9941 32.5542 32.8726 32.5117 32.7754 32.4267C32.6843 32.3356 32.6387 32.2141 32.6387 32.0622C32.6387 31.9164 32.6843 31.798 32.7754 31.7069C32.8726 31.6158 32.9941 31.5702 33.1398 31.5702C33.2856 31.5702 33.4041 31.6158 33.4952 31.7069C33.5924 31.798 33.641 31.9164 33.641 32.0622C33.641 32.2141 33.5924 32.3356 33.4952 32.4267C33.4041 32.5117 33.2856 32.5542 33.1398 32.5542Z" fill="white"/>
<path d="M34.3525 37.8934V37.4925L36.685 34.0758H34.6076V33.4654H37.6325V33.8662L35.3001 37.283H37.7054V37.8934H34.3525Z" fill="white"/>
<path d="M40.2114 38.0028C39.8166 38.0028 39.4582 37.9116 39.1362 37.7294C38.8143 37.5411 38.5592 37.2739 38.3709 36.9276C38.1826 36.5814 38.0885 36.1684 38.0885 35.6885C38.0885 35.2026 38.1826 34.7865 38.3709 34.4403C38.5653 34.094 38.8143 33.8268 39.118 33.6385C39.4217 33.4502 39.7406 33.356 40.0747 33.356C40.6396 33.356 41.0739 33.5443 41.3776 33.9209C41.6874 34.2975 41.8423 34.8017 41.8423 35.4334C41.8423 35.5123 41.8393 35.5913 41.8332 35.6703C41.8332 35.7432 41.8271 35.8069 41.815 35.8616H38.8265C38.8568 36.3293 39.0026 36.7029 39.2638 36.9823C39.5311 37.2617 39.8773 37.4014 40.3025 37.4014C40.5151 37.4014 40.7095 37.371 40.8856 37.3103C41.0678 37.2435 41.2409 37.1584 41.4049 37.0552L41.6692 37.5472C41.4809 37.6687 41.2652 37.775 41.0223 37.8661C40.7854 37.9572 40.5151 38.0028 40.2114 38.0028ZM38.8174 35.324H41.1863C41.1863 34.8746 41.0891 34.5344 40.8947 34.3036C40.7064 34.0667 40.4392 33.9482 40.0929 33.9482C39.7831 33.9482 39.5037 34.0697 39.2547 34.3127C39.0117 34.5496 38.8659 34.8867 38.8174 35.324Z" fill="white"/>
<path d="M42.7543 37.8934V33.4654H43.3738L43.4376 34.1031H43.4649C43.6775 33.8905 43.9023 33.7144 44.1392 33.5747C44.3761 33.4289 44.6464 33.356 44.9501 33.356C45.4178 33.356 45.7579 33.5048 45.9705 33.8025C46.1892 34.094 46.2985 34.5223 46.2985 35.0872V37.8934H45.5514V35.1874C45.5514 34.7743 45.4846 34.4737 45.351 34.2854C45.2173 34.0971 45.0047 34.0029 44.7132 34.0029C44.4884 34.0029 44.285 34.0606 44.1027 34.176C43.9266 34.2914 43.7261 34.4615 43.5014 34.6863V37.8934H42.7543Z" fill="white"/>
<path d="M48.7119 38.0028C48.396 38.0028 48.0954 37.9451 47.8099 37.8296C47.5244 37.7082 47.2753 37.5624 47.0628 37.3923L47.4363 36.8912C47.6307 37.043 47.8311 37.1706 48.0377 37.2739C48.2442 37.371 48.478 37.4196 48.7392 37.4196C49.0308 37.4196 49.2495 37.3528 49.3952 37.2192C49.541 37.0795 49.6139 36.9155 49.6139 36.7272C49.6139 36.5753 49.5623 36.4478 49.459 36.3445C49.3618 36.2412 49.2343 36.1562 49.0763 36.0894C48.9245 36.0165 48.7666 35.9497 48.6026 35.8889C48.396 35.81 48.1925 35.7219 47.9921 35.6247C47.7917 35.5215 47.6276 35.3909 47.5001 35.2329C47.3725 35.0689 47.3088 34.8624 47.3088 34.6134C47.3088 34.255 47.4424 33.9574 47.7097 33.7205C47.983 33.4775 48.3596 33.356 48.8394 33.356C49.1128 33.356 49.3679 33.4046 49.6048 33.5018C49.8417 33.599 50.0452 33.7174 50.2152 33.8571L49.8508 34.3309C49.6989 34.2155 49.541 34.1214 49.377 34.0485C49.213 33.9756 49.0338 33.9391 48.8394 33.9391C48.56 33.9391 48.3535 34.0029 48.2199 34.1305C48.0923 34.258 48.0285 34.4068 48.0285 34.5769C48.0285 34.7166 48.0741 34.832 48.1652 34.9232C48.2563 35.0082 48.3748 35.0841 48.5206 35.1509C48.6663 35.2117 48.8212 35.2755 48.9852 35.3423C49.1978 35.4212 49.4074 35.5123 49.6139 35.6156C49.8204 35.7128 49.9905 35.8464 50.1241 36.0165C50.2638 36.1805 50.3337 36.4022 50.3337 36.6816C50.3337 36.9185 50.2699 37.1372 50.1424 37.3376C50.0209 37.5381 49.8386 37.699 49.5957 37.8205C49.3588 37.942 49.0642 38.0028 48.7119 38.0028Z" fill="white"/>
<path d="M53.8519 38.0028C53.4814 38.0028 53.1716 37.8934 52.9226 37.6748C52.6796 37.45 52.5581 37.1402 52.5581 36.7454C52.5581 36.2595 52.7738 35.8889 53.205 35.6338C53.6424 35.3726 54.3318 35.1904 55.2733 35.0872C55.2733 34.8989 55.2459 34.7197 55.1913 34.5496C55.1427 34.3795 55.0516 34.2428 54.9179 34.1396C54.7904 34.0303 54.6051 33.9756 54.3621 33.9756C54.107 33.9756 53.8671 34.0242 53.6424 34.1214C53.4176 34.2185 53.2172 34.3279 53.041 34.4494L52.7495 33.93C52.956 33.7964 53.2081 33.6688 53.5057 33.5474C53.8094 33.4198 54.1374 33.356 54.4897 33.356C55.0303 33.356 55.4221 33.5231 55.6651 33.8571C55.908 34.1851 56.0295 34.6255 56.0295 35.1783V37.8934H55.4099L55.3462 37.365H55.3188C55.1123 37.535 54.8845 37.6839 54.6355 37.8114C54.3925 37.939 54.1313 38.0028 53.8519 38.0028ZM54.0706 37.4014C54.2832 37.4014 54.4836 37.3498 54.6719 37.2465C54.8602 37.1433 55.0607 36.9975 55.2733 36.8092V35.5792C54.5383 35.6703 54.022 35.8069 53.7244 35.9892C53.4328 36.1714 53.287 36.4053 53.287 36.6907C53.287 36.9398 53.3629 37.122 53.5148 37.2374C53.6667 37.3467 53.8519 37.4014 54.0706 37.4014Z" fill="white"/>
<path d="M57.2405 37.8934V33.4654H57.86L57.9238 34.1031H57.9511C58.1637 33.8905 58.3885 33.7144 58.6254 33.5747C58.8623 33.4289 59.1326 33.356 59.4363 33.356C59.904 33.356 60.2441 33.5048 60.4567 33.8025C60.6754 34.094 60.7847 34.5223 60.7847 35.0872V37.8934H60.0376V35.1874C60.0376 34.7743 59.9708 34.4737 59.8372 34.2854C59.7035 34.0971 59.4909 34.0029 59.1994 34.0029C58.9746 34.0029 58.7711 34.0606 58.5889 34.176C58.4128 34.2914 58.2123 34.4615 57.9876 34.6863V37.8934H57.2405Z" fill="white"/>
<path d="M63.5534 38.0028C63.0007 38.0028 62.5572 37.8023 62.2232 37.4014C61.8891 36.9944 61.722 36.4235 61.722 35.6885C61.722 35.2086 61.8101 34.7956 61.9863 34.4494C62.1685 34.0971 62.4054 33.8268 62.6969 33.6385C62.9946 33.4502 63.3104 33.356 63.6445 33.356C63.8996 33.356 64.1213 33.4016 64.3096 33.4927C64.4979 33.5838 64.6893 33.7083 64.8837 33.8662L64.8472 33.11V31.4062H65.6034V37.8934H64.9839L64.9201 37.3741H64.8928C64.7227 37.5442 64.5222 37.693 64.2914 37.8205C64.0606 37.942 63.8146 38.0028 63.5534 38.0028ZM63.7174 37.3741C64.1062 37.3741 64.4828 37.1706 64.8472 36.7636V34.4494C64.6589 34.2793 64.4767 34.1608 64.3005 34.094C64.1305 34.0211 63.9543 33.9847 63.7721 33.9847C63.5352 33.9847 63.3196 34.0576 63.1252 34.2034C62.9369 34.3431 62.785 34.5405 62.6696 34.7956C62.5542 35.0446 62.4965 35.3392 62.4965 35.6794C62.4965 36.2078 62.6028 36.6239 62.8154 36.9276C63.028 37.2253 63.3287 37.3741 63.7174 37.3741Z" fill="white"/>
<path d="M68.5544 37.8934V33.4654H69.174L69.2378 34.2671H69.2651C69.417 33.9877 69.6022 33.766 69.8209 33.602C70.0396 33.438 70.2734 33.356 70.5225 33.356C70.6986 33.356 70.8565 33.3864 70.9962 33.4471L70.8505 34.1031C70.7776 34.0788 70.7108 34.0606 70.65 34.0485C70.5893 34.0363 70.5133 34.0303 70.4222 34.0303C70.2339 34.0303 70.0365 34.1062 69.83 34.258C69.6295 34.4099 69.4534 34.6741 69.3015 35.0507V37.8934H68.5544Z" fill="white"/>
<path d="M73.2368 38.0028C72.842 38.0028 72.4836 37.9116 72.1617 37.7294C71.8398 37.5411 71.5846 37.2739 71.3963 36.9276C71.208 36.5814 71.1139 36.1684 71.1139 35.6885C71.1139 35.2026 71.208 34.7865 71.3963 34.4403C71.5907 34.094 71.8398 33.8268 72.1435 33.6385C72.4472 33.4502 72.7661 33.356 73.1002 33.356C73.665 33.356 74.0993 33.5443 74.4031 33.9209C74.7128 34.2975 74.8677 34.8017 74.8677 35.4334C74.8677 35.5123 74.8647 35.5913 74.8586 35.6703C74.8586 35.7432 74.8525 35.8069 74.8404 35.8616H71.8519C71.8823 36.3293 72.0281 36.7029 72.2892 36.9823C72.5565 37.2617 72.9027 37.4014 73.3279 37.4014C73.5405 37.4014 73.7349 37.371 73.911 37.3103C74.0933 37.2435 74.2664 37.1584 74.4304 37.0552L74.6946 37.5472C74.5063 37.6687 74.2907 37.775 74.0477 37.8661C73.8108 37.9572 73.5405 38.0028 73.2368 38.0028ZM71.8428 35.324H74.2117C74.2117 34.8746 74.1145 34.5344 73.9202 34.3036C73.7319 34.0667 73.4646 33.9482 73.1184 33.9482C72.8086 33.9482 72.5292 34.0697 72.2801 34.3127C72.0372 34.5496 71.8914 34.8867 71.8428 35.324Z" fill="white"/>
<path d="M76.9368 38.0028C76.621 38.0028 76.3203 37.9451 76.0348 37.8296C75.7493 37.7082 75.5003 37.5624 75.2877 37.3923L75.6613 36.8912C75.8556 37.043 76.0561 37.1706 76.2626 37.2739C76.4691 37.371 76.703 37.4196 76.9642 37.4196C77.2557 37.4196 77.4744 37.3528 77.6202 37.2192C77.766 37.0795 77.8389 36.9155 77.8389 36.7272C77.8389 36.5753 77.7872 36.4478 77.684 36.3445C77.5868 36.2412 77.4592 36.1562 77.3013 36.0894C77.1494 36.0165 76.9915 35.9497 76.8275 35.8889C76.621 35.81 76.4175 35.7219 76.2171 35.6247C76.0166 35.5215 75.8526 35.3909 75.7251 35.2329C75.5975 35.0689 75.5337 34.8624 75.5337 34.6134C75.5337 34.255 75.6673 33.9574 75.9346 33.7205C76.2079 33.4775 76.5845 33.356 77.0644 33.356C77.3377 33.356 77.5929 33.4046 77.8298 33.5018C78.0666 33.599 78.2701 33.7174 78.4402 33.8571L78.0758 34.3309C77.9239 34.2155 77.766 34.1214 77.602 34.0485C77.438 33.9756 77.2588 33.9391 77.0644 33.9391C76.785 33.9391 76.5785 34.0029 76.4448 34.1305C76.3173 34.258 76.2535 34.4068 76.2535 34.5769C76.2535 34.7166 76.2991 34.832 76.3902 34.9232C76.4813 35.0082 76.5997 35.0841 76.7455 35.1509C76.8913 35.2117 77.0462 35.2755 77.2102 35.3423C77.4228 35.4212 77.6323 35.5123 77.8389 35.6156C78.0454 35.7128 78.2155 35.8464 78.3491 36.0165C78.4888 36.1805 78.5586 36.4022 78.5586 36.6816C78.5586 36.9185 78.4949 37.1372 78.3673 37.3376C78.2458 37.5381 78.0636 37.699 77.8206 37.8205C77.5837 37.942 77.2891 38.0028 76.9368 38.0028Z" fill="white"/>
<path d="M79.4146 37.8934V33.4654H80.1617V37.8934H79.4146ZM79.7973 32.5542C79.6515 32.5542 79.53 32.5117 79.4328 32.4267C79.3417 32.3356 79.2962 32.2141 79.2962 32.0622C79.2962 31.9164 79.3417 31.798 79.4328 31.7069C79.53 31.6158 79.6515 31.5702 79.7973 31.5702C79.9431 31.5702 80.0615 31.6158 80.1526 31.7069C80.2498 31.798 80.2984 31.9164 80.2984 32.0622C80.2984 32.2141 80.2498 32.3356 80.1526 32.4267C80.0615 32.5117 79.9431 32.5542 79.7973 32.5542Z" fill="white"/>
<path d="M82.9871 38.0028C82.4343 38.0028 81.9909 37.8023 81.6568 37.4014C81.3227 36.9944 81.1557 36.4235 81.1557 35.6885C81.1557 35.2086 81.2438 34.7956 81.4199 34.4494C81.6022 34.0971 81.8391 33.8268 82.1306 33.6385C82.4282 33.4502 82.7441 33.356 83.0782 33.356C83.3333 33.356 83.555 33.4016 83.7433 33.4927C83.9316 33.5838 84.1229 33.7083 84.3173 33.8662L84.2809 33.11V31.4062H85.0371V37.8934H84.4175L84.3538 37.3741H84.3264C84.1563 37.5442 83.9559 37.693 83.7251 37.8205C83.4943 37.942 83.2483 38.0028 82.9871 38.0028ZM83.1511 37.3741C83.5398 37.3741 83.9164 37.1706 84.2809 36.7636V34.4494C84.0926 34.2793 83.9103 34.1608 83.7342 34.094C83.5641 34.0211 83.388 33.9847 83.2057 33.9847C82.9688 33.9847 82.7532 34.0576 82.5588 34.2034C82.3705 34.3431 82.2187 34.5405 82.1033 34.7956C81.9879 35.0446 81.9302 35.3392 81.9302 35.6794C81.9302 36.2078 82.0365 36.6239 82.2491 36.9276C82.4617 37.2253 82.7623 37.3741 83.1511 37.3741Z" fill="white"/>
<path d="M88.1412 38.0028C87.7464 38.0028 87.388 37.9116 87.0661 37.7294C86.7441 37.5411 86.489 37.2739 86.3007 36.9276C86.1124 36.5814 86.0183 36.1684 86.0183 35.6885C86.0183 35.2026 86.1124 34.7865 86.3007 34.4403C86.4951 34.094 86.7441 33.8268 87.0478 33.6385C87.3515 33.4502 87.6704 33.356 88.0045 33.356C88.5694 33.356 89.0037 33.5443 89.3074 33.9209C89.6172 34.2975 89.7721 34.8017 89.7721 35.4334C89.7721 35.5123 89.7691 35.5913 89.763 35.6703C89.763 35.7432 89.7569 35.8069 89.7448 35.8616H86.7563C86.7867 36.3293 86.9324 36.7029 87.1936 36.9823C87.4609 37.2617 87.8071 37.4014 88.2323 37.4014C88.4449 37.4014 88.6393 37.371 88.8154 37.3103C88.9977 37.2435 89.1708 37.1584 89.3348 37.0552L89.599 37.5472C89.4107 37.6687 89.1951 37.775 88.9521 37.8661C88.7152 37.9572 88.4449 38.0028 88.1412 38.0028ZM86.7472 35.324H89.1161C89.1161 34.8746 89.0189 34.5344 88.8245 34.3036C88.6362 34.0667 88.369 33.9482 88.0228 33.9482C87.713 33.9482 87.4336 34.0697 87.1845 34.3127C86.9415 34.5496 86.7958 34.8867 86.7472 35.324Z" fill="white"/>
<path d="M90.6841 37.8934V33.4654H91.3036L91.3674 34.1031H91.3948C91.6074 33.8905 91.8321 33.7144 92.069 33.5747C92.3059 33.4289 92.5762 33.356 92.8799 33.356C93.3476 33.356 93.6878 33.5048 93.9004 33.8025C94.119 34.094 94.2284 34.5223 94.2284 35.0872V37.8934H93.4812V35.1874C93.4812 34.7743 93.4144 34.4737 93.2808 34.2854C93.1472 34.0971 92.9346 34.0029 92.643 34.0029C92.4183 34.0029 92.2148 34.0606 92.0326 34.176C91.8564 34.2914 91.656 34.4615 91.4312 34.6863V37.8934H90.6841Z" fill="white"/>
<path d="M96.8786 38.0028C96.4048 38.0028 96.0738 37.8661 95.8855 37.5928C95.7033 37.3194 95.6121 36.9641 95.6121 36.5267V34.0758H94.9561V33.5109L95.6486 33.4654L95.7397 32.2262H96.3684V33.4654H97.5619V34.0758H96.3684V36.5358C96.3684 36.8092 96.417 37.0218 96.5141 37.1736C96.6174 37.3194 96.7966 37.3923 97.0517 37.3923C97.1307 37.3923 97.2157 37.3802 97.3068 37.3559C97.3979 37.3255 97.4799 37.2982 97.5528 37.2739L97.6986 37.8388C97.5771 37.8813 97.4435 37.9177 97.2977 37.9481C97.158 37.9845 97.0183 38.0028 96.8786 38.0028Z" fill="white"/>
<path d="M99.4491 38.0028C99.1332 38.0028 98.8326 37.9451 98.5471 37.8296C98.2616 37.7082 98.0126 37.5624 97.8 37.3923L98.1735 36.8912C98.3679 37.043 98.5684 37.1706 98.7749 37.2739C98.9814 37.371 99.2153 37.4196 99.4764 37.4196C99.768 37.4196 99.9867 37.3528 100.132 37.2192C100.278 37.0795 100.351 36.9155 100.351 36.7272C100.351 36.5753 100.299 36.4478 100.196 36.3445C100.099 36.2412 99.9715 36.1562 99.8136 36.0894C99.6617 36.0165 99.5038 35.9497 99.3398 35.8889C99.1333 35.81 98.9298 35.7219 98.7293 35.6247C98.5289 35.5215 98.3649 35.3909 98.2373 35.2329C98.1098 35.0689 98.046 34.8624 98.046 34.6134C98.046 34.255 98.1796 33.9574 98.4469 33.7205C98.7202 33.4775 99.0968 33.356 99.5767 33.356C99.85 33.356 100.105 33.4046 100.342 33.5018C100.579 33.599 100.782 33.7174 100.952 33.8571L100.588 34.3309C100.436 34.2155 100.278 34.1214 100.114 34.0485C99.9502 33.9756 99.771 33.9391 99.5767 33.9391C99.2973 33.9391 99.0907 34.0029 98.9571 34.1305C98.8295 34.258 98.7658 34.4068 98.7658 34.5769C98.7658 34.7166 98.8113 34.832 98.9024 34.9232C98.9935 35.0082 99.112 35.0841 99.2578 35.1509C99.4035 35.2117 99.5584 35.2755 99.7224 35.3423C99.935 35.4212 100.145 35.5123 100.351 35.6156C100.558 35.7128 100.728 35.8464 100.861 36.0165C101.001 36.1805 101.071 36.4022 101.071 36.6816C101.071 36.9185 101.007 37.1372 100.88 37.3376C100.758 37.5381 100.576 37.699 100.333 37.8205C100.096 37.942 99.8014 38.0028 99.4491 38.0028Z" fill="white"/>
<path d="M105.291 38.0028C104.932 38.0028 104.595 37.9116 104.279 37.7294C103.97 37.5472 103.717 37.283 103.523 36.9367C103.335 36.5905 103.241 36.1744 103.241 35.6885C103.241 35.1904 103.335 34.7683 103.523 34.422C103.717 34.0758 103.97 33.8116 104.279 33.6294C104.595 33.4471 104.932 33.356 105.291 33.356C105.655 33.356 105.992 33.4471 106.302 33.6294C106.612 33.8116 106.861 34.0758 107.049 34.422C107.244 34.7683 107.341 35.1904 107.341 35.6885C107.341 36.1744 107.244 36.5905 107.049 36.9367C106.861 37.283 106.612 37.5472 106.302 37.7294C105.992 37.9116 105.655 38.0028 105.291 38.0028ZM105.291 37.3832C105.673 37.3832 105.98 37.2283 106.211 36.9185C106.448 36.6027 106.566 36.1927 106.566 35.6885C106.566 35.1783 106.448 34.7652 106.211 34.4494C105.98 34.1335 105.673 33.9756 105.291 33.9756C104.914 33.9756 104.607 34.1335 104.37 34.4494C104.134 34.7652 104.015 35.1783 104.015 35.6885C104.015 36.1927 104.134 36.6027 104.37 36.9185C104.607 37.2283 104.914 37.3832 105.291 37.3832Z" fill="white"/>
<path d="M108.452 37.8934V34.0758H107.851V33.5109L108.452 33.4654V32.7638C108.452 32.3143 108.556 31.959 108.762 31.6978C108.975 31.4305 109.303 31.2969 109.746 31.2969C109.886 31.2969 110.019 31.3121 110.147 31.3424C110.274 31.3667 110.387 31.4001 110.484 31.4427L110.32 32.0167C110.156 31.9438 109.989 31.9073 109.819 31.9073C109.406 31.9073 109.199 32.1928 109.199 32.7638V33.4654H110.138V34.0758H109.199V37.8934H108.452Z" fill="white"/>
<path d="M114.868 38.0028C114.346 38.0028 113.881 37.8813 113.474 37.6383C113.067 37.3893 112.748 37.0339 112.518 36.5723C112.287 36.1107 112.171 35.5549 112.171 34.9049C112.171 34.2611 112.29 33.7083 112.527 33.2467C112.764 32.785 113.089 32.4297 113.502 32.1807C113.915 31.9316 114.385 31.8071 114.914 31.8071C115.327 31.8071 115.673 31.8861 115.953 32.044C116.238 32.1959 116.466 32.3629 116.636 32.5451L116.217 33.0371C116.065 32.8792 115.889 32.7456 115.688 32.6362C115.488 32.5269 115.236 32.4722 114.932 32.4722C114.531 32.4722 114.182 32.5725 113.884 32.7729C113.587 32.9673 113.356 33.2436 113.192 33.602C113.034 33.9604 112.955 34.3886 112.955 34.8867C112.955 35.6399 113.125 36.2382 113.465 36.6816C113.811 37.119 114.303 37.3376 114.941 37.3376C115.154 37.3376 115.357 37.3073 115.552 37.2465C115.746 37.1797 115.901 37.0916 116.016 36.9823V35.4243H114.75V34.7956H116.709V37.3103C116.52 37.5107 116.265 37.6778 115.943 37.8114C115.628 37.939 115.269 38.0028 114.868 38.0028Z" fill="white"/>
<path d="M117.886 37.8934V31.4062H118.633V33.1738L118.606 34.0849C118.818 33.8845 119.04 33.7144 119.271 33.5747C119.508 33.4289 119.778 33.356 120.082 33.356C120.549 33.356 120.889 33.5048 121.102 33.8025C121.321 34.094 121.43 34.5223 121.43 35.0872V37.8934H120.683V35.1874C120.683 34.7743 120.616 34.4737 120.483 34.2854C120.349 34.0971 120.136 34.0029 119.845 34.0029C119.62 34.0029 119.417 34.0606 119.234 34.176C119.058 34.2914 118.858 34.4615 118.633 34.6863V37.8934H117.886Z" fill="white"/>
<path d="M123.68 38.0028C123.31 38.0028 123 37.8934 122.751 37.6748C122.508 37.45 122.386 37.1402 122.386 36.7454C122.386 36.2595 122.602 35.8889 123.033 35.6338C123.471 35.3726 124.16 35.1904 125.101 35.0872C125.101 34.8989 125.074 34.7197 125.019 34.5496C124.971 34.3795 124.88 34.2428 124.746 34.1396C124.619 34.0303 124.433 33.9756 124.19 33.9756C123.935 33.9756 123.695 34.0242 123.471 34.1214C123.246 34.2185 123.045 34.3279 122.869 34.4494L122.578 33.93C122.784 33.7964 123.036 33.6688 123.334 33.5474C123.638 33.4198 123.966 33.356 124.318 33.356C124.858 33.356 125.25 33.5231 125.493 33.8571C125.736 34.1851 125.858 34.6255 125.858 35.1783V37.8934H125.238L125.174 37.365H125.147C124.94 37.535 124.713 37.6839 124.464 37.8114C124.221 37.939 123.959 38.0028 123.68 38.0028ZM123.899 37.4014C124.111 37.4014 124.312 37.3498 124.5 37.2465C124.688 37.1433 124.889 36.9975 125.101 36.8092V35.5792C124.366 35.6703 123.85 35.8069 123.553 35.9892C123.261 36.1714 123.115 36.4053 123.115 36.6907C123.115 36.9398 123.191 37.122 123.343 37.2374C123.495 37.3467 123.68 37.4014 123.899 37.4014Z" fill="white"/>
<path d="M127.069 37.8934V33.4654H127.688L127.752 34.1031H127.779C127.992 33.8905 128.217 33.7144 128.454 33.5747C128.69 33.4289 128.961 33.356 129.264 33.356C129.732 33.356 130.072 33.5048 130.285 33.8025C130.504 34.094 130.613 34.5223 130.613 35.0872V37.8934H129.866V35.1874C129.866 34.7743 129.799 34.4737 129.665 34.2854C129.532 34.0971 129.319 34.0029 129.028 34.0029C128.803 34.0029 128.599 34.0606 128.417 34.176C128.241 34.2914 128.04 34.4615 127.816 34.6863V37.8934H127.069Z" fill="white"/>
<path d="M132.89 38.0028C132.519 38.0028 132.209 37.8934 131.96 37.6748C131.717 37.45 131.596 37.1402 131.596 36.7454C131.596 36.2595 131.811 35.8889 132.243 35.6338C132.68 35.3726 133.369 35.1904 134.311 35.0872C134.311 34.8989 134.284 34.7197 134.229 34.5496C134.18 34.3795 134.089 34.2428 133.956 34.1396C133.828 34.0303 133.643 33.9756 133.4 33.9756C133.145 33.9756 132.905 34.0242 132.68 34.1214C132.455 34.2185 132.255 34.3279 132.079 34.4494L131.787 33.93C131.994 33.7964 132.246 33.6688 132.543 33.5474C132.847 33.4198 133.175 33.356 133.527 33.356C134.068 33.356 134.46 33.5231 134.703 33.8571C134.946 34.1851 135.067 34.6255 135.067 35.1783V37.8934H134.448L134.384 37.365H134.356C134.15 37.535 133.922 37.6839 133.673 37.8114C133.43 37.939 133.169 38.0028 132.89 38.0028ZM133.108 37.4014C133.321 37.4014 133.521 37.3498 133.71 37.2465C133.898 37.1433 134.098 36.9975 134.311 36.8092V35.5792C133.576 35.6703 133.06 35.8069 132.762 35.9892C132.47 36.1714 132.325 36.4053 132.325 36.6907C132.325 36.9398 132.401 37.122 132.552 37.2374C132.704 37.3467 132.89 37.4014 133.108 37.4014Z" fill="white"/>
</svg>
