<svg width="16" height="16" viewBox="0 0 16 16" fill="none" xmlns="http://www.w3.org/2000/svg">
<g id="copy-01" clip-path="url(#clip0_3065_29906)">
<path id="Icon" d="M3.33398 10.0026C2.71273 10.0026 2.4021 10.0026 2.15707 9.90111C1.83037 9.76578 1.5708 9.50622 1.43548 9.17951C1.33398 8.93449 1.33398 8.62386 1.33398 8.0026V3.46927C1.33398 2.72253 1.33398 2.34917 1.47931 2.06395C1.60714 1.81307 1.81111 1.60909 2.062 1.48126C2.34721 1.33594 2.72058 1.33594 3.46732 1.33594H8.00065C8.62191 1.33594 8.93253 1.33594 9.17756 1.43743C9.50427 1.57276 9.76383 1.83232 9.89916 2.15903C10.0007 2.40405 10.0007 2.71468 10.0007 3.33594M8.13398 14.6693H12.534C13.2807 14.6693 13.6541 14.6693 13.9393 14.5239C14.1902 14.3961 14.3942 14.1921 14.522 13.9413C14.6673 13.656 14.6673 13.2827 14.6673 12.5359V8.13594C14.6673 7.3892 14.6673 7.01583 14.522 6.73062C14.3942 6.47973 14.1902 6.27576 13.9393 6.14793C13.6541 6.0026 13.2807 6.0026 12.534 6.0026H8.13398C7.38725 6.0026 7.01388 6.0026 6.72866 6.14793C6.47778 6.27576 6.27381 6.47973 6.14598 6.73062C6.00065 7.01583 6.00065 7.3892 6.00065 8.13594V12.5359C6.00065 13.2827 6.00065 13.656 6.14598 13.9413C6.27381 14.1921 6.47778 14.3961 6.72866 14.5239C7.01388 14.6693 7.38725 14.6693 8.13398 14.6693Z" stroke="#FFD522" stroke-width="1.3" stroke-linecap="round" stroke-linejoin="round"/>
</g>
<defs>
<clipPath id="clip0_3065_29906">
<rect width="16" height="16" fill="white"/>
</clipPath>
</defs>
</svg>
