<svg width="64" height="64" viewBox="0 0 64 64" fill="none" xmlns="http://www.w3.org/2000/svg">
<g id="icons8-purchase_order 1">
<path id="Vector" d="M49.0663 6.39844C49.6321 6.39849 50.1746 6.62327 50.5747 7.02334C50.9748 7.4234 51.1996 7.96599 51.1996 8.53177V44.7984H55.4663C56.0321 44.7985 56.5746 45.0233 56.9747 45.4233C57.3748 45.8234 57.5996 46.366 57.5996 46.9318C57.5996 52.7974 52.7986 57.5984 46.9329 57.5984H19.1996C19.1286 57.5978 19.0577 57.5936 18.9871 57.5859C13.2194 57.4706 8.53294 52.7257 8.53294 46.9318V8.53177C8.533 7.96599 8.75778 7.4234 9.15785 7.02334C9.55791 6.62327 10.1005 6.39849 10.6663 6.39844H49.0663ZM46.9329 10.6651H12.7996V46.9318C12.7996 50.4912 15.6402 53.3318 19.1996 53.3318C22.759 53.3318 25.5996 50.4912 25.5996 46.9318C25.5997 46.366 25.8244 45.8234 26.2245 45.4233C26.6246 45.0233 27.1672 44.7985 27.7329 44.7984H46.9329V10.6651ZM40.5329 17.0651V21.3318H36.2663V17.0651H40.5329ZM31.9996 17.0651V21.3318H19.1996V17.0651H31.9996ZM40.5329 25.5984V29.8651H36.2663V25.5984H40.5329ZM31.9996 25.5984V29.8651H19.1996V25.5984H31.9996ZM40.5329 34.1318V38.3984H36.2663V34.1318H40.5329ZM31.9996 34.1318V38.3984H19.1996V34.1318H31.9996Z" fill="#D2D6D9"/>
</g>
</svg>
