<svg width="14" height="14" viewBox="0 0 14 14" fill="none" xmlns="http://www.w3.org/2000/svg">
<path fill-rule="evenodd" clip-rule="evenodd" d="M7.00065 0.582031C3.45682 0.582031 0.583984 3.45487 0.583984 6.9987C0.583984 10.5425 3.45682 13.4154 7.00065 13.4154C10.5445 13.4154 13.4173 10.5425 13.4173 6.9987C13.4173 3.45487 10.5445 0.582031 7.00065 0.582031ZM9.16313 4.83622C9.39093 5.06402 9.39093 5.43337 9.16313 5.66118L7.82561 6.9987L9.16313 8.33622C9.39093 8.56402 9.39093 8.93337 9.16313 9.16118C8.93532 9.38898 8.56598 9.38898 8.33817 9.16118L7.00065 7.82366L5.66313 9.16118C5.43532 9.38898 5.06598 9.38898 4.83817 9.16118C4.61037 8.93337 4.61037 8.56402 4.83817 8.33622L6.17569 6.9987L4.83817 5.66118C4.61037 5.43337 4.61037 5.06402 4.83817 4.83622C5.06598 4.60841 5.43532 4.60841 5.66313 4.83622L7.00065 6.17374L8.33817 4.83622C8.56598 4.60841 8.93532 4.60841 9.16313 4.83622Z" fill="#ED1B2E"/>
</svg>
