<svg id="Group_15" data-name="Group 15" xmlns="http://www.w3.org/2000/svg" width="14.927" height="18.266" viewBox="0 0 14.927 18.266">
  <g id="Group_13" data-name="Group 13" transform="translate(0 4.331)">
    <path id="Path_5" data-name="Path 5" d="M331.108,508.923c-1.545,2.68-.563,6.747,1.145,9.212.853,1.233,1.715,2.339,2.9,2.339h.068a3.582,3.582,0,0,0,1.345-.359,3.676,3.676,0,0,1,1.593-.377,3.472,3.472,0,0,1,1.515.365,3.216,3.216,0,0,0,1.453.349c1.332-.026,2.149-1.219,2.87-2.273a10.059,10.059,0,0,0,1.258-2.576l0-.016a.147.147,0,0,0-.079-.183l-.01-.006a3.813,3.813,0,0,1-2.314-3.494,3.93,3.93,0,0,1,1.857-3.285l.014-.009a.151.151,0,0,0,.043-.21,4.319,4.319,0,0,0-3.4-1.846,2.924,2.924,0,0,0-.3-.014,5.943,5.943,0,0,0-2.134.532,1.912,1.912,0,0,1-2.077,0A5.109,5.109,0,0,0,335,506.6h-.048A4.562,4.562,0,0,0,331.108,508.923Z" transform="translate(-330.338 -506.54)" fill="#020202"/>
  </g>
  <g id="Group_14" data-name="Group 14" transform="translate(7.266 0)">
    <path id="Path_6" data-name="Path 6" d="M339.226,503.487a4.172,4.172,0,0,0-2.753,1.411,3.9,3.9,0,0,0-.989,2.9.15.15,0,0,0,.136.129c.064.006.129.007.194.007a3.533,3.533,0,0,0,2.6-1.332,4.124,4.124,0,0,0,.967-2.981A.151.151,0,0,0,339.226,503.487Z" transform="translate(-335.46 -503.487)" fill="#020202"/>
  </g>
</svg>
