<svg width="12" height="12" viewBox="0 0 12 12" fill="none" xmlns="http://www.w3.org/2000/svg"><path d="M1 4.4c0-.84 0-1.26.163-1.581a1.5 1.5 0 0 1 .656-.656C2.139 2 2.559 2 3.4 2h5.2c.84 0 1.26 0 1.581.163a1.5 1.5 0 0 1 .655.656c.164.32.164.74.164 1.581v3.2c0 .84 0 1.26-.164 1.581a1.5 1.5 0 0 1-.655.656C9.861 10 9.441 10 8.6 10H3.4c-.84 0-1.26 0-1.581-.163a1.5 1.5 0 0 1-.656-.656C1 8.861 1 8.441 1 7.6V4.4z" fill="#2E2E2E"/><path d="M1 3.5l4.082 2.858c.331.231.496.347.676.392a1 1 0 0 0 .484 0c.18-.045.345-.16.676-.392L11 3.5M3.4 10h5.2c.84 0 1.26 0 1.581-.163a1.5 1.5 0 0 0 .655-.656C11 8.861 11 8.441 11 7.6V4.4c0-.84 0-1.26-.164-1.581a1.5 1.5 0 0 0-.655-.656C9.861 2 9.441 2 8.6 2H3.4c-.84 0-1.26 0-1.581.163a1.5 1.5 0 0 0-.656.656C1 3.139 1 3.559 1 4.4v3.2c0 .84 0 1.26.163 1.581a1.5 1.5 0 0 0 .656.656c.32.163.74.163 1.581.163z" stroke="#fff" stroke-linecap="round" stroke-linejoin="round"/></svg>