<svg width="69" height="81" viewBox="0 0 69 81" fill="none" xmlns="http://www.w3.org/2000/svg"><path d="M43.62.188H.6V73.21h56.46V14.42L43.62.187zm.643 3.97l9.049 9.58h-9.05v-9.58zM54.8 70.951H2.858V2.446H42v13.551h12.8v54.955z" fill="#F7961C"/><path d="M49.908 28.945H7.752v2.258h42.157v-2.258zm-24.089-7.528H7.75v2.258h18.067v-2.258zm24.089 15.056H7.752v2.258h42.157v-2.258zm0 7.528H7.752v2.258h42.157v-2.258zm0 7.529H7.752v2.258h42.157V51.53zm0 7.528H7.752v2.258h42.157v-2.258z" fill="#F7961C"/><path d="M52.4 80.317c8.837 0 16-7.163 16-16 0-8.836-7.163-16-16-16-8.836 0-16 7.164-16 16 0 8.837 7.164 16 16 16z" fill="#fff"/><path d="M46.342 65.57l-.772-.772a.83.83 0 0 1 0-1.18l6.757-6.765a.83.83 0 0 1 1.18 0l6.76 6.761a.832.832 0 0 1 0 1.18l-.771.772a.837.837 0 0 1-1.194-.014l-3.988-4.19v10a.834.834 0 0 1-.835.834h-1.114a.834.834 0 0 1-.838-.835v-10l-3.991 4.195a.83.83 0 0 1-1.194.014z" fill="#F7961C"/></svg>