<svg width="33" height="32" viewBox="0 0 33 32" fill="none" xmlns="http://www.w3.org/2000/svg"><path d="M.5 8a8 8 0 0 1 8-8h16a8 8 0 0 1 8 8v16a8 8 0 0 1-8 8h-16a8 8 0 0 1-8-8V8z" fill="#fff"/><path d="M26.305 14.041H25.5V14h-9v4h5.651A5.998 5.998 0 0 1 10.5 16a6 6 0 0 1 6-6c1.53 0 2.921.577 3.98 1.52l2.83-2.83A9.954 9.954 0 0 0 16.5 6c-5.523 0-10 4.477-10 10s4.477 10 10 10 10-4.477 10-10c0-.67-.069-1.325-.195-1.959z" fill="#FFC107"/><path d="M7.653 11.345l3.285 2.41A5.997 5.997 0 0 1 16.5 10c1.53 0 2.921.577 3.98 1.52l2.83-2.83A9.954 9.954 0 0 0 16.5 6a9.994 9.994 0 0 0-8.847 5.345z" fill="#FF3D00"/><path d="M16.5 26c2.583 0 4.93-.988 6.704-2.596l-3.095-2.619A5.955 5.955 0 0 1 16.5 22a5.997 5.997 0 0 1-5.642-3.973l-3.26 2.513A9.989 9.989 0 0 0 16.5 26z" fill="#4CAF50"/><path d="M26.305 14.041H25.5V14h-9v4h5.651a6.02 6.02 0 0 1-2.043 2.785h.002l3.095 2.619C22.985 23.602 26.5 21 26.5 16c0-.67-.069-1.325-.195-1.959z" fill="#1976D2"/></svg>