<svg width="125" height="126" viewBox="0 0 125 126" fill="none" xmlns="http://www.w3.org/2000/svg"><path d="M62.5 56.75A31.25 31.25 0 0 1 93.75 88v37.5h-62.5V88A31.25 31.25 0 0 1 62.5 56.75zM20.55 75.537A43.645 43.645 0 0 0 18.8 85.85L18.75 88v37.5H0V97.375a21.875 21.875 0 0 1 19.494-21.75l1.056-.088zm83.9 0A21.882 21.882 0 0 1 125 97.375V125.5h-18.75V88c0-4.331-.625-8.513-1.8-12.463zM21.875 38a15.625 15.625 0 1 1 0 31.25 15.625 15.625 0 0 1 0-31.25zm81.25 0a15.627 15.627 0 0 1 15.625 15.625A15.625 15.625 0 1 1 103.125 38zM62.5.5a25 25 0 1 1 0 50 25 25 0 0 1 0-50z" fill="#99CAFF"/></svg>