<svg width="10" height="10" viewBox="0 0 10 10" fill="none" xmlns="http://www.w3.org/2000/svg"><path d="M3.19 3.427a7.301 7.301 0 0 0 1.423 2.005c.601.6 1.28 1.075 2.005 1.423.063.03.094.045.133.056.14.041.313.012.431-.073.034-.024.062-.053.12-.11.174-.175.262-.262.35-.32a1 1 0 0 1 1.09 0c.088.058.175.145.35.32l.097.097c.266.266.399.399.47.542a1 1 0 0 1 0 .902c-.071.143-.204.276-.47.542l-.079.079c-.264.264-.397.397-.577.498-.2.112-.51.193-.739.192-.206 0-.348-.04-.63-.12a9.52 9.52 0 0 1-4.142-2.437A9.52 9.52 0 0 1 .586 2.88c-.08-.283-.12-.424-.121-.63 0-.23.08-.54.192-.74.101-.18.234-.312.498-.576l.08-.08c.265-.265.398-.398.54-.47a1 1 0 0 1 .903 0c.143.072.276.205.541.47l.098.098c.175.175.262.262.32.35a1 1 0 0 1 0 1.09c-.058.088-.145.176-.32.35-.057.058-.086.086-.11.12a.523.523 0 0 0-.017.564z" fill="#2E2E2E"/></svg>