<svg xmlns="http://www.w3.org/2000/svg" width="83.756" height="83.756" viewBox="0 0 83.756 83.756"><g id="Group_41144" data-name="Group 41144" transform="translate(-764.079 -1781.24)"><path id="Path_32916" data-name="Path 32916" d="M836.978 1781.24h-62.042a10.869 10.869 0 0 0-10.857 10.857v62.042A10.869 10.869 0 0 0 774.936 1865h62.042a10.869 10.869 0 0 0 10.857-10.857V1792.1a10.87 10.87 0 0 0-10.857-10.857z" fill="#00996a"/><g id="Group_41143" data-name="Group 41143"><g id="Group_41142" data-name="Group 41142" fill="#fff"><path id="Path_32917" data-name="Path 32917" d="M822.971 1824.011a11.643 11.643 0 0 0 .8-3.847q.02-4.45-.005-8.9a6.216 6.216 0 0 0-.207-1.5 6.7 6.7 0 0 0-6.39-4.926c-7.788.017-15.578 0-23.366.011a7.035 7.035 0 0 0-1.1.117 6.683 6.683 0 0 0-5.528 6.677c0 2.457-.006 4.914.006 7.371 0 .622.064 1.244.1 1.865a12.577 12.577 0 0 0 1.212 4.313 15.076 15.076 0 0 0 2.007 3.272c0 .33-.008 9.9.006 17.088a6.5 6.5 0 0 0 1.854 4.58 6.627 6.627 0 0 0 4.974 2.085c5.1.024 10.2.012 15.3 0a16.329 16.329 0 0 0 2-.112 6.6 6.6 0 0 0 5.81-6.878c-.007-7.117 0-16.544 0-16.749a14.24 14.24 0 0 0 2.527-4.467zm-6.78-1.588a.422.422 0 0 1-.421.422h-20.494a.421.421 0 0 1-.421-.422v-10.033a.421.421 0 0 1 .421-.421h20.494a.422.422 0 0 1 .421.421z"/><path id="Path_32918" data-name="Path 32918" d="M816.391 1802.665v-6.318a2.582 2.582 0 0 0-2.582-2.582h-16.656a2.582 2.582 0 0 0-2.582 2.582v6.318z"/></g></g></g></svg>