<svg xmlns="http://www.w3.org/2000/svg" width="80" height="80.005" viewBox="0 0 80 80.005"><g id="Group_41135" data-name="Group 41135" transform="translate(-602.369 -1597.941)"><path id="Path_32899" data-name="Path 32899" d="M669.715 1670.412v4.272a3.355 3.355 0 0 1-3.44 3.262h-47.81a3.355 3.355 0 0 1-3.44-3.262v-4.272z" fill="#0f786a"/><rect id="Rectangle_22681" data-name="Rectangle 22681" width="80" height="69" rx="7.12" transform="translate(602.369 1597.941)" fill="#0f786a"/><g id="Group_41134" data-name="Group 41134" fill="none" stroke="#fff" stroke-linecap="round" stroke-linejoin="round" stroke-width="2.213"><path id="Path_32871" data-name="Path 32871" d="M644.955 1629.447v11.8h7.669l-12.18 15.2v-11.183h-7.75z"/><g id="Group_41123" data-name="Group 41123"><rect id="Rectangle_22680" data-name="Rectangle 22680" width="54.692" height="13.673" rx="4" transform="translate(615.023 1608.193)"/><g id="Group_41125" data-name="Group 41125"><path id="Line_2246" data-name="Line 2246" transform="translate(622.523 1613.692)" d="M0 0v2.849"/><path id="Line_2246-2" data-name="Line 2246-2" transform="translate(630.458 1613.692)" d="M0 0v2.849"/><path id="Line_2246-3" data-name="Line 2246-3" transform="translate(638.392 1613.692)" d="M0 0v2.849"/><path id="Line_2246-4" data-name="Line 2246-4" transform="translate(646.327 1613.692)" d="M0 0v2.849"/><path id="Line_2246-5" data-name="Line 2246-5" transform="translate(653.651 1613.692)" d="M0 0v2.849"/><path id="Line_2246-6" data-name="Line 2246-6" transform="translate(662.196 1613.692)" d="M0 0v2.849"/></g></g></g></g></svg>