<svg width="524" height="246" viewBox="0 0 524 246" fill="none" xmlns="http://www.w3.org/2000/svg"><path d="M0 12C0 5.373 5.373 0 12 0h500c6.627 0 12 5.373 12 12v222c0 6.627-5.373 12-12 12H12c-6.627 0-12-5.373-12-12V12z" fill="#E6EAED"/><g clip-path="url(#clip0_1_20310)"><path d="M290 146.333v2.334a7 7 0 0 1-7 7h-56a7 7 0 0 1-7-7v-37.334a7 7 0 0 1 7-7h2.333v30.334c0 6.433 5.234 11.666 11.667 11.666h49zm14-11.666V97.333a7 7 0 0 0-7-7h-56a7 7 0 0 0-7 7v37.334a7 7 0 0 0 7 7h56a7 7 0 0 0 7-7zm-46.667-30.334a7 7 0 1 1-14 0 7 7 0 0 1 14 0zm-14 21l8.096-8.096a1.75 1.75 0 0 1 2.475 0l5.763 5.763 19.762-19.763a1.75 1.75 0 0 1 2.475 0L294.667 116v16.333h-51.334v-7z" fill="#9CABB8"/></g><defs><clipPath id="clip0_1_20310"><path fill="#fff" transform="translate(220 81)" d="M0 0h84v84H0z"/></clipPath></defs></svg>