<svg width="32" height="32" viewBox="0 0 32 32" fill="none" xmlns="http://www.w3.org/2000/svg"><g clip-path="url(#clip0_3803_4206)"><path d="M10 22a4 4 0 1 0 0-8 4 4 0 0 0 0 8zm0-6a2 2 0 1 1 0 4 2 2 0 0 1 0-4zm5 8H5a5 5 0 0 0-5 5 3 3 0 0 0 3 3h14a3 3 0 0 0 3-3 5 5 0 0 0-5-5zm2 6H3a1 1 0 0 1-1-1 3 3 0 0 1 3-3h10a3 3 0 0 1 3 3 1 1 0 0 1-1 1zM32 5v10a5 5 0 0 1-5 5h-5.586l-3.706 3.708A1 1 0 0 1 16 23v-4a1 1 0 0 1 2 0v1.586l2.292-2.294A1 1 0 0 1 21 18h6a3 3 0 0 0 3-3V5a3 3 0 0 0-3-3H13a3 3 0 0 0-3 3v6a1 1 0 1 1-2 0V5a5 5 0 0 1 5-5h14a5 5 0 0 1 5 5zm-15.708 7.292L20.586 8H17a1 1 0 1 1 0-2h6a1 1 0 0 1 1 1v6a1 1 0 0 1-2 0V9.414l-4.292 4.294a1 1 0 0 1-1.416 0 1 1 0 0 1 0-1.416z" fill="#2E388F"/></g><defs><clipPath id="clip0_3803_4206"><path fill="#fff" d="M0 0h32v32H0z"/></clipPath></defs></svg>