<svg width="24" height="24" viewBox="0 0 24 24" fill="none" xmlns="http://www.w3.org/2000/svg"><path d="M7.5 16.5a3 3 0 1 0 0-6 3 3 0 0 0 0 6zm0-4.5a1.5 1.5 0 1 1 0 3 1.5 1.5 0 0 1 0-3zm3.75 6h-7.5A3.75 3.75 0 0 0 0 21.75 2.25 2.25 0 0 0 2.25 24h10.5A2.25 2.25 0 0 0 15 21.75 3.75 3.75 0 0 0 11.25 18zm1.5 4.5H2.25a.75.75 0 0 1-.75-.75 2.25 2.25 0 0 1 2.25-2.25h7.5a2.25 2.25 0 0 1 2.25 2.25.75.75 0 0 1-.75.75zM24 3.75v7.5A3.75 3.75 0 0 1 20.25 15h-4.19l-2.779 2.781a.749.749 0 0 1-1.154-.114.75.75 0 0 1-.127-.417v-3a.75.75 0 1 1 1.5 0v1.19l1.719-1.721a.749.749 0 0 1 .531-.219h4.5a2.25 2.25 0 0 0 2.25-2.25v-7.5a2.25 2.25 0 0 0-2.25-2.25H9.75A2.25 2.25 0 0 0 7.5 3.75v4.5a.75.75 0 0 1-1.5 0v-4.5A3.75 3.75 0 0 1 9.75 0h10.5A3.75 3.75 0 0 1 24 3.75zM12.219 9.219L15.439 6H12.75a.75.75 0 1 1 0-1.5h4.5a.75.75 0 0 1 .75.75v4.5a.75.75 0 1 1-1.5 0V7.06l-3.219 3.221a.749.749 0 0 1-.818.162.749.749 0 0 1-.244-1.224z" fill="#fff"/></svg>