<svg xmlns="http://www.w3.org/2000/svg" width="95.321" height="80" viewBox="0 0 95.321 80"><g id="Group_41138" data-name="Group 41138" transform="translate(-903.02 -1597.941)" fill="#991b33"><path id="Path_32901" data-name="Path 32901" d="M930.2 1617.71a6.882 6.882 0 0 1-1.158 2.92 9.585 9.585 0 0 1-2.124 2 3.3 3.3 0 0 1-1.075.485 8.217 8.217 0 0 1-2.6.418 6.977 6.977 0 0 1-6.622-5.924 6.953 6.953 0 0 1-2.868 4.695 6.534 6.534 0 0 1-5.248 1.15 6.74 6.74 0 0 1-5.483-6.685c1.1-1.947 2.239-3.942 3.364-5.945.83-1.478 1.637-2.969 2.467-4.446.812-1.445 1.645-2.878 2.461-4.321.361-.638.727-1.275 1.047-1.934a3.5 3.5 0 0 1 1.139-1.323 4.412 4.412 0 0 1 2.526-.854c.492-.008.983 0 1.475 0h31.647q17.787 0 35.575-.005a5.548 5.548 0 0 1 2.415.458 3.841 3.841 0 0 1 1.845 1.743c.392.751.817 1.486 1.231 2.225q.926 1.652 1.857 3.3c.621 1.1 1.246 2.2 1.865 3.3.433.77.854 1.547 1.287 2.317.795 1.41 1.6 2.817 2.393 4.227.2.36.384.734.6 1.089a1.337 1.337 0 0 1 .087.939 6.682 6.682 0 0 1-4.922 5.718 6.372 6.372 0 0 1-2.743.2 6.651 6.651 0 0 1-3.6-1.628 6.942 6.942 0 0 1-1.484-1.826 5.981 5.981 0 0 1-.765-2.159c-.005-.045-.051-.084-.088-.142a6.881 6.881 0 0 1-7.7 5.75 6.765 6.765 0 0 1-5.879-5.663 3.129 3.129 0 0 0-.139.344 7.6 7.6 0 0 1-1.634 3.119 6.6 6.6 0 0 1-2.728 1.822 6.47 6.47 0 0 1-3.22.383 6.567 6.567 0 0 1-3.337-1.408 6.969 6.969 0 0 1-1.748-2.047 8 8 0 0 1-.81-2.4c-.2.629-.326 1.157-.533 1.651a6.776 6.776 0 0 1-.788 1.427 6.916 6.916 0 0 1-1.164 1.22 7.07 7.07 0 0 1-1.407.926 10.632 10.632 0 0 1-1.6.54 6.632 6.632 0 0 1-1.629.128 4.61 4.61 0 0 1-1.663-.269 6.854 6.854 0 0 1-4.838-5.6 1.232 1.232 0 0 0-.125.27 6.749 6.749 0 0 1-2.867 4.417 6.589 6.589 0 0 1-4.719 1.146 6.291 6.291 0 0 1-3.549-1.592 7.783 7.783 0 0 1-1.505-1.813 6.59 6.59 0 0 1-.776-2.1 1.714 1.714 0 0 0-.059-.212c.002-.009-.026-.011-.084-.031z"/><path id="Path_32902" data-name="Path 32902" d="M980.151 1625.363a6.884 6.884 0 0 0 4.5-5.742c.253.388.162.828.315 1.2.164.4.294.817.492 1.2a7.429 7.429 0 0 0 .677 1.039c.248.329.535.63.846.992v45.348c-.233.011-.416.027-.6.027h-72v-45.455a6.868 6.868 0 0 0 2.2-4.346 12.013 12.013 0 0 1 .343 1.261c.168.4.3.815.5 1.194a7.128 7.128 0 0 0 .7 1.024 6.785 6.785 0 0 0 .832.918 7.28 7.28 0 0 0 1.056.752c.351.213.733.376 1.159.591v28.145h58.962c0-.541.01-1.081.012-1.621s0-1.1 0-1.645v-24.883z"/><path id="Path_32903" data-name="Path 32903" d="M994.931 1671.11v6.779a4.155 4.155 0 0 1-.414.05h-88.1v-6.739a.926.926 0 0 1 .624-.085q4.9-.008 9.81 0h78.08z"/><path id="Path_32904" data-name="Path 32904" d="M935.034 1645.822c-.188.009-.32.022-.452.021a1.117 1.117 0 0 1-.8-1.915 6.973 6.973 0 0 1 .757-.585q1.864-1.321 3.735-2.632c1.063-.743 2.138-1.47 3.2-2.214 1.341-.939 2.671-1.893 4.012-2.833 1.37-.961 2.748-1.913 4.121-2.871.848-.592 1.693-1.189 2.542-1.78a4.39 4.39 0 0 1 .48-.294 1.127 1.127 0 0 1 1.3 1.829c-.245.175-.47.377-.716.551q-2.028 1.432-4.062 2.857-1.062.745-2.128 1.484l-4.956 3.449q-2.594 1.806-5.184 3.616c-.623.431-1.231.875-1.849 1.317z"/><path id="Path_32905" data-name="Path 32905" d="M948.157 1645.892a1.136 1.136 0 0 1-1.036-.713 1.011 1.011 0 0 1 .214-1.2 3.063 3.063 0 0 1 .42-.378c.867-.6 1.745-1.18 2.609-1.781.819-.569 1.625-1.155 2.438-1.731s1.628-1.147 2.443-1.72q2.469-1.737 4.939-3.471c.878-.615 1.761-1.223 2.639-1.838.893-.626 1.779-1.261 2.673-1.885a7.763 7.763 0 0 1 .767-.475 1.094 1.094 0 0 1 1.435.344 1.108 1.108 0 0 1-.115 1.446 5.625 5.625 0 0 1-.75.6q-2.451 1.715-4.908 3.419c-1.019.708-2.045 1.4-3.06 2.117q-1.871 1.313-3.728 2.643c-.952.678-1.921 1.33-2.873 2.007s-1.916 1.332-2.873 2a4.714 4.714 0 0 1-.553.388 4.85 4.85 0 0 1-.681.228z"/></g></svg>