<svg width="51" height="52" viewBox="0 0 51 52" fill="none" xmlns="http://www.w3.org/2000/svg"><path d="M29.165 41.16l-9.853 9.853a3.366 3.366 0 0 1-4.764 0L4.695 41.16h24.47zM45.84 10.835L35.987.987a3.367 3.367 0 0 0-4.764 0l-9.854 9.848H45.84zm-20.573 6.743c-4.968 0-6.738 4.351-6.738 8.422 0 4.071 1.77 8.422 6.738 8.422s6.738-4.35 6.738-8.422c0-4.07-1.77-8.422-6.738-8.422zm25.268 18.53a3.368 3.368 0 0 1-3.369 3.368S3.1 39.451 2.97 39.436a3.346 3.346 0 0 1-2.934-2.984C.024 36.335 0 15.893 0 15.893a3.368 3.368 0 0 1 3.369-3.369s44.063.025 44.2.04a3.346 3.346 0 0 1 2.931 2.984c.011.116.035 20.56.035 20.56zm-43.8-1.685a1.684 1.684 0 1 0-.125.645c.084-.205.128-.424.128-.646l-.003.001zm0-16.845a1.684 1.684 0 1 0-.126.645c.085-.204.129-.423.129-.645h-.003zM33.69 26c0-5.582-2.84-10.107-8.422-10.107-5.582 0-8.422 4.525-8.422 10.107 0 5.582 2.84 10.107 8.422 10.107 5.582 0 8.422-4.525 8.422-10.107zm13.476 8.422a1.684 1.684 0 1 0-3.368 0 1.684 1.684 0 0 0 3.368 0zm0-16.845a1.684 1.684 0 1 0-3.368 0 1.684 1.684 0 0 0 3.368 0z" fill="#3E3C96"/></svg>