<svg width="20" height="20" viewBox="0 0 20 20" fill="none" xmlns="http://www.w3.org/2000/svg"><path d="M13 19v-5.4c0-.56 0-.84-.109-1.054a1 1 0 0 0-.437-.437C12.24 12 11.96 12 11.4 12H8.6c-.56 0-.84 0-1.054.109a1 1 0 0 0-.437.437C7 12.76 7 13.04 7 13.6V19M1 5a3 3 0 0 0 6 0 3 3 0 0 0 6 0 3 3 0 1 0 6 0M4.2 19h11.6c1.12 0 1.68 0 2.108-.218a2 2 0 0 0 .874-.874C19 17.48 19 16.92 19 15.8V4.2c0-1.12 0-1.68-.218-2.108a2 2 0 0 0-.874-.874C17.48 1 16.92 1 15.8 1H4.2c-1.12 0-1.68 0-2.108.218a2 2 0 0 0-.874.874C1 2.52 1 3.08 1 4.2v11.6c0 1.12 0 1.68.218 2.108a2 2 0 0 0 .874.874C2.52 19 3.08 19 4.2 19z" stroke="#fff" stroke-width="2" stroke-linecap="round" stroke-linejoin="round"/></svg>